<svg stroke-miterlimit="10"
  style="fill-rule:nonzero;clip-rule:evenodd;stroke-linecap:round;stroke-linejoin:round"
  viewBox="0 0 1800 2160" xml:space="preserve" xmlns="http://www.w3.org/2000/svg"><g layerName="Layer Black" stroke="#000" stroke-linecap="square" stroke-linejoin="bevel" stroke-width="12.984"><path d="M837.714 1734.1h0c.597.01 1.072.63 1.062 1.39l-3.701 284.3c-.01.76-.502 1.37-1.098 1.37h0c-.597-.01-1.072-.63-1.062-1.39l3.701-284.3c.01-.76.502-1.37 1.098-1.37z" layerName="Rectangle 1"/><path d="M1011.25 1735.57h0c.6.01 1.07.63 1.06 1.39l-3.7 284.29c-.01.77-.5 1.38-1.1 1.37h0c-.59 0-1.07-.62-1.06-1.39l3.7-284.29c.01-.76.5-1.38 1.1-1.37z" layerName="Rectangle 2"/></g><g layerName="Layer Inner" stroke-linecap="square" stroke-linejoin="bevel" stroke-width="12.984"><path d="M970.842 941.341h83.428c15.85 0 28.71 12.575 28.71 28.087v190.812c0 15.52-12.86 28.09-28.71 28.09h-83.428c-15.856 0-28.711-12.57-28.711-28.09V969.428c0-15.512 12.855-28.087 28.711-28.087z" fill="#d78269" stroke="#d78269" layerName="Rectangle 7"/><path d="M799.847 941.341h81.971c15.58 0 28.211 12.631 28.211 28.211v191.658c0 15.58-12.631 28.21-28.211 28.21h-81.971c-15.58 0-28.21-12.63-28.21-28.21V969.552c0-8.39 3.663-15.925 9.477-21.093a28.105 28.105 0 0 1 18.733-7.118z" fill="#d78269" stroke="#d78269" layerName="Rectangle 8"/><path d="m1291.74 789.966 59.59 58.382c11.32 11.096 11.71 29.075.85 40.155l-133.53 136.307c-10.86 11.08-28.84 11.07-40.17-.03l-59.59-58.382c-11.33-11.097-11.71-29.075-.85-40.156l133.53-136.305c10.86-11.08 28.84-11.067 40.17.029z" fill="#d8a191" stroke="#d8a191" layerName="Rectangle 7"/><path d="m1171.09 671.769 58.55 57.364c11.13 10.903 11.31 28.764.41 39.893l-134.13 136.908c-10.9 11.129-28.76 11.312-39.89.409l-58.553-57.364c-11.13-10.903-11.313-28.764-.41-39.894l134.123-136.907c5.87-5.994 13.76-8.813 21.53-8.435a28.121 28.121 0 0 1 18.37 8.026z" fill="#d78269" stroke="#d78269" layerName="Rectangle 8"/><path d="M1504.35 633.543c.76-6.627.84-3.8-11.21 4.836-11.14 7.987-31.75 14.574-51.12 11.86-23.27-3.262-32.61-11.515-38.48-12.302-2.73-.366-3.24 1.595-6.7 5.126L1304 737.585c-10.9 11.129-10.72 28.99.41 39.894l58.56 57.364c11.13 10.903 28.99 10.72 39.89-.41l137.92-141.228c1.17-1.192 9.82-8.269 8.08-7.632-3.7 1.351-7.81.157-8.38.204 0 0-14.48-1.349-22.57-5.276-8.1-3.928-9.81-10.434-9.81-10.434s-5.37-8.2-6.22-13.88c-.81-5.35.33-10.24.33-10.24s1.27-4.898 2.14-12.404zM1382.69 514.329c6.62-.833 3.79-.882-4.72 11.255-7.87 11.226-14.25 31.906-11.33 51.239 3.5 23.237 11.85 32.496 12.7 38.357.39 2.723-1.56 3.254-5.06 6.749l-93.55 93.811c-11.02 11.018-28.88 11.02-39.9.005l-57.97-57.956c-11.01-11.016-11.02-28.878 0-39.896l139.79-139.379c1.18-1.179 8.17-9.904 7.55-8.152-1.31 3.71-.08 7.805-.12 8.381 0 0 1.5 14.463 5.51 22.517 4.01 8.053 10.54 9.696 10.54 9.696s8.25 5.288 13.94 6.081c5.36.746 10.24-.443 10.24-.443s4.88-1.321 12.38-2.265z" fill="#d55f3d" stroke="#d55f3d" layerName="Rectangle 10"/><path d="m562.51 789.978-59.567 58.407c-11.322 11.102-11.697 29.08-.837 40.156L635.7 1024.79c10.861 11.07 28.843 11.05 40.165-.05l59.567-58.405c11.322-11.102 11.697-29.08.836-40.156L602.674 789.931c-10.86-11.075-28.842-11.055-40.164.047z" fill="#d8a191" stroke="#d8a191" layerName="Rectangle 7"/><path d="m683.108 671.728-58.529 57.39c-11.124 10.908-11.3 28.769-.392 39.894l134.184 136.849c10.908 11.125 28.769 11.301 39.894.393l58.529-57.39c11.125-10.908 11.301-28.769.393-39.894L723.002 672.121c-5.874-5.991-13.765-8.807-21.534-8.426-6.658.326-13.226 3-18.36 8.033z" fill="#d78269" stroke="#d78269" layerName="Rectangle 8"/><path d="M349.831 633.646c-.768-6.627-.845-3.8 11.207 4.831 11.147 7.983 31.763 14.561 51.124 11.839 23.271-3.273 32.611-11.53 38.481-12.319 2.727-.367 3.238 1.594 6.698 5.122l92.877 94.483c10.908 11.125 10.733 28.986-.392 39.894l-58.529 57.389c-11.125 10.908-28.986 10.732-39.894-.392L313.42 693.323c-1.167-1.19-9.822-8.265-8.077-7.628 3.698 1.35 7.804.154 8.381.201 0 0 14.477-1.355 22.569-5.287 8.093-3.931 9.801-10.438 9.801-10.438s5.37-8.202 6.219-13.883c.8-5.35-.341-10.239-.341-10.239s-1.272-4.897-2.141-12.403zM471.44 514.38c-6.62-.831-3.791-.881 4.724 11.253 7.877 11.222 14.258 31.9 11.352 51.234-3.493 23.239-11.839 32.5-12.684 38.362-.393 2.724 1.563 3.253 5.059 6.747l93.594 93.771c11.021 11.014 28.883 11.008 39.896-.013l57.944-57.98c11.013-11.021 11.007-28.883-.013-39.896L531.461 478.539c-1.18-1.179-8.171-9.901-7.551-8.149 1.314 3.71.08 7.805.121 8.382 0 0-1.493 14.463-5.501 22.518-4.008 8.055-10.531 9.701-10.531 9.701s-8.253 5.292-13.941 6.087c-5.358.749-10.236-.439-10.236-.439s-4.885-1.318-12.382-2.259z" fill="#d55f3d" stroke="#d55f3d" layerName="Rectangle 10"/><path d="M799.847 1207.76h81.971c15.58 0 28.211 12.63 28.211 28.21v191.66c0 15.58-12.631 28.21-28.211 28.21h-81.971c-15.58 0-28.21-12.63-28.21-28.21v-191.66c0-8.39 3.663-15.93 9.477-21.09a28.097 28.097 0 0 1 18.733-7.12z" fill="#d78269" stroke="#d78269" layerName="Rectangle 13"/><path d="M970.842 1207.76h83.428c15.85 0 28.71 12.57 28.71 28.09v190.81c0 15.51-12.86 28.09-28.71 28.09h-83.428c-15.856 0-28.711-12.58-28.711-28.09v-190.81c0-15.52 12.855-28.09 28.711-28.09z" fill="#d78269" stroke="#d78269" layerName="Rectangle 14"/><path d="M968.747 1474.28h83.423c15.86 0 28.71 12.57 28.71 28.08v190.82c0 15.51-12.85 28.09-28.71 28.09h-83.423c-15.857 0-28.711-12.58-28.711-28.09v-190.82c0-15.51 12.854-28.08 28.711-28.08z" fill="#d78269" stroke="#d78269" layerName="Rectangle 10"/><path d="M799.847 1474.28h81.971c15.58 0 28.211 12.63 28.211 28.21v191.66c0 15.58-12.631 28.21-28.211 28.21h-81.971c-15.58 0-28.21-12.63-28.21-28.21v-191.66c0-8.39 3.663-15.93 9.477-21.09a28.097 28.097 0 0 1 18.733-7.12z" fill="#d78269" stroke="#d78269" layerName="Rectangle 11"/></g><g layerName="Layer Membrane" fill="none" stroke="#835649" stroke-linecap="round" stroke-linejoin="round" stroke-width="3"><path d="M970.345 935.202c-.276 0-.537.086-.812.094h-.25c-17.689 0-32.031 14.043-32.031 31.344v197.5c0 7.08 3.449 13.32 7.906 18.47 4.522 5.99 10.691 10.54 17.906 12.15 1 .24 2.116.26 3.188.38.88.09 1.722.34 2.625.34h87.183c.68 0 1.31-.21 1.97-.25 1.55-.11 3.09-.24 4.57-.56 1.23-.26 2.38-.66 3.56-1.06 1.05-.36 2.06-.73 3.06-1.19.94-.44 1.83-.91 2.72-1.44 1.6-.93 3.09-1.97 4.5-3.15.16-.15.34-.26.5-.41 6.55-5.72 10.75-13.93 10.75-23.19V967.171c0-15.104-10.97-27.711-25.56-30.625-.03-.006-.07.006-.1 0-2.34-.584-4.74-.969-7.22-.969l-84.465-.375z" layerName="Curve 1"/><path d="M968.249 1468.14c-.276 0-.537.08-.812.09h-.25c-17.689 0-32.031 14.05-32.031 31.35v197.5c0 7.07 3.45 13.32 7.906 18.46 4.522 5.99 10.692 10.55 17.906 12.16 1 .24 2.117.26 3.188.38.88.08 1.723.34 2.625.34H1053.97c.67 0 1.3-.21 1.97-.25 1.54-.11 3.08-.24 4.56-.56 1.23-.26 2.38-.66 3.56-1.07 1.05-.35 2.07-.73 3.06-1.18.94-.44 1.84-.91 2.72-1.44 1.6-.93 3.1-1.98 4.5-3.16.17-.14.34-.26.5-.4 6.55-5.73 10.75-13.94 10.75-23.19v-197.06c0-15.11-10.96-27.71-25.56-30.63-.03 0-.06.01-.09 0-2.34-.58-4.75-.97-7.22-.97l-84.471-.37z" layerName="Curve 57"/><path d="M798.383 1468.14c-.276 0-.537.08-.813.09h-.25c-17.688 0-32.031 14.05-32.031 31.35v197.5c0 7.07 3.45 13.32 7.906 18.46 4.522 5.99 10.692 10.55 17.907 12.16 1 .24 2.116.26 3.187.38.88.08 1.723.34 2.625.34h87.188c.674 0 1.303-.21 1.968-.25 1.544-.11 3.088-.24 4.563-.56 1.232-.26 2.384-.66 3.562-1.07a31.88 31.88 0 0 0 3.063-1.18c.938-.44 1.832-.91 2.719-1.44 1.6-.93 3.095-1.98 4.5-3.16.162-.14.34-.26.5-.4 6.548-5.73 10.75-13.94 10.75-23.19v-197.06c0-15.11-10.968-27.71-25.563-30.63-.03 0-.064.01-.094 0-2.34-.58-4.745-.97-7.218-.97l-65.532-.22-18.937-.15z" layerName="Curve 58"/><path d="M970.345 1201.62c-.276 0-.537.08-.812.09h-.25c-17.689 0-32.031 14.05-32.031 31.35v197.5c0 7.07 3.449 13.32 7.906 18.47 4.522 5.99 10.691 10.54 17.906 12.15 1 .24 2.116.26 3.188.38.88.09 1.722.34 2.625.34h87.183c.68 0 1.31-.21 1.97-.25 1.55-.11 3.09-.24 4.57-.56 1.23-.26 2.38-.66 3.56-1.06 1.05-.36 2.06-.74 3.06-1.19.94-.44 1.83-.91 2.72-1.44 1.6-.93 3.09-1.98 4.5-3.16.16-.14.34-.26.5-.4 6.55-5.72 10.75-13.94 10.75-23.19v-197.06c0-15.11-10.97-27.71-25.56-30.63-.03 0-.07.01-.1 0-2.34-.58-4.74-.97-7.22-.97l-84.465-.37z" layerName="Curve 59"/><path d="M798.383 1201.62c-.276 0-.537.08-.813.09h-.25c-17.688 0-32.031 14.05-32.031 31.35v197.5c0 7.07 3.45 13.32 7.906 18.47 4.522 5.99 10.692 10.54 17.907 12.15 1 .24 2.116.26 3.187.38.88.09 1.723.34 2.625.34h87.188c.674 0 1.303-.21 1.968-.25 1.544-.11 3.088-.24 4.563-.56 1.232-.26 2.384-.66 3.562-1.06 1.049-.36 2.068-.74 3.063-1.19.938-.44 1.832-.91 2.719-1.44 1.6-.93 3.095-1.98 4.5-3.16.162-.14.34-.26.5-.4 6.548-5.72 10.75-13.94 10.75-23.19v-197.06c0-15.11-10.968-27.71-25.563-30.63-.03 0-.064.01-.094 0-2.34-.58-4.745-.97-7.218-.97l-65.532-.21-18.937-.16z" layerName="Curve 60"/><path d="M798.383 935.202c-.276 0-.537.086-.813.094h-.25c-17.688 0-32.031 14.043-32.031 31.344v197.5c0 7.08 3.45 13.32 7.906 18.47 4.522 5.99 10.692 10.54 17.907 12.15 1 .24 2.116.26 3.187.38.88.09 1.723.34 2.625.34h87.188c.674 0 1.303-.21 1.968-.25 1.544-.11 3.088-.24 4.563-.56 1.232-.26 2.384-.66 3.562-1.06 1.049-.36 2.068-.73 3.063-1.19.938-.44 1.832-.91 2.719-1.44 1.6-.93 3.095-1.97 4.5-3.15.162-.15.34-.26.5-.41 6.548-5.72 10.75-13.93 10.75-23.19V967.171c0-15.104-10.968-27.711-25.563-30.625-.03-.006-.064.006-.094 0-2.34-.584-4.745-.969-7.218-.969l-65.532-.219-18.937-.156z" layerName="Curve 55"/><path d="M1295.68 785.233c-.2-.194-.45-.315-.65-.502l-.18-.175c-12.63-12.379-32.71-12.384-44.81-.026l-1.91 1.942-136.31 139.138c-4.95 5.056-6.85 11.929-7.27 18.725-.97 7.443.26 15.012 4.28 21.215.55.869 1.33 1.663 2.02 2.498.56.68.99 1.451 1.63 2.083l.29.284 61.7 60.445.29.29c.48.47 1.08.76 1.58 1.19 1.18 1.01 2.38 1.99 3.65 2.8 1.07.67 2.17 1.19 3.29 1.73 1 .48 1.99.92 3.02 1.3.98.34 1.95.63 2.95.87 1.79.46 3.59.75 5.42.9.22.01.43.05.64.06 8.69.49 17.43-2.44 23.91-9.05l136.75-139.579 1.16-1.183c10.57-10.789 11.55-27.47 3.17-39.766-.02-.025-.05-.04-.07-.065-1.26-2.055-2.71-4.013-4.48-5.744l-60.07-59.38z" layerName="Curve 59"/><path d="M1508.82 655.493c1.48 8.912 1.63 8.253 6.88 13.941 5.25 5.689 10.51 7.571 14.12 8.813 6.54 2.25 15.46.972 21.51 1.716 2.31.283 3.03.84 3.03.84s1.57 1.11 1.76 2.315c.38 2.409-1.43 3.934-1.43 3.934l-1.51 2.32-1.85 2.064-9.67 10.394-136.31 139.137c-4.96 5.056-11.79 7.101-18.58 7.66-7.42 1.114-15.01.048-21.29-3.847-.88-.531-1.69-1.299-2.54-1.963-.69-.553-1.47-.96-2.12-1.592l-.29-.284-61.7-60.446-.29-.285c-.48-.471-.78-1.06-1.23-1.556-1.02-1.161-2.03-2.335-2.87-3.595-.69-1.047-1.24-2.14-1.8-3.252-.5-.988-.96-1.968-1.35-2.991a27.73 27.73 0 0 1-.94-2.93 32.33 32.33 0 0 1-1.01-5.403c-.01-.216-.06-.424-.07-.64-.67-8.671 2.07-17.477 8.55-24.087 0 0 100.37-102.381 103.45-104.709 2.37-1.782 4.07 1.581 10.16 4.061 6.09 2.479 14.22 5.857 14.22 5.857s10.88 3.908 22.84 4.033c11.96.124 13.53.479 24.65-3.182 11.12-3.662 20.53-11.703 20.53-11.703s10.33-7.536 14.16-6.797c.72.138 2.38 1.43 1.93 10.472-.73 14.779-2.43 12.794-.94 21.705zM1360.69 510.088c-8.92-1.391-8.27-1.545-14.01-6.737s-7.68-10.433-8.96-14.031c-2.32-6.517-1.13-15.445-1.94-21.494-.3-2.302-.87-3.012-.87-3.012s-1.13-1.559-2.33-1.739c-2.41-.359-3.92 1.47-3.92 1.47l-2.31 1.529-2.04 1.881-10.29 9.775-137.72 137.746c-5 5.005-6.98 11.859-7.47 18.65-1.03 7.434.11 15.014 4.07 21.257.54.875 1.32 1.677 1.99 2.519.56.685.98 1.461 1.61 2.099l.29.288 61.08 61.069.29.288c.48.476 1.07.774 1.57 1.215 1.17 1.012 2.36 2.01 3.63 2.828 1.05.688 2.15 1.218 3.27 1.767.99.489 1.97.945 3 1.326.97.354 1.94.653 2.94.906 1.79.474 3.59.789 5.41.949.22.014.43.057.64.066 8.68.583 17.46-2.253 24-8.797 0 0 101.34-101.423 103.63-104.533 1.76-2.382-1.62-4.046-4.16-10.113-2.55-6.068-6.01-14.158-6.01-14.158s-4.02-10.842-4.27-22.8c-.25-11.957-.62-13.523 2.93-24.681 3.54-11.158 11.49-20.648 11.49-20.648s7.43-10.406 6.65-14.233c-.15-.714-1.46-2.364-10.49-1.822-14.77.886-12.77 2.562-21.7 1.17z" layerName="Curve 61"/><path d="M1174.34 666.358c-.2-.193-.45-.315-.65-.501l-.18-.175c-12.63-12.379-32.71-12.385-44.81-.027l-1.91 1.942-136.306 139.138c-4.954 5.056-6.858 11.929-7.277 18.725-.962 7.444.26 15.012 4.283 21.215.548.869 1.334 1.663 2.015 2.499.566.679.99 1.451 1.635 2.082l.29.284 61.7 60.447.29.284c.48.472 1.08.763 1.58 1.199 1.18 1 2.38 1.986 3.65 2.791 1.06.677 2.17 1.197 3.29 1.734 1 .479 1.99.925 3.02 1.295.98.344 1.95.634 2.95.876 1.79.456 3.59.754 5.42.895.22.011.43.052.64.059 8.69.495 17.43-2.431 23.91-9.04l136.75-139.584 1.16-1.183c10.57-10.789 11.55-27.47 3.17-39.765-.02-.026-.05-.041-.07-.066-1.26-2.055-2.71-4.013-4.48-5.744l-46.66-46.016-13.41-13.364z" layerName="Curve 62"/><path d="M558.567 785.246c.197-.193.443-.315.645-.502l.179-.175c12.63-12.384 32.703-12.398 44.815-.045l1.904 1.941 136.37 139.079c4.956 5.054 6.862 11.926 7.285 18.722.965 7.443-.254 15.012-4.275 21.217-.547.869-1.332 1.664-2.013 2.499-.566.68-.99 1.452-1.634 2.084l-.29.284-61.674 60.47-.29.29c-.481.47-1.076.76-1.581 1.2-1.181 1-2.375 1.98-3.651 2.79-1.061.68-2.166 1.2-3.288 1.74-.998.47-1.987.92-3.018 1.29-.976.35-1.944.64-2.948.88a32.39 32.39 0 0 1-5.423.9c-.216.01-.424.05-.641.06-8.682.49-17.432-2.43-23.91-9.03L498.322 891.41l-1.16-1.183c-10.574-10.784-11.57-27.465-3.189-39.764.017-.025.05-.04.067-.065 1.262-2.055 2.71-4.014 4.476-5.746l60.051-59.406z" layerName="Curve 59"/><path d="M345.371 655.598c-1.48 8.912-1.627 8.253-6.876 13.944-5.249 5.691-10.509 7.576-14.12 8.819-6.539 2.253-15.455.979-21.512 1.725-2.305.284-3.02.842-3.02.842s-1.571 1.11-1.762 2.315c-.384 2.409 1.431 3.933 1.431 3.933l1.506 2.32 1.86 2.064 9.673 10.389 136.37 139.079c4.955 5.054 11.789 7.095 18.575 7.651 7.423 1.112 15.014.042 21.297-3.856.88-.531 1.689-1.3 2.538-1.964.691-.553 1.471-.961 2.115-1.592l.29-.285 61.674-60.473.29-.284c.482-.472.785-1.061 1.231-1.557 1.024-1.161 2.033-2.336 2.864-3.596.698-1.047 1.239-2.141 1.8-3.253.498-.988.964-1.969 1.355-2.992a29.6 29.6 0 0 0 .935-2.93 31.904 31.904 0 0 0 1.003-5.404c.016-.216.062-.423.073-.64.669-8.67-2.08-17.476-8.558-24.083 0 0-100.412-102.338-103.499-104.664-2.363-1.781-4.061 1.583-10.154 4.065a2509.543 2509.543 0 0 0-14.216 5.863s-10.882 3.913-22.841 4.043c-11.96.129-13.529.485-24.651-3.172-11.122-3.656-20.533-11.694-20.533-11.694s-10.331-7.531-14.166-6.791c-.716.138-2.379 1.431-1.926 10.473.739 14.779 2.435 12.793.954 21.705zM493.433 510.13c8.926-1.396 8.269-1.549 14.009-6.744 5.741-5.194 7.675-10.436 8.953-14.035 2.315-6.517 1.126-15.445 1.93-21.494.306-2.302.87-3.013.87-3.013s1.125-1.56 2.332-1.74c2.413-.36 3.92 1.468 3.92 1.468l2.305 1.528 2.045 1.88 10.297 9.771L677.87 615.438c5.007 5.003 6.983 11.856 7.475 18.647 1.04 7.433-.102 15.014-4.059 21.259-.539.875-1.316 1.677-1.988 2.52-.56.685-.975 1.461-1.613 2.1l-.287.287-61.056 61.096-.288.287c-.476.477-1.068.775-1.568 1.216-1.171 1.013-2.355 2.011-3.623 2.83-1.054.688-2.153 1.219-3.27 1.769-.993.489-1.978.945-3.005 1.326-.972.355-1.937.655-2.938.907a31.852 31.852 0 0 1-5.414.952c-.216.014-.424.058-.641.067-8.676.586-17.455-2.246-24-8.787 0 0-101.379-101.38-103.675-104.489-1.759-2.381 1.621-4.046 4.161-10.115 2.54-6.069 5.998-14.16 5.998-14.16s4.016-10.844 4.26-22.802c.243-11.958.614-13.523-2.937-24.68-3.55-11.156-11.498-20.643-11.498-20.643s-7.433-10.402-6.656-14.23c.145-.714 1.453-2.365 10.49-1.826 14.772.879 12.769 2.556 21.695 1.161z" layerName="Curve 61"/><path d="M679.856 666.319c.197-.193.443-.315.646-.502l.178-.175c12.63-12.384 32.703-12.398 44.816-.045l1.903 1.941 136.37 139.079c4.956 5.054 6.863 11.927 7.285 18.723.965 7.443-.254 15.012-4.275 21.216-.547.87-1.332 1.664-2.013 2.499-.566.68-.989 1.452-1.634 2.084l-.29.284-61.674 60.473-.29.284c-.481.472-1.076.764-1.581 1.2-1.18 1.001-2.375 1.987-3.651 2.793-1.061.677-2.165 1.197-3.288 1.735-.998.479-1.987.926-3.018 1.297-.976.344-1.944.634-2.947.877a31.897 31.897 0 0 1-5.423.897c-.217.011-.425.052-.642.059-8.682.499-17.431-2.423-23.91-9.03L619.611 772.483l-1.16-1.182c-10.574-10.785-11.569-27.465-3.189-39.764.018-.026.05-.041.067-.066 1.262-2.055 2.711-4.014 4.476-5.746l46.638-46.036 13.413-13.37z" layerName="Curve 62"/></g></svg>
