<?xml version="1.0" encoding="UTF-8" standalone="no"?>
<svg height="100%" stroke-miterlimit="10" style="fill-rule:nonzero;clip-rule:evenodd;stroke-linecap:round;stroke-linejoin:round;" version="1.1" viewBox="0 0 1224 792" width="100%" xmlns="http://www.w3.org/2000/svg">
<defs/>
<g id="Layer-Black" layerName="Layer Black">
<path d="M506.16 461.066L506.16 461.066C506.756 461.071 507.232 461.693 507.222 462.456L503.521 746.75C503.511 747.512 503.019 748.125 502.423 748.12L502.423 748.12C501.826 748.114 501.351 747.492 501.361 746.73L505.062 462.436C505.072 461.674 505.563 461.06 506.16 461.066Z" fill="#000000" fill-rule="nonzero" opacity="1" stroke="#000000" stroke-linecap="square" stroke-linejoin="bevel" stroke-width="12.9836"/>
</g>
<g id="Layer-Dark" layerName="Layer Dark">
<path d="M466.964 207.889L548.935 207.889C564.515 207.889 577.146 220.52 577.146 236.1L577.146 427.759C577.146 443.34 564.515 455.97 548.935 455.97L466.964 455.97C451.384 455.97 438.754 443.34 438.754 427.759L438.754 236.1C438.754 220.52 451.384 207.889 466.964 207.889Z" fill="#6260e8" fill-rule="nonzero" opacity="1" stroke="#6361e9" stroke-linecap="square" stroke-linejoin="bevel" stroke-width="12.9836"/>
<g opacity="1" layerName="(curve)">
<g opacity="1" layerName="(curve)">
<path d="M462.171 70.0169C448.479 70.0169 437.389 80.7422 437.389 93.9856L437.389 166.829C437.389 180.073 448.479 190.798 462.171 190.798L548.702 190.798C562.394 190.798 573.514 180.073 573.514 166.829L573.514 145.517C560.463 144.828 547.347 140.846 535.421 132.798C535.414 132.795 535.396 132.771 535.389 132.767C535.311 132.719 535.274 132.707 535.171 132.642C534.754 132.402 534.237 132.127 533.733 131.829C530.189 129.735 527.154 127.673 523.702 124.673C516.66 118.555 510.89 110.895 507.421 100.486C503.91 89.9541 503.626 79.5985 505.733 70.0169L462.171 70.0169Z" fill="#6260e8" fill-rule="nonzero" opacity="1" stroke="#6260e7" stroke-linecap="square" stroke-linejoin="bevel" stroke-width="2"/>
<path d="M414.045 97.0056L471.492 97.0056C477.001 97.0056 481.467 101.472 481.467 106.981L481.467 142.9C481.467 148.409 477.001 152.875 471.492 152.875L414.045 152.875C408.536 152.875 404.07 148.409 404.07 142.9L404.07 106.981C404.07 101.472 408.536 97.0056 414.045 97.0056Z" fill="#6260e8" fill-rule="nonzero" opacity="1" stroke="#6260e7" stroke-linecap="square" stroke-linejoin="bevel" stroke-width="2"/>
<path d="M421.241 141.599L421.241 141.599C421.382 141.599 421.497 141.713 421.497 141.855L421.497 142.367C421.497 142.509 421.382 142.624 421.241 142.624L421.241 142.624C421.099 142.624 420.984 142.509 420.984 142.367L420.984 141.855C420.984 141.713 421.099 141.599 421.241 141.599Z" fill="#6260e8" fill-rule="nonzero" opacity="1" stroke="#6260e7" stroke-linecap="square" stroke-linejoin="bevel" stroke-width="2"/>
</g>
</g>
<g opacity="1" layerName="(curve)">
<g opacity="1" layerName="(curve)">
<path d="M705.313 70.3848C719.005 70.3848 730.094 81.11 730.094 94.3535L730.094 167.197C730.094 180.441 719.005 191.166 705.313 191.166L618.782 191.166C605.09 191.166 593.969 180.441 593.969 167.197L593.969 145.885C607.021 145.196 620.136 141.214 632.063 133.166C632.069 133.162 632.087 133.139 632.094 133.135C632.173 133.087 632.209 133.075 632.313 133.01C632.73 132.77 633.247 132.495 633.75 132.197C637.295 130.103 640.33 128.041 643.782 125.041C650.823 118.922 656.593 111.262 660.063 100.854C663.573 90.322 663.858 79.9664 661.75 70.3848L705.313 70.3848Z" fill="#6260e8" fill-rule="nonzero" opacity="1" stroke="#6260e7" stroke-linecap="square" stroke-linejoin="bevel" stroke-width="2"/>
<path d="M753.439 97.3735L695.992 97.3735C690.483 97.3735 686.017 101.839 686.017 107.348L686.017 143.268C686.017 148.777 690.483 153.243 695.992 153.243L753.439 153.243C758.948 153.243 763.414 148.777 763.414 143.268L763.414 107.348C763.414 101.839 758.948 97.3735 753.439 97.3735Z" fill="#6260e8" fill-rule="nonzero" opacity="1" stroke="#6260e7" stroke-linecap="square" stroke-linejoin="bevel" stroke-width="2"/>
<path d="M746.243 141.966L746.243 141.966C746.101 141.966 745.987 142.081 745.987 142.223L745.987 142.735C745.987 142.877 746.101 142.992 746.243 142.992L746.243 142.992C746.384 142.992 746.499 142.877 746.499 142.735L746.499 142.223C746.499 142.081 746.384 141.966 746.243 141.966Z" fill="#6260e8" fill-rule="nonzero" opacity="1" stroke="#6260e7" stroke-linecap="square" stroke-linejoin="bevel" stroke-width="2"/>
</g>
</g>
</g>
<g id="Layer-Light" layerName="Layer Light">
<path d="M599.757 331.787C599.757 264.153 627.049 209.324 660.716 209.324C694.382 209.324 721.674 264.153 721.674 331.787C721.674 399.422 694.382 454.25 660.716 454.25C627.049 454.25 599.757 399.422 599.757 331.787Z" fill="#b3b2e7" fill-rule="nonzero" opacity="1" stroke="#b2b1e6" stroke-linecap="square" stroke-linejoin="bevel" stroke-width="12.9836"/>
</g>
<g id="Layer-Membrane" layerName="Layer Membrane">
<g opacity="1">
<path d="M467.125 201C464.736 200.994 462.374 200.966 460 201.281C455.392 201.893 450.893 203.495 446.938 205.938C439.163 210.738 433.627 218.724 432.062 227.75C431.485 231.08 431.591 234.447 431.594 237.812C431.598 242.442 431.588 247.058 431.594 251.688C431.632 283.578 431.659 315.485 431.719 347.375C431.756 367.435 431.811 387.503 431.844 407.562C431.853 413.22 431.867 418.873 431.875 424.531C431.881 428.438 431.622 432.392 432.562 436.219C434.207 442.91 438.553 448.747 443.562 453.344C445.46 455.085 447.451 456.738 449.625 458.125C452.868 460.193 456.467 461.627 460.281 462.188C463.45 462.653 466.684 462.505 469.875 462.5C474.395 462.494 478.918 462.475 483.438 462.469C502.421 462.442 521.391 462.431 540.375 462.406C543.087 462.403 545.819 462.378 548.531 462.375C551.188 462.372 553.806 462.4 556.438 461.969C565.454 460.492 573.632 454.966 578.125 446.969C580.888 442.051 582.321 436.368 582.781 430.781C583.085 427.095 582.907 423.352 582.906 419.656C582.905 409.668 582.907 399.675 582.906 389.688C582.902 351.734 582.909 313.766 582.906 275.812C582.906 265.325 582.907 254.862 582.906 244.375C582.906 241.878 582.906 239.372 582.906 236.875C582.906 235.292 582.891 233.732 582.719 232.156C582.408 229.314 581.711 226.5 580.656 223.844C580.491 223.428 580.213 223.065 580.031 222.656C581.068 225.015 581.858 227.486 582.312 230.031C582.807 232.8 582.788 235.573 582.781 238.375C582.775 240.872 582.756 243.378 582.75 245.875C582.631 297.312 582.53 348.719 582.406 400.156C582.392 406.149 582.358 412.164 582.344 418.156C582.332 422.94 582.565 427.807 581.969 432.562C580.672 442.898 576.053 452.107 566.812 457.5C563.22 459.597 559.191 460.94 555.062 461.438C551.116 461.913 547.062 461.661 543.094 461.656C534.054 461.645 525.009 461.637 515.969 461.625C502.409 461.608 488.841 461.582 475.281 461.562C472.569 461.559 469.868 461.535 467.156 461.531C464.899 461.528 462.645 461.585 460.406 461.25C457.647 460.837 454.976 459.938 452.5 458.656C449.445 457.074 446.77 454.919 444.25 452.594C439.165 447.901 434.714 441.85 433.375 434.938C432.714 431.522 432.964 427.989 432.969 424.531C432.977 418.873 432.991 413.22 433 407.562C433.054 374.644 433.119 341.7 433.156 308.781C433.178 289.236 433.198 269.702 433.219 250.156C433.223 246.041 433.246 241.927 433.25 237.812C433.252 235.235 433.137 232.631 433.406 230.062C433.79 226.395 434.875 222.81 436.562 219.531C441.027 210.857 449.584 204.751 459.188 203.156C462.262 202.646 465.364 202.739 468.469 202.75C472.033 202.763 475.592 202.768 479.156 202.781C494.748 202.839 510.314 202.883 525.906 202.938C531.698 202.958 537.49 202.98 543.281 203C544.618 203.005 545.976 202.995 547.312 203C547.758 203.002 547.296 203.022 549.969 203.031C550.46 203.033 550.857 202.644 550.875 202.156C550.488 202.144 549.969 202.125 549.969 202.125C549.969 202.125 550.491 202.138 550.875 202.125C550.877 201.622 550.471 201.22 549.969 201.219C548.632 201.215 549.12 201.268 548.656 201.188C548.217 201.112 547.758 201.189 547.312 201.188C546.422 201.185 545.516 201.19 544.625 201.188C541.952 201.181 539.298 201.163 536.625 201.156C527.27 201.132 517.918 201.118 508.562 201.094C496.98 201.064 485.395 201.028 473.812 201C471.585 200.995 469.352 201.005 467.125 201ZM550.875 202.125C550.875 202.136 550.875 202.146 550.875 202.156C551.435 202.174 551.972 202.172 552.188 202.188C551.823 202.16 551.454 202.064 551.094 202.125C551.018 202.138 550.968 202.122 550.875 202.125ZM552.188 202.188C553.019 202.251 553.832 202.398 554.656 202.531C554.549 202.514 554.452 202.453 554.344 202.438C553.659 202.337 552.878 202.239 552.188 202.188ZM554.656 202.531C556.797 202.87 558.884 203.47 560.906 204.25C559.117 203.556 557.293 202.979 555.406 202.625C555.158 202.578 554.906 202.572 554.656 202.531ZM560.906 204.25C561.543 204.497 562.162 204.807 562.781 205.094C562.369 204.904 562.013 204.61 561.594 204.438C561.373 204.347 561.129 204.336 560.906 204.25ZM562.781 205.094C563.749 205.54 564.674 206.058 565.594 206.594C565.212 206.37 564.89 206.052 564.5 205.844C563.951 205.55 563.346 205.356 562.781 205.094ZM565.594 206.594C567.106 207.481 568.544 208.487 569.906 209.594C568.535 208.484 567.117 207.482 565.594 206.594ZM569.906 209.594C570.425 210.013 570.944 210.427 571.438 210.875C570.94 210.422 570.428 210.018 569.906 209.594ZM571.438 210.875C572.942 212.246 574.313 213.737 575.562 215.344C574.308 213.736 572.947 212.246 571.438 210.875ZM575.562 215.344C575.804 215.653 576.081 215.933 576.312 216.25C576.08 215.93 575.805 215.656 575.562 215.344ZM576.312 216.25C577.726 218.199 578.956 220.274 579.938 222.469C578.948 220.273 577.732 218.198 576.312 216.25Z" fill="#302e92" stroke="none"/>
</g>
<g opacity="1">
<path d="M657.406 202.594C654.327 202.898 651.284 203.602 648.375 204.656C636.223 209.059 626.803 218.953 619.75 229.469C614.198 237.746 609.866 246.805 606.375 256.125C603.354 264.19 601.167 272.499 599.312 280.906C599.981 277.939 600.668 274.994 601.469 272.062C602.934 266.703 604.63 261.385 606.594 256.188C608.226 251.866 610.032 247.618 612.062 243.469C613.494 240.544 615.028 237.677 616.688 234.875C625.288 220.353 638.615 205.422 656.312 203.156C658.584 202.865 660.902 202.816 663.188 202.969C666.234 203.173 669.225 203.767 672.125 204.719C676.697 206.219 680.956 208.576 684.812 211.438C690.293 215.505 695.007 220.563 699.062 226.031C710.642 241.647 717.592 260.843 721.875 279.656C727.518 304.44 728.831 330.291 726.312 355.562C724.507 373.684 720.706 391.731 714.062 408.719C712.4 412.969 710.563 417.147 708.5 421.219C707.048 424.084 705.492 426.887 703.812 429.625C695.13 443.782 681.795 458.208 664.281 459.875C662.034 460.089 659.746 460.068 657.5 459.844C654.502 459.545 651.55 458.872 648.719 457.844C636.772 453.505 627.532 443.742 620.594 433.406C615.081 425.194 610.751 416.216 607.281 406.969C602.554 394.372 599.399 381.227 597.375 367.938C596.046 359.212 595.294 350.409 594.906 341.594C594.81 339.408 594.736 337.219 594.719 335.031C594.716 334.661 594.722 334.307 594.719 333.938C594.716 333.568 594.705 333.938 594.688 331.719C594.683 331.227 594.301 330.825 593.812 330.812C593.808 330.72 593.827 330.669 593.812 330.594C593.812 330.694 593.782 330.718 593.781 330.812C593.279 330.817 592.871 331.216 592.875 331.719C592.885 332.828 592.983 332.452 592.906 332.844C592.835 333.207 592.903 333.568 592.906 333.938C592.913 334.68 592.893 335.414 592.906 336.156C592.945 338.358 593.026 340.581 593.125 342.781C593.524 351.642 594.436 360.453 595.781 369.219C596.94 376.767 598.52 384.26 600.531 391.625C602.004 397.018 603.715 402.331 605.688 407.562C607.328 411.913 609.146 416.197 611.188 420.375C612.628 423.324 614.173 426.237 615.844 429.062C624.602 443.87 638.161 458.924 656.188 461.219C658.522 461.516 660.901 461.596 663.25 461.438C666.377 461.226 669.46 460.601 672.438 459.625C677.108 458.093 681.463 455.701 685.406 452.781C691.37 448.365 696.415 442.769 700.719 436.75C711.867 421.158 718.616 402.566 722.844 384C728.822 357.746 729.925 330.28 726.812 303.562C724.79 286.203 720.861 268.949 714.312 252.719C712.815 249.006 711.182 245.354 709.375 241.781C707.913 238.892 706.347 236.043 704.656 233.281C695.802 218.821 682.231 204.308 664.375 202.594C662.065 202.372 659.716 202.365 657.406 202.594ZM599.312 280.906C598.693 283.656 598.159 286.415 597.656 289.188C598.154 286.415 598.706 283.657 599.312 280.906ZM597.656 289.188C597.287 291.247 596.751 293.276 596.438 295.344C595.111 304.104 594.35 312.932 593.969 321.781C593.89 323.614 593.867 325.446 593.844 327.281C593.885 325.088 593.962 322.879 594.062 320.688C594.468 311.861 595.371 303.076 596.719 294.344C596.985 292.618 597.344 290.907 597.656 289.188Z" fill="#302e92" stroke="none"/>
</g>
<g opacity="1">
<path d="M660.875 201.906C641.254 201.863 626.201 217.395 616.656 233C614.959 235.775 613.403 238.628 611.938 241.531C610.127 245.118 608.469 248.804 606.969 252.531C605.148 257.054 603.55 261.65 602.125 266.312C600.032 273.163 598.343 280.153 597 287.188C594.891 298.235 593.631 309.423 593.125 320.656C593.009 323.228 592.929 325.8 592.906 328.375C592.903 328.745 592.91 329.13 592.906 329.5C592.903 329.87 592.894 329.5 592.875 331.719C592.871 332.221 593.279 332.621 593.781 332.625C593.777 332.235 593.781 331.719 593.781 331.719C593.781 331.719 593.783 332.233 593.812 332.625C594.301 332.613 594.683 332.211 594.688 331.719C594.696 330.609 594.635 330.985 594.719 330.594C594.796 330.232 594.716 329.87 594.719 329.5C594.724 328.763 594.738 328.018 594.75 327.281C594.793 324.732 594.888 322.203 595 319.656C595.325 312.261 596.017 304.859 597.062 297.531C599.777 278.507 604.778 259.532 613.438 242.312C618.487 232.272 624.876 222.617 633.312 215.094C637.263 211.571 641.718 208.53 646.594 206.438C650.068 204.946 653.735 203.938 657.5 203.562C660.12 203.301 662.763 203.355 665.375 203.688C683.414 205.982 696.9 221.651 705.438 236.5C707.069 239.338 708.564 242.262 709.969 245.219C711.705 248.873 713.287 252.592 714.719 256.375C720.965 272.88 724.565 290.34 726.312 307.875C728.957 334.411 727.447 361.653 721 387.562C716.512 405.6 709.555 423.701 698.156 438.562C693.804 444.237 688.737 449.438 682.781 453.438C678.848 456.078 674.527 458.168 669.938 459.375C666.989 460.151 663.924 460.527 660.875 460.531C641.633 460.559 626.856 445.19 617.5 429.906C615.816 427.155 614.268 424.316 612.812 421.438C611.012 417.876 609.368 414.232 607.875 410.531C606.062 406.035 604.451 401.447 603.031 396.812C600.943 389.995 599.281 383.064 597.938 376.062C595.827 365.061 594.577 353.907 594.062 342.719C593.945 340.158 593.837 337.595 593.812 335.031C593.814 335.406 593.807 335.781 593.812 336.156C593.853 338.714 593.952 341.257 594.062 343.812C594.382 351.239 595.082 358.672 596.125 366.031C598.838 385.162 603.867 404.242 612.562 421.562C617.661 431.718 624.127 441.456 632.656 449.062C636.687 452.657 641.212 455.775 646.188 457.906C649.756 459.435 653.54 460.43 657.406 460.812C660.1 461.079 662.815 461.063 665.5 460.719C683.887 458.364 697.577 442.57 706.281 427.406C707.924 424.545 709.43 421.605 710.844 418.625C712.589 414.946 714.186 411.184 715.625 407.375C721.894 390.79 725.494 373.273 727.25 355.656C729.905 329.014 728.4 301.642 721.938 275.625C717.54 257.921 710.771 240.196 699.844 225.438C695.482 219.546 690.384 214.142 684.375 209.906C680.39 207.097 675.997 204.821 671.312 203.438C667.931 202.439 664.402 201.914 660.875 201.906ZM593.812 332.625C593.802 332.625 593.792 332.625 593.781 332.625C593.782 332.706 593.812 332.727 593.812 332.812C593.798 332.745 593.819 332.706 593.812 332.625Z" fill="#302e92" stroke="none"/>
</g>
<g opacity="1">
<path d="M465.5 200.812C464.997 200.808 464.598 201.216 464.594 201.719C464.594 201.729 464.593 201.74 464.594 201.75C464.513 201.758 464.473 201.734 464.406 201.75C464.061 201.834 463.668 201.789 463.312 201.812C463.531 201.795 464.062 201.801 464.625 201.781C464.659 202.25 465.022 202.652 465.5 202.656C466.833 202.667 466.35 202.574 466.812 202.656C467.687 202.813 468.611 202.68 469.5 202.688C470.833 202.698 472.167 202.708 473.5 202.719C478.388 202.758 483.268 202.774 488.156 202.812C505.042 202.946 521.927 203.088 538.812 203.219C541.923 203.243 545.015 203.288 548.125 203.312C550.787 203.333 553.428 203.313 556.062 203.75C562.36 204.793 568.301 207.762 572.875 212.219C577.628 216.85 580.802 223.011 581.719 229.594C582.052 231.988 581.998 234.37 582 236.781C582.002 239.347 582.029 241.903 582.031 244.469C582.039 252.68 582.048 260.914 582.062 269.125C582.144 315.311 582.175 361.502 582.25 407.688C582.259 413.332 582.273 418.949 582.281 424.594C582.288 429.073 582.505 433.55 581.438 437.938C579.776 444.765 575.684 450.86 570.094 455.094C567.676 456.925 564.962 458.397 562.125 459.469C559.523 460.452 556.798 461.097 554.031 461.375C550.72 461.708 547.355 461.558 544.031 461.562C538.155 461.571 532.282 461.585 526.406 461.594C511.942 461.614 497.464 461.606 483 461.625C478.028 461.631 473.066 461.65 468.094 461.656C464.945 461.66 461.821 461.763 458.719 461.125C448.169 458.954 439.81 450.566 435.75 440.844C434.504 437.86 433.635 434.709 433.219 431.5C432.905 429.085 432.912 426.649 432.906 424.219C432.899 421.229 432.913 418.239 432.906 415.25C432.876 402.794 432.841 390.362 432.812 377.906C432.706 332.068 432.606 286.213 432.5 240.375C432.491 236.326 432.422 232.394 433.406 228.438C433.231 229.135 432.973 229.822 432.844 230.531C432.25 233.796 432.344 237.072 432.344 240.375C432.344 244.361 432.344 248.358 432.344 252.344C432.343 272.772 432.345 293.197 432.344 313.625C432.342 346.509 432.349 379.397 432.344 412.281C432.343 416.267 432.344 420.233 432.344 424.219C432.343 427.045 432.334 429.857 432.781 432.656C434.486 443.332 441.02 453.528 450.562 458.812C453.383 460.374 456.441 461.504 459.625 462.031C462.425 462.495 465.267 462.371 468.094 462.375C470.806 462.378 473.507 462.403 476.219 462.406C489.779 462.424 503.346 462.42 516.906 462.438C525.494 462.449 534.099 462.488 542.688 462.5C546.489 462.505 550.337 462.714 554.125 462.344C558.721 461.895 563.205 460.472 567.219 458.188C575.374 453.547 581.275 445.389 582.906 436.125C583.488 432.82 583.401 429.497 583.406 426.156C583.412 422.564 583.4 418.967 583.406 415.375C583.431 400.493 583.473 385.601 583.5 370.719C583.569 332.744 583.609 294.787 583.656 256.812C583.663 251.168 583.651 245.52 583.656 239.875C583.66 235.651 583.868 231.411 583 227.25C581.426 219.707 577.042 212.92 570.906 208.281C566.36 204.844 560.929 202.623 555.281 201.875C552.916 201.562 550.537 201.584 548.156 201.562C545.49 201.538 542.822 201.524 540.156 201.5C530.38 201.412 520.588 201.305 510.812 201.219C499.704 201.12 488.609 201.036 477.5 200.938C474.834 200.914 472.166 200.899 469.5 200.875C469.056 200.871 468.601 200.848 468.156 200.844C467.712 200.84 468.166 200.836 465.5 200.812ZM433.406 228.438C434.606 223.613 436.921 219.042 440 215.094C436.907 219.032 434.627 223.581 433.406 228.438ZM440 215.094C440.132 214.925 440.271 214.76 440.406 214.594C440.27 214.762 440.133 214.923 440 215.094ZM440.406 214.594C441.913 212.729 443.573 211.004 445.406 209.469C444.047 210.606 442.745 211.809 441.562 213.125C441.148 213.586 440.798 214.112 440.406 214.594ZM445.406 209.469C445.538 209.359 445.68 209.264 445.812 209.156C445.679 209.265 445.538 209.358 445.406 209.469ZM445.812 209.156C447.705 207.616 449.747 206.265 451.906 205.156C449.74 206.265 447.703 207.618 445.812 209.156ZM451.906 205.156C453.275 204.453 454.701 203.843 456.156 203.344C454.691 203.843 453.282 204.452 451.906 205.156ZM463.281 201.812C462.59 201.867 461.81 201.956 461.125 202.062C459.695 202.284 458.288 202.632 456.906 203.062C456.754 203.11 456.62 203.2 456.469 203.25C457.994 202.744 459.536 202.344 461.125 202.094C461.8 201.987 462.597 201.869 463.281 201.812Z" fill="#302e92" stroke="none"/>
</g>
<g opacity="1">
<path d="M639.312 126.562C638.965 126.487 638.572 126.542 638.25 126.75C636.354 128.002 634.522 129.375 632.625 130.625C628.595 133.281 624.353 135.695 620 137.781C611.798 141.713 603.097 143.988 594.125 145.312C605.522 144.289 616.409 141.674 626.75 136.688C629.218 135.497 631.694 134.247 634.031 132.812C635.971 131.622 637.823 130.306 639.75 129.094C640.395 128.678 640.603 127.832 640.188 127.188C639.98 126.865 639.66 126.638 639.312 126.562Z" fill="#302e92" stroke="none"/>
</g>
<g opacity="1">
<path d="M660.781 70.25C661.773 75.4344 662.234 80.6939 661.844 85.9688C661.065 96.5109 656.893 105.825 650.531 114.156C646.94 118.86 642.562 122.991 638.094 126.844C637.517 127.349 637.463 128.236 637.969 128.812C638.474 129.389 639.361 129.443 639.938 128.938C645.056 124.376 649.747 119.431 653.531 113.688C658.939 105.48 662.225 95.8424 662.531 86C662.697 80.6813 662 75.4188 660.781 70.25Z" fill="#302e92" stroke="none"/>
</g>
<g opacity="1">
<path d="M763.531 123.312C762.764 123.316 762.122 123.952 762.125 124.719C762.169 128.002 762.291 131.282 762.438 134.562C762.556 137.231 762.753 139.89 762.656 142.562C762.561 145.201 762.452 148.345 760.469 150.344C758.212 152.618 754.593 153.104 751.562 153.406C748.671 153.695 745.748 153.752 742.844 153.781C738.536 153.824 734.244 153.819 729.938 153.906C734.244 154.023 738.539 154.245 742.844 154.406C746.187 154.531 749.566 154.64 752.906 154.375C755.776 154.147 758.875 153.666 761.188 151.812C763.874 149.66 764.558 145.936 764.812 142.688C765.281 136.712 764.878 130.704 764.906 124.719C764.903 123.952 764.298 123.309 763.531 123.312Z" fill="#302e92" stroke="none"/>
</g>
<g opacity="1">
<path d="M594.125 144.344C593.363 144.277 592.692 144.832 592.625 145.594C592.126 151.717 591.679 157.884 591.938 164.031C592.101 167.921 592.451 171.911 593.688 175.625C594.506 178.082 595.608 180.466 597.094 182.594C598.066 183.987 599.184 185.262 600.469 186.375C606.232 191.365 614.034 192.33 621.375 192.438C625.127 192.493 628.876 192.372 632.625 192.25C635.45 192.158 638.268 192.059 641.094 192C638.267 191.966 635.452 191.97 632.625 191.969C630.469 191.968 628.312 191.968 626.156 191.938C617.107 191.811 606.563 191.33 600.156 183.969C599.319 183.007 598.574 181.948 597.938 180.844C596.892 179.03 596.126 177.075 595.562 175.062C594.56 171.481 594.378 167.667 594.375 163.969C594.37 157.905 594.838 151.877 595.406 145.844C595.473 145.082 594.887 144.411 594.125 144.344Z" fill="#302e92" stroke="none"/>
</g>
<g opacity="1">
<path d="M730.406 153.406C729.639 153.406 729.031 154.045 729.031 154.812C729.048 158.901 729.101 162.978 728.906 167.062C728.627 172.925 727.74 178.83 723.688 183.375C721.037 186.348 717.469 188.128 713.719 189.312C711.778 189.925 709.768 190.443 707.75 190.719C705.263 191.059 702.692 191.048 700.188 191.125C697.292 191.214 694.397 191.294 691.5 191.344C668.637 191.739 645.77 191.471 622.906 191.688C646.414 191.951 669.927 192.698 693.438 192.844C696.408 192.862 699.373 192.843 702.344 192.812C704.215 192.793 706.105 192.829 707.969 192.625C714.641 191.895 721.693 189.464 726.156 184.219C730.236 179.424 731.205 173.301 731.562 167.219C731.805 163.088 731.797 158.949 731.812 154.812C731.812 154.045 731.173 153.406 730.406 153.406Z" fill="#302e92" stroke="none"/>
</g>
<g opacity="1">
<path d="M752.75 95.7812C749.505 95.5992 746.242 95.7792 743 95.9375C738.808 96.1422 734.602 96.3502 730.406 96.4688C734.604 96.5533 738.802 96.5329 743 96.5312C745.819 96.5301 748.656 96.558 751.469 96.7812C754.402 97.0141 757.9 97.3851 760.156 99.5C762.179 101.395 762.39 104.503 762.531 107.094C762.676 109.731 762.558 112.363 762.469 115C762.359 118.233 762.229 121.453 762.188 124.688C762.185 125.455 762.827 126.091 763.594 126.094C764.361 126.096 764.966 125.455 764.969 124.688C764.941 119.848 765.155 115.023 764.906 110.188C764.833 108.763 764.764 107.32 764.562 105.906C764.148 103.001 763.316 99.866 760.844 98.0312C758.545 96.3251 755.528 95.9371 752.75 95.7812Z" fill="#302e92" stroke="none"/>
</g>
<g opacity="1">
<path d="M696.281 68.4375C692.568 68.3477 688.839 68.3828 685.125 68.4688C681.589 68.5506 678.037 68.5628 674.5 68.625C670.128 68.7019 665.779 68.7704 661.406 68.75C660.639 68.7512 659.999 69.389 660 70.1562C660.001 70.9235 660.639 71.5325 661.406 71.5312C666.344 71.4929 671.286 71.3271 676.219 71.125C686.529 70.7027 696.904 69.5973 707.219 70.5625C712.485 71.0553 718.066 72.5801 722.25 75.9688C724.717 77.9666 726.717 80.5227 728.156 83.3438C729.015 85.0256 729.722 86.8156 730.156 88.6562C730.734 91.1058 730.864 93.6643 731.156 96.1562C730.944 93.648 730.874 91.1 730.375 88.625C729.996 86.7451 729.346 84.8891 728.531 83.1562C727.539 81.0461 726.279 79.0795 724.719 77.3438C720.305 72.4336 713.774 70.0628 707.375 69.2188C703.683 68.7317 699.994 68.5273 696.281 68.4375Z" fill="#302e92" stroke="none"/>
</g>
<g opacity="1">
<path d="M662.876 70.574C678.432 74.0309 695.97 70.4454 711.04 75.4688" fill="#6260e8" fill-rule="nonzero" stroke="none"/>
<path d="M663.062 69.6875C662.57 69.587 662.1 69.9138 662 70.4062C661.9 70.8987 662.195 71.3683 662.688 71.4688C666.017 72.1233 669.36 72.5953 672.75 72.7812C682.262 73.303 691.825 72.4181 701.312 73.5C704.619 73.8771 707.836 74.5446 711.031 75.4688C695.524 70.3483 678.897 73.0379 663.062 69.6875Z" fill="#6260e7" stroke="none"/>
</g>
<g opacity="1">
<path d="M528.188 126.219C527.84 126.294 527.52 126.49 527.312 126.812C526.897 127.457 527.074 128.303 527.719 128.719C529.645 129.931 531.497 131.278 533.438 132.469C535.775 133.903 538.282 135.122 540.75 136.312C551.091 141.299 561.978 143.914 573.375 144.938C564.403 143.613 555.702 141.338 547.5 137.406C543.147 135.32 538.874 132.906 534.844 130.25C532.947 129 531.115 127.658 529.219 126.406C528.896 126.198 528.535 126.144 528.188 126.219Z" fill="#302e92" stroke="none"/>
</g>
<g opacity="1">
<path d="M506.719 69.9062C505.5 75.075 504.803 80.3376 504.969 85.6562C505.276 95.4986 508.53 105.105 513.938 113.312C517.722 119.056 522.412 124.001 527.531 128.562C528.108 129.068 528.994 129.014 529.5 128.438C530.006 127.861 529.952 126.975 529.375 126.469C524.907 122.616 520.56 118.485 516.969 113.781C510.607 105.45 506.435 96.1359 505.656 85.5938C505.266 80.3189 505.727 75.0906 506.719 69.9062Z" fill="#302e92" stroke="none"/>
</g>
<g opacity="1">
<path d="M403.969 122.969C403.202 122.965 402.566 123.577 402.562 124.344C402.58 128.032 402.484 131.718 402.469 135.406C402.458 138.041 402.474 140.724 402.781 143.344C403.148 146.47 403.963 149.793 406.656 151.719C409.271 153.589 412.727 153.943 415.844 154.094C418.772 154.235 421.729 154.141 424.656 154.031C428.961 153.87 433.256 153.648 437.562 153.531C433.256 153.444 428.932 153.449 424.625 153.406C421.721 153.377 418.829 153.351 415.938 153.062C412.907 152.76 409.288 152.243 407.031 149.969C405.048 147.97 404.939 144.826 404.844 142.188C404.747 139.515 404.912 136.856 405.031 134.188C405.177 130.907 405.3 127.627 405.344 124.344C405.347 123.577 404.736 122.972 403.969 122.969Z" fill="#302e92" stroke="none"/>
</g>
<g opacity="1">
<path d="M573.344 143.969C572.582 144.036 572.027 144.707 572.094 145.469C572.662 151.502 573.129 157.53 573.125 163.594C573.122 167.292 572.909 171.106 571.906 174.688C571.255 177.013 570.336 179.274 569.031 181.312C562.78 191.084 550.46 191.471 540.062 191.562C538.323 191.578 536.584 191.593 534.844 191.594C532.017 191.595 529.202 191.591 526.375 191.625C529.201 191.684 532.019 191.783 534.844 191.875C545.67 192.227 559.24 193.452 567.75 185.312C568.735 184.371 569.627 183.336 570.406 182.219C571.891 180.091 572.994 177.738 573.812 175.281C575.049 171.567 575.368 167.546 575.531 163.656C575.789 157.509 575.343 151.342 574.844 145.219C574.777 144.457 574.106 143.902 573.344 143.969Z" fill="#302e92" stroke="none"/>
</g>
<g opacity="1">
<path d="M437.062 153.062C436.295 153.062 435.688 153.67 435.688 154.438C435.703 158.574 435.664 162.713 435.906 166.844C436.264 172.926 437.264 179.049 441.344 183.844C445.807 189.089 452.828 191.52 459.5 192.25C461.586 192.478 463.717 192.453 465.812 192.469C468.557 192.49 471.318 192.486 474.062 192.469C497.573 192.323 521.055 191.576 544.562 191.312C521.06 191.09 497.564 191.376 474.062 190.938C471.102 190.882 468.146 190.802 465.188 190.688C463.378 190.618 461.547 190.59 459.75 190.344C457.373 190.019 454.981 189.418 452.719 188.625C449.348 187.444 446.181 185.692 443.781 183C439.729 178.455 438.873 172.581 438.594 166.719C438.399 162.634 438.452 158.526 438.469 154.438C438.469 153.67 437.83 153.063 437.062 153.062Z" fill="#302e92" stroke="none"/>
</g>
<g opacity="1">
<path d="M413.594 95.5C411.042 95.7305 408.303 96.2529 406.281 97.9375C403.811 99.9957 403.127 103.492 402.812 106.531C402.203 112.426 402.534 118.43 402.5 124.344C402.503 125.111 403.139 125.721 403.906 125.719C404.673 125.716 405.284 125.08 405.281 124.312C405.24 121.078 405.141 117.858 405.031 114.625C404.942 111.988 404.824 109.356 404.969 106.719C405.111 104.128 405.29 101.02 407.312 99.125C409.569 97.0101 413.098 96.6391 416.031 96.4062C418.844 96.183 421.649 96.1864 424.469 96.1875C428.667 96.1892 432.865 96.1783 437.062 96.0938C432.344 95.9604 427.652 95.7087 422.938 95.5C419.831 95.3625 416.697 95.2197 413.594 95.5Z" fill="#302e92" stroke="none"/>
</g>
<g opacity="1">
<path d="M475.719 67.9688C470.484 67.9818 465.235 68.1968 460.094 68.875C453.695 69.7191 447.195 72.0586 442.781 76.9688C441.221 78.7045 439.929 80.7024 438.938 82.8125C438.123 84.5453 437.473 86.3701 437.094 88.25C436.594 90.725 436.556 93.273 436.344 95.7812C436.636 93.2893 436.766 90.7308 437.344 88.2812C437.778 86.4405 438.485 84.6818 439.344 83C440.783 80.179 442.752 77.6229 445.219 75.625C449.403 72.2363 454.983 70.6803 460.25 70.1875C466.81 69.5736 473.321 69.8995 479.875 70.2188C484.216 70.4302 488.563 70.6803 492.906 70.8438C497.299 71.0091 501.697 71.1221 506.094 71.1562C506.861 71.1575 507.468 70.5485 507.469 69.7812C507.47 69.014 506.861 68.3762 506.094 68.375C501.18 68.398 496.256 68.301 491.344 68.2188C486.175 68.1322 480.953 67.9557 475.719 67.9688Z" fill="#302e92" stroke="none"/>
</g>
<g opacity="1">
<path d="M504.608 70.2062C489.052 73.663 471.513 70.0775 456.443 75.1009" fill="#6260e8" fill-rule="nonzero" stroke="none"/>
<path d="M504.438 69.3125C488.603 72.6629 471.944 69.9733 456.438 75.0938C459.633 74.1696 462.849 73.5021 466.156 73.125C475.644 72.0431 485.207 72.928 494.719 72.4062C498.109 72.2203 501.452 71.7482 504.781 71.0938C505.274 70.9933 505.601 70.5237 505.5 70.0312C505.4 69.5388 504.93 69.212 504.438 69.3125Z" fill="#6260e7" stroke="none"/>
</g>
</g>
</svg>
