<svg stroke-miterlimit="10"
  style="fill-rule:nonzero;clip-rule:evenodd;stroke-linecap:round;stroke-linejoin:round"
  viewBox="0 0 1224 1080" xml:space="preserve" xmlns="http://www.w3.org/2000/svg"><g layerName="Layer Black" stroke="#000" stroke-linecap="square" stroke-linejoin="bevel" stroke-width="12.984"><path d="M530.98 687.759h0c.596.006 1.072.628 1.062 1.39l-3.701 284.294c-.01.762-.502 1.376-1.098 1.371h0c-.597-.006-1.072-.628-1.062-1.39l3.701-284.294c.01-.762.501-1.376 1.098-1.371z" layerName="Rectangle 1"/><path d="M702.409 689.227h0c.597.005 1.072.628 1.062 1.39l-3.701 284.294c-.01.762-.501 1.376-1.098 1.37h0c-.596-.005-1.072-.628-1.062-1.39l3.701-284.294c.01-.762.502-1.375 1.098-1.37z" layerName="Rectangle 2"/></g><g layerName="Layer Inner" fill="#753b7d" stroke="#753b7d" stroke-linecap="square" stroke-linejoin="bevel" stroke-width="12.984"><path d="M491.785 434.583h81.97c15.58 0 28.211 12.631 28.211 28.211v191.659c0 15.58-12.631 28.211-28.211 28.211h-81.97c-15.581 0-28.211-12.631-28.211-28.211V462.794c0-8.391 3.663-15.926 9.477-21.093a28.106 28.106 0 0 1 18.734-7.118z" layerName="Rectangle 8"/><path d="M502.371 187.498s12.118-.719 21.522-.191c7.441.418 12.866-1.226 13.998 5.224 2.37 13.504 10.88 27.009 26.61 38.62 18.907 13.956 31.357 14.6 36.101 18.146 2.204 1.647 1.196 3.405 1.196 8.347l.168 132.488c0 15.58-12.631 28.21-28.211 28.21h-81.97c-15.581 0-28.211-12.63-28.211-28.21V198.473c0-8.391-4.158-31.484-3.564-39.644.459-6.298.251 14.931 12.75 21.002 12.5 6.072 29.611 7.667 29.611 7.667zM730.28 187.498s-12.119-.719-21.522-.191c-7.441.418-12.866-1.226-13.998 5.224-2.371 13.504-10.88 27.009-26.61 38.62-18.907 13.956-31.358 14.6-36.101 18.146-2.204 1.647-1.197 3.405-1.197 8.347l-.167 132.488c0 15.58 12.63 28.21 28.21 28.21h81.971c15.58 0 28.211-12.63 28.211-28.21V198.473c0-8.391 4.157-31.484 3.563-39.644-.458-6.298-.25 14.931-12.75 21.002-12.499 6.072-29.61 7.667-29.61 7.667z" layerName="Rectangle 1"/><path d="M658.578 434.583h83.424c15.857 0 28.711 12.575 28.711 28.087v190.816c0 15.512-12.854 28.087-28.711 28.087h-83.424c-15.857 0-28.711-12.575-28.711-28.087V462.67c0-15.512 12.854-28.087 28.711-28.087z" layerName="Rectangle 7"/></g><g layerName="Layer Membrane" fill="none" stroke="#330a39" stroke-linecap="round" stroke-linejoin="round" stroke-width="2"><path d="M658.081 428.444c-.277 0-.538.085-.813.094h-.25c-17.689 0-32.031 14.043-32.031 31.343v197.5c0 7.079 3.45 13.321 7.906 18.469 4.522 5.99 10.692 10.541 17.906 12.156 1 .238 2.117.255 3.188.375.88.089 1.723.344 2.625.344H743.799c.674 0 1.303-.208 1.969-.25 1.544-.112 3.087-.244 4.563-.562 1.231-.259 2.384-.662 3.562-1.063 1.048-.357 2.067-.731 3.063-1.187a29.988 29.988 0 0 0 2.718-1.438 31.828 31.828 0 0 0 4.5-3.156c.163-.143.34-.26.5-.406 6.548-5.723 10.75-13.935 10.75-23.188V460.413c0-15.104-10.967-27.711-25.562-30.625-.03-.006-.064.005-.094 0-2.34-.584-4.746-.969-7.219-.969l-84.468-.375z" layerName="Curve 1"/><path d="M755.342 175.155c6.427-4.033 8.27-11.055 8.27-11.055s.601-8.317 3.963-10.639c3.962-2.738 11.69-2.273 11.67 5.875-.026 10.228-3.821 32.648-3.821 36.224v197.5c0 7.078-3.45 13.32-7.906 18.469-4.522 5.99-10.692 10.541-17.906 12.156-1 .237-2.117.255-3.188.375-.88.089-1.723.344-2.625.344H656.612c-.674 0-1.303-.209-1.969-.25-1.544-.113-3.087-.244-4.562-.563-1.232-.259-2.385-.661-3.563-1.062-1.048-.357-2.067-.731-3.062-1.188a29.864 29.864 0 0 1-2.719-1.437 31.835 31.835 0 0 1-4.5-3.157c-.163-.143-.34-.259-.5-.406-6.548-5.722-10.75-13.934-10.75-23.187 0 0 .047-143.372.623-147.194.441-2.927 4.008-1.714 10.096-4.207s14.256-5.767 14.256-5.767 10.509-4.824 19.139-13.105c8.631-8.28 10-9.125 15.381-19.523 5.382-10.398 2.612-13.423 6.791-19.22 4.179-5.797 13.743-3.826 13.743-3.826s20.306 1.21 32.887-.079c12.582-1.289 11.011-1.045 17.439-5.078zM477.309 175.155c-6.427-4.033-8.27-11.055-8.27-11.055s-.602-8.317-3.963-10.639c-3.962-2.738-11.691-2.273-11.67 5.875.026 10.228 3.82 32.648 3.82 36.224v197.5c0 7.078 3.45 13.32 7.907 18.469 4.521 5.99 10.691 10.541 17.906 12.156 1 .237 2.116.255 3.187.375.88.089 1.723.344 2.625.344h87.188c.674 0 1.303-.209 1.969-.25 1.543-.113 3.087-.244 4.562-.563 1.232-.259 2.384-.661 3.563-1.062 1.048-.357 2.067-.731 3.062-1.188a29.997 29.997 0 0 0 2.719-1.437 31.95 31.95 0 0 0 4.5-3.157c.163-.143.34-.259.5-.406 6.548-5.722 10.75-13.934 10.75-23.187 0 0-.047-143.372-.623-147.194-.441-2.927-4.008-1.714-10.096-4.207a2524.874 2524.874 0 0 0-14.256-5.767s-10.51-4.824-19.14-13.105c-8.63-8.28-9.999-9.125-15.381-19.523-5.381-10.398-2.612-13.423-6.79-19.22-4.179-5.797-13.743-3.826-13.743-3.826s-20.306 1.21-32.888-.079c-12.581-1.289-11.011-1.045-17.438-5.078z" layerName="Curve 2"/><path d="M490.32 428.444c-.276 0-.537.085-.812.094h-.25c-17.689 0-32.032 14.043-32.032 31.343v197.5c0 7.079 3.45 13.321 7.907 18.469 4.521 5.99 10.691 10.541 17.906 12.156 1 .238 2.116.255 3.187.375.88.089 1.723.344 2.625.344h87.188c.674 0 1.303-.208 1.969-.25 1.543-.112 3.087-.244 4.562-.562 1.232-.259 2.384-.662 3.563-1.063 1.048-.357 2.067-.731 3.062-1.187a30.005 30.005 0 0 0 2.719-1.438 31.944 31.944 0 0 0 4.5-3.156c.163-.143.34-.26.5-.406 6.548-5.723 10.75-13.935 10.75-23.188V460.413c0-15.104-10.968-27.711-25.563-30.625-.03-.006-.063.005-.093 0-2.34-.584-4.746-.969-7.219-.969l-65.531-.219-18.938-.156z" layerName="Curve 55"/></g></svg>
