<?xml version="1.0" encoding="UTF-8"?>
<svg id="Capa_1" xmlns="http://www.w3.org/2000/svg" viewBox="0 0 689.06 704.2">
  <defs>
    <style>
      .cls-1 {
        fill: #db993a;
      }

      .cls-2 {
        fill: #f9bd5d;
        stroke: #ffdeae;
        stroke-miterlimit: 10;
        stroke-width: 6px;
      }

      .cls-3 {
        fill: #d88c1d;
      }

      .cls-4 {
        fill: #fff;
        opacity: .17;
      }

      .cls-5 {
        fill: #db9b28;
        opacity: .57;
      }

      .cls-6 {
        fill: #ffdaa4;
      }

      .cls-7 {
        fill: #ba6e09;
      }

      .cls-8 {
        fill: #c48312;
      }

      .cls-9 {
        opacity: .58;
      }

      .cls-10 {
        opacity: .44;
      }

      .cls-11 {
        fill: #f2a33b;
      }

      .cls-12 {
        opacity: .5;
      }

      .cls-13 {
        fill: #fce7b9;
      }
    </style>
  </defs>
  <path class="cls-2" d="M683.17,277.11c-5.36,9.1-15.71,13.94-25.74,17.25-38.39,15.98-88.98,26.26-127.97,40.8-7.76,4.62-31.52,19.28-20.15,29.04,9.11,4.57,20.04,5.23,29.74,2.44,12.85-7,30.04,5.14,14.59,14.67-11.99,5.21-38.8-11.92-48.39-.81-7.69,13.59,3.53,29.8,13.6,38.1,23.05,19.61,146.37,51.85,129.51,91.54-27.5,32.84-78.27-85.39-151.15-77.93-5.18.4-7.25.69-9.7,5.86-1.62,3.42-26.44,39.34-26.49,39.34,1.52,10.98,11.64,21.42,19.14,29.66,12.21,16.98,33.69,26.45,36.89,48.46-.21,22.74-25.7,22-33.46,3.07-4.07-9.12-14.26-21.1-17.82-30.43-3.31-8.69-15.62-22.81-24.6-26.15-6.91-2.56-10.37,2.69-16.95,6.94-13.1,9.16-28.32,14.33-42.78,20.65-16.09,10.1,11.01,112.87,19.42,130.82,3.53,9.11,7.48,19.19,3.99,28.32-5.79,15.26-27.7,16.51-36.94,3.7-14.4-21.2-2.96-48.32-7.53-71.9-5.99-24.35-10.33-83.81-43.53-83.54-23.03,2.01-45.65-5.97-66.04-16.24-15.23-8.88-27.43,11.1-35.72,21.37-21.41,31.25-35.44,69.05-62.49,96.63-19.92,27.81-61.85,12.69-40.64-17.52,4.55-5.48,10.71-9.34,16.68-13.24,27.04-18.96,95.67-82.84,69.23-124.44-17.06-17.39-11.92-22.03-38.26-12.94-5.99,2.88-10.7,7.29-14.32,10.91-11.05,10.84-10.66,16.86-17.77,19.17-19.41,6.34-29.03-21.3-8.42-27.12,7.99-3.19,10.59-.96,16.84-2.81,13.81-4.97,32-26.89,24.69-42.37-4.79-14.31-4.63-37.76-25.48-35.95-21.05,2.69-42.59,8.53-62.4,16.31-21.44,8.27-34.56,25.34-45.11,44.49-11.49,10.3-27.51-4.21-24.21-17.6,5.51-31.98,53.08-45,80.04-53.6,26.39-5.37,69.33-4.05,63.76-42.39-9.76-35.88-59.14-21.51-86.06-34.81-25.59-6.91-26.59-37.41,3.71-33.76,9.48,2.26,17.06,9.09,25.03,14.7,9.77,6.88,20.7,12.09,32.15,15.48,12.2,3.86,34.84,11.65,38.05-6.94,2.48-6.99,4.95-14.27,4.17-21.65-2.24-21.23-25.69-34.59-40.83-46.08-3.67-2.79-7.5-5.79-9.18-10.08s-.14-10.19,4.27-11.54c2.72-.83,5.72.28,7.92,2.07,2.2,1.8,3.79,4.21,5.5,6.48,13.35,17.7,35.88,27.4,57.89,25.68,1.47-.11,2.97-.29,4.29-.93,8.56-4.15,9.18-21.77,8.74-29.62-.66-11.74-4.28-23.21-8.73-34.02-8.7-21.14-21.38-40.64-35.17-58.79-8-10.54-16.46-22.32-26.42-31.13-4.41-3.9-9.34-7.4-12.5-12.37-7.56-11.86,2.67-27.56,16.61-25.36,14.35,2.48,21.02,17.28,26.44,29.27,9.18,25.76,119.36,169.06,129.92,85.95,4.71-13.64-23.76-75.03,8.31-59.61,12.99,18.22-12.52,71.82,18.93,75.19,23.36,2.18,24.73-4.95,25.3-25.65.82-8.08,1.32-27.95,13.84-26.42,3.97.49,7.49,3.62,8.43,7.51,1.69,6.98-4.22,13.27-6.53,20.07-10.07,44.28,33.86,31.33,54.38,12.3,37.4-37.97,39.94-95.84,56.25-144.16,2.43-15.27,18.74-26.14,30.09-11.61,13.69,18.98-7.08,49.25-16.24,66.22-15.37,34.9-62.5,107.96-44.12,142.96,57.98-21.64,30.7-43.98,53.41-61.3,6.95-2.72,15.61,3.99,14.71,11.39-.69,5.75-5.65,9.85-9.7,13.99-10.97,11.19-17.27,26.44-28.82,37.04-17.55,14.25-8.64,22.72,2.75,36.91,15.61,14.51,43.16,3.28,56.44-10.88,3.21-4.04,4.15-7.14,8.35-9.39,8.4-5.65,19.35,1.41,14.61,13.05-1.38,2.8-3.6,3.56-12.27,7.82-12.05,5.92-9.81,5.44-13.3,6.79-10.58,4.07-13.4,1.67-24.52,6.26-4.9,2.38-14.83,6.37-13.94,12.72,14.35,30.55,82.4,7.12,105.06,6.67,26.14-2.14,46.48-18.29,64.15-36.1,16.99-13.13,34.51,5.1,24.56,23.11Z"/>
  <path class="cls-5" d="M237.19,519.9c-.29.13-.59.3-.89.46.28-.16.57-.31.89-.46Z"/>
  <path class="cls-5" d="M683.17,277.11c-5.36,9.1-15.71,13.94-25.74,17.25-20.2,6.67-41.39,15.5-61.92,21.09-11.02,2.99-56.09,14.07-66.05,19.71-4.92,2.78-9.6,5.98-13.88,9.67-3.34,2.89-6.81,5.89-8.34,9.76-.72,1.84-1.01,3.89-.65,6.21.13.81.36,1.65.9,2.26.48.54,1.16.85,1.82,1.14,5.19,2.27,10.97,4.41,16.72,4.06,4.28-.26,9-.16,13.02-1.62,4.03-1.46,8.36-2.66,12.55-1.79,4.19.88,8.1,4.44,7.98,8.72-.09,3.44-2.76,6.42-5.94,7.74-3.18,1.31-6.76,1.23-10.16.73-7.61-1.14-33.37-10.1-38.23-1.54-7.69,13.59,3.53,29.8,13.6,38.1,12.33,10.17,29.5,15.19,43.92,21.55,24.79,10.94,50.06,21.8,71.44,38.78,7.98,6.33,22.24,20.09,14.15,31.21-17.32,23.81-57.99-31.26-68.99-41.43-19.6-18.14-53.5-38.36-81.56-36.54-.2.01-.4.03-.6.04-5.18.4-7.25.69-9.7,5.86-1.62,3.42-26.44,39.34-26.49,39.34.65,1.1.96,2.59,1.14,3.89,1.25,8.96,12.28,18.75,18,25.77,10.01,12.28,18.05,18.02,28.46,29.96,4.55,5.2,8.15,11.6,8.43,18.5.28,6.91-3.46,14.25-9.94,16.66-9.36,3.47-19.45-4.47-23.52-13.59-4.07-9.12-14.26-21.1-17.82-30.43-3.31-8.69-15.62-22.81-24.6-26.15-6.91-2.56-10.37,2.69-16.95,6.94-6.87,4.44-14.03,8.4-21.44,11.87-.23.11-.46.21-.7.31-6.07,2.62-15.37,3.95-20.64,8.47-1.18,1-2.15,2.16-2.85,3.53-.94,1.84-1.5,3.82-1.82,5.85-.43,2.68-.45,5.46-.4,8.18.03,1.83.28,3.66.72,5.49,2.35,32.09,14.8,89.24,24.6,111.44,4.1,9.28,8.59,21.24,1.51,28.52-2.79,2.87-9.65,7.99-13.57,8.78-8.02,1.61-14.25-2.53-20.54-7.74-8.31-6.88-8.75-19.24-8.47-30.02.49-18.98,1.96-38.61-2.75-57.23-4.81-19.01-11.97-72-41.01-69.41-5.83.52-11.66.39-17.46-.28-1.17-.8-2.51-1.35-4.04-1.59-15.48-2.47-30.53-7.33-44.54-14.37-2.31-1.16-4.69-2.41-7.27-2.5-2.21-.07-4.35.72-6.36,1.64-.15.07-.29.14-.46.22l-.06.03c-1.7.85-3.45,2.02-5.25,3.49-.28.22-.56.45-.84.7-.28.23-.56.47-.84.73-.28.24-.57.5-.85.77-.85.78-1.71,1.62-2.56,2.51-.29.3-.57.6-.86.91s-.58.62-.87.94c-.29.32-.58.64-.87.97-.29.32-.58.65-.86.99-.59.67-1.16,1.35-1.73,2.06-.3.35-.59.71-.87,1.07-.07.07-.13.15-.19.23-.52.64-1.03,1.3-1.54,1.97-.29.38-.58.76-.86,1.14-.59.76-1.16,1.54-1.72,2.32-.3.39-.58.78-.86,1.18-.58.8-1.14,1.6-1.7,2.41-.29.41-.57.82-.85,1.23-.29.41-.57.82-.84,1.24-.56.83-1.11,1.66-1.66,2.5-.28.42-.55.84-.82,1.26-.13.19-.25.38-.37.57-.42.65-.84,1.31-1.25,1.97-.28.42-.54.85-.8,1.28-.27.42-.53.85-.79,1.27-.41.66-.81,1.31-1.21,1.97-.38.63-.75,1.25-1.12,1.87-.66,1.11-1.31,2.21-1.95,3.31-.58,1-1.15,2-1.71,2.99-.47.83-.93,1.65-1.38,2.46-.45.81-.9,1.62-1.33,2.41-.33.6-.65,1.2-.96,1.79-.74,1.36-1.44,2.7-2.11,3.98-.18.36-.36.71-.54,1.06-.37.72-.73,1.42-1.08,2.11-.33.65-.64,1.28-.95,1.9-.98,1.99-1.84,3.81-2.57,5.4-7.76,17-24.48,37.34-36.5,51.65-6.02,7.18-13.91,13.41-23.18,14.77-9.28,1.36-19.85-3.48-22.63-12.44-2.11-6.8.62-14.36,5.17-19.85,4.55-5.48,10.71-9.34,16.68-13.24,25.04-16.4,66.69-59.16,74.34-95.34,1.09-2.86,1.65-5.87,1.58-9.05-.07-2.95-.28-5.92-.9-8.79-.43-2.01-1.07-3.96-2.01-5.84-.73-1.44-1.6-2.78-2.58-4.08-1.53-2.04-3.29-3.92-5.03-5.78-2.5-2.66-5-5.33-7.51-8-.76-.82-1.53-1.64-2.3-2.46-1.39-1.48-3.36-2.25-5.63-2.52-6.03-.71-14.16,2.12-18.99,4.48-.43.21-.84.42-1.22.62-5.75,3.07-9.61,6.86-13.1,10.29-11.05,10.84-10.66,16.86-17.77,19.17-5.36,1.74-13.17.78-17.3-4.68-3.38-4.46-3.52-10.89-.94-15.43,2.24-3.92,5.99-5.48,9.82-7.01,7.99-3.19,10.59-.96,16.84-2.81,11.35-3.35,26.04-21.51,26.52-33.56.05-1.24-.09-2.46-.33-3.68,20.08,2.92,17.15,17.2,22.18,18.72,4.49,1.35,21.11,9.59,32.47,20.35,4.72,4.46,4.82,15.14,14.87,18.6,39.8,13.73,45.1-9.78,54.79-10.39,33.65-2.1,57.98,18.83,61.82,18,7.34-1.58,32.4-10.5,42.79-20.87,7.89-7.88,17.44-21.29,25.56-35.47,15.27-26.65,7.68-27.53,16.96-50.1,3.57-8.68,4.6-16.37,12.52-22.69,6.95-5.55,13.02-5.18,14.09-9.39,1.97-7.8-17.78-13.05-18.79-25.83-.94-11.98,15.55-18.72,12.53-28.96-1.23-4.14-4.24-4.08-9.4-10.17-6.29-7.43,1.54-16.29-.39-23.86-4.22-16.6-6.84-34.89-5.48-43.44.62-3.91,1.92-11.19,3.02-9.01,19.1-7.67,36.7-16.06,41.99-38.03,1.06-4.39,1.48-8.95,2.96-13.23,1.47-4.27,4.25-8.4,8.46-10.04,6.95-2.72,15.61,3.99,14.71,11.39-.69,5.75-5.65,9.85-9.7,13.99-10.97,11.19-17.27,26.44-28.82,37.04-6.09,5.59-13.24,12.48-8.73,21.32,1.48,2.9,3.69,5.34,5.66,7.92,1.94,2.56,3.67,5.28,5.82,7.67,10.02,11.15,29.64,6.21,41.3.35,4.75-2.4,10.37-5.22,15.14-11.23,3.21-4.04,4.15-7.14,8.35-9.39.89-.48,6.89-3.69,11.48-.78,4.3,2.74,5.23,9.55,3.13,13.83-1.38,2.8-3.6,3.56-12.27,7.82-12.05,5.92-9.81,5.44-13.3,6.79-10.58,4.07-13.4,1.67-24.52,6.26-5.38,2.22-9.87,4.73-13.49,9.4-.31.41-.63.84-.74,1.35-.15.66.05,1.34.29,1.97,2.13,5.57,6.98,9.75,12.36,12.32.29.14.58.27.88.39.29.12.58.24.88.33.15.06.31.12.47.17.16.06.33.1.49.15.28.09.56.17.85.24,20.35,5.51,71.75-4.72,89.13-6.93,12.97-1.65,25.62-5.93,36.73-12.85,10.51-6.55,18.03-16.34,27.98-23.49,5.01-3.59,10.84-5.49,16.88-3.4,9.98,3.46,12.48,17.66,7.12,26.76Z"/>
  <path class="cls-3" d="M430.98,364.55c-4.69,39.92-32.98,77.17-71.51,88.63-13.03,3.88-27.2,4.84-40.21.88-23.08-7.02-40.59-30.16-36.99-52.84,1-6.31,3.62-12.58,8.22-18.46,7.71-9.87,19.68-16.15,25.85-27.04,4.47-7.92,5.32-17.29,6.67-26.29,0-.02,0-.04,0-.06,1.81-11.93,4.89-24.12,12.41-33.56,11-13.79,30.59-19.34,47.75-15.26,10.15,2.41,19.34,7.85,26.83,15.14,5.17,5.04,9.53,10.96,12.83,17.37,8.08,15.67,10.2,33.97,8.14,51.49Z"/>
  <g class="cls-12">
    <path class="cls-13" d="M325.36,203.72c5.9-13.72-30.81-19.68-57.53-7.16-26.72,12.52-38.57,33.53-32.81,38.07,4.61,3.64,13.5-1.74,40.22-14.25,26.72-12.52,44.63-3.88,50.12-16.66Z"/>
  </g>
  <g class="cls-12">
    <path class="cls-13" d="M216.79,232.73c-3.19.18-9.28.51-12.52,5.09-4.09,5.76-1.65,15.4,1.96,16.43,2.69.78,5.91-3.29,11.35-10.17,3.29-4.16,6.36-8.12,5.09-10.17-.89-1.45-3.54-1.3-5.87-1.17Z"/>
  </g>
  <path class="cls-6" d="M472.09,39.29c-1.43-.51,1.14-11.93,6-21.91,3.92-8.05,6.73-9.84,9.13-10.3,2.05-.4,4.86-.03,5.74,1.57.5.91.55,2.55-3.91,8.74-4.13,5.73-6.24,7.21-9.91,11.87-5.21,6.62-6.22,10.34-7.04,10.04Z"/>
  <path class="cls-6" d="M462.02,66.29c-1.56,15.66-3.44,31.37-7.89,46.46-4.45,15.09-11.6,29.64-22.58,40.92-1.77,1.82-3.85,4.11-6.18,5.16-.93-2.36,5.76-8.16,7.23-10.02,3.11-3.94,6.01-8.05,8.6-12.35,4.93-8.16,8.76-16.98,11.36-26.16,4.09-14.45,5.12-29.64,9.45-44.02Z"/>
  <path class="cls-6" d="M350.1,135.49c-.5-.37.64-3.39,2.87-5.54.47-.45,3.14-3.03,4.76-2.15.73.4,1.22,1.48.98,2.35-.36,1.26-2.05,1.16-4.83,2.74-2.58,1.47-3.42,2.87-3.78,2.61Z"/>
  <path class="cls-6" d="M289.84,102.68c-.4.23-2.03,1.25-2.87,5.74-1.06,5.66.28,10.73.65,10.7.28-.03-.25-2.88.65-7.7,1.07-5.73,2.87-7.28,3.39-7.7.92-.73,1.92-1.13,1.83-1.43-.13-.41-2.17-.46-3.65.39Z"/>
  <path class="cls-6" d="M124.84,55.08c-3.37.78-3.87,6.72-3.91,7.24-.42,5.64,3.41,10.11,5.48,12.52,2.28,2.66,3.09,2.66,8.8,7.43,5.77,4.83,9.21,8.4,9.39,8.22.22-.22-4.7-5.11-10.37-13.11-5.93-8.36-6.45-11.31-5.87-13.7.61-2.49,2.3-3.9,1.57-5.87-.69-1.85-3.15-3.19-5.09-2.74Z"/>
  <path class="cls-6" d="M174.34,125.9c.61-.37,13.86,18.46,25.04,42.65,3.63,7.85,5.65,12.28,7.43,18.98,5.3,19.87,2.5,37.16,1.57,37.17-.93.01,1.47-17.04-5.67-39.72-2.74-8.7-6.78-16.82-14.87-33.07-9.08-18.23-13.88-25.79-13.5-26.02Z"/>
  <path class="cls-6" d="M118.9,208.52c-1.82.55-1.48,6.07-1.09,7.18.69,1.98,2.08,3.71,3.87,4.81-.95-2.14-1.82-4.35-2.09-6.67-.11-.98-.1-2.05.49-2.84.31-.41.78-.79.76-1.3-.01-.31-.22-.59-.48-.77-.6-.42-1.08-.53-1.47-.41Z"/>
  <path class="cls-6" d="M77.1,282.77c.35-.88-4.83-4.28-10.57-5.87-4.04-1.12-8.66-1.43-8.87-.65-.27,1,6.83,3.64,7.57,3.91,4.49,1.66,11.48,3.57,11.87,2.61Z"/>
  <path class="cls-6" d="M54.76,275.9c-1.75.26-4.38,1.23-6.13,3.78-1.19,1.73-1.88,4.05-1.37,4.39.66.44,3.34-2.43,3.67-2.79,1.47-1.59,1.36-2.02,2.64-3.13,1.55-1.34,2.99-1.82,2.89-2.15-.11-.33-1.56-.12-1.7-.1Z"/>
  <path class="cls-6" d="M11.23,442.73c-3.02-3.6,2.1-12.34,3.65-15,1.53-2.61,5.66-9.04,14.74-15.39,8.21-5.74,16.46-8.63,16.83-7.96.36.65-7.26,3.69-14.61,12.26-4.72,5.51-7.89,9.2-8.61,14.74-.33,2.51-.12,5.17-1.96,8.35-.7,1.22-2.43,4.22-5.48,4.57-1.46.17-3.46-.25-4.57-1.57Z"/>
  <path class="cls-6" d="M489.4,168.68c-.73-.5.56-5.21,4.17-7.7,1.43-.98,4.66-2.61,6.39-1.17.97.8,1.4,2.5.78,3.52-.75,1.24-2.53.61-5.22,1.43-4.06,1.24-5.51,4.34-6.13,3.91Z"/>
  <path class="cls-6" d="M678.7,260.08c-.17,1.12-2.9,1.66-6.75,2.15,0,.01-.01.01-.02.01-1,.13-2.08.25-3.21.38-4.92.58-5.57.16-8.9.88-4.81,1.06-7.12,2.74-7.53,2.16-.51-.73,2.47-4.18,6.16-6.56,1.86-1.2,6.72-4.33,12.72-3.32,2.11.35,4.28,1.21,5.75,2.14,1.16.74,1.88,1.53,1.78,2.16Z"/>
  <path class="cls-11" d="M377.62,286.92c-11.2-2.45-19.17.78-19.17.78-3.31,1.34-9.43,3.83-11.93,9.78-.89,2.12-1.73,5.66-.39,6.65,1.31.96,3.75-1.19,10.37-4.5,1.65-.82,5.79-2.89,9.59-4.11,5.87-1.88,11.43.95,13.89-1.57.63-.64.88-1.39.91-1.5.52-1.63-.13-3.57-1.37-4.63-.75-.65-1.57-.84-1.89-.91Z"/>
  <path class="cls-11" d="M336.11,308.01c-3.73,2.05-4.99,7.06-6.15,10.84-1.36,4.44-2.23,9.04-2.66,13.66-.54,5.78-.44,11.7-2.28,17.21-.68,2.03-1.6,3.96-2.49,5.9-.22.49-.38,1.19.09,1.45.28.16.63.04.92-.1,3.1-1.44,5.21-4.48,6.39-7.69s1.54-6.65,2.06-10.03c.99-6.43,2.56-12.77,4.71-18.92.71-2.03,1.52-4.11,3.04-5.62,1-.99,2.33-1.79,2.76-3.13.46-1.43-.36-3.08-1.69-3.8s-2.99-.6-4.34.05c-.12.06-.24.12-.35.18Z"/>
  <g class="cls-10">
    <path class="cls-7" d="M430.98,364.55c-4.69,39.92-32.98,77.17-71.51,88.63-13.03,3.88-27.2,4.84-40.21.88-23.08-7.02-40.59-30.16-36.99-52.84,3.6,6.73,8.78,13.96,17.48,19.34,14.59,9.01,30.49,7.49,35.22,7.04,18.88-1.8,31.26-11.88,40.69-19.56,14.17-11.54,22.06-24.29,25.83-31.31,2.66-4.96,13-25.2,12.52-53.22-.19-10.94-1.97-20.26-4-27.82,5.17,5.04,9.53,10.96,12.83,17.37,8.08,15.67,10.2,33.97,8.14,51.49Z"/>
  </g>
  <path class="cls-4" d="M408.8,244.61c-25.17-51.29-105.36-49.78-162.44-21.76-57.08,28.01-84.3,124.42-59.13,175.71,25.17,51.29,41.77-29.04,98.85-57.06,57.08-28.01,147.89-45.6,122.72-96.89Z"/>
  <path class="cls-1" d="M210.92,299.64c-1.12.02-4.02.24-6.26,2.35-3.68,3.47-4.13,10.66,0,14.09,2.71,2.25,6.74,2.32,9.78.78,2.7-1.37,4.92-4.17,5.09-7.43.22-4.39-3.32-8.75-8.61-9.78Z"/>
  <path class="cls-1" d="M168.66,323.12c-3.69-1.13-12.49,7.6-10.17,13.7,1.25,3.28,5.8,5.98,9,4.7,3.09-1.24,3.64-5.65,3.91-7.83.46-3.67-.08-9.75-2.74-10.57Z"/>
  <path class="cls-1" d="M211.71,357.55c-2.73-.31-6.89,8.24-5.09,10.17.92.99,3.51.34,4.96-.39.54-.27,1.78-.91,2.48-2.22,1.52-2.87-.48-7.35-2.35-7.57Z"/>
  <path class="cls-1" d="M244.97,415.08c-2.66.29-5.59,2.23-6.07,5.48-.43,2.91,1.28,5.74,3.91,6.85,2.92,1.23,5.85-.16,7.43-1.76.26-.26,2.91-3.01,1.96-6.26-.88-3-4.28-4.63-7.24-4.3Z"/>
  <path class="cls-1" d="M85.71,386.71c-3.14-1.1-7.13,2.21-6.85,4.11.22,1.45,2.95,2.25,4.7,2.35.33.02,4.36.21,5.09-1.96.56-1.66-1.09-3.86-2.93-4.5Z"/>
  <path class="cls-1" d="M278.23,267.95c-2.48-2.2-8.46-.74-10.96,3.13-1.74,2.7-2.24,7.28.39,9.39,2.27,1.83,5.8.95,7.83-.39,4.15-2.74,5.46-9.71,2.74-12.13Z"/>
  <path class="cls-1" d="M230.88,185.77c2.16-3.32-2.63-10.16-5.48-9.78-2.74.37-5.73,7.69-2.74,10.57,2.09,2.01,6.74,1.48,8.22-.78Z"/>
  <path class="cls-1" d="M165.27,244.67c-1.34,1.65-.09,5.26,1.96,7.04,4.5,3.91,13.3-.59,13.3-3.13,0-3.05-12.64-7.13-15.26-3.91Z"/>
  <path class="cls-1" d="M339.14,227.25c-5.51,4.61-8.86,3.52-10.17,6.26-1.72,3.57,2.01,9.56,6.26,12.52,1.01.7,4.19,2.85,8.61,2.61,5.56-.31,10.01-4.25,12-8.61,1.74-3.81,2.99-10.97-1.57-14.87-3.17-2.7-8-2.87-11.22-1.3-1.66.81-1.58,1.44-3.91,3.39Z"/>
  <path class="cls-1" d="M407.75,248.9c-3.75-3.79-13.36-1.76-16.17,4.17-1.4,2.96-1.41,7.53,1.57,10.43,3.13,3.05,7.96,2.69,10.96,1.04,5.61-3.09,7.22-12.05,3.65-15.65Z"/>
  <path class="cls-1" d="M302.88,337.6c-2.82-1.87-5.96-.88-6.26-.78-2.76.92-5.59,3.74-5.09,6.65.59,3.4,5.28,4.47,6.26,4.7.76.17,5.81,1.33,7.83-1.57,1.81-2.59.21-7.04-2.74-9Z"/>
  <path class="cls-1" d="M351.14,149.25c-1.07-.04-3.18,3.73-1.57,6.52.73,1.27,2.34,2.52,3.13,2.09,1.58-.86-.06-8.55-1.57-8.61Z"/>
  <path class="cls-1" d="M283.31,448.99c-3.19-1.38-9.03,1.39-9.91,6.26-.78,4.3,2.58,8.78,6.26,9.13,2.56.24,4.46-1.59,4.7-1.83,3.6-3.59,2.86-11.87-1.04-13.57Z"/>
  <path class="cls-1" d="M193.84,400.73c-4.18-1.76-11.52,3.83-13.04,10.43-.79,3.41-.48,9.06,3.13,10.96,3.78,1.98,9.05-1.27,11.48-4.7,3.97-5.6,2.64-14.93-1.57-16.7Z"/>
  <path class="cls-1" d="M439.31,307.86c-2.04-.27-3.92,1.83-3.91,3.91,0,1.6,1.12,3.4,2.87,3.65,1.94.28,3.69-1.5,3.91-3.39.22-1.88-1.05-3.93-2.87-4.17Z"/>
  <path class="cls-1" d="M55.18,288.88c-1.85,1.55-1.64,5.21,0,7.24,2.75,3.4,9.55,2.25,10.57-.2.73-1.77-1.52-4.33-2.93-5.48-1.74-1.41-5.5-3.35-7.63-1.57Z"/>
  <path class="cls-1" d="M106.05,304.73c-.32-1.47-5.76-1.53-9.2-1.57-5.21-.06-5.46.71-8.02,0-2.01-.55-3.41-1.45-5.09-.78-.9.36-1.95,1.2-1.96,2.15,0,1.33,2.01,2.4,3.52,2.74,1.8.41,2.52-.31,5.28-.59,1.75-.18,2.99-.05,5.28.2,4.22.45,5.12,1.22,7.04.59,1.6-.53,3.33-1.85,3.13-2.74Z"/>
  <path class="cls-1" d="M164.36,370.08c-3.05-.41-5.94,2.62-6.26,5.48-.5,4.43,5.15,8.59,8.22,7.43,2.15-.81,3-4.21,2.74-6.65-.24-2.25-1.65-5.85-4.7-6.26Z"/>
  <path class="cls-1" d="M392.1,207.16c-2.66-2.63-8.07-1.53-9.39,1.57-.94,2.19.31,5.05,2.35,6.52,1.84,1.33,4.77,1.84,6.78.26,2.5-1.96,2.41-6.23.26-8.35Z"/>
  <path class="cls-1" d="M439.05,150.95c-1.25-.09-3.61,2.87-2.35,5.09.89,1.56,3.21,2.12,4.11,1.37,1.45-1.21-.18-6.34-1.76-6.46Z"/>
  <path class="cls-1" d="M370.18,460.86c-2.22.02-5.65,4.27-3.91,7.83,1.65,3.37,6.74,3.59,8.22,1.96,2.06-2.27-1.33-9.81-4.3-9.78Z"/>
  <path class="cls-1" d="M344.49,180.82c-1.8-1.38-4.95-.48-5.48,1.17-.43,1.35.92,3.13,2.48,3.78,1.08.45,2.97.66,3.91-.52,1.02-1.27.37-3.45-.91-4.43Z"/>
  <path class="cls-1" d="M291.92,124.99c-.95.38-1.31,2.27-.78,3.65.54,1.42,2.17,2.68,3.26,2.22.87-.36,1.14-1.7,1.04-2.61-.21-1.97-2.36-3.72-3.52-3.26Z"/>
  <path class="cls-1" d="M274.71,381.42c-1.76-.61-3.79-.02-5.09,1.17-2.28,2.09-2.68,6.39,0,8.61,2.39,1.97,6.1,1.38,7.83-.78,2.3-2.88.5-7.88-2.74-9Z"/>
  <path class="cls-1" d="M246.53,471.82c-2.06-1.44-5.66-1.42-7.43.78-1.94,2.41-.56,5.99,1.17,7.83,1.54,1.63,4.36,2.96,6.26,1.96,2.86-1.5,3.44-8.16,0-10.57Z"/>
  <g class="cls-9">
    <path class="cls-8" d="M334.71,516.55c-1.63-.85-3.9-.72-5.48.52-2.25,1.77-2.61,5.42-.78,7.83,1.97,2.59,5.87,2.94,7.83,1.3,2.64-2.2,1.72-7.95-1.57-9.65Z"/>
  </g>
  <g class="cls-9">
    <path class="cls-8" d="M368.62,562.99c-1.95-.33-4.65,2.82-4.96,6-.4,4.09,3.14,8.22,5.22,7.83,2.12-.4,2.59-5.52,2.61-5.74.27-3.18-.72-7.72-2.87-8.09Z"/>
  </g>
  <g class="cls-9">
    <path class="cls-8" d="M268.05,503.12c-2.62-4.58-11.41-4.97-14.87-.39-1.94,2.56-2.25,6.76,0,9.78,2.51,3.37,7.2,3.95,10.57,2.35,4.54-2.16,6.35-8.16,4.3-11.74Z"/>
  </g>
  <g class="cls-9">
    <path class="cls-8" d="M421.31,474.29c-2.92-.89-8.17,2.7-8.35,7.3-.22,5.78,7.68,9.38,10.43,7.83,3.44-1.94,2.26-13.8-2.09-15.13Z"/>
  </g>
  <g class="cls-9">
    <path class="cls-8" d="M532.58,249.16c-1.45-.14-3.93,3.14-2.74,5.09.86,1.41,3.4,1.75,4.43.78,1.51-1.42-.12-5.72-1.7-5.87Z"/>
  </g>
  <g class="cls-9">
    <path class="cls-8" d="M448.05,228.95c-2.62.32-5.13,3.57-4.17,6.65.73,2.34,3.21,3.8,5.61,3.52,1.79-.21,3.61-1.39,4.17-3.13,1.04-3.17-2.31-7.44-5.61-7.04Z"/>
  </g>
  <g class="cls-9">
    <path class="cls-8" d="M475.05,270.68c-1.84-2.31-3.56-4.47-6.46-4.7-2.86-.22-6.24,1.48-6.85,3.91-.52,2.08,1.54,4.19,5.67,8.41,3.93,4.02,5.36,4.14,6.07,4.11,2.03-.09,4.01-1.64,4.7-3.52,1.07-2.93-1.28-5.89-3.13-8.22Z"/>
  </g>
  <g class="cls-9">
    <path class="cls-8" d="M502.64,305.12c-1.24-3.11-5.83-3.73-8.8-2.93-3.94,1.05-7.46,5.23-6.46,8.22,1.02,3.05,6.27,3.49,6.65,3.52.91.07,3.15.23,5.28-1.17,2.29-1.51,4.44-4.84,3.33-7.63Z"/>
  </g>
  <g class="cls-9">
    <path class="cls-8" d="M458.23,334.86c-2.16.36-3.79,2.46-3.72,4.7.08,2.42,2.15,4.61,4.7,4.5,2.43-.1,4.26-2.25,4.3-4.5.05-2.75-2.6-5.14-5.28-4.7Z"/>
  </g>
  <g class="cls-9">
    <path class="cls-8" d="M484.84,336.62c-1.45.19-2.49,1.69-2.15,3.13.29,1.23,1.51,2.1,2.74,1.96,1.54-.17,2.6-1.86,2.15-3.33-.35-1.13-1.53-1.92-2.74-1.76Z"/>
  </g>
  <g class="cls-9">
    <path class="cls-8" d="M460.87,377.9c-1.54-1.33-3.93-1.43-5.58-.29-1.26.86-2.45,2.69-1.86,4.21.66,1.68,3.06,1.87,4.11,1.96.94.08,3.78.31,4.7-1.47.75-1.44-.2-3.39-1.37-4.4Z"/>
  </g>
  <g class="cls-9">
    <path class="cls-8" d="M495.99,411.16c1.11-.81.08-5.6-3.13-8.41-.57-.5-4.1-3.46-8.22-2.15-1.84.59-4.6,2.28-4.89,5.09-.36,3.56,3.47,6.78,6.26,6.65,2.2-.1,2.79-2.24,5.48-2.35,2.53-.1,3.73,1.74,4.5,1.17Z"/>
  </g>
  <g class="cls-9">
    <path class="cls-8" d="M449.23,418.47c-3.63-.47-6.33,2.15-6.78,2.61-2.77,2.79-3.88,7.73-1.57,11.22,2.25,3.39,6.53,3.59,7.83,3.65,1.41.07,5.51.26,7.57-2.61,2.04-2.85.56-6.64,0-8.09-.44-1.13-2.42-6.19-7.04-6.78Z"/>
  </g>
  <g class="cls-9">
    <path class="cls-8" d="M592.18,467.77c-8.25-4.31-10.38-8.48-12.52-7.3-1.34.73-1.74,3.04-1.3,4.7.7,2.65,3.58,3.74,9.65,6.26,8.11,3.36,11.27,6.28,12.26,5.22.61-.66-.11-2.25-.39-2.87-1.47-3.22-4.46-4.31-7.7-6Z"/>
  </g>
  <g class="cls-9">
    <path class="cls-8" d="M478.97,509.51c-1.89-4.69-8.69-6.61-11.74-4.17-2.8,2.23-1.93,7.71,0,10.96.33.55,2.77,4.64,6,4.43,3.81-.25,7.69-6.4,5.74-11.22Z"/>
  </g>
  <g class="cls-9">
    <path class="cls-8" d="M389.49,497.25c-2.12.71-3.23,3.79-2.35,5.22,1.3,2.12,7.27,1.17,7.83-.78.47-1.67-2.66-5.38-5.48-4.43Z"/>
  </g>
</svg>