<?xml version="1.0" encoding="UTF-8"?>
<svg id="Capa_2" xmlns="http://www.w3.org/2000/svg" viewBox="0 0 1763.9081 400.1681">
  <defs>
    <style>
      .cls-1 {
        fill: #f9bd5d;
      }

      .cls-2 {
        fill: #ffcb80;
      }

      .cls-3 {
        fill: #db963b;
      }

      .cls-4 {
        fill: #eaa94b;
      }
    </style>
  </defs>
  <g id="Capa_1-2" data-name="Capa_1">
    <g>
      <g>
        <path class="cls-2" d="M1107.5181,381.8509c-1.585,2.1766-4.0383,3.2565-6.3717,4.1828-49.8686,19.9241-104.5092,15.7104-156.5027,6.0831-51.9944-9.6019-103.5854-24.3945-156.3478-24.9461-90.0286-.9185-181.9869,39.5461-268.2956,11.1784-94.5579-31.0888-153.5318-134.7756-233.5344-199.5115-59.6735-48.2595-132.8132-74.8782-206.3752-75.2734-3.6149-.0194-5.6679-4.8471-3.3302-7.991.0076-.0102.0149-.0198.0218-.0287,2.3228-2.9656,5.0055-5.6075,7.9066-7.8247,4.0807-3.1244,8.8582-4.8172,13.6943-6.1418,1.9534-.545,3.9283-1.0374,5.8563-1.5047,3.346-.8448,6.7329-1.5053,10.1383-2.0085,11.5828-1.7059,23.3657-1.5499,34.946.0384,31.2026,4.271,60.8554,18.3015,88.1876,35.2192,58.4711,36.2199,110.2438,84.7702,158.48,136.7746,34.9463,37.6867,69.7116,78.4529,114.8721,97.8709,80.7737,34.7444,170.8603-7.2118,257.4133-4.9556,73.1151,1.8959,143.8839,35.6201,216.9431,31.4487,35.0968-1.9963,69.7304-12.738,104.8567-11.7529,5.5315.1592,12.112,3.1463,15.9375,7.2828,3.2212,3.4913,4.4815,7.7891,1.5039,11.8603Z"/>
        <path class="cls-4" d="M1107.5181,381.8509c-1.585,2.1766-4.0383,3.2565-6.3717,4.1828-49.8686,19.9241-104.5092,15.7104-156.5027,6.0831-51.9944-9.6019-103.5854-24.3945-156.3478-24.9461-90.0286-.9185-181.9869,39.5461-268.2956,11.1784-94.5579-31.0888-153.5318-134.7756-233.5344-199.5115-59.6735-48.2595-132.8132-74.8782-206.3752-75.2734-3.6149-.0194-5.6679-4.8471-3.3302-7.991.0076-.0102.0149-.0198.0218-.0287,2.3228-2.9656,30.021-2.1035,39.0805.5104,15.2819,4.4139,44.2511,9.0971,49.3317,10.8832,41.9989,14.7645,59.9281,21.8065,84.9265,36.461,38.4056,22.4919,62.1564,46.7212,80.2989,63.9501,15.0883,14.343,27.3507,30.9434,59.031,65.8951,35.4819,39.114,38.3826,41.0897,50.1912,51.5737,14.1692,12.6174,39.1917,33.2978,76.9729,46.2289,28.7584,9.8476,54.2023,11.4632,83.025,11.0639,35.6302-.4905,40.0571-5.2396,104.8875-12.8374,37.4271-4.4128,61.7834-8.1368,84.0474-7.4697,18.2996.553,28.3771.5674,82.8427,10.8675,74.1268,14.0295,67.3602,15.0542,95.035,18.4653,53.9708,6.6518,81.6712,6.6003,111.4813-5.666,10.5748-4.3493,19.8896-9.8066,28.0805-15.4795,3.2212,3.4913,4.4815,7.7891,1.5039,11.8603Z"/>
        <path class="cls-1" d="M114.0854,82.0217c.1252-1.2912,24.238-1.7057,51.9207,4.564,7.0532,1.5974,36.0072,8.5365,69.5724,28.9429,13.8706,8.4328,26.7732,18.6869,52.5785,39.1957,11.0807,8.8063,25.4073,20.5404,25.1202,21.0135-.3052.5028-16.8245-12.2187-35.9657-25.7589-31.0966-21.9971-50.9542-36.044-72.2337-46.2405-48.6366-23.3053-91.1583-20.0069-90.9924-21.7166Z"/>
        <path class="cls-1" d="M137.9427,94.6443c.0305-.2088,17.0116,1.7823,32.7865,5.5475,46.0753,10.9978,78.3349,36.2916,78.2301,36.5238-.072.1597-15.8891-10.5459-41.4294-21.483-22.1124-9.4689-39.6424-14.028-45.1771-15.41-13.5455-3.3823-24.4346-5.0109-24.4101-5.1784Z"/>
        <path class="cls-1" d="M323.9746,188.237c.3324-.4487,17.5464,14.7633,35.1854,31.9598,22.9773,22.401,42.2132,43.8189,41.8256,44.2995-.2228.2763-12.8456-12.1983-38.0822-37.1584-26.1231-25.8372-39.1794-38.7624-38.9288-39.1009Z"/>
        <path class="cls-1" d="M421.5678,302.0462c-.2363.3784,14.9125,13.7341,33.5067,27.5637,21.0788,15.6778,35.2128,26.1901,54.75,34.3134,29.3838,12.2174,55.8095,12.7187,55.8263,12.6049.01-.068-9.3049-1.2113-23.106-4.7573-8.6257-2.2162-24.698-6.4269-42.2207-14.8988-11.5855-5.6013-23.712-14.3688-47.492-31.6748-20.0671-14.6041-31.066-23.4684-31.2643-23.1512Z"/>
        <path class="cls-1" d="M444.2988,308.0718c.6382-1.0096,26.4675,28.4835,69.5297,44.7987,33.3993,12.6544,66.1202,13.1965,81.7778,12.5848,13.1448-.5136,29.6903-2.443,45.7073-4.311,25.2015-2.9389,40.8731-5.6932,40.9217-5.3012.0559.451-20.5922,4.7643-44.7629,8.0894-15.2392,2.0966-27.8637,3.7942-44.4999,4.175-14.0433.3214-27.2363.6233-44.0129-2.2903-10.6726-1.8535-35.2665-7.1745-63.096-23.9823-24.7476-14.9466-42.0775-32.9519-41.5648-33.7631Z"/>
        <path class="cls-1" d="M773.5099,352.0767c-.0084-.1968-17.0059-.277-40.0115,2.4289-25.2151,2.9656-32.8312,6.3597-61.2455,11.0249-11.4923,1.8869-28.7149,4.7146-49.7044,5.986-40.2283,2.4364-70.0666-2.3117-70.1404-1.38-.0479.6053,12.5476,2.6189,25.8447,3.6853,4.4878.3599,20.8165,1.5551,49.8883-.6098,30.5432-2.2745,53.7599-6.6649,60.4807-7.9777,19.9032-3.8883,20.1456-5.2112,37.4678-8.1287,27.2529-4.5898,47.4296-4.8145,47.4204-5.0289Z"/>
        <path class="cls-1" d="M739.7995,347.2701c.0007-.3431,24.1955-2.7907,55.4956.5745,18.1509,1.9517,25.4072,4.4297,57.7599,11.8046,43.4005,9.8935,65.1007,14.8401,83.8143,16.5683,39.8898,3.684,70.3563-1.0731,70.4062-.0191.0366.774-16.3892,3.2577-34.637,3.8625-7.5462.25-29.4887.6459-64.8258-5.7027-13.8301-2.4847-12.151-2.8474-52.3951-12.2505-30.4278-7.1095-45.8693-10.6951-57.0223-12.213-33.926-4.6169-58.5965-2.2783-58.5958-2.6246Z"/>
        <path class="cls-1" d="M736.5658,360.306c-.0252-.3623,26.7784-6.1169,61.4855-3.6863,13.0894.9168,23.5642,2.7356,37.6113,5.1752,22.6488,3.9332,40.7218,8.5066,40.665,8.8433-.0592.3509-19.7434-4.2995-50.0793-8.4323-13.4467-1.8319-23.6486-3.2218-36.9718-3.878-31.2962-1.5415-52.6882,2.3014-52.7107,1.9781Z"/>
        <path class="cls-1" d="M920.3092,379.2363c.0841-.5695,26.3773,6.8758,63.2563,7.9592,43.5447,1.2791,75.5475-7.0844,75.6911-5.9199.1083.8792-18.1397,5.583-38.8059,7.5786-4.0029.3865-20.5053,1.8696-45.913-.2989-30.4068-2.5952-54.3085-8.7768-54.2284-9.3189Z"/>
        <path class="cls-1" d="M989.7118,382.726c-.0247-.5126,19.4549-.5748,45.3079-6.1126,19.7801-4.2369,34.3218-9.7578,34.4533-9.2386.1042.4115-8.9642,4.1158-18.8221,7.131-3.7746,1.1545-17.3018,5.1552-36.8202,7.1883-12.6271,1.3152-24.0999,1.4253-24.1188,1.0319Z"/>
      </g>
      <path class="cls-2" d="M1677.6961,137.1272c-7.7551,11.4635-48.741-6.0828-77.3649-13.4953-32.465-8.386-63.9978-3.7509-127.0119,5.5463-94.3109,13.9123-162.5369,43.5046-176.4021,50.1643-56.9487,27.4595-67.4278,45.4589-126.7998,69.0048-37.3686,14.8202-90.3479,35.1774-160.5117,32.1905-87.6339-3.6996-149.0546-41.573-175.321-58.2251-8.6522-5.5041-60.0346-38.8008-99.4513-99.0482-30.9766-47.3762-22.9923-63.1728-20.553-67.0766,4.3327-7.0126,13.4874-12.6054,20.7521-10.6709.6486.1757,1.2694.4029,1.862.7072,10.8287,5.2792,9.498,28.797,18.0511,54.0894,13.4178,39.7598,44.1698,63.1554,81.2671,91.3612,13.2525,10.081,35.901,27.0732,69.413,40.8749,82.5267,33.9843,158.0049,18.5621,179.6716,13.3557,38.7005-9.3174,55.7211-22.0566,101.5674-46.2013,10.6713-5.6014,117.6617-61.2676,233.9124-93.5032,174.4687-48.3903,245.4293-9.5098,251.6924-.9373,2.5153,3.4451,4.1364,7.0736,5.1515,9.9524,1.1867,3.276,1.5646,5.5876,1.5646,5.5876.7544,4.6755,1.0236,12.5789-1.4894,16.3235Z"/>
      <path class="cls-1" d="M1203.8194,197.3914c-.189-.3801,16.5803-9.2598,31.9474-16.9833,18.5307-9.3134,54.3489-27.2047,96.118-42.7582,62.9413-23.4378,114.5736-32.3248,114.7267-31.7361.1411.5421-43.3069,9.3903-103.9816,31.6193-36.1838,13.2566-68.9411,27.772-79.1933,32.333-33.3233,14.8252-59.3826,27.9971-59.6172,27.5253Z"/>
      <path class="cls-2" d="M1471.2558,169.0671c-.1323.9635-.4997,1.9206-1.1268,2.8172-1.7725,2.5372-4.9925,3.5951-7.9714,4.4505-56.1199,15.9271-115.9251,17.2906-173.4185,7.3737-36.4998-6.2797-73.1194-17.4776-102.5101-40.0236-24.6581-18.9324-42.9974-44.8467-65.7077-66.05-22.7357-21.2301-53.0682-38.313-83.6815-32.9193-33.5565,5.9096-56.8117,36.3261-87.1668,51.8183-24.9948,12.7448-55.2246,14.8027-81.7299,5.5427-40.897-14.2757-69.9865-52.7349-111.1682-66.2082-38.6172-12.6415-84.3926.8646-109.9558,32.4431-4.3646,5.3908-8.3543,11.3939-14.3619,14.8286-5.3701,3.0873-13.06,3.2061-17.3051-.9948-.5097-.4592-.9379-1.0205-1.3387-1.6336-3.9282-6.1261-.1924-14.2017,4.1341-20.0905,8.3578-11.3757,18.1135-20.9521,30.4431-27.9382,11.9889-6.7931,25.1666-11.2344,38.4396-14.7568,16.205-4.3006,32.8279-7.3662,49.5924-7.591,22.9054-.3072,46.6818,4.7371,66.4454,16.6287,27.8582,16.75,47.1046,48.3897,78.7034,55.9925,27.2888,6.5634,55.2426-7.2467,78.2678-23.316,23.0243-16.0434,45.1218-35.3031,72.4224-41.8638,42.8854-10.2948,87.6704,14.2365,116.0593,47.9698,15.5965,18.5669,27.8651,40.1231,46.0169,56.2017,30.8729,27.3727,73.9455,35.0968,114.6441,41.7325,42.39,6.9196,87.0072,13.6685,127.663.9038,2.5848-.7882,5.1466-1.6818,7.7105-2.6535,5.8424-2.2375,11.9856-4.9362,18.1197-3.6879,5.0684,1.0351,9.4648,6.3381,8.7808,11.0242Z"/>
      <path class="cls-4" d="M1471.2558,169.0671c-.1323.9635-.4997,1.9206-1.1268,2.8172-1.7725,2.5372-4.9925,3.5951-7.9714,4.4505-56.1199,15.9271-115.9251,17.2906-173.4185,7.3737-36.4998-6.2797-73.1194-17.4776-102.5101-40.0236-24.6581-18.9324-42.9974-44.8467-65.7077-66.05-22.7357-21.2301-53.0682-38.313-83.6815-32.9193-33.5565,5.9096-56.8117,36.3261-87.1668,51.8183-24.9948,12.7448-55.2246,14.8027-81.7299,5.5427-40.897-14.2757-69.9865-52.7349-111.1682-66.2082-38.6172-12.6415-84.3926.8646-109.9558,32.4431-4.3646,5.3908-8.3543,11.3939-14.3619,14.8286-5.3701,3.0873-13.06,3.2061-17.3051-.9948,3.2268-1.2928,6.5882-3.6273,11.3801-7.5157,12.8502-10.4539,26.3222-24.341,26.7797-24.7983,17.6189-18.0814,41.0321-23.1069,50.6077-25.1578,27.8579-5.9434,50.9357.6819,60.5124,4.0425,10.0678,3.5579,20.8361,10.9271,41.959,25.5223,42.5798,29.3833,43.7617,34.6462,60.5573,40.62,7.3757,2.6177,31.8682,10.9568,58.9153,3.2124,7.3812-2.1141,11.7376-4.4987,41.6174-24.3711,46.7786-31.0982,45.5076-31.4485,51.7664-33.6214,39.1372-13.5926,75.753,5.0046,78.2507,6.3314,9.6063,5.0609,17.6122,13.0303,33.625,28.9423,30.6528,30.478,33.1603,41.4522,54.5586,59.1929,18.232,15.1133,35.1124,22.6846,46.265,27.6071,33.0215,14.4932,60.3365,16.5083,95.269,19.1087,28.7242,2.1083,49.8668.573,92.1514-2.4713,18.8633-1.3654,29.7821-2.8552,42.4661-6.6208,3.4804-1.0242,6.6228-2.1101,9.4227-3.1015Z"/>
      <path class="cls-4" d="M1677.6961,137.1272c-7.7551,11.4635-48.741-6.0828-77.3649-13.4953-32.465-8.386-63.9978-3.7509-127.0119,5.5463-94.3109,13.9123-162.5369,43.5046-176.4021,50.1643-56.9487,27.4595-67.4278,45.4589-126.7998,69.0048-37.3686,14.8202-90.3479,35.1774-160.5117,32.1905-87.6339-3.6996-149.0546-41.573-175.321-58.2251-8.6522-5.5041-60.0346-38.8008-99.4513-99.0482-30.9766-47.3762-22.9923-63.1728-20.553-67.0766,4.3327-7.0126,13.4874-12.6054,20.7521-10.6709.6486.1757,1.2694.4029,1.862.7072-1.8898.2596-4.2313.7673-6.6998,2.0558-1.2213.6446-6.5882,3.6273-8.4823,9.4814-1.0635,3.3421-.5715,6.2318-.2354,8.1764,3.5423,20.442,2.0463,17.9154,3.7641,23.6383,4.2229,14.0564,10.8791,23.5032,16.4888,31.1681,22.7918,31.0882,34.1883,46.606,53.4118,63.6043,4.1819,3.676,21.2705,18.5473,50.4811,35.5453,27.1793,15.8155,70.3684,40.3797,132.6047,49.0212,20.9887,2.905,62.271,6.525,111.8806-3.9426,39.0354-8.2358,67.8227-21.9431,87.0982-31.2708,26.8846-13.0041,31.5679-18.5689,59.5593-34.6002,26.397-15.1354,87.3342-49.4604,164.801-65.8453,13.9935-2.9434,8.055-.9968,71.2732-11.935,24.1989-4.1665,42.858-7.5248,69.5158-9.9207,39.2658-3.5234,50.904-.9396,58.2895,1.3382,10.2104,3.1436,15.729,6.7014,30.7528,9.7483,15.258,3.0799,26.1224,5.3011,36.4606.3699,4.2675-2.0212,7.3528-4.7558,9.7627-7.6408,1.1867,3.276,1.5646,5.5876,1.5646,5.5876.7544,4.6755,1.0236,12.5789-1.4894,16.3235Z"/>
      <path class="cls-2" d="M1673.3931,37.7595c-12.2838,14.3918-40.4784,6.5995-71.6379.9966,0,0-62.2423-11.1518-119.4692-8.5377-27.4875,1.248-76.1526,7.0629-119.8951,42.5885-8.8073,7.1455-30.4483,25.0849-45.5711,55.4473-11.5425,23.1453-8.3864,31.5763-21.8486,83.2684-9.5817,36.7705-14.3721,55.143-24.1028,73.4776-14.9812,28.1708-32.3832,44.1667-59.2653,68.8835-5.666,5.1963-49.4216,44.8005-82.14,45.2179-3.5826.0277-11.6875.0296-15.2017-5.0387-1.8817-2.7471-2.0131-6.3592-1.2286-9.9965.9062-4.2355,3.0157-8.4886,4.9293-11.3878,5.4421-8.3141,13.3917-12.0069,15.1943-12.87,22.9807-10.8943,71.7111-45.3091,96.2783-74.9815,16.3065-19.7139,23.2644-38.9128,30.3369-58.4483,12.3867-34.3105,7.503-44.4908,18.7073-81.3192,5.9216-19.5163,14.7013-48.4145,34.8535-73.665,23.6797-29.7242,53.0213-41.7946,83.3831-53.8883,84.2596-33.4704,117.8926-7.5342,239.7936-13.5414,10.0276-.4955,33.937-1.8726,40.6174,10.3722.7692,1.4337,1.3248,3.0186,1.5909,4.6731,1.1518,6.3082-1.1023,13.7726-5.3242,18.7493Z"/>
      <path class="cls-4" d="M1673.3931,37.7595c-12.2838,14.3918-40.4784,6.5995-71.6379.9966,0,0-62.2423-11.1518-119.4692-8.5377-27.4875,1.248-76.1526,7.0629-119.8951,42.5885-8.8073,7.1455-30.4483,25.0849-45.5711,55.4473-11.5425,23.1453-8.3864,31.5763-21.8486,83.2684-9.5817,36.7705-14.3721,55.143-24.1028,73.4776-14.9812,28.1708-32.3832,44.1667-59.2653,68.8835-5.666,5.1963-49.4216,44.8005-82.14,45.2179-3.5826.0277-11.6875.0296-15.2017-5.0387-1.8817-2.7471-2.0131-6.3592-1.2286-9.9965,1.8986.3422,4.0832.745,6.6065,1.1837,8.9733,1.6176,9.883,1.8008,11.7108,1.8796,9.7162.3321,17.3503-4.2066,21.929-7.055,37.2383-23.0071,49.8679-34.8792,49.8679-34.8792,33.5628-31.5572,50.3311-47.3361,59.6809-65.1586,7.3033-13.9342,11.4667-31.4095,19.8179-66.3069,8.6231-36.1706,7.237-42.5117,14.6572-65.0436,4.558-13.9341,12.2925-37.3984,27.7775-58.5478,28.5488-39.0221,70.7185-52.6058,94.3105-60.2145,13.9596-4.4868,64.4792-19.3206,123.0138-9.2429,26.0413,4.4882,52.4084,6.7376,78.4834,10.9654,14.3126,2.3205,26.5122,4.4759,40.4183-.8757,8.1434-3.1641,13.3675-7.5367,17.4107-11.7606,1.1518,6.3082-1.1023,13.7726-5.3242,18.7493Z"/>
      <g>
        <path class="cls-2" d="M1748.2884,384.404c-7.7036,2.2591-15.9506,1.3117-23.915.3696-57.3124-6.8201-117.8487-14.9529-163.0039-50.8684-25.5332-20.2767-45.4973-48.9992-75.9433-60.6297-21.318-8.1011-45.0932-6.6486-67.5-2.3078-38.3751,7.4212-75.3738,22.8564-114.4296,24.6542-44.831,2.0555-88.3975-13.9968-129.7185-31.545-9.1575-3.8999-19.994-10.7447-18.4308-20.568.5392-3.3465,2.5162-6.0145,5.2182-7.8938,4.3091-2.9591,10.4749-3.9634,15.7052-2.5633,8.4692,2.278,15.1392,8.6193,22.2135,13.873,1.538,1.1299,3.0843,2.2019,4.6671,3.2673,35.2829,23.093,82.1465,21.6834,123.7423,12.5519,35.9476-7.8643,70.8256-20.6993,107.4571-25.5135,35.7669-4.7141,66.6437-.035,95.9752,22.2395,20.9444,15.8871,38.6914,35.7904,60.3652,50.6253,38.666,26.4236,87.0702,34.7636,133.916,35.1226,8.5384.0684,17.3629-.0465,25.278,3.2145,4.5688,1.8953,8.7633,5.2484,11.334,9.3837,1.9021,3.0359,2.9412,6.491,2.6365,10.0955-.6896,8.0125-7.842,14.2475-15.5671,16.492Z"/>
        <path class="cls-4" d="M1748.2884,384.404c-7.7036,2.2591-15.9506,1.3117-23.915.3696-57.3124-6.8201-117.8487-14.9529-163.0039-50.8684-25.5332-20.2767-45.4973-48.9992-75.9433-60.6297-21.318-8.1011-45.0932-6.6486-67.5-2.3078-38.3751,7.4212-75.3738,22.8564-114.4296,24.6542-44.831,2.0555-88.3975-13.9968-129.7185-31.545-9.1575-3.8999-19.994-10.7447-18.4308-20.568.5392-3.3465,2.5162-6.0145,5.2182-7.8938.5216,3.6052.163,8.5717,3.5744,13.9256,4.0535,6.3084,10.2737,8.2989,20.5716,12.0675,28.1791,10.3135,19.1537,9.1126,35.6127,14.1312,23.6323,7.1937,46.9477,14.2941,74.5864,14.0574,9.2805-.0848,30.1344-5.1211,71.8351-15.2295,37.8705-9.1701,48.1963-12.5055,68.831-13.8772,19.2415-1.2887,32.9059-2.055,49.9382,3.3293,20.6577,6.5305,34.8661,18.5109,48.8595,30.3426,17.5353,14.7957,14.3658,16.4778,29.1242,28.9036,25.1407,21.1178,50.9356,30.1919,65.5252,35.1548,2.3416.7965-.5104-.2269,49.2899,11.4659,0,0,21.006,4.9273,51.9276,6.744,8.9067.5461,15.698.6117,21.562-3.7185,5.7016-4.1878,7.7072-10.4292,9.4158-15.0957,1.9021,3.0359,2.9412,6.491,2.6365,10.0955-.6896,8.0125-7.842,14.2475-15.5671,16.492Z"/>
        <path class="cls-1" d="M1732.0983,351.3782c.0077-.4927-20.6837.8983-50.1971-3.277-21.0117-2.9725-37.1467-2.2561-66.843-16.061-13.5634-6.3049-28.8393-18.2153-41.5408-29.5241-17.8887-15.9273-22.9922-21.5755-40.029-33.3503-21.6581-14.9688-40.7774-22.0007-40.8775-21.8057-.0871.1698,14.0184,6.323,32.4229,18.7444,2.3936,1.6155,11.0619,7.5228,24.169,18.3108,19.7943,16.2923,20.1118,19.3527,32.408,29.3111,8.0782,6.5424,27.6837,22.1146,56.3939,30.3853,10.9513,3.1548,19.3455,4.0242,36.1341,5.763,32.2674,3.3421,57.951,2.0523,57.9594,1.5035Z"/>
        <path class="cls-1" d="M1612.5859,337.9996c.3951-.7629-25.2802-10.3026-51.4865-35.0712-7.8493-7.4185-7.1759-8.1034-15.7384-15.888-8.1161-7.3788-21.3435-19.2315-41.4546-29.0501-11.1794-5.458-23.4802-11.3186-40.4792-12.5084-14.4592-1.0121-26.6087,1.7547-26.5671,2.4244.0441.7091,13.7072-1.6108,32.345,1.5811,15.8066,2.707,27.6801,8.0923,34.158,11.0813,5.0403,2.3258,13.5968,6.3269,23.4767,13.4759,7.5938,5.4947,9.8474,8.4195,27.6246,25.217,9.9624,9.4134,14.9436,14.12,17.1208,15.9132,20.2015,16.6382,40.6507,23.5001,41.0006,22.8246Z"/>
        <path class="cls-1" d="M1446.04,253.9595c-.0202-.3222-22.8189-1.434-49.9969,3.9129-22.6486,4.4558-24.8626,8.7785-51.4922,15.9419-34.5738,9.3004-59.7127,9.7803-59.6219,10.6169.0812.7469,20.1492.6464,44.5914-4.3422,7.9594-1.6245,7.6668-1.9885,38.7046-10.8083,32.3211-9.1844,40.7242-11.0874,50.6279-12.6008,16.2207-2.4788,27.2011-2.4965,27.1871-2.7205Z"/>
        <path class="cls-1" d="M1368.0975,258.0971c-.2058-.5366-18.3792,7.9749-43.1688,13.2092-9.8897,2.0882-27.5809,5.7004-50.3855,4.4735-33.1173-1.7816-57.6225-12.7246-67.9523-17.4523-18.6895-8.554-32.3222-18.3477-32.7255-17.71-.3412.5394,9.3147,7.7179,19.7927,13.9287,15.2576,9.0442,28.7401,13.9511,36.1542,16.3539,9.8356,3.1876,31.2688,9.9226,59.6469,8.7914,22.3466-.891,39.0639-6.2637,51.5805-10.3853,15.061-4.9593,27.2262-10.7694,27.0577-11.2091Z"/>
        <path class="cls-1" d="M1733.8022,366.8692c-.0041-.5331-21.2531,1.3202-51.34-2.8249-12.6517-1.743-32.8023-4.6383-56.2484-13.6935-32.0122-12.3638-53.443-29.7518-54.083-28.7833-.4139.6264,8.7719,7.5706,16.2472,12.6113,15.0304,10.1354,28.0962,15.9145,33.943,18.3469,5.3754,2.2364,26.656,10.7999,58.3878,14.3471,29.5917,3.3081,53.0975.5571,53.0934-.0036Z"/>
        <path class="cls-1" d="M1479.1297,241.9025c.0335-.3502-17.8935-5.4437-40.3723-2.7908-5.7402.6775-17.4108,3.8923-40.7523,10.3219-7.3105,2.0138-20.9332,5.7662-20.8539,6.0742.0807.3125,14.1969-3.2324,37.4527-8.2544,24.1491-5.2151,29.9549-5.9333,35.786-6.299,17.0559-1.0699,28.7127,1.2294,28.7398.9482Z"/>
      </g>
      <path class="cls-1" d="M1504.1857,4.2443c-.016-.4406-30.9625-3.5122-69.8707,4.6382-11.6031,2.4307-41.6009,9.5642-75.0065,29.0434-15.258,8.8973-30.1368,17.7647-43.7213,35.059-12.4259,15.8194-18.6357,32.1551-18.0707,32.473.5782.3253,7.7617-16.4043,22.7-33.3625,15.4413-17.5294,31.5149-26.6148,47.0507-35.2191,9.7955-5.4249,33.596-17.7258,68.1278-25.533,39.1394-8.8491,68.8065-6.6673,68.7907-7.0989Z"/>
      <path class="cls-1" d="M1454.9508,16.1263c10.0009-1.814,21.8728-3.4675,35.2924-4.3549,12.0421-.7962,37.4081-1.774,69.9907,3.0378,21.817,3.2221,18.9271,4.913,35.1038,6.6374,35.1353,3.745,60.9546-2.9341,61.1718-1.5638.1533.9673-12.6223,4.8754-27.8004,6.1905-15.184,1.3156-26.9688-.4662-45.2584-3.3493-14.1163-2.2252-13.9944-2.9806-27.8123-5.2336-6.4712-1.055-23.0517-3.7111-42.4744-4.5476-14.5818-.6282-34.4618-.3899-58.2132,3.1834Z"/>
      <path class="cls-1" d="M1525.2865,5.7042c-.0047-.168,12.0868-1.8245,27.4583-.2327,7.6899.7962,9.8527,1.7482,24.9308,4.6394,6.7295,1.2903,17.3876,3.3343,24.9408,4.2988,28.1858,3.5998,50.1975-3.0922,50.3608-2.131.1062.6251-9.2441,3.2055-19.4836,4.5543-5.4805.7218-18.098,1.9974-35.0272-.4116-7.3013-1.039-4.4042-1.1978-28.8904-6.2878-13.1064-2.7243-18.0847-3.541-24.095-4.0613-11.9204-1.0316-20.1906-.2292-20.1945-.3682Z"/>
      <path class="cls-1" d="M1457.2591,11.4611c-.1036-.4769-23.6651,2.2561-52.2772,12.434-8.7696,3.1196-22.0875,7.9319-37.836,17.1977-23.4953,13.8239-39.2439,29.8199-38.7297,30.4711.4376.5539,12.5887-10.0784,34.9497-23.5466,7.6584-4.6127,21.6772-12.9903,39.465-20.4757,30.6271-12.8881,54.5325-15.6004,54.4282-16.0805Z"/>
      <path class="cls-1" d="M1311.9931,92.0238c-2.8547,1.3233-5.6867,8.1041-7.3801,11.0482-2.4251,4.2166-4.6844,8.5286-6.7714,12.9225-4.174,8.7875-7.659,17.9025-10.4033,27.236-5.1297,17.4468-7.6617,35.5339-11.4851,53.3125-4.9171,22.8643-11.9882,45.2648-21.0894,66.8084,17.6612-24.9596,23.8298-56.0222,29.4366-86.0796,2.7638-14.8175,5.5403-29.6706,9.7446-44.1613,2.1155-7.2919,4.5891-14.4882,7.6099-21.4576,2.9508-6.8076,7.3707-12.9618,10.3381-19.6291Z"/>
      <path class="cls-1" d="M1262.374,266.0011c-3.4086,6.535-8.777,15.9589-16.5337,26.464-5.5418,7.5054-21.6607,28.2364-57.0283,53.0909-31.8174,22.3596-57.4209,32.7418-56.7395,34.173.5038,1.0581,14.7702-4.0578,28.1859-10.6979,21.9623-10.87,35.8779-22.969,52.4907-37.6202,19.363-17.0766,31.4336-27.9279,41.5918-46.9708,3.9644-7.432,6.4897-13.9599,8.0331-18.439Z"/>
      <path class="cls-1" d="M1248.2838,269.7728c-.3659-.2895-7.5377,9.0165-23.8012,27.1927-17.8702,19.9721-27.0544,30.1549-39.2538,39.7913-15.9177,12.5737-28.9282,18.7056-28.6841,19.1236.2603.4463,15.2513-6.2234,31.1275-18.1153,12.0203-9.0036,19.6261-17.3141,29.2799-27.9726,18.3082-20.2138,31.8505-39.6093,31.3317-40.0197Z"/>
      <path class="cls-1" d="M1235.8236,187.3153c-.389-.7264-31.3895,17.1219-70.5538,34.2866-33.6798,14.7607-66.6394,29.2061-101.2784,35.4484-85.5435,15.4161-159.427-23.1416-160.5784-19.1159-.6254,2.1866,21.9936,10.6888,35.8856,15.0145,3.6475,1.1358,20.3273,6.229,44.4102,9.1218,34.1971,4.108,60.644,1.0549,68.2001.0878,23.3262-2.9859,40.5501-8.3613,50.4601-11.5059,15.3681-4.8764,28.8085-10.8724,55.6893-22.8643,13.2555-5.9135,24.3848-10.8992,39.1092-18.4823,19.8255-10.2106,38.9622-21.4189,38.656-21.9907Z"/>
      <path class="cls-1" d="M1332.9999,146.2928c-.2048-.6643,49.1213-19.7053,114.8536-33.182,31.6431-6.4874,52.4959-8.694,86.8872-12.3328,22.9108-2.424,35.4251-3.0824,50.6942-1.8654,30.7168,2.4481,54.311,11.0281,54.1375,11.7891-.1629.7143-21.1714-5.8725-51.6997-7.6268-15.4225-.8863-28.5288-.2666-55.5753,2.6201-34.8695,3.7214-57.5232,6.1394-90.5586,12.5255-65.4859,12.6594-108.5479,28.6919-108.7388,28.0723Z"/>
      <path class="cls-1" d="M1476.4831,98.8452c-.0339-.1695,18.8016-5.4883,45.5262-8.9199,17.1027-2.1961,43.7726-5.4655,75.2488-1.9257,40.0405,4.5031,69.3506,17.9439,69.3012,18.1078-.0365.1212-16.488-5.8302-42.0514-11.1-26.9424-5.5539-44.4517-6.3196-51.476-6.5117-2.7139-.0743-10.6888-.2493-23.4997.4315-41.4149,2.2005-73.0053,10.1368-73.0491,9.9179Z"/>
      <path class="cls-1" d="M1227.8385,198.1684c-.4959-.8377-29.4842,18.2239-74.074,38.1069-31.314,13.9633-55.6554,24.5951-89.4924,28.7968-23.5765,2.9276-45.0951,1.9053-45.0942,2.7939.0007.728,14.4485,1.8607,29.3758,1.2721,10.4813-.4135,26.5313-1.8861,52.0502-8.9877,11.5711-3.2202,43.8715-12.8247,84.861-35.239,23.5647-12.8859,42.7798-26.0569,42.3736-26.7429Z"/>
      <path class="cls-1" d="M890.7706,232.8816c.4188-.9176-24.9581-10.6305-56.6449-31.2991-25.3655-16.5451-41.9614-31.7534-42.3219-31.3128-.3144.3845,12.3686,11.8804,27.7938,23.648,10.6416,8.1184,21.1804,16.0892,36.3022,24.2342,17.6503,9.5071,34.5312,15.474,34.8708,14.7297Z"/>
      <path class="cls-1" d="M734.3122,58.8083c-4.1899,11.9405,3.7978,28.5132,13.0404,44.5368,13.775,23.8808,27.7285,42.0187,28.1258,41.7311.3455-.2498-11.366-13.1262-22.1594-35.7621-3.9423-8.268-15.593-32.7017-14.7624-49.872.0691-1.4294.4337-7.1265-.6408-7.3502-1.1619-.2419-3.3692,6.0485-3.6036,6.7164Z"/>
      <g>
        <path class="cls-2" d="M1095.9307,189.9963c-5.6606,2.0138-11.6608,3.2419-17.5984,3.6342-19.0614,1.2419-37.8178-4.4915-56.0893-10.1053-64.7594-19.905-132.1399-39.1701-199.336-30.3913-91.7778,11.974-174.7813,75.3412-267.1004,68.7203-73.357-5.2383-137.4888-54.288-210.5035-63.1462-56.8511-6.8865-114.2952,11.4987-164.2755,39.4372-51.9784,29.0341-97.5177,68.1661-145.0119,104.0729-3.7129,2.8107-7.8273,5.0908-12.3083,6.397-11.5976,3.3562-19.1893-.8859-22.2035-7.1334-3.1855-6.5347-1.3762-15.2284,6.0588-19.5819,1.3492-.7895,2.7207-1.5496,4.0697-2.3391,15.0042-8.5306,30.4444-16.2093,45.1239-25.4444,31.2715-19.7096,61.1475-41.5375,92.3743-61.3061,49.3779-31.214,104.4647-57.7339,162.8762-58.1244,95.8865-.6686,182.6794,68.6111,278.4832,64.3428,79.135-3.5393,148.6051-56.8003,227.2939-65.8887,54.0795-6.2658,120.0336,8.053,173.5898,17.7813,37.2437,6.7341,62.8669,11.6497,100.6868,13.2656,2.0442.0982,3.8536.5594,5.4128,1.3029,9.7484,4.6724,10.3354,20.2664-1.5425,24.5068Z"/>
        <path class="cls-4" d="M1095.9307,189.9963c-5.6606,2.0138-11.6608,3.2419-17.5984,3.6342-19.0614,1.2419-37.8178-4.4915-56.0893-10.1053-64.7594-19.905-132.1399-39.1701-199.336-30.3913-91.7778,11.974-174.7813,75.3412-267.1004,68.7203-73.357-5.2383-137.4888-54.288-210.5035-63.1462-56.8511-6.8865-114.2952,11.4987-164.2755,39.4372-51.9784,29.0341-97.5177,68.1661-145.0119,104.0729-3.7129,2.8107-7.8273,5.0908-12.3083,6.397-11.5976,3.3562-19.1893-.8859-22.2035-7.1334,4.6491-1.7579,11.9051-2.3373,18.6848-3.6684,25.7154-5.097,39.7729-20.3277,61.9101-39.6118,0,0,39.1199-34.1102,82.8233-61.4924,25.5632-16.0139,73.1985-45.1208,137.5236-48.7825,37.9434-2.1395,68.1204,5.3318,82.3621,8.99,45.0747,11.5368,51.7463,24.9118,105.1313,41.0277,27.3235,8.2637,51.2829,15.4819,83.5657,15.3562,32.8409-.1542,56.678-7.8851,98.632-21.4736,45.7368-14.8067,47.1672-20.5713,86.6914-32.0426,27.7089-8.0662,53.7126-15.6295,88.725-16.987,45.0116-1.7423,83.1025,7.6412,118.8476,16.4369,23.6278,5.8007,35.4381,8.7268,45.1289,12.0982,16.2872,5.656,25.7453,8.2303,44.6061,13.3981.5107.1231,9.85,2.6022,22.0956,2.0002,9.0011-.4169,13.3137-2.2213,16.5132-4.9449,1.4689-1.2741,4.698-4.02,5.252-8.2169.4539-3.4727-1.1574-5.938-2.5234-8.0791,9.7484,4.6724,10.3354,20.2664-1.5425,24.5068Z"/>
        <path class="cls-1" d="M1084.8616,173.5491c.0245-.4439-22.4281-.0923-54.9808-5.5393-29.7325-4.9752-35.5265-9.3718-69.4964-17.5262-25.4247-6.103-53.1709-12.7631-88.0408-14.0686-40.9548-1.5332-72.6704,5.0343-72.6486,5.2657.0174.1853,20.4223-3.051,50.1459-3.0441,14.4774.0033,38.5332.7777,67.7077,5.5787,16.2966,2.6819,28.3022,5.6511,43.935,9.5174,29.7634,7.361,32.8312,9.8889,49.8835,13.7815,40.2762,9.1937,73.4647,6.5736,73.4945,6.0348Z"/>
        <path class="cls-1" d="M768.7894,148.6762c-.0533-.1478-18.7137,6.2795-38.264,13.5482-23.8495,8.867-27.8771,11.1243-43.3828,16.9699-34.0292,12.8286-55.4911,20.9196-83.4871,23.2954-26.1382,2.218-46.2977-1.5363-46.3893-.4797-.0772.8901,14.2329,3.4979,29.1405,3.901,18.5984.503,32.9723-2.628,40.3479-4.356,39.2003-9.1838,58.9592-21.7484,120.3959-44.7738,10.0331-3.7604,21.6811-7.9882,21.6389-8.1051Z"/>
        <path class="cls-1" d="M816.7751,142.2794c-.0375-.2145-19.0096,1.5244-42.79,8.0187-15.4496,4.2192-27.2404,8.892-42.1813,14.8131-15.9166,6.3079-30.1858,12.6974-30.0593,13.0057.1209.295,13.3505-5.1282,37.6051-14.0699,19.3342-7.1276,29.209-10.7498,39.3905-13.6075,22.0909-6.2005,38.0695-7.9631,38.0351-8.1601Z"/>
        <path class="cls-1" d="M260.3572,144.9457c-.0416-.2177,20.5789-6.9216,47.8334-8.0954,26.4461-1.1391,46.9065,3.4558,62.7613,7.1313,13.1304,3.0439,19.6783,5.4429,50.9073,16.3317,59.6522,20.799,80.8925,27.7815,80.7523,28.202-.1804.5412-35.4693-10.7246-45.1474-13.8144-34.2028-10.9191-40.2479-13.4904-62.4334-20.0767-25.4599-7.5584-38.5065-11.3781-54.0275-13.365-21.5129-2.7537-38.6956-1.9125-46.7908-1.3095-19.8988,1.4826-33.8212,5.1739-33.8552,4.996Z"/>
        <path class="cls-1" d="M584.7728,208.3952c.0182-.6103-21.0305.206-47.2003-3.947-6.0886-.9664-34.2904-5.6667-67.0448-19.0798-9.5638-3.9165-18.9923-8.3614-37.2712-15.0912-11.634-4.2833-24.2765-8.5438-24.4232-8.1522-.1516.4048,13.1728,5.4214,39.2837,16.4017,18.5716,7.8098,19.273,8.4015,27.5658,11.5551,10.8015,4.1076,21.877,8.3195,36.9318,11.9468,5.1307,1.2361,24.2374,5.6602,49.8818,6.6408,10.993.4202,22.2631.1725,22.2765-.2742Z"/>
        <path class="cls-1" d="M284.9487,146.2821c-.0205-.1175-26.4611,1.2555-56.5326,11.2799-24.8701,8.2904-42.1861,19.1524-71.2397,37.3772-25.9463,16.2756-42.6594,29.292-42.5316,29.4759.1935.2783,38.6196-29.4334,88.4639-53.0614,12.8143-6.0745,30.5577-13.7258,53.4471-19.4494,15.957-3.9903,28.407-5.5411,28.3929-5.6223Z"/>
      </g>
      <path class="cls-1" d="M617.814,66.1966c-.5064-.4087,7.5796-16.145,24.5098-28.1103,9.05-6.3962,16.9253-9.0983,31.954-14.2551,9.0903-3.119,20.6913-7.0999,36.0809-9.5326,28.5972-4.5208,51.3447-.7042,51.3339-.3978-.0089.2547-15.7523-1.6934-38.9022.9261-5.2215.5907-18.6702,2.3023-35.7542,7.0699-16.3332,4.5582-27.3813,7.6413-39.3993,15.2344-20.1742,12.7461-29.296,29.4907-29.8229,29.0654Z"/>
      <path class="cls-1" d="M635.208,57.2341c-.1455-.1784,12.2797-14.3045,32.818-25.0148,22.8036-11.8913,43.5404-13.2788,53.0843-13.8175,10.5475-.5954,36.3638-1.7555,63.487,11.291,7.5138,3.6142,15.8405,9.6694,32.494,21.7798,19.3046,14.0383,36.1711,27.9695,35.7525,28.5236-.5478.725-31.1444-20.8582-40.7652-27.6447-19.8007-13.9677-24.6999-17.9191-35.2937-22.2443-13.7613-5.6183-25.408-7.0812-33.019-7.9839-23.3067-2.7642-41.009.8878-45.0648,1.7719-4.2573.9281-17.9975,4.1513-34.1259,12.7006-18.433,9.771-29.2349,20.8008-29.3671,20.6384Z"/>
      <path class="cls-1" d="M894.6159,87.4648c.126-.7467-14.3467-.6916-30.2844-8.2036-4.9843-2.3491-8.4033-4.633-37.0119-29.1991-13.9529-11.9812-15.0081-13.0424-18.9852-15.7219-16.855-11.3559-32.0409-15.2977-32.1326-15.0769-.0909.2189,14.7306,4.3291,31.4997,16.3375,4.364,3.125,8.6946,6.9389,17.3559,14.5666,7.8861,6.945,14.0821,12.8552,24.5403,21.1672,4.3932,3.4915,7.3951,5.7035,11.5789,7.9424,1.3729.7346,7.192,3.7834,15.7497,5.952,8.7175,2.2092,17.5904,2.824,17.6897,2.2358Z"/>
      <path class="cls-1" d="M1008.2893,37.5391c-.3151-.3972-17.6244,13.2969-42.5667,30.4889-25.5819,17.6329-33.804,21.4451-43.4012,23.9429-4.6231,1.2032-15.7175,3.9935-30.0094,2.9725-14.1288-1.0096-25.2934-5.3092-25.4372-4.8244-.1154.3889,6.9731,3.4883,15.445,5.4319,18.079,4.1476,33.5133.9785,40.1762-.7618,10.6812-2.7901,18.847-7.9163,35.1785-18.1691,15.4482-9.6983,26.9451-19.0894,37.6303-27.8175,5.9951-4.897,13.1905-11.0038,12.9844-11.2635Z"/>
      <path class="cls-1" d="M968.7222,57.1166c.0231.0294,14.2713-14.7265,36.8122-26.0506,9.7571-4.9017,24.8225-12.2854,44.3662-13.0453,25.1303-.9772,44.3762,9.5137,44.3541,9.589-.0173.0585-12.081-5.0191-29.865-6.4866-12.8417-1.0597-22.4862.2727-25.2119.681-12.7935,1.9161-21.9828,5.7561-28.1835,8.396-10.5722,4.501-17.9625,9.2707-23.7781,13.0626-11.3776,7.4184-18.5097,13.8337-18.4939,13.854Z"/>
      <path class="cls-1" d="M1179.1799,117.4818c.2409-.2602-11.8033-10.794-29.0146-28.6277-29.153-30.207-25.5894-32.0965-38.3673-41.3442-3.8211-2.7653-29.2514-20.6645-62.8462-20.2239-11.9568.1568-23.1499,2.6134-23.1072,3.086.0442.4889,12.0725-1.455,27.2829-.0673,6.4402.5875,21.236,2.0676,37.7364,9.9529,13.8619,6.6243,22.6693,14.7786,33.7223,25.0123,7.7617,7.1862,7.8066,8.2822,18.4806,19.1813,18.7756,19.1716,35.8295,33.3366,36.113,33.0307Z"/>
      <path class="cls-1" d="M1203.3734,132.9272c.334-.3823-13.9085-10.793-30.5937-30.0375-16.3637-18.8736-15.247-23.3724-28.7268-37.1447-18.6156-19.0198-38.1204-28.1922-38.1949-28.0823-.057.0842,10.9906,6.0671,24.0323,18.0833,6.777,6.2442,12.0034,12.4743,22.18,24.68,15.1522,18.1736,14.3151,18.6576,21.7378,26.7133,14.8254,16.0895,29.2322,26.1692,29.5652,25.7878Z"/>
      <path class="cls-1" d="M1268.0754,164.2023c.1194-.5602-15.3007-2.4074-34.1249-9.5505-33.4175-12.6807-53.4572-32.9042-54.0636-32.1196-.4452.576,10.6924,11.0451,24.8716,20.0259,11.978,7.5865,22.8018,12.0052,30.1445,14.5508,17.5501,6.0845,33.0529,7.6542,33.1724,7.0934Z"/>
      <path class="cls-1" d="M1457.4902,163.3465c-.1831-.4904-12.1772,4.0804-22.8743,6.8439-11.6928,3.0208-22.1475,3.9626-37.6325,4.2023-39.2979.6083-72.6508-3.8998-72.7068-3.4572-.0733.5794,17.1459,4.0859,37.0122,5.4985,18.1033,1.2871,31.472.3424,43.3242-.5428,2.6772-.1999,30.3553-2.4018,48.5941-10.3555.6417-.2799,4.3863-1.9127,4.2831-2.1892Z"/>
      <g>
        <path class="cls-1" d="M804.0073,237.8335c-.7911,2.9577-3.1659,5.53-6.9426,5.944-123.8536,13.899-228.2905,123.4439-354.6772,126.3414-78.6675,1.7874-157.3222-38.6476-233.6401-19.485-34.1826,8.5848-64.2191,28.4527-95.7088,44.3045-6.7129,3.415-15.2744,6.5671-20.9401-.0536-2.8317-3.3496-3.6749-7.6615-2.8001-11.715.6097-3.015,2.2084-5.8712,4.6232-8.0236,47.1729-42.068,113.709-64.7279,176.8467-59.2503,60.9204,5.3097,119.452,29.1128,181.1637,26.9154,107.6935-3.8018,195.8576-87.54,300.4979-113.3386,12.9284-3.1834,27.5659-4.8798,40.5992-2.6223,1.8732.3156,3.7182.7086,5.5079,1.2047,4.8242,1.3414,6.4966,5.9125,5.4703,9.7784Z"/>
        <path class="cls-3" d="M804.0073,237.8335c-.7911,2.9577-3.1659,5.53-6.9426,5.944-123.8536,13.899-228.2905,123.4439-354.6772,126.3414-78.6675,1.7874-157.3222-38.6476-233.6401-19.485-34.1826,8.5848-64.2191,28.4527-95.7088,44.3045-6.7129,3.415-15.2744,6.5671-20.9401-.0536-2.8317-3.3496-3.6749-7.6615-2.8001-11.715,4.4084,2.1662,9.8213,3.943,15.9424,3.8317,14.8834-.2513,25.4214-11.2163,31.1681-16.4888,24.6798-22.6886,57.0115-28.7384,86.9249-34.3348,19.8982-3.7149,39.6489-1.3945,79.2008,3.2998,59.0674,7.0075,57.4651,13.6283,98.7386,16.6465,54.3181,3.9692,94.3881-4.7858,108.1578-8.1281,20.3515-4.9305,35.7361-10.7885,48.0292-15.5068,23.9507-9.1666,34.6162-15.4742,79.8997-39.1382,65.8273-34.3674,80.4067-40.4053,99.526-45.2146,30.5213-7.6444,46.5719-7.5742,52.1107-7.441,1.8294.0265,6.2134.3097,11.5721-1.4707,1.3197-.4327,2.458-.9231,3.4388-1.3914Z"/>
        <path class="cls-4" d="M110.1386,370.9398c-.2223-.3616,22.4585-19.4522,56.5495-33.4964,13.5583-5.5857,51.9711-19.8686,102.6179-16.8244,40.2188,2.4175,69.5527,14.6433,69.477,14.9587-.0693.2887-25.0874-8.0922-61.2566-10.2888-24.5098-1.4885-43.1254.5323-49.4845,1.3034-14.6455,1.7763-41.2498,6.2629-72.0011,19.411-27.9882,11.9667-45.7094,25.25-45.9022,24.9365Z"/>
        <path class="cls-4" d="M324.0555,337.7965c.2003-.7758,25.5008,8.1048,60.5114,12.4838,54.3634,6.7997,97.2072-1.6236,108.5584-4.036,37.4072-7.9504,64.5355-21.1323,65.0234-19.8676.3616.9375-14.591,8.0612-29.7123,13.382-4.0697,1.432-18.4862,6.3699-42.499,10.371-35.7146,5.9512-64.0353,5.0612-75.3224,4.4813-21.6612-1.1128-37.8312-4.0246-43.4179-5.0864-23.3012-4.4284-43.3192-11.0398-43.1415-11.7281Z"/>
        <path class="cls-4" d="M353.0427,334.7946c.1602-.7384,26.6684,7.5154,61.6146,9.7023,54.56,3.4144,97.1213-9.9975,97.432-8.4484.1867.9309-15.2468,5.4592-31.7009,8.4227-12.2782,2.2115-41.3016,6.4657-79.834,1.2822-26.6062-3.5792-47.6546-10.3003-47.5116-10.9587Z"/>
        <path class="cls-4" d="M599.0644,299.9327c-.2655-.5633,24.2413-12.7729,45.4124-22.7341,10.314-4.8528,34.1924-15.9265,34.4589-15.3766.2675.5515-23.2393,12.8129-47.7565,24.2011-13.7776,6.3995-31.889,14.3885-32.1147,13.9096Z"/>
        <path class="cls-4" d="M624.1716,294.0058c-.1967-.3606,8.4332-5.8567,18.3472-10.9811,20.0663-10.3722,38.3714-15.5923,38.5439-15.131.1008.2694-6.0269,2.38-19.8106,8.509-22.778,10.1285-36.8331,18.0564-37.0804,17.6031Z"/>
        <path class="cls-4" d="M712.1919,246.7519c-.2629-.7403,17.2043-10.0777,40.8631-14.2546,23.5707-4.1613,43.6255-1.4951,43.6297-.79.0035.5829-13.6953-.265-34.0909,2.599-30.463,4.2778-50.1264,13.2216-50.4019,12.4455Z"/>
      </g>
      <g>
        <path class="cls-2" d="M822.7009,362.9943c1.1609,2.5549-.5192,5.5996-3.2958,6.0066-7.9188,1.1605-16.3753-1.894-23.9397-5.1882-26.8795-11.7023-52.6698-26.7195-73.6487-47.2193-21.0058-20.4747-37.0081-46.7395-42.0585-75.6437-3.5021-20.0231-1.7749-40.9671-7.8305-60.3836-11.3458-36.3536-47.7777-59.5205-84.5363-69.5202-74.4263-20.2085-157.5112.6158-228.2356-30.1267-9.425-4.0886-19.0176-9.6195-23.5102-18.8473-6.8642-14.0278.6663-23.1443,11.4943-25.1075,3.9432-.7491,8.3034-.5451,12.5806.7286,18.9752,5.6443,35.949,16.329,54.3036,23.5505,30.711,12.1002,64.2628,14.53,97.2362,16.159,32.9742,1.6029,66.3843,2.5909,98.0081,12.0506,31.6229,9.4855,61.8407,28.735,76.7579,58.1849,19.7396,39.0265,9.5418,88.1196,29.3606,127.1222,10.2186,20.1115,27.857,35.8616,47.8179,46.3189,11.7188,6.1413,24.3225,10.609,35.6569,17.3929,6.0149,3.5717,11.7445,7.9721,16.3783,13.2035,3.0131,3.4071,5.5716,7.1672,7.4402,11.2735.0069.0151.0138.0302.0206.0453Z"/>
        <path class="cls-4" d="M822.7009,362.9943c1.1609,2.5549-.5192,5.5996-3.2958,6.0066-7.9188,1.1605-16.3753-1.894-23.9397-5.1882-26.8795-11.7023-52.6698-26.7195-73.6487-47.2193-21.0058-20.4747-37.0081-46.7395-42.0585-75.6437-3.5021-20.0231-1.7749-40.9671-7.8305-60.3836-11.3458-36.3536-47.7777-59.5205-84.5363-69.5202-74.4263-20.2085-157.5112.6158-228.2356-30.1267-9.425-4.0886-19.0176-9.6195-23.5102-18.8473-6.8642-14.0278.6663-23.1443,11.4943-25.1075,1.361,5.3989,3.1068,11.9591,7.0522,18.3997,4.3199,7.0527,14.9566,19.908,59.4961,29.3473,32.4574,6.8431,43.2206,3.493,94.2737,6.4528,53.4804,3.1082,74.9924,8.7209,82.9034,10.9095,39.9939,11.1387,55.8049,24.9798,61.5306,30.4258,6.1325,5.85,19.5687,18.6292,26.477,39.299,7.2724,21.6479.6014,31.7828,7.0475,63.969,1.5769,7.8887,3.8904,19.2498,9.6217,32.6699,16.5057,38.7505,46.3372,59.6095,59.7406,68.9892.7172.5176,13.6109,9.438,28.6892,16.0418,7.9264,3.4701,13.7873,5.1292,15.9411,5.6878,3.0608.8464,6.2819,1.5666,10.1846,2.2279,4.8908.8467,9.0613,1.2809,12.5825,1.5651.0069.0151.0138.0302.0206.0453Z"/>
        <path class="cls-1" d="M372.6149,45.8379c.1621-.3078,18.2009,12.3343,47.4619,21.5714,27.1611,8.5742,51.4543,10.2572,63.8776,11.0463,15.6111.9917,15.0209-.2055,32.8527.4342,42.8471,1.537,75.7308,9.5059,75.677,9.8515-.0374.2402-16.0243-2.9165-42.4383-5.0582-15.6009-1.2649-29.0709-1.7082-37.1565-1.9649-19.7805-.6279-21.7834-.0606-31.5712-.5253-26.2082-1.2444-46.5512-6.959-53.1962-8.9484-33.225-9.9468-55.6885-26.0621-55.507-26.4067Z"/>
        <path class="cls-1" d="M610.7111,93.7845c.0579-.141,26.6427,5.9206,50.5639,26.3496,13.8524,11.8302,20.5348,23.1177,22.0229,25.6984,11.3345,19.6566,12.4069,38.9769,12.0899,39.0533-.2565.0619-1.5359-12.4487-9.1546-28.4823-7.9953-16.826-18.0885-27.2545-21.1238-30.2765-9.4478-9.4056-18.2076-14.4418-27.7306-19.9164-15.4566-8.886-26.7058-12.333-26.6676-12.4261Z"/>
        <path class="cls-1" d="M684.9604,172.4795c.3387-.1798-4.5601-13.1604-13.8196-26.3574-14.3074-20.3913-31.9009-31.1449-40.139-36.0668-21.112-12.6137-39.9506-16.4244-49.7296-18.3119-15.6806-3.0266-29.1508-3.2232-29.2051-2.7588-.06.5131,16.3197,1.2619,37.3927,7.0866,11.0689,3.0595,25.6247,7.1962,42.2131,17.3282,21.2351,12.9705,33.5668,28.2934,37.4052,33.3025,10.4074,13.5821,15.5488,25.9546,15.8823,25.7775Z"/>
        <path class="cls-1" d="M539.4654,86.9593c.0041-.2549-18.5256-.5445-44.9691-1.5506-34.9348-1.329-52.4023-1.9934-61.5356-3.5616-38.6983-6.6445-64.7228-23.4337-65.3502-22.0864-.4299.923,12.033,8.273,25.4351,13.776,15.595,6.4036,28.3079,8.6005,37.6878,10.1643,16.1017,2.6845,28.8653,2.9332,48.6267,3.318,2.2377.0437,8.3397.0556,20.5438.0802,25.8858.0517,39.558.079,39.5615-.1399Z"/>
        <path class="cls-1" d="M726.0517,295.404c.4829-.4102-11.7818-10.5831-19.8682-29.4728-7.2975-17.0469-8.3491-34.551-8.5446-40.7838-.2409-7.6741.3043-14.5624.0359-14.5775-.3201-.0178-1.8714,9.7327-1.6107,20.4146.1643,6.7301.753,23.4077,10.0818,40.7004,8.1654,15.1359,19.4475,24.1086,19.9058,23.719Z"/>
        <path class="cls-1" d="M711.2023,287.048c.302-.2128-6.507-8.0842-11.959-19.9098-3.1164-6.7595-5.2219-15.3017-9.3059-32.1099-3.2135-13.2253-4.308-19.1058-4.5666-19.0577-.3791.0705,1.0808,12.8802,4.7108,27.374,5.2085,20.7961,11.2433,30.5208,13.1973,33.5327,3.7023,5.706,7.6921,10.3339,7.9234,10.1707Z"/>
        <path class="cls-1" d="M814.9185,356.4463c.0845-.3473-8.6047-2.0104-20.4572-6.045-30.2001-10.2807-49.2434-25.171-49.5908-24.6167-.2628.4191,10.8432,8.5978,25.2838,16.0736,3.4189,1.7701,7.9286,4.0893,14.1342,6.545,16.0833,6.365,30.5217,8.4884,30.6301,8.0431Z"/>
        <path class="cls-1" d="M798.6372,341.5698c.0606-.1971-9.0947-2.3825-20.6711-7.5008-11.8459-5.2373-19.0201-10.3594-19.2347-10.0167-.1947.3107,5.5046,4.8496,13.0531,8.5599,4.1069,2.0187,7.3369,3.0918,13.1549,5.0251,7.1601,2.3792,13.6467,4.0991,13.6978,3.9324Z"/>
      </g>
    </g>
  </g>
</svg>