<?xml version="1.0" encoding="UTF-8"?>
<svg id="Capa_2" xmlns="http://www.w3.org/2000/svg" viewBox="0 0 1832.3279 462.371">
  <defs>
    <style>
      .cls-1 {
        fill: #f47731;
      }

      .cls-2 {
        fill: #ff8c42;
      }

      .cls-3 {
        fill: #fc9b65;
      }

      .cls-4 {
        fill: #e56525;
      }
    </style>
  </defs>
  <g id="Capa_1-2" data-name="Capa_1">
    <g>
      <path class="cls-2" d="M683.2763,172.0609c-31.1158,33.7455-72.9178,58.1633-118.2075,65.6963-75.9194,12.5857-150.9592-21.732-227.2506-31.6411-108.5368-14.1313-219.6369,22.645-309.314,85.3718-4.5355,3.1636-9.2331,6.5058-14.6953,7.3417-5.4622.8366-11.8975-1.7541-13.4442-7.0537-.4527-1.5293-.4599-3.0984-.1536-4.6582.5544-2.9122,2.23-5.7136,4.1024-8.0913.9496-1.2014,1.9768-2.3743,3.0288-3.4946,8.6001-9.0335,20.2961-14.8148,31.7413-20.0537,49.3024-22.5031,84.4982-39.9476,136.0377-56.6082,24.5685-7.9201,64.6932-14.9482,90.7282-15.6891,26.3746-.7308,58.37-1.4568,84.0071,4.3531,2.0516.4778,4.1034.9549,6.155,1.4324,42.9721,10.3091,79.356,27.8797,123.0012,34.7834,43.62,6.8769,90.3089,7.0446,128.7419-14.7776,23.2836-13.2387,44.5326-33.9081,70.6763-36.6067,1.6002-.1895,3.2236-.2733,4.8454-.3048Z"/>
      <path class="cls-4" d="M683.2763,172.0609c-31.1158,33.7455-72.9178,58.1633-118.2075,65.6963-75.9194,12.5857-150.9592-21.732-227.2506-31.6411-108.5368-14.1313-219.6369,22.645-309.314,85.3718-4.5355,3.1636-9.2331,6.5058-14.6953,7.3417-5.4622.8366-11.8975-1.7541-13.4442-7.0537-.4527-1.5293-.4599-3.0984-.1536-4.6582,5.4208.6006,12.3842,1.193,20.9634-.756,14.9751-3.4382,24.4044-12.2126,29.471-16.5638,24.9527-21.2688,64.1589-36.3495,99.6628-49.9684,53.7466-20.6754,100.8249-22.222,122.0434-22.7617,51.0175-1.2501,93.3426,7.9161,117.45,13.2901,22.9384,5.1048,28.505,7.9056,57.5658,13.7621,38.9915,7.8156,59.1627,11.8734,86.8248,10.9183,23.186-.7706,49.6703-1.6814,78.2183-16.1539,36.9059-18.729,56.8262-37.7376,56.8262-37.7376,2.7695-2.6656,6.0536-5.9434,9.1941-8.7812,1.6002-.1895,3.2236-.2733,4.8454-.3048Z"/>
      <path class="cls-2" d="M885.8625,273.0844c-.7911,2.9577-3.1659,5.53-6.9426,5.944-123.8536,13.899-228.2905,123.4439-354.6772,126.3414-78.6675,1.7874-157.3222-38.6476-233.6401-19.485-34.1826,8.5848-64.2191,28.4527-95.7088,44.3045-6.7129,3.415-15.2744,6.5671-20.9401-.0536-2.8317-3.3496-3.6749-7.6615-2.8001-11.715.6097-3.015,2.2084-5.8712,4.6232-8.0236,47.1729-42.068,113.709-64.7279,176.8467-59.2503,60.9204,5.3097,119.452,29.1128,181.1637,26.9154,107.6935-3.8018,195.8576-87.54,300.4979-113.3386,12.9284-3.1834,27.5659-4.8798,40.5992-2.6223,1.8732.3156,3.7182.7086,5.5079,1.2047,4.8242,1.3414,6.4966,5.9125,5.4703,9.7784Z"/>
      <path class="cls-4" d="M885.8625,273.0844c-.7911,2.9577-3.1659,5.53-6.9426,5.944-123.8536,13.899-228.2905,123.4439-354.6772,126.3414-78.6675,1.7874-157.3222-38.6476-233.6401-19.485-34.1826,8.5848-64.2191,28.4527-95.7088,44.3045-6.7129,3.415-15.2744,6.5671-20.9401-.0536-2.8317-3.3496-3.6749-7.6615-2.8001-11.715,4.4084,2.1662,9.8213,3.943,15.9424,3.8317,14.8834-.2513,25.4214-11.2163,31.1681-16.4888,24.6798-22.6886,57.0115-28.7384,86.9249-34.3348,19.8982-3.7149,39.6489-1.3945,79.2008,3.2998,59.0674,7.0075,57.4651,13.6283,98.7386,16.6465,54.3181,3.9692,94.3881-4.7858,108.1578-8.1281,20.3515-4.9305,35.7361-10.7885,48.0292-15.5068,23.9507-9.1666,34.6162-15.4742,79.8997-39.1382,65.8273-34.3674,80.4067-40.4053,99.526-45.2146,30.5213-7.6444,46.5719-7.5742,52.1107-7.441,1.8294.0265,6.2134.3097,11.5721-1.4707,1.3197-.4327,2.458-.9231,3.4388-1.3914Z"/>
      <path class="cls-3" d="M904.5561,398.2451c1.1609,2.5549-.5192,5.5996-3.2958,6.0066-7.9188,1.1605-16.3753-1.894-23.9397-5.1882-26.8795-11.7023-52.6698-26.7195-73.6487-47.2193-21.0058-20.4747-37.0081-46.7395-42.0585-75.6437-3.5021-20.0231-1.7749-40.9671-7.8305-60.3836-11.3458-36.3536-47.7777-59.5205-84.5363-69.5202-74.4263-20.2085-157.5112.6158-228.2356-30.1267-9.425-4.0886-19.0176-9.6195-23.5102-18.8473-6.8642-14.0278.6663-23.1443,11.4943-25.1075,3.9432-.7491,8.3034-.5451,12.5806.7286,18.9752,5.6443,35.949,16.329,54.3036,23.5505,30.711,12.1002,64.2628,14.53,97.2362,16.159,32.9742,1.6029,66.3843,2.5909,98.0081,12.0506,31.6229,9.4855,61.8407,28.735,76.7579,58.1849,19.7396,39.0265,9.5418,88.1196,29.3606,127.1222,10.2186,20.1115,27.857,35.8616,47.8179,46.3189,11.7188,6.1413,24.3225,10.609,35.6569,17.3929,6.0149,3.5717,11.7445,7.9721,16.3783,13.2035,3.0131,3.4071,5.5716,7.1672,7.4402,11.2735.0069.0151.0138.0302.0206.0453Z"/>
      <path class="cls-1" d="M904.5561,398.2451c1.1609,2.5549-.5192,5.5996-3.2958,6.0066-7.9188,1.1605-16.3753-1.894-23.9397-5.1882-26.8795-11.7023-52.6698-26.7195-73.6487-47.2193-21.0058-20.4747-37.0081-46.7395-42.0585-75.6437-3.5021-20.0231-1.7749-40.9671-7.8305-60.3836-11.3458-36.3536-47.7777-59.5205-84.5363-69.5202-74.4263-20.2085-157.5112.6158-228.2356-30.1267-9.425-4.0886-19.0176-9.6195-23.5102-18.8473-6.8642-14.0278.6663-23.1443,11.4943-25.1075,1.361,5.3989,3.1068,11.9591,7.0522,18.3997,4.3199,7.0527,14.9566,19.908,59.4961,29.3473,32.4574,6.8431,43.2206,3.493,94.2737,6.4528,53.4804,3.1082,74.9924,8.7209,82.9034,10.9095,39.9939,11.1387,55.8049,24.9798,61.5306,30.4258,6.1325,5.85,19.5687,18.6292,26.477,39.299,7.2724,21.6479.6014,31.7828,7.0475,63.969,1.5769,7.8887,3.8904,19.2498,9.6217,32.6699,16.5057,38.7505,46.3372,59.6095,59.7406,68.9892.7172.5176,13.6109,9.438,28.6892,16.0418,7.9264,3.4701,13.7873,5.1292,15.9411,5.6878,3.0608.8464,6.2819,1.5666,10.1846,2.2279,4.8908.8467,9.0613,1.2809,12.5825,1.5651.0069.0151.0138.0302.0206.0453Z"/>
      <path class="cls-2" d="M1417.9648,29.2603c-.0361,1.2538-.4355,2.419-1.2754,3.4404-.9759,1.2006-2.3545,1.8669-3.8548,2.2159-1.4228.3774-2.9155.4653-4.3545.5024l-.0261-.0008c-15.0937.2973-30.078-2.304-45.174-2.8433-31.7322-1.1487-63.2606,6.9633-92.629,19.0594-39.2892,16.15-76.3225,40.2088-101.4654,74.4399-38.4224,52.3331-45.1303,121.8667-78.5759,177.5064-30.1491,50.1135-80.0313,85.4886-132.5886,111.1657-6.9479,3.4079-15.043,6.7043-22.1447,3.6502-8.0832-3.4746-10.6021-14.0572-7.8476-22.5533.3727-1.1395.8491-2.2501,1.4278-3.2793,4.7749-8.7514,14.1019-13.9734,23.1875-18.0777,24.5012-11.0334,51.3838-17.6062,72.9938-33.5595,36.6481-27.0243,50.3252-74.3698,66.0133-117.1086,1.8432-4.9929,3.7377-9.9579,5.6839-14.8955,8.3989-21.1182,18.0652-41.7554,29.5075-61.4262,11.3049-19.4398,24.3339-37.9147,39.5305-54.4972,15.0883-16.4548,32.2154-31.0732,51.6428-42.0437,22.0042-12.3864,44.2389-24.6094,67.6768-34.1307,23.0669-9.3494,47.4418-15.9944,72.4058-16.7658,16.4858-.5189,34.3659,2.2966,47.3776,11.665,1.3321.9533,2.6089,2.0098,3.8312,3.1428,2.0648,1.8374,3.9399,3.9042,5.6523,6.1761,1.7363,2.3507,3.1896,5.4515,3.0053,8.2174Z"/>
      <path class="cls-1" d="M942.1966,383.406c-.1496-.5357,19.2644-3.9932,46.0025-16.579,14.0743-6.6249,32.79-15.4345,49.7514-31.3049,29.5729-27.6706,37.8287-61.8485,39.1051-61.2795.9551.4258-3.9555,19.4331-16.4732,39.1683-3.5438,5.5871-18.5042,28.2707-48.915,46.6748-34.8497,21.0905-69.2741,24.0246-69.4708,23.3203Z"/>
      <path class="cls-1" d="M949.2922,394.5732c-.1275-.4208,10.5772-3.1142,24.5566-9.012,29.9859-12.6509,47.4112-28.3893,47.8595-27.7786.4235.5771-14.4399,15.5696-37.8416,26.2766-17.7509,8.1215-34.4171,11.0333-34.5745,10.514Z"/>
      <path class="cls-1" d="M1056.0827,327.5694c-.5056-.3758,15.8991-17.2957,30.0338-48.2412,3.9816-8.7171,8.3903-22.6466,17.0452-50.1499,11.5605-36.7368,13.4059-45.6759,21.9687-61.2615,9.4457-17.1926,20.0306-29.6697,20.5379-29.3324.5352.3556-10.8741,14.4851-21.0093,36.8213-6.7213,14.8127-6.8449,19.9295-18.7433,58.7968-6.2671,20.4724-9.4008,30.7084-11.242,35.1416-14.9296,35.945-37.9994,58.6649-38.5909,58.2254Z"/>
      <path class="cls-1" d="M1092.4635,236.5432c5.259-21.3781,14.6627-49.9498,32.4941-80.3963,19.6664-33.5798,42.9625-58.134,43.3539-57.8323.2513.1939-8.5056,10.9878-22.3857,31.3256-11.4836,16.8263-21.0064,30.7796-30.024,47.9006-7.166,13.6056-16.1875,33.3407-23.4383,59.0024Z"/>
      <path class="cls-1" d="M1174.715,97.9873c-.3282-.3937,21.8644-24.6309,55.5297-45.4612,16.7176-10.3441,58.7742-35.6955,114.6332-37.3656,24.5865-.735,47.241,3.2551,47.2029,3.9165-.0328.5694-16.9159-.9504-37.3396-.0518-13.9551.6141-42.5495,2.0795-75.3317,13.6883-30.049,10.641-50.9139,25.306-72.0007,40.1274-19.8661,13.9632-32.4566,25.4308-32.6938,25.1463Z"/>
      <path class="cls-1" d="M1255.3292,34.0664c-.1354-.2806,28.1629-18.3692,66.3756-26.8623,23.1099-5.1361,38.2372-4.183,44.6053-3.5752,19.2692,1.839,35.3153,7.8601,35.18,8.4297-.1026.4324-9.5567-2.1635-22.7796-3.8527-8.2939-1.0596-26.4265-3.2575-48.204-.2369-20.506,2.8443-35.7526,9.1374-57.0389,17.9237-12.6571,5.2245-18.08,8.2949-18.1384,8.1736Z"/>
      <path class="cls-4" d="M1417.9648,29.2603c-.0361,1.2538-.4355,2.419-1.2754,3.4404-.9759,1.2006-2.3545,1.8669-3.8548,2.2159-1.4228.3774-2.9155.4653-4.3545.5024l-.0261-.0008c-15.0937.2973-30.078-2.304-45.174-2.8433-31.7322-1.1487-63.2606,6.9633-92.629,19.0594-39.2892,16.15-76.3225,40.2088-101.4654,74.4399-38.4224,52.3331-45.1303,121.8667-78.5759,177.5064-30.1491,50.1135-80.0313,85.4886-132.5886,111.1657-6.9479,3.4079-15.043,6.7043-22.1447,3.6502-8.0832-3.4746-10.6021-14.0572-7.8476-22.5533,4.922,1.5798,10.2876,5.0023,18.7609,5.8213,13.2455,1.2443,23.7483-4.8589,38.2672-14.245,38.8956-25.1813,58.3427-37.7459,71.5685-52.163,5.9373-6.4437,29.3072-32.6732,45.0935-73.3699,7.627-19.7289,5.5033-22.2474,14.1719-48.1946,5.8368-17.4794,15.1941-45.5504,32.8017-73.2272,30.7264-48.3713,72.1387-72.8791,86.4686-81.1464,3.0045-1.7438,37.0251-21.0524,77.3136-29.2259,15.2004-3.0918,28.77-5.8384,43.6045-4.3919,7.3776.7355,14.8196,1.0541,22.2004,1.685,5.4513.4445,10.9305-.0776,16.3602.2096,4.8559.2445,8.4801.584,10.5339-1.7361,1.1885-1.3253.7446-2.2531,2.248-6.3405.6826-1.915,1.2769-3.493,1.8855-4.6518,2.0648,1.8374,3.9399,3.9042,5.6523,6.1761,1.7363,2.3507,3.1896,5.4515,3.0053,8.2174Z"/>
      <path class="cls-2" d="M1724.0443,454.0022c-6.2715,2.6171-13.7056.2067-19.0218-4.0247-5.3153-4.2575-9.069-10.0914-13.2013-15.4916-19.0941-25.1254-47.4926-42.1785-77.6588-51.413-30.166-9.2348-62.1647-11.1234-93.7028-9.9396-46.8236,1.7892-94.4124,10.171-140.0421-.4499-39.8907-9.2793-75.4522-32.7089-104.5042-61.5719-29.052-28.863-52.1716-63.0982-73.8647-97.8409-4.8236-7.7208-11.3043-21.45-3.7776-29.5211,2.724-2.9021,6.2277-3.8209,9.9043-3.4798,6.0238.5398,12.4454,4.5155,16.2503,8.5728,6.3165,6.7179,9.7209,15.6004,13.2927,24.1216,26.9382,64.1494,77.5589,122.9937,145.3106,138.931,56.533,13.3143,115.8522-4.7691,173.7169.4259,40.4979,3.6236,79.0766,18.5124,116.3063,34.8524,16.2134,7.1337,32.5451,14.6889,46.0445,26.1889,6.2527,5.3042,12.052,11.8244,13.9131,19.8259.1402.5791.2535,1.1837.3146,1.787.0886.5515.1513,1.1022.1876,1.6522.3702,7.1218-2.9318,14.661-9.4677,17.3749Z"/>
      <path class="cls-1" d="M1708.6628,411.6605c.1275-.2373-27.4655-17.6693-64.8585-33.2404-14.4579-6.0204-32.3283-13.363-56.7524-18.6845-30.0483-6.5468-54.6551-6.6878-54.7301-6.0089-.0733.663,23.2912,1.8354,57.1728,10.0008,27.5085,6.6294,47.4601,14.3769,52.8927,16.5273,14.3876,5.6951,26.3302,11.4762,39.3021,17.7557,17.6856,8.5612,26.9007,13.7853,26.9734,13.6499Z"/>
      <path class="cls-1" d="M1711.7096,436.1306c.1644-.1526-10.8995-16.527-30.4644-31.5682-29.0774-22.3542-59.9652-28.719-60.0505-28.4983-.0553.143,12.4415,4.0159,30.6849,13.5435,6.9044,3.606,16.9981,8.9244,28.1543,17.0512,20.1886,14.7069,31.5151,29.6207,31.6757,29.4719Z"/>
      <path class="cls-1" d="M1577.2718,364.825c.0126-.2115-24.8351-3.2685-58.491-2.7071-13.8551.2311-13.09.8065-44.0573,2.3124-31.546,1.5339-47.5958,2.276-61.1569,1.0526-24.641-2.2231-42.7664-7.7749-42.887-7.2451-.097.4265,11.6587,3.9914,25.5134,6.617,6.0769,1.1515,24.2887,4.3455,50.7805,4.0195,5.08-.0625,13.8485-.6781,31.3854-1.9097,34.5522-2.4262,35.7404-3.0213,47.6079-3.4887,30.2527-1.1911,51.2935,1.5437,51.305,1.349Z"/>
      <path class="cls-1" d="M1533.4646,358.4485c-.0027-.4941-17.5935-1.3187-37.7006-.8297-27.2426.6624-31.9048,3.0743-56.2326,3.2407-21.0877.1442-35.8646-1.5431-35.9045-1.0336-.0365.4659,12.2922,2.2496,25.9436,2.9107,17.9648.8698,28.6065-.67,45.132-2.0153,35.3483-2.8778,58.7653-1.7026,58.7622-2.2727Z"/>
      <path class="cls-1" d="M1376.0765,352.8943c.1704-.6707-15.5297-3.3491-33.6862-11.4559-23.1506-10.3366-38.4796-24.2228-52.1388-36.7959-23.1277-21.289-35.8343-39.6631-36.4694-39.158-.591.47,9.738,16.9075,25.8688,34.2492,12.7935,13.7539,33.087,35.1084,64.6513,46.3634,16.4166,5.8537,31.608,7.4518,31.7743,6.7972Z"/>
      <path class="cls-1" d="M1287.4351,295.8657c1.0777-1.0512-22.0188-20.8951-41.9423-53.3825-17.1787-28.0115-23.1969-51.0703-23.8574-50.8155-.6873.2652,6.1187,25.1199,21.4233,52.4507,6.8475,12.2283,15.6847,25.4674,28.73,38.5092,6.5646,6.5629,14.994,13.8747,15.6465,13.2383Z"/>
      <path class="cls-4" d="M1724.0443,454.0022c-6.2715,2.6171-13.7056.2067-19.0218-4.0247-5.3153-4.2575-9.069-10.0914-13.2013-15.4916-19.0941-25.1254-47.4926-42.1785-77.6588-51.413-30.166-9.2348-62.1647-11.1234-93.7028-9.9396-46.8236,1.7892-94.4124,10.171-140.0421-.4499-39.8907-9.2793-75.4522-32.7089-104.5042-61.5719-29.052-28.863-52.1716-63.0982-73.8647-97.8409-4.8236-7.7208-11.3043-21.45-3.7776-29.5211,2.724-2.9021,6.2277-3.8209,9.9043-3.4798-5.0791,15.7236,3.3838,27.962,3.6816,31.2387,2.1712,24.4812,25.9991,51.1602,60.2172,84.9301,23.2855,23.0239,46.6737,46.1031,85.2063,60.7812,52.7564,20.0815,104.8737,13.3199,118.3355,11.5899,16.1652-2.0967,27.0711-1.2383,48.4062-2.1927,32.3829-1.4731,55.6771,2.1746,68.4887,4.8703,15.332,3.239,38.7878,7.4639,62.7193,21.6696,6.4007,3.7922,15.1437,9.3819,25.4339,19.7437,7.1391,7.2123,12.7861,9.5014,16.619,15.3114,3.6551,5.6216,5.0142,9.2687,9.8507,12.9112,2.3544,1.7672,7.6774,5.7636,13.509,4.8072,6.7771-1.1121,10.1225-8.336,12.6816-10.955.0886.5515.1513,1.1022.1876,1.6522.3702,7.1218-2.9318,14.661-9.4677,17.3749Z"/>
      <path class="cls-3" d="M1314.1008,364.1073c-1.7879,2.1707-4.5641,3.2413-7.2049,4.1588-56.4386,19.7349-118.3779,15.3112-177.3379,5.4832-58.961-9.8024-117.4848-24.7946-177.2814-25.5488-102.0311-1.2641-206.0902,38.8522-304.011,10.1502-107.2797-31.455-174.5115-135.3796-265.4252-200.4296-67.8119-48.4938-150.8018-75.3961-234.1695-76.0736-4.0968-.0333-6.4419-4.8694-3.8047-8.0047.0086-.0102.0168-.0197.0246-.0287,2.6211-2.9571,5.6511-5.5889,8.9304-7.7952,4.6126-3.1091,10.0204-4.7837,15.4959-6.09,2.2117-.5376,4.4478-1.0225,6.6311-1.4824,3.7887-.8321,7.6245-1.4796,11.4818-1.9698,13.12-1.6616,26.4739-1.4604,39.6038.1725,35.3776,4.3912,69.0364,18.5371,100.0763,35.5615,66.4031,36.4482,125.2623,85.2025,180.1269,137.3978,39.7485,37.8249,79.3037,78.7291,130.5577,98.3225,91.6724,35.0582,193.6047-6.557,291.7022-3.9685,82.8671,2.1766,163.1973,36.1762,245.9777,32.2846,39.7669-1.8618,78.9751-12.4718,118.7868-11.3519,6.2694.1805,13.7384,3.1931,18.0896,7.3447,3.6639,3.5041,5.1086,7.8072,1.7499,11.8674Z"/>
      <path class="cls-3" d="M1759.5513,172.378c-7.7551,11.4635-48.741-6.0828-77.3649-13.4953-32.465-8.386-63.9978-3.7509-127.0119,5.5463-94.3109,13.9123-162.5369,43.5046-176.4021,50.1643-56.9487,27.4595-67.4278,45.4589-126.7998,69.0048-37.3686,14.8202-90.3479,35.1774-160.5117,32.1905-87.6339-3.6996-149.0546-41.573-175.321-58.2251-8.6522-5.5041-60.0346-38.8008-99.4513-99.0482-30.9766-47.3762-22.9923-63.1728-20.553-67.0766,4.3327-7.0126,13.4874-12.6054,20.7521-10.6709.6486.1757,1.2694.4029,1.862.7072,10.8287,5.2792,9.498,28.797,18.0511,54.0894,13.4178,39.7598,44.1698,63.1554,81.2671,91.3612,13.2525,10.081,35.901,27.0732,69.413,40.8749,82.5267,33.9843,158.0049,18.5621,179.6716,13.3557,38.7005-9.3174,55.7211-22.0566,101.5674-46.2013,10.6713-5.6014,117.6617-61.2676,233.9124-93.5032,174.4687-48.3903,245.4293-9.5098,251.6924-.9373,2.5153,3.4451,4.1364,7.0736,5.1515,9.9524,1.1867,3.276,1.5646,5.5876,1.5646,5.5876.7544,4.6755,1.0236,12.5789-1.4894,16.3235Z"/>
      <path class="cls-2" d="M1285.6745,232.6422c-.189-.3801,16.5803-9.2598,31.9474-16.9833,18.5307-9.3134,54.3489-27.2047,96.118-42.7582,62.9413-23.4378,114.5736-32.3248,114.7267-31.7361.1411.5421-43.3069,9.3903-103.9816,31.6193-36.1838,13.2566-68.9411,27.772-79.1933,32.333-33.3233,14.8252-59.3826,27.9971-59.6172,27.5253Z"/>
      <path class="cls-3" d="M1553.111,204.318c-.1323.9635-.4997,1.9206-1.1268,2.8172-1.7725,2.5372-4.9925,3.5951-7.9714,4.4505-56.1199,15.9271-115.9251,17.2906-173.4185,7.3737-36.4998-6.2797-73.1194-17.4776-102.5101-40.0236-24.6581-18.9324-42.9974-44.8467-65.7077-66.05-22.7357-21.2301-53.0682-38.313-83.6815-32.9193-33.5565,5.9096-56.8117,36.3261-87.1668,51.8183-24.9948,12.7448-55.2246,14.8027-81.7299,5.5427-40.897-14.2757-69.9865-52.7349-111.1682-66.2082-38.6172-12.6415-84.3926.8646-109.9558,32.4431-4.3646,5.3908-8.3543,11.3939-14.3619,14.8286-5.3701,3.0873-13.06,3.2061-17.3051-.9948-.5097-.4592-.9379-1.0205-1.3387-1.6336-3.9282-6.1261-.1924-14.2017,4.1341-20.0905,8.3578-11.3757,18.1135-20.9521,30.4431-27.9382,11.9889-6.7931,25.1666-11.2344,38.4396-14.7568,16.205-4.3006,32.8279-7.3662,49.5924-7.591,22.9054-.3072,46.6818,4.7371,66.4454,16.6287,27.8582,16.75,47.1046,48.3897,78.7034,55.9925,27.2888,6.5634,55.2426-7.2467,78.2678-23.316,23.0243-16.0434,45.1218-35.3031,72.4224-41.8638,42.8854-10.2948,87.6704,14.2365,116.0593,47.9698,15.5965,18.5669,27.8651,40.1231,46.0169,56.2017,30.8729,27.3727,73.9455,35.0968,114.6441,41.7325,42.39,6.9196,87.0072,13.6685,127.663.9038,2.5848-.7882,5.1466-1.6818,7.7105-2.6535,5.8424-2.2375,11.9856-4.9362,18.1197-3.6879,5.0684,1.0351,9.4648,6.3381,8.7808,11.0242Z"/>
      <path class="cls-3" d="M1826.4809,248.6595c-5.2215,6.0979-12.6487,9.8057-19.8361,13.3638-51.7438,25.5697-106.9052,51.7993-164.3446,46.3545-32.4619-3.0521-64.8677-16.2207-96.7264-9.3466-22.2839,4.8487-41.4119,19.0435-57.8167,34.9114-28.1029,27.1653-50.6781,60.294-82.4209,83.1191-36.441,26.1934-81.7067,36.5244-125.9076,44.3762-9.8016,1.731-22.6176,1.911-26.67-7.173-1.3749-3.0983-1.1748-6.4129.0634-9.4624,1.9952-4.8315,6.6133-9.0386,11.7599-10.7205,8.3397-2.7142,17.3897-1.0418,26.1849-.5014,1.9054.1072,3.7862.1613,5.694.1901,42.1682.0899,80.6649-26.6717,110.5329-57.0281,25.8271-26.2114,48.0447-56.0039,76.1096-80.033,27.3952-23.4733,55.8204-36.407,92.5553-33.7543,26.2209,1.8789,51.955,8.8683,78.2128,9.4675,46.8208,1.0339,91.9302-18.3998,131.3775-43.6698,7.1915-4.6034,14.5227-9.5166,22.9346-11.1047,4.8627-.9058,10.2075-.3859,14.6187,1.6757,3.2509,1.5055,6.0075,3.8332,7.7197,7.0197,3.7959,7.0899,1.2064,16.2182-4.0412,22.3157Z"/>
      <path class="cls-1" d="M1314.1008,364.1073c-1.7879,2.1707-4.5641,3.2413-7.2049,4.1588-56.4386,19.7349-118.3779,15.3112-177.3379,5.4832-58.961-9.8024-117.4848-24.7946-177.2814-25.5488-102.0311-1.2641-206.0902,38.8522-304.011,10.1502-107.2797-31.455-174.5115-135.3796-265.4252-200.4296-67.8119-48.4938-150.8018-75.3961-234.1695-76.0736-4.0968-.0333-6.4419-4.8694-3.8047-8.0047.0086-.0102.0168-.0197.0246-.0287,2.6211-2.9571,34.0141-1.9885,44.291.6604,17.3356,4.4731,50.1838,9.2679,55.9483,11.0737,47.6531,14.9272,67.9989,22.0388,96.3853,36.7909,43.6105,22.6417,70.6199,46.9648,91.2465,64.2652,17.1543,14.4025,31.1148,31.0517,67.1514,66.1289,40.361,39.2544,43.6559,41.2415,57.0785,51.7719,16.1061,12.6732,44.5429,33.4518,87.4091,46.5293,32.6291,9.959,61.4703,11.6724,94.1329,11.3837,40.3771-.3538,45.3758-5.0865,118.8176-12.4364,42.3984-4.2696,69.9866-7.9007,95.2205-7.1481,20.7407.6233,32.1613.6763,93.9256,11.1866,84.0602,14.3155,76.3956,15.3143,107.7721,18.832,61.1895,6.8596,92.5816,6.9144,126.3177-5.2389,11.9675-4.3092,22.5028-9.7314,31.7636-15.3734,3.6639,3.5041,5.1086,7.8072,1.7499,11.8674Z"/>
      <path class="cls-1" d="M1553.111,204.318c-.1323.9635-.4997,1.9206-1.1268,2.8172-1.7725,2.5372-4.9925,3.5951-7.9714,4.4505-56.1199,15.9271-115.9251,17.2906-173.4185,7.3737-36.4998-6.2797-73.1194-17.4776-102.5101-40.0236-24.6581-18.9324-42.9974-44.8467-65.7077-66.05-22.7357-21.2301-53.0682-38.313-83.6815-32.9193-33.5565,5.9096-56.8117,36.3261-87.1668,51.8183-24.9948,12.7448-55.2246,14.8027-81.7299,5.5427-40.897-14.2757-69.9865-52.7349-111.1682-66.2082-38.6172-12.6415-84.3926.8646-109.9558,32.4431-4.3646,5.3908-8.3543,11.3939-14.3619,14.8286-5.3701,3.0873-13.06,3.2061-17.3051-.9948,3.2268-1.2928,6.5882-3.6273,11.3801-7.5157,12.8502-10.4539,26.3222-24.341,26.7797-24.7983,17.6189-18.0814,41.0321-23.1069,50.6077-25.1578,27.8579-5.9434,50.9357.6819,60.5124,4.0425,10.0678,3.5579,20.8361,10.9271,41.959,25.5223,42.5798,29.3833,43.7617,34.6462,60.5573,40.62,7.3757,2.6177,31.8682,10.9568,58.9153,3.2124,7.3812-2.1141,11.7376-4.4987,41.6174-24.3711,46.7786-31.0982,45.5076-31.4485,51.7664-33.6214,39.1372-13.5926,75.753,5.0046,78.2507,6.3314,9.6063,5.0609,17.6122,13.0303,33.625,28.9423,30.6528,30.478,33.1603,41.4522,54.5586,59.1929,18.232,15.1133,35.1124,22.6846,46.265,27.6071,33.0215,14.4932,60.3365,16.5083,95.269,19.1087,28.7242,2.1083,49.8668.573,92.1514-2.4713,18.8633-1.3654,29.7821-2.8552,42.4661-6.6208,3.4804-1.0242,6.6228-2.1101,9.4227-3.1015Z"/>
      <path class="cls-1" d="M1759.5513,172.378c-7.7551,11.4635-48.741-6.0828-77.3649-13.4953-32.465-8.386-63.9978-3.7509-127.0119,5.5463-94.3109,13.9123-162.5369,43.5046-176.4021,50.1643-56.9487,27.4595-67.4278,45.4589-126.7998,69.0048-37.3686,14.8202-90.3479,35.1774-160.5117,32.1905-87.6339-3.6996-149.0546-41.573-175.321-58.2251-8.6522-5.5041-60.0346-38.8008-99.4513-99.0482-30.9766-47.3762-22.9923-63.1728-20.553-67.0766,4.3327-7.0126,13.4874-12.6054,20.7521-10.6709.6486.1757,1.2694.4029,1.862.7072-1.8898.2596-4.2313.7673-6.6998,2.0558-1.2213.6446-6.5882,3.6273-8.4823,9.4814-1.0635,3.3421-.5715,6.2318-.2354,8.1764,3.5423,20.442,2.0463,17.9154,3.7641,23.6383,4.2229,14.0564,10.8791,23.5032,16.4888,31.1681,22.7918,31.0882,34.1883,46.606,53.4118,63.6043,4.1819,3.676,21.2705,18.5473,50.4811,35.5453,27.1793,15.8155,70.3684,40.3797,132.6047,49.0212,20.9887,2.905,62.271,6.525,111.8806-3.9426,39.0354-8.2358,67.8227-21.9431,87.0982-31.2708,26.8846-13.0041,31.5679-18.5689,59.5593-34.6002,26.397-15.1354,87.3342-49.4604,164.801-65.8453,13.9935-2.9434,8.055-.9968,71.2732-11.935,24.1989-4.1665,42.858-7.5248,69.5158-9.9207,39.2658-3.5234,50.904-.9396,58.2895,1.3382,10.2104,3.1436,15.729,6.7014,30.7528,9.7483,15.258,3.0799,26.1224,5.3011,36.4606.3699,4.2675-2.0212,7.3528-4.7558,9.7627-7.6408,1.1867,3.276,1.5646,5.5876,1.5646,5.5876.7544,4.6755,1.0236,12.5789-1.4894,16.3235Z"/>
      <path class="cls-3" d="M1755.2483,73.0103c-12.2838,14.3918-40.4784,6.5995-71.6379.9966,0,0-62.2423-11.1518-119.4692-8.5377-27.4875,1.248-76.1526,7.0629-119.8951,42.5885-8.8073,7.1455-30.4483,25.0849-45.5711,55.4473-11.5425,23.1453-8.3864,31.5763-21.8486,83.2684-9.5817,36.7705-14.3721,55.143-24.1028,73.4776-14.9812,28.1708-32.3832,44.1667-59.2653,68.8835-5.666,5.1963-49.4216,44.8005-82.14,45.2179-3.5826.0277-11.6875.0296-15.2017-5.0387-1.8817-2.7471-2.0131-6.3592-1.2286-9.9965.9062-4.2355,3.0157-8.4886,4.9293-11.3878,5.4421-8.3141,13.3917-12.0069,15.1943-12.87,22.9807-10.8943,71.7111-45.3091,96.2783-74.9815,16.3065-19.7139,23.2644-38.9128,30.3369-58.4483,12.3867-34.3105,7.503-44.4908,18.7073-81.3192,5.9216-19.5163,14.7013-48.4145,34.8535-73.665,23.6797-29.7242,53.0213-41.7946,83.3831-53.8883,84.2596-33.4704,117.8926-7.5342,239.7936-13.5414,10.0276-.4955,33.937-1.8726,40.6174,10.3722.7692,1.4337,1.3248,3.0186,1.5909,4.6731,1.1518,6.3082-1.1023,13.7726-5.3242,18.7493Z"/>
      <path class="cls-1" d="M1755.2483,73.0103c-12.2838,14.3918-40.4784,6.5995-71.6379.9966,0,0-62.2423-11.1518-119.4692-8.5377-27.4875,1.248-76.1526,7.0629-119.8951,42.5885-8.8073,7.1455-30.4483,25.0849-45.5711,55.4473-11.5425,23.1453-8.3864,31.5763-21.8486,83.2684-9.5817,36.7705-14.3721,55.143-24.1028,73.4776-14.9812,28.1708-32.3832,44.1667-59.2653,68.8835-5.666,5.1963-49.4216,44.8005-82.14,45.2179-3.5826.0277-11.6875.0296-15.2017-5.0387-1.8817-2.7471-2.0131-6.3592-1.2286-9.9965,1.8986.3422,4.0832.745,6.6065,1.1837,8.9733,1.6176,9.883,1.8008,11.7108,1.8796,9.7162.3321,17.3503-4.2066,21.929-7.055,37.2383-23.0071,49.8679-34.8792,49.8679-34.8792,33.5628-31.5572,50.3311-47.3361,59.6809-65.1586,7.3033-13.9342,11.4667-31.4095,19.8179-66.3069,8.6231-36.1706,7.237-42.5117,14.6572-65.0436,4.558-13.9341,12.2925-37.3984,27.7775-58.5478,28.5488-39.0221,70.7185-52.6058,94.3105-60.2145,13.9596-4.4868,64.4792-19.3206,123.0138-9.2429,26.0413,4.4882,52.4084,6.7376,78.4834,10.9654,14.3126,2.3205,26.5122,4.4759,40.4183-.8757,8.1434-3.1641,13.3675-7.5367,17.4107-11.7606,1.1518,6.3082-1.1023,13.7726-5.3242,18.7493Z"/>
      <path class="cls-1" d="M1826.4809,248.6595c-5.2215,6.0979-12.6487,9.8057-19.8361,13.3638-51.7438,25.5697-106.9052,51.7993-164.3446,46.3545-32.4619-3.0521-64.8677-16.2207-96.7264-9.3466-22.2839,4.8487-41.4119,19.0435-57.8167,34.9114-28.1029,27.1653-50.6781,60.294-82.4209,83.1191-36.441,26.1934-81.7067,36.5244-125.9076,44.3762-9.8016,1.731-22.6176,1.911-26.67-7.173-1.3749-3.0983-1.1748-6.4129.0634-9.4624,2.405,2.736,4.8155,7.0931,10.5962,9.717,6.8398,3.073,13.1381,1.3456,23.8236-1.118,29.2404-6.7401,21.0227-2.8198,37.5528-7.599,23.7278-6.8723,47.1391-13.6497,70.1678-28.9348,7.7296-5.1369,22.4537-20.7398,51.8762-51.9719,26.7254-28.3551,33.5566-36.7862,50.0973-49.199,15.4186-11.5828,26.4495-19.6836,43.6596-24.4694,20.8734-5.8043,39.3179-3.5219,57.5011-1.2466,22.7688,2.8254,21.0313,5.9649,40.1797,8.3203,32.5921,3.9711,59.1583-2.5061,74.0916-6.3116,2.3968-.6108-.5515.0885,47.5578-17.298,0,0,20.2901-7.3377,47.1904-22.6941,7.7609-4.4042,13.487-8.0563,16.0366-14.8854,2.4913-6.6211.7649-12.9455-.3507-17.7881,3.2509,1.5055,6.0075,3.8332,7.7197,7.0197,3.7959,7.0899,1.2064,16.2182-4.0412,22.3157Z"/>
      <path class="cls-3" d="M1172.4422,200.9409c-5.4089,2.6157-11.2405,4.4872-17.1006,5.521-18.8143,3.3015-38.0818-.3642-56.8544-3.9637-66.5359-12.7655-135.6081-24.6104-201.4562-8.597-89.9382,21.8554-165.581,93.8495-258.0738,97.2782-73.4924,2.747-142.5649-39.0593-216.1095-39.9478-57.2626-.6812-112.3744,23.8245-159.0304,57.0179-48.5236,34.4992-89.5511,78.3385-132.8717,119.1837-3.3862,3.1967-7.2291,5.9096-11.542,7.6939-11.1653,4.594-19.1722,1.2002-22.8461-4.6837-3.8753-6.1507-3.0194-14.9894,3.8997-20.1234,1.2557-.9312,2.5366-1.8355,3.7921-2.7666,13.9907-10.1073,28.5072-19.415,42.0987-30.1874,28.9499-22.9843,56.2828-47.9231,85.1819-70.9612,45.702-36.3842,97.5883-68.7211,155.6131-75.4432,95.2486-11.0622,189.0421,48.3976,283.8182,33.7659,78.2846-12.0995,141.5696-72.5794,218.809-90.1469,53.0812-12.093,120.199-5.0103,174.4943-1.1469,37.7543,2.6558,63.7595,4.764,101.5315,2.2694,2.0427-.1241,3.8915.1382,5.5222.7082,10.1976,3.5878,12.4721,19.0262,1.124,24.5296Z"/>
      <path class="cls-1" d="M1172.4422,200.9409c-5.4089,2.6157-11.2405,4.4872-17.1006,5.521-18.8143,3.3015-38.0818-.3642-56.8544-3.9637-66.5359-12.7655-135.6081-24.6104-201.4562-8.597-89.9382,21.8554-165.581,93.8495-258.0738,97.2782-73.4924,2.747-142.5649-39.0593-216.1095-39.9478-57.2626-.6812-112.3744,23.8245-159.0304,57.0179-48.5236,34.4992-89.5511,78.3385-132.8717,119.1837-3.3862,3.1967-7.2291,5.9096-11.542,7.6939-11.1653,4.594-19.1722,1.2002-22.8461-4.6837,4.431-2.2517,11.5815-3.6144,18.1768-5.6729,25.0111-7.8554,37.3342-24.5206,57.2497-46.0914,0,0,35.1905-38.1511,75.667-70.1108,23.6759-18.6914,67.8742-52.7921,131.4229-63.4073,37.4877-6.2413,68.2969-2.0863,82.8513.006,46.0599,6.581,54.1425,19.1538,108.9602,29.3859,28.0585,5.2522,52.6593,9.8297,84.7382,6.2041,32.6305-3.7144,55.4887-13.9845,95.7219-32.0422,43.8616-19.6789,44.6584-25.5646,82.7057-41.2541,26.6709-11.0233,51.7011-21.3617,86.3598-26.5078,44.5572-6.6129,83.4411-1.4151,119.9292,3.4526,24.1174,3.2044,36.1754,4.8326,46.1747,7.1333,16.8044,3.8565,26.4859,5.3901,45.796,8.4823.521.067,10.0741,1.5187,22.1822-.4076,8.9028-1.3905,12.9943-3.6519,15.8797-6.7064,1.3221-1.4259,4.2344-4.5057,4.3301-8.738.0746-3.5014-1.7945-5.7774-3.3846-7.7579,10.1976,3.5878,12.4721,19.0262,1.124,24.5296Z"/>
      <path class="cls-2" d="M1794.8883,229.8252c-.2625-.417-16.8401,12.0429-43.8479,24.6545-19.2278,8.9787-32.356,18.3863-64.7734,23.0292-14.806,2.1208-34.1068.4798-50.9221-2.0625-23.6826-3.5806-31.0417-5.5273-51.7438-6.0936-26.3177-.72-46.1758,3.8245-46.1532,4.0425.0197.1898,15.1971-2.3541,37.3983-1.9926,2.8874.0471,13.3749.265,30.2457,2.1496,25.4785,2.8462,27.415,5.2372,43.1536,6.8692,10.3397,1.0722,35.267,3.4181,63.8373-5.3235,10.8979-3.3344,18.4058-7.188,33.4218-14.8952,28.8605-14.813,49.6763-29.9131,49.3837-30.3776Z"/>
      <path class="cls-2" d="M1687.4483,283.8517c-.0853-.8549-26.8055,5.1669-62.2833-1.2815-10.6262-1.9313-10.4358-2.8727-21.8594-4.7214-10.8281-1.7523-28.3809-4.4633-50.5912-1.7124-12.3463,1.5291-25.8519,3.3331-40.7445,11.6151-12.6675,7.0446-21.3372,15.9947-20.9367,16.5331.424.5701,10.6057-8.8318,27.9643-16.3308,14.7217-6.3599,27.6098-8.3289,34.6691-9.3604,5.4928-.8025,14.8461-2.1207,27.0266-1.5236,9.362.4588,12.8467,1.6793,36.9109,6.0499,13.4856,2.4493,20.2284,3.6739,23.0315,3.9879,26.0084,2.9138,46.8881-2.499,46.8125-3.256Z"/>
      <path class="cls-2" d="M1502.0291,304.3456c-.1928-.259-19.9023,11.2542-39.7556,30.5695-16.5446,16.0962-16.0401,20.9267-34.4424,41.4646-23.8921,26.6648-44.6935,40.7891-44.1608,41.4404.4757.5815,17.2355-10.4569,34.9921-27.9786,5.7823-5.7058,5.3384-5.851,26.5301-30.1831,22.068-25.338,28.07-31.5193,35.542-38.1933,12.2379-10.931,21.4285-16.9396,21.2946-17.1196Z"/>
      <path class="cls-2" d="M1438.9811,350.3576c-.4653-.3373-11.0465,16.7144-28.96,34.6316-7.1465,7.148-19.9979,19.8314-39.7752,31.2513-28.7208,16.5844-55.2266,20.7917-66.4623,22.469-20.3288,3.0345-37.0973,2.2699-37.0871,3.0244.0086.6382,12.0175,1.3822,24.187.8667,17.7209-.7505,31.6961-3.9985,39.2197-6.0322,9.9811-2.6979,31.6158-8.7542,54.7758-25.1923,18.2374-12.9445,29.3118-26.5713,37.5495-36.857,9.9123-12.3764,16.9338-23.8849,16.5526-24.1614Z"/>
      <path class="cls-2" d="M1804.7717,241.8747c-.2944-.4444-17.0869,12.7073-44.5588,25.6572-11.552,5.4455-30.0162,14.0189-54.6041,19.2299-33.5712,7.1146-61.019,4.2436-61.0266,5.4044-.0049.7508,11.4823,1.5551,20.4972,1.6982,18.1262.2879,32.2282-2.0019,38.4549-3.1554,5.7247-1.0604,28.2297-5.5013,56.7534-19.85,26.6001-13.3809,44.7935-28.5167,44.484-28.9842Z"/>
      <path class="cls-2" d="M1523.173,276.1812c-.163-.3117-17.9641,5.2061-35.3505,19.6989-4.4397,3.701-12.4636,12.7651-28.5114,30.8932-5.0261,5.6778-14.392,16.2578-14.1574,16.4726.2382.2178,10.1309-10.4578,26.8752-27.3599,17.3874-17.5515,21.86-21.3224,26.546-24.8117,13.7068-10.2064,24.7289-14.6428,24.5981-14.8932Z"/>
      <path class="cls-2" d="M1586.0409,39.4952c-.016-.4406-30.9625-3.5122-69.8707,4.6382-11.6031,2.4307-41.6009,9.5642-75.0065,29.0434-15.258,8.8973-30.1368,17.7647-43.7213,35.059-12.4259,15.8194-18.6357,32.1551-18.0707,32.473.5782.3253,7.7617-16.4043,22.7-33.3625,15.4413-17.5294,31.5149-26.6148,47.0507-35.2191,9.7955-5.4249,33.596-17.7258,68.1278-25.533,39.1394-8.8491,68.8065-6.6673,68.7907-7.0989Z"/>
      <path class="cls-2" d="M1536.806,51.3771c10.0009-1.814,21.8728-3.4675,35.2924-4.3549,12.0421-.7962,37.4081-1.774,69.9907,3.0378,21.817,3.2221,18.9271,4.913,35.1038,6.6374,35.1353,3.745,60.9546-2.9341,61.1718-1.5638.1533.9673-12.6223,4.8754-27.8004,6.1905-15.184,1.3156-26.9688-.4662-45.2584-3.3493-14.1163-2.2252-13.9944-2.9806-27.8123-5.2336-6.4712-1.055-23.0517-3.7111-42.4744-4.5476-14.5818-.6282-34.4618-.3899-58.2132,3.1834Z"/>
      <path class="cls-2" d="M1607.1417,40.9551c-.0047-.168,12.0868-1.8245,27.4583-.2327,7.6899.7962,9.8527,1.7482,24.9308,4.6394,6.7295,1.2903,17.3876,3.3343,24.9408,4.2988,28.1858,3.5998,50.1975-3.0922,50.3608-2.131.1062.6251-9.2441,3.2055-19.4836,4.5543-5.4805.7218-18.098,1.9974-35.0272-.4116-7.3013-1.039-4.4042-1.1978-28.8904-6.2878-13.1064-2.7243-18.0847-3.541-24.095-4.0613-11.9204-1.0316-20.1906-.2292-20.1945-.3682Z"/>
      <path class="cls-2" d="M1539.1143,46.712c-.1036-.4769-23.6651,2.2561-52.2772,12.434-8.7696,3.1196-22.0875,7.9319-37.836,17.1977-23.4953,13.8239-39.2439,29.8199-38.7297,30.4711.4376.5539,12.5887-10.0784,34.9497-23.5466,7.6584-4.6127,21.6772-12.9903,39.465-20.4757,30.6271-12.8881,54.5325-15.6004,54.4282-16.0805Z"/>
      <path class="cls-2" d="M1393.8483,127.2747c-2.8547,1.3233-5.6867,8.1041-7.3801,11.0482-2.4251,4.2166-4.6844,8.5286-6.7714,12.9225-4.174,8.7875-7.659,17.9025-10.4033,27.236-5.1297,17.4468-7.6617,35.5339-11.4851,53.3125-4.9171,22.8643-11.9882,45.2648-21.0894,66.8084,17.6612-24.9596,23.8298-56.0222,29.4366-86.0796,2.7638-14.8175,5.5403-29.6706,9.7446-44.1613,2.1155-7.2919,4.5891-14.4882,7.6099-21.4576,2.9508-6.8076,7.3707-12.9618,10.3381-19.6291Z"/>
      <path class="cls-2" d="M1344.2291,301.252c-3.4086,6.535-8.777,15.9589-16.5337,26.464-5.5418,7.5054-21.6607,28.2364-57.0283,53.0909-31.8174,22.3596-57.4209,32.7418-56.7395,34.173.5038,1.0581,14.7702-4.0578,28.1859-10.6979,21.9623-10.87,35.8779-22.969,52.4907-37.6202,19.363-17.0766,31.4336-27.9279,41.5918-46.9708,3.9644-7.432,6.4897-13.9599,8.0331-18.439Z"/>
      <path class="cls-2" d="M1330.139,305.0236c-.3659-.2895-7.5377,9.0165-23.8012,27.1927-17.8702,19.9721-27.0544,30.1549-39.2538,39.7913-15.9177,12.5737-28.9282,18.7056-28.6841,19.1236.2603.4463,15.2513-6.2234,31.1275-18.1153,12.0203-9.0036,19.6261-17.3141,29.2799-27.9726,18.3082-20.2138,31.8505-39.6093,31.3317-40.0197Z"/>
      <path class="cls-2" d="M1317.6788,222.5662c-.389-.7264-31.3895,17.1219-70.5538,34.2866-33.6798,14.7607-66.6394,29.2061-101.2784,35.4484-85.5435,15.4161-159.427-23.1416-160.5784-19.1159-.6254,2.1866,21.9936,10.6888,35.8856,15.0145,3.6475,1.1358,20.3273,6.229,44.4102,9.1218,34.1971,4.108,60.644,1.0549,68.2001.0878,23.3262-2.9859,40.5501-8.3613,50.4601-11.5059,15.3681-4.8764,28.8085-10.8724,55.6893-22.8643,13.2555-5.9135,24.3848-10.8992,39.1092-18.4823,19.8255-10.2106,38.9622-21.4189,38.656-21.9907Z"/>
      <path class="cls-2" d="M1414.8551,181.5436c-.2048-.6643,49.1213-19.7053,114.8536-33.182,31.6431-6.4874,52.4959-8.694,86.8872-12.3328,22.9108-2.424,35.4251-3.0824,50.6942-1.8654,30.7168,2.4481,54.311,11.0281,54.1375,11.7891-.1629.7143-21.1714-5.8725-51.6997-7.6268-15.4225-.8863-28.5288-.2666-55.5753,2.6201-34.8695,3.7214-57.5232,6.1394-90.5586,12.5255-65.4859,12.6594-108.5479,28.6919-108.7388,28.0723Z"/>
      <path class="cls-2" d="M1558.3383,134.0961c-.0339-.1695,18.8016-5.4883,45.5262-8.9199,17.1027-2.1961,43.7726-5.4655,75.2488-1.9257,40.0405,4.5031,69.3506,17.9439,69.3012,18.1078-.0365.1212-16.488-5.8302-42.0514-11.1-26.9424-5.5539-44.4517-6.3196-51.476-6.5117-2.7139-.0743-10.6888-.2493-23.4997.4315-41.4149,2.2005-73.0053,10.1368-73.0491,9.9179Z"/>
      <path class="cls-2" d="M1309.6937,233.4193c-.4959-.8377-29.4842,18.2239-74.074,38.1069-31.314,13.9633-55.6554,24.5951-89.4924,28.7968-23.5765,2.9276-45.0951,1.9053-45.0942,2.7939.0007.728,14.4485,1.8607,29.3758,1.2721,10.4813-.4135,26.5313-1.8861,52.0502-8.9877,11.5711-3.2202,43.8715-12.8247,84.861-35.239,23.5647-12.8859,42.7798-26.0569,42.3736-26.7429Z"/>
      <path class="cls-2" d="M972.6258,268.1324c.4188-.9176-24.9581-10.6305-56.6449-31.2991-25.3655-16.5451-41.9614-31.7534-42.3219-31.3128-.3144.3845,12.3686,11.8804,27.7938,23.648,10.6416,8.1184,21.1804,16.0892,36.3022,24.2342,17.6503,9.5071,34.5312,15.474,34.8708,14.7297Z"/>
      <path class="cls-2" d="M816.1674,94.0592c-4.1899,11.9405,3.7978,28.5132,13.0404,44.5368,13.775,23.8808,27.7285,42.0187,28.1258,41.7311.3455-.2498-11.366-13.1262-22.1594-35.7621-3.9423-8.268-15.593-32.7017-14.7624-49.872.0691-1.4294.4337-7.1265-.6408-7.3502-1.1619-.2419-3.3692,6.0485-3.6036,6.7164Z"/>
      <path class="cls-2" d="M1159.6549,185.7909c-.0238-.444-22.3059,2.3402-55.2572.4552-30.0967-1.7218-36.3332-5.4642-70.9871-9.8869-25.9365-3.3101-54.2414-6.9222-89.0472-4.4389-40.8796,2.9168-71.696,12.8847-71.6492,13.1123.0374.1823,19.9711-5.2475,49.5201-8.4637,14.3924-1.5666,38.3903-3.4053,67.9134-1.7961,16.4913.8989,28.7481,2.5488,44.708,4.6972,30.3861,4.0902,33.7099,6.2705,51.0838,8.2911,41.0356,4.7721,73.7443-1.4313,73.7155-1.9702Z"/>
      <path class="cls-2" d="M842.7493,195.3382c-.069-.1411-17.9224,8.2717-36.5693,17.6175-22.7473,11.4008-26.5065,14.0816-41.2868,21.5741-32.4375,16.443-52.8955,26.8134-80.4687,32.211-25.7436,5.0392-46.1913,3.4931-46.1678,4.5534.0198.8932,14.5283,1.9339,29.3917.7182,18.5433-1.5167,32.4929-6.1879,39.6376-8.7055,37.9733-13.3803,56.2533-28.0134,114.8309-57.565,9.5662-4.8261,20.6871-10.2921,20.6324-10.4037Z"/>
      <path class="cls-2" d="M889.7584,183.7757c-.0605-.2092-18.7322,3.5767-41.6682,12.6114-14.901,5.8697-26.1156,11.7934-40.3263,19.2997-15.1387,7.9966-28.6309,15.8957-28.4718,16.1885.1521.2801,12.7157-6.5456,35.8577-18.0647,18.4473-9.1821,27.8711-13.8537,37.6827-17.7986,21.2883-8.5594,36.9815-12.0442,36.9259-12.2363Z"/>
      <path class="cls-2" d="M336.9105,246.7617c-.0649-.2119,19.707-9.1123,46.6735-13.2345,26.1666-4,47.0047-1.6509,63.1645.2837,13.3831,1.6022,20.1524,3.2769,52.378,10.7152,61.5558,14.2079,83.428,18.8461,83.3343,19.2793-.1207.5576-36.4231-6.8152-46.3792-8.8373-35.1851-7.1459-41.4734-9.0465-64.2423-13.1884-26.1293-4.753-39.5133-7.1355-55.1582-7.4277-21.6846-.4047-38.6748,2.2947-46.6569,3.7721-19.6207,3.6316-33.0608,8.8109-33.1138,8.6376Z"/>
      <path class="cls-2" d="M666.2934,274.6589c-.0481-.6087-20.8842,2.4852-47.35,1.1945-6.1575-.3005-34.7027-1.915-68.7184-11.6972-9.9321-2.8563-19.787-6.2527-38.6879-10.9607-12.0298-2.9965-25.0598-5.861-25.1632-5.4557-.1068.4188,13.683,3.961,40.8306,12.0452,19.3089,5.75,20.0703,6.2621,28.6562,8.4979,11.1833,2.9121,22.6501,5.8982,38.0095,7.8716,5.2345.6725,24.7083,2.9986,50.3077,1.1927,10.9737-.7743,22.1506-2.2426,22.1154-2.6882Z"/>
      <path class="cls-2" d="M361.5019,245.4236c-.0331-.1146-26.1689,4.1174-54.9761,17.3435-23.8245,10.9383-39.8605,23.6139-66.7666,44.8817-24.0284,18.9931-39.2315,33.7451-39.0845,33.914.2225.2557,35.2002-33.4476,82.1886-62.3411,12.0801-7.4282,28.8891-16.9584,51.0229-25.1302,15.4302-5.6971,27.6387-8.5888,27.6158-8.6679Z"/>
      <path class="cls-2" d="M454.4701,81.0887c.1621-.3078,18.2009,12.3343,47.4619,21.5714,27.1611,8.5742,51.4543,10.2572,63.8776,11.0463,15.6111.9917,15.0209-.2055,32.8527.4342,42.8471,1.537,75.7308,9.5059,75.677,9.8515-.0374.2402-16.0243-2.9165-42.4383-5.0582-15.6009-1.2649-29.0709-1.7082-37.1565-1.9649-19.7805-.6279-21.7834-.0606-31.5712-.5253-26.2082-1.2444-46.5512-6.959-53.1962-8.9484-33.225-9.9468-55.6885-26.0621-55.507-26.4067Z"/>
      <path class="cls-2" d="M692.5663,129.0354c.0579-.141,26.6427,5.9206,50.5639,26.3496,13.8524,11.8302,20.5348,23.1177,22.0229,25.6984,11.3345,19.6566,12.4069,38.9769,12.0899,39.0533-.2565.0619-1.5359-12.4487-9.1546-28.4823-7.9953-16.826-18.0885-27.2545-21.1238-30.2765-9.4478-9.4056-18.2076-14.4418-27.7306-19.9164-15.4566-8.886-26.7058-12.333-26.6676-12.4261Z"/>
      <path class="cls-2" d="M766.8156,207.7303c.3387-.1798-4.5601-13.1604-13.8196-26.3574-14.3074-20.3913-31.9009-31.1449-40.139-36.0668-21.112-12.6137-39.9506-16.4244-49.7296-18.3119-15.6806-3.0266-29.1508-3.2232-29.2051-2.7588-.06.5131,16.3197,1.2619,37.3927,7.0866,11.0689,3.0595,25.6247,7.1962,42.2131,17.3282,21.2351,12.9705,33.5668,28.2934,37.4052,33.3025,10.4074,13.5821,15.5488,25.9546,15.8823,25.7775Z"/>
      <path class="cls-2" d="M621.3205,122.2102c.0041-.2549-18.5256-.5445-44.9691-1.5506-34.9348-1.329-52.4023-1.9934-61.5356-3.5616-38.6983-6.6445-64.7228-23.4337-65.3502-22.0864-.4299.923,12.033,8.273,25.4351,13.776,15.595,6.4036,28.3079,8.6005,37.6878,10.1643,16.1017,2.6845,28.8653,2.9332,48.6267,3.318,2.2377.0437,8.3397.0556,20.5438.0802,25.8858.0517,39.558.079,39.5615-.1399Z"/>
      <path class="cls-2" d="M807.9069,330.6549c.4829-.4102-11.7818-10.5831-19.8682-29.4728-7.2975-17.0469-8.3491-34.551-8.5446-40.7838-.2409-7.6741.3043-14.5624.0359-14.5775-.3201-.0178-1.8714,9.7327-1.6107,20.4146.1643,6.7301.753,23.4077,10.0818,40.7004,8.1654,15.1359,19.4475,24.1086,19.9058,23.719Z"/>
      <path class="cls-2" d="M793.0575,322.2989c.302-.2128-6.507-8.0842-11.959-19.9098-3.1164-6.7595-5.2219-15.3017-9.3059-32.1099-3.2135-13.2253-4.308-19.1058-4.5666-19.0577-.3791.0705,1.0808,12.8802,4.7108,27.374,5.2085,20.7961,11.2433,30.5208,13.1973,33.5327,3.7023,5.706,7.6921,10.3339,7.9234,10.1707Z"/>
      <path class="cls-2" d="M896.7737,391.6972c.0845-.3473-8.6047-2.0104-20.4572-6.045-30.2001-10.2807-49.2434-25.171-49.5908-24.6167-.2628.4191,10.8432,8.5978,25.2838,16.0736,3.4189,1.7701,7.9286,4.0893,14.1342,6.545,16.0833,6.365,30.5217,8.4884,30.6301,8.0431Z"/>
      <path class="cls-2" d="M880.4924,376.8207c.0606-.1971-9.0947-2.3825-20.6711-7.5008-11.8459-5.2373-19.0201-10.3594-19.2347-10.0167-.1947.3107,5.5046,4.8496,13.0531,8.5599,4.1069,2.0187,7.3369,3.0918,13.1549,5.0251,7.1601,2.3792,13.6467,4.0991,13.6978,3.9324Z"/>
      <path class="cls-2" d="M699.6692,101.4475c-.5064-.4087,7.5796-16.145,24.5098-28.1103,9.05-6.3962,16.9253-9.0983,31.954-14.2551,9.0903-3.119,20.6913-7.0999,36.0809-9.5326,28.5972-4.5208,51.3447-.7042,51.3339-.3978-.0089.2547-15.7523-1.6934-38.9022.9261-5.2215.5907-18.6702,2.3023-35.7542,7.0699-16.3332,4.5582-27.3813,7.6413-39.3993,15.2344-20.1742,12.7461-29.296,29.4907-29.8229,29.0654Z"/>
      <path class="cls-2" d="M717.0632,92.4849c-.1455-.1784,12.2797-14.3045,32.818-25.0148,22.8036-11.8913,43.5404-13.2788,53.0843-13.8175,10.5475-.5954,36.3638-1.7555,63.487,11.291,7.5138,3.6142,15.8405,9.6694,32.494,21.7798,19.3046,14.0383,36.1711,27.9695,35.7525,28.5236-.5478.725-31.1444-20.8582-40.7652-27.6447-19.8007-13.9677-24.6999-17.9191-35.2937-22.2443-13.7613-5.6183-25.408-7.0812-33.019-7.9839-23.3067-2.7642-41.009.8878-45.0648,1.7719-4.2573.9281-17.9975,4.1513-34.1259,12.7006-18.433,9.771-29.2349,20.8008-29.3671,20.6384Z"/>
      <path class="cls-2" d="M976.4711,122.7157c.126-.7467-14.3467-.6916-30.2844-8.2036-4.9843-2.3491-8.4033-4.633-37.0119-29.1991-13.9529-11.9812-15.0081-13.0424-18.9852-15.7219-16.855-11.3559-32.0409-15.2977-32.1326-15.0769-.0909.2189,14.7306,4.3291,31.4997,16.3375,4.364,3.125,8.6946,6.9389,17.3559,14.5666,7.8861,6.945,14.0821,12.8552,24.5403,21.1672,4.3932,3.4915,7.3951,5.7035,11.5789,7.9424,1.3729.7346,7.192,3.7834,15.7497,5.952,8.7175,2.2092,17.5904,2.824,17.6897,2.2358Z"/>
      <path class="cls-2" d="M1090.1445,72.79c-.3151-.3972-17.6244,13.2969-42.5667,30.4889-25.5819,17.6329-33.804,21.4451-43.4012,23.9429-4.6231,1.2032-15.7175,3.9935-30.0094,2.9725-14.1288-1.0096-25.2934-5.3092-25.4372-4.8244-.1154.3889,6.9731,3.4883,15.445,5.4319,18.079,4.1476,33.5133.9785,40.1762-.7618,10.6812-2.7901,18.847-7.9163,35.1785-18.1691,15.4482-9.6983,26.9451-19.0894,37.6303-27.8175,5.9951-4.897,13.1905-11.0038,12.9844-11.2635Z"/>
      <path class="cls-2" d="M1050.5774,92.3675c.0231.0294,14.2713-14.7265,36.8122-26.0506,9.7571-4.9017,24.8225-12.2854,44.3662-13.0453,25.1303-.9772,44.3762,9.5137,44.3541,9.589-.0173.0585-12.081-5.0191-29.865-6.4866-12.8417-1.0597-22.4862.2727-25.2119.681-12.7935,1.9161-21.9828,5.7561-28.1835,8.396-10.5722,4.501-17.9625,9.2707-23.7781,13.0626-11.3776,7.4184-18.5097,13.8337-18.4939,13.854Z"/>
      <path class="cls-2" d="M1261.0351,152.7327c.2409-.2602-11.8033-10.794-29.0146-28.6277-29.153-30.207-25.5894-32.0965-38.3673-41.3442-3.8211-2.7653-29.2514-20.6645-62.8462-20.2239-11.9568.1568-23.1499,2.6134-23.1072,3.086.0442.4889,12.0725-1.455,27.2829-.0673,6.4402.5875,21.236,2.0676,37.7364,9.9529,13.8619,6.6243,22.6693,14.7786,33.7223,25.0123,7.7617,7.1862,7.8066,8.2822,18.4806,19.1813,18.7756,19.1716,35.8295,33.3366,36.113,33.0307Z"/>
      <path class="cls-2" d="M1285.2286,168.1781c.334-.3823-13.9085-10.793-30.5937-30.0375-16.3637-18.8736-15.247-23.3724-28.7268-37.1447-18.6156-19.0198-38.1204-28.1922-38.1949-28.0823-.057.0842,10.9906,6.0671,24.0323,18.0833,6.777,6.2442,12.0034,12.4743,22.18,24.68,15.1522,18.1736,14.3151,18.6576,21.7378,26.7133,14.8254,16.0895,29.2322,26.1692,29.5652,25.7878Z"/>
      <path class="cls-2" d="M1349.9306,199.4532c.1194-.5602-15.3007-2.4074-34.1249-9.5505-33.4175-12.6807-53.4572-32.9042-54.0636-32.1196-.4452.576,10.6924,11.0451,24.8716,20.0259,11.978,7.5865,22.8018,12.0052,30.1445,14.5508,17.5501,6.0845,33.0529,7.6542,33.1724,7.0934Z"/>
      <path class="cls-2" d="M1539.3454,198.5974c-.1831-.4904-12.1772,4.0804-22.8743,6.8439-11.6928,3.0208-22.1475,3.9626-37.6325,4.2023-39.2979.6083-72.6508-3.8998-72.7068-3.4572-.0733.5794,17.1459,4.0859,37.0122,5.4985,18.1033,1.2871,31.472.3424,43.3242-.5428,2.6772-.1999,30.3553-2.4018,48.5941-10.3555.6417-.2799,4.3863-1.9127,4.2831-2.1892Z"/>
      <path class="cls-2" d="M187.1137,60.4333c.137-1.2908,27.4619-1.6129,58.8581,4.7637,7.9993,1.6246,40.8389,8.6756,78.956,29.213,15.7516,8.487,30.4132,18.7917,59.7365,39.4018,12.5914,8.8498,28.8724,20.6402,28.5489,21.1122-.344.5017-19.1137-12.2846-40.858-25.8998-35.3256-22.1188-57.8836-36.2435-82.0384-46.5228-55.2083-23.4945-103.3846-20.3589-103.2031-22.0681Z"/>
      <path class="cls-2" d="M214.1992,73.1488c.0338-.2087,19.2858,1.8478,37.1776,5.674,52.2583,11.1758,88.9145,36.5962,88.7967,36.828-.081.1595-18.0473-10.608-47.0335-21.6443-25.0959-9.5548-44.9798-14.1817-51.2574-15.585-15.3638-3.4346-27.7105-5.1052-27.6834-5.2727Z"/>
      <path class="cls-2" d="M425.3845,167.4657c.375-.4475,19.9416,14.8322,39.9975,32.0983,26.1256,22.4916,48.0075,43.9857,47.57,44.4649-.2514.2755-14.6045-12.2489-43.3003-37.3087-29.7039-25.9402-44.55-38.9171-44.2672-39.2545Z"/>
      <path class="cls-2" d="M536.4215,281.6618c-.2663.3775,16.9527,13.7929,38.0782,27.6953,23.9483,15.7604,40.0064,26.3281,62.1787,34.5273,33.3469,12.3315,63.2965,12.9342,63.3151,12.8205.0111-.068-10.5497-1.2471-26.2038-4.8465-9.7838-2.2495-28.0144-6.5224-47.905-15.0625-13.1511-5.6464-26.9274-14.4614-53.9432-31.8605-22.7976-14.6827-35.2965-23.5902-35.52-23.2737Z"/>
      <path class="cls-2" d="M562.2051,287.7753c.7194-1.0073,30.1043,28.5882,78.9684,45.0704,37.8993,12.7839,74.9833,13.4516,92.7253,12.9,14.8947-.4632,33.6381-2.3293,51.7826-4.1361,28.5491-2.8425,46.2988-5.537,46.3553-5.1448.065.4512-23.3184,4.6859-50.6978,7.9185-17.2622,2.0383-31.5628,3.6877-50.4147,4.0047-15.9137.2676-30.864.5189-49.8876-2.4594-12.1022-1.8947-39.9943-7.3106-71.5974-24.2271-28.1033-15.0432-47.812-33.117-47.234-33.9263Z"/>
      <path class="cls-2" d="M935.462,333.0483c-.0103-.1969-19.2735-.3423-45.3349,2.2757-28.5644,2.8692-37.1826,6.2345-69.3659,10.7912-13.0167,1.843-32.5239,4.605-56.306,5.7959-45.5805,2.2823-79.4139-2.5808-79.4939-1.6493-.052.6052,14.23,2.6673,29.3034,3.7849,5.0873.3772,23.5969,1.6352,56.535-.4185,34.6052-2.1575,60.8994-6.4593,68.5109-7.7466,22.541-3.8124,22.8106-5.1345,42.4303-7.9858,30.8676-4.4858,53.7325-4.633,53.7213-4.8475Z"/>
      <path class="cls-2" d="M897.2402,328.1118c-.0005-.3431,27.4096-2.6982,62.8942.7875,20.5775,2.0215,28.8105,4.5277,65.5034,12.0275,49.2228,10.0611,73.8342,15.0915,95.0486,16.8917,45.2204,3.8374,79.7292-.8033,79.7898.251.0444.7742-18.5611,3.1952-39.2385,3.73-8.551.2211-33.4164.5329-73.4876-5.9521-15.683-2.5381-13.7814-2.8944-59.4253-12.4529-34.5104-7.2271-52.0237-10.8723-64.6691-12.4331-38.4653-4.7475-66.4149-2.5034-66.4154-2.8497Z"/>
      <path class="cls-2" d="M893.6256,341.1367c-.0299-.3625,30.3239-6.0148,69.666-3.4508,14.8374.9671,26.7153,2.8263,42.644,5.3201,25.6825,4.0205,46.1818,8.6638,46.1187,9.0003-.0658.3508-22.3913-4.3757-56.7862-8.6254-15.2459-1.8837-26.8128-3.3129-41.9142-4.0202-35.4733-1.6618-59.7016,2.0995-59.7283,1.7761Z"/>
      <path class="cls-2" d="M1101.9308,360.7741c.0931-.5692,29.9192,6.9777,71.7176,8.2028,49.3532,1.4464,85.5892-6.7953,85.7564-5.6301.1261.8797-20.536,5.514-43.9489,7.4305-4.5349.3711-23.2311,1.7912-52.0334-.4751-34.4693-2.7122-61.5804-8.9861-61.4917-9.528Z"/>
      <path class="cls-2" d="M1180.5967,364.5305c-.0299-.5128,22.0456-.5002,51.323-5.9394,22.4001-4.1614,38.8587-9.6272,39.0097-9.1075.1196.4119-10.1431,4.0819-21.3033,7.0596-4.2733,1.1402-19.588,5.0894-41.7,7.0478-14.305,1.2669-27.3064,1.333-27.3294.9395Z"/>
      <path class="cls-1" d="M191.9938,406.1907c-.2223-.3616,22.4585-19.4522,56.5495-33.4964,13.5583-5.5857,51.9711-19.8686,102.6179-16.8244,40.2188,2.4175,69.5527,14.6433,69.477,14.9587-.0693.2887-25.0874-8.0922-61.2566-10.2888-24.5098-1.4885-43.1254.5323-49.4845,1.3034-14.6455,1.7763-41.2498,6.2629-72.0011,19.411-27.9882,11.9667-45.7094,25.25-45.9022,24.9365Z"/>
      <path class="cls-1" d="M405.9107,373.0474c.2003-.7758,25.5008,8.1048,60.5114,12.4838,54.3634,6.7997,97.2072-1.6236,108.5584-4.036,37.4072-7.9504,64.5355-21.1323,65.0234-19.8676.3616.9375-14.591,8.0612-29.7123,13.382-4.0697,1.432-18.4862,6.3699-42.499,10.371-35.7146,5.9512-64.0353,5.0612-75.3224,4.4813-21.6612-1.1128-37.8312-4.0246-43.4179-5.0864-23.3012-4.4284-43.3192-11.0398-43.1415-11.7281Z"/>
      <path class="cls-1" d="M434.8979,370.0454c.1602-.7384,26.6684,7.5154,61.6146,9.7023,54.56,3.4144,97.1213-9.9975,97.432-8.4484.1867.9309-15.2468,5.4592-31.7009,8.4227-12.2782,2.2115-41.3016,6.4657-79.834,1.2822-26.6062-3.5792-47.6546-10.3003-47.5116-10.9587Z"/>
      <path class="cls-1" d="M680.9195,335.1836c-.2655-.5633,24.2413-12.7729,45.4124-22.7341,10.314-4.8528,34.1924-15.9265,34.4589-15.3766.2675.5515-23.2393,12.8129-47.7565,24.2011-13.7776,6.3995-31.889,14.3885-32.1147,13.9096Z"/>
      <path class="cls-1" d="M706.0268,329.2567c-.1967-.3606,8.4332-5.8567,18.3472-10.9811,20.0663-10.3722,38.3714-15.5923,38.5439-15.131.1008.2694-6.0269,2.38-19.8106,8.509-22.778,10.1285-36.8331,18.0564-37.0804,17.6031Z"/>
      <path class="cls-1" d="M794.0471,282.0028c-.2629-.7403,17.2043-10.0777,40.8631-14.2546,23.5707-4.1613,43.6255-1.4951,43.6297-.79.0035.5829-13.6953-.265-34.0909,2.599-30.463,4.2778-50.1264,13.2216-50.4019,12.4455Z"/>
      <path class="cls-1" d="M89.2557,237.6712c-.2351-.5101,29.0221-17.6178,70.6506-31.7265,45.4752-15.4124,81.5406-19.0537,94.6989-20.1216,28.3217-2.2985,51.325-.857,51.3339-.3978.0091.4697-24.0528.0981-55.9942,3.8444-3.6011.4223-27.9203,3.3374-54.624,9.5528-62.1097,14.4561-105.7785,39.4706-106.0652,38.8486Z"/>
      <path class="cls-1" d="M22.7238,277.3592c-.2688-.4357,13.2982-9.8454,27.6325-18.1304,8.8852-5.1355,16.2236-8.7747,49.9029-23.2444,42.4228-18.2261,51.6907-21.4364,59.7709-23.9832,18.6607-5.8821,34.5533-9.3516,34.6582-8.9768.116.4144-19.1622,5.2679-45.0091,14.6468-17.9901,6.5278-30.6412,12.1562-46.8501,19.3676-18.0034,8.0096-36.8872,16.4109-60.7433,29.6245-10.7967,5.9802-19.1551,11.0313-19.362,10.696Z"/>
      <path class="cls-1" d="M253.7661,194.239c23.0489-2.8458,42.5824-2.809,57.263-2.0172,28.3559,1.5293,50.3246,6.5066,70.4417,11.0645,13.1325,2.9753,26.3243,6.4718,26.2301,6.8936-.1101.4928-18.2683-3.6255-44.9507-8.1145-16.899-2.8431-31.3932-5.2818-48.0564-6.8396-14.886-1.3917-35.6478-2.4678-60.9277-.9868Z"/>
      <path class="cls-1" d="M318.9934,188.0179c.0787-.6051,18.7272.4619,40.2736,4.7399,16.8461,3.3448,31.7622,7.9177,31.6426,8.4134-.0863.3578-7.9939-1.4652-23.826-4.5224-32.2539-6.228-48.1631-8.0701-48.0902-8.631Z"/>
      <path class="cls-1" d="M658.1794,183.3749c-.2433-.2965-12.2692,11.0147-31.6055,22.8757-9.4214,5.7791-21.2824,13.0547-37.1828,18.197-26.6351,8.6138-49.1686,6.2488-49.1401,7.1106.0199.6022,11.0004,1.231,22.6733.1412,4.0356-.3769,15.0712-1.6048,29.0804-6.2389,19.2247-6.3592,32.3467-15.2622,41.0216-21.2406,15.0323-10.3598,25.3811-20.5668,25.153-20.845Z"/>
      <path class="cls-1" d="M639.5371,191.2783c-.1815-.2251-8.3476,7.4804-22.6134,15.5469-8.4403,4.7724-15.5806,7.7289-17.552,8.5316-10.267,4.1795-18.08,6.0063-17.9994,6.3023.0719.2638,6.3469-.9346,13.1311-3.0324,10.2367-3.1655,17.8953-7.2231,22.0159-9.5964,14.1008-8.1216,23.2134-17.5096,23.0179-17.752Z"/>
      <path class="cls-1" d="M570.5388,224.8424c-.0367-.1884-9.3822,2.1768-22.3528,3.5338-20.0158,2.0941-34.4449.2996-34.4604.6279-.0131.2773,10.2805,1.4959,22.6488.9929,6.352-.2582,11.1985-.8872,14.2745-1.2939,11.0899-1.4663,19.9256-3.6777,19.8899-3.8606Z"/>
    </g>
  </g>
</svg>