<?xml version="1.0" encoding="UTF-8"?>
<svg id="Capa_2" xmlns="http://www.w3.org/2000/svg" viewBox="0 0 1924.4467 514.5247">
  <defs>
    <style>
      .cls-1 {
        fill: #cc5656;
      }

      .cls-2 {
        fill: #a04040;
      }

      .cls-3 {
        fill: #ad4b4b;
      }

      .cls-4 {
        fill: #f48787;
      }

      .cls-5 {
        fill: #dd6262;
      }

      .cls-6 {
        fill: #ba5858;
      }

      .cls-7 {
        fill: #bf6666;
      }

      .cls-8 {
        fill: #ef7373;
      }

      .cls-9 {
        fill: #f9afaf;
      }
    </style>
  </defs>
  <g id="Capa_1-2" data-name="Capa_1">
    <g>
      <g>
        <path class="cls-8" d="M1896.1473,479.3831c-7.2313,7.8183-17.0796,12.8348-27.2639,15.9221-22.9015,6.9458-47.8166,4.7144-70.7013-2.3155-66.4737-20.4016-98.6701-66.5573-146.2688-112.3606-25.8376-24.8646-39.0923-37.4647-55.1483-45.9541-28.1531-14.882-54.7792-18.4221-84.0232-22.3145-15.1672-2.0134-38.3038-4.9663-68.2854-2.6341-29.6798,2.3321-31.2572,7.097-68.2686,13.137-26.5089,4.3119-36.6596,4.5635-77.4796,0-34.3444-3.8422-60.8866-17.1637-90.5999-17.0631-23.5728.0672-45.166,15.8886-65.9367,25.1332-24.1434,10.7545-49.008,21.1734-73.9061,30.2335-52.4137,19.0931-109.844,31.6596-164.8751,16.1234-32.2468-9.0934-60.7018-27.0959-90.298-42.2127-27.0455-13.825-54.8128-20.083-82.9156-30.5859-36.2065-13.5565-53.5211-24.462-69.1747-31.5254-55.1989-24.9485-105.935-2.1979-174.1868,12.2645-49.7963,10.5364-92.479,7.6003-130.4303,34.9984-37.1962,26.8779-33.975,42.0451-78.7883,77.0435-21.7943,17.0127-56.8265,43.7899-108.5352,55.1485-23.5057,5.1509-60.6519,13.3047-95.5327-.5872-5.889-2.3489-11.7111-5.3186-17.3985-9.0432-6.1071-4.0099-26.2237-17.1804-35.7535-40.6357-1.5098-3.7078-2.7514-7.6676-3.6406-11.8956-18.7576-89.7777,120.1287-139.3056,179.1864-170.2438,13.2881-6.9628,26.6767-13.7746,40.1325-20.4521,85.1807-42.2465,173.2976-78.5535,263.545-108.5354C686.1184,29.0511,886.2603-5.8132,1079.7916,28.4806c105.7839,18.7407,215.5275,46.2395,319.3649,73.7886,72.2787,19.1938,137.9467,44.4947,205.6787,76.2047,7.4324,3.473,14.7477,7.164,21.9618,11.0397,8.1206,4.3455,16.1236,8.9426,23.9755,13.741,41.525,25.3345,79.4093,56.5243,114.7433,89.9457,46.8434,44.3268,135.2285,67.6312,143.4998,141.5707,1.7785,15.8717-2.0468,32.8846-12.8684,44.6122Z"/>
        <path class="cls-9" d="M921.9152,15c52.8469-.0008,105.5957,4.2165,157.8765,13.4806,105.7839,18.7408,215.5273,46.2394,319.3647,73.7886,72.2788,19.1936,137.9465,44.4947,205.679,76.2047,7.4324,3.4731,14.7478,7.1639,21.9617,11.0397,8.1208,4.3453,16.1238,8.9425,23.9756,13.7408,41.5249,25.3344,79.4089,56.5244,114.7434,89.9458,46.843,44.3267,135.2285,67.6311,143.4998,141.5706,1.7786,15.8717-2.0469,32.8845-12.8682,44.6122-7.2317,7.8184-17.0798,12.8347-27.2644,15.9222-9.6318,2.9213-19.6233,4.2194-29.667,4.2194-13.8362,0-27.7744-2.4619-41.0339-6.5349-66.4739-20.4017-98.6702-66.5575-146.269-112.3608-25.8374-24.8644-39.0925-37.4647-55.1482-45.9542-28.1531-14.882-54.7793-18.422-84.0232-22.3145-11.2134-1.4885-26.7866-3.4905-46.2576-3.4908-6.8655,0-14.2122.2487-22.0278.8566-29.6797,2.3322-31.2571,7.0972-68.2688,13.1372-13.4419,2.1864-22.6782,3.3288-33.8396,3.3288-10.8499,0-23.5188-1.0794-43.6399-3.3288-34.2144-3.8277-60.687-17.0632-90.2642-17.0636-.1123,0-.2231.0002-.3357.0006-23.5728.067-45.166,15.8886-65.9368,25.1331-24.1433,10.7545-49.0078,21.1733-73.906,30.2333-35.9353,13.0905-74.2354,23.1142-112.4968,23.1142-17.5452,0-35.0769-2.1062-52.3784-6.9906-32.2466-9.0936-60.7017-27.0961-90.2979-42.2128-27.0459-13.825-54.813-20.0831-82.9155-30.5858-36.2065-13.5566-53.5212-24.4622-69.1748-31.5255-17.8054-8.0476-35.1504-11.132-52.7649-11.1325-36.9923-.0009-75.1863,13.5999-121.422,23.3972-49.7964,10.5364-92.4791,7.6003-130.4302,34.9984-37.1962,26.8778-33.9751,42.045-78.7883,77.0433-21.7942,17.0128-56.8264,43.79-108.5353,55.1486-13.8431,3.0335-32.418,7.1086-52.4742,7.1086-13.9993,0-28.7201-1.9852-43.0586-7.6958-5.8889-2.3489-11.7108-5.3186-17.3983-9.0433-6.1072-4.0097-26.2236-17.1803-35.7537-40.6356-1.5096-3.7078-2.7513-7.6675-3.6405-11.8955-18.7578-89.7778,120.1287-139.3056,179.1864-170.2439,13.2881-6.9628,26.6766-13.7744,40.1322-20.4519,85.1808-42.2467,173.2977-78.5536,263.5453-108.5356C635.7321,45.7937,779.1356,15.0021,921.9152,15M921.9308,0v15l-.0056-15c-68.7346.0008-141.5532,7.1714-216.4436,21.3122-67.0745,12.6653-137.9343,31.3317-210.6116,55.4811-90.5145,30.0706-179.8353,66.8555-265.48,109.3322-13.9076,6.9019-27.5089,13.8333-40.4294,20.6036-8.2642,4.3292-18.4875,9.1994-29.3112,14.3558-33.858,16.1294-75.9952,36.2034-108.4908,62.7192C10.348,317.1047-6.1733,353.9536,2.053,393.3272c1.0411,4.95,2.5306,9.817,4.4312,14.4844,7.473,18.3925,21.3948,34.3747,41.3744,47.4922l.0073.0047.0464.0305c6.2888,4.1183,13.0377,7.6267,20.0591,10.4272,14.6031,5.8159,30.9573,8.7633,48.6158,8.7633,21.6572,0,41.2964-4.3033,55.6365-7.4456l.0038-.0008.0522-.0114c56.0505-12.3125,94.1036-42.0169,114.547-57.9756,24.0677-18.7964,35.2197-32.4072,45.0588-44.4156,8.8828-10.8414,16.5542-20.2042,33.2848-32.2936,24.0338-17.3506,51.1464-21.1372,82.5403-25.5214,13.4724-1.8817,27.4038-3.8272,42.2097-6.96,14.3361-3.0378,27.7339-6.3892,40.6906-9.6306,28.8333-7.2128,53.735-13.4422,77.6261-13.4417,16.7571.0005,31.9963,3.2067,46.5874,9.8011,4.3987,1.985,9.0461,4.3497,14.4272,7.088,13.1714,6.7022,29.5637,15.0433,55.6655,24.8164,10.0669,3.7625,20.0645,6.9889,29.7329,10.1092,18.0068,5.8111,35.0154,11.3,51.6152,19.7853,7.0227,3.5872,14.1697,7.4422,21.0811,11.1706,22.5872,12.1839,45.9434,24.7828,71.9729,32.123,17.7524,5.0119,36.7461,7.5536,56.4495,7.5536,34.7837,0,73.2612-7.857,117.6311-24.0203,22.501-8.1878,46.9946-18.2058,74.8755-30.625,6.0005-2.6708,11.9768-5.8044,17.7563-8.835,14.6738-7.6942,28.5339-14.9617,42.1191-15.0003l.2935-.0005c14.3735,0,28.814,3.7814,44.1021,7.7844,13.7957,3.6125,28.061,7.3478,44.4939,9.1861,18.8972,2.1128,33.0676,3.4219,45.3079,3.4219,12.2607,0,22.1985-1.2383,36.2478-3.5233,17.2917-2.822,27.3921-5.4378,35.5083-7.5395,9.5645-2.4769,16.4751-4.2667,31.5273-5.4494,6.9124-.5375,13.9324-.8106,20.8525-.8106,18.9731.0003,34.2048,2.0222,44.2839,3.3603,28.5674,3.8025,53.2158,7.0833,78.9871,20.7061,13.9573,7.38,25.9536,18.6694,51.7571,43.5011,9.8076,9.4375,19.0784,19.025,28.0439,28.2967,34.9819,36.1767,68.0239,70.347,124.2251,87.5959,15.5413,4.7742,30.8291,7.1953,45.4353,7.1953,11.9304,0,23.377-1.6369,34.0205-4.8652,14.1436-4.2875,25.5571-11.0475,33.9221-20.0911,13.0901-14.1864,19.1956-34.7633,16.7634-56.4681-2.926-26.1572-14.697-49.0072-35.9849-69.8525-17.7788-17.4095-39.7749-31.1939-61.0469-44.5244-19.1523-12.0022-37.2429-23.3389-51.0647-36.4183-40.7378-38.532-79.0869-68.5775-117.2415-91.8556-8.1917-5.0061-16.5088-9.7728-24.7109-14.1617-7.593-4.0795-15.2341-7.9203-22.6885-11.4033-73.5044-34.4125-139.6577-58.9169-208.1792-77.1128-96.845-25.6942-210.666-54.5856-320.5977-74.0611-51.3408-9.0975-105.3337-13.7106-160.4775-13.7106h0Z"/>
      </g>
      <path class="cls-5" d="M1896.1473,479.3831c-7.2313,7.8183-17.0796,12.8348-27.2639,15.9221-22.9015,6.9458-47.8166,4.7144-70.7013-2.3155-66.4737-20.4016-98.6701-66.5573-146.2688-112.3606-25.8376-24.8646-39.0923-37.4647-55.1483-45.9541-28.1531-14.882-54.7792-18.4221-84.0232-22.3145-15.1672-2.0134-38.3038-4.9663-68.2854-2.6341-29.6798,2.3321-31.2572,7.097-68.2686,13.137-26.5089,4.3119-36.6596,4.5635-77.4796,0-34.3444-3.8422-60.8866-17.1637-90.5999-17.0631-23.5728.0672-45.166,15.8886-65.9367,25.1332-24.1434,10.7545-49.008,21.1734-73.9061,30.2335-52.4137,19.0931-109.844,31.6596-164.8751,16.1234-32.2468-9.0934-60.7018-27.0959-90.298-42.2127-27.0455-13.825-54.8128-20.083-82.9156-30.5859-36.2065-13.5565-53.5211-24.462-69.1747-31.5254-55.1989-24.9485-105.935-2.1979-174.1868,12.2645-49.7963,10.5364-92.479,7.6003-130.4303,34.9984-37.1962,26.8779-33.975,42.0451-78.7883,77.0435-21.7943,17.0127-56.8265,43.7899-108.5352,55.1485-23.5057,5.1509-60.6519,13.3047-95.5327-.5872-5.889-2.3489-11.7111-5.3186-17.3985-9.0432-6.1071-4.0099-26.2237-17.1804-35.7535-40.6357,17.3316,7.2313,42.9176,16.8449,77.7819,15.2509,5.8722-.2685,88.3012-5.1003,137.4265-59.5275,12.0631-13.372,22.5492-30.2168,48.1353-49.0247,16.5766-12.1806,22.2641-12.5329,37.6494-25.3848,24.9317-20.838,25.8714-33.1864,41.1391-45.518,21.4084-17.298,39.713-9.2949,85.7847-14.0095,63.6379-6.5098,62.3628-25.2337,133.0645-34.1259,39.9477-5.0333,62.346-7.8521,90.1637,1.7449,28.7905,9.9324,32.834,22.6332,72.4295,34.7971,22.0962,6.7782,28.8913,5.3018,54.4941,14.4456,22.7172,8.1037,29.2269,13.5062,48.5715,21.6601,4.0605,1.7113,36.3073,15.0664,72.8827,19.6971,18.6065,2.3489,77.9496,7.4493,135.8999-22.3312,25.4855-13.0866,30.8207-22.7171,63.0172-35.4514,13.7245-5.4192,35.1833-13.892,61.7255-15.7543,41.2735-2.8689,57.6654,12.9021,104.5927,22.3312,29.9816,6.0233,53.5713,4.3287,92.7975,3.4898,49.2597-1.0402,49.7127-5.4864,84.9124-4.8152,26.1231.5033,61.4572,1.4597,103.7202,15.771,35.0654,11.8452,63.9566,21.6266,87.9825,48.5716,21.1401,23.7238,22.8679,43.186,56.0212,73.537,21.4252,19.5965,31.8941,21.7273,39.3942,19.2608,9.1942-3.0535,16.3919-13.875,15.7541-23.6398-.8221-12.5665-14.3955-20.1165-28.0188-28.8914,0,0-3.9597-2.5502-62.1449-49.0078-26.8108-21.4084-45.2496-61.3731-48.7563-95.7172,8.1206,4.3455,16.1236,8.9426,23.9755,13.741,41.525,25.3345,79.4093,56.5243,114.7433,89.9457,46.8434,44.3268,135.2285,67.6312,143.4998,141.5707,1.7785,15.8717-2.0468,32.8846-12.8684,44.6122Z"/>
      <path class="cls-6" d="M1085.1774,181.3427c-8.9593,13.1706-13.1873,16.6939-46.6756,34.9313-34.8474,18.9756-47.7998,20.6366-63.7219,25.7203-19.496,6.2078-88.788,28.2705-147.6107-7.8352-8.2381-5.0501-40.8036-25.0492-50.7695-54.6117-1.9129-5.6876-2.9865-11.7108-2.9027-18.0696,0-.1007,0-.2013.0168-.302.8725-44.5617,58.7558-72.4297,74.896-80.1978,46.4575-22.3647,90.4992-18.489,139.7085-10.3519,6.9962,1.1409,14.0932,2.3824,21.3245,3.6407,14.0934,2.4496,27.1297,5.889,38.6056,10.4022,24.2102,9.5131,41.4578,23.8244,46.9274,43.8235,5.2349,19.0931-4.228,44.696-9.7982,52.85Z"/>
      <path class="cls-4" d="M838.4888,41.8722c-14.4446-13.14-40.6517-8.7599-78.7824,1.313-44.5289,11.7631-36.1076,2.4991-94.5392,15.1-53.6649,11.5729-95.2406,26.8213-131.3042,40.0478-54.6619,20.0476-50.4662,22.724-78.126,29.5435-21.0918,5.2001-42.892,8.4171-70.2479,23.6348-10.8402,6.0303-32.8522,18.2752-30.8564,28.887,1.9981,10.6232,26.9849,13.916,31.513,14.4435,19.3725,2.2566,35.5755-2.8525,65.652-15.7566,39.7112-17.0378,36.1988-18.7431,57.7739-26.9173,13.6815-5.1836,43.9405-16.3756,82.7216-17.726,20.0858-.6994,17.6517,2.1049,55.8043,2.626,30.0249.4101,45.3446.524,60.3999-3.9391,10.7837-3.1968,23.1645-9.7906,47.9262-22.9782,22.045-11.7407,22.5939-13.5821,34.7956-18.3826,14.445-5.6832,21.3974-6.1403,34.7956-13.787,10.7843-6.1547,18.8213-10.8957,21.0087-19.6956,2.0968-8.4359-2.3256-10.7644-8.5349-16.413Z"/>
      <path class="cls-4" d="M336.9068,198.7807c-3.3586-5.7163-12.8758-5.883-17.7262-5.9087-17.8094-.0944-30.525,8.6811-42.0173,15.7565-4.8531,2.9878,13.3776-8.4049-57.7739,28.887-42.8859,22.4773-42.1851,22.7776-53.1781,27.5739-27.4726,11.9865-29.0942,8.909-53.1783,20.3522-27.9332,13.272-41.2485,24.7751-50.5522,36.1086-6.8975,8.4024-17.4166,21.2165-13.1304,30.2,4.2661,8.9412,21.2395,9.9823,32.1696,7.8783,10.5039-2.0219,18.7441-8.5972,34.7956-21.6653,15.0846-12.2808,15.9919-15.0947,25.6043-22.3217,8.5652-6.4396,17.0647-11.1375,39.3913-20.3522,26.5798-10.9701,33.6338-12.195,67.6216-24.9478,5.1222-1.922,26.4743-10.0171,51.865-23.6348,7.2545-3.8908,17.9036-9.8762,26.9175-21.6652,3.3529-4.3851,13.9226-18.2085,9.1913-26.2609Z"/>
      <path class="cls-1" d="M1896.1473,479.3831c-7.2313,7.8183-17.0796,12.8348-27.2639,15.9221-22.9015,6.9458-47.8166,4.7144-70.7013-2.3155-66.4737-20.4016-98.6701-66.5573-146.2688-112.3606-25.8376-24.8646-39.0923-37.4647-55.1483-45.9541-28.1531-14.882-54.7792-18.4221-84.0232-22.3145-15.1672-2.0134-38.3038-4.9663-68.2854-2.6341-29.6798,2.3321-31.2572,7.097-68.2686,13.137-26.5089,4.3119-36.6596,4.5635-77.4796,0-34.3444-3.8422-60.8866-17.1637-90.5999-17.0631-23.5728.0672-45.166,15.8886-65.9367,25.1332-24.1434,10.7545-49.008,21.1734-73.9061,30.2335-52.4137,19.0931-109.844,31.6596-164.8751,16.1234-32.2468-9.0934-60.7018-27.0959-90.298-42.2127-27.0455-13.825-54.8128-20.083-82.9156-30.5859-36.2065-13.5565-53.5211-24.462-69.1747-31.5254-55.1989-24.9485-105.935-2.1979-174.1868,12.2645-49.7963,10.5364-92.479,7.6003-130.4303,34.9984-37.1962,26.8779-33.975,42.0451-78.7883,77.0435-21.7943,17.0127-56.8265,43.7899-108.5352,55.1485-23.5057,5.1509-60.6519,13.3047-95.5327-.5872,21.2407-4.748,79.7628,1.243,132.7303-27.8664,32.6159-17.9185,66.0192-45.7705,95.1956-80.7521,10.5197-12.6169,20.2151-22.2743,44.6434-43.3304,25.2672-21.7943,32.4364-33.1011,36.7652-34.7956,22.113-8.6741,39.0908.8178,64.9956-1.313,45.669-3.7414,39.2-6.1998,97.8217-17.7261,27.4988-5.4192,52.6335-18.1054,86.0043-15.7565,21.4252,1.5099,41.2317,11.9545,78.126,32.8261,17.4655,9.8988,29.5864,9.5341,47.4884,16.413,26.4754,10.1505,37.3488,2.5378,60.8376,11.3797,22.4487,8.456,22.0986,23.4327,45.9565,38.5159,33.2368,20.989,73.7696,28.0831,84.9101,29.3246,50.6858,5.6205,99.8829-16.4093,117.2984-25.3855,33.0857-17.063,45.6749-20.6111,71.342-48.1449,24.0724-25.8232,38.3249-22.9607,56.6797-22.7594,20.0326.2181,28.0379,18.3141,61.0565,22.9782,48.6555,6.8956,92.964,9.3912,140.4955-1.313,26.8108-6.04,38.1699-12.0085,65.6521-13.7869,21.0226-1.359,41.9843,5.6993,62.3695,8.5348,25.1666,3.4898,41.0864,7.2677,59.7434,13.4587,39.243,13.0196,48.0143,31.0294,64.3391,44.9717,12.1975,10.4022,6.3612,7.7157,53.5065,59.7434,19.865,21.9119,41.4266,32.9443,61.0565,38.0782,6.3756,1.6778,48.1617,8.3298,60.7282-2.6261,13.523-11.8114-11.2972-57.477-16.4145-72.2245-12.4994-36.022-50.6184-41.6257-84.6941-64.9803-32.9513-22.5829-57.7493-58.7893-71.3895-92.0429,41.525,25.3345,79.4093,56.5243,114.7433,89.9457,46.8434,44.3268,135.2285,67.6312,143.4998,141.5707,1.7785,15.8717-2.0468,32.8846-12.8684,44.6122Z"/>
      <path class="cls-3" d="M1085.1774,181.3427c-8.9593,13.1706-13.1873,16.6939-46.6756,34.9313-34.8474,18.9756-47.7998,20.6366-63.7219,25.7203-19.496,6.2078-88.788,28.2705-147.6107-7.8352-9.8319-6.0233-54.2258-33.2703-53.6723-72.6813,0-.1007,0-.2013.0168-.302,11.4423,7.9862,27.3812,18.0864,49.4442,26.0055,20.368,7.3319,43.9912,15.8214,70.0304,8.7579,10.4021-2.8187,16.2911-6.8118,31.5085-9.6304,18.355-3.4059,23.17,1.7784,42.0116-.8725,6.5602-.9228,20.2675-2.9864,35.0152-11.3921,10.2512-5.8219,25.4853-14.5128,30.6362-31.5087,4.9997-16.4757-2.2985-31.5925-4.3792-35.8876-10.2006-21.1232-29.8307-29.8645-39.6625-36.0219,6.9962,1.1409,14.0932,2.3824,21.3245,3.6407,43.7901,7.634,77.463,24.7305,85.533,54.2257,5.2349,19.0931-4.228,44.696-9.7982,52.85Z"/>
      <path class="cls-2" d="M1085.1774,181.3427c-8.9593,13.1706-13.1873,16.6939-46.6756,34.9313-34.8474,18.9756-47.7998,20.6366-63.7219,25.7203-19.496,6.2078-88.788,28.2705-147.6107-7.8352-8.2381-5.0501-40.8036-25.0492-50.7695-54.6117,4.8822,5.3521,11.9959,13.2713,24.3446,21.8615,6.7949,4.7313,28.0356,19.177,57.1114,22.9688,5.8386.7718,14.8315.6208,32.834.3356,16.9793-.2685,31.5423-1.0738,43.9745-1.9631,34.881-2.5167,52.3299-3.775,63.3528-7.2312,30.4015-9.513,47.3638-26.2739,50.8871-29.8644,12.9356-13.1873,17.818-25.0828,19.0427-28.2369,2.1644-5.5702,5.5869-14.6471,4.916-26.5928-.8389-15.0161-7.634-25.67-10.8216-30.5188-4.5637-6.946-9.5133-11.9122-13.9928-15.6369,24.2102,9.5131,41.4578,23.8244,46.9274,43.8235,5.2349,19.0931-4.228,44.696-9.7982,52.85Z"/>
      <path class="cls-7" d="M918.5844,69.9385c-5.088,0-10.9567.3424-18.7107,1.8055-14.819,2.7961-22.2283,4.1941-29.5436,6.5652-10.5396,3.4162-16.8142,6.9002-26.2607,12.1457-13.4255,7.4548-15.5164,10.655-15.4283,13.4587.0995,3.1679,2.9902,6.1069,5.9087,7.2217,4.3818,1.6736,8.6596-.8288,16.0847-4.9239,13.2428-7.3037,19.8642-10.9555,23.3066-12.1457,9.7537-3.3721,18.4797-2.7808,25.6043-2.2978,15.5645,1.055,21.3495,5.7968,27.2456,1.6413,3.8618-2.7218,6.0025-8.0139,5.2521-12.8022-.9323-5.9487-6.2988-9.4642-13.4587-10.6685Z"/>
      <path class="cls-7" d="M822.4041,112.9953c-.3781-.2992-1.8687-1.3246-7.003.5471-2.8462,1.0376-6.8215,2.9688-11.708,7.3312-2.8853,2.5759-1.953,2.3076-5.5804,5.6898-4.8701,4.5412-6.9055,5.3556-7.6594,8.2065-.0707.2675-.9722,3.8969,1.2036,6.4558,2.1314,2.5066,5.7518,2.2646,6.8934,2.1884,4.6084-.308,7.8259-3.4795,9.9573-5.5804,3.1866-3.1408,2.6232-4.1879,6.3463-7.7688,2.7747-2.6688,3.2966-2.2883,5.2523-4.5957,1.3851-1.6343,4.0503-4.868,3.7201-8.863-.0817-.9901-.2198-2.6592-1.4224-3.6109Z"/>
      <path class="cls-4" d="M895.1076,40.6163c1.595-3.3779,3.2291-11.5045,35.5053-10.0715,21.625.9601,35.6879-.5973,45.4171-.1677,29.8717,1.319,37.9013,3.7273,59.7434,6.243,32.0178,3.6877,65.4632,11.3078,76.4448,16.6325,3.4896,1.6921,12.0058,5.8215,12.4143,12.3285.4348,6.9263-8.5805,12.3425-11.7514,14.2475-11.8415,7.1143-24.691,6.4904-32.3447,5.6791-20.3086-2.1528-26.6805-8.0259-55.2569-18.1592-23.9873-8.506-35.981-12.7591-53.1163-13.6184-16.2858-.8167-30.1778-2.1804-36.3345-2.8383-2.2921-.2449-4.6002-.2294-6.8901.0349-14.0765,1.6248-22.5711,2.1044-27.4125.6663-7.3595-2.1862-8.963-5.5881-6.4186-10.9767Z"/>
    </g>
  </g>
</svg>