<?xml version="1.0" encoding="UTF-8"?>
<svg id="Capa_2" xmlns="http://www.w3.org/2000/svg" viewBox="0 0 1924.4467 514.5251">
  <defs>
    <style>
      .cls-1 {
        fill: #ce936b;
      }

      .cls-2 {
        fill: #e8b39e;
      }

      .cls-3 {
        fill: #d19988;
      }

      .cls-4 {
        fill: #eac3b5;
      }

      .cls-5 {
        fill: #b7794f;
      }

      .cls-6 {
        fill: #a86d45;
      }

      .cls-7 {
        fill: #d8a28f;
      }

      .cls-8 {
        fill: #c48458;
      }

      .cls-9 {
        fill: #f9d9cf;
      }
    </style>
  </defs>
  <g id="Capa_1-2" data-name="Capa_1">
    <g>
      <g>
        <path class="cls-2" d="M1896.1474,479.3834c-7.2313,7.8183-17.0796,12.8348-27.2639,15.9221-22.9015,6.9458-47.8166,4.7144-70.7013-2.3155-66.4737-20.4016-98.6701-66.5573-146.2688-112.3606-25.8376-24.8646-39.0923-37.4647-55.1483-45.9541-28.1531-14.882-54.7792-18.4221-84.0232-22.3145-15.1672-2.0134-38.3038-4.9663-68.2854-2.6341-29.6798,2.3321-31.2572,7.097-68.2686,13.137-26.5089,4.3119-36.6596,4.5635-77.4796,0-34.3444-3.8422-60.8866-17.1637-90.5999-17.0631-23.5728.0672-45.166,15.8886-65.9367,25.1332-24.1434,10.7545-49.008,21.1734-73.9061,30.2335-52.4137,19.0931-109.844,31.6596-164.8751,16.1234-32.2468-9.0934-60.7018-27.0959-90.298-42.2127-27.0455-13.825-54.8128-20.083-82.9156-30.5859-36.2065-13.5565-53.5211-24.462-69.1747-31.5254-55.1989-24.9485-105.935-2.1979-174.1868,12.2645-49.7963,10.5364-92.479,7.6003-130.4303,34.9984-37.1962,26.8779-33.975,42.0451-78.7883,77.0435-21.7943,17.0127-56.8265,43.7899-108.5352,55.1485-23.5057,5.1509-60.6519,13.3047-95.5327-.5872-5.889-2.3489-11.7111-5.3186-17.3985-9.0432-6.1071-4.0099-26.2237-17.1804-35.7535-40.6357-1.5098-3.7078-2.7514-7.6676-3.6406-11.8956-18.7576-89.7777,120.1287-139.3056,179.1864-170.2438,13.2881-6.9628,26.6767-13.7746,40.1325-20.4521,85.1807-42.2465,173.2976-78.5535,263.545-108.5354C686.1184,29.0514,886.2604-5.8129,1079.7917,28.4809c105.7839,18.7407,215.5275,46.2395,319.3649,73.7886,72.2787,19.1938,137.9467,44.4947,205.6787,76.2047,7.4324,3.473,14.7477,7.164,21.9618,11.0397,8.1206,4.3455,16.1236,8.9426,23.9755,13.741,41.525,25.3345,79.4093,56.5243,114.7433,89.9457,46.8434,44.3268,135.2285,67.6312,143.4998,141.5707,1.7785,15.8717-2.0468,32.8846-12.8684,44.6122Z"/>
        <path class="cls-9" d="M921.9148,15.0002c52.8468-.0007,105.5961,4.2166,157.8768,13.4807,105.7839,18.7407,215.5275,46.2395,319.365,73.7886,72.2786,19.1936,137.9467,44.4946,205.6786,76.2043,7.4325,3.4731,14.7478,7.1643,21.962,11.04,8.1205,4.3455,16.1235,8.9424,23.9755,13.741,41.525,25.3345,79.4092,56.5242,114.7434,89.9456,46.8433,44.3267,135.2283,67.6313,143.4997,141.5708,1.7786,15.8716-2.0467,32.8843-12.8683,44.6123-7.2314,7.8179-17.0797,12.8345-27.2639,15.9219-9.6321,2.9214-19.624,4.2197-29.6677,4.2197-13.8362,0-27.774-2.4619-41.0336-6.5352-66.4736-20.4019-98.67-66.5571-146.2686-112.3608-25.8378-24.8643-39.0925-37.4644-55.1483-45.9541-28.1533-14.8818-54.7794-18.4219-84.0233-22.3145-11.2141-1.4888-26.7853-3.4907-46.2587-3.4907-6.864,0-14.2128.2485-22.0266.8564-29.6801,2.3325-31.2572,7.0972-68.2687,13.1372-13.4407,2.1865-22.6798,3.3291-33.8395,3.3291-10.8506,0-23.5167-1.0796-43.6403-3.3291-34.2145-3.8276-60.6868-17.063-90.2642-17.0635-.1124,0-.2234,0-.3358.0005-23.5728.0669-45.1658,15.8887-65.9366,25.1333-24.1433,10.7544-49.0081,21.1733-73.9061,30.2334-35.9352,13.0903-74.235,23.1138-112.4965,23.1138-17.5452,0-35.0771-2.106-52.3785-6.9907-32.2469-9.0933-60.7017-27.0957-90.2981-42.2124-27.0455-13.8252-54.8127-20.083-82.9155-30.5859-36.2065-13.5566-53.521-24.4622-69.1748-31.5254-17.8054-8.0476-35.1506-11.1321-52.7651-11.1326-36.9922-.001-75.1858,13.5996-121.4216,23.397-49.7961,10.5364-92.479,7.6003-130.4302,34.9983-37.1963,26.8779-33.9751,42.0454-78.7883,77.0435-21.7944,17.0127-56.8267,43.79-108.5354,55.1484-13.843,3.0337-32.4175,7.1089-52.4739,7.1089-13.9993,0-28.7205-1.9854-43.0588-7.6958-5.8889-2.3491-11.7109-5.3188-17.3984-9.0435-6.1072-4.0098-26.2236-17.1802-35.7534-40.6357-1.51-3.7075-2.7517-7.6675-3.6409-11.8955-18.7576-89.7773,120.1289-139.3054,179.1865-170.2437,13.2881-6.9629,26.6768-13.7747,40.1326-20.4521,85.1807-42.2463,173.2976-78.5532,263.5449-108.5354C635.732,45.7939,779.1353,15.0022,921.9148,15.0002M921.9253,0v15l-.0048-15c-68.7306.0012-141.5492,7.1719-216.4392,21.3125-67.0745,12.665-137.9343,31.3318-210.6113,55.4812-90.5139,30.0706-179.8345,66.8552-265.4797,109.332-13.9089,6.9023-27.5105,13.8337-40.4299,20.6038-8.2637,4.3289-18.4871,9.1992-29.3105,14.3557-33.8579,16.1294-75.9951,36.2031-108.491,62.719C10.348,317.1047-6.1735,353.9539,2.0531,393.3274c1.0413,4.9517,2.531,9.8188,4.4319,14.4858,7.4719,18.3906,21.3936,34.373,41.3733,47.4907l.0073.0044.0466.0308c6.2883,4.1182,13.0369,7.6265,20.0586,10.4272,14.6035,5.8164,30.9578,8.7637,48.6167,8.7637,21.6619,0,41.3037-4.3047,55.6458-7.4478,56.0964-12.3223,94.1497-42.0273,114.5938-57.9854,24.0676-18.7964,35.2192-32.4072,45.0586-44.4155,8.8826-10.8418,16.554-20.2046,33.2849-32.2939,24.0339-17.3506,51.1465-21.1372,82.54-25.5215,13.4727-1.8818,27.4038-3.8271,42.2097-6.96,14.3362-3.0381,27.7339-6.3892,40.6904-9.6306,28.8335-7.2129,53.7349-13.4421,77.6257-13.4414,16.7576.0005,31.9968,3.2068,46.5879,9.801,4.3989,1.9851,9.0466,4.3501,14.4285,7.0886,13.1711,6.7019,29.563,15.0432,55.6643,24.8157,10.0669,3.7627,20.0642,6.9888,29.7322,10.1094,18.0073,5.811,35.016,11.2998,51.6157,19.7852,7.0233,3.5874,14.1702,7.4429,21.0822,11.1709,22.5869,12.1841,45.9431,24.7827,71.9723,32.1226,17.7531,5.0122,36.7469,7.5537,56.4497,7.5537,34.7831,0,73.2603-7.8569,117.6305-24.02,22.502-8.188,46.9954-18.2061,74.8756-30.625,6.0009-2.6714,11.9774-5.8047,17.7572-8.8354,14.6733-7.6938,28.5331-14.9614,42.1183-15l.2933-.0005c14.3739,0,28.8145,3.7812,44.1028,7.7847,13.7953,3.6118,28.0605,7.3472,44.4937,9.1855,18.8989,2.1128,33.0697,3.4224,45.3081,3.4224,12.2614,0,22.1989-1.2383,36.2477-3.5239,17.2911-2.8218,27.3917-5.4375,35.5078-7.5391,9.5645-2.4771,16.475-4.2666,31.5278-5.4497,6.9108-.5371,13.9302-.8105,20.8513-.8105,18.9697.0005,34.2039,2.0225,44.2848,3.3608,28.5671,3.8022,53.2158,7.083,78.9872,20.7061,13.9569,7.3799,25.9534,18.6694,51.7572,43.5015,9.807,9.437,19.0773,19.0239,28.0422,28.2949,34.9825,36.1772,68.0248,70.3481,124.2264,87.5972,15.5414,4.7739,30.8289,7.1953,45.4348,7.1953,11.9302,0,23.3766-1.6372,34.0214-4.8652,14.1439-4.2881,25.5575-11.0479,33.9219-20.0913,13.09-14.186,19.1956-34.7632,16.7634-56.4678-2.9261-26.1572-14.697-49.0073-35.9847-69.853-17.7789-17.4092-39.7753-31.1938-61.0472-44.5244-19.1525-12.0024-37.2427-23.3394-51.0645-36.4182-40.7367-38.5315-79.0858-68.5767-117.2411-91.8555-8.1884-5.0042-16.5055-9.7708-24.7108-14.1614-7.5969-4.0815-15.238-7.9224-22.689-11.4038-73.5042-34.4121-139.6575-58.9167-208.1788-77.1125-96.8447-25.6938-210.6655-54.5852-320.598-74.061-51.3419-9.0977-105.3367-13.7109-160.483-13.7109h0Z"/>
      </g>
      <path class="cls-7" d="M1896.1474,479.3834c-7.2313,7.8183-17.0796,12.8348-27.2639,15.9221-22.9015,6.9458-47.8166,4.7144-70.7013-2.3155-66.4737-20.4016-98.6701-66.5573-146.2688-112.3606-25.8376-24.8646-39.0923-37.4647-55.1483-45.9541-28.1531-14.882-54.7792-18.4221-84.0232-22.3145-15.1672-2.0134-38.3038-4.9663-68.2854-2.6341-29.6798,2.3321-31.2572,7.097-68.2686,13.137-26.5089,4.3119-36.6596,4.5635-77.4796,0-34.3444-3.8422-60.8866-17.1637-90.5999-17.0631-23.5728.0672-45.166,15.8886-65.9367,25.1332-24.1434,10.7545-49.008,21.1734-73.9061,30.2335-52.4137,19.0931-109.844,31.6596-164.8751,16.1234-32.2468-9.0934-60.7018-27.0959-90.298-42.2127-27.0455-13.825-54.8128-20.083-82.9156-30.5859-36.2065-13.5565-53.5211-24.462-69.1747-31.5254-55.1989-24.9485-105.935-2.1979-174.1868,12.2645-49.7963,10.5364-92.479,7.6003-130.4303,34.9984-37.1962,26.8779-33.975,42.0451-78.7883,77.0435-21.7943,17.0127-56.8265,43.7899-108.5352,55.1485-23.5057,5.1509-60.6519,13.3047-95.5327-.5872-5.889-2.3489-11.7111-5.3186-17.3985-9.0432-6.1071-4.0099-26.2237-17.1804-35.7535-40.6357,17.3316,7.2313,42.9176,16.8449,77.7819,15.2509,5.8722-.2685,88.3012-5.1003,137.4265-59.5275,12.0631-13.372,22.5492-30.2168,48.1353-49.0247,16.5766-12.1806,22.2641-12.5329,37.6494-25.3848,24.9317-20.838,25.8714-33.1864,41.1391-45.518,21.4084-17.298,39.713-9.2949,85.7847-14.0095,63.6379-6.5098,62.3628-25.2337,133.0645-34.1259,39.9477-5.0333,62.346-7.8521,90.1637,1.7449,28.7905,9.9324,32.834,22.6332,72.4295,34.7971,22.0962,6.7782,28.8913,5.3018,54.4941,14.4456,22.7172,8.1037,29.2269,13.5062,48.5715,21.6601,4.0605,1.7113,36.3073,15.0664,72.8827,19.6971,18.6065,2.3489,77.9496,7.4493,135.8999-22.3312,25.4855-13.0866,30.8207-22.7171,63.0172-35.4514,13.7245-5.4192,35.1833-13.892,61.7255-15.7543,41.2735-2.8689,57.6654,12.9021,104.5927,22.3312,29.9816,6.0233,53.5713,4.3287,92.7975,3.4898,49.2597-1.0402,49.7127-5.4864,84.9124-4.8152,26.1231.5033,61.4572,1.4597,103.7202,15.771,35.0654,11.8452,63.9566,21.6266,87.9825,48.5716,21.1401,23.7238,22.8679,43.186,56.0212,73.537,21.4252,19.5965,31.8941,21.7273,39.3942,19.2608,9.1942-3.0535,16.3919-13.875,15.7541-23.6398-.8221-12.5665-14.3955-20.1165-28.0188-28.8914,0,0-3.9597-2.5502-62.1449-49.0078-26.8108-21.4084-45.2496-61.3731-48.7563-95.7172,8.1206,4.3455,16.1236,8.9426,23.9755,13.741,41.525,25.3345,79.4093,56.5243,114.7433,89.9457,46.8434,44.3268,135.2285,67.6312,143.4998,141.5707,1.7785,15.8717-2.0468,32.8846-12.8684,44.6122Z"/>
      <path class="cls-8" d="M1085.1775,181.3431c-8.9593,13.1706-13.1873,16.6939-46.6756,34.9313-34.8474,18.9756-47.7998,20.6366-63.7219,25.7203-19.496,6.2078-88.788,28.2705-147.6107-7.8352-8.2381-5.0501-40.8036-25.0492-50.7695-54.6117-1.9129-5.6876-2.9865-11.7108-2.9027-18.0696,0-.1007,0-.2013.0168-.302.8725-44.5617,58.7558-72.4297,74.896-80.1978,46.4575-22.3647,90.4992-18.489,139.7085-10.3519,6.9962,1.1409,14.0932,2.3824,21.3245,3.6407,14.0934,2.4496,27.1297,5.889,38.6056,10.4022,24.2102,9.5131,41.4578,23.8244,46.9274,43.8235,5.2349,19.0931-4.228,44.696-9.7982,52.85Z"/>
      <path class="cls-4" d="M838.4889,41.8725c-14.4446-13.14-40.6517-8.7599-78.7824,1.313-44.5289,11.7631-36.1076,2.4991-94.5392,15.1-53.6649,11.5729-95.2406,26.8213-131.3042,40.0478-54.6619,20.0476-50.4662,22.724-78.126,29.5435-21.0918,5.2001-42.892,8.4171-70.2479,23.6348-10.8402,6.0303-32.8522,18.2752-30.8564,28.887,1.9981,10.6232,26.9849,13.916,31.513,14.4435,19.3725,2.2566,35.5755-2.8525,65.652-15.7566,39.7112-17.0378,36.1988-18.7431,57.7739-26.9173,13.6815-5.1836,43.9405-16.3756,82.7216-17.726,20.0858-.6994,17.6517,2.1049,55.8043,2.626,30.0249.4101,45.3446.524,60.3999-3.9391,10.7837-3.1968,23.1645-9.7906,47.9262-22.9782,22.045-11.7407,22.5939-13.5821,34.7956-18.3826,14.445-5.6832,21.3974-6.1403,34.7956-13.787,10.7843-6.1547,18.8213-10.8957,21.0087-19.6956,2.0968-8.4359-2.3256-10.7644-8.5349-16.413Z"/>
      <path class="cls-4" d="M336.9069,198.781c-3.3586-5.7163-12.8758-5.883-17.7262-5.9087-17.8094-.0944-30.525,8.6811-42.0173,15.7565-4.8531,2.9878,13.3776-8.4049-57.7739,28.887-42.8859,22.4773-42.1851,22.7776-53.1781,27.5739-27.4726,11.9865-29.0942,8.909-53.1783,20.3522-27.9332,13.272-41.2485,24.7751-50.5522,36.1086-6.8975,8.4024-17.4166,21.2165-13.1304,30.2,4.2661,8.9412,21.2395,9.9823,32.1696,7.8783,10.5039-2.0219,18.7441-8.5972,34.7956-21.6653,15.0846-12.2808,15.9919-15.0947,25.6043-22.3217,8.5652-6.4396,17.0647-11.1375,39.3913-20.3522,26.5798-10.9701,33.6338-12.195,67.6216-24.9478,5.1222-1.922,26.4743-10.0171,51.865-23.6348,7.2545-3.8908,17.9036-9.8762,26.9175-21.6652,3.3529-4.3851,13.9226-18.2085,9.1913-26.2609Z"/>
      <path class="cls-3" d="M1896.1474,479.3834c-7.2313,7.8183-17.0796,12.8348-27.2639,15.9221-22.9015,6.9458-47.8166,4.7144-70.7013-2.3155-66.4737-20.4016-98.6701-66.5573-146.2688-112.3606-25.8376-24.8646-39.0923-37.4647-55.1483-45.9541-28.1531-14.882-54.7792-18.4221-84.0232-22.3145-15.1672-2.0134-38.3038-4.9663-68.2854-2.6341-29.6798,2.3321-31.2572,7.097-68.2686,13.137-26.5089,4.3119-36.6596,4.5635-77.4796,0-34.3444-3.8422-60.8866-17.1637-90.5999-17.0631-23.5728.0672-45.166,15.8886-65.9367,25.1332-24.1434,10.7545-49.008,21.1734-73.9061,30.2335-52.4137,19.0931-109.844,31.6596-164.8751,16.1234-32.2468-9.0934-60.7018-27.0959-90.298-42.2127-27.0455-13.825-54.8128-20.083-82.9156-30.5859-36.2065-13.5565-53.5211-24.462-69.1747-31.5254-55.1989-24.9485-105.935-2.1979-174.1868,12.2645-49.7963,10.5364-92.479,7.6003-130.4303,34.9984-37.1962,26.8779-33.975,42.0451-78.7883,77.0435-21.7943,17.0127-56.8265,43.7899-108.5352,55.1485-23.5057,5.1509-60.6519,13.3047-95.5327-.5872,21.2407-4.748,79.7628,1.243,132.7303-27.8664,32.6159-17.9185,66.0192-45.7705,95.1956-80.7521,10.5197-12.6169,20.2151-22.2743,44.6434-43.3304,25.2672-21.7943,32.4364-33.1011,36.7652-34.7956,22.113-8.6741,39.0908.8178,64.9956-1.313,45.669-3.7414,39.2-6.1998,97.8217-17.7261,27.4988-5.4192,52.6335-18.1054,86.0043-15.7565,21.4252,1.5099,41.2317,11.9545,78.126,32.8261,17.4655,9.8988,29.5864,9.5341,47.4884,16.413,26.4754,10.1505,37.3488,2.5378,60.8376,11.3797,22.4487,8.456,22.0986,23.4327,45.9565,38.5159,33.2368,20.989,73.7696,28.0831,84.9101,29.3246,50.6858,5.6205,99.8829-16.4093,117.2984-25.3855,33.0857-17.063,45.6749-20.6111,71.342-48.1449,24.0724-25.8232,38.3249-22.9607,56.6797-22.7594,20.0326.2181,28.0379,18.3141,61.0565,22.9782,48.6555,6.8956,92.964,9.3912,140.4955-1.313,26.8108-6.04,38.1699-12.0085,65.6521-13.7869,21.0226-1.359,41.9843,5.6993,62.3695,8.5348,25.1666,3.4898,41.0864,7.2677,59.7434,13.4587,39.243,13.0196,48.0143,31.0294,64.3391,44.9717,12.1975,10.4022,6.3612,7.7157,53.5065,59.7434,19.865,21.9119,41.4266,32.9443,61.0565,38.0782,6.3756,1.6778,48.1617,8.3298,60.7282-2.6261,13.523-11.8114-11.2972-57.477-16.4145-72.2245-12.4994-36.022-50.6184-41.6257-84.6941-64.9803-32.9513-22.5829-57.7493-58.7893-71.3895-92.0429,41.525,25.3345,79.4093,56.5243,114.7433,89.9457,46.8434,44.3268,135.2285,67.6312,143.4998,141.5707,1.7785,15.8717-2.0468,32.8846-12.8684,44.6122Z"/>
      <path class="cls-5" d="M1085.1775,181.3431c-8.9593,13.1706-13.1873,16.6939-46.6756,34.9313-34.8474,18.9756-47.7998,20.6366-63.7219,25.7203-19.496,6.2078-88.788,28.2705-147.6107-7.8352-9.8319-6.0233-54.2258-33.2703-53.6723-72.6813,0-.1007,0-.2013.0168-.302,11.4423,7.9862,27.3812,18.0864,49.4442,26.0055,20.368,7.3319,43.9912,15.8214,70.0304,8.7579,10.4021-2.8187,16.2911-6.8118,31.5085-9.6304,18.355-3.4059,23.17,1.7784,42.0116-.8725,6.5602-.9228,20.2675-2.9864,35.0152-11.3921,10.2512-5.8219,25.4853-14.5128,30.6362-31.5087,4.9997-16.4757-2.2985-31.5925-4.3792-35.8876-10.2006-21.1232-29.8307-29.8645-39.6625-36.0219,6.9962,1.1409,14.0932,2.3824,21.3245,3.6407,43.7901,7.634,77.463,24.7305,85.533,54.2257,5.2349,19.0931-4.228,44.696-9.7982,52.85Z"/>
      <path class="cls-6" d="M1085.1775,181.3431c-8.9593,13.1706-13.1873,16.6939-46.6756,34.9313-34.8474,18.9756-47.7998,20.6366-63.7219,25.7203-19.496,6.2078-88.788,28.2705-147.6107-7.8352-8.2381-5.0501-40.8036-25.0492-50.7695-54.6117,4.8822,5.3521,11.9959,13.2713,24.3446,21.8615,6.7949,4.7313,28.0356,19.177,57.1114,22.9688,5.8386.7718,14.8315.6208,32.834.3356,16.9793-.2685,31.5423-1.0738,43.9745-1.9631,34.881-2.5167,52.3299-3.775,63.3528-7.2312,30.4015-9.513,47.3638-26.2739,50.8871-29.8644,12.9356-13.1873,17.818-25.0828,19.0427-28.2369,2.1644-5.5702,5.5869-14.6471,4.916-26.5928-.8389-15.0161-7.634-25.67-10.8216-30.5188-4.5637-6.946-9.5133-11.9122-13.9928-15.6369,24.2102,9.5131,41.4578,23.8244,46.9274,43.8235,5.2349,19.0931-4.228,44.696-9.7982,52.85Z"/>
      <path class="cls-1" d="M918.5845,69.9388c-5.088,0-10.9567.3424-18.7107,1.8055-14.819,2.7961-22.2283,4.1941-29.5436,6.5652-10.5396,3.4162-16.8142,6.9002-26.2607,12.1457-13.4255,7.4548-15.5164,10.655-15.4283,13.4587.0995,3.1679,2.9902,6.1069,5.9087,7.2217,4.3818,1.6736,8.6596-.8288,16.0847-4.9239,13.2428-7.3037,19.8642-10.9555,23.3066-12.1457,9.7537-3.3721,18.4797-2.7808,25.6043-2.2978,15.5645,1.055,21.3495,5.7968,27.2456,1.6413,3.8618-2.7218,6.0025-8.0139,5.2521-12.8022-.9323-5.9487-6.2988-9.4642-13.4587-10.6685Z"/>
      <path class="cls-1" d="M822.4042,112.9956c-.3781-.2992-1.8687-1.3246-7.003.5471-2.8462,1.0376-6.8215,2.9688-11.708,7.3312-2.8853,2.5759-1.953,2.3076-5.5804,5.6898-4.8701,4.5412-6.9055,5.3556-7.6594,8.2065-.0707.2675-.9722,3.8969,1.2036,6.4558,2.1314,2.5066,5.7518,2.2646,6.8934,2.1884,4.6084-.308,7.8259-3.4795,9.9573-5.5804,3.1866-3.1408,2.6232-4.1879,6.3463-7.7688,2.7747-2.6688,3.2966-2.2883,5.2523-4.5957,1.3851-1.6343,4.0503-4.868,3.7201-8.863-.0817-.9901-.2198-2.6592-1.4224-3.6109Z"/>
      <path class="cls-4" d="M895.1077,40.6166c1.595-3.3779,3.2291-11.5045,35.5053-10.0715,21.625.9601,35.6879-.5973,45.4171-.1677,29.8717,1.319,37.9013,3.7273,59.7434,6.243,32.0178,3.6877,65.4632,11.3078,76.4448,16.6325,3.4896,1.6921,12.0058,5.8215,12.4143,12.3285.4348,6.9263-8.5805,12.3425-11.7514,14.2475-11.8415,7.1143-24.691,6.4904-32.3447,5.6791-20.3086-2.1528-26.6805-8.0259-55.2569-18.1592-23.9873-8.506-35.981-12.7591-53.1163-13.6184-16.2858-.8167-30.1778-2.1804-36.3345-2.8383-2.2921-.2449-4.6002-.2294-6.8901.0349-14.0765,1.6248-22.5711,2.1044-27.4125.6663-7.3595-2.1862-8.963-5.5881-6.4186-10.9767Z"/>
    </g>
  </g>
</svg>