<?xml version="1.0" encoding="UTF-8"?>
<svg id="Capa_2" xmlns="http://www.w3.org/2000/svg" viewBox="0 0 612.7446 1067.5524">
  <defs>
    <style>
      .cls-1 {
        fill: #cc5656;
      }

      .cls-2 {
        fill: #a04040;
      }

      .cls-3 {
        fill: #ad4b4b;
      }

      .cls-4 {
        fill: #f48787;
      }

      .cls-5 {
        fill: #dd6262;
      }

      .cls-6 {
        fill: #ba5858;
      }

      .cls-7 {
        fill: #bf6666;
      }

      .cls-8 {
        fill: #ef7373;
      }

      .cls-9 {
        fill: #f9afaf;
      }
    </style>
  </defs>
  <g id="Capa_1-2" data-name="Capa_1">
    <g>
      <g>
        <path class="cls-8" d="M571.9063,152.9582c-23.16,38.09-10.2848,65.3448-3.4048,110.6548,3.22,21.23,7.61,42.49,11.1699,63.07,5.52,31.86,8.76,63.9,10.49,96.06,5.8301,108.71-5.75,218.8-5.73,328.11.01,50,2.4,100.61-8.28,149.46-10.6699,48.8601-36.5898,96.9501-80.1099,121.5901-33.08,18.74-72.36,22.0699-110.22,25.47-54.35,4.88-109.13,10.75-163.3199,4.41-54.2-6.34-108.69-26.17-146.42-65.5699-11.24-11.7401-20.68-24.8901-28.55-38.9801-14.05-25.1901-23.05-53.42-28.23-82.16-1.28-7.06-2.32-14.16-3.15-21.24-6.1-52.06-1.79-104.68-.09-157.06,4.0719-125.4627-4.9061-251.991,15.5948-376.4373,10.9381-66.3972,39.5068-132.3405,5.7575-197.3928-7.4915-14.4399-17.6364-27.7498-21.9725-43.4288-4.336-15.679-.8022-35.3215,13.4553-43.1545,12.0162-6.6016,27.7422-2.3393,37.9562,6.8064,10.214,9.1457,15.9876,22.175,20.6913,35.0531,9.0066,24.6592,15.2166,50.5925,16.1333,76.9055.9479,27.21-2.4042,54.2264.6141,81.4683.88,8.0099,3.73,18.02,11.74,18.96,7.21.84,12.42-6.68,15.08-13.43,17.72-44.99-5.14-97.65.54-145.13,1.64-13.76,6.22-29.7,19.29-34.32,18.64-6.58,34.98,15.93,37.15,35.58,4.81,43.53-21.65,87.8-9.71,129.94,3.08,10.9,13.34,22.87,23.63,18.14,5.28-2.44,7.87-8.41,9.41-14.02,12.29-44.78-13.1-91.6-9.94-137.94.93-13.63,6.42-29.34,19.58-33,18.45-5.14,32.81,17.55,33.92,36.67,2.33,39.85-21.31,77.59-20.1,117.4901.48,15.8199,9.14,34.91,24.97,34.66,16.11-.25,23.92-19.81,25.58-35.84,2.62-25.31.35-51.13-6.65-75.59-4.69-16.41-11.56-32.77-10.51-49.8,1.05-17.03,13.61-35.06,30.67-34.65,14.98.36,26.44,14.91,28.92,29.68,2.48,14.78-1.7,29.75-5.21,44.32-9.52,39.49-13.69,83.73,7.38,118.46,2.34,3.86,5.29,7.79,9.62,9.08,11.06,3.29,18.09-11.61,19.53-23.06,5.11-40.63,3.94-82.04-3.44-122.32-3.43-18.7-4.38-44.34,13.79-49.92,19.33-5.93,32.87,19.19,35.94,39.17,5.59,36.3101,4.9,73.57-2.03,109.65-2.4,12.5-5.5,25.65-1.37,37.69,4.14,12.04,19.08,21.29,29.87,14.54,6.97-4.37,9.3701-13.25,10.77-21.36,6-34.78,4.01-70.91-5.78-104.82-5.02-17.36-12.12-34.69-11.2-52.74.91-18.05,13.19-37.29,31.22-38.4,19.96-1.22,34.5,19.52,38.62,39.08,9.84,46.62-14.66,92.95-21.15,140.15-1.28,9.3-1.33,20.12,5.6,26.44,8.23,7.51,22.31,3.98,29.67-4.38,7.3601-8.36,9.76-19.85,11.89-30.79,7.9601-40.8101,1.6692-81.4496,9.6291-122.2596,3.21-16.49,15.0603-76.4157,48.5217-68.8696,22.682,5.1152,21.4488,38.087,18.2609,61.0435-3.1987,23.0335-14.0169,58.3909-26.087,78.2609Z"/>
        <path class="cls-9" d="M574.0552,13c1.8201-.0001,3.7104.2103,5.6772.6539,22.6819,5.1152,21.4487,38.087,18.2607,61.0435-3.1985,23.0335-14.0168,58.3909-26.0869,78.2609-23.1599,38.09-10.2847,65.3447-3.4048,110.6547,3.22,21.2301,7.6101,42.49,11.1699,63.0701,5.52,31.86,8.76,63.9,10.49,96.0598,5.8301,108.7102-5.75,218.8002-5.73,328.1101.01,50,2.4001,100.6101-8.28,149.46-10.6699,48.8601-36.5898,96.95-80.1099,121.5902-33.0801,18.74-72.3599,22.0698-110.22,25.4697-37.3723,3.3556-74.9509,7.1796-112.3982,7.1796-17.0117,0-33.9941-.7889-50.9219-2.7693-54.2-6.3401-108.6899-26.1702-146.4199-65.5701-11.24-11.7401-20.6799-24.8901-28.55-38.9801-14.05-25.1901-23.05-53.42-28.23-82.1599-1.28-7.0602-2.3201-14.16-3.1499-21.24-6.1001-52.0599-1.79-104.6799-.0901-157.0599,4.072-125.4628-4.906-251.9911,15.595-376.4374,10.938-66.3972,39.5068-132.3405,5.7573-197.3928-7.4915-14.4397-17.6365-27.7497-21.9724-43.4287-4.3359-15.679-.8022-35.3215,13.4553-43.1545,4.0212-2.2092,8.4583-3.2018,12.9648-3.2018,8.9597,0,18.1956,3.9232,24.9915,10.0083,10.2139,9.1456,15.9875,22.175,20.6912,35.053,9.0066,24.6592,15.2166,50.5925,16.1333,76.9055.948,27.21-2.4043,54.2263.614,81.4683.8801,8.0099,3.73,18.0199,11.74,18.96.3728.0435.7402.0646,1.1021.0646,6.6396,0,11.4553-7.0936,13.978-13.4948,17.72-44.9899-5.1401-97.65.54-145.1299,1.6399-13.76,6.22-29.7,19.2898-34.32,2.2583-.7972,4.4832-1.1674,6.6528-1.1674,15.7388,0,28.5903,19.478,30.4973,36.7474,4.8101,43.5302-21.6501,87.8-9.71,129.94,2.6045,9.2183,10.345,19.2021,18.8955,19.2021,1.5601,0,3.1465-.3322,4.7344-1.062,5.28-2.4399,7.8701-8.41,9.4102-14.0201,12.2898-44.7798-13.1001-91.5999-9.9402-137.94.9302-13.63,6.4202-29.3398,19.5801-33,1.803-.5023,3.5676-.7389,5.2839-.7389,15.8469,0,27.6345,20.1572,28.636,37.4089,2.3301,39.8502-21.3098,77.59-20.0999,117.4902.4768,15.7165,9.0291,34.6624,24.6628,34.6624.1028,0,.2039-.0007.3071-.0024,16.1099-.25,23.9199-19.8101,25.5801-35.8401,2.6199-25.31.3499-51.13-6.6501-75.59-4.6899-16.41-11.5601-32.77-10.51-49.7999,1.0383-16.8389,13.332-34.657,30.0996-34.657.1904,0,.3787.0023.5703.0069,14.9802.36,26.4402,14.91,28.9202,29.68,2.48,14.7802-1.7,29.75-5.21,44.32-9.52,39.49-13.6902,83.73,7.3799,118.4602,2.3401,3.8597,5.29,7.7899,9.6201,9.0798,1.0605.3154,2.0845.4637,3.0696.4637,9.2876,0,15.1582-13.1716,16.4604-23.5238,5.1099-40.63,3.9399-82.04-3.4402-122.32-3.4299-18.6998-4.3799-44.34,13.79-49.92,1.9609-.6016,3.8652-.8839,5.7019-.8839,16.2703,0,27.4795,22.1006,30.238,40.0538,5.5901,36.3102,4.9001,73.57-2.03,109.65-2.3999,12.5-5.5,25.6502-1.3699,37.6901,3.1733,9.229,12.6938,16.8193,21.8254,16.8193,2.7812,0,5.5254-.7036,8.0444-2.2794,6.9702-4.37,9.3701-13.25,10.77-21.3601,6-34.7798,4.01-70.9098-5.7798-104.8199-5.02-17.36-12.1201-34.69-11.2002-52.74.9102-18.05,13.1902-37.2899,31.22-38.3998.5627-.0344,1.1216-.0513,1.6755-.0513,19.0964,0,32.9407,20.1227,36.9446,39.1312,9.8398,46.62-14.6599,92.95-21.1499,140.15-1.28,9.3-1.3301,20.1199,5.5999,26.4401,3.135,2.8607,7.1194,4.1196,11.2573,4.1196,6.7251,0,13.8562-3.3241,18.4126-8.4996,7.3601-8.36,9.76-19.8502,11.8901-30.79,7.96-40.8102,1.6692-81.4496,9.6292-122.2596,3.0212-15.5208,13.699-69.5212,42.8445-69.5234M574.0574,0v13l-.0002-13h-.0032c-10.2341.0009-19.8801,4.368-27.8948,12.6293-5.7434,5.9202-10.8745,14.0435-15.2512,24.1443-7.3279,16.9119-10.9226,35.3797-12.4578,43.2659-4.1938,21.501-4.6296,42.7743-5.0513,63.3473-.4172,20.3663-.8118,39.6033-4.5769,58.9075-1.7107,8.7847-3.6484,18.737-8.8879,24.6883-2.1201,2.4082-5.6794,4.09-8.6553,4.09-1.1299,0-1.9692-.2432-2.4946-.7227-.9521-.8682-2.9973-4.0695-1.4839-15.0646,2.1348-15.5265,6.3054-30.8923,10.7212-47.1605,8.5286-31.4213,17.3477-63.9127,10.27-97.4467-2.5566-12.136-8.1191-23.6689-15.6624-32.4693-9.3838-10.9478-21.4592-16.9772-34.002-16.9772-.8164,0-1.6467.0253-2.4673.0755-24.4543,1.5054-40.6467,24.6982-43.1438,47.3844-1.9104-4.6766-4.2021-9.0732-6.781-12.9406-8.2058-12.3052-19.2156-19.082-31.0017-19.082-3.165,0-6.366.4897-9.5144,1.4555-9.3054,2.8577-22.6475,11.2862-24.6929,36.0227-.1003-.7672-.2146-1.5364-.3438-2.3055-1.6753-9.9777-6.2896-19.5153-12.9927-26.8577-7.8154-8.5607-17.9143-13.4145-28.436-13.6673-.2937-.0072-.5867-.0107-.8828-.0107-18.0647,0-31.9143,12.8825-38.6516,28.583-.8884-1.5513-1.8398-3.0527-2.8499-4.4908-8.0442-11.4553-18.8845-17.7642-30.5239-17.7642-2.926,0-5.8777.409-8.7732,1.2158-9.5374,2.6526-17.301,9.3392-22.4458,19.3351-.7549,1.4665-1.4268,2.9498-2.0251,4.4344-7.7178-13.6618-20.3218-24.114-35.5073-24.114-3.6978,0-7.3918.6422-10.9797,1.9087-6.3909,2.259-15.2766,7.6325-21.3469,20.4142-3.1797,6.695-5.3748,14.9805-6.5244,24.626-2.5334,21.177.1301,42.805,2.7061,63.721,3.4741,28.2094,6.7554,54.8545-2.4331,78.1835-.3379.8575-.6909,1.6174-1.0386,2.2803-.2922-1.1877-.5657-2.6655-.7637-4.4658-1.7031-15.3726-1.2607-30.6567-.7925-46.838.3171-10.9545.645-22.2818.2485-33.6633-.8845-25.3815-6.5752-52.6046-16.9146-80.9128-5.238-14.3414-11.7988-29.1467-24.23-40.2778-9.4563-8.4673-21.7263-13.3235-33.6636-13.3235-6.9487,0-13.4167,1.6177-19.2241,4.808C12.9541,20.2858,5.855,29.7445,2.6475,41.5997-.0354,51.5172.0584,62.6614,2.9119,72.9792c3.4287,12.399,9.6658,22.9459,15.6973,33.1453,2.6064,4.4077,5.0684,8.5709,7.2651,12.805,24.073,46.4005,13.408,94.0034,2.1167,144.4012-3.2803,14.641-6.6721,29.7805-9.1616,44.892-14.3823,87.3059-14.4304,176.5413-14.4768,262.8384-.0203,37.8551-.0413,76.9993-1.2842,115.2903-.3381,10.422-.7893,21.0627-1.2253,31.353-1.771,41.7765-3.6025,84.9753,1.397,127.6415.8821,7.5272,1.9824,14.9446,3.27,22.0465,5.8267,32.3289,15.8093,61.3262,29.6682,86.173,8.6904,15.5591,18.9553,29.5659,30.5132,41.6379,19.1106,19.9563,43.1118,36.1581,71.3384,48.1562,25.0505,10.6482,52.9626,17.8264,82.9612,21.3356,16.4338,1.9226,33.5847,2.8573,52.4324,2.8573,34.0886,0,68.4841-3.132,101.7471-6.1609,3.9399-.3588,7.8779-.7173,11.8137-1.0708l1.3884-.1245c38.8167-3.4835,78.9551-7.0854,114.0769-26.9819,22.5002-12.7394,41.6755-31.6263,56.9902-56.1348,13.3289-21.3301,23.4993-46.9165,29.4124-73.9932,9.3459-42.7474,9.0159-86.7006,8.6965-129.2067-.0569-7.5614-.1157-15.3802-.1172-23.0294-.0081-43.4469,1.8647-87.8813,3.6758-130.8527,2.7368-64.9452,5.5671-132.1013,2.0356-197.9509-1.8923-35.1757-5.3799-67.0945-10.6624-97.5829-1.3542-7.8298-2.8508-15.8816-4.2981-23.6682-2.3862-12.8384-4.8535-26.114-6.8279-39.1322-1.4109-9.292-3.0244-17.6268-4.5847-25.6873-5.8352-30.1434-9.6902-50.0572,6.2444-76.264,13.2263-21.7737,24.5488-59.4135,27.8555-83.2267,2.3274-16.759,2.4863-30.2738.4863-41.317-1.4951-8.2548-4.2642-15.2126-8.23-20.68-5.0415-6.9496-12.1418-11.6235-20.5337-13.516-2.8613-.6451-5.7327-.9724-8.5349-.9724h0ZM342.5484,232.1581c-.377-.5133-.8411-1.2023-1.4001-2.1244-15.4377-25.4464-17.3535-60.9927-5.8586-108.6742.2771-1.1501.5579-2.3008.8391-3.4538,2.0625-8.4515,4.2913-17.5835,5.1294-27.0734.3574,3.7327.9146,7.7215,1.6968,11.9859,7.166,39.1124,8.2861,78.9329,3.3284,118.3525-.605,4.81-2.3384,8.8433-3.7349,10.9874h0ZM423.897,240.8823c-3.064,0-7.9993-3.5891-9.532-8.0463-2.6848-7.8274-.7578-17.687,1.2825-28.1255.1887-.9655.3767-1.928.5608-2.8867,5.196-27.0525,7.0317-54.4448,5.4995-81.7765.9634,3.0762,1.8779,6.021,2.7356,8.9868,9.2278,31.9642,11.1155,66.1993,5.4573,98.9987-1.2207,7.0725-2.8577,11.2974-4.8647,12.5557-.2385.1494-.5505.2938-1.1389.2938h0ZM259.5445,227.1956c-6.1946,0-11.3594-11.8569-11.6689-22.0567-.5315-17.528,4.4089-35.0518,9.6394-53.6045,2.3955-8.4964,4.8245-17.1125,6.7549-25.8929.7048,2.2659,1.3787,4.4765,2.0122,6.6937,6.5032,22.7235,8.6531,47.1625,6.2188,70.6791-1.2229,11.8065-6.364,24.0795-12.8508,24.1802l-.1055.001h0ZM196.8552,224.0198c-1.7754-1.2384-4.6929-4.8648-5.9634-9.3618-5.688-20.0739-1.1035-41.748,3.75-64.695.2095-.9913.4199-1.9854.6294-2.9799.0105.0527.0205.1041.031.1569,5.0098,25.3492,9.7415,49.2924,3.5828,71.7322-.7983,2.9086-1.5559,4.4131-2.0298,5.1476h0Z"/>
      </g>
      <path class="cls-6" d="M457.2316,802.7429c-4.02,18.89-11.71,37.58-25.55,51.06-27.93,27.21-71.66,26.45-110.63,28.06-27.02,1.13-54.04,4.23-81.05,2.78-27.01-1.44-54.55-7.82-76.39-23.78-12.86-9.4-23.11-21.94-30.34-36.1-4.75-9.3-8.2-19.3-10.23-29.58-1.86-9.46-2.53-19.16-1.91-28.77,4.46-69.04,75.61-137.34,146.83-112.2599,16.68,5.88,31.41,16.25,47.18,24.23,4.87,2.46,9.85,4.7,15.01,6.5,32.97,11.52,72.59,5.16,100.75,25.35.59.42,1.17.85,1.75,1.3,5.74,4.42,10.47,9.6899,14.28,15.58,13.73,21.15,15.71,50.2,10.3,75.63Z"/>
      <path class="cls-4" d="M33.2107,568.0017c.7509-22.2369.304-39.2766,0-50.8696-1.1318-43.1617-4.5803-52.7426-3.1304-83.7391,1.9182-41.0068,9.2701-52.3811,14.8696-58.6956,7.6186-8.5914,22.7963-19.9988,35.2174-15.6522,16.7016,5.8445,18.322,36.6385,18.7826,45.3913,1.2773,24.2734-6.2015,40.0787-15.6522,65.7391-13.912,37.774-21.5333,58.4675-25.0435,82.9565-7.9803,55.6745,10.3779,95.4552-5.4783,103.3043-4.9125,2.4318-11.1293.8186-14.8696-1.5652-13.2277-8.4304-6.4969-33.5202-4.6956-86.8696Z"/>
      <path class="cls-4" d="M46.45,712.0057c-.3847-.0145-.7753.0094-1.1713.0755-7.2468,1.2101-8.7101,16.1455-9.2905,21.9103-1.5582,15.4763-1.2769,31.0719-.9939,46.6239.4947,27.1869,1.0051,54.5315,6.1133,81.2388,3.7363,19.5346,10.2873,39.2385,23.7132,53.9118,5.1008,5.5747,12.5358,10.6242,19.7394,8.3431,6.3645-2.0154,9.859-9.3386,9.4581-16.0025-.4009-6.6639-3.8365-12.741-7.5508-18.2884-11.7591-17.5623-27.5186-33.2815-33.0078-53.6918-9.6253-35.7898,15.2928-74.3993,4.8374-109.9552-1.3095-4.4532-5.8715-13.9406-11.8472-14.1655Z"/>
      <path class="cls-4" d="M39.3159,94.2153c-2.2079-2.5574-4.3835-5.1405-6.4373-7.8162-9.0687-11.8148-20.8263-33.8166-1.6101-42.2687,4.3622-1.9187,10.3809-.9694,12.5352,3.2814,2.3324,4.6023-.7905,9.9174-2.0363,14.9243-2.184,8.7777,1.637,17.8376,5.6669,25.9356,4.0298,8.098,8.4854,16.6447,7.6195,25.6484-4.5182-7.1017-10.2284-13.3232-15.7379-19.7048Z"/>
      <path class="cls-5" d="M584.4315,750.8529c.01,50,2.4,100.61-8.28,149.46-10.6699,48.8601-36.5898,96.9501-80.1099,121.5901-33.08,18.74-72.36,22.0699-110.22,25.47-54.35,4.88-109.13,10.75-163.3199,4.41-54.2-6.34-108.69-26.17-146.42-65.5699-31.32-32.7101-48.7-76.3201-56.78-121.1401,16.74,37.6201,37.49,79.36,80.43,90.32,29.29,7.48,65.27-.29,100.17-7.8301,40.25-8.6899,40.62-15.7,78.27-23.47,61.38-12.6799,71.63,3.66,112.69-10.96,11.91-4.24,54.34-21.04,79.83-62.61,14.4-23.49,17.95-48.01,25.04-97.04,4.3999-30.38,5.4399-52.24,6.26-65.74.8-13.12,2.1899-31.88,21.9099-161.22,16.48-108.06,24.9102-156.67,28.1801-175.3,6.78-38.67,12.11-66.9399,16.42-87.61,3.22,21.23,7.61,42.49,11.1699,63.07,24.1801,139.57,4.74,282.52,4.76,424.17Z"/>
      <path class="cls-1" d="M584.4315,750.8529c.01,50,2.4,100.61-8.28,149.46-10.6699,48.8601-36.5898,96.9501-80.1099,121.5901-33.08,18.74-72.36,22.0699-110.22,25.47-54.35,4.88-109.13,10.75-163.3199,4.41-54.2-6.34-108.69-26.17-146.42-65.5699-11.24-11.7401-20.68-24.8901-28.55-38.9801,9.64,7.9501,21.04,16.53,34.59,25.38,26,16.98,46.25,26.02,54,29.3501,12.81,5.49,41.67,17.6699,76.31,22.2999,32.98,4.41,62.35-1.6901,119.74-14.09,57.66-12.4501,87-19.01,111.52-35.21,11.9901-7.9301,43-30.3801,64.5601-70.4401,14.1499-26.28,18.76-59.09,27.3899-123.65,5.8101-43.44,3.6101-42.11,9.4001-83.74,6.1099-43.96,9.7799-54.17,19.5599-111.91,8.2001-48.4,7.1-50,14.87-97.83,4.0801-25.14,7.5801-46.68,10.6899-64.65,5.8301,108.71-5.75,218.8-5.73,328.11Z"/>
      <path class="cls-7" d="M165.7324,687.5696c12.9018-11.5667,19.3527-17.35,30-22.4348,3.1268-1.4932,17.605-8.2,38.0869-9.3913,9.3048-.5412,23.33-1.2021,38.8696,5.4783,8.8649,3.811,20.2471,8.704,22.174,19.0435,1.2086,6.4852-1.4851,14.1339-6.7826,18.2609-5.239,4.0814-10.7433,2.9411-28.174,1.3044-1.0658-.1001-22.4448-2.0859-36.5217-2.3478-20.3971-.3796-29.0861,1.444-31.8261,2.087-11.3018,2.6523-16.9527,3.9784-21.1304,7.9565-2.7161,2.5863-5.9118,6.866-11.3478,7.5652-1.0446.1344-3.7631.4468-5.3478-1.174-.3195-.3267-1.7973-1.9638-.7827-6.6522,2.2115-10.2184,12.7826-19.6956,12.7827-19.6956Z"/>
      <path class="cls-7" d="M147.3411,720.9609c-2.6923.2905-4.9382,1.801-7.5652,4.6956-3.1719,3.4949-5.9853,8.0002-8.7391,16.0435-3.2874,9.6016-4.9928,14.8347-2.6087,20.2173.5113,1.1544,2.4381,5.5046,6.3913,6.2609,3.7568.7187,6.946-2.2671,7.4348-2.7391,2.2775-2.1996,2.3105-4.281,4.0435-12.3913,1.8016-8.4317,2.7023-12.6475,4.174-15,2.0243-3.236,3.8986-4.3935,4.5652-7.9565.238-1.2721.894-4.7784-1.3043-7.174-2.2094-2.4077-5.7697-2.0236-6.3913-1.9565Z"/>
      <path class="cls-4" d="M133.4824,89.6321c.1649-2.2606.7338-8.0627,3.5217-15.6522,3.0029-8.1745,5.1337-13.9749,10.8587-17.2174,3.7937-2.1486,7.3808-2.1632,8.7065-2.1522,1.5258.0127,5.723.0477,6.5543,2.1522.5034,1.2742-.4401,2.7678-.9783,3.6196-1.6355,2.5889-4.0747,3.6959-5.4782,4.4022,0,0-2.5575,1.287-9,6.3587-8.3823,6.5988-11.0623,17.4136-11.9348,20.9348-1.2289,4.9593-1.2208,8.7261-1.663,8.7065-.5402-.0239-.9873-5.6638-.587-11.1522Z"/>
      <path class="cls-3" d="M457.2316,802.7429c-4.02,18.89-11.71,37.58-25.55,51.06-27.93,27.21-71.66,26.45-110.63,28.06-27.02,1.13-54.04,4.23-81.05,2.78-27.01-1.44-54.55-7.82-76.39-23.78-21.3-15.58-35.45-39.74-40.57-65.68,9.42,13.57,23.49,29.42,45.04,37.08,13.33,4.74,27.32,4.03,55.3,2.61,31.81-1.61,39.6201-5.79,84-11.48,49.63-6.37,47.25-2.09,60-7.3,27.82-11.3701,57.44-39.15,63.66-73.57,2.21-12.29,1.08-23.35-.14-32.29.59.42,1.17.85,1.75,1.3,26.33,20.28,31.5,58.7,24.58,91.21Z"/>
      <path class="cls-2" d="M457.2316,802.7429c-4.02,18.89-11.71,37.58-25.55,51.06-27.93,27.21-71.66,26.45-110.63,28.06-27.02,1.13-54.04,4.23-81.05,2.78-27.01-1.44-54.55-7.82-76.39-23.78-12.86-9.4-23.11-21.94-30.34-36.1,4.68,5.96,11.25,13.29,20.85,19.89,15.25,10.48,30.45,13.81,47.74,17.61,18.67,4.1,33.29,4.51,41.48,4.7,25.01.57,44.97-2.98,56.22-5.48,12.61-2.81,10.71-3.66,31.3-8.87,25.89-6.55,31.86-6.14,47.48-10.96,20.31-6.26,34.08-10.5,46.43-22.4301,18.49-17.85,21.98-41.49,23.48-51.66,2.35-15.86.8799-29.71-1.32-40.45,13.73,21.15,15.71,50.2,10.3,75.63Z"/>
      <path class="cls-4" d="M211.2291,62.6321c1.6116-6.4141,8.6965-9.4721,9.1304-9.6522,1.2115-.5029,4.8067-1.9384,8.8696-.8478.7816.2098,4.3194,1.1595,4.5,3.0652.1582,1.6689-2.3498,3.1034-2.7391,3.3261-1.9343,1.1064-3.0445.6572-5.6087,1.1087-1.7169.3023-6.8484,1.2058-9.1956,4.7609-1.0006,1.5154-1.3583,3.3052-2.8696,3.6522-.1001.023-.9672.2093-1.6304-.2609-1.4863-1.0536-.6284-4.468-.4565-5.1522Z"/>
      <path class="cls-4" d="M209.3378,72.6103c-1.2213-.0219-2.1257,1.5498-2.6087,2.413-1.2887,2.3035-1.1934,3.909-1.6957,7.1087-.8923,5.6836-2.2589,7.4075-.9782,9.5217.162.2675,1.0194,1.6193,2.0869,1.5652.5578-.0283,1.2996-.4468,2.2174-2.413,1.554-3.3293.6927-4.8407,1.5-8.8696.8556-4.2701,2.5146-6.0235,1.3696-7.9565-.0702-.1186-.8215-1.3504-1.8913-1.3696Z"/>
      <path class="cls-4" d="M273.153,74.469c-.275-6.1273,2.6702-13.7038,8.4131-19.4674,5.4095-5.429,11.0117-6.9517,12.6196-7.3369,5.0555-1.2111,7.9674-.1232,9.0978.3913,1.0476.4769,3.3069,1.5052,3.5218,3.2283.3389,2.7184-4.6452,5.2862-5.9674,5.9674-2.8745,1.4809-3.6849,1.0175-6.8478,2.3478-1.8885.7943-5.2437,2.2055-7.7283,5.1848-2.6127,3.1328-3.4282,6.9989-4.3044,11.1522-.9066,4.2975-.7256,6.6003-2.1522,7.1413-1.5004.569-3.5744-1.2678-4.5-2.3478-1.0504-1.2257-2.0102-3.0971-2.1522-6.2609Z"/>
      <path class="cls-4" d="M359.5334,64.393c-1.3782-2.6698,2.5206-7.5067,6.0652-9.9783.6246-.4355,3.4225-2.3206,7.6305-2.837,3.7577-.4611,8.9422.1323,9.2935,1.8587.2761,1.3568-2.4568,3.2982-4.8913,4.1087-3.6037,1.1997-4.7475-.68-7.5326.2935-4.6914,1.6398-5.0774,8.2423-8.2174,8.1196-1.0414-.0407-1.9551-.8044-2.3478-1.5652Z"/>
      <path class="cls-4" d="M359.0117,69.8712c-.8504-.0498-1.606,1.1093-1.8913,1.8913-.4353,1.1932-.3522,3.0878.7826,3.587.9433.4149,2.2741-.2836,2.8044-1.2391.9133-1.6457-.4845-4.1682-1.6956-4.2391Z"/>
      <path class="cls-4" d="M429.6279,78.0662c-.0056-.0668-.0109-.1337-.016-.2005-.5474-7.196,1.5235-14.264,3.8649-20.9852.9635-2.7657,1.7094-5.5432,3.2794-8.0643,1.5526-2.493,3.5956-4.6779,5.9543-6.4251,4.3212-3.2007,9.6211-4.9522,14.9778-5.4243,3.1019-.2734,6.27-.1275,9.256.7558,1.5966.4723,3.3156,1.3564,3.7336,2.968.1945.7495.0682,1.5433-.1108,2.2966-.338,1.4224-.8708,2.8176-1.738,3.9947-1.7001,2.3077-4.4993,3.5452-7.2785,4.2468-2.7791.7016-5.6649.9705-8.3916,1.8543-6.2958,2.0406-11.2136,7.2679-14.0375,13.2535-2.824,5.9856-3.7617,12.6918-4.0215,19.305-.0201.5101-.0409,1.039-.2716,1.4944-.2308.4554-.7366.815-1.2352.7049-.3705-.0818-.6426-.3907-.8726-.6926-1.9648-2.5789-2.8227-5.8477-3.0927-9.0822Z"/>
      <path class="cls-4" d="M548.3378,37.393c4.0719-10.3887,12.5217-16.2391,12.5217-16.2391,4.8846-3.382,9.0629-4.3888,9.9783-4.5978,1.6628-.3797,4.1289-.9191,7.337-.4891,3.1855.427,5.3987,1.5815,6.6522,2.25,2.7421,1.4625,4.1905,2.2351,4.5,3.7174.4818,2.3074-2.0537,5.1013-4.6957,5.9674-1.8032.5911-2.4236-.1199-5.7717-.2935-1.2163-.0631-4.9752-.1684-9.0978,1.1739-2.6598.866-4.4887,2.0148-7.0435,3.6196-2.3939,1.5037-4.1567,2.9099-5.2826,3.8152-2.1191,1.7039-3.1786,2.5559-4.2065,3.7174-3.3825,3.8219-3.7145,7.3863-4.6956,7.2391-.8871-.1331-1.2249-3.1387-1.174-5.087.0617-2.3586.7183-4.1302.9783-4.7935Z"/>
      <path class="cls-4" d="M546.3812,50.5995c-.8893-.9727-2.755-1.0492-3.913-.3913-1.7176.9758-1.2028,3.1832-2.3478,7.7283-1.2167,4.8292-2.48,5.0447-3.0326,9.0978-.181,1.3275-.8593,6.3036.9783,7.1413,1.3817.6299,3.8879-1.2158,5.1848-3.3261,1.6337-2.6584.4543-4.2823.9783-9,.7346-6.6145,3.7304-9.5237,2.1522-11.25Z"/>
    </g>
  </g>
</svg>