<?xml version="1.0" encoding="UTF-8"?>
<svg id="Capa_2" xmlns="http://www.w3.org/2000/svg" viewBox="0 0 612.7447 1067.5525">
  <defs>
    <style>
      .cls-1 {
        fill: #e28da3;
      }

      .cls-2 {
        fill: #b5486f;
      }

      .cls-3 {
        fill: #dd7696;
      }

      .cls-4 {
        fill: #f2afc1;
      }

      .cls-5 {
        fill: #d36380;
      }

      .cls-6 {
        fill: #ea9daf;
      }

      .cls-7 {
        fill: #fcd0db;
      }

      .cls-8 {
        fill: #d88099;
      }

      .cls-9 {
        fill: #c65578;
      }
    </style>
  </defs>
  <g id="Capa_1-2" data-name="Capa_1">
    <g>
      <g>
        <path class="cls-6" d="M273.4281,1061.0522c-18.5938,0-35.499-.9199-51.6816-2.8135-44.0229-5.1494-105.8442-21.0449-150.3589-67.5293-11.1768-11.6738-21.1118-25.2344-29.5308-40.3066-13.5098-24.2217-23.25-52.541-28.9521-84.1768-1.2622-6.9624-2.3423-14.2441-3.2085-21.6362-4.9395-42.1533-3.1191-85.0898-1.3589-126.6128.437-10.3057.8887-20.9614,1.228-31.415,1.2461-38.394,1.2671-77.5898,1.2876-115.4956.0459-86.0371.0938-175.0034,14.3901-261.7871,2.459-14.9282,5.8306-29.9751,9.0908-44.5273,11.5576-51.5864,22.4741-100.3125-2.6895-148.8154-2.2798-4.3945-4.9033-8.8306-7.4399-13.1206-5.8154-9.834-11.8291-20.0029-15.0273-31.5693-4.9478-17.8892-.8384-41.0088,16.5898-50.5835,4.8374-2.6577,10.2524-4.0049,16.0947-4.0049,10.3584,0,21.0479,4.2515,29.3271,11.6655,11.3667,10.1777,17.5127,24.1177,22.4609,37.6655,10.104,27.6631,15.6636,54.2124,16.5239,78.9097.3892,11.1733.0645,22.3945-.2495,33.2461-.4541,15.6934-.9238,31.9204.8281,47.7324.6426,5.8501,2.6089,12.8174,6.0371,13.2202.1123.0132.229.02.3442.02,2.4932,0,5.7544-3.8564,7.9307-9.3779,9.7935-24.8647,6.4141-52.3062,2.8359-81.3584-2.5283-20.5312-5.1431-41.7612-2.7026-62.1602,2.5879-21.7109,10.5205-35.061,23.5776-39.6768,2.894-1.0215,5.8604-1.5391,8.8188-1.5391,19.2983,0,34.6899,21.9932,36.958,42.5342.0708.6387.1348,1.2759.1929,1.9146.0435-1.8408.126-3.6812.252-5.5234,1.3955-20.46,10.4883-34.9722,24.3232-38.8198,2.3252-.6479,4.6899-.9766,7.0259-.9766,19.499,0,33.9043,22.5088,35.125,43.5322,1.2534,21.437-4.5752,42.1108-10.2119,62.1045-5.3701,19.0474-10.4424,37.0381-9.8804,55.5649.3467,11.437,6.3604,28.3594,18.166,28.3594l.2046-.0015c11.0869-.1724,17.7329-15.6772,19.2168-30.0103,2.519-24.334.2944-49.6226-6.4336-73.1318-.9746-3.4102-2.0767-6.917-3.1426-10.3081-4.1821-13.3091-8.5068-27.0708-7.606-41.6812,1.2085-19.6006,15.54-40.7563,36.5869-40.7563.2427,0,.4829.0029.7271.0088,19.0952.4585,32.374,18.4277,35.1738,35.1021,2.5034,14.9204-1.0352,29.4219-4.457,43.4458-.2832,1.1602-.5654,2.3174-.8438,3.4727-11.9175,49.4346-9.7529,86.582,6.6177,113.5659,1.417,2.3374,3.5708,5.5225,5.9189,6.2222.4302.1279.8394.1934,1.2139.1934,3.9927,0,8.8579-8.6675,10.0107-17.835,5.0415-40.0801,3.9028-80.5674-3.3843-120.3374-5.7876-31.5566.7026-51.9082,18.2754-57.3047,2.5317-.7769,5.0918-1.1704,7.6104-1.1704,21.7622,0,33.8481,27.25,36.6621,45.5664,5.7324,37.2295,5.0356,74.8662-2.0708,111.8633l-.5566,2.8647c-2.1147,10.8193-4.3013,22.0068-1.0483,31.4902,2.3159,6.7349,9.4956,12.4282,15.6772,12.4282,1.7061,0,3.2095-.4219,4.5972-1.29,4.8267-3.0264,6.6582-10.269,7.812-16.9546,5.8242-33.7622,3.8809-69.0029-5.6201-101.9116-.9937-3.437-2.1016-6.9712-3.1729-10.3887-4.4575-14.2183-9.0664-28.9204-8.2734-44.4854,1.0503-20.8359,15.2939-43.2012,37.312-44.5566.6987-.0425,1.3896-.0635,2.0747-.0635,22.3052,0,38.6689,22.2812,43.3052,44.291,6.7539,31.9985-1.8564,63.7207-10.1836,94.3989-4.2749,15.7505-8.6958,32.0376-10.8872,47.9766-1.4424,10.4766-.2842,17.2642,3.5405,20.752,1.7617,1.6079,4.0752,2.4224,6.8774,2.4224,4.855,0,10.1675-2.4707,13.5337-6.2944,6.4038-7.2744,8.521-18.146,10.3892-27.7378,3.8726-19.8564,4.291-40.2744,4.6958-60.0205.416-20.2974.8457-41.2856,4.9331-62.2412,1.4946-7.6768,4.9951-25.6592,12.0415-41.9214,9.4463-21.8027,21.9565-32.8574,37.1831-32.8574,2.3237,0,4.7148.2734,7.1069.813,21.0723,4.7524,28.9009,27.7246,23.2695,68.2783-3.2163,23.1592-14.1836,59.6924-26.9697,80.7417-17.2412,28.3555-12.9766,50.3862-7.0737,80.8784,1.5479,7.9971,3.1489,16.2656,4.5396,25.4253,1.9912,13.1304,4.4692,26.4639,6.8662,39.3579,1.4429,7.7632,2.9346,15.791,4.2822,23.5806,5.2378,30.231,8.6973,61.9009,10.5757,96.8188,3.5146,65.5396.6914,132.5376-2.0391,197.3301-1.814,43.0391-3.6895,87.543-3.6816,131.1279.0015,7.6719.0605,15.502.1172,23.0742.3169,42.1489.6445,85.7334-8.5469,127.7754-5.7554,26.3545-15.6362,51.2295-28.5737,71.9336-14.7349,23.5801-33.1333,41.7227-54.6836,53.9238-33.897,19.2031-73.3232,22.7412-111.4517,26.1641l-1.3896.124c-3.9395.3535-7.8809.7129-11.8242,1.0723-33.1172,3.0156-67.3613,6.1328-101.1509,6.1328ZM195.1107,103.4945c-.5107,15.2549-3.709,30.3765-6.8281,45.124-5.0244,23.7549-9.77,46.1924-3.647,67.8022,2.1411,7.5776,8.166,14.4741,12.6416,14.4741.6738,0,1.3345-.1528,2.0195-.4678,2.395-1.1069,4.3696-4.4175,5.8569-9.835,6.564-23.917,1.688-48.5903-3.4746-74.7119-2.7417-13.8721-5.5469-28.0679-6.5684-42.3857Z"/>
        <path class="cls-7" d="M574.0554,13c1.8201-.0001,3.7104.2103,5.6772.6539,22.6818,5.1152,21.4487,38.087,18.2608,61.0435-3.1987,23.0335-14.017,58.3908-26.087,78.2608-23.16,38.09-10.2847,65.3448-3.4047,110.6548,3.22,21.23,7.61,42.49,11.1698,63.07,5.52,31.86,8.76,63.9,10.4901,96.06,5.8301,108.71-5.75,218.8-5.73,328.11.01,50,2.4,100.61-8.28,149.4598-10.6699,48.8602-36.5898,96.9502-80.1099,121.5902-33.0801,18.74-72.36,22.0701-110.2202,25.47-37.3723,3.3556-74.95,7.1794-112.3972,7.1794-17.0118,0-33.9949-.7889-50.9226-2.7694-54.2002-6.34-108.6902-26.17-146.4202-65.5699-11.24-11.74-20.68-24.8903-28.55-38.9801-14.05-25.1901-23.05-53.4202-28.23-82.16-1.28-7.06-2.32-14.16-3.15-21.24-6.1-52.06-1.79-104.68-.09-157.06,4.072-125.4626-4.906-251.991,15.595-376.4373,10.938-66.3972,39.5068-132.3405,5.7573-197.3927-7.4913-14.4398-17.6363-27.7498-21.9723-43.4288-4.336-15.679-.8022-35.3215,13.4553-43.1545,4.0213-2.2092,8.4581-3.2018,12.9648-3.2018,8.9598,0,18.1956,3.9232,24.9914,10.0083,10.214,9.1457,15.9875,22.175,20.6912,35.0532,9.0067,24.659,15.2167,50.5923,16.1333,76.9053.9478,27.21-2.4042,54.2263.614,81.4683.88,8.01,3.73,18.02,11.74,18.96.3727.0434.7402.0645,1.1021.0645,6.6398,0,11.4554-7.0934,13.9779-13.4945,17.72-44.99-5.14-97.65.54-145.13,1.64-13.76,6.22-29.7,19.29-34.32,2.2583-.7972,4.4831-1.1674,6.6528-1.1674,15.7388,0,28.5901,19.4781,30.4972,36.7474,4.81,43.53-21.65,87.8-9.71,129.94,2.6048,9.2182,10.3453,19.202,18.8958,19.202,1.56,0,3.1465-.3322,4.7343-1.062,5.28-2.44,7.87-8.41,9.41-14.02,12.29-44.78-13.1-91.6-9.94-137.94.93-13.63,6.42-29.34,19.58-33,1.8029-.5023,3.5677-.7389,5.2839-.7389,15.847,0,27.6346,20.1572,28.6361,37.4089,2.33,39.85-21.31,77.59-20.1,117.49.4769,15.7167,9.0293,34.6624,24.6628,34.6624.1028,0,.2038-.0008.3072-.0024,16.11-.25,23.92-19.81,25.58-35.84,2.62-25.31.35-51.13-6.65-75.59-4.69-16.41-11.56-32.77-10.51-49.8,1.0382-16.8387,13.3317-34.6569,30.0993-34.6569.1905,0,.3791.0023.5706.0069,14.98.36,26.44,14.91,28.92,29.68,2.48,14.78-1.7,29.75-5.21,44.32-9.52,39.49-13.69,83.73,7.38,118.46,2.34,3.86,5.29,7.79,9.62,9.08,1.0605.3155,2.0846.4637,3.0696.4637,9.2878,0,15.1585-13.1717,16.4604-23.5237,5.11-40.63,3.94-82.04-3.44-122.32-3.43-18.7-4.38-44.34,13.79-49.92,1.9608-.6015,3.8651-.8839,5.7018-.8839,16.2704,0,27.4796,22.1007,30.2382,40.0539,5.59,36.31,4.9,73.57-2.03,109.65-2.4,12.5-5.5,25.65-1.37,37.69,3.1735,9.2292,12.6938,16.8195,21.8256,16.8195,2.7812,0,5.5254-.7036,8.0444-2.2795,6.9702-4.37,9.3702-13.25,10.77-21.36,6-34.78,4.0101-70.91-5.7798-104.82-5.02-17.36-12.12-34.69-11.2-52.74.9099-18.05,13.19-37.29,31.2198-38.4.5616-.0343,1.1224-.0513,1.6754-.0513,19.0983,0,32.9406,20.1217,36.9446,39.1313,9.84,46.62-14.6599,92.95-21.1498,140.15-1.2802,9.3-1.3301,20.12,5.5999,26.44,3.135,2.8607,7.1195,4.1196,11.2574,4.1196,6.725,0,13.8562-3.3241,18.4126-8.4996,7.3602-8.36,9.76-19.85,11.89-30.79,7.9601-40.81,1.6691-81.4497,9.6292-122.2597,3.0214-15.5206,13.6989-69.5212,42.8446-69.5234M574.0576,0v13l-.0004-13h-.003c-10.2343.0008-19.8803,4.368-27.895,12.6293-5.7433,5.9203-10.8746,14.0437-15.2512,24.1443-7.3275,16.9108-10.9227,35.3793-12.4578,43.2657-4.1938,21.501-4.6296,42.7743-5.0513,63.3472-.4174,20.3665-.8115,39.6035-4.5768,58.9077-1.7105,8.7848-3.6481,18.737-8.8878,24.6885-2.1202,2.4082-5.6793,4.09-8.6553,4.09-1.1298,0-1.9692-.2432-2.4947-.7227-.9523-.8683-2.9973-4.0695-1.484-15.0642,2.135-15.5268,6.3057-30.8927,10.7214-47.1607,8.5286-31.4215,17.3478-63.9127,10.2698-97.4468-2.5563-12.1367-8.1188-23.6698-15.6614-32.4698-9.3835-10.9477-21.4593-16.9768-34.0031-16.9768-.8179,0-1.6484.0255-2.4685.0755-24.4531,1.5056-40.6454,24.6984-43.1421,47.3848-1.9106-4.6774-4.2019-9.0729-6.7811-12.9408-8.2058-12.3052-19.2157-19.082-31.0018-19.082-3.165,0-6.366.4897-9.5143,1.4555-9.3057,2.8577-22.6477,11.2859-24.693,36.0224-.1002-.7672-.2146-1.5363-.3436-2.3054-1.6754-9.9775-6.2895-19.5152-12.9927-26.8575-7.8155-8.5607-17.9142-13.4145-28.4358-13.6673-.2939-.0072-.5869-.0107-.883-.0107-18.0648,0-31.9144,12.8825-38.6516,28.5831-.8887-1.5519-1.8397-3.0522-2.8499-4.4909-8.0442-11.4553-18.8845-17.7642-30.524-17.7642-2.926,0-5.8777.409-8.7732,1.2158-9.5374,2.6525-17.301,9.339-22.4458,19.3352-.7548,1.4665-1.4267,2.9497-2.025,4.4344-7.7177-13.6619-20.3217-24.1141-35.507-24.1141-3.6977,0-7.3918.6422-10.98,1.9088-6.3908,2.259-15.2767,7.6325-21.347,20.4142-3.1797,6.695-5.3748,14.9803-6.5245,24.626-2.5333,21.1768.1302,42.8048,2.706,63.7207,3.4742,28.2095,6.7555,54.8546-2.433,78.1838-.338.8576-.6908,1.6175-1.0385,2.2804-.2925-1.188-.5659-2.6654-.7637-4.466-1.703-15.3727-1.2607-30.657-.7925-46.8385.3172-10.9543.6448-22.2815.2485-33.6627-.8843-25.382-6.5752-52.605-16.9145-80.9128-5.2382-14.3415-11.799-29.147-24.2302-40.2782-9.4562-8.4672-21.726-13.3233-33.6633-13.3233-6.9488,0-13.4168,1.6177-19.2242,4.808C12.9543,20.2858,5.8551,29.7445,2.6478,41.5997-.0352,51.5172.0585,62.6613,2.912,72.9792c3.4288,12.3988,9.6657,22.9455,15.6972,33.145,2.6065,4.4078,5.0685,8.5712,7.2653,12.8055,24.073,46.4005,13.4078,94.0035,2.1165,144.4015-3.2802,14.6408-6.672,29.7802-9.1615,44.8914-14.3825,87.306-14.4305,176.5413-14.4768,262.8385-.0203,37.8552-.0413,76.9993-1.2842,115.2903-.3382,10.422-.7893,21.0626-1.2255,31.353-1.771,41.7765-3.6023,84.9753,1.397,127.6415.8825,7.5278,1.9827,14.9449,3.2702,22.0463,5.827,32.3289,15.8095,61.3264,29.6682,86.1733,8.6908,15.5596,18.9557,29.5662,30.5132,41.6378,19.1105,19.9564,43.1118,36.1581,71.3385,48.1562,25.0505,10.6481,52.9627,17.8263,82.9615,21.3354,16.4347,1.9229,33.5857,2.8575,52.433,2.8575,34.0882,0,68.4823-3.1318,101.7441-6.1606,3.9405-.3589,7.8792-.7175,11.8157-1.071l1.387-.1245c38.8174-3.4833,78.9562-7.0854,114.0783-26.9822,22.5004-12.7391,41.6757-31.6261,56.9905-56.1346,13.3289-21.3302,23.4994-46.9165,29.4122-73.9932,9.346-42.7479,9.0157-86.7012,8.6964-129.2073-.0566-7.5612-.1155-15.3798-.117-23.0287-.008-43.4468,1.8647-87.8812,3.6757-130.8525,2.737-64.9452,5.5672-132.1015,2.0357-197.951-1.8922-35.1757-5.3798-67.0947-10.6622-97.5832-1.3544-7.8292-2.8507-15.8802-4.2977-23.6662-2.3864-12.839-4.8538-26.1152-6.8284-39.134-1.4109-9.292-3.0245-17.6268-4.5848-25.6873-5.8353-30.1433-9.6903-50.0573,6.2444-76.264,13.2261-21.7733,24.5486-59.4133,27.8557-83.2267,2.3271-16.7592,2.4861-30.274.4861-41.3172-1.4952-8.2548-4.2642-15.2127-8.23-20.68-5.0413-6.9497-12.1417-11.6235-20.5337-13.516-2.8613-.6452-5.7327-.9723-8.5348-.9723h0ZM342.5483,232.1581c-.3767-.5133-.8409-1.2023-1.3998-2.1243-15.4378-25.4465-17.3537-60.9928-5.8589-108.6741.277-1.1502.5578-2.3007.8392-3.4537,2.0625-8.4516,4.2913-17.5837,5.1295-27.0736.3574,3.7327.9145,7.7216,1.6967,11.986,7.166,39.1125,8.286,78.933,3.3283,118.3525-.605,4.8099-2.3385,8.8433-3.735,10.9872h0ZM423.8971,240.8825c-3.0642,0-7.9993-3.5894-9.532-8.0467-2.685-7.8275-.7577-17.6875,1.2827-28.1263.1887-.965.3766-1.927.5607-2.8853,5.1966-27.0551,7.0322-54.4433,5.4993-81.7772.9634,3.0764,1.8779,6.0214,2.7357,8.9874,9.2281,31.9638,11.1158,66.1988,5.4573,98.9987-1.2206,7.0725-2.8575,11.2973-4.8647,12.5557-.2386.1494-.5507.2939-1.139.2939h0ZM259.5445,227.1955c-6.1947,0-11.3593-11.8568-11.6689-22.0567-.5315-17.528,4.409-35.0518,9.6395-53.6047,2.3953-8.4963,4.8243-17.1122,6.7546-25.8925.7051,2.266,1.3787,4.4764,2.0124,6.6937,6.503,22.7235,8.653,47.1625,6.2187,70.6792-1.2227,11.8065-6.3638,24.0793-12.8508,24.18l-.1055.001h0ZM196.8555,224.0197c-1.7756-1.2385-4.693-4.8649-5.9637-9.3618-5.6877-20.0735-1.1033-41.7478,3.75-64.6948.2097-.9914.4199-1.9854.6295-2.98.0104.0528.0206.1042.031.157,5.0097,25.349,9.7417,49.2923,3.5829,71.7321-.7983,2.9082-1.5559,4.4128-2.0297,5.1474h0Z"/>
      </g>
      <path class="cls-5" d="M457.2317,802.743c-4.02,18.89-11.71,37.58-25.55,51.06-27.93,27.21-71.66,26.45-110.63,28.06-27.02,1.13-54.04,4.23-81.05,2.78-27.01-1.44-54.55-7.82-76.39-23.78-12.86-9.4-23.11-21.94-30.34-36.1-4.75-9.3-8.2-19.3-10.23-29.58-1.86-9.46-2.53-19.16-1.91-28.77,4.46-69.04,75.61-137.34,146.83-112.2599,16.68,5.88,31.41,16.25,47.18,24.23,4.87,2.46,9.85,4.7,15.01,6.5,32.97,11.52,72.59,5.16,100.75,25.35.59.42,1.17.85,1.75,1.3,5.74,4.42,10.47,9.6899,14.28,15.58,13.73,21.15,15.71,50.2,10.3,75.63Z"/>
      <path class="cls-4" d="M33.2108,568.0017c.7509-22.2369.304-39.2766,0-50.8696-1.1318-43.1617-4.5803-52.7426-3.1304-83.7391,1.9182-41.0068,9.2701-52.3811,14.8696-58.6956,7.6186-8.5914,22.7963-19.9988,35.2174-15.6522,16.7016,5.8445,18.322,36.6385,18.7826,45.3913,1.2773,24.2734-6.2015,40.0787-15.6522,65.7391-13.912,37.774-21.5333,58.4675-25.0435,82.9565-7.9803,55.6745,10.3779,95.4552-5.4783,103.3043-4.9125,2.4318-11.1293.8186-14.8696-1.5652-13.2277-8.4304-6.4969-33.5202-4.6956-86.8696Z"/>
      <path class="cls-4" d="M46.4501,712.0057c-.3847-.0145-.7753.0094-1.1713.0755-7.2468,1.2101-8.7101,16.1455-9.2905,21.9103-1.5582,15.4763-1.2769,31.0719-.9939,46.6239.4947,27.1869,1.0051,54.5315,6.1133,81.2388,3.7363,19.5346,10.2873,39.2385,23.7132,53.9118,5.1008,5.5747,12.5358,10.6242,19.7394,8.3431,6.3645-2.0154,9.859-9.3386,9.4581-16.0025s-3.8365-12.741-7.5508-18.2884c-11.7591-17.5623-27.5186-33.2815-33.0078-53.6918-9.6253-35.7898,15.2928-74.3993,4.8374-109.9552-1.3095-4.4532-5.8715-13.9406-11.8472-14.1655Z"/>
      <path class="cls-4" d="M39.316,94.2153c-2.2079-2.5574-4.3835-5.1405-6.4373-7.8162-9.0687-11.8148-20.8263-33.8166-1.6101-42.2687,4.3622-1.9187,10.3809-.9694,12.5352,3.2814,2.3324,4.6023-.7905,9.9174-2.0363,14.9243-2.184,8.7777,1.637,17.8376,5.6669,25.9356,4.0298,8.098,8.4854,16.6447,7.6195,25.6484-4.5182-7.1017-10.2284-13.3232-15.7379-19.7048Z"/>
      <path class="cls-1" d="M584.4316,750.8529c.01,50,2.4,100.61-8.28,149.46-10.6699,48.8601-36.5898,96.9501-80.1099,121.5901-33.08,18.74-72.36,22.0699-110.22,25.47-54.35,4.88-109.13,10.75-163.3199,4.41-54.2-6.34-108.69-26.17-146.42-65.5699-31.32-32.7101-48.7-76.3201-56.78-121.1401,16.74,37.6201,37.49,79.36,80.43,90.32,29.29,7.48,65.27-.29,100.17-7.8301,40.25-8.6899,40.62-15.7,78.27-23.47,61.38-12.6799,71.63,3.66,112.69-10.96,11.91-4.24,54.34-21.04,79.83-62.61,14.4-23.49,17.95-48.01,25.04-97.04,4.3999-30.38,5.4399-52.24,6.26-65.74.8-13.12,2.1899-31.88,21.9099-161.22,16.48-108.06,24.9102-156.67,28.1801-175.3,6.78-38.67,12.11-66.9399,16.42-87.61,3.22,21.23,7.61,42.49,11.1699,63.07,24.1801,139.57,4.74,282.52,4.76,424.17Z"/>
      <path class="cls-8" d="M584.4316,750.8529c.01,50,2.4,100.61-8.28,149.46-10.6699,48.8601-36.5898,96.9501-80.1099,121.5901-33.08,18.74-72.36,22.0699-110.22,25.47-54.35,4.88-109.13,10.75-163.3199,4.41-54.2-6.34-108.69-26.17-146.42-65.5699-11.24-11.7401-20.68-24.8901-28.55-38.9801,9.64,7.9501,21.04,16.53,34.59,25.38,26,16.98,46.25,26.02,54,29.3501,12.81,5.49,41.67,17.6699,76.31,22.2999,32.98,4.41,62.35-1.6901,119.74-14.09,57.66-12.4501,87-19.01,111.52-35.21,11.9901-7.9301,43-30.3801,64.5601-70.4401,14.1499-26.28,18.76-59.09,27.3899-123.65,5.8101-43.44,3.6101-42.11,9.4001-83.74,6.1099-43.96,9.7799-54.17,19.5599-111.91,8.2001-48.4,7.1-50,14.87-97.83,4.0801-25.14,7.5801-46.68,10.6899-64.65,5.8301,108.71-5.75,218.8-5.73,328.11Z"/>
      <path class="cls-3" d="M165.7326,687.5697c12.9018-11.5667,19.3527-17.35,30-22.4348,3.1268-1.4932,17.605-8.2,38.0869-9.3913,9.3048-.5412,23.33-1.2021,38.8696,5.4783,8.8649,3.811,20.2471,8.704,22.174,19.0435,1.2086,6.4852-1.4851,14.1339-6.7826,18.2609-5.239,4.0814-10.7433,2.9411-28.174,1.3044-1.0658-.1001-22.4448-2.0859-36.5217-2.3478-20.3971-.3796-29.0861,1.444-31.8261,2.087-11.3018,2.6523-16.9527,3.9784-21.1304,7.9565-2.7161,2.5863-5.9118,6.866-11.3478,7.5652-1.0446.1344-3.7631.4468-5.3478-1.174-.3195-.3267-1.7973-1.9638-.7827-6.6522,2.2115-10.2184,12.7826-19.6956,12.7827-19.6956Z"/>
      <path class="cls-3" d="M147.3413,720.9609c-2.6923.2905-4.9382,1.801-7.5652,4.6956-3.1719,3.4949-5.9853,8.0002-8.7391,16.0435-3.2874,9.6016-4.9928,14.8347-2.6087,20.2173.5113,1.1544,2.4381,5.5046,6.3913,6.2609,3.7568.7187,6.946-2.2671,7.4348-2.7391,2.2775-2.1996,2.3105-4.281,4.0435-12.3913,1.8016-8.4317,2.7023-12.6475,4.174-15,2.0243-3.236,3.8986-4.3935,4.5652-7.9565.238-1.2721.894-4.7784-1.3043-7.174-2.2094-2.4077-5.7697-2.0236-6.3913-1.9565Z"/>
      <path class="cls-4" d="M133.4825,89.6321c.1649-2.2606.7338-8.0627,3.5217-15.6522,3.0029-8.1745,5.1337-13.9749,10.8587-17.2174,3.7937-2.1486,7.3808-2.1632,8.7065-2.1522,1.5258.0127,5.723.0477,6.5543,2.1522.5034,1.2742-.4401,2.7678-.9783,3.6196-1.6355,2.5889-4.0747,3.6959-5.4782,4.4022,0,0-2.5575,1.287-9,6.3587-8.3823,6.5988-11.0623,17.4136-11.9348,20.9348-1.2289,4.9593-1.2208,8.7261-1.663,8.7065-.5402-.0239-.9873-5.6638-.587-11.1522Z"/>
      <path class="cls-9" d="M457.2317,802.743c-4.02,18.89-11.71,37.58-25.55,51.06-27.93,27.21-71.66,26.45-110.63,28.06-27.02,1.13-54.04,4.23-81.05,2.78-27.01-1.44-54.55-7.82-76.39-23.78-21.3-15.58-35.45-39.74-40.57-65.68,9.42,13.57,23.49,29.42,45.04,37.08,13.33,4.74,27.32,4.03,55.3,2.61,31.81-1.61,39.6201-5.79,84-11.48,49.63-6.37,47.25-2.09,60-7.3,27.82-11.3701,57.44-39.15,63.66-73.57,2.21-12.29,1.08-23.35-.14-32.29.59.42,1.17.85,1.75,1.3,26.33,20.28,31.5,58.7,24.58,91.21Z"/>
      <path class="cls-2" d="M457.2317,802.743c-4.02,18.89-11.71,37.58-25.55,51.06-27.93,27.21-71.66,26.45-110.63,28.06-27.02,1.13-54.04,4.23-81.05,2.78-27.01-1.44-54.55-7.82-76.39-23.78-12.86-9.4-23.11-21.94-30.34-36.1,4.68,5.96,11.25,13.29,20.85,19.89,15.25,10.48,30.45,13.81,47.74,17.61,18.67,4.1,33.29,4.51,41.48,4.7,25.01.57,44.97-2.98,56.22-5.48,12.61-2.81,10.71-3.66,31.3-8.87,25.89-6.55,31.86-6.14,47.48-10.96,20.31-6.26,34.08-10.5,46.43-22.4301,18.49-17.85,21.98-41.49,23.48-51.66,2.35-15.86.8799-29.71-1.32-40.45,13.73,21.15,15.71,50.2,10.3,75.63Z"/>
      <path class="cls-4" d="M211.2292,62.6321c1.6116-6.4141,8.6965-9.4721,9.1304-9.6522,1.2115-.5029,4.8067-1.9384,8.8696-.8478.7816.2098,4.3194,1.1595,4.5,3.0652.1582,1.6689-2.3498,3.1034-2.7391,3.3261-1.9343,1.1064-3.0445.6572-5.6087,1.1087-1.7169.3023-6.8484,1.2058-9.1956,4.7609-1.0006,1.5154-1.3583,3.3052-2.8696,3.6522-.1001.023-.9672.2093-1.6304-.2609-1.4863-1.0536-.6284-4.468-.4565-5.1522Z"/>
      <path class="cls-4" d="M209.3379,72.6104c-1.2213-.0219-2.1257,1.5498-2.6087,2.413-1.2887,2.3035-1.1934,3.909-1.6957,7.1087-.8923,5.6836-2.2589,7.4075-.9782,9.5217.162.2675,1.0194,1.6193,2.0869,1.5652.5578-.0283,1.2996-.4468,2.2174-2.413,1.554-3.3293.6927-4.8407,1.5-8.8696.8556-4.2701,2.5146-6.0235,1.3696-7.9565-.0702-.1186-.8215-1.3504-1.8913-1.3696Z"/>
      <path class="cls-4" d="M273.1531,74.4691c-.275-6.1273,2.6702-13.7038,8.4131-19.4674,5.4095-5.429,11.0117-6.9517,12.6196-7.3369,5.0555-1.2111,7.9674-.1232,9.0978.3913,1.0476.4769,3.3069,1.5052,3.5218,3.2283.3389,2.7184-4.6452,5.2862-5.9674,5.9674-2.8745,1.4809-3.6849,1.0175-6.8478,2.3478-1.8885.7943-5.2437,2.2055-7.7283,5.1848-2.6127,3.1328-3.4282,6.9989-4.3044,11.1522-.9066,4.2975-.7256,6.6003-2.1522,7.1413-1.5004.569-3.5744-1.2678-4.5-2.3478-1.0504-1.2257-2.0102-3.0971-2.1522-6.2609Z"/>
      <path class="cls-4" d="M359.5336,64.393c-1.3782-2.6698,2.5206-7.5067,6.0652-9.9783.6246-.4355,3.4225-2.3206,7.6305-2.837,3.7577-.4611,8.9422.1323,9.2935,1.8587.2761,1.3568-2.4568,3.2982-4.8913,4.1087-3.6037,1.1997-4.7475-.68-7.5326.2935-4.6914,1.6398-5.0774,8.2423-8.2174,8.1196-1.0414-.0407-1.9551-.8044-2.3478-1.5652Z"/>
      <path class="cls-4" d="M359.0118,69.8712c-.8504-.0498-1.606,1.1093-1.8913,1.8913-.4353,1.1932-.3522,3.0878.7826,3.587.9433.4149,2.2741-.2836,2.8044-1.2391.9133-1.6457-.4845-4.1682-1.6956-4.2391Z"/>
      <path class="cls-4" d="M429.6281,78.0662c-.0056-.0668-.0109-.1337-.016-.2005-.5474-7.196,1.5235-14.264,3.8649-20.9852.9635-2.7657,1.7094-5.5432,3.2794-8.0643,1.5526-2.493,3.5956-4.6779,5.9543-6.4251,4.3212-3.2007,9.6211-4.9522,14.9778-5.4243,3.1019-.2734,6.27-.1275,9.256.7558,1.5966.4723,3.3156,1.3564,3.7336,2.968.1945.7495.0682,1.5433-.1108,2.2966-.338,1.4224-.8708,2.8176-1.738,3.9947-1.7001,2.3077-4.4993,3.5452-7.2785,4.2468-2.7791.7016-5.6649.9705-8.3916,1.8543-6.2958,2.0406-11.2136,7.2679-14.0375,13.2535-2.824,5.9856-3.7617,12.6918-4.0215,19.305-.0201.5101-.0409,1.039-.2716,1.4944-.2308.4554-.7366.815-1.2352.7049-.3705-.0818-.6426-.3907-.8726-.6926-1.9648-2.5789-2.8227-5.8477-3.0927-9.0822Z"/>
      <path class="cls-4" d="M548.3379,37.393c4.0719-10.3887,12.5217-16.2391,12.5217-16.2391,4.8846-3.382,9.0629-4.3888,9.9783-4.5978,1.6628-.3797,4.1289-.9191,7.337-.4891,3.1855.427,5.3987,1.5815,6.6522,2.25,2.7421,1.4625,4.1905,2.2351,4.5,3.7174.4818,2.3074-2.0537,5.1013-4.6957,5.9674-1.8032.5911-2.4236-.1199-5.7717-.2935-1.2163-.0631-4.9752-.1684-9.0978,1.1739-2.6598.866-4.4887,2.0148-7.0435,3.6196-2.3939,1.5037-4.1567,2.9099-5.2826,3.8152-2.1191,1.7039-3.1786,2.5559-4.2065,3.7174-3.3825,3.8219-3.7145,7.3863-4.6956,7.2391-.8871-.1331-1.2249-3.1387-1.174-5.087.0617-2.3586.7183-4.1302.9783-4.7935Z"/>
      <path class="cls-4" d="M546.3814,50.5995c-.8893-.9727-2.755-1.0492-3.913-.3913-1.7176.9758-1.2028,3.1832-2.3478,7.7283-1.2167,4.8292-2.48,5.0447-3.0326,9.0978-.181,1.3275-.8593,6.3036.9783,7.1413,1.3817.6299,3.8879-1.2158,5.1848-3.3261,1.6337-2.6584.4543-4.2823.9783-9,.7346-6.6145,3.7304-9.5237,2.1522-11.25Z"/>
    </g>
  </g>
</svg>