<?xml version="1.0" encoding="UTF-8"?>
<svg id="Capa_2" xmlns="http://www.w3.org/2000/svg" viewBox="0 0 612.7443 1067.5522">
  <defs>
    <style>
      .cls-1 {
        fill: #d68783;
      }

      .cls-2 {
        fill: #ce7c74;
      }

      .cls-3 {
        fill: #db9c95;
      }

      .cls-4 {
        fill: #cc8c87;
      }

      .cls-5 {
        fill: #a86260;
      }

      .cls-6 {
        fill: #bf6c67;
      }

      .cls-7 {
        fill: #edb0a9;
      }

      .cls-8 {
        fill: #e8a79e;
      }

      .cls-9 {
        fill: #f7cbc9;
      }
    </style>
  </defs>
  <g id="Capa_1-2" data-name="Capa_1">
    <g>
      <g>
        <path class="cls-8" d="M571.9062,152.958c-23.16,38.09-10.2848,65.3448-3.4048,110.6548,3.22,21.23,7.61,42.49,11.1699,63.07,5.52,31.86,8.76,63.9,10.49,96.06,5.8301,108.71-5.75,218.8-5.73,328.11.01,50,2.4,100.61-8.28,149.46-10.6699,48.8601-36.5898,96.9501-80.1099,121.5901-33.08,18.74-72.36,22.0699-110.22,25.47-54.35,4.88-109.13,10.75-163.3199,4.41-54.2-6.34-108.69-26.17-146.42-65.5699-11.24-11.7401-20.68-24.8901-28.55-38.9801-14.05-25.1901-23.05-53.42-28.23-82.16-1.28-7.06-2.32-14.16-3.15-21.24-6.1-52.06-1.79-104.68-.09-157.06,4.0719-125.4627-4.9061-251.991,15.5948-376.4373,10.9381-66.3972,39.5068-132.3405,5.7575-197.3928-7.4915-14.4399-17.6364-27.7498-21.9725-43.4288-4.336-15.679-.8022-35.3215,13.4553-43.1545,12.0162-6.6016,27.7422-2.3393,37.9562,6.8064s15.9876,22.175,20.6913,35.0531c9.0066,24.6592,15.2166,50.5925,16.1333,76.9055.9479,27.21-2.4042,54.2264.6141,81.4683.88,8.0099,3.73,18.02,11.74,18.96,7.21.84,12.42-6.68,15.08-13.43,17.72-44.99-5.14-97.65.54-145.13,1.64-13.76,6.22-29.7,19.29-34.32,18.64-6.58,34.98,15.93,37.15,35.58,4.81,43.53-21.65,87.8-9.71,129.94,3.08,10.9,13.34,22.87,23.63,18.14,5.28-2.44,7.87-8.41,9.41-14.02,12.29-44.78-13.1-91.6-9.94-137.94.93-13.63,6.42-29.34,19.58-33,18.45-5.14,32.81,17.55,33.92,36.67,2.33,39.85-21.31,77.59-20.1,117.4901.48,15.8199,9.14,34.91,24.97,34.66,16.11-.25,23.92-19.81,25.58-35.84,2.62-25.31.35-51.13-6.65-75.59-4.69-16.41-11.56-32.77-10.51-49.8,1.05-17.03,13.61-35.06,30.67-34.65,14.98.36,26.44,14.91,28.92,29.68,2.48,14.78-1.7,29.75-5.21,44.32-9.52,39.49-13.69,83.73,7.38,118.46,2.34,3.86,5.29,7.79,9.62,9.08,11.06,3.29,18.09-11.61,19.53-23.06,5.11-40.63,3.94-82.04-3.44-122.32-3.43-18.7-4.38-44.34,13.79-49.92,19.33-5.93,32.87,19.19,35.94,39.17,5.59,36.3101,4.9,73.57-2.03,109.65-2.4,12.5-5.5,25.65-1.37,37.69,4.14,12.04,19.08,21.29,29.87,14.54,6.97-4.37,9.3701-13.25,10.77-21.36,6-34.78,4.01-70.91-5.78-104.82-5.02-17.36-12.12-34.69-11.2-52.74.91-18.05,13.19-37.29,31.22-38.4,19.96-1.22,34.5,19.52,38.62,39.08,9.84,46.62-14.66,92.95-21.15,140.15-1.28,9.3-1.33,20.12,5.6,26.44,8.23,7.51,22.31,3.98,29.67-4.38,7.3601-8.36,9.76-19.85,11.89-30.79,7.9601-40.8101,1.6692-81.4496,9.6291-122.2596,3.21-16.49,15.0603-76.4157,48.5217-68.8696,22.682,5.1152,21.4488,38.087,18.2609,61.0435-3.1987,23.0335-14.0169,58.3909-26.087,78.2609Z"/>
        <path class="cls-9" d="M574.055,13c1.8201-.0005,3.7104.21,5.6772.6538,22.6821,5.1152,21.4487,38.0869,18.2607,61.0435-3.1982,23.0332-14.0166,58.3906-26.0867,78.2607-23.1602,38.0898-10.2849,65.3447-3.4048,110.6548,3.22,21.23,7.6099,42.4897,11.1699,63.0698,5.52,31.8604,8.76,63.9004,10.49,96.0601,5.8301,108.71-5.75,218.8003-5.73,328.1099.01,50,2.3999,100.6104-8.28,149.46-10.6699,48.8604-36.5898,96.9502-80.1099,121.5903-33.0801,18.7397-72.3601,22.0698-110.2202,25.4697-37.3721,3.356-74.9495,7.1797-112.3967,7.1797-17.012,0-33.9954-.7891-50.9231-2.7695-54.2-6.3398-108.6899-26.1699-146.4202-65.5698-11.24-11.7402-20.6799-24.8901-28.5498-38.98-14.05-25.1904-23.05-53.4204-28.23-82.1602-1.28-7.0601-2.3201-14.1602-3.1501-21.2397-6.0999-52.0601-1.79-104.6802-.0898-157.0601,4.0718-125.4629-4.9062-251.9912,15.5947-376.4375,10.938-66.397,39.5068-132.3403,5.7576-197.3926-7.4915-14.4399-17.6365-27.75-21.9727-43.4287-4.3359-15.6792-.802-35.3218,13.4556-43.1548,4.0212-2.2095,8.458-3.2017,12.9646-3.2017,8.9597,0,18.1956,3.9233,24.9915,10.0083,10.2139,9.1455,15.9875,22.1748,20.6912,35.0532,9.0066,24.6592,15.2168,50.5923,16.1333,76.9053.948,27.21-2.4041,54.2266.6143,81.4683.8799,8.0098,3.73,18.02,11.74,18.96.3723.0435.7405.0645,1.1021.0645,6.6401,0,11.4553-7.0933,13.9778-13.4946,17.72-44.9897-5.1399-97.6499.54-145.1299,1.6401-13.7598,6.22-29.6997,19.29-34.3198,2.2583-.7974,4.4832-1.1675,6.6528-1.1675,15.7388,0,28.5901,19.478,30.4971,36.7476,4.8101,43.5298-21.6499,87.7998-9.71,129.9399,2.6047,9.2183,10.3455,19.2021,18.896,19.2021,1.5598,0,3.1462-.332,4.7341-1.062,5.28-2.4404,7.8699-8.4102,9.4099-14.02,12.29-44.7803-13.1001-91.6001-9.9399-137.9404.9299-13.6299,6.4199-29.3398,19.5801-33,1.803-.5024,3.5674-.7388,5.2837-.7388,15.8467,0,27.6348,20.1572,28.6362,37.4092,2.3301,39.8496-21.3101,77.5898-20.1001,117.4897.4768,15.7163,9.0293,34.6626,24.6626,34.6626.1028,0,.2039-.001.3074-.0024,16.1101-.25,23.9202-19.8101,25.5801-35.8403,2.6201-25.3096.3501-51.1299-6.6499-75.5898-4.6902-16.4102-11.5601-32.77-10.51-49.7998,1.0381-16.8389,13.3315-34.6567,30.0991-34.6567.1904,0,.3792.0024.5708.0068,14.98.3599,26.4399,14.9097,28.9199,29.6797,2.48,14.7803-1.7,29.75-5.21,44.3203-9.52,39.4897-13.6899,83.73,7.3801,118.46,2.3398,3.8599,5.2898,7.79,9.6199,9.0796,1.0605.3154,2.0847.4639,3.0696.4639,9.2878,0,15.1584-13.1714,16.4604-23.5234,5.1101-40.6304,3.9399-82.04-3.4399-122.3203-3.4299-18.6997-4.3801-44.3398,13.79-49.9199,1.9609-.6016,3.8652-.8838,5.7019-.8838,16.2703,0,27.4795,22.1006,30.238,40.0537,5.5901,36.3101,4.8999,73.5703-2.03,109.6499-2.3999,12.5-5.5,25.6504-1.3701,37.6904,3.1736,9.229,12.6938,16.8188,21.8257,16.8188,2.7812,0,5.5254-.7036,8.0444-2.2793,6.97-4.3696,9.3701-13.25,10.77-21.3599,6-34.7798,4.01-70.9097-5.78-104.8198-5.02-17.3599-12.1199-34.6899-11.2-52.7402.9099-18.0498,13.1899-37.29,31.22-38.3999.5615-.0342,1.1221-.0513,1.675-.0513,19.0979,0,32.9409,20.1216,36.9448,39.1313,9.8401,46.6201-14.6599,92.9502-21.1499,140.1499-1.28,9.3003-1.3301,20.1201,5.6001,26.4399,3.135,2.8608,7.1194,4.1196,11.2571,4.1196,6.7251,0,13.8562-3.3242,18.4128-8.4995,7.3601-8.3599,9.76-19.8501,11.8899-30.79,7.9602-40.8101,1.6692-81.4497,9.6292-122.2593,3.0212-15.521,13.6987-69.5215,42.8445-69.5234M574.0572,0v13l-.0005-13h-.0029c-10.2344.0005-19.8804,4.3677-27.895,12.6294-5.7432,5.9199-10.8745,14.0435-15.2512,24.144-7.3271,16.9111-10.9224,35.3794-12.4575,43.2661-4.1936,21.5005-4.6296,42.7739-5.0513,63.3462-.4172,20.3667-.8115,39.604-4.5769,58.9082-1.7104,8.7852-3.6479,18.7368-8.8875,24.6885-2.1204,2.4082-5.6797,4.0898-8.6555,4.0898-1.1299,0-1.969-.2432-2.4946-.7222-.9526-.8691-2.9973-4.0698-1.4841-15.0649,2.1348-15.5259,6.3054-30.8921,10.7212-47.1597,8.5286-31.4219,17.3479-63.9131,10.2698-97.4478-2.5562-12.1362-8.1187-23.6694-15.6614-32.4697-9.3838-10.9473-21.4595-16.9766-34.0032-16.9766-.8176,0-1.6479.0254-2.4683.0757-24.4529,1.5049-40.6453,24.6978-43.1421,47.3843-1.9104-4.6768-4.2021-9.0732-6.781-12.9404-8.2058-12.3052-19.2156-19.082-31.0017-19.082-3.165,0-6.366.4897-9.5144,1.4556-9.3062,2.8579-22.6492,11.2822-24.6931,36.0234-.1001-.7681-.2144-1.5361-.3438-2.3062-1.6753-9.978-6.2893-19.5156-12.9924-26.8579-7.8157-8.5605-17.9146-13.4146-28.436-13.667-.2937-.0073-.5872-.0107-.8831-.0107-18.0649,0-31.9146,12.8823-38.6516,28.5825-.8882-1.5513-1.8398-3.0522-2.8499-4.4907-8.0442-11.4556-18.8845-17.7642-30.5242-17.7642-2.9246,0-5.876.4092-8.7717,1.2153-9.5386,2.6533-17.3022,9.3398-22.447,19.3354-.7546,1.4668-1.4268,2.9502-2.0251,4.4346-7.7175-13.6616-20.3213-24.1138-35.5068-24.1138-3.6978,0-7.3918.6421-10.98,1.9087-6.3909,2.2593-15.2766,7.6328-21.3469,20.4146-3.1797,6.6948-5.3748,14.98-6.5247,24.6255-2.5332,21.1768.1301,42.8052,2.7061,63.7207,3.4741,28.21,6.7556,54.855-2.4331,78.1836-.3379.8574-.6907,1.6177-1.0383,2.2803-.2922-1.1875-.5657-2.665-.7634-4.4653-1.7034-15.3726-1.261-30.6567-.7927-46.8384.3169-10.9546.6448-22.2817.2483-33.6631-.8843-25.3813-6.575-52.604-16.9146-80.9126-5.2375-14.3408-11.7983-29.1465-24.2302-40.2783-9.4561-8.4673-21.7258-13.3232-33.6633-13.3232-6.949,0-13.4172,1.6177-19.2244,4.8081C12.9542,20.2856,5.855,29.7441,2.6475,41.5996-.0356,51.5171.0584,62.6611,2.9117,72.979c3.429,12.3989,9.6655,22.9448,15.697,33.144,2.6067,4.4082,5.0688,8.5718,7.2656,12.8066,24.0728,46.4004,13.4077,94.0034,2.1162,144.4014-3.28,14.6406-6.6719,29.7798-9.1614,44.8911-14.3828,87.3066-14.4304,176.543-14.4768,262.8408-.0203,37.8545-.0413,76.998-1.2839,115.2881-.3381,10.4214-.7893,21.061-1.2253,31.3506-1.771,41.7773-3.6025,84.9771,1.3967,127.644.8826,7.5293,1.9829,14.9463,3.2705,22.0464,5.8264,32.3286,15.8091,61.3257,29.6677,86.1733,8.6907,15.5591,18.9553,29.5659,30.5132,41.6377,19.1106,19.9565,43.1121,36.1582,71.3386,48.1562,25.0505,10.6479,52.9629,17.8262,82.9612,21.3354,16.4338,1.9224,33.5852,2.8574,52.4333,2.8574,34.0908,0,68.4873-3.1323,101.7512-6.1616,3.938-.3584,7.8743-.7168,11.8083-1.0703l1.3848-.124c38.8181-3.4834,78.958-7.0854,114.0806-26.9824,22.5005-12.7393,41.6758-31.626,56.9905-56.1343,13.3289-21.3306,23.4993-46.917,29.4124-73.9937,9.3459-42.748,9.0159-86.7017,8.6965-129.208-.0566-7.561-.1157-15.3794-.1172-23.0278-.0078-43.4473,1.8647-87.8813,3.6758-130.853,2.7368-64.9448,5.5669-132.1011,2.0356-197.9507-1.8921-35.1753-5.3799-67.0947-10.6624-97.583-1.354-7.8281-2.8503-15.8779-4.2971-23.6631-2.3865-12.8398-4.8542-26.1172-6.8289-39.1372-1.4111-9.292-3.0247-17.6265-4.585-25.687-5.8352-30.1436-9.6902-50.0571,6.2446-76.2642,13.2268-21.7744,24.5486-59.4141,27.8552-83.2271,2.3271-16.7583,2.4863-30.2734.4863-41.3164-1.4951-8.2549-4.2642-15.2129-8.23-20.6802-5.041-6.9497-12.1416-11.6235-20.5334-13.5161-2.8616-.645-5.7332-.9722-8.5352-.9722h0ZM342.5482,232.1577c-.3767-.5132-.8408-1.2021-1.3997-2.124-15.438-25.4463-17.3538-60.9927-5.8591-108.6738.2771-1.1504.5579-2.3008.8394-3.4536,2.0623-8.4517,4.2913-17.5854,5.1294-27.0757.3574,3.7329.9146,7.7231,1.6968,11.9873,7.166,39.1133,8.2861,78.9336,3.3281,118.3525-.605,4.8101-2.3384,8.8433-3.7349,10.9873h0ZM423.897,240.8818c-3.0642,0-7.9995-3.5889-9.5325-8.0464-2.6843-7.8267-.7573-17.6865,1.283-28.125.1887-.9658.3767-1.9282.5608-2.8867,5.196-27.0532,7.0317-54.4438,5.4995-81.7754.9634,3.0757,1.8779,6.0205,2.7354,8.9858,9.228,31.9644,11.1157,66.1992,5.4575,98.9985-1.2207,7.0728-2.8577,11.2974-4.8645,12.5552-.2388.1499-.5508.2939-1.1392.2939h0ZM259.5442,227.1953c-6.1948,0-11.3594-11.8569-11.6687-22.0566-.5315-17.5283,4.4089-35.0518,9.6394-53.6045,2.3955-8.4966,4.8245-17.1123,6.7546-25.8926.7053,2.2656,1.3789,4.4766,2.0125,6.6938,6.5032,22.7231,8.6531,47.1621,6.2185,70.6782-1.2227,11.8071-6.3638,24.0801-12.8508,24.1807l-.1055.001h0ZM196.8553,224.0195c-1.7754-1.2383-4.6929-4.8647-5.9636-9.3618-5.6877-20.0732-1.1035-41.748,3.75-64.6948.2097-.9912.4199-1.9849.6294-2.9795.0105.0527.0208.104.031.1567,5.0098,25.3491,9.7417,49.2925,3.583,71.7324-.7983,2.9077-1.5559,4.4126-2.0298,5.147h0Z"/>
      </g>
      <path class="cls-2" d="M457.2314,802.7427c-4.02,18.89-11.71,37.58-25.55,51.06-27.93,27.21-71.66,26.45-110.63,28.06-27.02,1.13-54.04,4.23-81.05,2.78-27.01-1.44-54.55-7.82-76.39-23.78-12.86-9.4-23.11-21.94-30.34-36.1-4.75-9.3-8.2-19.3-10.23-29.58-1.86-9.46-2.53-19.16-1.91-28.77,4.46-69.04,75.61-137.34,146.83-112.2599,16.68,5.88,31.41,16.25,47.18,24.23,4.87,2.46,9.85,4.7,15.01,6.5,32.97,11.52,72.59,5.16,100.75,25.35.59.42,1.17.85,1.75,1.3,5.74,4.42,10.47,9.6899,14.28,15.58,13.73,21.15,15.71,50.2,10.3,75.63Z"/>
      <path class="cls-7" d="M33.2106,568.0015c.7509-22.2369.304-39.2766,0-50.8696-1.1318-43.1617-4.5803-52.7426-3.1304-83.7391,1.9182-41.0068,9.2701-52.3811,14.8696-58.6956,7.6186-8.5914,22.7963-19.9988,35.2174-15.6522,16.7016,5.8445,18.322,36.6385,18.7826,45.3913,1.2773,24.2734-6.2015,40.0787-15.6522,65.7391-13.912,37.774-21.5333,58.4675-25.0435,82.9565-7.9803,55.6745,10.3779,95.4552-5.4783,103.3043-4.9125,2.4318-11.1293.8186-14.8696-1.5652-13.2277-8.4304-6.4969-33.5202-4.6956-86.8696Z"/>
      <path class="cls-7" d="M46.4499,712.0055c-.3847-.0145-.7753.0094-1.1713.0755-7.2468,1.2101-8.7101,16.1455-9.2905,21.9103-1.5582,15.4763-1.2769,31.0719-.9939,46.6239.4947,27.1869,1.0051,54.5315,6.1133,81.2388,3.7363,19.5346,10.2873,39.2385,23.7132,53.9118,5.1008,5.5747,12.5358,10.6242,19.7394,8.3431,6.3645-2.0154,9.859-9.3386,9.4581-16.0025-.4009-6.6639-3.8365-12.741-7.5508-18.2884-11.7591-17.5623-27.5186-33.2815-33.0078-53.6918-9.6253-35.7898,15.2928-74.3993,4.8374-109.9552-1.3095-4.4532-5.8715-13.9406-11.8472-14.1655Z"/>
      <path class="cls-7" d="M39.3158,94.2151c-2.2079-2.5574-4.3835-5.1405-6.4373-7.8162-9.0687-11.8148-20.8263-33.8166-1.6101-42.2687,4.3622-1.9187,10.3809-.9694,12.5352,3.2814,2.3324,4.6023-.7905,9.9174-2.0363,14.9243-2.184,8.7777,1.637,17.8376,5.6669,25.9356,4.0298,8.098,8.4854,16.6447,7.6195,25.6484-4.5182-7.1017-10.2284-13.3232-15.7379-19.7048Z"/>
      <path class="cls-3" d="M584.4314,750.8527c.01,50,2.4,100.61-8.28,149.46-10.6699,48.8601-36.5898,96.9501-80.1099,121.5901-33.08,18.74-72.36,22.0699-110.22,25.47-54.35,4.88-109.13,10.75-163.3199,4.41-54.2-6.34-108.69-26.17-146.42-65.5699-31.32-32.7101-48.7-76.3201-56.78-121.1401,16.74,37.6201,37.49,79.36,80.43,90.32,29.29,7.48,65.27-.29,100.17-7.8301,40.25-8.6899,40.62-15.7,78.27-23.47,61.38-12.6799,71.63,3.66,112.69-10.96,11.91-4.24,54.34-21.04,79.83-62.61,14.4-23.49,17.95-48.01,25.04-97.04,4.3999-30.38,5.4399-52.24,6.26-65.74.8-13.12,2.1899-31.88,21.9099-161.22,16.48-108.06,24.9102-156.67,28.1801-175.3,6.78-38.67,12.11-66.9399,16.42-87.61,3.22,21.23,7.61,42.49,11.1699,63.07,24.1801,139.57,4.74,282.52,4.76,424.17Z"/>
      <path class="cls-4" d="M584.4314,750.8527c.01,50,2.4,100.61-8.28,149.46-10.6699,48.8601-36.5898,96.9501-80.1099,121.5901-33.08,18.74-72.36,22.0699-110.22,25.47-54.35,4.88-109.13,10.75-163.3199,4.41-54.2-6.34-108.69-26.17-146.42-65.5699-11.24-11.7401-20.68-24.8901-28.55-38.9801,9.64,7.9501,21.04,16.53,34.59,25.38,26,16.98,46.25,26.02,54,29.3501,12.81,5.49,41.67,17.6699,76.31,22.2999,32.98,4.41,62.35-1.6901,119.74-14.09,57.66-12.4501,87-19.01,111.52-35.21,11.9901-7.9301,43-30.3801,64.5601-70.4401,14.1499-26.28,18.76-59.09,27.3899-123.65,5.8101-43.44,3.6101-42.11,9.4001-83.74,6.1099-43.96,9.7799-54.17,19.5599-111.91,8.2001-48.4,7.1-50,14.87-97.83,4.0801-25.14,7.5801-46.68,10.6899-64.65,5.8301,108.71-5.75,218.8-5.73,328.11Z"/>
      <path class="cls-1" d="M165.7323,687.5694c12.9018-11.5667,19.3527-17.35,30-22.4348,3.1268-1.4932,17.605-8.2,38.0869-9.3913,9.3048-.5412,23.33-1.2021,38.8696,5.4783,8.8649,3.811,20.2471,8.704,22.174,19.0435,1.2086,6.4852-1.4851,14.1339-6.7826,18.2609-5.239,4.0814-10.7433,2.9411-28.174,1.3044-1.0658-.1001-22.4448-2.0859-36.5217-2.3478-20.3971-.3796-29.0861,1.444-31.8261,2.087-11.3018,2.6523-16.9527,3.9784-21.1304,7.9565-2.7161,2.5863-5.9118,6.866-11.3478,7.5652-1.0446.1344-3.7631.4468-5.3478-1.174-.3195-.3267-1.7973-1.9638-.7827-6.6522,2.2115-10.2184,12.7826-19.6956,12.7827-19.6956Z"/>
      <path class="cls-1" d="M147.341,720.9607c-2.6923.2905-4.9382,1.801-7.5652,4.6956-3.1719,3.4949-5.9853,8.0002-8.7391,16.0435-3.2874,9.6016-4.9928,14.8347-2.6087,20.2173.5113,1.1544,2.4381,5.5046,6.3913,6.2609,3.7568.7187,6.946-2.2671,7.4348-2.7391,2.2775-2.1996,2.3105-4.281,4.0435-12.3913,1.8016-8.4317,2.7023-12.6475,4.174-15,2.0243-3.236,3.8986-4.3935,4.5652-7.9565.238-1.2721.894-4.7784-1.3043-7.174-2.2094-2.4077-5.7697-2.0236-6.3913-1.9565Z"/>
      <path class="cls-7" d="M133.4823,89.6319c.1649-2.2606.7338-8.0627,3.5217-15.6522,3.0029-8.1745,5.1337-13.9749,10.8587-17.2174,3.7937-2.1486,7.3808-2.1632,8.7065-2.1522,1.5258.0127,5.723.0477,6.5543,2.1522.5034,1.2742-.4401,2.7678-.9783,3.6196-1.6355,2.5889-4.0747,3.6959-5.4782,4.4022,0,0-2.5575,1.287-9,6.3587-8.3823,6.5988-11.0623,17.4136-11.9348,20.9348-1.2289,4.9593-1.2208,8.7261-1.663,8.7065-.5402-.0239-.9873-5.6638-.587-11.1522Z"/>
      <path class="cls-6" d="M457.2314,802.7427c-4.02,18.89-11.71,37.58-25.55,51.06-27.93,27.21-71.66,26.45-110.63,28.06-27.02,1.13-54.04,4.23-81.05,2.78-27.01-1.44-54.55-7.82-76.39-23.78-21.3-15.58-35.45-39.74-40.57-65.68,9.42,13.57,23.49,29.42,45.04,37.08,13.33,4.74,27.32,4.03,55.3,2.61,31.81-1.61,39.6201-5.79,84-11.48,49.63-6.37,47.25-2.09,60-7.3,27.82-11.3701,57.44-39.15,63.66-73.57,2.21-12.29,1.08-23.35-.14-32.29.59.42,1.17.85,1.75,1.3,26.33,20.28,31.5,58.7,24.58,91.21Z"/>
      <path class="cls-5" d="M457.2314,802.7427c-4.02,18.89-11.71,37.58-25.55,51.06-27.93,27.21-71.66,26.45-110.63,28.06-27.02,1.13-54.04,4.23-81.05,2.78-27.01-1.44-54.55-7.82-76.39-23.78-12.86-9.4-23.11-21.94-30.34-36.1,4.68,5.96,11.25,13.29,20.85,19.89,15.25,10.48,30.45,13.81,47.74,17.61,18.67,4.1,33.29,4.51,41.48,4.7,25.01.57,44.97-2.98,56.22-5.48,12.61-2.81,10.71-3.66,31.3-8.87,25.89-6.55,31.86-6.14,47.48-10.96,20.31-6.26,34.08-10.5,46.43-22.4301,18.49-17.85,21.98-41.49,23.48-51.66,2.35-15.86.8799-29.71-1.32-40.45,13.73,21.15,15.71,50.2,10.3,75.63Z"/>
      <path class="cls-7" d="M211.229,62.6319c1.6116-6.4141,8.6965-9.4721,9.1304-9.6522,1.2115-.5029,4.8067-1.9384,8.8696-.8478.7816.2098,4.3194,1.1595,4.5,3.0652.1582,1.6689-2.3498,3.1034-2.7391,3.3261-1.9343,1.1064-3.0445.6572-5.6087,1.1087-1.7169.3023-6.8484,1.2058-9.1956,4.7609-1.0006,1.5154-1.3583,3.3052-2.8696,3.6522-.1001.023-.9672.2093-1.6304-.2609-1.4863-1.0536-.6284-4.468-.4565-5.1522Z"/>
      <path class="cls-7" d="M209.3377,72.6102c-1.2213-.0219-2.1257,1.5498-2.6087,2.413-1.2887,2.3035-1.1934,3.909-1.6957,7.1087-.8923,5.6836-2.2589,7.4075-.9782,9.5217.162.2675,1.0194,1.6193,2.0869,1.5652.5578-.0283,1.2996-.4468,2.2174-2.413,1.554-3.3293.6927-4.8407,1.5-8.8696.8556-4.2701,2.5146-6.0235,1.3696-7.9565-.0702-.1186-.8215-1.3504-1.8913-1.3696Z"/>
      <path class="cls-7" d="M273.1529,74.4689c-.275-6.1273,2.6702-13.7038,8.4131-19.4674,5.4095-5.429,11.0117-6.9517,12.6196-7.3369,5.0555-1.2111,7.9674-.1232,9.0978.3913,1.0476.4769,3.3069,1.5052,3.5218,3.2283.3389,2.7184-4.6452,5.2862-5.9674,5.9674-2.8745,1.4809-3.6849,1.0175-6.8478,2.3478-1.8885.7943-5.2437,2.2055-7.7283,5.1848-2.6127,3.1328-3.4282,6.9989-4.3044,11.1522-.9066,4.2975-.7256,6.6003-2.1522,7.1413-1.5004.569-3.5744-1.2678-4.5-2.3478-1.0504-1.2257-2.0102-3.0971-2.1522-6.2609Z"/>
      <path class="cls-7" d="M359.5333,64.3928c-1.3782-2.6698,2.5206-7.5067,6.0652-9.9783.6246-.4355,3.4225-2.3206,7.6305-2.837,3.7577-.4611,8.9422.1323,9.2935,1.8587.2761,1.3568-2.4568,3.2982-4.8913,4.1087-3.6037,1.1997-4.7475-.68-7.5326.2935-4.6914,1.6398-5.0774,8.2423-8.2174,8.1196-1.0414-.0407-1.9551-.8044-2.3478-1.5652Z"/>
      <path class="cls-7" d="M359.0116,69.871c-.8504-.0498-1.606,1.1093-1.8913,1.8913-.4353,1.1932-.3522,3.0878.7826,3.587.9433.4149,2.2741-.2836,2.8044-1.2391.9133-1.6457-.4845-4.1682-1.6956-4.2391Z"/>
      <path class="cls-7" d="M429.6278,78.066c-.0056-.0668-.0109-.1337-.016-.2005-.5474-7.196,1.5235-14.264,3.8649-20.9852.9635-2.7657,1.7094-5.5432,3.2794-8.0643,1.5526-2.493,3.5956-4.6779,5.9543-6.4251,4.3212-3.2007,9.6211-4.9522,14.9778-5.4243,3.1019-.2734,6.27-.1275,9.256.7558,1.5966.4723,3.3156,1.3564,3.7336,2.968.1945.7495.0682,1.5433-.1108,2.2966-.338,1.4224-.8708,2.8176-1.738,3.9947-1.7001,2.3077-4.4993,3.5452-7.2785,4.2468-2.7791.7016-5.6649.9705-8.3916,1.8543-6.2958,2.0406-11.2136,7.2679-14.0375,13.2535-2.824,5.9856-3.7617,12.6918-4.0215,19.305-.0201.5101-.0409,1.039-.2716,1.4944-.2308.4554-.7366.815-1.2352.7049-.3705-.0818-.6426-.3907-.8726-.6926-1.9648-2.5789-2.8227-5.8477-3.0927-9.0822Z"/>
      <path class="cls-7" d="M548.3377,37.3928c4.0719-10.3887,12.5217-16.2391,12.5217-16.2391,4.8846-3.382,9.0629-4.3888,9.9783-4.5978,1.6628-.3797,4.1289-.9191,7.337-.4891,3.1855.427,5.3987,1.5815,6.6522,2.25,2.7421,1.4625,4.1905,2.2351,4.5,3.7174.4818,2.3074-2.0537,5.1013-4.6957,5.9674-1.8032.5911-2.4236-.1199-5.7717-.2935-1.2163-.0631-4.9752-.1684-9.0978,1.1739-2.6598.866-4.4887,2.0148-7.0435,3.6196-2.3939,1.5037-4.1567,2.9099-5.2826,3.8152-2.1191,1.7039-3.1786,2.5559-4.2065,3.7174-3.3825,3.8219-3.7145,7.3863-4.6956,7.2391-.8871-.1331-1.2249-3.1387-1.174-5.087.0617-2.3586.7183-4.1302.9783-4.7935Z"/>
      <path class="cls-7" d="M546.3811,50.5993c-.8893-.9727-2.755-1.0492-3.913-.3913-1.7176.9758-1.2028,3.1832-2.3478,7.7283-1.2167,4.8292-2.48,5.0447-3.0326,9.0978-.181,1.3275-.8593,6.3036.9783,7.1413,1.3817.6299,3.8879-1.2158,5.1848-3.3261,1.6337-2.6584.4543-4.2823.9783-9,.7346-6.6145,3.7304-9.5237,2.1522-11.25Z"/>
    </g>
  </g>
</svg>