<?xml version="1.0" encoding="UTF-8"?>
<svg id="Capa_2" xmlns="http://www.w3.org/2000/svg" viewBox="0 0 1659.3608 225.0217">
  <defs>
    <style>
      .cls-1 {
        fill: #70569b;
      }

      .cls-2 {
        fill: #9570c2;
      }

      .cls-3 {
        fill: #b29ad8;
      }

      .cls-4 {
        fill: #604593;
      }

      .cls-5 {
        fill: #47327c;
      }

      .cls-6 {
        fill: #a486ce;
      }

      .cls-7 {
        fill: #735aaf;
      }

      .cls-8 {
        fill: #8566b2;
      }
    </style>
  </defs>
  <g id="Capa_1-2" data-name="Capa_1">
    <g>
      <g>
        <path class="cls-2" d="M1605.8456,221.0144c-4.374.0005-13.8379-1.9326-29.5176-5.1348-39.0566-7.9775-111.7568-22.8252-201.0107-26.4468-16.0156-.6499-32.8262-.9663-51.3926-.9663-56.5684,0-118.833,3.0171-184.7539,6.2114-76.9961,3.731-156.6143,7.5894-241.0576,7.5894-7.3867,0-14.7979-.0303-22.0273-.0908-60.1133-.5068-139.6294-5.936-223.8145-11.6841-103.3882-7.0596-220.5708-15.0605-324.2949-15.3862-1.8789-.0059-3.7681-.0083-5.6401-.0083-64.2627,0-131.9087,3.2866-201.0952,9.771l-.1509.1572-1.5527.0093c-6.8149.6338-13.2861,1.2837-18.1729,1.7803-32.2554,3.2915-57.0469,6.4609-73.4521,8.5581-12.043,1.5396-17.0073,2.1646-18.9556,2.1646-.6699.0005-1.5542-.0645-2.4487-.5703-1.8296-1.0317-2.7646-2.9062-2.437-4.8901.4888-2.9604,2.5029-5.6533,24.0898-13.3828,13.5049-4.8359,32.165-10.6772,53.9629-16.8936,49.6304-14.1528,104.6396-27.2671,150.9243-35.9805,31.5093-5.9312,58.4282-10.0693,80.0581-13.394,20.9331-3.2173,40.8818-6.2837,48.3135-8.8682-5.0786-2.3018-18.7764-6.6558-55.4351-14.1157-32.0596-6.5244-72.7251-13.6523-108.6035-19.9414-26.3579-4.6201-51.2544-8.9839-69.231-12.4897-9.6406-1.8804-16.6914-3.395-21.5552-4.6304-6.7764-1.7212-10.9277-2.9775-10.8931-6.9375.0435-4.7148,5.769-4.7148,7.9248-4.7148,4.5806,0,12.459.6304,24.3843,1.585,28.8564,2.3091,77.1543,6.1738,142.5703,6.1738,24.7427,0,49.9722-.5693,74.9883-1.6924,70.0718-3.147,140.7842-12.1064,209.1685-20.7705,85.4331-10.8247,173.7744-22.0176,261.8408-22.0176,14.0234,0,27.9385.2852,41.3584.8477,90.3135,3.7778,180.6475,19.2642,268.0068,34.2402,38.9297,6.6738,79.1855,13.5747,118.8613,19.3379,70.2275,10.2017,141.0781,15.3745,210.583,15.3745,21.125,0,42.5674-.4751,63.7344-1.4121,1.4883-.0674,7.793-.5894,16.5195-1.3115,21.6836-1.7949,62.0439-5.1353,88.5762-6.3979,7.25-.3516,13.1514-.5303,17.5342-.5303,7.2324,0,12.9473.0005,13.5586,4.5786.1221.8882-.0264,1.7988-.4326,2.645-.2549.54-.5635.937-.7773,1.1924l-.0684.0801c-1.1836,1.3398-3.6475,4.1289-30.7305,11.6577-39.0498,10.8335-116.9092,27.6162-202.8311,40.6909-20.126,3.0581-34.1172,5.1997-44.8066,7.0283-13.29,2.2593-21.8252,4.2061-25.4922,5.811,13.998,4.9785,64.3984,18.5503,109.4473,30.6807,35.2061,9.4805,71.6113,19.2837,99.8545,27.3374,49.0801,13.9966,50.3896,16.1226,51.6572,18.1787.0283.043.1836.2812.3311.6367.2256.5303.3447,1.105.3447,1.6753v.269l-.0361.3066c-.166,1.23-1.0762,4.0898-5.9258,4.0898Z"/>
        <path class="cls-3" d="M816.5803,8.0144c13.708,0,27.4243.2673,41.1891.8445,130.2799,5.4502,257.7899,34.8501,386.46,53.54,70.3318,10.2166,140.5033,15.4163,211.1583,15.4163,21.2555,0,42.5499-.4705,63.9116-1.4163,5.51-.25,68.12-5.95,105.11-7.71,6.8251-.3311,12.7802-.5254,17.3424-.5256,5.9124,0,9.4861.3267,9.5876,1.1057.02.1199-.01.25-.0798.3899-.0499.1101-.1301.22-.2302.3401-1.8899,2.1399-12.1799,5.8298-28.7999,10.45-40.1901,11.1499-117.39,27.6599-202.36,40.5901-19.35,2.9399-33.9501,5.1699-44.88,7.0398-24.88,4.2302-30.8401,6.6001-30.8201,11.28.03,4.8401,258.64,68.8101,263.55,76.78.02.03.04.0601.05.0901.0199.04.0299.0801.0299.1199v.04c-.0569.4224-.7181.6184-1.9539.6184-14.3865,0-106.6619-26.5596-230.3661-31.5784-16.6241-.675-33.833-.9697-51.5577-.9697-121.3624-.0012-267.5813,13.8008-425.8029,13.8008-7.3112,0-14.6383-.0295-21.9994-.0911-134.0903-1.1299-360.1901-26.48-548.13-27.0701-1.8886-.0056-3.7767-.0085-5.6575-.0085-77.5391,0-148.3178,4.7737-202.9525,9.9287-.01.01-.03.01-.04.01-6.35.5898-12.48,1.2-18.38,1.7998-53.2253,5.4316-87.4969,10.7021-92.0029,10.7021-.2561,0-.4153-.0171-.4771-.052-9.17-5.1699,119.5-43.8,225.31-63.72,81.76-15.3901,133.98-18.9001,133.86-26.1101-.26-14.25-268-51.28-267.94-58.1699.0048-.52,1.3302-.7424,3.917-.7424,15.2823,0,74.6905,7.7585,166.9554,7.7585,23.0662,0,48.1677-.4841,75.1675-1.696,157.7834-7.0864,312.5696-42.7847,470.831-42.7847M816.5805,0c-88.3197,0-176.7891,11.209-262.3454,22.0493-68.305,8.6543-138.9357,17.6033-208.8452,20.7432-24.9566,1.1201-50.1257,1.6882-74.808,1.6882-65.2563,0-113.4541-3.8569-142.2511-6.1611-12.0216-.9622-19.9637-1.5977-24.7043-1.5977-1.8677,0-3.218.0952-4.3777.3088-5.1736.9521-7.5216,4.8923-7.5536,8.3748-.0243,2.7908,1.2077,6.5898,7.2145,8.8623,1.6034.6062,3.7946,1.2598,6.6989,1.9973,4.9375,1.2544,12.0605,2.7854,21.7752,4.6799,18.0146,3.5134,42.9293,7.8806,69.307,12.5039,34.9727,6.1304,74.6114,13.0784,106.2332,19.4624,17.0964,3.4514,30.2359,6.4019,40.1698,9.0193,1.2863.3389,2.4847.6641,3.6012.9751-9.2125,1.72-21.5134,3.6108-34.1987,5.5608-21.6591,3.3293-48.6147,7.4727-80.1893,13.4163-46.3991,8.7351-101.5391,21.8804-151.2818,36.0654-21.8811,6.2397-40.6284,12.1091-54.2148,16.9741-6.9734,2.4968-12.4702,4.6919-16.3375,6.5242-4.78,2.2646-9.5168,4.9001-10.3555,9.9785-.6002,3.6345,1.137,7.1814,4.4259,9.0354,1.7164.9719,3.3414,1.085,4.4132,1.085,2.1711,0,6.6998-.5647,19.4752-2.198,16.3836-2.0945,41.1425-5.2595,73.3414-8.5454,4.8089-.4888,11.1732-1.1282,17.9385-1.7583h2.9476l.316-.312c68.5877-6.3884,135.6427-9.627,199.3568-9.6267,1.873,0,3.7527.0027,5.6334.0083,103.5907.3257,220.7025,8.3218,324.028,15.3767,84.2486,5.7522,163.8248,11.1858,224.0587,11.6931,7.2502.0608,14.6746.0913,22.067.0913,84.5393,0,164.2031-3.8604,241.2441-7.594,65.87-3.1921,128.0868-6.2073,184.5586-6.2068,18.5179.0002,35.2764.3154,51.2325.9631,88.9333,3.6082,161.4279,18.4146,200.3745,26.3691,17.7089,3.6167,25.7311,5.2158,30.3168,5.2158,1.4694,0,2.6775-.1628,3.8019-.5132,3.3115-1.031,5.6467-3.7314,6.0945-7.0471l.072-.5339v-.5386c0-1.0881-.2068-2.1516-.6019-3.1348-.1946-.489-.4352-.9563-.7286-1.415-1.8683-2.9666-4.9482-4.762-18.8575-9.3196-8.2216-2.6938-19.6877-6.1333-35.0537-10.5154-28.2715-8.0623-64.6918-17.8694-99.9128-27.3538-35.6675-9.6042-74.7595-20.1309-96.1915-26.4917,3.3545-.6777,7.312-1.4045,11.8651-2.1787,10.678-1.8267,24.6471-3.9644,44.7405-7.0173,86.0908-13.1006,164.139-29.9268,203.2986-40.7905,28.2312-7.8481,30.8992-10.8684,32.6643-12.8674l.0789-.0891.0762-.0916c.5356-.644.9594-1.2974,1.2917-1.9922.7675-1.5889,1.0382-3.3198.7866-5.0242-.443-3.0881-2.4971-6.8696-9.6779-7.6511-1.9028-.207-4.4673-.3076-7.8401-.3076-4.447,0-10.4125.1799-17.7306.5349-26.5944,1.2654-65.4762,4.4834-88.7073,6.4062-8.3573.6917-14.9585,1.238-16.3776,1.3025-21.0981.9343-42.4818,1.4082-63.5483,1.4082-69.3092,0-139.9655-5.1589-210.0065-15.3333-39.6248-5.7556-79.8547-12.6523-118.7601-19.3218-87.4844-14.9976-177.9471-30.5056-268.5168-34.2944-13.4746-.5649-27.4454-.8513-41.5239-.8513h0Z"/>
      </g>
      <path class="cls-8" d="M1651.3393,69.269c.02.12-.01.25-.0798.39-.05.11-.1301.22-.2302.3401-6.3298,7.5999-110.4399,36.97-231.1599,51.0399-23.61,2.75-37.45,5.0399-44.88,7.0399-24.88,4.2301-30.84,6.6001-30.8199,11.28.03,4.8401,258.6399,68.8101,263.5499,76.78.02.03.04.0601.05.0901.0199.0399.0299.08.0299.1199v.04c-.72,5.3401-97.99-25.51-232.3199-30.96-135.71-5.51-309.4301,14.33-499.36,12.74-134.0901-1.13-360.19-26.48-548.13-27.0701-88.82-.27-169.14,5.8201-227.03,11.73,17.19-3.6799,36.4-7.4399,56.99-11.45,64.21-12.54,98.49-14.3099,278.6-27.3999,112.11-8.1401,153.72-11.4501,220.7-9.3901,25.88.8,51.16,2.6201,101.74,6.26,136.61,9.8401,156.39,16.24,228.52,18,70.01,1.7101,56.63-5.76,145.5699-3.9099,225.39,4.7,42.16-35.8,42.26-39.78.1101-4.21,34.8235,3.7809,113.4757,1.8244,46.3266-1.1524,78.3244-7.4578,112.3043-11.3478,50.39-5.77,79.1699-10.3066,95.0901-11.7366,47.22-4.26,91.6299-14.6699,128.2-25.21,15.6699-.76,26.75-.8,26.9299.58Z"/>
      <path class="cls-1" d="M1607.7694,216.2291c.0199.0399.0299.08.0299.1199v.04c-.72,5.3401-97.99-25.51-232.3199-30.96-135.71-5.51-309.4301,14.33-499.36,12.74-134.0901-1.13-360.19-26.48-548.13-27.0701-79.75-.24-152.65,4.6401-208.61,9.92,43.85-6.65,91.97-12.15,127.26-15.38,39.9-3.6599,76.19-4.9199,147.13-7.3101,157.83-5.2999,236.74-7.95,319.83-1.8199,82.12,6.05,84.5901,12.35,179.22,18,89.41,5.33,155.52,3.78,177.65,3.13,60.38-1.78,28.67-3.76,190.9501-15.6599,12.0499-.8801,62.5499-4.5601,62.6099-10.17.0601-5.4601-47.6299-7.88-47.74-14.87-.0699-5.0601,24.8701-9.4,47.74-13.04,56.1001-8.9299,84.1401-13.39,109.05-14.61,57.1201-2.7999,130.6301-16.78,189.15-28.84-40.1901,11.1499-117.39,27.6599-202.36,40.59-19.35,2.9401-33.95,5.17-44.88,7.0399-24.88,4.2301-30.84,6.6001-30.8199,11.28.03,4.8401,258.6399,68.8101,263.5499,76.78.02.03.04.0601.05.0901Z"/>
      <g>
        <path class="cls-4" d="M944.144,100.8007c5.1064,17.9-1.4186,33.6521-3.4103,38.0051-8.3442,18.2574-23.8679,26.3324-32.5267,30.8348-27.9574,14.5488-55.3877,9.2773-63.5089,7.5928-10.9756-2.273-31.3914-6.5058-47.8647-24.9311-2.035-2.275-3.8538-4.5909-5.4715-6.9196-13.3337-19.0959-13.8248-39.1868-13.8205-44.2062.0031-3.8373.7277-44.0015,35.0009-65.2514,23.6923-14.6918,51.698-13.0822,70.705-3.9695,2.3268,1.1163,5.0373,3.0949,8.3569,6.0571,7.0699,6.2843,16.9266,16.99,31.8687,33.2182,14.4503,15.6897,18.363,21.4526,20.6711,29.5698Z"/>
        <path class="cls-5" d="M944.144,100.8007c5.1064,17.9-1.4186,33.6521-3.4103,38.0051-8.3442,18.2574-23.8679,26.3324-32.5267,30.8348-27.9574,14.5488-55.3877,9.2773-63.5089,7.5928-10.9756-2.273-31.3914-6.5058-47.8647-24.9311-2.035-2.275-3.8538-4.5909-5.4715-6.9196,3.2818,2.493,7.124,4.9368,11.5852,7.0536,15.1088,7.1663,29.6762,6.9082,35.924,6.7265,11.4841-.3212,19.6154-2.8462,31.1635-6.4321,16.4844-5.1244,24.7241-7.6819,32.7112-14.2997,2.4369-2.0204,21.5292-18.2913,20.2973-39.3582-.4671-7.9665-3.4742-10.3841-17.3165-34.8975-6.6631-11.8021-11.4809-20.3823-14.1226-26.1627,7.0699,6.2843,16.9266,16.99,31.8687,33.2182,14.4503,15.6897,18.363,21.4526,20.6711,29.5698Z"/>
        <path class="cls-7" d="M802.2877,46.2952c5.3993-6.0481,15.499-10.7293,20.5317-12.8892,12.2266-5.2473,25.9657-7.0798,39.1007-4.7968,4.5904.7979,10.1053,3.3068,9.9918,7.9646-.0658,2.7006-2.2406,4.9931-4.747,6.0006-2.5064,1.0076-5.295.9798-7.9935.8569-9.8719-.4497-19.772-1.9724-29.5914-.8605-9.8194,1.1119-19.9123,5.3948-25.0591,13.8308-.3506.5747-.6922,1.183-1.2376,1.5775-1.7051,1.2333-4.2468-.567-4.5219-2.6533-.4248-3.222,1.0606-6.2689,3.5263-9.0307Z"/>
        <path class="cls-7" d="M792.2525,63.7988c-1.7851.5514-2.7899,1.8794-3.4753,2.8113-.8758,1.1908-2.2706,3.0873-1.9008,5.5003.0634.4135.3955,2.5809,2.2242,3.5737.241.1308,1.4189.7703,2.6517.3633.9419-.3109,1.4999-1.2904,2.5775-3.2365.9056-1.6355,1.3143-2.8076,1.6871-3.8951.676-1.9723.6526-2.6237.5194-3.1608-.0674-.2718-.3056-1.2324-1.158-1.8116-1.1231-.7632-2.5255-.33-3.1258-.1446Z"/>
        <path class="cls-7" d="M784.0059,81.1477c-2.313,1.6998-3.0096,5.0376-3.5199,7.6997-.5876,3.0653-.727,6.1969-.7955,9.3104-.1054,4.7905-.0613,9.6012.6064,14.3461.497,3.5315,1.3659,7.0808,3.2385,10.1159.664,1.0763,1.7487,2.1976,2.9818,1.9173.6346-.1442,1.1257-.6374,1.5449-1.1352.8444-1.0028,1.5726-2.1669,1.7365-3.4676.2294-1.8203-.6625-3.5659-1.3703-5.2585-1.4185-3.3921-2.1743-7.0599-2.2123-10.7364-.0688-6.6619,2.1848-13.1978,2-19.8575-.0375-1.3514-.3536-2.9567-1.603-3.4732-.7365-.3044-1.6039-.1074-2.2791.3159-.1128.0707-.2221.1452-.3281.223Z"/>
      </g>
      <path class="cls-6" d="M213.1195,59.9162c.0844-1.7854,55.9511,3.7631,137.2174-.5217,42.4861-2.2401,53.2312-5.1283,192-22.9565,101.4883-13.0387,125.3545-15.2985,145.5652-16.9565,92.6729-7.6029,144.5217-5.5085,144.5217-4.4347,0,9.7826-24.3831,4.1984-42.9782,12.4565-21.5059,9.5508-26.8709,14.2826-37.0594,28.1739-7.3203,9.9808-18.029-1.9229-32.6581-8.2826-21.1339-9.1875-39.1504-8.1779-76.6956-5.2174-70.7354,5.5774-106.1031,8.3662-186.0001,16.4348-58.1961,5.8771-88.0917,8.8193-127.1739,9-63.5298.2936-116.8216-5.9512-116.7391-7.6957Z"/>
      <path class="cls-6" d="M869.1411,13.679c-.7421.2186-2.9558.8708-3.5217,2.5435-1.0643,3.1458,4.4764,7.6064,5.4783,8.4131,6.9413,5.5883,11.0404,3.3517,20.5435,7.4348,10.2261,4.3938,17.3748,12.0948,19.3696,14.2826,4.5227,4.9602,4.5449,6.7219,8.2173,9.1956,6.3745,4.2938,13.7416,3.993,19.174,3.5219,16.9406-1.4692,29.6356-5.8586,36.3914-7.8262,14.2783-4.1584,25.2302-3.9463,43.2391-4.3043,17.7814-.3535,31.8571,1.14,43.2391,2.3478,10.8755,1.1541,20.0093,4.8199,20.9347,2.7391.8156-1.8339-4.9578-7.1117-8.8043-8.6086-47.3478-18.4266-190.9821-33.6516-204.2609-29.7391Z"/>
      <path class="cls-6" d="M355.1199,115.1122c-9.209-.801-18.9325.3164-28.1027,1.6272-31.358,4.1811-62.5993,9.7538-93.646,15.7967-31.2326,6.0791-62.3118,12.9466-93.1978,20.5942-30.4387,7.5369-60.72,15.6914-90.4264,25.7714-8.6646,2.9401-17.282,6.0192-25.8478,9.2359,115.3309-32.9414,233.7917-54.9154,353.2644-65.5292-6.5029-4.6766-14.0809-6.8035-22.0436-7.4962Z"/>
      <path class="cls-3" d="M338.8586,61.1554c-.0093-.2169,28.3635-.6263,69.8478-4.1086,18.8398-1.5814,38.8541-3.6683,125.0217-15.8479,69.1226-9.7703,79.1061-11.6589,107.9999-14.413,41.5511-3.9604,82.3279-5.9091,82.4348-4.6957.0273.3099-2.5719,1.1377-60.5217,8.0869-43.3245,5.1954-68.6342,7.9421-90.2609,10.4348-76.1164,8.7733-70.8278,10.2761-112.4348,14.3478-68.3467,6.6884-122.0741,6.4941-122.087,6.1957Z"/>
    </g>
  </g>
</svg>