<?xml version="1.0" encoding="UTF-8"?>
<svg id="Capa_2" xmlns="http://www.w3.org/2000/svg" viewBox="0 0 1659.3608 225.0217">
  <defs>
    <style>
      .cls-1 {
        fill: #bf3441;
      }

      .cls-2 {
        fill: #ba0c1c;
      }

      .cls-3 {
        fill: #d83954;
      }

      .cls-4 {
        fill: #ef7f8f;
      }

      .cls-5 {
        fill: #e55e6c;
      }

      .cls-6 {
        fill: #d6404a;
      }

      .cls-7 {
        fill: #b22f3f;
      }

      .cls-8 {
        fill: #a5071b;
      }
    </style>
  </defs>
  <g id="Capa_1-2" data-name="Capa_1">
    <g>
      <g>
        <path class="cls-6" d="M1651.3393,69.2688c.02.12-.01.25-.0798.39-.05.11-.1301.22-.2302.3401-1.8899,2.1399-12.1799,5.8298-28.7999,10.45-40.1901,11.1499-117.39,27.6599-202.36,40.59-19.35,2.9401-33.95,5.17-44.88,7.0399-24.88,4.2301-30.84,6.6001-30.8199,11.28.03,4.8401,258.6399,68.8101,263.5499,76.78.02.03.04.0601.05.0901.0199.0399.0299.08.0299.1199v.04c-.72,5.3401-97.99-25.51-232.3199-30.96-135.71-5.51-309.4301,14.33-499.36,12.74-134.0901-1.13-360.19-26.48-548.13-27.0701-79.75-.24-152.65,4.6401-208.61,9.92-.01.01-.03.01-.04.01-6.35.59-12.48,1.2001-18.3799,1.7999-56.25,5.7401-91.33,11.3-92.48,10.6501-9.17-5.17,119.5-43.8,225.31-63.7201,81.76-15.39,133.98-18.9,133.86-26.11-.26-14.25-268-51.28-267.94-58.1699.04-4.3601,92.7599,12.2,246.04,5.3199C517.1993,43.0987,685.0893,1.6187,857.7693,8.8587c130.2799,5.4501,257.7899,34.8501,386.46,53.54,91.49,13.29,182.7001,18.0901,275.0699,14,5.51-.25,68.1201-5.95,105.1101-7.71,15.6699-.76,26.75-.8,26.9299.58Z"/>
        <path class="cls-4" d="M816.5803,8.0144c13.708,0,27.4243.2673,41.1891.8445,130.2799,5.45,257.7899,34.85,386.4598,53.5399,70.332,10.2166,140.5054,15.4161,211.1604,15.4161,21.2554,0,42.5481-.4702,63.9097-1.4161,5.51-.25,68.1201-5.95,105.1101-7.71,6.825-.3311,12.7795-.5255,17.3418-.5255,5.9124,0,9.4866.3265,9.5881,1.1055.02.12-.01.25-.0798.39-.05.11-.1301.22-.2302.34-1.8899,2.14-12.1799,5.8301-28.8,10.4501-40.1899,11.15-117.3899,27.66-202.3599,40.59-19.3501,2.9401-33.95,5.17-44.8801,7.04-24.8799,4.23-30.8398,6.6-30.8198,11.28.03,4.84,258.6399,68.8099,263.5498,76.7799.02.03.04.0601.05.0901.02.0399.03.08.03.12v.0399c-.0569.4225-.718.6184-1.9539.6184-14.3865,0-106.6619-26.5594-230.3662-31.5784-16.624-.6749-33.8333-.9695-51.5581-.9697-121.3623-.0011-267.5835,13.8008-425.8051,13.8008-7.3113,0-14.6356-.0294-21.9967-.0911-134.0902-1.13-360.1901-26.48-548.13-27.0699-1.8887-.0057-3.7769-.0085-5.6577-.0085-77.5391-.0001-148.3177,4.7736-202.9523,9.9285-.01.01-.03.01-.0403.01-6.3497.59-12.4797,1.2001-18.3798,1.8-53.2253,5.4313-87.4967,10.7019-92.0027,10.7019-.256,0-.4155-.017-.4773-.0519-9.17-5.17,119.5-43.8,225.3099-63.7201,81.76-15.39,133.9801-18.8999,133.86-26.11-.2599-14.25-268-51.28-267.9399-58.1699.0048-.52,1.3298-.7426,3.9166-.7426,15.2823,0,74.6891,7.7588,166.954,7.7588,23.0662,0,48.1696-.4844,75.1694-1.6963,157.7833-7.0862,312.5693-42.7844,470.8309-42.7844M816.5802,0c-88.3195,0-176.7883,11.2091-262.3442,22.0491-68.3054,8.6545-138.9364,17.6036-208.8462,20.7432-24.9565,1.1202-50.1263,1.6882-74.8097,1.6882-65.2565,0-113.4535-3.8568-142.25-6.1611-12.0216-.9622-19.9635-1.5975-24.7041-1.5975-1.868,0-3.218.0952-4.3778.3086-5.1731.9525-7.5211,4.8926-7.5531,8.3748-.0244,2.7909,1.2076,6.5901,7.2145,8.8623,1.6034.6063,3.7946,1.2598,6.6991,1.9977,4.9375,1.2544,12.0604,2.785,21.7758,4.6798,18.0148,3.5134,42.9299,7.8807,69.3079,12.5044,34.9723,6.1301,74.611,13.0781,106.2323,19.462,17.0962,3.4515,30.2355,6.4017,40.1693,9.0195,1.2863.3389,2.4843.6637,3.6007.9749-9.2122,1.72-21.515,3.6111-34.1991,5.5608-21.6591,3.3293-48.6143,7.4728-80.1886,13.4159-46.3993,8.7352-101.5393,21.8807-151.2819,36.0654-21.8811,6.2399-40.6284,12.1094-54.2147,16.9741-6.9735,2.4971-12.4702,4.692-16.3375,6.5243-4.78,2.2645-9.5168,4.9003-10.3555,9.9784-.6002,3.6346,1.1371,7.1814,4.4259,9.0355,1.7163.9718,3.3413,1.085,4.4135,1.085,2.1711,0,6.6995-.5647,19.4739-2.1978,16.3835-2.0945,41.1427-5.2595,73.3424-8.5454,7.0743-.7195,12.6285-1.2639,17.9388-1.7587h2.9471l.3159-.3119c68.5859-6.3883,135.6412-9.6267,199.3568-9.6265,1.8729,0,3.7529.0027,5.6335.0084,103.5919.3252,220.7048,8.3215,324.0314,15.3766,84.2473,5.7522,163.8223,11.1857,224.0553,11.6931,7.2502.0607,14.6736.0914,22.0641.0914,84.5386,0,164.2024-3.8605,241.2434-7.5941,65.8711-3.192,128.0891-6.2073,184.5618-6.2068,18.5186.0002,35.2769.3154,51.2329.9631,88.9336,3.6082,161.4282,18.4146,200.375,26.3691,17.7085,3.6168,25.731,5.2158,30.3164,5.2158,1.4695,0,2.6777-.1628,3.802-.5132,3.3115-1.0312,5.6467-3.7316,6.0945-7.0472l.072-.5338v-.5387c0-1.0912-.208-2.1576-.6055-3.1432-.1941-.4863-.4338-.9512-.7261-1.4078-1.8684-2.9659-4.949-4.7614-18.8569-9.3182-8.2219-2.6938-19.6882-6.1337-35.0542-10.5157-28.2722-8.0625-64.6929-17.8698-99.9146-27.354-35.6665-9.6041-74.7576-20.1305-96.1892-26.4912,3.3545-.6777,7.312-1.4044,11.8652-2.1786,10.6775-1.8268,24.6467-3.9646,44.7405-7.0175,86.0916-13.1007,164.1394-29.9266,203.2986-40.7908,28.2314-7.8477,30.8994-10.8687,32.6648-12.8674l.0762-.0864.0735-.0881c.5305-.6366.9514-1.283,1.2832-1.9702.7708-1.5822,1.0483-3.3068.8066-5.0057-.4292-3.0967-2.4673-6.9121-9.6851-7.6973-1.9026-.207-4.4673-.3077-7.8398-.3077-4.4448,0-10.4102.1801-17.73.5348-26.5947,1.2655-65.4763,4.4836-88.7078,6.4064-8.3572.6918-14.9583,1.2382-16.3772,1.3025-21.095.9341-42.4778,1.408-63.5466,1.408-69.3115,0-139.9685-5.1588-210.0083-15.333-39.624-5.7556-79.853-12.652-118.7576-19.3215-87.4851-14.9976-177.9487-30.5059-268.5194-34.2946-13.4747-.5649-27.4457-.8513-41.5242-.8513h0Z"/>
      </g>
      <path class="cls-1" d="M1651.3393,69.2688c.02.12-.01.25-.0798.39-.05.11-.1301.22-.2302.3401-6.3298,7.5999-110.4399,36.97-231.1599,51.0399-23.61,2.75-37.45,5.0399-44.88,7.0399-24.88,4.2301-30.84,6.6001-30.8199,11.28.03,4.8401,258.6399,68.8101,263.5499,76.78.02.03.04.0601.05.0901.0199.0399.0299.08.0299.1199v.04c-.72,5.3401-97.99-25.51-232.3199-30.96-135.71-5.51-309.4301,14.33-499.36,12.74-134.0901-1.13-360.19-26.48-548.13-27.0701-88.82-.27-169.14,5.8201-227.03,11.73,17.19-3.6799,36.4-7.4399,56.99-11.45,64.21-12.54,98.49-14.3099,278.6-27.3999,112.11-8.1401,153.72-11.4501,220.7-9.3901,25.88.8,51.16,2.6201,101.74,6.26,136.61,9.8401,156.39,16.24,228.52,18,70.01,1.7101,56.63-5.76,145.5699-3.9099,225.39,4.7,42.16-35.8,42.26-39.78.1101-4.21,34.8235,3.7809,113.4757,1.8244,46.3266-1.1524,78.3244-7.4578,112.3043-11.3478,50.39-5.77,79.1699-10.3066,95.0901-11.7366,47.22-4.26,91.6299-14.6699,128.2-25.21,15.6699-.76,26.75-.8,26.9299.58Z"/>
      <path class="cls-7" d="M1607.7693,216.2288c.0199.0399.0299.08.0299.1199v.04c-.72,5.3401-97.99-25.51-232.3199-30.96-135.71-5.51-309.4301,14.33-499.36,12.74-134.0901-1.13-360.19-26.48-548.13-27.0701-79.75-.24-152.65,4.6401-208.61,9.92,43.85-6.65,91.97-12.15,127.26-15.38,39.9-3.6599,76.19-4.9199,147.13-7.3101,157.83-5.2999,236.74-7.95,319.83-1.8199,82.12,6.05,84.5901,12.35,179.22,18,89.41,5.33,155.52,3.78,177.65,3.13,60.38-1.78,28.67-3.76,190.9501-15.6599,12.0499-.8801,62.5499-4.5601,62.6099-10.17.0601-5.4601-47.6299-7.88-47.74-14.87-.0699-5.0601,24.8701-9.4,47.74-13.04,56.1001-8.9299,84.1401-13.39,109.05-14.61,57.1201-2.7999,130.6301-16.78,189.15-28.84-40.1901,11.1499-117.39,27.6599-202.36,40.59-19.35,2.9401-33.95,5.17-44.88,7.0399-24.88,4.2301-30.84,6.6001-30.8199,11.28.03,4.8401,258.6399,68.8101,263.5499,76.78.02.03.04.0601.05.0901Z"/>
      <g>
        <path class="cls-2" d="M944.144,100.8005c5.1064,17.9-1.4186,33.6521-3.4103,38.0051-8.3442,18.2574-23.8679,26.3324-32.5267,30.8348-27.9574,14.5488-55.3877,9.2773-63.5089,7.5928-10.9756-2.273-31.3914-6.5058-47.8647-24.9311-2.035-2.275-3.8538-4.5909-5.4715-6.9196-13.3337-19.0959-13.8248-39.1868-13.8205-44.2062.0031-3.8373.7277-44.0015,35.0009-65.2514,23.6923-14.6918,51.698-13.0822,70.705-3.9695,2.3268,1.1163,5.0373,3.0949,8.3569,6.0571,7.0699,6.2843,16.9266,16.99,31.8687,33.2182,14.4503,15.6897,18.363,21.4526,20.6711,29.5698Z"/>
        <path class="cls-8" d="M944.144,100.8005c5.1064,17.9-1.4186,33.6521-3.4103,38.0051-8.3442,18.2574-23.8679,26.3324-32.5267,30.8348-27.9574,14.5488-55.3877,9.2773-63.5089,7.5928-10.9756-2.273-31.3914-6.5058-47.8647-24.9311-2.035-2.275-3.8538-4.5909-5.4715-6.9196,3.2818,2.493,7.124,4.9368,11.5852,7.0536,15.1088,7.1663,29.6762,6.9082,35.924,6.7265,11.4841-.3212,19.6154-2.8462,31.1635-6.4321,16.4844-5.1244,24.7241-7.6819,32.7112-14.2997,2.4369-2.0204,21.5292-18.2913,20.2973-39.3582-.4671-7.9665-3.4742-10.3841-17.3165-34.8975-6.6631-11.8021-11.4809-20.3823-14.1226-26.1627,7.0699,6.2843,16.9266,16.99,31.8687,33.2182,14.4503,15.6897,18.363,21.4526,20.6711,29.5698Z"/>
        <path class="cls-3" d="M802.2877,46.2949c5.3993-6.0481,15.499-10.7293,20.5317-12.8892,12.2266-5.2473,25.9657-7.0798,39.1007-4.7968,4.5904.7979,10.1053,3.3068,9.9918,7.9646-.0658,2.7006-2.2406,4.9931-4.747,6.0006-2.5064,1.0076-5.295.9798-7.9935.8569-9.8719-.4497-19.772-1.9724-29.5914-.8605s-19.9123,5.3948-25.0591,13.8308c-.3506.5747-.6922,1.183-1.2376,1.5775-1.7051,1.2333-4.2468-.567-4.5219-2.6533-.4248-3.222,1.0606-6.2689,3.5263-9.0307Z"/>
        <path class="cls-3" d="M792.2525,63.7985c-1.7851.5514-2.7899,1.8794-3.4753,2.8113-.8758,1.1908-2.2706,3.0873-1.9008,5.5003.0634.4135.3955,2.5809,2.2242,3.5737.241.1308,1.4189.7703,2.6517.3633.9419-.3109,1.4999-1.2904,2.5775-3.2365.9056-1.6355,1.3143-2.8076,1.6871-3.8951.676-1.9723.6526-2.6237.5194-3.1608-.0674-.2718-.3056-1.2324-1.158-1.8116-1.1231-.7632-2.5255-.33-3.1258-.1446Z"/>
        <path class="cls-3" d="M784.0059,81.1474c-2.313,1.6998-3.0096,5.0376-3.5199,7.6997-.5876,3.0653-.727,6.1969-.7955,9.3104-.1054,4.7905-.0613,9.6012.6064,14.3461.497,3.5315,1.3659,7.0808,3.2385,10.1159.664,1.0763,1.7487,2.1976,2.9818,1.9173.6346-.1442,1.1257-.6374,1.5449-1.1352.8444-1.0028,1.5726-2.1669,1.7365-3.4676.2294-1.8203-.6625-3.5659-1.3703-5.2585-1.4185-3.3921-2.1743-7.0599-2.2123-10.7364-.0688-6.6619,2.1848-13.1978,2-19.8575-.0375-1.3514-.3536-2.9567-1.603-3.4732-.7365-.3044-1.6039-.1074-2.2791.3159-.1128.0707-.2221.1452-.3281.223Z"/>
      </g>
      <path class="cls-5" d="M213.1195,59.916c.0844-1.7854,55.9511,3.7631,137.2174-.5217,42.4861-2.2401,53.2312-5.1283,192-22.9565,101.4883-13.0387,125.3545-15.2985,145.5652-16.9565,92.6729-7.6029,144.5217-5.5085,144.5217-4.4347,0,9.7826-24.3831,4.1984-42.9782,12.4565-21.5059,9.5508-26.8709,14.2826-37.0594,28.1739-7.3203,9.9808-18.029-1.9229-32.6581-8.2826-21.1339-9.1875-39.1504-8.1779-76.6956-5.2174-70.7354,5.5774-106.1031,8.3662-186.0001,16.4348-58.1961,5.8771-88.0917,8.8193-127.1739,9-63.5298.2936-116.8216-5.9512-116.7391-7.6957Z"/>
      <path class="cls-5" d="M869.1411,13.6788c-.7421.2186-2.9558.8708-3.5217,2.5435-1.0643,3.1458,4.4764,7.6064,5.4783,8.4131,6.9413,5.5883,11.0404,3.3517,20.5435,7.4348,10.2261,4.3938,17.3748,12.0948,19.3696,14.2826,4.5227,4.9602,4.5449,6.7219,8.2173,9.1956,6.3745,4.2938,13.7416,3.993,19.174,3.5219,16.9406-1.4692,29.6356-5.8586,36.3914-7.8262,14.2783-4.1584,25.2302-3.9463,43.2391-4.3043,17.7814-.3535,31.8571,1.14,43.2391,2.3478,10.8755,1.1541,20.0093,4.8199,20.9347,2.7391.8156-1.8339-4.9578-7.1117-8.8043-8.6086-47.3478-18.4266-190.9821-33.6516-204.2609-29.7391Z"/>
      <path class="cls-5" d="M355.1198,115.112c-9.209-.801-18.9325.3164-28.1027,1.6272-31.358,4.1811-62.5993,9.7538-93.646,15.7967-31.2326,6.0791-62.3118,12.9466-93.1978,20.5942-30.4387,7.5369-60.72,15.6914-90.4264,25.7714-8.6646,2.9401-17.282,6.0192-25.8478,9.2359,115.3309-32.9414,233.7917-54.9154,353.2644-65.5292-6.5029-4.6766-14.0809-6.8035-22.0436-7.4962Z"/>
      <path class="cls-4" d="M338.8586,61.1551c-.0093-.2169,28.3635-.6263,69.8478-4.1086,18.8398-1.5814,38.8541-3.6683,125.0217-15.8479,69.1226-9.7703,79.1061-11.6589,107.9999-14.413,41.5511-3.9604,82.3279-5.9091,82.4348-4.6957.0273.3099-2.5719,1.1377-60.5217,8.0869-43.3245,5.1954-68.6342,7.9421-90.2609,10.4348-76.1164,8.7733-70.8278,10.2761-112.4348,14.3478-68.3467,6.6884-122.0741,6.4941-122.087,6.1957Z"/>
    </g>
  </g>
</svg>