<?xml version="1.0" encoding="UTF-8"?>
<svg id="Capa_2" xmlns="http://www.w3.org/2000/svg" viewBox="0 0 1043.5727 343.5291">
  <defs>
    <style>
      .cls-1 {
        fill: #f47731;
      }

      .cls-2 {
        fill: #d85319;
      }

      .cls-3 {
        fill: #fcb28d;
      }

      .cls-4 {
        fill: #ed7743;
      }

      .cls-5 {
        fill: #ff8c42;
      }

      .cls-6 {
        fill: #fc9b65;
      }

      .cls-7 {
        fill: #c64e12;
      }

      .cls-8 {
        fill: #e56525;
      }

      .cls-9 {
        fill: #d8601d;
      }
    </style>
  </defs>
  <g id="Capa_1-2" data-name="Capa_1">
    <g>
      <g>
        <path class="cls-5" d="M1035.2691,185.6379c-7.04,28.96-150.0601,43.59-295.04,91.5699-81.98,27.13-151.73,62.9501-237.9299,57.8099-77.11-4.5999-126.26-37.49-195.16-72.47-35.44-18.01-76.1-36.5599-128.48-52.1199-40.24-11.9601-87.39-22.1401-144.4-28.9301-8.53-1.02-28.51-8.9801-26.03-18.5699,3.3-12.7301,23.54-11.5701,31.79-11.5,17.87.1399,35.74-1.28,53.41-3.9401,35.76-5.38,70.57-15.82,104.46-28.28,69.53-25.57,135.51-59.93,205.55-84.2,54.83-19,112.76-31.47,171.02-25.48,73.9699,7.61,141.4699,43.79,207.31,78.33,15.8301,8.3,32.35,15.61,49.04,22.11,39.6899,15.48,80.33,26.47,114.84,35.62,54.35,14.4,93.4601,24.28,89.62,40.05Z"/>
        <path class="cls-3" d="M544.4792,8.0146c9.9763-.0002,19.97.484,29.98,1.5132,73.97,7.61,141.47,43.79,207.3101,78.33,15.8301,8.3,32.3499,15.61,49.04,22.11,39.6899,15.48,80.3298,26.47,114.8398,35.62,54.3501,14.4,93.4602,24.28,89.6201,40.05-7.04,28.96-150.0601,43.59-295.04,91.57-76.6211,25.3566-142.5679,58.3066-221.2375,58.3066-5.5022,0-11.0576-.1608-16.6924-.4968-77.1101-4.5999-126.2601-37.4898-195.1602-72.4698-35.4399-18.01-76.1-36.56-128.48-52.1199-40.24-11.9601-87.39-22.1401-144.4-28.9301-8.5299-1.02-28.51-8.9802-26.0299-18.5699,2.7301-10.532,17.0565-11.5567,26.5941-11.5567,1.9905,0,3.7714.0446,5.1958.0567.8038.0063,1.6105.0095,2.4143.0095,17.0658,0,34.1206-1.4092,50.9957-3.9496,35.76-5.38,70.5699-15.82,104.46-28.28,69.53-25.57,135.51-59.93,205.55-84.2,45.4097-15.7355,92.9514-26.9922,141.04-26.9932M544.4838,0v8.0146l-.0017-8.0146c-43.4026.0011-90.3955,8.9751-143.6671,27.4351-37.7188,13.0702-74.7358,29.2474-110.5341,44.892-30.9735,13.536-63.0015,27.5329-95.1581,39.3588-38.9397,14.3166-71.6328,23.1746-102.886,27.8766-17.0165,2.5616-33.7725,3.8604-49.8035,3.8604-.7828,0-1.5685-.0029-2.3513-.0091-.4916-.0042-1.0332-.0126-1.6133-.0215-1.1-.0169-2.3285-.0355-3.6455-.0355-7.3706,0-29.8003,0-34.3523,17.5603-.7753,2.9975-.9751,7.6235,2.4686,12.664,6.8151,9.9753,23.708,15.0784,30.3679,15.8748,52.3922,6.24,99.189,15.6129,143.0682,28.6548,54.3601,16.148,94.7712,35.1369,127.1324,51.5823,11.1146,5.6428,21.7527,11.252,32.0406,16.6765,53.6221,28.2736,99.9318,52.6914,166.2731,56.6488,5.6865.3391,11.4631.5111,17.1697.5111,61.6665,0,115.073-19.5516,171.6152-40.2513,16.8704-6.176,34.3152-12.5623,52.1404-18.4612,59.6785-19.7501,120.209-34.0992,168.8464-45.629,35.3923-8.39,65.9585-15.6359,88.3235-22.966,27.5442-9.0276,40.4456-17.6078,43.1399-28.6905,4.1738-17.1407-18.114-26.0211-26.5046-29.3641-15.7092-6.2592-38.2834-12.2348-64.4221-19.1537l-4.4285-1.1726c-38.4651-10.1987-76.1274-20.576-113.9805-35.3395-17.4519-6.7968-33.678-14.1111-48.2305-21.7413l-4.6384-2.4343C716.0537,44.3141,649.0488,9.1448,575.2792,1.5554c-10.0371-1.0321-20.3982-1.5554-30.7954-1.5554h0Z"/>
      </g>
      <path class="cls-9" d="M572.0091,206.0177c-.31,24.6602-14.57,42.1801-18.75,46.9501-17.52,20.01-40.29,24.37-52.99,26.7999-41.01,7.8601-73.83-9.24-83.5-14.46-13.07-7.05-37.38-20.1699-51.3-49.8099-1.72-3.66-3.15-7.29-4.32-10.86-9.68-29.3-2.68-54.99-.77-61.3601,1.46-4.8699,17.62-55.58,69.19-69.5499,35.65-9.66,70.59,3.01,91.26,21.79,2.53,2.3,5.22,5.84,8.31,10.86,6.59,10.66,15.04,27.9901,27.85,54.2601,12.39,25.3999,15.17,34.2,15.02,45.3799Z"/>
      <path class="cls-6" d="M55.1822,156.9447c21.6805-1.3076,53.7373-4.6489,92.3478-14.0869,1.0135-.2478,7.4989-1.7727,15.0787-3.9231,24.3411-6.9057,56.0009-18.8991,140.9213-55.0334,87.7093-37.321,100.3883-44.2929,133.0435-52.6956.0001,0,44.6627-13.3261,113.7391-15.1304,2.898-.0757,21.3177-.4062,43.5652,6.3913,14.4508,4.4153,26.7078,8.3538,33.6522,19.9565.6743,1.1267,10.1647,16.6733,3.9131,28.5652-7.5286,14.3209-32.7865,13.6823-47.7392,13.3043-26.4275-.6681-35.4435-8.198-70.4348-15.6522-13.0885-2.7882-30.5898-6.5165-52.0435-7.0435-7.2603-.1783-29.2636-.341-86.087,14.087-33.1683,8.4218-58.3821,16.7827-70.0435,20.7391-51.9307,17.6188-74.8145,29.2188-98.6087,38.0869-33.3683,12.4365-82.9016,24.858-151.3044,22.4348Z"/>
      <path class="cls-1" d="M1035.2691,185.6379c-7.04,28.96-150.0601,43.59-295.04,91.5699-81.98,27.13-151.73,62.9501-237.9299,57.8099-116.77-6.97-169.41-78.7899-323.64-124.5898,15.37.5798,30.94,3.1799,41.52,4.95,35.34,5.8999,52.79,16.55,100.96,36.3899,54.33,22.3801,81.49,33.5701,104.48,37.5701,74.82,13.02,138.17-10.71,162-19.96,38.25-14.8401,29.4901-19.6001,70.4301-35.22,59.6299-22.73,119.36-28.3201,144.3899-30.52,18.4301-1.6101,40.1501-2.65,73.9601-8.21,16.23-2.6702,71.4787-16.0483,25.0399-43.7001-17.986-10.7097-49.4299-23.44-70.6299-41.76,102.21,39.87,210.74,49.88,204.46,75.67Z"/>
      <path class="cls-8" d="M1035.2691,185.6379c-7.04,28.96-150.0601,43.59-295.04,91.5699-81.98,27.13-151.73,62.9501-237.9299,57.8099-77.11-4.5999-126.26-37.49-195.16-72.47,19.92,7.3801,42.04,15.89,65.26,24.8301,53.99,20.79,77.57,32.6,119.74,35.22,36.65,2.28,68.8-3.54,88.04-8.22,31.4001-7.63,50.11-17.49,72.79-27.78,0,0,73.3201-33.27,160.3-53.48,92.14-21.41,138.22-32.1101,140.35-32.3501,7.27-.7999,39.8-4.22,41.7401-15.6499.6799-4.01-2.54-8.17-4.7001-10.96-6.14-7.9301-13.74-9.4601-22.4301-13.5601-6.02-2.8401-17.21-9.1-22.58-15.01,54.35,14.4,93.4601,24.28,89.62,40.05Z"/>
      <path class="cls-7" d="M572.0091,206.0177c-.31,24.6602-14.57,42.1801-18.75,46.9501-17.52,20.01-40.29,24.37-52.99,26.7999-41.01,7.8601-73.83-9.24-83.5-14.46-13.07-7.05-37.38-20.1699-51.3-49.8099-1.72-3.66-3.15-7.29-4.32-10.86,3.22,4.4099,7.17,8.97,12.03,13.35,16.46,14.83,35.05,20.0299,43.05,22.17,14.7,3.95,25.98,3.83,42,3.6599,22.87-.25,34.3-.37,46.95-5.74,3.86-1.64,34.27-15.05,40.7-42.26,2.43-10.29-.47-14.5-8.74-50.87-3.98-17.51-6.84-30.23-8-38.57,6.59,10.66,15.04,27.9901,27.85,54.2601,12.39,25.3999,15.17,34.2,15.02,45.3799Z"/>
      <path class="cls-4" d="M412.617,83.0007c9.1489-5.6287,23.7458-7.7389,30.954-8.571,17.5117-2.0216,35.6476.8655,51.4551,8.7475,5.5244,2.7546,11.573,8.0321,9.6616,13.9017-1.1083,3.4031-4.7388,5.4881-8.3028,5.816-3.564.328-7.0933-.7654-10.4722-1.9453-12.3609-4.3167-24.3504-10.0062-37.2372-12.3207s-27.3239-.7075-37.0584,8.0484c-.6631.5965-1.3275,1.239-2.1696,1.5329-2.6324.9186-5.1758-2.3312-4.7334-5.0839.6833-4.2512,3.7251-7.5553,7.903-10.1256Z"/>
      <path class="cls-4" d="M393.2365,101.4121c-2.4753.0226-4.2547,1.3271-5.4783,2.25-1.5636,1.1793-4.0538,3.0576-4.5,6.2609-.0765.549-.4772,3.4263,1.4674,5.3804.2563.2575,1.5089,1.5162,3.2282,1.4673,1.3137-.0373,2.3937-1.0688,4.5-3.1304,1.7702-1.7325,2.7338-3.0652,3.6196-4.3043,1.6065-2.2472,1.824-3.0829,1.8587-3.8152.0176-.3707.0797-1.6804-.7826-2.7391-1.136-1.395-3.0807-1.3772-3.913-1.3696Z"/>
      <path class="cls-4" d="M376.1852,120.3059c-3.5811,1.28-5.732,5.2528-7.3899,8.4385-1.909,3.6682-3.2742,7.5906-4.5426,11.5169-1.9516,6.0411-3.721,12.1646-4.6738,18.4412-.7092,4.6715-.9529,9.5067.2725,14.0701.4345,1.6182,1.3859,3.4532,3.0576,3.5653.8603.0577,1.6708-.3819,2.3919-.8548,1.4525-.9526,2.8185-2.154,3.5201-3.7429.9819-2.2236.5121-4.778.2559-7.1952-.5136-4.8442-.0812-9.7869,1.2656-14.4684,2.4405-8.4828,7.7813-15.9244,10.0737-24.4484.4652-1.7297.6731-3.8875-.717-5.0171-.8194-.6659-1.9952-.7449-3.013-.4638-.1701.047-.3371.1-.5011.1586Z"/>
      <path class="cls-3" d="M526.1871,19.7866c11.25-1.3083,17.0638-1.9844,25.2845-2.0938,7.8576-.1045,15.2812.3438,22.6952,1.3959,5.2883.7504,11.4785,1.9366,18.1256,5.1646,4.1403,2.0106,7.2793,4.241,8.6821,7.6772.4209,1.0311,1.2276,3.0954.3046,5.1646-1.3196,2.9585-5.2514,3.8563-6.7019,4.1876-2.6608.6076-4.9502.3261-6.7019,0-5.9101-1.1002-9.8141-3.4738-13.2515-5.3042-1.7821-.949-8.3861-4.4299-15.6886-6.5605-5.4174-1.5806-10.1105-1.9843-19.4965-2.7917-5.5768-.4797-9.7621-.6438-14.927-.8375-8.3646-.3137-12.7563-.4784-19.0396-.4187-5.4569.0518-8.3221.2347-8.3774-.1396-.0995-.6731,9.0112-2.3273,12.3376-2.9313,8.4472-1.5337,14.9504-2.3027,16.7548-2.5125Z"/>
      <path class="cls-3" d="M425.2257,37.3361c-.3012-.7815-15.0024,4.0074-27,8.413-14.7875,5.4301-23.5511,9.5742-41.4783,17.6087-32.9409,14.7634-43.4758,18.7542-43.2391,19.3696.351.9124,23.9544-6.6955,47.3478-16.2391,4.657-1.8999,14.5178-6.2883,34.2391-15.0652,26.6445-11.8579,30.2848-13.6865,30.1304-14.087Z"/>
      <path class="cls-5" d="M468.0734,36.9448c-1.2537-.2738-3.0735.0005-4.0109,1.4673-.918,1.4366-.5222,3.2859.4891,4.4022,1.3066,1.4422,3.2249,1.2023,3.424,1.1739,1.442-.2054,3.0665-1.2673,3.326-2.9348.3046-1.9567-1.431-3.7162-3.2283-4.1087Z"/>
      <path class="cls-5" d="M524.3561,29.1187c-3.8494-1.2383-8.6168,1.417-9.9131,5.3478-.8541,2.5898.0634,4.9302.5218,5.8696,1.3487,2.7638,4.4551,5.1454,8.0869,4.826,2.431-.2137,5.0399-1.6327,6.2609-4.1739,1.3636-2.8381.2839-5.5943-.1304-6.6522-.3585-.9152-1.6426-4.1933-4.826-5.2174Z"/>
      <path class="cls-5" d="M575.0952,60.1621c-2.0893-3.8195-8.4067-4.306-12.5218-2.3478-.6676.3177-5.3507,2.6381-5.4782,7.0435-.1124,3.884,3.3887,6.8926,6.5217,7.8261.5745.1712,2.6256.7527,4.9565,0,4.8347-1.5613,8.8759-8.2181,6.5218-12.5218Z"/>
      <path class="cls-5" d="M417.3996,55.7274c-2.4805-3.3797-8.265-4.3785-12.1304-1.5652-3.3281,2.4222-4.819,7.3685-3.1304,9.7827,2.7756,3.9683,14.7906,2.022,16.4348-3.1304.7595-2.3799-.9186-4.7391-1.1739-5.087Z"/>
      <path class="cls-5" d="M269.3887,102.7817c-1.0487-.7748-2.7823-.5431-3.7174.4891-1.236,1.3644-.7736,3.793.6848,4.5978.8625.476,1.9856.3357,2.7391-.1956,1.4968-1.0554,1.7571-3.8099.2935-4.8914Z"/>
      <path class="cls-5" d="M217.6387,121.6621c-8.6683,3.5369-10.7947,5.4072-10.5652,6.4565.2997,1.3705,4.7891,2.1229,8.2174.587,2.8192-1.2629,5.412-4.2932,4.6957-5.8696-.3396-.7474-1.3702-1.0514-2.3478-1.174Z"/>
      <path class="cls-5" d="M620.7474,39.8144c-.7711-1.7703-3.7224-2.3416-5.6088-1.174-2.0474,1.2673-2.6704,4.4777-1.3043,5.8696,1.1547,1.1765,3.4457.7637,4.8262-.1304,1.4266-.9241,2.79-2.9511,2.0869-4.5652Z"/>
      <path class="cls-1" d="M686.2257,74.51c-1.6218-.3629-12.6332-2.827-18,3.1304-6.6833,7.4189-.4536,23.2802,8.2174,31.3044,2.4784,2.2935,7.9661,7.3718,14.4783,6.2609,7.5995-1.2965,11.8994-10.2207,12.913-16.4348,1.0261-6.2914-1.1012-11.1245-1.5652-12.1304-4.1899-9.0851-13.6279-11.5899-16.0435-12.1304Z"/>
      <path class="cls-1" d="M720.3996,173.6404c-.2886-.7103-4.728-11.1582-14.6088-12-9.3528-.7968-18.1494,7.4762-18.7826,16.174-.683,9.3823,8.4071,15.4943,12.5217,18.2609,3.7393,2.5142,7.7645,5.2207,12,4.174,7.8801-1.9475,13.1542-16.063,8.8696-26.6088Z"/>
      <path class="cls-1" d="M765.2691,129.8144c-7.3796-.6155-14.4053,5.9255-14.0869,13.0435.3518,7.8668,9.5238,13.0725,16.6956,11.4783,3.7584-.8354,7.6091-3.6812,8.8696-7.826,2.0889-6.8687-3.3271-16.0157-11.4783-16.6957Z"/>
      <path class="cls-1" d="M761.9431,89.5752c-2.936-2.2543-8.5198-.4965-9.587,3.326-.7705,2.7595,1.009,5.8922,3.5217,7.0435.5165.2367,2.3131.9619,4.3044.1956,1.8496-.7118,2.6825-2.2545,2.9347-2.7391,1.2411-2.3853,1.0876-6.0897-1.1738-7.826Z"/>
      <path class="cls-1" d="M848.7474,179.1187c-.5447-5.7906-6.8597-9.0189-8.6088-9.9131-1.9556-.9998-8.2667-4.226-13.5652-1.0435-5.2484,3.1525-6.3687,10.7104-4.4348,15.9131.3159.85,1.9917,5.0759,6.5219,7.3043.696.3424,3.0491,1.4196,6,1.3043,6.7159-.2622,14.7391-6.6302,14.0869-13.5652Z"/>
      <path class="cls-1" d="M617.0952,127.7274c-2.8757-2.9843-8.063-4.0529-12-2.087-5.8346,2.9134-7.4176,11.7395-3.6521,17.2174,2.4789,3.6062,7.4543,6.0211,11.4783,4.6957,6.6611-2.1941,9.5449-14.2523,4.1738-19.8261Z"/>
      <path class="cls-1" d="M652.9648,196.2056c.7356-5.4308-4.1617-9.0138-4.6957-9.3912-3.1615-2.2346-8.8035-3.6782-12.5217-.3914-3.4738,3.0707-3.1349,8.3843-1.5652,11.7391.1338.2859,3.0243,6.2042,9,6.2609,4.6998.0446,9.1514-3.5571,9.7826-8.2174Z"/>
      <path class="cls-1" d="M589.7691,178.01c-1.4456-1.0476-3.824-.9244-5.087.5869-1.4519,1.7373-.7296,4.4709.9783,5.674,1.1589.8163,2.9009,1.0188,4.1087.1956,1.9344-1.3185,2.056-4.9664,0-6.4564Z"/>
      <path class="cls-1" d="M361.8344,94.4665c-4.3254-6.1882-16.1838-3.1252-17.6087-2.7391-1.9728.5345-13.494,3.6564-14.087,11.7391-.4644,6.3295,6.0542,11.8665,12.1304,13.3043,6.4568,1.528,11.6293-1.7584,12.5217-2.3478,6.6464-4.3893,10.9258-14.4023,7.0435-19.9565Z"/>
      <path class="cls-1" d="M332.4865,159.423c-.7283-3.1157-3.6118-5.8226-7.0435-6.2609-4.5751-.5842-9.2046,2.9814-9.7826,7.8262-.5731,4.8035,3.0338,9.2107,7.0435,9.7826,5.5272.7883,11.0754-5.8173,9.7827-11.3479Z"/>
      <path class="cls-1" d="M352.443,214.7273c-.8419-6.1084-7.3729-8.2479-7.6956-8.3478-5.9135-1.8291-10.6893,2.1528-11.2174,2.6088-3.5433,3.0593-6.071,8.8781-3.7826,12.913,1.8094,3.1903,5.8604,3.9092,8.087,4.3043,1.822.3234,5.5438.9839,9.1304-1.1738,2.861-1.7212,6.1354-5.536,5.4782-10.3044Z"/>
      <path class="cls-1" d="M272.2257,159.8144c-4.5941-3.0175-13.2496-4.7811-18,.7826-4.5826,5.3672-2.741,14.2856,2.7391,18.3914,3.9382,2.9506,9.2462,3.0339,13.3043,1.1738,4.1241-1.8903,8.309-6.407,7.8261-11.7391-.4577-5.0541-4.8462-7.9365-5.8696-8.6086Z"/>
      <path class="cls-1" d="M288.3996,119.51c-.3248-.1273-1.747-.6846-2.7391,0-1.4088.9721-1.3773,4.0529.2609,5.4783.8459.736,2.4066,1.2799,3.6522.5217,1.4806-.9012,1.3133-2.9101,1.3044-3-.2053-2.0687-2.3118-2.9348-2.4783-3Z"/>
      <path class="cls-1" d="M306.3996,209.9013c.2796-3.0292-3.1734-6.0398-6.5217-6-4.04.048-7.4763,4.5314-6.5217,7.5652.8968,2.8502,5.5601,4.0743,8.8696,2.8696.2181-.0793,3.901-1.4784,4.1739-4.4348Z"/>
      <path class="cls-1" d="M195.9213,149.2492c-4.5625-3.3762-12.5994-1.9332-15.2609,3.5217-2.118,4.3409-.0957,9.7137,3.5217,12.5217,3.115,2.418,7.9457,3.3479,11.3478,1.1738,5.2455-3.3521,5.7706-13.2367.3913-17.2173Z"/>
      <path class="cls-1" d="M167.943,191.9013c-.3885-3.1567-4.5564-4.134-5.2826-4.3043-.4673-.1096-4.5809-1.0222-6.0652,1.174-1.371,2.0287.3931,5.3906,2.3478,7.0435.5453.4611,2.1616,1.8276,4.3044,1.5652,2.5746-.3154,5.0162-2.8732,4.6956-5.4783Z"/>
      <path class="cls-1" d="M605.0952,241.7273c.8737-2.9257-.7561-6.0652-3.1304-7.3043-3.812-1.9895-9.4934.9454-9.9131,4.9565-.2901,2.7723,1.9688,5.7212,4.9565,6.5217,3.2222.8634,7.0874-.8265,8.0869-4.174Z"/>
      <path class="cls-8" d="M943.9648,162.9447c-.5072-.5814-3.649-4.1824-7.3043-3.1304-2.8864.8307-4.2269,4.0256-4.4348,6.2609-.392,4.2136,2.9235,8.4277,7.0435,9.1304.3079.0525,4.1589.6514,6.2609-1.826,2.4421-2.8784.7336-7.8-1.5652-10.4348Z"/>
      <path class="cls-8" d="M856.3126,214.597c-.0267-2.8776-5.1316-5.9673-9.3912-4.9565-3.1289.7424-6.3569,3.8291-5.7391,6.5217.5569,2.4272,3.9949,3.4702,6,3.6522,4.1921.3805,9.1569-2.3643,9.1304-5.2174Z"/>
      <path class="cls-8" d="M756.6605,219.5535c-2.5597-4.486-8.6917-4.4785-12-3.6522-4.9773,1.243-10.261,6.0118-9.3914,10.6957.8464,4.5587,7.0409,6.4452,7.3043,6.5217,2.8282.8212,5.2791.2762,6.5217,0,1.7429-.3875,4.1428-.921,6-2.8695,2.4456-2.5658,3.5686-7.1848,1.5653-10.6957Z"/>
      <path class="cls-8" d="M799.7039,222.8144c-1.1715-2.3325-4.3291-3.7944-7.0435-2.5435-2.7668,1.2751-3.6377,4.7075-2.5436,7.2391.95,2.198,3.3804,3.7153,5.674,3.326,3.2834-.5573,5.4878-4.8865,3.9131-8.0217Z"/>
      <path class="cls-8" d="M645.2691,255.8144c-3.8263-3.976-10.7075-3.7924-15.3914-1.5652-4.4944,2.137-9.0057,7.1256-8.6086,13.0435.5258,7.8363,9.327,12.3656,15.6522,12.5217,1.2831.0316,4.3314.1069,7.0435-1.826,5.6514-4.028,4.5293-12.9894,4.1738-15.1305-.3906-2.3528-.8149-4.9084-2.8695-7.0435Z"/>
      <path class="cls-8" d="M696.0083,240.0318c-.9683-.6715-3.0106-.1729-3.5217,1.1738-.458,1.2068.5787,2.3965.6521,2.4783.5342.5948,1.5535,1.2144,2.3479.9131,1.365-.5177,1.8237-3.6622.5217-4.5652Z"/>
      <path class="cls-8" d="M572.2257,302.7709c.699-5.3547-5.2418-9.3295-5.7391-9.6522-5.5531-3.6044-12.9773-2.2443-17.7391,1.0435-3.2007,2.2098-7.9236,7.1721-6.5217,11.2174,1.1641,3.3594,5.929,4.2882,10.6956,5.2174,3.9172.7635,9.9327,1.9363,14.8696-1.5652,1.0599-.7517,3.9866-2.8275,4.4348-6.2609Z"/>
      <path class="cls-8" d="M478.0517,303.2926c-1.9207-2.9515-6.0819-4.3256-9.3913-2.8696-2.2928,1.0087-4.5927,3.5588-4.1739,6,.4925,2.8711,4.4686,3.9785,7.0435,4.6957,2.434.678,4.9277,1.3724,6.5217,0,1.9249-1.6573,1.5359-5.4658,0-7.826Z"/>
      <path class="cls-8" d="M287.617,241.9883c-2.1911-3.9896-8.9955-4.8282-10.4348-2.8696-1.03,1.4017.5741,4.3909,2.087,6,2.326,2.4739,6.6149,4.0023,8.3478,2.3478,1.2557-1.1987.9101-3.8209,0-5.4781Z"/>
      <path class="cls-2" d="M793.4431,243.8144c-8.1685.9812-7.3173-.3098-10.9565.7826-1.0814.3246-5.1379,1.6337-8.8696,5.2174-2.1409,2.0559-3.8879,3.7338-3.6521,5.7391.3505,2.9802,4.8815,4.9944,8.3478,5.2174,4.5554.2932,8.0229-2.4586,8.8696-3.1305,3.8173-3.0293,3.0167-5.5347,6.5217-7.3043,3.0931-1.5616,5.7151-.6195,6.5217-2.3478.535-1.1464-.0499-2.7792-1.0109-3.6522-1.3009-1.1819-3.1437-.8374-5.7717-.5217Z"/>
      <path class="cls-2" d="M842.9431,232.7926c-1.2876-1.3582-3.3411-1.2141-3.9131-1.174-2.2626.1587-5.4312,1.6628-5.674,4.4022-.2161,2.4384,2.0178,4.3676,3.8153,5.0869.4755.1903,2.2982.9198,4.0109.0978,2.8381-1.3622,3.8212-6.2399,1.7609-8.413Z"/>
      <path class="cls-2" d="M878.1605,219.6839c-1.1683-.9727-3.5791-.1438-3.9131,1.174-.2269.8953.553,1.8256,1.076,2.25.526.4269,1.6021.9996,2.4457.5869,1.2219-.5979,1.5359-3.058.3914-4.0109Z"/>
      <path class="cls-2" d="M929.03,220.2709c.1763-2.5477-5.2383-5.9471-10.174-5.674-2.8826.1595-5.2478,1.9977-9.9783,5.674-4.4801,3.4818-4.9061,5.0087-4.8912,6.0652.0208,1.47.9111,3.1683,2.3478,3.9131,2.399,1.2437,4.9808-.8671,11.5435-4.1088,8.3217-4.1106,11.0302-4.1053,11.1522-5.8695Z"/>
      <path class="cls-2" d="M986.5517,197.5752c-1.0133-1.3728-3.9026-1.2452-5.4783.1957-.7821.7153-1.6747,2.151-1.1738,3.5217.5862,1.6044,2.7606,2.2429,4.3043,1.7609,2.2886-.7146,3.4572-3.9753,2.3478-5.4783Z"/>
      <path class="cls-2" d="M1016.5843,177.6187c-.8893-2.045-3.3699-2.5891-4.5-2.8369-1.0874-.2385-3.8954-.8544-5.7717.8804-1.9944,1.8439-1.7662,5.262-.4891,7.4348.1063.1809,2.0349,3.3516,5.087,3.1304,2.1146-.1532,3.4125-1.8363,4.1086-2.739.5642-.7316,2.6329-3.4142,1.5652-5.8696Z"/>
      <path class="cls-2" d="M693.2691,276.9447c-1.4695-1.5555-4.0227-1.8344-6-1.0435-2.4269.9708-4.1632,3.6243-3.6522,6.2609.6555,3.382,4.7264,5.2792,7.5653,4.174,3.4205-1.3317,4.5205-6.8153,2.0869-9.3914Z"/>
      <path class="cls-2" d="M740.8126,260.9665c-1.0707-1.228-3.552-1.2948-4.7935.1957-.8721,1.047-1.0145,2.7213-.0978,3.9131.8079,1.0502,2.2214,1.4441,3.326,1.076,1.9683-.6559,2.8602-3.6993,1.5652-5.1848Z"/>
      <path class="cls-2" d="M649.0517,302.6404c-.1993-1.1785-1.1105-2.4327-2.4457-2.6412-1.702-.2657-3.4231,1.2723-3.5217,3.0326-.11,1.9612,1.8188,3.7546,3.6196,3.4238,1.6024-.2943,2.624-2.1827,2.3478-3.8152Z"/>
      <path class="cls-2" d="M586.3778,316.5318c-.5948-1.2628-2.3345-1.8287-3.587-1.2391-.6297.2964-1.3675.9939-1.3696,1.8912-.0027,1.1869,1.2833,1.9139,2.0217,2.1522.2323.075,1.8707.5728,2.7391-.4565.5831-.691.5028-1.6957.1957-2.3478Z"/>
      <path class="cls-2" d="M531.53,329.9013c-.4257-1.8285-2.9458-2.3148-3.1304-2.3478-1.7782-.3179-4.262.373-4.9565,2.3478-.3864,1.0985-.1753,2.4701.6522,3.3914,1.3038,1.4515,3.548,1.1288,4.826.5217,1.3279-.6307,3.0011-2.2277,2.6087-3.9131Z"/>
    </g>
  </g>
</svg>