<?xml version="1.0" encoding="UTF-8"?>
<svg id="Capa_1" xmlns="http://www.w3.org/2000/svg" viewBox="0 0 1692.4791 1557.1003">
  <defs>
    <style>
      .cls-1 {
        fill: #898686;
      }

      .cls-2 {
        fill: #a3a2a2;
      }

      .cls-3 {
        fill: #c4c2c2;
      }

      .cls-4 {
        fill: #b0b0b0;
      }

      .cls-5 {
        fill: #dbdbdb;
      }

      .cls-6 {
        fill: #6b6969;
      }
    </style>
  </defs>
  <g>
    <path class="cls-4" d="M1364.6092,1152.7908c-76.89-15.03-141.05-49.0599-141.05-49.0599-6.73-3.5701-12.9399-7.0701-18.71-10.49-24.5701-14.5601-55.87-9.8901-75.3601,10.99-.1299.1399-.2599.2799-.3899.4199-35.79,38.16-106.0701,50.23-153.14,74.2-61.64,31.4001-103.4601,68.99-177.37,68.99-2.26,0-4.53-.0699-6.8101-.22-38.5699-2.46-74.02,21.92-83.9099,59.28-.2.75-.39,1.5-.5701,2.27-8.04,33.38,8.0901,38.47,0,90.45-3.1499,20.23-9.5099,58.22-37.1899,93.52-26.29,33.53-66.72,58.14-75.13,50.5901-10.51-9.4301,48.17-55.79,44.46-131.8401-1.37-28.26-9.25-36.95-12.26-81.26-1.89-27.79-4.02-63.6,7.66-104.25,2.94-10.23,6.06-21.05,9.78-31.6299.64-1.79-.29-3.76-2.08-4.3901l-.03-.01c-69.69-24.5699-126.55-36.0399-175.54-86.98-1.75-1.8099-3.49-3.6799-5.22-5.6-.48-.5299-.95-1.0699-1.42-1.62-13.77-15.95-35.76-22.09-55.6-15.01-4.44,1.5801-8.9901,3.47-13.65,5.73-11.13,5.3701-28.6,20.4401-63.55,50.5901-6.38,5.5-12.06,10.49-17.13,15.02-42.48,37.9199-43.11,44.0499-64.8,55.5-15.28,8.0699-51.75,25.22-101.35,27.5999-20.3.9701-70.9.8101-72.91-10.73-2.71-15.6099,88.88-20.21,158.76-93.52,3.86-4.0499,20.01-24.6799,52.32-65.9299,54.73-69.89,51.11-67.59,63.1299-81.25.17-.1899.33-.38.4901-.5601,30.96-35.0699,37.25-85.3398,16.2-127.1099-9.68-19.2101-16.69-39.3101-16.69-61.67,0-26.4701,11.16-50.09,24.9301-72.86,20.7599-34.3,17.47-77.9901-8.13-108.84l-.4-.47c-52.1-62.79-53.6-83.97-98.12-117.05-18.04-13.4-60.41-44.13-119.58-51.1-76.67-9.04-127.24,28.2-131.85,19.44-5.92-11.24,56.67-63.18,160.96-76.36,13.85-1.75,109.77-14.59,180.77,51.31,26.85,24.92,59.38,24.53,72.2,45.9,8.31,13.86,27.6,15.6,38.51,3.67.07-.08,21.73-31.1,21.8-31.18,38.77-42.16,85.26-19.13,137.47-44.21,59.29-28.47,104.3101-71.29,174.48-71.29h.11c15.58.12,29.2001-10.49,32.6-25.69.1801-.83.3601-1.64.54-2.45,12.86-57.69.54-65.91,8.5801-114.66,18.1899-110.22,130.5599-204.6,147.97-184.17,13.97,16.4-34.5801,69.58-51.1101,114.38-19.79,53.68,14.74,105.27,20.26,134.27,10.1801,53.44,24.49,53.76,35.9401,102.86.2699,1.16.5299,2.33.7899,3.52,5.97,27.14,24.5,49.89,49.9601,61.02,32.41,14.17,63.16,30.78,86.0599,55.39,11.79,12.66,20.55,27.31,27.6301,43.09,8.0999,18.05,27.1099,28.6,46.6699,25.63.1899-.03.38-.06.5701-.09,66.6599-10.08,77.8298,4.91,135.0898,0,104.9401-8.98,165.04-67.7,171.54-58.25,3.41,4.96-9.55,26.47-34.84,50.66-2.66,2.54-5.4501,5.12-8.38,7.7-24.38,21.55-57.89,44.03-97.8301,58.15-66.7,23.58-90.5199,2.31-141.0499,33.73-.09.06-.1901.12-.2799.18-14.1301,8.82-19.2201,26.89-12.1001,41.83.16.34.3301.68.5,1.01,1.42,2.74,2.8401,5.48,4.25,8.22,5.25,10.2,10.3501,20.41,14.8,30.8901,14.5,8.3899,33.52,16.75,56.75,21.0399,26,4.8099,30.59-2.22,64.3899,0,21.8801,1.4401,68.75,5.1,108.8501,35.75,24.5,18.7201,42.48,44.4701,38.33,49.58-4.5399,5.5801-30.34-19.6699-78.1901-29.6499-22.3999-4.6801-44.0599-3.1201-87.3899,0-40.42,2.8999-61.17,4.58-87.39,15.33-1.34.5499-2.66,1.11-3.9601,1.6801-2.47,11.0599-6.1399,22.3199-10.3999,33.5599-.49,1.28-.98,2.5599-1.48,3.84-2.47,6.3301-5.1201,12.66-7.8301,18.9301-6.86,15.87-3.05,34.33,9.5901,46.13.26.24.51.48.76.71,31.5599,29.49,29.1799,47.0601,52.0499,76.65,50.51,65.35,138.2999,78.22,199.38,87.17,116.24,17.04,187.9399-12.17,190.11-3.4301,3.2301,13.0499-151.66,98.6-315.8199,66.51Z"/>
    <path class="cls-5" d="M981.2525,12.0001c3.0959,0,5.5225.9065,7.1367,2.8007,13.97,16.3999-34.5801,69.58-51.1101,114.38-19.79,53.6799,14.74,105.2699,20.26,134.2699,10.1799,53.4401,24.49,53.76,35.9399,102.8601.27,1.1599.53,2.33.79,3.5199,5.97,27.14,24.5,49.89,49.96,61.02,32.4102,14.17,63.1602,30.78,86.0601,55.39,11.79,12.66,20.55,27.3101,27.6301,43.09,7.1873,16.0163,22.9651,26.1276,40.0945,26.1276,2.175,0,4.3716-.163,6.5754-.4976.1899-.03.3799-.06.5701-.09,17.5396-2.6523,31.24-3.569,42.9468-3.569,26.1912,0,42.4155,4.5872,69.395,4.5872,6.7917,0,14.2625-.2905,22.748-1.0182,97.1641-8.3146,155.8892-59.2758,169.2178-59.2758,1.0667,0,1.8406.3256,2.3223,1.0258,3.4099,4.96-9.55,26.47-34.8401,50.66-2.6599,2.54-5.45,5.12-8.3799,7.7-24.3801,21.55-57.8901,44.03-97.8301,58.15-66.7,23.58-90.52,2.31-141.05,33.73-.0898.06-.1899.1201-.2798.1801-14.1301,8.8199-19.2202,26.89-12.1001,41.83.1599.34.3301.68.5,1.01,1.4199,2.74,2.8401,5.48,4.25,8.22,5.25,10.2,10.3501,20.41,14.8,30.89,14.5,8.39,33.52,16.75,56.75,21.04,6.9221,1.2806,12.3286,1.722,17.1707,1.722,10.7358,0,18.708-2.1686,34.3262-2.1686,3.7969,0,8.043.128,12.8931.4466,21.8801,1.44,68.75,5.1,108.8501,35.75,24.5,18.72,42.48,44.47,38.3298,49.58-.4431.5446-1.0894.7957-1.9382.7957-7.8481,0-33.0715-21.4396-76.2517-30.4456-10.1116-2.1126-20.0725-2.9537-31.9443-2.9537-14.427,0-31.6755,1.2421-55.4456,2.9537-40.4202,2.9-61.1702,4.58-87.3901,15.33-1.3398.55-2.6599,1.11-3.96,1.68-2.47,11.06-6.1399,22.32-10.3999,33.56-.49,1.28-.98,2.56-1.48,3.84-2.47,6.33-5.1201,12.66-7.8301,18.93-6.8601,15.87-3.05,34.33,9.5901,46.13.26.24.51.48.76.71,31.5598,29.49,29.1799,47.06,52.0498,76.65,50.51,65.35,138.3,78.22,199.3801,87.17,27.2083,3.9885,51.9856,5.4435,73.9927,5.4435,59.2676,0,98.5044-10.5444,111.4658-10.5455,2.7871-.0002,4.3572.4872,4.6514,1.672,2.7258,11.0125-107.1729,73.6613-240.1985,73.6613-24.6116,0-49.9915-2.1411-75.6213-7.1513-76.8901-15.03-141.05-49.06-141.05-49.06-6.73-3.57-12.9399-7.07-18.71-10.49-9.5947-5.6857-20.2197-8.439-30.7627-8.4397-16.4558-.0011-32.7183,6.7034-44.5974,19.4297-.1299.14-.26.28-.3899.42-35.79,38.16-106.0701,50.23-153.1401,74.2-61.6399,31.4-103.4598,68.99-177.3699,68.99-2.26,0-4.53-.07-6.8101-.22-1.7867-.114-3.5734-.1703-5.3445-.1705-36.4617-.0028-69.1337,23.8212-78.5654,59.4505-.2001.75-.39,1.5-.5701,2.27-8.04,33.38,8.09,38.47,0,90.45-3.15,20.23-9.51,58.22-37.1899,93.52-23.0599,29.4104-57.0001,51.9596-70.6671,51.9596-1.9144,0-3.4297-.4419-4.4629-1.3696-10.51-9.43,48.1699-55.79,44.46-131.84-1.37-28.26-9.25-36.95-12.26-81.26-1.89-27.79-4.02-63.6,7.66-104.25,2.9399-10.23,6.0599-21.05,9.78-31.63.6399-1.79-.29-3.76-2.0801-4.39l-.03-.01c-69.6899-24.57-126.5499-36.04-175.5399-86.98-1.75-1.81-3.49-3.68-5.22-5.6-.4801-.53-.9501-1.07-1.42-1.62-9.9451-11.5196-24.1808-17.9221-38.7946-17.9229-5.6205-.0003-11.2944.9463-16.8054,2.9129-4.4401,1.58-8.99,3.47-13.65,5.73-11.13,5.37-28.6,20.44-63.55,50.59-6.38,5.5-12.0599,10.49-17.13,15.02-42.48,37.92-43.11,44.05-64.7999,55.5-15.28,8.07-51.75,25.22-101.35,27.6-4.3948.21-10.2141.3671-16.6486.3671-23.2875,0-54.6866-2.0554-56.2615-11.0971-2.71-15.61,88.88-20.21,158.76-93.52,3.86-4.05,20.01-24.68,52.3199-65.93,54.73-69.89,51.11-67.59,63.13-81.25.17-.19.3301-.38.49-.56,30.9601-35.07,37.25-85.34,16.2001-127.11-9.6801-19.21-16.6901-39.3101-16.6901-61.67,0-26.47,11.16-50.09,24.9301-72.86,20.76-34.3,17.47-77.99-8.13-108.84l-.4-.47c-52.1-62.79-53.6-83.97-98.12-117.05-18.04-13.3999-60.41-44.13-119.58-51.1-8.4045-.991-16.5028-1.4258-24.2539-1.426-55.4186-.002-93.4603,22.2111-104.5782,22.2111-1.5126,0-2.5264-.4109-3.0179-1.345-5.9199-11.24,56.67-63.1801,160.9601-76.36,4.29-.5421,16.4613-2.1487,33.3204-2.1487,37.5685,0,98.442,7.9714,147.4496,53.4586,26.85,24.92,59.3799,24.53,72.2,45.9,4.5891,7.6541,12.5283,11.6124,20.5542,11.6124,6.5072,0,13.0708-2.6007,17.9558-7.9425.0699-.08,21.73-31.1,21.7999-31.1799,38.77-42.16,85.26-19.13,137.4701-44.21,59.2899-28.4701,104.3099-71.29,174.48-71.29h.11c.0865.0006.1752.001.2616.001,15.4716,0,28.9573-10.5754,32.3384-25.691.1801-.83.36-1.6399.54-2.45,12.86-57.6899.54-65.91,8.58-114.66,16.5035-100.0012,110.5372-186.9706,140.8334-186.9706M981.2525,0c-10.3384,0-23.6389,5.8722-39.5325,17.4531-14.8857,10.8467-30.5039,25.6193-45.1666,42.7212-20.9928,24.4852-57.7388,74.8224-67.974,136.8424-3.7908,22.9843-3.2855,37.4888-2.7966,51.5157.575,16.5066,1.118,32.098-5.6562,62.4873-.1837.8278-.3661,1.6478-.5482,2.4875-2.165,9.579-10.6362,16.2644-20.6174,16.2644l-.1625-.0005-.0497-.0005h-.1595c-53.5784,0-93.8304,23.7007-132.7574,46.621-15.0399,8.8555-30.5919,18.0123-46.9169,25.8514-19.9642,9.5902-39.5245,11.5248-58.4409,13.3956-28.0431,2.7736-57.0408,5.6415-82.6676,33.5093l-.1005.1091-.0977.1115q-.4659.5326-11.7057,16.619c-4.1984,6.0087-8.8776,12.7056-10.3654,14.8295-2.3325,2.311-5.3815,3.5759-8.6537,3.5759-4.255,0-8.0912-2.1619-10.2625-5.7831-8.6733-14.4575-22.9572-20.6495-38.0797-27.205-12.249-5.3101-24.9148-10.8004-36.2488-21.3197-23.146-21.4834-50.9987-37.1289-82.7838-46.5015-22.8662-6.7429-47.3694-10.1617-72.8291-10.1617-17.1343,0-29.7086,1.5946-34.4424,2.1948l-.3826.0486c-52.4829,6.6326-91.4564,22.2888-114.9095,34.255-26.9795,13.7653-47.8019,30.1165-54.3412,42.6726-4.0022,7.6841-2.656,13.4479-.8221,16.9297,1.2262,2.3293,5.0118,7.7529,13.6353,7.7529,5.4968,0,11.9673-2.2865,21.7616-5.7472,18.5563-6.5566,46.5986-16.4652,82.8162-16.464,7.6039.0005,15.2915.4526,22.8491,1.3435,57.1781,6.7355,98.3357,37.307,113.8297,48.816,25.905,19.248,35.9479,33.6285,52.5867,57.4533,10.3293,14.7905,23.1846,33.1976,43.4539,57.6259l.0479.0576.0486.0572.3528.4146c22.2894,26.9113,25.1249,65.0404,7.0498,94.9045-13.1864,21.8047-26.6641,48.2476-26.6641,79.0735,0,21.4233,5.7112,42.7352,17.9736,67.07,18.9755,37.6536,13.2919,82.31-14.4796,113.7683-.0802.09-.1879.2139-.2966.3393l-.1403.1609-.0331.0369-.0328.0374c-6.0436,6.8679-8.3412,9.9172-15.1619,18.9681-7.4408,9.8738-19.894,26.3993-48.4072,62.8105l-1.224,1.5629c-29.2626,37.3595-46.9253,59.9095-50.3347,63.4867-42.0896,44.1555-93.576,62.6381-124.3379,73.6809-9.9742,3.5807-17.8524,6.4088-23.7255,9.381-4.0045,2.0266-6.89,4.03-9.0807,6.305-3.9706,4.1231-5.6584,9.2671-4.7524,14.4847.7728,4.4379,3.7247,10.5634,13.4048,14.5795,4.2668,1.7705,9.7054,3.1357,16.6262,4.1743,12.619,1.8933,27.6588,2.2907,38.0535,2.2907,5.9662,0,12.0822-.1352,17.2214-.3807,46.8362-2.2474,83.7019-16.9974,106.3812-28.9755,15.2524-8.0514,21.3162-13.9203,34.6024-26.7791,7.2573-7.024,17.1967-16.6436,32.5847-30.3798,5.2891-4.7257,10.9985-9.7319,16.9741-14.8833,33.0299-28.4936,51.2228-44.1879,60.9292-48.871,4.1127-1.9945,8.297-3.7514,12.4586-5.2324,4.1293-1.4736,8.4261-2.2188,12.7814-2.2184,11.3209.0005,22.1409,5.0085,29.6914,13.7405.6067.7095,1.125,1.3005,1.6296,1.8576,1.839,2.0412,3.6921,4.0291,5.4873,5.886,42.5062,44.1981,90.0814,59.9188,145.1691,78.1221,8.7932,2.9057,17.8188,5.8882,27.0479,9.0628-2.7137,8.3745-5.0922,16.6506-7.2528,24.1693-12.5093,43.5357-9.8555,82.5574-8.0994,108.3788,1.6931,24.9219,4.8499,38.9067,7.635,51.2452,2.2539,9.9838,4.0341,17.8698,4.6115,29.7814,2.1879,44.8471-19.0905,78.3902-33.1707,100.5864-4.3436,6.8471-7.7745,12.2555-9.9536,17.0855-5.6315,12.4826-.7655,19.4667,2.6362,22.5188,2.254,2.0236,6.2505,4.4379,12.4768,4.4379,12.1149,0,27.7717-9.3407,38.7732-17.1767,15.2795-10.8833,29.9602-24.8681,41.3373-39.3786,30.1667-38.4714,36.5408-79.406,39.6039-99.0781,4.5591-29.2933,1.85-45.1731-.3269-57.9329-1.7966-10.5307-3.0947-18.1395.1362-31.5533l.0093-.0393.0093-.039c.1404-.601.2974-1.2257.4797-1.9098,7.8807-29.7697,35.4174-50.5448,66.9697-50.5424,1.524.0002,3.0656.0493,4.5809.1462,2.4567.1617,5.0132.2443,7.5746.2443,59.4529,0,99.4727-23.1257,141.842-47.6095,13.0366-7.5331,26.5166-15.3226,40.9749-22.6879,15.5579-7.9226,33.8511-14.5222,53.2185-21.5091,38.2515-13.7995,77.8052-28.0688,103.2273-55.1745l.0203-.0217.0205-.0219.3901-.42c9.2439-9.9036,22.3015-15.5959,35.8027-15.5952,8.658.0005,17.1807,2.3393,24.646,6.7633,6.1836,3.665,12.6453,7.2878,19.2043,10.7674,2.6846,1.4238,66.6277,35.0393,144.3711,50.2362,25.0315,4.8931,51.2488,7.3743,77.9236,7.3743,68.5393,0,127.2639-16.0045,164.4585-29.4307,39.6411-14.3095,74.0969-32.9533,83.7905-45.3388,4.4001-5.6221,4.3853-10.5943,3.5977-13.7752-.8062-3.2488-4.0046-10.7886-16.2976-10.7886-5.071.0005-12.1953,1.1224-22.0557,2.6755-19.897,3.1341-49.9656,7.87-89.4119,7.87-23.8774,0-48.1868-1.7888-72.2524-5.3167-60.8022-8.9093-144.0725-21.111-191.6262-82.6355-8.6211-11.1545-13.2593-20.2504-18.1697-29.8807-7.3379-14.3907-14.9258-29.2712-35.1816-48.1986l-.0342-.0319-.0339-.0314-.291-.2719c-.1387-.1303-.2786-.2618-.4211-.3937-8.8745-8.2977-11.5864-21.3882-6.7476-32.5818,3.1272-7.2357,5.7419-13.5583,7.9939-19.3293.5083-1.3012,1.0081-2.6067,1.5078-3.9119,4.0366-10.6504,7.1426-20.2355,9.4336-29.1252,23.1963-9.2237,42.2507-10.9161,81.9685-13.7657,23.5691-1.6974,40.5923-2.9231,54.5867-2.9229,11.458,0,20.553.8326,29.4905,2.7,26.2551,5.476,45.4834,15.8729,58.2073,22.7526,9.1648,4.9555,14.6968,7.9467,20.4983,7.9467,4.512,0,8.5059-1.8545,11.2461-5.2216,1.8188-2.2398,3.8362-6.1038,3.155-11.8414-1.7646-14.8719-23.5068-39.566-43.5071-54.8479-18.5913-14.21-40.6628-24.6157-65.5991-30.9266-21.2954-5.3895-39.8047-6.6078-49.7485-7.2621-4.8416-.3181-9.3164-.4726-13.6812-.4726-9.1589,0-15.8208.6907-21.6985,1.3-4.4973.4662-8.3816.8688-12.6277.8688-4.6121,0-9.3748-.4836-14.9878-1.5219-17.2634-3.1881-33.9043-9.1414-49.5242-17.7115-4.2917-9.7346-9.0205-19.1317-13.5393-27.9104-1.4146-2.7493-2.8398-5.4995-4.2651-8.2498-.0916-.1781-.1975-.3879-.2964-.5981l-.0127-.0267-.0127-.0264c-4.5503-9.5481-1.2737-20.9352,7.6216-26.4879l.1526-.0953.0745-.0496c.0466-.0296.0913-.0582.1348-.0861,25.1321-15.6013,42.6958-16.8369,64.9219-18.3994,19.7048-1.3853,42.0386-2.9553,73.6919-14.1454,45.9551-16.2467,80.7122-41.8527,101.7776-60.4727,2.8384-2.4995,5.6963-5.1252,8.72-8.0124,12.2979-11.7628,22.9141-24.046,29.8999-34.5938,6.4485-9.7362,13.0198-22.1202,6.5415-31.5433-2.7229-3.9585-7.1731-6.2274-12.2109-6.2274-6.9333,0-14.5454,4.2246-28.3638,11.8939-28.1128,15.6028-75.165,41.7169-141.877,47.4257-7.6472.6557-14.7529.9743-21.7251.9743-12.9485,0-23.1509-1.0933-33.9526-2.2507-10.7188-1.1486-21.8027-2.3364-35.4426-2.3364-13.6243,0-28.2593,1.2117-44.741,3.704l-.0386.0057-.0388.0062-.5283.0834c-1.5718.2371-3.168.3573-4.7451.3573-12.5154,0-23.9561-7.4738-29.1467-19.0407-8.3657-18.6457-18.1123-33.8088-29.7964-46.355-26.199-28.1554-61.8784-45.8966-90.0347-58.2069-21.8064-9.5328-37.8987-29.1976-43.0474-52.603-.2681-1.2272-.5398-2.4501-.822-3.6625-5.6931-24.4133-12.0649-37.4442-18.2273-50.0464-6.4382-13.1669-12.5193-25.6038-17.6123-52.3385-1.689-8.8737-5.4294-18.7017-9.7605-30.0815-10.6548-27.9958-23.9148-62.8378-11.0283-97.7921,6.2339-16.895,17.9443-36.0857,28.2764-53.0171,8.2537-13.5258,16.0498-26.3014,20.8584-37.3359,2.5518-5.8552,10.3167-23.6733-.1489-35.9594-2.7295-3.2031-7.7671-7.0193-16.2717-7.0193h0Z"/>
  </g>
  <path class="cls-1" d="M1505.1791,835.3607c-4.5399,5.5801-30.34-19.6699-78.1901-29.6499-22.3999-4.6801-44.0599-3.1201-87.3899,0-40.42,2.8999-61.17,4.58-87.39,15.33-1.34.5499-2.66,1.11-3.9601,1.6801-2.47,11.0599-6.1399,22.3199-10.3999,33.5599-18.05,5.04-30.4299,7.4601-36.14-.87-10.9401-15.95,24.22-39.6699,20.42-86.0701-3.6301-44.3499-39.41-67.3099-30.6401-79.3799,3.6101-4.96,11.9901-4.3,25.8201-1.09.16.34.3301.68.5,1.01,1.42,2.74,2.8401,5.48,4.25,8.22,5.25,10.2,10.3501,20.41,14.8,30.8901,14.5,8.3899,33.52,16.75,56.75,21.0399,26,4.8099,30.59-2.22,64.3899,0,21.8801,1.4401,68.75,5.1,108.8501,35.75,24.5,18.7201,42.48,44.4701,38.33,49.58Z"/>
  <path class="cls-4" d="M736.5845,484.3489l-17.13,9.25-116.25,62.81c1.87-12.25,2.5499-23.4,2.42-33.45-.24-19.44-3.51-34.82-7.02-46.27-9.76-31.94-24.3101-43.16-26.0601-75.13-.51-9.35.6401-10.18,7.66-52.12,7.41-44.18,11.11-66.27,10.74-76.66-1.45-40.4-20.47-70.58-29.13-84.32-29.78-47.24-66.29-60.73-62.86-67.46,4.67-9.15,80.25.01,122.65,52.13,20.97,25.78,26.76,57.56,38.3301,121.11,12.8198,70.41,7.45,98.13,30.6599,137.99,14.5601,24.99,32.8,41.8,45.99,52.12Z"/>
  <path class="cls-4" d="M472.3269,912.089c-6.88-5.2001-15.78-11.3801-26.63-17.54-11.28-6.41-24.65-12.79-40.0599-18.04-23.5901-8.03-32.6801-6.83-98.8801-16.25-65.78-9.35-63.3599-11.47-87.3899-12.5599-57.8101-2.63-83.24,9.0699-87.3901,0-5.5499-12.15,32.0901-50.5699,80.4901-64.39,37.12-10.61,57.24-.0801,96.59,0,32.6799.0601,79.86-7.0901,137.98-41.88l1.29,8.71,24,161.9501Z"/>
  <path class="cls-3" d="M385.5042,803.8143c-9.6373,4.7044-22.8582,7.6569-51.5021,7.023-35.548-.7867-36.0825-5.7967-55.0135-3.5115-23.7866,2.8713-44.0862,13.3332-43.3084,16.788.7896,3.5078,22.7843-2.5444,59.6953,0,20.4535,1.41,35.6062,4.7784,59.6956,10.1336,33.8431,7.5234,53.0098,21.1989,57.3544,15.4444,2.5474-3.3741-3.7459-8.0718-5.4135-19.6875-3.3466-23.307,16.5076-42.5776,13.1683-45.2105-1.6243-1.2808-6.2088,3.3688-19.3133,10.9734,0,0-5.9452,3.45-15.3629,8.0471Z"/>
  <path class="cls-2" d="M1364.6069,1152.7889c-76.8901-15.03-141.05-49.0601-141.05-49.0601-6.73-3.5699-12.9399-7.0699-18.71-10.49-24.5701-14.5599-55.8701-9.8899-75.3601,10.99-.1299.1401-.26.28-.3899.42-35.79,38.16-106.0701,50.2301-153.14,74.2001-61.64,31.3999-103.4601,68.99-177.37,68.99-2.26,0-4.53-.0701-6.8101-.22-38.5699-2.4601-74.02,21.9199-83.9099,59.2799-.2001.75-.3901,1.5-.5701,2.27-8.04,33.38,8.0901,38.47,0,90.4501-3.1499,20.23-9.51,58.22-37.1899,93.5199-26.29,33.53-66.72,58.14-75.1301,50.59-10.5099-9.4299,48.1702-55.7899,44.4601-131.84-1.37-28.2599-9.25-36.95-12.26-81.2599-1.89-27.79-4.0199-63.6001,7.66-104.25,2.9399-10.2301,6.0601-21.05,9.78-31.6301.6399-1.79-.29-3.76-2.0801-4.3899l-.03-.01c-72.1799-25.4501-130.59-36.8401-180.76-92.5801-.48-.53-.95-1.0699-1.4199-1.62-13.77-15.95-35.76-22.09-55.6001-15.01-4.4399,1.58-8.99,3.4701-13.6499,5.7301-11.13,5.3699-28.6001,20.4399-63.55,50.5898-6.3799,5.5-12.0599,10.4901-17.1299,15.02,7.2-29.8899,21.0199-58.6799,48.3199-76.08,39.66-25.2799,85.61-18.88,88.86-18.39,20.25,3.1001,39.54,13.3,78.12,33.7,46.59,24.6301,45.83,30.1501,62.91,32.1702,30.74,3.6399,39.8099-13.4701,78.52-9.1901,14.9199,1.65,31.01,3.4301,43.9299,15.3199,20.5701,18.92,14.13,45.97,26.5801,49.02,10.6099,2.6001,16.6299-16.6899,48.49-36.76,16.3899-10.33,18.1199-7.3101,31.6599-16.34,26.9301-17.9701,22.74-36.3099,44.9301-50.0499,21.9401-13.5701,30.0299-7.8901,82.73-26.55,31.2799-11.0701,47.2299-16.89,62.2999-30.64,12.6501-11.55,14.28-18.38,29.6101-29.4301,9.98-7.1899,25.6199-18.46,46.02-19.59,19.8198-1.1,23.9299,8.48,57.3899,15.3199,18.4202,3.77,39.5901,8.1001,44.6799,0,7.4202-11.8099-39.7272-27.8179-43.9171-32.148-24.8-25.6499-31.5973-20.2819-45.9574-40.7519-2.78-3.9601-7.9953-46.5701-5.1054-78.25,1.8101-19.9301,10.28-26.77,6.1301-42.89-3.78-14.6901-12.3601-15.05-19.4099-30.64-11.4502-25.3501-1.3501-52.26,0-55.72,9.27-23.6801,29.7-35.4,46.98-45.39,119.6899-69.14,123.79-48.58,141.96-51.0601,75.8301-10.35,134.3799-67.55,210.8198-60.86-24.8098,23.73-61.48,50.04-106.21,65.8501-66.7,23.5798-90.52,2.3099-141.0498,33.73-.0901.0599-.1902.1199-.28.1799-14.45,9.02-19.45,27.71-11.6001,42.8401,17.01,32.7799,33.8101,64.95,33.8101,104.9299,0,26.8201-10.9001,56.04-23.0801,84.24-6.8601,15.87-3.05,34.3301,9.5901,46.13.26.24.51.48.76.71,31.5598,29.4901,29.1799,47.0601,52.05,76.65,50.5098,65.35,138.2998,78.22,199.3799,87.1699,116.24,17.04,187.9399-12.1699,190.1099-3.4299,3.2302,13.05-151.6599,98.6001-315.8198,66.51Z"/>
  <path class="cls-4" d="M1145.3669,439.8889c-11.6599,14.7-11.24,19.77-38.3301,75.1201-13.9199,28.46-17.6199,34.45-23.6499,41.4-3.02,3.48-6.1301,6.64-9.28,9.5-11.6201,10.5699-23.6101,17.11-32.54,21.16l-30.5-49.25-23.61-38.14c13.4-2.49,33.65-7.93,54.11-21.46,27.79-18.38,29.1099-33.94,54.74-52.13,35.03-24.85,79.3101-28.99,82.79-21.46,2.28,4.92-14.6001,11.14-33.73,35.2599Z"/>
  <path class="cls-1" d="M1364.6069,1152.7889c-76.8901-15.03-141.05-49.0601-141.05-49.0601-6.73-3.5699-12.9399-7.0699-18.71-10.49-24.5701-14.5599-55.8701-9.8899-75.3601,10.99-.1299.1401-.26.28-.3899.42-35.79,38.16-106.0701,50.2301-153.14,74.2001-61.64,31.3999-103.4601,68.99-177.37,68.99-2.26,0-4.53-.0701-6.8101-.22-38.5699-2.4601-74.02,21.9199-83.9099,59.2799-.2001.75-.3901,1.5-.5701,2.27-8.04,33.38,8.0901,38.47,0,90.4501-3.1499,20.23-9.5099,58.22-37.1899,93.5199-26.29,33.53-66.72,58.14-75.1301,50.59-10.5099-9.4299,48.1702-55.7899,44.4601-131.84-1.37-28.2599-9.25-36.95-12.26-81.2599-1.89-27.79-4.0199-63.6001,7.66-104.25,2.9399-10.2301,6.0601-21.05,9.78-31.6301.6399-1.79-.29-3.76-2.0801-4.3899l-.03-.01c-69.6899-24.5701-126.5499-36.04-175.5399-86.98,11.47-.3901,22.6901.6199,32.74,2.95,43.2699,10.04,47.61,40.6899,98.9301,47.87,19.24,2.6901,37.3199.99,53.5898,15.01,4.3401,3.73,12.51,11.99,19.52,33.2599,15.8801,48.1901.8701,87.51,8.17,89.9601,7.59,2.5399,16.75-42.4501,57.64-69.4501,18-11.8899,36.8301-16.7699,58.78-22.47,29.35-7.6199,44.73-7.1199,61.0701-9.71,58-9.1899,64.0499-47.1599,159.53-100.8,35.8799-20.1599,57.98-27.6899,66.4399-30.4199,22.1599-7.15,56.9199-18.37,95.9299-13.65,39.9299,4.83,45.0801,21.61,94.99,41.52,65.5701,26.16,128.9102,26.01,130.72,18.88,1.71-6.7-52.45-13.12-108.25-60.4-35.3999-29.99-58.73-61.88-58.73-61.88-23.03-31.48-24.52-45.4199-45.95-58-19.76-11.6-31.3501-7.29-51.3201-23.75-8.1699-6.74-21.78-17.96-23.75-35.24-1.5901-14,5.27-24.87,14.99-40.29,5.26-8.34,14.3701-22.8,30.97-34.27,28.5901-19.76,30.1572-14.0009,29.957-17.8608-.1499-3,10.9431-4.7891-13.627-12.5591-17.72-5.6001-39.02-12.3301-45.4399-29.8201-5.9202-16.1499,3.8899-33.1,6.8999-38.2999,4.0701-7.02,10.02-14,38.54-32.17,18.6101-11.86,27.9199-17.79,41.8801-24.51,44.46-21.3999,68.3198-18.3101,125.6199-35.24,16.3401-4.83,32.8501-11.24,65.8699-24.0601,23.4902-9.1199,41.6001-16.7199,55.8901-22.9899-24.3799,21.55-57.8901,44.03-97.8301,58.1501-66.7,23.5798-90.52,2.3099-141.0498,33.73-.0901.0599-.1902.1199-.28.1799-14.45,9.02-19.45,27.71-11.6001,42.8401,17.01,32.7799,33.8101,64.95,33.8101,104.9299,0,26.8201-10.9001,56.04-23.0801,84.24-6.8601,15.87-3.05,34.3301,9.5901,46.13.26.24.51.48.76.71,31.5598,29.4901,29.1799,47.0601,52.05,76.65,50.5098,65.35,138.2998,78.22,199.3799,87.1699,116.24,17.04,187.9399-12.1699,190.1099-3.4299,3.2302,13.05-151.6599,98.6001-315.8198,66.51Z"/>
  <path class="cls-4" d="M1095.1155,1398.2134c-1.4978,3.2888-7.1551,6.8454-15.8163,8.0671h-.0084c-19.4902,2.7365-54.1775-6.3515-90.8315-56.7967-12.0171-16.5445-17.2892-40.0766-23.7915-59.0732-11.4564-33.4488-20.486-67.7847-37.0389-99.2501-13.9837-26.5783-33.0387-51.0477-58.0521-67.6759-17.2725-11.4815-36.8966-18.9379-54.7215-29.5408-20.1514-11.9836-29.6662-26.3021-41.265-45.6332l27.8419-14.4106,147.6869-76.4459,14.101-7.2974c17.1805,19.6325,2.9038,81.9693,20.193,127.3348,9.1301,23.9506,11.2223,38.3862,25.5741,112.9074,15.0214,77.9106,22.6368,117.1001,28.2269,128.2972,38.5871,77.2745,62.2448,69.9354,57.9014,79.5173Z"/>
  <path class="cls-3" d="M746.7412,500.5363l-29.1268-10.1372c-13.9401-15.36-27.5475-37.9901-30.2975-42.3202-7.8401-12.34-19.98-31.77-27.5701-59.75-3.6199-13.31-3.8099-19.77-6.8999-51.19-4.98-50.79-7.48-76.18-11.64-94.34-8.03-35.06-12.0499-52.58-27.58-70.47-18.8501-21.71-43.3701-30.99-68.78-40.59-9.6001-3.64-29-10.97-31.4-6.9-2.9,4.91,22.9401,19.58,49.7799,52.09,14.4102,17.45,31.1602,37.73,37.9001,66.64,2.8099,12.04,1.9199,17.2-3.4301,75.83-6.49,71.16-6.27,75.44-5.36,81.84,2.1799,15.27-4.2767,19.3754,26.29,81.3,8.5719,17.3658,11.8019,50.9542,8.5719,53.1542-3.8401,2.62-36.1373,55.1052-20.602-12.7342-.24-19.44-3.51-34.82-7.02-46.27-9.76-31.94-24.3101-43.16-26.0601-75.13-.51-9.35.6401-10.18,7.66-52.12,7.41-44.18,11.11-66.27,10.74-76.66-1.45-40.4-20.47-70.58-29.13-84.32-29.78-47.24-66.29-60.73-62.86-67.46,4.67-9.15,80.25.01,122.65,52.13,20.97,25.78,26.76,57.56,38.3301,121.11,12.8198,70.41,7.45,98.13,30.6599,137.99,9.7731,16.774,39.4718,40.9732,59.3172,53.3779,6.8233,4.265,3.9025,14.7906-4.1429,14.9295Z"/>
  <path class="cls-3" d="M143.7468,838.4689c2.1101,4.2101,15.4701-2.5699,42.8901-4.0999,11.1799-.6201,15.3398.1499,67.9099,6.6099,29.03,3.5601,43.79,5.3701,55.8501,6.67,44.2,4.77,40.4199,2.91,53.4299,5.37,26.11,4.9301,85.0219,12.5028,95.2347,46.9709-11.28-6.41-38.0147-18.2309-53.4246-23.4809-23.5901-8.03-32.6801-6.83-98.8801-16.25-65.78-9.35-63.3599-11.47-87.3899-12.5599-57.8101-2.63-83.24,9.0699-87.3901,0-5.5499-12.15,32.0901-50.5699,80.4901-64.39,37.12-10.61,57.24-.0801,96.59,0,30.3828.0558,90.3454-20.4585,144.8293-51.2999,3.4177-1.9347,3.7898,1.6687,1.8562,5.0871l-12.5106,10.9787c-6.4,6.9501-18.8849,24.584-64.0649,36.5041-22.42,5.9199-46.11,12.1699-77.2799,9.6-24.1801-1.99-25.6401-7.04-48.3601-7.2999-32.74-.3701-56.3999,9.8298-63.83,13.2799-25.42,11.83-48.9601,32.3199-45.9501,38.3099Z"/>
  <path class="cls-3" d="M1145.3669,439.8889c-11.6599,14.7-11.24,19.77-38.3301,75.1201-13.9199,28.46-21.1668,54.3425-16.0604,73.7468,1.1726,4.456-14.2979.5187-15.5745-8.9362,1.23-7,8.5019-29.594,9.7021-35.234,4.7898-22.42,8.8085-35.2147,14.8085-47.7447,10.3101-21.57,21.6207-38.0177,24.5106-42.1277,19.53-27.79,40.4834-44.9393,38.5532-47.4894-2.48-3.28-40.4696,14.8351-65.8695,38.5551-19.8,18.49-21.25,28.2-38.3,48.38-9.1832,10.8631-49.6667,6.2069-73.1346,2.4346-2.8578-.4594-2.7097-4.6183.1742-4.8651,17.4181-1.4903,41.2276-3.9256,55.7203-13.5096,27.79-18.38,29.1099-33.94,54.74-52.13,35.03-24.85,79.3101-28.99,82.79-21.46,2.28,4.92-14.6001,11.14-33.73,35.2599Z"/>
  <path class="cls-3" d="M1095.1155,1398.2134c-1.4978,3.2888-7.1551,6.8454-15.8163,8.0671h-.0084c-19.4902,2.7365-54.1775-6.3515-90.8315-56.7967-12.0171-16.5445-17.2892-40.0766-23.7915-59.0732-11.4564-33.4488-20.486-67.7847-37.0389-99.2501-13.9837-26.5783-33.0387-51.0477-58.0521-67.6759-17.2725-11.4815-36.8966-18.9379-54.7215-29.5408-10.1236-6.0203-17.5627-12.6299-23.9302-20.1683-6.225-7.3697,6.8142-2.1546,15.7433,1.497,29.2722,11.9708,60.2698,24.0334,73.2119,38.2158,30.1265,33.0137,53.9998,58.3242,57.1715,64.9855,12.536,26.3356,11.7159,34.9133,35.7417,100.9407,15.8081,43.4742,21.8167,55.3072,31.4907,67.9436,22.4024,29.2897,61.6711,49.9629,65.5123,46.1552,3.9331-3.9165-27.4289-29.37-46.668-75.9657-6.268-15.1888-16.2837-39.5056-24.8864-88.1515-9.5652-54.0772-10.4356-70.4877-20.4359-105.4512-7.6237-26.6537-9.6405-25.9171-15.3561-45.8174-4.0101-13.9686-1.771-75.4636-.258-107.8527.2434-5.2096,7.7937-5.6762,8.6551-.5325,4.6575,27.8112-.7487,72.8128,12.5659,107.7492,9.1301,23.9506,11.2223,38.3862,25.5741,112.9074,15.0214,77.9106,22.6368,117.1001,28.2269,128.2972,38.5871,77.2745,62.2448,69.9354,57.9014,79.5173Z"/>
  <path class="cls-2" d="M917.2352,578.3833c.8388-3.2475,3.4619-12.9603,11.0063-20.4389,18.0089-17.8517,50.8024-9.8323,51.0853-6.5346.1921,2.2388-14.7572.4748-31.0458,11.2742-21.6982,14.386-26.5906,38.3483-31.0458,36.8488-3.1502-1.0603-1.983-13.4714,0-21.1494Z"/>
  <path class="cls-2" d="M888.0991,701.6503c-11.2598,1.2352-24.5518,2.6931-37.1428,12.9193-17.4957,14.2098-19.9737,34.252-21.8009,49.0297-1.2658,10.2372-2.3352,20.0949,4.0373,27.7103,5.1877,6.1993,14.9246,10.4561,20.186,7.2343,5.2224-3.198,2.5282-11.6171,4.7387-27.4532,1.6882-12.0943,3.5265-25.265,11.41-33.9127,15.0906-16.5531,43.4519-6.7937,46.8322-17.7638,1.6075-5.2172-3.5146-11.6206-7.267-14.5341-2.4676-1.9161-7.4272-4.7179-20.9936-3.2299Z"/>
  <path class="cls-2" d="M1057.7281,780.9235c8.4126,9.5932,9.5948,20.9386,10.1868,27.4704.4569,5.0416,2.1812,24.066-10.1868,40.6228-10.9688,14.6835-19.2518,13.9072-21.2537,11.4443-2.0506-2.5229,5.1426-4.4885,11.3122-25.9561,4.9382-17.1822.8651-33.6957-.2866-37.9305-4.3878-16.1323-12.6612-24.2158-10.1453-26.6493,2.5021-2.4202,13.3538,2.9935,20.3735,10.9984Z"/>
  <path class="cls-2" d="M978.7535,674.1843c2.0536-17.6463,11.9359-29.7468,15.2153-33.4732,13.2977-15.1106,29.6366-19.3579,37.5628-21.3011,9.0578-2.2205,28.7094-7.0383,38.5125,3.1254,2.8512,2.9562,5.8581,8.2048,4.4756,12.8504-1.9841,6.6678-12.0305,8.8024-16.6476,9.7833-14.0234,2.9796-17.2289-3.1133-26.3405.0767-10.4276,3.6508-16.1821,15.1154-20.0655,22.8524-5.2976,10.5544-3.8544,14.7433-9.89,21.3011-4.3585,4.7355-12.8471,10.9563-18.2578,8.3683-6.9235-3.3117-5.0681-19.2585-4.5647-23.5834Z"/>
  <path class="cls-2" d="M665.0532,978.491c-4.8956-16.4007-.9396-30.7645,0-33.9508,6.1792-20.9557,24.7584-42.9363,46.8837-44.4592,8.5848-.5907,21.9171,1.6079,24.2508,8.8919,1.5659,4.8884-2.0962,11.2121-6.467,14.5516-6.7692,5.1726-12.417,1.0302-21.0167,4.0405-11.3654,3.9784-19.5684,17.5385-21.0173,29.1002-1.7421,13.9026,6.9415,19.653,2.4254,32.334-.4043,1.1337-4.0355,11.0116-9.7005,11.317-7.1177.3836-13.1937-14.5737-15.3584-21.8254Z"/>
  <path class="cls-2" d="M690.0472,779.5484c-2.5015-18.4943,4.752-33.9194,5.2708-34.9883.6963-1.4346,12.3198-24.5038,37.1123-32.6809,5.4465-1.7964,15.0359-4.9592,21.4468,0,3.2327,2.5007,5.9412,7.2863,4.5957,10.7234-1.6069,4.1046-7.8457,3.3505-17.3616,6.6383-2.7725.9579-13.1436,4.6575-21.3442,13.188-2.3086,2.4014-11.4854,11.9471-12.8687,25.6205-.7368,7.2832,1.1252,11.9049-2.5532,17.533-1.9951,3.0526-5.8804,6.7996-9.0271,5.9564-3.7104-.9941-4.7205-7.9219-5.2708-11.9904Z"/>
  <path class="cls-2" d="M790.1324,1115.0494c-3.4915-3.0905-12.8042,10.271-26.0427,8.4255-10.0378-1.3993-11.0142-9.9636-25.5508-14.5531-1.3604-.4296-15.5808-4.8005-18.772,0-3.5061,5.2744,8.4548,18.3809,9.8547,19.9148,5.2603,5.764,12.5691,13.7729,24.9868,15.3192,1.3943.1736,17.0679,1.8721,27.8643-9.1915,6.6262-6.7904,10.4741-17.4237,7.6597-19.9149Z"/>
  <path class="cls-2" d="M406.4681,971.3048c-6.5061-14.0424-1.3071-28.12,0-31.6595.542-1.4679,9.4275-24.5487,28.26-27.5563,6.3701-1.0173,14.3853.181,15.3191,3.392.9597,3.2998-6.2361,6.3977-15.3191,15.994-4.5054,4.76-11.0327,11.6562-14.1677,20.4255-6.0474,16.916,3.717,31.8844,0,33.7021-2.7817,1.3604-10.2651-6.0376-14.0923-14.2979Z"/>
  <path class="cls-2" d="M1067.7229,922.2191c2.5718,6.7129-4.2074,15.2889-17.8705,32.167-15.4278,19.058-23.3117,28.5633-31.641,27.4014-8.891-1.2402-16.925-12.4677-14.8226-19.0618,1.9552-6.1324,11.152-3.477,20.3959-10.6287,15.573-12.0486,8.0226-33.9396,20.1108-39.409,8.0528-3.6435,20.8624,1.7911,23.8274,9.5311Z"/>
  <path class="cls-2" d="M988.3822,845.6877c9.6433,8.8153,7.5718,26.017,7.0544,29.6171-3.158,21.9803-21.0452,42.7435-30.666,40.1761-4.3093-1.15-7.6365-7.1611-6.8083-11.5804.9006-4.8058,6.2168-5.0691,12.646-11.234,1.4238-1.3654,11.6646-11.1849,10.8433-22.1277-.6785-9.0408-8.3542-11.4764-7.1489-20.4255.135-1.0017,1.022-6.8428,4.7659-8.1702,3.7593-1.3329,8.1511,2.682,9.3137,3.7446Z"/>
  <path class="cls-2" d="M616.5155,1086.7216c-.3565.0988-.7119.2-1.0659.2962-6.3994,1.7378-13.1262,1.8838-19.7485,1.5431-7.1841-.3696-14.5303-1.3583-20.8579-4.7801-6.0922-3.2945-10.8057-8.6015-15.3334-13.8425-2.4237-2.8055-4.9762-5.7276-8.4301-7.0746-7.3062-2.8495-12.6828,3.6322-7.5458,9.8414,9.229,11.1553,21.3538,20.1387,35.1855,24.4167,13.6318,4.2162,29.3238,3.6202,42.2236-3.1102,1.8253-.9523,3.8268-2.4271,3.7319-4.4838-.0851-1.8455-1.9564-3.1861-3.7918-3.3964-1.4709-.1685-2.9287.1913-4.3674.5901Z"/>
  <path class="cls-2" d="M547.9601,996.4318c-1.7687-5.641-7.2599-23.1514,0-42.925,9.2646-25.2338,36.6934-47.0681,53.9025-40.9333,8.2925,2.9562,14.9994,12.6879,13.1113,18.7963-2.2525,7.287-15.039,3.9247-28.3549,14.5152-1.8767,1.4927-14.2925,11.6471-16.1965,26.8554-1.4758,11.7885,4.7058,15.8988,1.9054,28.4029-1.4011,6.255-5.3536,15.9671-10.4799,16.1963-7.2303.3232-13.0963-18.3834-13.888-20.9078Z"/>
  <path class="cls-2" d="M797.5372,966.0682c5.5972-21.1848,10.654-40.3247,29.438-56.2863,21.1657-17.9851,50.9506-24.4491,73.5951-16.8217,5.2006,1.7518,17.0358,5.7382,18.9243,14.719,1.5361,7.3037-3.9937,15.5944-10.5132,19.6461-10.7178,6.6608-18.6252-1.5437-36.7975.6145-4.2088.4999-25.5087,3.5199-36.798,18.7883-10.1568,13.7363-3.1819,25.1742-14.719,35.5974-7.0026,6.3263-18.2673,9.9683-23.1296,5.9538-2.2826-1.8847-4.1988-6.3195,0-22.2112Z"/>
  <path class="cls-3" d="M970.8051,557.9444c-2.0191-.4448-7.04-1.0272-18.0461,7.059-10.6017,7.7892-19.201,18.0703-18.0461,19.3366,1.1299,1.239,9.0719-8.9212,25.5654-13.9076,10.6046-3.2061,18.4494-2.3702,19.0503-5.429.4846-2.4669-4.0176-6.0664-8.5235-7.059Z"/>
  <path class="cls-3" d="M743.8345,732.5426c-.5312-.9047-9.8723,2.1251-17.7021,8.5295-10.4429,8.5419-13.7327,19.4351-14.6384,22.5906-1.9717,6.8688-2.1753,13.7617-1.3616,13.9399.9517.2084,1.5129-9.156,8.1702-19.4042,5.0618-7.7921,12.3457-14.0914,17.7021-18.7235,5.1731-4.4738,8.1523-6.3831,7.8298-6.9324Z"/>
  <path class="cls-3" d="M646.643,514.8138c6.002-13.104-6.6383-53.617,18.6383-54.1277,18.7177-.3781-14.2279-35.2655-26.2929-72-6.8619-20.8926-1.7853-22.2254-5.6619-82.7234-2.9553-46.1207-4.4329-69.1811-9.4069-82.7234-21.8947-59.6111-86.9593-87.1959-88.0851-85.7873-.7328.9169,24.0656,16.0677,48.2553,51.3192,8.0886,11.7874,17.2202,25.0947,22.9788,43.6596,5.9196,19.0839,4.3738,31.1464-.766,85.7872-6.6799,71.0131-6.5917,77.4582-4.7385,88.0851,2.5905,14.8542,8.6682,31.4516,20.8237,64.6462,13.5311,36.9511,17.3379,58.9669,24.2553,43.8645Z"/>
  <path class="cls-3" d="M637.4147,579.2314c-6.2381-10.4439,4.1231-25.3932,9.8311-33.6287,8.4894-12.2487,18.7211-18.0503,21.3707-19.4854,10.452-5.6611,19.6254-6.5859,27.4943-7.2966,9.4037-.8494,23.4823-2.1209,36.3312,5.8801,4.0082,2.4961,10.8657,6.7662,11.1175,13.284.2374,6.1442-5.4876,11.9079-11.1175,14.3355-11.5802,4.9934-17.6361-6.3366-31.2126-3.6101-16.1008,3.2334-28.3624,23.341-29.9052,25.932-3.5436,5.9514-4.2078,9.4093-8.4983,11.6711-7.7361,4.0783-20.6986.808-25.4112-7.0818Z"/>
  <path class="cls-3" d="M626.8422,648.4475c-13.9164.6943-22.9532,14.2028-31.6595,27.2173-5.5213,8.2535-10.1428,15.3671-10.2128,25.5319-.0283,4.1091-.1124,16.3231,9.1915,22.4681,6.6439,4.3881,16.9155,4.9156,22.1299,0,5.1091-4.8164.834-10.5886,4.4233-24.5106.9789-3.7969,4.2223-16.3777,14.2979-25.5319,8.2759-7.5192,14.9414-7.0754,15.3192-11.234.5267-5.799-11.7195-14.528-23.4894-13.9407Z"/>
  <path class="cls-3" d="M957.8351,485.7073c-1.2606-16.4951-23.9611-25.8018-48.2134-35.7446-13.8419-5.6748-41.264-15.0811-78.2196-14.2979-25.2028.5342-48.9841,1.0381-60.6638,17.3618-1.0083,1.4092-10.2513,14.7358-5.1166,27.5745,4.2563,10.6423,15.7964,14.4587,18.3829,15.3142,10.3611,3.4265,14.8557-.5129,34.7234-3.0591,14.8483-1.9028,29.6155-3.7952,45.9574,1.2996,3.7274,1.1621,10.0269,4.0862,22.626,9.9346,13.2297,6.1411,17.9492,8.9248,26.3954,11.2341,8.6887,2.3755,16.1311,2.8298,20.9019,2.8643,5.2397-3.4216,24.4349-16.6687,23.2264-32.4814Z"/>
  <path class="cls-3" d="M472.3269,750.4394c-11.3795,1.8444-16.3597,16.7188-22.1937,34.1428-8.1134,24.2322-6.0123,44.213-5.1924,50.4017.5762,4.3485,2.9843,20.4878,13.0867,37.7872,7.4458,12.7502,12.4041,14.7136,14.2994,15.3191,10.9175,3.4874,26.0229-4.2809,28.7301-14.2979,2.4795-9.1746-7.3276-13.2576-15.2651-33.9462-4.1142-10.7234-9.2708-24.1638-5.1064-37.5432,5.0302-16.1611,19.0432-17.4003,19.0165-28.6901-.0278-11.7739-15.303-25.1301-27.3752-23.1736Z"/>
  <path class="cls-3" d="M591.9239,775.9183c-15.0386.0203-24.9807,11.4203-25.5842,12.1342-4.1448,4.9038-5.9364,12.9795-9.5197,29.1309-2.5868,11.6599-2.5877,16.1504-1.6682,20.6008.9076,4.393,2.5017,12.1083,9.3047,15.677,4.2593,2.2343,10.1193,2.6117,14.6753,0,6.736-3.8614,7.7225-12.5951,8.2946-17.66,1.1517-10.1965-2.8383-11.6282-1.3734-19.9912,1.5196-8.6756,7.1898-14.9923,10.9914-19.2274,7.7234-8.6041,13.4996-9.7917,13.0429-13.2887-.5786-4.4301-10.4841-7.3859-18.1634-7.3756Z"/>
  <path class="cls-3" d="M472.7629,535.5435c7.8532-20.4731,11.7798-30.7097,21.0381-39.6282,16.7404-16.1257,36.7358-18.5386,42.0175-19.0115,10.1281-.9067,27.5812-2.4695,39.174,9.6184,9.0448,9.4312,13.6414,26.2529,7.3605,33.1062-7.8508,8.5662-24.4128-7.481-46.5344,0-14.7507,4.9883-23.6391,17.6194-36.1165,35.3506-10.186,14.4749-8.5461,27.6782-16.6244,29.4648-5.8997,1.3049-12.7863-3.6118-16.1108-8.9004-5.8107-9.2437-1.5344-20.8896,5.796-40Z"/>
  <path class="cls-3" d="M567.6734,574.8626c-13.6511-.1462-23.5973,8.9954-28.2553,13.2766-3.6313,3.3376-12.9971,12.1829-16,26.5532-.9351,4.4749-2.4651,12.3335,1.3361,20.4255,1.3407,2.854,4.0003,8.5159,10.2384,10.5532.528.1724,7.5695,2.365,12.2554-1.3618,5.1093-4.0635,1.5234-10.4761,4.7659-22.8083,1.4588-5.5483,4.513-17.1646,13.617-22.1277,6.2585-3.4119,10.8414-1.2075,15.6596-6.1277,2.3445-2.394,5.2062-6.9463,3.9614-10.8936-2.2642-7.1792-16.5746-7.4788-17.5784-7.4895Z"/>
  <path class="cls-3" d="M409.5458,709.2195c-8.4724-19.2454-2.2606-38.6865,0-45.7612,1.2073-3.7786,9.6997-29.0854,34.5319-44.4883,6.6246-4.1091,16.4506-10.0142,28.6852-8.3057,2.8627.3997,14.1098,1.9705,17.9743,10.24,4.1827,8.9504-3.1133,19.6912-4.5957,21.8733-9.4176,13.864-20.598,8.9116-31.4043,22.2126-5.8024,7.1421-10.5338,18.3611-10.6595,29.8723-.1022,9.3501,2.8963,13.2144,0,19.915-2.8127,6.5073-9.9899,12.9246-17.3793,12.3789-9.5671-.7065-14.8662-12.7434-17.1526-17.937Z"/>
  <path class="cls-3" d="M405.2259,498.0115c-53.0364-29.7861-18.4892-22.5952-83.7653-51.3191-57.5275-25.3142-86.2913-37.9714-110.2979-41.3616-74.6917-10.5476-141.168,18.8584-140.1702,25.2764.7128,4.5845,35.5865-4.2932,94.9787,5.0117,69.4867,10.8865,102.3536,35.6665,109.5319,41.2849,10.027,7.8479,26.1523,20.7239,38.2979,42.7246,7.8583,14.2346,6.1475,17.9731,14.3083,33.5029,12.1361,23.0945,34.7597,50.6787,46.2023,46.4685,11.0383-4.0615.6002-33.637,18.383-46.4685,12.5753-9.074,27.6221-1.3748,34.0037-11.4602,5.3278-8.4202-.5701-21.041-1.8334-23.7446-5.6594-12.1106-16.3558-18.071-19.639-19.915Z"/>
  <path class="cls-3" d="M846.246,374.6924c-13.8483-12.7329-33.0483-11.241-55.1814-9.1914-26.1062,2.4175-56.7087,5.2512-66.8896,26.0425-5.5544,11.3433-4.7281,27.4146,2.5962,32.1702,6.4622,4.1958,14.1326-2.9167,37.3077-10.7234,8.1393-2.7417,25.5298-8.5999,45.2968-9.9214,28.8188-1.9268,43.1069,7.0986,48.0289,0,4.402-6.3486-2.3646-20.2908-11.1586-28.3765Z"/>
  <path class="cls-3" d="M934.6087,394.5498c17.6173-6.116,34.3264-.5793,35.9996,0,21.7407,7.5283,41.9967,28.6357,37.9163,41.0691-1.5356,4.6792-6.6954,8.6699-11.2341,8.5203-5.2572-.1733-6.9221-5.811-13.6859-12.2554-11.3247-10.79-25.9716-13.3882-29.2076-13.886-12.9227-1.9875-18.2118,2.707-25.532-2.4543-3.4999-2.4678-7.4983-7.2129-6.6383-11.7446.9856-5.1936,7.8937-7.6909,12.3821-9.249Z"/>
  <path class="cls-3" d="M854.3118,311.3521c-11.5046-12.7522-4.6989-32.6682,0-63.3193,6.2964-41.0725.1511-44.9417,4.4741-70.468,12.9148-76.26,82.8445-130.7881,88.5215-126.6382,2.8555,2.0874-11.2915,18.4753-25.199,60.2554-9.9115,29.7756-16.7522,50.3259-13.6691,76.5957,1.0038,8.5527,6.7969,25.4463,18.3831,59.2339,7.4678,21.7773,11.2017,32.666,15.3191,42.8938,11.4066,28.334,19.2561,41.0095,15.7482,43.9148-5.5696,4.6125-26.8185-26.1284-52.0227-21.4468-11.2821,2.0957-15.0945,9.7542-28.0658,9.1914-.9176-.0398-15.03-.8359-23.4894-10.2126Z"/>
  <path class="cls-3" d="M828.1939,573.1682c-8.5176-.4277-28.713-1.1663-50.2225,11.2756-3.6198,2.0938-22.6447,13.4502-34.4047,36.887-4.7819,9.53-11.0828,22.0872-6.9822,36.0107.2751.9341,5.8455,19.0166,18.1112,19.9041,6.3453.459,12.3999-3.8342,15.6161-8.4702,5.37-7.7405.9423-13.7192,3.2784-26.7639.5272-2.9436,2.4111-14.2181,14.8492-22.2127,6.5199-4.1907,16.3209-10.0815,33.1915-9.437,24.3298.9297,31.0602,4.8003,35.7737,0,6.0295-6.1406,3.746-21.3647-4.3694-29.627-6.3982-6.5139-14.8132-7.063-24.8413-7.5667Z"/>
  <path class="cls-2" d="M743.8583,1050.0386c-9.9844-4.0754-15.6801,5.2896-29.4614,6.8667-19.6355,2.2468-41.1917-12.9744-51.7438-20.4255-6.1432-4.3379-9.6561-5.6155-16.6818-8.1704-9.3438-3.3979-11.944-2.4976-13.2766-1.7021-4.2849,2.5579-5.2731,9.8882-3.7447,15.1736,1.9598,6.7773,8.1122,10.3833,17.7021,15.1748,21.766,10.8755,32.6489,16.3132,46.9788,19.0134,13.2102,2.4893,24.702,4.511,38.1277,0,1.9894-.6685,21.1545-7.2952,20.766-16.3403-.1838-4.2795-4.6964-7.9697-8.6663-9.5901Z"/>
  <path class="cls-3" d="M362.0564,1000.3235c-2.3528-1.135-11.303-3.1064-44.9362,39.22-25.6771,32.314-29.2466,44.5203-46.9787,67.146-22.1335,28.2419-44.7792,45.2156-57.1915,54.386-52.5359,38.8145-98.7293,45.6631-97.0213,53.1064,1.3497,5.8816,31.1304,5.6909,56.1702,0,30.9908-7.0432,52.224-21.9443,71.4894-35.7449,27.5485-19.7341,45.5755-39.9299,51.6589-46.9788,28.4727-32.9907,24.1912-43.1841,45.3624-58.2126,26.4537-18.7783,55.4594-18.7083,55.1489-27.3281-.2221-6.167-15.0552-5.8169-24.5106-20.0466-8.2606-12.4316-3.7246-22.9102-9.1915-25.5474Z"/>
  <path class="cls-1" d="M1090.8994,1012.6248c2.0425,10.0684-10.447,19.8298-20.9269,28.0208-12.4071,9.6968-35.6956,27.8984-58.9862,21.7512-2.3684-.6252-14.6038-4.1064-15.006-10.2722-.2649-4.061,4.6837-8.0576,8.8892-9.75,6.2144-2.5007,9.7137.4695,16.4279.4324,15.8358-.0879,28.2159-16.7874,29.8295-19.0217,6.9585-9.6367,5.0787-15.0823,12.537-19.8862,1.2623-.813,8.6241-5.5549,16.6768-2.6362,5.0201,1.8196,9.5397,6.3374,10.5588,11.3621Z"/>
  <path class="cls-1" d="M857.4046,1138.6072c-10.733-.5693-12.0007,16.7058-29.2107,22.4683-12.1367,4.0637-21.5933-1.1501-25.9673,5.1064-2.3862,3.4133-2.2352,8.7749,0,12.2551,6.2886,9.791,29.7357,5.718,44.0194,0,8.7112-3.4873,26.1144-10.4543,26.1826-22.468.0449-7.9182-7.4464-16.9597-15.024-17.3618Z"/>
  <path class="cls-1" d="M699.6047,1150.8626c-6.5177-4.9062-12.7466,1.449-24.0164,0-15.1017-1.9414-20.498-15.4849-29.6171-12.269-2.574.9077-5.2008,3.0647-5.7872,5.7559-1.2723,5.8394,7.5266,12.0618,11.234,14.6833,2.8948,2.0471,19.5708,13.3892,38.9843,8.5107,3.4-.8545,12.5425-3.1519,13.4413-8.5107.5168-3.082-1.8303-6.3572-4.2389-8.1702Z"/>
  <path class="cls-6" d="M1215.7947,827.812c.285.3496.5397.7261.7595,1.1299,1.0947,2.0103,1.1227,4.4116,1.0719,6.7-.1965,8.8389-1.1732,17.6602-2.915,26.3279-1.6898,8.4094-4.1906,16.928-9.3845,23.8962-5.1573,6.9187-13.3754,12.032-21.9928,11.5767-1.4489-.0764-3.1539-.51-3.6405-1.877-.2606-.7322-.084-1.541.1162-2.2922,2.3887-8.9653,7.7319-16.7959,12.0869-24.9888,4.3549-8.1926,7.8411-17.4998,6.0444-26.6025-.579-2.9329-1.7-5.7947-1.6936-8.7849.0201-9.0471,14.5175-11.2559,19.5475-5.0852Z"/>
  <path class="cls-6" d="M1124.9501,1079.6468c2.4871,10.7114-9.6742,21.1953-17.6171,28.0427-8.7955,7.5825-28.8768,24.894-49.0212,18.8301-9.9924-3.0081-20.4072-11.8901-19.1489-18.8301,1.1383-6.2783,11.5216-9.2664,13.026-9.6992,13.8832-3.9951,20.8838,5.3577,29.7981.7661,6.0083-3.0947,3.6493-7.7664,13.6401-19.1096,5.5574-6.3096,10.6719-12.1165,17.0676-11.5288,5.634.5176,10.9429,5.8762,12.2554,11.5288Z"/>
  <path class="cls-6" d="M867.5884,1217.4798c-1.3672,11.8989-26.9662,16.8174-31.1274,17.6169-18.2,3.4968-43.7659,1.6482-47.1614-8.8086-1.5269-4.7021,1.4241-11.1619,5.7561-13.4043,5.517-2.856,9.5648,3.0479,21.2135,4.5959,2.0901.2778,17.5913,2.1299,29.9768-6.4143,5.7476-3.9651,7.2151-7.6792,11.1586-7.373,5.3013.4114,10.8762,7.7617,10.1838,13.7874Z"/>
  <path class="cls-5" d="M234.8817,424.9597c-5.9733-7.7805-14.9741-10.7961-35.7189-13.5015-27.2807-3.5576-54.0556-6.7629-86.3809,3.064-7.4357,2.2605-18.1379,6.1143-17.7893,7.6597.4292,1.9028,17.1631-1.6809,40.3404-2.5532,18.8278-.7087,35.4146-1.333,54.1276,3.5745,29.6166,7.7668,45.1443,24.2983,50.0426,19.4041,3.0214-3.019-.2457-11.9478-4.6216-17.6475Z"/>
</svg>