<?xml version="1.0" encoding="UTF-8"?>
<svg id="Capa_2" xmlns="http://www.w3.org/2000/svg" viewBox="0 0 761.5405 344.7014">
  <defs>
    <style>
      .cls-1 {
        fill: #bf3441;
      }

      .cls-2 {
        fill: #ef7f8f;
      }

      .cls-3 {
        fill: #e55e6c;
      }

      .cls-4 {
        fill: #d6404a;
      }

      .cls-5 {
        fill: #b22f3f;
      }
    </style>
  </defs>
  <g id="Capa_1-2" data-name="Capa_1">
    <g>
      <g>
        <path class="cls-4" d="M376.8514,341.0181c-103.8545-.1147-187.541-9.8457-248.7324-28.9229-30.8359-9.6104-56.3057-21.75-75.7021-36.0815C20.0794,252.1505,3.6824,221.67,3.6824,185.4195c0-26.6597,9.8242-51.7881,29.1997-74.6875,18.4697-21.8281,45.1411-41.0776,79.2739-57.2134C180.1365,21.3814,274.2772,3.6827,377.2352,3.6827c134.5762,0,239.5996,16.8359,303.7188,48.688,18.6182,9.2505,34.0713,19.8833,45.9297,31.603,20.5537,20.3179,30.9746,44.4194,30.9746,71.6362,0,56.3027-34.3242,103.125-99.2617,135.4053-65.8076,32.7129-162.7646,50.0039-280.3887,50.0039l-1.3564-.001Z"/>
        <path class="cls-2" d="M377.2352,7.3652c124.1801,0,233.5699,14.2699,302.08,48.3036,17.96,8.923,33.1101,19.1935,44.98,30.9239,19.25,19.0294,29.8801,41.8941,29.8801,69.0173,0,109.9859-133.9263,181.7262-375.9667,181.7262-.4589,0-.8938-.0002-1.3534-.0008-101.51-.1123-185.52-9.3894-247.64-28.7557-30.21-9.4155-55.2499-21.2234-74.6099-35.528-30.8201-22.7437-47.2401-51.8104-47.2401-87.6321C7.3652,79.9673,167.7151,7.3652,377.2352,7.3652M377.2352,0c-103.4912,0-198.1903,17.8242-266.6527,50.1891-34.6118,16.3623-61.6997,35.9316-80.5114,58.1643C10.1173,131.9357,0,157.8645,0,185.4196c0,37.4839,16.9005,68.9614,50.2319,93.5584,19.7249,14.5741,45.5625,26.9002,76.7917,36.6334,61.5443,19.1869,145.5973,28.974,249.8235,29.0893l1.3615.0008c59.8423,0,114.4038-4.3893,162.1689-13.046,46.7184-8.467,87.0443-21.0308,119.858-37.3422,66.2742-32.9448,101.3049-80.9075,101.3049-138.7032,0-28.2375-10.7891-53.2207-32.0675-74.2552-12.1398-11.9971-27.9125-22.858-46.8807-32.282-33.6411-16.7119-78.1644-29.3622-132.3335-37.5999C500.1983,3.86,441.9848,0,377.2352,0h0Z"/>
      </g>
      <path class="cls-1" d="M587.7452,109.7338c0,34.5777-92.51,62.6166-206.63,62.6166s-206.64-28.0388-206.64-62.6166c0-1.4685.17-2.9196.5-4.3449,7.37-32.1332,96.53-53.0803,205.7999-53.0803,18.7101,0,36.8501.6133,54.1001,1.7967,87.97,6.012,152.87,26.7172,152.87,55.6285Z"/>
      <path class="cls-3" d="M229.948,174.7425c-1.6083-12.7393-38.2811-6.7057-66.9424-31.2933-13.1014-11.2392-16.8778-22.3132-32.2898-25.1707-1.8663-.346-15.0761-2.6289-22.8392,4.0817-8.0642,6.971-5.5417,19.5759-2.3626,26.5313,2.3281,5.0937,7.5036,12.6166,45.6783,28.5722,45.6078,19.0623,56.7226,16.0576,61.4297,14.2861,7.6307-2.8718,18.2168-9.9525,17.3262-17.0072Z"/>
      <path class="cls-3" d="M283.3486,185.0193c-10.7159.2195-18.6707-1.2381-24.1518-2.7212-3.3414-.9041-6.9837-2.1478-11.0258-.9071-3.7677,1.1565-7.6573,4.4025-7.8755,8.3903-.244,4.456,4.22,7.5739,6.0379,8.8437,5.0793,3.5478,11.3309,3.9252,23.6268,4.5353,9.9298.4927,14.5443-.1586,17.3263-.6803,5.9725-1.1199,10.5912-1.986,12.6009-5.4423,1.8601-3.1991.988-7.7626-2.3627-10.6579-3.6234-3.1307-9.4861-3.7415-14.176-1.3606Z"/>
      <path class="cls-5" d="M587.7452,109.7338c0,34.5777-92.51,62.6166-206.63,62.6166s-206.64-28.0388-206.64-62.6166c0-1.4685.17-2.9196.5-4.3449,1.51,4.4313,4.0699,10.0114,8.67,15.4706,4.84,5.7356,12.53,12.024,30.9199,18.9258,24.78,9.3117,46.5601,11.3071,56.74,12.1709,55.53,4.7163,83.29,7.0744,98.6001,5.7442,32.46-2.7987,72.4099-6.2539,91.1799-30.7598,2.41-3.1442,10.64-13.8899,9.39-27.7106-1.17-12.931-10.0599-22.2255-18.7799-31.0967-6.26-6.3748-12.05-10.8061-16.8201-14.028,87.97,6.012,152.87,26.7172,152.87,55.6285Z"/>
      <path class="cls-1" d="M754.1752,155.61c0,110.1945-134.4102,181.9932-377.3201,181.7254-150.88-.1728-263.0901-20.5756-322.25-64.2838,40.9099,9.5104,107.01,25.7671,196.35,26.2767,84.3099.4837,147.65-13.2938,203.08-25.3525,101.1001-21.9836,133.57-47.5426,160.4396-62.0115,73.5652-39.6141,71.6104-128.896,64.8404-156.2957,47.0901,23.383,74.8601,56.1036,74.8601,99.9412Z"/>
      <path class="cls-3" d="M589.9529,122.8886c-12.4742,13.2431-25.9163,20.676-31.826,23.8858-12.9016,7.0074-25.298,10.8495-44.0869,15.0977-49.2408,11.1334-88.0017,12.7592-87.9131,13.7456.0562.6249,15.6633.5539,34.174-.9014,23.4342-1.8423,45.7648-3.5979,72.2609-12.3936,17.7126-5.8799,33.691-11.1842,48-25.0125,10.8555-10.4909,17.9391-23.1711,17.4783-23.4352-.2825-.1619-3.587,4.2362-8.087,9.0135Z"/>
      <path class="cls-5" d="M754.1752,155.61c0,110.1945-134.4102,181.9932-377.3201,181.7254-101.51-.1123-185.52-9.3895-247.64-28.7558,52.1,7.1781,128.67,15.1251,203.91,14.0713,89.5601-1.2525,155.25-14.9351,174.9099-19.2626,97.04-21.3704,138.42-49.4523,151.4401-58.8159,24.01-17.2759,46.25-33.2821,59.87-60.8458,17.16-34.7333,11.6799-69.7429,4.95-97.1339,19.25,19.0295,29.8801,41.8941,29.8801,69.0173Z"/>
    </g>
  </g>
</svg>