<?xml version="1.0" encoding="UTF-8"?>
<svg id="Capa_2" data-name="Capa 2" xmlns="http://www.w3.org/2000/svg" viewBox="0 0 1137.1927 918.1322">
  <defs>
    <style>
      .cls-1 {
        fill: #ffa4af;
      }

      .cls-2 {
        fill: #d66b87;
      }

      .cls-3 {
        fill: #f28698;
      }

      .cls-4 {
        fill: #ff9fab;
      }

      .cls-5 {
        fill: #212d34;
      }
    </style>
  </defs>
  <g id="Capa_1-2" data-name="Capa 1">
    <g>
      <path class="cls-5" d="M342.7495,67.9959c3.8054-4.806,7.6107-9.612,11.416-14.418,5.5099-2.9522,9.2762-8.0008,13.9892-11.9133,17.9445-14.8963,38.1905-24.6034,61.0362-28.6488,29.9189-5.2978,59.0144-1.5313,87.2529,9.321,3.986,1.5318,7.9933,3.1168,12.035,4.3516,6.4503,1.9707,9.34-3.6811,13.0435-7.3232,1.9885-1.2761,3.977-2.5523,5.9655-3.8284,9.453-3.1665,17.8644-8.7813,27.6585-11.2548,31.5052-7.9564,62.0549-4.3469,92.0961,6.8762,12.1296,4.5314,22.9883,11.2384,33.1896,19.0815,3.0646,2.3561,5.9966,2.8611,9.8886,1.7776,47.943-13.3472,91.807-4.3552,131.2934,25.3924,10.833,8.1611,19.2424,19.0717,25.7645,31.1155,1.8323,3.3837,3.9696,4.5927,7.819,4.6763,44.188.9606,77.8863,21.2588,103.408,56.4933,2.0523,2.8334,3.1675,6.4187,6.4594,8.2907,7.3247,10.8116,11.7438,22.9305,15.7526,35.2201,1.0603,3.2501,2.6214,5.3941,6.0759,6.94,10.2565,4.5896,19.8774,10.3714,28.2751,17.9781,2.9105,5.046,7.6733,8.3694,11.6175,12.4497,24.3219,25.1606,36.195,55.7887,39.6739,90.116.1196,1.1796.3162,2.4342.1152,3.5551-2.6123,14.5657,7.2663,23.1044,15.0866,33.0914,24.6141,31.4336,36.6035,67.4015,35.4556,107.3376-.6767,23.5392-5.5965,46.0753-19.6794,65.8208-1.8466,2.5891-5.3921,4.1849-5.3846,8.0335-8.4118,5.4811-6.9571,13.9635-6.8541,22.1255.3649,28.9533-8.4707,54.5387-28.1305,76.1116-6.8977,7.569-14.6405,14.0905-23.6572,18.9974-7.6331,4.154-7.1727,13.1201-9.7783,20.5058-3.2588,9.2373-7.2658,18.2059-11.9716,26.7969-9.6451,17.6084-22.2028,33.6296-37.0839,47.1134-49.7215,45.053-122.1195,56.7716-186.9294,50.9819-13.5333-1.2091-26.8626-3.1927-40.0415-6.3441-2.0477-.4897-4.2284-2.026-5.8877.0374-1.5437,1.9199-.139,4.0375.7179,6.0077,7.7145,17.7375,12.8144,36.2169,16.1954,55.2536,3.2557,18.331.5437,34.558-14.5574,47.1179-1.4427,1.1999-2.8719,2.529-3.5618,4.3954-23.1522,17.6659-68.468,14.5569-84.4594-20.9274-15.0867-33.4774-33.5688-64.8489-55.384-94.386-17.2681-23.3804-37.5533-43.9415-57.902-64.4984-2.1715-2.1938-4.7409-4.1903-6.259-6.7855-1.9895-3.401-4.0718-1.9729-6.395-1.0525-10.9558,3.9323-20.8202,10.2118-31.6975,14.4056-86.0624,33.1815-195.6131,10.4336-238.5064-77.8506-7.8049-16.0642-6.6836-13.9913-23.3868-11.0495-12.5495,2.2103-24.4151,4.4386-37.268,3.5761-30.6991-2.0604-61.5931-22.4655-89.4555-35.1076-22.4544-10.1883-45.1163-20.4984-64.7907-35.3618C-1.8552,528.0768-19.2125,430.2716,22.6233,358.8143c4.4508-7.602,10.889-13.7177,15.5164-21.1735,3.6698-6.6812,10.4754-10.1227,15.6994-15.1983,9.064-3.3547,9.6255-4.4097,8.8404-13.0543-2.653-29.2128,6.4226-55.3965,21.9936-79.4121,21.65-33.3915,52.5835-54.8023,90.2084-66.7833,5.0222-1.5992,7.7895-4.47,10.2425-8.9146,25.1181-45.5104,61.6209-75.9,114.0089-84.7031,13.1354-2.2073,26.3729-3.5141,39.6733-1.0046,1.3214.2493,2.8027.7815,3.9433-.5744Z"/>
      <path class="cls-4" d="M343.2884,132.3279c7.7615,2.4142,5.9802-5.9522,9.4601-8.3749,3.6144-4.7875,3.5977-11.1883,7.2258-16.0065,20.4575-27.1679,46.3724-45.0249,80.9731-49.1631,19.0245-2.2753,37.3364.9331,55.6797,4.875,3.2642.7014,6.8104,1.8111,5.027,6.6314-4.0207,10.2753-8.8211,20.2-10.2818,31.4265-1.6469,12.6564,1.164,24.4248,5.0557,36.1717,3.9477,11.9161,3.7851,12.5441-7.0377,18.3738-16.9261,9.1172-33.7792,18.3041-47.4541,32.2097-38.2693,38.915-42.7753,101.6896-10.1364,144.4669,4.0121,5.2583,9.1697,9.6351,13.7129,14.4984,2.6185,2.803,5.6996,3.6768,8.9141,1.6789,3.5992-2.2368,2.6613-5.5882,1.2276-8.7771-7.1574-15.9205-13.7729-31.9748-17.2915-49.2337-7.2583-35.6027,7.056-71.4639,37.2342-92.7745,10.872-7.6772,22.9231-13.1993,34.3769-19.8069,18.9825-10.951,22.4616-19.4342,16.2828-40.3772-.2596-7.8481-3.6201-15.0617-4.6181-22.7745-1.3472-10.4105.4642-20.3542,7.5109-27.9669,20.277-21.9058,45.2191-35.0084,75.191-38.6735,13.696-1.6748,27.04-1.083,40.4422,1.5157,1.4028.272,2.8178.5045,4.1838.9264,3.8721,1.1957,8.4607,1.9532,10.501,5.5503,2.6386,4.6518-4.5205,4.9803-4.9491,8.6421-16.212,12.5135-30.0872,27.0051-37.0237,46.7329-9.4621,26.9104-6.8824,52.5003,9.6893,76.0685-44.5343,20.9809-62.3063,59.259-68.5982,105.1942-1.2826,9.3635.417,18.5211.3396,27.7772.0292,2.067-.9671,1.7204-2.034.7942-.5325-.4625-.671-1.2408-.8758-1.9255-.5108.5457-.4122,1.2793-.466,1.9083-.4664,5.4564-1.1648,10.891-1.6834,16.3357-.7522,7.8964-2.6643,15.5149-4.9798,23.006-4.872,15.7615-16.3566,25.4881-31.026,31.4815-12.4236,5.0757-25.6602,6.6002-39.0347,7.8694-18.5288,1.7585-37.1205.1967-55.6109,2.1585-21.0908,2.2378-40.8393,9.0235-60.2609,17.0834-11.213,4.6534-22.297,9.7159-34.2829,12.1813-20.5927,4.2355-32.4593-1.3045-42.547-19.8732-1.9312-3.5546-3.8083-7.1455-5.5703-10.7916,11.9428-16.8926,29.8777-24.2094,48.6187-29.9195,12.1685-3.7076,24.5641-6.7021,36.939-9.6793,3.4599-.8324,5.7714-2.2455,6.1146-5.7577.3836-3.9255-2.1351-6.1368-5.4707-7.3837-15.1197-5.6524-30.6161-5.6333-46.1973-2.5731-6.6897,1.314-13.2945,3.1245-19.8565,4.9951-2.9021.8273-4.1264.2027-5.0215-2.7292-11.8817-38.9148-47.3396-53.9748-83.6891-49.0963-16.7672,2.2503-30.7294,8.8425-41.4893,21.958-1.1987,1.4611-2.2818,3.017-3.4176,4.5296-1.8788,2.5018-2.5134,5.1552-.4584,7.8052,2.1819,2.8136,4.7652,2.1495,7.6524.8829,9.7308-4.2691,19.6292-8.326,30.2126-9.7167,22.8314-3.0002,45.3181.5148,58.3813,20.1984,3.5986,5.4226,5.2878,11.5619,6.89,17.6979.9232,3.5355-.0115,6.6322-2.8263,9.65-10.7299,11.5035-20.1566,23.9849-25.4878,39.0296-1.2649,3.5699-2.4494,4.541-6.5277,3.1082-18.2699-6.4182-36.1618-4.8472-53.7019,3.339-12.482,5.8253-25.4077,10.1525-39.5554,9.383-6.221-.3384-12.0488-2.0197-17.9276-3.8049-2.9059-.8823-6.4388-1.9236-8.1199,1.8363-1.5976,3.573.1616,6.1389,3.3892,8.2668,19.7014,12.9891,40.7452,17.116,63.5733,10.0382,10.4625-3.2437,20.9885-5.6505,32.1103-5.043,7.5677.4136,14.4013,2.6522,20.9282,6.2366-1.6061,2.4133.2774,3.8877,1.4364,5.6317,15.7717,23.7344,1.7313,56.865-26.3036,62.8424-14.1711,3.0214-27.5996,1.35-40.2653-5.1117-6.7591-3.4483-13.0343-3.5882-19.9024-1.1825-15.4728,5.4194-31.3948,7.2042-47.8007,6.6231-27.876-.9873-61.5498-24.9113-70.3262-50.6064-.1333,2.0993.9561,4.7615-2.3614,5.6093-.4995-3.8287-.999-7.6574-1.4985-11.486.8234-4.9674.7869-10.0429.2379-14.9394-1.115-9.9442,3.3077-18.0847,7.4236-26.3941,7.9544-16.0582,17.1567-31.3108,29.2812-44.6419,4.1962-4.6138,9.2637-8.1802,14.2159-11.8818,2.6784-2.0021,5.5942-2.6416,8.6762-.931,1.767.9807,3.5944,1.1425,5.523.7736,11.657,3.011,22.2591-.8155,32.7481-5.1536,1.4907-.6166,3.0148-1.8567,2.8197-3.7142-.2241-2.1333-1.851-2.6826-3.9149-3.2373-8.6912-2.3356-18.2396-2.9693-24.3024-11.101-3.0404-6.3473-7.0096-12.2303-8.6586-19.267-.9529-4.066-1.4289-7.7551.5498-11.6646,2.0497-4.0501,2.5762-8.6299,3.7259-12.9887,9.6186-36.4688,31.6275-62.6951,65.4858-79.0425,11.527-5.5656,13.9484-4.1717,15.1666,8.8617.8228,8.8026,3.5588,16.9957,6.8407,25.0752.7028,1.7302,1.4207,3.5461,3.3318,4.4075,1.2103,1.67,2.382,3.3697,3.6383,5.0043,3.4444,4.4816,7.1605,5.4515,11.2465.7687,1.9057-2.8002.3589-5.3841-.466-8.0378-5.4442-17.5146-4.9127-35.2855-.5554-52.7273,2.2529-9.0183,9.14-16.0807,15.1479-23.126,19.7121-23.1159,42.0978-42.7009,71.3494-53.0943,15.3968-5.4706,31.0049-9.161,47.5173-8.0217,7.9288.5471,8.7602,1.3771,7.2435,8.9613-.769,3.8455-1.8652,7.7486.4223,11.5018Z"/>
      <path class="cls-4" d="M767.3897,265.4063c7.4551-16.3677,14.405-32.8978,15.9583-51.1023.2535-2.9701,2.3177-2.8381,4.4906-3.3475,20.7389-4.8619,38.2915,2.8949,54.5137,14.359,13.9012,9.8239,24.7224,22.7971,34.099,36.9905,2.1312,3.226,3.1082,9.2216,9.0075,6.7786,5.4415-2.2535,3.9821-7.7173,3.4236-11.9889-3.5823-27.3964-18.2627-47.6744-41.0052-62.5259-3.2751-2.1388-5.6934-3.6384-2.1632-7.6794,8.1682-9.3498,13.2366-20.6349,19.0569-31.4402.1892-.144.4315-.2514.5598-.4374,2.9233-4.2315,1.5187-11.5637,6.7904-13.407,6.3628-2.2249,13.5995-2.0702,20.4297-1.5521,21.3453,1.6191,39.54,11.145,56.6826,23.235,4.1768,2.9457,6.3268,7.6103,10.1679,10.761.654.9543,1.4171,1.8525,1.9431,2.8729,2.1598,4.1894,5.6468,8.9316,4.5172,13.0494-1.3553,4.94-7.8505,2.6336-11.9501,4.0202-7.3725,2.494-14.6675,5.096-21.3315,9.1884-2.6477,1.626-5.3802,3.2665-4.7766,7.1096,1.7197,5.7358,7.0153,5.7793,11.106,5.5905,8.3045-.3834,15.1295,2.7071,22.2622,6.2279,19.001,9.379,37.8804,18.8479,55.0962,31.3982,12.1568,8.8622,24.1695,17.6642,30.2847,32.1337,2.2988,3.8827,3.9625,7.9823,4.2828,12.5407-1.1265,14.9544-8.1969,25.3044-22.8826,29.9746-6.7053,2.1323-13.6056,3.7861-19.8279,7.2587-5.9771-25.4353-22.4414-40.8224-46.6184-49.0064-3.1332-1.0606-5.7275-1.4236-7.4091,1.6237-1.8074,3.2753.6022,5.499,2.975,7.0978,7.3473,4.9501,13.8507,10.8458,19.7812,17.3605,3.0278,3.3261,5.5863,7.0684,6.5968,11.6131-2.3887,18.0774-7.7754,35.544-10.9207,53.4703-.4942,2.8163-.7557,5.3965,1.0637,7.8013-.8905,1.0799-1.8116,2.1362-2.6653,3.2445-1.986,2.5782-4.8699,5.0839-1.3054,8.4714,3.133,2.9773,5.5877,1.4095,8.6367-.7696,11.8633-8.4785,24.0806-16.42,38.1971-20.8096,8.6275,1.6176,17.1218,3.0775,24.7684,8.2514,21.0126,14.2176,19.2599,46.3223,6.7978,60.5596-14.8442,16.9588-33.5028,25.7219-56.4134,26.2624-22.5757.5326-43.7196-3.1717-62.1232-16.8841-11.128-8.2915-20.9706-17.9687-26.8791-30.9265,13.0668-23.519,13.7185-48.149,6.4878-73.4489-.7064-2.4715-1.6626-4.9427-2.9404-7.1621-1.6239-2.821-4.057-5.0131-7.5938-3.4098-3.0279,1.3727-2.9243,3.9418-2.6976,7.1616,1.0521,14.9336,1.3443,29.8867-3.9755,44.281-.4919,1.3314-1.0837,2.626-1.6291,3.9376-3.6882-1.2941-1.594-3.9112-1.1766-5.9165,1.0181-4.8907,2.7793-9.5867,3.7103-12.7202-2.3369,9.4329-9.7218,17.4255-18.0026,24.5542-15.806,13.6068-33.3006,24.6704-52.5748,32.7143-8.3631,3.4901-16.6411,7.1087-24.6468,11.3486-4.3694,7.0025-3.1562,11.2786,4.7168,13.7709,19.5242,6.1806,39.1694,7.6697,58.5671-.5018,3.9789-1.6762,6.5695-1.4832,8.2746,2.684.1923,1.7939-2.6933,1.8377-1.5524,4.9413,9.7232,26.4529,2.1363,47.8309-21.5532,63.159-12.7494,8.2494-27.0134,11.3225-41.7534,13.2158-28.0917,3.6082-54.4268-.5324-78.02-17.1808-2.3077-1.6286-4.8559-3.0409-6.371-5.5966,6.2193-11.4304,6.9094-23.7992,6.2867-36.4233-.188-3.8114-.8907-7.1111-5.2399-8.0657-4.4382-.9742-6.3152,1.8452-7.9639,5.3007-1.6066,3.3669-3.5813,6.558-5.3944,9.8263-5.2872.5178-8.5044,4.7608-12.7554,7.1412-13.643,7.6389-27.931,13.9765-43.7224,13.6945-8.6998-.1554-15.8473,1.341-23.3582,5.7724-8.4595,4.991-17.04,10.5898-27.4553,11.1481-22.0409,5.7463-44.2093,11.1379-63.9352,23.2556-2.9904,1.837-6.0316,3.5912-9.0494,5.3836-29.2755,12.2738-58.6446,9.1808-88.0597.5709-3.4513-1.0101-6.7899-2.1719-9.7332-4.3277-2.355-1.725-4.9518-2.8273-7.9839-2.3368-4.1251,2.4228-4.7338,5.3741-3.1152,10.1,8.2131,23.9798,24.3652,39.154,48.853,45.4857,1.8074.4674,3.7266.5594,5.6033.6849,1.6493.1102,3.3119.0229,5.886.0229-6.5716,12.9757-10.4389,26.0545-9.4103,40.1752-3.5137-3.5756-6.6336-1.5706-10.2872.1908-37.3291,17.9971-73.6866,16.5101-108.0788-7.1373-19.0916-13.1269-26.88-32.6451-26.9425-55.4001-.0077-2.7936-.5149-6.2959,2.9411-8.062,6.3611,5.6413,12.2733,11.8395,19.6778,16.1936,1.6167.9507,3.2759,3.5455,5.3814,1.3452,2.2214-2.3211,1.1104-4.7381-.8272-6.8942-4.7183-5.2502-9.2514-10.6481-12.6778-16.8729-3.1451-7.6268-8.8623-14.0731-9.9377-22.6871-.5928-4.7482.4431-8.372,3.1012-12.5687,9.1678-14.4746,20.0171-27.428,33.9391-37.2639,23.2824-16.4492,48.1426-28.0987,77.9496-27.7774,24.2696.2615,47.7367,5.3985,71.6058,7.9411,11.3247,1.2064,21.8135,4.5936,31.8188,9.7967,5.5309,2.069,10.5986,5.1124,15.8121,7.8264,2.9559,1.5388,5.6826,1.8479,8.6948.7085,3.6889-2.3527,2.5155-5.5464,1.623-8.7896-1.4583-5.2999-5.0113-9.5226-7.223-14.4281-.7565-2.9631-3.2014-4.6379-5.145-6.6791-4.8376-5.0802-4.9027-6.7955.7863-11.2486,6.3585-4.9771,13.1493-9.3861,20.123-13.4635,22.1622-12.9584,46.2151-19.6249,71.7405-21.2554,7.1711-.4582,14.1449,1.44,21.2435,1.909,3.9471,1.2986,8.0284.7475,12.0591.8617,15.4609.4381,30.9261-.6669,46.4003,1.1624,10.8996,1.2885,21.9736.3064,32.6822-2.1257,21.3105-4.8397,40.0636-29.0543,41.3891-51.2514,1.8897-31.6481-12.093-55.2187-36.6873-73.1071-7.5905-5.5209-9.2566-10.8856-6.3933-19.2589,1.3496-3.9468,3.7844-7.7731,3.2918-12.272Z"/>
      <path class="cls-3" d="M902.607,422.7742c1.8534.1769,2.8218,1.3598,3.7631,2.8719,18.0912,29.062,44.4118,42.5414,78.5073,43.0942,23.9964.3889,44.4353-6.4346,60.5656-24.4037,11.0729-12.3351,12.57-27.2533,7.4983-42.0757-5.1365-15.0119-17.0473-22.7857-33.0657-23.8674-1.6336-.1103-5.0928,1.381-3.4198-2.8816,23.8162-9.308,45.5983-4.6458,65.3014,10.464,16.7819,12.8697,21.8813,32.344,25.9008,51.6309,3.6668,17.5937,2.9309,35.4387-2.4212,52.872-8.7697,28.5657-27.802,45.5876-57.176,50.9468-2.6112.4763-4.9078,1.3014-5.2206,3.918-.318,2.66,1.7925,4.3001,4.2294,5.0141,7.5774,2.2208,15.268,3.6534,23.118,1.6377,3.5825-.92,4.8613-.4575,5.0415,3.8266,1.6725,39.7505-25.3331,77.1102-63.8333,88.8703-14.7586,4.5081-29.4638,7.2284-44.8536,5.1257-.1573-1.0917.4517-1.7236,1.3025-2.244,14.9828-9.1622,19.8956-23.4198,19.3744-39.9203-.2537-8.0328-4.3995-14.3291-12.1967-17.62-4.3747-2.7353-8.1272-1.8867-9.7142,2.9556-11.5072,35.1124-39.4051,50.1335-72.2247,58.7375-29.5918,7.7577-58.9523,3.6644-88.0467-3.4537-8.2595-2.0208-16.3778-4.6515-24.4923-7.2192-3.604-1.1406-5.5491-2.5035-2.2616-6.9367,9.029-12.1747,19.1247-23.8062,23.6391-38.7521,1.0547-3.4921,3.8339-2.1689,5.9125-2.2262,28.2043-.7768,55.5353-6.1101,82.0981-15.5175,29.2585-10.362,51.3002-28.4969,62.3426-58.306,1.3267-3.5816,3.1614-3.4823,6.5004-2.8391,26.2162,5.0489,51.5875,3.1723,75.1224-10.6538,12.2929-7.2218,21.467-17.2087,25.5459-31.2289.7099-2.4401,2.0649-5.2819-1.0814-7.0019-2.7435-1.4997-4.8714-.0388-6.8802,2.0067-24.7484,25.2011-55.0708,29.6532-87.5651,21.4264-28.1859-7.136-52.4789-21.718-71.6449-44.2017-3.7126-4.3553-3.6058-7.1139.3649-11.1041,3.811-3.8296,6.6843-8.5923,9.9697-12.9449Z"/>
      <path class="cls-4" d="M587.3706,291.2173c3.477-34.3223,19.2602-60.6788,50.0539-77.3106,16.6867-9.0125,34.2079-15.8835,52.7934-19.7211,3.3561-.6931,6.3052-1.1314,6.6161-4.8765.3476-4.188-3.0526-5.7786-6.3349-6.3702-11.003-1.9832-22.1341-2.9988-33.2486-1.2341-11.8957,1.8888-12.4863,1.7815-17.9893-9.1752-1.2556-8.1265-2.6407-16.1161-2.4277-24.5269.3499-13.8048,6.8839-24.0999,16.2656-32.8578,21.2317-19.8198,45.349-34.7418,74.3854-40.0057,31.8157-5.7678,61.9904-.2762,90.4591,14.7922,4.8204,2.5514,9.5865,5.2589,14.1537,8.2964,4.9492,3.2916,7.0738,7.885,7.7492,13.6699,1.2085,10.3513.2511,20.3415-3.7533,29.9906-.4753,1.1451-.68,2.2565-.2705,3.4443-8.8047,24.06-26.7861,34.6315-51.6244,35.9039-5.4327.2784-7.3296-1.7413-9.2017-6.134-10.5092-24.6599-28.4639-40.6439-55.064-46.1611-2.7544-.5713-5.6284-.5831-8.451-.8028-2.9173-.2272-5.1597.6216-5.7774,3.8656-.5691,2.9878.6678,4.9356,3.3275,6.299,5.0282,2.5776,9.959,5.3449,14.9794,7.9379,15.5527,8.0331,24.6779,20.8575,28.3235,37.8007-1.4666.3182-1.8889.749-1.8422,2.6791.733,30.2847-11.1778,54.8876-34.01,74.449-4.605,3.9453-10.0961,6.2089-15.7307,8.2146-7.433,2.6458-14.472,6.1089-20.955,10.6228-2.3199,1.6153-4.8664,3.1487-5.2507,6.399-1.7465.6719-3.6776,1.0674-5.1956,2.0815-2.1952,1.4665-3.9621,3.4177-3.306,6.5028.6145,2.8893,2.3974,4.2477,5.2439,4.9207,11.3773,2.6893,22.7301,5.4872,34.0525,8.399,3.1541.8111,6.1721,2.1518,9.2525,3.2496-1.7169,7.4299-5.7404,13.5516-11.2747,18.5734-23.2684,21.1137-64.4966,25.9932-88.0424,7.7699-15.0308-11.6331-24.5768-27.5519-27.9056-46.6857Z"/>
      <path class="cls-3" d="M326.9616,575.6055c-5.5953,42.0031,21.4643,66.5423,53.1593,75.9023,28.3098,8.3605,55.8054,6.1191,81.4363-9.2734,5.8064-3.487,5.3028,2.3467,7.7658,3.7757,5.2293,7.6676,9.4575,7.9414,15.2702.5745,4.1962-5.3178,7.9534-10.982,11.9065-16.4917,4.1368-5.6048,8.7313-4.9767,14.7366-2.4335,35.4178,14.9984,70.8245,14.8256,105.738-1.7589,7.653-3.6354,14.5116-3.4094,22.5799-.8355,27.414,8.7456,53.1071,3.6664,76.6633-12.3098,9.4603-6.4162,18.4382-13.6468,23.4358-24.4255,1.6966-3.6593,4.6067-3.5077,7.7135-3.4349,7.9185,1.3958,15.71,3.6638,23.8018,3.8654,4.1775.104,5.0934,1.2095,3.5402,5.4345-8.5174,23.1691-24.339,39.2794-46.6121,49.3821-32.4934,14.7388-66.8633,16.7778-101.7969,15.1219-3.5203-.1669-4.5098-1.3458-3.5185-4.884.9528-3.4003,1.3246-7.0027,1.5821-10.5431.1402-1.9279,1.3827-4.6-1.0548-5.7069-1.8823-.8548-3.4656,1.0295-4.8485,2.3085-9.1052,8.4208-19.0217,15.8015-29.5388,22.3134-31.8765,19.7367-63.4509,40.3981-100.2068,50.0634-53.6009,14.095-104.4201,8.2938-149.0022-26.7472-44.0891-34.6534-50.0377-86.4716-25.8547-129.5097,3.9409,6.9942,8.1166,13.5848,13.1039,19.6125Z"/>
      <path class="cls-3" d="M30.0929,468.4241c2.3083-2.6027-.0886-6.0189,1.7805-9.3512,4.3798,7.6635,7.8616,15.3886,13.5354,21.8868,16.426,18.8125,36.5107,29.4822,61.7732,30.6284,15.762.7152,30.6338-2.6519,45.3304-7.4735,6.853-2.2481,12.6501-.782,19.0309,2.2559,17.4273,8.2971,34.9537,9.1996,52.3236-1.0108,20.1295-11.8327,24.007-44.2873,7.7033-58.6782-.4671-.4123-.7024-1.0874-1.0491-1.6453,1.6858-1.699,3.5992,2.0085,5.0922-.4196,11.399,6.4836,18.6966,16.6077,24.6703,27.875,9.3885,17.7082,19.3803,34.9817,35.5926,47.5355,3.2324,2.503.7878,4.1664-.3834,5.818-12.448,17.5539-19.5912,37.2449-23.4887,58.2153-1.0373,5.5814-1.9064,11.2738-1.9867,16.9274-.0603,4.2521-1.5224,6.2797-5.4034,7.8045-39.2612,15.4249-74.9078,7.7812-103.4531-22.3722-5.2033-14.6724-18.8708-12.1421-29.9487-14.4998-52.4856-11.1704-91.0153-50.4855-101.1192-103.4961Z"/>
      <path class="cls-4" d="M747.3668,584.8947c-3.3007.819-5.2062,2.6066-6.8703,5.9351-5.4724,10.9465-15.0571,18.1637-24.9803,24.743-22.0425,14.6146-46.1101,18.7499-71.8705,13.0575-2.7378-.605-5.3509-1.8506-7.9592-2.9477-4.8744-2.0503-9.7254-2.1796-14.4215.2968-21.7841,11.488-44.9948,15.9985-69.452,14.0609-14.2471-1.1285-28.0579-4.3977-41.0556-10.4276-5.0471-2.3413-9.6382-3.963-14.2574.4797,16.1508-24.366,34.7948-46.018,61.8232-59.129,16.2436-7.8795,33.3217-11.5915,51.1843-12.1956,16.3397-.5525,32.7145,1.4131,49.0444-1.4414,9.1994-1.6082,17.738-4.5579,25.5254-9.4966,2.9021-1.8404,4.4882-2.2868,6.957.6358,15.0606,17.8302,34.0007,29.7823,56.3325,36.4292Z"/>
      <path class="cls-2" d="M731.3844,750.3215c-34.1062-13.6717-63.9593-33.6439-91.6158-60.9177,7.4207-.7878,12.6442-1.6405,17.8935-1.8507,32.2716-1.2928,62.9921-8.2782,90.9498-25.0159,4.4071-2.6385,7.8912-2.0196,11.9273-.0505,20.1811,9.8457,41.354,16.7033,63.569,19.9249,31.6935,4.5961,63.3515,6.2202,94.4078-4.1039,3.0937-1.0285,6.0899-1.1681,9.1241-.8077,28.1167,3.339,55.9202,1.2085,83.4237-5.0232,5.2266-1.1842,3.9019,1.2084,3.1162,3.8955-3.8292,13.0958-11.6041,23.9107-20.4334,33.919-7.377,8.3619-15.0371,16.563-24.5523,22.6768-2.9532.1309-5.2948,1.8415-7.8194,3.0594-6.0803,2.9331-12.0408,4.3809-18.175-.0918-3.2207-2.3483-6.8583-1.2119-10.3369-.2335-17.908,5.0363-36.0635,8.845-54.4898,11.4743-26.1335,3.7288-51.7542,2.1957-76.7805-6.6239-7.8641-2.7715-15.9486-4.9393-23.6345-8.1829-5.9746-2.5215-11.5242-5.8988-15.228-11.4373-3.2067-4.7954-1.8589-7.4837,3.8611-8.233,9.8184-1.2862,18.9332,2.032,27.9161,4.9935,37.1319,12.2419,74.3453,12.5428,111.8365,1.9207,11.6562-3.3026,22.3813-8.815,33.6668-13.8579-12.9052,2.2704-25.8254,3.1718-38.5266,3.0326-18.9937-.2081-37.9784-2.5842-56.6227-6.8597-17.7369-4.0675-34.709-10.3678-51.1067-18.0606-7.9408-3.7252-13.8092-3.9893-21.1702,2.17-20.1072,16.8246-44.4064,24.4656-69.8682,28.8256-1.4055.2406-2.852.2209-4.242.5901-.4832.1284-.8631.3905-1.8438,1.6575,5.7643,4.9344,12.0467,9.416,17.8698,14.3986,5.971,5.1095,12.3606,9.7204,18.2905,14.8832,1.1007.9583,2.9187,2.1928,1.2127,4.0723-.7493.8254-1.7574.2474-2.6189-.1435Z"/>
      <path class="cls-3" d="M731.3844,750.3215c3.8111-.299,1.6485-1.36.3327-2.4137-10.9106-8.7388-21.8149-17.4854-32.7006-26.255-2.2017-1.7737-4.3173-3.6544-6.832-5.7912,5.3847-4.1925,11.6102-2.8344,17.1024-4.0291,25.196-5.4802,48.7096-14.2842,67.9719-32.1174,3.0293-2.8046,5.6373-2.4578,9.0196-.9894,20.224,8.7794,40.4384,17.6621,62.2465,21.9059,13.4559,2.6184,27.0051,4.3778,40.7156,5.4778,18.7581,1.5051,37.1666-1.0996,55.7773-2.7803.3907,2.8522-2.1703,2.7943-3.5392,3.5725-33.8246,19.2311-70.627,24.4927-108.6948,21.6318-17.2039-1.2929-33.725-7.1912-50.206-12.3163-5.3921-1.6769-10.7369-1.6089-16.1894-1.7523-4.8979-.1287-4.6062,2.2188-2.5625,5.1708,3.344,4.8301,8.0781,8.2905,13.3909,10.3345,24.6209,9.4733,49.6,18.0678,76.4387,17.2757,20.3518-.6006,40.468-3.7792,60.2553-8.7511,7.3386-1.8439,14.746-3.4603,21.9831-5.6415,3.2902-.9916,5.8759-1.0723,8.4642,1.3362,4.2552,3.9594,8.633,3.5244,13.7709,1.1595,3.2916-1.5152,6.8543-4.1616,11.0646-2.3808-27.9319,19.9633-59.2423,31.8288-92.8911,37.1562-45.6549,7.2282-90.3608,3.329-133.4732-14.2416-3.9195-1.5975-7.6349-3.6957-11.4451-5.5615Z"/>
      <path class="cls-3" d="M280.5536,401.3669c5.5316.4715,4.9118,5.7797,6.5966,8.9559,8.831,16.6486,20.3417,23.5198,36.6305,20.7362,7.9409-1.3569,15.6599-3.7027,23.1262-6.8304,21.4314-8.978,42.8514-17.9704,65.8924-22.2206,15.774-2.9097,31.719-1.5784,47.5724-2.3914,18.3881-.9431,36.9766-1.1796,54.5884-7.8487,17.2986-6.5506,29.1328-17.9194,33.7231-36.4402,3.1493-12.7072,3.5806-25.7416,5.7947-38.5429.2016-1.1655.2039-2.3877,2.2081-3.3355.3508,2.7053.672,5.239,1.0316,7.7671.0162.1141.3877.2614.5804.2442.2169-.0193.4187-.2079.6273-.3224,3.3838,16.2231,7.1611,32.3146,15.4303,46.9329,2.6679,4.7163,5.2888,9.4592,8.2172,14.7018-15.8874,5.7213-30.3434,14.1475-43.2651,25.1893-9.5957,8.1996-18.9537,16.6634-27.2443,26.1755-3.0202,3.4652-5.6821,3.76-9.7767,2.3488-22.3357-7.6985-45.4053-12.2678-68.9922-12.0795-50.4365.4027-89.4308,21.891-115.8106,65.3343-4.5696,7.5254-4.6124,7.5982-11.112,1.4535-7.8644-7.4349-13.8206-16.1928-18.3688-26.0459-4.6922-10.165-10.4077-19.7929-18.4364-27.7419-4.1847-4.1433-2.9132-8.8429-1.7378-13.2734,2.2812-8.598,6.8361-16.0968,12.7248-22.7668Z"/>
      <path class="cls-3" d="M719.8764,518.6056c3.0822-.4109,4.5881,2.0821,6.6436,3.5842,15.1719,11.0881,32.2915,16.4177,50.9184,17.9371,19.1824,1.5645,37.8412-.7141,55.6817-7.578,19.011-7.3143,32.7462-20.0652,36.5244-41.1185,1.7181-9.5737.1453-18.8316-4.5009-27.4596-.8607-1.5982-2.4512-2.8554-2.2294-4.791,2.6329-2.6808,3.8227,2.5917,6.2116.886,13.8832,18.4071,31.6378,31.9699,52.1458,42.2615,10.5719,5.3054,10.6644,5.7584,3.9034,15.734-13.5021,19.9219-32.6007,32.44-55.281,39.247-38.1605,11.4533-76.7033,12.5032-115.1135,1.2815-16.6836-4.8743-31.6443-15.5536-43.97-29.1552,3.0241-3.6122,6.0449-7.2206,9.0659-10.8289Z"/>
      <path class="cls-3" d="M587.3706,291.2173c3.9113,7.7765,6.7952,15.9746,10.9719,23.7005,14.9096,27.579,37.7278,35.0798,66.3253,30.8006,15.7232-2.3527,29.4859-8.4812,40.6801-20.1343,4.0103-4.1748,4.4021-10.5303,9.2434-14.0249,11.0663,4.5133,21.1807,10.6457,30.302,18.3236,12.8248,10.7952,16.8628,30.568,9.198,43.9729-5.9014,10.3213-15.074,13.9631-28.118,10.8637-30.3914-7.2213-61.0782-11.7461-92.4239-10.5398-2.6173.1006-5.4063-.2814-7.818.4905-10.4003,3.3287-16.8358-1.102-22.4522-9.598-14.5611-22.0264-18.9993-46.2454-16.9718-72.0706.0485-.6187.6954-1.1905,1.0631-1.7841Z"/>
      <path class="cls-2" d="M631.0553,758.8919c-15.1256-18.7039-32.2473-35.619-48.1552-53.6239-2.6047-2.9481-2.5699-4.0994.8547-6.2238,14.7633-9.1583,16.398-9.0332,28.6541,2.8821,30.4427,29.5958,64.7615,53.7472,102.9525,72.2584,6.6127,3.2051,10.9461,7.5039,14.0193,14.1219,10.5237,22.6622,20.6601,45.3717,24.2685,70.4372,2.3699,16.4623-3.8712,25.9791-20.4554,29.9756-4.4289-4.0641-4.0397-9.9405-5.5838-15.0643-8.2995-27.54-17.3955-54.7131-33.5798-78.9126-3.1409-4.6963-7.0363-8.2801-11.9938-10.8244-14.5703-7.4783-29.1397-14.9689-44.3396-21.1086-2.4712-.9983-4.5977-2.324-6.6415-3.9176Z"/>
      <path class="cls-3" d="M631.0553,758.8919c19.5071,5.7297,36.9052,16.09,54.9288,25.0679,7.7338,3.8522,11.2487,11.6043,15.1395,18.4418,8.6903,15.272,15.2149,31.5433,21.0401,48.2082,4.391,12.562,7.7152,25.3038,11.0298,38.1097-3.0879.0812-6.1859.3584-9.2626.206-8.4702-.4192-15.0572-3.1622-19.6657-11.4138-15.5018-27.7556-30.0472-56.0931-47.8386-82.5138-8.2144-12.1987-16.8995-24.0805-25.3712-36.106Z"/>
      <path class="cls-3" d="M767.3897,265.4063c3.1075,5.5402-.7086,10.4656-2.0179,15.2876-1.7479,6.4371-.5296,9.7385,5.1448,13.6156,19.2866,13.177,32.765,31.0543,37.675,54.1619,7.0663,33.2555-11.7364,67.1666-41.4701,74.6233-11.3351,2.8427-23.0905,3.5453-34.612,2.2787-16.6292-1.828-33.243-.6931-49.8492-1.2912-2.5244-.091-5.2749.8827-7.5133-1.1735,3.34-3.3044,7.6302-2.3049,11.4968-2.1257,20.3963.9449,40.1469-2.113,59.3601-8.8748,4.5766-1.2534,8.5595-4.0653,13.2239-5.1017,21.3019-12.2828,31.3753-40.9081,23.6343-65.6402-5.8218-18.6005-17.4089-32.4066-33.7553-42.341-4.0596-2.4672-4.0812-3.6942-1.0626-7.0127,7.4123-8.1483,14.477-16.6244,19.7456-26.4064Z"/>
      <path class="cls-1" d="M746.1877,412.458c.222.0865.4511.1583.6645.2621.6954.3376,1.1687.9765.195,1.2855-21.9033,6.9514-44.2788,10.3631-67.3018,8.8586-1.6587-.1085-3.3329.0223-4.9992.0431-32.09-4.1229-61.9869,2.716-89.9811,18.4016-7.6162,4.2675-14.8232,9.2867-22.0783,14.1687-3.9806,2.6786-6.2283,5.7351-.8527,9.6395,2.2004,1.5981,4.5971,3.5953,4.0648,7.0168-8.4635-9.6275-17.584-18.4208-31.0662-23.486,8.0106-7.1245,15.3531-13.6549,22.6956-20.1852,10.8773-10.8836,24.4182-17.0417,38.9141-21.0457,20.8441-5.7574,42.1322-5.6574,63.5942-4.4568,20.2285,1.1317,39.9075,5.6061,59.8738,8.2694,8.7701,1.1699,17.5596.0635,26.2773,1.2284Z"/>
      <path class="cls-1" d="M548.159,488.3441c-7.9784-.5124-13.9072-6.6228-21.8463-7.644-32.0701-4.1253-63.8136-11.819-96.4834-9.2628-17.8789,1.399-33.9243,8.8877-49.119,17.6669-18.6728,10.7889-33.4875,25.5122-45.761,43.7333-6.648,9.8697-3.3769,16.9026-.7717,25.3991,1.17,3.8158,4.5195,6.7895,4.3377,11.1394-1.878-2.6577-3.7566-5.3166-5.6352-7.9756-8.5795-14.3669-7.6077-29.3605-1.1152-43.7397,15.0981-33.4384,39.7463-56.1499,76.2145-64.6638,17.0169-3.9729,34.0217-2.4721,50.8004.9846,29.4149,6.0601,57.5309,16.0347,84.2015,29.934,2.0348,1.0604,4.595,1.6215,5.1777,4.4284Z"/>
      <path class="cls-1" d="M835.8227,145.3325c-2.1083-2.0537-.3606-3.9838.2545-5.8933,2.1248-6.5968,2.6289-13.3652,3.2297-20.2527.9745-11.1723-4.2259-17.3599-13.2785-22.7646-27.1437-16.2059-56.3294-24.0768-87.7195-21.02-25.7416,2.5068-48.8553,12.6309-69.2502,28.8257-8.5574,6.7951-16.5882,14.04-23.6466,22.3838-8.6218,10.1919-7.6868,22.3232-7.2408,34.4053.1428,3.8655,3.1711,7.4475,1.0893,11.5111-6.3235-20.4039-4.5796-39.65,8.5083-57.1212,19.3526-25.8339,43.0867-46.7503,74.3558-55.8293,37.7989-10.9748,72.7208-2.6277,102.3216,23.5218,17.3509,15.3278,22.3574,35.1806,11.3762,62.2335Z"/>
      <path class="cls-1" d="M343.2884,132.3279c-3.6512-3.5947-2.3024-8.1266-1.2923-11.9085,1.4545-5.4455-.2043-6.5095-5.3127-6.725-32.6913-1.3788-61.0966,10.177-86.5405,29.4114-18.3025,13.8357-33.4076,30.9946-46.0682,50.2085-2.8646,4.3475-3.5641,9.5296-3.7897,14.2999-.6604,13.9629-1.8585,28.0914,2.9852,41.6938.8992,2.5251,1.2766,5.0077.544,7.6034-.0397.1404-.3695.2887-.5528.2753-.2169-.0156-.4213-.203-.6316-.3154.1624-7.6494-3.5856-14.4603-4.402-22.0384-2.844-26.3993,1.7145-51.5219,14.953-74.0781,25.6756-43.7468,64.0103-66.363,115.5911-64.1044,18.8145.8238,18.5022.969,15.7574,18.7517-.851,5.5136-2.964,11.1447-1.2408,16.9259Z"/>
      <path class="cls-1" d="M654.5184,65.366c-1.1488-4.1953,3.6273-4.1033,4.9308-7.0558-3.3111-3.3706-7.8797-4.8668-12.3239-5.7357-46.2558-9.0447-85.9724,3.0074-118.1984,37.7444-6.0288,6.4985-7.5796,15.1295-6.3621,23.8493.881,6.3096,1.924,12.6581,4.254,18.6804.7011,1.8122,1.1073,3.6893-.5625,5.2964-1.5281-5.686-3.0541-11.3743-4.5854-17.061-5.0086-18.5994,4.0036-33.4385,12.9834-48.2634,14.2104-23.4601,33.9171-39.5811,61.7226-43.0063,21.005-2.5875,41.4124,2.0234,61.2053,9.0678,6.8454,2.4364,13.5221,5.3466,21.4532,8.5101-8.5959,6.3018-16.5565,12.1378-24.517,17.9738Z"/>
      <path class="cls-1" d="M501.654,70.2898c-.1311-3.242-2.2843-4.3438-5.0567-5.0134-12.6731-3.0609-25.651-5.3018-38.5262-5.4758-28.5828-.3861-54.8769,7.3319-76.3269,27.3592-6.9284,6.4688-13.7169,13.1219-19.621,20.6675-2.7305,3.4897-4.4682,7.1989-6.0124,11.1619-.7469,1.9169-.4048,4.5485-3.3616,4.9624,9.6314-33.7343,27.086-61.0573,61.1082-74.9364,30.6008-12.4832,61.0752-10.9642,91.549.4399,5.6285,2.1064,9.2286,4.2306,3.1776,10.2429-2.9276,2.909-4.6579,7.0232-6.9302,10.5918Z"/>
      <path class="cls-1" d="M187.7445,251.099c-6.1643-2.7623-6.1902-9.1548-7.8279-14.2556-2.1495-6.6948-3.6135-13.7333-4.317-20.7302-.5715-5.6837-2.9221-5.469-6.9748-3.8827-18.7257,7.3294-34.5478,18.8168-47.1759,34.3156-12.1293,14.8865-18.9511,32.3397-24.4826,50.7435-4.0745,13.5564-4.5476,25.1024,5.1248,36.0296.6556.7407.0915,1.7923-.7905,2.3966-14.5612-18.854-13.9838-39.876-7.7926-61.1565,11.1482-38.319,38.3133-62.2688,72.9706-79.0841,3.1388-1.523,6.4774-2.6343,10.495-4.2464-.757,21.0072.6292,41.2851,10.771,59.8702Z"/>
      <path class="cls-3" d="M674.5459,286.4061c-3.1879-1.4909-1.7456-2.9-.0508-4.5581,6.2765-6.1407,14.0448-10.1565,22.0523-12.8172,28.3841-9.4311,41.4279-31.4747,49.5515-57.9784,2.3218-7.5749,3.2417-15.2836,3.0179-23.1924-.0521-1.8426-1.4433-5.6,3.2137-3.821,8.464,32.7036.4609,61.2427-21.7802,86.1819-.1581.1774-.3402.3338-.4914.5165-8.0003,9.6678-16.769,16.5752-30.8376,13.5523-8.0512-1.7299-16.5123.4896-24.6753,2.1165Z"/>
      <path class="cls-3" d="M600.2737,526.9998c12.2276-6.0419,25.364-10.3136,36.381-18.7191,1.372-1.0469,3.0202-1.3346,4.7352-1.009,20.7813,3.9442,38.3395-4.5022,55.4658-14.4989,2.8545-1.6662,5.4783-3.7252,8.2285-5.5732,3.0432-2.0448,2.1565.7468,2.4806,2.0422-7.0916,16.8226-20.7867,26.0494-36.759,33.3751-22.4901,10.3153-45.7476,7.6925-69.0828,5.7586-.5176-.0429-.9678-.8988-1.4494-1.3756Z"/>
      <path class="cls-3" d="M421.5123,549.5454c2.4669-1.6079,4.9601-1.2154,7.4359-.0539,22.2324,10.4297,45.7728,13.4304,69.9811,11.7714,7.7769-.5329,15.2822-3.1394,22.7192-5.5813,1.8357-.6028,3.748-2.754,5.6409-.0425-5.4463,4.7837-11.2035,9.2633-16.2576,14.4304-5.9447,6.0779-12.9225,9.1328-21.2469,9.8674-23.8503,2.1048-43.8151-5.5055-59.2955-23.8907-2.5764-3.0597-5.297-5.2782-8.9771-6.5009Z"/>
      <path class="cls-3" d="M797.5679,444.1139c4.1753-5.7229,10.7385-7.5653,16.8086-10.0014,23.982-9.6241,45.8438-22.5298,64.5663-40.526,6.974-6.7036,11.5146-14.8537,16.1048-23.5191-1.3828,5.8437-2.9708,11.6502-4.0383,17.5509-.3805,2.1034-2.9547,4.0967-.7502,6.5128-13.0144,26.3894-34.5739,41.3942-63.0004,47.1402-9.7831,1.9776-19.6669,3.2253-29.6909,2.8425Z"/>
      <path class="cls-1" d="M959.4013,174.0497c-4.8038-.6223-6.0596-5.5138-9.4997-7.9857-17.2165-12.3713-35.2863-22.1468-56.9008-24.0537-6.6522-.5871-13.1392.8577-19.7425.6147-2.9825-.1098-3.0285,3.0427-4.2091,5.0161-1.5292,2.5563-.0704,6.7776-4.2779,7.8079,2.8384-9.1996,5.8712-18.3468,8.4272-27.6256,1.1301-4.1026,3.024-5.4622,7.3576-5.5243,27.5248-.3937,47.9394,13.4444,65.4825,32.6675,5.1961,5.6937,9.9527,11.9924,13.3625,19.0831Z"/>
      <path class="cls-3" d="M1008.1247,335.4146c1.0002-3.2598,3.4802-4.6073,6.5795-5.4358,4.8037-1.2841,9.5363-2.8315,14.3113-4.2254,10.0554-2.9353,15.9874-9.8959,18.6833-19.6841.7711-2.7995,1.8855-5.3405,3.1364-7.8876,5.7805,15.1558,5.6914,30.9951,5.5172,46.8571-.0333,3.0416-1.5364,3.5464-4.0939,3.1069-12.8265-2.2039-25.5154-.7064-38.1611,1.5531-3.1129.5561-4.8875.0851-4.8481-3.7533.036-3.5061-.7186-7.0203-1.1247-10.5309Z"/>
      <path class="cls-1" d="M93.9521,358.9234c-21.0123-1.396-28.8164,15.8841-39.1886,28.6747-8.3398,10.2843-13.196,23.0349-19.8264,34.5062-5.201,8.9983-4.8355,17.9016-5.2279,27.2115-.1083,2.5683.5398,5.2712-1.1149,7.622-2.8222-30.0642,2.4305-58.3858,18.4725-84.287,5.2752-8.5171,11.8444-16.0136,19.1304-22.9156,3.9417-3.7339,7.0764-5.3164,11.3988-.0914,4.1128,4.9716,9.8848,7.9768,16.3561,9.2796Z"/>
      <path class="cls-1" d="M1046.5524,285.6405c-.4252.0653-1.174.2881-1.2298.1734-10.6082-21.7858-31.8041-31.4644-50.4472-43.99-13.3922-8.9979-28.7602-14.3679-42.6123-22.5649-4.4872-2.6553-9.6085-1.9592-14.511-2.5662-4.0719-.504-9.6277.326-9.9483-6.4013,2.9592,4.0719,7.3696,4.4693,11.8488,4.6425,12.5531.4855,24.9565,2.3058,37.0367,5.5707,34.6779,9.3727,55.6681,33.6662,69.863,65.1357Z"/>
      <path class="cls-3" d="M975.0224,590.034c2.8822-2.0613,4.6609-.246,6.6367,1.6806,10.4306,10.1709,8.7712,22.3425,5.0347,34.3272-1.7862,5.7292-4.4914,11.4661-8.7536,16.118-3.1915,3.4836-6.5078,6.7275-11.3977,7.6587-4.7801.0569-5.1132-2.0443-2.9056-5.6768,7.6392-12.5705,9.9336-26.8535,12.5882-40.9394.8014-4.2518,1.1954-8.9688-1.2027-13.1683Z"/>
      <path class="cls-3" d="M973.5933,385.3747c-3.1589.6068-4.8951,1.0208-4.0362-3.8653,3.2958-18.7485,9.9069-36.8395,11.0809-55.9856.149-2.4296,1.3951-1.9045,2.8122-1.4214,8.0514,18.4947,5.2886,36.1867-4.125,53.2976-1.5666,2.8475-3.8042,5.3258-5.7318,7.9747Z"/>
      <path class="cls-5" d="M329.2313,282.9404c2.8153-13.2929,2.7618-26.0187-1.288-38.4785-8.0551-24.783-27.3182-36.138-51.049-41.906-4.5659-1.1099-9.1753-2.1016-13.8144-2.8308-3.7249-.5855-7.2638-1.2089-7.4263-5.9029-.1811-5.2338,4.2576-5.9889,7.7573-6.7138,12.2309-2.5331,24.5173-2.294,36.7667.2545,8.8072,1.8324,17.5554,3.8464,24.8555,9.4879,3.7193,2.8741,3.9492-1.1695,4.8567-2.5234,7.3605-10.9813,17.1883-18.6828,29.4596-23.5157,3.6271-1.4285,6.9418-2.3483,9.5248,1.2665,2.477,3.4663,1.0412,6.4815-1.4482,9.5623-7.0181,8.6851-12.1385,18.4406-16.8633,28.593-4.2408,9.1126-1.5035,17.5548-.0509,26.1744,2.9299,17.3852-.4216,33.3036-9.5891,48.2241-2.0856,3.3946-4.828,4.551-8.3773,3.4668-2.5673-.7843-3.4002-3.0778-3.3141-5.1583Z"/>
      <path class="cls-5" d="M202.9149,566.0414c-27.9408.2674-44.0689-12.5284-49.6148-38.978-1.2243-5.8387.2028-11.3157.9019-16.9171.2829-2.2672,2.0375-3.7835,4.2543-4.2705,2.6307-.578,4.7078.5791,5.8925,2.9494,1.0543,2.1095,1.9236,4.3223,2.7355,6.5404,9.7931,26.7516,28.6121,32.9183,53.819,32.6589,5.8525-.0601,11.7881-1.4016,17.4943-2.8879,3.5386-.9216,6.1045-.832,7.8473,2.4763,2.0358,3.8647-1.1042,5.7542-3.4849,7.491-9.5374,6.9574-23.8635,10.7845-39.8451,10.9374Z"/>
    </g>
  </g>
</svg>