<?xml version="1.0" encoding="UTF-8"?>
<svg id="Capa_2" data-name="Capa 2" xmlns="http://www.w3.org/2000/svg" viewBox="0 0 682.4424 982.5505">
  <defs>
    <style>
      .cls-1 {
        fill: #ee7372;
      }

      .cls-2 {
        fill: #292e31;
      }

      .cls-3 {
        fill: #fe655d;
      }

      .cls-4 {
        fill: #657a9a;
      }

      .cls-5 {
        fill: #677b9e;
      }

      .cls-6 {
        fill: #667a9c;
      }

      .cls-7 {
        fill: #8798b8;
      }

      .cls-8 {
        fill: #242e30;
      }

      .cls-9 {
        fill: #dc4842;
      }

      .cls-10 {
        fill: #ee7273;
      }

      .cls-11 {
        fill: #fe8e88;
      }

      .cls-12 {
        fill: #db4842;
      }

      .cls-13 {
        fill: #dc8484;
      }

      .cls-14 {
        fill: #dc4942;
      }

      .cls-15 {
        fill: #fe9492;
      }

      .cls-16 {
        fill: #667b9d;
      }

      .cls-17 {
        fill: #fe9797;
      }

      .cls-18 {
        fill: #8698b8;
      }

      .cls-19 {
        fill: #dc4741;
      }

      .cls-20 {
        fill: #dc4841;
      }

      .cls-21 {
        fill: #fd8f8c;
      }

      .cls-22 {
        fill: #667a9b;
      }

      .cls-23 {
        fill: #fe665d;
      }

      .cls-24 {
        fill: #fe625c;
      }

      .cls-25 {
        fill: #6c7c9a;
      }

      .cls-26 {
        fill: #8898b8;
      }

      .cls-27 {
        fill: #a6b3cd;
      }
    </style>
  </defs>
  <g id="Capa_1-2" data-name="Capa 1">
    <g>
      <g>
        <path class="cls-2" d="M442.639,975.5508c-54.3242,0-108.9404-37.1709-148.8184-64.3115l-4.583-3.1182c-60.6045-41.2334-123.2725-83.8701-172.4141-141.6533-40.8281-48.0068-62.6875-99.6719-63.3145-149.5615-1.7451-2.2236-3.8096-4.3213-5.9814-6.5273-2.6426-2.6846-5.375-5.46-7.8281-8.7588-9.4912-12.7852-16.3799-25.9238-21.0635-40.1709-.2363-.7188-.3545-1.4697-.3506-2.2256.0127-2.3301-.8418-4.8135-1.833-7.6885-.6396-1.8584-1.3018-3.7803-1.8047-5.8848-12.9873-54.3926-9.3789-108.5391,10.4336-156.5879,12.5762-30.498,35.4062-53.1807,57.4854-75.1162,5.7441-5.708,11.6836-11.6094,17.3066-17.5215,1.9873-2.0898,3.8271-4.1279,4.4912-6.0771,1.2979-3.8115,1.4453-8.4414,1.6006-13.3418.1758-5.5586.3584-11.3027,2.1309-17.124,2.957-13.8105,5.0928-26.7988,6.5146-39.6348-19.1738-7.3701-38.9561-14.8887-58.71-19.8271-.1377-.0342-.2744-.0732-.4092-.1152-3.6172-1.1416-8.5703-2.7051-12.2969-6.6816-3.5762-3.8154-4.9033-8.709-5.6602-12.5469-3.0879-15.6348-1.1729-32.2451,5.3916-46.7695,6.0039-13.2842,15.5117-20.5459,28.2588-21.584,1.2549-.1025,2.5459-.1543,3.8389-.1543,8.749,0,16.8779,2.2979,24.7393,4.5205,2.4795.7012,4.8213,1.3633,7.1768,1.9551,4.999,1.2637,9.5566,2.5693,13.8154,3.959.0625-4.877.0205-9.7949-.0215-14.5908-.0186-2.1895-.0381-4.3789-.0479-6.5684-.0176-4.2256-.209-8.5889-.3955-12.8076-.3604-8.1826-.7324-16.6445.0654-25.2217.4014-4.3223,2.0137-7.6826,3.4355-10.6475.2266-.4697.4521-.9414.6729-1.418.2412-.5205.5459-1.0098.9062-1.4561,6.4268-7.9541,15.1475-9.9766,22.8418-11.7607l1.0996-.2559c.46-.1074.9287-.168,1.4014-.1807,2.7764-.0771,5.5518-.1846,8.3262-.291,5.2051-.2012,10.5869-.4092,15.9512-.4092,1.4482,0,2.8984.0146,4.3477.0488,7.1318.167,13.5703,1.2852,19.6846,3.4189,10.7627,3.7451,15.7725,10.457,16.2363,21.7627,1.1582,27.4775.2402,55.4297-.7998,81.7031-.0986,2.4531-.2959,4.875-.5049,7.2373,8.7559-10.0244,18.8467-18.4463,28.6377-26.6191.8672-.7236,1.7354-1.4482,2.6016-2.1738-3.6855-19.2129-9.1318-37.4883-16.1895-54.3242-.5039-1.2031-1.0381-2.4229-1.5762-3.6543-4.7725-10.915-11.9297-27.2822,1.999-40.041.4883-.9473,1.1846-1.7979,2.0254-2.4287,13.3213-10.002,28.9658-15.0137,47.8281-15.3213l.4326-.0039c9.46,0,16.6553,5.2002,19.7393,14.2676l1.7646,5.1816c1.832,5.375,3.6641,10.751,5.457,16.1377,1.1426,3.4336,2.0547,6.8984,2.9365,10.25.7969,3.0264,1.5498,5.8857,2.4502,8.6875l10.4746,32.5664c.3818,1.1885.6279,2.4287.8662,3.6289.0664.334.1475.7422.2373,1.1592.6758-.1152,1.2949-.1543,1.8271-.166.7539-.6777,1.4102-1.124,1.8721-1.4375.0225-.0156.0449-.0303.0664-.0449.0312-.0596.0684-.1357.1123-.2305.8672-1.874,1.6289-3.8779,2.4355-5.999.417-1.0957.834-2.1904,1.2656-3.2725l.8174-2.0439c2.2959-5.7461,4.5908-11.4922,6.9268-17.2227,4.2051-10.3164,9.8604-23.8926,16.3145-37.4229.665-1.3965,1.4355-2.5859,2.1143-3.6357.2451-.3779.4902-.7549.7236-1.1387.2178-.3584.4668-.6963.7451-1.0098,4.8867-5.5039,11.1211-8.1787,19.0596-8.1787,3.2412,0,6.4043.4287,9.3389.8926,2.6006.4053,4.9658,1.0879,7.2539,1.748,2.3525.6787,4.5752,1.3203,6.6338,1.5029.6875.0615,1.3633.2236,2.0029.4824.7021.2842,1.4092.5596,2.1162.835,5.5098,2.1455,12.3672,4.8164,16.8926,11.6348.2305.3467.4287.7129.5938,1.0947,3.376,7.8135,2.0957,15.2012.2109,22.0215-1.0859,3.9248-2.248,7.8662-3.373,11.6777-1.4785,5.0137-3.0078,10.1982-4.3428,15.291-.0146.0527-.0283.1035-.042.1533.2148,1.0195.2002,2.0791-.0488,3.1016-.5459,2.2363-1.0713,4.4785-1.5977,6.7197-1.1016,4.6963-2.2334,9.5234-3.5547,14.3184,1.0732-.8301,2.1836-2.3535,3.3496-3.9531l.1191-.1631c13.5303-18.5547,30.6455-36.3164,52.3242-54.2988,5.1562-4.2676,10.7451-6.4297,16.6191-6.4297,4.3291,0,8.7715,1.1982,13.2031,3.5605,9.2373,4.9258,17.7412,11.542,25.2783,19.666,4.2861,4.6084,6.4434,10.4873,6.0684,16.5479-.4082,6.6084-3.7471,12.8604-9.4004,17.6055-8.7148,7.3232-16.2285,14.8789-22.9668,23.0967-7.0176,8.5547-12.9736,17.7188-17.9365,25.7549,11.5293,13.9248,23.9736,30.2764,30.5664,50.1611,20.2793-5.2744,40.8887-10.3164,60.8447-15.1982,11.7236-2.8682,23.8467-5.834,35.751-8.8105,3.3691-.8262,7.5225-1.8438,11.8379-1.8438,1.5527,0,3.0693.1318,4.5068.3926,5.2217.9463,10.2686,3.7051,14.999,8.2012,7.4248,7.0537,12.6865,16.7949,15.2158,28.1689,3.8799,17.4482,2.0293,34.2373-5.2021,47.4424-.2637.6621-.6338,1.2949-1.1113,1.873-6.0371,7.3018-13.8799,11.7305-24.6826,13.9375-23.167,4.7266-47.7734,9.8809-71.5684,16.3379l-.9941.2695c-9.5557,2.5898-18.5869,5.0381-27.0527,9.0479,11.9668,4.2305,21.8809,9.3457,30.7988,15.8037,6.7998-2.3193,13.6611-4.5605,20.3115-6.7334,8.7246-2.8496,17.7461-5.7969,26.5137-8.8838,6.3857-2.248,12.9902-4.5723,19.7236-6.4932,4.3086-1.2295,10.0137-2.6426,15.9277-2.6426,4.5293,0,8.6943.8467,12.3779,2.5166,8.6543,3.9229,14.9824,12.3018,18.8096,24.9053,2.2744,7.4912,3.0137,14.0547,2.2598,20.0654-.582,4.6475-1.7451,8.2529-3.5557,11.0225-1.2734,1.9492-2.9111,3.0752-3.9941,3.8203-.0996.0684-.1992.1338-.2969.2012-.8262,1.2793-2.0527,2.2637-3.502,2.7871-6.4619,2.3359-13.0439,4.543-19.4102,6.6777-3.4492,1.1562-6.9473,2.3301-10.4512,3.5312,8.2285.6006,16.4043,1.4287,24.3936,2.2373l1.875.1895c.5547-.1387,1.123-.208,1.6924-.208.6328,0,1.2676.0859,1.8857.2588,15.1191,4.2295,18.0771,18.0293,19.0488,22.5645,2.5195,11.7783,1.2412,23.0449-3.8008,33.4893-3.3799,7.0127-8.4121,11.6846-14.9551,13.8828-.6367.2139-1.3018.335-1.9727.3594-2.0576.0752-4.2012.1133-6.3721.1133-10.8516,0-21.6797-.9404-32.1504-1.8496-6.459-.5605-13.1094-1.1387-19.6602-1.4805,1.2607,9.4229.8027,18.5117-1.3682,27.0723-.1367.5381-.3369,1.0596-.5967,1.5508-.1475.2803-.335.7227-.5322,1.1914-.5811,1.374-1.332,3.1543-2.7129,4.7764,38.7178,40.5098,47.7656,98.4609,48.5352,139.9512.3184,16.8896-1.9297,33.9512-4.0625,48.6172-7.3486,50.5459-18.6494,97.5938-33.5889,139.8389-17.4014,49.21-39.8701,92.1641-66.7812,127.668-13.8584,18.2842-29.4902,31.4814-46.4619,39.2227-13.9795,6.3779-29.1396,9.6113-45.0605,9.6113Z"/>
        <path class="cls-8" d="M279.7133,14.0001c6.2705.0004,10.9683,3.2191,13.1123,9.5226,2.4102,7.0887,4.8428,14.1714,7.2075,21.2753,2.0566,6.1787,3.3613,12.6426,5.3638,18.8685.6851,2.13,1.3701,4.26,2.0549,6.3899,2.8064,8.7261,5.613,17.4521,8.4194,26.1785.8259,2.5684,1.0322,7.0881,2.9597,9.1517.7246.7758,1.6077,1.0304,2.542,1.0304,1.0334,0,2.1294-.3115,3.1426-.5742.4451-.1154.9128-.1349,1.3845-.1349.2417,0,.4844.0051.7258.0051,1.0017,0,1.9783-.0885,2.75-1.0002,1.8337-2.1626,2.9897-1.5203,4.4946-4.7739,1.4424-3.1182,2.5742-6.4232,3.8491-9.614,2.5618-6.4122,5.1187-12.8263,7.7249-19.2205,5.0857-12.4771,10.3481-24.8885,16.1511-37.0515.6899-1.4501,1.6602-2.7703,2.5-4.1501,4.0225-4.5315,8.7729-5.8269,13.8245-5.8268,2.6848,0,5.4553.3661,8.2454.8069,4.8701.7599,9.4204,2.87,14.3604,3.3099,5.8398,2.3601,12.0298,4.17,15.7998,9.8499,2.5103,5.8102,1.5103,11.5201-.1099,17.3802-2.5,9.0399-5.3604,17.9799-7.7402,27.0599-.3101,1.1599-.5801,2.23-.1201,3.37-1.9497,7.99-3.6499,16.0499-5.9795,23.9199-1.1929,4.0199,2.9661,6.0842,6.7593,6.0842,1.3899,0,2.7312-.2773,3.7415-.8374,2.6431-1.4651,4.47-4.0189,6.2502-6.4606,14.5918-20.0107,32.1216-37.2626,51.1387-53.0361,3.9141-3.2399,7.9553-4.8179,12.1494-4.8176,3.2107.0001,6.5112.9252,9.9106,2.7375,8.8701,4.7301,16.6299,10.91,23.4399,18.25,6.52,7.01,5.4502,17.1901-2.7002,24.03-8.6997,7.3098-16.6797,15.24-23.8799,24.02-7.2598,8.85-13.5,18.39-19.48,28.14-1.2197,1.99-1.1997,3.2.4204,5.1399,13.2397,15.9001,25.6499,32.3501,31.5098,52.67.511,1.7831,1.4285,2.2767,2.498,2.2767.73,0,1.531-.23,2.3218-.4369,32.9294-8.6083,66.0369-16.3956,99.0664-24.6531,3.3267-.8153,6.7439-1.6344,10.1396-1.6343,1.0896,0,2.1772.0844,3.2585.2802,4.355.7888,8.2168,3.3391,11.4255,6.3875,6.8503,6.5081,11.1536,15.391,13.2048,24.6146,3.2288,14.519,2.5205,30.4371-5.0349,43.4952l.1602-.1599c-5.3999,6.5299-12.3203,9.83-20.6899,11.5399-24.1201,4.92-48.23,9.99-72,16.4401-9.9902,2.7101-20.0503,5.37-29.4702,9.87-5.5298,2.27-11.0601,4.54-17.8301,7.3099,18.3003,4.4501,34.5503,10.5302,48.7803,21.1001.5044.9281,1.1741,1.215,1.8757,1.215.6895,0,1.4099-.277,2.0344-.495,16.0713-5.5177,32.3184-10.4963,48.3438-16.1368,6.397-2.2516,12.7986-4.5046,19.3201-6.3656,4.5266-1.2917,9.3323-2.3733,14.0073-2.3732,3.2747.0001,6.4856.531,9.4888,1.8922,7.9717,3.6133,12.4578,12.1886,15.0007,20.5637,1.6719,5.5062,2.7349,11.4023,2.0129,17.1609-.3333,2.6577-.98,5.7828-2.4697,8.0632-1.1106,1.7-3.5034,2.2744-4.3142,4.0554-14.5801,5.2701-29.4297,9.7601-43.9297,15.2501-.6201.24-1.25.4-1.4204,1.15-3.7998,2.25-8.5796,2.3201-11.9897,5.4298,5.9697,1.1503,12.0601,1.0402,18.0698,1.2902,13,.53,25.8999,1.91,38.8198,3.2098.0195.002.0391.0028.0588.0028.2917,0,.5903-.2008.8713-.3226,8.7603,2.4498,12.3501,9.17,14.0903,17.29,2.1396,10,1.1899,19.7599-3.2603,28.9799-2.2603,4.6902-5.6699,8.54-10.8799,10.29-2.04.0745-4.0776.1084-6.1138.1084-18.1931,0-36.2371-2.712-54.3862-3.4583-.2336-.0099-.4583-.015-.675-.015-3.5127,0-4.8152,1.3308-4.1653,4.9949,1.6201,9.2201,1.5703,18.3899-.7397,27.5-.9199,1.74-1.4502,3.9501-2.8301,5.1501-4,3.4698-2,6.0898.6602,8.87,33.8643,35.3904,45.7639,87.5444,46.6499,135.2998.2998,15.8801-1.7002,31.7302-3.9902,47.4802-13.3413,91.7551-42.3486,189.5151-99.0217,264.2849-11.6736,15.4009-26.2075,29.063-43.7893,37.0837-13.7886,6.2903-27.9333,8.979-42.1548,8.979-51.8784,0-104.7544-35.7891-144.8804-63.0986-62.845-42.7717-125.8655-85.0349-175.6035-143.519-35.0498-41.2129-61.6597-91.9548-61.6602-147.23,0-.5701-.2798-.8801-.72-1.1201-4.3-5.8401-10.0999-10.28-14.46-16.1399-8.7-11.7202-15.48-24.3401-20.03-38.1802.03-5.3999-2.6099-10.1399-3.8301-15.24-12.1082-50.7124-9.8843-103.8319,10.0977-152.2914,15.2585-37.0046,46.426-62.1265,73.3926-90.4824,2.4429-2.5687,4.9016-5.288,6.0444-8.6434,3.248-9.5366.7048-20.8469,3.8855-30.9525,3.01-14.0103,5.3699-28.1204,6.8799-42.3604.24-2.25-.2-3.88-2.5-4.76-20.0813-7.7214-40.7546-15.6783-61.658-20.9043-3.363-1.0609-6.8828-2.2179-9.2944-4.7911-2.2908-2.4442-3.2527-5.8289-3.9016-9.1155-2.8088-14.2275-1.0691-29.3174,4.9036-42.5325,4.4646-9.8783,11.3203-16.5841,22.448-17.4897,1.095-.0891,2.1843-.1307,3.2705-.1307,10.3345.0002,20.2793,3.7717,30.2119,6.2639,5.9302,1.5001,11.8201,3.21,17.5801,5.2701,1.072.3809,1.9939.6727,2.7366.6727,1.2661,0,2.0115-.8486,2.0935-3.5527.27-8.8102.0798-17.61.04-26.41-.05-12.45-1.52-24.8799-.3601-37.35.3401-3.6599,2.03-6.62,3.49-9.77,5.1702-6.4001,12.6899-7.87,20.0901-9.6,8.0339-.2214,16.0513-.697,24.0806-.6969,1.3958,0,2.7932.0144,4.1895.0469,6.02.14,11.8701,1.05,17.54,3.03,8.02,2.79,11.1997,6.91,11.5498,15.4398,1.1401,27.0602.27,54.0902-.7998,81.1403-.3604,8.8999-2.1299,17.7899-.79,26.75,4.4199-2.8601,6.7197-7.5901,9.9102-11.5,10.1099-12.4301,22.5596-22.3,34.71-32.5103,1.9297-1.3499,1.1699-3.4698.8496-4.9398-3.6641-19.2363-9.1033-38.0231-16.6848-56.1096-5.094-12.1522-13.0708-25.9424-.5044-36.5311.3799-.3199.5496-.8096.6995-1.2892,12.96-9.7301,27.8301-13.66,43.7397-13.92.1067-.0018.2119-.0027.3179-.0027M388.3153,230.6228c-6.7954-6.3553-14.4922-9.9301-24.0068-9.9296-2.3726.0001-4.8601.2225-7.4727.6796,10.7295,5.14,20.5498,8.99,31.4795,9.25M309.6053,320.7727c9.8501-14.0199,8.2803-25.1499-3.7397-29.0599-.5898,9.66,1.27,18.9498,3.7397,29.0599M279.7142,0h-.001c-.1865,0-.3718.0016-.5598.005-20.0942.3282-37.5615,5.9545-51.9033,16.7219-1.353,1.0157-2.502,2.2616-3.4004,3.6715-6.0889,5.9568-9.3557,13.3136-9.5969,21.5765-3.2849-3.3002-7.5889-5.8643-12.9373-7.725-6.7993-2.3744-13.9399-3.6202-21.8145-3.8033-1.4399-.0337-2.9595-.0508-4.5149-.0508-5.5017-.0001-10.9543.2104-16.2278.4142-2.7122.1047-5.5166.213-8.2385.2881-.9436.026-1.8821.1475-2.8013.3622l-1.0845.2522c-7.9199,1.8362-18.7666,4.3507-26.7092,14.1827-.7207.8923-1.3293,1.87-1.8115,2.9108-.2075.4475-.4204.8906-.6326,1.3328-1.5098,3.1466-3.5774,7.4562-4.0952,13.0284-.842,9.0514-.4587,17.7542-.0881,26.1705.1912,4.3435.3718,8.4459.3884,12.5311.0098,2.1932.0288,4.3794.0479,6.5656.0154,1.7468.0303,3.4688.0408,5.1725-1.6545-.4554-3.3545-.9037-5.1057-1.3468-2.2817-.5725-4.5754-1.2208-7.0039-1.9075-7.9319-2.2422-16.9221-4.7837-26.6409-4.7841-1.4812,0-2.9634.0596-4.406.177-10.6401.866-25.1875,6.0237-34.0706,25.6779-7.1592,15.8406-9.2476,33.9563-5.8809,51.01.9385,4.7535,2.6304,10.8654,7.4216,15.9775,4.9807,5.3142,11.1892,7.2727,15.2974,8.5687.2698.0851.542.162.8164.2306,17.6255,4.4062,35.4373,10.972,52.8169,17.6211-1.3611,10.7909-3.2417,21.7565-5.7083,33.3083-1.9597,6.6058-2.1624,12.9886-2.3418,18.6421-.1387,4.364-.2693,8.486-1.2312,11.3101-.3264.7642-2.2229,2.7584-2.937,3.5092-5.5549,5.8413-11.4597,11.708-17.1702,17.3816-22.5696,22.4237-45.9072,45.6106-59.0203,77.4116-20.3772,49.4183-24.1021,105.0496-10.772,160.8796.5835,2.4395,1.3337,4.6174,1.9958,6.5393.7168,2.0808,1.458,4.2324,1.4517,5.3716-.0083,1.5115.228,3.0144.7,4.4502,4.8538,14.7637,12.2854,28.946,22.0884,42.1523,2.751,3.6975,5.7859,6.78,8.4631,9.4998,1.427,1.4495,2.8037,2.8479,4.0205,4.2195.6848,26.4497,7.0132,53.2659,18.8376,79.7856,10.8894,24.4229,26.3982,48.5498,46.0955,71.7104,49.7573,58.5068,112.8271,101.4163,173.8206,142.9131l4.5708,3.1099c40.6306,27.6531,96.2761,65.5249,152.7576,65.5249,16.9297,0,33.0676-3.4458,47.9651-10.2417,18.0364-8.2283,34.5681-22.145,49.136-41.3643,27.3472-36.0796,50.1592-79.6707,67.802-129.5623,15.0906-42.6733,26.502-90.1682,33.9167-141.1648,2.1724-14.9404,4.4624-32.3386,4.1335-49.759-.5115-27.5693-4.4116-53.207-11.5923-76.1965-7.9438-25.4333-19.7983-47.1171-35.27-64.5371.1833-.4115.3445-.7933.4895-1.1371.1003-.2377.2358-.5588.2976-.6903.5073-.9686.8994-1.9937,1.1682-3.0537,1.7334-6.8363,2.4785-13.9601,2.2324-21.2854,3.7373.2808,7.5178.6091,11.4075.9469,10.6194.9221,21.6006,1.8759,32.7559,1.8759,2.2544,0,4.4832-.0397,6.6243-.1178,1.3435-.049,2.6729-.2913,3.9473-.7192,5.7744-1.9396,13.7639-6.5472,19.0339-17.4838,5.7302-11.8715,7.1912-24.6548,4.3386-37.9867-3.0938-14.4358-10.7595-23.6735-22.7952-27.4818,2.0869-.8848,3.9143-2.2573,5.3384-3.985,1.4121-1.002,3.4971-2.6487,5.231-5.3027,2.4043-3.6801,3.9224-8.2522,4.6404-13.9775.8784-7.007.0581-14.5204-2.5078-22.9709-4.4382-14.6166-12.0479-24.4568-22.6172-29.2476-4.5981-2.084-9.7354-3.1407-15.2686-3.1407-6.7795-.0005-13.1003,1.5552-17.8494,2.9106-6.9294,1.9772-13.6382,4.3386-20.1262,6.6221-8.6934,3.0601-17.677,5.9948-26.3647,8.833-5.5823,1.8236-11.3125,3.6957-17.0247,5.6193-4.0747-2.7593-8.3481-5.2723-12.9016-7.5742,3.2144-.9484,6.5107-1.8418,9.8755-2.7537l.9951-.2699c23.6169-6.4086,48.0901-11.5339,71.1328-16.2343,12.2859-2.5099,21.6663-7.8531,28.6807-16.3356.8513-1.0294,1.5315-2.1462,2.0425-3.3146,7.8943-14.6431,9.9263-33.0199,5.7097-51.9818-2.833-12.7384-8.7905-23.7089-17.2283-31.7252-5.7388-5.4518-11.9875-8.8207-18.5732-10.0135-1.8477-.3346-3.7834-.5043-5.7537-.5043-5.1614-.0002-9.7698,1.1293-13.4724,2.0367-.021.0051-.042.0104-.0627.0156-11.8999,2.9749-24.0256,5.9415-35.752,8.8104-17.9568,4.3931-36.4397,8.9148-54.7542,13.6234-6.5586-16.4132-16.5764-30.267-26.3589-42.3452,4.2646-6.7249,9.179-13.9751,14.748-20.7642,6.4661-7.8845,13.6819-15.1393,22.062-22.1807,7.1316-5.9851,11.3533-13.9884,11.8811-22.5304.4937-7.9946-2.3245-15.7201-7.9358-21.7529-8.0569-8.6838-17.1799-15.7766-27.1038-21.0686-5.4563-2.9092-11.0066-4.384-16.4976-4.3844-7.5457-.0002-14.6372,2.7025-21.0769,8.0331-14.5637,12.0797-27.1213,24.0775-37.9607,36.2914.9275-3.3077,1.9084-6.6328,2.9268-10.0851,1.1326-3.8394,2.3037-7.8094,3.4045-11.7902,2.1206-7.6693,3.7153-16.8342-.532-26.6643-.3298-.7637-.7271-1.4965-1.1873-2.1897-5.7515-8.665-14.0942-11.9141-20.1858-14.2864-.6792-.2646-1.3586-.5288-2.0327-.8013-1.2798-.5171-2.6289-.8422-4.0037-.9646-1.3872-.1235-3.2949-.6741-5.3147-1.2568-2.3801-.6868-5.0776-1.4648-8.1294-1.941-3.1897-.504-6.679-.9741-10.4028-.9742-9.9172-.0004-18.0911,3.5435-24.2952,10.5328-.5559.6261-1.0542,1.3005-1.4893,2.0156-.199.3265-.4089.6478-.6177.97-.7578,1.1707-1.7009,2.6273-2.5652,4.4438-6.5305,13.688-12.2346,27.3821-16.4736,37.7819-2.1912,5.3763-4.3728,10.8292-6.4939,16.1384l-1.1912-3.7039-4.0154-12.4845-2.0549-6.3903c-.8438-2.623-1.573-5.3948-2.3452-8.3292-.9094-3.4561-1.8499-7.0299-3.0627-10.6742-1.7981-5.4016-3.6575-10.8569-5.4558-16.1324l-1.7805-5.228C302.0304,7.1091,292.1742.001,279.7142,0h0ZM221.8756,133.5659c.7356-20.2942,1.2458-41.3862.6816-62.3911,6.3735,15.2085,11.3987,31.6337,14.9607,48.8899-5.2104,4.3497-10.4944,8.7756-15.6423,13.5012h0Z"/>
      </g>
      <path class="cls-24" d="M253.8444,395.8639c10.1393-4.9243,21.0277-7.2228,32.1102-7.9494,25.7657-1.6893,51.138-.0348,75.0351,11.1788,13.2828,6.233,25.6412,13.9088,37.1991,22.9741,4.0086,3.1441,5.8158,6.8181,6.239,11.7494,1.6619,19.3652,3.5462,38.7111,5.2924,58.0692.8136,9.0192,4.9165,11.4672,12.8812,7.5557,8.095-7.1253,10.819-17.3503,15.2157-26.5837,2.4669-5.1807,5.8801-7.596,11.9387-7.9116,8.5016-.4429,16.9243.7771,25.3866.251,3.5244-.2191,6.4385,1.1953,8.9925,3.6028,15.5225,14.6317,33.7868,22.9121,55.0838,25.6384,18.0779,2.3142,34.3234,9.2085,45.9526,24.3825,4.2308,5.5203,7.1553,11.644,9.2002,18.1535,4.9517,15.7632,7.9217,31.9569,9.2841,48.4077,3.8951,47.0307-5.3234,91.9591-21.8222,135.7499-11.6813,31.0042-24.0196,61.7201-39.1577,91.2229-9.7192,18.942-19.2441,38.0912-32.7655,54.699-12.1109,14.8755-26.1471,27.4744-45.1351,33.2374-10.049,3.0501-20.2547,3.5178-30.6204,2.6371-26.6801-2.2668-50.9972-11.9126-74.745-23.5533-36.7432-18.0107-71.3372-39.4854-103.5082-64.715-16.8698-13.2299-33.3568-26.9569-48.9771-41.7395-15.4956-14.6645-30.7466-29.4403-43.4412-46.6832-11.0564-15.0178-22.1649-29.9892-30.3101-46.8759-9.4774-19.6486-15.8619-40.1532-17.679-62.0294-1.0079-12.134-1.7336-24.2488.025-36.3184,3.4642-23.7769,13.8114-44.2812,30.2014-61.7863.4551-.4861-.0502.1686.3372-.3664,6.2427-8.6223,14.4848-14.6429,23.508-20.2771,9.8808-6.1696,17.6335-14.4459,20.9971-26.7469,4.8467-17.7246,15.8966-31.5695,31.0072-42.1698,9.4731-6.6456,17.2316-15.1316,24.4588-24.0967,2.6069-3.2339,5.3208-6.3828,7.8156-9.707Z"/>
      <path class="cls-12" d="M253.8444,395.8639c-.4704,5.1954-4.9475,7.8183-7.6391,11.5221-9.7801,13.4588-23.7608,22.5056-35.8875,33.5162-8.3445,7.5765-14.5353,17.1693-17.2496,27.9791-4.6061,18.3443-17.1514,28.7916-32.8335,36.8626-1.4503.7464-3.0212,1.6542-3.9721,2.9131-8.0761,10.6928-18.0147,19.901-24.8875,31.5593-9.3558,15.8702-14.7257,32.9203-15.4546,51.3388-1.0301,26.0288,3.0875,51.232,13.053,75.3345,7.519,18.1854,18.0668,34.6031,29.5502,50.5639,12.8643,17.8802,27.3927,34.1921,43.4239,49.1786,12.1042,11.3154,24.6542,22.1327,37.3455,32.818,19.0684,16.0546,38.9257,30.9813,59.8617,44.3938,27.0072,17.302,54.8811,33.1809,84.7289,45.1503,20.0965,8.059,40.851,13.7279,62.8307,12.956,15.7468-.5531,29.6799-6.0601,42.0353-15.74,17.4687-13.686,29.3539-31.6589,40.1125-50.7533,16.5726-29.413,30.4509-60.0583,42.8486-91.3698,7.739-19.5456,15.4788-39.1501,20.7521-59.5829,5.2156-20.2091,8.4108-40.6774,10.1057-61.532,2.4269-29.8617-1.1771-58.8599-10.1147-87.2054-6.8205-21.631-23.2082-32.9995-44.4413-38.3143-11.9968-3.0029-24.5648-3.3494-36.1082-8.6131-10.073-4.5933-19.2843-10.3419-27.2888-17.8875-3.2466-3.0605-6.4375-4.8961-11.0065-4.546-8.3943.6431-16.7858-.6782-25.2319-.106-4.2883.2905-6.5847,1.9389-8.5747,5.4354-3.8709,6.8014-5.4787,14.6252-9.9096,21.1669-1.922,2.8376-4.1251,5.1782-7.2914,6.5398,1.3244-15.4253,2.6512-30.8168,12.1196-44.0468,2.093-2.9246,3.8055-3.5146,7.2931-2.0463,11.4129,4.8049,23.0902,6.2138,34.7605.6248,2.9151-1.3961,4.1992.3794,5.6315,2.3851,10.8472,15.1896,25.767,24.3674,43.7201,28.4189,13.6951,3.0907,27.4357,2.9045,40.4779-3.2434,3.2826-1.5474,5.4047-.9308,7.8141,1.6035,17.4737,18.3798,28.6184,40.185,35.3307,64.4496,6.5943,23.8385,10.4881,48.0981,9.2805,72.84-1.2725,26.0711-5.0958,51.8911-10.8963,77.3455-15.5958,68.4394-39.604,133.6717-75.3569,194.2871-10.8711,18.431-23.6707,35.3634-41.1734,48.2432-17.0092,12.5167-35.922,17.0964-56.8738,14.9921-28.454-2.8579-53.9064-13.8816-78.1082-28.1601-45.279-26.7135-88.9955-55.8751-130.981-87.4696-39.9704-30.0779-77.1557-63.3481-107.224-103.726-22.5595-30.2946-37.9872-63.8538-44.1484-101.3766-6.1799-37.6365,6.4143-68.3507,34.6386-93.092,8.6733-7.6029,16.9715-15.4523,23.5586-24.9524,1.6966-2.4468,3.7955-5.014,4.3251-7.79,1.2144-6.3648,5.7159-9.2881,10.6371-12.1765,23.4287-13.751,41.0765-32.8994,50.735-58.2879,3.2313-8.4939,6.3714-14.2574,15.7743-16.5011,7.4751-1.7837,12.7671-8.1634,18.8874-12.7164,6.6516-4.9481,13.1213-10.2137,21.0209-13.1826Z"/>
      <path class="cls-23" d="M191.8179,234.7907c4.9751-17.6023,13.264-33.658,23.5297-48.6469,13.6127-19.876,29.312-37.8565,49.5975-51.3443,2.9019-2.1141,6.0865-1.3793,9.1188-.6325,3.0679.7555,4.5546.2134,3.9381-3.2498-4.4585-25.0453-7.6822-50.4258-20.3263-73.2115-1.2659-2.2813-2.7742-4.575-2.808-7.3725,9.2011-2.2813,17.3818-6.6145,24.8586-12.3629,2.2618-1.6775,3.673-1.6095,4.6156,1.5264,1.6147,5.3721,2.613,10.6946,3.2359,16.3589,1.8052,16.4142,6.5793,32.3211,13.7313,47.1733,2.5102,5.2127,5.8875,10.0348,7.3916,15.7624.71,2.3569,1.294,4.7615,2.1652,7.0573.88,2.319,2.234,3.9825,5.2618,3.2821,2.7663-.6399,4.1973-2.1243,3.6697-4.8895-.5829-3.0549.7856-4.1626,3.5328-4.6864,4.7239-.9008,9.3735-2.2219,14.1154-2.9877,3.5586-.5747,5.3134-2.3198,6.5572-5.7267,8.5968-23.5474,17.8481-46.8302,28.7184-69.4483,1.4464-3.0097,2.9687-4.0875,6.385-3.7386,8.4169.8596,16.148,3.5627,23.6345,7.3307,2.5907,1.304,2.9178,2.7394,2.2651,5.5149-4.6324,19.699-11.006,38.954-14.9096,58.8367-2.6043,13.2649-2.6786,13.3056,9.884,17.4273,7.1189,2.3357,13.89,5.4465,20.5923,8.7414,2.5542,1.2557,5.0458,2.8343,7.44-.4354,2.1775-2.9736,1.1625-5.3973-1.1761-7.4111-2.4628-2.1208-2.0948-3.862-.3267-6.266,14.8505-20.1917,31.7965-38.3739,51.1477-54.3384,2.8002-2.3101,5.0209-2.5028,7.9876-.7076,6.4262,3.8886,12.3603,8.389,17.9132,13.436,2.46,2.2358,3.0964,4.0677-.1841,6.1615-2.2048,1.4073-4.1481,3.2246-6.2083,4.8585-17.0824,11.7639-32.08,25.5837-43.1452,43.3562-3.0754,4.9396-4.9451,9.7659-1.188,15.1788.4503.6488.0894,1.6354.3588,2.4314.423,3.0536,2.8148,4.8123,4.6332,6.9151,11.5554,13.3631,22.1405,27.3424,28.4117,44.1058-.6674,1.0675-1.7624,1.489-2.8761,1.8362-7.4628,2.3266-14.8616,4.859-22.3436,7.1178-14.9913,4.5259-28.8186,2.7013-41.3321-7.3703-7.1419-5.7482-15.0223-10.311-23.7076-13.5765-14.5428-5.4678-29.2532-5.4078-44.1746-2.3216-24.4445,5.0558-42.5944,18.9677-55.0748,40.2075-8.2506,14.0413-13.1447,29.3421-14.7863,45.6694-1.0861,10.802-.6752,21.5151-.1411,32.3321.6662,13.494-.7501,26.9011-6.9916,39.3209-2.2585,4.4943-4.3242,5.4202-7.4968,2.3722-14.6494-14.0738-30.689-26.469-46.362-39.335-16.93-13.898-25.4144-32.8875-29.4761-54.0593-1.2973-6.7624-1.5416-13.4913.3443-20.1918Z"/>
      <path class="cls-17" d="M29.1438,447.515c2.5749-21.0319,9.0558-40.8594,18.5042-59.7581,17.7268-35.4574,48.8473-65.3402,78.1982-91.3615,7.7421-6.8638,16.8343-10.9003,27.331-9.0541,12.7401,2.2407,22.6763,12.615,24.5086,25.5244.846,5.9601,3.3317,8.8941,9.2509,10.2611,12.9926,3.0005,24.5042,9.0185,33.7168,18.9267.7771.8358,1.3935,1.8209,2.0846,2.7367.581,17.7813-6.6234,31.8469-20.4829,42.6774-3.5549,2.7781-7.7269,2.6086-11.9493,2.0792-4.6332-.5811-6.4468.5714-7.6402,5.0259-.8159,3.0453-1.3598,6.181-1.459,9.3503-.6468,20.6608-10.7574,36.7118-25.1495,50.3927-8.0968,7.6967-17.2709,14.0224-27.9452,17.9598-6.1583,2.2716-12.4809,3.2688-18.9344,4.1026-6.7013.8659-7.3424,1.7138-8.4064,8.3754-1.3722,8.5912-3.3843,16.8014-8.2305,24.3448-12.2325,19.0405-37.8127,14.5744-47.2254-.9663-6.3092-10.4166-9.9468-21.7494-12.2988-33.5464-1.7828-8.942-3.9546-17.8518-3.8726-27.0702Z"/>
      <path class="cls-18" d="M376.8452,241.5053c21.924,5.4884,43.1789.612,64.3963-4.2812,40.5153-9.3438,80.2774-21.5738,120.6108-31.6203,12.3662-3.0802,24.7297-6.1709,37.0874-9.2845,1.2946-.3262,2.5431-.6862,4.0977-.0586-4.8376,16.0565-3.1588,31.8332,1.5163,47.4967-9.3543,3.6197-19.3026,4.8148-28.9781,7.1283-27.973,6.6884-55.9103,13.4354-82.012,26.1043-12.131,5.888-24.1096,11.8909-35.0043,19.9566-20.5636,15.224-36.2658,34.386-48.0546,57.0427-6.9404,13.3386-12.6953,27.0545-16.7787,41.5114-.5134,1.8175-.127,4.5121-3.0523,4.9814-30.0536-19.0251-63.0252-27.1381-99.0177-25.9821,3.6639-8.0766,8.637-14.6828,13.1824-21.5343,7.1492-10.7762,14.8456-21.2097,20.536-32.8929,1.9001-3.9012,3.1442-8.0102,3.5218-12.3557,2.3716-6.8051,3.0959-13.8893,3.2861-21.0161.1902-7.1279.1261-14.2658.025-21.3967-.1067-7.5227,3.0376-12.8806,9.5803-16.708,10.9345-6.3967,22.2669-10.1766,35.0577-7.0909Z"/>
      <path class="cls-17" d="M556.4161,393.6291c-.6226-.2072-1.2595-.3797-1.8649-.6287-1.3798-.5675-2.9651-1.432-3.9194.2975-.7741,1.403.607,2.4171,1.5275,3.3317,6.4914,6.4508,11.5778,13.9893,16.676,21.5161,7.0457,10.402,10.4589,21.6314,7.5633,34.2242-.6325,2.7508-1.761,5.2932-4.0165,7.1686-3.2028,1.3611-6.3279,2.8105-9.7822,3.6295-7.5996,1.8016-13.3523-.8132-18.0278-6.634-.9378-1.1674-1.8561-2.354-2.7223-3.5743-1.7363-2.446-3.1133-2.8806-5.2884-.114-7.7052,9.8003-20.0867,9.4193-27.2628-.8485-4.4494-6.3663-6.9298-13.642-8.0559-21.2903-.805-5.4672-2.0666-10.7733-3.9623-15.9498-.8809-2.4052-2.2106-4.4739-4.2771-6.0118-3.6155-2.6907-6.4759-2.0954-8.4792,1.9033-1.118,2.2317-2.2954,4.4287-3.4364,6.646-7.9203,15.3918-23.6715,14.997-35.0418,8.125-12.6495-7.645-14.6706-19.5735-12.2832-32.6655,2.7429-15.0407,9.6231-28.1987,19.8442-39.6648,8.9665-10.0588,20.0313-16.9635,32.3282-21.9413,8.2801-3.3518,16.9217-4.488,25.9111-2.7075,22.1061,4.3784,43.5233,21.4192,45.9986,48.0476.4005,4.3081,1.1313,8.5881.7932,12.9174-.1258,1.6122.5011,3.8741-2.2216,4.2236Z"/>
      <path class="cls-14" d="M191.8179,234.7907c-1.4983,22.2934,5.3865,42.1539,17.7475,60.34,5.7454,8.453,13.7128,14.6673,21.868,20.6386,12.8583,9.415,24.5698,20.1668,36.0879,31.1377,3.5048,3.3383,4.0644,3.0722,6.1158-1.1941,5.8306-12.126,7.398-25.0804,6.8674-38.2036-.2875-7.1117-.9056-14.2273-.7632-21.3525.4993-24.9793,7.2481-48.0879,22.4623-68.0608,15.1338-19.8676,35.5945-30.0712,60.6004-32.5636,14.0855-1.4039,26.9596,1.1219,39.6263,6.3889,8.0086,3.3301,14.8878,8.6759,21.734,13.8197,12.3033,9.2439,25.3601,7.8976,38.8101,4.0043,7.7737-2.2502,15.2624-5.4564,23.2615-6.9571,4.9568,8.9097,4.9927,9.0528-4.6624,11.4747-22.6995,5.694-45.3449,11.6508-68.5399,15.1104-5.3509.7981-9.3838.8062-13.2981-4.9178-7.6795-11.2302-19.7961-15.6672-33.1137-16.729-33.1237-2.6411-54.8942,17.5227-65.9856,43.1913-11.4049,26.3944-9.4307,52.8397-1.5266,79.4278,1.1665,3.924.9863,6.6729-1.5841,9.922-7.2357,9.1459-13.2043,19.1663-18.7437,29.4055-2.22,4.1034-4.7984,6.5437-9.777,7.1285-8.449.9924-16.1166,4.8206-24.0753,8.6555.3881-4.1254.7443-7.7321,1.0642-11.342,1.8309-20.6556-8.2929-35.6922-23.083-48.3365-7.8417-6.704-17.3285-10.5153-27.1853-13.0691-4.1838-1.084-6.1184-3.091-6.7804-7.1558-.6176-3.7921-1.9384-7.5533-4.3166-10.5139-3.5165-4.3777-4.3858-9.1356-3.6873-14.4422,2.0586-15.6412,4.7234-31.138,10.8766-45.8067Z"/>
      <path class="cls-26" d="M147.922,75.1246c16.4791,2.2498,32.6521.9365,48.4993-4.1675,1.7605,1.4441.8174,3.41.8246,5.0904.0973,22.7005-.4844,45.4004-1.1537,68.0806-.3486,11.8143-.3829,23.746-2.4126,35.4879-.2935,17.0182-8.9288,31.6608-13.5712,47.4377-4.4025,14.9615-8.1014,30.0616-10.5269,45.469-7.3708-7.1229-16.5118-5.3096-25.3298-4.9324-2.4794.106-4.936.7751-7.4299.8894-4.1242.189-5.2864-.9533-4.2863-4.9998,1.5953-6.4552,3.2134-12.9033,4.7878-19.3642,4.2784-17.5578,5.4374-35.4846,7.0512-53.3681,1.4043-15.5619,2.8277-31.1297,3.6333-46.7307.6602-12.7846.8333-25.6034-.2272-38.3982-.7003-8.4487-.342-16.9535-1.3446-25.393-.2134-1.7962.0158-3.6866,1.486-5.1011Z"/>
      <path class="cls-1" d="M29.1438,447.515c2.8272,8.1533,2.9345,16.8214,4.7615,25.1819,2.7774,12.7095,6.0662,25.2168,13.4069,36.0888,6.2427,9.2458,15.8678,12.7256,26.511,11.4109,11.3864-1.4064,17.6124-9.7976,21.8933-19.652,2.5267-5.8165,3.4007-12.1393,4.0173-18.3538.4428-4.4635,2.6565-6.2016,6.4896-6.7056,8.5364-1.1225,17.099-2.0748,24.9684-5.9656,25.1272-12.4232,42.6431-31.1378,48.3851-59.2914.9134-4.4783.4266-9.222,1.1765-13.8348,1.1536-7.0954,3.5667-9.1652,10.4222-7.9503,5.7911,1.0263,10.3609-1.1702,14.3625-5.1075,9.7264-9.5702,15.152-21.1502,16.2081-34.75.1055-1.3585.2692-2.6321.9915-3.7962,24.5883,26.5986,6.274,61.2458-17.3396,66.9844-3.8877.9448-7.7738,1.8311-11.7873,1.7713-3.2451-.0483-4.7922,1.6206-4.2855,4.6122,2.0914,12.3483-3.9265,22.0638-10.5835,31.2224-16.2889,22.4101-37.0862,38.8534-64.2398,46.3262-3.1879.8774-6.1762,1.6681-5.217,6.1715.9948,4.6704,4.1161,5.1109,7.9261,4.3915,2.5777-.4867,5.1267-1.1256,8.5792-1.8948-5.375,8.8349-11.6004,15.8506-18.9879,21.753-17.1804,13.7267-31.0834,29.9396-39.4905,50.5032-2.4974,6.1086-4.2452,12.4376-5.8213,19.5822-10.449-12.1696-18.4092-25.0835-23.2704-39.7199-11.0509-33.2725-15.3504-67.2754-10.2589-102.194.3313-2.2721-.2583-4.705,1.1826-6.7837Z"/>
      <path class="cls-10" d="M556.4161,393.6291c2.5333-7.0481.4415-14.0213-.5434-20.9469-3.5031-24.6324-26.7434-40.6381-46.575-43.2545-13.979-1.8443-25.6833,3.1798-36.9727,10.0126-20.2481,12.2548-32.8453,30.3402-37.1703,53.4134-3.0755,16.4069.0649,28.5918,20.0367,34.9694,8.9147,2.8467,17.4008-.3299,22.6679-7.9671,2.1688-3.1446,4.0071-6.4508,5.5122-9.9754,2.0797-4.8706,5.9718-5.8363,10.213-2.5645,2.2535,1.7384,4.0032,3.8753,4.924,6.721,1.8364,5.6751,2.9442,11.4839,4.1992,17.3011,2.0382,9.4466,4.1083,19.2924,13.2705,25.1849,6.7778,4.359,15.8044,2.1783,19.8091-4.8469,2.708-4.7504,3.3382-4.7806,6.6069-.1908,4.3063,6.0469,8.6513,12.2089,17.4102,10.8372,3.7015-.5797,7.5911-1.0763,10.7306-3.5381,1.1467-.8992,1.7168-.6873,1.8472.7541-6.1942,10.2366-16.0705,14.2236-27.2366,14.7571-27.7109,1.3241-46.231-12.7124-58.1928-36.5629-2.0232-4.034-3.1025-4.6009-6.5563-1.5332-10.9644,9.7385-20.3689,10.8362-33.3473,4.1381-8.8302-4.5572-16.2332-10.9039-22.5083-18.616-7.3329-9.0121-9.0474-19.1362-5.5661-29.9939,10.6768-33.2987,30.7207-59.6933,59.309-79.7207,2.1531-1.5083,4.4218-1.4972,6.6679-1.161,27.1669,4.0656,51.5825,13.9362,70.5588,34.5886,14.7707,16.0752,24.8759,45.8147,22.3419,65.1607-6.7973-6.4303-13.4254-12.6056-21.4362-16.9659Z"/>
      <path class="cls-22" d="M390.6737,400.482c4.0012-11.1778,6.6634-22.8173,11.8997-33.5734,8.2796-17.0074,17.3464-33.4365,29.8998-47.8322,19.2315-22.0539,43.5108-36.4082,70.0817-47.5707,16.2245-6.816,33.0685-11.501,49.9792-16.2532,16.2544-4.5679,32.9918-6.8597,49.1264-11.7441,1.0732-.3249,1.9461-.0331,2.8922.2485,2.4281,4.3005,4.2209,8.9674,8.0079,13.1395-9.8344,1.9854-19.2142,3.6691-28.4942,5.7893-36.7692,8.401-73.5454,17.1681-106.6767,35.9827-36.0204,20.4553-58.3883,51.9791-70.1402,91.3401-2.0185,6.7606-1.9178,13.7894-1.795,21.7458-5.2846-4.0302-10.0327-7.6513-14.7808-11.2724Z"/>
      <path class="cls-7" d="M55.2635,167.7315c-.142-9.0915,1.6537-17.7944,5.7659-25.8952,4.4528-8.7716,10.5137-11.7156,20.057-9.5718,14.213,3.1927,28.0018,7.9079,41.9105,12.1846,2.4949.7671,3.9477,1.9874,3.7051,4.9596-1.094,13.4045-2.0363,26.8213-3.0333,40.2337-11.5265-8.0377-24.9881-10.9196-38.2612-14.2341-5.7959-1.4474-11.5297-3.0987-17.264-4.7462-4.2475-1.2204-8.3914-2.8033-12.88-2.9305Z"/>
      <path class="cls-4" d="M147.922,75.1246c.7949,21.2033,2.7988,42.3882,1.8573,63.6198-.7172,16.1736-2.297,32.3032-3.622,48.4443-.9733,11.8566-2.2566,23.6781-3.3451,35.5191-.4666,5.0764-1.4143,10.1392-2.5444,15.1171-2.0101,8.8542-3.5456,17.8319-6.4624,26.4648-.8381,2.4805-.9607,3.4781,2.511,2.864,8.8021-1.5571,17.6611-2.2936,26.6488-.6159,3.8401.7168,5.8161,2.4306,6.6166,5.9849.0374.6625.0489,1.3277.1167,1.987.4416,4.2906-1.0842,4.7325-5.0192,3.3945-12.4923-4.2477-24.8-3.6221-36.6367,2.633-1.44.7609-3.0445,1.2104-5.3547,2.108,12.363-69.8241,19.0077-139.5079,16.6619-210.1341,2.9244.8916,5.7483,1.7525,8.5723,2.6134Z"/>
      <path class="cls-3" d="M575.5432,352.5496c-3.7902-5.6509-7.6752-11.2405-12.3003-16.2467-1.9097-2.067-1.8137-2.984.9879-3.986,21.5286-7.6997,43.3272-14.5793,65.0459-21.7045,3.9462-1.2946,6.9224-.1593,9.3747,2.5427,5.007,5.5169,8.5073,11.811,8.6595,19.5323-3.6716-.6249-7.0916.2628-10.6257,1.2803-20.0263,5.7652-40.1523,11.1946-59.6825,18.5529-.4766.1796-.9705.1383-1.4594.0289Z"/>
      <path class="cls-5" d="M376.8452,241.5053c-6.997.7935-14.1353-.477-21.0402,2.1148-6.3982,2.4015-12.5323,5.207-17.8757,9.4333-3.3333,2.6364-4.2392,6.6176-4.2603,10.7291-.0426,8.3027.2243,16.6151-.0985,24.9054-.2167,5.5651-.4941,11.2146-2.6377,16.5272-.4383,1.0861-.5961,2.282-2.0367,2.502.446-13.8321-7.2614-22.2933-18.824-27.9164-3.0239-1.4707-3.8792-3.1716-3.1327-6.1731,3.7991-15.2731,10.2672-29.1018,21.6559-40.2984,4.6041-4.5264,9.9097-5.8058,16.0018-3.5886,10.7523,3.9133,21.499,7.8422,32.248,11.7646Z"/>
      <path class="cls-3" d="M590.6681,402.4611c-.7251-4.7537-1.381-9.5194-2.2022-14.2563-.4549-2.6233.3717-3.6208,3.0927-3.4726,15.2556.8305,30.5168,1.558,45.775,2.3438,2.4856.128,4.9624.449,7.4485.5461,7.0805.2764,7.9309,1.0364,9.6159,8.0817,1.0336,4.3215,1.0004,8.5453-.4071,12.7574-8.77,1.6533-17.4711-.2449-26.1104-1.0163-10.6791-.9535-21.3218-2.5494-32.0168-3.5566-1.8139-.1708-3.636-.3246-5.1956-1.4271Z"/>
      <path class="cls-19" d="M254.8676,50.3331c5.7392,9.273,10.6804,18.9838,13.7767,29.4268,4.9761,16.7834,7.9417,34.0354,10.9004,51.2699.9417,5.4851.0973,6.3114-5.2303,4.5007-3.125-1.0621-6.2588-.4107-9.3707-.7296,1.3938-7.3671-.5922-14.5023-1.7384-21.636-3.2327-20.119-10.5555-38.9564-18.7025-57.5039-.7219-1.6435-1.4054-3.3039-2.2288-5.244,4.4519.9332,8.5291.6956,12.5936-.0838Z"/>
      <path class="cls-6" d="M55.2635,167.7315c1.8216-1.0516,3.5354-1.6568,5.803-.8272,12.722,4.6546,26.0072,7.3379,39.0355,10.9272,7.0116,1.9317,13.6641,4.8281,20.3304,7.7045,2.0137.8689,2.1781,2.7351,3.2365,4.1065q.5025,12.9731-11.5309,8.655c-15.9004-5.741-31.8735-11.2584-48.0715-16.1141-7.372-2.2099-8.7025-4.5042-8.8029-14.4519Z"/>
      <path class="cls-16" d="M612.2903,216.2201c-.0615-5.8374.1866-11.6609,2.2125-17.1723,2.0681-5.6261,4.3658-5.9966,8.2695-1.6855,10.8003,11.9276,13.9592,36.6049,6.4833,50.6465-2.9384,5.5191-3.8667,5.5794-7.7192.9412-7.9442-9.5643-9.101-20.9976-9.2461-32.7299Z"/>
      <path class="cls-9" d="M590.6681,402.4611c6.7709-.7744,13.3724.9446,20.0614,1.3827,8.5676.5611,16.9806,2.3959,25.5951,2.8779,5.8705.3285,11.8935.0649,17.6666,1.7385.2885,2.4066-.8904,4.4764-1.4828,6.6892-1.2045,4.4997-3.9806,5.7072-8.5114,5.2149-15.6292-1.6983-31.304-3.0143-47.0406-2.9972-4.6791.0051-7.2284-1.1762-6.4271-6.4808.4158-2.7526.1156-5.6133.1388-8.4252Z"/>
      <path class="cls-9" d="M575.5432,352.5496c2.0405-2.9492,5.5598-2.5626,8.4003-3.6861,12.6197-4.9916,25.6321-8.7445,38.7307-12.2405,6.2158-1.6591,12.3835-3.5193,18.507-5.493,2.5297-.8154,4.4979-.5935,6.1296,1.5571,2.1698,3.7012.2718,5.4243-3.0943,6.5852-13.6247,4.6992-27.2524,9.3912-40.8389,14.1994-6.5551,2.3198-13.076,4.7584-19.5016,7.4116-2.7518,1.1363-4.4485,1.4159-5.3986-2.0611-.5996-2.1942-1.931-4.1885-2.9342-6.2725Z"/>
      <path class="cls-20" d="M453.1912,151.7681c-5.8918-6.487-3.9877-12.6188.322-19.1379,8.4867-12.8377,18.52-24.1762,30.7003-33.5905,3.2704-2.5277,6.6091-4.9668,9.9083-7.4574.9139-.6899,1.735-1.6644,3.0441-.7813-5.9892,7.2363-13.2245,13.2946-19.0994,20.675-8.9017,11.1828-16.4404,23.2093-23.4873,35.5919-.8573,1.5064-1.1317,3.0736-1.388,4.7001Z"/>
      <path class="cls-21" d="M308.7007,118.7913c-.4776.4692-1.0431.3136-1.0982-.2149-1.061-10.1847-10.3662-16.3195-12.4774-26.269-2.0073-9.4593-5.7626-18.5766-7.74-28.109-.9178-4.4244-2.2129-8.7762-.9171-13.5972,1.1574-4.3063-2.3372-8.0765-3.2574-12.246-.3984-1.8051-2.2957-.1769-3.4843-.385.7983-1.2771,1.7736-2.3447,3.7112-2.9718,3.8432,11.412,7.6405,22.7928,11.5088,34.1495,5.5463,16.283,10.7057,32.6699,13.7545,49.6434Z"/>
      <path class="cls-25" d="M145.1253,60.3254c15.8894-5.8553,30.8642-5.4145,46.6588-1.3755-12.3318,6.4494-37.3846,7.3905-46.6588,1.3755Z"/>
      <path class="cls-13" d="M270.265,28.6987c-6.6418,3.9838-13.3067,7.8163-21.1754,8.7549,6.0455-5.3045,13.4324-7.4959,21.1754-8.7549Z"/>
      <path class="cls-11" d="M276.0478,414.4575c4.6548-.226,8.8975.5872,10.4963,5.5838.9319,2.9125-3.4587,6.193-9.2523,7.384-5.9799,1.2292-11.9475,2.52-17.9375,3.6969-3.8024.7471-7.543.9756-10.8686-1.7144-3.4439-2.7857-3.3262-5.1546.189-7.9009,8.1405-6.3596,17.9467-5.9307,27.3732-7.0495Z"/>
      <path class="cls-15" d="M223.8347,210.6951c.6018-6.5569,3.2248-12.4935,6.5978-18.007,5.2827-8.6351,11.261-16.7705,19.6845-22.7346.2704-.1914.4951-.4489.7702-.6317,4.8051-3.1938,8.0792-3.1052,11.0828.1419,3.7533,4.0577,1.0936,7.5486-1.234,10.6532-3.4691,4.6271-7.2487,9.0618-11.2529,13.2361-4.069,4.2417-7.2409,9.0238-10.1534,14.062-1.6649,2.88-3.8922,5.3412-6.2912,7.6695-2.0997,2.0378-4.5067,2.1904-6.8821,1.1696-2.2844-.9817-2.6851-3.2034-2.3216-5.5589Z"/>
      <path class="cls-27" d="M422.178,276.6115c.1146-3.9552,2.0296-6.9207,5.0048-8.9039,6.1405-4.0933,12.0517-8.5519,19.1871-11.0635,3.3507-1.1794,6.1199-.4389,8.2576,1.4695,2.2632,2.0205.2771,4.5629-.7083,6.8043-.9039,2.056-2.3566,3.8397-4.1662,4.8349-7.2315,3.9771-14.3362,8.2629-22.3867,10.5395-3.5091.9924-4.8717-.6178-5.1883-3.6809Z"/>
    </g>
  </g>
</svg>