<?xml version="1.0" encoding="UTF-8"?>
<svg id="Capa_2" data-name="Capa 2" xmlns="http://www.w3.org/2000/svg" viewBox="0 0 787.1242 1462.6498">
  <defs>
    <style>
      .cls-1 {
        fill: #f7a98d;
      }

      .cls-2 {
        fill: #020202;
      }

      .cls-3 {
        fill: #2e2421;
      }

      .cls-4 {
        fill: #000304;
      }

      .cls-5 {
        fill: #fec3a2;
      }

      .cls-6 {
        fill: #4d3b3a;
      }

      .cls-7 {
        fill: #cb693b;
      }
    </style>
  </defs>
  <g id="Capa_1-2" data-name="Capa 1">
    <g>
      <path class="cls-4" d="M461.5044,248.9859c27.5459,28.4531,91.4613,23.0399,122.9099,56.4393,24.1553,25.6537,22.8742,51.6278,24.9604,83.9648,1.295,20.0735,9.6774,40.4253,13.6847,60.2656,3.425,16.9575,4.2568,33.6602,6.3021,50.6611,1.4829,12.3267,9.0581,19.8952,14.1472,30.8206,16.2907,34.9733,18.243,72.4057,27.8828,109.0243,4.6053,17.4942,10.7437,36.6518,17.2193,53.7316,1.7933,4.73,10.5979,26.5656,13.6788,28.291,3.4526,1.9335,12.9126,1.0369,17.1907,1.7919,11.1552,1.9688,23.6804,11.4539,35.5566,14.401,6.2472,1.5503,22.4095,1.9039,26.1537,3.8581.7775.4058,4.294,4.921,4.7438,6.2125,3.0781,8.8391.0152,16.6526-7.2312,22.219-1.678,1.289-8.2647,4.9979-9.9896,4.9979h-22.4787c1.5243,5.223,3.9475,10.2146,6.4752,15.0096,6.6799,12.6721,27.0859,40.2287,26.5222,53.3963-.5029,11.7486-10.2273,16.5447-21.0137,14.5387,1.1741,12.6651-4.7545,21.8938-18.3917,19.9036-2.3241-.3392-5.7064-2.663-6.6447-2.48-3.935.7671-7.0959,8.4444-16.4256,7.6125-6.694-.5969-11.3451-7.2692-15.2025-7.8885-2.6364-.4233-5.0146,2.3236-7.8296,2.7833-12.7994,2.0898-18.0562-5.5794-22.8835-15.9631-7.8299-16.8424-29.0214-68.9346-30.49-85.429-.5649-6.3446.7735-13.7649-.0729-19.9149-2.4947-18.1266-13.1752-33.4964-20.4258-49.5247-3.8391-8.4867-6.1819-18.3523-10.313-26.661-14.4576-29.0781-33.2349-56.7131-46.3046-86.5987-14.0223-32.0639-17.2272-68.8076-31.701-101.2072.4407-1.6015-1.498-1.9456-2.0791-1.3996-.7185.6752-2.7187,16.8487-3.0021,19.4937-3.0325,28.2961-3.0063,61.4038-2.0489,89.9767,1.9471,58.1112,18.2361,114.7695,19.0644,172.8122.8061,56.4858-4.9602,113.5747-12.7388,169.2284-5.0299,35.9876-2.9144,85.2465,1.8243,121.5191,2.058,15.7527,7.1147,31.306,8.8633,47.0996,4.1758,37.7144-5.4654,79.2731-9.9666,116.9289-2.3743,19.8624-3.4351,40.0118-6.1312,59.8265-1.5776,11.5945-3.0378,19.9757-2.9042,32.0532.2042,18.463,21.8035,43.9226,34.988,56.0287,12.8749,11.8219,38.4749,25.2712,35.8866,45.874-.9856,7.8455-5.1613,8.1281-9.4476,12.5328-13.9142,14.2988-19.54,14.3525-37.4134,20.5387-9.2368,3.197-11.1905,9.0712-24.052,6.0633-7.3199-1.7119-10.1727-7.3803-14.9839-10.9996-5.2693-3.9639-12.046-6.5123-17.1113-10.5797-7.626-6.1238-10.6263-16.782-17.2541-24.0258-12.8546-14.0493-29.9977-12.7654-29.567-38.4501.1993-11.8826,2.6664-24.9057,3.0172-37.983.9073-33.8193,2.54-67.7146.1483-101.5111-1.1276-15.9343-2.8076-31.823-7.3348-47.1729-4.3844-14.8657-9.6646-29.579-10.7449-45.1669-1.6725-24.1339,3.5848-48.3954,2.0287-71.9868-1.446-21.9216-10.2629-45.4667-10.9262-68.0294-1.5764-53.6197-1.7774-109.8166-13.5772-162.3035-3.5323-15.712-8.1098-31.3573-12.003-46.9671-1.9014,11.1036-4.1334,22.2385-6.7827,33.2008-5.212,21.5663-14.1163,45.5247-16.6879,67.2553-4.4298,37.4322-1.804,76.5182-6.0136,113.9113-2.7229,24.1872-13.4915,55.1392-11.9605,77.9485.7481,11.1449,3.8518,23.4052,4.0194,34.9517.4982,34.3203-11.5365,66.9212-20.1096,99.6752-10.8647,41.5089-13.3551,86.5235-10.9421,129.27.7508,13.2791,6.4058,25.5334,1.5158,38.4104-4.0458,10.6537-20.0965,17.1565-27.9611,25.9966-7.4607,8.3861-10.3907,18.9909-20.5546,25.4104-2.6314,1.662-7.8068,3.0001-10.1778,4.5974-2.8884,1.9459-6.6459,7.5758-10.2229,9.9737-5.9567,3.9932-13.5612,6.2483-20.7445,4.7741-3.9552-.8117-6.7874-5.0323-10.7033-6.2832-3.7846-1.2089-9.1799-.7306-12.7513-2.2352-8.7011-3.6658-23.3222-14.0778-29.6183-21.3407-19.8704-22.9218,18.3217-43.8904,32.3767-57.3445,8.7122-8.3398,17.3368-17.1189,23.438-27.6153,7.0907-12.1987,7.8751-23.7197,8.4083-37.6302.6701-17.4802.305-34.9783.7819-52.4625.4547-16.669,2.9848-32.8802,1.2729-49.4826-2.6063-25.2768-9.9946-50.1222-8.9798-75.7166,1.0256-25.8668,8.5129-49.9339,11.0218-74.922,3.5039-34.8975,5.0097-75.1219,3.0167-109.9347-1.1509-20.103-4.6976-39.8656-6.0461-59.9116-2.6904-39.9931-1.2079-85.7066,0-126.0056,2.6737-89.2086,23.09-178.2597,9.8866-267.6501-.6801-1.2806-1.2711-2.245-2.3685-.662-1.2314,1.7763-7.286,18.9383-8.501,22.4781-8.2089,23.9158-10.8735,47.4116-20.4692,71.4679-10.6023,26.58-27.9708,49.5352-38.6274,74.2907-7.9018,18.3562-12.285,40.0581-20.7881,59.1561-4.8419,10.8749-19.9854,33.1046-20.9829,42.971-.5799,5.736.4435,12.144-.0274,17.9616-1.3675,16.8926-23.2415,69.4535-31.4756,86.4418-4.4498,9.1806-10.1936,17.6817-21.9055,15.953-2.0299-.2996-3.5511-1.6937-6.017-1.972-8.0043-.9033-6.4645,2.0878-11.1685,4.8794-4.3427,2.5773-11.9986,3.1386-16.6038.918-2.6529-1.2791-4.9713-5.7881-5.3633-5.8487-4.1578-.6418-9.9515,7.563-19.3636.6015-8.069-5.9681-5.5915-9.3766-6.9684-17.0145-.7569-4.1985-7.4494-1.9683-11.2641-2.7236-4.72-.9346-7.9871-5.7472-8.6316-10.3455-2.9326-20.9221,27.5915-50.5889,31.8751-71.3685-5.6077-.6649-10.8754,1.414-16.4717.9837-12.3906-.9528-25.9207-10.4927-24.2942-24.2014,1.8229-15.3632,18.2106-10.9102,29.0484-12.9971,11.9904-2.3089,21.9172-10.3948,33.4881-13.4719,9.7045-2.5808,20.9032.7632,26.065-8.9049,10.5859-19.8279,19.8281-52.1056,25.8279-74.1025,9.5984-35.19,13.8864-79.0207,28.3635-111.5416,4.2205-9.4808,12.8374-21.0032,15.4085-30.5583,3.8184-14.1907,3.912-35.482,6.7664-51.1959,3.4937-19.2332,10.8501-38.4842,13.5429-57.4093,4.1825-29.3948-.7581-50.7761,15.6929-78.2445,22.8497-38.1523,67.8834-39.4592,105.5055-55.3608,5.6208-2.3757,26.4329-11.8163,28.5193-16.4436,1.5986-3.5455,3.0053-20.8667,3.2554-25.7258.456-8.8608-.1282-17.8948-.2005-26.763-39.0918-42.3602-60.4994-113.7252-18.2841-161.6242C342.706-.4493,417.3397-6.9601,457.4673,6.6746c13.9963,4.7557,30.0695,15.1658,28.0346,31.968-.5151,4.2531-5.1953,9.3307-4.874,11.7163.2829,2.1001,6.8145,12.202,8.3334,15.7557,3.3175,7.7621,9.7392,26.5102,9.5896,34.4523-.1241,6.593-5.1397,12.2303-2.8264,18.7346,7.051,9.9496,31.3858,34.6178,18.2543,46.7592-3.7525,3.4696-11.1603,4.0656-13.9454,6.0377-2.3417,1.6581-3.2499,16.3315-4.2444,20.7389-1.0717,4.7495-4.9348,11.8239-5.2895,14.7676-.869,7.2112,5.6507,14.2815-.1905,23.7237-6.1322,9.9126-16.0749,9.2171-25.8073,10.6617-4.7583,2.2212-5.4734,2.7429-2.9972,6.9957Z"/>
      <path class="cls-5" d="M773.4952,758.3765c-4.7896,12.02-36.3296-.1396-42.8198,5.2202-3.6899,3.0498-.04,10.1699,1.3999,13.7397,8.29,20.52,26.4902,41.7402,33.3301,60.6001,1.1201,3.0898,3.21,10.3701-2.6401,9.73-8.8701-.96-26.9097-38.3799-33.0298-46-5.1201-2.7197-9.7202.0103-8.27,6.2603,1.3101,5.71,13.5298,23.1797,16.9502,31.0298,1.9697,4.5098,9.46,23.1299,7.3296,26.6602-3.1997,5.3101-9.8296-2.1001-11.9399-5.0703-8.9697-12.6499-14.4199-33.6997-22.3398-47.5996-4.0601-7.1304-11.3999-4.96-10,2.9399,4.5298,14.2998,15.0098,30.0698,18.8398,44.1797,3.46,12.7603-3.6396,12.9702-9.8701,3.8804-9.7197-14.1802-13.4399-35.2603-21.7397-50.2305-6.1699-2.8696-8,1.5703-7.3398,7.3203,1.2896,11.1899,13.5298,27.79,13.0298,40.0898-.3198,7.6104-7.8901,8.21-10.6001,1.4902-6.7798-25.6104-22.0498-50.8101-28.96-75.96-4.6001-16.7603-1.4399-33.5503-7.7197-51.2402-4.6401-13.0601-13.02-20.5698-18.6401-31.3301-8.3999-16.0698-15.4102-38.9097-22.9199-56.02-13.9199-31.6899-31.2603-55.4497-40.1401-90.27-1.0898-11.71-.48-23.3896,1.8198-35.02-16.3398-37.5601-24.1597-78.1597-26.7998-118.8896,1.3101-4.8901,2.6802-20.5703,1.9399-25.4102-.5098-3.3301-3.3999-6.48-6.98-4.1099-1.6899,1.1299-3.5098,16.0801-4.4399,19.54-4.4897,16.77-12.8301,32.8799-26.48,43.96-13.8301,5.96-28.5098,9.3301-44.0601,10.1396-1.71,1.6704,1.1099,4.25,2.7603,5.04,9.1699,4.3901,40.7598-4.2798,50.4297-8.6099,2.6299-1.1699,3.8398-1.98,4.8604-4.5698,1.3896-.73,2.1499-2.3403,3.9897-1.9902-.1499,3.8203.21,7.7002.04,11.5303-1.3301,30.7397-10.2798,63.0898-12.02,93.9097-1.3101,23.1602.1401,52.4204.9502,75.98.6699,19.4404,3.5698,38.6699,6.7798,57.8203,3.71,22.21,7.1899,44.4697,9.4302,66.8799,2.21,22.02,1.71,44.0098,1.8599,66.1099.29,47.75-6.6602,85.0503-11.9102,131.0801-3.7998,33.2798-.9897,70.21.8301,103.8599,1.1602,21.4199,7.29,40.4902,9.8901,61.0601,5,39.4199-3.4502,79.3501-8.5801,118.0503-2.9302,22.0996-9.0303,49.4497-9.8701,70.8599-.3398,8.5698-.2197,24.4102.6201,32.7998,1.6499,16.5503,22.0698,41.54,33.9502,52.9902,8.5498,8.2397,32.9297,23.3301,36.4697,32.4897.8999,2.3203,1.75,10.8003-1.98,9.9702-.8599-.1899-9.4897-10.9199-12.0298-12.96-2.0503-1.6499-5.1104-4.98-7.2202-2.77-4.0498,4.2397,5.7603,10.46,8.1602,13.8198,3.1196,4.3599,7.1299,13.6401-1.8999,11.9302-2.8701-.54-3.75-5.04-5.4805-7.5498-1.8896-2.7402-10.3696-14.8003-13.9795-13.0205-8.6802,4.2705,3.8096,10.8301,6.3999,14.6104,2.8999,4.2397,7.0898,16.8501-.9399,16.8501-4.8604-.0103-7.2803-10.4204-10.2603-14.6401-2.52-3.5801-13.0898-15.3101-17.5103-12.3398-6.0996,4.0796,9.9302,14.98,12.29,18.5596,7.6304,11.5801-7.5796,18.6904-18.3398,10.3501-2.3398-1.8101-3.0698-4.1196-5.1396-5.8501-3.4404-2.8599-8.1304-4.71-11.5205-7.4697-10.1997-8.3101-13.5898-21.9102-25.0298-30.9199-6.6997-5.2803-16.1299-6.8604-19.3701-15.6001-2.8999-7.8101-.0498-12.8901.4702-20.4702,1.8301-26.9097.7002-51.5498,1.04-77.8999.3599-27.2397,1.4297-53.73-4.9702-80.4302-6.6899-27.9297-14.6299-56.5698-13.0898-85.5498.7202-13.6899,4.6802-27.1401,4.0298-40.9297-1.4097-29.8101-11.9399-59.1401-12.98-91.4502-.5601-21.9302-1.7197-43.8203-3.1299-65.6401-.0601-.7998.3501-1.6401.8999-2.48-2.3101-9.6797-3.23-19.6201-2.77-29.8198-4.48-29.1802-16.1499-93.23-28.1099-118.29-1.6401-3.4302-6.2998-13.1499-9.6001-4.8799-1.8901,4.75-2.96,13.8398-4.5298,19.4497-9.8799,35.1001-20.5503,70.6899-25.6899,106.7202-3.0103,21.0698-1.4604,43.2397-2.6001,64.48-.75,13.8896-1.8203,27.75-3.2202,41.5898-1.2197,12.0801-4.1699,24.6899-4.1699,36.8398-2.02,8.5503-5.2397,17.04-6.6997,25.7803-4.4102,26.3901,3.2397,49.3901,1.7397,75.7002-1.7202,30.1597-13.6602,54.0098-19.77,82.1597-7.6899,35.4302-13.98,97.8701-11.2197,133.6499.75,9.8101,6.1099,23.1904,2.46,32.48-3.5103,8.9604-17.4502,12.1401-24.5103,19.4604-7.1299,7.3799-9.9702,18.2798-17.9199,25.0396-3.8501,3.27-8.77,4.2603-11.5298,6.4502-2.2402,1.7798-3.6104,5.4897-7.1304,7.8599-5.7798,3.9004-16.0898,7.0601-19.3901-1.27-4.8799-12.3501,15.9502-18.7998,14.6201-24.6299-2.3701-10.3398-16.9097,5.8501-19.3799,9.7402-2.5898,4.0898-4.5601,14.27-9.6602,14.2598-10.0195-.04-3.1299-12.5898.0903-16.8301,2.75-3.6299,11.6401-8.8301,7.4199-13.6001-3.9199-4.4399-11.9399,6.4502-14.4102,9.6001-2.5298,3.2402-6.6499,15.21-12.3301,9.6499-5.3799-5.2598,13.5903-18.79,12.3604-23.7397-.7402-2.9399-2.52-3.6401-5.1602-2.04-3.6899,2.23-12.8003,15.54-14.96,16.0298-8.4502-5.6997,1.7397-16.3896,7.04-20.9497,16.25-13.98,29.5098-21.6001,43.3901-39.54,17.0098-21.98,17.5298-27.3198,18.0698-54.9702.5801-29.5996,3.96-59.0996,2-88.9399-1.9902-30.29-11.52-60.9497-10.0801-91.9497,1.1299-24.29,9.75-48.5801,12.0298-72.9199,2.3403-25.0205,3.3203-54.9702,3.9102-79.9404,1.0703-45.75-10.2197-89.48-8.9399-135.96,1.0601-38.6797,2.5503-80.3198,5.04-118.8799,1.7998-27.6802,9.6802-55.54,11.0298-81.9199,1.6602-32.48,2.5-73.77-.0596-105.96-2.4805-31.3999-11.1401-62.1899-9.9805-93.9502.1401-1.1299,2.2202-.4199,3,0,1.0903.5898,7.6201,5.3999,8.9902,6.4902,11.8799,7.8301,26.0698,10.54,40.7002,10.1201,12.1597-.3604,10.6797-6.9004-.27-7.29-13.7803-.1201-25.6001-4.6304-37.4302-10.8203-1.4199-3.04-8.4697-9.1299-11.2197-13.27-5.3701-8.1099-9.5503-18.3901-12.25-27.71-1.0605-3.6499-3.4302-18.4697-4.9702-20.0098-1.25-1.2603-3.3003-1.3501-4.8599-.8301-5.8901,1.9399-.5303,21.6597-.6699,26.8398l1.5698,8.6802c-2.8403,40.2798-13.4302,79.1201-29.23,115.2798,1.79,12.6099,3.46,26.5103.1299,39.3003l.5601,2.6396c-10.0903,32.71-26.1001,53.5801-39.1401,83.27-7.4897,17.0703-10.25,35.96-18.23,52.7603-4.9199,10.3599-10.7202,21.3599-15.8501,32.0801-4.4297,9.2598-12.5098,18.5801-12.77,29.2598-.1001,4.3901,1.25,8.2002,1.0503,12.98-.6104,14.98-24.75,73.8501-32.4702,89.4399-3.6899,7.4399-8.3901,8.8901-10.5-.4497l13.9902-41.1201c1.0498-5.4399-4.7402-8.4502-8.9902-5.8901-1.4497.8701-9.6802,27.0801-11.48,31.48-2.1699,5.3101-9.8101,23.4902-15.1699,24.8901-1.8701.4902-4.7002-1.9302-5.1499-3.6201-1.54-5.8101,17.8696-43.4399,19.3999-52.21,1.2402-4.77-5.73-6.9297-8.4502-3.4199l-24.6396,52.2998c-5.23,6.3301-12.9702,6.0503-10.98-3.9897,3.3296-16.77,15.4399-35.54,23.3296-50.6299,1.3003-4.4902-1.1797-8.6201-6.0996-7.1201-3.1299.96-22.3203,36.1299-28.1401,41.8501-11,10.8198-10.4199-.4199-6.4102-9.4102,8.7803-19.6802,24.23-37.6001,32.3403-58.6001,2.75-7.1499,4.5195-13.5801-6.0801-13.8799-5.6802-.1602-41.3398,7.8901-36.2603-7.4502.9399-2.8296,10.1001-1.3696,13.2603-1.7598,17.1602-2.1499,26.0498-12.9302,40.5698-16.3799,7.3599-1.75,20.3101-.7402,25.7603-3.2202,2.7598-1.2598,9.75-17.71,11.3896-21.5801,21.6802-51.1299,27.0103-103.6099,42.52-155.3501,5.5503-18.52,12.0801-28.1899,20.4102-44.5396,6.5898-12.9204,6.2798-41.5103,9.1401-57.8101,4.3496-24.7402,14.0996-48.1001,15.71-73.23.9297-14.3301-.4199-23.8901,3.4697-38.52,14.8301-55.8604,62.8604-52.5703,107.3604-71.4902,9.6899-4.1201,31.1396-12.8701,35.1997-22.7397,3.2603-7.9404,3.3101-31.3203,3.8301-41.1504.3999-7.3696-.9702-30.0999,2.4502-35.5298.8198-1.3101,1.2896-1.0601,2.5098-.51,6.2603,2.8298,9.6602,8.3999,18.3701,7.46,5.77-.6301,17.5098-8.21,12.6802-14.51-3.1704-4.1399-6.9702,3.02-11.0503,4.1101-18.9302,5.0798-40.4097-37.2102-22.4897-50.5,7.0698-5.24,18.4297-3.76,24.46,2.5,3.4199,3.5598,6.96,15.8499,9.2197,16.8201,5.75,2.48,21.1504-2.8101,22.54-9.04.8799-3.9102-.0298-8.8201.6602-13.3301,1.1699-7.6201,5.8799-13.97,7.8301-21.1602,3.3398-12.2898,1.3096-23.5498-.8501-35.7898,1.3901-1.9602,22.98-.7,27.0801-.9202,3.5601-.2,8.3799-.6599,11.9399-1.0498,3.9897-.4502,19.54-4.21,21.52-3.6001,5.5,1.7,13.0698,23.7,14.4697,29.5801,1.1001,4.6499,2.6802,11.8599,2.5601,16.5098-.1602,6.3801-4.6899,10.6401-2.8301,17.7402,1.3203,5.0098,16.04,21.6399,19.7603,28.2,6.0698,10.73.9302,11.3298-9.5298,12.5-5.1504.5701-13.1201-2.0901-15.0703,4.98-1.6401,5.97,6.98,3.76,7.6602,9.48,1.48,12.5-8.1504,31.5798-3.98,45.01.6899,6.4399-4.1201,9.3701-9.8301,10.2402-22.4502,3.4297-67.4502-10.4004-82.1401-28.25-1.75-2.1201-9.0698-16.8303-11.02-6.9702-1.5601,7.8501,3.1499,15.02,10.0503,21.02,8.8198,7.6797,21.23,13.4297,28.6499,16.2197,5.3301,2.0103,18.1597,4.6104,21.7798,7.21,6.3701,4.5703,6.77,15.0503,16.3604,22.5205.7397.5796,1.54,1.1396,2.3999,1.6797,51.9897,32.6099,123.8296,16.5103,136.27,93.54,2.2598,13.96.5,27.46,2.4497,41.5303,3.3403,24.0596,13.3501,47.8599,16.7002,73.2397,1.46,11.0801.8301,26.2002,3.5801,36.3901,2.3501,8.7197,10.6797,19.3599,14.6997,28.27,13.5703,30.0796,17.0903,64.8501,25.0903,96.8296,6.6001,26.3701,18.5698,72.4302,33.4897,94.4204,5.8203,8.5898,13.0703,5.2998,21.5703,6.4097,15.9097,2.0801,34,17.8804,45.0596,17.8804h15.4805c.2896,0,.8198,4.3799.2896,5.6997Z"/>
      <path class="cls-7" d="M390.3149,127.8023c-1.0165,1.0685-4.7274,2.4104-6.0788,1.3507-.4726-.3706-3.5618-7.9975-5.6266-10.6142-17.5477-22.2378-50.5783-11.9764-51.0111,17.069-.2191,14.7057,8.9139,22.0205,6.907,37.8064-.2425,1.9071-.5244,6.0795-2.8932,4.1313-3.1437-2.5856-11.7445-17.4489-14.1427-21.8314-21.0527-38.4728-25.1549-91.0908,11.1488-122.1086,27.3818-23.395,101.7711-29.4605,133.2619-13.3562,11.1446,5.6993,20.0923,18.3272,3.8913,24.6325-19.7364,7.6812-43.1288,2.6945-63.5588,3.5845-12.4279.5414-3.5481,18.181-2.7709,26.2474,1.8762,19.4744-4.586,24.3505-7.4229,40.3029-.6145,3.4558.209,10.7751-1.704,12.7859Z"/>
      <path class="cls-1" d="M220.7324,566.7921c-3.6928-1.5436-1.0287-5.566-.9523-8.4542.1868-7.0634.2925-15.0369-.0115-22.0629-.1599-3.6946-2.1159-6.9686-1.8276-10.6728.5167-6.6373,8.1525-19.9915,10.8017-27.2504,9.7624-26.7488,18.2046-69.0844,18.9642-97.4585,15.9802,32.9146,4.3539,70.0624-6.9759,102.455-3.3425,9.5563-8.3999,19.0201-11.2685,28.7034-3.4614,11.6843-5.0048,22.6514-8.7301,34.7405Z"/>
      <path class="cls-1" d="M565.406,557.7976c-1.3605-5.3368-1.99-9.3178-3.1185-14.3698-9.7532-43.6626-40.8664-84.691-25.3379-132.5223.7613-2.3449,2.8962-4.8217,3.4801-7.0141,2.487.7205,1.7408,2.7112,2.0102,4.4886,4.8313,31.8804,4.9966,54.3433,15.9539,85.9751,2.5589,7.3871,10.3936,22.5615,10.9243,29.0978.4466,5.5011-2.3296,12.1471-2.8973,17.8703-.5333,5.3765,1.1084,11.3984-1.0147,16.4743Z"/>
      <path class="cls-1" d="M504.4637,437.8707c.8468,1.4695-.3442,5.46,3.5294,6.0475,2.8708.4354,7.7386-2.6307,10.4573-4.0487,1.8152,2.3916.3657,3.5861-1.6449,4.8575-10.0592,6.361-40.0853,12.8801-51.7412,11.0694-4.8267-.7498-9.8923-6.5633-5.6228-9.4976,1.0924-.7507,21.8372-2.6812,26.2434-3.7275,2.9465-.6997,6.4454-1.7153,9.3333-2.657,1.9279-.6287,7.5105-5.4016,9.4455-2.0436Z"/>
      <path class="cls-1" d="M278.6775,443.867c5.1996-.1837,4.9567-3.8061,2.9972-7.9951,4.6868-2.164,10.1184,3.0948,14.712,4.7711,2.9891,1.0908,7.0848,2.1809,10.2135,2.7751,4.8342.918,21.5621.8282,22.8645,5.1497,1.7373,5.7646-3.9108,6.8315-8.3417,7.2779-11.4708,1.1557-32.4543-1.8924-41.4973-9.4688-.7951-.6662-.7749-2.3724-.9483-2.5099Z"/>
      <path class="cls-3" d="M348.6113,1037.5051l2.0082-33.4695c5.1966-36.3226,2.8427-73.4277,7.9823-109.4434,2.7477,11.19-.7831,23.2255-1.0407,34.4382-.5041,21.9415,3.0278,46.0077.0967,68.0545-.4734,3.5607-3.05,4.1484-3.8307,7.1613-2.6334,10.1638-2.7481,22.7991-5.2159,33.2589Z"/>
      <path class="cls-6" d="M431.5328,989.5343c-2.1628-7.3017-.5526-15.8207-1.0094-23.4754-.4803-8.0499-3.1105-18.019-3.0764-26.0468.0081-1.8944-.157-2.724,2.0779-2.4607v-.9703c-.6629.0775-1.8137.1678-2.0163-.6507-.2573-1.0398-1.1765-13.0507-.9952-13.7145.2228-.8154,1.3412-.7348,2.0123-.6548l.0002-.9702c-.6775.0783-1.7972.1836-2.0091-.6598-1.8888-7.5149.2072-17.1756-1.9946-24.8236l1.5156,1.4936.4995-5.0071c3.4678,22.5902,4.8314,41.7072,4.9545,64.4192.0604,11.1461-.3182,22.4025.0408,33.521Z"/>
      <path class="cls-1" d="M466.2933,288.2582c3.4233-.0242,14.7791-.298,16.0278,3.3672.4437,1.3023.4817,4.2993-.2822,5.3919-2.1996,3.1462-49.3247,3.6757-56.7486,6.187-6.998-.1052-13.9548,11.8497-19.7108,9.2256-7.1259-3.2487.9423-13.1169,5.0412-15.9051,7.6801-5.2243,45.0854-8.192,55.6727-8.2667Z"/>
      <path class="cls-1" d="M315.4418,288.2639c11.5111-.726,44.6244,2.3655,55.3749,5.9679,5.744,1.9248,21.1997,13.8599,11.7397,18.1984-4.7374,2.1727-10.8261-5.1829-15.5883-7.3528-13.4705-6.1377-37.579-4.2233-52.8147-6.1316-14.1395-1.771-13.0182-9.7797,1.2884-10.682Z"/>
      <path class="cls-1" d="M389.5725,479.3454c.7268-2.346,6.9143-2.7529,8.5067,1.4839,3.1317,8.3325,1.8267,41.6727,1.5315,52.5308-.0774,2.846-.9842,5.2504-1.0879,7.9063-.1836,4.7038,1.4206,26.0191-2.5775,27.4188-2.5213.8827-6.3728-.9252-6.3728-3.3922v-85.9476Z"/>
      <path class="cls-1" d="M390.5715,378.407c.6564-2.1289,5.2823-2.3293,6.8294.1656,4.2298,6.8206-2.1785,29.7246,4.9546,43.013,1.9942,3.715,13.2647,12.8036,7.1903,15.7956-6.6396,3.2704-13.2225-7.8024-15.3414-7.4345-1.1922.207-5.3213,5.9088-8.3707,6.6813-2.6409.669-5.5602.0916-8.2548.2472-1.1641-7.0398,5.2771-9.8263,8.5144-15.9765,1.6544-3.143,4.4782-10.1987,4.4782-13.5093,0-5.6727-1.1369-25.2953,0-28.9823Z"/>
      <path class="cls-1" d="M414.7996,541.5646c-3.0288-2.9921-.0013-6.5794,3.1744-7.8234,4.3256-1.6944,8.5795-.4782,12.9313-1.0565,6.951-.9236,14.0233-1.7322,19.6323-6.3452,3.1228-2.5683,11.355-18.2894,14.5611-6.5346,2.006,7.3548-7.7246,16.4281-13.8921,19.1965-6.2191,2.7916-32.3306,6.5902-36.407,2.5631Z"/>
      <path class="cls-1" d="M420.5438,731.6971c-2.5666,8.1972-14.5912,13.0727-22.6019,13.8631-10.232,1.0096-28.5072-1.6761-34.3943-11.3198-1.0744-1.7599-2.2908-4.1292.5179-4.5544,2.1798-.33,8.8555-.3432,10.9762.0512,5.1647.9605,8.312,5.7649,16.998,6.0075,11.2935.3155,17.1515-7.8729,28.5041-4.0476Z"/>
      <path class="cls-1" d="M350.1099,542.8067c-10.0653-1.0651-25.2386-8.2012-26.4961-19.4653-.3968-3.5545-.8293-7.6666,3.5253-7.6155,4.0276.0473,5.0791,6.1412,7.95,9.1267,8.923,9.2791,21.1926,6.6728,32.0273,7.9375,9.4039,1.0977,6.5712,10.0166,3.9736,10.0166-6.5312,0-14.7254.6618-20.9801,0Z"/>
      <path class="cls-1" d="M460.5054,694.7039c4.276-4.7368,11.7103-5.7368,17.6518-8.8159,7.7208-4.0012,16.0139-9.9253,20.5056-17.4643,1.7825-2.9917,6.1577-16.076,6.9234-16.5422,5.6979-3.4687,5.6383,9.5209,5.4174,12.8938-.9831,15.0103-10.3313,18.6699-22.7534,23.2139-8.695,3.1806-18.511,5.9093-27.7448,6.7146Z"/>
      <path class="cls-1" d="M331.6271,689.7072c-10.6701-.3492-24.09-4.1949-33.9485-8.5039-9.0118-3.939-13.9266-8.2386-15.5558-18.4191-.4516-2.8221-.9553-17.191,4.5783-13.5843.7986.5205,6.1333,12.8909,8.1468,15.8467,6.6139,9.7096,15.9638,14.7042,26.4318,19.5312,3.4571,1.5942,8.2547,1.9015,10.3475,5.1293Z"/>
      <path class="cls-2" d="M351.3162,127.2743c8.0245-1.8408,15.5408,3.7535,17.041,11.5141.433,2.2399.0004,4.5018.3397,6.6563.8425,5.3497,5.6116,13.6423-4.3818,11.3884-8.5736-1.9337-1.6777-14.8935-7.1377-18.8507-3.6875-2.6725-8.8915,2.4612-11.0716-1.9283-1.9466-3.9193,1.4776-7.9237,5.2104-8.78Z"/>
      <path class="cls-1" d="M95.566,768.8122c4.6808-.7481,3.4139,4.8875,2.5087,7.5863-2.1575,6.4321-15.2477,12.5321-21.6999,13.2643-4.0813.4632-16.3145,1.5289-14.3609-5.3018,1.1096-3.8797,16.48-5.5048,20.8393-7.207,4.1427-1.6176,10.5055-7.9891,12.7128-8.3418Z"/>
      <path class="cls-1" d="M690.903,763.745c3.7486-1.2345,7.4855,5.5009,11.3647,7.4311,4.7446,2.3608,21.6608,4.0984,22.8477,8.1794,1.8166,6.246-8.5216,5.6422-12.3426,5.2909-7.9833-.7341-25.2214-8.8372-23.5135-18.4481.1975-1.1112.4408-2.0571,1.6437-2.4533Z"/>
      <path class="cls-1" d="M480.4907,1081.4816c-.8322.8442-6.6899-.4193-8.3976-1.1015-8.9992-3.5952-12.2117-16.696-12.5715-25.3918-.1169-2.8255-.5958-10.5407,4.3773-9.4068,2.0487.4671,5.753,15.2126,7.4202,18.5832,1.8212,3.6818,12.1039,14.3422,9.1715,17.3169Z"/>
      <path class="cls-1" d="M277.3476,1039.6515c1.8501-.491,2.3637-.1006,3.1119,1.5683,1.9714,4.3971.7864,12.5091,1.4742,17.513.6271,4.5622,6.5722,16.5868,4.2995,19.8122-1.3222,1.8765-5.8462,1.3675-7.4507-.6706-4.9648-6.3065-10.4635-35.827-1.4349-38.2229Z"/>
      <path class="cls-1" d="M320.2157,1045.5316c7.9037-2.4549,3.2837,20.603,1.6168,24.6494-2.148,5.2145-10.4727,13.2016-16.5339,11.1659-6.3503-2.1328,4.7693-11.1531,6.538-14.1695,2.2188-3.784,6.7035-21.1254,8.3791-21.6458Z"/>
      <path class="cls-1" d="M505.0066,1039.5189c7.0496-1.9726,5.8185,19.2931,5.344,23.3632-.542,4.6492-7.1924,22.7817-12.8015,14.9975-2.3684-3.2869,3.7021-15.2146,4.4672-20.3364.4789-3.2057-.0011-17.1872,2.9903-18.0243Z"/>
      <path class="cls-1" d="M332.7721,602.6109c-2.2414-1.4053-8.7586-25.5911-9.0537-29.4745-.3509-4.6176,2.9608-8.9863,6.4369-5.366.977,1.0175,9.0755,24.1921,9.3796,26.5911.5798,4.5746-1.5329,11.5284-6.7628,8.2493Z"/>
      <path class="cls-1" d="M455.3143,602.5563c-4.1659,2.4037-6.5683-1.7813-6.3479-5.8152.2077-3.8013,6.2234-22.1192,8.0333-25.9608,3.2552-6.9093,8.4445-3.4792,8.2766,2.2208-.118,4.0049-7.1816,27.9509-9.962,29.5552Z"/>
      <path class="cls-1" d="M300.3971,412.1323c17.3574-3.2213,17.183,19.1479,3.7989,18.7903-11.2767-.3013-13.564-16.978-3.7989-18.7903Z"/>
      <path class="cls-1" d="M480.1945,413.0999c12.3749-2.858,16.8936,10.5723,7.6174,16.6045-13.4238,8.7294-20.5871-13.6091-7.6174-16.6045Z"/>
      <path class="cls-1" d="M195.2565,534.8116c-7.4035-1.2293-13.9732-11.4852-5.0161-12.0842,2.0062-.1342,18.4191,4.1196,19.9229,5.1653,2.7426,1.9071,1.6122,6.9189.079,6.9189-4.3315,0-11.0982.6455-14.9858,0Z"/>
      <path class="cls-1" d="M597.1386,523.0683c11.5036-1.4319,5.906,8.6259-2.0409,10.9637-4.3043,1.2662-20.2302,2.4082-16.2343-5.2357.9156-1.7516,15.403-5.3704,18.2753-5.7279Z"/>
      <path class="cls-1" d="M456.4156,262.4868c-5.2603-1.8501-9.79-4.2603-13.7202-7.0303-5.0601-3.5601-6.2397-5.6899-12.1499-10.21-8.96-6.8501-14.02-7.8999-21.1899-12-8.4604-4.8501-15.29-11.3398-19.73-16.71,8.8198,7.6797,21.23,13.4297,28.6499,16.2197,5.3301,2.0103,18.1597,4.6104,21.7798,7.21,6.3701,4.5703,6.77,15.0503,16.3604,22.5205Z"/>
    </g>
  </g>
</svg>