<?xml version="1.0" encoding="UTF-8"?>
<svg id="Capa_2" data-name="Capa 2" xmlns="http://www.w3.org/2000/svg" viewBox="0 0 858.5501 854.9289">
  <defs>
    <style>
      .cls-1 {
        fill: #e57a85;
      }

      .cls-2 {
        fill: #e06e79;
      }

      .cls-3 {
        fill: #fd8c98;
      }

      .cls-4 {
        fill: #fd9ca3;
      }

      .cls-5 {
        fill: #cc5869;
      }

      .cls-6 {
        fill: #eb6575;
      }

      .cls-7 {
        fill: #f9d9de;
      }

      .cls-8 {
        fill: #dd7a90;
      }

      .cls-9 {
        fill: #fd9da3;
      }

      .cls-10 {
        fill: #d05868;
      }

      .cls-11 {
        fill: #af4159;
      }

      .cls-12 {
        fill: #bc4a5d;
      }

      .cls-13 {
        fill: #fd9ca2;
      }

      .cls-14 {
        fill: #fe8d98;
      }

      .cls-15 {
        fill: #212d34;
      }
    </style>
  </defs>
  <g id="Capa_1-2" data-name="Capa 1">
    <g>
      <path class="cls-2" d="M607.3443,149.8477c-66.5148-27.365-89.7579,24.6753-200.7391,11.7393-102.39-11.9346-144.7226-63.47-200.7391-36.3914-32.1169,15.5254-46.2822,46.041-58.6956,72.7825-53.3756,114.9841-14.9046,274.3955,42.2609,286.4348,23.2322,4.8928,27.7332-19.1499,77.4783-38.739,48.9163-19.2627,100.5807-13.4954,201.913-1.1741,92.8068,11.2847,105.0513,20.6807,139.6957,10.5654,6.1326-1.7905,81.3856-24.9766,105.6521-91.5654,29.6333-81.3157-32.8513-183.218-106.826-213.6521Z"/>
      <path class="cls-15" d="M846.3618,390.4424c-.8701-2.23-.3701-3.49.6499-5.2898,15.9-28.2402,15.48-56.1902-1.96-83.6101-1.74-2.74-1.95-4.77-.6899-7.6199,3.85-8.77,5.59-18.0701,5.72-27.5801.24-16.8701-4.52-32.3501-13.87-46.4001-1.16-1.75-2.12-3.0701-.9601-5.6699,11.2101-25.1799,8.8601-49.6699-4.3999-73.4299-.99-1.76-1.8401-3.0601-1.01-5.4199,5.2-14.7102,6.3101-29.9402,3.3-45.1501-5.0801-25.7-18.0601-45.3401-44.1001-54.21-1.24-.4299-2.54-.71-3.51-2.3101-9.35-15.4099-23.4299-24.6899-40.45-29.3999-33.01-9.1301-62.4399-4.27-85.55,23.28-1.25,1.48-2.3899,1.8599-4.26,1.6299-26.34-3.25-48.6399,5.23-67.3099,23.6899-2.29,2.27-3.9501,2.6501-7.12,1.9302-26.42-6.02-51.05-2.7402-72.59,15-1.33,1.0898-2.12,1.2998-3.82.6199-25.22-10-49.55-7.97-72.94,5.73-1.29.76-2.2,1.27-3.91.21-23.21-14.4099-47.58-15.8298-72.83-6.0701-2,.77-3.3.6101-5.18-.8398-22-16.9199-46.59-21.3101-73.28-14.4299-2.64.6799-3.99.1699-5.87-1.7-18.89-18.8-41.52-27.29-68.18-24.1602-2.05.24-2.87-.48-3.95-1.9299-3.9-5.24-8.54-9.8-13.89-13.55C165.6117.5625,144.5517-2.5175,122.6518,1.8725c-20.71,4.15-38.72,13.63-50.7,32.09-.95,1.47-2.27,2.0701-3.97,2.6301-9.98,3.26-18.81,8.5801-25.45,16.76-19.56,24.1099-23.41,51.22-14.49,80.51.76,2.49.98,4.23-.5,6.7598-13.79,23.6401-15.24,48.2102-4.69,73.4302.93,2.24.9,3.6599-.46,5.71-15.63,23.6299-18.62,48.74-8.37,75.27.84,2.1599.8,3.6401-.55,5.78-17.37,27.4199-17.77,55.4399-2.2,83.73,1.45,2.6301,1.44,4.3801.33,7.1199-12.39,30.46-10.58,59.52,9.18,86.6001,1.07,1.47,1.41,2.47.82,4.3901-4.06,13.2798-4.3,26.6799-1.6,40.3398,13.03,65.95,84.57,98.6299,142.65,64.9199,2.71-1.5698,4.1-.8799,5.87.79,8.47,8.01,14.83,17.4001,18.71,28.4302,2.31,6.5498,4.25,13.2598,7.04,19.5898,3.8,8.6301,11.39,12.96,18.9,11.6001,8.11-1.46,14.23-8.3201,15.27-17.4399,1.32-11.6401-1.52-22.78-4.61-33.8-3.59-12.8501-10.02-24.3101-18.91-34.76,11.03-4.47,19.77-11.04,26.47-20.3101,6.26-8.6699,10.02-18.25,10.98-28.8799.32-3.5601,1.18-5.78,5.42-6.5,11.78-1.98,21.5-8.3801,30.48-15.8701,2.3-1.9099,4.4-2.49,7.16-2.1001,17.32,2.4702,34.46,1.48,51.44-2.6699,16.53-4.03,31.97-10.48,45.87-20.8301,4.84,18.0103,15.65,29.98,33.48,35.7002-5.49,3.6299-10.58,7.3101-15.22,11.6099-35.35,32.8-46.49,92.54-25.51,137.4199,1.29,2.75,2.29,5.2402,1.55,8.3901-8.4,35.72-3.04,69.76,12.7,102.51,4.23,8.8,9.93,16.8201,13.39,26.02,5.26,13.95,7.03,28.6101,8.98,43.22,1.77,13.25,10.22,22.5898,23.17,24.2,7.5601.9299,15.34,1.1902,22.8101-.8899,10.08-2.8101,17.58-8.75,19.95-19.4001,1.25-5.6499,1.57-11.51,2.23-17.28,1.59-14.0798,4.43-27.7998,11.29-40.4099,3.88-7.1199,8.04-14.1199,11.48-21.45,11.53-24.5601,17.47-50.53,19.47-77.5601,1.75-23.6001-1-46.7-5.98-70.3101,4.85,2.73,9.73,4.7402,14.75,6.4001,5.05,1.6699,10.3301,2.3799,15.5901,3.02,5.78.71,28.0999,8.47,32.96,11.5798,25.34,16.2002,51.73,17.79,79.1,5.6301,2.49-1.1001,4.73-2.3101,7.86-1.0701,13.29,5.26,27.1101,7.6401,41.4,6.02,26.39-2.99,46.37-15.8101,59.16-39.28,1.3-2.3899,2.53-3.54,5.4199-4.03,4.8501-.8198,9.5601-2.49,14.1901-4.3301,35.97-14.2998,63.0599-66.6599,50.0599-107.21-.53-1.6299-.46-2.4897.54-3.9099,19.7-28.0901,20.88-58.0999,8.8-89.3101ZM179.6717,222.4026c8.72-13.0701,12.47-27.6201,12.6-43.1902.02-2.3999.36-3.73,3.16-3.5901,3.15.1501,6.32-.0398,9.4-.8999,1.75-.49,3.11.05,4.43,1.3901,5.22,5.3398,11.31,9.5298,18.19,13.27-22.75,11.6299-35.5,30.25-42.28,54.8599-1.44-6.9299-3.59-12.52-6.21-17.8799-.9-1.8201-.11-2.73.71-3.96ZM216.7817,450.6824c-1.05,1.9702-1.89,1.8401-3.27.53-.59-.5701-1.36-.9399-2.06-1.3699-4.37-2.6501-10.38-4.3401-12.64-8.21-2.17-3.7202-.79-9.6802-1.39-14.6401-1.83-15.22-7.6-28.72-17.5-40.3599-2.13-2.52-2.92-4.3-1.46-7.6501,10.43-23.9199,9.6-47.6699-2.15-70.9299-1.47-2.9102-1.24-4.8701.27-7.5,4.37-7.6001,6.98-15.8799,8.73-24.51,3.66,14.97,10.29,23.0601,29.89,35.8601-21.5,16.5-31.34,38.6399-28.63,65.1899,2.77,27.1299,18.92,44.6299,44.49,53.99-5.57,5.9199-10.44,12.4099-14.28,19.5999ZM367.5818,315.3025c-1.6,1.0898-3.14,2.26-5.22,3.75q-.04-8.8701,10.58-7.22c-1.9,1.22-3.66,2.3098-5.36,3.47ZM465.5317,410.8226c-.39-6.9199-1.95-12.8901-4.17-19.1802,7.18,1.0103,14.16,2.29,22.37,1.7803-6.84,5.7698-12.39,11.2397-18.2,17.3999ZM480.6617,210.8924c-8.7599,3.1902-16.91,7.5-24.36,13.0701-1.5,1.1201-2.5,1.5701-4.33.5801-27.86-15.26-54.44-11.24-79.91,5.8298-2.94,1.9802-4.33,1.7102-6.38-.73-5.29-6.3298-10.75-12.52-16.6-19.2998,12.99.04,24.9-1.74,36.38-5.8701,2.09-.75,3.61-.6399,5.54.24,25.42,11.51,50.9,11.55,76.33.0601,1.87-.8499,3.21-.75,4.99.03,4.22,1.8398,8.6,3.26,13.3,3.96-1.21,1.8101-3.31,1.53-4.96,2.1299ZM588.9518,204.2225c-.87,12.4399-2.84,24.8-2.9501,38.05-19.8699-14.45-40.1799-26.8101-63.9099-32.8101,10.33-1.9399,20.1699-5.1899,28.6599-11.1399,4.4001-3.0801,7.98-3.01,12.6001-1.4199,7.09,2.46,14.5599,3.4199,22.04,3.3799,3.23-.01,3.7699.9099,3.5599,3.9399ZM596.0217,433.3724c.45-4.3198.99-8.0698,1.16-11.8398.09-1.97,1.03-2.1201,2.51-2.04,4.3199.24,8.6-.3,13.83-1.1899-5.79,5.77-11.23,10.46-17.5,15.0698Z"/>
      <path class="cls-6" d="M829.0554,393.5618c11.7898,21.96,10.6899,44.3501,1.5498,66.8201-2.04,5-5.71,8.9399-9.4299,12.8-2.72,2.8301-3.9099,5.96-2.3101,9.98,9.5801,24.03,3.9299,46.02-9.4299,66.79-11.1899,17.4099-26.9099,27.7-47.8201,29.49-3.4199.2898-5.96,1.77-6.8499,5.46-5.02,20.78-33.3801,40.71-60.79,36.8899-8.6899-1.21-16.8901-3.47-24.6899-7.3298-4.7202-2.3401-8.8701-1.1501-13.21,1.2698-22.1101,12.3801-44.0701,11.9001-65.6802-1.3499-5.1199-3.1399-9.8699-6.9001-13.74-11.49-3.7-4.3799-8.0999-5.3-13.3999-4.4199-22.3601,3.72-40.8401-4.02-56.5601-19.4902-3.1501-3.1099-6.4299-5.1199-10.54-2.7798-4.3101,2.46-4.5999,6.3999-2.96,10.8699,10.3,28.01,14.49,57,12.8801,86.72-1.6401,30.0801-8.3401,58.96-24.1501,84.9902-11.25,18.5298-16.1199,38.8098-18.6899,59.9199-.2,1.6499-.21,3.3301-.48,4.96-1.9001,11.29-4.76,14.1099-15.74,14.48-.4302.02-.8701.03-1.3301.04-2.3201.04-4.6599-.1201-6.95-.48-7.21-1.1201-9.3701-3.3801-10.4299-10.52-1.4502-9.8501-2.6501-19.73-4.8901-29.47-2.71-11.75-6.5701-23.02-12.8-33.3501-15.52-25.7-22.3298-53.49-20.3298-83.4399.49-7.3101,1.46-14.6001,3.3499-21.6501,1.26-4.71.6201-8.71-1.3899-12.96-7.52-15.8599-12.23-32.5698-10.73-50.1599,2.73-32,13.3599-60.3201,41.0298-79.6301,6.2002-4.3198,13.27-6.8499,20.4802-8.8999,3.6199-1.04,6.8799-2.5,9.47-5.23,20.5898-21.75,59.0801-22.1699,82.96-5.96,4.73,3.21,9.3701,4.46,14.9399,3.9199,19.22-1.8799,36.8301,1.45,50.72,16.3,2.1799,2.3401,4.9602,3.25,8.1501,2.8298,3.2998.3901,3.99,3.4302,4.8999,5.6201,1.3501,3.23,3.3,4.9399,5.8701,5.6401,1.3999.3899,2.99.48,4.77.3499,3.95-.3,7.95-.22,11.9199.02,1.6399.1001,3.8398-.4399,4.3699,2.1301-7.0798,1.1399-14.25-.3201-21.3799.8799-.05.01-.1101.02-.1599.03-3.5701.6301-5.8301,2.0701-6.29,5.5798-.53,3.9802,1.47,6.6101,5.22,8.0503.9199.3499,1.8499.6699,2.78.9497,7.47,2.29,15.1699,2.4001,22.8101,1.3201,39.3198-5.51,65.8198-28.2898,82.7798-63.0198,11.49-23.5103,16.49-48.9402,20.4502-74.6501,6.3198-41.01,6.8198-82.27,5.6399-123.5701-.8601-29.77-3.4199-59.4399-7.51-88.97-2.3301-16.78-4.3999-33.5901-8.1799-50.1299-.6501-2.8101.52-4.77,2.25-6.7,1.1699-1.3101,2.0898-2.73,2.52-4.3.3298-1.2102.3699-2.52.0198-3.9202-1.5398-6.0298-8.5098-7.7598-13.46-3.23-3.7,3.3701-7.5,6.5601-11.48,9.48-6.54,4.8201-13.5601,8.9102-21.3398,11.9102-14.3501,5.5298-29.03,6.9099-44.0901,4.3301-4.5701-.7803-8.1199.2798-11.23,3.6199-11.55,12.3899-25.75,19.6499-42.55,21.9299-11.77,1.6001-23.3799,1.0701-34.1599-4.0698-6.0801-2.8901-10.6201-2.2603-16,1.5898-20.8301,14.8799-43.47,18.02-67.6201,9.1602-1.3999-.5103-2.8298-1.0601-4.0701-1.8501-4.7698-3.0601-9.0498-2.27-13.98.3101-22.22,11.6199-44.5898,11.6499-66.72-.4302-3.8799-2.1199-7.6499-3.1599-11.8198-1.1699-25.1401,12.03-49.1401,8.71-71.9302-5.98-5.7898-3.73-10.6399-4.1899-17.1399-1.97-28.46,9.73-54.0701,4.78-75.67-16.75-3.72-3.7-7.48-5.05-12.49-4.24-29.36,4.77-53.98-4.9399-75.2699-24.77-2.6301-2.45-4.9601-3.6699-7.1301-3.71-1.79-.03-3.48.74-5.1399,2.29-3,2.7998-3.4701,6.3999-1.25,10.2.49.8499,1.1199,1.71,1.8899,2.5701,1.47,1.6499,2.21,3.1499,1.72,5.3398-4.8699,21.75-7.51,43.8401-10.0599,65.95-5.24,45.4102-7.2001,90.9802-5.4601,136.6201,1.53,39.95,6.4701,79.49,19.51,117.6101,6.2201,18.1799,14.8801,34.75,29.3801,47.9299,10.1,9.1699,16.33,20.8499,19.9099,33.98.48,1.78,1.21,3.26-.55,4.96-12.5698,12.1599-25.8099,22.75-43.8599,26.03-16.7001,3.04-33.5701,1.3101-48.3801-5.02-1.23-.52-2.4399-1.0801-3.6399-1.6699-15.38-7.54-28.2-20.27-35.77-38.0103-7.8-18.2898-10.13-36.71-2.3301-55.6099,1.48-3.6001.9601-6.99-1.99-9.5801-18.3499-16.1799-23.8099-55.8799-7.8599-78.97,3.1899-4.6199,1.98-8.73-.9401-12.8499-14.4801-20.46-15.74-42.0801-5.5599-64.6501,2-4.4399,4.95-8.2898,8.0499-11.99,2.7001-3.22,2.8199-6.49.92-10.1399-12.79-24.5701-9.22-47.4402,7.25-68.9402,4.6399-6.0698,4.71-6.7197.83-13.2798-11.77-19.9102-9.85-48.5,4.87-66.6101,3.51-4.3101,3.4-7.48.97-12.4399-9.1899-18.76-8.08-37.3601.8701-55.0901.8198-1.6399,1.71-3.28,2.6699-4.8999,11.59-19.6101,29.85-24.79,53.23-16.3701,11.36,4.0901,21.86,9.77,31.65,16.71,24.1901,17.1501,51.4,27.6101,79.35,36.55,30.5701,9.77,61.8501,16.55,93.49,21.6201,25.46,4.0798,51.0601,6.9299,76.8201,8.53,20.79,1.29,41.5798,2.23,62.3999,1.5999,25.1101-.77,50.1501-2.52,75.1201-5.55,34.8499-4.22,69.1899-10.72,103.0798-19.8999,37.5-10.1499,73.02-24.47,105.3101-46.3999,11.73-7.96,24.2-14.3201,38.45-17.02,15.1401-2.8801,26.7302,2.8398,35.4202,14.24,2.24,2.95,4.21,5.9299,5.8999,8.96,10.29,18.3801,10.5,38.1899,1.6499,58.73-1.7397,4.03-1.6299,7.02,1.02,10.51,15.28,20.0601,15.98,41.8101,7,64.54-.73,1.8501-1.77,3.5698-2.6899,5.3398-1.73,3.3-1.5,6.3201.98,9.2202,11.52,13.4299,16.51,28.97,15.03,46.6199-.6699,8.0601-2.8201,15.6899-7.0999,22.5601-2.6602,4.27-2.6602,7.73.8499,11.6399,18.72,20.8301,20.02,53.3,3.02,75.46-3.4299,4.46-3.47,8.4402-.8699,13.29Z"/>
      <path class="cls-13" d="M249.1483,420.5704c-30.8779-4.8699-49.3422-25.178-48.772-54.4812.5193-26.689,21.551-48.6189,48.2318-50.7283,9.8386-.7778,19.6035-1.0234,29.4186-.0593,2.8104.2759,5.6631.311,8.4871.2068,2.9249-.1079,5.0834-1.5442,5.7614-4.5527.6763-3.002-.593-5.1025-3.2218-6.6111-3.432-1.9695-7.2906-2.5244-11.0299-2.761-8.1384-.5149-16.3046-.4895-24.4556.3481-8.3008.8533-16.6379,1.2078-24.8258-.8867-16.9421-4.334-28.2446-16.9136-30.2711-34.4082-3.6425-31.447,17.995-61.4006,45.6321-66.5474,5.9122-1.1008,11.7369-1.74,17.8147-.9766,12.218,1.5344,24.1958-.2979,35.9419-3.7747,1.5825-.4683,3.0215-1.2205,4.771-.3367,13.8198,6.98,27.7378,13.8057,37.7317,26.2717,4.2676,5.3232,8.4919,10.6812,12.7737,15.9927,1.4612,1.813,2.9526,3.616,4.5759,5.2815,8.3523,8.5701,11.5295,8.8889,21.311,1.9783,11.6067-8.2002,23.9685-14.1138,38.6108-14.1504,14.1228-.0354,26.3279,4.7268,36.9177,13.8948,5.1733,4.479,9.8027,9.4976,14.2739,14.666.9795,1.1321,1.9224,2.3137,3.0203,3.3223,3.8169,3.5066,7.8547,4.0251,10.7224,1.4692,2.78-2.4773,2.3823-6.2466-1.155-10.5688-4.1104-5.0227-8.1252-10.1313-12.4214-14.9907-2.0051-2.2678-1.4766-3.1865.8113-4.7637,18.5542-12.7917,38.2783-13.481,58.9512-6.2393,17.7747,6.2263,33.4177,16.2402,48.6343,27.0205,7.4653,5.2888,14.8867,10.6233,22.9663,14.9626,3.55,1.9065,7.0374,2.5107,9.8396-1.0872,2.7224-3.4954,1.2036-6.7629-1.5544-9.2471-8.3447-7.5151-6.5481-17.2266-5.9165-26.5933.5706-8.4629,1.7576-16.8755,1.6846-25.3933-.0732-8.532.0403-8.533,9.2312-9.7935-.4832,7.6187-1.1997,15.24.4683,22.7783.4619,2.0864,1.0874,4.2002,2.04,6.0999,1.4626,2.9163,3.9126,4.5674,7.3281,3.856,3.2705-.6812,4.4048-3.1555,4.8093-6.1975,1.1453-8.6125-.4634-17.2886.792-25.9307.6997-4.8157,1.571-8.8855,6.6018-11.2122,4.5317-2.0957,8.186-5.6577,11.9651-8.9141,2.489-2.1443,14.051-3.4519,16.7729-1.8428,1.0757.636.8643,1.6956.9036,2.6565.2798,6.8291,1.4937,13.5244,2.8591,20.199-1.8479,2.0979-2.1646-.2983-2.5808-1.0759-1.301-2.4307-1.3796-5.2927-2.2576-8.9512-3.5039,8.7402-6.3669,16.4329-5.8662,24.9988.9304,15.915-3.0574,30.8022-10.7295,44.5559-8.6106,15.436-20.7104,27.3345-37.9575,32.8682-14.2961,4.5872-27.2607,1.2173-39.009-7.6699-2.7842-2.1062-5.387-4.4456-8.1597-6.5659-.6143-.3943-1.1682-.8657-1.6936-1.3674-1.4485-1.4683-2.8816-2.9585-4.3928-4.3718-1.1504-1.1841-2.4597-2.1658-3.8552-3.0471-10.3398-6.9624-20.802-13.7229-33.4321-15.7073-7.4048-1.1633-14.5859.0164-21.2954,3.4368-5.3992,2.7527-6.7749,6.7629-4.4255,12.4272.7,1.688,1.5911,3.2874,2.5022,4.8718,3.3826,5.8818,3.4858,11.6978-.5737,17.2896-4.3389,5.9761-10.1936,8.9026-17.6309,7.9446-4.9436-.6367-9.7336-2.0835-14.5554-3.3301-2.5732-.6492-4.6145-2.2939-6.8213-3.6331-8.4036-4.8359-14.541-11.9236-20.3442-19.5588-8.3931-11.0427-20.5786-13.2488-32.835-6.5066-3.0645,1.6858-6.1687,3.2874-9.2563,4.9255-24.2278,12.8562-47.2349,3.009-61.4875-14.4011-2.3186-2.8323-4.7529-5.6255-6.7217-8.6848-9.96-15.4775-25.9209-19.7197-42.4319-21.907-11.2035-1.4844-22.5874-.0042-33.663,2.8022-11.3599,2.8787-16.3666,9.8706-17.2657,21.3818-1.4668,18.7766,12.0548,25.1602,24.6239,27.6899,1.4697.2959,2.9885.2275,4.4688.4912,7.7571,1.4934,15.6198.0605,23.376.7783,15.5101,1.4355,28.5792,7.2727,36.4432,21.6809,6.1775,11.3184,4.9717,27.8379-2.7527,36.7124-6.0244,6.9219-13.9675,9.6887-22.8137,8.8862-9.9391-.9014-19.8383-1.8269-29.837-1.7058-8.3763.1016-15.9806,2.3621-23.2345,6.4985-11.896,6.7837-10.9607,22.2466-4.069,29.2148,9.1786,9.2805,20.193,11.6196,34.4528,6.2769,3.4163-1.28,6.7903-2.7112,10.078-4.3982.3346-1.5789-2.5446-1.0754-1.7134-2.9858,2.0806-.9917,4.475-.0168,6.7051-.5752,25.4908-1.2219,45.7394-13.2983,63.7711-30.344,10.2766-9.7146,21.1714-18.7695,33.5876-25.7256,17.0405-9.5471,34.2266-11.6189,52.0156-1.4951,16.6147,9.4556,34.7158,13.8909,53.8213,14.2429,10.3228.1902,19.96-2.3208,29.3477-6.5933,9.7603-4.4421,19.3799-9.2524,30.6165-9.522,18.3674-.4407,33.082,7.291,45.9851,19.377,5.2295,4.8982,9.5986,10.5796,13.2285,16.8127,1.2439,2.136,2.9136,4.0227,4.3679,6.0383,1.7869,2.4771,4.3135,2.385,6.679,1.4968,2.291-.8604,3.7351-2.7397,3.6599-5.4119-.0654-2.3276-.158-4.6543-.2388-6.9814-.3105-1.2363.4465-1.6392,1.2466-1.0322,1.7214,1.3057,2.2512,3.3901,2.1199,5.3801-.376,5.6956-1.6416,11.1833-5.0205,15.947-1.8806,2.6514-4.6567,3.45-7.7812,3.834-8.4883,1.043-15.5847-2.6902-22.7092-6.3345-6.8262-3.4915-13.1846-7.7898-19.6882-11.8235-9.9314-6.1599-20.6216-6.8926-31.7754-5.1023-11.0618,1.7756-21.5972,5.5439-32.3215,8.5815-16.5654,4.6919-33.0352,6.0132-49.4336-.6064-9.4685-4.4746-18.9019-9.0334-28.4558-13.345-8.3892-3.7859-16.5293-2.8518-24.6658.5784-13.646,5.7529-25.4788,14.3318-36.8601,23.6313-15.6846,12.8157-32.6074,23.3132-51.7222,30.593-17.2104,6.5544-34.5046,12.1174-52.8486,14.156-2.6377.2932-5.2511.9109-7.8143,1.6472-2.8726.825-6.1818,1.0325-7.1304,4.7561Z"/>
      <path class="cls-6" d="M765.1753,35.2518c-18.76,3.5801-34.4199,12.1201-49.3401,22.3701-25.47,17.48-53.8298,28.6602-83.0898,37.9199-32.0601,10.1401-64.8701,16.8401-98.05,21.6702-44.55,6.48-89.3699,9.3-134.3801,6.96-35.3599-1.8401-70.47-5.9299-105.3198-12.3899-36.8101-6.8301-72.79-16.3601-107.6101-30.2002-15.51-6.1699-30.21-13.76-43.83-23.47-15.13-10.77-31.38-19.1699-50.86-22.21.3999-.4399.8-.8699,1.21-1.27,4.6201-4.7,9.72-7.6101,15.0701-10.03,20.53-9.3101,41.05-10.1499,61.3.8501,6.5499,3.5498,11.9099,8.6299,15.8599,14.8999,3.8701,6.1401,8.41,7.79,15.8501,6.4302,24.1099-4.4102,44.2,3.3899,59.84,22.2898,4.92,5.95,6.47,6.49,13.63,4.04,25.3398-8.6799,48.1499-4.8999,67.6201,14.1899,4.0198,3.9402,7.8398,3.9001,12.5898,1.5801,23.53-11.51,46.1799-10.5801,67.5601,5.3699,3.98,2.98,7.74,3.1401,11.8599.1501,12.8201-9.3,27.0801-13.9099,43.03-12.8601,8.5901.5601,16.6001,3.1401,24.3801,6.6101,6.0498,2.6899,8.6699,2.3499,13.5-2.22,18.8999-17.9102,41.01-20.3501,64.8999-13.1899,9.1699,2.7598,9.5801,3.02,15.77-4.1301,14.0601-16.27,31.74-24.1399,53.3101-23.0999,3.3599.1599,6.54,1.0898,9.79,1.7798,3.9199.8201,7.0298-.1599,9.49-3.6899,14.22-20.3799,35.5999-29.34,60.05-25.53,1.52.23,3.0498.51,4.5898.8501,11.5901,2.52,21.95,7.3601,31.28,16.3298Z"/>
      <path class="cls-10" d="M199.2053,546.472c-4.29,1.7-6.15,2.3499-7.49,1.0999-.97-.8899-1.66-2.77-2.8-5.96-4.36-12.1799-10.1499-23.75-19.74-32.5601-18.89-17.3298-27.79-39.72-33.9199-63.71-7.3101-28.5999-11.01-57.6899-12.3201-87.1599-.54-12.3-1.5901-24.5701-1.47-36.8999.1499-27.8101,1.6299-55.5701,4.1-83.2402,2.27-25.45,5.1901-50.8799,9.76-76.0698.37-2.0801.7699-3.3501,2.5699-2.6301.3201.1301.6901.3201,1.1101.5801,10.3799,6.46,21.4099,11.3699,33.49,13.6899,2.45.47,2.95,2.05,2.9399,4.3601-.0801,13.8398-3.4099,26.74-11.5,38.0298-3.86,5.3901-4.13,9.6702-.8401,15.8101,11.3801,21.1899,9.1501,42.4702-2.74,62.6602-3.95,6.7-4.49,11.54-.48,18.5698,12.24,21.4702,13.17,43.4902.3,65.3501-3.35,5.7-3.0601,8.4099,1.45,12.8701,14.2101,14.0298,20.6501,31.0398,19.77,50.8999-.05,1.1699-.08,2.3301-.11,3.5-.15,8.1499.0599,8.5801,7.85,10.8301,12.98,3.7598,23.3901,11.0798,30.77,22.3899,15.76,24.1599,5.6001,57.1599-20.7,67.5901Z"/>
      <path class="cls-10" d="M734.9153,372.4119c-2.3201,30.1699-6.4099,60.0898-15.71,89.0801-9.01,28.0498-24.8701,50.6299-51.46,64.52-8.24,4.3098-17.1001,7.2798-26.6501,7.23-6.1899-1.75-12.5198-.6401-18.7698-.71-4-.0503-6.9602-.2603-8.27-4.9902-.8101-2.8999-3.1401-5.3799-4.79-8.0601,2.25-1.1299,3.73-3.1299,5.3398-4.9399.9302-1.0498,1.8901-2.0298,2.8801-2.9299,9.3401-8.55,20.8599-10.3999,33.46-9.03,6.1599.6602,7.6499-.47,8.47-6.6199,1.6602-12.3501,6.1401-23.0801,16.9399-30.3301,3.6501-2.4399,4.4702-5.5801,3.1602-9.95-7.4399-24.73-.6201-45.8201,17.0999-63.8401,3.3801-3.4399,4.3601-6.76,1.8401-11.0999-13.8901-23.8801-11.3301-47.3401,1.96-70.5,4.0701-7.0901,3.6699-7.5-1.01-14.1902-14.96-21.3201-14.8799-43.8398-3.5798-66.45,3.0999-6.1899,2.98-10.3301-1.2102-15.6399-8.28-10.5-11.6199-22.9402-12.4299-36.1501-.1299-2.1499.0801-3.8198,2.8599-4.29,12.1301-2.0498,23.2002-6.9399,33.55-13.4399,1.49-.9299,2.45-1.1499,3.0901-.74.55.3601.8701,1.1902,1.0901,2.4402,2.47,14.2197,4.6799,28.48,6.4099,42.8198,2.3101,19.1401,4.0901,38.3401,5.5801,57.5601.5698,7.29.75,14.6201,1.21,21.9299,1.8699,29.47,1.1899,58.9299-1.0601,88.3201Z"/>
      <path class="cls-9" d="M252.1801,490.1338c-.9228.3799-1.8236.8297-2.7719,1.1285-7.3442,2.3125-7.6696,2.3504-8.7669-5.1763-1.2877-8.8324-5.0339-16.1097-11.9136-21.7196-1.9922-1.6246-2.3149-2.8933-1.0028-5.3124,4.6684-8.6076,10.609-16.0119,18.3555-22.0767,2.924-2.2893,5.8061-2.829,9.2419-2.2208,53.5723,9.4823,98.3511-7.8739,135.5493-45.9137,19.8363-20.2851,44.9253-12.7448,55.0621,4.5444,4.4201,7.5389,5.4967,15.9676,5.9944,24.4447.3807,6.4841-.2304,12.9876-1.3285,19.3864-.6578,3.8333-.4741,7.2807,3.5289,8.7575,4.0019,1.4764,6.2249-1.535,7.7436-4.5778,8.3475-16.7243,20.583-30.11,35.2204-41.4683,11.7949-9.1526,25.2822-14.4142,39.8072-17.3124,2.5259-.504,4.1665-.1481,5.6591,2.4142,3.8755,6.6527,9.3815,12.0275,14.8118,17.419-2.8297,1.983-6.2457,2.2322-9.4393,2.7684-15.5124,2.6048-28.219,10.2255-39.3082,21.0564-8.9113,8.7039-17.2775,17.9564-26.7505,26.0999-7.7323,6.6472-17.1504,10.0002-26.1872,14.1528-6.342,2.3649-12.7479,3.2043-19.2915.834-8.0699-2.9524-10.04-9.8773-10.3317-17.2275-.2967-7.4753-.8733-14.93-1.1606-22.3989-.3197-8.3112-4.0899-14.8615-11.4904-17.8231-7.4812-2.9938-15.1607-1.199-21.4049,4.295-3.9924,3.5128-7.8488,7.2471-11.3024,11.2779-15.073,17.592-34.9145,26.1292-57.033,30.3158-10.1329,1.918-20.3768,2.7467-30.7197,3.1952-9.5009.412-19.3853-.7428-28.3909,3.8371-3.8798,1.9731-7.692,4.0325-10.0832,7.88-3.7941,6.105-5.1857,12.5151-2.2969,19.4205Z"/>
      <path class="cls-4" d="M598.1904,469.4463c-5.2681-.0715-10.5173.1501-15.7655-.9545-7.8789-1.6584-10.8179-9.0497-6.5858-15.8713,1.4851-2.3938.1086-5.3984,2.5473-7.1482-.0515.6627-.1195,1.3248-.1526,1.9885-.3827,7.6883,3.2352,9.9486,10.5462,7.0526,22.0823-8.7472,37.3106-24.825,48.7017-45.0682,1.3434-2.3873,2.8918-4.4226,5.5926-5.3169,2.4129,4.4041,7.1752,6.8653,8.3284,12.6152,1.883,9.3889-1.0065,17.3222-5.207,25.1033-7.2518,13.4332-19.7191,19.9395-33.5141,24.529-2.1566.7175-4.5841.5845-6.5,2.0657-2.4905,1.7131-5.0824,2.619-7.9912,1.0047Z"/>
      <path class="cls-5" d="M213.0821,625.5877c0,.9988.0621,2.0026-.0149,2.9954-.1099,1.418-.6189,2.7209-2.2297,2.8594-1.476.127-1.878-1.2224-2.2463-2.2896-2.219-6.4286-4.2003-12.945-6.5993-19.3046-4.5203-11.9832-11.1472-22.6916-20.5481-31.475-2.8382-2.6518-2.3964-3.9677.6839-5.8307,6.1443-3.7163,7.0294-3.8542,12.0231,1.6069,9.7538,10.6667,14.2268,23.8195,17.0807,37.6346.9384,4.5426,1.4295,9.1775,2.1252,13.7702l-.2747.0333Z"/>
      <path class="cls-13" d="M265.3209,423.2184c9.617-1.2388,19.2339-1.2413,28.8509.0012-9.6169,1.0846-19.2339,1.4361-28.8509-.0012Z"/>
      <path class="cls-13" d="M244.2058,359.5048c5.741-2.9895,14.3009-2.5443,18.0783.9403-5.9781-1.2362-11.9591-2.4177-18.0783-.9403Z"/>
      <path class="cls-13" d="M272.3292,363.1937c5.3295-1.2778,10.586,1.1054,15.9289.3048,1.7611-.2639,3.603.0126,5.4097.0416-7.1501,2.2484-14.2432.8765-21.3386-.3464Z"/>
      <path class="cls-9" d="M523.2904,439.8152c1.1045-4.2759,4.0716-6.7684,7.9926-8.3477-2.6641,2.7825-5.3284,5.5651-7.9926,8.3477Z"/>
      <path class="cls-13" d="M297.3333,422.5239c3.1014-1.7147,6.2774-2.887,9.8261-1.352-3.2752.4506-6.5507.9013-9.8261,1.352Z"/>
      <path class="cls-13" d="M275.1838,258.7737c-3.9457,1.1581-7.8938,1.1273-11.8444.0245,3.9479-.0082,7.8962-.0164,11.8444-.0245Z"/>
      <path class="cls-13" d="M246.0719,246.4209c2.108-2.9567,4.8475-3.5736,8.1265-2.1934-2.7086.7311-5.4175,1.4623-8.1265,2.1934Z"/>
      <path class="cls-13" d="M320.0503,291.4575c-2.9246-.9172-4.8309-2.8621-5.803-5.75,2.3529,1.4941,4.3383,3.3593,5.803,5.75Z"/>
      <path class="cls-13" d="M252.1834,260.6094c-3.7606,1.6044-6.6301,1.0922-7.8614-3.3101,2.1523,2.2155,4.6281,3.6623,7.8614,3.3101Z"/>
      <path class="cls-13" d="M253.2788,421.3367c2.9584-1.6533,5.8147.922,8.7542.2264.0212-.005.1581.318.1397.3298-.36.231-.7351.4384-1.1074.6509-2.6447-.0859-5.3083-.0488-7.7864-1.2071Z"/>
      <path class="cls-13" d="M260.161,259.3556l1.0569.7126c-2.6595-.1952-5.1763,2.2667-7.9238.4256,2.1281-1.3517,4.5439-.9651,6.8669-1.1382Z"/>
      <path class="cls-14" d="M35.309,424.1484c1.2047-8.4465,1.5498-17.2198,8.4584-23.7284,3.2988-3.1079,6.9104-4.1743,10.8387-1.7168,3.6788,2.3014,5.1451,5.3733,3.8748,10.1536-3.3408,12.5722-.3604,24.6278,4.1938,36.4004,1.8065,4.6698,3.145,9.1232-1.6915,13.0719-3.6801,3.0046-10.1794,3.2671-13.4979-.2689-6.4502-6.8731-9.7225-15.3681-11.0531-24.513-.4477-3.0766-1.9449-6.1039-1.1232-9.399Z"/>
      <path class="cls-14" d="M68.4081,124.5113c-7.2946-.0762-12.4521-6.6414-10.9823-14.5317,2.5149-13.5007,9.401-24.3174,20.9629-31.8672,4.2134-2.7515,8.8186-4.2666,14.0896-2.6379,4.7871,1.4792,7.6484,4.5103,8.6447,9.2656,1.0039,4.792-1.6533,8.1338-5.3337,10.3689-7.6819,4.6648-12.9288,11.0298-16.1777,19.4392-1.918,4.9641-3.8973,10.6877-11.2034,9.9631Z"/>
      <path class="cls-3" d="M33.2935,346.0347c-.1633-10.1,1.1373-18.7457,4.3451-26.9989,2.288-5.8866,5.1528-9.1128,11.1092-8.664,6.2256.4691,9.867,3.7465,8.367,9.9543-2.4228,10.0267-1.7287,20.0971-1.7704,30.1732-.0156,3.7795.8343,7.5587.883,11.3433.0694,5.3904-3.1248,9.7067-7.3563,10.5366-5.5488,1.0884-9.6356-.915-12.2194-6.2261-3.2879-6.7583-3.4061-14.0554-3.3583-20.1183Z"/>
      <path class="cls-14" d="M46.2071,179.9386c.8242-8.4447,2.4408-16.5118,7.6673-23.3961,3.3177-4.37,8.5345-6.1494,12.6554-4.3665,4.675,2.0226,7.0906,6.8428,5.4658,12.5331-2.5921,9.0776-2.8313,18.2959-2.7262,27.6021.0801,7.0878-2.9139,11.2072-8.5675,12.1154-4.9418.7939-9.0962-2.6105-11.3577-9.0466-1.7728-5.0453-2.615-10.2413-3.1371-15.4414Z"/>
      <path class="cls-14" d="M39.2448,268.0594c.1344-9.9786,1.422-18.2883,4.1775-26.3383,2.4272-7.0906,8.8548-10.057,15.5043-7.1796,3.3446,1.4473,5.8618,4.1714,5.1716,7.7132-2.2153,11.3682-3.5893,22.8144-4.8073,34.3175-.5492,5.1868-4.6134,7.8605-9.8207,7.9037-4.5149.0374-7.7914-2.7232-9.1445-7.5364-.9571-3.4047-1.2325-6.8504-1.081-8.88Z"/>
      <g>
        <path class="cls-1" d="M683.9807,302.6602c-3.6113-4.8848-6.0322-10.4597-8.6426-16.6418-7.2998,10.4763-15.6887,19.189-25.666,26.2151-2.8167,1.9834-3.021,3.0669-.8623,5.8308,11.8452,15.166,16.1382,32.6277,14.2239,51.5498-1.4519,14.3513-9.3547,25.2915-19.9592,34.5139-.8433,2.4749,1.1826,3.6223,2.4802,4.9517,2.2781,2.3342,3.7542,4.9446,4.3809,8.1802,2.6077,13.4626-3.262,24.0691-11.947,33.2153-7.3184,7.7068-16.7915,12.2666-27.1011,15.0239-1.7358.4644-4.4683-.0254-4.6631,2.939-.0142.0012-.0283.0022-.0427.0037-2.7683-.498-5.2942.9353-7.9912,1.0046-.0601.0811-.1199.1609-.1799.2412-.0415-.2585-.0933-.5161-.1709-.771-4.9111-1.7283-10.1882-.3042-15.165-1.8623-5.3477-1.6741-8.1406-5.0039-6.8503-10.2637.9224-3.7603,1.5291-7.5889,2.5623-11.3184,2.1768-8.4861,3.5591-17.1057,4.3625-25.8242.147-1.5959-.0198-2.782-1.906-3.4543-8.6787-3.0945-16.1018-8.3853-23.4731-13.7437-4.0876-.4082-7.8062,1.354-11.708,2.0305-11.1685,1.9365-21.0298,6.7971-29.8379,13.8572-10.5493,8.4558-19.292,18.7864-29.061,28.0518-5.1841,4.917-10.5366,9.5625-17.2385,12.4512-4.5422,1.9578-8.8865,4.3752-13.3193,6.5872v.0002c-6.5896,1.6489-13.2051,2.7783-19.967,1.0046v-.0002c-6.3088-3.2646-8.7537-9.0879-8.8564-15.5447-.1299-8.1436-.8926-16.2349-1.136-24.3574-.2485-8.2942-7.8047-18.3245-14.9602-18.9751-8.3799-.7617-16.1052.6506-22.2229,7.4382-5.2341,5.8071-11.0361,11.1001-16.5366,16.6704-9.1204,9.2358-20.4753,14.5974-32.532,18.6465-20.8809,7.0125-42.6819,6.8252-64.3134,8.2422-15.369,1.0066-27.4536,10.5469-26.5199,27.2014.1353,2.4124.9513,3.6477,3.0194,4.3796,6.3942-2.1382,12.1332-5.6328,17.1351-9.9453,6.2161-5.3596,13.0052-6.7847,20.8257-5.6147,13.8328,2.0696,27.626,1.0591,41.0708-2.3164,28.3853-7.1265,53.387-19.0161,63.9399-49.3638.7209-2.0737,2.0835-2.8274,3.9431-3.2642,7.342-1.7251,12.0178,3.7202,9.8645,11.3459-2.2043,7.8069-6.751,14.2603-11.5701,20.5706-1.1165,1.4619-2.3723,2.7803-2.075,4.8511,1.293,9.0044,3.936,17.2903,11.2822,23.4402,9.6128,8.0474,20.9395,9.1548,32.7903,8.7268,2.9265-.1057,5.1521-.9141,6.771-3.3279,2.0286-1.5706,4.0569-3.1411,6.0854-4.7117h0c2.4153-1.3689,4.7341-2.9578,7.2629-4.0684,10.8621-4.7717,22.208-7.363,34.1316-7.1084,1.6606.0352,3.1455-.0474,4.5229-1.3999,8.9941-8.8308,17.3794-18.1953,25.1296-28.1323,1.8364-3.5754,4.887-5.988,7.9927-8.3479,3.1821-1.3635,6.377-2.2439,9.2695.5442,2.5603,2.4678,1.8391,5.3481,1.0259,8.3464-.6907,2.5449-2.2644,4.4119-3.9033,6.2761-3.0759,3.4988-6.2412,6.9187-9.3167,10.4175-.97,1.1035-2.0393,2.1865-1.9832,3.8792.3406,10.2913,13.0605,22.0857,23.7083,21.717,14.366-.4971,28.0979,2.0764,41.1575,8.0698,1.6387.7517,3.2385.8525,4.8516.5562,5.7053-1.0483,11.437-2.0212,17.0674-3.3965,20.6494-5.043,34.823-19.0457,47.7256-34.7781,1.1252-1.3721.8267-2.5974.5464-4.1436-4.2607-23.5159,2.5662-43.9565,17.6479-61.9341,1.7114-2.04,1.7112-3.3008.7153-5.561-3.9067-8.8684-6.0378-18.1797-6.7244-27.8879-1.0701-15.1265,2.1917-29.3423,8.2815-43.0518.9644-1.1018,1.7561-2.2915,1.9309-3.7949h.0002c1.5222-1.1331,2.0859-2.188.6973-4.0657ZM535.1077,416.2669c-.0234.4827-.2178.9011-.5752,1.2393.2158-.3826.4075-.7959.5752-1.2393Z"/>
        <path class="cls-1" d="M249.1453,420.5718c1.22,1.1201,2.7.8101,4.1301.76,2.6599.03,5.2599.4102,7.7899,1.21,1.2899,1.03,2.77.8701,4.26.6802,9.61.2798,19.23-.1702,28.85,0,1.1199.0798,2.25.1899,3.1599-.7002,3.2202-.8098,6.3801-2.1299,9.8201-1.3499,24.71-4.78,46.29-15.8401,65.1399-32.3899,4.9902-4.6802,9.5303-9.8101,14.7002-14.3003,3.9399-2.5999,7.6699-5.6399,11.8799-7.6997,13.4001-6.54,26.8501-6.4102,40.3501.2698,8.9399,4.4202,17.8799,9.03,28.04,10.2,3.499.4053,6.981,1.0181,10.5098,1.1091,3.5176.0908,7.1289-.5422,10.6401-.8889,7.7434-.7649,15.4858-1.7185,23.0913-3.395,7.5913-1.6733,14.9792-4.0461,22.6187-5.5552,9.6001-1.8999,19.01-4.95,28.99-4.1299,3.1001.26,5.52,1.47,6.1201,4.78.6599,3.5798-1.29,5.8201-4.4202,6.8499-2.7898.9102-5.75,1.3101-8.6599,1.9402.03.26-.0601.6699.1001.8899,14.24,18.1401,31.8298,29.1699,55.8999,25.45,17.55-2.71,31.6799-11.3799,36.4202-29.03,5.1099-19.0098.21-36.8499-12.6902-52.1199-1.2-1.4202-2.4399-2.1199-4.3298-1.3601-7.7002,3.1301-15.7603,4.73-24.8901,4.9902,6.72,7.6299,14.05,13.7998,17.3401,22.9299.1299-.1101.24-.27.3799-.3201.1401-.0601.4099-.0701.45,0,2.78,5.0801-.4199,18.46-5.2598,21.79-.8.5601-1.8101,1.1099-2.7302,1.1399-4.8.1201-9.6899.8701-14.2698-1.23-8.8801-4.0701-17.3401-8.8499-25.5701-14.1499-7.6501-4.9099-15.6902-8.74-25.4299-8.6599-12.54.1199-24.1902,3.6699-35.8901,7.2397-14.5881,4.4438-30.0759,8.1599-45.2024,4.6997-14.0281-3.2087-27.2354-10.1699-39.8679-16.1997-8.1699-3.8999-16.1597-3.1499-24.1096-.0898-10.5901,4.0698-20.1201,10.1499-29.1101,16.97-9.8699,7.5-19.3398,15.5-29.6799,22.3801-10.8401,7.2197-22.75,12.0598-34.76,16.8499-15.4399,6.1501-31.22,10.6301-47.8,12.51-6.3799.72-12.9399,1.95-18.47,5.45.22,1.96,2.88.3201,2.46,2.48Z"/>
        <path class="cls-1" d="M274.0483,386.3995c4.0134-1.4084,8.6366-2.3879,11.9146-6.4915-1.855-.3333-3.2487-.5837-5.1394-.9236,2.4244-1.0229,4.6.2195,6.3442-1.1694-9.3905-.5239-18.9287.6453-28.0286-3.0754-2.8507-1.1655-6.3304-2.2671-9.1643-1.6777-5.1359,1.0684-7.4404-1.8562-9.2593-5.2717-1.973-3.7048.8639-6.1206,3.4902-8.2854,6.1699-2.4531,12.1633-1.5103,18.0784.9404,3.3484.916,6.6967,1.8323,10.0449,2.7485,1.1221-.3438,2.2954-.4045,3.397-.1169,5.9524,1.554,11.9467.9482,17.9434.4631,2.7.2812,5.2283-.5483,7.8054-1.1445,6.676-1.5444,12.6309-4.6843,18.6726-7.8086,17.374-8.9839,28.1267-22.1392,28.3831-42.5173.0391-3.0979-.792-4.5825-3.8086-5.7842-8.9956-3.5833-17.1921-8.6453-24.6716-14.8279-2.1934-1.6553-4.0842-3.6157-5.8032-5.75-4.1418-4.1736-7.1582-9.2161-10.7136-13.8428-2.8831-3.7517-5.7979-7.5049-10.1538-9.7351-.0015-.0027-.0029-.0049-.0044-.0076-5.98-1.6099-11.98-3.05-18.1899-3.3501-3.95.3801-7.9.3401-11.85.03-1.13-.23-2.2101-.1899-3.17.55-2.1899,1.01-4.52,1.1101-6.87,1.1401-.37.04-.74.0798-1.11.1199-3.53,1.0601-6.13-.1101-7.86-3.3101-.14-3.74-2.1901-7.7898,1.75-10.8799,2.37-1.96,5.09-2.6702,8.12-2.1902,13.11-1.3999,26.1799-2.2397,38.9099,2.3601,10.73,3.8701,17.3501,12.51,24.2202,20.8801,9.7698,11.8999,21.2798,21.6499,36.1599,26.3699,20.5901,6.53,39.8599,3.47,57.79-8.8298,8.4299-5.77,10.8499-4.5,16.26,4.3098,5.0598,8.26,11.6499,15.3301,20.4099,19.98,9.95,5.29,20.8499,7.49,31.8401,8.77,20.0098,2.3201,37.0999-3.02,48.8999-20.6099,2.47-3.6799,3.3799-6.74-1.5-9.3901-4.1401-2.25-7.95-5.0701-11.9199-7.6499-.0046,0-.0125-.0076-.0176-.0081-.0037-.0032-.0093-.0078-.0093-.0078,0,.0012.0005.0024.0002.0034-.3574-.0684-1.3657-1.6709-1.6248-1.9473-.5317-.5671-1.1445-1.0164-1.7183-1.5361-2.9219-2.6472-3.6694-6.9392-.8193-10.0264.1548-.168.325-.3328.5393-.4111,1.0925-.4006,2.1062-.772,3.3101-.5703,4.2332.7083,8.3162,2.2866,11.9343,4.5933,1.7439,1.1118,3.3398,2.2493,5.1628,3.2363,1.9414,1.0508,3.8821,2.1577,5.4729,3.7107,2.3652,2.3091,4.1169,5.5359,7.6794,6.0933.0012-.0007.0017-.002.0029-.0027.6648.6633,1.3298,1.3269,1.9946,1.9902,3.6462,4.7002,8.3579,8.2891,12.8401,12.0859,11.7156,9.9248,24.9834,16.7083,40.6077,16.6531,27.9426-.0989,47.8762-14.6013,63.0149-36.8176,4.2041-6.1694,8.0474-12.7969,8.4146-20.4729.522-10.9099,2.4934-21.3889,7.1536-31.2969.8096-1.7214,1.3777-3.2004.0049-5.0327-5.0151-6.6938-7.9951-14.4329-11.0291-22.1321-3.2432-2.4602-2.5483-6.1731-2.9917-9.5098-.1538-1.1582-.0176-2.5708-1.4307-2.8274-1.0437-.1895-1.9641.8506-2.1587,1.7664-1.6072,7.5615-5.7441,14.4463-5.5,22.5405.1992,6.6038.4316,13.2229-.8789,19.8379-4.3706,22.0637-14.4802,40.4529-33.5581,53.1255-17.8928,11.885-36.4849,10.738-52.8416-2.6812-2.3513-1.9292-4.3079-4.6711-7.6133-5.3269-.3269-.3264-.6541-.6528-.9812-.979v-.0002c-.98-1.7002-2.3201-3.03-4.01-4-.0024-.0002-.0044-.001-.0068-.0015.0022-.0005.0042-.0017.0063-.0024-.6746-1.3293-1.6548-2.3491-3.0183-2.981-.0005.0015-.0012.0029-.0017.0044-6.1101-5.2295-13.2998-8.6699-20.4194-12.1697-12.26-6.03-24.6902-6.9399-37.1602-.5398-5.5,2.8298-7.0398,6.96-4.77,12.8298.6501,1.7,1.4202,3.4001,2.4402,4.9001,3.73,5.5098,4.3799,11.2197.4199,16.6799-4.3501,6.01-10.1699,9.26-17.97,7.3799-4.4873-1.0894-9.0046-2.0588-13.5164-3.0837-2.3914-.2178-3.7942-2.3911-5.9807-3.021-8.3665-5.3296-14.9846-12.4077-20.7329-20.4253-6.53-9.0898-18.75-12.5-29.1301-8.0898-4.8699,2.0698-9.5498,4.6199-14.25,7.0898-20.4199,10.6899-40.0898,5.2002-55.2-9.29-4.1199-3.95-7.8201-8.3999-10.6499-13.0999-7.6401-12.74-20.05-17.45-33.0901-21.0801-14.05-3.9099-28.1799-2.1199-42.3401.47-20.96,3.8401-23.2799,19.9399-19.2599,35.48,2.5199,9.7402,15.97,16.9402,28.67,16.9502h.01c1.6366,1.0127,3.4507,1.0251,5.2965,1.0156,6.1598-.0317,12.3237-.1531,18.4789.0188,10.897.3044,20.2119,4.9309,28.3154,11.7373,6.7805,5.6951,10.0032,13.8108,10.5837,22.3816.866,12.7856-3.9915,25.9688-19.0591,29.8708-7.1006,1.8389-13.7969-.2483-20.6687-.5715-14.4133-.6775-28.7488-2.0125-42.0751,5.9802-10.9501,6.5674-13.8889,21.5513-5.0839,30.7712,12.231,12.8071,21.821,12.3987,37.9951,6.7234Z"/>
      </g>
      <path class="cls-12" d="M829.0517,393.5625c11.79,21.96,10.6899,44.3499,1.55,66.8201-2.04,5-5.71,8.9399-9.4301,12.7998-2.72,2.8301-3.91,5.96-2.3099,9.98,9.58,24.03,3.9299,46.02-9.4301,66.79-11.1901,17.4102-26.91,27.7002-47.8199,29.49-3.42.29-5.96,1.77-6.8501,5.4602-5.02,20.7798-33.3799,40.71-60.79,36.8899-8.6899-1.21-16.8899-3.47-24.6899-7.3301-4.72-2.3401-8.87-1.1499-13.21,1.27-22.11,12.3801-44.0701,11.9001-65.6799-1.3499-5.1201-3.1401-9.8701-6.9001-13.74-11.4902-3.7001-4.3799-8.1001-5.2998-13.4001-4.4199-22.3599,3.72-40.84-4.02-56.5599-19.49-3.15-3.1101-6.43-5.1199-10.54-2.78-4.31,2.46-4.6,6.4001-2.96,10.8701,10.3,28.01,14.49,57,12.88,86.72-1.64,30.0798-8.34,58.96-24.15,84.99-11.25,18.53-16.12,38.8101-18.69,59.9199-.2,1.6501-.21,3.3301-.48,4.96-1.9,11.29-4.76,14.1101-15.74,14.48,1.15-5.0999,2.97-13.1499,4.59-27.77,2.31-20.6997,1.06-26.1299,3.13-38.3499,3.38-19.9299,10.17-25.9199,18.79-46.1699,3.1612-7.4288,10.4664-19.8401,12.5812-35.8454,2.6521-20.0718-15.888-20.8563-15.5046-32.5936.2673-8.1835,20.3478-5.4783,18.5734-25.4812-1.3525-15.246-4.07-30.3699-7.04-45.3899-2.28-11.49-4-18.27,0-23.48,5.85-7.6301,20.5-7.3301,30.52-3.9099,14.16,4.8298,12.55,13.6799,25.04,18,16.62,5.7397,26.41-7.5303,39.91,0,7.58,4.23,6.3,9.4099,15.6599,14.0898,9.1901,4.5901,18.5,3.6201,22.6901,3.1299,15.5699-1.8298,17.9845-14.7794,30.2245-15.2196,10.22-.3599,9.9955,10.1397,24.5554,13.6498,4.9102,1.1899,28.02,6.76,42.26-4.6899,8.8201-7.0901-1.3548-23.3477,8.7052-29.3076,7.14-4.23,18.5949,6.9175,28.8649,4.2576,16.5701-4.29,27.2-15.26,30.52-18.78,5.37-5.6799,18.75-19.8401,17.22-36.78-1.1-12.1499-15.6226-16.1149-15.4425-28.9149.14-9.8098,11.6124-15.4252,15.4425-21.955,7.5701-12.9102,11.9299-11.71,14.87-20.3501,2.91-8.5601,1.01-16.76-2.35-31.3-2.74-11.8601-13.6103-13.6992-12.3104-20.6992,1.26-6.8301,12.5904-8.2407,17.0103-17.6506,2.55-5.4502,8.3301-17.77,5.47-30.52-1.0999-4.9102-2.08-3.6602-9.3899-18.79-5.1301-10.6201-16.8734-14.5803-17.0034-18.9003-.29-9.8298,15.0335-14.4698,17.7935-24.1397,4.3398-15.2-4.4001-30.0801-6.26-33.6499-6.05-11.5601-17.417-13.1144-18.5769-21.5843-1.14-8.3999,9.847-9.0058,12.3069-21.4657,2.98-15.03-1.0801-28.1501-2.3401-32.0801-4.45-13.8401-19.2708-14.082-20.1408-25.0019-.4199-5.2603,9.7509-9.8382,13.8807-21.9581,7.42-21.8201,11.1401-32.73,13.3-36,1.63-2.47,3.53-4.77,5.6-6.8899,10.29,18.3799,10.5,38.1899,1.65,58.73-1.74,4.0298-1.63,7.02,1.02,10.5098,15.28,20.0601,15.98,41.8101,7,64.54-.73,1.8501-1.77,3.5701-2.6899,5.3401-1.7301,3.3-1.5,6.3201.98,9.22,11.52,13.4302,16.51,28.97,15.03,46.6201-.6702,8.0601-2.8201,15.6899-7.1001,22.5601-2.6599,4.2698-2.6599,7.73.8501,11.6399,18.72,20.8298,20.0199,53.3,3.0199,75.46-3.4301,4.46-3.47,8.4399-.87,13.29Z"/>
      <path class="cls-14" d="M115.1636,28.4571c1.722-1.2385,4.9247-3.4985,9.9131-4.9565,16.2893-4.7607,39.7197,2.5098,45.6521,6.3914,1.5699,1.0271,2.3633,2.1108,2.6088,3.261.4033,1.8899-.6161,4.2227-2.2174,5.2173-2.583,1.6045-5.8898-.7632-11.7391-3-3.5592-1.3611-7.5468-2.1248-15.5217-3.6521-9.1317-1.749-13.6975-2.6233-18.1305-1.8262-8.8069,1.5837-9.7825,1.8262-9.7826,1.8262-2.7194.6755-4.558,1.2793-4.826.7825-.4324-.8015,3.6157-3.7358,4.0435-4.0435Z"/>
      <path class="cls-14" d="M205.0005,49.8157c1.5857-1.1838,3.1339-1.3079,7.8262-1.4673,6.2943-.2136,7.6349-.1306,8.6086.9783.0531.0605,1.2152,1.417.7826,2.5435-.8275,2.1548-6.8002,1.6736-7.924,1.5652-3.4467-.3323-3.7937-1.2563-6.9456-1.1738-2.2577.0591-3.8196.5789-4.1088,0-.2781-.5566.8153-1.7397,1.7609-2.4458Z"/>
      <path class="cls-14" d="M226.131,49.7181c.923-.1931,3.1184-.4778,5.3804.7825.6864.3823,2.2784,1.2693,2.1522,2.1523-.1725,1.2073-3.4321,1.5364-3.7174,1.5652-.8907.0898-2.7745.2534-4.5-.8806-.2498-.1641-2.0139-1.3235-1.7609-2.3477.198-.8015,1.5226-1.0786,2.4457-1.2717Z"/>
      <path class="cls-14" d="M278.1744,74.2723c-.1189-.6514,7.7642-2.637,14.8695-3.8152,0,0,10.1101-1.6765,19.0762,1.4675,1.3855.4858,1.7009,1.0066,1.7607,1.3694.1538.9319-1.208,1.8501-1.3694,1.9565-1.9839,1.3071-4.4639.4504-7.5327-.1956-2.7627-.5815-5.6174-.584-8.4131-.9783-10.3478-1.4595-18.2716.8508-18.3912.1956Z"/>
      <path class="cls-14" d="M358.2939,90.6746c.0132-.4583.3247-1.0134,3.261-2.4783,4.1785-2.0847,6.8711-3.3813,9.6521-2.4783.2737.0889,2.1619.7019,2.2173,1.6956.0188.3384-.1699.8032-1.3042,1.5652-2.3984,1.6116-3.7566,1.0129-6.3914,2.2175-2.2334,1.0212-2.3274,1.9404-3.7825,1.9565-1.7561.0195-3.6863-1.2961-3.6523-2.4783Z"/>
      <path class="cls-14" d="M377.468,84.2833c.4275-.7312,1.395-.3835,3.9128-.7827,2.5642-.4067,3.2234-1.031,4.8262-.6521.4524.1069,1.5701.3713,1.8262,1.1738.1941.6077-.2034,1.2185-.261,1.3044-.1814.2703-.6978.8828-3.7825,1.1738-2.011.1897-1.7678-.0728-3.5217.1304-1.322.1531-1.8276.3447-2.3479,0-.7-.4639-1.0576-1.6541-.6521-2.3477Z"/>
      <path class="cls-14" d="M438.3157,97.8485c-.7407-2.3147,7.5115-7.5813,15.261-10.5652,10.3545-3.9866,20.8582-4.3008,21.1304-3.1304.1318.5671-2.2522.9905-6.8479,3.9128-2.4963,1.5874-4.7295,3.406-9.1956,7.0435-4.27,3.4778-4.6802,4.0103-6.261,4.5-2.5317.7842-4.8298.4558-8.0217,0-3.8435-.5491-5.7654-.8235-6.0652-1.7607Z"/>
      <path class="cls-14" d="M518.9243,89.044c-.7102-1.2817,6.7705-6.7415,12.1306-9.9783,10.9998-6.6423,16.7285-6.1326,18.5869-5.8694,2.6594.3767,6.7065,1.5671,6.8479,3.3259.136,1.6907-3.3889,3.2637-5.2827,4.1086-5.3923,2.4062-9.9976,2.7004-12.3262,2.9348-12.3667,1.2451-19.2659,6.7246-19.9565,5.4783Z"/>
      <path class="cls-14" d="M598.8157,70.7181c-.3496-3.3816,3.584-6.1296,9-9.9131,4.0649-2.8396,6.1824-3.5439,8.3479-3.5217.3301.0034,3.5637.0618,3.9131,1.3042.4949,1.7603-5.094,4.8474-6,5.3479-1.781.9839-2.1565.9436-3.6523,1.6956-6.3135,3.1736-8.3564,8.2798-10.3042,7.5654-1.0608-.3892-1.2761-2.2053-1.3044-2.4783Z"/>
      <path class="cls-14" d="M622.6853,52.9788c.9165-2.4841,4.9465-2.7734,9.9131-3.1304,2.8564-.2053,3.6487.1047,4.0435.6521.8555,1.1858-.2168,3.3987-1.1738,4.5652-1.4751,1.7979-3.6533,2.0781-6.3914,2.4783-2.5552.3735-4.0508.592-5.2175-.3911-1.1106-.936-1.6926-2.7676-1.1738-4.1741Z"/>
      <path class="cls-14" d="M674.8591,41.7615c-1.3032-3.9602,4.7712-9.2695,9.1306-11.7393,4.2839-2.427,11.5205-4.7229,13.5652-2.0869,1.3582,1.751.3293,5.554-1.8262,7.5652-2.4939,2.3271-4.6965.5764-8.6086,2.6086-4.718,2.4509-4.9924,6.804-8.0869,6.7827-1.7878-.0125-3.6306-1.4788-4.1741-3.1304Z"/>
      <path class="cls-14" d="M700.9788,23.794c1.6235-3.5911,6.947-3.8804,11.1521-4.1086,2.4199-.1315,3.5759.1713,4.2065.9783,1.0173,1.3018.25,3.3806.1958,3.5217-1.1353,2.9565-5.0007,3.8652-9.7827,4.9893-3.7422.8796-4.6104.4795-5.0869.0977-1.387-1.1116-1.4885-3.7007-.6848-5.4783Z"/>
      <path class="cls-14" d="M389.8391,618.782c-.8669-1.281-1.4802-2.7554-1.9199-4.2456-1.7507-5.9336-1.0659-12.2773-.366-18.4241,1.3247-11.6343,2.7578-23.4619,6.8118-34.5186,1.8123-4.9424,11.7209-27.7227,19.5835-17.1987,2.106,2.8188,1.9749,6.6943,1.407,10.167-3.0183,18.457-15.6162,35.3745-13.6489,53.9729.2573,2.4326.7671,4.8672.5447,7.3035-.2222,2.436-1.3455,4.9651-3.5188,6.0881-2.2214,1.1477-5.0664.5171-7.0076-1.0588-.7349-.5967-1.3574-1.3052-1.8857-2.0857Z"/>
      <path class="cls-14" d="M392.9897,687.544c-1.7014-2.1628-.4585-4.0835.9128-14.0869.8655-6.313.781-8.5439,2.8696-10.3042,1.4087-1.1873,4.1931-2.4873,5.8696-1.1741.9939.7786.967,2.2539.7825,5.2175-.5056,8.1218-1.0791,10.3389-1.6956,15.6521-.5166,4.4524-.4575,5.8606-1.6956,6.6521-1.8494,1.1824-5.3511.1948-7.0435-1.9565Z"/>
      <path class="cls-14" d="M404.6636,725.6964c-1.1646-6.6907-.1128-7.6455-1.5652-9.3914-1.5483-1.8613-4.5723-2.9736-6.0652-1.9565-1.2834.8743-1.0376,3.0515-.5869,7.0435.5293,4.6885.8386,7.428,2.9346,8.6086,1.7107.9636,4.3191.7239,5.2827-.5869.6064-.825.3389-1.771,0-3.7173Z"/>
      <path class="cls-7" d="M202.1636,247.9136c.3958-8.1707,3.6399-14.1504,5.674-17.8044,0,0,4.9578-8.906,15.0652-16.239,2.0739-1.5046,4.5002-3.0078,5.8695-2.1521,1.321.8254,1.035,3.4575.9783,3.9128-.5613,4.5012-4.9366,6.5-9.5869,10.3696-.3582.2981-8.4066,7.1204-12.7174,16.8262-3.3965,7.6472-3.168,14.147-4.1086,14.0869-.7946-.0508-1.3816-4.7141-1.174-9Z"/>
      <path class="cls-7" d="M203.3375,274.5875c-.8223-1.0869-1.1246-2.5654-1.6957-5.4783-.5415-2.762-.4396-3.489,0-4.0435.4834-.6096,1.4003-1.0425,2.0869-.7825.1819.0688.8019.3584,1.174,2.3477.3651,1.9521-.0085,2.8674,0,4.3044.0205,3.4565,2.2261,5.4443,1.6957,5.8696-.4316.3462-2.1567-.7583-3.2609-2.2175Z"/>
      <path class="cls-7" d="M211.6774,339.6024c4.041-5.9175,8.5426-13.0759,15.748-15.0125.6586-.177,1.3547-.3108,2.0184-.1538,1.1204.2649,1.9547,1.5017,1.6627,2.6155-.2644,1.0088-1.2438,1.6318-2.1333,2.176-5.9298,3.6287-11.3912,8.2559-15.0261,14.1819-.3345.5454-.7203,1.1519-1.3445,1.2922-.7036.1582-1.3867-.3621-1.8025-.9514-.3561-.5046-.6106-1.1213-.5177-1.7322.0762-.5007.3733-.9358.6625-1.3518.2428-.3491.4868-.7043.7324-1.064Z"/>
      <path class="cls-7" d="M210.381,347.3702c-.5818-.6772-1.8068-.7129-2.6088-.3914-.7922.3174-1.1407.9709-2.4783,4.8262-1.2017,3.4636-1.2694,3.9424-1.0435,4.5652.6346,1.7495,2.9741,2.9512,4.0435,2.3479.8026-.4529.3572-1.6218.7827-4.4348.6274-4.1472,2.2347-5.8303,1.3043-6.9131Z"/>
      <path class="cls-7" d="M395.0767,389.1746c5.4077-5.9026,12.5217-8.2175,12.5217-8.2175,3.2493-1.0574,8.4834-2.696,15.0652-1.6631,2.1375.3354,9.2168,1.446,10.2717,5.2827.0698.2544.4126,1.6086-.2935,2.6414-.7822,1.1443-2.4946,1.3713-7.7283,1.0759-4.1936-.2368-4.4109-.4568-7.1414-.5869-3.8892-.1853-6.5286-.3113-9.7825.5869-2.843.7847-4.7251,1.3042-6.75,2.7393-.8301.5884-2.1213,1.6404-4.1089,1.9565-1.2961.2061-1.9028.3459-2.3477,0-.771-.5996-.606-1.9163-.5869-2.0544.1182-.8528.6047-1.46.8804-1.7607Z"/>
      <path class="cls-7" d="M401.5984,235.0657c.8845-1.5029,3.1206-1.4399,6.5217-1.6956,6.5972-.4958,5.3408-1.2705,10.3042-1.4348,6.1738-.2046,10.3066.9214,11.6089,1.3044,2.7341.8042,6.6797,1.9648,6.9131,4.1738.1165,1.1021-.708,2.3074-1.6958,2.8696-1.6436.9353-3.2405-.1934-7.6956-1.1741-.6792-.1494-2.105-.3606-4.9565-.7825-4.7859-.7083-7.2151-1.0593-9-.9131-3.0217.2476-5.3479.7827-5.3479.7827-.3804.0874-1.7803.4167-3.6521.5217-2.0186.113-2.4819-.1528-2.7393-.3914-.7751-.7192-.842-2.2732-.2607-3.261Z"/>
      <path class="cls-7" d="M396.2505,235.6854c-.3584-.1833-1.0754-.3882-6.6033,3.1304-1.2095.77-2.1338,1.3899-2.0542,2.1033.073.6533.9502,1.0466,1.125,1.125,1.0955.491,2.2532.0728,3.1304-.2444,1.0515-.3799.8667-.5513,2.4946-1.2717,1.0459-.4629,1.4019-.5161,1.9563-.9783.384-.3203,1.0337-.8616,1.125-1.6631.0938-.8232-.4136-1.8123-1.1738-2.2012Z"/>
      <path class="cls-11" d="M173.8452,556.4019c-12.5698,12.1599-25.8099,22.75-43.8599,26.03-16.7001,3.04-33.5701,1.3101-48.3801-5.02,8.5601.0601,19.5801-.8999,29.78-8.4302,11.96-8.8398,15.92-21.6599,17.21-25.8298,7.9001-25.51-6.2899-47.26-10.1699-53.22-3.84-5.8801-7.6499-11.5601-14.87-14.8701-11.98-5.47-25.52-.8198-25.83-2.3398-.26-1.29,9.9099-2.03,16.7-9.4001,4.3501-4.71,5.24-9.8999,6.78-18.78,1.03-5.9399,3.28-19.96-2.6101-35.48-1.8799-4.95-3.24-8.54-6.7799-12-7.39-7.21-17.2899-7.0601-17.2201-9.3899.0701-2.1799,8.6702-1.04,14.6101-6.26,1.84-1.6201,4.55-4.8301,6-27.1299,1.38-21.2402-.46-27.8301-2.3501-32.3501-1.3099-3.1602-2.97-7.02-6.7799-10.4302-6.17-5.5298-13.75-6.0999-13.5599-7.3098.1699-1.1799,7.23.8799,13.0399-2.0801,6.23-3.1799,8.01-10.5999,10.9601-23.74,2.21-9.8901,4.6399-21.3201,1.0399-34.7-1.2001-4.45-2.3099-8.3899-5.74-12-6.4501-6.78-16.12-7.1201-15.91-8.6101.17-1.1899,6.26.04,12.52-2.5999,5.66-2.3901,8.72-6.78,11.74-11.22,5.8601-8.6301,7.72-19.0701,11.22-39.5901.9401-5.53,1.72-10.99-1.3699-15.46-1.6301-2.3401-3.8101-3.6599-7.4401-5.8701-7.24-4.3899-12.49-5.4199-12.3199-6.26.1699-.8599,5.8398-.2,12.1299,0,7.23.24,11.9301-.22,15.1201-.6199.49.8499,1.1199,1.71,1.8899,2.5701,1.47,1.6499,2.21,3.1499,1.72,5.3398-4.8699,21.75-7.51,43.8401-10.0599,65.95-5.24,45.4102-7.2001,90.9802-5.4601,136.6201,1.53,39.95,6.4701,79.49,19.51,117.6101,6.2201,18.1799,14.8801,34.75,29.3801,47.9299,10.1,9.1699,16.33,20.8499,19.9099,33.98.48,1.78,1.21,3.26-.55,4.96Z"/>
      <path class="cls-11" d="M77.9653,575.742c-15.38-7.54-28.2-20.27-35.77-38.0103-7.8-18.2898-10.13-36.71-2.3301-55.6099,1.48-3.6001.9601-6.99-1.99-9.5801-18.3499-16.1799-23.8099-55.8799-7.8599-78.97,3.1899-4.6199,1.98-8.73-.9401-12.8499-14.4801-20.46-15.74-42.0801-5.5599-64.6501,2-4.4399,4.95-8.2898,8.0499-11.99,2.7001-3.22,2.8199-6.49.92-10.1399-12.79-24.5701-9.22-47.4402,7.25-68.9402,4.6399-6.0698,4.71-6.7197.83-13.2798-11.77-19.9102-9.85-48.5,4.87-66.6101,3.51-4.3101,3.4-7.48.97-12.4399-9.1899-18.76-8.08-37.3601.8701-55.0901-.04,6.1802.1499,13.2002.71,21.05.9199,12.74,2.4399,22.3101,9.3999,30.1301,7.3601,8.2798,17.8901,11.2998,17.21,13.2998-.74,2.1802-12.46-3.54-21.9099,1.96-6.5901,3.8301-8.96,11.3101-11.15,18.2002-3.6,11.2998-2.41,20.8499-1.7599,25.6299,1.21,8.95,2.8099,20.8201,11.74,28.3701,4.5798,3.8699,10.0699,5.73,9.5798,7.24-.5,1.5398-6.0898-.3601-11.9299,1.95-6.08,2.4099-9.0701,8.04-11.35,12.3301-5.01,9.4299-4.87,18.22-4.7001,29.54.1801,11.1299,2.02,15.5098,2.6101,16.8298.8899,1.98,3.49,7.6301,9.26,12.1301,4.7999,3.7397,10.08,5.3599,9.79,6.2598-.1401.4102-1.3101.29-3,.2603-4.9302-.0801-9.3601.7197-11.7401,1.5598-3.5299,1.25-5.61,3.6401-7.4401,5.74-5.21,5.99-13.0099,21.4001-10.4299,41.3501.99,7.6399,3.02,24.6899,15.13,31.5698,6.17,3.5103,15.03,4.2803,14.87,5.7402-.11.9399-3.83.6499-8.61,2.3398,0,0-6.09,2.1602-11.22,7.5701-6.75,7.1101-6.77,17.28-6.78,26.3499-.01,7.0801.15,21.0601,9.13,34.4302,3.46,5.1599,7.5801,11.3,15.0701,13.7,6.6199,2.1199,12.1099.1001,12.9099,2.1501,1.0701,2.75-8.8899,6.1699-13.8899,16.2397-2.7301,5.4902-2.76,10.5-2.7401,15.8501.05,13.24,4.5699,23.5701,7.6901,30.0601,11.3199,23.52,21.1299,31.4099,24.24,38.3301Z"/>
      <path class="cls-11" d="M199.2053,546.472c-4.29,1.7-6.15,2.3499-7.49,1.0999,3.48-3.5901,8.02-8.6299,12.3999-16.1599,4.5-7.73,12.1801-20.9199,9.4001-36.78-.4801-2.7-2.6401-15.05-12.9202-23.0901-5.2999-4.1499-10.9399-5.72-12.9099-6.2598-12.12-3.2803-19.8,1.0198-21.9099-2.3501-1.9202-3.0601,4.3499-6.76,6.6499-16.04,3.0901-12.47-3.62-24.4199-7.04-30.52-4.1199-7.3301-8.8199-11.99-10.1799-13.3101-12.12-11.6799-23.77-12.2-23.87-16.8198-.0699-3.3201,8.3199-2.5601,17.22-10.1802,1.62-1.3799,5.89-5.1099,8.74-11.0801,4.63-9.7197,2.65-19.3599.78-28.4399-.84-4.0698-2.58-10.7-6.52-18-2.7101-5.02-4.2899-7.96-7.5699-10.6899-8.0601-6.74-18.1801-5.3701-18.26-7.3101-.05-1.3599,4.96-2.0601,9.53-3.72,10.08-3.6599,21.1899-13.1499,24.6499-26.02,3.3-12.28-1.58-23.0999-3.3899-27.1299-1.3701-3.03-2.74-6.0701-5.74-9.1301-8.4601-8.6099-21.01-8.3899-20.8701-9.6499.1201-1.1299,9.9301,1.6599,18-3.1299,7.6899-4.5701,10.01-13.77,11.48-19.5701,1.3-5.1702,4.28-16.9402-1.83-23.73-2.99-3.3301-5.35-2.3501-9.7799-5.4802-4.75-3.3599-8.1901-8.8398-9.8801-13.6399.3201.1301.6901.3201,1.1101.5801,10.3799,6.46,21.4099,11.3699,33.49,13.6899,2.45.47,2.95,2.05,2.9399,4.3601-.0801,13.8398-3.4099,26.74-11.5,38.0298-3.86,5.3901-4.13,9.6702-.8401,15.8101,11.3801,21.1899,9.1501,42.4702-2.74,62.6602-3.95,6.7-4.49,11.54-.48,18.5698,12.24,21.4702,13.17,43.4902.3,65.3501-3.35,5.7-3.0601,8.4099,1.45,12.8701,14.2101,14.0298,20.6501,31.0398,19.77,50.8999-.05,1.1699-.08,2.3301-.11,3.5-.15,8.1499.0599,8.5801,7.85,10.8301,12.98,3.7598,23.3901,11.0798,30.77,22.3899,15.76,24.1599,5.6001,57.1599-20.7,67.5901Z"/>
      <path class="cls-11" d="M694.8152,146.3719c8.6802-1.1699,16.3101-3.26,22.29-5.3301-6.54,4.8201-13.5601,8.9102-21.3398,11.9102-14.3501,5.5298-29.03,6.9099-44.0901,4.3301-4.5701-.7803-8.1199.2798-11.23,3.6199-11.55,12.3899-25.75,19.6499-42.55,21.9299-11.77,1.6001-23.3799,1.0701-34.1599-4.0698-6.0801-2.8901-10.6201-2.2603-16,1.5898-20.8301,14.8799-43.47,18.02-67.6201,9.1602-1.3999-.5103-2.8298-1.0601-4.0701-1.8501-4.7698-3.0601-9.0498-2.27-13.98.3101-22.22,11.6199-44.5898,11.6499-66.72-.4302-3.8799-2.1199-7.6499-3.1599-11.8198-1.1699-25.1401,12.03-49.1401,8.71-71.9302-5.98-5.7898-3.73-10.6399-4.1899-17.1399-1.97-28.46,9.73-54.0701,4.78-75.67-16.75-3.72-3.7-7.48-5.05-12.49-4.24-29.36,4.77-53.98-4.9399-75.2699-24.77-2.6301-2.45-4.9601-3.6699-7.1301-3.71,2.8301-1.6501,7.8-3.0601,18.53.46,9.0901,2.99,13.6699,6.6699,19.3,9.9099,4.86,2.8,25.5699,14.73,39.9199,8.6101,13.21-5.6301,16.6801-24.71,19.3-23.74,1.52.5701-.63,6.6299.52,15.1299,1.29,9.4402,5.9199,16.52,8.35,19.5701,5.4401,6.8201,16.89,8.5701,39.26,12.52,6.3199,1.1201,12.01,1.8599,18.7799,0,2.75-.75,8.05-2.21,12.53-6.6499,6.6599-6.6101,6.6501-15.04,8.6001-14.8701,1.6699.1401,1.1299,6.26,3.9199,12.52,4.1501,9.3301,13.3101,13.6499,18.3899,16.05,14.8601,7,28.77,3.8398,32.8701,2.73,5.8201-1.5701,12.97-3.5,17.22-9.78,4.4202-6.54,3.3901-14.3901,5.0801-14.48,1.48-.0701,1.8699,5.9299,5.0901,11.74,4.6399,8.3799,12.7898,12.0798,17.22,14.0901,16.76,7.6099,32.6599,2.0398,36,.7798,4.9199-1.8599,11.3499-4.29,16.0398-10.5601,6.4001-8.5498,5.4202-18.6899,7.8301-18.7898,1.96-.0701,2.1001,6.72,6.26,12.9199,6.8401,10.22,20.25,12.3501,26.21,13.3,4.72.75,26.0901,4.1499,36.4001-7.8201,9.24-10.75,4.4199-27.8601,8.5999-28.5701,2.74-.47,4.3,6.9302,11.3501,13.7002,7.5901,7.2798,16.6199,9.0999,23.8699,10.5601,7.3701,1.4897,27.5701,5.5598,42.0701-6.4602,2.0701-1.72,6.8201-5.74,9.5801-12.52,4.6299-11.3298,0-21.24,2.9399-22.6899,2.6899-1.3298,6.5901,7.6301,15.26,13.8899,13.73,9.9102,31.53,7.5,43.6299,5.8701Z"/>
      <path class="cls-11" d="M730.8152,135.0218c0,.03-.23.1802-.6599.4302.4299-.3101.6501-.4502.6599-.4302Z"/>
      <path class="cls-14" d="M318.3884,159.301c-.9234-1.0422-3.6602-4.224-3.9164-9.0571-.2474-4.6642,1.8205-10.7624,6.6089-12.7285,2.9732-1.2209,7.1141-.8974,8.0778.9793.9014,1.7551-1.8574,3.1528-2.6925,7.5882-.4585,2.4341.1808,3.0319,1.2239,11.26.6897,5.4397.5391,6.1932,0,6.6089-1.7252,1.3299-6.5161-1.5065-9.3017-4.6507Z"/>
      <path class="cls-14" d="M392.675,158.1852c-2.2825-2.9763-4.6745-6.0954-3.6001-9.5148,1.2707-4.0442,6.7667-6.5212,9.0004-5.1433,1.1831.7297.5818,2.0049,1.8002,6.9435,1.1668,4.73,2.2652,5.7758,1.5429,7.7146-.6537,1.7546-2.4763,3.3771-4.3715,3.3431-1.7967-.0321-2.9898-1.5409-4.3719-3.3431Z"/>
      <path class="cls-14" d="M397.8183,166.6716c-.9521,2.3798,1.6276,6.3624,4.8859,6.4291,2.2601.0465,4.729-1.7932,4.8863-4.1145.1415-2.089-1.6619-3.4958-1.8002-3.6004-2.4751-1.8695-7.0128-1.1116-7.972,1.2858Z"/>
      <path class="cls-14" d="M227.9209,149.9649c-5.5805-1.7856-4.2702-17.6589-4.1873-18.5807.384-4.2694.9717-10.8038,5.234-12.8232,1.8922-.8964,4.8192-1.0499,6.2807.5235,1.8016,1.9397.4586,5.5159.2617,6.0191-1.1155,2.8492-2.8497,2.5938-4.1871,5.234-2.0013,3.9507-.2054,8.6436,0,9.1592,1.4775,3.71,3.9169,4.2478,3.6638,6.281-.3081,2.4753-4.3447,5.0577-7.0659,4.1871Z"/>
      <path class="cls-14" d="M477.5446,165.2245c-1.5104-1.5741-4.7957-4.9978-5.354-10.7079-.2382-2.4359-.5589-5.7162,1.6295-8.1474,1.5805-1.7559,4.5139-3.1188,6.2849-2.0949,2.0292,1.1729,1.7733,5.0405,1.6295,7.2162-.2301,3.4793-1.2737,3.6669-.9312,5.8196.5316,3.3401,3.2207,3.9966,3.0264,6.7505-.106,1.5035-1.0402,3.1891-2.3278,3.4918-1.3783.3239-2.7211-1.0396-3.9574-2.3278Z"/>
      <path class="cls-14" d="M488.0199,174.5358c-2.2108-.1339-4.8038-1.9032-4.6557-3.9574.0819-1.1363,1.0044-2.3856,2.0949-2.5605,1.0483-.1679,1.4448.7869,4.19,2.5605,1.8605,1.202,2.5413,1.3208,2.5608,1.8622.0354.9838-2.1541,2.2186-4.19,2.0952Z"/>
      <path class="cls-14" d="M561.3809,153.6746c-1.2581.1406-1.78-.9954-6.2607-6-3.6775-4.1072-4.491-4.6436-4.4348-6,.1062-2.5637,3.1951-5.0654,6.261-5.2175,1.6313-.0808,3.9009.4714,4.9563,2.0869.7051,1.0793.219,1.6389.7827,3.6523.7559,2.6997,1.9741,2.9229,2.3479,4.6956.5847,2.7737-1.488,6.5408-3.6523,6.7827Z"/>
      <path class="cls-14" d="M575.9897,155.7615c-1.3997-2.2581-4.9431-3.2144-6.7827-1.5652-1.3901,1.2461-1.4272,3.6394-.5217,5.2173,1.3967,2.4338,5.2551,3.3088,7.0435,1.5652,1.304-1.2712,1.2261-3.6604.261-5.2173Z"/>
      <path class="cls-14" d="M658.5479,136.5357c-2.783-.5647-6.3499-1.2886-10.0176-4.5842-2.1865-1.9646-6.4307-5.7783-5.6033-10.1875.4011-2.137,2.1523-5.2593,4.9241-5.2634,2.946-.0044,4.8987,4.7764,5.0938,5.2634.8406,2.0984.3081,2.7698,1.3584,4.4146,1.103,1.7273,2.7554,2.655,4.075,3.3958,2.6116,1.4663,3.6528,1.1448,4.4146,2.3772.7874,1.2742.7036,3.2832-.3398,4.2446-.7551.696-1.9075.7451-3.905.3396Z"/>
      <path class="cls-11" d="M765.1753,35.2518c-18.76,3.5801-34.4199,12.1201-49.3401,22.3701-25.47,17.48-53.8298,28.6602-83.0898,37.9199-32.0601,10.1401-64.8701,16.8401-98.05,21.6702-44.55,6.48-89.3699,9.3-134.3801,6.96-35.3599-1.8401-70.47-5.9299-105.3198-12.3899-36.8101-6.8301-72.79-16.3601-107.6101-30.2002-15.51-6.1699-30.21-13.76-43.83-23.47-15.13-10.77-31.38-19.1699-50.86-22.21.3999-.4399.8-.8699,1.21-1.27,5-.0801,11.24.6399,17.74,1.3899,12.96,1.5,25.72,2.9702,36,12.2603,5.39,4.8799,8.15,10.1299,16.17,13.0398,3.17,1.1501,7.97,2.8901,12.7799,1.05,4-1.53,6.03-4.78,7.8301-3.9099,1.27.6099.9,2.55,2.0901,6.26,0,0,.8699,2.73,3.3899,6.7798,1.74,2.8,5.6899,7.05,21.13,12.7803,10.08,3.7397,18.63,6.8298,29.4801,6.5198,5.6299-.1499,9.0898-.25,13.0399-2.3398,4.48-2.3701,6.87-5.8601,9.13-4.9602,1.6.6401,1.28,2.7402,3.13,5.7402,1.75,2.8298,4.0299,4.2,7.0399,6,6.7201,4.02,14.5,5.8198,21.9202,7.8198,16.1299,4.3601,16.4399,5.21,21.9099,5.48,7.29.3701,12.05.6101,16.7-2.3499,3.73-2.3701,5.6401-5.7,8.8701-5.2102.9099.1401,1.6299.54,5.47,3.9102,2.8899,2.53,4.3301,3.8,5.74,5.22,5.25,5.26,17.01,4.46,34.96,7.04,12.0801,1.74,15.3501,3.3401,21.6501,1.5701,4.6799-1.3201,9.3198-2.6301,12.2598-6.79,1.5801-2.23,2.3101-4.76,4.1802-4.9502,1.8398-.1899,3.26,2.04,4.6899,3.6501,2.76,3.0901,6.54,4.3201,14.0898,6.78,11.8401,3.8599,22.8501,2.6499,44.8701.26,2.9199-.3101,6.9299-.8,10.4299-3.6501,3.9202-3.1799,5.74-7.04,5.74-7.04,1.1802-2.48,1.28-4.1899,2.3501-4.4399,1.6799-.3799,3.7,3.3,4.7,4.7002,6.3201,8.8799,25.8601,2.5298,56.8701-1.5701,2.8201-.3701,8.3499-1.0701,12.52-5.21,3.0198-3.01,4.5798-7.0801,4.95-8.0901,2.02-5.3999,1.4099-9.45,2.6099-9.6499,1.1101-.1899,1.75,3.22,4.1802,5.74,2.8599,2.97,7.23,3.6699,14.8699,3.3899,8.6101-.3301,12.8701-1.6001,33.3901-6.53,7.1899-1.72,10.49-2.48,14.0798-5.47,1.4399-1.2,6.77-5.6299,7.8301-12.53.76-4.9199-1.1001-8.2898.52-9.3899,1.6099-1.0801,4.47,1.53,7.3101,2.8699,6.76,3.2,12.3899-1.26,32.3398-9.1299,15.8-6.22,20.8-6.78,25.05-13.04,1.1001-1.6199,4.05-5.97,3.6501-11.48-.29-4.04-2.2402-6.8601-4.25-9.0801,1.52.23,3.0498.51,4.5898.8501,11.5901,2.52,21.95,7.3601,31.28,16.3298Z"/>
      <path class="cls-7" d="M531.6418,387.0223c-4.1479-1.1677-7.2805.3843-17.4131,5.2827-12.8687,6.2212-16.6174,7.9729-18,12.3259-.1414.4453-1.1802,3.7163.1956,4.8914,1.2043,1.0286,3.804.0627,12.522-4.8914,10.4758-5.9531,9.9751-6.4072,14.0869-8.2173,8.1619-3.5933,13.7312-3.3875,13.8911-5.4783.1191-1.5579-2.8535-3.2292-5.2825-3.9131Z"/>
      <path class="cls-7" d="M488.9897,410.1092c-1.8037-.6509-5.5049,2.5049-5.2827,5.6741.0837,1.1946.7522,2.7805,1.9565,3.1304,1.7803.5171,4.2043-1.8206,4.6956-4.3044.3342-1.6899-.1084-4.0449-1.3694-4.5Z"/>
      <path class="cls-11" d="M619.7153,534.1219c-.05.01-.1101.02-.1599.03.1199-1.1501.2898-2.29.48-3.4099,1.3999.3899,2.99.48,4.77.3499,3.95-.3,7.95-.22,11.9199.02,1.6399.1001,3.8398-.4399,4.3699,2.1301-7.0798,1.1399-14.25-.3201-21.3799.8799Z"/>
      <path class="cls-10" d="M779.4653,378.5418c-.1001,1.9302-5.77,1.6602-10.95,5.48-2.6702,1.9702-4.98,4.8501-8.6101,15.6501-2.4099,7.1599-5.3799,16.22-6.79,30.26-1.1799,11.8699-1.77,17.7998.79,22.7,4.1799,8.01,12.21,10.54,11.21,14.0901-.7,2.5-4.8499,1.7798-10.6899,4.4299-6.6899,3.03-10.6399,8.8-18.52,20.3499-3.8201,5.5801-6.72,9.8801-9.3899,16.4302-2.7002,6.5898-4.54,11.1001-4.3101,17.22.27,7.1499,3.1099,10.02,1.1799,12.52-1.8499,2.3799-5.6799,1.3999-15.27,1.1799-1.6299-.04-9.6899-.23-15.26.3901-3.8198.4199-17.73,1.97-26.21,11.7397-6.72,7.7302-5.21,15.0701-10.96,17.2102-.95.3599-3.5701.97-14.0901-4.3-9.6299-4.8301-14.8-7.4199-18-11.3501-.96-1.1699-1.73-2.45-2.3298-3.8101,7.47,2.29,15.1699,2.4001,22.8101,1.3201,39.3198-5.51,65.8198-28.2898,82.7798-63.0198,11.49-23.5103,16.49-48.9402,20.4502-74.6501,6.3198-41.01,6.8198-82.27,5.6399-123.5701-.8601-29.77-3.4199-59.4399-7.51-88.97-2.3301-16.78-4.3999-33.5901-8.1799-50.1299-.6501-2.8101.52-4.77,2.25-6.7,1.1699-1.3101,2.0898-2.73,2.52-4.3,1.3,1.1599,3.1399,2.6199,6.1399,3.48,5.28,1.52,9.3901-.2102,9.9102,1.05.5598,1.3499-4.1401,3.3699-7.3,7.2998-2.3301,2.8901-3.78,6.7402-3.3901,21.3901.4202,16.3599.6401,24.54,4.1702,29.22,5.9299,7.8699,15.8198,9.3801,15.1299,12.52-.5601,2.53-6.99,1.6199-10.4299,6.52-1.75,2.49-1.8301,5.1899-1.8301,8.0901,0,11.1699,1.22,20.5098,1.5601,24,1.6299,16.4099-1.1301,20.5,3.3999,27.1299,3.0601,4.49,7.04,7.3101,7.04,7.3101,5.78,4.0898,10.9399,4.21,10.96,6,0,1.9399-6.1499,1.8499-10.96,6.7798-1.8201,1.8601-3.1101,4.0901-4.4399,8.0901-4.8501,14.6001-3.5901,32.8801-3.1301,38.6001,1.6101,19.6599,4.73,23.0398,6,24.27,5.8801,5.6299,14.74,5.6799,14.6101,8.0798Z"/>
      <path class="cls-14" d="M750.7722,175.7181c-1.9651-.3757-3.1787-9.3147.1958-16.8262.6143-1.3672,4.072-9.064,9.3911-9,2.5439.0305,5.4075,1.835,5.6741,3.9131.2739,2.1367-2.3101,3.6836-4.8914,6.0652-8.209,7.5737-8.4067,16.2231-10.3696,15.8479Z"/>
      <path class="cls-14" d="M758.8591,228.0223c-.4197-2.5098,1.9846-4.9382,4.1741-5.8694.3474-.1477,2.8262-1.2019,3.7825-.1306.6648.7449.3318,2.2229-.2607,3.1306-.6514.998-1.3254.8604-2.6086,1.8259-2.1824,1.6421-2.2358,3.5469-3.261,3.5217-.8508-.0208-1.6382-1.3535-1.8262-2.4783Z"/>
      <path class="cls-14" d="M757.9463,241.1964c-.3914-2.9268-.6655-4.979.5217-6,.7937-.6826,2.1685-.8425,2.8694-.261.6694.5554.5537,1.6458.3914,3-.3821,3.1865-1.6157,4.3945-1.8262,7.4348-.0566.8169.1638,1.6548,0,1.6956-.2583.0642-.9551-1.9312-1.0596-2.2336-.3137-.9092-.6748-1.9756-.8967-3.6357Z"/>
      <path class="cls-14" d="M762.5115,322.6529c.0286-4.3704.0535-8.1709,1.9565-12.9131,1.4048-3.5007,3.0862-7.6907,7.239-9.5869,2.1707-.9912,5.9219-1.769,7.4348,0,1.5781,1.8452.1655,5.8125-1.761,8.0217-1.4507,1.6633-2.2178,1.2119-4.1086,3.1304-1.9854,2.0144-2.821,4.218-3.5217,6.0652-.5825,1.5359-1.4707,3.8779-1.7607,7.0435-.1646,1.7959-.0598,3.0198-.9783,4.3044-.6472.9053-1.9617,2.0635-2.9348,1.7607-1.6133-.5017-1.585-4.7988-1.5652-7.8259Z"/>
      <path class="cls-14" d="M762.2505,410.6309c.3735-4.5854.5603-6.8782,1.8262-9.9128,1.5933-3.8196,3.5034-8.3982,7.5652-9.3914,2.9827-.7292,6.6301.5967,7.0435,2.3479.2407,1.0198-.7358,1.6731-3.9131,5.739-2.0024,2.5627-3.0039,3.844-3.3914,4.6956-1.6003,3.5164-.2839,5.3193-1.8259,8.6089-.7678,1.6379-1.4697,3.5332-3.1306,3.9128-1.1863.271-2.4858-.2881-3.2607-1.1086-1.0715-1.1345-1.0903-2.7161-.9131-4.8914Z"/>
      <path class="cls-14" d="M764.5332,419.9571c-.49-.4443-1.5864-.1389-2.2175.3262-.561.4133-.782.9734-1.239,2.739-.4949,1.9114-.7422,2.8669-.8479,3.7175-.3196,2.5698-.5227,4.2039.4565,5.0217.5906.4932,1.4907.5889,2.1521.3259,1.3433-.5342,1.5598-2.4905,1.6306-3.1304.1877-1.696-.4773-1.9617-.5872-3.7825-.1763-2.9255,1.4021-4.5376.6523-5.2175Z"/>
      <path class="cls-14" d="M740.0767,494.1092c1.2878-5.0457,3.9448-8.4092,6-10.9563,2.7949-3.4641,5.2849-5.4399,7.8259-6.7827,2.3557-1.2449,3.7373-1.408,4.9565-1.0435,1.3674.4087,2.9382,1.6028,3.1306,3.1304.2185,1.7336-1.429,3.1772-4.4348,5.7393-2.2539,1.9211-2.6389,1.7954-5.2175,3.9128-2.636,2.1646-3.9539,3.2468-4.9565,4.9565-1.4321,2.4419-.8276,3.4353-2.3477,5.2175-1.3831,1.6218-3.8079,3.0559-4.9565,2.3477-1.4382-.887-.4255-4.8547,0-6.5217Z"/>
      <path class="cls-14" d="M736.8809,504.0223c-.9155-.4404-2.9819,2.2593-3.4238,2.8369-1.03,1.3457-2.0112,2.6279-1.8586,4.3044.082.9016.5322,2.3574,1.5652,2.6414.762.2095,1.5056-.3108,1.7607-.4893,1.4377-1.0059,1.718-2.845,2.0544-5.2825.3-2.1755.5129-3.717-.0979-4.011Z"/>
      <path class="cls-14" d="M703.5549,542.2398c-.2009-.6882-3.9924.6455-12,1.0435-5.7.2832-7.7371-.1958-10.5652,1.4348-2.3145,1.3345-5.0959,4.0457-4.4348,6,.521,1.54,3.1211,2.4368,5.2173,2.0869,2.7466-.4583,3.0117-2.7866,6.5217-4.5652,2.0847-1.0564,2.6106-.5488,6-1.4348,4.8152-1.2585,9.4897-3.7822,9.261-4.5652Z"/>
      <path class="cls-14" d="M737.8591,96.6746c.2302-12.8167.3452-19.2249,5.0872-23.0872,3.3743-2.7483,8.7209-3.9561,10.9563-1.9565,3.3296,2.9785-.73,12.6399-1.1738,13.6958-1.751,4.167-2.9597,4.168-3.9131,7.8262-1.2527,4.8071.4094,6.4368-1.1738,9.7825-1.6418,3.4692-5.6362,6.3816-7.8262,5.4783-.6433-.2654-2.1443-1.2778-1.9565-11.739Z"/>
      <path class="cls-14" d="M473.7288,497.2398c.3862-1.1143,2.0107-4.3821,23.7393-6,13.3479-.9939,18.5627-.1948,23.4783,1.8259,2.6973,1.1089,8.2732,3.4009,8.3477,6.7827.0691,3.1348-4.616,5.9509-8.3477,7.0435-7.2141,2.1121-10.0342-2.4614-20.0872-3.9131-13.7068-1.9792-22.2302,4.5347-26.0869-.2607-1.2058-1.4995-1.6509-3.7256-1.0435-5.4783Z"/>
      <path class="cls-14" d="M559.2939,504.0223c.6228-.2585,4.9666-1.9817,9.1304.261,1.5552.8376,4.0415,2.7434,3.6523,4.1738-.4263,1.5669-4.1174,1.8828-6,1.8262-2.2039-.0664-2.4558-.6589-6-1.3044-3.5908-.6541-4.9827-.3462-5.2175-1.0435-.3396-1.0083,2.1313-2.9565,4.4348-3.9131Z"/>
      <path class="cls-14" d="M582.1201,508.5875c1.5308.2019,2.6501.7896,4.8262,1.9565,4.0732,2.1843,6.1206,3.3206,6.6521,5.4783.0769.3118.4802,1.95-.3914,3-1.4832,1.7869-5.6921.7083-8.2173-.6521-.8225-.4431-2.0813-1.6057-4.5654-3.9131-3.7854-3.5161-4.0542-4.0825-3.9128-4.5652.3716-1.2693,3.4692-1.5867,5.6086-1.3044Z"/>
      <path class="cls-11" d="M701.7253,334.462c-1.8701,7.6899-6.6802,27.45,3.6599,41.21,7.8301,10.4399,20.9202,12.8298,19.95,16.4399-.5098,1.9001-4.1799,1.3899-10.95,3.9099-1.95.73-9.6499,3.75-16.05,10.1702-1.8298,1.8499-8.46,8.6799-10.5598,19.5701-2.4302,12.5698,2.5999,23.1399,4.3,26.6099,4.45,9.03,10.1699,13.0701,8.6099,15.6499-1.6201,2.6802-7.9199-1.4399-15.6499,1.5701-6.55,2.54-10.04,8.6001-13.3101,14.28-1.53,2.6602-4.48,7.78-5.6699,15.0601-1.2202,7.46.4399,10.79-1.9602,12.72-2.6099,2.1101-6.2898-.46-14.48-2.1501,0,0-9.8899-2.0498-21.52-.5898-4.5198.5698-7.9299,1.6099-10.6099,2.7,9.3401-8.55,20.8599-10.3999,33.46-9.03,6.1599.6602,7.6499-.47,8.47-6.6199,1.6602-12.3501,6.1401-23.0801,16.9399-30.3301,3.6501-2.4399,4.4702-5.5801,3.1602-9.95-7.4399-24.73-.6201-45.8201,17.0999-63.8401,3.3801-3.4399,4.3601-6.76,1.8401-11.0999-13.8901-23.8801-11.3301-47.3401,1.96-70.5,4.0701-7.0901,3.6699-7.5-1.01-14.1902-14.96-21.3201-14.8799-43.8398-3.5798-66.45,3.0999-6.1899,2.98-10.3301-1.2102-15.6399-8.28-10.5-11.6199-22.9402-12.4299-36.1501-.1299-2.1499.0801-3.8198,2.8599-4.29,12.1301-2.0498,23.2002-6.9399,33.55-13.4399,1.49-.9299,2.45-1.1499,3.0901-.74-2.28,4.72-7.3501,10.76-11.0901,14.4202-6.6299,6.5-9.75,6.1699-12,10.96-3.55,7.5999-.4299,18.5498,5.74,25.04,7.52,7.8999,18.5601,8.1599,18.26,10.96-.1599,1.5498-3.5999,1.5498-7.8198,3.6499-9.1802,4.5601-12.8701,14.47-14.0901,17.74-3.3401,8.96-2.01,16.52-.52,25.04,1.7,9.72,3.1201,17.8,9.3901,24,9.2,9.0999,22.5,7.8999,22.4299,10.96-.05,2.53-9.1501,1.9399-17.21,7.8201-8.6001,6.28-11.05,16.3101-13.05,24.53Z"/>
      <path class="cls-8" d="M699.9026,194.3702c-.823-2.9387-.624-6.9199,1.6958-10.1738.8838-1.2395,2.6213-3.677,5.2173-3.6523,1.7146.0164,3.7019,1.1057,3.9131,2.4783.1382.8984-.5632,1.4084-3.1304,4.3044-2.9233,3.2979-3.5271,4.3435-3.9131,5.2173-.7522,1.7026-.9131,3.7827-.9131,3.7827-.2522,1.3369-.2888,1.9238-.5706,1.989-.573.1326-1.7505-1.9866-2.2991-3.9456Z"/>
      <path class="cls-8" d="M716.9897,228.0223c-2.8181-1.3586-8.5884,5.7256-9.1306,6.3914-2.2854,2.8057-6.1819,8.6748-6.2607,16.5652-.0396,3.9531.8745,8.885,2.2173,9,1.0225.0876,2.0337-2.6394,3.5217-6.6521,2.8623-7.7183,1.8645-8.7607,3.9131-11.6086,2.7957-3.8862,5.7327-3.4443,6.9131-7.0435.8247-2.5144.4248-5.8816-1.1738-6.6523Z"/>
      <path class="cls-8" d="M709.8809,319.7181c.6328-4.5432,4.7324-6.8511,5.0872-7.0435.5613-.3042,4.3748-2.3716,6.0652-.7827,1.3806,1.2976.8157,4.5376-.7827,6.261-1.3872,1.4956-2.5671.7869-4.8914,2.3477-2.8801,1.9341-3.2949,4.5176-4.3042,4.3044-.9985-.2109-1.4751-2.926-1.1741-5.0869Z"/>
      <path class="cls-8" d="M704.207,341.044c-1.6797-.9011-1.1309-6.2244,1.3696-8.8042.8562-.8833,1.4807-.9697,1.7607-.9783,1.5913-.0479,3.1958,2.0879,3.3262,3.9131.2471,3.4565-4.7195,6.8013-6.4565,5.8694Z"/>
      <path class="cls-8" d="M698.0767,413.5006c.9026-1.8926,4.0745-7.8538,10.9565-10.6956,1.0747-.4438,7.8962-3.2605,10.1738-.5217,1.397,1.6799.6858,4.9707-.7827,7.0435-2.0657,2.9155-4.3376,1.5974-8.6086,4.4348-3.7056,2.4617-3.7639,4.6289-9.6521,9.1304-2.4941,1.9067-3.1985,2.0645-3.6521,1.8262-1.5925-.8369-.543-6.7976,1.5652-11.2175Z"/>
      <path class="cls-8" d="M677.207,481.9136c-.6523-.7261,2.6067-5.9546,7.8262-8.0217.365-.1445,4.3445-1.6865,5.2825-.3914.5576.77-.0918,2.3596-.9783,3.3262-1.1831,1.29-2.6714,1.3423-4.5,1.7607-5.0928,1.1655-7.1411,3.8711-7.6304,3.3262Z"/>
      <path class="cls-8" d="M134.2071,185.8011c-.1324-3.293-.2914-7.2424,2.3478-9.5217,2.0297-1.7529,5.4806-2.3164,6.5217-1.0435.8901,1.0884-.0646,3.4167-.913,4.6956-1.2991,1.9583-2.4867,1.6633-4.174,3.5217-2.4357,2.6826-2.3569,5.936-3,5.8696-.6307-.0652-.7697-3.2014-.7826-3.5217Z"/>
      <path class="cls-8" d="M126.0548,253.6854c.3698-5.521.9639-8.4414,2.1522-14.2825.5823-2.8623,1.0897-4.9272,2.8369-6.75.4899-.511,2.0568-2.1006,4.5979-2.5437.5388-.094,4.3292-.7549,6.3586,1.761,1.0737,1.3311,1.3815,3.2129.9783,4.7935-.6163,2.4158-2.5656,2.8425-5.576,6.1631-1.0676,1.1777-1.7878,2.2524-3.2283,4.4021-5.4152,8.0818-6.9849,16.7278-8.0217,16.5327-.7631-.1436-.4429-4.9258-.0979-10.0762Z"/>
      <path class="cls-8" d="M124.9462,325.0657c-1.1699-.2061-2.5597-8.9238,2.0869-14.3477,1.9176-2.2383,5.119-4.2144,6.2609-3.3914,1.1953.8616.0891,4.759-1.3043,7.3042-1.0129,1.8501-1.58,1.8943-3.3912,4.4348-2.8171,3.9517-3.0566,6.105-3.6522,6Z"/>
      <path class="cls-8" d="M136.1636,426.0223c-2.3212.1089-5.984-11.0803-3.6522-21.3914.4003-1.77,1.4106-6.2378,2.8696-6.2607,2.0632-.0325,4.5925,8.8318,3.913,17.2173-.2512,3.1008-1.2827,10.3481-3.1304,10.4348Z"/>
      <path class="cls-8" d="M166.5548,493.0657c-5.8844.2141-11.9144-9.896-9.3912-14.0869,1.7043-2.8308,7.009-2.4597,8.6086-2.3479,2.9952.2095,9.2889,1.5295,10.174,5.4783.6321,2.8203-1.8125,5.5645-3.1304,7.0437-1.1334,1.2722-3.3928,3.8086-6.261,3.9128Z"/>
    </g>
  </g>
</svg>