<?xml version="1.0" encoding="UTF-8"?>
<svg id="Capa_2" data-name="Capa 2" xmlns="http://www.w3.org/2000/svg" viewBox="0 0 745.5957 911.104">
  <defs>
    <style>
      .cls-1 {
        fill: #e94c44;
      }

      .cls-2 {
        fill: #fe6d61;
      }

      .cls-3 {
        fill: #d6ab6d;
      }

      .cls-4 {
        fill: #f3c788;
      }

      .cls-5 {
        fill: #a02f2b;
      }

      .cls-6 {
        fill: #c73e38;
      }

      .cls-7 {
        fill: #e94b45;
      }

      .cls-8 {
        fill: #fe6b60;
      }

      .cls-9 {
        fill: #56b8ee;
      }

      .cls-10 {
        fill: #a02f2c;
      }

      .cls-11 {
        fill: #2f99c2;
      }

      .cls-12 {
        fill: #212d34;
      }
    </style>
  </defs>
  <g id="Capa_1-2" data-name="Capa 1">
    <g>
      <path class="cls-12" d="M308.7561,789.1696c-32.555-19.7542-57.7531-46.3014-74.7124-80.5525-1.4408-2.9098-1.5991-6.4287-4.1577-8.7904-1.9959,2.1877-1.0945,4.9098-1.347,7.4112-5.565,55.1347-5.6821,111.4658-5.3018,166.8304.0611,8.8922.0623,20.852-6.8532,27.572-7.421,7.2111-21.7252,8.4041-31.5124,9.1236-15.0217,1.1042-29.6469-.3027-43.4571-6.867-2.3763-1.0018-4.3718-2.3741-4.9686-5.1072-5.6597-9.3037-5.0923-19.8605-5.8128-30.0821-3.4572-49.043-4.4177-98.1695-3.5556-147.3055.798-45.4873,2.19-90.9963,8.9967-136.0798,5.0364-33.3582,14.1154-65.5505,30.4027-95.3859.8539-1.5643,1.8347-3.0849,2.2856-4.8462,5.2883-12.0608,13.5553-22.1402,21.7816-32.1938,1.7138-2.0946,1.389-2.8261-.4161-3.9929-8.6286-3.9427-18.0237-4.5954-27.1835-5.34-12.6741-1.0302-25.4149.0432-38.0916,1.4104-15.6386,1.6866-31.2684,3.4537-46.8944,5.253-14.5747,1.6782-29.4766,4.5764-44.1492,4.7884-3.2034.0463-6.4537-.1025-9.5102-1.0624-9.4782-2.9766-13.5353-13.639-16.7128-22.1363-4.2-11.2317-5.6908-23.286-5.4187-35.2301.1892-8.3047,1.3513-16.51,4.3766-24.4793,3.5574-9.3708,10.6402-12.9144,19.764-13.526,17.2143-1.1539,34.2832-3.7007,51.4707-5.1354,8.0147-.669,16.0639-1.3805,24.0174-2.7464.3202-1.6161-.6726-1.8508-1.9684-2.2247-25.5109-7.3608-50.9202-15.0917-76.5375-22.0582-11.1988-3.0455-17.65-9.9118-20.2783-20.6202-3.1864-12.9824-4.0682-26.5667-1.559-39.7457,2.272-11.9328,7.1233-25.7183,16.0993-34.3028,8.6692-8.2911,19.2919-8.0208,30.093-4.6195,52.2558,16.4557,104.5133,32.9216,157.4558,47.0887,1.9101.5111,3.7396,1.3359,5.5491-.1671l-.188.2105c1.8784-2.1503-.1859-3.7434-.9746-5.2905-9.551-18.7357-14.1492-38.8722-14.7356-59.6123-.6501-22.9903,3.9607-45.308,12.6848-66.7299,4.4928-11.0322,10.5533-21.2679,15.4985-32.0593,11.6224-21.0687,27.4768-38.6592,45.4269-54.3904,11.2693-9.8762,23.3684-18.7202,36.8218-25.5266,10.3715-3.5007,19.7178-9.2543,29.8467-13.3928,23.8056-9.7265,48.4227-15.2238,73.9704-16.721,50.1992-2.9419,98.0293,6.1289,143.1244,28.7533,2.8111,1.4103,5.4241,3.3734,8.7082,3.7055,18.9725,9.5638,35.5814,22.5407,51.595,36.2681,30.6796,26.2997,54.8874,57.8998,74.9182,92.827,1.7529,3.0565,3.2191,6.2775,4.8185,9.422,2.8663,9.1379,8.0158,17.2383,11.8558,25.945,13.8407,31.3824,23.5509,64.0219,30.7478,97.4621,4.763,22.1312,8.0083,44.5546,9.3037,67.1136,4.777,83.1892-.8965,168.8715-28.3396,248.1273-20.5928,59.472-54.9664,115.228-104.1994,154.4338-80.896,64.42-205.3997,80.4684-296.2675,27.3653-2.0482-1.1969-4.0425-2.5563-6.5103-2.791Z"/>
      <path class="cls-1" d="M323.0809,477.2961c-9.3162-11.2909-14.2409-24.7241-17.4211-38.6299-7.8004-34.1092.1421-64.8904,21.2034-92.5274,4.0966-1.3083,8.3127-.614,12.4386-.4913,25.3879.7549,48.209-7.5072,69.4952-20.3031,15.0377-9.0396,28.8055-19.882,39.8679-33.7652.9925-1.2456,1.9982-2.4779,2.7707-3.8803,1.7824-3.2359,1.2946-6.1682-1.3575-8.6487-2.6193-2.4498-5.436-2.014-8.1712-.1429-6.2427,4.2706-11.8602,9.3876-18.1986,13.5267-25.0627,16.3663-52.5005,25.3274-82.4639,26.426-3.4239.1255-6.7248-.3747-9.9729-1.3842-18.2169-1.5846-36.5324-3.2149-53.0028-11.987-28.9445-15.4157-45.7997-40.4997-54.2041-71.4233-8.3904-30.872-3.1648-60.8314,9.8578-89.2741,28.5762-62.4133,77.9902-99.6452,144.2058-114.2819,73.2395-16.1893,139.5382,1.1911,199.5413,45.0408.434.3172.6423.9435.9559,1.4254,5.9729,8.3276,12.7376,16.0401,18.5835,24.4831,18.5203,26.748,31.8601,55.9923,42.3854,86.6312,12.0956,35.2103,18.6655,71.5954,23.0904,108.4417,3.6682,30.5454,3.4845,61.2563,2.3463,91.8555-1.8984,51.0287-11.9206,100.7253-28.6314,148.9858-13.4277,38.779-30.9443,75.5495-55.645,108.5609-21.1816,28.3085-45.9578,52.9207-76.2845,71.4145-29.004,17.6872-60.5883,29.006-94.4001,31.4025-44.875,3.1804-86.2239-8.1321-121.6416-36.9147-20.542-16.6937-34.3791-38.3879-43.6527-63.1087.0578-.7478-.8681.1921-.0804.0713.2816-.043.307.1251.3093.5028.0076,1.2619-.0972,2.4073-1.7373,2.5157-3.7035-48.2398,9.7253-90.6244,43.7739-125.5849,9.8814-10.146,21.6641-17.9573,35.5076-22.1421,1.8683-.5647,3.5627-1.7045,5.3377-2.5781,16.615-3.9224,32.9141-1.257,48.8456,3.2796,24.2998,6.9195,45.6904,19.3407,64.3201,36.4509.8795.8078,1.758,1.6194,2.7287,2.3164,2.695,1.9356,5.4942,3.6198,8.603.8979,3.3186-2.9055,3.1538-6.4546.743-9.6277-5.9175-7.7884-13.0142-14.5243-20.413-20.8475-25.9499-22.1772-56.2584-33.9684-90.0783-37.2469-5.8314-.5653-11.4271,1.6516-17.2242,1.053-.7987-.0824-1.5623-.2867-2.3303-.4918Z"/>
      <path class="cls-6" d="M243.2671,651.8173c1.5606-1.6524.3633-3.8654,1.3161-6.2912,4.2878,8.5949,7.9722,16.9579,12.2383,25.0428,15.1017,28.6201,38.3937,48.1455,67.2008,61.4841,18.0937,8.3779,37.2748,12.5515,57.247,14.6699,31.5492,3.3461,61.0367-3.5611,89.9532-14.7051,24.6881-9.5145,46.3659-23.8251,66.1922-41.3791,27.9775-24.7713,50.0921-53.8929,67.9613-86.5597,22.8428-41.7592,37.4591-86.3977,47.5687-132.6832,4.0521-18.5524,6.3183-37.3635,8.4543-56.2183,3.3457-29.5333,2.651-59.1626,2.0556-88.7333-.3852-19.1262-2.8987-38.2453-6.0413-57.1626-3.7586-22.6245-8.1057-45.143-15.0771-67.0731-8.5502-26.8969-18.4788-53.0964-32.7956-77.6509-9.326-15.9948-19.734-31.0425-31.4336-45.2914-.8653-1.0538-1.6245-1.9709.5185-2.2909,5.9755,3.5397,10.2781,9.0678,15.7273,13.2329,2.6473,1.5378,4.4224,4.0856,6.8314,5.8993,8.111,8.2964,16.5822,16.2772,24.2173,24.9907,5.9346,6.7728,10.7924,14.4845,16.1904,21.733,7.5061,10.0791,14.4832,20.5285,20.5691,31.5019,21.5234,38.8088,36.8172,79.9816,45.6399,123.4775,6.2034,30.5832,9.9891,61.4387,11.2044,92.6981.8525,21.9282.5987,43.805-.5859,65.6342-2.6563,48.9439-10.7666,96.892-27.2158,143.3358-12.841,36.2563-29.5703,70.3332-53.3524,100.634-36.1783,46.095-82.1064,77.2867-139.7254,90.559-31.3784,7.2278-62.8131,7.8302-94.6534,3.7906-35.4716-4.5003-67.6983-16.8082-96.0325-38.5218-34.5347-26.4652-57.3002-60.4688-64.1728-104.1231Z"/>
      <path class="cls-3" d="M186.7372,509.787c.5578-1.1023,1.1329-2.1968,1.7268-3.2826,6.7989-12.4304,15.0614-24.6243,24.5539-35.1808,1.4803-1.6462,3.0019-3.2552,4.5673-4.8207,7.0143-6.9257,6.9593-6.8757,15.0624-1.703,14.6932,9.3795,30.5044,16.426,46.8771,22.2958,1.6242.5823,4.0394,1.3668,4.3898,2.5573.6002,2.0391-1.8722,3.1407-3.3501,4.2697-16.0963,12.2965-29.3956,26.9904-38.8721,44.9968-4.3528,8.4637-8.2852,17.1289-12.3318,25.7424-5.7891,13.616-8.7117,28.0261-11.7848,42.3991-4.4238,23.675-8.5258,47.3924-10.5671,71.4194-.0367.708-.1534,1.398-.3432,2.0792-2.7828,30.0969-5.6026,60.1868-7.4361,90.362.1542,31.3781-1.8782,62.7113-1.727,94.0845.0097,2.0057.1441,5.1539-.0128,7.1306-1.0143,12.7826-3.678,13.2409-16.9565,13.1087-4.2188-.3528-3.6797-4.3315-3.7826-7.7579-.1614-5.3737-.0646-10.7497-.0679-16.1246-.0112-18.1165.0869-36.2335-.0256-54.3492-.1695-27.2671,1.6634-54.434,3.4119-81.6251,2.0453-31.806,5.5107-63.4145,11.1111-94.7821,4.7721-26.7287,11.5418-52.8844,23.0792-77.6091,4.3063-9.2284,9.9773-17.6675,15.3153-26.2973,1.3619-2.2017,2.7891-4.3617,3.7943-6.7616,3.1765-7.5841,1.4648-14.8232-4.5557-19.2593-6.5531-4.8285-14.6946-4.6346-20.9267.655-7.7165,6.5495-13.2515,14.803-17.9034,23.6699-7.978,15.207-14.5478,30.9714-18.5909,47.7237-.4862,2.0146-.9443,5.391-3.272,4.8449-2.7047-.6345-1.8276-3.8505-1.3544-6.1973,1.7257-8.5587,3.924-17.0179,6.4616-25.3706,3.7444-12.3251,7.682-24.6998,13.5102-36.2177Z"/>
      <path class="cls-9" d="M275.7544,387.0412c.6829,2.5539-.4711,5.7119-1.0036,8.3138-1.9212,9.3873-2.3854,19.0691-1.3937,28.5987.2706,2.6007,3.5347,27.1348,4.3151,27.1693-3.2876-.1462-3.2286-3.0219-3.9529-5.0851-.8847-2.5204-1.7663-5.0155-4.5293-5.896-12.6858-4.0427-23.4475-11.7544-34.7096-18.4174-15.7919-9.3428-32.9024-13.7982-50.9207-15.4834-33.4621-3.1295-66.6838-.4073-99.8581,4.0068-13.0116,1.7313-25.869,4.4829-38.9412,5.7313-4.9376.4715-9.5558,1.1847-11.8551,6.3893-1.8069-4.1648-2.9444-8.5166-3.6309-12.9945.66-5.5469.1436-11.1144.2878-16.6707.174-6.7098,1.3595-8.4627,8.0189-9.4284,12.5696-1.8228,25.2563-2.6765,37.8674-4.2145,17.721-2.1612,35.4521-4.2231,53.1468-6.6078,39.7374-5.3554,82.0965-9.4372,120.655,4.3323,5.5174,1.9703,10.9283,4.3101,16.6379,5.6296,2.5116.5801,6.4589.4584,8.464,2.3022.7366.6773,1.173,1.4667,1.4023,2.3242Z"/>
      <path class="cls-7" d="M28.1162,290.8012c-1.8416-12.0795-.845-23.6627,5.1225-34.6706,2.3257-4.2901,4.6136-5.2868,9.4333-3.708,45.3858,14.8676,91.1258,28.585,137.0694,41.6298,18.4805,5.2472,37.1528,9.699,55.866,14.0022-2.7463,2.1184-3.119,3.888-.5883,6.98,3.9571,4.835,8.2463,9.0831,13.4741,12.4717,1.6011,1.0378,3.69,2.2155,3.0767,4.5986-.5736,2.2288-2.8237,2.796-4.7512,3.0085-7.9149.8725-15.8491.7597-23.7792.0395-19.888-1.8062-39.1071-6.7248-58.1586-12.4334-5.5295-1.0172-10.871-2.743-16.261-4.2867-2.8272-1.1893-5.7906-1.8701-8.8144-2.3245-30.7074-8.9874-61.2706-18.4495-91.7928-28.0459-4.3679-1.3733-8.6224-3.0596-12.8173-4.8683-3.1083-1.3402-4.8523-1.2492-4.7739,2.8323.0341,1.7721.4778,4.1743-2.3052,4.7749Z"/>
      <path class="cls-11" d="M32.9052,422.3687c1.3246-1.2411.5742-2.5051.1085-3.8232-.8681-2.4568.4343-2.984,2.6398-3.2872,22.1303-3.043,44.1949-6.637,66.3802-9.1879,24.4928-2.8162,49.151-3.6272,73.7913-2.5675,28.3074,1.2175,53.7624,10.9923,76.9444,27.0532,4.4277,3.0676,9.2148,5.6716,14.4522,6.8928,5.0851,1.1856,8.7587,1.728,9.0491,7.2153.0785,1.4842.6621,3.7776,1.4016,6.4588-.0001,0-.0403-.0429-.0403-.0429.1134,2.463,2.9294,5.2431.9066,7.1178-3.1492,2.9023-21.2681-7.5813-24.955-9.3889-13.8998-6.815-26.3364-15.8067-40.8999-21.2404-14.3354-5.3486-29.4062-8.4948-44.5996-10.1133-18.9014-2.0125-37.2135,1.242-55.7035,3.4244-22.4593,2.651-44.8324,5.9798-67.4,7.7943-5.9654.4796-10.634.8101-12.0753-6.3053Z"/>
      <path class="cls-10" d="M331.2715,317.4757c15.3234.2105,30.4279-1.4046,45.231-5.4756,22.0849-6.0736,42.1333-16.0884,59.714-30.8819,1.6663-1.4021,3.4335-2.6858,5.1759-3.9952,3.2908-2.4731,6.6541-2.6309,9.6993.244,3.1075,2.9338,4.8446,6.3938,2.1978,10.5818-5.9147,9.3587-14.0843,16.5731-22.4706,23.5945-18.2078,15.2444-38.5294,26.4108-61.6421,32.2956-13.9631,3.5552-28.0373,4.7086-42.3143,2.3005,2.5111-3.5127,4.9711-7.0621,7.5413-10.5297,6.5131-8.7868,6.0035-11.8449-3.1323-18.134Z"/>
      <path class="cls-5" d="M323.0809,477.2961c10.4962-2.8312,21.0858-2.3022,31.6479-.6348,38.6316,6.0983,70.6008,24.3832,96.6788,53.2668,3.2792,3.632,7.2212,7.3002,4.4255,13.0689-2.5039,5.1667-6.5024,6.5148-11.1075,3.1094-6.209-4.5914-11.8892-9.8938-18.056-14.5471-16.8506-12.7152-35.4478-21.98-56.0687-26.7066-13.1646-3.0177-26.5076-5.0616-40.072-2.3949-1.0252.2016-1.9732-.0435-2.6436-.9456,3.5967-5.9358,3.6842-11.5405-.6902-17.3531-1.5456-2.0538-4.2009-3.7319-4.1142-6.8628Z"/>
      <path class="cls-1" d="M601.1842,96.1075c-3.275-.811-4.9219-3.5069-6.8309-5.8996,3.1597.9442,5.1526,3.2397,6.8309,5.8996Z"/>
      <path class="cls-8" d="M251.1928,195.8385c1.4308-18.2256,6.8583-34.2712,14.6693-49.5345,8.4459-16.504,18.6322-31.8501,32.0861-44.7648,14.388-13.8114,31.2547-23.8153,49.9463-30.4682,15.6438-5.5681,31.4062-11.0752,48.4205-10.858,11.1986.143,19.2863,6.2192,19.9258,15.2558.7411,10.4732-7.3018,20.9916-17.9473,21.6902-35.3104,2.3169-61.9424,20.432-84.4159,45.8955-14.1827,16.0697-22.7265,35.0833-26.8564,56.1866-1.8246,9.3236-10.6816,15.2407-19.3941,13.939-8.246-1.232-17.4358-9.5961-16.4343-17.3416Z"/>
      <path class="cls-2" d="M273.5027,622.7396c4.8826-28.4519,11.175-56.3984,32.9256-77.6764,7.6057-7.4404,16.8949-12.476,28.0484-12.5922,5.508-.0573,9.7287,2.6294,11.789,7.5468,2.0402,4.8695.4649,9.4084-3.638,12.8008-11.8949,9.8351-22.1185,20.9347-28.3792,35.3454-6.8389,15.7414-10.9203,32.146-12.8027,49.155-.369,3.3339-.56,6.744-1.4414,9.9519-1.5041,5.4743-5.7182,8.1066-11.1248,8.1853-5.2018.0757-9.7856-1.4734-11.5329-7.3238-2.4585-8.2312-3.149-16.6715-3.844-25.3928Z"/>
      <path class="cls-2" d="M417.3585,364.6641c-.5123,4.6539-5.3767,8.1255-10.2717,11.564-7.2431,5.088-15.5667,7.9292-23.8284,10.5691-14.1071,4.5078-23.0308,14.1193-29.1002,27.0616-.8321,1.7744-1.889,3.5019-3.1302,5.0146-3.3134,4.0383-7.7429,5.6036-12.7626,4.4295-5.2382-1.2253-6.376-6.0143-6.6834-10.2526-1.5538-21.4225,5.4632-36.8899,26.8741-45.1448,14.5939-5.6266,29.5567-10.3128,44.4262-15.2011,7.5538-2.4833,14.7672,2.6128,14.4761,11.9599Z"/>
      <path class="cls-4" d="M163.7342,589.8317c1.4728-10.538,3.0535-21.054,5.7659-31.3611.8618-3.3506,21.3207-43.4549,36.2112-57.5915,7.163-6.8003,16.7389-7.405,24.9799-1.378,6.063,4.4341,8.1596,13.599,4.005,21.5534-4.4001,8.4242-9.8039,16.3172-14.4923,24.5991-11.1211,19.6446-17.5763,41.0038-22.7211,62.8291-4.5823,19.4387-7.7322,39.1418-10.4206,58.9011-1.7845,13.1164-2.8596,26.3429-3.8582,39.5498-1.7464,23.0957-3.3246,46.2064-4.6867,69.3277-.4794,8.1376-.134,16.3248-.1377,24.4893-.0114,25.2913-.0447,50.5826.0477,75.8736.0082,2.2554-1.4814,5.4899,2.554,6.2491,1.0049.9608,2.7633-.2577,3.5828,1.239-1.9548,1.1693-4.0961.8362-6.2043.7706-4.3326-.452-8.6517-1.0027-12.9707-1.5773-6.5701-.8741-7.3816-1.4607-7.8587-8.0746-.7284-10.0981-1.2401-20.2115-1.8767-30.3159-5.3181-84.4039-3.8209-169.3832,7.8209-253.219.0863-.6215.1728-1.2429.2596-1.8643Z"/>
      <path class="cls-6" d="M290.0705,336.4439c-17.4473-3.9293-32.7124-12.6548-47.407-22.5377-2.5833-1.7375-3.1997-5.7476-7.0566-5.8523-6.2258-2.0695-9.3564-1.6782-12.5046-2.9063,5.0862,10.1007,18.646,20.692,27.8132,26.9313-.8623-.5869-5.7525.7504-6.9389.8634-2.4942.2376-4.9956.3977-7.4996.4847-5.1399.1786-10.2884.0433-15.4154-.3552-9.6678-.7514-19.3911-2.2775-28.752-4.741-23.6974-5.9243-47.626-11.8593-70.83-19.3823-29.2279-9.4758-59.2361-16.5208-87.7695-28.1525-3.2222-1.3135-5.2115-1.4778-4.8552,3.0511.1796,2.2817.8057,4.7836-.739,6.9539,1.0455,4.2839.7239,9.4627,6.616,10.6928,15.9628,3.3325,31.2253,9.0231,46.7347,13.8702,22.9489,7.1723,46.1014,13.7724,69.1626,20.5965,6.1436,1.818,12.3555,3.6511,18.7548,4.2892,6.5573.6539,13.2942-.1724,19.8871-.1296,13.7674.0893,27.5975,1.0802,40.9947,4.4147,16.5898,4.1292,32.5337,10.1375,48.6182,15.7383,4.0024,1.3936,5.6472.4127,7.209-3.2048,1.9641-4.5491,4.3066-8.979,6.9189-13.1918,2.5706-4.1456,2.6414-6.1755-2.9414-7.4327Z"/>
    </g>
  </g>
</svg>