<?xml version="1.0" encoding="UTF-8"?>
<svg id="Capa_2" data-name="Capa 2" xmlns="http://www.w3.org/2000/svg" viewBox="0 0 999.3269 713.7041">
  <defs>
    <style>
      .cls-1 {
        fill: #ac4032;
      }

      .cls-2 {
        fill: #da795c;
      }

      .cls-3 {
        fill: #e1913d;
      }

      .cls-4 {
        fill: #dd7168;
      }

      .cls-5 {
        fill: #3a829c;
      }

      .cls-6 {
        fill: #cc4e3e;
      }

      .cls-7 {
        fill: #ab4133;
      }

      .cls-8 {
        fill: #212d34;
      }
    </style>
  </defs>
  <g id="Capa_1-2" data-name="Capa 1">
    <g>
      <path class="cls-8" d="M462.6118,651.5046c1.5279,9.8743,2.3012,19.7714-1.2047,29.3799-3.6353,9.963-10.5879,16.346-21.4384,17.219-10.8817.8757-18.7754-4.2502-23.7668-13.7177-5.5097-10.4505-6.7491-22.0036-7.9959-33.5105-2.1662-19.9928-.9885-40.0596-1.1777-60.6301-7.2023,9.734-13.9502,19.2012-21.0603,28.3882-13.1264,16.9606-30.5741,26.3138-51.9537,27.2132-23.3868.9838-41.6992-10.9589-49.6607-37.5285-.3079-1.0274-.1247-2.2423-1.7067-3.3042-12.9229,12.3345-25.9925,24.6973-38.9372,37.1896-20.6793,19.9565-41.6188,39.5761-66.805,53.9413-17.1106,9.7593-35.2544,16.5602-55.0828,17.4508-34.7154,1.5592-59.8863-13.7177-76.4912-44.0288-11.6136-21.1997-17.6621-44.0894-21.997-67.6297-4.7214-25.639-9.5257-51.2764-12.8258-77.1295-3.0031-23.5257-5.4209-47.1315-7.3135-70.7944-2.4704-30.8869-3.7095-61.7976-2.9922-92.7579,1.1221-48.4334,4.6194-96.5582,18.5882-143.3852,13.5796-45.5221,34.9874-86.6825,67.0116-121.9403,28.1605-31.004,62.3433-53.4887,101.1023-69.0072,30.8035-12.3333,62.7821-19.9161,95.8178-23.5553,28.29-3.1165,56.6219-4.1251,84.9684-2.7934,54.559,2.5632,107.6825,13.1422,159.5996,30.0857,22.7054,7.4101,45.6109,14.3104,69.9953,12.4335,21.1041-1.6245,42.203-3.3219,63.2948-5.0996,25.5288-2.1515,51.1216-2.8603,76.7159-3.3412,34.6548-.6511,69.2711.7206,103.814,3.3865,36.1838,2.7926,71.7282,8.5953,105.0842,24.0506,14.8688,6.8893,28.634,15.2357,38.8158,28.2955,16.8761,21.6462,17.523,45.6428,8.7281,70.46-8.9192,25.1682-24.6713,46.1297-41.8178,66.1968-18.9019,22.1214-40.747,41.5593-58.3975,64.8394-14.1092,18.6094-27.8261,37.5206-42.6414,55.5994-32.8925,40.138-71.8787,71.9796-121.5248,89.131-29.638,10.2391-59.7944,13.1902-90.3616,3.9624-4.1745-1.2602-8.2022-3.0066-12.5963-4.6388-.7861,12.1425-1.5372,24.1837-2.3566,36.2203-.4248,6.2394-1.4114,12.4034-3.1435,18.4168-3.8335,13.3083-13.3565,20.8654-25.7847,20.5693-12.9282-.3081-23.7044-9.2095-26.4417-22.3782-2.3389-11.2515-1.9657-22.7091-1.6417-34.1276.0551-1.9443.22-3.8857.4009-6.9636-7.5619,8.8814-14.4712,16.9032-22.3635,24.0146-18.4242,16.6013-39.7235,28.2152-62.9617,36.4094-4.4337,1.5634-6.6954,3.7704-7.7584,8.5925-5.5879,25.3482-9.7359,50.8638-10.8172,76.8358-.1057,2.5389.2827,5.1739-.8476,7.6144-1.2599-1.2141-.5262-2.7776-.7745-4.2873-.0039,19.5485.0033,38.9863-.0039,58.0895.4409-.8384-.4933-2.3977.7072-3.4364Z"/>
      <path class="cls-8" d="M462.6118,651.5046c-.1459,2.5366-.2918,5.0732-.4377,7.6097-.1503-.0014-.3005-.0028-.4508-.0042v-65.8962l.3558-.0265c.2013,2.6505.4026,5.301.6039,7.9514-.0237,16.7886-.0475,33.5772-.0711,50.3657Z"/>
      <path class="cls-6" d="M58.7977,638.4244c-6.6095-15.5288-8.7949-32.1728-11.9839-48.5328-2.9834-15.3055-5.5346-30.7066-7.8251-46.1326-2.4541-16.5281-4.6422-33.1053-6.4896-49.7119-5.2144-46.8736-8.0179-93.8827-6.6344-141.0653.9545-32.5512,2.9189-65.0931,10.0606-96.9325,11.0202-49.1308,29.1733-95.2516,61.9194-134.3981,26.1327-31.2404,58.7117-53.7614,96.24-69.356,21.4653-8.9197,43.7153-15.1082,66.4902-19.4164,16.2569-3.0752,32.7248-4.6498,49.2221-5.9441,15.8165-1.2408,31.6567-1.5135,47.483-1.0656,22.2393.6294,44.3463,2.6802,66.393,6.0352,23.8406,3.6281,47.1929,9.0952,70.2581,15.8961,22.4793,6.6282,43.3188,16.2023,59.644,33.8985,13.6583,14.8055,21.1435,32.6473,25.9166,51.7163,8.8831,35.489,12.9011,71.6192,12.195,108.1937-.3869,20.0394-2.284,39.9695-5.0077,59.8689-3.1138,22.7492-6.9611,45.3393-11.5562,67.8186-.1816.8883-.6292,1.7222-.9528,2.5815-9.6282,19.0952-22.4555,35.761-37.9171,50.5036-13.4763,12.8496-28.9727,22.568-45.6101,30.7173-29.468,14.4338-61.1832,22.3323-92.3073,31.9202-33.8752,10.4355-67.2952,21.8938-97.6878,40.6272-21.6918,13.3705-41.3708,29.4207-60.747,45.8856-19.5048,16.5741-37.4447,34.933-57.5342,50.8103-20.589,16.2719-41.7956,31.5963-68.3683,36.9395-14.4051,2.8967-28.1382,2.0407-41.0754-5.7719-6.2118-3.7514-10.7024-8.8539-14.1251-15.0856Z"/>
      <path class="cls-6" d="M618.6882,364.1448c-.8439-12.1783.8108-24.1963,2.4431-36.2004,5.1766-38.0686,11.6981-76.0109,9.4913-114.7028-.8375-14.6851-2.5434-29.2804-3.822-43.9193-1.9958-22.8494-.4994-45.2245,11.2947-65.7482,10.6955-18.6121,27.595-29.563,46.6943-37.8809,9.2887-4.0453,18.9538-5.2526,28.9813-5.7167,19.6954-.9117,39.3997-1.4347,59.083-.7665,36.1809,1.2284,72.445,2.1179,108.153,8.8491,22.8103,4.2999,45.0578,10.7561,65.4386,22.283,12.2948,6.9537,22.6537,15.8061,25.868,30.5684,1.153,6.1122.397,11.9097-2.2596,17.6023-10.9494,23.4625-27.6741,42.2891-46.5798,59.5912-25.2381,23.0976-52.4684,43.9922-76.0391,68.9338-8.9734,9.4953-17.5377,19.3588-26.3506,28.9957-26.8357,29.3449-57.5096,53.296-94.707,67.9397-27.9042,10.9853-56.8352,15.0016-86.6462,9.3085-7.6604-1.4629-14.8694-4.1565-21.0432-9.137Z"/>
      <path class="cls-1" d="M58.7977,638.4244c5.067,4.6454,8.9473,10.2999,15.1704,14.0332,12.707,7.6234,25.9536,8.2024,39.8242,5.4464,22.2227-4.4153,40.7564-16.2121,58.4695-29.5538,13.9366-10.497,26.8837-22.1361,39.7242-33.9499,14.5644-13.3999,29.6465-26.2318,44.9643-38.8057,22.6487-18.5915,46.5725-35.0393,73.2411-47.2869,21.7267-9.9778,44.3668-17.5113,67.179-24.5413,18.5633-5.7205,37.1638-11.3204,55.7116-17.0904,21.857-6.7995,42.6259-16.1899,61.688-28.7751,14.7509-9.739,27.5259-21.9522,38.4194-36.0438,6.8427-8.8514,13.2216-17.9639,18.5173-27.83.4819-.898,1.6263-1.4404,2.4631-2.1485-5.3073,24.0803-15.2905,45.9382-31.1725,64.9183-18.6474,22.285-42.5554,36.7191-69.4694,46.9306-26.4417,10.0322-53.992,16.5695-80.5291,26.2712-32.5509,11.9004-63.7297,26.5097-91.9903,46.7514-15.7104,11.2525-30.2888,23.9876-44.3602,37.1928-19.5959,18.3895-38.4904,37.5279-58.7178,55.2474-15.2812,13.3866-31.5365,25.3819-50.8027,32.4358-19.0293,6.9671-38.3695,9.2351-57.1186-.6223-13.4696-7.0818-21.1244-19.5864-27.3768-32.9105-1.4614-3.1142-3.4249-6.1073-3.835-9.6689Z"/>
      <path class="cls-7" d="M618.6882,364.1448c5.6198.5616,9.6911,4.7217,15.0497,6.2291,16.226,4.5646,32.5507,4.4163,49.0869,2.8364,24.3505-2.3264,46.7535-10.5732,67.9613-22.2427,16.8854-9.2911,32.3307-20.6461,46.732-33.5455,9.4617-8.475,18.1427-17.6256,26.7257-26.9221,12.5895-13.636,24.6075-27.8208,38.2651-40.4366,13.7376-12.6896,28.0899-24.6851,42.1508-37.0071,15.286-13.3954,30.7184-26.6375,43.484-42.7617,7.5866-9.5827,14.0816-19.6154,19.7053-30.3746,3.148-6.0229,5.0082-12.195,4.4644-19.0099,2.5782,9.8887,1.5455,19.5782-1.8785,29.0442-8.0613,22.2865-21.4596,41.2348-36.9099,58.9292-19.4643,22.2915-41.3814,42.3816-59.3939,65.9619-11.7005,15.3172-22.8512,31.0579-34.6824,46.2713-25.5299,32.8279-54.9876,61.1984-92.6347,80.073-25.9069,12.9887-53.0499,20.7523-82.2597,18.1337-15.3233-1.3736-30.6595-4.2692-39.1856-19.4452-6.1932-11.0236-7.467-23.2561-6.6807-35.7334Z"/>
      <path class="cls-2" d="M588.7782,434.8468c-.2116-11.1919.9355-22.4715-2.3074-33.4696-.3436-1.1656-.234-2.6374.14-3.8167,8.178-25.7916,9.4479-52.7181,13.1465-79.2489,4.4793-32.1305,6.5496-64.432,6.1669-96.8349-.4004-33.9026-3.2078-67.5814-12.9129-100.3371-6.1928-20.9019-16.6461-39.1736-33.0012-54.3299,33.0944,6.6766,65.4613-3.5606,99.4841-3.4327-8.6911,5.3697-16.6659,9.4924-23.3095,15.6319-14.3979,13.3054-21.1983,30.1273-23.3094,49.2135-2.2028,19.9158.3885,39.6606,1.8671,59.4716,2.2914,30.698,2.3942,61.3648-1.2915,92.0426-2.9376,24.4511-8.2353,48.5694-10.1591,73.1335-1.4552,18.5822-.2377,37.1602,1.2389,55.7113.4662,5.8566.8223,11.7469-.3862,17.5835-3.8552-3.3699-8.1995-5.9707-12.946-8.2151-.2234,4.0604.1651,8.0735-.1481,12.0572-.1413,1.7976.5559,4.2141-2.2722,4.8397Z"/>
      <path class="cls-3" d="M451.7524,519.6229c-1.4576,10.5895-3.659,21.1651-5.066,31.8717-3.6081,27.4569-4.6092,55.0102-4.1557,82.6448.1751,10.6713.7906,21.3348,1.1236,32.0044.0739,2.3681.1644,4.7534-.7742,7.0767-.9019,2.2326-2.1716,3.7612-4.707,4.0354-2.5207.2726-4.2891-.8032-5.4821-2.8991-1.8401-3.233-2.7734-6.7684-3.3902-10.4179-4.697-27.7891-3.8809-55.7389-2.5354-83.712.6458-13.4274,2.8316-26.6764,4.2578-40.0056,1.3695-12.7985,6.8991-20.0722,20.7293-20.5985Z"/>
      <path class="cls-5" d="M397.3551,557.6972c-9.0708,19.9763-19.4684,39.0603-35.3476,54.6728-11.3554,11.1648-32.4879,14.1746-44.4725,7.2907-3.6897-2.1192-6.4747-4.7198-7.7339-8.8189-.2073-3.5832,2.3198-5.7312,4.5525-7.7266,13.3381-11.9201,28.1019-21.795,44.014-29.9473,11.2612-5.7695,22.3579-11.933,34.7553-15.0912,1.3887-.3538,2.7362-1.2061,4.2322-.3795Z"/>
      <path class="cls-8" d="M397.3551,557.6972c-9.4656,3.3564-18.9387,6.6911-27.9236,11.2447-17.8154,9.0288-35.1489,18.7742-50.3683,31.9448-3.4953,3.0248-6.6614,6.181-9.2616,9.955-4.6153-6.4232-5.6662-13.7449-5.5133-21.4117.0423-2.1229,1.1322-3.2195,2.7201-4.4061,16.6556-12.4471,34.2143-23.3536,52.8702-32.6113,15.6297-7.7561,31.8041-14.056,49.3774-20.6365-4.123,9.3709-6.9602,18.0919-11.9008,25.9212Z"/>
      <path class="cls-2" d="M588.7782,434.8468c1.9792-6.468.1719-13.1331,1.1482-20.2936,3.8954,5.2867,12.4084,4.069,14.2177,11.6113.1998,17.9988.1686,35.9958-2.4599,53.8524-.6257,4.2507-1.0915,9.8029-6.8333,9.7918-5.3326-.0103-5.9109-5.0831-6.5438-9.3497-1.6557-11.1614-.8275-22.3535-.4101-33.536.1505-4.0306.5794-8.051.8813-12.076Z"/>
      <path class="cls-4" d="M225.8658,59.3687c-5.452,1.0608-25.6858,5.3772-58.8648,27.7011-29.6077,19.921-47.388,39.2878-59.7305,57.9992-13.1267,19.9004-12.4867,27.5131-10.3879,32.0294,4.1891,9.0142,17.8067,13.4744,28.5667,11.2535,14.0411-2.8982,18.0257-16.1022,32.895-37.2233,22.5275-31.9989,48.644-51.7794,57.9992-58.865,26.8014-20.2993,47.4951-26.7675,45.8799-32.0291-1.5564-5.0704-22.1735-3.6257-36.3577-.8658Z"/>
      <path class="cls-4" d="M109.0018,203.9337c-4.2624-5.0977-13.3435-5.8846-19.4773-3.8955-2.3477.7615-5.8786,2.4534-11.6864,9.9551-9.5984,12.3979-7.3876,17.3779-17.3132,36.7906-3.8474,7.5246-6.5647,11.4414-6.0596,17.746.121,1.5112.6941,8.6648,6.4924,12.9848,5.6229,4.1893,13.0477,3.3953,17.746,1.2987,7.4937-3.3443,10.356-11.0312,13.4177-19.0446,16.8482-44.0971,21.4891-50.3233,16.8803-55.835Z"/>
      <path class="cls-4" d="M661.0037,95.1494c5.9112-9.5884,14.3208-14.0001,24.2385-19.0446,16.2679-8.2743,28.163-9.1077,32.8949-9.2335,10.4055-.2768,14.4752,2.1145,16.7361,4.0397.5279.4496,6.6464,5.8036,5.7711,12.1192-1.2418,8.9594-15.6481,13.2899-21.3529,15.0047-10.7101,3.2195-11.7706.1664-23.0843,4.0397-7.1053,2.4326-12.5837,4.3081-17.8903,9.2338-2.4931,2.314-3.4701,3.9295-6.348,5.1938-4.7693,2.0953-11.9788,2.0054-15.0049-1.7313-4.5744-5.6489,2.475-17.0833,4.0398-19.6215Z"/>
      <path class="cls-4" d="M655.4491,122.7784c-1.5093-1.1688-3.813-1.1377-5.4104-.4329-2.138.9433-2.7236,2.9668-4.5447,7.1417-3.4196,7.8395-3.9563,6.6694-4.9775,10.388-.9002,3.2781-2.6319,9.5846.6492,12.5519,1.5798,1.4288,3.9827,1.7769,5.8432,1.2987,3.2712-.8409,4.7519-4.2074,6.709-8.6567,1.9739-4.4879,2.4738-8.1684,2.8134-10.8209.7389-5.7701,1.2386-9.6729-1.0821-11.4698Z"/>
    </g>
  </g>
</svg>