<?xml version="1.0" encoding="UTF-8"?>
<svg id="Capa_2" data-name="Capa 2" xmlns="http://www.w3.org/2000/svg" viewBox="0 0 970.2365 964.7445">
  <defs>
    <style>
      .cls-1 {
        fill: #f85160;
      }

      .cls-2 {
        fill: #fea6aa;
      }

      .cls-3 {
        fill: #f5515f;
      }

      .cls-4 {
        fill: #fe8a8e;
      }

      .cls-5 {
        fill: #fe6b78;
      }

      .cls-6 {
        fill: #242e30;
      }

      .cls-7 {
        fill: #fe6673;
      }

      .cls-8 {
        fill: #fe848a;
      }

      .cls-9 {
        fill: #fe6974;
      }

      .cls-10 {
        fill: #fe6c79;
      }

      .cls-11 {
        fill: #fe5566;
      }

      .cls-12 {
        fill: #fe6975;
      }

      .cls-13 {
        fill: #fe6674;
      }

      .cls-14 {
        fill: #fea4a8;
      }

      .cls-15 {
        fill: #cccbcf;
      }

      .cls-16 {
        fill: #fe868d;
      }

      .cls-17 {
        fill: #fe6571;
      }

      .cls-18 {
        fill: #fd5c6b;
      }

      .cls-19 {
        fill: #fea5a9;
      }
    </style>
  </defs>
  <g id="Capa_1-2" data-name="Capa 1">
    <g>
      <g>
        <path class="cls-6" d="M67.0435,960.2443c-14.9023,0-27.6611-4.5107-37.9199-13.4072-14.8301-13.4385-18.8496-34.0049-20.8359-52.3584-12.1309-112.0537,7.1641-227.1279,25.4863-303.9307,18.0234-75.5459,45.0312-142.8721,80.2725-200.1074,34.6475-56.2686,89.9668-128.9209,156.7549-155.4971,11.0977-4.415,22.8662-6.75,34.0332-6.75,13.2578,0,25.5645,3.332,35.5879,9.6348,23.7021,14.9053,32.9678,43.7168,38.3916,67.1514,8.5049,36.749,12.4912,74.793,16.3447,111.585,1.3975,13.3301,2.8408,27.1084,4.4775,40.6143,1.6064-1.3203,3.6348-3.4287,4.6836-4.5195,1.3418-1.3936,2.4355-2.5303,3.4346-3.3379l6.5762-7.2627c1.9492-2.7197,3.9072-5.4404,5.8643-8.1611l.6455-.8975c.1885-.2607.4033-.501.6416-.7158,2.0889-1.8809,3.3848-4.624,4.7568-7.5283.5508-1.167,1.1211-2.373,1.7637-3.5762-.0381-.2969-.2578-.9355-.4072-1.3721-.2861-.8379-.6436-1.8799-.8018-3.0566-1.501-11.168-1.4912-21.0039.0312-30.0547-.2188-.5459-.3291-1.1318-.3232-1.7227l.0234-2.1924c.001-.0713.0039-.165.0078-.2363.1318-2.2686-.1152-4.627-.376-7.123-.2812-2.6934-.5723-5.4785-.4219-8.4316.0869-1.7061.1035-3.4131.1211-5.2207.0488-4.8799.0996-9.9258,1.5801-15.0557-.0186-.1631-.1035-.5146-.168-.7773-.1104-.4561-.2178-.9131-.2949-1.3828-1.7539-10.7002-1.7861-21.2295-.0957-31.2969.4141-2.4766.3799-5.1367-.1084-8.3691-1.707-11.291-1.4951-21.7168.6475-31.873.0508-.2412.1074-.4795.1641-.7139.0381-.1562.0869-.3564.1123-.4863-2.7188-11.2031-2.8135-23.0049-.2998-37.126.1504-.8438.168-1.3984.0586-1.918-2.3535-11.21-2.4609-22.6836-.3271-35.0742.1514-.8828.2891-1.7881.1602-2.2861-1.6758-6.502-1.5771-12.918-1.4824-19.1221.0205-1.3291.041-2.6582.043-3.9854.001-.6357-.0176-1.0518-.0439-1.3242-.4512-.125-.8818-.3203-1.2734-.5781-9.707-6.3887-16.1426-15.9141-20.2539-29.9775l-4.9678-16.9639c-.0645-.2178-.1113-.4395-.1416-.6641-.7148-5.3105-2.6943-10.5947-6.4189-17.1338-.4346-.7637-.623-1.6055-.585-2.4307-.3906-1.4736-1.1748-2.9531-2.0576-4.6201-.6494-1.2266-1.3213-2.4941-1.9004-3.8906-5.0771-12.2383-5.7471-24.9941-6.3965-37.3301-.0654-1.2598-.1318-2.5195-.2031-3.7783-.7178-12.749-.1455-23.0557,1.8018-32.4355.0547-.2617.1318-.5186.2324-.7666,3.0059-7.4609,7.5371-15.1709,18.3574-15.7773.3701-.0205.7354-.0312,1.0977-.0312,5.4219,0,9.6807,2.3467,12.3164,6.7871.2373.4004.4111.834.5156,1.2881,1.5225,6.6182,2.3223,13.334,3.0957,19.8291.4336,3.6387.8779,7.3779,1.4482,11.043,4.0928-1.6299,8.5859-2.3945,13.8691-2.3945,3.3906,0,6.7627.3018,10.0244.5947,1.21.1084,2.4199.2178,3.6289.3105.3848.0293.7646.1084,1.1299.2354l.1562.0537c1.7432.6035,4.125,1.4277,6.0254,3.5215,3.5166,3.707,7.2363,7.3828,10.834,10.9375,1.8672,1.8467,3.7354,3.6924,5.5889,5.5537.248.249.4893.5195.7295.7939.0039.0039.0068.0078.0107.0117.5977.0742,1.1787.2686,1.707.5762,3.8643,2.248,7.5908,3.3408,11.3916,3.3398,3.9189,0,7.9805-1.2266,12.0723-3.6455.0518-.0312.1045-.0615.1582-.0898,3.5547-1.9121,6.3574-5.0254,9.3242-8.3213.8408-.9355,1.6816-1.8682,2.5381-2.7754,7.0986-7.5195,15.8662-11.333,26.0596-11.333,3.6875,0,7.5264.4707,11.7363,1.4395.4775.1104.9531.2451,1.4297.3818.4355.125.8818.2539,1.2168.3135.3096-2.6162.6562-5.2236.9941-7.7676.6309-4.7559,1.2842-9.6738,1.6738-14.4736.6875-8.4697,4.4717-13.7031,11.248-15.5518,1.8428-.5039,3.6582-.7588,5.3945-.7588,5.7197,0,10.5996,2.792,13.7412,7.8613,7.1592,11.9561,7.0537,24.7598,6.9521,37.1416l-.0049.6377c-.1016,12.6699-1.499,25.8193-4.2715,40.1982-.0674.3467-.1748.6855-.3213,1.0078l-9.1621,20.1885c-.1299.2881-.291.5605-.4785.8154-1.8262,2.4707-2.749,5.6143-3.7256,8.9414-.2559.8691-.5107,1.7363-.7803,2.5957-.9688,3.0771-1.957,6.1484-2.9463,9.2188-1.9854,6.167-4.0381,12.543-5.8721,18.8398-.0645.2217-.1465.4385-.2441.6475-3.5234,7.5332-8.9609,13.7783-16.1631,18.5615-.1826.1211-.373.2285-.5703.3213v.3047c-.0371,14.7529-.2461,29.7402-.4482,44.2344l-.0986,7.1328c-.0664,4.8115.1514,9.7656.3613,14.5576.333,7.6084.6777,15.4756-.0557,23.3066-.543,5.791-.2725,11.5459.0137,17.6396.2998,6.3711.6094,12.96-.1084,19.5371-.8184,7.4932-.6064,14.8975-.3828,22.7363.2246,7.8887.458,16.0459-.4609,24.2617-.6504,5.8135-.2812,11.6533.1104,17.8359.3398,5.3711.6914,10.9248.3281,16.5391-.3057,4.7324-.0654,9.4502.1895,14.4453.2793,5.4609.5674,11.1074.0781,16.792-.0449.5205-.083,1.041-.1201,1.5605-.1807,2.4727-.3662,5.0293-1.209,7.7041-.1094.3486-.1367.5566-.1426.6562.0146.0156.0332.0361.0576.0586.3623.3496.6641.7578.8916,1.207,5.3203,10.5049,12.6777,20.8408,22.4902,31.5938l.8477.8096c.0596.0576.1172.1152.1738.1758.6973.7451,1.6768,1.4727,2.7129,2.2422.417.3096.8564.6357,1.3057.9863.1367-1.1777.2373-2.3818.3398-3.6045.1631-1.9512.332-3.9688.6553-6.0049,2.9512-18.5635,4.96-37.4668,6.9023-55.748,3.7998-35.7598,7.7285-72.7383,18.8936-108.71,3.5049-11.292,7.8281-23.0596,15.6572-32.626,11.7881-14.4023,31.0371-22.6631,52.8096-22.6631,6.3066,0,12.6006.7041,18.7061,2.0928,25.9561,5.9023,47.5312,21.8418,65.2129,36.6562,10.6055,8.8857,21.0215,18.4297,30.9609,28.3662,37.4668,37.46,69.7871,82.1162,96.0645,132.7305,24.125,46.4707,43.292,98.1748,56.9678,153.6758,18.3193,74.3457,28.4834,153.5176,30.209,235.3145.3076,14.5576.3428,29.3369.1064,43.9268-.3018,18.6426-1.1738,40.2139-7.7441,60.2822-3.375,10.3125-7.5547,17.6494-13.1533,23.0889-7.0869,6.8848-17.1436,11.2627-29.8896,13.0098-4.2764.5869-8.7002.8838-13.1484.8838h-.0059c-24.9961-.001-49.2305-9.2754-72.667-18.2441-10.7285-4.1055-21.8232-8.3506-32.7344-11.5908-22.5098-6.6816-46.4502-9.6064-69.6035-12.4346-7.3721-.9014-14.9961-1.832-22.4824-2.873-29.0635-4.0391-62.5928-10.5967-90.9111-28.6123-38.8477-24.7119-57.0498-68.291-48.6904-116.5732l.5518-3.1787c3.1709-18.2305,6.4492-37.0811,5.2471-55.7783-.8389-13.0352-5.168-23.7734-9.752-35.1426-1.6123-3.999-3.2793-8.1338-4.8545-12.5-5.125-14.209-5.7285-29.5479-5.6826-41.3232.0664-16.6689,1.5293-33.4463,4.3486-49.8662l.1016-.5918c.6191-3.5918,1.2051-6.9834.7285-10.084-.5635-3.6709-3.3105-5.7803-7.7471-8.917-1.3818-.9785-2.8115-1.9893-4.1855-3.1221l-1.9404-1.5996c-5.4414-4.4863-11.0693-9.125-16.5791-13.7285l-2.3877-2c-8.5684-7.1865-16.6611-13.9746-26.2041-18.8799-.0537-.0273-.1074-.0557-.1602-.0859-3.1074-1.7588-6.3721-2.6133-9.9795-2.6133-3.627,0-7.5938.8398-12.4834,2.6455-3.2168,1.1875-6.5225,2.5615-8.502,5.124-.1982.2559-.4229.4902-.6709.6982l-6.4902,5.4375c-12.2861,10.2969-24.5742,20.5938-36.8721,30.877-.7471.625-1.5049,1.0615-2.1133,1.4121-.1895.1104-.3809.2188-.5654.335-.2939.1846-.6084.334-.9355.4463-.8555.291-1.0908.5215-1.1055.5361h.001c.0098,0-.1748.4912.0645,2.1699,2.6436,18.5752,4.1895,34.958,4.7275,50.0859.1133,3.1729.2979,6.4199.4766,9.5596.3232,5.6768.6572,11.5479.5996,17.4209-.0107,1.1084-.002,2.2227.0078,3.3389.042,4.9902.085,10.1504-1.541,15.2148-1.6592,5.1729-.7969,10.8955.1162,16.9541.3799,2.5205.7725,5.127.9795,7.7295.7754,9.7754,1.2705,20.0918,1.4717,30.6641.4688,24.6328-1.7441,44.0713-6.9639,61.1729-1.4111,4.625-3.0869,9.1963-4.707,13.6162-2.8838,7.8662-5.6074,15.2959-7.0322,23.1357-.416,2.2842-.7871,4.542-1.1553,6.7783-1.5068,9.1562-3.0654,18.6191-7.4482,27.9951.1338.9004.0137,1.8613-.375,2.6709-9.8467,20.5088-26.6826,36.3232-51.4697,48.3457-.6123.2969-1.2842.4512-1.9639.4512h-.0527c-1.8496,0-3.6494.9639-5.7344,2.0811-1.3057.6992-2.6562,1.4229-4.1768,2.0088-25.2529,9.7363-51.1104,13.0068-76.1162,16.1699-8.1514,1.0312-16.5791,2.0977-24.9307,3.375-35.4951,5.4287-70.4512,14.623-103.9053,27.3301-20.3975,8.2959-40.3467,15.7383-60.1475,15.7383ZM546.9868,518.1075c2.1602,1.709,4.0684,3.5879,5.9316,5.4238,1.792,1.7637,3.498,3.4443,5.3281,4.8789.291-1.2969.8076-2.5029,1.5459-3.6064,2.1748-8.8047,3.4414-18.0117,4.666-26.9248.2617-1.9014.5234-3.8018.793-5.7012.1406-.9912.333-1.9307.5195-2.8398.25-1.2197.4805-2.3438.5322-3.3604-1.6475,1.5791-3.1631,3.1436-4.3291,4.8945-.041.0615-.084.1221-.127.1807-4.8535,6.5605-8.9463,13.4932-12.165,20.6074-.0352.0791-.0732.1572-.1133.2334-.9834,1.877-1.7412,3.9316-2.543,6.1074-.0137.0352-.0264.0713-.0391.1064ZM419.7642,468.9523c.5947.2471,1.167.5605,1.708.9395.377.2637.7119.584.9922.9502,1.0859,1.416,2.25,2.8535,3.375,4.2432,4.0195,4.9639,8.1758,10.0967,10.8018,16.5391.0977.2383.1738.4834.2285.7354.8604,3.9229,2.749,7.543,4.8301,11.3076,2.3975-2.002,4.959-3.6357,7.4678-5.2363.0557-.0361.1123-.0723.168-.1074-5.1836-14.7412-10.6797-26.5703-20.1387-36.1582-.4688-.4756-.8379-.8213-1.1338-1.0703-.5889.5576-1.4277,1.3486-2.6416,2.4902-1.7939,1.6865-4.6514,4.375-5.6572,5.3672ZM522.1997,499.0714c2.1074.8477,4.0762,1.96,5.9307,3.3525,4.9297-10.4971,10.8408-20.0996,17.5693-28.5439.084-.1055.1729-.207.2656-.3037.3057-.3203.5908-.6641.8789-1.0068.7783-.9258,1.7676-2.1025,3.1289-3.0615-.2686-.4004-.6807-.8477-1.3008-1.3652-1.0537-.8789-1.9326-1.7998-2.7822-2.6895-.2988-.3135-.5977-.6279-.9014-.9346-1.0986-1.1084-2.2207-2.2412-3.0391-2.9805-.7568.877-1.7939,2.2314-2.8086,3.5547-.124.1621-.2344.3369-.3477.5088-.1455.2207-.291.4414-.4443.6572-.1162.166-.2441.3232-.3828.4707-6.8057,7.3047-10.5781,16.25-14.4668,26.3389-.0615.1592-.1318.3154-.2119.4668-1.4102,2.6982-1.4863,4.3359-1.0879,5.5361ZM485.062,486.4747c4.7305,0,9.6855.6826,14.7354,2.0293.0869-.2998.2998-.9961.2998-.9961.0312-.1025.0654-.2031.1035-.3018,6.2861-16.3418,13.3193-28.7627,22.1299-39.083.375-.4688.7236-.9619,1.0742-1.4531.7432-1.042,1.5859-2.2227,2.6689-3.3125,1.8447-1.8564,2.1094-3.3154,1.0107-5.5762-.1748-.3574-.3008-.7373-.374-1.1289-.0352-.1836-.0713-.3369-.1055-.4629-.2402.0459-.5596.1279-.9795.2686-6.0312,2.0225-12.7568,3.0049-20.5615,3.0049-3.2178,0-6.3545-.0166-9.4912-.0322-3.1201-.0166-6.2412-.0332-9.3623-.0332-4.6641,0-8.5.0371-12.0723.1172-1.1504.0254-2.2979.0391-3.4443.0391-8.7988,0-16.7275-.7891-24.1738-2.4092-1.4395.8291-2.3252,1.7178-2.5361,2.5635-.2891,1.166.4834,3.0664,2.123,5.2256,9.7734,11.4707,17.5898,24.6348,23.8936,40.2393.0293.0732.0566.1475.083.2227.165.4805.3545.9551.543,1.4307.208.5244.4277,1.0781.6338,1.665,4.4658-1.3408,9.0869-2.0166,13.8018-2.0166Z"/>
        <path class="cls-6" d="M569.4087,9c3.9116.0001,7.4268,1.713,9.917,5.7321,6.5874,11.0033,6.3711,23.0833,6.2725,35.3721-.1069,13.318-1.6816,26.3737-4.1909,39.3823-3.0542,6.7297-6.1079,13.4596-9.1621,20.1893-2.8354,3.8376-3.7939,8.4573-5.1797,12.8612-2.9517,9.3822-6.0942,18.7054-8.8452,28.1509-3.2588,6.9679-8.1909,12.4768-14.5767,16.7183-2.7036.3643-2.5757,2.3949-2.5806,4.3634-.0425,17.1079-.314,34.2289-.5469,51.3177-.1709,12.5442,1.4888,25.0935.3252,37.5062-1.1689,12.4683,1.2437,24.9027-.0879,37.1074-1.7119,15.6874.916,31.2684-.8423,46.9867-1.2881,11.5161,1.1675,23.0337.4199,34.5846-.6733,10.4059,1.1646,20.806.2749,31.1423-.2412,2.801-.29,5.6066-1.1372,8.2998-.6338,2.0134-.4932,3.7842,1.084,5.3051,6.1147,12.075,14.189,22.755,23.2842,32.708.3188.3044.6377.6089.9565.9132,3.0815,3.2908,8.0898,4.8461,9.1216,10.2955,3.1934-6.1099,2.6172-12.7279,3.6216-19.0457,8.748-55.022,8.9438-110.0072,25.6489-163.8295,3.4277-11.0437,7.5181-22.161,14.8423-31.1095,11.7588-14.3677,30.5322-21.0137,49.3281-21.0137,5.9751,0,11.9521.6716,17.7075,1.9803,23.8589,5.4254,44.5654,20.0037,63.3208,35.7179,10.6313,8.9077,20.8608,18.2933,30.6694,28.0997,77.5737,77.5577,125.8149,178.6639,151.8438,284.2996,18.7617,76.1401,28.4189,155.5834,30.0801,234.3328.3081,14.6188.3408,29.2137.1055,43.7592-.3223,19.886-1.3325,40.0537-7.5205,58.9551-2.5581,7.8135-6.1162,15.5322-12.0132,21.261-7.2456,7.0396-17.3574,10.4075-27.3657,11.7798-4.2065.5769-8.3828.842-12.542.842-35.4844,0-69.3965-19.3394-104.1211-29.6484-30.0815-8.9304-61.6675-11.1316-92.7476-15.4514s-62.6396-11.1096-89.1152-27.9517c-38.6982-24.6172-54.3374-67.736-46.6714-112.0096,3.438-19.8571,7.1616-39.7,5.855-60.0138-1.1851-18.4236-8.7573-31.9519-14.8633-48.88-4.5649-12.6543-5.4688-26.3269-5.416-39.7791.0654-16.455,1.4995-32.9043,4.2832-49.1222.6885-4.0101,1.4614-8.0981.8438-12.1198-1.1519-7.5006-8.1958-10.4402-13.5181-14.8285-6.1753-5.0914-12.355-10.177-18.4971-15.3087-9.3345-7.7993-18.4985-15.8158-29.4204-21.4291-4.0391-2.2859-8.1157-3.1978-12.1953-3.1978-4.6978,0-9.3989,1.2101-14.0435,2.9248-3.8394,1.4176-7.8145,3.1133-10.5049,6.594-14.4492,12.1077-28.8955,24.2189-43.3574,36.3115-.6558.5483-1.4521.9286-2.1831,1.3871-3.7334,1.2751-4.6284,3.4656-4.0405,7.6,2.3413,16.4496,4.0938,32.9747,4.6855,49.6105.3179,8.9249,1.1611,17.8218,1.0732,26.7762-.0571,5.7974.4297,11.7827-1.3164,17.2235-2.7578,8.5925.2021,17.7197.8926,26.4143.8018,10.0986,1.2671,20.2665,1.4595,30.3943.3818,20.0947-.8706,40.4484-6.7686,59.7731-3.8022,12.457-9.5215,24.381-11.8633,37.2609-2.1636,11.9021-3.1538,23.0878-8.5273,34.2531-.3164.6575-.2827,1.3564-.0806,2.0483-10.4697,21.8093-28.1313,35.9397-49.3765,46.2446-.0381-.0005-.0757-.0005-.1133-.0005-4.3623,0-7.6616,2.9233-11.4692,4.3914-32.8159,12.6526-65.9309,14.0669-100.1094,19.2952-35.801,5.4761-71.0181,14.7273-104.8748,27.5925-17.6707,7.188-38.7061,15.4246-58.4966,15.4246-12.55,0-24.6003-3.313-34.9719-12.3066-13.4148-12.1587-17.3621-31.4407-19.3108-49.4434-10.635-98.248,2.5864-206.8136,25.3904-302.403,16.6162-69.6517,42.0933-137.6715,79.7273-198.7915,35.5447-57.7268,89.5654-127.8016,154.5864-153.675,10.2019-4.0596,21.3752-6.4314,32.3689-6.4314,11.7373.0001,23.2695,2.704,33.1929,8.9445,21.4272,13.4746,30.6953,39.6964,36.4028,64.3563,11.5596,49.944,14.6143,101.3937,20.8071,152.2822.3989,3.2764,1.5034,4.4978,2.9683,4.4978,3.8066,0,10.043-8.256,12.6201-10.1406,2.3384-2.5822,4.6758-5.1635,7.0132-7.7446,2.2119-3.0861,4.4341-6.1733,6.6558-9.2607,3.75-3.3778,5.2231-8.1331,7.5142-12.3961,1.3579-2.5269-.4429-4.7592-.7549-7.082-1.3076-9.7277-1.6099-19.4009.0762-29.0985.1206-.6946-.0024-1.3888-.3281-2.0311.0078-.7383.0156-1.4766.0229-2.2148.3027-5.2189-1.063-10.3296-.7959-15.5867.3286-6.4641-.29-13,1.5483-19.3181.4448-1.5283-.1426-2.7332-.3628-4.0765-1.6294-9.9362-1.7646-19.8995-.0996-29.8226.5581-3.3286.3931-6.5513-.0962-9.7874-1.5317-10.1333-1.5186-20.2244.6011-30.2706.2158-1.0214.5615-1.9067.2861-3.0304-2.8906-11.782-2.3867-23.6099-.2817-35.4359.2192-1.2322.292-2.3915.0322-3.6302-2.3325-11.1056-2.2163-22.2433-.2969-33.3877.2412-1.4016.4395-2.795.0835-4.1758-1.8682-7.2412-1.3101-14.6273-1.2979-21.973.0044-2.6541-.2144-4.9624-3.3433-5.6693-9.9932-6.5768-15.1641-16.3831-18.4082-27.4811-1.6538-5.6562-3.3125-11.3108-4.9692-16.9661-.9116-6.7776-3.6226-12.8868-6.9678-18.7606l.1592.1582c-.5391-3.9254-2.9878-7.0568-4.4561-10.5963-5.2783-12.7252-5.5088-26.2513-6.2632-39.637-.5879-10.4382-.4302-20.9325,1.7148-31.2676,2.6924-6.6841,6.2085-12.5048,14.4351-12.9662.2852-.016.5669-.0242.8457-.0242,3.5156.0001,6.498,1.3,8.4468,4.584,2.5146,10.9269,2.9873,22.1561,4.9141,33.17.1943,1.1108.0469,2.8385,1.2075,2.8385.3218,0,.7432-.1324,1.3003-.447,4.9897-2.8188,10.1489-3.5935,15.377-3.5934,4.4082.0001,8.8662.551,13.3091.8918,1.5845.5502,3.1841,1.0724,4.3535,2.3816,5.3765,5.671,11.0239,11.0723,16.5356,16.6085.8662.8704,1.5747,2.1202,3.0229,2.1202.1123,0,.229-.0076.3506-.0233,4.5669,2.6566,9.1177,3.9506,13.6538,3.9506,4.8042,0,9.5923-1.4515,14.3638-4.2728,5.3501-2.8781,8.9756-7.7053,13.0024-11.9708,6.7095-7.1072,14.3794-9.9218,22.7866-9.9214,3.4561.0001,7.0381.476,10.7275,1.3248,1.313.302,2.6006.8457,3.9761.8457.209,0,.4204-.0126.6343-.0404.041-.0081.083-.0118.126-.0118.6357.0001,1.4575.8291,2.0981.8291.4482,0,.8076-.406.9531-1.7859.8931-8.4807,2.332-16.9105,3.0215-25.4038.4575-5.6342,2.4766-10.0822,7.9468-11.5753,1.4336-.3914,2.8457-.5996,4.2095-.5996M505.0391,434.9635c-6.272,0-12.5459-.0657-18.8184-.0657-4.0615,0-8.1235.0276-12.1831.1182-1.1167.0249-2.23.038-3.3433.038-8.3564,0-16.6123-.7332-24.7646-2.6567-7.3457,3.3558-8.4966,8.6277-3.3257,15.3633,9.9868,11.6986,17.479,24.8773,23.2236,39.0978.8491,2.4688,2.2363,4.8176,1.7266,7.5947-.0366.0876-.0898.165-.1313.2494.0098-.0052.0181-.0127.0278-.0179,5.8008-2.5549,11.6743-3.71,17.6104-3.71,4.6436,0,9.3247.7068,14.0391,2.0033,1.123.3088,2.2344.7297,3.4058.7297.2192,0,.4404-.0148.6646-.0477.2402-.0939.4482-.2322.6353-.3979-.3179-1.5419.1519-2.9886.5957-4.4401,5.2578-13.6682,11.8052-26.6106,21.3965-37.8295,1.1821-1.4683,2.1484-3.134,3.4688-4.4629,3.1572-3.1777,3.8223-6.6888,1.8643-10.7147-.5605-2.9608-1.9229-4.1866-4.0303-4.1866-.8491,0-1.8188.199-2.9062.5635-6.1831,2.0732-12.6191,2.7715-19.1304,2.772h-.0249M440.7856,511.0072c.082,0,.1631-.014.2026-.0454.1157-.0927.1367-.304.1997-.4911,3.6636-4.3564,8.605-6.999,13.2192-10.0714.1304-.0891.2563-.1954.3799-.3108-.2466-.6451-.562-1.2678-.7446-1.9365-4.9561-14.2974-10.7349-28.0907-21.6421-39.1469-1.7212-1.7445-3.2407-3.0122-5.4336-3.0121-.1289,0-.2607.0044-.395.0134-.1328.235-.2754.4644-.4307.6863-.3047.3752-9.2485,8.6688-10.0273,9.5607-2.5537,2.9244-2.0718,5.1438,1.4785,6.6996.4707.1344.9014.3467,1.3008.6265,4.8657,6.3459,10.4946,12.1694,13.5811,19.7433,1.415,6.4579,5.083,11.8849,8.0737,17.6202.021.0403.1304.0642.2378.0642M530.104,510.5745c.1304-2.1636,1.0054-4.1115,2.001-6.0271,4.6479-9.9366,10.2705-19.2743,17.1147-27.8629,1.6973-1.7756,2.9536-4.139,5.7949-4.4105l.022.0193c.0107-.0254.0239-.0479.0352-.073-.0649-.0867-.1294-.1733-.1958-.2598.376-3.1027-1.0249-5.3589-3.3218-7.2738-1.2095-1.0083-2.2568-2.2126-3.3696-3.3361-3.2231-3.2539-4.8911-4.9377-6.4214-4.9376-1.6401,0-3.1226,1.9343-6.1938,5.943-.3198.4176-.5889.8739-.8945,1.3058-7.4385,7.9843-11.5312,17.8192-15.3745,27.7888-1.9946,3.8154-2.6431,7.5569-.3525,11.145.2661.1144.5298.2313.79.353,4.2192,1.5125,7.5625,4.207,10.3662,7.6259M560.6309,535.1499c.998,0,1.2793-1.4625,1.8721-4.9023.1255-1.3113.6011-2.4753,1.4395-3.491,2.8408-11.1642,4.1504-22.584,5.7637-33.9456.4834-3.4036,1.8193-6.8033.6343-10.3143-.6245-1.5765-1.8813-2.5934-3.1597-3.5867-3.061,3.0826-6.5073,5.7982-8.9517,9.4674-4.9604,6.7054-9.2075,13.8286-12.647,21.4287-1.6567,3.1628-2.6812,6.5829-4.0103,9.8787.0386.057.0811.1089.1191.1669,5.6025,3.5479,9.4854,9.0533,14.8584,12.9098,2.1079,1.5128,3.3091,2.3884,4.0815,2.3884M508.1685,489.9197c.0059-.0353.0063-.0663.0122-.1017-.0337.0193-.061.0403-.0938.0599.0269.0143.0562.0266.0815.0417M569.4087,0c-2.1367,0-4.3506.3086-6.5801.9174-4.9497,1.3511-13.4224,5.6851-14.5464,19.5289-.3804,4.6831-.9966,9.3239-1.6489,14.2372-.124.9315-.2485,1.8716-.3726,2.8176-3.7031-.7281-7.1719-1.0839-10.5444-1.084-11.4795-.0004-21.3481,4.287-29.3315,12.7432-.9062.9598-1.7725,1.9226-2.6104,2.8534-2.8149,3.1274-5.2461,5.8285-8.1113,7.3698-.1069.0575-.2124.1172-.3169.1788-3.437,2.0322-6.6372,3.02-9.7832,3.02-2.9844,0-5.9702-.8929-9.1284-2.73-.5039-.2932-1.0327-.5352-1.5776-.7241-1.8369-1.8448-3.6885-3.6747-5.54-5.5043-3.5654-3.5229-7.251-7.165-10.7124-10.8124-2.6631-2.9177-5.7783-3.9969-7.8486-4.7144l-.1577-.0546c-.731-.2539-1.4917-.4124-2.2632-.4714-1.1899-.0913-2.3804-.1985-3.5713-.3052-3.3594-.3014-6.8335-.6132-10.4263-.6132-3.6812,0-7.0317.3397-10.1494,1.0428-.2412-1.8733-.4678-3.7751-.6997-5.7223-.7871-6.6135-1.6016-13.4523-3.1792-20.3071-.2085-.9064-.5562-1.7749-1.0308-2.5748-3.4409-5.7974-9.189-8.9904-16.186-8.9907-.4434,0-.8975.0129-1.3501.0383-15.1333.8489-20.3247,13.7373-22.2793,18.5892-.2002.4965-.3555,1.0098-.4639,1.5339-2.0293,9.7756-2.6289,20.4531-1.8887,33.6024.0708,1.2545.1367,2.51.2026,3.7659.6689,12.7142,1.3608,25.8613,6.7329,38.8134.6602,1.5913,1.4146,3.0156,2.0801,4.2723.6226,1.1754,1.2192,2.3026,1.5435,3.2203.0747,1.3525.4565,2.7051,1.1665,3.9512,3.4248,6.0144,5.2349,10.7968,5.8682,15.5063.0605.45.1553.8947.2827,1.3304l1.4517,4.9531c1.1729,4.0026,2.3462,8.0051,3.5166,12.0085,4.3271,14.803,11.1333,24.9954,21.3813,31.9924-.0083.8475-.021,1.6953-.0342,2.5433-.0977,6.3695-.1982,12.9509,1.5166,19.8783-.0225.1849-.0659.4635-.1294.8325-2.1914,12.7239-2.0815,25.0413.3267,36.6101-.0068.0665-.0215.1808-.0532.358-2.5127,14.1169-2.4785,26.5371.1089,37.9174-.02.0876-.0391.1759-.0581.2648-2.2563,10.6941-2.4829,21.6436-.6943,33.4767.4214,2.7872.458,4.9319.1191,6.9539-1.7715,10.5575-1.7397,21.5823.0942,32.7672.0825.5049.1816.9559.2695,1.3307-1.3477,5.3206-1.3994,10.5011-1.4458,15.1108-.0176,1.761-.0342,3.4243-.1162,5.0397-.168,3.3014.1553,6.3958.4404,9.1257.2417,2.3102.4692,4.4921.3589,6.3969-.0083.1434-.0132.287-.0146.4307l-.0229,2.2097c-.0073.6965.0659,1.3889.2173,2.0637-1.4302,9.2098-1.3911,19.1606.1143,30.3608.1816,1.3491.5288,2.4988.832,3.4066-.3477.7054-.6748,1.3981-.9956,2.0779-1.2246,2.5922-2.2822,4.8307-3.6992,6.1073-.4771.4297-.9067.9092-1.2817,1.4303l-.3633.5049c-2.0039,2.7847-4.0073,5.5688-6.0034,8.3523l-6.1895,6.835c-.5264.4448-1.0557.9401-1.6001,1.4767-1.2056-10.5192-2.3154-21.1139-3.3975-31.4391-3.8687-36.9294-7.8691-75.1162-16.4375-112.1364-5.6187-24.2762-15.2861-54.1653-40.3799-69.9457-10.7417-6.755-23.8765-10.3256-37.9839-10.3256-11.7305-.0001-24.0742,2.4443-35.6965,7.069-30.6211,12.1849-61.4404,34.7665-91.6021,67.1174-23.02,24.691-45.6699,55.0389-67.3206,90.201-35.4937,57.6442-62.6848,125.4122-80.8179,201.422-18.4043,77.1472-37.7825,192.7655-25.5837,305.4598,2.0779,19.1948,6.342,40.7571,22.2144,55.1433.0488.0442.0981.0879.1479.1313,11.1013,9.626,24.8513,14.5068,40.8682,14.5068,22.2915,0,46.0396-9.6414,61.7898-16.0479,33.1389-12.5847,67.7737-21.6934,102.9421-27.0728,8.2935-1.2686,16.6919-2.3308,24.8135-3.3579,25.2742-3.197,51.4089-6.5024,77.1731-16.4363,1.7808-.6865,3.3228-1.5125,4.6831-2.2412,1.354-.7256,2.8887-1.5479,3.5483-1.5479.0337.0005.0674.0007.1016.0007,1.3608,0,2.7148-.3083,3.9395-.9023,25.7393-12.4849,43.2598-28.9863,53.5625-50.4473.5718-1.1917.8696-2.4844.8857-3.7849,4.2715-9.5659,5.8208-18.9795,7.3218-28.101.3618-2.1959.7354-4.4666,1.1416-6.701,1.3564-7.4597,4.0156-14.7141,6.8311-22.3945,1.6406-4.4766,3.3374-9.1055,4.7852-13.8485,5.3618-17.5671,7.6362-37.4495,7.1592-62.5714-.2026-10.6572-.7026-21.0656-1.4863-30.9355-.2192-2.7599-.6235-5.4453-1.0151-8.0422-.832-5.5229-1.6182-10.7395-.2798-14.9094,1.8467-5.7545,1.7979-11.5319,1.7549-16.6292-.0093-1.0887-.019-2.1759-.0083-3.256.0591-6.026-.2793-11.9753-.6069-17.7286-.1772-3.114-.3604-6.3341-.4717-9.4567-.5327-14.9821-2.0405-31.1567-4.6079-49.4146.0581-.0336.1167-.0668.1748-.1003.6782-.3912,1.7031-.9824,2.75-1.8579,12.2144-10.2131,24.417-20.4393,36.6201-30.6655l6.7446-5.6521c.4956-.4153.9453-.8827,1.3403-1.3943,1.1304-1.462,3.3257-2.4824,6.5015-3.6552,4.3755-1.6154,7.8477-2.3677,10.9263-2.3677,2.8481,0,5.3149.6451,7.7622,2.0303.1055.0596.2119.1169.3193.1722,9.0962,4.675,17.0024,11.3068,25.3726,18.3278.7964.6682,1.5933,1.3364,2.3911,2.0031,5.4917,4.5884,11.0942,9.2067,16.5122,13.6727l2.0303,1.6736c1.502,1.2384,3.0005,2.2983,4.4497,3.3235,3.8901,2.7516,5.624,4.1437,5.8979,5.9271.3643,2.3744-.1602,5.4153-.7158,8.6345l-.1025.5958c-2.8608,16.668-4.3457,33.6952-4.4131,50.6095-.0474,12.1484.5859,27.9991,5.9502,42.8691,1.603,4.4449,3.2866,8.6199,4.9141,12.6571,4.6372,11.5018,8.6416,21.4352,9.4336,33.7465,1.1685,18.1637-1.9194,35.9188-5.1885,54.7166l-.5532,3.184c-4.1294,23.8488-1.8936,47.4547,6.4658,68.2661,8.728,21.7297,24.0273,40.0127,44.2432,52.8728,29.0459,18.4773,63.1636,25.166,92.7065,29.2722,7.5264,1.0461,15.1714,1.98,22.5649,2.8833,22.9663,2.8057,46.7144,5.707,68.8604,12.2817,10.7456,3.1899,21.7578,7.4041,32.4067,11.4795,23.8188,9.1155,48.4482,18.541,74.2759,18.541,4.6548,0,9.2861-.3113,13.7646-.9255,13.7183-1.8809,24.624-6.6724,32.4146-14.241,6.1401-5.9656,10.6826-13.8826,14.2949-24.916,6.7642-20.6609,7.6587-42.635,7.9663-61.6096.2368-14.6587.2012-29.4941-.1064-44.0945-1.7324-82.1248-11.9399-161.6263-30.3394-236.2964-13.7607-55.8461-33.0537-107.8855-57.3438-154.6726-26.4888-51.0236-59.0825-96.0533-96.8755-133.8383-10.0322-10.03-20.5469-19.6637-31.2524-28.6338-17.0352-14.2729-40.0576-31.4447-67.1055-37.5953-6.4321-1.4626-13.0615-2.2043-19.7031-2.2043-23.1289,0-43.647,8.8621-56.293,24.3136-8.3188,10.1635-12.8335,22.4155-16.4727,34.1417-11.2954,36.392-15.248,73.5919-19.0703,109.5671-1.9365,18.2241-3.9385,37.0687-6.8716,55.517-.0527.3293-.1011.6565-.146.9814-8.6011-9.6996-15.1309-19.0469-19.9204-28.5052-.0264-.0515-.0527-.1025-.0796-.1534.6235-2.5679.7979-4.9583.9546-7.1107.0366-.5005.0728-1.0015.1157-1.5023.5156-5.9934.2197-11.797-.0674-17.4095-.248-4.861-.4824-9.4524-.1929-13.9242.3818-5.9026.021-11.6028-.3276-17.1152-.3784-5.9801-.7358-11.6285-.1294-17.05.9541-8.5282.7168-16.8456.4868-24.8888-.2192-7.6808-.4263-14.9354.3579-22.1219.7559-6.9255.438-13.6917.1304-20.2351-.2788-5.9307-.542-11.5327-.0283-17.0085.7627-8.1403.4111-16.165.0708-23.9255-.2168-4.9452-.4214-9.6162-.3579-14.2981l.1016-7.3247c.1919-13.7477.3896-27.9421.4399-41.9669,7.1924-5.1111,12.6768-11.6361,16.3159-19.4177.1958-.4188.3594-.8522.4888-1.296,1.8145-6.2313,3.856-12.5726,5.8306-18.7053.9932-3.085,1.9863-6.1699,2.9585-9.2612.2793-.8865.5425-1.7811.8057-2.677.8989-3.0621,1.6753-5.7068,3.0278-7.5371.375-.5079.6958-1.054.957-1.6288l4.5811-10.095,4.5806-10.0942c.2925-.6442.5078-1.3203.6416-2.0149,2.8257-14.6478,4.2495-28.0638,4.3535-41.0146l.0054-.6351c.1064-13.0037.2168-26.4501-7.5552-39.4321-.0239-.0393-.0474-.0784-.0718-.1173-3.9922-6.4434-10.231-9.9918-17.5674-9.9918h0ZM474.0303,483.1367c-6.3979-15.7462-14.3164-29.0896-24.1909-40.7606,6.5093,1.1266,13.3862,1.6777,20.855,1.6777,1.1562,0,2.3486-.0134,3.5435-.0402,3.5396-.079,7.3467-.1158,11.9829-.1158,3.1206,0,6.2417.0164,9.3623.0327,3.1523.0165,6.3047.033,9.4561.033h.0249c5.792-.0005,11.0449-.5165,15.8989-1.5686-.4561.5897-.8584,1.1531-1.2207,1.6605-.3188.4469-.6216.871-.8862,1.207-8.6919,10.1967-15.6934,22.3065-21.9233,37.9482-4.0439-.8214-8.021-1.2362-11.8716-1.2362-3.7393,0-7.4248.3892-11.0308,1.1622h0ZM426.5205,468.731c.4893-.4613.9731-.9169,1.4165-1.334,7.0537,7.901,11.6924,17.4926,15.9561,29.0858-.2139.1418-.4282.2854-.6426.4307-.876-1.856-1.5835-3.6859-1.9849-5.517-.1099-.5022-.2627-.994-.457-1.4702-2.8774-7.0608-7.4448-12.701-11.4751-17.6774-.9795-1.2096-1.9131-2.3624-2.813-3.5179h0ZM529.7178,489.5717c3.082-7.5531,6.416-14.2728,11.542-19.775.2744-.2943.5283-.6066.7607-.9349.1289-.1818.2534-.366.377-.5511.0771.0806.1538.1613.231.2419.291.3053.5947.6239.9155.9508-.0483.0574-.0957.1138-.1421.1687-.2651.3152-.5151.6129-.688.7936-.1865.1952-.3643.3987-.5327.6099-4.5327,5.6879-8.7026,11.8784-12.4634,18.4962h0ZM552.3164,516.734c.3921-.9818.7964-1.908,1.2383-2.7518.0801-.1528.1558-.3081.2266-.4653,1.583-3.4972,3.3867-6.9504,5.3965-10.3342-.8403,5.9005-1.7432,11.6206-2.9858,17.2557-.0386-.038-.0771-.0758-.1157-.1138-1.1729-1.1552-2.4141-2.3778-3.7598-3.5906h0Z"/>
      </g>
      <path class="cls-16" d="M880.8999,595.5335c-.78,7.49-.0898,15.08-1.1201,22.62-.5598,4.16-.3098,8.4-2.3298,12.3-.5801,1.11-.4299,2.4.0701,3.58-14.2002,35.52-32.9102,68.34-58.1401,97.26-1.95,2.24-3.76,4.6-5.6399,6.8999-6.4102,7.77-13.53,14.8301-21.27,21.28-13.8801,11.49-27.21,23.65-41.8601,34.24-23.1399,16.72-47.3899,31.67-72.3198,45.53-6.1501,3.42-12.7603,5.8301-19.75,6.6101-18.2402,2.0399-30.9702-13.6702-26.6602-32.5701,3.29-14.38,10.6201-27.3,12.71-42.17,3.5-24.7999-7.04-44.6899-24.8899-61.13-9.4001-11.83-18.73-23.72-25.8801-37.11-6.1699-11.54-9.1199-23.9-9.4199-36.95-.6499-27.82.97-55.45,4.9102-83.04,4.9897-34.97,9.6099-69.98,14.6099-104.95,4.6499-32.52,7.9099-65.25,13.21-97.7,3.71-22.73,7.3201-45.4901,14.6602-67.41,3.5498-10.58,9.3098-20.08,15.73-29.15,2.95-4.17,7.49-5.4901,12.24-6.39,5.9399-1.12,11.8799,0,17.8198-.24,9.6301,2.4,18.5701,6.13,27.0601,10.67,11.0801,5.93,21.4099,13.23,31.6201,20.78,5.7698,4.26,11.2898,8.83,16.3298,13.96-1.51,2.58,89.5,115.13,100.1802,137.92,14.6299,31.24,18.8098,72.29,25.2,106.43,3.6299,19.38,5,38.98,2.9299,58.73Z"/>
      <path class="cls-4" d="M382.5364,465.0871c3.3686,27.0742,7.8732,53.9652,13.0014,80.7565.2951,1.5413.3433,3.1299.5064,4.6965.69,1.4243.5821,2.5476-1.2867,1.7597-1.0946-.4615-1.444-1.9608-1.6817-3.1641-3.4218-17.3252-6.5766-34.6911-7.9943-52.4813-.2131,4.6212,1.2501,8.9462,1.4428,13.3869.9511,21.9148,1.8927,43.8404,3.0026,65.7348.8745,17.2527-.439,34.3795-.0716,51.5586.0227,1.0614-.101,2.1104-.8833,2.9455.1292-.1379-26.2002-11.869-28.8788-12.692-9.5763-2.9424-20.0951-5.257-30.0683-5.9243-12.0006-.8029-24.7993,1.0659-36.8261,1.5831-12.2828.5283-24.5655,1.0566-36.8483,1.5848-9.5534.4109-19.1214.8218-28.6742.3972-16.2643-.7229-32.3626-3.8941-47.8722-8.7848-14.2808-4.5032-29.0368-9.8772-41.4667-18.3749-3.2717-2.2367-6.3854-4.7212-9.8391-6.6651-1.8959-1.0671-3.8864-1.9665-5.7313-3.1195-6.9003-4.3122-12.7412-11.7812-17.8277-18.0487-2.7437-3.3807-5.3259-6.894-7.6959-10.547-1.8736-2.8879-6.1719-8.0162-6.4982-11.484-.2647-2.8137-2.4606-4.9622-2.6991-7.7874-.4772-5.2362,1.0542-10.1509,2.8576-14.8886,9.4504-24.8277,21.125-48.6308,33.4974-72.1111,8.6897-16.4913,17.9809-32.6391,28.8376-47.7844,16.6703-23.2555,33.7077-46.1883,53.2789-67.2303,13.3291-14.3307,27.5247-27.6113,42.6611-39.8466,13.8598-11.2034,29.3948-19.7626,46.496-25.3084,8.5151-2.7614,16.9529-5.7799,25.4012-8.7516,3.9807-1.4002,7.8332-1.7659,11.5703.6365,10.2577,6.4819,15.7035,16.5876,20.3236,27.2473,1.9988,4.6116,3.5812,9.4036,5.3528,14.1136,4.4135,12.0304,6.7695,24.5755,9.0004,37.1215,4.3105,24.2412,7.2304,48.6638,9.6918,73.1679,1.7616,17.5373,3.3252,35.1191,6.0516,52.5559.2962,1.8943.333,3.8415-.1301,5.7475Z"/>
      <path class="cls-4" d="M287.0771,816.6012c-3.863-5.6227-7.7401-11.2359-11.5863-16.8702-9.0519-13.2599-20.6657-23.815-34.2893-32.1683-38.3889-23.5379-65.6049-56.9223-86.1943-96.4505-9.8372-18.8858-16.381-39.1238-25.4091-58.3155-.4326-.9196-.4627-2.0284-.6803-3.0492,2.9149-1.7855,5.0811.4101,7.2207,1.6159,23.4298,13.2047,48.6727,21.0711,75.1704,24.6167,21.2759,2.847,42.7218,2.0467,64.1466,1.1753,26.1018-1.0615,52.28-2.6104,77.9538,4.3986,10.7495,2.9346,20.7536,7.616,30.5643,12.7804,3.4529,1.8176,5.1624,4.6377,5.0495,8.5436-.7449,25.7814-.7169,51.6409-7.4863,76.8322-6.9871,26.0012-22.6169,45.6578-44.6847,60.5092-12.8444,8.6441-26.9037,14.366-42.179,17.0539-2.6142.46-5.2009,1.1142-7.5962-.6722Z"/>
      <path class="cls-8" d="M858.9381,919.1244c-14.9146-8.1965-28.4643-18.4691-42.4758-28.0307-20.3556-13.8909-41.8996-27.4472-65.9306-33.8974-9.6435-2.5884-19.5846-3.8831-29.4292-5.3724-4.1147-.6225-8.2748-1.0413-12.4037-1.5661-2.1103-.2682-4.2209-.5345-6.3337-.782-1.2491-.1464-3.9912.0933-5.0517-.5435-3.2165-1.9313,5.8054-1.8684,6.8188-2.1205,6.081-1.5134,11.194-4.9809,16.5838-7.8808,26.6799-14.3552,51.4105-31.6031,74.2591-51.4226,21.2378-18.4224,40.8267-38.5184,57.2693-61.4444,4.9993-6.9706,10.0286-13.9572,14.2086-21.4853.4254-.9326.9698-1.7918,1.5901-2.6051,1.8043-2.1897,3.3287-4.5549,4.4872-7.1576,11.662-21.5642,20.7736-44.145,27.2386-67.79.2318-.8476.4742-1.6983.8923-2.4729.5001-.9262,1.0238-2.0198,2.1926-2.0563,1.2483-.0391,1.626,1.1568,2.0029,2.098.9175,2.2914,1.3781,4.7135,1.8978,7.1171,5.4621,25.2617,8.6296,50.8377,11.1506,76.5454,2.9125,29.701,5.6445,59.4104,4.9103,89.2672-.5608,22.8009-1.9358,45.6047-7.4544,67.8918-4.1085,16.5923-11.4601,31.3489-25.3583,41.9876-5.653,4.3271-12.249,6.8639-19.3989,7.5216-3.1487.2897-6.3265,1.1443-9.3527,1.078-3.3008-.0723-1.7045,2.025-2.3129,3.1209Z"/>
      <path class="cls-12" d="M850.9393,914.4717c8.5656-.1835,20.8103-.2327,29.081-3.3232,12.6644-4.7324,20.2176-14.6728,26.4116-25.7758,6.2957-11.2855,8.7498-23.9189,10.7025-36.5261,3.5416-22.8665,4.7917-45.9391,4.1999-69.044-.5141-20.0745-1.5644-40.1372-3.9849-60.1158-1.8038-14.8886-2.5602-29.9071-4.4826-44.7772-1.5854-12.2641-4.0846-24.4169-6.4079-36.5753-.9461-4.9511-1.4469-10.021-3.4739-14.9118-1.1132.4475-1.2734,1.5943-1.55,2.6707-6.2109,24.1722-15.5374,47.1052-27.474,68.9968-.2404.4409-.6952.7649-1.0499,1.1434-1.8061,1.8486-3.2063,3.9678-4.2271,6.34-.3609.7053-.7219,1.4107-1.0829,2.1159-3.32,5.1374-7.7593,3.5302-12.1822,2.0215,13.2729-21.0557,24.92-42.9607,34.2173-66.0679,9.5067-23.6279,16.2513-48.0308,20.0402-73.2288.3291-2.1882.3031-4.4298.8374-6.7166,3.178,7.1048,4.7151,14.6732,6.5612,22.1201,8.3415,33.6478,14.7015,67.6919,19.8671,101.9583,1.6934,11.2332,2.9205,22.5368,4.3608,33.8081,1.4476,7.3496,1.7634,14.8342,2.3278,22.2645,3.5322,46.4978,8.1058,95.64,3.5746,142.4471-1.2063,12.4604-2.439,24.9909-7.8706,36.5764-2.9031,4.3299-5.0883,9.128-9.3023,12.5618-9.3859,7.6483-20.0313,7.8282-30.9318,5.0761-7.2706-1.8357-14.3978-4.3483-21.0984-7.7292-2.8869-1.4566-5.5557-3.1009-8.2662-4.8533-2.8212-1.824-16.5116-8.4809-18.7967-10.4557Z"/>
      <path class="cls-9" d="M287.0771,816.6012c16.8502-1.5156,32.2172-7.0928,46.5252-16.1442,22.5094-14.2398,38.4368-33.5441,46.0416-59.1754,3.3732-11.369,5.1319-23.1137,5.8912-35.0222.9131-14.3228,1.774-28.6365,2.1182-42.988.0999-4.1642-1.577-6.2656-5.086-8.1594-21.8996-11.8194-45.1583-17.3036-70.0919-17.1404-11.3351.0742-22.7575-.304-34.0058.5052-14.4068,1.0365-28.7633.6123-43.1345.7047-20.9432.1347-41.254-3.8681-61.2413-10.0191-14.6415-4.5058-28.4941-10.6263-41.7301-18.2614-1.0283-.5932-2.2917-.7786-3.4459-1.1535-1.0524-3.5337-2.1047-7.0675-3.157-10.6013-.4561-.999-.6843-1.8894.9107-1.911,2.5448-.0344,8.9442,5.7169,11.3807,7.0786,4.5631,2.5503,9.2641,4.85,14.0589,6.9309,8.6903,3.7715,17.509,6.4257,26.5836,8.7751,19.2941,4.9951,37.9652,7.5252,57.9529,7.4412,39.266-.1649,79.5831-7.0777,118.2101,2.9554,14.1073,3.6643,27.5509,11.1964,39.0159,20.1557,3.9134,3.0581,7.529,6.394,7.2053,12.0352-1.9174,7.9976,1.5373,18.423,2.2682,26.5216.8473,9.3889,1.2248,18.8241,1.0031,28.2502-.1849,7.8578-.7847,15.6992-1.3842,23.5362-2.5604,33.4674-16.7993,61.5496-46.4441,78.7039-6.3133,3.6533-12.9603,6.7135-19.7687,9.3211-10.948,4.1931-22.3166,7.0472-33.8375,9.2863-2.2352.4344-3.5278.1231-4.6762-1.9759-3.6152-6.6076-7.4269-13.1078-11.1625-19.6495Z"/>
      <path class="cls-17" d="M108.8639,593.0548c3.7253,12.2245,6.5515,24.6699,11.8724,36.4608,8.4424,18.708,14.9467,38.2956,25.6354,55.9785,12.7259,21.0532,25.258,42.2271,42.8041,59.8574,13.2336,13.297,28.8386,23.5945,44.1163,34.1261,15.0911,10.4031,27.3219,23.0305,37.0484,38.3229,4.1466,6.5196,8.089,13.1707,12.0493,19.8066,2.6685,4.4713,2.3868,4.4409-2.6427,4.9851-34.9883,3.7855-70.1668,6.2275-103.8694,17.8767-24.9001,8.6066-46.5004,22.6208-67.3292,38.2444-15.6152,11.7129-31.9392,22.2805-50.7932,28.1776-4.167,1.3033-8.4899,2.1042-12.7323,3.1711-4.4052,1.1079-7.9214.2264-9.8837-4.2782-.6648-1.4658-2.2845-2.6226-1.4815-4.5633,3.3485-2.8266,7.651-3.381,11.6072-4.6342,17.9129-5.6744,32.1898-17.1962,46.075-29.0613,26.1708-22.3631,54.4638-40.8837,87.2993-52.0485,19.7435-6.7133,40.1466-10.3004,60.5697-13.9011,5.8764-1.0361,11.7333-2.2988,17.7543-2.3327,3.5552-.02,3.7563-1.4657,1.8-4.1382-4.7084-6.4321-10.0056-12.1822-16.696-16.6661-14.7406-9.879-29.8274-19.2706-43.2907-30.9576-19.7593-17.1523-36.8749-36.6066-51.4618-58.3148-5.8872-8.7613-11.6436-17.5169-15.1698-27.6417-2.7816-7.987-8.1048-14.7693-12.0251-22.2413-13.2507-25.2553-23.1338-51.5941-26.2394-80.1564-.5013-4.6109-3.7014-7.8896-5.5694-11.8243-1.1464-2.4148-2.8468-5.167,1.9637-5.5346,8.9723,8.7753,16.7553,18.2641,18.5891,31.2868Z"/>
      <path class="cls-19" d="M677.5784,247.04c-4.7782,1.716-9.7159.5911-14.5673.6949-6.666.1425-11.4597,2.6879-15.4303,8.2507-12.85,18.0028-18.4859,38.5523-22.7402,59.8194-3.3902,16.9473-6.0904,33.9939-8.7096,51.0564-2.2483,14.6466-4.0065,29.3691-5.9391,44.0635-1.8876,14.3525-3.6522,28.7214-5.5988,43.0658-1.9223,14.1652-3.9914,28.3105-6.0205,42.461-2.3019,16.0526-4.7196,32.0893-6.9151,48.1563-1.3697,10.0236-2.3474,20.1002-3.6317,30.1362-2.3663,18.4898-1.8278,37.0751-2.2252,55.6442-.4833,22.579,7.0668,42.0162,20.6899,59.6299,4.8687,6.2948,9.8468,12.6215,13.2071,19.9624-15.0113-11.6321-29.643-23.6391-39.6352-40.2183-7.8318-11.007-11.7549-23.5107-12.4581-36.7634-.9863-18.5865.1385-37.1867,2.1441-55.6845.3882-3.5801.3404-7.301,1.459-10.8022,4.7539-29.5529,10.2233-58.9874,14.6429-88.5863,2.6409-3.7367,2.0644-8.2854,2.5376-12.3901,2.5184-21.8433,5.6284-43.6181,7.7067-65.5134,2.0854-21.9695,4.4369-43.9444,8.3785-65.6703,1.9633-10.8217,4.3154-21.5766,7.2086-32.1891,2.4084-8.8342,4.2725-22.4289,11.1556-29.0226,6.5555-10.4447,15.0236-18.6586,26.6323-23.4126,9.1386-3.7423,18.4228-5.0934,28.1086-2.6882Z"/>
      <path class="cls-2" d="M332.2463,255.1334c-3.0729-.6779-6.0486-1.0288-9.2157.0352-14.2248,4.779-28.4777,9.4625-42.2977,15.3577-14.6556,6.2517-27.2583,15.6377-39.2849,25.8449-28.5765,24.2534-52.482,52.6233-74.8875,82.609-21.2083,28.3834-38.9331,58.6367-54.2597,90.3945-8.2106,17.0131-16.7454,33.9258-22.3642,52.0948-.9461,3.0592,2.1981,14.2429.5763,17.0781-5.1308-8.3027-8.997-25.7568-11.4885-34.9511-.6468-2.3869,1.1557-4.3388,2.0419-6.3817,21.585-49.7554,46.922-97.4093,79.791-140.7219,27.9655-36.8512,59.1725-70.3149,99.2322-94.4285,12.1559-7.3171,24.8962-13.3043,39.1393-15.5371,12.3123-1.9301,23.1387,1.415,33.0175,8.606Z"/>
      <path class="cls-1" d="M93.3171,937.9172c-10.2847,3.3278-20.7266,3.9236-31.4539,1.8359,26.8102-7.4712,47.6601-24.9162,69.6412-40.4514,26.0518-18.412,54.8047-30.4296,86.3825-35.1761,23.5735-3.5433,47.2757-6.2284,70.8539-9.743,28.0216-4.1769,55.6757-9.7863,79.7342-26.1127,5.3113-3.6043,10.3097-7.6699,16.4415-12.2644-3.2728,13.1141-6.8283,24.7198-15.2769,34.1832-8.3346,8.1737-18.9896,11.7996-29.8394,14.7648-27.0241,7.3856-54.7628,10.331-82.5365,13.3069-38.9719,4.1759-76.9658,12.741-112.4999,29.8054-14.3738,6.9027-28.0518,15.2858-41.8242,23.3816-3.3114,1.9465-5.5776,5.5382-9.6225,6.4696Z"/>
      <path class="cls-11" d="M627.0333,847.2181c6.9561,5.7572,14.7422,10.6165,23.94,11.9033,13.1028,1.8332,26.2861,2.2394,39.4106,2.4856,46.3119.8688,86.9988,16.7249,123.5865,44.4413,8.5177,6.4524,17.5089,12.2798,25.9752,19.148-9.1631-3.3808-18.3447-6.7128-27.486-10.1519-23.9654-9.016-48.9337-13.2704-74.2367-16.3584-26.0516-3.1795-52.5052-4.0923-77.716-12.5231-5.2896-1.7688-10.6168-3.4857-15.4839-6.3098-4.3713-2.4096-8.3807-5.4913-13.1437-7.1693-2.021-.7119-3.2288-2.1605-3.5772-4.1361-.5253-2.9779-1.9915-5.4995-3.187-8.2006-1.94-4.383-.8919-9.8502-5.1507-13.5462-.9303-.8074-.534-3.18,1.1072-4.0769,1.9016-1.0394,2.1794,1.0414,3.0634,1.9236,1.1116,1.1093,1.9275,1.3412,2.8983,2.5705Z"/>
      <path class="cls-5" d="M627.1823,848.2205c-2.3214-.9987,14.2047,28.8452,17.8403,31.6324-22.6601-8.8423-41.189-22.8792-54.5618-43.3986-6.0778-8.2335-8.2267-17.9982-10.0787-27.6841-3.1625-16.5392-.98-32.8575,3.5395-48.9272,3.4385-13.9503,4.5882-28.1691,4.9716-42.4763.0562-2.0962.0363-4.1946.0515-6.2919-.3328-1.1374-1.0678-2.716.5152-3.0719,1.5703-.353,1.7467,1.4773,1.8488,2.5856.4674,5.0744.5207,10.1974.0886,15.2453-.3486,4.0728,1.1598,6.3473,4.3883,8.6225,10.1829,7.1763,17.9216,16.754,24.6379,27.0923,4.5035,6.932,5.2101,14.9396,4.7765,23.1556.8222-.9819,1.1508-2.4752,2.8125-1.8191.0941.0372.1567.2441.1685.3778.0149.1707-.0367.3471-.0596.5211-2.035,5.3523-4.0845,10.6992-6.1023,16.058-6.261,16.6279-6.8566,32.6583,5.0143,47.376.1829.2267.1052.6635.1489,1.0023Z"/>
      <path class="cls-14" d="M34.2416,921.0727c.299,1.5701.5981,3.1403.8974,4.7109-.3306-.1968-.6615-.394-.9924-.5912-5.4838-6.8091-6.4765-15.1708-7.8835-23.3318-1.5017-8.7101-1.9465-17.549-2.6284-26.3536l.0306.0556c-3.5783-45.2943,2.1504-97.9509,3.8593-122.6837,1.7867-25.8582,4.5532-51.6486,8.2896-77.2977,7.1401-49.0143,15.4454-100.544,35.1444-146.1532,2.2808.2096,3.7823,4.4213,4.5926,6.2184,1.1951,2.6505,1.4037,3.5484,2.7891,5.7718.4854.779,1.2393,4.4385,1.6974,5.2338.8856,1.5375,1.5885,1.7915.8398,3.2048-4.3019.231-3.936,4.0593-4.6622,6.609-3.7087,13.022-6.5423,26.2683-9.4889,39.4787-3.8247,17.1472-7.6888,34.2867-10.6948,51.6088-5.0802,29.2747-9.3581,58.6624-12.9587,88.1544-2.0444,16.7457-3.8587,33.5186-4.9565,50.3461-.8571,13.1378-1.8898,26.2948-2.2179,39.4358-.6183,24.7626-1.9575,49.5234-1.2715,74.3125.1363,4.9239,1.3771,9.7552,1.0693,14.7116-.1413,2.2756.0762,4.6029-1.4546,6.559Z"/>
      <path class="cls-13" d="M93.3171,937.9172c-.4118-.2671-1.8915-.3532-.966-.9311,7.7226-4.8236,15.0701-10.232,23.1244-14.5477,8.3408-4.4695,16.3964-9.4779,24.7895-13.8412,11.5283-5.9933,23.732-10.4708,35.9682-14.7619,15.8615-5.5625,32.2019-9.4793,48.7451-12.2751,12.3642-2.0895,24.7462-4.1558,37.321-5.0502,11.4677-.8157,22.8639-2.6993,34.2748-4.2365,15.2436-2.0538,30.3525-4.9093,45.0745-9.3695,9.4932-2.876,19.1139-5.7853,26.6514-12.8567.4396-.4125.9401-.3548,1.3393.142-7.7997,10.3058-18.1446,17.4547-29.4288,23.3097-24.5568,12.7419-50.6771,19.8186-78.272,22.1591-38.429,3.2594-76.6187,7.9976-112.9604,22.1474-15.9663,6.2166-31.5038,13.5659-48.004,18.3804-2.5073.7316-5.1025,1.1617-7.657,1.7314Z"/>
      <path class="cls-18" d="M855.4189,706.7107c3.9212-1.5153,8.6729,1.9722,12.1824-2.0217-5.738,10.8358-13.0559,20.6226-20.4093,30.3608-11.6565,15.4367-25.4285,28.9492-39.2058,42.4446-21.0015,20.5719-45.0109,37.2045-69.6833,52.9206-7.8191,4.9807-16.1835,9.0973-24.1844,13.8033-3.8524,2.266-14.1828,4.9811-16.0976,4.835-2.0183-.3454-4.0365-.6909-7.1649-1.2264,64.672-36.5393,123.0822-79.0262,164.5628-141.1163Z"/>
      <path class="cls-10" d="M898.97,546.6035c-3.05,30.13-9.9402,59.36-21.45,87.43-.8101-.19-2.6802,1.53-1.9202-1.35,4.99-18.98,4.3501-38.46,4.53-57.79.21-22.83-4.01-45.05-10.9399-66.87-8.5-26.75-19.0901-52.6-31.6899-77.64-9.05-18-19.4202-35.24-30.76-51.9-.8801-1.3-1.6201-2.7-2.4299-4.05-10.9302-15.17-21.9502-30.32-34.4702-44.22-10.2-11.32-12.692-28.0548-25.0721-37.1148-5.21-3.82-40.7179-33.8052-40.1279-35.3852,11.0801,5.93,21.4099,13.23,31.6201,20.78,5.7698,4.26,11.2898,8.83,16.3298,13.96,13.3501,11.43,25.27,24.26,36.8101,37.46,15.55,17.8,29.5801,36.76,42.79,56.34,1.3501,1.98,2.54,4.07,3.8101,6.11,18.3101,27.29,33.6399,56.19,46.27,86.5,4.5798,10.9901,8.04,22.47,13.02,33.26,5.2,11.27,4.8599,22.8,3.6799,34.48Z"/>
      <path class="cls-7" d="M388.5719,630.2803c-1.9-7.4758-.5122-14.9329-.0359-22.4262.9479-14.9136-.9841-29.7829-1.0419-44.6953-.0727-18.7371-2.271-37.4016-2.2213-56.1663.0114-4.2931-1.2185-8.6252-.5159-14.3769,2.1354,12.3855,4.032,23.4761,5.9638,34.5606,1.4075,8.0755,2.8606,16.1431,4.3051,24.2121.0197.1102.1923.1931.2935.2888.2416-.3788.4832-.7576.7248-1.1367,2.7608,10.4834,3.7265,21.2763,4.9943,31.9718,2.1611,18.233,3.2388,36.5722,3.0613,54.9585-.0099,1.0267-.0013,2.0536-.0013,4.0205-5.5727-4.0238-10.5496-7.6174-15.5266-11.211Z"/>
      <path class="cls-3" d="M628.1213,783.7841c-2.6408-1.2507-1.3424,2.3262-3.2468,2.3959-1.9817-3.2462-.6148-6.9836-1.068-10.4681-1.0752-8.2662-4.7893-15.2933-10.1172-21.4605-6.7195-7.7779-13.03-16.0475-22.3623-21.0713-1.3498-.7267-2.0549-1.5305-1.7235-3.3153,1.2832-6.9102.1089-13.8856.6698-21.0739-.5981.4046-.9763.5203-1.0544.7419-.1716.4863-.1912,1.0262-.2736,1.5431-.2224-.824-.6301-1.6485-.6234-2.4695.0109-1.3311-.8597-2.8619.4515-3.9755,1.7571-1.4923,3.2573.5565,3.9799,1.1547,13.0452,10.8019,27.3901,20.4724,35.4467,36.0651,7.1597,13.8567,5.982,27.9651-.0788,41.9335Z"/>
      <path class="cls-18" d="M868.684,702.5733c-.4481-3.3514,1.3585-5.1997,4.227-6.34-.7177,2.5743-2.0168,4.7608-4.227,6.34Z"/>
      <path class="cls-4" d="M90.2756,561.7689c5.5873,6.3241,6.039,15.0712,6.5777,23.0702.6184,9.1829,2.2318,17.5016,4.8916,26.3475,5.9857,19.9075,14.7648,38.8478,24.2457,57.3013,12.9944,25.2921,27.5675,50.0931,46.4157,71.5184,19.9923,22.7259,44.4269,41.011,69.9401,57.077,7.5931,4.7814,13.1618,11.3614,18.4093,18.4688,3.0821,4.1745.3612,4.9054-2.5457,5.018-12.1084.469-23.7956,3.519-35.6752,5.3823-31.6339,4.9619-61.2279,15.7477-88.8744,31.6843-12.572,7.2471-23.7612,16.626-35.06,25.7368-14.0025,11.2909-27.2996,23.6329-44.0362,30.9632-6.5274,2.8589-13.1873,5.5886-20.3236,6.7349-5.0133-127.2076,11.8518-256.9616,43.9351-379.925,3.636,6.1252,10.4737,18.7816,12.1,20.6222Z"/>
      <g>
        <path class="cls-15" d="M451.9305,194.8385c1.4794.3401,3.0264.4981,4.5347.6248,18.2959,1.5366,36.6948.6795,55.0533.4249,4.7632-.066,10.0428-.2936,13.4433-3.6296,3.0358-2.9782,3.6641-7.6043,3.6937-11.8569.0163-2.3453-.0971-4.6915-.3395-7.0243-.0975-.9383-.2286-1.9109-.7412-2.7028-.8216-1.2693-2.4032-1.7734-3.8641-2.1634-23.4618-6.2628-48.5788-6.2063-72.0122.162-2.0904.5681-4.2247,1.2141-5.9233,2.5583-5.3542,4.2368-3.3536,17.8475,1.7268,21.6736,1.3076.9848,2.8285,1.5656,4.4284,1.9335Z"/>
        <path class="cls-15" d="M455.5661,498.8892c-5.0987-16.0152-12.584-31.6774-24.6143-43.4095-.6827-.6657-1.4989-1.3634-2.45-1.296-.729.0517-1.3406.5463-1.894,1.0236-2.9551,2.5487-5.7761,5.2528-8.4478,8.0971-1.8885,2.0104-6.4877,5.1949-3.5639,7.8235,8.213,7.3797,13.9975,17.0497,19.0707,26.8566,1.1266,2.1777,2.2277,4.3776,3.0412,6.6906.7138,2.0297,1.2619,4.2389,2.7979,5.7456.4374.4291,1.016.8055,1.6215.7119.3794-.0586.7048-.2931,1.0141-.5205,4.2825-3.1503,8.5651-6.3005,12.8476-9.4508.3019-.2221.6191-.4639.7499-.815.1489-.3998.0218-.8438-.1072-1.2505-.0218-.0689-.0437-.1377-.0656-.2066Z"/>
        <path class="cls-15" d="M426.7758,510.4422c-3.1258-6.9897-6.9284-13.6768-11.34-19.9351-2.0787-2.9489-4.2964-5.8081-6.7828-8.4226-1.4156-1.4886-3.0891-2.9768-5.1378-3.1382-9.8249-.7711-.2721,31.7297.8539,36.5627,1.7008,7.3001,3.4016,14.6003,5.1024,21.9004,6.1605-4.5544,12.0755-9.441,17.7106-14.6313,1.0664-.9822,2.1799-2.0757,2.4458-3.5009.2279-1.2215-.2138-2.4588-.6663-3.6161-.6869-1.7567-1.4158-3.497-2.1859-5.2189Z"/>
        <path class="cls-15" d="M571.209,481.1186c-.187-.8675-.5682-1.6422-1.278-2.1836-1.1116-.8479-2.7176-.7826-3.9843-.191s-2.2658,1.6241-3.2129,2.6525c-5.4896,5.9609-10.2761,12.5669-14.2463,19.6309-3.0972,5.5107-10.6296,16.1028-5.1068,21.66,5.7034,5.7389,11.9288,10.9589,18.5742,15.5744,4.4615-17.6912,7.5809-35.7207,9.3223-53.8826.1016-1.0597.1549-2.226-.0681-3.2605Z"/>
        <path class="cls-15" d="M531.8254,445.3918c1.1279-1.8298,1.8815-3.7906,1.7619-5.9227-.1293-2.3044-1.291-4.4118-2.5011-6.3771-.6499-1.0554-1.409-2.1675-2.583-2.565-1.5572-.5273-3.1874.3819-4.6783,1.0749-4.9915,2.3202-10.6911,2.3862-16.1943,2.5024-19.7971.4181-39.8622,2.0066-59.2008-2.2495-1.7093-.3762-3.5548-.7864-5.1566-.0812-.9273.4082-1.663,1.1512-2.3207,1.9219-1.7208,2.0163-4.0407,5.0116-3.7868,7.7443.2668,2.8711,2.9336,5.5625,4.7048,7.6246,11.3567,13.2215,20.0052,28.7592,25.2579,45.3782,10.2407-4.2216,21.9636-4.7377,32.5357-1.4325,1.3587.4248,2.9327.8855,4.12.1.8671-.5737,1.2356-1.6414,1.5613-2.6288,4.8591-14.7304,12.6317-28.4934,22.7373-40.2609,1.3026-1.5168,2.6867-3.1153,3.7427-4.8285Z"/>
        <path class="cls-15" d="M573.2226,37.6139c-.1176-4.3468-.3616-8.727-3.1147-12.4439-.3561.0086-.7123.0171-1.0684.0256-1.1592,1.4095-1.3794,3.0955-1.7113,4.8413-1.9855,10.4491-1.9767,21.2122-5.0063,31.4937-1.6494,5.5973-3.0332,6.4067-8.6567,4.8929-.7409-.4492-1.5445-.8203-2.2132-1.359-11.6781-9.4047-22.9828-8.4617-32.6829,2.7598-.8033.9294-1.5339,1.9214-2.3168,2.869-16.5047,19.9739-44.7955,20.229-61.7545.5922-2.2929-2.655-4.7206-5.1992-7.1741-7.7084-3.0776-3.1476-6.7981-4.4294-11.2784-4.6898-6.7153-.3901-11.5071,3.3862-16.6971,6.4897-.4846.196-.9745.3901-1.3913.7094-5.8679,4.4965-8.0747,3.7136-9.6779-3.5468-1.1976-5.4243-1.603-10.9819-2.543-16.4408-1.2005-6.9703-.7695-14.2282-3.5913-20.9153-.3574-.0025-.7151-.0051-1.0728-.0077-1.2059.6873-1.3622,1.8294-1.6048,3.092-2.9206,15.1969-.9859,30.3235.6089,45.448.6249,5.925,1.7051,11.7585,5.298,16.7708,1.5445,2.2427,3.0688,4.494,3.1341,7.3661.2504.3452.3567.8344.728,1.0587-.0072.0361-.0101.0709-.0178.1072.7048,3.4707,2.1036,6.6694,3.8036,9.757.9557,1.9256,1.8305,3.8786,2.6683,5.844,2.33,7.0109,4.66,14.0219,6.99,21.0328.4655,1.8158.9155,3.6369,1.3348,5.4684.4302,2.5435,1.4599,4.7704,3.4281,6.5028l.5124.088s0,0,.0003,0c1.8596,3.5744,5.1054,5.7795,8.1167,8.2164,1.9022.1115,3.5903,1.5249,5.577,1.1215.6016.0638,1.2188.105,1.8673.0995,9.6086-3.474,19.63-5.1288,29.7399-5.8059,18.4798-1.2377,36.711.7475,54.6013,5.5899,1.7178.465,3.3123,1.1585,5.0001.0738,3.9284-2.1111,7.2512-4.9462,10.0519-8.4058,2.2864-1.3726,3.0663-3.8633,3.7811-6.0615,5.6376-17.3335,11.6507-34.5206,18.9061-51.2542.1578-1.8855,1.0978-3.4201,2.1913-4.886,1.7044-2.716,2.6384-5.6362,2.3514-8.8767-.262-2.2501.646-4.4053.6434-6.5988,0-.0221.0015-.0444.0018-.0666.4856-3.7223.8361-7.4593.9709-11.2196.4351-.43.6875-.9838.7463-1.6647.6073-6.7734.704-13.5677.5204-20.359Z"/>
        <path class="cls-15" d="M451.8274,384.2843c3.7669,1.5372,8.2811,1.7481,12.4502,1.8098,10.0497.1487,20.0995.2974,30.1492.4461,7.7815.1152,15.7419.2037,23.1131-2.2924,3.511-1.1889,7.0306-3.1546,8.6931-6.4678,1.1951-2.3817,1.2773-5.15,1.2764-7.8147-.0011-3.1822-.0864-6.3644-.2556-9.542-.0877-1.6471-1.5949-2.8361-3.2257-2.5894-23.3608,3.5339-47.22,3.7607-70.6432.666-2.092-.2764-4.2716-.5716-6.2707.1041-6.9997,2.3662-3.852,18.1989-.1295,22.358,1.3533,1.512,3.0095,2.5742,4.8427,3.3223ZM525.4581,359.3591c-.1197-.0946-.2463-.1812-.3881-.2529.1529.0412.286.1184.3881.2529Z"/>
        <path class="cls-15" d="M450.8636,308.1774c2.038.8404,4.2975,1.1729,6.506,1.4303,11.1942,1.3043,22.499,1.1996,33.7685,1.094,8.3015-.0778,16.6838-.1644,24.7658-2.0628,3.7939-.8911,7.8116-2.4258,9.7729-5.7935,1.0819-1.8576,1.396-4.0555,1.5669-6.1984.3961-4.9659.1346-9.9839-.7754-14.8817-12.2244,3.4172-25.0826,3.6307-37.7743,3.821-12.6338.1895-25.4681.3549-37.6524-2.9905-1.6505-.4532-3.3764-.9737-5.0437-.5869-4.4733,1.0377-3.3053,12.0093-2.7451,15.4538.6273,3.8572,2.5069,7.688,5.8046,9.7848.5759.3662,1.1807.672,1.8062.93Z"/>
        <path class="cls-15" d="M445.73,267.2821c.0589.0946.1202.1878.1842.2796,1.3953,2.0018,3.8075,3.0077,6.1392,3.7267,12.71,3.9192,26.3538,2.2594,39.6541,2.1985,8.6943-.0398,17.6194.5899,25.8674-2.1602,3.7937-1.265,7.6173-3.5217,9.0633-7.2502.6736-1.737.7667-3.6381.8065-5.5007.1017-4.7586-.0931-9.5235-.583-14.2578-25.2751,4.4404-51.2522,4.5147-76.6666.9569-1.5107-.2115-3.0809-.4315-4.5364.0255-5.0143,1.5745-2.0169,13.7113-1.3567,17.5323.2669,1.5446.6033,3.1254,1.4278,4.4495Z"/>
        <path class="cls-15" d="M525.1457,208.14c-1.6192-.6156-3.5202-.4456-5.2864-.2605-22.7744,2.3869-45.8128,2.2457-68.5562-.42-1.7321-.203-3.5552-.409-5.1639.2643-4.85,2.0297-2.2832,15.112-1.8412,19.2149.0911.8459.2066,1.7282.6889,2.4291.5475.7955,1.4761,1.2266,2.3725,1.5861,12.0377,4.8275,25.5308,3.1402,38.4998,3.2676,9.1203.0896,18.3373,1.1098,27.3-.5812,4.3434-.8195,8.7978-2.4282,11.5891-5.8553,2.3159-2.8434,3.1955-6.5785,3.7106-10.2093.458-3.2288.3806-7.1538-2.3452-8.9439-.3081-.2023-.632-.3639-.968-.4917Z"/>
        <path class="cls-15" d="M554.8684,472.1417c.0815-.0913.1631-.1824.2449-.2735.9136-1.0176,1.9129-2.3066,1.4978-3.6096-.1944-.6103-.6717-1.0816-1.1323-1.5266-3.6325-3.5098-7.2651-7.0197-10.8976-10.5295-.5949-.5748-1.2331-1.1736-2.0406-1.3531-1.5129-.3362-2.8868.8904-3.9291,2.0374-5.7322,6.3081-10.6777,13.3278-14.7096,20.8367-2.0855,3.884-3.9269,7.8992-5.5065,12.015-1.2196,3.1777-3.9777,8.1474-1.825,11.3871.892,1.3425,2.2457,2.297,3.5675,3.2194,3.4003,2.373,6.8006,4.7461,10.2009,7.1191,5.8529-14.3788,14.1898-27.7426,24.5297-39.3224Z"/>
        <path class="cls-15" d="M523.8713,396.0932c-11.0697,2.599-22.7316,1.8342-34.1613,1.917-11.7584.0852-23.6991,1.0799-35.1359-1.6528-2.4244-.5793-4.9161-1.3289-7.3657-.8677-6.4357,1.2117-5.2212,10.2164-4.0493,14.8021.8,3.1306,2.4132,6.1402,4.9714,8.1141,2.5512,1.9685,5.8072,2.7578,8.9901,3.2604,10.7145,1.6918,21.6434.6896,32.4907.691,9.8656.0013,20.1196.7711,29.2195-3.0398,3.1776-1.3307,6.2809-3.3677,7.734-6.4912,2.072-4.454.2522-9.609.2151-14.5555-.0111-1.4821-1.4343-2.5247-2.8769-2.1851-.0106.0025-.0212.005-.0318.0075Z"/>
        <path class="cls-15" d="M526.6428,319.2094c-25.4308,5.7916-52.0655,6.2407-77.677,1.309-1.1754-.2263-2.4124-.4607-3.5483-.0834-3.3018,1.0964-2.6035,11.2227-2.2575,14.006.4621,3.7171,2.0842,7.4517,5.1168,9.6502,2.5001,1.8124,5.6624,2.4043,8.7234,2.8115,11.7126,1.5584,23.5839,1.117,35.3997,1.1231,9.4897.0049,19.269.2512,28.1077-3.2033,2.1889-.8555,4.4157-2.045,5.5606-4.0975.7947-1.4246.9732-3.1019,1.0908-4.7289.4049-5.6009.2765-11.2403-.3827-16.817-.0444.0102-.0889.0203-.1333.0304Z"/>
      </g>
    </g>
  </g>
</svg>