<?xml version="1.0" encoding="UTF-8"?>
<svg id="Capa_2" data-name="Capa 2" xmlns="http://www.w3.org/2000/svg" viewBox="0 0 930.3929 962.0204">
  <defs>
    <style>
      .cls-1 {
        fill: #b3e0a7;
      }

      .cls-2 {
        fill: #b9e0af;
      }

      .cls-3 {
        fill: #bce0b2;
      }

      .cls-4 {
        fill: #5aa246;
      }

      .cls-5 {
        fill: #bc9cc6;
      }

      .cls-6 {
        fill: #6db64e;
      }

      .cls-7 {
        fill: #bbe0b1;
      }

      .cls-8 {
        fill: #87cd5e;
      }

      .cls-9 {
        fill: #68b050;
      }

      .cls-10 {
        fill: #61a44a;
      }

      .cls-11 {
        fill: #bce0b1;
      }

      .cls-12 {
        fill: #8ace5f;
      }

      .cls-13 {
        fill: #70ba4e;
      }

      .cls-14 {
        fill: #61ab49;
      }

      .cls-15 {
        fill: #212d34;
      }
    </style>
  </defs>
  <g id="Capa_1-2" data-name="Capa 1">
    <g>
      <path class="cls-15" d="M589.0233,722.5528c1.584,2.7922,8.5434-1.004,18.5048,2.5826,4.5635,1.6431,6.7935,3.7686,18.918,14.9486,10.8862,10.0379,16.3487,15.0682,17.3101,15.6134,7.3838,4.1885,11.1353,3.1192,32.1939,6.566,13.2848,2.1745,19.9271,3.2616,24.2172,4.8338,20.7025,7.5868,31.2674,23.8318,33.2237,22.3505,1.4887-1.1274-3.8515-11.1238-9.9283-19.0854-5.2856-6.9251-9.0391-9.5728-8.1361-11.7825,1.1891-2.91,9.235-2.0751,16.9519-1.2147,16.0125,1.7852,25.1246,5.5809,25.5382,4.5312.5465-1.3876-14.144-11.147-33.0861-18.2284-9.2956-3.4751-13.5673-4.0444-18.7115-8.7657-6.5653-6.0257-5.0202-10.0658-11.2529-18.4849-8.1423-10.9984-19.6266-16.054-23.4941-17.7565-11.8336-5.2093-13.8183-1.528-27.396-6.4788-16.2784-5.9354-21.8052-24.8451-28.2526-22.9946-6.2656,1.7981-2.2641,20.6607-10.6419,33.3913-8.144,12.3753-17.7857,16.7533-15.9584,19.9741Z"/>
      <path class="cls-15" d="M629.7907,442.7497c12.5767,1.4658,23.9583-.0408,35.2629-2.8208,17.0479-4.1921,33.9263-9.1526,51.8174-8.6604,11.4424.3147,22.5352,1.9963,32.9558,6.6528,12.0425,5.3813,23.813,5.7517,36.0857.676,10.7156-4.4314,21.8416-7.6985,33.4944-8.8594,12.8123-1.2766,25.4102.4434,37.1938,4.9919,20.1838,7.7915,40.4258,9.6226,61.4473,4.5505,6.2515-1.5083,10.6536,1.051,11.9961,5.8521,1.376,4.9211-1.3489,9.6167-7.6448,11.5134-15.9167,4.7954-30.2454,13.2729-46.2502,19.2507,13.7571,4.8916,27.0354,9.2852,41.3,9.4805,4.7732.0652,9.0679,1.2546,10.6926,6.3667,1.7783,5.5955-2.1345,11.0818-8.1082,10.9575-13.4275-.2795-25.8557,3.0371-37.9011,8.7976-16.8916,8.0781-34.6387,10.0129-52.1697,3.0774-22.4724-8.8906-44.4646-7.9204-67.1299-.9758-22.0391,6.7527-43.7375,4.3794-64.4407-5.8911-10.9465-5.4304-22.1404-9.7529-34.6665-9.1577-8.8555.4211-17.4321,2.2742-25.7734,5.1614-15.0244,5.2007-30.3225,7.3535-46.1589,4.8601-2.7754-.437-5.6445-.293-8.4712-.3857-1.7971-.0591-3.2581.4341-3.9233,2.3584-.6021,1.7424-.3608,3.2812.8613,4.6392,21.8474,24.2769,33.2737,53.5852,38.6523,85.0579,12.0012,70.2256-4.1509,132.4509-55.7197,183.5259-13.4287,13.3-29.2024,23.5066-46.5068,31.1667-2.6802,1.1865-3.3445,2.5579-3.0466,5.1914,1.2432,10.9924,3.3499,21.8638,10.2136,30.7747,10.0562,13.0552,16.8032,27.1584,18.3953,43.7832,1.2292,12.8379,8.8884,22.6484,17.262,31.7876,4.5742,4.9922,5.3042,8.9685,1.6953,13.064-3.3999,3.8579-8.502,4.1379-13.4058.574-1.9963-1.4512-3.782-3.1924-5.8359-4.9492-2.0283,5.251-1.8513,10.7856-3.2732,15.9709-.6533,2.3826-1.2703,4.8401-2.3894,7.0137-1.4949,2.9036-4.1487,4.125-7.4875,3.8325-3.1594-.2766-5.364-1.8745-6.3005-4.8115-1.1548-3.6204-2.0281-7.3337-2.9375-11.0281-1.6243-6.5979-4.6501-12.5469-9.5332-17.1741-8.7739-8.3137-13.2156-18.4897-14.4272-30.304-.8232-8.0295-3.7891-15.2139-9.4985-20.8943-12.5647-12.501-21.5286-26.9067-24.4648-44.6021-.5688-3.4292-2.7524-2.2705-4.4561-2.0327-7.7173,1.0764-15.4143,2.2493-23.1572,3.1909-41.4673,5.0425-81.7622.5962-120.8711-14.2288-7.8901-2.991-15.7678-6.0273-23.2712-9.8831-2.853-1.4661-4.7053-.9155-7.0725.946-5.5916,4.3972-9.8767,9.8887-13.7219,15.7197-8.7986,13.3433-19.8101,24.0454-34.7756,30.2671-10.4705,4.353-17.075,12.1533-20.6785,22.8201-1.583,4.6853-3.6941,9.2012-5.7219,13.7239-1.4351,3.2002-3.2783,6.1814-6.3777,8.0979-6.189,3.8267-13.5317.0625-13.5657-7.2024-.0264-5.634.6257-11.271.9685-16.9072.2253-3.7051-1.4912-4.4058-4.6084-2.9822-3.9175,1.7888-7.7595,3.7896-11.7915,5.2698-5.5159,2.0251-10.4905.2341-12.3669-4.0234-2.0264-4.5979-.2351-8.9207,5.1501-11.906,6.1074-3.386,11.9829-7.1084,17.6174-11.2361,5.8308-4.2715,9.9277-9.8171,11.9192-16.7053,3.8096-13.1772,11.0549-23.9907,21.5181-32.7729,8.7061-7.3074,14.3821-16.8198,19.3918-26.8342,1.2039-2.4065.7053-3.7122-1.3237-5.3203-38.3689-30.4133-64.9907-69.6804-85.3174-113.6409-4.2896-9.2769-4.1479-9.3699-14.0056-7.2524-5.248,1.1274-10.54,2.6631-14.0627,6.8691-8.6357,10.3113-19.916,13.9758-32.7778,13.6143-8.1907-.2302-15.7056,1.6804-23.0776,5.041-12.658,5.7708-25.4236,11.2683-36.8635,19.3845-5.2151,3.7-9.7998,3.6277-13.2659.4875-3.3987-3.0789-4.2737-8.7258-1.9021-13.8477,2.7886-6.0217,6.5693-11.4722,10.5862-17.2195-3.3162-1.7625-6.8191-1.6042-10.0845-2.3074-5.6733-1.2212-8.9644-4.9248-8.5647-9.8591.3738-4.6172,4.1309-8.2905,9.6021-8.2625,20.8457.106,37.9321-8.2007,52.4109-22.6802,11.1982-11.199,25.1616-15.5676,40.562-16.2744,4.6921-.2153,9.1118-1.4539,13.5505-2.8625,3.4866-1.1067,4.5447-2.9128,3.7346-6.5872-3.6084-16.3665-6.4636-32.8613-8.3958-49.5278-2.9597-25.5303-3.2268-51.1016-1.988-76.7312.6379-13.2039,2.7649-9.95-10.0063-13.9429-4.8154-1.5054-9.8455-1.3044-14.823-1.3711-9.8066-.1311-19.1265-2.0322-27.345-7.7229-13.9514-9.6604-28.9399-10.3835-44.6409-5.3452-1.5752.5056-3.1709,1.0198-4.7971,1.2793-3.8311.6118-7.095-.5151-8.6357-4.2415-1.4729-3.5627-.6575-7.0112,2.4995-9.3767,4.647-3.4817,9.5417-6.6306,14.2317-10.0571,4.1384-3.0232,3.9792-3.2908-.3784-5.5999-5.4102-2.8667-10.7324-5.9097-15.9944-9.0417-4.2505-2.5303-5.6636-6.313-4.0732-10.0581,1.6594-3.9084,5.5708-5.4055,10.4561-3.8933,2.2087.6836,4.4807,1.3245,6.5142,2.386,12.0581,6.2954,24.8752,7.0273,37.8494,4.5828,13.0974-2.468,24.8015.2913,34.0671,9.4561,8.3782,8.2869,17.9268,9.03,28.5088,7.9932,3.1577-.3093,2.6023-2.5242,2.8726-4.2874,4.5293-29.551,11.6277-58.4465,22.3411-86.3811,4.8013-12.519,10.6167-24.6145,17.0015-36.4036,1.5708-2.9006,1.9397-4.2954-1.6653-5.6553-9.1792-3.4622-16.4795-9.863-23.6638-16.2708-5.5142-4.918-11.6375-7.2375-19.0747-6.8872-5.4424.2563-10.9019.3364-16.3921-.709-9.3491-1.7803-17.1365-5.9578-23.407-13.0842-11.165-12.6892-24.6221-19.8418-42.1079-18.0066-6.5481.6873-10.3291-2.3708-10.8154-7.5498-.4541-4.8374,2.5513-8.1389,8.9338-9.3384,5.3616-1.0073,10.7646-1.687,16.0405-3.2302,3.5176-1.0291,4.5078-2.1145,2.4917-5.6743-2.5979-4.5876-5.2173-9.2422-6.6479-14.4055-1.3823-4.9883-.021-9.0286,4.0457-11.0701,4.3203-2.1687,8.3625-1.2039,11.0405,2.6213,7.4805,10.6848,17.9199,14.3081,30.3591,13.2637,12.4753-1.0474,23.1677,2.5977,32.394,11.0854,3.6104,3.3215,8.1204,5.207,13.1584,5.1685,16.3545-.125,29.053,6.8008,38.8088,19.7092,3.5544,4.7029,8.082,8.1892,13.634,10.5166,3.4851,1.4609,5.4968.9233,7.8809-2.0518,20.2512-25.2705,44.1182-46.5073,71.7959-63.3738,32.8792-20.0361,68.5405-32.8748,106.1055-40.7184,5.0276-1.0498,10.0686-2.0582,15.1379-2.87,1.7695-.2834,2.6335-.6279,2.4861-2.6805-.6179-8.6069,1.8142-16.7778,4.0391-24.9226,1.3354-4.8887,1.2651-9.5342-.8857-14.0464-5.8604-12.2936-6.5342-24.8621-2.2688-37.7363,3.4683-10.4674,1.5222-20.6444-1.5239-30.7875-.8081-2.6913-1.8125-5.381-1.4526-8.2743.573-4.609,2.6367-8.1343,7.2207-9.8384,4.3062-1.6008,7.9509-.1901,10.8628,2.8413,2.2759,2.3696,4.1494,5.1774,5.9138,7.9722,1.7043,2.6997,3.6292,3.1143,6.2297,1.4677,2.6619-1.6854,5.3572-3.3184,8.0315-4.9841,4.1221-2.5674,8.4346-3.4056,12.5459-.3358,4.2041,3.1392,5.0173,7.8069,3.9143,12.5828-.9998,4.3289-2.5679,8.5472-4.1404,12.7183-2.5212,6.6869-2.7146,13.3168.2373,19.8508,6.2383,13.8083,6.9998,27.6656,1.5742,41.9983-3.3599,8.8762-2.5901,18.3256-2.354,27.6451.0618,2.4395,1.2249,2.5193,3.0703,2.6543,12.0942.8846,24.167,1.8729,36.2083,3.4757,30.2197,4.0227,58.6138,13.5109,85.5303,27.62,30.8005,16.1453,56.4792,38.4265,77.8298,65.7395,2.5361,3.2444,4.2957,3.8862,7.9294,1.7166,6.446-3.8491,12.0261-8.478,15.2798-15.2661,7.886-16.4521,19.9792-28.6602,35.8691-37.4963,17.3696-9.6592,26.8923-25.592,33.6387-43.5752,2.4866-6.6282,6.8127-9.2448,12.4375-7.6527,4.6416,1.3137,7.3484,5.4994,6.5071,10.2552-1.554,8.7844-3.0637,17.5803-5.6389,26.3381,3.5654.833,6.7244-.2727,9.7656-1.4077,8.2158-3.0662,16.3572-6.3323,24.531-9.5117.9241-.3594,1.8533-.7163,2.8027-.9985,5.6404-1.6772,9.7627-.3447,12.1155,3.8894,2.3206,4.1763,1.1716,9.4153-3.2686,12.7502-6.103,4.5837-12.5103,8.7617-18.6394,13.3125-6.1335,4.5542-12.252,9.1567-18.0698,14.0996-5.8828,4.998-10.4019,11.1775-13.2754,18.3987-6.4243,16.144-17.9917,27.04-33.6741,34.1423-15.3352,6.9451-27.2788,17.522-33.8677,33.4775-1.0667,2.5828-1.2859,4.7593-.4907,7.5549,11.8396,41.6187,9.147,82.0144-10.7375,120.8232-4.0269,7.8589-9.1064,15.063-14.8899,21.7324-5.729,6.6072-12.0488,12.6189-19.9004,18.2542Z"/>
      <path class="cls-13" d="M741.4027,174.1986c-2.25-.8-3.9202.28-5.3501,1.72-5.8401,5.8701-11.8799,11.52-17.05,18.0801-12.29,15.6299-26.6299,28.6199-46.6399,33.6399-7.03,6.76-14.96,12.0701-24.29,15.1802-7.29,2.4299-11.0701,1.45-15.6201-4.5103-21.25-27.8398-46.6399-50.8599-78.01-66.8999-24.5598-12.5698-50.2899-21.3599-77.7999-24.7998-14.0299-1.75-28.0699-2.7803-42.2001-2.9001-6.6899-.05-9.5199-2.1699-10.5698-8.24-2.6501-15.26-4.4001-30.5701.5499-45.77-.42-1.35.08-2.55.4401-3.85,2.1499-7.64,2.3799-15.27-.6401-22.78-.58-1.4401-.5499-3.6901-2.7899-3.4301-1.9501.23-2.4501,2.16-2.4901,3.8501-.2899,12.58-7.4199,24.04-5.99,36.8999.01.0901-.24.2101-.3599.3201-3.9401,11.0999-5.4301,22.3801-3.8401,34.21.95,7.05-1.08,9.3899-7.99,10.9202-5.49,1.2197-11.1599,1.5298-16.71,2.4697-19.54,3.2803-38.5,8.6602-57.0601,15.54-48.3099,17.8901-89.3199,46.0901-121.3999,86.6301-4.6101,5.8401-9.8101,7.48-16.51,6-3.72-.8201-7.26-2.22-10.75-3.8401-9.23-4.29-15.26-12.1699-22.04-19.2-4.88-5.05-10.62-7.73-17.6899-7.8101-11.03-.1199-20.8301-3.6199-29.1901-10.99-4.53-4-9.92-5.96-15.98-5.8999-7.3199.0698-14.63.0601-21.8199-1.6201-1.2301-.29-2.3-.47-2.6801,1.1899-.4501,1.9902-1.4701,3.6802-2.9301,5.1201-1.2,1.1699-.8,1.98.66,2.53,9.2799,3.47,15.4401,10.8,21.7899,17.8201,5.05,5.5801,11.27,7.99,18.6201,7.95,2.8199-.02,5.6899.21,8.48-.1799,12.48-1.7402,22.61,3.2998,31.09,11.5601,7.9301,7.7397,17.0599,13.0398,27.2201,17.0598,8.8999,3.52,10.7999,8.99,6.1399,17.3701-7.7,13.8201-14.4199,28.0798-20.0699,42.8499-20.1901,52.78-27.84,107.78-28.61,163.9199-.48,34.5303,3.86,68.5901,11.74,102.1802,1.29,5.49.1299,9.49-3.8101,13.4399-8.1399,8.1699-18.35,11.3999-29.25,12.21-15.25,1.1401-28.46,5.9399-38.78,17.6501-3.09,3.51-7.03,6.0798-10.9299,8.6299.79,2.54,2.85,1.8401,4.4099,1.4099,15.02-4.1599,30.3401-7.6199,43.3901-16.8298,3.53-2.49,7.21-4.76,10.8599-7.0601,6.3201-3.99,12.8-7.8499,20.1401-9.5701,13.72-3.23,22.72,5.9001,19.8499,19.8501.03.1699.03.3398.1001.49,16.46,40.03,39.28,75.9099,70.05,106.5,4.6599,4.6301,9.02,9.76,14.8199,13.1599.74-1.1599-.2001-1.7998-.7899-2.5498-.1401-.1802-.2201-.3101-.25-.3701.0199.03.0499.0601.0698.1001,4.3201,5.3899,10.1901,8.98,15.53,13.1299,6.41,4.96,13.0601,9.54,19.9001,13.8401,10.2899,6.49,20.97,12.3499,31.7999,17.95.6901.3599,1.6801.47,1.39,1.6499,1.25,1.2002,2.8899,1.52,4.45,2.0901,16.0901,5.9099,32.6001,10.25,49.6001,12.4399,19.6599,2.54,39.3899,3.0601,59.21,1.77,12.9399-.8401,25.8-2.3799,38.72-3.3,6.36-.45,9.54,1.8301,11.87,7.6899.67,1.6802,1.14,3.4702,1.49,5.25,2.89,14.4702,8.58,27.4302,19.17,38.0901,9.5599,9.6101,15.05,21.3101,16.6399,34.8301,1.1799,10.01,6.6799,17.3899,14.4102,23.45,3.8298-7.3101,3.7898-7.29.8999-15.02-.6899-1.8501-1.1699-3.8101-1.46-5.77-2.0901-13.9199-5.74-27.02-14.73-38.5298-11.24-14.3801-15.17-31.4202-15.48-49.5-.1001-6.1001,2.45-9.4102,7.8799-11.7202,20.6001-8.7798,38.72-21.3499,54.1201-37.5601,17.0798-17.9697,28.8599-39.2598,37.0598-62.5698,9.0801-25.8401,11.1602-52.52,8.8801-79.5901-1.0801-12.8799-9.25-54.45-19.8101-68.8499-3.79-7.0601-8.23-13.71-12.6699-20.3601-.79-1.1799-1.6501-2.3201-2.52-3.45-3.53-4.53-7.3501-8.8999-7.9199-15.1101-1.7-2.3699-3.4602-4.73-2.9102-7.98,1.52.04,1.28,2.51,3.05,1.9001.53-8.5,4.27-14.9502,12.05-18.8-.47-.6799-1.1702-.9099-1.96-.9602-2.2102.4302-4.4402.4902-6.6702.3601-1.5.3101-2.73,1.1799-3.99,1.99-9.5598,6.1001-11.5198,10.5601-9.71,21.6201,1.01,6.1299,3.6201,11.75,5.3,17.6599,1.3999,4.9399.7,6.6399-4.0701,7.74-18.03,4.1802-18.03,22.96-12.1899,34.0901,5.6501,10.76,14.1501,19.2,23.3301,27.0398,4.6899,4.0103-23.8501-5.5598-28.8401-9.4697-2.1099-1.6501-4.5-3.2803-7.28-1.55-2.5999,1.6299-1.97,4.2698-1.6399,6.78,1.5999,12.0598,4.7,23.7998,7.47,35.6299,4.3101,18.47,9.28,36.76,15.02,54.8401,3.0598,9.6699-6.9099,22.25-8.6301,16.3398-7.9199-27.3098-15.6799-54.6699-22.48-82.2898-2.2-8.9302-4.99-17.73-11.2-24.77-3.78-4.28-7.26-8.6301-9.75-13.78-1.9299-3.99-5.3-5.72-9.71-5.8101-6.01-.1101-11.99-.1199-17.73,2.03-2.97,1.1099-5.79.72-8.74-.3501-6.8901-2.51-12.48-6.9199-17.8701-11.6599-14.01-12.3101-25.9099-26.26-33.1399-43.71-1.46-3.51-3.54-4.6301-6.98-2.9102-2.42,1.4402-3.54,3.4402-2.73,6.29,2.8499,10.01-.6901,18.3301-7.1101,25.74-17.1699,19.8201-36.9099,36.9199-57.29,53.29-18.8199,15.1099-37.3999,30.51-56.4299,45.3401-10.3401,8.0598-20.0801,17.0398-32.03,22.8398-10.72,5.2102-21.76,3.3301-30.3899-4.8899-6.3601-6.0601-10.7001-13.5601-15.29-20.8901-15.6401-24.9897-25.8901-52.1099-31.5601-80.95-2.48-12.6499,2.86-21.2,14.9299-25.6599,8.4501-3.1201,17.2001-5.1802,25.9202-7.3401,29.6199-7.3401,59.7899-11.49,89.99-15.3201,26.3799-3.3499,52.7699-6.7397,79.3099-8.6299,4.9-.72,9.9-.4199,14.7899-1.5601,3.7101-.8699,6.8501-2.4399,8.92-5.74,3.7101-5.9199.87-11.4399-6.14-11.8201-3.6299-.21-7.29,0-10.9299-.1099-9.8601.1899-19.5,2.1001-29.1801,3.6599-24.7899,4.02-49.5199,8.45-74.4301,11.6799-18.3099,2.3701-36.6699,4.3101-54.98,6.7002-13.3599,1.74-26.71,3.51-40.25,2.97-12.73-.5-20.24-6.5801-23.8799-18.77-2.47-8.3-2.8-16.9199-2.52-25.2.48-14.4199.28-28.9302,2.6199-43.27,2.6101-15.96,5.4001-31.8901,12.3701-46.6299,6.8799-14.5503,19.05-19.3901,34.37-14.5601,12.22,3.8499,24.3199,8.02,36.24,12.74,31.4401,12.4299,61.98,26.78,92,42.3398,16.2699,8.4299,31.74,18.22,47.9,26.8201,3.1599,1.55,6.28,3.1499,9.23,5.05,2.24,1.53,4.6799,2.3298,7.4099,2.1699,8.79-1.0798,9.6602-9.3799,5.27-14.8799-2.4199-3.03-5.6-5.1401-8.9399-7.02-10.8201-5.1599-21.3301-10.9299-32.22-15.9202-26.01-11.8899-52.0701-23.6799-78.0601-35.6299-25.6799-11.8101-51.4099-23.52-77.08-35.3599-15.3099-7.0701-21.05-21.6301-13.3099-36.6301,15.0099-29.0601,33.75-55.3301,58.8298-76.6799,6.4701-5.5,13.2001-10.7002,20.7101-14.7202,11.92-6.3699,22.7999-3.71,30.4,7.4602,2.34,3.4399,4.75,6.8201,7.0601,10.28,25.1099,37.6499,48.99,76.0698,71.8499,115.1199,9.24,15.79,18.6901,31.4399,28.1801,47.0801,1.8199,2.72,3.7001,5.4099,4.91,8.48.6499,1.6899,1.72,3.0999,2.95,4.3999,2.1001,2.1201,4.0801,4.4099,7,5.47,5.4399,1.9702,8.95-.7798,8.3501-6.5098-.25-2.3501-1.25-4.4602-2.1501-6.6101-1.7-2.98-3.5898-5.8301-5.26-8.8201-2.1899-3.8301-4.9199-7.3198-7.1099-11.1499-2.03-3.25-4.1901-6.4001-6.2101-9.6602-21.1901-34.25-42.0599-68.6799-61.42-104.02-9.83-17.95-20.0999-35.6699-29-54.1099-5.97-12.3799-3.9099-20.96,6.42-29.1001,2.25-1.77,4.79-3.04,7.4-4.1199,25.03-10.3901,51.3-15.23,78.1799-16.75,12.28-.6902,24.6301-.1501,36.9501-.1001,17.2001.0701,24.5599,7.51,24.6,24.74v1c-.03,26.6001-1.0601,53.1602-2.78,79.72-.98,14.9402-2.27,29.8201-3.8799,44.6902-2.2001,20.3499-5.24,40.5798-8.28,60.8198-.25,6.71,1.25,12.9001,5.46,18.25,3.73,4.73,8.89,4.0901,11.35-1.4399,1.37-3.0701,1.83-6.3701,1.8199-9.74,0-8.3201.2101-16.6501-.0399-24.96-.48-15.98.5499-31.9299,1.3199-47.8601.9401-19.5698,3.2001-39.0898,5.8501-58.51,2.7-19.7698,4.5499-39.6699,9-59.1799,2.09-9.1599,5.27-11.6799,14.52-11.6499,3.8899.0098,7.5701.8298,11.2,2.1799,18.6099,6.9399,34.8,17.8699,50.47,29.8298,22.26,16.9902,39.1899,38.2102,51.98,62.9702,6.21,12.04,4.8,22.8999-3.6101,33.3999-3.8098,4.75-8.6599,8.25-12.8499,12.5-13.2,13.4199-27.9399,25.1101-42.1501,37.3999-10.5598,9.1401-21.3499,18.02-31.2,27.9502-2.5898,2.6099-4.99,5.3999-6.9299,8.5-1.6001,2.5698-1.8899,5.5601.7,7.71,2.3701,1.95,4.7102.6201,6.72-1.1001,1.6501-1.3999,3.25-2.8699,5.1501-3.9299,3.3098-1.8499,6.5901-2.6899,9.29.98,1.5898,2.1599,3.3198,1.7,5.21.53,1.5598-.97,3-2.1001,4.26-3.4299,8.71-9.1799,18.0999-17.6501,27.3599-26.25,8.29-7.7,17.05-14.8701,26.28-21.4402,3.05-2.1699,5.8801-1.95,8.5.73,2.5901,2.6602,2.5901,5.6201.8701,8.6902-.9202,1.6199-2.3301,2.8-3.8,3.9199-21.3901,16.29-40.9199,34.51-57.8901,55.4202-5.7,7.0198-10.6199,14.5098-13.77,23.0298-1.7998,4.8801-.71,8.75,2.7803,11.1301,6.5,4.45,16.2798,3.52,22.1099-2.1001.4299-8.3899,2.5801-10.77,11.05-11.4099,18.5798-1.4102,34.4399-8.6802,46.8201-22.53,20.1299-22.54,28.3098-49.8601,30.25-79.3899,1.2397-18.73-1.3501-37.0901-6.3101-55.1401-.6802-2.47-1.1101-4.9099-.28-7.3398,4-11.5701,9.6699-22.2002,18.0701-31.2202,8.2598-8.8699,19.0598-13.74,29.79-18.6199,8.8499-4.03,15.3599-10.29,19.6099-19,3.46-7.1101,6.5601-14.4202,11.1401-20.9402,1.2397-3.0598,4.2798-4.6399,6.0098-7.2998l-.0098.0498c.8198-1.3298.3699-2.1299-1.02-2.6299ZM242.8327,753.4086c-.48.3201-.29-.27,0,0h0Z"/>
      <path class="cls-9" d="M686.6453,474.8297c9.6851,4.2738,25.4295,7.2904,35.603,10.4805,8.9295,2.8,17.9825,3.2026,27.3968,2.6804,15.6512-.8683,29.4632-8.4397,44.6441-10.8312,11.1526-1.7569,21.658-.4188,31.8894,4.192,11.2815,5.0839,22.3259,10.7999,34.8396,12.5805,2.8318.403,5.6345.5543,8.4109.3718,2.084-.1369,1.8216.8653,1.7454,2.1031-11.9225,5.3565-24.191,5.3738-36.3993,1.5832-14.0018-4.3474-27.9295-8.4756-42.8631-7.6995-9.3784.4874-18.4224,2.53-27.3016,5.2312-22.045,6.7067-43.3371,5.2295-63.7119-5.5956-21.6827-11.52-43.8945-11.6895-66.4875-3.5782-16.2667,5.84-32.8439,6.0657-49.6669,3.8298-.4528-.0602-.862-.4491-1.2915-.6848-2.0833-1.1196-2.6099-2.2268.0193-3.3225,3.3783-1.4079,7.019-1.9049,10.4801-3.0245,13.5482-4.3824,84.4211-11.9664,92.6931-8.3162Z"/>
      <path class="cls-14" d="M243.9168,756.3666c-1.1083-1.5515-2.2167-3.103-3.3251-4.6545,7.3008,5.5564,14.5731,11.0713,21.927,16.4783,15.5946,11.4658,32.2596,21.1531,49.5669,29.7678.7916.394,2.2212.249,1.755,1.645-.1281.3835-1.4839.3572-2.2783.5193-6.4851-1.5654-12.3181-4.7556-18.2377-7.6255-4.6078-2.2339-8.4293-1.4224-12.6324.9204-11.0037,6.1338-19.4305,14.895-26.5068,25.1152-6.932,10.0122-15.3756,18.1882-26.7192,23.188-10.1479,4.4724-18.1251,11.5938-24.0081,21.0303-.5278.8467-.8853,2.6882-2.3887,1.1025-.8162-.8606-3.0374-1.4797-1.1465-3.4541,6.981-7.2888,10.1936-16.5796,13.7139-25.741,2.5477-6.6301,6.8901-12.1084,12.0918-16.8914,12.6531-11.635,22.6971-25.0256,28.9858-41.2056,3.0577-7.8667,3.0857-8.7808-3.6825-14.0442-2.4606-1.9133-5.3839-3.3682-7.1151-6.1506Z"/>
      <path class="cls-4" d="M60.2884,648.4153c.913,1.0811,2.0901.9043,3.2063.5519,14.4344-4.5573,29.5641-7.2395,42.3922-16.0966,5.5678-3.8444,11.1817-7.6976,17.1172-10.9148,7.4498-4.0382,14.8942-8.4075,23.9774-7.7469,8.7869.6391,16.9567,13.1124,13.6181,21.1466-.1836.4417-1.087.5843-1.6559.8662-1.5523-2.4133-3.3431-4.5895-5.9269-5.9799-2.2969-.7432-4.5892-1.016-6.8679.0685-6.8499,1.6886-13.9084,2.2419-20.6626,4.6318-8.5574,3.028-15.0911,8.8316-21.8887,14.3595-3.7593,3.0571-8.2197,5.0678-12.8158,4.7096-16.1689-1.2602-30.2777,4.3924-43.9677,11.9178-1.1614.6384-2.3874,1.1617-3.598,1.7059-.2846.128-.6287.1236-1.4489.2701,1.5451-2.8612,3.3444-5.4524,1.0702-8.5864-1.5425-2.1257.9375-2.5502,2.0396-2.9298,5.5415-1.9086,10.369-5.1377,15.4113-7.9733Z"/>
      <path class="cls-1" d="M813.4421,467.8576c.251-3.1206,3.1145-3.4558,5.7048-3.6118,6.5249-.3933,12.9827.1157,19.2849,1.8384,15.7107,4.2944,30.3748,1.6284,45.1455-6.5713-10.4517-1.8813-19.7585-4.9768-28.9458-8.2798-19.8669-7.1421-39.1802-6.6609-58.6787,1.6738-18.2983,7.8213-36.8647,9.4241-55.303-.3772-3.9016-2.074-8.2881-3.3503-12.7454-4.1233-14.4487-2.5056-28.5007.019-42.3875,3.585-16.1094,4.1365-32.0969,8.7729-49.0081,7.6836h-.0002c-2.4341-.3037-4.8618-.676-7.3035-.8975-7.3208-.6638-14.3386-3.3818-21.7817-3.1946-7.3022.9556-14.6006,1.9438-21.9104,2.8396-1.5066.1846-3.0813.0515-3.7021,1.8271-.5403,1.5449.5901,2.4526,1.4839,3.4268.5605.6108,1.2336,1.1631,1.634,1.8677,1.541,2.7126-.3708,8.6589-2.554,8.0244-3.9133-1.1375-3.9568,1.6724-4.8218,3.802-.6174,1.5193-.9509,3.1704-1.6965,4.615-.4731.9165-2.3396,1.2134-1.6636,2.6418.584,1.2341,2.1045.8879,3.1553.708,4.281-.7336,3.5886,1.2664,2.1858,3.7529,1.3064.1348,2.6125.2698,3.9187.4041,1.3263-1.0182,12.1798-2.2646,27.2142-5.2062,16.888-3.3043,39.0614-8.2522,59.1284-7.7767,14.1572.3355,46.889,13.7377,60.4803,13.9452,29.4552.4496,31.3589-2.5152,39.5518-5.1393,6.1812-1.98,12.4055-3.7878,18.658-5.5046,12.4753-3.4258,24.7334-2.7822,36.5503,2.604,6.0557,2.7605,12.1313,5.4717,18.2896,7.9792,7.8965,3.2151,16.0298,5.5437,24.6919,5.2532.7485-.0251,3.0764.4644,3.157.7598,2.6001-.9331,5.2-1.8665,7.8-2.7998-20.4849-6.8137-38.3389-20.0642-60.353-21.4885-2.4338-.1575-5.4407-1.0098-5.1792-4.261Z"/>
      <path class="cls-8" d="M742.4261,176.827c-1.512-3.5791-3.4267-2.0154-5.2461-.3552-8.8124,8.0414-15.9997,17.5601-24.0038,26.3297-10.6362,11.6533-22.7183,21.569-38.6563,25.3841-.9035.2162-1.5899.2609-2.1526-.5442,4.0204-5.2745,7.777-10.7336,10.5171-16.7899,4.8694-10.7624,13.2886-18.0376,23.196-23.8239,8.9031-5.1997,17.5489-10.6899,24.4354-18.5364.7738-.8815,1.4938-2.5034,2.9726-.4868,2.8052,3.8255,6.9097,5.3902,11.5336,5.8849-.2886,1.7501-1.3355,2.4423-2.5959,2.9377Z"/>
      <path class="cls-6" d="M38.8645,421.4682c.4811-5.6416,3.177-7.3317,8.4195-7.0361,5.4143.3053,10.9102-.4993,16.3483-1.0401,6.2666-.6232,11.495,1.5953,15.8035,5.8258,9.008,8.8448,19.4408,13.5181,32.2873,12.4387,4.7476-.3989,7.2692,4.0457,5.1237,8.3315-.3302.6597-.7063,1.1717-1.4695.8134-9.8476-4.6233-20.5401-2.7374-30.8237-3.9736-4.5512-.5471-8.7148-1.9335-12.5302-4.3896-10.1307-6.5217-20.6525-11.8744-33.1589-10.9701Z"/>
      <path class="cls-12" d="M424.4261,89.7013c-1.8075-2.7076.3705-5.0889.7564-7.5676,1.04-6.6797.9173-13.1787-1.7101-19.4815-.3922-.9408-.5658-2.6677-2.1423-2.0909-1.0701.3915-1.2127,1.7238-1.262,2.9851-.3148,8.0605-1.3372,15.8821-5.4264,23.1764-2.3308,4.1577-.4607,9.1326-.9417,13.7116-.0137.1306-.157.3456-.2504.3514-.2838.0176-.5727-.0481-.8604-.0817.9388-7.9098-.1759-15.5783-3.2208-22.8791-3.0793-7.3835-3.2985-14.7369-1.1161-22.3678,2.2413-7.837,3.2631-15.8757,3.1054-24.5316,3.5239.5107,7.0764.915,11.1995-1.4069-3.7615,9.898-3.992,18.8491.0517,27.4739,5.0325,10.7338,6.0953,21.5336,1.8173,32.7087Z"/>
      <path class="cls-10" d="M561.3769,514.4032c-4.0399-.5943-3.6683-4.2045-4.5369-6.8581-.4845-1.4805.0922-3.2873,1.6974-3.6152,1.7624-.3599,1.7928,1.4294,2.0729,2.7215.1289.5947.5898,1.1174.9,1.6724-.0446,2.0262-.0889,4.0527-.1333,6.0793Z"/>
      <path class="cls-8" d="M736.422,184.0753c.4533-3.7084,3.4321-5.3359,6.0098-7.2939-1.1468,3.1368-3.8347,5.0041-6.0098,7.2939Z"/>
      <path class="cls-3" d="M423.8328,409.297c-2.2256,3.8154-4.682,7.4564-7.9183,10.5111-.3611.3408-.9814.6956-.9999,1.0679-.3395,6.8346-5.7609,6.528-10.3466,7.5337-2.7817.6101-4.313,2.8853-5.8305,5.0695-6.6295-2.2214-12.505-6.03-18.8095-8.9375-30.3034-13.9753-60.5752-28.0192-90.8952-41.9583-26.5219-12.1929-53.0846-24.2972-79.6459-36.404-13.4578-6.1341-19.4097-22.0785-12.8458-35.6984,7.228-14.9979,16.3742-28.8456,26.1738-42.296,13.1283-18.0192,28.7307-33.5015,46.8006-46.4971,7.1974-5.1763,14.6272-9.4677,24.2583-8.2498,7.4935.9475,12.0606,5.7021,15.7802,11.1021,23.2539,33.7585,44.9785,68.5123,66.1601,103.596,13.2893,22.0115,26.0675,44.3316,39.0873,66.506.5802.9881,1.2824,1.9046,1.9278,2.8544,1.2298,2.908,1.1458,6.6133,4.8625,8.0119.0298,1.6871,1.4276,2.565,2.2412,3.7884Z"/>
      <path class="cls-7" d="M402.7303,453.5543c.6317,3.3576-1.663,5.1502-3.7539,7.0717-3.7832,3.4766-2.0683,13.0725,2.733,14.7152,1.5614.5342,2.8226.9758,2.9369,2.7967.0534.8516-.106,1.7263-1.0688,2.0122-1.4992.4451-2.9777.4014-4.2154-.7171-.9863-.8913-1.9266-1.8344-2.8727-2.7693-1.9453-1.9224-3.8566-1.3674-4.9132.6853-1.242,2.4128-1.3704,5.2377-3.2285,7.5796-1.0328,1.3017,3.1063,3.7572,5.4936,2.8584,2.0053-.755,3.8769-2.0935,6.1119-.9307.6679.3475.8003,1.27.2892,1.7103-1.8494,1.5929-4.134.4914-6.2057.8036-2.7302.4116-5.6454-.8833-8.2283.8907-15.349.9499-30.3531,4.3046-45.5166,6.548-24.5533,3.6326-48.9402,8.3171-73.6886,10.7322-17.294,1.6876-34.4853,4.4155-51.7322,6.6021-10.2378,1.298-20.5798,2.0433-30.8227,1.0439-10.3554-1.0104-17.7796-6.4955-21.2781-16.869-3.3097-9.8136-3.5809-20.0093-3.2816-30.0217.3216-10.7593.0647-21.573,1.4462-32.3294,2.5381-19.7619,5.5122-39.4087,14.1713-57.5992,6.5262-13.7099,19.6282-19.1716,34.0946-14.7183,25.8693,7.9635,50.8788,18.1489,75.5131,29.3,24.3218,11.0096,48.2747,22.7653,71.6197,35.7246,10.5264,5.8435,20.8887,11.9828,31.3254,17.9878.5783,1.48-1.2373,2.2173-1.0808,3.9141,3.0921-.3195,5.7476,3.2144,9.1778.8546,2.1651,1.2324,4.4028,2.2264,6.9744,2.1236Z"/>
      <path class="cls-3" d="M467.5564,376.5506c-1.0793.851-.7969,2.0903-.9439,3.22-.2513,1.931-1.0834,3.5188-3.021,4.2135-2.168.7773-2.9906-.984-3.8194-2.337-1.9084-3.115-4.4154-2.3983-6.9295-1.1717-1.9966.9742-3.4606,1.1137-4.1601-1.4529-.8264-3.0328-2.7367-2.6223-4.4355-1.0151-2.2973,2.1734-3.9687,1.8179-5.713-.5856-.6597-.909-1.7395-1.908-2.9308-.9668-1.5106,1.1934-.2929,2.5854.4161,3.4967,2.0232,2.6003,4.1898,5.1085,6.486,7.4723,3.0886,3.1795,3.1162,5.9727-.8845,7.82-3.4541,1.5949-2.3122,6.4181-6.091,7.3563-2.3866-2.2049-3.4678-5.2072-4.8889-8.002-.1397-4.838-2.6569-8.0518-6.8939-10.0905-13.0362-19.4106-24.6467-39.703-36.8-59.6574-17.1032-28.0815-32.7065-57.0186-48.3938-85.9027-4.1208-7.5875-8.2454-15.1848-12.0098-22.9514-7.2068-14.8687-3.2525-26.5473,11.5597-33.8712,11.9519-5.9095,24.8052-9.248,37.724-12.2997,26.7434-6.3173,53.9244-6.7402,81.1906-6.0958,2.8363.067,5.6091.3291,8.3937.9384,10.5522,2.3088,16.6936,8.7518,17.0887,19.6617.8306,22.9331-.5348,45.8362-1.6456,68.7422-.5707,11.7686-1.0728,23.5363-2.2016,35.2628-1.3334,13.8506-2.5892,27.7165-4.3427,41.5168-1.9823,15.6004-4.4802,31.1354-6.7538,46.6989Z"/>
      <path class="cls-11" d="M378.6401,507.3033c4.4274.0511,7.2223,1.3759,5.4518,6.6145-.9394,2.7796.6405,3.5705,3.1016,3.4359,5.2949-.2896,10.4562.487,15.5296,1.9569-1.4947,1.2197-3.1769,1.9819-2.1518,4.7504,3.0931,8.3542.76,16.0878-4.0704,23.0101-7.4674,10.7013-17.3087,19.2263-26.6399,28.2306-17.4877,16.8752-36.8665,31.4873-55.5956,46.8685-15.8937,13.0526-32.173,25.6373-48.341,38.3536-5.075,3.9915-10.1035,8.0688-15.8527,11.1261-15.0726,8.0154-29.4632,5.1607-39.6003-8.6551-22.1455-30.182-36.2348-63.9297-43.2618-100.6366-1.5971-8.3429,3.6293-18.0735,11.6105-21.908,11.5883-5.5674,24.1418-8.1717,36.5557-10.9824,26.0016-5.8873,52.3392-9.886,78.7924-13.1496,17.7464-2.1894,35.4368-4.934,53.2297-6.6061,10.3831-.9756,20.7532-2.6312,31.2421-2.409Z"/>
      <path class="cls-11" d="M434.197,601.1198c-1.4049,17.7672-3.9608,31.9009-7.4009,45.9169-8.3296,33.9376-17.741,67.5635-29.3812,100.5174-3.0664,8.6811-6.1896,17.5114-13.0259,24.3738-7.227,7.2546-15.985,9.4985-25.5974,7.779-29.0556-5.1976-54.4739-18.3097-77.3798-36.6075-7.2894-5.823-13.9302-12.322-19.9001-19.5006-8.2914-9.9704-8.6768-20.8083-3.2301-32.0818,2.0111-4.1625,4.6823-7.9457,7.9724-11.3491,16.5394-17.1092,34.8377-32.255,52.7265-47.8749,21.8946-19.1177,46.0274-35.37,68.3217-53.9427,11.8172-9.8446,26.1679-7.5783,35.8324,3.0565,5.9156,6.5095,12.2683,13.0014,11.0624,19.713Z"/>
      <path class="cls-2" d="M525.0895,718.7187c-3.7952-27.7576-11.6472-54.6594-19.5483-81.4958-3.1108-12.3679-7.0161-24.4998-14.6284-34.873-8.5781-11.6897-26.4463-12.5454-35.3179-2.1692-.0005.0002-.001.0002-.0012.0002-4.7805,3.3423-6.9995,8.333-8.5471,13.657-6.4192,22.0808-12.8323,44.1638-19.1096,66.2854-7.3655,25.9561-15.3054,51.76-18.509,78.7266-2.0879,17.5728,6.2295,27.8467,23.9233,28.2646,28.615.6758,53.8701-8.332,75.4922-27.0269,12.5347-10.8376,18.4741-25.0732,16.2461-41.3689ZM498.8456,745.4755c-12.3213,13.6528-28.3032,19.9822-45.8564,23.0881-5.8547,1.0361-11.7268,2.6538-17.772,1.8159-7.2373-1.0029-9.1572-3.5281-8.3638-10.6511.2207-1.981.2888-3.9758.6379-5.946,5.0833-28.6777,12.948-56.6594,21.126-84.5642,4.2979-16.8557,8.6094-33.7097,14.0825-50.2314,4.2891-12.947,2.675-12.2053,15.9561-12.3083-.1016,1.1118.3696,1.6558,1.4329,1.6135-.0752.1721-.1482.3584-.2163.574,1.0608,6.2031,3.7312,11.9233,5.4026,17.9487,3.3052,11.915,7.7026,23.5215,10.1072,35.6934,5.2317,18.2358,9.0791,36.7812,12.0852,55.4934,1.6831,10.4775-1.5005,19.583-8.6218,27.4741Z"/>
      <path class="cls-1" d="M395.7559,451.4308c-1.1639,2.5623-2.2182,5.4524-5.1835,1.3765-.3563-.4898-1.0594-1.0148-1.6089-1.0226-1.6594-.0236-3.8881,1.6285-4.6952-.8707-.8206-2.541,2.8668-2.306,3.3915-4.253,2.6983,1.5906,5.3972,3.1802,8.0962,4.7697Z"/>
      <path class="cls-1" d="M423.7471,384.5079c6.1764,1.0896,8.6334,4.6852,6.8943,10.0901-2.2983-3.3631-4.5963-6.7266-6.8943-10.0901Z"/>
      <path class="cls-1" d="M421.5916,405.5086c-2.1969.7116-3.825.964-4.2187-2.2883-.2296-1.8967-.654-3.7848-.6438-5.7236,1.9856,2.4493,3.5672,5.1438,4.8625,8.0119Z"/>
      <path class="cls-10" d="M565.6217,489.5156c1.9334-1.1239,3.8655-2.3438,5.8447-.0797-1.9375.848-3.8736,1.7519-5.8447.0797Z"/>
      <path class="cls-5" d="M402.5544,407.8759c-.4004-1.8923-1.4988-3.6848-2.4998-5.3953-14.4197-24.6396-28.8765-49.2581-43.324-73.8816h-.0005c-6.9653-11.6492-13.5352-23.5581-20.9829-34.8904-13.0828-19.907-25.1675-40.511-40.27-59.0459-3.8772-4.7583-8.1665-5.5398-13.3535-2.0884-16.1655,10.7561-30.1328,23.9126-41.7646,39.4302-10.6401,14.1946-20.7178,28.7847-28.1353,45.0171-2.8252,6.1829-1.2307,10.9041,4.8296,14.1306,2.0459,1.0894,4.0176,2.3323,6.1133,3.3127,17.5923,8.2314,35.104,16.6462,52.8464,24.5415,12.5652,5.5913,24.8459,11.8506,37.8008,16.5554,1.1121.6921,2.165,1.5117,3.3447,2.0571,21.2532,9.8264,42.5125,19.6406,63.7944,29.4043,4.6729,2.1438,9.3555,4.3186,14.189,6.0432,4.0686,1.4514,8.1819-1.5522,7.4124-5.1907Z"/>
      <path class="cls-5" d="M370.2624,456.0637c-9.739-6.6887-20.0562-12.3875-30.4666-17.8838-13.7793-7.2754-27.5225-14.6587-41.9338-20.6665,0,.0002.0002.0005.0002.0005h-.0002c-.936-.6531-1.8008-1.459-2.8193-1.9365-20.1094-9.4302-40.2432-18.7944-61.199-26.2695-9.9839-3.561-19.8469-7.4402-30.3047-9.4861-6.4265-1.2573-11.2603.4692-13.4331,5.4614-6.5149,14.9678-10.2539,30.6438-12.2388,46.8477-.7703,6.2903-.658,12.5659-1.1621,18.8364-1.0632,13.2283-1.8093,26.4834,1.167,39.592,1.4507,6.3894,4.3159,8.45,10.7202,8.8694,5.1946.3403,10.2312-.8049,15.3542-1.0913,8.5798-.4797,17.1565-1.1934,25.6973-2.1416,13.125-1.4573,26.2263-3.1372,39.3223-4.8416,6.3411-.8252,12.647-1.9202,18.9688-2.8931,10.8096-1.429,21.5605-3.2546,32.3369-4.8711,15.5366-2.3306,30.9731-5.2061,46.4856-7.6382,5.1604-.8091,9.0078-3.2747,9.8276-8.3838.8081-5.0366-2.1467-8.6365-6.3225-11.5044Z"/>
      <path class="cls-5" d="M465.7048,191.8061c-.2021-5.7546-2.418-8.6223-8.158-10.1006-8.3015-2.1382-16.9309-1.5906-25.2114-1.4695-13.8118.2017-27.739.8875-41.4714,3.4277-15.1746,2.8069-30.0181,6.6025-44.209,12.7095-4.7073,2.0256-7.3481,6.2261-6.1675,9.4971.9556,2.6467,2.0281,5.2808,3.3464,7.7622,10.1899,19.179,20.2903,38.4087,30.7537,57.4382,6.2144,11.302,11.9351,22.9053,19.2766,33.5664,9.8291,16.321,19.5815,32.689,29.5244,48.9402,4.1357,6.7598,7.8782,13.7979,13.3479,19.6904,2.3701,2.5535,4.5996,2.6641,7.4604.9734,4.6172-2.7288,7.731-6.0859,8.7832-11.7988,2.3352-12.6772,4.0903-25.4287,5.6206-38.2048,1.3359-11.1528,2.0281-22.3831,3.0051-33.5793t-.0005.0002c.3406-1.9534.8813-3.8958.99-5.8618.7314-13.2324,1.8096-26.4656,1.9331-39.7063.1655-17.7693,1.8013-35.4998,1.1763-53.2842Z"/>
      <path class="cls-5" d="M380.8246,528.4299c-2.2844-4.0686-7.3506-5.5522-13.6008-4.7764-13.937,1.73-27.9258,3.0393-41.8694,4.7222-10.4851,1.2654-21.0471,1.9619-31.429,4.0413.0002.0002.0002.0005.0005.0007-1.3264.0308-2.6741-.0825-3.9751.1145-12.5549,1.9026-25.1121,3.7959-37.6494,5.8108-20.0786,3.2271-40.0171,7.0852-59.2754,13.8357-8.6345,3.0266-10.594,6.6467-8.3789,15.5237,7.4822,29.9844,19.114,58.1001,37.2053,83.3726,6.6853,9.3389,14.5049,10.7749,23.6882,3.9983,25.4243-18.7612,50.3193-38.1873,74.2485-58.834,1.7676-1.491,3.5356-2.9812,5.3027-4.4727,18.2251-15.3843,36.8745-30.2964,52.9277-48.0793,4.8477-5.3701,5.8047-9.916,2.8049-15.2573Z"/>
      <path class="cls-5" d="M408.6252,592.4853c-.4368-.1897-.762-.6328-1.1433-.9529-3.6155-3.0327-6.9761-2.7637-10.7278.1323-40.3443,31.1423-82.1241,62.3003-117.2063,99.4522-10.5823,11.2063-10.332,18.0085.7122,28.8394,21.2739,20.8635,46.1128,35.5684,75.165,42.7954,9.9487,2.4749,17.3699.0159,20.8608-6.9253,1.7097-3.3999,3.1948-6.9307,4.5376-10.4941,10.8625-28.8262,18.5037-58.6331,26.7793-88.2461,3.3335-14.4761,6.4797-28.9839,9.2769-43.5825,1.7637-9.2041,1.5571-16.7573-8.2544-21.0183Z"/>
      <path class="cls-5" d="M509.2907,720.6906c-5.2856-34.8213-15.5142-68.3625-24.8264-102.2949-1.6538-6.0266-4.6841-13.252-10.918-13.6938-5.3186-.377-9.4375,4.7734-11.075,9.8477-7.7693,24.0764-14.0024,48.853-20.5715,73.3354-6.4822,24.157-13.2983,48.1003-16.6409,72.9644-.7671,5.7063,1.0288,8.6404,6.5259,10.3035,7.0479,2.1323,13.7852-.0405,20.5623-1.1223,19.1536-3.0566,36.3164-10.2275,49.2021-25.4065,5.8127-6.8472,9.0583-15.2556,7.7415-23.9333Z"/>
      <path class="cls-14" d="M595.4125,701.7586c-8.2,23.3101-19.98,44.6001-37.0598,62.5698-15.4001,16.2102-33.52,28.7803-54.1201,37.5601-5.4299,2.3101-7.98,5.6201-7.8799,11.7202.3099,18.0798,4.24,35.1199,15.48,49.5,8.99,11.5098,12.6399,24.6099,14.73,38.5298.29,1.96.77,3.9199,1.46,5.77,2.8899,7.73,2.9299,7.71-.8999,15.02-7.7302-6.0601-13.2302-13.4399-14.4102-23.45-1.5898-13.52-7.08-25.22-16.6399-34.8301-10.5901-10.6599-16.28-23.6199-19.17-38.0901-.35-1.7798-.8199-3.5698-1.49-5.25-2.33-5.8599-5.51-8.1399-11.87-7.6899-12.9199.9202-25.78,2.46-38.72,3.3-19.8201,1.29-39.55.77-59.21-1.77-17-2.1899-33.51-6.53-49.6001-12.4399-1.5601-.5701-3.2-.8899-4.45-2.0901.29-1.1799-.7-1.29-1.39-1.6499-10.83-5.6001-21.51-11.46-31.7999-17.95,10.46-2.1599,22.0199-1.9402,31.1499-.1902,13.25,2.55,15.72,7.2402,31.6899,13.6902,23.17,9.3599,42.9001,9.5598,66.1401,9.7898,17.48.1702,40.3599.4001,68.47-8.6099,11.61-3.72,33.48-10.96,55.96-29.3501,38.55-31.5498,50.1299-72.3799,53.0901-84.3899,4.1699-16.95,3.8-31.3499,3.6499-54.78-.2-30.45-1.3999-43.04-3.9099-52.96-2.5-9.8599-6.4001-20.8101-8.0901-25.5701-2.8499-8-5.29-14.05-7.23-18.6399.8699,1.1299,1.73,2.27,2.52,3.45,4.4399,6.6501,8.8799,13.3,12.6699,20.3601,10.5601,14.3999,18.73,55.97,19.8101,68.8499,2.28,27.0701.2,53.75-8.8801,79.5901Z"/>
      <path class="cls-14" d="M582.232,696.7056c.9496,2.1422,3.0355,3.8869,5.2777,4.9391,2.7477,1.2894,5.764,1.7619,8.6958,2.4591,8.2709,1.9669,16.1817,5.8651,22.819,11.2446,7.9005,6.4032,13.9553,14.7978,22.3102,20.6292,8.7489,6.1065,19.4826,8.9576,29.9392,9.5416,7.9549.4443,16.0308-.3196,23.7882,1.9464,4.2104,1.2299,8.1723,3.3166,12.3972,4.4853.4759.1316.9947.2498,1.4303.0769,1.259-.4997.4112-2.3948-.6172-3.3833-3.2596-3.1333-7.169-5.5861-10.4551-8.6942-7.2767-6.8826-11.0415-16.5156-18.3509-23.3665-10.0625-9.4312-24.6529-11.8243-37.8255-15.9693-9.9657-3.1359-19.6609-7.5743-28.0925-13.7939-3.0531-2.2521-5.9708-4.7542-9.3953-6.3963-9.2725-4.4463-17.5395,1.9197-21.2471,9.3761-.8246,1.6584-1.4492,3.5086-1.1317,5.399.0873.52.2437,1.0232.4577,1.5061Z"/>
      <path class="cls-1" d="M625.6103,347.1735c-5.043-3.7134-8.4678.106-11.8796,2.7126-17.3208,13.2332-33.2747,28.0088-48.5291,43.5564-1.6272,1.6584-3.2622,3.3577-5.1243,4.7231-1.8269,1.3396-3.4265,3.1418-5.4119-.7585-1.751-3.4404-5.8916-2.5288-8.9414-.938-2.3103,1.2048-4.291,3.0833-6.3127,4.7874-1.8008,1.5181-3.6821,3.7192-5.8894,1.28-1.8306-2.0227-1.3794-4.6692.4224-6.8096,2.2454-2.6677,4.4243-5.4138,6.8821-7.8762,14.6843-14.7097,30.9148-27.6846,46.7085-41.1333,12.4111-10.5686,24.438-21.5503,35.9751-33.0188,9.9565-9.8977,14.9558-21.6174,8.1191-35.6021-8.2786-16.9336-18.4927-32.5725-31.5388-46.2671-12.8972-13.5383-27.5164-25.0552-43.2322-35.0149-11.0222-6.9854-22.4609-13.8237-35.4456-16.4822-11.21-2.2954-18.8145-.884-21.4985,11.1028-.8674,3.8733-1.6589,7.77-2.2981,11.6865-3.3057,20.2593-5.6143,40.6523-8.2834,60.999-3.2617,24.8628-4.7534,49.8198-5.5417,74.8308-.4663,14.7947-.1909,29.6138-.1887,44.4219.0005,3.2036-.4446,6.321-1.6294,9.2583-1.9045,4.7207-6.2385,5.2727-9.1536,1.1895-3.6748-5.147-5.6064-10.8745-5.2627-17.2708-1.6936-.1458-1.772,1.2585-2.0403,2.2932-.9709,3.7407-2.637,4.4224-5.3748,1.4224-1.6282-1.7839-3.7126-1.6089-5.9541-1.6572-4.8015-.1035-9.25-3.3315-14.3328-1.7571-.0911.0283-.1331.0476-.158.0618.0295-.0381.0376-.1318-.2271-.3008-1.5662-.9998-3.2493-2.3179-4.7778-.2568-1.3245,1.7861-.1758,3.5479.9451,4.9954,1.8279,2.3606,3.6064,4.7693,5.7546,6.8735,2.0151,1.9739,2.3965,4.0913-.207,5.8206-3.1355,2.0828-4.2161,5.4126-5.6553,8.5557.6904,1.9973,1.6523,3.9497,1.9934,6.0049.3315,1.9983,1.1438,4.4634-.8601,5.9792-2.1746,1.6448-4.821,1.2156-6.9309-.1741-2.1543-1.4189-3.9473-3.3865-5.8987-5.114-4.583,3.1487-7.6777,7.7993-10.3933,12.3145-1.8774,3.1213-3.6169,4.4307-6.9626,5.0327-3.7292.6709-7.3396,2.103-7.7393,6.835,2.7393,2.3657,6.0381,4.0244,8.4119,6.865,4.7927,5.7344,2.853,11.6101-4.4192,13.2102-1.252,1.1548-1.4729,3.1597-2.8118,4.0728-4.9648,3.3857-4.1003,8.0168-3.5156,12.9585.46,3.8879,3.5562,5.1841,6.0132,7.2668-1.4072,1.0271-2.1787.2234-2.96-.2942-6.6328-4.3945-7.4189-4.1431-10.4802,3.4116-.2502.6174-.5999,1.1912-.8521,1.8042-1.3574,3.3008-.0605,5.5635,3.3616,6.0068-.6045-.0261-1.2134-.1125-1.8367-.2925-1.4285-.4128-3.4492-.7153-3.8396,1.7717,3.9788.0051,7.9639-.1277,11.9348.0505,4.7268.2124,6.6685,3.3093,5.2083,7.7861-1.541,4.7251-5.1812,6.2971-9.677,7.3267-4.8499,1.1104-9.9165.0935-14.635,1.8799,2.7764,1.7424,4.8987,3.7178,4.2522,7.5425-.3557,2.1035,1.1384,3.7034,3.2192,3.5918,5.5842-.3,10.9858,2.459,16.6113.8728,2.8574-1.4011,4.582-1.0916,5.1333,2.5979.3059,2.0486,1.5393,4.0103,2.5747,5.8896,2.408,4.3706,4.9763,8.6265,7.7642,12.7271.1458,3.4387-.0522,7.6643-1.354,12.761-1.012,3.9612-2.2017,8.6187-5.8696,13.3044-4.8118,6.147-8.9602,6.0466-9.7825,9.7827-1.5703,7.1355,11.1475,18.4746,17.2173,16.0435,3.8979-1.5613,1.7361-7.4722,6.2607-14.4783,4.8931-7.5769,12.5945-8.6775,18.1279-10.6194,3.0095,2.5337,6.1567,4.9045,9.5295,7.0088,3.1812,1.9849,6.3831,3.6643,9.79,4.3369.8523,2.0635,1.676,4.4919,1.6831,7.8823.0198,9.491-6.3784,15.2332-4.3044,17.2173,1.7085,1.6345,5.6082-2.6846,13.3044-2.739,7.0823-.05,10.4067,3.5601,12.1304,1.9565,2.0386-1.8965-2.0952-7.4272-5.4783-18-1.0684-3.3386-1.7639-6.2595-2.2693-8.8179,3.7869-.395,7.7314.1475,11.5542.2791,3.3123.114,5.4875,2.0894,6.6772,5.168,1.5767,4.0801,3.7961,7.79,6.9807,10.793,4.0754,3.8433,7.2078,8.3748,9.0854,13.5474,7.2969,20.0994,10.8608,41.249,17.0791,61.6624,5.3044,17.4141,9.3806,35.2107,16.1604,52.1599,1.0144,2.5361,6.3445-29.218,2.8892-40.9724-8.1707-27.7949-15.842-55.7229-20.5166-84.3757-.3223-1.9749-1.2476-4.0625.6758-5.5281,2.2666-1.7268,4.1777-.002,5.7346,1.3875,3.594,3.2075,7.0688,6.5574,10.4646,9.9758,7.6196,7.6707,14.5691-6.8052,6.8391-15.5339-7.6846-8.6777-14.3232-17.9233-12.3372-30.6802.5845-3.7534,1.4836-7.0151,4.4534-9.6023,3.0916-2.6934,6.6265-4.2632,10.543-5.3132,5.4102-1.4504,6.2498-3.1357,4.5718-8.6685-.8167-2.6936-2.002-5.2776-2.7788-7.9807-5.6353-19.6099-6.6086-22.0415,9.8877-32.8274.1328-.0869.3174-.0942.4778-.1387,1.9531.3386,3.8865-.7654,5.8442-.0793.7004.0278,1.4009.0559,2.1018.0833,1.9893-.1443,3.9775-.2878,5.9661-.4314,1.6145-.4363,1.9045-1.6082,1.7771-3.0769-.2485-2.863-3.4873-1.1562-4.6184-3.0356,2.0159-2.3845,1.2075-6.3477,4.4597-7.9692,5.9016-2.9424,6.8958-5.4832,3.657-11.4895-1.4912-2.7654-.5188-3.5339,2.0408-3.8518,5.2505-.6523,10.3931-2.0544,15.7505-2.0232,1.7534.0103,4.1106.6853,4.8228-2.0591-6.4607-.9653-12.7866.1951-19.1636,1.0315-6.501.8528-9.2615-.9355-11.9729-6.9504-6.0703,2.8298-12.1243,5.0537-18.9614,2.2415-5.0415-2.0735-6.6768-4.8911-4.9534-10.0613,1.7979-5.3936,4.4038-10.4114,7.6531-15.051,13.6362-19.4712,30.6226-35.7903,48.5281-51.2197,5.2737-4.5444,10.6475-8.9561,16.2544-13.1182,6.4629-4.7974,6.5212-11.0708.8027-15.2817ZM393.9382,488.612c.8936-.2051,1.8162-.4722,2.8655-.4927-.998.1572-1.9417.3525-2.8655.4927Z"/>
      <path class="cls-5" d="M615.3215,285.0671c-4.3701-10.676-10.1875-20.4656-17.2778-29.5142-20.1816-25.7563-45.4163-44.7974-75.7981-57.0283-4.002-1.6111-6.4819-.855-7.2471,3.5334-1.8442,10.5779-3.7913,21.1433-5.3335,31.7664-1.7317,11.9275-3.1995,23.8977-4.5308,35.8772-1.2954,11.656-2.2729,23.3474-3.3901,35.0232-.9473,21.3765-2.3699,42.738-2.0256,64.1541.0259,1.5959-.7439,3.7476.9155,4.6252,1.8887.999,2.78-1.249,3.8403-2.311,1.9194-1.9226,4.2046-2.2134,6.4297-1.355,2.4907.9607,3.8823,3.0557,3.6824,5.9026-.1389,1.9775-.2874,3.9563-.5063,5.926-.408,3.6675-.8706,7.3289-1.3337,11.186,2.0503-.4678,2.9111-1.7861,3.8008-2.8992,27.3862-34.2627,65.9712-56.9543,95.7612-88.7986,4.1743-4.4622,5.5354-9.927,3.0132-16.0879Z"/>
      <path class="cls-1" d="M527.8415,424.2304c2.2057-7.5641,4.597-15.9354,10.3097-21.8829,14.0532-14.6308,29.9126-26.3516,44.6782-40.2655,15.7862-14.8757,32.097-29.2081,49.1205-42.6559,2.0739-1.6383,4.2075-3.2908,6.702-4.164,2.4945-.8732,5.4553-.847,7.5856.7172,1.973,1.4487,2.8964,3.9079,3.5489,6.267,3.7281,13.4774,1.8844,27.8692-1.31,41.4829-3.3079,14.097-8.35,28.3813-18.5554,38.6536-19.5089,19.637-51.9387,19.4071-74.148,35.9285-5.4715,4.0702-10.219,9.1109-13.9546,14.8161-1.121,1.712-2.1795,3.516-3.7456,4.8332-1.5661,1.3172-3.7986,2.0677-5.6937,1.2955-1.9946-.8129-3.0263-2.9901-3.7398-5.0224-2.9112-8.2914-3.4582-17.3602-1.7728-25.9723.2749-1.4045.5997-2.7447.9748-4.0311Z"/>
      <path class="cls-5" d="M551.7671,410.898c-2.2219-4.1856,8.1384-13.5979,24.409-28.1816,20.8751-18.7109,31.2142-24.8192,39.4984-32.8413,3.4023-3.2947,7.4161-5.8933,11.095-8.8761,2.9261-2.3722,3.8616-3.1564,4.8819-2.8848,3.5638.9491,3.486,13.5337,2.6628,21.3027-.9123,8.6082-2.2725,21.4458-12.2046,33.2851-8.6107,10.2643-18.9367,14.1432-24.409,16.1987-9.3967,3.5298-17.7295,3.6106-34.3947,3.7723-9.2603.0899-10.8952-.5628-11.5388-1.7752Z"/>
      <path class="cls-1" d="M492.7853,568.1919c.4169,6.5395,1.4052,12.4015,2.2391,15.4119,3.8379,13.8553,10.7372,26.6262,16.5655,39.7689,12.9983,29.3109,20.7786,60.9268,22.8671,92.9224.213,3.2629.566,6.9378,3.1125,8.9891,4.1223,3.3207,10.1725-.1746,13.8413-3.9903,11.705-12.1736,18.6158-28.3077,22.2931-44.7905,3.6773-16.4828,4.3387-33.4674,5.0344-50.341.5088-12.3414,1.0282-24.8584-1.7326-36.8977-2.7609-12.0393-9.2601-23.7552-19.8723-30.0758-11.3703-6.7722-25.8697-6.5877-37.2157-13.4006-3.6974-2.2201-7.0135-5.1603-11.0562-6.6621-14.8676-5.5228-17.0588,13.6533-16.0762,29.0657Z"/>
      <path class="cls-5" d="M523.1946,566.6779c13.3402-4.943,26.4978,5.3084,29.7791,7.8647,1.7634,1.374,10.3996,8.333,14.6946,21.4408,4.3249,13.1993,1.6605,24.737-.2613,33.195-13.5342,59.5619-13.9511,70.7065-18.0842,70.6369-4.7949-.0808-4.0597-15.0753-17.646-49.8946-2.2019-5.643-7.9641-19.967-15.1876-40.3054-5.7182-16.1-8.9874-26.4949-3.8101-34.7914,3.3806-5.4176,8.8608-7.5331,10.5155-8.1461Z"/>
    </g>
  </g>
</svg>