<?xml version="1.0" encoding="UTF-8"?>
<svg id="Capa_2" data-name="Capa 2" xmlns="http://www.w3.org/2000/svg" viewBox="0 0 756.706 952.8432">
  <defs>
    <style>
      .cls-1 {
        fill: #ad687f;
      }

      .cls-2 {
        fill: #0089c5;
      }

      .cls-3 {
        fill: #8f5063;
      }

      .cls-4 {
        fill: #bc201d;
      }

      .cls-5 {
        fill: #e54235;
      }

      .cls-6 {
        fill: #1a75e2;
      }

      .cls-7 {
        fill: #0961aa;
      }

      .cls-8 {
        fill: #c94136;
      }

      .cls-9 {
        fill: #3992ea;
      }

      .cls-10 {
        fill: #864155;
      }

      .cls-11 {
        fill: #a35c71;
      }

      .cls-12 {
        fill: #774355;
      }

      .cls-13 {
        fill: #ed7069;
      }

      .cls-14 {
        fill: #0067a3;
      }

      .cls-15 {
        fill: #212d34;
      }
    </style>
  </defs>
  <g id="Capa_1-2" data-name="Capa 1">
    <g>
      <g>
        <path class="cls-15" d="M741.4857,316.8788c-12.0601-55.3398-30.1699-108.4399-58.6797-157.5601-28.6304-49.3198-65.5903-90.72-115.3203-120.04C522.8461,12.9689,474.3061,1.3388,423.1356.1188c-26.5698-.63-53.1396,1.16-79.2896,7.4202-31.29,7.4897-61.1001,18.1299-88.3101,35.71-44.1001,28.5-69.25,69.25-77.0703,120.54-3.7998,24.8999-3.3301,50.1099.8301,75.1899,6.2202,37.5498,19.2002,72.45,39.9399,104.3499,11.1802,17.1799,22.8301,34.05,34.54,50.8801,3.0801,4.4299,3.21,7.7998-.4199,11.8899-3.8101,4.3-7.0498,9.1001-10.5098,13.71-11.4102,15.2102-20.0103,32.3101-31.9204,47.2-12.4199,15.5303-28.1899,23.29-48.1597,20.5-16.4399-2.2998-32.8198-4.6299-49.4702-5.02-30.5801-.71-60.3101,3.29-88.6899,15.0601-13.0698,5.4202-23.1997,13.8501-24.4497,29.27-2.3101,28.29,21.3599,46.8901,47.8398,37.71,6.0298-2.0898,12.0098-4.3699,18.1602-6.0498,27.3398-7.51,55.0996-8.8,83.1499-5.1501,1.0698.1301,2.3501.04,2.7397,1.1702.5103,1.4897-.8398,2.23-1.77,3.0598-3.6699,3.27-7.52,6.3501-10.9697,9.8301-45.8804,46.3101-69.6401,103.49-80.27,166.6199-6.3501,37.6802-8.8901,75.8401-9.4502,114.0901,0,6.8401-.0098,13.6702.0103,20.51.0098,9.3701,4.6797,15.55,12.9399,19.5601,8.1299,3.9399,16.7397,5.6201,25.5098,4.3899,25.1001-3.5398,36.0898-13.01,35.9302-37.6099-.1802-26.04,1.1201-52.05,2.8799-78.05,1.9302-28.4199,5.8999-56.3999,14.3501-83.5701,9.2402-29.72,21.71-57.75,44.73-79.9199,20.5601-19.8,41.6499-25.05,64.6299-14.98,10.1899,4.47,19.6802,10.3499,28.0503,17.74,23.3398,20.6099,40.6997,45.8799,56.1396,72.6201,1.9004,3.2898,1.8203,6.9299,1.3003,10.5798-2.8599,20.28-6.2002,40.49-11.8101,60.21-7.9102,27.77-14.5303,55.7-13.21,84.8901,1.23,27.1599,6.5098,53.0701,24.9497,74.3298,16.3501,18.8501,36.3203,31.3601,61.8999,33.5601,25.0801,2.1699,48.9102-3.1201,71.8301-12.46,34.6304-14.1001,64.04-36.51,91.9102-60.8501,47.25-41.25,86.9302-88.9099,119.5703-142.5601,24.7197-40.6199,43.1499-83.8799,55.9497-129.5,6.1299-21.8799,11.0503-44.0698,13.9302-66.8098,3.6499-28.77,5.6201-57.51,5.6299-86.47.0098-46.2002-5.3901-91.74-15.2202-136.8301ZM301.9657,547.2587c-2.1099.6501-3.4897-.8799-4.8096-2.4099-10.5205-12.23-22.4702-22.78-36.2705-31.24-11.0796-6.79-11.1299-7.01-3.4897-17.75,8.1602-11.46,15.4102-23.6599,26.0898-33.1001,5.1802-4.5898,5.6201-4.3298,7.6104,2.27,7.3696,24.3901,12.25,49.1802,12.6299,74.75v2.5601c-.02,1.8601.6997,4.1602-1.7603,4.9199Z"/>
        <path class="cls-3" d="M386.0165,790.4619c.3121,5.7422-3.1944,10.9788-2.4759,17.0975,3.26-1.3093,4.7997-3.8853,6.5384-6.2439,17.4831-23.7172,27.9131-50.5755,36.2003-78.6267,11.2139-37.9577,17.2651-76.7884,20.7858-116.0201,2.4428-27.2195,3.3253-54.6525,1.4092-81.9261-2.6153-37.2259-8.4372-73.9989-17.6378-110.2916-9.8195-38.7341-27.6807-73.7899-46.7938-108.3851-11.3171-20.4841-20.5535-41.6905-24.2778-64.9899-.0899-.5624-.5979-1.058-1.1609-2.0057-4.0359,3.9143-3.4564,9.077-4.3793,13.5727-.9367,4.5625-1.4986,9.3357-1.2774,13.9714.3421,7.1684-1.7856,13.1105-5.8256,18.9922-14.599,21.2539-26.7821,44.1968-44.4364,63.3045-3.3233,3.597-6.7789,7.0716-10.1735,10.6028-3.9842,2.1033-6.9904-.4482-10.0299-2.2681-13.5273-8.0994-24.7369-18.7352-34.4782-31.1092-21.5417-27.3636-35.9163-58.3591-46.8294-91.1582-4.8302-24.0835-5.0525-48.2396-.7373-72.3907,9.052-50.6621,38.1124-86.359,82.714-110.4988,20.6396-11.1708,42.806-17.5291,65.5789-22.4536,16.8121-3.6355,33.7563-6.1957,50.8976-6.2517,20.7511-.0678,41.5067.9057,61.9431,5.1471,5.5942,1.1696,11.1006,2.7318,16.7303,3.7424l-.0218-.0248c.7816.7727,1.7581,1.2239,2.7793,1.5301,28.5476,8.5594,52.4614,25.0676,74.9987,43.8752,14.9425,12.4696,28.6606,26.1898,41.1838,41.1069,2.0945,2.4948,4.1224,4.8809,4.5524,8.2566.3099,2.4331,1.7896,4.2583,3.2656,6.1274,11.9704,15.1579,21.6528,31.6787,30.0058,49.0932,4.6007,9.5917,9.9387,18.835,14.7424,28.3579,8.2556,16.3661,12.7235,33.9633,18.2112,51.2063,12.8636,40.4188,20.8106,81.9496,25.6821,124.0244,3.5912,31.0169,3.8589,62.2481,2.712,93.4056-.9674,26.2846-5.7985,52.155-10.9863,77.9254-10.4998,52.1575-31.1403,100.2878-58.7895,145.3935-19.2108,31.3397-40.8418,60.9702-65.886,88.129-24.5818,26.6571-50.8909,51.1546-80.8306,71.6531-19.9162,13.6357-41.0563,24.7737-65.1117,28.8563-23.2444,3.9451-45.2568.5757-64.0887-14.7075-9.3418-7.5815-16.9154-16.8617-21.0785-28.4704-.5562-14.1809-1.0316-28.3572,2.3883-42.3136,3.1215-12.1325,8.2557-23.1666,17.4883-31.9488,6.3162-6.0082,12.039-6.8886,19.8206-3.019,6.2531,3.1093,10.9389,8.1064,15.4719,13.2204,1.5931,1.7973,2.3823,4.0503,1.2064,6.5116Z"/>
        <path class="cls-12" d="M329.6411,848.0112c5.3375,5.4477,8.5255,12.4294,13.293,18.3777,9.9096,12.364,22.7906,19.0995,37.5613,22.5264,19.8643,4.6086,39.0482,1.0892,57.8654-6.1433,26.6295-10.2352,49.0308-27.0419,70.9382-44.6864,15.6407-12.5972,29.9696-26.6434,43.6621-41.2635,17.8796-19.0908,34.6083-39.1726,49.5029-60.7542,15.9279-23.0792,31.1716-46.5428,43.5234-71.781,15.0502-30.7516,28.0226-62.3691,35.2632-95.8768,5.7683-26.6942,11.0082-53.5097,12.6975-80.991,1.4044-22.8486,1.8041-45.7182.6-68.4219-1.5012-28.3063-4.533-56.5815-10.4729-84.4948-4.1067-19.2979-7.7843-38.7079-13.1856-57.6638-7.9773-27.9966-16.0837-56.1643-30.2923-81.7146-10.8016-19.4239-20.192-39.7157-33.8857-57.5616-8.344-10.874-13.9064-23.784-24.4206-33.1779-6.9467-6.2066-13.1329-13.2706-20.135-19.4081-17.6456-15.4668-36.1374-29.9417-57.5681-39.7787-7.2217-3.3149-13.5201-9.261-22.2546-9.227-1.9344.0076-3.2638-1.8526-4.0543-3.7218,17.1617,2.7333,33.3791,8.4625,49.2255,15.4163,35.3797,15.5254,65.0149,38.8877,91.1678,66.9454,17.8361,19.1351,32.6439,40.4453,45.3116,63.3322,10.8691,19.6371,20.0326,40.0824,28.16,60.9098,9.4489,24.2137,16.0432,49.381,22.3309,74.6259,6.2426,25.064,9.9088,50.5185,13.2381,76.0485,1.3761,10.5529,2.1552,21.1887,3.0214,31.8019,1.739,21.3097,1.9955,42.6865,1.1538,64.0138-1.0753,27.249-4.2345,54.283-9.4167,81.1339-9.5623,49.5461-26.2121,96.5779-49.9696,140.9274-21.5701,40.2662-46.7503,78.1573-77.6228,112.1694-27.6763,30.4909-57.5259,58.4416-91.5387,81.6499-21.2619,14.508-44.0603,26.2456-69.8163,30.7065-25.4296,4.4042-50.05,2.7285-71.2482-13.8211-18.9276-14.777-28.9885-34.8468-31.5909-58.6699-.4153-3.8018-.6991-7.618-1.0437-11.4276Z"/>
        <path class="cls-5" d="M96.071,872.2525c-7.7556,3.3818-15.3993,2.3851-22.9922-.5883-4.6931-1.8377-5.0862-5.8149-5.0518-10.0509.1438-17.7235,1.1172-35.415,2.5289-53.0694,2.4477-30.6103,3.9753-61.353,11.1037-91.3921,10.2035-42.9976,25.4533-83.769,53.5227-118.6818,13.0446-16.2249,27.2655-31.1415,46.6098-40.2139,26.2719-12.3213,53.0097-11.0207,79.9576-3.1163,12.4807,3.6609,24.576,6.9224,38.123,6.1093,20.2965-1.2182,36.2535-9.2958,48.5677-24.6834,10.5292-13.1568,20.0665-27.1054,30.1249-40.6425,3.6878-4.9633,7.6125-9.7504,11.4291-14.618.4661-.494,1.1917-.8855,1.6791-.5332,5.5674,4.0249,7.8923,17.2002,3.4145,22.083-15.4324,16.8281-29.1711,35.1346-45.53,51.1752-9.7705,9.5803-20.8297,16.1504-34.0634,19.2557-2.6999.6335-5.4251,1.2263-7.9639,2.3937-2.439,1.1215-3.9463,2.6609-2.1617,5.4744,10.8297,8.4682,16.6743,20.2384,21.4747,32.6562,1.172,3.0316,2.7451,5.6414,4.9086,8.0902,12.896,14.5968,23.394,30.8813,32.8796,47.8197,9.907,17.6908,20.7629,34.7042,34.115,50.0306,1.6761,5.4507-1.8245,8.9816-5.1361,12.0883-2.8448,2.669-5.11-.2378-6.852-2.3087-4.8314-5.7436-8.5593-12.2578-12.3654-18.6838-12.1891-20.5796-23.5613-41.6628-37.1547-61.3783-16.9049-24.5183-34.74-48.296-60.4745-64.48-20.1393-12.6653-41.9112-19.2211-65.9054-14.8472-19.668,3.5854-35.7676,13.8474-48.9194,28.5107-28.4699,31.742-44.2349,69.6557-52.6576,110.9709-5.5513,27.2307-8.821,54.6938-10.5664,82.4813-1.2066,19.2088.4054,38.4223-1.6184,57.5867-.5469,5.1789.965,10.5958.7175,15.9496-.1077,2.3303.1548,4.7554-1.7438,6.612Z"/>
        <path class="cls-6" d="M297.5915,424.7078c25.6107,14.8958,52.5479,12.8409,79.8264,6.2095,4.5385-1.1034,9.0262-2.4158,13.5374-3.6316,4.5603-1.5411,6.9553.807,7.9628,4.8271,1.0692,4.2658-1.8315,6.399-5.236,7.5345-4.8863,1.6298-10.1682,1.7234-15.1744,1.8028-15.5029.2459-30.9437,3.2873-46.5489.5701-6.9805-1.2155-13.8338-2.8075-20.4308-5.1125-19.602-6.8491-35.2318-.4202-48.5675,15.789-11.3801,13.8323-21.6069,28.5708-33.2224,42.2225-3.0498,3.5845-6.0452,7.2767-9.7242,10.1349-4.1855,3.2516-3.2983,5.6682.2864,8.3186,14.3692,5.7907,28.5023,12.0023,40.3242,22.6356-14.5659-2.8411-29.14-3.9115-43.8343-3.3905-11.5861,1.6355-22.992.3112-34.206-2.5436-37.1076-9.4463-74.4028-9.8379-111.7722-2.1343-14.6396,3.0179-29.101,6.971-41.7759,15.5071-1.088.7328-2.29,1.1421-3.6349.7836-4.3183-4.3662-5.5719-9.9845-6.06-15.7583-.699-8.2686,5.4348-11.4839,11.5098-14.3283,12.6672-5.9311,26.2717-8.6707,39.9367-11.0344,28.2874-4.893,56.595-3.7254,84.6208,1.4551,28.442,5.2574,50.4143-4.8984,68.8572-25.7149,10.6897-12.0654,18.01-26.4052,27.2852-39.4164,15.8839-22.2819,33.8041-42.8513,52.6025-62.6949,16.0142-16.9046,30.8263-34.7896,43.4238-54.4312,4.4066-.0438,6.2931,2.9058,6.0135,6.5192-.6906,8.9248-3.1005,16.9267-9.4255,24.2059-13.5398,15.5826-27.0319,31.2136-40.6043,46.7731-2.941,3.3716-5.4984,7.0449-7.7726,10.9203-4.7791,8.1438-4.8151,8.1227,1.8031,13.9822Z"/>
        <path class="cls-4" d="M96.071,872.2525c.0183-21.0525-.4941-42.1216.162-63.1542,1.5022-48.1544,6.8549-95.7875,23.1042-141.5286,8.7735-24.6968,21.6617-47.0967,38.8042-67.0997,11.3641-13.2603,24.7957-23.2317,41.198-29.0937,21.4301-7.6589,42.351-4.7429,62.7789,3.8087,23.7273,9.9329,41.054,27.7284,57.1373,47.0589,22.6015,27.1646,39.0653,58.2522,57.0013,88.4103,3.5832,6.0249,7.6433,11.7646,11.4204,17.676,2.825,4.4213,5.1527,4.0296,7.4701-.4624,1.3638-2.6437,3.17-5.0665,3.5995-8.117,3.1253,3.0559,8.371,5.1943,8.0485,10.0593-.4517,6.8122-3.4576,13.1856-6.968,19.0746-1.6601,2.7848-3.6241.949-5.2046-.6068-4.4102-4.3416-8.6291-8.8176-12.3578-13.8101-14.4878-19.3982-25.5156-40.8923-37.7819-61.6418-16.4947-27.9021-35.3956-53.9008-61.1399-74.1614-14.1624-11.1456-30.1244-18.7386-48.0606-21.1806-22.8924-3.1168-41.6433,6.1893-58.3008,20.896-20.3534,17.9698-32.9498,41.0824-43.6991,65.5032-14.0259,31.8648-19.5431,65.6229-23.0298,99.9009-3.1998,31.4568-3.0873,63.0434-4.0484,94.5895-.2708,8.8868-2.2114,11.5369-10.1336,13.8789Z"/>
        <path class="cls-12" d="M429.6409,538.8939c0,6.8654-.1731,13.0568.0663,19.232.1388,3.5795-1.0843,6.0724-3.9275,8.1475-19.4492,14.1944-40.3153,25.4521-63.977,30.8622-7.7321,1.7679-15.5036,2.7272-22.8939-1.5433-2.9621-1.7116-3.9414-3.406-.2418-5.342,23.7159-12.4101,39.842-32.9379,56.3782-52.9656,8.3129-10.0681,17.3035-19.3216,27.7374-27.2164,4.2858-3.2429,5.0035-1.7619,5.7185,2.7069,1.4278,8.924.6623,17.8729,1.1399,26.1186Z"/>
        <path class="cls-12" d="M344.5768,419.5945c-8.7584-.2193-15.0631-.9785-21.2897-2.464-4.8993-1.1688-5.3255-3.7334-2.3239-7.2764,3.5763-4.2215,7.0402-8.5817,10.984-12.4409,15.2417-14.9146,29.2998-30.9008,43.2711-46.9802,6.1707-7.1019,7.2101-7.0139,11.1622,1.3312,6.9213,14.6149,13.0993,29.5436,18.1111,44.9437,1.3598,4.178-.4486,6.7113-3.8519,8.2652-18.5608,8.4743-38.1293,12.9891-56.0629,14.6215Z"/>
        <path class="cls-12" d="M411.1427,709.1994c-18.884-20.2354-30.2065-44.1869-44.2775-67.3355,18.8336-1.8961,36.1638-6.3685,52.7317-13.8116,4.9016-2.202,6.6579-.401,5.8404,5.801-2.6679,20.2396-5.5672,40.4452-10.5988,60.2729-1.2,4.7288-2.3258,9.4763-3.6958,15.0732Z"/>
        <path class="cls-12" d="M377.2044,465.6503c-15.7636,18.2256-24.9136,40.0139-39.9874,57.7628-2.2048,2.5961-4.3769,5.25-6.8382,7.5886-1.9072,1.8121-3.6282,5.7079-6.1923,4.4977-2.3745-1.1206-2.2362-5.2035-2.3062-8.1189-.4363-18.1815-4.1099-35.8915-7.8327-53.5752-2.4732-11.7482-2.7216-11.5829,9.2983-9.5401,17.5397,2.9809,35.1995,1.4766,53.8585,1.3851Z"/>
        <path class="cls-7" d="M25.4013,544.2306c14.7437-12.0146,32.7886-15.4824,50.6184-19.3485,21.3859-4.6372,43.1505-4.5373,64.8228-3.6881,12.2316.4793,24.3927,2.8015,36.3774,5.6661,13.0072,3.1089,26.0679,5.9832,39.5697,5.7572-12.5111,1.389-24.5919,4.5532-36.4629,8.6707-2.463.8543-5.0391.1043-7.5499-.553-45.3825-11.8803-89.8137-8.5288-133.321,8.5688-6.4209,2.5233-10.6376.1275-14.0545-5.0732Z"/>
        <path class="cls-12" d="M201.1744,234.9784c5.6255,8.158,8.0081,17.7493,11.6868,26.7523,10.4657,25.6125,24.2557,49.1216,42.2432,70.2464,7.9786,9.3702,17.2996,16.8597,27.4905,23.4834,3.0491,1.9818,6.0878,3.9787,9.9159,4.0527-5.8079,6.7855-11.6801,13.5179-17.3966,20.3799-2.4425,2.9319-4.3909,2.7867-6.5014-.2463-23.3696-33.5849-47.107-66.9864-59.1825-106.8011-3.7537-12.3765-7.9727-24.7086-8.2559-37.8672Z"/>
        <path class="cls-7" d="M220.3004,513.3727c-1.6194-.4541-3.3274-.7145-4.8379-1.4062-2.4566-1.1248-3.25-2.7033-.6982-4.7384,14.8253-11.8231,24.5827-27.9923,36.446-42.3677,7.1189-8.6263,13.0038-18.3217,22.5792-24.8896,11.4013-7.8204,23.2872-9.5801,36.2829-5.1546,14.3999,4.9036,29.1889,7.4702,44.4332,6.5862,12.0566-.6991,24.1041-1.5952,36.1389-2.6033,3.1347-.2625,7.0126-.9779,7.1547-4.8809.145-3.9805-2.2323-6.8219-6.8437-6.6323,5.164-1.9321,10.3283-3.8637,15.4925-5.7957,3.5325-1.3216,5.6134-.3179,6.5786,3.5279,4.4966,17.915,7.371,15.1203-10.6305,19.4725-10.7176,2.5912-21.8097,3.6471-32.859,4.5492-21.8843,1.7867-43.2781-.1771-64.4128-6.4813-13.1868-3.9335-24.8075.4869-34.6843,9.6666-6.9186,6.4302-12.7276,13.8048-17.8595,21.7183-9.2997,14.3402-19.5887,27.868-32.2802,39.4293Z"/>
        <path class="cls-8" d="M305.3691,581.1542c-1.4715-.6697-3.8083-.8191-3.4546-2.9954.3175-1.9529,2.3058-2.9271,4.1023-3.702,7.0285-3.0319,14.8546-3.4526,21.7937-6.9422,6.2908-3.1636,12.2017-6.6507,17.4186-11.4912,17.973-16.676,32.2099-36.7012,49.0588-54.3767.831-.8717,1.6798-2.1417,1.7376-3.2666.3334-6.4768-1.4739-12.2843-6.0315-17.0749,6.3287-7.7438,12.4698-15.7268,21.9038-20.0329,6.0638-2.7677,7.5514-1.7524,8.9464,4.903,1.2642,6.0317.9606,12.3202,3.1929,18.1921,1.0741,2.8254-.2832,4.9565-2.5728,6.5774-20.0419,14.1883-35.6146,32.8499-51.5004,51.2297-9.329,10.7935-18.7148,21.5923-30.9662,29.3377-8.8348,5.5853-18.0834,9.4622-28.8939,7.643-1.8308-.3081-3.9578-.5492-4.7348,1.9991Z"/>
        <path class="cls-12" d="M386.0165,790.4619c-1.848-8.3628-17.2526-21.0101-25.3981-20.607-7.4807.3703-11.4888,6.0534-15.5105,11.1982-5.786,7.4015-8.9643,16.2945-13.0784,24.6445,1.6152-12.6844,5.1225-24.9664,8.0663-37.3607,3.7689-15.8681,7.8483-31.6624,11.8969-47.9014,7.2231,7.5167,12.0706,16.5445,18.3458,24.4802,5.2224,6.6041,11.0491,12.4425,18.0586,16.9932,3.8994,2.5315,4.8784,5.6552,3.5794,9.8082-1.9572,6.2575-3.9706,12.4974-5.9601,18.7448Z"/>
        <path class="cls-7" d="M297.5915,424.7078c-8.9145-2.8374-9.3374-4.3626-4.5954-12.6676,7.7794-13.6247,19.3938-24.0621,29.3458-35.8795,9.1426-10.8563,18.7466-21.3496,26.8448-33.0365,4.3304-6.2494,3.2756-16.8846-1.61-20.8175,2.7519-4.7802,5.4851-9.5715,8.2609-14.3381,1.9476-3.3445,3.8374-3.2297,5.1369.3896,1.8815,5.2406,4.3841,10.1523,7.2822,14.8788,1.9191,3.13.5524,5.7239-1.3126,8.1955-10.5125,13.9324-21.8767,27.1508-33.5165,40.1465-9.5058,10.6131-19.0455,21.208-28.1778,32.1389-4.9548,5.9306-8.6618,12.7003-7.6584,20.9899Z"/>
        <path class="cls-14" d="M402.4348,600.3857c8.198-4.8868,16.396-9.7735,25.4453-15.1678.6705,6.5477.5243,12.1699-.0241,17.7841-.2546,2.6058-2.1247,3.9962-4.3609,5.0893-16.3091,7.9721-32.58,16.2206-51.1078,17.477-12.2192.8287-19.8967.2805-22.2788-8.4404,1.4997-1.3535,3.2576-.7911,4.8613-.4735,16.6667,3.3002,31.8444-1.6301,46.8345-8.1207,5.9516-2.5771,2.5174-5.2808.6304-8.1479Z"/>
        <path class="cls-2" d="M402.4348,600.3857c3.0541.4111,5.6067,2.302,5.9269,4.9968.3692,3.1075-3.3073,3.3953-5.4423,4.4725-10.9064,5.5029-22.6004,8.3493-34.6624,9.7718-6.2372.7357-12.1877-1.0163-18.1488-2.499-.0498-1.6088.9101-2.3568,2.3395-2.405,17.8634-.6036,33.8111-7.8648,49.987-14.3372Z"/>
        <path class="cls-10" d="M478.3009,32.273c-5.8864.1367-11.4094-1.3521-16.7305-3.7426,5.8325.1044,11.373,1.5143,16.7305,3.7426Z"/>
        <path class="cls-11" d="M393.0476,50.1664c30.1344.7384,58.6426,7.9919,86.4193,19.7527,30.1602,12.7701,54.7403,32.7645,76.3968,56.5081,9.4973,10.4126,20.2754,19.9585,27.3179,32.5046,4.8524,8.6444,8.1429,18.0075,12.844,26.7853,15.9519,29.7849,26.6235,61.731,35.2184,94.2613,4.2285,16.0043,10.3832,31.5965,12.9006,47.8912,2.3235,15.0404,5.3924,30.0361,6.0356,45.377.7282,17.3685,2.9209,34.6814,3.4614,52.0501.5035,16.1764,1.1515,32.4117-.5106,48.5978-.3879,3.7769-.4993,7.5987-.4782,11.3983.1008,18.1148-2.1749,35.9959-4.9429,53.8499-4.3663,28.1644-11.2218,55.7211-20.9233,82.485-7.3101,20.1668-16.7605,39.4137-27.2923,58.1322-14.1205,25.0965-30.0228,48.9935-47.9416,71.5086-14.877,18.693-31.3434,35.8851-49.2461,51.7818-14.0585,12.4833-28.1938,24.7331-45.2015,33.0378-12.4071,6.0583-24.8724,8.5636-37.318-.5267-8.7248-6.3726-12.7148-17.6755-9.8676-28.1993,3.4719-12.8326,10.1077-23.8884,18.2148-34.1602,8.813-11.1661,14.9857-23.7547,19.4862-37.0778,11.2929-33.4309,22.5846-66.8735,33.0358-100.5724,4.8228-15.5508,7.7625-31.6039,9.3665-48.0001,2.7035-27.6366-1.4145-54.6242-5.0776-81.7576-2.4388-18.0651-5.1902-36.0741-6.8855-54.2607-3.1844-34.1614-9.5868-67.7468-23.0753-99.5352-9.5486-22.5031-22.4793-43.0198-39.2968-60.8323-13.6457-14.4531-23.0543-31.2348-27.8805-50.3087-4.932-19.492-.518-37.9197,9.2713-55.1326,4.7387-8.3321,10.224-16.1789,16.8895-23.1445,1.0155-1.0613,1.6163-2.508,2.552-3.6601,1.0615-1.3071,1.4973-2.4589.2798-3.9605-1.4016-1.7287-2.8392-1.3675-4.518-.5358-18.7668,9.297-33.3269,23.2719-45.2689,40.2766-7.8502,11.1782-14.011,23.1979-18.6649,35.9932-2.907,7.9926-5.1212,16.2527-8.3086,24.1245-6.3694,15.73-15.3587,29.4939-31.2398,37.3032-11.5477,5.6784-30.0084,2.5298-39.4223-6.2932-22.9521-21.5111-38.1199-47.4985-43.2329-78.57-6.0551-36.7967.936-70.3668,25.8743-99.6254,23.0311-27.021,52.0064-43.604,85.9868-51.6608,17.9703-4.2608,36.4557-5.8998,55.0423-5.8052Z"/>
        <path class="cls-1" d="M244.3568,171.0865c-.0467-19.1325,4.3415-38.6148,14.8867-54.6823,12.1275-18.4784,32.1703-32.1602,52.532-40.0844,6.3798-2.4829,12.968-4.4322,19.6763-5.8001,1.3016-.2654,3.117-.2003,3.4004,1.0975.1612.738-.3304,1.445-.7987,2.0378-3.2728,4.1425-6.7636,8.1127-10.4533,11.8886-11.0688,11.3275-23.8944,20.8785-34.4909,32.649-10.5965,11.7706-19.0737,26.59-18.7418,42.4242.2884,13.7557,7.1614,26.8069,6.9764,40.5644-.0487,3.6251-.7101,7.4938-3.2042,10.125-2.4424,2.5767-6.3242,3.4798-9.8148,2.8317s-6.6057-2.6785-9.117-5.1881c-7.4615-7.4563-9.7659-18.5927-10.5239-29.1139-.2089-2.8993-.32-5.8203-.3271-8.7495Z"/>
        <path class="cls-13" d="M238.7744,553.7975c-15.9524-3.6421-29.6484-.1411-37.6932,2.0103-21.9908,5.8806-35.064,17.2571-39.2012,21.1084-3.5342,3.2896-8.7262,8.7005-8.0414,9.549.9517,1.179,11.4025-8.7469,28.1445-16.5852,5.9154-2.7694,28.9475-13.5527,55.7863-12.062,4.7534.264,12.3944,1.0668,12.5643.1257.1674-.9272-6.9988-3.1049-11.5593-4.1463Z"/>
      </g>
      <path class="cls-9" d="M92.2987,506.7582c-.8111.0029-1.0228-1.1374-.2655-1.4281,4.3155-1.6566,12.55-2.7885,19.8402-2.5443,7.1459.2393,15.5241,1.4158,15.4962,2.2614-.0326.9887-11.5618,1.6657-21.6947,1.2565-5.0876-.2055-9.8258.4416-13.3761.4544Z"/>
    </g>
  </g>
</svg>