<svg xmlns="http://www.w3.org/2000/svg" xmlnsvectornator="http://vectornator.io" xmlspace="preserve" stroke-miterlimit="10" style="fill-rule:nonzero;clip-rule:evenodd;stroke-linecap:round;stroke-linejoin:round" viewBox="0 0 419.58 297.675"><clipPath id="a"><path d="M0 0h419.58v297.675H0z"/></clipPath><g vectornatorlayername="Layer 2" clip-path="url(#a)"><path fill="none" stroke="#924c27" stroke-width="19.1698" d="M201.193 83.2756c-35.26 0-63.844 28.5844-63.844 63.8434 0 35.26 28.584 63.844 63.844 63.844 35.259 0 63.843-28.584 63.843-63.844 0-35.259-28.584-63.8434-63.843-63.8434ZM165.42 94.1853l-59.618 49.1507M328.775 145.076 228.057 89.5517M181.056 208.075l-77.398-32.8M323.867 147.798l-98.511 56.698"/><path fill="none" stroke="#924c27" stroke-width="19.1698" d="M135.121 139.091c-3.791-.758-5.683 1.446-8.706 3.125-5.695 3.164-12.128 5.551-17.188 9.599-1.862 1.489-3.542 3.333-5.804 4.464-.279.14-4.0752 1.952-3.5717 2.456.4217.422 7.4467-1.406 8.0357-1.563 3.59-.957 7.436-1.288 10.938-2.455 2.644-.881 5.312-1.872 8.037-2.456 1.839-.394 3.536-1.107 5.357-1.562.228-.057.67.012.67-.223 0-.224-.451-.044-.67 0-1.675.335-3.051 1.518-4.688 2.009-3.908 1.172-7.677 2.983-11.607 4.018-2.292.603-4.489 1.601-6.697 2.232-1.012.289-2.116.64-3.125.893-.298.074-1.11.006-.893.223.587.587 4.063-1.169 4.687-1.339 4.993-1.362 10.28-1.643 15.403-2.009.309-.022 4.911-.329 4.911.446 0 1.533-3.553 2.56-4.465 2.902-3.565 1.337-6.865 3.108-10.491 4.241-1.351.422-2.681.671-4.018 1.116-.447.149-1.81.447-1.34.447 1.951 0 4.372-1.285 6.251-1.786 2.326-.62 4.75-.971 7.143-1.339.255-.039 4.389-.671 4.688-.223.555.832-1.357 1.522-2.233 2.009-2.32 1.289-4.865 1.924-7.143 3.348-.066.041-2.61 1.33-2.455 1.563.87 1.305 6.047-.578 6.92-.67 4.744-.5 10.916-1.476 15.402.446 5.69 2.439 9.443 6.195 14.064 10.045.176.147 3.478 2.667 3.125 2.902-1.301.867-5.888.717-7.367.224-.805-.269-2.455-.67-2.455-.67s.446.149.669.223c1.263.421.806.323 2.902.447 1.117.065 2.236.106 3.349.223 4.712.496 9.219 1.628 13.84 2.679 9.76 2.218 19.069 6.014 28.796 8.259 1.364.315 8.061 1.843 9.152 1.116.414-.276-4.157-.893-4.241-.893-1.78 0-3.582.094-5.358 0-7.139-.376-14.285-.582-21.429-.893-2.026-.088-3.996-.223-6.027-.223-.521 0-1.052-.102-1.563 0-.163.033-.585.131-.446.223 1.546 1.031 5.896.589 7.589.67 6.029.287 12.049.884 18.082 1.116 10.554.406 21.129 1.024 31.474-1.563 11.858-2.964 21.209-11.298 28.127-20.983 2.469-3.457 3.707-8.487 4.911-12.5 2.149-7.165-.4-15.249-2.456-22.1-.524-1.747-.649-3.632-1.339-5.357-.94-2.35-2.825-4.212-3.795-6.474-1.606-3.747-4.073-10.389-7.143-12.947-3.07-2.558-7.529-4.067-11.161-5.58-4.375-1.823-8.38-4.389-12.724-6.251-1.462-.626-2.61-2.1195-4.018-2.9017-6.653-3.696-13.264-5.9513-20.983-5.3574-3.66.2815-6.941 2.2715-10.046 4.018-7.805 4.3901-15.194 9.3091-21.206 16.0721-2.723 3.063-4.437 7.182-6.92 10.492-4.874 6.498-11.065 14.569-11.831 22.992-.551 6.059 2.426 13.408 6.25 18.081 2 2.444 5.072 3.782 7.59 5.581 1.414 1.01 2.595 2.352 4.018 3.348 1.632 1.143 3.823 1.742 5.581 2.679 22.405 11.95 49.704 19.581 70.985 1.339 1.476-1.264 3.318-2.201 4.688-3.571 3.919-3.919 7.671-13.712 8.036-19.198.237-3.551-1.424-6.197-2.902-9.152-1.513-3.026-2.426-6.501-4.241-9.375-2.781-4.403-7.206-7.458-11.161-10.715-2.96-2.438-5.74-4.994-8.706-7.367-1.153-.922-2.512-1.318-3.795-2.009-9.869-5.314-21.788-10.271-33.26-7.813-5.25 1.125-11.634 2.482-15.626 6.474-2.364 2.364-4.144 5.859-5.804 8.706-1.761 3.018-3.383 6.164-4.241 9.599-1.608 6.428-2.276 14.166 0 20.536 1.975 5.532 8.315 10.538 13.17 13.394 3.116 1.833 5.919 3.982 9.375 5.134 10.375 3.458 22.72 3.152 33.261.893 7.971-1.708 23.98-7.612 27.234-16.072.996-2.59.538-6.954 0-9.376-1.794-8.072-9.53-13.099-16.073-16.965-4.236-2.503-8.295-5.29-12.5-7.813-11.175-6.705-28.766-5.675-39.288 1.339-2.163 1.442-5.401 2.965-6.92 5.135-6.827 9.752-.901 23.063 9.822 27.233 10.052 3.91 21.95 1.981 32.144-.446 4.639-1.105 13.443-3.91 14.51-9.599 2.62-13.975-20.069-16.519-29.019-16.519-2.631 0-4.277-.002-6.697.67-5.943 1.651-12.781 4.767-11.161 12.054 2.775 12.489 23.709 7.991 31.921 5.134 3.633-1.263 7.543-2.835 9.152-6.696 2.452-5.885-4.553-6.897-8.259-7.144-5.258-.35-19.936 5.162-18.305 12.501.879 3.952 6.533 5.194 9.822 5.581 8.554 1.006 17.426.259 25.894 1.562 2.338.36 5.163.375 7.144 1.563.398.239 1.846 2.232 2.232 2.232.196 0-1.22-3.477-1.339-3.795-.127-.338-.52-3.795-.893-3.795-.706 0 .262 1.684.669 1.786 7.483 1.871 19.764-5.591 24.109-11.384 2.939-3.919 4.154-10.425 10.045-11.162 2.828-.353 4.697 2.242 6.473 4.019 4.441 4.44 10.041 6.981 15.403 10.045 2.618 1.496 5.829 1.656 8.706 2.232 1.663.333 3.822 1.688 5.357 2.455.235.118 3.125.938 3.125 1.34 0 .418-2.033.223-2.232.223-2.606 0-5.009.143-7.589.446-5.81.684-11.495 2.307-17.189 3.572-3.398.755-6.885.94-10.268 1.786-2.476.619-5.522.64-7.813 1.786-.149.074-.447.057-.447.223 0 .744 1.501.133 2.233 0 2.265-.412 4.509-1.057 6.696-1.786 2.101-.7 12.278-2.602 12.278-4.911 0-1.956-6.879-3.779-8.706-4.464-.833-.313-1.543-.823-2.232-1.34-.253-.189-.67-.985-.67-.669 0 .888.9 1.394 1.339 2.009 1.633 2.286 4.225 4.548 3.572 7.813-.599 2.993-3.465 4.613-4.911 7.143-.001.001-1.175 2.173-1.116 2.232.558.558 3.99-1.603 4.464-1.786 3.959-1.522 7.495-3.571 11.831-3.571.508 0 1.857-.278 2.233.223 1.163 1.551-6.388 3.734-7.144 4.018-5.812 2.18-11.841 3.495-17.858 4.911-2.065.486-4.134 1.786-6.25 1.786-.149 0 .3.024.447 0 .605-.101 1.203-.253 1.785-.447 1.48-.493 2.952-.926 4.465-1.339.913-.249 11.79-1.989 12.277-1.34 1.119 1.492-7.894 4.295-9.152 4.688-7.717 2.412-15.705 4.031-23.662 5.358-3.066.511-7.789 2.126-10.938 1.339-1.178-.295.05-1.116-1.786-1.116-2.945 0-5.856 1.507-8.929.893-.7-.14-1.28-.747-2.009-.893-4.701-.94-9.749-1.505-14.286-3.125-5.609-2.003-10.968-5.596-16.296-8.26-4.403-2.201-10.319-5.479-13.17-9.598-2.127-3.073-3.69-6.711-5.358-10.046-1.047-2.095-2.059-5.703-.892-8.036.556-1.112 2.733-2.792 3.571-1.116"/><path fill="#924c27" d="M164.656 101.906c-2.202-.363-4.542.128-6.5 1.532-1.821 1.631-4.087 2.385-6.218 3.531-1.291.694-2.485 1.547-3.75 2.281-.423.245-.882.407-1.282.688-1.654 1.163-3.104 2.735-4.625 4.062-1.907 1.664-3.848 3.294-5.875 4.812-2.849 2.135-5.876 4.158-9.218 5.438-2.694 1.032-5.52 1.589-8.344 2.125 3.53.619 7.12 1.247 10.718.937 2.705-.232 5.385-.647 8.032-1.25 4.524-1.03 8.925-2.52 13.468-3.468.579-.121 1.175-.21 1.75-.344.623-.145 1.237-.394 1.876-.438.332-.022.636.046.968.032 1.192-.052 2.432-.276 3.594-.532 3.269-.717 6.276-1.926 9.094-3.718 3.914-2.808 4.807-8.242 2-12.156-1.404-1.958-3.485-3.169-5.688-3.532ZM148.906 128.656c-3.076.591-5.97 1.523-8.812 2.844-.989.46-2.281 1.142-3.219 1.719-.606.373-1.151.831-1.813 1.093-.375.15-.777.204-1.156.344-1.816.675-3.599 1.634-5.312 2.532-3.458 1.811-6.775 3.909-10.25 5.687-5.591 2.86-11.765 4-17.594 6.25 5.096-.148 10.156.514 15.25.375 4.85-.133 9.605-1.202 14.438-1.531 1.179-.081 2.382-.101 3.562-.031.891.052 1.695.206 2.594.156.485-.027.954-.141 1.437-.188 1.843-.179 3.64-.243 5.469-.594 2.604-.498 5.093-1.248 7.75-1.374 4.774-.642 8.11-5.007 7.469-9.782-.641-4.774-5.038-8.141-9.813-7.5Z"/><path fill="#924c27" d="M117.344 144.656c-1.799.276-3.785.514-5.406 1.406-.343.189-.638.479-.969.688-.459.289-1.44.794-1.875 1.125-.872.663-1.676 1.493-2.5 2.219-3.247 2.859-6.205 6.034-9.094 9.25 3.768-.204 7.536-.379 11.281.218 1.19.19 2.249.646 3.375 1.032.594.203.916.175 1.5.406.254.1.466.272.719.375 1.001.408 2.191.533 3.25.719 4.817-.077 8.67-4.027 8.594-8.844-.077-4.817-4.059-8.67-8.875-8.594Z"/><path fill="#924c27" d="M134 144.25c-2.07-.033-4.095.078-6.094.656-1.893.548-3.746 1.403-5.406 2.469-.675.434-1.294.971-1.969 1.406-.676.436-1.444.697-2.125 1.125-1.04.656-1.991 1.513-3 2.219-2.186 1.531-4.395 3.045-6.5 4.687-1.501 1.173-2.886 2.501-4.375 3.688-1.333 1.063-2.765 1.984-4.156 2.969-2.0298 1.438-4.0496 2.913-6.0625 4.375 2.419-.539 4.856-1.115 7.2815-1.625 1.716-.361 3.449-.624 5.156-1.031 2.077-.496 4.08-1.257 6.188-1.626 1.708-.299 3.49-.574 5.218-.718 1.574-.131 3.181-.086 4.75-.25.772-.081 1.509-.331 2.282-.406.816-.08 1.655-.019 2.468-.126 1.309-.17 2.636-.757 3.969-.687.35.018.694.174 1.031.25 4.803.372 9.003-3.228 9.375-8.031.373-4.803-3.228-8.972-8.031-9.344ZM406.562 67c-.999 3.1607-3.608 3.6796-6.5 4.5312-1.027.3027-1.963.644-2.937 1.0938-3.904 1.8022-7.042 4.7926-10.594 7.1562-2.046 1.3623-4.322 2.1483-6.5 3.25-1.699.8601-3.06 2.1197-4.593 3.2188-1.889 1.354-3.942 2.5001-5.938 3.6875-5.595 3.3277-11.399 6.1966-17.281 8.9687-4.082 1.9238-8.18 3.9698-12.5 5.3128-4.717 1.465-9.802 1.606-14.688 2.031-5.209.453-10.417.941-15.625 1.406-3.513.314-7.032.546-10.531 1-2.613.34-5.187.805-7.813 1.063-7.011.689-14.152.962-21.187.531-2.43-.149-4.951-.274-7.344-.75-.27-.054-1.116-.329-1.625-.594-.758-4.695-5.121-7.939-9.844-7.25-4.766.696-8.07 5.14-7.374 9.906.274 1.656.666 3.252 1.374 4.782.721 1.555 1.699 2.972 2.876 4.218 6.125 6.488 15.903 6.3 24.124 6.157 2.248-.039 4.511-.142 6.75-.344 2.671-.241 5.331-.581 7.969-1.063 3.576-.652 7.073-1.647 10.625-2.406 1.266-.27 2.548-.477 3.813-.75 2.984-.643 5.91-1.431 8.875-2.156 3.392-.83 6.813-1.632 10.218-2.406 2.822-.642 5.636-1.26 8.469-1.844 4.974-1.025 9.992-2.077 14.625-4.219 4.167-1.926 8.063-4.384 11.969-6.781 6.279-3.853 12.404-7.8918 18.281-12.3438 1.398-1.0584 2.842-2.0889 4.156-3.25 1.13-.9972 2.098-2.169 3.344-3.0312 2.246-1.5539 4.716-2.625 6.844-4.375 3.245-2.6678 6.012-5.9104 9.656-8.0625.606-.3579 1.233-.7131 1.875-1 3.038-1.3559 6.263-1.9889 7.031-5.6875Z"/><path fill="#924c27" d="M389.812 80.1562c-3.607 1.8937-7.466 3.282-11 5.3126-2.121 1.2189-3.867 2.9374-5.937 4.2187-1.808 1.1188-3.855 1.7995-5.719 2.8125-1.287.6999-2.529 1.4479-3.812 2.1562-3.85 2.1257-7.787 4.0943-11.719 6.0628-1.67.836-3.342 1.702-5.031 2.5-1.225.578-2.536.869-3.844 1.187-1.446.352-2.872.733-4.281 1.219-3.21 1.108-6.361 2.505-9.407 4-1.109.544-2.229 1.03-3.312 1.625-2.842 1.562-5.664 3.251-8.375 5.031-2.179 1.432-4.158 2.931-6.5 4.125-2.443 1.245-4.935 2.32-7.437 3.438-1.958.874-3.929 1.749-5.938 2.5-2.286.854-4.626 1.507-6.906 2.375-1.842.701-3.563 1.627-5.219 2.687-3.99 2.699-5.043 8.135-2.344 12.125 2.699 3.99 8.135 5.043 12.125 2.344 2.333-1.712 5.13-2.42 7.75-3.594 4.549-2.036 9.08-4.45 13.188-7.281 1.795-1.237 3.398-2.689 5.031-4.125 1.801-1.583 3.702-3.031 5.437-4.687 2.91-2.778 5.727-5.577 9-7.938 2.508-1.809 5.128-3.548 7.876-4.969 2.329-1.205 4.817-2.007 7-3.5 6.456-4.416 12.588-9.302 18.812-14.031 1.734-1.3175 3.709-2.3024 5.375-3.7188 1.852-1.5746 3.309-3.5137 5.219-5.0312 3.157-2.5083 6.719-4.4576 9.968-6.8438Z"/><path fill="#924c27" d="M330.438 111.625c-4.72 1.91-9.301 1.996-14.313 2.063-3.222.042-6.437.214-9.656.343-1.168.047-2.341-.023-3.5.125-.566.073-1.124.287-1.688.375-1.157.182-2.324.219-3.469.469-.345.055-.686-.005-1.031.094-.563.202-1.104.393-1.656.625-.046.019-.243.116-.375.187-.072.025-.147.038-.219.063-.513.178-1.026.362-1.531.562-.173.069-.371.116-.5.25-1.289 1.349-2.507 2.796-3.75 4.188-.177.198-.189.49-.25.75-.15.64-.351 1.28-.375 1.937-.031.831-.009 1.662.187 2.469.214.877.575 1.722 1.032 2.5.41.699.98 1.311 1.562 1.875.794.768 1.766 1.322 2.782 1.719 3.012 1.175 4.963.076 7.906-.375 2.488-.712 4.331-2.465 5.375-4.625.219-.114.422-.235.625-.375.868-.599 1.65-1.345 2.5-1.969 1.639-1.204 3.365-2.292 5.125-3.313 3.952-2.292 8.244-4.073 11.906-6.843 1.229-.93 2.269-1.966 3.313-3.094Zm-29.626 19.906c-.03.033-.063.062-.093.094-.059.064-.321.175-.25.125.11-.078.232-.143.343-.219ZM414.812 107.625c-6.985.864-12.992 4.494-19.468 6.969-4.943 1.888-10.155 2.779-15.219 4.25-4.716 1.37-9.138 3.614-13.875 4.906-5.765 1.572-11.855 1.841-17.75 2.688-3.581.514-7.199.963-10.75 1.656-1.547.302-3.07.734-4.625 1-1.532.262-3.086.413-4.625.625-2.604.358-5.177.797-7.781 1.156-5.832.805-11.698 1.074-17.5 2.125-4.715.988-7.738 5.629-6.75 10.344.988 4.715 5.597 7.738 10.312 6.75 5.994-1.455 12.167-2.049 18.157-3.532 2.418-.598 4.834-1.303 7.187-2.124 1.546-.54 3.051-1.141 4.594-1.688 1.51-.536 3.048-.947 4.562-1.469 3.351-1.154 6.607-2.599 9.938-3.812 5.92-2.156 12.105-3.601 17.843-6.25 4.512-2.083 8.552-5.014 13.032-7.157 4.827-2.309 9.924-4.01 14.594-6.656 6.008-3.404 11.375-7.888 18.124-9.781Z"/><path fill="#924c27" d="M404.531 110.719c-2.5 1.626-5.043 3.174-7.75 4.437-.984.459-2.007.889-3.031 1.25-.521.184-1.423.447-1.938.688-.843.394-1.429 1.137-2.25 1.562-1.018.529-2.073 1.007-3.093 1.532-2.177 1.118-4.291 2.352-6.469 3.468-2.503 1.283-5.118 2.34-7.719 3.406-2.697 1.106-5.377 2.192-8.093 3.25-2.306.898-4.656 1.651-7 2.438-3.865 1.297-7.779 2.53-11.688 3.688-2.762.817-5.568 1.497-8.281 2.468-2.596.929-5.271 1.604-7.844 2.594-1.365.525-2.422 1.02-3.75 1.625-4.283 1.953-8.778 4.568-13.656 4-4.806-.325-8.988 3.319-9.313 8.125-.324 4.806 3.319 8.957 8.125 9.281 1.84.072 3.644.048 5.469-.219 4.823-.704 9.247-2.745 13.438-5.156 3.391-1.951 6.522-4.37 9.968-6.218 1.38-.741 2.86-1.312 4.25-2.032 1.528-.79 2.981-1.701 4.469-2.562 2.084-1.207 4.182-2.414 6.281-3.594 8.314-4.674 16.507-9.44 24.438-14.75 2.48-1.661 4.806-3.539 7.156-5.375 1.588-1.24 3.243-2.373 4.844-3.594.427-.326.842-.712 1.187-1.125.214-.255.374-.528.657-.718.402-.271 1.282-.7 1.656-.907 1-.555 1.995-1.163 2.937-1.812 2.495-1.719 4.773-3.703 7-5.75Z"/><path fill="#924c27" d="M277.75 149.031c-2.55-.054-5.099-.026-7.656.125-4.802.389-8.389 4.605-8 9.406.389 4.802 4.605 8.358 9.406 7.969 5.299-.562 10.619-.54 15.938-.281 4.761.232 9.517.699 14.281.875 1.944.072 3.899.056 5.843.125 2.91.103 5.782.497 8.688.656 5.812.318 11.622.703 17.406 1.375 14.856 1.726 29.557 4.559 44.032 8.313 2.489.645 4.946 1.378 7.281 2.468 1.548.724 2.886 1.753 4.531 2.282 4.487 1.441 9.168 2.257 13.719 3.468 2.866.764 5.595 2 8.437 2.844-2.742-1.186-5.318-2.734-8.094-3.844-4.329-1.73-8.814-3.1-13.062-5.031-1.447-.658-2.6-1.79-3.938-2.625-2.084-1.301-4.287-2.331-6.562-3.25-15.4-6.222-31.256-11.334-47.312-15.562-4.849-1.277-9.7-2.567-14.594-3.656-2.958-.659-5.963-.998-8.938-1.563-2.862-.544-5.689-1.168-8.562-1.656-7.556-1.285-15.193-2.274-22.844-2.438Z"/><path fill="#924c27" d="M282 167.656c-4.558.05-9.114.424-13.656.782-6.23.489-12.456 1.037-18.688 1.5-4.794.465-8.309 4.736-7.844 9.531.466 4.794 4.737 8.277 9.532 7.812 8.051-.965 16.072-2.032 24.094-3.219 2.612-.386 5.237-.758 7.843-1.187 2.075-.342 4.128-.76 6.219-1 2.655-.304 5.339-.342 8-.594 6.05-.571 12.102-1.038 18.156-1.562 4.247-.368 8.47-.918 12.719-1.25 6.594-.516 13.233-.602 19.844-.657 4.426-.036 8.855-.162 13.281-.031 5.109.151 10.233.626 15.312 1.188 6.646.734 13.285 1.867 19.594 4.125-6.968-3.47-14.515-5.512-22.094-7.156-3.893-.845-7.812-1.634-11.75-2.25-5.158-.808-10.378-1.324-15.562-1.938-6.21-.736-12.415-1.385-18.656-1.781-4.28-.272-8.594-.317-12.875-.563-6.056-.348-12.075-1.023-18.125-1.437-2.259-.155-4.489-.141-6.75-.157-2.864-.019-5.73-.187-8.594-.156Z"/><path fill="#924c27" d="M279.312 159.281c-3.359.025-6.681.288-10 1-4.69 1.099-7.629 5.81-6.531 10.5 1.099 4.691 5.81 7.599 10.5 6.5 3.805-.994 7.744-1.044 11.657-.969 2.887.056 5.771.178 8.656.313 4.414.207 8.803.558 13.218.75 2.596.113 5.187.152 7.782.281 1.971.098 3.934.295 5.906.375 5.369.22 10.843-.069 16.188-.593 2.302-.226 4.598-.521 6.906-.688 3.561-.258 7.149-.315 10.718-.219 4.777.907 9.557 1.877 14.407 2.344 1.906.183 3.752.095 5.656.094.094 0 .158.075.25.093.176.037.384.101.563.126.331.045.766.07 1.093.031 3.224-.391 4.665-4.324 1.75-6.281-.852-.573-1.794-.774-2.812-1.032-.838-.212-1.593-.386-2.407-.562-3.361-.729-6.671-1.614-10.031-2.344-3.786-.823-7.59-1.498-11.437-1.969-5.594-.685-11.201-.686-16.813-1.062-4.328-.29-8.579-1.004-12.875-1.563-1.868-.243-3.731-.42-5.594-.718-3.806-.61-7.565-1.465-11.374-2.063-5.069-.796-10.175-1.363-15.282-1.844-3.359-.316-6.734-.525-10.094-.5ZM133.594 161.656c-3.518.567-6.994 1.511-10.188 3.125-.953.482-1.798 1.146-2.718 1.688-.854.501-1.783.855-2.626 1.375-1.3.802-2.537 1.687-3.874 2.437-3.568 2.001-7.269 3.731-10.876 5.657-4.4413 2.371-8.7032 5.047-13.187 7.343 4.9587-.501 9.8501-1.534 14.813-1.969 4.021-.352 8.06-.518 12.093-.656 1.67-.057 3.367-.004 5.031-.156 1.035-.094 2.061-.392 3.094-.5 1.008-.105 2.026-.094 3.032-.219 2.385-.297 4.717-.731 7.124-.75 4.795-.469 8.282-4.737 7.813-9.531-.469-4.794-4.737-8.313-9.531-7.844Z"/><path fill="#924c27" d="M110.188 155.844c-1.807.16-3.638.356-5.282 1.187-.814.412-1.34 1.035-2.062 1.563-.2.146-.467.216-.656.375-.729.611-1.241 1.623-1.719 2.406-1.0639 1.742-1.8848 3.612-2.9065 5.375-.8275 1.428-1.8039 2.744-2.75 4.094 2.1406.035 4.2677.008 6.4065-.094 1.783-.085 3.761-.278 5.469.406.134.054.225.167.343.25.306.214.594.221.844.5.428.48.668 1.094 1.281 1.344 4.809.292 8.927-3.379 9.219-8.188.292-4.808-3.379-8.927-8.187-9.218Z"/><path fill="#924c27" d="M150.656 137.406c-1.116-.193-2.264-.148-3.437.125-3.772 1.115-7.534 2.465-10.969 4.407-.991.56-1.857 1.264-2.812 1.874-.603.385-1.285.649-1.907 1-.931.526-1.777 1.238-2.656 1.844-1.718 1.184-3.439 2.307-5.25 3.344-4.358 2.495-8.957 4.617-13.5 6.75-3.736 1.754-7.442 3.532-11.25 5.125 4.696-.325 9.351-.907 14.031-1.406 7.549-.806 15.092-1.579 22.594-2.75 1.09-.17 2.076-.579 3.156-.781 1.039-.196 2.117-.26 3.156-.469 3.131-.631 6.187-1.462 9.344-1.969 4.692-1.093 7.625-5.777 6.532-10.469-.82-3.518-3.682-6.045-7.032-6.625Z"/><path fill="#924c27" d="M148.75 128.844c-3.009-.012-6.108.082-9.031.875-.871.236-1.664.661-2.531.906-.408.115-.841.111-1.25.219-.794.209-1.568.575-2.344.844-.993.343-2.006.647-3.032.874-7.2 1.601-14.695 1.599-22.031 1.938 5.744 2.328 11.478 4.75 17.313 6.844 3 1.076 6.035 2.14 9.125 2.937.942.243 1.913.284 2.875.438.921.147 1.83.439 2.75.593 2.254.379 4.525.504 6.781.907 4.802.378 8.996-3.198 9.375-8 .379-4.803-3.198-8.997-8-9.375Z"/><path fill="#924c27" d="M140.594 128.469c-1.731.049-3.436.254-5.094.75-.594.177-1.168.474-1.75.687-1.072.392-2.17.675-3.219 1.125-1.914.822-3.707 1.844-5.687 2.531-6.267 2.176-12.97 3.141-19.438 4.532 6.631 1.556 13.225 3.423 19.906 4.75 1.749.347 3.495.565 5.25.875.566.099 1.151.233 1.719.312 1.035.145 2.065.162 3.094.344.483.086.956.218 1.437.313.855.168 1.734.239 2.594.374.99.157 1.987.474 2.938.782 4.722.95 9.299-2.09 10.25-6.813.95-4.722-2.09-9.331-6.813-10.281-1.697-.216-3.457-.331-5.187-.281Z"/><path fill="#924c27" d="M117.969 135.375c-.89-.09-1.799.056-2.688.156-1.166.132-2.18.408-3.281.781-4.073 1.382-7.629 3.867-11.344 5.969 3.068.693 6.253 1.071 9.188 2.25.913.367 1.961.813 2.687 1.5.929.879.768 2.269 1.188 3.375.268.706 1.052 1.34 1.593 1.813.944.824 1.986 1.463 3.063 2.093 1.099.494 2.242.726 3.375.75 3.398.075 6.676-1.86 8.156-5.156.494-1.098.757-2.242.782-3.375.074-3.398-1.861-6.676-5.157-8.156-.32-.047-.657.013-.969-.063-.689-.166-1.292-.556-1.968-.75-.685-.196-1.372-.323-2.063-.5-.858-.219-1.681-.598-2.562-.687Z"/><path fill="#924c27" d="M10.9062 77.4688c-.5803-.2636-1.3591.079-1.93745.1562.54386-.0147 1.32815-.2928 1.84375 0 .6373.3619.3777 1.368.5625 1.9688.1338.4351.492.9139.6875 1.25.2015.3465.3569.7078.5937 1.0312.9113 1.2444 2.1689 2.3206 3.3126 3.3438 1.5894 1.4219 3.4707 2.4281 5 3.9374 2.2478 2.2187 3.9469 4.8916 6.2812 7.0313 4.2047 3.8545 8.8907 7.1635 13.6562 10.2815 4.9685 3.25 10.3924 5.948 15 9.719 4.4304 3.625 8.088 8.091 13.3126 10.656 1.2086.593 2.4699 1.081 3.6874 1.656 2.8223 1.332 5.5894 2.809 8.5313 3.875.9612.348 1.935.643 2.9375.844 1.0467.21 2.1251.276 3.1562.562 1.6493.458 3.2637 1.147 4.875 1.719 2.241.796 4.5012 1.471 6.875 1.719 1.7188.179 3.5528.355 5.2808.343 3.032-.019 6.023-.506 9.032-.812 3.524-.359 7.061-.695 10.594-.969 2.186-.169 4.374-.163 6.562-.281 2.548-.137 5.102-.406 7.625-.781 6.875-1.023 13.466-3.031 19.875-5.688 3.309-1.451 5.263-4.695 5.219-8.093-.015-1.133-.267-2.273-.75-3.376-1.935-4.411-7.057-6.434-11.469-4.5-5.677 2.629-11.578 4.629-17.75 5.719-3.753.663-7.559.845-11.312 1.5-3.27.571-6.472 1.453-9.688 2.25-2.216.55-4.434.891-6.688 1.219-.679.099-1.32.275-2 .375-1.037.152-2.113.171-3.156.281-.648.069-.8898.152-1.4998.156-3.2808.022-6.4765-1.251-9.7187-1.624-1.5344-.177-3.101-.057-4.625-.313-2.9467-.495-5.7647-1.71-8.5937-2.625-1.3935-.451-2.819-.757-4.1876-1.281-2.9608-1.135-5.5107-3.162-8.0312-5.031-1.8419-1.366-3.6785-2.71-5.6562-3.876-5.2541-3.096-11.0304-5.222-16.4376-8.031-4.6491-2.4149-9.4201-4.9955-13.5-8.3122-2.1849-1.7763-4.0157-3.9628-6.2187-5.7188-1.7177-1.3692-3.7034-2.1958-5.4687-3.4688-1.1973-.8633-2.5328-1.7459-3.5313-2.8437-.2532-.2784-.4342-.6024-.6563-.9063-.2539-.3475-.5891-.6632-.75-1.0624-.269-.6678-.1005-1.6483-.875-2ZM311.562 159.531c-3.235.119-6.408.562-9.562 1.281-4.667 1.195-7.476 5.959-6.281 10.626 1.194 4.666 5.958 7.475 10.625 6.281 7.252-2.12 14.656-1.259 22.094-1.219 1.851.01 3.68-.131 5.531-.125 2.125.007 4.25.281 6.375.313 9.899.148 19.788.495 29.687.25 5.603-.139 11.139-1.264 16.5-2.844 4.153-1.224 8.199-2.721 12.313-4.063 3.896-1.271 7.875-2.209 11.844-3.219 2.979-.757 5.958-1.566 8.906-2.437-3.036.422-6.076.788-9.125 1.094-4.135.414-8.273.749-12.375 1.437-9.164 1.537-18.316 3.617-27.656 2.313-5.84-.816-11.62-1.945-17.376-3.219-3.735-.827-7.419-1.81-11.156-2.625-2.721-.594-5.517-.863-8.25-1.406-7.245-1.44-14.677-2.71-22.094-2.438Z"/><path fill="#924c27" d="M403.781 126.781c-3.324-.036-6.626.051-9.937.407-3.958.425-7.822 1.411-11.719 2.187-3.52.701-7.06 1.159-10.625 1.563-5.901.668-11.827 1.138-17.75 1.562-4.254.304-8.541.479-12.781.938-2.093.226-4.146.686-6.219 1.031-2.917.484-5.831.815-8.719 1.469-3.613.817-7.112 2.027-10.687 2.968-2.427.639-4.883 1.056-7.282 1.813-2.948.93-5.637 2.239-8.062 4.156-3.708 3.075-4.231 8.573-1.156 12.281s8.573 4.231 12.281 1.156c1.445-1.344 3.503-1.791 5.344-2.343 1.74-.522 3.489-1.039 5.187-1.688 3.637-1.389 7.266-2.745 10.906-4.125 1.444-.547 2.888-1.175 4.344-1.687 2.198-.773 4.462-1.227 6.688-1.907 10.13-3.092 20.472-5.44 30.656-8.343 3.213-.916 6.392-1.849 9.531-3 3.588-1.315 7.102-2.864 10.813-3.813 6.294-1.609 12.782-2.116 19.218-2.844 3.449-.389 6.832-1.185 10.282-1.531-3.448-.148-6.892.136-10.344.031-3.319-.1-6.645-.244-9.969-.281ZM376.656 68.0938c-3.769 4.1683-7.246 8.6735-11.406 12.4687-3.933 3.5877-8.609 6.1233-13.031 9.0313-1.332.8756-2.627 1.7804-3.844 2.8124-1.274 1.0802-2.417 2.3482-3.813 3.2813-1.736 1.1613-3.974 1.4758-5.874 2.3125-1.102.485-2.149 1.0812-3.219 1.625-2.233 1.134-4.499 2.24-6.844 3.125-1.27.479-2.58.792-3.844 1.281-.723.281-1.354.645-2.093.875-1.493.465-3.097.677-4.626 1-1.622.343-3.236.744-4.843 1.156-5.332 1.368-10.558 2.981-15.594 5.219-4.334 2.102-6.165 7.322-4.063 11.657 1.577 3.25 4.918 5.081 8.313 4.906 1.132-.059 2.26-.35 3.344-.875 5.745-3.073 12.032-4.851 17.906-7.625 1.213-.573 2.334-1.305 3.531-1.906 2.149-1.08 4.344-2.052 6.344-3.407 2.927-1.982 5.619-4.344 8.312-6.625.661-.559 1.38-1.233 2.094-1.781 1.959-1.504 4.208-2.472 6.032-4.187 1.574-1.482 2.714-3.3368 4.031-5.0318.818-1.0536 1.774-1.9981 2.719-2.9374 3.886-3.8665 8.088-7.3835 11.406-11.7813 3.447-4.5687 6.08-9.7233 9.062-14.5937ZM17.5625 84.1875c.2389 1.0244.5617 2.0273 1.4063 2.7187 1.0805.8847 2.4927.9182 3.2187 2.25.5804 1.0647.3364 2.2837.4687 3.4376.1111.9678.5142 1.8259 1.0626 2.625 1.421 2.0707 3.5501 3.3622 5.3124 5.0932 1.3607 1.337 2.4043 2.992 3.7813 4.313 1.1474 1.101 2.5319 1.884 3.8125 2.813 1.3401.971 2.5502 2.118 3.8125 3.187 7.4665 6.321 15.4153 12.247 24.0937 16.813 5.5539 2.921 11.3799 5.277 16.8438 8.374 2.3692 1.344 4.6551 2.857 7.0312 4.188 2.7135 1.52 5.5002 2.863 8.1876 4.438 4.4162 2.587 8.9032 5.472 13.8442 6.937 2.857.847 5.837 1.208 8.812 1.25 3.361.048 6.714-.434 10.062 0 4.796.458 9.074-3.048 9.532-7.844.458-4.795-3.08-9.073-7.875-9.531-2.273-.166-4.51-.116-6.781.062-3.008.237-5.992.676-9 .313-1.064-.128-2.097-.536-3.094-.906-1.821-.676-3.602-1.504-5.406-2.219-2.263-.896-4.565-1.591-6.8442-2.438-1.4381-.534-2.8359-1.191-4.25-1.781-1.4134-.589-2.8695-1.115-4.3126-1.625-3.0752-1.086-6.1266-2.213-9.25-3.156-5.9258-1.79-11.9538-3.282-17.7187-5.562-8.0641-3.191-15.767-7.588-23-12.344-.8419-.554-1.6762-1.113-2.5625-1.594-1.2294-.667-2.5539-1.17-3.6875-2-1.5242-1.117-2.7693-2.5806-4.2813-3.7188-1.8711-1.4086-4.0611-2.3946-5.6562-4.1562-.3926-.4336-.7809-.9374-.9688-1.5-.4961-1.4856-.321-3.019-1.4374-4.2812-1.0566-1.1946-2.3172-.9948-3.5313-1.75-.8753-.5446-1.2755-1.4787-1.625-2.4063Z"/><path fill="#924c27" d="M4.375 70.5c1.03884 1.0127 1.99753 1.9801 2.71875 3.25C7.79173 74.9789 8.36647 76.2684 9 77.5312c.22308.4447.43789.9316.71875 1.3438.43215.6343 1.02345 1.0887 1.53125 1.6562.3152.3523.5406.8041.8125 1.1876.4042.5701.9088 1.0559 1.3125 1.625.3586.5055.5378 1.0756.8125 1.625.4512.9021 1.0739 1.7242 1.75 2.4687 2.0695 2.2789 4.5407 4.0878 6.7187 6.25.6057.6013 1.1319 1.2873 1.7188 1.9063 1.2523 1.3207 2.6445 2.5298 4.1875 3.5.097.0609.2124.0971.3125.1562.1833.2103.2791.4566.4688.6562.7509.7908 1.5974 1.6268 2.5 2.3128.0637.118.1281.24.1874.343.3677.641.7838 1.264 1.2813 1.813 1.3585 1.498 2.9943 2.725 4.625 3.906 1.9556 1.416 3.96 2.839 6.0625 4.031 1.3023.739 2.7817 1.175 4.0312 2 1.2738.842 2.298 2.201 3.4376 3.25 2.6248 2.418 5.9598 3.795 8.9687 5.657 1.1251.696 2.2799 1.416 3.4375 2.062 1.2168.679 2.451 1.297 3.6562 2 2.4124 1.407 4.7457 2.94 7.25 4.188 3.0545 1.522 6.2731 2.621 9.375 4.031 4.4212 2.01 8.1536 5.397 12.8438 6.844 4.633 1.32 9.461-1.368 10.781-6 1.311-4.6-1.334-9.359-5.906-10.719.046.025-.107-.013-.156-.031-.057-.021-.292-.133-.344-.156-.216-.098-.443-.18-.656-.282-.386-.184-1.0338-.521-1.4065-.718-.5334-.283-1.0632-.557-1.5937-.844-.4909-.266-.9783-.546-1.4688-.813-3.2618-1.772-6.6851-2.992-10.2188-4.093-3.8059-1.187-7.6284-2.35-11.375-3.719-2.3078-.844-4.4675-1.986-6.7812-2.813-1.9247-.687-3.8904-1.306-5.8438-1.906-.9063-.278-2.0326-.514-2.9374-.906-.9154-.397-1.7125-1.006-2.5313-1.563-1.2238-.832-2.465-1.629-3.8125-2.25-1.3497-.622-2.7983-.884-4.2188-1.281-1.0312-.288-2.0156-.741-3-1.156-1.4298-.603-2.8519-1.232-4.2187-1.969-.5161-.278-1.0305-.57-1.5313-.875-.4527-.2758-.8629-.6204-1.3437-.8438-.3292-.1529-.6299-.5985-.8437-.875-.6722-.869-1.1291-1.7101-2.3126-2.0312-.0905-.0246-.1605.0488-.25.0312-.1495-.1008-.29-.2086-.4374-.3124-.641-.4516-1.2413-.9475-1.875-1.4063-.0297-.0215.0158.0605.0312.0937-.7504-.7069-1.6253-1.2124-2.625-1.125-.0622-.0331-.1257-.06-.1875-.0937-1.8239-.9955-3.2836-2.4385-4.9687-3.625-2.3083-1.6252-4.7785-2.9891-6.9688-4.7813-.576-.4712-1.1346-1.0119-1.5625-1.625-.4342-.622-.7805-1.2592-1.3125-1.8124-.4777-.4968-1.0561-.8763-1.5312-1.375-.3874-.4066-.6951-.8608-1.125-1.2188-.5238-.4361-1.1288-.779-1.5938-1.2812-.4289-.4634-.7661-1.0478-1.125-1.5626-.70296-1.0083-1.39957-2.0307-2.15625-3C6.6706 72.2238 5.57594 71.381 4.375 70.5Zm27.1875 23.9375c.0409.0041.0842-.0049.125 0 .0473.0057.1357.0161.125.0625-.0034.0146-.1472-.0281-.25-.0625Zm3.9375 2.375c.029.004.256.1326.2812.1563.0547.0511-.1541-.0559-.2187-.0938-.0264-.0155-.0364-.0466-.0625-.0625Zm-4.5312 3.0937c.0418.0034.083-.0015.125 0-.0053.2068-.03.4188-.0313.6248-.0292-.165-.065-.335-.0937-.5-.007-.0395-.0018-.0843 0-.1248Z"/><path fill="#924c27" d="M119.125 124.375c-2.411-.142-4.727.164-7.031.906-1.918.618-3.677 1.579-5.594 2.188-2.524.801-5.145 1.329-7.7188 1.937-1.2571.297-2.497.655-3.75.969-1.9532.49-3.918.722-5.875 1.187-1.3311.317-2.6513.725-3.9687 1.094-3.3829.95-6.7615 1.947-10.0625 3.156-6.9895 2.561-13.6058 6.013-20.6875 8.344-4.5903 1.512-9.3736 2.438-14.0937 3.438-4.08.864-8.1266 1.801-12.1563 2.875 3.0097-.217 6.0143-.387 9.0313-.469 6.1012-.166 12.2385-.121 18.3124-.812 7.4076-.844 14.6088-2.891 22-3.813 4.4412-.554 8.822-.419 13.2813-.469 1.3058-.014 2.6011-.143 3.9063-.187 2.0099-.068 4.0203.095 6.0312.031 3.657-.116 7.372-.559 10.938-1.406 1.287-.306 2.53-.73 3.781-1.156.67-.229 1.43-.561 2.156-.563.066 0-.25.072-.187.094.057.02.127.02.187.031 4.799.418 9.02-3.138 9.437-7.938.418-4.799-3.138-9.019-7.937-9.437ZM125.531 148.906c-1.371.263-2.736.56-4.125.719-.563.065-1.158.008-1.718.094-.639.098-1.251.304-1.876.469-2.657.698-5.279 1.538-7.906 2.343-2.415.741-4.895 1.461-7.406 1.781 3.375 2.288 7.278 3.649 10.75 5.782.469.288 1.342.856 1.781 1.187.652.492 1.189 1.13 1.813 1.657.337.284.741.485 1.094.75.416.312.786.708 1.218 1 .384.258 1.265.571 1.688.718 1.378.479 2.777.735 4.218.938 4.816.131 8.838-3.685 8.969-8.5.132-4.816-3.684-8.807-8.5-8.938Z"/><path fill="#924c27" d="M122.719 131.875c-1.113-.215-2.291-.219-3.469.031-2.615.661-5.114 1.521-7.562 2.656-2.762 1.281-5.463 2.689-8.282 3.844-1.028.422-2.053.852-3.125 1.156-1.0935.312-2.2077.419-3.3122.688-2.7522.67-5.5075 1.275-8.3126 1.688-4.7511.698-9.5801 1.031-14.2812 2.031-3.3681.716-6.4686 2.201-9.5625 3.656-1.5141.712-3.0667 1.535-4.7187 1.875-2.563.528-5.2573.321-7.8438.125-2.4371-.185-4.8675-.446-7.3125-.5 5.0774 1.269 10.1242 3.726 15.4375 3.844 2.0078.044 3.9853-.465 5.9375-.875 3.2589-.685 6.4957-1.369 9.8437-1.094 4.6275.379 9.2465 1.114 13.8438 1.75 2.6696.37 5.3685.77 8.0625.906 1.4221.072 2.7995-.104 4.2185-.156 1.478-.054 2.965-.031 4.438-.188 5.628-.597 10.608-3.489 16.156-4.343 4.712-1.001 7.719-5.632 6.719-10.344-.751-3.534-3.538-6.105-6.875-6.75Z"/><path fill="#924c27" d="M118.75 135.969c-2.228.135-4.403 1.103-6 2.906-.666 1.018-1.368 2.023-2 3.063-.367.603-.578 1.311-.906 1.937-.161.307-.42.543-.594.844-.381.658-.628 1.383-.969 2.062-.652 1.302-1.421 2.656-2.312 3.813-1.182 1.535-2.746 2.748-4.094 4.125-1.533 1.566-2.7523 3.395-4 5.187 1.9362-.655 3.876-1.38 5.906-1.687 1.691-.256 3.405-.26 5.094-.531 1.702-.274 3.362-.768 5.031-1.188 1.301-.327 2.688-.531 3.938-1.031.411-.165.778-.424 1.187-.594.439-.182.908-.282 1.344-.469 2.046-.875 3.808-2.467 5.437-3.937 3.195-3.606 2.856-9.119-.75-12.313-1.802-1.597-4.084-2.322-6.312-2.187ZM72.7812 170.375c-2.1974-.393-4.5551.061-6.5312 1.437-2.03 1.601-4.3499 2.791-6.375 4.407-2.0944 1.671-4.118 3.44-6.0938 5.25-.9635.882-1.8262 1.861-2.7812 2.75-.9711.904-2.0758 1.645-3.0625 2.531-1.9436 1.746-3.7799 3.565-5.7813 5.25-3.8022 3.201-7.9952 5.906-11.7812 9.125-1.703 1.448-3.3316 2.979-4.9688 4.5-.8774.815-1.7279 1.715-2.6874 2.437-1.9197 1.445-4.1962 2.343-6.1876 3.688-2.315 1.564-4.5307 3.345-7.1562 4.375-1.01458.398-2.02191.609-3.09375.781 4.26135.299 7.62775-1.299 11.49995-2.781 2.3129-.885 4.79-1.259 7.0626-2.25 1.2646-.551 2.4481-1.276 3.6562-1.937 1.8872-1.033 3.7871-2.084 5.7188-3.032 2.7365-1.342 5.5743-2.356 8.4062-3.468 3.9024-1.534 7.7689-3.19 11.5938-4.907 1.6869-.757 3.165-1.802 4.8124-2.625 1.6655-.831 3.3272-1.621 4.9376-2.562 1.9343-1.131 3.7804-2.39 5.6874-3.563 2.1385-1.314 4.4438-2.295 6.5626-3.656 3.9522-2.754 4.9415-8.204 2.1874-12.156-1.377-1.976-3.4275-3.201-5.625-3.594Z"/><path fill="#924c27" d="M140.094 156.906c-1.126-.127-2.314-.029-3.469.313-2.334.746-4.552 1.666-6.719 2.812-2.147 1.137-4.237 2.412-6.5 3.313-1.232.49-2.485.918-3.718 1.406-1.632.646-3.229 1.36-4.876 1.969-2.206.816-4.484 1.518-6.687 2.343-2.75 1.031-5.382 2.253-8.094 3.376-.7584.314-1.5587.58-2.3122.906-2.6317 1.139-5.1268 2.558-7.6876 3.844-4.7031 2.361-9.4421 4.634-14.2187 6.843-4.466 2.066-8.8771 4.228-13.5313 5.844-2.2416.778-4.6313.961-6.8437 1.875-4.4762 1.85-8.3516 4.926-12.5937 7.219-1.6439.888-3.5331 1.115-5.3126 1.593-1.074.29-2.1265.667-3.125 1.157-3.4094 1.673-6.3333 4.6-9.4374 6.75-2.9255 2.026-6.0878 3.694-9.0938 5.593-1.5296.967-3.0015 2.005-4.4688 3.063 1.5809-.861 3.1814-1.674 4.8126-2.437 3.2493-1.522 6.5964-2.842 9.7812-4.5 2.2554-1.175 4.4002-2.554 6.625-3.782 1.0065-.555 2.0344-1.155 3.125-1.531 2.6132-.901 5.4507-.615 8.0938-1.406 4.742-1.419 8.947-4.335 13.75-5.594 1.4746-.386 3.0221-.351 4.5312-.5 1.5561-.153 3.1019-.466 4.625-.813 5.3815-1.225 10.6409-2.956 15.9375-4.5 5.8809-1.713 11.7838-3.415 17.6565-5.156 2.268-.672 4.467-1.568 6.75-2.187 2.159-.586 4.371-.935 6.562-1.375 3.04-.61 6.085-1.28 9.032-2.25 3.126-1.03 6.371-1.877 9.406-3.156 3.175-1.339 6.148-3.126 9.5-4 4.619-1.366 7.241-6.225 5.875-10.844-1.025-3.465-3.998-5.806-7.375-6.188Z"/><path fill="#924c27" d="M121.125 146.594c-1.131-.07-2.302.1-3.437.5-2.543.97-4.89 2.245-7.032 3.937-2.491 1.969-4.579 4.384-6.968 6.469-1.856 1.62-3.7436 3.161-5.6255 4.75-1.477 1.247-2.9151 2.583-4.4063 3.812-1.0095.833-2.1142 1.522-3.1562 2.313-2.4824 1.885-4.6606 4.101-7.1875 5.937-3.448 2.507-7.1325 4.696-10.5 7.313-2.0342 1.581-3.7589 3.537-6 4.844-1.7383 1.013-3.7146 1.651-5.5937 2.343-2.1859.806-4.381 1.613-6.4376 2.719-1.8682 1.005-3.4979 2.336-5.2187 3.563-1.5857 1.13-3.2432 2.195-4.9375 3.156-2.4636 1.397-5.1374 2.42-7.6562 3.719-3.4519 1.779-6.6845 3.902-9.9063 6.062 3.4849-1.597 6.9757-3.154 10.625-4.343 2.7429-.894 5.5763-1.5 8.2813-2.5 1.9472-.721 3.8571-1.551 5.7187-2.469 1.7074-.842 3.4001-1.815 5.2187-2.407 4.2332-1.376 8.777-1.44 12.9688-2.968 2.8416-1.036 5.2276-2.821 7.9062-4.156 4.5733-2.281 9.414-3.909 14.0313-6.094 2.1521-1.019 4.327-2.097 6.375-3.313 1.1294-.67 2.2225-1.401 3.3745-2.031 1.175-.643 2.385-1.207 3.563-1.844 2.421-1.309 4.769-2.777 7.031-4.344 1.875-1.298 3.687-2.695 5.438-4.156 1.854-1.547 3.531-3.167 5.875-3.875 4.544-1.599 6.943-6.581 5.343-11.125-1.199-3.408-4.294-5.603-7.687-5.812Z"/><path fill="#924c27" d="M121.688 137.094c-1.13.093-2.278.409-3.344.968-2.656 1.505-5.034 3.364-7.188 5.532-2.458 2.474-4.548 5.273-6.968 7.781-.856.886-1.745 1.777-2.719 2.531-1.164.901-2.4718 1.549-3.6878 2.375-2.6787 1.82-5.4229 3.773-7.7812 6-1.7746 1.676-2.8417 3.774-4.3438 5.657-.6614.828-1.4891 1.528-2.3124 2.187-3.3568 2.688-7.1154 4.814-10.5626 7.375-2.0472 1.521-3.7692 3.432-6.0312 4.656-5.6477 3.058-12.2347 4.5-16.9062 9.156 5.4895-3.622 12.2508-3.684 18.375-5.562 2.6628-.816 4.9194-2.409 7.4374-3.531 3.9778-1.773 8.1206-3.136 12.0626-5 2.0576-.973 3.8931-2.071 5.625-3.563 1.0631-.915 2.1553-2.257 3.5-2.812.9373-.388 1.8933-.825 2.8437-1.188 1.8805-.717 3.8715-1.189 5.7185-2 1.047-.459 2.045-.983 3.094-1.437 1.77-.767 3.504-1.536 5.125-2.594 2.66-1.736 4.935-3.974 7.281-6.094 1.715-1.549 3.418-3.069 5.532-4.031 4.266-2.237 5.924-7.484 3.687-11.75-1.678-3.2-5.05-4.937-8.437-4.656Z"/><path fill="#924c27" d="M120.812 139.781c-2.473-.104-4.873.079-7.25.813-3.688 1.139-6.69 3.454-9.656 5.844-1.244 1.002-2.513 1.982-3.718 3.031-1.2472 1.085-2.4027 2.276-3.7192 3.281-.6286.48-1.2954.935-1.9063 1.438-.9466.777-1.8072 1.62-2.7187 2.437-1.4777 1.325-3.0335 2.587-4.5938 3.813-4.9871 3.917-10.2065 7.504-15.1562 11.468-.9219.738-1.6216 1.597-2.4063 2.469-1.0309 1.145-2.2457 2.155-3.4375 3.125-5.0529 4.112-10.7422 7.28-16.625 10.031 5.8597-1.335 11.6045-3.047 17.0625-5.593 1.8525-.865 3.6801-1.831 5.4375-2.876 1.1262-.669 2.0596-1.574 3.25-2.124 8.3643-3.867 17.0242-7.087 25.437-10.844 1.534-.685 2.908-1.6 4.407-2.344 1.106-.549 2.231-.997 3.343-1.531 1.532-.736 3.043-1.566 4.5-2.438 1.231-.736 2.407-1.568 3.688-2.219.421-.213.901-.453 1.375-.531.453-.074.932.061 1.375.125 4.803.366 9.009-3.228 9.375-8.031.366-4.803-3.259-8.978-8.063-9.344Z"/><path fill="#924c27" d="M118.625 137.562c-1.124.141-2.239.523-3.281 1.126-1.75 1.11-3.438 2.306-5.063 3.593-1.958 1.552-3.817 3.237-5.875 4.657-1.467 1.012-3 1.957-4.5622 2.812-1.2889.706-2.5207 1.381-3.6876 2.281-3.0502 2.355-5.8717 4.974-9.125 7.063-3.1799 2.042-6.7405 3.378-10.0624 5.156-1.826.977-3.5236 2.069-5.1563 3.344-1.3122 1.024-2.1759 2.465-3.4063 3.562-1.6349 1.459-3.5854 2.493-5.2812 3.875-2.3138 1.886-4.4354 4-6.8125 5.813 2.726-1.194 5.2562-2.751 7.9375-4.032 2.0281-.968 4.2284-1.507 6.2188-2.562 1.2412-.658 2.2741-1.678 3.5-2.344.8387-.456 1.8745-.801 2.7812-1.094 4.0552-1.31 8.3708-1.645 12.5-2.656 3.4156-.836 6.6816-2.178 9.9688-3.406 1.4262-.533 2.8832-.949 4.3122-1.469.649-.236 1.277-.552 1.938-.75 1.899-.569 3.853-.747 5.719-1.469 4.638-1.793 8.499-5.043 12.906-7.281 4.17-2.411 5.598-7.736 3.187-11.906-1.808-3.128-5.283-4.733-8.656-4.313Z"/><path fill="#924c27" d="M-2.375 141.094c7.41544 3.78 15.6293 4.302 23.6875 5.718 7.4677 1.313 14.8064 3.441 22.3437 4.344 5.8487.701 11.7788.591 17.625 1.313 3.5163.434 6.7869 1.825 10.2813 2.343 2.9837.443 6.0677.342 9 1.094 1.5861.407 3.1517 1.067 4.6875 1.625 2.0411.742 4.1795 1.309 6.3125 1.719 4.3974.845 8.9135.613 13.3125 1.406.28.051.537.117.813.188.032.008-.056.07-.032.094.167.156.376.274.563.406.367.26.917.598 1.281.812 1.113.654 2.288 1.21 3.531 1.563 1.081.307 2.159.441 3.219.469 3.179.083 6.264-.95 9.25-2.188 3.3-1.47 5.221-4.727 5.156-8.125-.021-1.133-.26-2.275-.75-3.375-1.96-4.4-7.099-6.367-11.5-4.406-.512.245-1.05.473-1.562.718-.329-.199-.657-.389-1-.562-.716-.362-1.433-.731-2.188-1-2.094-.747-4.298-.998-6.5-1.125-3.603-.208-7.2105.014-10.8122.156-1.384.055-2.8697.192-4.25 0-1.4108-.196-2.7156-.734-4.0938-1.062-1.3204-.315-2.7056-.52-4.0625-.563-3.3834-.107-6.6895.78-10.0625.813-1.6793.016-3.363-.23-5.0312-.375-1.7693-.155-3.507-.206-5.2813-.125-5.8835.266-11.704 1.274-17.5937 1.469-7.4433.245-14.8505-.779-22.2813-1.032-8.1044-.276-16.26253.373-24.0625-2.312Zm117.969 6.187c.02.008.042-.008.062 0 .039.016.381.178.375.188-.004.007-.217-.066-.375-.157-.019-.011-.043-.019-.062-.031Z"/><path fill="#924c27" d="M108.406 135.781c-.762-.074-1.554.022-2.312.125-.822.112-1.72.46-2.469.813-.245.115-.542.303-.813.469-.806.168-1.603.377-2.406.562-1.3234.305-2.6364.579-3.9685.844-1.8562.369-3.7307.638-5.5937.968-2.4352.433-4.8484.887-7.3126 1.126-4.4339.428-8.8902 1.514-13.1562 2.781-1.3504.401-2.6816.879-4.0312 1.281-1.9966.595-4.0123 1.04-6.0626 1.406-12.3608 2.207-25.0682 1.138-37.5.282-4.3515-.3-8.7193.133-13.06245-.219-3.34166-.272-6.57221-1.199-9.71875-2.313 3.0191 1.595 6.15912 3.01 9.5 3.782 4.2216.975 8.5761 1.169 12.8125 2.093 11.9808 2.614 23.9715 5.386 36.2813 5.75 2.8486.085 5.7229.03 8.5624-.219 2.4648-.215 4.9024-.614 7.375-.75 2.6457-.145 5.291-.008 7.9376-.031 1.7252-.014 3.4289-.137 5.1562-.093 1.7872.045 3.5864.204 5.375.218.7735.006 1.5391-.101 2.3125-.125.2485.308.5806.655.75.813.4648.432.956.798 1.5 1.125 1.033.621 2.1611.986 3.3435 1.187.177.03.352.106.532.094.979-.068 1.96-.122 2.937-.219.344-.034 1.188-.314 1.469-.406.104-.034.209-.089.312-.125-.192.123-.546.169-.75.219 2.978-.534 5.186-2.578 6.313-5.157.293-.197.6-.375.875-.593.373-.296.81-.525 1.094-.907.827-1.112 1.767-2.21 2.187-3.531.433-1.362.395-2.856.281-4.281-.065-.819-.383-1.594-.781-2.312-.49-.885-1.097-1.756-1.844-2.438-.761-.695-1.68-1.244-2.625-1.656-.79-.344-1.642-.48-2.5-.563ZM89.9688 166.125c-1.1263.124-2.2613.475-3.3126 1.063-1.94 1.226-4.0348 1.612-6.25 2.124-2.3387.542-4.6438 1.202-6.875 2.094-1.6358.654-3.2719 1.363-4.875 2.094-.4642.212-.8849.46-1.375.625-2.0488.692-4.2232.783-6.3124 1.313-1.5118.383-2.9963.868-4.5 1.281-3.079.845-6.1933 1.575-9.3438 2.093-2.9067.479-5.8414.809-8.7812 1-1.8996.124-3.8214.185-5.7188.344-4.5462.382-9.0834 1.083-13.6562.938-4.649-.148-9.00753-2.028-13.62505-2.438-2.12521-.188-4.24696.078-6.375.032-1.04687-.023-2.12068-.158-3.15625-.313 1.0053.342 2.02208.663 3.0625.875 2.64351.539 5.3317.725 7.90625 1.594 3.41385 1.152 6.51205 3.069 9.99995 4.031 5.6309 1.554 11.5507 1.621 17.3126 2.375 3.7313.488 7.4315 1.059 11.1874 1.344 3.3269.252 6.6819.366 10.0313.375 3.3494.009 6.7061-.088 10.0313-.313 2.2221-.15 4.4447.037 6.6562-.312 2.7479-.434 5.3672-1.342 8.0625-2 2.4262-.592 4.9584-.703 7.4063-1.188 2.7279-.54 5.2538-1.469 7.7187-2.75 4.2049-2.35 5.6945-7.639 3.3437-11.844-1.7627-3.153-5.1838-4.809-8.5624-4.437Z"/><path fill="#924c27" d="M82.6875 140.094c-2.1543 4.308-.4336 9.564 3.875 11.718 1.0772.539 2.213.835 3.3437.907 3.3923.215 6.7593-1.581 8.375-4.813-3.3426-3.066-3.7204-3.376-3.3437-3.062.5558.463 2.2478 1.806 1.7187 1.312-.8866-.826-1.8523-1.572-2.8124-2.312-.3883-.299-2.2501-2.063-2.25-2.063 0 0-5.1726-1.01-4.4688-.843.477.113 1.9411.381 1.4688.25-1.1681-.325-2.3693-.631-3.5626-.844-.712-.128.0243.004-2.3437-.25Z"/><path fill="#924c27" d="M7.40625 125.875c2.78575 1.985 5.24565 4.354 7.99995 6.375 3.7912 2.782 7.9996 4.866 12.1563 7.031 2.5372 1.322 5.003 2.816 7.625 3.969 6.5308 2.873 13.5958 4.236 20.5937 5.406 4.2517.711 8.5172 1.6 12.8126 2 1.5174.142 3.0406.068 4.5624.094 2.7116.045 5.329.057 8.0313-.219 3.5628-.363 7.1659-.218 10.7187-.719 3.7788-.532 7.3066-1.774 10.4998-3.874 3.943-2.768 4.892-8.182 2.125-12.126-2.767-3.943-8.2129-4.923-12.156-2.156-2.0088 1.627-4.9218 1.856-7.375 2.219-2.5853.383-5.1412.77-7.6562 1.5-1.3961.405-2.7658.911-4.1876 1.219-1.5567.337-3.1456.351-4.7187.562-4.0208.54-8.0097.988-12.0625 1.219-6.4374.367-12.9398.534-19.2812-.844-2.6669-.579-5.2351-1.553-7.8438-2.343-4.352-1.32-8.7653-2.551-12.875-4.532-3.0557-1.472-5.8891-3.348-8.96875-4.781ZM94.9375 159.844c-1.1315-.058-2.3057.119-3.4375.531-2.3119 1.201-4.9659 1.201-7.375 2.187-.8601.353-2.0248 1.105-2.875 1.5-.4616.215-.9807.338-1.4375.563-1.8561.915-3.5956 2.208-5.3437 3.313-7.3801 4.663-13.8564 10.014-18.375 17.593 6.4899-4.755 13.7636-7.229 21.7812-7.75 1.3844-.09 2.7698-.092 4.1562-.062.4652.01.9418.056 1.4063.031.4513-.024.8924-.164 1.3437-.188 2.0751-.109 4.1683.258 6.25.25 2.2027-.007 4.3329-.44 6.4376-1.062 3.3952-1.235 5.5752-4.355 5.7502-7.75.058-1.132-.12-2.306-.531-3.438-1.235-3.395-4.3559-5.544-7.7505-5.718Z"/><path fill="#924c27" d="M27.2188 75.375c1.6705 3.158 3.9322 5.8694 6.1874 8.625 2.4116 2.9466 4.8408 5.8987 7.0938 8.9688 1.3108 1.7862 1.9117 3.9582 3.2812 5.7187 1.1997 1.5425 2.8676 2.6545 4.0313 4.2185 1.3577 1.825 2.2031 3.89 3.7187 5.625 1.7232 1.973 3.9078 3.464 5.7188 5.344 1.2573 1.305 2.243 2.881 3.4688 4.219 1.8533 2.022 4.0514 3.767 6.0937 5.594 1.5749 1.408 3.1238 2.881 4.9063 4.031 1.0901.703 2.2753 1.242 3.4062 1.875 4.3254 2.419 8.7567 4.581 13.3438 6.468 3.3842 1.393 6.8797 2.551 10.1874 4.126 1.1068.474 2.2418.712 3.3748.718 3.399.018 6.638-1.961 8.063-5.281.475-1.107.713-2.273.718-3.406.018-3.399-1.961-6.638-5.281-8.063-3.742-1.465-7.5958-2.471-11.4372-3.625-2.1465-.644-4.2482-1.39-6.4063-2-2.5469-.719-5.2456-1.109-7.7187-2.062-.5732-.221-.9377-.43-1.5-.688-2.2591-1.036-4.4927-2.044-6.6876-3.219-1.33-.711-2.7801-1.308-4.0312-2.156-1.6658-1.129-3.0977-2.576-4.7812-3.687-1.9722-1.302-4.2074-2.225-6.0938-3.657-1.7245-1.308-2.913-3.1363-4.5312-4.562-1.4574-1.284-3.2791-2.0605-4.75-3.3125-.9744-.8294-1.6138-1.9279-2.375-2.9375-.6969-.9241-1.4932-1.7199-2.3438-2.5-2.6451-2.4261-5.3582-4.77-8.0938-7.0938-2.6827-2.2788-5.3772-4.5068-7.5624-7.2812ZM228.281 213.844c-.854.574-1.777.978-2.687 1.437-.289-.394-.787-.673-1.375-.656-.371.011-.694.206-1.031.344-.033.005-.063-.001-.094 0-.365.008-.729-.002-1.094 0-.885.005-1.773-.163-2.656-.094-.645.05-1.289.259-1.906.437-.534.155-1.058.293-1.594.438-.923-.7-2.238-.516-2.938.406-.378.531-.771 1.179-.656 1.875.074.452.225.915.5 1.281.234.312.621.512.969.688.203.103.43.126.656.156 1.195.16 2.613-.502 3.687-.906.212-.079.415-.169.626-.25.18-.07.35-.148.531-.219.16-.045.352-.086.469-.125.101-.033.21-.059.312-.094.08-.01.17-.019.25-.031.26-.038.521-.088.781-.125.829-.117 1.646-.167 2.469-.344.804-.172 1.95-.491 2.281-1.406.119-.328-.042-.585-.125-.875.9-.615 1.808-1.2 2.625-1.937Z"/><g><path fill="#311709" d="M201.031 337.656c-2.514.171-4.951.87-7.25 1.906-.587.265-1.171.535-1.719.876-.528.328-.998.756-1.5 1.124-.433.385-.686.902-.718 1.438-.032.536.147 1.067.531 1.5.384.433.902.687 1.437.719.536.032 1.098-.147 1.532-.531 1.383-1.486 2.515-3.211 4-4.594 1.098-1.023 2.344-1.784 3.687-2.438Z"/></g><g><path fill="#311709" d="M4.78125 71c4.23917 5.8476 8.57765 11.6139 13.24995 17.125 10.2623 12.105 21.8424 23.204 34.75 32.469 8.7676 6.293 18.1807 11.484 27.9688 16 1.1739.529 2.5647.017 3.0938-1.156.529-1.174-.0136-2.565-1.1876-3.094-15.8304-6.967-30.9272-15.643-44.375-26.563C25.7208 95.582 14.8494 83.6193 4.78125 71Z"/></g><g><path fill="#311709" d="M6.78125 74.375C13.1867 81.316 19.8126 88.0618 27.0938 94.0938c2.5686 2.1279 5.19 4.2744 7.9687 6.1252 1.9092 1.271 3.7998 2.561 5.7813 3.719 2.7532 1.608 5.622 3.037 8.5 4.406 1.1717.534 2.5599.015 3.0937-1.156.5338-1.172.0155-2.56-1.1563-3.094-7.5032-3.271-14.894-6.9486-21.75-11.4378-8.1578-5.3416-15.5606-11.7204-22.74995-18.2812Z"/></g><g><path fill="#311709" d="M24.9688 73.9062c1.4241 1.7691 2.9343 3.5155 4.2812 5.3438 1.338 1.8162 2.5679 3.7544 3.7812 5.6562 3.38 5.2979 6.3022 10.8874 9.875 16.0628 1.6388 2.373 3.5373 4.549 5.5 6.656.4489.462 1.0284.679 1.625.687.5967.009 1.226-.207 1.6876-.656.4615-.449.6791-1.028.6874-1.625.0084-.596-.2074-1.194-.6562-1.656C46.5933 99.3049 42.0487 93.6348 37.5312 88c-2.5022-3.1212-4.9611-6.3175-7.6874-9.25-1.5538-1.6712-3.251-3.2405-4.875-4.8438Z"/></g><g><path fill="#311709" d="M3.65625 123.719c4.9932 3.144 10.13725 5.981 15.56255 8.312 11.7126 5.034 24.4103 7.705 37.1562 7.938 8.7448.159 17.3883-.964 25.9375-2.719 1.2584-.273 2.0852-1.523 1.8125-2.781-.2727-1.259-1.5228-2.054-2.7812-1.781-13.938 3.182-28.4306 4.996-42.6876 3.093-12.3979-1.654-24.0894-6.037-34.99995-12.062Z"/></g><g><path fill="#311709" d="M-3.96875 178.656c6.49243 1.119 12.64533 3.124 18.81255 5.406 4.8691 1.803 9.7227 3.677 14.75 5 1.9614.517 3.9867.986 6 1.25 2.9528.388 5.9653.575 8.9374.344 3.288-.255 6.4736-.958 9.625-1.906 1.2274-.389 1.8894-1.71 1.5-2.938-.3893-1.227-1.6788-1.889-2.9062-1.5-4.6732 1.564-9.5581 2.463-14.5 2.469-8.6625.012-16.9756-2.614-25.25-4.843-5.60639-1.511-11.1801-2.749-16.96875-3.282Z"/></g><g><path fill="#311709" d="M54.2812 184.5c-.5756-.157-1.2222-.101-1.7812.219-3.3534 1.987-6.6278 4.099-9.75 6.437-6.9514 5.206-13.4546 10.977-20.5938 15.938-5.0487 3.508-10.3258 6.514-16.0312 8.812 2.92126-.903 5.7751-1.924 8.5625-3.187 6.8179-3.089 13.1532-7.151 19.4375-11.188 6.8122-4.375 13.5907-8.844 20.6875-12.75 1.118-.639 1.5137-2.069.875-3.187-.3194-.559-.8306-.937-1.4063-1.094Z"/></g><g><path fill="#311709" d="M200.188 73.7812c-6.601.0046-13.216.8273-19.5 2.8126-5.05 1.5951-9.876 3.842-14.469 6.4687-9.571 5.4727-17.887 12.7764-26.469 19.6255-6.281 5.012-12.746 9.704-19.75 13.656-1.007.572-1.354 1.837-.781 2.844.572 1.006 1.837 1.385 2.843.812 8.328-4.776 15.853-10.59 23.25-16.688 8.263-6.8107 16.439-14.0021 25.907-19.1245 10.878-5.8859 23.073-8.3095 35.375-7.5937 13.623.7926 26.019 5.4866 37.968 11.8124 14.174 7.5035 27.827 17.0298 43.876 20.0318 9.458 1.769 19.104 1.021 28.343-1.563 4.645-1.299 9.13-3.039 13.531-5-12.932 5.482-26.451 8.607-40.468 6.031-15.54-2.855-28.686-12.0475-42.156-19.7185-6.236-3.5508-12.666-6.8225-19.407-9.3125-6.927-2.559-14.165-4.2479-21.531-4.8438-2.181-.1764-4.362-.2515-6.562-.25Z"/></g><g><path fill="#311709" d="M26.8438 74.7188c1.0433 1.4756 2.0901 2.8445 3.375 4.125 2.5447 2.5359 5.4476 4.6843 7.8124 7.4062 3.2596 3.7516 6.6077 7.3616 10.2188 10.7812C58.0696 106.33 69.393 114.474 82 119.531c6.9835 2.802 14.4792 4.472 22 4.375 2.507-.032 5.013-.268 7.5-.718 3.407-.617 6.69-1.654 9.875-3 1.063-.459 1.553-1.687 1.094-2.75-.459-1.064-1.687-1.553-2.75-1.094-2.608 1.149-5.28 2.064-8.063 2.687-8.264 1.852-16.8087 1.065-24.906-1.187-11.245-3.127-21.5666-9.031-30.8125-16.063-2.8691-2.1819-5.6657-4.4928-8.3437-6.906-3.1915-2.8759-6.1567-5.9312-9.0938-9.0625-2.4797-2.6437-5.5034-4.6435-8.1562-7.0937-1.3274-1.226-2.4057-2.5707-3.5-4Z"/></g><g><path fill="#311709" d="M-2.84375 143.688c9.86841 3.424 19.95065 6.199 30.18755 8.281 6.6317 1.349 13.344 2.474 20.0937 3.031 4.8859.403 9.8169.571 14.7187.625 9.5582.105 19.1586.333 28.3438 3.25 1.1068.341 2.2842-.268 2.625-1.375.3408-1.107-.2994-2.284-1.4062-2.625-4.8342-1.444-9.7446-2.264-14.7813-2.563-9.782-.58-19.5563.601-29.3437.313-5.9625-.175-11.9443-.866-17.8438-1.719-11.033-1.595-21.91337-4.03-32.59375-7.218Z"/></g><g><path fill="#311709" d="M90.9062 155.219c-.5364.014-1.0699.236-1.4687.656-4.9406 5.296-11.7835 7.7-18.0313 11.031-1.5737.839-3.0997 1.749-4.6874 2.563-5.6106 2.875-11.4509 5.29-17.5313 6.969-17.2075 4.75-35.2134 3.896-52.84375 2.874 17.74335 1.776 35.82465 3.32 53.40625-.593 5.231-1.164 10.4393-2.715 15.375-4.813 2.6891-1.142 5.2914-2.483 7.9375-3.718 6.8686-3.208 14.028-5.868 19.4063-11.438.3987-.42.6075-.932.5937-1.469-.0138-.536-.2364-1.07-.6563-1.469-.4198-.398-.9635-.607-1.5-.593Z"/></g><g><path fill="#311709" d="M103.25 182.562c-2.753.829-5.5693 1.499-8.3438 2.25-3.9406 1.068-7.8524 2.191-11.75 3.407-13.4615 4.199-26.739 9.01-39.9374 13.969-4.4586 1.674-8.8886 3.423-13.3126 5.187-4.1887 1.67-8.3666 3.395-12.375 5.469-3.9155 2.026-7.62337 4.41-11.18745 7 3.6534-2.436 7.42545-4.671 11.40625-6.532 4.4624-2.085 9.1044-3.751 13.75-5.374 4.0743-1.424 8.1786-2.785 12.2812-4.126 11.43-3.733 22.9355-7.224 34.5313-10.406 5.2192-1.432 10.4723-2.858 15.7187-4.187 3.4646-.878 6.9678-1.649 10.4068-2.625 1.111-.325 1.73-1.482 1.406-2.594-.325-1.112-1.482-1.762-2.594-1.438Z"/></g><g><path fill="#311709" d="M327.656 178.938c-22.757-.435-46.073 3.96-66.094 15.156-6.179 3.456-11.907 7.629-17.718 11.656-9.822 6.807-20.456 13.415-32.75 13.812-3.438.112-6.934-.187-10.344-.593-8.358-.997-16.513-3.134-24.469-5.844-9.593-3.267-18.88-7.283-28.156-11.344-4.848-2.122-9.733-4.149-14.563-6.312-3.694-1.655-7.349-3.411-11.031-5.094-2.32-1.06-4.682-1.993-6.937-3.187-3.484-1.845-7.645-4.88-11.782-4.782-1.157.037-2.067.999-2.031 2.156.037 1.158.999 2.068 2.157 2.032 1.428-.064 2.836.648 4.093 1.25 2.295 1.098 4.458 2.429 6.75 3.531 2.544 1.222 5.176 2.279 7.75 3.437 3.635 1.637 7.238 3.315 10.907 4.876 8.839 3.759 17.69 7.552 26.656 11 8.047 3.094 16.111 6.017 24.5 8.062 6.279 1.53 12.671 2.592 19.125 3 2.477.157 4.987.257 7.469.125 20.158-1.074 34.517-17.107 50.968-26.719 19.671-11.492 42.902-16.256 65.5-16.218Z"/></g><g><path fill="#311709" d="M375.625 69.875c-2.339 2.0498-4.482 4.3134-6.594 6.5938-1.024 1.1059-2.005 2.3986-3.187 3.3437-3.242 2.5905-6.741 4.905-10.156 7.25-4.901 3.3644-9.963 6.4955-15.25 9.2187-17.064 8.7878-37.071 13.8988-56.219 10.3128-1.14-.204-2.234.547-2.438 1.687-.204 1.14.548 2.234 1.688 2.438 26.384 4.514 52.148-7.299 72.843-22.7815 3.331-2.4918 6.762-4.9867 9.907-7.7187 1.322-1.149 2.365-2.6438 3.5-3.9688 1.879-2.1935 3.811-4.3839 5.906-6.375Z"/></g><g><path fill="#311709" d="M254.562 93.375c4.385 3.1956 8.73 6.467 13.25 9.469 3.411 2.264 6.871 4.436 10.626 6.094 2.261.998 4.623 1.688 7.031 2.218 1.136.224 2.245-.52 2.469-1.656.223-1.136-.52-2.245-1.657-2.469-11.532-1.985-21.66-8.0135-31.719-13.656Z"/></g><g><path fill="#311709" d="M397.438 72.7812c-5.314 4.3717-10.809 8.4839-16.157 12.8126-7.565 6.1234-14.967 12.4558-23.343 17.4682-7.779 4.655-16.039 8.4-23.813 13.063-5.499 3.299-10.635 7.077-15.281 11.5-.416.403-.617.963-.625 1.5-.009.537.191 1.053.593 1.469.403.416.933.647 1.469.656.537.009 1.084-.191 1.5-.594 10.895-10.724 24.843-17.211 37.407-25.656 8.175-5.4953 15.33-12.2114 22.687-18.7188 5.151-4.5563 10.447-8.9022 15.563-13.5Z"/></g><g><path fill="#311709" d="M411.438 108.594c-12.797 5.837-26.63 8.68-40.188 12.156-10.381 2.662-20.824 5.381-31.469 6.75-6.164.793-12.361 1.156-18.531.219-1.146-.164-2.211.635-2.375 1.781-.164 1.146.635 2.211 1.781 2.375 8.444 1.132 16.868.036 25.125-1.813 9.438-2.112 18.607-5.164 27.844-8 12.79-3.926 25.846-7.35 37.813-13.468Z"/></g><g><path fill="#311709" d="M416.719 128.031c-11.975.707-23.916 3.139-35.563 5.938-10.248 2.463-20.642 5.315-30.406 9.312-5.436 2.226-10.731 4.636-15.656 7.875-2.608 1.716-5.035 3.747-7.063 6.125-.372.444-.547.997-.5 1.531.047.535.306 1.035.75 1.407.444.372.997.547 1.531.5.535-.047 1.066-.306 1.438-.75 2.819-3.431 6.579-5.994 10.375-8.219 4.303-2.522 8.776-4.669 13.344-6.656 11.049-4.807 22.541-8.554 34.187-11.625 9.049-2.387 18.245-4.468 27.563-5.438Z"/></g><g><path fill="#311709" d="M329.938 156.438c-1.157.068-2.038 1.062-1.969 2.218.068 1.156 1.062 2.037 2.219 1.969 5.97-.413 11.768 1.021 17.468 2.656 7.798 2.237 15.466 5.261 23.594 6.094 10.651 1.092 21.157-1.599 31.656-2.906 3.672-.457 7.334-.646 11.032-.563-4.948-.354-9.849-.127-14.782.344-9.158.875-18.409 2.431-27.594.938-5.022-.817-9.79-2.587-14.531-4.376-8.7-3.282-17.627-6.846-27.093-6.374Z"/></g><g><path fill="#311709" d="M291.625 178.562c-4.302 1.033-8.545 2.323-12.594 4.126-14.761 6.57-27.053 17.477-39.156 27.937 8.742-6.562 17.474-13.253 27.094-18.5 8.007-4.367 16.673-7.575 25.593-9.469 1.13-.255 1.819-1.401 1.563-2.531-.256-1.13-1.37-1.818-2.5-1.563Z"/></g><g><path fill="#311709" d="M338.312 175.438c-4.585-.058-9.167 0-13.75.187-5.661.23-11.317.495-16.968.906-5.91.43-11.837.999-17.563 2.594-1.113.318-1.755 1.48-1.437 2.594.318 1.113 1.48 1.755 2.594 1.437 6.611-1.935 13.541-2.419 20.374-3 5.606-.476 11.195-1.096 16.813-1.406 19.771-1.09 39.984-1.292 59.437 2.906 9.334 2.015 18.278 5.157 26.938 9.156-6.87-3.453-13.935-6.432-21.312-8.624-13.432-3.992-27.421-5.609-41.376-6.313-4.579-.231-9.164-.38-13.75-.437Z"/></g><g><path fill="#311709" d="M412.906 166.094c-10.795 2.4-21.497 7.474-32.781 6.281-.379-.037-.713.215-.75.594-.037.379.246.744.625.781 7.351.658 14.134-1.553 21-3.906 3.943-1.352 7.876-2.68 11.906-3.75Z"/></g><g><path fill="#311709" d="M380.25 172.5c-.327-.194-.743-.077-.938.25-.194.327-.077.743.25.938 9.298 5.417 18.981 10.158 29.157 13.687-4.155-1.643-8.216-3.483-12.188-5.531-5.56-2.867-10.93-6.108-16.281-9.344Z"/></g><g><path fill="#311709" d="M402.594 69.4062c-7.634 4.3234-14.993 9.0472-22.375 13.7813-8.727 5.5963-17.673 11.092-27.625 14.2187-.363.1159-.554.5122-.438.875.116.3628.481.5534.844.4376 10.072-3.2666 18.907-9.0572 27.594-14.9688 7.247-4.9319 14.475-9.841 22-14.3438Z"/></g><g><path fill="#311709" d="M374.844 71.2188c-4.786 6.1306-9.669 12.1735-14.75 18.0624-1.599 1.8532-3.172 3.7141-4.813 5.5313-.541.5997-1.083 1.2117-1.656 1.7813-.213.2118-.425.4332-.656.625-.059.0489-.258.155-.188.125-.378.0481-.642.4034-.593.7812.048.3778.403.6419.781.5938.907-.1744 1.63-1.172 2.219-1.8126 1.47-1.602 2.843-3.2915 4.187-5 5.324-6.7688 10.443-13.6947 15.469-20.6874Z"/></g><g><path fill="#311709" d="M406.438 111.031c-1.724.875-3.505 1.676-5.188 2.625-1.578.89-3.146 1.906-4.656 2.906-6.096 4.038-11.772 8.629-18.125 12.282-.329.192-.443.609-.25.937.192.329.609.443.937.25 2.074-1.236 4.117-2.536 6.063-3.969 3.969-2.922 7.673-6.189 11.656-9.093 1.457-1.063 2.967-2.144 4.5-3.094 1.64-1.016 3.379-1.9 5.063-2.844Z"/></g><g><path fill="#311709" d="M405.938 126.969c-9.094-.31-18.2.782-27.25 1.843-.378.048-.641.373-.594.75.047.378.372.641.75.594 7.987-1.054 15.967-2.486 24.031-2.812 4.062-.165 8.119-.028 12.156.437-3.025-.465-6.062-.709-9.093-.812Z"/></g><g><path fill="#311709" d="M8.90625 127.219c3.66855 3.426 7.67575 6.458 11.84375 9.25 5.021 3.362 10.1866 6.376 15.75 8.75.7125.29 1.5219-.069 1.8125-.781.2906-.713-.0688-1.522-.7813-1.813-10.1307-3.939-20.043-8.657-28.62495-15.406Z"/></g><g><path fill="#311709" d="M28.8125 142.969c-5.3063.182-10.5973.825-15.9063.969-3.783.101-7.51302-.08-11.24995-.688 11.10645 2.746 22.75665 1.424 34.06255 2.719.7657.075 1.4557-.485 1.5312-1.25.0755-.766-.4842-1.456-1.25-1.531-2.3944-.199-4.7841-.302-7.1875-.219Z"/></g><g><path fill="#311709" fill-rule="evenodd" stroke="#311709" stroke-width="5.12414" d="M241.146 106.817c-5.22.401-10.494 2.65-15.125 7.281l2.25-.593c-9.779 4.911-14.355 20.102-25.562 22.343-14.035 2.807-25.026-15.251-39.719-12.312-15.699 3.139-26.046 38.079-13.906 50.219 36.021 36.021 109.189 16.24 119.343-34.532 3.625-18.124-11.62-33.609-27.281-32.406Z"/><path fill="#fff" d="M148.125 133.844c-.346.084-.675.296-.875.625-2.125 3.513-3.904 7.22-4.906 11.219-.624 2.489-.931 5.057-.875 7.624.33 15.251 13.545 25.963 26.25 31.969 1.805.854 3.637 1.624 5.5 2.344 2.47.955 4.986 1.8 7.531 2.531 3.083.885 6.212 1.591 9.375 2.125 5.187.877 10.441 1.241 15.687.75 23.525-2.201 43.109-18.991 56.719-37.219-14.098 18.25-34.433 35.069-58.469 36.157-3.982.18-7.945-.162-11.874-.813-3.707-.613-7.38-1.485-10.969-2.594-3.103-.958-6.153-2.066-9.125-3.374-2.367-1.042-4.693-2.216-6.938-3.5-10.695-6.121-21.342-15.948-21.062-29.25.043-2.051.363-4.078.875-6.063.959-3.726 2.652-7.172 4.656-10.437.4-.658.188-1.538-.469-1.938-.328-.2-.685-.24-1.031-.156Z"/><path fill="#fff" d="M243.031 107.219c-5.507-.042-10.684 1.367-15.125 5.406-7.59 6.903-10.709 18.363-21.187 21.937-1.629.556-3.318.92-5.031 1.063-9.345.778-17.137-4.83-25.032-8.906-2.504-1.293-5.064-2.51-7.812-3.188-5.571-1.374-10.535.016-14.938 3.594-2.649 2.153-4.823 4.807-6.812 7.563-.448.625-.314 1.521.312 1.968.626.448 1.49.282 1.938-.344 1.958-2.765 4.127-5.433 6.812-7.531 1.123-.876 2.316-1.622 3.625-2.187 6.988-3.013 14.208 1.263 20.313 4.437 6.106 3.175 12.383 6.062 19.062 6.125 2.227.021 4.486-.265 6.813-.968 1.522-.461 3.004-1.1 4.375-1.907 8.337-4.903 11.144-14.836 17.906-21.281 5.723-5.455 12.894-6.272 20.375-5.312-1.889-.288-3.758-.455-5.594-.469Z"/></g></g></svg>
