<svg
  xmlns="http://www.w3.org/2000/svg"
  xmlnsVectornator="http://vectornator.io"
  strokeLinecap="round"
  strokeLinejoin="round"
  strokeMiterlimit="10"
  clipRule="evenodd"
  viewBox="0 0 419.58 297.675"
>
  <clipPath id="a">
    <path d="M0 0h419.58v297.675H0z"></path>
  </clipPath>
  <g clipPath="url(#a)" vectornatorLayerName="Layer 2">
    <path
      fill="none"
      stroke="#924c27"
      strokeWidth="19.17"
      d="M201.193 83.276c-35.26 0-63.844 28.584-63.844 63.843 0 35.26 28.584 63.844 63.844 63.844 35.259 0 63.843-28.584 63.843-63.844 0-35.259-28.584-63.843-63.843-63.843zm-35.773 10.91l-59.618 49.15m222.973 1.74L228.057 89.552m-47.001 118.523l-77.398-32.8m220.209-27.477l-98.511 56.698"
    ></path>
    <path
      fill="none"
      stroke="#924c27"
      strokeWidth="19.17"
      d="M135.121 139.091c-3.791-.758-5.683 1.446-8.706 3.125-5.695 3.164-12.128 5.551-17.188 9.599-1.862 1.489-3.542 3.333-5.804 4.464-.279.14-4.075 1.952-3.572 2.456.422.422 7.447-1.406 8.036-1.563 3.59-.957 7.436-1.288 10.938-2.455 2.644-.881 5.312-1.872 8.037-2.456 1.839-.394 3.536-1.107 5.357-1.562.228-.057.67.012.67-.223 0-.224-.451-.044-.67 0-1.675.335-3.051 1.518-4.688 2.009-3.908 1.172-7.677 2.983-11.607 4.018-2.292.603-4.489 1.601-6.697 2.232-1.012.289-2.116.64-3.125.893-.298.074-1.11.006-.893.223.587.587 4.063-1.169 4.687-1.339 4.993-1.362 10.28-1.643 15.403-2.009.309-.022 4.911-.329 4.911.446 0 1.533-3.553 2.56-4.465 2.902-3.565 1.337-6.865 3.108-10.491 4.241-1.351.422-2.681.671-4.018 1.116-.447.149-1.81.447-1.34.447 1.951 0 4.372-1.285 6.251-1.786 2.326-.62 4.75-.971 7.143-1.339.255-.039 4.389-.671 4.688-.223.555.832-1.357 1.522-2.233 2.009-2.32 1.289-4.865 1.924-7.143 3.348-.066.041-2.61 1.33-2.455 1.563.87 1.305 6.047-.578 6.92-.67 4.744-.5 10.916-1.476 15.402.446 5.69 2.439 9.443 6.195 14.064 10.045.176.147 3.478 2.667 3.125 2.902-1.301.867-5.888.717-7.367.224-.805-.269-2.455-.67-2.455-.67l.669.223c1.263.421.806.323 2.902.447 1.117.065 2.236.106 3.349.223 4.712.496 9.219 1.628 13.84 2.679 9.76 2.218 19.069 6.014 28.796 8.259 1.364.315 8.061 1.843 9.152 1.116.414-.276-4.157-.893-4.241-.893-1.78 0-3.582.094-5.358 0-7.139-.376-14.285-.582-21.429-.893-2.026-.088-3.996-.223-6.027-.223-.521 0-1.052-.102-1.563 0-.163.033-.585.131-.446.223 1.546 1.031 5.896.589 7.589.67 6.029.287 12.049.884 18.082 1.116 10.554.406 21.129 1.024 31.474-1.563 11.858-2.964 21.209-11.298 28.127-20.983 2.469-3.457 3.707-8.487 4.911-12.5 2.149-7.165-.4-15.249-2.456-22.1-.524-1.747-.649-3.632-1.339-5.357-.94-2.35-2.825-4.212-3.795-6.474-1.606-3.747-4.073-10.389-7.143-12.947-3.07-2.558-7.529-4.067-11.161-5.58-4.375-1.823-8.38-4.389-12.724-6.251-1.462-.626-2.61-2.12-4.018-2.902-6.653-3.696-13.264-5.951-20.983-5.357-3.66.281-6.941 2.271-10.046 4.018-7.805 4.39-15.194 9.309-21.206 16.072-2.723 3.063-4.437 7.182-6.92 10.492-4.874 6.498-11.065 14.569-11.831 22.992-.551 6.059 2.426 13.408 6.25 18.081 2 2.444 5.072 3.782 7.59 5.581 1.414 1.01 2.595 2.352 4.018 3.348 1.632 1.143 3.823 1.742 5.581 2.679 22.405 11.95 49.704 19.581 70.985 1.339 1.476-1.264 3.318-2.201 4.688-3.571 3.919-3.919 7.671-13.712 8.036-19.198.237-3.551-1.424-6.197-2.902-9.152-1.513-3.026-2.426-6.501-4.241-9.375-2.781-4.403-7.206-7.458-11.161-10.715-2.96-2.438-5.74-4.994-8.706-7.367-1.153-.922-2.512-1.318-3.795-2.009-9.869-5.314-21.788-10.271-33.26-7.813-5.25 1.125-11.634 2.482-15.626 6.474-2.364 2.364-4.144 5.859-5.804 8.706-1.761 3.018-3.383 6.164-4.241 9.599-1.608 6.428-2.276 14.166 0 20.536 1.975 5.532 8.315 10.538 13.17 13.394 3.116 1.833 5.919 3.982 9.375 5.134 10.375 3.458 22.72 3.152 33.261.893 7.971-1.708 23.98-7.612 27.234-16.072.996-2.59.538-6.954 0-9.376-1.794-8.072-9.53-13.099-16.073-16.965-4.236-2.503-8.295-5.29-12.5-7.813-11.175-6.705-28.766-5.675-39.288 1.339-2.163 1.442-5.401 2.965-6.92 5.135-6.827 9.752-.901 23.063 9.822 27.233 10.052 3.91 21.95 1.981 32.144-.446 4.639-1.105 13.443-3.91 14.51-9.599 2.62-13.975-20.069-16.519-29.019-16.519-2.631 0-4.277-.002-6.697.67-5.943 1.651-12.781 4.767-11.161 12.054 2.775 12.489 23.709 7.991 31.921 5.134 3.633-1.263 7.543-2.835 9.152-6.696 2.452-5.885-4.553-6.897-8.259-7.144-5.258-.35-19.936 5.162-18.305 12.501.879 3.952 6.533 5.194 9.822 5.581 8.554 1.006 17.426.259 25.894 1.562 2.338.36 5.163.375 7.144 1.563.398.239 1.846 2.232 2.232 2.232.196 0-1.22-3.477-1.339-3.795-.127-.338-.52-3.795-.893-3.795-.706 0 .262 1.684.669 1.786 7.483 1.871 19.764-5.591 24.109-11.384 2.939-3.919 4.154-10.425 10.045-11.162 2.828-.353 4.697 2.242 6.473 4.019 4.441 4.44 10.041 6.981 15.403 10.045 2.618 1.496 5.829 1.656 8.706 2.232 1.663.333 3.822 1.688 5.357 2.455.235.118 3.125.938 3.125 1.34 0 .418-2.033.223-2.232.223-2.606 0-5.009.143-7.589.446-5.81.684-11.495 2.307-17.189 3.572-3.398.755-6.885.94-10.268 1.786-2.476.619-5.522.64-7.813 1.786-.149.074-.447.057-.447.223 0 .744 1.501.133 2.233 0 2.265-.412 4.509-1.057 6.696-1.786 2.101-.7 12.278-2.602 12.278-4.911 0-1.956-6.879-3.779-8.706-4.464-.833-.313-1.543-.823-2.232-1.34-.253-.189-.67-.985-.67-.669 0 .888.9 1.394 1.339 2.009 1.633 2.286 4.225 4.548 3.572 7.813-.599 2.993-3.465 4.613-4.911 7.143-.001.001-1.175 2.173-1.116 2.232.558.558 3.99-1.603 4.464-1.786 3.959-1.522 7.495-3.571 11.831-3.571.508 0 1.857-.278 2.233.223 1.163 1.551-6.388 3.734-7.144 4.018-5.812 2.18-11.841 3.495-17.858 4.911-2.065.486-4.134 1.786-6.25 1.786-.149 0 .3.024.447 0a11.8 11.8 0 001.785-.447 84.132 84.132 0 014.465-1.339c.913-.249 11.79-1.989 12.277-1.34 1.119 1.492-7.894 4.295-9.152 4.688-7.717 2.412-15.705 4.031-23.662 5.358-3.066.511-7.789 2.126-10.938 1.339-1.178-.295.05-1.116-1.786-1.116-2.945 0-5.856 1.507-8.929.893-.7-.14-1.28-.747-2.009-.893-4.701-.94-9.749-1.505-14.286-3.125-5.609-2.003-10.968-5.596-16.296-8.26-4.403-2.201-10.319-5.479-13.17-9.598-2.127-3.073-3.69-6.711-5.358-10.046-1.047-2.095-2.059-5.703-.892-8.036.556-1.112 2.733-2.792 3.571-1.116"
    ></path>
    <path
      fill="#924c27"
      d="M164.656 101.906a8.701 8.701 0 00-6.5 1.532c-1.821 1.631-4.087 2.385-6.218 3.531-1.291.694-2.485 1.547-3.75 2.281-.423.245-.882.407-1.282.688-1.654 1.163-3.104 2.735-4.625 4.062-1.907 1.664-3.848 3.294-5.875 4.812-2.849 2.135-5.876 4.158-9.218 5.438-2.694 1.032-5.52 1.589-8.344 2.125 3.53.619 7.12 1.247 10.718.937a58.725 58.725 0 008.032-1.25c4.524-1.03 8.925-2.52 13.468-3.468.579-.121 1.175-.21 1.75-.344.623-.145 1.237-.394 1.876-.438.332-.022.636.046.968.032 1.192-.052 2.432-.276 3.594-.532 3.269-.717 6.276-1.926 9.094-3.718a8.704 8.704 0 002-12.156 8.742 8.742 0 00-5.688-3.532zm-15.75 26.75a37.426 37.426 0 00-8.812 2.844 34.913 34.913 0 00-3.219 1.719c-.606.373-1.151.831-1.813 1.093-.375.15-.777.204-1.156.344-1.816.675-3.599 1.634-5.312 2.532-3.458 1.811-6.775 3.909-10.25 5.687-5.591 2.86-11.765 4-17.594 6.25 5.096-.148 10.156.514 15.25.375 4.85-.133 9.605-1.202 14.438-1.531a28.038 28.038 0 013.562-.031c.891.052 1.695.206 2.594.156.485-.027.954-.141 1.437-.188 1.843-.179 3.64-.243 5.469-.594 2.604-.498 5.093-1.248 7.75-1.374a8.69 8.69 0 007.469-9.782c-.641-4.774-5.038-8.141-9.813-7.5z"
    ></path>
    <path
      fill="#924c27"
      d="M117.344 144.656c-1.799.276-3.785.514-5.406 1.406-.343.189-.638.479-.969.688-.459.289-1.44.794-1.875 1.125-.872.663-1.676 1.493-2.5 2.219-3.247 2.859-6.205 6.034-9.094 9.25 3.768-.204 7.536-.379 11.281.218 1.19.19 2.249.646 3.375 1.032.594.203.916.175 1.5.406.254.1.466.272.719.375 1.001.408 2.191.533 3.25.719 4.817-.077 8.67-4.027 8.594-8.844-.077-4.817-4.059-8.67-8.875-8.594z"
    ></path>
    <path
      fill="#924c27"
      d="M134 144.25c-2.07-.033-4.095.078-6.094.656a20.835 20.835 0 00-5.406 2.469c-.675.434-1.294.971-1.969 1.406-.676.436-1.444.697-2.125 1.125-1.04.656-1.991 1.513-3 2.219-2.186 1.531-4.395 3.045-6.5 4.687-1.501 1.173-2.886 2.501-4.375 3.688-1.333 1.063-2.765 1.984-4.156 2.969-2.03 1.438-4.05 2.913-6.063 4.375 2.42-.539 4.857-1.115 7.282-1.625 1.716-.361 3.449-.624 5.156-1.031 2.077-.496 4.08-1.257 6.188-1.626 1.708-.299 3.49-.574 5.218-.718 1.574-.131 3.181-.086 4.75-.25.772-.081 1.509-.331 2.282-.406.816-.08 1.655-.019 2.468-.126 1.309-.17 2.636-.757 3.969-.687.35.018.694.174 1.031.25 4.803.372 9.003-3.228 9.375-8.031.373-4.803-3.228-8.972-8.031-9.344zM406.562 67c-.999 3.16-3.608 3.68-6.5 4.531a20.97 20.97 0 00-2.937 1.094c-3.904 1.802-7.042 4.793-10.594 7.156-2.046 1.362-4.322 2.148-6.5 3.25-1.699.86-3.06 2.12-4.593 3.219-1.889 1.354-3.942 2.5-5.938 3.688-5.595 3.327-11.399 6.196-17.281 8.968-4.082 1.924-8.18 3.97-12.5 5.313-4.717 1.465-9.802 1.606-14.688 2.031-5.209.453-10.417.941-15.625 1.406-3.513.314-7.032.546-10.531 1-2.613.34-5.187.805-7.813 1.063-7.011.689-14.152.962-21.187.531-2.43-.149-4.951-.274-7.344-.75a8.473 8.473 0 01-1.625-.594c-.758-4.695-5.121-7.939-9.844-7.25-4.766.696-8.07 5.14-7.374 9.906.274 1.656.666 3.252 1.374 4.782a15.875 15.875 0 002.876 4.218c6.125 6.488 15.903 6.3 24.124 6.157a93.306 93.306 0 006.75-.344 88.618 88.618 0 007.969-1.063c3.576-.652 7.073-1.647 10.625-2.406 1.266-.27 2.548-.477 3.813-.75 2.984-.643 5.91-1.431 8.875-2.156 3.392-.83 6.813-1.632 10.218-2.406 2.822-.642 5.636-1.26 8.469-1.844 4.974-1.025 9.992-2.077 14.625-4.219 4.167-1.926 8.063-4.384 11.969-6.781 6.279-3.853 12.404-7.892 18.281-12.344 1.398-1.058 2.842-2.089 4.156-3.25 1.13-.997 2.098-2.169 3.344-3.031 2.246-1.554 4.716-2.625 6.844-4.375 3.245-2.668 6.012-5.91 9.656-8.062.606-.358 1.233-.714 1.875-1 3.038-1.356 6.263-1.99 7.031-5.688z"
    ></path>
    <path
      fill="#924c27"
      d="M389.812 80.156c-3.607 1.894-7.466 3.282-11 5.313-2.121 1.219-3.867 2.937-5.937 4.219-1.808 1.118-3.855 1.799-5.719 2.812-1.287.7-2.529 1.448-3.812 2.156-3.85 2.126-7.787 4.094-11.719 6.063-1.67.836-3.342 1.702-5.031 2.5-1.225.578-2.536.869-3.844 1.187-1.446.352-2.872.733-4.281 1.219-3.21 1.108-6.361 2.505-9.407 4-1.109.544-2.229 1.03-3.312 1.625a125.148 125.148 0 00-8.375 5.031c-2.179 1.432-4.158 2.931-6.5 4.125-2.443 1.245-4.935 2.32-7.437 3.438-1.958.874-3.929 1.749-5.938 2.5-2.286.854-4.626 1.507-6.906 2.375-1.842.701-3.563 1.627-5.219 2.687-3.99 2.699-5.043 8.135-2.344 12.125 2.699 3.99 8.135 5.043 12.125 2.344 2.333-1.712 5.13-2.42 7.75-3.594 4.549-2.036 9.08-4.45 13.188-7.281 1.795-1.237 3.398-2.689 5.031-4.125 1.801-1.583 3.702-3.031 5.437-4.687 2.91-2.778 5.727-5.577 9-7.938 2.508-1.809 5.128-3.548 7.876-4.969 2.329-1.205 4.817-2.007 7-3.5 6.456-4.416 12.588-9.302 18.812-14.031 1.734-1.317 3.709-2.302 5.375-3.719 1.852-1.574 3.309-3.514 5.219-5.031 3.157-2.508 6.719-4.458 9.968-6.844z"
    ></path>
    <path
      fill="#924c27"
      d="M330.438 111.625c-4.72 1.91-9.301 1.996-14.313 2.063-3.222.042-6.437.214-9.656.343-1.168.047-2.341-.023-3.5.125-.566.073-1.124.287-1.688.375-1.157.182-2.324.219-3.469.469-.345.055-.686-.005-1.031.094-.563.202-1.104.393-1.656.625a6.947 6.947 0 00-.375.187c-.072.025-.147.038-.219.063-.513.178-1.026.362-1.531.562-.173.069-.371.116-.5.25-1.289 1.349-2.507 2.796-3.75 4.188-.177.198-.189.49-.25.75-.15.64-.351 1.28-.375 1.937-.031.831-.009 1.662.187 2.469a9.342 9.342 0 001.032 2.5c.41.699.98 1.311 1.562 1.875.794.768 1.766 1.322 2.782 1.719 3.012 1.175 4.963.076 7.906-.375 2.488-.712 4.331-2.465 5.375-4.625.219-.114.422-.235.625-.375.868-.599 1.65-1.345 2.5-1.969 1.639-1.204 3.365-2.292 5.125-3.313 3.952-2.292 8.244-4.073 11.906-6.843 1.229-.93 2.269-1.966 3.313-3.094zm-29.626 19.906c-.03.033-.063.062-.093.094-.059.064-.321.175-.25.125.11-.078.232-.143.343-.219zm114-23.906c-6.985.864-12.992 4.494-19.468 6.969-4.943 1.888-10.155 2.779-15.219 4.25-4.716 1.37-9.138 3.614-13.875 4.906-5.765 1.572-11.855 1.841-17.75 2.688-3.581.514-7.199.963-10.75 1.656-1.547.302-3.07.734-4.625 1-1.532.262-3.086.413-4.625.625-2.604.358-5.177.797-7.781 1.156-5.832.805-11.698 1.074-17.5 2.125-4.715.988-7.738 5.629-6.75 10.344.988 4.715 5.597 7.738 10.312 6.75 5.994-1.455 12.167-2.049 18.157-3.532a80.643 80.643 0 007.187-2.124c1.546-.54 3.051-1.141 4.594-1.688 1.51-.536 3.048-.947 4.562-1.469 3.351-1.154 6.607-2.599 9.938-3.812 5.92-2.156 12.105-3.601 17.843-6.25 4.512-2.083 8.552-5.014 13.032-7.157 4.827-2.309 9.924-4.01 14.594-6.656 6.008-3.404 11.375-7.888 18.124-9.781z"
    ></path>
    <path
      fill="#924c27"
      d="M404.531 110.719c-2.5 1.626-5.043 3.174-7.75 4.437-.984.459-2.007.889-3.031 1.25-.521.184-1.423.447-1.938.688-.843.394-1.429 1.137-2.25 1.562-1.018.529-2.073 1.007-3.093 1.532-2.177 1.118-4.291 2.352-6.469 3.468-2.503 1.283-5.118 2.34-7.719 3.406a491.129 491.129 0 01-8.093 3.25c-2.306.898-4.656 1.651-7 2.438a343.45 343.45 0 01-11.688 3.688c-2.762.817-5.568 1.497-8.281 2.468-2.596.929-5.271 1.604-7.844 2.594-1.365.525-2.422 1.02-3.75 1.625-4.283 1.953-8.778 4.568-13.656 4-4.806-.325-8.988 3.319-9.313 8.125-.324 4.806 3.319 8.957 8.125 9.281 1.84.072 3.644.048 5.469-.219 4.823-.704 9.247-2.745 13.438-5.156 3.391-1.951 6.522-4.37 9.968-6.218 1.38-.741 2.86-1.312 4.25-2.032 1.528-.79 2.981-1.701 4.469-2.562a565.208 565.208 0 016.281-3.594c8.314-4.674 16.507-9.44 24.438-14.75 2.48-1.661 4.806-3.539 7.156-5.375 1.588-1.24 3.243-2.373 4.844-3.594a7.48 7.48 0 001.187-1.125c.214-.255.374-.528.657-.718.402-.271 1.282-.7 1.656-.907 1-.555 1.995-1.163 2.937-1.812 2.495-1.719 4.773-3.703 7-5.75z"
    ></path>
    <path
      fill="#924c27"
      d="M277.75 149.031a95.437 95.437 0 00-7.656.125c-4.802.389-8.389 4.605-8 9.406.389 4.802 4.605 8.358 9.406 7.969 5.299-.562 10.619-.54 15.938-.281 4.761.232 9.517.699 14.281.875 1.944.072 3.899.056 5.843.125 2.91.103 5.782.497 8.688.656 5.812.318 11.622.703 17.406 1.375 14.856 1.726 29.557 4.559 44.032 8.313 2.489.645 4.946 1.378 7.281 2.468 1.548.724 2.886 1.753 4.531 2.282 4.487 1.441 9.168 2.257 13.719 3.468 2.866.764 5.595 2 8.437 2.844-2.742-1.186-5.318-2.734-8.094-3.844-4.329-1.73-8.814-3.1-13.062-5.031-1.447-.658-2.6-1.79-3.938-2.625-2.084-1.301-4.287-2.331-6.562-3.25-15.4-6.222-31.256-11.334-47.312-15.562-4.849-1.277-9.7-2.567-14.594-3.656-2.958-.659-5.963-.998-8.938-1.563-2.862-.544-5.689-1.168-8.562-1.656-7.556-1.285-15.193-2.274-22.844-2.438z"
    ></path>
    <path
      fill="#924c27"
      d="M282 167.656c-4.558.05-9.114.424-13.656.782-6.23.489-12.456 1.037-18.688 1.5-4.794.465-8.309 4.736-7.844 9.531.466 4.794 4.737 8.277 9.532 7.812a879.783 879.783 0 0024.094-3.219c2.612-.386 5.237-.758 7.843-1.187 2.075-.342 4.128-.76 6.219-1 2.655-.304 5.339-.342 8-.594 6.05-.571 12.102-1.038 18.156-1.562 4.247-.368 8.47-.918 12.719-1.25 6.594-.516 13.233-.602 19.844-.657 4.426-.036 8.855-.162 13.281-.031 5.109.151 10.233.626 15.312 1.188 6.646.734 13.285 1.867 19.594 4.125-6.968-3.47-14.515-5.512-22.094-7.156-3.893-.845-7.812-1.634-11.75-2.25-5.158-.808-10.378-1.324-15.562-1.938-6.21-.736-12.415-1.385-18.656-1.781-4.28-.272-8.594-.317-12.875-.563-6.056-.348-12.075-1.023-18.125-1.437-2.259-.155-4.489-.141-6.75-.157-2.864-.019-5.73-.187-8.594-.156z"
    ></path>
    <path
      fill="#924c27"
      d="M279.312 159.281c-3.359.025-6.681.288-10 1-4.69 1.099-7.629 5.81-6.531 10.5 1.099 4.691 5.81 7.599 10.5 6.5 3.805-.994 7.744-1.044 11.657-.969 2.887.056 5.771.178 8.656.313 4.414.207 8.803.558 13.218.75 2.596.113 5.187.152 7.782.281 1.971.098 3.934.295 5.906.375 5.369.22 10.843-.069 16.188-.593 2.302-.226 4.598-.521 6.906-.688 3.561-.258 7.149-.315 10.718-.219 4.777.907 9.557 1.877 14.407 2.344 1.906.183 3.752.095 5.656.094.094 0 .158.075.25.093.176.037.384.101.563.126.331.045.766.07 1.093.031 3.224-.391 4.665-4.324 1.75-6.281-.852-.573-1.794-.774-2.812-1.032a68.8 68.8 0 00-2.407-.562c-3.361-.729-6.671-1.614-10.031-2.344-3.786-.823-7.59-1.498-11.437-1.969-5.594-.685-11.201-.686-16.813-1.062-4.328-.29-8.579-1.004-12.875-1.563-1.868-.243-3.731-.42-5.594-.718-3.806-.61-7.565-1.465-11.374-2.063-5.069-.796-10.175-1.363-15.282-1.844-3.359-.316-6.734-.525-10.094-.5zm-145.718 2.375c-3.518.567-6.994 1.511-10.188 3.125-.953.482-1.798 1.146-2.718 1.688-.854.501-1.783.855-2.626 1.375-1.3.802-2.537 1.687-3.874 2.437-3.568 2.001-7.269 3.731-10.876 5.657-4.441 2.371-8.703 5.047-13.187 7.343 4.959-.501 9.85-1.534 14.813-1.969 4.021-.352 8.06-.518 12.093-.656 1.67-.057 3.367-.004 5.031-.156 1.035-.094 2.061-.392 3.094-.5 1.008-.105 2.026-.094 3.032-.219 2.385-.297 4.717-.731 7.124-.75 4.795-.469 8.282-4.737 7.813-9.531-.469-4.794-4.737-8.313-9.531-7.844z"
    ></path>
    <path
      fill="#924c27"
      d="M110.188 155.844c-1.807.16-3.638.356-5.282 1.187-.814.412-1.34 1.035-2.062 1.563-.2.146-.467.216-.656.375-.729.611-1.241 1.623-1.719 2.406-1.064 1.742-1.885 3.612-2.906 5.375-.828 1.428-1.804 2.744-2.75 4.094a99.9 99.9 0 006.406-.094c1.783-.085 3.761-.278 5.469.406.134.054.225.167.343.25.306.214.594.221.844.5.428.48.668 1.094 1.281 1.344 4.809.292 8.927-3.379 9.219-8.188.292-4.808-3.379-8.927-8.187-9.218z"
    ></path>
    <path
      fill="#924c27"
      d="M150.656 137.406c-1.116-.193-2.264-.148-3.437.125-3.772 1.115-7.534 2.465-10.969 4.407-.991.56-1.857 1.264-2.812 1.874-.603.385-1.285.649-1.907 1-.931.526-1.777 1.238-2.656 1.844-1.718 1.184-3.439 2.307-5.25 3.344-4.358 2.495-8.957 4.617-13.5 6.75-3.736 1.754-7.442 3.532-11.25 5.125 4.696-.325 9.351-.907 14.031-1.406 7.549-.806 15.092-1.579 22.594-2.75 1.09-.17 2.076-.579 3.156-.781 1.039-.196 2.117-.26 3.156-.469 3.131-.631 6.187-1.462 9.344-1.969 4.692-1.093 7.625-5.777 6.532-10.469-.82-3.518-3.682-6.045-7.032-6.625z"
    ></path>
    <path
      fill="#924c27"
      d="M148.75 128.844c-3.009-.012-6.108.082-9.031.875-.871.236-1.664.661-2.531.906-.408.115-.841.111-1.25.219-.794.209-1.568.575-2.344.844-.993.343-2.006.647-3.032.874-7.2 1.601-14.695 1.599-22.031 1.938 5.744 2.328 11.478 4.75 17.313 6.844 3 1.076 6.035 2.14 9.125 2.937.942.243 1.913.284 2.875.438.921.147 1.83.439 2.75.593 2.254.379 4.525.504 6.781.907a8.71 8.71 0 009.375-8 8.708 8.708 0 00-8-9.375z"
    ></path>
    <path
      fill="#924c27"
      d="M140.594 128.469c-1.731.049-3.436.254-5.094.75-.594.177-1.168.474-1.75.687-1.072.392-2.17.675-3.219 1.125-1.914.822-3.707 1.844-5.687 2.531-6.267 2.176-12.97 3.141-19.438 4.532 6.631 1.556 13.225 3.423 19.906 4.75 1.749.347 3.495.565 5.25.875.566.099 1.151.233 1.719.312 1.035.145 2.065.162 3.094.344.483.086.956.218 1.437.313.855.168 1.734.239 2.594.374.99.157 1.987.474 2.938.782a8.69 8.69 0 0010.25-6.813c.95-4.722-2.09-9.331-6.813-10.281-1.697-.216-3.457-.331-5.187-.281z"
    ></path>
    <path
      fill="#924c27"
      d="M117.969 135.375c-.89-.09-1.799.056-2.688.156-1.166.132-2.18.408-3.281.781-4.073 1.382-7.629 3.867-11.344 5.969 3.068.693 6.253 1.071 9.188 2.25.913.367 1.961.813 2.687 1.5.929.879.768 2.269 1.188 3.375.268.706 1.052 1.34 1.593 1.813.944.824 1.986 1.463 3.063 2.093a8.632 8.632 0 003.375.75 8.736 8.736 0 008.156-5.156 8.693 8.693 0 00.782-3.375 8.738 8.738 0 00-5.157-8.156c-.32-.047-.657.013-.969-.063-.689-.166-1.292-.556-1.968-.75-.685-.196-1.372-.323-2.063-.5-.858-.219-1.681-.598-2.562-.687z"
    ></path>
    <path
      fill="#924c27"
      d="M10.906 77.469c-.58-.264-1.359.079-1.937.156.544-.015 1.328-.293 1.844 0 .637.362.377 1.368.562 1.969.134.435.492.914.688 1.25.201.346.356.708.593 1.031.911 1.244 2.17 2.32 3.313 3.344 1.59 1.422 3.47 2.428 5 3.937 2.248 2.219 3.947 4.892 6.281 7.031 4.205 3.855 8.89 7.164 13.656 10.282 4.969 3.25 10.393 5.948 15 9.719 4.43 3.625 8.088 8.091 13.313 10.656 1.208.593 2.47 1.081 3.687 1.656 2.822 1.332 5.59 2.809 8.531 3.875.962.348 1.936.643 2.938.844 1.047.21 2.125.276 3.156.562 1.65.458 3.264 1.147 4.875 1.719 2.241.796 4.501 1.471 6.875 1.719 1.719.179 3.553.355 5.281.343 3.032-.019 6.023-.506 9.032-.812 3.524-.359 7.061-.695 10.594-.969 2.186-.169 4.374-.163 6.562-.281a81.879 81.879 0 007.625-.781c6.875-1.023 13.466-3.031 19.875-5.688a8.706 8.706 0 005.219-8.093 8.688 8.688 0 00-.75-3.376c-1.935-4.411-7.057-6.434-11.469-4.5-5.677 2.629-11.578 4.629-17.75 5.719-3.753.663-7.559.845-11.312 1.5-3.27.571-6.472 1.453-9.688 2.25-2.216.55-4.434.891-6.688 1.219-.679.099-1.32.275-2 .375-1.037.152-2.113.171-3.156.281-.648.069-.89.152-1.5.156-3.28.022-6.476-1.251-9.719-1.624-1.534-.177-3.1-.057-4.624-.313-2.947-.495-5.765-1.71-8.594-2.625-1.394-.451-2.82-.757-4.188-1.281-2.96-1.135-5.51-3.162-8.031-5.031-1.842-1.366-3.679-2.71-5.656-3.876-5.254-3.096-11.03-5.222-16.438-8.031-4.649-2.415-9.42-4.996-13.5-8.312-2.185-1.777-4.016-3.963-6.219-5.719-1.717-1.37-3.703-2.196-5.468-3.469-1.197-.863-2.533-1.746-3.531-2.844-.254-.278-.435-.602-.657-.906-.254-.347-.589-.663-.75-1.062-.269-.668-.1-1.649-.875-2zm300.656 82.062c-3.235.119-6.408.562-9.562 1.281-4.667 1.195-7.476 5.959-6.281 10.626 1.194 4.666 5.958 7.475 10.625 6.281 7.252-2.12 14.656-1.259 22.094-1.219 1.851.01 3.68-.131 5.531-.125 2.125.007 4.25.281 6.375.313 9.899.148 19.788.495 29.687.25 5.603-.139 11.139-1.264 16.5-2.844 4.153-1.224 8.199-2.721 12.313-4.063 3.896-1.271 7.875-2.209 11.844-3.219a240.573 240.573 0 008.906-2.437c-3.036.422-6.076.788-9.125 1.094-4.135.414-8.273.749-12.375 1.437-9.164 1.537-18.316 3.617-27.656 2.313-5.84-.816-11.62-1.945-17.376-3.219-3.735-.827-7.419-1.81-11.156-2.625-2.721-.594-5.517-.863-8.25-1.406-7.245-1.44-14.677-2.71-22.094-2.438z"
    ></path>
    <path
      fill="#924c27"
      d="M403.781 126.781c-3.324-.036-6.626.051-9.937.407-3.958.425-7.822 1.411-11.719 2.187-3.52.701-7.06 1.159-10.625 1.563-5.901.668-11.827 1.138-17.75 1.562-4.254.304-8.541.479-12.781.938-2.093.226-4.146.686-6.219 1.031-2.917.484-5.831.815-8.719 1.469-3.613.817-7.112 2.027-10.687 2.968-2.427.639-4.883 1.056-7.282 1.813-2.948.93-5.637 2.239-8.062 4.156-3.708 3.075-4.231 8.573-1.156 12.281s8.573 4.231 12.281 1.156c1.445-1.344 3.503-1.791 5.344-2.343 1.74-.522 3.489-1.039 5.187-1.688 3.637-1.389 7.266-2.745 10.906-4.125 1.444-.547 2.888-1.175 4.344-1.687 2.198-.773 4.462-1.227 6.688-1.907 10.13-3.092 20.472-5.44 30.656-8.343 3.213-.916 6.392-1.849 9.531-3 3.588-1.315 7.102-2.864 10.813-3.813 6.294-1.609 12.782-2.116 19.218-2.844 3.449-.389 6.832-1.185 10.282-1.531-3.448-.148-6.892.136-10.344.031-3.319-.1-6.645-.244-9.969-.281zm-27.125-58.687c-3.769 4.168-7.246 8.673-11.406 12.469-3.933 3.587-8.609 6.123-13.031 9.03-1.332.876-2.627 1.781-3.844 2.813-1.274 1.08-2.417 2.348-3.813 3.281-1.736 1.162-3.974 1.476-5.874 2.313-1.102.485-2.149 1.081-3.219 1.625-2.233 1.134-4.499 2.24-6.844 3.125-1.27.479-2.58.792-3.844 1.281-.723.281-1.354.645-2.093.875-1.493.465-3.097.677-4.626 1-1.622.343-3.236.744-4.843 1.156-5.332 1.368-10.558 2.981-15.594 5.219-4.334 2.102-6.165 7.322-4.063 11.657 1.577 3.25 4.918 5.081 8.313 4.906a8.687 8.687 0 003.344-.875c5.745-3.073 12.032-4.851 17.906-7.625 1.213-.573 2.334-1.305 3.531-1.906 2.149-1.08 4.344-2.052 6.344-3.407 2.927-1.982 5.619-4.344 8.312-6.625.661-.559 1.38-1.233 2.094-1.781 1.959-1.504 4.208-2.472 6.032-4.187 1.574-1.482 2.714-3.337 4.031-5.032.818-1.053 1.774-1.998 2.719-2.937 3.886-3.867 8.088-7.384 11.406-11.782 3.447-4.568 6.08-9.723 9.062-14.593zM17.562 84.188c.24 1.024.562 2.027 1.407 2.718 1.08.885 2.493.918 3.219 2.25.58 1.065.336 2.284.468 3.438.111.968.514 1.826 1.063 2.625 1.42 2.07 3.55 3.362 5.312 5.093 1.36 1.337 2.404 2.992 3.781 4.313 1.148 1.101 2.532 1.884 3.813 2.813 1.34.971 2.55 2.118 3.813 3.187 7.466 6.321 15.415 12.247 24.093 16.813 5.554 2.921 11.38 5.277 16.844 8.374 2.37 1.344 4.655 2.857 7.031 4.188 2.714 1.52 5.5 2.863 8.188 4.438 4.416 2.587 8.903 5.472 13.844 6.937 2.857.847 5.837 1.208 8.812 1.25 3.361.048 6.714-.434 10.062 0 4.796.458 9.074-3.048 9.532-7.844.458-4.795-3.08-9.073-7.875-9.531-2.273-.166-4.51-.116-6.781.062-3.008.237-5.992.676-9 .313-1.064-.128-2.097-.536-3.094-.906-1.821-.676-3.602-1.504-5.406-2.219-2.263-.896-4.565-1.591-6.844-2.438-1.438-.534-2.836-1.191-4.25-1.781-1.414-.589-2.87-1.115-4.313-1.625-3.075-1.086-6.126-2.213-9.25-3.156-5.926-1.79-11.954-3.282-17.718-5.562-8.065-3.191-15.767-7.588-23-12.344-.842-.554-1.677-1.113-2.563-1.594-1.23-.667-2.554-1.17-3.687-2-1.525-1.117-2.77-2.58-4.282-3.719-1.87-1.408-4.06-2.394-5.656-4.156-.393-.434-.78-.937-.969-1.5-.496-1.486-.32-3.019-1.437-4.281-1.057-1.195-2.317-.995-3.531-1.75-.876-.545-1.276-1.479-1.625-2.406z"
    ></path>
    <path
      fill="#924c27"
      d="M4.375 70.5c1.039 1.013 1.998 1.98 2.719 3.25.698 1.229 1.272 2.518 1.906 3.781.223.445.438.932.719 1.344.432.634 1.023 1.089 1.531 1.656.315.352.54.804.813 1.188.404.57.908 1.056 1.312 1.625.359.505.538 1.075.813 1.625.45.902 1.073 1.724 1.75 2.469 2.069 2.278 4.54 4.087 6.718 6.25.606.6 1.132 1.287 1.719 1.906 1.252 1.32 2.644 2.53 4.188 3.5.097.06.212.097.312.156.183.21.28.457.469.656.75.791 1.597 1.627 2.5 2.313.064.118.128.24.187.343.368.641.784 1.264 1.281 1.813 1.359 1.498 2.995 2.725 4.626 3.906 1.955 1.416 3.96 2.839 6.062 4.031 1.302.739 2.782 1.175 4.031 2 1.274.842 2.298 2.201 3.438 3.25 2.625 2.418 5.96 3.795 8.969 5.657 1.125.696 2.28 1.416 3.437 2.062 1.217.679 2.451 1.297 3.656 2 2.413 1.407 4.746 2.94 7.25 4.188 3.055 1.522 6.273 2.621 9.375 4.031 4.421 2.01 8.154 5.397 12.844 6.844a8.726 8.726 0 0010.781-6c1.311-4.6-1.334-9.359-5.906-10.719.046.025-.107-.013-.156-.031-.057-.021-.292-.133-.344-.156-.216-.098-.443-.18-.656-.282a47.165 47.165 0 01-1.407-.718c-.533-.283-1.063-.557-1.593-.844-.491-.266-.978-.546-1.469-.813-3.262-1.772-6.685-2.992-10.219-4.093-3.806-1.187-7.628-2.35-11.375-3.719-2.308-.844-4.467-1.986-6.781-2.813-1.925-.687-3.89-1.306-5.844-1.906-.906-.278-2.032-.514-2.937-.906-.916-.397-1.713-1.006-2.531-1.563-1.224-.832-2.466-1.629-3.813-2.25-1.35-.622-2.798-.884-4.219-1.281-1.031-.288-2.015-.741-3-1.156-1.43-.603-2.852-1.232-4.219-1.969-.516-.278-1.03-.57-1.53-.875-.453-.276-.864-.62-1.344-.844-.33-.153-.63-.598-.844-.875-.672-.869-1.13-1.71-2.313-2.031-.09-.025-.16.049-.25.031-.15-.1-.29-.208-.437-.312-.641-.452-1.241-.948-1.875-1.407-.03-.021.016.061.031.094-.75-.707-1.625-1.212-2.625-1.125-.062-.033-.126-.06-.188-.094-1.823-.995-3.283-2.438-4.968-3.625-2.308-1.625-4.779-2.989-6.969-4.78-.576-.472-1.135-1.013-1.563-1.626-.434-.622-.78-1.259-1.312-1.812-.478-.497-1.056-.877-1.531-1.375-.388-.407-.695-.861-1.125-1.219-.524-.436-1.129-.779-1.594-1.281-.429-.464-.766-1.048-1.125-1.563-.703-1.008-1.4-2.03-2.156-3-.923-1.182-2.018-2.025-3.219-2.906zm27.188 23.938c.04.004.084-.005.125 0 .047.005.135.016.125.062-.004.015-.148-.028-.25-.063zm3.937 2.374c.029.005.256.133.281.157.055.05-.154-.056-.219-.094-.026-.015-.036-.047-.062-.063zm-4.531 3.094c.042.004.083-.001.125 0-.005.207-.03.419-.031.625-.03-.165-.065-.335-.094-.5-.007-.04-.002-.084 0-.125z"
    ></path>
    <path
      fill="#924c27"
      d="M119.125 124.375a18.98 18.98 0 00-7.031.906c-1.918.618-3.677 1.579-5.594 2.188-2.524.801-5.145 1.329-7.719 1.937-1.257.297-2.497.655-3.75.969-1.953.49-3.918.722-5.875 1.187-1.33.317-2.651.725-3.969 1.094-3.382.95-6.761 1.947-10.062 3.156-6.99 2.561-13.606 6.013-20.688 8.344-4.59 1.512-9.373 2.438-14.093 3.438-4.08.864-8.127 1.801-12.156 2.875 3.01-.217 6.014-.387 9.03-.469 6.102-.166 12.24-.121 18.313-.812 7.408-.844 14.609-2.891 22-3.813 4.441-.554 8.822-.419 13.281-.469 1.306-.014 2.602-.143 3.907-.187 2.01-.068 4.02.095 6.031.031 3.657-.116 7.372-.559 10.938-1.406 1.287-.306 2.53-.73 3.781-1.156.67-.229 1.43-.561 2.156-.563.066 0-.25.072-.187.094.057.02.127.02.187.031 4.799.418 9.02-3.138 9.437-7.938.418-4.799-3.138-9.019-7.937-9.437zm6.406 24.531c-1.371.263-2.736.56-4.125.719-.563.065-1.158.008-1.718.094-.639.098-1.251.304-1.876.469-2.657.698-5.279 1.538-7.906 2.343-2.415.741-4.895 1.461-7.406 1.781 3.375 2.288 7.278 3.649 10.75 5.782.469.288 1.342.856 1.781 1.187.652.492 1.189 1.13 1.813 1.657.337.284.741.485 1.094.75.416.312.786.708 1.218 1 .384.258 1.265.571 1.688.718 1.378.479 2.777.735 4.218.938 4.816.131 8.838-3.685 8.969-8.5.132-4.816-3.684-8.807-8.5-8.938z"
    ></path>
    <path
      fill="#924c27"
      d="M122.719 131.875a8.724 8.724 0 00-3.469.031c-2.615.661-5.114 1.521-7.562 2.656-2.762 1.281-5.463 2.689-8.282 3.844-1.028.422-2.053.852-3.125 1.156-1.093.312-2.208.419-3.312.688-2.752.67-5.508 1.275-8.313 1.688-4.75.698-9.58 1.031-14.281 2.031-3.368.716-6.469 2.201-9.563 3.656-1.514.712-3.066 1.535-4.718 1.875-2.563.528-5.257.321-7.844.125-2.437-.185-4.867-.446-7.313-.5 5.078 1.269 10.125 3.726 15.438 3.844 2.008.044 3.985-.465 5.938-.875 3.258-.685 6.495-1.369 9.843-1.094 4.628.379 9.247 1.114 13.844 1.75 2.67.37 5.369.77 8.063.906 1.422.072 2.799-.104 4.218-.156 1.478-.054 2.965-.031 4.438-.188 5.628-.597 10.608-3.489 16.156-4.343a8.722 8.722 0 00-.156-17.094z"
    ></path>
    <path
      fill="#924c27"
      d="M118.75 135.969a8.671 8.671 0 00-6 2.906c-.666 1.018-1.368 2.023-2 3.063-.367.603-.578 1.311-.906 1.937-.161.307-.42.543-.594.844-.381.658-.628 1.383-.969 2.062-.652 1.302-1.421 2.656-2.312 3.813-1.182 1.535-2.746 2.748-4.094 4.125-1.533 1.566-2.752 3.395-4 5.187 1.936-.655 3.876-1.38 5.906-1.687 1.691-.256 3.405-.26 5.094-.531 1.702-.274 3.362-.768 5.031-1.188 1.301-.327 2.688-.531 3.938-1.031.411-.165.778-.424 1.187-.594.439-.182.908-.282 1.344-.469 2.046-.875 3.808-2.467 5.437-3.937 3.195-3.606 2.856-9.119-.75-12.313a8.706 8.706 0 00-6.312-2.187zm-45.969 34.406a8.728 8.728 0 00-6.531 1.437c-2.03 1.601-4.35 2.791-6.375 4.407-2.094 1.671-4.118 3.44-6.094 5.25-.963.882-1.826 1.861-2.781 2.75-.971.904-2.076 1.645-3.063 2.531-1.943 1.746-3.78 3.565-5.78 5.25-3.803 3.201-7.996 5.906-11.782 9.125-1.703 1.448-3.332 2.979-4.969 4.5-.877.815-1.728 1.715-2.687 2.437-1.92 1.445-4.196 2.343-6.188 3.688-2.315 1.564-4.53 3.345-7.156 4.375-1.015.398-2.022.609-3.094.781 4.262.299 7.628-1.299 11.5-2.781 2.313-.885 4.79-1.259 7.063-2.25 1.264-.551 2.448-1.276 3.656-1.937 1.887-1.033 3.787-2.084 5.719-3.032 2.736-1.342 5.574-2.356 8.406-3.468 3.902-1.534 7.769-3.19 11.594-4.907 1.687-.757 3.165-1.802 4.812-2.625 1.666-.831 3.327-1.621 4.938-2.562 1.934-1.131 3.78-2.39 5.687-3.563 2.139-1.314 4.444-2.295 6.563-3.656 3.952-2.754 4.941-8.204 2.187-12.156a8.695 8.695 0 00-5.625-3.594z"
    ></path>
    <path
      fill="#924c27"
      d="M140.094 156.906a8.791 8.791 0 00-3.469.313 40.879 40.879 0 00-6.719 2.812c-2.147 1.137-4.237 2.412-6.5 3.313-1.232.49-2.485.918-3.718 1.406-1.632.646-3.229 1.36-4.876 1.969-2.206.816-4.484 1.518-6.687 2.343-2.75 1.031-5.382 2.253-8.094 3.376-.758.314-1.559.58-2.312.906-2.632 1.139-5.127 2.558-7.688 3.844a491.624 491.624 0 01-14.219 6.843c-4.465 2.066-8.877 4.228-13.53 5.844-2.242.778-4.632.961-6.844 1.875-4.477 1.85-8.352 4.926-12.594 7.219-1.644.888-3.533 1.115-5.313 1.593-1.074.29-2.126.667-3.125 1.157-3.41 1.673-6.333 4.6-9.437 6.75-2.926 2.026-6.088 3.694-9.094 5.593-1.53.967-3.002 2.005-4.469 3.063a88.08 88.08 0 014.813-2.437c3.25-1.522 6.596-2.842 9.781-4.5 2.255-1.175 4.4-2.554 6.625-3.782 1.006-.555 2.034-1.155 3.125-1.531 2.613-.901 5.45-.615 8.094-1.406 4.742-1.419 8.947-4.335 13.75-5.594 1.474-.386 3.022-.351 4.531-.5 1.556-.153 3.102-.466 4.625-.813 5.381-1.225 10.64-2.956 15.938-4.5 5.88-1.713 11.783-3.415 17.656-5.156 2.268-.672 4.467-1.568 6.75-2.187 2.159-.586 4.371-.935 6.562-1.375 3.04-.61 6.085-1.28 9.032-2.25 3.126-1.03 6.371-1.877 9.406-3.156 3.175-1.339 6.148-3.126 9.5-4 4.619-1.366 7.241-6.225 5.875-10.844a8.7 8.7 0 00-7.375-6.188z"
    ></path>
    <path
      fill="#924c27"
      d="M121.125 146.594a8.741 8.741 0 00-3.437.5c-2.543.97-4.89 2.245-7.032 3.937-2.491 1.969-4.579 4.384-6.968 6.469-1.856 1.62-3.744 3.161-5.625 4.75-1.478 1.247-2.916 2.583-4.407 3.812-1.01.833-2.114 1.522-3.156 2.313-2.482 1.885-4.66 4.101-7.188 5.937-3.447 2.507-7.132 4.696-10.5 7.313-2.034 1.581-3.758 3.537-6 4.844-1.738 1.013-3.714 1.651-5.593 2.343-2.186.806-4.381 1.613-6.438 2.719-1.868 1.005-3.498 2.336-5.219 3.563a57.018 57.018 0 01-4.937 3.156c-2.464 1.397-5.137 2.42-7.656 3.719-3.452 1.779-6.685 3.902-9.906 6.062 3.484-1.597 6.975-3.154 10.625-4.343 2.742-.894 5.576-1.5 8.28-2.5a60.252 60.252 0 005.72-2.469c1.707-.842 3.4-1.815 5.218-2.407 4.233-1.376 8.777-1.44 12.969-2.968 2.842-1.036 5.228-2.821 7.906-4.156 4.573-2.281 9.414-3.909 14.031-6.094 2.153-1.019 4.328-2.097 6.376-3.313 1.129-.67 2.222-1.401 3.374-2.031 1.175-.643 2.385-1.207 3.563-1.844a75.185 75.185 0 007.031-4.344 76.28 76.28 0 005.438-4.156c1.854-1.547 3.531-3.167 5.875-3.875 4.544-1.599 6.943-6.581 5.343-11.125a8.714 8.714 0 00-7.687-5.812z"
    ></path>
    <path
      fill="#924c27"
      d="M121.688 137.094a8.765 8.765 0 00-3.344.968c-2.656 1.505-5.034 3.364-7.188 5.532-2.458 2.474-4.548 5.273-6.968 7.781-.856.886-1.745 1.777-2.719 2.531-1.164.901-2.472 1.549-3.688 2.375-2.678 1.82-5.423 3.773-7.781 6-1.775 1.676-2.842 3.774-4.344 5.657-.661.828-1.489 1.528-2.312 2.187-3.357 2.688-7.116 4.814-10.563 7.375-2.047 1.521-3.769 3.432-6.031 4.656-5.648 3.058-12.235 4.5-16.906 9.156 5.49-3.622 12.25-3.684 18.375-5.562 2.663-.816 4.92-2.409 7.437-3.531 3.978-1.773 8.12-3.136 12.063-5 2.057-.973 3.893-2.071 5.625-3.563 1.063-.915 2.155-2.257 3.5-2.812.937-.388 1.893-.825 2.844-1.188 1.88-.717 3.871-1.189 5.718-2 1.047-.459 2.045-.983 3.094-1.437 1.77-.767 3.504-1.536 5.125-2.594 2.66-1.736 4.935-3.974 7.281-6.094 1.715-1.549 3.418-3.069 5.532-4.031 4.266-2.237 5.924-7.484 3.687-11.75a8.716 8.716 0 00-8.437-4.656z"
    ></path>
    <path
      fill="#924c27"
      d="M120.812 139.781c-2.473-.104-4.873.079-7.25.813-3.688 1.139-6.69 3.454-9.656 5.844-1.244 1.002-2.513 1.982-3.718 3.031-1.247 1.085-2.403 2.276-3.72 3.281-.628.48-1.295.935-1.906 1.438-.946.777-1.807 1.62-2.718 2.437-1.478 1.325-3.034 2.587-4.594 3.813-4.987 3.917-10.207 7.504-15.156 11.468-.922.738-1.622 1.597-2.407 2.469-1.03 1.145-2.245 2.155-3.437 3.125-5.053 4.112-10.742 7.28-16.625 10.031 5.86-1.335 11.604-3.047 17.062-5.593a61.993 61.993 0 005.438-2.876c1.126-.669 2.06-1.574 3.25-2.124 8.364-3.867 17.024-7.087 25.437-10.844 1.534-.685 2.908-1.6 4.407-2.344 1.106-.549 2.231-.997 3.343-1.531a56.25 56.25 0 004.5-2.438c1.231-.736 2.407-1.568 3.688-2.219.421-.213.901-.453 1.375-.531.453-.074.932.061 1.375.125 4.803.366 9.009-3.228 9.375-8.031.366-4.803-3.259-8.978-8.063-9.344z"
    ></path>
    <path
      fill="#924c27"
      d="M118.625 137.562a8.737 8.737 0 00-3.281 1.126 59.333 59.333 0 00-5.063 3.593c-1.958 1.552-3.817 3.237-5.875 4.657a52.178 52.178 0 01-4.562 2.812c-1.29.706-2.52 1.381-3.688 2.281-3.05 2.355-5.872 4.974-9.125 7.063-3.18 2.042-6.74 3.378-10.062 5.156a35.51 35.51 0 00-5.157 3.344c-1.312 1.024-2.175 2.465-3.406 3.562-1.635 1.459-3.585 2.493-5.281 3.875-2.314 1.886-4.435 4-6.813 5.813 2.726-1.194 5.257-2.751 7.938-4.032 2.028-.968 4.228-1.507 6.219-2.562 1.241-.658 2.274-1.678 3.5-2.344.838-.456 1.874-.801 2.781-1.094 4.055-1.31 8.37-1.645 12.5-2.656 3.416-.836 6.682-2.178 9.969-3.406 1.426-.533 2.883-.949 4.312-1.469.649-.236 1.277-.552 1.938-.75 1.899-.569 3.853-.747 5.719-1.469 4.638-1.793 8.499-5.043 12.906-7.281a8.71 8.71 0 003.187-11.906 8.773 8.773 0 00-8.656-4.313z"
    ></path>
    <path
      fill="#924c27"
      d="M-2.375 141.094c7.415 3.78 15.63 4.302 23.688 5.718 7.467 1.313 14.806 3.441 22.343 4.344 5.849.701 11.779.591 17.625 1.313 3.516.434 6.787 1.825 10.281 2.343 2.984.443 6.068.342 9 1.094 1.587.407 3.152 1.067 4.688 1.625a41.482 41.482 0 006.313 1.719c4.397.845 8.913.613 13.312 1.406.28.051.537.117.813.188.032.008-.056.07-.032.094.167.156.376.274.563.406.367.26.917.598 1.281.812 1.113.654 2.288 1.21 3.531 1.563 1.081.307 2.159.441 3.219.469 3.179.083 6.264-.95 9.25-2.188 3.3-1.47 5.221-4.727 5.156-8.125a8.697 8.697 0 00-12.25-7.781c-.512.245-1.05.473-1.562.718a14.861 14.861 0 00-1-.562c-.716-.362-1.433-.731-2.188-1-2.094-.747-4.298-.998-6.5-1.125-3.603-.208-7.21.014-10.812.156-1.384.055-2.87.192-4.25 0-1.411-.196-2.716-.734-4.094-1.062a20.482 20.482 0 00-4.063-.563c-3.383-.107-6.689.78-10.062.813-1.68.016-3.363-.23-5.031-.375a39.453 39.453 0 00-5.281-.125c-5.884.266-11.705 1.274-17.594 1.469-7.443.245-14.85-.779-22.282-1.032-8.104-.276-16.262.373-24.062-2.312zm117.969 6.187c.02.008.042-.008.062 0 .039.016.381.178.375.188a1.592 1.592 0 01-.375-.157c-.019-.011-.043-.019-.062-.031z"
    ></path>
    <path
      fill="#924c27"
      d="M108.406 135.781c-.762-.074-1.554.022-2.312.125-.822.112-1.72.46-2.469.813-.245.115-.542.303-.813.469-.806.168-1.603.377-2.406.562-1.323.305-2.636.579-3.969.844-1.856.369-3.73.638-5.593.968-2.435.433-4.849.887-7.313 1.126-4.434.428-8.89 1.514-13.156 2.781-1.35.401-2.682.879-4.031 1.281-1.997.595-4.012 1.04-6.063 1.406-12.36 2.207-25.068 1.138-37.5.282-4.351-.3-8.72.133-13.062-.219-3.342-.272-6.572-1.199-9.719-2.313 3.02 1.595 6.16 3.01 9.5 3.782 4.222.975 8.576 1.169 12.812 2.093 11.981 2.614 23.972 5.386 36.282 5.75 2.848.085 5.723.03 8.562-.219 2.465-.215 4.903-.614 7.375-.75 2.646-.145 5.291-.008 7.938-.031 1.725-.014 3.429-.137 5.156-.093 1.787.045 3.586.204 5.375.218.773.006 1.54-.101 2.313-.125.248.308.58.655.75.813.464.432.955.798 1.5 1.125 1.032.621 2.16.986 3.343 1.187.177.03.352.106.532.094.979-.068 1.96-.122 2.937-.219.344-.034 1.188-.314 1.469-.406.104-.034.209-.089.312-.125-.192.123-.546.169-.75.219 2.978-.534 5.186-2.578 6.313-5.157.293-.197.6-.375.875-.593.373-.296.81-.525 1.094-.907.827-1.112 1.767-2.21 2.187-3.531.433-1.362.395-2.856.281-4.281-.065-.819-.383-1.594-.781-2.312-.49-.885-1.097-1.756-1.844-2.438-.761-.695-1.68-1.244-2.625-1.656-.79-.344-1.642-.48-2.5-.563zm-18.437 30.344a8.766 8.766 0 00-3.313 1.063c-1.94 1.226-4.035 1.612-6.25 2.124-2.339.542-4.644 1.202-6.875 2.094a112.184 112.184 0 00-4.875 2.094c-.464.212-.885.46-1.375.625-2.049.692-4.223.783-6.312 1.313-1.512.383-2.996.868-4.5 1.281-3.08.845-6.193 1.575-9.344 2.093a89.868 89.868 0 01-8.781 1c-1.9.124-3.822.185-5.719.344-4.546.382-9.083 1.083-13.656.938-4.65-.148-9.008-2.028-13.625-2.438-2.125-.188-4.247.078-6.375.032-1.047-.023-2.12-.158-3.156-.313 1.005.342 2.022.663 3.062.875 2.644.539 5.332.725 7.906 1.594 3.414 1.152 6.512 3.069 10 4.031 5.631 1.554 11.55 1.621 17.313 2.375 3.731.488 7.431 1.059 11.187 1.344 3.327.252 6.682.366 10.031.375 3.35.009 6.707-.088 10.032-.313 2.222-.15 4.445.037 6.656-.312 2.748-.434 5.367-1.342 8.063-2 2.426-.592 4.958-.703 7.406-1.188 2.728-.54 5.254-1.469 7.719-2.75a8.688 8.688 0 003.343-11.844 8.729 8.729 0 00-8.562-4.437z"
    ></path>
    <path
      fill="#924c27"
      d="M82.688 140.094c-2.155 4.308-.434 9.564 3.874 11.718a8.695 8.695 0 003.344.907c3.392.215 6.76-1.581 8.375-4.813-3.342-3.066-3.72-3.376-3.344-3.062.556.463 2.248 1.806 1.72 1.312-.887-.826-1.853-1.572-2.813-2.312-.388-.299-2.25-2.063-2.25-2.063s-5.173-1.01-4.469-.843c.477.113 1.941.381 1.469.25-1.168-.325-2.37-.631-3.563-.844-.712-.128.024.004-2.344-.25z"
    ></path>
    <path
      fill="#924c27"
      d="M7.406 125.875c2.786 1.985 5.246 4.354 8 6.375 3.791 2.782 8 4.866 12.156 7.031 2.538 1.322 5.003 2.816 7.625 3.969 6.531 2.873 13.596 4.236 20.594 5.406 4.252.711 8.517 1.6 12.813 2 1.517.142 3.04.068 4.562.094 2.712.045 5.33.057 8.031-.219 3.563-.363 7.166-.218 10.72-.719 3.778-.532 7.306-1.774 10.499-3.874a8.693 8.693 0 002.125-12.126c-2.767-3.943-8.213-4.923-12.156-2.156-2.009 1.627-4.922 1.856-7.375 2.219-2.585.383-5.141.77-7.656 1.5-1.396.405-2.766.911-4.188 1.219-1.557.337-3.145.351-4.719.562-4.02.54-8.01.988-12.062 1.219-6.437.367-12.94.534-19.281-.844-2.667-.579-5.235-1.553-7.844-2.343-4.352-1.32-8.765-2.551-12.875-4.532-3.056-1.472-5.89-3.348-8.969-4.781zm87.531 33.969a8.768 8.768 0 00-3.437.531c-2.312 1.201-4.966 1.201-7.375 2.187-.86.353-2.025 1.105-2.875 1.5-.462.215-.98.338-1.438.563-1.856.915-3.595 2.208-5.343 3.313-7.38 4.663-13.857 10.014-18.375 17.593 6.49-4.755 13.763-7.229 21.781-7.75 1.384-.09 2.77-.092 4.156-.062.465.01.942.056 1.406.031.452-.024.893-.164 1.344-.188 2.075-.109 4.168.258 6.25.25 2.203-.007 4.333-.44 6.438-1.062a8.74 8.74 0 005.75-7.75 8.788 8.788 0 00-.531-3.438c-1.235-3.395-4.356-5.544-7.75-5.718zM27.219 75.375c1.67 3.158 3.932 5.87 6.187 8.625 2.412 2.947 4.841 5.899 7.094 8.969 1.31 1.786 1.912 3.958 3.281 5.719 1.2 1.542 2.868 2.654 4.031 4.218 1.358 1.825 2.204 3.89 3.72 5.625 1.722 1.973 3.907 3.464 5.718 5.344 1.257 1.305 2.243 2.881 3.469 4.219 1.853 2.022 4.051 3.767 6.094 5.594 1.574 1.408 3.123 2.881 4.906 4.031 1.09.703 2.275 1.242 3.406 1.875a123.742 123.742 0 0013.344 6.468c3.384 1.393 6.88 2.551 10.187 4.126a8.652 8.652 0 003.375.718 8.719 8.719 0 008.063-5.281 8.766 8.766 0 00.718-3.406 8.719 8.719 0 00-5.281-8.063c-3.742-1.465-7.596-2.471-11.437-3.625-2.147-.644-4.248-1.39-6.407-2-2.546-.719-5.245-1.109-7.718-2.062-.573-.221-.938-.43-1.5-.688-2.26-1.036-4.493-2.044-6.688-3.219-1.33-.711-2.78-1.308-4.031-2.156-1.666-1.129-3.098-2.576-4.781-3.687-1.972-1.302-4.208-2.225-6.094-3.657-1.725-1.308-2.913-3.136-4.531-4.562-1.458-1.284-3.28-2.06-4.75-3.313-.975-.829-1.614-1.927-2.375-2.937-.697-.924-1.493-1.72-2.344-2.5-2.645-2.426-5.358-4.77-8.094-7.094-2.683-2.279-5.377-4.507-7.562-7.281zM228.28 213.844c-.854.574-1.777.978-2.687 1.437a1.64 1.64 0 00-1.375-.656c-.371.011-.694.206-1.031.344-.033.005-.063-.001-.094 0-.365.008-.729-.002-1.094 0-.885.005-1.773-.163-2.656-.094-.645.05-1.289.259-1.906.437-.534.155-1.058.293-1.594.438a2.098 2.098 0 00-2.938.406c-.378.531-.771 1.179-.656 1.875.074.452.225.915.5 1.281.234.312.621.512.969.688.203.103.43.126.656.156 1.195.16 2.613-.502 3.687-.906.212-.079.415-.169.626-.25.18-.07.35-.148.531-.219.16-.045.352-.086.469-.125.101-.033.21-.059.312-.094.08-.01.17-.019.25-.031.26-.038.521-.088.781-.125.829-.117 1.646-.167 2.469-.344.804-.172 1.95-.491 2.281-1.406.119-.328-.042-.585-.125-.875.9-.615 1.808-1.2 2.625-1.937z"
    ></path>
    <path
      fill="#311709"
      d="M201.031 337.656c-2.514.171-4.951.87-7.25 1.906-.587.265-1.171.535-1.719.876-.528.328-.998.756-1.5 1.124a2.1 2.1 0 00-.718 1.438 2.058 2.058 0 00.531 1.5c.384.433.902.687 1.437.719a2.134 2.134 0 001.532-.531c1.383-1.486 2.515-3.211 4-4.594 1.098-1.023 2.344-1.784 3.687-2.438zM4.781 71c4.24 5.848 8.578 11.614 13.25 17.125 10.262 12.105 21.843 23.204 34.75 32.469 8.768 6.293 18.18 11.484 27.969 16 1.174.529 2.565.017 3.094-1.156.529-1.174-.014-2.565-1.188-3.094-15.83-6.967-30.927-15.643-44.375-26.563C25.721 95.582 14.85 83.619 4.781 71z"
    ></path>
    <path
      fill="#311709"
      d="M6.781 74.375c6.406 6.941 13.032 13.687 20.313 19.719 2.568 2.128 5.19 4.274 7.969 6.125 1.909 1.271 3.8 2.561 5.78 3.719 2.754 1.608 5.623 3.037 8.5 4.406a2.339 2.339 0 003.094-1.156 2.338 2.338 0 00-1.156-3.094c-7.503-3.271-14.894-6.949-21.75-11.438-8.158-5.341-15.56-11.72-22.75-18.281zM24.969 73.906c1.424 1.77 2.934 3.516 4.281 5.344 1.338 1.816 2.568 3.754 3.781 5.656 3.38 5.298 6.302 10.888 9.875 16.063 1.639 2.373 3.537 4.549 5.5 6.656a2.27 2.27 0 001.625.687 2.385 2.385 0 001.688-.656c.461-.449.679-1.028.687-1.625a2.318 2.318 0 00-.656-1.656c-5.157-5.07-9.701-10.74-14.219-16.375-2.502-3.121-4.96-6.317-7.687-9.25-1.554-1.671-3.251-3.24-4.875-4.844zM3.656 123.719c4.993 3.144 10.137 5.981 15.563 8.312 11.712 5.034 24.41 7.705 37.156 7.938 8.745.159 17.388-.964 25.938-2.719 1.258-.273 2.085-1.523 1.812-2.781a2.337 2.337 0 00-2.781-1.781c-13.938 3.182-28.43 4.996-42.688 3.093-12.398-1.654-24.09-6.037-35-12.062zM-3.969 178.656c6.493 1.119 12.646 3.124 18.813 5.406 4.869 1.803 9.723 3.677 14.75 5 1.961.517 3.987.986 6 1.25 2.953.388 5.965.575 8.937.344 3.288-.255 6.474-.958 9.625-1.906 1.228-.389 1.89-1.71 1.5-2.938a2.3 2.3 0 00-2.906-1.5c-4.673 1.564-9.558 2.463-14.5 2.469-8.662.012-16.976-2.614-25.25-4.843-5.606-1.511-11.18-2.749-16.969-3.282z"
    ></path>
    <path
      fill="#311709"
      d="M54.281 184.5a2.346 2.346 0 00-1.781.219c-3.353 1.987-6.628 4.099-9.75 6.437-6.951 5.206-13.455 10.977-20.594 15.938-5.049 3.508-10.326 6.514-16.031 8.812 2.921-.903 5.775-1.924 8.563-3.187 6.817-3.089 13.153-7.151 19.437-11.188 6.812-4.375 13.59-8.844 20.688-12.75a2.341 2.341 0 00.874-3.187 2.318 2.318 0 00-1.406-1.094zM200.188 73.781c-6.601.005-13.216.827-19.5 2.813-5.05 1.595-9.876 3.842-14.469 6.469-9.571 5.472-17.887 12.776-26.469 19.625-6.281 5.012-12.746 9.704-19.75 13.656a2.077 2.077 0 00-.781 2.844c.572 1.006 1.837 1.385 2.843.812 8.328-4.776 15.853-10.59 23.25-16.688 8.263-6.81 16.439-14.002 25.907-19.125 10.878-5.885 23.073-8.309 35.375-7.593 13.623.792 26.019 5.486 37.968 11.812 14.174 7.504 27.827 17.03 43.876 20.032 9.458 1.769 19.104 1.021 28.343-1.563 4.645-1.299 9.13-3.039 13.531-5-12.932 5.482-26.451 8.607-40.468 6.031-15.54-2.855-28.686-12.047-42.156-19.718-6.236-3.551-12.666-6.823-19.407-9.313-6.927-2.559-14.165-4.248-21.531-4.844a80.563 80.563 0 00-6.562-.25z"
    ></path>
    <path
      fill="#311709"
      d="M26.844 74.719c1.043 1.475 2.09 2.844 3.375 4.125 2.545 2.536 5.447 4.684 7.812 7.406 3.26 3.752 6.608 7.362 10.219 10.781 9.82 9.299 21.143 17.443 33.75 22.5 6.984 2.802 14.48 4.472 22 4.375a45.345 45.345 0 007.5-.718c3.407-.617 6.69-1.654 9.875-3a2.09 2.09 0 001.094-2.75 2.09 2.09 0 00-2.75-1.094c-2.608 1.149-5.28 2.064-8.063 2.687-8.264 1.852-16.809 1.065-24.906-1.187-11.245-3.127-21.567-9.031-30.813-16.063a130.387 130.387 0 01-8.343-6.906c-3.192-2.876-6.157-5.931-9.094-9.063-2.48-2.643-5.503-4.643-8.156-7.093-1.328-1.226-2.406-2.57-3.5-4zM-2.844 143.688a234.958 234.958 0 0030.188 8.281c6.632 1.349 13.344 2.474 20.093 3.031 4.886.403 9.817.571 14.72.625 9.557.105 19.158.333 28.343 3.25a2.094 2.094 0 002.625-1.375c.34-1.107-.3-2.284-1.406-2.625-4.834-1.444-9.745-2.264-14.781-2.563-9.783-.58-19.557.601-29.344.313-5.963-.175-11.944-.866-17.844-1.719-11.033-1.595-21.913-4.03-32.594-7.218z"
    ></path>
    <path
      fill="#311709"
      d="M90.906 155.219a2.1 2.1 0 00-1.469.656c-4.94 5.296-11.783 7.7-18.03 11.031-1.574.839-3.1 1.749-4.688 2.563-5.61 2.875-11.451 5.29-17.531 6.969-17.208 4.75-35.214 3.896-52.844 2.874 17.743 1.776 35.824 3.32 53.406-.593 5.231-1.164 10.44-2.715 15.375-4.813 2.69-1.142 5.291-2.483 7.938-3.718 6.868-3.208 14.027-5.868 19.406-11.438.399-.42.607-.932.594-1.469a2.102 2.102 0 00-.657-1.469 2.115 2.115 0 00-1.5-.593zM103.25 182.562c-2.753.829-5.57 1.499-8.344 2.25a323.738 323.738 0 00-11.75 3.407c-13.461 4.199-26.739 9.01-39.937 13.969-4.459 1.674-8.889 3.423-13.313 5.187-4.188 1.67-8.366 3.395-12.375 5.469-3.915 2.026-7.623 4.41-11.187 7 3.653-2.436 7.425-4.671 11.406-6.532 4.462-2.085 9.104-3.751 13.75-5.374a638.058 638.058 0 0112.281-4.126c11.43-3.733 22.936-7.224 34.532-10.406 5.219-1.432 10.472-2.858 15.718-4.187 3.465-.878 6.968-1.649 10.407-2.625a2.08 2.08 0 001.406-2.594 2.098 2.098 0 00-2.594-1.438z"
    ></path>
    <path
      fill="#311709"
      d="M327.656 178.938c-22.757-.435-46.073 3.96-66.094 15.156-6.179 3.456-11.907 7.629-17.718 11.656-9.822 6.807-20.456 13.415-32.75 13.812-3.438.112-6.934-.187-10.344-.593-8.358-.997-16.513-3.134-24.469-5.844-9.593-3.267-18.88-7.283-28.156-11.344-4.848-2.122-9.733-4.149-14.563-6.312-3.694-1.655-7.349-3.411-11.031-5.094-2.32-1.06-4.682-1.993-6.937-3.187-3.484-1.845-7.645-4.88-11.782-4.782a2.094 2.094 0 10.126 4.188c1.428-.064 2.836.648 4.093 1.25 2.295 1.098 4.458 2.429 6.75 3.531 2.544 1.222 5.176 2.279 7.75 3.437 3.635 1.637 7.238 3.315 10.907 4.876 8.839 3.759 17.69 7.552 26.656 11 8.047 3.094 16.111 6.017 24.5 8.062 6.279 1.53 12.671 2.592 19.125 3 2.477.157 4.987.257 7.469.125 20.158-1.074 34.517-17.107 50.968-26.719 19.671-11.492 42.902-16.256 65.5-16.218zM375.625 69.875c-2.339 2.05-4.482 4.313-6.594 6.594-1.024 1.106-2.005 2.398-3.187 3.344-3.242 2.59-6.741 4.904-10.156 7.25-4.901 3.364-9.963 6.495-15.25 9.218-17.064 8.788-37.071 13.899-56.219 10.313a2.096 2.096 0 10-.75 4.125c26.384 4.514 52.148-7.299 72.843-22.782 3.331-2.491 6.762-4.986 9.907-7.718 1.322-1.15 2.365-2.644 3.5-3.969 1.879-2.193 3.811-4.384 5.906-6.375z"
    ></path>
    <path
      fill="#311709"
      d="M254.562 93.375c4.385 3.196 8.73 6.467 13.25 9.469 3.411 2.264 6.871 4.436 10.626 6.094 2.261.998 4.623 1.688 7.031 2.218a2.106 2.106 0 002.469-1.656 2.107 2.107 0 00-1.657-2.469c-11.532-1.985-21.66-8.014-31.719-13.656zM397.438 72.781c-5.314 4.372-10.809 8.484-16.157 12.813-7.565 6.123-14.967 12.456-23.343 17.468-7.779 4.655-16.039 8.4-23.813 13.063-5.499 3.299-10.635 7.077-15.281 11.5-.416.403-.617.963-.625 1.5a2.041 2.041 0 00.593 1.469c.403.416.933.647 1.469.656a2.109 2.109 0 001.5-.594c10.895-10.724 24.843-17.211 37.407-25.656 8.175-5.495 15.33-12.211 22.687-18.719 5.151-4.556 10.447-8.902 15.563-13.5z"
    ></path>
    <path
      fill="#311709"
      d="M411.438 108.594c-12.797 5.837-26.63 8.68-40.188 12.156-10.381 2.662-20.824 5.381-31.469 6.75-6.164.793-12.361 1.156-18.531.219a2.101 2.101 0 00-2.375 1.781 2.101 2.101 0 001.781 2.375c8.444 1.132 16.868.036 25.125-1.813 9.438-2.112 18.607-5.164 27.844-8 12.79-3.926 25.846-7.35 37.813-13.468zM416.719 128.031c-11.975.707-23.916 3.139-35.563 5.938-10.248 2.463-20.642 5.315-30.406 9.312-5.436 2.226-10.731 4.636-15.656 7.875-2.608 1.716-5.035 3.747-7.063 6.125a2.108 2.108 0 00-.5 1.531c.047.535.306 1.035.75 1.407.444.372.997.547 1.531.5a2.131 2.131 0 001.438-.75c2.819-3.431 6.579-5.994 10.375-8.219 4.303-2.522 8.776-4.669 13.344-6.656 11.049-4.807 22.541-8.554 34.187-11.625 9.049-2.387 18.245-4.468 27.563-5.438z"
    ></path>
    <path
      fill="#311709"
      d="M329.938 156.438a2.096 2.096 0 10.25 4.187c5.97-.413 11.768 1.021 17.468 2.656 7.798 2.237 15.466 5.261 23.594 6.094 10.651 1.092 21.157-1.599 31.656-2.906a75.337 75.337 0 0111.032-.563c-4.948-.354-9.849-.127-14.782.344-9.158.875-18.409 2.431-27.594.938-5.022-.817-9.79-2.587-14.531-4.376-8.7-3.282-17.627-6.846-27.093-6.374zM291.625 178.562c-4.302 1.033-8.545 2.323-12.594 4.126-14.761 6.57-27.053 17.477-39.156 27.937 8.742-6.562 17.474-13.253 27.094-18.5a94.655 94.655 0 0125.593-9.469c1.13-.255 1.819-1.401 1.563-2.531a2.076 2.076 0 00-2.5-1.563z"
    ></path>
    <path
      fill="#311709"
      d="M338.312 175.438c-4.585-.058-9.167 0-13.75.187-5.661.23-11.317.495-16.968.906-5.91.43-11.837.999-17.563 2.594a2.097 2.097 0 001.157 4.031c6.611-1.935 13.541-2.419 20.374-3 5.606-.476 11.195-1.096 16.813-1.406 19.771-1.09 39.984-1.292 59.437 2.906 9.334 2.015 18.278 5.157 26.938 9.156-6.87-3.453-13.935-6.432-21.312-8.624-13.432-3.992-27.421-5.609-41.376-6.313-4.579-.231-9.164-.38-13.75-.437zM412.906 166.094c-10.795 2.4-21.497 7.474-32.781 6.281-.379-.037-.713.215-.75.594-.037.379.246.744.625.781 7.351.658 14.134-1.553 21-3.906 3.943-1.352 7.876-2.68 11.906-3.75z"
    ></path>
    <path
      fill="#311709"
      d="M380.25 172.5a.685.685 0 10-.688 1.188c9.298 5.417 18.981 10.158 29.157 13.687a134.444 134.444 0 01-12.188-5.531c-5.56-2.867-10.93-6.108-16.281-9.344zM402.594 69.406c-7.634 4.324-14.993 9.047-22.375 13.781-8.727 5.597-17.673 11.093-27.625 14.22a.693.693 0 00-.438.874.66.66 0 00.844.438c10.072-3.267 18.907-9.057 27.594-14.969 7.247-4.932 14.475-9.841 22-14.344z"
    ></path>
    <path
      fill="#311709"
      d="M374.844 71.219c-4.786 6.13-9.669 12.173-14.75 18.062-1.599 1.853-3.172 3.714-4.813 5.531-.541.6-1.083 1.212-1.656 1.782-.213.212-.425.433-.656.625-.059.049-.258.155-.188.125a.696.696 0 00-.593.781.697.697 0 00.781.594c.907-.175 1.63-1.172 2.219-1.813 1.47-1.602 2.843-3.291 4.187-5 5.324-6.769 10.443-13.695 15.469-20.687zM406.438 111.031c-1.724.875-3.505 1.676-5.188 2.625-1.578.89-3.146 1.906-4.656 2.906-6.096 4.038-11.772 8.629-18.125 12.282a.682.682 0 00-.25.937.682.682 0 00.937.25c2.074-1.236 4.117-2.536 6.063-3.969 3.969-2.922 7.673-6.189 11.656-9.093 1.457-1.063 2.967-2.144 4.5-3.094 1.64-1.016 3.379-1.9 5.063-2.844z"
    ></path>
    <path
      fill="#311709"
      d="M405.938 126.969c-9.094-.31-18.2.782-27.25 1.843a.668.668 0 00-.594.75.667.667 0 00.75.594c7.987-1.054 15.967-2.486 24.031-2.812a78.343 78.343 0 0112.156.437c-3.025-.465-6.062-.709-9.093-.812zM8.906 127.219c3.669 3.426 7.676 6.458 11.844 9.25 5.021 3.362 10.187 6.376 15.75 8.75.713.29 1.522-.069 1.813-.781.29-.713-.07-1.522-.782-1.813-10.13-3.939-20.043-8.657-28.625-15.406z"
    ></path>
    <path
      fill="#311709"
      d="M28.813 142.969c-5.307.182-10.598.825-15.907.969-3.783.101-7.513-.08-11.25-.688 11.107 2.746 22.757 1.424 34.063 2.719a1.402 1.402 0 001.531-1.25 1.4 1.4 0 00-1.25-1.531c-2.394-.199-4.784-.302-7.188-.219z"
    ></path>
    <path
      fill="#311709"
      fillRule="evenodd"
      stroke="#311709"
      strokeWidth="5.124"
      d="M241.146 106.817c-5.22.401-10.494 2.65-15.125 7.281l2.25-.593c-9.779 4.911-14.355 20.102-25.562 22.343-14.035 2.807-25.026-15.251-39.719-12.312-15.699 3.139-26.046 38.079-13.906 50.219 36.021 36.021 109.189 16.24 119.343-34.532 3.625-18.124-11.62-33.609-27.281-32.406z"
    ></path>
    <path
      fill="#fff"
      d="M148.125 133.844a1.409 1.409 0 00-.875.625c-2.125 3.513-3.904 7.22-4.906 11.219a28.808 28.808 0 00-.875 7.624c.33 15.251 13.545 25.963 26.25 31.969a81.63 81.63 0 005.5 2.344c2.47.955 4.986 1.8 7.531 2.531a85.629 85.629 0 009.375 2.125c5.187.877 10.441 1.241 15.687.75 23.525-2.201 43.109-18.991 56.719-37.219-14.098 18.25-34.433 35.069-58.469 36.157-3.982.18-7.945-.162-11.874-.813a83.159 83.159 0 01-10.969-2.594c-3.103-.958-6.153-2.066-9.125-3.374a74.323 74.323 0 01-6.938-3.5c-10.695-6.121-21.342-15.948-21.062-29.25.043-2.051.363-4.078.875-6.063.959-3.726 2.652-7.172 4.656-10.437.4-.658.188-1.538-.469-1.938-.328-.2-.685-.24-1.031-.156z"
    ></path>
    <path
      fill="#fff"
      d="M243.031 107.219c-5.507-.042-10.684 1.367-15.125 5.406-7.59 6.903-10.709 18.363-21.187 21.937-1.629.556-3.318.92-5.031 1.063-9.345.778-17.137-4.83-25.032-8.906-2.504-1.293-5.064-2.51-7.812-3.188-5.571-1.374-10.535.016-14.938 3.594-2.649 2.153-4.823 4.807-6.812 7.563-.448.625-.314 1.521.312 1.968.626.448 1.49.282 1.938-.344 1.958-2.765 4.127-5.433 6.812-7.531 1.123-.876 2.316-1.622 3.625-2.187 6.988-3.013 14.208 1.263 20.313 4.437 6.106 3.175 12.383 6.062 19.062 6.125a22.583 22.583 0 006.813-.968 20.182 20.182 0 004.375-1.907c8.337-4.903 11.144-14.836 17.906-21.281 5.723-5.455 12.894-6.272 20.375-5.312a39.152 39.152 0 00-5.594-.469z"
    ></path>
  </g>
</svg>