<svg
  xmlns="http://www.w3.org/2000/svg"
  xmlnsvectornator="http://vectornator.io"
  strokeLinecap="round"
  strokeLinejoin="round"
  strokeMiterlimit="10"
  clipRule="evenodd"
  viewBox="0 0 419.58 297.675"
>
  <g vectornatorlayername="Layer 1">
    <path
      fill="#b8a1d0"
      fillRule="evenodd"
      stroke="#7e4eb0"
      strokeWidth="3.062"
      d="M64.266 111.01c-5.527-2.763-9.762-23.626-4.154-27.831 3.835-2.877 9.932 3.927 12.877 0 4.011-5.349 1.366-14.154 9.554-16.2 1.6-.4 3.71-1.254 5.4-.832 5.402 1.35 2.738 8.129 11.631 6.647 10.416-1.736 9.44-20.166 23.262-17.862 2.956.492 4.228 4.66 5.816 6.646 2.324 2.905 5.344 6.393 9.139 7.477 1.878.537 5.049 1.233 7.061.83 3.273-.654 7.736-6.387 11.631-2.491 7.175 7.174 4.681 21.705 16.616 24.092 9.693 1.939 16.721-8.517 20.355-15.784 1.741-3.483 2.709-9.713 7.061-10.8 5.31-1.328 9.035 2.57 13.708 3.738 4.929 1.232 10.309 2.846 14.539 6.23 4.056 3.246 8.658 9.06 14.124 9.97 2.433.406 7.622.686 9.554-1.246 2.064-2.064 3.696-5.83 7.477-4.57 2.607.87 3.49 3.823 4.985 5.816 1.028 1.371 2.634 2.962 3.323 4.57 2.408 5.62 4.449 4.79 11.437 5.955 1.335.222 6.905-.765 8.301-1.23 6.19-2.063 6.614-12.782 7.379-18.14 1.648-11.537-3.804-12.344-8.009-23.556-2.654-7.078-4.845-14.686-3.738-22.431 1.475-10.331 10.329-15.192 19.523-17.031 2.251-.45 5.199-.912 7.477 0 4.956 1.982 9.735 6.255 12.462 10.8 2.057 3.427 3.313 8.3 6.646 10.8 5.402 4.051 11.29 5.292 17.862 6.231 2.366.338 6.33.594 8.308 2.077 3.196 2.397 1.063 14.634 2.077 18.693 1.175 4.699 3.229 7.51 7.062 10.385 1.723 1.292 4.024 2.018 5.4 3.739 1.329 1.66 1.985 3.555 2.908 5.4 2.01 4.019 2.481 10.63 1.246 14.954-1.112 3.893-3.021 7.819-2.492 12.046.298 2.387 1.112 6.097 2.908 7.893 4.929 4.929 15.614 8.989 13.292 18.277-.851 3.405-3.309 6.11-5.4 8.724-1.136 1.42-1.4 3.528-2.492 4.984-3.931 5.242-5.413 11.695-6.647 17.862-1.545 7.73 2.017 16.912 5.401 23.678 2.158 4.316 5.203 7.628 4.154 12.877-1.078 5.388-.755 3.23-2.15 8.811-1.686 6.745-.44 10.664 2.234 16.012 3.908 7.816 1.419 9.449-2.607 17.502-2.41 4.82-.702 13.317-5.958 12.66-2.652-.332-8.33 6.83-10.798 7.447-2.15.538-12.647 5.935-13.778 7.82-3.684 6.14-8.702 6.64-16.791 8.258-9.602 1.92-5.503-2.37-14.86-.811-8.205 1.368-12.368 4.493-23.772 1.642-6.285-1.571-4.145 1.335-11.603 2.827-9.509 1.902-13.217-1.56-20.798 2.988-6.915 4.15-16.871 4.414-24.508 3.323-2.535-.362-4.909-2.092-7.062-3.323-5.367-3.067-11.508-3.908-14.539-9.969-3.987-7.974-16.965-20.309-28.756-22.667-17.42-3.484-19.522 3.974-37.292 3.974-7.027 0-18.815 11.181-24.067 4.616-1.017-1.27-3.038-19.4-4.091-20.453-6.136-6.136-25.433-8.856-21.68-16.363 2.243-4.486 14.897-7.564 13.908-13.499-.45-2.697-6.136-8.999-3.273-14.317 1.447-2.687 21.272-.569 21.272-3.682 0-3.726 1.995-6.48-.761-11.073-2.003-3.339-6.987-1.58-9.97-2.077-3.947-.658-6.256-4.205-7.892-7.477-1.794-3.588-1.911-10.55-1.247-14.539.757-4.539 2.602-9.686-.415-13.708-1.817-2.424-6.105-2.644-8.723-1.662-4.685 1.757-9.227 6.772-13.708 7.893-2.678.669-12.675.539-15.37 0-7.652-1.531-19.65-3.113-13.293-13.708 1.59-2.648 7.96-5.961 7.062-9.554-.853-3.411-14.187-1.927-17.447-3.324-11.15-4.779.458-13.072 3.739-17.446 1.007-1.344 9.115 3.558 9.815 2.158"
    ></path>
    <path
      fill="#7e4eb0"
      fillRule="evenodd"
      stroke="#fff"
      d="M235.024 210.195c-1.379 1.217-5.595 19.232-5.291 21.734 1.335 10.97 3.896 30.046 15.56 34.837 26.348 10.824 57.056 2.855 83.403-2.556 8.4-1.726 21.005-5.392 26.763-12.785 8.751-11.234 11.097-25.24 8.836-39.17-.789-4.862-2.922-11.046-3.854-15.834-1.26-6.47-6.599-9.68-11.306-14.514-3.524-3.62-16.571-12.117-21.327-12.931-18.986-3.25-31.18 3.52-48.307 10.556-6.8 2.793-19.325 7.432-25.183 12.445-6.289 5.383-14.421 12.184-19.294 18.857-1.896 2.596 2.31-2.678 0-.639z"
    ></path>
    <path
      fill="#946cbc"
      fillRule="evenodd"
      stroke="#946cbc"
      strokeWidth="3.062"
      d="M187.135 132.811v-.204.409-.205zm60.951-5.727v-.204.409-.205zm75.677-4.499v-.205.409-.204zm-173.443 3.272v-.204.409-.205zm97.766 22.405v-.298.596-.298zm65.041-6.504c0-.368.608-.666 1.357-.666.75 0 1.357.298 1.357.666 0 .368-.607.666-1.357.666-.749 0-1.357-.298-1.357-.666zm-154.626 29.505c0-1.016 1.099-1.841 2.454-1.841 1.356 0 2.455.825 2.455 1.841 0 1.017-1.099 1.841-2.455 1.841-1.355 0-2.454-.824-2.454-1.841zm51.542-5.727c0-.79.549-1.431 1.227-1.431s1.227.641 1.227 1.431c0 .791-.549 1.432-1.227 1.432s-1.227-.641-1.227-1.432zm-12.272 68.611c0-1.112 1.081-2.013 2.416-2.013 1.334 0 2.415.901 2.415 2.013 0 1.112-1.081 2.014-2.415 2.014-1.335 0-2.416-.902-2.416-2.014zM119.64 124.483c0-.646.536-1.17 1.197-1.17s1.197.524 1.197 1.17c0 .646-.536 1.17-1.197 1.17s-1.197-.524-1.197-1.17zm101.857-16.357c0-.416.438-.754.979-.754.541 0 .979.338.979.754 0 .417-.438.755-.979.755-.541 0-.979-.338-.979-.755zm-21.272 79.622c0-.723.58-1.309 1.296-1.309.715 0 1.295.586 1.295 1.309s-.58 1.31-1.295 1.31a1.303 1.303 0 01-1.296-1.31zm69.132-21.804c0-.565.45-1.023 1.005-1.023.555 0 1.005.458 1.005 1.023 0 .566-.45 1.024-1.005 1.024a1.014 1.014 0 01-1.005-1.024zm-64.223-45.818c0-.568.508-1.028 1.135-1.028s1.135.46 1.135 1.028c0 .567-.508 1.027-1.135 1.027s-1.135-.46-1.135-1.027zM132.73 94.178c0-.44.375-.796.838-.796.463 0 .838.356.838.796 0 .439-.375.795-.838.795-.463 0-.838-.356-.838-.795zm7.363 104.642c0-.483.534-.874 1.194-.874.659 0 1.194.391 1.194.874 0 .482-.535.873-1.194.873-.66 0-1.194-.391-1.194-.873zm133.048-71.479c0-.478.449-.865 1.003-.865.554 0 1.003.387 1.003.865s-.449.865-1.003.865c-.554 0-1.003-.387-1.003-.865zm77.211-5.052c0-.728.822-1.318 1.835-1.318 1.014 0 1.835.59 1.835 1.318 0 .728-.821 1.318-1.835 1.318-1.013 0-1.835-.59-1.835-1.318zM311.491 93.95v-.204.409-.205zm-24.953 8.22c0-.544.43-.984.96-.984s.96.44.96.984c0 .543-.43.984-.96.984s-.96-.441-.96-.984zm-58.11 78.244c0-.457.443-.828.989-.828.547 0 .99.371.99.828 0 .458-.443.829-.99.829-.546 0-.989-.371-.989-.829zm-44.974-30.612c0-.568.72-1.028 1.607-1.028.888 0 1.608.46 1.608 1.028 0 .568-.72 1.028-1.608 1.028-.887 0-1.607-.46-1.607-1.028zm-19.129-36.799c0-.757.663-1.371 1.481-1.371.818 0 1.481.614 1.481 1.371s-.663 1.37-1.481 1.37c-.818 0-1.481-.613-1.481-1.37zm-70.047-4.915c0-.439.387-.794.864-.794.478 0 .865.355.865.794 0 .438-.387.793-.865.793-.477 0-.864-.355-.864-.793zm77.313 76.458c0-.459.369-.831.825-.831.456 0 .825.372.825.831 0 .458-.369.83-.825.83a.828.828 0 01-.825-.83zm62.996 86.661v-.337.674-.337zm-29.862-52.78c0-1.084.929-1.962 2.074-1.962 1.145 0 2.074.878 2.074 1.962s-.929 1.963-2.074 1.963c-1.145 0-2.074-.879-2.074-1.963zm14.726-68.147c0-1.957 1.571-3.543 3.508-3.543s3.508 1.586 3.508 3.543c0 1.956-1.571 3.542-3.508 3.542s-3.508-1.586-3.508-3.542zm72.814-5.684c0-1.06 1.176-1.919 2.627-1.919 1.451 0 2.628.859 2.628 1.919s-1.177 1.919-2.628 1.919-2.627-.859-2.627-1.919zm62.996 2.328c0-1.582 1.099-2.864 2.454-2.864 1.356 0 2.454 1.282 2.454 2.864 0 1.581-1.098 2.863-2.454 2.863-1.355 0-2.454-1.282-2.454-2.863zm-62.587-24.953v-.818 1.636-.818zm-71.995-26.794v-.613 1.227-.614zm146.035 151.228c0-.408.464-.739 1.037-.739.572 0 1.036.331 1.036.739 0 .409-.464.74-1.036.74-.573 0-1.037-.331-1.037-.74zm2.864-39.758c0-.677.458-1.227 1.023-1.227.564 0 1.022.55 1.022 1.227 0 .678-.458 1.227-1.022 1.227-.565 0-1.023-.549-1.023-1.227zm-31.907-61.155v-.204.409-.205zm-122.719 52.667c0-.621.447-1.124.999-1.124s1 .503 1 1.124c0 .622-.448 1.125-1 1.125s-.999-.503-.999-1.125zm-54.456 18.012c0-1.524 1.369-2.759 3.058-2.759 1.689 0 3.058 1.235 3.058 2.759 0 1.524-1.369 2.759-3.058 2.759-1.689 0-3.058-1.235-3.058-2.759zM311.082 56.572c0-1.779 1.949-3.221 4.353-3.221s4.352 1.442 4.352 3.221c0 1.78-1.948 3.221-4.352 3.221-2.404 0-4.353-1.442-4.353-3.221zm-147.263 81.762c0-.678.641-1.228 1.431-1.228.791 0 1.432.55 1.432 1.228 0 .677-.641 1.227-1.432 1.227-.79 0-1.431-.55-1.431-1.227zm31.498-36.203c0-1.92 1.648-3.477 3.681-3.477 2.033 0 3.682 1.557 3.682 3.477 0 1.921-1.649 3.477-3.682 3.477s-3.681-1.556-3.681-3.477zm-65.86 8.937c0-1.277 1.181-2.313 2.638-2.313 1.457 0 2.638 1.036 2.638 2.313 0 1.277-1.181 2.313-2.638 2.313-1.457 0-2.638-1.036-2.638-2.313z"
    ></path>
    <path
      fill="#fff"
      d="M257 193.938c-6.298 2.787-10.846 8.069-14.156 14-4.994 8.947-7.483 19.514-6.813 29.75.53 8.085 3.514 15.997 10.563 20.531 3.265 2.1 6.946 3.503 10.656 4.593 5.235 1.539 10.647 2.45 16.062 3.063 15.305 1.732 31.212 1.209 46.438-1.031 8.34-1.227 17.163-2.92 24.75-6.688-7.633 3.639-16.469 5.191-24.812 6.282-14.878 1.944-30.158 2.19-45.063.374-5.07-.617-10.139-1.501-15.063-2.874-3.955-1.104-7.918-2.552-11.406-4.75-6.918-4.362-9.466-11.801-9.937-19.657-.278-4.634.295-9.3 1.343-13.812 1.394-5.999 3.709-11.858 7.126-17 2.899-4.364 6.584-8.115 11.437-10.219a1.404 1.404 0 00.719-1.844 1.404 1.404 0 00-1.844-.718z"
    ></path>
    <path
      fill="#fff"
      d="M316.781 172.656c-8.337.299-16.481 2.172-24.406 4.688-7.937 2.519-15.618 5.777-23.063 9.5a187.624 187.624 0 00-14.156 7.875 1.375 1.375 0 00-.437 1.906 1.374 1.374 0 001.906.437 190.137 190.137 0 0113.875-7.843c9.306-4.765 19.036-8.931 29.125-11.719 5.64-1.559 11.368-2.743 17.219-3.094 8.913-.534 18.368 1.032 25.312 7.032 3.401 2.938 5.851 6.752 8.063 10.624 4.089 7.158 6.944 14.947 9.125 22.876.791 2.875 1.644 5.803 2.125 8.75.622 3.816-.427 7.591-.469 11.406-.024 2.139.333 4.123 1.156 6.094a14.984 14.984 0 01-1.062-6.094c.11-3.835 1.245-7.62.687-11.469-.508-3.507-1.467-7.017-2.375-10.437-2.122-7.996-5.056-15.847-9.187-23.032-2.019-3.511-4.25-6.872-7.281-9.594-7.112-6.385-16.862-8.239-26.157-7.906z"
    ></path>
  </g>
</svg>
