<svg
  xmlns="http://www.w3.org/2000/svg"
  xmlnsvectornator="http://vectornator.io"
  strokeLinecap="round"
  strokeLinejoin="round"
  strokeMiterlimit="10"
  clipRule="evenodd"
  viewBox="0 0 1224 792"
>
  <g vectornatorlayername="Layer 1">
    <path
      fillRule="evenodd"
      stroke="#000"
      strokeLinecap="square"
      strokeLinejoin="bevel"
      strokeWidth="12.984"
      d="M506.16 461.066h0c.596.005 1.072.627 1.062 1.39l-3.701 284.294c-.01.762-.502 1.375-1.098 1.37h0c-.597-.006-1.072-.628-1.062-1.39l3.701-284.294c.01-.762.501-1.376 1.098-1.37z"
    ></path>
    <path
      fill="#6260e8"
      fillRule="evenodd"
      stroke="#6361e9"
      strokeLinecap="square"
      strokeLinejoin="bevel"
      strokeWidth="12.984"
      d="M466.964 207.889h81.971c15.58 0 28.211 12.631 28.211 28.211v191.659c0 15.581-12.631 28.211-28.211 28.211h-81.971c-15.58 0-28.21-12.63-28.21-28.211V236.1c0-15.58 12.63-28.211 28.21-28.211z"
    ></path>
    <path
      fill="#b3b2e7"
      fillRule="evenodd"
      stroke="#b2b1e6"
      strokeLinecap="square"
      strokeLinejoin="bevel"
      strokeWidth="12.984"
      d="M599.757 331.787c0-67.634 27.292-122.463 60.959-122.463 33.666 0 60.958 54.829 60.958 122.463 0 67.635-27.292 122.463-60.958 122.463-33.667 0-60.959-54.828-60.959-122.463z"
    ></path>
    <g
      fill="#6260e8"
      fillRule="evenodd"
      stroke="#6260e7"
      strokeLinecap="square"
      strokeLinejoin="bevel"
      strokeWidth="2"
    >
      <path d="M462.171 70.017c-13.692 0-24.782 10.725-24.782 23.969v72.843c0 13.244 11.09 23.969 24.782 23.969h86.531c13.692 0 24.812-10.725 24.812-23.969v-21.312c-13.051-.689-26.167-4.671-38.093-12.719-.007-.003-.025-.027-.032-.031-.078-.048-.115-.06-.218-.125-.417-.24-.934-.515-1.438-.813-3.544-2.094-6.579-4.156-10.031-7.156-7.042-6.118-12.812-13.778-16.281-24.187-3.511-10.532-3.795-20.887-1.688-30.47h-43.562z"></path>
      <path d="M414.045 97.006h57.447c5.509 0 9.975 4.466 9.975 9.975V142.9c0 5.509-4.466 9.975-9.975 9.975h-57.447c-5.509 0-9.975-4.466-9.975-9.975v-35.919c0-5.509 4.466-9.975 9.975-9.975z"></path>
      <path d="M421.241 141.599h0c.141 0 .256.114.256.256v.512a.257.257 0 01-.256.257h0a.257.257 0 01-.257-.257v-.512c0-.142.115-.256.257-.256z"></path>
    </g>
    <path
      fill="#6260e8"
      fillRule="evenodd"
      d="M504.608 70.206c-15.556 3.457-33.095-.129-48.165 4.895"
    ></path>
    <path
      fill="#6260e7"
      d="M504.438 69.313c-15.835 3.35-32.494.66-48 5.78a58.789 58.789 0 019.718-1.968c9.488-1.082 19.051-.197 28.563-.719 3.39-.186 6.733-.658 10.062-1.312.493-.1.82-.57.719-1.063a.904.904 0 00-1.062-.719z"
    ></path>
    <path
      fill="#302e92"
      d="M475.719 67.969c-5.235.013-10.484.228-15.625.906-6.399.844-12.899 3.184-17.313 8.094-1.56 1.736-2.852 3.733-3.843 5.844-.815 1.732-1.465 3.557-1.844 5.437-.5 2.475-.539 5.023-.75 7.531.292-2.492.422-5.05 1-7.5.434-1.84 1.142-3.6 2-5.281 1.439-2.821 3.408-5.377 5.875-7.375 4.184-3.389 9.764-4.945 15.031-5.438 6.56-.613 13.071-.287 19.625.032 4.341.211 8.688.461 13.031.625 4.393.165 8.791.278 13.188.312a1.365 1.365 0 001.375-1.375c.001-.767-.608-1.405-1.375-1.406-4.914.023-9.838-.074-14.75-.156-5.169-.087-10.391-.263-15.625-.25zM413.594 95.5c-2.552.23-5.29.753-7.313 2.438-2.47 2.058-3.154 5.554-3.469 8.593-.304 2.948-.381 5.936-.374 8.907.006 2.97.079 5.949.062 8.906a1.393 1.393 0 001.406 1.375 1.392 1.392 0 001.375-1.407 453.62 453.62 0 00-.25-9.687c-.089-2.637-.207-5.269-.062-7.906.142-2.591.321-5.699 2.343-7.594 2.257-2.115 5.786-2.486 8.719-2.719 2.813-.223 5.618-.22 8.438-.218 4.198.001 8.396-.01 12.593-.094-4.718-.134-9.41-.385-14.124-.594-3.107-.137-6.241-.28-9.344 0zm23.468 57.562c-.767 0-1.374.608-1.374 1.376.015 4.136-.024 8.275.218 12.406.358 6.082 1.358 12.205 5.438 17 4.463 5.245 11.484 7.676 18.156 8.406 2.086.228 4.217.203 6.312.219h8.25c23.511-.146 46.993-.893 70.5-1.157-23.502-.222-46.998.064-70.5-.374-2.96-.056-5.916-.136-8.874-.25-1.81-.07-3.641-.098-5.438-.344-2.377-.325-4.769-.927-7.031-1.719-3.371-1.181-6.538-2.933-8.938-5.625-4.052-4.545-4.908-10.419-5.187-16.281-.195-4.085-.142-8.193-.125-12.281 0-.768-.639-1.375-1.407-1.376z"
    ></path>
    <path
      fill="#302e92"
      d="M573.344 143.969a1.378 1.378 0 00-1.25 1.5c.568 6.033 1.036 12.061 1.031 18.125-.003 3.698-.216 7.512-1.219 11.094-.651 2.325-1.57 4.586-2.875 6.624-6.251 9.772-18.571 10.159-28.969 10.25-1.739.016-3.478.031-5.218.032-2.827.001-5.642-.003-8.469.031 2.826.059 5.644.158 8.469.25 10.826.352 24.396 1.577 32.906-6.563a20.499 20.499 0 002.656-3.093c1.485-2.128 2.588-4.481 3.406-6.938 1.237-3.714 1.556-7.735 1.719-11.625.258-6.147-.188-12.314-.687-18.437a1.378 1.378 0 00-1.5-1.25zm-169.375-21a1.393 1.393 0 00-1.407 1.375c.018 3.688-.078 7.374-.093 11.062-.011 2.635.005 5.318.312 7.938.367 3.126 1.182 6.449 3.875 8.375 2.615 1.87 6.071 2.224 9.188 2.375 2.928.141 5.885.047 8.812-.063 4.305-.161 8.6-.383 12.906-.5-4.306-.087-8.63-.082-12.937-.125-2.904-.029-5.796-.055-8.687-.344-3.031-.302-6.65-.819-8.907-3.093-1.983-1.999-2.092-5.143-2.187-7.781-.097-2.673.068-5.332.187-8 .146-3.281.269-6.561.313-9.844a1.365 1.365 0 00-1.375-1.375zm102.75-53.063c-1.219 5.169-1.916 10.432-1.75 15.75.307 9.843 3.561 19.449 8.969 27.656 3.784 5.744 8.474 10.689 13.593 15.25.289.253.677.368 1.031.344.355-.023.685-.18.938-.468.253-.289.367-.646.344-1a1.422 1.422 0 00-.469-.969c-4.468-3.853-8.815-7.984-12.406-12.688-6.362-8.331-10.533-17.645-11.313-28.187-.39-5.275.071-10.503 1.063-15.688z"
    ></path>
    <path
      fill="#302e92"
      d="M528.188 126.219a1.37 1.37 0 00-.469 2.5c1.926 1.212 3.778 2.559 5.719 3.75 2.337 1.434 4.844 2.653 7.312 3.843 10.341 4.987 21.228 7.602 32.625 8.626-8.972-1.325-17.673-3.6-25.875-7.532a107.671 107.671 0 01-12.656-7.156c-1.897-1.25-3.729-2.592-5.625-3.844a1.347 1.347 0 00-1.031-.187z"
    ></path>
    <g
      fill="#6260e8"
      fillRule="evenodd"
      stroke="#6260e7"
      strokeLinecap="square"
      strokeLinejoin="bevel"
      strokeWidth="2"
    >
      <path d="M705.313 70.385c13.692 0 24.781 10.725 24.781 23.968v72.844c0 13.244-11.089 23.969-24.781 23.969h-86.531c-13.692 0-24.813-10.725-24.813-23.969v-21.312c13.052-.689 26.167-4.671 38.094-12.719.006-.004.024-.027.031-.031.079-.048.115-.06.219-.125.417-.24.934-.515 1.437-.813 3.545-2.094 6.58-4.156 10.032-7.156 7.041-6.119 12.811-13.779 16.281-24.187 3.51-10.532 3.795-20.888 1.687-30.47h43.563z"></path>
      <path d="M753.439 97.374h-57.447c-5.509 0-9.975 4.465-9.975 9.974v35.92c0 5.509 4.466 9.975 9.975 9.975h57.447c5.509 0 9.975-4.466 9.975-9.975v-35.92c0-5.509-4.466-9.974-9.975-9.974z"></path>
      <path d="M746.243 141.966h0a.256.256 0 00-.256.257v.512c0 .142.114.257.256.257h0a.257.257 0 00.256-.257v-.512a.257.257 0 00-.256-.257z"></path>
    </g>
    <path
      fill="#6260e8"
      fillRule="evenodd"
      d="M662.876 70.574c15.556 3.457 33.094-.129 48.164 4.895"
    ></path>
    <path
      fill="#6260e7"
      d="M663.062 69.688a.905.905 0 00-1.062.718c-.1.493.195.962.688 1.063 3.329.654 6.672 1.126 10.062 1.312 9.512.522 19.075-.363 28.562.719a58.8 58.8 0 019.719 1.969c-15.507-5.12-32.134-2.431-47.969-5.781z"
    ></path>
    <path
      fill="#302e92"
      d="M696.281 68.438c-3.713-.09-7.442-.055-11.156.03-3.536.083-7.089.095-10.625.157-4.372.077-8.721.145-13.094.125A1.419 1.419 0 00660 70.156c.001.767.639 1.376 1.406 1.375 4.938-.038 9.88-.204 14.813-.406 10.31-.422 20.685-1.528 31-.563 5.266.493 10.847 2.018 15.031 5.407 2.467 1.998 4.467 4.554 5.906 7.375.859 1.682 1.566 3.472 2 5.312.578 2.45.708 5.008 1 7.5-.212-2.508-.282-5.056-.781-7.531-.379-1.88-1.029-3.736-1.844-5.469-.992-2.11-2.252-4.077-3.812-5.812-4.414-4.91-10.945-7.281-17.344-8.125-3.692-.487-7.381-.692-11.094-.781zM752.75 95.78c-3.245-.182-6.508-.002-9.75.156-4.192.205-8.398.413-12.594.532 4.198.084 8.396.064 12.594.062 2.819 0 5.656.027 8.469.25 2.933.233 6.431.604 8.687 2.719 2.023 1.895 2.233 5.003 2.375 7.594.145 2.637.027 5.269-.062 7.906-.11 3.233-.24 6.453-.281 9.688a1.418 1.418 0 001.406 1.406c.767.002 1.372-.639 1.375-1.406-.028-4.84.186-9.665-.063-14.5-.073-1.425-.142-2.868-.344-4.282-.414-2.905-1.246-6.04-3.718-7.875-2.299-1.706-5.316-2.094-8.094-2.25zm-22.344 57.625c-.767 0-1.375.639-1.375 1.406.017 4.089.07 8.166-.125 12.25-.279 5.863-1.166 11.768-5.218 16.313-2.651 2.973-6.219 4.753-9.969 5.937-1.941.613-3.951 1.131-5.969 1.407-2.487.34-5.058.329-7.562.406-2.896.089-5.791.169-8.688.219-22.863.395-45.73.127-68.594.344 23.508.263 47.021 1.01 70.532 1.156 2.97.018 5.935-.001 8.906-.032 1.871-.019 3.761.017 5.625-.187 6.672-.73 13.724-3.161 18.187-8.406 4.08-4.795 5.049-10.918 5.406-17 .243-4.131.235-8.27.25-12.407 0-.767-.638-1.406-1.406-1.406z"
    ></path>
    <path
      fill="#302e92"
      d="M594.125 144.344a1.378 1.378 0 00-1.5 1.25c-.499 6.123-.946 12.29-.687 18.437.163 3.89.513 7.88 1.75 11.594.818 2.457 1.921 4.841 3.406 6.969a20.467 20.467 0 003.375 3.781c5.763 4.99 13.565 5.955 20.906 6.063 3.752.055 7.501-.066 11.25-.188 2.825-.092 5.643-.191 8.469-.25-2.827-.034-5.642-.03-8.469-.031-2.156-.001-4.313-.001-6.469-.031-9.049-.127-19.593-.608-26-7.969a19.937 19.937 0 01-2.218-3.125c-1.046-1.814-1.812-3.769-2.376-5.782-1.002-3.581-1.184-7.395-1.187-11.093-.005-6.064.463-12.092 1.031-18.125.067-.762-.519-1.433-1.281-1.5zm169.406-21.032a1.42 1.42 0 00-1.406 1.407c.044 3.283.167 6.563.313 9.843.118 2.669.315 5.328.218 8-.095 2.639-.204 5.783-2.187 7.782-2.257 2.274-5.876 2.76-8.907 3.062-2.891.289-5.814.346-8.718.375-4.308.043-8.599.038-12.906.125 4.306.117 8.601.339 12.906.5 3.343.125 6.722.234 10.062-.031 2.87-.228 5.969-.709 8.282-2.563 2.686-2.152 3.37-5.876 3.624-9.124.235-2.988.257-5.999.219-9-.037-3.002-.139-5.977-.125-8.969-.003-.767-.608-1.41-1.375-1.407zM660.781 70.25c.992 5.184 1.453 10.444 1.063 15.719-.779 10.542-4.951 19.856-11.313 28.187-3.591 4.704-7.969 8.835-12.437 12.688a1.413 1.413 0 00-.469.968 1.37 1.37 0 00.344 1c.253.289.614.446.969.469.354.024.711-.091 1-.343 5.118-4.562 9.809-9.507 13.593-15.25 5.408-8.208 8.693-17.846 9-27.688.166-5.319-.531-10.581-1.75-15.75z"
    ></path>
    <path
      fill="#302e92"
      d="M639.312 126.562a1.423 1.423 0 00-1.062.188c-1.896 1.252-3.728 2.625-5.625 3.875A107.272 107.272 0 01620 137.781c-8.202 3.932-16.903 6.207-25.875 7.531 11.397-1.023 22.284-3.638 32.625-8.624 2.468-1.191 4.944-2.441 7.281-3.876 1.94-1.19 3.792-2.506 5.719-3.718.645-.416.853-1.262.438-1.906a1.42 1.42 0 00-.876-.626z"
    ></path>
    <g>
      <path
        fill="#302e92"
        d="M465.5 200.812a.903.903 0 00-.906.907v.031c-.081.008-.121-.016-.188 0-.345.084-.738.039-1.094.062.219-.017.75-.011 1.313-.031.034.469.397.871.875.875 1.32.011.855-.083 1.312 0 .839.153 1.711.025 2.563.032 1.603.012 3.21.018 4.813.031 4.983.039 9.954.085 14.937.125 17.124.136 34.251.273 51.375.406l8 .062c2.538.02 5.051.022 7.562.438 8.599 1.425 16.415 6.453 21.157 13.781a29.863 29.863 0 014.625 13.063c.322 3.067.153 6.203.156 9.281.004 4.105.026 8.207.031 12.313.026 22.066.086 44.12.094 66.187.011 31.817.104 63.652.156 95.469.007 4.105-.006 8.207 0 12.312.005 3.277.124 6.539-.437 9.782-1.553 8.965-7.251 16.864-15.125 21.374a31.924 31.924 0 01-11.625 3.938c-2.326.31-4.659.309-7 .312-2.712.004-5.413-.003-8.125 0-13.108.019-26.236.046-39.344.063-9.492.012-18.977.019-28.469.031-2.26.003-4.521-.003-6.781 0-1.535.002-3.037-.001-4.563-.187a27.013 27.013 0 01-7.093-1.875c-2.908-1.211-5.602-2.932-8-4.969-6.273-5.328-10.597-12.935-12.157-21-.87-4.501-.645-9.127-.656-13.687-.014-5.755-.017-11.496-.031-17.25-.127-52.598-.253-105.216-.375-157.813-.005-2.141.005-4.265 0-6.406-.006-2.666-.004-5.304.469-7.938.951-5.302 3.241-10.331 6.469-14.687-3.236 4.342-5.624 9.352-6.594 14.687-.632 3.475-.5 6.985-.5 10.5v12.844c-.002 23.838.001 47.694 0 71.531-.002 30.118.004 60.226 0 90.344v8.5c-.001 2.817-.008 5.617.437 8.406 1.76 11.022 8.667 21.541 18.719 26.656 2.555 1.301 5.294 2.25 8.125 2.719 2.8.464 5.642.34 8.469.344 2.712.003 5.413.028 8.125.031 13.56.018 27.127.014 40.687.032 8.588.011 17.194.05 25.782.062 3.801.005 7.649.214 11.437-.156a33.195 33.195 0 008.375-1.938c10.474-3.922 18.458-13.218 20.406-24.281.582-3.305.495-6.628.5-9.969.006-4.105-.006-8.207 0-12.312.035-21.554.085-43.134.125-64.688.061-32.33.087-64.638.125-96.968.006-4.619-.004-9.257 0-13.876.003-3.358.14-6.708-.437-10.031-1.566-9.013-7.139-16.995-14.907-21.781a33.23 33.23 0 00-13.031-4.625c-2.241-.297-4.494-.292-6.75-.313-2.673-.024-5.358-.038-8.031-.062-11.227-.101-22.46-.213-33.688-.312l-28.187-.25c-2.665-.024-5.335-.039-8-.063-.835-.007-1.665-.024-2.5-.031-.431-.004-.013-.008-2.625-.032zm-2.219 1c-.691.055-1.471.144-2.156.25-1.43.222-2.837.57-4.219 1-.148.047-.29.108-.437.157a29.06 29.06 0 014.656-1.125 31.066 31.066 0 012.156-.282zm-7.312 1.626a32.22 32.22 0 010 0zm-4.063 1.718c-2.276 1.164-4.405 2.615-6.375 4.25 1.975-1.641 4.104-3.083 6.375-4.25zm-6.375 4.25c-.201.167-.396.329-.593.5.195-.169.394-.334.593-.5zm-.593.5c-1.46 1.265-2.851 2.592-4.094 4.063-.422.499-.791 1.041-1.188 1.562a37.217 37.217 0 015.282-5.625z"
      ></path>
    </g>
    <g>
      <path
        fill="#302e92"
        d="M659.719 201.906c-20.192.601-35.353 17.554-44.688 33.844a127.156 127.156 0 00-4.593 8.812c-2.007 4.238-3.771 8.595-5.376 13a181.813 181.813 0 00-5.031 16.094c-1.862 7.104-3.292 14.306-4.406 21.563a238.855 238.855 0 00-2.5 25.437c-.099 2.2-.18 4.392-.219 6.594-.013.742.007 1.508 0 2.25-.003.37-.011 0-.031 2.219a.904.904 0 00.906.906c-.003-.297 0-.906 0-.906s.002.514.031.906a.904.904 0 00.876-.906c.008-1.11-.053-.734.031-1.125.077-.362-.003-.724 0-1.094.005-.737.019-1.482.031-2.219.043-2.549.138-5.078.25-7.625a227.748 227.748 0 012.062-22.125c3.012-21.105 8.815-42.331 19.438-60.937 5.539-9.702 12.58-18.967 21.781-25.469 3.537-2.499 7.411-4.551 11.531-5.906a35.683 35.683 0 019.938-1.781c18.445-.632 32.976 13.323 42.406 27.75a111.17 111.17 0 014.063 6.718 129.12 129.12 0 014.469 8.844c6.672 14.495 10.857 29.966 13.562 45.656 3.819 22.149 4.215 45.03 1.688 67.344-2.025 17.871-6.021 35.666-12.907 52.312-4.235 10.238-9.594 20.172-16.656 28.75-4.196 5.097-9.035 9.733-14.625 13.282-3.974 2.523-8.34 4.477-12.938 5.531a35.645 35.645 0 01-9.062.906c-19.815-.604-34.683-17.381-43.844-33.343a126.48 126.48 0 01-4.562-8.75 150.407 150.407 0 01-5.375-12.907 179.256 179.256 0 01-5-16c-1.856-7.072-3.291-14.244-4.407-21.469-1.294-8.388-2.11-16.866-2.5-25.343-.117-2.561-.225-5.124-.25-7.688.002.375-.005.75 0 1.125.041 2.558.14 5.101.25 7.656.32 7.427 1.02 14.86 2.063 22.219 3.01 21.231 8.859 42.562 19.531 61.281 5.605 9.832 12.742 19.197 22.063 25.782 3.618 2.556 7.565 4.679 11.781 6.062a36.698 36.698 0 0010.219 1.813c21.039.702 36.926-16.776 46.562-33.563 1.643-2.861 3.149-5.801 4.563-8.781 6.961-14.673 11.437-30.493 14.187-46.469a240.996 240.996 0 003.469-38.406 241.268 241.268 0 00-2.688-38.469c-2.288-15.142-6.05-30.139-11.906-44.312-4.267-10.327-9.659-20.347-16.781-29-4.263-5.18-9.16-9.869-14.844-13.469-4.07-2.578-8.544-4.579-13.25-5.656a36.792 36.792 0 00-9.312-.938zm-65.907 130.719h-.031c.004.43.026.727.031 1.313-.002-.37.077-.764 0-1.126-.014-.067.007-.106 0-.187z"
      ></path>
    </g>
    <g>
      <path
        fill="#302e92"
        d="M658.562 202.5a37.004 37.004 0 00-9.062 1.781c-4.216 1.383-8.163 3.476-11.781 6.031-9.76 6.895-17.119 16.824-22.844 27.188-10.161 18.393-15.813 39.192-18.75 59.906-1.095 7.725-1.758 15.488-2.094 23.282a245.583 245.583 0 00-.219 6.593c-.011.74.005 1.479 0 2.219a245.718 245.718 0 01.25-8.812c.39-8.478 1.206-16.925 2.5-25.313 1.213-7.856 2.81-15.643 4.907-23.313 1.465-5.359 3.161-10.677 5.125-15.874 1.632-4.322 3.438-8.57 5.468-12.719a122.615 122.615 0 014.626-8.594c9.55-16.126 25.05-32.646 45.343-31.969 3.048.102 6.077.605 9 1.469 4.182 1.236 8.135 3.198 11.75 5.625 5.553 3.728 10.353 8.494 14.5 13.719 6.612 8.33 11.695 17.821 15.75 27.625 5.832 14.097 9.566 29.029 11.844 44.094 3.826 25.292 3.564 51.355-.781 76.562-2.739 15.888-7.193 31.629-14.125 46.219a123.749 123.749 0 01-5.344 10.062c-8.511 14.345-21.742 29.242-39.25 31.469-2.238.285-4.499.34-6.75.188-3.002-.204-5.955-.811-8.813-1.75-4.12-1.355-7.994-3.408-11.531-5.907-9.636-6.809-16.903-16.615-22.562-26.843-10.116-18.283-15.718-38.938-18.657-59.532-1.097-7.694-1.783-15.455-2.124-23.218a243.543 243.543 0 01-.188-6.563c-.012-.737-.026-1.451-.031-2.187-.003-.37-.014 0-.031-2.219a.906.906 0 00-.876-.907c-.004-.092.015-.143 0-.218 0 .1-.03.124-.031.218a.905.905 0 00-.906.907c.01 1.109.108.733.031 1.125-.071.363-.003.724 0 1.094.007.742-.013 1.476 0 2.218.039 2.202.12 4.425.219 6.625a238.323 238.323 0 002.5 25.407c1.211 7.891 2.802 15.733 4.906 23.437a178.047 178.047 0 005.157 15.937c1.64 4.351 3.458 8.635 5.5 12.813a123.556 123.556 0 004.656 8.687c9.739 16.467 25.529 33.145 46.218 32.438a37.172 37.172 0 009.25-1.5c4.277-1.263 8.301-3.272 12-5.75 5.643-3.779 10.541-8.631 14.75-13.938 6.667-8.402 11.758-17.986 15.844-27.874 5.856-14.174 9.618-29.17 11.906-44.313a241.26 241.26 0 002.688-38.469 240.996 240.996 0 00-3.469-38.406c-2.75-15.975-7.226-31.795-14.187-46.469a125.078 125.078 0 00-5.375-10.156c-8.679-14.651-22.122-29.621-39.969-31.906a35.759 35.759 0 00-6.938-.219z"
      ></path>
    </g>
    <g>
      <path
        fill="#302e92"
        d="M467.125 201c-2.389-.006-4.751-.034-7.125.281a33.34 33.34 0 00-13.062 4.657c-7.775 4.8-13.311 12.786-14.876 21.812-.288 1.665-.426 3.353-.468 5.031-.043 1.678-.002 3.349 0 5.031.004 4.63-.006 9.246 0 13.876.038 32.404.095 64.814.156 97.218.039 20.575.06 41.145.094 61.719.008 5.144.023 10.294.031 15.437.004 3.035-.151 6.1.437 9.094 1.536 7.809 6.833 14.404 12.719 19.5 2.873 2.488 6.038 4.679 9.594 6.063 6.157 2.396 12.84 1.759 19.313 1.75 9.039-.013 18.085-.02 27.124-.031 13.108-.018 26.205-.015 39.313-.032 2.712-.003 5.444-.028 8.156-.031 2.219-.003 4.418.021 6.625-.25 4.221-.519 8.331-1.877 12-4.031 9.402-5.52 14.143-14.929 15.438-25.469.288-2.346.363-4.72.375-7.094.012-2.374-.062-4.734-.063-7.093-.005-31.632.002-63.276 0-94.907-.001-23.807.002-47.599 0-71.406V239.25c0-3.092.053-6.163-.5-9.219-.926-5.119-3.18-9.928-6.281-14.093 3.085 4.162 5.275 8.983 6.187 14.093.545 3.051.476 6.134.469 9.219-.006 2.575-.025 5.144-.031 7.719-.106 45.731-.204 91.456-.312 137.187-.028 11.423-.067 22.858-.094 34.282-.01 4.082.19 8.21-.156 12.281-.444 5.211-1.744 10.472-4.188 15.125-4.316 8.217-12.56 13.935-21.688 15.406-3.037.489-6.091.41-9.156.406-2.712-.003-5.413.004-8.125 0-17.628-.022-35.247-.068-52.875-.094-5.424-.007-10.857.008-16.281 0-4.767-.006-9.469.167-14.031-1.437-4.426-1.556-8.174-4.375-11.594-7.531-5.085-4.693-9.536-10.744-10.875-17.656-.471-2.431-.41-4.88-.406-7.344.002-1.543-.002-3.082 0-4.625.008-5.658.022-11.311.031-16.969.075-45.778.138-91.566.219-137.344.015-8.744.023-17.474.031-26.218.002-2.572-.002-5.147 0-7.719.002-1.906.018-3.797.281-5.688.917-6.595 4.119-12.76 8.875-17.406 4.82-4.708 11.134-7.747 17.813-8.625 2.735-.359 5.498-.26 8.25-.25 2.673.01 5.327-.01 8 0 16.928.062 33.853.128 50.781.188 4.9.017 9.818.045 14.719.062 1.782.006 3.562-.006 5.343 0 .446.002-.016.022 2.657.031.487.002.85-.393.875-.875-.281-.012-.875-.031-.875-.031s.522.013.906 0a.903.903 0 00-.906-.906c-1.337-.004-.849.049-1.313-.031-.439-.076-.898.001-1.344 0-.89-.003-1.796.002-2.687 0-2.673-.007-5.327-.025-8-.032-9.355-.024-18.707-.038-28.063-.062-11.582-.03-23.167-.066-34.75-.094h-6.687zm83.75 1.125c0 .015-.03.016-.031.031.591.025 1.155.047 1.844.094-.168-.016-.332-.05-.5-.062-.365-.028-.734-.124-1.094-.063-.076.013-.126-.003-.219 0zm1.813.125c.431.04.851.129 1.281.188-.243-.033-.476-.13-.719-.157-.124-.013-.352-.017-.562-.031zm1.281.188c1.019.138 2.031.383 3.031.624-.537-.131-1.05-.335-1.594-.437-.477-.089-.956-.122-1.437-.187zm3.031.624c.807.198 1.617.364 2.406.626-.286-.095-.554-.227-.844-.313-.507-.151-1.047-.188-1.562-.313zm2.406.626c.63.206 1.229.473 1.844.718-.613-.246-1.217-.511-1.844-.718zm1.844.718c.927.373 1.861.763 2.75 1.219-.896-.458-1.815-.845-2.75-1.219zm2.75 1.219c.327.167.647.353.969.531-.164-.091-.303-.224-.469-.312-.16-.086-.339-.136-.5-.219zm.969.531a35.265 35.265 0 0111.156 9.782c-.53-.712-1.013-1.455-1.594-2.126-2.688-3.102-5.969-5.669-9.562-7.656z"
      ></path>
    </g>
  </g>
</svg>
