<?xml version="1.0" encoding="UTF-8" standalone="no"?>
<svg height="100%" stroke-miterlimit="10" style="fill-rule:nonzero;clip-rule:evenodd;stroke-linecap:round;stroke-linejoin:round;" version="1.1" viewBox="0 0 419.58 297.675" width="100%" xmlns="http://www.w3.org/2000/svg">
<defs>
<linearGradient gradientTransform="matrix(1 0 0 1 0 0)" gradientUnits="userSpaceOnUse" id="LinearGradient" x1="240.211" x2="256.628" y1="239.342" y2="239.342">
<stop offset="0" stop-color="#bb7280"/>
<stop offset="1" stop-color="#36040d"/>
</linearGradient>
<linearGradient gradientTransform="matrix(1 0 0 1 0 0)" gradientUnits="userSpaceOnUse" id="LinearGradient_2" x1="258.971" x2="279.043" y1="195.586" y2="195.586">
<stop offset="0" stop-color="#bb7280"/>
<stop offset="1" stop-color="#36040d"/>
</linearGradient>
<linearGradient gradientTransform="matrix(1 0 0 1 0 0)" gradientUnits="userSpaceOnUse" id="LinearGradient_3" x1="277.873" x2="292.39" y1="216.94" y2="216.94">
<stop offset="0" stop-color="#bb7280"/>
<stop offset="1" stop-color="#36040d"/>
</linearGradient>
<linearGradient gradientTransform="matrix(1 0 0 1 0 0)" gradientUnits="userSpaceOnUse" id="LinearGradient_4" x1="309.203" x2="326.35" y1="166.702" y2="166.702">
<stop offset="0" stop-color="#bb7280"/>
<stop offset="1" stop-color="#36040d"/>
</linearGradient>
<linearGradient gradientTransform="matrix(1 0 0 1 0 0)" gradientUnits="userSpaceOnUse" id="LinearGradient_5" x1="304.412" x2="323.125" y1="134.164" y2="134.164">
<stop offset="0" stop-color="#bb7280"/>
<stop offset="1" stop-color="#36040d"/>
</linearGradient>
<linearGradient gradientTransform="matrix(1 0 0 1 0 0)" gradientUnits="userSpaceOnUse" id="LinearGradient_6" x1="289.206" x2="304.746" y1="94.149" y2="94.149">
<stop offset="0" stop-color="#bb7280"/>
<stop offset="1" stop-color="#36040d"/>
</linearGradient>
<linearGradient gradientTransform="matrix(1 0 0 1 0 0)" gradientUnits="userSpaceOnUse" id="LinearGradient_7" x1="280.962" x2="292.818" y1="164.765" y2="164.765">
<stop offset="0" stop-color="#bb7280"/>
<stop offset="1" stop-color="#36040d"/>
</linearGradient>
<linearGradient gradientTransform="matrix(1 0 0 1 0 0)" gradientUnits="userSpaceOnUse" id="LinearGradient_8" x1="268.89" x2="281.728" y1="124.268" y2="124.268">
<stop offset="0" stop-color="#bb7280"/>
<stop offset="1" stop-color="#36040d"/>
</linearGradient>
<linearGradient gradientTransform="matrix(1 0 0 1 0 0)" gradientUnits="userSpaceOnUse" id="LinearGradient_9" x1="251.548" x2="263.489" y1="92.4217" y2="92.4217">
<stop offset="0" stop-color="#bb7280"/>
<stop offset="1" stop-color="#36040d"/>
</linearGradient>
<linearGradient gradientTransform="matrix(1 0 0 1 0 0)" gradientUnits="userSpaceOnUse" id="LinearGradient_10" x1="271.274" x2="286.395" y1="68.8014" y2="68.8014">
<stop offset="0" stop-color="#bb7280"/>
<stop offset="1" stop-color="#36040d"/>
</linearGradient>
<linearGradient gradientTransform="matrix(1 0 0 1 0 0)" gradientUnits="userSpaceOnUse" id="LinearGradient_11" x1="299.167" x2="311.295" y1="195.154" y2="195.154">
<stop offset="0" stop-color="#bb7280"/>
<stop offset="1" stop-color="#36040d"/>
</linearGradient>
<linearGradient gradientTransform="matrix(1 0 0 1 0 0)" gradientUnits="userSpaceOnUse" id="LinearGradient_12" x1="243.944" x2="252.911" y1="65.607" y2="65.607">
<stop offset="0" stop-color="#bb7280"/>
<stop offset="1" stop-color="#36040d"/>
</linearGradient>
</defs>
<g id="Layer-Cyto-1" layerName="Layer Cyto 1">
<g opacity="1" layerName="(curve)">
<path d="M209.028 22.3485L209.43 22.3485C279.667 22.3485 336.606 78.6283 336.606 148.053L336.606 148.053C336.606 217.477 279.667 273.757 209.43 273.757L209.028 273.757C138.791 273.757 81.8521 217.477 81.8521 148.053L81.8521 148.053C81.8521 78.6283 138.791 22.3485 209.028 22.3485Z" fill="#ba7280" fill-rule="nonzero" opacity="1" stroke="none"/>
</g>
</g>
<g id="Layer-Nucleus" layerName="Layer Nucleus">
<path d="M105.569 193.614L105.569 193.614C83.2407 153.309 96.7585 102.031 135.761 79.0816L136.384 78.7155C175.387 55.7659 225.105 69.8352 247.433 110.14L247.433 110.14C269.761 150.445 256.243 201.723 217.24 224.672L216.618 225.038C177.615 247.988 127.897 233.918 105.569 193.614Z" fill="#530f1c" fill-rule="nonzero" opacity="1" stroke="none"/>
<g opacity="1">
<path d="M107.219 72.5312C105.599 74.4595 104.071 76.4459 102.656 78.5312C100.939 81.0636 99.4486 83.7177 97.9375 86.375C96.7649 88.437 95.522 90.4484 94.5625 92.625C92.3229 97.7052 90.5525 103.015 88.8125 108.281C87.1631 113.273 85.348 118.187 84.25 123.344C83.5756 126.511 83.4593 129.726 82.9062 132.906C82.4881 135.311 81.9473 137.68 81.8125 140.125C81.0137 154.612 83.5461 169.194 87.5938 183.062C89.6431 190.084 92.0017 197.103 95 203.781C97.8765 210.188 101.352 216.309 105.188 222.188C107.379 225.547 109.629 228.937 112.188 232.031C117.948 238.998 125.487 244.023 132.781 249.219C135.816 251.381 138.745 253.711 141.844 255.781C145.27 258.07 148.827 260.104 152.5 261.969C161.512 266.545 171.213 270.171 181.094 272.344C189.533 274.199 198.238 275.038 206.875 274.875C215.19 274.718 223.341 273.231 231.5 271.75C237.858 270.596 244.144 269.672 250.344 267.75C262.196 264.076 273.378 258.137 283.625 251.188C290.794 246.325 297.097 240.277 303.062 234.031C306.682 230.242 310.401 226.419 313.469 222.156C314.819 220.28 315.968 218.261 317.156 216.281C318.917 213.346 320.613 210.367 322.219 207.344C326.939 198.453 330.86 189.136 333.375 179.375C336.158 168.574 337.172 157.474 337.25 146.344C337.257 144.812 336.032 143.57 334.5 143.562C332.968 143.555 331.726 144.78 331.719 146.312C331.692 156.996 330.748 167.652 328.125 178.031C325.757 187.399 322.065 196.356 317.594 204.906C316.049 207.86 314.415 210.788 312.719 213.656C311.615 215.522 310.565 217.415 309.312 219.188C306.417 223.286 302.859 226.941 299.438 230.594C293.762 236.654 287.838 242.608 281.031 247.406C270.809 254.611 259.194 260.702 247.219 264.375C241.45 266.144 235.5 267.043 229.594 268.219C223.723 269.387 217.813 270.588 211.844 271.125C201.832 272.025 191.56 271.364 181.719 269.344C176.576 268.288 171.536 266.761 166.594 265C160.028 262.661 153.609 259.818 147.562 256.344C142.857 253.64 138.576 250.368 134.125 247.281C128.517 243.392 122.792 239.665 117.781 235C113.443 230.961 110.037 226.057 106.75 221.156C102.891 215.402 99.3876 209.382 96.4688 203.094C94.9578 199.839 93.6474 196.491 92.4062 193.125C86.2 176.294 81.8759 158.201 82.6562 140.156C82.7871 137.129 83.5908 134.219 83.9375 131.219C84.0616 130.145 84.0836 129.074 84.1875 128C84.3338 126.487 84.6072 124.958 84.9062 123.469C86.0031 118.006 87.9003 112.801 89.5625 107.5C90.5392 104.385 91.5945 101.314 92.7188 98.25C93.3968 96.4021 94.0391 94.5614 94.8125 92.75C95.8416 90.3399 97.2065 88.103 98.4688 85.8125C101.072 81.0888 103.797 76.7021 107.219 72.5312Z" fill="#3b0811" stroke="none"/>
</g>
<g opacity="1">
<path d="M206.312 21.1875C189.375 21.9206 172.476 25.72 157 32.6875C150.45 35.6364 144.294 39.3392 138.281 43.25C127.386 50.3362 117.701 59.2478 109.781 69.5625C104.002 77.0896 99.2019 85.3856 96.4375 94.5C99.3435 85.4562 104.27 77.2555 110.156 69.8438C118.189 59.7301 127.94 51.0468 138.875 44.1875C144.893 40.4124 151.057 36.8103 157.594 34C171.973 27.8177 187.567 24.4067 203.188 23.6562C213.617 23.1552 224.154 23.8021 234.375 26C249.27 29.2031 263.173 35.9964 275.594 44.7188C282.038 49.2443 288.054 54.3253 293.844 59.6562C297.359 62.8929 300.791 66.2148 303.906 69.8438C308.503 75.1987 312.473 81.0656 316.125 87.0938C318.013 90.2097 319.887 93.3726 321.531 96.625C323.263 100.05 324.751 103.59 326 107.219C328.552 114.635 330.2 122.404 330.875 130.219C331.094 132.752 331.175 135.272 331.219 137.812C331.265 140.511 331.761 143.238 331.531 145.938C331.41 147.465 332.566 148.785 334.094 148.906C335.621 149.028 336.941 147.902 337.062 146.375C337.28 143.475 336.753 140.614 336.688 137.719C336.425 126.046 334.44 114.457 330.25 103.531C329.038 100.371 327.681 97.2577 326.125 94.25C324.389 90.8943 322.406 87.6723 320.406 84.4688C317.053 79.0958 313.425 73.8873 309.312 69.0625C306.213 65.4255 302.813 62.062 299.344 58.7812C293.468 53.2251 287.226 48.0985 280.594 43.4688C266.856 33.8781 251.465 26.4012 234.938 23.1875C225.531 21.3584 215.878 20.7735 206.312 21.1875Z" fill="#3b0811" stroke="none"/>
</g>
<g opacity="1" layerName="Group 1">
<path d="M240.735 242.849C236.302 248.455 261.642 251.392 255.728 236.185C251.161 224.44 245.536 236.777 240.735 242.849Z" fill="url(#LinearGradient)" fill-rule="nonzero" opacity="1" stroke="none"/>
<path d="M261.393 191.537C251.331 200.161 275.678 211.972 278.719 199.2C282.244 184.393 255.743 180.274 259.727 198.201" fill="url(#LinearGradient_2)" fill-rule="nonzero" opacity="1" stroke="none"/>
<path d="M277.886 216.527C277.384 227.021 291.89 226.171 292.38 216.86C292.831 208.29 278.358 206.656 277.886 216.527Z" fill="url(#LinearGradient_3)" fill-rule="nonzero" opacity="1" stroke="none"/>
<path d="M310.206 161.883C304.82 175.491 322.732 180.547 326.033 169.546C328.7 160.656 313.786 152.836 310.206 161.883Z" fill="url(#LinearGradient_4)" fill-rule="nonzero" opacity="1" stroke="none"/>
<path d="M306.041 126.897C301.453 137.055 306.904 148.219 318.036 143.89C332.723 138.178 311.493 114.825 306.041 126.897Z" fill="url(#LinearGradient_5)" fill-rule="nonzero" opacity="1" stroke="none"/>
<path d="M289.215 94.0773C289.525 105.867 303.595 105.926 304.708 95.9099C305.651 87.4238 288.778 77.4913 289.215 94.0773Z" fill="url(#LinearGradient_6)" fill-rule="nonzero" opacity="1" stroke="none"/>
<path d="M282.551 160.55C278.206 165.201 283.458 174.166 290.048 170.212C297.048 166.012 289.376 153.243 282.551 160.55Z" fill="url(#LinearGradient_7)" fill-rule="nonzero" opacity="1" stroke="none"/>
<path d="M268.89 125.398C268.854 132.644 282.151 133.126 281.718 124.898C281.171 114.517 268.937 115.644 268.89 125.398Z" fill="url(#LinearGradient_8)" fill-rule="nonzero" opacity="1" stroke="none"/>
<path d="M251.73 90.4122C250.129 99.1919 259.492 103.905 263.059 95.2435C265.898 88.3484 253.833 78.8825 251.73 90.4122Z" fill="url(#LinearGradient_9)" fill-rule="nonzero" opacity="1" stroke="none"/>
<path d="M274.554 61.4242C271.472 65.8241 267.612 78.4304 278.386 77.9173C295.72 77.0919 280.388 53.0947 274.554 61.4242Z" fill="url(#LinearGradient_10)" fill-rule="nonzero" opacity="1" stroke="none"/>
<path d="M299.21 196.368C298.421 202.607 308.578 204.84 311.039 197.868C313.181 191.799 301.257 180.203 299.21 196.368Z" fill="url(#LinearGradient_11)" fill-rule="nonzero" opacity="1" stroke="none"/>
<path d="M246.566 61.4242C243.473 60.9472 241.46 72.4087 250.397 69.2543C255.866 67.3242 251.406 62.1708 246.566 61.4242Z" fill="url(#LinearGradient_12)" fill-rule="nonzero" opacity="1" stroke="none"/>
</g>
</g>
<g id="Layer-White" layerName="Layer White">
<g opacity="1">
<path d="M164 69.4375C161.018 69.7992 158.253 71.2136 155.469 72.25C151.572 73.7006 147.776 75.3829 144.156 77.4375C137.985 80.9405 132.46 85.3937 127.25 90.1875C116.697 99.8962 108.058 111.135 103.281 124.781C99.8622 134.55 98.5877 145.091 99.2812 155.406C99.4994 158.652 100.016 161.834 100.594 165.031C101.295 168.912 102.163 172.749 103.281 176.531C105.703 184.724 109.028 192.758 114 199.75C116.258 202.925 118.825 205.828 121.625 208.531C123.529 210.332 126.543 210.248 128.344 208.344C130.145 206.44 130.06 203.426 128.156 201.625C125.724 199.375 123.48 196.974 121.5 194.312C116.93 188.17 113.875 181.12 111.344 173.938C110.13 170.493 108.952 167.021 108.094 163.469C107.53 161.134 107.122 158.777 106.75 156.406C105.068 145.687 105.418 135.143 108.594 124.719C112.727 111.151 121.217 99.6639 131.219 89.8125C135.42 85.674 139.937 81.8463 144.906 78.6562C148.359 76.4399 151.992 74.6054 155.75 72.9688C158.447 71.7939 161.133 70.2051 164.062 69.6875C165.642 69.4084 167.175 69.4993 168.75 69.75C167.175 69.4106 165.609 69.2424 164 69.4375Z" fill="#ffffff" stroke="none"/>
</g>
<g opacity="1">
<path d="M256.906 131.531C257.875 136.673 258.297 141.865 258 147.094C256.424 174.815 236.509 199.039 213.031 212.25C206.027 216.191 198.481 219.429 190.625 221.219C185.189 222.457 179.616 222.674 174.062 222.656C169.331 222.641 164.484 222.53 159.844 221.5C155.236 220.477 150.871 218.651 146.75 216.375C138.359 211.742 131.074 205.277 124.75 198.125C122.996 196.178 119.978 195.996 118.031 197.75C116.084 199.504 115.933 202.522 117.688 204.469C124.369 211.754 131.92 218.236 140.562 223.094C145.756 226.013 151.396 228.343 157.281 229.406C161.145 230.104 165.086 230.094 169 230.125C176.414 230.183 183.783 229.632 190.969 227.688C197.143 226.017 203.119 223.416 208.75 220.406C222.705 212.947 235.044 202.165 244.156 189.219C253.071 176.552 258.879 161.473 258.719 145.844C258.669 141.01 258.021 136.23 256.906 131.531Z" fill="#ffffff" stroke="none"/>
</g>
<path d="M106.408 195.477L104.825 192.62C83.0607 153.333 97.3116 102.718 136.655 79.5684L136.655 79.5684C175.998 56.4185 225.536 69.5001 247.3 108.787L248.883 111.644C270.647 150.931 256.396 201.546 217.052 224.696L217.052 224.696C177.709 247.846 128.172 234.764 106.408 195.477Z" fill="none" opacity="1" stroke="#ffffff" stroke-linecap="round" stroke-linejoin="round" stroke-width="1.0662"/>
</g>
</svg>
