<svg
  xmlns="http://www.w3.org/2000/svg"
  xmlnsVectornator="http://vectornator.io"
  strokeLinecap="round"
  strokeLinejoin="round"
  strokeMiterlimit="10"
  clipRule="evenodd"
  viewBox="0 0 419.58 297.675"
>
  <g vectornatorLayerName="Layer 1">
    <path
      fill="#92283c"
      fillRule="evenodd"
      d="M194.976 23.967h.402c70.237 0 127.176 56.28 127.176 125.704 0 69.425-56.939 125.705-127.176 125.705h-.402c-70.237 0-127.176-56.28-127.176-125.705 0-69.424 56.939-125.704 127.176-125.704z"
    ></path>
    <path
      fill="#530f1c"
      fillRule="evenodd"
      d="M184.933 61.41c52.947 0 95.87 42.619 95.87 95.194v.838c0 52.575-42.923 95.195-95.87 95.195s-95.87-42.62-95.87-95.195v-.838c0-52.575 42.923-95.195 95.87-95.195z"
    ></path>
    <path
      fill="none"
      stroke="#fff"
      strokeWidth="1.066"
      d="M182.598 61.212h3.753c51.61 0 93.448 42.993 93.448 96.026h0c0 53.033-41.838 96.025-93.448 96.025h-3.753c-51.61 0-93.448-42.992-93.448-96.025h0c0-53.033 41.838-96.025 93.448-96.025z"
    ></path>
    <path
      fill="#fff"
      d="M169.031 68.313a4.846 4.846 0 00-1.906.062c-11.076 2.668-21.82 6.66-31.563 12.625-5.864 3.591-11.389 7.92-15.812 13.219-2.918 3.496-5.195 7.463-7.5 11.375-4.368 7.414-8.133 15.2-10.406 23.531-1.953 7.157-2.864 14.665-3.188 22.063-.754 17.213 2.195 34.775 8.844 50.687 7.204 17.239 19.03 32.829 35.531 42.063 4.811 2.692 9.898 4.751 15.188 6.281-5.199-1.734-10.2-3.974-14.875-6.844-15.78-9.688-26.811-25.405-33.125-42.594-5.744-15.636-7.849-32.673-6.313-49.25.644-6.942 1.82-13.935 4.032-20.562 1.937-5.806 4.784-11.249 7.843-16.531 2.806-4.845 5.696-9.773 9.438-13.969 3.729-4.183 8.17-7.656 12.906-10.625 9.512-5.963 20.245-9.769 31.156-12.219 2.553-.594 4.157-3.166 3.563-5.719a4.736 4.736 0 00-3.813-3.594z"
    ></path>
    <path
      fill="#fff"
      d="M182.125 66.813c-2.13-.01-4.278.065-6.406.25-5.064.44-9.993 1.503-14.844 3-2.498.795-3.858 3.47-3.063 5.968.796 2.498 3.44 3.89 5.938 3.094 3.682-1.212 7.404-2.141 11.25-2.656 8.772-1.175 17.61-.303 26.281 1.219 4.124.723 8.288 1.491 12.313 2.656 15.102 4.369 28.968 12.12 39.406 24.062 10.693 12.235 16.765 27.491 20.406 43.156 1.545 6.646 2.534 13.42 2.625 20.25.06 4.464-.337 8.887-.875 13.313-.387 3.185-.409 6.489-1.531 9.531-.65 1.764-1.642 3.293-2.813 4.75 1.25-1.412 2.324-2.91 3.063-4.656 1.366-3.227 1.563-6.859 2.156-10.281.826-4.762 1.347-9.539 1.407-14.375.092-7.586-.9-15.117-2.438-22.532-1.145-5.521-2.528-11.011-4.375-16.343-3.444-9.942-8.434-19.354-15.125-27.5-7.892-9.61-18.081-17.316-29.312-22.625-3.683-1.741-7.516-3.119-11.376-4.407-4.49-1.498-9.048-2.762-13.687-3.718-6.256-1.29-12.609-2.129-19-2.157z"
    ></path>
    <path
      fill="#3b0811"
      d="M192.25 22.813c-16.938.733-33.836 4.532-49.312 11.5-6.551 2.948-12.706 6.651-18.719 10.562A114.893 114.893 0 0095.75 71.188c-5.78 7.527-10.61 15.823-13.375 24.937 2.906-9.044 7.832-17.244 13.719-24.656 8.032-10.114 17.783-18.797 28.718-25.656 6.019-3.776 12.183-7.378 18.719-10.188 14.38-6.182 29.973-9.593 45.594-10.344 10.429-.5 20.967.146 31.187 2.344 14.895 3.203 28.798 9.996 41.219 18.719 6.445 4.525 12.461 9.575 18.25 14.906 3.515 3.237 6.979 6.59 10.094 10.219 4.596 5.355 8.536 11.222 12.187 17.25 1.888 3.116 3.762 6.247 5.407 9.5a84.581 84.581 0 014.469 10.625c2.552 7.416 4.231 15.185 4.906 23 .219 2.533.268 5.053.312 7.594.047 2.698.574 5.425.344 8.124a2.748 2.748 0 002.531 2.969c1.528.122 2.879-1.004 3-2.531.218-2.9-.31-5.792-.375-8.688-.262-11.673-2.278-23.23-6.468-34.156-1.213-3.16-2.57-6.273-4.126-9.281-1.735-3.356-3.719-6.578-5.718-9.781-3.354-5.373-6.982-10.582-11.094-15.407-3.1-3.637-6.468-7-9.938-10.28a163.831 163.831 0 00-18.781-15.313c-13.738-9.59-29.097-17.099-45.625-20.313-9.407-1.829-19.09-2.383-28.656-1.969z"
    ></path>
    <path
      fill="#3b0811"
      d="M93.188 74.156c-1.62 1.928-3.18 3.884-4.594 5.969-1.718 2.532-3.208 5.218-4.719 7.875-1.173 2.062-2.416 4.073-3.375 6.25-2.24 5.08-4.01 10.39-5.75 15.656-1.65 4.992-3.465 9.906-4.563 15.063-.674 3.167-.759 6.382-1.312 9.562-.418 2.405-.99 4.774-1.125 7.219-.799 14.487 1.734 29.069 5.781 42.938 2.05 7.021 4.408 14.04 7.406 20.718 2.877 6.407 6.353 12.528 10.188 18.406 2.192 3.36 4.442 6.75 7 9.844 5.76 6.967 13.3 11.992 20.594 17.188 3.035 2.162 5.963 4.461 9.062 6.531 3.426 2.289 7.015 4.354 10.688 6.219 9.011 4.576 18.681 8.202 28.562 10.375 8.439 1.855 17.144 2.694 25.781 2.531 8.315-.157 16.467-1.644 24.626-3.125 6.357-1.154 12.644-2.078 18.843-4 11.853-3.674 23.066-9.613 33.313-16.563 7.169-4.862 13.44-10.91 19.406-17.156 3.619-3.789 7.338-7.612 10.406-11.875 1.351-1.876 2.531-3.895 3.719-5.875a195.782 195.782 0 005.031-8.937c4.72-8.891 8.641-18.239 11.156-28 2.783-10.801 3.829-21.87 3.907-33a2.814 2.814 0 00-2.781-2.813c-1.533-.007-2.774 1.249-2.782 2.782-.027 10.683-.97 21.339-3.594 31.718-2.367 9.368-6.059 18.325-10.531 26.875a190.433 190.433 0 01-4.843 8.719c-1.104 1.866-2.186 3.79-3.438 5.562-2.895 4.099-6.454 7.754-9.875 11.407-5.676 6.06-11.599 12.014-18.406 16.812-10.222 7.205-21.838 13.296-33.813 16.969-5.769 1.769-11.718 2.668-17.625 3.844-5.87 1.168-11.749 2.338-17.719 2.875-10.011.9-20.283.27-30.124-1.75-5.143-1.056-10.214-2.583-15.157-4.344-6.565-2.339-12.953-5.182-19-8.656-4.706-2.704-9.018-5.976-13.469-9.063-5.608-3.889-11.301-7.648-16.312-12.312-4.338-4.039-7.776-8.912-11.062-13.813-3.86-5.754-7.363-11.774-10.282-18.062-1.51-3.255-2.821-6.603-4.062-9.969-6.206-16.831-10.53-34.924-9.75-52.969.13-3.027.966-5.937 1.312-8.937.124-1.074.146-2.176.25-3.25.147-1.513.389-3.011.688-4.5 1.097-5.463 2.994-10.668 4.656-15.969a204.053 204.053 0 013.156-9.25c.678-1.848 1.32-3.689 2.094-5.5 1.03-2.41 2.394-4.647 3.656-6.938 2.603-4.723 5.36-9.11 8.782-13.28z"
    ></path>
  </g>
</svg>