<?xml version="1.0" encoding="UTF-8" standalone="no"?>
<svg height="100%" stroke-miterlimit="10" style="fill-rule:nonzero;clip-rule:evenodd;stroke-linecap:round;stroke-linejoin:round;" version="1.1" viewBox="0 0 2747.33 2394.05" width="100%" xmlns="http://www.w3.org/2000/svg">
<defs/>
<g id="Layer-Cyto" layerName="Layer Cyto">
<path d="M565.842 392.317L565.842 392.317C1008.86-42.495 1720.52-35.8039 2155.38 407.262L2155.38 407.262C2590.23 850.327 2583.61 1561.99 2140.59 1996.8L2140.59 1996.8C1697.57 2431.61 985.912 2424.92 551.057 1981.85L551.057 1981.85C116.201 1538.79 122.821 827.128 565.842 392.317Z" fill="#b2d8ff" fill-rule="nonzero" opacity="1" stroke="none"/>
</g>
<g id="Layer-Membrane" layerName="Layer Membrane">
<g opacity="1" layerName="Curve 2">
<path d="M1341.56 70.0312C1294.56 70.1157 1247.56 73.1844 1200.94 79.4375C1156.51 85.3955 1112.4 94.138 1069.19 106.062C1043.45 113.163 1017.99 121.156 992.906 130.312C984.35 133.436 975.837 136.692 967.375 140.062C963.139 141.75 958.958 143.542 954.719 145.219C944.577 149.23 933.824 151.472 923.656 155.406C917.267 157.878 910.98 160.724 904.719 163.5C890.829 169.659 877.141 176.217 863.5 182.906C848.324 190.348 833.283 198.055 818.25 205.781C814.244 207.84 810.225 209.911 806.219 211.969C805.434 212.372 804.66 212.785 803.875 213.188C803.483 213.389 802.962 213.436 802.688 213.781C801.895 214.779 802.708 213.771 801.531 214.375C800.874 214.722 800.64 215.429 800.719 216.125C800.116 216.651 799.675 217.381 799.031 217.875C798.503 218.28 797.819 218.462 797.219 218.75C797.819 218.461 798.38 218.045 799.031 217.906C800.385 217.617 800.781 217.094 800.781 217.094C800.781 217.094 800.801 216.909 800.844 216.812C801.318 217.607 802.328 217.937 803.156 217.5C801.964 217.299 801.624 217.452 801.969 217.281C802.684 216.927 803.548 217.074 804.312 216.844C804.735 216.716 805.112 216.429 805.5 216.219C805.888 216.008 806.269 215.804 806.656 215.594C807.437 215.17 808.22 214.736 809 214.312C811.368 213.026 813.726 211.755 816.094 210.469C824.627 205.832 833.16 201.184 841.719 196.594C868.294 182.342 895.09 168.301 922.75 156.25C927.014 154.392 931.463 153.038 935.906 151.688C942.249 149.76 948.665 147.982 954.844 145.562C963.331 142.238 971.753 138.754 980.281 135.531C995.163 129.907 1010.2 124.674 1025.34 119.812C1070.68 105.263 1117.11 94.2088 1164.09 86.5C1282.67 67.0429 1404.48 69.3097 1522.75 89.8438C1572.79 98.5313 1622.27 110.351 1670.72 125.594C1762.66 154.521 1850.78 194.904 1933.69 243.969C1968.18 264.38 2001.89 286.159 2034.31 309.719C2086.69 347.775 2135.88 390.211 2180.53 437.125C2238.13 497.651 2288.2 565.395 2328.22 638.781C2357.82 693.073 2382.11 750.287 2400.47 809.344C2414.69 855.11 2425.44 901.925 2432.78 949.281C2437.73 981.199 2441.2 1013.35 2443.12 1045.59C2455.3 1249.77 2408.13 1455.05 2319.72 1638.69C2301.36 1676.81 2281.22 1714.08 2259.31 1750.28C2235.83 1789.07 2210.53 1826.7 2183.34 1863C2132.7 1930.61 2075.81 1993.6 2013.28 2050.41C2000.75 2061.79 1988 2072.93 1975.06 2083.84C1963.58 2093.54 1951.95 2103.08 1939.97 2112.16C1919.39 2127.73 1897.87 2142.08 1875.69 2155.28C1779.66 2212.41 1671.12 2246.91 1561.09 2264.19C1494.31 2274.68 1426.53 2278.76 1358.97 2277.56C1313.14 2276.75 1267.4 2273.56 1221.91 2268C1105.1 2253.72 990.042 2224.51 880.781 2180.75C859.408 2172.19 838.32 2162.94 817.438 2153.25C777.408 2134.67 738.429 2113.83 700.812 2090.75C674.855 2074.83 649.557 2057.88 625.062 2039.78C572.149 2000.69 523.254 1955.96 480.625 1905.81C460.228 1881.82 441.616 1856.45 424.156 1830.25C404.556 1800.84 386.475 1770.43 369.844 1739.25C347.258 1696.9 327.52 1653.07 310.469 1608.22C303.185 1589.06 296.372 1569.69 290.156 1550.16C264.898 1470.78 248.216 1388.83 239.625 1306C237.035 1281.03 235.363 1255.96 234.438 1230.88C232.751 1185.18 233.714 1139.42 237.344 1093.84C240.665 1052.14 246.13 1010.53 254.188 969.469C260.211 938.778 268.044 908.458 276.562 878.375C282.843 856.197 289.375 834.061 296.844 812.25C303.849 791.794 311.681 771.618 320.281 751.781C353.14 675.984 397.108 605.597 445.062 538.531C458.362 519.932 471.895 501.46 485.969 483.438C499.814 465.707 514.242 448.441 529.219 431.656C541.763 417.597 554.703 403.943 568.281 390.875C592.109 367.943 617.295 346.391 642.969 325.562C672.098 301.93 702.02 279.247 732.938 258C739.621 253.407 746.382 248.892 753.188 244.469C741.478 252.028 729.909 259.805 718.531 267.844C684.171 292.122 650.869 317.966 618.688 345.062C603.528 357.826 588.643 370.914 574.156 384.438C563.743 394.159 553.505 404.082 543.719 414.438C527.222 431.893 511.342 449.949 496.125 468.531C485.725 481.232 475.687 494.193 465.781 507.281C454.581 522.081 443.564 537.018 432.781 552.125C383.546 621.11 339.16 693.952 306.438 772.312C300.13 787.417 294.253 802.696 288.875 818.156C282.168 837.44 276.136 856.993 270.219 876.531C261.096 906.654 252.684 937.033 246.062 967.812C234.266 1022.64 226.719 1078.4 222.906 1134.34C219.62 1182.57 219.224 1230.91 221.562 1279.19C224.046 1330.47 229.581 1381.6 238.375 1432.19C245.839 1475.13 255.562 1517.64 267.5 1559.56C274.474 1584.05 282.075 1608.37 290.562 1632.38C309.701 1686.51 332.699 1739.25 359.625 1789.97C371.913 1813.12 385.031 1835.82 398.938 1858.03C408.583 1873.44 418.608 1888.61 429.219 1903.38C445.203 1925.61 462.352 1947.01 480.562 1967.47C572.311 2070.52 687.962 2151.14 811.969 2210.66C912.754 2259.03 1019.75 2294.2 1129.28 2316.38C1232.84 2337.35 1338.85 2346.6 1444.47 2342.53C1525.53 2339.41 1606.47 2328.28 1684.97 2307.66C1736.43 2294.13 1786.84 2276.57 1835.22 2254.38C1881.5 2233.14 1925.89 2207.74 1967.28 2178.06C1985.65 2164.89 2003.27 2150.79 2020.56 2136.25C2042.55 2117.76 2063.89 2098.48 2084.62 2078.59C2144.03 2021.62 2198.33 1959.27 2246.62 1892.62C2338.97 1765.21 2409.93 1622.02 2453.25 1470.66C2474.22 1397.38 2488.74 1322.19 2495.78 1246.28C2499.57 1205.37 2501.12 1164.24 2500.53 1123.16C2499.99 1085.73 2497.4 1048.36 2493 1011.19C2487.5 964.662 2478.65 918.53 2466.75 873.219C2451.01 813.28 2429.64 754.826 2402.94 698.906C2369.12 628.099 2326.36 561.622 2276.5 501.062C2219.13 431.389 2152.19 369.858 2079.22 316.844C2047.85 294.057 2015.31 272.886 1981.94 253.156C1890.12 198.869 1792.57 154.036 1690.53 122.688C1622.61 101.82 1552.78 87.1124 1482.25 78.5312C1435.57 72.8523 1388.57 69.9468 1341.56 70.0312ZM753.188 244.469C755.734 242.825 758.308 241.236 760.875 239.625C758.313 241.242 755.728 242.818 753.188 244.469ZM760.875 239.625C766.428 236.121 772.013 232.676 777.688 229.375C775.783 230.48 773.826 231.494 771.938 232.625C768.192 234.868 764.573 237.304 760.875 239.625ZM777.688 229.375C779.814 228.141 781.944 226.911 784.094 225.719C782.726 226.482 781.327 227.189 779.969 227.969C779.194 228.414 778.46 228.926 777.688 229.375ZM784.094 225.719C787.158 224.008 790.218 222.282 793.344 220.688C792.064 221.338 790.769 221.985 789.5 222.656C787.67 223.625 785.905 224.714 784.094 225.719Z" fill="#4b88c6" stroke="none"/>
</g>
</g>
<g id="Layer-Nucleus" layerName="Layer Nucleus">
<g opacity="1" layerName="(curve)">
<path d="M1507.84 2022.01L1507.84 2022.01C1062.4 2129.37 620.186 1879.92 520.138 1464.84L493.176 1352.98C393.128 937.901 673.129 514.373 1118.58 407.006L1118.58 407.006C1564.02 299.639 2006.23 549.089 2106.28 964.17L2133.24 1076.03C2233.29 1491.11 1953.29 1914.64 1507.84 2022.01Z" fill="#28425d" fill-rule="nonzero" opacity="1" stroke="#fbfbfb" stroke-linecap="square" stroke-linejoin="bevel" stroke-width="12.9836"/>
</g>
</g>
<g id="Layer-White" layerName="Layer White">
<g opacity="1" layerName="Curve 6">
<path d="M1287.84 481.719C1265.95 482.021 1244.1 483.205 1222.28 485.156C1194.91 487.605 1167.55 491.281 1140.59 496.656C1127.05 499.356 1113.65 502.67 1100.28 506.094C1089.3 508.907 1078.33 511.646 1067.44 514.812C1064.63 515.629 1061.78 516.418 1059 517.312C1051.7 519.658 1044.46 522.21 1037.25 524.812C1000.37 538.119 964.685 554.796 930.688 574.312C897.844 593.167 866.52 614.621 837.125 638.5C805.485 664.203 776.194 692.597 749.125 723.062C733.585 740.493 735.101 767.241 752.531 782.781C769.962 798.322 796.678 796.774 812.219 779.344C829.965 759.508 848.763 740.652 868.719 723.031C903.667 692.172 941.929 665.067 982.562 642.219C1009.11 627.291 1036.65 614.25 1064.84 602.75C1071.82 599.907 1078.87 597.261 1085.91 594.594C1097.79 590.089 1109.61 585.306 1121.75 581.5C1133.31 577.874 1145.02 574.676 1156.75 571.656C1167.48 568.895 1178.2 566.17 1189.03 563.844C1204.2 560.587 1219.48 557.806 1234.81 555.438C1257.36 551.954 1280.13 549.798 1302.91 548.5C1364.42 544.994 1426.22 548.958 1486.91 559.5C1679.86 593.02 1863.14 693.287 1987.81 845.438C2022.36 887.601 2052.04 933.855 2075.88 982.875C2081.92 995.302 2087.57 1007.95 2092.84 1020.72C2097.83 1032.8 2102.41 1045.02 2106.94 1057.28C2118.03 1087.32 2128.19 1117.79 2135.47 1149C2142.47 1179.06 2146.64 1209.7 2148.03 1240.53C2150.32 1291.31 2145.53 1342.13 2138.5 1392.38C2147.6 1343.46 2154.53 1293.93 2154.88 1244.09C2155.08 1213.7 2152.66 1183.33 2147.47 1153.38C2141.63 1119.65 2132.42 1086.62 2122.06 1054.03C2117.42 1039.44 2112.66 1024.87 2107.38 1010.5C2100.04 990.564 2091.81 970.967 2082.69 951.781C2048.88 880.666 2003.25 815.208 1949.12 758.062C1868.16 672.578 1769.21 605.066 1661.34 558.188C1630.77 544.901 1599.53 533.087 1567.69 523.188C1484.24 497.238 1397.18 482.817 1309.75 481.719C1302.45 481.627 1295.14 481.618 1287.84 481.719Z" fill="#fbfbfb" stroke="none"/>
</g>
<g opacity="1" layerName="Curve 4">
<path d="M778.469 711.656C767.649 711.837 756.899 716.139 748.781 724.531C709.856 764.641 675.314 808.642 646.438 856.531C634.132 876.939 622.983 898.064 612.906 919.656C597.039 953.658 584.05 989.052 574.281 1025.28C571.661 1035 569.171 1044.78 567.062 1054.62C564.06 1068.64 562.113 1082.84 559.938 1097C557.827 1110.74 555.932 1124.53 554.656 1138.38C552.189 1165.15 551.431 1192.12 551.938 1219C552.59 1253.62 555.56 1288.12 560.594 1322.38C563.764 1343.95 567.991 1365.35 572.906 1386.59C587.073 1447.82 608.148 1507.26 635.188 1563.97C649.465 1593.91 665.641 1622.97 683.219 1651.09C728.565 1723.65 784.385 1789.5 848.906 1845.72C878.758 1871.73 910.597 1895.51 943.906 1916.91C1007.5 1957.76 1077.13 1989.4 1149.91 2009.88C1193.85 2022.24 1238.95 2030.37 1284.38 2034.81C1340.46 2040.3 1397.3 2040.34 1453.25 2033.28C1502.06 2027.13 1550.18 2015.38 1595.12 1995.12C1585.21 1999.07 1575.19 2002.7 1565 2005.88C1531.24 2016.39 1496.23 2022.68 1461.06 2026.03C1409.83 2030.92 1358.05 2029.56 1306.97 2023.62C1259.86 2018.15 1213.12 2008.66 1167.81 1994.59C1104.37 1974.9 1043.55 1946.47 987.812 1910.31C902.492 1854.97 828.833 1783.03 770.219 1700C753.996 1677.02 738.853 1653.21 725.125 1628.66C702.576 1588.32 683.305 1546.15 667.781 1502.62C657.941 1475.03 649.614 1446.94 642.844 1418.44C639.523 1404.46 636.553 1390.38 634.094 1376.22C625.288 1325.53 621.49 1274.05 623.438 1222.62C624.306 1199.69 626.582 1176.78 629.844 1154.06C631.377 1143.39 633.007 1132.73 634.969 1122.12C635.724 1118.04 636.457 1113.93 637.344 1109.88C639.991 1097.76 643.309 1085.85 646.594 1073.91C649.217 1064.37 651.793 1054.82 654.75 1045.38C663.658 1016.92 674.129 988.976 686.656 961.906C706.002 920.104 729.848 880.388 757.688 843.688C773.741 822.524 791.163 802.465 809.594 783.344C825.829 766.558 825.379 739.797 808.594 723.562C800.201 715.445 789.288 711.476 778.469 711.656Z" fill="#fbfbfb" stroke="none"/>
</g>
</g>
</svg>
