<?xml version="1.0" encoding="UTF-8"?>
<svg id="Capa_2" xmlns="http://www.w3.org/2000/svg" viewBox="0 0 776.0518 690.6994">
  <defs>
    <style>
      .cls-1 {
        fill: #898686;
      }

      .cls-2 {
        fill: #a3a2a2;
      }

      .cls-3 {
        fill: #c4c2c2;
      }

      .cls-4 {
        fill: #fff;
      }

      .cls-5 {
        fill: #ada3a3;
      }

      .cls-6 {
        fill: #b0b0b0;
      }

      .cls-7 {
        fill: #dbdbdb;
      }

      .cls-8 {
        fill: #938989;
      }

      .cls-9 {
        fill: #6b6969;
      }

      .cls-10 {
        fill: #847a7a;
      }
    </style>
  </defs>
  <g id="Capa_1-2" data-name="Capa_1">
    <g>
      <g>
        <path class="cls-6" d="M638.13,332.9527c-2.26,10.22-11.53,22.72-23.35,21-5.8601-.86-10.5701-5.03-15.55-8.23-4.78-3.0701-10.24-5.38-15.9199-5.3401-7.3501.05-14.3801,4.2201-18.5801,10.25-4.2,6.03-5.7,13.7101-4.84,21.01.4501,3.8301,1.5699,7.6901,4.0199,10.66,2.6802,3.24,6.6702,5.11,10.6702,6.41,4.9299,1.6,10.0898,2.49,15.2699,2.6499,4.89.1501,10.4601-1.5299,15.05.76,3.0699,1.54,4.86,4.9501,5.33,8.3601,1.24,8.96-2.4399,19.6699-5.71,27.84-4.51,11.28-14.25,20.76-14.9399,32.89-.8401,14.6899,12.0898,28.78,7.6099,42.79-4.0499,12.71-19.96,17.0499-33.28,16.5699-13.3298-.47-27.3799-3.61-39.5299,1.9-8.84,4.01-14.6901,11.63-20.14,19.86-4.86,7.36-9.4099,15.2001-15.47,21.4-23.04,23.5699-61.23,18.84-93.49,25.59-11.03,2.3099-12.23,6.4-23.3601,4.67-11.1399-1.73-24.1399-12.52-21.74-23.53,3.6602-16.75,23.8601-17.77,27.4601-34.53,2.7899-13.03-12.08-23.08-25.26-25.04-10.5499-1.5599-22.89.17-29,8.9-7.5,10.7101-2.2001,26.78-9.6801,37.5-7.85,11.25-25.4299,10.1-37.24,3.12-11.8099-6.97-20.73-18.1299-32.6-25.01-6.76-3.9099-14.33-6.34-20.86-10.6299-3.6899-2.4301-7.1-5.7001-9.29-9.5-1.6799-2.9102-2.6499-6.1301-2.5-9.52.65-13.99,17.9-19.77,27.03-30.52.3101-.3701.62-.75.91-1.13,6.5399-8.52,7.0599-21.62.1-29.8-6.97-8.1801-21.22-9.2799-28.49-1.37-3.75,4.0701-5.37,9.72-9.03,13.88-8.5,9.65-25.5,7.1-33.98-2.5699-8.48-9.66-9.96-23.72-8.29-36.47,1.6801-12.75-7.6799-44.8501-5.98-57.5901,2.78-20.9299,11.96-22.23,10.5901-43.3-1.3801-21.0699-19.3201-46.3999-5.2101-62.1099,5.52-6.1501,15.99-28.6101,24.2101-29.52,8.21-.9,18.9099,2.01,21.1599,9.96,7.49,26.4199,32.88,44.28,53.97,20.58,17.0801-19.1899,7.5-46.0599-25.22-48.35-13.6499-.96-21.5701-17.64-22.11-31.3-.6801-16.9999,22.6-20.6899,37.7899-30.47,13.6001-8.75,31.03-8.69,45.6501-15.11,24.1899-10.63,39.58-39.23,65.83-42.3,21.9301-2.56,41.2799,14.11,62.9301,18.39,15.8398,3.13,32.1899-.51,48.3199.1,16.14.6,34.22,7.57,39.25,22.92,2.9301,8.97-12.89,35.89,7.5299,48.4,11.1801,6.85,26.4301,3.6801,39.7001,4.73.78.0599,1.5599.14,2.33.2301,13.5601,1.6599,22.9401,13.72,30.52,25.25.3301.49.64.97.96,1.46,9.52,14.6599,7.6201,30.85,15.1501,46.6499,7.2699,15.27,23.1099,30.51,28.2799,46.5901,3.11,9.6699,5.2101,20.04,3.02,29.97Z"/>
        <path class="cls-7" d="M364.7525,87.9969c20.0653,0,38.1963,14.678,58.3175,18.6558,4.89.9663,9.8304,1.2875,14.7962,1.2875,9.8314,0,19.768-1.2579,29.6455-1.2579,1.2941,0,2.5866.0216,3.8783.0704,16.14.6,34.2199,7.5699,39.25,22.9199,2.93,8.9701-12.8901,35.89,7.5299,48.4,6.5399,4.007,14.4726,4.5853,22.5868,4.5853,3.2926,0,6.6154-.0952,9.8869-.0952,2.4488,0,4.8686.0533,7.2263.2399.7801.0599,1.56.14,2.33.2301,13.5601,1.6599,22.9401,13.72,30.52,25.25.3301.49.64.97.96,1.46,9.52,14.6599,7.6201,30.85,15.1501,46.6499,7.2699,15.27,23.1099,30.51,28.2799,46.5901,3.11,9.6699,5.2101,20.04,3.0201,29.97-2.1181,9.5781-10.3948,21.1599-21.1557,21.1599-.7211,0-1.452-.0519-2.1943-.1599-5.8601-.86-10.5701-5.03-15.5501-8.23-4.7392-3.0438-10.1472-5.3405-15.7748-5.3406-.0485,0-.0965.0001-.1451.0005-7.3501.05-14.3801,4.2201-18.5801,10.25-4.1999,6.03-5.6999,13.7101-4.8399,21.01.45,3.8301,1.5699,7.6901,4.0199,10.66,2.6801,3.24,6.6701,5.11,10.6701,6.41,4.93,1.6,10.0899,2.49,15.2699,2.6499.2155.0066.4329.0096.6509.0096,2.6856,0,5.5497-.464,8.3274-.464,2.1132,0,4.176.2686,6.0718,1.2144,3.0699,1.54,4.86,4.9501,5.3299,8.3601,1.24,8.96-2.4399,19.6699-5.7099,27.8401-4.51,11.28-14.25,20.76-14.94,32.89-.8401,14.6899,12.0899,28.78,7.6099,42.79-3.8517,12.0878-18.4327,16.6054-31.3089,16.6054-.6627,0-1.3191-.0119-1.9711-.0354-7.2987-.2574-14.8138-1.3152-22.1142-1.3152-6.0325,0-11.9183.7222-17.4157,3.2152-8.84,4.01-14.6901,11.63-20.1401,19.86-4.8599,7.3599-9.4099,15.2-15.4699,21.4-23.0401,23.5699-61.23,18.84-93.49,25.59-9.1902,1.9246-11.5567,5.0851-18.5281,5.0851-1.3957,0-2.9754-.1266-4.832-.4152-11.1399-1.73-24.1399-12.52-21.74-23.53,3.6601-16.75,23.8601-17.7701,27.4601-34.5301,2.7899-13.03-12.08-23.0799-25.26-25.04-2.2338-.3303-4.5497-.5131-6.8678-.5132-8.6304-.0004-17.316,2.5316-22.1322,9.4132-7.5,10.7101-2.2001,26.7801-9.6801,37.5-4.1392,5.9319-10.9836,8.4163-18.2608,8.4163-6.5242,0-13.3963-1.9968-18.9792-5.2963-11.8099-6.97-20.73-18.1299-32.6-25.01-6.76-3.9099-14.3299-6.34-20.8599-10.6299-3.69-2.4301-7.1-5.7-9.2901-9.5-1.6799-2.9101-2.6499-6.1301-2.5-9.52.65-13.99,17.9-19.77,27.0301-30.52.31-.3701.6199-.75.91-1.13,6.5399-8.52,7.0599-21.62.1-29.8-3.7509-4.402-9.6118-6.7537-15.3569-6.7542-4.9306-.0004-9.7754,1.7309-13.1331,5.3841-3.75,4.0701-5.37,9.72-9.0301,13.88-3.6959,4.196-9.0007,6.0858-14.5116,6.0858-7.1631,0-14.6756-3.1904-19.4684-8.6557-8.48-9.66-9.96-23.72-8.2901-36.47,1.6801-12.75-7.6799-44.8501-5.98-57.5901,2.7801-20.9299,11.96-22.23,10.5901-43.3-1.3801-21.0699-19.32-46.3999-5.2101-62.1099,5.5201-6.1501,15.99-28.6101,24.2101-29.52.9516-.1044,1.9375-.1575,2.9389-.1575,7.6388,0,16.2318,3.089,18.221,10.1174,5.0346,17.7589,18.1591,31.6517,32.6268,31.6517,7.0558,0,14.4295-3.3024,21.3432-11.0718,17.0801-19.1899,7.5-46.0599-25.22-48.35-13.6499-.96-21.57-17.64-22.1099-31.3-.6801-16.9999,22.5999-20.6899,37.7899-30.47,13.6001-8.75,31.03-8.6899,45.6501-15.11,24.1899-10.63,39.58-39.23,65.83-42.2999,1.5486-.1808,3.0879-.2657,4.6125-.2657M364.7525,76.9268c-1.9774,0-3.9611.1145-5.8963.3406-18.6174,2.1772-31.7486,13.8739-44.4476,25.1855-8.1882,7.2936-15.9222,14.1826-24.5522,17.975-5.25,2.3054-11.2714,3.7046-17.6463,5.186-9.8762,2.295-20.0885,4.6682-29.5399,10.7489-3.706,2.3862-8.2035,4.448-12.9649,6.6309-6.5766,3.015-13.3771,6.1327-18.8526,10.5656-7.6905,6.2261-11.4061,13.973-11.044,23.0259.7612,19.2587,12.3735,40.4924,32.3946,41.9005,11.3637.7953,19.4774,5.1754,22.2645,12.0175,2.2789,5.5946.6253,12.1296-4.537,17.9296-4.3471,4.8851-8.7455,7.3616-13.0741,7.3616-8.7141,0-18.1619-10.1462-21.9763-23.601-3.1231-11.0349-14.4564-18.1682-28.8715-18.1682-1.398,0-2.7924.0752-4.1448.2234-10.9388,1.2108-18.5131,13.3206-25.838,25.0317-2.0085,3.2112-4.2851,6.8508-5.4046,8.0983-13.4697,14.9971-7.3525,34.4772-2.4374,50.1296,2.2893,7.29,4.4515,14.1758,4.8394,20.098.5872,9.0312-1.0208,12.5676-3.6846,18.4263-2.4033,5.2855-5.3943,11.8636-6.8327,22.6926-1.0729,8.0409.9305,19.7539,3.0514,32.1545,1.5804,9.2405,3.5474,20.7405,2.9272,25.4469-2.4074,18.3806,1.4803,34.4368,10.9459,45.2195,6.8202,7.7771,17.2095,12.4227,27.7878,12.4227,9.1264,0,17.2302-3.4941,22.8188-9.8389,2.6073-2.9634,4.3029-6.0737,5.7989-8.818,1.0649-1.9534,2.0707-3.7985,3.0654-4.8781,1.0637-1.1572,2.8795-1.8152,4.9909-1.8151,2.7285.0002,5.4495,1.1243,6.9316,2.8638,3.3414,3.9272,3.1353,11.202-.4554,15.8797-.1996.2615-.3959.5003-.5911.7336-2.3886,2.8019-5.9227,5.4663-9.6635,8.2866-8.5976,6.4818-19.2975,14.5487-19.9624,28.8565-.2372,5.364,1.0992,10.5937,3.9709,15.5684,3.676,6.3782,8.984,10.7053,12.789,13.2109,4.3593,2.864,8.7846,4.8881,13.0641,6.8455,2.9883,1.3668,5.8109,2.6578,8.3417,4.1216,5.0693,2.9383,9.7748,7.0377,14.7568,11.3779,5.4271,4.728,11.039,9.6169,17.7592,13.5831,7.4533,4.405,16.1938,6.8329,24.6057,6.8329,11.7121,0,21.4214-4.6707,27.3393-13.1517,5.4483-7.808,6.1591-16.501,6.7862-24.1705.4378-5.3548.8514-10.4126,2.8834-13.3143,2.9649-4.2363,10.1236-4.6931,13.0638-4.693,1.7147,0,3.4808.1326,5.2491.3941,6.124.9108,12.4732,4.3104,15.0876,8.0823,1.1825,1.706,1.1523,2.8221.9667,3.6889-.8861,4.125-3.8734,6.5149-9.519,10.726-6.4234,4.7913-15.2206,11.3531-17.9313,23.7586-1.4707,6.7473.1099,13.9456,4.4496,20.2747,5.8071,8.469,16.1723,14.9683,26.4066,16.5576,2.365.3676,4.5016.5463,6.5308.5463,6.022,0,9.9762-1.5831,13.4649-2.9798,2.1676-.8679,4.2151-1.6876,7.3323-2.3405,8.7249-1.8256,17.9484-2.7599,27.7134-3.7492,25.6719-2.6007,52.2179-5.2901,71.4238-24.9375,5.6661-5.7971,9.9276-12.4147,14.0488-18.8142.9115-1.4156,1.8214-2.8288,2.7427-4.2242,5.1736-7.8127,9.5712-13.2004,15.4754-15.8785,3.3493-1.5189,7.4304-2.2266,12.8423-2.2264,3.7166,0,7.6089.3165,11.7298.6516,3.2481.2641,6.6067.5372,9.9945.6566.7781.028,1.5752.0424,2.3612.0424,21.0392,0,37.0777-9.3169,41.8565-24.3147,3.6367-11.3729-.2874-22.0494-3.4405-30.628-2.0099-5.4686-3.9085-10.6339-3.665-14.8908.2762-4.854,3.3311-9.8735,6.8685-15.6855,2.5941-4.2623,5.2765-8.6697,7.2985-13.7268,3.8145-9.5306,7.9903-21.9515,6.3965-33.4675-1.0242-7.4326-5.2607-13.692-11.3318-16.7375-3.2301-1.6115-6.8326-2.3895-11.0355-2.3895-1.8589,0-3.6066.145-5.1486.2729-1.1857.0983-2.3056.1912-3.1788.1912-.1038,0-.2075-.0013-.3101-.0045-4.1635-.1285-8.2663-.84-12.1935-2.1145-3.5355-1.149-4.974-2.2313-5.5573-2.9364-.4209-.5104-1.1966-1.8417-1.5555-4.8959-.5884-4.9943.4795-9.8739,2.9293-13.3912,2.3135-3.3215,6.0706-5.4833,9.5716-5.5071l.0696-.0004c2.794.0001,6.0888,1.2063,9.7925,3.585.9281.5964,1.9018,1.2719,2.9327,1.9869,4.3891,3.0446,9.8515,6.8335,16.9924,7.8815,1.269.1846,2.5435.2772,3.8017.2772,16.4756,0,28.7656-15.3741,31.9646-29.8397,2.9926-13.5692-.4447-26.9014-3.2905-35.7498-3.4676-10.7854-10.422-20.452-17.1475-29.8003-4.6075-6.4043-8.9595-12.4536-11.6758-18.1591-2.797-5.8688-4.0946-12.1334-5.4685-18.7659-1.875-9.0516-4.0002-19.311-10.3925-29.1545l-.2054-.3151c-.2712-.4163-.5403-.8285-.8216-1.2471-8.9938-13.6727-20.5894-27.9276-38.3922-30.1068l-.0294-.0035-.0293-.0034c-1.0035-.1174-1.9092-.2065-2.7688-.2726-2.3405-.1853-4.9142-.2725-8.0739-.2725-1.713,0-3.4284.0248-5.0873.0486-1.6613.024-3.2305.0466-4.7996.0466-7.1916,0-12.8014-.5024-16.8033-2.9543-6.4151-3.9302-6.2935-10.3262-3.5264-24.1094,1.3705-6.8265,2.5542-12.7222.7359-18.2887-3.231-9.86-10.4445-17.9377-20.864-23.3701-8.145-4.2466-18.2657-6.7948-28.4977-7.1752-1.3687-.0516-2.8143-.078-4.2895-.078-5.296,0-10.5137.3315-15.5596.6523-4.8995.3114-9.5274.6056-14.0858.6056-4.9105,0-8.9303-.3424-12.6503-1.0774-7.381-1.4592-14.8008-4.7504-22.6563-8.2347-11.783-5.2267-23.9672-10.6311-37.8073-10.6311h0Z"/>
      </g>
      <path class="cls-8" d="M429.9853,322.8699c-22.371,44.6845-33.5565,67.0196-48.4562,75.2397-22.5726,12.4451-54.8408,14.4822-81.6098-1.274-1.6556-.9789-33.5135-20.4348-39.538-58.6629-5.2185-33.1319,12.2004-59.8506,26.2219-75.9378,4.9665-5.6936,9.5012-10.0554,12.4596-12.8987,6.9531-6.6796,36.5365-33.5925,79.0688-34.8594,11.5887-.3455,28.3382-.6047,44.2671,9.7676.8351.5398,1.6628,1.1084,2.4905,1.713,3.2678,2.3825,18.0955,13.6832,22.9541,33.1536,3.2535,13.057,1.0653,25.97-17.858,63.759Z"/>
      <path class="cls-10" d="M429.9853,322.8699c-22.371,44.6845-33.5565,67.0196-48.4562,75.2397-22.5726,12.4451-54.8408,14.4822-81.6098-1.274-1.6556-.9789-33.5135-20.4348-39.538-58.6629-5.2185-33.1319,12.2004-59.8506,26.2219-75.9378-.4319,3.3615-1.0725,7.9465-1.7275,14.0863-2.9151,27.3233-4.3763,40.9849,0,53.7036.9933,2.8936,7.4642,20.9027,24.7824,31.5484,8.7958,5.3984,18.1603,7.5434,27.0425,9.5732,7.9177,1.8139,11.6751,1.8283,14.079,1.6916,3.4983-.1944,12.1718-1.1445,20.2837-6.7588,6.8668-4.7506,10.1131-10.9337,16.3321-23.098,6.9387-13.5609,5.3192-15.2811,10.7032-23.0981,6.4062-9.2852,9.2638-7.6873,18.0308-18.0235,4.5347-5.3481,12.5603-15.0292,15.7706-29.2883.5398-2.4113,2.3537-11.2071.5615-22.5366-1.7275-10.9265-6.0463-19.4343-10.0627-25.79.8351.5398,1.6628,1.1084,2.4905,1.713,3.2678,2.3825,18.0955,13.6832,22.9541,33.1536,3.2535,13.057,1.0653,25.97-17.858,63.759Z"/>
      <path class="cls-5" d="M401.4848,218.2706c-1.2076-.5873-2.5596-.927-3.8909-1.1564-4.5565-.7849-9.2239-.5081-13.8311-.1198-7.0472.594-14.0737,1.4437-21.0519,2.5931-6.1656,1.0155-12.3231,2.2735-18.1765,4.4606-2.2262.8318-4.4117,1.7996-6.4573,3.0146-1.0719.6366-5.4051,2.8984-2.4427,4.1198.7162.2953,1.5268.186,2.2931.0721,12.593-1.871,25.2553-3.6631,37.9862-3.5684,7.5561.0562,15.1146.7775,22.6587.3492,2.2573-.1281,4.8299-.5465,6.0338-2.4603,1.1577-1.8404.4497-4.4108-1.1118-5.9238-.5913-.5729-1.2737-1.0229-2.0097-1.3808Z"/>
      <path class="cls-5" d="M326.6591,233.1963c-1.1409-.1732-2.336.1872-3.345.7712-1.1344.6566-2.0877,1.5772-3.0827,2.4303-3.2079,2.7502-6.8986,4.8414-10.3459,7.2628-2.71,1.9036-8.4635,5.5948-7.1787,9.643.6311,1.9884,3.0642,2.8835,5.1327,2.6128,2.5092-.3283,4.7018-1.9175,6.3637-3.8259s2.8886-4.1472,4.267-6.2695c2.2813-3.5124,5.0414-6.7707,8.4713-9.1741.7729-.5416,1.6875-1.2893,1.4747-2.2088-.1392-.6015-.7396-.9875-1.3347-1.152-.1397-.0386-.2806-.0684-.4225-.0899Z"/>
      <path class="cls-3" d="M236.1177,281.0751c-3.2448-4.4408-9.9132-.8555-17.2174-4.6957-7.8545-4.1296-5.6532-11.1725-13.5652-18.2609-5.9207-5.3043-16.6516-9.8699-25.0435-6.2609-11.1577,4.7985-14.5457,22.4844-10.9565,33.9131,2.082,6.6296,5.1282,6.748,7.826,15.1305,3.3528,10.4174,1.6802,19.656,1.0436,22.9564-2.8641,14.8489-9.9857,14.4764-13.5653,27.6522-.839,3.088-1.7795,8.0107,3.1305,37.0435,2.2114,13.0763,7.0953,18.0708,5.2174,27.6522-.6306,3.2173-1.8662,6.7595-1.174,11.8695.1655,1.2219,1.1135,7.5344,6.1305,13.4348,2.5515,3.0009,4.541,5.3406,7.826,6,5.1802,1.0398,9.9342-2.8311,13.826-6,4.6318-3.7714,5.2001-5.859,7.9565-8.4783,8.172-7.7653,23.8976-9.105,34.826-4.3043,8.8411,3.8837,9.6566,9.6398,17.7391,10.4348,5.1289.5045,12.4835-1.0576,14.087-5.2174,1.9229-4.9883-5.4799-10.973-22.4348-28.174-24.2352-24.5869-27.1942-30.7057-28.6957-34.4348-1.2365-3.0709-6.5148-17.0143-3.1304-33.3912,2.3866-11.5483,8.6881-22.4067,16.1738-45.9131.9114-2.8617,2.3815-7.6973,0-10.9565Z"/>
      <path class="cls-3" d="M298.0498,211.5925c-9.2151,3.5611-19.7193,2.1388-27.4279-4.04-2.6719-2.1416-5.81-4.1641-9.4607-5.7818-14.3917-6.3773-24.7302-1.1379-31.826-8.8695-5.1757-5.6393-6.5444-15.9109-2.6086-21.9131,3.9215-5.9803,10.8069-4.2113,31.3043-10.4348,3.2933-.9999,8.8604-8.3821,19.1866-12.2372,18.7183-6.9882,27.7796-5.0996,32.9874-8.6324,12.6985-8.6141,9.022-13.113,20.8695-21.913,2.1844-1.6225,21.0862-15.2588,43.3043-12,14.2186,2.0854,14.8783,8.9023,34.4348,13.0435,9.1373,1.9348,16.3256,1.9994,26.0869,2.087,23.6715.2125,30.3684-3.9483,41.2174,1.5652,2.2915,1.1646,9.4668,4.8111,13.5652,12.5217,3.3379,6.28,1.22,8.8312,4.6957,20.3478,1.4049,4.6553.4345,13.6431,4.9566,20.087,4.0648,5.7924,8.4608,2.3407,12.7826,8.087,3.7777,5.0228,10.7374,14.2765,7.8262,20.8695-2.6884,6.0881-8.5005,6.4676-16.6957,4.6957-12.5239-2.7078-14.132-15.2208-26.3478-26.6082-14.2419-13.2762-26.1395-8.0477-41.596-21.939-8.0593-7.2432-47.2554-28.6242-72.2609-18.3913-23.2478,9.5137-25.5484,51.9071-56.4909,65.895-2.9482,1.3328-5.7936,2.514-8.5028,3.5609Z"/>
      <path class="cls-2" d="M638.13,332.9527c-2.26,10.22-11.53,22.72-23.35,21-5.8601-.86-10.5701-5.03-15.55-8.23-4.78-3.0701-10.24-5.38-15.9199-5.3401-7.3501.05-14.3801,4.2201-18.5801,10.25-4.2,6.03-5.7,13.7101-4.84,21.01.4501,3.8301,1.5699,7.6901,4.0199,10.66,2.6802,3.24,6.6702,5.11,10.6702,6.41,4.9299,1.6,10.0898,2.49,15.2699,2.6499,4.89.1501,10.4601-1.5299,15.05.76,3.0699,1.54,4.86,4.9501,5.33,8.3601,1.24,8.96-2.4399,19.6699-5.71,27.84-4.51,11.28-14.25,20.76-14.9399,32.89-.8401,14.6899,12.0898,28.78,7.6099,42.79-4.0499,12.71-19.96,17.0499-33.28,16.5699-13.3298-.47-27.3799-3.61-39.5299,1.9-8.84,4.01-14.6901,11.63-20.14,19.86-4.86,7.36-9.4099,15.2001-15.47,21.4-23.04,23.5699-61.23,18.84-93.49,25.59-11.03,2.3099-12.23,6.4-23.3601,4.67-11.1399-1.73-24.1399-12.52-21.74-23.53,3.6602-16.75,23.8601-17.77,27.4601-34.53,2.7899-13.03-12.08-23.08-25.26-25.04-10.5499-1.5599-22.89.17-29,8.9-7.5,10.7101-2.2001,26.78-9.6801,37.5-7.85,11.25-25.4299,10.1-37.24,3.12-11.8099-6.97-20.73-18.1299-32.6-25.01-6.76-3.9099-14.33-6.34-20.86-10.6299-6.52-4.29-12.14-11.2201-11.79-19.02.65-13.99,17.9-19.77,27.03-30.52,1.38,1.8-.094,2.7478-1.0661,5.7735-1.9198,5.9756-6.6091,12.0343-5.7391,19.3043.92,7.62,7.4803,17.766,15.1304,19.8261,11.96,3.23,14.6087,6.7826,32.087,9.1304,16.7658,2.2521,22.4604-10.2456,27.1304-16.6957,1.73-2.39.3335-15.8378,13.0435-20.3478,12.4501-4.4301,30.8239-24.0509,41.474-26.351,10.3699-2.23,18.28-1.3398,29.22,0,16.95,2.0801,27.74,3.4001,39.13,10.4401,12.5399,7.74,10.98,13.26,21.39,17.2201,10.6899,4.0499,25.85,3.3699,35.48-4.7001,8.8899-7.4401,4.3899-13.88,16.1799-29.2201,6.17-8.0299,7.92-6.9299,15.65-17.22,1.4901-1.98,7.7201-10.3999,12-22.4299,1.75-4.92,2.25-7.86,2.08-10.96-.2899-5.53-2.5898-9.5601-4.6899-13.04-8.25-13.63-11.27-15.1001-14.61-21.39-6.9601-13.12-4.5699-27.0599-4.17-29.22,2.1101-11.4501,7.16-11.26,12.52-27.65,3.49-10.7,1.5901-11.52,5.22-21.39,2-5.46,5.5-14.96,13.5601-23.48,7.29-7.7001,10.35-6.1801,23.48-17.2201,7.01-5.8899,10.52-8.8398,13.04-13.0399,8.4399-14.0399,2.6799-31.75,1.5699-34.9601-4.0699-11.73-11.8199-19.2599-19.48-24.8099.78.0599,1.5599.14,2.33.2301,14.1301,1.73,23.73,14.7599,31.48,26.71,9.52,14.6599,7.6201,30.85,15.1501,46.6499,7.2699,15.27,23.1099,30.51,28.2799,46.5901,3.11,9.6699,5.2101,20.04,3.02,29.97Z"/>
      <g>
        <path class="cls-4" d="M518.9347,414.6262c.214-.887.3667-1.7906.4496-2.7102.442-4.9072-1.1803-9.8384-3.7775-14.0254-5.1477-8.2988-14.2981-13.9834-24.0187-14.9211-22.1846-2.1403-33.6825,16.7201-36.2762,36.1219-1.2449,9.3113-1.3545,18.8029-3.5619,27.934-1.5778,6.5264-4.234,13.1775-2.8169,19.7407,1.7817,8.2521,10.7406,14.234,19.0454,12.7168,6.751-1.2333,12.0591-6.5405,15.7682-12.3146,5.3527-8.3323,8.3469-18.1047,14.4323-25.918,3.7811-4.8546,8.6184-8.7693,12.807-13.277,3.5601-3.8313,6.7366-8.3225,7.9487-13.3472Z"/>
        <path class="cls-7" d="M465.3914,484.2146c-9.5435,0-18.8169-7.0493-20.8569-16.499-1.3594-6.2949.3267-12.4355,1.814-17.8535.3574-1.3022.7148-2.6006,1.0273-3.894,1.355-5.606,1.8745-11.3535,2.4238-17.439.2964-3.2803.6025-6.6719,1.0518-10.0337,2.6777-20.0288,15.0625-42.5298,41.1689-40.0049,11.0537,1.0659,21.5571,7.5908,27.4106,17.0278,2.3696,3.8203,5.063,9.8369,4.4351,16.8013-.1001,1.1123-.2871,2.2437-.5566,3.3613v.001c-1.2368,5.126-4.1895,10.1489-9.0269,15.3545-1.6904,1.8193-3.4653,3.5312-5.1816,5.187-2.6934,2.5977-5.2368,5.0513-7.3716,7.792-3.1724,4.0732-5.4658,8.8076-7.894,13.8198-1.8936,3.9082-3.8511,7.9497-6.3022,11.7651-5.1831,8.0679-11.6655,13.0161-18.7461,14.3091-1.1279.2061-2.2642.3052-3.3955.3052ZM488.2312,387.3049c-17.7231,0-26.3232,16.4058-28.459,32.3828-.4238,3.1709-.7217,6.4648-1.0093,9.6509-.5547,6.1421-1.1279,12.4937-2.6392,18.7441-.3345,1.3823-.7144,2.7705-1.0967,4.1621-1.3315,4.8501-2.5894,9.4316-1.6958,13.5713,1.2798,5.9263,7.8779,10.3296,13.8379,9.2397,5.7695-1.0537,10.1406-6.1934,12.7915-10.3198,2.1592-3.3613,3.9155-6.9863,5.7749-10.8247,2.5249-5.2124,5.1362-10.6025,8.8931-15.4263,2.5273-3.2446,5.4233-6.0381,8.2236-8.7393,1.7046-1.644,3.3145-3.1968,4.8374-4.8359,3.7578-4.0444,6.0054-7.7534,6.8706-11.3394.166-.6895.2812-1.3813.3418-2.0566.3159-3.5044-.792-7.4995-3.1196-11.2515-4.4048-7.1016-12.3081-12.0117-20.6265-12.814-1.0005-.0962-1.9766-.1436-2.9248-.1436Z"/>
      </g>
      <g>
        <path class="cls-4" d="M422.6463,168.5844c.7196-2.7486-1.0347-5.8364-3.1452-7.9303-3.6019-3.5737-8.2594-5.8726-12.942-7.8267-8.2524-3.4437-17.0362-6.0366-25.9768-5.8723-10.9481.2012-30.1229,6.8259-25.8632,21.2633,1.1089,3.7583,3.9878,6.9526,7.6109,8.4449,3.7245,1.534,7.9343,1.283,11.9097.6344,7.6376-1.246,15.082-3.8636,22.8166-4.1117,6.4753-.2077,13.039,1.2528,19.3874-.0396,2.3102-.4703,4.7487-1.4736,5.824-3.5717.1657-.3234.2906-.6542.3785-.9901Z"/>
        <path class="cls-7" d="M368.7444,182.3103c-2.6289,0-5.4175-.3696-8.1279-1.4858-4.897-2.0171-8.7148-6.2534-10.2134-11.3325-1.6089-5.4531-.7495-10.667,2.4854-15.0786,5.8481-7.9741,18.4121-11.7881,27.6113-11.957,8.4199-.1553,17.2549,1.8208,27.7925,6.2183,4.7144,1.9673,10.1094,4.5493,14.3784,8.7852,3.748,3.7183,5.3662,8.3032,4.3286,12.2646-.1714.6558-.416,1.2954-.7261,1.9014-1.0737,2.0952-3.4941,4.8232-8.9321,5.9302-4.54.9238-8.9517.6377-13.2183.3608-2.415-.1572-4.6948-.3057-6.9224-.2334-4.4507.1431-8.8848,1.1685-13.5791,2.2544-2.8042.6484-5.7041,1.3193-8.6567,1.8013-1.8599.3032-3.9824.5713-6.2202.5713ZM381.41,151.4475c-.249,0-.4971.0024-.7446.0068-7.1982.1323-16.8413,3.2661-20.519,8.2812-1.5757,2.1484-1.9287,4.439-1.1113,7.2095.7241,2.4536,2.6431,4.583,5.0088,5.5571,2.9268,1.2056,6.5986.8223,9.4717.354,2.6616-.4341,5.2925-1.0425,8.0776-1.687,4.9102-1.1357,9.9873-2.3101,15.3193-2.481,2.6636-.0864,5.2715.0835,7.7935.2476,3.8457.249,7.478.4844,10.8398-.1992,1.8501-.3765,2.5864-.959,2.7173-1.2144l.0303-.0781c.1436-.5488-.458-2.104-1.9614-3.5957-3.1685-3.1436-7.5942-5.2358-11.5054-6.8682-9.0239-3.7656-16.4912-5.5327-23.4165-5.5327Z"/>
      </g>
      <g>
        <path class="cls-4" d="M312.4348,477.4844c.4598-9.4609-5.6779-19.2417-14.4783-23.4783-8.1053-3.9019-15.8977-1.8629-21.5217-.3912-3.5319.9242-15.9307,4.3723-23.8696,16.4347-2.7017,4.1047-8.1501,12.3832-5.8695,21.9131,2.9597,12.3676,16.9185,18.4106,26.2174,19.5652,2.2123.2747,8.4401.9709,15.2609-1.9565,6.4454-2.7664,9.9296-7.2703,14.4783-13.3043,6.3207-8.3846,9.481-12.577,9.7826-18.7826Z"/>
        <path class="cls-7" d="M277.0638,516.2903c-1.5415,0-3.1104-.0986-4.7046-.2964-12.1812-1.5127-26.7769-9.3506-30.04-22.9839-2.7339-11.4233,3.4937-20.8862,6.4868-25.4336,5.9204-8.9961,15.0806-15.3286,26.4897-18.3149,5.9805-1.564,15.0181-3.9292,24.6128.6899,10.5688,5.0879,17.5679,16.5,17.021,27.752h0c-.3691,7.5898-4.0327,12.4497-10.6841,21.2725-4.4336,5.8813-8.6211,11.4365-16.2964,14.731-4.0063,1.7192-8.3247,2.5835-12.8853,2.5835ZM287.8191,456.2532c-3.6899,0-7.1846.9146-10.2451,1.7153-9.2236,2.4141-16.5718,7.4468-21.25,14.5552-2.4741,3.7593-7.0791,10.7563-5.252,18.3916,2.4189,10.1069,14.7183,15.1938,22.3955,16.147,1.7534.2173,7.0928.8804,12.9316-1.626,5.2231-2.2422,8.0728-5.7935,12.6597-11.8784,6.4248-8.5225,8.6582-11.7031,8.8813-16.292.3706-7.6201-4.6494-15.6973-11.936-19.2051-2.769-1.333-5.5278-1.8076-8.1851-1.8076Z"/>
      </g>
      <path class="cls-1" d="M638.13,332.9527c-2.26,10.22-11.53,22.72-23.35,21-5.8601-.86-10.5701-5.03-15.55-8.23-4.78-3.0701-10.24-5.38-15.9199-5.3401-7.3501.05-14.3801,4.2201-18.5801,10.25-4.2,6.03-5.7,13.7101-4.84,21.01.4501,3.8301,1.5699,7.6901,4.0199,10.66,2.6802,3.24,6.6702,5.11,10.6702,6.41,4.9299,1.6,10.0898,2.49,15.2699,2.6499,4.89.1501,10.4601-1.5299,15.05.76,3.0699,1.54,4.86,4.9501,5.33,8.3601,1.24,8.96-2.4399,19.6699-5.71,27.84-4.51,11.28-14.25,20.76-14.9399,32.89-.8401,14.6899,12.0898,28.78,7.6099,42.79-4.0499,12.71-19.96,17.0499-33.28,16.5699-13.3298-.47-27.3799-3.61-39.5299,1.9-8.84,4.01-14.6901,11.63-20.14,19.86-4.86,7.36-9.4099,15.2001-15.47,21.4-23.04,23.5699-61.23,18.84-93.49,25.59-11.03,2.3099-12.23,6.4-23.3601,4.67-11.1399-1.73-24.1399-12.52-21.74-23.53,3.6602-16.75,23.8601-17.77,27.4601-34.53,2.7899-13.03-12.08-23.08-25.26-25.04-10.5499-1.5599-22.89.17-29,8.9-7.5,10.7101-2.2001,26.78-9.6801,37.5-7.85,11.25-25.4299,10.1-37.24,3.12-11.8099-6.97-20.73-18.1299-32.6-25.01-6.76-3.9099-14.33-6.34-20.86-10.6299-3.6899-2.4301-7.1-5.7001-9.29-9.5,1.74,1.3398,3.64,2.6299,5.72,3.8199,6.1201,3.5,7.4102,2.5299,20.0901,8.61,3.09,1.48,12.35,6.02,24,13.3,16.13,10.09,18.36,13.8899,25.83,14.09,5.9601.16,13.3199-2.04,17.4801-7.3,2.7699-3.5199,1.8499-5.5399,4.4299-14.87,2.1899-7.95,4-14.49,8.35-19.83,6.01-7.39,14.54-9.6,18.78-10.7001,16.87-4.3699,31.1901,2.9501,35.48,5.22,5.63,2.9901,22,11.3101,23.48,25.4401.9801,9.39-5.73,15.08-2.35,23.4801,3.75,9.3099,16,12.1599,17.61,12.5199,13.99,3.0599,26.5699-5.62,36-12.13,5.01-3.46,9.01-7.3101,16.8199-14.87,20.51-19.85,20.3501-23.75,30.53-30.5199,9.1101-6.0701,17.3-8.3101,31.3-12.1401,21.84-5.96,33.26-4.48,37.1699-12.52,1.4102-2.8899-.0299-3.1399,0-17.21.03-10.61.05-15.9199,1.5701-21.53,3-11.0699,7.75-11.74,7.8301-18.7799.0499-4.9701-2.28-8.67-12.1301-20.35-17.6499-20.91-19.23-19.77-21.9199-25.8201-7.6001-17.09.97-35.1699,1.5699-36.39.4701-.97,8.67-17.0599,25.8199-23.09,9.4501-3.3201,13.8901-.88,22.3101-6.26,2.27-1.46,11.3101-7.23,12.13-16.05.38-4.0499-1.2899-5.46-5.87-15.6499-4.37-9.7001-7.4199-16.49-8.22-23.8701-1-9.2,1.86-16.08,3.13-19.95,3.7699-11.4399,2.5599-23.26.0699-33.6399.3301.49.64.97.96,1.46,9.52,14.6599,7.6201,30.85,15.1501,46.6499,7.2699,15.27,23.1099,30.51,28.2799,46.5901,3.11,9.6699,5.2101,20.04,3.02,29.97Z"/>
      <path class="cls-1" d="M485.1957,400.3975c-.7426-.2584-4.567-1.5897-7.6305.5869-3.2719,2.3247-3.3217,6.9783-2.5435,9.7826.2974,1.0715,1.7091,5.4536,5.674,6.4565,4.1439,1.0482,7.5853-2.478,8.413-3.326.947-.9703,2.571-2.6344,2.7391-5.087.2655-3.8743-3.2719-7.2363-6.6521-8.413Z"/>
      <path class="cls-1" d="M485.6522,439.267c.2891-.4347,1.944-2.9238.7826-5.4783-.9773-2.1494-3.3492-3.0269-5.2174-3-3.4009.049-5.1273,3.0953-5.2174,3.2609-1.0798,1.9845-1.2755,5.0017.5217,6.7826,1.5381,1.524,3.7354,1.3496,4.3043,1.3044,3.0193-.2397,4.6582-2.6171,4.8262-2.8696Z"/>
      <path class="cls-1" d="M465.6957,465.8758c2.3167.8698,4.8718-.1313,6.3912-1.4348,3.3419-2.8668,2.2843-7.7198,2.1522-8.2826-.2406-1.0247-.6781-2.8881-2.3478-4.0435-2.4781-1.715-5.6217-.4524-6.2609-.1957-.646.2595-3.9783,1.6971-4.6957,5.0869-.5751,2.7172.9043,4.9193,1.6304,6,.6733,1.0022,1.5222,2.2659,3.1305,2.8696Z"/>
      <path class="cls-1" d="M466.7391,433.7888c2.7195.245,5.4816-1.2827,6.7826-3.7826,1.1559-2.2209,1.348-5.5731-.7826-7.6957-2.3481-2.3392-6.2723-1.9445-8.6086-.1304-3.059,2.3754-3.4978,7.2633-1.3044,9.7826,1.3921,1.5989,3.4438,1.7838,3.9131,1.826Z"/>
      <path class="cls-1" d="M509.4565,414.191c.4292-1.0746,1.1261-2.8195.3912-4.3043-.9622-1.9441-4.1719-3.0238-6.4564-1.6631-2.5123,1.4963-2.8059,5.2886-1.0762,7.3369,1.2504,1.4806,3.658,2.1682,5.2826,1.2717,1.0311-.569,1.4471-1.6107,1.8588-2.6412Z"/>
      <path class="cls-1" d="M368.1957,156.4844c-1.6696.0092-2.9827,1.3405-3.1957,2.8044-.287,1.972,1.4507,3.9896,3.4565,3.8478,1.9065-.1348,3.3313-2.169,2.9348-4.0435-.2965-1.4019-1.5913-2.6176-3.1957-2.6087Z"/>
      <path class="cls-1" d="M394.3947,159.2165c-.0963-.3067-.9267-2.8042-3.4297-3.6255-2.4444-.8021-5.4016.3495-6.565,2.7436-1.3488,2.7759.5519,5.4979.6859,5.6832,1.3392,1.8511,4.0806,3.3007,6.565,2.2537,2.7248-1.1485,3.5107-4.6137,2.7437-7.0549Z"/>
      <path class="cls-1" d="M524.5553,80.159c-.0963-.3067-.9267-2.8042-3.4297-3.6255-2.4444-.8021-5.4016.3495-6.565,2.7436-1.3488,2.7759.5519,5.4979.6859,5.6832,1.3392,1.8511,4.0806,3.3007,6.565,2.2537,2.7248-1.1485,3.5107-4.6137,2.7437-7.0549Z"/>
      <path class="cls-1" d="M404.4891,165.2236c.348-.6431-.0234-1.4891-.5869-1.8587-.8022-.5262-2.0963-.1546-2.3479.6359-.1952.6133.2766,1.3557.8805,1.6631.6577.3348,1.6765.258,2.0543-.4402Z"/>
      <path class="cls-1" d="M381.5734,168.8187c.3499-.5438.1786-1.2999-.2445-1.7364-.5441-.5613-1.5432-.6338-2.1278-.0734-.408.3912-.5791,1.0571-.3179,1.6141.3933.8387,1.4651.7875,1.5408.7826.1404-.009.8051-.0517,1.1494-.587Z"/>
      <path class="cls-1" d="M373.3805,170.5062c1.0048-.9089,1.3778-2.504.9781-3.8152-.679-2.2272-3.5618-3.5513-5.8695-2.6413-1.8287.7211-3.1194,2.7751-2.7391,4.4022.6085,2.6041,5.4722,4.0068,7.6305,2.0543Z"/>
      <path class="cls-1" d="M290.2609,463.267c-1.4211-2.1328-4.1498-3.1807-6.6522-2.4783-1.9557.549-3.6844,2.1418-4.1738,4.3044-.5903,2.6089.8278,5.1425,2.8695,6.3912,2.0573,1.2583,5.0048,1.3694,7.0435-.3912,2.2568-1.949,2.5128-5.4254.9131-7.8262Z"/>
      <path class="cls-1" d="M347.558,544.2975c-1.4211-2.1328-4.1498-3.1807-6.6522-2.4783-1.9557.549-3.6844,2.1418-4.1738,4.3044-.5903,2.6089.8278,5.1425,2.8695,6.3912,2.0573,1.2583,5.0048,1.3694,7.0435-.3912,2.2568-1.949,2.5128-5.4254.9131-7.8262Z"/>
      <path class="cls-1" d="M194.9767,594.3322c-1.4211-2.1328-4.1498-3.1807-6.6522-2.4783-1.9557.549-3.6844,2.1418-4.1738,4.3044-.5903,2.6089.8278,5.1425,2.8695,6.3912,2.0573,1.2583,5.0048,1.3694,7.0435-.3912,2.2568-1.949,2.5128-5.4254.9131-7.8262Z"/>
      <path class="cls-1" d="M300.3695,482.3758c.5714-1.8372-.7683-3.4138-.9781-3.6522-.2164-.2458-1.5898-1.748-3.5219-1.4348-2.0944.3395-2.8916,2.4956-3,2.8044-.1359.3871-.6875,1.9584.1957,3.326,1.1061,1.713,3.4425,1.5264,3.7174,1.5.1224-.0117,2.8959-.3214,3.5869-2.5435Z"/>
      <path class="cls-1" d="M131.0633,579.2187c.5714-1.8372-.7683-3.4138-.9781-3.6522-.2164-.2458-1.5898-1.748-3.5219-1.4348-2.0944.3395-2.8916,2.4956-3,2.8044-.1359.3871-.6875,1.9584.1957,3.326,1.1061,1.713,3.4425,1.5264,3.7174,1.5.1224-.0117,2.8959-.3214,3.5869-2.5435Z"/>
      <path class="cls-1" d="M276.924,495.2888c2.5791-1.8844,2.8071-5.0342,2.8369-5.6738.1669-3.5791-2.2231-6.8223-5.2826-8.2174-.5607-.2556-4.683-2.0498-8.3152.4891-2.3019,1.609-3.7179,4.4766-3.3262,7.3369.6438,4.7012,5.7612,6.3904,6.5544,6.6522,1.0856.3583,4.6351,1.53,7.5326-.587Z"/>
      <path class="cls-1" d="M292.3805,494.3105c.7357-1.0359.4349-2.7189-.6848-3.5706-.9603-.7305-2.3293-.7021-3.2772,0-1.0382.769-1.4761,2.2758-.8804,3.326.5872,1.035,1.9049,1.1451,2.25,1.174.2841.0237,1.8241.1523,2.5924-.9294Z"/>
      <path class="cls-1" d="M273.2065,471.517c.4829-1.7285-.0453-3.6571-1.3696-4.7935-2.0215-1.7345-5.421-1.214-7.0435.8805-1.0983,1.4178-1.493,3.6997-.2935,5.4781,1.1547,1.7118,3.2579,2.1737,4.8914,1.8588,1.6488-.3179,3.2825-1.5167,3.8152-3.424Z"/>
      <path class="cls-1" d="M141.3951,460.2002c.4829-1.7285-.0453-3.6571-1.3696-4.7935-2.0215-1.7345-5.421-1.214-7.0435.8805-1.0983,1.4178-1.493,3.6997-.2935,5.4781,1.1547,1.7118,3.2579,2.1737,4.8914,1.8588,1.6488-.3179,3.2825-1.5167,3.8152-3.424Z"/>
      <path class="cls-1" d="M104.0589,571.539c.4829-1.7285-.0453-3.6571-1.3696-4.7935-2.0215-1.7345-5.421-1.214-7.0435.8805-1.0983,1.4178-1.493,3.6997-.2935,5.4781,1.1547,1.7118,3.2579,2.1737,4.8914,1.8588,1.6488-.3179,3.2825-1.5167,3.8152-3.424Z"/>
      <path class="cls-1" d="M141.3951,511.1861c.4829-1.7285-.0453-3.6571-1.3696-4.7935-2.0215-1.7345-5.421-1.214-7.0435.8805-1.0983,1.4178-1.493,3.6997-.2935,5.4781,1.1547,1.7118,3.2579,2.1737,4.8914,1.8588,1.6488-.3179,3.2825-1.5167,3.8152-3.424Z"/>
      <path class="cls-1" d="M535.7391,144.2236c-2.8989-.1429-5.7656,1.544-6.9131,4.3044-1.4028,3.3746.1838,7.3426,3.2609,9,2.2424,1.2079,5.0946,1.0906,7.3044-.3914,2.1851-1.4653,3.4336-4.0579,3.1304-6.6522-.3954-3.3828-3.35-6.0917-6.7826-6.2609Z"/>
      <path class="cls-1" d="M552.5652,110.3105c-2.5986-3.0191-7.4305-3.9009-11.2174-2.087-4.6146,2.2104-7.1147,8.1541-4.6956,13.0435,2.2544,4.5563,7.8547,6.3255,12,4.6957,5.8568-2.3027,7.8915-11.03,3.913-15.6522Z"/>
      <path class="cls-1" d="M525.2934,221.4979c-2.5986-3.0191-7.4305-3.9009-11.2174-2.087-4.6146,2.2104-7.1147,8.1541-4.6956,13.0435,2.2544,4.5563,7.8547,6.3255,12,4.6957,5.8568-2.3027,7.8915-11.03,3.913-15.6522Z"/>
      <path class="cls-1" d="M588.3043,158.5714c-.6852-5.7777-8.2435-10.4048-14.0869-8.3478-2.9523,1.0392-5.8798,3.9301-6.2609,7.8261-.5023,5.1353,3.7805,8.3259,4.174,8.6087,4.026,2.8939,10.1056,2.5243,13.5652-1.0435.3651-.3765,3.0594-3.2422,2.6086-7.0435Z"/>
      <path class="cls-1" d="M497.5244,73.6371c-.3508-2.9578-4.2201-5.3265-7.2114-4.2735-1.5113.532-3.01,2.0119-3.2051,4.0064-.2571,2.6289,1.9353,4.2622,2.1367,4.407,2.061,1.4814,5.1733,1.2922,6.9443-.5342.1869-.1928,1.5662-1.6598,1.3354-3.6057Z"/>
      <path class="cls-1" d="M602.3914,114.7453c-2.6718-3.1961-8.0453-3.9794-11.7391-1.1739-3.0713,2.3327-4.2563,6.5958-2.7391,10.1739,1.8356,4.3289,7.0269,6.2416,10.9564,4.6957,5.1239-2.0158,7.0355-9.4924,3.5219-13.6957Z"/>
      <path class="cls-1" d="M522.701,273.8014c-2.6718-3.1961-8.0453-3.9794-11.7391-1.1739-3.0713,2.3327-4.2563,6.5958-2.7391,10.1739,1.8356,4.3289,7.0269,6.2416,10.9564,4.6957,5.1239-2.0158,7.0355-9.4924,3.5219-13.6957Z"/>
      <path class="cls-1" d="M328.6218,641.6813c-2.6718-3.1961-8.0453-3.9794-11.7391-1.1739-3.0713,2.3327-4.2563,6.5958-2.7391,10.1739,1.8356,4.3289,7.0269,6.2416,10.9564,4.6957,5.1239-2.0158,7.0355-9.4924,3.5219-13.6957Z"/>
      <path class="cls-1" d="M641.5217,152.8323c-1.1581-3.9422-6.2118-5.8624-9.9131-4.6957-5.0895,1.6043-7.4592,8.9943-4.6956,12.5218,2.2269,2.8423,7.5579,2.8847,10.9564.5217,2.3-1.5992,4.6503-4.9504,3.6522-8.3478Z"/>
      <path class="cls-1" d="M244.7391,228.0932c-.8873-1.1576-2.6273-1.8325-4.0435-1.3044-2.1747.811-2.981,4.2334-1.5652,6.2609.8326,1.1925,2.5066,2.0066,3.913,1.5653,2.2483-.7054,3.2819-4.4525,1.6957-6.5217Z"/>
      <path class="cls-1" d="M234.3043,247.0062c2.2775-.1217,4.4413-2.8384,4.174-5.6086-.2489-2.5785-2.5802-4.9573-5.0869-4.6957-1.9247.2008-3.3689,1.8975-3.7827,3.5217-.7849,3.0806,1.8733,6.9333,4.6957,6.7826Z"/>
      <path class="cls-1" d="M487.4063,606.9105c2.2775-.1217,4.4413-2.8384,4.174-5.6086-.2489-2.5785-2.5802-4.9573-5.0869-4.6957-1.9247.2008-3.3689,1.8975-3.7827,3.5217-.7849,3.0806,1.8733,6.9333,4.6957,6.7826Z"/>
      <path class="cls-1" d="M225.8914,226.9192c.4097-.7853.344-1.8352-.3262-2.5435-.7062-.7463-1.7917-.8051-2.5435-.4565-1.2681.5879-1.7316,2.402-1.0435,3.3912.4626.665,1.3091.7611,1.5.7827.7922.0898,1.9001-.1904,2.4131-1.174Z"/>
      <path class="cls-1" d="M249.0024,287.3469c.6939-1.3302.5827-3.1086-.5525-4.3083-1.1962-1.2642-3.035-1.3637-4.3083-.7733-2.1479.9958-2.9331,4.0687-1.7675,5.7443.7837,1.1265,2.2174,1.2892,2.5408,1.3258,1.342.1522,3.2186-.3226,4.0875-1.9885Z"/>
      <path class="cls-1" d="M292.0139,434.8223c.4097-.7853.344-1.8352-.3262-2.5435-.7062-.7463-1.7917-.8051-2.5435-.4565-1.2681.5879-1.7316,2.402-1.0435,3.3912.4626.665,1.3091.7611,1.5.7827.7922.0898,1.9001-.1904,2.4131-1.174Z"/>
      <path class="cls-1" d="M226.2174,238.3975c.3781-.957.288-2.4219-.6522-3-1.0427-.6412-2.5795.1476-3.2609,1.1738-.7681,1.1566-.6898,2.9763.2609,3.587,1.0702.6875,3.0647-.2736,3.6522-1.7609Z"/>
      <path class="cls-1" d="M199.7391,206.9627c1.1156-1.6177.9684-3.3584.9131-3.9131-.0424-.4253-.3131-3.1442-2.6088-4.5652-2.083-1.2893-5.3351-1.2018-7.0435.9131-1.6381,2.0278-.9662,4.8169,0,6.3912,1.5151,2.469,4.8768,3.78,7.0435,2.7391.9216-.4427,1.4677-1.2346,1.6957-1.5652Z"/>
      <path class="cls-1" d="M587.512,93.2337c1.1156-1.6177.9684-3.3584.9131-3.9131-.0424-.4253-.3131-3.1442-2.6088-4.5652-2.083-1.2893-5.3351-1.2018-7.0435.9131-1.6381,2.0278-.9662,4.8169,0,6.3912,1.5151,2.469,4.8768,3.78,7.0435,2.7391.9216-.4427,1.4677-1.2346,1.6957-1.5652Z"/>
      <path class="cls-1" d="M762.5098,203.8416c1.1156-1.6177.9684-3.3584.9131-3.9131-.0424-.4253-.3131-3.1442-2.6088-4.5652-2.083-1.2893-5.3351-1.2018-7.0435.9131-1.6381,2.0278-.9662,4.8169,0,6.3912,1.5151,2.469,4.8768,3.78,7.0435,2.7391.9216-.4427,1.4677-1.2346,1.6957-1.5652Z"/>
      <path class="cls-1" d="M514.5592,51.3971c1.1156-1.6177.9684-3.3584.9131-3.9131-.0424-.4253-.3131-3.1442-2.6088-4.5652-2.083-1.2893-5.3351-1.2018-7.0435.9131-1.6381,2.0278-.9662,4.8169,0,6.3912,1.5151,2.469,4.8768,3.78,7.0435,2.7391.9216-.4427,1.4677-1.2346,1.6957-1.5652Z"/>
      <path class="cls-1" d="M34.4918,233.3443c1.1156-1.6177.9684-3.3584.9131-3.9131-.0424-.4253-.3131-3.1442-2.6088-4.5652-2.083-1.2893-5.3351-1.2018-7.0435.9131-1.6381,2.0278-.9662,4.8169,0,6.3912,1.5151,2.469,4.8768,3.78,7.0435,2.7391.9216-.4427,1.4677-1.2346,1.6957-1.5652Z"/>
      <path class="cls-1" d="M326.3388,461.3575c1.1156-1.6177.9684-3.3584.9131-3.9131-.0424-.4253-.3131-3.1442-2.6088-4.5652-2.083-1.2893-5.3351-1.2018-7.0435.9131-1.6381,2.0278-.9662,4.8169,0,6.3912,1.5151,2.469,4.8768,3.78,7.0435,2.7391.9216-.4427,1.4677-1.2346,1.6957-1.5652Z"/>
      <path class="cls-1" d="M699.8016,172.5133c1.1156-1.6177.9684-3.3584.9131-3.9131-.0424-.4253-.3131-3.1442-2.6088-4.5652-2.083-1.2893-5.3351-1.2018-7.0435.9131-1.6381,2.0278-.9662,4.8169,0,6.3912,1.5151,2.469,4.8768,3.78,7.0435,2.7391.9216-.4427,1.4677-1.2346,1.6957-1.5652Z"/>
      <path class="cls-1" d="M194.6522,183.7127c.614-1.1633.4734-2.8436-.587-3.9131-1.2018-1.212-3.2513-1.3031-4.5978-.1956-1.2463,1.0251-1.6278,2.8612-.8805,4.2064,1.0299,1.854,3.7041,1.8765,5.087.9783.573-.3722.8671-.8652.9783-1.076Z"/>
      <path class="cls-1" d="M188.7826,145.4627c-1.8485-2.369-5.1245-3.4253-8.0217-2.5435-3.7677,1.1468-5.4299,5.1252-5.2826,8.2173.0273.574.278,4.481,3.5217,6.2609,2.8777,1.579,5.8748.2567,6.4565,0,.2931-.1293,3.944-1.8161,4.6957-5.8695.1304-.7028.5647-3.5863-1.3696-6.0652Z"/>
      <path class="cls-1" d="M151.2174,189.8758c2.1956-4.1771.6168-10.0841-3.5217-12.9131-4.9371-3.3748-11.7416-1.1555-14.8696,3.1305-2.7565,3.7769-3.1584,9.8439,0,12.913,2.3083,2.2432,5.678,2.0681,7.8262,1.9565,2.1056-.1094,8.1128-.4214,10.5652-5.0869Z"/>
      <path class="cls-1" d="M92.9514,288.8199c2.1956-4.1771.6168-10.0841-3.5217-12.9131-4.9371-3.3748-11.7416-1.1555-14.8696,3.1305-2.7565,3.7769-3.1584,9.8439,0,12.913,2.3083,2.2432,5.678,2.0681,7.8262,1.9565,2.1056-.1094,8.1128-.4214,10.5652-5.0869Z"/>
      <path class="cls-1" d="M566.6373,69.7737c-2.2955-3.6235-7.0404-4.632-10.5255-3.1896-5.0118,2.0742-6.8499,8.9811-4.4655,12.4393,1.8309,2.6554,5.8301,2.8117,7.3361,2.8706,1.6831.0658,4.3245.169,6.3792-1.5948,2.6853-2.3053,3.4839-7.0404,1.2758-10.5256Z"/>
      <path class="cls-1" d="M153.4348,117.0931c-2.3136-1.426-6.0172.0892-6.7826,2.8696-.5203,1.8898.3477,4.2524,2.3478,5.2174,1.7162.828,3.7462.376,4.9565-.7827,2.0216-1.9354,1.7927-5.8777-.5217-7.3043Z"/>
      <path class="cls-1" d="M628.2607,94.7355c-2.3136-1.426-6.0172.0892-6.7826,2.8696-.5203,1.8898.3477,4.2524,2.3478,5.2174,1.7162.828,3.7462.376,4.9565-.7827,2.0216-1.9354,1.7927-5.8777-.5217-7.3043Z"/>
      <path class="cls-1" d="M682.8141,94.2163c-2.3136-1.426-6.0172.0892-6.7826,2.8696-.5203,1.8898.3477,4.2524,2.3478,5.2174,1.7162.828,3.7462.376,4.9565-.7827,2.0216-1.9354,1.7927-5.8777-.5217-7.3043Z"/>
      <path class="cls-1" d="M157.8695,209.441c-1.2667-1.8704-5.205-2.0238-7.826-.3914-1.7217,1.0723-3.9283,3.5712-3.1304,6.2609.701,2.363,3.3706,3.6913,5.4783,3.5217,4.2297-.3403,7.2352-6.7968,5.4781-9.3912Z"/>
      <path class="cls-1" d="M142.0217,149.9627c-1.6833-2.16-4.8889-2.6074-7.0435-1.3696-3.1913,1.8334-3.6504,7.1188-.9783,9.3913,1.7279,1.4695,4.5204,1.471,6.4565.1957,2.5901-1.7061,3.5693-5.6458,1.5652-8.2174Z"/>
      <path class="cls-1" d="M243.4588,591.6057c-1.6833-2.16-4.8889-2.6074-7.0435-1.3696-3.1913,1.8334-3.6504,7.1188-.9783,9.3913,1.7279,1.4695,4.5204,1.471,6.4565.1957,2.5901-1.7061,3.5693-5.6458,1.5652-8.2174Z"/>
      <path class="cls-1" d="M27.4643,109.9492c-1.6833-2.16-4.8889-2.6074-7.0435-1.3696-3.1913,1.8334-3.6504,7.1188-.9783,9.3913,1.7279,1.4695,4.5204,1.471,6.4565.1957,2.5901-1.7061,3.5693-5.6458,1.5652-8.2174Z"/>
      <path class="cls-1" d="M9.7643,175.7873c-1.6833-2.16-4.8889-2.6074-7.0435-1.3696-3.1913,1.8334-3.6504,7.1188-.9783,9.3913,1.7279,1.4695,4.5204,1.471,6.4565.1957,2.5901-1.7061,3.5693-5.6458,1.5652-8.2174Z"/>
      <path class="cls-1" d="M214.7391,105.6149c-2.4628-2.1213-6.308-1.5151-8.6086.2609-2.9059,2.2431-4.1302,6.9564-1.8262,9.9131,1.6542,2.1227,4.6433,2.7194,7.0435,2.0869,2.9446-.7759,4.729-3.3298,5.2174-5.7391.085-.4191.8005-4.2594-1.826-6.5217Z"/>
      <path class="cls-1" d="M284.1296,660.5097c-2.4628-2.1213-6.308-1.5151-8.6086.2609-2.9059,2.2431-4.1302,6.9564-1.8262,9.9131,1.6542,2.1227,4.6433,2.7194,7.0435,2.0869,2.9446-.7759,4.729-3.3298,5.2174-5.7391.085-.4191.8005-4.2594-1.826-6.5217Z"/>
      <path class="cls-1" d="M615.8194,163.8322c-2.4628-2.1213-6.308-1.5151-8.6086.2609-2.9059,2.2431-4.1302,6.9564-1.8262,9.9131,1.6542,2.1227,4.6433,2.7194,7.0435,2.0869,2.9446-.7759,4.729-3.3298,5.2174-5.7391.085-.4191.8005-4.2594-1.826-6.5217Z"/>
      <path class="cls-1" d="M180.299,20.8584c-2.4628-2.1213-6.308-1.5151-8.6086.2609-2.9059,2.2431-4.1302,6.9564-1.8262,9.9131,1.6542,2.1227,4.6433,2.7194,7.0435,2.0869,2.9446-.7759,4.729-3.3298,5.2174-5.7391.085-.4191.8005-4.2594-1.826-6.5217Z"/>
      <path class="cls-1" d="M185.0652,115.3323c-.9203-1.7695-3.693-2.3261-5.6738-1.3696-1.4064.6791-2.6737,2.2467-2.5436,4.1087.1569,2.2451,2.2852,4.0585,4.3044,3.913,1.9172-.1381,3.0013-1.9891,3.326-2.5435.3054-.5214,1.4427-2.4632.5869-4.1087Z"/>
      <path class="cls-1" d="M126.8893,434.0636c-.9203-1.7695-3.693-2.3261-5.6738-1.3696-1.4064.6791-2.6737,2.2467-2.5436,4.1087.1569,2.2451,2.2852,4.0585,4.3044,3.913,1.9172-.1381,3.0013-1.9891,3.326-2.5435.3054-.5214,1.4427-2.4632.5869-4.1087Z"/>
      <path class="cls-1" d="M242.3802,115.7013c-.9203-1.7695-3.693-2.3261-5.6738-1.3696-1.4064.6791-2.6737,2.2467-2.5436,4.1087.1569,2.2451,2.2852,4.0585,4.3044,3.913,1.9172-.1381,3.0013-1.9891,3.326-2.5435.3054-.5214,1.4427-2.4632.5869-4.1087Z"/>
      <path class="cls-1" d="M99.0926,28.2671c-.9203-1.7695-3.693-2.3261-5.6738-1.3696-1.4064.6791-2.6737,2.2467-2.5436,4.1087.1569,2.2451,2.2852,4.0585,4.3044,3.913,1.9172-.1381,3.0013-1.9891,3.326-2.5435.3054-.5214,1.4427-2.4632.5869-4.1087Z"/>
      <path class="cls-1" d="M567.0923,217.443c-2.4203-4.6538-9.7124-6.1176-14.9219-3.6019-3.6987,1.7861-7.0317,5.9087-6.6895,10.8057.4125,5.9046,6.0099,10.6738,11.3205,10.2911,5.0422-.3633,7.8934-5.2313,8.7474-6.6892.8032-1.3712,3.7944-6.4781,1.5436-10.8057Z"/>
      <path class="cls-1" d="M87.4348,179.9627c-3.9702-2.0581-8.0122-.3844-8.8696,0-4.9961,2.24-9.462,8.9493-6.7826,14.6086,2.1064,4.4491,7.7699,6.4346,12.5217,5.2174,4.2147-1.0796,7.833-4.7096,8.3479-9.3912.434-3.9458-1.3591-8.4347-5.2174-10.4348Z"/>
      <path class="cls-1" d="M102.6957,122.1801c-4.203-3.1124-9.769-2.2059-13.3043,0-4.7087,2.938-7.7594,9.3943-5.4783,14.4783,2.0314,4.5276,7.2568,5.6612,8.2174,5.8696,3.8876.8434,9.704.201,12.913-4.3044,3.4735-4.8766,2.5602-12.4091-2.3478-16.0435Z"/>
      <path class="cls-1" d="M156.826,57.8757c-6.3759-1.3364-13.8979,3.2745-15.1304,10.4348-1.3813,8.0249,5.8645,15.0282,13.0435,15.1304,4.0779.058,8.329-2.1079,10.4348-5.7391,3.9548-6.8194-.0707-18.0912-8.3479-19.8261Z"/>
      <path class="cls-1" d="M766.1717,301.6954c-6.3759-1.3364-13.8979,3.2745-15.1304,10.4348-1.3813,8.0249,5.8645,15.0282,13.0435,15.1304,4.0779.058,8.329-2.1079,10.4348-5.7391,3.9548-6.8194-.0707-18.0912-8.3479-19.8261Z"/>
      <path class="cls-1" d="M235.8577,343.6022c-4.4053-.9233-9.6026,2.2625-10.4542,7.2098-.9544,5.5447,4.052,10.3836,9.0122,10.4542,2.8176.0401,5.7548-1.4564,7.2098-3.9654,2.7326-4.7118-.0488-12.5-5.7679-13.6986Z"/>
      <path class="cls-1" d="M62.7269,506.6216c-6.3759-1.3364-13.8979,3.2745-15.1304,10.4348-1.3813,8.0249,5.8645,15.0282,13.0435,15.1304,4.0779.058,8.329-2.1079,10.4348-5.7391,3.9548-6.8194-.0707-18.0912-8.3479-19.8261Z"/>
      <path class="cls-1" d="M220.4783,59.9627c-2.3663-3.3412-7.7139-3.9993-11.3478-1.9565-4.7706,2.6816-6.4482,9.9393-3.1305,13.6957,2.3702,2.6836,6.7295,2.9453,9.7826,1.5652,4.8519-2.1932,7.6702-9.1044,4.6957-13.3043Z"/>
      <path class="cls-1" d="M369.1815,676.5757c-2.3663-3.3412-7.7139-3.9993-11.3478-1.9565-4.7706,2.6816-6.4482,9.9393-3.1305,13.6957,2.3702,2.6836,6.7295,2.9453,9.7826,1.5652,4.8519-2.1932,7.6702-9.1044,4.6957-13.3043Z"/>
      <path class="cls-1" d="M223.3478,456.2236c-1.3234-.5918-2.8383-.1199-3.7826.6522-1.2737,1.0414-1.9637,3.0005-1.1738,4.5652.7296,1.4453,2.3281,1.774,2.6086,1.826,1.4073.2605,3.073-.259,3.9131-1.5652,1.1772-1.8306.3553-4.6193-1.5653-5.4783Z"/>
      <path class="cls-1" d="M340.4782,527.0248c-1.3234-.5918-2.8383-.1199-3.7826.6522-1.2737,1.0414-1.9637,3.0005-1.1738,4.5652.7296,1.4453,2.3281,1.774,2.6086,1.826,1.4073.2605,3.073-.259,3.9131-1.5652,1.1772-1.8306.3553-4.6193-1.5653-5.4783Z"/>
      <path class="cls-1" d="M95.5322,473.8249c-1.3234-.5918-2.8383-.1199-3.7826.6522-1.2737,1.0414-1.9637,3.0005-1.1738,4.5652.7296,1.4453,2.3281,1.774,2.6086,1.826,1.4073.2605,3.073-.259,3.9131-1.5652,1.1772-1.8306.3553-4.6193-1.5653-5.4783Z"/>
      <path class="cls-1" d="M219.0435,471.6149c-.0131-.1256-.2208-1.8534-1.6957-2.674-1.6768-.9329-3.5183.1266-3.9783.3912-1.1443.6583-2.8563,2.2493-2.4781,3.9783.3087,1.4116,1.8342,2.1079,2.2173,2.2827.3365.1536,1.4047.6233,2.674.326,1.8207-.4264,3.4696-2.2936,3.2609-4.3043Z"/>
      <path class="cls-1" d="M183.2467,627.9363c-.0131-.1256-.2208-1.8534-1.6957-2.674-1.6768-.9329-3.5183.1266-3.9783.3912-1.1443.6583-2.8563,2.2493-2.4781,3.9783.3087,1.4116,1.8342,2.1079,2.2173,2.2827.3365.1536,1.4047.6233,2.674.326,1.8207-.4264,3.4696-2.2936,3.2609-4.3043Z"/>
      <path class="cls-1" d="M194.7174,478.7236c-.1268-.1329-1.0974-1.1205-2.6088-1.2391-1.452-.114-3.272.5841-4.0435,2.2826-.629,1.385-.4082,3.099.6522,4.2391,1.3405,1.4412,3.5779,1.4869,5.0869.5217,1.5356-.9823,2.2251-2.9531,1.7609-4.4347-.2198-.7018-.661-1.1738-.8478-1.3696Z"/>
      <path class="cls-1" d="M150.1355,614.7711c-.4017-.421-3.4758-3.5489-8.2627-3.9247-4.599-.3611-10.3632,1.85-12.8067,7.2296-1.9923,4.3867-1.2929,9.8154,2.0658,13.4265,4.2456,4.5646,11.3321,4.7095,16.1116,1.6525,4.8638-3.1112,7.0475-9.3533,5.5771-14.0459-.6963-2.2227-2.0936-3.7178-2.6851-4.338Z"/>
      <path class="cls-1" d="M194,505.9192c-.0682-2.3699-1.4828-5.0311-4.0435-6.1305-3.9749-1.7064-7.6492,1.6652-7.9565,1.9565-2.0549,1.9481-3.9492,5.8127-2.0869,9.1305,1.5514,2.7639,4.9668,3.824,7.6956,3.2609,3.3214-.6854,4.912-3.6283,5.3479-4.4348.3949-.7306,1.0941-2.0243,1.0435-3.7826Z"/>
      <path class="cls-1" d="M612.396,637.5725c-.0733-2.5464-1.5932-5.4058-4.3446-6.587-4.2708-1.8335-8.2188,1.7892-8.549,2.1022-2.208,2.0932-4.2433,6.2456-2.2423,9.8104,1.6669,2.9697,5.3367,4.1087,8.2686,3.5037,3.5687-.7365,5.2778-3.8985,5.7461-4.7651.4243-.785,1.1756-2.175,1.1212-4.0643Z"/>
      <path class="cls-1" d="M690.7323,627.6694c-.0733-2.5464-1.5932-5.4058-4.3446-6.587-4.2708-1.8335-8.2188,1.7892-8.549,2.1022-2.208,2.0932-4.2433,6.2456-2.2423,9.8104,1.6669,2.9697,5.3367,4.1087,8.2686,3.5037,3.5687-.7365,5.2778-3.8985,5.7461-4.7651.4243-.785,1.1756-2.175,1.1212-4.0643Z"/>
      <path class="cls-1" d="M361.6842,638.9825c-.0682-2.3699-1.4828-5.0311-4.0435-6.1305-3.9749-1.7064-7.6492,1.6652-7.9565,1.9565-2.0549,1.9481-3.9492,5.8127-2.0869,9.1305,1.5514,2.7639,4.9668,3.824,7.6956,3.2609,3.3214-.6854,4.912-3.6283,5.3479-4.4348.3949-.7306,1.0941-2.0243,1.0435-3.7826Z"/>
      <path class="cls-1" d="M167.9131,481.5279c-.2366-.2526-1.8163-1.8859-4.3044-1.9565-2.9442-.0836-5.4517,2.0696-6.3912,4.5653-.7269,1.9307-.8499,4.9546,1.174,6.913,2.1779,2.1075,5.2871,1.4766,6,1.3044.5974-.1442,3.2721-.8735,4.5652-3.5219,1.1451-2.3452.7919-5.3453-1.0435-7.3043Z"/>
      <path class="cls-1" d="M131.6522,476.1149c-3.3475-2.0076-8.4099-2.3187-11.5436.7826-3.5187,3.4823-2.4323,9.1161-.3912,12.326.4333.6815,3.399,5.1691,8.4131,4.8914,4.0588-.2249,7.2621-3.4507,8.2173-7.0436,1.1671-4.3898-1.1533-8.8322-4.6956-10.9564Z"/>
      <path class="cls-1" d="M163.3478,518.3105c-2.6936-1.3694-6.1715-1.3184-8.8695.2609-4.6044,2.6951-5.8929,9.23-3.6522,13.8262.1913.3923,2.7255,5.3733,8.087,5.7391,3.2856.2242,6.3556-1.3719,8.0869-3.6522,3.6545-4.8132,1.8699-13.3666-3.6522-16.174Z"/>
      <path class="cls-1" d="M628.3764,566.8404c-2.8942-1.4714-6.6311-1.4165-9.53.2803-4.9472,2.8958-6.3318,9.9173-3.9242,14.8558.2055.4215,2.9284,5.7734,8.6893,6.1665,3.5303.2409,6.8289-1.4741,8.6891-3.9242,3.9267-5.1717,2.0091-14.3619-3.9242-17.3784Z"/>
      <path class="cls-1" d="M714.6044,553.0009c-2.8942-1.4714-6.6311-1.4165-9.53.2803-4.9472,2.8958-6.3318,9.9173-3.9242,14.8558.2055.4215,2.9284,5.7734,8.6893,6.1665,3.5303.2409,6.8289-1.4741,8.6891-3.9242,3.9267-5.1717,2.0091-14.3619-3.9242-17.3784Z"/>
      <path class="cls-1" d="M193.4783,535.0062c-3.1887-.5031-6.4724,2.3441-6.2609,5.2826.1927,2.6763,3.2218,4.5538,5.8695,4.5,1.6791-.0342,3.913-.8594,4.6957-2.7391,1.1027-2.6479-1.0328-6.5273-4.3043-7.0435Z"/>
      <path class="cls-1" d="M175.6086,567.6149c.6993-3.8507-1.3694-8.2816-4.6956-9.3914-4.7252-1.5765-11.224,3.8046-10.9565,9.3914.1488,3.1089,2.4031,6.4955,5.7391,7.3043,4.4176,1.0712,9.0905-2.7758,9.913-7.3043Z"/>
      <path class="cls-1" d="M121.0869,524.0496c-2.4565-3.6122-6.8459-5.0994-10.5652-4.6956-6.4362.6989-12.0568,7.1896-10.9565,13.3043,1.0291,5.7192,7.3899,8.0641,7.8262,8.2174.6326.2223,6.6461,2.2247,11.3478-1.5653,4.3828-3.533,5.6052-10.4707,2.3478-15.2609Z"/>
      <path class="cls-1" d="M119.5217,76.3975c-1.5325-1.4918-4.2933-1.8885-6.2609-.5217-2.328,1.6171-2.6558,5.0848-1.0435,7.3044,1.3698,1.8857,4.0341,2.725,6,1.826,2.9253-1.3376,3.7205-6.2569,1.3043-8.6087Z"/>
      <path class="cls-1" d="M429.7324,443.6784c-3.0416-2.9608-8.5214-3.7483-12.4265-1.0355-4.6206,3.2095-5.2711,10.0922-2.071,14.4977,2.7187,3.7428,8.0068,5.4086,11.9088,3.6243,5.8061-2.655,7.3844-12.4187,2.5888-17.0865Z"/>
      <path class="cls-1" d="M190.7391,86.3105c-.3159-2.54-3.3274-4.2036-5.7391-3.3913-1.6927.5701-3.1135,2.3678-2.8695,4.4348.2476,2.0972,2.0972,3.5236,3.913,3.6522,2.5369.1797,5.0094-2.1735,4.6957-4.6956Z"/>
      <path class="cls-1" d="M235.7391,84.2236c-3.4744-1.556-8.5023,1.3521-9.3914,5.4783-.9712,4.5071,3.2404,9.3326,7.0436,9,2.8638-.2504,4.8823-3.3719,5.4781-5.8696.7185-3.012-.1202-7.2606-3.1304-8.6087Z"/>
      <path class="cls-1" d="M548.2505.4258c-3.4744-1.556-8.5023,1.3521-9.3914,5.4783-.9712,4.5071,3.2404,9.3326,7.0436,9,2.8638-.2504,4.8823-3.3719,5.4781-5.8696.7185-3.012-.1202-7.2606-3.1304-8.6087Z"/>
      <path class="cls-1" d="M289.1882.8889c-3.4744-1.556-8.5023,1.3521-9.3914,5.4783-.9712,4.5071,3.2404,9.3326,7.0436,9,2.8638-.2504,4.8823-3.3719,5.4781-5.8696.7185-3.012-.1202-7.2606-3.1304-8.6087Z"/>
      <path class="cls-1" d="M513.2496,8.3491c-3.4744-1.556-8.5023,1.3521-9.3914,5.4783-.9712,4.5071,3.2404,9.3326,7.0436,9,2.8638-.2504,4.8823-3.3719,5.4781-5.8696.7185-3.012-.1202-7.2606-3.1304-8.6087Z"/>
      <path class="cls-1" d="M87.0435,95.1801c-1.267-3.5157-5.4816-6.3837-9.7826-5.4783-4.6327.9752-7.2234,5.8772-6.6522,10.1739.5302,3.9884,3.7998,7.5672,7.4348,7.8261,5.5076.3923,11.0275-6.8958,9-12.5217Z"/>
      <path class="cls-1" d="M66.6957,155.8323c-2.0359-2.9667-5.5757-3.1224-5.8696-3.1304-3.8375-.1044-8.1525,2.9107-8.2174,7.0435-.0552,3.5133,2.9867,6.2021,5.8696,7.0435.3948.1152,4.5547,1.2546,7.4348-1.5652,2.5132-2.4606,2.6937-6.6063.7826-9.3913Z"/>
      <path class="cls-1" d="M125.3914,226.6584c-1.84-1.9125-5.0563-2.3441-7.4348-1.174-3.839,1.8887-5.1499,7.7802-2.3479,10.9565,1.7966,2.0366,5.0189,2.6564,7.4348,1.5652,4.0415-1.8254,5.3524-8.225,2.3479-11.3478Z"/>
      <path class="cls-1" d="M284.1204,223.0797c-1.84-1.9125-5.0563-2.3441-7.4348-1.174-3.839,1.8887-5.1499,7.7802-2.3479,10.9565,1.7966,2.0366,5.0189,2.6564,7.4348,1.5652,4.0415-1.8254,5.3524-8.225,2.3479-11.3478Z"/>
      <path class="cls-1" d="M462.1557,25.3604c-2.5428-2.643-6.9876-3.2395-10.2747-1.6224-5.3054,2.6101-7.117,10.752-3.2447,15.1417,2.4829,2.8146,6.936,3.671,10.2747,2.163,5.5853-2.5227,7.3969-11.3667,3.2447-15.6824Z"/>
      <path class="cls-1" d="M58.7959,295.9071c-4.3399-4.5109-11.926-5.529-17.5362-2.7689-9.0549,4.4547-12.1469,18.3507-5.5379,25.8428,4.2376,4.8037,11.8379,6.2655,17.5362,3.6917,9.5325-4.3056,12.6245-19.3999,5.5379-26.7656Z"/>
      <path class="cls-1" d="M230.2792,559.6581c-1.84-1.9125-5.0563-2.3441-7.4348-1.174-3.839,1.8887-5.1499,7.7802-2.3479,10.9565,1.7966,2.0366,5.0189,2.6564,7.4348,1.5652,4.0415-1.8254,5.3524-8.225,2.3479-11.3478Z"/>
      <path class="cls-1" d="M75.3043,223.3322c-.6432-.3856-3.0641-1.7004-5.6738-.7826-3.3267,1.1699-5.1151,5.3187-4.3044,8.8044.5293,2.2758,2.2739,4.7306,5.087,5.4781,3.318.8817,7.0303-.9019,8.413-4.1086,1.6323-3.7859-.7656-7.7386-3.5217-9.3914Z"/>
      <path class="cls-1" d="M68.1916,468.956c-.6432-.3856-3.0641-1.7004-5.6738-.7826-3.3267,1.1699-5.1151,5.3187-4.3044,8.8044.5293,2.2758,2.2739,4.7306,5.087,5.4781,3.318.8817,7.0303-.9019,8.413-4.1086,1.6323-3.7859-.7656-7.7386-3.5217-9.3914Z"/>
      <path class="cls-1" d="M583.4131,355.9844c-.9894-.4545-2.1895-.2758-3.0326.3914-1.0902.8627-1.5172,2.4896-.7827,3.8152.7458,1.3461,2.3712,1.807,3.6196,1.3695,1.151-.4033,1.6101-1.4402,1.6631-1.5652.5897-1.3923.0304-3.3228-1.4674-4.0109Z"/>
      <path class="cls-1" d="M598.9674,367.0388c-.7583-1.2262-2.3021-2.0009-3.8152-1.663-1.8909.4222-3.1785,2.4579-2.7391,4.2064.5195,2.0679,3.1447,2.5017,3.4238,2.5436.5027.0753,1.5614.2339,2.4457-.3914,1.3051-.9229,1.6466-3.1405.6848-4.6957Z"/>
      <path class="cls-1" d="M657.3751,187.8389c-.7583-1.2262-2.3021-2.0009-3.8152-1.663-1.8909.4222-3.1785,2.4579-2.7391,4.2064.5195,2.0679,3.1447,2.5017,3.4238,2.5436.5027.0753,1.5614.2339,2.4457-.3914,1.3051-.9229,1.6466-3.1405.6848-4.6957Z"/>
      <path class="cls-1" d="M347.9759,184.3868c-.7583-1.2262-2.3021-2.0009-3.8152-1.663-1.8909.4222-3.1785,2.4579-2.7391,4.2064.5195,2.0679,3.1447,2.5017,3.4238,2.5436.5027.0753,1.5614.2339,2.4457-.3914,1.3051-.9229,1.6466-3.1405.6848-4.6957Z"/>
      <path class="cls-1" d="M490.1318,342.9448c-.7583-1.2262-2.3021-2.0009-3.8152-1.663-1.8909.4222-3.1785,2.4579-2.7391,4.2064.5195,2.0679,3.1447,2.5017,3.4238,2.5436.5027.0753,1.5614.2339,2.4457-.3914,1.3051-.9229,1.6466-3.1405.6848-4.6957Z"/>
      <path class="cls-1" d="M583.0869,374.9627c.1919-.7963-.4307-1.771-1.2391-2.2174-.8525-.4708-1.6953-.2346-1.826-.1957-.0612.0182-1.4659.4607-1.6304,1.6957-.0918.6892.2357,1.3789.7173,1.7609,1.1943.9473,3.6637.2618,3.9783-1.0435Z"/>
      <path class="cls-1" d="M638,370.3975c-1.8964-2.3894-4.8682-2.2489-5.3478-2.2174-.3079.0201-4.1704.3392-5.4783,3.6521-.9767,2.474-.0067,5.2958,1.9565,6.7827,2.4558,1.86,5.4299.8464,6,.6521.7333-.2499,2.8522-.972,3.7826-3.1304.8726-2.0242.2516-4.2717-.9131-5.7391Z"/>
      <path class="cls-1" d="M701.928,251.6862c-2.3337-2.9404-5.9908-2.7675-6.581-2.7288-.3789.0248-5.1321.4175-6.7416,4.4943-1.2019,3.0445-.0083,6.517,2.4077,8.3469,3.0221,2.2889,6.6821,1.0416,7.3836.8025.9024-.3075,3.5099-1.1962,4.6549-3.8523,1.0738-2.491.3096-5.2568-1.1236-7.0626Z"/>
      <path class="cls-1" d="M252.9859,386.0189c-1.5069-1.8986-3.8683-1.787-4.2494-1.762-.2446.016-3.3138.2696-4.3531,2.902-.7761,1.9659-.0053,4.208,1.5547,5.3896,1.9514,1.478,4.3146.6726,4.7676.5182.5827-.1986,2.2663-.7724,3.0057-2.4874.6933-1.6084.1999-3.3943-.7255-4.5603Z"/>
      <path class="cls-1" d="M677.8556,386.9998c-2.8242-3.1184-7.2386-3.907-10.8116-2.621-4.6251,1.6645-7.7051,6.7565-6.5524,11.7944,1.3155,5.7495,7.5369,8.7762,12.4496,7.5353,4.4653-1.1279,6.3439-5.4012,6.5525-5.8972,1.3494-3.2087,1.2606-7.6109-1.6381-10.8115Z"/>
      <path class="cls-1" d="M680.1825,339.3123c-2.7831-3.2045-8.5496-4.8142-12.1843-1.7406-2.4346,2.0588-3.5153,5.8828-2.0887,9.0512,1.8759,4.1662,6.8612,4.476,7.6586,4.5255.4915.0305,6.4526.314,8.3549-3.8293,1.3601-2.9623-.2338-6.2718-1.7406-8.0068Z"/>
      <path class="cls-1" d="M649.6176,416.1934c-2.0304-2.5018-5.5045-2.8495-7.8629-2.2934-4.0442.9536-8.0404,5.3271-6.8801,10.1564.9216,3.8355,4.7919,6.6936,8.8458,6.2249,4.588-.5305,6.7418-5.0134,7.2077-7.863.1398-.855.6273-3.8371-1.3105-6.2249Z"/>
      <path class="cls-1" d="M687.0176,426.7639c-1.8882-1.4351-5.4555-1.5208-8.685.0929-3.2714,1.6347-4.4239,6.5687-2.621,9.8287,1.6018,2.8966,4.9729,3.4517,5.8972,3.6039,2.5972.4275,7.1002.0461,8.5182-2.9487,1.5302-3.2321-.5111-8.6023-3.1094-10.5769Z"/>
      <path class="cls-1" d="M304.1887,592.134c-1.6304-1.2391-4.7106-1.3131-7.499.0802-2.8247,1.4115-3.8198,5.6718-2.2631,8.4866,1.3831,2.5011,4.2938,2.9803,5.0919,3.1118,2.2426.3691,6.1306.0398,7.355-2.546,1.3213-2.7908-.4413-7.4276-2.6848-9.1326Z"/>
      <path class="cls-1" d="M716.7097,402.8771c-2.6024-2.2563-6.7645-3.5236-10.6697-1.8161-3.8009,1.6619-6.0494,5.5692-5.9026,9.5348.1655,4.4659,3.3354,8.1009,7.2646,9.3076,4.3939,1.3495,9.7502-.3331,12.032-4.7674,2.2582-4.3884.4802-9.4804-2.7244-12.2589Z"/>
      <path class="cls-1" d="M299.2091,621.7964c-1.081-.9372-2.8097-1.4636-4.4318-.7543-1.5788.6903-2.5127,2.3133-2.4517,3.9604.0687,1.855,1.3854,3.3648,3.0175,3.8661,1.8251.5606,4.0499-.1384,4.9977-1.9802.938-1.8228.1994-3.9378-1.1316-5.0919Z"/>
      <path class="cls-1" d="M765.8323,365.9346c-2.6853-2.6392-7.3844-4.6851-11.9548-3.0851-5.4434,1.9058-8.2742,8.1327-7.3272,13.4973,1.1423,6.4702,7.3234,9.0976,7.7128,9.2553,3.6851,1.4933,8.9076,1.573,12.3404-1.5425,4.8984-4.4457,3.9958-13.4399-.7713-18.1251Z"/>
      <path class="cls-1" d="M319.9745,677.9178c-1.3132-1.2906-3.6112-2.2912-5.8463-1.5087-2.662.932-4.0464,3.9772-3.5832,6.6006.5586,3.1641,3.5814,4.449,3.7718,4.5262,1.8021.7303,4.3561.7693,6.0349-.7543,2.3955-2.1741,1.9541-6.5726-.3772-8.8637Z"/>
      <path class="cls-1" d="M325.7205,581.3513c-1.3132-1.2906-3.6112-2.2912-5.8463-1.5087-2.662.932-4.0464,3.9772-3.5832,6.6006.5586,3.1641,3.5814,4.449,3.7718,4.5262,1.8021.7303,4.3561.7693,6.0349-.7543,2.3955-2.1741,1.9541-6.5726-.3772-8.8637Z"/>
      <path class="cls-1" d="M669.1923,464.2274c-2.5736-3.1175-7.1976-3.5943-10.5745-2.417-4.445,1.5499-8.0621,6.431-6.9489,11.1786.8426,3.5932,4.1022,5.8616,6.9489,6.6468.6748.1862,4.296,1.108,7.5531-.9064,4.5219-2.7963,6.5963-10.1715,3.0213-14.502Z"/>
      <path class="cls-1" d="M721.8789,302.4155c-4.8679-2.4183-12.8849-1.7397-15.4093,3.3708-1.8429,3.7306.0554,8.1741,1.9263,10.5939,2.532,3.2748,7.6911,6.3058,12.52,4.3339,5.7874-2.3634,7.4439-10.4205,4.8155-14.9277-1.1723-2.0103-2.976-2.9355-3.8524-3.3708Z"/>
      <path class="cls-1" d="M680.7072,309.8794c-1.8887-2.0604-5.1218-2.3688-7.464-1.2039-3.2503,1.6165-5.0211,6.1876-2.8892,9.3901,1.9329,2.9036,6.2869,3.4998,9.1493,1.4445,3.1003-2.2261,3.6361-6.9777,1.2039-9.6308Z"/>
      <path class="cls-1" d="M726.2128,339.2535c-1.3385-2.1046-4.1725-3.1336-6.5008-2.4077-3.7177,1.159-5.4195,6.5655-3.13,9.6308,1.3787,1.8459,4.0537,2.6401,6.2601,1.9261,3.5264-1.1411,5.3848-5.9818,3.3706-9.1492Z"/>
      <path class="cls-1" d="M735.0556,453.8041c-2.6085-4.0511-7.5271-5.2402-11.3297-4.5318-5.1455.9585-9.7497,5.6714-9.517,11.3297.1746,4.2441,3.0277,7.9833,6.7979,9.517,5.2535,2.1372,11.3546-.3881,14.0488-4.9852,1.7907-3.0554,2.4075-7.5909,0-11.3297Z"/>
      <path class="cls-1" d="M554.9657,623.8697c-2.42-3.7584-6.9832-4.8616-10.5111-4.2044-4.7737.8893-9.0452,5.2616-8.8293,10.5111.162,3.9374,2.8089,7.4065,6.3067,8.8293,4.8739,1.9828,10.5342-.36,13.0337-4.625,1.6613-2.8346,2.2335-7.0424,0-10.5111Z"/>
      <path class="cls-1" d="M263.5114,642.0099c-2.2523-3.4979-6.4993-4.5247-9.7826-3.913-4.4429.8276-8.4183,4.897-8.2174,9.7826.1508,3.6646,2.6143,6.8932,5.8696,8.2174,4.5361,1.8453,9.8041-.3351,12.1304-4.3044,1.5461-2.6382,2.0787-6.5543,0-9.7826Z"/>
      <path class="cls-1" d="M550.8884,550.7155c-3.4701-1.9776-8.2568-.2162-9.5301,3.3635-1.3519,3.8005,1.7974,8.1299,5.6059,8.6893,2.4098.354,5.1331-.794,6.4468-3.0833,1.7321-3.0183.553-7.2167-2.5226-8.9694Z"/>
      <path class="cls-1" d="M587.8875,551.8367c-2.1197-.8007-4.7279-.4015-6.4468,1.4015-1.7926,1.8802-2.1324,4.7779-.841,7.0074,1.4947,2.5803,4.7147,3.4716,7.2878,2.5227,2.0802-.767,3.8637-2.7832,3.9241-5.3256.0622-2.6233-1.7347-4.779-3.9241-5.6059Z"/>
      <path class="cls-1" d="M548.2256,587.7146c-2.0037-4.0588-7.7705-5.0885-11.3519-2.5227-2.7271,1.9536-4.1112,5.9374-2.5227,9.2498,1.7531,3.6558,6.4468,5.0753,10.0907,3.3635,3.7751-1.7734,5.5565-6.5002,3.784-10.0906Z"/>
      <path class="cls-1" d="M586.7662,593.3204c-1.3192-1.6827-3.1896-2.1433-3.6438-2.2423-2.9261-.6382-6.2745.8179-7.8483,3.6439-1.668,2.9951-1.0494,7.0027,1.6817,9.2497,2.2335,1.8376,5.4593,2.1517,7.8483.8409,4.0359-2.2145,4.4109-8.3687,1.962-11.4922Z"/>
      <path class="cls-1" d="M340.7813,606.2011c-1.2278-1.566-2.9685-1.9948-3.3912-2.0869-2.7233-.594-5.8396.7612-7.3043,3.3914-1.5524,2.7875-.9767,6.5173,1.5652,8.6086,2.0787,1.7102,5.0809,2.0026,7.3043.7826,3.7562-2.061,4.1052-7.7887,1.826-10.6957Z"/>
      <path class="cls-1" d="M553.4478,675.9334c-.6596-.8413-1.5948-1.0716-1.8219-1.1212-1.463-.3191-3.1372.409-3.9241,1.822-.834,1.4975-.5247,3.5013.8409,4.6249,1.1168.9188,2.7296,1.0758,3.9241.4204,2.018-1.1073,2.2055-4.1843.981-5.7461Z"/>
      <path class="cls-1" d="M356.7941,531.8297c-.6139-.783-1.4843-.9974-1.6956-1.0435-1.3616-.297-2.9198.3806-3.6522,1.6957-.7762,1.3937-.4883,3.2587.7826,4.3043,1.0394.8551,2.5405,1.0013,3.6522.3913,1.8781-1.0305,2.0526-3.8943.913-5.3478Z"/>
      <path class="cls-1" d="M548.5869,33.7453c-3.1625-1.4276-7.757-.336-9.5869,3.3261-1.9333,3.8693.33,8.3854,3.7174,9.9783,2.2216,1.0446,5.2206.9701,7.4348-.7827,2.6523-2.0995,3.0022-5.6755,2.1521-8.2173-.2096-.6266-1.1451-3.1432-3.7174-4.3044Z"/>
      <path class="cls-1" d="M589.674,44.5062c-1.0896-.9887-2.8235-1.2101-4.1088-.5869-2.4187,1.1727-3.1394,5.2831-1.1738,7.0435,1.2163,1.0893,3.2969,1.1313,4.6956.1957,2.1472-1.4365,2.4139-4.9945.587-6.6522Z"/>
      <path class="cls-1" d="M580.3812,16.3192c-1.0896-.9887-2.8235-1.2101-4.1088-.5869-2.4187,1.1727-3.1394,5.2831-1.1738,7.0435,1.2163,1.0893,3.2969,1.1313,4.6956.1957,2.1472-1.4365,2.4139-4.9945.587-6.6522Z"/>
      <path class="cls-1" d="M632.9131,53.7018c-.5192-.345-3.5461-2.26-6.6522-.7826-2.5497,1.2128-3.91,4.1202-3.5217,6.8478.4336,3.0457,2.9576,5.2355,5.674,5.674,3.4629.559,7.2134-1.7321,7.826-5.087.5308-2.9065-1.5068-5.4433-3.326-6.6522Z"/>
      <path class="cls-1" d="M619.7627,20.1809c-3.1611-.0895-6.0804,1.9546-7.2562,4.6952-1.7752,4.1377.4101,9.8938,5.122,11.0979,4.576,1.1694,9.4828-2.4792,9.8173-7.2563.3105-4.4322-3.4144-8.416-7.6831-8.5368Z"/>
      <path class="cls-1" d="M658.7391,117.8757c-2.1057-1.9998-6.2373-1.931-8.6086.5217-1.7607,1.8212-2.4419,4.8439-1.0436,7.3044,1.5725,2.7669,5.1082,3.6497,7.5653,2.6087,3.7899-1.6057,4.917-7.7471,2.0869-10.4348Z"/>
      <path class="cls-2" d="M277.3478,161.9627c-3.5173-1.3111-7.3007-.1868-9.6521,1.8261-4.2755,3.66-5.085,11.3425-.7826,15.6522,2.8197,2.8245,7.4719,3.8364,11.2174,2.0869,5.3129-2.4816,6.5878-9.4853,4.6956-14.0869-.3481-.8467-1.835-4.1202-5.4783-5.4783Z"/>
      <path class="cls-2" d="M329.2609,161.7018c-1.5127-1.651-4.09-2.205-6.2609-1.5652-3.0996.9134-4.647,4.0469-4.6957,6.6522-.0403,2.1539.921,5.1519,3.5217,6.2609,2.4683,1.0525,4.8569-.2601,5.087-.3913,3.4771-1.9836,5.1481-7.9003,2.3478-10.9565Z"/>
      <path class="cls-2" d="M428.9131,125.7018c-2.9539-3.02-7.8878-3.6025-11.4783-1.0435-3.7659,2.684-4.6355,7.8132-2.6088,11.4782,1.5426,2.7897,4.5659,4.3741,7.5653,4.4348,3.1865.0645,6.4786-1.588,8.0869-4.6957,1.7502-3.382,1.0142-7.5367-1.5652-10.1739Z"/>
      <path class="cls-2" d="M488.1305,158.0497c-.1492-.1676-1.9263-2.1039-4.0436-1.5652-2.1122.5374-3.4099,3.2444-2.7391,5.4783.558,1.858,2.3569,2.9855,4.0436,3.1304.3293.0283,2.125.1827,3.2609-1.0435,1.4547-1.5703.8997-4.4037-.5217-6Z"/>
      <path class="cls-2" d="M357.9565,109.267c-2.087-.2778-4.8412,1.057-4.9565,3.1304-.1102,1.9805,2.2241,3.9716,4.4348,3.6522,2.4569-.3549,3.9811-3.4509,3.1304-5.2174-.6267-1.3015-2.3755-1.5342-2.6086-1.5652Z"/>
      <path class="cls-2" d="M197,278.0496c-2.6423-3.876-8.7083-5.5317-13.0435-3.1304-5.7148,3.1656-6.1401,12.1176-2.087,16.6957,1.8922,2.1373,5.1626,3.7754,8.3479,3.1304,6.1959-1.2548,10.7471-10.8805,6.7826-16.6957Z"/>
      <path class="cls-2" d="M211.4783,364.0062c.069-4.4441-4.0056-7.2368-4.3043-7.4348-2.6484-1.7557-6.8326-2.6171-10.174-.3912-3.7252,2.4816-4.3571,7.4377-3.1305,10.9565.1449.4158,1.7511,4.8042,5.8696,5.8695,5.2742,1.3641,11.6538-3.5015,11.7391-9Z"/>
      <path class="cls-2" d="M202.0869,416.441c1.9174-3.5311.5883-8.785-3.5217-10.9565-3.9161-2.0691-8.8788-.5586-10.9565,3.1305-1.7416,3.092-1.0896,7.0632,1.174,9.3912,3.5631,3.6646,10.8412,2.9711,13.3043-1.5652Z"/>
      <path class="cls-9" d="M558.3695,277.5279c-3.2004-1.7642-7.8097.1456-9.9781,3.3262-1.6447,2.4122-2.4222,6.343-.1957,9.3912,2.3254,3.1835,6.9717,4.0953,10.1738,2.1522,3.9946-2.4241,3.4056-7.8733,3.3262-8.6088-.1124-1.0406-.5088-4.7079-3.3262-6.2609Z"/>
      <path class="cls-9" d="M522.9565,334.267c-2.2322-1.3586-6.2994-.056-7.826,2.9348-1.01,1.9788-1.0804,5.0343.9781,6.8478,1.8872,1.6625,4.7189,1.5367,6.4565.3914,3.3014-2.1761,3.257-8.4298.3914-10.174Z"/>
      <path class="cls-9" d="M579.4022,311.767c-.6682-2.6735-4.2336-3.4857-4.4022-3.5217-2.8717-.6127-6.8811.6422-7.7283,3.8152-.576,2.1573.4261,4.7657,2.4457,5.9674,1.9012,1.1312,3.9282.5541,4.5.3914,2.8505-.8115,5.8947-3.8123,5.1848-6.6522Z"/>
      <path class="cls-9" d="M553.6086,431.9627c-2.7031-4.0721-7.9999-5.1213-12-3.9131-5.4722,1.6528-9.3496,7.7815-7.826,13.0436,1.46,5.0424,7.1189,6.6624,7.5652,6.7826.5547.1495,5.5863,1.4169,9.6522-1.8262,3.924-3.1298,5.6849-9.4525,2.6086-14.0869Z"/>
      <path class="cls-9" d="M443.1305,537.7453c-1.0829-4.635-5.9144-8.7479-11.3479-8.6086-6.4836.1663-11.4193,6.3259-11.3478,12.5217.0597,5.173,3.6094,10.3219,8.2174,11.3478,7.3358,1.6332,16.3112-7.4155,14.4783-15.2609Z"/>
      <path class="cls-9" d="M388.9348,473.1801c-2.8948-2.9639-7.6025-3.9003-11.3479-1.9565-4.7345,2.4572-6.2571,8.6481-4.1086,13.1086,1.4512,3.0129,4.6438,5.3746,8.4131,5.4783.2515.007,4.9452.0574,7.826-3.7173,2.7941-3.6609,2.6904-9.3572-.7826-12.9131Z"/>
      <path class="cls-9" d="M294.826,534.4844c-3.5186-2.056-9.7997.1761-11.2174,4.9565-.9884,3.3326.5072,7.4988,3.9131,9.1304,2.5149,1.2048,5.576.7903,7.5652-.7826,3.969-3.1384,3.7565-10.9569-.2609-13.3043Z"/>
      <path class="cls-10" d="M485,554.441c-1.5134-2.3711-4.5532-3.4155-7.174-3.1305-4.2716.4646-6.2408,4.3319-6.6521,5.2174-.2765.5953-2.1385,4.6044,0,7.6957,2.0903,3.0215,6.7811,3.4009,9.913,1.826,4.1041-2.0637,6.2994-7.8698,3.9131-11.6086Z"/>
      <path class="cls-10" d="M566.6522,496.9192c-3.5625-3.0214-9.2694-1.1637-12.2609.7826-2.6715,1.738-6.5972,5.7719-5.4783,9.6522,1.1525,3.9969,6.8678,5.094,8.8695,5.4781,2.1157.4061,4.9194.9442,7.3043-.5217,4.4895-2.7595,5.951-11.6715,1.5653-15.3912Z"/>
      <path class="cls-10" d="M601.8695,401.1801c-2.8048-3.665-8.4105-3.5725-12-2.0869-4.0006,1.6559-6.7377,5.5562-7.0435,9.6521-.0715.959-.3323,4.4503,2.087,7.0435,3.709,3.9756,10.0825,1.9443,10.4347,1.8262,4.5394-1.5226,6.4321-5.4849,6.7827-6.2609.5352-1.1846,2.6426-6.3799-.261-10.174Z"/>
      <path class="cls-10" d="M626.1305,296.8322c-3.2034-1.843-7.3499-1.7511-10.4348,0-2.7032,1.5344-3.8384,3.9156-4.9565,6.261-.8296,1.7401-2.6195,5.4946-1.5652,9.913.2539,1.0641.7822,3.1586,2.6086,4.9565,1.5408,1.5168,3.2274,2.0568,4.174,2.3478.6533.2009,3.7352,1.0851,7.0435,0,4.7118-1.5455,7.3738-6.2628,8.0869-10.1738.7184-3.9401.0698-10.4126-4.9564-13.3044Z"/>
      <path class="cls-10" d="M366.3043,566.8322c-2.7369-.5934-6.1641.4347-7.826,3.1305-2.1095,3.4218-.6299,8.3217,2.8695,10.4348,3.8385,2.318,9.2429.761,10.9565-2.8696,1.9526-4.1371-1.4779-9.7153-6-10.6957Z"/>
      <path class="cls-7" d="M185.3914,253.0062c-5.1226-1.2251-10.4968,5.5201-11.087,6.2609-3.9095,4.9069-4.3961,10.3151-4.5652,12.5217-.3231,4.2167.531,7.4668,1.174,9.9131,1.2061,4.5889,3.1409,8.3459,3.5217,8.2174.4872-.1643-2.9111-6.2319-1.4348-13.6957.819-4.1406,2.8585-7.2966,4.0435-9.1304,1.8839-2.9152,2.8378-4.3912,4.826-5.3479,2.0973-1.009,3.4946-.5496,5.2174-2.0869.3221-.2875,2.1965-1.96,1.8262-3.7826-.3271-1.61-2.2491-2.5653-3.5217-2.8696Z"/>
      <path class="cls-7" d="M172.1522,343.0713c-3.5491,3.6302-4.9451,7.6034-5.087,8.0219-1.4006,4.1265-1.0833,7.9592-.3912,15.4564.3268,3.5404.7302,7.7583,1.9565,13.5,1.6731,7.8337,4.2106,15.3811,4.6956,15.2609.5344-.1324-1.0735-9.6641-3.1304-27.5869-.5563-4.8472-.8848-8.0463.5869-11.7391,1.0978-2.7549,2.624-4.3456,4.1088-9,.4712-1.4771,1.8124-5.6814.7826-6.2609-.7911-.4452-2.6371,1.443-3.5217,2.3478Z"/>
      <path class="cls-7" d="M228.7534,182.7132c-.5824-.2322-.9362-.8457-1.1753-1.4346-3.0584-7.5335,3.3934-12.4248,9.998-13.6349,3.1797-.5826,6.432-.7052,9.6038-1.3292,8.9959-1.7699,16.6613-7.3838,24.466-12.1946,7.8047-4.8108,16.7479-9.0645,25.8051-7.6413-10.9453,2.8559-20.7948,8.8961-29.8868,15.6259-3.4332,2.5413-6.8047,5.2049-10.5704,7.221-3.7657,2.0162-8.0077,3.3705-12.2677,3.0583-1.7902-.1312-3.6731-.5395-5.321.1721-2.4223,1.046-3.268,3.9663-4.7179,6.1707-1.0226,1.5547-2.4522,2.8391-4.1071,3.69-.5382.2767-1.1601.5124-1.7368.3289-.0306-.0097-.0605-.0205-.0899-.0322Z"/>
      <path class="cls-1" d="M451.6086,343.7888c-2.4677-.7305-5.3281,1.0664-6.5217,3.3914-1.416,2.7582-.838,6.9451,2.087,8.3478,2.6147,1.254,5.9131-.2886,7.3043-2.6086,1.9276-3.2145.3485-8.178-2.8696-9.1305Z"/>
      <path class="cls-1" d="M481.8695,242.3105c-2.1686-3.4957-6.9427-5.2906-10.9564-3.913-5.6019,1.9229-8.1003,9.4692-5.087,14.4783,2.0327,3.379,6.3816,5.2843,10.174,4.3043,5.8674-1.5161,9.1323-9.6101,5.8695-14.8696Z"/>
      <path class="cls-1" d="M462.6957,199.6584c-.9089-1.7991-2.9819-2.981-5.087-2.6088-2.4447.4323-4.2584,2.8414-3.913,5.2174.3575,2.4589,2.8469,3.6398,4.4348,3.9131.5153.0887,1.9808.3409,3.2609-.5217,1.7515-1.1805,2.3593-3.912,1.3043-6Z"/>
      <path class="cls-1" d="M482.0652,307.0713c.3433-2.7644-1.7936-5.1842-3.913-5.4781-3.2172-.4463-6.6808,3.9662-5.4783,7.0435.6838,1.75,2.8591,3.0232,5.0869,2.7391,2.2509-.287,4.0302-2.0968,4.3043-4.3044Z"/>
      <path class="cls-1" d="M430.6086,408.6149c1.0902-3.0339.0114-7.1846-3.1304-8.6088-3.4451-1.5618-7.6207.9484-9,4.3043-1.2167,2.9603-.4336,7.0072,2.3478,8.6088,3.3678,1.9391,8.3938-.4392,9.7826-4.3043Z"/>
      <path class="cls-1" d="M375.2391,422.8975c-.1682-.2197-1.9036-2.411-4.5-2.1522-2.4093.2401-4.1707,2.4513-4.5,4.6957-.3203,2.182.694,4.5247,2.7391,5.674,1.7079.9597,4.0376,1.0327,5.674-.1957,2.4333-1.8268,2.3145-5.7662.5869-8.0217Z"/>
      <path class="cls-1" d="M312.5652,407.1801c-.5448-.793-1.7795-1.0479-2.7391-.6522-1.056.4354-1.8448,1.6859-1.4347,2.8696.3817,1.1017,1.6298,1.6477,2.6086,1.4347,1.5154-.3297,2.3735-2.4756,1.5652-3.6521Z"/>
      <path class="cls-1" d="M380.7174,198.6801c-1.577-1.1002-3.8665-.7643-4.8914.5869-1.3484,1.7776-.2095,4.9182,1.9565,5.674,1.3035.4547,3.0089.0563,3.9131-1.174,1.1436-1.556.6459-3.9537-.9783-5.0869Z"/>
    </g>
  </g>
</svg>