<?xml version="1.0" encoding="UTF-8"?>
<svg id="Capa_2" xmlns="http://www.w3.org/2000/svg" viewBox="0 0 405.3634 405.3706">
  <defs>
    <style>
      .cls-1 {
        fill: #ffdaa9;
      }

      .cls-2 {
        fill: #f9bd5d;
      }

      .cls-3 {
        fill: #ffcb80;
      }

      .cls-4 {
        fill: #db963b;
      }

      .cls-5 {
        fill: #eaa94b;
      }

      .cls-6 {
        fill: #d1831c;
      }

      .cls-7 {
        fill: #ffb357;
      }

      .cls-8 {
        fill: #e09528;
      }
    </style>
  </defs>
  <g id="Capa_1-2" data-name="Capa_1">
    <g>
      <g>
        <path class="cls-2" d="M399.545,202.6817c0,25.0389-11.9278,47.8564-20.4508,69.8825-9.9822,25.8085-17.9897,50.107-37.2063,69.3236-14.6938,14.6938-41.0323,24.6035-59.7552,34.0847-26.6797,13.4959-47.5152,23.5797-79.451,23.5797-25.2495,0-45.7076-9.6119-67.8934-18.2801-22.1859-8.6609-46.0996-16.3707-63.523-32.0011-.4937-.4428-.9873-.9002-1.4664-1.3648-9.1836-8.7481-15.6448-19.8264-21.322-31.5219-4.9148-10.0911-9.2417-20.6468-14.2509-30.5637-13.4669-26.6433-28.4075-51.2395-28.4075-83.1389,0-21.3147,8.6899-34.7453,14.9624-53.9691,6.8387-20.9953,11.8117-47.537,24.8575-64.7645,15.7102-20.7484,37.3878-32.2915,59.9802-45.4607,29.0899-16.9588,60.9676-32.669,97.0632-32.669,26.0553,0,49.1124,10.5993,71.8718,19.7902,24.7268,9.9895,48.7857,19.3182,67.3344,37.867,13.3725,13.3798,21.2203,31.1517,28.9012,48.8873,1.873,4.3123,3.7315,8.6246,5.6553,12.8643.2033.4428.3993.8857.6026,1.3213,11.0712,24.3057,22.498,47.6604,22.498,76.1332Z"/>
        <path class="cls-1" d="M202.6817,5.8184c26.0553,0,49.1124,10.5993,71.8718,19.7902,24.7268,9.9894,48.7857,19.3182,67.3344,37.8669,13.3725,13.3798,21.2203,31.1517,28.9012,48.8873,1.8731,4.3123,3.7315,8.6246,5.6554,12.8643.2032.4429.3993.8857.6026,1.3213,11.0711,24.3057,22.498,47.6604,22.498,76.1332,0,25.0389-11.9279,47.8564-20.4508,69.8825-9.9822,25.8086-17.9897,50.107-37.2064,69.3236-14.6937,14.6938-41.0322,24.6036-59.7552,34.0847-26.6796,13.4959-47.5152,23.5797-79.4509,23.5797-25.2495,0-45.7076-9.6119-67.8934-18.2802-22.1859-8.6608-46.0996-16.3707-63.523-32.001-.4937-.4428-.9873-.9002-1.4664-1.3648-9.1836-8.7481-15.6449-19.8264-21.322-31.5219-4.9149-10.0911-9.2417-20.6469-14.2509-30.5637-13.4669-26.6433-28.4075-51.2394-28.4075-83.1389,0-21.3147,8.6899-34.7452,14.9624-53.9691,6.8387-20.9953,11.8116-47.5371,24.8574-64.7645,15.7102-20.7484,37.3878-32.2914,59.9803-45.4607,29.0899-16.9588,60.9676-32.669,97.0632-32.669M202.6817,0c-37.4368,0-70.1831,16.0819-99.9936,33.4608-1.7956,1.0466-3.5857,2.0831-5.3674,3.1149-21.1644,12.2549-41.1551,23.8302-56.3211,43.86-10.5291,13.9041-15.8576,32.5519-21.0107,50.5857-1.5992,5.5967-3.1097,10.883-4.7404,15.8891-1.732,5.3081-3.6858,10.2396-5.5752,15.0086-4.9746,12.5559-9.6732,24.4154-9.6732,40.7625,0,29.5129,12.3065,53.3271,24.2078,76.3572,1.5891,3.0751,3.2324,6.2549,4.8253,9.4064,2.6916,5.3286,5.2539,11.0051,7.7318,16.4947,2.0779,4.6035,4.2267,9.3637,6.4809,13.9921,4.9207,10.1371,11.9301,23.0735,22.522,33.1701.4997.4841,1.042.9886,1.6123,1.5002,15.8922,14.2567,36.4556,22.0842,56.3419,29.6541,2.9492,1.1227,5.9989,2.2836,8.9502,3.4357,2.7322,1.0675,5.4884,2.1696,8.1539,3.2354,18.9875,7.5923,38.6215,15.4431,61.8554,15.4431,34.2248,0,56.4003-11.2174,82.0772-24.2061,4.3078-2.1815,9.019-4.3826,14.0066-6.713,16.5286-7.7225,35.2624-16.4753,47.2365-28.4495,18.2481-18.2481,26.7215-40.4548,35.6924-63.9655.9317-2.4418,1.8699-4.9007,2.8263-7.3735,1.6223-4.1924,3.3413-8.345,5.1611-12.7415,7.7095-18.6244,15.6815-37.8829,15.6815-59.2399,0-28.1936-10.7875-51.7852-21.2199-74.6001-.6003-1.3128-1.2015-2.6275-1.8016-3.9449l-.0111-.0244-.0113-.0242c-.111-.2379-.2196-.4781-.3287-.7194l-.2584-.5685c-1.6414-3.6174-3.2827-7.3999-4.8699-11.0579l-.7368-1.6976c-7.3577-16.9893-15.7-36.2519-30.1226-50.6824-18.7749-18.7748-42.114-28.1914-66.8233-38.1609l-2.447-.9877c-2.225-.8985-4.4521-1.8103-6.6845-2.7242C249.0446,8.8911,227.3257,0,202.6817,0h0Z"/>
      </g>
      <path class="cls-5" d="M399.545,202.6817c0,25.0389-11.9278,47.8564-20.4508,69.8825-9.9822,25.8085-17.9897,50.107-37.2063,69.3236-14.6938,14.6938-41.0323,24.6035-59.7552,34.0847-26.6797,13.4959-47.5152,23.5797-79.451,23.5797-25.2495,0-45.7076-9.6119-67.8934-18.2801-22.1859-8.6609-46.0996-16.3707-63.523-32.0011-9.9749-8.9513-16.8136-20.5814-22.7884-32.8867,12.8498,7.4485,30.3894,15.9134,53.3593,16.0295,12.8716.0653,18.1349-2.5482,35.7907-1.1397,21.6777,1.735,27.5653,6.7661,46.5932,10.229,11.8334,2.1561,37.7508,6.875,65.0476-2.8386,25.5907-9.1038,40.6112-26.6942,48.8655-36.3642,16.4507-19.2675,27.9357-33.347,35.5149-53.217,4.7915-12.5522-.6752-16.956,7.9494-43.0839,10.2436-31.0501,9.1076-54.274,14.5814-71.4942,3.0781-9.6918-.1894-27.4524,14.6101-22.1423,1.873,4.3123,3.7315,8.6246,5.6553,12.8643,11.2526,24.7776,23.1006,48.4663,23.1006,77.4545Z"/>
      <path class="cls-4" d="M399.545,202.6817c0,25.0389-11.9278,47.8564-20.4508,69.8825-9.9822,25.8085-17.9897,50.107-37.2063,69.3236-14.6938,14.6938-41.0323,24.6035-59.7552,34.0847-26.6797,13.4959-47.5152,23.5797-79.451,23.5797-25.2495,0-45.7076-9.6119-67.8934-18.2801-22.1859-8.6609-46.0996-16.3707-63.523-32.0011-.4937-.4428-.9873-.9002-1.4664-1.3648,3.8694,1.2923,7.9204,2.57,12.1529,3.8259,4.8568,1.4374,14.9551,4.3268,30.1063,9.0893,17.9026,5.6263,25.6795-.8472,37.7743,3.0295,32.1027,10.2799,45.4113,16.9333,58.0579,16.2871,16.9878-.8711,28.9488-.2016,42.2342-6.8154,24.4727-12.1965,17.6359-20.7801,44.5043-34.8494,18.948-9.9169,30.0318-7.7074,40.1519-17.9945,10.1927-10.3597,15.4996-23.0134,18.1785-29.54,4.2615-10.3888,5.1617-16.9516,7.3832-26.7015,8.9295-39.1955,10.8518-40.4006,13.8283-68.024,1.2124-11.1655-3.3632-20.862-4.924-39.1712-1.1325-13.2346,9.0346-23.1176,7.8005-30.4936,11.0712,24.3057,22.498,47.6604,22.498,76.1332Z"/>
      <path class="cls-8" d="M261.5862,268.7117c-7.96,22.8099-14.0699,40.3099-30.9399,53.5199-41.83,32.77-108.3,6.6201-117.56,2.9701-11.52-4.53-36.05-14.52-54.46-38.65-2.29-2.99-4.31-5.99-6.1-8.9199-7.14-11.67-10.65-22.3201-12.46-27.9501-2.81-8.73-7.4-23.02-6.19-40.44,1.12-16.08,7.78-28.38,21.04-52.33,15.5099-27.99,23.6-42.23,40.22-54.11,6.67-4.76,19.75-13.89,38.98-16.65,22.72-3.25,40.37,4.33,53.84,10.11,16.87,7.24,30,16.87,39.82,26,10.0499,9.35,16.63,18.16,20.2001,23.36,16.0999,23.46,20.4299,45.49,21.6599,52.92,5.1799,31.3501-3.01,55.75-8.05,70.17Z"/>
      <path class="cls-3" d="M14.5928,175.2129c-4.1254,11.4508-5.0359,20.7249-5.4783,25.5653-1.9292,21.1086,3.4799,30.9705,6,34.6957,3.6614,5.4122,6.9199,6.2903,8.3478,6.5217,2.3736.3848,6.1394.2483,8.0869-2.087,2.3867-2.8621.5242-7.1329-.913-14.2174,0-.0001-1.8112-8.9274-1.5652-19.5652.2186-9.4558,3.8313-16.2629,7.8261-23.8696,11.0171-20.9779,14.0372-26.9757,25.8261-49.3043,5.5452-10.5028,7.8994-15.3015,13.4348-21.6521,7.3776-8.464,14.7585-13.2056,19.0435-15.9131,1.5789-.9977,24.7483-15.3177,50.0869-15.6522,1.0018-.0132,6.2331-.0088,16.6957,0,16.0681.0135,15.6085.052,16.6956,0,10.196-.4878,20.5666-.9841,30.7827-6.6521,6.0096-3.3342,4.3798-4.2493,13.3043-9.7826,6.2086-3.8494,12.0891-7.423,20.3478-9,4.7277-.9028,8.696-.8575,15.2609-.7826,9.8849.1127,22.9327.9025,26.2174-1.174,3.9742-2.5123,5.3699-6.4027,4.3044-11.9348-1.0645-5.5266-15.8113-9.5461-21.5217-12.5217-5.9133-3.0813-9.3848-3.2856-16.826-5.4783-9.4996-2.7991-14.6805-5.6595-18.9783-7.4348-17.3831-7.1803-39.9576-4.7188-47.3478-3.913-19.3504,2.1099-40.7481,13.2761-83.5435,35.6086-4.4981,2.3473-12.4644,6.5596-22.3043,13.1088-13.5901,9.0452-22.1739,16.9565-28.1739,25.5911-13.2813,19.113-16.9477,33.7581-17.8696,39.1046-1.5553,9.0204-1.2975,8.7068-3.1304,16.826-3.3499,14.8394-9.0665,18.5298-14.6087,33.913Z"/>
      <path class="cls-1" d="M82.4841,58.7999c-4.876,2.4123-10.0992,5.8311-17.4131,12.913-8.7252,8.4485-18.6875,18.0948-24.4565,33.163-2.3199,6.0593-3.9418,12.9434-5.087,17.8044-1.2346,5.2403-2.7155,12.4961-2.25,12.6196.4015.1065,1.9564-5.1708,5.674-15.5544,2.9008-8.1023,4.3511-12.1534,5.1848-13.8913,4.1479-8.6476,9.443-14.504,16.7609-22.5978,2.5051-2.7707,5.2129-5.7656,9.1304-9.3913,14.0521-13.0051,26.3903-18.1344,25.8261-19.3043-.4097-.8495-7.2308,1.2021-13.3696,4.2391Z"/>
      <path class="cls-1" d="M24.1145,160.4738c-3.4833,3.4352-5.2301,6.9194-5.7391,7.9565-2.8872,5.8824-4.3945,10.9517-4.663,11.8696-2.8252,9.6545-3.519,17.6981-3.7174,22.5-.229,5.5411.0012,11.6166.4891,11.6413.5208.0263.7302-6.872,2.7391-17.0217.7329-3.7031,2.1978-10.9598,5.2826-19.4674,4.0053-11.0464,8.7202-18.6266,7.8261-19.1739-.3073-.1881-1.081.5749-2.2174,1.6956Z"/>
      <path class="cls-7" d="M175.2884,95.6478c-.9977-1.7056-3.5161-4.5324-19.3043-5.4783-12.8463-.7696-21.5922-1.2936-33.3913,2.0869-5.1883,1.4865-18.1445,5.3553-30,16.4348-4.6454,4.3413-7.8795,9.0681-14.3478,18.5217-3.0414,4.4451-15.4039,22.5132-13.3044,24.2609,1.0097.8405,4.6109-2.7206,18.2609-13.3043,10.3943-8.0594,15.6815-12.1343,20.0869-14.3478,3.4066-1.7117,13.0221-6.4244,25.8261-7.0435,10.1889-.4926,11.4574,2.136,23.2174,1.3043,8.4446-.5972,14.7715-1.1374,19.3043-6,3.928-4.2138,6.4649-11.6263,3.6522-16.4348Z"/>
      <path class="cls-7" d="M56.4623,169.3434c-2.3927-.7142-8.3235,11.7307-11.3478,19.9565-2.5566,6.9536-5.1269,16.5782-5.4783,28.5652-.3087,10.5319-.6629,22.6129,7.0435,32.087,1.8357,2.2567,4.9515,5.9835,9,5.8695,5.6757-.1598,10.6719-7.7972,11.7391-14.4783,1.5624-9.7811-5.8325-14.1552-10.5652-25.826-9.1876-22.6568,2.8535-45.2054-.3913-46.174Z"/>
      <path class="cls-6" d="M261.5862,268.7117c-7.96,22.8099-14.0699,40.3099-30.9399,53.5199-41.83,32.77-108.3,6.6201-117.56,2.9701-11.52-4.53-36.05-14.52-54.46-38.65-2.29-2.99-4.31-5.99-6.1-8.9199,4.51.97,10.59,2.49,18.81,4.7999,28.88,8.11,31.65,11.27,45.39,13.2999,16.94,2.51,30.17.28,43.43-1.95,14.87-2.51,29.44-4.96,45.39-14.87,11.27-7.01,18.72-14.92,22.31-18.7899,5.9-6.3501,12.3401-13.2201,17.21-23.8701,6.74-14.6899,6.5901-27.97,6.4001-37.0399-.1101-5.0601-.7201-16.79-7.5701-38.09-5.64-17.53-11.87-30.25-16.12-38.86,10.0499,9.35,16.63,18.16,20.2001,23.36,16.0999,23.46,20.4299,45.49,21.6599,52.92,5.1799,31.3501-3.01,55.75-8.05,70.17Z"/>
    </g>
  </g>
</svg>