<?xml version="1.0" encoding="UTF-8"?>
<svg id="Capa_2" xmlns="http://www.w3.org/2000/svg" viewBox="0 0 405.3633 405.3706">
  <defs>
    <style>
      .cls-1 {
        fill: #70569b;
      }

      .cls-2 {
        fill: #5f488c;
      }

      .cls-3 {
        fill: #9570c2;
      }

      .cls-4 {
        fill: #b29ad8;
      }

      .cls-5 {
        fill: #604593;
      }

      .cls-6 {
        fill: #47327c;
      }

      .cls-7 {
        fill: #a486ce;
      }

      .cls-8 {
        fill: #735aaf;
      }

      .cls-9 {
        fill: #8566b2;
      }
    </style>
  </defs>
  <g id="Capa_1-2" data-name="Capa_1">
    <g>
      <g>
        <path class="cls-3" d="M202.6815,402.4617c-22.6738,0-41.1807-7.4001-60.7749-15.2349-2.7075-1.0828-5.4292-2.1711-8.1772-3.2449-2.9663-1.158-5.9644-2.2991-8.9736-3.4446-19.6372-7.4753-39.9434-15.2048-55.4336-29.1006-.5215-.4678-1.043-.9512-1.5488-1.4421-10.2461-9.7603-17.0942-22.4109-21.9136-32.3398-2.2339-4.5869-4.374-9.3276-6.4434-13.9124-2.4907-5.5178-5.0664-11.2236-7.7871-16.6099-1.6006-3.1667-3.2222-6.3049-4.8374-9.4299-12.2817-23.7668-23.8828-46.2156-23.8828-75.0208,0-15.7917,4.5991-27.4004,9.4688-39.6909,1.9058-4.8103,3.8765-9.7842,5.6372-15.1807,1.647-5.0559,3.1646-10.3674,4.7715-15.991,5.0796-17.7761,10.3315-36.1572,20.5322-49.6274,14.8125-19.562,34.5566-30.9949,55.4604-43.0989,1.7837-1.033,3.5762-2.0708,5.3745-3.1189C133.6112,18.801,165.9359,2.9094,202.6815,2.9094c24.0708,0,45.519,8.7803,66.2612,17.2712,2.2378.9163,4.4702,1.8301,6.7002,2.7305l2.4497.9888c24.4263,9.8555,47.498,19.1643,65.8521,37.5188,14.0327,14.04,22.2573,33.032,29.5137,49.7883l.7339,1.6902c1.5923,3.6699,3.2393,7.4648,4.9014,11.1279l2.4033,5.2649c10.7773,23.5691,20.957,45.8311,20.957,73.3918,0,20.7788-7.8594,39.7659-15.4604,58.1277-1.7461,4.2183-3.5513,8.5801-5.186,12.8047-.9575,2.4756-1.897,4.9377-2.8301,7.3828-8.8574,23.2131-17.2231,45.1387-35.0327,62.948-11.6118,11.6121-30.0986,20.2495-46.4097,27.8704-5.0093,2.3406-9.7412,4.5513-14.0879,6.7527-25.3462,12.8213-47.2349,23.8936-80.7656,23.8936Z"/>
        <path class="cls-4" d="M202.6816,5.8184c26.0553,0,49.1124,10.5996,71.8717,19.7905,24.7268,9.9893,48.7858,19.3179,67.3345,37.8667,13.3724,13.3799,21.2203,31.1519,28.9011,48.8877,1.873,4.312,3.7316,8.6245,5.6554,12.8643.2032.4429.3993.8857.6025,1.3213,11.0712,24.3057,22.498,47.6602,22.498,76.1328,0,25.0391-11.9279,47.8564-20.4508,69.8828-9.9822,25.8086-17.9897,50.1069-37.2063,69.3237-14.6938,14.6934-41.0322,24.6035-59.7552,34.0845-26.6797,13.4961-47.5153,23.5796-79.4509,23.5796-25.2495,0-45.7075-9.6118-67.8934-18.2798-22.1859-8.6611-46.0996-16.3711-63.5231-32.0015-.4937-.4424-.9873-.8999-1.4664-1.3647-9.1836-8.748-15.6448-19.8262-21.322-31.522-4.9148-10.0908-9.2416-20.6465-14.2509-30.5635-13.4669-26.6436-28.4075-51.2393-28.4075-83.1392,0-21.3145,8.6899-34.7451,14.9624-53.9688,6.8386-20.9956,11.8116-47.5371,24.8574-64.7646,15.7102-20.7485,37.3878-32.2915,59.9802-45.4604,29.09-16.959,60.9677-32.6694,97.0632-32.6694M202.6816,0c-37.4366,0-70.1831,16.082-99.9937,33.4614-1.7952,1.0464-3.585,2.0825-5.3665,3.1138-21.1647,12.2554-41.1558,23.8306-56.322,43.8608-10.5293,13.9043-15.8578,32.5522-21.011,50.5864-1.5991,5.5962-3.1096,10.8823-4.7401,15.8882-1.7319,5.3081-3.6857,10.2397-5.5752,15.0088-4.9745,12.5557-9.6732,24.415-9.6732,40.7622,0,29.5132,12.3064,53.3271,24.2075,76.3569,1.5892,3.0752,3.2325,6.2554,4.8256,9.4067,2.6914,5.3286,5.2535,11.0044,7.7313,16.4937,2.0781,4.604,4.2269,9.3643,6.4813,13.9932,4.9204,10.1367,11.9291,23.0718,22.52,33.168.5026.4873,1.0463.9932,1.6162,1.5039,15.8901,14.2549,36.4531,22.0825,56.3392,29.6523,2.9495,1.123,5.9994,2.2837,8.951,3.436,2.7325,1.0679,5.4889,2.1699,8.1545,3.2358,18.9873,7.5918,38.6211,15.4424,61.8549,15.4424,34.2256,0,56.4006-11.2173,82.0773-24.2061,4.3074-2.1812,9.0181-4.3818,14.0052-6.7124,16.5291-7.7227,35.2633-16.4756,47.2379-28.4497,18.248-18.2485,26.7216-40.4551,35.6924-63.9658.9318-2.4419,1.8699-4.9004,2.8263-7.3735,1.6223-4.1924,3.3414-8.3452,5.1614-12.7422,7.7094-18.624,15.6812-37.8823,15.6812-59.2393,0-28.1934-10.7874-51.7847-21.2196-74.5991-.6005-1.313-1.2015-2.6279-1.8018-3.9453l-.0112-.0249-.0114-.0244c-.1111-.2378-.2197-.478-.3289-.7197l-.2581-.5674c-1.6389-3.6123-3.2778-7.3892-4.8627-11.0415l-.7441-1.7144c-7.3573-16.9888-15.6993-36.2515-30.1224-50.6826-18.7748-18.7749-42.1138-28.1914-66.8232-38.1606l-2.4471-.9878c-2.2255-.8984-4.4531-1.8105-6.686-2.7246C249.0435,8.8911,227.3251,0,202.6816,0h0Z"/>
      </g>
      <path class="cls-9" d="M399.5449,202.6819c0,25.0389-11.9278,47.8564-20.4508,69.8825-9.9822,25.8085-17.9897,50.107-37.2063,69.3236-14.6938,14.6938-41.0323,24.6035-59.7552,34.0847-26.6797,13.4959-47.5152,23.5797-79.451,23.5797-25.2495,0-45.7076-9.6119-67.8934-18.2801-22.1859-8.6609-46.0996-16.3707-63.523-32.0011-9.9749-8.9513-16.8136-20.5814-22.7884-32.8867,12.8498,7.4485,30.3894,15.9134,53.3593,16.0295,12.8716.0653,18.1349-2.5482,35.7907-1.1397,21.6777,1.735,27.5653,6.7661,46.5932,10.229,11.8334,2.1561,37.7508,6.875,65.0476-2.8386,25.5907-9.1038,40.6112-26.6942,48.8655-36.3642,16.4507-19.2675,27.9357-33.347,35.5149-53.217,4.7915-12.5522-.6752-16.956,7.9494-43.0839,10.2436-31.0501,9.1076-54.274,14.5814-71.4942,3.0781-9.6918-.1894-27.4524,14.6101-22.1423,1.873,4.3123,3.7315,8.6246,5.6553,12.8643,11.2526,24.7776,23.1006,48.4663,23.1006,77.4545Z"/>
      <path class="cls-9" d="M297.2298,61.3441c-2.3005-3.9875-8.4535-4.9262-12.8782-3.5983-4.2317,1.27-9.4854,5.3944-9.0906,11.3631.3849,5.8185,5.8802,9.5009,10.4163,10.0374,1.2003.142,4.3656.304,7.1967-1.7045,2.6707-1.8947,3.5005-4.626,4.1665-6.8179.8265-2.7206,1.9121-6.2938.1893-9.2799Z"/>
      <path class="cls-9" d="M345.5732,104.9612c-3.55-.8965-7.3799.6857-9.6587,3.2196-3.6503,4.0589-3.3227,10.5621,0,14.5827,3.5958,4.3511,9.2447,4.0347,10.0374,3.9771,1.3969-.1015,4.2277-.3072,6.0603-2.462,1.9129-2.2491,1.5586-5.2344,1.3257-7.1966-.1903-1.6036-1.2431-10.4737-7.7648-12.1207Z"/>
      <path class="cls-9" d="M335.108,141.1891c-.5479-2.8993-2.7588-7.2252-6.0603-7.1966-3.1567.0273-5.3265,4.0182-5.871,6.8179-.0836.4297-1.0122,5.6443,2.6514,8.333,1.5369,1.1279,4.0878,1.9624,6.2497.9469,3.2409-1.5223,3.5352-6.2288,3.0302-8.9011Z"/>
      <path class="cls-9" d="M308.714,104.1301c-2.0038-1.5941-5.4728-.6281-6.2497,1.4204-.7415,1.955,1.1318,4.4662,3.2669,5.1134.2676.0811,2.0331.5857,3.2669-.4261,1.6037-1.315,1.5992-4.6095-.2841-6.1077Z"/>
      <path class="cls-9" d="M342.1094,174.8485c-.9169-1.8529-3.1426-3.4448-5.3028-2.8408-2.6704.7467-3.0936,4.2489-3.1249,4.5452-.22,2.0809.6207,5.0663,2.9355,5.7762,2.1978.674,4.1949-1.1723,4.3559-1.3257,1.5697-1.4956,2.1825-4.0409,1.1363-6.155Z"/>
      <path class="cls-1" d="M399.5449,202.6819c0,25.0389-11.9278,47.8564-20.4508,69.8825-9.9822,25.8085-17.9897,50.107-37.2063,69.3236-14.6938,14.6938-41.0323,24.6035-59.7552,34.0847-26.6797,13.4959-47.5152,23.5797-79.451,23.5797-25.2495,0-45.7076-9.6119-67.8934-18.2801-22.1859-8.6609-46.0996-16.3707-63.523-32.0011-.4937-.4428-.9873-.9002-1.4664-1.3648,3.8694,1.2923,7.9204,2.57,12.1529,3.8259,4.8568,1.4374,14.9551,4.3268,30.1063,9.0893,17.9026,5.6263,25.6795-.8472,37.7743,3.0295,32.1027,10.2799,45.4113,16.9333,58.0579,16.2871,16.9878-.8711,28.9488-.2016,42.2342-6.8154,24.4727-12.1965,17.6359-20.7801,44.5043-34.8494,18.948-9.9169,30.0318-7.7074,40.1519-17.9945,10.1927-10.3597,15.4996-23.0134,18.1785-29.54,4.2615-10.3888,5.1617-16.9516,7.3832-26.7015,8.9295-39.1955,10.8518-40.4006,13.8283-68.024,1.2124-11.1655-3.3632-20.862-4.924-39.1712-1.1325-13.2346,9.0346-23.1176,7.8005-30.4936,11.0712,24.3057,22.498,47.6604,22.498,76.1332Z"/>
      <path class="cls-1" d="M361.4816,206.9926c-1.746-1.3778-4.4078-1.3725-6.3917-.2841-2.233,1.225-3.7183,3.883-3.1249,6.5338.7991,3.5698,4.7745,4.4741,5.1134,4.5452.6845.1437,2.2001.4621,3.551-.2841,3.0072-1.6609,4.0692-7.9722.8522-10.5109Z"/>
      <path class="cls-1" d="M366.737,176.4542c-1.6996-1.0716-4.0305-.9061-5.6816.1421-2.8054,1.781-3.3312,5.9092-1.7045,8.2383.9723,1.3922,2.5087,1.8479,2.9828,1.9886.2333.0692,2.9377.8313,4.8294-.5682,2.7243-2.0155,2.7745-7.7827-.4261-9.8007Z"/>
      <path class="cls-1" d="M344.6263,290.3696c-.0945-.2053-1.8309-3.8215-5.6815-4.5452-4.0887-.7685-7.6817,2.2652-9.2799,5.1134-1.8774,3.3457-1.7576,7.7817.5682,10.7949.3703.4797,2.5719,3.3321,5.8709,3.2196,2.533-.0864,4.2107-1.8695,5.3028-3.0302.6184-.6573,5.6825-6.2021,3.2195-11.5525Z"/>
      <path class="cls-1" d="M344.0581,253.4394c-.2845-.097-2.1946-.7142-3.7877.3788-1.8799,1.2898-2.5662,4.4451-.9469,6.2498,1.3832,1.5415,3.7924,1.366,5.3028.5681.185-.0977,2.6306-1.4394,2.462-3.7877-.1714-2.3876-2.8683-3.3538-3.0301-3.409Z"/>
      <path class="cls-1" d="M324.844,313.3151c-.8805-.7953-2.2631-.6006-3.1248,0-.9469.66-1.4722,1.9543-1.0416,3.1249.3556.9668,1.345,1.7995,2.462,1.7044,1.3906-.1184,1.9976-1.5914,2.0832-1.7992.0519-.1258.7836-1.9803-.3788-3.0302Z"/>
      <path class="cls-1" d="M258.3612,360.2528c.4805-3.6656-2.4171-6.0544-2.8408-6.3917-.1354-.1078-3.3215-2.5562-7.102-1.2783-2.9622,1.0012-5.4934,4.0212-5.1134,7.1019.3147,2.5513,2.4915,4.054,3.409,4.6873.8613.5946,3.6611,2.5273,6.9599,1.4203,2.2486-.7545,4.3264-2.7862,4.6873-5.5395Z"/>
      <path class="cls-1" d="M198.7404,356.5652c-1.8326-1.9877-4.7706-1.9493-6.6758-1.2783-2.4243.8538-4.9835,3.3681-4.5452,6.1077.5131,3.2076,4.7433,4.2741,5.2554,4.4032.893.2251,3.3527.8453,5.2554-.5681,2.4215-1.7986,2.9941-6.1871.7102-8.6644Z"/>
      <path class="cls-1" d="M138.7644,345.8595c-2.7452-3.8463-9.0076-7.5793-14.5827-4.9241-3.1119,1.4822-5.8607,4.8839-5.8709,9.0905-.011,4.5434,3.1767,8.2568,6.6285,9.4693,2.7813.977,5.6419-.1694,11.3631-2.462,3.0297-1.2141,3.7384-1.9079,4.1665-2.6514,1.9157-3.3274-1.4733-8.1984-1.7045-8.5223Z"/>
      <path class="cls-1" d="M78.9659,332.9813c-2.133-.3869-4.6369,1.0029-4.6873,2.4146-.0497,1.3916,2.2918,2.6069,4.1191,2.8408,1.4065.18,3.6862-.0706,4.1191-1.2784.4772-1.3315-1.3775-3.5827-3.551-3.977Z"/>
      <path class="cls-1" d="M225.8343,372.4681c-.9936-.8401-2.3855-.7234-3.2669-.1421-1.4608.9635-1.6906,3.3163-.7102,4.2612.6823.6577,1.8064.494,2.2726.4261.505-.0736,1.8475-.269,2.4147-1.4204.4958-1.0065.2055-2.3507-.7102-3.1248Z"/>
      <path class="cls-2" d="M385.7229,161.7769c-3.1734-1.248-9.4275,3.3676-8.9011,8.1435.2945,2.672,2.7363,5.6213,5.6816,5.6816,2.5453.0521,4.2507-2.0782,4.5452-2.462,2.7665-3.6043,1.6329-10.1996-1.3257-11.3631Z"/>
      <path class="cls-2" d="M396.3285,209.2179c-.9125-1.0693-2.3711-1.0473-2.5567-1.0416-2.0463.0624-3.8147,2.0287-3.8824,4.0718-.036,1.0876.3917,2.7455,1.7992,3.4089,1.5929.7508,3.2246-.3454,3.4089-.4734,1.8488-1.2849,2.6105-4.3491,1.231-5.9657Z"/>
      <path class="cls-2" d="M376.9639,236.8208c-2.3744-1.1833-5.0062.5866-5.8236,1.1363-.4918.3307-3.9689,2.6691-3.551,6.2497.192,1.6446,1.2079,3.5718,3.1249,4.4033,2.0887.906,4.068-.0005,4.6873-.2841,2.3041-1.0552,4.0894-3.4956,4.1192-6.2497.0047-.4315-.0093-3.9858-2.5567-5.2554Z"/>
      <path class="cls-2" d="M369.8146,284.4986c-.7018-.9877-2.1055-1.3013-3.1249-.9469-2.0154.7006-2.775,4.0979-1.5151,5.3028.8586.8211,2.6703.6385,3.7877-.284,1.1363-.9382,1.7524-2.805.8523-4.0718Z"/>
      <path class="cls-2" d="M319.5801,333.9755c-3.5758-1.987-7.6047.3255-8.5223.8523-.945.5424-2.8958,1.6989-3.9771,4.1191-.2605.5829-1.6827,3.7662-.142,6.2498,1.8433,2.9714,6.5307,2.689,8.8064,2.1306.7075-.1736,3.0851-.7923,4.9714-2.9829.7357-.8543,2.6486-3.0759,2.1306-5.9657-.505-2.8167-2.9542-4.2295-3.2669-4.4032Z"/>
      <path class="cls-2" d="M279.383,373.3204c1.5119-1.5231,1.9982-4.4505.5682-6.3917-1.4296-1.9406-4.0157-1.866-4.6873-1.8466-2.9502.0852-6.303,2.1646-6.6758,5.1135-.1619,1.2807.2038,2.9964,1.4204,3.9771,1.1466.9242,2.5387.7842,4.6873.5681,2.3532-.2367,3.6408-.3662,4.6873-1.4204Z"/>
      <path class="cls-2" d="M206.8484,382.2215c-1.1695-1.4017-4.2956-1.2699-6.155.284-1.3019,1.0881-2.3804,3.2056-1.6098,4.5452.5515.9588,1.8154,1.111,3.5983,1.3258,1.5008.1808,3.6895.4443,4.5452-.7575.3626-.5093.3364-1.1286.2841-2.3673-.0594-1.4068-.0995-2.355-.6629-3.0302Z"/>
      <path class="cls-2" d="M152.6842,373.4624c-2.229-1.3294-6.1918-3.6929-9.5166-1.8466-2.0928,1.1622-3.8436,3.9428-3.1248,6.1077.6685,2.0134,3.2167,2.7228,5.6816,3.409,1.5624.4349,3.0279.843,4.8293.4261,2.6158-.6053,5.4996-2.8478,5.2554-4.9713-.1557-1.3539-1.527-2.1718-3.1249-3.1248Z"/>
      <path class="cls-9" d="M240.9405,65.9255c-2.1623-1.4267-5.2944-.9698-7.1019.9943-1.9138,2.0795-2.0124,5.4895-.4261,7.1019,1.2728,1.2938,3.3475,1.1431,5.3975.9943,1.5972-.116,2.5323-.1839,3.2669-.8522,1.7906-1.629,1.8079-6.2958-1.1363-8.2383Z"/>
      <path class="cls-5" d="M261.5861,268.7119c-7.96,22.8099-14.0699,40.3099-30.9399,53.5199-41.83,32.77-108.3,6.6201-117.56,2.9701-11.52-4.53-36.05-14.52-54.46-38.65-2.29-2.99-4.31-5.99-6.1-8.9199-7.14-11.67-10.65-22.3201-12.46-27.9501-2.81-8.73-7.4-23.02-6.19-40.44,1.12-16.08,7.78-28.38,21.04-52.33,15.5099-27.99,23.6-42.23,40.22-54.11,6.67-4.76,19.75-13.89,38.98-16.65,22.72-3.25,40.37,4.33,53.84,10.11,16.87,7.24,30,16.87,39.82,26,10.0499,9.35,16.63,18.16,20.2001,23.36,16.0999,23.46,20.4299,45.49,21.6599,52.92,5.1799,31.3501-3.01,55.75-8.05,70.17Z"/>
      <path class="cls-9" d="M344.8536,79.3436c-1.2903-6.6271-10.1229-9.1526-12.326-9.7826-2.5107-.7179-10.1217-2.8942-15.2609,1.5652-3.5781,3.1048-4.0732,7.7907-4.3044,9.9783-.2223,2.1035-.6373,6.0316,1.7609,9.7827,2.6515,4.1471,7.0084,5.3668,8.8044,5.8695,1.3619.3812,4.0903,1.1112,7.4347.3914,4.8927-1.0531,7.7261-4.4822,9.1957-6.2609,2.1616-2.616,5.6191-6.8005,4.6957-11.5435Z"/>
      <path class="cls-9" d="M311.984,174.8218c-.6699-7.8152-7.2125-15.2678-15.2609-15.2609-7.2775.0063-12.536,6.1088-14.4783,11.3478-2.3661,6.3823-.0052,12.0083.3914,12.913.6411,1.4625,3.2087,7.3198,9.3914,9,5.0293,1.3668,9.2893-.8895,10.5652-1.5652,5.218-2.7637,10.0287-8.9985,9.3912-16.4348Z"/>
      <path class="cls-9" d="M286.5493,120.4305c-.6051-5.3135-6.542-8.5659-11.3479-7.8261-5.1412.7913-7.5042,5.9229-7.826,6.6522-.5428,1.2297-1.5342,3.4755-.7826,5.8696,1.2404,3.951,6.5645,6.1923,10.9565,5.4783,4.5347-.7372,9.6036-4.873,9-10.1739Z"/>
      <path class="cls-9" d="M209.984,10.6044c-1.2332-.2645-2.7686.2784-3.2609,1.5652-.4702,1.2291.2575,2.4928,1.0435,3.1304.9285.7533,2.4432,1.0425,3.5217.2609.9537-.6911,1.0367-1.8356,1.0435-1.9565.0761-1.3533-.9461-2.6994-2.3478-3Z"/>
      <path class="cls-9" d="M318.2448,256.8653c3.6002-1.9348,4.5048-7.4974,3.3914-11.4783-1.7336-6.198-8.2303-8.1003-9.1305-8.3478-.9589-.2635-7.7311-2.1249-11.2173,2.0869-2.4344,2.941-1.861,7.1451-.7827,9.6522,1.5695,3.6493,4.8287,5.1456,7.8262,6.5217,3.3882,1.5555,6.9167,3.1754,9.913,1.5652Z"/>
      <path class="cls-9" d="M276.3753,286.5393c2.084.4083,4.2562.8339,5.4783-.3914.9358-.9382.8174-2.3462.5869-5.0869-.2057-2.4465-.3127-3.719-1.3695-4.6957-1.5171-1.4021-3.7408-1.0385-4.1088-.9783-2.4749.4047-3.8083,2.3915-4.3043,3.1305-.4637.691-2.3363,3.481-1.174,5.6738.8219,1.5507,2.6917,1.917,4.8914,2.3479Z"/>
      <path class="cls-9" d="M251.7231,103.5066c.1152-1.1727-.7467-2.5071-2.0543-2.8369-1.5493-.3907-3.1086.7842-3.424,2.25-.2261,1.0509.1781,2.295,1.0762,2.8369,1.5323.9246,4.2172-.368,4.4021-2.25Z"/>
      <path class="cls-9" d="M33.3753,257.9741c1.7547-1.3933,1.8242-3.9543,1.1739-5.674-.8074-2.135-3.073-3.8953-5.0869-3.5217-2.8532.5292-4.8607,5.2781-2.9348,8.0217,1.3898,1.9799,4.7658,2.8271,6.8478,1.174Z"/>
      <path class="cls-9" d="M217.5492,89.3871c.3254-3.3204-3.1653-6.6007-6.7826-6.2609-3.6857.3463-6.5001,4.3567-5.4783,7.5652.8457,2.6556,4.0815,4.0155,6.7826,3.6522,2.5206-.3391,5.2145-2.2648,5.4783-4.9565Z"/>
      <path class="cls-9" d="M281.8536,216.3001c.298-1.8818-.5609-4.1573-2.3479-4.8913-2.385-.9796-5.7104,1.0798-6.0652,3.913-.2777,2.2178,1.275,4.8292,3.7174,5.087,2.4358.2571,4.3577-1.9744,4.6957-4.1087Z"/>
      <path class="cls-9" d="M269.821,156.5284c.5767-.7386.8295-1.8727.3912-2.837-.3562-.7838-1.0281-1.1451-1.2717-1.2717-1.2786-.6644-3.2567-.527-4.3043.7826-.5411.6765-1.0156,1.8928-.4891,2.9348.5291,1.0471,1.7435,1.2746,2.25,1.3695.3013.0565,2.3208.4348,3.424-.9782Z"/>
      <path class="cls-7" d="M14.5927,175.2131c-4.1254,11.4508-5.0359,20.7249-5.4783,25.5653-1.9292,21.1086,3.4799,30.9705,6,34.6957,3.6614,5.4122,6.9199,6.2903,8.3478,6.5217,2.3736.3848,6.1394.2483,8.0869-2.087,2.3867-2.8621.5242-7.1329-.913-14.2174,0-.0001-1.8112-8.9274-1.5652-19.5652.2186-9.4558,3.8313-16.2629,7.8261-23.8696,11.0171-20.9779,14.0372-26.9757,25.8261-49.3043,5.5452-10.5028,7.8994-15.3015,13.4348-21.6521,7.3776-8.464,14.7585-13.2056,19.0435-15.9131,1.5789-.9977,24.7483-15.3177,50.0869-15.6522,1.0018-.0132,6.2331-.0088,16.6957,0,16.0681.0135,15.6085.052,16.6956,0,10.196-.4878,20.5666-.9841,30.7827-6.6521,6.0096-3.3342,4.3798-4.2493,13.3043-9.7826,6.2086-3.8494,12.0891-7.423,20.3478-9,4.7277-.9028,8.696-.8575,15.2609-.7826,9.8849.1127,22.9327.9025,26.2174-1.174,3.9742-2.5123,5.3699-6.4027,4.3044-11.9348-1.0645-5.5266-15.8113-9.5461-21.5217-12.5217-5.9133-3.0813-9.3848-3.2856-16.826-5.4783-9.4996-2.7991-14.6805-5.6595-18.9783-7.4348-17.3831-7.1803-39.9576-4.7188-47.3478-3.913-19.3504,2.1099-40.7481,13.2761-83.5435,35.6086-4.4981,2.3473-12.4644,6.5596-22.3043,13.1088-13.5901,9.0452-22.1739,16.9565-28.1739,25.5911-13.2813,19.113-16.9477,33.7581-17.8696,39.1046-1.5553,9.0204-1.2975,8.7068-3.1304,16.826-3.3499,14.8394-9.0665,18.5298-14.6087,33.913Z"/>
      <path class="cls-3" d="M196.8101,73.2131c1.5928-1.5553,2.2191-4.2797,1.0435-6.2609-1.2507-2.1078-3.8874-2.2728-5.087-2.3478-.7005-.0438-4.8624-.3042-6.1304,2.3478-1.1768,2.4613,1.1564,5.3032,1.3043,5.4783,1.6517,1.9561,3.9379,2.1864,4.3044,2.2174.5378.0455,2.8492.2409,4.5652-1.4348Z"/>
      <path class="cls-3" d="M217.2883,43.7349c.0863-.7807.4522-4.0898-1.7609-6.8478-2.2497-2.8036-6.8389-4.6319-10.5652-2.5435-2.6728,1.498-4.1105,4.5677-3.9131,7.4348.3129,4.5449,4.6052,6.702,5.674,7.2391,1.1001.5529,4.7322,2.3782,7.6304.5869,2.4534-1.5164,2.7996-4.6471,2.9348-5.8696Z"/>
      <path class="cls-3" d="M247.2231,24.6588c-.946-1.295-2.9576-1.5071-4.4021-.8804-1.3553.588-2.6213,2.0921-2.3479,3.6196.2657,1.485,1.8474,2.2147,2.3479,2.4456.507.2339,1.4138.6523,2.3478.3913,1.8916-.5287,3.4167-3.7111,2.0543-5.576Z"/>
      <path class="cls-3" d="M260.1362,40.311c-1.5018-1.9915-4.3256-1.8109-5.9674-1.1739-1.8203.7062-3.9086,2.6407-3.6195,4.9891.28,2.2755,2.5978,3.3605,2.7391,3.424,2.152.9666,4.2484-.1091,4.9891-.4891.6133-.3147,1.3777-.7068,1.9564-1.5652.9685-1.4365,1.0604-3.6489-.0978-5.1848Z"/>
      <path class="cls-3" d="M191.2014,18.6914c-.5811-.5258-1.8991-1.7182-3.9131-1.9565-4.2195-.4994-7.0457,3.7155-7.1739,3.9131-.5038.7769-2.1227,3.2731-1.174,6,.8898,2.5576,3.437,3.5897,3.9131,3.7826,1.1471.4648,2.1339.506,2.6087.5217,2.2994.0759,3.9844-.8464,4.5652-1.1739,1.1258-.6349,3.3205-1.8726,3.913-4.3044.8367-3.4338-2.2334-6.3251-2.7391-6.7826Z"/>
      <path class="cls-3" d="M153.6362,41.1262c-1.3778-.976-4.3919-3.111-7.8261-2.0869-3.6456,1.0872-6.322,5.3042-5.4782,8.8696.6799,2.8731,3.3983,4.2775,5.2173,5.2173,1.116.5766,5.5327,2.8584,9.6522.7827.7407-.3732,2.6939-1.3574,3.3913-3.3913,1.2332-3.5964-2.4423-7.6104-4.9565-9.3914Z"/>
      <path class="cls-3" d="M167.0057,22.898c-.5818-.8797-2.6471-1.0277-3.7174.0978-.6512.6848-1.0129,1.9238-.3913,2.9348.6599,1.0732,2.1125,1.3765,3.0326.8804.9055-.4882,1.0572-1.6223,1.174-2.4946.0854-.6384.1414-1.0567-.0978-1.4185Z"/>
      <path class="cls-3" d="M102.0492,58.9957c-2.9125-1.2926-8.2908-2.0554-10.9565,1.3696-1.4645,1.8817-1.711,4.5144-.9783,6.6522,1.1537,3.366,4.3934,4.5087,5.4783,4.8913.7108.2507,5.173,1.8245,8.6087-.9783,1.7742-1.4474,3.4306-4.1891,2.7391-7.0435-.7385-3.0483-3.704-4.3644-4.8913-4.8914Z"/>
      <path class="cls-3" d="M142.3536,68.4849c-.0406-1.3519-1.4745-2.5444-2.9348-2.7391-2.0753-.2769-3.3904,1.5698-3.5217,1.7609-.6547.9527-1.2586,2.7332-.3913,3.7174.8594.9753,2.6122.5432,3.2283.3913,1.1369-.2803,3.6746-1.2982,3.6196-3.1304Z"/>
      <path class="cls-3" d="M52.9405,120.6914c4.1454-3.8749,6.2181-5.8124,6-8.087-.3434-3.5818-5.1411-5.5079-5.7391-5.7391-.8209-.3175-5.2429-1.9059-8.6087.5218-4.582,3.3049-2.6626,10.775-2.3478,12,.4215,1.6405,1.3239,5.1521,3.6522,5.7391,1.7746.4474,3.5551-1.174,7.0435-4.4348Z"/>
      <path class="cls-3" d="M29.7232,182.648c-.6403-1.9686-2.599-3.8992-4.8261-3.6522-2.6228.2908-4.4922,3.4769-3.7826,6.1304.7867,2.9418,4.5763,4.606,6.913,3.2609,1.8405-1.0594,2.347-3.7365,1.6957-5.7391Z"/>
      <path class="cls-3" d="M18.3753,215.8436c.1887-.6979.5781-2.1384-.1957-3.2609-.9369-1.3591-3.298-1.8442-4.8913-.7174-1.7512,1.2385-1.8392,3.9042-.5869,5.4131.9614,1.1584,2.8029,1.7434,4.1086,1.0435,1.047-.5613,1.3666-1.7435,1.5652-2.4783Z"/>
      <path class="cls-3" d="M47.8536,155.2566c.1851-.405,1.3233-2.8961,0-5.0869-1.4636-2.423-4.6578-2.3591-5.2174-2.3478-.7583.0152-2.5721.1821-4.1739,1.5652-.3784.3267-2.1714,1.9531-2.2174,4.5652-.0093.531-.0422,2.3937,1.3043,3.7826,1.8763,1.9354,4.8394,1.309,5.4783,1.174.5618-.1188,3.5317-.8194,4.8261-3.6522Z"/>
      <path class="cls-4" d="M82.484,58.8001c-4.876,2.4123-10.0992,5.8311-17.4131,12.913-8.7252,8.4485-18.6875,18.0948-24.4565,33.163-2.3199,6.0593-3.9418,12.9434-5.087,17.8044-1.2346,5.2403-2.7155,12.4961-2.25,12.6196.4015.1065,1.9564-5.1708,5.674-15.5544,2.9008-8.1023,4.3511-12.1534,5.1848-13.8913,4.1479-8.6476,9.443-14.504,16.7609-22.5978,2.5051-2.7707,5.2129-5.7656,9.1304-9.3913,14.0521-13.0051,26.3903-18.1344,25.8261-19.3043-.4097-.8495-7.2308,1.2021-13.3696,4.2391Z"/>
      <path class="cls-4" d="M24.1145,160.474c-3.4833,3.4352-5.2301,6.9194-5.7391,7.9565-2.8872,5.8824-4.3945,10.9517-4.663,11.8696-2.8252,9.6545-3.519,17.6981-3.7174,22.5-.229,5.5411.0012,11.6166.4891,11.6413.5208.0263.7302-6.872,2.7391-17.0217.7329-3.7031,2.1978-10.9598,5.2826-19.4674,4.0053-11.0464,8.7202-18.6266,7.8261-19.1739-.3073-.1881-1.081.5749-2.2174,1.6956Z"/>
      <path class="cls-8" d="M175.2883,95.648c-.9977-1.7056-3.5161-4.5324-19.3043-5.4783-12.8463-.7696-21.5922-1.2936-33.3913,2.0869-5.1883,1.4865-18.1445,5.3553-30,16.4348-4.6454,4.3413-7.8795,9.0681-14.3478,18.5217-3.0414,4.4451-15.4039,22.5132-13.3044,24.2609,1.0097.8405,4.6109-2.7206,18.2609-13.3043,10.3943-8.0594,15.6815-12.1343,20.0869-14.3478,3.4066-1.7117,13.0221-6.4244,25.8261-7.0435,10.1889-.4926,11.4574,2.136,23.2174,1.3043,8.4446-.5972,14.7715-1.1374,19.3043-6,3.928-4.2138,6.4649-11.6263,3.6522-16.4348Z"/>
      <path class="cls-8" d="M56.4623,169.3436c-2.3927-.7142-8.3235,11.7307-11.3478,19.9565-2.5566,6.9536-5.1269,16.5782-5.4783,28.5652-.3087,10.5319-.6629,22.6129,7.0435,32.087,1.8357,2.2567,4.9515,5.9835,9,5.8695,5.6757-.1598,10.6719-7.7972,11.7391-14.4783,1.5624-9.7811-5.8325-14.1552-10.5652-25.826-9.1876-22.6568,2.8535-45.2054-.3913-46.174Z"/>
      <path class="cls-6" d="M261.5861,268.7119c-7.96,22.8099-14.0699,40.3099-30.9399,53.5199-41.83,32.77-108.3,6.6201-117.56,2.9701-11.52-4.53-36.05-14.52-54.46-38.65-2.29-2.99-4.31-5.99-6.1-8.9199,4.51.97,10.59,2.49,18.81,4.7999,28.88,8.11,31.65,11.27,45.39,13.2999,16.94,2.51,30.17.28,43.43-1.95,14.87-2.51,29.44-4.96,45.39-14.87,11.27-7.01,18.72-14.92,22.31-18.7899,5.9-6.3501,12.3401-13.2201,17.21-23.8701,6.74-14.6899,6.5901-27.97,6.4001-37.0399-.1101-5.0601-.7201-16.79-7.5701-38.09-5.64-17.53-11.87-30.25-16.12-38.86,10.0499,9.35,16.63,18.16,20.2001,23.36,16.0999,23.46,20.4299,45.49,21.6599,52.92,5.1799,31.3501-3.01,55.75-8.05,70.17Z"/>
    </g>
  </g>
</svg>