<?xml version="1.0" encoding="UTF-8"?>
<svg id="Capa_2" xmlns="http://www.w3.org/2000/svg" viewBox="0 0 825.4709 447.4819">
  <defs>
    <style>
      .cls-1 {
        fill: #70569b;
      }

      .cls-2 {
        fill: #5f488c;
      }

      .cls-3 {
        fill: #9570c2;
      }

      .cls-4 {
        fill: #b29ad8;
      }

      .cls-5 {
        fill: #604593;
      }

      .cls-6 {
        fill: #47327c;
      }

      .cls-7 {
        fill: #a486ce;
      }

      .cls-8 {
        fill: #735aaf;
      }

      .cls-9 {
        fill: #8566b2;
      }
    </style>
  </defs>
  <g id="Capa_1-2" data-name="Capa_1">
    <g>
      <g>
        <path class="cls-3" d="M218.0623,444.8484c-.334,0-.6548-.0042-.9648-.0127-33.2778-.9146-59.793-10.9895-79.1538-18.3459-4.5669-1.7407-7.8936-3.2949-12.8008-5.729l-2.3115-1.1484c-5.0659-2.5208-12.0039-5.9731-23.2295-11.0662-1.1934-.5432-2.4287-1.1028-3.7261-1.6804-2.9482-1.323-7.4224-3.3198-12.6719-5.6628-6.0811-2.7141-13.2031-5.8926-20.1909-9.0222-29.7266-13.3206-32.8999-14.946-37.7295-19.324-12.8936-11.6643-18.2827-25.9338-20.3472-33.4016-4.9302-17.8926-1.0264-32.5891,3.4941-49.606l.1919-.7227c3.3047-12.4739,8.8359-33.3511,24.7026-54.6887,5.4443-7.3245,9.4141-11.0969,12.9165-14.4253,4.2095-4,7.5342-7.1597,12.1016-15.3403,9.5791-17.186,12.4497-34.8625,12.9277-38.2314.8862-6.2688.8003-9.7778.731-12.5974-.0859-3.498-.1538-6.2612,1.4551-11.5632,4.4009-14.501,13.9395-23.7327,22.3555-31.8777,6.3911-6.189,9.9644-8.4902,13.4199-10.7161,2.8159-1.8135,5.4756-3.5264,9.6748-7.4834,9.1631-8.6313,12.1455-15.2134,15.0293-21.5786,2.7661-6.1047,5.6265-12.4172,13.6592-19.7,4.6182-4.178,21.4541-17.8794,44.2949-18.8459.8423-.0361,1.6548-.0527,2.438-.0527,4.7935,0,8.5713.6292,12.2246,1.2378,3.7515.6248,7.2949,1.2148,12.0317,1.2148,1.9336,0,3.9009-.0981,6.0151-.3003,7.0498-.6665,10.1646-1.9912,13.7705-3.5251,3.1631-1.3452,6.7485-2.8701,13.25-4.1204,2.499-.4849,9.2671-1.6147,18.021-1.6147,11.2764,0,27.8159,1.916,42.5747,11.0442,3.8115,2.3586,5.856,4.1609,7.8325,5.9036,2.2759,2.0061,4.4248,3.9009,9.4888,6.5952,6.6729,3.5415,11.5981,4.8013,29.9224,9.4885l.2524.0647c27.7124,7.0996,28.9443,7.4492,31.7046,8.4668,10.2666,3.8015,20.5942,8.967,29.8716,14.9395,6.9941,4.4966,10.2383,7.377,12.8442,9.6912,2.4653,2.1885,4.0933,3.6345,7.8882,5.5522,5.6494,2.8508,9.4419,3.3914,14.4634,3.3914,1.1567,0,2.3525-.0278,3.6201-.0571,1.4722-.0339,3.0381-.0698,4.7456-.0698,3.5601,0,9.1885.1421,16.9341,1.3706,10.1978,1.6226,15.7007,3.7454,21.5269,5.9929,6.354,2.4512,12.9248,4.9858,26.7231,7.291,3.5601.5959,6.083.9224,8.3091,1.21,3.772.4878,6.4976.8401,11.2705,2.1113,10.4326,2.7644,16.6201,7.4446,21.1382,10.8621,3.5142,2.6577,6.0527,4.5781,9.0034,4.5781.4434,0,.8887-.0393,1.3618-.1204,2.3423-.3992,3.2114-1.3123,5.8667-4.4177,2.5591-2.9927,6.4263-7.5156,14.3975-13.7061,4.2466-3.2974,6.6948-4.7744,8.6621-5.9612,2.0767-1.2532,3.4487-2.0808,6.0312-4.5715,8.1299-7.8337,12.0112-16.6948,14.3306-21.9893,2.6748-6.1165,3.3916-9.5703,4.0244-12.6179.6021-2.9021,1.1226-5.4087,3.0513-9.0051,5.4121-10.072,16.8799-18.4556,29.2163-21.3601,3.0664-.7188,5.3481-.8809,7.3608-1.0239,2.8735-.2043,4.9502-.3518,8.3931-2.0378,5.417-2.6497,9.1362-6.6912,12.7329-10.5996,3.2676-3.5557,4.6216-5.6536,5.8159-7.5044.9692-1.5015,1.8843-2.9197,3.5298-4.6479,8.3716-8.762,20.1885-9.6094,33.8711-10.5906,3.9629-.2866,7.7075-.5571,11.4551-.5571,7.4248,0,13.106,1.1084,18.4199,3.594,1.0557.5012,1.9897.9917,2.8682,1.5061,3.3618,1.9714,4.7632,3.5129,6.1182,5.0037.7769.8547,1.5103,1.6616,2.6948,2.5974.8945.7017,1.9731,1.4177,3.29,2.1833,4.5688,2.6523,8.0386,3.5422,11.3936,4.4028,3.835.9834,7.7998,2.0005,12.6099,5.5415,1.9155,1.4077,6.7778,5.3982,10.519,12.0051,5.3872,9.5017,5.1743,18.6792,5.0034,26.0535-.1631,7.032-.3662,15.7834-4.9419,24.8872-3.8975,7.7498-8.5396,10.9722-13.9146,14.7031-4.7676,3.3096-10.1709,7.0605-16.6743,15.1243-3.5693,4.4226-4.9688,7.0325-6.2036,9.3352-1.4512,2.7063-2.7041,5.0435-6.6499,8.6628-10.2632,9.4146-22.6875,12.801-30.9092,15.0417-7.7485,2.1062-12.4634,2.4612-15.9058,2.7205-3.7798.2844-6.0615.4563-10.0913,2.644-4.8418,2.6301-6.6367,5.1499-9.1206,8.6375-2.2651,3.1807-5.084,7.1389-10.9541,12.04-10.6147,8.8669-21.5308,12.7769-28.7539,15.364-5.9463,2.1304-10.2544,3.1013-14.4204,4.04-5.0171,1.1306-9.7554,2.1985-17.1543,5.2405-5.3516,2.198-10.5649,4.8047-15.4961,7.7478-6.7344,4.1235-13.0034,9.0149-18.6069,14.5227-4.0371,3.9705-6.3066,6.8547-8.5015,9.644-.9395,1.1943-1.9111,2.4292-2.9819,3.6929-7.2588,8.5645-13.2568,11.676-20.2021,15.2788-5.0059,2.5972-10.6797,5.5405-17.9414,11.1936-9.8618,7.6824-15.8042,15.0645-26.5923,28.4661-8.1494,10.1248-11.1646,15.3447-13.3662,19.1562-1.9429,3.364-3.4775,6.021-7.2998,9.9265-11.313,11.5559-21.8945,13.3586-34.147,15.4458-10.4863,1.7866-22.3716,3.8115-37.1899,12.9109-5.0317,3.0928-6.5488,4.6143-10.2148,8.2905-4,4.0115-10.6953,10.7251-27.2148,24.5737-19.3989,16.2571-29.1313,24.4136-38.1162,29.6094-10.9556,6.3408-21.0454,10.0945-71.6655,19.4226-39.7803,7.3303-59.7241,11.0051-69.48,11.0051Z"/>
        <path class="cls-4" d="M749.8554,5.2666c5.992,0,11.7122.7305,17.3047,3.3462.884.4194,1.7684.875,2.6526,1.3931,4.9655,2.9116,5.0639,4.6709,8.5114,7.395.9111.7144,2.0629,1.5005,3.5991,2.3936,10.2621,5.957,15.3706,3.6084,23.766,9.7886,1.0448.7681,6.0106,4.5103,9.7885,11.1821,5.0284,8.8682,4.8316,17.3887,4.6621,24.6943-.1607,6.9395-.3572,15.2012-4.6621,23.7661-6.9216,13.7627-16.2547,11.9585-30.2855,29.3564-7.9578,9.8604-5.7873,11.4766-12.5841,17.7104-9.6188,8.8242-21.0061,12.0396-29.8211,14.4419-15.9691,4.3403-18.0232.9556-26.5613,5.5908-10.128,5.5015-8.5472,10.9854-20.5061,20.9707-10.2529,8.5649-20.7471,12.3247-27.9544,14.9058-12.8879,4.6177-17.8713,3.644-31.6878,9.3242-7.0021,2.876-12.4324,5.8857-15.8441,7.9219-4.8138,2.9473-11.8159,7.7437-19.1037,14.9062-5.9392,5.8408-8.1809,9.4224-11.6463,13.5127-12.1196,14.2988-20.3718,12.5664-37.752,26.0972-10.1011,7.8682-16.0404,15.2456-27.0258,28.8921-15.3705,19.0947-12.718,20.9438-20.4969,28.8926-20.4166,20.854-38.7345,8.2432-70.8329,27.9546-11.1017,6.8232-6.3145,6.7427-37.7434,33.0898-19.3001,16.1743-28.9547,24.2661-37.7428,29.3477-10.8784,6.2964-20.9527,9.9229-70.8242,19.1128-39.2471,7.2314-59.4839,10.9614-69.0029,10.9614-.3089,0-.6059-.0039-.8925-.0117-32.8309-.9023-58.9456-10.8247-78.2907-18.1748-4.6621-1.7773-8.0826-3.4028-12.566-5.627-5.5018-2.7241-12.611-6.3501-25.6234-12.2534-1.197-.5449-2.4385-1.1074-3.7425-1.688-6.3499-2.8491-19.836-8.8506-32.8577-14.6831-29.3387-13.1465-32.4558-14.7183-37.0375-18.8711-13.3967-12.1196-18.1749-27.0796-19.5771-32.1523-4.6441-16.853-1.2057-30.5088,3.501-48.2285,3.1795-11.9854,8.5829-33.1611,24.4626-54.5156,11.8962-16.0049,16.6029-14.647,25.2037-30.0532,10.1011-18.1216,12.8787-36.627,13.2361-39.1455,1.9647-13.897-.6878-14.5845,2.0987-23.7661,4.1173-13.5664,13.0663-22.4258,21.6669-30.75,11.5747-11.2085,13.6379-9.2881,23.0693-18.1748,18.4786-17.4067,12.8787-26.9453,28.6513-41.2441,2.4381-2.2061,19.4253-17.1836,42.6372-18.166.8047-.0347,1.5806-.0503,2.3279-.0503,9.2742,0,14.4758,2.4521,24.2553,2.4521,1.8957,0,3.963-.0918,6.2656-.312,13.7005-1.2949,13.6111-5.0547,27.2669-7.6807,1.8233-.354,8.5158-1.5674,17.5239-1.5674,11.6858,0,27.2697,2.041,41.1895,10.6504,8.1544,5.0459,7.8685,7.4756,17.4694,12.584,6.9842,3.7065,11.9053,4.957,30.7589,9.7798,27.7849,7.1182,28.8299,7.4219,31.4468,8.3862,13.459,4.9834,23.7658,11.0835,29.3566,14.6826,13.5039,8.6812,12.6822,11.1909,20.9703,15.3799,6.2484,3.1528,10.5816,3.6743,15.6511,3.6743,2.5029,0,5.1845-.127,8.3666-.127,4.3202,0,9.5605.2339,16.5209,1.3379,20.9348,3.3311,21.4973,8.8149,48.2282,13.2808,9.6011,1.6074,11.9589,1.3037,19.3361,3.2686,18.2866,4.8452,22.4237,15.5288,30.8195,15.5288.5802,0,1.1792-.0508,1.8062-.1582,6.6537-1.1343,5.6444-6.377,21.4348-18.6392,8.7523-6.7969,9.6188-5.6177,14.906-10.7178,8.3418-8.0381,12.3251-16.9155,14.9151-22.8281,5.2961-12.1104,3.2958-14.5576,6.9842-21.4346,5.0102-9.3242,15.8528-17.2998,27.4991-20.0415,7.1986-1.688,9.8333-.0894,16.3083-3.2598,5.7516-2.8135,9.6991-7.0381,13.5127-11.1821,6.0733-6.6089,5.9394-8.5737,9.3152-12.1196,7.6541-8.0112,18.702-8.8149,32.1522-9.7793,3.8774-.2808,7.6221-.5508,11.2662-.5508M749.8554,0c-3.8448,0-7.8108.2866-11.6462.564-14.2235,1.02-26.5102,1.9009-35.5805,11.394-1.8227,1.9146-2.8489,3.5049-3.8414,5.0425-1.1375,1.7627-2.4267,3.7603-5.5436,7.1519-3.4298,3.7271-6.9789,7.5835-11.9489,10.0146-2.9846,1.4614-4.6553,1.5801-7.4232,1.7769-2.0068.1426-4.5046.3198-7.7733,1.0864-13.0425,3.0703-25.1839,11.9712-30.9362,22.6763-2.1111,3.936-2.694,6.7446-3.3112,9.7183-.6064,2.9214-1.2936,6.2329-3.8591,12.0991-2.3845,5.4434-5.9899,13.6738-13.7441,21.146-2.3706,2.2866-3.5732,3.0122-5.5654,4.2139-2.0262,1.2227-4.548,2.7441-8.9164,6.1367-8.1835,6.3545-12.1554,11-14.7838,14.0742-2.5654,3.0005-2.9275,3.2974-4.3056,3.5327-.3287.0562-.6286.083-.9211.083-1.9748,0-3.9006-1.3867-7.4147-4.0449-4.6926-3.5493-11.1192-8.4102-22.0558-11.3081-4.9348-1.3145-7.8785-1.6948-11.6053-2.1768-2.203-.2847-4.7-.6074-8.2102-1.1953-13.5358-2.2612-19.9792-4.7471-26.2103-7.1509-5.9598-2.2988-11.5889-4.4702-22.0599-6.1367-7.9323-1.2578-13.7-1.4033-17.3486-1.4033-1.747,0-3.3026.0361-4.8068.0708-1.2568.0288-2.444.0562-3.5598.0562-4.6151,0-8.098-.4951-13.2782-3.1094-3.4865-1.7622-4.9309-3.0449-7.324-5.1699-2.6746-2.3745-6.0031-5.3301-13.1709-9.9385-9.4337-6.0728-19.9385-11.3267-30.376-15.1914-2.9283-1.0791-3.9989-1.3838-31.9686-8.5488l-.2458-.063c-18.5458-4.7441-22.9522-5.8711-29.3512-9.2671-4.7859-2.5464-6.7291-4.2598-8.9791-6.2432-1.963-1.7305-4.1879-3.6919-8.1879-6.1675-15.2863-9.4541-32.3434-11.4385-43.9611-11.4385-8.984,0-15.9496,1.1636-18.5274,1.6641-6.7678,1.3013-10.4899,2.8843-13.7738,4.2812-3.5448,1.5078-6.3447,2.6987-12.9853,3.3262-2.0361.1948-3.9218.2891-5.7699.2891-4.519,0-7.9578-.5728-11.5984-1.1792-3.7589-.626-7.6456-1.2734-12.6568-1.2734-.8378,0-1.6968.0186-2.5534.0552-23.7209,1.0039-41.1644,15.1968-45.9456,19.5225-8.4417,7.6528-11.4164,14.2183-14.2932,20.5679-2.9064,6.4146-5.6517,12.4736-14.4359,20.748-4.0236,3.7915-6.4667,5.3647-9.2955,7.187-3.3972,2.1875-7.2476,4.6675-13.8262,11.0381-8.2168,7.9526-18.4442,17.8516-23.0429,33.0039-1.7324,5.7085-1.6562,8.8066-1.5681,12.394.0704,2.8643.1502,6.1104-.7058,12.1646-.4661,3.2852-3.2675,20.5371-12.6215,37.3184-4.3701,7.8281-7.5667,10.8657-11.6138,14.7114-3.5795,3.4019-7.6366,7.2573-13.2166,14.7642-16.1692,21.7441-21.7816,42.9277-25.1348,55.585l-.1915.7222c-4.618,17.3857-8.6066,32.4023-3.4878,50.9785,2.1415,7.7471,7.7315,22.5454,21.1213,34.6587,5.3732,4.8701,9.2997,6.7246,38.4173,19.772,7.0316,3.1494,14.1977,6.3477,20.3035,9.0728,5.2009,2.3213,9.6317,4.2988,12.5519,5.6089,1.3039.5806,2.5322,1.1372,3.7162,1.6763,11.1915,5.0771,18.1055,8.5176,23.154,11.0303.8073.4014,1.5754.7837,2.3147,1.1499,4.1055,2.0366,7.9224,3.8823,13.027,5.8281,19.5429,7.4253,46.2996,17.5913,80.0221,18.5186.3329.0088.6782.0137,1.0373.0137,9.9939,0,30.0077-3.688,69.8804-11.0347l.0768-.0142c51.0245-9.4023,61.2773-13.2334,72.5084-19.7339,9.179-5.3076,18.9671-13.5103,38.4673-29.8525,16.6298-13.9409,23.3767-20.7065,27.4078-24.749,3.612-3.6221,4.9634-4.9775,9.7306-7.9072,14.3827-8.8325,25.5007-10.7266,36.2526-12.5581,12.1754-2.0747,23.6758-4.0337,35.586-16.1992,4.0549-4.1431,5.6628-6.9272,7.6985-10.4517,2.1587-3.7378,5.1151-8.856,13.1378-18.8228,11.0122-13.6802,16.5398-20.5464,26.1595-28.0396,7.0701-5.5044,12.6301-8.3887,17.5356-10.9336,6.8929-3.5762,13.4037-6.9536,20.9977-15.9131,1.1026-1.3018,2.0895-2.5562,3.0441-3.769,2.1434-2.7241,4.3598-5.5415,8.2774-9.394,5.4557-5.3618,11.5582-10.1245,18.1368-14.1548,4.8121-2.8701,9.8984-5.4126,15.119-7.5566,7.1945-2.958,11.8275-4.002,16.7326-5.1074,4.2436-.9565,8.6319-1.9453,14.7307-4.1304,7.398-2.6494,18.5791-6.6538,29.5545-15.8223,6.1295-5.1177,9.0578-9.2295,11.4108-12.5332,2.4478-3.437,3.9253-5.5112,8.2326-7.8511,3.5328-1.918,5.3704-2.0562,9.0314-2.332,3.5484-.2671,8.408-.6333,16.3973-2.8047,8.4705-2.3086,21.2658-5.7954,32.0002-15.6431,4.2753-3.9214,5.6916-6.5625,7.1912-9.3594,1.1801-2.2007,2.5177-4.6953,5.9311-8.9243,6.2668-7.771,11.5055-11.4077,16.1274-14.6157,5.434-3.772,10.5667-7.335,14.7648-15.6826,4.8431-9.6353,5.0533-18.7148,5.2222-26.0103.1787-7.6982.4009-17.2788-5.3459-27.4146-3.9896-7.0454-9.1969-11.3179-11.2505-12.8276-5.2193-3.8418-9.436-4.9238-13.5139-5.9697-3.3284-.8535-6.4721-1.6602-10.7276-4.1304-1.2069-.7017-2.1871-1.3511-2.9934-1.9834-.9987-.7891-1.6009-1.4517-2.3634-2.2905-1.4185-1.5605-3.0262-3.3291-6.7338-5.5029-.9465-.5547-1.9462-1.0801-3.0585-1.6079-5.6312-2.6338-11.8389-3.8545-19.5629-3.8545h0Z"/>
      </g>
      <path class="cls-5" d="M360.6221,312.1653c-10.4315,24.7125-27.901,38.6452-37.6895,46.46-12.5573,10.0207-38.8238,27.4633-76.2632,30.6785-12.0303,1.036-47.1477,2.4828-82.4079-18.4071-11.2444-6.6627-32.1343-19.0413-43.8253-43.8342-6.0732-12.8609-13.5485-22.9531-15.3437-45.933-.6609-8.4936-.5717-16.0493.0626-23.0782,1.3397-14.9061,5.0907-27.4276,9.1453-41.4406,8.9312-30.9286,22.7211-51.6758,26.7311-55.5787,18.7376-18.1928,43.2625-22.9531,52.1579-25.945,6.0464-2.0273,37.5198-12.1196,77.1476-2.6258,15.1919,3.635,46.0489,11.0211,68.3769,38.5648,4.1531,5.1176,7.4219,10.2262,10.0923,15.3795,6.4125,12.3429,9.3956,24.9983,12.7001,38.9756,5.6714,24.0784,12.8163,54.364-.8842,86.7842Z"/>
      <path class="cls-7" d="M103.1369,374.0276c-10.1686,11.0922-37.5292-.639-44.7335-3.7278-10.6777-4.5782-24.1041-10.3349-32.6182-24.6966-12.0841-20.3839-5.558-43.4031-3.7277-49.8592,3.4924-12.3186,6.6303-10.4735,17.2409-36.8119,3.2378-8.0372,4.9767-13.2508,9.7855-20.0369,7.3192-10.3288,11.7608-10.2034,18.1731-17.707,8.31-9.724,10.1575-22.9241,13.5132-48.9273,3.2024-24.815.181-22.0261,2.7958-28.8904,7.2854-19.1255,21.449-16.3822,44.2677-43.8016,7.8612-9.4462,16.8837-22.6334,19.5707-26.5605,11.1986-16.3676,10.1252-17.0281,13.9794-20.5028,9.3858-8.4617,22.1922-13.1638,36.614-11.5911,5.3166.5798,25.1521,3.1288,29.3212,2.4993,10.8674-1.6408,19.144-5.9458,34.0162-6.7513,10.6154-.575,16.8445-.4333,24.2306,1.3979,6.6177,1.6407,19.5862,4.856,27.9583,15.6101,5.6204,7.2195,3.6283,10.7191,10.0186,16.7751,6.8512,6.4927,10.7833,4.0266,16.7749,10.0184,8.6658,8.6661,8.2275,21.6123,8.1547,23.7647-.1197,3.5383-.4232,12.5072-6.0578,18.639-2.8329,3.0829-10.5648,9.3137-54.9849,1.6309-29.4622-5.0957-25.7384-7.5102-40.3067-9.0865-37.5305-4.0609-67.7452,9.5816-78.5167,14.4452-12.941,5.8431-22.1114,12.1662-25.1625,14.3287-7.8712,5.5787-14.8079,10.495-20.9688,18.173-6.9807,8.6996-8.2722,15.0957-17.4742,46.1314-9.1902,30.9965-8.8891,27.946-9.4359,31.4533-4.0639,26.0614,5.0617,29.3225,1.0486,55.9168-2.291,15.1815-6.2745,20.8102-2.796,31.1038,3.0655,9.0712,8.1314,10.5363,11.1834,20.9688.713,2.4373,5.3362,18.2403-1.8639,26.0946Z"/>
      <path class="cls-9" d="M820.1397,65.4596c-.1607,6.9395-.3572,15.2008-4.662,23.7658-6.9217,13.7629-16.2547,11.9588-30.2855,29.3567-7.9578,9.86-5.7874,11.4765-12.5841,17.7105-9.6189,8.824-21.0061,12.0392-29.8211,14.4417-15.969,4.3405-18.0233.9556-26.5613,5.5909-10.128,5.5016-8.5472,10.9853-20.5061,20.9704-10.253,8.565-20.7471,12.325-27.9544,14.9061-12.8878,4.6174-17.8713,3.6439-31.6878,9.3241-7.0021,2.8758-12.4323,5.8857-15.8441,7.9219-4.8138,2.9473-11.8159,7.7433-19.1037,14.9061-5.9391,5.841-8.1809,9.4224-11.6463,13.5129-12.1197,14.2988-20.3718,12.5662-37.7521,26.0968-10.101,7.8684-16.0403,15.2455-27.0257,28.8924-15.3705,19.0948-12.718,20.9436-20.497,28.8923-20.4165,20.8543-38.7344,8.2435-70.8329,27.9545-11.1016,6.8234-6.3144,6.7431-37.7433,33.09-19.3001,16.1743-28.9548,24.266-37.7429,29.3478-10.8783,6.2965-20.9527,9.9225-70.8242,19.1127-40.5208,7.4665-60.7766,11.1997-69.8953,10.9496-32.831-.9021-58.9457-10.8246-78.2908-18.1749-10.3868-3.9565-14.5576-7.1628-38.1895-17.8802,8.1362-6.1893,17.5407-11.3515,26.2129-14.4149,11.0656-3.9029,25.2395-3.7422,53.1226-3.2598,44.0843.7591,43.0929,4.3584,62.4377,2.5632,14.0132-1.295,42.575-5.7785,71.0654-23.3014,12.9591-7.9666,22.3011-16.8085,41.0029-34.4832,29.7677-28.1332,32.0094-37.0822,48.2283-41.9318,15.5314-4.6531,18.1661,2.1435,44.0307-3.501,13.5219-2.9473,25.954-5.8231,35.6534-16.0761,7.9308-8.3864,5.314-12.5036,13.9772-21.667,9.6278-10.1815,16.1029-8.4936,29.3569-17.4694,14.7722-10.0118,11.7802-15.5402,27.9544-30.0534,13.0575-11.7177,25.6505-17.6748,37.0465-23.0692,24.0697-11.3872,27.5527-7.0824,43.334-16.7728,18.7644-11.5301,14.7098-18.1481,33.5545-30.0623,17.3532-10.9675,21.8009-5.9928,46.1296-19.5682,14.6649-8.1809,24.0784-16.1475,28.66-20.2648,8.4131-7.5915,16.1119-14.6471,22.3637-26.5613,2.197-4.1887,7.3414-14.2273,8.3865-27.2579,1.0806-13.5754-2.8492-23.3997-6.0464-30.3839.884.4197,1.7684.8752,2.6525,1.3933,6.2786,3.6796,4.778,5.5284,12.1105,9.7886,10.2621,5.9571,15.3705,3.6082,23.7659,9.7885,1.0449.7681,6.0107,4.5102,9.7885,11.1818,5.0284,8.8686,4.8317,17.389,4.662,24.6947Z"/>
      <path class="cls-1" d="M820.1397,65.4596c-.1607,6.9395-.3572,15.2008-4.662,23.7658-6.9217,13.7629-16.2547,11.9588-30.2855,29.3567-7.9578,9.86-5.7874,11.4765-12.5841,17.7105-9.6189,8.824-21.0061,12.0392-29.8211,14.4417-15.969,4.3405-18.0233.9556-26.5613,5.5909-10.128,5.5016-8.5472,10.9853-20.5061,20.9704-10.253,8.565-20.7471,12.325-27.9544,14.9061-12.8878,4.6174-17.8713,3.6439-31.6878,9.3241-7.0021,2.8758-12.4323,5.8857-15.8441,7.9219-4.8138,2.9473-11.8159,7.7433-19.1037,14.9061-5.9391,5.841-8.1809,9.4224-11.6463,13.5129-12.1197,14.2988-20.3718,12.5662-37.7521,26.0968-10.101,7.8684-16.0403,15.2455-27.0257,28.8924-15.3705,19.0948-12.718,20.9436-20.497,28.8923-20.4165,20.8543-38.7344,8.2435-70.8329,27.9545-11.1016,6.8234-6.3144,6.7431-37.7433,33.09-19.3001,16.1743-28.9548,24.266-37.7429,29.3478-10.8783,6.2965-20.9527,9.9225-70.8242,19.1127-40.5208,7.4665-60.7766,11.1997-69.8953,10.9496-32.831-.9021-58.9457-10.8246-78.2908-18.1749-4.662-1.7773-8.0825-3.4028-12.566-5.6266,17.6391-.2055,37.0107.8931,53.712,3.1527,22.194,3.0098,36.2875,7.6004,62.4377,5.5909,16.8979-1.295,29.8839-4.662,54.9893-11.1818,27.2132-7.0645,40.8243-10.5924,51.7203-17.7016,15.5135-10.1279,12.0662-14.4238,36.4571-36.3498,18.6663-16.7638,27.9904-25.1502,42.6374-30.4017,10.021-3.5992,16.88-3.9297,38.4487-11.5391,8.2971-2.9294,15.6117-5.8142,22.0155-12.5751,5.7695-6.0911,7.1002-11.4051,9.7885-17.13,12.2267-26.0522,42.9233-40.0563,48.5765-42.6374,9.4671-4.3138,18.7286-6.7251,27.9546-16.4244,3.903-4.0994,3.3581-4.8317,8.3863-10.4852,2.9294-3.2777,11.575-12.5393,25.1682-20.2648,9.2436-5.2605,16.7728-7.5379,26.5613-10.4852,19.6575-5.9303,21.7741-3.1884,30.4017-8.0381,6.341-3.5725,5.1354-5.0193,22.7119-24.4625,15.8081-17.4872,21.524-21.5599,28.6602-23.7658,3.7687-1.161,7.7611-1.4737,15.7277-2.0988,16.4067-1.2772,22.1851,1.0271,28.6602-3.4921,2.9739-2.081,4.662-5.0014,8.0381-10.8335,6.4125-11.1104,4.5548-15.5938,10.4852-21.667,4.0727-4.1887,5.4747-2.59,11.1818-7.6897,1.9469-1.7416,7.4842-6.8055,10.8334-15.0312.8663-2.1345,6.109-15.0222.6967-26.9096-3.8226-8.4043-9.1813-7.9845-16.7728-17.1211-2.7866-3.3581-5.4034-7.4396-7.4663-11.4587.911.7145,2.0629,1.5004,3.5991,2.3935,10.2621,5.9571,15.3705,3.6082,23.7659,9.7885,1.0449.7681,6.0107,4.5102,9.7885,11.1818,5.0284,8.8686,4.8317,17.389,4.662,24.6947Z"/>
      <path class="cls-3" d="M48.5597,339.0213c-.6515-3.5763-3.8274-7.1631-8.0381-6.9896-3.8873.1602-6.8074,3.4491-7.339,6.8149-.5388,3.4109,1.5226,5.9694,1.9221,6.4654.1694.2103,3.5788,4.3133,7.8634,3.3201,3.908-.906,6.3334-5.5392,5.5916-9.6107Z"/>
      <path class="cls-3" d="M89.9732,350.2047c-.5421-1.7768-1.3368-4.3817-3.8444-5.5917-2.6663-1.2866-5.8035-.2887-7.6885,1.2232-3.1161,2.4995-3.7973,7.1956-2.0969,10.6592,1.8137,3.6947,5.6648,4.6177,6.116,4.718.8691.1931,3.8936.8653,6.116-.8737,3.6246-2.8364,1.6334-9.3627,1.3979-10.1349Z"/>
      <path class="cls-3" d="M57.4715,293.4141c3.0243-1.2803,5.6206-2.3794,6.5237-4.8927,1.4642-4.0748-2.5747-8.9403-5.8247-11.1834-1.2126-.8368-4.3127-2.9765-8.3876-2.3298-4.0188.6378-7.6358,3.772-8.6207,7.9216-.1313.5531-.9766,4.3905,1.3981,7.9216.3478.5171,1.6844,2.3954,4.1937,3.4948,4.185,1.8335,8.3586.0666,10.7174-.932Z"/>
      <path class="cls-3" d="M84.4981,320.6736c.1082-.2711.6919-1.8231-.1167-3.2619-1.0924-1.9443-3.7127-1.8763-4.1937-1.8639-.6936.018-2.3244.0603-3.2618,1.2814-1.0839,1.4118-.5704,3.5256.3493,4.7762.2682.3648,1.2483,1.5771,2.9124,1.7474,1.8643.1908,3.6497-1.0218,4.3103-2.6794Z"/>
      <path class="cls-3" d="M84.0319,242.3899c-.4555-3.7887-4.4346-7.0489-8.6205-7.6885-3.5792-.5469-7.4415.8021-9.7855,3.7278-3.5376,4.4153-2.3595,10.8512.9319,14.4452,2.2768,2.4862,6.481,4.6123,9.7855,3.2619,1.8338-.7494,2.8534-2.5965,4.8927-6.2907,2.0213-3.6614,3.0319-5.4921,2.7958-7.4556Z"/>
      <path class="cls-3" d="M100.3411,189.0359c1.153-1.5283,1.0907-3.8407-.2331-5.3587-1.4827-1.7004-4.2264-2.0355-6.0575-.466-1.8532,1.5885-1.9053,4.3851-.466,6.0576,1.7465,2.0296,5.1976,1.8332,6.7566-.233Z"/>
      <path class="cls-3" d="M109.1947,137.8953c-1.097-1.3344-3.2611-1.1629-6.1742-.932-2.6235.208-5.0816.4028-7.4557,2.2134-.7989.6092-4.1671,3.1781-3.9608,7.2226.0105.2044.2717,4.0727,3.4948,5.9412,2.1678,1.2567,4.3768.856,5.2423.6989,2.8634-.5194,4.5921-2.3386,5.3587-3.1453,1.5019-1.5805,2.1362-3.1554,2.6794-4.5433.9871-2.5224,2.2396-5.7234.8155-7.4556Z"/>
      <path class="cls-3" d="M160.4519,121.9356c.0983-2.4473-1.2047-5.0235-3.4948-6.2907-3.2314-1.788-6.6295.0252-7.4557.466-3.8431,2.0505-7.0629,7.327-5.1256,10.9504,1.2906,2.4138,4.4222,3.2569,6.5235,3.2618,3.0474.0071,5.1016-1.7465,6.0578-2.5629,1.2714-1.0854,3.3764-2.8826,3.4948-5.8247Z"/>
      <path class="cls-3" d="M156.0251,76.0372c-1.6894-.813-3.731-.1291-4.7763,1.2814-.8436,1.1383-1.1868,2.9501-.2331,4.3103,1.0841,1.5461,3.2365,1.6418,4.6599,1.0484.1919-.08,2.2989-1.0007,2.4463-3.1453.1062-1.5462-.863-2.9011-2.0967-3.4948Z"/>
      <path class="cls-3" d="M195.6912,50.8746c-.3205-.174-4.908-2.5691-8.5625.1747-.2017.1515-3.2271,2.5067-2.7958,6.2907.309,2.7117,2.2348,4.7656,4.3686,5.5917,2.7986,1.0835,5.3109-.1945,6.9897-1.0484,1.6434-.836,3.907-1.9874,4.3683-4.1938.5929-2.8347-2.1637-5.6175-4.3683-6.8149Z"/>
      <path class="cls-3" d="M214.6213,106.675c.1433-.35,1.3739-3.4922-.3495-5.9412-1.3717-1.9494-3.7332-2.2063-5.9411-2.4464-2.3728-.258-5.7695-.6274-8.1545,1.7474-1.8237,1.8158-2.8893,5.0703-1.631,7.3391.9029,1.628,2.6628,2.1352,5.3587,2.9123,2.2727.6551,4.0432,1.1654,6.1742.466.6718-.2205,3.3716-1.2152,4.5432-4.0773Z"/>
      <path class="cls-3" d="M224.8727,77.3186c-.7909-1.6053-3.4741-2.0821-5.2423-1.0484-1.1338.6629-2.3433,2.2112-1.8639,3.8443.4758,1.6207,2.32,2.3205,3.7277,2.2134,1.9424-.1478,2.939-1.8234,3.0289-1.9804.1278-.2233.9897-1.7295.3495-3.0288Z"/>
      <path class="cls-3" d="M259.1219,46.3314c-1.8019-3.6563-9.8415-3.7251-15.2024-1.0484-1.7302.8639-4.9854,2.4892-5.4171,5.5917-.435,3.126,2.2485,5.9427,4.5434,7.1643,3.5112,1.8691,7.112.5366,8.5622,0,1.0231-.3786,4.734-1.8179,6.6402-5.7664.6428-1.3316,1.8813-3.8968.8737-5.9412Z"/>
      <path class="cls-3" d="M304.03,109.9368c1.5845-3.6535-.2002-7.2261-.3495-7.5138-2.7991-5.3885-10.2593-5.4128-11.5327-5.4169-1.4149-.0046-9.5864-.0312-11.7078,5.4169-1.7476,4.4885,1.7398,9.7949,5.5918,12.0571,3.8265,2.2472,7.8409,1.3893,9.4359,1.0484,2.0309-.434,6.7638-1.4455,8.5622-5.5917Z"/>
      <path class="cls-3" d="M303.8553,67.9992c-1.4153-1.871-4.3243-2.2353-5.9413-.8737-1.9511,1.6429-1.5843,5.4307.6991,6.8149,1.5361.9312,3.9128.758,5.2423-.8737,1.2453-1.5283,1.0438-3.6877,0-5.0674Z"/>
      <path class="cls-3" d="M338.978,88.968c-1.5564-1.2236-3.7809-1.1033-5.242-.3495-2.9835,1.5391-4.3642,6.5343-1.9223,9.2612,1.5963,1.7826,4.6869,2.4403,6.815,1.0484,2.4831-1.624,2.1748-5.0695,2.0967-5.9412-.089-.9954-.2547-2.8453-1.7474-4.019Z"/>
      <path class="cls-6" d="M360.6221,312.1653c-10.4315,24.7125-27.901,38.6452-37.6895,46.46-12.5573,10.0207-38.8238,27.4633-76.2632,30.6785-12.0303,1.036-47.1477,2.4828-82.4079-18.4071-11.2444-6.6627-32.1343-19.0413-43.8253-43.8342-6.0732-12.8609-13.5485-22.9531-15.3437-45.933-.6609-8.4936-.5717-16.0493.0626-23.0782,3.2062,3.0456,2.3927,20.9006,11.0291,30.055,12.6375,13.3968,13.5099,23.6408,20.5029,28.6065,5.7695,4.1084,13.1668,13.2985,32.8512,21.4348,27.6509,11.4498,29.8228-.4652,51.9561-1.6309,12.0417-.6342,33.7578,4.005,55.9161-5.8282,8.4489-3.7422,17.7461-12.7448,36.3498-30.75,15.7279-15.2276,20.1309-21.9349,22.3637-25.6325,3.751-6.2072,8.7883-16.2637,12.1197-32.6166,4.8943-24.1142,2.206-42.9589.5626-55.2839,6.4125,12.3429,9.3956,24.9983,12.7001,38.9756,5.6714,24.0784,12.8163,54.364-.8842,86.7842Z"/>
      <path class="cls-8" d="M154.8601,155.4858c-11.9071,8.0956-17.3454,18.3477-25.1625,33.0842-6.6611,12.5569-9.2397,21.1035-13.9794,36.8119-3.4715,11.5054-4.4272,17.3211-2.3298,23.7647.6838,2.1009,4.2253,12.0514,12.5813,14.4452,10.0853,2.8892,20.2436-7.2185,24.6968-11.6493,13.4327-13.3657,16.802-30.9205,17.7069-37.2779,2.6128-18.3545-3.7724-24.4568,2.796-34.9481,8.2339-13.1515,11.1834-16.775,11.1834-16.7751,2.9733-3.6528,5.6965-6.4816,4.8927-9.3195-.9472-3.344-6.1812-4.5464-7.6887-4.8927-2.027-.4657-11.3859-2.2934-24.6966,6.7566Z"/>
      <path class="cls-8" d="M258.5975,134.4004c-1.2782-1.0335-4.5927-3.3198-14.3287-3.1453-7.9306.1421-7.6957,1.6944-19.2214,2.9706-4.645.5143-8.4569.6801-13.9792,2.4464-5.3018,1.6958-6.919,3.1842-7.8634,4.718-1.6576,2.6924-2.0385,6.8193,0,9.436,2.1521,2.7624,6.1203,2.7116,9.4359,2.6211,8.5956-.2347,10.1934-3.9232,20.6195-6.2906,6.6024-1.4992,10.1071-2.295,14.8529-1.3979,4.478.8465,7.6279,2.7402,11.0087,1.0484.2082-.1042,3.1335-1.6221,3.6695-4.5433.7145-3.8946-3.3825-7.2074-4.1939-7.8633Z"/>
      <path class="cls-9" d="M386.9152,83.0268c-.7749-.5319-5.3663-3.6838-9.7855-1.8639-5.5015,2.2657-5.7815,10.1967-5.8247,11.4163-.0645,1.8291-.2394,6.777,3.0289,9.5525,4.7719,4.0524,15.3714,2.1891,18.1728-4.6597,2.2243-5.4377-1.4544-11.6052-5.5916-14.4452Z"/>
      <path class="cls-9" d="M449.9382,148.7292c-.6742-.86-5.5746-6.9177-12.232-5.9412-6.6705.9785-11.0464,8.4232-10.8338,15.0277.1559,4.8445,2.8407,11.0989,9.0866,13.2803,5.79,2.0221,12.4049-.2365,15.7266-5.2422,4.0816-6.1509,1.1696-13.4036-1.7474-17.1246Z"/>
      <path class="cls-9" d="M474.5765,117.4507c-.6916-2.4546-4.4047-4.205-7.1643-2.7958-1.6881.862-2.9558,2.8738-2.6211,5.0674.3249,2.1283,2.052,3.7311,3.8444,4.019,3.2846.5275,6.7658-3.364,5.9411-6.2906Z"/>
      <path class="cls-9" d="M423.0282,227.8865c.7941-2.6432-.3984-6.1157-2.9707-7.3391-3.3346-1.5858-6.8981,1.6015-8.0381,2.6211-.7411.663-4.0949,3.6625-3.1453,6.2907.8044,2.2266,4.1581,2.6936,4.8927,2.7958,2.9973.4173,8.0945-.4854,9.2613-4.3685Z"/>
      <path class="cls-9" d="M381.5565,171.0959c-2.8512-1.9614-7.1654-1.58-9.5526.9319-3.3631,3.5388-1.8255,10.1738,2.33,12.3483,2.3693,1.2398,5.5661,1.0173,7.6885-.699,3.6154-2.9236,3.6113-9.7764-.466-12.5813Z"/>
      <path class="cls-9" d="M406.4862,270.5814c-1.6534-6.5555-9.9754-10.6317-15.8432-7.4556-4.7074,2.5479-6.7592,9.1808-4.1937,14.4452,2.4559,5.0392,8.6695,7.8538,13.9792,5.5917,4.9922-2.1269,7.2356-7.9109,6.0578-12.5813Z"/>
      <path class="cls-9" d="M494.5552,220.2562c-2.0512-3.297-6.3693-3.5014-9.0866-2.5629-3.6985,1.2774-6.6236,5.4299-5.5916,8.6205.8262,2.5544,3.8856,3.5552,5.1256,3.9608,1.2045.394,4.6446,1.5193,7.4557-.466,2.7415-1.9362,4.1239-6.2941,2.0969-9.5525Z"/>
      <path class="cls-9" d="M137.3278,360.8638c-.742-2.3828-3.6093-3.5781-5.9411-2.7958-2.4748.8302-3.9905,3.7684-2.9707,6.1159.8654,1.9922,3.2668,2.8905,5.2423,2.4464,2.4561-.5521,4.4608-3.2255,3.6695-5.7664Z"/>
      <path class="cls-9" d="M544.9969,156.4177c-6.4147-3.4929-13.0396,1.684-13.9794,2.4464-.384.3116-7.3178,6.0965-5.242,12.2318,1.7625,5.2093,8.7075,6.791,13.2801,6.2906.5785-.0633,9.8164-1.2238,11.5329-8.737,1.0926-4.7828-1.3671-9.9316-5.5916-12.2318Z"/>
      <path class="cls-9" d="M515.7569,122.4016c-3.1863-.8729-7.0339,2.5421-6.5235,5.8247.3859,2.4819,3.2085,4.5349,5.9703,4.0773,1.7008-.2818,3.2358-1.492,3.8442-3.1453,1.0058-2.7333-.7481-6.06-3.291-6.7566Z"/>
      <path class="cls-9" d="M667.4315,74.6393c-3.7992-1.9253-8.4735.8617-10.7174,3.0288-2.6089,2.5196-5.406,7.5556-3.2618,11.8823,2.1355,4.3095,7.6408,4.823,8.3874,4.8927,1.2204.1138,4.6455.4334,7.2228-1.8639,2.8717-2.5597,2.6676-6.5649,2.5627-8.6205-.104-2.0422-.3763-7.3851-4.1937-9.3195Z"/>
      <path class="cls-9" d="M724.2803,62.9899c-.4559-.0816-6.8048-1.1108-10.4843,3.4948-3.4211,4.2823-2.4646,10.8452,1.1648,14.2122,2.7672,2.5672,6.3198,2.5637,7.2228,2.5629.8408-.0008,6.3532.0354,9.3193-4.4267,2.53-3.806,1.8761-8.8782-.6988-12.1153-2.327-2.9252-5.5935-3.5613-6.5237-3.7278Z"/>
      <path class="cls-9" d="M716.7664,15.9266c-2.7581-.5227-6.2612,2.8756-5.5916,5.7664.5,2.1586,3.1928,3.4563,5.4169,3.3201.4564-.0279,2.2206-.136,3.1453-1.3979,1.6351-2.2313-.0406-7.1333-2.9707-7.6886Z"/>
      <path class="cls-9" d="M634.4638,145.2343c-.6275-3.5314-3.1379-9.4303-8.0381-10.1349-4.6431-.6676-8.2964,3.7793-9.7855,5.5917-2.3732,2.8888-6.2721,9.5014-3.4948,13.6297,2.2001,3.2704,7.3876,3.1952,10.8341,3.1453,3.0114-.0436,5.812-.0842,8.0381-2.0969,3.6592-3.3085,2.6285-9.1089,2.4463-10.1349Z"/>
      <path class="cls-9" d="M461.1215,266.1546c.4527-3.6213-3.0729-6.3261-3.4948-6.6401-2.5455-1.8944-6.7586-2.8532-9.7855-.6989-4.0799,2.9037-3.9172,9.9771-.6988,12.5813,1.8623,1.5069,4.3561,1.2003,5.5916,1.0485,3.0234-.3717,7.8924-2.329,8.3876-6.2907Z"/>
      <path class="cls-1" d="M178.3918,394.414c-3.1301-.7612-7.733-.3547-10.135,2.7958-3.5193,4.6161-.4771,12.7139,4.5432,15.0277,2.649,1.2209,5.312.5837,6.2906.3495,2.8608-.6846,7.2127-2.9207,8.0381-6.9896,1.005-4.9552-3.7589-9.9728-8.7369-11.1834Z"/>
      <path class="cls-1" d="M235.9396,405.9468c-1.9888-1.3969-4.1108-2.8871-6.7566-2.5628-3.47.4254-6.7363,3.8367-6.9897,7.9215-.2233,3.6008,1.9362,7.0567,5.1256,8.3876,3.0533,1.2742,5.8942.118,6.7566-.233,3.2993-1.3428,6.8695-4.8725,6.2908-8.3876-.3755-2.2804-2.351-3.6679-4.4268-5.1257Z"/>
      <path class="cls-1" d="M253.967,393.2781c-1.075-.7246-2.4395-.1635-3.1455.4369-.6781.5767-1.4334,1.772-.9609,2.7085.4954.9819,1.979.9636,2.1842.9611,1.0484-.0129,2.6501-.5787,2.8832-1.9221.143-.8241-.2678-1.7169-.9609-2.1843Z"/>
      <path class="cls-1" d="M299.3121,405.0731c-.4753-3.3774-4.1409-5.6244-7.3392-5.9412-.2006-.0198-4.8323-.4009-7.5139,3.1454-2.5141,3.325-2.1403,8.5506.6991,10.8339,1.9334,1.5548,4.4728,1.3131,5.4169,1.2232,3.1647-.3012,5.1564-2.1975,5.7664-2.7958.8968-.8795,3.41-3.3444,2.9707-6.4654Z"/>
      <path class="cls-1" d="M308.7481,375.7168c-.3938.0555-3.3368.4708-4.019,2.4464-.7104,2.0574,1.4295,4.6545,3.6695,5.5917,2.1866.9149,4.2035.1372,4.5432,0,1.4389-.581,3.5219-2.0738,3.4948-3.8443-.0384-2.4989-4.2667-4.6765-7.6885-4.1937Z"/>
      <path class="cls-1" d="M349.2876,360.6891c-.1406-.1853-2.1905-2.7979-5.4169-2.7958-4.3784.0027-8.3551,4.8183-7.5137,8.5623.587,2.6123,3.3699,4.0363,4.019,4.3685.7985.4086,2.5136,1.2555,4.7179.8737.3378-.0585,3.3677-.6361,4.8927-3.4948,1.3303-2.4936.8495-5.4745-.6991-7.5138Z"/>
      <path class="cls-1" d="M385.6338,318.2272c-4.3561-1.8092-9.1224.6493-11.5329,3.8443-2.397,3.1771-3.1905,8.045-.6991,11.8824,2.0898,3.2186,6.191,5.2513,9.9603,4.3685,3.538-.8286,5.408-3.9037,6.1158-5.0675.5421-.8913,1.7169-2.8776,1.7474-5.5917.036-3.188-1.5028-7.7376-5.5916-9.4359Z"/>
      <path class="cls-1" d="M426.5228,324.6926c-.1535-1.7087-1.6127-3.0496-3.2325-3.2327-1.9733-.223-3.9894,1.2944-4.1065,3.2327-.1003,1.6578,1.2259,3.0027,2.5337,3.4948.3351.1261,1.8353.635,3.2328-.2621,1.1075-.711,1.6829-2.0047,1.5725-3.2327Z"/>
      <path class="cls-1" d="M430.1051,294.2878c-2.0612-1.4018-5.299-.056-5.9411,2.1843-.4448,1.5523.442,3.2357,1.5725,4.1064.2569.1978.9697.7316,2.0095.7863,1.4245.075,2.7531-.7864,3.4074-1.9222.9633-1.6719.5429-4.0725-1.0484-5.1548Z"/>
      <path class="cls-1" d="M477.5472,303.4325c.0709-.8091.4086-4.6666-2.33-6.7566-2.6096-1.9916-6.406-1.152-8.6205.466-3.63,2.6522-4.9732,8.8303-1.8639,12.1153,1.9009,2.0082,5.0994,2.5483,7.6885,1.6309,4.524-1.6029,5.0779-6.9085,5.1258-7.4556Z"/>
      <path class="cls-1" d="M510.8642,244.7198c-2.9622-.508-5.7723,1.5656-6.5235,4.1938-1.0024,3.5063,1.7886,7.5505,5.3587,7.6886,2.7317.1056,5.3088-2.0989,5.8247-4.8927.568-3.0759-1.4413-6.4376-4.6599-6.9896Z"/>
      <path class="cls-1" d="M549.6565,238.4292c-.2202-1.6323-2.2714-2.504-3.7277-2.5629-2.1401-.0866-4.4634,1.5224-4.4268,3.1453.0231,1.0266.9843,1.7748,1.3979,2.0969.1705.1328,1.6997,1.2833,3.6113.8154,1.5514-.3797,3.3699-1.8289,3.1453-3.4948Z"/>
      <path class="cls-1" d="M580.7604,188.5699c-2.7245-.63-5.2139,1.4361-6.2906,2.3299-1.1757.9759-4.0722,3.3801-3.7279,6.9896.2972,3.1159,2.8828,5.7993,5.8247,6.2906,2.475.4134,4.4795-.8457,5.3587-1.3979.6674-.4192,2.6573-1.669,3.4948-3.9608,1.4103-3.8585-.9154-9.3855-4.6596-10.2514Z"/>
      <path class="cls-1" d="M628.7556,183.2112c-.5994-3.5264-5.4985-5.8008-9.3195-4.6598-4.212,1.2578-6.8783,6.5955-5.1256,9.7855,1.5773,2.8709,6.3408,3.2866,9.5524,1.8639,2.506-1.11,5.4119-3.9349,4.8927-6.9896Z"/>
      <path class="cls-1" d="M733.1338,109.8203c-2.9598-.6599-6.5573,1.0101-7.4557,4.1938-.9677,3.4294,1.687,6.8764,4.8927,7.6886,2.7234.69,5.9998-.482,7.2226-3.0288,1.6066-3.3464-.8434-8.0026-4.6596-8.8535Z"/>
      <path class="cls-1" d="M792.7786,74.1733c-.6088-3.2522-5.1245-5.3409-8.8535-4.6597-3.1826.5813-6.2767,3.2686-6.5237,6.7566-.1618,2.2831.8752,5.2088,3.2618,6.2907,2.1796.9879,4.4152-.0467,5.8249-.699.4507-.2086,7.0972-3.3798,6.2906-7.6886Z"/>
      <path class="cls-1" d="M760.7428,121.0037c1.0948-.5158,1.9166-1.7805,1.631-3.0288-.3388-1.4805-2.0038-1.9277-2.2134-1.9804-.1932-.0486-2.0089-.4737-3.0289.8154-.7662.9684-.6428,2.3472,0,3.2618.8004,1.1389,2.3758,1.514,3.6113.9319Z"/>
      <path class="cls-1" d="M689.5652,127.1779c-1.1648-.7642-2.8494-.8012-4.019.1747-.882.7359-1.4029,1.9906-1.1066,3.1453.5192,2.0239,3.1905,2.3446,3.5531,2.3881.5368.0645,1.2906.1549,1.9803-.2912,1.2716-.8226,1.1223-2.6905,1.1068-2.8541-.0181-.1912-.1856-1.6911-1.5145-2.5629Z"/>
      <path class="cls-1" d="M659.9759,158.6311c.2324-1.5963-.498-3.5048-2.0967-4.1938-1.387-.5978-2.7384.0194-3.1455.233-1.3757.7218-2.6632,2.4479-2.2132,4.4268.4034,1.7739,2.0695,3.162,3.9606,3.0288,1.9851-.1398,3.2609-1.8887,3.4948-3.4948Z"/>
      <path class="cls-2" d="M197.7297,429.129c-1.1101-2.4129-4.135-2.7448-6.0575-2.0969-2.011.6777-3.8928,2.7902-3.4948,4.7762.3755,1.8736,2.5985,2.7288,3.3782,3.0288.8059.3101,2.3346.8981,3.8444.233,1.9417-.8554,3.4118-3.5896,2.3298-5.9412Z"/>
      <path class="cls-2" d="M290.9245,421.8482c-1.5111-2.044-5.6797-2.0418-7.3392.3495-1.5904,2.2917-.2998,5.947,1.9223,6.8149,1.4509.5666,2.8937-.2134,3.1453-.3495,2.3034-1.2454,3.7674-4.7917,2.2716-6.8149Z"/>
      <path class="cls-2" d="M341.5991,415.0333c.0235-.246.1513-1.5846-.8155-2.4464-.9915-.8838-2.7474-.9211-3.7277.1165-1.1389,1.2055-.5676,3.1597.466,4.0773.578.5132,1.6661,1.0266,2.6794.5825,1.2267-.5378,1.3715-2.0528,1.3979-2.3299Z"/>
      <path class="cls-2" d="M392.9727,368.7271c-1.4893-2.2126-4.3925-3.0048-6.6402-2.6211-3.9918.6815-5.7492,5.0438-6.8148,7.6885-.9082,2.2542-2.1842,5.4214-.6988,7.1644,1.8593,2.1817,6.675.5237,7.6885.1747,1.2627-.4348,4.0166-1.3828,5.7664-4.1937.5246-.8428,2.8909-4.9561.6988-8.2128Z"/>
      <path class="cls-2" d="M435.1435,334.6528c-2.3148-2.369-8.0679-.639-8.8535,2.3299-.4258,1.6093.6803,3.31,1.631,4.1937,1.6018,1.489,4.4551,2.2321,6.5235.699,2.404-1.7817,2.3113-5.5725.6991-7.2226Z"/>
      <path class="cls-2" d="M482.3525,330.1969c.1308-.1031,1.5968-1.2974,1.3979-3.0579-.1123-.9929-.6956-1.6486-.8737-1.8348-1.1897-1.2431-3.8276-1.9439-5.4169-.3495-1.2553,1.2593-1.3011,3.3932-.2621,4.718.984,1.2549,2.5671,1.3067,2.7958,1.3106.3085.0052,1.3807-.0154,2.359-.7863Z"/>
      <path class="cls-2" d="M521.3487,283.7451c-1.1031-3.1535-4.9063-4.7505-8.0381-4.0773-4.3832.9422-5.5408,5.9202-5.7082,6.6402-.2385,1.0256-.9404,4.0439.8155,5.8247,1.6282,1.6512,4.3437,1.1983,5.9411.9319,1.1522-.1922,3.2779-.5466,5.0092-2.3299.2039-.21,3.228-3.4238,1.9805-6.9896Z"/>
      <path class="cls-2" d="M553.5591,247.8069c-1.1803-.8432-2.984-.4113-4.019.5242-1.4742,1.3325-1.7989,4.0573-.3495,5.2422,1.2032.9837,3.2463.5935,4.3686-.5242,1.4289-1.4233,1.5054-4.1668,0-5.2422Z"/>
      <path class="cls-2" d="M580.2944,240.7299c.4651-.9163.1221-2.1408-.6116-2.5338-1.0479-.5614-2.9166.5615-2.8832,1.8347.0225.8534.8994,1.7793,1.9221,1.7474.7158-.0223,1.2982-.5075,1.5728-1.0484Z"/>
      <path class="cls-2" d="M626.3093,196.2585c-1.2961-1.1541-4.0225-.3635-5.2423,1.2815-1.2012,1.6196-1.0747,4.2469,0,4.8927.2859.1718.6216.1557,1.2815.1165.9461-.0562,2.2339-.1327,3.1453-.8155,1.5603-1.1689,2.1946-4.2472.8155-5.4752Z"/>
      <path class="cls-2" d="M667.9267,188.4826c.2412-.8557-.2856-1.8825-1.136-2.2716-1.1208-.5128-2.5965.1763-2.883,1.3106-.191.7561.1757,1.5939.7863,2.0095,1.0654.7252,2.888.1746,3.2328-1.0484Z"/>
      <path class="cls-2" d="M716.7082,140.6911c-.3382-.148-3.3773-1.4199-6.0575.233-2.7864,1.7184-2.8728,5.1722-2.9124,6.7566-.0312,1.2453-.0687,2.7459.9319,3.6113.9291.8035,2.252.6259,4.3103.3495,1.0268-.1379,2.5128-.3518,4.1937-1.2814,1.3719-.7588,2.4879-1.376,3.0289-2.6794.9984-2.4055-.8877-4.9181-1.0484-5.1257-.1526-.1971-.9592-1.2132-2.4465-1.8639Z"/>
      <path class="cls-2" d="M750.4914,139.3514c-.4679-.6936-1.4574-1.4808-2.6211-1.2814-1.5906.2725-2.0529,2.1393-2.0969,2.3299-.0342.1483-.4167,1.9129.6408,2.6794.7202.522,1.6602.2563,2.1552.1165.2852-.0806,2.1691-.6498,2.388-2.1551.1195-.8216-.3221-1.4758-.466-1.6891Z"/>
      <path class="cls-2" d="M793.7105,92.6958c-1.8854-.7796-4.0814-.4813-5.7082.5825-2.7336,1.7874-4.0016,5.8286-2.3298,8.3875,1.8342,2.8074,6.1498,2.2126,6.9895,2.0969,1.1598-.1598,3.4429-.4745,4.5434-2.2134,1.6539-2.6131-.014-7.4142-3.4948-8.8535Z"/>
      <path class="cls-2" d="M816.3102,75.6877c-.0218-1.6185-1.3401-3.3853-2.7958-3.2618-1.1901.1009-2.0577,1.43-2.2134,2.5629-.2551,1.8577,1.2967,3.9742,2.7958,3.8443,1.228-.1065,2.2328-1.7045,2.2134-3.1453Z"/>
    </g>
  </g>
</svg>