<?xml version="1.0" encoding="UTF-8"?>
<svg id="Capa_2" xmlns="http://www.w3.org/2000/svg" viewBox="0 0 715.1772 553.7822">
  <defs>
    <style>
      .cls-1 {
        fill: #70569b;
      }

      .cls-2 {
        fill: #9570c2;
      }

      .cls-3 {
        fill: #b29ad8;
      }

      .cls-4 {
        fill: #604593;
      }

      .cls-5 {
        fill: #47327c;
      }

      .cls-6 {
        fill: #a486ce;
      }

      .cls-7 {
        fill: #735aaf;
      }

      .cls-8 {
        fill: #8566b2;
      }
    </style>
  </defs>
  <g id="Capa_1-2" data-name="Capa_1">
    <g>
      <g>
        <path class="cls-2" d="M239.2014,549.9985c-10.5146,0-20.4434-2.1221-29.5103-6.3074-4.8022-2.2148-14.5356-6.7041-20.3511-12.4697-1.606-.3416-3.1216-.7395-4.6035-1.208-5.5884-1.7644-11.4556-4.9302-16.5195-8.9141-4.5996-3.624-6.6465-6.4133-8.626-9.1106-1.8862-2.5701-3.8364-5.2275-8.4683-9.2017-4.4619-3.8281-8.4814-6.3425-11.3174-7.0796-1.5708-.4043-2.6182-.4602-3.5151-.4602-.5283,0-1.0459.0215-1.5869.043-.6953.0276-1.4238.0559-2.2363.0559-1.667,0-3.2793-.1189-5.0732-.3745-7.5884-1.0942-13.1348-3.8577-16.6475-5.8416-2.647-1.4805-9.4961-5.8076-15.6255-13.8267-1.0513-1.3706-1.9604-2.6907-2.7764-4.0305,0,0-.2158-.3516-.2793-.4597-.0903-.1396-.1699-.2727-.25-.418-1.5796-2.7339-2.4805-5.0767-3.3516-7.342-1.2959-3.3704-2.52-6.554-6.3208-11.2607-3.5269-4.3687-7.4038-7.7078-9.7202-9.7026-3.6323-3.1287-5.876-4.6091-8.0459-6.0408l-.9917-.657c-1.4028-.9353-2.6211-1.7922-3.9976-2.9292-10.1265-8.3743-14.2188-19.7302-15.5078-24.2239-2.146-7.5293-1.5293-12.9558-1.0337-17.3159.5073-4.4595.813-7.1511-1.5962-10.8374-1.0479-1.606-1.8169-2.2019-3.3491-3.3892-1.8574-1.4397-4.4019-3.4111-8.4312-7.9773-4.4658-5.0725-7.6572-8.6978-10.2207-14.2734-4.8691-10.5837-4.1772-21.5571-3.7642-28.1135.1357-2.0752.3252-3.7781.4927-5.2805.374-3.3579.6694-6.0103.1621-10.2693-.3628-2.9954-1.1899-6.5593-2.3281-10.0276-1.5869-4.8567-3.2192-7.6599-4.7974-10.3708-1.4531-2.4961-2.8257-4.8538-3.9072-8.2944-2.3682-7.5596-1.2046-13.666.7231-23.7825,1.2197-6.426,2.6455-10.0806,3.9033-13.3047,1.2876-3.3,2.3994-6.1501,3.0884-11.7031.4287-3.4202.3506-4.9915.251-6.981-.1099-2.2026-.2344-4.6987.2578-9.7874.7295-7.4363,1.4746-15.0308,5.2832-23.533,1.29-2.8879,5.2202-11.6885,13.957-19.5808,2.1499-1.9436,4.0112-3.3091,5.6533-4.5139,2.8501-2.0911,4.4204-3.2429,5.4683-5.8701.6738-1.677.6055-2.5085.4697-4.1648-.1377-1.6748-.3086-3.7593.2617-6.908.5845-3.2893,2.0371-7.6252,12.5449-20.9216,4.7915-6.0576,7.2847-8.7014,8.9341-10.4512,1.5903-1.6865,2.0176-2.1399,3.1177-4.1968,1.6914-3.1519,2.3481-5.3716,3.043-7.7217.9326-3.1531,1.897-6.4133,5.061-11.4397,2.6172-4.1628,5.8105-7.989,8.9907-10.7722,4.9907-4.3608,9.7803-6.5623,12.0815-7.6201,4.0913-1.8979,6.542-2.4551,8.5112-2.9026,1.7461-.397,2.8003-.6367,4.7246-1.8386,1.8521-1.1592,2.5151-1.9524,3.7183-3.3921,1.2729-1.5232,2.8569-3.4187,6.1987-6.2329,4.251-3.5708,7.0229-5.8987,11.3774-7.6475,4.4189-1.7773,7.8384-1.8433,10.5859-1.8962,2.7681-.0535,4.7681-.092,7.6411-1.6489.7808-.4221.8638-.5051,1.4028-1.0442.7432-.7437,1.8662-1.8672,4.7607-4.0369,4.9961-3.7422,10.1392-7.5945,17.3467-9.7039,2.6011-.7654,4.1445-.9128,5.5063-1.0432,1.2861-.1228,2.397-.229,4.731-.9919,2.7397-.8989,4.1865-1.7307,5.8618-2.6936,1.1382-.6543,2.4282-1.3958,4.1318-2.144,5.7202-2.5168,10.9854-2.864,15.8228-2.864,1.4233,0,2.8862.0317,4.4121.0654,5.8867.126,9.085.9062,11.6553,1.5332,1.7212.4199,2.9653.7236,4.6807.7236.7202,0,1.4956-.0522,2.3701-.1597,1.5791-.1965,2.541-.5916,12.4478-4.801l2.6743-1.136c3.6582-1.5554,6.4961-2.8684,8.7764-3.9236,5.6914-2.6328,8.8262-4.0833,14.1816-4.4392.4541-.0317.833-.0481,1.1982-.0481,1.0498,0,1.9131.1284,3.8057.4097,1.9355.2876,5.1748.7688,11.2324,1.519,5.8818.7275,8.5703.9851,10.5322,1.1731,1.877.1797,3.1172.2983,5.7305.7024,10.9443,1.7014,16.9229,2.6309,23.4824,5.9541,5.0908,2.5718,11.4727,6.9304,15.2852,9.5347,1.9707,1.3469,2.7461,1.9238,3.209,2.2683q.3223.2393.5762.3821c3.665,2.0461,6.5459,2.0591,10.1924,2.0754,2.7773.0125,5.9248.0266,9.6748.9641,3.0205.7549,6.873,3.1814,15.3135,8.498,3.3555,2.1155,5.6602,3.698,7.5107,4.9697,3.499,2.4033,4.8086,3.3027,7.748,4.1606,2.0234.5908,3.0996.6404,3.9502.6404.2988,0,.5889-.0073.8809-.0146.3594-.0085.7217-.0171,1.1035-.0171,1.5312,0,3.542.1233,6.8447,1.0371,8.1758,2.2649,14.041,5.6602,17.9307,10.3801,2.0312,2.4775,4.749,5.6763,7.8105,8.5095,1.293,1.2,2.752,2.4065,4.4629,3.6919.2461.1838.5947.3975.9648.6238,1.1699.7166,2.626,1.6084,3.7002,3.2375,1.2705,1.9272,1.5205,4.0435,1.7217,5.7439.0762.6482.1484,1.2605.2617,1.7168.2393.9714.7393,2.0149,1.2676,3.1199.3652.7639.7432,1.5537,1.085,2.4119,1.4238,3.5471,1.4355,6.8311.0312,9.489-1.3457,2.5222-3.96,4.3508-7.3682,5.1636-2.792.6802-5.6104,1.0508-8.335,1.4092-3.2695.4299-6.3564.8362-9.2783,1.7363-2.1211.6531-4.1504.9758-6.1133,1.2881-2.1768.3464-4.2334.6738-6.1602,1.4287-3.624,1.4324-11.1045,4.3892-15.4619,10.8601-5.1592,7.6609-5.2012,19.3259-.1035,28.3679,7.6562,13.5842,24.1895,15.0508,30.9434,15.0508.5186,0,.9082-.0093,1.1484-.0151,6.2275-.147,17.7598-1.6353,25.1787-9.9553,2.4717-2.7717,3.4199-6.145,4.5166-10.051.5508-1.9583,1.1191-3.9832,1.9209-6.0425,2.5479-6.5713,8.1924-13.5967,16.3867-13.5967,3.9541,0,8.0156,1.6514,12.0703,4.9084,3.7725,3.03,7.9951,6.8606,10.7139,12.2976.4258.8525.8682,1.718,1.3164,2.5957,4.6094,9.0295,10.3457,20.2668,5.9951,31.6753-1.418,3.7292-3.8867,7.2012-7.5469,10.6104-5.1982,4.8445-11.5439,8.3481-18.3496,10.1316-4.1338,1.0796-8.2012,1.2136-12.1348,1.3433-3.0605.1008-5.9521.1963-8.7666.7173-6.3252,1.1738-12.2871,2.2805-16.8721,6.6025-5.4883,5.1587-7.6426,13.4785-6.4053,24.7327.6191,5.5813,2.3457,12.0752,10.4629,17.9722,4.1289,2.9961,8.7656,4.5159,13.7812,4.5159,2.8066,0,4.8438-.4805,5.7139-.6855,0,0,1.2686-.2915,1.8535-.4233,6.0068-1.355,11.6797-2.635,20.2275-9.5479,5.5117-4.4609,8.0293-9.2529,10.0518-13.1033,1.6777-3.1953,3.1279-5.9548,5.874-7.2207.2217-.1025.4785-.229.7617-.3684,1.9072-.9365,5.0986-2.5042,8.4004-2.5042,3.6572,0,9.8262,1.8711,10.0459,14.4026.0674,4.0388-1.1152,6.6504-2.1582,8.9543-.9629,2.1267-1.8721,4.1355-1.9834,7.7778-.0654,2.0022.1719,2.6602.8057,4.418.6631,1.8411,1.5713,4.3625,2.4482,9.2935.4141,2.3132.8428,4.7092,1.1211,7.009.5264,4.2251.7842,9.3066-1.3047,14.8569-1.0938,2.8958-2.2256,4.334-3.1338,5.4895-.7734.9839-1.2412,1.5776-1.7402,3.3264-.3213,1.1299-.9932,3.4875.915,14.0056.9707,5.3535,1.6953,7.8042,2.1758,9.4258.5391,1.8218.8955,3.0254.7812,5.5037-.0361.7639-.1084,1.5186-.2158,2.2473-.1016.7778-.2676,1.5544-.3818,2.0659-.2393,1.053-.541,2.0652-.8994,3.0208-.2178.5896-.4521,1.1699-.6973,1.739-.1406.3181-.2773.6052-.415.8921-.377.7644-.7939,1.5305-1.292,2.3743-1.6943,2.7979-3.5762,4.9292-4.873,6.2417-.1006.1072-.2012.2068-.3027.3049l-.0967.095c-.9463.9329-1.5889,1.4604-1.7627,1.5996l-1.0371.8259c-.1426.1062-.3066.2244-.4727.3425-2.542,1.7156-5.2588,2.5579-8.1543,2.5579-6.1123,0-11.8857-3.76-16.9795-7.0771-1.4951-.9736-2.9072-1.8933-4.2646-2.6838l-3.7139-2.1667c-8.8447-5.1653-10.0674-5.8472-12.4795-6.4224-.499-.1182-1.0645-.179-1.6738-.179-6.2461,0-15.4971,5.9993-20.0117,11.447-1.1143,2.0095-6.2451,14.5874-1.8467,23.6013.0605.1196.1299.2578.1992.4058.1553.2927.3174.5862.5.8789,3.1299,5.0364,9.127,7.2871,13.6846,7.2871,1.3828,0,2.6992-.2029,3.8047-.5869,5.251-1.8196,13.2666-3.988,21.6465-3.988,6.1426,0,11.5068,1.1819,15.9443,3.5127,5.2588,2.7639,9.5078,7.593,11.9639,13.5979,1.5811,3.8628,1.8613,7.8774.7881,11.3035-1.6045,5.105-5.9199,8.4045-9.0254,10.4426-8.9863,5.8633-17.085,13.0383-23.1367,18.6345-.3652.3308-.7002.6428-1.0352.9546l-.5557.5164c-.8643.8059-1.8193,1.6443-2.8018,2.5056-1.8125,1.5894-3.6875,3.2327-5.2373,4.9231-1.2178,1.3208-2.083,2.4988-2.6523,3.6086-.7754,1.509-1.2373,3.262-1.7266,5.1177-.7236,2.7441-1.543,5.8545-3.5674,8.7258-.4111.5735-.9043,1.2185-1.5996,1.9299-2.1416,5.5903-4.8027,10.1021-5.5967,11.3977-5.4258,8.7949-12.4883,13.8999-15.2725,15.687-5.1152,3.2866-8.666,4.1494-12.0996,4.9839-3.123.7588-6.0732,1.4756-10.7891,4.1292-4.127,2.3267-5.8154,4.0002-7.6025,5.7722-2.0293,2.0112-4.1279,4.0908-9.0332,6.4661-4.8057,2.3289-11.5049,3.5603-23.665,5.7957-5.0391.928-8.3809,1.4543-10.8213,1.8386-4.2139.6633-5.2148.821-7.5312,1.8228-4.0674,1.7615-5.6641,3.3569-7.6865,5.3772-1.9258,1.9246-4.1084,4.106-8.3672,6.5588-11.4951,6.6382-23.4834,6.7139-33.1162,6.7747l-.5107.0015c-6.416.0002-9.6162-.6577-12.4395-1.2383-2.126-.437-3.8047-.782-6.7275-.782-.6484,0-1.3506.0173-2.1211.0547-7.4355.3611-11.1084,2.0518-15.7588,4.1921-3.8115,1.7542-8.1309,3.7424-14.9854,5.1274-4.2954.8723-9.1084,1.334-13.915,1.334Z"/>
        <path class="cls-3" d="M272.9151,20.3555c1.6149,0,2.9075.4556,14.572,1.8999,11.6399,1.4399,11.0398,1.0698,16.1499,1.8599,10.8699,1.6899,16.3101,2.5303,22.3501,5.5898,4.8899,2.4702,11.2397,6.8101,14.8999,9.3101,3.5698,2.4399,3.05,2.25,4.03,2.8003,7.6299,4.2598,12.6799,1.3799,20.8,3.4097,2.4399.6104,6.3899,3.1001,14.2798,8.0703,9.5801,6.04,10.8401,7.9697,16.1501,9.52,2.3147.6758,3.7368.792,5.0103.792.6667,0,1.293-.0317,1.9852-.0317,1.3898,0,3.046.1279,5.8344.8994,5.9202,1.6401,12.04,4.3101,16.02,9.1401,2.55,3.1099,5.21,6.1499,8.1602,8.8799,1.52,1.4102,3.1099,2.7002,4.76,3.9399,1.26.9404,2.8899,1.5703,3.78,2.9204,1.1799,1.79.97,4.2798,1.47,6.29.52,2.1099,1.7,3.9897,2.51,6.0195.8101,2.02,1.22,4.3901.2,6.3203-.95,1.7798-2.9299,2.7798-4.9001,3.25-5.8699,1.4297-12.0398,1.4199-17.8499,3.21-4.1899,1.29-8.3801,1.1802-12.54,2.8101-3.8201,1.5098-12.1899,4.7998-17.22,12.27-6.29,9.3398-5.6899,22.71-.26,32.3398,8.9948,15.9614,28.6031,16.9766,34.238,16.9766.5608,0,.9822-.0103,1.2419-.0166,2.96-.0698,18.28-.4199,27.9099-11.2197,4.46-5,4.8101-11.25,7.1401-17.2402,1.8783-4.8433,6.2374-11.1846,12.8601-11.1846,2.8267,0,6.0654,1.1553,9.7,4.0747,3.9099,3.1401,7.4099,6.46,9.7,11.04,4.7,9.3999,11.29,20.3999,7.1599,31.23-1.3501,3.5498-3.8101,6.6001-6.5898,9.1899-4.7002,4.3799-10.5103,7.6099-16.73,9.2397-6.7803,1.77-13.77.73-20.6301,2-6.52,1.21-13.3801,2.48-18.78,7.5703-9.6499,9.0698-8,24-7.5701,27.9097.5701,5.1401,2.1301,13.4404,12,20.6104,5.8182,4.2227,11.6624,5.2383,16.0048,5.2383,3.3597,0,5.8203-.6079,6.6754-.8086,6.78-1.5796,13.4099-2.5298,23.5-10.6899,10.3899-8.4097,11.2898-18.0601,15.1299-19.8301,1.6038-.7407,4.7122-2.5244,7.5776-2.5244,3.2095-.0005,6.1145,2.2368,6.2625,10.6846.1099,6.6099-3.8801,8.0601-4.1401,16.5498-.1699,5.2305,1.6001,4.8804,3.3101,14.4902.4299,2.3999.8301,4.6499,1.0901,6.7998.5701,4.5801.5398,8.7402-1.0901,13.0703-1.8501,4.8999-3.6201,4.3799-4.97,9.1099-.5701,2-1.1001,5.0801.8301,15.7202,2.01,11.0898,3.0698,10.3896,2.8999,14.0796-.03.6401-.0901,1.2603-.1799,1.8701-.0801.6099-.2002,1.21-.3301,1.79-.2.8799-.45,1.7202-.75,2.52-.2.54-.4099,1.0601-.6299,1.5698-.1101.25-.23.5-.3501.75-.3599.73-.75,1.4302-1.1401,2.0903-1.46,2.4097-3.1099,4.2998-4.3398,5.54-.1101.1196-.22.2197-.3301.3301-.73.7197-1.27,1.1797-1.47,1.3398-.1599.1299-.3999.3198-.7.5601-.0701.0601-.1499.1196-.24.1899-.1201.0898-.26.1899-.4001.29-1.9495,1.3145-3.9457,1.8569-5.9595,1.8569-6.5496,0-13.2982-5.7285-19.3403-9.2471-12.0701-7.0298-13.78-8.1802-17.2202-9-.8107-.1919-1.6649-.2822-2.5511-.2822-7.882,0-18.2964,7.1235-23.0787,13.0024-.76.9297-7.71,16.1597-2.1799,27.4897.0701.1401.1399.2803.21.4302.21.3999.4299.7998.6799,1.1997,3.7206,5.9868,10.762,9.0664,16.8938,9.0664,1.7955,0,3.5127-.2642,5.0461-.7964,6.02-2.0864,13.3441-3.7788,20.4048-3.7788,5.0552,0,9.9753.8677,14.1853,3.0791,4.7,2.4697,8.22,6.79,10.22,11.6797,1.1301,2.7603,1.5701,5.9004.6802,8.7402-1.1501,3.6602-4.29,6.3101-7.4902,8.4102-8.46,5.52-16.2,12.1499-23.6299,19.02-.53.48-1.0601.98-1.5901,1.4697-2.5198,2.3501-5.71,4.8701-8.26,7.6499-1.2998,1.4102-2.4299,2.8804-3.23,4.4399-2.21,4.3003-2.1299,9.29-5.02,13.3901-.4299.6001-.9299,1.2402-1.75,1.98-1.6399,4.48-3.8999,8.8101-5.5798,11.5503-5.3601,8.6899-12.3601,13.3696-14.0901,14.48-9.01,5.79-12.1799,3.0796-22.7,9-9.3301,5.2598-7.9202,8.0098-16.4299,12.1299-4.25,2.0601-10.46,3.23-22.7002,5.48-13.8999,2.5601-14.8699,2.0498-19.1699,3.9097-8.73,3.7803-8.0898,7.3203-16.4399,12.1304-10.6499,6.1499-21.79,6.21-31.3,6.27-.1483.0005-.2959.001-.4407.001-10.9657,0-11.8147-2.02-19.1642-2.02-.7039,0-1.4673.0186-2.3051.0591-14.6202.71-16.7601,6.4497-31.3102,9.3896-1.7926.3643-6.6207,1.2593-13.1661,1.2593-7.6586,0-17.6686-1.2251-27.924-5.959-4.6398-2.1401-14.8898-6.8701-20.03-12.5103-1.6299-.3101-3.4399-.73-5.3698-1.3398-2.0901-.6602-8.3802-2.8198-15.3201-8.2803-8.44-6.6499-7.1099-9.75-16.97-18.21-7.39-6.3398-11.5601-7.5396-12.8301-7.8696-1.821-.4692-3.1721-.5825-4.4675-.5825-1.21,0-2.3719.0991-3.8222.0991-1.2347,0-2.6782-.0718-4.5401-.3369-7.5601-1.0898-13-4.0796-15.3201-5.3896-1.6799-.9399-8.3801-4.8501-14.4799-12.8301-1.0201-1.3301-1.8502-2.5503-2.5501-3.7002-.01-.02-.03-.0498-.04-.0698-.09-.1401-.17-.27-.25-.4102-.0601-.0898-.1099-.1699-.1599-.2598-3.8802-6.7202-3.3301-10.8403-10.0401-19.1504-3.77-4.6699-7.8-8.1299-10.25-10.2397-4.3301-3.73-6.9099-5.2998-9.3499-6.9302-1.2001-.7998-2.3702-1.6099-3.6901-2.6997-10-8.27-13.5599-19.8403-14.2801-22.3501-4.0898-14.3501,2.9001-20-3.0999-29.1802-2.9102-4.46-4.8301-3.5498-12.1101-11.7998-4.27-4.8501-7.2801-8.2603-9.6199-13.3501-4.4901-9.7598-3.8301-19.8799-3.4202-26.3799.4102-6.2803,1.4301-9.4302.6301-16.1499-.11-.9102-.61-5.0303-2.49-10.7603-3.1602-9.6699-6.61-12-8.6899-18.6201-2.0801-6.6396-1.0601-12.02.8298-21.9399,2.4202-12.75,5.6-13.73,7.03-25.25.9499-7.5801-.3999-7.3599.52-16.8696.72-7.3403,1.3999-14.3804,4.97-22.3501,1.3401-3,5.0701-11.1201,13.04-18.3203,5.94-5.3696,9.9099-6.2998,12.0999-11.79,1.8401-4.5796-.1199-5.9497.9401-11.7998.45-2.5298,1.54-6.2798,11.79-19.25,9.5798-12.1099,9.8-10.3101,12.4199-15.21,4.1599-7.75,2.72-10.5898,7.97-18.9302,3.6402-5.79,7.24-9.0298,8.28-9.9399,4.44-3.8799,8.69-5.8901,11.1699-7.0298,7.6102-3.5303,8.8101-1.9399,13.6602-4.9702,4.5698-2.8599,3.95-4.5498,10.3499-9.9399,4.06-3.4102,6.54-5.5,10.35-7.0298,7.9299-3.1899,11.5898.0796,18.6199-3.73,2.5901-1.4004,1.4001-1.46,6.6301-5.3804,4.8599-3.6396,9.5801-7.1797,16.1398-9.0996,4.7901-1.4102,5.1801-.3804,10.3502-2.0703,5.1198-1.6797,6.4699-3.27,10.3401-4.9697,4.8774-2.146,9.335-2.5444,14.2987-2.5444,1.3969,0,2.8334.0312,4.3311.0645,9.6216.2056,11.3829,2.2573,16.4189,2.2573.8365,0,1.7627-.0566,2.8311-.1875,2.3301-.29,3.35-.7798,16.1401-6.21,12.5098-5.3198,15.1099-7.6299,21.73-8.0698.3655-.0259.662-.04.948-.04M272.9151,12.7871c-.4459,0-.9018.0181-1.4781.0586-6.0281.4009-9.5905,2.0488-15.4925,4.7793-2.2563,1.0435-5.0645,2.3428-8.6692,3.8755l-2.6656,1.1323c-9.1734,3.8979-10.4033,4.4023-11.4478,4.5322-.7065.0864-1.3312.1294-1.8962.1294-1.2095,0-2.0341-.1885-3.7839-.6152-2.6041-.6357-6.1705-1.5059-12.4733-1.6401-1.5452-.0342-3.0095-.0664-4.4927-.0664-5.2493,0-10.984.3857-17.3467,3.1855-1.8864.8281-3.2705,1.624-4.4918,2.3262-1.6168.9292-2.785,1.6006-5.1596,2.3799-1.9272.6299-2.7149.7051-3.907.8188-1.4554.1392-3.2667.3125-6.2211,1.1821-7.8521,2.2983-13.2729,6.3579-18.5152,10.2842-2.8968,2.1714-4.1532,3.3682-5.1941,4.4097-.0776.0771-.1462.1484-.215.2148-.0556.0337-.153.0903-.3079.1738-2.0696,1.1216-3.3555,1.1465-5.9172,1.1963-2.8959.0557-6.862.1323-11.9276,2.1699-4.912,1.9722-8.0295,4.5908-12.3441,8.2148l-.049.041c-3.6026,3.0342-5.3768,5.1572-6.6722,6.707-1.1074,1.3252-1.4805,1.7715-2.8251,2.6128-1.3766.8599-1.925.9849-3.553,1.355-2.0302.4614-4.8105,1.0933-9.277,3.165-2.4382,1.1206-7.5626,3.4756-12.9651,8.1968-2.4438,2.1382-6.1078,5.8853-9.7072,11.6104-3.44,5.4648-4.5264,9.1382-5.4849,12.3789-.666,2.2515-1.2413,4.1963-2.7463,7.0005-.8678,1.623-1.0582,1.8247-2.5396,3.396-1.6945,1.7974-4.2552,4.5132-9.1475,10.6978-11.0626,13.998-12.6063,18.6875-13.3057,22.6201-.655,3.6138-.453,6.0728-.3057,7.8682.1212,1.4761.131,1.5967-.2057,2.4351-.6015,1.5078-1.2344,2.064-4.1998,4.2393-1.6301,1.1963-3.6588,2.6846-5.9528,4.7583-9.3257,8.4248-13.5025,17.7754-14.875,20.8477-4.058,9.0591-4.8336,16.9673-5.5838,24.6147l-.0081.0835c-.52,5.375-.3823,8.1338-.2717,10.3501.0935,1.8755.1611,3.23-.2258,6.3174-.6321,5.0928-1.6152,7.6128-2.8598,10.8027-1.3174,3.377-2.8106,7.2046-4.0961,13.9766-1.9673,10.3267-3.2676,17.1519-.6165,25.6143,1.2097,3.8506,2.7547,6.5044,4.2489,9.0708,1.547,2.6572,3.0082,5.167,4.4692,9.6377,1.0667,3.251,1.8365,6.5571,2.1703,9.3179.4538,3.812.2067,6.0308-.1672,9.3887-.1718,1.543-.3666,3.2915-.5016,5.3594l-.0063.0991c-.4361,6.9131-1.1659,18.4839,4.1031,29.937,2.7937,6.0771,6.3131,10.0747,10.7687,15.1357l.0463.0522c4.2719,4.8413,6.9794,6.9395,8.9564,8.4717,1.4169,1.0981,1.7977,1.3931,2.4958,2.4629,1.5904,2.4336,1.5078,3.9419,1.0074,8.3447-.5051,4.4443-1.197,10.5312,1.1523,18.7739,1.3906,4.8457,5.7971,17.0625,16.7353,26.1079,1.5951,1.3169,3.0168,2.2993,4.3163,3.1655.3263.2183.6628.4399,1.0057.6665,2.0698,1.3657,4.2101,2.7783,7.6018,5.7002l.0542.0464c2.3632,2.0352,5.9344,5.1104,9.2465,9.2129,3.427,4.2441,4.4448,6.8916,5.7335,10.2427.877,2.2808,1.8705,4.8647,3.6205,7.9023.0909.1606.1862.3193.2875.479.0659.1108.1327.2207.2023.332l.0703.1152c.8871,1.4575,1.8715,2.8872,3.0093,4.3711,6.315,8.2612,13.2305,12.8374,16.79,14.8291,2.1509,1.2144,8.7751,4.9551,17.9355,6.2754,1.9883.2832,3.77.4146,5.6201.4146.9082,0,1.6934-.0312,2.3861-.0591.5414-.0215,1.0089-.04,1.4361-.04.7703,0,1.4706.0576,2.5795.3433.8173.2124,3.9866,1.3057,9.7902,6.2847,4.3018,3.6909,6.0405,6.0601,7.8812,8.5684,2.0301,2.7661,4.3311,5.9014,9.3328,9.8423,6.9396,5.4604,13.4686,8.208,17.7244,9.5522,1.2669.4004,2.5544.7524,3.8922,1.064,6.3317,5.8525,15.824,10.231,20.6171,12.4419,9.5652,4.4155,20.0275,6.6543,31.094,6.6543,5.0555,0,10.1292-.4873,14.6725-1.4102,7.2784-1.4707,11.8112-3.5571,15.8104-5.3975,4.4456-2.0459,7.6577-3.5244,14.3604-3.8496.6882-.0337,1.3406-.0503,1.938-.0503,2.5385,0,3.9758.2954,5.9651.7041,2.8513.5864,6.3997,1.3159,13.1991,1.3159l.4789-.001h.0048l.0533-.0005c10.079-.0635,22.6224-.1431,34.9884-7.2837,4.6841-2.6982,7.1582-5.1709,9.1462-7.1572,1.9386-1.9375,3.1088-3.1064,6.5165-4.5825,1.803-.7798,2.4094-.894,6.6127-1.5562,2.4609-.3872,5.8314-.918,10.9207-1.8555,12.4841-2.2944,19.3625-3.5591,24.6304-6.1123,5.4701-2.6484,7.9005-5.0571,10.0449-7.1826,1.6714-1.6562,3.1147-3.0869,6.8007-5.165,4.2556-2.395,6.835-3.0215,9.8214-3.7471,3.5636-.8657,7.6024-1.8472,13.2534-5.479,2.9998-1.9253,10.614-7.4282,16.4401-16.8735,2.0706-3.3774,4.1191-7.5063,5.6411-11.3394.5933-.6616,1.043-1.2588,1.3995-1.7563l.017-.0234.0167-.0239c2.4166-3.4282,3.3687-7.04,4.1337-9.9419.454-1.7222.8462-3.21,1.4318-4.3491.4087-.7969,1.1021-1.7271,2.0634-2.77,1.424-1.5522,3.2197-3.1265,4.9564-4.6489.9663-.8477,1.9658-1.7236,2.9008-2.5957l.5297-.4917c.3262-.3037.6522-.6074.9784-.9023l.0293-.0269.0289-.0269c5.9432-5.4951,13.8861-12.5347,22.6274-18.2383,3.6077-2.3677,8.609-6.2241,10.5747-12.48,1.3384-4.271,1.0194-9.1973-.8965-13.8765-2.7919-6.8257-7.6588-12.3354-13.7032-15.5117-4.9871-2.6196-10.9438-3.9478-17.7059-3.9478-8.9065,0-17.3599,2.2822-22.8831,4.1963-.7155.248-1.6022.3789-2.568.3789-3.3965,0-8.1202-1.7188-10.4656-5.4927-.1055-.1689-.2111-.3545-.343-.6021-.0618-.1284-.1234-.2529-.1854-.3774-3.3505-6.9062.4266-17.2827,1.6355-19.814,3.9415-4.54,12.0636-9.7656,16.8335-9.7656.3937,0,.656.0425.8069.0781,1.8392.4385,3.0194,1.0903,11.4299,6.002,1.1207.6543,2.3567,1.3765,3.7257,2.1738,1.276.7427,2.6492,1.6372,4.1031,2.584,5.5353,3.605,11.8091,7.6914,19.0461,7.6914,3.6624,0,7.0911-1.0601,10.1908-3.1504l.085-.0571.0834-.0596c.1871-.1338.3737-.2681.5341-.3882l.0625-.0464.0615-.0483c.1393-.1074.2543-.1982.3575-.2832l.2573-.2056.4379-.3511c.231-.1846.97-.7974,2.0129-1.8257l.0222-.022.0221-.022.0281-.0273c.1305-.127.2594-.2549.3893-.3911,1.4396-1.46,3.5154-3.8179,5.3679-6.8755l.0214-.0356.021-.0356c.5435-.9194,1.0057-1.7681,1.4132-2.5947l.017-.0347.0167-.0347c.1562-.3257.3112-.6514.4545-.9771l.0112-.0254.011-.0254c.2836-.6572.5382-1.292.7786-1.9404.4067-1.0845.7579-2.2622,1.0327-3.4712.1332-.5947.3167-1.4595.4457-2.4204.1216-.8379.2037-1.6997.2441-2.5615.1438-3.1221-.355-4.8071-.9324-6.7583-.4567-1.543-1.1467-3.8745-2.0804-9.0264-1.7515-9.6553-1.1849-11.6426-.9987-12.2959.2941-1.0308.3979-1.1626,1.0743-2.0229.9557-1.2148,2.3999-3.0513,3.6976-6.4883,2.3955-6.3643,2.0706-12.2559,1.52-16.6787-.2887-2.3872-.7269-4.8335-1.1506-7.1992-.9321-5.2383-1.9431-8.0454-2.6122-9.9033-.5775-1.6035-.6248-1.7349-.5834-3.0068.0889-2.9004.7433-4.3457,1.6489-6.3472,1.1475-2.5347,2.5753-5.6895,2.4941-10.5742-.2947-16.8203-10.6594-18.127-13.829-18.127-4.1814.0005-7.8669,1.8101-10.0691,2.8916-.2531.124-.4817.2378-.6819.3301-3.9102,1.8022-5.8044,5.4087-7.6364,8.896-1.9578,3.7271-4.1768,7.9517-9.0825,11.9224-7.8599,6.3564-12.874,7.4873-18.6799,8.7969-.5924.1338-1.1836.2671-1.7758.4048l-.1117.0264c-.7423.1753-2.4807.585-4.8464.585-4.2004,0-8.0896-1.2769-11.5594-3.7949-6.9049-5.0161-8.3695-10.3276-8.9231-15.3198-1.1008-10.0103.6593-17.2632,5.2311-21.5605,3.7833-3.5664,8.9641-4.5278,14.9629-5.6411,2.546-.4712,5.299-.562,8.2134-.6582,4.1407-.1362,8.4225-.2778,12.9624-1.4629,7.4163-1.9434,14.3223-5.7554,19.9779-11.0254,4.0349-3.7593,6.8964-7.8091,8.5042-12.0366,4.9473-12.9731-1.2126-25.0405-6.1622-34.7368-.4432-.8682-.8806-1.7251-1.3022-2.5684-3.0449-6.0894-7.6384-10.27-11.7303-13.5562-4.7428-3.8101-9.6011-5.7422-14.439-5.7422-10.1045,0-16.9135,8.2734-19.9163,16.0161-.865,2.2236-1.4591,4.3384-2.0337,6.3833-1.0106,3.5967-1.8087,6.4375-3.6982,8.5562-6.4685,7.2539-16.8301,8.5591-22.4309,8.6909-.2367.0059-.5956.0146-1.073.0146-4.7502,0-20.7823-.9463-27.6447-13.124-4.3536-7.7212-4.3768-17.9805-.056-24.3965,3.7025-5.4985,10.4464-8.1636,13.6873-9.4443,1.5616-.6118,3.3363-.8945,5.3912-1.2212,1.9946-.3174,4.2556-.6772,6.6312-1.4092,2.6185-.8066,5.5531-1.1924,8.6598-1.6011,2.8248-.3716,5.7461-.7559,8.754-1.4883,4.4431-1.0605,7.9304-3.5635,9.7859-7.04,1.3674-2.5869,2.4888-6.8638.1478-12.7007-.3839-.9619-.8071-1.8467-1.1805-2.6274-.4427-.9253-.861-1.7998-1.0056-2.3862-.0596-.2402-.1267-.8071-.1805-1.2632-.2214-1.8745-.5563-4.707-2.3188-7.3809-1.5391-2.3345-3.5519-3.5674-4.8838-4.3833-.2543-.1558-.5706-.3496-.6884-.4375-1.5854-1.1909-2.9458-2.3154-4.1394-3.4229-2.8978-2.6816-5.506-5.7529-7.4552-8.1304-4.4119-5.354-10.9016-9.1553-19.8518-11.6348-3.7405-1.0352-6.0697-1.1743-7.855-1.1743-.4131,0-.8063.0088-1.1958.0181-.2621.0063-.5217.0137-.7894.0137-.5131,0-1.2156,0-2.8894-.4888-2.2715-.6631-3.181-1.2534-6.6674-3.6484-1.8784-1.29-4.2162-2.896-7.5673-5.0088-9.1146-5.7412-12.87-8.1069-16.4797-9.0103-4.1946-1.0483-7.7329-1.064-10.5762-1.0767-3.4622-.0156-5.5519-.0249-8.371-1.5986l-.0253-.0146-.129-.0957c-.454-.3374-1.2988-.9663-3.2946-2.3306-3.9249-2.6807-10.4375-7.1289-15.7578-9.8169-7.0879-3.5903-13.2778-4.5527-24.515-6.2998l-.085-.0132c-2.728-.4219-4.0114-.5444-5.954-.7305-1.9409-.186-4.599-.4404-10.4294-1.1621-6.0115-.7441-9.2219-1.2212-11.1401-1.5063-2.0187-.2998-3.032-.4507-4.3611-.4507h0Z"/>
      </g>
      <path class="cls-4" d="M404.5569,401.4053c-7.6899,21.5099-30.3501,47.17-61.01,67.12-32.47,21.13-57.0999,22.89-95.6899,18.87-17.3699-1.82-42.6101-4.69-71.55-19.46-12.9299-6.6-46.3501-24.17-67.79-60.43-10.3599-17.51-6.6499-20.33-24.8599-60.49-.2002-.45-.4001-.89-.6001-1.32-16.03-35.31-8.72-16.76-13.1699-32.19-13.1602-45.72,5.6399-87.81,10.28-97.81,5-10.8,13.5598-28.78,32.1099-45.18,40.76-36.05,92.8201-31.77,108.51-30.48,18.4302,1.51,37.6899,4.2,53.9199,13.64,16.4602,9.57,32.8301,20,45.3601,34.07,4.3101,4.84,12.1201,19.41,20.0601,34.57,8.6799,16.53,17.52,33.75,22.2,39.8,17.22,22.27,46.1101,42.8,51.1602,70.88,5.1799,28.9-2.9102,51.54-8.9302,68.41Z"/>
      <path class="cls-5" d="M404.5569,401.4053c-7.6899,21.5099-30.3501,47.17-61.01,67.12-32.47,21.13-57.0999,22.89-95.6899,18.87-17.3699-1.82-42.6101-4.69-71.55-19.46-12.9299-6.6-46.3501-24.17-67.79-60.43-10.3599-17.51-6.6499-20.33-24.8599-60.49-.2002-.45-.4001-.89-.6001-1.32,10.0901,4.51,20.76,10.22,29.6201,14.96,40.99,21.93,44.02,35.45,78.26,49.3,25.6099,10.36,47.3599,12.27,60.26,13.3,27.24,2.19,55.23,4.43,83.74-10.95,8.74-4.72,37.6799-20.33,45.3899-50.87,4.6602-18.46-.3501-34.84-5.48-51.65-6.8-22.2599-13.23-25.5099-22.7-48.53-5.22-12.69-9.52-26.9-12.02-38.94,8.6799,16.53,17.52,33.75,22.2,39.8,17.22,22.27,46.1101,42.8,51.1602,70.88,5.1799,28.9-2.9102,51.54-8.9302,68.41Z"/>
      <path class="cls-7" d="M235.8035,146.9987c-8.3545-2.58-15.8306-2.5026-30.7827-2.3478-17.9238.1856-30.2495,2.2402-36.2607,3.3913-13.49,2.5833-19.5574,5.2853-21.6521,6.2609-5.7205,2.664-13.1624,6.2365-18.7827,14.0869-2.5459,3.5562-8.2283,11.4933-5.4783,17.4783,3.0674,6.6755,15.1665,7.7483,23.2173,6.5217,12.9421-1.9717,13.8845-9.6512,30.5217-17.2173,5.1147-2.3261,17.1936-7.6606,32.3479-6.7827,11.6282.6737,23.7092,4.9266,24.5217,5.2174,11.1121,3.9772,15.6174,7.9872,20.8696,5.7391,4.5691-1.9557,7.6736-7.7785,7.3044-12.7826-.875-11.8597-21.1877-18.1328-25.8262-19.5652Z"/>
      <path class="cls-7" d="M109.5425,197.8683c-7.7681.2789-13.1406,9.4863-18.2607,18.2609-4.603,7.8884-7.2351,15.0383-8.8696,20.3478-4.5154,14.6681-7.2107,23.4238-3.6521,32.8696,3.1282,8.3034,11.6016,18.5,20.8696,17.7391,11.752-.9647,17.5012-18.9489,18.7825-22.9565,3.5022-10.9553,2.1987-21.4897,1.5652-26.6086-1.3816-11.1653-4.2424-13.05-3.1304-21.3914.9055-6.7921,3.5259-10.9712,1.0435-14.6086-1.8103-2.6526-5.4734-3.7554-8.3479-3.6522Z"/>
      <path class="cls-6" d="M94.9339,409.1727c1.7007-8.0228.2324-16.2808-7.3042-32.3478-7.8479-16.7306-10.6487-17.1417-16.6958-29.7391-8.2944-17.2793-10.6887-32.4725-12-41.2174-1.9062-12.7127-1.6187-22.3882-1.0435-41.7391.4414-14.8519.6621-22.2779,2.6086-28.6956,4.8591-16.0204,11.5312-15.1179,19.3044-32.8696,7.5588-17.2619,3.1885-22.5428,12-36,5.592-8.54,12.0964-13.6588,16.6956-17.2174,15.228-11.7827,20.7783-8.0155,35.4783-18.7826,14.2717-10.4536,12.782-16.7454,23.4783-19.8261,10.1455-2.9221,14.3901,1.9021,25.5652-2.0869,9.9211-3.5414,9.1921-8.2775,17.7393-10.9565,9.9373-3.1147,14.8662,2.0511,31.8259,4.6956,14.2715,2.2253,25.4309.8515,32.3479,0,12.2424-1.5071,24.7839-3.051,36.5217-12,5.2822-4.0272,12.8953-9.8315,14.0869-19.3043,1.2354-9.8205-5.1667-17.7345-9.3911-22.9565-3.0793-3.8065-8.7112-10.7686-18.261-13.0435-5.6384-1.3431-10.2549-.4835-15.6521.5217-8.1072,1.5099-10.3865,3.5817-19.3044,6.7826-5.0347,1.8071-15.4741,5.4771-28.1738,6.2609-11.4326.7056-11.3521-1.7515-20.8696-.5218-10.8335,1.3997-10.0042,4.4625-24.5217,7.8261-10.8206,2.5071-15.2983,1.7363-21.3914,6.2609-4.2102,3.1265-3.8792,4.8364-7.8259,8.8696-8.9788,9.1752-16.304,6.0602-29.7393,13.5652-11.5103,6.4297-7.9211,9.7147-20.8696,17.2173-12.1787,7.0567-17.2485,5.2485-21.9128,12-4.6707,6.7606-2.2693,12.4561-8.3479,17.7391-4.168,3.6225-6.135,1.6729-10.9565,5.2174-1.5945,1.1722-6.0613,4.8273-10.9565,20.8696-3.5759,11.7186-1.8586,11.9517-4.1738,17.7391-5.1108,12.7766-13.4951,11.6783-21.9131,24-8.2988,12.147-9.0027,26.1713-9.3914,33.913-.6421,12.7903,2.3267,17.0217-.5217,29.2174-2.3789,10.1864-5.1873,10.3907-5.2173,16.6956-.0581,12.1396,10.3262,16.8611,16.1738,29.2174,7.342,15.5142-5.3987,21.579,1.0435,37.0435,3.8538,9.2509,8.2188,8.3516,16.6956,23.4782,4.7827,8.5345,7.6399,16.3994,8.8696,19.8261,5.6035,15.6157,4.1953,20.1926,9.9131,26.6087.7068.793,9.481,10.409,17.2173,7.826,6.3315-2.114,8.2485-11.1572,8.8696-14.0869Z"/>
      <path class="cls-8" d="M514.107,304.1353c-.5701,2-1.1001,5.08.8301,15.72,2.01,11.09,3.0698,10.39,2.8999,14.08-.03.64-.0901,1.26-.1799,1.87-.0801.61-.2002,1.21-.3301,1.79-.2.8799-.45,1.72-.75,2.52-.1899.54-.3999,1.06-.6299,1.57-.1101.25-.23.5-.3501.75-.3501.73-.74,1.43-1.1401,2.09-1.46,2.41-3.1099,4.3-4.3398,5.54-.1101.12-.22.22-.3301.33-.73.72-1.27,1.18-1.47,1.34-.1599.13-.3999.32-.7.56-.0701.06-.1499.12-.24.19-.1201.09-.26.19-.4001.29-8.2898,5.59-17.3999-2.79-25.2998-7.39-12.0701-7.03-13.78-8.18-17.2202-9-8.0198-1.9-20.3098,6.18-25.6299,12.72-.76.93-7.71,16.16-2.1799,27.4901.0701.14.1399.28.21.43.21.4.4299.8.6799,1.2,4.8101,7.7401,15.1699,10.6201,21.9399,8.27,10.3301-3.58,24.5-6,34.5901-.7,4.7,2.47,8.22,6.79,10.22,11.68,1.1301,2.76,1.5701,5.9.6802,8.7401-1.1501,3.66-4.29,6.31-7.4902,8.41-8.46,5.52-16.2,12.15-23.6299,19.02-5.95,5.02-8.22,7.04-9.8501,9.12-.4299.54-.8098,1.08-1.21,1.68-4.76,7.25-3.0999,10.57-7.04,16.15-.4299.6-.9299,1.24-1.75,1.98-1.6399,4.48-3.8999,8.81-5.5798,11.55-5.3601,8.69-12.3601,13.37-14.0901,14.48-9.01,5.79-12.1799,3.08-22.7,9-9.3301,5.26-7.9202,8.01-16.4299,12.1301-4.25,2.0599-10.46,3.23-22.7002,5.48-13.8999,2.5601-14.8699,2.05-19.1699,3.9099-8.73,3.78-8.0898,7.3201-16.4399,12.1301-10.6499,6.1499-21.79,6.21-31.3,6.27-12.46.0599-12.21-2.4301-21.9099-1.9601-14.6201.7101-16.76,6.4501-31.3101,9.39-3.8901.79-22.0701,4.08-41.0901-4.7-4.6399-2.1401-14.8899-6.8701-20.03-12.51-1.6299-.3101-3.4399-.73-5.3699-1.3401-2.0901-.6599-8.3801-2.8199-15.3201-8.28-8.4399-6.6499-7.1099-9.75-16.97-18.21-7.3899-6.34-11.5601-7.54-12.8301-7.87-4.97-1.28-6.4399.09-12.8298-.82-7.5601-1.09-13-4.08-15.3201-5.39-1.6799-.94-8.3801-4.85-14.48-12.83-1.02-1.33-1.8501-2.55-2.55-3.7-.1001-.16-.2-.32-.29-.48-.0601-.09-.1099-.18-.1499-.26h-.01c-3.8801-6.72-3.3301-10.84-10.04-19.15-3.77-4.67-7.8-8.13-10.25-10.24-4.3301-3.73-6.9099-5.3-9.3499-6.93,5.8198,1.63,11.2898,4,15.8799,7.19,4.22,2.92,9.21,7.58,20.8701,15.13,11.6399,7.53,17.46,11.3,25.5698,13.56,13.29,3.72,15.8901-.9,30.78,2.09,12.05,2.42,14.5801,6.29,28.4299,11.74,3.8501,1.51,13.5701,4.28,37.5701,8.61,39.6799,7.15,62.6699,11.29,89.22,3.13,21.8-6.71,36.3201-18.74,52.4302-32.09,12.2698-10.17,25.1899-21.07,36-39.91,3.8499-6.7,12.2-21.57,15.2598-42.26,2.6902-18.19-1.6799-20.77,2.7402-33.39.8899-2.54,7.6699-23.69,27.3899-32.87,7.24-3.37,13.0601-3.45,25.05-10.18,16.72-9.39,24.0063-15.6174,25.24-16.69,16.4299-14.2848,12.5999-29.52,16.8499-27.74.54.23.8901.72.98,1.51.02.11.02.23.02.36v.23c-.1699,5.23,1.6001,4.88,3.3101,14.4901,1.3301,7.5099,2.3999,13.5,0,19.87-1.8501,4.9-3.6201,4.38-4.97,9.11Z"/>
      <path class="cls-8" d="M238.6731,117.5205c-2.2537-3.1716-8.1965-4.2441-11.7393-1.0435-2.4849,2.2448-3.1611,6.0243-1.8259,9.1304,1.3879,3.2289,4.792,5.3632,7.8259,4.9565,5.2031-.6973,8.7603-8.7921,5.7393-13.0435Z"/>
      <path class="cls-8" d="M318.2383,127.1727c-1.686-2.9265-5.7949-4.6486-8.6086-3.1304-2.5071,1.3526-2.8162,4.6462-2.8696,5.2173-.041.4366-.3262,4.1624,2.6086,6.5218,1.4551,1.1698,4.0095,2.2514,6.261,1.3043,3.2783-1.379,4.5769-6.4968,2.6086-9.913Z"/>
      <path class="cls-8" d="M356.847,80.7379c-3.6504-3.001-10.8596-2.8577-14.6086,2.087-3.3542,4.424-2.3584,10.607,1.3042,14.087,2.7126,2.5775,7.0312,3.808,10.4348,2.3478,6.3142-2.7089,8.2078-14.1332,2.8696-18.5217Z"/>
      <path class="cls-8" d="M401.0643,112.6944c-1.6484-2.6857-5.9985-3.248-7.8259-1.3044-1.4951,1.5901-.9082,4.4388.1304,6.1305.967,1.5749,3.0737,3.3653,5.0869,2.8695,2.5935-.6387,4.3259-4.8978,2.6086-7.6956Z"/>
      <path class="cls-8" d="M404.0643,77.0857c-2.2285-2.9161-8.354-3.4013-11.4783,0-1.7092,1.8608-2.2734,4.6163-1.5652,7.0435,1.0271,3.5197,4.5789,5.8289,7.5652,5.4783,5.0469-.5925,8.3484-8.7657,5.4783-12.5217Z"/>
      <path class="cls-8" d="M376.1514,177.7814c-.0254-4.3311-2.0869-10.9526-7.5654-12.5218-5.7561-1.6486-11.0796,3.4844-13.3042,7.0435-2.2446,3.5909-4.5679,10.7518-.261,15.6522,3.3689,3.8331,9.2021,4.4716,13.5652,2.6087,7.4688-3.1888,7.5676-12.4001,7.5654-12.7826Z"/>
      <path class="cls-8" d="M424.9339,185.8683c-1.5989-2.1234-4.8835-3.3102-7.5652-2.2173-2.353.9589-3.2498,3.2686-3.6521,4.3043-.9177,2.3632-1.5962,7.0052,1.3042,9.1304,2.0806,1.5246,5.0437,1.0511,6.9131,0,3.6995-2.0802,5.5706-7.8035,3-11.2174Z"/>
      <path class="cls-8" d="M123.108,451.6944c1.3755-2.0349,2.2202-5.8978-.261-8.6087-2.24-2.4473-6.2087-2.8832-8.8696-.7826-2.4302,1.9184-2.9697,5.3209-1.8259,7.826,1.688,3.6972,6.7119,4.7172,9.3911,3.1304.8291-.4911,1.2776-1.1394,1.5654-1.5652Z"/>
      <path class="cls-8" d="M421.8035,244.0422c-.1277-3.6445-1.988-8.5467-6.261-10.174-5.3875-2.0518-11.2266,2.3914-13.6956,6.6522-.6106,1.0537-3.6394,6.6255-.7827,11.3478,2.7144,4.4871,9.2607,5.7579,14.0872,3.5217,4.5522-2.1091,6.8052-6.9817,6.6521-11.3478Z"/>
      <path class="cls-8" d="M479.1949,194.9987c.8188-3.3262-1.6206-8.0634-5.7393-9.1304-4.2156-1.0921-7.5708,2.3391-7.8259,2.6087-2.9106,3.0748-3.5002,8.3034-1.3044,10.6957,3.3276,3.6256,13.532,1.2594,14.8696-4.174Z"/>
      <path class="cls-8" d="M479.586,150.39c-.7708-2.26-4.1755-3.3947-6.3911-1.9565-1.5908,1.0327-2.4734,3.3301-1.5652,5.2174.7412,1.5401,2.4412,2.3216,3.9128,2.2173,2.5862-.1832,4.845-3.1281,4.0435-5.4783Z"/>
      <path class="cls-8" d="M368.8811,140.2815c.3943-1.6547-.0139-3.9572-1.8259-5.087-2.1953-1.3687-4.6768.0902-4.9565.2609-.4004.2444-2.175,1.3271-2.3479,3.3913-.1748,2.0862,1.4297,3.467,1.8262,3.7827,1.2683,1.0097,3.323,1.5848,5.0869.6522,1.6365-.8654,2.1091-2.5457,2.2173-3Z"/>
      <path class="cls-8" d="M380.586,232.8248c-.8667-3.2405-4.3201-5.9083-8.0869-5.2174-3.2976.6049-5.646,3.5654-5.739,6.7826-.1077,3.7213,2.8269,6.924,6.2607,7.3044,3.7046.4103,6.1555-2.6674,6.261-2.8044.2153-.2799,2.1545-2.8864,1.3042-6.0652Z"/>
      <path class="cls-8" d="M370.836,205.89c-1.0901-.6141-2.7913-.6345-3.6194.2935-1.0881,1.2192-.2332,3.587,1.0759,4.7935.9573.8821,2.686,1.6307,3.6196.9783,1.3452-.94,1.1067-4.8355-1.0762-6.0652Z"/>
      <path class="cls-8" d="M436.9339,297.2596c-1.1023-5.5794-7.9912-8.4091-13.3042-7.5652-5.3926.8565-10.8413,5.7642-10.1741,10.6956.7524,5.561,8.8044,7.6208,9.6523,7.8261,1.7007.4119,5.3582,1.2976,8.8694-.7826,3.3618-1.9917,5.7415-6.2001,4.9565-10.174Z"/>
      <path class="cls-8" d="M472.4773,288.7487c-1.3474-.8097-3.5999-.5916-4.5977.9783-1.0144,1.5962-.1094,3.6104,1.0759,4.5978,1.0537.8778,2.7947,1.3323,3.9131.587,1.7119-1.1409,1.6926-4.9109-.3914-6.1631Z"/>
      <path class="cls-8" d="M184.4122,128.477c-.6348-3.6446-4.1638-5.7618-7.0435-6.2609-2.6677-.4623-6.812.1118-8.6086,3.3913-1.833,3.3457.05,7.184,1.8259,9.1304.5984.6557,3.0732,3.167,6.522,2.8696,4.1868-.3611,8.0735-4.7124,7.3042-9.1304Z"/>
      <path class="cls-2" d="M280.9339,64.8248c-2.1841-3.1204-6.2002-3.9817-9.3914-3.1304-3.3164.8846-6.4446,3.806-6.6521,7.8261-.2085,4.0386,2.615,7.5583,6.261,8.6086,3.1807.9163,6.5044-.186,8.6086-2.3478,2.6946-2.7682,3.5999-7.4906,1.1738-10.9565Z"/>
      <path class="cls-2" d="M229.5425,61.9553c-2.0879-2.5357-6.0386-2.257-8.3477-.6522-.386.2682-2.5337,1.8298-2.6089,4.5652-.0847,3.0781,2.5325,4.8237,2.7393,4.9565,2.0271,1.3026,4.6562,1.2139,6.5217,0,2.7917-1.8165,3.9124-6.1776,1.6956-8.8696Z"/>
      <path class="cls-2" d="M218.1297,87.7161c-.9797-2.8793-4.5908-4.0542-7.2393-3.1304-2.0488.7146-4.0225,2.8597-3.7173,5.087.3259,2.3779,3.063,3.4887,4.1086,3.913,1.0569.4288,2.6943,1.0933,4.3042.3913,2.1201-.9246,3.3618-3.8566,2.5437-6.2609Z"/>
      <path class="cls-2" d="M187.9991,71.7705c-.5508-2.0337-2.9751-3.1285-4.989-2.9348-1.5269.1469-3.3247,1.0831-4.011,2.9348-.0522.1413-.8596,2.4423.6848,4.3043,1.5317,1.8467,3.9146,1.4992,4.1086,1.4674,1.333-.2184,2.168-1.0057,2.5435-1.3696.2708-.2623,2.2617-2.1918,1.6631-4.4022Z"/>
      <path class="cls-2" d="M178.0208,107.477c1.0835-1.5011.5811-4.0068-1.0435-4.6956-1.2864-.5455-2.9341.1938-3.6521,1.4348-.8228,1.422-.4558,3.5566,1.0435,4.3044,1.2781.6375,2.8843.0203,3.6521-1.0435Z"/>
      <path class="cls-2" d="M127.4122,109.1727c.1006-1.5037-.5713-3.4889-2.3479-4.3044-1.2385-.5685-2.7012-.4252-3.7825.2609-1.8538,1.1763-2.1921,3.6984-1.5652,5.4783.4163,1.1818,1.5369,2.8282,3.2607,3,2.2219.2215,4.2803-2.1234,4.4348-4.4348Z"/>
      <path class="cls-2" d="M90.7601,156.2596c.9163-1.7993,1.8865-3.7048,1.0435-5.0869-1.0198-1.6716-4.4487-2.1786-6.3914-.3913-1.5862,1.4592-1.5627,3.8787-.7825,5.4782.7083,1.4517,2.405,2.9764,3.9128,2.6087,1.0151-.2476,1.5261-1.2509,2.2175-2.6087Z"/>
      <path class="cls-2" d="M52.608,195.9118c-1.1858-1.5938-2.5483-3.425-4.6958-3.5218-2.9585-.1334-4.8708,3.1397-5.0869,3.5218-.1038.1837-2.3574,4.3146,0,7.2391,2.0791,2.5792,5.853,1.8737,6.4565,1.7609.343-.0641,4.6033-.9191,5.2825-3.9131.4272-1.8835-.8062-3.5412-1.9563-5.0869Z"/>
      <path class="cls-2" d="M121.2818,138.1944c.5994-.2076,5.3999-1.9364,5.6738-5.2826.2888-3.5282-4.5859-7.252-9-6.8478-3.3984.3112-5.4106,2.9672-5.6738,3.326-.2522.3439-2.7419,3.8347-1.3696,6.6522,1.5452,3.1728,6.9397,3.34,10.3696,2.1522Z"/>
      <path class="cls-2" d="M54.2383,232.8248c-.4265-4.0333-4.3555-6.9084-8.0869-6.2609-4.2754.7419-6.6611,5.8253-5.2175,9.6522.967,2.564,3.6338,4.5126,6.5217,4.4348,3.8032-.1025,7.2192-3.6986,6.7827-7.8261Z"/>
      <path class="cls-2" d="M38.847,268.0422c-1.5583-1.7951-5.0605-2.1332-7.5652-.5217-2.8882,1.8582-3.668,5.8056-2.0869,8.6086,1.0083,1.7876,3.1309,3.383,5.2173,3.1304,4.127-.4996,7.1318-8.1104,4.4348-11.2173Z"/>
      <path class="cls-2" d="M56.9122,322.1074c.3535-2.5765-1.6245-4.603-3.1304-5.4783-2.5952-1.5085-6.8479-1.3769-8.4131,1.3696-1.4851,2.6061.2791,6.1113,2.5435,7.6304.4353.2921,1.9316,1.2101,3.9131.9783,2.1926-.2565,4.729-1.8915,5.0869-4.5Z"/>
      <path class="cls-2" d="M67.6731,378.7814c1.3862-1.5717.8201-3.7755.7825-3.9131-.5173-1.8904-2.2859-3.3096-4.3042-3.3913-1.9187-.0776-3.5452,1.0745-4.3044,2.4783-.1838.34-.9028,1.6693-.3914,3.1304.4304,1.2299,1.4749,1.8165,1.9565,2.087,1.6099.9041,4.6221,1.4669,6.261-.3913Z"/>
      <path class="cls-2" d="M66.7925,352.3357c.0408-.2097.3835-2.154-1.0759-3.2283-.9495-.6989-2.3438-.7956-3.3262-.0978-1.2192.8661-1.1135,2.4661-1.0762,3.0327.0378.5718.1172,1.7754,1.0762,2.4456.9866.6895,2.3647.438,3.2283-.1956.9077-.6662,1.1162-1.6592,1.1738-1.9565Z"/>
      <path class="cls-2" d="M44.2925,342.651c-.1453-1.6478-1.79-2.6592-3.1304-2.6414-.2349.0031-1.0835.0462-1.7607.6848-1.0647,1.004-.7444,2.5732-.6848,2.837.0718.317.3416,1.5111,1.4673,2.0543.9836.4747,1.9482.128,2.25,0,1.0542-.447,1.9766-1.5978,1.8586-2.9348Z"/>
      <path class="cls-2" d="M89.9773,395.2161c.2021-.6465,1.0315-3.2986-.6521-5.3478-1.3838-1.6844-4.051-2.4568-6.1304-1.3043-2.5979,1.4398-2.3699,4.8259-2.3479,5.087.021.2508.2896,2.92,2.6086,4.3043.3718.2219,2.1855,1.3046,4.0435.5217,1.6799-.7078,2.2239-2.447,2.4783-3.2609Z"/>
      <path class="cls-2" d="M52.9339,297.2596c.5544-.5341,2.1365-2.0582,1.6958-3.913-.4443-1.8699-2.5752-2.5233-2.8696-2.6087-.2874-.0834-2.4163-.7006-3.7827.6522-1.3601,1.3465-.7751,3.4669-.6521,3.9131.3625,1.314,1.488,3.2031,3.1304,3.2609,1.0847.0382,1.8923-.74,2.4783-1.3044Z"/>
      <path class="cls-2" d="M321.0425,73.2379c.116-1.3838-1.0569-2.7458-2.3477-3.2609-1.7795-.7102-3.793.1855-4.8262,1.5652-.9902,1.3224-1.3354,3.431-.2607,4.826.0696.0903.9626,1.2135,2.3477,1.2391,1.0154.0188,1.6973-.5636,2.8696-1.5652,1.4233-1.2159,2.135-1.824,2.2173-2.8044Z"/>
      <path class="cls-2" d="M299.8143,43.2053c-.7839-2.3379-3.4329-4.1619-6.1628-3.8152-3.0151.3829-4.3975,3.194-4.5979,3.6196-.8774,1.8624-1.1826,4.8414.7825,6.9457,1.5876,1.7,4.1755,2.3136,6.261,1.4674,2.137-.8671,2.9475-2.9429,3.3262-3.9131.354-.907.9868-2.5278.3911-4.3043Z"/>
      <path class="cls-1" d="M514.107,304.1353c-.5701,2-1.1001,5.08.8301,15.72,2.01,11.09,3.0698,10.39,2.8999,14.08-.03.64-.0901,1.26-.1799,1.87-.0801.61-.2002,1.21-.3301,1.79-.2.8799-.45,1.72-.75,2.52-.2.54-.4099,1.06-.6299,1.57-.1101.25-.23.5-.3501.75-.3599.73-.75,1.43-1.1401,2.09-1.46,2.41-3.1099,4.3-4.3398,5.54-.1101.12-.22.22-.3301.33-.73.72-1.27,1.18-1.47,1.34-.1599.13-.3999.32-.7.56-.0701.06-.1499.12-.24.19-.1201.09-.26.19-.4001.29-8.2898,5.59-17.3999-2.79-25.2998-7.39-12.0701-7.03-13.78-8.18-17.2202-9-8.0198-1.9-20.3098,6.18-25.6299,12.72-.76.93-7.71,16.16-2.1799,27.4901.0701.14.1399.28.21.43.21.4.4299.8.6799,1.2,4.8101,7.7401,15.1699,10.6201,21.9399,8.27,10.3301-3.58,24.5-6,34.5901-.7,4.7,2.47,8.22,6.79,10.22,11.68,1.1301,2.76,1.5701,5.9.6802,8.7401-1.1501,3.66-4.29,6.31-7.4902,8.41-8.46,5.52-16.2,12.15-23.6299,19.02-.53.48-1.0601.98-1.5901,1.47-2.5198,2.35-5.71,4.87-8.26,7.65-1.2998,1.41-2.4299,2.88-3.23,4.44-2.21,4.3-2.1299,9.29-5.02,13.39-.4299.6-.9299,1.24-1.75,1.98-1.6399,4.48-3.8999,8.81-5.5798,11.55-5.3601,8.69-12.3601,13.37-14.0901,14.48-9.01,5.79-12.1799,3.08-22.7,9-9.3301,5.26-7.9202,8.01-16.4299,12.1301-4.25,2.0599-10.46,3.23-22.7002,5.48-13.8999,2.5601-14.8699,2.05-19.1699,3.9099-8.73,3.78-8.0898,7.3201-16.4399,12.1301-10.6499,6.1499-21.79,6.21-31.3,6.27-12.46.0599-12.21-2.4301-21.9099-1.9601-14.6201.7101-16.76,6.4501-31.3101,9.39-3.8901.79-22.0701,4.08-41.0901-4.7-4.6399-2.1401-14.8899-6.8701-20.03-12.51-1.6299-.3101-3.4399-.73-5.3699-1.3401-2.0901-.6599-8.3801-2.8199-15.3201-8.28-8.4399-6.6499-7.1099-9.75-16.97-18.21-7.3899-6.34-11.5601-7.54-12.8301-7.87-4.97-1.28-6.4399.09-12.8298-.82-7.5601-1.09-13-4.08-15.3201-5.39-1.6799-.94-8.3801-4.85-14.48-12.83-1.02-1.33-1.8501-2.55-2.55-3.7-.01-.02-.03-.05-.04-.07,2.78,1.25,5.8701,2.61,9.3101,4.11,11.6499,5.08,14.47,6.1,16.04,6.65,18.79,6.63,21.2,3.44,30.9199,8.61,10.76,5.73,8.8701,10.21,22.3,18,5.3699,3.11,6.4399,2.85,19.4399,8.48,20,8.67,17.5801,9.36,24,11.22,20,5.79,40.23-1.8099,46.1702-4.0499,9.0798-3.41,10.5598-5.77,19.5598-7.8201,12.26-2.8,15.1101.29,25.6401-1.37,17.5999-2.78,15.9099-12.42,34.0999-16.24,13.04-2.74,19.8.98,29.48-5.48,4.4001-2.9301,3.2402-3.86,9.6501-9.39,5.74-4.95,10.8499-7.81,25.05-14.87,20.8899-10.39,19.5098-9,20.8699-10.17,14.1899-12.2599,7.1799-27.06,21.1301-36.53,6.29-4.26,13.1099-4.91,14.3499-10.43.6702-2.98-.4399-6.73-2.8699-8.61-2.8801-2.23-6.02-.61-11.2202-1.04,0,0-6.8098-.56-13.8298-5.74-10.72-7.91-10.29-27.13-7.8201-38.09.77-3.45,6.1401-25.6299,22.4302-31.3,3.1099-1.08,11.2898-.9,27.6499-.52,11.9299.27,18.3599.8,21.6599-3.4,2.22-2.83.8701-5.1,2.3401-10.69,2.04-7.76,6.74-11.41,10.96-16.44,3.6799-4.38,5.8799-8.5,7.3201-12.17.5701,4.58.5398,8.74-1.0901,13.07-1.8501,4.9-3.6201,4.38-4.97,9.11Z"/>
      <path class="cls-1" d="M433.347,413.8683c-2.79-2.1996-7.0481-1.9807-9.3914.3913-2.7083,2.7415-1.4812,6.9645-1.1738,8.0218.28.9633,1.5044,5.1766,4.8914,5.8696,3.175.6497,6.239-2.2057,7.4348-4.8914,1.1829-2.6566,1.3389-6.9474-1.761-9.3913Z"/>
      <path class="cls-1" d="M412.9014,438.0314c-1.5574-1.4128-4.1624-1.3143-5.9675-.2935-2.0933,1.1838-3.4058,3.7747-2.739,6.1631.3906,1.399,1.4617,2.734,3.0325,3.326,1.5164.5715,3.1509.3199,4.3044-.3913,2.7515-1.6962,3.771-6.6257,1.3696-8.8043Z"/>
      <path class="cls-1" d="M373.9339,463.6944c-1.0813-1.0923-3.2166-1.2781-4.6956-.1304-1.458,1.1313-1.8872,3.2548-.9131,4.826.8804,1.4198,2.6797,2.0231,4.0435,1.5652,2.3157-.7775,3.2395-4.5696,1.5652-6.2609Z"/>
      <path class="cls-1" d="M422.9773,391.9553c-2.0347-.5907-4.0984.9876-4.5,2.7391-.5588,2.4365,2.1267,5.0851,4.3044,4.6956,1.3264-.2372,2.2578-1.5644,2.5435-2.7391.4207-1.7293-.3203-4.107-2.3479-4.6957Z"/>
      <path class="cls-1" d="M487.4122,312.2596c-1.1843-2.228-4.2939-3.3966-6.6521-2.0869-1.9019,1.0562-2.9009,3.4944-2.2175,5.4783.5549,1.6115,2.0105,2.3151,2.3479,2.4782,1.9485.942,4.9988.792,6.3914-1.3043.9294-1.399.8362-3.2373.1304-4.5652Z"/>
      <path class="cls-1" d="M494.4556,292.7596c-1.7786-.4741-3.8528,1.2924-3.9783,3.2609-.0874,1.3705.7715,2.8165,2.0869,3.326.2246.087,1.1536.4144,2.1523,0,1.4763-.6125,1.7852-2.298,1.8259-2.5435.2568-1.5423-.4873-3.6171-2.0869-4.0435Z"/>
      <path class="cls-1" d="M455.3904,314.6727c-.2708-.2363-1.5442-1.3474-2.8044-.7827-1.03.4616-1.5405,1.8138-1.1738,2.9348.3892,1.1896,1.6228,1.6818,2.5435,1.6957.9927.015,2.303-.5158,2.5435-1.5652.251-1.0961-.8298-2.0392-1.1086-2.2826Z"/>
      <path class="cls-1" d="M362.9773,490.6944c1.4224-1.4037,2.7068-4.5269,1.0435-6.2609-1.5486-1.6142-4.825-1.1627-5.8694.3913-1.4922,2.22,1.5151,6.7726,3.5217,6.6522.5442-.0327.9199-.4033,1.3042-.7826Z"/>
      <path class="cls-1" d="M300.3687,507.5205c.6565-1.4113.5312-3.3823-.7827-4.5652-1.5149-1.3636-3.9436-1.0805-5.3477.2609-1.1951,1.1417-1.7815,3.1781-.7827,4.826.9919,1.6364,3.041,2.0547,4.5652,1.5653,1.5867-.5094,2.2566-1.8905,2.3479-2.087Z"/>
      <path class="cls-1" d="M254.4556,517.0422c1.4233-.769,2.2656-2.356,2.0869-3.913-.2539-2.2118-2.5049-3.8123-4.4346-3.5217-1.3762.2072-2.167,1.3123-2.3479,1.5652-.9941,1.3893-1.4062,3.8469.1304,5.3478,1.1995,1.1716,3.1189,1.3032,4.5652.5217Z"/>
      <path class="cls-1" d="M243.7601,497.9987c-3.1035-3.7484-10.0645-3.1643-11.9348,0-1.7334,2.9326,1.0281,7.8748,4.5,9.9783.6409.3883,3.6284,2.1982,6.0652.9783,3.1475-1.5758,4.1533-7.5944,1.3696-10.9565Z"/>
      <path class="cls-1" d="M213.4339,504.4553c-.7874-1.6382-2.4988-2.9681-4.5-3.1304-3.0259-.2454-5.9897,2.2374-6.0652,4.6957-.0657,2.1442,2.0862,3.6234,4.5,5.2825,1.4724,1.012,2.2168,1.5238,3.1304,1.3696,2.3306-.3933,4.5234-4.9121,2.9348-8.2174Z"/>
      <path class="cls-1" d="M193.4773,489.6835c-1.1155-1.9639-3.8276-3.0735-5.8694-2.0544-1.1819.5899-2.0708,1.8589-2.1523,3.2283-.1306,2.1887,1.8645,3.5706,2.6414,4.1087.7307.5062,2.3579,1.6333,3.8152,1.0761,1.8933-.7239,2.8755-4.0519,1.5652-6.3587Z"/>
      <path class="cls-1" d="M178.9991,505.9227c.9124-.6744,1.2488-2.4969.3914-3.5217-.8142-.9733-2.2969-.7392-2.6414-.6848-1.175.1855-2.6233,1.0213-2.6411,1.9565-.0276,1.4458,3.3586,3.3826,4.8911,2.25Z"/>
      <path class="cls-1" d="M166.2818,476.477c-1.4075-2.0316-4.3293-1.8538-4.6958-1.826-2.0337.1541-4.6189,1.4252-5.0869,3.6522-.6023,2.8661,2.6567,5.6284,5.3479,6,.4045.0558,1.0679.1398,1.8262-.1304,2.5405-.9053,4.3708-5.1523,2.6086-7.6957Z"/>
      <path class="cls-1" d="M134.1297,475.1074c-.1824-.2518-1.3362-1.8448-2.7393-1.4348-1.0251.2996-1.6399,1.5093-1.5,2.6087.1426,1.121,1.0505,1.9778,2.0869,2.1522,1.177.198,2.498-.4877,2.7393-1.5.1821-.7643-.3147-1.4502-.5869-1.8261Z"/>
      <path class="cls-1" d="M119.5208,469.0422c-.3833-.7758-1.3352-1.8157-2.6411-1.6631-.9836.1149-1.8274.8666-2.0544,1.7609-.3726,1.4684,1.0464,2.8165,2.25,3.2283.2717.093,1.2957.4432,2.0544-.0978.9182-.6548.8904-2.2177.3911-3.2283Z"/>
      <path class="cls-1" d="M410.1949,462.651c-.2053-.2704-1.6313-2.0863-3.9131-2.087-.3557-.0001-2.7646-.0008-3.3914,1.6956-.425,1.1507.1321,2.6434,1.4348,3.5218"/>
      <g>
        <path class="cls-2" d="M415.0246,154.7466c-6.1152,0-11.0908-4.9756-11.0908-11.0913s4.9756-11.0913,11.0908-11.0913,11.0908,4.9756,11.0908,11.0913-4.9756,11.0913-11.0908,11.0913Z"/>
        <path class="cls-3" d="M415.0248,133.7598c5.4651,0,9.8955,4.4302,9.8955,9.8955s-4.4304,9.8955-9.8955,9.8955-9.8954-4.4302-9.8954-9.8955,4.4303-9.8955,9.8954-9.8955M415.0248,131.3682c-6.7749,0-12.2867,5.5122-12.2867,12.2871s5.5118,12.2871,12.2867,12.2871,12.2869-5.5122,12.2869-12.2871-5.5118-12.2871-12.2869-12.2871h0Z"/>
      </g>
      <g>
        <path class="cls-2" d="M474.2678,104.1304c-4.791,0-8.6885-3.8975-8.6885-8.6882s3.8975-8.6885,8.6885-8.6885,8.6885,3.8977,8.6885,8.6885-3.8975,8.6882-8.6885,8.6882Z"/>
        <path class="cls-3" d="M474.2681,88.2031c3.998,0,7.2391,3.2407,7.2391,7.2388s-3.2411,7.2393-7.2391,7.2393-7.2391-3.2412-7.2391-7.2393,3.2411-7.2388,7.2391-7.2388M474.2681,85.3047c-5.5898,0-10.1375,4.5474-10.1375,10.1372s4.5476,10.1377,10.1375,10.1377,10.1375-4.5479,10.1375-10.1377-4.5476-10.1372-10.1375-10.1372h0Z"/>
      </g>
      <g>
        <circle class="cls-2" cx="511.344" cy="103.4861" r="8.1992"/>
        <path class="cls-3" d="M511.3441,96.7358c3.728,0,6.75,3.0225,6.75,6.75s-3.022,6.75-6.75,6.75-6.75-3.022-6.75-6.75,3.0221-6.75,6.75-6.75M511.3441,93.8374c-5.3202,0-9.6483,4.3281-9.6483,9.6484s4.3281,9.6484,9.6483,9.6484,9.6483-4.3281,9.6483-9.6484-4.3281-9.6484-9.6483-9.6484h0Z"/>
      </g>
      <g>
        <path class="cls-2" d="M509.8791,67.3704c-8.126,0-14.7363-6.6106-14.7363-14.7361s6.6104-14.7358,14.7363-14.7358,14.7354,6.6106,14.7354,14.7358-6.6104,14.7361-14.7354,14.7361Z"/>
        <path class="cls-3" d="M509.8789,39.3477c7.3381,0,13.2867,5.9487,13.2867,13.2866s-5.9486,13.2866-13.2867,13.2866-13.2866-5.9487-13.2866-13.2866,5.9486-13.2866,13.2866-13.2866M509.8789,36.4492c-8.9244,0-16.1849,7.2607-16.1849,16.1851s7.2605,16.1851,16.1849,16.1851,16.1851-7.2607,16.1851-16.1851-7.2605-16.1851-16.1851-16.1851h0Z"/>
      </g>
      <g>
        <path class="cls-2" d="M476.1692,21.8047c-5.6123,0-10.1777-4.5657-10.1777-10.1777s4.5654-10.1775,10.1777-10.1775,10.1777,4.5657,10.1777,10.1775-4.5654,10.1777-10.1777,10.1777Z"/>
        <path class="cls-3" d="M476.1691,2.8984c4.8206,0,8.7284,3.9082,8.7284,8.7285s-3.9078,8.7285-8.7284,8.7285-8.7284-3.9077-8.7284-8.7285,3.9078-8.7285,8.7284-8.7285M476.1691,0c-6.411,0-11.6267,5.2158-11.6267,11.627s5.2157,11.627,11.6267,11.627,11.6267-5.2158,11.6267-11.627-5.2157-11.627-11.6267-11.627h0Z"/>
      </g>
      <g>
        <path class="cls-2" d="M468.5491,67.3704c-3.8604,0-7.001-3.1409-7.001-7.0012s3.1406-7.001,7.001-7.001,7.001,3.1406,7.001,7.001-3.1406,7.0012-7.001,7.0012Z"/>
        <path class="cls-3" d="M468.5488,54.8174c3.0662,0,5.5519,2.4858,5.5519,5.5518s-2.4857,5.5518-5.5519,5.5518-5.5518-2.4854-5.5518-5.5518,2.4856-5.5518,5.5518-5.5518M468.5488,51.9189c-4.6594,0-8.4501,3.791-8.4501,8.4502s3.7906,8.4502,8.4501,8.4502,8.4502-3.791,8.4502-8.4502-3.7908-8.4502-8.4502-8.4502h0Z"/>
      </g>
      <g>
        <path class="cls-2" d="M451.2786,141.8914c-3.334,0-6.0469-2.7126-6.0469-6.0471s2.7129-6.0471,6.0469-6.0471,6.0479,2.7126,6.0479,6.0471-2.7129,6.0471-6.0479,6.0471Z"/>
        <path class="cls-3" d="M451.2789,131.2466c2.5393,0,4.5979,2.0586,4.5979,4.5977s-2.0586,4.5977-4.5979,4.5977-4.5978-2.0581-4.5978-4.5977,2.0585-4.5977,4.5978-4.5977M451.2789,128.3481c-4.1334,0-7.4961,3.3628-7.4961,7.4961s3.3627,7.4961,7.4961,7.4961,7.4962-3.3628,7.4962-7.4961-3.3628-7.4961-7.4962-7.4961h0Z"/>
      </g>
      <g>
        <path class="cls-2" d="M434.9905,167.6196c-2.7139,0-4.9219-2.208-4.9219-4.9221s2.208-4.9221,4.9219-4.9221,4.9229,2.208,4.9229,4.9221-2.208,4.9221-4.9229,4.9221Z"/>
        <path class="cls-3" d="M434.991,159.2246c1.918,0,3.4728,1.5547,3.4728,3.4731s-1.5548,3.4727-3.4728,3.4727-3.4729-1.5547-3.4729-3.4727,1.5548-3.4731,3.4729-3.4731M434.991,156.3262c-3.5132,0-6.3712,2.8584-6.3712,6.3716s2.858,6.3711,6.3712,6.3711,6.3711-2.8579,6.3711-6.3711-2.858-6.3716-6.3711-6.3716h0Z"/>
      </g>
      <g>
        <path class="cls-2" d="M568.3772,166.3911c-4.8994,0-8.8848-3.9854-8.8848-8.8838s3.9854-8.884,8.8848-8.884,8.8838,3.9854,8.8838,8.884-3.9854,8.8838-8.8838,8.8838Z"/>
        <path class="cls-3" d="M568.3768,150.0723c4.1061,0,7.4347,3.3286,7.4347,7.4351s-3.3286,7.4346-7.4347,7.4346-7.4348-3.3286-7.4348-7.4346,3.3286-7.4351,7.4348-7.4351M568.3768,147.1738c-5.6978,0-10.3331,4.6357-10.3331,10.3335s4.6354,10.333,10.3331,10.333,10.333-4.6353,10.333-10.333-4.6354-10.3335-10.333-10.3335h0Z"/>
      </g>
      <g>
        <path class="cls-2" d="M600.4641,109.2173c-6.4092,0-11.623-5.2141-11.623-11.623s5.2139-11.623,11.623-11.623,11.623,5.2141,11.623,11.623-5.2139,11.623-11.623,11.623Z"/>
        <path class="cls-3" d="M600.4637,87.4204c5.6189,0,10.174,4.5552,10.174,10.1738s-4.5551,10.1738-10.174,10.1738-10.174-4.5547-10.174-10.1738,4.5551-10.1738,10.174-10.1738M600.4637,84.522c-7.2081,0-13.0723,5.8643-13.0723,13.0723s5.8641,13.0723,13.0723,13.0723,13.0723-5.8643,13.0723-13.0723-5.8641-13.0723-13.0723-13.0723h0Z"/>
      </g>
      <g>
        <path class="cls-2" d="M639.0071,184.6865c-7.8115,0-14.166-6.3552-14.166-14.1667s6.3545-14.1665,14.166-14.1665,14.167,6.355,14.167,14.1665-6.3555,14.1667-14.167,14.1667Z"/>
        <path class="cls-3" d="M639.0072,157.8022c7.0237,0,12.7174,5.6938,12.7174,12.7178s-5.6937,12.7173-12.7174,12.7173-12.7174-5.6938-12.7174-12.7173,5.6938-12.7178,12.7174-12.7178M639.0072,154.9038c-8.6106,0-15.6157,7.0054-15.6157,15.6162s7.0051,15.6157,15.6157,15.6157,15.6157-7.0054,15.6157-15.6157-7.0051-15.6162-15.6157-15.6162h0Z"/>
      </g>
      <g>
        <path class="cls-2" d="M562.7024,218.3914c-3.9277,0-7.123-3.1956-7.123-7.1233s3.1953-7.123,7.123-7.123,7.124,3.1953,7.124,7.123-3.1963,7.1233-7.124,7.1233Z"/>
        <path class="cls-3" d="M562.7029,205.5942c3.1335,0,5.674,2.5405,5.674,5.6738s-2.5404,5.6738-5.674,5.6738-5.674-2.54-5.674-5.6738,2.5403-5.6738,5.674-5.6738M562.7029,202.6958c-4.7268,0-8.5723,3.8457-8.5723,8.5723s3.8455,8.5723,8.5723,8.5723,8.5723-3.8457,8.5723-8.5723-3.8455-8.5723-8.5723-8.5723h0Z"/>
      </g>
      <g>
        <path class="cls-2" d="M608.8772,224.6521c-2.6328,0-4.7754-2.1421-4.7754-4.7751s2.1426-4.7754,4.7754-4.7754,4.7744,2.1423,4.7744,4.7754-2.1416,4.7751-4.7744,4.7751Z"/>
        <path class="cls-3" d="M608.8768,216.5508c1.8369,0,3.326,1.4893,3.326,3.3262s-1.4891,3.3262-3.326,3.3262-3.3262-1.4893-3.3262-3.3262,1.4891-3.3262,3.3262-3.3262M608.8768,213.6523c-3.4323,0-6.2245,2.7925-6.2245,6.2246s2.7922,6.2246,6.2245,6.2246,6.2244-2.7925,6.2244-6.2246-2.7922-6.2246-6.2244-6.2246h0Z"/>
      </g>
      <g>
        <path class="cls-2" d="M474.6916,232.27c-1.7695,0-3.21-1.4399-3.21-3.21s1.4404-3.2102,3.21-3.2102,3.21,1.4402,3.21,3.2102-1.4404,3.21-3.21,3.21Z"/>
        <path class="cls-3" d="M474.692,227.2993c.9725,0,1.7609.7881,1.7609,1.7607s-.7883,1.7607-1.7609,1.7607-1.7609-.7881-1.7609-1.7607.7883-1.7607,1.7609-1.7607M474.692,224.4009c-2.5691,0-4.6592,2.0903-4.6592,4.6592s2.0901,4.6592,4.6592,4.6592,4.6592-2.0903,4.6592-4.6592-2.0901-4.6592-4.6592-4.6592h0Z"/>
      </g>
      <g>
        <path class="cls-2" d="M493.7024,223.7644c-3.7832,0-6.8613-3.0784-6.8613-6.8623s3.0781-6.8621,6.8613-6.8621,6.8623,3.0784,6.8623,6.8621-3.0781,6.8623-6.8623,6.8623Z"/>
        <path class="cls-3" d="M493.7027,211.4893c2.9896,0,5.4131,2.4233,5.4131,5.4131s-2.4235,5.4131-5.4131,5.4131-5.413-2.4238-5.413-5.4131,2.4235-5.4131,5.413-5.4131M493.7027,208.5908c-4.5829,0-8.3113,3.7285-8.3113,8.3115s3.7284,8.3115,8.3113,8.3115,8.3114-3.7285,8.3114-8.3115-3.7284-8.3115-8.3114-8.3115h0Z"/>
      </g>
      <g>
        <path class="cls-2" d="M470.469,253.3479c-2.1562,0-3.9111-1.7546-3.9111-3.9114s1.7549-3.9111,3.9111-3.9111,3.9111,1.7546,3.9111,3.9111-1.7549,3.9114-3.9111,3.9114Z"/>
        <path class="cls-3" d="M470.4691,246.9746c1.3597,0,2.462,1.1025,2.462,2.4619s-1.1023,2.4619-2.462,2.4619-2.4619-1.1021-2.4619-2.4619,1.1023-2.4619,2.4619-2.4619M470.4691,244.0762c-2.9557,0-5.3602,2.4048-5.3602,5.3604s2.4045,5.3604,5.3602,5.3604,5.3604-2.4048,5.3604-5.3604-2.4047-5.3604-5.3604-5.3604h0Z"/>
      </g>
      <g>
        <path class="cls-2" d="M451.9963,243.1086c-4.6113,0-8.3623-3.7512-8.3623-8.3623s3.751-8.3621,8.3623-8.3621,8.3623,3.7512,8.3623,8.3621-3.751,8.3623-8.3623,8.3623Z"/>
        <path class="cls-3" d="M451.9963,227.8335c3.818,0,6.9131,3.0947,6.9131,6.9131s-3.0951,6.9131-6.9131,6.9131-6.9131-3.0952-6.9131-6.9131,3.0951-6.9131,6.9131-6.9131M451.9963,224.9351c-5.41,0-9.8114,4.4014-9.8114,9.8115s4.4014,9.8115,9.8114,9.8115,9.8114-4.4014,9.8114-9.8115-4.4014-9.8115-9.8114-9.8115h0Z"/>
      </g>
      <g>
        <path class="cls-2" d="M534.2356,193.0205c-3.1191,0-5.6562-2.5371-5.6562-5.6558s2.5371-5.6558,5.6562-5.6558,5.6553,2.5371,5.6553,5.6558-2.5371,5.6558-5.6553,5.6558Z"/>
        <path class="cls-3" d="M534.2355,183.1582c2.3232,0,4.2065,1.8833,4.2065,4.2065s-1.8833,4.2065-4.2065,4.2065-4.2065-1.8833-4.2065-4.2065,1.8833-4.2065,4.2065-4.2065M534.2355,180.2598c-3.9176,0-7.1049,3.1875-7.1049,7.105s3.1873,7.105,7.1049,7.105,7.1049-3.1875,7.1049-7.105-3.1873-7.105-7.1049-7.105h0Z"/>
      </g>
      <g>
        <path class="cls-2" d="M578.4202,271.3479c-5.1143,0-9.2754-4.1609-9.2754-9.2754s4.1611-9.2754,9.2754-9.2754,9.2754,4.1609,9.2754,9.2754-4.1611,9.2754-9.2754,9.2754Z"/>
        <path class="cls-3" d="M578.4203,254.2466c4.3221,0,7.826,3.5039,7.826,7.8262s-3.5039,7.8257-7.826,7.8257-7.8262-3.5039-7.8262-7.8257,3.5039-7.8262,7.8262-7.8262M578.4203,251.3481c-5.9136,0-10.7245,4.811-10.7245,10.7246s4.8109,10.7241,10.7245,10.7241,10.7244-4.811,10.7244-10.7241-4.8109-10.7246-10.7244-10.7246h0Z"/>
      </g>
      <g>
        <path class="cls-2" d="M635.6809,259.8721c-5.1865,0-9.4053-4.2195-9.4053-9.4058s4.2188-9.4058,9.4053-9.4058,9.4062,4.2195,9.4062,9.4058-4.2197,9.4058-9.4062,9.4058Z"/>
        <path class="cls-3" d="M635.6811,242.5098c4.3943,0,7.9565,3.5625,7.9565,7.9565s-3.5623,7.9565-7.9565,7.9565-7.9565-3.562-7.9565-7.9565,3.5623-7.9565,7.9565-7.9565M635.6811,239.6113c-5.9855,0-10.8549,4.8696-10.8549,10.855s4.8694,10.855,10.8549,10.855,10.8549-4.8696,10.8549-10.855-4.8694-10.855-10.8549-10.855h0Z"/>
      </g>
      <g>
        <path class="cls-2" d="M608.4856,342.8262c-3.9277,0-7.123-3.1956-7.123-7.1233s3.1953-7.123,7.123-7.123,7.123,3.1953,7.123,7.123-3.1953,7.1233-7.123,7.1233Z"/>
        <path class="cls-3" d="M608.4855,330.0288c3.1337,0,5.674,2.5405,5.674,5.6743s-2.5403,5.6738-5.674,5.6738-5.674-2.5405-5.674-5.6738,2.5403-5.6743,5.674-5.6743M608.4855,327.1304c-4.7268,0-8.5723,3.8457-8.5723,8.5728s3.8455,8.5723,8.5723,8.5723,8.5723-3.8457,8.5723-8.5723-3.8455-8.5728-8.5723-8.5728h0Z"/>
      </g>
      <g>
        <circle class="cls-2" cx="557.4202" cy="314.999" r="4.9708"/>
        <path class="cls-3" d="M557.4203,311.4775c1.9449,0,3.5217,1.5767,3.5217,3.5215s-1.5768,3.522-3.5217,3.522-3.5217-1.5767-3.5217-3.522,1.5767-3.5215,3.5217-3.5215M557.4203,308.5791c-3.54,0-6.42,2.8799-6.42,6.4199s2.88,6.4204,6.42,6.4204,6.42-2.8804,6.42-6.4204-2.88-6.4199-6.42-6.4199h0Z"/>
      </g>
      <g>
        <path class="cls-2" d="M548.3547,279.8262c-3.1367,0-5.6885-2.5518-5.6885-5.6885s2.5518-5.6882,5.6885-5.6882,5.6885,2.5518,5.6885,5.6882-2.5518,5.6885-5.6885,5.6885Z"/>
        <path class="cls-3" d="M548.355,269.8984c2.3413,0,4.2391,1.8979,4.2391,4.2393s-1.8978,4.2393-4.2391,4.2393-4.239-1.8979-4.239-4.2393,1.8978-4.2393,4.239-4.2393M548.355,267c-3.9355,0-7.1373,3.2021-7.1373,7.1377s3.2018,7.1377,7.1373,7.1377,7.1375-3.2021,7.1375-7.1377-3.2018-7.1377-7.1375-7.1377h0Z"/>
      </g>
      <g>
        <path class="cls-2" d="M577.3118,47.0232c-5.7256,0-10.3838-4.6582-10.3838-10.384s4.6582-10.384,10.3838-10.384,10.3838,4.6582,10.3838,10.384-4.6582,10.384-10.3838,10.384Z"/>
        <path class="cls-3" d="M577.3115,27.7041c4.9346,0,8.9348,4.0005,8.9348,8.9351s-4.0002,8.9346-8.9348,8.9346-8.9347-4-8.9347-8.9346,4.0001-8.9351,8.9347-8.9351M577.3115,24.8057c-6.5248,0-11.833,5.3086-11.833,11.8335s5.3082,11.833,11.833,11.833,11.8331-5.3081,11.8331-11.833-5.3083-11.8335-11.8331-11.8335h0Z"/>
      </g>
      <g>
        <path class="cls-2" d="M557.6487,386.6521c-3.5859,0-6.5039-2.9175-6.5039-6.5034s2.918-6.5037,6.5039-6.5037,6.5029,2.9175,6.5029,6.5037-2.917,6.5034-6.5029,6.5034Z"/>
        <path class="cls-3" d="M557.6485,375.0942c2.7914,0,5.0543,2.2627,5.0543,5.0542s-2.2629,5.0547-5.0543,5.0547-5.0544-2.2632-5.0544-5.0547,2.2629-5.0542,5.0544-5.0542M557.6485,372.1958c-4.3851,0-7.9528,3.5674-7.9528,7.9526s3.5676,7.9531,7.9528,7.9531,7.9526-3.5679,7.9526-7.9531-3.5675-7.9526-7.9526-7.9526h0Z"/>
      </g>
      <g>
        <path class="cls-2" d="M455.8713,368.9131c-1.8779,0-3.4053-1.5278-3.4053-3.4058s1.5273-3.4058,3.4053-3.4058,3.4062,1.5278,3.4062,3.4058-1.5283,3.4058-3.4062,3.4058Z"/>
        <path class="cls-3" d="M455.8717,363.5508c1.0806,0,1.9565.876,1.9565,1.9565s-.876,1.9565-1.9565,1.9565-1.9565-.876-1.9565-1.9565.876-1.9565,1.9565-1.9565M455.8717,360.6523c-2.677,0-4.8549,2.1777-4.8549,4.855s2.1779,4.855,4.8549,4.855,4.8549-2.1777,4.8549-4.855-2.1779-4.855-4.8549-4.855h0Z"/>
      </g>
      <g>
        <path class="cls-2" d="M478.1155,365c-1.8779,0-3.4053-1.5278-3.4053-3.4058s1.5273-3.4058,3.4053-3.4058,3.4062,1.5278,3.4062,3.4058-1.5283,3.4058-3.4062,3.4058Z"/>
        <path class="cls-3" d="M478.116,359.6377c1.0804,0,1.9564.876,1.9564,1.9565s-.876,1.9565-1.9564,1.9565-1.9565-.876-1.9565-1.9565.876-1.9565,1.9565-1.9565M478.116,356.7393c-2.677,0-4.8549,2.1777-4.8549,4.855s2.1779,4.855,4.8549,4.855,4.8547-2.1777,4.8547-4.855-2.1779-4.855-4.8547-4.855h0Z"/>
      </g>
      <g>
        <path class="cls-2" d="M597.3655,438.4197c-6.9307,0-12.5684-5.6382-12.5684-12.5686s5.6377-12.5688,12.5684-12.5688,12.5693,5.6384,12.5693,12.5688-5.6387,12.5686-12.5693,12.5686Z"/>
        <path class="cls-3" d="M597.366,414.7314c6.1411,0,11.1195,4.9785,11.1195,11.1196s-4.9784,11.1196-11.1195,11.1196-11.1196-4.9785-11.1196-11.1196,4.9784-11.1196,11.1196-11.1196M597.366,411.833c-7.7295,0-14.0179,6.2886-14.0179,14.0181s6.2885,14.0181,14.0179,14.0181,14.0178-6.2886,14.0178-14.0181-6.2883-14.0181-14.0178-14.0181h0Z"/>
      </g>
      <g>
        <path class="cls-2" d="M665.4202,389.4646c-8.3506,0-15.1445-6.7939-15.1445-15.1448s6.7939-15.1448,15.1445-15.1448,15.1445,6.7939,15.1445,15.1448-6.7939,15.1448-15.1445,15.1448Z"/>
        <path class="cls-3" d="M665.4203,360.624c7.5638,0,13.6957,6.1318,13.6957,13.6958s-6.1318,13.6958-13.6957,13.6958-13.6957-6.1318-13.6957-13.6958,6.1317-13.6958,13.6957-13.6958M665.4203,357.7256c-9.15,0-16.594,7.4443-16.594,16.5942s7.444,16.5942,16.594,16.5942,16.594-7.4443,16.594-16.5942-7.444-16.5942-16.594-16.5942h0Z"/>
      </g>
      <g>
        <path class="cls-2" d="M543.6721,416.1807c-2.3525,0-4.2666-1.9138-4.2666-4.2661s1.9141-4.2661,4.2666-4.2661,4.2656,1.9138,4.2656,4.2661-1.9131,4.2661-4.2656,4.2661Z"/>
        <path class="cls-3" d="M543.6719,409.0977c1.5558,0,2.8169,1.2612,2.8169,2.8169s-1.2611,2.8169-2.8169,2.8169-2.8169-1.2612-2.8169-2.8169,1.2612-2.8169,2.8169-2.8169M543.6719,406.1992c-3.1514,0-5.7152,2.564-5.7152,5.7153s2.5638,5.7153,5.7152,5.7153,5.7152-2.564,5.7152-5.7153-2.5638-5.7153-5.7152-5.7153h0Z"/>
      </g>
      <g>
        <path class="cls-2" d="M525.7903,384.0435c-1.9863,0-3.6016-1.6155-3.6016-3.6013s1.6152-3.6016,3.6016-3.6016,3.6006,1.6157,3.6006,3.6016-1.6152,3.6013-3.6006,3.6013Z"/>
        <path class="cls-3" d="M525.7898,378.29c1.1886,0,2.1522.9634,2.1522,2.1519s-.9636,2.1523-2.1522,2.1523-2.1521-.9634-2.1521-2.1523.9635-2.1519,2.1521-2.1519M525.7898,375.3916c-2.7848,0-5.0504,2.2656-5.0504,5.0503s2.2656,5.0508,5.0504,5.0508,5.0505-2.2656,5.0505-5.0508-2.2656-5.0503-5.0505-5.0503h0Z"/>
      </g>
      <g>
        <path class="cls-2" d="M516.5618,452.3914c-5.8877,0-10.6777-4.79-10.6777-10.6775s4.79-10.6775,10.6777-10.6775,10.6777,4.79,10.6777,10.6775-4.79,10.6775-10.6777,10.6775Z"/>
        <path class="cls-3" d="M516.5615,432.4854c5.0967,0,9.2283,4.1318,9.2283,9.2285s-4.1316,9.228-9.2283,9.228-9.2283-4.1313-9.2283-9.228,4.1317-9.2285,9.2283-9.2285M516.5615,429.5869c-6.6866,0-12.1266,5.4399-12.1266,12.127s5.4399,12.1265,12.1266,12.1265,12.1266-5.4399,12.1266-12.1265-5.4399-12.127-12.1266-12.127h0Z"/>
      </g>
      <g>
        <path class="cls-2" d="M574.6809,488.6929c-4.2754,0-7.7529-3.4783-7.7529-7.7537s3.4775-7.7534,7.7529-7.7534,7.7539,3.4783,7.7539,7.7534-3.4785,7.7537-7.7539,7.7537Z"/>
        <path class="cls-3" d="M574.681,474.6353c3.4817,0,6.3042,2.8223,6.3042,6.3042s-2.8225,6.3042-6.3042,6.3042-6.3042-2.8228-6.3042-6.3042,2.8225-6.3042,6.3042-6.3042M574.681,471.7368c-5.0743,0-9.2025,4.1284-9.2025,9.2026s4.1282,9.2026,9.2025,9.2026,9.2025-4.1284,9.2025-9.2026-4.1282-9.2026-9.2025-9.2026h0Z"/>
      </g>
      <g>
        <path class="cls-2" d="M638.0286,488.8992c-6.4805,0-11.7529-5.2727-11.7529-11.7537s5.2725-11.7537,11.7529-11.7537,11.7539,5.2727,11.7539,11.7537-5.2725,11.7537-11.7539,11.7537Z"/>
        <path class="cls-3" d="M638.0289,466.8413c5.6909,0,10.3043,4.6133,10.3043,10.3042s-4.6134,10.3042-10.3043,10.3042-10.3043-4.6133-10.3043-10.3042,4.6134-10.3042,10.3043-10.3042M638.0289,463.9429c-7.28,0-13.2026,5.9229-13.2026,13.2026s5.9226,13.2026,13.2026,13.2026,13.2026-5.9229,13.2026-13.2026-5.9226-13.2026-13.2026-13.2026h0Z"/>
      </g>
      <g>
        <path class="cls-2" d="M695.7922,323.9685c-7.5078,0-13.6162-6.1082-13.6162-13.6162s6.1084-13.6165,13.6162-13.6165,13.6172,6.1084,13.6172,13.6165-6.1084,13.6162-13.6172,13.6162Z"/>
        <path class="cls-3" d="M695.7927,299.1538c6.1848,0,11.1985,5.0137,11.1985,11.1982s-5.0137,11.1987-11.1985,11.1987-11.1986-5.0137-11.1986-11.1987,5.0138-11.1982,11.1986-11.1982M695.7927,294.3184c-8.8412,0-16.0341,7.1929-16.0341,16.0337s7.1929,16.0342,16.0341,16.0342,16.0339-7.1929,16.0339-16.0342-7.1927-16.0337-16.0339-16.0337h0Z"/>
      </g>
      <g>
        <path class="cls-2" d="M698.4368,236.1956c-8.4316,0-15.292-6.8599-15.292-15.2915s6.8604-15.2917,15.292-15.2917,15.291,6.8599,15.291,15.2917-6.8594,15.2915-15.291,15.2915Z"/>
        <path class="cls-3" d="M698.4365,207.0615c7.645,0,13.8424,6.1978,13.8424,13.8423s-6.1974,13.8428-13.8424,13.8428-13.8424-6.1978-13.8424-13.8428,6.1975-13.8423,13.8424-13.8423M698.4365,204.1631c-9.231,0-16.7407,7.5098-16.7407,16.7407s7.5098,16.7412,16.7407,16.7412,16.7407-7.5103,16.7407-16.7412-7.5098-16.7407-16.7407-16.7407h0Z"/>
      </g>
    </g>
  </g>
</svg>