<?xml version="1.0" encoding="UTF-8"?>
<svg id="Capa_2" xmlns="http://www.w3.org/2000/svg" viewBox="0 0 1063.5486 772.3532">
  <defs>
    <style>
      .cls-1 {
        opacity: .63;
      }

      .cls-1, .cls-2 {
        fill: #ef7f8f;
      }

      .cls-3, .cls-4 {
        fill: #bf3441;
      }

      .cls-4 {
        stroke: #ef7f8f;
        stroke-miterlimit: 10;
        stroke-width: 7.2921px;
      }

      .cls-5 {
        fill: #e55e6c;
      }

      .cls-6 {
        fill: #d6404a;
      }

      .cls-7 {
        fill: #b22f3f;
      }
    </style>
  </defs>
  <g id="Capa_1-2" data-name="Capa_1">
    <g>
      <path class="cls-4" d="M591.7346,181.2202c5.2762-11.5303,3.0874-39.7922,22.3016-43.8703,17.3687-3.6864,33.803,23.8916,40.308,29.0657,2.1289,1.6933,25.5785,21.458,24.6963,51.3053-.3452,11.6797-9.71,19.4518-15.2084,28.5086-4.5119,7.4318-5.0882,16.3195-7.2713,23.9149-2.3058,8.0225-1.8546,16.6215,4.4333,26.8218,3.2363,5.25,9.0787,17.4066,19.3065,24.339,11.8596,8.0384,28.2458,10.9065,31.5867,17.2294,17.7864,33.6622-12.8036,55.6364-15.9534,77.3022-3.7022,25.4649,29.425,32.3834,40.4846,55.3755,10.5997,22.0359,11.809,29.0261,9.0439,40.3315-4.953,20.2508-.3273,22.3974-18.0991,31.8309-11.9354,6.3355-53.7303-16.1668-69.4828-16.9588-40.8324-2.0529-62.7244,4.4005-88.3796-21.027-61.8345-61.2859-56.0839-148.4823-54.6675-164.5987,4.0865-46.4995,18.7799-32.5535,76.9012-159.5699Z"/>
      <path class="cls-1" d="M613.4312,261.0383c65.2981,13.3501,63.5863-3.331,73.585-21.048,1.4401-2.5519,15.1441-10.7629,12.1914-28.3585-1.8395-10.9611-6.6937-14.2512-8.9691-29.1907-1.0734-7.0469-2.2684-15.4919.6712-25.5342,1.1085-3.7871,5.1122-17.4651,17.9039-25.1488,7.5736-4.5494,14.6494-4.8478,26.1565-5.3332,8.6137-.3634,15.2676-.644,22.9794,2.4532,6.1488,2.4695,5.9996,4.2868,18.2855,12.0575,8.2388,5.2109,12.3585,7.8165,17.1331,9.3166,10.0525,3.1584,19.0938,1.9264,25.3123,1.079,11.173-1.5225,11.6419-4.0281,20.3026-4.288,7.8545-.2358,13.5287,1.6435,21.4624,4.271,7.8321,2.5939,17.6677,5.9719,25.8858,14.6047,2.9334,3.0814,4.4962,5.6091,4.9742,6.4047,4.5901,7.6415,4.9805,15.1321,4.9891,18.0411.026,8.9028-3.4075,15.6797-5.6811,20.1672-1.4676,2.8967-1.7936,2.8749-3.1055,5.711-2.1201,4.5829-4.9685,10.7402-4.0923,16.2741,1.2493,7.8925,8.9054,7.1303,11.9163,15.9938,1.475,4.3417.6329,9.0466-1.0508,18.4565-2.0426,11.4159-4.1023,12.511-3.0546,16.3098,1.7596,6.3796,8.7219,7.4734,21.3271,14.2399,13.5826,7.2913,23.1557,12.4303,28.1191,22.1618,6.7063,13.1488,1.7087,28.2331,1.0394,30.1643-3.6496,10.5314-8.6747,10.1581-10.8693,19.9887-1.6775,7.5138-.106,13.8418,3.0359,26.4928,3.5112,14.138,5.4218,13.1149,5.7692,19.5223.8234,15.1845-9.5637,27.2491-13.7812,32.1478-3.7423,4.347-10.1176,11.5708-21.1035,15.4806-9.5794,3.409-17.9184,2.6095-22.3066,2.1411-7.0139-.7486-8.413-2.2126-20.9831-6.1246-16.513-5.139-24.7696-7.7086-32.3974-6.5174-10.635,1.6607-10.3918,6.7408-21.4833,8.403-13.5957,2.0377-24.834-3.9654-28.0606-5.7448-11.1936-6.173-17.0021-15.3307-21.8572-22.9851-6.4439-10.159-11.6235-1.2324-18.042-10.1969-7.5789-10.585-18.9996-10.4485-31.7675-3.9842-17.8601,9.0427-32.6255,65.684-38.8109,65.6966-23.462.0479-11.109-66.2715-23.3301-69.4449-24.3456-6.3217-86.7326-85.9088-70.379-113.7186,2.2814-3.8797,27.6655-42.0916,38.0856-39.9612Z"/>
      <g>
        <path class="cls-6" d="M342.654,768.7072c-5.3584,0-10.8105-.124-16.2061-.3701-28.1523-1.2842-55.5049-5.2656-81.2979-11.8359-22.1133-5.627-43.2422-13.207-62.7969-22.5293,0,0-.3994-.1797-.5283-.2422-.6816-.3203-1.3945-.665-2.0977-1.0088-67.2979-32.7871-120.9131-92.6514-150.9648-168.5635-3.085-7.7764-5.9492-15.8115-8.5146-23.8809-1.0205-3.2041-2.0459-6.6025-3.0469-10.0991-.3633-1.2529-.7207-2.5161-1.0576-3.7861-.2275-.7769-.4609-1.6484-.6836-2.5103-.3271-1.2061-.6562-2.4404-.9736-3.6924-.4014-1.5308-.791-3.0972-1.1709-4.6631-.3838-1.5493-.7539-3.1226-1.1143-4.6953-.6621-2.8545-1.3164-5.8511-1.9971-9.1499-1.0137-5.001-1.9082-9.8623-2.6631-14.4609-.7236-4.4048-1.3379-8.7588-1.8242-12.9404-5.0254-42.355-.8926-85.1479,12.2861-127.1816,12.6436-40.3262,33.6436-78.6562,60.7295-110.8467,52.4424-62.3242,123.6592-98.9224,200.5332-103.0522,8.6934-.4673,17.4541-.7046,26.0391-.7046,57.6426,0,109.8311,10.5337,150.9248,30.4624,7.2256,3.5063,48.2539,22.1494,68.8545,26.125,3.1123.6021,6.3262,1.3091,9.4346,1.9927,8.5254,1.875,17.3408,3.814,25,3.814,9.7559,0,15.9629-3.0259,20.1279-9.8105,2.3291-3.792,3.9639-7.9839,5.6943-12.4219,1.8779-4.8154,3.8203-9.7949,6.7588-14.3545,5.3438-8.3062,13.4219-20.8623,25.2227-20.8623.1924,0,.3848.0034.5781.0103,11.834.4316,12.9824,14.749,13.5986,22.4409.0488.6104.0957,1.1924.1445,1.7378.8096.5669,2.3135,1.376,3.1162,1.8076,1.2725.6846,2.0195,1.0942,2.584,1.5518,3.291,2.6509,5.6924,5.7783,7.1299,9.2891,2.5742,6.2876,1.7314,13.5903-2.1465,18.6035-2.1338,2.7656-4.8613,4.5791-7.499,6.333-2.0488,1.3623-3.9854,2.6494-5.3887,4.2461-1.5479,1.7676-2.6787,4.2236-3.6768,6.3906-3.4453,7.4189-6.875,14.8184-10.3057,22.2271-.627,1.3594-1.2109,2.6279-1.3018,3.7217-.1309,1.5669.6553,3.4155,1.4883,5.3726.252.5908.502,1.1802.7334,1.769,4.2109,10.7124,2.3613,23.5015-4.7109,32.5835-1.625,2.0889-3.5186,4.0654-5.3506,5.9766-4.5039,4.7002-8.7578,9.1401-8.0312,14.1265.5537,3.7642,4.0312,7.2285,10.3369,10.293.7832.3809,1.5801.7539,2.3799,1.1289,5.083,2.3828,10.8428,5.0835,14.4346,10.3062,2.3965,3.4873,3.3828,7.4077,4.3359,11.1992.9336,3.7129,1.8154,7.2202,3.9443,9.6309,1.3828,1.561,3.3789,2.7554,5.4922,4.0195l.3105.1865c7.2217,4.3281,14.6465,9.3008,20.0342,16.3223,6.2363,8.1284,8.5273,17.9653,6.127,26.3145-.0869.3013-.1797.6025-.2725.9043-.2764.8931-.5625,1.8174-.4893,2.3345.0967.6992.9209,1.627,1.7939,2.6094.6387.7192,1.3633,1.5347,1.9912,2.4683,4.3047,6.4438,1.8164,13.7241-.3789,20.1475-.5322,1.5571-1.0352,3.0283-1.4326,4.4478-1.9053,6.8105-.3867,15.8687,5.4531,19.2354,2.1172,1.2168,4.832,1.6104,7.7061,2.0273,1.915.2778,3.8965.5649,5.8818,1.1133,7.5947,2.1055,11.6592,7.2578,15.5889,12.2402,1.002,1.2695,2.0371,2.582,3.1143,3.8174,2.6318,3.0225,5.9004,5.3765,8.751,7.2812,1.1562.7798,2.3164,1.5327,3.4775,2.2861.9355.6079,1.8721,1.2158,2.8027,1.8345,11.9111,7.9316,18.2627,28.6484,18.1943,44.1152,0,.1479-.001.3022-.0029.459,2.9756,8.3438,2.6475,16.4663-.9775,24.1528-6.3594,13.4756-22.0225,21.2031-42.9727,21.2031-2.041,0-4.1123-.0791-6.1582-.2354-5.5693-.4258-10.5527-.6328-15.2354-.6328-29.4287,0-48.9502,8.687-63.2969,28.1675-8.0654,10.9487-14.0322,23.6685-19.8027,35.9688-2.6895,5.7349-5.4717,11.665-8.4502,17.3955-22.3867,43.084-56.207,76.4214-100.5225,99.0864-39.9746,20.4443-87.6211,31.252-137.7881,31.2529Z"/>
        <path class="cls-2" d="M305.3057,136.1403c50.9756,0,104.364,8.2889,149.3325,30.0967,4.8091,2.3332,47.9778,22.2219,69.7546,26.4245,11.6316,2.2501,24.1873,5.8725,35.1252,5.8725,9.5312,0,17.833-2.748,23.2356-11.5491,5.1453-8.3779,7.082-18.4412,12.4104-26.7086,5.2378-8.1417,12.5483-19.1898,22.1577-19.1911.1494,0,.2979.0026.4485.008,9.7937.3566,9.6057,15.0955,10.3459,21.9278.1738,1.5151,5.8794,3.9462,6.9324,4.7991,2.604,2.0971,4.7766,4.7249,6.0503,7.8373,1.9968,4.8759,1.5667,10.8252-1.6555,14.9918-3.3613,4.3561-9.1069,6.267-12.7424,10.4018-1.855,2.1193-3.0732,4.7176-4.2502,7.2737-3.4407,7.4089-6.8713,14.8097-10.3027,22.2195-.7297,1.5829-1.4819,3.2102-1.6262,4.9528-.2563,3.0631,1.3386,5.9204,2.4619,8.7776,3.7395,9.5141,2.084,20.9459-4.1951,29.0085-5.698,7.3248-15.4521,13.685-14.1121,22.8696.907,6.1739,6.7393,10.3189,12.3508,13.0458,5.6116,2.7269,11.8701,5.0833,15.4036,10.2218,4.3499,6.3287,3.4705,15.4236,8.552,21.1774,1.8386,2.077,4.2786,3.4922,6.6619,4.9203,7.0364,4.2177,14.0176,8.9013,19.0151,15.4142,4.9971,6.5129,7.7825,15.2023,5.5154,23.0877-.4504,1.5645-1.0967,3.1465-.8674,4.7595.3667,2.6529,2.8777,4.3802,4.3694,6.5988,4.1731,6.2465-.2693,14.3425-2.2964,21.5767-2.2004,7.8642-.522,18.9594,7.1418,23.3776,4.314,2.4786,9.6423,2.1725,14.4402,3.4969,8.2351,2.2831,11.709,8.9599,16.9255,14.9398,2.7656,3.1765,6.0466,5.6271,9.4731,7.9162,2.0718,1.3975,4.1958,2.7351,6.2871,4.1252,9.9602,6.633,16.635,25.4706,16.5659,41.0627.0015.3608-.0073.7297-.0151,1.0897,2.6753,7.0879,2.8918,14.5437-.6165,21.9828-6.646,14.0823-23.7026,19.1124-39.6746,19.1124-1.9849,0-3.9507-.0775-5.8801-.2251-5.2705-.4029-10.4504-.6432-15.5144-.6434-26.0449-.0003-49.0764,6.3563-66.2319,29.652-12.0654,16.3773-19.1702,35.7964-28.5525,53.8441-46.1895,88.8948-139.3108,128.3753-235.0747,128.3753-5.3442,0-10.6877-.1227-16.0408-.3667-27.1367-1.2368-54.2439-5.0222-80.5637-11.7262-21.3682-5.4382-42.2139-12.7944-62.1278-22.2872-.1768-.0823-.3456-.1542-.5132-.2355-.6981-.3279-1.3954-.6649-2.0834-1.0011-70.4543-34.3251-120.9985-95.4601-149.1742-166.6293-3.08-7.7661-5.8889-15.6535-8.4288-23.6436-1.0591-3.3224-2.0613-6.6577-3.0167-9.9976-.3588-1.2374-.7083-2.4741-1.0385-3.7178-.2419-.8284-.4646-1.664-.679-2.4897-.332-1.2256-.6559-2.4411-.9689-3.6739-.403-1.5379-.7867-3.0829-1.1613-4.6271-.3838-1.545-.7484-3.0975-1.1038-4.649-.7006-3.0188-1.3544-6.0423-1.98-9.0722-.9637-4.7554-1.8516-9.5309-2.6368-14.315-.6985-4.2578-1.3044-8.5156-1.7997-12.7714C-9.9523,311.2849,111.2706,145.8756,279.4607,136.8393c8.5068-.4572,17.1431-.699,25.845-.699M305.3057,128.8481c-8.6497,0-17.4768.2388-26.2363.7095-39.8157,2.1392-78.0732,12.782-113.7103,31.6329-33.7609,17.8586-63.8447,42.3224-89.4163,72.7122-27.3942,32.5562-48.6324,71.3209-61.4189,112.1035C1.1902,388.5344-2.9908,431.8391,2.097,474.7171c.4894,4.2065,1.1107,8.6171,1.845,13.0927.7622,4.6434,1.6659,9.5497,2.686,14.583.6976,3.3791,1.3578,6.4036,2.0234,9.2722.4185,1.8271.7791,3.3458,1.1302,4.759.4321,1.7829.8097,3.2874,1.1777,4.6927.3169,1.2473.6444,2.4777.9803,3.7178.1851.7124.429,1.6359.7017,2.575.3018,1.1337.6398,2.3427,1.0609,3.7952,1.0005,3.4978,2.0369,6.9318,3.0729,10.1816,2.5896,8.1469,5.483,16.2629,8.5979,24.117,14.7469,37.2498,34.944,70.6438,60.0283,99.2505,26.4797,30.1984,57.6788,54.1689,92.7306,71.246.7048.3445,1.427.6935,2.1501,1.0333.145.0695.2904.1357.4386.2024l.1105.05c19.7539,9.4126,41.0918,17.0667,63.4204,22.7494,26.0334,6.6311,53.6331,10.6497,82.0303,11.944,5.4478.2482,10.9563.3741,16.3728.3741,50.7412,0,98.9617-10.9451,139.4482-31.652,21.6594-11.0776,41.157-24.9451,57.9509-41.2172,17.7244-17.1735,32.5774-37.1706,44.1462-59.436,3.012-5.7939,5.8093-11.7569,8.5142-17.5237,5.958-12.7009,11.5852-24.6973,19.4387-35.3574,13.5911-18.4557,32.2068-26.6854,60.3608-26.6849,4.5891,0,9.4822.2034,14.9587.6221,2.137.1635,4.3025.2463,6.4358.2463,22.4187,0,39.2834-8.4897,46.2693-23.2924,3.9048-8.2799,4.3567-17.348,1.3293-26.3126.0276-16.4019-6.8899-38.3959-19.8164-47.0043-.9478-.63-1.8965-1.2461-2.8445-1.8616-1.1829-.7679-2.3-1.4932-3.4067-2.2396-2.8105-1.8777-5.7092-3.9692-8.0513-6.6591-1.0227-1.1725-1.9851-2.3925-3.0039-3.6839-4.0935-5.1896-8.7332-11.0717-17.4731-13.4947-2.2146-.6113-4.405-.9291-6.3376-1.2094-2.6289-.3813-4.8994-.7107-6.418-1.5833-4.1038-2.3658-5.2563-9.7142-3.7522-15.0899.3696-1.3187.8562-2.743,1.3716-4.2509,2.2222-6.5027,5.2656-15.4084-.0342-23.3416-.7769-1.1555-1.6233-2.1083-2.3035-2.8739-.219-.2468-.5029-.5662-.7314-.8406.0596-.2026.1265-.4186.1841-.6049.1003-.3241.2-.6476.2927-.9703,2.7195-9.4584.2004-20.502-6.7373-29.5443-5.7583-7.5043-13.5208-12.7159-21.0515-17.2298l-.3179-.1903c-1.8628-1.1147-3.6226-2.1676-4.6328-3.309-1.5364-1.7394-2.2776-4.6871-3.136-8.1003-.9836-3.9124-2.0989-8.347-4.8667-12.374-4.1526-6.039-10.3889-8.963-15.8914-11.5427-.7844-.3679-1.5659-.7339-2.3345-1.1075-5.01-2.4346-7.9661-5.1147-8.3232-7.5469-.4368-2.9921,2.5103-6.3261,7.0562-11.0703,1.8953-1.978,3.8552-4.0232,5.5969-6.2621,7.8457-10.0745,9.8979-24.2667,5.2261-36.1533-.2444-.6218-.5078-1.2432-.7727-1.866-.5339-1.2545-1.2649-2.9728-1.2092-3.6361.0381-.4608.5793-1.6352.9746-2.4928,3.4321-7.4112,6.8618-14.8095,10.3013-22.2161.9478-2.0583,1.9177-4.1646,3.1238-5.5423,1.0745-1.2222,2.8154-2.3795,4.6584-3.6048,2.7495-1.8281,5.866-3.9,8.3699-7.1449,4.6553-6.0197,5.6897-14.7401,2.6306-22.2102-1.6724-4.0865-4.4397-7.705-8.2246-10.7532-.8425-.6823-1.8042-1.1996-3.1348-1.9154-.3459-.186-.8594-.4623-1.3635-.7453-.3167-3.9436-.759-9.2984-2.4504-13.9792-3.5559-9.8413-10.6978-11.5515-14.6382-11.6949-.2446-.0087-.4785-.0129-.7139-.0129-13.792.0018-22.8677,14.1091-28.2905,22.5379-3.1343,4.8632-5.144,10.0169-7.0879,15.0008-1.6694,4.281-3.2463,8.3246-5.4036,11.8371-3.4739,5.6591-8.5642,8.0731-17.0217,8.0731-7.2629,0-15.8813-1.8954-24.2158-3.7287-3.1309-.6884-6.3679-1.4005-9.5244-2.0111-19.9434-3.8488-61.1958-22.5456-67.9565-25.8258-41.5874-20.1681-94.3259-30.8282-152.5156-30.8282h0Z"/>
      </g>
      <path class="cls-5" d="M96.8958,249.4875c57.5879-68.0875,153.1057-105.0755,241.7297-95.8351,24.8709,2.5932,50.4133,9.0453,69.3419,25.3853,18.9284,16.34,29.2496,44.6021,18.8197,67.3289-10.8722,23.6903-39.3348,33.7612-65.3191,35.8234-59.2135,4.6995-120.1215-19.1156-177.2069-2.6968-39.9821,11.4996-73.0997,42.6518-90.1198,80.6143-5.4931,12.2523-12.3681,27.455-25.7848,27.9927-9.2716.3717-17.3243-7.4758-20.0576-16.3431-2.7334-8.8674-1.28-18.45.7669-27.5004,8.1086-35.8542,24.9847-67.7587,47.83-94.7691Z"/>
      <path class="cls-2" d="M219.3174,178.65c-1.0395-2.0184,8.2722-6.5155,9.4275-7.1126,4.6089-2.3818,9.3813-4.4424,14.2572-6.2125,9.946-3.6108,20.3107-6.0113,30.7807-7.4872,8.6276-1.2162,17.3701-1.8203,26.0624-1.2208,3.537.244,7.137.7087,10.3233,2.2636,1.6336.7972,3.1864,1.9356,3.9996,3.5614,1.1181,2.2355.5929,5.0561-.8829,7.0735-1.4757,2.0174-3.761,3.3159-6.1356,4.0964-9.0859,2.9863-18.7902-.9598-28.2235-2.5358-9.501-1.5873-19.2649-.7259-28.7214,1.1077-9.4565,1.8337-18.6965,4.6259-28.0471,6.9398-.7313.181-1.5288.354-2.2153.0441-.3202-.1445-.5225-.3191-.6248-.5176Z"/>
      <path class="cls-3" d="M733.5829,534.9458c-7.4717,15.8324-28.0997,20.2222-45.5546,18.8873-32.3778-2.4752-61.2552,1.1836-81.7463,29.0085-12.0655,16.3773-19.17,35.7965-28.5524,53.8442-48.767,93.8556-149.8406,132.6252-251.1155,128.0085-27.1368-1.2367-54.2438-5.0222-80.5636-11.7262-21.458-5.6507-42.329-13.1295-62.1279-22.2872-.1768-.0822-.3455-.1542-.5131-.2355-2.3609-1.0929-4.7009-2.2116-7.0288-3.357-75.0605-36.8419-127.3157-107.9935-152.6577-187.9169-1.059-3.3223-2.0613-6.6576-3.0167-9.9975-.3587-1.2375-.7082-2.4741-1.0385-3.7178-.2419-.8284-.4645-1.664-.6789-2.4897-.3321-1.2256-.6559-2.4412-.9689-3.674-.403-1.5378-.7868-3.0828-1.1613-4.6271-.3837-1.545-.7483-3.0975-1.1038-4.649-.6922-3.0089-1.3544-6.0424-1.9799-9.0723-.9638-4.7555-1.8516-9.5309-2.6369-14.3151-.6985-4.2577-1.3045-8.5155-1.7997-12.7714,18.9274,28.0086,46.3837,63.2854,91.6089,93.8164,105.9138,71.5203,210.2511,67.1281,237.5435,63.9786,39.1324-4.5047,107.5707-20.0048,131.9279-53.5509,3.4456-4.7454,15.3693-22.5883,36.6382-41.2473,11.4399-10.0403,18.9617-16.6397,31.0681-21.5378,18.6554-7.5434,35.4416-5.8957,60.4055-3.4402,3.618.3479.5888.1227,42.7912,6.388,18.7085,2.7809,29.7088,4.3107,44,1.4498,9.5556-1.9139,19.4929-4.0398,24.3445-12.0674,1.4803-2.4432,9.5867-3.6308,9.2816-23.2081-.1149-7.6398-7.4044-14.4437-7.5862-17.7535,2.0719,1.3974,4.1959,2.7351,6.2873,4.1252,10.1948,6.7856,16.9447,26.3611,16.5508,42.1525,2.6752,7.088,2.8918,14.5436-.6166,21.9828Z"/>
      <path class="cls-7" d="M733.5829,534.9458c-7.4717,15.8324-28.0997,20.2222-45.5546,18.8873-32.3778-2.4752-61.2552,1.1836-81.7463,29.0085-12.0655,16.3773-19.17,35.7965-28.5524,53.8442-48.767,93.8556-149.8406,132.6252-251.1155,128.0085-27.1368-1.2367-54.2438-5.0222-80.5636-11.7262-21.3682-5.4382-42.214-12.7944-62.1279-22.2872-.1768-.0822-.3455-.1542-.5131-.2355-.6981-.3279-1.3954-.6649-2.0835-1.001-70.4542-34.3252-120.9985-95.4602-149.1742-166.6294,18.717,25.3618,45.5272,59.3173,87.3848,91.3652,25.3349,19.3946,82.846,62.3173,167.555,72.9824,28.9876,3.6571,106.4541,12.285,182.3647-33.0096,3.9891-2.3801,89.0735-54.0552,97.748-103.2414.7956-4.4985,2.5884-18.2561,12.792-30.573,11.3071-13.6597,27.0122-18.3877,34.9795-20.7912,19.0323-5.7402,36.0721-4.0395,45.8887-3.0704,16.6106,1.6491,19.53,4.8592,31.8362,3.7439,5.1122-.4568,20.3107-1.8321,30.7293-10.7066,5.6944-4.8564,8.9251-11.0746,10.7846-17.6413.0014.3609-.0073.7298-.015,1.0898,2.6752,7.088,2.8918,14.5436-.6166,21.9828Z"/>
      <path class="cls-5" d="M582.3104,194.2199c-.6625-.4263,3.927-7.2185,10.7756-21.1882,2.6051-5.3137,6.0414-12.6951,12.4056-21.2082,2.4555-3.2846,5.5134-6.9607,9.9511-7.3395.4899-.0418,4.5671-.3342,6.2907,2.2492,1.886,2.8271-.4967,6.9245-.9396,7.6863-2.078,3.5742-5.32,3.0392-10.0065,6.0677-2.1347,1.3795-4.1418,3.7484-8.0685,8.4299-4.5085,5.3751-5.7753,7.5489-10.5878,13.7894-4.6554,6.0369-9.1911,11.9184-9.8204,11.5134Z"/>
      <path class="cls-2" d="M655.6503,147.3034c-6.877-10.2918-2.7996-15.9858-7.7189-28.0244-4.8196-11.7945-10.1912-9.8964-14.1991-20.8-.7266-1.977-5.7448-16.3109,1.4154-30.2683,6.8178-13.2902,20.2106-17.5315,28.7353-20.2312,9.0652-2.8708,19.3839-6.1387,29.4349-.764,7.8766,4.2119,15.2083,13.5279,14.5646,22.4089-.3556,4.9071-2.8823,6.0403-2.0123,9.7626,1.3602,5.8199,8.328,6.4337,17.564,13.2681,4.7814,3.5381,7.9814,11.3215,6.9139,17.5904-1.3391,7.8637-12.7281,10.9864-20.3738,12.5373-15.3299,3.1096-20.3276.128-24.6015,4.9111-5.7779,6.4663.2611,15.3792-7.0309,23.4226-.8009.8835-5.2605,5.6148-10.9993,5.2054-5.8307-.4159-9.6071-5.8978-11.6923-9.0185Z"/>
      <path class="cls-2" d="M808.9972,139.3742c-4.6885.1635-16.7489.5841-27.5251-7.9601-7.1644-5.6806-15.3985-16.6219-14.0007-28.1203.6704-5.5142,4.3311-11.1568,11.6526-22.442,4.9211-7.5854,6.4535-8.5448,8.1338-13.3525.923-2.6411,4.3752-12.5187-.0265-20.9736-1.1955-2.2962-3.6389-4.6075-8.5258-9.2301-6.7215-6.3579-8.7631-6.7143-10.5001-10.4736-2.2988-4.9754-1.3219-9.9769-.8979-12.147.48-2.457,1.546-7.9142,5.8519-11.4806,5.3596-4.4392,12.6544-3.394,22.7363-1.9496,6.6407.9515,9.961,1.4271,12.7753,3.3583,7.644,5.2454,8.7075,15.5518,9.6353,24.5436.4176,4.0475,1.1898,12.2845-1.6337,21.8583-1.3409,4.5469-2.469,5.9236-5.0698,14.1792-2.0021,6.3553-3.0031,9.5329-3.4095,13.2945-.5418,5.0147-1.4956,13.8426,3.8661,19.2556,2.2093,2.2304,4.9537,3.3389,5.923,3.7304,3.861,1.5594,6.3797,1.1248,9.2945,1.4419,7.2247.7859,15.6002,6.0498,16.6281,12.1271.6425,3.7987-1.723,7.1031-3.5699,9.6088-10.112,13.7185-29.3445,14.662-31.3381,14.7316Z"/>
      <path class="cls-2" d="M923.1701,230.8599c-8.5362-9.1768-6.7597-22.4525-6.5712-23.7169,1.6833-11.2944,8.8333-12.0898,11.9087-25.0381.6316-2.6591,3.8005-16.0015-3.2508-25.4862-2.339-3.146-6.856-5.4561-15.7948-9.9477-16.5279-8.3052-18.9623-7.1263-22.9612-11.7038-8.2216-9.4112-5.7356-23.3282-5.3792-25.172.4788-2.4764,1.8647-9.1943,7.2491-15.0126,12.6387-13.6571,34.3787-8.3854,35.9151-7.9884,10.6124,2.742,23.2639,10.6694,27.1282,22.6007,2.6084,8.0538-.4169,12.8993,4.334,19.826,3.4713,5.0611,8.363,7.2512,14.2372,9.794,14.8413,6.4243,18.5559,2.0068,27.6275,6.9217,11.4349,6.1953,17.4474,19.67,17.9494,30.6072.2058,4.4856.4991,10.8745-3.6147,15.3714-4.8412,5.2921-10.5627,2.2543-21.6912,7.2955-2.2901,1.0374-10.0152,4.6345-15.8707,12.0644-7.2958,9.2576-3.9529,14.6497-9.3707,20.5702-8.6022,9.4002-30.8153,10.8717-41.8448-.9854Z"/>
      <path class="cls-2" d="M959.9336,278.0042c.4351-14.9237,11.8967-26.1057,17.2482-31.3266,6.7628-6.5978,15.1051-14.7365,27.5464-16.1544,22.916-2.6118,40.211,19.8031,45.7062,26.9251,7.5666,9.8066,15.5417,20.1427,12.4191,29.5369-4.6754,14.0657-27.9647,7.1714-51.1268,27.9819-4.8674,4.3732-19.8892,17.87-20.0459,35.7688-.0941,10.7538,5.2603,13.664,3.6499,22.7731-2.56,14.481-20.0767,29.6688-33.1677,25.2986-11.1825-3.733-16.1425-20.7377-14.0586-32.8445,1.8062-10.4937,7.5566-9.4784,12.9471-24.9355,1.6889-4.8429,6.0121-17.2397,3.6461-31.6208-.6919-4.2061-1.5376-6.0376-2.821-13.9097-1.132-6.9435-2.0808-12.7632-1.943-17.4929Z"/>
      <path class="cls-2" d="M1048.3938,316.621c-3.6661-4.7505-15.0222-1.4123-16.147-1.0698-6.5703,2.0007-10.6445,5.9594-12.8646,8.167-3.2834,3.2649-11.6411,11.5754-11.2359,23.5317.0673,1.9861.4016,11.8495,7.7569,17.0183,3.3441,2.35,6.7136,2.7275,9.1409,2.9995.9325.1045,16.0807,1.5861,22.8321-8.2315,3.9004-5.6716,3.2997-12.6444,2.8325-18.07-.4626-5.37-1.6748-6.0651-1.9363-12.2495-.3253-7.6933,1.4175-9.7683-.3787-12.0957Z"/>
      <path class="cls-1" d="M950.1781,445.8578c-5.2424,6.4361,1.9047,14.0335-2.6721,21.7557-3.6308,6.1262-12.0143,7.9006-18.2105,9.212-4.9912,1.0564-8.8099.9483-13.1854.7955-15.6859-.5475-18.0787-4.9734-26.9478-3.1848-1.2099.244-10.3835,2.2376-16.2362,10.4554-1.5701,2.2046-6.3835,8.9632-4.1338,15.3202,2.7686,7.8232,15.0137,11.5898,23.2175,9.1077,4.4075-1.3336,5.4302-3.7996,14.9414-7.9618,2.2725-.9944,4.8341-2.1155,7.6278-2.9169,10.6484-3.0548,15.3029,1.2202,26.6851.5374,4.0598-.2436,12.3235-.8434,20.0311-6.4109,8.3256-6.0139,11.2586-14.3976,12.1784-17.1473,1.1568-3.4584,4.8113-14.3841-.7575-24.1915-1.1792-2.0768-5.1448-9.0608-12.1602-9.5889-3.4364-.2587-7.7719,1.0191-10.3777,4.2182Z"/>
      <path class="cls-2" d="M992.6199,467.3489c-2.2435-9.6334-3.615-15.5223-7.8148-21.7426-4.4912-6.652-7.2742-6.362-9.3079-11.9287-1.9724-5.3989-1.9602-12.8029,1.7941-18.1725,1.4031-2.0069,3.0711-3.3609,15.512-8.4298,16.5281-6.7341,18.5531-6.3689,23.5565-10.2571,5.6553-4.3949,5.5074-6.7569,9.698-7.9552,6.3472-1.815,14.2127,1.4518,18.6983,7.0887,4.3504,5.467,5.11,12.6466,3.4494,18.1659-2.6173,8.6986-11.3093,13.4822-16.2808,16.2181-5.0413,2.7744-6.6491,2.3729-9.961,5.3079-.9321.826-6.5553,5.954-7.6658,13.9229-1.2776,9.1679,4.9372,11.19,3.7635,20.2941-.085.6598-1.3583,9.4641-8.7555,14.3396-1.594,1.0505-6.8085,4.4874-10.7431,2.6094-3.8306-1.8284-3.0589-7.0772-5.9429-19.4606Z"/>
      <path class="cls-2" d="M836.533,484.4446c-1.6064-2.314-6.9123,1.9078-16.6629,1.5006-13.7878-.5758-16.5195-9.5746-29.6821-10.008-1.9191-.0632-14.3127-.4714-19.6144,7.5006-5.2292,7.8629-.8653,19.8273,5.251,26.47,8.3075,9.0224,20.1551,8.5608,21.9707,8.4603,9.7467-.5391,16.0068-6.1157,24.1236-13.3466,6.7555-6.0181,16.9864-17.1593,14.614-20.5769Z"/>
      <path class="cls-2" d="M880.8987,528.9316c-1.3638-10.8513-12.0066-18.8008-22.3751-20.2964-8.8156-1.2715-18.4673,1.9732-24.518,9.3757-1.4215,1.739-8.5729,10.9607-5.2681,21.4994,4.0104,12.7889,19.5648,15.2284,21.2788,15.4697,9.8473,1.3865,21.2007-2.482,27.0851-11.4815,1.1594-1.7732,4.7022-7.3668,3.7973-14.5669Z"/>
      <path class="cls-2" d="M1003.1085,509.8021c-.0472-5.1968-8.0225-10.859-15.6923-10.9861-5.7708-.0956-9.9085,2.9667-11.416,4.1157-1.0984.8373-6.3356,5.0104-7.4608,11.846-.5899,3.5838.4631,4.7857.7375,8.4612.8868,11.8765-8.8373,16.3385-6.5117,23.4738,1.6108,4.9424,7.9024,7.7904,12.8332,8.0825,6.7954.4026,11.4692-4.0218,12.557-5.0516,5.2891-5.0069,6.4853-12.1533,7.6592-19.1663.9806-5.8585.3385-7.6704,2.2175-11.8394,2.4292-5.39,5.1038-5.914,5.0763-8.9359Z"/>
      <path class="cls-2" d="M936.4798,287.2228c3.4883-4.7868-2.2467-13.7334-4.1224-16.6595-2.6282-4.1001-5.4042-8.4305-10.6026-9.4351-6.1449-1.1875-13.7555,2.643-15.5633,8.9491-1.5338,5.3504,1.7813,10.14,2.5581,11.2623,3.0693,4.4344,7.516,5.8738,10.3397,6.7878,1.4431.4671,13.5378,4.3821,17.3904-.9045Z"/>
      <path class="cls-1" d="M847.0931,90.7076c-2.1973-.0578-12.32-.3242-18.0766-8.0759-5.1457-6.9291-3.4438-15.316-2.9813-17.5954.4193-2.0665,2.1665-10.6766,9.3259-14.8076,4.4975-2.595,9.0718-2.179,18.2205-1.3469,8.8019.8006,11.1657,2.5532,17.9129,1.7684,4.9047-.5705,5.8359-1.7502,10.5092-2.8945,7.0113-1.7169,22.9833-3.4858,28.3773,4.6364,3.6732,5.5311,2.1861,15.2651-3.0888,20.6661-7.1262,7.2965-15.3254.7052-32.5947,6.2191-14.5595,4.6486-16.2353,11.7294-27.6044,11.4303Z"/>
      <path class="cls-2" d="M815.4336,159.1457c-4.0566.9166-7.3685.5964-9.4739.3754-7.7259-.811-8.9748-3.79-14.1247-2.9672-.8771.1401-5.5702.8899-7.8072,4.7341-.3956.6798-1.8044,3.3296-.8747,6.205.2469.7639.9179,2.3444,3.2757,3.9933,7.7688,5.4329,19.7678,1.7588,20.5602,1.5055,4.5983-1.4699,4.4827-2.6105,8.1726-3.1253,4.9634-.6925,6.0877,1.2436,11.9676.9193,2.7775-.1532,7.5691-.4843,10.6117-3.933.6171-.6994,2.1744-2.4646,2.0446-4.7788-.2309-4.1146-5.5854-6.2231-5.9263-6.3521-2.7005-1.022-5.0672-.6006-8.1247-.0157-4.9772.9522-5.8536,2.4346-10.3008,3.4394Z"/>
      <path class="cls-2" d="M749.2041,134.3232c-1.3501-3.0015-7.0518-3.0758-11.8796-3.1388-2.5394-.0332-4.4333.1691-8.1175.5748-7.3719.8119-11.0578,1.2179-13.6244,2.5871-2.763,1.474-2.2667,2.1292-7.4105,5.3631-2.6779,1.6835-3.6063,2.0051-4.8627,3.452-.4081.47-3.8454,4.5313-2.3458,7.8291.7884,1.734,2.5795,2.4605,3.0794,2.6633,1.7652.7161,4.4788.971,12.0668-2.7408,6.612-3.2344,5.3274-3.8074,8.9489-5.0146,6.6126-2.2043,13.5475-1.8082,13.5476-1.8082,1.6547.0945,2.9859.2941,4.7497-.3175.4491-.1557,4.0052-1.4544,5.4251-5.1659.4629-1.2099,1.08-2.8228.4229-4.2836Z"/>
      <path class="cls-2" d="M731.416,371.2536c-2.4965,5.2327.2613,11.4872,5.8394,13.0679,4.0136,1.1374,8.5504,3.1409,12.8248,6.6555,2.0309,1.67,7.5602,6.6061,10.6092,14.6785,2.4519,6.4913.671,8.0499,2.7698,14.4288.6774,2.0587,3.8655,11.7482,13.4683,17.5822,2.2749,1.382,12.6739,7.2647,24.3518,2.9284,1.7215-.6393,10.8442-4.0267,14.4156-13.2565,4.1784-10.7986-2.5306-21.0957-4.4431-24.031-5.7211-8.7809-14.3464-12.6969-19.4872-15.0307-11.5015-5.2216-15.5758-2.5343-20.7239-7.813-5.5604-5.7013-2.2821-10.3481-8.1736-18.108-4.5242-5.959-13.1153-11.988-19.4805-9.7873-1.6418.5676-3.5718,1.8336-9.794,14.237-.7712,1.5373-1.4964,3.0226-2.1765,4.4482Z"/>
      <path class="cls-2" d="M712.9676,314.1767c-6.7452.8318-12.1241-1.8451-18.3842-4.9606-7.505-3.7351-13.5842-6.7604-14.1491-12.0134-.8033-7.4692,10.1904-13.4124,11.624-14.1875,6.0092-3.2486,15.496-5.3213,22.1146-.9624,1.9847,1.3071,1.3953,1.6671,4.9903,5.2111,4.9071,4.8375,10.0485,9.9061,16.2883,10.2586,4.8066.2716,4.7148-2.5688,11.7159-3.1686,2.9742-.2548,9.1965-.7879,13.4372,3.2926.9646.9282,4.0295,4.2146,3.4762,8.6005-.6434,5.0993-5.6595,7.5781-5.8698,7.6779-2.0546.9753-4.4857,1.2529-16.7062-2.0425-9.7223-2.6217-9.3594-3.1145-11.8795-3.1388-7.6433-.0738-8.9205,4.479-16.658,5.4332Z"/>
      <path class="cls-2" d="M762.419,223.5095c-3.1146-5.1651-12.1895-7.7855-19.2015-4.6481-3.5342,1.5813-8.5886,5.5401-8.552,10.9519.0353,5.2186,4.7841,8.749,5.3848,9.1822,4.7894,3.4537,8.309.9676,11.3748,4.2686,2.5829,2.781.5773,5.0759,3.7502,9.8072.9993,1.4901,2.9088,4.3376,6.5482,5.3649.4781.135,4.2311,1.1351,7.5525-.8272,4.6811-2.7656,6.1413-10.0194,4.2252-14.9179-2.0079-5.1335-6.5203-4.6038-9.1635-10.7348-1.8132-4.2058-.1371-5.4924-1.9186-8.4468Z"/>
      <path class="cls-2" d="M854.0873,264.1469c-2.163-4.9477-11.6674-5.8587-17.865-4.9093-8.7807,1.3451-14.2689,6.9368-16.6528,9.3658-2.1668,2.2078-5.4147,5.5948-6.8391,10.8589-1.1304,4.1783.1531,4.8633-.8201,8.3074-1.9427,6.8752-7.838,6.9086-11.2747,13.3045-2.673,4.9745-2.9121,12.0357.1258,17.3135,4.8245,8.3818,15.9303,8.8194,18.7785,8.9316,9.0284.3558,15.496-3.9576,17.8517-5.5774,7.8948-5.4286,10.9446-12.8549,12.0245-15.5897,1.4234-3.6048,1.8088-6.6873,2.5796-12.8522,1.4467-11.5718-.5007-13.1124,1.4252-22.4031.7998-3.8581,1.4287-5.0062.6664-6.7498Z"/>
      <path class="cls-2" d="M864.1267,218.2154c2.0773-4.3771-.3515-10.0807-4.5324-12.5058-5.2961-3.072-12.4244-.3154-14.8678,4.5614-1.2441,2.4832-1.6518,6.2708.401,9.2144,2.3341,3.3469,6.4417,3.5843,8.0256,3.6758,1.0758.0622,8.4598.3513,10.9737-4.9458Z"/>
      <path class="cls-2" d="M881.8384,178.8739c-1.3485-3.1787-3.5704-8.4163-8.9496-10.9103-1.5042-.6974-3.3644-1.5598-5.4133-.9276-3.2576,1.0051-5.5,5.3276-4.5452,8.2018,1.0329,3.1093,4.9551,1.9572,7.8725,5.8889,2.8139,3.7923,1.1837,7.5846,4.0219,9.0476,1.8788.9684,4.1602.1145,4.7306-.1228.21-.0873,2.4779-1.0697,3.4804-3.3918,1.0407-2.4106.0773-4.781-1.1974-7.7857Z"/>
      <path class="cls-2" d="M902.3748,433.5364c5.848-4.2433,4.4311-13.3161,4.1083-15.0605-1.3405-7.2435-6.6346-11.4201-9.6477-13.7972-2.2859-1.8034-7.5746-5.9757-14.362-5.8742-2.0735.0311-1.9614.4261-6.9036.8913-4.9895.4696-6.0265.1581-10.2784.5582-5.1289.4827-7.6934.7241-9.6278,1.933-2.8702,1.7936-5.7734,5.4733-5.6981,9.923.0976,5.7632,5.1315,9.2671,5.8528,9.7526,4.9702,3.3448,7.8935.3904,18.0444,3.0921,4.1123,1.0945,7.4048,1.9708,11.0896,4.5026,4.0026,2.7503,4.8303,4.9545,8.3398,5.804.21.0508,5.1096,1.1584,9.0829-1.7248Z"/>
      <path class="cls-2" d="M905.8478,326.665c-.655-4.0615-9.9949-8.252-17.0349-5.3517-.9438.3888-4.5462,1.873-6.0669,5.6924-.2546.6393-1.482,3.7223-.1215,6.5414,1.5203,3.1501,4.5564,2.4158,6.7821,5.6502,1.9551,2.8411.2465,4.329,1.8784,7.5253,1.9816,3.8811,7.1295,6.8356,12.2338,6.1884.6187-.0784,6.162-.8561,7.8072-4.7342,1.8223-4.2952-1.952-10.474-2.7663-11.8072-1.2602-2.0631-2.9646-4.0247-2.9682-7.1086-.0017-1.504.4029-1.6869.2563-2.5961Z"/>
      <path class="cls-2" d="M741.2207,179.3436c-3.453-2.4555-10.4311-7.4179-17.2545-4.4559-4.1724,1.8113-7.6354,6.3029-7.8117,11.4182-.0252.7329-.115,5.3069,3.0867,8.5621,2.359,2.3985,4.3829,1.9235,10.2451,3.7639,8.9975,2.8245,9.9989,5.7543,13.6728,4.8887,4.0548-.9554,7.2491-5.5642,7.658-9.8606.6679-7.0171-6.2173-11.9133-9.5964-14.3164Z"/>
      <path class="cls-1" d="M1030.505,200.4318c-12.054-5.5632-23.8851.6566-25.3067,1.4337-2.5427,1.39-6.3854,3.4907-6.5717,6.8221-.1687,3.0177,2.7571,5.3573,3.3559,5.8362,3.3887,2.7098,7.5496,2.2081,8.8411,2.0524,4.0209-.4848,4.2118-2.2528,7.3554-2.8127,6.6812-1.1899,9.965,6.0581,14.8795,4.6146,3.7057-1.0884,6.4928-6.5764,5.3984-10.8701-.984-3.8605-4.8193-5.6306-7.9519-7.0763Z"/>
      <path class="cls-1" d="M982.3434,592.6848c-9.7694-7.8123-18.1726-2.5403-24.6726-10.3-5.39-6.4345-.7967-11.474-6.7251-22.1592-1.6685-3.0073-6.2501-10.9869-15.8525-14.672-12.1918-4.6788-23.1323,1.152-24.294,1.7959-2.2094,1.2247-9.1039,5.0461-11.7171,12.4744-1.7367,4.9368.0258,6.895-1.384,14.0189-.4017,2.0303-1.7311,8.7475-5.5377,13.6087-6.7876,8.6679-15.9639,4.427-24.6974,11.1929-8.5441,6.6191-11.3428,19.65-9.7228,29.4481,3.0392,18.3818,22.0374,27.8447,34.7693,30.1707,13.5707,2.4793,24.7909-2.2787,27.6143-3.5651,16.6868-7.6027,15.538-19.448,30.0813-23.2441,9.8025-2.5586,13.5828,1.9722,26.4222-2.1099,5.8993-1.8757,12.3165-3.9158,15.0952-9.5196,4.0628-8.1936-1.3019-20.6806-9.379-27.1397Z"/>
    </g>
  </g>
</svg>