<?xml version="1.0" encoding="UTF-8"?>
<svg id="Capa_2" xmlns="http://www.w3.org/2000/svg" viewBox="0 0 613.4044 857.6881">
  <defs>
    <style>
      .cls-1 {
        fill: #d2d5d8;
      }

      .cls-2 {
        fill: #626c74;
      }

      .cls-3 {
        fill: #d1d5d8;
      }

      .cls-4 {
        fill: #707881;
      }

      .cls-5 {
        fill: #b9bdc1;
      }

      .cls-6 {
        fill: #646c74;
      }

      .cls-7 {
        fill: #feac46;
      }

      .cls-8 {
        fill: #5dbbc1;
      }

      .cls-9 {
        fill: #222d35;
      }

      .cls-10 {
        fill: #717881;
      }

      .cls-11 {
        fill: #606972;
      }

      .cls-12 {
        fill: #e5e7e9;
      }

      .cls-13 {
        fill: #222d34;
      }

      .cls-14 {
        fill: #626b74;
      }

      .cls-15 {
        fill: #212d34;
      }
    </style>
  </defs>
  <g id="Capa_1-2" data-name="Capa_1">
    <g>
      <path class="cls-15" d="M25.9944,853.5241c-5.6907-2.957-9.4506-7.877-9.4958-15.9095-.0617-10.9691-.2016-21.9412-.0181-32.9073.7232-43.2079,37.5091-70.2041,78.0996-70.5624,66.9694-.5911,134.1015.4883,201.1933.462,1.272-.0005,2.6693.5215,3.8223-.5157,2.9093-9.6259,5.7348-19.2786,8.7823-28.8606.8449-2.6566-.924-3.1089-2.4737-3.9127-21.0488-10.9182-41.2501-23.2221-60.2597-37.4021-11.4391-8.5329-22.6803-17.3371-33.8501-26.2209-3.0065-2.3913-5.9197-3.5911-9.859-3.5651-25.9791.1718-51.9599.0934-77.9401.0848-18.8684-.0063-32.922-13.6904-33.5229-32.6213-.0211-.6658.0025-1.3351-.0573-1.9971-.3702-4.0958,1.8755-9.7122-.868-11.889-2.5911-2.056-7.966-.6569-12.117-.6846-16.4868-.11-32.978.0131-49.4597-.3289-14.9259-.3098-24.2538-6.9142-26.5586-20.3703-1.8676-10.9039-2.0399-22.2775.4397-33.2022,1.6736-7.3733,6.5599-12.898,13.9253-15.735,10.1036-2.7083,20.4291-1.6739,30.6694-1.68,64.7336,0,129.4672-.0407,194.2009-.0428,26.5465-.0009,53.0929.0105,79.6394.0297,11.0406.008,24.9264-2.5985,34.7689,3.142,7.8918,4.6028,11.7097,12.841,11.8208,21.7945.0834,7.6616.1816,15.3345-.1264,22.9862-.5161,12.8203-10.7735,22.5313-23.7051,22.5846-18.3273.0755-36.6551.0118-54.9827.0077-1.5847-.0004-3.1695,0-4.9861.7718,14.6657,8.4615,29.3385,16.9107,43.9921,25.3933,3.7223,2.1547,7.5107,6.2969,11.033,6.0576,3.0417-.2066,5.6562-5.4366,8.6181-8.2808,25.2925-24.2887,61.5323-29.7484,92.8482-13.8688,2.361,1.1972,3.806,1.4491,6.0443-.2224,31.5365-23.5511,51.9131-54.1042,57.9437-93.3403,6.7839-44.137-2.8097-84.2415-30.9543-119.4068-8.1492-10.1821-17.6227-19.0071-28.0617-26.8289-1.6931-1.2686-3.1004-1.3697-5.0037-.7893-26.568,8.1015-50.3294,1.6946-71.9946-14.4191-3.011-2.2394-4.1341-1.6302-6.1443.8733-15.0915,18.7946-30.3262,37.474-45.4776,56.2205-9.2344,11.4254-20.8946,14.2384-33.9127,7.7915-2.1831-1.0812-2.8915-.0736-3.9418,1.2132-5.0461,6.1825-10.1315,12.3332-15.1481,18.5395-8.1357,10.065-20.7992,12.7617-32.1153,6.5502-2.0102-1.1034-2.7991-1.1214-4.2956.779-5.5523,7.051-11.0958,14.1505-17.1935,20.7204-8.0956,8.7223-19.8164,10.0525-29.2664,2.8766-13.4905-10.2442-26.7495-20.8439-39.5304-31.9554-9.7797-8.5022-10.1534-22.2277-1.925-32.1598,5.1984-6.2747,10.4758-12.4838,15.6845-18.7501.9663-1.1625,2.602-1.9991.8887-4.099-8.6469-10.5978-6.0465-23.1433,2.9705-32.7765,4.6582-4.9766,8.9319-10.314,13.6074-15.2732,1.7904-1.899,1.9325-3.095.4903-5.3526-5.8834-9.2096-5.3583-19.2667,1.437-27.7379,30.1598-37.5982,60.3826-75.1458,90.5939-112.7026,21.5618-26.8042,43.1973-53.5492,64.6879-80.4103,9.7112-12.138,28.9121-15.604,43.2834-7.1553,2.9418,1.7294,4.1449,1.5244,6.2794-1.0407,8.9362-10.7397,18.1057-21.2879,27.3318-31.7814,1.7182-1.9542,2.1804-3.1794.9526-5.8486-4.206-9.1445-3.3356-18.0398,3.0055-26.0785,3.7068-4.6992,7.562-9.2843,11.4329-13.8508,9.5617-11.28,24.7435-13.237,36.4506-4.0553,20.3953,15.9957,40.4833,32.3832,60.6878,48.6219,5.9625,4.7922,11.8921,9.6257,17.8216,14.4587,13.2108,10.7675,14.7665,26.2415,3.9963,39.3669-3.3732,4.1108-6.7679,8.2084-10.0076,12.4235-8.3953,10.9233-18.6446,13.3861-31.0104,7.0565-2.0269-1.0375-2.6658-.4623-3.8684.9893-9.3375,11.271-18.7504,22.48-28.2164,33.6435-1.0905,1.2861-1.498,2.0206-.512,3.7477,9.5284,16.6918,6.1904,32.008-5.4394,46.801,6.4009,4.8863,12.6425,10.1886,17.6397,16.8181,5.4159,7.1848,9.8236,14.9049,12.5513,23.4498.7792,2.4408,1.9238,3.8772,3.924,5.281,44.9577,31.5522,78.7589,72.1953,99.7562,123.1409,8.9991,21.8345,14.2752,44.5847,16.8285,68.0928,6.0703,55.8879-5.6198,107.9488-33.0507,156.6748-17.8878,31.7746-42.4296,57.7372-71.3139,79.6816-3.7886,2.8783-4.5762,4.8675-2.582,9.3543,7.769,17.4802,15.1473,35.1393,22.3276,52.8708,1.2476,3.0809,2.5958,3.8286,5.6722,3.8371,28.1993.078,51.0927,16.8316,60.0197,43.5244,2.6332,7.8735,2.9539,15.9299,2.8737,24.0858-.0574,5.831-.0056,11.6629-.0294,17.4944-.0362,8.8623-3.9751,15.1731-12.2471,18.6278-7.7583,1.1733-15.571.7145-23.3623.7153-86.4645,0-172.9289.0113-259.3934.0166-75.5986.0047-151.1912.0224-226.7901.1796-11.8842.0247-34.9659,3.5155-47.968-3.2407Z"/>
      <path class="cls-1" d="M573.5432,833.7746c-1.3401,1.53-3.1201.78-4.6801.78-175.17.04-350.34.04-525.51-.01-.21,0-.42.02-.64.04-1.37.15-2.87.58-3.96-.88.61-10.97-.76-21.99.8101-32.93,3.6699-25.61,24.33-43.65,50.0898-43.66,73.9701-.02,147.9302-.04,221.8901.15,4.4099.01,5.8899-1.47,7.02-5.38,9.51-33.14,19.1899-66.24,28.8799-99.33,10.91-37.25,51.8-52.83,83.8501-35.67,4.1099,2.19,8.08,4.94,11.8199,8.2401,6.9601,6.15,12.4401,13.3799,16.11,21.91,14.96,34.69,29.91,69.4,44.78,104.14,1.75,4.09,3.04,8.4,4.4399,12.64,2.4401,7.4301,6.97,10.76,14.67,10.9901,6.7999.19,13.64-.71,20.37,1.12,17.3401,4.72,29.4299,19.87,29.9399,37.87.1801,6.65.0901,13.32.1201,19.98Z"/>
      <path class="cls-3" d="M369.5904,114.4206c21.6293,17.3982,43.2578,34.7973,64.889,52.1932,2.5921,2.0846,5.2013,4.148,7.7967,6.2285,7.4156,5.9442,8.5918,14.7407,3.0042,22.4622-.3896.5384-.8758,1.0181-1.1989,1.5916-2.6734,4.7444-5.9803,5.6375-11.6945,4.508-32.2772-6.3801-59.0111,4.0326-78.6361,29.9931-20.1406,26.6427-21.1462,55.6827-6.2727,85.3187,1.5088,3.0061,1.3508,4.6223-.8001,7.2399-15.732,19.1451-31.241,38.4738-46.783,57.7746-4.4051,5.4705-6.371,5.8338-11.7931,1.4377-27.1192-21.9872-54.2037-44.0171-81.3005-66.0319-1.0703-2.1107.3055-3.4714,1.5377-4.8225,8.9802-9.8473,16.9029-20.5682,25.4452-30.7782,11.4248-13.655,22.4826-27.6147,33.5616-41.5481,15.3242-19.2724,31.0326-38.2313,46.3825-57.4831,17.3195-21.7219,34.3915-43.6428,51.984-65.1472,1.0679-1.3053,2.0898-2.6106,3.878-2.9365Z"/>
      <path class="cls-3" d="M493.9031,667.9646c-4.3499-9.67-8.6799-19.27-12.99-28.88-4.0499-9.01-8.9099-17.54-16.1699-24.32-.6899-.64-1.14-1.2-1.4-1.69-.95-1.76.53-2.73,2.26-4.17,19.85-16.44,35.92-35.87,47.01-59.31,32.91-69.53,13.66-155.31-45.9401-204.28-.8899-.73-1.73-1.52-2.8099-2.47,17.9501-15,28.11-33.79,30.9601-56.61,13.1699,9.69,25.0499,20.56,35.5798,32.37,87.0701,97.54,83.2101,259.38-36.5,349.36Z"/>
      <path class="cls-8" d="M183.6429,563.2022c-51.6436.0036-103.2873-.0489-154.9304.1039-4.1082.0121-5.5352-.8788-5.1771-5.1227.4047-4.7968.4056-9.6817-.0074-14.4775-.3751-4.3565.8793-5.5934,5.3783-5.5579,28.8186.2269,57.6399.1296,86.4602.1294,74.2998-.0005,148.5998.0352,222.8994-.1108,4.5218-.0089,6.0299,1.0901,5.6625,5.6998-.4353,5.4626-.1626,10.9881-.0583,16.4836.0396,2.0887-.5469,3.1451-2.8003,2.8763-.9858-.1176-1.9968-.0273-2.9963-.0273-51.4769-.0004-102.9537-.0003-154.4306.0033Z"/>
      <path class="cls-7" d="M416.7977,223.0712c30.3575-.3103,55.3341,24.5078,55.7159,55.3625.3818,30.8581-25.0484,57.4786-55.0106,57.5855-30.3248.1082-56.4225-25.3727-56.7681-55.4261-.3708-32.2542,23.9359-57.1935,56.0628-57.5219Z"/>
      <path class="cls-12" d="M369.5904,114.4207c-12.834,16.239-25.365,32.7296-38.5849,48.648-13.8647,16.6947-26.9404,34.014-41.0184,50.5463-12.6596,14.8667-24.2073,30.6741-36.5182,45.8453-14.7044,18.121-29.6822,36.0204-44.606,53.9623-.9611,1.1555-1.7371,2.2722-2.0617,3.7136-4.2903-3.3961-8.5261-6.8643-12.8908-10.1618-2.7084-2.0462-2.9567-4.1069-.8439-6.7157,13.9721-17.2526,27.936-34.512,41.8551-51.8074,13.3518-16.5906,26.5999-33.2649,39.978-49.8341,15.8829-19.6715,31.8385-39.2845,47.7984-58.8936,6.7767-8.3262,13.7775-16.473,20.4337-24.8932,6.9022-8.7313,10.7684-9.7697,20.5323-4.5314,2.1063,1.13,3.9577,2.7353,5.9264,4.1217Z"/>
      <path class="cls-10" d="M448.1632,147.2173c-.8538-.5551-1.8792-1.1007-2.7668-1.8168-15.7881-12.7372-31.5349-25.5257-47.3618-38.2143-2.2725-1.8219-2.6909-2.9024-.5243-5.438,8.6385-10.1101,17.0053-20.4564,25.3049-30.8492,1.8304-2.2919,2.8695-2.8325,5.3928-.6943,15.4787,13.1165,31.0795,26.0908,46.7601,38.9655,2.954,2.4254,3.069,3.9039.4787,6.922-8.011,9.3339-15.2694,19.3054-23.6282,28.3577-.9852,1.0669-1.8299,2.4126-3.6553,2.7675Z"/>
      <path class="cls-11" d="M181.6745,587.2371c20.3119,0,40.624-.0254,60.9358.0125,8.1927.0153,6.8972-.9063,7.0421,7.279.0414,2.3396-.1734,4.5957-.9069,6.8666-2.0386,6.3112-6.2121,9.6444-12.8413,9.6528-37.1276.0475-74.2553.063-111.3829.035-6.2675-.0048-10.5536-4.306-10.8795-10.5861q-.6838-13.1785,12.5908-13.1806c18.4806-.0012,36.9612-.0002,55.4417-.0002,0-.0264,0-.0527,0-.079Z"/>
      <path class="cls-3" d="M243.5484,634.2516c17.0947-5.0971,24.5893-12.2711,28.5718-27.4228,9.6564,5.5685,19.2308,11.0628,28.7782,16.6035,8.0406,4.6663,16.0151,9.4477,24.0957,14.0432,2.2229,1.2642,2.8888,2.3292,2.0134,5.0801-3.6177,11.3692-6.9932,22.8228-10.1127,34.3388-.9044,3.3387-1.8693,3.3202-4.5949,1.903-24.2321-12.5995-47.3944-26.8325-68.7516-44.5459Z"/>
      <path class="cls-6" d="M261.4737,390.7025c-.6587.9163-1.1157,1.6043-1.6244,2.2517-4.305,5.4791-8.6749,10.9083-12.9065,16.4435-1.9562,2.5588-3.638,2.5119-6.1212.5312-20.6246-16.451-41.3687-32.7522-62.0058-49.1877-6.7918-5.4091-6.7529-6.955-.7402-13.4313,3.2793-3.5321,6.5645-7.0663,9.6736-10.7461,1.7605-2.0835,3.1755-2.2189,5.3376-.4878,14.2556,11.414,28.6136,22.6999,42.8983,34.0777,7.7893,6.2041,15.5,12.507,23.2472,18.7639.728.588,1.4638,1.1662,2.2413,1.7849Z"/>
      <path class="cls-4" d="M441.4223,23.5006c.8397.5719,1.9691,1.2633,3.0145,2.0645,25.7358,19.7236,50.8205,40.2625,75.9633,60.7278,4.0855,3.3254,4.2981,5.5901,1.0151,9.5748-2.5385,3.0812-5.3235,5.9657-7.7652,9.1186-2.3522,3.0372-4.6162,2.5647-7.1839.4444-15.2534-12.596-30.5259-25.1689-45.7841-37.7591-9.9977-8.2495-19.9244-16.5863-30.0061-24.7315-3.1594-2.5525-3.4998-4.635-.6104-7.6838,2.7298-2.8804,4.8913-6.2929,7.4073-9.3863.9091-1.1178,1.8126-2.4635,3.9494-2.3694Z"/>
      <path class="cls-14" d="M210.7765,416.125c-.5849,1.0235-.9529,1.9754-1.5768,2.7098-4.6235,5.4423-9.3515,10.7966-13.9293,16.2766-1.779,2.1296-3.4891,2.1445-5.5251.5575-10.4686-8.1604-20.9627-16.2882-31.405-24.482-2.685-2.1068-2.2293-4.8473-.4548-7.0891,4.4261-5.5916,9.1282-10.9643,13.6974-16.4432,1.1321-1.3576,2.1576-1.7441,3.7408-.4702,11.2444,9.0473,22.5506,18.0178,33.817,27.0377.612.49,1.0445,1.2042,1.6358,1.9029Z"/>
      <path class="cls-13" d="M403.7609,629.91c20.9086.255,37.0111,17.0003,36.8207,38.2907-.1767,19.7643-17.0495,36.0639-37.1332,35.8715-20.9957-.2011-36.9962-16.6045-36.77-37.6957.2164-20.1705,17.0361-36.7109,37.0824-36.4665Z"/>
      <path class="cls-9" d="M416.4473,311.2342c-17.1438-.0774-31.3909-14.7594-31.3004-32.256.0907-17.5281,14.3907-31.8747,31.697-31.8005,17.1766.0737,31.6298,14.6408,31.709,31.9591.0797,17.4075-14.6926,32.1759-32.1056,32.0973Z"/>
      <path class="cls-2" d="M389.5903,667.2682c-.0181-8.5453,5.8496-14.3963,14.3809-14.34,7.8869.0521,13.6293,5.9102,13.7195,13.9959.0893,8.0068-6.1457,14.2894-14.1144,14.2223-7.6767-.0646-13.9699-6.3093-13.9859-13.8782Z"/>
      <path class="cls-2" d="M425.825,280.0082c-.1208,5.0818-4.1443,9.1265-9.0776,9.1252-5.3567-.0013-9.3041-4.3453-9.1888-10.1119.1076-5.3802,4.143-9.0887,9.6841-8.8996,5.5693.1901,8.7262,3.8268,8.5822,9.8863Z"/>
      <path class="cls-5" d="M573.5432,833.7746c-1.3401,1.53-3.1201.78-4.6801.78-175.17.04-350.34.04-525.51-.01-.21,0-.42.02-.64.04,16.3201-5.5,59.15-6.27,173.0601-10.19,126.24-4.34,123.47-5.12,147.9199-4.69,24,.41,47.99-2.03,72-1.57,21.79.43,43.27-5.21,64.9501-7.43,4.71-.49,16.0599-1.63,17.61-7.05,1.03-3.58-2.75-7.31-9.78-15.26-6.0701-6.87-11.33-14.45-17.61-21.13-16-16.99-17.13-51.16-23.87-79.04-9.3-38.45-28.1-60.19-35.7-71.34,4.1099,2.19,8.08,4.94,11.8199,8.2401,6.9601,6.15,12.4401,13.3799,16.11,21.91,14.96,34.69,29.91,69.4,44.78,104.14,1.75,4.09,3.04,8.4,4.4399,12.64,2.4401,7.4301,6.97,10.76,14.67,10.9901,6.7999.19,13.64-.71,20.37,1.12,17.3401,4.72,29.4299,19.87,29.9399,37.87.1801,6.65.0901,13.32.1201,19.98Z"/>
      <path class="cls-5" d="M493.9031,667.9646c-4.3499-9.67-8.6799-19.27-12.99-28.88-4.0499-9.01-8.9099-17.54-16.1699-24.32-.6899-.64-1.14-1.2-1.4-1.69,3.9,1.38,9.17,3.69,16.4301,3.93,14.6499.4901,25.8799-7.81,33.6499-13.56,47.9501-35.46,61.1801-101.48,61.1801-101.48,10.79-53.84-4.84-98.15-14.48-124.44-9.3099-25.38-20.37-44.62-29.7201-58.92,87.0701,97.54,83.2101,259.38-36.5,349.36Z"/>
    </g>
  </g>
</svg>