<?xml version="1.0" encoding="UTF-8"?>
<svg id="Capa_2" xmlns="http://www.w3.org/2000/svg" viewBox="0 0 766.0571 429.3646">
  <defs>
    <style>
      .cls-1 {
        fill: #111515;
      }

      .cls-2 {
        fill: #f2f4f4;
      }

      .cls-3 {
        fill: #dee5e7;
      }

      .cls-4 {
        fill: #e8afaa;
      }

      .cls-5 {
        fill: #fccbc5;
      }

      .cls-6 {
        fill: #212d34;
      }
    </style>
  </defs>
  <g id="Capa_1-2" data-name="Capa_1">
    <g>
      <path class="cls-6" d="M766.0571,278.1492c-1.3831,15.053-8.1066,27.8918-17.0198,39.6373-17.3942,22.9208-40.7407,38.3808-65.8813,51.4042-37.6216,19.4888-77.7658,31.7501-118.9115,41.0804-27.3994,6.2132-55.1082,10.6687-83.012,13.6962-44.0814,4.7828-88.2894,6.5535-132.6366,4.6392-28.1107-1.2135-56.1228-3.4094-83.9619-7.4163-64.8018-9.3271-128.0541-24.0911-186.5028-54.9531-22.9776-12.1326-43.9084-27.0302-60.0414-47.7864C6.3456,303.3412-.1981,286.5686.1501,266.9249c.5876-33.1428,1.3162-66.3481-.0483-99.4432-1.556-37.7401,14.8003-65.4229,43.5285-87.5485,25.9557-19.9904,55.4466-33.0505,86.1349-43.5931,35.966-12.3557,72.956-20.4632,110.5193-26.3665C298.7287.7887,357.5293-1.131,416.4995.5474c38.5804,1.0982,77.0221,4.3955,115.1502,10.6371,51.1888,8.3797,101.2939,20.5918,148.3835,43.0754,21.5625,10.2953,41.7759,22.7105,58.5592,39.9802,12.9503,13.3256,22.681,28.5806,26.0684,47.2377.622,3.4254,1.2601,6.9076,1.2944,10.3695.1433,14.4835.0595,28.9693.0589,43.4543-.7051,2.4553-.316,4.967-.3198,7.4473-.0364,23.3215-.0309,46.6431-.0034,69.9647.0021,1.8111-.3569,3.6658.3663,5.4356Z"/>
      <path class="cls-1" d="M766.0571,278.1492c-1.3599-1.1808-.862-2.78-.8627-4.2126-.0126-24.7839.0052-49.5679.0427-74.3518.0022-1.4544-.3976-3.0239.777-4.2832.0143,27.6159.0287,55.2318.0431,82.8476Z"/>
      <path class="cls-5" d="M741.7592,263.9388c-.66,22.16-12.3,38.9-28.23,53.05-23.49,20.88-51.3901,34.0499-80.4401,44.97-41.0499,15.4401-83.59,24.9301-126.92,31.2899-45.24,6.6401-90.72,9.76-136.39,8.6602-75.98-1.8301-150.82-11.3901-223.2-35.77-8.6-2.8901-17.11-5.99-25.47-9.3901-20.35-8.2599-39.86-18.3099-57.77-31.5399-9.41-6.9601-17.94-14.85-24.96-24.2999-8.48-11.4102-13.31-24.0801-13.37-38.3901-.06-16.65-.01-33.2999-.01-51.08,6.07,7.39,12.4,13.34,19.22,18.72,24.64,19.45,52.51,32.9901,81.7,43.96,36.97,13.8799,75.27,22.6799,114.15,29.1,57.2,9.4501,114.83,12.37,172.7001,10.9,38.2899-.98,76.3899-4.39,114.2-10.8101,45.78-7.78,90.6799-18.73,133.5-37.1,12.04-5.17,23.76-10.91,34.97-17.51,11.3401-6.67,22.16-14.23,32.26-22.97,4.77-4.14,9.1699-8.65,14.1699-14.34,0,18.35.4001,35.46-.1099,52.55Z"/>
      <path class="cls-5" d="M715.639,202.2588c-17.8199,17.33-39.1599,29.06-61.6199,38.97-34.9401,15.4301-71.49,25.6-108.9001,32.91-21.6899,4.24-43.5499,7.2899-65.71,9.6199-8.1599.8901-23.5499,2.7201-30.27,3.0601-6.95.4299-13.8999.96-20.8599,1.27-35.3101,1.54-70.6201,1.3201-105.8701-1.1-66.6-4.5699-131.97-15.54-194.53-39.8101-2.58-1-5.15-2.03-7.71-3.08-23.62-9.65-46.15-21.42-65.51-38.64-1.12-.99-2.14-2.1-3.33-3.01-2.32-1.76-2.4-3.13-.39-5.57,14.15-17.18,32.21-29.17,51.61-39.41,36.1299-19.05,74.85-30.63,114.5699-39.15,68.83-14.74,138.55-17.65,208.6-14.75,49.1499,2.03,97.8201,7.87,145.5701,19.65,5.3099,1.31,10.6099,2.7,15.8999,4.16,33.92,9.37,66.4399,22.14,96.27,41.11,12.13,7.71,23.12,16.83,32.49,27.84,2.0601,2.42,1.97,3.72-.3101,5.93Z"/>
      <path class="cls-3" d="M733.4032,178.4879c-21.6278-25.5599-49.3684-41.345-79.031-54.208-38.1429-16.5404-78.2032-26.5852-118.9526-33.9654-56.8692-10.2996-114.3108-13.9434-172.0161-12.7566-66.5401,1.3685-132.3185,8.7307-196.4476,27.5824-35.3634,10.3956-69.3262,23.916-100.1394,44.5296-12.3837,8.2844-23.5793,17.9058-32.9159,29.6437-10.2156-14.0206-10.1338-34.9993.1247-51.3303,11.1977-17.8262,27.3642-30.2313,45.1216-40.7481,33.337-19.744,69.7038-31.7687,107.0932-40.816,45.8583-11.0966,92.4796-16.971,139.5918-19.365,39.8125-2.0231,79.6153-2.0164,119.3771.4052,60.8909,3.7084,120.9789,12.3694,179.0588,31.9149,30.3262,10.2057,59.7441,22.3637,84.8936,42.8691,6.9857,5.6957,13.4486,11.9466,18.8838,19.1786,14.2799,19.0007,15.8483,35.1405,5.358,57.0658Z"/>
      <path class="cls-4" d="M715.639,202.2588c-17.8199,17.33-39.1599,29.06-61.6199,38.97-34.9401,15.4301-71.49,25.6-108.9001,32.91-21.6899,4.24-43.5499,7.2899-65.71,9.6199-8.1599.8901-23.5499,2.7201-30.27,3.0601-6.95.4299-13.8999.96-20.8599,1.27-35.3101,1.54-70.6201,1.3201-105.8701-1.1-66.6-4.5699-131.97-15.54-194.53-39.8101-2.5798-.9999-5.1496-2.0298-7.7095-3.0798,5.2808,2.1659,16.1092.9915,22.0134,1.8484,15.1917,2.2049,30.3163,4.8492,45.5157,7.0134,42.3414,6.029,84.9356,9.5222,127.6746,11.4506,87.6775,3.956,177.5832-.4976,260.6885-31.1092,18.1865-6.699,41.9742-15.5492,48.5041-35.8652,3.0586-9.5162,1.2924-20.0746-2.876-29.1599-9.2295-20.116-28.5007-39.6554-50.4006-45.0583,5.3099,1.31,10.6098,2.7,15.8998,4.16,33.92,9.37,66.4399,22.14,96.27,41.11,12.13,7.71,23.12,16.83,32.49,27.84,2.0601,2.42,1.97,3.72-.3101,5.93Z"/>
      <path class="cls-4" d="M741.7592,263.9388c-.66,22.16-12.3,38.9-28.23,53.05-23.49,20.88-51.3901,34.0499-80.4401,44.97-41.0499,15.4401-83.59,24.9301-126.92,31.2899-45.24,6.6401-90.72,9.76-136.39,8.6602-75.98-1.8301-150.82-11.3901-223.2-35.77-8.6-2.8901-17.11-5.99-25.47-9.3901,44.69,6.54,129.05,20.6101,258.97,25.4701,0,0,142.8199,5.35,240.65-45.39,22.0601-11.4399,41.36-21.45,55.5701-43.4399,10.1599-15.72,12.5698-29.6101,19.1399-44.6901,11.3401-6.67,22.16-14.23,32.26-22.97,4.77-4.14,9.1699-8.65,14.1699-14.34,0,18.35.4001,35.46-.1099,52.55Z"/>
      <path class="cls-2" d="M102.2526,82.7402c78.3456-38.2533,161.9367-45.6657,162.5218-42.7826.3098,1.5264-22.2544,6.0626-49.5652,21.3913-6.3665,3.5733-17.175,10.0814-26.8696,22.1739-3.8091,4.7513-4.4135,6.6634-6.5217,9.3914-12.0511,15.5938-38.217,13.7344-51.6522,14.6086-53.7281,3.496-85.3055,62.5136-94.9565,54.7827-5.3854-4.314,11.4783-52.4348,67.0435-79.5652Z"/>
    </g>
  </g>
</svg>