<?xml version="1.0" encoding="UTF-8"?>
<svg id="Capa_2" xmlns="http://www.w3.org/2000/svg" viewBox="0 0 345.4372 804.0275">
  <defs>
    <style>
      .cls-1 {
        fill: #6b8898;
      }

      .cls-2 {
        fill: #4d7289;
      }

      .cls-3 {
        fill: #6991a9;
      }

      .cls-4 {
        fill: #223a47;
      }

      .cls-5 {
        fill: #37586c;
      }

      .cls-6 {
        fill: #e1b96b;
      }

      .cls-7 {
        fill: #4d6e84;
      }

      .cls-8 {
        fill: #57738a;
      }

      .cls-9 {
        fill: #42657b;
      }

      .cls-10 {
        fill: #446477;
      }

      .cls-11 {
        fill: #223946;
      }

      .cls-12 {
        fill: #ead7ad;
      }

      .cls-13 {
        fill: #678ca6;
      }

      .cls-14 {
        fill: #7592a8;
      }

      .cls-15 {
        fill: #688fa8;
      }

      .cls-16 {
        fill: #527085;
      }

      .cls-17 {
        fill: #95b4c7;
      }

      .cls-18 {
        fill: #355365;
      }

      .cls-19 {
        fill: #496c82;
      }

      .cls-20 {
        fill: #7793a5;
      }

      .cls-21 {
        fill: #5b7890;
      }

      .cls-22 {
        fill: #93aab9;
      }

      .cls-23 {
        fill: #6f8ea5;
      }
    </style>
  </defs>
  <g id="Capa_1-2" data-name="Capa_1">
    <g>
      <path class="cls-11" d="M74.7787,494.2941c.76-1.6315.5328-3.1495-.2749-4.744-2.6152-5.1628-4.9028-10.5056-7.7507-15.5332-4.176-7.3722-4.005-14.6573-1.266-22.4703,3.1791-9.0684,5.6051-18.3983,8.5766-27.5437.6753-2.0783.2112-2.5281-1.6601-3.2559-10.5027-4.0848-14.5867-14.6954-9.8115-25.0483,2.7259-5.5656,4.0702-11.6147,6.0065-17.4498,11.5727-34.8747,22.9999-69.7975,34.4077-104.7265,10.887-33.3341,23.0001-66.5314,32.2852-100.3553,3.4797-12.4162,4.5641-24.9259.8123-37.5393-.55-1.8489-3.5142-6.823-4.57-8.2263.5096-3.7471,3.8097,1.1002,4.9255,2.7252,3.0505,4.4426,4.4455,9.5031,5.152,14.7297.3421,2.5309,1.1418,5.0757.6227,7.4929,1.3492-3.756,2.0183-7.9939,3.7929-11.7539,2.424-5.1361.3258-8.8272-2.8186-12.51-4.5561-5.336-10.1776-9.0113-16.8938-11.03-1.1972-.3598-2.3703-.7972-3.5345-1.2509,4.5536,1.9201,7.3807,5.8189,10.5585,9.3028.6145.6737.5343,1.5639-.1433,2.2886-1.4192,1.0211-1.5115.1015-2.4137-1.0781-6.9379-8.7374-16.2734-12.3756-27.136-12.6576-15.5833-.4045-29.7013,4.4218-42.8521,12.3841-4.3531,2.6356-8.8039,4.1488-13.9315,3.4353-7.1144-.99-10.541-7.1977-7.1472-13.5335,4.0625-7.5842,9.9975-13.7146,16.382-19.3258,12.4323-10.9265,26.7182-18.3963,42.979-21.8085,9.7811-2.0524,19.6447-2.5536,29.6723-1.9641,17.7907,1.0459,34.3119,7.1545,51.1671,11.9753,13.5532,3.8763,27.081,7.8428,40.5861,11.8827,1.4148.4232,1.9611.5521,2.4732-1.0472,4.2671-13.3248,8.6037-26.6275,12.9854-39.9151.4929-1.4948-.0913-1.713-1.3347-2.0641-11.6759-3.2975-23.3246-6.6909-34.9909-10.0225-12.8272-3.6632-18.5775-13.8591-14.9055-26.8095,1.5899-5.6071,3.5554-11.0966,8.9489-14.3926,5.065-2.7097,10.3293-3.091,15.842-1.5622,14.4145,3.9976,28.7695,8.2036,43.1718,12.2438,17.9238,5.0281,35.8026,10.215,53.7127,15.2915,5.1343,1.4553,10.2465,2.9872,15.4104,4.3406,2.7683.7256,5.0626,2.4752,7.5569,3.7904,5.0736,3.8001,6.8793,9.288,6.314,15.1246-.8201,8.4687-3.688,16.2012-11.7306,20.7942-4.4139,1.7571-8.8952,3.176-13.7167,2.0029-4.5688-1.1116-9.0863-2.4224-13.5926-3.7646-7.0258-2.0925-14.1181-3.9547-21.1345-6.0728-1.8697-.5644-2.5895-.0666-3.1461,1.6847-4.281,13.4687-8.5126,26.953-12.8152,40.4147-.4234,1.3246-.3255,2.3165,1.1305,2.7163,11.3815,3.1252,22.6213,6.7265,33.9371,10.0718.084.0248.1988-.0547.2992-.0856,7.4175,3.6298,10.7568,11.2969,8.7403,20.154-.4506,1.9789-2.0487,4.721-1.2909,5.7073,1.1025,1.4351,3.8505,1.6358,5.9189,2.2934,8.6849,2.7611,17.394,5.4468,26.0626,8.2577,6.3295,2.0524,10.2116,6.3315,11.014,13.0484.6725,5.6298-3.2228,12.5994-8.4775,15.3359-14.8999,7.7594-28.0614,17.7744-39.0619,30.4869-6.9094,7.9847-12.8682,16.6777-18.0117,25.9152-.3489.6266-.8234,1.1831-1.2395,1.7722-3.0949,4.0241-5.1763,8.6363-6.9372,13.3009-23.4054,62.0039-41.4631,126.0024-62.7361,188.7548-3.2943,9.7176-11.9893,13.8502-23.0448,11.2511-2.0374-.479-2.6059-.0753-3.168,1.657-3.5435,10.9195-7.3293,21.7639-10.6727,32.7434-2.2299,7.3227-6.5255,12.3149-13.7365,14.9733-5.152,1.8994-10.1369,4.2504-15.2792,6.1791-1.8496.6938-2.6754,1.7444-3.3433,3.5493-18.1609,49.0796-36.4428,98.1141-55.4545,146.8722-1.6458,4.2209-2.929,8.6212-5.6466,12.3748-1.6497,2.2787-3.5719,4.1187-6.4394,4.6243-1.6467.2904-2.0058,1.5186-2.4763,2.8329-11.4133,31.8801-24.1168,63.2136-39.757,93.2907-4.3594,8.3834-8.7471,16.7555-13.7155,24.8044-1.8655,3.0222-4.6031,4.6471-8.1123,4.3731-3.5665-.2783-6.3746-2.1469-7.5619-5.6057-1.0895-3.174-.1612-6.3587.849-9.446,2.4884-9.2488,3.8863-18.7308,6.0164-28.0593,4.3711-19.1432,9.0402-38.2093,14.2106-57.1517,3.0833-11.296,6.0332-22.6312,9.7778-33.7375.2812-.8339.8191-1.7386.3527-2.7144-.3606-.453-.7213-.9058-1.0819-1.3588-.0237-1.1044-.7095-1.9544-1.1273-2.9051-1.1765-2.6769-1.4728-5.3261-.6359-8.2433,14.9765-52.4178,29.7666-104.9172,45.4273-157.1351.3155-1.0517.9782-2.14.5006-3.3467Z"/>
      <path class="cls-23" d="M75.9109,407.2622c-2.4235-2.5197-1.3205-5.3501-.4559-7.9663,5.2644-15.9303,10.7182-31.7981,15.973-47.7315,22.9879-69.7027,45.8835-139.436,68.9723-209.1052,1.8957-5.7201,1.0976-10.7232-1.584-15.6805-6.3991-11.8294-16.7758-18.8352-29.074-23.2529-10.253-3.6831-20.9056-5.3015-31.8092-5.1912-3.5155-.6446-7.0132.0868-10.8722.4548.4902-1.9228,1.7732-2.4076,2.9756-2.8508,7.4414-2.7428,15.0507-4.4465,23.0524-4.7387,17.3815-.6347,34.0089,3.0528,50.5926,7.6909,31.2934,8.7521,62.3923,18.1712,93.6589,27.0133,7.3822,2.0876,14.7165,4.3608,22.1059,6.4361,1.2065.3388,2.4825.5799,3.2363,1.7627.5603,1.2879.0312,2.4589-.3804,3.6541-9.0052,26.1503-17.5702,52.4478-26.3319,78.6796-8.3633,25.0389-16.3385,50.205-24.7716,75.2202-8.3277,25.2034-16.2304,50.5451-24.6425,75.7218-3.6209,10.837-7.0951,21.724-10.6013,32.5988-.1729.4435-.3799.8742-.546,1.3205-1.1938,3.3241-2.2488,6.6962-3.369,10.045-.256.6913-.5014,1.388-.7369,2.0875-.5257,1.3526-.9159,2.744-1.1804,4.1735-.0641.2962-.1554.5819-.2593.8655-1.6181,4.169-2.7171,8.5101-4.2385,12.7124-.2485.6084-.5521,1.1843-.9551,1.7058-1.7912,2.1405-3.9818,1.3772-6.1144.7983-11.6668-3.1676-23.2691-6.5636-34.8986-9.8636-20.9353-5.9406-41.6304-12.6849-62.573-18.5969-1.6159-.4562-3.0902-1.238-4.6708-1.906-.6498,1.297.5718,2.7766-.5021,3.9429Z"/>
      <path class="cls-5" d="M88.5072,486.6894c-1.2467-2.318-2.4934-4.636-3.74-6.954-.1664-2.5491-1.6706-4.4203-3.1852-6.2863-.6258-1.263-1.2517-2.5259-1.8775-3.7888-.6451-1.8675.4778-1.4888,1.3931-1.0028,1.4381.7637,2.2846,2.1422,3.1364,3.4714,2.8077,4.3815,6.6625,7.481,11.5487,9.2125,8.2246,2.9145,16.557,5.5057,24.895,8.0742,3.838,1.1823,7.5958,1.1347,11.4107-.392,2.5272-1.0114,5.0774-2.0091,7.6835-2.84,2.331-.7432,4.0229-2.2359,4.7921-4.6344,2.5676-8.0054,5.21-15.9877,7.599-24.0489.8055-2.7178.2139-3.8025-2.6429-4.6728-11.5643-3.5226-22.9828-7.4964-34.5248-11.0883-8.6316-2.6862-17.155-5.7007-25.68-8.7073-1.5677-.5529-2.895-1.2436-3.2032-3.0608,1.6713-5.0453,1.6535-4.9892,6.8693-3.335,21.651,6.8667,43.207,14.0364,65.0159,20.4016,3.7112,1.0832,7.3517,2.4091,11.0653,3.4833,1.6194.4685,2.2421.9854,1.6249,2.8355-3.9119,11.7254-7.6623,23.5048-11.5722,35.2309-.728,2.1833-2.9402,2.9018-4.8839,3.6851-5.7323,2.3101-11.3976,4.8401-17.263,6.7502-5.2697,1.7161-7.4696,5.7161-9.1796,10.3292-7.0281,18.9601-13.8432,38.0014-21.0818,56.8805-11.4772,29.9341-22.3169,60.112-34.3261,89.8425-.9804,2.4271-1.8512,4.8987-2.7601,7.3543-.6628,1.791-1.5292,2.7636-3.7516,1.9585-7.3844-2.676-14.8905-5.0231-22.2311-7.8094-3.124-1.1857-1.2838-3.5563-.5143-5.4922,1.245-1.0078,2.4212-.3175,3.5196.2413,3.1081,1.5817,6.4303,2.5945,9.6963,3.7525,2.965,1.0512,3.931.633,5.0464-2.3549,4.5212-12.1109,9.1315-24.1883,13.6335-36.3067,6.3681-17.1416,12.7876-34.2644,19.0203-51.4554,7.6662-21.1448,15.3846-42.2739,21.9937-63.7838,1.136-3.6973.2525-5.0401-3.2354-6.564-5.4071-2.3622-10.9581-4.2515-16.6078-5.9072-1.5195-.4453-3.0055-.9813-4.6073-.9282-1.5586.0516-2.5755-.6211-3.076-2.0904Z"/>
      <path class="cls-19" d="M88.5072,486.6894c.7427.5215,1.2852,1.1912,2.3825,1.3099,6.8953.7456,13.3447,3.055,19.6254,5.8907.5742.2593,1.1175.6015,1.7097.8043,5.6982,1.9509,6.0884,2.9292,4.299,8.7253-7.656,24.7984-16.7465,49.0973-25.5561,73.492-4.4798,12.4051-9.3385,24.6727-13.9352,37.0363-5.0633,13.6187-10.0102,27.2807-15.0394,40.9122-.8213,2.226-2.1538,3.5118-4.812,2.4378-3.6779-1.4862-7.5745-2.4138-11.0887-4.33-.9212-.5023-1.8539-1.0117-2.9689-.8818,2.0934-7.6657,4.1025-15.3554,6.2961-22.9923,5.603-19.5063,11.272-38.9938,16.9451-58.4798,5.8791-20.1937,11.7887-40.3785,17.6976-60.5635,1.3811-4.7181,2.7217-9.4512,4.2539-14.1207,1.019-3.1054,1.1019-6.14.1908-9.2405Z"/>
      <path class="cls-19" d="M86.1121,429.9711c1.4533,2.4729,4.2559,2.6196,6.5049,3.3873,14.2659,4.8701,28.6089,9.5152,42.9449,14.178,4.8771,1.5863,9.8046,3.0183,14.7145,4.5027,3.015.9115,3.7566,2.3135,2.7726,5.4416-2.5119,7.9849-5.1206,15.9406-7.5166,23.96-.8393,2.809-2.5537,4.522-5.1517,5.4919-3.3203,1.2396-6.6715,2.3967-10.0125,3.5803-3.3219,1.1768-6.67.8-9.8807-.2454-9.1635-2.9838-18.5809-5.2959-27.3758-9.2614-3.5345-1.5936-7.0779-3.7515-9.0339-7.5742-.8061-1.5755-1.862-3.0409-3.2416-4.2237-.714-.6121-1.0658-.4791-1.1317.452-3.3708-3.5122-3.3156-7.5678-1.9907-11.8942,2.8339-9.2544,5.6028-18.5287,8.3983-27.7949Z"/>
      <path class="cls-16" d="M320.7355,55.4487c-2.12,6.2582-4.0293,7.4268-10.2935,5.6699-17.81-4.9952-35.5884-10.1031-53.3757-15.1792-17.3839-4.9609-34.7595-9.9507-52.1466-14.9004-7.1755-2.0427-9.197-9.275-4.2324-15.2936.7797-.3935,1.6297-.6723,2.3966-.1433,5.7816,3.9885,12.6671,4.9182,19.1791,6.7433,25.6683,7.1938,51.2498,14.685,76.8599,22.0785,5.7466,1.659,11.5176,3.2327,17.2418,4.9709,4.8427,1.4705,4.8687,1.4806,4.3708,6.0539Z"/>
      <path class="cls-22" d="M282.3304,134.4572c-3.6322-1.9381-7.7149-2.5064-11.5875-3.6692-15.2167-4.569-30.5045-8.9015-45.7756-13.2882-20.7045-5.9475-41.4594-11.7243-62.109-17.8562-9.5382-2.8324-19.1676-5.19-28.9916-6.5279-14.8744-2.0257-29.6637-1.8967-43.9326,3.7265-.755.2975-1.4535.7385-2.1163,1.3664,2.9485-.9335,5.9753.0168,8.8996-.6381.6241-.1398.9584.2734,1.216.7641-14.2108-.1333-26.4563,5.4109-38.3339,13.6324,5.1677-6.6214,18.4715-15.5047,27.9873-19.3331,17.3442-6.9778,35.161-7.4065,53.2094-3.947,21.736,4.1663,42.5705,11.6903,63.8247,17.6457,26.6017,7.4537,53.0522,15.447,79.5679,23.2073.9307,1.7033.464,3.4011-.0197,5.1-.656.3713-1.2672.2933-1.8387-.1828Z"/>
      <path class="cls-23" d="M284.1903,134.3986c-1.3374-1.6191.1354-3.2392-.0017-4.8586,1.2416.5544,2.5698.972,3.7059,1.6926,2.1295,1.3508,3.065,3.0073,2.1288,5.81-5.6338,16.8658-11.0749,33.7958-16.6011,50.6976-16.7164,51.1274-33.4286,102.2562-50.1694,153.3757-10.3734,31.676-20.7942,63.3365-31.2042,95.0005-.3242.986-.7655,1.9335-1.1523,2.8989-1.6567-.6967-2.7316-1.8791-3.0756-3.6762.0214-1.1722.355-2.2781.742-3.3705,6.0375-17.0417,11.4207-34.3019,17.1796-51.4361,8.1351-24.2041,16.487-48.343,24.1073-72.709,8.3458-26.6856,17.7373-53.0134,26.4557-79.5696,9.6383-29.3581,18.8616-58.8456,28.422-88.2261.667-2.0498.7592-3.8576-.5371-5.6292Z"/>
      <path class="cls-10" d="M328.9239,168.0182c1.442.0378,2.7998.363,3.2079,1.9431.4614,1.7867-1.0959,2.3882-2.2298,3.0063-6.9082,3.7657-13.6578,7.769-19.8796,12.6148-11.7128,9.1225-22.7694,18.8682-30.4424,31.8531-.1417.2398-.4541.3788-1.3176,1.069,1.5748-5.0143,2.9059-9.3665,4.3085-13.6955,3.0958-9.5549,6.2221-19.0999,9.3469-28.6453,1.692-5.1686,3.3666-10.3436,5.1486-15.4812.3125-.901.4244-2.5926,2.2542-1.6673-.5203,4.5165,2.8468,5.0194,5.9606,5.7238,4.3184.977,8.4846,2.4793,12.6539,3.8992,3.8677,1.3172,7.4443,1.7731,10.9889-.62Z"/>
      <path class="cls-8" d="M188.2409,435.5673c.8849,1.1485,1.7699,2.2969,2.6551,3.4466-2.1255,3.7401-3.8241,4.378-8.3594,2.9443-13.3646-4.2247-26.7097-8.5111-40.0765-12.7286-17.9483-5.6628-35.9102-11.2825-53.8636-16.9291-.4879-.1534-.9454-.4034-1.4171-.6084-3.3899-1.7981-7.2042-2.4284-10.7145-3.8951-.1847-.1785-.3693-.3571-.554-.5353-.2724-1.7321-1.0346-3.4251-.4217-5.2282,8.7912,3.9492,18.2633,5.7703,27.3831,8.6931,11.5372,3.6976,23.2299,6.9076,34.8402,10.3792,14.1073,4.2183,28.2544,8.2909,42.4722,12.1245,1.7912.483,3.012.1986,4.3055-.8233,1.2482,1.0557,2.4706,2.1421,3.7507,3.1602Z"/>
      <path class="cls-20" d="M320.7355,55.4487c.6312-4.0829-2.2998-4.5981-5.1988-5.4232-21.6243-6.155-43.225-12.3929-64.8371-18.591-14.6758-4.2088-29.3468-8.4351-44.0489-12.5499-2.2686-.6349-3.2685-3.4598-5.9621-3.1392,1.7889-1.9178,3.884-2.0622,6.3149-1.3669,29.9166,8.5567,59.8483,17.0606,89.7711,25.5957,6.2437,1.7809,12.4749,3.6069,18.6974,5.4607,7.1267,2.1232,7.5164,2.9024,5.2635,10.0137Z"/>
      <path class="cls-12" d="M24.8023,755.0582c-2.76,5.217-4.3026,10.9238-6.6383,16.3288,6.519-31.6737,15.0288-62.836,23.8323-93.9241,1.6774-1.8468,3.6164-1.3475,5.4797-.4757,1.8895.8838,2.7034,2.5258,2.7262,4.5988.0153,1.3908-.3061,2.6924-.798,3.981-7.2555,19.005-14.7159,37.9345-21.1247,57.252-1.1879,3.5807-2.0936,7.2802-3.7761,10.6554-.4769.9567.9391.9738.2988,1.5839Z"/>
      <path class="cls-6" d="M24.8023,755.0582c-1.2345.0311-1.3269-.3863-.9241-1.5477,2.914-8.4021,5.6699-16.859,8.5867-25.2601,5.1529-14.8416,11.039-29.4081,16.6034-44.0955.6803-1.7956.98-3.9289-.6783-5.6161-1.8648-1.8973-4.0979-1.6914-6.3934-1.0769.6179-2.3031,1.2359-4.6071,1.8534-6.9092,4.2493,1.4553,8.2571,2.9679,12.3566,4.1672,1.7904.5238,1.9982,1.1322,1.3615,2.7622-7.9033,20.2355-16.1275,40.3376-24.9034,60.2113-2.5666,5.8122-5.2386,11.5779-7.8623,17.3649Z"/>
      <path class="cls-7" d="M247.7986,63.8383c2.2209-7.2401,2.1592-7.0045,9.4362-5.1002,3.5143.9197,3.3242,2.4557,2.4079,5.1783-4.2763,12.705-8.4874,25.4336-12.5258,38.2157-.7286,2.3061-1.6893,2.6448-3.7082,1.9573-2.0797-.7083-4.2298-1.2076-6.3233-1.879-.8617-.2764-2.0736-.5885-.7931-1.8612.3553-1.4686,1.3046-2.0405,2.7718-1.852,1.5821.2033,2.253-.73,2.6657-2.0775,2.9205-9.5354,6.0445-19.007,9.086-28.5035,1.0476-3.271-1.8166-2.8837-3.0172-4.0779Z"/>
      <path class="cls-18" d="M132.0142,124.556c-3.447-3.3068-6.3917-7.1808-10.8386-9.371,11.3951,2.0594,20.5129,7.396,26.254,17.722.8048,1.4475,1.0749,2.7471.4897,4.4254-1.788,5.1277-3.3661,10.3287-5.0233,15.502-.2153.672-.2542,1.4404-1.2381,1.9371-.1482-6.5514-.975-12.8673-3.0993-18.9851-.7714-2.2214-2.2779-3.9863-3.1919-6.1028-.524-1.2134-2.4712-4.2824-3.3524-5.1277Z"/>
      <path class="cls-14" d="M247.7986,63.8383c1.0681-.1503,2.0558.1448,3.07.4479,1.3642.4076,1.7659.9311,1.2608,2.4798-3.2941,10.0984-6.4428,20.2442-9.6633,30.3667-.5366,1.6868-1.1878,3.2628-3.5289,2.1302-1.1796-.5707-1.9397.2877-2.6451,1.0863.635-4.7092,2.6712-9.0074,4.0291-13.5016,2.3319-7.7183,4.9687-15.3445,7.4775-23.0093Z"/>
      <path class="cls-1" d="M328.9239,168.0182c-2.6675,3.6536-6.0202,3.031-9.6957,1.8119-5.4287-1.8005-10.9613-3.2859-16.4388-4.9414-4.5803-1.3844-4.5734-1.4072-3.4686-5.8733,8.9362,2.126,17.5717,5.2715,26.3878,7.8059,1.0959.3151,2.1448.7939,3.2154,1.1969Z"/>
      <path class="cls-23" d="M76.4648,407.7971c3.823.5241,7.3053,2.1541,10.9137,3.3741.031.0105.0332.1971-.0002.2821-.0359.0913-.1299.1597-.1987.2385-3.6133-1.1834-7.4302-1.8066-10.7147-3.8947Z"/>
      <path class="cls-19" d="M81.582,473.4491c2.6403,1.9713,3.7059,4.0744,3.185,6.2864-1.0616-2.0955-2.1233-4.191-3.185-6.2864Z"/>
      <path class="cls-17" d="M82.6933,390.8056c.2491-.9009.4588-1.8148.7532-2.7006,6.2452-18.7923,12.5676-37.5593,18.7347-56.3772,7.1109-21.6977,13.8684-43.5136,21.1919-65.1385,5.5446-16.372,11.0558-32.7538,16.4732-49.1679,5.1896-15.7241,10.2126-31.5059,15.6268-47.1523,5.9606-17.2254,11.5235-34.5777,17.1857-51.8994,1.1779-3.6033,1.9787-4.0093,5.8458-3.0325,2.5345.6401,5.0744,1.2802,7.5649,2.0686,5.051,1.5991,5.9715,3.346,4.3435,8.3462-4.7675,14.6425-9.5496,29.2805-14.3916,43.8985-5.5633,16.796-11.2221,33.5604-16.7933,50.3538-6.3007,18.9923-12.4633,38.0309-18.8468,56.9952-6.247,18.5587-12.8438,37.0001-19.0172,55.5827-6.6676,20.07-13.1193,40.2123-19.0053,60.5324-1.8968,6.5483-2.3965,6.7121-8.8072,4.4597-2.764-.9711-5.691-1.4133-8.3393-2.7714-1.6926-.8681-2.6966-1.9675-2.519-3.9973Z"/>
      <path class="cls-4" d="M212.2003,149.4945c21.6413-.0062,36.1194,20.1042,29.3352,41.024-9.2848,28.6307-18.7646,57.1982-28.1586,85.7935-3.1426,9.5659-6.2227,19.1527-9.4304,28.6966-4.5159,13.4363-18.2713,22.4367-32.3142,21.2487-14.5932-1.2346-26.2972-11.67-28.6309-25.8513-.7706-4.6828-.3491-9.3989,1.1736-14.0037,12.7378-38.5225,25.3791-77.077,38.1559-115.5866,4.4284-13.3474,15.8082-21.3174,29.8694-21.3214Z"/>
      <path class="cls-21" d="M188.2409,435.5673c-2.1286-.0108-3.2616-1.2033-3.7507-3.1602.0195-.507.0946-.9882.5932-1.2719,1.7339-4.3358,3.7531-8.5758,4.451-13.2595l-.0052.0068c.8858-1.3421,1.1992-2.8484,1.2696-4.4245.0289-.6894-.1103-1.4349.6298-1.8868,2.1782-3.2378,2.7617-6.9503,3.1876-10.7098.1996-.2177.3991-.4353.5988-.653,2.7707-4.8543,3.7074-10.3672,5.4841-15.571,2.6021-7.6213,4.9433-15.3355,7.7303-22.8938,2.5755-6.985,4.3588-14.2252,6.943-21.1997,2.4012-6.4804,4.5315-13.0682,6.7068-19.6091,1.9046-5.7268,4.5311-11.3041,5.3336-17.3917.2101-1.5935.9325-2.99,1.6885-4.3815,1.2777-2.3518,2.1016-4.8066,1.4602-7.5373,2.0499-8.3484,5.2852-16.3168,7.8746-24.4931,4.8947-15.4558,9.8943-30.8794,14.9793-46.2737,4.7782-14.4654,9.7304-28.8734,14.5923-43.3113,4.7337-14.0572,9.1367-28.2265,14.2717-42.1481.1039-.2817.0378-.626.051-.941.6202-.0191,1.2403-.0384,1.8602-.0581,2.0676.5189,2.7485,1.4989,1.991,3.7754-2.8361,8.5241-5.4315,17.1279-8.1671,25.6859-4.6224,14.461-9.2581,28.918-13.9361,43.3611-3.0888,9.5366-6.2568,19.0476-9.3976,28.5674-3.4737,10.5285-6.9231,21.0651-10.4461,31.5771-3.1281,9.3335-6.4449,18.6046-9.4969,27.9625-5.7038,17.4889-11.189,35.0494-16.9333,52.5248-3.8533,11.7227-8.0504,23.3319-11.9923,35.0261-3.1764,9.4232-6.1643,18.9097-9.3042,28.3454-2.7057,8.1308-5.5077,16.2296-8.2672,24.3426Z"/>
      <path class="cls-8" d="M230.5615,291.6244c2.6756,2.7887.5492,5.416-.6459,7.7191-1.0929,2.1061-1.7386,4.102-1.9322,6.4464-.2875,3.482-2.5722,6.3363-3.4217,9.7106-1.8798,7.4666-4.9578,14.5499-7.3929,21.8415-1.9175,5.7416-3.5978,11.563-5.5454,17.294-3.0437,8.9566-6.4084,17.8086-9.2554,26.8254-1.1231,3.5568-2.7619,6.9363-3.152,10.844-.2775,2.7797-1.7711,5.7175-4.0009,7.9031,4.3521-14.8698,9.4575-29.4974,14.225-44.2337,6.3455-19.6136,12.6653-39.2355,19.0222-58.8454.6048-1.8658,1.395-3.6715,2.0992-5.5051Z"/>
      <path class="cls-8" d="M189.5344,417.8758c.7614,1.8696.6537,3.527-.6441,5.2499-1.1283,1.498-1.5903,3.3828-1.9505,5.2591-.2161,1.1259-.6454,2.2349-1.856,2.7505,1.2234-4.5071,2.2306-9.0869,4.4506-13.2595Z"/>
      <path class="cls-8" d="M194.6163,400.8614c1.1334,3.2937-.3691,8.3415-3.1876,10.7098.5045-3.736,2.3481-7.0735,3.1876-10.7098Z"/>
      <path class="cls-8" d="M190.7989,413.458c1.0906,1.9092.3717,3.2992-1.2695,4.4245-.0115-1.5996.2138-3.1312,1.2695-4.4245Z"/>
      <path class="cls-3" d="M100.5758,504.8289c.048,1.6471-.7811,3.0425-1.2195,4.5418-6.6029,22.5842-13.067,45.2103-19.8558,67.7385-4.5578,15.1249-8.8364,30.339-13.9609,45.2926-2.511,7.3275-4.8292,14.7213-7.2082,22.0936-.714,2.2126-1.4999,4.3766-4.4664,3.6909-2.352-.5438-3.6197-3.3293-2.9304-6.0956,5.0819-20.3938,11.0806-40.5332,16.8436-60.7383,6.7374-23.6211,13.4186-47.2583,20.171-70.8752.7751-2.7109,1.815-5.3492,2.7965-7.9973.9039-2.4384,2.7767-3.036,5.0874-2.3056,2.3289.7361,4.6491,1.5991,4.7426,4.6547Z"/>
      <path class="cls-15" d="M92.4809,439.9221c3.5907.6358,7.1135,1.6328,10.324,3.4603,1.613.9182,2.2225,2.5972,1.7044,4.3334-1.8518,6.2067-3.7279,12.4111-5.8357,18.5336-.7817,2.2705-2.6707,3.2606-5.2873,2.8748-3.2805-.4838-6.2677-1.6602-9.1297-3.223-1.6689-.9113-2.3179-2.3932-1.7946-4.249,1.6717-5.9282,3.2798-11.8777,5.1273-17.7513.6878-2.1868,1.724-4.4928,4.8916-3.9787Z"/>
      <path class="cls-2" d="M200.2572,167.2562c8.8352-7.3756,19.7014-4.8489,25.1005,1.4943,4.5958,5.3995,5.7995,11.6541,3.7222,18.2234-4.3876,13.8756-9.175,27.6244-13.7551,41.4395-6.7429,20.3391-13.4382,40.6939-20.1787,61.0338-1.1506,3.4721-2.5642,6.8613-3.6158,10.3611-2.7963,9.3066-13.4212,15.5306-23.5773,12.3918-6.0469-1.8689-9.9897-6.3086-11.0406-12.5473-.7404-4.3952-.6365-8.9885,1.683-13.14,1.0099.9817.5642,2.1449.3919,3.264-.2238,1.4536-.6705,2.8766-.7316,4.349-.0463,1.1144-.4713,2.7574.7654,3.0942,1.2931.3522,1.1965-1.3914,1.6096-2.2511,1.1619-2.4178,2.5565-2.0747,4.134-.459,1.6892,2.8635,3.4539,5.5393,7.3111,5.7292,4.2531.2094,6.5264-1.2064,8.049-5.5215,2.8704-8.1354,5.3688-16.3935,8.0001-24.6077,4.1063-12.8191,8.2486-25.6277,12.4521-38.4142,4.8282-14.687,9.3928-29.4633,14.6193-44.0185.6401-1.7826,1.2183-3.5893,1.5938-5.4488.909-4.5004-.4952-6.7026-4.8892-8.0011-1.7778-.5254-3.5528-.1953-5.3264-.3203-.5108-.1087-.9555-.4021-1.4556-.5324-4.2212-1.0997-4.5646-1.528-4.8618-6.1182Z"/>
      <path class="cls-9" d="M200.2572,167.2562c.4072.6992,1.1722,1.406,1.1576,2.0963-.0538,2.5457,1.279,3.1733,3.4812,3.0132.7853-.0571,1.3132.4752,1.6593,1.1603-4.9103,2.5958-5.9323,7.5614-7.4386,12.2256-9.0454,28.0068-18.5261,55.8707-27.5325,83.8899-1.4779,4.5979-3.0786,9.1635-4.2687,13.8556-.4107,1.6195-.8469,3.2631-1.832,4.6679-.597.8844-1.2599.0969-1.9316.0274-.1949,1.1759,1.2717,1.336,1.3465,2.3058.2566,1.4988.573,3.004-.6472,4.2738-1.6229-1.4048-2.7064-1.269-3.1027,1.0428-.2254,1.3151-.3728,3.1916-1.9915,3.0464-2.0018-.1797-1.95-2.192-1.7783-3.7483.3173-2.876.8021-5.7335,1.217-8.5993,6.3569-22.1372,14.0723-43.8361,21.2121-65.7201,5.0281-15.4113,10.2427-30.7617,15.3881-46.1347.9833-2.9376,2.4852-5.5431,5.0614-7.4024Z"/>
      <path class="cls-13" d="M164.8845,288.4399c8.2114-27.0488,17.2896-53.8163,26.164-80.6501,3.0868-9.3334,6.1756-18.6671,9.1384-28.0402,1.0447-3.3048,2.9523-5.4712,6.3686-6.2231,3.2493-1.4032,6.2976-.304,8.9709,1.2936,2.8217,1.6863,2.9713,4.7052,2.0789,7.5884-2.1915,7.0811-4.5051,14.1248-6.812,21.1696-4.7528,14.5139-9.5588,29.0103-14.2957,43.5294-5.0905,15.6031-10.138,31.2203-15.179,46.8395-1.1779,3.6497-2.6573,6.955-7.1994,7.1571-5.4537.2426-7.6897-1.217-9.8677-6.332.0319-1.6814.0641-3.3626.0964-5.0438-.0939-.5431.1535-.944.5366-1.2884Z"/>
      <path class="cls-2" d="M164.8845,288.4399c.0231.5141-.0307.996-.5372,1.2886-.8353.3923-1.6008.5003-1.8572-.6551-.1673-.7537.1376-1.6051.7024-1.8872,1.0907-.5449.9182,1.0828,1.6921,1.2537Z"/>
    </g>
  </g>
</svg>