<?xml version="1.0" encoding="UTF-8"?>
<svg id="Capa_2" xmlns="http://www.w3.org/2000/svg" viewBox="0 0 784.1348 806.3583">
  <defs>
    <style>
      .cls-1 {
        fill: #3383aa;
      }

      .cls-2 {
        fill: #599dd1;
      }

      .cls-3 {
        fill: #9cd1f2;
      }

      .cls-4 {
        fill: #1e86c6;
      }

      .cls-5 {
        fill: #2d9cd3;
      }

      .cls-6 {
        fill: #0476af;
      }

      .cls-7 {
        fill: #4291c1;
      }

      .cls-8 {
        fill: #86bfea;
      }

      .cls-9 {
        fill: #6cace4;
      }
    </style>
  </defs>
  <g id="Capa_1-2" data-name="Capa_1">
    <g>
      <g>
        <path class="cls-9" d="M569.1297,735.257c-10.9155,0-20.957-2.1348-28.2739-6.0112-15.2617-8.0903-19.6362-26.27-23.8672-43.8511-1.6133-6.7031-3.1367-13.0347-5.2095-18.5532-5.3838-14.3423-15.96-24.833-26.9761-33.9165-10.1816,6.543-16.6606,9.3687-21.3613,9.3691-.1426,0-.2837-.0029-.4229-.0078-.2065-.0073-.4116-.0112-.6128-.0112-4.8315,0-7.7544,2.1255-13.9053,6.9336-4.4453,3.4746-9.9775,7.7993-18.375,12.4312-7.0962,3.916-23.7158,13.0884-44.7964,14.3418-.9639.0571-1.959.0864-2.9585.0864-9.8926,0-21.5757-2.7925-42.7847-7.8618-10.9292-2.6128-18.001-4.627-22.6807-5.9595-4.9229-1.4019-7.3936-2.1055-9.249-2.1055-.7769,0-1.5889.1187-2.7148.397-6.627,1.6479-9.7734,5.2974-14.5366,10.8213-4.8394,5.6118-10.8618,12.5967-22.5874,19.3491-6.8999,3.9771-17.3301,9.9883-26.4937,9.9888-3.3989.0005-6.3828-.8315-8.8696-2.4717-9.5195-6.2734-9.0049-21.5083-8.1514-46.748.1519-4.4609.397-7.7969.5938-10.4771.4111-5.6021.5986-8.1592-.4834-12.937-2.4551-10.8853-7.0083-18.7476-13.5337-23.373-4.355-3.082-7.4619-3.2354-13.6519-3.5405-4.2402-.209-9.5171-.4688-16.7471-1.8281-12.2061-2.3037-28.8428-5.4443-42.0942-18.0068-.8618-.8208-20.873-20.2056-18.2295-45.1108.8823-8.3003,3.7764-12.7222,6.3296-16.6235,2.3125-3.5332,4.1387-6.3237,4.3691-12.1787.146-3.7051-.3765-5.0781-5.1787-16.4473-1.9849-4.7002-4.7036-11.1367-8.2778-19.9907-7.3921-18.3032-9.0107-23.2646-7.9297-29.98,1.0518-6.5518,3.7734-10.2358,6.1743-13.4863,2.1289-2.8818,3.8105-5.1577,4.5518-9.5215,1.4507-8.5352-1.7026-20.6597-8.5464-24.4111-1.2456-.6821-2.4502-1-3.7886-1-2.9111,0-6.3809,1.5293-10.3979,3.2998-6.0132,2.6509-13.4966,5.9497-23.2539,5.9502-.6104,0-1.229-.0132-1.8569-.0396-17.8511-.7559-40.3867-12.8525-46.9912-33.7822-1.1533-3.6562-1.7383-7.459-1.7383-11.3037,0-.5342.0112-1.0674.0337-1.6011.0215-.5049.0532-.9985.0947-1.5015.0005-.0073.001-.0151.0015-.0225h-.0005c.0332-.5049.085-1.001.1484-1.5044.0039-.0464.0088-.0923.0137-.1357.0503-.4199.1089-.8403.1758-1.2529.019-.1841.0479-.3662.0864-.5464.063-.394.1299-.7881.2129-1.1831.0293-.1582.0708-.3647.1216-.5874.0166-.0923.0376-.1943.064-.3047.0659-.3252.1401-.6509.2227-.9766.1714-.7466.3838-1.5347.667-2.4736.0728-.252.1592-.5337.2568-.8276.479-1.5195,1.0757-3.1162,1.7539-4.687.1138-.2832.2363-.5581.3716-.8418,2.2397-5,5.3779-10.063,9.3291-15.0488.2988-.3818.6152-.7744.9316-1.1562.5537-.6768,1.125-1.3535,1.7065-2.0195.0156-.0176.9873-1.1333.9873-1.1333.0732-.085.1494-.168.2271-.2471.8452-.9404,1.6997-1.856,2.6084-2.7964,6.0674-6.2661,11.4497-10.2988,12.4673-11.0435,7.0308-5.1499,18.7866-13.7607,32.1821-13.7607,2.269,0,4.5234.25,6.7002.7432,9.0679,2.0518,14.6079,7.6792,19.4956,12.644,4.7822,4.8574,8.5591,8.6943,14.7109,8.6943,8.3237-.0161,14.3286-6.8223,14.9858-7.5986,8.0869-9.5303,3.7891-23.1426,3.7446-23.2793-1.3179-4.0791-3.041-5.7393-5.4258-8.0366-2.5181-2.4263-5.6519-5.4448-8.2192-11.5112-4.3291-10.2261-5.3721-25.0366,2.0576-35.0718,3.5454-4.7876,7.4629-6.3711,11.6099-8.0479,2.332-.9424,4.9756-2.0112,8.0854-3.8618,8.4619-5.0371,15.5615-13.0767,21.104-23.8965,3.4824-11.0654,3.4995-20.7085.0488-28.6655-2.7827-6.4141-6.8359-9.4438-13.5518-14.4634-5.0923-3.8062-11.4302-8.5435-19.2021-16.3149-13.3853-13.375-21.4551-21.439-24.2007-34.4209-3.4551-16.3525,3.061-34.144,19.3667-52.8809,21.2007-24.3105,42.9863-29.4077,57.5332-29.4077,2.0049,0,4.0425.0967,6.0566.2871,26.7998,2.5278,43.1484,20.6865,47.5205,26.1914,15.2734,19.1821,16.2544,42.6646,16.2959,47.1772.0581,6.0083-.6523,10.6167-1.2236,14.3198-.8521,5.5288-1.3218,8.5742.7744,12.8516,3.6982,7.5493,12.915,13.4502,22.4136,14.3501.7285.0693,1.4297.1045,2.085.1045,4.2661,0,7.3042-1.4849,12.8203-4.1807,5.0752-2.48,12.0259-5.8765,23.0977-9.5098,11.8652-3.8911,18.8892-6.0928,25.2671-6.0928,3.0513,0,5.8247.5278,8.4795,1.6138,6.0596,2.4731,8.8096,6.2979,11.4692,9.9966,2.4087,3.3496,4.8989,6.8135,10.5874,10.2163,2.6499,1.5938,9.6675,5.813,17.9702,5.813,1.1973,0,2.3896-.0903,3.5439-.2681,3.9473-.6099,6.0122-2.0146,8.8696-3.9585,3.0469-2.0723,6.8389-4.6519,13.5186-6.6294,2.5366-.75,8.4326-2.4932,15.4155-2.4932,2.8809,0,5.6724.2988,8.2969.8877,9.7148,2.1772,14.436,7.7603,18.6011,12.686,3.4321,4.0591,6.6733,7.8926,12.8237,10.5415,4.1582,1.793,8.7769,2.7017,13.7295,2.7017,7.1797,0,14.4644-1.9565,20.5112-5.5088,13.3271-7.8193,17.8213-21.6284,19.3145-29.1636,1.8853-9.5186-.1538-15.1958-2.7354-22.3833-2.1406-5.9604-4.5669-12.7158-5.0054-22.502-1.0308-23.145,8.4453-53.0479,31.6855-64.0107,5.9053-2.7866,12.3423-4.1997,19.1318-4.1997,24.2554,0,46.103,18.1064,48.5146,20.1709,22.3628,19.0059,25.6846,36.7495,24.5308,48.2861-1.5498,15.5581-11.6533,26.2271-16.5088,31.354-7.4824,7.8901-13.9595,11.0054-20.8174,14.3032-5.0107,2.4102-10.1919,4.9023-16.5571,9.6045-7.1465,5.2744-9.5327,9.2656-12.0591,13.4912-2.6816,4.4858-5.7212,9.5708-13.999,15.6221-4.4453,3.252-8.3257,5.4243-11.4434,7.1699-5.3052,2.9702-7.4917,4.2944-8.3311,7.2759-1.813,6.4385,3.9375,14.7319,7.0269,19.1875,3.7251,5.3862,6.8994,7.7212,9.7002,9.7817,1.1753.8643,2.2856,1.6807,3.3291,2.6416,2.252,2.0942,3.665,4.4229,4.4634,7.3442,1.978,7.228-1.0918,12.6919-3.8003,17.5122-2.4731,4.4019-4.6094,8.2031-3.7559,13.6123.3857,2.4497,1.354,4.9023,2.8784,7.2915l.0884.1328c.0464.0713.0903.1431.1406.2109.0386.0522.0913.126.1274.1797,2.4443,3.6216,5.5825,6.2471,7.4575,7.8154.3301.2822.6206.5146.9106.7383.6665.5161,1.2451.9312,1.7764,1.2749.3315.2231.5933.3862.8467.5415.0273.0166.3228.1953.4438.271l.3052.1719c.0884.0474.1753.0977.2603.1509l.1006.0474c.103.0518.2046.1074.3037.1665,0,0,.2959.1504.3574.1851l.1787.0801c1.2227.6016,2.3999,1.0693,3.6787,1.4683l.7192.2256c.0732.0171.4409.1245.4409.1245l.2246.0649s.189.0469.2339.0601c.1826.0532.373.1074.5557.1528.0449.0112.0894.0229.1338.0356.522.1465,1.0439.2739,1.5664.4023l.1504.0376c.2568.0635.5181.1289.7739.2007,1.3965.3442,2.5474.6631,3.6162,1.0005.333.1035.6836.2231,1.021.3442.2871.0986.6182.2134.9492.3389.6528.2432,1.2642.4956,1.8428.7632.8813.3965,1.7031.8135,2.4727,1.2573.2827.1509.5757.3208.856.4912.0293.0181.1089.0679.1201.0747.3345.2075.6797.4272,1.0151.6572.3652.2407.7412.5029,1.1172.7764.3315.2402.6855.5112,1.0278.7822.3379.2568.7417.5889,1.1455.9336,5.0015,4.2549,6.5728,7.8369,7.959,10.9971,1.208,2.7544,2.3491,5.356,6.1143,9.1763,5.2983,5.3755,9.4795,6.7861,13.9062,8.2798,4.6138,1.5571,9.3848,3.167,14.1025,8.8564,2.3228,2.8037,4.5146,5.4502,8.4878,40.6685,2.8169,24.9346,2.1875,27.7822.6172,31.4043-3.3296,7.647-8.5479,11.1167-13.1523,14.1772-4.1519,2.7603-7.4312,4.9404-9.1079,9.9663-2.2422,6.7031-.6323,15.5859,3.8267,21.1245,3.0762,3.8184,6.4731,4.7681,10.7734,5.9702,4.7217,1.3198,10.0732,2.8159,15.0771,8.269,7.0264,7.6528,11.8574,22.126,6.9683,33.8721-3.4902,8.3999-10.3706,11.314-17.6553,14.3994-7.2598,3.0752-15.4883,6.5601-24.6074,16.0918-1.4678,1.5332-2.4746,2.7227-3.7485,4.2285-1.7778,2.1006-3.9902,4.7153-8.4722,9.52-4.5317,4.8647-11.3838,12.2192-18.6895,18.6812-9.8804,8.7505-16.4839,12.2344-21.3052,14.7783-4.3662,2.3037-6.3604,3.3555-8.3726,6.999l-.0664.126c.0029-.0063.0269-.0591.0498-.1123-.0269.0625-.0552.1245-.0845.1855-.957,1.9814-.8394,5.4932-.7148,9.2114.147,4.3828.313,9.3501-1.1084,14.2144-2.7993,9.5396-10.8926,15.5293-24.6831,18.2324,1.6313,3.1709,4.7061,7.5356,8.0498,9.0786,5.8804,2.7173,12.54,4.6289,19.5903,6.6528,8.0776,2.3184,16.4302,4.7158,23.9258,8.5083,1.7202.8706,3.5312,1.729,5.2827,2.5596,6.8608,3.2524,13.9556,6.6157,19.5942,12.3506,14.0562,14.2959,18.3862,45.3979,8.9106,63.998-7.7915,15.2959-19.2646,20.23-33.791,26.4771l-.1006.0435c-7.4487,3.2012-17.0444,4.9639-27.0205,4.9639Z"/>
        <path class="cls-3" d="M578.4439,9c22.6188-.0002,43.2559,17.0925,45.5883,19.0894,4.93,4.19,25.2699,21.52,22.98,44.42-1.4,14.05-10.6801,23.83-15.32,28.73-12.1201,12.78-21.2198,11.88-36.7599,23.36-15.65,11.55-10.8701,18.01-26.04,29.1-11.77,8.61-19.3001,9.22-21.45,16.86-2.3801,8.45,4.02,17.72,7.66,22.97,5.7199,8.27,10.54,10.28,13.68,13.17,1.43,1.33,2.5199,2.84,3.17,5.22,3.03,11.07-9.82,16.95-7.6601,30.64.54,3.43,1.8901,6.44,3.53,9.01.1401.21.27.42.4201.62,2.78,4.12,6.28,7.06,8.2999,8.75.3501.3.7001.58,1.05.85.71.55,1.4001,1.05,2.0801,1.49.31.21.6299.41.94.6l.01.01c.1699.1.34.2.5099.31.01,0,.03.01.04.02.1399.08.28.16.4099.23.1602.1.3201.18.48.26.1501.09.3101.17.4701.25.16.09.32.16.47.23,1.46.72,2.8701,1.26,4.25,1.69l.5699.18c.1301.04.25.08.3801.11.21.06.41.12.6199.18.0401.01.0901.02.1301.03.24.07.49.14.73.2.5699.16,1.1399.3,1.71.44.28.07.57.14.85.22,1.14.28,2.27.58,3.41.94.29.09.58.19.86.29.2899.1.5799.2.87.31.51.19,1.03.4,1.55.64.71.32,1.44.68,2.18,1.11.2299.12.4698.26.6999.4.03.02.0501.03.0801.05.29.18.59.37.88.57.3199.21.65.44.98.68.2899.21.5899.44.88.67.3401.26.6799.54,1.02.83,8.31,7.07,4.96,10.95,13.79,19.91,11.73,11.9,19.69,7.13,27.75,16.85,1.69,2.04,3.7401,5.15,7.48,38.3,2.7,23.9,2.1,26.48.96,29.11-5.69,13.07-18.14,11.74-22.4,24.51-2.78,8.31-.78,18.7,4.5899,25.37,7.7901,9.67,17.5801,5.24,26.0401,14.46,6.4,6.97,10.08,19.61,6.13,29.1-5.6602,13.62-22.14,9.02-41.36,29.11-3.61,3.77-4.49,5.4601-12.2599,13.7899-4.4901,4.8201-11.2802,12.1001-18.38,18.3801-18.98,16.81-25.32,13.34-30.64,22.98-.07.1399-.15.27-.21.4099-2.8201,5.8401.3999,15.6001-2.0901,24.1201-2.1099,7.19-8.2899,13.5-25.6599,15.8-2.02.26,3.79,13.3199,11.46,16.86,13.18,6.09,29.9499,8.3,43.3701,15.09,8.2399,4.17,17.2299,7.47,23.6999,14.05,12.8999,13.12,16.46,42.41,8.11,58.8-7.07,13.88-17.36,18.28-31.66,24.4301-6.9839,3.0014-16.1206,4.5978-25.2427,4.5978-9.5693,0-19.1227-1.7557-26.1674-5.4879-18.9201-10.0301-19.44-39.96-26.97-60.0101-5.98-15.9299-17.7699-27.3498-30.9-37.8999-8.9731,5.9592-16.9351,10.4346-21.6512,10.4346-.0876,0-.1734-.0015-.2589-.0046-.2627-.0095-.5222-.0142-.777-.0142-11.2754-.0005-15.022,9.2063-34.4529,19.9242-7.3201,4.0399-23.2101,12.62-42.8902,13.7899-.8819.0525-1.7779.0786-2.6921.0786-9.3589,0-20.7755-2.7279-41.7378-7.7385-23.0342-5.5058-28.2857-8.1884-32.9758-8.1884-1.2046,0-2.3719.1769-3.7942.5284-15.72,3.91-15.7,17.63-38.29,30.64-6.314,3.6388-16.3021,9.3881-24.2484,9.3881-2.361,0-4.5408-.5071-6.3917-1.7281-7.42-4.89-6.92-19.52-6.1301-42.89.4601-13.5,1.8101-16.52,0-24.51-.8999-3.99-4.0898-18.09-15.3199-26.05-8.9301-6.32-14.5099-2.8-32.1701-6.1199-11.9199-2.25-27.52-5.1801-39.8299-16.8501-.85-.8101-19.25-18.76-16.85-41.37,1.5601-14.6801,10.1699-15.13,10.72-29.1.27-6.86-1.73-8.45-13.78-38.3-7.5201-18.62-8.5-22.36-7.66-27.58,1.75-10.9,8.87-12.08,10.72-22.97,1.74-10.24-1.99-24.27-10.8201-29.11-2.0134-1.1025-3.9765-1.5542-5.9515-1.5544-8.9405-.001-18.1518,9.2498-33.6521,9.2498-.5479,0-1.1026-.0115-1.6665-.0354-17.24-.73-37.2699-12.83-42.8899-30.64-1.06-3.36-1.53-6.69-1.53-9.95,0-.47.01-.94.03-1.41s.0501-.93.09-1.4q-.01-.01,0-.02c.03-.46.0799-.91.14-1.37v-.03c.05-.42.11-.84.1799-1.25,0-.07.01-.14.0301-.2.06-.38.1201-.76.1999-1.14.0401-.21.0801-.41.1301-.62.01-.06.0201-.13.0401-.19.0599-.31.1299-.62.2099-.93.17-.75.3799-1.5.6-2.23.07-.24.14-.47.22-.71.4701-1.49,1.02-2.95,1.64-4.38.0901-.23.1899-.45.3-.68,2.31-5.17,5.45-9.95,8.7701-14.14.2899-.37.5799-.73.8698-1.08.5401-.66,1.0801-1.3,1.6302-1.93l.02-.02c.3198-.38.6599-.76.98-1.13.02-.03.0499-.05.0799-.08.87-.97,1.73-1.89,2.59-2.78,5.8-5.99,10.9199-9.83,11.89-10.54,6.782-4.9677,17.5957-12.8917,29.5242-12.8917,1.8784,0,3.7835.1963,5.7058.6317,16.336,3.6968,19.8545,21.45,35.2011,21.45.0131,0,.0257,0,.0389,0,10.38-.02,17.4901-8.14,18.38-9.19,9.5801-11.29,4.88-26.69,4.5901-27.58-3.25-10.06-9.26-9.23-13.7801-19.91-3.84-9.07-4.77-22.13,1.5301-30.64,4.5399-6.13,9.5399-5.46,18.3799-10.72,6.82-4.06,15.58-11.45,22.9799-26.05,2.7101-8.46,5-20.64,0-32.17-5.6098-12.93-15.6999-14.17-33.6999-32.17-12.9099-12.9-20.51-20.49-22.98-32.17-4.75-22.48,13.15-43.01,18.38-49.02,4.5588-5.2275,24.2751-27.837,54.1174-27.837,1.841,0,3.7157.0858,5.6326.267,26.4,2.49,41.9501,21.4,44.42,24.51,14.7701,18.55,15.2901,41.18,15.32,44.42.14,14.5-4.4401,20.03.01,29.11,4.6,9.39,15.58,15.86,26.0299,16.85.881.0837,1.7139.1243,2.5096.1243,9.9435,0,14.21-6.3312,37.3205-13.9143,10.916-3.5799,18.058-5.8688,23.8647-5.8688,2.4331,0,4.6315.4018,6.7753,1.2788,9.85,4.02,8.63,12.24,21.4501,19.91,2.8907,1.7379,10.7701,6.4507,20.2802,6.4507,1.3791,0,2.7923-.0991,4.2298-.3207,9.7099-1.5,10.72-7.09,22.98-10.72,2.3959-.7086,7.7912-2.3083,14.1384-2.3083,2.342,0,4.813.2177,7.3115.7783,15.48,3.47,15.3999,16.41,30.63,22.97,4.8516,2.0918,10.1656,3.0687,15.5092,3.0687,8.0167,0,16.1003-2.1984,22.7906-6.1287,17.0601-10.01,20.7701-28.74,21.4501-32.17,3.7899-19.14-6.7301-25.21-7.66-45.96-.84-18.87,6.3-48.98,29.11-59.74,5.6888-2.6844,11.5133-3.7693,17.2117-3.7694M578.4441,0h-.0004c-7.4587.0001-14.5417,1.5579-21.0522,4.6301-12.2646,5.7856-21.9229,16.7131-27.9293,31.6008-4.5581,11.298-6.8657,24.6669-6.331,36.6788.4691,10.4679,3.1289,17.8736,5.266,23.8242,2.5287,7.0406,4.1992,11.6918,2.5566,19.9875-1.3471,6.795-5.3699,19.2283-17.1761,26.1557-5.3706,3.1549-11.8456,4.8911-18.2361,4.8911-4.3359,0-8.3551-.785-11.9459-2.3333-5.1809-2.2315-7.8242-5.3575-11.1708-9.3153-4.394-5.1964-9.8624-11.6635-21.054-14.1722-2.9453-.6609-6.0682-.9962-9.2801-.9962-7.636,0-13.9701,1.8732-16.6748,2.6731-7.3711,2.1824-11.659,5.0991-14.7899,7.2288-2.7183,1.8489-4.0828,2.777-7.0277,3.232-.9251.1426-1.8867.2151-2.8558.2151-7.0541,0-13.2938-3.7516-15.6427-5.1639-4.9058-2.935-6.924-5.742-9.261-8.9922-2.7466-3.8199-6.1648-8.5739-13.4259-11.5374-3.1987-1.3085-6.5295-1.946-10.176-1.946-7.4074,0-15.4869,2.6497-26.6693,6.3169-11.3676,3.73-18.4791,7.2053-23.6718,9.7428-5.6613,2.7667-7.7755,3.7234-10.8442,3.7234-.5143,0-1.072-.0282-1.6576-.0839-7.8973-.7482-15.8024-5.7317-18.7995-11.8498-1.4077-2.8722-1.2089-4.7341-.3683-10.1872.5958-3.8642,1.3371-8.6736,1.2755-15.0503-.0618-6.6991-1.4905-30.1104-17.2788-49.9392-4.6448-5.8484-22.0431-25.1692-50.6157-27.8641-2.151-.2035-4.3312-.3068-6.4777-.3068-15.4809,0-38.6129,5.3646-60.9002,30.9214-2.753,3.1635-9.1331,10.4951-14.1509,20.1283-6.6088,12.6874-8.7122,25.0242-6.2519,36.6678,3.0221,14.2911,11.9269,23.1891,25.406,36.6579,8.0159,8.0158,14.4973,12.8604,19.7052,16.7531,6.9788,5.2164,9.8993,7.5372,12.1178,12.6505,2.9709,6.8507,2.9366,15.3133-.1004,25.1612-5.1234,9.8839-11.5893,17.1966-19.2268,21.7433-2.8126,1.6737-5.1799,2.6306-7.4693,3.5561-4.3308,1.7507-9.2394,3.735-13.5392,9.5409-8.4869,11.4638-7.4136,28.1014-2.5854,39.5053,2.9259,6.9132,6.5756,10.4294,9.2404,12.9968,2.194,2.1138,3.2952,3.1748,4.2632,6.1711.0349.1109,3.501,11.4606-2.8882,18.9902-.211.2489-5.159,6.0008-11.535,6.013-4.1077,0-6.6384-2.3866-11.5262-7.3514-5.0584-5.1382-11.3538-11.533-21.71-13.8765-2.5008-.5663-5.0892-.8537-7.6922-.8537-14.8681,0-27.3676,9.1558-34.8357,14.6261-1.0726.7849-6.7232,5.0169-13.0442,11.545-.9179.9498-1.777,1.8696-2.6248,2.8096-.1637.1675-.3196.3396-.4685.5173l-.2285.2618c-.2068.2361-.4151.4745-.6184.7131-.0147.0165-.0291.0329-.0433.0491-.6034.6909-1.193,1.3887-1.8019,2.1324-.3344.4042-.669.8197-1.0035,1.2465-4.14,5.2246-7.4661,10.5922-9.8573,15.9179-.12.2538-.2766.5958-.4377.9933-.7212,1.6743-1.3578,3.3782-1.8932,5.0674-.103.3124-.1957.6146-.2874.9279-.3002.9978-.53,1.8516-.719,2.671-.0886.3517-.1698.7067-.2423,1.0598-.0314.1348-.0574.26-.0794.3742-.0487.2195-.0927.4359-.1357.6584-.0906.4408-.1595.848-.2166,1.2026-.0502.2509-.0903.504-.1204.7588-.0686.4332-.1301.8775-.1835,1.3255-.0074.062-.0141.1241-.0202.1863-.0766.6164-.1291,1.1597-.1638,1.692-.045.5547-.0781,1.0872-.101,1.623-.0253.5948-.0381,1.1979-.0381,1.7927,0,4.3039.6551,8.5626,1.947,12.6578,7.2211,22.8839,31.7133,36.1036,51.0921,36.9241.6813.0289,1.3702.0436,2.0472.0436,10.7049,0,18.6692-3.511,25.0688-6.3321,3.404-1.5006,6.6192-2.918,8.5824-2.9178.4212,0,.9102.0543,1.6294.4483,4.5217,2.4783,7.5703,12.0571,6.2702,19.7084-.5619,3.307-1.7562,4.9238-3.7349,7.6023-2.4363,3.2979-5.7729,7.8144-6.9986,15.4487-1.2609,7.8354.4282,13.1311,8.2011,32.377,3.587,8.8856,6.3136,15.3413,8.3044,20.055,4.6619,11.0382,4.9327,11.8524,4.8277,14.5207-.1815,4.6098-1.4092,6.4857-3.6378,9.891-2.5499,3.8962-6.042,9.2322-7.0388,18.6119-2.8748,27.0824,18.6717,47.9606,19.5903,48.8361,14.2292,13.4897,31.6177,16.7719,44.3142,19.1684l.0556.0104c7.5388,1.4172,12.9862,1.6858,17.3633,1.9014,6.2009.3057,8.1288.493,11.277,2.721,5.5858,3.9593,9.5373,10.9196,11.7396,20.6838.9361,4.132.7863,6.1716.3861,11.6222-.1997,2.7194-.4481,6.1038-.6014,10.6011l-.0018.0535c-.4108,12.1523-.7352,21.7511.0275,29.5228.6508,6.6312,2.4107,16.0369,10.1468,21.1352,3.2313,2.1314,7.0491,3.2132,11.3441,3.2132,10.3659,0,21.4245-6.3731,28.7422-10.5903,12.3857-7.1331,18.6851-14.4389,23.7468-20.3091,4.8371-5.6098,7.1878-8.1427,12.2216-9.3948.9338-.2307,1.3444-.2622,1.6211-.2622,1.2277,0,3.928.7691,8.0154,1.9332,4.7167,1.3433,11.8443,3.3733,22.8688,6.0085,21.5408,5.1488,33.4065,7.985,43.8301,7.985,1.0894,0,2.1754-.0318,3.2276-.0945,22.0956-1.3136,39.9732-11.18,46.7034-14.8943,8.7104-4.8046,14.3997-9.252,18.9711-12.8256,5.81-4.5418,7.8065-5.9784,11.1327-5.9783.1479,0,.2982.0028.4502.0082.1932.0071.3875.0107.5861.0107,5.1838,0,11.4826-2.4593,20.9843-8.3136,9.6046,8.1965,18.5181,17.6271,23.141,29.9418,1.9753,5.2598,3.4674,11.4603,5.0471,18.0249,4.2561,17.6868,9.0801,37.7336,26.1333,46.774,7.9565,4.2152,18.7459,6.5361,30.3828,6.5361,10.5731,0,20.7997-1.8925,28.7962-5.329l.1027-.0442c14.7528-6.3448,27.4938-11.8243,36.0233-28.5698,4.8273-9.4753,6.5828-22.5581,4.8162-35.8931-1.8291-13.8068-6.9886-25.6334-14.5282-33.3017-6.1984-6.3038-13.9959-10.0005-20.8754-13.2621-1.8051-.8558-3.51-1.664-5.1781-2.5082-7.8767-3.9852-16.4379-6.4426-24.7172-8.819-6.8794-1.9746-13.3773-3.8396-18.9418-6.4108-.8272-.3818-1.7386-1.1871-2.6184-2.1799,11.7236-3.604,18.8489-10.1312,21.6791-19.7759,1.6266-5.5656,1.4395-11.1496,1.2891-15.6363-.0808-2.4149-.2029-6.0603.2656-7.0954.0131-.0245.0259-.0487.0385-.0725,1.2944-2.3192,2.188-2.843,6.4868-5.111,4.7404-2.5009,11.9039-6.2802,22.1913-15.3916,7.471-6.6082,14.408-14.0552,18.9983-18.9831,4.5518-4.8796,6.8032-7.5402,8.6122-9.678,1.2725-1.5037,2.1918-2.59,3.5628-4.0218,8.48-8.8639,16.2543-12.1568,23.1135-15.0621,7.7968-3.3023,15.859-6.7172,20.0569-16.8187,5.6652-13.6108.359-29.7426-7.8116-38.6409-5.8697-6.397-12.4061-8.2242-17.1789-9.5583-4.3749-1.2229-6.3969-1.8727-8.4818-4.4607-3.5058-4.3546-4.8236-11.6074-3.0635-16.8686,1.1415-3.4222,3.0729-4.8182,7.3328-7.6502,4.6118-3.066,10.9279-7.2651,14.784-16.1227,2.0816-4.8021,2.556-8.7087-.2687-33.7128-3.9244-34.7849-6.1638-39.0132-9.4925-43.0312-5.5359-6.6761-11.4104-8.6584-16.1307-10.2513-4.2426-1.4317-7.5934-2.5624-12.1403-7.1751-3.1818-3.2287-4.0715-5.2568-5.1977-7.8245-1.503-3.4265-3.3735-7.6909-9.1699-12.6223-.4803-.4096-.9037-.7543-1.3195-1.0742-.3743-.2956-.7598-.5895-1.1326-.8595-.4179-.3039-.8387-.5966-1.2411-.8627-.4268-.2913-.8314-.5461-1.1432-.7397-.0176-.011-.0352-.022-.0525-.0327-.0344-.0216-.0689-.043-.1036-.0641-.3628-.2207-.697-.4133-1.0156-.585-.8693-.4978-1.7888-.9646-2.8037-1.4234-.672-.309-1.3751-.5996-2.1482-.8876-.3457-.1302-.691-.2509-1.0365-.3702-.3809-.1355-.7746-.2695-1.168-.3915-1.1089-.3503-2.3292-.6889-3.7916-1.0504-.2734-.0751-.5513-.1454-.8251-.2135l-.1281-.0319c-.5111-.1256-.9859-.2406-1.4604-.3738-.0829-.0232-.166-.0453-.2496-.0662-.1292-.0322-.2635-.071-.3928-.1087-.1118-.0325-.2242-.063-.3372-.0913-.0097-.0024-.0195-.0049-.0295-.0073l-.0632-.0184-.3677-.1067c-.0533-.0152-.1066-.03-.1602-.0442l-.5516-.1742c-1.0854-.3382-2.0493-.7208-2.98-1.1798-.058-.0285-.1162-.0564-.1747-.0838l-.0903-.0418c-.0533-.028-.1069-.0555-.1608-.0824l-.0392-.0197c-.1351-.077-.2722-.1505-.4112-.2204-.0842-.049-.1691-.0965-.2549-.1427-.0448-.0243-.0919-.0512-.14-.0788-.1-.0617-.2-.1221-.3-.1819-.0325-.0205-.0651-.0408-.0978-.0608-.1957-.12-.3986-.2447-.5942-.3771-.0525-.0356-.1052-.0705-.1584-.1049-.4244-.2746-.9011-.6177-1.4578-1.0489-.2868-.2212-.5068-.3989-.7056-.5692-.0268-.023-.0537-.0458-.0807-.0685-1.6933-1.4167-4.5275-3.7879-6.6147-6.8813-.0604-.0894-.1223-.1777-.1857-.2649l-.0473-.0719-.0881-.1338c-1.1893-1.8742-1.9088-3.6821-2.199-5.5251-.582-3.6894.7786-6.3409,3.2333-10.7099,2.8206-5.02,6.6835-11.8951,4.217-20.9064-1.0271-3.7603-2.8454-6.7596-5.7213-9.4342-1.2596-1.1594-2.5222-2.0882-3.7435-2.9865-2.6396-1.9417-5.3693-3.9494-8.6639-8.7129-2.4828-3.5811-7.6371-11.0151-6.3991-15.4103.3094-1.0996,1.294-1.8253,6.1977-4.5708,3.2239-1.805,7.2362-4.0514,11.9031-7.4654,9.0132-6.5891,12.3021-12.0904,15.2038-16.9441,2.4857-4.1578,4.449-7.4418,10.8669-12.1783,6.0273-4.4525,11.0146-6.8512,15.8376-9.1709,6.9222-3.3295,14.0802-6.7721,22.1084-15.2375,5.2256-5.5184,16.0425-16.9417,17.7454-34.0308,1.2603-12.6044-2.2455-31.8901-26.1072-52.1701-4.1207-3.5279-26.0825-21.2317-51.4166-21.2317h0Z"/>
      </g>
      <path class="cls-2" d="M669.9922,472.3395c-5.66,13.62-22.14,9.02-41.36,29.11-3.61,3.77-4.49,5.4601-12.26,13.7899-4.49,4.8201-11.28,12.1001-18.38,18.3801-18.98,16.8099-25.3199,13.34-30.64,22.98-.0699.1399-.1499.27-.21.4099-2.8201,5.8401.3999,15.6001-2.0901,24.1201-2.1099,7.1899-8.2899,13.5-25.6599,15.7999-2.02.26,3.79,13.3199,11.46,16.86,13.1801,6.0901,29.95,8.3,43.3701,15.0901,8.24,4.1699,17.23,7.47,23.7,14.0499,12.8999,13.12,16.46,42.41,8.11,58.8-7.0699,13.88-17.36,18.2799-31.66,24.4301-14.3101,6.1499-37.6499,6.3999-51.4099-.8901-18.9202-10.03-19.4401-39.96-26.9701-60.01-5.98-15.9299-17.7699-27.3499-30.9-37.8999-9.1399,6.0699-17.23,10.6-21.9099,10.4299-11.8901-.4299-15.3601,8.95-35.23,19.91-7.3201,4.0399-23.2101,12.62-42.8901,13.7899-9.9099.5901-21.4199-2.1599-44.4299-7.6599-28.95-6.9199-29.8101-9.38-36.77-7.66-15.72,3.91-15.7,17.63-38.29,30.64-8.1899,4.72-22.5599,12.99-30.6399,7.66-7.42-4.89-6.92-19.52-6.1301-42.89.4601-13.5,1.8101-16.52,0-24.51-.8999-3.99-4.0898-18.09-15.3199-26.05-8.9301-6.3199-14.5099-2.7999-32.17-6.1199-11.9199-2.25-27.52-5.1801-39.83-16.8501-.85-.8101-19.25-18.76-16.85-41.37,1.5601-14.6801,10.1699-15.13,10.72-29.1.27-6.86-1.73-8.45-13.78-38.3-7.52-18.62-8.5-22.36-7.6599-27.58,1.75-10.9,8.87-12.08,10.72-22.97,1.74-10.2401-1.99-24.27-10.8201-29.11-11.45-6.27-21.23,8.51-41.27,7.66-17.24-.73-37.2699-12.83-42.8899-30.64-1.0601-3.36-1.53-6.69-1.53-9.95,0-.47.01-.94.03-1.41.02-.47.05-.93.09-1.4q-.01-.01,0-.02c.03-.46.08-.91.14-1.37v-.03c.05-.42.11-.84.1799-1.25,0-.07.01-.14.03-.2.0601-.38.1201-.76.2-1.14.04-.21.0801-.41.1301-.62.01-.06.02-.13.04-.19.0599-.31.1299-.62.21-.93.1699-.75.3799-1.5.6-2.23.0699-.24.14-.47.22-.71.4701-1.49,1.02-2.95,1.64-4.38.0901-.23.1899-.45.3-.68,2.3099-5.17,5.45-9.95,8.77-14.14.2899-.37.58-.73.8699-1.08.54-.66,1.0801-1.3,1.6301-1.93l.02-.02c.3198-.38.6599-.76.98-1.13.02-.03.0499-.05.08-.08,4.8199,13.97,10.61,29.1,25.58,34.28,2.6799.92,9.3.97,22.4299,1.02,41.9102.16,48.3301-3.46,55.53,2.04,7.7101,5.89,8.22,19.66,8.9401,46.98,1.15,43.96-5.48,46.57,0,61.36,9.11,24.62,35,37.78,54.13,47.5,15.8101,8.03,14.25,3.85,40.6799,15.7301,20.67,9.2999,29.8701,15.5599,48.17,18.5099,8.83,1.4301,16.83,2.63,26.6,0,13.3-3.5699,15-10.23,26.3201-12.38,7.3-1.3799,11.21.5,31.9299,7.15,23.55,7.5599,35.39,11.3099,38.72,10.34,18.42-5.3999,12.9301-33.22,35.75-44.1299,13.9001-6.6501,28-2.0901,32.28-11.0801,2.3401-4.91-1.33-7.4,0-15.38,1.8101-10.83,10.5-17.84,18.78-24.51,1.77-1.43,4.8401-3.8,26.55-16.35,15.78-9.11,19.6-11,20.4299-15.43,1.2-6.45-5.77-8.63-10.86-20.31-4.37-10.04-6.7799-25.8,0-37.21,4.9501-8.34,9.6801-5.72,17.41-16.92,2.71-3.94,9.5601-13.85,6.72-23.96-.54-1.93-1.4299-3.89-5.2-8.72-8.77-11.24-15.53-15.55-18.9301-19.4-9.4-10.65-3.92-30.11,0-44.05.78-2.78,8.64-29.89,22.54-50.13,1.4301,1.33,2.5199,2.84,3.17,5.22,3.0299,11.07-9.8201,16.95-7.6602,30.64.54,3.43,1.8901,6.44,3.53,9.01.1401.21.27.42.42.62,2.78,4.12,6.28,7.06,8.2999,8.75.3501.3.7001.58,1.05.85.71.55,1.4,1.05,2.0801,1.49.3099.21.6299.41.9399.6l.01.01c.1699.1.3401.2.51.31.01,0,.03.01.04.02.1399.08.28.16.4099.23.16.1.3201.18.48.26.1501.09.3101.17.4701.25.16.09.3199.16.47.23,1.4601.72,2.87,1.26,4.25,1.69l.5699.18c.1301.04.25.08.3801.11.21.0601.4099.1201.6199.1801.04.0099.0901.02.1301.03.24.07.49.14.73.2.5699.16,1.1399.3,1.71.44.28.07.5701.14.85.22,1.14.28,2.27.58,3.41.94.29.09.58.19.86.29.2899.1.58.2.87.31.51.19,1.03.4,1.55.64.71.32,1.4399.6801,2.1799,1.11.23.12.47.26.7.4.03.02.05.03.0801.05.29.18.59.37.88.5699.3199.21.65.44.98.6801.2899.21.59.4399.88.67.3401.26.6799.54,1.02.83,8.3101,7.0699,4.96,10.95,13.79,19.91,11.73,11.9,19.6899,7.13,27.75,16.85,1.6899,2.04,3.74,5.15,7.48,38.3,2.7,23.9,2.1,26.48.96,29.11-5.6899,13.07-18.14,11.74-22.4,24.51-2.7799,8.31-.7799,18.7,4.59,25.37,7.79,9.67,17.5801,5.24,26.04,14.46,6.4,6.97,10.0801,19.61,6.13,29.1Z"/>
      <g>
        <path class="cls-9" d="M104.7162,158.3011c-11.8902-12.4513-30.1963-15.0721-44.4255-10.7234-22.2234,6.7919-29.6239,29.0933-32.17,36.766-2.5259,7.6117-7.5132,22.6411,0,38.2979,6.1591,12.8347,19.4446,23.436,35.2338,24.5106,15.449,1.0514,26.4584-7.4832,30.6383-10.7234,15.387-11.928,18.945-28.7463,19.9149-33.7021,1.463-7.4755,5.6524-28.8811-9.1915-44.4255Z"/>
        <path class="cls-3" d="M65.9982,251.7426c-.9658,0-1.9482-.0327-2.9492-.1006-16.3301-1.1118-31.6328-11.731-38.9854-27.0537-8.2998-17.2949-2.8389-33.752-.2144-41.6611,2.6416-7.96,10.6782-32.1812,35.126-39.6533,14.4941-4.4277,35.2627-2.4609,48.9951,11.9194,16.4546,17.231,11.8623,40.689,10.353,48.3979-3.7495,19.1641-13.8013,30.3691-21.5737,36.394-4.2612,3.3032-15.1685,11.7568-30.7515,11.7573ZM73.6052,150.1474c-4.2666,0-8.3701.6245-11.999,1.7339-20.001,6.1123-26.6943,26.2852-29.2144,33.8794-2.4258,7.311-6.9409,20.9165-.2139,34.9341,5.9741,12.4497,18.3315,21.0728,31.4824,21.9678,13.7314.9287,23.7905-6.8569,27.5747-9.79,6.5552-5.0811,15.0425-14.5854,18.2563-31.0103,1.4238-7.2734,5.2061-26.5933-8.0298-40.4531h0c-7.6909-8.0537-18.1904-11.2617-27.8564-11.2617Z"/>
      </g>
      <g>
        <path class="cls-9" d="M375.8651,40.3437c-10.7775-6.8121-25.4355-7.0006-36.766,0-13.1099,8.1-20.5112,25.0494-15.3191,39.8298,5.8903,16.7679,24.5095,20.8405,27.5745,21.4468,1.1057.2188,23.6476,4.324,35.234-10.7234,11.3863-14.7875,5.9758-39.998-10.7234-50.5532Z"/>
        <path class="cls-3" d="M359.4733,106.788c-5.0337,0-8.6045-.6763-8.9922-.7529-5.6436-1.1167-24.5552-6.1743-30.9468-24.3701-5.6807-16.1714,1.7139-35.5815,17.1997-45.1494,12.5508-7.7559,29.2422-7.7456,41.5352.0244h0c9.4541,5.9756,16.0806,16.1958,18.1807,28.0405,1.9126,10.7886-.3818,21.3813-6.2959,29.062-8.5176,11.062-21.8491,13.1455-30.6807,13.1455ZM357.5769,39.6752c-5.6147,0-11.2603,1.499-16.1123,4.4966-11.9736,7.3979-17.751,22.2344-13.439,34.5107,4.8115,13.6963,19.7412,17.6406,24.2026,18.5234.2075.0415,20.7886,3.9414,30.7949-9.0547,4.373-5.6792,6.0366-13.6978,4.5649-22-1.6348-9.2197-6.916-17.4458-14.1274-22.0039-4.7173-2.9814-10.2852-4.4722-15.8838-4.4722Z"/>
      </g>
      <g>
        <path class="cls-9" d="M659.324,169.6408c-23.7283.8467-33.7718,8.3074-36.766,10.7234-14.0809,11.3622-22.7462,32.5876-16.851,50.5532,3.4863,10.6244,11.0166,16.9146,18.383,23.0677,9.886,8.2579,19.2925,12.0383,35.234,18.2939,24.3641,9.5607,27.9834,7.1702,33.7994,13.7872,10.0531,11.4376,3.052,22.9169,13.6899,33.7021,9.7547,9.8898,24.5553,9.2747,26.0426,9.1914,22.8468-1.2783,39.1769-26.8898,44.4255-45.9574,9.357-33.9926-11.9672-63.6709-16.8511-70.4681-32.5764-45.3389-90.5813-43.2692-101.1064-42.8936Z"/>
        <path class="cls-3" d="M731.2702,333.5004c-5.2656,0-18.2681-1.0493-27.6606-10.5718-6.4561-6.5454-7.4683-13.396-8.3613-19.4404-.7803-5.2812-1.4541-9.8423-5.5049-14.4512-2.4688-2.8086-3.9448-3.3135-10.5112-5.2373-4.7744-1.3984-11.314-3.314-21.5518-7.3315-15.5532-6.1035-25.8281-10.1357-36.4751-19.0293-7.4468-6.2207-15.8857-13.27-19.7739-25.1187-6.9307-21.1206,3.9604-43.8862,18.3013-55.458,8.7461-7.0576,22.3828-11.1094,39.4307-11.7183h0c26.4888-.9502,75.3525,3.6104,104.9214,44.7646,22.6987,31.5903,22.0645,57.8345,17.5356,74.2881-5.2305,19.001-22.4658,47.7988-48.5127,49.2563-.4028.0225-1.0288.0474-1.8374.0474ZM659.4846,174.1381c-14.8735.5308-26.9839,3.9858-34.1006,9.728-13.6938,11.0498-20.3149,30.6743-15.4009,45.6479,3.084,9.3999,9.8394,15.043,16.9907,21.0166,9.1216,7.6196,17.4697,11.0747,33.9941,17.5596,9.8647,3.8711,16.1821,5.7217,20.7944,7.0728,6.7461,1.9761,10.4624,3.0645,14.7407,7.9326,5.8057,6.605,6.7847,13.231,7.6484,19.0771.8242,5.5786,1.4756,9.9849,5.8652,14.4355,8.2905,8.4043,21.1523,7.939,22.5869,7.8589,21.1592-1.1841,35.9722-26.7944,40.3389-42.6592,4.0088-14.5615,4.4575-37.9443-16.1665-66.6475-27.1221-37.7476-72.6016-41.9019-97.2915-41.0225h0Z"/>
      </g>
      <g>
        <path class="cls-9" d="M758.1262,395.748c-13.0703-10.6445-34.3645-11.6887-49.8356,0-15.3309,11.5829-20.2461,32.1196-13.7872,47.4893,8.6927,20.6853,37.858,31.7019,63.6229,18.3831,19.791-20.7811,17.4268-51.6798,0-65.8723Z"/>
        <path class="cls-3" d="M734.5158,471.914c-6.1216.0005-12.2046-1.0342-17.9673-3.1245-12.1382-4.4023-21.6851-13.0806-26.1934-23.8091-7.5142-17.8799-.9697-40.5889,15.2227-52.8228,16.3457-12.3481,40.1567-12.3047,55.3901.1011,9.0527,7.373,14.7124,18.9854,15.5264,31.8594.9326,14.7437-4.5747,29.5439-15.1094,40.606l-.521.5469-.6714.3472c-8.0806,4.1772-16.9175,6.2959-25.6768,6.2959ZM733.6135,391.8681c-7.9429,0-16.02,2.4912-22.6104,7.4702-13.0098,9.8296-18.3198,27.9526-12.3511,42.1558,3.5386,8.4209,11.1802,15.2856,20.9653,18.835,11.4282,4.145,24.4209,3.2778,35.7671-2.3638,8.4736-9.187,12.8872-21.2729,12.1279-33.2788-.6562-10.3794-5.1133-19.6553-12.228-25.4492-6.0337-4.9141-13.7861-7.3691-21.6709-7.3691Z"/>
      </g>
      <g>
        <path class="cls-9" d="M656.0793,561.3182c-9.2201-9.5002-27.3186-9.5078-36.6397-.1234-9.5536,9.6184-7.801,26.3948-.0002,36.7657,4.0417,5.3734,9.8903,9.18,16.3457,10.9809,4.673,1.3036,15.4643,3.146,19.175-1.1165,1.0507-1.2069,1.6298-2.7426,2.1809-4.245,2.2876-6.2355,4.4697-12.5797,5.2147-19.1796s-.0468-13.5509-3.3926-19.2884c-.8158-1.399-1.787-2.6635-2.8839-3.7937Z"/>
        <path class="cls-3" d="M646.3142,614.9696c-5.2144,0-10.1831-1.2598-11.7383-1.6938-7.5469-2.1055-14.1997-6.584-18.7329-12.6104-8.8867-11.814-11.165-30.9941.4038-42.6421,5.3188-5.3545,13.2158-8.3706,21.6782-8.3481,8.3887.0488,16.1826,3.1499,21.3838,8.5093l.0005.0005c1.3696,1.4116,2.561,2.9795,3.541,4.6597,4.4785,7.6807,4.6348,16.2358,3.9771,22.0605-.8032,7.1147-3.1387,13.8926-5.4619,20.2246-.5854,1.5967-1.3872,3.7847-3.0112,5.6499-2.8252,3.2446-7.5244,4.1899-12.04,4.1899ZM637.7214,558.6747c-5.9995,0-11.4917,2.0698-15.0889,5.6914-8.0254,8.0796-6.0396,22.3247.4028,30.8892,3.3501,4.4541,8.3076,7.7749,13.9585,9.3516,6.7075,1.8706,13.3418,1.6777,14.5723.2632.5337-.6123.9673-1.7954,1.3496-2.8389,2.2236-6.061,4.2764-12.0078,4.9683-18.1357.5049-4.4717.4277-10.9673-2.8081-16.5171-.6133-1.0513-1.3623-2.0361-2.2261-2.9263h0c-3.5293-3.6367-8.9883-5.7422-14.9771-5.7769-.0503-.0005-.1011-.0005-.1514-.0005Z"/>
      </g>
      <g>
        <path class="cls-9" d="M437.1417,714.3863c-15.8927-9.5742-37.8095,4.7878-44.5296,9.1915-8.1498,5.3406-31.8249,20.8549-29.0023,44.4255,1.7758,14.8291,13.4227,27.6951,27.5745,32.1702,23.824,7.5337,43.1874-12.3683,45.9574-15.3192,12.944-13.7886,13.745-30.4683,13.7872-35.234.0481-5.434.2372-26.7853-13.7872-35.2341Z"/>
        <path class="cls-3" d="M401.9841,806.3583c-3.8892,0-7.958-.5664-12.1567-1.894-16.1455-5.1055-28.7642-19.8789-30.686-35.9258-3.1538-26.3418,22.5557-43.1885,31.0044-48.7241,7.6675-5.0254,31.0015-20.3164,49.3184-9.2827h0c7.4019,4.459,16.1807,14.8677,15.9648,39.1289-.0596,6.7646-1.6411,24.0366-15.0063,38.2739-3.291,3.5054-18.481,18.4238-38.4385,18.4238ZM424.9157,715.6635c-7.9854,0-17.9692,3.9014-29.8369,11.6782-8.0664,5.2856-29.4917,19.3247-27.001,40.1265,1.5151,12.6548,11.5752,24.3394,24.4634,28.415,20.606,6.5156,38.0347-10.6099,41.3198-14.1089,11.1924-11.9229,12.5176-26.4858,12.5679-32.1934.1782-20.0151-6.2148-28.0903-11.6094-31.3403-2.853-1.7188-6.1592-2.5771-9.9038-2.5771Z"/>
      </g>
      <g>
        <path class="cls-9" d="M176.7162,666.8969c-10.5244-3.8884-24.2072-.8378-32.1702,9.1915-8.5745,10.7995-6.6283,24.7928-1.5319,33.7021,6.5213,11.4003,20.9715,19.3202,33.7021,15.3192,9.889-3.1079,14.4163-12.0499,15.3191-13.9493,6.9018-14.5203,1.8344-37.9259-15.3191-44.2635Z"/>
        <path class="cls-3" d="M169.8195,730.6571c-12.7124,0-24.9048-8.481-30.7119-18.6323-6.0112-10.5093-7.7505-26.562,1.9141-38.7349,8.6714-10.9214,24.3374-15.3857,37.2539-10.6143,8.1011,2.9932,14.5532,9.5303,18.167,18.4077,4.2319,10.3955,4.1006,22.6606-.3428,32.0088-1.7881,3.7622-7.125,12.8818-18.0347,16.3105-2.7324.8589-5.5024,1.2544-8.2456,1.2544ZM167.3186,669.7802c-6.7573,0-14.1826,2.7261-19.248,9.1064-7.0469,8.875-5.6553,20.7939-1.1504,28.6694,5.2915,9.2505,17.376,16.7407,28.4468,13.2607,7.7407-2.4326,11.6045-9.4849,12.604-11.5879,3.3418-7.0303,3.395-16.7461.1357-24.7524-1.874-4.604-5.6421-10.6587-12.9502-13.3584-2.354-.8696-5.0391-1.3379-7.8379-1.3379Z"/>
      </g>
      <g>
        <path class="cls-9" d="M83.2084,536.6945c-2.0663-6.6036-3.9239-13.2726-5.5686-19.9936-1.5611-6.3793-3.5758-13.6501-9.5077-16.4687-4.4954-2.1361-9.8074-.9319-14.5652.5292-21.4757,6.5949-43.5917,20.376-48.2159,42.3605-2.8631,13.6121,1.7996,28.0532,10.1259,39.1959s19.9969,19.3525,32.1898,26.0469c18.6364,10.2321,52.9956,18.9016,53.884-13.4833.2976-10.8485-4.4251-21.1078-8.5601-31.1417-3.6538-8.8663-6.9183-17.893-9.7821-27.0451Z"/>
        <path class="cls-3" d="M79.3137,622.1376c-11.4365,0-24.2632-4.5854-33.8125-9.8281-15.3066-8.4038-25.9922-17.0781-33.6294-27.2979-9.8833-13.2271-13.8657-28.833-10.9248-42.8159,6.085-28.9302,37.9019-41.6221,51.2988-45.7358,5.5356-1.7007,11.9824-3.0654,17.8174-.292,8.1299,3.8623,10.4272,13.251,11.9478,19.4634,1.6128,6.5913,3.4609,13.2266,5.4917,19.7197h0c2.8145,8.9941,6.0605,17.9683,9.6484,26.6743l1.0659,2.5684c3.9971,9.6011,8.1304,19.5288,7.832,30.4111-.3872,14.1045-6.7134,20.646-11.9521,23.6499-4.2896,2.46-9.3813,3.4829-14.7832,3.4829ZM62.5681,503.5722c-2.3828,0-5.0552.6846-7.6802,1.4912-11.8721,3.6455-40.0342,14.7417-45.1333,38.9849-2.3735,11.2847,1.1133,24.584,9.3271,35.5757,6.8398,9.1538,16.6113,17.0332,30.7505,24.7964,12.5483,6.8887,30.3501,11.8379,39.7881,6.4272,4.7788-2.7407,7.21-8.0034,7.4316-16.0898.2461-8.9556-3.5107-17.9785-7.1436-26.7051-.3618-.8677-.7222-1.7339-1.0786-2.5981-3.6875-8.9478-7.0234-18.1719-9.916-27.416h-.0005c-2.0874-6.6738-3.9868-13.4927-5.6445-20.2681-1.4761-6.0317-3.1274-11.6016-7.0679-13.4736-1.084-.5146-2.314-.7246-3.6328-.7246Z"/>
      </g>
      <g>
        <path class="cls-4" d="M492.7422,360.5201c-.7822,9.5931.4942,9.7783-.0822,19.1655-.5559,9.0578-1.2661,20.6683-7.1537,31.7127-7.4316,13.9264-14.5234,10.8488-20.4624,24.5487-3.6746,8.4712-1.9145,11.8472-7.1639,23.5297-2.9952,6.6596-4.9612,11.0341-9.2019,15.3469-10.7973,10.9517-26.947,11.9707-31.7127,12.2692-9.1916.5867-12.1148-1.4307-19.4434,1.0293-7.4727,2.5012-8.8725,6.0729-14.3176,9.2019-18.3112,10.5195-46.1022-4.92-50.1268-7.1639-14.7292-8.1726-11.7649-12.7325-22.5107-16.3659-18.2906-6.1758-27.7087,6.7728-43.9819,0-14.1631-5.8876-19.9272-21.0389-20.4624-22.5004-3.7878-10.4062.9161-12.7016-2.0483-26.5971-2.0071-9.4386-4.3539-9.2019-13.2985-30.6937-4.4054-10.5811-6.6184-15.985-7.1639-21.4814-1.194-12.0325,2.4909-21.8417,4.0966-25.578,4.4672-10.4474,8.0594-9.3872,12.2693-19.4331,4.4363-10.5811,1.4822-14.1837,5.1156-25.578.0515-.1647.1132-.3397.175-.5043,2.8718-8.7388,7.2051-14.3382,13.1235-21.9962,12.2281-15.81,17.5701-14.441,27.6264-28.6453,8.6564-12.2281,6.1964-15.3572,13.2985-21.43,10.9929-9.3975,25.5472-9.3049,32.7317-9.2637,16.8805.1029,17.6833,6.0317,36.8283,8.1829,21.8211,2.46,25.1457-4.7451,38.8766,0,11.5693,3.9937,11.0752,9.7577,25.6604,21.4608,1.2249.9881,2.5526,2.0174,4.0039,3.0879,18.1465,13.3706,22.6961,9.6137,37.8576,22.5107,8.2755,7.0404,18.7743,15.985,22.5005,30.6937,2.4805,9.7886,1.1939,19.0935,0,27.6161-1.5955,11.4458-4.0246,14.441-5.0334,26.875Z"/>
        <path class="cls-6" d="M492.7422,360.5201c-.7822,9.5931.4942,9.7783-.0822,19.1655-.5559,9.0578-1.2661,20.6683-7.1537,31.7127-7.4316,13.9264-14.5234,10.8488-20.4624,24.5487-3.6746,8.4712-1.9145,11.8472-7.1639,23.5297-2.9952,6.6596-4.9612,11.0341-9.2019,15.3469-10.7973,10.9517-26.947,11.9707-31.7127,12.2692-9.1916.5867-12.1148-1.4307-19.4434,1.0293-7.4727,2.5012-8.8725,6.0729-14.3176,9.2019-18.3112,10.5195-46.1022-4.92-50.1268-7.1639-14.7292-8.1726-11.7649-12.7325-22.5107-16.3659-18.2906-6.1758-27.7087,6.7728-43.9819,0-14.1631-5.8876-19.9272-21.0389-20.4624-22.5004-3.7878-10.4062.9161-12.7016-2.0483-26.5971-2.0071-9.4386-4.3539-9.2019-13.2985-30.6937-4.4054-10.5811-6.6184-15.985-7.1639-21.4814-1.194-12.0325,2.4909-21.8417,4.0966-25.578,4.4672-10.4474,8.0594-9.3872,12.2693-19.4331,4.4363-10.5811,1.4822-14.1837,5.1156-25.578.0515-.1647.1132-.3397.175-.5043,2.7791,14.5028,2.985,34.2859,2.9953,36.118.175,26.3912-5.8979,32.1038,0,44.8362,4.3025,9.274,8.2652,7.8329,34.6976,31.6201,17.3231,15.5938,17.8995,18.2597,25.2281,20.8741,14.4514,5.1568,18.6509-2.9438,39.1957,0,19.6081,2.81,24.559,11.4458,35.4387,7.4418,7.2771-2.6865,5.8773-6.8654,17.8686-15.9747,13.1132-9.9636,17.8892-7.3286,24.1782-15.0586,6.3096-7.7609,2.1513-11.2194,8.3991-26.6382,6.1758-15.2233,11.5693-15.1307,15.5115-28.738,3.057-10.5298-.0824-10.9003,2.635-22.799,4.3642-19.1038,13.3912-22.2123,12.3516-33.1022-.9161-9.4696-8.1829-11.6826-16.8291-23.2107-6.0625-8.0903-10.8282-18.1156-13.5249-27.0602,1.2249.9881,2.5526,2.0174,4.0039,3.0879,18.1465,13.3706,22.6961,9.6137,37.8576,22.5107,8.2755,7.0404,18.7743,15.985,22.5005,30.6937,2.4805,9.7886,1.1939,19.0935,0,27.6161-1.5955,11.4458-4.0246,14.441-5.0334,26.875Z"/>
        <path class="cls-5" d="M304.5063,244.8333c5.9429-8.5541,8.9144-12.8311,14.3033-15.5909,8.2284-4.2139,16.5824-2.8958,23.277-1.8396.8552.1349,5.9137,1.7543,16.0308,4.9932,9.539,3.0538,12.8141,4.1989,13.6656,7.0956.6876,2.3393-.3161,5.4446-2.3652,6.8328-3.1503,2.1342-7.1391-.8963-15.5052-3.4164-7.9113-2.3831-14.5425-4.3806-21.024-2.1024-6.1806,2.1724-10.9417,7.7816-13.9284,11.3004-3.7117,4.3729-4.4399,6.7815-7.884,8.1468-4.3175,1.7115-10.4371.8059-12.0888-2.3955-1.474-2.8571,1.0793-6.6338,5.5188-13.0239Z"/>
        <path class="cls-5" d="M282.1683,269.4507c-2.4653-1.857-10.1715,4.6061-13.1399,7.0956-6.7896,5.6943-10.0586,10.8584-12.6144,14.9796-4.6896,7.5621-4.2283,10.0166-3.6792,11.3004.8124,1.8995,2.7356,3.3838,4.7303,3.6792,4.7397.7019,8.7603-5.4748,9.9864-7.3584,3.5711-5.4861,1.3514-6.9555,4.4676-11.826,3.76-5.8769,8.2579-5.7166,10.2492-11.5632.1739-.5105,1.6754-5.0452,0-6.3072Z"/>
        <path class="cls-5" d="M391.7557,231.6076c3.0942-2.2166,7.2952-1.0042,10.7748,0,4.6527,1.3428,7.379,3.4865,11.3004,6.57,2.9379,2.3101,3.5647,3.3382,3.6792,4.4676.2564,2.5281-2.0562,5.5349-4.4676,5.7816-2.5902.265-3.1382-2.8752-8.4053-6.0444-3.1426-1.8909-6.7345-3.0516-8.6766-3.6792-4.0409-1.3058-6.1368-1.4487-6.57-2.8908-.4297-1.4306,1.0421-3.2569,2.3652-4.2048Z"/>
      </g>
      <path class="cls-8" d="M158.5953,320.281c.4973-16.7031,8.8958-19.439,9.1915-34.5896.342-17.5263-10.783-19.702-9.1915-33.45,1.7379-15.0122,15.4601-16.3683,28.5957-38.1731,5.4799-9.0965,13.8802-23.041,12.2553-38.8085-1.9908-19.317-17.0063-21.7467-35.7446-53.1064-10.4913-17.5578-18.0314-30.1765-15.3192-45.9575,2.6563-15.4557,14.6981-31.3347,32.6808-36.766,13.5658-4.0972,30.8348-2.3461,42.3145,8.1702,10.5674,9.6806,12.2679,23.1599,13.8557,35.7447,2.8677,22.7303-4.709,27.3232.0995,42.8936,3.9777,12.8802,14.6041,27.3586,29.0828,30.6383,6.8619,1.5544,14.6722-.9852,30.0127-6.1277,28.4421-9.5344,30.9407-15.3498,41.9114-14.2979,16.2636,1.5594,14.676,14.7137,33.7021,19.4043,18.8849,4.6557,25.9163-6.9564,49.0213-1.0213,6.9265,1.7792,6.5143,2.8793,20.4255,7.1489,14.1089,4.3304,17.2305,4.0268,28.5957,7.5332,16.7305,5.1617,25.0958,7.7426,29.617,13.9136,7.1534,9.7636,6.6124,25.1782,0,35.7447-11.5752,18.4968-38.1821,16.4278-40.851,16.1803-19.2538-1.7862-20.5081-13.4786-46.8474-22.3079-14.9585-5.0143-14.9016-1.3597-44.2352-7.1489-34.7898-6.8661-35.0804-12.0483-45.6596-9.4663-17.6215,4.3008-15.2337,18.2927-46.0664,38.9231-12.9702,8.6785-17.0586,8.6553-24.4679,16.8865-2.8369,3.1516-6.1088,7.4556-18.4257,33.45-10.8279,22.852-10.4573,24.0799-14.2979,27.5995-11.1523,10.2202-19.7442,4.8754-32.6808,15.7052-11.6266,9.7331-12.3004,20.4238-17.3617,19.8806-5.8163-.6242-10.6071-15.3514-10.2128-28.5957Z"/>
      <path class="cls-8" d="M553.8293,112.9618c-1.9043-.786-5.4579-3.3335-7.1489-38.8085-1.2206-25.6043.3213-30.7651,2.0426-34.7234,1.6327-3.7547,7.2168-16.5961,20.4255-21.4468,13.3628-4.9073,25.845,1.5529,34.6842,6.1277,9.0714,4.6949,18.6665,9.6609,21.486,20.4255,2.0044,7.6529.5999,18.2953-6.1277,24.192-10.2058,8.9456-23.3492-1.2088-33.2494,7.4675-7.6172,6.6757-2.489,15.0216-11.6868,26.0971-4.7977,5.7773-14.2561,13.2155-20.4255,10.6689Z"/>
      <path class="cls-8" d="M41.1484,202.8341c-3.9664-12.8484.8538-28.3676,11.8861-36.766,2.4929-1.8977,11.5338-8.1751,22.8373-6.1277,2.4099.4365,12.0197,2.1771,15.3192,9.5758,3.6004,8.0734-2.3255,18.3712-8.1702,23.6262-6.9451,6.2444-11.9391,3.7169-16.7507,9.6917-6.3975,7.9438-1.7462,17.5981-5.7174,19.4043-4.4152,2.0081-15.7008-7.408-19.4042-19.4043Z"/>
      <path class="cls-8" d="M18.6803,565.3873c-6.1758-13.9977,2.5859-28.0586,5.4662-32.6808,4.7368-7.6018,15.7628-20.2346,24.1509-17.3617,7.5118,2.5728,8.9628,16.2297,9.1915,18.3829.8575,8.0715-1.7438,10.5049-4.4543,24.6375-3.2723,17.0619-.9998,21.434-4.7372,23.85-6.7131,4.3395-23.7373-3.5013-29.6171-16.8279Z"/>
      <path class="cls-8" d="M337.3187,64.8515c-1.5656-4.4927,5.9037-11.2979,12.5524-14.1875,6.2849-2.7316,15.8411-3.7048,17.897,0,2.4094,4.3418-5.1691,15.673-15.2247,18.0644-5.8679,1.3955-13.8561.0504-15.2247-3.8769Z"/>
      <path class="cls-8" d="M621.2336,212.0256c1.1417-12.729,18.3586-19.7449,21.4468-21.0033,6.4701-2.6366,11.7126-3.0248,44.9362,0,26.1566,2.3814,29.4271,3.2156,33.7021,5.4094,14.7943,7.5919,27.6462,24.2947,23.4894,32.8467-3.3008,6.7907-17.043,7.8603-26.5532,6.0764-19.0546-3.5741-22.2354-6.6534-34.8681-6.0764-14.3474.6553-16.3803,8.428-31.5149,9.9803-13.9723,1.4331-31.8678-13.5252-30.6383-27.2331Z"/>
      <path class="cls-8" d="M195.3612,365.7167c14.2319,6.2323,11.4789,35.9299,11.2341,38.3089-1.3848,13.4547-6.2132,16.1611-5.6171,29.617.1492,3.3687.6475,12.523,5.6263,22.4681,6.5545,13.0922,13.6487,13.122,16.7733,22.4681,4.3256,12.9386-3.2889,30.7735-10.655,31.5454-8.162.8553-9.3718-19.9354-32.6808-42.6914-11.5145-11.2413-16.1585-10.9897-18.383-18.471-4.378-14.7236,11.7225-22.0436,12.2554-44.9362.3724-16.0012-7.2617-22.3905-2.0426-30.6383,4.5771-7.2333,15.9298-10.981,23.4894-7.6706Z"/>
      <path class="cls-8" d="M57.6554,328.9961c.8871-11.6852,10.6099-22.1276,20.259-23.013,7.4252-.6814,8.3759,4.8867,23.6495,11.5065,15.0529,6.5241,22.2068,4.6166,26.3931,11.5065,2.9203,4.8063,3.5583,12.5141,0,15.7955-6.0677,5.5955-17.6652-7.8326-35.6691-5.1064-14.1272,2.1392-18.7471,12.1879-26.2568,9.101-6.6317-2.726-8.8933-12.9728-8.3757-19.7902Z"/>
      <path class="cls-7" d="M669.9922,472.3395c-5.66,13.62-22.14,9.02-41.36,29.11-3.61,3.77-4.49,5.4601-12.26,13.7899-4.49,4.8201-11.28,12.1001-18.38,18.3801-18.98,16.8099-25.3199,13.34-30.64,22.98-.0699.1399-.1499.27-.21.4099-2.8201,5.8401.3999,15.6001-2.0901,24.1201-2.1099,7.1899-8.2899,13.5-25.6599,15.7999-2.02.26,3.79,13.3199,11.46,16.86,13.1801,6.0901,29.95,8.3,43.3701,15.0901,8.24,4.1699,17.23,7.47,23.7,14.0499,12.8999,13.12,16.46,42.41,8.11,58.8-7.0699,13.88-17.36,18.2799-31.66,24.4301-14.3101,6.1499-37.6499,6.3999-51.4099-.8901-18.9202-10.03-19.4401-39.96-26.9701-60.01-5.98-15.9299-17.7699-27.3499-30.9-37.8999-9.1399,6.0699-17.23,10.6-21.9099,10.4299-11.8901-.4299-15.3601,8.95-35.23,19.91-7.3201,4.0399-23.2101,12.62-42.8901,13.7899-9.9099.5901-21.4199-2.1599-44.4299-7.6599-28.95-6.9199-29.8101-9.38-36.77-7.66-15.72,3.91-15.7,17.63-38.29,30.64-8.1899,4.72-22.5599,12.99-30.6399,7.66-7.42-4.89-6.92-19.52-6.1301-42.89.4601-13.5,1.8101-16.52,0-24.51-.8999-3.99-4.0898-18.09-15.3199-26.05-8.9301-6.3199-14.5099-2.7999-32.17-6.1199-11.9199-2.25-27.52-5.1801-39.83-16.8501-.85-.8101-19.25-18.76-16.85-41.37,1.5601-14.6801,10.1699-15.13,10.72-29.1.27-6.86-1.73-8.45-13.78-38.3-7.52-18.62-8.5-22.36-7.6599-27.58,1.75-10.9,8.87-12.08,10.72-22.97,1.74-10.2401-1.99-24.27-10.8201-29.11-11.45-6.27-21.23,8.51-41.27,7.66-17.24-.73-37.2699-12.83-42.8899-30.64-1.0601-3.36-1.53-6.69-1.53-9.95,0-.47.01-.94.03-1.41.02-.47.05-.93.09-1.4q-.01-.01,0-.02c.03-.46.08-.91.14-1.37v-.03c.05-.42.11-.84.1799-1.25,0-.07.01-.14.03-.2.0601-.38.1201-.76.2-1.14.04-.21.0801-.41.1301-.62,4,5.59,8.96,11.19,15.24,16.47,7.1,5.96,17.6399,14.58,31.4099,14.4,10.2101-.13,13.0801-4.98,25.99-5.46,6.1801-.22,20.5901-.75,28.8301,8.43,7.8201,8.71,6.1499,21.77,4.9199,31.4-2.1899,17.16-8.5499,18.29-9.1899,31.41-.52,10.63,3.8301,19.34,12.53,36.76,10.87,21.78,16.6,23.96,18.11,36.77,1.6,13.5599-4.3199,15.35-1.53,25.28,4.9801,17.7899,27.9901,26.33,37.54,29.87,13.74,5.1,14.91,1.95,31.87,7.64,16.74,5.61,27.6899,9.2899,35.52,19.17,11.36,14.3199,7.12,30.2999,16.09,32.9299,4.42,1.3,7.3099-2.05,15.3199-5.36,11.22-4.64,20.66-4.3199,34.77-3.83,37.14,1.2899,40.79,16.9399,66.27,13.7899,5.3501-.66,31.4399-3.89,49.8501-21.2599,3.51-3.3201,8.4099-8.7201,16.8499-10.9102,4.3101-1.1199,10.8101-1.73,25.28,3.4001,12.65,4.5,26.76,9.51,39.8301,22.6399,14.3099,14.39,13.5316,33.4978,27.5717,44.4277,8.27,6.4501,22.0882,4.1223,30.6383-2.2977,5.61-4.22,6.6799-14.63,3.5701-22.21-3.9701-9.6801-12.8701-10.23-33.4401-21.4501-18.9401-10.3199-32.7899-18.1099-36.77-32.1699-.23-.8201-4.0299-14.91,3.0699-22.21,5.8801-6.05,13.8401-1.9,20.6801-8.4301,3.5699-3.41,3.29-6.36,6.5-19.28,3.78-15.23,5.67-22.85,9.58-28.97,5.9001-9.25,10.01-6.5399,23.3901-18.0399,18.73-16.1101,15.98-25.9601,29.49-30.9801,10.5499-3.93,17.75.02,24.48-6.9,3.33-3.41,6.1899-9.11,4.6099-13.79-1.5099-4.43-6.1599-5.41-11.6299-8.42-9.8-5.39-19.54-15.82-22.3301-27.58-3.1499-13.29,3.3801-24.92,4.6801-27.12,5.34-9.06,9.77-7.54,17.65-17.49,3.48-4.4,12.52-15.82,11.55-31.22-.2001-3.28-1.49-16.88-11.55-25.37-8.76-7.39-16.52-4.46-22.3301-12.92-3.4299-5-1.5599-7.24-5.8799-14.56-4.1401-7-8.0701-8.69-11.75-13.02-2.1602-2.54-3.8301-5.51-5.0701-8.59.01,0,.03.01.04.02.1399.08.28.16.4099.23.16.1.3201.18.48.26.1501.09.3101.17.4701.25.16.09.3199.16.47.23,1.4601.72,2.87,1.26,4.25,1.69l.5699.18c.1301.04.25.08.3801.11.21.0601.4099.1201.6199.1801.04.0099.0901.02.1301.03.24.07.49.14.73.2.5699.16,1.1399.3,1.71.44.28.07.5701.14.85.22,1.14.28,2.27.58,3.41.94.29.09.58.19.86.29.2899.1.58.2.87.31.51.19,1.03.4,1.55.64.71.32,1.4399.6801,2.1799,1.11.23.12.47.26.7.4.03.02.05.03.0801.05.29.18.59.37.88.5699.3199.21.65.44.98.6801.2899.21.59.4399.88.67.3401.26.6799.54,1.02.83,8.3101,7.0699,4.96,10.95,13.79,19.91,11.73,11.9,19.6899,7.13,27.75,16.85,1.6899,2.04,3.74,5.15,7.48,38.3,2.7,23.9,2.1,26.48.96,29.11-5.6899,13.07-18.14,11.74-22.4,24.51-2.7799,8.31-.7799,18.7,4.59,25.37,7.79,9.67,17.5801,5.24,26.04,14.46,6.4,6.97,10.0801,19.61,6.13,29.1Z"/>
      <path class="cls-8" d="M153.1854,705.8129c-5.6465-6.7705-3.8253-15.2587-3.5745-16.3405,1.9421-8.3752,9.735-15.6241,17.2238-15.3191,3.139.1278,7.2697,1.6256,7.7975,4.0851.531,2.4742-3.0264,3.8597-7.7975,10.2128-2.0305,2.7037-4.696,6.3197-5.9294,11.234-1.1841,4.7175-.6066,8.8712,0,11.4752-1.787-.6512-5.0323-2.125-7.7198-5.3475Z"/>
      <path class="cls-8" d="M376.3344,768.1107c-2.6628-8.4216,2.1534-15.9406,3.0638-17.3617,3.8147-5.9552,7.1136-5.0999,17.3617-12.7659,10.9135-8.1637,11.4581-12.3396,18.8936-14.298,5.2776-1.39,13.2219-1.4509,15.3192,2.4756,1.8652,3.4919-1.427,9.1405-4.5958,12.333-6.8766,6.928-13.6698,2.791-19.22,8.6808-4.5509,4.8292-1.1987,8.8998-6.3119,20.4255-2.6167,5.8984-5.3014,11.9502-10.2128,12.766-5.7703.9585-12.2273-5.707-14.2979-12.2554Z"/>
      <path class="cls-8" d="M623.9939,583.4156c-1.0553-4.2606-2.3514-9.4937,0-13.9432,4.4576-8.4351,19.1493-8.6145,19.9149-6.6383.533,1.3757-6.0968,2.7263-10.7681,9.807-5.624,8.5249-3.6329,18.116-5.5724,18.2782-1.6475.1378-3.3896-6.7574-3.5745-7.5037Z"/>
      <path class="cls-8" d="M706.7173,437.3255c-7.3422-9.1202-.3253-22.9772,0-23.5978,5.2046-9.9281,16.0786-14.5871,25.1963-14.5532,2.8237.0105,13.7584.0511,17.6974,7.6596,1.5232,2.9423,2.5699,8.1168,0,11.4042-4.5854,5.8655-15.3297-1.1271-22.1832,4.6809-6.7384,5.7105-1.9075,17.1782-7.6892,19.9149-3.9612,1.875-9.981-1.7321-13.0212-5.5086Z"/>
      <path class="cls-3" d="M160.9053,88.4512c-3.7587-15.3203,4.6814-27.9029,5.9294-29.7009,7.4753-10.7697,19.0283-15.3738,28.0529-16.2565,4.5497-.445,11.865-1.1605,17.702,3.7447,1.4252,1.1977,6.1039,4.8008,6.1277,10.5532.0023.5504-.0515,5.8254-3.7446,8.5222-4.927,3.5977-10.4976-1.6533-18.7234,0-7.5364,1.5146-12.1787,7.7949-13.9575,10.2012-10.0602,13.6094-3.0668,30.5578-7.4894,32-3.5322,1.1519-11.3232-8.5728-13.8971-19.0638Z"/>
      <path class="cls-3" d="M48.5045,176.9618c2.1825-3.9104,6.2144-11.1345,14.6383-13.9574,5.6155-1.8818,13.9314-2.0587,18.7234,2.7234,1.3949,1.392,3.6322,4.3428,2.7234,6.1276-1.1615,2.2812-6.3625.4973-14.7251,1.3618-3.4562.3572-9.229.954-13.8706,3.7446-9.9597,5.9881-10.8379,19.7495-11.9149,19.4699-.8997-.2335-.8684-9.9846,4.4255-19.4699Z"/>
      <path class="cls-3" d="M171.7385,264.1994c-.5979-11.0471-4.1095-11.2772-3.0637-16.9581,1.0184-5.5323,4.4564-5.8989,15.3191-18.5349,5.4595-6.3506,8.1892-9.526,9.8723-12.9362,4.8518-9.83,2.6757-15.9178,7.8298-19.3344,3.3966-2.2515,8.6195-2.4433,11.234-.0042,3.2844,3.0641,1.535,9.4247.6809,12.5301-1.2064,4.386-3.4235,8.6422-13.2766,19.7447-10.269,11.571-11.6429,11.2097-12.9362,15.3192-1.2611,4.0078-.0602,4.6875-.3405,20.1738-.167,9.2246-.6439,11.7907-2.7234,13.5283-3.0295,2.5316-8.5868,2.5744-11.234,0-2.4946-2.426-.941-5.7526-1.3618-13.5283Z"/>
      <path class="cls-3" d="M293.9513,159.5351c10.5939-7.6925,18.3735-13.3415,29.9575-15.5946,4.6753-.9094,10.2668-1.9307,17.0212,0,2.1605.6176,11.1687,3.3345,15.6595,11.5745,2.0087,3.6857,3.5093,9.2023,1.7021,10.5532-.4124.3082-1.6796.9099-10.2128-4.2953-6.4764-3.9506-7.798-5.5485-10.5531-7.054-6.2114-3.3942-12.7533-2.5175-19.0638-1.5869-18.829,2.7765-31.821,13.9061-32.3405,13.1302-.26-.3885,2.9794-3.2051,7.8297-6.7271Z"/>
      <path class="cls-3" d="M553.0152,48.2366c2.5052-9.519,4.3335-16.466,11.2341-21.5727,7.0336-5.2051,14.7913-5.1345,17.8723-5.1064,7.2399.0659,12.0636,2.5972,21.7112,7.6596,6.8666,3.6031,8.8088,5.7678,9.9484,8.1713,1.412,2.978,2.5002,8.2387,0,10.8482-2.9619,3.0912-9.6791,1.1256-20.9362-2.1685-10.7294-3.1396-10.8607-4.5906-13.7872-3.8918-7.9645,1.9018-7.8193,12.8458-18.3829,16.5739-1.252.4418-5.4932,1.9386-7.6597,0-.8055-.7208-2.0837-2.5961,0-10.5136Z"/>
      <path class="cls-9" d="M205.0152,107.608c-6.3014-3.2488-18.1494.4445-21.4468,9.6942-2.4384,6.8401.6738,14.2657,5.7644,18.383,4.0514,3.2768,10.8278,5.6486,15.6824,3.0638,9.174-4.8846,9.3383-26.3264,0-31.141Z"/>
      <path class="cls-9" d="M270.8876,193.1425c-4.3651-5.775-15.4954-8.0494-22.2128-2.1202-6.9816,6.1623-4.714,17.2296,0,23.1033.5872.7316,5.3114,6.6182,11.1063,5.9614,9.2078-1.0436,17.7004-18.2205,11.1064-26.9444Z"/>
      <path class="cls-9" d="M410.2918,166.3008c-4.6177-2.8694-10.623-.8096-13.0212,3.2155-3.1538,5.2933.4257,13.1547,6.1515,14.4242,3.7894.8402,7.9935-1.3232,9.9336-4.8362,2.2864-4.1401,1.3696-10.0485-3.0638-12.8035Z"/>
      <path class="cls-9" d="M476.9301,187.5423c-3.5963-5.3768-12.0557-7.4708-16.8511-3.4207-4.7355,3.9995-3.6487,12.0905,0,16.67,2.6508,3.327,7.7983,6.2372,12.2554,4.5957,5.938-2.187,8.6858-11.7299,4.5957-17.845Z"/>
      <path class="cls-9" d="M332.1641,169.5163c-1.9045-3.0719-9.3969-3.9955-13.0212,0-4.423,4.8759-.1901,13.8856,3.4619,14.6053,4.5278.8923,12.3297-10.137,9.5593-14.6053Z"/>
      <path class="cls-9" d="M211.9574,243.7226c-5.028-2.475-11.9622.6744-14.6176,6.0142-2.2356,4.4955-1.8129,11.2969,3.0796,14.4626,4.8795,3.1573,11.3372.8427,14.4275-3.0957,4.2017-5.3545,2.8447-14.5585-2.8895-17.3812Z"/>
      <path class="cls-9" d="M176.6748,302.6639c-3.4321-.1852-7.974,4.6708-8.1932,12.2553,5.6324,4.2507,12.2338,3.1345,14.2408,0,2.55-3.9824-1.8011-12.0262-6.0476-12.2553Z"/>
      <path class="cls-9" d="M78.6322,317.7043c-2.8928-1.4258-9.1541,2.375-8.7677,6.4064.3452,3.6031,5.9064,6.409,8.7677,4.8853,3.3978-1.8094,3.0801-9.7736,0-11.2917Z"/>
      <path class="cls-9" d="M189.3328,380.7916c-3.8956.2177-7.1547,6.7731-6.6104,12.2553.545,5.4893,5.0428,11.3094,8.9418,10.7234,3.7087-.5575,5.9447-6.7719,5.6757-11.4893-.3082-5.4053-4.0685-11.7095-8.0071-11.4894Z"/>
      <path class="cls-9" d="M64.2186,187.5423c-2.6049-1.4215-5.6271-1.4565-7.7992,0-3.4506,2.3138-4.2273,8.0377-1.5319,10.4408,2.343,2.0889,6.9996,1.3925,9.3311-1.5472,1.9441-2.4512,1.9904-6.1078,0-8.8936Z"/>
      <path class="cls-2" d="M524.4195,239.401c-7.4731-6.132-19.6604-3.8328-25.226,4.3215-5.7966,8.493-2.7815,20.9512,5.6722,25.3976,6.5089,3.4235,14.7208,1.2973,19.5537-3.4442,6.8618-6.7321,7.948-19.7532,0-26.275Z"/>
      <path class="cls-2" d="M525.1854,166.8548c-4.5139-.6161-9.4929,2.4951-12.0948,7.6876.3143,10.1348,6.6317,16.6791,12.0948,16.4799,3.8455-.1403,7.125-3.6165,8.4255-6.9006,2.6509-6.6944-1.4471-16.3142-8.4255-17.2668Z"/>
      <path class="cls-2" d="M529.9806,329.4199c-3.9319-2.6363-9.4363-2.2044-13.2207,0-8.0575,4.6934-10.4685,18.674-3.6693,24.5632,4.4423,3.8477,12.104,3.6246,16.89,0,7.6804-5.8166,7.1405-19.7755,0-24.5632Z"/>
      <path class="cls-2" d="M536.6748,415.2597c-2.6146-4.5739-8.7148-5.6697-12.9175-3.8298-6.0024,2.6278-8.5172,11.4117-4.6996,16.0851,3.4203,4.187,11.1205,4.0914,15.3662,0,2.9424-2.8354,4.6719-8.0201,2.2509-12.2553Z"/>
      <path class="cls-2" d="M303.8238,488.0256c-3.7793-4.1289-12.5848-4.9093-17.7168,0-3.6849,3.5251-4.3043,8.863-3.1538,12.9326,1.7722,6.2689,8.131,10.8973,13.2109,10.0462,8.0568-1.3499,13.5116-16.5853,7.6597-22.9788Z"/>
      <path class="cls-2" d="M417.5259,523.8555c-2.6144-1.7892-6.3513-1.9292-8.8511,0-3.6146,2.7897-3.8151,9.267,0,12.2552,3.5415,2.774,9.4449,1.6813,11.5745-2.3829,1.7659-3.3702.3905-7.7412-2.7234-9.8723Z"/>
      <path class="cls-2" d="M204.079,332.8767c-3.5664-1.4883-8.5845,1.5263-9.8723,5.7872-1.2594,4.1667,1.0669,9.4641,4.9362,10.2327,3.1538.6265,6.2073-1.9794,7.5265-4.4454,2.0911-3.9089,1.1808-10.0007-2.5903-11.5745Z"/>
      <path class="cls-2" d="M144.1641,325.3873c-3.8064-.0209-7.7178,4.8089-7.1489,9.5319.4156,3.4508,3.2703,7.237,7.1489,7.2742,3.2805.0314,5.9227-2.632,6.8086-5.2316,1.6904-4.9604-2.3799-11.5501-6.8086-11.5745Z"/>
      <path class="cls-7" d="M206.6693,534.749c-7.0552-5.8705-17.855-4.153-23.1884,2.8984-5.8336,7.7128-3.2601,19.338,4.6831,23.9102,6.3191,3.6372,14.7135,2.0492,19.6039-3.1924,5.9419-6.3687,6.179-17.5607-1.0986-23.6162Z"/>
      <path class="cls-7" d="M147.5684,464.9618c-2.0793-1.1861-6.1263.7266-6.8085,3.7666-.7382,3.2896,2.7017,6.8398,5.1063,6.4462,1.975-.3233,3.0697-3.2769,3.2671-5.2031.0565-.5519.3373-3.9246-1.5649-5.0096Z"/>
      <path class="cls-7" d="M263.3131,553.4724c-1.6019-3.2687-5.8419-5.5759-9.8724-4.3008-4.2233,1.3362-6.3588,6.0179-5.4468,10.088.9453,4.2189,5.0465,7.2521,8.8511,6.8086,5.2209-.6086,8.8925-7.6489,6.4681-12.5958Z"/>
      <path class="cls-7" d="M300.4195,600.4512c-1.7186-4.2496-6.5658-6.0343-10.2128-4.766-5.0667,1.762-7.063,9.1543-3.7446,13.2766,2.1742,2.701,6.4108,3.7256,9.8723,2.0426,3.7714-1.8336,5.7432-6.4532,4.0851-10.5532Z"/>
      <path class="cls-7" d="M363.3982,551.7704c-3.3712-4.0131-9.6239-3.8883-13.5251-2.5988-6.4095,2.1185-12.2168,9.2798-10.3047,15.8752,1.1909,4.1078,5.0663,6.9272,8.8511,7.8298,6.105,1.4558,10.7604-2.3652,11.5745-3.0638,4.9668-4.2618,7.6353-13.006,3.4043-18.0425Z"/>
      <path class="cls-7" d="M386.8876,600.7916c-2.6157-3.7842-10.1514-3.7897-12.5958,0-1.7781,2.7566-.4321,6.8544,1.7021,9.1915.4534.4965,3.1099,3.287,6.1277,2.7234,4.2668-.797,7.4927-7.9702,4.766-11.9149Z"/>
      <path class="cls-7" d="M424.3344,567.7704c-1.1255-3.7899-5.5774-5.7408-9.1915-4.2418-3.7854,1.5701-5.2893,6.3596-3.4043,9.6761,1.4648,2.5774,4.6949,3.7699,7.4894,3.0763,3.5354-.8776,6.2269-4.7377,5.1064-8.5106Z"/>
      <path class="cls-7" d="M490.7173,522.4606c-6.0896-.9989-13.7631,1.3416-16.8511,7.5934-3.6825,7.4554,1.6083,15.5082,5.3617,19.1177,1.2744,1.2255,8.9022,8.2191,16.9727,5.0031,6.6199-2.6379,9.2845-10.4506,8.6652-16.5272-.755-7.4081-6.5647-13.943-14.1484-15.1869Z"/>
      <path class="cls-7" d="M550.4621,464.606c-4.6627-3.5317-11.639-1.6363-14.9218,2.8268-2.665,3.6233-3.1298,9.2572,0,12.9333,3.7844,4.4449,11.455,4.4193,15.6876,0,4.218-4.4039,4.0255-12.1309-.7659-15.7601Z"/>
      <path class="cls-7" d="M567.3131,375.3475c-3.9988-.3679-11.0016.5734-13.0801,5.4385-2.0287,4.7485,1.9995,10.0378,3.1226,11.5126,1.126,1.4786,7.3218,9.115,15.3192,6.8758,5-1.3999,9.229-6.2469,9.1914-11.4891-.0527-7.3614-8.4922-11.7801-14.5531-12.3377Z"/>
      <path class="cls-7" d="M612.9151,323.4092c-4.7241-5.701-15.5668-4.6444-18.0275,0-1.7231,3.2524.8307,7.9501,3.0637,10.3812,3.6288,3.9507,10.9296,6.8359,14.9637,3.3416,3.5575-3.0815,3.1652-9.9031,0-13.7228Z"/>
      <path class="cls-7" d="M604.8798,446.6639c-3.0242-3.9674-10.0306-4.5833-14.588,0,.63.929,9.1415,13.3099,13.541,11.4894,2.6903-1.1132,4.0077-7.6052,1.047-11.4894Z"/>
      <path class="cls-7" d="M561.1854,651.9405c-4.1714-3.2943-13.562,1.1313-13.7872,5.3617-.1687,3.1692,4.7479,7.3213,9.5319,6.6383.254-.0363,4.802-.7634,6.1277-4.766.8798-2.6564.0073-5.7496-1.8723-7.234Z"/>
      <path class="cls-1" d="M601.0152,497.4784c-5.1936-3.1772-16.9603,3.9303-16.3403,10.2068.3529,3.5726,4.7582,7.2693,9.6466,7.1489,5.0876-.1252,8.795-4.3378,9.5114-8.6779.4696-2.8452-.1333-7.0357-2.8176-8.6779Z"/>
      <path class="cls-1" d="M615.4383,657.404c-2.8212-3.0934-7.9573-3.8409-11.6055-2.1444-6.235,2.8995-6.653,12.2543-4.8601,17.8724.1814.5685,2.8066,8.4932,7.5924,8.6808,4.9055.1923,8.15-7.8987,8.8732-9.7021,1.2283-3.0631,4.0963-10.2152,0-14.7067Z"/>
      <path class="cls-1" d="M567.7686,700.1958c-2.4097-6.4-10.7043-8.9927-16.7959-6.1276-5.1576,2.4258-8.8258,8.806-6.6383,14.8085,2.1571,5.9191,8.9084,8.4521,14.2979,7.1489,6.6862-1.6167,11.6243-9.2219,9.1364-15.8298Z"/>
      <path class="cls-1" d="M392.1641,654.3723c-3.5721-5.488-13.7046-6.0034-16.6233-1.6658-2.0603,3.0619-.4595,8.4431,2.8361,11.3086,3.8846,3.3778,10.7791,3.8295,13.7872,0,2.1576-2.7467,1.7424-6.9658,0-9.6428Z"/>
      <path class="cls-1" d="M261.9513,649.8093c.4836-2.9069,1.9622-11.7941-3.5745-15.4858-4.9252-3.2839-13.0413-.8831-16.851,4.5958-3.371,4.8479-2.7094,11.1548,0,15.453,2.9802,4.728,9.4515,8.6333,14.4054,6.5044,4.5005-1.9341,5.4894-7.8778,6.02-11.0674Z"/>
      <path class="cls-1" d="M228.2493,590.9214c-2.3645-2.3931-10.9169.535-11.2341,4.3632-.2333,2.814,3.9331,6.7203,7.6229,5.8475,4.363-1.032,5.6268-8.1708,3.6112-10.2107Z"/>
      <path class="cls-1" d="M330.3769,632.8307c-2.3895-1.2379-8.1373,1.5807-8.6808,6.0886-.4894,4.0594,3.3643,8.4702,8.6808,8.2323,2.5448-7.2668,2.377-13.0895,0-14.3209Z"/>
      <path class="cls-1" d="M622.673,387.4292c-3.1262-.8884-8.5242,5.6655-9.7579,12.1533-.6047,3.1798-.7892,9.3939,2.5232,10.9986,2.2969,1.1127,5.4558-.3876,7.2347-1.9597,6.3446-5.6069,4.0809-20.0325,0-21.1921Z"/>
      <path class="cls-2" d="M755.7385,249.7368c-6.0249-6.3077-17.6305-6.9091-23.825,0-5.2822,5.8916-4.714,15.1077,0,21.0661,4.7653,6.0232,13.5426,8.434,19.9952,5.0525,8.7283-4.574,11.0128-18.5983,3.8297-26.1186Z"/>
      <path class="cls-2" d="M703.3806,244.7779c-4.7644-5.1232-12.3405-3.9464-16.5782-1.913-.4396.2109-8.7002,4.3218-8.4255,11.4056.2495,6.4365,7.3569,10.4594,12.502,11.4055,1.2463.2292,7.5912,1.3959,12.0088-2.8419,4.6317-4.4432,5.2161-12.9774.493-18.0562Z"/>
      <path class="cls-2" d="M744.0851,297.3022c-2.1887-6.6112-10.0717-11.8643-16.8097-9.4617-7.0769,2.5234-9.0911,12.1371-6.7709,18.7202,1.7534,4.9751,6.6709,10.1727,12.2554,9.8904,7.5734-.3828,14.1127-10.7294,11.3252-19.1489Z"/>
      <path class="cls-2" d="M368.2182,69.2639c-5.319-2.8327-15.7445,3.0183-15.8677,10.5064-.0713,4.3323,3.3064,9.1819,7.9338,9.9575,5.7719.9673,10.896-4.8384,11.714-10.316.5249-3.515-.4987-8.4003-3.7802-10.1478Z"/>
      <path class="cls-2" d="M567.9939,123.1479c-3.8867-3.0781-10.6355-.975-13.9574,3.0905-2.6353,3.2252-4.0624,8.8459-1.0214,12.9362,1.9832,2.6674,5.4907,4.1786,8.8511,3.6685,5.9213-.8988,7.905-7.5455,8.1703-8.4344.1448-.4849,2.2404-7.8688-2.0426-11.2607Z"/>
      <path class="cls-2" d="M180.3046,687.6001c-2.7733-1.4663-7.5709,1.8563-9.9277,5.3083-2.7981,4.0984-2.2357,8.4963-2.0425,9.6704.0999.6069,1.1875,7.2159,4.766,7.8297,3.1924.5476,6.1176-4.062,7.2042-5.7744.4365-.688,3.4928-5.6703,2.3276-11.9819-.4094-2.2175-.7817-4.2349-2.3276-5.0521Z"/>
    </g>
  </g>
</svg>