<?xml version="1.0" encoding="UTF-8"?>
<svg id="Capa_2" xmlns="http://www.w3.org/2000/svg" viewBox="0 0 784.1225 806.3649">
  <defs>
    <style>
      .cls-1 {
        fill: #70569b;
      }

      .cls-2 {
        fill: #5f488c;
      }

      .cls-3, .cls-4 {
        fill: #9570c2;
      }

      .cls-5 {
        fill: #b29ad8;
      }

      .cls-4 {
        stroke: #b29ad8;
        stroke-miterlimit: 10;
        stroke-width: 9px;
      }

      .cls-6 {
        fill: #604593;
      }

      .cls-7 {
        fill: #47327c;
      }

      .cls-8 {
        fill: #a486ce;
      }

      .cls-9 {
        fill: #735aaf;
      }

      .cls-10 {
        fill: #8566b2;
      }
    </style>
  </defs>
  <g id="Capa_1-2" data-name="Capa_1">
    <g>
      <g>
        <path class="cls-3" d="M569.1241,735.2571c-10.9155,0-20.9565-2.1348-28.2734-6.0112-15.2617-8.0903-19.6367-26.27-23.8672-43.8511-1.6133-6.7031-3.1367-13.0347-5.2095-18.5532-5.3833-14.3413-15.9595-24.8325-26.9766-33.9165-10.1821,6.543-16.6611,9.3687-21.3618,9.3687-.1426,0-.2832-.0024-.4219-.0073-.207-.0073-.4121-.0112-.6133-.0112-4.8315,0-7.7544,2.1255-13.9048,6.9331-4.4453,3.4751-9.978,7.7998-18.3755,12.4316-7.0952,3.916-23.7139,13.0884-44.7964,14.3418-.9639.0571-1.959.0864-2.9585.0864-9.8926,0-21.5757-2.7925-42.7847-7.8618-10.9307-2.6128-18.0029-4.6274-22.6826-5.96-4.9214-1.4019-7.3921-2.1055-9.2471-2.1055-.7769,0-1.5889.1187-2.7144.397-6.6274,1.6484-9.7739,5.2979-14.5371,10.8218-4.8394,5.6123-10.8613,12.5967-22.5869,19.3491-6.8999,3.9771-17.3296,9.9883-26.4937,9.9888-3.3989.0005-6.3833-.8315-8.8701-2.4717-9.519-6.2739-9.0044-21.5083-8.1509-46.748.1519-4.4609.397-7.7969.5938-10.4771.4111-5.6021.5986-8.1592-.4834-12.937-2.4551-10.8853-7.0078-18.748-13.5337-23.373-4.355-3.082-7.4619-3.2354-13.6523-3.5405-4.2402-.209-9.5171-.4688-16.7471-1.8281-12.2061-2.3037-28.8428-5.4443-42.0942-18.0068-.8613-.8208-20.8721-20.2056-18.229-45.1108.8823-8.3003,3.7764-12.7222,6.3296-16.6235,2.312-3.5327,4.1382-6.3237,4.3687-12.1782.146-3.7056-.3765-5.0786-5.1782-16.4473-1.9849-4.7002-4.7036-11.1372-8.2778-19.9912-7.3921-18.3037-9.0107-23.2646-7.9302-29.9795,1.0518-6.5522,3.7734-10.2363,6.1748-13.4868,2.1289-2.8818,3.8105-5.1582,4.5518-9.5225,1.4502-8.5347-1.7031-20.6592-8.5469-24.4097-1.2456-.6826-2.4502-1.0005-3.7881-1.0005-2.9116,0-6.3809,1.5293-10.3979,3.2998-6.0132,2.6509-13.4971,5.9497-23.2544,5.9502-.6104,0-1.229-.0132-1.8569-.0396-17.8506-.7559-40.3862-12.8525-46.9907-33.7822-1.1538-3.6572-1.7388-7.4604-1.7388-11.3042,0-.5337.0117-1.0674.0342-1.6011.0215-.5059.0532-1.001.0952-1.5049,0-.0063.0005-.0122.001-.0186h-.0005c.0332-.5049.085-1.0005.1484-1.5039.0039-.0454.0083-.0894.0132-.1318.0498-.4209.1089-.8418.1758-1.2563.0195-.1855.0483-.3696.0874-.5508.063-.3916.1289-.7837.2109-1.1753.0303-.1626.0723-.3706.123-.5938.0171-.0938.0381-.1958.0645-.3052.0659-.3252.1401-.6509.2227-.9756.1714-.7466.3833-1.5342.6665-2.4722.0732-.2534.1602-.5371.2588-.8335.4771-1.5132,1.0728-3.1089,1.7505-4.6777.1138-.2847.2378-.561.373-.8467,2.2397-4.9985,5.3779-10.061,9.3281-15.0469.3013-.3843.6167-.7754.9321-1.1562.5532-.6763,1.1235-1.3521,1.7041-2.0176.0166-.019.9863-1.1343.9863-1.1343l.001.0015c.0747-.0869.1523-.1714.231-.2515.8442-.9385,1.6978-1.8535,2.606-2.7939,6.0747-6.2734,11.4531-10.3013,12.4697-11.0449,7.0298-5.1494,18.7861-13.7607,32.1816-13.7607,2.269,0,4.5234.25,6.6997.7432,9.0679,2.0518,14.6079,7.6792,19.4951,12.644,4.7822,4.8579,8.5596,8.6948,14.7119,8.6948,8.3169-.0161,14.3286-6.8242,14.9868-7.6001,8.0874-9.5308,3.7881-23.1392,3.7437-23.2754-1.3188-4.0815-3.042-5.7417-5.4268-8.0396-2.5181-2.4258-5.6514-5.4448-8.2188-11.5112-4.3296-10.2251-5.3726-25.0352,2.0571-35.0708,3.5459-4.7881,7.4629-6.3716,11.6099-8.0483,2.3325-.9424,4.9756-2.0112,8.0854-3.8618,8.4624-5.0376,15.5615-13.0767,21.104-23.897,3.4834-11.0649,3.5-20.707.0488-28.665-2.7827-6.4141-6.8364-9.4443-13.5518-14.4639-5.0923-3.8066-11.4302-8.5435-19.2017-16.3149-13.3857-13.3755-21.4556-21.4385-24.2007-34.4214-3.4546-16.3511,3.0605-34.1416,19.3652-52.8789,21.2017-24.3115,42.9873-29.4087,57.5347-29.4087,2.0049,0,4.043.0967,6.0566.2871,26.8003,2.5273,43.1479,20.686,47.52,26.1909,14.8862,18.6963,16.2368,40.8369,16.2964,47.1772.0576,6.0088-.6528,10.6167-1.2236,14.3193-.8525,5.5293-1.3218,8.5752.7744,12.8521,3.6982,7.5498,12.915,13.4507,22.4131,14.3506.7285.0693,1.4297.1045,2.085.1045,4.2661,0,7.3042-1.4849,12.8203-4.1807,5.0752-2.48,12.0259-5.8765,23.0977-9.5098,11.8662-3.8916,18.8901-6.0933,25.2681-6.0933,3.0508,0,5.8242.5278,8.4785,1.6138,6.0601,2.4731,8.8101,6.2979,11.4697,9.9966,2.4082,3.3501,4.8989,6.814,10.5874,10.2168,2.6499,1.5938,9.6665,5.8125,17.9692,5.8125,1.1978,0,2.3901-.0903,3.5444-.2681,3.9473-.6099,6.0122-2.0146,8.8706-3.9585,3.0464-2.0723,6.8379-4.6514,13.5171-6.6289,2.5342-.7495,8.4307-2.4932,15.417-2.4932,2.8804,0,5.6714.2983,8.2959.8872,9.7153,2.1777,14.4365,7.7607,18.6016,12.6865,3.4316,4.0586,6.6733,7.8926,12.8237,10.5415,4.1577,1.793,8.7764,2.7012,13.7285,2.7012,7.1797,0,14.4644-1.9561,20.5117-5.5083,13.3247-7.8184,17.8208-21.627,19.3149-29.1626,1.8848-9.5195-.1538-15.1968-2.7354-22.3843-2.1406-5.9604-4.5669-12.7158-5.0059-22.5015-1.0303-23.146,8.4463-53.0488,31.686-64.0117,5.9053-2.7866,12.3418-4.1997,19.1313-4.1997,24.2554,0,46.1035,18.1069,48.5151,20.1714,22.3628,19.0059,25.6846,36.7495,24.5308,48.2861-1.5498,15.5562-11.6519,26.2251-16.5068,31.3521-7.4844,7.8916-13.9614,11.0068-20.8188,14.3052-5.0112,2.4102-10.1929,4.9023-16.5581,9.6045-7.146,5.2739-9.5322,9.2656-12.0586,13.4912-2.6821,4.4858-5.7217,9.5708-13.9995,15.6221-4.4453,3.252-8.3257,5.4243-11.4434,7.1699-5.3047,2.9697-7.4912,4.2939-8.3301,7.2759-1.8135,6.437,3.9365,14.7314,7.0259,19.1875,3.7256,5.3867,6.8999,7.7217,9.7012,9.7817,1.1753.8643,2.2852,1.6807,3.3281,2.6411,2.2529,2.0952,3.666,4.4243,4.4634,7.3452,1.9785,7.2275-1.0913,12.6914-3.8003,17.5122-2.4731,4.4014-4.6089,8.2026-3.7559,13.6123.3857,2.4487,1.354,4.9014,2.8789,7.291l.0874.1318c.0459.0698.0889.1406.1387.2075.0376.0513.0952.1309.1309.1836,2.4424,3.6196,5.5815,6.2466,7.457,7.8159.3315.2837.6216.5146.9106.7378.666.5161,1.2441.9312,1.7764,1.2754.333.2241.5962.3877.8511.5439.0278.0176.4429.2705.4429.2705,0,0,.4727.2656.5562.3174l.1006.0479c.1064.0527.2109.1099.313.1714,0,0,.2939.1489.3633.188,0,0,.2178.0972.2495.1133,1.1436.564,2.3203,1.0317,3.5981,1.4297,0,0,.6533.2056.6909.2173.0527.0132.6982.1992.6982.1992,0,0,.1826.0459.2271.0586.187.0542.3823.1094.5688.1562.041.0103.0815.021.1221.0322.5215.1465,1.043.2739,1.5645.4019l.1743.0435c.251.0625.5054.1265.7544.1958,1.3882.3418,2.5386.6602,3.6152,1.0005.3286.1016.6812.2227,1.021.3442.314.1079.6348.2192.9556.3413.6455.2402,1.2549.4922,1.8325.7583.8877.4004,1.709.8179,2.4771,1.2603.2847.1519.5786.3223.8613.4946.0186.0112.1118.0693.1118.0693.3354.2085.6816.4282,1.0176.6587.3643.2402.7388.501,1.1138.7734.3379.2446.6924.5161,1.0347.7881.3345.2549.7373.585,1.1396.9282,5.0039,4.2573,6.5752,7.8394,7.9614,10.9995,1.208,2.7544,2.3491,5.356,6.1143,9.1763,5.2979,5.375,9.479,6.7856,13.9058,8.2793,4.6138,1.5571,9.3853,3.167,14.103,8.8569,2.3223,2.8032,4.5142,5.4497,8.4878,40.668,2.8164,24.9351,2.187,27.7827.6172,31.4043-3.3296,7.6475-8.5479,11.1172-13.1523,14.1777-4.1519,2.7603-7.4312,4.9404-9.1074,9.9663-2.2432,6.7031-.6333,15.5859,3.8262,21.1245,3.0762,3.8184,6.4727,4.7681,10.7734,5.9702,4.7217,1.3198,10.0728,2.8154,15.0771,8.269,7.0269,7.6523,11.8579,22.1255,6.9683,33.8721-3.4907,8.3994-10.3711,11.3135-17.6553,14.3989-7.2598,3.0752-15.4883,6.5605-24.6074,16.0923-1.4678,1.5332-2.4746,2.7227-3.749,4.229-1.7778,2.1006-3.9907,4.7148-8.4722,9.5195-4.5298,4.8633-11.3789,12.2153-18.689,18.6812-9.8804,8.7505-16.4839,12.2344-21.3057,14.7783-4.3452,2.2925-6.3408,3.3452-8.3438,6.9463-.0317.062-.0645.1235-.0977.1841.0044-.0093.0288-.063.0522-.1177-.0269.0625-.0547.124-.0845.1851-.957,1.9819-.8394,5.4937-.7148,9.2119.147,4.3828.3135,9.3501-1.1079,14.2139-2.7993,9.54-10.8926,15.5298-24.6836,18.2329,1.6313,3.1714,4.7065,7.5356,8.0498,9.0786,5.8804,2.7173,12.54,4.6289,19.5903,6.6523,8.0776,2.3188,16.4302,4.7163,23.9258,8.5088,1.7197.8701,3.5308,1.7285,5.2817,2.5586,6.8613,3.2529,13.9565,6.6167,19.5952,12.3511,14.0566,14.2964,18.3872,45.3984,8.9111,63.998-7.7915,15.2964-19.2651,20.231-33.792,26.478l-.1001.043c-7.4487,3.2012-17.0444,4.9639-27.0205,4.9639Z"/>
        <path class="cls-5" d="M578.4388,9c22.6189-.0002,43.2559,17.0925,45.5883,19.0894,4.93,4.1902,25.2699,21.52,22.98,44.4202-1.4,14.0498-10.6801,23.8298-15.32,28.73-12.1201,12.78-21.2199,11.8799-36.76,23.3599-15.65,11.55-10.8701,18.01-26.04,29.1001-11.77,8.6099-19.3001,9.22-21.45,16.8599-2.3801,8.4502,4.02,17.7202,7.66,22.9702,5.7199,8.2698,10.54,10.2798,13.68,13.1699,1.43,1.3301,2.5199,2.8401,3.17,5.22,3.03,11.0701-9.82,16.95-7.6601,30.6399.54,3.4302,1.8901,6.4402,3.53,9.01.1401.2102.27.4202.4201.6201,2.78,4.1199,6.28,7.0601,8.2999,8.75.3501.3.7001.5801,1.05.8501.71.5498,1.4001,1.0498,2.0801,1.49.31.21.6299.4099.94.5999l.01.01c.1699.1001.34.2.51.3101.01,0,.03.01.04.02.1399.0798.28.1599.4099.23.1601.0999.3201.1799.48.26.1501.0898.3101.1699.4701.25.16.0898.32.1599.47.23,1.46.72,2.87,1.26,4.25,1.6899l.5699.1799c.1301.04.25.0801.3801.1101.21.0601.41.1201.6199.1799.0401.01.0901.02.1301.03.24.0701.49.1401.73.2.57.1602,1.1399.3,1.71.4402.28.0698.57.1399.85.22,1.14.28,2.27.5798,3.41.9399.29.0901.58.1899.86.29.2899.0999.5799.2.87.3101.51.1899,1.03.3999,1.55.6399.71.3201,1.44.6799,2.18,1.1101.2299.1199.4699.26.6999.3999.03.02.0501.03.0801.05.29.1799.59.3699.88.5698.3199.2102.65.4402.98.6802.2899.21.5899.4399.88.6699.3401.26.6799.54,1.02.8301,8.31,7.0698,4.96,10.95,13.79,19.9099,11.73,11.9001,19.69,7.1301,27.75,16.8501,1.69,2.04,3.74,5.1499,7.48,38.3,2.7,23.8999,2.1,26.48.96,29.1099-5.69,13.0701-18.14,11.74-22.4,24.51-2.78,8.3101-.78,18.7,4.5899,25.3701,7.7901,9.6699,17.5801,5.24,26.0401,14.46,6.4,6.97,10.08,19.6099,6.13,29.0999-5.6601,13.6201-22.14,9.02-41.36,29.1101-3.61,3.77-4.49,5.46-12.26,13.7898-4.49,4.8201-11.2801,12.1001-18.38,18.3801-18.98,16.8101-25.32,13.3401-30.64,22.98-.07.1399-.15.27-.21.4099-2.8201,5.8401.3999,15.6001-2.0901,24.1201-2.1099,7.1899-8.2899,13.5-25.6599,15.8-2.02.26,3.79,13.3198,11.46,16.8599,13.18,6.0901,29.9499,8.3,43.3701,15.0901,8.2399,4.1699,17.2299,7.47,23.6999,14.05,12.8999,13.1199,16.46,42.4099,8.11,58.8-7.07,13.8799-17.36,18.2798-31.66,24.4299-6.9839,3.0012-16.1206,4.5977-25.2426,4.5977-9.5693,0-19.1227-1.7556-26.1674-5.4878-18.9201-10.03-19.44-39.96-26.97-60.01-5.98-15.9299-17.7699-27.3499-30.9001-37.8999-8.9731,5.9592-16.9347,10.4346-21.6507,10.4346-.0877,0-.1738-.0015-.2592-.0046-.2627-.0095-.522-.0142-.7768-.0142-11.2754-.0005-15.0223,9.2063-34.4532,19.9243-7.32,4.0398-23.21,12.6199-42.8901,13.7898-.8819.0525-1.7779.0786-2.6921.0786-9.3589,0-20.7754-2.728-41.7378-7.7385-23.0342-5.5059-28.2858-8.1882-32.9758-8.1882-1.2045,0-2.3719.1768-3.7942.5283-15.72,3.9099-15.7,17.6299-38.2901,30.6399-6.3139,3.6387-16.3022,9.3882-24.2484,9.3882-2.361,0-4.5406-.5071-6.3915-1.728-7.42-4.8901-6.92-19.52-6.1301-42.8901.4601-13.5,1.8101-16.52,0-24.51-.8999-3.99-4.0898-18.0898-15.3199-26.05-8.9301-6.3198-14.5099-2.7998-32.1701-6.1199-11.9199-2.25-27.52-5.1799-39.8299-16.8501-.85-.8101-19.25-18.76-16.85-41.3699,1.56-14.6802,10.1699-15.1301,10.72-29.1001.27-6.8599-1.73-8.45-13.7801-38.2998-7.52-18.6201-8.5-22.3601-7.6599-27.5801,1.75-10.9001,8.87-12.0801,10.72-22.97,1.74-10.24-1.99-24.27-10.8201-29.1101-2.0134-1.1025-3.9765-1.5542-5.9515-1.5544-8.9405-.001-18.1521,9.25-33.6523,9.25-.5479,0-1.1024-.0115-1.6662-.0354-17.24-.7302-37.2699-12.8301-42.8899-30.6401-1.0601-3.3599-1.53-6.6899-1.53-9.95,0-.47.01-.9399.03-1.4099.02-.4702.05-.9302.09-1.4001q-.01-.01,0-.02c.03-.46.0799-.9099.14-1.3699v-.03c.05-.4199.11-.8401.1799-1.25,0-.0701.01-.1401.03-.2.0601-.3801.1201-.76.2-1.1401.04-.21.0801-.4099.1301-.6199.01-.0601.02-.1301.04-.1902.06-.3098.1299-.6199.21-.9299.1699-.75.3799-1.5.6-2.23.0699-.24.14-.47.22-.71.47-1.49,1.02-2.95,1.64-4.3801.0901-.23.1899-.45.3-.6799,2.31-5.1699,5.45-9.95,8.77-14.1399.29-.3701.58-.73.8699-1.0801.5401-.6599,1.0801-1.3,1.6301-1.9299q.01-.01.0201-.02c.3198-.3801.6599-.76.9799-1.1301.0201-.03.05-.0498.08-.0798.87-.97,1.73-1.8901,2.59-2.78,5.8-5.99,10.9199-9.8301,11.89-10.54,6.782-4.9678,17.5958-12.8916,29.5243-12.8916,1.8784,0,3.7833.1963,5.7057.6316,16.3359,3.6968,19.8545,21.45,35.2011,21.45h.0389c10.38-.02,17.4901-8.1399,18.38-9.1899,9.58-11.29,4.88-26.6899,4.59-27.5801-3.25-10.0598-9.26-9.23-13.78-19.9099-3.8401-9.0701-4.77-22.1301,1.53-30.6401,4.54-6.1299,9.54-5.46,18.3799-10.72,6.8201-4.0598,15.5801-11.45,22.98-26.0498,2.7101-8.4602,5-20.6401,0-32.1702-5.6099-12.9299-15.6999-14.1699-33.6999-32.1699-12.91-12.8999-20.51-20.49-22.98-32.1699-4.75-22.48,13.15-43.01,18.38-49.02,4.5588-5.2275,24.2748-27.8372,54.1171-27.8372,1.841,0,3.716.0859,5.6329.2671,26.4,2.49,41.9501,21.3999,44.42,24.51,14.77,18.55,15.2901,41.1799,15.32,44.4199.14,14.5-4.4401,20.03.01,29.1101,4.6,9.3899,15.5799,15.8599,26.0299,16.8499.881.0837,1.7141.1245,2.5098.1245,9.9435,0,14.2098-6.3313,37.3203-13.9143,10.916-3.5801,18.058-5.8689,23.8647-5.8689,2.4331,0,4.6315.4019,6.7753,1.2788,9.85,4.02,8.63,12.24,21.4501,19.9099,2.8907,1.738,10.7701,6.4509,20.2803,6.4509,1.3791,0,2.7922-.0991,4.2297-.3208,9.7099-1.5,10.7199-7.0901,22.9799-10.72,2.3959-.7085,7.7912-2.3083,14.1384-2.3083,2.342,0,4.813.2178,7.3116.7783,15.48,3.47,15.3999,16.4099,30.63,22.97,4.8516,2.0918,10.1655,3.0686,15.5092,3.0686,8.0167,0,16.1004-2.1985,22.7907-6.1287,17.0601-10.01,20.7701-28.74,21.4501-32.1699,3.7899-19.1401-6.7301-25.21-7.66-45.96-.84-18.8701,6.3-48.98,29.11-59.74,5.6888-2.6846,11.5134-3.7693,17.2117-3.7695M578.4393,0h-.0007c-7.4587.0002-14.5418,1.5579-21.0523,4.6301-12.2647,5.7856-21.9229,16.7131-27.9293,31.6006-4.5581,11.2981-6.8657,24.667-6.331,36.679.4691,10.468,3.1289,17.8735,5.266,23.8242,2.5287,7.0405,4.1991,11.6919,2.5566,19.9875-1.3472,6.7949-5.37,19.2283-17.1761,26.1555-5.3707,3.155-11.8456,4.8911-18.2361,4.8911-4.3359,0-8.3551-.7849-11.9459-2.333-5.1808-2.2317-7.8241-5.3577-11.1708-9.3154-4.394-5.1965-9.8625-11.6636-21.054-14.1724-2.9453-.6609-6.0682-.9961-9.2801-.9961-7.6361,0-13.9702,1.8733-16.6749,2.6731-7.3711,2.1824-11.6591,5.0991-14.79,7.2288-2.7182,1.8491-4.0827,2.7771-7.0274,3.2319-.9251.1426-1.8867.2151-2.8557.2151-7.054,0-13.2938-3.7515-15.6428-5.1638-4.9058-2.9351-6.924-5.7419-9.261-8.9922-2.7466-3.8198-6.1648-8.574-13.4259-11.5374-3.1987-1.3086-6.5296-1.946-10.176-1.946-7.4074,0-15.4869,2.6497-26.6693,6.3169-11.3676,3.73-18.4791,7.2053-23.6717,9.7429-5.6612,2.7666-7.7753,3.7231-10.8441,3.7231-.5144,0-1.0722-.0281-1.6578-.0837-7.8973-.7483-15.8024-5.7317-18.7997-11.8499-1.4076-2.8721-1.2088-4.7341-.3682-10.1873.5958-3.8643,1.3371-8.6736,1.2756-15.0503-.0618-6.699-1.4906-30.1101-17.2788-49.939-4.6446-5.8484-22.0426-25.1694-50.6157-27.8643-2.151-.2034-4.3313-.3066-6.478-.3066-15.4807,0-38.6126,5.3645-60.8997,30.9211-2.7532,3.1638-9.1333,10.4954-14.1511,20.1284-6.6088,12.6875-8.7122,25.0244-6.2519,36.668,3.0222,14.2913,11.9272,23.1895,25.4068,36.6584,8.0151,8.0151,14.4966,12.8599,19.7045,16.7527,6.9788,5.2163,9.8993,7.5371,12.1179,12.6504,2.9707,6.8506,2.9365,15.3132-.1006,25.1611-5.1235,9.884-11.5894,17.1968-19.2267,21.7432-2.8129,1.6736-5.1802,2.6306-7.4696,3.5562-4.3308,1.7507-9.2392,3.7349-13.5391,9.5405-8.487,11.4641-7.4137,28.1018-2.5854,39.5059,2.9258,6.9131,6.5755,10.4292,9.2403,12.9966,2.194,2.1138,3.2953,3.1748,4.2633,6.1711.035.1111,3.501,11.4604-2.8883,18.9902-.2109.249-5.1588,6.0007-11.5349,6.0129-4.1077,0-6.6384-2.3865-11.5263-7.3516-5.0584-5.1382-11.3538-11.533-21.7098-13.8765-2.5009-.5664-5.0893-.8538-7.6922-.8538-14.8681,0-27.3676,9.156-34.8358,14.6262-1.0717.7844-6.7209,5.0146-13.0442,11.5452-.9153.947-1.7738,1.866-2.622,2.8064-.1655.1692-.3231.3433-.4736.5229l-.2307.2644c-.203.2317-.4074.4658-.607.7-.0169.019-.0337.0381-.0504.0574-.5997.6868-1.1872,1.3821-1.7953,2.1245-.3364.4065-.673.8245-1.0097,1.2542-4.1395,5.2239-7.4649,10.5903-9.8559,15.9148-.1201.2537-.2771.5964-.4387.9949-.7223,1.6772-1.3595,3.3826-1.8948,5.0723-.1034.3132-.1964.6167-.2883.9312-.2996.9966-.529,1.8489-.7174,2.6658-.0883.3501-.1693.7046-.2421,1.0586-.0316.1357-.0577.2615-.0798.3765-.0483.2178-.0921.4326-.1346.6533-.0909.4419-.1602.8511-.2176,1.2073-.05.25-.0899.5024-.1199.7563-.0686.4331-.1302.8777-.1835,1.3259-.0074.0623-.0141.1243-.0202.1865-.0766.6165-.1291,1.1597-.1638,1.6917-.0449.5525-.0781,1.0852-.101,1.6233-.0253.5947-.0381,1.1978-.0381,1.7925,0,4.3044.6551,8.5632,1.9471,12.658,7.2209,22.8833,31.7131,36.1033,51.0919,36.9241.6814.0288,1.3702.0435,2.0471.0435,10.7049,0,18.6693-3.511,25.0689-6.332,3.4041-1.5007,6.6193-2.9182,8.5826-2.918.4212,0,.9102.0544,1.6294.4482,4.5217,2.4785,7.5703,12.0574,6.2702,19.7087-.5618,3.3069-1.7561,4.9236-3.7349,7.6021-2.4362,3.2979-5.7729,7.8145-6.9986,15.449-1.261,7.8347.4281,13.1306,8.201,32.377,3.587,8.8853,6.3136,15.3408,8.3043,20.0547,4.6621,11.0383,4.9329,11.8525,4.8279,14.5208-.1815,4.6096-1.4092,6.4856-3.6378,9.8909-2.5499,3.8965-6.0421,9.2324-7.0388,18.6123-2.8751,27.0847,18.6721,47.9607,19.5908,48.8362,14.2284,13.489,31.6167,16.7712,44.3129,19.168l.0564.0105c7.539,1.4172,12.9864,1.6858,17.3637,1.9016,6.2008.3057,8.1286.4929,11.2768,2.7209,5.5857,3.9592,9.5372,10.9197,11.7394,20.6838.9361,4.1318.7863,6.1714.3861,11.6221-.1997,2.7195-.4481,6.1038-.6014,10.6013l-.0018.0535c-.4108,12.1523-.7352,21.751.0274,29.5227.6508,6.6311,2.4106,16.0366,10.1467,21.1353,3.2313,2.1313,7.049,3.2131,11.344,3.2131,10.3661,0,21.4247-6.3733,28.7423-10.5906,12.3857-7.1331,18.6851-14.4387,23.7468-20.3088,4.8372-5.6099,7.1879-8.1428,12.2218-9.3948.9336-.2307,1.3446-.2622,1.6218-.2622,1.2269,0,3.9273.769,8.0149,1.9331,4.7166,1.3435,11.8443,3.3733,22.8687,6.0085,21.5408,5.1489,33.4064,7.9851,43.8301,7.9851,1.0894,0,2.1753-.0317,3.2276-.0945,22.0953-1.3135,39.9731-11.1799,46.7033-14.8943,8.7102-4.8044,14.3997-9.252,18.9711-12.8254,5.8102-4.542,7.8069-5.9788,11.1331-5.9785.149,0,.3004.0027.4537.0083.1893.0068.3842.0105.5827.0105,5.1838,0,11.4825-2.4592,20.9839-8.3135,9.6046,8.1963,18.518,17.6267,23.141,29.9419,1.9753,5.2598,3.4674,11.4602,5.0471,18.0249,4.2561,17.6868,9.0801,37.7334,26.1333,46.7737,7.9564,4.2153,18.7459,6.5361,30.3828,6.5361,10.5731,0,20.7998-1.8926,28.7962-5.3289l.1031-.0444c14.7526-6.3447,27.4934-11.8242,36.0229-28.5693,4.8273-9.4753,6.5828-22.5581,4.8162-35.8933-1.8291-13.8066-6.9887-25.6335-14.5282-33.3018-6.1985-6.304-13.9963-10.0007-20.8762-13.2625-1.8048-.8555-3.5096-1.6638-5.1775-2.5078-7.8766-3.9851-16.4375-6.4426-24.7168-8.8188-6.8795-1.9746-13.3773-3.8398-18.942-6.4109-.8272-.3818-1.7386-1.1873-2.6184-2.1799,11.7236-3.6042,18.8488-10.1313,21.679-19.7759,1.6265-5.5654,1.4394-11.1494,1.2891-15.6362-.0808-2.415-.2029-6.0603.2656-7.0955.0137-.0256.0271-.051.0402-.0759,1.2935-2.3162,2.1884-2.8406,6.485-5.1074,4.7404-2.501,11.904-6.2803,22.1916-15.3916,7.4693-6.6069,14.4072-14.0547,18.9982-18.9832,4.5515-4.8794,6.8029-7.54,8.6119-9.6777,1.2726-1.5037,2.1919-2.5901,3.5631-4.022,8.48-8.864,16.2543-12.157,23.1136-15.062,7.7968-3.3025,15.859-6.7175,20.0569-16.8188,5.6652-13.6108.359-29.7424-7.8116-38.6409-5.8697-6.397-12.4061-8.2241-17.1789-9.5583-4.3749-1.2229-6.3969-1.8726-8.4818-4.4607-3.5058-4.3545-4.8235-11.6074-3.0634-16.8687,1.1416-3.4221,3.0729-4.8181,7.3327-7.6501,4.6119-3.0659,10.928-7.2649,14.7841-16.1226,2.0815-4.802,2.556-8.7085-.2688-33.7129-3.9244-34.7847-6.1638-39.0132-9.4924-43.031-5.5359-6.6763-11.4104-8.6584-16.1308-10.2515-4.2425-1.4316-7.5934-2.5625-12.1404-7.1753-3.1818-3.2285-4.0714-5.2566-5.1977-7.8245-1.503-3.4265-3.3736-7.6909-9.17-12.6223-.4811-.4102-.9046-.7551-1.3199-1.0745-.3741-.2957-.7595-.5891-1.1321-.8591-.416-.3025-.8357-.5945-1.2377-.8606-.4315-.2944-.8388-.551-1.1518-.7451-.0159-.0098-.0316-.0198-.0473-.0293-.0344-.0217-.069-.043-.1036-.0642-.3645-.2219-.6997-.415-1.0187-.5867-.8675-.4968-1.7862-.9631-2.8012-1.4221-.6662-.3062-1.3627-.5942-2.1274-.8796-.3494-.1321-.6983-.2542-1.0475-.3745-.3839-.1367-.7806-.2717-1.1772-.3948-1.1068-.3499-2.3271-.6885-3.7902-1.05-.2769-.0762-.5581-.1472-.835-.2161l-.1228-.0305c-.5157-.1267-.9858-.2407-1.4557-.3726-.0847-.0239-.1696-.0464-.2549-.0676-.1268-.0317-.2586-.0696-.3853-.1067-.113-.033-.2267-.064-.3409-.0925-.01-.0024-.0202-.0049-.0304-.0073l-.0739-.0215-.3517-.1023c-.0544-.0156-.109-.0305-.1637-.0452l-.554-.1748c-1.0836-.3376-2.0475-.7202-2.979-1.1794-.0561-.0278-.1124-.0549-.1692-.0813l-.0962-.0447c-.0515-.0269-.1032-.0535-.1552-.0796l-.0437-.022c-.1349-.0769-.2719-.1501-.4106-.22-.0827-.0481-.1661-.095-.2502-.1404l-.1547-.0874c-.0962-.0593-.1924-.1174-.2885-.1748-.0338-.0212-.0677-.0425-.1018-.0632-.1951-.1194-.3973-.2439-.5922-.3757-.0522-.0354-.1046-.0703-.1575-.1045-.4248-.2749-.9021-.6182-1.4594-1.0498-.2861-.2207-.5061-.3984-.7049-.5688-.0268-.0229-.0536-.0457-.0807-.0684-1.6932-1.4167-4.5272-3.7876-6.6149-6.8816-.0604-.0894-.1223-.1777-.1859-.2649l-.0469-.0718-.0905-.1372c-1.1879-1.8728-1.9067-3.6797-2.1967-5.5217-.5821-3.6895.7784-6.3408,3.2332-10.7097,2.8206-5.02,6.6836-11.895,4.217-20.9065-1.0271-3.7605-2.8456-6.7595-5.7213-9.4341-1.2594-1.1594-2.5223-2.0886-3.7437-2.9868-2.6397-1.9419-5.3692-3.9497-8.6637-8.7126-2.4829-3.5811-7.6371-11.0151-6.3991-15.4106.3094-1.0994,1.294-1.8252,6.1978-4.5706,3.2239-1.8052,7.2361-4.0515,11.903-7.4653,9.0132-6.5891,12.3021-12.0903,15.2038-16.9443,2.4857-4.1577,4.449-7.4417,10.8669-12.1782,6.0273-4.4526,11.0146-6.8513,15.8376-9.1709,6.9222-3.3293,14.0802-6.772,22.1085-15.2373,5.2256-5.5188,16.0425-16.9421,17.7453-34.0308,1.2603-12.6042-2.2455-31.8899-26.1071-52.1702-4.1207-3.5281-26.0826-21.2317-51.4163-21.2317h0Z"/>
      </g>
      <path class="cls-10" d="M669.987,472.3395c-5.66,13.62-22.14,9.02-41.36,29.11-3.61,3.77-4.49,5.4601-12.26,13.7899-4.49,4.8201-11.28,12.1001-18.38,18.3801-18.98,16.8099-25.3199,13.34-30.64,22.98-.0699.1399-.1499.27-.21.4099-2.8201,5.8401.3999,15.6001-2.0901,24.1201-2.1099,7.1899-8.2899,13.5-25.6599,15.7999-2.02.26,3.79,13.3199,11.46,16.86,13.1801,6.0901,29.95,8.3,43.3701,15.0901,8.24,4.1699,17.23,7.47,23.7,14.0499,12.8999,13.12,16.46,42.41,8.11,58.8-7.0699,13.88-17.36,18.2799-31.66,24.4301-14.3101,6.1499-37.6499,6.3999-51.4099-.8901-18.9202-10.03-19.4401-39.96-26.9701-60.01-5.98-15.9299-17.7699-27.3499-30.9-37.8999-9.1399,6.0699-17.23,10.6-21.9099,10.4299-11.8901-.4299-15.3601,8.95-35.23,19.91-7.3201,4.0399-23.2101,12.62-42.8901,13.7899-9.9099.5901-21.4199-2.1599-44.4299-7.6599-28.95-6.9199-29.8101-9.38-36.77-7.66-15.72,3.91-15.7,17.63-38.29,30.64-8.1899,4.72-22.5599,12.99-30.6399,7.66-7.42-4.89-6.92-19.52-6.1301-42.89.4601-13.5,1.8101-16.52,0-24.51-.8999-3.99-4.0898-18.09-15.3199-26.05-8.9301-6.3199-14.5099-2.7999-32.17-6.1199-11.9199-2.25-27.52-5.1801-39.83-16.8501-.85-.8101-19.25-18.76-16.85-41.37,1.5601-14.6801,10.1699-15.13,10.72-29.1.27-6.86-1.73-8.45-13.78-38.3-7.52-18.62-8.5-22.36-7.6599-27.58,1.75-10.9,8.87-12.08,10.72-22.97,1.74-10.2401-1.99-24.27-10.8201-29.11-11.45-6.27-21.23,8.51-41.27,7.66-17.24-.73-37.2699-12.83-42.8899-30.64-1.0601-3.36-1.53-6.69-1.53-9.95,0-.47.01-.94.03-1.41.02-.47.05-.93.09-1.4q-.01-.01,0-.02c.03-.46.08-.91.14-1.37v-.03c.05-.42.11-.84.1799-1.25,0-.07.01-.14.03-.2.0601-.38.1201-.76.2-1.14.04-.21.0801-.41.1301-.62.01-.06.02-.13.04-.19.0599-.31.1299-.62.21-.93.1699-.75.3799-1.5.6-2.23.0699-.24.14-.47.22-.71.4701-1.49,1.02-2.95,1.64-4.38.0901-.23.1899-.45.3-.68,2.3099-5.17,5.45-9.95,8.77-14.14.2899-.37.58-.73.8699-1.08.54-.66,1.0801-1.3,1.6301-1.93l.02-.02c.3198-.38.6599-.76.98-1.13.02-.03.0499-.05.08-.08,4.8199,13.97,10.61,29.1,25.58,34.28,2.6799.92,9.3.97,22.4299,1.02,41.9102.16,48.3301-3.46,55.53,2.04,7.7101,5.89,8.22,19.66,8.9401,46.98,1.15,43.96-5.48,46.57,0,61.36,9.11,24.62,35,37.78,54.13,47.5,15.8101,8.03,14.25,3.85,40.6799,15.7301,20.67,9.2999,29.8701,15.5599,48.17,18.5099,8.83,1.4301,16.83,2.63,26.6,0,13.3-3.5699,15-10.23,26.3201-12.38,7.3-1.3799,11.21.5,31.9299,7.15,23.55,7.5599,35.39,11.3099,38.72,10.34,18.42-5.3999,12.9301-33.22,35.75-44.1299,13.9001-6.6501,28-2.0901,32.28-11.0801,2.3401-4.91-1.33-7.4,0-15.38,1.8101-10.83,10.5-17.84,18.78-24.51,1.77-1.43,4.8401-3.8,26.55-16.35,15.78-9.11,19.6-11,20.4299-15.43,1.2-6.45-5.77-8.63-10.86-20.31-4.37-10.04-6.7799-25.8,0-37.21,4.9501-8.34,9.6801-5.72,17.41-16.92,2.71-3.94,9.5601-13.85,6.72-23.96-.54-1.93-1.4299-3.89-5.2-8.72-8.77-11.24-15.53-15.55-18.9301-19.4-9.4-10.65-3.92-30.11,0-44.05.78-2.78,8.64-29.89,22.54-50.13,1.4301,1.33,2.5199,2.84,3.17,5.22,3.0299,11.07-9.8201,16.95-7.6602,30.64.54,3.43,1.8901,6.44,3.53,9.01.1401.21.27.42.42.62,2.78,4.12,6.28,7.06,8.2999,8.75.3501.3.7001.58,1.05.85.71.55,1.4,1.05,2.0801,1.49.3099.21.6299.41.9399.6l.01.01c.1699.1.3401.2.51.31.01,0,.03.01.04.02.1399.08.28.16.4099.23.16.1.3201.18.48.26.1501.09.3101.17.4701.25.16.09.3199.16.47.23,1.4601.72,2.87,1.26,4.25,1.69l.5699.18c.1301.04.25.08.3801.11.21.0601.4099.1201.6199.1801.04.0099.0901.02.1301.03.24.07.49.14.73.2.5699.16,1.1399.3,1.71.44.28.07.5701.14.85.22,1.14.28,2.27.58,3.41.94.29.09.58.19.86.29.2899.1.58.2.87.31.51.19,1.03.4,1.55.64.71.32,1.4399.6801,2.1799,1.11.23.12.47.26.7.4.03.02.05.03.0801.05.29.18.59.37.88.5699.3199.21.65.44.98.6801.2899.21.59.4399.88.67.3401.26.6799.54,1.02.83,8.3101,7.0699,4.96,10.95,13.79,19.91,11.73,11.9,19.6899,7.13,27.75,16.85,1.6899,2.04,3.74,5.15,7.48,38.3,2.7,23.9,2.1,26.48.96,29.11-5.6899,13.07-18.14,11.74-22.4,24.51-2.7799,8.31-.7799,18.7,4.59,25.37,7.79,9.67,17.5801,5.24,26.04,14.46,6.4,6.97,10.0801,19.61,6.13,29.1Z"/>
      <path class="cls-4" d="M104.7109,158.3011c-11.8902-12.4513-30.1963-15.0721-44.4255-10.7234-22.2234,6.7919-29.6239,29.0933-32.17,36.766-2.5259,7.6117-7.5132,22.6411,0,38.2979,6.1591,12.8347,19.4446,23.436,35.2338,24.5106,15.449,1.0514,26.4584-7.4832,30.6383-10.7234,15.387-11.928,18.945-28.7463,19.9149-33.7021,1.463-7.4755,5.6524-28.8811-9.1915-44.4255Z"/>
      <path class="cls-4" d="M375.8599,40.3437c-10.7775-6.8121-25.4355-7.0006-36.766,0-13.1099,8.1-20.5112,25.0494-15.3191,39.8298,5.8903,16.7679,24.5095,20.8405,27.5745,21.4468,1.1057.2188,23.6476,4.324,35.234-10.7234,11.3863-14.7875,5.9758-39.998-10.7234-50.5532Z"/>
      <path class="cls-4" d="M659.3188,169.6409c-23.7283.8467-33.7718,8.3074-36.766,10.7234-14.0809,11.3622-22.7462,32.5876-16.851,50.5532,3.4863,10.6244,11.0166,16.9146,18.383,23.0677,9.886,8.2579,19.2925,12.0383,35.234,18.2939,24.3641,9.5607,27.9834,7.1702,33.7994,13.7872,10.0531,11.4376,3.052,22.9169,13.6899,33.7021,9.7547,9.8898,24.5553,9.2747,26.0426,9.1914,22.8468-1.2783,39.1769-26.8898,44.4255-45.9574,9.357-33.9926-11.9672-63.6709-16.8511-70.4681-32.5764-45.3389-90.5813-43.2692-101.1064-42.8936Z"/>
      <path class="cls-4" d="M758.121,395.748c-13.0703-10.6445-34.3645-11.6887-49.8356,0-15.3309,11.5829-20.2461,32.1196-13.7872,47.4893,8.6927,20.6853,37.858,31.7019,63.6229,18.3831,19.791-20.7811,17.4268-51.6798,0-65.8723Z"/>
      <path class="cls-4" d="M656.074,561.3182c-9.2201-9.5002-27.3186-9.5078-36.6397-.1234-9.5536,9.6184-7.801,26.3948-.0002,36.7657,4.0417,5.3734,9.8903,9.18,16.3457,10.9809,4.673,1.3036,15.4643,3.146,19.175-1.1165,1.0507-1.2069,1.6298-2.7426,2.1809-4.245,2.2876-6.2355,4.4697-12.5797,5.2147-19.1796s-.0468-13.5509-3.3926-19.2884c-.8158-1.399-1.787-2.6635-2.8839-3.7937Z"/>
      <path class="cls-4" d="M437.1365,714.3863c-15.8927-9.5742-37.8095,4.7878-44.5296,9.1915-8.1498,5.3406-31.8249,20.8549-29.0023,44.4255,1.7758,14.8291,13.4227,27.6951,27.5745,32.1702,23.824,7.5337,43.1874-12.3683,45.9574-15.3192,12.944-13.7886,13.745-30.4683,13.7872-35.234.0481-5.434.2372-26.7853-13.7872-35.2341Z"/>
      <path class="cls-4" d="M176.7109,666.8969c-10.5244-3.8884-24.2072-.8378-32.1702,9.1915-8.5745,10.7995-6.6283,24.7928-1.5319,33.7021,6.5213,11.4003,20.9715,19.3202,33.7021,15.3192,9.889-3.1079,14.4163-12.0499,15.3191-13.9493,6.9018-14.5203,1.8344-37.9259-15.3191-44.2635Z"/>
      <path class="cls-4" d="M83.2032,536.6946c-2.0663-6.6036-3.9239-13.2726-5.5686-19.9936-1.5611-6.3793-3.5758-13.6501-9.5077-16.4687-4.4954-2.1361-9.8074-.9319-14.5652.5292-21.4757,6.5949-43.5917,20.376-48.2159,42.3605-2.8631,13.6121,1.7996,28.0532,10.1259,39.1959,8.3262,11.1426,19.9969,19.3525,32.1898,26.0469,18.6364,10.2321,52.9956,18.9016,53.884-13.4833.2976-10.8485-4.4251-21.1078-8.5601-31.1417-3.6538-8.8663-6.9183-17.893-9.7821-27.0451Z"/>
      <g>
        <path class="cls-6" d="M492.737,360.5202c-.7822,9.5931.4942,9.7783-.0822,19.1655-.5559,9.0578-1.2661,20.6683-7.1537,31.7127-7.4316,13.9264-14.5234,10.8488-20.4624,24.5487-3.6746,8.4712-1.9145,11.8472-7.1639,23.5297-2.9952,6.6596-4.9612,11.0341-9.2019,15.3469-10.7973,10.9517-26.947,11.9707-31.7127,12.2692-9.1916.5867-12.1148-1.4307-19.4434,1.0293-7.4727,2.5012-8.8725,6.0729-14.3176,9.2019-18.3112,10.5195-46.1022-4.92-50.1268-7.1639-14.7292-8.1726-11.7649-12.7325-22.5107-16.3659-18.2906-6.1758-27.7087,6.7728-43.9819,0-14.1631-5.8876-19.9272-21.0389-20.4624-22.5004-3.7878-10.4062.9161-12.7016-2.0483-26.5971-2.0071-9.4386-4.3539-9.2019-13.2985-30.6937-4.4054-10.5811-6.6184-15.985-7.1639-21.4814-1.194-12.0325,2.4909-21.8417,4.0966-25.578,4.4672-10.4474,8.0594-9.3872,12.2693-19.4331,4.4363-10.5811,1.4822-14.1837,5.1156-25.578.0515-.1647.1132-.3397.175-.5043,2.8718-8.7388,7.2051-14.3382,13.1235-21.9962,12.2281-15.81,17.5701-14.441,27.6264-28.6453,8.6564-12.2281,6.1964-15.3572,13.2985-21.43,10.9929-9.3975,25.5472-9.3049,32.7317-9.2637,16.8805.1029,17.6833,6.0317,36.8283,8.1829,21.8211,2.46,25.1457-4.7451,38.8766,0,11.5693,3.9937,11.0752,9.7577,25.6604,21.4608,1.2249.9881,2.5526,2.0174,4.0039,3.0879,18.1465,13.3706,22.6961,9.6137,37.8576,22.5107,8.2755,7.0404,18.7743,15.985,22.5005,30.6937,2.4805,9.7886,1.1939,19.0935,0,27.6161-1.5955,11.4458-4.0246,14.441-5.0334,26.875Z"/>
        <path class="cls-7" d="M492.737,360.5202c-.7822,9.5931.4942,9.7783-.0822,19.1655-.5559,9.0578-1.2661,20.6683-7.1537,31.7127-7.4316,13.9264-14.5234,10.8488-20.4624,24.5487-3.6746,8.4712-1.9145,11.8472-7.1639,23.5297-2.9952,6.6596-4.9612,11.0341-9.2019,15.3469-10.7973,10.9517-26.947,11.9707-31.7127,12.2692-9.1916.5867-12.1148-1.4307-19.4434,1.0293-7.4727,2.5012-8.8725,6.0729-14.3176,9.2019-18.3112,10.5195-46.1022-4.92-50.1268-7.1639-14.7292-8.1726-11.7649-12.7325-22.5107-16.3659-18.2906-6.1758-27.7087,6.7728-43.9819,0-14.1631-5.8876-19.9272-21.0389-20.4624-22.5004-3.7878-10.4062.9161-12.7016-2.0483-26.5971-2.0071-9.4386-4.3539-9.2019-13.2985-30.6937-4.4054-10.5811-6.6184-15.985-7.1639-21.4814-1.194-12.0325,2.4909-21.8417,4.0966-25.578,4.4672-10.4474,8.0594-9.3872,12.2693-19.4331,4.4363-10.5811,1.4822-14.1837,5.1156-25.578.0515-.1647.1132-.3397.175-.5043,2.7791,14.5028,2.985,34.2859,2.9953,36.118.175,26.3912-5.8979,32.1038,0,44.8362,4.3025,9.274,8.2652,7.8329,34.6976,31.6201,17.3231,15.5938,17.8995,18.2597,25.2281,20.8741,14.4514,5.1568,18.6509-2.9438,39.1957,0,19.6081,2.81,24.559,11.4458,35.4387,7.4418,7.2771-2.6865,5.8773-6.8654,17.8686-15.9747,13.1132-9.9636,17.8892-7.3286,24.1782-15.0586,6.3096-7.7609,2.1513-11.2194,8.3991-26.6382,6.1758-15.2233,11.5693-15.1307,15.5115-28.738,3.057-10.5298-.0824-10.9003,2.635-22.799,4.3642-19.1038,13.3912-22.2123,12.3516-33.1022-.9161-9.4696-8.1829-11.6826-16.8291-23.2107-6.0625-8.0903-10.8282-18.1156-13.5249-27.0602,1.2249.9881,2.5526,2.0174,4.0039,3.0879,18.1465,13.3706,22.6961,9.6137,37.8576,22.5107,8.2755,7.0404,18.7743,15.985,22.5005,30.6937,2.4805,9.7886,1.1939,19.0935,0,27.6161-1.5955,11.4458-4.0246,14.441-5.0334,26.875Z"/>
        <path class="cls-9" d="M304.5011,244.8333c5.9429-8.5541,8.9144-12.8311,14.3033-15.5909,8.2284-4.2139,16.5824-2.8958,23.277-1.8396.8552.1349,5.9137,1.7543,16.0308,4.9932,9.539,3.0538,12.8141,4.1989,13.6656,7.0956.6876,2.3393-.3161,5.4446-2.3652,6.8328-3.1503,2.1342-7.1391-.8963-15.5052-3.4164-7.9113-2.3831-14.5425-4.3806-21.024-2.1024-6.1806,2.1724-10.9417,7.7816-13.9284,11.3004-3.7117,4.3729-4.4399,6.7815-7.884,8.1468-4.3175,1.7115-10.4371.8059-12.0888-2.3955-1.474-2.8571,1.0793-6.6338,5.5188-13.0239Z"/>
        <path class="cls-9" d="M282.1631,269.4507c-2.4653-1.857-10.1715,4.6061-13.1399,7.0956-6.7896,5.6943-10.0586,10.8584-12.6144,14.9796-4.6896,7.5621-4.2283,10.0166-3.6792,11.3004.8124,1.8995,2.7356,3.3838,4.7303,3.6792,4.7397.7019,8.7603-5.4748,9.9864-7.3584,3.5711-5.4861,1.3514-6.9555,4.4676-11.826,3.76-5.8769,8.2579-5.7166,10.2492-11.5632.1739-.5105,1.6754-5.0452,0-6.3072Z"/>
        <path class="cls-9" d="M391.7505,231.6076c3.0942-2.2166,7.2952-1.0042,10.7748,0,4.6527,1.3428,7.379,3.4865,11.3004,6.57,2.9379,2.3101,3.5647,3.3382,3.6792,4.4676.2564,2.5281-2.0562,5.5349-4.4676,5.7816-2.5902.265-3.1382-2.8752-8.4053-6.0444-3.1426-1.8909-6.7345-3.0516-8.6766-3.6792-4.0409-1.3058-6.1368-1.4487-6.57-2.8908-.4297-1.4306,1.0421-3.2569,2.3652-4.2048Z"/>
      </g>
      <path class="cls-8" d="M158.59,320.281c.4973-16.7031,8.8958-19.439,9.1915-34.5896.342-17.5263-10.783-19.702-9.1915-33.45,1.7379-15.0122,15.4601-16.3683,28.5957-38.1731,5.4799-9.0965,13.8802-23.041,12.2553-38.8085-1.9908-19.317-17.0063-21.7467-35.7446-53.1064-10.4913-17.5578-18.0314-30.1765-15.3192-45.9575,2.6563-15.4557,14.6981-31.3347,32.6808-36.766,13.5658-4.0972,30.8348-2.3461,42.3145,8.1702,10.5674,9.6806,12.2679,23.1599,13.8557,35.7447,2.8677,22.7303-4.709,27.3232.0995,42.8936,3.9777,12.8802,14.6041,27.3586,29.0828,30.6383,6.8619,1.5544,14.6722-.9852,30.0127-6.1277,28.4421-9.5344,30.9407-15.3498,41.9114-14.2979,16.2636,1.5594,14.676,14.7137,33.7021,19.4043,18.8849,4.6557,25.9163-6.9564,49.0213-1.0213,6.9265,1.7792,6.5143,2.8793,20.4255,7.1489,14.1089,4.3304,17.2305,4.0268,28.5957,7.5332,16.7305,5.1617,25.0958,7.7426,29.617,13.9136,7.1534,9.7636,6.6124,25.1782,0,35.7447-11.5752,18.4968-38.1821,16.4278-40.851,16.1803-19.2538-1.7862-20.5081-13.4786-46.8474-22.3079-14.9585-5.0143-14.9016-1.3597-44.2352-7.1489-34.7898-6.8661-35.0804-12.0483-45.6596-9.4663-17.6215,4.3008-15.2337,18.2927-46.0664,38.9231-12.9702,8.6785-17.0586,8.6553-24.4679,16.8865-2.8369,3.1516-6.1088,7.4556-18.4257,33.45-10.8279,22.852-10.4573,24.0799-14.2979,27.5995-11.1523,10.2202-19.7442,4.8754-32.6808,15.7052-11.6266,9.7331-12.3004,20.4238-17.3617,19.8806-5.8163-.6242-10.6071-15.3514-10.2128-28.5957Z"/>
      <path class="cls-8" d="M553.8241,112.9618c-1.9043-.786-5.4579-3.3335-7.1489-38.8085-1.2206-25.6043.3213-30.7651,2.0426-34.7234,1.6327-3.7547,7.2168-16.5961,20.4255-21.4468,13.3628-4.9073,25.845,1.5529,34.6842,6.1277,9.0714,4.6949,18.6665,9.6609,21.486,20.4255,2.0044,7.6529.5999,18.2953-6.1277,24.192-10.2058,8.9456-23.3492-1.2088-33.2494,7.4675-7.6172,6.6757-2.489,15.0216-11.6868,26.0971-4.7977,5.7773-14.2561,13.2155-20.4255,10.6689Z"/>
      <path class="cls-8" d="M41.1432,202.8342c-3.9664-12.8484.8538-28.3676,11.8861-36.766,2.4929-1.8977,11.5338-8.1751,22.8373-6.1277,2.4099.4365,12.0197,2.1771,15.3192,9.5758,3.6004,8.0734-2.3255,18.3712-8.1702,23.6262-6.9451,6.2444-11.9391,3.7169-16.7507,9.6917-6.3975,7.9438-1.7462,17.5981-5.7174,19.4043-4.4152,2.0081-15.7008-7.408-19.4042-19.4043Z"/>
      <path class="cls-8" d="M18.6751,565.3873c-6.1758-13.9977,2.5859-28.0586,5.4662-32.6808,4.7368-7.6018,15.7628-20.2346,24.1509-17.3617,7.5118,2.5728,8.9628,16.2297,9.1915,18.3829.8575,8.0715-1.7438,10.5049-4.4543,24.6375-3.2723,17.0619-.9998,21.434-4.7372,23.85-6.7131,4.3395-23.7373-3.5013-29.6171-16.8279Z"/>
      <path class="cls-8" d="M337.3134,64.8515c-1.5656-4.4927,5.9037-11.2979,12.5524-14.1875,6.2849-2.7316,15.8411-3.7048,17.897,0,2.4094,4.3418-5.1691,15.673-15.2247,18.0644-5.8679,1.3955-13.8561.0504-15.2247-3.8769Z"/>
      <path class="cls-8" d="M621.2284,212.0256c1.1417-12.729,18.3586-19.7449,21.4468-21.0033,6.4701-2.6366,11.7126-3.0248,44.9362,0,26.1566,2.3814,29.4271,3.2156,33.7021,5.4094,14.7943,7.5919,27.6462,24.2947,23.4894,32.8467-3.3008,6.7907-17.043,7.8603-26.5532,6.0764-19.0546-3.5741-22.2354-6.6534-34.8681-6.0764-14.3474.6553-16.3803,8.428-31.5149,9.9803-13.9723,1.4331-31.8678-13.5252-30.6383-27.2331Z"/>
      <path class="cls-8" d="M195.356,365.7167c14.2319,6.2323,11.4789,35.9299,11.2341,38.3089-1.3848,13.4547-6.2132,16.1611-5.6171,29.617.1492,3.3687.6475,12.523,5.6263,22.4681,6.5545,13.0922,13.6487,13.122,16.7733,22.4681,4.3256,12.9386-3.2889,30.7735-10.655,31.5454-8.162.8553-9.3718-19.9354-32.6808-42.6914-11.5145-11.2413-16.1585-10.9897-18.383-18.471-4.378-14.7236,11.7225-22.0436,12.2554-44.9362.3724-16.0012-7.2617-22.3905-2.0426-30.6383,4.5771-7.2333,15.9298-10.981,23.4894-7.6706Z"/>
      <path class="cls-8" d="M57.6502,328.9961c.8871-11.6852,10.6099-22.1276,20.259-23.013,7.4252-.6814,8.3759,4.8867,23.6495,11.5065,15.0529,6.5241,22.2068,4.6166,26.3931,11.5065,2.9203,4.8063,3.5583,12.5141,0,15.7955-6.0677,5.5955-17.6652-7.8326-35.6691-5.1064-14.1272,2.1392-18.7471,12.1879-26.2568,9.101-6.6317-2.726-8.8933-12.9728-8.3757-19.7902Z"/>
      <path class="cls-1" d="M669.987,472.3395c-5.66,13.62-22.14,9.02-41.36,29.11-3.61,3.77-4.49,5.4601-12.26,13.7899-4.49,4.8201-11.28,12.1001-18.38,18.3801-18.98,16.8099-25.3199,13.34-30.64,22.98-.0699.1399-.1499.27-.21.4099-2.8201,5.8401.3999,15.6001-2.0901,24.1201-2.1099,7.1899-8.2899,13.5-25.6599,15.7999-2.02.26,3.79,13.3199,11.46,16.86,13.1801,6.0901,29.95,8.3,43.3701,15.0901,8.24,4.1699,17.23,7.47,23.7,14.0499,12.8999,13.12,16.46,42.41,8.11,58.8-7.0699,13.88-17.36,18.2799-31.66,24.4301-14.3101,6.1499-37.6499,6.3999-51.4099-.8901-18.9202-10.03-19.4401-39.96-26.9701-60.01-5.98-15.9299-17.7699-27.3499-30.9-37.8999-9.1399,6.0699-17.23,10.6-21.9099,10.4299-11.8901-.4299-15.3601,8.95-35.23,19.91-7.3201,4.0399-23.2101,12.62-42.8901,13.7899-9.9099.5901-21.4199-2.1599-44.4299-7.6599-28.95-6.9199-29.8101-9.38-36.77-7.66-15.72,3.91-15.7,17.63-38.29,30.64-8.1899,4.72-22.5599,12.99-30.6399,7.66-7.42-4.89-6.92-19.52-6.1301-42.89.4601-13.5,1.8101-16.52,0-24.51-.8999-3.99-4.0898-18.09-15.3199-26.05-8.9301-6.3199-14.5099-2.7999-32.17-6.1199-11.9199-2.25-27.52-5.1801-39.83-16.8501-.85-.8101-19.25-18.76-16.85-41.37,1.5601-14.6801,10.1699-15.13,10.72-29.1.27-6.86-1.73-8.45-13.78-38.3-7.52-18.62-8.5-22.36-7.6599-27.58,1.75-10.9,8.87-12.08,10.72-22.97,1.74-10.2401-1.99-24.27-10.8201-29.11-11.45-6.27-21.23,8.51-41.27,7.66-17.24-.73-37.2699-12.83-42.8899-30.64-1.0601-3.36-1.53-6.69-1.53-9.95,0-.47.01-.94.03-1.41.02-.47.05-.93.09-1.4q-.01-.01,0-.02c.03-.46.08-.91.14-1.37v-.03c.05-.42.11-.84.1799-1.25,0-.07.01-.14.03-.2.0601-.38.1201-.76.2-1.14.04-.21.0801-.41.1301-.62,4,5.59,8.96,11.19,15.24,16.47,7.1,5.96,17.6399,14.58,31.4099,14.4,10.2101-.13,13.0801-4.98,25.99-5.46,6.1801-.22,20.5901-.75,28.8301,8.43,7.8201,8.71,6.1499,21.77,4.9199,31.4-2.1899,17.16-8.5499,18.29-9.1899,31.41-.52,10.63,3.8301,19.34,12.53,36.76,10.87,21.78,16.6,23.96,18.11,36.77,1.6,13.5599-4.3199,15.35-1.53,25.28,4.9801,17.7899,27.9901,26.33,37.54,29.87,13.74,5.1,14.91,1.95,31.87,7.64,16.74,5.61,27.6899,9.2899,35.52,19.17,11.36,14.3199,7.12,30.2999,16.09,32.9299,4.42,1.3,7.3099-2.05,15.3199-5.36,11.22-4.64,20.66-4.3199,34.77-3.83,37.14,1.2899,40.79,16.9399,66.27,13.7899,5.3501-.66,31.4399-3.89,49.8501-21.2599,3.51-3.3201,8.4099-8.7201,16.8499-10.9102,4.3101-1.1199,10.8101-1.73,25.28,3.4001,12.65,4.5,26.76,9.51,39.8301,22.6399,14.3099,14.39,13.5316,33.4978,27.5717,44.4277,8.27,6.4501,22.0882,4.1223,30.6383-2.2977,5.61-4.22,6.6799-14.63,3.5701-22.21-3.9701-9.6801-12.8701-10.23-33.4401-21.4501-18.9401-10.3199-32.7899-18.1099-36.77-32.1699-.23-.8201-4.0299-14.91,3.0699-22.21,5.8801-6.05,13.8401-1.9,20.6801-8.4301,3.5699-3.41,3.29-6.36,6.5-19.28,3.78-15.23,5.67-22.85,9.58-28.97,5.9001-9.25,10.01-6.5399,23.3901-18.0399,18.73-16.1101,15.98-25.9601,29.49-30.9801,10.5499-3.93,17.75.02,24.48-6.9,3.33-3.41,6.1899-9.11,4.6099-13.79-1.5099-4.43-6.1599-5.41-11.6299-8.42-9.8-5.39-19.54-15.82-22.3301-27.58-3.1499-13.29,3.3801-24.92,4.6801-27.12,5.34-9.06,9.77-7.54,17.65-17.49,3.48-4.4,12.52-15.82,11.55-31.22-.2001-3.28-1.49-16.88-11.55-25.37-8.76-7.39-16.52-4.46-22.3301-12.92-3.4299-5-1.5599-7.24-5.8799-14.56-4.1401-7-8.0701-8.69-11.75-13.02-2.1602-2.54-3.8301-5.51-5.0701-8.59.01,0,.03.01.04.02.1399.08.28.16.4099.23.16.1.3201.18.48.26.1501.09.3101.17.4701.25.16.09.3199.16.47.23,1.4601.72,2.87,1.26,4.25,1.69l.5699.18c.1301.04.25.08.3801.11.21.0601.4099.1201.6199.1801.04.0099.0901.02.1301.03.24.07.49.14.73.2.5699.16,1.1399.3,1.71.44.28.07.5701.14.85.22,1.14.28,2.27.58,3.41.94.29.09.58.19.86.29.2899.1.58.2.87.31.51.19,1.03.4,1.55.64.71.32,1.4399.6801,2.1799,1.11.23.12.47.26.7.4.03.02.05.03.0801.05.29.18.59.37.88.5699.3199.21.65.44.98.6801.2899.21.59.4399.88.67.3401.26.6799.54,1.02.83,8.3101,7.0699,4.96,10.95,13.79,19.91,11.73,11.9,19.6899,7.13,27.75,16.85,1.6899,2.04,3.74,5.15,7.48,38.3,2.7,23.9,2.1,26.48.96,29.11-5.6899,13.07-18.14,11.74-22.4,24.51-2.7799,8.31-.7799,18.7,4.59,25.37,7.79,9.67,17.5801,5.24,26.04,14.46,6.4,6.97,10.0801,19.61,6.13,29.1Z"/>
      <path class="cls-8" d="M153.1802,705.8129c-5.6465-6.7705-3.8253-15.2587-3.5745-16.3405,1.9421-8.3752,9.735-15.6241,17.2238-15.3191,3.139.1278,7.2697,1.6256,7.7975,4.0851.531,2.4742-3.0264,3.8597-7.7975,10.2128-2.0305,2.7037-4.696,6.3197-5.9294,11.234-1.1841,4.7175-.6066,8.8712,0,11.4752-1.787-.6512-5.0323-2.125-7.7198-5.3475Z"/>
      <path class="cls-8" d="M376.3292,768.1107c-2.6628-8.4216,2.1534-15.9406,3.0638-17.3617,3.8147-5.9552,7.1136-5.0999,17.3617-12.7659,10.9135-8.1637,11.4581-12.3396,18.8936-14.298,5.2776-1.39,13.2219-1.4509,15.3192,2.4756,1.8652,3.4919-1.427,9.1405-4.5958,12.333-6.8766,6.928-13.6698,2.791-19.22,8.6808-4.5509,4.8292-1.1987,8.8998-6.3119,20.4255-2.6167,5.8984-5.3014,11.9502-10.2128,12.766-5.7703.9585-12.2273-5.707-14.2979-12.2554Z"/>
      <path class="cls-8" d="M623.9887,583.4156c-1.0553-4.2606-2.3514-9.4937,0-13.9432,4.4576-8.4351,19.1493-8.6145,19.9149-6.6383.533,1.3757-6.0968,2.7263-10.7681,9.807-5.624,8.5249-3.6329,18.116-5.5724,18.2782-1.6475.1378-3.3896-6.7574-3.5745-7.5037Z"/>
      <path class="cls-8" d="M706.7121,437.3256c-7.3422-9.1202-.3253-22.9772,0-23.5978,5.2046-9.9281,16.0786-14.5871,25.1963-14.5532,2.8237.0105,13.7584.0511,17.6974,7.6596,1.5232,2.9423,2.5699,8.1168,0,11.4042-4.5854,5.8655-15.3297-1.1271-22.1832,4.6809-6.7384,5.7105-1.9075,17.1782-7.6892,19.9149-3.9612,1.875-9.981-1.7321-13.0212-5.5086Z"/>
      <path class="cls-5" d="M160.9001,88.4512c-3.7587-15.3203,4.6814-27.9029,5.9294-29.7009,7.4753-10.7697,19.0283-15.3738,28.0529-16.2565,4.5497-.445,11.865-1.1605,17.702,3.7447,1.4252,1.1977,6.1039,4.8008,6.1277,10.5532.0023.5504-.0515,5.8254-3.7446,8.5222-4.927,3.5977-10.4976-1.6533-18.7234,0-7.5364,1.5146-12.1787,7.7949-13.9575,10.2012-10.0602,13.6094-3.0668,30.5578-7.4894,32-3.5322,1.1519-11.3232-8.5728-13.8971-19.0638Z"/>
      <path class="cls-5" d="M48.4993,176.9618c2.1825-3.9104,6.2144-11.1345,14.6383-13.9574,5.6155-1.8818,13.9314-2.0587,18.7234,2.7234,1.3949,1.392,3.6322,4.3428,2.7234,6.1276-1.1615,2.2812-6.3625.4973-14.7251,1.3618-3.4562.3572-9.229.954-13.8706,3.7446-9.9597,5.9881-10.8379,19.7495-11.9149,19.4699-.8997-.2335-.8684-9.9846,4.4255-19.4699Z"/>
      <path class="cls-5" d="M171.7333,264.1995c-.5979-11.0471-4.1095-11.2772-3.0637-16.9581,1.0184-5.5323,4.4564-5.8989,15.3191-18.5349,5.4595-6.3506,8.1892-9.526,9.8723-12.9362,4.8518-9.83,2.6757-15.9178,7.8298-19.3344,3.3966-2.2515,8.6195-2.4433,11.234-.0042,3.2844,3.0641,1.535,9.4247.6809,12.5301-1.2064,4.386-3.4235,8.6422-13.2766,19.7447-10.269,11.571-11.6429,11.2097-12.9362,15.3192-1.2611,4.0078-.0602,4.6875-.3405,20.1738-.167,9.2246-.6439,11.7907-2.7234,13.5283-3.0295,2.5316-8.5868,2.5744-11.234,0-2.4946-2.426-.941-5.7526-1.3618-13.5283Z"/>
      <path class="cls-5" d="M293.9461,159.5352c10.5939-7.6925,18.3735-13.3415,29.9575-15.5946,4.6753-.9094,10.2668-1.9307,17.0212,0,2.1605.6176,11.1687,3.3345,15.6595,11.5745,2.0087,3.6857,3.5093,9.2023,1.7021,10.5532-.4124.3082-1.6796.9099-10.2128-4.2953-6.4764-3.9506-7.798-5.5485-10.5531-7.054-6.2114-3.3942-12.7533-2.5175-19.0638-1.5869-18.829,2.7765-31.821,13.9061-32.3405,13.1302-.26-.3885,2.9794-3.2051,7.8297-6.7271Z"/>
      <path class="cls-5" d="M553.0099,48.2366c2.5052-9.519,4.3335-16.466,11.2341-21.5727,7.0336-5.2051,14.7913-5.1345,17.8723-5.1064,7.2399.0659,12.0636,2.5972,21.7112,7.6596,6.8666,3.6031,8.8088,5.7678,9.9484,8.1713,1.412,2.978,2.5002,8.2387,0,10.8482-2.9619,3.0912-9.6791,1.1256-20.9362-2.1685-10.7294-3.1396-10.8607-4.5906-13.7872-3.8918-7.9645,1.9018-7.8193,12.8458-18.3829,16.5739-1.252.4418-5.4932,1.9386-7.6597,0-.8055-.7208-2.0837-2.5961,0-10.5136Z"/>
      <path class="cls-3" d="M205.0099,107.608c-6.3014-3.2488-18.1494.4445-21.4468,9.6942-2.4384,6.8401.6738,14.2657,5.7644,18.383,4.0514,3.2768,10.8278,5.6486,15.6824,3.0638,9.174-4.8846,9.3383-26.3264,0-31.141Z"/>
      <path class="cls-3" d="M270.8824,193.1425c-4.3651-5.775-15.4954-8.0494-22.2128-2.1202-6.9816,6.1623-4.714,17.2296,0,23.1033.5872.7316,5.3114,6.6182,11.1063,5.9614,9.2078-1.0436,17.7004-18.2205,11.1064-26.9444Z"/>
      <path class="cls-3" d="M410.2866,166.3008c-4.6177-2.8694-10.623-.8096-13.0212,3.2155-3.1538,5.2933.4257,13.1547,6.1515,14.4242,3.7894.8402,7.9935-1.3232,9.9336-4.8362,2.2864-4.1401,1.3696-10.0485-3.0638-12.8035Z"/>
      <path class="cls-3" d="M476.9249,187.5423c-3.5963-5.3768-12.0557-7.4708-16.8511-3.4207-4.7355,3.9995-3.6487,12.0905,0,16.67,2.6508,3.327,7.7983,6.2372,12.2554,4.5957,5.938-2.187,8.6858-11.7299,4.5957-17.845Z"/>
      <path class="cls-3" d="M332.1589,169.5164c-1.9045-3.0719-9.3969-3.9955-13.0212,0-4.423,4.8759-.1901,13.8856,3.4619,14.6053,4.5278.8923,12.3297-10.137,9.5593-14.6053Z"/>
      <path class="cls-3" d="M211.9522,243.7226c-5.028-2.475-11.9622.6744-14.6176,6.0142-2.2356,4.4955-1.8129,11.2969,3.0796,14.4626,4.8795,3.1573,11.3372.8427,14.4275-3.0957,4.2017-5.3545,2.8447-14.5585-2.8895-17.3812Z"/>
      <path class="cls-3" d="M176.6696,302.6639c-3.4321-.1852-7.974,4.6708-8.1932,12.2553,5.6324,4.2507,12.2338,3.1345,14.2408,0,2.55-3.9824-1.8011-12.0262-6.0476-12.2553Z"/>
      <path class="cls-3" d="M78.627,317.7043c-2.8928-1.4258-9.1541,2.375-8.7677,6.4064.3452,3.6031,5.9064,6.409,8.7677,4.8853,3.3978-1.8094,3.0801-9.7736,0-11.2917Z"/>
      <path class="cls-3" d="M189.3276,380.7916c-3.8956.2177-7.1547,6.7731-6.6104,12.2553.545,5.4893,5.0428,11.3094,8.9418,10.7234,3.7087-.5575,5.9447-6.7719,5.6757-11.4893-.3082-5.4053-4.0685-11.7095-8.0071-11.4894Z"/>
      <path class="cls-3" d="M64.2134,187.5423c-2.6049-1.4215-5.6271-1.4565-7.7992,0-3.4506,2.3138-4.2273,8.0377-1.5319,10.4408,2.343,2.0889,6.9996,1.3925,9.3311-1.5472,1.9441-2.4512,1.9904-6.1078,0-8.8936Z"/>
      <path class="cls-10" d="M524.4142,239.4011c-7.4731-6.132-19.6604-3.8328-25.226,4.3215-5.7966,8.493-2.7815,20.9512,5.6722,25.3976,6.5089,3.4235,14.7208,1.2973,19.5537-3.4442,6.8618-6.7321,7.948-19.7532,0-26.275Z"/>
      <path class="cls-10" d="M525.1802,166.8549c-4.5139-.6161-9.4929,2.4951-12.0948,7.6876.3143,10.1348,6.6317,16.6791,12.0948,16.4799,3.8455-.1403,7.125-3.6165,8.4255-6.9006,2.6509-6.6944-1.4471-16.3142-8.4255-17.2668Z"/>
      <path class="cls-10" d="M529.9754,329.4199c-3.9319-2.6363-9.4363-2.2044-13.2207,0-8.0575,4.6934-10.4685,18.674-3.6693,24.5632,4.4423,3.8477,12.104,3.6246,16.89,0,7.6804-5.8166,7.1405-19.7755,0-24.5632Z"/>
      <path class="cls-10" d="M536.6696,415.2597c-2.6146-4.5739-8.7148-5.6697-12.9175-3.8298-6.0024,2.6278-8.5172,11.4117-4.6996,16.0851,3.4203,4.187,11.1205,4.0914,15.3662,0,2.9424-2.8354,4.6719-8.0201,2.2509-12.2553Z"/>
      <path class="cls-10" d="M303.8185,488.0256c-3.7793-4.1289-12.5848-4.9093-17.7168,0-3.6849,3.5251-4.3043,8.863-3.1538,12.9326,1.7722,6.2689,8.131,10.8973,13.2109,10.0462,8.0568-1.3499,13.5116-16.5853,7.6597-22.9788Z"/>
      <path class="cls-10" d="M417.5207,523.8555c-2.6144-1.7892-6.3513-1.9292-8.8511,0-3.6146,2.7897-3.8151,9.267,0,12.2552,3.5415,2.774,9.4449,1.6813,11.5745-2.3829,1.7659-3.3702.3905-7.7412-2.7234-9.8723Z"/>
      <path class="cls-10" d="M204.0738,332.8767c-3.5664-1.4883-8.5845,1.5263-9.8723,5.7872-1.2594,4.1667,1.0669,9.4641,4.9362,10.2327,3.1538.6265,6.2073-1.9794,7.5265-4.4454,2.0911-3.9089,1.1808-10.0007-2.5903-11.5745Z"/>
      <path class="cls-10" d="M144.1589,325.3873c-3.8064-.0209-7.7178,4.8089-7.1489,9.5319.4156,3.4508,3.2703,7.237,7.1489,7.2742,3.2805.0314,5.9227-2.632,6.8086-5.2316,1.6904-4.9604-2.3799-11.5501-6.8086-11.5745Z"/>
      <path class="cls-1" d="M206.6641,534.749c-7.0552-5.8705-17.855-4.153-23.1884,2.8984-5.8336,7.7128-3.2601,19.338,4.6831,23.9102,6.3191,3.6372,14.7135,2.0492,19.6039-3.1924,5.9419-6.3687,6.179-17.5607-1.0986-23.6162Z"/>
      <path class="cls-1" d="M147.5632,464.9618c-2.0793-1.1861-6.1263.7266-6.8085,3.7666-.7382,3.2896,2.7017,6.8398,5.1063,6.4462,1.975-.3233,3.0697-3.2769,3.2671-5.2031.0565-.5519.3373-3.9246-1.5649-5.0096Z"/>
      <path class="cls-1" d="M263.3079,553.4724c-1.6019-3.2687-5.8419-5.5759-9.8724-4.3008-4.2233,1.3362-6.3588,6.0179-5.4468,10.088.9453,4.2189,5.0465,7.2521,8.8511,6.8086,5.2209-.6086,8.8925-7.6489,6.4681-12.5958Z"/>
      <path class="cls-1" d="M300.4142,600.4512c-1.7186-4.2496-6.5658-6.0343-10.2128-4.766-5.0667,1.762-7.063,9.1543-3.7446,13.2766,2.1742,2.701,6.4108,3.7256,9.8723,2.0426,3.7714-1.8336,5.7432-6.4532,4.0851-10.5532Z"/>
      <path class="cls-1" d="M363.393,551.7704c-3.3712-4.0131-9.6239-3.8883-13.5251-2.5988-6.4095,2.1185-12.2168,9.2798-10.3047,15.8752,1.1909,4.1078,5.0663,6.9272,8.8511,7.8298,6.105,1.4558,10.7604-2.3652,11.5745-3.0638,4.9668-4.2618,7.6353-13.006,3.4043-18.0425Z"/>
      <path class="cls-1" d="M386.8824,600.7916c-2.6157-3.7842-10.1514-3.7897-12.5958,0-1.7781,2.7566-.4321,6.8544,1.7021,9.1915.4534.4965,3.1099,3.287,6.1277,2.7234,4.2668-.797,7.4927-7.9702,4.766-11.9149Z"/>
      <path class="cls-1" d="M424.3292,567.7704c-1.1255-3.7899-5.5774-5.7408-9.1915-4.2418-3.7854,1.5701-5.2893,6.3596-3.4043,9.6761,1.4648,2.5774,4.6949,3.7699,7.4894,3.0763,3.5354-.8776,6.2269-4.7377,5.1064-8.5106Z"/>
      <path class="cls-1" d="M490.7121,522.4606c-6.0896-.9989-13.7631,1.3416-16.8511,7.5934-3.6825,7.4554,1.6083,15.5082,5.3617,19.1177,1.2744,1.2255,8.9022,8.2191,16.9727,5.0031,6.6199-2.6379,9.2845-10.4506,8.6652-16.5272-.755-7.4081-6.5647-13.943-14.1484-15.1869Z"/>
      <path class="cls-1" d="M550.4568,464.606c-4.6627-3.5317-11.639-1.6363-14.9218,2.8268-2.665,3.6233-3.1298,9.2572,0,12.9333,3.7844,4.4449,11.455,4.4193,15.6876,0,4.218-4.4039,4.0255-12.1309-.7659-15.7601Z"/>
      <path class="cls-1" d="M567.3079,375.3475c-3.9988-.3679-11.0016.5734-13.0801,5.4385-2.0287,4.7485,1.9995,10.0378,3.1226,11.5126,1.126,1.4786,7.3218,9.115,15.3192,6.8758,5-1.3999,9.229-6.2469,9.1914-11.4891-.0527-7.3614-8.4922-11.7801-14.5531-12.3377Z"/>
      <path class="cls-1" d="M612.9098,323.4092c-4.7241-5.701-15.5668-4.6444-18.0275,0-1.7231,3.2524.8307,7.9501,3.0637,10.3812,3.6288,3.9507,10.9296,6.8359,14.9637,3.3416,3.5575-3.0815,3.1652-9.9031,0-13.7228Z"/>
      <path class="cls-1" d="M604.8746,446.6639c-3.0242-3.9674-10.0306-4.5833-14.588,0,.63.929,9.1415,13.3099,13.541,11.4894,2.6903-1.1132,4.0077-7.6052,1.047-11.4894Z"/>
      <path class="cls-1" d="M561.1802,651.9405c-4.1714-3.2943-13.562,1.1313-13.7872,5.3617-.1687,3.1692,4.7479,7.3213,9.5319,6.6383.254-.0363,4.802-.7634,6.1277-4.766.8798-2.6564.0073-5.7496-1.8723-7.234Z"/>
      <path class="cls-2" d="M601.0099,497.4784c-5.1936-3.1772-16.9603,3.9303-16.3403,10.2068.3529,3.5726,4.7582,7.2693,9.6466,7.1489,5.0876-.1252,8.795-4.3378,9.5114-8.6779.4696-2.8452-.1333-7.0357-2.8176-8.6779Z"/>
      <path class="cls-2" d="M615.433,657.404c-2.8212-3.0934-7.9573-3.8409-11.6055-2.1444-6.235,2.8995-6.653,12.2543-4.8601,17.8724.1814.5685,2.8066,8.4932,7.5924,8.6808,4.9055.1923,8.15-7.8987,8.8732-9.7021,1.2283-3.0631,4.0963-10.2152,0-14.7067Z"/>
      <path class="cls-2" d="M567.7634,700.1958c-2.4097-6.4-10.7043-8.9927-16.7959-6.1276-5.1576,2.4258-8.8258,8.806-6.6383,14.8085,2.1571,5.9191,8.9084,8.4521,14.2979,7.1489,6.6862-1.6167,11.6243-9.2219,9.1364-15.8298Z"/>
      <path class="cls-2" d="M392.1589,654.3723c-3.5721-5.488-13.7046-6.0034-16.6233-1.6658-2.0603,3.0619-.4595,8.4431,2.8361,11.3086,3.8846,3.3778,10.7791,3.8295,13.7872,0,2.1576-2.7467,1.7424-6.9658,0-9.6428Z"/>
      <path class="cls-2" d="M261.9461,649.8093c.4836-2.9069,1.9622-11.7941-3.5745-15.4858-4.9252-3.2839-13.0413-.8831-16.851,4.5958-3.371,4.8479-2.7094,11.1548,0,15.453,2.9802,4.728,9.4515,8.6333,14.4054,6.5044,4.5005-1.9341,5.4894-7.8778,6.02-11.0674Z"/>
      <path class="cls-2" d="M228.2441,590.9214c-2.3645-2.3931-10.9169.535-11.2341,4.3632-.2333,2.814,3.9331,6.7203,7.6229,5.8475,4.363-1.032,5.6268-8.1708,3.6112-10.2107Z"/>
      <path class="cls-2" d="M330.3716,632.8307c-2.3895-1.2379-8.1373,1.5807-8.6808,6.0886-.4894,4.0594,3.3643,8.4702,8.6808,8.2323,2.5448-7.2668,2.377-13.0895,0-14.3209Z"/>
      <path class="cls-2" d="M622.6678,387.4293c-3.1262-.8884-8.5242,5.6655-9.7579,12.1533-.6047,3.1798-.7892,9.3939,2.5232,10.9986,2.2969,1.1127,5.4558-.3876,7.2347-1.9597,6.3446-5.6069,4.0809-20.0325,0-21.1921Z"/>
      <path class="cls-10" d="M755.7333,249.7368c-6.0249-6.3077-17.6305-6.9091-23.825,0-5.2822,5.8916-4.714,15.1077,0,21.0661,4.7653,6.0232,13.5426,8.434,19.9952,5.0525,8.7283-4.574,11.0128-18.5983,3.8297-26.1186Z"/>
      <path class="cls-10" d="M703.3754,244.7779c-4.7644-5.1232-12.3405-3.9464-16.5782-1.913-.4396.2109-8.7002,4.3218-8.4255,11.4056.2495,6.4365,7.3569,10.4594,12.502,11.4055,1.2463.2292,7.5912,1.3959,12.0088-2.8419,4.6317-4.4432,5.2161-12.9774.493-18.0562Z"/>
      <path class="cls-10" d="M744.0799,297.3022c-2.1887-6.6112-10.0717-11.8643-16.8097-9.4617-7.0769,2.5234-9.0911,12.1371-6.7709,18.7202,1.7534,4.9751,6.6709,10.1727,12.2554,9.8904,7.5734-.3828,14.1127-10.7294,11.3252-19.1489Z"/>
      <path class="cls-10" d="M368.2129,69.2639c-5.319-2.8327-15.7445,3.0183-15.8677,10.5064-.0713,4.3323,3.3064,9.1819,7.9338,9.9575,5.7719.9673,10.896-4.8384,11.714-10.316.5249-3.515-.4987-8.4003-3.7802-10.1478Z"/>
      <path class="cls-10" d="M567.9887,123.1479c-3.8867-3.0781-10.6355-.975-13.9574,3.0905-2.6353,3.2252-4.0624,8.8459-1.0214,12.9362,1.9832,2.6674,5.4907,4.1786,8.8511,3.6685,5.9213-.8988,7.905-7.5455,8.1703-8.4344.1448-.4849,2.2404-7.8688-2.0426-11.2607Z"/>
      <path class="cls-10" d="M180.2994,687.6001c-2.7733-1.4663-7.5709,1.8563-9.9277,5.3083-2.7981,4.0984-2.2357,8.4963-2.0425,9.6704.0999.6069,1.1875,7.2159,4.766,7.8297,3.1924.5476,6.1176-4.062,7.2042-5.7744.4365-.688,3.4928-5.6703,2.3276-11.9819-.4094-2.2175-.7817-4.2349-2.3276-5.0521Z"/>
    </g>
  </g>
</svg>