<?xml version="1.0" encoding="UTF-8"?>
<svg id="Capa_2" xmlns="http://www.w3.org/2000/svg" viewBox="0 0 784.1348 806.358">
  <defs>
    <style>
      .cls-1 {
        fill: #f47731;
      }

      .cls-2 {
        fill: #d85319;
      }

      .cls-3 {
        fill: #fcb28d;
      }

      .cls-4 {
        fill: #ed7743;
      }

      .cls-5 {
        fill: #ff8c42;
      }

      .cls-6 {
        fill: #fc9b65;
      }

      .cls-7 {
        fill: #c64e12;
      }

      .cls-8 {
        fill: #e56525;
      }

      .cls-9 {
        fill: #d8601d;
      }
    </style>
  </defs>
  <g id="Capa_1-2" data-name="Capa_1">
    <g>
      <g>
        <path class="cls-5" d="M569.1298,735.2576c-10.916,0-20.957-2.1357-28.2739-6.0117-15.2622-8.0908-19.6372-26.2705-23.8677-43.8525-1.6133-6.7031-3.1367-13.0342-5.209-18.5518-5.3833-14.3398-15.9595-24.832-26.9766-33.917-10.1821,6.5439-16.6611,9.3701-21.3618,9.3701-.1426,0-.2832-.0029-.4219-.0078-.2075-.0078-.4136-.0117-.6147-.0117-4.8315,0-7.7539,2.126-13.9038,6.9326-4.4453,3.4746-9.9775,7.7998-18.375,12.4316-7.0952,3.916-23.7139,13.0879-44.7964,14.3418-.9644.0576-1.9614.0869-2.9619.0869-9.8921,0-21.5742-2.792-42.7812-7.8613-10.9312-2.6133-18.0034-4.6279-22.6831-5.9609-4.9214-1.4014-7.3911-2.1045-9.2461-2.1045-.7769,0-1.5884.1182-2.7144.3965-6.6279,1.6494-9.7744,5.2979-14.5376,10.8223-4.8394,5.6113-10.8618,12.5957-22.5869,19.3486-6.9009,3.9775-17.3315,9.9883-26.4937,9.9893-3.3989,0-6.3833-.832-8.8701-2.4727-9.519-6.2725-9.0044-21.5078-8.1509-46.748.1519-4.46.397-7.7959.5938-10.4756.4111-5.6035.5991-8.1602-.4834-12.9385-2.4556-10.8857-7.0088-18.748-13.5337-23.373-4.355-3.082-7.4619-3.2354-13.6519-3.54-4.2402-.209-9.5176-.4688-16.7476-1.8281-12.2075-2.3047-28.8433-5.4443-42.0942-18.0068-.8638-.8232-20.8706-20.2275-18.229-45.1104.8823-8.2998,3.7764-12.7227,6.3296-16.624,2.312-3.5332,4.1382-6.3232,4.3687-12.1777.146-3.7061-.3765-5.0791-5.1782-16.4482-1.9854-4.7002-4.7036-11.1367-8.2778-19.9912-7.3921-18.3027-9.0107-23.2637-7.9302-29.9795,1.0518-6.5518,3.7734-10.2354,6.1748-13.4863,2.1289-2.8809,3.8105-5.1572,4.5518-9.5225,1.4502-8.5352-1.7036-20.6582-8.5469-24.4092-1.2461-.6826-2.4502-1.001-3.7886-1.001-2.9116,0-6.3813,1.5293-10.3989,3.2998-6.0127,2.6504-13.4961,5.9482-23.2515,5.9492-.6118,0-1.229-.0127-1.8589-.0391-17.8501-.7559-40.3862-12.8516-46.9902-33.7812-1.1538-3.6582-1.7388-7.4619-1.7388-11.3047,0-.5332.0117-1.0664.0342-1.6016.019-.4395.0449-.8721.0791-1.3096.0034-.1572.0151-.3135.0347-.4678.0327-.4189.0776-.833.1309-1.252.0034-.0439.0078-.0869.0127-.1289.0498-.4209.1089-.8408.1758-1.2549.019-.1865.0483-.3711.0879-.5537.0625-.3906.1284-.7817.21-1.1733.0308-.1636.0728-.3711.1235-.5942.0171-.0923.0376-.1934.0635-.3018.0659-.3267.1406-.6533.2236-.98.1704-.7422.3823-1.5288.665-2.4688.0767-.2622.1626-.543.2603-.8364.4771-1.5142,1.0737-3.1108,1.7515-4.6802.1133-.2837.2368-.5586.3716-.8428,2.2393-4.999,5.3779-10.062,9.3286-15.0483.3013-.3843.6167-.7759.9321-1.1567.5527-.6758,1.1235-1.3516,1.7041-2.0171.0171-.0195.9863-1.1343.9863-1.1343l.001.0015c.0747-.0869.1523-.1719.2314-.252.8438-.9385,1.6978-1.8535,2.6055-2.7935,6.0747-6.2734,11.4531-10.3013,12.4697-11.0449,7.0298-5.1494,18.7861-13.7607,32.1816-13.7607,2.269,0,4.5234.25,6.6997.7427,9.0679,2.0527,14.6079,7.6802,19.4956,12.645,4.7817,4.8574,8.5586,8.6943,14.7104,8.6943,8.3179-.0161,14.3296-6.8242,14.9878-7.6001,8.0874-9.5308,3.7881-23.1392,3.7437-23.2754-1.3188-4.0815-3.042-5.7417-5.4268-8.0396-2.5181-2.4258-5.6514-5.4448-8.2188-11.5112-4.3296-10.2251-5.3726-25.0352,2.0571-35.0708,3.5459-4.7886,7.4629-6.3716,11.6099-8.0483,2.3325-.9424,4.9756-2.0112,8.0854-3.8618,8.4624-5.0376,15.5615-13.0767,21.104-23.8965,3.4824-11.0654,3.4995-20.709.0488-28.6655-2.7827-6.4141-6.8364-9.4443-13.5518-14.4639-5.0923-3.8066-11.4302-8.5439-19.2017-16.3149-13.3857-13.3755-21.4556-21.4385-24.2007-34.4214-3.4546-16.3511,3.0605-34.1416,19.3652-52.8789,21.2017-24.3115,42.9873-29.4087,57.5347-29.4087,2.0049,0,4.043.0967,6.0566.2871,26.8003,2.5273,43.1479,20.686,47.52,26.1909,15.2734,19.1826,16.2544,42.665,16.2959,47.1777.0581,6.0083-.6523,10.6167-1.2231,14.3193-.8525,5.5288-1.3218,8.5747.7744,12.8516,3.6982,7.5498,12.915,13.4507,22.4131,14.3506.7285.0693,1.4297.1045,2.085.1045,4.2661,0,7.3042-1.4849,12.8203-4.1807,5.0752-2.48,12.0259-5.8765,23.0977-9.5098,11.8662-3.8916,18.8901-6.0933,25.2681-6.0933,3.0508,0,5.8242.5278,8.4785,1.6138,6.0601,2.4731,8.8101,6.2979,11.4697,9.9966,2.4082,3.3501,4.8989,6.814,10.5874,10.2168,2.6494,1.5938,9.665,5.8125,17.9692,5.8125,1.1978,0,2.3901-.0903,3.5444-.2681,3.9473-.6099,6.0122-2.0146,8.8706-3.9585,3.0464-2.0723,6.8379-4.6514,13.5171-6.6289,2.5327-.749,8.4297-2.4932,15.4165-2.4932,2.8809,0,5.6719.2983,8.2964.8867,9.7153,2.1782,14.4365,7.7612,18.6016,12.687,3.4316,4.0586,6.6733,7.8921,12.8237,10.5415,4.1577,1.7925,8.7764,2.7012,13.7285,2.7012,7.1797,0,14.4644-1.9561,20.5117-5.5088,13.3247-7.8179,17.8208-21.6265,19.3149-29.1621,1.8848-9.5195-.1538-15.1968-2.7354-22.3843-2.1406-5.9604-4.5669-12.7163-5.0059-22.5015-1.0303-23.146,8.4463-53.0488,31.6855-64.0117,5.9053-2.7866,12.3418-4.1997,19.1313-4.1997,24.2559,0,46.104,18.1069,48.5156,20.1714,22.3628,19.0059,25.6846,36.7495,24.5308,48.2861-1.5498,15.5562-11.6519,26.2246-16.5068,31.3521-7.4844,7.8916-13.9614,11.0068-20.8188,14.3052-5.0112,2.4102-10.1929,4.9023-16.5581,9.6045-7.146,5.2739-9.5322,9.2651-12.0586,13.4912-2.6821,4.4858-5.7217,9.5708-13.9995,15.6221-4.4453,3.252-8.3257,5.4243-11.4434,7.1699-5.3052,2.9702-7.4912,4.2939-8.3301,7.2759-1.8135,6.437,3.9365,14.7314,7.0259,19.1875,3.7256,5.3867,6.9004,7.7217,9.7012,9.7822,1.1753.8643,2.2852,1.6807,3.3281,2.6406,2.2529,2.0952,3.666,4.4243,4.4634,7.3452,1.978,7.2271-1.0918,12.6914-3.8003,17.5117-2.4731,4.4019-4.6089,8.2031-3.7559,13.6128.3857,2.4487,1.354,4.9014,2.8789,7.291l.0874.1318c.0459.0698.0889.1406.1387.2075.0376.0513.0952.1313.1309.1841,2.4429,3.6206,5.5815,6.2461,7.4565,7.8149.332.2842.6221.5151.9111.7383.666.5161,1.2441.9312,1.7764,1.2754.3345.2256.5972.3882.8511.5439.0278.0176.4429.2705.4429.2705,0,0,.4727.2656.5562.3174l.1025.0488c.1055.0522.2085.1089.3091.1694,0,0,.2954.1494.3633.188,0,0,.2207.0991.2505.1138,1.1436.564,2.3208,1.0322,3.5991,1.4307l.7139.2241c.0776.0176.4731.1333.4731.1333l.2021.0586s.1826.0459.2271.0586c.187.0542.3823.1094.5688.1562.041.0103.082.021.123.0327.521.146,1.0425.2734,1.5635.4014l.1724.043c.2515.0625.5063.1265.7559.1963,1.3882.3418,2.5391.6602,3.6157,1,.3276.1016.6792.2222,1.0186.3438.3164.1089.6372.2202.958.3423.6455.2402,1.2549.4922,1.8325.7583.8877.4004,1.709.8174,2.4771,1.2598.2847.1523.5786.3228.8613.4951.0181.0107.1128.0698.1128.0698.3345.208.6787.4268,1.0137.6567.3662.2407.7427.5034,1.1187.7769.334.2412.6895.5132,1.0327.7861.335.2554.7373.585,1.1396.9282,5.0039,4.2573,6.5752,7.8394,7.9614,10.9995,1.208,2.7544,2.3491,5.356,6.1143,9.1763,5.2979,5.375,9.479,6.7856,13.9058,8.2793,4.6138,1.5571,9.3853,3.167,14.103,8.8569,2.3223,2.8032,4.5142,5.4497,8.4878,40.668,2.8164,24.9336,2.187,27.7812.6172,31.4033-3.3291,7.6484-8.5483,11.1182-13.1523,14.1787-4.1519,2.7607-7.4316,4.9404-9.1084,9.9668-2.2422,6.7031-.6323,15.585,3.8267,21.123,3.0767,3.8193,6.4736,4.7686,10.7744,5.9707,4.7212,1.3203,10.0728,2.8154,15.0767,8.2695,7.0264,7.6533,11.8574,22.126,6.9683,33.8721-3.4907,8.3994-10.3711,11.3135-17.6553,14.3994-7.2598,3.0742-15.4883,6.5596-24.6074,16.0908-1.4678,1.5332-2.4736,2.7227-3.748,4.2285-1.7778,2.1006-3.9902,4.7158-8.4731,9.5205-4.5273,4.8613-11.373,12.2109-18.689,18.6816-9.8804,8.751-16.4839,12.2344-21.3057,14.7783-4.3462,2.293-6.3418,3.3457-8.3447,6.9482-.0308.0596-.0625.1191-.0942.1777.002-.0039.0186-.042.0371-.084-.0229.0518-.0469.1045-.0718.1562-.957,1.9814-.8394,5.4932-.7148,9.2109.147,4.3828.3135,9.3506-1.1079,14.2148-2.7998,9.54-10.8926,15.5293-24.6836,18.2324,1.6313,3.1709,4.7065,7.5361,8.0498,9.0791,5.8799,2.7168,12.5391,4.6279,19.5889,6.6514,8.0781,2.3193,16.4312,4.7168,23.9272,8.5088,1.7197.8711,3.5308,1.7295,5.2817,2.5596,6.8613,3.2529,13.9565,6.6162,19.5952,12.3506,14.0566,14.2969,18.3872,45.3984,8.9111,63.998-7.7915,15.2959-19.2656,20.2305-33.792,26.4785l-.1001.043c-7.4487,3.2012-17.0439,4.9639-27.02,4.9639Z"/>
        <path class="cls-3" d="M578.4438,9.0001c22.6188-.0002,43.2559,17.0925,45.5883,19.0894,4.93,4.19,25.2699,21.52,22.98,44.42-1.4,14.05-10.6801,23.83-15.32,28.73-12.1201,12.78-21.2198,11.88-36.7599,23.36-15.65,11.55-10.8701,18.01-26.04,29.1-11.77,8.61-19.3001,9.22-21.45,16.86-2.3801,8.45,4.02,17.72,7.66,22.97,5.7199,8.27,10.54,10.28,13.68,13.17,1.43,1.33,2.5199,2.84,3.17,5.22,3.03,11.07-9.82,16.95-7.6601,30.64.54,3.43,1.8901,6.44,3.53,9.01.1401.21.27.42.4201.62,2.78,4.12,6.28,7.06,8.2999,8.75.3501.3.7001.58,1.05.85.71.55,1.4001,1.05,2.0801,1.49.31.21.6299.41.94.6l.01.01c.1699.1.34.2.5099.31.01,0,.03.01.04.02.1399.08.28.16.4099.23.1602.1.3201.18.48.26.1501.09.3101.17.4701.25.16.09.32.16.47.23,1.46.72,2.8701,1.26,4.25,1.69l.5699.18c.1301.04.25.08.3801.11.21.06.41.12.6199.18.0401.01.0901.02.1301.03.24.07.49.14.73.2.5699.16,1.1399.3,1.71.44.28.0699.57.14.85.22,1.14.28,2.27.58,3.41.94.29.09.58.19.86.29.2899.1.5799.2.87.31.51.19,1.03.4,1.55.64.71.32,1.44.68,2.18,1.11.2299.1201.4698.26.6999.4.03.02.0501.03.0801.05.29.18.59.37.88.57.3199.21.65.44.98.68.2899.21.5899.44.88.67.3401.2599.6799.54,1.02.83,8.31,7.07,4.96,10.95,13.79,19.91,11.73,11.9,19.69,7.13,27.75,16.85,1.69,2.04,3.7401,5.15,7.48,38.3,2.7,23.9001,2.1,26.48.96,29.11-5.69,13.0701-18.14,11.74-22.4,24.51-2.78,8.3101-.78,18.7,4.5899,25.37,7.7901,9.67,17.5801,5.24,26.0401,14.46,6.4,6.9701,10.08,19.6101,6.13,29.1001-5.6602,13.62-22.14,9.0199-41.36,29.11-3.61,3.77-4.49,5.4601-12.2599,13.7899-4.4901,4.8201-11.2802,12.1001-18.38,18.3801-18.98,16.8099-25.32,13.34-30.64,22.98-.07.1399-.15.27-.21.4099-2.8201,5.8401.3999,15.6001-2.0901,24.1201-2.1099,7.1899-8.2899,13.5-25.6599,15.7999-2.0201.26,3.79,13.3199,11.46,16.86,13.18,6.0901,29.9499,8.3,43.3701,15.0901,8.2399,4.1699,17.2299,7.47,23.6999,14.0499,12.8999,13.12,16.46,42.41,8.11,58.8-7.07,13.88-17.36,18.2799-31.66,24.4301-6.9839,3.0013-16.1206,4.5978-25.2427,4.5978-9.5693,0-19.1227-1.7556-26.1674-5.4879-18.9201-10.03-19.44-39.96-26.9701-60.01-5.9799-15.9299-17.7699-27.3499-30.9-37.8999-8.9731,5.9592-16.935,10.4346-21.6509,10.4346-.0876,0-.1736-.0016-.259-.0046-.2627-.0095-.5221-.0143-.7768-.0143-11.2754-.0004-15.0223,9.2064-34.4532,19.9243-7.32,4.0399-23.2101,12.62-42.8901,13.7899-.8819.0525-1.7779.0786-2.6921.0786-9.3589,0-20.7755-2.7279-41.7378-7.7385-23.0342-5.5059-28.2858-8.1884-32.976-8.1885-1.2046,0-2.3719.177-3.7941.5284-15.7199,3.91-15.6999,17.63-38.29,30.64-6.3139,3.6388-16.302,9.3881-24.2483,9.3881-2.361,0-4.5407-.5071-6.3916-1.728-7.42-4.89-6.92-19.52-6.1301-42.89.4601-13.5,1.81-16.52,0-24.51-.8999-3.99-4.0899-18.09-15.32-26.05-8.93-6.3199-14.5099-2.7999-32.17-6.1199-11.9199-2.25-27.52-5.1801-39.83-16.8501-.8499-.8101-19.25-18.76-16.8499-41.37,1.56-14.6801,10.1699-15.13,10.7199-29.1.27-6.86-1.73-8.4501-13.78-38.3-7.52-18.62-8.5-22.36-7.6599-27.58,1.75-10.9,8.87-12.0801,10.72-22.97,1.7399-10.2401-1.99-24.27-10.8201-29.1101-2.0134-1.1025-3.9765-1.5542-5.9515-1.5543-8.9406-.001-18.1519,9.2498-33.6521,9.2498-.5479,0-1.1026-.0115-1.6665-.0354-17.24-.73-37.2699-12.83-42.8899-30.64-1.0601-3.36-1.53-6.69-1.53-9.95,0-.47.01-.94.03-1.41.02-.47.05-.93.0899-1.4q-.01-.01,0-.02c.0301-.46.08-.91.1401-1.37v-.03c.05-.42.1099-.84.1799-1.25,0-.07.01-.14.03-.2.0601-.38.1201-.76.2-1.14.04-.21.0801-.41.1301-.62.01-.06.02-.13.04-.19.06-.31.1299-.62.21-.93.1699-.75.3799-1.5.6-2.23.0699-.2401.14-.47.2199-.71.4701-1.49,1.0201-2.95,1.6401-4.38.09-.23.1899-.45.3-.68,2.3099-5.17,5.45-9.95,8.77-14.14.2899-.37.58-.73.8699-1.08.54-.66,1.0801-1.3,1.6301-1.93q.01-.01.02-.02c.3199-.38.66-.76.98-1.13.02-.03.05-.05.08-.08.87-.97,1.73-1.89,2.59-2.78,5.8-5.99,10.9199-9.83,11.89-10.54,6.7819-4.9677,17.5956-12.8917,29.5241-12.8917,1.8784,0,3.7835.1963,5.7058.6317,16.336,3.6968,19.8545,21.4501,35.2011,21.4501.0131,0,.0257,0,.0389,0,10.38-.02,17.4901-8.14,18.38-9.19,9.5801-11.29,4.88-26.69,4.5901-27.58-3.25-10.06-9.26-9.23-13.78-19.91-3.8401-9.07-4.77-22.13,1.53-30.64,4.5399-6.13,9.5399-5.46,18.3799-10.72,6.8201-4.06,15.5801-11.45,22.98-26.05,2.7101-8.46,5-20.64,0-32.17-5.6099-12.93-15.7-14.17-33.7-32.17-12.9099-12.9-20.51-20.49-22.9799-32.17-4.75-22.48,13.15-43.01,18.38-49.02,4.5587-5.2275,24.2751-27.837,54.1174-27.837,1.841,0,3.7157.0858,5.6326.267,26.4,2.49,41.95,21.4,44.42,24.51,14.77,18.55,15.29,41.18,15.32,44.42.14,14.5-4.4401,20.03.01,29.11,4.5999,9.39,15.5799,15.86,26.0299,16.85.881.0837,1.7139.1243,2.5096.1243,9.9435,0,14.2099-6.3312,37.3204-13.9144,10.916-3.5799,18.058-5.8687,23.8648-5.8687,2.4331,0,4.6315.4017,6.7754,1.2787,9.8499,4.02,8.63,12.24,21.45,19.91,2.8908,1.738,10.7701,6.4507,20.2802,6.4507,1.3791,0,2.7923-.0991,4.2298-.3207,9.71-1.5,10.72-7.09,22.98-10.72,2.3958-.7086,7.7913-2.3083,14.1384-2.3083,2.342,0,4.813.2177,7.3116.7783,15.48,3.47,15.3999,16.41,30.63,22.97,4.8516,2.0918,10.1656,3.0686,15.5092,3.0686,8.0167,0,16.1003-2.1984,22.7906-6.1286,17.0601-10.01,20.77-28.74,21.4501-32.17,3.7899-19.14-6.7301-25.21-7.6601-45.96-.8399-18.87,6.3001-48.98,29.1101-59.74,5.6888-2.6844,11.5133-3.7693,17.2117-3.7694M578.444,0h-.0004c-7.4587.0001-14.5417,1.5579-21.0522,4.6301-12.2646,5.7855-21.9229,16.7131-27.9293,31.6008-4.5581,11.2979-6.8658,24.6667-6.3311,36.6788.4692,10.4679,3.1289,17.8735,5.2661,23.8241,2.5287,7.0407,4.1991,11.6919,2.5565,19.9875-1.3474,6.7952-5.3705,19.2287-17.1761,26.1557-5.3705,3.1548-11.8456,4.8911-18.2361,4.8911-4.3359,0-8.3551-.785-11.9459-2.3333-5.1809-2.2316-7.8242-5.3575-11.1708-9.3153-4.394-5.1964-9.8624-11.6635-21.054-14.1722-2.9453-.6609-6.0682-.9962-9.2801-.9962-7.6361,0-13.9702,1.8732-16.6749,2.6731-7.3711,2.1824-11.659,5.0991-14.7899,7.2287-2.7182,1.849-4.0827,2.7771-7.0276,3.2321-.9251.1425-1.8867.2151-2.8558.2151-7.0538,0-13.2938-3.7516-15.6428-5.1639-4.9055-2.935-6.9239-5.742-9.2608-8.9922-2.7466-3.8199-6.1648-8.5739-13.4259-11.5373-3.1987-1.3086-6.5295-1.946-10.1761-1.946-7.4075,0-15.4869,2.6497-26.6693,6.3169-11.3676,3.73-18.479,7.2053-23.6717,9.7428-5.6613,2.7667-7.7755,3.7234-10.8442,3.7234-.5143,0-1.072-.0283-1.6576-.0839-7.8974-.7482-15.8024-5.7315-18.7995-11.8497-1.4077-2.8723-1.2089-4.7341-.3683-10.1873.5958-3.8642,1.3371-8.6735,1.2756-15.0503-.062-6.6996-1.4915-30.1115-17.2788-49.9391-4.6451-5.8486-22.044-25.1694-50.6157-27.8642-2.151-.2034-4.3312-.3068-6.4777-.3068-15.4811,0-38.6136,5.3646-60.9006,30.9218-2.7527,3.1632-9.1328,10.4948-14.1506,20.128-6.6088,12.6874-8.7122,25.0242-6.2519,36.6678,3.022,14.2911,11.9268,23.1891,25.4059,36.6579,8.0159,8.0159,14.4973,12.8604,19.7052,16.7532,6.9789,5.2163,9.8994,7.5371,12.1179,12.6505,2.9709,6.8506,2.9366,15.3133-.1004,25.1611-5.1234,9.884-11.5893,17.1967-19.2268,21.7432-2.8127,1.6736-5.18,2.6306-7.4694,3.5561-4.3308,1.7507-9.2394,3.735-13.5392,9.5409-8.4869,11.4641-7.4136,28.1017-2.5853,39.5054,2.9258,6.9131,6.5754,10.4294,9.2403,12.9969,2.194,2.1136,3.2952,3.1746,4.2632,6.171.0349.1109,3.501,11.4606-2.8882,18.9902-.211.2489-5.159,6.0008-11.535,6.013-4.1077,0-6.6384-2.3865-11.5262-7.3514-5.0584-5.1382-11.3538-11.533-21.71-13.8766-2.5008-.5663-5.0892-.8536-7.6922-.8536-14.8683,0-27.3678,9.1559-34.836,14.6263-1.0721.7847-6.7228,5.0167-13.0438,11.5447-.9171.9491-1.7758,1.8682-2.6229,2.8075-.1655.1692-.323.3432-.4734.5229l-.2293.2628c-.2045.2333-.4104.4691-.6115.7051-.016.018-.0317.0358-.0471.0535-.6062.6945-1.1965,1.3931-1.8039,2.1352-.3335.4031-.6672.8175-1.0007,1.243-4.1396,5.2242-7.4651,10.5906-9.8558,15.9149-.1209.2554-.2788.6002-.4408,1.0001-.7205,1.673-1.3565,3.3751-1.8911,5.0618-.1041.3156-.1976.6207-.2901.9371-.2992.9954-.5284,1.8466-.7166,2.6625-.0885.3511-.1699.7067-.2428,1.0616-.0315.1357-.0578.2617-.0798.3766-.0482.2175-.0919.4319-.1343.6522-.0909.4417-.1602.8508-.2174,1.2065-.05.2501-.09.5021-.12.756-.0685.4326-.1301.8775-.1837,1.3275-.0074.0618-.0141.1238-.0202.1858-.0765.6155-.1291,1.1583-.1638,1.6902-.0449.554-.0781,1.0872-.101,1.6252-.0253.5948-.0381,1.1979-.0381,1.7927,0,4.3043.6551,8.5631,1.9471,12.658,7.2209,22.8837,31.7132,36.1033,51.092,36.9238.6813.0289,1.3702.0436,2.0472.0436,10.7048,0,18.6692-3.5109,25.0687-6.332,3.404-1.5006,6.6192-2.918,8.5824-2.9177.4213,0,.9104.0543,1.6298.4482,4.5213,2.4783,7.57,12.0573,6.2699,19.7086-.5618,3.3069-1.7561,4.9236-3.7348,7.6022-2.4362,3.2979-5.7729,7.8145-6.9986,15.4487-1.261,7.835.4281,13.1306,8.201,32.3768,3.5869,8.8855,6.3134,15.3411,8.3042,20.0548,4.6621,11.0385,4.9329,11.8527,4.8279,14.521-.1816,4.6099-1.4091,6.4856-3.6378,9.891-2.5498,3.8962-6.042,9.2324-7.0387,18.6121-2.8749,27.0822,18.6716,47.9603,19.5902,48.8358,14.2292,13.4897,31.6175,16.7719,44.3139,19.1683l.056.0106c7.5389,1.4174,12.9863,1.6858,17.3634,1.9015,6.2009.3057,8.1287.4929,11.2768,2.7209,5.5859,3.9595,9.5374,10.9198,11.7397,20.6838.936,4.1322.7862,6.1716.3861,11.6224-.1997,2.7194-.4481,6.1036-.6014,10.601l-.0018.0535c-.4108,12.1523-.7352,21.7511.0275,29.5227.6508,6.6312,2.4107,16.037,10.1468,21.1353,3.2312,2.1313,7.0489,3.2131,11.344,3.2131,10.3663,0,21.4248-6.3732,28.7422-10.5902,12.3858-7.1333,18.6852-14.4391,23.7469-20.3092,4.8371-5.6099,7.1878-8.1427,12.2216-9.3948.9335-.2307,1.3445-.2623,1.6217-.2623,1.2268,0,3.9271.7692,8.0147,1.9332,4.7166,1.3434,11.8445,3.3735,22.869,6.0087,21.5408,5.1488,33.4065,7.9851,43.8301,7.9851,1.0894,0,2.1754-.0319,3.2276-.0945,22.0959-1.3136,39.9733-11.1802,46.7034-14.8944,8.7101-4.8044,14.3996-9.252,18.971-12.8254,5.8102-4.5419,7.8069-5.9786,11.1331-5.9785.149,0,.3004.0029.4537.0084.1894.007.3839.0105.5824.0105,5.1838,0,11.4825-2.4592,20.9841-8.3135,9.6046,8.1964,18.5181,17.627,23.1409,29.9418,1.9754,5.2599,3.4676,11.4604,5.0472,18.025,4.2561,17.6868,9.0801,37.7334,26.1334,46.7738,7.9566,4.2153,18.746,6.5361,30.3828,6.5361,10.5732,0,20.7999-1.8925,28.7963-5.3291l.103-.0443c14.7526-6.3447,27.4935-11.8242,36.0229-28.5696,4.8273-9.4752,6.5828-22.5581,4.8162-35.8931-1.8291-13.8068-6.9886-25.6335-14.5282-33.3016-6.1985-6.3041-13.9963-10.0009-20.8762-13.2625-1.8048-.8557-3.5095-1.6639-5.1774-2.5081-7.8766-3.9851-16.4376-6.4424-24.7168-8.8187-6.8795-1.9747-13.3773-3.8398-18.942-6.411-.8272-.3818-1.7386-1.187-2.6184-2.1798,11.7236-3.604,18.8489-10.1312,21.6791-19.7759,1.6266-5.5656,1.4395-11.1495,1.2891-15.6364-.0808-2.4149-.2029-6.0602.2656-7.0953.0131-.0245.0259-.0487.0385-.0725,1.2944-2.3193,2.188-2.843,6.4868-5.111,4.7404-2.501,11.9039-6.2803,22.1913-15.3916,7.471-6.6083,14.408-14.0552,18.9983-18.9832,4.5516-4.8795,6.803-7.5399,8.612-9.6777,1.2725-1.5037,2.1919-2.5901,3.563-4.022,8.48-8.864,16.2544-12.1569,23.1135-15.0621,7.7968-3.3025,15.859-6.7172,20.0569-16.8187,5.6652-13.6106.359-29.7426-7.8115-38.641-5.8698-6.397-12.4062-8.224-17.179-9.5582-4.3749-1.2229-6.3969-1.8726-8.4818-4.4607-3.5058-4.3546-4.8236-11.6074-3.0635-16.8687,1.1415-3.422,3.0729-4.818,7.3326-7.65,4.6119-3.066,10.928-7.2651,14.7841-16.1228,2.0816-4.8021,2.5559-8.7086-.2687-33.7128-3.9244-34.7849-6.1638-39.0132-9.4925-43.0312-5.5359-6.6761-11.4104-8.6584-16.1307-10.2513-4.2426-1.4317-7.5934-2.5625-12.1403-7.1751-3.1818-3.2287-4.0715-5.2568-5.1977-7.8245-1.503-3.4266-3.3735-7.6909-9.1699-12.6223-.4803-.4096-.9037-.7543-1.3195-1.0743-.3743-.2956-.7598-.5894-1.1326-.8595-.4179-.304-.8387-.5966-1.2411-.8627-.4268-.2913-.8314-.5461-1.1432-.7398-.0176-.011-.0352-.0219-.0525-.0327-.0344-.0216-.0689-.043-.1036-.0641-.3628-.2207-.697-.4133-1.0156-.585-.8693-.4977-1.7888-.9645-2.8037-1.4233-.672-.3091-1.3751-.5996-2.1482-.8877-.3457-.1302-.691-.2509-1.0365-.3702-.3809-.1355-.7746-.2695-1.168-.3915-1.1089-.3503-2.3292-.6888-3.7916-1.0504-.2734-.0751-.5513-.1454-.8251-.2135l-.1281-.0319c-.5111-.1255-.9859-.2405-1.4604-.3738-.0829-.0232-.166-.0453-.2496-.0662-.1292-.0322-.2635-.071-.3928-.1086-.1118-.0325-.2242-.063-.3372-.0913-.0097-.0024-.0195-.0049-.0295-.0073l-.0632-.0184-.3677-.1066c-.0533-.0153-.1066-.03-.1602-.0443l-.5516-.1742c-1.0854-.3383-2.0493-.7208-2.98-1.1798-.058-.0286-.1162-.0565-.1747-.0838l-.0903-.0417c-.0533-.028-.1069-.0555-.1608-.0825l-.0392-.0197c-.1351-.077-.2722-.1505-.4112-.2204-.0842-.049-.1691-.0966-.2549-.1427-.0448-.0243-.0919-.0513-.14-.0788-.1-.0617-.2-.1221-.3-.1819-.0325-.0205-.0651-.0408-.0978-.0608-.1957-.12-.3986-.2446-.5942-.3771-.0525-.0356-.1052-.0706-.1584-.1049-.4244-.2745-.9011-.6177-1.4578-1.0489-.2868-.2212-.5068-.3989-.7056-.5692-.0268-.023-.0537-.0458-.0807-.0684-1.6933-1.4167-4.5275-3.7879-6.6147-6.8813-.0604-.0894-.1223-.1777-.1857-.265l-.0473-.0718-.0881-.1337c-1.1893-1.8743-1.9088-3.6821-2.199-5.5251-.582-3.6895.7786-6.3409,3.2333-10.7099,2.8206-5.02,6.6835-11.8951,4.217-20.9064-1.0271-3.7603-2.8454-6.7596-5.7213-9.4342-1.2596-1.1595-2.5222-2.0883-3.7435-2.9865-2.6396-1.9417-5.3693-3.9495-8.6639-8.7129-2.4828-3.5811-7.6371-11.0151-6.3991-15.4103.3094-1.0995,1.294-1.8254,6.1977-4.5708,3.2239-1.805,7.2362-4.0515,11.9031-7.4655,9.0132-6.5891,12.3021-12.0905,15.2038-16.9441,2.4857-4.1578,4.449-7.4418,10.8669-12.1783,6.0273-4.4526,11.0146-6.8512,15.8376-9.1709,6.9222-3.3294,14.0802-6.7721,22.1084-15.2374,5.2256-5.5184,16.0425-16.9417,17.7454-34.0308,1.2603-12.6044-2.2455-31.8901-26.1072-52.1701-4.1207-3.5279-26.0825-21.2317-51.4166-21.2317h0Z"/>
      </g>
      <path class="cls-1" d="M669.992,472.3395c-5.66,13.62-22.14,9.02-41.36,29.11-3.61,3.77-4.49,5.4601-12.26,13.7899-4.49,4.8201-11.28,12.1001-18.38,18.3801-18.98,16.8099-25.3199,13.34-30.64,22.98-.0699.1399-.1499.27-.21.4099-2.8201,5.8401.3999,15.6001-2.0901,24.1201-2.1099,7.1899-8.2899,13.5-25.6599,15.7999-2.02.26,3.79,13.3199,11.46,16.86,13.1801,6.0901,29.95,8.3,43.3701,15.0901,8.24,4.1699,17.23,7.47,23.7,14.0499,12.8999,13.12,16.46,42.41,8.11,58.8-7.0699,13.88-17.36,18.2799-31.66,24.4301-14.3101,6.1499-37.6499,6.3999-51.4099-.8901-18.9202-10.03-19.4401-39.96-26.9701-60.01-5.98-15.9299-17.7699-27.3499-30.9-37.8999-9.1399,6.0699-17.23,10.6-21.9099,10.4299-11.8901-.4299-15.3601,8.95-35.23,19.91-7.3201,4.0399-23.2101,12.62-42.8901,13.7899-9.9099.5901-21.4199-2.1599-44.4299-7.6599-28.95-6.9199-29.8101-9.38-36.77-7.66-15.72,3.91-15.7,17.63-38.29,30.64-8.1899,4.72-22.5599,12.99-30.6399,7.66-7.42-4.89-6.92-19.52-6.1301-42.89.4601-13.5,1.8101-16.52,0-24.51-.8999-3.99-4.0898-18.09-15.3199-26.05-8.9301-6.3199-14.5099-2.7999-32.17-6.1199-11.9199-2.25-27.52-5.1801-39.83-16.8501-.85-.8101-19.25-18.76-16.85-41.37,1.5601-14.6801,10.1699-15.13,10.72-29.1.27-6.86-1.73-8.45-13.78-38.3-7.52-18.62-8.5-22.36-7.6599-27.58,1.75-10.9,8.87-12.08,10.72-22.97,1.74-10.2401-1.99-24.27-10.8201-29.11-11.45-6.27-21.23,8.51-41.27,7.66-17.24-.73-37.2699-12.83-42.8899-30.64-1.0601-3.36-1.53-6.69-1.53-9.95,0-.47.01-.94.03-1.41.02-.47.05-.93.09-1.4q-.01-.01,0-.02c.03-.46.08-.91.14-1.37v-.03c.05-.42.11-.84.1799-1.25,0-.07.01-.14.03-.2.0601-.38.1201-.76.2-1.14.04-.21.0801-.41.1301-.62.01-.06.02-.13.04-.19.0599-.31.1299-.62.21-.93.1699-.75.3799-1.5.6-2.23.0699-.24.14-.47.22-.71.4701-1.49,1.02-2.95,1.64-4.38.0901-.23.1899-.45.3-.68,2.3099-5.17,5.45-9.95,8.77-14.14.2899-.37.58-.73.8699-1.08.54-.66,1.0801-1.3,1.6301-1.93l.02-.02c.3198-.38.6599-.76.98-1.13.02-.03.0499-.05.08-.08,4.8199,13.97,10.61,29.1,25.58,34.28,2.6799.92,9.3.97,22.4299,1.02,41.9102.16,48.3301-3.46,55.53,2.04,7.7101,5.89,8.22,19.66,8.9401,46.98,1.15,43.96-5.48,46.57,0,61.36,9.11,24.62,35,37.78,54.13,47.5,15.8101,8.03,14.25,3.85,40.6799,15.7301,20.67,9.2999,29.8701,15.5599,48.17,18.5099,8.83,1.4301,16.83,2.63,26.6,0,13.3-3.5699,15-10.23,26.3201-12.38,7.3-1.3799,11.21.5,31.9299,7.15,23.55,7.5599,35.39,11.3099,38.72,10.34,18.42-5.3999,12.9301-33.22,35.75-44.1299,13.9001-6.6501,28-2.0901,32.28-11.0801,2.3401-4.91-1.33-7.4,0-15.38,1.8101-10.83,10.5-17.84,18.78-24.51,1.77-1.43,4.8401-3.8,26.55-16.35,15.78-9.11,19.6-11,20.4299-15.43,1.2-6.45-5.77-8.63-10.86-20.31-4.37-10.04-6.7799-25.8,0-37.21,4.9501-8.34,9.6801-5.72,17.41-16.92,2.71-3.94,9.5601-13.85,6.72-23.96-.54-1.93-1.4299-3.89-5.2-8.72-8.77-11.24-15.53-15.55-18.9301-19.4-9.4-10.65-3.92-30.11,0-44.05.78-2.78,8.64-29.89,22.54-50.13,1.4301,1.33,2.5199,2.84,3.17,5.22,3.0299,11.07-9.8201,16.95-7.6602,30.64.54,3.43,1.8901,6.44,3.53,9.01.1401.21.27.42.42.62,2.78,4.12,6.28,7.06,8.2999,8.75.3501.3.7001.58,1.05.85.71.55,1.4,1.05,2.0801,1.49.3099.21.6299.41.9399.6l.01.01c.1699.1.3401.2.51.31.01,0,.03.01.04.02.1399.08.28.16.4099.23.16.1.3201.18.48.26.1501.09.3101.17.4701.25.16.09.3199.16.47.23,1.4601.72,2.87,1.26,4.25,1.69l.5699.18c.1301.04.25.08.3801.11.21.0601.4099.1201.6199.1801.04.0099.0901.02.1301.03.24.07.49.14.73.2.5699.16,1.1399.3,1.71.44.28.07.5701.14.85.22,1.14.28,2.27.58,3.41.94.29.09.58.19.86.29.2899.1.58.2.87.31.51.19,1.03.4,1.55.64.71.32,1.4399.6801,2.1799,1.11.23.12.47.26.7.4.03.02.05.03.0801.05.29.18.59.37.88.5699.3199.21.65.44.98.6801.2899.21.59.4399.88.67.3401.26.6799.54,1.02.83,8.3101,7.0699,4.96,10.95,13.79,19.91,11.73,11.9,19.6899,7.13,27.75,16.85,1.6899,2.04,3.74,5.15,7.48,38.3,2.7,23.9,2.1,26.48.96,29.11-5.6899,13.07-18.14,11.74-22.4,24.51-2.7799,8.31-.7799,18.7,4.59,25.37,7.79,9.67,17.5801,5.24,26.04,14.46,6.4,6.97,10.0801,19.61,6.13,29.1Z"/>
      <g>
        <path class="cls-5" d="M104.716,158.3012c-11.8902-12.4513-30.1963-15.0721-44.4255-10.7234-22.2234,6.7919-29.6239,29.0933-32.17,36.766-2.5259,7.6117-7.5132,22.6411,0,38.2979,6.1591,12.8347,19.4446,23.436,35.2338,24.5106,15.449,1.0514,26.4584-7.4832,30.6383-10.7234,15.387-11.928,18.945-28.7463,19.9149-33.7021,1.463-7.4755,5.6524-28.8811-9.1915-44.4255Z"/>
        <path class="cls-3" d="M65.9984,251.7428c-.9658,0-1.9482-.0327-2.9497-.1006-16.3291-1.1118-31.6318-11.7305-38.9854-27.0537-8.2993-17.2954-2.8384-33.7529-.2139-41.6616,2.6411-7.9595,10.6777-32.1807,35.1255-39.6528,14.4932-4.4282,35.2637-2.4609,48.9956,11.9194,16.4526,17.229,11.8618,40.688,10.3535,48.3965-3.7524,19.1675-13.8037,30.3716-21.5747,36.3955-4.2603,3.3027-15.1665,11.7568-30.751,11.7573ZM73.6053,150.1475c-4.2666,0-8.3706.6245-12,1.7339-20.0005,6.1128-26.6938,26.2852-29.2139,33.8794-2.4258,7.3101-6.9404,20.916-.2139,34.9341,5.9746,12.4497,18.332,21.0728,31.4824,21.9678,13.7456.937,23.7915-6.8569,27.5752-9.7905,6.5537-5.0801,15.0405-14.5835,18.2563-31.0103,1.4233-7.2734,5.2041-26.5942-8.0298-40.4526h0c-7.6904-8.0537-18.1899-11.2617-27.8564-11.2617Z"/>
      </g>
      <g>
        <path class="cls-5" d="M375.8649,40.3438c-10.7775-6.8121-25.4355-7.0006-36.766,0-13.1099,8.1-20.5112,25.0494-15.3191,39.8298,5.8903,16.7679,24.5095,20.8405,27.5745,21.4468,1.1057.2188,23.6476,4.324,35.234-10.7234,11.3863-14.7875,5.9758-39.998-10.7234-50.5532Z"/>
        <path class="cls-3" d="M359.4735,106.7877c-5.0337,0-8.605-.6763-8.9927-.7529-5.6431-1.1157-24.5532-6.1709-30.9468-24.3696-5.6807-16.1714,1.7139-35.5815,17.1997-45.1494,12.5518-7.7544,29.2437-7.7451,41.5356.0244h0c9.4536,5.9751,16.0801,16.1953,18.1802,28.04,1.9131,10.7886-.3818,21.3818-6.2959,29.0625-8.5176,11.0615-21.8486,13.145-30.6802,13.145ZM357.577,39.6754c-5.6152,0-11.2607,1.499-16.1128,4.4966-11.9736,7.3979-17.751,22.2344-13.439,34.5103,4.8125,13.6992,19.7412,17.6416,24.2017,18.5234.2085.041,20.79,3.9404,30.7959-9.0542,4.373-5.6792,6.0371-13.6982,4.5649-22.0005-1.6348-9.2197-6.916-17.4453-14.127-22.0034-4.7173-2.9814-10.2852-4.4722-15.8838-4.4722Z"/>
      </g>
      <g>
        <path class="cls-5" d="M659.3239,169.6409c-23.7283.8467-33.7718,8.3074-36.766,10.7234-14.0809,11.3622-22.7462,32.5876-16.851,50.5532,3.4863,10.6244,11.0166,16.9146,18.383,23.0677,9.886,8.2579,19.2925,12.0383,35.234,18.2939,24.3641,9.5607,27.9834,7.1702,33.7994,13.7872,10.0531,11.4376,3.052,22.9169,13.6899,33.7021,9.7547,9.8898,24.5553,9.2747,26.0426,9.1914,22.8468-1.2783,39.1769-26.8898,44.4255-45.9574,9.357-33.9926-11.9672-63.6709-16.8511-70.4681-32.5764-45.3389-90.5813-43.2692-101.1064-42.8936Z"/>
        <path class="cls-3" d="M731.2796,333.5001c-5.2603,0-18.2759-1.0469-27.6699-10.5713-6.4565-6.5454-7.4683-13.3965-8.3613-19.4409-.7803-5.2808-1.4541-9.8418-5.5049-14.4507-2.4688-2.8086-3.9443-3.3135-10.5112-5.2368-4.7744-1.3989-11.314-3.3145-21.5522-7.332-15.5522-6.103-25.8267-10.1348-36.4751-19.0293-7.4468-6.2207-15.8857-13.27-19.7739-25.1187-6.9302-21.1216,3.9609-43.8867,18.3013-55.458,8.7466-7.0581,22.3818-11.1104,39.4312-11.7188h.0005c26.4956-.9443,75.353,3.6133,104.9209,44.7646,22.6982,31.5923,22.0645,57.8359,17.5356,74.2886-5.231,19.001-22.4673,47.7988-48.5132,49.2563-.4009.022-1.0244.0464-1.8276.0469ZM659.3245,169.6407l.1602,4.4971c-14.8735.5308-26.9839,3.9858-34.1011,9.7285-13.6934,11.0498-20.3145,30.6743-15.4009,45.6484,3.084,9.3994,9.8394,15.0425,16.9907,21.0161,9.123,7.6201,17.4707,11.0752,33.9946,17.5596,9.8652,3.8711,16.1821,5.7217,20.7944,7.0728,6.7461,1.9761,10.4624,3.0649,14.7407,7.9326,5.8057,6.605,6.7847,13.231,7.6484,19.0771.8242,5.5786,1.4751,9.9849,5.8652,14.4355,8.2856,8.3999,21.147,7.9404,22.5879,7.8584,21.1577-1.1836,35.9707-26.7939,40.3384-42.6587,4.0078-14.561,4.4565-37.9434-16.167-66.6475-27.1206-37.7466-72.6016-41.9087-97.2915-41.0229l-.1602-4.4971Z"/>
      </g>
      <g>
        <path class="cls-5" d="M758.1261,395.7481c-13.0703-10.6445-34.3645-11.6887-49.8356,0-15.3309,11.5829-20.2461,32.1196-13.7872,47.4893,8.6927,20.6853,37.858,31.7019,63.6229,18.3831,19.791-20.7811,17.4268-51.6798,0-65.8723Z"/>
        <path class="cls-3" d="M734.5159,471.9136c-6.1216.0005-12.2046-1.0342-17.9673-3.1245-12.1382-4.4019-21.6855-13.0801-26.1938-23.8081-7.5142-17.8804-.9697-40.5894,15.2227-52.8232,16.3442-12.3481,40.1572-12.3022,55.3906.1011h0c9.0527,7.3726,14.7119,18.9849,15.5264,31.8589.9326,14.7437-4.5747,29.5439-15.1094,40.606l-.521.5469-.6714.3472c-8.0806,4.1768-16.918,6.2959-25.6768,6.2959ZM733.6131,391.8682c-7.9429,0-16.02,2.4912-22.6099,7.4702-13.0103,9.8296-18.3203,27.9526-12.3516,42.1558,3.5391,8.4204,11.1807,15.2856,20.9658,18.8345,11.4272,4.144,24.4194,3.2778,35.7676-2.3638,8.4727-9.1865,12.8867-21.2725,12.1274-33.2788-.6567-10.3789-5.1133-19.6548-12.228-25.4487h0c-6.0337-4.9141-13.7866-7.3691-21.6714-7.3691Z"/>
      </g>
      <g>
        <path class="cls-5" d="M656.0791,561.3182c-9.2201-9.5002-27.3186-9.5078-36.6397-.1234-9.5536,9.6184-7.801,26.3948-.0002,36.7657,4.0417,5.3734,9.8903,9.18,16.3457,10.9809,4.673,1.3036,15.4643,3.146,19.175-1.1165,1.0507-1.2069,1.6298-2.7426,2.1809-4.245,2.2876-6.2355,4.4697-12.5797,5.2147-19.1796.745-6.5999-.0468-13.5509-3.3926-19.2884-.8158-1.399-1.787-2.6635-2.8839-3.7937Z"/>
        <path class="cls-3" d="M646.3138,614.9698c-5.2139,0-10.1826-1.2598-11.7383-1.6938-7.5469-2.1055-14.1997-6.584-18.7324-12.6104-8.8862-11.8145-11.165-30.9946.4033-42.6421,5.3188-5.3545,13.2432-8.3818,21.6787-8.3481,8.3882.0488,16.1816,3.1499,21.3823,8.5083h0c1.3701,1.4111,2.5625,2.98,3.543,4.6621,3.5439,6.0771,4.9194,13.7051,3.9771,22.0591-.8032,7.1143-3.1387,13.8921-5.4619,20.2251-.5864,1.5981-1.3896,3.7861-3.0117,5.6494-2.8247,3.2451-7.5244,4.1904-12.04,4.1904ZM637.721,558.6749c-5.9995,0-11.4917,2.0698-15.0889,5.6914-8.0249,8.0791-6.0391,22.3242.4033,30.8892,3.3501,4.4541,8.3071,7.7749,13.9585,9.3516,6.7065,1.8706,13.3398,1.6777,14.5718.2632.5327-.6123.9673-1.7959,1.3506-2.8403,2.2231-6.0601,4.2764-12.0073,4.9678-18.1343.5049-4.4722.4268-10.9683-2.8086-16.5166-.6138-1.0532-1.3623-2.0371-2.2251-2.9258l-.001-.001c-3.5288-3.6367-8.9878-5.7422-14.9766-5.7769-.0503-.0005-.1016-.0005-.1519-.0005Z"/>
      </g>
      <g>
        <path class="cls-5" d="M437.1415,714.3863c-15.8927-9.5742-37.8095,4.7878-44.5296,9.1915-8.1498,5.3406-31.8249,20.8549-29.0023,44.4255,1.7758,14.8291,13.4227,27.6951,27.5745,32.1702,23.824,7.5337,43.1874-12.3683,45.9574-15.3192,12.944-13.7886,13.745-30.4683,13.7872-35.234.0481-5.434.2372-26.7853-13.7872-35.2341Z"/>
        <path class="cls-3" d="M401.9842,806.358c-3.8892,0-7.9585-.5664-12.1572-1.894-16.1455-5.1055-28.7637-19.8789-30.6855-35.9253-3.1543-26.3398,22.5552-43.188,31.0034-48.7241,7.6689-5.0254,31.0054-20.3159,49.3188-9.2827,7.4019,4.459,16.1807,14.8677,15.9648,39.1284-.0596,6.7646-1.6411,24.0371-15.0063,38.2744-3.2905,3.5054-18.4805,18.4229-38.438,18.4233ZM424.9144,715.6632c-7.9858,0-17.9688,3.9014-29.8354,11.6782-8.0669,5.2861-29.4922,19.3267-27.001,40.127,1.5151,12.6543,11.5747,24.3389,24.4629,28.4146,20.604,6.5166,38.0352-10.6089,41.3198-14.1084,11.1924-11.9229,12.5176-26.4858,12.5679-32.1938.1782-20.0151-6.2148-28.0898-11.6094-31.3398h0c-2.853-1.7188-6.1602-2.5776-9.9048-2.5776Z"/>
      </g>
      <g>
        <path class="cls-5" d="M176.716,666.8969c-10.5244-3.8884-24.2072-.8378-32.1702,9.1915-8.5745,10.7995-6.6283,24.7928-1.5319,33.7021,6.5213,11.4003,20.9715,19.3202,33.7021,15.3192,9.889-3.1079,14.4163-12.0499,15.3191-13.9493,6.9018-14.5203,1.8344-37.9259-15.3191-44.2635Z"/>
        <path class="cls-3" d="M169.8187,730.6568c-12.7119.0005-24.9048-8.481-30.7109-18.6318-6.0117-10.5088-7.7515-26.562,1.9136-38.7349,8.6724-10.9224,24.3423-15.3838,37.2544-10.6143,8.1011,2.9932,14.5527,9.5303,18.1665,18.4077,4.2319,10.3955,4.1006,22.6606-.3428,32.0083-1.7881,3.7622-7.125,12.8818-18.0342,16.3105-2.7334.8594-5.5024,1.2544-8.2466,1.2544ZM167.3182,669.7803c-6.7573,0-14.1826,2.7261-19.248,9.1064-7.0469,8.875-5.6553,20.7939-1.1499,28.6694,5.2905,9.2505,17.3784,16.7393,28.4468,13.2603,7.7402-2.4326,11.604-9.4849,12.6035-11.5879,3.3418-7.0303,3.395-16.7456.1357-24.752-1.874-4.6035-5.6421-10.6587-12.9497-13.3584h0c-2.3545-.8701-5.0396-1.3379-7.8384-1.3379Z"/>
      </g>
      <g>
        <path class="cls-5" d="M83.2082,536.6946c-2.0663-6.6036-3.9239-13.2726-5.5686-19.9936-1.5611-6.3793-3.5758-13.6501-9.5077-16.4687-4.4954-2.1361-9.8074-.9319-14.5652.5292-21.4757,6.5949-43.5917,20.376-48.2159,42.3605-2.8631,13.6121,1.7996,28.0532,10.1259,39.1959,8.3262,11.1426,19.9969,19.3525,32.1898,26.0469,18.6364,10.2321,52.9956,18.9016,53.884-13.4833.2976-10.8485-4.4251-21.1078-8.5601-31.1417-3.6538-8.8663-6.9183-17.893-9.7821-27.0451Z"/>
        <path class="cls-3" d="M79.3128,622.1378c-11.4365,0-24.2627-4.5854-33.812-9.8286-15.3066-8.4033-25.9922-17.0776-33.6294-27.2974-9.8838-13.228-13.8652-28.8335-10.9243-42.8164,6.085-28.9292,37.9019-41.6216,51.2988-45.7358,5.5366-1.7002,11.9829-3.064,17.8169-.292,8.1299,3.8633,10.4272,13.2515,11.9478,19.4634,1.6157,6.6016,3.4634,13.2363,5.4922,19.7197h0c2.8154,8.9971,6.0615,17.9717,9.6479,26.6748.3521.8545.7085,1.7109,1.0659,2.5688,3.9971,9.6006,8.1304,19.5283,7.832,30.4106-.3872,14.1045-6.7134,20.646-11.9521,23.6499-4.2896,2.46-9.3818,3.4829-14.7837,3.4829ZM62.5692,503.5719c-2.3833,0-5.0562.6851-7.6816,1.4912-11.8716,3.6455-40.0342,14.7427-45.1328,38.9849-2.3735,11.2842,1.1128,24.584,9.3267,35.5767,6.8398,9.1533,16.6113,17.0327,30.7505,24.7959,12.5474,6.8887,30.3491,11.8389,39.7881,6.4268,4.7793-2.7402,7.21-8.0034,7.4316-16.0894.2461-8.9556-3.5107-17.9785-7.1436-26.7041-.3613-.8682-.7222-1.7344-1.0786-2.5991-3.686-8.9453-7.0225-18.1694-9.9155-27.4165-2.0854-6.6636-3.9849-13.4824-5.6455-20.2676-1.4761-6.0322-3.1274-11.6016-7.0679-13.4741-1.0835-.5146-2.313-.7246-3.6313-.7246Z"/>
      </g>
      <path class="cls-6" d="M158.5951,320.281c.4973-16.7031,8.8958-19.439,9.1915-34.5896.342-17.5263-10.783-19.702-9.1915-33.45,1.7379-15.0122,15.4601-16.3683,28.5957-38.1731,5.4799-9.0965,13.8802-23.041,12.2553-38.8085-1.9908-19.317-17.0063-21.7467-35.7446-53.1064-10.4913-17.5578-18.0314-30.1765-15.3192-45.9575,2.6563-15.4557,14.6981-31.3347,32.6808-36.766,13.5658-4.0972,30.8348-2.3461,42.3145,8.1702,10.5674,9.6806,12.2679,23.1599,13.8557,35.7447,2.8677,22.7303-4.709,27.3232.0995,42.8936,3.9777,12.8802,14.6041,27.3586,29.0828,30.6383,6.8619,1.5544,14.6722-.9852,30.0127-6.1277,28.4421-9.5344,30.9407-15.3498,41.9114-14.2979,16.2636,1.5594,14.676,14.7137,33.7021,19.4043,18.8849,4.6557,25.9163-6.9564,49.0213-1.0213,6.9265,1.7792,6.5143,2.8793,20.4255,7.1489,14.1089,4.3304,17.2305,4.0268,28.5957,7.5332,16.7305,5.1617,25.0958,7.7426,29.617,13.9136,7.1534,9.7636,6.6124,25.1782,0,35.7447-11.5752,18.4968-38.1821,16.4278-40.851,16.1803-19.2538-1.7862-20.5081-13.4786-46.8474-22.3079-14.9585-5.0143-14.9016-1.3597-44.2352-7.1489-34.7898-6.8661-35.0804-12.0483-45.6596-9.4663-17.6215,4.3008-15.2337,18.2927-46.0664,38.9231-12.9702,8.6785-17.0586,8.6553-24.4679,16.8865-2.8369,3.1516-6.1088,7.4556-18.4257,33.45-10.8279,22.852-10.4573,24.0799-14.2979,27.5995-11.1523,10.2202-19.7442,4.8754-32.6808,15.7052-11.6266,9.7331-12.3004,20.4238-17.3617,19.8806-5.8163-.6242-10.6071-15.3514-10.2128-28.5957Z"/>
      <path class="cls-6" d="M553.8291,112.9618c-1.9043-.786-5.4579-3.3335-7.1489-38.8085-1.2206-25.6043.3213-30.7651,2.0426-34.7234,1.6327-3.7547,7.2168-16.5961,20.4255-21.4468,13.3628-4.9073,25.845,1.5529,34.6842,6.1277,9.0714,4.6949,18.6665,9.6609,21.486,20.4255,2.0044,7.6529.5999,18.2953-6.1277,24.192-10.2058,8.9456-23.3492-1.2088-33.2494,7.4675-7.6172,6.6757-2.489,15.0216-11.6868,26.0971-4.7977,5.7773-14.2561,13.2155-20.4255,10.6689Z"/>
      <path class="cls-6" d="M41.1482,202.8342c-3.9664-12.8484.8538-28.3676,11.8861-36.766,2.4929-1.8977,11.5338-8.1751,22.8373-6.1277,2.4099.4365,12.0197,2.1771,15.3192,9.5758,3.6004,8.0734-2.3255,18.3712-8.1702,23.6262-6.9451,6.2444-11.9391,3.7169-16.7507,9.6917-6.3975,7.9438-1.7462,17.5981-5.7174,19.4043-4.4152,2.0081-15.7008-7.408-19.4042-19.4043Z"/>
      <path class="cls-6" d="M18.6801,565.3873c-6.1758-13.9977,2.5859-28.0586,5.4662-32.6808,4.7368-7.6018,15.7628-20.2346,24.1509-17.3617,7.5118,2.5728,8.9628,16.2297,9.1915,18.3829.8575,8.0715-1.7438,10.5049-4.4543,24.6375-3.2723,17.0619-.9998,21.434-4.7372,23.85-6.7131,4.3395-23.7373-3.5013-29.6171-16.8279Z"/>
      <path class="cls-6" d="M337.3185,64.8515c-1.5656-4.4927,5.9037-11.2979,12.5524-14.1875,6.2849-2.7316,15.8411-3.7048,17.897,0,2.4094,4.3418-5.1691,15.673-15.2247,18.0644-5.8679,1.3955-13.8561.0504-15.2247-3.8769Z"/>
      <path class="cls-6" d="M621.2334,212.0257c1.1417-12.729,18.3586-19.7449,21.4468-21.0033,6.4701-2.6366,11.7126-3.0248,44.9362,0,26.1566,2.3814,29.4271,3.2156,33.7021,5.4094,14.7943,7.5919,27.6462,24.2947,23.4894,32.8467-3.3008,6.7907-17.043,7.8603-26.5532,6.0764-19.0546-3.5741-22.2354-6.6534-34.8681-6.0764-14.3474.6553-16.3803,8.428-31.5149,9.9803-13.9723,1.4331-31.8678-13.5252-30.6383-27.2331Z"/>
      <path class="cls-6" d="M195.361,365.7167c14.2319,6.2323,11.4789,35.9299,11.2341,38.3089-1.3848,13.4547-6.2132,16.1611-5.6171,29.617.1492,3.3687.6475,12.523,5.6263,22.4681,6.5545,13.0922,13.6487,13.122,16.7733,22.4681,4.3256,12.9386-3.2889,30.7735-10.655,31.5454-8.162.8553-9.3718-19.9354-32.6808-42.6914-11.5145-11.2413-16.1585-10.9897-18.383-18.471-4.378-14.7236,11.7225-22.0436,12.2554-44.9362.3724-16.0012-7.2617-22.3905-2.0426-30.6383,4.5771-7.2333,15.9298-10.981,23.4894-7.6706Z"/>
      <path class="cls-6" d="M57.6552,328.9961c.8871-11.6852,10.6099-22.1276,20.259-23.013,7.4252-.6814,8.3759,4.8867,23.6495,11.5065,15.0529,6.5241,22.2068,4.6166,26.3931,11.5065,2.9203,4.8063,3.5583,12.5141,0,15.7955-6.0677,5.5955-17.6652-7.8326-35.6691-5.1064-14.1272,2.1392-18.7471,12.1879-26.2568,9.101-6.6317-2.726-8.8933-12.9728-8.3757-19.7902Z"/>
      <path class="cls-8" d="M669.992,472.3395c-5.66,13.62-22.14,9.02-41.36,29.11-3.61,3.77-4.49,5.4601-12.26,13.7899-4.49,4.8201-11.28,12.1001-18.38,18.3801-18.98,16.8099-25.3199,13.34-30.64,22.98-.0699.1399-.1499.27-.21.4099-2.8201,5.8401.3999,15.6001-2.0901,24.1201-2.1099,7.1899-8.2899,13.5-25.6599,15.7999-2.02.26,3.79,13.3199,11.46,16.86,13.1801,6.0901,29.95,8.3,43.3701,15.0901,8.24,4.1699,17.23,7.47,23.7,14.0499,12.8999,13.12,16.46,42.41,8.11,58.8-7.0699,13.88-17.36,18.2799-31.66,24.4301-14.3101,6.1499-37.6499,6.3999-51.4099-.8901-18.9202-10.03-19.4401-39.96-26.9701-60.01-5.98-15.9299-17.7699-27.3499-30.9-37.8999-9.1399,6.0699-17.23,10.6-21.9099,10.4299-11.8901-.4299-15.3601,8.95-35.23,19.91-7.3201,4.0399-23.2101,12.62-42.8901,13.7899-9.9099.5901-21.4199-2.1599-44.4299-7.6599-28.95-6.9199-29.8101-9.38-36.77-7.66-15.72,3.91-15.7,17.63-38.29,30.64-8.1899,4.72-22.5599,12.99-30.6399,7.66-7.42-4.89-6.92-19.52-6.1301-42.89.4601-13.5,1.8101-16.52,0-24.51-.8999-3.99-4.0898-18.09-15.3199-26.05-8.9301-6.3199-14.5099-2.7999-32.17-6.1199-11.9199-2.25-27.52-5.1801-39.83-16.8501-.85-.8101-19.25-18.76-16.85-41.37,1.5601-14.6801,10.1699-15.13,10.72-29.1.27-6.86-1.73-8.45-13.78-38.3-7.52-18.62-8.5-22.36-7.6599-27.58,1.75-10.9,8.87-12.08,10.72-22.97,1.74-10.2401-1.99-24.27-10.8201-29.11-11.45-6.27-21.23,8.51-41.27,7.66-17.24-.73-37.2699-12.83-42.8899-30.64-1.0601-3.36-1.53-6.69-1.53-9.95,0-.47.01-.94.03-1.41.02-.47.05-.93.09-1.4q-.01-.01,0-.02c.03-.46.08-.91.14-1.37v-.03c.05-.42.11-.84.1799-1.25,0-.07.01-.14.03-.2.0601-.38.1201-.76.2-1.14.04-.21.0801-.41.1301-.62,4,5.59,8.96,11.19,15.24,16.47,7.1,5.96,17.6399,14.58,31.4099,14.4,10.2101-.13,13.0801-4.98,25.99-5.46,6.1801-.22,20.5901-.75,28.8301,8.43,7.8201,8.71,6.1499,21.77,4.9199,31.4-2.1899,17.16-8.5499,18.29-9.1899,31.41-.52,10.63,3.8301,19.34,12.53,36.76,10.87,21.78,16.6,23.96,18.11,36.77,1.6,13.5599-4.3199,15.35-1.53,25.28,4.9801,17.7899,27.9901,26.33,37.54,29.87,13.74,5.1,14.91,1.95,31.87,7.64,16.74,5.61,27.6899,9.2899,35.52,19.17,11.36,14.3199,7.12,30.2999,16.09,32.9299,4.42,1.3,7.3099-2.05,15.3199-5.36,11.22-4.64,20.66-4.3199,34.77-3.83,37.14,1.2899,40.79,16.9399,66.27,13.7899,5.3501-.66,31.4399-3.89,49.8501-21.2599,3.51-3.3201,8.4099-8.7201,16.8499-10.9102,4.3101-1.1199,10.8101-1.73,25.28,3.4001,12.65,4.5,26.76,9.51,39.8301,22.6399,14.3099,14.39,13.5316,33.4978,27.5717,44.4277,8.27,6.4501,22.0882,4.1223,30.6383-2.2977,5.61-4.22,6.6799-14.63,3.5701-22.21-3.9701-9.6801-12.8701-10.23-33.4401-21.4501-18.9401-10.3199-32.7899-18.1099-36.77-32.1699-.23-.8201-4.0299-14.91,3.0699-22.21,5.8801-6.05,13.8401-1.9,20.6801-8.4301,3.5699-3.41,3.29-6.36,6.5-19.28,3.78-15.23,5.67-22.85,9.58-28.97,5.9001-9.25,10.01-6.5399,23.3901-18.0399,18.73-16.1101,15.98-25.9601,29.49-30.9801,10.5499-3.93,17.75.02,24.48-6.9,3.33-3.41,6.1899-9.11,4.6099-13.79-1.5099-4.43-6.1599-5.41-11.6299-8.42-9.8-5.39-19.54-15.82-22.3301-27.58-3.1499-13.29,3.3801-24.92,4.6801-27.12,5.34-9.06,9.77-7.54,17.65-17.49,3.48-4.4,12.52-15.82,11.55-31.22-.2001-3.28-1.49-16.88-11.55-25.37-8.76-7.39-16.52-4.46-22.3301-12.92-3.4299-5-1.5599-7.24-5.8799-14.56-4.1401-7-8.0701-8.69-11.75-13.02-2.1602-2.54-3.8301-5.51-5.0701-8.59.01,0,.03.01.04.02.1399.08.28.16.4099.23.16.1.3201.18.48.26.1501.09.3101.17.4701.25.16.09.3199.16.47.23,1.4601.72,2.87,1.26,4.25,1.69l.5699.18c.1301.04.25.08.3801.11.21.0601.4099.1201.6199.1801.04.0099.0901.02.1301.03.24.07.49.14.73.2.5699.16,1.1399.3,1.71.44.28.07.5701.14.85.22,1.14.28,2.27.58,3.41.94.29.09.58.19.86.29.2899.1.58.2.87.31.51.19,1.03.4,1.55.64.71.32,1.4399.6801,2.1799,1.11.23.12.47.26.7.4.03.02.05.03.0801.05.29.18.59.37.88.5699.3199.21.65.44.98.6801.2899.21.59.4399.88.67.3401.26.6799.54,1.02.83,8.3101,7.0699,4.96,10.95,13.79,19.91,11.73,11.9,19.6899,7.13,27.75,16.85,1.6899,2.04,3.74,5.15,7.48,38.3,2.7,23.9,2.1,26.48.96,29.11-5.6899,13.07-18.14,11.74-22.4,24.51-2.7799,8.31-.7799,18.7,4.59,25.37,7.79,9.67,17.5801,5.24,26.04,14.46,6.4,6.97,10.0801,19.61,6.13,29.1Z"/>
      <path class="cls-6" d="M153.1853,705.8129c-5.6465-6.7705-3.8253-15.2587-3.5745-16.3405,1.9421-8.3752,9.735-15.6241,17.2238-15.3191,3.139.1278,7.2697,1.6256,7.7975,4.0851.531,2.4742-3.0264,3.8597-7.7975,10.2128-2.0305,2.7037-4.696,6.3197-5.9294,11.234-1.1841,4.7175-.6066,8.8712,0,11.4752-1.787-.6512-5.0323-2.125-7.7198-5.3475Z"/>
      <path class="cls-6" d="M376.3342,768.1107c-2.6628-8.4216,2.1534-15.9406,3.0638-17.3617,3.8147-5.9552,7.1136-5.0999,17.3617-12.7659,10.9135-8.1637,11.4581-12.3396,18.8936-14.298,5.2776-1.39,13.2219-1.4509,15.3192,2.4756,1.8652,3.4919-1.427,9.1405-4.5958,12.333-6.8766,6.928-13.6698,2.791-19.22,8.6808-4.5509,4.8292-1.1987,8.8998-6.3119,20.4255-2.6167,5.8984-5.3014,11.9502-10.2128,12.766-5.7703.9585-12.2273-5.707-14.2979-12.2554Z"/>
      <path class="cls-6" d="M623.9937,583.4157c-1.0553-4.2606-2.3514-9.4937,0-13.9432,4.4576-8.4351,19.1493-8.6145,19.9149-6.6383.533,1.3757-6.0968,2.7263-10.7681,9.807-5.624,8.5249-3.6329,18.116-5.5724,18.2782-1.6475.1378-3.3896-6.7574-3.5745-7.5037Z"/>
      <path class="cls-6" d="M706.7171,437.3256c-7.3422-9.1202-.3253-22.9772,0-23.5978,5.2046-9.9281,16.0786-14.5871,25.1963-14.5532,2.8237.0105,13.7584.0511,17.6974,7.6596,1.5232,2.9423,2.5699,8.1168,0,11.4042-4.5854,5.8655-15.3297-1.1271-22.1832,4.6809-6.7384,5.7105-1.9075,17.1782-7.6892,19.9149-3.9612,1.875-9.981-1.7321-13.0212-5.5086Z"/>
      <path class="cls-3" d="M160.9051,88.4512c-3.7587-15.3203,4.6814-27.9029,5.9294-29.7009,7.4753-10.7697,19.0283-15.3738,28.0529-16.2565,4.5497-.445,11.865-1.1605,17.702,3.7447,1.4252,1.1977,6.1039,4.8008,6.1277,10.5532.0023.5504-.0515,5.8254-3.7446,8.5222-4.927,3.5977-10.4976-1.6533-18.7234,0-7.5364,1.5146-12.1787,7.7949-13.9575,10.2012-10.0602,13.6094-3.0668,30.5578-7.4894,32-3.5322,1.1519-11.3232-8.5728-13.8971-19.0638Z"/>
      <path class="cls-3" d="M48.5044,176.9618c2.1825-3.9104,6.2144-11.1345,14.6383-13.9574,5.6155-1.8818,13.9314-2.0587,18.7234,2.7234,1.3949,1.392,3.6322,4.3428,2.7234,6.1276-1.1615,2.2812-6.3625.4973-14.7251,1.3618-3.4562.3572-9.229.954-13.8706,3.7446-9.9597,5.9881-10.8379,19.7495-11.9149,19.4699-.8997-.2335-.8684-9.9846,4.4255-19.4699Z"/>
      <path class="cls-3" d="M171.7384,264.1995c-.5979-11.0471-4.1095-11.2772-3.0637-16.9581,1.0184-5.5323,4.4564-5.8989,15.3191-18.5349,5.4595-6.3506,8.1892-9.526,9.8723-12.9362,4.8518-9.83,2.6757-15.9178,7.8298-19.3344,3.3966-2.2515,8.6195-2.4433,11.234-.0042,3.2844,3.0641,1.535,9.4247.6809,12.5301-1.2064,4.386-3.4235,8.6422-13.2766,19.7447-10.269,11.571-11.6429,11.2097-12.9362,15.3192-1.2611,4.0078-.0602,4.6875-.3405,20.1738-.167,9.2246-.6439,11.7907-2.7234,13.5283-3.0295,2.5316-8.5868,2.5744-11.234,0-2.4946-2.426-.941-5.7526-1.3618-13.5283Z"/>
      <path class="cls-3" d="M293.9511,159.5352c10.5939-7.6925,18.3735-13.3415,29.9575-15.5946,4.6753-.9094,10.2668-1.9307,17.0212,0,2.1605.6176,11.1687,3.3345,15.6595,11.5745,2.0087,3.6857,3.5093,9.2023,1.7021,10.5532-.4124.3082-1.6796.9099-10.2128-4.2953-6.4764-3.9506-7.798-5.5485-10.5531-7.054-6.2114-3.3942-12.7533-2.5175-19.0638-1.5869-18.829,2.7765-31.821,13.9061-32.3405,13.1302-.26-.3885,2.9794-3.2051,7.8297-6.7271Z"/>
      <path class="cls-3" d="M553.015,48.2366c2.5052-9.519,4.3335-16.466,11.2341-21.5727,7.0336-5.2051,14.7913-5.1345,17.8723-5.1064,7.2399.0659,12.0636,2.5972,21.7112,7.6596,6.8666,3.6031,8.8088,5.7678,9.9484,8.1713,1.412,2.978,2.5002,8.2387,0,10.8482-2.9619,3.0912-9.6791,1.1256-20.9362-2.1685-10.7294-3.1396-10.8607-4.5906-13.7872-3.8918-7.9645,1.9018-7.8193,12.8458-18.3829,16.5739-1.252.4418-5.4932,1.9386-7.6597,0-.8055-.7208-2.0837-2.5961,0-10.5136Z"/>
      <path class="cls-5" d="M205.015,107.608c-6.3014-3.2488-18.1494.4445-21.4468,9.6942-2.4384,6.8401.6738,14.2657,5.7644,18.383,4.0514,3.2768,10.8278,5.6486,15.6824,3.0638,9.174-4.8846,9.3383-26.3264,0-31.141Z"/>
      <path class="cls-5" d="M270.8874,193.1425c-4.3651-5.775-15.4954-8.0494-22.2128-2.1202-6.9816,6.1623-4.714,17.2296,0,23.1033.5872.7316,5.3114,6.6182,11.1063,5.9614,9.2078-1.0436,17.7004-18.2205,11.1064-26.9444Z"/>
      <path class="cls-5" d="M410.2916,166.3009c-4.6177-2.8694-10.623-.8096-13.0212,3.2155-3.1538,5.2933.4257,13.1547,6.1515,14.4242,3.7894.8402,7.9935-1.3232,9.9336-4.8362,2.2864-4.1401,1.3696-10.0485-3.0638-12.8035Z"/>
      <path class="cls-5" d="M476.9299,187.5423c-3.5963-5.3768-12.0557-7.4708-16.8511-3.4207-4.7355,3.9995-3.6487,12.0905,0,16.67,2.6508,3.327,7.7983,6.2372,12.2554,4.5957,5.938-2.187,8.6858-11.7299,4.5957-17.845Z"/>
      <path class="cls-5" d="M332.1639,169.5164c-1.9045-3.0719-9.3969-3.9955-13.0212,0-4.423,4.8759-.1901,13.8856,3.4619,14.6053,4.5278.8923,12.3297-10.137,9.5593-14.6053Z"/>
      <path class="cls-5" d="M211.9572,243.7226c-5.028-2.475-11.9622.6744-14.6176,6.0142-2.2356,4.4955-1.8129,11.2969,3.0796,14.4626,4.8795,3.1573,11.3372.8427,14.4275-3.0957,4.2017-5.3545,2.8447-14.5585-2.8895-17.3812Z"/>
      <path class="cls-5" d="M176.6746,302.6639c-3.4321-.1852-7.974,4.6708-8.1932,12.2553,5.6324,4.2507,12.2338,3.1345,14.2408,0,2.55-3.9824-1.8011-12.0262-6.0476-12.2553Z"/>
      <path class="cls-5" d="M78.632,317.7044c-2.8928-1.4258-9.1541,2.375-8.7677,6.4064.3452,3.6031,5.9064,6.409,8.7677,4.8853,3.3978-1.8094,3.0801-9.7736,0-11.2917Z"/>
      <path class="cls-5" d="M189.3326,380.7916c-3.8956.2177-7.1547,6.7731-6.6104,12.2553.545,5.4893,5.0428,11.3094,8.9418,10.7234,3.7087-.5575,5.9447-6.7719,5.6757-11.4893-.3082-5.4053-4.0685-11.7095-8.0071-11.4894Z"/>
      <path class="cls-5" d="M64.2185,187.5423c-2.6049-1.4215-5.6271-1.4565-7.7992,0-3.4506,2.3138-4.2273,8.0377-1.5319,10.4408,2.343,2.0889,6.9996,1.3925,9.3311-1.5472,1.9441-2.4512,1.9904-6.1078,0-8.8936Z"/>
      <path class="cls-1" d="M524.4193,239.4011c-7.4731-6.132-19.6604-3.8328-25.226,4.3215-5.7966,8.493-2.7815,20.9512,5.6722,25.3976,6.5089,3.4235,14.7208,1.2973,19.5537-3.4442,6.8618-6.7321,7.948-19.7532,0-26.275Z"/>
      <path class="cls-1" d="M525.1853,166.8549c-4.5139-.6161-9.4929,2.4951-12.0948,7.6876.3143,10.1348,6.6317,16.6791,12.0948,16.4799,3.8455-.1403,7.125-3.6165,8.4255-6.9006,2.6509-6.6944-1.4471-16.3142-8.4255-17.2668Z"/>
      <path class="cls-1" d="M529.9804,329.4199c-3.9319-2.6363-9.4363-2.2044-13.2207,0-8.0575,4.6934-10.4685,18.674-3.6693,24.5632,4.4423,3.8477,12.104,3.6246,16.89,0,7.6804-5.8166,7.1405-19.7755,0-24.5632Z"/>
      <path class="cls-1" d="M536.6746,415.2597c-2.6146-4.5739-8.7148-5.6697-12.9175-3.8298-6.0024,2.6278-8.5172,11.4117-4.6996,16.0851,3.4203,4.187,11.1205,4.0914,15.3662,0,2.9424-2.8354,4.6719-8.0201,2.2509-12.2553Z"/>
      <path class="cls-1" d="M303.8236,488.0256c-3.7793-4.1289-12.5848-4.9093-17.7168,0-3.6849,3.5251-4.3043,8.863-3.1538,12.9326,1.7722,6.2689,8.131,10.8973,13.2109,10.0462,8.0568-1.3499,13.5116-16.5853,7.6597-22.9788Z"/>
      <path class="cls-1" d="M417.5257,523.8555c-2.6144-1.7892-6.3513-1.9292-8.8511,0-3.6146,2.7897-3.8151,9.267,0,12.2552,3.5415,2.774,9.4449,1.6813,11.5745-2.3829,1.7659-3.3702.3905-7.7412-2.7234-9.8723Z"/>
      <path class="cls-1" d="M204.0788,332.8767c-3.5664-1.4883-8.5845,1.5263-9.8723,5.7872-1.2594,4.1667,1.0669,9.4641,4.9362,10.2327,3.1538.6265,6.2073-1.9794,7.5265-4.4454,2.0911-3.9089,1.1808-10.0007-2.5903-11.5745Z"/>
      <path class="cls-1" d="M144.1639,325.3873c-3.8064-.0209-7.7178,4.8089-7.1489,9.5319.4156,3.4508,3.2703,7.237,7.1489,7.2742,3.2805.0314,5.9227-2.632,6.8086-5.2316,1.6904-4.9604-2.3799-11.5501-6.8086-11.5745Z"/>
      <path class="cls-8" d="M206.6692,534.749c-7.0552-5.8705-17.855-4.153-23.1884,2.8984-5.8336,7.7128-3.2601,19.338,4.6831,23.9102,6.3191,3.6372,14.7135,2.0492,19.6039-3.1924,5.9419-6.3687,6.179-17.5607-1.0986-23.6162Z"/>
      <path class="cls-8" d="M147.5682,464.9618c-2.0793-1.1861-6.1263.7266-6.8085,3.7666-.7382,3.2896,2.7017,6.8398,5.1063,6.4462,1.975-.3233,3.0697-3.2769,3.2671-5.2031.0565-.5519.3373-3.9246-1.5649-5.0096Z"/>
      <path class="cls-8" d="M263.313,553.4724c-1.6019-3.2687-5.8419-5.5759-9.8724-4.3008-4.2233,1.3362-6.3588,6.0179-5.4468,10.088.9453,4.2189,5.0465,7.2521,8.8511,6.8086,5.2209-.6086,8.8925-7.6489,6.4681-12.5958Z"/>
      <path class="cls-8" d="M300.4193,600.4512c-1.7186-4.2496-6.5658-6.0343-10.2128-4.766-5.0667,1.762-7.063,9.1543-3.7446,13.2766,2.1742,2.701,6.4108,3.7256,9.8723,2.0426,3.7714-1.8336,5.7432-6.4532,4.0851-10.5532Z"/>
      <path class="cls-8" d="M363.398,551.7704c-3.3712-4.0131-9.6239-3.8883-13.5251-2.5988-6.4095,2.1185-12.2168,9.2798-10.3047,15.8752,1.1909,4.1078,5.0663,6.9272,8.8511,7.8298,6.105,1.4558,10.7604-2.3652,11.5745-3.0638,4.9668-4.2618,7.6353-13.006,3.4043-18.0425Z"/>
      <path class="cls-8" d="M386.8874,600.7916c-2.6157-3.7842-10.1514-3.7897-12.5958,0-1.7781,2.7566-.4321,6.8544,1.7021,9.1915.4534.4965,3.1099,3.287,6.1277,2.7234,4.2668-.797,7.4927-7.9702,4.766-11.9149Z"/>
      <path class="cls-8" d="M424.3342,567.7704c-1.1255-3.7899-5.5774-5.7408-9.1915-4.2418-3.7854,1.5701-5.2893,6.3596-3.4043,9.6761,1.4648,2.5774,4.6949,3.7699,7.4894,3.0763,3.5354-.8776,6.2269-4.7377,5.1064-8.5106Z"/>
      <path class="cls-8" d="M490.7171,522.4606c-6.0896-.9989-13.7631,1.3416-16.8511,7.5934-3.6825,7.4554,1.6083,15.5082,5.3617,19.1177,1.2744,1.2255,8.9022,8.2191,16.9727,5.0031,6.6199-2.6379,9.2845-10.4506,8.6652-16.5272-.755-7.4081-6.5647-13.943-14.1484-15.1869Z"/>
      <path class="cls-8" d="M550.4619,464.606c-4.6627-3.5317-11.639-1.6363-14.9218,2.8268-2.665,3.6233-3.1298,9.2572,0,12.9333,3.7844,4.4449,11.455,4.4193,15.6876,0,4.218-4.4039,4.0255-12.1309-.7659-15.7601Z"/>
      <path class="cls-8" d="M567.313,375.3475c-3.9988-.3679-11.0016.5734-13.0801,5.4385-2.0287,4.7485,1.9995,10.0378,3.1226,11.5126,1.126,1.4786,7.3218,9.115,15.3192,6.8758,5-1.3999,9.229-6.2469,9.1914-11.4891-.0527-7.3614-8.4922-11.7801-14.5531-12.3377Z"/>
      <path class="cls-8" d="M612.9149,323.4093c-4.7241-5.701-15.5668-4.6444-18.0275,0-1.7231,3.2524.8307,7.9501,3.0637,10.3812,3.6288,3.9507,10.9296,6.8359,14.9637,3.3416,3.5575-3.0815,3.1652-9.9031,0-13.7228Z"/>
      <path class="cls-8" d="M604.8796,446.6639c-3.0242-3.9674-10.0306-4.5833-14.588,0,.63.929,9.1415,13.3099,13.541,11.4894,2.6903-1.1132,4.0077-7.6052,1.047-11.4894Z"/>
      <path class="cls-8" d="M561.1853,651.9406c-4.1714-3.2943-13.562,1.1313-13.7872,5.3617-.1687,3.1692,4.7479,7.3213,9.5319,6.6383.254-.0363,4.802-.7634,6.1277-4.766.8798-2.6564.0073-5.7496-1.8723-7.234Z"/>
      <path class="cls-2" d="M601.015,497.4784c-5.1936-3.1772-16.9603,3.9303-16.3403,10.2068.3529,3.5726,4.7582,7.2693,9.6466,7.1489,5.0876-.1252,8.795-4.3378,9.5114-8.6779.4696-2.8452-.1333-7.0357-2.8176-8.6779Z"/>
      <path class="cls-2" d="M615.4381,657.4041c-2.8212-3.0934-7.9573-3.8409-11.6055-2.1444-6.235,2.8995-6.653,12.2543-4.8601,17.8724.1814.5685,2.8066,8.4932,7.5924,8.6808,4.9055.1923,8.15-7.8987,8.8732-9.7021,1.2283-3.0631,4.0963-10.2152,0-14.7067Z"/>
      <path class="cls-2" d="M567.7684,700.1958c-2.4097-6.4-10.7043-8.9927-16.7959-6.1276-5.1576,2.4258-8.8258,8.806-6.6383,14.8085,2.1571,5.9191,8.9084,8.4521,14.2979,7.1489,6.6862-1.6167,11.6243-9.2219,9.1364-15.8298Z"/>
      <path class="cls-2" d="M392.1639,654.3723c-3.5721-5.488-13.7046-6.0034-16.6233-1.6658-2.0603,3.0619-.4595,8.4431,2.8361,11.3086,3.8846,3.3778,10.7791,3.8295,13.7872,0,2.1576-2.7467,1.7424-6.9658,0-9.6428Z"/>
      <path class="cls-2" d="M261.9511,649.8093c.4836-2.9069,1.9622-11.7941-3.5745-15.4858-4.9252-3.2839-13.0413-.8831-16.851,4.5958-3.371,4.8479-2.7094,11.1548,0,15.453,2.9802,4.728,9.4515,8.6333,14.4054,6.5044,4.5005-1.9341,5.4894-7.8778,6.02-11.0674Z"/>
      <path class="cls-2" d="M228.2491,590.9214c-2.3645-2.3931-10.9169.535-11.2341,4.3632-.2333,2.814,3.9331,6.7203,7.6229,5.8475,4.363-1.032,5.6268-8.1708,3.6112-10.2107Z"/>
      <path class="cls-2" d="M330.3767,632.8307c-2.3895-1.2379-8.1373,1.5807-8.6808,6.0886-.4894,4.0594,3.3643,8.4702,8.6808,8.2323,2.5448-7.2668,2.377-13.0895,0-14.3209Z"/>
      <path class="cls-2" d="M622.6728,387.4293c-3.1262-.8884-8.5242,5.6655-9.7579,12.1533-.6047,3.1798-.7892,9.3939,2.5232,10.9986,2.2969,1.1127,5.4558-.3876,7.2347-1.9597,6.3446-5.6069,4.0809-20.0325,0-21.1921Z"/>
      <path class="cls-1" d="M755.7384,249.7368c-6.0249-6.3077-17.6305-6.9091-23.825,0-5.2822,5.8916-4.714,15.1077,0,21.0661,4.7653,6.0232,13.5426,8.434,19.9952,5.0525,8.7283-4.574,11.0128-18.5983,3.8297-26.1186Z"/>
      <path class="cls-1" d="M703.3805,244.778c-4.7644-5.1232-12.3405-3.9464-16.5782-1.913-.4396.2109-8.7002,4.3218-8.4255,11.4056.2495,6.4365,7.3569,10.4594,12.502,11.4055,1.2463.2292,7.5912,1.3959,12.0088-2.8419,4.6317-4.4432,5.2161-12.9774.493-18.0562Z"/>
      <path class="cls-1" d="M744.0849,297.3023c-2.1887-6.6112-10.0717-11.8643-16.8097-9.4617-7.0769,2.5234-9.0911,12.1371-6.7709,18.7202,1.7534,4.9751,6.6709,10.1727,12.2554,9.8904,7.5734-.3828,14.1127-10.7294,11.3252-19.1489Z"/>
      <path class="cls-1" d="M368.218,69.2639c-5.319-2.8327-15.7445,3.0183-15.8677,10.5064-.0713,4.3323,3.3064,9.1819,7.9338,9.9575,5.7719.9673,10.896-4.8384,11.714-10.316.5249-3.515-.4987-8.4003-3.7802-10.1478Z"/>
      <path class="cls-1" d="M567.9937,123.148c-3.8867-3.0781-10.6355-.975-13.9574,3.0905-2.6353,3.2252-4.0624,8.8459-1.0214,12.9362,1.9832,2.6674,5.4907,4.1786,8.8511,3.6685,5.9213-.8988,7.905-7.5455,8.1703-8.4344.1448-.4849,2.2404-7.8688-2.0426-11.2607Z"/>
      <path class="cls-1" d="M180.3044,687.6001c-2.7733-1.4663-7.5709,1.8563-9.9277,5.3083-2.7981,4.0984-2.2357,8.4963-2.0425,9.6704.0999.6069,1.1875,7.2159,4.766,7.8297,3.1924.5476,6.1176-4.062,7.2042-5.7744.4365-.688,3.4928-5.6703,2.3276-11.9819-.4094-2.2175-.7817-4.2349-2.3276-5.0521Z"/>
      <path class="cls-9" d="M486.0507,407.3374c-.11.27-.23.54-.34.8101-.21.5-.4301,1-.65,1.49-.02.0701-.0499.13-.08.1899-7.4,16.3301-20.0701,30.0901-32.8801,42.27-2.2999,2.1901-4.5898,4.3301-6.8899,6.4001-.65.5898-1.3101,1.1699-1.96,1.75-1.48,1.2999-2.9601,2.5699-4.4601,3.7999-.66.5399-1.3199,1.08-1.99,1.61-.4401.35-.88.7-1.3199,1.03-.3401.27-.6801.53-1.02.78-.5.3899-1,.77-1.51,1.1299-.8.5901-1.6101,1.17-2.4299,1.74-.3301.2301-.6602.4601-.9901.6801-.46.3199-.9301.63-1.39.9301-.3199.21-.6499.4199-.97.6299-.51.3301-1.01.6401-1.52.9501-.28.1801-.5601.35-.84.51-.5599.35-1.13.6801-1.7001,1.01-1.0898.62-2.1899,1.23-3.3099,1.7999-.65.3501-1.3099.6801-1.97,1-.91.4501-1.8199.8801-2.75,1.29-.4701.21-.9401.41-1.41.6101-.5601.25-1.12.47-1.6799.7-.2001.08-.41.1599-.6201.24-15.24,5.9399-32.7,6.8899-50.0499,6.8899-19.0599,0-36.36-1.75-52.7101-8.7699-.0898-.02-.1699-.0599-.25-.1-.6599-.28-1.3099-.5801-1.97-.8801-.6499-.2999-1.3-.5999-1.9399-.9199-.42-.1899-.8401-.39-1.26-.61-16.73-8.39-28.97-20.1-41-34.63-6.24-7.53-14.6699-16-19.3501-24.8101-.1499-.28-.2899-.5699-.4399-.85-.23-.45-.45-.9-.6599-1.36-3.2001-6.8201-4.8901-13.77-6.5701-21.11-.46-2.01-.9199-4.0399-1.4099-6.11-2.3801-9.97-5.52-20.74-5.52-31.4399,0-16.78,5.3599-31,10.99-45.8101,7.01-18.4,15.6699-36.6899,29.52-50.1799,9.9399-9.6901,22.6199-16.6001,35.1799-22.8401,17.9399-8.9199,36.9199-15.1699,58.3101-15.1699,23.6799,0,44.47,8.3499,63.78,19.1399,1.47.8201,2.9199,1.65,4.3699,2.5,1.1101.65,2.21,1.3,3.3,1.96.9199.55,1.8301,1.1101,2.74,1.6801,1.87,1.16,3.71,2.36,5.53,3.59.79.53,1.5699,1.0701,2.35,1.6201.48.33.9501.6599,1.42,1.01.6499.45,1.28.9199,1.9199,1.3899.15.1101.3.22.4399.3301.4901.35.9701.72,1.4501,1.1.0599.0499.12.09.1801.14.2.1299.3799.28.5699.4299.02.02.04.03.0599.05.29.23.5901.46.8801.6899.3099.25.6199.49.9299.75.02.02.04.03.0601.05.4299.3301.86.6899,1.29,1.04.0299.02.0499.04.0798.0599.4202.35.8401.7101,1.25,1.0599.8501.7201,1.6901,1.4601,2.51,2.2001.04.04.0901.08.1301.11.85.77,1.6899,1.55,2.51,2.3501.4199.3999.83.7999,1.24,1.21.3699.36.73.73,1.09,1.1,2.0499,2.09,4.01,4.2799,5.87,6.5599.37.4501.74.91,1.1,1.3801.37.46.7301.9299,1.08,1.3999.3601.47.7101.95,1.0601,1.4301.35.48.6899.96,1.02,1.4399,15,21.64,17.3999,48.7101,17.3999,77.03,0,18.1901,2.6702,34.74-3.7999,50.5499Z"/>
      <path class="cls-7" d="M486.0507,407.3374c-.11.27-.23.54-.34.8101-.21.5-.4301,1-.65,1.49-.02.0701-.0499.13-.08.1899-7.4,16.3301-20.0701,30.0901-32.8801,42.27-2.2999,2.1901-4.5898,4.3301-6.8899,6.4001-.65.5898-1.3101,1.1699-1.96,1.75-1.48,1.2999-2.9601,2.5699-4.4601,3.7999-.66.5399-1.3199,1.08-1.99,1.61-.4401.35-.88.7-1.3199,1.03-.3401.27-.6801.53-1.02.78-.5.3899-1,.77-1.51,1.1299-.8.5901-1.6101,1.17-2.4299,1.74-.3301.2301-.6602.4601-.9901.6801-.46.3199-.9301.63-1.39.9301-.3199.21-.6499.4199-.97.6299-.51.3301-1.01.6401-1.52.9501-.28.1801-.5601.35-.84.51-.5599.35-1.13.6801-1.7001,1.01-1.0898.62-2.1899,1.23-3.3099,1.7999-.65.3501-1.3099.6801-1.97,1-.91.4501-1.8199.8801-2.75,1.29-.4701.21-.9401.41-1.41.6101-.5601.25-1.12.47-1.6799.7-.2001.08-.41.1599-.6201.24-15.24,5.9399-32.7,6.8899-50.0499,6.8899-19.0599,0-36.36-1.75-52.7101-8.7699-.0898-.02-.1699-.0599-.25-.1-.6599-.28-1.3099-.5801-1.97-.8801-.6499-.2999-1.3-.5999-1.9399-.9199-.42-.1899-.8401-.39-1.26-.61-16.73-8.39-28.97-20.1-41-34.63-6.24-7.53-14.6699-16-19.3501-24.8101-.1499-.28-.2899-.5699-.4399-.85-.23-.45-.45-.9-.6599-1.36-3.2001-6.8201-4.8901-13.77-6.5701-21.11,7.11,13.23,17.89,28.53,34.8501,39.78,45.0698,29.91,102.0099,10.1,105.3899,8.87,6.3201-2.3,51.76-19.7,72.52-68.3501,16.39-38.3999,7.76-73.6899,5.22-83.48-6-23.0699-16.6599-37.5499-22.76-46.73,1.1101.65,2.21,1.3,3.3,1.96.9199.55,1.8301,1.1101,2.74,1.6801,1.87,1.16,3.71,2.36,5.53,3.59.79.53,1.5699,1.0701,2.35,1.6201.48.33.9501.6599,1.42,1.01.6499.45,1.28.9199,1.9199,1.3899.15.1101.3.22.4399.3301.4901.35.9701.72,1.4501,1.1.0599.0499.12.09.1801.14.2.1299.3799.28.5699.4299.02.02.04.03.0599.05.29.23.5901.46.8801.6899.3099.25.6199.49.9299.75.02.02.04.03.0601.05.4299.3301.86.6899,1.29,1.04.0299.02.0499.04.0798.0599.4202.35.8401.7101,1.25,1.0599.8501.7201,1.6901,1.4601,2.51,2.2001.04.04.0901.08.1301.11.85.77,1.6899,1.55,2.51,2.3501.4199.3999.83.7999,1.24,1.21.3699.36.73.73,1.09,1.1,2.0499,2.09,4.01,4.2799,5.87,6.5599.37.4501.74.91,1.1,1.3801.37.46.7301.9299,1.08,1.3999.3601.47.7101.95,1.0601,1.4301.35.48.6899.96,1.02,1.4399,15,21.64,17.3999,48.7101,17.3999,77.03,0,18.1901,2.6702,34.74-3.7999,50.5499Z"/>
      <path class="cls-4" d="M398.3655,235.058c-5.2535-8.9047-20.4209-8.5018-37.8262-7.8262-13.9972.5433-32.4491,1.4473-54,11.4783-3.0714,1.4296-20.1267,9.5859-32.0869,25.826-3.703,5.0281-5.5767,9.0103-4.174,11.7391,2.3567,4.585,12.7994,3.3711,14.8696,3.1305,12.4861-1.4513,15.8928-7.8837,29.2174-14.6088,16.3318-8.2428,32.2981-9.2208,36.2609-9.3912,8.1937-.3524,11.9348.7311,26.8695,0,13.5411-.6628,18.0592-1.9254,20.6088-5.4783,2.8959-4.0354,2.8552-10.4722.2609-14.8695Z"/>
      <path class="cls-4" d="M259.3221,286.4492c-1.4364.2814-5.5067,1.4401-13.0436,16.174-4.2352,8.2794-6.5295,14.9113-6.7826,15.6521-4.6882,13.7235-8.5214,24.9438-7.0435,38.8696.3085,2.9062,1.9958,18.8055,8.0869,19.826,3.8439.644,8.5989-4.7786,10.4348-9.913,1.8203-5.0908.2823-8.532-.2609-13.8262-1.3501-13.157,4.8053-24.4834,8.0869-30.5217,5.201-9.5702,9.9357-12.0427,12-21.9131,1.1079-5.2972.5188-8.2888-1.0435-10.4347-2.2731-3.1223-6.7396-4.6371-10.4347-3.9131Z"/>
    </g>
  </g>
</svg>