<?xml version="1.0" encoding="UTF-8"?>
<svg id="Capa_2" xmlns="http://www.w3.org/2000/svg" viewBox="0 0 577.2444 602.1519">
  <defs>
    <style>
      .cls-1 {
        fill: #44911c;
      }

      .cls-2 {
        fill: #639648;
      }

      .cls-3 {
        fill: #367710;
      }

      .cls-4 {
        fill: #57a529;
      }

      .cls-5 {
        fill: #acd696;
      }

      .cls-6 {
        fill: #94c67d;
      }

      .cls-7 {
        fill: #70a856;
      }

      .cls-8 {
        fill: #7bb662;
      }
    </style>
  </defs>
  <g id="Capa_1-2" data-name="Capa_1">
    <g>
      <g>
        <path class="cls-8" d="M558.8633,236.7379c6.4893,30.2955,7.6516,61.4478,4.0504,92.1033-9.2866,79.0616-50.2488,154.8094-113.2084,203.9976-52.9284,41.3541-121.7808,64.65-188.2124,54.7244-22.9708-3.4288-45.0965-10.68-66.0074-20.7359-18.791-9.022-36.6054-20.2931-53.1792-33.0981-5.8653-4.5187-11.5664-9.2291-17.1049-14.0996-51.9163-45.6511-91.2562-106.5857-106.4352-174.0267C-6.4681,233.494,44.529,124.7448,130.2565,63.3891,187.235,22.6092,259.556,2.7657,335.0341,16.7876c13.8558,2.5685,27.4231,6.2885,40.6088,11.051,16.2834,5.8741,31.9704,13.3187,46.8734,22.148,68.0402,40.2664,119.7082,109.1143,136.3471,186.7514Z"/>
        <path class="cls-5" d="M286.7058,12.3112c15.8818-.0002,32.0294,1.4485,48.3284,4.4764,13.8557,2.5686,27.4231,6.2885,40.6088,11.0509,16.2833,5.8741,31.9703,13.3188,46.8733,22.148,68.0402,40.2664,119.7081,109.1143,136.3471,186.7515,6.4892,30.2954,7.6516,61.4478,4.0503,92.1032-9.2865,79.0617-50.2488,154.8095-113.2083,203.9977-44.7294,34.9481-100.8412,57.0018-157.2439,57.0018-10.3387,0-20.6779-.7399-30.9686-2.2775-22.9706-3.4288-45.0966-10.68-66.0074-20.7359-18.7909-9.022-36.6053-20.2931-53.1791-33.0981-5.8655-4.5187-11.5665-9.2291-17.105-14.0996-51.9163-45.6511-91.2561-106.5858-106.4351-174.0267C-6.4682,233.494,44.529,124.7448,130.2564,63.3891c44.6745-31.9738,98.7847-51.0769,156.4493-51.0779M286.7094,0v12.3112l-.0014-12.3112c-58.25.0009-114.827,18.4585-163.6168,53.3777-22.3287,15.9808-42.3769,35.0038-59.5875,56.5407-17.3354,21.6929-31.4567,45.5203-41.9716,70.8202C-.7449,234.3398-5.8546,292.2838,6.7555,348.3064c15.1212,67.1842,54.299,131.3114,110.3162,180.5686,5.813,5.1118,11.7753,10.0263,17.7212,14.607,17.8322,13.7771,36.4638,25.3692,55.364,34.4437,22.8821,11.0039,46.2739,18.3442,69.5184,21.8139,10.713,1.6007,21.7444,2.4123,32.7861,2.4123,28.9692,0,58.3334-5.4378,87.2769-16.1623,27.6857-10.2584,53.7762-24.877,77.5468-43.4494,31.9655-24.9736,59.6063-57.6703,79.934-94.5553,20.0334-36.351,33.1466-77.0536,37.9218-117.7073,3.8423-32.708,2.416-65.0469-4.2393-96.118-8.4579-39.4642-26.0999-78.2295-51.0191-112.1061-24.5016-33.309-56.0021-61.893-91.0961-82.6618-15.6625-9.2792-32.1387-17.0636-48.9658-23.1338-13.9209-5.028-28.2357-8.923-42.5425-11.5751-16.7242-3.1069-33.7396-4.6826-50.5687-4.6826h0Z"/>
      </g>
      <path class="cls-6" d="M80.3037,460.301c-9.2241-10.9989-16.9017-23.4714-23.452-36.2609C7.6281,327.9307,15.1435,206.0586,82.8673,120.7401c13.2804-16.7307,28.5859-31.863,45.556-44.8423,48.613-37.1809,110.5879-56.4938,171.7168-53.5111,7.7345.3774,15.927,1.2758,22.048,6.019,9.3149,7.2182,10.5702,21.7631,4.9279,32.1089s-16.6065,16.8564-27.9154,20.1699-23.2028,3.8978-34.8983,5.3422c-49.7821,6.1485-97.4721,28.7472-133.3988,63.7519-35.9268,35.0047-59.8053,82.2639-66.1642,132.0195-5.5783,43.6481,2.0835,88.2727,17.0305,129.6595,8.7819,24.3162,20.0923,47.8509,25.794,73.0678-10.3871-6.5217-19.3869-14.8362-27.26-24.2242Z"/>
      <path class="cls-7" d="M558.8633,236.7379c6.4893,30.2955,7.6516,61.4478,4.0504,92.1033-9.2866,79.0616-50.2488,154.8094-113.2084,203.9976-52.9284,41.3541-121.7808,64.65-188.2124,54.7244-43.5995-6.5098-84.1568-26.7803-119.1866-53.834,4.8955,1.5193,9.9652,3.1037,15.216,4.7411,36.5843,11.4057,47.0966,15.5293,66.591,17.0182,43.8212,3.3512,78.3548-10.7737,95.2377-17.889,66.1895-27.9169,132.0421-92.1329,152.7581-176.3888,14.4694-58.8601,3.3432-112.9497-2.7044-142.3411-6.3257-30.7468-15.3034-54.4607-18.3679-62.314-3.3003-8.4309-14.7051-36.6661-44.8444-84.1208-12.5608-19.7642-22.7707-34.0611-30.5495-44.5963,90.5872,32.6773,162.942,114.2518,183.2205,208.8994Z"/>
      <path class="cls-1" d="M494.8261,342.4258c3.1896,35.6199-3.5664,72.224-19.3598,104.372-24.3584,49.5739-69.9586,88.323-122.8963,104.0907-62.7051,18.6757-134.4757,3.8129-184.319-38.5367-.9311-.7974-1.8623-1.5948-2.7768-2.4071-26.5731-23.5146-45.967-54.7351-56.3718-88.6025-7.6314-24.8725-10.4413-51.2905-7.6529-77.1977,2.5584-23.8476,16.66-47.5087,30.4709-66.8179,29.1986-40.8393,72.0436-71.7784,119.8287-87.1021,38.7553-12.4158,81.2794-14.9951,120.1693-3.0026,15.5551,4.8013,30.2747,11.9472,43.7718,20.9855,30.3758,20.3445,54.4969,50.2745,67.6752,84.4722,6.1489,15.9606,9.9323,32.7435,11.4608,49.7462Z"/>
      <path class="cls-2" d="M558.8633,236.7379c6.4893,30.2955,7.6516,61.4478,4.0504,92.1033-9.2866,79.0616-50.2488,154.8094-113.2084,203.9976-52.9284,41.3541-121.7808,64.65-188.2124,54.7244-22.9708-3.4288-45.0965-10.68-66.0074-20.7359,3.842.7668,8.917,3.174,12.9812,4.317,25.7557,7.243,37.9146,10.3845,58.3685,10.9278,12.9986.3374,58.2913.5886,103.0514-18.0593,64.7643-26.9648,113.247-84.9842,124.0001-102.4241,45.8264-74.3028,39.6222-147.9508,36.5705-181.8642-4.6097-51.0947-22.4517-93.3631-35.2326-125.0442-20.5442-50.9374-57.5143-81.9625-72.7084-104.6937,68.0402,40.2664,119.7082,109.1143,136.3471,186.7514Z"/>
      <path class="cls-5" d="M245.476,30.7443c-5.651.4749-11.2768,1.3264-16.8133,2.4883-17.9621,3.7693-35.1074,10.7043-51.7528,18.4359-12.6645,5.8825-25.134,12.3104-36.7222,20.1344-5.7975,3.9143-11.367,8.1783-16.5529,12.8767-2.5833,2.3404-5.071,4.787-7.4396,7.3447-1.0646,1.1495-6.2977,5.7043-5.3774,7.4586.8902,1.697,3.6144-.6249,4.5742-1.3851,47.6505-37.741,107.1417-59.9781,167.787-64.1117-12.211-3.4765-25.0203-4.3076-37.7029-3.2417Z"/>
      <path class="cls-5" d="M97.0977,110.4743c-.9398-.6916-15.4797,15.6366-28.2585,35.3359-16.6853,25.7212-24.5687,48.2492-27.8786,58.8082-6.7325,21.4775-9.5975,41.4618-8.5735,41.7146,1.1703.2888,5.7652-25.6014,18.6977-56.7634,20.0974-48.4263,47.2877-78.157,46.0129-79.0952Z"/>
      <path class="cls-4" d="M163.277,258.7802c11.0442-23.388,47.2796-45.7419,47.2797-45.7419,27.9204-14.0444,44.1971-22.3129,88.5223-25.8581,22.0195-1.7612,45.3121-2.005,61.5987,4.5971,2.1018.852,26.9089,11.1756,26.2855,24.0329-.7466,15.3972-37.4743,24.3461-43.668,25.8553-26.4037,6.4334-34.2788.0951-72.3867.8818-35.3321.7295-57.15,1.1799-78.1717,14.9791-19.7735,12.9798-31.9722,33.26-35.8024,30.6857-1.943-1.3059-.4018-7.5988,1.5621-15.6177,0,0,1.8778-7.6671,4.7806-13.8142Z"/>
      <path class="cls-4" d="M138.356,312.1118c1.3125-5.3013-3.8908-9.872-8.9849-7.9031-1.2369.4781-2.4934,1.0608-3.7486,1.7697-10.8414,6.123-14.4312,17.6195-17.4088,27.6714-5.1005,17.2186-3.694,31.5259-2.1561,45.7335,1.6651,15.3834,5.757,35.9298,8.8455,35.7225,2.3182-.1556,1.5726-11.8355,5.552-33.681,2.7391-15.0366,4.7578-18.6457,12.8664-49.5643,1.968-7.5041,3.6577-14.188,5.0344-19.7486Z"/>
      <path class="cls-3" d="M494.8261,342.4258c3.1896,35.6199-3.5664,72.224-19.3598,104.372-24.3584,49.5739-69.9586,88.323-122.8963,104.0907-62.7051,18.6757-134.4757,3.8129-184.319-38.5367,11.6262,4.537,25.3261,8.8013,40.747,11.6146,46.5729,8.5082,83.42-.8349,91.821-3.0981,16.0557-4.3369,67.5127-18.9808,103.2274-66.4872,40.2684-53.5788,35.9745-116.2739,33.7574-148.5524-2.9822-43.5119-15.1554-76.8707-22.1137-97.6213,30.3758,20.3445,54.4969,50.2745,67.6752,84.4722,6.1489,15.9606,9.9323,32.7435,11.4608,49.7462Z"/>
      <path class="cls-7" d="M330.3038,90.4286c-4.5305-1.2986-9.2911-1.6745-13.9709-.9059-29.7212,4.8815-31.6453,44.8265-7.4414,58.3456,10.9738,6.1294,25.3999,5.4598,35.7589-1.6596,4.4862-3.0832,8.2492-7.3243,10.3356-12.3522,3.9171-9.4398,1.4225-20.6818-4.4699-29.0325-4.8534-6.8782-12.1704-12.0903-20.2123-14.3954Z"/>
      <path class="cls-7" d="M181.3827,153.2632c-13.1722-6.5935-27.9175,1.8517-34.9692,8.6333-11.6181,11.1731-18.5821,33.4384-6.888,46.2537,9.812,10.7526,28.2469,9.9072,40.1422,2.5119,13.3851-8.3216,15.5696-23.1211,15.7857-24.7748,1.3507-10.3384-1.4338-26.2985-14.0707-32.6241Z"/>
      <path class="cls-7" d="M83.2341,307.7583c-6.2265.5612-11.7903,7.677-11.6645,14.873.1476,8.4412,8.1094,16.1317,15.8281,15.0542,5.1944-.7251,9.2395-5.2758,10.4367-9.8518,2.4053-9.194-6.0701-20.8443-14.6003-20.0753Z"/>
      <path class="cls-7" d="M438.2289,185.7561c-4.3536.3924-8.244,5.3678-8.156,10.3994.1032,5.9022,5.6702,11.2795,11.0672,10.5261,3.632-.507,6.4604-3.6889,7.2974-6.8885,1.6818-6.4285-4.2443-14.5746-10.2087-14.0369Z"/>
      <path class="cls-2" d="M516.5779,253.5512c-2.7567-7.0355-10.174-14.325-19.5157-13.4732-7.9071.721-13.6944,6.9558-15.8147,13.1288-3.3194,9.6642,1.2704,22.3174,11.6583,25.9861,7.5275,2.6585,16.7232.1129,21.7035-6.6573,6.0152-8.177,2.4255-17.8184,1.9686-18.9845Z"/>
      <path class="cls-2" d="M434.3886,78.7237c-3.0597-.3112-6.809.8763-8.721,3.6769-3.5836,5.249-.019,15.1486,7.0832,17.9247,4.5048,1.7608,10.7644.7854,13.018-2.8549,3.5703-5.7673-3.1116-17.9057-11.3801-18.7467Z"/>
      <path class="cls-8" d="M200.0716,69.5351c-8.4327-7.4226-28.1605-1.0002-30.3539,10.5852-1.3088,6.9129,3.5657,15.9796,12.1335,18.5344,8.8492,2.6388,17.751-2.828,21.0543-10.4042,2.7114-6.2186,1.9375-14.5156-2.834-18.7154Z"/>
      <path class="cls-8" d="M90.3568,160.6164c-7.0065-4.3144-18.7018.4138-23.5743,8.6751-5.1061,8.6573-3.2383,22.0742,4.8503,25.8716,6.6997,3.1453,15.3103-1.4153,19.6435-6.7544,6.7065-8.2632,6.893-22.9814-.9195-27.7922Z"/>
    </g>
  </g>
</svg>