<?xml version="1.0" encoding="UTF-8"?>
<svg id="Capa_2" xmlns="http://www.w3.org/2000/svg" viewBox="0 0 580.1144 584.2373">
  <defs>
    <style>
      .cls-1 {
        fill: #70569b;
      }

      .cls-2 {
        fill: #5f488c;
      }

      .cls-3 {
        fill: #9570c2;
      }

      .cls-4 {
        fill: #b29ad8;
      }

      .cls-5 {
        fill: #604593;
      }

      .cls-6 {
        fill: #47327c;
      }

      .cls-7 {
        fill: #a486ce;
      }

      .cls-8 {
        fill: #735aaf;
      }

      .cls-9 {
        fill: #8566b2;
      }
    </style>
  </defs>
  <g id="Capa_1-2" data-name="Capa_1">
    <g>
      <g>
        <path class="cls-3" d="M237.6794,580.2302c-4.3203,0-8.1069-1.2231-10.9502-3.5366-3.6934-3.0142-4.1436-6.3501-5.1299-13.6582-.4277-3.1685-1.0132-7.5078-2.0273-13.2764-1.9609-11.2368-3.1548-14.3936-5.0898-17.2202-2.4912-3.5703-6.4175-6.4668-9.269-8.2632-6.3057-3.9678-11.4302-5.1152-22.6582-7.6294l-3.2183-.7222c-10.0781-2.2686-13.6987-3.2305-16.8931-4.0791-3.2319-.8584-6.2842-1.6694-15.6943-3.7358-3.7803-.8315-6.7373-1.459-9.1001-1.9604-7.7983-1.6553-9.6514-2.0483-13.083-3.9121-4.877-2.6396-9.3262-6.3047-13.2192-10.8911-.1084-.1235-.2163-.2554-.314-.3799-3.8037-4.5508-6.2842-9.0283-7.6196-11.4385-1.1011-1.9775-2.0259-3.8564-2.8237-5.7373-.2378-.563-.4629-1.0996-.6665-1.6255-1.3105-3.3394-2.0747-6.2627-2.749-8.8413-1.3003-4.9739-2.3271-8.9023-6.7344-14.595-4.458-5.762-8.9712-8.9207-10.7046-10.0112-5.8188-3.6887-11.0776-4.7522-19.791-6.5142-5.9604-1.2041-11.5703-2.3374-18.605-2.3374-1.021,0-2.0654.0244-3.1045.0728-2.1597.0969-3.7456.27-5.0195.4089-1.166.1272-2.1733.2371-3.1641.2371-1.6436,0-3.0605-.3049-4.5947-.9893-8.2817-3.7083-13.3608-16.095-10.8755-26.51,1.7466-7.2837,6.8071-12.0259,14.4683-19.2039,1.2559-1.1812,2.3867-2.1675,3.3843-3.0376,2.3936-2.0879,4.123-3.5964,6.2817-6.5715,2.9502-4.0718,4.4478-7.7751,4.9546-9.1785,1.5068-4.1768,1.9341-7.8818,1.3267-20.3635-.3706-7.6907-.6157-12.7705-1.5391-20.8708-1.0317-9.0161-2.3203-15.9995-4.6597-28.6765-1.7896-9.6985-3.2026-17.3589-4.1958-19.0334-2.3872-4.021-4.8506-5.553-8.2603-7.6731-3.438-2.1377-7.7168-4.7981-12.5112-10.5974-4.3374-5.2461-11.5845-14.0115-9.4351-23.7659,2.0386-9.2549,11.2183-13.8831,20.0957-18.3589,6.8638-3.4622,11.5479-4.5461,15.312-5.417,3.9448-.9131,6.3262-1.4641,9.79-4.2947,8.0181-6.542,10.0093-16.0732,10.3267-17.9175.1748-.9668.2949-1.9351.3726-2.9932.8721-11.8423,6.8555-22.606,16.4155-29.5317,4.4077-3.1895,8.6675-6.626,12.6626-10.2156,11.104-9.9575,17.8052-15.9666,22.4985-26.323,6.8735-15.1587,6.9526-33.5696,6.9526-34.3459-.0127-2.2534-.1196-4.2581-.2144-6.0266-.2881-5.3865-.5151-9.6411,2.1963-15.0732,6.1226-12.2107,19.833-15.5369,20.4136-15.6726,2.0278-.4822,4.0127-.7183,6.0537-.7183,2.9248,0,5.7339.4634,9.29,1.05l1.4873.2444c16.2388,2.6567,24.3896,3.9902,28.9668,4.0088l.1621.0005c9.1162,0,18.6514-4.908,37.6479-14.686,3.9277-2.0193,6.9585-3.7092,9.6323-5.2004,7.2188-4.0254,11.1953-6.2427,18.5493-6.7058.7729-.0491,1.5239-.0742,2.231-.0742,3.4683,0,5.8564.5984,8.3853,1.2319,2.8569.7158,6.0947,1.5271,12.3613,1.9744,1.02.0718,2.167.1069,3.5034.1069,4.6396,0,11.2588-.4187,22.5596-1.1587,10.2471-.6682,19.0957-1.2451,20.6851-1.802,3.9263-1.6206,10.895-6.9631,23.5454-16.6616l.3164-.2424c3.8379-2.9395,6.8696-5.2612,11.499-5.3022l.1108-.0005c8.314,0,14.085,7.4661,17.1851,11.4771,2.7446,3.5334,3.7632,5.8699,5.793,10.5244.9883,2.2664,2.2183,5.0867,4.0552,9.0054l.123.262c4.061,8.6531,6.0996,12.9963,8.2217,15.593,5.1978,6.3743,11.4302,9.6479,15.9805,12.0383,1.6055.8447,2.168,1.0623,5.29,2.2681,2.1792.8418,5.4727,2.114,11.0273,4.3398,10.0991,4.042,14.2832,5.7397,16.4131,7.1794,9.4302,6.4446,13.9297,15.2957,15.4082,18.2043,1.354,2.6494,1.8677,4.2378,2.5186,6.249.6841,2.1162,1.5361,4.7502,3.853,10.1589,2.5439,5.9302,3.7334,8.6372,5.2495,10.6367.4312.564.8472,1.1086,2.626,2.604,1.4937,1.2776,3.6934,3.0234,6.9473,5.5159.5186.3997,2.7192,2.0789,2.7192,2.0789,1.1099.8467,2.0947,1.592,2.9668,2.2524l1.8364,1.3931s.7124.5483.8735.6772c3.1499,2.4329,4.5649,3.7119,6.1289,5.9641,2.2002,3.1494,2.8428,5.6011,3.4648,7.9722.3096,1.1812.6299,2.4028,1.1782,3.8726,2.8325,7.6082,7.958,12.1958,13.3848,17.0527,3.1919,2.8547,9.1104,8.1477,18.2275,11.3469,1.5029.5244,1.9683.6089,3.7007.9229,2.0669.3748,5.5259,1.002,13.4956,2.8665,6.1177,1.4314,11.7061,2.887,18.1455,6.2112,6.418,3.322,9.4961,6.3052,10.627,10.2986.5986,2.1255.9111,5.5405-.9902,9.7734-2.564,5.7556-7.3159,8.0481-12.3462,10.4751-1.4976.7224-3.0459,1.4695-4.6221,2.3459-2.6895,1.4941-10.8354,6.021-15.3936,13.1304-6.1812,9.6243-4.1196,21.7998-3.3433,26.3833.7109,4.1929,1.5796,6.0474,2.7822,8.6143,1.2446,2.6565,2.7935,5.9626,4.459,12.4536,3.2271,12.5803,3.2466,22.7236,3.2559,27.5984.0103,8.7454.019,16.2842-2.7769,25.6714-.5103,1.7153-1.0176,3.1724-1.5547,4.7151-.9399,2.7004-1.9121,5.4929-3.0981,10.2419-2.3579,9.4917-1.7993,11.7139-1.561,12.6628.4956,1.9961,2.6021,4.8079,6.5947,10.0195,2.4365,3.1782,4.0972,5.1152,5.4316,6.6719,1.6768,1.9558,3.001,3.5007,4.6812,6.1228.5117.8015.9927,1.5442,1.4438,2.2405,3.4185,5.2769,5.6772,8.7629,4.8511,13.1785-1.2583,6.823-8.0776,10.2468-10.9897,11.709-4.0776,2.0425-7.0708,2.3174-9.9658,2.5835-1.7354.1594-3.3745.3098-5.4438.8486-4.7744,1.2473-7.7222,3.5713-14.1812,8.6631-7.123,5.6108-13.2676,10.4504-17.144,18.4299-2.2861,4.7188-2.3843,7.6689-2.4878,10.792-.1162,3.5037-.248,7.4749-3.3813,12.9324-5.9141,10.3271-15.8926,14.958-23.1782,18.3394-5.0425,2.3369-8.127,3.0293-11.3931,3.7622-3.167.7109-6.7568,1.5166-13.3257,4.144-10.5513,4.2222-15.293,6.2637-17.1206,10.4141-.229.5229-.2773,1.6099-.5093,8.9336-.0552,1.7412-.1206,3.812-.2036,6.2852-.2192,6.7788-.2817,7.9092-.3374,8.9062-.0415.7515-.0781,1.417-.1821,4.6489-.083,2.6484-.1426,4.8604-.1924,6.7114-.2515,9.3525-.2969,11.0376-2.582,13.2554-1.9424,1.8823-4.6226,2.8359-7.9688,2.8359-5.9146,0-13.6235-2.9746-21.7856-6.124-4.3564-1.6851-7.2427-3.0884-9.7896-4.3262-3.6812-1.7896-6.3403-3.0825-11.6934-4.4121-4.4331-1.1025-7.3569-1.772-10.5835-1.772-1.1577,0-2.2983.0894-3.4883.2734-2.1992.3428-3.3701.8291-7.2495,2.4395-1.8936.7861-4.2495,1.7646-7.5513,3.0674-4.3271,1.7109-8.416,3.3276-12.7153,4.7715-8.6182,2.8936-15.3618,5.1577-23.5747,5.4263-.4917.0156-.9526.0229-1.3887.0229-3.8979,0-6.1382-.606-8.5103-1.2476-2.4165-.6538-5.1548-1.3945-10.9438-1.9199-4.3184-.394-7.7275-.7056-10.7642-.7056-3.6211,0-6.4424.457-9.4336,1.5278-3.5483,1.2705-8.9678,4.0293-14.6338,9.9561-2.0229,2.1147-3.1411,3.7349-4.1279,5.1646-1.5107,2.189-2.938,4.2563-6.2749,6.0337-3.0928,1.645-6.9858,2.5874-10.6831,2.5879Z"/>
        <path class="cls-4" d="M358.2039,8.0146c6.3235-.0005,11.166,6.2349,14.0148,9.9204,3.65,4.7,3.77,6.79,9.39,18.78,4.2799,9.1199,6.4099,13.6799,8.87,16.6899,5.7,6.99,12.48,10.5601,17.22,13.05,3.04,1.5999,3.04,1.3098,16.6899,6.78,9.2201,3.6899,13.8701,5.5698,15.6601,6.7798,8.37,5.7202,12.56,13.7102,14.08,16.7002,2.54,4.97,1.69,5.5,6.2599,16.1699,2.5701,5.99,3.8901,9.04,5.7401,11.48.65.8501,1.29,1.6101,3.24,3.25,1.45,1.24,3.63,2.98,7.09,5.6301.83.6399,1.74,1.3298,2.72,2.0798,1.98,1.51,3.55,2.6899,4.81,3.6501.2799.22.55.4199.8.6199,2.9901,2.3101,4.09,3.3201,5.34,5.1201,2.78,3.98,2.43,6.27,4.18,10.96,3.18,8.54,8.95,13.7,14.48,18.6499,3.5,3.1301,9.8701,8.73,19.56,12.1301,3.8101,1.3298,2.65.4099,17.61,3.9099,5.77,1.3501,11.0599,2.6899,17.22,5.8701,6.26,3.24,7.97,5.5698,8.61,7.8298.89,3.1602-.35,6.0601-.79,7.04-2.62,5.8801-8.4801,7.1899-15.26,10.96-2.79,1.55-11.71,6.5-16.82,14.47-7.02,10.9302-4.77,24.2002-3.92,29.22,1.5799,9.3201,4.12,8.9602,7.31,21.3901,3.05,11.8899,3.12,21.52,3.13,26.6099.01,8.6401.02,15.6902-2.6101,24.52-1.3599,4.5701-2.7899,7.48-4.6999,15.1301-2.43,9.78-2.03,12.74-1.56,14.6099.6999,2.8201,2.91,5.75,7.3,11.4802,5.5199,7.2,7.12,8.1499,9.92,12.5198,4.01,6.28,6.34,9.26,5.7299,12.52-.8999,4.8801-6.4099,7.6401-8.8599,8.8701-5.63,2.8201-8.6201,1.5701-14.61,3.1299-5.59,1.4602-8.95,4.1101-15.6601,9.4001-7.2999,5.75-13.9899,11.03-18.2599,19.8198-5.32,10.9802-.47,14.3-5.7401,23.4802-5.2799,9.22-14.56,13.5298-21.3899,16.7-9.43,4.3699-10.97,2.3999-24.52,7.8198-11.12,4.4502-16.79,6.8201-19.3,12.52-.67,1.53-.56,2.02-1.05,16.7002-.39,12.0598-.28,6.0898-.52,13.5598-.46,14.6902-.2,15.9001-1.56,17.22-1.2408,1.2026-3.0135,1.7041-5.1779,1.7041-5.1791,0-12.606-2.8696-20.3921-5.874-10.3401-4-12.29-6.48-21.91-8.8699-4.2241-1.0505-7.7163-1.8901-11.5503-1.8901-1.3123,0-2.664.0981-4.0997.3201-3.91.6099-5.27,1.6399-15.66,5.74-4.3,1.7-8.35,3.3-12.52,4.7-8.37,2.8101-14.78,4.97-22.43,5.22-.4425.0139-.8611.0208-1.2568.0208-6.9547,0-7.1999-2.072-19.0932-3.1506-4.3677-.3987-7.9153-.7219-11.1266-.7219-3.7955-.0002-7.1216.4509-10.7834,1.762-8.49,3.0398-14.44,9.1399-16.18,10.96-5.2901,5.53-5.09,8.1399-9.39,10.4299-2.4516,1.3042-5.6445,2.1177-8.7993,2.1177-3.0862,0-6.136-.7783-8.4207-2.6377-3.64-2.97-2.56-6.4299-5.7401-24.52-2.0799-11.9199-3.4299-15.4299-5.7299-18.79-.83-1.1899-3.66-5.1199-10.44-9.3899-7.5-4.72-13.3-5.75-27.1299-8.8701-20.26-4.5598-13.85-3.7-32.61-7.8198-15.96-3.51-17.3-3.4001-21.13-5.48-5.1-2.76-9.04-6.3801-12.1-9.99-.08-.0901-.16-.1902-.23-.28-3.41-4.0701-5.69-8.0801-7.23-10.8601-1.08-1.9399-1.94-3.71-2.64-5.3599-.22-.52-.4301-1.02-.62-1.51-3.6801-9.3801-2.6801-14.9202-10.05-24.4402-5.2-6.72-10.5-10.1699-11.74-10.95-6.42-4.0701-12.08-5.22-21.13-7.05-6.0191-1.2161-11.9551-2.4167-19.3997-2.417-1.0647,0-2.1592.0247-3.2903.0771-4.1791.1877-6.296.6416-7.9977.6416-1.0184,0-1.8878-.1624-2.9623-.6416-6.7001-3-10.61-13.54-8.61-21.9202,1.46-6.0898,5.8499-10.22,13.31-17.21,4.18-3.9299,6.76-5.48,10.17-10.1799,3.47-4.79,5.09-9.0901,5.48-10.1699,1.84-5.1001,2.16-9.5901,1.56-21.9202-.38-7.8799-.63-12.97-1.56-21.1299-1.03-9-2.27-15.78-4.7-28.95-2.2201-12.03-3.3501-18.0901-4.69-20.3501-5.61-9.45-12.11-7.8699-21.13-18.78-4.01-4.8499-10.3401-12.5-8.61-20.3499,1.63-7.4001,9.65-11.4402,18-15.6501,13.6-6.8599,17.89-3.7,25.82-10.1799,9.34-7.6201,11.43-18.54,11.74-20.3401.2099-1.1599.34-2.29.42-3.3799.78-10.5901,6.17-20.3501,14.77-26.5801,5.03-3.6399,9.35-7.21,12.99-10.48,11.43-10.25,18.44-16.55,23.4699-27.6499,7.2601-16.01,7.31-35.22,7.31-36-.0499-9-1.4799-13.22,1.56-19.3101,5.2201-10.4099,17.1401-13.4199,17.7401-13.5601,1.8312-.4355,3.4802-.6133,5.1421-.6133,2.8033,0,5.6445.5056,9.4679,1.1333,16.87,2.76,25.3,4.1499,30.26,4.1699.0594.0005.1188.0005.1782.0005,10.0773,0,19.9171-5.0598,39.4818-15.1304,14.5099-7.46,17.71-10.9099,26.6-11.47.7108-.0452,1.3661-.0662,1.9786-.0662,6.4456,0,8.1787,2.3193,20.4614,3.196,1.1257.0793,2.3708.1169,3.789.1169,4.843,0,11.7136-.4397,22.821-1.167,13.34-.8699,20.05-1.3198,21.91-2.0798,4.46-1.8401,11.15-6.97,24.52-17.22,3.75-2.8701,6.01-4.6702,9.39-4.7002.0248-.0002.0504-.0002.0752-.0002M358.2047,0l-.1347.0005c-5.9805.0532-9.8329,3.0037-13.9116,6.1274l-.2908.2229c-11.7062,8.9744-18.8691,14.4656-22.4422,16.062-2.1297.4629-10.6413,1.0178-19.6381,1.6042-11.22.7349-17.7866,1.1504-22.2996,1.1504-1.2411,0-2.2964-.032-3.226-.0974-5.9097-.4219-8.9675-1.1877-11.6653-1.8638-2.6531-.6646-5.3964-1.3521-9.3591-1.3521-.7901,0-1.6265.0276-2.486.0823-8.2571.5203-13.0262,3.1794-20.2454,7.2051-2.6464,1.4756-5.646,3.1482-9.5118,5.1357-18.4254,9.4839-27.672,14.2434-35.8173,14.2434l-.1292-.0002c-4.2762-.0173-12.8279-1.4165-28.3525-3.9565l-.6625-.1084-.8195-.135c-3.5893-.592-6.6891-1.1035-9.9424-1.1035-2.3572,0-4.6456.2717-6.9963.8308-1.6119.3765-16.216,4.136-23.0502,17.7646-3.1906,6.3916-2.9128,11.5876-2.6189,17.0884.0966,1.8083.1966,3.6782.2087,5.8586-.0001.6965-.0751,18.2686-6.5947,32.6455-4.3461,9.5908-10.4466,15.0615-21.5215,24.9932-3.898,3.502-8.0471,6.8491-12.3376,9.9539-10.5223,7.6226-17.1053,19.4617-18.0645,32.4841-.0673.9165-.1698,1.7471-.3135,2.5415l-.0061.0334-.0058.0334c-.2751,1.5977-1.9977,9.8525-8.9081,15.4905-2.7461,2.2439-4.4436,2.6367-8.1629,3.4973-3.7638.8711-8.9185,2.064-16.2,5.7368-9.2733,4.6753-19.7695,9.9675-22.2177,21.082-2.5705,11.6628,5.7717,21.7522,10.2535,27.1726,5.218,6.3113,9.8047,9.1636,13.4901,11.4551,3.2174,2.0005,5.0049,3.1123,6.8719,6.2173.8052,1.8027,2.2408,9.582,3.7599,17.8135,2.3227,12.5884,3.6022,19.5227,4.6189,28.4067.9078,7.9651,1.1503,12.9934,1.5174,20.6047.5745,11.8062.2128,15.1926-1.0937,18.8142-.3491.9666-1.7034,4.4219-4.4315,8.1877-1.8884,2.6028-3.3926,3.9148-5.6695,5.9006-1.0238.8931-2.1843,1.9053-3.4997,3.1421-7.8846,7.3877-13.5885,12.7322-15.6139,21.1804-2.9491,12.3572,3.0638,26.5972,13.1284,31.1035,2.055.9167,4.0337,1.3416,6.2375,1.3416,1.2086,0,2.3163-.1208,3.5988-.2607,1.2809-.1396,2.7328-.2981,4.7585-.3889.9901-.0461,1.972-.0691,2.9307-.0691,6.6345,0,12.0542,1.095,17.7921,2.2542,8.56,1.731,13.2647,2.6821,18.4463,5.967,1.235.7771,5.5117,3.6826,9.6927,9.0859,3.9069,5.0466,4.7961,8.4485,6.027,13.1567.7023,2.6865,1.4982,5.7312,2.9005,9.3057.2068.5334.4471,1.1084.6998,1.7058.857,2.02,1.8434,4.0244,3.0187,6.1355,2.0643,3.7266,4.4697,7.7715,8.0103,12.0144.1189.1494.2471.3052.376.4539,4.2144,4.9617,9.0459,8.9353,14.3616,11.812,3.9333,2.136,6.0994,2.5957,14.1583,4.3062,2.3637.5017,5.3054,1.126,9.0648,1.9526,9.327,2.0483,12.1999,2.8118,15.5266,3.6956,3.2294.8579,6.8895,1.8301,17.0452,4.1157,1.1228.2534,2.1965.4939,3.2225.7236,11.0873,2.4822,15.6765,3.5098,21.3984,7.1108,3.5728,2.25,6.4544,4.7939,8.1163,7.1646,1.3414,1.9668,2.4501,4.2798,4.4271,15.6099,1.0019,5.6995,1.5577,9.8181,2.0043,13.1274,1.0279,7.6165,1.6484,12.2136,6.5644,16.2249,3.5737,2.9084,8.2349,4.4424,13.4874,4.4424,4.3962,0,8.858-1.0854,12.5634-3.0566,4.2012-2.2375,6.0562-4.9248,7.6927-7.2959.9457-1.3701,1.9236-2.7866,3.7247-4.6697,5.1273-5.3633,9.9484-7.8296,13.0901-8.9543,2.5655-.9185,4.9069-1.2932,8.0817-1.293,2.8555,0,6.184.304,10.398.6887,5.4471.4939,8.0068,1.1863,10.2652,1.7971,2.5201.6819,5.126,1.3867,9.5568,1.3867.4756,0,.9785-.0081,1.5103-.0247,8.8074-.2878,16.1457-2.7517,24.6429-5.6045l.0845-.0283c4.3862-1.4727,8.5294-3.1104,12.9157-4.8445,3.3309-1.3145,5.8064-2.3423,7.6138-3.0928,3.8754-1.6091,4.6583-1.9202,6.3347-2.1816.9736-.1506,1.9141-.2244,2.8646-.2244,2.7686,0,5.4799.6245,9.6159,1.6531,4.9468,1.229,7.3188,2.3821,10.9094,4.1274,2.617,1.2722,5.5832,2.7141,10.0435,4.4397l.0031.0012.0478.0183c8.5217,3.2883,16.5707,6.3945,23.2327,6.3945,4.4232,0,8.0419-1.3337,10.7557-3.9639,3.4601-3.3579,3.5392-6.2954,3.8011-16.0293.0497-1.8459.109-4.051.1918-6.6951.1028-3.1975.1376-3.8235.1779-4.5486.0568-1.0193.1211-2.1746.3419-9.0029.0822-2.4634.1478-4.5337.2028-6.2749.1243-3.9265.2112-6.6719.3052-7.7268,1.3048-2.4463,5.2435-4.2085,14.8093-8.0369,6.2698-2.5078,9.5459-3.2429,12.7141-3.9539,3.3276-.7468,6.7686-1.519,12.1978-4.0349,7.3403-3.407,18.4261-8.5527,24.9751-19.9888,3.6254-6.3152,3.7814-11.0127,3.9067-14.7871.1008-3.0327.1736-5.2239,2.0911-9.1814,3.4705-7.144,9.0026-11.5017,16.0065-17.0186,6.6564-5.2476,8.9398-6.9524,12.7264-7.9417,1.7462-.4546,3.1588-.5845,4.7944-.7346,2.9587-.272,6.641-.6101,11.3795-2.9836,3.1658-1.5894,11.5306-5.7888,13.1522-14.5828,1.1169-5.9678-1.7727-10.4282-5.4312-16.0752-.4465-.689-.9225-1.4238-1.4255-2.2114-1.8373-2.8674-3.3121-4.5879-5.0199-6.5798-1.3026-1.5195-2.9236-3.4104-5.2946-6.5032-2.8622-3.7358-5.5673-7.2668-5.8818-8.5344-.3622-1.4412.1937-5.2495,1.5594-10.7466,1.1394-4.5635,2.081-7.2686,2.9916-9.8845.5284-1.5181,1.075-3.0876,1.6119-4.8923,2.9625-9.9458,2.9534-17.7551,2.943-26.7971-.0099-5.063-.0306-15.5474-3.3813-28.6101-1.7595-6.8555-3.3965-10.3501-4.7121-13.158-1.1476-2.4497-1.8403-3.9285-2.4593-7.5803-.706-4.1687-2.5795-15.2332,2.7617-23.5493,4.0178-6.2664,11.5004-10.4236,13.9592-11.7898,1.4865-.8264,2.982-1.5481,4.4282-2.2458,5.2045-2.511,11.1036-5.3572,14.2699-12.4634,2.3841-5.3096,1.9604-9.7163,1.1837-12.4746-1.4504-5.1223-5.2299-8.9395-12.6406-12.7749-6.8548-3.5391-12.6953-5.0627-19.0779-6.5562-8.0683-1.8877-11.5899-2.5261-13.694-2.9077-1.6736-.3032-1.8887-.3423-3.1009-.7654-8.3538-2.9314-13.8862-7.8792-16.8583-10.5374-5.2775-4.7239-9.8253-8.7944-12.312-15.4724-.4798-1.2859-.7609-2.3582-1.0586-3.4934-.6777-2.5847-1.4459-5.5144-4.0618-9.2593-1.8685-2.6909-3.5894-4.228-6.963-6.8362-.1629-.1294-.3317-.2593-.5055-.3923l-.2906-.2244-.0463-.0364-.0469-.0356c-.5509-.4199-1.1603-.8813-1.8365-1.3931-.8715-.6597-1.8559-1.405-2.9714-2.2556l-1.0808-.8254c-.564-.4302-1.1-.8389-1.6057-1.2288-3.1699-2.4282-5.3795-4.1809-6.7748-5.3743l-.0251-.0212-.0252-.0212c-1.4413-1.2122-1.7149-1.5701-2.0317-1.9844-1.2122-1.5989-2.3301-4.1521-4.7415-9.772-2.2419-5.2344-3.0624-7.771-3.7216-9.8096-.6777-2.0952-1.263-3.9048-2.767-6.8474-4.2673-8.3943-9.8867-15.0173-16.6943-19.6699-2.4805-1.6768-6.3566-3.2622-17.2045-7.6038-5.5761-2.2346-8.8835-3.5122-11.0722-4.3574-3.1729-1.2258-3.5054-1.3596-4.8631-2.0742-4.4866-2.3567-10.0638-5.2866-14.7411-11.0225-1.8144-2.22-3.9067-6.6787-7.7051-14.7725l-.1208-.2573c-1.8119-3.8657-3.0297-6.6584-4.0082-8.9023-2.0953-4.8049-3.2495-7.4514-6.3071-11.3887-3.2591-4.2163-10.0637-13.0193-20.344-13.0193h0Z"/>
      </g>
      <path class="cls-9" d="M570.9987,211.1051c-2.62,5.88-8.48,7.1899-15.26,10.96-2.79,1.55-11.71,6.5-16.82,14.47-7.02,10.9301-4.77,24.2001-3.92,29.22,1.58,9.3201,4.12,8.9601,7.31,21.3901,3.05,11.8899,3.12,21.52,3.13,26.6098.01,8.6401.02,15.6901-2.61,24.52-1.36,4.5701-2.79,7.48-4.7,15.1301-2.43,9.7799-2.03,12.74-1.56,14.6099.7,2.8201,2.91,5.75,7.3,11.4801,5.52,7.2,7.12,8.15,9.92,12.5199,4.01,6.28,6.34,9.26,5.73,12.52-.9,4.8801-6.41,7.6401-8.86,8.8701-5.63,2.8199-8.62,1.5699-14.61,3.1299-5.59,1.4601-8.95,4.1101-15.66,9.4-7.3,5.75-13.99,11.03-18.2599,19.8199-5.32,10.9801-.47,14.3-5.7401,23.4801-5.28,9.22-14.56,13.5299-21.39,16.7-9.43,4.37-10.97,2.4-24.52,7.8199-11.12,4.4501-16.79,6.8201-19.3,12.52-.67,1.53-.56,2.02-1.05,16.7001-.39,12.0599-.28,6.09-.52,13.5599-.46,14.6901-.2,15.9-1.56,17.22-4.21,4.0801-14.53.0901-25.57-4.1699-10.34-4-12.29-6.48-21.91-8.87-5.67-1.41-10.02-2.4401-15.65-1.5699-3.91.6099-5.27,1.6399-15.66,5.74-4.3,1.7-8.35,3.2999-12.52,4.7-8.37,2.8101-14.78,4.97-22.43,5.22-8.22.26-7.78-1.99-20.35-3.1299-9.53-.8701-15.15-1.3801-21.91,1.0399-8.49,3.0399-14.44,9.14-16.18,10.9601-5.29,5.5299-5.09,8.1399-9.39,10.4299-4.85,2.58-12.6,3.24-17.22-.52-3.64-2.97-2.56-6.4299-5.7401-24.52-2.08-11.9199-3.43-15.4299-5.73-18.79-.83-1.1899-3.66-5.1199-10.44-9.3899-7.5-4.72-13.3-5.75-27.13-8.8701-20.26-4.5599-13.85-3.7-32.61-7.8199-15.96-3.51-17.3-3.4-21.13-5.48-5.1-2.76-9.04-6.38-12.1-9.99-3.53-4.16-5.88-8.2999-7.46-11.14-1.08-1.9399-1.94-3.71-2.64-5.36,19.34,1.63,19.2379,14.1627,49.76,8.88,23.3915-4.0485,46.72,9.25,69.13,17.09,5.68,1.99,17.59,6.42,31.83,3.78,5.65-1.0499,7.42-2.42,16.69-5.09,9.29-2.67,16.28-3.8101,28.31-5.6101,43.02-6.4299,41.4-5.01,46.56-7.1399,5.09-2.1001,23.27-9.6001,32.09-27.1001,5.5-10.9099,2.46-15.99,8.87-35.5399,3.88-11.83,7.32-17.08,10.95-25.04,10.83-23.75,22.527-24.2777,24.787-70.6978.96-19.6-10.227-48.3521-5.867-58.3022,5.46-12.46,11.8701-15.4,19.5601-32.48,2.49-5.52,6.0099-13.48,7.83-24.26,3.6-21.33-3.65-28.89,2.35-43.0399,3.78-8.9301,7.5099-7.9301,13.95-17.4801,5.4-8,7.47-15.66,8.29-22.58,1.45,1.24,3.63,2.98,7.09,5.63.83.64,1.7401,1.33,2.72,2.08,2.42,1.8401,4.22,3.1899,5.61,4.27,2.99,2.3101,4.09,3.3201,5.34,5.12,2.78,3.98,2.43,6.27,4.18,10.9601,3.18,8.5399,8.95,13.7,14.48,18.6499,3.5,3.13,9.87,8.73,19.56,12.13,3.81,1.33,2.65.41,17.61,3.91,5.77,1.35,11.06,2.6899,17.22,5.87,6.26,3.24,7.97,5.5699,8.61,7.83.89,3.16-.35,6.0601-.79,7.04Z"/>
      <path class="cls-5" d="M384.3087,407.6551c-4.09,19.1899-2.08,40.4099-12.47,57.0599-9.95,15.9501-26.12,18.91-43.11,22.24-13.6,2.66-20.06,1.33-39.14,4.7001-17.29,3.0499-17.74,5.1599-28.18,6.7799-30.78,4.78-57.16-8.86-66.26-13.5699-11.66-6.03-27.3-14.12-38.61-31.8201-9.63-15.09-11.58-30.0699-13.04-41.22-1.5-11.51-.84-18.22-.19-24.5701.7-6.97,1.39-13.5199-.85-25.5199-2.32-12.41-5-25.83-15.65-36.52-8.19-8.2101-12.39-6.1-21.4-15.13-11.57-11.61-15.11-25.5701-16.69-31.8301-4.06-16.0199-1.92-29.0399,0-40.6899,1.52-9.22,2.65-16.1399,6.78-24.52,6.13-12.45,14.68-19.6399,25.04-28.1799,16.31-13.4301,16.93-9.03,30.79-20.87,17.06-14.5699,20.11-24.63,31.82-25.5601,3.9-.3099,9.04.36,16.7-2.09,5.1-1.63,8.5-3.75,10.96-5.22,0,0,9.95-5.95,26.08-13.04,14.13-6.21,27.84-4.78,38.61-3.65,22.3,2.33,37.64,11.66,49.04,18.78,14.83,9.26,24.23,15.12,30.02,25.5499.65,1.1602,1.25,2.3801,1.81,3.67,8.4,19.34.6,38.7201-2.09,45.39-2.01,5.01-10.26,24.6899-30.78,34.96-12.2,6.1101-22.94,5.98-43.82,5.73-19.16-.22-17.83-2.9099-39.14-3.6499-28.29-.98-32.95,3.6899-48-1.5601-7.99-2.79-8.3-4.6799-25.04-11.48-12.21-4.96-18.46-7.45-25.56-7.83-3.33-.17-23.23-1.2101-30.26,10.96-3.96,6.85-2.09,14.84-1.05,19.2999.44,1.8501,1.9,7.4501,8.36,16.02.78,1.05,1.65,2.1501,2.6,3.29,8.78,10.54,12.54,10.3101,19.82,18.26,10.75,11.73,14.27,25.01,15.66,30.26,4.44,16.78-1.15,19.53,3.13,36,2.05,7.91,6.25,24.0601,18.78,30.26,7.98,3.95,10.49-.52,29.74,1.04,16.21,1.3199,17.44,4.73,31.3,4.7,8.37-.02,17.4-.04,26.09-5.22,7.8-4.64,9.19-9.79,16.7-19.8201,14.5-19.3899,31.71-36.34,58.02-29.4299,12.77,3.36,23.9,11.36,33.25,20.6899,4.69,4.67,9.13,9.99,11.6801,16.01.95,2.23,1.64,4.5701,1.98,7,1.15,8.17-1.71,16.28-3.43,24.3401Z"/>
      <path class="cls-7" d="M53.6034,386.5399c-6.1667-5.7295,9.7314-20.6724,12-50.6088,1.1813-15.589-2.8647-29.1753-10.9565-56.3478-2.1064-7.0732-4.038-12.3521-8.8696-16.6957-4.0095-3.6046-6.3344-3.2552-16.4348-9.9131-7.937-5.2318-9.6747-7.5392-10.4348-10.1738-.9732-3.3732-.3721-7.3801,1.5652-10.4348,3.3392-5.2651,8.8252-4.8268,19.8261-9.3914,2.7567-1.1438,8.9424-3.7498,15.3913-8.3478,4.7448-3.3831,12.8597-9.3132,16.9565-19.3043,2.5028-6.1038.9661-7.5289,2.6087-13.5652,2.8267-10.3876,9.5411-14.1171,27.5218-30.5217,12.7282-11.6127,19.1565-17.5322,22.3044-23.087,3.8129-6.7284,10.2531-18.0929,8.2174-31.3043-.9727-6.3124-3.5381-10.8263-2.3478-19.174.4916-3.4473,1.1562-8.1079,4.6956-11.7391,5.4095-5.5498,13.9222-4.9896,18.3913-4.6956,11.0182.725,12.8412,5.1755,23.087,7.4347,13.8936,3.0636,26.0699-1.6962,29.7391-3.1304,12.8912-5.0391,11.6993-10.4597,26.6086-16.8262,2.8282-1.2076,12.1454-4.9729,24.6522-5.8695,8.1942-.5875,9.5347.6459,22.3043,1.5652,20.7208,1.4917,31.0813,2.2375,41.8696-2.3478,9.7238-4.1328,19.1738-9.3914,19.1739-9.3914,6.7828-3.7743,8.6651-5.3392,12.1304-5.0869,8.752.6373,14.3983,11.9054,15.2609,13.6957,2.7962,5.8033,1.3792,7.5975,3.5217,13.6956,4.0212,11.4447,13.4919,17.8737,14.8696,18.7827,9.5599,6.3083,14.0521,2.2303,29.7391,9.7826,7.0168,3.3781,11.0646,6.5754,12.1304,7.4347,4.1262,3.3265,10.4707,8.4413,13.6956,17.2174,1.9569,5.3256,1.9568,9.7993,1.9565,15.6522-.0002,4.4027-.0027,10.9967-1.9565,16.4348-6.1914,17.2333-31.5699,21.7012-32.8696,21.913-15.7113,2.561-28.2917-3.2981-37.1739-7.4347-5.166-2.4059-5.9122-3.361-28.9565-19.9565-22.7198-16.3618-27.2574-19.2236-34.0435-22.3043-11.0309-5.0077-20.5574-7.2135-25.8261-8.2174-7.039-1.3413-25.1819-4.1012-46.5652.7826-16.4164,3.7494-30.913,10.5652-30.9131,10.5652-5.3664,2.5231-7.7429,4.0549-12.913,5.4783-10.7041,2.9468-14.9986.3672-25.0435,1.5652-3.3135.3951-15.7696,1.8807-25.4348,10.174-9.6985,8.3217-5.7679,14.2148-16.4348,25.0435-7.1917,7.3007-10.0677,5.7279-20.7391,15.2609-3.0739,2.746-8.9683,8.0737-14.4783,16.0435-10.9174,15.7911-6.0777,21.3456-16.4348,34.0436-5.4159,6.64-9.6087,8.6393-10.5652,14.8695-1.0011,6.5209,2.4716,11.6288,4.6956,15.6522,9.2351,16.7069,1.4058,22.7936,9.3913,63.3912,2.7397,13.9283,3.8599,14.2219,4.6956,23.087,1.2929,13.7146,2.9084,30.8507-7.8261,40.6956-6.3528,5.8262-17.5318,9.5582-21.7826,5.6088Z"/>
      <path class="cls-1" d="M570.9987,211.1051c-2.62,5.88-8.48,7.1899-15.26,10.96-2.79,1.55-11.71,6.5-16.82,14.47-7.02,10.9301-4.77,24.2001-3.92,29.22,1.58,9.3201,4.12,8.9601,7.31,21.3901,3.05,11.8899,3.12,21.52,3.13,26.6099.01,8.6401.02,15.6901-2.61,24.52-1.36,4.5701-2.79,7.48-4.7,15.1301-2.43,9.7799-2.03,12.74-1.56,14.6099.7,2.8201,2.91,5.75,7.3,11.4801,5.52,7.2,7.12,8.15,9.92,12.5199,4.01,6.28,6.34,9.26,5.73,12.52-.9,4.8801-6.41,7.6401-8.86,8.8701-5.63,2.8199-8.62,1.5699-14.61,3.1299-5.59,1.4601-8.95,4.1101-15.66,9.4-7.3,5.75-13.99,11.03-18.2599,19.8199-5.32,10.9801-.47,14.3-5.7401,23.4801-5.28,9.22-14.56,13.5299-21.39,16.7-9.43,4.37-10.97,2.4-24.52,7.8199-11.12,4.4501-16.79,6.8201-19.3,12.52-.67,1.53-.56,2.02-1.05,16.7001-.39,12.0599-.28,6.09-.52,13.5599-.46,14.6901-.2,15.9-1.56,17.22-4.21,4.0801-14.53.0901-25.57-4.1699-10.34-4-12.29-6.48-21.91-8.87-5.67-1.41-10.02-2.4401-15.65-1.5699-3.91.6099-5.27,1.6399-15.66,5.74-4.3,1.7-8.35,3.2999-12.52,4.7-8.37,2.8101-14.78,4.97-22.43,5.22-8.22.26-7.78-1.99-20.35-3.1299-9.53-.8701-15.15-1.3801-21.91,1.0399-8.49,3.0399-14.44,9.14-16.18,10.9601-5.29,5.5299-5.09,8.1399-9.39,10.4299-4.85,2.58-12.6,3.24-17.22-.52-3.64-2.97-2.56-6.4299-5.7401-24.52-2.08-11.9199-3.43-15.4299-5.73-18.79-.83-1.1899-3.66-5.1199-10.44-9.3899-7.5-4.72-13.3-5.75-27.13-8.8701-20.26-4.5599-13.85-3.7-32.61-7.8199-15.96-3.51-17.3-3.4-21.13-5.48-5.1-2.76-9.04-6.38-12.1-9.99-.08-.09-.16-.1901-.23-.28,8.96.25,18.61.5599,28.93.88,9.25.29,19.69.79,32.8701,3.91,13.97,3.3099,32.14,7.61,50.87,20.35,10.8,7.3401,16.33,13.78,25.05,12.52,6.56-.95,7.5-5.1899,17.21-8.61,7.73-2.7201,11.94-1.7301,23.48-2.35,3.16-.17,16.15-.91,28.18-3.91,22.21-5.53,21.5-13.84,39.91-16.4301,11.68-1.6499,16.72,1.02,24.26-3.9199,5.97-3.91,9.26-9.8101,12.52-15.65,4.93-8.83,4.98-12.88,7.83-19.5599,6.87-16.1201,20.56-25.3901,25.8199-28.9601,14.17-9.6,22.28-7.92,29.7401-18.78,2.37-3.45,1-2.8099,6.2599-12.5299,7.36-13.5601,10.83-16.28,10.96-22.6901.11-5.83-2.73-5.5499-4.7-14.09-.57-2.47-1.55-7.8101,1.57-27.39,2.49-15.62,3.68-15.76,3.91-22.7001.33-9.6399-1.86-12.7-3.91-24.26-3.25-18.3199-6.59-37.1799,2.74-50.8699,3.55-5.2001,7.94-8.1901,10.56-16.4301.94-2.9301,3.15-10.2101-.39-15.65-1.59-2.45-3.02-2.48-5.48-4.7-6.44-5.8-7.14-15.04-7.43-18.78-.67-8.79,2.28-13.48,5.48-23.48,2.02-6.3,3.04-11.3201,3.6-15.39.28.22.55.42.8.62,2.99,2.3101,4.09,3.3201,5.34,5.12,2.78,3.98,2.43,6.27,4.18,10.9601,3.18,8.5399,8.95,13.7,14.48,18.6499,3.5,3.13,9.87,8.73,19.56,12.13,3.81,1.33,2.65.41,17.61,3.91,5.77,1.35,11.06,2.6899,17.22,5.87,6.26,3.24,7.97,5.5699,8.61,7.83.89,3.16-.35,6.0601-.79,7.04Z"/>
      <path class="cls-8" d="M211.56,136.1702c5.6764-.9167,5.0164-2.8732,17.2174-9.1957,6.575-3.4071,10.6801-5.5343,16.4348-7.0435,6.7365-1.7666,11.898-1.6803,18.7827-1.5652,11.6218.1943,20.4424,2.2407,25.826,3.5217,2.1847.5199,8.7657,2.142,17.0217,5.2826,7.6052,2.8931,14.9566,6.4375,21.1304,12.9131,2.7574,2.8922,3.8746,4.895,3.5218,6.8478-.5956,3.2965-5.169,5.2782-8.4131,5.8696-5.1204.9335-8.4198-1.325-15.8478-4.5-5.812-2.4844-10.7225-3.9388-20.5435-6.8479-8.6625-2.5659-13.39-3.9662-19.9565-4.6956-7.8689-.874-6.9604.4838-25.0435.5869-11.5817.066-13.1156-.4843-17.8043.7826-4.2592,1.1508-6.6302,2.5875-13.8913,4.3043-9.9394,2.35-10.957.9489-11.1522.587-.5969-1.1064.8591-2.9454,1.174-3.3262,2.7339-3.3064,7.2007-2.8203,11.5435-3.5217Z"/>
      <path class="cls-8" d="M108.1252,202.1051c-3.0239-.9954-8.5333,6.5792-11.4782,12.2609-2.9843,5.7574-4.0301,12.1775-6,24.7826-1.2086,7.7335-1.8131,11.697-1.8261,16.4348-.0248,9.0519,1.5926,15.793,2.087,17.7391,2.8562,11.2429,8.4394,20.7235,9.3913,20.3478,1.0919-.4309-6.3835-12.8513-6.7826-31.826-.2254-10.7167,2.1124-8.9758,3.6522-30,.4386-5.9882.5202-9.8336,3.3913-13.5652,3.6495-4.7433,8.7614-5.345,9.6522-9.9131.4919-2.5221-.4093-5.7086-2.087-6.2609Z"/>
      <path class="cls-8" d="M197.6034,397.4964c4.021-.8375,10.2628-1.7705,17.8696-1.3044,7.2787.4459,8.8292,1.7455,16.8261,2.3479,12.0315.9064,19.2673-1.2255,19.5652,0,.2953,1.2148-6.5546,4.3868-13.3044,5.8695-7.2478,1.592-13.6187,1.069-16.826.7826-7.0445-.6289-6.645-1.7452-11.3478-1.5652-6.0511.2317-7.9908,2.129-13.6957,1.5652-3.2423-.3204-8.1108-1.4763-8.2174-3.1304-.1336-2.0735,7.271-4.0812,9.1304-4.5652Z"/>
      <path class="cls-8" d="M280.4295,380.9311c-.8902-1.5381,3.0034-4.1787,11.7391-14.4783,9.6727-11.4042,9.3255-13.3856,14.4783-17.2173,8.756-6.5111,18.434-7.2408,21.5217-7.4348.0001,0,15.7109-.9871,28.9565,8.6086,3.1227,2.2622,3.1454,3.0012,9.3913,7.8262,5.9426,4.5906,8.0418,5.5592,8.6087,8.2173.7809,3.6613-1.8024,8.3862-5.4783,10.174-4.6099,2.2419-10.1047-.5413-18.7826-5.0869-10.3586-5.426-10.3232-7.8823-16.0435-9-7.9805-1.5593-15.1814,1.8278-18.7826,3.5217-6.1143,2.8761-6.1318,4.7777-12.5217,8.6086-9.6124,5.7629-21.6686,8.7114-23.087,6.2609Z"/>
      <path class="cls-6" d="M354.2787,207.825c-2.01,5.01-10.26,24.6899-30.78,34.96-12.2,6.1101-22.94,5.98-43.82,5.73-19.16-.22-17.83-2.9099-39.14-3.6499-28.29-.98-32.95,3.6899-48-1.5601-7.99-2.79-8.3-4.6799-25.04-11.48-12.21-4.96-18.46-7.45-25.56-7.83-3.33-.17-23.23-1.2101-30.26,10.96-3.96,6.85-2.09,14.84-1.05,19.2999.44,1.8501,1.9,7.4501,8.36,16.02-3.79-2.84-6.76-6.0999-9.04-9.74-1.88-2.99-6.41-10.45-5.21-20.34,1.19-9.92,7.37-16.0599,9.39-18,6.27-6.0499,13.21-7.73,19.04-9.13,9.88-2.38,17.64-1.4199,24.78-.53,12.05,1.51,22.16,2.77,28.18,9.92,1.28,1.52,2.41,3.36,5.08,5.08,2.81,1.8201,6.86,3.22,14.09,2.74,7.8-.51,12.06-2.75,17.22-4.2999,5.23-1.5699,8.17-1.4701,32.87,0,26.47,1.5699,25.91,1.63,27,1.5599,6.54-.3699,21.61-1.3899,37.5601-10.5599,5.47-3.14,20.3-11.67,28.5699-28.5699,5.61-11.4601,6.05-22.4001,6.04-29.6401.65,1.1602,1.25,2.3801,1.81,3.67,8.4,19.34.6,38.7201-2.09,45.39Z"/>
      <path class="cls-6" d="M384.3087,407.6551c-4.09,19.1899-2.08,40.4099-12.47,57.0599-9.95,15.9501-26.12,18.91-43.11,22.24-13.6,2.66-20.06,1.33-39.14,4.7001-17.29,3.0499-17.74,5.1599-28.18,6.7799-30.78,4.78-57.16-8.86-66.26-13.5699-11.66-6.03-27.3-14.12-38.61-31.8201-9.63-15.09-11.58-30.0699-13.04-41.22-1.5-11.51-.84-18.22-.19-24.5701,1.58,4.0701,3.55,9.1801,6.03,15.5901,7.74,19.99,11.22,28.6899,18.4,39.13,5.34,7.7799,8.57,12.36,14.86,16.0399,8.8,5.1501,13.87,2.8601,28.57,6.6602,16.08,4.1499,14.64,8.0798,25.43,9.7799,13.82,2.17,16.97-4.15,37.96-7.0499,19.55-2.6901,19.42,2.4299,36.78-.78,9.54-1.76,25.56-4.72,36.4-17.22,2.59-2.99,5.51-8.25,11.34-18.78,5.57-10.04,7.1801-14.3401,12.52-21.52,5.78-7.76,7.02-6.9399,9.79-11.3501,4.39-7,4.89-14.8298,4.3701-21.4399.95,2.23,1.64,4.5701,1.98,7,1.15,8.17-1.71,16.28-3.43,24.3401Z"/>
      <path class="cls-4" d="M225.5165,56.0181c4.7619-2.8005,10.3815-6.0338,19.826-8.087,11.1993-2.4346,20.5256-1.6333,27.3914-1.0435,7.564.6499,7.4487,1.3817,15.1304,1.826,6.5006.376,12.4047.7174,20.0869-.2609,6.4409-.8202,11.0086-2.1704,11.4783-1.0435.4235,1.0162-2.8152,3.2542-3.3913,3.6522-8.0469,5.5604-18.488,4.3744-31.3043,3.6521-14.1992-.8002-21.2988-1.2003-27.1305-.2609-12.2988,1.9813-18.8552,3.0375-24.7826,8.3479-2.9311,2.626-5.6022,6.1971-9.6522,6-2.8549-.139-5.9705-2.1298-6.2609-4.4348-.0983-.7805-.0794-3.2383,8.6087-8.3478Z"/>
      <path class="cls-4" d="M341.0817,36.0616c3.2393-2.683,3.3049-3.2961,5.2174-4.3043.9995-.5269,3.238-1.6722,6.2609-1.5653,2.9857.1056,5.1047,1.3751,6.2609,2.087,1.8739,1.1539,2.9449,2.4214,5.087,4.9565,1.7418,2.0614,2.7674,3.2751,3.6522,5.2173.422.9263,2.4305,5.3352.913,6.6522-1.0213.8864-3.3881.1538-4.826-1.0435-1.4438-1.2023-1.3873-2.4037-2.4783-4.5652-.5201-1.0304-2.1346-4.2292-5.3478-6-3.5422-1.952-7.431-1.2889-8.8696-1.0436-.5237.0894-1.3956.2426-2.4783.6522-2.7951,1.0576-4.2424,2.7827-5.3478,3.7826-4.1719,3.7737-10.6693,3.7251-10.8261,3.2609-.1057-.3129,2.5953-1.0326,6.913-3.7826,2.5857-1.6469,4.7867-3.4075,5.8696-4.3043Z"/>
      <path class="cls-4" d="M136.0382,95.1485c-.9293.0543-2.8036-7.0232-2.0869-14.8695.3733-4.087.7963-8.0914,3.913-11.4783,2.9048-3.1565,6.4876-3.9707,7.5652-4.174,2.7047-.51,6.84-.4167,7.3044,1.0435.3328,1.0464-1.4212,2.1599-7.0435,7.3043-2.3343,2.1359-3.5014,3.2037-4.1739,3.9131-6.5415,6.8997-4.3067,18.1924-5.4783,18.2609Z"/>
      <path class="cls-4" d="M22.2991,241.7573c-.5178-4.0349,1.9467-7.1729,2.8696-8.3479,2.1965-2.7968,4.8833-4.0106,7.0435-4.9565,4.0725-1.7832,6.759-1.7802,9.6522-2.3478,10.5875-2.0771,16.1012-10.2582,16.9565-9.3914.7048.7142-2.4429,6.8724-8.3478,10.4348-1.5785.9523-4.9654,2.287-11.7391,4.9565-3.7022,1.459-5.1766,1.9724-6.2609,3.6522-1.3056,2.0227-.5237,3.3787-1.8261,7.3043-.787,2.3721-1.7459,5.2623-3.3913,5.4783-1.9615.2574-4.5143-3.3363-4.9565-6.7826Z"/>
      <path class="cls-3" d="M384.1252,87.8442c-2.019-2.7869-6.4062-6.2428-11.2174-4.9565-5.0885,1.3604-7.91,7.2925-7.0435,12.2609,1.0589,6.0715,7.615,10.6459,13.3043,9.1305,3.4691-.924,6.2272-4.0085,7.0435-7.5653,1.0438-4.5481-1.502-8.0621-2.0869-8.8695Z"/>
      <path class="cls-3" d="M269.0817,88.6268c1.6979-4.2716-.4885-8.9744-3.1304-11.4783-5.0953-4.829-15.514-4.9183-19.3043,1.3043-2.5093,4.1196-1.6665,10.272,2.087,13.8262,4.0333,3.8192,9.5447,2.8555,10.9565,2.6086,1.5328-.2681,7.4183-1.2971,9.3913-6.2609Z"/>
      <path class="cls-3" d="M191.0165,78.4528c-2.3177-4.3556-8.4976-3.9382-8.8044-3.913-3.8174.3151-8.4188,2.9419-8.6087,6.4565-.1639,3.0328,3.0331,5.3218,4.8913,6.6521,1.8621,1.3331,4.6766,3.3481,7.6304,2.5435,4.1204-1.1224,7.2123-7.3773,4.8913-11.7391Z"/>
      <path class="cls-3" d="M134.3426,133.2355c.0079-1.7052-1.1978-3.1617-2.6087-3.6522-2.2631-.7866-5.253.8434-5.4783,3.2609-.1887,2.0245,1.631,3.8571,3.5218,4.174,1.5236.2554,2.7054-.5383,2.8696-.6522.1437-.0997,1.6867-1.2101,1.6956-3.1304Z"/>
      <path class="cls-3" d="M98.0817,165.9746c-2.2637-2.0726-6.6108-.9686-8.4783,1.6957-1.3612,1.942-1.7296,5.1763.1304,7.0435,1.9926,2.0002,5.2034,1.087,5.3478,1.0436.3607-.1085,1.783-.576,2.8696-1.9565,1.65-2.0963,2.2216-5.9115.1304-7.8262Z"/>
      <path class="cls-3" d="M49.1687,250.8876c1.7467-2.5819,1.106-6.636-1.3044-8.8695-3.3375-3.0927-9.4117-2.0864-11.4783,1.5652-1.2434,2.1971-.9035,5.1176.5218,7.0435,2.7409,3.7036,9.7144,4.0249,12.2609.2609Z"/>
      <path class="cls-3" d="M70.9513,364.6268c2.861-.3527,4.7373-3.3942,4.5652-6.1304-.1367-2.1736-1.5977-4.6553-4.1739-5.2174-2.1371-.4663-4.2936.5514-5.4783,2.2174-1.8282,2.5709-.5023,5.5045-.3913,5.7391.9005,1.9031,3.0334,3.6925,5.4783,3.3912Z"/>
      <path class="cls-3" d="M418.9513,141.0616c-.3083-5.2065-3.9365-9.6963-8.6087-11.3479-5.8589-2.0712-13.6143.2307-16.0435,6.2609-2.2336,5.5447,1.1302,11.525,5.087,14.4783,4.0057,2.9899,10.5952,4.3522,15.2609.7827,4.6003-3.5194,4.3415-9.5468,4.3043-10.174Z"/>
      <path class="cls-3" d="M331.4295,68.0181c-1.6536-2.3599-4.972-2.5919-7.1739-1.3044-2.2463,1.3134-3.525,4.3219-2.4783,6.5219,1.0714,2.252,4.0506,2.5452,4.6956,2.6086.7888.0776,2.6006.256,4.0435-.9131,1.8224-1.4766,2.4983-4.6508.913-6.913Z"/>
      <path class="cls-3" d="M345.3861,117.5833c1.1498-2.5465.066-5.8008-2.1522-7.4348-3.0844-2.2722-8.1712-1.2709-9.7827,2.1522-1.1949,2.5383-.1824,5.7786,1.9565,7.4348,3.0986,2.3994,8.3977,1.3481,9.9783-2.1522Z"/>
      <path class="cls-9" d="M175.9513,246.9746c-4.5541-1.328-9.8793-.2754-13.5652,3.3914-.2278.2266-5.4245,5.5792-3.6522,12.7826.1867.759,1.6876,6.4426,7.3044,8.8696,5.6633,2.4471,10.8708-.4215,12-1.0436.8708-.4797,8.1839-4.6672,7.8261-12.2609-.2769-5.8772-4.9844-10.3019-9.9131-11.7391Z"/>
      <path class="cls-9" d="M302.7339,288.192c-.4657-9.8138-16.214-19.6729-28.9565-15.6521-7.5349,2.3776-15.2611,10.0002-14.8696,19.3043.2346,5.5732,3.3503,11.0009,8.087,14.0869,5.6354,3.6716,11.6209,2.7622,14.3478,2.3479,1.0596-.161,5.7378-.9454,10.6957-4.4348,1.5793-1.1116,11.0687-7.7903,10.6957-15.6522Z"/>
      <path class="cls-9" d="M383.3426,235.7573c-4.8893-2.8273-11.0769-2.4023-15.3913.7826-6.4827,4.7855-7.5889,14.9556-2.6087,20.8695,3.2969,3.915,8.6804,5.2753,13.3044,4.4348,4.8962-.8899,9.5781-4.3628,11.2174-9.6522,1.9196-6.1938-.8641-13.1632-6.5218-16.4347Z"/>
      <path class="cls-9" d="M425.6034,175.4964c-2.8612-2.3352-6.9061-2.4084-9.913-.7827-3.6813,1.9904-5.9254,6.5913-4.4348,10.9565,1.4594,4.2736,5.9176,6.6207,9.913,6,4.0192-.6244,6.0201-4.0115,6.2609-4.4347,2.0031-3.5222,1.7673-8.8064-1.8261-11.7391Z"/>
      <path class="cls-9" d="M397.6904,347.6702c4.3687-.9369,7.4782-4.7513,8.087-8.8695.7629-5.1611-2.5909-9.5194-6.2609-11.4783-3.5746-1.9081-9.2148-2.4822-12.7826,1.0435-3.8572,3.8118-2.921,10.0725-.5218,13.826,1.9843,3.1044,6.3071,6.5873,11.4783,5.4783Z"/>
      <path class="cls-9" d="M233.3426,372.7137c3.3152-3.3385,2.4632-9.5775-.5217-13.3043-2.7101-3.3838-8.2399-6.0219-13.0435-3.3912-4.3026,2.3563-6.0089,7.837-4.4348,12,1.5755,4.1666,5.882,5.5448,7.3044,6,.9588.3069,7.1334,2.2828,10.6956-1.3044Z"/>
      <path class="cls-9" d="M128.2122,380.5399c1.1896-4.2172-.1083-9.4282-4.1739-12.2609-4.2204-2.9404-10.5995-2.7439-14.0869,1.3043-3.6099,4.1904-2.1232,10.188.2609,13.5652.2079.2946,4.597,6.3082,10.6956,4.9565,5.4047-1.1979,7.1661-7.0752,7.3044-7.5652Z"/>
      <path class="cls-9" d="M77.3426,415.7573c3.0353-6.1455-1.4558-14.6366-8.3478-16.6957-5.7172-1.708-13.146.9922-15.1304,7.0435-1.7652,5.3826,1.564,11.0177,5.7391,13.5652,5.7907,3.5333,14.7771,2.0842,17.7391-3.913Z"/>
      <path class="cls-9" d="M220.56,305.4094c-2.4611-4.502-9.8719-6.5247-14.8696-3.1304-3.0971,2.1035-4.8224,5.9851-4.3043,9.7826.7231,5.3003,5.6447,9.177,10.1739,9,6.8672-.2684,12.1824-9.8308,9-15.6522Z"/>
      <path class="cls-9" d="M392.7339,290.5399c-1.6628-5.415-9.3442-7.9434-14.8696-5.4783-4.6252,2.0635-8.2929,7.8729-6.2609,12.913,1.8557,4.6028,7.5375,6.264,11.7391,5.4783,5.8798-1.0996,11.0822-7.4069,9.3914-12.913Z"/>
      <path class="cls-1" d="M474.9078,209.5399c-2.9879-4.5221-9.4915-5.5394-14.087-3.9131-6.9847,2.4718-11.4891,11.7325-8.2174,17.6088,2.8618,5.14,10.2273,5.0939,10.5652,5.0869,6.024-.1245,11.5351-4.5476,12.913-10.174.2078-.8483,1.2207-4.9844-1.1739-8.6086Z"/>
      <path class="cls-1" d="M459.2556,164.5399c-1.8701-.3854-3.4028,1.1792-3.5217,1.3043-1.6071,1.6909-1.7105,4.6655-.1305,6.3914.0967.1056,1.705,1.8057,3.7827,1.3043,2.2013-.5312,2.8151-3.0233,2.8696-3.2609.5264-2.2961-.7525-5.2759-3-5.7391Z"/>
      <path class="cls-1" d="M446.7339,274.8876c-1.1744-3.7037-4.7865-8.2953-9.6522-8.0869-5.437.2328-8.1304,6.2745-8.3478,6.7826-1.8469,4.3174-1.0413,9.8699,2.6086,13.3043.3763.3541,4.5406,4.1581,9.1304,2.8696,5.4147-1.52,8.0636-9.1848,6.2609-14.8696Z"/>
      <path class="cls-1" d="M464.7339,356.6702c2.8169-4.809-.8502-10.9025-3.5218-13.6957-.7089-.7412-5.8066-6.0708-11.3478-4.3043-5.0589,1.6128-7.7432,8.2655-6.2609,13.6957,1.3677,5.0105,6.0508,8.1313,10.5652,8.6086,3.2289.3414,8.3157-.464,10.5652-4.3043Z"/>
      <path class="cls-1" d="M429.9078,394.4964c-2.0412-4.0254-7.4772-4.2844-8.087-4.3044-4.3013-.1411-9.8019,2.3903-11.0869,7.6957-1.2543,5.1788,2.0058,10.946,6.6522,12,4.9744,1.1283,9.0587-3.708,9.7826-4.5652.5501-.6514,5.1415-6.0883,2.7391-10.826Z"/>
      <path class="cls-1" d="M396.2556,442.3659c-1.2462-1.9637-3.7456-2.543-5.674-1.9565-2.646.8048-4.347,3.8444-3.5217,6.4565.5284,1.6724,2.0488,3.032,3.913,3.326,2.9183.4602,4.7739-1.9912,4.8914-2.1521,1.0493-1.4376,1.6074-3.7576.3913-5.674Z"/>
      <path class="cls-1" d="M321.9078,505.1702c1.538-2.1276.4923-5.725-1.1739-7.826-2.7994-3.5302-8.5374-4.3335-12.1305-1.7609-2.5402,1.8187-4.4275,5.625-3.1304,8.0217.8853,1.6357,2.9165,1.9917,6.0652,2.5435,4.1752.7316,8.5761,1.5028,10.3696-.9783Z"/>
      <path class="cls-1" d="M253.0382,513.8442c-.278-2.8241-2.6797-4.9877-5.3478-5.3478-2.5927-.35-5.6772.9705-6.5217,3.6521-.8492,2.6963,1.0538,5.2203,2.6087,6.3914.375.2825,3.4016,2.4838,6.3913.913,2.1234-1.1156,3.0744-3.5277,2.8696-5.6086Z"/>
      <path class="cls-2" d="M518.3426,296.0181c-7.2241-3.3704-14.313,2.2805-14.8696,2.7391-5.3881,4.4397-8.5885,13.4324-4.3043,19.9564,2.9316,4.4645,8.4981,6.448,13.3043,5.8696,7.9608-.9581,13.6568-8.9235,13.3044-16.4348-.0259-.551-.5558-8.921-7.4348-12.1304Z"/>
      <path class="cls-2" d="M521.8643,202.692c-1.1932-4.0486-7.1343-6.2847-11.7391-4.6956-3.1218,1.0774-5.9697,4.0302-6.2609,7.826-.322,4.1985,2.5498,8.5685,6.2609,9.1957,2.9104.4919,5.3247-1.4893,6.8478-2.7391.9879-.8107,6.214-5.0992,4.8914-9.587Z"/>
      <path class="cls-2" d="M532.4295,394.6268c2.0185-4.9558-2.3901-11.8571-8.2174-13.6957-3.2792-1.0347-7.8096-.7191-10.9565,2.3479-3.5407,3.4508-4.4039,9.4822-1.5652,13.3043,2.9096,3.9176,8.3043,3.6237,10.174,3.5217.9658-.0526,8.523-.4645,10.5652-5.4783Z"/>
      <path class="cls-2" d="M449.0817,432.5833c-3.239-3.7933-10.1921-3.0664-14.4783-.7826-5.5342,2.9489-9.4656,10.0085-7.4348,15.6521.1413.3927,1.4728,3.9198,5.087,5.4783,5.84,2.5183,11.8912-2.5828,12.5217-3.1304,4.7894-4.16,8.1477-12.7162,4.3043-17.2174Z"/>
      <path class="cls-2" d="M496.56,258.7137c-3.754-4.5635-11.4289-4.5835-15.3913,0-3.9655,4.587-2.7288,12.0685,2.087,15.1305,3.7123,2.3605,8.8024,1.6183,12-1.3043,3.8123-3.4845,4.6269-9.7871,1.3043-13.8262Z"/>
      <path class="cls-2" d="M415.8208,526.4964c2.8829-3.3749,4.5477-8.8163,2.3478-13.3044-3.0786-6.2808-12.6246-8.4478-18.7826-4.3043-4.8793,3.283-7.227,10.2554-4.6957,15.6522,2.1923,4.674,7.054,6.0548,7.8261,6.2609,4.9395,1.3181,10.1542-.6166,13.3043-4.3043Z"/>
      <path class="cls-2" d="M351.6469,507.1268c-1.4656-2.8462-5.8047-3.1831-8.413-1.5652-1.614,1.0012-3.3184,3.2181-2.7391,5.4783.8018,3.1285,5.2527,3.5057,5.4782,3.5217.6946.0491,2.8459.201,4.5-1.3696,1.6163-1.5348,2.1613-4.1478,1.174-6.0652Z"/>
      <path class="cls-2" d="M300.3861,543.0616c1.836-2.854.6368-6.6752-1.5652-8.6088-3.3144-2.9104-9.4786-2.0518-11.2174,1.5653-1.4233,2.9609.4049,7.1752,3.6522,8.8695,2.8666,1.4956,7.1802,1.2056,9.1304-1.826Z"/>
      <path class="cls-2" d="M235.1687,555.9746c2.3329-1.1471,3.0142-4.1045,2.3478-6.2609-.8643-2.7965-4.0945-4.567-6.5217-3.7826-1.5234.4923-2.2706,1.8423-2.4783,2.2174-1.0584,1.9121-.9789,4.683.7826,6.5217,1.3711,1.4313,3.7894,2.3271,5.8696,1.3043Z"/>
      <path class="cls-2" d="M189.2556,500.4746c-3.2815-3.1714-9.7056-2.5129-11.1522.3914-1.1293,2.2673.8739,5.7045,3.1305,7.4348,2.6308,2.0172,7.321,3.0298,9.3913.5869,1.8636-2.199.8315-6.2859-1.3696-8.4131Z"/>
      <path class="cls-2" d="M483.2556,467.1485c-.0958-3.6521-2.8597-7.118-6.7827-7.5652-4.0449-.4611-7.5598,2.4883-8.3478,6-1.0411,4.6398,2.806,9.6886,7.5652,9.6522,4.081-.0312,7.6779-3.7927,7.5652-8.087Z"/>
    </g>
  </g>
</svg>