<?xml version="1.0" encoding="UTF-8"?>
<svg id="Capa_2" xmlns="http://www.w3.org/2000/svg" viewBox="0 0 580.1143 584.2374">
  <defs>
    <style>
      .cls-1 {
        fill: #44911c;
      }

      .cls-2 {
        fill: #639648;
      }

      .cls-3 {
        fill: #367710;
      }

      .cls-4 {
        fill: #57a529;
      }

      .cls-5 {
        fill: #acd696;
      }

      .cls-6 {
        fill: #94c67d;
      }

      .cls-7 {
        fill: #56843c;
      }

      .cls-8 {
        fill: #70a856;
      }

      .cls-9 {
        fill: #7bb662;
      }
    </style>
  </defs>
  <g id="Capa_1-2" data-name="Capa_1">
    <g>
      <g>
        <path class="cls-9" d="M570.9987,211.105c-2.62,5.88-8.48,7.1899-15.26,10.96-2.79,1.55-11.71,6.5-16.82,14.47-7.02,10.9301-4.77,24.2001-3.92,29.22,1.58,9.3201,4.12,8.9601,7.31,21.3901,3.05,11.8899,3.12,21.52,3.13,26.6099.01,8.6401.02,15.6901-2.61,24.52-1.36,4.5701-2.79,7.48-4.7,15.1301-2.43,9.7799-2.03,12.74-1.56,14.6099.7,2.8201,2.91,5.75,7.3,11.4801,5.52,7.2,7.12,8.15,9.92,12.5199,4.01,6.28,6.34,9.26,5.73,12.52-.9,4.8801-6.41,7.6401-8.86,8.8701-5.63,2.8199-8.62,1.5699-14.61,3.1299-5.59,1.4601-8.95,4.1101-15.66,9.4-7.3,5.75-13.99,11.03-18.2599,19.8199-5.32,10.9801-.47,14.3-5.7401,23.4801-5.28,9.22-14.56,13.5299-21.39,16.7-9.43,4.37-10.97,2.4-24.52,7.8199-11.12,4.4501-16.79,6.8201-19.3,12.52-.67,1.53-.56,2.02-1.05,16.7001-.39,12.0599-.28,6.09-.52,13.5599-.46,14.6901-.2,15.9-1.56,17.22-4.21,4.0801-14.53.0901-25.57-4.1699-10.34-4-12.29-6.48-21.91-8.87-5.67-1.41-10.02-2.4401-15.65-1.5699-3.91.6099-5.27,1.6399-15.66,5.74-4.3,1.7-8.35,3.2999-12.52,4.7-8.37,2.8101-14.78,4.97-22.43,5.22-8.22.26-7.78-1.99-20.35-3.1299-9.53-.8701-15.15-1.3801-21.91,1.0399-8.49,3.0399-14.44,9.14-16.18,10.9601-5.29,5.5299-5.09,8.1399-9.39,10.4299-4.85,2.58-12.6,3.24-17.22-.52-3.64-2.97-2.56-6.4299-5.7401-24.52-2.08-11.9199-3.43-15.4299-5.73-18.79-.83-1.1899-3.66-5.1199-10.44-9.3899-7.5-4.72-13.3-5.75-27.13-8.8701-20.26-4.5599-13.85-3.7-32.61-7.8199-15.96-3.51-17.3-3.4-21.13-5.48-5.1-2.76-9.04-6.38-12.1-9.99-.08-.09-.16-.1901-.23-.28-3.41-4.0699-5.69-8.08-7.23-10.86-1.08-1.9399-1.94-3.71-2.64-5.36-.22-.52-.43-1.02-.62-1.51-3.68-9.38-2.68-14.92-10.05-24.4401-5.2-6.72-10.5-10.1699-11.74-10.95-6.42-4.0701-12.08-5.22-21.13-7.05-6.88-1.3899-13.65-2.76-22.69-2.34-6.68.3-8.09,1.28-10.96,0-6.7-3-10.61-13.5399-8.61-21.92,1.46-6.0898,5.85-10.22,13.31-17.21,4.18-3.9299,6.76-5.48,10.17-10.1799,3.47-4.79,5.09-9.0901,5.48-10.17,1.84-5.1,2.16-9.59,1.56-21.92-.38-7.8799-.63-12.97-1.56-21.1299-1.03-9-2.27-15.78-4.7-28.9501-2.22-12.0299-3.35-18.09-4.69-20.35-5.61-9.45-12.11-7.87-21.13-18.78-4.01-4.85-10.34-12.5-8.61-20.35,1.63-7.4,9.65-11.4401,18-15.65,13.6-6.86,17.89-3.7,25.82-10.1799,9.34-7.6201,11.43-18.54,11.74-20.3401.21-1.1599.34-2.29.42-3.3799.78-10.5901,6.17-20.3501,14.77-26.5801,5.03-3.64,9.35-7.21,12.99-10.48,11.43-10.25,18.44-16.55,23.47-27.65,7.26-16.01,7.31-35.22,7.31-36-.05-9-1.48-13.22,1.56-19.3099,5.22-10.41,17.14-13.42,17.7401-13.5601,4.92-1.1699,8.52-.48,14.61.52,16.87,2.76,25.3,4.1499,30.26,4.1699,10.14.0601,19.98-5,39.66-15.1299,14.51-7.4601,17.71-10.91,26.6-11.4701,8.19-.5199,8.99,2.17,22.44,3.13,4.97.3501,12.25-.11,26.61-1.05,13.34-.8699,20.05-1.3199,21.91-2.08,4.46-1.84,11.15-6.97,24.52-17.22,3.75-2.87,6.01-4.67,9.39-4.7001,6.36-.0499,11.23,6.2201,14.09,9.92,3.65,4.7001,3.77,6.79,9.39,18.78,4.28,9.12,6.41,13.6801,8.87,16.6901,5.7,6.99,12.48,10.5599,17.22,13.0499,3.04,1.6,3.04,1.3099,16.6899,6.78,9.22,3.6901,13.8701,5.5699,15.66,6.7799,8.37,5.7201,12.56,13.7101,14.08,16.7001,2.54,4.97,1.69,5.5,6.2599,16.17,2.57,5.99,3.89,9.04,5.7401,11.48.65.85,1.29,1.61,3.24,3.25,1.45,1.24,3.63,2.98,7.09,5.63.83.64,1.7401,1.33,2.72,2.08,1.98,1.51,3.55,2.6899,4.81,3.65.28.22.55.42.8.62,2.99,2.3101,4.09,3.3201,5.34,5.12,2.78,3.98,2.43,6.27,4.18,10.9601,3.18,8.5399,8.95,13.7,14.48,18.6499,3.5,3.13,9.87,8.73,19.56,12.13,3.81,1.33,2.65.41,17.61,3.91,5.77,1.35,11.06,2.6899,17.22,5.87,6.26,3.24,7.97,5.5699,8.61,7.83.89,3.16-.35,6.0601-.79,7.04Z"/>
        <path class="cls-5" d="M358.204,8.0145c6.3237-.0006,11.1658,6.2349,14.0146,9.9204,3.6499,4.7001,3.77,6.79,9.3899,18.78,4.28,9.12,6.4102,13.6801,8.8701,16.6901,5.7,6.99,12.48,10.5599,17.22,13.0499,3.04,1.6,3.04,1.3099,16.6899,6.78,9.22,3.6901,13.8701,5.5699,15.6602,6.7799,8.3699,5.7201,12.5598,13.7101,14.0798,16.7001,2.54,4.97,1.6902,5.5,6.26,16.17,2.5701,5.99,3.8901,9.04,5.74,11.48.6501.85,1.29,1.61,3.24,3.25,1.4502,1.24,3.6301,2.98,7.0901,5.63.8301.64,1.74,1.33,2.72,2.08,1.98,1.51,3.55,2.6899,4.8101,3.65.28.22.55.42.8.62,2.99,2.3101,4.0898,3.3201,5.3398,5.12,2.78,3.98,2.4302,6.27,4.1802,10.9601,3.1799,8.5399,8.95,13.7,14.48,18.6499,3.5,3.13,9.8699,8.73,19.5598,12.13,3.8101,1.33,2.6501.41,17.6101,3.91,5.77,1.35,11.0601,2.6899,17.22,5.87,6.26,3.24,7.97,5.5699,8.6101,7.83.8899,3.16-.3501,6.0601-.79,7.04-2.6201,5.88-8.48,7.1899-15.26,10.96-2.79,1.55-11.71,6.5-16.8201,14.47-7.02,10.9301-4.77,24.2001-3.9199,29.22,1.5798,9.3201,4.1199,8.9601,7.3101,21.3902,3.0498,11.8898,3.1199,21.52,3.1299,26.6098.01,8.6402.02,15.6901-2.6101,24.52-1.3599,4.5701-2.7898,7.48-4.7,15.1301-2.4299,9.78-2.03,12.7401-1.5598,14.6099.7,2.8201,2.9099,5.75,7.2998,11.4801,5.52,7.2,7.1201,8.1501,9.9202,12.5199,4.01,6.28,6.3398,9.26,5.73,12.52-.9001,4.8802-6.4102,7.6402-8.8601,8.8702-5.6299,2.8199-8.6199,1.5699-14.6099,3.1298-5.5901,1.4601-8.9502,4.1102-15.6602,9.4001-7.3,5.75-13.99,11.03-18.26,19.8199-5.3198,10.9801-.47,14.3001-5.74,23.4801-5.28,9.22-14.5601,13.5299-21.3899,16.7-9.4299,4.37-10.97,2.4-24.52,7.8199-11.1201,4.4501-16.79,6.8201-19.3,12.52-.6699,1.5301-.5601,2.02-1.05,16.7001-.3899,12.0599-.28,6.09-.52,13.5599-.46,14.6901-.2,15.9001-1.5598,17.22-1.241,1.2026-3.0137,1.7042-5.178,1.7042-5.1792,0-12.606-2.8698-20.3921-5.8741-10.3401-4-12.29-6.48-21.9099-8.87-4.2244-1.0504-7.7163-1.89-11.5503-1.8901-1.3123,0-2.6641.0983-4.0999.3203-3.9099.6098-5.27,1.6398-15.6599,5.7399-4.3,1.7-8.3501,3.3-12.52,4.7-8.3701,2.8101-14.78,4.97-22.4299,5.22-.4426.014-.8611.0207-1.2568.0207-6.9548,0-7.2-2.0721-19.0933-3.1506-4.3684-.3988-7.9153-.722-11.127-.722-3.7949,0-7.1216.4512-10.783,1.762-8.49,3.0399-14.4402,9.14-16.1802,10.9601-5.29,5.5299-5.0898,8.1399-9.3899,10.4299-2.4517,1.3041-5.6448,2.1178-8.7996,2.1178-3.0862,0-6.136-.7784-8.4204-2.6378-3.6401-2.97-2.5601-6.4299-5.74-24.52-2.0801-11.9199-3.4302-15.43-5.73-18.79-.8301-1.1899-3.6602-5.1199-10.4402-9.39-7.5-4.7199-13.2998-5.75-27.1299-8.8701-20.26-4.5599-13.8501-3.7-32.6101-7.8199-15.96-3.5099-17.2998-3.4001-21.1299-5.48-5.1001-2.76-9.04-6.38-12.1001-9.99-.0798-.09-.1599-.1901-.23-.28-3.4099-4.07-5.6899-8.08-7.23-10.86-1.0801-1.9399-1.9399-3.71-2.6399-5.36-.22-.52-.4302-1.02-.6201-1.51-3.6799-9.38-2.6799-14.9201-10.05-24.4401-5.2-6.7199-10.5-10.1699-11.74-10.95-6.4199-4.0701-12.0798-5.22-21.1299-7.05-6.0193-1.216-11.9556-2.4169-19.4001-2.417-1.0647,0-2.1587.0245-3.2898.0771-4.1797.1877-6.2961.6416-7.9978.6416-1.0183,0-1.8879-.1625-2.9624-.6416-6.7-3-10.6099-13.5399-8.6099-21.9201,1.46-6.0898,5.8499-10.22,13.3101-17.2099,4.1799-3.9301,6.76-5.48,10.1699-10.1801,3.47-4.79,5.0901-9.0901,5.48-10.17,1.8401-5.1,2.1599-9.59,1.5601-21.9201-.3801-7.8798-.6301-12.9699-1.5601-21.1298-1.03-9-2.27-15.7801-4.7-28.9501-2.22-12.0299-3.3501-18.09-4.6899-20.35-5.6101-9.45-12.1101-7.87-21.1301-18.78-4.01-4.85-10.3401-12.5-8.6099-20.35,1.6299-7.4,9.6499-11.4401,18-15.65,13.5999-6.86,17.8899-3.7,25.8198-10.1799,9.3401-7.6201,11.4302-18.54,11.74-20.3401.21-1.1599.3401-2.29.4202-3.3799.78-10.5901,6.1699-20.3501,14.77-26.5801,5.0298-3.64,9.3499-7.21,12.99-10.48,11.4299-10.25,18.4399-16.55,23.47-27.65,7.26-16.01,7.3098-35.22,7.3098-36-.0498-9-1.48-13.22,1.5601-19.3099,5.22-10.41,17.1401-13.42,17.74-13.5601,1.8315-.4355,3.4802-.6133,5.1423-.6133,2.803,0,5.6448.5055,9.4678,1.1333,16.8699,2.76,25.3,4.1499,30.26,4.1699.0593.0004.1191.0005.1785.0005,10.0774,0,19.9167-5.0599,39.4814-15.1304,14.51-7.4601,17.71-10.91,26.6001-11.4701.7102-.045,1.3662-.066,1.9783-.066,6.4468,0,8.1782,2.3193,20.4617,3.196,1.1257.0793,2.3701.1171,3.7883.1171,4.843,0,11.7144-.4399,22.8218-1.1671,13.3398-.8699,20.0498-1.3199,21.9099-2.08,4.46-1.84,11.1499-6.97,24.52-17.22,3.75-2.87,6.01-4.67,9.3899-4.7001.0249-.0002.0508-.0004.0754-.0004M358.2052,0h-.0012l-.1343.0005c-5.9797.0531-9.832,3.0032-13.9104,6.1267l-.2917.2233c-11.7095,8.9769-18.8699,14.4663-22.4419,16.0624-2.1294.4628-10.6414,1.0178-19.6384,1.6044-11.2205.7346-17.7874,1.1501-22.3003,1.1501-1.2415,0-2.2964-.0317-3.2253-.0972-5.9099-.4219-8.9675-1.188-11.665-1.8639-2.6531-.6647-5.3962-1.3521-9.3596-1.3521-.7903,0-1.627.0277-2.4861.0822-8.2568.5203-13.0259,3.1796-20.2451,7.2051-2.6465,1.4757-5.646,3.1483-9.5117,5.1359-18.4253,9.484-27.6721,14.2434-35.8169,14.2434l-.1294-.0004c-4.2761-.0172-12.8267-1.4163-28.3494-3.9559l-.6658-.1089-.8188-.135c-3.5896-.592-6.6897-1.1035-9.9429-1.1035-2.3574,0-4.646.2717-6.9966.8307-1.6101.3757-16.2141,4.132-23.05,17.7649-3.1904,6.3911-2.9128,11.5868-2.6189,17.0874.0967,1.8086.1965,3.6787.2087,5.8593-.0002.6967-.0752,18.269-6.5945,32.6458-4.3462,9.5907-10.4468,15.0615-21.5217,24.9932-3.8977,3.5013-8.0471,6.8489-12.3379,9.9541-10.522,7.6222-17.105,19.4614-18.0642,32.484-.0674.9156-.1699,1.7466-.3137,2.5415l-.0061.0338-.0059.0339c-.2749,1.5972-1.9966,9.8506-8.908,15.4895-2.7461,2.2438-4.4436,2.6366-8.1626,3.4973-3.7639.871-8.9187,2.0638-16.2004,5.7368-9.2725,4.675-19.7693,9.9673-22.2173,21.0818-2.5708,11.6626,5.771,21.7518,10.2524,27.1721,5.2188,6.312,9.8054,9.1641,13.491,11.4558,3.2175,2.0007,5.0054,3.1122,6.8723,6.2179.8057,1.8046,2.241,9.5826,3.7595,17.8125,2.3228,12.5889,3.6023,19.5236,4.6189,28.4071.9077,7.9641,1.1501,12.9929,1.5173,20.6047.5745,11.8067.2129,15.193-1.0935,18.8138-.3491.9673-1.7029,4.4213-4.4316,8.1882-1.8884,2.6028-3.3923,3.9147-5.6692,5.9005-1.0239.8931-2.1846,1.9054-3.5002,3.1425-7.8843,7.3873-13.5884,12.7316-15.6138,21.1804-2.9492,12.357,3.0637,26.5969,13.1284,31.1035,2.0552.9166,4.0339,1.3414,6.2375,1.3414,1.2085,0,2.3162-.1208,3.5986-.2607,1.2808-.1396,2.7327-.298,4.7588-.389.9902-.046,1.9719-.069,2.9304-.069,6.635.0001,12.0554,1.0952,17.7942,2.2545,8.5581,1.7307,13.2629,2.682,18.4443,5.9669,1.2351.777,5.5117,3.6826,9.6929,9.0858,3.9067,5.0468,4.7961,8.4485,6.0269,13.1569.7024,2.6863,1.4983,5.731,2.9006,9.3054.2068.5334.4473,1.1083.7,1.7057.8569,2.02,1.8433,4.0247,3.0183,6.1357,2.0652,3.7277,4.4717,7.7737,8.0127,12.017.1189.1495.2473.3052.376.4536,4.2139,4.9603,9.0447,8.9332,14.3596,11.8095,3.9333,2.1361,6.0994,2.5958,14.1589,4.3063,2.3635.5016,5.3049,1.1259,9.064,1.9526,9.3274,2.0485,12.2002,2.8116,15.5271,3.6954,3.2292.8579,6.8894,1.8303,17.0447,4.1159,1.1223.2532,2.1956.4935,3.2209.7231,11.0881,2.4825,15.6777,3.51,21.3999,7.1112,3.573,2.2502,6.4548,4.7944,8.1174,7.166,1.3408,1.9666,2.4497,4.2812,4.4263,15.6085,1.002,5.6993,1.5576,9.8179,2.0042,13.1272,1.0278,7.6165,1.6482,12.2138,6.5645,16.2249,3.5735,2.9085,8.2346,4.4426,13.4871,4.4426,4.3962,0,8.8579-1.0856,12.5635-3.0566,4.2014-2.2374,6.0562-4.9249,7.6926-7.2959.9458-1.3701,1.9236-2.7868,3.7246-4.6696,5.1274-5.3633,9.9487-7.8298,13.0906-8.9548,2.5652-.9183,4.9062-1.2928,8.0811-1.2927,2.854,0,6.1833.3039,10.3984.6887,5.447.494,8.0068,1.1863,10.2651,1.7972,2.5203.6818,5.126,1.3867,9.5569,1.3867.4756,0,.9785-.0079,1.5103-.0247,8.8071-.2878,16.1453-2.7515,24.6423-5.6043l.085-.0285c4.3899-1.4738,8.5312-3.1111,12.9158-4.8445,3.3303-1.3143,5.8057-2.3419,7.6128-3.0923,3.8762-1.6093,4.6589-1.9205,6.3357-2.1821.9739-.1505,1.9146-.2245,2.8643-.2244,2.769,0,5.4802.6245,9.6167,1.6531,4.9463,1.2288,7.3181,2.382,10.9087,4.1274,2.6169,1.2723,5.5833,2.7142,10.0437,4.4398l.0032.0012.0491.0189c8.5212,3.2881,16.5698,6.3939,23.2314,6.3939,4.4231,0,8.0417-1.3336,10.7556-3.9635,3.46-3.3586,3.5391-6.2961,3.801-16.029.0498-1.8463.1091-4.0513.1919-6.6956.1025-3.1972.1375-3.8233.178-4.5483.0566-1.0192.1208-2.1744.3418-9.0035.082-2.4618.1477-4.5311.2026-6.2717.1245-3.9282.2114-6.6747.3054-7.7297,1.3049-2.4465,5.2437-4.2087,14.8093-8.0367,6.2698-2.5079,9.5459-3.2431,12.7141-3.9541,3.3276-.7467,6.7686-1.519,12.198-4.035,7.3398-3.4069,18.4255-8.5523,24.9749-19.9889,3.6255-6.3151,3.7815-11.0125,3.9067-14.7868.1008-3.0327.1736-5.2239,2.0911-9.1815,3.4705-7.1441,9.0027-11.5016,16.0066-17.0185,6.6567-5.2479,8.9399-6.9526,12.7263-7.9417,1.7466-.4548,3.1592-.5846,4.7949-.7349,2.9585-.2719,6.6406-.6101,11.3789-2.9835,3.1658-1.5894,11.5305-5.7888,13.1523-14.5823,1.1167-5.9688-1.7732-10.4292-5.4316-16.0763-.4463-.6889-.9221-1.4233-1.4248-2.2108-1.8374-2.8672-3.3123-4.5877-5.02-6.5797-1.3027-1.5195-2.9238-3.4106-5.2949-6.5033-2.8621-3.7357-5.5669-7.2664-5.8816-8.5345-.3623-1.4412.1936-5.2493,1.5593-10.7465,1.1394-4.5628,2.0808-7.2677,2.9915-9.8835.5286-1.5184,1.0752-3.0885,1.6121-4.8934,2.9626-9.9457,2.9536-17.7548,2.9431-26.797-.01-5.0629-.0305-15.547-3.3813-28.6099-1.7595-6.8557-3.3967-10.3503-4.7122-13.1582-1.1475-2.4496-1.8401-3.9281-2.4592-7.5801-.7061-4.1687-2.5796-15.2332,2.7615-23.5494,4.0183-6.267,11.501-10.424,13.96-11.79,1.4858-.8262,2.9814-1.5477,4.4275-2.2455,5.2046-2.5111,11.1035-5.3573,14.27-12.4634,2.384-5.3101,1.9604-9.7167,1.1838-12.4746-1.4512-5.1228-5.2305-8.9399-12.6409-12.7753-6.8552-3.5392-12.6956-5.0627-19.0779-6.556-8.0679-1.8876-11.5896-2.526-13.6936-2.9075-1.6738-.3035-1.8889-.3424-3.1011-.7656-8.353-2.9308-13.886-7.8789-16.8584-10.5372-5.2773-4.7236-9.8254-8.7946-12.312-15.4725-.4797-1.2856-.7607-2.3579-1.0586-3.4933-.6777-2.5847-1.446-5.5145-4.0618-9.2595-1.8689-2.691-3.5898-4.228-6.9626-6.8358-.1631-.1294-.332-.2595-.5061-.3929l-.291-.2246-.0464-.0364-.0469-.0356c-.5457-.4158-1.1487-.8722-1.8171-1.3783-.8762-.663-1.8665-1.4127-2.99-2.2695l-1.0723-.8187c-.5671-.4326-1.106-.8438-1.6145-1.2357-3.1687-2.427-5.3782-4.1798-6.7751-5.3743l-.0249-.0212-.0249-.0211c-1.4412-1.2119-1.7153-1.5704-2.033-1.9856-1.2112-1.5977-2.3291-4.1509-4.7405-9.7709-2.2417-5.2343-3.0623-7.771-3.7217-9.8093-.6777-2.0953-1.2629-3.9049-2.7668-6.8477-4.2673-8.3944-9.8867-15.0175-16.6943-19.6698-2.4802-1.6764-6.3562-3.2621-17.2043-7.6038-5.575-2.234-8.8821-3.5115-11.0706-4.3568-3.1743-1.2262-3.5068-1.36-4.8647-2.0747-4.4868-2.3571-10.0642-5.287-14.7415-11.0226-1.8145-2.2203-3.9075-6.6804-7.7073-14.7771l-.1187-.2529c-1.8118-3.8654-3.0295-6.658-4.0081-8.9019-2.0952-4.8049-3.2495-7.4515-6.3071-11.3889-3.2593-4.2163-10.0637-13.0193-20.3435-13.0193h0Z"/>
      </g>
      <path class="cls-8" d="M570.9987,211.105c-2.62,5.88-8.48,7.1899-15.26,10.96-2.79,1.55-11.71,6.5-16.82,14.47-7.02,10.9301-4.77,24.2001-3.92,29.22,1.58,9.3201,4.12,8.9601,7.31,21.3901,3.05,11.8899,3.12,21.52,3.13,26.6098.01,8.6401.02,15.6901-2.61,24.52-1.36,4.5701-2.79,7.48-4.7,15.1301-2.43,9.7799-2.03,12.74-1.56,14.6099.7,2.8201,2.91,5.75,7.3,11.4801,5.52,7.2,7.12,8.15,9.92,12.5199,4.01,6.28,6.34,9.26,5.73,12.52-.9,4.8801-6.41,7.6401-8.86,8.8701-5.63,2.8199-8.62,1.5699-14.61,3.1299-5.59,1.4601-8.95,4.1101-15.66,9.4-7.3,5.75-13.99,11.03-18.2599,19.8199-5.32,10.9801-.47,14.3-5.7401,23.4801-5.28,9.22-14.56,13.5299-21.39,16.7-9.43,4.37-10.97,2.4-24.52,7.8199-11.12,4.4501-16.79,6.8201-19.3,12.52-.67,1.53-.56,2.02-1.05,16.7001-.39,12.0599-.28,6.09-.52,13.5599-.46,14.6901-.2,15.9-1.56,17.22-4.21,4.0801-14.53.0901-25.57-4.1699-10.34-4-12.29-6.48-21.91-8.87-5.67-1.41-10.02-2.4401-15.65-1.5699-3.91.6099-5.27,1.6399-15.66,5.74-4.3,1.7-8.35,3.2999-12.52,4.7-8.37,2.8101-14.78,4.97-22.43,5.22-8.22.26-7.78-1.99-20.35-3.1299-9.53-.8701-15.15-1.3801-21.91,1.0399-8.49,3.0399-14.44,9.14-16.18,10.9601-5.29,5.5299-5.09,8.1399-9.39,10.4299-4.85,2.58-12.6,3.24-17.22-.52-3.64-2.97-2.56-6.4299-5.7401-24.52-2.08-11.9199-3.43-15.4299-5.73-18.79-.83-1.1899-3.66-5.1199-10.44-9.3899-7.5-4.72-13.3-5.75-27.13-8.8701-20.26-4.5599-13.85-3.7-32.61-7.8199-15.96-3.51-17.3-3.4-21.13-5.48-5.1-2.76-9.04-6.38-12.1-9.99-3.53-4.16-5.88-8.2999-7.46-11.14-1.08-1.9399-1.94-3.71-2.64-5.36,19.34,1.63,19.2379,14.1627,49.76,8.88,23.3915-4.0485,46.72,9.25,69.13,17.09,5.68,1.99,17.59,6.42,31.83,3.78,5.65-1.0499,7.42-2.42,16.69-5.09,9.29-2.67,16.28-3.8101,28.31-5.6101,43.02-6.4299,41.4-5.01,46.56-7.1399,5.09-2.1001,23.27-9.6001,32.09-27.1001,5.5-10.9099,2.46-15.99,8.87-35.5399,3.88-11.83,7.32-17.08,10.95-25.04,10.83-23.75,22.527-24.2777,24.787-70.6978.96-19.6-10.227-48.3521-5.867-58.3022,5.46-12.46,11.8701-15.4,19.5601-32.48,2.49-5.52,6.0099-13.48,7.83-24.26,3.6-21.33-3.65-28.89,2.35-43.0399,3.78-8.9301,7.5099-7.9301,13.95-17.4801,5.4-8,7.47-15.66,8.29-22.58,1.45,1.24,3.63,2.98,7.09,5.63.83.64,1.7401,1.33,2.72,2.08,2.42,1.8401,4.22,3.1899,5.61,4.27,2.99,2.3101,4.09,3.3201,5.34,5.12,2.78,3.98,2.43,6.27,4.18,10.9601,3.18,8.5399,8.95,13.7,14.48,18.6499,3.5,3.13,9.87,8.73,19.56,12.13,3.81,1.33,2.65.41,17.61,3.91,5.77,1.35,11.06,2.6899,17.22,5.87,6.26,3.24,7.97,5.5699,8.61,7.83.89,3.16-.35,6.0601-.79,7.04Z"/>
      <path class="cls-1" d="M384.3087,407.655c-4.09,19.1899-2.08,40.4099-12.47,57.0599-9.95,15.9501-26.12,18.91-43.11,22.24-13.6,2.66-20.06,1.33-39.14,4.7001-17.29,3.0499-17.74,5.1599-28.18,6.7799-30.78,4.78-57.16-8.86-66.26-13.5699-11.66-6.03-27.3-14.12-38.61-31.8201-9.63-15.09-11.58-30.0699-13.04-41.22-1.5-11.51-.84-18.22-.19-24.5701.7-6.97,1.39-13.5199-.85-25.5199-2.32-12.41-5-25.83-15.65-36.52-8.19-8.2101-12.39-6.1-21.4-15.13-11.57-11.61-15.11-25.5701-16.69-31.8301-4.06-16.0199-1.92-29.0399,0-40.6899,1.52-9.22,2.65-16.1399,6.78-24.52,6.13-12.45,14.68-19.6399,25.04-28.1799,16.31-13.4301,16.93-9.03,30.79-20.87,17.06-14.5699,20.11-24.63,31.82-25.5601,3.9-.3099,9.04.36,16.7-2.09,5.1-1.63,8.5-3.75,10.96-5.22,0,0,9.95-5.95,26.08-13.04,14.13-6.21,27.84-4.78,38.61-3.65,22.3,2.33,37.64,11.66,49.04,18.78,14.83,9.26,24.23,15.12,30.02,25.5499.65,1.1602,1.25,2.3801,1.81,3.67,8.4,19.34.6,38.7201-2.09,45.39-2.01,5.01-10.26,24.6899-30.78,34.96-12.2,6.1101-22.94,5.98-43.82,5.73-19.16-.22-17.83-2.9099-39.14-3.6499-28.29-.98-32.95,3.6899-48-1.5601-7.99-2.79-8.3-4.6799-25.04-11.48-12.21-4.96-18.46-7.45-25.56-7.83-3.33-.17-23.23-1.2101-30.26,10.96-3.96,6.85-2.09,14.84-1.05,19.2999.44,1.8501,1.9,7.4501,8.36,16.02.78,1.05,1.65,2.1501,2.6,3.29,8.78,10.54,12.54,10.3101,19.82,18.26,10.75,11.73,14.27,25.01,15.66,30.26,4.44,16.78-1.15,19.53,3.13,36,2.05,7.91,6.25,24.0601,18.78,30.26,7.98,3.95,10.49-.52,29.74,1.04,16.21,1.3199,17.44,4.73,31.3,4.7,8.37-.02,17.4-.04,26.09-5.22,7.8-4.64,9.19-9.79,16.7-19.8201,14.5-19.3899,31.71-36.34,58.02-29.4299,12.77,3.36,23.9,11.36,33.25,20.6899,4.69,4.67,9.13,9.99,11.6801,16.01.95,2.23,1.64,4.5701,1.98,7,1.15,8.17-1.71,16.28-3.43,24.3401Z"/>
      <path class="cls-6" d="M53.6034,386.5398c-6.1667-5.7295,9.7314-20.6724,12-50.6088,1.1813-15.589-2.8647-29.1753-10.9565-56.3478-2.1064-7.0732-4.038-12.3521-8.8696-16.6957-4.0095-3.6046-6.3344-3.2552-16.4348-9.9131-7.937-5.2318-9.6747-7.5392-10.4348-10.1738-.9732-3.3732-.3721-7.3801,1.5652-10.4348,3.3392-5.2651,8.8252-4.8268,19.8261-9.3914,2.7567-1.1438,8.9424-3.7498,15.3913-8.3478,4.7448-3.3831,12.8597-9.3132,16.9565-19.3043,2.5028-6.1038.9661-7.5289,2.6087-13.5652,2.8267-10.3876,9.5411-14.1171,27.5218-30.5217,12.7282-11.6127,19.1565-17.5322,22.3044-23.087,3.8129-6.7284,10.2531-18.0929,8.2174-31.3043-.9727-6.3124-3.5381-10.8263-2.3478-19.174.4916-3.4473,1.1562-8.1079,4.6956-11.7391,5.4095-5.5498,13.9222-4.9896,18.3913-4.6956,11.0182.725,12.8412,5.1755,23.087,7.4347,13.8936,3.0636,26.0699-1.6962,29.7391-3.1304,12.8912-5.0391,11.6993-10.4597,26.6086-16.8262,2.8282-1.2076,12.1454-4.9729,24.6522-5.8695,8.1942-.5875,9.5347.6459,22.3043,1.5652,20.7208,1.4917,31.0813,2.2375,41.8696-2.3478,9.7238-4.1328,19.1738-9.3914,19.1739-9.3914,6.7828-3.7743,8.6651-5.3392,12.1304-5.0869,8.752.6373,14.3983,11.9054,15.2609,13.6957,2.7962,5.8033,1.3792,7.5975,3.5217,13.6956,4.0212,11.4447,13.4919,17.8737,14.8696,18.7827,9.5599,6.3083,14.0521,2.2303,29.7391,9.7826,7.0168,3.3781,11.0646,6.5754,12.1304,7.4347,4.1262,3.3265,10.4707,8.4413,13.6956,17.2174,1.9569,5.3256,1.9568,9.7993,1.9565,15.6522-.0002,4.4027-.0027,10.9967-1.9565,16.4348-6.1914,17.2333-31.5699,21.7012-32.8696,21.913-15.7113,2.561-28.2917-3.2981-37.1739-7.4347-5.166-2.4059-5.9122-3.361-28.9565-19.9565-22.7198-16.3618-27.2574-19.2236-34.0435-22.3043-11.0309-5.0077-20.5574-7.2135-25.8261-8.2174-7.039-1.3413-25.1819-4.1012-46.5652.7826-16.4164,3.7494-30.913,10.5652-30.9131,10.5652-5.3664,2.5231-7.7429,4.0549-12.913,5.4783-10.7041,2.9468-14.9986.3672-25.0435,1.5652-3.3135.3951-15.7696,1.8807-25.4348,10.174-9.6985,8.3217-5.7679,14.2148-16.4348,25.0435-7.1917,7.3007-10.0677,5.7279-20.7391,15.2609-3.0739,2.746-8.9683,8.0737-14.4783,16.0435-10.9174,15.7911-6.0777,21.3456-16.4348,34.0436-5.4159,6.64-9.6087,8.6393-10.5652,14.8695-1.0011,6.5209,2.4716,11.6288,4.6956,15.6522,9.2351,16.7069,1.4058,22.7936,9.3913,63.3912,2.7397,13.9283,3.8599,14.2219,4.6956,23.087,1.2929,13.7146,2.9084,30.8507-7.8261,40.6956-6.3528,5.8262-17.5318,9.5582-21.7826,5.6088Z"/>
      <path class="cls-2" d="M570.9987,211.105c-2.62,5.88-8.48,7.1899-15.26,10.96-2.79,1.55-11.71,6.5-16.82,14.47-7.02,10.9301-4.77,24.2001-3.92,29.22,1.58,9.3201,4.12,8.9601,7.31,21.3901,3.05,11.8899,3.12,21.52,3.13,26.6099.01,8.6401.02,15.6901-2.61,24.52-1.36,4.5701-2.79,7.48-4.7,15.1301-2.43,9.7799-2.03,12.74-1.56,14.6099.7,2.8201,2.91,5.75,7.3,11.4801,5.52,7.2,7.12,8.15,9.92,12.5199,4.01,6.28,6.34,9.26,5.73,12.52-.9,4.8801-6.41,7.6401-8.86,8.8701-5.63,2.8199-8.62,1.5699-14.61,3.1299-5.59,1.4601-8.95,4.1101-15.66,9.4-7.3,5.75-13.99,11.03-18.2599,19.8199-5.32,10.9801-.47,14.3-5.7401,23.4801-5.28,9.22-14.56,13.5299-21.39,16.7-9.43,4.37-10.97,2.4-24.52,7.8199-11.12,4.4501-16.79,6.8201-19.3,12.52-.67,1.53-.56,2.02-1.05,16.7001-.39,12.0599-.28,6.09-.52,13.5599-.46,14.6901-.2,15.9-1.56,17.22-4.21,4.0801-14.53.0901-25.57-4.1699-10.34-4-12.29-6.48-21.91-8.87-5.67-1.41-10.02-2.4401-15.65-1.5699-3.91.6099-5.27,1.6399-15.66,5.74-4.3,1.7-8.35,3.2999-12.52,4.7-8.37,2.8101-14.78,4.97-22.43,5.22-8.22.26-7.78-1.99-20.35-3.1299-9.53-.8701-15.15-1.3801-21.91,1.0399-8.49,3.0399-14.44,9.14-16.18,10.9601-5.29,5.5299-5.09,8.1399-9.39,10.4299-4.85,2.58-12.6,3.24-17.22-.52-3.64-2.97-2.56-6.4299-5.7401-24.52-2.08-11.9199-3.43-15.4299-5.73-18.79-.83-1.1899-3.66-5.1199-10.44-9.3899-7.5-4.72-13.3-5.75-27.13-8.8701-20.26-4.5599-13.85-3.7-32.61-7.8199-15.96-3.51-17.3-3.4-21.13-5.48-5.1-2.76-9.04-6.38-12.1-9.99-.08-.09-.16-.1901-.23-.28,8.96.25,18.61.5599,28.93.88,9.25.29,19.69.79,32.8701,3.91,13.97,3.3099,32.14,7.61,50.87,20.35,10.8,7.3401,16.33,13.78,25.05,12.52,6.56-.95,7.5-5.1899,17.21-8.61,7.73-2.7201,11.94-1.7301,23.48-2.35,3.16-.17,16.15-.91,28.18-3.91,22.21-5.53,21.5-13.84,39.91-16.4301,11.68-1.6499,16.72,1.02,24.26-3.9199,5.97-3.91,9.26-9.8101,12.52-15.65,4.93-8.83,4.98-12.88,7.83-19.5599,6.87-16.1201,20.56-25.3901,25.8199-28.9601,14.17-9.6,22.28-7.92,29.7401-18.78,2.37-3.45,1-2.8099,6.2599-12.5299,7.36-13.5601,10.83-16.28,10.96-22.6901.11-5.83-2.73-5.5499-4.7-14.09-.57-2.47-1.55-7.8101,1.57-27.39,2.49-15.62,3.68-15.76,3.91-22.7001.33-9.6399-1.86-12.7-3.91-24.26-3.25-18.3199-6.59-37.1799,2.74-50.8699,3.55-5.2001,7.94-8.1901,10.56-16.4301.94-2.9301,3.15-10.2101-.39-15.65-1.59-2.45-3.02-2.48-5.48-4.7-6.44-5.8-7.14-15.04-7.43-18.78-.67-8.79,2.28-13.48,5.48-23.48,2.02-6.3,3.04-11.3201,3.6-15.39.28.22.55.42.8.62,2.99,2.3101,4.09,3.3201,5.34,5.12,2.78,3.98,2.43,6.27,4.18,10.9601,3.18,8.5399,8.95,13.7,14.48,18.6499,3.5,3.13,9.87,8.73,19.56,12.13,3.81,1.33,2.65.41,17.61,3.91,5.77,1.35,11.06,2.6899,17.22,5.87,6.26,3.24,7.97,5.5699,8.61,7.83.89,3.16-.35,6.0601-.79,7.04Z"/>
      <path class="cls-4" d="M211.5599,136.1702c5.6764-.9167,5.0164-2.8732,17.2174-9.1957,6.575-3.4071,10.6801-5.5343,16.4348-7.0435,6.7365-1.7666,11.898-1.6803,18.7827-1.5652,11.6218.1943,20.4424,2.2407,25.826,3.5217,2.1847.5199,8.7657,2.142,17.0217,5.2826,7.6052,2.8931,14.9566,6.4375,21.1304,12.9131,2.7574,2.8922,3.8746,4.895,3.5218,6.8478-.5956,3.2965-5.169,5.2782-8.4131,5.8696-5.1204.9335-8.4198-1.325-15.8478-4.5-5.812-2.4844-10.7225-3.9388-20.5435-6.8479-8.6625-2.5659-13.39-3.9662-19.9565-4.6956-7.8689-.874-6.9604.4838-25.0435.5869-11.5817.066-13.1156-.4843-17.8043.7826-4.2592,1.1508-6.6302,2.5875-13.8913,4.3043-9.9394,2.35-10.957.9489-11.1522.587-.5969-1.1064.8591-2.9454,1.174-3.3262,2.7339-3.3064,7.2007-2.8203,11.5435-3.5217Z"/>
      <path class="cls-4" d="M108.1252,202.105c-3.0239-.9954-8.5333,6.5792-11.4782,12.2609-2.9843,5.7574-4.0301,12.1775-6,24.7826-1.2086,7.7335-1.8131,11.697-1.8261,16.4348-.0248,9.0519,1.5926,15.793,2.087,17.7391,2.8562,11.2429,8.4394,20.7235,9.3913,20.3478,1.0919-.4309-6.3835-12.8513-6.7826-31.826-.2254-10.7167,2.1124-8.9758,3.6522-30,.4386-5.9882.5202-9.8336,3.3913-13.5652,3.6495-4.7433,8.7614-5.345,9.6522-9.9131.4919-2.5221-.4093-5.7086-2.087-6.2609Z"/>
      <path class="cls-4" d="M197.6034,397.4963c4.021-.8375,10.2628-1.7705,17.8696-1.3044,7.2787.4459,8.8292,1.7455,16.8261,2.3479,12.0315.9064,19.2673-1.2255,19.5652,0,.2953,1.2148-6.5546,4.3868-13.3044,5.8695-7.2478,1.592-13.6187,1.069-16.826.7826-7.0445-.6289-6.645-1.7452-11.3478-1.5652-6.0511.2317-7.9908,2.129-13.6957,1.5652-3.2423-.3204-8.1108-1.4763-8.2174-3.1304-.1336-2.0735,7.271-4.0812,9.1304-4.5652Z"/>
      <path class="cls-4" d="M280.4295,380.931c-.8902-1.5381,3.0034-4.1787,11.7391-14.4783,9.6727-11.4042,9.3255-13.3856,14.4783-17.2173,8.756-6.5111,18.434-7.2408,21.5217-7.4348.0001,0,15.7109-.9871,28.9565,8.6086,3.1227,2.2622,3.1454,3.0012,9.3913,7.8262,5.9426,4.5906,8.0418,5.5592,8.6087,8.2173.7809,3.6613-1.8024,8.3862-5.4783,10.174-4.6099,2.2419-10.1047-.5413-18.7826-5.0869-10.3586-5.426-10.3232-7.8823-16.0435-9-7.9805-1.5593-15.1814,1.8278-18.7826,3.5217-6.1143,2.8761-6.1318,4.7777-12.5217,8.6086-9.6124,5.7629-21.6686,8.7114-23.087,6.2609Z"/>
      <path class="cls-3" d="M354.2786,207.8249c-2.01,5.01-10.26,24.6899-30.78,34.96-12.2,6.1101-22.94,5.98-43.82,5.73-19.16-.22-17.83-2.9099-39.14-3.6499-28.29-.98-32.95,3.6899-48-1.5601-7.99-2.79-8.3-4.6799-25.04-11.48-12.21-4.96-18.46-7.45-25.56-7.83-3.33-.17-23.23-1.2101-30.26,10.96-3.96,6.85-2.09,14.84-1.05,19.2999.44,1.8501,1.9,7.4501,8.36,16.02-3.79-2.84-6.76-6.0999-9.04-9.74-1.88-2.99-6.41-10.45-5.21-20.34,1.19-9.92,7.37-16.0599,9.39-18,6.27-6.0499,13.21-7.73,19.04-9.13,9.88-2.38,17.64-1.4199,24.78-.53,12.05,1.51,22.16,2.77,28.18,9.92,1.28,1.52,2.41,3.36,5.08,5.08,2.81,1.8201,6.86,3.22,14.09,2.74,7.8-.51,12.06-2.75,17.22-4.2999,5.23-1.5699,8.17-1.4701,32.87,0,26.47,1.5699,25.91,1.63,27,1.5599,6.54-.3699,21.61-1.3899,37.5601-10.5599,5.47-3.14,20.3-11.67,28.5699-28.5699,5.61-11.4601,6.05-22.4001,6.04-29.6401.65,1.1602,1.25,2.3801,1.81,3.67,8.4,19.34.6,38.7201-2.09,45.39Z"/>
      <path class="cls-3" d="M384.3087,407.655c-4.09,19.1899-2.08,40.4099-12.47,57.0599-9.95,15.9501-26.12,18.91-43.11,22.24-13.6,2.66-20.06,1.33-39.14,4.7001-17.29,3.0499-17.74,5.1599-28.18,6.7799-30.78,4.78-57.16-8.86-66.26-13.5699-11.66-6.03-27.3-14.12-38.61-31.8201-9.63-15.09-11.58-30.0699-13.04-41.22-1.5-11.51-.84-18.22-.19-24.5701,1.58,4.0701,3.55,9.1801,6.03,15.5901,7.74,19.99,11.22,28.6899,18.4,39.13,5.34,7.7799,8.57,12.36,14.86,16.0399,8.8,5.1501,13.87,2.8601,28.57,6.6602,16.08,4.1499,14.64,8.0798,25.43,9.7799,13.82,2.17,16.97-4.15,37.96-7.0499,19.55-2.6901,19.42,2.4299,36.78-.78,9.54-1.76,25.56-4.72,36.4-17.22,2.59-2.99,5.51-8.25,11.34-18.78,5.57-10.04,7.1801-14.3401,12.52-21.52,5.78-7.76,7.02-6.9399,9.79-11.3501,4.39-7,4.89-14.8298,4.3701-21.4399.95,2.23,1.64,4.5701,1.98,7,1.15,8.17-1.71,16.28-3.43,24.3401Z"/>
      <path class="cls-5" d="M225.5165,56.0181c4.7619-2.8005,10.3815-6.0338,19.826-8.087,11.1993-2.4346,20.5256-1.6333,27.3914-1.0435,7.564.6499,7.4487,1.3817,15.1304,1.826,6.5006.376,12.4047.7174,20.0869-.2609,6.4409-.8202,11.0086-2.1704,11.4783-1.0435.4235,1.0162-2.8152,3.2542-3.3913,3.6522-8.0469,5.5604-18.488,4.3744-31.3043,3.6521-14.1992-.8002-21.2988-1.2003-27.1305-.2609-12.2988,1.9813-18.8552,3.0375-24.7826,8.3479-2.9311,2.626-5.6022,6.1971-9.6522,6-2.8549-.139-5.9705-2.1298-6.2609-4.4348-.0983-.7805-.0794-3.2383,8.6087-8.3478Z"/>
      <path class="cls-5" d="M341.0817,36.0615c3.2393-2.683,3.3049-3.2961,5.2174-4.3043.9995-.5269,3.238-1.6722,6.2609-1.5653,2.9857.1056,5.1047,1.3751,6.2609,2.087,1.8739,1.1539,2.9449,2.4214,5.087,4.9565,1.7418,2.0614,2.7674,3.2751,3.6522,5.2173.422.9263,2.4305,5.3352.913,6.6522-1.0213.8864-3.3881.1538-4.826-1.0435-1.4438-1.2023-1.3873-2.4037-2.4783-4.5652-.5201-1.0304-2.1346-4.2292-5.3478-6-3.5422-1.952-7.431-1.2889-8.8696-1.0436-.5237.0894-1.3956.2426-2.4783.6522-2.7951,1.0576-4.2424,2.7827-5.3478,3.7826-4.1719,3.7737-10.6693,3.7251-10.8261,3.2609-.1057-.3129,2.5953-1.0326,6.913-3.7826,2.5857-1.6469,4.7867-3.4075,5.8696-4.3043Z"/>
      <path class="cls-5" d="M136.0382,95.1484c-.9293.0543-2.8036-7.0232-2.0869-14.8695.3733-4.087.7963-8.0914,3.913-11.4783,2.9048-3.1565,6.4876-3.9707,7.5652-4.174,2.7047-.51,6.84-.4167,7.3044,1.0435.3328,1.0464-1.4212,2.1599-7.0435,7.3043-2.3343,2.1359-3.5014,3.2037-4.1739,3.9131-6.5415,6.8997-4.3067,18.1924-5.4783,18.2609Z"/>
      <path class="cls-5" d="M22.2991,241.7572c-.5178-4.0349,1.9467-7.1729,2.8696-8.3479,2.1965-2.7968,4.8833-4.0106,7.0435-4.9565,4.0725-1.7832,6.759-1.7802,9.6522-2.3478,10.5875-2.0771,16.1012-10.2582,16.9565-9.3914.7048.7142-2.4429,6.8724-8.3478,10.4348-1.5785.9523-4.9654,2.287-11.7391,4.9565-3.7022,1.459-5.1766,1.9724-6.2609,3.6522-1.3056,2.0227-.5237,3.3787-1.8261,7.3043-.787,2.3721-1.7459,5.2623-3.3913,5.4783-1.9615.2574-4.5143-3.3363-4.9565-6.7826Z"/>
      <path class="cls-9" d="M384.1252,87.8441c-2.019-2.7869-6.4062-6.2428-11.2174-4.9565-5.0885,1.3604-7.91,7.2925-7.0435,12.2609,1.0589,6.0715,7.615,10.6459,13.3043,9.1305,3.4691-.924,6.2272-4.0085,7.0435-7.5653,1.0438-4.5481-1.502-8.0621-2.0869-8.8695Z"/>
      <path class="cls-9" d="M269.0817,88.6267c1.6979-4.2716-.4885-8.9744-3.1304-11.4783-5.0953-4.829-15.514-4.9183-19.3043,1.3043-2.5093,4.1196-1.6665,10.272,2.087,13.8262,4.0333,3.8192,9.5447,2.8555,10.9565,2.6086,1.5328-.2681,7.4183-1.2971,9.3913-6.2609Z"/>
      <path class="cls-9" d="M191.0165,78.4527c-2.3177-4.3556-8.4976-3.9382-8.8044-3.913-3.8174.3151-8.4188,2.9419-8.6087,6.4565-.1639,3.0328,3.0331,5.3218,4.8913,6.6521,1.8621,1.3331,4.6766,3.3481,7.6304,2.5435,4.1204-1.1224,7.2123-7.3773,4.8913-11.7391Z"/>
      <path class="cls-9" d="M134.3426,133.2355c.0079-1.7052-1.1978-3.1617-2.6087-3.6522-2.2631-.7866-5.253.8434-5.4783,3.2609-.1887,2.0245,1.631,3.8571,3.5218,4.174,1.5236.2554,2.7054-.5383,2.8696-.6522.1437-.0997,1.6867-1.2101,1.6956-3.1304Z"/>
      <path class="cls-9" d="M98.0817,165.9745c-2.2637-2.0726-6.6108-.9686-8.4783,1.6957-1.3612,1.942-1.7296,5.1763.1304,7.0435,1.9926,2.0002,5.2034,1.087,5.3478,1.0436.3607-.1085,1.783-.576,2.8696-1.9565,1.65-2.0963,2.2216-5.9115.1304-7.8262Z"/>
      <path class="cls-9" d="M49.1686,250.8876c1.7467-2.5819,1.106-6.636-1.3044-8.8695-3.3375-3.0927-9.4117-2.0864-11.4783,1.5652-1.2434,2.1971-.9035,5.1176.5218,7.0435,2.7409,3.7036,9.7144,4.0249,12.2609.2609Z"/>
      <path class="cls-9" d="M70.9513,364.6267c2.861-.3527,4.7373-3.3942,4.5652-6.1304-.1367-2.1736-1.5977-4.6553-4.1739-5.2174-2.1371-.4663-4.2936.5514-5.4783,2.2174-1.8282,2.5709-.5023,5.5045-.3913,5.7391.9005,1.9031,3.0334,3.6925,5.4783,3.3912Z"/>
      <path class="cls-9" d="M418.9512,141.0615c-.3083-5.2065-3.9365-9.6963-8.6087-11.3479-5.8589-2.0712-13.6143.2307-16.0435,6.2609-2.2336,5.5447,1.1302,11.525,5.087,14.4783,4.0057,2.9899,10.5952,4.3522,15.2609.7827,4.6003-3.5194,4.3415-9.5468,4.3043-10.174Z"/>
      <path class="cls-9" d="M331.4295,68.0181c-1.6536-2.3599-4.972-2.5919-7.1739-1.3044-2.2463,1.3134-3.525,4.3219-2.4783,6.5219,1.0714,2.252,4.0506,2.5452,4.6956,2.6086.7888.0776,2.6006.256,4.0435-.9131,1.8224-1.4766,2.4983-4.6508.913-6.913Z"/>
      <path class="cls-9" d="M345.386,117.5832c1.1498-2.5465.066-5.8008-2.1522-7.4348-3.0844-2.2722-8.1712-1.2709-9.7827,2.1522-1.1949,2.5383-.1824,5.7786,1.9565,7.4348,3.0986,2.3994,8.3977,1.3481,9.9783-2.1522Z"/>
      <path class="cls-8" d="M175.9512,246.9745c-4.5541-1.328-9.8793-.2754-13.5652,3.3914-.2278.2266-5.4245,5.5792-3.6522,12.7826.1867.759,1.6876,6.4426,7.3044,8.8696,5.6633,2.4471,10.8708-.4215,12-1.0436.8708-.4797,8.1839-4.6672,7.8261-12.2609-.2769-5.8772-4.9844-10.3019-9.9131-11.7391Z"/>
      <path class="cls-8" d="M302.7339,288.1919c-.4657-9.8138-16.214-19.6729-28.9565-15.6521-7.5349,2.3776-15.2611,10.0002-14.8696,19.3043.2346,5.5732,3.3503,11.0009,8.087,14.0869,5.6354,3.6716,11.6209,2.7622,14.3478,2.3479,1.0596-.161,5.7378-.9454,10.6957-4.4348,1.5793-1.1116,11.0687-7.7903,10.6957-15.6522Z"/>
      <path class="cls-8" d="M383.3425,235.7572c-4.8893-2.8273-11.0769-2.4023-15.3913.7826-6.4827,4.7855-7.5889,14.9556-2.6087,20.8695,3.2969,3.915,8.6804,5.2753,13.3044,4.4348,4.8962-.8899,9.5781-4.3628,11.2174-9.6522,1.9196-6.1938-.8641-13.1632-6.5218-16.4347Z"/>
      <path class="cls-8" d="M425.6034,175.4963c-2.8612-2.3352-6.9061-2.4084-9.913-.7827-3.6813,1.9904-5.9254,6.5913-4.4348,10.9565,1.4594,4.2736,5.9176,6.6207,9.913,6,4.0192-.6244,6.0201-4.0115,6.2609-4.4347,2.0031-3.5222,1.7673-8.8064-1.8261-11.7391Z"/>
      <path class="cls-8" d="M397.6904,347.6702c4.3687-.9369,7.4782-4.7513,8.087-8.8695.7629-5.1611-2.5909-9.5194-6.2609-11.4783-3.5746-1.9081-9.2148-2.4822-12.7826,1.0435-3.8572,3.8118-2.921,10.0725-.5218,13.826,1.9843,3.1044,6.3071,6.5873,11.4783,5.4783Z"/>
      <path class="cls-8" d="M233.3425,372.7136c3.3152-3.3385,2.4632-9.5775-.5217-13.3043-2.7101-3.3838-8.2399-6.0219-13.0435-3.3912-4.3026,2.3563-6.0089,7.837-4.4348,12,1.5755,4.1666,5.882,5.5448,7.3044,6,.9588.3069,7.1334,2.2828,10.6956-1.3044Z"/>
      <path class="cls-8" d="M128.2121,380.5398c1.1896-4.2172-.1083-9.4282-4.1739-12.2609-4.2204-2.9404-10.5995-2.7439-14.0869,1.3043-3.6099,4.1904-2.1232,10.188.2609,13.5652.2079.2946,4.597,6.3082,10.6956,4.9565,5.4047-1.1979,7.1661-7.0752,7.3044-7.5652Z"/>
      <path class="cls-8" d="M77.3426,415.7572c3.0353-6.1455-1.4558-14.6366-8.3478-16.6957-5.7172-1.708-13.146.9922-15.1304,7.0435-1.7652,5.3826,1.564,11.0177,5.7391,13.5652,5.7907,3.5333,14.7771,2.0842,17.7391-3.913Z"/>
      <path class="cls-8" d="M220.5599,305.4093c-2.4611-4.502-9.8719-6.5247-14.8696-3.1304-3.0971,2.1035-4.8224,5.9851-4.3043,9.7826.7231,5.3003,5.6447,9.177,10.1739,9,6.8672-.2684,12.1824-9.8308,9-15.6522Z"/>
      <path class="cls-8" d="M392.7339,290.5398c-1.6628-5.415-9.3442-7.9434-14.8696-5.4783-4.6252,2.0635-8.2929,7.8729-6.2609,12.913,1.8557,4.6028,7.5375,6.264,11.7391,5.4783,5.8798-1.0996,11.0822-7.4069,9.3914-12.913Z"/>
      <path class="cls-2" d="M474.9078,209.5398c-2.9879-4.5221-9.4915-5.5394-14.087-3.9131-6.9847,2.4718-11.4891,11.7325-8.2174,17.6088,2.8618,5.14,10.2273,5.0939,10.5652,5.0869,6.024-.1245,11.5351-4.5476,12.913-10.174.2078-.8483,1.2207-4.9844-1.1739-8.6086Z"/>
      <path class="cls-2" d="M459.2556,164.5398c-1.8701-.3854-3.4028,1.1792-3.5217,1.3043-1.6071,1.6909-1.7105,4.6655-.1305,6.3914.0967.1056,1.705,1.8057,3.7827,1.3043,2.2013-.5312,2.8151-3.0233,2.8696-3.2609.5264-2.2961-.7525-5.2759-3-5.7391Z"/>
      <path class="cls-2" d="M446.7339,274.8876c-1.1744-3.7037-4.7865-8.2953-9.6522-8.0869-5.437.2328-8.1304,6.2745-8.3478,6.7826-1.8469,4.3174-1.0413,9.8699,2.6086,13.3043.3763.3541,4.5406,4.1581,9.1304,2.8696,5.4147-1.52,8.0636-9.1848,6.2609-14.8696Z"/>
      <path class="cls-2" d="M464.7339,356.6702c2.8169-4.809-.8502-10.9025-3.5218-13.6957-.7089-.7412-5.8066-6.0708-11.3478-4.3043-5.0589,1.6128-7.7432,8.2655-6.2609,13.6957,1.3677,5.0105,6.0508,8.1313,10.5652,8.6086,3.2289.3414,8.3157-.464,10.5652-4.3043Z"/>
      <path class="cls-2" d="M429.9078,394.4963c-2.0412-4.0254-7.4772-4.2844-8.087-4.3044-4.3013-.1411-9.8019,2.3903-11.0869,7.6957-1.2543,5.1788,2.0058,10.946,6.6522,12,4.9744,1.1283,9.0587-3.708,9.7826-4.5652.5501-.6514,5.1415-6.0883,2.7391-10.826Z"/>
      <path class="cls-2" d="M396.2556,442.3658c-1.2462-1.9637-3.7456-2.543-5.674-1.9565-2.646.8048-4.347,3.8444-3.5217,6.4565.5284,1.6724,2.0488,3.032,3.913,3.326,2.9183.4602,4.7739-1.9912,4.8914-2.1521,1.0493-1.4376,1.6074-3.7576.3913-5.674Z"/>
      <path class="cls-2" d="M321.9078,505.1702c1.538-2.1276.4923-5.725-1.1739-7.826-2.7994-3.5302-8.5374-4.3335-12.1305-1.7609-2.5402,1.8187-4.4275,5.625-3.1304,8.0217.8853,1.6357,2.9165,1.9917,6.0652,2.5435,4.1752.7316,8.5761,1.5028,10.3696-.9783Z"/>
      <path class="cls-2" d="M253.0382,513.8441c-.278-2.8241-2.6797-4.9877-5.3478-5.3478-2.5927-.35-5.6772.9705-6.5217,3.6521-.8492,2.6963,1.0538,5.2203,2.6087,6.3914.375.2825,3.4016,2.4838,6.3913.913,2.1234-1.1156,3.0744-3.5277,2.8696-5.6086Z"/>
      <path class="cls-7" d="M518.3425,296.0181c-7.2241-3.3704-14.313,2.2805-14.8696,2.7391-5.3881,4.4397-8.5885,13.4324-4.3043,19.9564,2.9316,4.4645,8.4981,6.448,13.3043,5.8696,7.9608-.9581,13.6568-8.9235,13.3044-16.4348-.0259-.551-.5558-8.921-7.4348-12.1304Z"/>
      <path class="cls-7" d="M521.8643,202.6919c-1.1932-4.0486-7.1343-6.2847-11.7391-4.6956-3.1218,1.0774-5.9697,4.0302-6.2609,7.826-.322,4.1985,2.5498,8.5685,6.2609,9.1957,2.9104.4919,5.3247-1.4893,6.8478-2.7391.9879-.8107,6.214-5.0992,4.8914-9.587Z"/>
      <path class="cls-7" d="M532.4295,394.6267c2.0185-4.9558-2.3901-11.8571-8.2174-13.6957-3.2792-1.0347-7.8096-.7191-10.9565,2.3479-3.5407,3.4508-4.4039,9.4822-1.5652,13.3043,2.9096,3.9176,8.3043,3.6237,10.174,3.5217.9658-.0526,8.523-.4645,10.5652-5.4783Z"/>
      <path class="cls-7" d="M449.0817,432.5832c-3.239-3.7933-10.1921-3.0664-14.4783-.7826-5.5342,2.9489-9.4656,10.0085-7.4348,15.6521.1413.3927,1.4728,3.9198,5.087,5.4783,5.84,2.5183,11.8912-2.5828,12.5217-3.1304,4.7894-4.16,8.1477-12.7162,4.3043-17.2174Z"/>
      <path class="cls-7" d="M496.5599,258.7136c-3.754-4.5635-11.4289-4.5835-15.3913,0-3.9655,4.587-2.7288,12.0685,2.087,15.1305,3.7123,2.3605,8.8024,1.6183,12-1.3043,3.8123-3.4845,4.6269-9.7871,1.3043-13.8262Z"/>
      <path class="cls-7" d="M415.8208,526.4963c2.8829-3.3749,4.5477-8.8163,2.3478-13.3044-3.0786-6.2808-12.6246-8.4478-18.7826-4.3043-4.8793,3.283-7.227,10.2554-4.6957,15.6522,2.1923,4.674,7.054,6.0548,7.8261,6.2609,4.9395,1.3181,10.1542-.6166,13.3043-4.3043Z"/>
      <path class="cls-7" d="M351.6469,507.1267c-1.4656-2.8462-5.8047-3.1831-8.413-1.5652-1.614,1.0012-3.3184,3.2181-2.7391,5.4783.8018,3.1285,5.2527,3.5057,5.4782,3.5217.6946.0491,2.8459.201,4.5-1.3696,1.6163-1.5348,2.1613-4.1478,1.174-6.0652Z"/>
      <path class="cls-7" d="M300.386,543.0615c1.836-2.854.6368-6.6752-1.5652-8.6088-3.3144-2.9104-9.4786-2.0518-11.2174,1.5653-1.4233,2.9609.4049,7.1752,3.6522,8.8695,2.8666,1.4956,7.1802,1.2056,9.1304-1.826Z"/>
      <path class="cls-7" d="M235.1686,555.9745c2.3329-1.1471,3.0142-4.1045,2.3478-6.2609-.8643-2.7965-4.0945-4.567-6.5217-3.7826-1.5234.4923-2.2706,1.8423-2.4783,2.2174-1.0584,1.9121-.9789,4.683.7826,6.5217,1.3711,1.4313,3.7894,2.3271,5.8696,1.3043Z"/>
      <path class="cls-7" d="M189.2556,500.4745c-3.2815-3.1714-9.7056-2.5129-11.1522.3914-1.1293,2.2673.8739,5.7045,3.1305,7.4348,2.6308,2.0172,7.321,3.0298,9.3913.5869,1.8636-2.199.8315-6.2859-1.3696-8.4131Z"/>
      <path class="cls-7" d="M483.2556,467.1484c-.0958-3.6521-2.8597-7.118-6.7827-7.5652-4.0449-.4611-7.5598,2.4883-8.3478,6-1.0411,4.6398,2.806,9.6886,7.5652,9.6522,4.081-.0312,7.6779-3.7927,7.5652-8.087Z"/>
    </g>
  </g>
</svg>