<?xml version="1.0" encoding="UTF-8"?>
<svg id="Capa_2" xmlns="http://www.w3.org/2000/svg" viewBox="0 0 1292.4538 569.4389">
  <defs>
    <style>
      .cls-1 {
        fill: #41799b;
      }

      .cls-2 {
        fill: #a1d2e6;
      }

      .cls-3 {
        fill: #e1f0f9;
      }

      .cls-4 {
        fill: #7dc8e5;
      }

      .cls-5 {
        fill: #6190ab;
      }

      .cls-6 {
        fill: #4582a3;
      }

      .cls-7 {
        fill: #a4d3e7;
      }

      .cls-8 {
        fill: #97cce1;
      }

      .cls-9 {
        fill: #97d1ea;
      }

      .cls-10 {
        fill: #fff;
      }

      .cls-11 {
        fill: #add8e8;
      }

      .cls-12 {
        fill: #4b85a6;
      }

      .cls-13 {
        fill: #e1f0f8;
      }

      .cls-14 {
        fill: #417a9b;
      }

      .cls-15 {
        fill: #41799c;
      }

      .cls-16 {
        fill: #e2f0f9;
      }

      .cls-17 {
        fill: #b5d6ea;
      }

      .cls-18 {
        fill: #3c7799;
      }

      .cls-19 {
        fill: #6e9bb2;
      }

      .cls-20 {
        fill: #437b9d;
      }

      .cls-21 {
        fill: #427b9b;
      }

      .cls-22 {
        fill: #407b9e;
      }

      .cls-23 {
        fill: #a0d2e7;
      }

      .cls-24 {
        fill: #a8d4e8;
      }

      .cls-25 {
        fill: #39729b;
      }

      .cls-26 {
        fill: #98d2e9;
      }

      .cls-27 {
        fill: #39729a;
      }

      .cls-28 {
        fill: #bdd0dc;
      }

      .cls-29 {
        fill: #a0d0e4;
      }

      .cls-30 {
        fill: #2e3b42;
      }

      .cls-31 {
        fill: #efbd6f;
      }

      .cls-32 {
        fill: #39719a;
      }

      .cls-33 {
        fill: #4582a5;
      }

      .cls-34 {
        fill: #9dcfe3;
      }

      .cls-35 {
        fill: #a2d2e7;
      }

      .cls-36 {
        fill: #9dd0e4;
      }

      .cls-37 {
        fill: #397098;
      }

      .cls-38 {
        fill: #a4d3e6;
      }

      .cls-39 {
        fill: #abdcea;
      }

      .cls-40 {
        fill: #3a729b;
      }

      .cls-41 {
        fill: #9acee3;
      }

      .cls-42 {
        fill: #dae4ea;
      }

      .cls-43 {
        fill: #a0d1e4;
      }

      .cls-44 {
        fill: #6292ac;
      }

      .cls-45 {
        fill: #427a9d;
      }

      .cls-46 {
        fill: #3c85b9;
      }

      .cls-47 {
        fill: #b3d9e6;
      }

      .cls-48 {
        fill: #b6c8d5;
      }

      .cls-49 {
        fill: #3f7999;
      }

      .cls-50 {
        fill: #9acee5;
      }

      .cls-51 {
        fill: #97d1e9;
      }

      .cls-52 {
        fill: #4380a2;
      }

      .cls-53 {
        fill: #9acee4;
      }

      .cls-54 {
        fill: #42799a;
      }

      .cls-55 {
        fill: #7dc7e4;
      }
    </style>
  </defs>
  <g id="Capa_1-2" data-name="Capa_1">
    <g>
      <g>
        <path class="cls-30" d="M760.5173,476.9648c-19.6295,37.1429-47.8359,65.9374-84.433,86.4969-4.8533,2.7266-10.0365,4.7889-15.662,5.6035-14.8062,2.1444-25.6403-5.0076-27.55-19.7818-3.1374-24.272.0393-47.8518,10.2585-70.3033,4.3849-9.6336,11.0163-17.5534,19.394-25.1941-15.0836-3.0145-29.3563-6.1644-43.3614-10.3728-2.6632-.8002-5.5362-1.2091-7.9466-2.488-8.561-4.5419-14.6047-1.3096-21.4484,4.5548-19.6598,16.8465-39.0456,34.0913-60.5038,48.7286-13.3825,9.1286-27.068,17.6482-42.3121,23.4748-27.6142,10.5545-52.4464,5.8027-74.9856-12.9174-26.6781-22.1574-45.8929-50.2524-63.1301-79.8135-9.3047-15.9571-18.6792-31.9708-23.4879-50.1054-4.7706-17.9911.3591-32.0299,16.005-41.9565,9.8079-6.2227,20.5758-10.3717,32.2116-13.4892-22.6975-8.4107-45.9134-10.7463-69.4525-9.624-34.2426,1.6323-64.6855,13.9701-93.3229,32.5884-35.9944,23.4014-71.3088,48.0706-110.4339,66.2872-19.7851,9.2118-39.9879,17.1361-62.1922,18.143-5.0409.2286-10.0951.1886-14.9945-.9718-14.465-3.4261-21.0891-13.0856-22.6838-29.9548-2.9521-31.2268,7.9258-58.521,22.7107-84.8905,9.796-17.4717,21.6004-33.6415,32.6203-50.3151,13.0019-19.6722,13.9075-39.3582,1.1047-59.3908-11.5065-18.0044-24.6167-35.0122-33.83-54.4406C10.6589,120.6164,1.7651,93.4954,1.7784,64.0646c.0018-4.0659.7556-7.9971,1.8788-11.8139,3.2878-11.172,11.2178-15.7794,24.1509-14.5215,18.0124,1.7519,34.2475,8.8896,50.1844,16.7259,40.1085,19.7218,76.4962,45.5707,113.9892,69.5983,13.4567,8.6238,27.2096,16.7953,40.5187,25.6377,17.2301,11.4474,36.7118,14.3168,56.5973,15.4061,22.9294,1.2561,45.904.9704,68.7679-1.2165,28.2784-2.7049,56.3316-6.9267,83.6116-15.2368.356-.1084.6412-.4493.8799-.6237-21.7318-9.7516-32.0243-27.1187-33.3043-50.3725-1.3378-24.3046,2.851-47.4593,15.4254-68.6026,15.7428-26.4706,36.8323-32.4607,63.3824-27.4127,44.8538,8.5283,84.159,30.1777,122.4495,53.8068,15.6472,9.6559,31.1754,19.5614,45.459,31.2375,2.4689,5.1198,7.0751,4.8383,11.4658,4.1125,11.8922-1.9659,23.8846-2.9959,35.8693-3.9773,29.2641-2.3964,58.5778-2.3729,87.9064-1.3195,32.1529,1.1549,63.932,5.3315,95.4691,11.5204,36.8137,7.2244,74.1053,17.0742,109.8258,29.7458,36.8101,13.0581,72.4569,29.2196,109.2078,42.4864,32.5292,11.7428,65.238,22.9889,97.7558,34.7626,8.9618,3.2448,18.015,6.7468,25.1391,13.5117,8.3129,7.8939,11.8092,17.3451,8.8782,28.798-.4163,1.627-1.7661,3.599,1.5188,4.6979,10.9557,3.665,12.0148,13.6424,9.6482,22.7761-3.7529,14.4848-12.988,26.0125-22.4117,37.1838-31.4628,37.2974-71.1625,63.6284-114.4285,85.0541-17.0772,8.4568-34.4516,16.2998-52.3832,22.8298-8.2117,1.154-15.458,5.1854-23.0811,8.0033-32.1176,11.8719-64.9927,20.9381-98.5063,27.8262-24.6001,5.056-49.4264,8.5597-74.4393,10.5878-8.5908.6967-17.2129,1.3314-25.8548,1.5053-19.2979.3882-38.5928.4871-57.8891-.024-1.6099-.0427-3.2264.0787-4.8316-.0362-11.2449-.8046-11.3958-.704-14.1104,10.2435Z"/>
        <path class="cls-40" d="M213.2967,185.3583c2.9413-5.8619,7.8497-10.1093,12.1495-14.8624,1.6791-1.8561,3.1499-1.6043,5.2683-.5199,18.4595,9.4493,38.5685,12.183,58.8435,13.3462,65.1244,3.7365,128.384-5.9847,190.1753-26.6421,40.7008-13.6066,81.6407-26.5019,123.4153-36.534,27.1343-6.5163,54.57-11.1466,82.3077-14.2972,26.7968-3.0435,53.6683-4.5279,80.585-4.3641,46.9204.2855,93.1155,6.6342,139.0039,16.5198,52.3404,11.2756,101.5553,31.1836,150.6751,51.5985.9139.3799,1.7458.9569,2.616,1.4419-2.1733,2.5321-4.7701,1.3754-7.2176.7138-2.8997-.7838-5.8248-1.4761-8.7097-2.3227-43.7003-9.3856-86.9502-20.8667-131.0623-28.2991-23.8306-4.0152-47.9034-5.9907-71.9797-8.0346-36.7865-3.1229-73.6386-2.8009-110.4366-1.9919-32.9672.7248-65.859,3.6173-98.5561,8.5558-34.2666,5.1757-68.2611,11.6933-102.1519,18.8306-3.2267.6795-8.7994.9744-8.4754,3.9868.3824,3.5556,5.7057,2.0901,8.866,2.1097,36.6518.2277,73.1605-2.0864,109.6508-5.5373,29.8301-2.821,59.6942-5.3071,89.6638-6.7315,31.8202-1.5123,63.637-1.4143,95.4014-.6542,35.2197.8428,70.2027,5.3462,104.8886,11.9068,22.7768,4.308,45.4155,9.056,67.4786,16.2578,2.6007.8489,5.6984.9728,6.7796,4.2643-.872,3.0401-3.8221,4.0131-5.9375,5.7146-18.8641,15.1716-31.5194,34.4613-38.6074,57.5121-1.7289.5935-3.501.9124-5.3347.8493-23.952-.824-47.8549,1.2799-71.7942,1.2084-25.1471-.0751-50.2898.892-75.4072,1.5962-20.32.5697-40.6468-.053-60.9305.9035-44.8602,2.1155-89.7413,1.2866-134.5985.9049-32.1436-.2735-64.2817-2.1701-96.3282-5.3584-25.6007-2.547-51.2164-4.7021-76.9945-5.6259-37.4384-1.3417-74.8498-.7096-112.2649-.6859-18.8635.0119-37.7383,1.7824-56.6002,2.947-20.6374,1.2743-41.3756,2.9717-61.821-2.1067-3.8378-.9533-8.0763-1.2976-10.4305-5.268-.2706-10.576,2.2905-20.5886,6.0428-30.3642,2.0879-1.4497,4.4083-1.7964,6.9022-1.6122,21.6757,1.6003,43.2857,3.836,64.8932,6.1869,18.1899,1.979,36.393,3.7348,54.7117,4.6863,33.4231,1.7362,66.8289.6726,100.2368.8379,18.7398.0928,37.2118-3.9305,55.8723-5.2779,25.4622-1.8386,50.8559-4.0559,76.5247-2.2196,34.7435,2.4856,69.6357,2.4745,104.4298,1.2753,32.5545-1.1219,65.0315-4.2101,97.5254-6.696,41.1837-3.1507,82.4543-2.9925,123.7174-2.5273,7.0914.08,14.1793,2.1318,21.8171-.0303-3.5506-3.1318-7.3709-4.1942-11.3262-4.9448-23.1742-4.398-46.578-6.7815-70.0943-8.44-33.1329-2.3366-66.2994-4.0827-99.4989-3.3125-23.9144.5548-47.8527,1.3259-71.7213,3.242-3.2177.2583-6.4418.3111-9.6597.2149-27.5889-.8239-55.1471.82-82.7028,1.4705-46.6583,1.1014-93.2096,4.421-139.6898,8.9896-28.8501,2.8357-57.8607,1.9906-86.8589.7885-21.9232-.9089-43.7918-2.2982-65.6501-4.0179-16.4577-1.2948-32.8816-2.98-49.1758-5.6886-3.0793-.5119-6.5467-.599-8.4252-3.8928Z"/>
        <path class="cls-3" d="M957.8036,308.856c4.4886,10.313,8.6403,20.7861,14.469,30.4626.4173,1.8157-.896,1.5078-1.6401,1.0803-4.3906-2.5227-8.0238.9335-12.0015,1.5153-.3886.0569.648.2589.9246.6166,1.5814,2.0446-.3315,2.2122-1.4605,2.8278-47.4384,6.7596-94.6585,14.6399-141.0173,26.9663-7.9648,2.1177-15.8242,4.8226-22.8786,9.2413-13.5197,8.4687-13.5766,21.7925-.0241,30.1946,12.4128,7.6957,26.5482,10.2413,40.6282,12.8131,5.5512,1.014,11.1988,1.1371,16.7958,1.7593,6.2818,1.1711,12.5665,1.0224,18.8559.0751,1.7398-.3084,3.4465-.3626,4.9983.6794.4834.5606.6077,1.1956.3771,1.8993-1.8864,2.7874-4.8521,2.5456-7.6301,2.5677-8.8502.0707-17.7028.3269-26.5055-1.1034-18.4101-2.9916-36.9537-.7374-55.4303-1.2352-44.773-1.2065-89.0705-6.231-132.7495-16.2415-47.4869-10.8832-93.1215-27.1436-136.8986-48.4436-27.1715-13.2205-53.0943-28.7525-78.7015-44.7726-9.7349-6.0903-19.6677-11.8101-29.8061-17.1859-1.7783-.9429-3.6659-1.7052-5.3452-2.8044-2.2652-1.4827-6.2365-2.1178-5.8578-5.3104.4258-3.5896,4.3943-3.4188,7.3178-3.9659,18.6027,2.0169,37.1558,4.4368,55.7643,6.3244,28.2112,2.8616,56.3922,6.0128,84.6852,8.0869,35.5005,2.6025,71.0273,4.0428,106.6112,5.0342,19.914.5549,39.8138.5439,59.718.8236,27.1484.3815,54.3025.9479,81.4345,1.6137,18.9016.4639,37.8275,1.2388,56.6904.625,22.4823-.7317,45.0025-.9742,67.454-3.0165,11.995-1.0912,24.0738-1.4443,36.0942-2.4546,1.8516-.1556,3.6165.1218,5.1281,1.3275Z"/>
        <path class="cls-46" d="M957.8036,308.856c-24.6009,2.6194-49.3064,3.7578-73.9937,5.0896-45.6811,2.4642-91.3674.3576-137.0472-.2245-40.2528-.5129-80.5133-1.052-120.7456-2.3502-40.3902-1.3033-80.723-3.7762-120.9534-7.9547-33.9613-3.5275-67.9335-6.8986-101.7803-11.4231-16.4108-1.5545-32.2477-6.4289-48.6141-8.305-41.7944-4.7908-83.3492-4.9599-124.4812,5.4675-4.2883,1.0871-8.3974,4.445-13.2453,1.8495-8.0035-8.7192-13.4529-18.8437-16.6283-30.2193,5.8042-3.1951,11.8468-.6752,17.6771-.3852,25.151,1.2508,50.2748,1.4384,75.4098-.1418,10.238-.6437,20.5126-.7739,30.7488-1.109,24.529-.8031,49.0751-2.5937,73.6305-1.457,31.9565,1.4795,63.8806,3.4113,95.6367,7.6298,28.93,3.843,57.9944,6.3012,87.1301,8.2146,27.1426,1.7825,54.2886,1.7874,81.4429,2.4344,15.2824.3641,30.5984,1.599,45.8511.8218,25.1574-1.2818,50.3279-.3635,75.461-1.2363,27.5469-.9567,55.1194-1.1854,82.6402-2.4479,23.7021-1.0873,47.4546-1.1183,71.1235-3.1465,5.2293-.4481,10.8551-1.7609,15.7935,1.7047.148,12.5956,2.5718,24.8887,4.9438,37.1886Z"/>
        <path class="cls-13" d="M952.8598,271.6673c-13.9018-.6838-27.7194,1.1679-41.5994,1.3904-14.4747.232-28.932,1.4131-43.4071,1.7947-45.0635,1.1879-90.1273,2.3315-135.2003,3.2061-37.6546.7306-75.2802.0565-112.8949-.7738-38.9797-.8605-77.8716-3.842-116.5646-8.9127-49.113-6.4363-98.4018-10.0292-147.9533-8.4347-41.2205,1.3264-82.4071,4.0625-123.6773,3-10.4287-.2685-20.8348-1.4128-31.2498-2.1531-3.3971-7.6708-4.5975-15.7892-4.8872-24.093,15.5997,6.4284,32.0817,7.5924,48.5234,6.5275,59.1028-3.8277,118.2394-5.2577,177.4432-3.9539,32.1871.7088,64.2283,3.376,96.2522,6.726,30.6239,3.2036,61.42,4.4735,92.2071,4.9767,79.1515,1.2941,158.2724-1.1358,237.3979-2.5535,34.8236-.624,69.6321-2.1237,104.47-2.0422,2.0531.0048,4.4238-1.1165,6.2104.9559-2.9224,7.8552-2.914,16.3229-5.0704,24.3395Z"/>
        <path class="cls-28" d="M1186.0571,275.274c4.1599,2.6907,8.6336,1.5943,12.7795.4584,8.4687-2.3202,16.7738-5.2331,25.1704-7.8236,2.1969-.6778,4.652-2.3987,6.6802.02,2.1459,2.5592.2497,4.982-1.0273,7.1444-10.7248,18.1589-24.6164,33.6663-40.1789,47.7706-29.2714,26.5289-62.7603,46.4434-98.6098,62.565-7.3066,3.2858-15.1859,1.2241-22.4846-.4514-49.6642-11.4019-81.3406-41.7437-94.4321-91.107-1.5898-5.9946-2.4234-12.2293-1.5145-18.5157,10.5932-14.8948,21.1103-29.8386,32.6882-44.0117,4.1545-5.0858,9.6484-7.7027,15.4192-10.0896,5.2068-2.1537,10.7381-3.3382,16.015-5.3081,1.6784-.6266,3.9741-1.7996,4.9614,1.232-3.6483,5.7207-7.9354,10.9744-10.9409,17.1824-12.7453,26.3272-7.6231,61.8872,12.3604,83.364,7.9692,8.5647,16.4093,16.562,27.1876,21.6021,1.2745.5959,2.5716,1.1622,3.9159,1.5597,1.6295.4818,3.6467,1.9449,4.81-.2198.8984-1.6715-.9352-2.9132-2.0552-3.9649-8.3632-7.853-16.2559-16.1232-22.7297-25.6375-1.7579-2.5836-4.3526-4.8939-3.6383-8.5679,1.6112-1.841,3.3262-.6317,4.959-.1109,13.6542,4.3548,27.5918,6.7621,41.935,7.7489,9.9216.6826,19.6316.197,29.2924-1.4915,16.2084-2.833,29.4356-11.311,41.0566-22.639,3.6026-3.5118,7.7977-6.3368,11.8921-9.2436,1.8826-1.3366,3.8289-3.2114,6.4883-1.4652Z"/>
        <path class="cls-48" d="M216.9429,291.005c13.3438-3.5383,26.5854-7.45,40.3624-9.1698,24.3839-3.0439,48.7855-3.7589,73.3251-2.163,22.2844,1.4492,44.1893,5.015,65.8916,10.0642,2.3038.536,4.5091,1.4953,6.7608,2.2573-1.8864.6273-3.7734,1.2555-6.2902,2.0933,6.8709,5.397,14.5609,8.2678,21.5569,12.2381,23.0273,13.0685,45.1383,27.6467,68.2826,40.5375,30.7309,17.1163,62.5939,31.555,95.6454,43.4835,30.546,11.0243,61.7962,19.6326,93.6232,25.8545,18.5982,3.6357,37.5044,5.6926,56.3768,7.8116,26.7857,3.0073,53.6433,4.4618,80.5102,3.2838,18.5035-.8114,36.5748,4.1086,55.0134,2.6367,2.5906-.2067,5.2566.2221,7.6106-1.2995,7.1446-2.8256,14.959-2.3451,22.2653-4.5531,3.6286-1.0965,7.3727-1.9104,11.0314-2.9906,1.7087-.5046,4.0477-1.3708,4.968.4694,1.1424,2.2845-1.0867,3.3712-2.4511,4.1103,39.1459-4.8516,76.3355-18.8219,114.5428-30.0846-.9847-1.4096-1.8267-1.4998-2.587-1.6832-15.6766-3.7814-29.0718-11.3216-39.8469-23.5078-3.8979-4.4087-11.9049-5.8589-16.7098-3.7492-8.1213,5.6768-15.133,12.9783-24.5244,16.7999-2.6883-.9255-1.4723-2.3931-.3483-3.5707,1.6657-1.7451,3.596-3.2625,5.6695-4.4646,3.0362-1.7601,4.1618-3.9833,2.601-7.2815.5765-2.2143,4.9357-3.0164,3.2008-5.5168-1.7141-2.4706-4.6478-.1351-7.0225.4605-2.6944.6757-4.9677,3.5913-8.1697,1.5698-.0084-1.4518-.5044-2.1209-2.1642-1.6853-3.2925.864-6.5837,1.7703-9.9298,2.3903-2.232.4135-4.81,1.5035-6.0866-1.7148,1.5503-2.5695,4.3583-2.6269,6.8049-3.3649,9.6126-2.8995,19.4666-4.9371,28.8599-8.6555,4.0543-1.6049,5.5199-3.3718,2.9596-7.2482-1.0773-.7198-2.1545-1.4396-3.4483-2.304,5.5342-1.7693,10.4967-6.6056,17.0461-2.7401,11.1173,16.2368,24.3248,30.3544,40.7788,41.3976,11.4348,7.6747,23.7687,13.2584,36.7745,17.5332,1.8128.5959,3.6333,1.1688,6.1138,1.9654-40.8828,16.6856-82.3298,28.6957-124.887,37.1715-48.7679,9.7127-97.9517,13.7842-147.5908,11.5151-51.8701-2.3711-103.367-8.2227-153.4813-22.2849-61.6745-17.3059-117.9992-46.308-171.6883-80.8387-22.914-14.7374-45.2099-30.8519-70.96-40.4346-50.4216-18.7639-100.8502-18.9098-150.7952,2.1877-3.0161,1.2741-4.9191,1.3817-7.169-1.2599-4.2577-4.9992-9.4075-9.2559-12.425-15.2661Z"/>
        <path class="cls-31" d="M213.2967,185.3583c17.7821,4.7,36.0974,5.7394,54.2692,7.388,42.0983,3.8192,84.2975,5.9277,126.5946,5.2046,24.3516-.4163,48.489-3.7611,72.7464-5.4811,11.4238-.8101,22.8131-2.2851,34.2467-2.7451,29.1505-1.173,58.3118-2.2046,87.4788-2.8177,47.2796-.9937,94.5164-3.3273,141.7843-4.4395,39.4433-.9281,78.8612,1.1979,118.1397,4.8958,16.5664,1.5596,33.1497,3.3497,49.515,6.7829,5.9288,1.2437,10.2487,4.8533,17.1975,7.4991-7.979,2.2267-14.2472,2.2733-20.5067,1.9737-40.0497-1.917-80.0691-1.3845-120.0675,1.3045-26.2765,1.7665-52.5796,3.203-78.8258,5.3406-35.3812,2.8817-70.8025,2.4015-106.2181,1.8533-18.2951-.2832-36.5571-2.3873-54.8764-2.0317-27.7601.5389-55.3838,2.935-82.9105,6.6143-7.7581,1.0369-15.6346,1.5898-23.4614,1.6388-27.9881.1755-55.9844.4013-83.9656-.0821-27.3465-.4724-54.5437-3.2613-81.6936-6.6407-20.3425-2.5321-40.788-4.2428-61.2746-5.2906,3.4037-7.2923,6.2622-14.8931,11.8278-20.967Z"/>
        <path class="cls-31" d="M1002.4756,184.0993c-16.2674-5.7293-32.8904-10.1845-49.7163-13.9244-70.7589-15.7277-142.4693-19.5244-214.6448-16.6512-38.7719,1.5435-77.3904,5.339-116.0254,8.9474-32.0469,2.993-64.226,4.4807-96.4462,4.2231-3.9498-.0316-9.9779.2269-10.3466-3.6243-.3709-3.8736,5.7555-4.9245,9.4993-5.6829,25.5652-5.1785,51.1297-10.4056,76.8152-14.9315,20.951-3.6916,42.0077-6.8983,63.2071-8.9181,12.2011-1.1625,24.4142-2.3154,36.6484-2.9956,43.043-2.3931,86.1147-2.4823,129.1454-.0146,50.4376,2.8925,100.1625,10.6587,149.208,22.9011,21.0234,5.2478,42.2432,9.7082,63.3738,14.5264-.1738,3.1351-2.8289,2.0784-4.4917,2.5942-4.347,1.3481-9.2384.2865-13.2957,2.9711-8.2446,2.2236-14.9979,7.6798-22.9306,10.5793Z"/>
        <path class="cls-19" d="M1025.4063,173.52c3.3223-4.8748,8.8863-3.1892,13.4082-4.5374,1.4274-.4256,3.1993.5397,4.3815-1.0287,5.1452.5398,9.7307,3.8312,15.1398,3.092,18.59,6.9153,37.1282,13.9736,55.7812,20.7137,26.5638,9.5986,53.8513,17.1467,79.9498,28.0618,6.0964,2.5497,12.1638,5.2606,17.9547,8.4274,10.5171,5.7513,11.3041,12.7213,2.6295,20.871-6.7509,6.3424-14.6272,11.2488-21.8823,16.9449-3.0005,2.3557-7.1225,4.2296-6.7113,9.2097-9.4708,3.8876-16.5424,11.1214-23.9846,17.6915-13.1648,11.6222-28.4462,17.3597-45.7846,18.6975-19.3975,1.4966-38.2409-1.2606-56.9288-6.1256-2.9016-.7554-5.2945-3.2859-8.6206-2.4729-2.1152.1051-2.5613-1.6729-3.2369-3.0281-12.8608-25.797-15.0563-51.6265-.1758-77.5009.9591-1.6677,2.6874-3.5374,1.0235-5.4299-1.4507-1.65-3.3666-.0406-5.0607.2674-.8171.1485-1.5678.1994-2.2425-.3712-16.1197,2.945-30.9202,7.9115-40.781,22.5665-7.6,11.2951-16.1303,21.9631-24.1786,32.9599-.986,1.3471-1.8495,2.6195-3.6466,2.8058-.7301-19.0946,6.3044-35.6354,16.7211-51.095,10.3297-15.3309,25.1702-25.7577,39.5959-36.6492,2.0785-1.5693,4.2211-3.0846,6.1133-4.8601,1.5899-1.4919,3.3021-3.2973,2.3105-5.7511-.996-2.4651-3.1725-3.5448-5.8024-3.5688-1.9903-.0182-3.9814.0694-5.9723.1098Z"/>
        <path class="cls-5" d="M198.8376,298.2482c4.3083,5.2759,8.4095,10.7421,13.0101,15.7495,2.3837,2.5944,2.4392,3.6367-.6429,5.5745-15.8018,9.9351-31.6613,19.8011-47.1208,30.2529-25.3195,17.118-51.301,33.0411-79.0617,45.9104-16.3326,7.5714-33.3467,12.845-51.4752,13.4949-9.9673.3574-11.7955-1.4724-13.8276-11.0384-1.4403-6.7801-1.1794-13.567-.6702-20.3856,1.1597-3.1243,3.9582-3.7197,6.7289-4.3898,34.1083-8.2492,65.8542-22.1909,96.3001-39.4516,22.5912-12.8076,46.0885-23.9003,69.3013-35.5243,2.4751-1.2395,4.9306-1.7185,7.458-.1924Z"/>
        <path class="cls-55" d="M198.8376,298.2482c-3.0932-.3522-5.6513,1.0775-8.3043,2.3589-29.4344,14.2179-58.1064,29.8971-87.0527,45.0575-24.8738,13.0275-50.9544,23.3385-78.4668,29.567-2.2355.5061-4.097,1.4394-5.9646,2.5748.7591-14.587,4.6776-28.2615,11.8413-40.9988,10.8477-3.6331,22.1161-5.7668,32.925-9.6165,22.8052-8.1224,43.896-19.8571,65.5497-30.4154,15.9256-7.7654,32.2837-14.3951,49.5859-18.4704,2.5108-.5914,5.0157-1.652,7.6514-.5023,4.0784,6.815,8.1567,13.6301,12.2351,20.4452Z"/>
        <path class="cls-44" d="M21.9922,89.3932c-2.212-9.0483-2.4486-18.2526-1.9805-27.4815.368-7.2554,2.4411-8.6916,9.6626-7.2357,23.0316,4.6433,43.2267,15.8656,63.2085,27.4702,39.6287,23.0147,76.7317,49.9629,115.464,74.3764,2.3828,1.5018,3.211,2.3876.8473,4.7699-3.5229,3.5504-6.6455,7.4981-9.9385,11.2767-2.6593,1.8083-4.6213-.2478-6.5569-1.3957-19.3409-11.4695-38.6601-22.975-57.8898-34.6325-32.8059-19.8878-67.2644-35.9667-104.9009-44.497-2.7425-.6216-5.2353-1.8962-7.916-2.6509Z"/>
        <path class="cls-26" d="M66.0562,180.921c-11.7401-14.3995-21.8017-29.8345-29.0148-47.0268,5.5623-.2371,10.4765,2.2921,15.6119,3.7786,16.0748,4.6529,31.0515,12.0942,46.4148,18.5592,24.6466,10.3716,49.9881,18.8639,75.2504,27.5637,3.4204,1.1779,6.8742,2.2669,10.1541,3.8075,1.7997.8454,3.8344,1.5504,3.6757,4.1568-2.496,5.6633-4.9921,11.3266-7.4881,16.9899-2.7467,1.2256-5.5642.554-8.3064.1384-34.4612-5.2228-68.3672-12.682-100.9919-25.2601-1.8715-.7215-3.8669-1.1564-5.3058-2.7074Z"/>
        <path class="cls-9" d="M21.9922,89.3932c7.2143-.4511,13.697,2.6183,20.4353,4.3573,38.3439,9.8953,72.5857,28.6394,105.9944,49.2166,15.7086,9.6753,31.6364,18.9951,47.4917,28.4308.9941.5917,2.2225.79,3.342,1.1713-2.5565,4.0416-5.113,8.0833-7.6696,12.1249-2.3077.803-4.3645-.1314-6.4037-.9842-28.4293-11.889-56.3657-24.8063-83.3839-39.6715-20.7226-11.4014-42.3836-20.5405-65.3212-26.5255-2.6724-.6972-5.6647-.7467-7.6577-3.1483-3.4019-8.0159-5.142-16.4862-6.8272-24.9714Z"/>
        <path class="cls-4" d="M42.8511,313.9627c3.7495-8.0282,9.0694-15.0714,14.0245-22.3426,5.0794-7.4536,10.1768-14.8949,15.2665-22.3415,2.4032-1.9972,5.3979-2.5317,8.2665-3.4391,27.303-8.6362,55.5397-12.7711,83.6871-17.2941,4.297-.6905,8.7548-1.1613,13.135-.0488,1.7011,6.0864,3.4023,12.1728,5.1034,18.2592-.4625,3.0536-3.154,2.7944-5.1363,3.1863-27.6215,5.462-53.7608,15.1785-79.3752,26.6978-16.5364,7.4367-33.98,12.5225-51.4572,17.3456-1.1648.3215-2.3473.6208-3.5142-.0229Z"/>
        <path class="cls-34" d="M432.3508,58.8196c2.2149-8.5768,5.4009-16.7129,10.8184-23.8363,2.0414-.9207,3.9538.0517,5.8805.4562,36.1807,7.5951,70.6323,20.2964,104.355,35.2043,13.9855,6.1826,27.4818,13.3384,41.196,20.0611,5.0329,2.4671,9.865,5.4661,15.7664,5.5874,1.2781.0263,2.937.2829,2.8512,2.3178-8.4584,1.4435-16.5806,4.4849-25.1719,5.2968-16.1054-4.4272-31.4815-10.9425-47.1267-16.6606-33.875-12.381-68.2325-22.7073-104.2348-26.7057-1.6084-.1786-3.2222-.3084-4.3342-1.7208Z"/>
        <path class="cls-51" d="M178.4798,218.4143c-.8493,5.6211-1.6116,11.2497-1.465,16.9568-3.426,2.588-7.548,2.6632-11.511,2.8815-25.5251,1.4059-50.8432,4.4763-75.985,9.0685-2.5387.4637-5.1177,1.3083-7.6544-.075,3.1701-15.5559,1.7698-30.75-3.6122-45.6289,2.045-.8243,3.9697-.0039,5.8801.5123,27.2935,7.3739,55.2415,10.2174,83.3225,12.2785,3.8844.2851,8.6323-.8029,11.0251,4.0064Z"/>
        <path class="cls-29" d="M449.1089,27.6539c12.0439-10.5922,26.061-9.9029,40.3665-6.8448,20.2473,4.3283,39.2072,12.2831,57.7705,21.2114,29.0956,13.9939,56.7949,30.3621,82.9358,49.3345,1.0943.7942,2.1039,1.7052,4.1594,3.3837-5.2686.7229-9.459,1.2979-13.6494,1.8728-3.1659-.2142-5.5349-2.2155-8.2021-3.5877-37.5647-19.3255-75.2769-38.3392-115.6702-51.2667-14.3638-4.597-28.8778-8.6872-43.7233-11.4954-1.6093-.3044-3.8651.0912-3.9872-2.6079Z"/>
        <path class="cls-25" d="M42.8511,313.9626c11.7698-3.8386,23.5117-7.7655,35.3172-11.4913,12.2618-3.8699,23.8576-9.3365,35.5911-14.4828,21.3599-9.3683,43.5408-16.025,66.4842-20.184.7359-.1333,1.3949-.6908,2.0901-1.0497,1.4235,3.6838,2.8466,7.3666,4.2693,11.0488-34.1281,7.1494-63.9527,24.5941-94.8645,39.4875-17.2304,8.3017-35.1995,14.7444-53.8705,19.0609-2.245.5189-4.5577,1.8738-6.9777.4557,2.9369-8.1649,7.1446-15.6643,11.9609-22.8452Z"/>
        <path class="cls-8" d="M427.0416,83.1831c.284-5.7364,1.6238-11.2854,2.9891-16.8298,1.5768-1.5407,3.3842-.7465,5.1269-.4894,43.1997,6.3733,84.6834,18.9219,125.1977,34.909,6.8615,2.7077,13.5991,4.8717,21.032,2.1368,1.7738-.6526,4.2999-1.2039,5.2279,1.7608-11.2079,2.9356-22.4159,5.8713-33.6238,8.8069-9.9413.491-18.8439-3.8047-28.0313-6.4463-28.6884-8.2483-57.8741-13.5629-87.5622-16.3121-2.006-.1858-3.9593-.7175-5.9515-.9488-4.1156-.4778-5.6548-2.5736-4.4048-6.5872Z"/>
        <path class="cls-27" d="M28.8194,114.3647c19.2484,3.731,37.5449,10.3138,55.0866,18.9301,24.8957,12.2284,48.9757,26.097,74.4942,37.0793,11.0668,4.7628,22.1251,9.5453,33.1865,14.3195-1.147,2.3572-2.2932,4.7137-3.4388,7.0685-1.12-2.7088-3.9255-2.6122-6.0536-3.3828-30.5146-11.0502-61.5728-20.6455-91.2459-33.943-15.9282-7.1379-31.9765-13.8914-48.9298-18.2752-1.707-.4413-3.2553-1.4966-4.8771-2.267-3.7881-6.0689-6.4875-12.5961-8.222-19.5295Z"/>
        <path class="cls-35" d="M414.0056,480.8801c-4.8235-3.8626-8.5317-8.7537-12.4269-13.4723.4547-3.1492,3.3338-3.1012,5.4052-3.8985,20.6786-7.9608,40.7292-17.1628,59.0193-29.8227,13.7445-9.5134,26.0754-20.6681,37.4531-32.8875,1.392-1.4949,2.7727-2.9067,4.8383-3.3957,5.463,2.417,10.9427,4.8023,15.8252,8.3229-4.9695,9.769-13.536,16.4087-21.325,23.5263-18.6655,17.0562-39.4807,31.1012-62.514,41.7032-6.5757,3.0267-13.1493,6.0672-19.8849,8.7338-2.0511.8122-4.0653,1.8401-6.3902,1.1905Z"/>
        <path class="cls-23" d="M439.3727,499.0733c-7.0707-1.7179-12.3334-6.2264-17.2928-11.2029,3.0934-3.1405,7.4106-3.9186,11.2183-5.5668,33.073-14.3161,62.2168-34.2646,87.2872-60.1696,4.0206-4.1544,6.7092-9.558,11.8712-12.6347,5.2404,2.385,10.4807,4.7699,15.7211,7.1549-.4633,4.8057-4.1884,7.581-7.0432,10.7407-19.5747,21.665-42.49,39.3696-67.1713,54.6907-10.8792,6.7534-22.4969,12.4717-34.5906,16.9877Z"/>
        <path class="cls-2" d="M485.3224,384.8015c4.7966,2.5976,9.5932,5.1951,14.3898,7.7926.6258,2.6823-1.4536,4.0119-2.9191,5.5344-21.7586,22.6048-47.2813,39.7233-76.1231,51.9446-6.4705,2.7418-12.9186,5.5527-19.5671,7.8616-2.0762.721-4.0581,1.8592-6.3758,1.0481-4.1644-5.1521-8.3796-10.2669-11.7213-16.0207,33.1946-10.0824,63.4095-25.6797,89.9257-48.2482,4.0176-3.4195,6.5841-8.7213,12.3909-9.9125Z"/>
        <path class="cls-38" d="M556.7626,420.4993c7.534,2.9898,15.068,5.9796,23.2651,9.2325-27.7381,22.4216-53.0434,47.1713-84.5701,63.7196-13.6947,7.1883-27.9885,11.9996-43.8122,9.8969-.4476-2.1766,1.1414-2.8267,2.667-3.3367,16.8765-5.6407,31.1751-15.7623,45.2288-26.2232,13.7267-10.2176,26.9269-21.1237,38.8824-33.3851,6.2898-6.4507,11.8727-13.5911,18.3389-19.904Z"/>
        <path class="cls-7" d="M377.8115,436.0199c-3.3049-5.2319-7.3683-9.9934-9.7862-15.7755,2.1823-2.3782,5.3169-2.7263,8.1243-3.6722,27.5928-9.2975,53.5894-21.7379,77.4542-38.5581,3.1529-2.2222,5.3378-6.2289,9.9366-6.1817,4.7893,2.3781,9.3432,5.1283,13.4847,8.5304-4.8583,7.9192-12.8068,12.5348-19.8442,17.9792-21.6377,16.7397-46.323,27.7437-71.9142,36.8665-2.3523.8385-4.7743,2.4055-7.4551.8114Z"/>
        <path class="cls-8" d="M434.6539,118.0319c-6.7063-8.0752-7.6516-17.7001-7.436-27.6374,5.8884,7.4542,14.6871,6.4322,22.6304,7.5255,24.4739,3.3687,48.8417,7.238,72.4448,14.7603,5.9023,1.8811,12.3456,1.2801,17.9247,4.3237-10.7811,4.4412-21.9141,7.8199-33.1235,10.968-15.0867-.2691-29.6437-4.3447-44.5093-6.2227-9.3168-1.177-18.7018-1.8764-27.9311-3.7175Z"/>
        <path class="cls-24" d="M362.1901,411.8498c-2.8475-5.261-5.6949-10.5219-8.5424-15.7829,1.4358-2.2296,3.8799-2.7144,6.1324-3.4773,26.9688-9.1335,53.6082-19.0462,78.5287-33.0451,1.0654-.5986,2.1771-1.0119,3.4231-.9519,5.3233,2.0368,9.8295,5.438,14.4482,8.6515.0702,2.8703-2.5063,3.41-4.2146,4.5579-24.3643,16.3707-50.3525,29.4656-78.3832,38.3203-3.6376,1.1491-7.1185,4.3942-11.3922,1.7275Z"/>
        <path class="cls-12" d="M449.1089,27.6539c19.1897,3.9284,38.0785,8.9524,56.5797,15.4159,39.2106,13.6982,76.2971,32.0339,112.8087,51.6242.8338.4473,1.4663,1.2699,2.1936,1.9175-2.258,1.5357-4.8956,1.6552-7.4728,1.9986-21.3652-4.0937-38.7358-17.3243-58.2713-25.6378-34.7061-14.7696-69.6262-28.6094-106.7929-35.9606-1.7276-.3417-3.3259-1.3376-4.9845-2.0287,1.3372-2.9637,3.2369-5.4717,5.9396-7.3291Z"/>
        <path class="cls-32" d="M81.8643,247.2461c16.7189-4.2122,33.8205-6.1311,50.8843-8.0818,14.708-1.6814,29.5076-2.5612,44.2665-3.7943.0718,4.3764.1439,8.7517.2158,13.1268-7.6895,2.4223-15.78,2.075-23.652,3.3903-24.8628,4.1541-49.6912,8.3047-73.7894,15.9602-2.4535.7794-5.0944.9691-7.6479,1.4318,3.7044-7.1404,7.0399-14.4428,9.7227-22.0331Z"/>
        <path class="cls-53" d="M745.4154,467.3399c-15.0586,29.644-37.285,52.8605-64.3587,71.7205-6.0967,4.2471-12.5977,7.7969-19.5859,10.3144-6.937,2.4991-10.1449.2502-10.6106-7.1671-.1248-1.9873.0341-3.9923.0629-5.9893,3.1046-3.3171,7.3955-4.7976,11.1625-7.0534,23.0263-13.7889,44.2093-30.0007,64.1589-47.9097,4.7858-4.2962,9.6097-8.5356,14.2506-12.9926,1.185-1.138,2.6617-4.1,4.9203-.9229Z"/>
        <path class="cls-37" d="M178.4798,218.4143c-4.2901-2.71-9.1912-1.962-13.8604-2.3469-26.8279-2.2114-53.5757-4.9035-79.7166-11.778-2.3588-.6203-4.6621-1.2091-6.6508-2.6725-4.083-6.8884-8.8794-13.3566-12.1963-20.6962,8.0621.9215,15.219,4.7488,22.7956,7.2046,28.6577,9.2885,57.9972,15.3992,87.788,19.5475,1.3642.19,2.6824.7101,4.0215,1.0768-.7274,3.2218-1.4543,6.4432-2.1811,9.6646Z"/>
        <path class="cls-6" d="M586.6152,104.6706c-1.5879-1.6571-3.2953-.9065-4.9693-.2116-5.9339,2.4639-11.5459,1.6169-17.503-.5967-28.9656-10.7628-57.8772-21.7862-88.1613-28.4225-15.2486-3.3415-30.6303-6.0759-45.9513-9.0857.7739-2.5123,1.5473-5.0238,2.3207-7.535,25.5737,1.7085,50.3119,7.59,74.6903,15.1443,26.2747,8.1418,51.832,18.3247,77.6985,27.627,1.2696.4565,2.7695.7424,3.3063,2.3161-.4767.2548-.9538.5094-1.4309.764Z"/>
        <path class="cls-11" d="M349.7492,387.9433c-3.5484-4.7923-5.3594-10.3355-6.9122-15.9904,1.8181-2.048,4.2959-2.9106,6.7966-3.6464,21.5618-6.344,42.4898-14.4599,63.4025-22.62,1.8574-.7246,3.6301-1.7479,5.7261-1.6416,6.2167,2.8249,11.9222,6.448,17.0745,10.9347-6.319,4.7906-13.9206,7.0335-20.9816,10.2833-19.7216,9.0772-40.32,15.886-60.9787,22.4814-1.3518.4316-2.7236.7143-4.1273.1989Z"/>
        <path class="cls-20" d="M556.7626,420.4993c-4.0925,8.2417-10.9249,14.2886-17.236,20.599-21.4921,21.4897-44.9735,40.455-71.8191,55.0424-5.2048,2.8281-11.2217,3.6784-16.0611,7.208-4.0667-1.4975-8.8137-1.0394-12.2736-4.2755,2.9585-3.56,7.428-4.5444,11.3137-6.4257,37.9405-18.3695,70.5661-43.5149,97.4909-75.9938,3.15.6394,5.9539,2.05,8.5853,3.8456Z"/>
        <path class="cls-45" d="M532.4566,409.4993c-6.2111,10.034-14.7717,18.0064-23.3512,25.8489-24.1147,22.0435-51.5413,38.9057-81.8303,51.1167-1.6519.6661-3.4594.9461-5.1948,1.4057-3.0497-1.9182-5.8605-4.1118-8.0759-6.9911,27.8802-11.1131,54.4029-24.6287,77.6255-43.9566,10.3425-8.608,20.3101-17.6096,28.9613-27.9782,1.0104-1.2111,2.3445-2.152,3.5285-3.2183,3.0823.5875,5.7401,2.1127,8.337,3.7729Z"/>
        <path class="cls-14" d="M394.7272,458.9829c23.0035-8.9168,45.8281-18.1921,66.1656-32.5362,14.1068-9.9497,27.6587-20.528,38.8187-33.8529,2.8616,1.6035,5.7226,3.2065,8.5832,4.8096-15.6601,18.6076-34.1251,33.8629-55.0887,46.1433-14.9361,8.7495-30.682,15.7207-46.9262,21.6406-1.5915.58-3.6618.3942-4.7006,2.2216-2.2844-2.8093-4.5682-5.6176-6.8521-8.4259Z"/>
        <path class="cls-50" d="M719.8272,462.7497c4.3591.4098,8.7181.8195,13.0772,1.2292.5728,2.6787-1.447,4.0789-3,5.4767-22.8637,20.5777-47.0896,39.3197-73.9866,54.4153-1.5045.8445-2.9595,2.2193-4.977,1.4251-.2174-7.9077.6444-15.6606,3.3195-23.1536,12.2682-6.2537,24.5446-12.4846,36.355-19.5964,7.7178-4.6473,15.2251-9.5611,22.1183-15.3862,2.1359-1.8051,4.419-3.4393,7.0936-4.41Z"/>
        <path class="cls-15" d="M377.8115,436.0199c34.9633-11.0397,67.1701-27.0793,94.4849-52.0181,1.4636-1.3363,3.1473-2.4316,4.7286-3.6391,3.1631.7389,5.8608,2.3475,8.2985,4.4393-27.0697,27.8744-60.241,45.6189-96.5568,58.1338-1.8824.6487-3.8255,1.3925-5.7543.0296-2.3923-1.828-3.6097-4.5266-5.2009-6.9456Z"/>
        <path class="cls-52" d="M540.2178,117.004c-11.3995,1.2267-21.5492-3.9632-32.1064-6.6509-23.9242-6.0907-48.2664-9.5836-72.6835-12.41-5.8625-.6786-6.98-3.4071-8.21-7.5493-1.327-2.3739-1.1431-4.7852-.176-7.2131-.193,3.2223.5856,4.6563,4.5352,5.0271,33.9612,3.1882,67.4765,8.8833,100.139,19.0078,7.0607,2.1886,14.1826,4.1795,21.2757,6.2616-4.0486,1.9354-8.2374,3.3611-12.7741,3.5267Z"/>
        <path class="cls-54" d="M650.9408,525.296c29.0585-16.4809,55.6807-36.2626,80.0462-59.098.7092-.6646,1.2801-1.4767,1.9164-2.2195,3.8947.3411,7.7945.6259,11.679,1.0499,1.551.1693,2.0146,1.0181.8319,2.313-2.6611-1.86-3.1093,1.1493-4.1446,2.1371-25.8751,24.6905-53.4907,47.0726-84.8751,64.5045-1.725.9581-3.3282,2.2785-5.4721,2.236.0065-3.6416.0124-7.2823.0183-10.9231Z"/>
        <path class="cls-49" d="M362.1901,411.8498c14.3391-3.1996,27.785-8.9541,41.1927-14.7155,18.6731-8.024,35.9359-18.6218,52.7966-29.8909,2.7023,1.1323,5.178,2.6265,7.3613,4.589-20.1308,16.8864-42.9492,29.1569-67.2266,38.831-9.2468,3.6847-18.3238,7.974-28.2888,9.581-2.9162-2.1232-3.7103-5.7214-5.8352-8.3946Z"/>
        <path class="cls-47" d="M341.711,363.2598c.5168-8.8198,5.9348-14.2962,13.2785-17.6538,12.4585-5.6962,25.2348-10.6946,37.8237-16.1115,1.498-.6446,2.5581-.5947,3.8014.2499,5.4059,3.6729,11.531,6.239,16.4403,10.6779-14.6068,6.1743-29.6322,11.1883-44.776,15.8222-6.7274,2.0584-13.3187,4.5565-20.1447,6.278-2.0861.5261-4.1433,1.737-6.4231.7372Z"/>
        <path class="cls-1" d="M349.7492,387.9433c17.9388-6.8048,36.4786-11.9622,54.0791-19.6916,8.6055-3.7793,17.185-7.6183,25.762-11.4625,2.0064-.8992,3.909-2.0838,6.2466-1.8092,2.4821.3609,4.4243,1.603,5.8956,3.6127-10.0113,7.5401-21.5828,12.1132-32.9117,17.0856-17.9775,7.8907-36.4017,14.6233-55.1733,20.3895-1.3277-2.6951-3.6883-4.8938-3.8982-8.1245Z"/>
        <path class="cls-21" d="M719.8272,462.7497c-10.3553,10.6781-23.1021,18.0205-35.7936,25.377-7.2962,4.2293-14.8705,7.991-22.417,11.7688-2.2687,1.1357-4.5733,2.5993-7.3561,2.2468.0512-3.413.7356-6.6365,2.8254-9.4394,2.4875-5.6736,8.0423-7.6705,12.8765-10.2963,10.5783-5.7457,20.964-11.7731,30.8167-18.6938,2.0289-1.4252,4.1706-2.3324,6.6824-2.2134,4.2396-.7467,8.2597.6771,12.3658,1.2503Z"/>
        <path class="cls-22" d="M341.711,363.2598c16.9164-5.5776,33.8043-11.2441,50.7633-16.6894,6.813-2.1875,13.0572-6.335,20.5809-6.1471,2.4702.3121,4.3828,1.5043,5.7078,3.6216-7.0971,5.1106-15.5955,7.0577-23.5347,10.1912-17.1578,6.772-34.639,12.6661-52.3915,17.7179-.9703-2.8216-1.6803-5.676-1.1258-8.6942Z"/>
        <path class="cls-33" d="M434.6539,118.0319c5.3818-2.421,10.7578-.122,15.9544.529,18.0393,2.2595,35.9897,5.2319,53.9633,8.0021.8917.1374,1.6831.9246,2.522,1.4092-5.8551,2.9045-12.1676,4.295-18.5112,5.5819-15.1031.7053-29.7172-2.1809-44.2017-6.0185-3.9765-2.4164-7.3305-5.4699-9.7268-9.5035Z"/>
        <path class="cls-43" d="M707.4615,461.4994c-16.2218,11.3215-34.3966,19.4904-50.3756,31.2036,4.9168-18.0338,26.8259-33.8223,45.1731-32.4658,1.7557.1298,3.4693.8279,5.2025,1.2622Z"/>
        <path class="cls-39" d="M444.3807,127.5354c10.9449.7695,21.7746,2.4748,32.5292,4.5192,3.8919.7398,7.9623-.2913,11.6727,1.4993-15.7492,5.4489-30.3145,2.2047-44.2018-6.0185Z"/>
        <path class="cls-46" d="M485.4199,333.6008c31.4976,1.527,61.009,2.8266,90.5045,4.4192,40.9798,2.213,82.0334,3.0455,122.9557,6.27,33.235,2.6188,66.3029,6.7706,99.2355,11.9652,1.5697.2475,3.0858.8344,4.844,1.3237-1.206,3.1313-4.1864,3.6244-6.5452,4.64-22.6943,9.7707-46.5441,14.8868-71.0595,17.0237-29.9601,2.6114-59.9449,2.1897-89.7788-1.3082-51.3466-6.0201-100.7262-19.1765-147.095-42.562-.5357-.2702-1.0416-.5994-3.0613-1.7715Z"/>
        <path class="cls-30" d="M958.6747,344.3626c1.7472,1.1688,4.8366,1.4401,4.5834,4.0742-.2288,2.3804-3.036,2.938-5.0373,3.7849-12.212,5.1678-25.2379,7.6456-37.8781,11.4003-2.0353,2.6861-5.2327,2.8056-8.0928,3.521-30.6095,7.656-61.7304,12.9154-92.5344,19.6655-4.9165,1.0773-9.8112,2.212-14.4436,4.1922-2.139.9144-5.1932,1.4266-5.3639,4.2013-.1612,2.6181,2.9605,2.8336,4.6849,4.0447,3.2505,1.8999,6.7796,3.0875,10.3973,4.0555,34.8933,9.0671,68.9904,6.916,102.1852-7.3389,6.2909-2.7015,12.2383-6.1296,18.0106-9.8204,2.2201-1.4195,4.4432-2.7572,7.0609-3.2878,8.4299-5.0719,15.4075-12.2135,24.1013-16.9093,2.5778-2.0433,5.4457-3.1279,8.1023-.5723,2.6069,2.5076.9855,5.4311-.5526,7.6967-15.4171,22.7071-34.8313,40.2075-61.9885,47.8302-9.6323,2.7037-19.2222,5.3982-29.1614,6.7232-2.399.3198-4.7439.7611-7.1372.1268l-4.8069.0662c-6.4626.4352-12.9251.451-19.3873-.0068-16.7458-.5132-32.8938-3.9848-48.5967-9.731-4.154-1.5201-8.063-3.4682-11.6803-5.9969-12.1311-8.4796-11.9577-23.2558.5821-31.0517,13.2314-8.2258,28.2644-11.6309,43.1637-15.1953,37.5122-8.9742,75.6877-14.4881,113.5849-21.4496,3.2917-.6046,6.7978-.0428,10.2042-.0227Z"/>
        <path class="cls-16" d="M875.611,427.7505c23.0925-2.6477,45.1599-8.3393,64.59-21.8181,12.6701-8.7893,23.2816-19.6202,31.7754-32.4797,1.4448-2.1876,4.389-4.5928,2.2335-7.3919-2.0763-2.6965-5.198-.5441-7.8612-.1149-1.1011-1.6147.5852-1.5565,1.2425-1.8376,5.5191-2.3613,11.753.3047,14.4339,3.1018,12.3271,12.8611,26.2636,22.1407,43.8585,25.6557,1.2806.2558,2.7597.6855,3.9811,2.9908-40.6673,12.2278-80.3192,27.355-123.6392,31.9589,1.7456-3.7056,6.5107-2.1593,6.8488-6.2821-12.3657,3.4469-24.527,7.4154-37.4624,7.1005.0002-.2949,0-.5892-.0007-.8835Z"/>
        <path class="cls-48" d="M851.4167,427.8098c6.4625.0023,12.9249.0045,19.3873.0068-6.4629,1.4768-12.9254,1.4783-19.3873-.0068Z"/>
        <path class="cls-30" d="M1041.0463,217.0023c1.4288-.7144,2.8152-1.5369,4.2965-2.1175,2.1194-.8307,4.344-1.3088,6.0306.8252,1.4973,1.8947-.0651,3.4242-.9609,4.8726-17.0536,27.5721-14.4606,55.048.3266,82.4831,7.6311,12.6258,16.9296,23.8403,28.1584,33.4476,1.5769,1.3493,3.9097,2.7552,2.465,5.3703-1.4973,2.7101-3.8111,2.1001-6.2762,1.1314-42.9232-16.8667-67.3805-69.5274-44.2913-112.8042,2.6489-4.9652,5.7588-9.6408,10.2513-13.2084Z"/>
        <path class="cls-41" d="M942.2471,382.8552c-20.0028,15.6374-43.0951,23.2979-67.9698,26.4637-19.6059,2.4951-38.886.5276-58.0104-3.895-.7418-.1715-1.4029-.6921-2.1016-1.05-.0459-2.1757,1.6765-2.1279,2.9426-1.9706,14.791,1.8369,28.7832-2.6171,42.8475-5.7545,28.5344-6.3653,56.2568-15.4167,83.1769-26.881,2.312-.9845,4.6578-2.6036,7.4356-1.3177,3.1725,2.2458,3.5477,4.1013-.0516,6.6567-3.0761,2.1839-6.8701,3.6977-8.7139,7.3832-.0191.0381.2892.2398.4447.3653Z"/>
        <path class="cls-36" d="M804.1908,400.6013c-3.373-.8605-7.6899-2.0852-7.8979-5.4394-.1921-3.0981,4.4033-3.9697,7.2128-5.1056,14.1954-5.7395,29.3592-7.6828,44.2154-10.7099,24.2742-4.9463,48.5271-9.9618,72.6218-15.7243,5.5466,2.191,10.1698-1.7683,15.3071-2.2782,1.3464-.1336,2.7224.0306,4.0848.058-.366,1.2659-.7321,2.5317-1.0983,3.7975-1.2805,3.33-4.5834,3.7585-7.2895,4.7484-23.2347,8.4991-46.8661,15.7328-70.9114,21.5653-15.4254,3.7416-30.8713,7.3836-46.6905,9.2214-3.2634.3791-6.3739.0229-9.5544-.1333Z"/>
        <path class="cls-18" d="M804.1908,400.6013c14.9588-2.6658,30.0606-4.4375,44.8707-8.05,30.389-7.4123,60.5245-15.587,89.5746-27.3531,3.4473-1.4824,6.8881-2.9807,10.3432-4.4451,2.7318-1.1579,5.9292-1.9595,7.3051,1.293,1.3942,3.295-1.9091,4.2443-4.253,5.3529-.5342.2528-.9783.6956-1.4636,1.0508-43.9371,17.7837-88.145,34.5406-136.4023,35.9241-3.6207-.4758-6.9699-1.669-9.9747-3.7726Z"/>
        <path class="cls-30" d="M1118.2702,202.3319c29.054.2503,52.3459,23.8492,52.1656,52.8528-.1767,28.4153-24.0864,51.7165-52.8638,51.5183-28.4245-.1957-51.9031-24.4471-51.8035-53.5089.0974-28.3951,23.5462-51.1118,52.5017-50.8623Z"/>
        <path class="cls-10" d="M1081.0118,254.152c-.098-20.423,15.9898-36.7502,36.3358-36.8764,21.0209-.1304,37.9127,16.2382,37.976,36.7996.0642,20.8372-16.4233,37.5641-37.1234,37.6622-20.5769.0975-37.0877-16.5895-37.1884-37.5853Z"/>
        <path class="cls-30" d="M1140.2945,254.3437c-.1183,11.9557-10.1257,21.7607-22.0597,21.6135-12.1128-.1494-21.5537-9.8419-21.5058-22.0787.0476-12.1496,9.8204-22.176,21.5759-22.1357,11.7984.0405,22.1081,10.6367,21.9896,22.6009Z"/>
        <path class="cls-42" d="M1129.3318,245.1584c.1325,4.3497-1.3039,6.4505-4.4045,6.292-3.1173-.1594-5.025-2.3378-5.1108-5.499-.0749-2.7549,1.553-4.5269,4.3479-4.6163,3.338-.1068,5.0062,1.8215,5.1675,3.8234Z"/>
      </g>
      <g>
        <path class="cls-17" d="M1234.5104,194.7585c-13.5098,0-24.501-10.9907-24.501-24.5005s10.9912-24.501,24.501-24.501,24.501,10.9912,24.501,24.501-10.9912,24.5005-24.501,24.5005Z"/>
        <path class="cls-30" d="M1234.5104,151.2569c10.494,0,19.001,8.507,19.001,19.0009s-8.507,19.001-19.001,19.001-19.0009-8.507-19.0009-19.001,8.507-19.0009,19.0009-19.0009M1234.5104,140.2569c-16.5425,0-30.0009,13.4584-30.0009,30.0009s13.4584,30.001,30.0009,30.001,30.001-13.4584,30.001-30.001-13.4584-30.0009-30.001-30.0009h0Z"/>
      </g>
      <g>
        <path class="cls-17" d="M1247.982,115.0705c-21.2139,0-38.4727-17.2588-38.4727-38.4722s17.2588-38.4722,38.4727-38.4722,38.4717,17.2588,38.4717,38.4722-17.2588,38.4722-38.4717,38.4722Z"/>
        <path class="cls-30" d="M1247.9817,44.1263c17.9338,0,32.4722,14.5383,32.4722,32.4722s-14.5383,32.4723-32.4722,32.4723-32.4722-14.5383-32.4722-32.4723,14.5382-32.4722,32.4722-32.4722M1247.9817,32.1263c-24.5221,0-44.4722,19.9502-44.4722,44.4722s19.9501,44.4723,44.4722,44.4723,44.4722-19.9502,44.4722-44.4723-19.9501-44.4722-44.4722-44.4722h0Z"/>
      </g>
    </g>
  </g>
</svg>