<?xml version="1.0" encoding="UTF-8"?>
<svg id="Capa_2" xmlns="http://www.w3.org/2000/svg" viewBox="0 0 1050.9541 947.9619">
  <defs>
    <style>
      .cls-1 {
        fill: #ee7159;
      }

      .cls-2 {
        fill: #5c2f28;
      }

      .cls-3 {
        fill: #8b2f25;
      }

      .cls-4 {
        fill: #bb4733;
      }

      .cls-5 {
        fill: #892e25;
      }

      .cls-6 {
        fill: #5d2e26;
      }

      .cls-7 {
        fill: #892e27;
      }

      .cls-8 {
        fill: #bbe2e9;
      }

      .cls-9 {
        fill: #54585e;
      }

      .cls-10 {
        fill: #575d62;
      }

      .cls-11 {
        fill: #3a3e43;
      }

      .cls-12 {
        fill: #5c2f29;
      }

      .cls-13 {
        fill: #3a4045;
      }

      .cls-14 {
        fill: #bd4c35;
      }

      .cls-15 {
        fill: #bbe1e9;
      }

      .cls-16 {
        fill: #bce2ea;
      }

      .cls-17 {
        fill: #ef7059;
      }

      .cls-18 {
        fill: #5c2f27;
      }

      .cls-19 {
        fill: #bb4731;
      }

      .cls-20 {
        fill: #565a60;
      }

      .cls-21 {
        fill: #2e3b42;
      }

      .cls-22 {
        fill: #6d929b;
      }

      .cls-23 {
        fill: #8b2e26;
      }

      .cls-24 {
        fill: #ba4832;
      }

      .cls-25 {
        fill: #603028;
      }

      .cls-26 {
        fill: #6e939b;
      }

      .cls-27 {
        fill: #8c2f27;
      }

      .cls-28 {
        fill: #be4935;
      }

      .cls-29 {
        fill: #b84632;
      }

      .cls-30 {
        fill: #5d2e28;
      }

      .cls-31 {
        fill: #bce1e9;
      }

      .cls-32 {
        fill: #fbfbfd;
      }

      .cls-33 {
        fill: #ee705c;
      }

      .cls-34 {
        fill: #8a2f27;
      }

      .cls-35 {
        fill: #ee735c;
      }

      .cls-36 {
        fill: #5d2f28;
      }

      .cls-37 {
        fill: #ed6f5a;
      }

      .cls-38 {
        fill: #bb4c37;
      }

      .cls-39 {
        fill: #bce2e9;
      }
    </style>
  </defs>
  <g id="Capa_1-2" data-name="Capa_1">
    <g>
      <path class="cls-21" d="M153.2438,619.6168c3.7326-8.6368,7.8617-17.0099,12.1656-25.0045,13.988-25.9835,29.2637-50.9382,48.0049-73.8157,36.7094-44.8114,84.0176-79.6204,137.9261-100.9017,6.2538-2.4688,12.5771-4.7609,18.957-6.8825,4.9557-1.648,14.6181-6.7158,19.7633-5.9848-70.3275-9.9922-138.0874-30.0939-203.2761-58.9315-43.8011-19.3764-85.5005-42.4753-122.28-73.4048-23.547-19.8016-45.6682-41.1283-58.3185-70.2254C1.2885,193.2009-.6477,181.5896.1885,169.457c1.0508-15.2462,13.2317-27.677,31.4616-32.0522,14.5158-3.4837,29.1576-2.8095,43.9298-1.6477,19.5526,1.5378,38.4697,5.8742,57.9099,11.3192-12.8923-17.257-24.1762-34.821-32.6755-54.0039-7.5667-17.0783-13.5176-34.5562-11.7858-53.7349C91.7132,9.6068,112.2036-2.5458,137.2404.4391c38.8726,4.6345,72.4175,22.8905,105.0634,42.8694,37.6698,23.0534,72.7466,49.7129,106.8528,77.7397,54.796,45.0288,106.9698,92.8788,156.1763,143.9383,12.8577,13.3419,24.9918,27.3898,37.2161,41.3259,2.2322,2.5448,3.7321,2.9109,6.6739,1.4509,8.1513-4.0454,16.8381-6.7808,25.6581-9.4817-1.8342-2.6792-4.8144-1.2571-7.0093-2.5841-1.8935-1.1447-4.8408-1.1121-4.1791-4.2189.513-2.4081,2.9119-2.515,5.0708-2.6188,10.8487-.522,21.5562.5467,32.0654,3.1694,2.7108.6765,5.121.4945,8.7175.2179-3.3545-2.9258-5.9228-5.1445-8.4643-7.3933-.9825-.8692-1.6199-1.9806-1.3048-3.3146.49-2.0751,2.291-1.4562,3.6063-1.4461,6.4369.0492,11.5151,3.9462,17.1815,6.193,1.8109.7181,3.0957,2.6794,6.0406,2.3508-3.0595-2.549-5.7384-4.6873-8.2995-6.9585-1.1049-.9799-1.8141-2.3686-1.2598-3.8858.6486-1.7751,2.3095-1.403,3.7369-1.4287,3.6561-.0658,6.7534,1.6324,9.7894,3.3023,10.0124,5.5072,19.9586,11.1348,31.1924,17.4228-3.5724-6.3031-6.4398-11.3725-9.3195-16.4348-.6163-1.0833-1.6148-2.244-.895-3.4426.9015-1.5014,2.6774-1.0452,3.9886-.7752,2.9115.5995,5.2767,2.3127,7.3194,4.4478,6.477,6.7703,13.6227,12.9042,19.2836,20.4557,1.2302,1.6411,2.7105,3.1907,5.7462,3.9762-2.4331-6.0377-4.5818-11.6068-6.9388-17.0862-.7948-1.8479-1.6246-3.8127.1309-5.0895,2.0093-1.4615,4.0693-.1778,5.496,1.4656,5.7177,6.586,9.3808,14.4754,13.7394,21.926,2.1482,3.6723,3.372,7.9335,7.5626,11.7135-.2817-5.7094-2.6203-9.968-3.3886-14.5229-.472-2.7982-2.7083-6.7578.7513-8.2421,3.2888-1.4109,4.5957,2.7486,5.9934,5.0876,4.7572,7.9607,8.1185,16.6042,11.9206,25.0344,1.0678,2.3678,1.5847,5.1451,4.091,7.12,3.0458-2.758.5811-6.8446,2.4255-9.7206.8178-1.2751.1996-3.8957,2.4761-3.6693,1.4897.1481,2.743,1.5304,3.4182,3.2968,1.8427,4.8209,1.7159,9.835,1.2504,14.7394-.469,4.9401.512,5.3729,5.6035,4.724,24.7624-3.1563,47.198,2.6306,66.2141,19.4991.7744.687,1.5597,1.3615,2.5558,2.23,4.7814-9.2088,9.4892-18.2758,14.1971-27.3428,6.4876-10.7451,10.2658-22.6769,14.2127-34.4164,8.2905-24.6592,14.319-49.914,17.3088-75.8265,1.4789-12.8175,2.4126-25.6527,2.4299-38.5715.0103-7.7828,6.9992-11.7892,13.3014-8.0552,2.6161,1.55,3.5048,3.6635,3.5644,6.7041.5077,25.9148-2.7248,51.42-8.3158,76.6526-4.9955,22.5454-11.1549,44.7554-20.1813,66.0792-.3423.8087-.3124,1.612-.0456,2.4259-1.1367,2.7609-2.2734,5.5219-4.0198,9.764,15.2388-14.3701,27.2965-29.3632,39.1665-44.5081,20.7873-26.5223,39.9064-54.1294,54.7328-84.5252,2.2871-4.6887,8.6046-6.4852,13.3065-4.2108,4.6789,2.2632,6.4197,7.8028,3.6581,13.3434-9.8264,19.7144-20.9847,38.6717-33.6194,56.7118-21.4882,30.6813-44.3609,60.2404-71.9248,85.8307-6.7086,6.2285-13.6092,12.2777-20.751,17.9978-2.6541,2.1257-3.0257,3.4951-1.5368,6.5193,9.5914,19.483,9.8625,39.3073,1.0065,59.0671-1.4607,3.2591-.0703,4.4841,1.7264,6.2309,13.302,12.9319,27.7645,24.5332,41.99,36.3925,25.0585,20.8905,50.3275,41.5283,75.4733,62.3143,25.9509,21.4516,51.8877,42.9202,77.7694,64.4552,7.3585,6.1226,14.6037,12.3917,21.6832,18.8329,2.1005,1.9111,6.2928,4.1351,3.9314,7.3824-2.7209,3.7418-5.9722-.2701-8.3955-1.7038-18.9642-11.2201-37.9352-22.445-56.5919-34.1655-63.3832-39.8186-126.6525-79.8187-189.8973-119.8568-3.031-1.9188-5.3139-2.1337-8.7151-.7821-31.365,12.4633-65.4218,4.998-88.3339-19.3653-2.0177,6.1137-1.7573,12.5786-4.4479,18.2312-.6569,1.3801-1.225,3.578-3.333,2.9619-1.6614-.4855-1.2158-2.4383-1.2358-3.8574-.0381-2.705-.0111-5.4108-.5607-8.2535-3.3227,3.9566-3.5323,8.9979-4.5686,13.6787-.4884,2.206-.1308,4.7166-2.7559,5.6597-3.1089,1.1168-2.1855-3.1278-4.6172-3.2135-1.295,1.5755.6588,2.7685,1.3155,3.9292,21.4568,37.9199,43.8885,75.3108,63.6567,114.147,5.182,10.1803,13.6294,16.2744,21.6182,23.1607,19.8407,17.102,39.9778,33.8608,60.0266,50.7209,22.7444,19.127,45.6921,38.0178,68.1648,57.4581,5.5456,4.7973,11.6616,8.1999,17.9186,11.6342,12.074,6.0778,25.0234,9.6883,37.9688,13.2284,15.8299,4.3289,31.9146,7.3677,48.2766,8.9735,2.6427.2593,7.1535.087,7.2884,3.3072.1625,3.8815-4.3426,3.4494-7.2256,3.9996-17.7878,3.3951-35.123.3432-52.3003-4.0128-11.6567-2.9561-23.13-6.5569-34.2425-11.2293-1.4919-.6273-3.0875-1.3489-4.8246-.7504-16.6318-4.8647-29.0729-16.2985-41.9329-26.9817-27.3368-22.7098-54.5937-45.517-81.7544-68.4371-15.252-12.8707-29.3373-27.3583-45.649-38.6638-12.7602-8.8441-18.9234-21.351-26.1406-33.605-18.268-31.0175-33.7562-63.4924-49.3978-95.905-6.2947,5.4097-6.7039,5.1195-9.3363-8.1517-2.936,7.6159-8.6633,12.6369-8.3779,19.5093,1.2434,29.9343,2.6729,59.864,5.6255,89.7081.8358,8.4484,1.971,16.8613,2.9132,25.2892.7932,7.0947,6.613,11.802,10.5677,17.1942,38.6939,52.7588,77.4442,105.4795,117.3517,157.3337,7.4117,9.6305,18.1925,14.8206,28.447,20.5242,8.1894,4.5549,16.8033,8.3467,25.2287,12.4772,6.201,3.9326,13.3355,5.4047,20.2146,7.4518,11.1821,3.3275,22.6517,5.4014,34.1678,7.2661,3.253.5268,8.3247.3641,8.3333,4.7961.0095,4.8353-5.2358,3.9491-8.3831,4.271-19.1829,1.9623-37.3583-2.9265-55.3695-8.6989-12.3093-3.9449-23.5456-10.3751-35.4522-15.251-16.9342-8.1812-30.3716-20.3503-42.1003-35.0024-40.25-50.2818-77.299-102.9013-114.5451-155.3857-1.4977-2.1103-3.0477-3.9843-5.7244-5.252-2.9803-1.4118-5.2014-3.9259-5.8099-8.1016-4.484-30.77-5.4322-61.714-4.9952-92.7204.1662-11.7942-.7384-23.6389.5736-35.8138-2.7805,5.3927-6.8367,9.6703-11.1733,13.6984-1.2179,1.1312-2.3219,2.5965-3.7733,3.2054-1.4656.6149-3.0059,2.3864-5.0254.4342-1.7979-1.7382-2.1742-3.2976-1-5.4892,1.9221-3.5874,3.5625-7.3288,5.553-10.8755,1.8746-3.3405-.4977-2.9196-2.4183-3.0334.0154-.2078-.0333-.5609.0562-.6004.6779-.2986.4536-.7869-.0257-.4799-2.2712,1.4548-2.7984,3.971-3.5119,6.363-12.41,41.6036-25.2072,83.0845-39.4361,124.1099-1.1511,3.319-.4958,6.4959.2384,9.8028,11.3944,51.3231,23.2583,102.5401,34.7859,153.833,3.4585,15.3889,6.9635,30.7751,10.7359,46.0973.7736,3.1419,2.0531,5.2938,4.6499,6.8885,14.1165,17.2508,28.9558,33.7412,46.1685,48.0906,20.6807,17.2405,43.8753,29.8131,68.8684,39.3733,2.2959.8782,4.7121,1.5453,6.8408,2.7276,1.9501,1.083,4.2298,2.5602,3.3536,5.3175-.7435,2.3395-2.7429,3.2816-5.3082,3.5307-7.8718.764-15.1834-1.5466-22.3336-4.142-38.6132-14.0152-70.2584-37.9629-97.4318-68.3863-6.04-6.7623-10.9418-14.5816-18.2672-20.1856-1.3443-1.0283-2.3775-2.314-2.8071-4.0031.0331-7.1448-2.5214-13.817-4.0387-20.6431-10.0198-45.0775-19.8822-90.1882-29.4771-135.3579-3.5352-16.6429-7.253-33.2471-10.5219-49.9472-.5839-2.9828-.9529-5.9682-3.3584-8.5038-2.3838-2.5127-1.0694-5.8989-.3309-8.9388,4.5188-18.6031,10.4683-36.7879,16.1117-55.0611,6.5149-21.0952,13.9342-41.8918,20.8621-62.8509.442-1.337,1.5112-2.5907.5659-4.1193-4.9874.0208-9.9749.0533-14.9623.0585-3.7123.0039-9.109.2303-9.8246-3.1286-.9513-4.4654,4.9483-4.2348,7.9748-5.8727,1.5764-.8531,3.3945-1.2597,5.955-2.171-5.0253-1.8206-9.3488-3.3531-13.6467-4.9544-3.5677-1.3294-3.5048,2.0014-4.3783,3.6216-12.3084,22.831-24.1019,45.9311-37.2599,68.3125-11.7202,19.9357-24.3122,39.3561-37.8072,58.0258-11.4568,15.8499-17.1246,33.9951-24.527,51.3977-19.1815,45.0939-39.8366,89.5168-59.661,134.3149-2.317,5.2359-5.9916,8.2509-11.8291,8.473-4.3561.1658-6.5935,3.892-9.65,6.1194-40.8509,29.7699-84.9981,52.9511-133.7133,66.9483-10.4652,3.0068-21.0287,5.9543-32.1013,5.836-3.6978-.0395-8.2657.6583-9.1093-4.2331-1.0586-6.1374,4.8261-6.2105,8.3272-7.032,33.5104-7.8631,65.0392-20.8317,95.4745-36.6133,24.8057-12.8624,47.7684-28.6634,70.4418-44.9029,2.1916-1.5697,3.2317-3.7425,4.2722-5.9758,26.1662-56.1623,52.2917-112.3437,78.4965-168.488,1.4244-3.0518,2.769-5.894,2.0691-9.4222-.7827-3.9453,1.5097-7.1519,3.2223-10.3782,16.7978-31.6429,35.8679-61.9405,54.7848-92.3279,6.6485-10.6799,13.3408-21.333,19.8866-32.0754.5542-.9095,2.9289-1.5063,1.1467-3.3242-1.1339-1.1566-1.935-.4443-3.1717.0956-2.189.9555-4.634,2.4158-3.7468-2.7314.7767-4.5068-5.0231-5.2656-7.6299-7.9289-1.6714-1.7078-2.8021,1.5468-4.0088,2.6152-1.6929,1.4989-3.3186,2.8398-5.4454,1.5021-2.6399-1.6604.6503-2.5662.7448-3.8952.178-2.5033,5.914-3.5408,2.0715-6.8538-1.7927-1.5457-9.7376,2.1099-10.6917,4.5843-8.9851,23.3014-21.0729,44.965-34.1265,66.198-18.3587,29.8623-39.8527,57.2942-64.8938,81.6542-30.0953,29.2768-63.5958,54.2614-100.9181,73.8407-3.6361.4159-6.5451,2.573-9.6594,4.1646-29.3819,15.0164-59.8772,26.8759-92.5696,32.3356-14.361,2.3983-28.8292,4.1953-43.288.5699-13.2131-3.3129-21.2123-13.9784-21.5983-27.7657-.7261-25.9355,6.6388-52.3383,17.1461-76.6512Z"/>
      <path class="cls-20" d="M578.7829,390.4198c-9.6013-23.8475-31.4499-34.8599-51.1854-48.979,9.2882-6.6704,19.6677-11.3032,29.8996-16.0448,22.9209-10.6217,46.9013-16.8436,72.4095-15.0291,30.1085,2.1416,56.99,12.4363,79.7191,32.6513,6.2015,5.5155,5.8577,6.5293-.5315,11.8072-20.1545,16.6489-29.9276,38.2763-30.2498,64.3027-5.5366,6.0894-12.8867,8.6996-20.6562,9.0125-12.4249.5005-24.8649,1.0955-37.2501-1.9613-9.6271-2.376-17.9989-6.2697-24.6544-13.6564-1.0876-1.2072-2.9082-2.2451-2.3077-4.0802.7062-2.1581,2.9892-1.8901,4.7919-2.1028,2.4536-.2896,4.9751-.0293,7.664-.9915-7.9308-1.8398-15.3157-4.3327-21.9161-8.7034-2.3937-1.5851-5.0994-2.9777-5.733-6.2252Z"/>
      <path class="cls-26" d="M22.9483,183.8857c-.6725-1.7142-1.6991-3.3554-1.0983-5.3319.0589-3.6222,1.9758-5.1148,5.5107-5.104,4.0151.0124,7.9132.8088,11.7204,1.8285,35.681,9.5564,71.9985,16.3951,107.8228,25.3287,73.4167,18.3079,142.4888,47.0987,207.0776,86.49,40.0882,24.4489,81.1271,47.1748,122.8757,68.6154,20.7944,10.6793,42.4267,19.5314,64.4431,27.4348,5.3996,1.9384,11.3073,3.2626,14.8894,8.5029-3.5527,2.1129-7.5638,1.8859-11.46,2.245-17.5666-1.0766-33.7035-7.6827-49.8363-13.7122-26.7908-10.0128-53.8891-19.0289-81.1499-27.6202-7.5875-2.3912-15.3388-2.0394-22.9585-1.3036-7.5059.7248-14.9777.9624-22.4803.9044-27.7392-.2143-55.3996,1.2873-83.0314,3.5733-6.8432.5661-13.697.3613-20.4955-.7757-6.0723-2.0751-12.2622-3.8488-17.9185-6.9902,1.7559-2.5042,4.5384-2.8191,7.1933-3.1938,17.3301-2.446,34.756-3.847,52.2071-5.1716,20.2-1.5332,40.3995-.9369,60.6017-1.1485,3.9149-.041,7.7577.331,12.8754,1.5423-15.4259-3.0179-29.0559-7.5795-42.9422-11.1857-37.5369-9.7484-75.1479-19.2308-113.8132-23.4815-22.2009-2.4407-44.4693-2.9399-66.7392-.9356-3.6065.3246-7.0413-.4544-10.5624-.5825-4.8132-2.5299-9.8113-4.7522-13.9554-8.3943.3258-3.8615,3.6826-3.6302,6.0269-3.9051,22.7963-2.6732,45.6156-4.1921,68.6-2.1937,74.1932,6.4505,144.782,27.8111,214.8075,51.5575,5.5224,1.8728,10.8375,4.2901,16.2334,6.5219-18.7669-6.8188-35.5899-17.4288-52.9232-27.0351-15.7718-8.7409-32.6941-14.7188-49.5736-20.7738-62.6572-22.4767-126.9986-38.233-192.9356-47.2031-18.963-2.5797-38.0706-4.518-57.3119-4.2918-6.4327.0756-12.8452-1.1539-19.2757-1.6924-2.931-3.2442-5.862-6.4885-8.7929-9.7327.1834-3.8421,3.3176-3.0981,5.4554-3.1514,18.1392-.4522,36.244.0125,54.3247,1.8187,42.0166,4.1973,83.3427,12.3359,124.2856,22.3114,29.5399,7.1972,58.9141,15.2136,81.198,24.7494-29.2372-15.7063-65.0242-32.249-102.1237-45.9639-44.5396-16.4653-90.4261-27.921-136.7923-37.7227-18.9688-4.0099-37.3801-10.4275-56.6303-13.2586-1.2602-.1854-2.3986-.6905-3.3482-1.5685Z"/>
      <path class="cls-31" d="M556.1897,391.6501c-16.0176-8.53-33.5478-13.3598-50.1458-20.5084-36.976-15.9252-71.6311-36.2356-106.8291-55.5287-27.7436-15.207-53.9345-33.0853-81.9329-47.8597-63.9946-33.7691-131.4062-57.9772-202.2234-72.9398-27.6107-5.8337-54.943-12.9766-82.4757-19.1976-3.5761-.808-8.7288-3.6249-10.7328,2.9377-2.5975-15.7417,9.9651-21.3044,25.3817-22.1465,28.5226-1.558,55.9669,4.7143,82.9682,13.002,58.4734,17.9476,114.2124,42.6252,168.7846,69.9541,72.7051,36.4095,144.1231,75.1816,213.0662,118.3887,14.3959,9.0221,28.0531,19.0912,41.8466,28.9741,1.7512,1.2547,3.2883,2.4599,2.2926,4.924Z"/>
      <path class="cls-15" d="M65.372,246.4042c1.6118-2.1043,3.9017-1.0475,5.7921-.9876,39.5445,1.2512,78.7862,5.1934,117.6878,12.653,57.8789,11.0986,114.2382,27.3672,169.331,48.2366,17.2439,6.5321,32.8136,16.1814,48.9909,24.7197,11.0139,5.8132,22.0308,11.6212,32.8421,18.0589-10.6635-3.6363-21.3213-7.2889-31.9912-10.9061-48.6432-16.49-97.9786-30.4693-148.4518-40.1445-30.1247-5.7746-60.5335-9.2527-91.2647-7.5999-11.1852.6016-22.4378,1.2352-33.506,3.351-1.2182.2329-2.5398.1663-3.0781,1.6345-13.1876-6.4414-24.8077-15.3352-36.58-23.9045-10.4934-7.6384-20.944-15.4448-29.7721-25.1111Z"/>
      <path class="cls-16" d="M131.637,103.8288c-11.5507-17.6701-20.8779-36.1572-21.286-57.9222,2.6923-.928,4.8933.6581,7.1309,1.5761,49.3049,20.2294,97.213,43.2522,141.7341,72.7399,22.6053,14.9721,45.0773,30.3783,64.1503,49.7954,12.9765,13.2106,24.3855,27.9489,36.3342,42.1413,1.2574,1.4935,3.7022,3.4957,2.0882,5.2381-2.0731,2.2381-4.096-.4683-5.8022-1.7476-36.6627-27.4897-75.4856-51.5365-116.7812-71.3359-32.1987-15.4378-65.5745-28.0679-100.0976-37.4597-2.6186-.7124-5.3014-1.2228-7.4707-3.0254Z"/>
      <path class="cls-31" d="M410.9762,273.9477c-12.9464-6.7964-25.8615-13.6532-38.8446-20.3787-56.0564-29.0386-112.236-57.823-170.8192-81.5702-6.2931-2.551-12.5744-5.1426-18.9468-7.4823-4.3052-1.5807-7.7036-3.7857-10.704-7.575-10.05-12.6923-21.9705-23.8478-30.9919-37.4167-.693-1.0423-1.5912-1.9345-1.3973-3.3227,6.9794-.048,13.3961,2.6102,19.9292,4.4445,39.9024,11.2036,77.6854,27.4704,113.9482,47.521,36.7368,20.3128,71.8485,43.0144,104.6168,69.2585,9.6145,7.7002,18.2316,16.551,25.3805,26.6048,2.4621,3.4625,7.4817,4.8706,7.8292,9.9167Z"/>
      <path class="cls-31" d="M22.9483,183.8857c16.1732.601,31.2821,6.2295,46.8083,9.8941,34.1255,8.0546,68.5497,14.8811,102.1686,25.0129,55.1134,16.6098,108.1497,38.118,158.2039,66.8077-1.3247,1.5162-2.4351.2485-3.5592-.1297-1.1785-.3964-2.3023-.9534-3.4768-1.3639-47.5243-16.6115-96.0877-29.0658-145.6518-38.047-37.7771-6.8453-75.6069-11.8124-114.059-10.8463-2.2739.0571-5.0326-1.2735-6.8031,1.4576-14.485-13.8335-27.309-28.8144-33.2502-48.4932-.4065-1.3464-.2665-2.8578-.3806-4.2924Z"/>
      <path class="cls-8" d="M264.7777,354.9612c8.808-1.5261,17.7636-1.1352,26.6317-1.7369,27.0077-1.8327,54.0612-3.2315,81.164-2.989,6.0293.0539,12.1302-.0423,18.0837-.8813,17.0693-2.4054,32.2599,4.3532,47.874,9.1756,32.1604,9.9326,63.1503,23.2877,95.5005,32.6608,3.4821,1.0089,7.2913,1.5055,10.6437,2.783-5.0307,1.9737-13.1031.4939-18.5057.5193-37.3552.1755-74.702-.372-111.8354-4.8339-25.9203-3.1156-51.6802-7.3938-77.1518-13.314-23.6604-5.4992-47.2659-11.1209-69.9941-19.8718-.4068-1.1365-1.5077-1.1662-2.4106-1.5117Z"/>
      <path class="cls-26" d="M410.9762,273.9477c-7.7231-5.8328-12.6654-14.2044-19.2466-21.0936-20.1677-21.1113-44.4795-36.8408-68.5857-52.7482-55.3089-36.4977-113.9401-65.8814-178.7389-81.7071-1.7834-.4355-3.425-1.4515-5.1327-2.1967-3.3291-3.6408-5.4854-8.0054-7.6356-12.3735,18.7503,3.1642,36.3681,10.1239,54.1478,16.4355,61.2998,21.7606,116.7056,54.3848,169.1443,92.4022,2.0134,1.4597,3.9237,3.0615,5.8987,4.5753.0854.0655.3388-.0882.9674-.2734-10.3061-12.0799-20.6382-23.892-30.6395-35.9779-18.0405-21.8006-41.207-37.4665-64.0748-53.3637-46.6842-32.4538-97.649-56.899-149.9713-78.6877-2.2785-.9489-4.5068-2.0184-6.7584-3.032-.1618-.418-.1028-.8017.1772-1.1514,1.199-8.011,1.624-8.3326,9.8727-5.9225,9.4349,2.7567,18.3937,6.7712,27.2479,10.9628,29.5848,14.0057,59.1247,28.0998,87.0207,45.3612,26.5598,16.4345,52.0148,34.3898,75.6207,53.9435-3.8972-9.5988-8.2465-19.738-10.2502-30.6572-.4781-2.6057-1.4345-5.4576,1.8847-7.1098,2.0958,1.646,4.1915,3.2919,6.2873,4.9379,1.8426,2.3139,2.9224,4.9518,3.7787,7.7874,4.0498,13.4109,9.2969,26.2841,16.6024,38.3312,4.712,7.7704,11.0487,14.1555,17.1191,20.649,18.3815,19.6628,34.803,40.9419,52.0494,61.5401,7.8862,9.4188,15.9041,18.7235,24.2543,27.7465,2.9625,3.2012,7.0937,5.9624,6.7119,11.2616-6.3321-2.4491-12.1875-5.7761-17.7516-9.6394Z"/>
      <path class="cls-16" d="M301.9246,111.3335c-2.2304,4.4069-.0776,8.5803.987,12.657,2.7177,10.4062,6.6707,20.3947,11.2389,30.2682-18.3133-15.9921-38.075-29.9314-58.1044-43.4872-40.1378-27.1648-83.4151-48.438-127.7936-67.6028-2.8491-1.2304-5.9011-1.9823-8.8198-3.062-4.7269-1.7487-8.6288-2.0627-8.9047,4.6487-1.4041-18.1673,12.0766-27.5953,34.3993-21.9235,34.4372,8.7499,65.0589,25.5477,94.7097,44.3428,21.5088,13.634,42.3653,28.2542,62.2876,44.1587Z"/>
      <path class="cls-31" d="M145.6796,303.8141c12.6695-2.485,25.5068-2.3372,38.3278-2.443,44.3-.3654,87.142,9.0272,129.751,19.6893,22.4844,5.6263,44.7877,11.9763,67.1082,18.6526-44.9069.0335-89.677.5989-134.0076,8.2579-15.7371-4.2922-30.5272-11.0815-45.5096-17.3468-19.0244-7.9554-37.7337-16.5852-55.6697-26.8101Z"/>
      <path class="cls-20" d="M754.3829,361.5882c36.0789.1664,59.6449,30.1252,59.0715,56.6754-.6665,30.8606-20.8427,52.6229-54.3313,53.3448-35.5563.7665-59.2093-26.4669-59.1728-56.7073.0321-26.5761,23.9432-55.2089,54.4326-53.3129Z"/>
      <path class="cls-16" d="M428.7278,283.5872c-3.9371-7.9984-10.867-13.5912-16.6534-20.0062-19.927-22.0919-37.3618-46.2507-57.2926-68.3201-7.5255-8.333-15.5183-16.2933-22.4905-25.0654-10.3333-13.0006-16.3514-28.3058-21.3024-44.019-1.0299-3.2688-1.8564-6.6017-2.7768-9.9051,36.5603,28.9226,72.7951,58.2224,105.7869,91.2807,3.317,17.1967,6.6763,34.3643,13.8756,50.5149,4.9451,11.0938,10.9052,21.5377,18.3695,31.127,1.0732,1.3787,2.9698,2.4946,2.1108,4.7588-.0425.112-.301.1856-.4645.1972-.2024.0143-.4108-.055-.6166-.0882-6.182-3.4915-12.364-6.9831-18.546-10.4746Z"/>
      <path class="cls-4" d="M360.6559,436.7029c11.4067-6.3132,24.1425-9.1133,36.2127-13.6729,2.4944-.9423,5.1075-1.5705,7.6659-2.3434,1.5228,1.1192,1.5712,2.8045,1.7669,4.4635,3.0401,25.7617,14.0218,47.9539,30.3922,67.7473,2.2589,2.7313,5.9865,3.8607,7.6103,7.2254.8092,3.3672-1.1486,5.983-2.541,8.6678-4.6605,8.9857-10.6632,17.1198-16.4701,25.3699-1.0536,1.4968-2.1886,3.0269-4.0994,3.6112-2.8385.5261-4.7074-1.3384-6.674-2.8178-20.1148-15.1323-34.5645-34.7503-45.169-57.364-1.4148-3.0171-3.03-5.9554-4.1756-9.0876-.835-2.2829-2.2578-4.5984-.5858-7.1222,6.5141-2.728,12.9557-5.6163,19.0272-9.257,2.1424-1.2847,4.2086-2.6928,5.9093-4.5579,2.5127-2.7555,2.8325-6.0152,1.6632-9.3275-1.0854-3.0746-4.0281-3.3619-6.7471-3.4901-6.1993-.2923-11.9094,1.487-17.2314,4.5561-1.7816,1.0274-3.3264,2.6232-5.6797,1.7794-1.7452-1.1729-1.8491-2.6698-.8745-4.3801Z"/>
      <path class="cls-9" d="M533.7421,416.7457c8.103-1.4778,16.4608-1.7387,24.1888-5.0107,7.0361-2.979,12.6786-7.6769,17.0389-13.9352,1.8973-.2618,2.4495,1.2537,3.1705,2.4659,12.8949,21.6779,32.6577,31.3903,57.1708,32.1767,10.7657.3454,21.6253,1.0984,32.239-2.4338,5.1118-1.7012,6.8349.7544,5.1474,6.0559-.8851,2.7806-2.8548,4.4889-5.0967,6.0933-8.471,6.0623-17.8816,9.7497-28.15,11.3165-3.4583.7441-6.967,1.2501-10.3211,2.4813-23.6779,8.6915-46.8421,9.3957-68.9099-4.7789-7.9124-5.0822-17.3058-7.3113-24.8222-13.1202-1.3137-1.0152-2.8943-1.7154-3.8473-3.1454-.9647-1.4474-1.5377-3.0042-.5028-4.667,1.015-1.6311,2.5671-2.0089,4.3534-1.6788,3.6231.6695,6.4801,2.8158,9.2744,4.9931,5.0125,3.9056,10.4938,6.6325,17.4898,7.5588-.8426-2.7048-2.9237-3.3001-4.5397-4.3675-7.1251-4.7069-14.5534-9.011-20.678-15.0725-1.3889-1.3746-3.6467-2.3165-3.2053-4.9315Z"/>
      <path class="cls-39" d="M421.0303,213.8129c24.7732,23.749,50.03,46.9958,73.2291,72.3551,10.1019,11.0426,20.543,21.7708,30.2564,33.4919-1.633.9308-3.369,1.5575-4.6378,2.7021-8.6069,7.7634-16.4906,6.2545-25.1689-.5142-8.1057-6.3222-18.0263-10.076-25.9971-16.7688-16.1523-10.8257-26.2176-26.547-34.2695-43.6323-6.4928-13.7769-10.8633-28.3741-14.1177-43.261-.2877-1.3163-2.6812-3.4697.7056-4.3729Z"/>
      <path class="cls-13" d="M533.7421,416.7457c8.3074,7.8797,17.4536,14.6032,27.5265,20.0666,2.0718,1.1238,4.4637,2.8206,3.4637,5.2392-1.1674,2.8234-3.8703.7299-5.807.3435-7.1202-1.4204-12.8542-5.5324-18.5147-9.8011-2.4085-1.8162-6.0652-4.6677-8.0568-1.9577-2.8835,3.9237,2.233,5.0248,4.5643,6.1066,17.0994,7.9347,31.9041,20.8385,51.6197,23.186,10.5042,1.2506,20.6777-.0144,30.7404-2.3217,6.6087-1.5153,12.754-4.8673,19.6009-5.7534.4225.4587.8847.884,1.2798,1.3637,8.1578,9.9038,9.8921,10.3141,22.0969,5.1153,1.3509-.5755,2.7052-1.3716,4.0806-.2975,1.4834,1.1586,1.4727,2.8721,1.3182,4.5635-.1635,1.7885-1.3344,2.9905-2.4842,4.2006-18.9672,12.5675-39.457,18.0368-62.3956,15.2858-15.4972-1.8585-30.577-5.2307-43.4541-13.6299-6.9929-4.5611-14.7048-7.8495-21.3568-12.9496-7.3178-5.6107-13.475-12.2806-19.2249-19.3839-3.6472-4.5059-4.7481-10.1041-6-15.5394-.7263-3.153,1.8081-3.896,4.2562-3.9258,5.5811-.0679,11.1645.048,16.7469.0893Z"/>
      <path class="cls-36" d="M393.4587,593.3089c-2.0268,6.2629-8.1429,8.4931-12.3914,12.5651-6.7703-.835-12.5152-4.6078-18.8919-6.5752-35.8938-18.4617-60.2161-47.4808-76.4842-83.8545-3.1944-8.3093-6.2567-16.6574-7.596-25.518-.5189-1.8718.7295-3.6702.2245-5.5447,5.312-4.8146,11.2972-8.7029,17.2974-12.5705,1.6039,1.1907,1.7115,2.9598,1.8394,4.7204-.563,8.7378,1.2062,17.0401,4.7327,25.0033,15.0359,36.9864,39.3849,65.5284,75.579,83.3274,3.4836,1.9162,7.2358,3.166,10.9253,4.5927,1.8935.7324,4.8063.5864,4.7652,3.854Z"/>
      <path class="cls-24" d="M159.1194,665.8644c4.4269-20.2604,12.3992-39.1959,21.5594-57.6874,2.9864.3618,3.1944,2.5176,3.1407,4.8453-4.5244,8.3329-8.9515,16.7199-12.0874,25.6302,3.3164-4.7997,6.9253-9.4953,10.5293-14.1935,1.1367-1.4818,2.3883-2.8947,4.5323-2.8206,2.1365.7326,3.1294,2.5768,4.2615,4.3152,10.5705,16.2308,22.7476,31.0274,38.1787,42.9506,1.8488,1.4285,4.5402,2.4476,4.0898,5.6384-4.5704,3.9979-10.5354,4.684-15.9636,6.5148-12.597,4.2487-25.4828,7.4235-38.7389,8.9038-10.8358-3.2055-19.8881-14.3978-19.5019-24.0968Z"/>
      <path class="cls-2" d="M342.1113,638.3495c-4.7441,5.0781-10.8801,8.3112-16.3941,12.3687-7.3363-2.4106-14.5536-5.1024-21.2704-8.9836-16.4796-9.5252-31.5796-20.9481-44.9001-34.4846-11.2676-11.4503-20.656-24.4444-27.8344-38.9252-3.2066-7.169-6.4498-14.3219-8.479-21.9492-.4691-2.0807-.023-3.972,1.1792-5.7047,2.6305-5.892,7.8182-9.5269,12.2256-13.8503,2.2473,1.4207,1.7478,4.0183,2.6074,6.0346,1.2305,6.7537,4.0243,12.9836,6.523,19.3088,11.5891,25.6583,29.5332,45.8332,52.7435,61.5704,7.9086,5.3622,15.848,10.6373,24.2895,15.1302,4.9085,2.7361,10.1548,4.644,15.4442,6.4726,1.5651.5411,4.013.1845,3.8656,3.0123Z"/>
      <path class="cls-30" d="M364.6955,461.7674c5.8807,18.2066,15.4731,34.342,27.2764,49.2868,7.2823,9.2204,15.8877,16.9995,25.2526,23.994,1.1302.8441,2.5217,1.3382,3.7921,1.9944,5.0859,1.7221,10.2653,3.2147,14.894,6.0605-3.151,4.7248-5.7376,9.8509-9.8711,13.8768-5.9552.6495-10.7222-2.4814-15.711-4.9185-26.3347-15.4483-42.9553-39.1978-56.0293-65.8975-2.1854-4.4631-4.702-8.8092-6.2248-13.5959-2.3342-8.246-5.6567-16.308-4.6585-25.1708.3725-1.6753,1.3053-3.0397,2.4108-4.3067,4.4423-3.2933,9.4113-5.3638,14.8301-6.3879.2721,1.3736.1012,2.9298,1.5685,3.8112.8864,7.0772,1.6689,14.1665,2.4701,21.2536Z"/>
      <path class="cls-29" d="M419.8572,416.8587c10.5407-3.2764,21.2313-5.2705,32.3293-3.7809,1.1181.568,2.3882,1.1086,2.8645,2.2982,3.8568,9.6324,9.5156,18.3996,13.4078,28.0189-2.2561,12.3601-6.1584,24.2031-11.407,35.5973-1.2063,2.6188-2.5447,5.3371-5.8338,6.0593-3.4951-.2952-5.5639-2.8164-7.366-5.2761-12.4445-16.9859-21.2819-35.6107-25.11-56.4467-.4223-2.2983-.6535-4.5539,1.1151-6.47Z"/>
      <path class="cls-12" d="M182.9317,613.3795c-.0966-2.0175-.8183-3.7639-2.2542-5.2011,1.4443-5.1412,4.453-9.4284,7.4686-13.7119,2.8804-.5617,4.0693,1.8139,5.7725,3.3067,1.8386,2.2905,2.982,4.9842,4.3727,7.5374,12.8967,24.6146,31.2107,44.3188,54.1786,59.8063,6.1491,5.6969,14.3394,8.2182,20.8312,13.3797-5.9952,4.5241-13.259,6.1131-20.0973,8.6864-7.153-3.9287-15.3517-6.3165-20.1694-13.6867-19.5013-13.495-33.8978-31.5839-46.3101-51.4587-3.0753-2.0927-5.0391-4.6723-3.7926-8.6581Z"/>
      <path class="cls-11" d="M665.1702,466.7992c.3798-1.3954.9167-2.7712,1.094-4.1919.1684-1.3511.7685-3.1009-.8972-3.8862-1.3821-.6515-2.0848.9582-3.1078,1.5477-10.1449,5.8458-20.699,3.9151-23.3803-8.416,9.8085-1.433,18.7232-5.0073,27.0839-10.3944,4.0583-2.6149,5.5545-6.0405,6.5289-11.5967-12.7649,5.78-25.5007,4.6534-38.0545,4.2685-23.1787-.7105-42.1634-9.955-55.6217-29.327-1.5107-2.1745-2.5743-4.6596-3.8454-7.0021,1.0172-2.5923.75-5.847,3.8126-7.3814,9.5,8.2739,20.9351,12.2073,34.5138,14.5627-6.6931,3.4136-12.5963,2.9367-18.612,2.9497,9.2328,13.3738,23.1047,17.1082,37.2994,18.4766,10.836,1.0445,21.9561,1.2873,32.9417-.9044,5.3116-1.0597,8.553-5.906,13.9199-6.3754,1.6198,2.4225,1.4943,5.1758,1.3282,7.8714-.3672,5.9605.4434,11.6308,3.5726,16.8368,1.0081,1.6771,1.7521,3.5365.2578,5.2093-5.7653,6.4538-10.9116,13.5828-18.8339,17.7528Z"/>
      <path class="cls-18" d="M419.8572,416.8587c.0505,11.6969,4.1011,22.4105,8.7304,32.819,5.6478,12.699,11.4131,25.4666,22.452,34.7451,5.7299,2.2129,11.4657,4.4145,16.173,8.5595-1.4454,5.8611-5.4903,10.2496-8.5945,15.171-5.8966-.73-11.8743-1.2989-14.9938-7.5465-15.9407-11.1366-23.734-27.9809-31.113-44.9834-4.8099-11.0826-8.2852-22.6172-7.9764-34.9381,5.1072-1.2747,10.2148-2.5507,15.3224-3.8266Z"/>
      <path class="cls-27" d="M273.3011,678.4965c-8.0659-2.6129-15.4535-6.3675-21.3287-12.6685.1074-3.2614,2.9068-3.7823,5.0698-4.6385,13.7557-5.4456,27.1202-11.6865,40.025-18.934,2.2305-1.2528,4.5773-3.2215,7.492-1.3999,7.1033,3.181,14.9275,4.8156,21.1588,9.8637-15.9378,9.9756-32.1432,19.4607-49.4581,26.9017-.9384.4033-1.9704.5886-2.9588.8755Z"/>
      <path class="cls-23" d="M342.1113,638.3495c-5.5822-2.0738-11.1437-4.2067-16.7608-6.1815-1.4739-.5182-2.6467-1.1518-3.2715-2.6099-.7323-2.3305.964-3.5004,2.4259-4.5407,11.6841-8.3138,23.0454-17.0499,34.2945-25.9375.9484-.7493,2.0519-1.4615,3.4012-.7977,6.6487,1.6342,13.0401,3.9077,18.8655,7.5914-11.8616,12.1721-24.5856,23.3108-38.9548,32.4758Z"/>
      <path class="cls-34" d="M233.0344,673.4962c6.074,5.5189,14.4698,7.6163,20.1694,13.6868-12.3764,5.5185-25.391,9.2137-38.2619,13.3078-1.7192.5469-3.6615.3923-5.5005.5626-10.4035-1.1812-20.6185-3.0065-29.575-8.9429-1.2159-.8059-2.2327-1.8831-1.8066-3.5963,18.9097-2.8651,37.341-7.4816,54.9746-15.018Z"/>
      <path class="cls-10" d="M946.8919,569.6113c-13.2975-9.4358-26.6931-18.7366-39.8694-28.3386-20.1237-14.6646-40.7115-28.7073-60.0886-44.379-8.5672-6.9288-16.7629-14.2804-24.4163-22.2285-1.3788-1.4319-1.8632-3.1421-2.5858-4.8603-.7964-1.8932-.2431-3.3951.9833-4.5157,1.6073-1.4684,2.5653.3884,3.5823,1.2293,9.7619,8.0703,19.735,15.9055,29.1873,24.3251,18.4631,16.446,37.8518,31.7599,56.9861,47.3866,12.3592,10.0936,24.8221,20.0605,37.2386,30.0841l-1.0175,1.2968Z"/>
      <path class="cls-25" d="M178.0598,688.5142c3.1772,3.8815,7.8757,5.3924,12.2217,7.0253,6.2003,2.3292,13.2333,2.0118,19.1596,5.5131-7.2846,3.1631-15.1843,4.023-22.8601,4.6376-6.6657.5337-13.2868,2.6164-20.3219.5979-7.9286-2.2749-14.7117-10.2971-12.9828-18.381,1.5855-7.4135,2.7371-15.0072,5.8441-22.0425,2.9613,10.3523,8.9534,18.1709,18.9395,22.6497Z"/>
      <path class="cls-6" d="M467.4375,443.0039c-6.3422-9.3343-10.169-19.9504-15.2506-29.9267,13.3017,1.9098,26.6807,2.733,40.3398,3.5702-4.6469,1.2804-9.3049,2.5224-13.9379,3.8516-5.1452,1.4762-5.9587,3.8822-2.5533,7.9947,4.4886,5.4205,10.3773,8.0774,17.3971,8.2765,1.64.0465,3.8669-.3149,4.2902,1.6137.3946,1.7978-1.7969,2.466-3.0544,3.5153-5.1264,4.2774-12.2793,6.3739-14.7241,13.559-6.8459-1.4631-10.1063-6.5269-12.5067-12.4543Z"/>
      <path class="cls-3" d="M410.9407,550.7489c5.0328,2.0769,10.0655,4.1539,15.0986,6.2309-10.5094,12.4241-19.8491,25.8974-32.5807,36.3289-4.93-3.6129-11.8459-2.9856-16.2935-7.6295.0459-4.849,4.1509-6.9453,7.0596-9.4703,8.2692-7.1784,16.2633-14.575,23.1572-23.1066.9399-1.1632,2.1662-1.8809,3.5588-2.3533Z"/>
      <path class="cls-22" d="M421.0303,213.8129c5.3831,24.3386,12.6942,47.868,27.3786,68.5358,5.945,8.3674,13.6028,15.0969,20.3029,22.7304-7.8698-2.2641-14.5216-6.8986-21.4383-11.0173-5.0988-8.3096-11.2283-15.9057-15.8237-24.6047-9.9305-18.7981-14.8157-39.079-18.876-59.6735-.238-1.2073.1425-2.0016,1.4239-2.2316,2.9308,1.4291,4.9827,3.8438,7.0325,6.2609Z"/>
      <path class="cls-5" d="M467.4375,443.0039c3.7684,4.5533,7.5643,9.0791,12.5059,12.4549,2.8575.0512,4.3114.8355,2.8746,4.1269-4.9185,11.2671-8.6908,23.0635-15.6044,33.3977-5.9297-1.8391-11.5145-4.327-16.1741-8.5614,7.1163-7.447,8.901-17.3956,12.2812-26.5582,1.7728-4.8055,2.7697-9.8973,4.1169-14.8598Z"/>
      <path class="cls-7" d="M443.6242,500.6069c4.0224,4.4529,10.4021,4.2225,14.9934,7.5464-6.15,12.5717-14.0606,23.9998-22.7059,34.9505-5.5998-.4638-10.7543-2.019-14.8955-6.0618,8.4307-11.5895,17.5618-22.7451,22.608-36.435Z"/>
      <path class="cls-28" d="M193.0295,598.2963c-1.628-1.2766-3.2559-2.553-4.8836-3.8297,8.7422-17.716,19.4186-34.1973,31.7806-49.5879,1.2712-1.5826,2.9801-2.8136,4.4859-4.2078.0123,2.05.0245,4.1001.0368,6.1501.753,2.3938-.9556,3.9055-2.1518,5.4634-10.7548,14.0078-20.3323,28.7438-27.9953,44.6851-.2706.563-.7452.9832-1.2726,1.3267Z"/>
      <path class="cls-14" d="M237.9097,533.2751c-1.5818-1.9234-.7133-4.3289-1.2708-6.4543,12.6696-15.3477,26.3114-29.7412,41.6804-42.439,2.0584,1.4014.9807,3.39.9703,5.1787-.5536.883-.3825,2.0806-1.17,2.847-13.6996,13.3312-27.2691,26.79-40.2099,40.8676Z"/>
      <path class="cls-38" d="M345.8267,443.0906c.0326,1.3612.295,2.7963-1.181,3.6722-1.3762,2.6882-3.5794,4.5311-6.194,5.8957-12.5286,6.539-24.1606,14.5109-35.9086,22.3064-1.9286,1.2798-3.7828,3.5654-6.6492,1.9318-.0916-1.6954-.1831-3.3909-.2757-5.0859,15.7633-11.2727,32.526-20.8004,50.2085-28.7202Z"/>
      <path class="cls-21" d="M802.9728,417.8061c.8857,19.2296-15.9534,38.7878-37.6139,38.6034-21.2891-.1813-37.6512-15.5499-37.6043-38.1204.0444-21.3936,17.3987-38.8994,38.6713-39.0618,20.242-.1545,36.5972,17.11,36.5469,38.5788Z"/>
      <path class="cls-37" d="M364.6955,461.7674c-3.5872-6.7634-4.1379-13.8796-2.4703-21.2536,7.0364-5.0662,14.7399-8.1585,23.5551-7.4384,2.8437.2323,6.1368.701,7.0577,4.0359.9822,3.5568,2.0371,7.7171-1.0791,10.5809-7.7057,7.0813-16.5243,12.3059-27.0634,14.0752Z"/>
      <path class="cls-19" d="M362.2006,598.2822c-12.1809,9.6589-24.3258,19.3633-37.2114,28.093-1.1577.7843-1.9489,2.1094-2.9103,3.1831-11.1424-4.7022-20.6864-11.9652-30.4044-18.9545-20.8148-14.9703-36.5939-34.0497-47.0141-57.5134,11.0045-13.6348,24.6156-24.5909,37.431-36.3616,1.3208-1.2131,2.8391-2.674,4.8983-1.0873,10.3339,20.9238,22.6688,40.4155,39.7241,56.6586,8.7698,8.3523,18.2932,15.5881,28.8465,21.5137,2.3187,1.3018,4.4322,2.9692,6.6402,4.4684Z"/>
      <path class="cls-19" d="M410.9407,550.7489c-7.8453,11.2538-18.3094,19.9423-28.3603,29.0454-1.9679,1.7823-3.6183,3.9152-5.4152,5.8856-11.834-4.4393-22.0577-11.614-31.4812-19.739-20.0205-17.2619-34.8074-38.3983-44.6196-62.9766,4.8162-5.998,11.7776-9.1524,17.9331-13.3333,8.0813-5.489,16.7201-10.1223,24.8087-15.6242,1.6724-1.1376,3.4649-2.5165,5.6861-1.0261,5.9936,11.35,10.9739,23.2023,18.059,34.0172,11.5165,17.5793,25.0368,33.0221,43.3894,43.751Z"/>
      <path class="cls-17" d="M349.4923,472.9807c-11.6258,5.9575-22.2851,13.499-33.3521,20.3714-5.0631,3.144-10.0539,6.4048-15.0766,9.6123-3.4774-8.3415-6.4137-16.7903-5.1701-26.068,6.0015-2.3751,10.7244-6.794,16.1422-10.1035,10.8864-6.6498,21.7416-13.3504,32.6098-20.03-.493,9.129,3.1325,17.4968,4.8468,26.2178Z"/>
      <path class="cls-1" d="M286.9898,515.6416c-5.2701,1.4865-8.5106,5.9519-12.0531,9.3979-8.5994,8.3653-18.2967,15.6365-25.7851,25.1467-1.1083,1.4075-2.2446,3.1065-4.4916,2.9041-2.648-6.4686-5.9573-12.7123-6.7493-19.8145,1.4193-4.286,4.5418-7.3897,7.5964-10.436,11.1928-11.1626,22.5123-22.1981,33.7833-33.2804,2.5659,8.6947,5.1327,17.3885,7.6994,26.0821Z"/>
      <path class="cls-35" d="M182.9317,613.3795c1.2645,2.8859,2.5289,5.7718,3.793,8.6579-6.4585,6.0578-10.6565,13.9591-16.808,20.3719,2.4402-10.5451,6.1051-20.505,13.015-29.0298Z"/>
      <path class="cls-19" d="M304.5591,640.8557c-4.3141,1.0272-7.8589,3.5931-11.687,5.6493-11.3186,6.0792-22.9883,11.4287-35.0206,15.9767-2.0949.7919-4.3413,1.4973-5.8795,3.3469-10.5875-5.8395-19.5871-13.7377-27.9264-22.3226-10.8755-11.1959-20.1045-23.6636-26.9021-37.8103,9.1952-11.9427,19.5608-22.8608,29.7951-33.8881,1.5907-1.714,3.0421-4.0921,6.0608-3.5637,16.1998,30.0332,39.8162,52.7665,68.9308,70.1089,1.0136.6038,1.7587,1.6585,2.6289,2.5029Z"/>
      <path class="cls-33" d="M232.9994,568.244c-11.5761,10.2004-21.0042,22.3786-31.1601,33.8851-1.3453,1.5242-2.1536,3.658-4.6965,3.5661-1.3704-2.4656-2.7415-4.9318-4.113-7.3984,2.7646-11.5395,10.1971-20.6322,16.2552-30.386,4.5577-7.3382,10.0739-14.081,15.1638-21.0892,2.8505,7.1406,5.7006,14.2815,8.5507,21.4225Z"/>
      <path class="cls-32" d="M782.7701,405.0698c.02,5.6832-4.5829,10.4093-10.0084,10.276-5.2742-.1295-9.6909-4.5819-9.8141-9.8935-.1376-5.935,3.9364-9.9702,10.0359-9.9402,5.8629.0288,9.7665,3.841,9.7866,9.5576Z"/>
    </g>
  </g>
</svg>