<?xml version="1.0" encoding="UTF-8"?>
<svg id="Capa_2" xmlns="http://www.w3.org/2000/svg" viewBox="0 0 1046.8519 1037.2454">
  <defs>
    <style>
      .cls-1 {
        fill: #892e27;
      }

      .cls-2 {
        fill: #3a3e43;
      }

      .cls-3 {
        fill: #ef7059;
      }

      .cls-4 {
        fill: none;
        stroke: #2e3b42;
        stroke-linecap: round;
        stroke-miterlimit: 10;
        stroke-width: 18px;
      }

      .cls-5 {
        fill: #565a60;
      }

      .cls-6 {
        fill: #2e3b42;
      }

      .cls-7 {
        fill: #6e939b;
      }

      .cls-8 {
        fill: #b84632;
      }

      .cls-9 {
        fill: #5d2e28;
      }

      .cls-10 {
        fill: #bce1e9;
      }

      .cls-11 {
        fill: #fbfbfd;
      }
    </style>
  </defs>
  <g id="Capa_1-2" data-name="Capa_1">
    <g>
      <path class="cls-4" d="M561.3183,244.6399c32.6997-1.5098,15.0922-64.0273,53.661-101.5291"/>
      <path class="cls-4" d="M473.1815,248.8897c-32.6997-1.5098-15.0922-64.0273-53.661-101.5291"/>
      <path class="cls-6" d="M416.1752,425.1666c4.6261-6.6883,10.6346-12.1265,16.903-18.2015-5.6871-1.5468-9.8104,2.3404-15.2735,2.3444,3.6416-5.9235,8.8242-9.6689,14.3233-12.7478,4.4514-2.4923,3.8476-3.4095.1017-6.2583-23.0119-17.5002-45.796-35.3013-67.8911-53.9614-4.1334-5.6903-10.3673-8.9794-15.6048-13.3904-2.134-1.7972-3.7623-4.5018-6.8125-5.1565l.2054.1663c-2.8911-2.8503-5.6992-5.7489-9.0372-8.1534-5.7148-4.1167-9.0299-9.456-9.9925-16.8567-3.2997-25.3689-7.9504-50.5398-12.0235-75.7959-4.6601-28.8958-9.5894-57.7506-13.6864-86.7321-1.3302-9.4094-5.7043-17.7081-8.5388-26.5587-9.2708-28.9473-16.6047-58.2619-17.7671-88.8018-.11-2.8891-1.6927-7.5312,3.4107-7.8109,4.6771-.2563,5.1828,4.0974,5.6496,7.5103,4.864,35.5603,15.5355,69.5567,27.4714,103.2348,3.6492,10.2963,4.0998,21.2689,5.9471,31.9377,7.7491,44.7524,14.4554,89.6777,22.0842,134.4517.761,4.4663,2.3206,8.1022,5.8974,10.8675,3.9655,3.0658,7.3496,6.8632,11.7677,9.3614,9.8873,6.8413,18.4372,15.2997,27.6669,22.936,19.2537,15.9298,38.3697,32.0263,57.5076,48.0957,2.6697,2.2417,5.1906,2.7139,8.1023.4641,2.3431-1.8105,5.8078-1.9002,7.6981-4.6222-1.4741-1.9689-3.3654-1.08-4.9795-1.1868-1.7719-.1172-3.8343.1003-4.1546-2.1315-.2879-2.0054,1.6062-3.2814,3.1128-3.7393,5.6482-1.7164,11.1998-3.9858,17.5711-3.885-.1315-2.827-2.124-4.4025-3.5006-6.3376-18.4203-25.8949-23.4146-53.7079-10.0818-83.1733,8.246-18.2235,22.8477-30.1735,41.896-36.6354,3.1506-1.0688,7.4925-1.0729,8.0302-5.9172,2.2175-9.1559,2.2468-18.5766,2.977-27.8735,1.4441-18.3863,3.1565-36.7516,4.4336-55.1528,1.8546-26.7214,4.1064-53.4139,6.2352-80.1149,1.5892-19.9325,3.4144-39.8463,4.7328-59.8003.0256-.387.0542-.7954.215-1.1429.7294-1.5764-.214-4.5994,2.5324-4.3878,2.328.1794,2.2603,2.7465,2.4053,4.7068,2.4904,33.6792,5.4205,67.3244,8.0204,100.993,3.1076,40.2413,6.4233,80.471,8.9056,120.7595.2368,3.8433,1.4095,6.4071,5.6751,7.5421,10.7745,2.8669,20.988,7.8551,29.1542,15.4813,11.5386,10.7756,19.9197,23.0167,23.1918,38.7164,3.2774,15.725.5903,31.9243-5.056,46.7809-3.0933,8.1392-7.5187,15.623-13.1225,22.3075-2.0419,2.4358-1.5809,3.2521,1.3272,3.3954,5.0486.2488,9.6783,2.2318,14.511,3.3322,2.8716.6539,3.5506,2.7834,3.5601,4.409.0185,3.1533-2.8694,1.4545-4.5202,1.7397-1.4881.257-3.0243.2348-4.6977.3463,4.5125,5.8318,12.7236,7.3728,17.2755,3.523,30.4802-25.7788,60.9766-51.5383,91.4837-77.2853.5789-.4886,1.3526-.7466,2.0353-1.1122,4.8077-1.6858,6.6598-5.4604,7.4226-10.1652,5.0007-30.8456,10.2634-61.648,15.2922-92.489,3.6222-22.2144,7.5014-44.3863,10.9361-66.6319,1.6124-10.4432,6.1795-19.9853,9.4415-29.9197,7.9988-24.3599,14.9271-48.9758,18.7046-74.3853.5141-3.4581,1.2379-6.8691,1.8347-10.3071.4997-2.8777,2.392-4.478,5.1967-4.608,3.6874-.1709,3.2074,3.0982,3.2068,5.0573-.0035,12.0456-1.4617,23.9783-3.4235,35.8499-4.1989,25.4078-11.9103,49.832-20.7121,73.9527-3.0255,8.2909-3.2209,17.1145-4.5518,25.7063-7.3081,47.1742-15.2816,94.2429-22.3879,141.4473-1.0856,7.211-2.3992,14.0177-8.1027,19.1287-34.3734,29.6745-70.1697,57.5867-106.4527,85.953,7.018,3.6907,13.8068,7.44,18.6902,14.0927-4.9199,1.8904-8.9754-2.8778-14.599-1.3539,6.2418,7.0099,13.001,13.0001,17.8707,20.5301.5774,2.6632,2.1956,1.3001,3.5692.9299,39.736-10.7089,79.9163-19.5005,120.2851-27.4013,48.5394-9.4997,97.237-18.1391,146.3543-24.1356,17.8949-2.1847,35.8358-4.0188,53.896-4.4367,23.0585-.5335,45.7596,1.1762,67.5153,9.6425,23.0617,11.1856,28.9036,34.3288,18.3336,58.5572-7.204,16.5129-19.5931,29.1325-33.5392,40.2478-5.5061,2.1904-9.2992,6.7944-14.0885,10.0182-24.6288,16.5783-51.1586,29.4137-78.7093,40.221-35.7487,14.0232-72.5571,24.044-110.7843,28.4196-46.5828,5.3322-91.5959-.0185-134.9252-18.8391-18.956-8.2337-37.0782-17.8522-54.8548-28.2622-2.3133-1.3548-4.4971-3.06-7.2771-3.468-4.1999-1.2482-1.915.6591-1.0883,2.1176,9.4315,16.6392,21.1243,31.7802,31.6216,47.7129,14.0922,21.3889,28.5465,42.5393,42.8453,63.7921.2233,2.5789,2.2663,1.6995,3.557,1.656,18.0464-.6072,36.0801-1.4943,54.1355-1.9611,13.1857-.3408,26.5325.2939,39.5224-1.7386,14.989-2.3453,26.7345,4.8822,38.9109,10.824,23.5751,11.5042,47.5848,21.9805,72.133,31.1377,20.8867,7.7912,42.2449,14.1053,64.6657,15.9509,4.2352.3486,8.5962-.6166,12.7077,1.1163l-.124-.131c.7665,5.3375-.3463,7.0079-5.666,7.8123-7.3457,1.1108-14.6724.5754-22.0374-.2448-28.3214-3.1539-54.7813-12.5084-80.7453-23.6842-21.2264-9.1365-42.0369-19.1793-63.1033-28.6626-1.6144-.7267-3.1225-1.2808-4.9923-1.1513-19.7308,1.3681-39.4629,2.7519-59.23,3.4868-17.8563.6637-35.7045,1.658-53.5895,1.3322-2.9567-.0538-4.4993-1.498-6.0136-3.7542-24.2463-36.1267-49.8752-71.3577-74.8199-107.0055-.4284.2182-.8567.4366-1.2852.6548.893,2.0803,1.7056,4.1997,2.694,6.2335,2.8378,5.8386,2.0079,11.5543-.3326,17.2929-.9339,2.2896-1.6276,3.2382-2.9943.2217-1.5551-3.4323-3.3583-6.7521-5.4541-10.9165-1.9705,4.3832-.8131,8.195-1.2337,11.8131-.1098.945.1297,2.0584-.9159,2.5672-1.5405.7496-2.1265-.7504-2.5986-1.5714-1.7112-2.9756-3.1981-6.0804-5.3029-9.0713-.4018,3.777-.6472,7.3126.8455,11.1896,5.7686,14.9832,15.9761,27.1894,24.6446,40.3478,16.6053,25.2062,33.2585,50.3793,49.1099,76.071.3737.6055.5744,1.3178.8558,1.9803,1.4926,3.6667,3.3954,7.0731,6.261,9.8686,0,0-.2217-.1671-.2217-.167,12.7643,32.7439,14.2461,74.0648,17.9579,108.7914,1.0153,9.4987,1.9379,19.1305,5.2292,28.0983,2.6432,7.202,6.7399,13.7656,10.8074,20.2703,40.1867,64.2663,80.837,129.124,134.2294,182.9235,1.8186,1.8325,3.7172,3.7588,4.4583,6.2319s-.1409,5.6418-2.5569,6.5518c-2.6003.9794-5.3081-.9831-7.3773-2.8376-53.9956-48.394-93.19-110.7373-131.6551-172.2022-7.8183-12.4932-15.7094-25.139-20.3381-39.1312-4.4672-13.5039-5.7483-27.8155-7.3194-41.9521-2.1283-19.1503-4.8419-38.2355-8.1356-57.22-1.5497-8.9325-3.2451-17.9043-6.5349-26.3523-8.2486-21.1821-24.6512-39.5838-36.9468-58.3404-5.8429-8.913-11.7152-17.807-17.4868-26.766-.6314-.9801-1.0233-2.0136-2.261-2.3309-.2501,8.5044,2.1614,16.6711,3.2661,25.0003,3.0857,23.2659,5.4661,46.5712,6.6361,70.0277,1.3866,27.7994.391,55.517-2.5403,83.1269-3.9675,37.369-11.5885,73.9967-25.5027,109.0558-3.7187,9.3698-8.7099,18.2072-13.9272,26.869-.888,1.4744-2.068,2.847-2.2056,4.6888-5.0532,8.4996-10.5807,16.5637-18.7946,22.4602-11.8303,8.4925-24.4477,7.7559-35.1921-2.309-7.9747-7.4703-13.8826-16.4678-19.027-26.0162-2.2999-7.4825-7.0856-13.7492-10.1019-20.921-12.8765-30.6152-21.0831-62.4491-25.7079-95.2707-4.0948-29.0602-5.9963-58.2683-5.348-87.6027.5959-26.9627,3.1704-53.7748,6.9095-80.4854,1.2844-9.1748,3.4763-18.2307,3.7501-27.543-2.6235-.8702-2.6002,1.8472-3.279,2.8739-15.0317,22.7348-29.8926,45.5825-44.786,68.4087-7.8085,7.4327-10.4242,17.089-12.3967,27.2926-7.3187,37.8606-11.7476,76.135-17.0115,114.2941-1.0034,7.2741-6.696,12.5321-10.1158,18.779-4.2528,7.7685-10.1786,14.5647-13.3815,22.9494-23.5331,39.0066-48.9168,76.7419-77.3695,112.3578-12.6061,15.7798-25.7532,31.0902-40.3982,45.0413-3.9322,3.7458-8.0366,7.3168-12.1582,10.8558-2.9196,2.5069-6.2961,4.7058-9.6376,1.071-3.2765-3.5644-.2996-6.4466,2.13-8.8366,12.8822-12.6726,24.9831-26.0234,36.53-39.9381,14.7009-17.7153,28.3254-36.2084,41.5808-54.9984.8826-1.2513,1.901-2.4068,2.8562-3.607,4.2082-4.1201,7.2609-9.0294,9.7725-14.3082l-.2028.1956c6.175-7.2082,10.8234-15.487,15.9192-23.409,11.7203-18.2205,22.605-36.9732,34.5063-55.0875.9571-1.4569,1.8651-2.9499,2.3907-4.6346l-.1858.1916c6.5358-5.1042,5.7939-12.881,6.6754-19.7433,5.1285-39.9274,10.6289-79.7878,18.2444-119.3335,1.1099-5.7637,4.5559-10.2483,7.6247-14.8867,5.1261-7.7478,9.8729-15.7373,15.1205-23.4024.9936-1.4513,1.9788-2.8758,2.1323-4.6946,15.3862-24.7453,31.9001-48.7409,48.1527-72.9154,6.1858-9.201,11.6854-19.0718,11.3887-32.5267-2.5124,4.5021-4.2237,7.6287-6.0006,10.7176-.5486.9537-1.0565,2.3728-2.3989,2.0685-1.3426-.3043-1.3396-1.717-1.3379-2.9131.0058-3.841.0022-7.682.0022-12.5278-3.742,3.3699-4.3867,7.4343-6.4024,10.6424-.5617.8938.1334,2.6508-1.5698,2.6942-1.8398.047-.9991-1.6537-1.4421-2.5467-3.7089-7.4768-3.0828-14.5126,1.8836-21.2111.2421-.3266.0311-.9892.0311-2.3783-4.0049,3.5118-6.2684,7.4354-8.8096,11.0857-21.9549,31.5369-43.994,63.017-65.0522,95.1673-.4141.6323-.9615,1.1773-1.4467,1.7631-2.6583,2.1462-5.573,2.9452-9.0984,2.9076-31.8703-.3407-63.7469-1.1496-95.4458-4.3527-14.056-1.4204-25.7052,3.3519-37.7134,8.959-28.71,13.4057-57.4474,26.8155-87.9103,35.9125-16.985,5.0723-34.274,8.6978-52.1034,9.0823-3.3309.0718-6.5756-.505-9.8221-1.127-2.5992-.498-4.5246-1.9172-4.214-4.6647.2736-2.4197,2.3241-3.4332,4.7041-3.5021,38.3812-1.1104,72.8936-15.8863,107.5078-30.357,19.5596-8.177,38.7453-17.155,57.7133-26.602,3.1617-1.5748,6.3807-1.724,9.6651-1.4416,15.8793,1.3657,31.8188,1.4889,47.7249,2.1088,17.5412.6836,35.097,1.1922,52.6427,1.8258,4.4517.1608,7.5902-1.1357,9.0551-5.5461l-.2135.2101c3.4297-2.8831,5.3831-6.7893,7.3877-10.6599,9.4815-16.9352,21.5326-32.1868,31.8385-48.5792,10.8106-17.1952,23.8402-32.9446,33.7764-51.8768-4.8423,2.6435-8.9305,4.8753-13.0187,7.1071-7.9284,3.2098-14.9539,8.105-22.4773,12.0763-35.2199,18.5914-72.3001,31.2941-112.1953,34.0761-31.5547,2.2004-62.7609-1.3563-93.5591-8.547-36.8344-8.5999-72.2042-21.3487-106.2359-37.7613-17.3139-8.35-33.8372-18.3012-49.5333-29.3857-14.6058-10.3146-27.6362-22.9156-36.6214-38.5625-6.6881-11.6467-9.6824-24.1041-7.1714-37.6573,2.2605-12.2011,9.7089-20.1141,20.151-25.8055,31.1377-13.0874,63.7098-12.1079,96.3222-9.3293,46.6438,3.974,92.6087,12.5756,138.6064,20.9935,37.3944,6.8435,74.6512,14.314,111.7423,22.607,14.1943,3.1736,28.3575,6.5503,42.3677,10.4877,3.1722.8915,5.3188.6912,6.104-2.9124Z"/>
      <path class="cls-5" d="M546.4535,535.1961c8.2323-11.4884,17.7369-20.6061,22.548-34.1194-3.8765,2.9939-5.5273,6.4183-7.7711,9.3412-6.2335,8.1199-11.546,17.0631-20.3477,22.9039-10.8952,7.23-28.964,5.6137-38.3802-3.5288-7.8796-7.6505-15.9885-15.1404-20.4294-25.536,3.9831,14.9561,13.3847,25.6723,26.2687,33.8846-8.4359-2.7637-17.8336-3.744-23.4089-11.9402-3.5176-5.1713-10.3214-5.2954-14.0597-10.2793-3.8392-5.1185-7.933-9.9907-11.0338-15.6501-1.8043-3.2931-1.8866-5.388,1.7206-7.5647,6.0239-3.635,10.8401-8.8022,15.6682-13.8669,9.9557-10.4434,8.3871-22.9556-4.0433-30.2763-6.8353-4.0256-13.5927-8.3959-21.4873-10.2175-3.9995-.9229-5.1271-2.3371-4.5613-7.1243,3.3249-28.1326,18.0593-49.1868,40.2553-65.2623,18.7559-13.584,52.1109-13.5617,71.2777-.7126,23.346,15.6507,37.2428,37.3409,40.6549,65.4889.5758,4.7501-.835,6.9865-5.8061,8.5465-9.8524,3.0919-18.848,7.9992-26.1169,15.7922-6.267,6.7188-4.8622,16.251.1498,21.6433,5.8064,6.2469,11.4816,12.7504,19.1122,16.9748,2.5071,1.3879,2.9784,2.7396,1.2624,5.4199-3.036,4.7417-5.5473,10.0827-9.7897,13.6522-9.4954,7.9892-17.0569,18.7683-31.6826,22.4311Z"/>
      <path class="cls-10" d="M1021.1283,402.9003c9.9911,8.5251,7.1186,25.5498.8888,35.8134-6.7023,11.042-15.8331,19.9282-25.4117,28.4059-7.8781,8.4759-17.9995,13.8766-27.6927,19.7743-4.1882,2.5482-8.0211,6.2056-13.373,6.5208-18.521-12.2203-37.6136-23.4567-57.6285-33.0618-10.6915-5.1307-21.5201-9.9728-32.4263-14.6385-1.2925-.553-3.3955-.8536-2.9472-2.8926.3241-1.4742,2.0768-1.5041,3.421-1.7368,5.6538-.21,11.3032.0113,16.9478-.1211,30.2888-.7104,60.489-2.4145,90.5411-6.6331,14.6294-2.0536,29.2316-4.1048,43.6555-7.3107,2.0865-.4637,4.191-.8958,5.9353-2.2094.8271-1.1418,1.3468-2.2798.0277-3.4473-9.4884,1.0184-18.5099,4.1656-27.9205,5.3966-17.4734,2.2859-34.9013,4.7523-52.5181,5.971-24.9484,1.7258-49.8804,3.3983-74.9008,3.3064-2.5229-.0093-5.0544.0993-7.5596-.3537-4.4401-1.4249-9.0127-.5951-13.5268-.7863-8.7535-.211-17.5158.4019-26.2605-.353-9.4002-1.7408-18.8879-.4199-28.3267-.8041-9.9631-.0352-19.9254-.0101-29.8856-.0023-6.4308.2941-12.9194-.8121-19.2979.7956-19.0552.4766-38.0524,2.1801-57.097,2.7818-7.0661,1.3252-14.0133,3.1935-21.0326,4.7353-2.1367.4694-8.7312,3.5613-9.4332-.6175,5.4515-1.7076,9.0637-3.1937,11.8542-3.8523,37.5935-8.8726,75.1144-18.1507,113.0706-25.3814,50.5129-9.6229,101.2779-17.6145,152.5319-21.996,23.216-1.9846,46.5599-3.113,69.412,3.3225,6.8371,1.9255,13.881,3.74,18.9528,9.3742Z"/>
      <path class="cls-10" d="M461.4108,462.4892c.2655.3541.5311.7083.7966,1.0624-2.5173,2.5212-5.8599,1.5771-8.8464,2.0661-32.0622,5.2489-64.4195,8.0822-96.7296,11.0434-47.4345,4.3473-94.7435,9.7337-141.9827,15.7276-29.1574,3.6996-57.8713,9.9177-86.2701,17.4926-.9224.2985-1.9287.5179-2.8168.1517-9.8842-4.0748-20.0319-7.5975-28.9872-13.6476.0113-2.1648,1.8018-2.8057,3.231-3.735,26.4633-17.2065,54.2107-31.8914,83.9976-42.518,12.2669-4.3762,24.8485-7.6547,37.6455-10.157,26.6515-.4083,53.3144-.7967,79.9261.054,20.7334.6628,41.4926,1.1589,62.2104,2.3509,7.4163,2.0026,15.0721.5708,22.6204,1.6204,9.2043,1.2798,18.5807,1.309,27.6572,3.6923,1.5308.4019,3.0966.1104,4.6203-.237,15.0403,2.9113,29.5484,7.3605,42.9276,15.0331Z"/>
      <path class="cls-10" d="M584.643,464.7396c.6336-.7491,1.2671-1.4982,1.9007-2.2473,4.9128-4.8429,11.6154-5.8365,17.7229-7.9064,10.7156-3.6319,21.3852-7.5662,32.6864-9.1205.7481.1354.6667,1.421,1.6875,1.2245,19.7742-3.8061,39.7787-4.6043,59.8456-4.5404,1.9663.0062,3.8216-.4492,5.7002-.9284,39.9339-1.8118,79.8851-1.5152,119.8346-1.4126,3.7856.0097,7.1671,1.5934,10.7385,2.3771,32.3196,8.7074,62.4007,22.752,91.4901,39.0219,7.9254,4.4328,16.0221,8.7738,22.7474,15.0946-2.4344,4.2082-7.1404,4.9677-10.9968,6.6389-6.9936,3.0307-13.4126,7.7454-21.4184,8.1791-21.3755-6.7099-43.1982-11.5373-65.2249-15.4714-16.8421-3.0081-33.7291-5.7561-50.6887-8.0641-16.5861-1.5318-33.104-3.6091-49.6364-5.5826-9.0249-1.0774-18.1047-1.8114-27.1607-2.6919-15.216-1.4795-30.4468-2.7866-45.6575-4.3499-13.4746-1.3849-26.9729-2.6532-40.4593-3.9638-14.4488-1.404-28.9036-2.8983-43.2484-5.1891-2.3707-.3785-4.6097-.3379-6.9163.0154-1.1178.008-2.1511-.2179-2.9465-1.0831Z"/>
      <path class="cls-10" d="M653.3257,513.5088c-20.5225-10.7875-39.9484-23.5279-58.4062-37.9734-1.513-1.1841-2.9775-2.4303-4.4645-3.6477.5114-.5199,1.1269-.8392,1.8439-.9642,22.9196,3.7004,46.0329,5.9177,69.1025,8.3407,13.4553,1.4133,26.8937,3.2685,40.4383,3.83,1.9704.0817,3.8482.4585,5.6162,1.3218,22.8943,14.5342,44.353,30.8687,63.0888,50.6096,2.4722,2.6048,4.9083,5.5426,9.1229,5.0661.6277-2.0501-.8034-2.7614-1.6686-3.6564-15.8361-16.382-32.1212-32.2558-51.264-44.861-.6497-.4278-1.288-.8769-1.8737-1.3901-1.0259-.8988-2.3516-1.8441-1.9263-3.337.5721-2.009,2.5284-1.5521,3.9579-1.4279,11.6154,1.0096,23.1872,2.4492,34.7715,3.7533,33.041,3.7196,66.0381,7.7938,98.7474,13.8685,11.8549,2.2016,23.7107,4.4809,35.3095,7.8105,5.0589,1.4522,9.8197,1.9377,14.7364-.4394,2.0414-.987,4.7104-2.3241,5.6643,1.5522-8.1484,4.6405-17.1227,7.2395-25.8875,10.2892-25.1702,8.758-50.9067,15.3034-77.3165,19.0952-39.8187,5.7171-82.022,4.266-120.0088-10.0431-13.639-5.1376-26.8232-11.0899-39.5834-17.7972Z"/>
      <path class="cls-10" d="M18.9077,417.9443c.0655-7.7551,3.9414-13.2795,10.194-17.4124,6.965-5.491,15.4563-7.0882,23.7612-8.6309,19.2102-3.5683,38.5931-3.4045,58.025-1.785,29.0228,2.4188,57.903,5.9494,86.6868,10.3405,30.1622,4.6013,60.0912,10.4355,90.0038,16.4288,27.8193,5.574,55.3791,12.2165,82.969,18.7626,1.8951.4497,9.7716,1.7585,11.4891,2.6941-.0739,4.0316-9.1264,1.8502-10.9698,1.599-4.1936-.5714-8.2412-1.9839-12.4474-2.6195-21.7117-.9754-43.4044-2.1218-65.1289-2.821-16.5084-.5313-33.0556-1.3119-49.4827-.4908-17.8796.8937-35.7674-.084-53.5689,1.1275-11.076.7538-22.1292,1.21-33.16.8129-22.0706-.7947-44.1502-1.5868-66.1222-4.2777-7.8819-.9653-15.8172-1.5484-23.6603-2.8434-11.584-1.8253-23.2104-3.4833-34.6827-5.9377-4.7913-1.0251-10.0639-1.0966-13.9061-4.9469Z"/>
      <path class="cls-5" d="M524.4554,248.6794c9.9434-1.1116,20.0713,1.3785,29.7909,5.5521,18.9389,8.1323,27.0063,24.0721,28.5357,43.2914,1.6019,20.1308-13.6166,35.9292-36.2083,40.0063-4.5098.8139-8.7651.0411-13.1448.0092-8.8989-.065-17.7934.1511-26.7181.7039-14.0157.8681-25.7818-5.8716-34.2751-16.6468-12.8269-16.2731-10.1375-39.5167,4.0859-55.0092,12.958-14.1143,28.8578-18.7521,47.9338-17.9068Z"/>
      <path class="cls-10" d="M454.0536,473.0654c-7.3009,5.6519-14.6018,11.3038-21.9026,16.9557-7.1894,6.5991-15.7659,11.2126-24.0295,16.1558-24.665,14.7546-51.1738,25.192-79.0058,32.2903-21.2792,5.427-42.9566,6.4243-64.7798,5.7479-.9865-.0305-5.7785-1.2476-9.4952-1.3051-.2318-3.1052,9.1168-2.3309,10.7932-2.4557,3.8363-.2856,6.4177-2.3322,8.7973-5.0781,17.2449-19.8999,38.3948-35.0167,60.3704-49.107,5.0818-3.2584,11.0076-2.0536,16.51-2.6932,32.401-3.766,64.8685-6.956,97.2135-11.2202,1.8685-.2463,3.8684-.9259,5.5285.7095Z"/>
      <path class="cls-8" d="M579.2619,642.56c2.6097,16.991,4.7276,34.0376,5.8042,51.2024-.9289,2.6818-3.27,3.7905-5.5872,4.7824-27.9584,11.9686-56.8505,15.4381-86.7573,9.3645-2.4985-.5074-4.912-1.321-6.3607-3.7138-1.8255-5.6094.3351-11.1607.3744-16.7522.0667-9.5025,1.93-18.9194,2.4256-28.4296.0921-1.7681.7108-3.4226,2.0053-4.7339,3.8819-1.9173,7.5606.2249,11.3306.5907,20.5988,1.9988,41.0751,2.8736,60.6661-5.8184,3.391-1.5045,6.5131-3.4456,9.7733-5.1574,1.9236-1.01,3.7683-3.0718,6.3256-1.3346Z"/>
      <path class="cls-8" d="M586.2977,711.5523c.7248,14.6714-.1459,29.3072-1.0402,43.9393-.0794,1.2989-.704,2.5645-1.0755,3.8456-1.6346,2.9234-4.5327,4.1999-7.3714,5.4272-27.4267,11.8575-55.8069,14.2991-84.9933,8.4238-2.0774-.4182-4.2242-.933-5.3218-3.1307-.1998-.5476-.4774-1.0902-.4946-1.6681-.421-14.1154-2.0449-28.1833-1.6792-42.3287.0353-1.3635.3108-2.6947,1.0371-3.8873,2.1432-2.2067,4.7078-1.2448,7.1289-.834,30.557,5.1857,60.3058,2.9071,88.9899-9.4822,1.5256-.6589,3.1124-1.86,4.82-.305Z"/>
      <path class="cls-10" d="M59.4874,474.1486c-10.9468-8.5223-21.757-17.2021-30.1218-28.4435-4.8381-6.5019-8.97-13.3663-9.7422-21.714-.5367-1.1061-.88-2.5456.0586-3.2392,1.3781-1.0184,2.051.5171,2.4007,1.4975,1.2688,3.5571,4.3857,4.0703,7.4422,4.7549,16.9202,3.6096,34.038,5.8705,51.1466,8.3055,21.5583,3.0683,43.2714,3.8857,64.9275,5.4864,10.8591.8026,21.7998.0234,32.6929.2531,1.5237.2103,3.5657.2982,3.7148,2.0573.1453,1.7139-1.8977,2.2748-3.2873,2.8567-10.0244,4.1978-20.0151,8.442-29.852,13.0959-20.4108,9.6564-39.4136,21.7373-58.7481,33.2616-4.1857.9079-6.7324-2.3943-9.7878-4.0873-7.343-4.069-14.8016-8.0558-20.8441-14.0847Z"/>
      <path class="cls-8" d="M568.8447,584.0671c3.4289,11.8359,5.226,23.9969,7.1945,36.1237,1.5995,4.6138-.2255,7.6649-4.1363,10.2164-16.7863,10.9521-35.2605,14.6708-54.972,12.9686-5.5799-.4819-11.2764-.218-16.7042-2.0855-2.1883-.7529-4.5738-1.0206-6.2683-2.8353-1.9784-3.0758-1.108-6.3532-.6825-9.6176.6811-5.2249,1.0439-10.4656-.3591-15.629-.3965-1.459-.9353-3.2334-2.8046-3.3329-1.8563-.0989-2.5344,1.6041-3.1644,2.993-1.7805,3.9255-2.365,8.2068-3.525,12.3184-.7293,2.585-.9413,5.4252-3.3292,7.2667-7.1306.2124-10.0697-2.5422-9.3706-8.7711,1.9001-12.1644,3.7198-24.3445,7.0903-36.221,3.6252-1.8658,6.8408.357,10.0823,1.225,16.9749,4.5458,34.1057,5.466,51.4608,2.8487,7.9491-1.1989,15.4421-3.9176,22.935-6.6712,2.1-.7718,4.1349-2.4849,6.5534-.7972Z"/>
      <path class="cls-8" d="M583.1981,779.1655c-1.4996,14.8358-2.5816,29.7298-6.1745,44.2737-6.15,6.2025-14.3139,8.3124-22.2846,10.505-17.4183,4.7916-35.1378,5.3506-52.9701,2.6721-3.0606-.4597-6.148-.9988-8.5077-3.3319-2.4701-2.9589-1.8368-6.6467-2.3072-10.0578-1.3551-9.8264-1.6223-19.7621-2.8849-29.6009-.2253-1.7555-.0835-3.5049.9098-5.0704,2.6923-2.3749,5.8325-1.649,8.8741-1.163,26.6991,4.2657,52.5954,1.2196,77.8511-8.2524,2.3091-.8661,5.0313-3.4296,7.4939.0257Z"/>
      <path class="cls-7" d="M89.8437,492.332c.0482-2.2475,2.03-2.5659,3.4397-3.4773,27.5279-17.7959,56.2643-33.2534,86.8982-45.0672,2.7263-1.0514.1522-1.0947-.41-1.4807-2.3115-1.5302-4.9172-.8841-7.3769-.8435-41.6007.688-82.8023-3.4467-123.8346-9.9093-6.8235-1.0747-13.4261-3.6618-20.4913-3.1518-13.4897-2.9077-9.3253-8.3956-9.1611-10.4586,15.7424,4.0727,31.8164,6.4182,47.8095,9.1849,9.1091,3.3141,18.7796,3.2567,28.2049,4.2104,29.4692,2.9819,59.0566,4.6624,88.7008,3.4241,28.2702-1.181,56.5595-1.838,84.8522-1.4925,13.4804.1646,26.9635.2388,40.4406.6116,13.3344.3688,26.619,1.7525,39.9515,2.0658,4.911.1154,9.8455.0473,14.7287.6624,2.4264.3056,8.7007.7376,12.4982,1.4255,5.9198-.7432,11.1538,2.1446,16.7372,3.1848,8.3356,1.5529,16.5811,3.5359,24.8356,5.4709,1.0103.2369,1.8689.3911,1.8535,1.6587-1.5702.9184-3.2995,1.3468-5.0515.9695-7.6748-1.6529-15.4855-2.5772-23.2828-3.3564-24.8746-2.4856-49.7029-3.5221-74.6556-4.5721-8.7165-.3668-17.4613-.4551-26.1845-.5211-23.2913-.1869-46.5833.0235-69.8749-.0436-.778-.0022.1941-.0517-.5809.0254-.3361.0334-.3819.3257-.1445.8076-41.6271,9.0236-79.4101,26.9194-115.0303,49.8164-2.5682,1.6508-5.2188,3.1733-7.831,4.7554-2.9943-.1307-5.6083-.9481-7.0406-3.8992Z"/>
      <path class="cls-7" d="M908.376,515.7493c-2.1993-2.1169-6.1177-1.5717-10.4837-2.7385-26.8204-7.1678-54.1778-11.6446-81.6426-15.3514-28.0648-3.7878-56.2065-7.0066-84.3204-10.4268-2.6775-.3257-5.3964-.312-9.2573-.5179,23.3756,15.7009,43.5017,33.5928,61.9388,54.5847-5.9902,1.2738-10.0618.6179-14.0367-3.7281-18.3582-20.0721-40.0177-36.2043-62.5599-51.217-1.151-1.8843-2.9654-2.1698-4.9924-2.3163-16.7824-1.2125-33.5167-3.0181-50.2345-4.8395-20.1624-2.1966-40.3739-4.1123-60.4015-7.4482-.6433.0459-1.2866.0918-1.9304.1376-2.2163-1.7042-4.5065-3.3222-6.6194-5.1455-1.2113-1.0453-.9395-1.9309.8091-2.0029.8442.0086,1.6905.017,2.5369.0255,7.6144-.8266,14.9935,1.3036,22.416,2.2077,16.9419,2.0638,33.925,3.6499,50.8876,5.4694,14.8243,1.5901,29.6593,3.147,44.5081,4.3822,13.8913,1.1554,27.7521,2.62,41.6309,3.8746,11.3175,1.023,22.5927,2.671,33.8964,3.8837,6.8786.7379,13.7284,2.6729,20.7617,1.5123,37.3008,4.9097,74.3137,11.279,110.5081,21.7977,1.9914.5787,6.0484,1.662,9.526,2.4736.0023.8899-12.0922,5.8274-12.9408,5.383Z"/>
      <path class="cls-1" d="M568.8447,584.0671c-10.4877,3.9013-20.7996,8.1167-32.1186,9.5318-19.18,2.3979-37.8178.5869-56.1424-5.3074-.9176-.2952-1.8469-.5537-2.7706-.8295,1.7597-11.6443,5.0312-22.9232,8.0457-34.2759.7598-2.8614,1.5003-2.9596,3.8076-1.9109,16.0256,7.2836,32.8531,8.3116,49.9536,5.6633,5.6625-.8769,11.164-2.9559,16.6457-4.7678,2.6465-.8747,3.7075-.3534,4.6697,2.3317,3.4571,9.6476,5.7021,19.596,7.9093,29.5647Z"/>
      <path class="cls-8" d="M485.9721,882.0692c-4.9502-8.4953-6.4111-18.1778-9.2419-27.3878-1.1311-3.6797-1.7282-7.5237-2.5684-11.2928,3.2376-2.75,4.7651.1737,6.6345,1.9885,2.8802,7.6123,3.5135,15.8651,6.5811,23.4154.9557,2.3523,1.2227,6.3116,4.3913,5.9248,2.7748-.3388,1.8463-4.1924,2.5086-6.4971.8226-2.8624.1865-5.7277-.0734-8.6208-.2993-3.3314-1.5178-6.958,1.6178-9.7859,5.4888-.7844,10.7664.9419,16.1197,1.506,16.681,1.7578,32.7665-.8458,48.6591-5.5371,2.7845-.8221,5.4696-2.0281,8.3406-2.4864,1.2891-.2056,3.1666-1.2537,3.6796,1.2311-3.3523,12.7063-5.878,25.6709-11.7525,37.5886-1.3379,2.0536-3.3264,3.0698-5.5975,3.8535-19.1924,6.6221-38.5698,7.3692-58.1398,1.9099-4.1007-1.1441-8.187-2.4396-11.1589-5.8099Z"/>
      <path class="cls-9" d="M586.2977,711.5523c-25.4103,12.7014-52.601,15.1798-80.3895,13.6385-6.7073-.372-13.3422-2.0503-20.0103-3.1278-6.7682.6841-12.3241-3.0275-18.3487-5.0437-2.1406-1.3302-4.7353-2.0546-6.0739-4.4764.4239-5.8601-1.1297-11.8596,1.2398-17.5824,2.4388-.7932,4.3456.8373,6.4887,1.4075,5.6449,3.3542,12.3235,4.3485,17.9118,7.8312,6.5243,3.4242,13.8838,4.0238,20.8446,4.4798,26.9029,1.7621,52.9675-1.8925,77.1076-14.9171-.0381,5.9614,2.1699,11.767,1.2299,17.7905Z"/>
      <path class="cls-9" d="M583.1981,779.1655c-6.7603-.206-12.1794,3.9883-18.4077,5.6446-22.5318,5.9915-45.1732,8.3596-68.2789,3.9935-2.2596-.427-4.6393-.218-6.9632-.3042-7.0696-.1854-13.3399-3.1767-19.7692-5.6145-2.4405-.9405-4.6952-2.1152-5.7684-4.7259-2.6775-5.7387-.9306-11.8094-1.3297-17.7191,2.505-.9109,4.3382.8882,6.4501,1.5799,5.7421,3.2401,12.623,3.8699,18.039,7.855,14.8937,5.0875,30.3746,5.5491,45.7229,4.2978,17.9557-1.4637,35.314-6.0192,51.2892-14.8357-.5343,6.5996,1.0839,13.3057-.984,19.8287Z"/>
      <path class="cls-9" d="M470.723,623.6827c-.2098,6.4641,5.0109,6.8485,9.2846,8.2932,5.0657.9034,9.8559,2.5008,14.0573,5.5812,10.2317,4.3777,21.1989,4.7943,31.9467,4.6297,16.2882-.2491,31.8465-3.9694,45.6448-13.4624,3.2956-2.2673,4.9946-4.6165,4.3825-8.5335,1.0753,7.4563,2.1502,14.9126,3.2241,22.369-7.1798,3.2311-13.6221,7.8813-21.2045,10.394-19.2336,6.3737-38.7789,5.7778-58.4533,3.145-2.6617-.3563-5.2704-1.1084-7.9037-1.6772-6.3906.5537-11.6681-2.7072-17.2271-5.0079-2.3432-1.4749-5.1319-2.2738-6.9748-4.524,1.0745-7.069,2.1489-14.138,3.2234-21.207Z"/>
      <path class="cls-9" d="M572.6207,844.5272c-6.1534-.2111-11.2902,3.2697-17.0002,4.6981-20.0368,5.0123-40.1472,5.7433-60.3972,1.4948-5.9428,1.1048-10.7579-1.2208-15.1064-4.9659-1.9044-.9901-3.3955-3.0213-5.9545-2.3648-2.0318-6.914-3.4103-13.9638-4.4157-21.0917,2.8652-.7957,4.5634,1.5804,6.8067,2.484,5.4489,3.4237,11.8581,4.7243,17.4282,7.8764,13.4467,4.7015,27.2949,4.2185,41.1798,3.1549,14.8326-1.1361,28.6407-5.7721,41.8627-12.3736-.8494,7.1582-2.3617,14.1782-4.4033,21.0878Z"/>
      <path class="cls-5" d="M514.3628,229.7506c3.0186-52.2296,5.9948-103.7272,8.971-155.2248.3201.0073.6401.0146.9602.0219.0837,1.5035.2732,3.0097.2354,4.5101-.5731,22.7195,2.0489,45.3179,2.6099,68.0064.5353,21.6539,2.8485,43.2618,3.3742,64.9515.1118,4.6157,1.252,9.1909,1.1086,13.8804-.0715,2.3355-.2972,3.3426-3.1797,3.0722-4.4067-.4133-8.913-.6294-14.0795.7822Z"/>
      <path class="cls-8" d="M553.6489,900.7403c-5.9373,13.5571-13.3313,26.035-25.1638,35.461-3.9111,3.1157-7.0476,2.8601-10.7735-.2162-9.9267-8.1965-16.5312-18.7965-22.3778-29.9969-.711-1.3622-1.4394-2.7154-2.1597-4.0727,2.1587-1.6729,4.4776-.7194,6.6909-.2874,16.3531,3.1922,32.6312,3.3969,48.8294-.9782,1.6396-.4428,3.3292-1.2759,4.9545.0904Z"/>
      <path class="cls-9" d="M553.6489,900.7403c-20.0286,7.0943-40.214,6.1279-60.4758,1.1752-2.441-6.601-6.7888-12.5102-7.2011-19.847,10.3391,4.6541,21.2265,7.1951,32.4998,7.7148,14.6731.6764,28.8351-1.9539,42.3961-7.6685-.7218,6.862-4.1984,12.6553-7.219,18.6254Z"/>
      <path class="cls-8" d="M467.4996,644.8897c2.6285.451,4.9563,1.5013,6.8422,3.4326,2.8394,1.62,2.2691,4.2348,1.8609,6.7133-2.0484,12.4371-3.6843,24.9274-5.0011,37.4615-.2066,1.9662-.5594,3.8803-2.6869,4.7811-2.2327-.024-3.9204-1.4118-5.8-2.3178-.1148-13.9407,2.2736-27.6527,3.7892-41.4442.3162-2.8773.663-5.7511.9957-8.6265Z"/>
      <path class="cls-8" d="M468.4348,762.7697c-2.2281-.0117-3.8535-1.5116-5.7543-2.3301-2.3768-15.9157-1.3043-31.9185-1.2053-47.8968,1.8872,1.2747,4.8299.8121,5.8321,3.5433,2.9059,1.6051,2.9647,4.3672,2.6348,7.0867-1.4241,11.7397-.9362,23.4944-.4601,35.2528.0629,1.553.1716,3.1054-1.0472,4.3441Z"/>
      <path class="cls-8" d="M475.5946,825.7522c-1.9496-1.1513-3.8993-2.3026-5.8484-3.4542-2.2375-12.7301-4.3189-25.4824-5.3983-38.3746-.1606-1.9183-.2293-3.8443-.3389-5.7656,1.9404,1.1728,3.8793,2.3444,5.8181,3.5161,1.9146,1.0937,2.4186,2.9201,2.5391,4.9317.6632,11.0632,3.114,21.8785,4.5222,32.8376.2805,2.1835,1.3463,4.666-1.2937,6.3091Z"/>
      <path class="cls-3" d="M468.5146,697.2783c1.1379-7.8045,2.5997-15.5794,3.3181-23.4223.6536-7.134,1.9476-14.1326,3.2864-21.133.3284-1.7173-.0158-3.0238-.7779-4.4012,5.7868,2.033,11.5732,4.0654,17.3598,6.0989-1.1278,10.4691-2.7026,20.9154-3.214,31.4135-.2994,6.1472-1.3453,12.2172-1.3718,18.3658-6.7334-.8741-12.8561-3.3896-18.6007-6.9217Z"/>
      <path class="cls-3" d="M468.4348,762.7697c-1.6772-13.1093-1.7444-26.2174-.1257-39.3438.3053-2.4753.5211-5.0584-1.0019-7.3402,6.1969,1.9922,12.3938,3.984,18.5906,5.9765-.4424,15.9609,2.0455,31.843,1.2718,47.8121-6.6588-1.2764-12.8547-3.7743-18.7349-7.1047Z"/>
      <path class="cls-3" d="M494.0649,637.557c-4.9854-1.1043-9.9054-2.3735-14.0565-5.5812,1.5496-5.7957,3.0851-11.5955,4.6563-17.3855.8806-3.2451,2.2209-7.6824,5.4769-7.371,4.0123.3839,4.6682,5.1692,5.088,8.8696.8177,7.2072-1.0054,14.2976-1.1646,21.4681Z"/>
      <path class="cls-3" d="M475.5946,825.7522c-.1471-10.4552-2.7452-20.5965-4.1886-30.8776-.6171-4.3958.4891-9.0085-1.5797-13.2019,6.5742,2.2761,13.1477,4.5511,19.7215,6.8264,1.3276,14.7358,1.9976,29.5373,4.4344,44.1601-6.6845-.8256-12.6604-3.5354-18.3876-6.907Z"/>
      <path class="cls-10" d="M260.4412,542.956c-17.6966.2374-34.9407-3.2443-52.0434-7.0572-27.3882-6.1059-54.1175-14.4762-79.9073-25.6649.4846-.255,1.1781-.8609,1.4243-.7145,10.9333,6.5009,21.4738.9224,32.0756-1.081,24.0044-4.5361,48.1075-8.3329,72.4051-10.9619,27.1953-2.9426,54.357-6.1978,81.529-9.3539,1.3111-.1523,2.5809-.6604,5.5827-1.4577-6.936,5.0863-12.6022,9.0661-18.0792,13.2912-15.3037,11.8059-28.9723,25.3362-41.6516,39.8925-.7929.9102-1.4077,1.8485-1.3352,3.1074Z"/>
      <path class="cls-3" d="M480.1169,845.7542c5.0353,1.6546,10.0706,3.3092,15.1061,4.9648-.1922,7.2544,2.0873,14.4836.1157,21.7673-.6057,2.2374-.7819,5.0749-3.4031,5.431-2.3983.3257-3.3188-2.2971-4.1809-4.186-4.0639-8.9042-5.9022-18.4295-7.6379-27.977Z"/>
      <path class="cls-10" d="M656.3432,441.2018c-1.6841,2.5202-7.2278,3.7587-12.4671,2.7853,4.1556-.9284,8.3113-1.8569,12.4671-2.7853Z"/>
      <ellipse class="cls-2" cx="476.5424" cy="402.4469" rx="11.7383" ry="9.4516" transform="translate(-79.1869 685.6802) rotate(-67.1877)"/>
      <ellipse class="cls-2" cx="494.6019" cy="379.5716" rx="7.8885" ry="6.3518" transform="translate(-115.8708 506.1763) rotate(-49.22)"/>
      <path class="cls-6" d="M500.3363,277.9437c0,17.6951-14.3403,32.0357-32.0237,32.0357-8.7188,0-16.6196-3.483-22.3932-9.1397-.0117-6.2178.8298-12.5992,2.7815-19.2142,4.2424-14.4225,12.5407-26.4724,23.5736-35.4483,15.8133,1.94,28.0618,15.4275,28.0618,31.7666Z"/>
      <circle class="cls-11" cx="472.7224" cy="262.424" r="6.5782"/>
      <path class="cls-6" d="M600.0543,302.2832c-5.5399,4.605-12.6811,7.3748-20.4415,7.3748-17.6948,0-32.0354-14.3406-32.0354-32.0354,0-15.0771,10.4018-27.7111,24.4268-31.124,17.8469,12.8797,27.232,33.7654,28.0501,55.7847Z"/>
      <circle class="cls-11" cx="567.2158" cy="259.5045" r="6.5782"/>
      <path class="cls-7" d="M454.0536,473.0654c-26.4683,3.8783-53.0459,6.8161-79.6632,9.4559-11.5794,1.1484-23.1211,2.6238-34.7253,3.6095-5.5059.4677-9.6494,4.8484-14.0189,7.9222-18.6057,13.0887-37.1746,26.3626-51.4661,44.3728-3.6529,4.6034-8.6583,2.1911-12.4775,4.5079-.5841.4721-1.1134.4169-1.5888-.163-.8144-2.9943,1.3831-4.7514,2.9674-6.5685,15.6273-17.9243,33.0089-33.8951,52.369-46.7873-23.5216,3.173-47.6261,6.0445-71.7776,8.5796-28.625,3.0047-57.1569,6.7381-85.2867,13.0033-9.8577,2.1955-19.642,5.3841-29.4391-.1028-.9166-.1277-1.8648-.2231-1.6918-1.544,4.2338-3.5518,9.7163-3.5018,14.6534-4.726,34.0535-8.4443,68.5744-14.2061,103.4851-17.827,25.6326-2.6586,51.1742-6.1894,76.8013-8.9073,22.3698-2.3725,44.8259-3.9268,67.2003-6.2601,20.8212-2.1713,41.6708-4.173,62.362-7.4868,3.4266-.5488,6.9628-.412,10.4493-.592,2.1685.3487,2.0379,1.3779.6388,2.5277-2.8915,2.3763-5.8567,4.6627-8.7917,6.9861Z"/>
      <path class="cls-7" d="M959.2144,492.6505c-1.8885,1.8054-9.4215,5.8661-12.1753,6.0195-8.7103-3.8118-14.0922-12.0807-22.3802-16.6346-27.2078-14.9498-55.0828-28.2981-85.062-36.8241-1.0782-.3066-2.0815-.8764-3.1197-1.3235-4.5963-2.0207-9.3359-3.1157-14.426-3.1002-40.1824.1223-119.3795,1.9468-119.2684,2.6291-11.318.6412-22.6554,1.5672-33.9962,1.5672-5.4657.4384-10.9518.902-16.3779,1.672-5.0318.7141-20.6773.909-25.7529.8485-.3287-.6318,8.4168-1.7103,9.1393-1.8709,5.9144-1.3145,29.1839-5.412,32.1633-5.9155,10.9342-1.848,21.9403-3.2848,32.9915-4.2129,21.6077-1.8147,43.365-1.5321,65.0269-2.423,24.3765-1.0026,49.2859.1356,73.7287.887,5.2995.1629,10.5982.3503,15.8959.5625,29.9783,1.2004,59.7963-.5136,89.6406-2.8971,25.6703-2.0501,51.186-4.8706,76.1444-11.5212,1.4971-.3989,3.0596-.6513,4.5001.307-.0476,1.575-.0953,3.15-.1429,4.725-5.7143,3.1975-12.2284,3.5641-18.4166,4.7169-26.0853,4.8594-52.4024,7.9757-78.8847,9.8716-19.7498,1.414-39.5027,1.7901-59.2823,1.7011-1.5358-.0069-3.1296-.2002-4.4782.8423-3.2443,1.1798-.6871,1.299.3111,1.713,15.2344,6.3187,30.2338,13.1505,44.8904,20.7171,14.6664,7.5716,48.904,26.2203,49.3311,27.9433Z"/>
    </g>
  </g>
</svg>