<?xml version="1.0" encoding="UTF-8"?>
<svg id="Capa_2" xmlns="http://www.w3.org/2000/svg" viewBox="0 0 1006.2866 619.3955">
  <defs>
    <style>
      .cls-1 {
        fill: #fe827e;
      }

      .cls-2 {
        fill: #fff;
      }

      .cls-3 {
        fill: #fdfcf8;
      }

      .cls-4 {
        fill: #e06565;
      }

      .cls-5 {
        fill: #fe827f;
      }

      .cls-6 {
        fill: #2e3b42;
      }

      .cls-7 {
        fill: #c6c6c6;
      }

      .cls-8 {
        fill: #dddbd5;
      }
    </style>
  </defs>
  <g id="Capa_1-2" data-name="Capa_1">
    <g>
      <g>
        <g>
          <path class="cls-6" d="M393.6791,525.6385c-28.66,0-57.3227.2391-85.9791-.0796-20.9188-.2327-38.6281-7.9076-51.686-24.8005-1.3803-1.7856-3.0753-2.2919-5.0245-2.8129-28.0911-7.5082-54.7871-18.1702-77.2018-37.1848-5.7261-4.8575-10.9714-5.3926-17.5951-4.2837-16.5998,2.779-33.2234,5.3858-49.0241,11.5085-7.3438,2.8457-14.3882,6.2611-19.7155,12.3214-4.7174,5.3665-4.7461,8.6594.1655,13.8628,8.209,8.6967,18.815,13.6225,29.6217,18.0743,26.6877,10.994,54.8018,16.3144,83.1528,20.6892,44.0015,6.7898,88.3372,10.0574,132.7053,13.2541,31.7017,2.2841,63.5162,4.3628,94.4011,12.8311,19.2065,5.2663,37.1353,12.9304,50.7316,28.3055,2.984,3.3744,6.0009,6.7636,7.7064,10.9867,2.4092,5.9661,1.4849,11.5165-3.0365,16.1611-4.3504,4.4691-10.1605,6.4322-15.5476,3.6095-36.2308-18.9836-75.4328-17.2644-114.3798-16.6827-41.137.6145-82.2421,3.1285-123.4142,1.406-44.0853-1.8445-87.744-6.2144-129.7322-20.9005-23.8663-8.3477-46.6767-18.8182-66.15-35.35-16.4405-13.9571-28.5988-30.9262-32.4333-52.495-4.5635-25.6689,3.7191-48.0928,20.1296-67.5995,16.5152-19.6311,38.6946-30.639,62.3459-39.0522,13.9797-4.9728,28.3024-8.8092,42.8137-11.8542,3.7645-.79,5.0187-2.0258,4.7766-6.1182-3.1731-53.6295,8.0974-104.1146,35.1359-150.5448,42.5168-73.0095,105.9908-115.7214,189.6036-128.049,42.6454-6.2875,84.7555-1.5501,126.4736,7.879,22.8972,5.1752,45.7258,10.658,68.5468,16.1619,3.8945.9393,5.322.9028,4.9856-3.9971-1.6046-23.3727,2.205-45.7443,16.166-65.0986,26.2052-36.3289,69.8855-53.2149,109.5153-42.7026,11.3264,3.0045,22.0532,7.5668,31.7602,14.2355,1.9908,1.3677,3.6119,1.5506,5.9375.804,36.7358-11.7925,76.599,10.39,86.3585,47.7749,4.4625,17.0941,3.3277,34.0128-.7968,50.9034-.6015,2.4631-.7637,3.7357,2.25,4.6131,41.449,12.0682,75.8315,35.9235,107.3024,64.6035,23.1763,21.121,43.674,44.8983,66.1972,66.6663,5.7502,5.5574,11.5133,11.1036,17.1648,16.7604,8.8418,8.85,10.6636,18.1371,5.5618,29.6377-8.5325,19.2342-23.1161,33.2034-40.1327,44.812-24.5897,16.775-52.4302,24.9129-81.3775,30.0521-26.6683,4.7347-53.6241,5.812-80.6011,6.6448-3.3399.1031-5.9839,1.0063-8.6067,3.1037-9.4948,7.5928-19.099,15.054-28.808,22.3707-2.5344,1.9101-3.0613,3.6932-2.1712,6.7091,2.1731,7.3635,4.4393,14.6447,8.3707,21.3119,5.2162,8.8457,12.7057,13.9222,23.1539,14.1215,12.6037.2404,25.0142,1.4933,36.1893,7.981,18.4858,10.7323,30.1372,26.078,30.8909,48.1082.4542,13.2751-6.9007,20.5282-20.0826,20.6038-16.8295.0964-33.6964-.5843-50.4814.3077-32.3013,1.7163-64.6019.3513-96.8941.9779-15.0978.293-28.9206-3.7392-41.731-11.6559-14.7483-9.1142-29.0301-18.9007-42.8165-29.4026-2.0438-1.5568-3.7278-2.0475-6.2923-1.2051-32.0319,10.5217-64.9704,15.8816-98.638,16.7641-3.5833.094-4.8409.4688-4.1235,4.6207,2.2029,12.7474-4.3181,20.2697-17.1601,20.289-29.4936.0443-58.9872.014-88.4808.014v.0272Z"/>
          <path class="cls-3" d="M425.0023,430.6653c12.3153-22.8562,17.1513-47.3008,16.3216-73.1671-1.7132-53.4102-45.5522-100.9145-98.6351-106.6939-7.9942-.8704-15.959-.8786-23.9448-.7355-9.1654.1642-15.3921,6.1617-15.2425,14.3813.1441,7.9151,6.4791,13.716,15.4245,13.5656,11.012-.1851,22.0897-.7824,32.7407,2.5175,31.6515,9.8065,51.692,31.0342,58.8225,63.2638,6.4149,28.9954,2.0291,56.7156-14.5753,81.8139-8.3902,12.6823-20.0768,21.5757-34.0791,27.5702-11.0014,4.7099-12.9953,17.3579-3.9887,23.948,2.8072,2.054,5.9862,2.6844,9.4224,2.6735,17.3291-.0553,34.6585-.0693,51.9877-.0328,12.2547.0259,24.2688,1.5963,35.7048,6.2605,5.6524,2.3052,10.2376,5.9004,13.0548,11.4393-1.2243,1.2317-2.442.7814-3.5275.7825-51.1535.0514-102.3071.0232-153.4604.1354-15.9123.035-28.953-5.1687-37.8573-19.0197-3.0569-4.7551-7.9647-6.8306-13.3395-8.0366-17.3241-3.8874-33.7788-10.0524-49.3692-18.6106-30.9659-16.9981-47.5013-43.6427-51.1436-78.178-5.1551-48.8792,5.4224-94.8877,28.9681-137.6575,31.7745-57.7169,79.5979-95.8616,143.552-112.6295,36.0683-9.4567,72.833-9.9565,109.6527-4.7613,40.8126,5.7585,80.4093,17.1116,120.4156,26.574,2.1767.5148,3.3351,1.757,4.374,3.6278,23.6503,42.588,61.838,60.3854,108.5814,63.5577,6.4402.4371,12.0165-1.0704,15.2794-7.1743,3.3032-6.1793,1.9417-11.8927-2.2739-17.1533.3093-2.4798,2.5444-2.8998,4.2287-3.7386,13.271-6.6085,25.8017-14.3835,37.5983-23.3665,1.4356-1.0932,2.7857-3.1505,5.1709-1.7725,2.6898,8.0364,8.6285,12.0485,16.1536,10.913,6.941-1.0473,11.0898-6.5677,11.1488-14.8765.0166-2.3323-.1017-4.6666-.0516-6.9976.1679-7.816-1.8179-7.3802,7.5629-6.7174,35.2455,2.4898,65.7277,17.0344,93.9973,37.1753,28.3968,20.2314,52.5351,45.075,76.2083,70.4118,7.0558,7.5517,14.2322,14.9732,21.8282,21.9799,1.0647.9821,2.4062,1.664,3.6196,2.485-.2988.5337-.5977,1.0674-.8965,1.6011-4.2271,0-8.4549-.0449-12.6813.0094-8.6777.1115-14.4888,5.6695-14.4938,13.7975-.005,8.1134,5.7655,13.9261,14.2623,14.1841,4.5776.139,9.1626.0248,14.9812.0248-6.3781,7.3811-12.5991,12.9797-19.6589,17.655-20.5745,13.6251-43.7822,19.9016-67.6937,24.2206-25.9909,4.6946-52.3057,5.5865-78.5964,6.8185-4.1484.1944-8.2768.818-12.4145,1.2432-6.3641.4485-12.4285-1.4156-18.568-2.5402-15.9231-2.9168-31.1972-8.1275-46.3677-13.6359-3.4339-1.2468-6.7647-2.1924-9.7929.6769-2.9603,2.805-2.5946,6.374-1.6489,9.805,2.2445,8.1429,7.233,14.5744,13.6118,19.826,6.0449,4.9766,12.6789,9.1348,20.0001,12.1002,1.2491.506,3.1082.6748,2.8117,2.8306-14.3232,11.6522-29.6895,21.852-45.5002,33.1508-.2277-4.2519-.4161-7.6665-.5925-11.0816-.4621-8.9531-6.0963-14.615-14.4619-14.5259-7.8807.0838-13.7145,6.1593-13.4705,14.8531.52,18.5337,1.8194,37.0191,9.9736,54.1236,8.9282,18.7283,22.8487,30.3024,44.6174,30.665,7.6878.1281,15.002,2.2565,21.3576,6.8606-.5643,1.6713-1.7464,1.1516-2.6105,1.1547-18.9929.0682-37.9859.1053-56.9789.1262-8.5049.0093-16.5555-1.8878-23.8445-6.33-24.1194-14.6994-46.9743-31.0857-65.9437-52.2189-15.5432-17.3162-23.2702-37.3968-19.737-61.0697,1.2092-8.1019-2.0109-13.8759-8.3532-16.2838-5.564-2.1124-11.9478-.1875-15.6011,4.7054-1.9724,2.6415-2.4589,5.7349-2.8996,8.9038-2.6899,19.3413.3861,37.8126,8.2054,55.5932.6728,4.2976-2.9105,3.8986-5.1909,4.2955-8.6806,1.5113-17.4976,1.8366-26.2666,2.5805-17.9143,1.5197-35.8443,1.035-53.784.6457-16.8406-.3654-33.3684-3.2958-49.9767-5.6084-1.6783-.2337-2.9475-.8265-2.1266-2.9134Z"/>
          <path class="cls-1" d="M734.8654,160.0488c-5.5874,3.8437-11.1878,7.6687-16.7593,11.5352-9.5823,6.6499-19.9668,11.8965-30.2374,17.3442-4.0972-3.5-8.9811-3.5681-14.0688-3.7636-31.0523-1.1929-57.5046-12.533-76.5314-37.6503-31.1664-41.1429-10.5495-101.2521,38.922-116.3811,40.7004-12.4467,78.4462,12.4088,90.763,47.3279,5.6961,16.1486,6.4088,32.8852,7.1231,49.6635.4528,10.6333.5384,21.2823.7888,31.9242Z"/>
          <path class="cls-5" d="M374.9084,574.9238c-2.1113.2174-4.2207.6027-6.3343.6275-40.8055.4803-81.6075,2.6311-122.4172,1.0503-43.4735-1.6839-86.7594-5.2488-128.7443-17.7279-23.9196-7.1096-46.8193-16.5198-66.123-32.9389-9.3994-7.9948-17.0937-17.4301-20.9047-29.3415-6.6886-20.9051-.3513-38.7556,14.1556-54.0754,13.7474-14.5177,31.3605-22.8633,49.8892-29.3816,12.4081-4.3651,25.1447-7.6331,37.9515-10.658,3.4797-.8219,4.6772.1029,5.65,3.2542,2.0631,6.6831,4.5575,13.2612,7.9624,19.3692,2.3247,4.1702.5655,4.9653-3.1289,5.4967-17.5259,2.521-34.6703,6.5572-50.9344,13.7349-9.6838,4.2735-18.4012,9.9957-25.6393,17.8511-12.4861,13.5512-13.2896,29.8258-2.1562,44.4677,9.1088,11.9791,21.121,20.0582,34.6044,26.3326,27.7591,12.9173,57.2369,19.4084,87.2702,24.1623,34.5597,5.4704,69.3395,8.8053,104.1928,11.4603,22.2386,1.6941,44.5155,2.884,66.7739,4.3199,5.9789.3857,11.9533.8441,17.9297,1.2692.0008.2424.0016.4848.0024.7273Z"/>
          <path class="cls-8" d="M425.0023,430.6653c.3407.5287.6432,1.49,1.0275,1.5238,16.2365,1.4309,32.2448,5.284,48.5533,5.5063,21.4597.2926,42.949,1.1532,64.3852-1.5251,6.69-.8358,13.4832-1.0123,20.1749-2.1332,1.6216-.2716,2.9296-.4959,3.2038-2.3719,4.9672,9.4214,10.4396,18.5231,17.6161,26.4539,2.6152,2.89.2946,3.081-1.6397,3.647-18.0924,5.295-36.5924,8.4537-55.3399,10.0337-11.2568.9486-22.5682,1.2461-33.8535,1.8634-1.8512.1013-3.5198.1067-5.0925-1.2898-16.2707-14.4462-36.1206-19.0744-57.0646-20.4468-5.5645-.3646-11.1731-.0552-16.991-.654,5.5638-6.7636,10.4908-13.5414,15.0204-20.6076Z"/>
          <path class="cls-8" d="M809.5619,497.1771c-6.4958.0035-12.9918-.0167-19.4874.016-1.9065.0096-3.4777-.124-4.4739-2.2471-8.1741-17.4189-23.9036-24.7102-40.9203-30.0924-5.3885-1.7043-11.0237-2.4986-16.6752-2.9879-8.2226-.7118-14.5118-4.3736-18.3743-11.891-1.2148-2.3644-1.4508-3.9721,1.201-5.7361,8.0318-5.3425,15.9489-10.8693,23.7268-16.5751,2.8622-2.0998,3.4611-.778,4.3056,1.6885,2.103,6.1419,4.3892,12.2191,7.3916,17.9986,9.534,18.3532,24.6514,27.7958,45.3054,28.4159,5.1575.1548,10.3597-.0721,15.4636.5332,11.4265,1.355,18.5657,8.9056,24.5463,17.8998,1.7691,2.6605.3048,3.0102-2.0222,2.9922-6.662-.0516-13.3246-.0182-19.987-.0147Z"/>
          <path class="cls-8" d="M748.1869,383.0389c-8.7191-3.645-17.1041-8.0095-24.1751-14.2777-6.8341-6.0584-12.651-12.989-14.0725-22.6341-.556-3.7721-.0238-6.909,2.996-9.3037,2.8917-2.2932,5.9603-2.0873,9.3745-.8256,19.2282,7.1056,38.6788,13.4335,59.1273,16.1129,2.2771.2983,4.4711,1.2285,6.7038,1.8657-12.0804,5.5163-21.0649,15.289-31.5755,22.9635-2.7899,2.0371-5.5854,4.0663-8.3784,6.099Z"/>
          <path class="cls-7" d="M781.0889,88.6104c.175,7.7746-1.2697,14.6204-2.1758,21.5151-.4814,3.6626-2.2041,5.9736-6.4232,4.1686-.2971-.1271-.6482-.1367-.9771-.18-10.5862-1.394-10.4237-1.4081-11.3842-12.1544-1.4926-16.7006-5.6537-32.6787-13.8885-47.4162-1.451-2.5968-3.3833-4.9206-4.9476-7.4602-.5701-.9253-1.5288-1.9964-.8272-3.2123.7237-1.2542,2.0716-.8479,3.1683-.7088,19.1147,2.4248,30.5493,13.4404,35.4768,31.4788,1.3099,4.7952,2.5839,9.6544,1.9785,13.9694Z"/>
          <path class="cls-6" d="M851.0739,236.2671c.0828,14.2101-11.0939,25.7129-25.0485,25.7795-14.0946.0672-25.7575-11.521-25.866-25.7006-.1079-14.0953,11.1796-25.6933,25.1022-25.7928,14.0897-.1007,25.7295,11.4947,25.8123,25.7139Z"/>
        </g>
        <circle class="cls-2" cx="841.4874" cy="221.1865" r="9.587"/>
        <circle class="cls-2" cx="847.0558" cy="240.4659" r="5.5684"/>
      </g>
      <path class="cls-4" d="M685.2845,175.6708c-20.4901,3.5751-36.9301-9.7264-47.4783-18.2609-10.7102-8.6656-26.4213-21.3773-28.174-42.7826-1.7229-21.0422,11.2255-36.0462,13.0435-38.087,2.8025-3.1459,13.1698-14.4264,30.7826-16.6956,2.006-.2584,24.3131-2.8048,38.087,11.4783,10.8363,11.2368,10.6132,14.419,21.913,43.5976,6.9904,18.0504,5.346,26.5396,3.6522,35.185-2.6178,13.3612-18.2411,23.1949-31.826,25.5652Z"/>
    </g>
  </g>
</svg>