<?xml version="1.0" encoding="UTF-8"?>
<svg id="Capa_2" xmlns="http://www.w3.org/2000/svg" viewBox="0 0 1246.2163 1275.1699">
  <defs>
    <style>
      .cls-1 {
        fill: #70569b;
      }

      .cls-2 {
        fill: #5f488c;
      }

      .cls-3 {
        fill: #9570c2;
      }

      .cls-4 {
        fill: #b29ad8;
      }

      .cls-5 {
        fill: #604593;
      }

      .cls-6 {
        fill: #47327c;
      }

      .cls-7 {
        fill: #a486ce;
      }

      .cls-8 {
        fill: #735aaf;
      }

      .cls-9 {
        fill: #8566b2;
      }
    </style>
  </defs>
  <g id="Capa_1-2" data-name="Capa_1">
    <g>
      <g>
        <g>
          <path class="cls-3" d="M696.5657,1271.1626c-4.4873,0-8.9238-.6482-13.1875-1.9263-8.6641-2.5752-16.0547-7.5732-21.3613-14.4507l-.0928-.1208c-.1445-.1787-.2871-.3635-.4297-.5569l-.3115-.4041v-.0295c-.0039-.0044-.0068-.0085-.0098-.0129-8.1621-12.011-12.5752-25.624-13.9189-42.8826l-.0127-.1968c-.9609-12.5798-.1484-25.6453.6367-38.2834.1338-2.1382.2666-4.2771.3906-6.4146.8438-14.137,1.4375-29.1187-1.2891-43.2996-.041-.1609-.0801-.3274-.1143-.4946-1.8262-7.5032-3.5928-16.8899-5.4619-26.8257-1.0723-5.6978-2.1787-11.5774-3.3936-17.6528l-.0049-.0049-.2344-1.1702c-5.042-25.1189-12.5889-56.6313-26.3105-77.5291-10.5371-16.0647-23.1865-23.873-38.6719-23.873l-.2246.0005c-4.3447.3728-8.793.562-13.2246.562-5.7432,0-11.6455-.3176-17.543-.9441-.1123-.0085-.2676-.0237-.4287-.0457-.3252-.0322-.6514-.0725-.9756-.113-26.2188-2.968-54.4775-12.0947-86.3428-27.896-.5039-.2432-1.0439-.5132-1.584-.7837l-1.0762-.5356-.1211-.071c-1.0664-.6226-2.1367-1.1636-3.1924-1.6125h-.1621l-.6816-.3394c-2.585-.9958-5.2061-1.5007-7.791-1.5007-2.1074,0-4.2705.335-6.4355.9956l-.459.1489c-10.1719,3.2981-19.5127,13.502-25.6543,20.8901-3.1387,3.7834-6.0742,7.6194-8.9121,11.3291-2.0635,2.6973-4.0146,5.2478-5.8828,7.5635-14.1973,20.7385-26.8662,43.5896-39.1191,65.6899l-2.2344,4.0298c-11.918,21.481-22.8105,40.7937-35.4355,59.6177-11.8525,17.679-23.6475,32.439-36.0518,45.1143-7.6445,10.5911-17.626,18.647-28.8838,23.3066-7.1631,2.9636-14.873,4.5298-22.2949,4.5298-6.3193,0-12.2812-1.0803-17.7197-3.2117-13.0078-5.0972-20.9951-15.3625-21.915-28.1638l-.0098-.1909c-.6816-10.1982,3.0791-21.219,11.1768-32.7581l.0938-.1335.1045-.1255c8.1191-9.7708,18.7812-16.7192,29.0928-23.4392l1.8232-1.1897c16.5-11.5801,43.1211-33.6367,68.4307-60.8684,26.0098-27.9993,58.2939-69.7493,64.3838-109.6367,2.7725-18.0947-.2119-34.2732-8.8701-48.095-5.7119-5.8398-10.0508-10.8928-14.0078-15.5723l-.8643-1.0254c-4.4375-5.27-7.6436-9.0779-10.8496-11.2017-2.1875-1.4609-4.3311-2.1262-7.1553-2.2207l-.666-.0027-.0234-.0076c-6.4863.0044-16.5869,3.0303-30.7646,7.9158-.5557.2666-1.0986.5476-1.6416.8352-.5303.2793-1.0498.5518-1.5508.843-.7803.4363-1.4707.8469-2.1514,1.2668-4.1426,2.5325-8.2627,5.6653-12.6104,9.5854-.6035.5505-1.2158,1.1169-1.8203,1.6755l-.1533.1414c-.6855.6299-1.3359,1.2607-1.9775,1.8835-.1113.1204-.2266.2341-.3467.3408-.7715.7354-1.5059,1.4707-2.2236,2.1882-8.707,8.5417-13.2998,15.2737-16.9893,20.6829-4.6396,6.8027-8.3047,12.1758-16.6865,14.8936-.2227.0771-.5234.1667-.8252.2554l-.3193.095c-3.4678,1.0227-6.8809,1.5354-10.1846,1.5354-5.21,0-10.0752-1.2412-14.46-3.6887-5.1611-2.8496-9.3516-7.2297-12.1016-12.658-5.6387-11.0767-4.0684-23.8694,4.0049-32.5842,4.0498-4.3623,9.4902-7.5483,16.1758-9.4749,8.7832-3.4736,14.4229-3.5879,19.4023-3.6887,3.6162-.0732,6.7432-.1362,11.0146-1.3835,6.1484-2.2312,13.1387-6.6833,19.6963-12.5469,9.9307-8.8843,17.9395-20.1025,22.0137-30.8245l.0186-.0947.1631-.3906c2.4707-6.7102,3.3604-13.0166,2.6465-18.7473l-.0342-.2209c-.3721-2.8174-1.167-5.531-2.3623-8.0657l-.1006-.2136-.0752-.2241c-1.8555-5.5498-3.2646-11.6252-4.7559-18.0574-5.2705-22.7378-10.249-44.2146-33.4043-44.2146-1.1455,0-2.3438.0525-3.5635.156-36.1113,4.6121-74.6611,14.6895-111.4912,29.1448-40.6328,15.6816-63.7246,50.1689-79.3037,78.4629-5.0479,9.1543-11.541,11.0759-16.0986,11.0762-7.9355.001-16.5801-5.8308-23.1221-15.5991-5.0479-7.5474-11.6865-19.0417-11.0723-31.6943.4736-9.8201,5.1934-19.8042,14.4268-30.5215,40.2188-46.6184,106.6416-60.7163,160.0137-72.0442,2.4707-.5254,5.0781-1.0574,7.7861-1.6104,25.6113-5.2278,60.6875-12.3875,73.4326-33.0854,5.4629-8.8716,6.4199-19.428,2.9258-32.2722-10.6221-39.0347-48.9863-42.8384-89.6035-46.8655-22.2646-2.2075-45.2822-4.4897-63.1523-13.2017-26.7266-7.3853-38.915-28.1619-36.8066-44.0466,1.6133-12.1582,11.9854-25.1499,36.2559-25.1499,2.9082,0,5.9844.1929,9.1436.5732l.2275.0273.2236.0532c14.4258,3.4441,26.3652,12.2981,37.9121,20.8608,2.8174,2.0896,5.7314,4.2502,8.6025,6.269,17.1328,12.0671,36.2461,21.2705,56.8115,27.3555l2.0615.6531c10.7695,3.4231,25.5205,8.1113,37.957,8.1113,13.9092,0,21.3779-5.7583,23.5059-18.1216l.0586-.3386.1143-.324c3.8652-10.8711,8.6748-24.4006,7.3203-37.2786-3.249-30.7073-32.7432-51.9001-58.7656-70.5984-4.6982-3.3757-9.1357-6.5645-13.3027-9.7297-6.3877-4.8533-14.3369-10.8931-17.8672-19.9102-2.1572-5.5283-1.9092-12.2444.6465-17.5312,2.0576-4.2546,5.4688-7.2981,9.6084-8.5701,1.4834-.4541,3.042-.6838,4.6377-.6838,4.5352,0,9.2734,1.8289,13.3428,5.1499,3.6523,2.9812,6.3604,6.655,8.9795,10.2078.5361.7271,1.0713,1.4534,1.6133,2.1711,20.959,27.802,56.2568,45.071,92.1221,45.071,2.9229,0,5.874-.1147,8.7686-.3408,2.2021-.1743,4.5059-.418,6.3037-1.29,12.5312-6.075,14.3867-34.0288,13.5078-49.5886-1.001-17.8167-5.9082-36.8943-15.4443-60.0396-13.668-33.1963-33.6572-66.5996-62.9062-105.1233-1.666-2.1934-3.3438-4.417-5.0342-6.6587-13.0186-17.2615-26.4814-35.1106-42.0781-48.9026-1.71-1.51-3.5146-3.0288-5.2598-4.4976-6.5088-5.479-13.2393-11.1445-18.0186-18.665-6.6611-10.4478-7.0176-23.2915-.9521-34.3525,6.0596-11.0474,17.3818-17.9099,29.5498-17.9099,1.7715,0,3.5742.1428,5.3594.4248,27.9521,4.8362,40.5186,32.5759,50.6162,54.8647l.168.3718.0566.1572c6.3418,17.8044,40.0713,67.4185,80.1748,112.8982,48.7217,55.2542,89.7168,85.6841,115.4326,85.6841,17.1631,0,27.2852-13.9783,30.9414-42.7332,1.8975-14.9116-1.8037-30.427-5.3828-45.4314-1.0449-4.3774-2.124-8.9038-3.0459-13.3384-.1924-.925-.4463-2.0552-.7363-3.3477-2.8789-12.8235-8.2383-36.6926.502-47.6855,2.8965-3.6426,7.126-5.5857,12.2324-5.6187l.124-.0005c4.0518,0,7.9336,1.1719,11.5254,2.4385,2.1426.7417,4.418,1.6184,6.3564,3.3508,1.8926,1.6934,2.9951,3.792,3.7451,5.4316,2.3027,5.0669,3.2617,10.4592,3.7822,14.0754,2.1182,14.8469.8682,29.8184-.3398,44.2969-.3887,4.6545-.79,9.4675-1.0674,14.1604-.7461,12.771-1.5918,27.2488,3.1221,39.55,3.6865,9.6316,11.9434,15.7305,22.6523,16.7341,4.7568.4426,8.8574.658,12.5332.658,24.9814,0,27.7441-8.1555,28.707-43.0388l.0039-.1475.0146-.1467c.1289-1.2671.2529-2.697.3887-4.2495,1.4316-16.4795,4.0977-47.1541,26.1533-47.1541.9395,0,1.9121.0605,2.8916.1804,8.8604,1.0894,16.5156,7.9043,18.6182,16.573,2.4023,9.9492-2.209,18.7239-6.6689,27.2097-1.9961,3.7981-3.8838,7.3892-5.1455,11.0312-4.2539,18.8413-3.1709,32.4556,3.2227,40.4661,4.4141,5.531,11.4551,8.3354,20.9277,8.3354,19.8428,0,48.1191-12.8633,67.2686-30.5945,47.166-47.9304,63.3389-114.8835,78.9824-179.6365,6.3232-26.1699,12.8604-53.229,21.3457-78.4355,3.3955-20.3892,19.1963-36.3113,36.1016-36.3113,6.5605,0,16.2627,2.4084,25.2295,13.8828l.0918.1233c23.082,32.0037-4.0439,79.6289-21.9941,111.1436-2.5205,4.4255-4.9033,8.6089-6.9434,12.3831-5.8408,13.2327-13.9492,29.0222-23.333,47.2957-33.6641,65.5557-79.5137,154.8362-57.833,203.7034,45.4131-17.5359,57.8438-34.47,63.5615-47.3477,3.0713-6.9092,4.5342-13.9001,5.9482-20.6606,1.2725-6.0862,2.5889-12.3796,5.0615-18.4622,3.6084-8.9038,9.1104-15.9648,17.3125-22.218l.4473-.3411.5234-.2046c2.3555-.9202,4.8604-1.3867,7.4473-1.3867,6.8242,0,13.8115,3.2876,18.6904,8.7944,4.501,5.0798,6.5713,11.2407,5.8301,17.3477-1.2344,10.3225-8.8467,17.8584-15.5625,24.5068-1.0293,1.0186-2.0508,2.03-3.042,3.043-9.0283,9.2065-16.4736,20.3098-23.6738,31.0476-8.3838,12.5022-17.0527,25.4299-28.4609,35.9019l-.0898.0823-.0947.0769c-7.9316,6.4377-12.8477,12.2422-15.0293,17.7458l-.0801.1938c-2.4873,6.4399-1.3115,12.7744,3.9248,21.1682,1.3584,2.1831,3.041,4.5828,5.1455,7.3391,2.2393,2.9475,4.7227,6.0122,7.3506,9.2566,1.3379,1.6292,2.6855,3.293,4.0605,5.0029,6.6084,6.0513,14.8271,9.6333,24.4336,10.647,1.9014.2024,3.874.3047,5.8682.3047,13.7402,0,29.3789-4.7927,44.0352-13.4954,8.0557-4.7896,15.3525-10.5139,21.1377-16.5776l.0137-.0273.3232-.3438c1.584-2.0066,2.8486-3.8853,4.0723-5.7034,3.0273-4.4973,5.8887-8.7473,11.9531-12.0503,4.1084-2.7141,8.7148-4.1477,13.334-4.1477.2285,0,.457.0034.6855.0105,7.1172.2092,13.543,3.811,17.2236,9.647.0908.1294.1748.2651.2539.4077,2.5742,4.3218,3.5137,9.5144,2.7148,15.0251,0,0-.043.321-.0605.4275-.3643,2.3271-1.0479,4.7292-2.0273,7.1184l-.0527.1279-.0615.1243c-2.7725,5.6235-6.7188,7.5417-18.4307,13.2361-1.6592.8071-3.4932,1.6987-5.5244,2.6975-11.8975,5.8418-15.8955,8.1365-18.2842,9.5076-2.0059,1.1516-2.9219,1.6772-6.0205,2.8745-9.5938,3.6904-15.8486,4.5693-21.8975,5.4192-6.293.884-12.2373,1.7192-22.124,5.79-.835.406-1.7471.8367-2.7139,1.2932-2.7617,1.3032-5.8799,2.7747-8.8838,4.4753l-.3359.1931c-5.2139,2.981-8.6094,5.9053-10.0908,8.6921-.6279,1.1846-.9062,2.3438-.8428,3.5247,8.3789,17.0708,28.2266,25.3706,60.6445,25.3706,9.7207,0,20.5059-.7332,32.9648-2.2412.1328-.0247.2666-.043.4014-.0552,16.3594-1.9856,32.9551-5.0063,47.5986-7.6721l5.7324-1.0413c15.168-2.7395,28.4941-5.0242,37.9854-5.2332l.0439-.0002c15.79-1.3149,30.8672-5.511,46.0879-12.8252l.3672-.1768.0332-.0083c9.9863-4.8323,19.7793-10.8677,29.9541-18.4556l.5332-.4009c11.0459-8.3022,22.1338-18.1174,34.8926-30.8889.2871-.28.5283-.5234.7705-.7683l.5723-.5742.2041-.1572c6.8154-5.2612,13.96-8.2195,21.2344-8.7927.8496-.0679,1.7129-.1025,2.5615-.1025,13.0254,0,24.6611,8.2012,29.6426,20.8933,3.2939,8.3823,3.3604,18.0479.1875,27.2148-.8564,2.5244-1.9932,5.0811-3.3691,7.5752l-.0566.0981c-11.002,18.6707-32.8955,27.6797-48.4717,32.8335-17.6816,7.3586-37.6689,14.4614-62.8838,22.3472,0,0-.1533.0471-.1719.0527-20.9404,6.5459-42.8691,12.7993-64.0762,18.8469-11.7334,3.3462-23.8672,6.8062-35.5996,10.2505-.0527.0156-.1084.0315-.166.0469-28.4648,8.3586-49.3193,15.1177-67.5488,21.8936l-.1602.0964c-6.0391,3.6067-11.1582,6.9182-15.7295,10.1729l-.2188.1587c-8.3926,6.0063-14.6504,11.6423-18.5947,16.7466l-.0645.082c-.1074.137-.2158.2732-.3164.4104-3.6641,4.8948-5.0693,9.0925-4.1973,12.5061.4121,1.6001,1.3193,3.1042,2.7598,4.5642h.1172l.708.7229c3.3145,1.6179,6.8115,2.9541,10.4053,3.9766l.0869.0173.2031.0652c5.374,1.5234,11.001,2.3882,16.7246,2.5701.8721.0315,1.7275.0469,2.582.0469,3.8262,0,7.709-.3091,11.541-.9192,2.7363-.4368,5.4932-1.042,8.2002-1.7998,4.9844-2.6306,10.6279-4.0188,16.3535-4.0188.3877,0,.7744.0063,1.1602.0188l.126.0027c7.7559.2917,15.0986,3.1519,19.8037,7.6843l.0293.0144.4873.4988c4.8936,5.0215,6.1934,11.3689,3.5645,17.4148-1.8926,4.3369-5.7256,8.3259-11.3965,11.863l-.1748.1311-.4668.2339-.0928.0393c-1.2539.5359-2.5586.9619-3.8789,1.2673-.0889.0227-.5449.1316-.5449.1316-2.2705.4993-4.7178.7419-7.4814.7419-3.4053,0-7.2598-.3792-11.7744-1.1584h-.1387l-.457-.1062c-5.5674-.9829-11.4785-2.4456-17.1953-3.8604-3.3379-.8257-6.7861-1.6792-10.123-2.4268l-.2939-.0632c-8.001-1.7861-13.7432-2.5825-18.6191-2.5825-2.624,0-4.9902.2485-7.0332.7385l-.4775.1155c-3.1348.8254-5.6074,2.2622-7.5381,4.3796-13.0615,23.7812,9.8008,51.762,23.7891,63.2849.6455.5471,1.2812,1.0559,1.9873,1.593.2959.2288.5615.4353.8262.624,10.5381,7.7605,29.0059,16.4436,45.6875,23.9194,9.0625,4.0642,18.7334,8.2605,28.9736,12.7034,25.3408,10.9951,54.0635,23.4578,79.5146,36.6772.1338.0664.2988.1538.4775.2544,39.9961,20.825,63.5947,39.1135,74.1797,57.5039l.0879.0898.2588.5193c6.7773,12.0667,7.6885,24.1331,2.708,35.8645l-.2334.5493-.3828.4575c-6.584,7.8628-14.3789,11.8501-23.1689,11.8513-22.168.0032-48.1133-25.3745-78.1553-54.759l-.9062-.886c-23.6406-23.1123-50.4355-49.3086-79.9111-68.406-28.5713-18.5168-55.2383-27.5181-81.5264-27.5181-3.8525,0-7.751.199-11.5859.5916l-.1006.009c-8.5957.6624-10.6377.8198-14.1768,8.2898-.4912,1.0366-1.9844,4.1875-25.2568,38.322-6.7188,9.8557-12.749,18.6152-15.7441,22.9595-2.1309,3.0891-3.9004,5.6472-5.1406,7.4331-.3877.5586-.7285,1.0496-1.0342,1.4812.4648,2.5286,1.2168,5.147,2.2432,7.8057,2.7734,7.1333,7.666,14.9468,14.9561,23.8772l.0576.0691c4.4502,5.4419,9.1143,10.5347,13.625,15.4597l2.541,2.7793.1357.1895c5.9697,8.3076,13.1602,15.5823,22.1211,23.9495l.2539.2378.0176.0225c1.5068,1.4089,3.0195,2.8096,4.5303,4.2078,9.9385,9.2009,20.2119,18.7126,27.8848,29.8479l.8857,1.2942v.0159c6.2295,9.397,10.0078,19.0537,11.5371,29.4812l.0479.2732.0049.3987c0,.1362-.0029.2725-.0127.4089-.0498,3.7844-.4824,7.3962-1.2871,10.7473v1.1538l-.4229.4312c-2.0957,7.3135-6.1064,13.2041-11.6504,17.0959-.1357.1082-.2783.2078-.4258.2983-4.7109,3.1704-10.377,4.8455-16.3984,4.8455-6.1641,0-12.4795-1.7427-18.2646-5.0393-8.583-4.8813-15.5352-12.9858-19.5801-22.824-3.2764-7.3235-8.834-15.7256-14.7158-24.6199-6.8223-10.3149-13.877-20.981-17.4736-30.4097-5.6582-14.8528-27.0527-39.26-42.0234-44.8325-1.749-.647-3.3477-.9629-4.8789-.9629-4.6836,0-8.7695,3.1594-13.9424,7.1594-2.3838,1.8425-5.082,3.9292-8.1133,5.8923-7.3682,5.1545-15.6006,9.9744-25.1631,14.7332-6.3447,3.1638-13.1963,6.2769-22.2129,10.0928-4.1514,1.7627-8.3232,3.489-12.4922,5.2134-5.7988,2.3992-11.793,4.8787-17.6074,7.4138-1.1016.7627-2.0996,2.0149-2.9688,3.7271-2.6963,5.2798-4.0264,14.2917-3.957,26.793l.0029.3945c.2256,29.8423,8.877,80.2148,23.168,134.8435,7.6318,29.1445,15.6787,54.6292,20.502,64.9243l.0566.1218.1406.3608c2.7246,7.0051,5.541,14.2441,7.4678,21.6858l.248.4646.0029.5127c3.0205,12.2117,2.8271,22.0886-.6035,31.0471-1.3887,3.6687-3.2979,7.0535-5.6709,10.0466-4.3057,5.4802-10.2139,9.7209-17.0752,12.2505-4.8945,1.8201-10.1172,2.7449-15.5098,2.7449Z"/>
          <path class="cls-4" d="M884.2781,8.0146c7.5144,0,15.2817,3.6533,22.0718,12.3433,24.6799,34.2197-12.77,88.8096-29.29,119.4199-27.71,62.8696-112.5701,194.4497-79.6599,257.6396.0298.0503.0598.1104.0898.1704,45.46-16.9702,61.8601-34.1704,69.23-50.77,6.0701-13.6504,6.04-26.8901,11.0601-39.2402,2.9099-7.1802,7.53-14.0601,16.03-20.54,1.947-.7607,3.969-1.1118,5.9883-1.1118,10.9849,0,21.9102,10.3833,20.5417,21.6519-1.24,10.3701-10.1899,17.77-17.49,25.23-19.79,20.1802-31.1501,47.6802-51.98,66.8003-8.76,7.1099-13.8701,13.4297-16.2302,19.3799-.0298.0601-.0498.1099-.0698.1699-3.3301,8.5601-1,16.3901,4.24,24.79,1.55,2.4897,3.3601,5.0298,5.3601,7.6499,2.2798,3,4.7998,6.1099,7.45,9.3799,1.3799,1.6802,2.78,3.4102,4.21,5.1899,7.7,7.1504,17,10.8403,26.95,11.8901,2.0713.2202,4.1714.3267,6.2896.3267,15.4719,0,31.9631-5.6738,46.0806-14.0566,8.6099-5.1201,16.3398-11.2397,22.4199-17.71.01-.02.03-.0498.05-.0698,5.78-7.2803,7.48-12.8701,15.05-16.9302,3.6453-2.4458,7.5537-3.5786,11.2673-3.5786.1882,0,.3755.0029.5625.0088,5.79.1699,11.05,3.0698,14.04,7.9097.03.0303.05.0703.0701.1104,2.01,3.3296,2.95,7.5796,2.24,12.48-.02.1196-.03.2397-.05.3599-.3101,1.98-.8901,4.0698-1.78,6.2397-2.49,5.0503-6.49,6.4204-22.1301,14.1104-21.73,10.6699-17.6899,9.8101-23.98,12.2397-19.0798,7.3403-24.1699,3.0103-44.22,11.29-3.3,1.6099-7.8799,3.6201-12.23,6.1099-.02,0-.03.0103-.05.0303-4.8799,2.79-9.46,6.1899-11.6399,10.29-1.0601,2-1.55,4.1699-1.22,6.5098,10.1716,21.6567,35.3115,28.2739,64.5588,28.2739,10.8352,0,22.228-.9072,33.6411-2.2939.03-.0098.0701-.02.1101-.02,18.6599-2.2598,37.3499-5.8096,53.6599-8.7598,15.1699-2.7402,28.27-4.9702,37.3601-5.1699h.1299c17.1799-1.4102,32.98-6.1699,47.6499-13.2202.04-.0098.0801-.0298.1201-.0498,11.0801-5.3301,21.51-11.9502,31.4299-19.3901q.01,0,.01-.0098c12.52-9.4102,24.21-20.1401,35.3201-31.2603.3899-.3799.77-.77,1.1599-1.1602,6.49-5.0098,13.01-7.4897,19.1001-7.9697.7561-.0605,1.5056-.0898,2.2476-.0898,11.7866-.0005,21.6504,7.4927,25.9124,18.3496,2.79,7.1001,3.1799,15.6304.1301,24.4399-.78,2.3003-1.8101,4.6304-3.0901,6.9502-9.6699,16.4102-28.3401,25.1401-46.4199,31.1099-19.47,8.1104-40.6799,15.4004-62.6799,22.2803-.04.0098-.0901.0298-.1301.04-32.53,10.1699-66.78,19.4399-99.6499,29.0898-.03.0103-.0701.02-.1101.0298-23.8398,7-46.95,14.2104-68.1699,22.1104-.02.0098-.03.0098-.05.02-.1799.1099-.3601.21-.55.3301-3.9199,2.3398-9.8101,5.9497-15.9199,10.2998-.0701.0498-.1499.1099-.22.1602-7.1401,5.1099-14.55,11.23-19.4402,17.5601-.1499.1899-.2998.3799-.4399.5698-3.99,5.3301-6.1499,10.7798-4.8499,15.8701.6799,2.6396,2.2898,5.1899,5.0698,7.5796.01,0,.01.0103.02.0103,3.79,1.8999,7.76,3.4302,11.8401,4.5801.05.0098.0898.0298.1399.04,5.75,1.6299,11.7102,2.5298,17.6902,2.7197.9038.0327,1.8083.0488,2.7126.0488,4.0789,0,8.1565-.3301,12.1672-.9688,3.0701-.4897,6.1101-1.1699,9.0801-2.02,4.8076-2.6221,9.9622-3.749,14.8425-3.749.3677,0,.7332.0063,1.0974.019h.04c7.1799.27,13.6799,2.96,17.5601,6.9502.0098.0098.02.0298.04.04,3.4897,3.5796,4.8599,8.1899,2.7598,13.02-1.47,3.3696-4.6399,6.8398-9.97,10.1396-.02.0103-.0398.0303-.0598.04-1.03.4399-2.1201.8003-3.2603,1.0601-.1499.04-.2998.0698-.45.1099-2.0503.4507-4.27.6489-6.623.6489-3.5452,0-7.3938-.4492-11.427-1.1587-.0498,0-.0999-.02-.1599-.0303-8.6599-1.5195-18.1599-4.2397-27.3298-6.2896-.0601-.0103-.1301-.0303-.1902-.04-6.8486-1.5288-13.5085-2.6792-19.4927-2.6792-2.8232,0-5.4958.2559-7.9673.8491-.02,0-.04.0098-.0601.0098-4.0598.98-7.5698,2.8804-10.3098,6.0503-13.8601,24.5098,6.3699,53.75,24.5298,68.71.6602.5601,1.3601,1.1201,2.1101,1.6899.3101.2397.6199.48.9299.6997,9.8301,7.2402,26.4202,15.3701,46.3701,24.3101,32.1299,14.4102,72.97,30.9399,108.28,49.2803.1399.0698.27.1401.4099.2197,33.2,17.2803,61.46,36.1704,72.8701,56.4204.0098.0098.02.0298.0298.0498,5.9001,10.46,7.29,21.2798,2.5601,32.4199-6.0698,7.2485-12.7725,10.4165-20.0964,10.4165-20.3318,0-45.4763-24.3936-75.3535-53.6167-24.0901-23.5498-51.25-50.23-81.4399-69.7896-25.7129-16.665-53.6255-28.1611-83.7053-28.1626-3.9624,0-7.9568.1992-11.9946.6123-9.3401.7202-13.0701,1.2402-17.4902,10.5703-2.9199,6.1597-47.6799,70.9399-47.7698,70.9399.48,3.4399,1.4199,6.8496,2.72,10.2197,3.3899,8.7202,9.2,17.1401,15.5999,24.98.01.02.03.04.05.0601,5.3401,6.5303,11.0701,12.6602,16.1499,18.23,6.5103,9.0601,14.4902,16.9302,22.6401,24.54.03.04.0601.0698.0901.0898,11.6299,10.8804,23.6099,21.25,32.21,33.8301,0,.0103.01.02.02.0303,5.71,8.3599,9.9299,17.6997,11.5598,28.8101,0,.0298.0103.0596.0103.0898,0,.0698,0,.1401-.0103.21-.0398,3.8599-.5,7.3398-1.2898,10.46,0,.0103-.01.0103-.01.02-1.8901,7.3599-5.6899,12.6499-10.52,15.98-.02.0298-.05.0498-.0801.0601-4.1792,2.8511-9.1238,4.2437-14.2805,4.2437-5.4055,0-11.0439-1.5298-16.2795-4.5137-7.3499-4.1802-13.9099-11.23-17.8799-20.9199-7.3401-16.4502-25.71-38.0503-32.1301-54.8799-5.97-15.6704-28.1699-41.1304-44.3699-47.1602-2.2754-.8418-4.3435-1.2144-6.2761-1.2144-8.6506,0-14.5916,7.4648-24.2939,13.7344-7.8699,5.5098-16.1699,10.2197-24.71,14.4697-7.2,3.5903-14.5701,6.8501-21.99,9.9902-10.1499,4.3101-20.3999,8.3901-30.45,12.7798-1.8501,1.1602-3.3901,3.0103-4.6301,5.4502-3.1499,6.1699-4.46,16.1602-4.3899,28.6299-.01.02,0,.04,0,.0601.2,35.6602,11.6199,91.52,23.3,136.1699,7.9399,30.3203,16,55.4702,20.75,65.6104,2.75,7.0698,5.6399,14.4697,7.5298,21.9199,0,.0098.0103.02.0103.0298,2.4897,9.8398,3.2397,19.7603-.3401,29.1099-1.28,3.3804-3,6.3804-5.0701,8.9902-4.03,5.1299-9.3799,8.79-15.3201,10.98-4.4761,1.6646-9.2878,2.4976-14.1238,2.4976-4.0554,0-8.1272-.5854-12.0361-1.7578-7.47-2.2197-14.3401-6.5796-19.3401-13.0596v-.0103c-.26-.3101-.5-.6299-.73-.96-8.6099-12.6699-12.0898-26.5098-13.21-40.8999v-.04c-1.1199-14.4199.1501-29.3999,1.02-44.3101.9001-15.1001,1.3899-30.1201-1.3801-44.4199-.0398-.1499-.0798-.3101-.1099-.4702-2.8799-11.8101-5.55-28.0698-9.0701-45.5498,0-.0103,0-.02-.01-.0303-5.52-27.5-13.1399-58-26.8899-78.9399-10.1301-15.4443-23.6006-25.6792-42.0212-25.6807-.0906,0-.1782.0005-.2688.001h-.1301c-4.3596.3789-8.71.5615-13.0479.5615-5.7314,0-11.4412-.3184-17.1221-.9219-.1199-.0098-.25-.02-.3699-.0396-.3201-.0303-.6401-.0703-.9602-.1104-29.5898-3.3501-58.3599-14.27-85.0598-27.5098-.8501-.4102-1.6902-.8403-2.54-1.2603-1.49-.8696-2.97-1.5898-4.4299-2.1597-.01,0-.02-.0103-.03-.0103-3.2102-1.2588-6.3411-1.8296-9.3889-1.8301-2.7625,0-5.4565.4692-8.0811,1.3203-.02,0-.04.0098-.05.02-10.27,3.3296-19.47,12.48-27.5,22.1396-5.55,6.6899-10.54,13.6304-14.9299,19.0601-15.1902,22.1699-28.3301,46.1802-41.6401,70.1699-11.1799,20.1504-22.49,40.29-35.26,59.3301-10.6599,15.8999-22.3298,31.0303-35.8,44.7603-7.77,10.8599-17.4099,18.0801-27.3398,22.1899-6.9495,2.875-14.0483,4.2251-20.762,4.2251-5.8257,0-11.3613-1.0161-16.2581-2.9351-10.8201-4.2402-18.53-12.8901-19.3801-24.7202v-.04c-.6099-8.5898,2.4001-18.8501,10.45-30.3198,8.2102-9.8799,19.3201-16.8398,30.0801-23.8701,17.28-12.1201,43.97-34.3999,69.1201-61.46,30.99-33.3599,59.6399-73.9702,65.4099-111.7598,2.77-18.0801.29-35.52-9.6699-51.2002-5.98-6.0898-10.4402-11.3198-14.1101-15.6602-5.0999-6.0498-8.6499-10.3896-12.5601-12.98-2.7397-1.8301-5.6499-2.79-9.3999-2.8896-.0066,0-.0134-.0044-.02-.0044-.0034,0-.0066.001-.01.0044-.2026-.0049-.4087-.0073-.6165-.0073-6.8198-.0005-16.3682,2.7139-32.2935,8.207-.6802.3198-1.3401.6602-2,1.0103-.5701.2998-1.1401.5996-1.6899.9199-.77.4297-1.51.8701-2.2402,1.3198-4.9399,3.02-9.3198,6.5303-13.1899,10.02-.6799.6201-1.3499,1.2402-2.01,1.8501-.74.6802-1.45,1.3701-2.1499,2.0498-.05.0601-.1001.1104-.1501.1499-.8298.79-1.6199,1.5801-2.3899,2.3501-19.9299,19.5503-19.22,30.4102-32.05,34.5703-.3499.1196-.72.2197-1.0798.3296-3.1624.9326-6.1772,1.3608-9.0129,1.3608-4.7053,0-8.9194-1.1777-12.5071-3.1807-4.6001-2.54-8.1902-6.4497-10.48-10.9697-4.5-8.8403-4.05-20.04,3.3699-28.0503,3.3601-3.6201,8.1401-6.5898,14.53-8.3999,14.4099-5.75,19.1001-1.73,30.3699-5.0601,6.8201-2.4502,14.2202-7.2002,21.1201-13.3701,9.8701-8.8301,18.6799-20.5801,23.21-32.71.01-.0498.04-.1001.0601-.1597,2.5601-6.9404,3.72-14.0103,2.8701-20.73-.0103-.0601-.02-.1304-.03-.1904-.4202-3.1797-1.3101-6.2798-2.7102-9.25-8.3127-24.8521-8.3623-65.0044-41.9602-65.0073-1.2815-.0005-2.6082.0581-3.9897.1777-37.96,4.8398-76.8098,15.3799-112.53,29.3999-38.6599,14.9199-62.3198,45.6997-81.3499,80.2598-3.5503,6.438-7.9963,9.0024-12.5886,9.0024-7.1917,0-14.7444-6.2852-19.7915-13.8223-5.8599-8.7603-10.9099-18.75-10.3999-29.27.51-10.5698,6.55-20.0801,13.46-28.1001,38.53-44.6602,102.78-59.0601,157.8101-70.7397,36.3699-7.73,102.1399-16.9404,87.1799-71.9404-17.6101-64.71-106.6499-38.7896-155.2-62.7798-43.5583-11.77-47.5999-61.4243-1.9746-61.4243,2.7146,0,5.5964.1748,8.6646.5444,17.0901,4.0801,30.76,16.3999,45.1401,26.5098,17.6199,12.4102,37.3298,21.8101,57.98,27.9199,11.2041,3.5449,27.2986,8.9292,41.1548,8.9292,13.3511,0,24.6238-4.9951,27.4551-21.4492,4.48-12.5996,8.9302-25.73,7.53-39.0396-4.05-38.2803-46.3401-62.3701-73.6299-83.1001-6.6201-5.0303-13.53-10.4399-16.5601-18.1802-3.02-7.7397-.24-18.3701,7.7-20.8101,1.1348-.3472,2.2966-.5068,3.4609-.5068,3.8638,0,7.7583,1.7573,10.8091,4.2471,3.97,3.2397,6.8401,7.6001,9.9299,11.6899,22.2351,29.4961,58.6072,46.6631,95.3181,46.6631,3.0295,0,6.0554-.1167,9.082-.353,2.6499-.21,5.3499-.52,7.74-1.6802,15.4299-7.48,16.5598-39.2598,15.76-53.4199-1.1899-21.1802-7.71-41.8501-15.74-61.3398-15.7-38.1304-38.5701-73.29-63.4202-106.02-14.4399-19.0103-29.6799-40.25-47.6499-56.1401-7.96-7.0298-16.8501-13.3398-22.55-22.3101-12.7581-20.0122,2.5825-46.106,25.2148-46.106,1.5466,0,3.1272.1221,4.7351.376,25.8901,4.48,37.9001,31.1699,47.6899,52.7798,12.9016,36.2178,136.4897,201.2456,199.3826,201.2456,17.7864,0,30.7156-13.1953,34.9175-46.2354,2.5601-20.1201-4.3999-40.4502-8.48-60.0898-2.3398-11.23-13.3999-51.6899,8.1001-51.8301.0322,0,.0649-.0005.0972-.0005,3.4871,0,6.9329,1.061,10.1929,2.2104,1.7898.6201,3.6099,1.2998,5.02,2.5601,1.24,1.1099,2.0798,2.6001,2.7698,4.1099,1.8601,4.0898,2.8201,8.5298,3.4602,12.98,2.73,19.1299-.3101,38.5-1.4402,57.6499-.7898,13.52-1.5598,28.3301,3.3801,41.2202,4.3401,11.3398,13.96,18.1602,26.02,19.29,4.7983.4463,9.082.6753,12.9077.6753,29.7642,0,31.7998-13.8569,32.7122-46.9355,1.4255-14.0337,2.3228-47.8008,22.5552-47.8008.7732,0,1.574.0493,2.4048.1509,7.1602.8799,13.5103,6.5303,15.2102,13.54,3.0398,12.5898-7.6101,23.9399-11.78,36.2002-9.0337,39.7202,6.0325,53.9048,28.0105,53.9048,22.2046,0,51.4644-14.4771,70.0593-31.7251,67.4402-68.4697,72.0303-172.8398,101.4402-259.98,2.9346-18.4092,17.0476-33.2729,32.1982-33.2729M884.2781,0c-9.4968,0-18.8926,4.3296-26.4558,12.1909-6.9712,7.2461-11.7644,16.8638-13.543,27.1475-8.4929,25.2876-15.0249,52.3242-21.3428,78.4756-15.5081,64.1909-31.5427,130.564-77.8787,177.6992-18.479,17.0801-45.5676,29.4648-64.4775,29.4648-8.1924,0-14.1794-2.2974-17.7952-6.8276-5.4944-6.8843-6.3555-19.625-2.4958-36.8613,1.1658-3.2935,2.9492-6.687,4.8333-10.272,4.5813-8.7173,9.7737-18.5977,7.0181-30.0107-2.489-10.2632-11.5444-18.3257-22.0234-19.6133-1.1445-.1401-2.281-.2109-3.3823-.2109-8.0776,0-18.9792,3.6938-25.0417,21.2915-3.3945,9.8535-4.3831,21.2212-5.1045,29.5215-.1333,1.5317-.2556,2.9429-.3826,4.1929l-.03.2935-.0078.2954c-.3987,14.4497-.9819,25.9897-4.4834,32.1157-2.0857,3.6494-5.9788,7.0264-20.2173,7.0264-3.5513,0-7.5308-.21-12.165-.6411-9.2634-.8682-16.1113-5.9023-19.2776-14.1748-4.4058-11.4961-3.5869-25.5176-2.8645-37.8882.2739-4.6382.6733-9.4248,1.0598-14.0547,1.2271-14.7017,2.4958-29.9033.3137-45.1948-.5564-3.8682-1.585-9.6387-4.0989-15.166-.8459-1.8511-2.2485-4.5513-4.7197-6.7632-2.4951-2.2295-5.3044-3.3169-7.7422-4.1616-3.885-1.3701-8.1609-2.6519-12.8162-2.6519l-.1426.001c-6.3674.041-11.6731,2.5078-15.3499,7.1323-8.7297,10.98-5.772,31.0278-1.2754,51.0566.2852,1.2695.5349,2.3794.7246,3.29.9321,4.4868,2.0188,9.042,3.0696,13.4468,3.4958,14.6553,7.1111,29.8101,5.3059,43.9966-4.9893,39.2324-21.5312,39.2324-26.967,39.2324-24.1934,0-65.1714-30.7363-112.4265-84.3271-39.2083-44.4653-73.3169-94.499-79.4062-111.5933l-.1118-.314-.1377-.3037-.0994-.2192c-5.0149-11.0703-10.699-23.6177-18.6836-34.2119-9.8625-13.085-21.259-20.5889-34.8406-22.939l-.0581-.0098-.0579-.0093c-1.9912-.3145-4.0051-.4741-5.9858-.4741-13.6311,0-26.2998,7.6602-33.062,19.9902-6.7803,12.3638-6.3733,26.7334,1.0891,38.4385,5.1038,8.0322,12.075,13.8999,18.8167,19.5747,1.8054,1.5195,3.511,2.9551,5.1863,4.4346,15.29,13.5205,28.6282,31.2041,41.5269,48.3057,1.6946,2.2471,3.3757,4.4756,5.0461,6.6748,29.0337,38.2407,48.8594,71.3589,62.3914,104.2236,9.3604,22.7192,14.1738,41.3828,15.1487,58.7383,1.0745,19.0181-2.5049,41.5171-11.2539,45.7583-1.1726.5693-3.1321.7642-4.877.9028-2.783.2173-5.6284.3276-8.449.3276-34.6328,0-68.7041-16.6577-88.9182-43.4727-.5383-.7129-1.0647-1.4272-1.5918-2.1421-2.6372-3.5776-5.6265-7.6328-9.6707-10.9331-4.7822-3.9028-10.4207-6.0522-15.8765-6.0522-1.9927,0-3.9463.2886-5.8064.8579-5.2239,1.605-9.499,5.3896-12.0461,10.6582-3.071,6.3521-3.3608,14.1016-.7747,20.7285,3.9431,10.0728,12.7483,16.7632,19.1777,21.6484,4.21,3.1982,8.6687,6.4019,13.3894,9.7939,25.3389,18.207,54.0588,38.8438,57.1189,67.7681,1.1665,11.0879-2.3684,22.1729-7.1113,35.5112l-.2302.6479-.1167.6782c-1.7844,10.3696-7.6331,14.7939-19.5569,14.7939-11.8157,0-26.2251-4.5806-36.7463-7.9243l-1.9907-.6318-.0715-.0229-.0723-.0215c-20.1458-5.9604-38.8652-14.9727-55.6384-26.7866-2.8347-1.9932-5.7273-4.1382-8.5247-6.2124-11.8706-8.8032-24.1453-17.9062-39.3696-21.5405l-.4468-.1069-.4561-.0547c-3.3174-.3994-6.5552-.6021-9.6228-.6021-11.3491,0-20.7317,2.668-27.887,7.9302-6.856,5.0425-11.2388,12.3936-12.3411,20.6992-1.3071,9.8462,1.8804,20.1699,8.9749,29.0693,7.21,9.0454,17.7031,15.6973,30.3804,19.2686,18.4622,8.8931,41.6992,11.1973,64.1809,13.4258,19.4958,1.9331,39.6555,3.9321,55.356,10.2393,16.552,6.6499,26.3315,17.3555,30.7773,33.6909,3.1865,11.7163,2.3782,21.2412-2.4724,29.1187-11.8352,19.2202-45.9285,26.1797-70.822,31.2612-2.719.5547-5.3367,1.0894-7.8186,1.6167-31.0942,6.5996-59.0515,12.9126-86.2954,23.3584-32.9727,12.6416-57.8049,28.9922-75.9167,49.9854-9.843,11.4243-14.8784,22.2007-15.397,32.9492-.6707,13.8369,6.3811,26.0957,11.7437,34.1123,7.2886,10.8843,17.1768,17.3804,26.4531,17.3804,4.6152,0,13.2991-1.708,19.6067-13.1465,15.2542-27.7026,37.8135-61.4458,77.2173-76.6528,36.541-14.3418,74.7285-24.3301,110.4924-28.9053,1.0801-.0898,2.136-.1353,3.1406-.1353,18.6272.002,23.5718,15.5332,29.5015,41.1128,1.4465,6.2397,2.9424,12.6924,4.8591,18.4229l.1499.4478.2014.4268c1.0188,2.1611,1.6963,4.4771,2.0144,6.8828l.0173.1323.02.1196c.6177,5.0513-.1931,10.6807-2.4109,16.7344-.0532.1328-.1025.2646-.1482.397-3.8381,10.1772-11.4792,20.8779-20.9868,29.3838-6.1399,5.4902-12.6179,9.6455-18.2683,11.7217-3.6982,1.064-6.4209,1.1191-9.8501,1.1885-5.2859.1069-11.2676.228-20.6162,3.8984-7.313,2.1367-13.3049,5.6821-17.8159,10.5425-9.2317,9.9658-11.0503,24.5415-4.6379,37.1382,3.1069,6.1338,7.8635,11.1006,13.7483,14.3501,4.9561,2.7666,10.4785,4.1792,16.3811,4.1792,3.687,0,7.4824-.5684,11.2803-1.6885l.0361-.0103.0364-.0112.2791-.083c.333-.0977.6655-.1978.9878-.3062,9.6455-3.1455,13.8455-9.3022,18.7065-16.4292,3.5906-5.2642,8.0593-11.8154,16.429-20.0254l.0276-.0273.0273-.0273c.7029-.7026,1.4189-1.4185,2.136-2.1045.166-.1504.3274-.3076.4832-.4712.6331-.6143,1.2251-1.187,1.8274-1.7407l.2307-.2129c.5776-.5337,1.1631-1.0747,1.7563-1.6162,4.1284-3.7222,8.0547-6.71,11.9695-9.1035.748-.4604,1.3655-.8242,1.9644-1.1587l.0662-.0366.0652-.0381c.3999-.2329.8774-.4844,1.3833-.75.3879-.2056.8496-.4478,1.3198-.6782,13.3213-4.5859,22.8457-7.4673,28.7791-7.6133l.9729.0015.0483.0015c2.3889.0815,3.7456.6748,5.0383,1.5386,2.7532,1.8237,5.8054,5.4492,10.0303,10.4668l.8542,1.0142c3.9377,4.6572,8.2439,9.6738,13.9041,15.4814,7.9612,12.9067,10.6797,28.0415,8.0815,45-5.9373,38.8848-37.7324,79.9312-63.3596,107.5186-25.0669,26.9707-51.4023,48.8013-67.7385,60.2744l-1.7759,1.1587c-10.5574,6.8809-21.4741,13.9956-29.978,24.229l-.2087.2515-.1875.2671c-8.6018,12.2563-12.606,24.0942-11.9041,35.1909v.0205l.0205.3267c1.0198,14.1919,10.1599,26.0078,24.4497,31.6079,5.9067,2.3145,12.3604,3.4878,19.1824,3.4878,7.9434,0,16.1824-1.6714,23.8259-4.834,11.8594-4.9082,22.3665-13.3442,30.4236-24.4194,12.5012-12.8032,24.3826-27.6841,36.3093-45.4736,12.7104-18.9512,23.6477-38.3423,35.6113-59.9048l2.2285-4.0186c12.1843-21.9775,24.781-44.6992,38.8384-65.2515,1.8706-2.3232,3.8054-4.8525,5.8496-7.5244,2.8137-3.6782,5.7231-7.4814,8.8135-11.2065,5.8181-6.999,14.6218-16.6562,23.8035-19.6328l.4431-.1436c1.7859-.542,3.4963-.8062,5.2158-.8062,2.0459,0,4.0518.3755,6.1211,1.146l1.3301.6895.3215.0005c.6716.314,1.353.6724,2.0366,1.0713l.2405.1401.2498.1235c.3088.1528.6165.3066.9236.4604.5476.2744,1.0942.5479,1.6448.814,32.2524,15.9888,60.9192,25.2368,87.6304,28.2681.3206.04.6399.0786.9587.1118.2307.0298.4294.0483.575.0605,6.0051.6343,12.0168.9561,17.8696.9561,4.4871,0,8.9924-.1895,13.397-.562l.0496-.0005c14.0295.001,25.5828,7.2173,35.3196,22.0615,13.3452,20.3237,20.7625,51.3564,25.7339,76.1216l.4617,2.2998.0024.0029c1.1218,5.6509,2.1548,11.1392,3.1575,16.4683,1.8748,9.9624,3.6462,19.3765,5.4915,26.9731.0369.1758.0747.3374.1096.479,2.615,13.6934,2.03,28.3501,1.2048,42.1929-.1255,2.1455-.2581,4.2822-.3911,6.4189-.7905,12.7202-1.6077,25.8706-.6431,38.6748v.0049l.0242.3506c1.3635,17.5181,5.792,31.4736,13.9158,43.8027v.168l1.0645,1.3862c.1785.2427.3572.4751.5383.7007l.0664.0869c5.8242,7.5474,13.9165,13.0269,23.4026,15.8457,4.6167,1.3848,9.4409,2.0898,14.3188,2.0898,5.8716,0,11.5635-1.0093,16.9172-3,7.5364-2.7783,14.0547-7.4634,18.8291-13.541,2.606-3.2856,4.7207-7.0312,6.2627-11.1035,3.6279-9.4746,3.9141-20.2627.8596-32.9233v-.9775l-.4888-.9458c-1.9807-7.5195-4.7874-14.7349-7.5046-21.7207l-.0918-.2354-.0977-.251-.114-.2437c-4.6553-9.938-12.7949-35.7544-20.2546-64.2407-14.2058-54.3042-22.8069-104.2915-23.0366-133.8438l-.0022-.4009c-.0828-14.7632,1.865-21.7114,3.5134-24.9404.5962-1.1729,1.1211-1.7783,1.4595-2.0811,5.6321-2.4487,11.4397-4.8516,17.0642-7.1782,4.1128-1.7017,8.366-3.4609,12.551-5.2383,9.0879-3.8462,16.0095-6.9912,22.4338-10.1948,9.7092-4.832,18.0901-9.7383,25.6089-14.9917,3.1467-2.0425,5.897-4.1689,8.3274-6.0483,5.2219-4.0376,8.3301-6.3223,11.4912-6.3223,1.0483,0,2.1917.2344,3.4951.7168,13.8206,5.1445,34.3994,28.6851,39.6616,42.4971,3.7554,9.8447,10.9336,20.6982,17.8757,31.1938,5.5208,8.3472,11.2285,16.9771,14.3774,23.9932,4.3872,10.6357,11.9419,19.4126,21.2839,24.7261,6.3823,3.6372,13.3838,5.5615,20.2419,5.5615,6.8098,0,13.238-1.9038,18.6057-5.5083.1997-.127.3938-.2622.5815-.4058,5.9956-4.229,10.3926-10.4668,12.8157-18.1499l.8967-.8804.0039-2.4175c.7979-3.4795,1.2302-7.1958,1.2874-11.0669.0142-.2578.0142-.4546.0142-.5596v-.689l-.0928-.5464-.0024-.0176c-1.5618-10.646-5.3289-20.5151-11.4951-30.0928v-.062l-1.3982-2.0454c-.0547-.0801-.1091-.1597-.1641-.2393l-.2156-.3154-.0085-.0088c-7.8992-11.377-18.2498-20.9595-28.2654-30.2324-1.4202-1.3149-2.8425-2.6318-4.2603-3.9556l-.0154-.0205-.5173-.4829c-8.7859-8.2036-15.8215-15.3154-21.6013-23.3589l-.2725-.3789-.3145-.3452c-.7839-.8594-1.5833-1.7319-2.394-2.6172-4.4714-4.8828-9.0955-9.9316-13.4731-15.2852l-.2512-.3076c-6.9121-8.5-11.5361-15.8828-14.1331-22.563-.7151-1.854-1.2839-3.6846-1.699-5.4668.0168-.0249.0339-.0493.051-.0737,1.2417-1.7886,3.0139-4.3501,5.1472-7.4438,2.998-4.3472,9.0317-13.1133,15.7566-22.9771,23.4478-34.3926,24.9866-37.6392,25.5662-38.8613,1.9407-4.0967,3.0166-4.6592,3.3701-4.8438,1.231-.6436,3.8826-.8906,7.4941-1.1689l.0999-.0078.0996-.0098c3.7021-.3789,7.4634-.5708,11.1785-.5708,25.4932.001,51.4475,8.7915,79.3469,26.8735,29.1362,18.877,55.7756,44.9204,79.2791,67.8984l.9172.8965c30.6663,29.9946,57.1519,55.9004,80.9561,55.9004,10.03,0,18.8586-4.4697,26.241-13.2856l.7664-.915.4663-1.0981c5.4922-12.9351,4.5146-26.1895-2.9038-39.396-.0542-.0991-.1101-.1978-.168-.2944-10.8887-19.1963-35.0339-38.0732-75.9529-59.3828-.1948-.1089-.3835-.209-.5806-.3086-25.5613-13.2734-54.3281-25.7549-79.7112-36.7686-10.2292-4.4385-19.8911-8.6309-28.9309-12.6851-15.5269-6.9575-34.6592-15.9097-44.897-23.4502l-.0601-.0444-.0613-.0435c-.208-.147-.4146-.3101-.6226-.4707l-.0266-.0205-.0637-.0488c-.6448-.4902-1.2251-.9546-1.7744-1.4204l-.0439-.0376-.0444-.0366c-13.0066-10.7144-34.3235-36.4268-23.0627-57.8213,1.3582-1.3628,3.0542-2.2866,5.2617-2.8696l.4153-.0996c1.7361-.4165,3.7876-.6279,6.0972-.6279,4.5691,0,10.0425.7666,17.7468,2.4863l.2244.0503.0371.0063c.0024.0005.0051.001.0076.0015,3.2996.7388,6.7351,1.5889,10.0581,2.4111,5.7627,1.4258,11.7192,2.8999,17.3745,3.9009.1768.0376.3523.0693.5273.0952,4.8135.8384,8.9446,1.2461,12.6238,1.2461,3.0569,0,5.7864-.2734,8.3445-.8359l.1726-.0381.1216-.0322.0261-.0063c.1016-.0234.2031-.0479.3044-.0732,1.5344-.3569,3.0515-.8535,4.5112-1.4771l.1948-.083.1899-.0933.6831-.3354.3577-.2681c6.2937-3.9531,10.6001-8.5161,12.803-13.5659,3.2661-7.5117,1.6323-15.6655-4.3667-21.8193l-.9236-.9473-.0959-.0488c-5.4319-5.0288-13.3792-8.0835-22.0186-8.4082l-.1504-.0059h-.0603c-.4077-.0127-.8167-.019-1.2278-.019-6.2241,0-12.3669,1.4766-17.8284,4.2769-2.4331.666-4.9041,1.2012-7.3567,1.5923-3.6196.5762-7.2891.8687-10.9048.8687-.8076,0-1.6226-.0146-2.4226-.0435-5.4185-.1724-10.7075-.9829-15.7556-2.4102-.0947-.0288-.1887-.0557-.2827-.0806-3.1497-.8931-6.2202-2.0439-9.1467-3.4282l-1.3035-1.3506c-.3936-.5591-.6611-1.1104-.8-1.6499-.5374-2.1035.7058-5.3296,3.5044-9.0684l.0183-.0239.0178-.0244c.0879-.1191.1831-.2373.2771-.3564l.0259-.0327.0273-.0352c3.7031-4.7944,9.6794-10.1582,17.762-15.9424l.1826-.1328c4.4888-3.1968,9.4993-6.4385,15.3367-9.9248,18.0464-6.6943,38.7126-13.3872,66.8574-21.6533.0938-.0249.1968-.0537.3086-.0879,11.6956-3.4331,23.7971-6.8843,35.5-10.2212,21.2029-6.0469,43.1272-12.2988,64.0898-18.8501l.01-.0024.2427-.0757c25.2656-7.9014,45.324-15.0273,63.0889-22.4146,16.1814-5.3652,38.8718-14.7822,50.5239-34.5562l.0576-.0977.0547-.0996c1.4854-2.6919,2.7144-5.457,3.6528-8.2188,3.4795-10.064,3.3904-20.708-.251-29.9741-5.5876-14.2344-18.6873-23.4331-33.3713-23.4331-.9556,0-1.9265.0386-2.8857.1152-8.0552.6353-15.9172,3.8701-23.3594,9.6147l-.4072.3145-.364.3638-.4075.4102c-.2253.2271-.4492.4536-.677.6758l-.0386.0376-.0381.0381c-12.6262,12.6372-23.5779,22.3345-34.4656,30.5181l-.5513.4146c-9.8394,7.3345-19.3027,13.1826-28.8865,17.8496l-.0237.0059-.7551.3628c-14.7268,7.0776-29.303,11.146-44.5503,12.4326-9.7778.2236-23.2417,2.5303-38.5427,5.2944-1.8745.3389-3.7786.6855-5.7102,1.0371-14.5854,2.6553-31.1133,5.6641-47.3528,7.6362-.1809.0181-.3613.0425-.541.0723-12.2549,1.4805-22.8503,2.2002-32.3826,2.2002-30.1204,0-48.6548-7.27-56.5786-22.2139.0571-.228.1567-.4912.3215-.8022.7656-1.4399,2.873-3.8472,8.5364-7.0854l.4612-.2637c2.8379-1.5967,5.832-3.0103,8.4883-4.2637.9353-.4414,1.8201-.8594,2.634-1.2539,9.3528-3.8384,15.0315-4.6357,21.0417-5.4805,5.9802-.8403,12.7583-1.7925,22.7744-5.6455,3.2578-1.2588,4.3721-1.8726,6.5828-3.1416,2.3467-1.3472,6.2739-3.6011,18.052-9.3843,2.0283-.9976,3.8567-1.8862,5.511-2.6909,11.949-5.8091,16.8948-8.2139,20.2751-15.0698l.1221-.2476.1047-.2554c1.0989-2.6802,1.8672-5.3853,2.283-8.041.0208-.1323.0391-.2646.0559-.397l.0076-.0532c.929-6.4111-.1802-12.4917-3.2078-17.5996-.1196-.2134-.2463-.418-.3806-.6157-4.4016-6.9263-12.0254-11.1978-20.458-11.4453-.2563-.0078-.5264-.0122-.7979-.0122-5.3525,0-10.6692,1.6304-15.4009,4.7183-6.821,3.7593-10.0679,8.5825-13.2092,13.2495-1.1721,1.7412-2.3833,3.54-3.8577,5.4121-5.554,5.8506-12.6055,11.3896-20.416,16.0347-14.0413,8.3374-28.9534,12.9307-41.9841,12.9307-1.8535,0-3.6846-.0947-5.4417-.2817-8.6345-.9106-16.0085-4.0786-21.9346-9.4185-1.4316-1.7798-2.6995-3.3408-3.8645-4.7598-2.6099-3.2207-5.0752-6.2632-7.2776-9.1611-2.0352-2.666-3.6467-4.9634-4.9375-7.0366-4.5139-7.2358-5.5776-12.313-3.6455-17.4624l.1213-.3066c1.897-4.7817,6.5505-10.2026,13.8311-16.1118l.1895-.1538.1797-.165c11.7607-10.7954,20.5647-23.9248,29.0786-36.6221,7.4253-11.0737,14.4387-21.5327,23.2039-30.4707.9666-.9883,1.9551-1.9663,3.0015-3.0024,7.1824-7.1099,15.3228-15.1689,16.7241-26.8877.8801-7.2466-1.5374-14.5225-6.8088-20.4731-5.6277-6.3525-13.7363-10.145-21.6907-10.145-3.0879,0-6.0842.5591-8.9055,1.6616l-1.0476.4092-.894.6821c-8.7979,6.707-14.7078,14.3022-18.5989,23.9033-2.6055,6.4102-3.9595,12.8833-5.2686,19.1436-1.4343,6.8564-2.7888,13.333-5.687,19.8506-5.2527,11.8311-16.6318,27.3291-57.666,43.793-7.1726-19.9082-4.3208-48.1211,8.6357-85.8921,12.811-37.3477,32.8494-76.3691,50.5288-110.7979,9.3772-18.2603,17.4851-34.0498,23.3679-47.3584,2.0024-3.6992,4.3464-7.8145,6.8247-12.1655,9.053-15.894,20.3198-35.6753,26.5928-55.5244,7.7642-24.5679,6.1392-44.7368-4.8303-59.9463l-.0901-.125-.095-.1216c-9.9604-12.7476-20.9346-15.4233-28.387-15.4233h0Z"/>
        </g>
        <path class="cls-9" d="M1236.0899,495.3977c-.78,2.43-1.8101,4.77-3.0901,6.95-9.6699,16.41-28.3401,25.14-46.4199,31.11-20.5,6.77-41.5801,14.77-62.6799,22.28-.04.01-.0901.03-.1301.04-16.3499,5.81-32.72,11.32-48.8601,15.71-8.6699,2.36-29.0698,7.49-50.7898,13.38-.03.01-.0701.02-.1101.03-27.9299,7.58-58.01,16.39-68.1699,22.11-.02.01-.03.02-.05.03-.1799.1-.3699.21-.55.32-5.5,3.12-10.8301,6.55-15.9199,10.3-.0701.05-.1499.11-.22.16-2.8601,2.1201-5.6401,4.33-8.3401,6.66-3.95,3.42-8,6.92-11.1001,10.9-.1499.1899-.2998.3799-.4399.5699-1.4299,1.92-2.6399,3.95-3.5,6.13-1.1499,2.93-1.6899,6.14-1.3499,9.74.0398.48.0999.97.1799,1.46.24,1.46.6499,2.97,1.6201,4.07.8699.97,2.0898,1.53,3.2698,2.05.01,0,.01.01.02.01,3.8,1.66,7.77,3.28,11.8401,4.58.05.01.0898.03.1399.04,5.77,1.83,11.7302,3.01,17.6902,2.72.1599,0,.3198-.01.48-.02,4.6599-.28,9.6099-.33,14.3999-.9,3.1401-.37,6.21-.97,9.0801-2.02,5.1399-1.85,10.5498-3.4901,15.9399-3.73h.04c2.23-.1,4.45.04,6.6499.5,4.1699.88,8.1802,3.23,10.9102,6.45.0098.01.02.03.04.04,2.1899,2.61,3.5398,5.8,3.4399,9.2401-.03,1.3-.27,2.57-.6802,3.78-1.54,4.52-5.46,8.26-9.97,10.14-.02.01-.0398.02-.0598.03-1.0701.44-2.1602.79-3.2603,1.07-.1499.04-.2998.07-.45.11-4.73,1.09-9.7698.85-14.6099.14-.99-.15-2.1401-.37-3.4402-.65-.0498,0-.0999-.02-.1599-.03-6.6099-1.41-16.8401-4.24-27.3298-6.29-.0601-.01-.1301-.03-.1902-.04-9.8899-1.92-19.99-3.14-27.46-1.83-.02,0-.04.01-.0601.01-4.73.84-8.4099,2.7-10.3098,6.05-13.8601,24.51,6.3699,53.75,24.5298,68.71.7002.57,1.4001,1.14,2.1101,1.69.3101.2401.6199.48.9299.7,13.5701,10.37,29.96,17.66,46.3701,24.31,10.1499,4.12,20.3,7.99,29.8,12.17,26.3999,11.65,53.0999,23.25,78.48,37.11.1399.07.27.14.4099.22,17.45,9.54,34.28,20.16,49.9399,32.6,6.9302,5.5,16.51,14.12,22.9302,23.82.0098.0099.02.03.0298.05,6.8701,10.4,10.1001,22.05,2.5601,32.42-22.0498,30.31-65.0801-10.26-95.45-43.2-12.6699-13.72-23.1399-26.12-28.97-31.52-14.1401-13.08-32.3999-26.77-52.47-38.27-30.1001-17.26-64.25-29.59-94.6101-27.62-.3599.01-.72.05-1.0898.07-9.3401.72-13.0701,1.24-17.4902,10.57-2.9199,6.16-47.6799,70.9399-47.7698,70.9399,1.1699,1.9901,1.73,4.67,2.0598,7.02.1501,1.06.3701,2.13.6602,3.2,2.27,8.34,8.6799,16.95,15.5999,24.98.01.02.03.04.05.06,5.72,6.64,11.79,12.88,16.1499,18.23,8.02,9.83,15.3301,17.35,22.6401,24.54.03.04.0601.07.0901.09,9.0999,8.98,18.1899,17.47,28.5898,29.4,1.25,1.43,2.4602,2.91,3.6201,4.43,0,.01.01.02.02.03,6.3999,8.45,11.1099,18.31,11.5598,28.81v.09c0,.07.0103.14,0,.21.1301,3.5-.3198,7.06-1.2898,10.46,0,.01-.01.01-.01.02-1.8101,6.34-5.4302,12.13-10.52,15.98-.02.03-.05.05-.0801.06-1.8201,1.38-3.8301,2.51-6.02,3.32-8.3501,3.1-17.02,1.16-24.54-3.59-7.6899-4.84-14.1699-12.61-17.8799-20.92-7.3401-16.45-25.71-38.05-32.1301-54.88-5.97-15.67-28.1699-41.13-44.3699-47.16-12.46-4.61-18.7,4.85-30.5701,12.52-8.03,5.19-16.27,10.01-24.71,14.47-4.5901,2.42-9.24,4.73-13.95,6.94-.4199.1899-.8301.37-1.26.55-2.0801.9-4.3701,1.71-6.78,2.5-10.28,3.35-22.75,6.18-30.45,12.78-1.8501,1.58-3.4299,3.37-4.6301,5.45-.1799.3-.3398.6-.5.91-1.7,3.32-2.71,6.89-3.29,10.55-.77,4.84-.8098,9.85-.72,14.76.01.8.05,1.61.1201,2.41-.01.02,0,.04,0,.06.1899,2.48.5901,4.96,1.1799,7.43,2.53,34.5,11.53,85.05,22.1201,128.74,7.1899,29.6,15.1099,56.06,22.24,72.23,2.1299,4.81,4.3098,10.0099,6.0398,15.3,0,.01.0103.02.0103.03,4.2798,13.12,5.7698,26.75-3.3201,36.1-.6001.62-1.3,1.29-2.0901,2-3.9199,3.56-9.9199,8.05-15.3201,10.98-2.5898,1.41-5.05,2.45-7.0698,2.86-6.99,1.4-13.2302.38-19.0901-2.12-6.26-2.66-12.0901-6.99-17.95-11.84-.48-.4-.9402-.8-1.3901-1.22v-.01c-11.03-10.18-13.6099-26.17-13.9399-41.86v-.04c-.0798-3.71-.03-7.41.0601-11.01.28-11.01.75-22.14.96-33.3.3-15,.1501-30.05-1.49-44.89-.9299-8.42-2.3501-16.78-4.4299-25.02-1.3901-5.49-2.8901-12.56-4.6401-20.53,0-.01,0-.02-.01-.03-5.2998-24.13-12.9299-56.58-26.8899-78.94-10.2-16.33-23.77-27.28-42.29-25.68-.04,0-.0901.01-.1301.01-10.0698.89-20.1499.72-30.1699-.37-.1199-.01-.25-.02-.3699-.04-.3201-.03-.6301-.0601-.95-.1,0,0-.0103,0-.0103-.01-2.1099-1.43-4.5098-2.42-7.2698-2.86-26.99-4.3-53.24-12.64-77.79-24.65-.8501-.41-1.6902-.84-2.54-1.2599-1.46-.73-2.9299-1.48-4.4299-2.16-.01,0-.02-.01-.03-.01-2.77-1.25-5.6301-2.24-8.6501-2.34-3.0298-.1-5.99.7-8.8198,1.83-.02,0-.04.01-.05.02-.8801.34-1.75.72-2.6001,1.11-.1299.06-.26.12-.3899.19q-.01,0-.02.01c-.1299.06-.27.12-.4199.19-.03.02-.0701.04-.1001.06-3.0701,1.53-6.23,3.64-9.47,6.29-.51.4-1.01.81-1.52,1.27-.5.41-1.01.84-1.51,1.31-.51.43-1.03.9-1.53,1.39-1.54,1.41-3.0901,2.92-4.6199,4.53-.52.54-1.03,1.08-1.55,1.64s-1.05,1.12-1.5701,1.69c-.52.58-1.05,1.16-1.5701,1.75-.21.23-.4199.47-.6299.71-.3101.35-.6201.71-.9202,1.08-1.0598,1.21-2.0898,2.43-3.1199,3.71-.54.63-1.0601,1.28-1.5701,1.93-.1299.13-.23.27-.3398.42-.9399,1.15-1.8601,2.34-2.78,3.55-.52.69-1.05,1.37-1.55,2.06-1.0601,1.37-2.0901,2.77-3.1001,4.18-.54.7-1.0498,1.41-1.5498,2.13-1.05,1.44-2.0601,2.88-3.0701,4.34-.52.74-1.03,1.48-1.53,2.22-.52.74-1.03,1.48-1.52,2.24-1.01,1.5-2,2.99-2.99,4.51-.5.75-.99,1.51-1.48,2.27-.23.34-.45.68-.6699,1.03-.75,1.17-1.51,2.36-2.25,3.55-.51.76-.97,1.53-1.4402,2.31-.49.76-.96,1.53-1.4299,2.29-.74,1.19-1.46,2.36-2.1799,3.55-.6899,1.14-1.3501,2.26-2.02,3.37-1.1899,2.01-2.3601,3.99-3.52,5.97-1.04,1.81-2.0701,3.61-3.0801,5.39-.8499,1.5-1.6799,2.98-2.49,4.44-.8098,1.46-1.6199,2.92-2.3999,4.35-.5901,1.08-1.1702,2.16-1.73,3.23-1.3301,2.45-2.6001,4.86-3.8,7.17-.3301.65-.6499,1.28-.98,1.91-.6699,1.3-1.3101,2.57-1.95,3.81-.3801.75-.75,1.49-1.1101,2.22-.2.41-.3999.81-.6001,1.21-1.7698,3.58-3.3198,6.87-4.6299,9.73-7,15.33-18.04,32.17-30.03,48.39-12,16.23-24.96,31.86-35.8,44.76-7.5698,9.03-16.7798,17.23-27.3398,22.19-4.5801,2.16-9.4001,3.71-14.46,4.45-7.55,1.11-15.5701-.06-22.5601-3.16-8.51-3.77-15.5-10.41-18.25-19.28-.5601-1.79-.9302-3.61-1.1301-5.44v-.04c-1.1599-10.71,3.4602-21.87,10.45-30.32,8.2102-9.88,19.3201-16.84,30.0801-23.87,19.8401-12.99,45.46-35.16,69.1201-61.46,30.2-33.58,57.21-73.89,64.95-110.48.1599-.42.3201-.85.46-1.28,1.6599-4.77,2.5-9.77,2.3899-15.04-.1299-5.3199-.5098-10.68-1.6299-15.85-.77-3.63-1.9299-7.14-3.6201-10.53-1.3198-2.6-2.8899-5.02-4.6499-7.36-2.76-3.68-5.9399-7.07-9.0698-10.42-2.4001-2.55-4.79-5.1-7.2002-7.66-2.1099-2.26-4.23-4.51-6.3499-6.77-1.3701-1.48-2.76-2.96-4.1501-4.44-.6199-.67-1.3198-1.26-2.0601-1.77-.3091-.2065-.6213-.3983-.9358-.5826-2.0652-1.1798-4.4966-1.8757-7.1541-2.1873-.4302-.05-.8701-.09-1.3101-.12-.01,0-.02-.01-.03,0-10.71-.75-24.55,4.11-32.9099,8.2-.7.34-1.3701.68-2,1.01-.0701.03-.1301.07-.2.1-.5.27-1,.54-1.49.8199-.77.4301-1.51.8701-2.2402,1.32-5.1399,3.13-9.3999,6.57-13.1899,10.02-.6799.62-1.3499,1.24-2.01,1.85-.74.6801-1.45,1.37-2.1499,2.05-.05.06-.1001.11-.1501.15-.8098.79-1.6099,1.58-2.3899,2.35-19.9299,19.55-19.22,30.41-32.05,34.5699-.3499.1201-.72.22-1.0798.33-6.49,1.8-14.6702,1.5-21.52-1.82-3.29-1.58-6.27-3.87-8.6001-6.95-1.04-1.3701-1.8999-2.84-2.6101-4.3701v-.0099c-3.4199-7.51-2.9399-16.65.9202-23.44.9299-1.63,2-3.03,3.1799-4.25,3.97-4.11,9.21-6.27,14.53-8.4,14.4099-5.75,19.1001-1.73,30.3699-5.06,6.77-2,14.1902-6.91,21.1201-13.37,9.75-9.09,18.54-21.25,23.21-32.71.01-.05.04-.1.0601-.16,2.02-5,3.26-9.87,3.4299-14.29.0901-2.17-.1499-4.3-.5598-6.4399-.0103-.0601-.02-.13-.03-.19,25.05,3.64-.4602,23.5099,18.4099,36.33,17.78,12.09,69.75,18.53,82.0901,37.37,4.21,6.45,6.7,13.9901,11.53,19.9901,8.8899,11.04,23.9099,14.84,37.97,16.61,16.7898,2.1,35.1299,1.87,48.9399-7.9,6.4399-4.55,11.5601-10.98,18.6199-14.48,7.9902-3.96,17.3701-3.66,26.23-2.65,27.4602,3.11,54.2202,12.16,77.9302,26.35,4.1799,2.5099,8.4299,5.23,13.25,5.93,5.1299.76,10.2998-.87,15.1599-2.66,39.4399-14.5,73.6001-42.21,97.02-76.98,23.8201-35.35,26.73-74.12,42.3601-112.14,6.4399-15.65,8.2998-29.52,22.5798-40.92,12.54-10.01,23.48-9.34,25.4102-16.93,3.5598-14.07-32.0601-23.54-33.8801-46.59-1.7-21.6,28.04-33.75,22.5901-52.22-2.21-7.47-7.6401-7.36-16.95-18.34-11.3401-13.4,2.7798-29.38-.7002-43.03-7.6099-29.94-12.3398-62.92-9.8799-78.34,1.0898-6.94,3.3899-19.77,5.3501-16.42.0298.05.0598.11.0898.17,28.73-11.53,55.5801-23.97,69.23-50.77,2.72-5.33,4.9199-11.23,6.5-17.81,1.71-7.1,2.5-14.43,4.5601-21.43.24-.82.49-1.63.77-2.4301,2.6599-7.7,7.6699-15.15,15.26-18.11,12.54-4.9,28.1499,7.2,26.53,20.54-1.24,10.37-10.1899,17.77-17.49,25.23-19.79,20.18-31.1501,47.68-51.98,66.8-6.1602,5.66-12.9202,12.05-16.2302,19.38-.0298.06-.0498.11-.0698.17-2.54,5.7-2.98,11.97.5601,18.9,1.0498,2.07,2.3198,4.0099,3.6799,5.89,1.7,2.35,3.55,4.59,5.3499,6.87.4001.51.79,1.01,1.1802,1.52,2.1499,2.84,4.1499,5.79,6.28,8.64,1.3398,1.78,2.72,3.53,4.21,5.19,7,7.79,16.5901,11.22,26.95,11.89,16.3701,1.07,34.6401-4.78,47.53-11.26,1.5701-.79,3.1899-1.6,4.8401-2.47,7.3599-3.89,15.3899-8.89,22.4199-17.71.01-.02.03-.05.05-.07,5.78-7.28,7.48-12.87,15.05-16.93,1.0598-.57,6.1299-3.29,11.8298-3.57,2.9399-.14,6.0601.37,8.8801,2.16,2.21,1.41,3.9299,3.42,5.1599,5.75.03.03.05.07.0701.11,1.9399,3.73,2.6699,8.26,2.24,12.48-.02.12-.03.24-.05.36-.26,2.23-.8601,4.37-1.78,6.24-2.49,5.05-6.49,6.42-22.1301,14.11-21.73,10.67-17.6899,9.81-23.98,12.2401-19.0798,7.34-24.1699,3.0099-44.22,11.29-4.4099,1.82-8.48,3.74-12.23,6.11-.02,0-.03.01-.05.03-4.3098,2.7-8.1899,5.97-11.6399,10.29-.1399.17-.27.34-.4099.52-.5601.74-1.1301,1.52-1.3301,2.44-.27,1.19.0901,2.41.52,3.55,12.8101,33.49,58.9099,31.83,98.2,25.98.03-.01.0701-.02.1101-.02,17.27-2.58,33.22-5.97,44.4199-7.53,3.0801-.43,6.1599-.84,9.24-1.23,12.47-1.62,24.97-3.08,37.3601-5.17,6.1299-1.02,12.24-2.2,18.29-3.6299,10.0898-2.38,20.0198-5.48,29.4897-9.59.04-.01.0801-.03.1201-.05,8.3999-3.65,16.4399-8.09,23.9199-13.51,2.5801-1.87,5.0801-3.84,7.51-5.88q.01,0,.01-.01c12.0701-10.07,22.74-21.79,35.3201-31.26.72-.55,1.45-1.08,2.1799-1.61,5.55-3.98,11.6602-6.81,18.0801-7.52,4.02-.45,8.1599-.06,12.3501,1.39,7.8599,2.73,13.1399,9.14,15.8098,16.87,2.6201,7.63,2.6902,16.53.1301,24.44Z"/>
        <path class="cls-5" d="M778.1956,660.0272c-8.4581,71.9919-59.4762,139.1686-128.9613,159.8355-23.4982,6.9972-49.0527,8.7285-72.5147,1.587-41.6224-12.6599-73.2-54.3906-66.708-95.2917,1.8034-11.3795,6.5285-22.6868,14.8241-33.2908,13.9044-17.7996,35.491-29.125,46.6179-48.7639,8.0612-14.283,9.5942-31.1809,12.0288-47.4115.0178-.036.0178-.0721.0178-.1082,3.2643-21.5146,8.8189-43.498,22.3805-60.5222,19.8374-24.8689,55.1658-34.8777,86.1124-27.5199,18.3044,4.3463,34.8775,14.1568,48.3852,27.3035,9.3237,9.0891,17.1863,19.7653,23.1376,31.3251,14.5716,28.2593,18.3946,61.2616,14.6797,92.8571Z"/>
        <path class="cls-8" d="M681.9675,520.0426c-20.1975-4.4268-34.5781,1.4112-34.5784,1.4113-5.9741,2.4254-17.0139,6.9073-21.5229,17.6419-1.6094,3.8318-3.1235,10.2148-.7058,11.9965,2.3584,1.7378,6.7603-2.152,18.7007-8.1153,2.9727-1.4846,10.4463-5.2173,17.2891-7.4095,10.5935-3.394,20.6125,1.7194,25.0515-2.8228,1.1345-1.161,1.5833-2.5081,1.6465-2.7051.9429-2.9325-.2417-6.4327-2.4697-8.3505-1.3533-1.165-2.8279-1.5188-3.4109-1.6466Z"/>
        <path class="cls-8" d="M607.1185,558.0657c-6.7323,3.6999-8.9949,12.7305-11.0823,19.5435-2.456,8.0158-4.0172,16.2962-4.8034,24.6395-.9816,10.4174-.8009,21.1078-4.1141,31.033-1.2198,3.6539-2.894,7.1361-4.4982,10.6384-.4023.8783-.6877,2.1471.1564,2.6168.5068.282,1.1376.0668,1.6633-.1782,5.5906-2.6055,9.401-8.0773,11.5157-13.8714,2.1147-5.7941,2.773-11.9966,3.7094-18.0931,1.7816-11.5997,4.6257-23.036,8.4851-34.1189,1.2751-3.6617,2.7368-7.4053,5.4879-10.1375,1.8019-1.7895,4.1988-3.2238,4.9823-5.6394.8365-2.5789-.6582-5.5576-3.0402-6.8525s-5.3884-1.078-7.8323.096c-.2141.1029-.424.2109-.6296.3239Z"/>
        <path class="cls-6" d="M778.1956,660.0272c-8.4581,71.9919-59.4762,139.1686-128.9613,159.8355-23.4982,6.9972-49.0527,8.7285-72.5147,1.587-41.6224-12.6599-73.2-54.3906-66.708-95.2917,6.4924,12.1369,15.8339,25.1754,31.5237,34.8777,26.3116,16.2487,54.9857,13.5075,63.5158,12.696,34.0482-3.2462,56.3744-21.4244,73.3805-35.2746,25.5541-20.8112,39.7829-43.8046,46.5818-56.4645,4.7971-8.9448,23.4442-45.4456,22.5786-95.977-.3428-19.7292-3.5529-36.5369-7.2136-50.1707,9.3237,9.0891,17.1863,19.7653,23.1376,31.3251,14.5716,28.2593,18.3946,61.2616,14.6797,92.8571Z"/>
        <path class="cls-7" d="M374.3884,791.8138c-17.8821,7.4121-48.5737-10.0883-60.5217-30.7826-3.4568-5.9872-3.9402-9.8094-16.1738-34.9565-6.3533-13.0596-10.4185-20.6532-18.261-22.9565-5.6411-1.6568-9.7605.4444-14.6086-3.1304-3.6384-2.6828-6.4521-7.6516-6.2607-12.5217.3403-8.659,9.8965-9.7699,16.6956-20.3478,5.4939-8.5471,5.2278-17.6981,4.6956-36-.4287-14.7422-.6431-22.1133-5.2173-28.6956-4.9224-7.0831-10.6733-8.4272-12.5217-16.1739-.1643-.6882-2.0376-9.0515,2.6086-14.6087,5.0188-6.0028,12.4128-2.4736,20.3479-5.7391,12.0476-4.9579,15.4172-21.4934,20.739-47.6087,4.5737-22.4447,6.8606-33.667,1.1741-42.6522-5.0012-7.9022-12.9766-10.8249-13.6958-19.9565-.0469-.5966-.6001-9.0787,4.6958-13.3043,7.4856-5.9727,17.8398,3.5932,34.8259,3.913,21.2991.4011,37.009-14.0372,39.1306-16.0435,14.6863-13.8893,17.1614-31.9774,18.7825-43.8261,1.0698-7.8185,3.1428-22.9704-2.8696-39.6522-3.0542-8.4742-6.4958-12.6285-8.8694-24-1.6633-7.9689-4.2212-20.2237,1.0435-24,5.77-4.1389,18.1548,3.9023,26.6086,9.3913,11.7795,7.6482,12.8333,11.4277,24.5217,20.8696,17.4907,14.129,32.9658,20.0724,36.5217,21.3913,9.9741,3.6993,20.0947,7.3134,32.8696,5.2174,5.8787-.9646,15.3813-2.5237,20.8694-9.913,4.6011-6.1949,2.1958-10.8532,7.3044-15.6522,4.7742-4.4847,12.7864-5.9698,18.7827-3.6522,7.478,2.8904,5.8157,9.3739,13.0435,14.6087,10.2776,7.4437,27.6467,4.4793,38.0869-.5217,5.2966-2.5372,9.4587-5.9094,18.7825-8.8696,4.739-1.5046,8.4551-2.1546,12.522-1.5652,5.7642.8353,9.6858,3.7911,10.9563,4.6956,14.6201,10.4094,38.3921,12.063,39.3914,12.1304,17.7043,1.1949,18.7883-7.5155,33.6523-5.8696,13.9204,1.5415,30.6106,11.1345,34.4346,24.2609,7.3948,25.3839-35.7432,55.683-42.2607,60.2609-37.9204,26.6346-53.8999,12.2091-96.261,37.5652-35.4939,21.2457-56.4905,50.6565-63.3911,61.0435-18.731,28.1946-11.6155,33.6495-28.1741,54-25.1108,30.8613-46.1213,24.0275-75.1304,54-17.5962,18.1805-25.1011,36.4362-35.2173,61.0435-24.3481,59.2263-14.2646,90.5725-33.6523,98.6087Z"/>
        <path class="cls-7" d="M239.0115,683.4211c-.6792-1.2842-20.8689,12.6792-54.186,21.9673-20.5774,5.7365-43.25,8.8777-70.7832,12.6922-15.8618,2.1975-17.8474,2.0931-24.408,3.9053-8.3469,2.3056-45.354,12.528-48.8159,35.6357-1.1777,7.8613,1.303,18.708,7.8103,21.4791,9.1816,3.9098,18.5872-11.5747,43.4465-27.8252,13.7351-8.9787,29.9849-15.0981,62.4846-27.337,24.8245-9.3485,30.916-10.0922,48.3279-18.5501,20.1401-9.7833,36.7361-20.8091,36.1238-21.9673Z"/>
        <path class="cls-7" d="M204.8233,548.6833c-16.5286-5.562-28.8313-11.9048-37.0435-16.6956-6.8508-3.9967-12.886-8.0983-25.0435-14.6087-18.7432-10.0372-23.7202-10.6353-28.1738-9.913-8.9448,1.4507-18.7139,8.7041-18.7827,16.1739-.0996,10.8273,20.217,18.1791,27.6521,20.8696,8.5098,3.0793,16.6685,4.4742,31.8262,5.2174,12.1418.5953,29.0708.787,49.5652-1.0435Z"/>
        <path class="cls-7" d="M343.0892,234.9071c-11.9826-19.8151-29.8097-36.1764-41.833-56.1886-11.7385-19.5381-17.9167-42.5045-32.7247-59.8323-3.9241-4.5918-8.5132-8.7825-14.0547-11.1855-5.5415-2.403-12.1598-2.8242-17.5354-.0701-12.0287,6.1627-8.3682,21.439-1.0793,29.7941,3.6319,4.1632,8.112,7.4787,12.4212,10.9361,16.7403,13.4307,31.2991,29.3837,44.8453,46.0306,16.3572,20.1014,32.4384,42.1961,56.2058,52.5275-1.8032-4.1696-3.9135-8.1561-6.2451-12.0118Z"/>
      </g>
      <path class="cls-4" d="M243.9536,139.9008c-5.4319-3.968-8.1477-5.9521-9.3911-7.8261-.6304-.95-3.1487-4.9597-2.7393-10.1739.0559-.7137.5825-6.7015,3.3914-7.3044,1.5273-.3278,3.2722,1.0349,4.1738,2.3478,1.7019,2.4782.2593,4.5749.9131,9,.3752,2.539,1.2068,4.2144,2.8696,7.5652,2.8235,5.6895,5.8315,8.6524,5.3477,9.1304-.2161.2134-1.0349-.1602-4.5652-2.7391Z"/>
      <path class="cls-4" d="M353.5188,451.9007c-.1113-.3518,8.8977-1.4395,16.9565-8.6087,4.3821-3.8983,6.5461-7.9562,10.6958-15.913,2.6592-5.099,6.5344-12.6292,9.6521-23.4783,4.2195-14.6835,4.0684-25.0653,5.4783-25.0435,1.1929.0184,2.0586,7.4615,2.3479,11.7391.4341,6.4207,1.0906,16.1311-3.1306,27.6522-1.8647,5.0892-6.3748,16.9075-18.2607,25.3043-11.3894,8.046-23.6106,8.7536-23.7393,8.3478Z"/>
      <path class="cls-4" d="M124.2146,541.5094c-2.2026-.6048-7.6448-2.1286-14.0869-5.3478-3.3535-1.6757-6.1919-3.4181-8.0869-6.6522-.7898-1.3478-2.1421-3.6557-1.3044-6.1304.8389-2.4782,3.6514-4.4669,5.6086-3.913,1.9048.539,1.8633,3.1644,3.9131,6.7826,1.7295,3.0527,3.7622,4.7201,6.9131,7.3043,9.5471,7.8306,25.3208,11.4352,25.1738,12-.1099.4226-8.9597-1.5255-18.1304-4.0435Z"/>
      <path class="cls-4" d="M46.0065,757.0012c-1.1-6.4142,4.6414-13.3017,9.0505-17.1935,4.3035-3.7985,9.4135-6.5815,14.681-8.8623,16.5126-7.1501,34.6618-9.5538,52.6025-10.9402-11.104,3.1667-22.2081,6.3333-33.3121,9.5-9.1069,2.5971-18.8777,5.6373-24.5354,13.2315-3.6812,4.9412-5.1157,11.2146-8.4105,16.4214-1.011,1.5976-2.3792,3.2009-4.2486,3.4829-1.9561.2951-3.8871-1.0342-4.83-2.7734-.5078-.9366-.8307-1.8961-.9971-2.8663Z"/>
      <path class="cls-4" d="M265.606,585.9877c-1.665-1.8736-1.2156-5.3764,0-7.5652,1.8059-3.252,5.3838-3.7499,12.7825-6,6.5142-1.9811,10.8103-3.2878,13.8262-4.9565,5.5535-3.073,8.5527-8.3634,12.7825-19.5652,7.7236-20.4552,10.1865-35.8248,10.6958-35.7391.5999.1008-5.5461,20.9521-6,40.1739-.0522,2.2077-.1001,7.3943-2.8696,13.0435-2.6699,5.446-6.6306,8.795-8.6086,10.4348-4.1538,3.4432-7.8755,4.9955-12.261,6.7826-7.509,3.0599-17.1506,6.9889-20.3477,3.3913Z"/>
      <path class="cls-3" d="M448.2146,367.1181c-3.9756-3.6745-9.7744-2.493-10.4348-2.3478-5.7207,1.2572-11.0391,6.6988-10.4348,12.2609.4358,4.0119,3.7805,6.4973,5.2175,7.5652.3657.2718,7.887,5.7023,13.8259,2.3478,6.2461-3.528,7.2583-14.8053,1.8262-19.8261Z"/>
      <path class="cls-3" d="M553.0842,379.379c-.7344-.8264-5.9866-6.5516-13.8262-6.2609-10.0107.3712-19.394,10.3718-18.261,20.6087,1.2134,10.9607,13.7263,15.3568,15.3914,15.913,2.396.8005,9.9255,3.3161,15.6523-.5217,8.1831-5.4841,8.6172-21.2152,1.0435-29.7391Z"/>
      <path class="cls-3" d="M469.0842,468.2051c-4.0781-2.1182-8.3223-.6392-9-.3913-5.9668,2.1828-10.3635,9.4428-8.2175,15.6522,2.6528,7.6764,13.2534,7.8106,14.4783,7.8261,2.2471.0284,4.7275.0598,6.6521-1.5652,5.0317-4.2485,3.6379-17.5998-3.9128-21.5217Z"/>
      <path class="cls-3" d="M363.4319,475.2486c-6.7881-2.0844-14.1885,1.9564-16.0435,8.2174-1.5322,5.1714,1.1406,10.4352,4.6958,13.3043,4.199,3.3886,10.637,4.2502,15.2607,1.1739,3.4995-2.3283,4.5137-5.9503,4.6958-6.6522,1.4934-5.752-1.3652-13.8191-8.6089-16.0435Z"/>
      <path class="cls-3" d="M659.2581,420.466c-1.2507-2.8699-2.9871-6.8545-6.6521-8.6087-4.7129-2.2557-10.9116-.0086-14.4783,3.5217-5.4417,5.3861-6.1001,15.0891-1.9565,19.1739,6.3621,6.2718,23.6423-1.0966,24.6521-8.2174.2437-1.7186-.4697-3.3558-1.5652-5.8696Z"/>
      <path class="cls-3" d="M704.6494,390.3355c-1.2539-5.9327-6.4016-11.5316-13.3044-11.7391-7.1646-.2154-12.6687,5.4842-14.0869,11.3478-1.9883,8.221,3.9678,17.1271,11.3479,18.3913,5.3977.9246,9.8064-2.5385,10.9565-3.5217,3.8889-3.3245,6.2744-8.8597,5.0869-14.4783Z"/>
      <path class="cls-3" d="M615.0408,348.8573c-2.9722-.5181-8.3818-.1864-10.5654,3.913-1.7939,3.3678-.4238,7.426,1.5654,9.7826,3.0723,3.6399,9.1594,5.0427,13.3042,1.9565,3.0901-2.3008,4.7427-6.8302,3.1304-10.5652-1.7695-4.0993-6.469-4.9186-7.4346-5.087Z"/>
      <path class="cls-3" d="M582.1712,456.8573c-.8081-4.495-5.6948-7.3565-9.7827-7.8261-6.071-.6974-12.7092,3.6133-13.6956,9.7826-.676,4.229,1.2678,9.5536,5.4783,11.3478,3.8813,1.654,7.8137-.4912,9.7825-1.5652.8008-.4368,9.4055-5.1311,8.2175-11.7391Z"/>
      <path class="cls-3" d="M504.6929,550.7703c-.8962-3.721-4.6279-6.9461-8.6086-6.6522-5.1074.3772-8.6226,6.3996-7.4348,11.3478.8115,3.381,3.8779,6.508,7.4348,6.6522,5.1726.2097,9.9092-5.949,8.6086-11.3478Z"/>
      <path class="cls-3" d="M412.345,543.3355c.6914-3.2286-.1882-8.0055-4.1086-10.3696-4.4348-2.6743-9.1946-.1103-9.3914,0-3.7473,2.1015-6.3279,7.0047-4.6956,11.1522,2.0112,5.11,8.9172,5.2596,9.9783,5.2826,1.2905.028,3.6599.0793,5.6738-1.5652,1.8762-1.532,2.3618-3.6523,2.5435-4.5Z"/>
      <path class="cls-3" d="M306.8233,588.0747c-1.8743-1.6738-6.0149-.7348-8.3479,1.5652-2.1777,2.1469-3.5803,6.2681-1.5652,8.6087,1.657,1.9247,4.946,1.8566,7.0435.7826,4.0647-2.0814,5.3018-8.7845,2.8696-10.9565Z"/>
      <path class="cls-3" d="M393.1712,681.466c1.8755-5.8672-.3711-12.4196-4.6958-16.4348-5.6248-5.2223-13.8684-5.3211-19.5652-2.3478-8.8789,4.6342-12.6877,17.3146-7.8259,24.2609,3.7466,5.3529,11.3489,5.4526,13.3042,5.4783,5.8584.0768,16.0232-2.3244,18.7827-10.9565Z"/>
      <path class="cls-3" d="M295.0842,674.4225c-2.2468-.9855-5.4207-.5582-7.3044,1.5652-2.2476,2.5337-1.7849,6.4975.261,8.8696,2.5491,2.9555,7.3672,3.2208,9.6521,1.0435,2.967-2.8274,1.541-9.6583-2.6086-11.4783Z"/>
      <path class="cls-3" d="M373.2146,586.7703c-3.3296-2.1934-8.6165-1.0826-10.9565,2.7391-2.0842,3.4036-1.3623,8.1914,1.9565,10.5652,2.9224,2.0902,6.9482,1.6578,9.3914-.3913,3.793-3.1813,3.7117-10.2101-.3914-12.913Z"/>
      <path class="cls-9" d="M463.9971,693.5964c-6.6702-2.8042-13.0938,3.1426-13.6956,3.7174-2.7654,2.6407-6.2163,8.0286-4.3044,12.9131,1.4009,3.579,4.9832,5.1045,7.2393,6.0652,2.2341.9514,7.0049,2.9829,11.5435.5869,4.5186-2.3853,5.6167-7.4747,5.8696-9.1956.7063-4.8055-1.0098-11.7148-6.6523-14.0869Z"/>
      <path class="cls-9" d="M427.606,768.7268c-5.7244-2.4165-12.9148,2.1901-16.4348,6.6522-1.1418,1.4474-5.1653,6.5473-3.5217,12.5218,1.668,6.0634,8.3435,10.013,14.4783,9.3913,5.7224-.58,8.9978-4.937,9.3911-5.4783,5.178-7.1235,3.2979-20.043-3.9128-23.0869Z"/>
      <path class="cls-9" d="M557.5188,638.6833c-.0039-2.6603-1.3943-5.9587-4.1738-7.0435-3.9341-1.5354-8.6001,2.1644-10.1738,6-1.0999,2.6807-1.3938,7.1443,1.3042,9.1304,2.5691,1.8913,6.2312.3433,7.0435,0,2.5938-1.0964,6.0061-3.9098,6-8.087Z"/>
      <path class="cls-9" d="M620.6494,479.5529c-4.2266-2.0574-9.5525-1.7402-13.5652,1.0435-4.999,3.468-7.7585,10.6249-4.9565,16.1739,3.4038,6.7408,12.6033,6.3338,13.8259,6.2609,1.1851-.0707,8.8784-.5296,11.7393-6.2609,2.9199-5.8493-.7175-14.1381-7.0435-17.2174Z"/>
      <path class="cls-9" d="M745.8667,455.8138c-3.6816-1.176-7.6145.5769-9.9131,2.8696-3.8674,3.8574-4.4138,10.5452-1.0435,14.8696,2.0647,2.6491,6.0259,4.9583,10.1741,3.913,4.7532-1.1977,6.5071-5.9821,6.7825-6.7826,1.8535-5.3881-.3958-13.0794-6-14.8696Z"/>
      <path class="cls-9" d="M778.2146,371.8138c-3.8462-2.8513-9.6763-1.958-13.3044.7826-5.5884,4.2213-7.0486,13.6536-2.3477,18.2609,2.856,2.799,7.676,3.5136,11.4783,2.087,2.3879-.896,3.8489-2.4396,4.4346-3.1304,3.8884-4.586,5.1543-13.9856-.2607-18Z"/>
      <path class="cls-9" d="M863.2581,96.3355c-6.3171-3.6346-16.1614.1884-19.8262,6.7826-5.4648,9.8333,3.4766,24.6333,11.4783,25.0435,5.9385.3044,10.4014-7.366,10.9565-8.3478,4.0476-7.157,4.6401-19.3076-2.6086-23.4782Z"/>
      <path class="cls-9" d="M652.9971,851.8138c-4.8071-3.7197-12.8291-3.9356-17.739.5218-6.2109,5.6384-4.929,16.473,1.0435,21.913,4.0854,3.7213,10.8398,5.3502,15.6521,2.6087,7.7117-4.3932,8.7732-19.0623,1.0435-25.0435Z"/>
      <path class="cls-9" d="M573.1712,843.466c-.4998-6.8789-8.7769-11.7848-15.6523-12.5218-4.9568-.5313-12.8142.7152-15.6521,6.2609-3.6658,7.1635,2.2856,19.0747,11.7393,21.1305,9.6653,2.1018,20.1577-6.7142,19.5652-14.8696Z"/>
      <path class="cls-9" d="M484.345,841.5094c-3.3354-9.3063-15.7856-12.9595-24.2607-8.2174-6.4338,3.6-10.502,11.9964-7.8262,19.5652,3.0276,8.5639,13.4805,12.6509,21.9131,9.3913,8.1931-3.1671,13.0491-12.7169,10.1738-20.7391Z"/>
      <path class="cls-9" d="M793.606,558.8573c-.7769-2.6361-3.2371-4.9997-6.261-5.2174-3.9563-.2848-7.6907,3.1891-7.8262,7.3044-.146,4.4332,3.9272,8.2996,8.0872,7.8261,4.4556-.5072,7.2153-5.7889,6-9.913Z"/>
      <path class="cls-9" d="M787.0842,495.466c-3.8083-6.5503-15.3306-7.7303-20.8696-1.5652-4.4998,5.0083-4.1851,13.9005,1.0435,18.2609,3.6404,3.0359,8.7834,3.1415,12.5217,1.5652,6.8223-2.8766,10.8564-12.1515,7.3044-18.2609Z"/>
      <path class="cls-1" d="M1236.0899,495.3977c-.78,2.43-1.8101,4.77-3.0901,6.95-9.6699,16.41-28.3401,25.14-46.4199,31.11-19.47,8.11-40.6799,15.4-62.6799,22.28-.04.01-.0901.03-.1301.04-16.3499,5.81-32.72,11.32-48.8601,15.71-8.6699,2.36-29.0698,7.49-50.7898,13.38-.03.01-.0701.02-.1101.03-23.8398,7-46.95,14.21-68.1699,22.11-.02.01-.03.02-.05.03-.1799.1-.3699.21-.55.32-3.9199,2.34-9.8101,5.95-15.9199,10.3-.0701.05-.1499.11-.22.16-2.8601,2.1201-5.6401,4.33-8.3401,6.66-3.95,3.42-8,6.92-11.1001,10.9-.1499.1899-.2998.3799-.4399.5699-1.4299,1.92-2.6399,3.95-3.5,6.13-1.1499,2.93-1.6899,6.14-1.3499,9.74.6799,2.64,2.2898,5.19,5.0898,7.59,3.8,1.66,7.77,3.28,11.8401,4.58.05.01.0898.03.1399.04,5.75,1.63,11.7102,2.53,17.6902,2.72.1599,0,.3198-.01.48-.02,4.6599-.28,9.6099-.33,14.3999-.9,3.0701-.49,6.1101-1.17,9.0801-2.02,5.1699-2.82,10.74-3.91,15.9399-3.73h.04c2.23-.1,4.45.04,6.6499.5,4.1699.88,8.1802,3.23,10.9102,6.45.0098.01.02.03.04.04,3.4897,3.58,4.8599,8.19,2.7598,13.02-1.54,4.52-5.46,8.26-9.97,10.14-.02.01-.0398.03-.0598.04-1.03.44-2.1201.8-3.2603,1.06-.1499.04-.2998.07-.45.11-4.73,1.09-9.7698.85-14.6099.14-.99-.15-2.1401-.37-3.4402-.65-.0498,0-.0999-.02-.1599-.03-8.6599-1.52-18.1599-4.24-27.3298-6.29-.0601-.01-.1301-.03-.1902-.04-9.8899-1.92-19.99-3.14-27.46-1.83-.02,0-.04.01-.0601.01-4.0598.98-7.5698,2.88-10.3098,6.05-13.8601,24.51,6.3699,53.75,24.5298,68.71.7002.57,1.4001,1.14,2.1101,1.69.3101.2401.6199.48.9299.7,9.8301,7.24,26.4202,15.37,46.3701,24.31,10.1499,4.12,20.3,7.99,29.8,12.17,26.3999,11.65,53.0999,23.25,78.48,37.11.1399.07.27.14.4099.22,33.2,17.28,61.46,36.17,72.8701,56.42.0098.0099.02.03.0298.05,6.8701,10.4,10.1001,22.05,2.5601,32.42-22.0498,30.31-65.0801-10.26-95.45-43.2-24.0901-23.55-51.25-50.23-81.4399-69.79-30.1001-17.26-64.25-29.59-94.6101-27.62-.3599.01-.72.05-1.0898.07-9.3401.72-13.0701,1.24-17.4902,10.57-2.9199,6.16-47.6799,70.9399-47.7698,70.9399,1.1699,1.9901,1.73,4.67,2.0598,7.02.1501,1.06.3701,2.13.6602,3.2,3.3899,8.72,9.2,17.14,15.5999,24.98.01.02.03.04.05.06,5.72,6.64,11.79,12.88,16.1499,18.23,8.02,9.83,15.3301,17.35,22.6401,24.54.03.04.0601.07.0901.09,11.6299,10.8799,23.6099,21.25,32.21,33.83,0,.01.01.02.02.03,6.3999,8.45,11.1099,18.31,11.5598,28.81,0,.03.0103.06.0103.09,0,.07,0,.14-.0103.21.1301,3.5-.3198,7.06-1.2998,10.48-1.8901,7.36-5.6899,12.65-10.52,15.98-.02.03-.05.05-.0801.06-1.8201,1.38-3.8301,2.51-6.02,3.32-8.3501,3.1-17.02,1.16-24.54-3.59-7.3499-4.18-13.9099-11.23-17.8799-20.92-7.3401-16.45-25.71-38.05-32.1301-54.88-5.97-15.67-28.1699-41.13-44.3699-47.16-12.46-4.61-18.7,4.85-30.5701,12.52-7.8699,5.51-16.1699,10.22-24.71,14.47-4.5901,2.42-9.24,4.73-13.95,6.94-.4199.1899-.8301.37-1.26.55-2.0801.9-4.3701,1.71-6.78,2.5-10.1499,4.31-20.3999,8.39-30.45,12.78-1.8501,1.58-3.4299,3.37-4.6301,5.45-3.1499,6.17-4.46,16.16-4.3899,28.63-.01.02,0,.04,0,.06.1899,2.48.5901,4.96,1.1799,7.43,2.53,34.5,11.53,85.05,22.1201,128.74,7.9399,30.32,16,55.47,20.75,65.61,2.75,7.0699,5.6399,14.47,7.5298,21.92,0,.01.0103.02.0103.03,4.2798,13.12,5.7698,26.75-3.3201,36.1-.6001.62-1.3,1.29-2.0901,2-4.03,5.13-9.3799,8.79-15.3201,10.98-2.5898,1.41-5.05,2.45-7.0698,2.86-6.99,1.4-13.2302.38-19.0901-2.12-7.47-2.22-14.3401-6.58-19.3401-13.07-11.03-10.18-13.6099-26.17-13.9399-41.86v-.04c-1.1199-14.42.1501-29.4,1.02-44.31.3-15,.1501-30.05-1.49-44.89-2.8799-11.81-5.55-28.07-9.0701-45.55,0-.01,0-.02-.01-.03-5.2998-24.13-12.9299-56.58-26.8899-78.94-10.1799-15.52-23.73-25.78-42.29-25.68-.04,0-.0901.01-.1301.01-10.0698.89-20.1499.72-30.1699-.37-.1199-.01-.25-.02-.3699-.04-.3201-.03-.6301-.0601-.9602-.11-29.5898-3.35-58.3599-14.27-85.0598-27.51-.8501-.41-1.6902-.84-2.54-1.2599-1.46-.73-2.9299-1.48-4.4299-2.16-.01,0-.02-.01-.03-.01-6.1201-2.4-11.95-2.3-17.47-.51-.02,0-.04.01-.05.02-.8801.34-1.75.72-2.6001,1.11-.1299.06-.26.12-.4099.2-.1299.06-.27.12-.4199.19-.03.02-.0701.04-.1001.06-3.0701,1.53-6.23,3.64-9.47,6.29-.51.4-1.01.81-1.52,1.27-.5.41-1.01.84-1.51,1.31-.51.43-1.03.9-1.53,1.39-1.54,1.41-3.0901,2.92-4.6199,4.53-.52.54-1.03,1.08-1.55,1.64s-1.05,1.12-1.5701,1.69c-.52.58-1.05,1.16-1.5701,1.75-.21.23-.4199.47-.6299.71-5.55,6.69-10.54,13.63-14.9299,19.06-15.1902,22.17-28.3301,46.18-41.6401,70.17-.2.41-.3999.81-.6001,1.21-1.7698,3.58-3.3198,6.87-4.6299,9.73-7,15.33-18.04,32.17-30.03,48.39-10.6599,15.9-22.3298,31.03-35.8,44.76-7.77,10.86-17.4099,18.08-27.3398,22.19-4.5801,2.16-9.4001,3.71-14.46,4.45-7.55,1.11-15.5701-.06-22.5601-3.16-10.8201-4.24-18.53-12.89-19.3801-24.72v-.04c-1.1599-10.71,3.4602-21.87,10.45-30.32,8.2102-9.88,19.3201-16.84,30.0801-23.87,17.28-12.12,43.97-34.4,69.1201-61.46,30.2-33.58,57.21-73.89,64.95-110.48.1599-.42.3201-.85.46-1.28,2.77-18.08.29-35.52-9.6699-51.2-5.98-6.09-10.4402-11.32-14.1101-15.66-2.1099-2.26-4.23-4.51-6.3499-6.77-1.3701-1.48-2.76-2.96-4.1501-4.44-.6199-.67-1.3198-1.26-2.0601-1.77-.3091-.2065-.6213-.3983-.9358-.5826-2.0652-1.1798-4.4966-1.8757-7.1541-2.1873-.4302-.05-.8701-.09-1.3101-.12-.01,0-.02-.01-.03,0-6.8599-.17-16.5,2.54-32.9099,8.2-.6802.32-1.3401.66-2,1.01-.5701.3-1.1401.6-1.6899.92-.77.4301-1.51.8701-2.2402,1.32-4.9399,3.02-9.3198,6.53-13.1899,10.02-.6799.62-1.3499,1.24-2.01,1.85-.74.6801-1.45,1.37-2.1499,2.05-.05.06-.1001.11-.1501.15-.8098.79-1.6099,1.58-2.3899,2.35-19.9299,19.55-19.22,30.41-32.05,34.5699-.3499.1201-.72.22-1.0798.33-8.4102,2.48-15.77,1.39-21.52-1.82-3.29-1.58-6.27-3.87-8.6001-6.95-1.04-1.3701-1.8999-2.84-2.6101-4.3701.25.11.4902.23.7302.35,6.0898,2.87,13.1199,4.94,21.5598,2.79,2.6902-.68,8.25-2.49,31.3101-25.3,20.47-20.26,20.8-23.49,30.26-28.7,5.1599-2.84,19.8201-10.64,37.8201-7.56,12.79,2.18,22.1299,8.98,25.8301,11.74,5.52,4.11,9.75,8.65,14.0898,13.3,0,0,6.9102,7.42,11.74,14.09,15.48,21.38-10.23,84.78-3.1299,88.17,3.3398,1.6,10.24-11.95,29.73-28.17,13.23-11.01,19.8401-16.51,28.96-18.78,17.1899-4.29,23.99,6.89,69.9099,22.69,27.8701,9.59,39.3301,10.28,43.8301,10.4399,13.98.4901,16.4199-2.1299,33.9099-1.5699,20.1888.6499,30.9684,1,41.3479,7.9585,12.6742,8.497,15.971,22.8948,33.4121,24.2851,5.3937.4299,11.3409-1.5883,14.0393-6.2782,3.1227-5.4271,1.0634-12.3593,2.5856-18.4328,2.5909-10.3371,14.0995-15.0791,22.824-21.1987,10.0832-7.0725,17.4602-17.3899,27.1382-25.0076,10.7436-8.4566,23.8474-13.2376,36.706-17.8849,10.3631-3.7454,21.4407-7.6976,32.6321-7.1898,10.8899.494,20.6082,6.2641,30.4037,10.5168,1.8876.8195,4.29,1.5695,5.8196.193.8984-.8086,1.152-2.1062,1.2288-3.3124.7763-12.1875-10.8226-21.9141-12.4118-34.0225-.9367-7.1372,1.7304-14.2346,4.8193-20.7365,8.2301-17.3238,19.8523-33.0281,34.0146-45.9617,12.2797-11.2144,27.4689-22.0547,30.0029-38.4904,1.4065-9.1228-1.4978-18.2732-3.4112-27.3032-6.2304-29.4031-1.6648-61.1434,13.4818-87.1038,15.1467-25.9604,40.914-45.7256,70.1583-52.6632,8.1642-1.9368,16.9955-3.11,23.4029-8.5277s8.2806-17.1102,1.1729-21.5697c-2.899-1.8189-6.5218-1.9872-9.9389-1.7989-20.095,1.1072-38.7628,12.54-58.887,12.315-17.1763-.1921-33.2506-10.3397-42.5371-24.5078-4.0693-6.2083-9.5525-16.7757-8.3325-24.5346,1.1146-7.0887,13.1037-11.686,12.9384-17.4339-.1201-4.27-9.52-4.09-17.74-10.44-7.99-6.18-10.6702-15.02-12.52-21.13,0,0-1.6899-5.58-1.8699-14.39-.0103-.26-.0103-.52-.0103-.78.4001.51.79,1.01,1.1802,1.52,2.1499,2.84,4.1499,5.79,6.28,8.64,1.3799,1.68,2.78,3.41,4.21,5.19,7.7,7.15,17,10.84,26.95,11.89,16.3701,1.07,34.6401-4.78,47.53-11.26,1.5701-.79,3.1899-1.6,4.8401-2.47,8.6099-5.12,16.3398-11.24,22.4199-17.71.01-.02.03-.05.05-.07,5.78-7.28,7.48-12.87,15.05-16.93,3.8298-2.57,7.95-3.69,11.8298-3.57,2.9399-.14,6.0601.37,8.8801,2.16,2.21,1.41,3.9299,3.42,5.1599,5.75.03.03.05.07.0701.11,2.01,3.33,2.95,7.58,2.24,12.48-.02.12-.03.24-.05.36-.26,2.23-.8601,4.37-1.78,6.24-2.49,5.05-6.49,6.42-22.1301,14.11-21.73,10.67-17.6899,9.81-23.98,12.2401-19.0798,7.34-24.1699,3.0099-44.22,11.29-3.3,1.61-7.8799,3.62-12.23,6.11-.02,0-.03.01-.05.03-4.3098,2.7-8.1899,5.97-11.6399,10.29-1.0601,2-1.55,4.17-1.22,6.51,13.9399,29.68,55.98,31.11,98.2,25.98.03-.01.0701-.02.1101-.02,17.27-2.58,33.22-5.97,44.4199-7.53,3.0801-.43,6.1599-.84,9.24-1.23,15.1699-2.74,28.27-4.97,37.3601-5.17,6.1299-1.02,12.24-2.2,18.29-3.6299,10.0898-2.38,20.0198-5.48,29.4897-9.59.04-.01.0801-.03.1201-.05,11.0801-5.33,21.51-11.95,31.4399-19.4,12.0701-10.07,22.74-21.79,35.3201-31.26.3899-.38.77-.77,1.1599-1.16,6.49-5.01,13.01-7.49,19.1001-7.97,4.02-.45,8.1599-.06,12.3501,1.39,7.8599,2.73,13.1399,9.14,15.8098,16.87,2.79,7.1,3.1799,15.63.1301,24.44Z"/>
      <path class="cls-1" d="M782.9102,853.1181c-.3176-.6097-3.9468-7.294-11.2173-7.3044-4.7339-.0067-9.1675,2.8186-10.9565,6.7826-3.1663,7.0149,2.6482,16.0453,9.6521,18.2609.7791.2464,5.6521,1.6989,9.6523-1.0435,4.9729-3.4092,5.679-11.3007,2.8694-16.6956Z"/>
      <path class="cls-1" d="M833.5188,744.3355c-3.3442-5.808-12.4541-7.4111-18.2607-3.6522-7.2688,4.7054-7.6943,16.7339-2.0869,21.3913,3.4751,2.8864,8.6506,2.4293,12,1.0435,6.8945-2.8525,12.158-12.1656,8.3477-18.7826Z"/>
      <path class="cls-1" d="M823.0842,596.1616c-5.4187-.312-11.0581,3.821-12,8.8696-1.4155,7.5874,8.1021,15.5104,15.6521,14.087,2.991-.5639,6.0337-2.6627,7.3044-5.7391,2.6968-6.5289-2.8806-16.7523-10.9565-17.2174Z"/>
      <path class="cls-1" d="M900.3015,582.0747c-2.8901-4.8142-10.0286-5.9964-15.1304-4.1739-7.3003,2.6078-12.3601,12.057-8.8696,18.2609,2.8608,5.0845,10.6287,6.5033,16.1738,4.1739,6.991-2.9367,11.4373-12.2461,7.8262-18.2609Z"/>
      <path class="cls-1" d="M834.9536,519.8573c-1.4143-1.9462-4.1624-3.1377-6.6521-2.5435-3.9509.9429-6.407,6.181-4.6956,10.1739,1.2729,2.9698,4.7483,5.0113,7.6304,4.3043,4.3215-1.0601,6.5024-8.1022,3.7173-11.9348Z"/>
      <path class="cls-1" d="M850.2146,490.7703c-.3569-2.18-1.9209-5.2785-4.9565-5.7391-2.842-.4312-5.239,1.7128-6.261,3.6522-1.6316,3.0961-.8254,7.6949,2.3479,9.3913,1.8699.9996,4.2351.8169,6-.2609,2.6406-1.6125,3.2368-4.8006,2.8696-7.0435Z"/>
      <path class="cls-1" d="M815.7798,462.3355c-1.9172-2.9077-6.7488-3.764-9.9783-1.3696-3.1523,2.3373-3.8916,7.1146-1.5652,9.9783,1.7588,2.165,4.8708,2.7452,7.239,1.9565,4.0933-1.3632,6.6301-7.0381,4.3044-10.5652Z"/>
      <path class="cls-1" d="M829.2798,406.5747c-1.5576-3.0112-5.4641-4.2244-8.6086-3.3261-3.7197,1.0626-6.7471,5.1866-5.4783,9.1957,1.2185,3.8499,5.7844,5.6534,9.3914,4.5,4.2239-1.3507,6.6453-6.6005,4.6956-10.3696Z"/>
      <path class="cls-1" d="M666.3015,912.8573c-2.853-3.0464-8.0979-4.5827-11.4783-2.3478-4.3396,2.869-4.2871,11.0806,0,15.1304,2.989,2.8235,8.3843,3.9525,11.7393,1.3044,3.9985-3.1562,3.3145-10.2692-.261-14.0869Z"/>
      <path class="cls-1" d="M553.606,889.1181c-5.3591-3.5418-13.2983-1.1432-15.6523,4.6956-2.0962,5.199.9287,11.4068,6,13.5652,3.8813,1.6519,8.8276.8752,11.7393-2.3478,3.9985-4.4262,3.2085-12.4133-2.0869-15.9131Z"/>
      <path class="cls-1" d="M483.6929,907.6399c-2.2849-2.8384-6.9285-3.3259-9.3914-.7826-2.2517,2.3251-1.812,6.286.261,8.6087,1.8738,2.0994,5.2917,3.0957,7.8259,1.5652,3.009-1.8174,3.627-6.5061,1.3044-9.3913Z"/>
      <path class="cls-1" d="M396.3015,914.9442c-1.3711-2.5521-5.5417-3.0876-8.3479-1.8261-3.905,1.7555-5.9233,7.3308-3.9128,9.9131,1.6157,2.0753,5.5527,1.8568,8.0869.5217,3.0879-1.6267,5.7043-5.7601,4.1738-8.6087Z"/>
      <path class="cls-2" d="M740.6494,913.5094c-2.9526-3.9256-10.2234-4.6838-14.4783-.7826-3.8879,3.5648-4.2783,10.1219-1.5652,12.913,3.9758,4.0901,15.2698.7657,17.2173-5.4782.6904-2.2139.2109-4.811-1.1738-6.6522Z"/>
      <path class="cls-2" d="M876.0408,946.379c-1.3936-5.0921-7.0544-9.5889-12.522-8.2174-4.7341,1.1876-7.1763,6.2361-7.4346,10.174-.4033,6.1502,4.311,12.7825,9.7825,12.913,6.1592.147,12.0613-7.9736,10.1741-14.8696Z"/>
      <path class="cls-2" d="M915.7581,978.466c-1.6699-1.3852-4.488-1.8595-6.0652-.587-2.2712,1.8326-1.5298,6.9338,1.3696,9,1.3425.9568,3.5779,1.569,5.0869.587,2.3809-1.5494,2.3855-6.6967-.3914-9Z"/>
      <path class="cls-2" d="M662.6494,1075.379c-1.2671-4.4202-2.6936-9.3964-7.0435-10.9565-3.113-1.1166-6.8188-.1589-9.1306,1.8261-5.4014,4.6378-4.7249,16.1984,1.5654,21.6522,3.9226,3.401,10.8828,5.168,14.3477,2.087,3.5449-3.1525,1.6423-9.79.261-14.6087Z"/>
      <path class="cls-2" d="M307.4754,1093.5094c4.0278-3.0327,7.2253-9.5406,4.3044-14.4783-2.8193-4.7657-9.6687-5.2458-14.0869-3.5217-6.553,2.5571-10.9104,11.1932-7.8262,16.4348,2.9814,5.0673,12.157,5.67,17.6086,1.5652Z"/>
      <path class="cls-2" d="M240.5625,1121.8138c-1.8369-3.4519-4.4124-8.2919-8.0872-9.1304-7.9575-1.8156-21.6001,15.0106-17.4783,22.9565,2.3481,4.5268,9.9741,5.2314,14.3479,4.6957,5.5488-.6796,12.8696-4.2137,13.8262-9.9131.4729-2.8176-.7771-5.1665-2.6086-8.6086Z"/>
      <path class="cls-2" d="M523.0842,952.5094c-.7339-3.3627-5.9067-5.6883-9.3914-3.6522-3.1702,1.8524-4.1682,6.8625-1.8262,9.3913,2.001,2.1604,5.7568,1.7724,8.0869.2609,1.803-1.1695,3.655-3.5973,3.1306-6Z"/>
      <path class="cls-2" d="M839.4536,831.7268c-2.3687-2.0812-7.136.2416-7.4348.3913-3.4292,1.7187-7.061,5.9954-5.6738,9.1956,1.0488,2.4196,4.6152,3.4139,7.2393,3.1304.519-.0561,1.9326-.2251,3.3259-1.1739,3.7449-2.5501,5.1589-9.2456,2.5435-11.5435Z"/>
      <path class="cls-2" d="M1106.6494,851.8138c.5278-3.3731-4.5229-7.4105-9.1306-8.6087-4.2271-1.0992-10.9604-.5577-13.0435,3.9131-1.4358,3.0818-.2695,7.1883,2.0872,9.3913,5.7036,5.3315,19.2942.3695,20.0869-4.6956Z"/>
      <path class="cls-2" d="M1138.9971,894.3355c-2.4294-4.2426-9.0095-6.1319-13.3042-2.8696-3.792,2.8806-4.1292,8.5063-1.8262,12.2609,1.7854,2.9106,5.3933,5.0819,8.8696,4.4348,5.4304-1.011,9.2217-8.6549,6.2607-13.8261Z"/>
      <path class="cls-2" d="M907.0842,681.2051c-.958-4.3419-7.1982-6.7454-11.7393-4.9565-3.1948,1.2585-6.4009,4.928-5.4783,8.8696.9419,4.0239,5.6094,5.8649,9.1304,5.4783,4.7048-.5166,9.0139-5.1921,8.0872-9.3913Z"/>
      <path class="cls-2" d="M985.345,673.9007c-2.6487-4.8761-11.6189-5.6956-14.6086-1.5652-1.8625,2.5733-1.2278,6.8244,1.0435,9.3913,3.2527,3.6762,9.8115,3.8419,12.7827.2609,1.8484-2.2277,2.1023-5.6573.7825-8.087Z"/>
      <path class="cls-2" d="M1134.0408,531.466c-3.0745-4.1744-8.8708-4.9535-13.0437-2.8696-3.1504,1.5733-6.1011,5.1407-5.739,9.3913.4155,4.8806,4.958,7.8376,8.6086,8.6087.6182.1306,6.3564,1.2433,9.9131-2.8696,2.9548-3.4171,2.8901-8.691.261-12.2609Z"/>
      <path class="cls-2" d="M1191.4319,477.9877c-4.1177-3.7247-12.9412-1.7508-16.1738,3.913-1.8677,3.2726-2.3274,8.5802,1.0435,12,3.426,3.4757,8.9133,3.0785,12.261,1.0435,5.7651-3.5047,7.1646-13.0712,2.8694-16.9565Z"/>
      <path class="cls-2" d="M1210.606,510.8573c-1.635-1.8987-5.0454-1.7054-7.2393-.587-3.2075,1.6352-5.4585,6.0856-3.7173,8.8044,1.5129,2.3624,5.5701,2.6836,8.2173,1.1739,3.3474-1.909,4.8276-6.9662,2.7393-9.3913Z"/>
      <path class="cls-2" d="M1030.2146,539.8138c-1.8418-3.2409-6.7781-3.4621-9.7827-1.5652-2.0884,1.3184-3.9409,4.1001-3.2607,6.7826.8931,3.5227,5.8303,5.6002,9.5217,3.913,3.3542-1.5331,5.3003-6.001,3.5217-9.1304Z"/>
      <path class="cls-2" d="M979.345,441.2051c-3.1836-2.6413-8.1023-2.6573-11.4783-.2609-4.2966,3.0499-5.7087,9.7335-2.0869,14.087,3.3242,3.9957,9.4749,4.3286,13.3044,1.3043,4.698-3.7101,4.6531-11.4861.2607-15.1304Z"/>
    </g>
  </g>
</svg>