<?xml version="1.0" encoding="UTF-8"?>
<svg id="Capa_2" xmlns="http://www.w3.org/2000/svg" viewBox="0 0 867.6056 818.6548">
  <defs>
    <style>
      .cls-1 {
        fill: #f47731;
      }

      .cls-2 {
        fill: #d85319;
      }

      .cls-3 {
        fill: #fcb28d;
      }

      .cls-4 {
        fill: #ed7743;
      }

      .cls-5 {
        fill: #ff8c42;
      }

      .cls-6 {
        fill: #fc9b65;
      }

      .cls-7 {
        fill: #c64e12;
      }

      .cls-8 {
        fill: #e56525;
      }

      .cls-9 {
        fill: #d8601d;
      }
    </style>
  </defs>
  <g id="Capa_1-2" data-name="Capa_1">
    <g>
      <g>
        <path class="cls-5" d="M849.4797,345.3121c-31,10.8199-65.8401,1.75-97.9001,8-29.76,5.71-62.9199,14.71-82.6199,39.48-14.6501,18.18,9.0901,24.1,23.29,24.78,13.97,2.52,7.99,15.9.6499,14.08-49.5601-13.94-35.97,39.42-10.5,57.63,23.2,20.28,89.1599,36.76,110.9299,46.94,22.7002,13.05.2002,54.96-31.8999,23.56-19.03-18.61-10.4102-13.88-34.26-29.34-15.05-12.42-78.6599-36.14-89.4299-13.41-8.1501,15.22-19.6501,28.85-28.8201,43.47-8.29,9.5-14.3101,21.02-2.8201,31.14,0,3.9,13.55,15.22,16.3701,18.38,5.74,6.45,11.48,12.91,17.22,19.36,6.51,7.31,13.99,14.75,9.3298,25.23-9.73,21.86-34.6599,3.92-42.25-9.22-6.6299-11.47-22.25-32.49-35.0498-37.26-9.8501-3.64-14.78,3.84-24.1501,9.9-11.46,8.02-24.0798,13.89-36.8999,19.32-9.27,3.94-22.8101,6.24-28.1599,15.76-2.27,4.03-11.96,14.15-12.1301,18.77-6.4299,41.12,48.1799,107.91,17.54,135.81-14.6001,10.97-30.74,1.22-31.0901-16.35-5.1599-46.36.4001-126.86-62.1199-133.37-34.3101,3.04-67.5601-9.54-97.72-24.85-14.8401-5.44-26.01,5.93-35.5701,17.11-17.15,22.62-34.99,43.67-44.7,70.49-16.3401,50.03-58.29,8.29-35.67-10.14,38.98-32.1,60.5299-76.51,49.5299-114.97-1.3298-4.69-3.1499-9.3-5.49-13.78-2.2899-2.73-4.6299-5.74-7.08-8.71-9.0399-10.96-19.5699-21.25-34.75-13.75-9.48,2.6299-34.4,15.14-30.67-4.2,3.1602-9.97,13.42-16.01,18.2201-25.3,7.5199-14.22.12-29.91-3.29-44.14-1.21-5.82-2.87-11.77-5.2799-17.2-20.53-42.44-84.6501-11.58-115.4202,6.72-35.8298,21.32-84.3599-45.67,37.2401-41.6,29.36.98,80.7-13.39,68.88-56.84-9.3-34.15-43.5901-39.86-77.0601-39.7-40.6299.2-28.11-49.49-4.61-37.05,27.03,12.92,62.9701,38.87,93.4,24.7,12.8999-16.73,15.6699-42.5,8.5-62.28-6.03-14.94-19.5601-22.15-32.55-30.38-16.1599-10.22,2.24-29.4,8.5901-17.13,14.22,29.19,39.74,21.54,70.5599,17.4,12.1901-5.91,13.09-31.01,12.4601-42.2-.9401-16.73,4.75-37.42-1.5901-52.82-12.4099-30.12-36.9399-46.57-58.96-70.43-25.04-27.13,16.55-41.21,30.26-22.2,13.47,18.67,21.51,45.13,39.6499,64.46,72.2101,81.28,142.25,64.1,112.3801-32.66-3.6101-11.61-10.3301-50.67,14.53-39.19,21.8899,11.8701-.5601,71.4,10.4199,93.63,3.4299,8.96,11.03,14.35,20.5601,15.24,33.28,3.1,35.23-7.05,36.0398-36.55,1.1702-11.51,1.8901-39.82,19.7202-37.64,5.6599.69,10.6699,5.16,12.02,10.7,2.3999,9.94-6.02,18.91-9.3101,28.6-14.3501,63.08,54.1799,44.1899,83.4099,17.07,53.28-54.09,48.6001-138.26,82.24-119.33,37.1401,16.1-111.3198,139.25-51.22,195.74,18.98,17.84,37.6599-15,48.24-15.04,2.79-.0099,5.02,2.27,6.54,8.39,2.1699,8.64-23.5,18.99-25.3701,23.69-4.0398,10.47,2.6501,19.93,9.6301,28.47,2.49,3.05,5.02,5.99,7.1101,8.81,13.0498,16.24,42.7397,9.57,57.7798,1.08,6.9702-5.84,17.7002,2.97,13.2002,9.82-5.3101,8.08-33.3101,6.76-38.8701,13.38-35.7,21.14,35.26,49.19,50.0801,48.57,32.9099.76,53.9399-5.97,85.75-17.75,13.6699-5.05,27.0498-12.72,41.6099-12.28,22.54-.51,48.9302,28.06,21.4001,43.38Z"/>
        <path class="cls-3" d="M614.7222,6.3318c2.6518,0,5.5799.8647,8.8773,2.7203,37.1401,16.1-111.3199,139.25-51.22,195.74,4.0534,3.8099,8.0938,5.3086,12.0439,5.3086,14.546,0,27.8755-20.3171,36.1961-20.3486h.0183c2.7816,0,5.005,2.2831,6.5217,8.39,2.1699,8.64-23.5,18.99-25.3701,23.6899-4.0397,10.4701,2.6501,19.9299,9.6301,28.47,2.49,3.05,5.02,5.99,7.1101,8.8101,5.8192,7.2417,14.9508,9.9287,24.6132,9.9287,12.0059,0,24.8332-4.1445,33.1665-8.8486,1.5962-1.3374,3.391-1.9067,5.1535-1.9067,5.9339,0,11.5163,6.4453,8.0468,11.7266-5.3101,8.0801-33.3101,6.76-38.8701,13.3801-35.31,20.9089,33.7242,48.5803,49.5764,48.5803.175,0,.3417-.0034.5036-.0103,1.6833.0388,3.3367.0581,4.9609.0581,30.1298,0,50.6061-6.6306,80.7891-17.8081,13.2921-4.9104,26.3109-12.2981,40.4059-12.2981.4008,0,.8015.0059,1.204.0181.1981-.0046.399-.0068.5977-.0068,22.4047-.002,48.0906,28.2017,20.8025,43.3867-14.1415,4.9358-29.0868,5.7329-44.1981,5.7329-7.1998,0-14.4383-.1809-21.6476-.1809-10.8291,0-21.5876.4075-32.0545,2.448-29.76,5.71-62.9199,14.71-82.6198,39.48-14.6501,18.1802,9.0901,24.1001,23.2901,24.78,13.0848,2.3604,8.6666,14.2495,2.0228,14.2495-.4494,0-.908-.0542-1.373-.1694-5.6172-1.5801-10.4234-2.2954-14.4928-2.2954-31.8342-.0002-18.5903,43.7793,3.9929,59.9253,23.2,20.28,89.1599,36.76,110.9298,46.9402,16.7523,9.6304,8.8854,34.981-9.2872,34.981-6.4523,0-14.2016-3.1936-22.6126-11.4211-19.03-18.6099-10.4102-13.8799-34.26-29.3398-10.5196-8.6814-44.7676-22.8835-68.109-22.885-10.0524-.0007-18.0788,2.6326-21.3209,9.4749-8.1503,15.22-19.6503,28.8501-28.8201,43.47-8.29,9.5-14.31,21.02-2.82,31.1401,0,3.8999,13.55,15.22,16.37,18.3799,5.74,6.4502,11.48,12.9102,17.22,19.3601,6.51,7.3101,13.99,14.75,9.3299,25.23-3.2984,7.4104-8.3449,10.2476-13.8691,10.2476-10.7718,0-23.3637-10.782-28.3809-19.4675-6.6299-11.47-22.25-32.49-35.0499-37.26-1.7964-.6638-3.4305-.9578-4.9564-.958-6.8409-.0007-11.5324,5.9033-19.1937,10.8579-11.4599,8.02-24.0797,13.8901-36.8999,19.3201-9.27,3.9399-22.81,6.24-28.1599,15.76-2.27,4.03-11.96,14.1499-12.1301,18.77-6.43,41.1199,48.1799,107.9099,17.54,135.8101-4.2498,3.1931-8.6309,4.6309-12.7142,4.6309-9.9449,0-18.1277-8.5251-18.3759-20.981-5.1599-46.3599.4001-126.8599-62.1199-133.3699-3.4825.3086-6.9602.4563-10.4187.4563-30.6153,0-60.2025-11.5503-87.3011-25.3064-2.6376-.9668-5.1617-1.4028-7.5789-1.4031-11.1833-.0012-20.1302,9.3201-27.9912,18.5132-17.15,22.6199-34.99,43.6699-44.7,70.49-5.7006,17.4543-14.5211,23.7402-22.6267,23.7402-15.1277,0-27.7717-21.8801-13.0433-33.8804,38.98-32.0999,60.5299-76.51,49.5299-114.97-1.3297-4.6899-3.1499-9.3-5.49-13.78-2.2899-2.73-4.6299-5.74-7.0799-8.71-6.8876-8.3503-14.6415-16.312-24.6566-16.3127-3.1298-.0002-6.4791.7771-10.0934,2.5627-5.5153,1.53-16.2587,6.405-23.544,6.405-5.237,0-8.686-2.5168-7.1261-10.605,3.1603-9.97,13.4201-16.01,18.2201-25.3,7.5199-14.22.12-29.9099-3.29-44.1399-1.21-5.8201-2.87-11.77-5.2799-17.2002-7.5835-15.6768-21.1198-21.3518-36.7207-21.353-26.634-.0022-59.2955,16.5327-78.6996,28.073-4.938,2.9382-10.1218,4.2-15.0636,4.2-29.8523,0-51.0247-45.9785,41.9408-45.9785,3.3124,0,6.7559.0579,10.3629.1787.9229.0308,1.8716.0464,2.8353.0464,29.694,0,77.4932-14.8022,66.0447-56.8865-9.1763-33.6956-42.6836-39.7029-75.7253-39.7031-.4456,0-.8894.001-1.3347.0032-.0794.0005-.1651.0007-.2441.0007-35.8433,0-29.9514-39.05-11.7448-39.05,2.2859,0,4.7627.6143,7.3789,1.9993,21.5098,10.2815,48.6622,28.8145,74.1899,28.8145,6.5513,0,12.9956-1.2207,19.21-4.1145,12.8999-16.73,15.6699-42.5,8.5-62.2798-6.03-14.9402-19.56-22.1501-32.55-30.3801-12.4642-7.8827-4.3675-21.0969,2.9011-21.0969,2.1552,0,4.2367,1.1609,5.6889,3.9669,8.2626,16.9611,20.3432,21.4845,35.0591,21.4845,10.6102,0,22.589-2.3501,35.5009-4.0845,12.19-5.91,13.09-31.01,12.4601-42.2-.9401-16.7301,4.75-37.42-1.5901-52.8201-12.4099-30.12-36.94-46.5699-58.96-70.4299-17.0805-18.5062-3.1558-30.9414,11.7726-30.9414,6.9566,0,14.1294,2.6986,18.4874,8.7413,13.47,18.67,21.51,45.13,39.6499,64.4601,31.0851,34.9895,61.7753,51.7366,84.259,51.7366,29.7455,0,45.1327-29.2899,28.1213-84.3966-3.156-10.1495-8.688-41.2783,6.5791-41.2783,2.1968,0,4.8237.6442,7.9509,2.0883,21.8899,11.8701-.5601,71.4,10.4199,93.63,3.43,8.9601,11.03,14.3501,20.5601,15.2401,3.7923.3531,7.1808.5345,10.2042.5345,23.5084,0,25.118-10.9462,25.8355-37.0846,1.1271-11.0864,1.8367-37.7592,17.8205-37.7592.6107,0,1.2436.0389,1.8998.1191,5.6599.6901,10.6699,5.16,12.02,10.7,2.3999,9.9401-6.02,18.91-9.3101,28.6001-7.1023,31.2203,6.1024,42.3634,24.7917,42.3634,19.0718,0,43.8552-11.5961,58.6183-25.2935,48.0573-48.788,48.9617-122.0503,73.3626-122.0503M614.7223,0c-11.474,0-17.7731,10.7325-19.843,14.2593-4.3688,7.4435-8.17,17.4738-12.5714,29.0876-9.4384,24.9049-21.1826,55.8925-45.3582,80.489-14.5105,13.4084-37.7879,23.5078-54.2083,23.5078-7.6309,0-13.1587-2.0784-16.4297-6.1771-4.3713-5.4773-5.1523-15.1946-2.263-28.1168.921-2.6064,2.3324-5.2924,3.8235-8.13,3.6173-6.8838,7.7174-14.6862,5.5427-23.6937-1.9796-8.1228-9.1371-14.491-17.4088-15.4993-.8984-.1099-1.7961-.1658-2.666-.1658-6.3812,0-14.9932,2.9176-19.7833,16.8175-2.6823,7.7828-3.4636,16.7627-4.0341,23.3196-.1053,1.2107-.202,2.3257-.3025,3.3136l-.0236.2328-.0064.2339c-.3135,11.417-.7732,20.5353-3.5395,25.3765-1.6471,2.8824-4.7213,5.5499-15.9665,5.5499-2.8064,0-5.9521-.166-9.6171-.5073-7.3203-.6836-12.7311-4.661-15.2339-11.1991l-.1056-.2758-.1307-.2646c-3.9235-7.9434-2.5312-23.795-1.1848-39.1248,2.0947-23.8478,4.2605-48.5073-11.894-57.2672l-.1788-.097-.1848-.0854c-3.8931-1.7979-7.3623-2.6716-10.6056-2.6716-4.9777,0-9.1407,2.0806-12.0389,6.017-9.8031,13.3143-.6797,43.1732-.5864,43.4734,9.2088,29.8309,9.0788,53.3187-.3697,66.1239-4.9257,6.6758-12.2285,10.0608-21.7053,10.0608-22.1983,0-51.9273-18.5459-79.5253-49.6104l-.0573-.0645-.0591-.063c-10.1556-10.8218-17.1181-24.3242-23.8513-37.3821-4.8984-9.4995-9.5251-18.472-15.2808-26.4497-5.2103-7.2245-13.8205-11.3684-23.6223-11.3684-11.1759,0-20.7504,5.3741-24.3923,13.6913-2.1344,4.8746-3.9377,14.9784,7.9667,27.8765,6.288,6.8134,12.7559,13.0154,19.0107,19.0132,15.5905,14.9498,30.3164,29.0706,38.7479,49.5344,3.5312,8.5771,2.6465,20.059,1.7911,31.1627-.5032,6.5304-1.0235,13.2832-.6684,19.6003.8151,14.4825-1.7877,31.5228-8.1716,35.7312-2.9964.4122-5.9364.8519-8.7906,1.2787-8.8967,1.3306-17.2999,2.5874-24.6769,2.5874-14.6561,0-23.1643-5.1935-29.3667-17.9257l-.0336-.069-.0353-.0682c-2.4301-4.6956-6.5533-7.3884-11.3124-7.3884-6.6136,0-12.9331,5.2448-15.0263,12.4708-2.266,7.8228,1.0016,15.415,8.7408,20.3094,1.2895.8169,2.5885,1.6267,3.8851,2.4348,11.0308,6.875,21.4516,13.3701,26.1356,24.8604,6.5023,18.0579,3.7413,40.3533-6.6713,54.896-4.678,1.9495-9.6425,2.8997-15.125,2.8997-18.1043,0-38.0504-10.6455-55.6484-20.0378-5.4951-2.9329-10.6875-5.7041-15.7006-8.1047-3.3891-1.7725-6.8266-2.6709-10.2199-2.6709-6.054,0-11.5548,2.8416-15.4893,8.0017-3.4169,4.4812-5.2988,10.2512-5.2988,16.2468,0,7.3406,2.83,14.0867,7.9685,18.9956,4.0447,3.8638,11.5895,8.4695,24.5645,8.4695l.2759-.0007c.4337-.002.8675-.0032,1.3029-.0032,19.3059.0002,33.4041,2.1372,44.3677,6.7251,13.3195,5.5737,21.5781,14.834,25.2481,28.3098,3.0027,11.0381,1.602,20.1472-4.2827,27.8464-11.0511,14.4592-36.5955,21.0447-55.6527,21.0447-.886,0-1.7689-.0144-2.6241-.043-3.6163-.1211-7.1741-.1824-10.5741-.1824-24.0971,0-42.7167,3.0132-55.3416,8.9556-15.9705,7.5173-18.3551,17.8799-18.3551,23.3879,0,14.0095,14.8392,26.2991,31.7559,26.2991,6.3763,0,12.7048-1.7605,18.3015-5.0906,17.0704-10.1521,49.5749-27.1846,75.4612-27.1826,15.048.0012,25.1819,5.7871,30.976,17.6855,1.953,4.4238,3.532,9.6021,4.8257,15.8247l.0195.0938.0223.093c.7077,2.9534,1.5765,5.958,2.4168,8.8638,3.2255,11.1548,6.272,21.6907,1.4333,30.8406l-.014.0266-.0139.0269c-1.7284,3.345-4.5305,6.3999-7.4972,9.634-4.192,4.5701-8.9435,9.75-11.1335,16.6592l-.1116.3518-.0699.3625c-1.1123,5.7668-.3091,10.3469,2.3869,13.6125,1.7036,2.0635,4.9873,4.5234,10.9565,4.5234,6.2669,0,13.7527-2.6611,19.7675-4.7991,2.1024-.7473,4.0881-1.4534,5.4692-1.8364l.5761-.1599.536-.2649c2.5984-1.2837,4.9823-1.9077,7.288-1.9075,6.82.0005,12.8367,5.6008,19.7725,14.0098,1.0813,1.3108,2.1407,2.6294,3.1836,3.9277,1.1401,1.4189,2.3145,2.8806,3.4737,4.2761,1.956,3.8379,3.538,7.8665,4.7055,11.9844,9.7424,34.0632-8.8895,76.5896-47.4632,108.355-8.1608,6.6489-10.9161,16.6228-7.3452,26.6592,3.8633,10.8574,13.9025,18.4407,24.4136,18.4407,7.2602,0,20.6219-3.6394,28.6127-28.0056,8.1064-22.3357,22.1266-40.5637,36.9684-59.8591,2.1889-2.8455,4.4512-5.7869,6.6774-8.7217,6.7162-7.8442,14.5809-16.1577,23.0586-16.157,1.6653.0002,3.3281.2949,5.0728.8997,23.7991,12.0583,55.4457,25.8098,89.808,25.8098,3.4677,0,6.9454-.1433,10.3479-.4268,20.9156,2.3601,34.5829,13.7722,42.9807,35.8689,7.7001,20.261,9.4596,45.9036,11.0119,68.5276.5629,8.2021,1.0948,15.9561,1.8748,23.0388.4392,15.3494,11.0124,26.886,24.6994,26.886,5.6683,0,11.38-2.0403,16.5176-5.9004l.2388-.1794.2208-.2012c20.8979-19.0291,9.0327-50.9973-2.4419-81.9131-7.6487-20.6079-15.5577-41.9172-13.1053-57.6003l.058-.3706.0049-.1338c.5938-1.9478,4.6524-7.123,6.6226-9.635,1.9877-2.5347,3.7044-4.7239,4.7057-6.5015,2.9085-5.1755,10.366-7.7522,17.5782-10.2439,2.53-.8743,5.1462-1.7781,7.5414-2.7961,12.506-5.2969,25.7646-11.376,37.9606-19.8948,2.4845-1.6138,4.6561-3.2947,6.5753-4.7803,4.1247-3.1924,6.58-4.9988,9.0803-4.9985.8295.0002,1.7332.1851,2.7623.5657,10.2783,3.8301,25.0327,22.8457,31.7628,34.4893,5.4276,9.396,19.5228,22.6309,33.8629,22.6309,8.6541,0,15.634-4.9736,19.6539-14.0046,6.0744-13.6606-2.8315-23.5903-9.3343-30.8406-.352-.3926-.7033-.7842-1.0518-1.1753-2.9072-3.2671-5.816-6.5381-8.7248-9.8091l-8.4936-9.5493c-.9405-1.0542-2.4929-2.5127-4.4583-4.3591-2.4596-2.311-8.7637-8.2339-10.31-10.7297v-1.9426l-2.1468-1.8909c-4.3738-3.8525-8.0786-9.0647,3.4057-22.2253l.3282-.376.2652-.4226c3.6049-5.7478,7.7047-11.5137,11.6693-17.0898,6.0568-8.5186,12.3199-17.3274,17.3687-26.7556l.0735-.1372.0667-.1406c2.2928-4.8391,9.748-5.8545,15.5984-5.8542,22.3919.0015,54.956,13.908,64.0791,21.4368l.2807.2317.3054.198c15.8497,10.2742,16.6147,11.1047,21.5917,16.509,2.4138,2.6208,5.7194,6.2104,11.6854,12.0447,11.175,10.9312,20.8725,13.2258,27.0397,13.2258,11.3056,0,20.9285-7.593,23.9454-18.8945,2.9939-11.2153-1.5211-22.1697-11.5025-27.9077l-.2316-.1331-.242-.113c-7.3244-3.4253-18.9943-7.3833-32.5068-11.9663-26.2289-8.896-62.1507-21.0796-76.938-34.0056l-.2329-.2036-.2516-.1799c-13.2623-9.4819-23.1189-30.5415-19.5308-41.7295.9243-2.8818,3.1588-6.7131,11.8553-6.7131,3.6223.0002,7.9216.6929,12.7783,2.0588l.0948.0269.0956.0237c.952.2361,1.9266.3557,2.897.3557,6.5155,0,12.0916-5.2803,12.6948-12.021.5012-5.6021-2.758-12.8372-13.5934-14.792l-.4076-.0735-.4138-.0198c-11.6484-.5579-20.3183-4.1514-21.6708-7.1611-.6579-1.4639.4385-4.1326,3.0083-7.3213,18.28-22.9844,50.1321-31.718,78.8825-37.2346,10.5554-2.0576,21.5227-2.3345,30.8613-2.3342,3.5663,0,7.2192.0457,10.7518.0898,3.5681.0447,7.2576.0908,10.896.0908,14.9822,0,30.959-.7373,46.2847-6.0864l.5153-.1802.4769-.2651c11.9472-6.6484,17.1486-16.8225,14.2704-27.9136-1.8621-7.176-6.9889-14.0325-14.4357-19.3069-7.3125-5.1787-15.7343-8.031-23.7137-8.031-.1934,0-.3844.0017-.5734.0049-.4112-.011-.8209-.0164-1.2307-.0164-11.8625,0-22.5923,4.4839-32.9688,8.8198-3.3185,1.3867-6.4531,2.6965-9.6313,3.8708-29.2632,10.8369-49.1531,17.4158-78.5949,17.4158-1.5755,0-3.1953-.019-4.8144-.0566l-.2062-.0046-.206.0088c-.0765.0032-.1552.0044-.2379.0044-4.7546,0-17.4227-3.5986-29.598-9.4128-15.5269-7.4146-22.2645-14.4578-23.3925-18.5764-.2844-1.0383-1.1496-4.1978,6.6404-8.8108l.9284-.5498.6544-.7791c1.6786-1.4941,9.6067-2.9133,14.3518-3.7629,10.6416-1.905,20.6931-3.7043,25.0007-10.259,2.6215-3.9905,2.7986-8.9438.4745-13.2515-2.6736-4.9553-8.2245-8.2847-13.8128-8.2847-3.165,0-6.1554,1.0215-8.69,2.9609-6.6388,3.6497-18.1951,7.7947-29.63,7.7947-8.9721,0-15.5679-2.5151-19.607-7.4761-1.5912-2.1384-3.4062-4.3296-5.1626-6.45-.6792-.8198-1.3655-1.6484-2.0488-2.4854-7.156-8.7554-10.9281-15.153-8.8555-21.5444,1.1881-1.0861,4.5262-3.2035,7.0201-4.7854,9.9788-6.3296,21.2889-13.5037,18.8116-23.3679-1.4912-6.0039-4.9024-13.1797-12.6629-13.1797-5.9051.0222-11.182,4.4332-17.2923,9.5409-6.0607,5.0658-12.9299,10.8079-18.9221,10.8079-2.6158,0-5.1368-1.1746-7.7072-3.5906-31.4669-29.5769,3.2408-82.6969,31.1291-125.3798,18.2592-27.9457,31.4518-48.1368,27.3977-61.6481-1.3123-4.3738-4.3553-7.745-8.81-9.7681-4.1223-2.2755-7.956-3.3824-11.7108-3.3824h0Z"/>
      </g>
      <path class="cls-9" d="M534.8295,444.6821c-11.7,41.63-40.95,78.21-79.4399,97.92-22.97,11.75-50.1699,17.52-74.8398,9.94-24.6602-7.57-45.3501-30.76-44.6501-56.55.6001-22.16,15.6001-40.9901,23.29-61.78.3199-.85.62-1.71.9099-2.57,13.6301-40.24,1.1001-87.4,24.3801-124.7,19.3799-31.05,64.6099-46.18,97.6899-28.69.3801.2.75.4,1.1199.61,1.5601.86,3.0701,1.77,4.55,2.75,13.8,9.08,24.26,22.83,32.22,37.42,20.71,37.96,26.4702,84.02,14.77,125.65Z"/>
      <path class="cls-6" d="M517.8815,163.183c-7.9541-4.2869-36.731,4.8219-48.2871-.2609-5.7617-2.5343-15.563-9.0739-19.8262-19.8261-2.3796-6.0017-2.3826-11.6739-5.739-12.5217-2.3906-.6039-5.1421,1.5784-6.5217,3.2609-2.6079,3.1804-1.6819,6.2425-2.5435,9.587-2.4441,9.4876-17.2327,13.3226-20.9348,14.2826-4.8914,1.2684-12.8521,3.3328-21.1306-.3913-8.3579-3.7597-12.3452-11.3072-15.2607-16.8261-3.3392-6.3207-5.0088-9.4811-4.8914-13.6957.058-2.0826.5162-4.4192-.9783-6.2609-1.3961-1.7204-4.2212-2.6703-6.0652-1.7609-2.4895,1.2277-2.3844,5.4468-2.7391,10.1739,0,0-.6498,8.6576-3.7174,19.1739-3.5918,12.3129-20.7268,20.7941-34.4347,22.1087-17.8699,1.7137-32.1686-8.5357-39.9131-14.087-10.3531-7.4212-16.9564-13.5652-16.9565-13.5652-3.7233-3.4643-7.1761-7.0505-13.3043-11.2174-9.1742-6.2381-12.4181-5.6683-13.826-5.2174-3.297,1.056-5.699,4.3988-6.5217,7.5652-1.6366,6.2983,3.468,10.0003,6.2609,19.8261,1.4819,5.2136.6625,6.3449,1.3043,16.6957,1.1511,18.5648,4.0054,18.4451,3.913,28.9565-.0436,4.9608-.3772,19.8235-10.4347,32.6087-2.8262,3.5926-8.4684,10.765-17.7391,13.0435-3.6743.903-8.5365.4281-18.2609-.5217-12.6464-1.2353-17.6625-2.8205-21.3914.5217-2.8694,2.5719-3.1112,6.3895-3.1304,6.7826-.2332,4.7892,3.4976,8.1479,5.7391,10.9565,5.873,7.3589,5.9404,16.4762,6,24.5217.1194,16.1434-8.1176,27.6886-12,33.1304-5.0383,7.0619-10.1521,14.2297-18.7827,15.913-6.5081,1.2694-14.2297-.733-15.3912-1.0435-2.6357-.7045-6.4363-2.0233-13.3043-3.6522-3.3577-.7963-5.8741-1.2934-8.3479,0-1.5896.8311-3.8862,2.7805-3.6521,4.6956.3549,2.9029,6.3219,4.0719,15.1304,6.5217,2.9204.8123,14.9249,4.151,19.5652,6.2609,17.2815,7.8577,27.8313,42.0532,15.3914,60.7826-2.9877,4.4982-8.5298,9.9538-15.6522,13.3043-6.636,3.1217-11.6685,3.0163-22.1086,7.6304-2.6493,1.1709-7.2961,1.2917-9.1957,4.6957-.8224,1.4738-1.3423,3.7661-.3912,5.4782,1.7866,3.2164,7.9005,2.8303,11.7391,2.7391.0001,0,13.3831-.3178,26.8043,2.9348,15.7399,3.8145,14.5674,22.9199,29.9348,36.7826,16.2908,14.6956,42.3867,15.5773,59.8695,10.5652,26.8085-7.6857,37.675-36.4904,52.826-73.9565,12.0048-29.6859,10.3893-39.3214,29.3479-91.5652,10.8563-29.9164,15.2428-37.3849,22.3043-44.6087,20.9019-21.3822,43.5789-46.8051,57.1304-48.913,32.0579-4.9865,34.8262-11.3478,54.3914-3.1304,2.2981.9652,53.2817,3.8804,59.3569-21.5217,3.7744-15.782,8.4997-40.4165-3.635-46.9565Z"/>
      <path class="cls-1" d="M849.4797,345.3121c-31,10.8199-65.8401,1.75-97.9001,8-29.76,5.71-62.9199,14.71-82.6199,39.48-14.6501,18.18,9.0901,24.1,23.29,24.78,13.97,2.52,7.99,15.9.6499,14.08-49.5601-13.94-35.97,39.42-10.5,57.63,23.2,20.28,89.1599,36.76,110.9299,46.94,22.7002,13.05.2002,54.96-31.8999,23.56-19.03-18.61-10.4102-13.88-34.26-29.34-15.05-12.42-78.6599-36.14-89.4299-13.41-8.1501,15.22-19.6501,28.85-28.8201,43.47-8.29,9.5-14.3101,21.02-2.8201,31.14,0,3.9,13.55,15.22,16.3701,18.38,5.74,6.45,11.48,12.91,17.22,19.36,6.51,7.31,13.99,14.75,9.3298,25.23-9.73,21.86-34.6599,3.92-42.25-9.22-6.6299-11.47-22.25-32.49-35.0498-37.26-9.8501-3.64-14.78,3.84-24.1501,9.9-11.46,8.02-24.0798,13.89-36.8999,19.32-9.27,3.94-22.8101,6.24-28.1599,15.76-2.27,4.03-11.96,14.15-12.1301,18.77-6.4299,41.12,48.1799,107.91,17.54,135.81-14.6001,10.97-30.74,1.22-31.0901-16.35-5.1599-46.36.4001-126.86-62.1199-133.37-34.3101,3.04-67.5601-9.54-97.72-24.85-14.8401-5.44-26.01,5.93-35.5701,17.11-17.15,22.62-34.99,43.67-44.7,70.49-16.3401,50.03-58.29,8.29-35.67-10.14,43.74-36.02,65.5299-87.53,44.0399-128.75-2.2899-2.73-4.6299-5.74-7.08-8.71,8.12-.9,16.3199-.08,23.4501,4.06,11.51,6.68,12.3599,17.44,27,22.31,11.74,3.89,23.74,1.16,34.0499-1.18,12.6-2.86,13.1-5.47,24.65-8.22,13.89-3.3,23.795-14.8317,36.495-13.6917,8.7771.7868,87.8856,20.5922,154.2269-41.4783,36.5278-34.1763,46.3043-63.1966,63.6259-148.6957,3.3077-16.3268,11.1132-55.2525,15.913-63.6522,10.4348-18.2609-4.7409-31.8622-9.9108-42.0022-2.96-5.8-2.1001-13.16-.26-27.65,2.3098-18.24,3.47-27.36,8.8699-34.43,8.3-10.9,16.8801-8.62,22.1699-18.79,1.8501-3.55,2.3901-6.88,2.3301-9.95,2.79-.0099,5.02,2.27,6.54,8.39,2.1699,8.64-23.5,18.99-25.3701,23.69-5.48,14.21,8.8,26.55,16.7402,37.28,13.0498,16.24,42.7397,9.57,57.7798,1.08,6.9702-5.84,17.7002,2.97,13.2002,9.82-5.3101,8.08-33.3101,6.76-38.8701,13.38-35.7,21.14,35.26,49.19,50.0801,48.57,32.9099.76,53.9399-5.97,85.75-17.75,13.6699-5.05,27.0498-12.72,41.6099-12.28,22.54-.51,48.9302,28.06,21.4001,43.38Z"/>
      <path class="cls-7" d="M534.8295,444.6821c-11.7,41.63-40.95,78.21-79.4399,97.92-22.97,11.75-50.1699,17.52-74.8398,9.94-24.6602-7.57-45.3501-30.76-44.6501-56.55.6001-22.16,15.6001-40.9901,23.29-61.78.3199-.85.62-1.71.9099-2.57.24,6.58-.27,13.73-1.1699,19.28-1.97,12.1-5.6899,15.62-5.22,26.61.1699,3.98,1.1699,15.25,8.8699,26.09,9.1401,12.86,22.75,18.06,31.3101,19.8199,23.73,4.88,43.51-10.1,56.3401-19.8199,43.48-32.94,53.0898-84.29,54.7898-94.44,5.5601-33.37-.95-62.7401-4.1799-76.69-6.4299-27.84-15.99-44.65-17.55-53.63,1.5601.86,3.0701,1.77,4.55,2.75,13.8,9.08,24.26,22.83,32.22,37.42,20.71,37.96,26.4702,84.02,14.77,125.65Z"/>
      <path class="cls-4" d="M376.7248,346.0525c.337-2.4281,1.8158-12.2689,7.5652-24.7826,4.6689-10.1618,9.2493-20.1313,19.5652-28.6956,10.2983-8.5498,20.0388-10.491,39.3914-14.3478,9.7971-1.9525,15.1475-1.9641,20.0869.7826,4.7705,2.6527,10.0117,8.3532,9.1306,13.8261-.3469,2.1544-1.8606,5.6293-15.1306,11.7391-10.6838,4.9191-16.9668,6.0114-25.0435,8.6087-13.5869,4.3693-23.1748,7.4525-31.0435,15.3913-9.1077,9.1889-12.3557,21.2945-15.3914,32.6087-3.1912,11.8936-3.439,20.8644-5.2173,20.8696-2.1078.0061-3.6921-12.5911-3.9131-14.3478-1.3914-11.0624-.2816-19.6232,0-21.6522Z"/>
      <path class="cls-8" d="M849.4797,345.3121c-31,10.8199-65.8401,1.75-97.9001,8-29.76,5.71-62.9199,14.71-82.6199,39.48-14.6501,18.18,9.0901,24.1,23.29,24.78,13.97,2.52,7.99,15.9.6499,14.08-49.5601-13.94-35.97,39.42-10.5,57.63,23.2,20.28,89.1599,36.76,110.9299,46.94,22.7002,13.05.2002,54.96-31.8999,23.56-19.03-18.61-10.4102-13.88-34.26-29.34-15.05-12.42-78.6599-36.14-89.4299-13.41-8.1501,15.22-19.6501,28.85-28.8201,43.47-8.29,9.5-14.3101,21.02-2.8201,31.14,0,3.9,13.55,15.22,16.3701,18.38,5.74,6.45,11.48,12.91,17.22,19.36,6.51,7.31,13.99,14.75,9.3298,25.23-9.73,21.86-34.6599,3.92-42.25-9.22-6.6299-11.47-22.25-32.49-35.0498-37.26-9.8501-3.64-14.78,3.84-24.1501,9.9-11.46,8.02-24.0798,13.89-36.8999,19.32-9.27,3.94-22.8101,6.24-28.1599,15.76-2.27,4.03-11.96,14.15-12.1301,18.77-6.4299,41.12,48.1799,107.91,17.54,135.81-14.6001,10.97-30.74,1.22-31.0901-16.35-5.1599-46.36.4001-126.86-62.1199-133.37-34.3101,3.04-67.5601-9.54-97.72-24.85-14.8401-5.44-26.01,5.93-35.5701,17.11-17.15,22.62-34.99,43.67-44.7,70.49-16.3401,50.03-58.29,8.29-35.67-10.14,38.98-32.1,60.5299-76.51,49.5299-114.97,4.4601.38,8,1.65,9.7101,4.27,2.38,3.65-.2201,7.78,3.13,16.04.77,1.9,4.98,12.28,12.52,14.09,7.8799,1.89,11.73-7.42,24.6499-13.31,10.3901-4.73,19.8401-3.94,38.74-2.35,19.3101,1.63,18.1001,4.76,39.1301,6.66,11.6499,1.05,16.3999.49,34.05,2.34,13.74,1.45,18.5798,2.61,23.8699,5.09,3.6501,1.72,11.8601,6.11,18.78,14.8701,4.49,5.6899,4.0901,7.7,10.1699,19.18,2.1899,4.12,11.0601,6.29,16.8301-9.79,2.73-7.6,7.1299-11.9,14.0901-18.78,42.51-42.02,43.3799-44.52,52.0398-47.35,17.3901-5.68,35.2202-5.48,35.2202-5.48,11.0098.13,19.0898,1.97,21.9099-2.34,2.55-3.91-2.1001-8.42-3.1301-19.5699-.7898-8.4901,1.0701-15.03,2.3501-19.56,3.5801-12.64,10.53-20.61,18-28.96,10.8501-12.14,18.99-21.26,32.0901-24.26,12.6699-2.91,15.7311-.4834,16.8212-3.5235.8298-2.32,2.1688-3.1266-4.3012-9.7865-.9402-.96-20.2102-21.26-14.0901-38.74,2.0701-5.89,7.5801-13.07,14.48-14.08,6.8101-1,12.96,4.29,14.8701,1.95,1.0098-1.24.24-3.92-.78-5.47-1.1501-1.74-2.8501-2.46-3.53-2.74-9.4399-4-14.1899-6.03-15.6499-7.83-3.0801-3.79-.8101-10.41.7798-14.8699,4.954-13.8975,14.4135-27.7096,28.3279-33.7816,9.8955-4.3182,21.2638-4.1903,31.227-8.3498,2.2441-.9369,4.5324-2.2152,5.6407-4.3799.2306-.4505.4011-1.0016.1656-1.4495-.2467-.4692-.8286-.6297-1.3477-.7371-4.5513-.9416-9.1892-1.3827-13.8161-1.8222-17.5027-1.6625-37.0306-.679-51.4972-12.2201-4.54-3.62-12.3801-9.88-13.5701-20.08-.8501-7.4,1.74-17.35,8.3499-22.96,3.7202-3.16,8.76-4.97,8.6101-8.35-.0601-1.38-.97-2.72-2.0901-3.39-2.1599-1.3-4.52.3-8.0798,1.04-4.8801,1.02-9.6201-.03-12.26-1.3-3.79-1.81-6.1899-5.45-8.3501-11.22-1.52-4.05-2.55-8.16-3.22-12.01,2.49,3.05,5.02,5.99,7.1101,8.81,13.0498,16.24,42.7397,9.57,57.7798,1.08,6.9702-5.84,17.7002,2.97,13.2002,9.82-5.3101,8.08-33.3101,6.76-38.8701,13.38-35.7,21.14,35.26,49.19,50.0801,48.57,32.9099.76,53.9399-5.97,85.75-17.75,13.6699-5.05,27.0498-12.72,41.6099-12.28,22.54-.51,48.9302,28.06,21.4001,43.38Z"/>
      <path class="cls-6" d="M205.0727,88.5743c-5.1854-4.5785-5.9821-3.8187-14.8696-10.1739-7.8218-5.5931-11.7902-8.4775-14.6086-12.7826-2.3-3.5133-6.5256-9.9678-3.9131-15.6522,2.5017-5.4432,10.0505-7.5188,15.6522-6.5217,5.8621,1.0434,9.3414,5.407,11.4783,8.087,5.0531,6.3373,2.7013,8.7409,8.0869,19.5652,3.3782,6.7895,5.957,9.1672,7.5652,16.1739.3051,1.3292,1.8879,8.2258,0,9.1304-1.5166.7267-3.9689-3.0383-9.3912-7.8261Z"/>
      <path class="cls-6" d="M100.3987,325.7699c-1.0078-3.1655-4.7791-3.7372-9.5869-6.0652-7.6375-3.6981-6.4517-6.289-13.3044-9.587-4.1582-2.0012-11.1326-5.3576-16.2391-1.9565-4.3959,2.9277-6.0076,9.9302-3.7173,14.8696,2.2872,4.9328,7.8108,6.3949,11.7391,7.4348,7.4216,1.9645,8.2415-1.0423,18.9781.1957,5.6873.6557,9.4258,1.957,11.3479-.1957,1.1084-1.2414,1.2506-3.2257.7826-4.6956Z"/>
      <path class="cls-6" d="M73.9856,439.4438c-1.043-1.3413-4.0742-3.9169-28.7609,1.5652-13.4556,2.988-16.2521,4.5742-18.5869,6.4565-1.0845.8743-10.7267,8.6479-8.4131,16.2391,1.4895,4.8872,7.2833,7.562,11.5435,8.2174,8.4908,1.3062,16.0972-4.6083,22.5-9.5869,7.8036-6.0679,7.8286-9.1743,14.2827-11.5435,3.3875-1.2435,6.8798-1.6722,8.2173-4.5.9528-2.0143.6801-4.9667-.7826-6.8478Z"/>
      <path class="cls-4" d="M371.7682,389.6177c-2.0714.9383-.0797,5.9502-1.0435,14.8696-.9276,8.5848-3.913,15.913-3.913,15.9131-2.1815,5.3551-4.0033,7.3104-3.1305,10.1739.9261,3.0386,4.5366,5.9515,7.5652,5.4783,7.0184-1.0968,8.7629-20.0434,9.3914-26.8696.6887-7.4808.0742-12.2231-2.8696-15.913-1.4998-1.8799-4.3373-4.4054-6-3.6522Z"/>
      <path class="cls-5" d="M225.9422,353.3569c-1.2805-.0081-10.4441-.0659-13.5652,6.7826-2.7576,6.0506.8578,13.8576,6.2609,16.1739.8586.3681,3.1007,1.1713,5.7391.5217,8.2247-2.0249,13.2872-16.4407,8.8695-21.3913-1.8315-2.0524-4.9302-2.072-7.3043-2.087Z"/>
      <path class="cls-5" d="M290.6379,372.9221c-1.2603-2.1632-4.2883-3.1212-6.7826-2.6087-3.9285.8073-6.7661,5.3106-5.4783,9.1304.8586,2.5467,3.4548,4.5041,6,4.4348,4.6805-.1275,8.5131-7.0905,6.2609-10.9565Z"/>
      <path class="cls-5" d="M276.8118,322.0525c-1.764-2.5482-5.6067-3.9002-8.087-2.3478-2.8795,1.8022-2.8618,6.8547-.5217,9.6522,1.5939,1.9054,4.6774,3.2577,7.0435,2.087,2.9822-1.4756,3.6511-6.3785,1.5653-9.3913Z"/>
      <path class="cls-5" d="M264.1596,251.6177c-2.5199-3.5427-7.6154-6.5305-12.5217-5.087-6.0576,1.7822-7.8218,9.1408-7.826,13.3043-.0011,1.0901.1157,9.3748,6.2609,12.1304,5.3141,2.383,10.6814-1.3666,10.9564-1.5652,5.5161-3.984,7.3025-12.9175,3.1305-18.7826Z"/>
      <path class="cls-5" d="M210.1596,283.509c-1.5187-1.0915-4.1184-1.0544-5.674.587-1.6295,1.7195-1.3735,4.4192,0,6.0652,1.3136,1.5742,3.6786,2.2195,5.2826,1.3696,2.5226-1.3367,2.8888-6.2268.3914-8.0217Z"/>
      <path class="cls-5" d="M308.1161,180.1395c-2.1006-2.4513-6.1855-2.8478-9.1305-1.8261-5.4149,1.8786-8.1555,8.9608-6,14.3478,1.2483,3.1196,4.4849,6.5366,7.8262,6.2609,6.1852-.5104,11.7505-13.5943,7.3043-18.7826Z"/>
      <path class="cls-5" d="M367.6331,204.6865c-.6944-.6716-5.2166-5.0455-10.9749-4.1629-6.4651.991-10.7808,8.04-10.9747,14.3808-.1863,6.089,3.3769,13.2166,9.461,14.7592,8.03,2.0359,16.8802-6.5626,17.0298-14.7592.1024-5.6102-3.8975-9.5954-4.5412-10.2179Z"/>
      <path class="cls-5" d="M327.6813,268.5743c-.4622-3.189-3.4812-5.884-7.0435-5.7391-3.3448.1361-6.1405,2.7343-6.5217,6-.4412,3.7788,2.4984,7.1824,6,7.5652,4.2491.4646,8.171-3.6455,7.5652-7.8261Z"/>
      <path class="cls-5" d="M258.0291,171.5308c-2.7291-2.3637-7.0836-1.6183-8.6086.5217-2.1637,3.0363,1.0356,9.347,4.9565,9.913,2.1466.3099,3.806-1.2036,3.9131-1.3043,2.2632-2.129,2.5568-6.6899-.261-9.1304Z"/>
      <path class="cls-5" d="M179.6379,342.4003c-2.1306-3.5343-6.937-4.01-10.174-2.7391-4.1981,1.6482-7.0656,6.7483-5.4783,10.5652,1.7913,4.3073,8.7432,5.7492,12.9131,2.7391,3.0106-2.1732,4.932-6.9276,2.7391-10.5652Z"/>
      <path class="cls-5" d="M208.4639,457.7047c1.4613-4.1857-1.728-9.4016-6-11.4783-3.9229-1.907-9.8729-1.7086-13.0435,2.6087-3.222,4.3875-1.9017,10.7527,1.826,13.5652,3.5728,2.6956,8.2422,1.2867,9.9131.7826,1.745-.5265,6.0266-1.8183,7.3043-5.4782Z"/>
      <path class="cls-5" d="M266.8987,426.9221c-.7725-2.5691-4.7573-4.0563-7.826-2.9348-2.4845.908-4.8829,3.714-4.1088,6.4565.6841,2.4233,3.5106,3.6116,5.674,3.5218,3.6927-.1534,7.1454-4.1013,6.2609-7.0435Z"/>
      <path class="cls-5" d="M194.8987,403.0525c-.9882-3.7643-5.6001-6.1819-9.3914-4.5-3.2676,1.4496-4.9398,5.5069-3.5217,8.8044,1.6351,3.8021,6.6896,4.9915,9.9783,2.9348,2.3486-1.4688,3.653-4.5033,2.9348-7.2391Z"/>
      <path class="cls-5" d="M152.051,436.3134c-.5165-1.1353-1.6547-1.5524-1.9565-1.663-1.4143-.5183-3.3733-.263-4.5,1.1739-.7845,1.0005-1.1597,2.5664-.4891,3.8152.969,1.8048,3.7451,2.2447,5.4783,1.0761,1.3655-.9207,2.1561-2.8885,1.4674-4.4022Z"/>
      <path class="cls-5" d="M476.6379,199.183c-1.0688-1.9854-3.0415-5.6499-6.5217-6-3.7048-.3727-6.8306,3.2407-8.0869,6-1.689,3.7098-1.7363,9.692,2.3477,12.5217,4.7278,3.2757,12.0894.3162,13.8262-4.1739,1.2246-3.1658-.574-6.5065-1.5652-8.3478Z"/>
      <path class="cls-5" d="M447.1596,153.009c-2.5342-1.6932-6.4688-1.6057-9.1304.7826-2.665,2.3915-3.2166,6.3387-1.5652,9.3913,1.8018,3.3303,5.575,4.3938,8.3477,3.913.6106-.1059,1.6418-.2965,2.6089-1.0435,3.2668-2.5235,4.1323-10.1082-.261-13.0435Z"/>
      <path class="cls-5" d="M376.2031,150.1395c-1.2999-1.1101-3.4854-1.9964-5.4783-1.3043-3.2942,1.144-5.1334,6.2778-3.1304,9.913,1.7946,3.2568,6.3171,4.6647,8.8695,3.1304,3.3129-1.9914,3.1371-8.8374-.2609-11.7391Z"/>
      <path class="cls-1" d="M540.0292,270.4003c-1.8501-6.5405-8.8953-10.1003-15.1306-8.3478-5.6885,1.5987-9.542,7.2922-8.8694,13.0435.8149,6.9681,8.0591,12.1829,15.1304,10.4348,6.4421-1.5926,10.7529-8.4725,8.8696-15.1304Z"/>
      <path class="cls-1" d="M578.6379,319.9656c-3.3167-3.1525-9.1255-4.9338-13.5652-2.6087-6.2588,3.2777-7.5496,13.5395-3.1304,19.8261,3.5154,5.0007,10.8389,7.7633,15.6521,5.2174,6.6079-3.4952,7.3801-16.4119,1.0435-22.4348Z"/>
      <path class="cls-1" d="M572.6379,234.4003c-1.5107-2.3125-4.7405-4.8958-8.0869-4.1739-4.1968.9054-6.5305,6.5677-5.4783,10.9565,1.2478,5.2051,7.3247,8.8963,11.2173,7.3043,4.2166-1.7244,5.3794-9.4469,2.3479-14.087Z"/>
      <path class="cls-1" d="M488.7682,239.4873c-1.0781-3.0973-5.6931-4.2343-9-3.1304-2.5063.8366-5.365,3.3287-5.0869,6.2609.3193,3.367,4.6265,5.7482,8.2173,5.087,3.8721-.7131,6.9966-4.9798,5.8696-8.2174Z"/>
      <path class="cls-1" d="M426.9423,254.7482c-.1904-3.0462-2.7844-4.6811-3.1306-4.8913-2.9146-1.7697-7.813-1.4992-9.5869,1.7609-1.5159,2.7858-.0278,6.4277,2.3479,8.2174.2656.2,3.1917,2.3266,6.4565.9783,2.3582-.9739,4.0781-3.4241,3.9131-6.0652Z"/>
      <path class="cls-1" d="M360.8118,318.9221c-.0435-3.3428-2.7137-5.961-5.4783-6.8478-3.676-1.1793-7.1646.8163-9,2.9348-1.9696,2.2734-3.5287,6.412-1.5653,9.3913,2.2366,3.3939,7.5841,3.0681,10.7609,1.5652,1.0753-.5088,5.3381-2.778,5.2827-7.0435Z"/>
      <path class="cls-1" d="M354.9422,405.009c4.6763-2.5625,5.452-13.5714,0-19.1739-.4532-.4658-3.7303-3.7269-8.6086-3.5217-5.7543.242-11.366,5.2072-11.3479,10.5652.0211,6.298,7.8083,9.5008,11.3479,10.9565,3.0702,1.2628,6.1415,2.5259,8.6086,1.1739Z"/>
      <path class="cls-1" d="M304.0727,503.2264c-.9086-4.2751-5.4464-6.7728-9.3914-5.8696-4.6954,1.075-7.4736,6.7213-5.4783,10.9565,1.5609,3.3131,5.7089,5.0535,9.3914,3.9131,3.723-1.153,6.318-5.0486,5.4783-9Z"/>
      <path class="cls-1" d="M218.7682,511.4438c-3.6333-3.661-11.4858-1.7379-12.913,2.3478-.9442,2.7032,1.0012,6.1324,3.5217,7.8261,2.6173,1.7587,7.1127,2.4912,9.7826-.3913,2.6337-2.8434,1.8939-7.4799-.3914-9.7826Z"/>
      <path class="cls-1" d="M277.2682,534.3351c-.9801-2.5593-4.1993-3.7969-6.6521-2.5435-1.9795,1.0115-3.0444,3.4332-2.3479,5.6739.7191,2.3131,3.083,3.6862,5.2827,3.3261,2.8341-.4639,4.7719-3.7029,3.7173-6.4565Z"/>
      <path class="cls-1" d="M333.2248,572.4873c.1832-2.4799-1.0175-4.8712-2.9347-6.2609-2.762-2.002-7.0638-1.964-9.587.7826-2.8695,3.1236-1.8182,7.9868.7826,10.3696.2308.2115,2.3191,2.063,5.2826,1.7609,3.2942-.3358,6.2002-3.1829,6.4565-6.6522Z"/>
      <path class="cls-1" d="M518.8986,519.009c.8291-1.8806-.5327-4.3654-2.3477-5.4782-2.1233-1.3019-5.2512-.9614-6.7827,1.0435-1.0933,1.4313-1.427,3.782-.2607,5.2174.9434,1.1611,2.4773,1.2422,3.6521,1.3044,1.0044.0531,4.7092.2491,5.739-2.087Z"/>
      <path class="cls-1" d="M562.464,436.8351c3.4956-2.0383,3.729-8.5278.5217-10.6957-1.8689-1.2632-4.7029-.9216-6.5217.5218-2.7944,2.2176-3.1406,6.9944-.5217,9.3913,1.7502,1.602,4.5789,1.9155,6.5217.7826Z"/>
      <path class="cls-8" d="M620.6379,356.2264c-.5735-.2478-3.158-1.271-5.4783,0-2.9392,1.6101-4.3,6.2691-2.0869,9.3913,1.521,2.1457,4.4368,3.1521,7.0435,2.3478,3.1499-.9719,5.051-4.3419,4.4348-7.3043-.6145-2.9545-3.4712-4.2439-3.9131-4.4348Z"/>
      <path class="cls-8" d="M634.7248,331.8351c-.4871-1.9309-3.0427-3.4117-5.2825-2.9348-3.0063.6401-4.5532,4.6176-3.3262,6.8478.8174,1.4855,2.6177,1.7453,2.739,1.7609,2.9688.3818,6.5635-2.9233,5.8696-5.6739Z"/>
      <path class="cls-8" d="M624.9423,282.9221c-.7351-1.7175-2.9902-2.741-4.8914-2.1522-2.541.787-3.6008,4.1918-2.3479,6.2609.6824,1.1267,2.0337,1.8298,3.3262,1.7609,2.5977-.1385,4.9714-3.3964,3.9131-5.8696Z"/>
      <path class="cls-8" d="M608.3769,452.4873c2.7515-3.0902,1.9419-8.1172-.2607-11.2174-2.1208-2.9851-5.7429-4.4787-9.1304-4.1739-4.8142.4332-9.6956,4.5474-9.3914,9.1304.3557,5.3567,7.5457,7.589,8.3479,7.8261,1.2212.3609,7.1572,2.1154,10.4346-1.5652Z"/>
      <path class="cls-8" d="M567.4206,559.9656c4.2092-2.9141,5.4292-10.7225,1.9563-14.087-2.8257-2.7375-7.6965-1.504-9-1.1739-4.4031,1.115-9.6545,4.8429-9.3911,8.6087.355,5.0741,10.7483,10.5891,16.4348,6.6522Z"/>
      <path class="cls-8" d="M509.1161,572.4873c.2451-2.3861-1.0037-4.9534-3.3262-6.0652-3.0061-1.4391-5.9009.4743-6.0652.5869-3.1094,2.1319-4.3193,7.4081-1.7607,9.9783,2.0342,2.0433,5.7229,1.6457,8.0217.1956.4263-.2689,2.8313-1.7861,3.1304-4.6956Z"/>
      <path class="cls-8" d="M468.6813,623.096c1.7366-1.1675,1.8501-3.7708.6521-5.3478-1.0168-1.3383-3.0249-1.9994-4.5652-1.1739-1.8518.9925-2.3032,3.7462-1.0435,5.4783,1.0803,1.4851,3.3494,2.124,4.9565,1.0435Z"/>
      <path class="cls-8" d="M454.9858,592.4438c.3152-3.115-1.2227-6.6308-4.4348-8.3478-3.217-1.7197-7.011-1.0454-9.5217,1.0435-2.6436,2.1993-4.1653,6.2169-2.7393,9.1305,1.2432,2.5399,4.22,3.2066,7.9565,4.0435,2.157.4831,3.4858.7611,4.9565.1304,3.2532-1.3951,3.7585-5.7602,3.7827-6Z"/>
      <path class="cls-8" d="M395.4423,606.9221c1.0615-1.8293.3945-4.2771-.9783-5.6739-1.7517-1.7824-5.165-2.3754-7.0435-.3913-1.8164,1.9187-1.1855,5.1783.5869,6.8478,1.207,1.137,3.0312,1.6193,4.6956,1.1739.3499-.0937,1.8989-.5082,2.7393-1.9565Z"/>
      <path class="cls-8" d="M371.0835,582.9547c.0034-.4267.0156-1.949-1.174-2.837-1.0532-.7862-2.6991-.8144-3.7174.0978-1.318,1.1807-1.0597,3.466.1957,4.5978,1.172,1.0567,3.1849,1.0823,4.1086.0978.5763-.6142.5831-1.4666.587-1.9565Z"/>
      <path class="cls-8" d="M358.0727,613.9656c3.7115-1.7389,4.8696-8.7758,1.3695-12.3261-2.5088-2.5448-7.4421-3.3297-10.174-.5869-2.7904,2.8016-1.5886,7.5816.587,10.1739,1.911,2.2769,5.5253,4.0004,8.2174,2.7391Z"/>
      <path class="cls-8" d="M586.0727,497.7482c.2322-1.8539-.9321-4.1445-2.7393-4.4348-2.157-.3465-4.5374,2.2676-4.0435,4.4348.5088,2.2328,3.9233,3.352,5.6086,2.2174.9788-.6589,1.1365-1.9178,1.1741-2.2174Z"/>
      <path class="cls-8" d="M300.9422,606.9221c-.2975-1.9079-2.3018-3.5911-4.1086-3.1304-1.9039.4854-3.007,3.2028-1.9565,5.0869.8864,1.5899,3.1609,2.3262,4.6957,1.3696,1.1578-.7216,1.5468-2.1898,1.3695-3.3261Z"/>
      <path class="cls-8" d="M685.9858,348.009c.3867-1.4041-.9971-2.9385-2.4783-3.2609-1.335-.2905-3.0229.3437-3.3914,1.5652-.4292,1.4232,1.0767,3.168,2.739,3.3913,1.2249.1646,2.791-.4625,3.1306-1.6956Z"/>
      <path class="cls-2" d="M360.9422,637.7047c-.0564-.2084-1.0721-3.7502-3.9131-4.0435-2.4257-.2505-4.8262,2.0072-4.9564,4.5652-.1116,2.1907,1.4742,3.9662,3.1304,4.6956.2001.0881,2.9807,1.2625,4.826-.3913,1.7866-1.6012,1.0375-4.3667.9131-4.8261Z"/>
      <path class="cls-2" d="M409.9858,631.7047c-1.9197-2.8491-5.7446-3.4805-8.4783-2.3478-3.9241,1.6259-5.8362,6.9851-3.7827,10.1739,1.626,2.5248,5.2107,2.8702,7.4348,2.4782.759-.1338,3.2852-.5789,4.8262-2.8696,1.458-2.167,1.5059-5.2,0-7.4348Z"/>
      <path class="cls-2" d="M437.5075,669.2373c.5188-.7064-.0945-2.2324-1.125-2.4457-.5579-.1155-1.2856.144-1.5652.7337-.332.7003.1218,1.5417.7336,1.9076.6492.3882,1.5874.3071,1.9565-.1956Z"/>
      <path class="cls-2" d="M471.8117,710.2264c-.0256-.4674-.2971-4.2498-3.5217-6.3913-2.0945-1.3909-5.8313-2.3528-7.9565-.3913-2.3755,2.1924-1.1416,6.5643.3914,8.8696.4209.6329,2.2803,3.4288,5.4783,3.5217,1.7888.052,4.054-.7401,5.0869-2.6087.6245-1.1298.5642-2.2289.5217-3Z"/>
      <path class="cls-2" d="M471.7465,788.4873c3.1616-.8953,4.5334-5.4655,3.9131-8.8044-.7732-4.1613-4.8079-7.3087-8.4131-7.2391-.6123.0118-1.4958.0289-2.3479.587-2.981,1.9526-3.05,8.8743.3914,12.7174.3352.3744,3.3267,3.6255,6.4565,2.7391Z"/>
      <path class="cls-2" d="M544.3334,595.5742c-2.394-3.3876-7.3936-5.7177-11.3477-3.913-4.8413,2.2095-6.1145,9.7039-3.1306,14.4782,2.4663,3.9462,8.0542,6.3757,12.1306,4.3044,4.8186-2.4485,5.6313-10.2232,2.3477-14.8696Z"/>
      <path class="cls-2" d="M198.4205,715.8351c-.5619-2.7265-3.2396-3.7287-3.3914-3.7826-1.9436-.69-4.7555-.3653-6,1.6957-1.3176,2.1819.0184,4.8246,1.3044,6.1304.1899.1929,2.6547,2.6182,5.3478,1.5652,2.1733-.8497,3.1836-3.4517,2.7391-5.6087Z"/>
      <path class="cls-2" d="M241.6596,666.9873c2.8053-.8782,4.7113-4.4653,3.7174-7.4348-.6449-1.9265-2.6202-3.9216-4.8914-3.7174-2.2615.2032-3.4674,2.4658-3.7174,2.9348-1.3184,2.4734-1.1678,6.3257,1.174,7.826,1.5979,1.0237,3.4641.4706,3.7174.3914Z"/>
      <path class="cls-2" d="M791.2465,559.8351c.0354-.374.4094-5.0697-2.8696-7.0435-2.0146-1.2128-4.2346-.6913-4.9563-.5217-3.2795.7704-7.3357,3.9458-6.7827,7.6956.4917,3.3347,4.3223,5.0491,6.6521,5.4782.8303.1529,3.9573.7289,6.1306-1.3044,1.5562-1.4559,1.7427-3.4259,1.8259-4.3043Z"/>
      <path class="cls-2" d="M626.3117,498.3351c-2.3762-1.7001-7.02-.7025-8.8042,2.5435-1.0764,1.9583-1.1458,4.7968.5869,6.8478,1.834,2.1708,4.9685,2.6093,7.0435,1.5652,3.7615-1.8927,4.2439-8.7599,1.1738-10.9565Z"/>
      <path class="cls-2" d="M652.2031,431.2264c-.3682-.4321-2.801-3.288-6-2.6087-2.5623.5441-4.2336,3.0626-4.4348,5.3478-.3323,3.7759,3.4177,6.1411,4.4348,6.7826.7981.5034,4.1086,2.5913,6.261,1.3044,2.6084-1.5597,2.5659-7.5076-.261-10.8261Z"/>
      <path class="cls-2" d="M675.8117,498.5308c.894-2.1417-1.1843-5.2182-3.7825-6.1304-1.6365-.5746-4.2729-.5692-5.4783,1.1739-1.3357,1.9314-.1692,4.9185,1.6956,6.2609,2.4773,1.7832,6.615.9721,7.5652-1.3044Z"/>
      <path class="cls-2" d="M821.964,334.5743c.6597-.9685,4.553-6.9305,2.3477-10.5652-2.3289-3.8384-10.0913-2.8265-14.4783-1.1739-2.1135.7962-9.196,3.4643-9.3911,9-.1479,4.1999,3.7424,7.9517,7.6304,9,4.2727,1.152,7.9954-1.1087,9.3914-1.9565.7458-.4529,2.7834-1.7839,4.5-4.3044Z"/>
      <path class="cls-2" d="M751.9206,340.4438c2.1953.4469,4.7571-.3949,6.0652-2.5435,1.396-2.293.9062-5.3227-.9783-7.0435-2.1326-1.9474-4.9912-1.2502-5.2827-1.1739-2.1599.5654-4.4612,2.5129-4.5,5.2826-.0391,2.7788,2.219,4.974,4.6958,5.4783Z"/>
      <path class="cls-2" d="M652.7248,319.9003c-.8081-2.6144-2.7915-4.548-5.0869-4.8913-3.8181-.5711-7.9231,3.3441-7.2393,7.2391.5015,2.8569,3.4897,5.1915,6.6523,4.8913,3.363-.3192,6.0413-3.5337,5.6738-7.2391Z"/>
      <path class="cls-3" d="M192.7465,281.5525c-2.9763-4.4336-1.063-7.3864-2.7391-12.5217-2.085-6.3882-6.4982-6.2688-6.4564-10.7609.0369-3.9609,3.5056-8.0801,7.2391-9,1.2979-.3198,2.2826-.168,3.5217,0,6.9667.9444,13.0618,1.1914,15.8478,1.1739,3.3047-.0207,6.9912-.0439,11.3478-1.7609,1.9744-.7781,5.7252-2.2564,9.1957-5.6739,2.1696-2.1364,2.8748-3.6966,5.4783-4.8913.564-.2588,4.2144-1.9339,5.8696-.3913,1.5515,1.4458.4181,4.8498.1956,5.4783-1.5951,4.5033-6.0571,6.6079-11.5435,9.1957-4.3307,2.0427-8.2516,3.892-13.6957,4.1087-3.8333.1526-5.2338-.6312-9.7826,0-4.0068.556-6.9518.9646-8.413,3.1304-.8888,1.3173-.4615,2.1477.1956,10.7609.2639,3.4587.3497,5.3532,0,7.8261-.292,2.0647-.8341,5.8972-2.5435,6.2609-1.5289.3253-3.2756-2.2766-3.7174-2.9348Z"/>
      <path class="cls-3" d="M183.9422,311.8786c-4.0459,3.5576-4.4677,7.8792-6.2609,11.7391-2.8184,6.0668-8.183,9.1819-10.5652,10.5652-5.5846,3.2429-10.8521,3.5464-17.2174,3.9131-6.3868.3679-9.5802.5519-12.9131-.9783-2.86-1.3131-5.642-3.6084-7.2391-2.5435-.6097.4066-.9637,1.2475-.8478,1.9565.2614,1.598,2.9071,2.5124,6.3914,3.2609,9.4922,2.0391,16.6954,1.3044,16.6956,1.3044,6.8324-.6969,13.8455-1.4123,21.1305-6.2609,1.1091-.7382,6.2451-4.2481,10.174-10.4348.4818-.7586,2.1128-3.3959,3.1304-7.1739.2618-.972,1.6024-5.9494.2609-6.6522-.1788-.0937-.8589-.349-2.7391,1.3044Z"/>
      <path class="cls-3" d="M178.4639,65.1612c-1.0404-.8743-3.1459-2.6888-4.3043-5.8696-.521-1.4307-2.2229-6.1035.3914-9.7826,2.1439-3.0173,6.7944-4.8084,9-3.1304,1.745,1.3275,1.4053,4.4048,1.3695,4.6957-.4252,3.4557-3.2086,3.7856-4.1086,7.0435-1.1918,4.314,2.4432,8.2438,1.3695,9-.7559.5323-2.838-1.2175-3.7174-1.9565Z"/>
      <path class="cls-3" d="M245.9639,161.2264c-1.6685-.6245-.0239-4.5569-1.9565-9.7826-1.7832-4.8218-4.3065-4.511-5.8695-9.1957-1.1118-3.3323-1.5552-8.6452,1.3695-11.1522,1.4459-1.2394,3.8594-1.9168,5.2827-.9783,2.2592,1.4897,1.0425,6.4035.9781,6.6522-.434,1.678-.9187,1.6891-1.1738,2.9348-.5231,2.5536,1.1671,4.2001,3.1304,8.0217,1.9459,3.7877,3.7122,7.2259,2.5435,10.1739-.8224,2.0744-3.0538,3.7941-4.3043,3.3261Z"/>
      <path class="cls-3" d="M33.551,469.4438c-3.533.356-6.2172-1.0083-7.8262-1.8261-2.1426-1.089-4.5562-2.3158-4.6957-4.4348-.0991-1.5055.9655-3.2203,2.3479-3.6522,1.2766-.3988,2.6771.4733,5.4783,2.2174,2.163,1.3468,2.2917,1.7451,3.3912,2.087,1.7166.5337,3.2998.1524,5.3479-.5218,6.0463-1.9902,9.1665-4.2365,9.5217-3.7826.3385.4324-2.0575,3.0278-4.5652,5.0869-3.1367,2.5757-5.4404,4.4674-9,4.8261Z"/>
    </g>
  </g>
</svg>