<?xml version="1.0" encoding="UTF-8"?>
<svg id="Capa_2" xmlns="http://www.w3.org/2000/svg" viewBox="0 0 867.6054 818.6548">
  <defs>
    <style>
      .cls-1 {
        fill: #70569b;
      }

      .cls-2 {
        fill: #5f488c;
      }

      .cls-3 {
        fill: #9570c2;
      }

      .cls-4 {
        fill: #b29ad8;
      }

      .cls-5 {
        fill: #604593;
      }

      .cls-6 {
        fill: #47327c;
      }

      .cls-7 {
        fill: #a486ce;
      }

      .cls-8 {
        fill: #735aaf;
      }

      .cls-9 {
        fill: #8566b2;
      }
    </style>
  </defs>
  <g id="Capa_1-2" data-name="Capa_1">
    <g>
      <g>
        <path class="cls-3" d="M475.2059,815.4893c-11.9648.0005-21.2021-10.2793-21.5391-23.9375-.7803-7.0525-1.3135-14.8181-1.877-23.0369-3.1162-45.4197-6.9893-101.9238-57.1094-107.3618-3.4111.293-6.9043.4414-10.3896.4417-33.7783.0017-65.0537-13.6392-88.5615-25.5613-2.1318-.762-4.2578-1.1482-6.3193-1.1482-9.8477,0-18.3369,8.9346-25.5244,17.3352-2.2354,2.9468-4.4814,5.8669-6.7197,8.7769-15.0059,19.5095-29.1816,37.9385-37.4531,60.7578-7.3672,22.5081-19.2119,25.8723-25.6191,25.8733-9.0488.0017-18.0615-6.8674-21.4307-16.333-3.1035-8.7197-.7158-17.3806,6.3867-23.1675,40.1426-33.0574,58.7256-75.8413,48.4854-111.645-1.2568-4.4355-2.9697-8.7664-5.0957-12.8845-1.2031-1.4421-2.4209-2.9573-3.6611-4.501-1.0518-1.3091-2.1201-2.6387-3.2109-3.9604-7.5059-9.1006-14.1562-15.1614-22.2148-15.1614-2.8037,0-5.6465.7312-8.6904,2.2351l-.2676.1326-.2881.0798c-1.4902.4131-3.5273,1.1375-5.6846,1.9041-5.7852,2.0564-12.9854,4.6155-18.7061,4.6162-3.8018.0005-6.667-1.134-8.5146-3.3721-2.0957-2.5378-2.6582-6.1355-1.7197-10.9985l.0352-.1812.0557-.1758c1.9785-6.2419,6.2842-10.9363,10.4482-15.4758,3.1133-3.3943,6.0537-6.6006,7.9766-10.3208,5.4502-10.3076,2.0811-21.9597-1.1768-33.2278-.8301-2.8708-1.6885-5.8394-2.3799-8.7212-1.3652-6.5615-3.0186-11.9641-5.0742-16.6072-6.3721-13.1333-17.4443-19.5181-33.8467-19.5181-26.6475,0-59.7324,17.3101-77.082,27.6284-5.1045,3.0376-10.873,4.6438-16.6816,4.6448-10.7666.0017-21.209-5.552-25.9834-13.8196-3.4297-5.9395-3.4961-12.3682-.1855-18.1021,7.5898-13.1482,31.7783-20.3889,68.1094-20.3889,3.3682,0,6.8896.0608,10.4688.1807.8887.0295,1.8018.0444,2.7295.0444,20.4746,0,46.4014-6.8916,58.1689-22.2878,6.4326-8.4175,8.0557-18.7134,4.8213-30.6016-9.0195-33.1206-43.5742-37.3682-72.6699-37.3682,0,0-1.584.0037-1.5859.0037-12.2705.0002-21.6045-4.4617-26.2832-12.5637-4.1514-7.1897-4.1162-16.5442.0908-23.8311,3.2969-5.7114,8.5654-8.9871,14.4541-8.9871,2.8926,0,5.8535.7859,8.8008,2.3362,4.9668,2.3762,10.1465,5.1406,15.6289,8.0669,17.9258,9.5671,38.2432,20.4106,57.1396,20.4106,6.2334,0,11.8594-1.1455,17.1709-3.499,11.4277-15.3467,14.5537-39.2983,7.583-58.5933-5.0576-12.4802-15.9199-19.2495-27.4189-26.4165-1.29-.804-2.583-1.6096-3.8701-2.4253-6.4775-4.0969-9.2412-10.3596-7.3896-16.7515,1.6826-5.8069,6.835-10.1858,11.9854-10.1858,2.0771,0,5.9443.7378,8.501,5.6777,6.7627,13.8809,16.3965,19.7737,32.2471,19.7737,7.6123,0,16.1279-1.2737,25.1445-2.6218,3.0479-.4561,6.1943-.9265,9.3936-1.3613,9.5234-5.2124,10.9443-26.8418,10.2617-38.9575-.3428-6.1062.1689-12.7515.6641-19.178.8848-11.4739,1.7988-23.3384-2.0205-32.6145-8.6855-21.0798-23.6445-35.4248-39.4834-50.6121-6.2207-5.9653-12.6523-12.1333-18.875-18.876-10.6836-11.5747-9.2178-20.293-7.3936-24.4595,3.1377-7.165,11.5732-11.7949,21.4922-11.7949,8.7725,0,16.4463,3.6648,21.0557,10.0554,5.6162,7.7852,10.1904,16.6553,15.0322,26.0461,6.833,13.2515,13.8994,26.9541,24.3584,38.0991,28.2471,31.7939,58.8613,50.7371,81.9502,50.7371,10.3887,0,18.7754-3.9236,24.2529-11.3469,10.0605-13.6348,10.3604-38.1216.8428-68.95-2.2949-7.3811-7.2051-30.707.1152-40.6494,2.2773-3.0935,5.5586-4.7285,9.4893-4.7285,2.7373,0,5.8584.8008,9.2783,2.3799l.0928.0427.0889.0486c14.3281,7.7693,12.2549,31.3767,10.25,54.2065-1.3848,15.7644-2.8174,32.0657,1.5,40.8044l.0654.1323.0527.1382c2.9131,7.6108,9.4365,12.429,17.8965,13.2192,3.7627.3506,7.0049.521,9.9102.521,19.7334,0,21.915-6.4436,22.6709-34.0056l.0039-.1169.0117-.1162c.1016-1.0017.2002-2.1323.3066-3.3596,1.1318-13.0166,3.2402-37.2454,20.6631-37.2454.7412,0,1.5098.0481,2.2832.1426,6.9902.8521,13.041,6.2358,14.7129,13.0928,1.8955,7.8547-1.7451,14.7834-5.2666,21.4844-1.5801,3.0059-3.0732,5.8479-4.0703,8.7305-3.2002,14.1785-2.2451,24.5947,2.8379,30.9641,3.9014,4.8892,10.2627,7.3682,18.9043,7.3682,17.1484,0,41.3867-10.4863,56.4131-24.4001,24.6797-25.0806,36.5635-56.4397,46.1143-81.6409,9.0869-23.978,15.6533-41.3027,29.4541-41.3027,3.2383,0,6.6055.9976,10.29,3.0491,3.71,1.6509,6.1309,4.2896,7.1982,7.8455,3.6309,12.1016-9.8936,32.8003-27.0156,59.0061-28.5352,43.6724-64.0479,98.0244-30.6475,129.4187,3.1855,2.9941,6.416,4.4497,9.876,4.4497,7.1406,0,14.4785-6.1335,20.9521-11.5449,5.6396-4.7144,10.5107-8.7861,15.2314-8.8037,6.9443-.0002,8.9619,8.1235,9.624,10.793,1.918,7.637-8.3652,14.1599-17.4385,19.915-3.1025,1.968-7.3379,4.6548-8.0908,5.7822-3.3496,8.8186,2.6904,17.2961,9.1689,25.2219.6924.8484,1.3867,1.6863,2.0732,2.5154,1.8223,2.2,3.5439,4.2783,5.0908,6.3618,5.8115,7.1887,15.2256,8.6992,22.1074,8.6992,12.1611,0,24.4395-4.4465,31.3799-8.3103,2.0156-1.6011,4.4092-2.4451,6.9404-2.4451,4.458,0,8.8896,2.6611,11.0264,6.6221,1.7891,3.3152,1.667,6.9634-.334,10.0088-3.5596,5.4175-12.96,7.1003-22.9131,8.8818-6.3711,1.1406-14.3008,2.5601-16.1777,4.7959l-.3477.4133-.4639.2749c-9.8691,5.8438-8.5234,10.7566-8.0811,12.3711,3.9873,14.5574,44.0938,30.3191,56.0439,30.3191.1299,0,.4746-.0117.4746-.0117l.1025.0024c1.6582.0383,3.2871.0574,4.8877.0574,29.9697,0,50.0996-6.6533,79.6895-17.6111,3.2432-1.1982,6.5547-2.582,9.7578-3.9204,10.0879-4.2158,20.5195-8.575,31.7471-8.575.4053,0,.8105.0056,1.2168.0171.1943-.0037.3906-.0056.585-.0056,15.2402,0,31.6367,11.667,35.0879,24.9678,1.4619,5.6321,1.749,16.2852-12.7461,24.3511l-.2383.1328-.2578.0898c-14.8789,5.1936-30.5371,5.9097-45.2412,5.9097-3.6191.0002-7.2998-.0459-10.8584-.0906-3.542-.0442-7.2041-.0901-10.7891-.0901-9.4902,0-20.6484.2837-31.4492,2.3894-29.3291,5.6274-61.8496,14.582-80.7471,38.3433-3.5039,4.3489-4.6582,7.9172-3.4434,10.6213,2.4795,5.5171,14.3896,8.5461,24.4072,9.0256l.207.01.2031.0366c8.7227,1.5735,11.4023,6.9165,11.0029,11.3923-.4512,5.0383-4.7305,9.1382-9.542,9.1389-.7129.0002-1.4316-.0881-2.1348-.2627-5.2314-1.4697-9.8193-2.2021-13.7305-2.2021-7.9707,0-12.9736,2.9983-14.8701,8.9121-4.0117,12.5088,6.2432,34.9331,20.7041,45.2717l.125.0898.1172.1021c15.2598,13.3389,50.0498,25.1384,78.0039,34.6199,13.4238,4.553,25.0166,8.4849,32.1826,11.8359l.1211.0566.1162.0667c8.7002,5.0015,12.6338,14.5569,10.0215,24.3438-2.6406,9.8965-11.0342,16.5464-20.8867,16.5476-7.998.0012-16.583-4.2603-24.8262-12.3237-5.9072-5.7764-9.1807-9.3308-11.5703-11.926-5.2119-5.6589-6.0127-6.5288-22.1982-17.0205l-.1523-.0989-.1406-.1157c-9.4326-7.7842-43.0361-22.1609-66.0938-22.1609-9.8398,0-16.0508,2.5786-18.46,7.6646l-.0703.1387c-4.9541,9.2524-11.1582,17.979-17.1592,26.4182-3.9902,5.6121-8.1162,11.415-11.7695,17.2397l-.1318.2112-.1641.188c-10.041,11.5063-11.001,19.7356-3.1133,26.6826l1.0732.9456v1.2815c.7129,2.3135,8.125,9.2773,11.3096,12.2688,1.9072,1.7927,3.415,3.2087,4.2568,4.1519l17.2227,19.3635,1.0596,1.1841c6.2539,6.9736,14.0381,15.6528,8.7979,27.437-4.4609,10.0225-11.5771,12.1267-16.7617,12.1272-12.9355.0012-26.2188-12.5601-31.1221-21.05-7.166-12.3967-22.2705-31.7239-33.4141-35.877-1.3789-.5095-2.6416-.7585-3.8516-.7585-3.7041,0-6.9326,2.4983-11.0186,5.6611-1.8818,1.4565-4.0137,3.1062-6.4072,4.6577-11.9678,8.3667-25.0625,14.3689-37.4326,19.6084-2.29.9734-4.7402,1.8198-7.333,2.7158-7.7715,2.6848-15.8066,5.4612-19.3018,11.6799-.8848,1.5701-2.5312,3.6704-4.4385,6.1025-2.5205,3.2139-7.2129,9.1963-7.2871,11.2329l-.0068.1873-.0293.1853c-2.5801,16.4995,5.4746,38.2029,13.2646,59.1919,11.1094,29.9304,22.5967,60.8799,3.2793,78.47l-.1104.1006-.1201.0896c-4.584,3.4446-9.6387,5.2656-14.6152,5.2659Z"/>
        <path class="cls-4" d="M614.7223,6.332c2.6516,0,5.5796.8647,8.8772,2.7202,37.1401,16.1001-111.3199,139.25-51.22,195.7402,4.0535,3.8101,8.0938,5.3086,12.0439,5.3086,14.5459,0,27.8755-20.3169,36.196-20.3486h.0188c2.7815,0,5.0046,2.2837,6.5212,8.3896,2.1699,8.6401-23.5,18.9902-25.3701,23.6904-4.0398,10.4697,2.6501,19.9297,9.6301,28.4697,2.49,3.0503,5.02,5.9902,7.1101,8.8101,5.8191,7.2417,14.9507,9.9287,24.613,9.9287,12.0059,0,24.8335-4.1445,33.1667-8.8486,1.5962-1.3374,3.3909-1.9067,5.1536-1.9067,5.9338,0,11.5161,6.4453,8.0466,11.7266-5.3101,8.0801-33.3101,6.7603-38.8701,13.3799-35.3098,20.9092,33.7241,48.5806,49.5762,48.5806.175,0,.342-.0034.5039-.0103,1.6831.0391,3.3359.0581,4.96.0581,30.1299,0,50.6069-6.6309,80.79-17.8081,13.292-4.9106,26.3108-12.2983,40.4058-12.2983.4009,0,.8015.0059,1.2041.0181.198-.0044.3987-.0068.5974-.0068,22.4045-.002,48.0908,28.2017,20.8027,43.3872-14.1416,4.9355-29.0876,5.7329-44.1987,5.7329-7.2,0-14.4365-.1807-21.6458-.1807-10.8291-.0005-21.5889.4072-32.0557,2.4478-29.76,5.71-62.9199,14.71-82.6199,39.48-14.6501,18.1797,9.0901,24.0996,23.29,24.7798,13.085,2.3604,8.6665,14.2495,2.0227,14.2495-.4495,0-.9077-.0542-1.3728-.1694-5.6172-1.5801-10.4236-2.2954-14.4929-2.2954-31.8342-.0005-18.5903,43.7793,3.9929,59.9253,23.2,20.2803,89.1599,36.7603,110.9299,46.9399,16.7522,9.6309,8.8855,34.981-9.2874,34.981-6.4521,0-14.2017-3.1934-22.6125-11.4209-19.03-18.6099-10.4102-13.8799-34.26-29.3398-10.5195-8.6812-44.7678-22.8833-68.1091-22.8848-10.0525-.001-18.0789,2.6323-21.3208,9.4746-8.1501,15.2202-19.6501,28.8501-28.8201,43.4702-8.29,9.5-14.3101,21.02-2.8201,31.1396,0,3.9004,13.55,15.2202,16.3701,18.3804,5.74,6.4497,11.48,12.9097,17.22,19.3599,6.51,7.3101,13.99,14.75,9.3298,25.23-3.2983,7.4102-8.345,10.2476-13.8691,10.2476-10.7717,0-23.3638-10.7822-28.3809-19.4678-6.6299-11.4697-22.25-32.4897-35.0498-37.2598-1.7971-.6641-3.4304-.958-4.9568-.958-6.8401,0-11.5327,5.9033-19.1934,10.8579-11.46,8.02-24.0798,13.8901-36.9,19.3203-9.27,3.9399-22.8101,6.2397-28.1599,15.7598-2.2699,4.0298-11.96,14.1499-12.1301,18.77-6.4299,41.1201,48.1799,107.9102,17.54,135.8101-4.2498,3.1929-8.6307,4.6309-12.714,4.6309-9.9449,0-18.1279-8.5254-18.3761-20.981-5.1599-46.3599.4-126.8599-62.1199-133.3701-3.4846.3086-6.9587.4565-10.4194.4565-30.6132,0-60.2037-11.5513-87.3004-25.3062-2.6385-.9673-5.1614-1.4033-7.5795-1.4033-11.1821,0-20.1305,9.3208-27.9907,18.5132-17.15,22.6201-34.99,43.6699-44.7,70.4897-5.7007,17.4546-14.5212,23.7402-22.6268,23.7402-15.1277,0-27.7716-21.8799-13.0432-33.8799,38.98-32.1001,60.5299-76.5103,49.5299-114.9702-1.3298-4.6899-3.1499-9.2998-5.49-13.7798-2.2899-2.73-4.6299-5.7402-7.08-8.71-6.8876-8.3506-14.6412-16.312-24.6564-16.3125-3.1298-.0005-6.4792.7769-10.0936,2.5625-5.5153,1.5303-16.2585,6.4048-23.5438,6.4048-5.2369,0-8.6862-2.5166-7.1262-10.605,3.1602-9.9702,13.42-16.0103,18.2201-25.2998,7.5199-14.2202.12-29.9102-3.29-44.1401-1.21-5.8203-2.87-11.77-5.2798-17.2002-7.5836-15.6768-21.1199-21.3521-36.7208-21.353-26.634-.0024-59.2954,16.5327-78.6995,28.0732-4.938,2.9385-10.1217,4.2002-15.0635,4.2002-29.8524,0-51.0247-45.979,41.9409-45.979,3.3124,0,6.7556.0581,10.3627.1787.9229.0308,1.8716.0464,2.8353.0464,29.694,0,77.4932-14.8022,66.0447-56.8862-9.1757-33.6938-42.6835-39.7026-75.7231-39.7036-.4476,0-.8895.0015-1.3369.0034-.0793.0005-.1654.0005-.2444.0005-35.8433,0-29.951-39.0493-11.7445-39.0493,2.2859,0,4.7627.6143,7.3789,1.999,21.5099,10.2812,48.6624,28.814,74.1902,28.814,6.5513,0,12.9954-1.2202,19.2098-4.1143,12.8999-16.73,15.6699-42.5,8.5-62.2798-6.03-14.9399-19.5601-22.1499-32.55-30.3799-12.4642-7.8828-4.3674-21.0972,2.9011-21.0972,2.1553,0,4.2367,1.1606,5.689,3.9668,8.2626,16.9609,20.3438,21.4844,35.0596,21.4844,10.6102,0,22.5885-2.3496,35.5004-4.084,12.1901-5.9102,13.09-31.0103,12.46-42.2002-.9399-16.73,4.75-37.4199-1.59-52.8198-12.41-30.1201-36.9399-46.5703-58.96-70.4302-17.0806-18.5059-3.1558-30.9414,11.7727-30.9414,6.9565,0,14.1293,2.6987,18.4873,8.7412,13.47,18.6699,21.51,45.1304,39.6499,64.46,31.0851,34.9897,61.7753,51.7368,84.2589,51.7368,29.7455,0,45.1326-29.29,28.1212-84.3965-3.1559-10.1499-8.688-41.2783,6.5791-41.2783,2.1969,0,4.8237.644,7.9509,2.0884,21.8899,11.8696-.5601,71.3999,10.4199,93.6299,3.4301,8.96,11.03,14.3501,20.5599,15.2397,3.7924.353,7.1813.5347,10.2047.5347,23.5084,0,25.1177-10.9463,25.8352-37.0845,1.1271-11.0864,1.8369-37.7593,17.8207-37.7593.6107,0,1.2434.0391,1.8997.1191,5.6598.6899,10.6698,5.1602,12.0199,10.7002,2.3999,9.9399-6.0199,18.9102-9.3101,28.6001-7.1023,31.2202,6.1025,42.3633,24.7917,42.3633,19.0719,0,43.8551-11.5962,58.6183-25.2935,48.0574-48.7876,48.9619-122.0503,73.3628-122.0503M614.7223,0c-11.4741,0-17.7729,10.7329-19.843,14.2598-4.3687,7.4434-8.1699,17.4736-12.5713,29.0874-9.4385,24.9048-21.1826,55.8926-45.3584,80.4893-14.5103,13.4082-37.7877,23.5073-54.2084,23.5073-7.631,0-13.1587-2.0781-16.4298-6.1768-4.3712-5.4775-5.1523-15.1943-2.2631-28.1162.921-2.6064,2.3325-5.293,3.8236-8.1304,3.6173-6.8838,7.7175-14.6865,5.5427-23.6938-1.9796-8.123-9.1372-14.4917-17.4089-15.4995-.8975-.1099-1.7953-.1655-2.6658-.1655-6.3812,0-14.9933,2.9175-19.7834,16.8174-2.6823,7.7827-3.4636,16.7627-4.0342,23.3198-.1053,1.2104-.2021,2.3252-.3025,3.313l-.0236.2329-.0065.2339c-.3135,11.4175-.7731,20.5356-3.5393,25.3765-1.647,2.8828-4.7212,5.5498-15.9664,5.5498-2.807,0-5.9529-.166-9.6173-.5073-7.3204-.6831-12.731-4.6606-15.2339-11.1987l-.1056-.2759-.1306-.2646c-3.9235-7.9434-2.5312-23.7949-1.1848-39.125,2.0946-23.8477,4.2605-48.5073-11.894-57.2671l-.179-.0967-.1847-.0854c-3.8931-1.7979-7.3622-2.6719-10.6056-2.6719-4.9775,0-9.1406,2.0806-12.0389,6.0171-9.8027,13.3135-.6798,43.1733-.5867,43.4731,9.209,29.8311,9.0791,53.3188-.3694,66.124-4.9258,6.6758-12.2285,10.0605-21.7052,10.0605-22.1984,0-51.9276-18.5459-79.5255-49.6104l-.0574-.0645-.059-.063c-10.1556-10.8218-17.1182-24.3242-23.8513-37.3818-4.8984-9.4995-9.5251-18.4722-15.2809-26.4497-5.2102-7.2246-13.8206-11.3687-23.6222-11.3687-11.1759,0-20.7505,5.3745-24.3923,13.6914-2.1344,4.875-3.9377,14.9785,7.9667,27.8765,6.2878,6.8135,12.7555,13.0151,19.0103,19.0127,15.5907,14.9502,30.3167,29.0708,38.7483,49.5352,3.531,8.5771,2.6464,20.0591,1.7909,31.1631-.5031,6.5303-1.0233,13.2827-.6683,19.5996.8153,14.4829-1.7875,31.5229-8.1715,35.7314-2.9966.4126-5.937.8521-8.7913,1.2793-8.8962,1.3301-17.299,2.5869-24.6758,2.5869-14.6564,0-23.1647-5.1934-29.3672-17.9258l-.0336-.0693-.0354-.0679c-2.4302-4.6958-6.5533-7.3887-11.3124-7.3887-6.6135,0-12.933,5.2446-15.0262,12.4707-2.266,7.8228,1.0015,15.4155,8.7407,20.3101,1.2894.8169,2.5885,1.6265,3.885,2.4346,11.03,6.875,21.4502,13.3687,26.1348,24.8574,6.5038,18.0586,3.7429,40.3555-6.6704,54.8989-4.6777,1.9497-9.6422,2.8994-15.1248,2.8994-18.1041,0-38.0502-10.645-55.6482-20.0376-5.4954-2.9326-10.6877-5.7041-15.701-8.1045-3.389-1.7725-6.8265-2.6709-10.2198-2.6709-6.054,0-11.5549,2.8418-15.4895,8.002-3.417,4.481-5.2988,10.251-5.2988,16.2466,0,7.3408,2.83,14.0864,7.9686,18.9956,4.0446,3.8638,11.5891,8.4692,24.5642,8.4692l.2762-.0005c.4357-.0024.8676-.0034,1.3049-.0034,19.3047.0005,33.4023,2.1377,44.3662,6.7261,13.3195,5.5737,21.578,14.834,25.2476,28.3091,3.0028,11.0381,1.6022,20.147-4.2823,27.8462-11.0513,14.459-36.5957,21.0449-55.6528,21.0449-.886,0-1.7689-.0146-2.6241-.0435-3.6162-.1206-7.174-.1821-10.5739-.1821-24.097,0-42.7167,3.0132-55.3416,8.9556-15.9706,7.5171-18.3552,17.8799-18.3552,23.3882,0,14.0098,14.8391,26.2988,31.7559,26.2988,6.3762,0,12.7047-1.7603,18.3013-5.0903,17.0702-10.1523,49.5742-27.1851,75.4611-27.1831,15.0481.0015,25.1814,5.7861,30.9756,17.6846,1.9534,4.4243,3.5325,9.6025,4.8263,15.8257l.0195.0938.0222.0933c.7078,2.9531,1.5765,5.958,2.4169,8.8638,3.2255,11.1548,6.272,21.6909,1.4332,30.8408l-.0139.0264-.0139.0269c-1.7283,3.3447-4.5302,6.3994-7.4967,9.6333-4.1923,4.5703-8.9438,9.7505-11.134,16.6602l-.1116.3516-.0698.3623c-1.1123,5.7671-.3091,10.3472,2.3871,13.6128,1.7036,2.0635,4.9873,4.5234,10.9565,4.5234,6.2671,0,13.7527-2.6606,19.7675-4.7988,2.1023-.7476,4.088-1.4536,5.4691-1.8364l.576-.1597.536-.2651c2.5983-1.2837,4.9824-1.9077,7.2886-1.9077,6.8198.0005,12.8364,5.6011,19.7719,14.0098,1.0747,1.3027,2.149,2.6401,3.1881,3.9331,1.1387,1.4175,2.3115,2.877,3.4691,4.271,1.9563,3.8384,3.5383,7.8667,4.7057,11.9839,9.7424,34.0635-8.8895,76.5898-47.4634,108.3555-8.1606,6.6484-10.9159,16.6226-7.345,26.6587,3.8632,10.8579,13.9023,18.4409,24.4135,18.4409,7.2603,0,20.6232-3.6431,28.6141-28.0098,8.1064-22.333,22.1255-40.5596,36.9661-59.8535,2.1893-2.8467,4.4518-5.7881,6.6785-8.7231,6.7156-7.8438,14.58-16.1567,23.0588-16.1567,1.6644,0,3.3269.2944,5.072.8994,23.7997,12.0581,55.4471,25.8096,89.8079,25.8096,3.468,0,6.9459-.1436,10.3485-.4268,20.9155,2.3604,34.5829,13.7725,42.9807,35.8687,7.7002,20.2612,9.4596,45.9038,11.0118,68.5278.5629,8.2026,1.095,15.9561,1.8749,23.0391.4392,15.3491,11.0123,26.8857,24.6995,26.8857,5.6682,0,11.38-2.04,16.5175-5.9004l.2388-.1792.2208-.2012c20.8978-19.0288,9.0327-50.9971-2.4418-81.9126-7.6488-20.6079-15.5579-41.9175-13.1055-57.6006l.058-.3706.005-.1338c.5938-1.9482,4.6527-7.124,6.6229-9.6357,1.9874-2.5347,3.704-4.7236,4.7052-6.5005,2.9086-5.1758,10.3657-7.7524,17.5775-10.2441,2.5304-.874,5.1469-1.7783,7.5424-2.7964,12.5077-5.2979,25.7665-11.3765,37.9633-19.8965,2.4829-1.6133,4.6536-3.293,6.5718-4.7778,4.1252-3.1929,6.5811-4.9995,9.0815-4.9995.8289.0005,1.7324.1851,2.7617.5659,10.2783,3.8301,25.0327,22.8457,31.7629,34.4893,5.4275,9.396,19.5227,22.6309,33.8628,22.6309,8.6543,0,15.634-4.9736,19.6538-14.0049,6.0745-13.6602-2.8313-23.5898-9.3342-30.8403-.3518-.3926-.7031-.7842-1.0518-1.1753l-8.374-9.415c-2.9482-3.3154-5.8965-6.6309-8.8445-9.9434-.9404-1.0537-2.4932-2.5127-4.459-4.3599-2.4592-2.3105-8.7632-8.2334-10.3093-10.729v-1.9429l-2.1467-1.8911c-4.374-3.8521-8.0784-9.064,3.4058-22.2246l.3281-.376.2654-.4229c3.605-5.7476,7.7046-11.5137,11.6692-17.0898,6.0569-8.5186,12.3198-17.3271,17.3687-26.7554l.0735-.1372.0664-.1406c2.293-4.8394,9.748-5.855,15.5984-5.8545,22.3918.002,54.9563,13.9082,64.0793,21.437l.2808.2314.3054.1978c15.8496,10.2744,16.6147,11.105,21.5918,16.5093,2.4136,2.6211,5.7192,6.2104,11.6853,12.0444,11.175,10.9316,20.8726,13.2261,27.0396,13.2261,11.3057,0,20.9285-7.5933,23.9456-18.894,2.9939-11.2153-1.521-22.1699-11.5024-27.9082l-.2317-.1333-.2419-.1133c-7.3242-3.4248-18.9932-7.3823-32.5044-11.9648-26.23-8.896-62.1526-21.0796-76.9402-34.0063l-.2332-.2036-.2517-.1802c-13.2622-9.4819-23.1189-30.5415-19.5308-41.7295.9241-2.8818,3.1587-6.7129,11.8552-6.7129,3.6221,0,7.9214.6924,12.7783,2.0586l.095.0269.0955.0234c.9517.2363,1.9263.356,2.897.356,6.5154,0,12.0918-5.2808,12.6948-12.0215.5012-5.6016-2.7581-12.8369-13.5933-14.7915l-.4077-.0732-.4136-.02c-11.6487-.5581-20.3186-4.1514-21.6709-7.1611-.658-1.4639.4387-4.1323,3.0081-7.3208,18.2803-22.9844,50.1323-31.7183,78.8828-37.2349,10.5547-2.0576,21.5229-2.3345,30.8625-2.3345,3.5647,0,7.2158.0459,10.7466.0898,3.5691.0449,7.2595.0908,10.8992.0908,14.9824,0,30.9592-.7373,46.2852-6.0864l.5156-.1797.4768-.2656c11.9473-6.6484,17.1484-16.8223,14.2703-27.9136-1.8623-7.1763-6.989-14.0327-14.436-19.3066-7.3125-5.1792-15.7341-8.0312-23.7136-8.0312-.1914,0-.3826.0015-.5725.0049-.4114-.0112-.8213-.0166-1.2312-.0166-11.8625,0-22.5925,4.4839-32.9692,8.8198-3.3184,1.3872-6.4529,2.6968-9.6309,3.8711-29.2634,10.8369-49.1536,17.4155-78.5957,17.4155-1.5693,0-3.189-.019-4.8142-.0562l-.2058-.0049-.2058.0088c-.0764.0029-.1553.0044-.238.0044-4.7546,0-17.4226-3.5986-29.5979-9.4131-15.5269-7.4146-22.2644-14.4575-23.3923-18.5762-.2844-1.0386-1.1497-4.1978,6.6404-8.811l.9285-.5498.6543-.7788c1.6785-1.4941,9.6062-2.9131,14.3516-3.7627,10.6416-1.9053,20.6934-3.7046,25.001-10.2593,2.6216-3.9907,2.7986-8.9443.4744-13.252-2.6733-4.9551-8.2244-8.2842-13.8125-8.2842-3.1653,0-6.1555,1.0215-8.6904,2.9609-6.6392,3.6499-18.1953,7.7944-29.6299,7.7944-8.9719,0-15.5674-2.5146-19.6064-7.4751-1.5908-2.1377-3.4055-4.3286-5.1614-6.4487-.6797-.8203-1.3665-1.6494-2.0503-2.4873-7.156-8.7554-10.9282-15.1528-8.8555-21.5444,1.1882-1.0859,4.5264-3.2036,7.0203-4.7856,9.9785-6.3296,21.2888-13.5034,18.8113-23.3682-1.4912-6.0034-4.9023-13.1792-12.6624-13.1792-5.9055.0225-11.1824,4.4336-17.2927,9.541-6.0608,5.0659-12.9299,10.8076-18.9221,10.8076-2.6157,0-5.1367-1.1743-7.7073-3.5903-31.467-29.5771,3.2407-82.6973,31.1289-125.3799,18.2593-27.9458,31.4519-48.1367,27.3977-61.6479-1.3123-4.374-4.355-7.7456-8.8101-9.7686-4.1223-2.2754-7.9558-3.3823-11.7104-3.3823h0Z"/>
      </g>
      <path class="cls-5" d="M534.8294,444.6824c-11.7,41.63-40.95,78.21-79.4399,97.92-22.97,11.75-50.1699,17.52-74.8398,9.94-24.6602-7.57-45.3501-30.76-44.6501-56.55.6001-22.16,15.6001-40.9901,23.29-61.78.3199-.85.62-1.71.9099-2.57,13.6301-40.24,1.1001-87.4,24.3801-124.7,19.3799-31.05,64.6099-46.18,97.6899-28.69.3801.2.75.4,1.1199.61,1.5601.86,3.0701,1.77,4.55,2.75,13.8,9.08,24.26,22.83,32.22,37.42,20.71,37.96,26.4702,84.02,14.77,125.65Z"/>
      <path class="cls-7" d="M517.8814,163.1832c-7.9541-4.2869-36.731,4.8219-48.2871-.2609-5.7617-2.5343-15.563-9.0739-19.8262-19.8261-2.3796-6.0017-2.3826-11.6739-5.739-12.5217-2.3906-.6039-5.1421,1.5784-6.5217,3.2609-2.6079,3.1804-1.6819,6.2425-2.5435,9.587-2.4441,9.4876-17.2327,13.3226-20.9348,14.2826-4.8914,1.2684-12.8521,3.3328-21.1306-.3913-8.3579-3.7597-12.3452-11.3072-15.2607-16.8261-3.3392-6.3207-5.0088-9.4811-4.8914-13.6957.058-2.0826.5162-4.4192-.9783-6.2609-1.3961-1.7204-4.2212-2.6703-6.0652-1.7609-2.4895,1.2277-2.3844,5.4468-2.7391,10.1739,0,0-.6498,8.6576-3.7174,19.1739-3.5918,12.3129-20.7268,20.7941-34.4347,22.1087-17.8699,1.7137-32.1686-8.5357-39.9131-14.087-10.3531-7.4212-16.9564-13.5652-16.9565-13.5652-3.7233-3.4643-7.1761-7.0505-13.3043-11.2174-9.1742-6.2381-12.4181-5.6683-13.826-5.2174-3.297,1.056-5.699,4.3988-6.5217,7.5652-1.6366,6.2983,3.468,10.0003,6.2609,19.8261,1.4819,5.2136.6625,6.3449,1.3043,16.6957,1.1511,18.5648,4.0054,18.4451,3.913,28.9565-.0436,4.9608-.3772,19.8235-10.4347,32.6087-2.8262,3.5926-8.4684,10.765-17.7391,13.0435-3.6743.903-8.5365.4281-18.2609-.5217-12.6464-1.2353-17.6625-2.8205-21.3914.5217-2.8694,2.5719-3.1112,6.3895-3.1304,6.7826-.2332,4.7892,3.4976,8.1479,5.7391,10.9565,5.873,7.3589,5.9404,16.4762,6,24.5217.1194,16.1434-8.1176,27.6886-12,33.1304-5.0383,7.0619-10.1521,14.2297-18.7827,15.913-6.5081,1.2694-14.2297-.733-15.3912-1.0435-2.6357-.7045-6.4363-2.0233-13.3043-3.6522-3.3577-.7963-5.8741-1.2934-8.3479,0-1.5896.8311-3.8862,2.7805-3.6521,4.6956.3549,2.9029,6.3219,4.0719,15.1304,6.5217,2.9204.8123,14.9249,4.151,19.5652,6.2609,17.2815,7.8577,27.8313,42.0532,15.3914,60.7826-2.9877,4.4982-8.5298,9.9538-15.6522,13.3043-6.636,3.1217-11.6685,3.0163-22.1086,7.6304-2.6493,1.1709-7.2961,1.2917-9.1957,4.6957-.8224,1.4738-1.3423,3.7661-.3912,5.4782,1.7866,3.2164,7.9005,2.8303,11.7391,2.7391.0001,0,13.3831-.3178,26.8043,2.9348,15.7399,3.8145,14.5674,22.9199,29.9348,36.7826,16.2908,14.6956,42.3867,15.5773,59.8695,10.5652,26.8085-7.6857,37.675-36.4904,52.826-73.9565,12.0048-29.6859,10.3893-39.3214,29.3479-91.5652,10.8563-29.9164,15.2428-37.3849,22.3043-44.6087,20.9019-21.3822,43.5789-46.8051,57.1304-48.913,32.0579-4.9865,34.8262-11.3478,54.3914-3.1304,2.2981.9652,53.2817,3.8804,59.3569-21.5217,3.7744-15.782,8.4997-40.4165-3.635-46.9565Z"/>
      <path class="cls-9" d="M849.4795,345.3124c-31,10.8199-65.8401,1.75-97.9001,8-29.76,5.71-62.9199,14.71-82.6199,39.48-14.6501,18.18,9.0901,24.1,23.29,24.78,13.97,2.52,7.99,15.9.6499,14.08-49.5601-13.94-35.97,39.42-10.5,57.63,23.2,20.28,89.1599,36.76,110.9299,46.94,22.7002,13.05.2002,54.96-31.8999,23.56-19.03-18.61-10.4102-13.88-34.26-29.34-15.05-12.42-78.6599-36.14-89.4299-13.41-8.1501,15.22-19.6501,28.85-28.8201,43.47-8.29,9.5-14.3101,21.02-2.8201,31.14,0,3.9,13.55,15.22,16.3701,18.38,5.74,6.45,11.48,12.91,17.22,19.36,6.51,7.31,13.99,14.75,9.3298,25.23-9.73,21.86-34.6599,3.92-42.25-9.22-6.6299-11.47-22.25-32.49-35.0498-37.26-9.8501-3.64-14.78,3.84-24.1501,9.9-11.46,8.02-24.0798,13.89-36.8999,19.32-9.27,3.94-22.8101,6.24-28.1599,15.76-2.27,4.03-11.96,14.15-12.1301,18.77-6.4299,41.12,48.1799,107.91,17.54,135.81-14.6001,10.97-30.74,1.22-31.0901-16.35-5.1599-46.36.4001-126.86-62.1199-133.37-34.3101,3.04-67.5601-9.54-97.72-24.85-14.8401-5.44-26.01,5.93-35.5701,17.11-17.15,22.62-34.99,43.67-44.7,70.49-16.3401,50.03-58.29,8.29-35.67-10.14,43.74-36.02,65.5299-87.53,44.0399-128.75-2.2899-2.73-4.6299-5.74-7.08-8.71,8.12-.9,16.3199-.08,23.4501,4.06,11.51,6.68,12.3599,17.44,27,22.31,11.74,3.89,23.74,1.16,34.0499-1.18,12.6-2.86,13.1-5.47,24.65-8.22,13.89-3.3,23.795-14.8317,36.495-13.6917,8.7771.7868,87.8856,20.5922,154.2269-41.4783,36.5278-34.1763,46.3043-63.1966,63.6259-148.6957,3.3077-16.3268,11.1132-55.2525,15.913-63.6522,10.4348-18.2609-4.7409-31.8622-9.9108-42.0022-2.96-5.8-2.1001-13.16-.26-27.65,2.3098-18.24,3.47-27.36,8.8699-34.43,8.3-10.9,16.8801-8.62,22.1699-18.79,1.8501-3.55,2.3901-6.88,2.3301-9.95,2.79-.0099,5.02,2.27,6.54,8.39,2.1699,8.64-23.5,18.99-25.3701,23.69-5.48,14.21,8.8,26.55,16.7402,37.28,13.0498,16.24,42.7397,9.57,57.7798,1.08,6.9702-5.84,17.7002,2.97,13.2002,9.82-5.3101,8.08-33.3101,6.76-38.8701,13.38-35.7,21.14,35.26,49.19,50.0801,48.57,32.9099.76,53.9399-5.97,85.75-17.75,13.6699-5.05,27.0498-12.72,41.6099-12.28,22.54-.51,48.9302,28.06,21.4001,43.38Z"/>
      <path class="cls-6" d="M534.8294,444.6824c-11.7,41.63-40.95,78.21-79.4399,97.92-22.97,11.75-50.1699,17.52-74.8398,9.94-24.6602-7.57-45.3501-30.76-44.6501-56.55.6001-22.16,15.6001-40.9901,23.29-61.78.3199-.85.62-1.71.9099-2.57.24,6.58-.27,13.73-1.1699,19.28-1.97,12.1-5.6899,15.62-5.22,26.61.1699,3.98,1.1699,15.25,8.8699,26.09,9.1401,12.86,22.75,18.06,31.3101,19.8199,23.73,4.88,43.51-10.1,56.3401-19.8199,43.48-32.94,53.0898-84.29,54.7898-94.44,5.5601-33.37-.95-62.7401-4.1799-76.69-6.4299-27.84-15.99-44.65-17.55-53.63,1.5601.86,3.0701,1.77,4.55,2.75,13.8,9.08,24.26,22.83,32.22,37.42,20.71,37.96,26.4702,84.02,14.77,125.65Z"/>
      <path class="cls-8" d="M376.7247,346.0528c.337-2.4281,1.8158-12.2689,7.5652-24.7826,4.6689-10.1618,9.2493-20.1313,19.5652-28.6956,10.2983-8.5498,20.0388-10.491,39.3914-14.3478,9.7971-1.9525,15.1475-1.9641,20.0869.7826,4.7705,2.6527,10.0117,8.3532,9.1306,13.8261-.3469,2.1544-1.8606,5.6293-15.1306,11.7391-10.6838,4.9191-16.9668,6.0114-25.0435,8.6087-13.5869,4.3693-23.1748,7.4525-31.0435,15.3913-9.1077,9.1889-12.3557,21.2945-15.3914,32.6087-3.1912,11.8936-3.439,20.8644-5.2173,20.8696-2.1078.0061-3.6921-12.5911-3.9131-14.3478-1.3914-11.0624-.2816-19.6232,0-21.6522Z"/>
      <path class="cls-1" d="M849.4795,345.3124c-31,10.8199-65.8401,1.75-97.9001,8-29.76,5.71-62.9199,14.71-82.6199,39.48-14.6501,18.18,9.0901,24.1,23.29,24.78,13.97,2.52,7.99,15.9.6499,14.08-49.5601-13.94-35.97,39.42-10.5,57.63,23.2,20.28,89.1599,36.76,110.9299,46.94,22.7002,13.05.2002,54.96-31.8999,23.56-19.03-18.61-10.4102-13.88-34.26-29.34-15.05-12.42-78.6599-36.14-89.4299-13.41-8.1501,15.22-19.6501,28.85-28.8201,43.47-8.29,9.5-14.3101,21.02-2.8201,31.14,0,3.9,13.55,15.22,16.3701,18.38,5.74,6.45,11.48,12.91,17.22,19.36,6.51,7.31,13.99,14.75,9.3298,25.23-9.73,21.86-34.6599,3.92-42.25-9.22-6.6299-11.47-22.25-32.49-35.0498-37.26-9.8501-3.64-14.78,3.84-24.1501,9.9-11.46,8.02-24.0798,13.89-36.8999,19.32-9.27,3.94-22.8101,6.24-28.1599,15.76-2.27,4.03-11.96,14.15-12.1301,18.77-6.4299,41.12,48.1799,107.91,17.54,135.81-14.6001,10.97-30.74,1.22-31.0901-16.35-5.1599-46.36.4001-126.86-62.1199-133.37-34.3101,3.04-67.5601-9.54-97.72-24.85-14.8401-5.44-26.01,5.93-35.5701,17.11-17.15,22.62-34.99,43.67-44.7,70.49-16.3401,50.03-58.29,8.29-35.67-10.14,38.98-32.1,60.5299-76.51,49.5299-114.97,4.4601.38,8,1.65,9.7101,4.27,2.38,3.65-.2201,7.78,3.13,16.04.77,1.9,4.98,12.28,12.52,14.09,7.8799,1.89,11.73-7.42,24.6499-13.31,10.3901-4.73,19.8401-3.94,38.74-2.35,19.3101,1.63,18.1001,4.76,39.1301,6.66,11.6499,1.05,16.3999.49,34.05,2.34,13.74,1.45,18.5798,2.61,23.8699,5.09,3.6501,1.72,11.8601,6.11,18.78,14.8701,4.49,5.6899,4.0901,7.7,10.1699,19.18,2.1899,4.12,11.0601,6.29,16.8301-9.79,2.73-7.6,7.1299-11.9,14.0901-18.78,42.51-42.02,43.3799-44.52,52.0398-47.35,17.3901-5.68,35.2202-5.48,35.2202-5.48,11.0098.13,19.0898,1.97,21.9099-2.34,2.55-3.91-2.1001-8.42-3.1301-19.5699-.7898-8.4901,1.0701-15.03,2.3501-19.56,3.5801-12.64,10.53-20.61,18-28.96,10.8501-12.14,18.99-21.26,32.0901-24.26,12.6699-2.91,15.7311-.4834,16.8212-3.5235.8298-2.32,2.1688-3.1266-4.3012-9.7865-.9402-.96-20.2102-21.26-14.0901-38.74,2.0701-5.89,7.5801-13.07,14.48-14.08,6.8101-1,12.96,4.29,14.8701,1.95,1.0098-1.24.24-3.92-.78-5.47-1.1501-1.74-2.8501-2.46-3.53-2.74-9.4399-4-14.1899-6.03-15.6499-7.83-3.0801-3.79-.8101-10.41.7798-14.8699,4.954-13.8975,14.4135-27.7096,28.3279-33.7816,9.8955-4.3182,21.2638-4.1903,31.227-8.3498,2.2441-.9369,4.5324-2.2152,5.6407-4.3799.2306-.4505.4011-1.0016.1656-1.4495-.2467-.4692-.8286-.6297-1.3477-.7371-4.5513-.9416-9.1892-1.3827-13.8161-1.8222-17.5027-1.6625-37.0306-.679-51.4972-12.2201-4.54-3.62-12.3801-9.88-13.5701-20.08-.8501-7.4,1.74-17.35,8.3499-22.96,3.7202-3.16,8.76-4.97,8.6101-8.35-.0601-1.38-.97-2.72-2.0901-3.39-2.1599-1.3-4.52.3-8.0798,1.04-4.8801,1.02-9.6201-.03-12.26-1.3-3.79-1.81-6.1899-5.45-8.3501-11.22-1.52-4.05-2.55-8.16-3.22-12.01,2.49,3.05,5.02,5.99,7.1101,8.81,13.0498,16.24,42.7397,9.57,57.7798,1.08,6.9702-5.84,17.7002,2.97,13.2002,9.82-5.3101,8.08-33.3101,6.76-38.8701,13.38-35.7,21.14,35.26,49.19,50.0801,48.57,32.9099.76,53.9399-5.97,85.75-17.75,13.6699-5.05,27.0498-12.72,41.6099-12.28,22.54-.51,48.9302,28.06,21.4001,43.38Z"/>
      <path class="cls-7" d="M205.0726,88.5745c-5.1854-4.5785-5.9821-3.8187-14.8696-10.1739-7.8218-5.5931-11.7902-8.4775-14.6086-12.7826-2.3-3.5133-6.5256-9.9678-3.9131-15.6522,2.5017-5.4432,10.0505-7.5188,15.6522-6.5217,5.8621,1.0434,9.3414,5.407,11.4783,8.087,5.0531,6.3373,2.7013,8.7409,8.0869,19.5652,3.3782,6.7895,5.957,9.1672,7.5652,16.1739.3051,1.3292,1.8879,8.2258,0,9.1304-1.5166.7267-3.9689-3.0383-9.3912-7.8261Z"/>
      <path class="cls-7" d="M100.3986,325.7702c-1.0078-3.1655-4.7791-3.7372-9.5869-6.0652-7.6375-3.6981-6.4517-6.289-13.3044-9.587-4.1582-2.0012-11.1326-5.3576-16.2391-1.9565-4.3959,2.9277-6.0076,9.9302-3.7173,14.8696,2.2872,4.9328,7.8108,6.3949,11.7391,7.4348,7.4216,1.9645,8.2415-1.0423,18.9781.1957,5.6873.6557,9.4258,1.957,11.3479-.1957,1.1084-1.2414,1.2506-3.2257.7826-4.6956Z"/>
      <path class="cls-7" d="M73.9855,439.4441c-1.043-1.3413-4.0742-3.9169-28.7609,1.5652-13.4556,2.988-16.2521,4.5742-18.5869,6.4565-1.0845.8743-10.7267,8.6479-8.4131,16.2391,1.4895,4.8872,7.2833,7.562,11.5435,8.2174,8.4908,1.3062,16.0972-4.6083,22.5-9.5869,7.8036-6.0679,7.8286-9.1743,14.2827-11.5435,3.3875-1.2435,6.8798-1.6722,8.2173-4.5.9528-2.0143.6801-4.9667-.7826-6.8478Z"/>
      <path class="cls-8" d="M371.7681,389.618c-2.0714.9383-.0797,5.9502-1.0435,14.8696-.9276,8.5848-3.913,15.913-3.913,15.9131-2.1815,5.3551-4.0033,7.3104-3.1305,10.1739.9261,3.0386,4.5366,5.9515,7.5652,5.4783,7.0184-1.0968,8.7629-20.0434,9.3914-26.8696.6887-7.4808.0742-12.2231-2.8696-15.913-1.4998-1.8799-4.3373-4.4054-6-3.6522Z"/>
      <path class="cls-3" d="M225.9421,353.3571c-1.2805-.0081-10.4441-.0659-13.5652,6.7826-2.7576,6.0506.8578,13.8576,6.2609,16.1739.8586.3681,3.1007,1.1713,5.7391.5217,8.2247-2.0249,13.2872-16.4407,8.8695-21.3913-1.8315-2.0524-4.9302-2.072-7.3043-2.087Z"/>
      <path class="cls-3" d="M290.6378,372.9224c-1.2603-2.1632-4.2883-3.1212-6.7826-2.6087-3.9285.8073-6.7661,5.3106-5.4783,9.1304.8586,2.5467,3.4548,4.5041,6,4.4348,4.6805-.1275,8.5131-7.0905,6.2609-10.9565Z"/>
      <path class="cls-3" d="M276.8117,322.0528c-1.764-2.5482-5.6067-3.9002-8.087-2.3478-2.8795,1.8022-2.8618,6.8547-.5217,9.6522,1.5939,1.9054,4.6774,3.2577,7.0435,2.087,2.9822-1.4756,3.6511-6.3785,1.5653-9.3913Z"/>
      <path class="cls-3" d="M264.1595,251.618c-2.5199-3.5427-7.6154-6.5305-12.5217-5.087-6.0576,1.7822-7.8218,9.1408-7.826,13.3043-.0011,1.0901.1157,9.3748,6.2609,12.1304,5.3141,2.383,10.6814-1.3666,10.9564-1.5652,5.5161-3.984,7.3025-12.9175,3.1305-18.7826Z"/>
      <path class="cls-3" d="M210.1595,283.5093c-1.5187-1.0915-4.1184-1.0544-5.674.587-1.6295,1.7195-1.3735,4.4192,0,6.0652,1.3136,1.5742,3.6786,2.2195,5.2826,1.3696,2.5226-1.3367,2.8888-6.2268.3914-8.0217Z"/>
      <path class="cls-3" d="M308.116,180.1398c-2.1006-2.4513-6.1855-2.8478-9.1305-1.8261-5.4149,1.8786-8.1555,8.9608-6,14.3478,1.2483,3.1196,4.4849,6.5366,7.8262,6.2609,6.1852-.5104,11.7505-13.5943,7.3043-18.7826Z"/>
      <path class="cls-3" d="M367.633,204.6868c-.6944-.6716-5.2166-5.0455-10.9749-4.1629-6.4651.991-10.7808,8.04-10.9747,14.3808-.1863,6.089,3.3769,13.2166,9.461,14.7592,8.03,2.0359,16.8802-6.5626,17.0298-14.7592.1024-5.6102-3.8975-9.5954-4.5412-10.2179Z"/>
      <path class="cls-3" d="M327.6812,268.5745c-.4622-3.189-3.4812-5.884-7.0435-5.7391-3.3448.1361-6.1405,2.7343-6.5217,6-.4412,3.7788,2.4984,7.1824,6,7.5652,4.2491.4646,8.171-3.6455,7.5652-7.8261Z"/>
      <path class="cls-3" d="M258.029,171.5311c-2.7291-2.3637-7.0836-1.6183-8.6086.5217-2.1637,3.0363,1.0356,9.347,4.9565,9.913,2.1466.3099,3.806-1.2036,3.9131-1.3043,2.2632-2.129,2.5568-6.6899-.261-9.1304Z"/>
      <path class="cls-3" d="M179.6378,342.4006c-2.1306-3.5343-6.937-4.01-10.174-2.7391-4.1981,1.6482-7.0656,6.7483-5.4783,10.5652,1.7913,4.3073,8.7432,5.7492,12.9131,2.7391,3.0106-2.1732,4.932-6.9276,2.7391-10.5652Z"/>
      <path class="cls-3" d="M208.4638,457.705c1.4613-4.1857-1.728-9.4016-6-11.4783-3.9229-1.907-9.8729-1.7086-13.0435,2.6087-3.222,4.3875-1.9017,10.7527,1.826,13.5652,3.5728,2.6956,8.2422,1.2867,9.9131.7826,1.745-.5265,6.0266-1.8183,7.3043-5.4782Z"/>
      <path class="cls-3" d="M266.8986,426.9224c-.7725-2.5691-4.7573-4.0563-7.826-2.9348-2.4845.908-4.8829,3.714-4.1088,6.4565.6841,2.4233,3.5106,3.6116,5.674,3.5218,3.6927-.1534,7.1454-4.1013,6.2609-7.0435Z"/>
      <path class="cls-3" d="M194.8986,403.0528c-.9882-3.7643-5.6001-6.1819-9.3914-4.5-3.2676,1.4496-4.9398,5.5069-3.5217,8.8044,1.6351,3.8021,6.6896,4.9915,9.9783,2.9348,2.3486-1.4688,3.653-4.5033,2.9348-7.2391Z"/>
      <path class="cls-3" d="M152.0508,436.3137c-.5165-1.1353-1.6547-1.5524-1.9565-1.663-1.4143-.5183-3.3733-.263-4.5,1.1739-.7845,1.0005-1.1597,2.5664-.4891,3.8152.969,1.8048,3.7451,2.2447,5.4783,1.0761,1.3655-.9207,2.1561-2.8885,1.4674-4.4022Z"/>
      <path class="cls-3" d="M476.6378,199.1832c-1.0688-1.9854-3.0415-5.6499-6.5217-6-3.7048-.3727-6.8306,3.2407-8.0869,6-1.689,3.7098-1.7363,9.692,2.3477,12.5217,4.7278,3.2757,12.0894.3162,13.8262-4.1739,1.2246-3.1658-.574-6.5065-1.5652-8.3478Z"/>
      <path class="cls-3" d="M447.1595,153.0093c-2.5342-1.6932-6.4688-1.6057-9.1304.7826-2.665,2.3915-3.2166,6.3387-1.5652,9.3913,1.8018,3.3303,5.575,4.3938,8.3477,3.913.6106-.1059,1.6418-.2965,2.6089-1.0435,3.2668-2.5235,4.1323-10.1082-.261-13.0435Z"/>
      <path class="cls-3" d="M376.2029,150.1398c-1.2999-1.1101-3.4854-1.9964-5.4783-1.3043-3.2942,1.144-5.1334,6.2778-3.1304,9.913,1.7946,3.2568,6.3171,4.6647,8.8695,3.1304,3.3129-1.9914,3.1371-8.8374-.2609-11.7391Z"/>
      <path class="cls-9" d="M540.0291,270.4006c-1.8501-6.5405-8.8953-10.1003-15.1306-8.3478-5.6885,1.5987-9.542,7.2922-8.8694,13.0435.8149,6.9681,8.0591,12.1829,15.1304,10.4348,6.4421-1.5926,10.7529-8.4725,8.8696-15.1304Z"/>
      <path class="cls-9" d="M578.6378,319.9658c-3.3167-3.1525-9.1255-4.9338-13.5652-2.6087-6.2588,3.2777-7.5496,13.5395-3.1304,19.8261,3.5154,5.0007,10.8389,7.7633,15.6521,5.2174,6.6079-3.4952,7.3801-16.4119,1.0435-22.4348Z"/>
      <path class="cls-9" d="M572.6378,234.4006c-1.5107-2.3125-4.7405-4.8958-8.0869-4.1739-4.1968.9054-6.5305,6.5677-5.4783,10.9565,1.2478,5.2051,7.3247,8.8963,11.2173,7.3043,4.2166-1.7244,5.3794-9.4469,2.3479-14.087Z"/>
      <path class="cls-9" d="M488.7681,239.4876c-1.0781-3.0973-5.6931-4.2343-9-3.1304-2.5063.8366-5.365,3.3287-5.0869,6.2609.3193,3.367,4.6265,5.7482,8.2173,5.087,3.8721-.7131,6.9966-4.9798,5.8696-8.2174Z"/>
      <path class="cls-9" d="M426.9422,254.7484c-.1904-3.0462-2.7844-4.6811-3.1306-4.8913-2.9146-1.7697-7.813-1.4992-9.5869,1.7609-1.5159,2.7858-.0278,6.4277,2.3479,8.2174.2656.2,3.1917,2.3266,6.4565.9783,2.3582-.9739,4.0781-3.4241,3.9131-6.0652Z"/>
      <path class="cls-9" d="M360.8117,318.9224c-.0435-3.3428-2.7137-5.961-5.4783-6.8478-3.676-1.1793-7.1646.8163-9,2.9348-1.9696,2.2734-3.5287,6.412-1.5653,9.3913,2.2366,3.3939,7.5841,3.0681,10.7609,1.5652,1.0753-.5088,5.3381-2.778,5.2827-7.0435Z"/>
      <path class="cls-9" d="M354.9421,405.0093c4.6763-2.5625,5.452-13.5714,0-19.1739-.4532-.4658-3.7303-3.7269-8.6086-3.5217-5.7543.242-11.366,5.2072-11.3479,10.5652.0211,6.298,7.8083,9.5008,11.3479,10.9565,3.0702,1.2628,6.1415,2.5259,8.6086,1.1739Z"/>
      <path class="cls-9" d="M304.0726,503.2267c-.9086-4.2751-5.4464-6.7728-9.3914-5.8696-4.6954,1.075-7.4736,6.7213-5.4783,10.9565,1.5609,3.3131,5.7089,5.0535,9.3914,3.9131,3.723-1.153,6.318-5.0486,5.4783-9Z"/>
      <path class="cls-9" d="M218.7681,511.4441c-3.6333-3.661-11.4858-1.7379-12.913,2.3478-.9442,2.7032,1.0012,6.1324,3.5217,7.8261,2.6173,1.7587,7.1127,2.4912,9.7826-.3913,2.6337-2.8434,1.8939-7.4799-.3914-9.7826Z"/>
      <path class="cls-9" d="M277.2681,534.3354c-.9801-2.5593-4.1993-3.7969-6.6521-2.5435-1.9795,1.0115-3.0444,3.4332-2.3479,5.6739.7191,2.3131,3.083,3.6862,5.2827,3.3261,2.8341-.4639,4.7719-3.7029,3.7173-6.4565Z"/>
      <path class="cls-9" d="M333.2247,572.4876c.1832-2.4799-1.0175-4.8712-2.9347-6.2609-2.762-2.002-7.0638-1.964-9.587.7826-2.8695,3.1236-1.8182,7.9868.7826,10.3696.2308.2115,2.3191,2.063,5.2826,1.7609,3.2942-.3358,6.2002-3.1829,6.4565-6.6522Z"/>
      <path class="cls-9" d="M518.8985,519.0093c.8291-1.8806-.5327-4.3654-2.3477-5.4782-2.1233-1.3019-5.2512-.9614-6.7827,1.0435-1.0933,1.4313-1.427,3.782-.2607,5.2174.9434,1.1611,2.4773,1.2422,3.6521,1.3044,1.0044.0531,4.7092.2491,5.739-2.087Z"/>
      <path class="cls-9" d="M562.4639,436.8354c3.4956-2.0383,3.729-8.5278.5217-10.6957-1.8689-1.2632-4.7029-.9216-6.5217.5218-2.7944,2.2176-3.1406,6.9944-.5217,9.3913,1.7502,1.602,4.5789,1.9155,6.5217.7826Z"/>
      <path class="cls-1" d="M620.6378,356.2267c-.5735-.2478-3.158-1.271-5.4783,0-2.9392,1.6101-4.3,6.2691-2.0869,9.3913,1.521,2.1457,4.4368,3.1521,7.0435,2.3478,3.1499-.9719,5.051-4.3419,4.4348-7.3043-.6145-2.9545-3.4712-4.2439-3.9131-4.4348Z"/>
      <path class="cls-1" d="M634.7247,331.8354c-.4871-1.9309-3.0427-3.4117-5.2825-2.9348-3.0063.6401-4.5532,4.6176-3.3262,6.8478.8174,1.4855,2.6177,1.7453,2.739,1.7609,2.9688.3818,6.5635-2.9233,5.8696-5.6739Z"/>
      <path class="cls-1" d="M624.9422,282.9224c-.7351-1.7175-2.9902-2.741-4.8914-2.1522-2.541.787-3.6008,4.1918-2.3479,6.2609.6824,1.1267,2.0337,1.8298,3.3262,1.7609,2.5977-.1385,4.9714-3.3964,3.9131-5.8696Z"/>
      <path class="cls-1" d="M608.3768,452.4876c2.7515-3.0902,1.9419-8.1172-.2607-11.2174-2.1208-2.9851-5.7429-4.4787-9.1304-4.1739-4.8142.4332-9.6956,4.5474-9.3914,9.1304.3557,5.3567,7.5457,7.589,8.3479,7.8261,1.2212.3609,7.1572,2.1154,10.4346-1.5652Z"/>
      <path class="cls-1" d="M567.4205,559.9658c4.2092-2.9141,5.4292-10.7225,1.9563-14.087-2.8257-2.7375-7.6965-1.504-9-1.1739-4.4031,1.115-9.6545,4.8429-9.3911,8.6087.355,5.0741,10.7483,10.5891,16.4348,6.6522Z"/>
      <path class="cls-1" d="M509.116,572.4876c.2451-2.3861-1.0037-4.9534-3.3262-6.0652-3.0061-1.4391-5.9009.4743-6.0652.5869-3.1094,2.1319-4.3193,7.4081-1.7607,9.9783,2.0342,2.0433,5.7229,1.6457,8.0217.1956.4263-.2689,2.8313-1.7861,3.1304-4.6956Z"/>
      <path class="cls-1" d="M468.6812,623.0963c1.7366-1.1675,1.8501-3.7708.6521-5.3478-1.0168-1.3383-3.0249-1.9994-4.5652-1.1739-1.8518.9925-2.3032,3.7462-1.0435,5.4783,1.0803,1.4851,3.3494,2.124,4.9565,1.0435Z"/>
      <path class="cls-1" d="M454.9857,592.4441c.3152-3.115-1.2227-6.6308-4.4348-8.3478-3.217-1.7197-7.011-1.0454-9.5217,1.0435-2.6436,2.1993-4.1653,6.2169-2.7393,9.1305,1.2432,2.5399,4.22,3.2066,7.9565,4.0435,2.157.4831,3.4858.7611,4.9565.1304,3.2532-1.3951,3.7585-5.7602,3.7827-6Z"/>
      <path class="cls-1" d="M395.4422,606.9224c1.0615-1.8293.3945-4.2771-.9783-5.6739-1.7517-1.7824-5.165-2.3754-7.0435-.3913-1.8164,1.9187-1.1855,5.1783.5869,6.8478,1.207,1.137,3.0312,1.6193,4.6956,1.1739.3499-.0937,1.8989-.5082,2.7393-1.9565Z"/>
      <path class="cls-1" d="M371.0834,582.955c.0034-.4267.0156-1.949-1.174-2.837-1.0532-.7862-2.6991-.8144-3.7174.0978-1.318,1.1807-1.0597,3.466.1957,4.5978,1.172,1.0567,3.1849,1.0823,4.1086.0978.5763-.6142.5831-1.4666.587-1.9565Z"/>
      <path class="cls-1" d="M358.0726,613.9658c3.7115-1.7389,4.8696-8.7758,1.3695-12.3261-2.5088-2.5448-7.4421-3.3297-10.174-.5869-2.7904,2.8016-1.5886,7.5816.587,10.1739,1.911,2.2769,5.5253,4.0004,8.2174,2.7391Z"/>
      <path class="cls-1" d="M586.0726,497.7484c.2322-1.8539-.9321-4.1445-2.7393-4.4348-2.157-.3465-4.5374,2.2676-4.0435,4.4348.5088,2.2328,3.9233,3.352,5.6086,2.2174.9788-.6589,1.1365-1.9178,1.1741-2.2174Z"/>
      <path class="cls-1" d="M300.9421,606.9224c-.2975-1.9079-2.3018-3.5911-4.1086-3.1304-1.9039.4854-3.007,3.2028-1.9565,5.0869.8864,1.5899,3.1609,2.3262,4.6957,1.3696,1.1578-.7216,1.5468-2.1898,1.3695-3.3261Z"/>
      <path class="cls-1" d="M685.9857,348.0093c.3867-1.4041-.9971-2.9385-2.4783-3.2609-1.335-.2905-3.0229.3437-3.3914,1.5652-.4292,1.4232,1.0767,3.168,2.739,3.3913,1.2249.1646,2.791-.4625,3.1306-1.6956Z"/>
      <path class="cls-2" d="M360.9421,637.705c-.0564-.2084-1.0721-3.7502-3.9131-4.0435-2.4257-.2505-4.8262,2.0072-4.9564,4.5652-.1116,2.1907,1.4742,3.9662,3.1304,4.6956.2001.0881,2.9807,1.2625,4.826-.3913,1.7866-1.6012,1.0375-4.3667.9131-4.8261Z"/>
      <path class="cls-2" d="M409.9857,631.705c-1.9197-2.8491-5.7446-3.4805-8.4783-2.3478-3.9241,1.6259-5.8362,6.9851-3.7827,10.1739,1.626,2.5248,5.2107,2.8702,7.4348,2.4782.759-.1338,3.2852-.5789,4.8262-2.8696,1.458-2.167,1.5059-5.2,0-7.4348Z"/>
      <path class="cls-2" d="M437.5074,669.2376c.5188-.7064-.0945-2.2324-1.125-2.4457-.5579-.1155-1.2856.144-1.5652.7337-.332.7003.1218,1.5417.7336,1.9076.6492.3882,1.5874.3071,1.9565-.1956Z"/>
      <path class="cls-2" d="M471.8116,710.2267c-.0256-.4674-.2971-4.2498-3.5217-6.3913-2.0945-1.3909-5.8313-2.3528-7.9565-.3913-2.3755,2.1924-1.1416,6.5643.3914,8.8696.4209.6329,2.2803,3.4288,5.4783,3.5217,1.7888.052,4.054-.7401,5.0869-2.6087.6245-1.1298.5642-2.2289.5217-3Z"/>
      <path class="cls-2" d="M471.7464,788.4876c3.1616-.8953,4.5334-5.4655,3.9131-8.8044-.7732-4.1613-4.8079-7.3087-8.4131-7.2391-.6123.0118-1.4958.0289-2.3479.587-2.981,1.9526-3.05,8.8743.3914,12.7174.3352.3744,3.3267,3.6255,6.4565,2.7391Z"/>
      <path class="cls-2" d="M544.3333,595.5745c-2.394-3.3876-7.3936-5.7177-11.3477-3.913-4.8413,2.2095-6.1145,9.7039-3.1306,14.4782,2.4663,3.9462,8.0542,6.3757,12.1306,4.3044,4.8186-2.4485,5.6313-10.2232,2.3477-14.8696Z"/>
      <path class="cls-2" d="M198.4203,715.8354c-.5619-2.7265-3.2396-3.7287-3.3914-3.7826-1.9436-.69-4.7555-.3653-6,1.6957-1.3176,2.1819.0184,4.8246,1.3044,6.1304.1899.1929,2.6547,2.6182,5.3478,1.5652,2.1733-.8497,3.1836-3.4517,2.7391-5.6087Z"/>
      <path class="cls-2" d="M241.6595,666.9876c2.8053-.8782,4.7113-4.4653,3.7174-7.4348-.6449-1.9265-2.6202-3.9216-4.8914-3.7174-2.2615.2032-3.4674,2.4658-3.7174,2.9348-1.3184,2.4734-1.1678,6.3257,1.174,7.826,1.5979,1.0237,3.4641.4706,3.7174.3914Z"/>
      <path class="cls-2" d="M791.2464,559.8354c.0354-.374.4094-5.0697-2.8696-7.0435-2.0146-1.2128-4.2346-.6913-4.9563-.5217-3.2795.7704-7.3357,3.9458-6.7827,7.6956.4917,3.3347,4.3223,5.0491,6.6521,5.4782.8303.1529,3.9573.7289,6.1306-1.3044,1.5562-1.4559,1.7427-3.4259,1.8259-4.3043Z"/>
      <path class="cls-2" d="M626.3116,498.3354c-2.3762-1.7001-7.02-.7025-8.8042,2.5435-1.0764,1.9583-1.1458,4.7968.5869,6.8478,1.834,2.1708,4.9685,2.6093,7.0435,1.5652,3.7615-1.8927,4.2439-8.7599,1.1738-10.9565Z"/>
      <path class="cls-2" d="M652.2029,431.2267c-.3682-.4321-2.801-3.288-6-2.6087-2.5623.5441-4.2336,3.0626-4.4348,5.3478-.3323,3.7759,3.4177,6.1411,4.4348,6.7826.7981.5034,4.1086,2.5913,6.261,1.3044,2.6084-1.5597,2.5659-7.5076-.261-10.8261Z"/>
      <path class="cls-2" d="M675.8116,498.5311c.894-2.1417-1.1843-5.2182-3.7825-6.1304-1.6365-.5746-4.2729-.5692-5.4783,1.1739-1.3357,1.9314-.1692,4.9185,1.6956,6.2609,2.4773,1.7832,6.615.9721,7.5652-1.3044Z"/>
      <path class="cls-2" d="M821.9639,334.5745c.6597-.9685,4.553-6.9305,2.3477-10.5652-2.3289-3.8384-10.0913-2.8265-14.4783-1.1739-2.1135.7962-9.196,3.4643-9.3911,9-.1479,4.1999,3.7424,7.9517,7.6304,9,4.2727,1.152,7.9954-1.1087,9.3914-1.9565.7458-.4529,2.7834-1.7839,4.5-4.3044Z"/>
      <path class="cls-2" d="M751.9205,340.4441c2.1953.4469,4.7571-.3949,6.0652-2.5435,1.396-2.293.9062-5.3227-.9783-7.0435-2.1326-1.9474-4.9912-1.2502-5.2827-1.1739-2.1599.5654-4.4612,2.5129-4.5,5.2826-.0391,2.7788,2.219,4.974,4.6958,5.4783Z"/>
      <path class="cls-2" d="M652.7247,319.9006c-.8081-2.6144-2.7915-4.548-5.0869-4.8913-3.8181-.5711-7.9231,3.3441-7.2393,7.2391.5015,2.8569,3.4897,5.1915,6.6523,4.8913,3.363-.3192,6.0413-3.5337,5.6738-7.2391Z"/>
      <path class="cls-4" d="M192.7464,281.5528c-2.9763-4.4336-1.063-7.3864-2.7391-12.5217-2.085-6.3882-6.4982-6.2688-6.4564-10.7609.0369-3.9609,3.5056-8.0801,7.2391-9,1.2979-.3198,2.2826-.168,3.5217,0,6.9667.9444,13.0618,1.1914,15.8478,1.1739,3.3047-.0207,6.9912-.0439,11.3478-1.7609,1.9744-.7781,5.7252-2.2564,9.1957-5.6739,2.1696-2.1364,2.8748-3.6966,5.4783-4.8913.564-.2588,4.2144-1.9339,5.8696-.3913,1.5515,1.4458.4181,4.8498.1956,5.4783-1.5951,4.5033-6.0571,6.6079-11.5435,9.1957-4.3307,2.0427-8.2516,3.892-13.6957,4.1087-3.8333.1526-5.2338-.6312-9.7826,0-4.0068.556-6.9518.9646-8.413,3.1304-.8888,1.3173-.4615,2.1477.1956,10.7609.2639,3.4587.3497,5.3532,0,7.8261-.292,2.0647-.8341,5.8972-2.5435,6.2609-1.5289.3253-3.2756-2.2766-3.7174-2.9348Z"/>
      <path class="cls-4" d="M183.9421,311.8789c-4.0459,3.5576-4.4677,7.8792-6.2609,11.7391-2.8184,6.0668-8.183,9.1819-10.5652,10.5652-5.5846,3.2429-10.8521,3.5464-17.2174,3.9131-6.3868.3679-9.5802.5519-12.9131-.9783-2.86-1.3131-5.642-3.6084-7.2391-2.5435-.6097.4066-.9637,1.2475-.8478,1.9565.2614,1.598,2.9071,2.5124,6.3914,3.2609,9.4922,2.0391,16.6954,1.3044,16.6956,1.3044,6.8324-.6969,13.8455-1.4123,21.1305-6.2609,1.1091-.7382,6.2451-4.2481,10.174-10.4348.4818-.7586,2.1128-3.3959,3.1304-7.1739.2618-.972,1.6024-5.9494.2609-6.6522-.1788-.0937-.8589-.349-2.7391,1.3044Z"/>
      <path class="cls-4" d="M178.4638,65.1615c-1.0404-.8743-3.1459-2.6888-4.3043-5.8696-.521-1.4307-2.2229-6.1035.3914-9.7826,2.1439-3.0173,6.7944-4.8084,9-3.1304,1.745,1.3275,1.4053,4.4048,1.3695,4.6957-.4252,3.4557-3.2086,3.7856-4.1086,7.0435-1.1918,4.314,2.4432,8.2438,1.3695,9-.7559.5323-2.838-1.2175-3.7174-1.9565Z"/>
      <path class="cls-4" d="M245.9638,161.2267c-1.6685-.6245-.0239-4.5569-1.9565-9.7826-1.7832-4.8218-4.3065-4.511-5.8695-9.1957-1.1118-3.3323-1.5552-8.6452,1.3695-11.1522,1.4459-1.2394,3.8594-1.9168,5.2827-.9783,2.2592,1.4897,1.0425,6.4035.9781,6.6522-.434,1.678-.9187,1.6891-1.1738,2.9348-.5231,2.5536,1.1671,4.2001,3.1304,8.0217,1.9459,3.7877,3.7122,7.2259,2.5435,10.1739-.8224,2.0744-3.0538,3.7941-4.3043,3.3261Z"/>
      <path class="cls-4" d="M33.5508,469.4441c-3.533.356-6.2172-1.0083-7.8262-1.8261-2.1426-1.089-4.5562-2.3158-4.6957-4.4348-.0991-1.5055.9655-3.2203,2.3479-3.6522,1.2766-.3988,2.6771.4733,5.4783,2.2174,2.163,1.3468,2.2917,1.7451,3.3912,2.087,1.7166.5337,3.2998.1524,5.3479-.5218,6.0463-1.9902,9.1665-4.2365,9.5217-3.7826.3385.4324-2.0575,3.0278-4.5652,5.0869-3.1367,2.5757-5.4404,4.4674-9,4.8261Z"/>
    </g>
  </g>
</svg>