<?xml version="1.0" encoding="UTF-8"?>
<svg id="Capa_2" xmlns="http://www.w3.org/2000/svg" viewBox="0 0 948.3602 356.0645">
  <defs>
    <style>
      .cls-1 {
        fill: #bf3441;
      }

      .cls-2 {
        fill: #ba0c1c;
      }

      .cls-3 {
        fill: #d83954;
      }

      .cls-4 {
        fill: #ef7f8f;
      }

      .cls-5 {
        fill: #e55e6c;
      }

      .cls-6 {
        fill: #d6404a;
      }

      .cls-7 {
        fill: #b22f3f;
      }

      .cls-8 {
        fill: #9e2539;
      }

      .cls-9 {
        fill: #a5071b;
      }
    </style>
  </defs>
  <g id="Capa_1-2" data-name="Capa_1">
    <g>
      <path class="cls-7" d="M833.1818,241.553c-.7363-.8559-2.7532-3.2006-5.7067-3.1957-3.307.0054-5.8819,2.9533-6.8481,5.4784-1.2658,3.3078.0561,6.3428,1.3695,9.3589,1.2089,2.776,2.1451,4.9257,4.3372,5.7067,2.7951.9958,6.0554-.795,7.761-2.7391,3.5186-4.0107,2.3254-10.8448-.9129-14.6092Z"/>
      <g>
        <g>
          <path class="cls-6" d="M478.8708,351.8071c-59.1689-.0127-88.9834-8.749-115.2881-16.458-22.0029-6.4473-42.7861-12.5381-77.9043-12.5381l-1.2891.0029c-50.0391.2061-94.4453,1.46-133.624,2.5664-11.7676.333-22.9219.6475-33.417.9102-19.1924.4736-32.9795.6846-44.7051.6846-16.6895,0-28.9512-.4346-38.5889-1.3682-13.6855-1.3184-27.9004-3.9512-29.5459-13.4775-.2393-1.3926-1.9932-14.0586,10.1094-30.2168,19.542-26.084,30.3809-42.708,35.1445-53.9023,8.4316-19.8018,24.5986-25.4561,43.3174-32.0039,8.2207-2.876,17.5371-6.1348,27.3438-10.9297,7.3867-3.6133,15.2266-10.9043,23.5283-18.6221,9.8359-9.1465,20.0068-18.6035,31.8018-24.5781,18.3418-9.2852,33.083-14.3906,44.9268-18.4932,14.4727-5.0127,24.9287-8.6338,34.4365-16.8418,5.2334-4.5166,10.1953-10.8066,15.9395-18.0898,11.877-15.0576,26.6572-33.7969,52.9082-47.8682,11.1729-5.9902,25.4961-9.1357,43.6299-13.1182,8.2881-1.8193,17.6826-3.8828,27.5508-6.4326,5.9141-1.5283,12.0986-3.6475,18.6465-5.8906,14.8906-5.1016,31.7686-10.8838,49.9346-10.8838,2.0098,0,4.0283.0713,5.999.2119,18.9043,1.3594,38.8779,3.4287,56.8799,9.3105,3.8945,1.2705,7.5088,3.0566,11.0039,4.7852,4.1133,2.0332,7.998,3.9541,12.1846,5.0176,4.3291,1.1006,8.834,1.9688,13.1914,2.8086,3.9707.7656,8.0762,1.5566,12.1338,2.5342,21.4814,5.1592,41.6934,15.8008,58.4473,30.7734,7.6006,6.793,14.5596,14.5254,21.2881,22.0029,7.9844,8.8711,16.2393,18.0449,25.3799,25.3682,15.7891,12.667,34.5449,20.2158,52.6826,27.5176,6.9688,2.8047,14.1738,5.7051,21.1504,8.8652,2.3877,1.0801,4.8145,2.2295,7.418,3.5127,5.917,2.9297,11.9463,6.2207,17.9268,9.7871,6.1055,3.627,12.3916,7.6631,18.6797,11.9922,16.4082,11.2578,32.0166,23.8408,45.1211,34.665,2.0078,1.6562,3.9062,3.2217,5.9023,4.46,1.8398,1.1504,3.8398,2.0664,5.958,3.0352l1.2891.5938c6.291,2.9189,12.8428,6.4756,21.2432,11.5312,4.3652,2.623,7.6338,6.207,10.7949,9.6729,2.6299,2.8848,5.1152,5.6094,8.0684,7.6152,3.7119,2.5156,9.3281,6.7842,14.2832,10.5488,2.7529,2.0918,5.3535,4.0684,7.3213,5.5127,8.4346,6.1963,28.4385,35.9463,25.7676,49.8867-2.7734,14.4844-17.1787,15.8506-54.6084,15.8506-10.8438,0-24.2529-.168-39.7783-.3633-24.377-.3066-54.7148-.6885-93.2959-.6885-26.3574,0-52.5332.1748-80.0234.5352-57.8906.752-93.0195,9.9863-124.0127,18.1338-24.6406,6.4775-45.9199,12.0713-73.2129,12.0723h-.0381Z"/>
          <path class="cls-4" d="M463.7283,8.5156c1.8838,0,3.7795.0645,5.6931.2012,18.3286,1.3184,38.1858,3.3369,55.8616,9.1118,8.0149,2.6133,15.062,7.7471,23.4622,9.8818,8.4001,2.1353,16.9521,3.3252,25.3755,5.3555,20.5457,4.9351,40.1462,15.0967,56.6082,29.8091,16.4739,14.7236,29.7041,33.7876,46.843,47.5195,22.4124,17.9785,49.5498,25.5273,74.7385,36.9375,2.4502,1.1084,4.877,2.2637,7.2917,3.4536,6.0088,2.9751,11.8772,6.1948,17.6289,9.625,6.2651,3.7217,12.4136,7.6885,18.4456,11.8423,15.4238,10.5815,30.2058,22.3652,44.8245,34.4409,2.0652,1.7031,4.1301,3.4062,6.3701,4.7949,2.4619,1.54,5.1101,2.6719,7.7004,3.8735,7.1399,3.3135,14.0349,7.2217,20.8369,11.3169,7.3035,4.3867,11.5735,12.3438,18.6672,17.1621,5.647,3.8267,15.9138,11.8887,21.479,15.9722,7.6069,5.5884,26.3906,33.7173,24.1038,45.6528-1.9663,10.2705-11.5886,12.3936-50.428,12.3936-27.3533,0-69.1926-1.0518-133.0825-1.0518-23.5657,0-50.1287.1431-80.0696.5352-104.1956,1.3525-136.3086,30.2056-197.1697,30.2056h-.0371c-108.2366-.0234-115.3474-28.9941-193.1912-28.9946-.4348,0-.8696.0005-1.3088.0024-65.3817.2681-122.2698,2.3564-167.1294,3.4766-16.5712.4092-31.5013.6841-44.6068.6841-15.3041,0-28.1206-.375-38.1703-1.3491-15.8671-1.5283-24.8274-4.5615-25.7606-9.9634-.6067-3.5234-.1869-14.2456,9.3219-26.939,20.9421-27.9541,31.0807-44.043,35.6542-54.7886,11.1536-26.1919,36.2609-24.9551,68.6134-40.7759,16.7655-8.2017,33.9626-32.3755,55.3832-43.2261,40.1227-20.312,61.7882-19.9971,80.222-35.9106,16.7654-14.4673,30.0308-45.0347,68.0769-65.4287,15.8203-8.4819,39.7959-11.3169,70.2351-19.1802,19.8623-5.1338,42.373-16.6392,67.5171-16.6401M463.7283,0h-.0005c-18.8738.0005-36.1086,5.9048-51.3147,11.1143-6.4683,2.2158-12.5779,4.3091-18.333,5.7964-9.7922,2.5298-18.7439,4.4956-27.4006,6.3965-17.7251,3.8926-33.0332,7.2539-44.7273,13.5234-27.033,14.4907-42.1182,33.6167-54.2393,48.9849-5.6089,7.1113-10.4529,13.2529-15.3772,17.502-8.8914,7.6758-19.0242,11.1851-33.0485,16.0425-11.9662,4.1445-26.8583,9.3022-45.4565,18.7178-12.3312,6.2466-23.1937,16.3467-32.7776,25.2578-8.0638,7.4976-15.6804,14.5796-22.5013,17.9165-9.5785,4.6836-18.3728,7.7603-26.8774,10.7354-19.6716,6.8809-36.6605,12.8237-45.8289,34.3535-4.5641,10.7236-15.5693,27.5703-34.6345,53.019-10.0017,13.3516-12.1221,26.3853-10.8989,33.4897,2.1343,12.353,18.0496,15.5229,33.3367,16.9951,9.7683.9473,22.1581,1.3882,38.9867,1.3882,11.7592,0,25.5813-.2114,44.8169-.6865,10.5026-.2622,21.6322-.5767,33.4152-.9092,39.1593-1.106,83.5435-2.3599,133.5391-2.5649.4282-.0015.8511-.0024,1.2737-.0024,34.5068.0005,54.0627,5.731,76.7063,12.3662,26.5789,7.7881,56.7041,16.6157,116.4834,16.6284,27.8831,0,49.4106-5.6592,74.3372-12.2119,30.7563-8.085,65.6167-17.2495,122.9819-17.9941,27.4636-.3594,53.6182-.5342,79.959-.5342,38.5664,0,68.8884.3813,93.2524.6875,15.5383.1953,28.9578.3643,39.8301.3643,22.1274,0,33.251-.7002,41.0422-2.584,6.5483-1.583,15.5125-5.0391,17.7498-16.7246,1.4353-7.4922-1.708-17.9517-9.3433-31.0874-4.9211-8.4658-12.4209-18.8701-18.0828-23.0293-1.9436-1.4263-4.5295-3.3911-7.2673-5.4717-4.9988-3.7988-10.6648-8.1045-14.4763-10.6875-2.5298-1.7183-4.8499-4.2627-7.3064-6.9561-3.2104-3.521-6.8494-7.5112-11.7532-10.4565-8.519-5.1289-15.1943-8.7515-21.637-11.7412-.437-.2026-.8743-.4028-1.312-.6035-1.988-.9102-3.8657-1.7695-5.4568-2.7651-1.7795-1.103-3.5691-2.5791-5.4636-4.1411-13.1746-10.8828-28.8752-23.54-45.4297-34.897-6.3523-4.3745-12.72-8.4624-18.9141-12.1421-6.0518-3.6089-12.1792-6.9541-18.1995-9.9351-2.6843-1.3228-5.1526-2.4917-7.5605-3.5806-7.0542-3.1958-14.301-6.1128-21.3091-8.9336-18.6741-7.5166-36.3127-14.6162-51.6106-26.8877-8.8738-7.1099-16.6489-15.75-24.8809-24.897-6.8054-7.5625-13.8428-15.3823-21.6157-22.3296-17.2756-15.4395-38.125-26.415-60.2944-31.7397-4.1453-.999-8.2991-1.7998-12.3162-2.5742-4.4954-.8662-8.7417-1.6846-12.9502-2.7544-3.751-.9531-7.4404-2.7773-11.3464-4.708-3.6306-1.7949-7.3848-3.6509-11.5737-5.0171-18.4385-6.0239-38.7205-8.1304-57.8906-9.5088-2.0732-.1484-4.1926-.2231-6.304-.2231h0Z"/>
        </g>
        <path class="cls-5" d="M15.9969,305.4678c-1.7602-6.0035,4.7696-14.2744,17.829-30.8161,9.7762-12.3831,7.1053-13.6314,12.4355-22.4462,8.3804-13.8594,8.918-20.9825,15.5221-29.6747,5.8556-7.707,11.502-10.3663,28.229-16.5874,22.2221-8.2649,30.3653-9.0038,41.088-14.8373,14.4222-7.8461,7.1912-9.802,25.3376-24.6528,17.9042-14.6527,33.6367-22.6734,40.6314-25.3376,19.0397-7.252,22.4954-4.9333,38.5771-12.3264,22.4045-10.2997,36.0021-18.1564,38.465-21.1527,7.3481-8.9395,6.2548-10.9059,13.7769-21.6093,2.6986-3.8399,17.5806-24.5632,39.9802-36.827,17.589-9.6301,18.9014-2.5947,54.5669-13.3915,28.9888-8.7756,57.3401-23.7516,88.5587-21.6456.1822.0128.3643.0257.5463.0385,10.0592.7534,19.5701,3.6948,29.3427,5.8301,9.1225,1.9934,18.8751.5515,27.6676,4.1372,3.1621,1.2895,6.0428,3.1933,9.1919,4.5147,3.1244,1.311,6.4596,2.0272,9.7671,2.7621,13.7403,3.0527,27.6854,6.5509,40.1241,13.3413,5.9347,3.2397,23.0262,9.2225,29.7018,20.544,4.6021,7.8051,31.6019,29.4021,31.2455,31.0442-1.959,9.0228-75.4803-15.7504-99.0678-25.3376-9.5133-3.8667-27.7922-10.268-38.6531-11.4894-13.0318-1.4656-44.0374,4.5265-55.3928,11.8698-15.3355,9.9174-15.782,14.4916-32.2618,26.479-11.278,8.2037-21.7885,14.1027-45.092,18.87-13.6946,2.8016-38.3614,6.3484-56.715,9.5872-15.5221,2.7392-21.8929-.1698-37.3597-.3043-17.4874-.1522-40.5174,4.2229-59.6917,16.3211-21.22,13.3887-24.2399,26.0424-40.0609,44.8544-5.82,6.9203-31.0071,46.7895-50.3755,55.6971-9.0127,4.145-23.4741,10.7958-34.4422,26.479-7.5394,10.7804-5.4535,14.4256-13.3717,24.1963-11.7187,14.4598-26.2159,18.7271-29.5799,19.6309-15.5403,4.1752-37.6113,2.1612-40.5205-7.761Z"/>
        <path class="cls-1" d="M939.6585,305.4662c-3.8618,20.1721-37.2058,8.9136-263.5801,11.877-104.2211,1.3533-136.317,30.2173-197.2068,30.2057-108.8412-.0234-115.4214-29.3191-194.5001-28.9924-117.7314.4784-207.9521,6.8835-249.9064,2.8118,28.5956-2.4735,67.6567-6.3935,118.478-14.3738,21.6773-3.4067,38.0228-5.9735,61.0183-10.6518,68.4617-13.9421,71.3202-21.2807,103.6378-23.2874,32.4458-2.0184,29.1441,5.4135,98.0025,10.5003,40.2394,2.975,60.3649,4.4567,83.3838.9101,34.4176-5.2968,32.5974-12.962,86.1372-25.5624,22.9139-5.3901,44.1945-10.4068,73.5019-13.242,20.0673-1.9368,31.7109-1.47,53.4113-6.3936,24.244-5.4951,36.5877-8.4586,47.4847-19.1688,16.4971-16.217,18.3523-38.256,18.7139-43.3778.4434-6.3468-.0467-11.7136-1.0033-16.3104,22.2722,13.2303,42.9228,29.4824,63.27,46.2828,2.0651,1.7033,4.1302,3.4067,6.3701,4.7951,2.4619,1.54,5.11,2.6718,7.7003,3.8734,7.14,3.3135,14.0351,7.2219,20.837,11.317,7.3035,4.3868,11.5735,12.3436,18.6672,17.1622,5.6469,3.8267,15.9139,11.8886,21.4791,15.972,7.6069,5.5885,26.3905,33.7174,24.1039,45.6529Z"/>
        <path class="cls-2" d="M692.1522,160.0997c-.0467,7.2102-1.0501,14.0353-2.5785,21.7705-3.955,19.8689-24.7456,35.6076-57.8914,26.9391-19.414-5.0868-37.8012-16.9171-41.9195-17.9672-23.2056-5.8918-32.0493-.5717-46.5512,1.5284-5.9852.8634-37.4393,4.9235-69.4301-10.9669-16.007-7.9452-12.2153-10.9787-31.5592-22.8206-17.2787-10.5703-46.3295-28.3391-78.8919-20.3939-17.8856,4.3518-32.0026,15.2721-37.3577,19.4839-10.4187,8.2019-12.7753,18.8071-17.9672,24.6523-8.6569,9.7652-8.7502,14.5954-18.2588,25.1073-11.8886,13.1253-26.8224,16.5671-28.9924,18.4104-9.812,8.3069-14.7938,12.3203-21.5605,14.6071-8.9603,3.0334-14.677,1.4001-15.4122,3.1618-.7933,1.8667,3.6402,4.9117,7.0469,7.9452.875.7583,1.68,1.54,2.31,2.2867,5.8452,6.9185,6.8136,12.1686,12.6237,15.5287,2.8584,1.6451,4.4452,1.4351,14.7352,1.5168,21.7357.1633,26.3675,1.1667,33.391-2.7418,4.2001-2.3334,3.4417-3.1967,8.4118-6.6968,15.4471-10.8619,32.4926-9.4269,46.8196-8.2135,11.7719.9917,18.3988,3.4884,22.6106,5.4834,4.4452,2.0884,8.5403,4.0718,12.6354,8.5169,6.2417,6.7785,4.7716,10.9319,9.9869,16.1354,6.1951,6.1602,14.2687,6.3002,19.7172,6.3819,1.8667.035,10.0918.035,20.2538-5.4718,9.6485-5.2152,11.562-10.2436,18.4104-15.8321,18.0022-14.6304,41.4995-9.8469,51.0313-7.9102,8.727,1.7733,17.8856,3.6401,26.5657,12.1802,1.5051,1.4817,6.557,6.4519,9.9987,13.0904,2.3801,4.5851,4.0017,9.9636,3.1383,15.5171-1.7851,11.6086-13.3119,17.4071-27.0907,24.349-7.0469,3.5468-21.5489,10.5236-41.021,9.1236-11.2004-.805-23.9523-1.715-32.6093-12.1686-4.8652-5.8801-4.3285-9.7886-10.5236-15.2254-5.845-5.1218-11.842-6.4635-21.0471-8.5169-9.6252-2.1584-14.4439-3.2318-19.1923-1.2134-4.4334,1.8784-4.8769,4.1651-14.7237,10.6519-3.6983,2.4267-5.8101,3.8268-8.6802,5.1685-1.6102.7584-9.5902,4.3868-20.5106,3.9551-11.9003-.455-20.3354-5.4368-22.3538-6.6968-5.717-3.5234-9.5203-7.5952-12.3671-10.6519-5.7401-6.1602-7.5485-10.0569-9.9869-13.0787-3.0567-3.7918-9.4619-9.1585-41.4294-8.3769-6.1368.1517-10.8387.4667-14.6304.8401-5.5185.525-9.1469,1.1433-12.5652,1.47-3.8268.385-7.3853.3966-13.0322-.4784-10.6168-1.645-21.6421-3.5351-30.7773-13.697-9.0069-10.022-11.1887-22.5172-11.8303-26.484-.2334-1.4117-.3966-2.8117-.5251-4.1884-1.68-18.9939,6.4519-34.7792,13.2772-48.0096,11.9703-23.2056,27.4174-35.6543,32.6091-39.5627,5.5652-4.2002,22.9255-16.9755,46.8079-18.8655,14.7587-1.1784,15.4587,3.1151,34.1958,2.4267,13.8605-.5017,16.007-2.9401,39.9827-7.3035,28.9341-5.2735,28.2223-2.1584,44.7079-6.6968,16.9987-4.6785,19.0871-2.1817,29.4007-9.1236,17.5125-11.7822,31.4012-28.6084,51.2842-36.7221,10.8835-4.4413,22.7474-6.2067,34.5013-6.0581,11.0113.1392,21.9933,1.9663,32.4747,5.3369,5.2941,1.7024,10.4617,3.7988,15.443,6.2712,4.7432,2.3541,9.1607,5.2624,13.9068,7.5337,1.6543.7917,3.3162,1.5678,4.9823,2.3346,22.8439,10.5003,29.8092,11.352,34.1843,11.562,9.4035.4434,11.6319-1.9017,20.522,0,17.6873,3.7918,40.2744,13.802,52.0815,28.9924,3.3716,4.3285,6.9885,9.0185,9.5552,14.117,1.8667,3.6751,3.1734,7.5719,3.4651,11.6786.1401,2.0768.2101,4.0834.1984,6.0785Z"/>
        <path class="cls-7" d="M939.6585,305.4662c-3.8618,20.1721-37.2058,8.9136-263.5801,11.877-104.2211,1.3533-136.317,30.2173-197.2068,30.2057-108.8412-.0234-115.4214-29.3191-194.5001-28.9924-65.3816.2683-122.2698,2.3568-167.1293,3.4767.035,0,.0816-.0117.1166-.0117,63.5499-6.0319,70.2935-9.5086,115.0131-11.6785,37.7892-1.8435,49.9813-.6382,76.0919,2.7335,16.4397,2.1233,27.7816,4.4455,38.1227,6.987,16.5925,4.0779,34.866-12.8856,63.2278-7.5957,17.5156,3.2698,40.2073,24.3188,60.5668,24.9572,18.7241.5871,29.133-1.7618,49.9143-8.2176,13.1525-4.0847,17.8686-13.2326,24.0441-16.1309,7.4593-3.5007,16.2016-.8158,33.4796-7.3072,26.904-10.1035,61.9282-11.1302,130.8684-12.7753,32.7259-.7816,65.2883-6.8834,98.0025-6.0901,16.9755.4083,36.3542,1.68,46.8778-10.9553,7.3269-8.8085,9.0769-22.8322,4.8653-33.4841-4.5269-11.4686-15.1323-16.9638-19.4724-19.4722-18.247-10.5936-33.7408-31.2907-43.2844-50.7396,15.4238,10.5819,30.2058,22.3656,44.8245,34.4409,2.0651,1.7033,4.1302,3.4067,6.3701,4.7951,2.4619,1.54,5.11,2.6718,7.7003,3.8734,7.14,3.3135,14.0351,7.2219,20.837,11.317,7.3035,4.3868,11.5735,12.3436,18.6672,17.1622,5.6469,3.8267,15.9139,11.8886,21.4791,15.972,7.6069,5.5885,26.3905,33.7174,24.1039,45.6529Z"/>
        <path class="cls-6" d="M31.3479,287.2064c-3.7235-.3301-7.1131,3.449-8.5219,6.5436-1.4871,3.2665-2.1931,8.903,1.6739,12.783,3.0351,3.0453,8.258,4.3771,12.4786,1.8261,4.0403-2.4421,5.304-7.2874,4.5654-10.8046-.5957-2.8367-2.4542-4.6434-4.5654-6.6958-2.1529-2.093-3.5687-3.4693-5.6305-3.6522Z"/>
        <path class="cls-6" d="M105.5346,230.8245c-5.3209-2.3737-10.3173-.2803-10.9567,0-4.7307,2.0731-9.331,7.4004-8.2176,12.5547.694,3.2125,3.3374,5.1066,3.8805,5.4783,2.5794,1.7657,5.2323,1.6758,7.5328,1.5979,4.6829-.1585,8.0229-2.1161,9.8154-3.1957,3.1869-1.9195,5.1133-3.0798,5.7067-5.2501,1.1217-4.1017-3.24-9.1681-7.7611-11.185Z"/>
        <path class="cls-6" d="M135.4553,206.8755c-1.7599-.7725-3.5927.2833-5.4784,1.3696-1.2144.6996-5.8046,3.3438-5.2501,6.1633.3364,1.7105,2.4015,2.6481,2.8534,2.8534,1.575.7151,3.0008.5054,4.1088.3424,1.3649-.2008,3.3215-.4886,4.7935-2.1686.3515-.4011,1.7278-2.0826,1.4837-4.4512-.0269-.2611-.3682-3.1683-2.5108-4.1088Z"/>
        <path class="cls-6" d="M167.2428,198.4867c-1.8449-1.6054-5.8745.3491-7.9132,1.9783-.8421.6729-2.9774,2.5953-3.6523,5.7826-.4181,1.9751-.0893,3.5562.1522,4.7176.3991,1.9185.7337,3.5276,1.6739,3.8044,1.0694.3149,1.9778-1.3722,5.6307-5.3263,3.1975-3.4611,4.1821-3.9874,4.7175-5.9349.1155-.4203.9645-3.6528-.6087-5.0218Z"/>
        <path class="cls-6" d="M169.46,175.176c-1.0284-.2948-2.9992-.8598-3.5381-2.3968-.8081-2.3047,2.2183-5.0404,3.0817-5.8208,1.1735-1.0608,4.1678-3.7673,7.8752-2.9675,2.3382.5044,5.1419,2.4428,5.1359,4.7936-.0048,1.916-1.8738,3.2394-3.424,4.3371-.7382.5227-4.6966,3.3255-9.1306,2.0544Z"/>
        <path class="cls-6" d="M205.6773,148.6869c-1.5821-1.0695-3.6313-.5685-4.8475.2644-1.843,1.2623-3.0234,4.1435-1.6745,6.1694,1.0553,1.5852,3.2439,2.0231,4.9356,1.4983,2.1361-.6626,3.419-2.8413,3.2609-4.8474-.0285-.3612-.2124-2.0964-1.6745-3.0848Z"/>
        <path class="cls-6" d="M326.1925,82.0807c-4.318-1.5972-10.4877,4.8503-13.3915,9.1306-1.2269,1.8085-7.3094,10.7741-3.6523,15.8265,2.3619,3.263,7.4992,3.1163,10.0437,3.0436,5.9765-.1708,14.7855-3.1527,16.131-9.1307.5422-2.4092-1.3632-6.07-5.1741-13.3917-2.3851-4.5823-3.1369-5.1751-3.9567-5.4784Z"/>
        <path class="cls-6" d="M390.5298,71.6464c-1.5309,2.8096-5.1634,5.8237-9.435,4.8697-3.3685-.7523-6.3969-3.8074-6.3915-7.6089.006-4.1495,3.6234-6.767,6.3915-7.609,3.5185-1.0702,8.3401-.0857,10.0438,3.3479,1.5277,3.0789-.2957,6.4254-.6088,7.0002Z"/>
        <path class="cls-6" d="M400.3792,95.4623c-2.0376-3.9193-7.1158-4.8566-10.348-4.5653-4.6187.4163-8.6048,3.6241-10.0438,7.6089-.341.944-1.3993,3.8748,0,6.6958,1.4127,2.8482,4.4247,3.7585,6.0871,4.261,1.0896.3293,4.8471,1.4649,8.5219-.3043,4.7215-2.2732,8.2989-8.8565,5.7828-13.696Z"/>
        <path class="cls-6" d="M416.8906,51.1785c-4.5536.8431-6.4919,4.9654-6.6198,5.2501-1.2413,2.7616-1.4938,7.1059,1.1413,9.359,2.1373,1.8273,5.0889,1.3513,6.3915,1.1413.9341-.1507,5.1063-.8235,7.0762-4.5653,1.5041-2.8571,1.5215-7.1184-1.1413-9.5872-2.5764-2.3887-6.1763-1.7223-6.8479-1.5979Z"/>
        <path class="cls-6" d="M466.1962,24.9338c-3.9974-2.4745-9.2719,1.384-10.5003,2.2827-1.4943,1.0931-5.7292,4.1912-5.2501,8.6742.2998,2.8047,2.4029,5.7597,5.2501,6.3914,2.0662.4584,3.7473-.479,6.1632-1.8261,3.2765-1.827,6.5358-3.6444,7.3045-7.3045.5798-2.7608-.2629-6.5434-2.9674-8.2177Z"/>
        <path class="cls-6" d="M524.7467,48.6676c-1.1889-1.0862-2.7522-2.5145-5.2501-2.9674-.7746-.1405-5.3485-.8599-7.1905,2.0544-1.0768,1.7038-.7557,3.9153,0,5.3643,1.2842,2.4623,4.0196,3.0996,6.3915,3.6523,3.3948.791,5.8778.0636,6.7339-.2283,1.3335-.4547,2.3492-.801,2.7391-1.7119.934-2.1819-2.6433-5.4501-3.4239-6.1633Z"/>
        <path class="cls-6" d="M570.0575,48.8399c-1.022-1.8111-3.1131-2.1806-4.3371-2.3968-1.158-.2046-3.7449-.6616-5.0218.913-1.3285,1.6382-.245,4.2498-.1141,4.5653.4831,1.1646,1.2241,1.8445,1.8261,2.3968,1.0159.9322,2.6281,2.4114,4.4512,2.0544,1.3328-.2611,2.1129-1.3731,2.511-1.9403.1286-.1834,2.0998-3.085.6848-5.5925Z"/>
        <path class="cls-6" d="M599.7323,63.6191c-4.1089-1.4774-7.7312,1.2584-8.3318,1.712-2.4413,1.8439-5.0648,5.6264-3.8805,8.6741.932,2.3981,3.793,3.2385,7.5328,4.3371,2.2522.6616,3.5485,1.0424,5.1359.5707,2.6846-.7976,4.4795-3.5212,4.9078-6.0491.6412-3.7848-1.6494-7.9091-5.3642-9.2448Z"/>
        <path class="cls-6" d="M497.4687,38.1266c-1.936-2.4066-6.749-1.7652-7.9893.6848-1.2557,2.4803,1.2087,6.6983,4.2229,6.848,1.6162.0803,3.1066-1.0232,3.8805-2.2827.9998-1.6269,1.0115-3.8511-.1141-5.2501Z"/>
        <path class="cls-6" d="M279.8304,118.8448c-.3994-1.971-2.533-3.5542-4.7176-3.3479-2.7092.2559-4.5957,3.179-3.9566,5.6306.4065,1.559,1.8037,2.8106,3.3479,3.0436,2.7909.4211,5.8969-2.5103,5.3263-5.3262Z"/>
        <path class="cls-1" d="M393.0747,155.7247c-.8376-1.1801-6.0527-8.2222-14.0004-7.6089-8.8988.6867-12.9009,10.3286-13.3917,11.5655-.2837.715-3.9977,10.4647,1.2174,16.4352,2.9894,3.4223,7.3856,3.8548,14.6091,4.5653,5.4095.5321,8.1142.7981,10.3482-.6087,5.948-3.7458,6.8724-16.3808,1.2174-24.3485Z"/>
        <path class="cls-1" d="M310.5943,222.3787c-4.5013-2.0525-12.3466-2.6078-16.1308,3.0435-3.4188,5.1054-1.5158,12.2787,2.7391,15.5221,3.6553,2.7864,8.17,2.0045,10.9569,1.5219,2.5248-.4372,8.9412-1.5487,10.6524-6.0871,1.8586-4.9297-2.739-11.5023-8.2176-14.0004Z"/>
        <path class="cls-1" d="M394.2921,208.6826c-3.7161-2.8554-9.814-2.6014-14.0004.3043-4.862,3.3748-5.3055,9.0487-5.4784,11.2611-.172,2.2019-.5984,7.6562,3.0436,10.6525,3.0355,2.4973,7.3584,2.0212,9.1306,1.8261.8027-.0884,2.8904-.3183,4.5654-1.2174,6.2546-3.3572,9.5864-17.5655,2.7391-22.8266Z"/>
        <path class="cls-1" d="M171.1993,238.5095c-3.6889-3.8158-9.4676-3.3231-13.0872-1.2174-3.2583,1.8955-6.3693,6.0302-5.4784,10.348.8091,3.9214,4.4792,5.8628,5.4784,6.3915,3.9178,2.0725,7.7034,1.1365,8.5219.913,1.0023-.2737,3.1992-.8736,4.8696-2.7391,2.9428-3.2865,3.5467-9.7127-.3043-13.696Z"/>
        <path class="cls-1" d="M116.1111,292.6848c-1.1668-3.3648-6.9612-5.3332-10.9569-3.0436-3.3222,1.9036-5.2182,6.6458-3.348,9.7395,1.3709,2.2677,4.3271,2.9247,6.3915,2.7391,4.7444-.4265,9.208-5.7016,7.9134-9.435Z"/>
        <path class="cls-1" d="M723.3006,148.7245c-6.2395-3.331-14.7456-.2272-16.7395,5.1741-1.7137,4.6423,1.9356,9.4862,3.0435,10.9568,2.4013,3.1875,8.0341,8.2595,13.3917,6.3915,3.9812-1.3881,5.477-5.7949,5.7828-6.6958,1.7342-5.1095.4348-12.6697-5.4784-15.8265Z"/>
        <path class="cls-1" d="M755.2581,203.8129c-3.9718-3.4381-11.0419-2.1306-14.3047,2.1304-2.1763,2.8421-3.2141,7.7235-.6087,10.9569,2.7812,3.4514,7.8348,2.6936,9.1306,2.4348,3.3359-.666,7.8568-3.2328,8.5219-7.9132.386-2.7164-.5838-5.743-2.7391-7.6089Z"/>
        <path class="cls-1" d="M608.2542,231.8136c-.5889-4.0795-7.8442-6.6666-13.3917-6.3915-1.3986.0694-8.4032.604-11.5656,6.0871-.4124.7149-2.1176,3.6716-1.2174,7.3045,1.0827,4.3696,5.0651,6.2089,5.4784,6.3915,5.1315,2.2677,10.5-1.0848,12.1743-2.1304,1.2556-.7842,2.0854-1.534,2.7391-2.1306,2.0382-1.86,6.2743-5.7257,5.7828-9.1306Z"/>
        <path class="cls-1" d="M664.8644,223.5961c-2.9625-.1219-7.1447,1.3588-8.2176,4.8697-.7359,2.408.1876,5.1279,1.8261,6.6958,3.103,2.9693,8.3267,1.3815,11.8699.3043,2.3321-.7088,3.5146-1.0683,3.9565-2.1306,1.1942-2.8703-3.591-9.4989-9.435-9.7393Z"/>
        <path class="cls-1" d="M473.0962,221.7925c-3.4135-2.0118-10.3827-6.1193-17.3481-2.7391-5.5352,2.686-9.4186,9.2999-8.2177,15.5221,1.3545,7.0165,8.4924,10.0012,11.8698,11.4133,2.6288,1.0992,7.3622,3.0784,12.7831,1.3696,5.376-1.6945,11.1599-6.9317,10.9568-13.2394-.2103-6.531-6.7151-10.3647-10.0438-12.3265Z"/>
        <path class="cls-7" d="M791.4764,199.3237c-3.5199-.6665-7.1796,1.625-8.9025,4.5652-2.6194,4.4705-.737,10.3994,2.9676,13.0113,2.2593,1.5928,4.7054,1.6059,5.7066,1.5978,2.6275-.0214,7.1178-1.0333,8.4459-4.3369.8801-2.1896-.051-4.3354-1.1413-6.8481-1.3826-3.1861-3.1438-7.2446-7.0762-7.9893Z"/>
        <path class="cls-7" d="M785.0849,244.7487c-2.3367-2.7755-8.2983-2.0377-11.6416.9132-.3607.3183-4.0555,3.6777-2.9674,7.5327.9347,3.3115,4.69,4.4779,5.7067,4.7937,1.1207.3481,3.3215,1.0315,5.4783,0,2.7-1.2913,3.4457-4.3686,3.8806-6.1632.4633-1.9118,1.2296-5.0735-.4566-7.0764Z"/>
        <path class="cls-7" d="M721.1702,246.8031c-.5436-.1744-4.9384-1.5052-8.9025,1.1414-3.0762,2.0538-5.8368,6.4651-4.337,10.2721,1.781,4.5208,8.2133,4.7455,9.5872,4.7936,1.9287.0673,5.7123.1995,8.2177-2.7391,2.0638-2.4206,2.4967-6.0285,1.1414-8.9025-1.5188-3.2211-4.6777-4.2351-5.7067-4.5654Z"/>
        <path class="cls-7" d="M766.1387,276.0214c-.8504-2.6399-4.1148-4.8874-7.5328-4.1088-3.2133.732-5.1714,3.8214-5.0218,6.8479.1507,3.0506,2.4285,5.7487,5.0218,6.1632,4.2018.6716,8.884-4.7075,7.5328-8.9023Z"/>
        <path class="cls-7" d="M661.5926,262.5535c-2.358-4.8753-8.6061-5.5886-11.6416-5.9349-2.7622-.3152-11.5162-1.3144-15.0657,4.5654-2.9988,4.9676-.4518,11.8128,3.4241,15.5221.3213.3075,5.5363,5.1312,12.5547,3.6522,4.657-.9814,7.2808-4.1418,7.9893-5.0219.4556-.5659,5.5172-7.0395,2.7393-12.783Z"/>
        <path class="cls-7" d="M697.6587,275.7931c-.6651-2.1238-5.774-3.9489-9.3589-1.3696-3.9516,2.843-3.1137,8.9233-1.1413,10.0438,2.8789,1.6355,11.5288-5.39,10.5003-8.6742Z"/>
        <path class="cls-7" d="M580.5579,266.9668c-2.5094-1.6036-5.6763-.6029-8.0655.1521-1.198.3785-4.1729,1.3615-6.6958,4.261-2.6432,3.0375-3.1596,6.3045-3.3478,7.6089-.3197,2.2152-1.0341,7.166,1.9783,9.5872,2.5537,2.0525,6.2793,1.0765,8.0653.6087,4.4016-1.153,6.8864-4.216,7.7611-5.3263.8458-1.0734,2.7616-3.57,3.1957-7.3045.1149-.9888.8373-7.2043-2.8914-9.5871Z"/>
        <path class="cls-7" d="M405.7054,302.3481c-.2212-1.6927-1.769-2.5927-2.2826-2.8914-1.9692-1.145-4.0775-.6537-5.2501-.3804-1.4211.3311-2.8836.6721-3.8044,2.0544-1.1018,1.6539-.5737,3.5162-.5326,3.6522.5939,1.9719,2.5217,3.1097,4.1088,3.1957.3417.0185.4099-.0256,3.6522-1.2174,2.1482-.7896,2.5584-.932,3.0436-1.4457.1807-.1913,1.2717-1.3867,1.0652-2.9674Z"/>
        <path class="cls-7" d="M296.4418,288.1194c-2.3518-3.4924-6.0071-4.4062-6.6958-4.5654-4.2244-.9761-7.5132.8705-8.3698,1.3696-.7357.4288-5.6867,3.422-5.1741,7.0002.2888,2.0167,2.1782,3.2772,4.1088,4.5654.8477.5657,2.8559,1.7874,6.6958,2.587,5.0253,1.0466,8.2807,1.7246,10.1959-.1522,2.4553-2.4062,1.3459-7.6762-.7608-10.8046Z"/>
        <path class="cls-7" d="M259.7669,303.6415c.3899-.6006,1.5404-2.3727.913-3.9565-.9038-2.2817-4.8457-2.5275-7.1523-2.1306-1.3218.2274-4.0258.6929-4.8697,2.8914-.8134,2.1185.5217,4.7488,2.4348,5.7828,1.1815.6385,2.3357.5342,3.1957.4566.8525-.077,3.821-.4906,5.4784-3.0436Z"/>
        <path class="cls-7" d="M210.309,299.4187c-1.4806-1.4191-3.9358-.9633-5.1359.3424-.0706.0769-1.2665,1.4198-.799,2.9674.5315,1.7593,2.7088,2.1163,3.0817,2.1686.362.0507,2.1393.2996,3.1957-.9132,1.0664-1.2242.9039-3.3706-.3425-4.5652Z"/>
        <path class="cls-7" d="M137.7203,312.4298c-.9619-1.8749-4.0513-1.667-5.5927-1.2554-2.4653.6583-4.9912,2.9112-4.5652,4.5654.4802,1.8653,4.5009,2.1441,4.9078,2.1685,1.0643.0639,2.3526.1411,3.5381-.6848,1.4715-1.0253,2.5053-3.2474,1.712-4.7937Z"/>
        <path class="cls-1" d="M554.0789,194.3779c-2.5422-2.5086-7.461-1.2299-10.1959.4566-.6425.3961-3.9657,2.4453-4.7175,6.5437-.4707,2.5657-.0815,6.7391,3.1957,8.8263,2.5221,1.6063,5.6355,1.2641,7.7611.1521,3.0841-1.6135,3.954-4.777,4.5652-7.0002.6094-2.216,1.812-6.5897-.6087-8.9785Z"/>
        <path class="cls-4" d="M30.8913,282.8693c-.3353-.3965,5.2943-3.9622,11.4133-12.0981,4.4053-5.8573,5.4252-9.2447,14.3809-29.4464,6.2803-14.1666,7.158-15.612,8.9023-17.5766s6.1056-6.4201,22.1419-12.7828c14.1617-5.619,15.9126-4.1887,27.1637-8.6742,17.3217-6.9058,26.0991-15.45,26.9356-14.3808.8276,1.058-6.9078,10.5233-18.3755,16.321-3.9772,2.0108-8.0158,3.2808-16.0928,5.8208-8.8778,2.7918-10.5718,2.6991-16.8918,5.1361-6.4507,2.4873-10.2637,3.9577-14.495,7.4186-4.3979,3.5972-6.8438,7.3789-10.0438,12.3265-1.4756,2.2814-3.0492,4.9609-6.7339,12.5547-6.4853,13.3657-5.6848,13.4623-7.9893,17.3482-7.3839,12.4507-19.8366,18.5996-20.3158,18.0331Z"/>
        <path class="cls-4" d="M157.1229,170.1055c-.2078-.2854,8.9842-8.4613,21.6853-16.2069,8.0169-4.889,18.5612-11.3195,33.3271-15.2939,6.4663-1.7405,10.3363-2.0933,18.4896-5.098,10.0431-3.7012,15.8094-7.4549,15.9787-7.1524.2139.3823-8.531,7.1971-20.9245,11.2611-4.3415,1.4237-4.6799,1.0503-11.4894,3.1197-7.9985,2.4308-14.1176,4.9474-17.1201,6.2392-8.9717,3.86-15.2931,7.6155-22.1419,11.7177-11.3413,6.7932-17.6375,11.6433-17.8048,11.4133Z"/>
        <path class="cls-4" d="M277.2641,109.2678c-.8362-1.2855,2.0619-5.0753,2.6347-6.1586,1.6295-3.0816,3.2678-5.5815,5.7383-8.6741,5.0564-6.3298,6.8378-12.4252,12.6688-18.0331,10.5003-10.0985,18.7018-20.4267,30.6406-25.6704,10.6263-4.6672,22.6506-4.4151,34.1505-5.9817,23.0539-3.1406,44.3245-13.7044,66.4142-21.0113,22.0897-7.3069,47.0524-11.1861,68.0668-1.1991-18.2406-6.1179-38.7613-5.1386-56.3364,2.6884-14.096,6.2776-26.1909,16.6852-40.7313,21.8507-12.4159,4.4108-25.8383,4.7296-38.9534,5.9957-13.1151,1.2661-26.6952,3.7547-37.2386,11.6569-16.8845,12.6547-23.6926,37.4221-43.3448,45.1043-.903.353-2.8159.4799-3.5445-.3515-.064-.073-.1187-.145-.1649-.216Z"/>
        <path class="cls-9" d="M543.4715,301.3244c-1.7849,11.6087-13.3119,17.4072-27.0907,24.349-7.0469,3.5468-21.5489,10.5236-41.021,9.1236-11.2004-.8051-23.9523-1.715-32.6093-12.1687-4.8652-5.8801-4.3284-9.7886-10.5235-15.2253-5.8452-5.122-11.8421-6.4635-21.0473-8.5169-9.6252-2.1585-14.4439-3.2318-19.1921-1.2134-4.4335,1.8785-4.877,4.1652-14.7239,10.6519-3.6983,2.4267-5.8101,3.8268-8.6802,5.1685-1.61.7582-9.5902,4.3868-20.5106,3.955-11.9003-.4549-20.3354-5.4367-22.3538-6.6968-5.7168-3.5234-9.5203-7.5952-12.3671-10.6518-5.7401-6.1602-7.5485-10.0571-9.9869-13.0788-3.0567-3.7918-9.4619-9.1585-41.4294-8.3769-6.1368.1518-10.8385.4668-14.6303.8401,10.2435-2.0884,24.8506-3.4068,38.1743-1.7152,5.0983.6534,10.9201,1.4352,17.7337,4.6436,9.5086,4.4801,9.1702,8.1202,18.0371,11.6436,7.3502,2.9284,6.5336,3.9485,18.7139,7.6936,7.6885,2.3684,9.8469.2515,14.152.7533,4.8535.56,8.6686-.28,18.9471-3.4302,16.7187-5.1217,15.2021-5.5185,19.1689-6.1601,7.6535-1.2366,14.2103.6299,27.324,4.3401,11.5737,3.2783,18.8655,5.3434,27.5458,10.5003,14.2453,8.4702,13.102,13.9304,23.4271,16.8937,13.2421,3.7918,25.7958-2.1116,27.6975-3.0451,6.9186-3.3718,5.6585-5.3551,13.697-9.8936,13.0554-7.3736,19.2388-3.7684,24.5006-10.0452,4.3518-5.1919,3.6518-11.842,3.9084-15.8554,2.3801,4.585,4.0017,9.9635,3.1383,15.517Z"/>
        <path class="cls-9" d="M234.7371,280.9579c-3.8268.385-7.3853.3966-13.0322-.4784-10.6168-1.645-21.6421-3.5351-30.7773-13.697-9.0069-10.022-11.1887-22.5172-11.8303-26.484-.2334-1.4117-.3966-2.8117-.5251-4.1884.7934,1.7967.859,4.8355,1.7313,7.1726,1.237,3.3141,1.2244,2.721,5.098,7.7611,4.55,5.9152,7.3462,5.6235,10.6478,9.8936,2.6484,3.4184,6.5803,8.4936,12.9388,12.1686,2.6718,1.5517,6.2301,2.5784,13.242,4.5734,5.4836,1.5517,9.5787,2.5667,12.5071,3.2785Z"/>
        <path class="cls-9" d="M692.1522,160.0997c-.0467,7.2102-1.0501,14.0353-2.5785,21.7705-3.955,19.8689-24.7456,35.6076-57.8914,26.9391-19.414-5.0868-37.8012-16.9171-41.9195-17.9672-23.2056-5.8918-32.0493-.5717-46.5512,1.5284-5.9852.8634-37.4393,4.9235-69.4301-10.9669-16.007-7.9452-12.2153-10.9787-31.5592-22.8206-17.2787-10.5703-46.3295-28.3391-78.8919-20.3939-17.8856,4.3518-32.0026,15.2721-37.3577,19.4839-10.4187,8.2019-12.7753,18.8071-17.9672,24.6523-8.6569,9.7652-8.7502,14.5954-18.2588,25.1073-11.8886,13.1253-26.8224,16.5671-28.9924,18.4104-9.812,8.3069-14.7938,12.3203-21.5605,14.6071-8.9603,3.0334-14.677,1.4001-15.4122,3.1618-.7933,1.8667,3.6402,4.9117,7.0469,7.9452-1.9483-.5017-4.2234-1.3651-6.3117-3.1035-1.4817-1.2133-1.4934-1.7384-4.7252-4.8651-2.9635-2.8701-4.1885-3.6401-3.9551-4.2585.3733-1.0267,4.0252-.035,8.6803,0,1.1317,0,8.0851-.035,15.3653-3.5001,4.4452-2.1233,9.1353-4.3634,11.107-9.1352,1.2484-3.0101.56-4.9701,2.4384-6.8485,2.3918-2.3918,6.1951-1.8668,8.5169-1.82,11.667.1983,25.6789-11.0253,30.1357-21.7706,1.3184-3.1734,1.995-6.8019,5.4717-11.6319,2.3918-3.3251,4.7018-5.2735,5.9386-6.3935,7.5602-6.8251,10.7336-14.3853,13.697-18.9471,7.957-12.262,23.6256-17.1154,37.661-21.4556,8.7619-2.7184,24.769-7.4668,44.2878-3.6518,12.3903,2.4151,21.8172,7.4319,30.1359,11.8654,9.7069,5.1801,10.2668,6.8719,22.3655,14.3853,14.712,9.1353,24.629,15.2955,38.7226,19.4022,7.5952,2.2051,17.0339,2.8935,35.9226,4.2585,14.6888,1.0617,21.2338.7233,27.6974-3.0451,4.9468-2.8818,8.5987-7.0469,10.9553-9.742,8.3886-9.5669,9.5553-16.8471,12.7754-16.7421,3.3366.1283,2.8116,8.3186,7.6186,15.8321,8.9835,14.0353,29.9957,15.7154,42.7593,16.7421,7.0352.5601,14.4904-8.7735,29.9724-11.2586,17.699-2.8584,26.2041-21.1056,30.4275-33.5309,1.8667,3.6751,3.1734,7.5719,3.4651,11.6786.1401,2.0768.2101,4.0834.1984,6.0785Z"/>
        <path class="cls-3" d="M671.2293,129.3776c-.5714-1.7373-.8341-7.3329-18.0331-15.5222-12.2031-5.8105-18.427-8.7196-24.4246-8.9023-7.4148-.2261-6.8003,2.167-18.7179,2.7392-7.7438.3718-11.4852-.4714-16.6635,2.0544-3.0691,1.4971-8.5504,5.108-7.9893,8.2176.6577,3.644,8.9219,2.7674,22.1417,7.7611,8.2848,3.1295,14.7524,7.1429,22.3702,11.8699,10.6497,6.6084,12.9843,9.5233,19.6309,10.5002,2.7734.4077,9.7554,1.4339,15.7504-2.9674,5.6404-4.1409,8.0144-9.4282,5.9351-15.7504Z"/>
        <path class="cls-3" d="M488.0452,71.3978c-6.9864.0882-12.0777,2.045-16.4353,3.7664-10.5699,4.1755-17.684,10.3185-23.7397,15.6363-6.7453,5.9234-5.5445,6.1927-11.0709,10.7286-11.5469,9.4773-22.1493,12.7011-21.7995,13.5819.2326.5857,4.8519-1.0131,13.8102-3.3099,13.6947-3.5111,15.4626-2.9959,21.9136-5.5925,8.4887-3.4169,6.6846-4.815,13.696-7.3045,7.0153-2.4908,13.4981-2.7516,24.5387-3.1957,8.2671-.3325,10.4446.1213,14.1525-1.712,4.782-2.3644,10.1145-7.5467,9.1308-12.0981-.5705-2.6396-3.0502-4.0715-6.2774-5.9349-7.6448-4.4143-15.2279-4.5993-17.9189-4.5653Z"/>
        <path class="cls-3" d="M277.7544,132.7497c-1.6241-1.1653-7.3424-2.422-18.2423.965-10.7558,3.3422-18.3305,7.535-20.0875,8.522-6.2847,3.5306-13.0114,7.3782-19.6309,14.4569-1.7539,1.8756-3.4013,3.9389-6.6958,8.0654-1.7119,2.1442-9.1486,11.4588-8.5219,12.0221.4839.4351,4.4523-5.541,12.4786-9.5872,5.6583-2.8525,10.924-3.5311,16.5874-4.261,10.4806-1.3507,10.7318.6877,16.2829-1.2175,9.4444-3.2415,15.2178-10.1958,15.2179-10.1959,1.9059-2.2957,3.2284-4.6454,6.5436-6.2393,3.1982-1.5377,5.0648-.8402,6.2392-2.4349,1.7891-2.4292,3.1922-7.6823-.1712-10.0957Z"/>
        <path class="cls-3" d="M238.5115,216.1951c-3.2399.402-3.1072,4.1422-7.761,7.6089-3.4987,2.6062-4.936,1.5071-9.5872,4.7176-1.2916.8915-5.7841,3.9921-5.1741,5.6305.4864,1.3064,4.0065,1.1176,10.6525.7609,3.6649-.1967,5.5397-.3073,7.6089-.913,2.5725-.753,5.7411-1.6804,8.0653-4.5653.3355-.4165,4.5352-5.7807,1.9783-10.0437-1.0925-1.8216-3.445-3.4858-5.7828-3.1957Z"/>
        <path class="cls-3" d="M334.9638,254.8458c-1.3555-.9958-3.0009-1.1959-8.6645-.268-5.8712.9619-8.8069,1.4428-11.7016,2.6797-2.4895,1.0637-1.9748,1.221-9.8256,5.8954-4.2854,2.5517-6.3,3.6129-6.1633,3.9303.2444.5673,6.5187-3.2085,15.5425-3.4836,2.6771-.0817,6.1099.1291,9.8256.3573,4.493.2759,7.347.6069,10.2723-1.0718.9358-.5371,2.6051-1.5272,2.9476-3.305.3603-1.8705-.9119-3.7636-2.233-4.7342Z"/>
        <path class="cls-3" d="M450.7996,275.5444c-.6286-.9598,3.2161-4.689,6.0871-7.0002,1.3256-1.0672,9.7981-7.7084,20.3918-7.4567,2.4852.059,3.7611.4659,4.2609,1.3696.9213,1.6658-.8458,4.9283-3.3478,6.3915-2.1135,1.2361-3.5432.4816-7.3045.913-1.6344.1875-2.2575.4324-8.2176,2.4349-10.4682,3.5172-11.5851,3.7828-11.8699,3.3479Z"/>
        <path class="cls-3" d="M528.8669,274.7836c-.7262-2.9397-3.5199-4.3998-7.9132-6.6958-4.5188-2.3617-8.2992-3.1047-9.7395-3.3479-1.9597-.3309-3.3582-.3735-6.0871-.4565-4.2689-.1299-8.1815-.2489-8.3697.6087-.1907.8698,3.5064,2.4826,8.9784,4.8697,4.3607,1.9024,5.699,2.1909,7.4568,3.9566,1.341,1.3471,1.5967,2.2183,3.3478,3.5001,1.5012,1.0988,2.8227,1.5633,4.8697,2.2827,3.1426,1.1046,4.7141,1.6568,5.7828,1.0652,1.6457-.911,2.1907-3.691,1.674-5.7827Z"/>
      </g>
      <path class="cls-8" d="M877.0065,236.1524c-2.5322-1.5382-6.0322-1.5433-8.4131,0-4.5703,2.9624-4.7134,11.4324-.7827,16.0435,2.4485,2.8723,7.3059,5.2191,10.5654,3.3261,3.6479-2.1186,2.9924-8.2108,2.739-10.5652-.2908-2.7017-.7263-6.7499-4.1086-8.8044Z"/>
      <path class="cls-8" d="M879.55,307.5654c1.5386,2.2908,4.4155,4.4072,8.0217,4.5,5.4192.1393,8.481-4.3941,8.8044-4.8913,3.104-4.7709.9795-9.9149.7825-10.3696-2.3406-5.3994-7.9729-6.5041-8.8044-6.6522-.9539-.1699-5.8623-1.044-8.6086,1.9565-1.6243,1.7748-1.6804,4.018-1.7607,7.2391-.0776,3.1059-.1416,5.6762,1.5652,8.2173Z"/>
      <path class="cls-8" d="M785.2457,307.5654c-4.3496-.0439-9.2539-3.4152-9.1957-6.4565.0765-3.9968,8.7305-7.7762,16.0435-7.2391,4.5522.3344,9.9343,2.4404,9.9783,4.6956.0084.4319-.1698,1.342-9,5.8696-5.7937,2.9706-6.8126,3.1407-7.826,3.1304Z"/>
      <path class="cls-8" d="M660.1586,303.522c-2.1417-3.5361-6.7407-3.4371-8.8695-3.3913-1.9722.0424-6.9678.1499-8.8696,3.913-1.6656,3.2957-.0425,7.583,2.6088,9.6522,2.6378,2.0587,5.9143,1.6259,8.3478,1.3044,1.9774-.2612,3.7063-.4896,5.2174-1.8261,2.474-2.1881,3.451-6.5386,1.5652-9.6522Z"/>
      <path class="cls-8" d="M548.8978,316.9568c-3.7028-1.7975-9.0463,1.4529-9.5869,5.0869-.2361,1.5869.3677,3.7566,1.9565,4.6957,1.1581.6844,2.4016.4565,3.7173.1956,1.7688-.3508,6.4558-1.2802,7.0436-4.5.3917-2.146-1.1797-4.5312-3.1305-5.4782Z"/>
      <path class="cls-8" d="M444.0282,335.7394c.2413-1.7275-3.981-3.5752-10.5653-6.4565-4.7786-2.0911-8.137-3.0825-11.9347-3.326-2.8611-.1835-4.7712.1343-6.4565,1.1739-.4664.2877-3.2468,2.0028-3.1305,4.3043.0939,1.8589,2.0258,3.0755,3.7174,4.1087.9836.6008,3.6735,2.1142,10.3696,2.9348,3.2759.4014,6.1744.7361,9.9783.1956,2.6288-.3735,7.7659-1.1035,8.0217-2.9348Z"/>
      <path class="cls-8" d="M373.4957,321.6524c-1.5642-.9526-4.1161-1.4203-6.0653.0978-1.6162,1.2589-2.1912,3.3947-1.7609,5.1848.717,2.9833,3.9452,3.838,4.5979,4.0109.5931.157,3.4886.9238,5.0869-.7826,1.1111-1.1862.9562-2.8854.8804-3.7174-.047-.5156-.3016-3.309-2.739-4.7935Z"/>
      <path class="cls-8" d="M242.2129,311.5763c-1.5977.0449-3.3538,1.2247-3.4238,2.6414-.085,1.7181,2.361,2.7607,3.2283,3.1304.9109.3882,2.1611.9212,3.1304.2935,1.1577-.7498.9875-2.5551.9783-2.6413-.1915-1.769-1.9198-3.48-3.9131-3.424Z"/>
    </g>
  </g>
</svg>