<?xml version="1.0" encoding="UTF-8"?>
<svg id="Capa_2" xmlns="http://www.w3.org/2000/svg" viewBox="0 0 664.303 817.2211">
  <defs>
    <style>
      .cls-1 {
        fill: #ffdaa9;
      }

      .cls-2 {
        fill: #f9bd5d;
      }

      .cls-3 {
        fill: #ffcb80;
      }

      .cls-4 {
        fill: #db963b;
      }

      .cls-5 {
        fill: #eaa94b;
      }

      .cls-6 {
        fill: #c17e2d;
      }

      .cls-7 {
        fill: #d1831c;
      }

      .cls-8 {
        fill: #ffb357;
      }

      .cls-9 {
        fill: #e09528;
      }
    </style>
  </defs>
  <g id="Capa_1-2" data-name="Capa_1">
    <g>
      <g>
        <path class="cls-2" d="M375.9823,813.214c-1.1445,0-2.3115-.0322-3.4688-.0967-12.7705-.707-24.0654-7.7939-34.9883-14.6484-8.0557-5.0537-15.6641-9.8281-23.6855-12.1543-7.1299-2.0635-14.8369-2.2363-21.501-2.2363-1.3799,0-2.7607.0088-4.1396.0186-1.3936.0088-2.7861.0176-4.1748.0176-10.7334.001-22.084-.4922-32.4922-6.3809-2.0107-1.1377-3.9668-2.3711-5.8145-3.6641-15.0557-10.4404-26.3896-26.2646-37.3516-41.5684-3.2939-4.5986-6.6992-9.3535-10.1592-13.8975-3.25-4.2637-6.0469-7.709-8.8008-10.8418-6.3721-7.2646-13.916-13.1172-21.2119-18.7773-11.126-8.6328-22.6309-17.5586-29.2832-31.2461-6.3232-13.0146-6.7969-29.127-7.2559-44.709-.29-9.877-.5654-19.207-2.2715-27.3184-1.7891-8.5654-5.2324-16.0137-8.5625-23.2178-.9893-2.1377-2.0107-4.3486-2.9688-6.5459-3.582-8.2012-6.8418-17.3545-6.4414-28.6934.1738-4.8408,1.1533-9.8838,2.9922-15.4209,1.0508-3.1934,2.3721-6.5312,4.1133-10.3779-1.5576-3.04-2.7549-6.2822-3.5674-9.6631-3.2188-13.2246-.4541-27.2773,2.2207-40.8682,2.1943-11.1514,4.2666-21.6846,3.2588-31.624-1.2139-11.9355-4.3057-23.9131-7.2949-35.4971-4.3154-16.7139-8.7764-33.998-7.9922-52.1006.4111-9.3926,2.2754-18.6562,4.0791-27.6133,2.2568-11.21,4.3887-21.7979,3.9209-32.6201-1.5293-35.4756-30.7314-63.9727-56.4961-89.1143l-1.5898-1.5518c-14.915-14.5645-34.8105-37.6455-44.8936-64.8945C-.4737,87.1613,2.5712,61.2726,19.2138,38.9601,36.1445,16.257,74.5751,4.007,102.1386,4.007c8.083,0,15.333.9648,21.5498,2.8672,45.5059,13.9072,54.333,51.5791,62.8691,88.0107,2.96,12.6309,6.0195,25.6914,10.5693,37.7803,4.2373,11.252,9.6553,21.3828,16.1025,30.1104,10.457,14.2041,22.8672,23.7422,36.8877,28.3535,5.1826,1.708,10.5322,2.7324,16.1973,3.8174,7.2676,1.3916,14.7812,2.8311,21.8838,5.8389,14.9785,6.3574,23.7539,18.2246,32.2393,29.7002,1.083,1.4648,2.1641,2.9277,3.2578,4.377,5.9893,7.9307,11.416,14.1348,18.4238,18.6309,4.1641,2.6719,10.8223,2.9805,15.4678,2.9805,3.3486,0,6.9336-.1846,10.4004-.3633,3.4961-.1797,7.1113-.3662,10.5264-.3662,6.4014,0,14.2549.5879,19.5664,4.9199,15.376.9023,30.9648,9.6162,46.0518,18.0498,10.1348,5.6641,19.707,11.0156,28.7939,13.8691,8.2393,2.5928,15.9648,2.8545,24.4893,2.916l1.8135.0127c9.2021.0605,18.7188.124,28.291,3.7354,3.0947,1.1699,6.1221,2.6943,9.001,4.5312,5.873,3.751,10.2021,9.3301,14.3877,14.7266,3.2305,4.1631,6.2812,8.0967,9.9023,11.1123,4.2256,3.5195,8.9678,6.3379,13.9883,9.3223,7.2979,4.3379,14.8447,8.8242,20.8896,15.7139,9.707,11.0693,14.3984,24.0967,18.9355,36.6953,2.583,7.1729,5.2539,14.5908,8.8047,21.3926,3.4775,6.6523,8.3037,13.0928,12.9707,19.3203,7.3096,9.7539,14.8682,19.8408,18.1006,31.6143,3.2119,11.7324,1.5381,23.9375-.0801,35.7422-1.1104,8.0996-2.1592,15.75-1.7334,23.1797.4688,8.3545,2.1113,16.7393,3.7002,24.8467.4277,2.1836.8545,4.3623,1.2588,6.5381,1.1689,6.2012,2.3955,13.5713,2.6162,21.1465.1602,5.6475-.2402,10.8037-1.2256,15.7676-2.4062,12.1738-11.6064,23.8408-20.5039,35.125-6.4209,8.1436-12.4863,15.835-15.7617,23.2441-3.3447,7.5684-3.9131,14.9102-4.5156,22.6816-.7988,10.3096-1.625,20.9707-9.46,31.3613-6.9365,9.1943-18.8369,16.1777-30.3457,22.9316-8.0547,4.7266-15.6621,9.1914-21.3516,14.1797-7.1475,6.2676-13.0449,12.6279-18.7471,18.7793-11.0215,11.8877-21.4316,23.1162-38.2568,30.5977-8.2568,3.6719-18.1943,4.166-26.8252,4.166-3.5371,0-7.1445-.0977-10.6328-.1914-3.5146-.0957-6.834-.1855-10.1133-.1855-6.6396,0-11.3555.3838-15.29,1.2451-.6602.1406-1.3018.2871-1.9326.4521l-.2031.0479-.1074.0381-.2207.0508c-.5957.1377-1.1836.2949-1.752.4502-.6758.1787-1.3047.3574-1.9336.5459-.8301.2441-1.625.4932-2.4199.751-1.1592.377-2.3008.7744-3.4336,1.1807-1.3564.4932-2.6934,1.002-4.0703,1.5508-1.9277.7656-3.8477,1.5742-5.6348,2.335-.5488.2236-1.0166.4277-1.4863.6328l-.3545.1543c-.9932.4316-1.9775.8555-2.9609,1.2734l-.0225.0234-1.4355.6055c-.4131.1758-.8252.3516-1.2412.5195l-.7334.3066c-1.3594.5791-2.7549,1.1426-4.1387,1.6865l-.1113.042c-.1865.0664-.3496.1348-.5146.2012-2.3779.918-4.4766,1.6582-6.5029,2.2988l-1.4697.4385c-.9902.29-1.9922.5635-3.0049.8174-5.2773,1.332-10.3721,1.9805-15.5654,1.9805Z"/>
        <path class="cls-1" d="M102.1396,8.0146c7.4653,0,14.4214.869,20.376,2.6912,58.54,17.8901,53.0298,75.9902,70.8599,123.3701,4.1104,10.9102,9.6504,21.6299,16.6304,31.0801,9.9897,13.5698,22.96,24.5498,38.8599,29.7798,12.3501,4.0698,25.7998,4.4702,37.77,9.54,15.8101,6.71,24.3999,20.2603,33.8599,32.7998,5.6201,7.4399,11.54,14.5103,19.46,19.5903,4.5059,2.891,10.8013,3.6152,17.6318,3.6152,6.8569,0,14.2563-.7296,20.9268-.7299,7.5088-.0002,14.0933.924,17.9517,4.8544.1196.0103.23,0,.3398.0103,24.6499.8198,51.2598,24.3599,74.9199,31.79,8.9302,2.8096,17.4102,3.04,25.6602,3.0996,9.7798.0801,19.23-.0898,28.7197,3.4902,2.75,1.04,5.5,2.3999,8.2603,4.1602,9.5498,6.0996,15.02,18.1597,23.8799,25.54,10.8301,9.0195,24.8501,13.6797,34.4302,24.5996,14.6797,16.7404,17.3398,38.4103,27.1997,57.3004,9.0503,17.3101,25.7002,31.71,30.7603,50.1401,5.0801,18.5596-3.04,39.0498-1.9502,58.0898.6099,10.8701,3.0703,21.4102,5.02,31.8896,1.29,6.8403,2.3501,13.6602,2.5503,20.5303.1396,4.9199-.1602,9.8799-1.1504,14.8701-3.8696,19.5801-27.8398,39.0698-36,57.5298-8.29,18.7603-.8496,36.46-13.5098,53.25-11.0601,14.6602-36.79,23.9302-51.1401,36.5103-21.2197,18.6099-31.48,37.8301-55.9897,48.73-7.0771,3.1465-15.958,3.8203-25.1973,3.8203-6.9146,0-14.0327-.3772-20.7485-.3774-5.814,0-11.3237.2825-16.1445,1.3369-.6997.1499-1.3999.3101-2.0898.4902-.1499.0298-.2798.0596-.4199.1099-.6499.1499-1.29.3198-1.9102.4897-.6797.1802-1.3501.3701-2.02.5703-.8501.25-1.6797.5098-2.5098.7798-1.2002.3901-2.3804.8003-3.5503,1.2202-1.4297.52-2.8198,1.0498-4.1997,1.6001-1.9399.77-3.8403,1.5698-5.7202,2.3696-.6401.2603-1.25.5303-1.8701.8003-1.2197.5298-2.4297,1.0498-3.6396,1.5601-.02.0098-.0503.02-.0703.04-.6196.2598-1.23.5298-1.8496.7798-.27.1099-.5303.2202-.79.3301-1.3403.5698-2.7002,1.1201-4.0503,1.6499-.25.0898-.4697.1802-.6899.27-2.0498.79-4.0898,1.52-6.1802,2.1802-.4697.1396-.9399.2798-1.4097.4199-.9199.27-1.8701.5298-2.8301.77-4.5757,1.1543-9.373,1.8604-14.5903,1.8604-1.0654,0-2.1475-.0293-3.2495-.0903-20.6001-1.1401-37.8804-20.8799-57.7803-26.6504-7.3027-2.1138-14.9521-2.395-22.6172-2.395-2.7744,0-5.5488.0369-8.312.0369-10.6597,0-21.1265-.5469-30.5205-5.8616-1.8901-1.0698-3.7202-2.2202-5.4902-3.46-18.9199-13.1201-31.6602-34.96-46.6201-54.6099-2.8896-3.79-5.8599-7.5103-8.98-11.0601-16.5-18.8101-39.4697-27.6699-49.8999-49.1299-9.8101-20.1904-4.6899-49.6104-9.21-71.1001-2.4302-11.6304-7.6099-20.98-11.7798-30.54-3.6201-8.29-6.4702-16.7402-6.1104-26.9502.1699-4.7197,1.2002-9.5098,2.79-14.2998,1.29-3.9199,2.9502-7.8501,4.79-11.79-1.9502-3.3799-3.29-6.8701-4.1499-10.4502-5.52-22.6797,7.9199-48.77,5.5698-71.96-2.9897-29.3999-16.5698-57.0299-15.27-87.0201.8901-20.3896,8.8804-40.1899,8-60.5801-1.6299-37.7998-32.2197-66.9297-59.29-93.3599C23.0058,143.906-12.6446,88.3757,22.4257,41.3557,37.8583,20.6626,73.6742,8.0146,102.1396,8.0146M102.1396,0c-15.4097,0-32.353,3.3665-47.7085,9.4789-11.8281,4.7085-28.0967,13.2295-38.4302,27.0854C6.7997,48.901,1.5102,62.5298.2797,77.0717c-1.082,12.7849.9785,26.3191,6.1245,40.2266,10.3408,27.9491,30.6421,51.5199,45.8521,66.3718l1.5898,1.5519c26.4648,25.8251,53.8311,52.5294,55.292,86.4191.4463,10.3362-1.6387,20.6921-3.8462,31.6559-1.8335,9.108-3.73,18.5261-4.1533,28.2292-.8105,18.701,3.7266,36.2784,8.1143,53.2772,3.0884,11.9658,6.0059,23.2683,7.189,34.9033.9473,9.3442-1.0693,19.5935-3.2041,30.4441-2.7578,14.0161-5.6089,28.509-2.1792,42.6003.728,3.0327,1.7466,5.9739,3.0386,8.7783-1.4326,3.2761-2.5684,6.2168-3.5044,9.0613-1.9541,5.8872-2.9985,11.2964-3.1865,16.5168-.4282,12.1433,3.0029,21.8088,6.7749,30.4458.9731,2.2317,2.0039,4.4612,3.0005,6.6172,3.3857,7.3232,6.5835,14.2405,8.2788,22.3547,1.6348,7.7727,1.9043,16.929,2.1895,26.6228.4712,16.0042.958,32.5532,7.6572,46.3406,7.062,14.5303,18.9419,23.7478,30.4312,32.6621,7.1465,5.5444,14.5361,11.2778,20.6523,18.2505,2.6973,3.0691,5.4385,6.4463,8.6313,10.6343,3.4214,4.4939,6.8105,9.2253,10.0879,13.8008,11.1597,15.5801,22.6992,31.6904,38.3389,42.5356,1.918,1.3438,3.9839,2.6458,6.1094,3.8489,11.2568,6.3684,23.1997,6.9011,34.4683,6.9011,1.3979,0,2.7988-.0093,4.2012-.0186,1.3691-.009,2.7402-.0181,4.1108-.0181,7.9272,0,14.4282.3538,20.3887,2.0789,7.479,2.1687,14.8569,6.7981,22.668,11.6992,11.354,7.1243,23.0942,14.491,36.8979,15.2549,1.2285.0681,2.4712.1028,3.6924.1028,5.5259,0,10.9395-.6882,16.5508-2.104,1.02-.2551,2.0767-.5427,3.127-.8508l1.436-.4277.0654-.0193.0649-.0205c2.1104-.6667,4.2852-1.4336,6.6484-2.3445l.0732-.0281.0728-.0298c.1396-.0571.249-.1038.373-.1484l.1084-.0391.1074-.042c1.5493-.6079,2.9419-1.1753,4.2583-1.7349.2427-.1028.4556-.1931.6758-.2827.418-.1685.8545-.3547,1.2915-.5415l.6357-.2703,1.4536-.6094.0312-.0312c.771-.3293,1.543-.6626,2.3193-.9998l.3164-.1379c.4551-.1987.9077-.3972,1.3794-.5889l.0601-.0244.0591-.0254c1.7563-.7471,3.6426-1.5425,5.5391-2.2952,1.3262-.5288,2.6245-1.0234,3.9829-1.5173,1.2236-.4392,2.2788-.802,3.2881-1.1301.8276-.269,1.5771-.5022,2.2935-.7129.6235-.1863,1.2144-.3538,1.813-.5125l.0317-.0083.0317-.0088c.4829-.1323,1.0498-.2844,1.5947-.4102l.459-.1062.1108-.0396.0732-.019c.5005-.1306,1.0542-.2603,1.7432-.4077,3.627-.7932,8.2129-1.1592,14.4658-1.1592,3.2246.0002,6.5181.0894,10.0049.1838,3.5161.095,7.1523.1934,10.7437.1934,9.0522,0,19.5112-.5359,28.4531-4.5115,17.5781-7.8171,28.2598-19.3389,39.5688-31.5371,5.6333-6.0762,11.458-12.3589,18.4497-18.4905,5.4023-4.7363,12.8511-9.1072,20.7363-13.7349,11.8481-6.9526,24.0996-14.1421,31.5171-23.9741,8.541-11.3271,9.4526-23.0884,10.2568-33.4651.5747-7.4209,1.1182-14.4304,4.1855-21.3723,3.0698-6.9448,8.9829-14.4434,15.2432-22.3826,9.1909-11.6562,18.6953-23.7095,21.2886-36.8328,1.043-5.2546,1.4683-10.7034,1.2993-16.6516-.229-7.8657-1.4863-15.4275-2.6855-21.7881-.4043-2.1709-.8335-4.364-1.2642-6.562-1.6338-8.3403-3.1768-16.218-3.6299-24.2913-.4033-7.0505.6196-14.5134,1.7026-22.4148,1.6729-12.2034,3.4028-24.822-.0244-37.342-3.4351-12.5127-11.2261-22.9089-18.7607-32.9629-4.7817-6.3809-9.2983-12.4077-12.627-18.7747-3.4224-6.5564-5.9297-13.519-8.584-20.8906-4.6631-12.9497-9.4854-26.3406-19.6924-37.9805-6.4644-7.3688-14.2891-12.0195-21.8555-16.5172-4.8799-2.9005-9.4893-5.6403-13.4717-8.9569-3.2856-2.7372-6.2075-6.5034-9.3013-10.4908-4.3945-5.6648-8.939-11.5223-15.3936-15.645-3.1172-1.9879-6.3921-3.6362-9.7388-4.9021-10.25-3.8666-20.1309-3.9321-29.687-3.9954l-1.8027-.0129c-8.2021-.0592-15.6128-.3054-23.3203-2.7303-8.6973-2.7313-18.0952-7.9844-28.0444-13.5459-15.0908-8.4351-30.6704-17.1432-46.5293-18.4639-6.168-4.3904-14.3413-5.0143-21.04-5.0143-3.521,0-7.1875.189-10.7334.3717-3.417.176-6.9502.3582-10.1963.3582-6.4917,0-10.8433-.7675-13.3037-2.3462-6.5063-4.1732-11.6582-10.0842-17.3931-17.6758-1.0825-1.4352-2.1567-2.8878-3.2319-4.3418-8.8047-11.9081-17.9092-24.2214-33.8916-31.0048-7.5005-3.1766-15.228-4.6567-22.7007-6.088-5.5332-1.0597-10.7593-2.0607-15.6924-3.6863-13.2192-4.3484-24.9648-13.4049-34.9141-26.9193-6.2339-8.4402-11.4746-18.2456-15.5845-29.1543-4.4565-11.8418-7.4863-24.7736-10.4165-37.2797-4.3086-18.3885-8.7637-37.403-17.8848-53.45-10.5991-18.6465-26.207-30.9061-47.7163-37.4795-6.5933-2.0177-14.2378-3.0411-22.7183-3.0411h0Z"/>
      </g>
      <path class="cls-9" d="M562.5582,456.5883c-.24,2.9299-.78,5.7998-1.6,8.5898-5.9601,20.29-26.38,36.0801-47.7301,35.3301-24.2999-.8501-45.8799-22.97-46.1399-47.28-.05-4.52.54-9.1301-.55-13.53-1.08-4.3899-4.4299-8.6799-8.95-8.99-3.26-.23-6.29,1.6101-8.8601,3.6301-13.8999,10.8799-23.0199,29.1199-40.0999,33.54-8.1801,2.1199-16.9001.5-24.5701-3.1902-1.6-.76-3.15-1.6199-4.64-2.55-5.5699-3.48-10.4401-7.9199-14.9401-12.72-2.5-2.6499-4.8899-5.4099-7.22-8.1899-4.95-5.8899-15.03-31.0901-23.33-24.5601-5.48,4.3301-6.5,31.6401-9.0299,38.1501-4.4202,11.3298-16.0901,10.5698-21.28,21.6699-5.79,12.4199-.67,27.23-5.1201,40.0601-2.77,7.98-8.8099,14.3101-14.5599,20.49-5.76,6.1799-11.59,12.8098-13.73,20.98-.35,1.3298-.5699,2.71-.66,4.0999-.4399,7.1802,2.5701,14.7402,9.01,17.6501,19.9399-7.97,43.13-10.46,62.65-1.51,15.88,7.29,28.71,34.23,44.9401,40.6899,28.7999,11.45,61.6099-22.3101,90.24-6.6099,8.9199,4.8999,20.0599,17.6899,26.1199,28.96,1.6301,3.0298,2.8901,5.95,3.6401,8.5801,3.0898,10.7798.8398,29.8499-4.4102,39.75-6.6199,12.5198-23.71,19.4199-36.3999,25.7698-5.63,2.8101-11.6201,4.9102-17.77,6.1902-20.01,4.1799-41.38.0298-59.15-10.0701-21.26-12.0901-39.46-32.9001-63.89-34.02-13.6299-.6199-28.46,5.55-41.73.7-15.03-5.49-33.4199-31.6599-35.76-46.26-1.75-10.8499,5.97-26.2,8.6799-39.4099v-.01c1.1702-5.7,1.4001-11-.46-15.3601-7.09-16.6099-42.7999-28.9199-51-45.01-14.78-28.98,22.4501-40.4099,15.71-70.01-2.0099-8.8198-6.73-17.1199-6.7699-26.1599-.03-8.9199,4.5399-17.25,10.13-24.21,10.61-13.22,25.38-23.05,41.6699-27.74,21.3201-6.1401,30.29,12.0601,48.9401,17.01,4.2899,1.1399,8.83,1.01,13.22.3799,17.76-2.5701,33.02-13.1199,45.4801-25.53,9.8298-9.7998,19.4399-21.1399,35.3999-19.96,51.3101,3.8,34.5701,51.5601,56.22,61.8301,17.6301,8.3701,37.3301-14.9399,56.6901-12.47,24.11,3.0701,43.58,27.0701,41.61,51.3Z"/>
      <path class="cls-2" d="M264.6008,223.0786c-4.3524-6.564-16.4323-6.304-21.4469,0-2.603,3.2722-3.3044,8.176-1.5319,12.2554,2.6013,5.9863,10.0291,9.0435,16.0851,6.8936,7.7729-2.7595,10.8234-13.2224,6.8937-19.1489Z"/>
      <path class="cls-2" d="M324.3454,289.717c1.2117-4.906-4.0557-12.3247-13.7872-15.3191-6.1277,2.5532-12.2552,5.1064-18.3829,7.6597.2734.9172,3.4506,10.9768,13.0212,13.7871,7.5262,2.21,17.7427-.4338,19.1489-6.1277Z"/>
      <path class="cls-2" d="M384.0901,302.9948c-4.9366-6.4995-16.8118-6.0586-20.6808,0-2.8445,4.4541-.3669,10.3872,0,11.2327,6.6818,7.5366,16.5284,7.5818,20.6808,3.064,3.3126-3.6042,3.0981-10.2178,0-14.2966Z"/>
      <path class="cls-2" d="M161.9601,437.5468c-3.828-1.824-10.126,1.3398-13.0192,6.1277-2.9178,4.8286-2.3644,11.2954,1.5322,16.085,1.1273.468,7.0392,2.8049,11.4869,0,7.1705-4.5222,5.8247-19.4373,0-22.2126Z"/>
      <path class="cls-5" d="M170.1561,523.5893c-8.2758-6.2983-25.3873-4.0894-31.5005,7.1489-4.7845,8.7957-.7832,19.356,4.4132,25.3616,4.8925,5.6543,14.0991,11.0332,21.4468,8.3406,12.5341-4.5933,17.4487-31.864,5.6405-40.8511Z"/>
      <path class="cls-5" d="M354.4731,515.4191c-1.5703-6.2825-11.9424-10.0779-19.4043-7.1489-7.4386,2.9199-12.0101,12.5322-9.1915,22.468,1.9391.7512,9.2175,3.3054,16.8511,0,5.9102-2.5591,13.2815-9.1711,11.7448-15.3191Z"/>
      <path class="cls-5" d="M411.6645,492.4404c-2.3701-2.0952-6.6775-2.1663-9.702,0-3.3062,2.3679-4.5452,7.0269-2.5532,10.7234,1.8862,3.5005,6.1198,5.1172,9.1915,4.1006,5.2562-1.7397,7.1571-11.2053,3.0637-14.824Z"/>
      <path class="cls-5" d="M467.5452,373.0115c7.7384-4.2907,10.4757-13.8345,8.1012-21.6034-2.2659-7.4134-9.0568-12.7848-17.1027-13.5022-14.2459,10.4139-17.1248,25.6178-11.7018,32.4051,3.9908,4.9948,13.4906,6.6999,20.7033,2.7005Z"/>
      <path class="cls-5" d="M455.5794,309.3201c-.3853-3.0864-3.9922-6.2056-8.1702-6.3252-3.9365-.1133-7.5728,2.459-8.6809,6.3252-1.1055,3.856.5862,8.0132,4.0852,10.0137,8.3062-.4248,13.2766-5.9214,12.7659-10.0137Z"/>
      <path class="cls-5" d="M354.6792,368.3552c1.7454,1.1511.6913,7.4338-2.7593,11.7449-.7913.9885-5.9908,7.2239-12.766,5.6169-5.3279-1.2637-10.0591-7.0042-8.6808-11.7446.8683-2.9863,4.0876-5.3228,7.1489-5.6172,3.8032-.3657,4.9146,2.6562,9.1915,2.5532,4.4775-.1077,6.4362-3.4961,7.8656-2.5532Z"/>
      <path class="cls-5" d="M242.6433,364.6447c-3.0774-2.7373-7.9248-1.699-10.7234,0-3.882,2.3567-5.9277,7.2629-5.1063,12.4402,5.3712,4.4016,12.474,3.865,15.8297,0,2.8274-3.2563,3.4358-9.384,0-12.4402Z"/>
      <path class="cls-5" d="M205.3667,463.3339c.8954-3.6343.2561-9.0388-3.9725-11.7446-2.972-1.9019-7.2415-2.166-10.3253,0-4.9896,3.5046-3.2858,10.8503-3.0638,11.7446.119.4795,2.1208,8.1008,7.6595,8.6809,4.6742.4895,8.641-4.3735,9.7021-8.6809Z"/>
      <path class="cls-5" d="M436.1753,580.7807c1.0688-3.5691-.2032-8.312-3.5745-10.2126-4.5557-2.5686-11.2913.9854-13.2766,6.1277-1.2988,3.364-.8237,8.0786,2.0425,10.2126,4.2876,3.1924,12.9976-.0803,14.8086-6.1277Z"/>
      <path class="cls-5" d="M458.213,539.5222c.6543-2.7817-5.5366-9.377-11.209-7.1333-.0352.0137-.0701.0278-.105.0425-5.4382,2.2588-3.387,10.5234,2.4893,10.144,4.0298-.2603,8.3462-1.019,8.8247-3.0532Z"/>
      <path class="cls-5" d="M330.2313,698.2273c-3.7766-3.2563-9.1722-2.6235-12.5242,0-2.7561,2.1572-4.7479,6.1436-3.5745,10.2129,1.094,3.7944,4.4761,6.0552,7.6595,6.6382,3.856.7065,8.1846-.9082,10.3568-4.5957,2.2852-3.8789,1.6633-9.1675-1.9177-12.2554Z"/>
      <path class="cls-5" d="M374.2771,715.2407l-12.2175,2.9019c2.9725,5.1709,7.7229,8.2236,12.2175,7.6594,3.1478-.395,7.4628-2.7263,7.2599-5.6169-.16-2.2803-3.1112-4.6226-7.2599-4.9443Z"/>
      <path class="cls-5" d="M222.3377,666.5681c.1251-.239,2.6333-5.2104,0-9.1917-2.5977-3.9272-8.0492-3.6409-9.3114-3.5745-4.1364.2173-10.3994,2.5847-11.6322,8.1702-.7205,3.2642.4082,7.0337,2.9513,9.1917,5.0938,4.3225,14.8793,1.3467,17.9923-4.5957Z"/>
      <path class="cls-5" d="M238.5582,597.6318c4.0084-2.875,5.1567-8.48,2.5532-12.7659-8.6543-3.22-16.0083-.7483-17.5751,3.2871-1.0499,2.7041.5229,6.0486,2.2559,7.947,2.9896,3.2751,8.5582,4.5498,12.766,1.5317Z"/>
      <path class="cls-5" d="M176.8823,632.3552c2.8217-5.1926.2972-10.6211,0-11.2339-1.6798-3.4626-5.5433-7.4004-10.036-7.1489-6.2948.3523-10.5873,8.7471-9.8772,15.3191.0933.8638.6909,6.3948,4.991,8.6809,4.9198,2.6157,12.0865-.3989,14.9222-5.6172Z"/>
      <path class="cls-5" d="M282.9837,705.6284c.1511-4.541-3.8717-8.3032-7.6595-9.6123-5.8542-2.0234-13.6089.9619-15.3192,6.8074-.9984,3.4124.105,7.6562,3.0638,10.2126,3.2086,2.7722,7.1859,2.3394,8.4255,2.2046,4.6873-.51,11.3002-3.9282,11.4894-9.6123Z"/>
      <path class="cls-5" d="M386.4947,578.9326c1.0697-1.7617,3.5415-5.832,1.6805-9.2205-1.8242-3.3215-6.9479-4.4141-10.7234-2.7185-4.1283,1.854-5.6239,6.5835-5.1064,10.2126.4392,3.0803,2.5927,7.2197,6.1277,7.6597,4.1082.5112,7.0599-4.3499,8.0216-5.9333Z"/>
      <path class="cls-7" d="M501.7381,689.6284c-6.6199,12.5198-23.71,19.4199-36.3999,25.7698-5.63,2.8101-11.6201,4.9102-17.77,6.1902-20.01,4.1799-41.38.0298-59.15-10.0701-21.26-12.0901-39.46-32.9001-63.89-34.02-13.6299-.6199-28.46,5.55-41.73.7-15.03-5.49-33.4199-31.6599-35.76-46.26-1.75-10.8499,5.97-26.2,8.6799-39.4099,2.04,5.3198,3.5,10.3501,3.9302,11.8101,6.1499,21.1199.21,26.3098,6.48,37.72,8.5399,15.51,28.6399,22.45,42.22,23.6699,14.1599,1.27,16.1599-4.1301,31.51-2.24,13.1199,1.6299,22.6299,6.9299,32.3899,12.49,20.1101,11.47,18.48,17.1899,33.92,24.29,6.0599,2.79,23.0499,10.6101,40.84,5.0999,6.3601-1.97,12.1201-6.5898,23.6401-15.8198,14.45-11.5901,21.6799-17.3901,26.3298-26.0601,4.3601-8.1299,5.4301-15.98,5.53-22.1899,1.6301,3.0298,2.8901,5.95,3.6401,8.5801,3.0898,10.7798.8398,29.8499-4.4102,39.75Z"/>
      <path class="cls-7" d="M364.4781,449.4182c-2.5-2.6499-4.8899-5.4099-7.22-8.1899-4.95-5.8899-15.03-31.0901-23.33-24.5601-5.48,4.3301-6.5,31.6401-9.0299,38.1501-4.4202,11.3298-16.0901,10.5698-21.28,21.6699-5.79,12.4199-.67,27.23-5.1201,40.0601-2.77,7.98-8.8099,14.3101-14.5599,20.49-5.76,6.1799-11.59,12.8098-13.73,20.98-.35,1.3298-.5699,2.71-.66,4.0999-3.39-5.3398-5.1599-13.23-3.4199-19.48,2.6699-9.5298,11.8599-9.3799,16.0898-20.8398,1.6702-4.51.4202-5.02.77-22.5901.26-13.23.4301-19.9199,2.29-24.1301,2.92-6.5898,5.4399-5.5999,16.0901-18.3799,6.4399-7.74,9.6699-11.6099,12.4199-17.6799,4.6001-10.1399,2.05-13.21,6.73-19.8501.8401-1.1899,8.1201-11.22,17.96-10.5598,7.8.5298,12.7301,7.46,16.2001,12.3599.9301,1.3,9.88,14.28,9.7999,28.45Z"/>
      <path class="cls-7" d="M560.9582,465.1782c-5.9601,20.29-26.38,36.0801-47.7301,35.3301-24.2999-.8501-45.8799-22.97-46.1399-47.28-.05-4.52.54-9.1301-.55-13.53-1.08-4.3899-4.4299-8.6799-8.95-8.99-3.26-.23-6.29,1.6101-8.8601,3.6301-13.8999,10.8799-23.0199,29.1199-40.0999,33.54-8.1801,2.1199-16.9001.5-24.5701-3.1902,4.14-.4299,9.0701-1.3999,14.39-3.6299,12.7799-5.3701,22.75-15.9402,25.47-18.8301,6.5699-6.96,6.99-9.6399,12.63-13.1101,2.12-1.2998,11.03-6.77,21.71-4.5898,15.3101,3.1199,21.76,19.4099,22.23,20.6299,4.3201,11.4001-1.4199,15.74,3.1801,26.0901,3.9801,8.97,12.75,15.76,21.6901,18.1499,13.59,3.6301,25.6599-3.3999,36.51-9.72,8.5699-5,14.6799-10.2998,19.09-14.5Z"/>
      <path class="cls-8" d="M472.5081,621.6088c-6.2258-8.124-20.3445-5.7886-28.8369-4.3838-9.525,1.5754-10.3955,3.9004-29.7911,10.9326-14.8069,5.3684-20.6289,6.3086-20.5269,8.3164.1454,2.8599,12.0021,1.8801,31.5879,7.626,16.5844,4.8652,20.7698,9.2896,30.6742,7.5981,3.0134-.5146,12.6895-2.167,17.3258-10.6621,3.1311-5.7371,3.6753-14.0664-.433-19.4272Z"/>
      <path class="cls-8" d="M301.3667,584.9035c1.4027-4.7483,16.5648-5.4622,28-1.5156,6.3127,2.1787,20.4471,8.8689,19.4847,17.458-.6731,6.0071-8.3646,9.6782-10.3707,10.5754-31.5853-15.6409-38.1866-22.887-37.114-26.5178Z"/>
      <path class="cls-8" d="M226.6339,428.915c1.7122-15.6724,12.926-25.1572,14.0076-26.0439,2.6414-2.1655,14.3708-11.7817,26.0018-7.9626.7594.2493,8.5851,2.918,9.1915,7.9626.7032,5.8496-8.7119,11.4709-16.189,15.9353-10.6908,6.3831-13.48,4.9309-19.0044,10.1086-8.1288,7.6187-8.5278,16.7966-11.0493,16.4277-2.4064-.3521-3.7736-8.9644-2.9583-16.4277Z"/>
      <path class="cls-8" d="M216.0901,499.2033c-.9408-.2771-4.6689,6.8562-6.1768,15.7051-.8169,4.7944-1.5732,9.2332,0,14.2979,2.9954,9.6431,13.0485,17.0901,16.4841,15.1851,2.4546-1.3611,2.1971-7.865,0-12.4597-2.651-5.5439-6.6808-5.2861-9.7966-9.8743-6.0864-8.9622.7816-22.4734-.5107-22.854Z"/>
      <path class="cls-8" d="M386.4947,370.8813c4.1356-2.8965,10.8235-6.636,19.6708-7.9224,3.853-.5603,10.7732-1.4795,18.265,1.6858,3.5275,1.4905,9.1801,3.8787,9.9652,8.8169.5825,3.6636-1.6086,8.1343-4.8588,9.1914-1.1478.3733-2.9042.4758-9.7021-3.5745-5.0078-2.9836-8.1516-5.4802-9.3411-6.3296-3.9142-2.7949-10.8354-5.012-23.999-1.8677Z"/>
      <path class="cls-8" d="M505.7703,413.2362c.4926-2.3896,11.473-2.4115,12.7981-2.3348,5.7492.3327,11.4337,1.8799,16.5275,4.5735,2.3497,1.2425,4.8936,3.4463,4.2538,6.0261-.4181,1.6859-2.0725,2.7404-3.66,3.4453-2.6846,1.1919-5.7308,1.8916-8.5663,1.1249-3.4699-.9382-5.9812-3.8398-8.8164-6.0494-2.8578-2.2272-6.2036-3.8248-9.7323-4.647-.8958-.2087-1.8798-.4129-2.4591-1.128-.3048-.3767-.4068-.712-.3453-1.0104Z"/>
      <path class="cls-3" d="M641.7258,476.577c-2.5987-11.5605-10.7926-21.0051-18.069-30.4186-12.1495-15.7178-22.4669-32.8506-30.6768-50.9408-4.9424-10.8905-9.2984-22.4008-17.4779-31.1258-8.3721-8.9304-21.4576-13.9031-32.9798-8.4216-9.9152,4.717-13.3426,16.2653-7.4555,25.9875,5.4869,9.0613,15.4609,14.2712,23.0134,21.699,13.9853,13.7544,18.881,34.4128,19.3309,54.0232.4529,19.7463-5.0985,42.5598-22.9379,51.0378-4.9794,2.3664-10.6478,3.4415-15.0037,6.8208-5.833,4.5252-32.3449,12.0042-38.0472,16.6931-37.2446,30.6263,9.3977,72.1201,13.548,107.3574,2.0541,17.4399,7.233,36-.2846,51.8699-11.3809,24.0255-44.3277,27.7504-63.5547,46.1099-7.7485,7.399-13.6677,17.5027-23.7124,21.2294-8.236,3.0556-17.3527,1.0683-26.0526-.1485-14.9478-2.0907-30.23-1.7725-45.0778.9386-3.5695.6518-7.248,1.5016-10.1062,3.7368-4.7265,3.6962-6.0955,10.6803-4.1385,16.3524,1.957,5.672,6.7128,10.0518,12.0849,12.7243,11.5062,5.7243,25.3157,4.2632,37.631.5896,12.3153-3.6735,24.0165-9.4035,36.5939-12.0436,15.3222-3.2163,31.2195-1.7031,46.8011-3.228,15.5817-1.5248,34.847-4.1215,43.4596-17.1958,6.4689-9.8201,7.5972-22.2894,16.6957-29.7391,7.1361-5.843,14.6211-10.1565,23.4784-12.728,17.3958-5.0504,38.1628-17.8931,44.0868-35.0112,7.3887-21.3505-3.9624-48.1286,9.5259-66.2532,6.2926-8.4556,18.4002-16.3531,25.6915-23.9644,7.3043-7.6249,4.7295-19.3506,4.543-27.3728-.4974-21.4033-5.9869-39.1039-2.4005-60.2105,1.5448-9.0913,3.4667-18.3987,1.6854-27.4466-.0608-.3086-.1256-.6158-.1943-.9214Z"/>
      <path class="cls-2" d="M565.188,546.4835c-6.1354-5.5414-19.3933-4.6741-25.6287,4.0041-6.3985,8.9053-2.5646,22.0868,5.6062,26.4296,4.3384,2.3063,9.6608,1.9938,13.6154,0,10.2631-5.1733,14.3972-23.2171,6.4071-30.4337Z"/>
      <path class="cls-2" d="M614.6139,543.7024c-3.4277-2.6211-9.459-3.7852-12.5217-.522-2.6267,2.7988-1.7061,7.4009-.5217,9.9131,2.1838,4.6328,7.8767,7.7026,12.5217,6.2612.583-.1812,2.8713-.9277,4.1738-3.1309,2.2649-3.8311.1157-9.6406-3.6521-12.5215Z"/>
      <path class="cls-2" d="M630.7283,495.0745c-1.4579-7.8499-9.1854-12.252-16.0847-11.8888-7.3162.3855-14.3022,6.162-14.6861,13.2874-.4235,7.8624,7.4406,12.72,8.3922,13.2874,1.309.7808,6.2212,3.7116,11.8888,2.0983,6.434-1.8313,11.9398-8.9783,10.4898-16.7844Z"/>
      <path class="cls-2" d="M569.623,385.083c-2.8403-2.6311-8.1268-3.1925-11.317-.4722-3.9241,3.3469-2.8725,10.121.4713,13.6754,1.9484,2.0706,5.5358,3.963,8.4882,2.8297,4.8968-1.8791,7.0429-11.6921,2.3575-16.0329Z"/>
      <path class="cls-2" d="M608.6139,435.4417c-.542-.3057-3.1892-1.6987-4.9565-.522-2.1155,1.4087-2.2344,6.0103.261,8.3481,2.4763,2.3198,7.0247,1.9395,8.3477-.2612,1.3604-2.2627-.9392-6.0356-3.6521-7.5649Z"/>
      <path class="cls-2" d="M591.9183,464.9197c-1.9312-.0854-3.8735,1.248-4.1741,3.1304-.3652,2.2876,1.9446,3.8218,2.0869,3.9131.2.1284,2.4929,1.5483,4.4348.2607,1.2837-.8511,1.7112-2.4199,1.5652-3.6519-.2236-1.8887-1.8623-3.5615-3.9128-3.6523Z"/>
      <path class="cls-2" d="M597.3966,629.7893c-.0571-2.6699-1.7834-5.3022-4.1741-6-3.9414-1.1504-8.8623,3.2002-8.3479,7.3042.2788,2.2241,2.1382,4.2495,4.4348,4.9565.3894.1196,2.686.7852,4.9565-.5215,2.1277-1.2241,3.177-3.5728,3.1306-5.7393Z"/>
      <path class="cls-2" d="M547.0487,606.3113c-1.9363-2.2266-5.6067-2.2964-8.0869-.7827-2.6091,1.5923-4.168,5.1001-2.8696,8.0869,1.0493,2.4136,3.7466,3.9844,6.2607,3.6523,1.7969-.2373,2.946-1.3735,3.3914-1.8262,2.0276-2.062,3.678-6.4009,1.3044-9.1304Z"/>
      <path class="cls-2" d="M569.3391,691.1559c-.6419-7.0957-8.0962-12.0808-14.8112-11.3934-8.346.8544-14.6946,10.3833-11.9628,17.6596,2.3742,6.3244,10.99,9.3014,17.6596,6.8362,4.9916-1.8446,9.6643-7.0232,9.1145-13.1023Z"/>
      <path class="cls-2" d="M500.6139,714.572c-1.2212-1.2769-3.459-1.0962-4.8262-.1304-1.6768,1.1846-2.4575,3.8413-1.3042,5.2173,1.1094,1.3232,3.5046.8623,4.8259.1304.45-.249,1.8472-1.0229,2.0872-2.6089.0146-.0972.2136-1.5669-.7827-2.6084Z"/>
      <path class="cls-2" d="M511.3094,754.2239c-.0164-.8354-.0554-2.8271-1.4348-3.5215-1.2783-.6431-2.938.2144-3.7825,1.1738-1.2847,1.4595-1.4854,4.0649,0,5.4785.9292.8843,2.5623,1.3438,3.7825.6519,1.4922-.8462,1.4521-2.896,1.4348-3.7827Z"/>
      <path class="cls-2" d="M476.0686,733.7842c-2.9888-4.2154-10.9031-4.3088-16.0922-1.6085-7.4324,3.8675-11.5228,14.6343-7.2419,21.3227,2.6363,4.1191,8.6033,6.9339,13.2766,5.2305,3.2222-1.1747,4.6635-4.0724,6.839-8.449,3.0407-6.1161,6.1477-12.3647,3.2184-16.4958Z"/>
      <path class="cls-2" d="M447.266,771.1804c-.0757-.3149-.5339-2.2246-2.2173-2.7388-1.5647-.478-2.9231.6362-3.261.9131-.8464.6943-2.0852,2.2554-1.5652,3.7822.5911,1.7349,2.9705,2.0083,3.6521,2.0869.741.085,1.6885.1943,2.4783-.3911,1.1726-.8687,1.1555-2.6426.9131-3.6523Z"/>
      <path class="cls-2" d="M369.3966,763.8762c-.979-1.291-2.8655-1.312-4.0437-.9131-2.4937.8442-3.8428,4.2554-2.8694,5.6089.7236,1.0063,2.7161.854,3.6521.7827.8853-.0674,1.6467-.126,2.3479-.6523,1.3086-.9829,2.0496-3.3281.9131-4.8262Z"/>
      <path class="cls-2" d="M607.3094,592.2239c-.2847-.6079-1.8821-4.0186-5.2173-4.6953-4.1292-.8379-8.9026,2.9248-9.6521,7.5649-.5479,3.3921,1.1418,6.7124,3.6521,8.6089.3306.2495,4.1978,3.084,7.8262,1.5654,4.3186-1.8076,5.4727-8.5991,3.3911-13.0439Z"/>
      <path class="cls-2" d="M537.9508,661.0935c-.5027-2.9683-.7661-4.4614-1.3696-4.8911-1.4771-1.0518-4.1594-.0308-5.6738,1.3696-.2722.2515-2.8438,2.707-1.8586,5.5762.824,2.4004,3.5059,3.2505,5.2825,3.228.3057-.0039,2.7949-.0352,3.7175-1.6631.2668-.4707.3491-.98-.0979-3.6196Z"/>
      <path class="cls-2" d="M589.1139,660.8982c-1.6726-1.0718-3.7651-1.1738-5.4783-.3916-2.4382,1.1133-3.9109,3.9272-3.3262,6.2612.8872,3.5415,6.2788,5.0474,9.1958,3.1304,1.334-.8765,2.1753-2.4854,2.25-4.1089.1404-3.0449-2.4773-4.7861-2.6414-4.8911Z"/>
      <path class="cls-2" d="M536.6791,713.5286c-.335-2.6895-2.3582-4.1274-2.9348-4.5-.2456-.1587-3.3096-2.0728-6.0652-.5869-2.7019,1.4565-3.313,5.2148-2.3479,7.8262.197.5327,1.2668,3.2031,4.1089,3.9126,2.8643.7153,5.0652-1.1758,5.2825-1.3691,2.3066-2.0518,1.9917-4.9995,1.9565-5.2827Z"/>
      <path class="cls-2" d="M506.3529,549.3762c-1.385-1.1304-3.4019-1.1343-4.8911-.3911-2.0039,1-3.0525,3.353-2.5435,5.478.3684,1.5381,1.6079,3.1855,3.5217,3.522,2.3191.4077,3.9651-1.4019,4.1086-1.5654,1.6592-1.8867,1.8674-5.3599-.1958-7.0435Z"/>
      <path class="cls-2" d="M524.0921,596.137c-.2268-1.3242-1.2166-3.0122-2.8696-3.2607-1.9294-.29-3.7495,1.5342-4.0435,3.3916-.3853,2.4341,1.8325,5.0356,3.9131,4.8257,1.9363-.1953,3.3718-2.7871,3-4.9565Z"/>
      <path class="cls-2" d="M580.5052,515.137c-1.231-2.2837-4.0881-3.3252-6.4565-2.5435-2.3489.7754-3.2109,3.0117-3.3262,3.3262-.5381,1.4678-.6697,3.7739.7827,5.2827,1.4832,1.5405,3.7051,1.3013,4.8914,1.1738,1.0352-.1113,2.4543-.2642,3.5217-1.3696,1.4302-1.481,1.5894-4.0103.5869-5.8696Z"/>
      <path class="cls-2" d="M562.2118,360.4739c-1.2739-1.2158-2.2981-2.1929-3.9131-2.4453-1.4683-.2295-4.0186.0479-4.5979,1.6631-.4734,1.3193.5662,2.9824,1.761,3.7173.3643.2241.9023.46,4.2065.2935,3.8464-.1938,4.1265-.5645,4.2063-.7827.2327-.6372-.6821-1.5098-1.6628-2.4458Z"/>
      <path class="cls-2" d="M591.6573,423.7678c-.291-1.0156-1.5906-1.5254-2.5435-1.5654-1.2603-.0527-2.7544.6807-3.1304,2.0542-.2695.9849.0332,2.3096.9783,2.8369.8469.4727,1.8093.0815,2.25-.0977,1.2227-.4971,2.8293-1.8887,2.4456-3.228Z"/>
      <path class="cls-2" d="M634.8966,467.9197c-.302-.9131-1.2073-1.6064-2.2175-1.5649-1.1968.0493-2.1831,1.1162-2.1521,2.2173.0291,1.0317.9385,1.6294,1.0435,1.6958.8875.563,2.2742.5522,3-.3262.6963-.8423.3484-1.9546.3262-2.022Z"/>
      <path class="cls-2" d="M483.7552,769.387c-.0808-.4033-.5051-2.2363-2.25-3.1304-1.4565-.7461-3.6562-.7471-4.9893.7827-1.2554,1.4404-1.2205,3.6401-.1956,4.8911.873,1.0659,2.2332,1.1611,3.8152,1.272,1.2488.0874,2.207.1548,2.9348-.4893,1.1475-1.0151.7607-2.9473.6848-3.3262Z"/>
      <path class="cls-2" d="M397.9618,783.1804c-.2971-2.6123-3.3831-3.5728-3.6523-3.6519-.3706-.1089-3.0754-.8589-4.8259.9131-1.5967,1.6162-1.6072,4.5288,0,6.2607,1.4214,1.5317,3.6406,1.6362,5.2173,1.0435,1.7144-.6445,3.5039-2.4282,3.261-4.5654Z"/>
      <path class="cls-5" d="M320.4956,237.2757c-4.87-1.1196-19.7456-16.8147-40.0556-24.095-27.62-9.8999-57.9438-11.7046-74.7216-18.1304-61.2893-23.4737-21.0727,64.6356-18.9327,73.6957,2.0099,8.4902,5.14,22.21,3.13,39.6499-1.8301,15.9302-6.22,19.8999-7.8201,34.4399-2.4299,21.9102,6.27,24.3701,6.26,44.3403-.02,34.9497-26.6399,41.4199-22.05,70.8296,2,12.8003,8.5901,21.46,3.9202,34.04-2.8301,7.6201-8.51,13.2402-11.7401,16.4404-9.23,9.1299-18.2899,12.7397-21.5199,14.4795-9.1401,4.9102-13.4501,17.2705-15.4401,31.3804-3.62-8.29-6.4701-16.7402-6.11-26.9502.1699-4.7197,1.2-9.5098,2.79-14.2998,1.2899-3.9199,2.95-7.8501,4.7899-11.79-14.2999-24.8403,4.14-55.5601,1.42-82.4102-2.99-29.3999-16.5701-57.0298-15.27-87.02.89-20.3896,8.88-40.1899,8-60.5801-1.63-37.7998-32.22-66.9297-59.29-93.3599C23.0056,143.906-12.6444,88.3757,22.4256,41.3557,41.9056,15.2359,93.8556,1.9358,122.5156,10.7058c58.5399,17.8901,53.0299,75.9902,70.86,123.3701,10,26.5801,28.51,51.98,55.49,60.8599,12.3501,4.0698,25.8,4.4702,37.77,9.54,15.8101,6.71,24.4,20.2603,33.86,32.7998Z"/>
      <path class="cls-5" d="M366.527,273.1804c-3.679-2.9302-8.887-2.9033-12.5217-.2607-2.8542,2.0752-4.5188,5.604-4.174,9.1304.5167,5.2847,5.4623,9.7056,10.9564,9.3916,3.9834-.2275,7.7834-2.9165,9.1306-7.0435,1.3472-4.1265-.1118-8.606-3.3914-11.2178Z"/>
      <path class="cls-5" d="M273.527,259.6155c-1.4716-6.333-11.0796-11.4336-19.174-9-4.8905,1.4702-10.2344,5.9932-10.5652,12.1304-.418,7.7559,7.3505,14.7402,15.2609,14.478,7.8121-.2593,12.6814-7.4839,14.0869-12.5215.3954-1.4175.8584-3.0767.3914-5.0869Z"/>
      <path class="cls-5" d="M316.7008,309.9632c-.6283-.6992-3.8698-4.3062-8.0869-3.3911-3.9338.8535-6.9562,5.2593-6,8.3477,1.1594,3.7446,7.6475,3.8696,9.9131,3.9131,2.2246.043,5.411.104,6.5217-1.8262,1.5232-2.6475-2.1399-6.812-2.3479-7.0435Z"/>
      <path class="cls-5" d="M228.0051,313.6155c.2386-2.7363-2.238-5.1821-4.6956-6-3.0223-1.0059-6.8969.1567-8.3479,3.1304-.9468,1.9404-.908,4.7456.7826,6.522,1.6594,1.7437,4.0704,1.6128,4.9565,1.5649,2.7443-.1489,7.009-1.8315,7.3043-5.2173Z"/>
      <path class="cls-5" d="M225.6573,216.3113c-1.2465-3.2036-5.1998-4.5078-8.0869-4.4351-.3168.0078-6.0173.2363-7.5653,4.4351-1.4526,3.9399,2.1373,7.6182,2.6088,8.0869.5803.5767,2.796,2.7793,5.7391,2.6084,4.5947-.2666,9.0511-6.2061,7.3043-10.6953Z"/>
      <path class="cls-5" d="M300.527,351.1804c-.647-5.5498-6.0059-9.9453-11.7391-9.7822-5.2528.1494-10.5066,4.1162-10.9565,9.3911-.5303,6.2163,5.9508,10.2686,10.1738,11.3477,1.147.293,4.0657,1.0386,7.0436-.3911,3.8671-1.8569,5.9546-6.48,5.4783-10.5654Z"/>
      <path class="cls-5" d="M353.2225,455.2678c-2.2676-3.2085-7.9357-3.502-10.4347-.2612-2.1311,2.7632-1.4712,7.4653,1.826,9.3916,2.7803,1.624,6.4631.7065,8.3479-1.8262,1.5925-2.1401,1.738-5.2139.2607-7.3042Z"/>
      <path class="cls-5" d="M201.1356,400.4851c-2.6787-.4165-5.5072,1.1665-6.5217,3.6519-1.4467,3.5439,1.1436,8.0684,4.9565,8.6089,2.7058.3838,5.567-1.3037,6.5217-3.9131,1.2917-3.5303-1.2637-7.7729-4.9565-8.3477Z"/>
      <path class="cls-5" d="M533.5487,334.7459c-1.4146-2.2441-4.2876-2.6226-6.261-2.1523-2.2908.5459-4.6829,2.5479-4.6956,5.0869-.0156,3.1621,3.6687,5.3008,6.4565,5.2827.428-.0029,1.5994-.0254,2.739-.7827,2.1282-1.4136,3.3745-4.875,1.761-7.4346Z"/>
      <path class="cls-4" d="M210.0056,165.156c-8.68-3.46-16.74-8.3501-22.7002-13.2804-19.5247-16.1508-32.4169-38.2228-42.6927-60.985-2.1652-4.7962-5.3338-9.5688-10.2322-11.4916-3.0489-1.1968-6.4327-1.1493-9.6988-.9023-5.2202.3948-10.5091,1.2904-15.141,3.7301-7.3957,3.8953-12.5167,11.7989-13.0499,20.1406-.567,8.8698,3.6972,17.3603,8.9078,24.5606,4.31,5.9558,9.2965,11.3874,13.4696,17.4465,3.6189,5.2544,8.7196,9.1589,12.6173,14.2814,8.89,11.6997,11.58,22.8599,15.13,37.5698,5.29,21.96,12.77,52.96.52,82.4302-3.39,8.1499-8.3301,16.3096-10.4299,30.79-.49,3.3296-1.4501,11.29,0,26.0796,2.3899,24.5503,7.3199,26.23,9.6499,46.4399,1.41,12.2305,3.27,28.4404-3.1299,46.4302-2.9901,8.3901-5.8901,11.8599-12.26,28.1802-4.52,11.5601-7.1301,20.1997-7.8301,22.4297-.89,2.8403-2.36,6.9102-4.29,11.8501-5.52-22.6797,7.92-48.77,5.5701-71.96-2.99-29.3999-16.5701-57.0298-15.27-87.02.89-20.3896,8.88-40.1899,8-60.5801-1.63-37.7998-32.22-66.9297-59.29-93.3599C23.0056,143.906-12.6444,88.3757,22.4256,41.3557,41.9056,15.2359,93.8556,1.9358,122.5156,10.7058c58.5399,17.8901,53.0299,75.9902,70.86,123.3701,4.11,10.9102,9.65,21.6299,16.63,31.0801Z"/>
      <path class="cls-4" d="M166.3095,340.6155c-2.212-2.8999-6.7286-3.5537-9.7826-1.5654-3.9175,2.5503-4.3179,8.7251-1.174,11.7393,2.0496,1.9648,5.3448,2.3369,7.826,1.1738,3.9725-1.8623,5.9207-7.6899,3.1305-11.3477Z"/>
      <path class="cls-4" d="M177.9115,301.14c-.2623-3.474-2.3966-6.894-5.8431-8.5924-3.5692-1.7589-7.9361-1.371-10.9987,1.0306-4.3715,3.4284-4.9198,10.0457-2.0622,14.4359,1.8699,2.8725,5.4073,5.1133,9.2802,4.8122,5.6366-.4381,10.0449-6.1085,9.6239-11.6863Z"/>
      <path class="cls-4" d="M171.2008,408.3113c1.8547-2.1641,2.1259-6.0166-.1957-7.8262-2.028-1.5806-5.1658-.9253-6.8478.7827-2.3632,2.3999-2.0475,7.0747.5869,8.6084,2.0145,1.1729,4.9143.2344,6.4565-1.5649Z"/>
      <path class="cls-4" d="M151.1791,498.572c2.0402-2.5298.8121-7.1992-1.9565-9.522-2.2537-1.8906-4.9452-1.7368-5.4783-1.6953-.3135.0244-5.1779.4805-6.3912,4.3042-.976,3.0757,1.1216,6.0889,3.1304,7.4346,1.3125.8794,2.5927,1.0503,3.5217,1.1743,1.1962.1597,5.2415.7002,7.174-1.6958Z"/>
      <path class="cls-4" d="M177.274,167.6884c-2.7006-7.0207-11.6823-10.7695-17.4962-7.719-6.097,3.1988-5.7069,12.298-5.6607,13.3787.1852,4.3218,2.1465,11.803,7.719,13.3797,3.9096,1.1057,7.5483-1.2733,8.7482-2.0583,4.5771-2.9936,9.3815-9.9825,6.6896-16.9811Z"/>
      <path class="cls-4" d="M216.103,183.7024c-.0917-.0654-1.7603-1.2192-3.424-.4893-1.8186.7979-2.5304,3.3633-1.663,5.1851.5264,1.1055,1.7509,2.1816,3.326,2.1519,1.3335-.0249,2.4727-.834,3.0326-1.8584.9302-1.7017.2203-3.9229-1.2717-4.9893Z"/>
      <path class="cls-4" d="M279.9834,206.072c-.0686-.897-1.1367-1.5791-2.0869-1.5654-1.1292.0161-2.2916,1.0176-2.1522,2.022.1172.8438,1.114,1.4092,1.9565,1.4346,1.118.0337,2.3605-.8721,2.2826-1.8911Z"/>
      <path class="cls-4" d="M147.3313,114.0501c-.8799-1.7969-3.0311-4.1045-6.0652-3.9131-2.9004.1831-5.5049,2.5806-5.674,5.4785-.2083,3.5708,3.3834,6.1401,6.4565,6.2607,1.9973.0781,4.688-.8418,5.6738-3.1304.8931-2.0728-.1084-4.1182-.3912-4.6958Z"/>
      <path class="cls-4" d="M111.0051,92.2678c-.9034-.3604-1.9595-.0435-2.6086.5869-1.0015.9727-1.0601,2.7168-.1304,3.7173.5604.603,1.4988.9561,2.413.7173.0431-.0112,1.0808-.3003,1.5652-1.3042.6-1.2437.1482-3.1641-1.2391-3.7173Z"/>
      <path class="cls-4" d="M137.353,141.2459c-.1461-.3877-.6833-1.814-2.0217-2.2827-1.6968-.5942-3.947.6064-4.5652,2.4785-.6385,1.9336.7821,3.6221.9781,3.8477.8409.9673,2.5261,2.0317,3.9131,1.4346.989-.4258,1.3741-1.5015,1.6305-2.2173.175-.4888.6191-1.7905.0652-3.2607Z"/>
      <path class="cls-4" d="M166.8313,135.4417c-.6591-.4297-1.5269-.4146-2.1522-.0654-1.2125.6768-1.5225,2.6128-.6521,3.6523.4214.5034,1.176.8643,1.9564.7173,1.1569-.2178,1.5758-1.4023,1.6305-1.5654.2903-.8662.1538-2.1284-.7826-2.7388Z"/>
      <path class="cls-4" d="M147.9182,173.2024c-.1323-1.2119-1.2059-2.5645-2.3478-2.4131-.9073.1201-1.4587,1.1372-1.6305,1.8262-.2714,1.0889.0806,2.6611,1.2391,3.0649.7417.2583,1.6149-.0317,2.1522-.5869.713-.7368.6072-1.7056.5869-1.8911Z"/>
      <path class="cls-4" d="M170.4834,245.137c.9298-1.6709.6553-3.6807-.3912-5.0869-1.196-1.6069-3.178-2.1265-4.826-1.8262-1.9574.3569-3.8153,1.938-4.0436,4.0439-.2891,2.667,2.1613,5.0137,4.6957,5.2173,1.5887.1279,3.569-.5576,4.5652-2.3481Z"/>
      <path class="cls-4" d="M185.2225,280.2239c.3525-1.9336-.8982-4.1372-2.7391-4.8257-2.5541-.9551-5.3458,1.3428-6.2609,3.6519-.7507,1.8945-.6215,4.7632,1.0436,5.7393,1.7472,1.0239,4.1936-.6172,5.2173-1.3042,1.1183-.7505,2.4434-1.6392,2.7391-3.2612Z"/>
      <path class="cls-4" d="M144.5921,312.3435c-1.2458-.9492-3.3308-.5605-4.2065.5869-1.3741,1.8008.3777,5.2749,2.1522,5.4785.9625.1104,1.7583-.7617,1.9564-.9785,1.1945-1.3086,1.6178-3.9287.0979-5.0869Z"/>
      <path class="cls-6" d="M122.353,19.6155c-1.4036-2.4661-4.7239-4.136-7.826-3.1306-2.5299.8198-4.1915,3.1846-4.4348,5.4783-.4631,4.3672,4.1682,8.929,8.0869,8.0872,3.7852-.8132,6.3817-6.5554,4.174-10.4348Z"/>
      <path class="cls-6" d="M171.6398,71.5034c-1.2021-3.6754-5.8359-6.9521-10.4597-5.9269-4.3011.9534-6.5015,5.166-6.9732,8.3676-.7198,4.8873,2.164,10.298,5.9272,11.1568,5.5383,1.2641,13.6013-7.1897,11.5056-13.5975Z"/>
      <path class="cls-6" d="M106.0012,53.0089c-1.5967-5.5565-9.8511-7.7734-15.3012-5.2164-2.8985,1.3597-6.0051,4.5394-5.9117,8.3459.1334,5.4383,6.7546,10.3208,12.8668,9.0417,5.5833-1.1684,9.7541-7.2713,8.3461-12.1713Z"/>
      <path class="cls-6" d="M69.6573,19.4849c-1.187-1.0815-3.2433-.9277-4.5652,0-1.6741,1.1748-2.4954,3.8181-1.174,5.4783,1.1346,1.4255,3.3835,1.5413,4.826.6523,2.0676-1.2739,2.5392-4.6489.9131-6.1306Z"/>
      <path class="cls-6" d="M42.3965,39.9632c-2.5917-.468-5.0076,2.2134-5.8695,4.4348-.2379.613-.951,2.4509-.1305,4.3044,1.3649,3.083,5.6102,3.1313,5.8696,3.1304.8662-.0034,2.5242-.0088,3.6521-1.1738,1.8534-1.9146.6766-5.3076.3914-6.1304-.3666-1.0571-1.4275-4.1165-3.9131-4.5654Z"/>
      <path class="cls-6" d="M77.0755,95.403c-1.3188-4.524-5.5522-8.7198-11.171-8.9365-5.1171-.1972-10.0517,2.9565-11.7295,7.8193-2.545,7.3753,4.2668,13.2807,4.7477,13.6843.8069.6768,5.1002,4.2766,10.0538,3.0722,5.9321-1.442,10.0076-9.0913,8.0989-15.6393Z"/>
      <path class="cls-6" d="M109.9616,156.8982c-.4969-.6636-1.8822-2.5142-3.913-2.3481-1.8239.1494-3.1344,1.8408-3.5217,3.3262-.6498,2.4927,1.1174,5.1055,3.326,6.0654,1.3524.5879,3.6282.8853,4.8912-.3916,1.6537-1.6719.4912-4.9502-.7826-6.6519Z"/>
      <path class="cls-6" d="M98.2225,131.072c-.4336-1.4043-2.1235-1.8467-2.5435-1.9565-1.3258-.3472-3.4924-.2446-4.1086,1.0762-.6454,1.3833.8773,3.1021,1.076,3.3262.3542.3999,1.4653,1.6538,2.9348,1.4673,1.7117-.2173,3.1418-2.292,2.6412-3.9131Z"/>
      <path class="cls-6" d="M53.0921,133.0935c-1.6119-1.1177-4.343-1.854-6.5217-.5215-2.5834,1.5801-2.9738,5.2036-2.087,7.6958,1.0558,2.9673,4.1281,4.9092,7.0436,4.6953.5503-.0405,2.104-.1543,3.2609-1.3042,2.4591-2.4443,1.7349-8.187-1.6957-10.5654Z"/>
      <path class="cls-6" d="M125.7442,186.7024c-.0842-.0811-1.371-1.2866-2.7391-.9131-2.009.5483-3.3365,4.2666-1.6956,6.2607.9937,1.2075,3.0015,1.6929,4.3043.9131,1.8915-1.1323,1.8115-4.6411.1304-6.2607Z"/>
      <path class="cls-6" d="M131.8747,169.4851c-.5615-.9731-1.7177-1.6768-2.8696-1.5654-2.0258.1953-3.6874,2.875-2.739,4.8262.6622,1.3623,2.4985,2.167,4.0435,1.5654,1.8783-.7314,2.493-3.2178,1.5652-4.8262Z"/>
      <path class="cls-6" d="M28.9617,97.1466c-.5615-.9731-1.7177-1.6768-2.8696-1.5654-2.0258.1953-3.6874,2.875-2.739,4.8262.6622,1.3623,2.4985,2.167,4.0435,1.5654,1.8783-.7314,2.493-3.2178,1.5652-4.8262Z"/>
      <path class="cls-6" d="M86.2225,171.1804c-.275-1.8311-1.7085-3.0767-3.1304-3.5215-1.8282-.5718-4.3062-.0278-5.2174,1.8262-1.0574,2.1514.799,4.4292.9131,4.5649,1.0394,1.2368,3.1947,2.5171,5.2173,1.5654,1.6587-.7808,2.4767-2.709,2.2174-4.4351Z"/>
      <path class="cls-6" d="M133.8313,229.8762c.5011-2.3408-1.3312-5.4668-4.3043-6.3911-2.3141-.7192-5.0767-.0293-6.6522,2.0869-1.7944,2.4102-1.4058,5.8057.2609,7.4346,2.88,2.8145,9.8853.6548,10.6957-3.1304Z"/>
      <path class="cls-6" d="M143.8747,210.1804c-.4843-1.3574-2.1531-2.1733-3.3914-1.6953-1.6033.6187-2.1155,3.2646-.913,4.4346,1.0355,1.0073,3.1719.7544,4.0435-.5215.6774-.9917.2844-2.1519.2609-2.2178Z"/>
      <path class="cls-6" d="M108.7878,200.2678c-1.5939-1.6509-4.5759-2.1348-6.3914-.3916-1.8374,1.7642-1.5254,4.8926.2609,6.522,2.0282,1.8501,5.5616,1.4067,6.9131-.7827,1.0383-1.6821.5347-3.9834-.7826-5.3477Z"/>
      <path class="cls-6" d="M141.459,262.9482c.2442-5.4255-5.9958-10.2226-11.3458-8.8249-3.3013.8628-6.076,4.0349-6.3033,7.8795-.2432,4.1144,2.5053,7.7269,5.9881,8.8242,5.2562,1.6557,11.426-2.6593,11.661-7.8787Z"/>
      <path class="cls-6" d="M124.0487,314.2024c-.7756-1.2588-2.5204-1.7944-3.9131-1.5654-3.2096.5273-5.3909,5.2515-3.9131,7.4351.8562,1.2651,2.861,1.5596,4.3044,1.1738,2.97-.7939,4.8899-4.8228,3.5217-7.0435Z"/>
      <path class="cls-6" d="M141.853,381.8982c1.0463-2.666-.262-6.4028-2.5435-7.0435-1.7415-.4888-3.469.9893-3.9131,1.3691-2.6954,2.3066-3.8481,7.1465-1.9565,8.8047,1.8951,1.6611,7.0604.3169,8.4131-3.1304Z"/>
      <path class="cls-6" d="M133.8313,413.5935c.5859-.8716.0688-2.6323-1.1088-3.0649-1.0491-.3853-2.0807.4819-2.2826.6519-.6548.5508-1.4222,1.6758-1.0435,2.4785.4608.9766,2.3197.8442,3.2609.5869.4486-.1226.901-.2466,1.174-.6523Z"/>
      <path class="cls-6" d="M133.6356,437.2678c-1.1469-1.6553-3.3984-2.1899-4.8914-1.5654-2.9396,1.2295-3.3834,7.1382-1.1738,8.6089,1.5006.9985,4.4874.125,5.8695-1.9565.8129-1.2241,1.3956-3.355.1957-5.0869Z"/>
      <path class="cls-5" d="M320.0921,752.3982c-1.9862-5.293-7.5316-7.9814-12.5217-7.5654-4.4293.3696-9.324,3.2607-10.6957,8.3477-1.7413,6.458,3.5538,11.4141,3.9131,11.7393,3.2479,2.9395,8.5654,4.5933,13.3043,2.3481,5.3374-2.5283,8.1456-9.1519,6-14.8696Z"/>
    </g>
  </g>
</svg>