<?xml version="1.0" encoding="UTF-8"?>
<svg id="Capa_2" xmlns="http://www.w3.org/2000/svg" viewBox="0 0 550.1585 553.3097">
  <defs>
    <style>
      .cls-1 {
        fill: #ffdaa9;
      }

      .cls-2 {
        fill: #f9bd5d;
      }

      .cls-3 {
        fill: #ffcb80;
      }

      .cls-4 {
        fill: #db963b;
      }

      .cls-5 {
        fill: #eaa94b;
      }

      .cls-6 {
        fill: #c17e2d;
      }

      .cls-7 {
        fill: #d1831c;
      }

      .cls-8 {
        fill: #ffb357;
      }

      .cls-9 {
        fill: #e09528;
      }
    </style>
  </defs>
  <g id="Capa_1-2" data-name="Capa_1">
    <g>
      <g>
        <path class="cls-2" d="M217.008,549.3021c-5.666,0-10.8574-.668-15.8721-2.043-13.9521-3.8271-26.3789-14.0967-38.3965-24.0273-7.6162-6.2939-14.8105-12.2383-22.0332-16.3066-7.6094-4.292-15.4785-6.6133-23.0879-8.8574-11.1289-3.2832-22.6367-6.6787-32.7148-16.1709-3.5137-3.3125-6.6582-7.3721-9.6152-12.4131-4.7939-8.1172-8.3965-17.5967-11.8799-26.7646-2.9805-7.8428-5.7959-15.251-9.251-21.7275-.8877-1.6738-1.7871-3.2217-2.6738-4.6084-2.2617-3.5312-4.998-6.8535-8.6084-10.4531-2.6621-2.6572-5.5127-5.1748-8.2686-7.6094-8.6074-7.6045-17.5078-15.4678-21.96-28.5391-6.751-19.8066-5.2275-39.9951-3.6152-61.3682.6904-9.1455,1.4043-18.6016,1.4043-27.9971,0-8.5254-1.6338-17.2002-3.2139-25.5898-2.3809-12.6436-4.8428-25.7188-1.7773-38.5938,3.4082-14.3037,13.1406-25.7471,22.5527-36.8145,6.3164-7.4268,12.2832-14.4424,16.3574-22.1445,4.3955-8.3125,7.0674-17.5469,9.6514-26.4775,3.998-13.8174,8.1328-28.1055,18.7119-39.3838,10.7754-11.4893,28.0332-17.6133,44.7227-23.5361,10.9443-3.8838,21.2812-7.5527,29.4189-12.5039,8.0449-4.8955,13.8643-11.4492,19.4922-17.7871,8.0479-9.0635,16.3701-18.4355,30.8584-22.6406,3.4238-.9961,7.1982-1.46,11.875-1.46,2.9062,0,5.8486.1777,8.6943.3486,2.7432.165,5.5781.3359,8.2734.3359,2.5049,0,4.6621-.1484,6.5957-.4521,5.4326-.8555,10.6787-2.5615,16.2324-4.3682,8.0732-2.626,16.4219-5.3408,25.5918-5.3408,14.7148,0,27.5967,5.0586,40.0547,9.9521,7.1006,2.7881,14.4424,5.6719,21.9043,7.4873,7.2979,1.7744,15.3223,2.3936,23.083,2.9922,12.1484.9375,24.71,1.9062,35.6904,7.2383,10.9434,5.3242,19.0205,14.6348,26.832,23.6377,5.3555,6.1729,10.4141,12.0039,16.2773,16.583,6.5898,5.1523,13.9785,9.4453,21.123,13.5957,1.9229,1.1182,3.8418,2.2324,5.7441,3.3623,5.459,3.2324,11.8252,7.1875,17.6201,11.9854,4.3281,3.5732,7.9434,7.2734,11.0469,11.3086,7.5674,9.8447,10.2734,24.457,12.8896,38.5889,1.8887,10.1953,3.6719,19.8252,7.0801,27.1729,3.4824,7.501,8.626,12.7676,14.0713,18.3428,7.2266,7.3994,14.6992,15.0498,17.3438,27.7979,2.3418,11.2725-.2549,24.8232-2.7666,37.9287-1.7578,9.1738-3.4189,17.8389-3.4189,25.4072,0,9.501.8926,18.123,1.7549,26.4619,1.6689,16.1289,3.2441,31.3623-2.2256,48.9502-3.4385,11.0508-12.7285,21.083-21.7119,30.7852-6.3945,6.9043-12.4336,13.4258-15.9502,19.792-.334.5996-.6514,1.1865-.9502,1.7734-.0703.1318-.0967.1836-.1221.2393l-.1006.2051c-.2881.5459-.5664,1.0928-.8252,1.6299-.3076.627-.5928,1.2266-.8691,1.8262-.3584.7783-.6963,1.543-1.0244,2.3066-.4785,1.1182-.9385,2.2402-1.3799,3.3623-.5264,1.3604-1.0312,2.7227-1.5146,4.085-.6582,1.8398-1.2617,3.6396-1.9668,5.7773-.2188.6543-.4209,1.2832-.624,1.9111-.3447,1.0801-.6924,2.1602-1.0479,3.2402v.0166l-.3232.9893c-.1719.5273-.3457,1.0576-.5264,1.582-.0947.2754-.1631.4697-.2227.666l-.0352.1113c-.4766,1.417-.9639,2.835-1.4717,4.2314-.0928.2393-.1465.3838-.1924.5303l-.0586.1719c-.8516,2.3203-1.6826,4.3896-2.541,6.3262-.1963.4473-.4072.9014-.6191,1.3555-.3008.6562-.6123,1.2998-.9297,1.9404v.0195l-.4404.8701c-3.0225,5.8994-6.667,10.9873-11.1416,15.5537-8.9512,9.1299-21.7217,12.9453-34.0723,16.6357-9.1162,2.7236-17.7266,5.2959-24.7686,9.7969-7.0703,4.5234-12.6553,10.9775-18.5674,17.8105-8.0859,9.3438-16.4463,19.0059-28.9658,23.374-9.1426,3.1914-19.1426,4.6777-31.4707,4.6777-10.1865,0-20.7617-1.043-30.9883-2.0527-10.2598-1.0127-20.8691-2.0596-31.1133-2.0596-9.6602,0-19.0371,1.8135-28.1045,3.5654-8.7852,1.6982-17.8691,3.4551-26.9297,3.4551Z"/>
        <path class="cls-1" d="M274.4728,8.0145c22.2615,0,40.3022,12.2893,61.0121,17.3271,18.9822,4.6136,40.7781,1.593,57.9706,9.941,17.3064,8.4204,27.3613,28.0337,42.3918,39.7747,8.5757,6.7034,18.1237,11.8031,27.2888,17.2444,5.9895,3.5481,11.8135,7.2412,17.1099,11.6272,3.7965,3.1344,7.324,6.6309,10.4272,10.6652,12.1652,15.8271,11.017,46.6952,19.5099,65.005,8.6376,18.5995,26.8542,24.6718,31.1266,45.2677,3.7344,17.9788-6.2688,43.4365-6.2688,62.5222,0,28.2197,7.6757,48.6089-.2896,74.2219-5.5137,17.7202-28.5199,33.8577-37.3438,49.8296-.3517.6309-.6931,1.262-1.0138,1.8931-.0724.1343-.1345.2585-.1965.3931-.3103.5896-.6104,1.1792-.8896,1.7585-.3103.6309-.6104,1.262-.8999,1.8931-.3724.8069-.7241,1.6033-1.0656,2.3999-.4966,1.1587-.9724,2.3171-1.4276,3.4758-.5482,1.4172-1.0654,2.8137-1.562,4.2102-.7034,1.9653-1.3551,3.9204-1.9965,5.8652-.2172.6519-.4241,1.2932-.631,1.9346-.4034,1.262-.8069,2.5137-1.2207,3.7654-.0103.0205-.0206.0515-.0206.0825-.2069.6311-.4138,1.2725-.631,1.9036-.0931.269-.1863.5378-.269.8069-.4655,1.3862-.9413,2.7722-1.4379,4.1377-.093.238-.1759.4656-.2483.6931-.7551,2.0586-1.5516,4.0757-2.4413,6.0825-.1965.4448-.4034.8896-.6104,1.3345-.4033.8794-.8379,1.7585-1.2827,2.6379v.0103c-2.5861,5.0481-5.8756,9.9204-10.4376,14.5754-14.4409,14.7307-40.6746,14.6997-58.1361,25.8613-17.6582,11.2961-26.5648,33.7542-46.6952,40.7781-9.5983,3.3501-19.7241,4.4534-30.1503,4.4534-20.1267,0-41.3726-4.1118-62.1022-4.1118-19.6091,0-37.2463,7.0203-55.0348,7.0203-4.9116,0-9.8313-.5344-14.8114-1.8999-21.6407-5.9377-40.385-29.1819-59.5223-39.9607-19.3132-10.8928-38.9989-9.3621-55.0226-24.4546-3.4343-3.2378-6.3516-7.1687-8.9066-11.5237-8.5756-14.5237-13.2927-33.8059-21.0511-48.3503-.8999-1.6965-1.8412-3.3311-2.8344-4.8828-2.7102-4.2307-5.8446-7.8306-9.1549-11.1306-10.9652-10.9443-23.782-18.5063-29.2646-34.6023-9.4031-27.5889-1.9965-57.2983-1.9965-88.0732,0-21.8269-9.941-42.9194-5.0999-63.2568,5.3584-22.489,28.0026-38.0677,38.5541-58.012,11.4203-21.5994,11.1617-47.3159,27.744-64.9946,16.8718-17.9891,52.1156-22.4684,73.3013-35.3577,20.2131-12.2996,26.1819-33.2679,49.3846-40.0022,3.4399-1.0006,7.059-1.3014,10.7595-1.3014,5.5804,0,11.3479.6842,16.9675.6842,2.4429,0,4.8568-.1292,7.2168-.5,13.9237-2.193,26.6681-9.6619,41.2021-9.6619M274.4728,0c-9.8053,0-18.4614,2.8157-26.8326,5.5386-5.3979,1.756-10.4967,3.4144-15.6165,4.2208-1.7223.2706-3.676.4023-5.9697.4023-2.5737,0-5.2251-.1595-8.032-.3285-2.9053-.1748-5.9094-.3556-8.9357-.3556-5.0673,0-9.1975.5149-12.998,1.6204-15.5951,4.5261-24.3075,14.338-32.733,23.8267-5.6813,6.3981-11.0476,12.4415-18.5792,17.0245-7.785,4.7363-17.9331,8.3378-28.6768,12.1506-17.1401,6.0829-34.8636,12.3728-46.3042,24.5708-11.2382,11.9814-15.5088,26.7401-19.6388,41.0131-2.644,9.1377-5.1415,17.7688-9.3446,25.7181-3.8683,7.3118-9.6964,14.1646-15.8668,21.4198-9.7184,11.427-19.7677,23.2432-23.3984,38.4807-3.2629,13.7075-.7207,27.2087,1.7377,40.2654,1.6168,8.5867,3.144,16.6973,3.144,24.8491,0,9.2441-.7079,18.6248-1.3926,27.6963-1.5723,20.8347-3.198,42.3787,3.8175,62.9624,4.7947,14.0762,14.1002,22.2971,23.0994,30.2476,2.8363,2.5056,5.5153,4.8726,8.0895,7.4419,3.4034,3.3928,5.9661,6.4998,8.0682,9.7812.8281,1.2937,1.6708,2.7466,2.5027,4.3152,3.3439,6.2686,6.1157,13.562,9.0503,21.2837,3.5435,9.324,7.2076,18.9653,12.1797,27.386,3.1414,5.3545,6.5176,9.7048,10.3101,13.2803,10.7771,10.1509,22.7516,13.6833,34.3317,17.0996,7.7349,2.282,15.0406,4.4373,22.2517,8.5042,6.9158,3.8953,13.976,9.7295,21.4508,15.9062,12.3438,10.2,25.1077,20.7473,39.8879,24.8027,5.3647,1.4707,10.9027,2.1855,16.9321,2.1855,9.4452,0,18.7216-1.7935,27.6925-3.5276,8.8821-1.717,18.0665-3.4927,27.3423-3.4927,10.0468,0,20.5568,1.0371,30.7207,2.04,10.3232,1.0186,20.9979,2.0718,31.3815,2.0718,12.6161,0,23.3423-1.603,32.7913-4.9011,13.5292-4.7207,22.2455-14.7939,30.6747-24.5356,5.7168-6.6069,11.1166-12.8474,17.6984-17.0579,6.5659-4.1973,14.9148-6.6917,23.7538-9.3323,12.8379-3.8357,26.1128-7.802,35.7867-17.6699,4.7635-4.8606,8.6385-10.2681,11.8474-16.532l.8815-1.7207v-.0667c.1821-.3772.3689-.772.5533-1.1743.2104-.4521.4387-.9441.656-1.4358.8876-2.0022,1.7507-4.1516,2.6348-6.562l.0598-.1628.0527-.1653c.0214-.0676.0477-.1345.0754-.2053l.0352-.0898.033-.0906c.455-1.2512.9327-2.6257,1.5035-4.3257l.0326-.0972.0302-.0979c.0548-.1785.1182-.3562.1801-.5347.1948-.5667.3757-1.1194.5551-1.6677l.1202-.3674.3987-1.2166v-.0178c.2893-.8872.5751-1.7756.8607-2.6694.1927-.5972.3917-1.2146.6008-1.842.575-1.7437,1.239-3.7429,1.9385-5.6978.4901-1.3782.976-2.6877,1.4911-4.0198.408-1.0381.8569-2.1311,1.3192-3.2097.339-.7908.6581-1.5098.976-2.1982.2672-.5825.5361-1.1482.8143-1.7136l.0143-.0291.014-.0291c.2195-.4553.4758-.9617.762-1.5054l.0985-.187.0732-.1592.0332-.0615.0449-.0884c.2402-.4729.5245-1.0032.8691-1.6216,3.2954-5.9648,9.1736-12.3127,15.3969-19.0332,9.2874-10.0293,18.891-20.4001,22.599-32.3171,5.7136-18.3726,4.0966-34.0037,2.3848-50.5527-.8522-8.2375-1.7334-16.7559-1.7334-26.0503,0-7.1877,1.6259-15.6714,3.3472-24.6533,2.5853-13.4907,5.2588-27.4412,2.7543-39.4988-2.882-13.8931-11.1261-22.3342-18.3998-29.7817-5.199-5.3232-10.1097-10.3513-13.3049-17.2318-3.194-6.8856-4.9326-16.2745-6.7732-26.2147-2.703-14.5972-5.4982-29.6913-13.6514-40.2988-3.29-4.277-7.1096-8.1887-11.6791-11.9612-5.9939-4.9637-12.5278-9.0251-18.1276-12.3424-1.9066-1.132-3.8361-2.2531-5.7703-3.3768-7.3514-4.2711-14.2954-8.3055-20.6677-13.2864-5.5586-4.3422-10.4932-10.03-15.7175-16.052-8.0754-9.3081-16.4257-18.9332-28.1035-24.6151-11.6705-5.6667-24.6188-6.6658-37.1406-7.632-7.9504-.6134-15.46-1.1927-22.4436-2.89-7.1958-1.7505-14.088-4.4576-21.385-7.3237-12.8051-5.0295-26.046-10.2302-41.5199-10.2302h0Z"/>
      </g>
      <path class="cls-5" d="M535.041,287.389c0,28.2199,7.6756,48.6089-.2896,74.2219-5.5136,17.7202-28.5198,33.8576-37.3438,49.8295-.3517.6311-.6931,1.2621-1.0137,1.8931-.0724.1345-.1345.2586-.1965.3931-.3103.5896-.6104,1.1689-.8896,1.7586-.3104.631-.6104,1.262-.9,1.8931-.3725.8068-.7241,1.6034-1.0655,2.3999-.5069,1.1689-.9724,2.3275-1.4275,3.4758-.5482,1.4172-1.0655,2.8137-1.562,4.2102-.7034,1.9758-1.3655,3.9309-1.9965,5.8653-.2172.6517-.4241,1.2931-.631,1.9344-.4138,1.262-.8172,2.5137-1.2206,3.7654-.0104.0206-.0207.0517-.0207.0827-.2173.6311-.4241,1.2724-.631,1.9034-.0931.269-.1862.5379-.269.8068-.4759,1.3862-.9517,2.7724-1.4379,4.1378-.0931.238-.1758.4655-.2483.6931-.7655,2.0482-1.562,4.0757-2.4413,6.0826-.1965.4448-.4035.8896-.6104,1.3344-.4034.8793-.8379,1.7586-1.2827,2.6482-2.5861,5.0481-5.8757,9.9204-10.4376,14.5755-14.441,14.7306-40.6747,14.6995-58.1362,25.8613-17.6581,11.2962-26.5647,33.7542-46.6952,40.7781-28.1268,9.8169-60.7844.3414-92.2524.3414-25.0234,0-46.8297,11.4307-69.8462,5.1205-21.6407-5.9377-40.385-29.1818-59.5223-39.9608-19.3132-10.8928-38.9989-9.3618-55.0225-24.4545-3.4344-3.2378-6.3516-7.1687-8.9066-11.5238-9.5687-16.2098-14.3376-38.3575-23.8855-53.2329-2.7103-4.2309-5.8446-7.8308-9.1549-11.1306,6.2171,1.0965,12.1031,2.9482,17.4098,5.6791,16.003,8.2342,25.4061,23.72,42.9091,21.858,14.7409-1.5724,17.2029-13.5306,35.6265-21.858,17.5857-7.9549,25.3647-1.5724,56.6672-2.431,23.6165-.6414,53.7292-1.4585,79.3318-18.6199,11.1417-7.4683,16.9833-18.2387,26.0251-27.6594,11.159-11.6266,26.338-19.9986,41.3679-25.4639,1.2238-.445,2.4662-.8764,3.5689-1.5689,1.1007-.6912,2.0279-1.6209,2.9446-2.5422,7.483-7.5202,14.6584-15.0495,23.1032-21.4606,7.7025-5.8476,15.9629-10.9253,24.5669-15.332,14.5007-7.4267,29.9102-12.5777,44.9304-18.7875,7.571-3.1301,15.2111-6.6093,21.6527-11.7563,4.6498-3.7153,12.6484-11.6892,12.6484-18.2353,2.5034-8.1101-1.4793-4.4068-7.3136-67.6842-2.162-23.3683-1.7999-25.8303-3.6412-46.1365-1.4483-15.9409-2.9689-28.6543-4.3654-38.7919,10.2928,6.0929,20.0994,12.6203,27.5371,22.2924,12.1652,15.8271,11.0169,46.6952,19.5098,65.0049,8.6376,18.5995,26.8543,24.6717,31.1266,45.2676,3.7344,17.9788-6.2688,43.4366-6.2688,62.5223Z"/>
      <path class="cls-4" d="M535.041,287.389c0,28.2199,7.6756,48.6089-.2896,74.2219-5.5136,17.7202-28.5198,33.8576-37.3438,49.8295-.3517.6311-.6931,1.2621-1.0137,1.8931-.0724.1345-.1345.2586-.1965.3931-.3103.5896-.6104,1.1793-.8896,1.7586-.3104.631-.6104,1.262-.9,1.8931-.3725.8068-.7241,1.6034-1.0655,2.3999-.4965,1.1586-.9724,2.3172-1.4275,3.4758-.5482,1.4172-1.0655,2.8137-1.562,4.2102-.7034,1.9654-1.3551,3.9206-1.9965,5.8653-.2172.6517-.4241,1.2931-.631,1.9344-.4035,1.262-.8069,2.5137-1.2206,3.7654-.0104.0206-.0207.0517-.0207.0827-.2069.6311-.4137,1.2724-.631,1.9034-.0931.269-.1862.5379-.269.8068-.4655,1.3862-.9413,2.7724-1.4379,4.1378-.0931.238-.1758.4655-.2483.6931-.7551,2.0585-1.5517,4.0757-2.4413,6.0826-.1965.4448-.4035.8896-.6104,1.3344-.4034.8793-.8379,1.7586-1.2827,2.6482-2.5861,5.0481-5.8757,9.9204-10.4376,14.5755-14.441,14.7306-40.6747,14.6995-58.1362,25.8613-17.6581,11.2962-26.5647,33.7542-46.6952,40.7781-28.1268,9.8169-60.7844.3414-92.2524.3414-25.0234,0-46.8297,11.4307-69.8462,5.1205-21.6407-5.9377-40.385-29.1818-59.5223-39.9608-19.3132-10.8928-38.9989-9.3618-55.0225-24.4545-3.4344-3.2378-6.3516-7.1687-8.9066-11.5238-8.5756-14.5237-13.2927-33.8059-21.0511-48.3503,4.0033,1.562,7.686,3.5895,10.8204,6.1239,10.6135,8.5653,8.8653,17.8029,22.1269,26.4509,11.2445,7.3343,17.596,4.0137,44.8021,8.6376,10.3342,1.7482,26.9475,4.5723,44.7918,11.8652,28.6026,11.6996,25.3041,5.13,38.0503,12.6882,23.9578,14.2064,42.7714,23.676,72.0519,17.2708,7.9095-1.7302,15.7638-5.6193,20.0433-12.6742,5.549-9.1475,9.9804-17.55,18.3033-24.6982,4.4446-3.8173,9.5298-7.1347,15.2683-8.3163,10.0409-2.0673,20.0577,2.6141,29.683,6.1421,11.4382,4.1925,23.6917,6.8903,35.7937,5.493,13.2751-1.5327,25.5427-7.8871,36.5477-15.4677,3.8294-2.6379,7.626-5.5177,10.1893-9.3974,2.7003-4.087,3.8341-8.9726,5.3293-13.6374,2.498-7.7939,6.1281-15.261,7.6508-23.3026,3.5447-18.7211-16.5086-32.8741-5.0158-51.2108,15.8582-25.3234,17.5443-21.32,19.9649-30.2267,5.4722-20.1097-5.3067-28.0026.5379-49.6537,4.8205-17.8443,14.1823-19.2098,14.5754-35.6162.2069-8.9894-2.1413-16.2926-5.9377-28.075-4.8205-14.9271-7.9032-17.9374-11.3376-27.5165-5.1723-14.4616-4.5309-27.2681-3.2378-52.8915.5586-11.0997,1.0137-20.1305,1.5517-27.1647,3.7964,3.1344,7.3239,6.6308,10.4272,10.6652,12.1652,15.8271,11.0169,46.6952,19.5098,65.0049,8.6376,18.5995,26.8543,24.6717,31.1266,45.2676,3.7344,17.9788-6.2688,43.4366-6.2688,62.5223Z"/>
      <path class="cls-9" d="M201.7819,208.9465c-4.6343,10.2515-2.6793,22.7683.9309,33.6818,4.0138,12.0825,9.8791,23.8855,10.3034,36.6196.4033,12.1859-4.2724,24.2268-3.0826,36.361.8791,8.8859,4.8826,17.4098,4.5722,26.3371-.4243,11.8341-8.4102,22.7683-7.2722,34.5507,1.0345,10.7066,9.2479,19.127,16.9753,26.6061,1.1691,1.1276,2.2656,2.1724,3.2897,3.1137,9.2479,8.5239,13.5408,9.8894,28.1888,9.7032,6.455-.0931,20.8752-2.0999,27.1751-.7034,8.3582,1.862,22.3544,12.1859,26.9473,17.8857,7.3447,9.1342,14.7409,13.9445,26.3785,12.5996,9.8687-1.1379,15.1342-11.7824,19.7581-20.5648,12.0927-22.9338,34.0541-47.1503,59.8328-54.2157,5.6998-1.562,11.8444-2.2034,17.4614-.3827,6.7654,2.193,12.7963,3.362,18.6098,7.4688.993.7034,3.517,2.1206,6.0931,4.8205,3.3824,3.5275,6.879,9.248,7.2513,18.4443v.1655c.0311.8793.0414,1.7896.0104,2.731-.3619,12.072-3.1549,24.2579-9.8685,34.2197-.445.662-.9104,1.3241-1.3966,1.9654-16.4373,21.8993-44.2642,26.782-69.7634,21.7752-7.4687-1.4689-14.1927-5.4826-21.5374-7.4894-13.8408-3.7654-29.5544.3724-39.7436,10.4686-10.3031,10.21-15.3824,25.9338-28.3234,32.4922-10.8721,5.5034-23.9268,2.7517-35.7712-.1241-11.9894-2.9171-24.2581-5.9481-34.4887-12.8479-10.2205-6.8894-18.1443-18.5684-17.0685-30.8577.0414-.4138.0828-.8276.1447-1.2414,0-.1035.0104-.1965.0311-.2897,1.0448-7.1791,4.7172-13.8203,5.9585-21.0097.2586-1.5103.4139-3.0102.4447-4.5102.0104-.0517.0104-.1034.0104-.1552.3622-13.0341-7.0134-25.7475-16.6752-34.83-.3207-.3103-.6518-.6103-.9827-.8896,0-.0207-.0207-.0311-.0311-.0414-10.6238-9.6618-23.6684-16.2203-35.7921-23.9372-12.5167-7.9653-24.6612-17.8857-30.3299-31.6025-3.0415-7.3446-4.0345-15.403-6.9414-22.8097-5.3584-13.6547-16.8821-24.3406-21.4545-38.285-11.1307-33.9507,20.7822-61.8706,52.3641-73.353,8.4307-3.0723,16.8409-4.9654,24.4026-5.4826,12.3205-.8483,25.9959.3517,35.6164-7.3756,15.7857-12.672,9.279-39.123,20.5544-55.9225,7.3654-10.9652,20.9373-15.7857,33.8472-18.5684,45.0401-9.6825,96.8248-.3931,127.2894,34.1783,4.7793,5.4205,9.1136,11.4927,15.3203,15.2064,10.1584,6.0826,23.1305,4.6033,34.2405,8.6687,15.5064,5.6895,24.868,21.1442,29.4612,37.3334.693,2.4309,1.2827,4.8826,1.7585,7.3239,3.6931,18.7028,2.9791,38.5436-4.055,56.2534-7.0343,17.7202-20.7512,33.0922-38.4197,40.2402-18.8995,7.655-40.954,5.3688-59.2845-3.5585-18.3305-8.9273-33.1643-23.9889-44.4297-40.985-4.1275-6.2481-7.8516-12.8065-11.5755-19.3649-7.4376-13.0651-14.8756-26.0889-25.6337-36.4541-14.6581-14.1513-34.9956-22.251-55.3639-22.0545-5.3895.0414-10.9754.7965-16.158,2.4516-7.3758,2.3482-13.9446,6.4963-18.0307,12.9824-.6619,1.0551-1.2413,2.1413-1.7378,3.2482l-.0104.0103Z"/>
      <path class="cls-3" d="M17.241,335.3709c1.812-29.0474,5.5637-47.8101,1.3494-76.9092-2.5337-17.4949-6.5691-34.4224,1.0793-50.1934,6.8784-14.1829,31.0657-25.6409,38.4492-39.5674,11.2922-21.2996,8.7988-58.281,31.916-73.8401,40.0847-26.979,59.2209-18.9375,80.7549-42.5698,4.6741-5.1296,18.7092-18.3125,24.8269-21.5886,9.9221-5.3137,30.6516-2.4453,41.8276-3.7781,18.168-2.1667,28.8728-7.0669,47.1687-7.238,18.4646-.1729,34.354,12.8271,52.3369,17.0198,19.5706,4.5627,42.1841-1.0657,58.6438,10.4629,13.4683,9.4336,17.8682,27.1641,20.1829,43.4436.3425,2.4089.6362,4.989-.4434,7.1694-1.1992,2.4216-3.8044,3.7742-6.3003,4.8103-20.2378,8.4014-43.2053,6.3435-64.7646,2.4253-21.5591-3.9185-43.196-9.5806-65.0461-7.9304-21.8501,1.6501-44.6511,12.4346-53.4216,32.5151-4.4702,10.2341-5.022,22.1096-11.062,31.5029-6.2988,9.7954-17.666,15.2844-29.0586,17.6995-11.3928,2.4153-23.1553,2.2283-34.7478,3.3413-26.6733,2.5613-40.7793,19.196-58.1311,39.6152-19.7327,23.2207-9.5171,64.2559-18.3503,93.3704-7.4683,24.6157-31.3032,69.0835-50.0569,57.3708-7.6924-8.7966-7.6873-28.5613-7.1528-37.1316Z"/>
      <path class="cls-1" d="M176.0519,56.6087c-.491-.4729,4.4042-8.102,12.9532-13.9651,2.6167-1.7946,7.9869-5.0775,15.5842-6.8814,11.5147-2.7339,22.2532-.6714,22.2632.2024.0068.5856-4.8073.4935-14.5723,2.4287-6.6554,1.319-12.2042,2.4186-17.8106,4.8574-12.0623,5.2472-17.8906,13.8658-18.4177,13.358Z"/>
      <path class="cls-1" d="M254.8502,27.3292c9.3163-4.2279,17.638-4.8363,20.9139-4.9923,12.25-.5836,21.5691,1.9364,26.7158,3.3732,1.5097.4215,11.3329,3.2496,21.8584,10.3895,4.8691,3.3029,6.6472,5.3299,6.4766,7.4211-.2597,3.1832-4.9829,5.8773-9.1751,6.3416-6.1246.6784-9.8765-3.5394-17.2709-8.0957,0,0-9.6811-5.9654-22.8029-9.1751-17.1764-4.2015-31.4282.2257-31.8432-1.889-.1847-.9416,2.564-2.21,5.1273-3.3732Z"/>
      <path class="cls-1" d="M26.6861,280.2527c-1.1202.1187-3.945-14.8406-5.2622-29.9542-1.4472-16.6055-2.095-25.1105,1.6191-35.0139,4.1766-11.1364,11.233-17.8857,13.9651-20.4417,9.3736-8.7696,21.0181-13.5969,22.0608-12.1436.8086,1.1271-5.2569,5.3376-13.5603,15.989-3.7419,4.8-8.8854,11.398-12.5483,19.8345-3.9021,8.9874-4.476,16.5709-5.4646,31.3708-1.2754,19.094.155,30.2567-.8096,30.3589Z"/>
      <path class="cls-1" d="M102.9882,90.4082c-4.2441,2.0221-10.7576,5.1253-16.7986,11.334-7.4507,7.6575-9.9396,15.6777-14.3699,29.9541-3.6987,11.9188-5.4546,22.3063-4.8574,22.4656.7059.1884,3.6049-14.2065,13.3579-31.978,4.901-8.9304,7.6595-13.8268,13.5603-18.2154,4.2365-3.1508,7.0989-3.8132,15.7867-9.7148,5.2187-3.5451,11.0927-7.5353,10.5244-8.7029-.6553-1.3464-9.7558,1.3092-17.2034,4.8575Z"/>
      <path class="cls-2" d="M246.4846,41.2268c-1.9783-.4248-11.0997-2.3834-17.8105,4.0479-4.6213,4.4287-6.2873,11.0995-4.8575,17.001,1.9138,7.8988,8.6362,11.3762,10.1196,12.1436,1.2589.6512,7.3424,3.63,14.5723,1.6192,7.4613-2.0752,15.6763-9.3346,14.9771-18.6201-.7304-9.6993-10.6769-14.8335-17.001-16.1914Z"/>
      <path class="cls-2" d="M185.0922,121.3743c-3.6567-3.1162-9.4749-4.5156-14.5723-2.1588-5.7788,2.6718-9.4026,9.603-7.556,15.112,2.1186,6.3204,10.3395,7.4923,14.5723,8.0957,3.5805.5104,7.167,1.0216,9.7149-1.0794,4.5884-3.7837,4.1031-14.6331-2.1589-19.9695Z"/>
      <path class="cls-2" d="M371.7657,73.8121c-2.6305-.7579-6.028-.1805-7.8933,2.0239-2.9803,3.522-.547,9.4217,2.2263,12.346.8769.9246,3.0958,3.2644,6.2742,3.0359,3.0213-.2173,5.4655-2.6515,6.2741-5.2622.9853-3.1811-.6743-5.9258-1.6191-7.4885-.8514-1.408-2.2982-3.801-5.2622-4.655Z"/>
      <path class="cls-2" d="M146.9074,78.4671c-3.8594-3.5253-15.2327.8261-15.7867,6.4766-.2601,2.6526,1.8976,5.2496,4.0479,6.4766,3.6653,2.0915,8.6639.9753,11.334-2.4287,2.6023-3.3175,2.697-8.4306.4048-10.5244Z"/>
      <path class="cls-2" d="M114.9293,137.161c-3.7331-3.6249-9.9981-3.5703-14.1675-.4048-4.389,3.3322-5.6084,9.4682-3.2383,14.1675,2.1146,4.1925,7.0377,7.1453,11.7388,6.0718,4.8307-1.1031,6.8567-5.8707,7.2861-6.8813.1877-.4418,3.3227-8.1545-1.6191-12.9531Z"/>
      <path class="cls-2" d="M66.355,230.3965c-4.052-1.9668-10.6399,2.1858-12.9531,7.5562-.2197.51-2.355,5.7083.5398,10.7942,1.8291,3.2134,5.895,6.7844,9.7148,5.9368,5.2268-1.1597,6.4158-9.7981,6.4766-13.4927.0337-2.05.1462-8.8894-3.7781-10.7944Z"/>
      <path class="cls-2" d="M65.2756,283.8283c2.3462-.1833,4.5576,4.2443,5.3971,6.7464.6401,1.9075,1.9983,5.9553-.2699,9.7148-1.6788,2.7828-4.3708,3.7937-5.1273,4.0478-3.8211,1.2836-9.2339.3805-10.7943-2.9684-1.2742-2.7348.5276-6.0125,1.0794-7.0163,1.3973-2.5417,2.6133-2.3554,5.667-5.9369,2.6684-3.1297,2.7768-4.4882,4.0479-4.5875Z"/>
      <path class="cls-2" d="M27.9004,292.801c-3.1569.9915-4.7063,4.5987-4.0479,7.4885.0659.2893.8078,3.3105,3.6431,4.2503,3.1144,1.0322,5.7063-1.4573,5.8694-1.6192,2.0303-2.016,2.8564-5.7742.8096-8.2981-1.4974-1.8464-4.1035-2.5033-6.2742-1.8215Z"/>
      <path class="cls-2" d="M53.4019,344.0064c1.7625,2.2452.2633,6.7342-2.0239,9.3101-3.9698,4.4709-12.024,5.1045-14.1675,2.0239-1.5616-2.2443.1509-6.2632,2.0239-8.5005,3.8366-4.5828,11.8138-5.8318,14.1675-2.8335Z"/>
      <path class="cls-5" d="M245.6751,211.6415c-5.3821-3.2274-13.1236-2.0348-17.8106,2.8334-4.9774,5.1699-4.9576,12.8726-2.0239,18.2154.2733.4978,4.6274,8.1175,12.9531,8.0957.56-.0015,6.8167-.1224,10.9292-5.2622,4.1235-5.1536,2.8528-11.3052,2.4287-13.3579-.4204-2.0349-1.5658-7.5796-6.4766-10.5244Z"/>
      <path class="cls-5" d="M91.047,303.123c-5.0877-.5629-11.8097,8.2175-12.5483,17.001-.8879,10.5584,6.7379,22.692,14.977,22.668,5.6155-.0163,9.9299-5.6755,10.5244-6.4766.7112-.9582,3.8346-5.1668,3.2383-10.5245-.3321-2.9842-1.5974-4.3408-6.4766-10.9292-7.6329-10.3068-7.9076-11.5388-9.7148-11.7388Z"/>
      <path class="cls-5" d="M260.1126,267.097c-5.8079-1.7373-11.803,3.7473-12.9531,4.8577-4.6597,4.4973-7.3711,12.0693-4.8577,18.8899,3.3628,9.1252,15.1101,14.2795,21.0491,10.7944,3.6091-2.1182,4.3083-6.9788,4.8572-10.7944,1.1421-7.938-.3198-21.4214-8.0955-23.7476Z"/>
      <path class="cls-5" d="M430.6621,114.0882c-3.8914-4.0253-14.6022-3.0338-20.2393,3.2383-5.6415,6.277-3.5675,14.9122-3.2383,16.1914.2591,1.0068,2.1606,7.939,8.9053,11.7388,8.0002,4.5072,19.4417,2.7072,21.4536-2.0239,1.3689-3.2191-2.7545-5.145-4.8575-13.7627-2.1693-8.8897.8629-12.3958-2.0239-15.3819Z"/>
      <path class="cls-5" d="M334.0533,307.5757c-6.1859-3.4028-14.107.1844-16.7312,5.9369-1.5074,3.3045-1.496,7.8254,1.0795,11.334,3.881,5.2873,10.7424,4.4041,11.334,4.3177.3459-.0506,7.4764-1.2153,9.7148-7.556,1.8554-5.2557-.5951-11.3911-5.3971-14.0326Z"/>
      <path class="cls-5" d="M303.2896,247.1277c-3.207-.9766-7.8033,1.4402-9.7148,5.3972-1.897,3.9269-.5725,8.175,1.6191,10.7943,3.0059,3.5925,8.5148,5.1632,11.334,3.2383,4.8295-3.2975,2.8324-17.581-3.2383-19.4297Z"/>
      <path class="cls-5" d="M244.8655,339.9585c-3.815.1972-8.1889,2.6839-9.3101,6.8813-1.4526,5.4383,3.6001,9.8352,4.8574,10.9292.86.7484,6.3825,5.5541,12.1436,3.2383,2.5926-1.0422,4.9729-3.4218,5.667-6.4766,1.1616-5.1119-3.064-9.1857-4.4526-10.5245-1.387-1.3372-4.4382-4.2788-8.9053-4.0478Z"/>
      <path class="cls-5" d="M155.4079,371.8016c-2.8762-1.7222-7.9324-2.7565-10.5244,0-2.6469,2.8149-.8853,7.6275-.8096,7.8259,1.7841,4.6726,7.013,5.9972,8.9053,6.4766,2.1821.5528,5.603,1.4194,7.2861-.2699,2.6053-2.6148.5126-10.817-4.8574-14.0326Z"/>
      <path class="cls-5" d="M105.4843,373.6907c-3.2906-1.1664-7.3777.6041-9.445,3.2383-1.366,1.7405-1.6863,3.6492-1.889,4.8574-.3675,2.1899-.1423,4.2129.5397,6.7465,1.7434,6.4764,2.8635,10.6372,6.2067,11.6038,3.9904,1.1537,9.1668-2.8159,10.7943-7.2861.9967-2.7378.4621-5.1134-.2699-8.3656-1.0689-4.7494-2.1253-9.4432-5.9369-10.7943Z"/>
      <path class="cls-4" d="M377.3652,348.6304c-4.0728-1.7441-10.582,3.5752-13.2229,9.175-1.8879,4.0029-3.4941,11.7424,1.0793,15.3818,2.6587,2.1157,6.7268,2.3052,9.7148.8096,4.2847-2.1445,5.1074-7.1328,5.667-10.5244.6257-3.7932,1.1462-12.9646-3.2383-14.842Z"/>
      <path class="cls-4" d="M443.6152,331.0532c-3.1849-3.3719-8.9852-4.8855-13.7627-2.4287-5.3928,2.7731-7.0269,9.3425-5.6669,14.3024,1.1349,4.1394,4.5687,7.9371,9.1751,8.9053.7476.1572,3.9886.8383,7.0163-.8096,5.9225-3.2236,8.7593-14.1243,3.2383-19.9694Z"/>
      <path class="cls-4" d="M486.9273,213.0582c-1.8433-.7555-5.4301,1.7504-6.2742,4.8575-.5883,2.1654.6011,2.9833,2.0239,8.2981,1.3974,5.2197.7227,6.1952,2.2263,8.5005,1.4997,2.2994,4.594,5.0437,6.8813,4.2503,2.4114-.8365,3.2465-5.3693,2.6311-8.7029-.7316-3.9635-3.1209-4.1054-5.0598-9.1077-1.8319-4.7262-.7946-7.426-2.4287-8.0957Z"/>
      <path class="cls-4" d="M328.9479,411.7405c-2.5793-1.977-7.341-.784-10.2545,1.3493-4.2254,3.0938-5.679,8.9821-4.3177,13.7627.2536.8907,1.5797,5.1659,5.9369,7.556,1.1028.6049,5.3131,2.9144,9.7148.8096,3.108-1.4863,5.3338-4.7059,5.3972-7.8258.0565-2.7818-1.654-3.1228-3.778-8.6354-1.7637-4.5774-1.1604-5.8372-2.6986-7.0163Z"/>
      <path class="cls-4" d="M324.626,359.7818c-2.2627-2.5617-10.9899-.771-14.8421,4.8574-.4684.6844-3.874,5.6602-1.3493,9.9848,1.5456,2.6475,4.7975,4.1667,7.8259,3.778,2.9936-.3843,4.7806-2.5062,5.3971-3.2383,1.6134-1.9158,1.9971-4.0019,2.6986-8.0957.7263-4.2388,1.0895-6.3582.2699-7.2861Z"/>
      <path class="cls-4" d="M207.2204,413.6295c-.5676-.6444-3.3838-3.8419-7.556-3.5082-3.6281.2902-7.2328,3.1667-7.2861,5.9369-.0488,2.5361,2.9224,2.7301,5.667,7.556,2.1465,3.7743,1.6251,5.9343,3.5081,6.7464,2.0489.8836,4.9327-.6962,6.4766-2.4287,3.27-3.6695,2.6369-10.3893-.8096-14.3024Z"/>
      <path class="cls-4" d="M156.2362,413.3097c-3.8735-1.1033-8.5514,1.666-9.1751,5.9369-.567,3.8825,2.4825,7.1835,5.667,8.0957,2.038.5838,5.0715.4584,7.0163-1.6191,1.7866-1.9085,1.657-4.3993,1.6191-5.1273-.1381-2.6536-1.6999-6.3098-5.1273-7.2861Z"/>
      <path class="cls-4" d="M198.8549,467.0612c1.9172-2.4734.521-6.9935-2.4287-8.3656-3.4643-1.6115-8.2258,1.5122-8.3656,4.5876-.1102,2.426,2.686,4.1488,2.9684,4.3177,2.278,1.3621,6.0777,1.7155,7.8259-.5397Z"/>
      <path class="cls-4" d="M62.4421,414.3041c-2.4308-3.1066-3.6623-4.6557-4.4526-4.4527-.976.2507-1.3521,2.1137-1.3493,3.2383.0058,2.3363,1.6552,4.8704,3.9129,5.2622,1.3091.2272,3.0488-.2266,3.3732-1.2143.1807-.5501-.1308-1.1039-1.4842-2.8335Z"/>
      <path class="cls-4" d="M109.3973,446.1473c1.2366-1.5975.4617-4.9932-1.3493-7.0163-3.0395-3.3956-8.6071-2.4877-12.2785-1.889-2.9776.4855-5.5557.946-6.7464,3.1034-.9264,1.6783-.7276,3.8664.1349,5.3972.7861,1.395,2.8285,2.2083,6.8814,3.778,4.2181,1.6336,5.0365,1.4952,5.5321,1.3493,1.6955-.4989,1.7192-1.7033,4.3177-3.1034,2.1057-1.1345,2.8288-.7416,3.5081-1.6192Z"/>
      <path class="cls-4" d="M147.1098,446.6195c-1.192-.5304-3.7175-1.6543-6.2742-.4048-1.9529.9544-3.6552,3.1622-3.4407,5.4646.2739,2.9398,3.5198,4.3921,5.4646,5.2622,1.9242.8609,5.0673,2.2672,7.2861.6071,1.9701-1.4739,2.1558-4.575,1.4168-6.6789-.9446-2.6892-3.4135-3.7878-4.4526-4.2503Z"/>
      <path class="cls-6" d="M494.2134,132.7083c-.1645-2.1565-1.2999-6.52-4.7225-7.1512-3.0417-.561-5.9534,2.1831-6.8814,4.9923-.9062,2.7432.0596,5.6078,1.7541,7.4211,1.2625,1.351,3.9553,3.2161,6.4766,2.2938,2.988-1.0931,3.5453-5.3004,3.3732-7.556Z"/>
      <path class="cls-6" d="M497.4517,176.1473c-1.772-2.6996-5.4719-4.6722-8.2982-3.6431-4.0195,1.4637-5.1837,8.6026-2.6311,12.9531,1.4636,2.4945,4.7806,5.1485,7.691,4.2503,2.7565-.8507,3.6786-4.4344,4.0478-5.8694.328-1.2746,1.1936-4.639-.8096-7.6909Z"/>
      <path class="cls-6" d="M516.1258,194.8429c-1.1514-.8792-3.4249-.7779-4.5539.8096-1.0874,1.5289-.4715,3.5341.7084,4.5538.7458.6446,2,1.1401,3.0359.7084,1.9577-.8158,2.5871-4.7145.8096-6.0718Z"/>
      <path class="cls-6" d="M530.2393,214.475c-1.8208-2.4845-2.6335-2.5416-2.9347-2.5299-1.3575.053-2.2699,1.8955-2.9347,3.2383-.684,1.3813-1.7626,3.5598-1.1131,6.2741.1722.7198.8019,3.3512,3.2383,4.5539.3323.164,2.3648,1.1673,4.3515.2024,2.1143-1.0269,2.5508-3.4932,2.6311-3.9466.4809-2.7173-1.0986-4.8726-3.2383-7.7922Z"/>
      <path class="cls-6" d="M521.0642,245.7785c-1.0435-4.6062-6.6011-9.096-10.5245-7.8259-3.9768,1.2874-4.544,7.9321-4.8574,11.6039-.2962,3.4708-.6492,7.6055,2.1589,10.7943,2.3473,2.6656,6.7321,4.4757,9.1751,2.9684,1.3388-.826,1.164-2.0741,2.6985-9.445,1.2976-6.2327,1.6864-6.6077,1.3493-8.0957Z"/>
      <path class="cls-6" d="M523.358,355.7452c4.1855.3839,9.779-9.4804,10.1196-18.8226.1094-2.9994.3322-9.1131-4.0478-13.1555-.6641-.6129-4.452-4.1088-9.5125-3.0359-3.6691.7779-6.499,3.6376-7.4885,6.8813-.9607,3.1492.0402,5.9158.4048,6.8814,1.1309,2.9946,2.5129,2.7945,3.8455,5.6669,1.6785,3.6181.0528,5.1578,1.4168,9.1077.1564.453,2.1999,6.1957,5.2622,6.4766Z"/>
      <path class="cls-6" d="M501.0947,285.9871c-2.2806-1.3354-5.8371-1.8086-8.6354,0-3.1911,2.0625-3.4817,5.8548-3.6431,7.9608-.1219,1.5901-.305,3.9792,1.2144,5.9369,1.1172,1.4394,2.675,2.0275,4.4526,2.6986,1.6662.629,2.8035,1.0583,4.3178.9445,3.1339-.2356,5.2036-2.5961,6.4766-4.0478.9639-1.0993,1.5384-1.7545,1.754-2.8335.1352-.6765.2147-1.9469-1.754-5.2622-1.7891-3.0129-2.6837-4.5194-4.1828-5.3972Z"/>
      <path class="cls-6" d="M481.2602,346.4351c-2.3382-1.6243-6.7438.3554-9.1076,2.4287-2.3418,2.0541-3.1916,4.649-4.4527,8.5004-.9178,2.8029-1.2166,4.9693-1.4168,6.4766-.6098,4.5922-.9147,6.8883.4048,8.7029,1.3001,1.7878,3.8462,2.9296,6.0718,2.4287.8085-.182,2.2838-.7403,4.655-4.655,2.9892-4.9349,3.9423-9.4915,4.2503-11.1316,1.1325-6.0322,2.0709-11.0309-.4048-12.7508Z"/>
      <path class="cls-6" d="M502.7139,388.2629c-4.9337,2.9174-5.9756,1.8909-7.9608,4.0479-1.7087,1.8566-3.4928,5.3942-2.0239,7.421,1.1296,1.5587,3.9802,1.944,5.8019.9445,2.038-1.1182,1.2523-3.1267,3.6431-5.6669.6644-.7059.7244-.5501,5.3972-3.5082,3.5266-2.2325,4.2203-2.782,4.1828-3.5081-.0573-1.1095-1.796-2.1356-3.3732-2.2937-1.8859-.189-2.8999.9274-5.667,2.5636Z"/>
      <path class="cls-6" d="M469.3191,441.9645c1.1772.8085,1.3495,2.3871,1.6191,4.8574.23,2.1074.5374,4.9236-.8096,7.4885-1.5937,3.035-3.6321,2.1543-6.8813,5.4646-3.4902,3.5558-2.2612,5.716-5.667,8.7029-.9194.8063-4.0945,3.5908-8.0957,3.0359-4.2881-.5948-8.1622-4.8362-7.8933-8.9053.2402-3.6339,3.711-6.0181,5.2622-7.0837,4.5876-3.1513,7.2698-1.3868,10.322-4.4527,2.4276-2.4385,1.2883-4.1146,4.0478-6.6789,2.242-2.0834,6.0604-3.8265,8.0957-2.4287Z"/>
      <path class="cls-6" d="M389.5088,470.5693c-1.974-2.3867-5.7833.5309-12.4134-.9445-3.7577-.8362-3.2023-1.9221-9.5799-4.0479-6.0768-2.0255-8.6543-1.7307-9.445-1.6191-1.3631.1923-4.6091.6977-7.1512,3.3732-.8289.8724-2.9369,3.0912-2.6986,6.0718.2448,3.0611,2.8612,5.6346,5.5321,6.4766,3.2202,1.0151,4.5638-1.1034,11.8737-2.9684,5.4547-1.3917,8.2142-2.0957,11.8737-1.4842.1112.0186,2.8177.3272,8.2306.9445,1.7089.1948,2.8422.3077,3.6431-.4048,1.2378-1.1011,1.3736-3.8995.1349-5.3972Z"/>
      <path class="cls-6" d="M388.0246,493.777c-3.4285-2.4801-12.0838,2.1391-15.6517,8.6354-.4043.7362-3.7784,7.0456-1.0794,10.2546,2.5197,2.9958,9.1073,1.8332,12.9531-1.0795,6.1355-4.6468,7.2964-15.2655,3.778-17.8106Z"/>
      <path class="cls-6" d="M303.2896,531.557c2.6829-.6895,5.8446-1.5021,6.4766-3.778.807-2.9066-3.1193-6.0119-4.0479-6.7464-1.0396-.8222-4.7035-3.72-8.0957-2.4287-1.5865.6039-2.3749,1.8429-3.778,4.0479-1.8366,2.8862-3.7094,5.8293-2.6986,7.8258,1.5803,3.1214,9.1552,1.8475,12.1436,1.0795Z"/>
      <path class="cls-6" d="M229.2812,515.8378c-2.175-4.1802-8.4318-4.4499-12.3459-2.8335-4.1126,1.6983-7.8805,6.4046-6.679,10.322,1.0063,3.281,5.0475,4.5387,6.0718,4.8575,1.3793.4293,4.8196,1.1981,8.0957-.6072,3.8871-2.142,7.005-7.6112,4.8574-11.7388Z"/>
      <path class="cls-6" d="M181.1118,493.3722c-2.9078,1.4185-6.9796-.3271-7.8933-3.2383-.868-2.7655,1.5057-5.3351,1.8215-5.667.4783-.5027,2.1011-2.2081,4.4526-2.0239.153.012,2.0118.1849,3.2383,1.6191,2.0431,2.3891,1.7914,7.6463-1.6191,9.3101Z"/>
      <path class="cls-6" d="M94.2852,466.2517c1.9365-1.5647,4.605-1.0525,5.8694-.8098,3.2458.623,8.6235,3.1895,9.3101,8.5007.5967,4.6145-2.792,7.8691-3.0356,8.0957-2.5376,2.3579-6.6863,3.6194-9.9175,2.0237-4.5925-2.2676-4.355-8.8369-4.2502-11.7385.0737-2.0371.1653-4.5701,2.0239-6.0718Z"/>
      <path class="cls-7" d="M472.4256,272.4308c-7.0343,17.7202-20.7511,33.0922-38.4196,40.2402-18.8995,7.655-40.954,5.3688-59.2844-3.5585-18.3305-8.9273-33.1645-23.9889-44.4297-40.985-4.1275-6.2481-7.8515-12.8065-11.5755-19.3649-7.4377-13.0651-14.8754-26.0889-25.6337-36.4541-14.6582-14.1513-34.9955-22.251-55.3638-22.0545-5.3895.0414-10.9755.7965-16.1581,2.4516,8.0736-2.5784,14.76-5.3,23.4905-5.3864,8.1134-.0803,16.3773,1.1644,24.1754,3.3626,16.3844,4.6186,31.2678,13.6008,44.6437,23.955,18.4423,14.276,34.6022,31.3158,53.004,45.644,9.2109,7.1719,19.2769,13.7831,30.6928,16.2229,18.426,3.938,37.8576-2.6203,51.9832-14.6227,6.9992-5.9472,13.0996-13.4535,16.8096-21.9044,3.6747-8.3704,11.0626-21.6514,8.3621-31.1233.6931,2.4309,1.2827,4.8826,1.7586,7.3239,3.693,18.7028,2.9792,38.5436-4.055,56.2534Z"/>
      <path class="cls-7" d="M227.4984,406.2165c-10.148-5.9067-21.4339-16.7271-22.7062-28.7474-.3827-3.662.1965-8.7411,1.3448-18.8891,1.4172-12.3617,2.7517-15.103,1.8931-22.1269-.7345-5.9585-1.4689-11.9479-5.9377-16.7374-2.2447-2.3999-4.6965-3.7034-8.9066-8.6273-3.8895-4.5516-4.0447-6.0619-4.0447-6.755-.031-3.9723,4.6757-5.0378,8.6377-9.9825,4.9757-6.217,5.0481-13.934,5.1205-22.3958.0724-7.417-1.3034-13.0755-2.1516-16.4582-2.5655-10.2204-4.8826-10.2617-6.4757-18.0822-.9103-4.4378-3.1861-15.5685,3.2378-24.0199.2896-.3931,1.9654-2.5965,4.2723-4.4482-4.6344,10.2515-2.6793,22.7683.931,33.6818,4.0137,12.0825,9.879,23.8855,10.3032,36.6196.4035,12.1859-4.2723,24.2268-3.0826,36.361.8793,8.8859,4.8826,17.4098,4.5723,26.3371-.4242,11.8341-8.4101,22.7683-7.2722,34.5507,1.0345,10.7066,9.248,19.127,16.9754,26.6061,1.1689,1.1276,2.2655,2.1724,3.2895,3.1137Z"/>
      <path class="cls-7" d="M455.3364,438.388c-.4448.662-.9103,1.3241-1.3965,1.9654-16.4374,21.8993-44.2642,26.782-69.7634,21.7752-7.4688-1.4689-14.1927-5.4826-21.5373-7.4894-13.841-3.7654-29.5543.3724-39.7437,10.4686-10.3031,10.21-15.3823,25.9337-28.3233,32.4922-10.872,5.5033-23.9268,2.7516-35.7713-.1241-11.9893-2.9172-24.2579-5.9481-34.4887-12.8479-10.2204-6.8894-18.1443-18.5684-17.0685-30.8577.0414-.4138.0828-.8276.1448-1.2414,0-.1035.0104-.1965.031-.2897,1.1793-8.7204,5.6998-16.5822,6.4033-25.5199,2.6068,10.7997-1.2724,22.3856,1.3138,33.1852,2.4724,10.3031,10.7376,18.6098,20.4511,22.82,3.9309,1.6965,8.2549,2.8033,12.4755,2.131,3.4137-.5586,6.9929-2.2447,10.1583-.8586,2.8137,1.2206,4.2102,4.4585,6.7549,6.1654,2.6585,1.7792,6.1033,1.6447,9.2894,1.4482,6.2067-.3827,12.4961-.7861,18.3822-2.7516,5.8757-1.9655,11.1928-5.524,15.3202-10.1376,3.9723-4.4378,6.0619-10.1583,10.1583-14.4927,6.2998-6.6515,13.2824-9.6307,16.3961-10.9342,2.9275-1.2103,11.1927-4.3136,22.0648-3.8378,9.3308.4035,14.3686.7035,22.6649,3.031,4.7998,1.3448,20.627,5.555,39.4643-.1965,4.6033-1.4069,18.4443-4.6137,29.9578-20.6477,3.4033-4.7482,12.4134-16.7995,12.072-30.4129-.1241-5.317-1.3448-13.3444-2.8033-18.4029,3.3826,3.5275,6.8791,9.248,7.2515,18.4443v.1655c-.0206.9931-.0206,1.9138.0104,2.731.4862,12.072-3.0516,24.2579-9.8686,34.2197Z"/>
      <path class="cls-7" d="M196.1442,390.8032c-10.6238-9.6618-23.6683-16.2203-35.7921-23.9372-12.5168-7.9653-24.6613-17.8857-30.3301-31.6025-3.0413-7.3446-4.0344-15.403-6.9412-22.8097-5.3585-13.6547-16.8823-24.3406-21.4545-38.285-11.1307-33.9507,20.7821-61.8706,52.364-73.353-6.1964,3.2895-16.0857,8.979-27.1234,18.7236-9.2997,8.2136-15.2167,13.5616-18.8167,23.0683-5.6791,14.9996-1.4172,29.3163-.2068,33.3921,1.7999,6.0516,4.3033,10.3756,9.3101,19.0236,3.2999,5.7102,4.8929,7.5618,7.086,9.1135,5.1619,3.6309,10.9238,3.6309,10.9342,5.2654,0,1.231-3.3206,1.1482-5.2654,3.4344-1.1379,1.3344-2.6171,4.4171,1.6137,15.9926,2.9999,8.1928,5.6171,15.3513,12.4858,22.9338,3.5172,3.8895,7.5205,6.6516,15.3823,12.01,15.765,10.7479,19.6029,10.779,28.1268,18.2787,3.0516,2.6793,6.1343,5.824,8.6274,8.7515Z"/>
      <path class="cls-8" d="M472.1157,223.3533c.5072-2.1074.6929-4.306.5623-6.4495-.3888-6.3779-3.157-12.364-6.3181-17.9169-5.968-10.4837-14.3976-20.6637-26.0945-23.6149-5.0994-1.2866-10.4892-1.0979-15.5698-2.4566-3.9972-1.0689-7.6514-3.0699-11.5767-4.341-1.0074-.3262-4.8011-1.9198-5.4431-.5798-.5339,1.1144,3.4415,4.0882,4.1959,4.7383,9.051,7.7992,20.228,14.2513,24.8765,25.2577,2.4757,5.8617,2.7752,12.3907,4.4367,18.5331,1.4753,5.4541,4.093,10.6783,8.0718,14.69,1.9415,1.9576,4.2704,3.6477,6.9573,4.2661,3.0966.7127,6.4341-.0953,9.0932-1.8347,3.5502-2.3222,5.8067-6.129,6.8086-10.2919Z"/>
      <path class="cls-8" d="M376.7821,135.3446c-7.4279-6.3661-16.4128-10.8521-25.6505-14.1863-20.1803-7.2839-41.9852-9.4497-63.3983-8.1164-17.7138,1.1029-43.8272,4.797-52.0413,23.1783,10.6464-10.9925,26.5902-15.1553,41.8648-16.0871,21.2775-1.2979,42.5939,2.741,62.9439,9.0886,9.1979,2.869,18.3072,6.239,26.5924,11.1573,8.2852,4.9182,15.7573,11.4717,20.7165,19.7325,2.6222-7.4815-1.8166-15.6461-7.3506-21.3227-1.1755-1.2058-2.4033-2.3526-3.6769-3.4441Z"/>
      <path class="cls-8" d="M111.1514,262.5096c-.0775-4.6888-.1273-11.703,2.9684-19.9695,4.1002-10.9486,11.2061-17.3852,15.6517-21.3187,11.7206-10.3703,25.2476-15.1388,25.9063-14.0326.5389.9052-7.7607,5.3689-19.1598,16.4613-6.1685,6.0025-11.4514,11.1432-15.112,17.2709-12.1945,20.4132-2.6657,45.5538-4.5876,45.8757-1.2995.2177-5.4526-11.3113-5.667-24.2871Z"/>
      <path class="cls-8" d="M205.1965,338.3394c.1849-2.2288.1872-6.3709-2.0239-11.5364-1.067-2.4927-4.167-9.7346-11.334-12.7507-1.7797-.7489-4.6085-1.9394-6.8814-.6072-2.4065,1.4106-3.3969,5.1844-2.4287,7.8933,1.4251,3.9877,6.117,2.9337,11.334,7.0838,7.3994,5.8862,7.6971,15.7513,9.7148,15.3819,1.1838-.2168,1.4714-3.684,1.6191-5.4647Z"/>
      <path class="cls-8" d="M310.3058,440.0755c-3.3253-8.6104-10.4048-13.1778-13.4928-15.112-10.07-6.3073-19.7854-6.4652-23.4776-6.4766-4.5603-.014-14.1181-.0434-16.1914,4.8575-1.1003,2.601.403,5.4193.5397,5.667.6117,1.1086,2.7187,4.1997,15.112,5.3971,6.8229.6592,8.003-.1019,12.1436.2699,14.8394,1.3324,23.7481,13.2701,26.1761,11.0642,1.0208-.9275.0085-3.5488-.8096-5.667Z"/>
      <path class="cls-8" d="M380.0638,400.5414c-.7203-.7849,5.1993-8.879,14.3024-15.9216,4.1682-3.2247,15.1147-10.9564,30.224-12.4134,10.1616-.9799,13.1743,1.7492,14.1675,2.8335,2.013,2.1977,3.3214,5.9269,2.0239,8.6354-1.8397,3.8404-8.2089,4.1466-14.5723,4.4526-7.0995.3413-8.2335-.9957-14.5722-.5397-6.1251.4406-10.6766,2.0927-13.7627,3.2383-11.3864,4.2265-17.1431,10.4421-17.8106,9.7148Z"/>
    </g>
  </g>
</svg>