<?xml version="1.0" encoding="UTF-8"?>
<svg id="Capa_2" xmlns="http://www.w3.org/2000/svg" viewBox="0 0 908.2907 466.7463">
  <defs>
    <style>
      .cls-1 {
        fill: #e28da3;
      }

      .cls-2 {
        fill: #b5486f;
      }

      .cls-3 {
        fill: #dd7696;
      }

      .cls-4 {
        fill: #f2afc1;
      }

      .cls-5 {
        fill: #d36380;
      }

      .cls-6 {
        fill: #ea9daf;
      }

      .cls-7 {
        fill: #fcd0db;
      }

      .cls-8 {
        fill: #d88099;
      }

      .cls-9 {
        fill: #c65578;
      }
    </style>
  </defs>
  <g id="Capa_1-2" data-name="Capa_1">
    <g>
      <g>
        <path class="cls-6" d="M364.8927,459.2461c-109.9204.0005-190.5059-3.0498-221.0923-8.3682-34.8203-6.0518-68.0005-25.4385-93.4272-54.5894-9.8931-11.3271-18.2607-23.7295-24.8677-36.8589-4.6104-9.1792-8.395-19.0742-11.25-29.415-20.5542-74.4053,6.6606-163.9893,63.3032-208.3794,24.8101-19.4458,54.3784-29.3169,82.9727-38.8628,10.3633-3.4595,21.0796-7.0371,31.2495-10.9858,15.105-5.8662,30.1572-12.6562,44.7134-19.2227,28.9512-13.0601,58.8877-26.5645,91.2661-33.7954,48.1655-10.7539,97.7939-10.9912,145.7891-11.2202,5.4702-.0254,10.9546-.0483,16.4438-.0483,43.3955,0,89.4219,1.2466,133.1416,16.1494,26.1621,8.9106,50.3545,22.3843,73.7505,35.4146,9.7163,5.4116,19.7632,11.0073,29.7363,16.1479,14.4292,7.4307,30.2954,12.8877,45.6392,18.1655l.4336.1489c15.7305,5.4189,31.9937,11.021,47.3862,19.041,3.7246,1.9434,7.311,3.9868,10.6626,6.0767,21.2168,13.2129,38.0278,31.4453,49.9629,54.1895,19.4341,37.0327,25.0786,86.0566,15.4863,134.5015-6.1138,30.9062-20.5972,74.5752-54.8755,107.0947-34.5791,32.7988-78.4346,35.5435-120.3906,35.5435-4.8052,0-9.6235-.0376-14.4409-.0747-4.7764-.0371-9.5522-.0742-14.3135-.0742-9.3501,0-21.6084.1294-33.5029,1.1377-57.4966,4.8774-178.3018,8.2837-293.7764,8.2842Z"/>
        <path class="cls-7" d="M489.9982,15c44.2716-.0002,88.972,1.5191,130.7168,15.7486,36.3201,12.3701,68.5601,33.65,102.4701,51.1299,15.0498,7.75,31.08,13.2402,47.0701,18.7402,15.8199,5.4498,31.6,10.91,46.36,18.6,3.45,1.8,6.84,3.7198,10.1599,5.7899,21.1001,13.1401,36.5901,30.9202,47.29,51.31,20.22,38.5302,23.33,86.3301,14.77,129.56-7.6101,38.4702-24.23,76.1201-52.6801,103.1102-32.2943,30.6317-73.348,33.4845-115.2267,33.4845-9.5779,0-19.1893-.1489-28.7601-.149-11.5065,0-22.9384.2154-34.1332,1.1645-59.2365,5.0251-181.3735,8.2576-293.1418,8.2576-97.0835,0-186.3394-2.4379-219.8081-8.2576-35.3301-6.1401-66.3899-26.14-89.0601-52.13-9.52-10.9-17.5601-22.86-23.8198-35.3-4.4502-8.86-8.02-18.2599-10.7202-28.04-19.0798-69.07,4.8101-156.68,60.7002-200.48,32.7-25.63,74.3699-34.0302,112.3098-48.76,45.24-17.57,87.1201-42.0201,134.9001-52.69,47.25-10.55,96.0199-10.81,144.1899-11.04,5.458-.0254,10.9353-.0486,16.4131-.0486M490.0049,0v15l-.0024-15c-5.5409,0-10.9603.0231-16.4871.0488-48.395.2311-98.4357.47-147.389,11.4003-33.1284,7.398-63.4211,21.0632-92.7166,34.2786-14.4666,6.526-29.4258,13.2741-44.3452,19.0684-9.9998,3.8823-20.1555,7.2726-30.9075,10.8622-29.1997,9.7479-59.3933,19.8277-85.2253,40.0745-29.0867,22.7949-51.675,57.7209-63.6028,98.3437-11.5898,39.4716-12.4077,81.3553-2.3025,117.9362,2.9846,10.8098,6.9463,21.1658,11.7747,30.7786,6.8943,13.7012,15.6155,26.6292,25.9263,38.4346,26.5479,30.4359,61.2793,50.696,97.7893,57.0413,42.427,7.3777,157.5369,8.4792,222.3765,8.4792,115.6575,0,236.7231-3.4177,294.4097-8.3114,11.613-.9845,23.6641-1.1108,32.8655-1.1108,4.7263,0,9.572.0375,14.2582.074,4.7461.0368,9.6538.0749,14.502.0749,43.4681,0,88.968-2.9034,125.5493-37.6014,28.2662-26.8156,48.001-65.2269,57.0723-111.0823,4.6687-23.5784,5.9197-48.1161,3.6168-70.9578-2.5432-25.228-9.2115-48.2691-19.8197-68.4834-12.5635-23.9409-30.275-43.1429-52.6427-57.0724-3.5055-2.1859-7.2595-4.3256-11.1509-6.3558-15.894-8.2809-32.4255-13.9758-48.413-19.4832l-.4398-.1514c-15.7869-5.4298-30.698-10.5586-44.6486-17.7424-9.8597-5.0826-19.8531-10.6483-29.5175-16.0308-23.6866-13.1922-48.1797-26.8334-74.9839-35.9625C580.749,1.278,534.0237,0,490.0049,0h0Z"/>
      </g>
      <path class="cls-5" d="M602.9451,317.4186c-13.6801,16.12-35.6,22.1-56.2201,26.74-55.8599,12.58-114.3799,21.49-170.0299,8.04-20.8199-5.02-41.5-13.54-56.4-28.92-9.49-9.79-16.2-22.04-20.03-35.15-1.8-6.1299-2.97-12.45-3.51-18.8-.34-4.03-.46-8.06-.35-12.07,1.38-52.59,40.2301-102,89.4-119.18,30.6599-10.71,64.8101-9.14,95.71.88.3801.13.76.25,1.14.38,31.2001,10.36,59.2001,28.93,83.7001,50.85,5.84,5.22,11.53,10.7,16.8799,16.5,4.8801,5.29,9.4601,10.85,13.5701,16.69,6.36,9.01,11.6,18.71,15.1,29.2,7.2301,21.64,5.8099,47.45-8.96,64.84Z"/>
      <path class="cls-1" d="M888.8351,305.8785c-7.6101,38.47-24.23,76.1201-52.6801,103.11-48.5599,46.06-116.9,29.31-178.12,34.5-110.6899,9.39-440.95,12.52-512.95,0-50.15-8.72-91.71-45.36-112.88-87.43-4.45-8.86-8.02-18.26-10.72-28.04,46.1243,61.4705,77.3135,70.313,111.8635,80.2531,66.64,19.1801,141.1066.2369,237.5266-.783,32.6499-.34,134.8899-1.42,207.7799-21.13,9.2401-2.5,34.02-9.62,69.26-16.43,39.16-7.57,42.9801-5.43,63.39-10.57,19.79-4.99,41.7418-21.5557,75.5217-55.6957,9.9601-10.07,44.5582-29.4791,47.4783-77.7391,1.6-26.37-1.6344-50.2357-7.3043-64.6956-6.24-15.9301-2.6957-31.3896-10.3856-42.0096,3.45,1.8,6.84,3.72,10.1599,5.79,60.96,37.96,75.15,114.77,62.0601,180.87Z"/>
      <path class="cls-8" d="M888.8351,305.8785c-7.6101,38.47-24.23,76.1201-52.6801,103.11-48.5599,46.06-116.9,29.31-178.12,34.5-110.6899,9.39-440.95,12.52-512.95,0-35.33-6.14-66.39-26.14-89.0601-52.13,8.3,4.81,17.86,10.02,28.8,15.35,16.18,7.88,47.67,23.03,85.31,31.3,26.22,5.77,34.43,3.58,128.34,2.35,60.23-.79,52.7.16,107.22-.78,56.51-.98,84.76-1.47,119.74-3.92,31.59-2.2,59.4301-4.15,97.0399-10.17,46.4202-7.43,44.3401-10.92,76.7001-14.09,44.53-4.35,56.26,1.5,80.61-10.17,25.8601-12.4,42.28-33.22,43.8201-35.22,5.3899-6.97,9.03-13.37,15.6599-25.04,1.51-2.67,12.48-22.07,19.5601-39.13,17.1799-41.38,17.96-84.57,18-88.44.1399-13.7-1.02-26.09-2.76-37.08,20.22,38.53,23.3301,86.33,14.77,129.56Z"/>
      <path class="cls-3" d="M359.1311,160.3803c4.5656-6.6272,12.05-13.1356,28.5653-18.9782,23.5005-8.3139,43.4819-7.566,54.5869-7.0435,13.3789.6295,20.528,2.7675,34.826,7.0435,7.5529,2.2588,13.8187,4.6528,16.8262,10.5652.3374.6634,3.3053,6.7096.5869,11.7391-3.1987,5.9183-12.0361,6.2943-15.8479,6.4565-7.4689.3178-11.0963-1.9715-22.6956-5.2826-.0001,0-8.4031-2.3988-18.7826-4.3044-12.8973-2.3679-25.5322-4.6875-40.5-.9782-9.3384,2.3142-15.4158,3.8203-21.1305,8.8044-1.7433,1.5204-4.0723,3.9047-8.2174,5.6739-3.5688,1.5232-10.4825,3.4437-12.7174.7826-2.9471-3.5093,3.6753-13.2811,4.5-14.4783Z"/>
      <path class="cls-3" d="M352.6094,180.0107c-1.1317-1.7004-3.5018-1.9575-4.6957-2.0869-4.1866-.4541-7.4923,2.0333-8.7391,3-1.2931,1.0026-1.3376,1.3522-5.4781,6.6522-2.5612,3.2784-3.8418,4.9175-5.3479,6.6522-3.3427,3.85-3.8147,3.7685-5.3478,6-2.0852,3.0351-3.8314,5.5767-3.1305,8.4783.6763,2.7998,3.4304,5.1039,6.2609,5.4782,4.2457.5615,7.5876-3.3611,9.3914-5.4782,3.79-4.4485,2.2198-6.3124,5.7391-10.8261,3.6292-4.6547,6.093-3.6912,9.2609-8.6087.7773-1.2067,4.0581-6.2993,2.0869-9.2609Z"/>
      <path class="cls-3" d="M316.0877,221.4238c-1.9033-.9204-5.8763,3.6-7.4348,5.6739-4.0616,5.405-4.2806,10.9042-4.3044,12.1304-.0392,2.0228-.1567,8.0923,2.7391,9.1956,2.4645.939,6.1179-2.0979,7.826-5.0869,1.1227-1.9646,1.0653-3.3139,1.3696-9.587.4821-9.9363.8811-11.8054-.1957-12.3261Z"/>
      <path class="cls-9" d="M602.9451,317.4186c-13.6801,16.12-35.6,22.1-56.2201,26.74-55.8599,12.58-114.3799,21.49-170.0299,8.04-20.8199-5.02-41.5-13.54-56.4-28.92-13.93-14.37-21.85-34.01-23.54-53.95-.34-4.03-.46-8.06-.35-12.07,9.28,11.27,22.9601,34.52,52.6801,49.53,28.49,14.41,58.4199,14.53,79.83,14.61,19.08.08,12.9801-2.23,57.91-6.26,47.0601-4.21,62.05-2.41,79.3101-15.13,4.46-3.29,16-12.02,21.3899-27.13,4.1201-11.5699,2.28-20.23-1.5699-46.95-1.03-7.19-1.9501-13.6-2.7201-19.2401,12.42,13.47,22.9001,28.61,28.67,45.89,7.2301,21.64,5.8099,47.45-8.96,64.84Z"/>
      <path class="cls-2" d="M602.9451,317.4186c-13.6801,16.12-35.6,22.1-56.2201,26.74-55.8599,12.58-114.3799,21.49-170.0299,8.04-20.8199-5.02-41.5-13.54-56.4-28.92-9.49-9.79-16.2-22.04-20.03-35.15,2.49,5.52,6.03,11.89,11.2599,18.4,1.88,2.35,8.1201,9.88,18,16.83,7.5601,5.33,19.0801,11.6,46.17,16.57,36.67,6.71,66.9501,4.67,82.96,2.86,11.7401-1.32,6.13-1.46,40.17-7.04,43.9299-7.2,56.6399-7.52,73.83-18,16.35-9.97,22.89-20.67,24.52-23.48,7.49-12.88,8.12-25.37,8.35-31.04.77-19.7-6.26-32.52-8.72-39.85,6.36,9.01,11.6,18.71,15.1,29.2,7.2301,21.64,5.8099,47.45-8.96,64.84Z"/>
      <path class="cls-4" d="M371.2675,30.5247c-15.3613-1.2642-30.9387.0696-45.8348,4.0342-35.1802,9.3633-65.1378,32.4837-99.4081,44.7665-10.4925,3.7606-21.3782,6.5001-31.4942,11.1803-16.172,7.482-38.2013,28.4818-19.2998,45.6757,6.4933,5.9067,15.4564,8.2066,24.1372,9.5083,22.8956,3.433,46.612,1.2531,68.4981-6.296,20.3202-7.0089,38.7743-18.4348,58.1301-27.783,19.3558-9.3482,40.5255-16.7642,61.9337-14.8357,8.2382.7421,16.5493,1.6702,24.4672-.7224,7.9082-2.3897,15.4511-9.1435,17.8212-16.7376,2.5283-8.1003-.5892-19.2316-4.5644-26.7287-4.1951-7.9116-12.9425-12.2103-21.4046-15.1404-10.6449-3.686-21.7555-5.9974-32.9816-6.9212Z"/>
      <path class="cls-4" d="M140.5081,135.906c-4.0037-3.7866-8.2587-5.2275-10.336-5.9063-10.5158-3.4361-19.9915.3727-24.258,1.2656-6.779,1.4188-14.0712.8885-25.4278,9.3891-10.106,7.5645-12.8673,14.9323-14.8615,19.7204-3.1112,7.47-13.1041,14.0983-14.3438,26.1564-.4282,4.1651-1.4359,13.9655,5.2735,20.4611,7.8987,7.647,20.1164,4.5404,21.3048,4.2188,5.2011-1.4075,8.3893-4.243,14.7657-9.9141,8.8146-7.8396,8.2712-10.4173,15.3985-15.3985,5.1138-3.5739,10.0396-5.4941,14.3438-7.1719,8.7327-3.4041,9.8232-2.2521,15.1876-5.0625,3.5937-1.8828,12.0443-6.31,13.2892-13.922.5535-3.3847-.6857-6.3346-3.1641-12.2345-1.7251-4.1066-3.3586-7.9951-7.1719-11.6016Z"/>
      <path class="cls-4" d="M52.7479,221.0424c-3.4834-.6537-7.2189-1.3547-10.4415.3164-6.0896,3.1578-6.2562,12.6642-6.3282,16.7696-.0947,5.4024-.2328,13.2844,5.3789,16.7696,4.7565,2.9541,11.2464,1.2605,15.1876-1.582,6.6046-4.7634,8.1185-14.3069,6.0117-18.9845-.6086-1.3513-1.8778-3.0933-2.7422-6.4337-.546-2.1103-.443-2.9746-1.2657-4.1133-.3839-.5313-1.5651-1.9473-5.8008-2.7422Z"/>
    </g>
  </g>
</svg>