<?xml version="1.0" encoding="UTF-8"?>
<svg id="Capa_2" xmlns="http://www.w3.org/2000/svg" viewBox="0 0 908.2904 466.7463">
  <defs>
    <style>
      .cls-1 {
        fill: #d68783;
      }

      .cls-2 {
        fill: #ce7c74;
      }

      .cls-3 {
        fill: #db9c95;
      }

      .cls-4 {
        fill: #cc8c87;
      }

      .cls-5 {
        fill: #a86260;
      }

      .cls-6 {
        fill: #bf6c67;
      }

      .cls-7 {
        fill: #edb0a9;
      }

      .cls-8 {
        fill: #e8a79e;
      }

      .cls-9 {
        fill: #f7cbc9;
      }
    </style>
  </defs>
  <g id="Capa_1-2" data-name="Capa_1">
    <g>
      <g>
        <path class="cls-8" d="M888.8349,305.8786c-7.6101,38.47-24.23,76.1201-52.6801,103.11-48.5599,46.06-116.9,29.31-178.12,34.5-110.6899,9.39-440.95,12.52-512.95,0-35.33-6.14-66.39-26.14-89.0601-52.13-9.52-10.9-17.56-22.86-23.8199-35.3-4.45-8.86-8.02-18.26-10.72-28.04-19.08-69.07,4.81-156.68,60.7-200.48,32.7-25.63,74.37-34.03,112.31-48.76,45.24-17.57,87.12-42.02,134.9001-52.69,47.25-10.55,96.0199-10.81,144.1899-11.04,49.5699-.23,100.22-.29,147.1299,15.7,36.3201,12.37,68.5601,33.65,102.4701,51.1299,15.0499,7.75,31.08,13.2401,47.0699,18.7401,15.8201,5.45,31.6001,10.91,46.3601,18.6,3.45,1.8,6.84,3.72,10.1599,5.79,21.1001,13.14,36.5901,30.92,47.29,51.31,20.22,38.53,23.3301,86.33,14.77,129.56Z"/>
        <path class="cls-9" d="M489.9943,15c44.2717,0,88.9756,1.519,130.7205,15.7488,36.3201,12.3699,68.5601,33.6499,102.4702,51.1299,15.0498,7.75,31.0798,13.24,47.0698,18.74,15.8201,5.45,31.6001,10.9099,46.3601,18.6001,3.45,1.7998,6.8401,3.72,10.1599,5.7898,21.1001,13.1401,36.5901,30.9202,47.29,51.3101,20.22,38.53,23.3301,86.3301,14.77,129.5601-7.6101,38.47-24.23,76.1201-52.6799,103.1101-32.2974,30.6345-73.345,33.4844-115.2275,33.4844-9.5703,0-19.1948-.1487-28.7581-.1489-11.5103,0-22.936.2151-34.1345,1.1646-59.2363,5.0251-181.3726,8.2576-293.1409,8.2576-97.0835,0-186.3403-2.4377-219.8091-8.2576-35.3298-6.1401-66.3899-26.1401-89.0601-52.1301-9.5198-10.8999-17.5598-22.8599-23.8198-35.3-4.45-8.8599-8.02-18.26-10.72-28.04-19.0801-69.0698,4.8098-156.6799,60.7-200.48,32.7-25.6299,74.3699-34.03,112.3101-48.76,45.24-17.5698,87.1199-42.02,134.8999-52.6899,47.25-10.55,96.02-10.8101,144.1899-11.04,5.458-.0254,10.9316-.0486,16.4094-.0486M489.9943,0c-5.5332,0-10.9524.0232-16.4792.0488-48.3948.231-98.4355.47-147.3889,11.4001-33.1279,7.3979-63.4202,21.063-92.7151,34.2783-14.467,6.5261-29.4268,13.2744-44.3464,19.0688-10,3.8823-20.1555,7.2727-30.9075,10.8621-29.1997,9.748-59.3933,19.8276-85.2253,40.0745-29.0869,22.7949-51.6753,57.7209-63.603,98.3438-11.5898,39.4717-12.4072,81.3555-2.3022,117.9363,2.9839,10.8086,6.9456,21.1648,11.7742,30.7783,6.895,13.7021,15.6162,26.6301,25.9265,38.4348,26.5481,30.4358,61.2791,50.6963,97.7891,57.0415,42.4277,7.3774,157.5378,8.479,222.3777,8.479,115.6577,0,236.7231-3.4177,294.4087-8.3113,11.6157-.9849,23.6663-1.1108,32.8667-1.1108,4.7227,0,9.5696.0376,14.2573.074,4.7473.0369,9.6565.075,14.5007.075,43.4688,0,88.9688-2.9033,125.5503-37.6013,28.2661-26.8159,48.0012-65.2271,57.072-111.0825,4.6687-23.5781,5.9197-48.116,3.6169-70.9578-2.5432-25.2278-9.2114-48.269-19.8196-68.4832-12.5637-23.9414-30.2754-43.1433-52.6428-57.0728-3.5088-2.1875-7.2627-4.3271-11.1514-6.356-15.8918-8.2798-32.4243-13.9751-48.4124-19.4832l-.4419-.1519c-15.7859-5.4297-30.6965-10.5581-44.6465-17.7417-9.8599-5.0828-19.853-10.6484-29.5171-16.0308-23.6868-13.1921-48.1802-26.8335-74.9844-35.9624C580.7489,1.2781,534.0184,0,489.9943,0h0Z"/>
      </g>
      <path class="cls-2" d="M602.9449,317.4187c-13.6801,16.12-35.6,22.1-56.2201,26.74-55.8599,12.58-114.3799,21.49-170.0299,8.04-20.8199-5.02-41.5-13.54-56.4-28.92-9.49-9.79-16.2-22.04-20.03-35.15-1.8-6.1299-2.97-12.45-3.51-18.8-.34-4.03-.46-8.06-.35-12.07,1.38-52.59,40.2301-102,89.4-119.18,30.6599-10.71,64.8101-9.14,95.71.88.3801.13.76.25,1.14.38,31.2001,10.36,59.2001,28.93,83.7001,50.85,5.84,5.22,11.53,10.7,16.8799,16.5,4.8801,5.29,9.4601,10.85,13.5701,16.69,6.36,9.01,11.6,18.71,15.1,29.2,7.2301,21.64,5.8099,47.45-8.96,64.84Z"/>
      <path class="cls-3" d="M888.8349,305.8786c-7.6101,38.47-24.23,76.1201-52.6801,103.11-48.5599,46.06-116.9,29.31-178.12,34.5-110.6899,9.39-440.95,12.52-512.95,0-50.15-8.72-91.71-45.36-112.88-87.43-4.45-8.86-8.02-18.26-10.72-28.04,46.1243,61.4705,77.3135,70.313,111.8635,80.2531,66.64,19.1801,141.1066.2369,237.5266-.783,32.6499-.34,134.8899-1.42,207.7799-21.13,9.2401-2.5,34.02-9.62,69.26-16.43,39.16-7.57,42.9801-5.43,63.39-10.57,19.79-4.99,41.7418-21.5557,75.5217-55.6957,9.9601-10.07,44.5582-29.4791,47.4783-77.7391,1.6-26.37-1.6344-50.2357-7.3043-64.6956-6.24-15.9301-2.6957-31.3896-10.3856-42.0096,3.45,1.8,6.84,3.72,10.1599,5.79,60.96,37.96,75.15,114.77,62.0601,180.87Z"/>
      <path class="cls-4" d="M888.8349,305.8786c-7.6101,38.47-24.23,76.1201-52.6801,103.11-48.5599,46.06-116.9,29.31-178.12,34.5-110.6899,9.39-440.95,12.52-512.95,0-35.33-6.14-66.39-26.14-89.0601-52.13,8.3,4.81,17.86,10.02,28.8,15.35,16.18,7.88,47.67,23.03,85.31,31.3,26.22,5.77,34.43,3.58,128.34,2.35,60.23-.79,52.7.16,107.22-.78,56.51-.98,84.76-1.47,119.74-3.92,31.59-2.2,59.4301-4.15,97.0399-10.17,46.4202-7.43,44.3401-10.92,76.7001-14.09,44.53-4.35,56.26,1.5,80.61-10.17,25.8601-12.4,42.28-33.22,43.8201-35.22,5.3899-6.97,9.03-13.37,15.6599-25.04,1.51-2.67,12.48-22.07,19.5601-39.13,17.1799-41.38,17.96-84.57,18-88.44.1399-13.7-1.02-26.09-2.76-37.08,20.22,38.53,23.3301,86.33,14.77,129.56Z"/>
      <path class="cls-1" d="M359.131,160.3804c4.5656-6.6272,12.05-13.1356,28.5653-18.9782,23.5005-8.3139,43.4819-7.566,54.5869-7.0435,13.3789.6295,20.528,2.7675,34.826,7.0435,7.5529,2.2588,13.8187,4.6528,16.8262,10.5652.3374.6634,3.3053,6.7096.5869,11.7391-3.1987,5.9183-12.0361,6.2943-15.8479,6.4565-7.4689.3178-11.0963-1.9715-22.6956-5.2826-.0001,0-8.4031-2.3988-18.7826-4.3044-12.8973-2.3679-25.5322-4.6875-40.5-.9782-9.3384,2.3142-15.4158,3.8203-21.1305,8.8044-1.7433,1.5204-4.0723,3.9047-8.2174,5.6739-3.5688,1.5232-10.4825,3.4437-12.7174.7826-2.9471-3.5093,3.6753-13.2811,4.5-14.4783Z"/>
      <path class="cls-1" d="M352.6092,180.0108c-1.1317-1.7004-3.5018-1.9575-4.6957-2.0869-4.1866-.4541-7.4923,2.0333-8.7391,3-1.2931,1.0026-1.3376,1.3522-5.4781,6.6522-2.5612,3.2784-3.8418,4.9175-5.3479,6.6522-3.3427,3.85-3.8147,3.7685-5.3478,6-2.0852,3.0351-3.8314,5.5767-3.1305,8.4783.6763,2.7998,3.4304,5.1039,6.2609,5.4782,4.2457.5615,7.5876-3.3611,9.3914-5.4782,3.79-4.4485,2.2198-6.3124,5.7391-10.8261,3.6292-4.6547,6.093-3.6912,9.2609-8.6087.7773-1.2067,4.0581-6.2993,2.0869-9.2609Z"/>
      <path class="cls-1" d="M316.0875,221.4239c-1.9033-.9204-5.8763,3.6-7.4348,5.6739-4.0616,5.405-4.2806,10.9042-4.3044,12.1304-.0392,2.0228-.1567,8.0923,2.7391,9.1956,2.4645.939,6.1179-2.0979,7.826-5.0869,1.1227-1.9646,1.0653-3.3139,1.3696-9.587.4821-9.9363.8811-11.8054-.1957-12.3261Z"/>
      <path class="cls-6" d="M602.9449,317.4187c-13.6801,16.12-35.6,22.1-56.2201,26.74-55.8599,12.58-114.3799,21.49-170.0299,8.04-20.8199-5.02-41.5-13.54-56.4-28.92-13.93-14.37-21.85-34.01-23.54-53.95-.34-4.03-.46-8.06-.35-12.07,9.28,11.27,22.9601,34.52,52.6801,49.53,28.49,14.41,58.4199,14.53,79.83,14.61,19.08.08,12.9801-2.23,57.91-6.26,47.0601-4.21,62.05-2.41,79.3101-15.13,4.46-3.29,16-12.02,21.3899-27.13,4.1201-11.5699,2.28-20.23-1.5699-46.95-1.03-7.19-1.9501-13.6-2.7201-19.2401,12.42,13.47,22.9001,28.61,28.67,45.89,7.2301,21.64,5.8099,47.45-8.96,64.84Z"/>
      <path class="cls-5" d="M602.9449,317.4187c-13.6801,16.12-35.6,22.1-56.2201,26.74-55.8599,12.58-114.3799,21.49-170.0299,8.04-20.8199-5.02-41.5-13.54-56.4-28.92-9.49-9.79-16.2-22.04-20.03-35.15,2.49,5.52,6.03,11.89,11.2599,18.4,1.88,2.35,8.1201,9.88,18,16.83,7.5601,5.33,19.0801,11.6,46.17,16.57,36.67,6.71,66.9501,4.67,82.96,2.86,11.7401-1.32,6.13-1.46,40.17-7.04,43.9299-7.2,56.6399-7.52,73.83-18,16.35-9.97,22.89-20.67,24.52-23.48,7.49-12.88,8.12-25.37,8.35-31.04.77-19.7-6.26-32.52-8.72-39.85,6.36,9.01,11.6,18.71,15.1,29.2,7.2301,21.64,5.8099,47.45-8.96,64.84Z"/>
      <path class="cls-7" d="M371.2673,30.5249c-15.3613-1.2642-30.9387.0696-45.8348,4.0342-35.1802,9.3633-65.1378,32.4837-99.4081,44.7665-10.4925,3.7606-21.3782,6.5001-31.4942,11.1803-16.172,7.482-38.2013,28.4818-19.2998,45.6757,6.4933,5.9067,15.4564,8.2066,24.1372,9.5083,22.8956,3.433,46.612,1.2531,68.4981-6.296,20.3202-7.0089,38.7743-18.4348,58.1301-27.783,19.3558-9.3482,40.5255-16.7642,61.9337-14.8357,8.2382.7421,16.5493,1.6702,24.4672-.7224,7.9082-2.3897,15.4511-9.1435,17.8212-16.7376,2.5283-8.1003-.5892-19.2316-4.5644-26.7287-4.1951-7.9116-12.9425-12.2103-21.4046-15.1404-10.6449-3.686-21.7555-5.9974-32.9816-6.9212Z"/>
      <path class="cls-7" d="M140.508,135.9062c-4.0037-3.7866-8.2587-5.2275-10.336-5.9063-10.5158-3.4361-19.9915.3727-24.258,1.2656-6.779,1.4188-14.0712.8885-25.4278,9.3891-10.106,7.5645-12.8673,14.9323-14.8615,19.7204-3.1112,7.47-13.1041,14.0983-14.3438,26.1564-.4282,4.1651-1.4359,13.9655,5.2735,20.4611,7.8987,7.647,20.1164,4.5404,21.3048,4.2188,5.2011-1.4075,8.3893-4.243,14.7657-9.9141,8.8146-7.8396,8.2712-10.4173,15.3985-15.3985,5.1138-3.5739,10.0396-5.4941,14.3438-7.1719,8.7327-3.4041,9.8232-2.2521,15.1876-5.0625,3.5937-1.8828,12.0443-6.31,13.2892-13.922.5535-3.3847-.6857-6.3346-3.1641-12.2345-1.7251-4.1066-3.3586-7.9951-7.1719-11.6016Z"/>
      <path class="cls-7" d="M52.7477,221.0425c-3.4834-.6537-7.2189-1.3547-10.4415.3164-6.0896,3.1578-6.2562,12.6642-6.3282,16.7696-.0947,5.4024-.2328,13.2844,5.3789,16.7696,4.7565,2.9541,11.2464,1.2605,15.1876-1.582,6.6046-4.7634,8.1185-14.3069,6.0117-18.9845-.6086-1.3513-1.8778-3.0933-2.7422-6.4337-.546-2.1103-.443-2.9746-1.2657-4.1133-.3839-.5313-1.5651-1.9473-5.8008-2.7422Z"/>
    </g>
  </g>
</svg>