<?xml version="1.0" encoding="UTF-8"?>
<svg id="Capa_2" xmlns="http://www.w3.org/2000/svg" viewBox="0 0 629.3952 638.9973">
  <defs>
    <style>
      .cls-1 {
        fill: #3383aa;
      }

      .cls-2 {
        fill: #599dd1;
      }

      .cls-3 {
        fill: #9cd1f2;
      }

      .cls-4 {
        fill: #1e86c6;
      }

      .cls-5 {
        fill: #2d9cd3;
      }

      .cls-6 {
        fill: #0476af;
      }

      .cls-7 {
        fill: #4291c1;
      }

      .cls-8 {
        fill: #86bfea;
      }

      .cls-9 {
        fill: #6cace4;
      }
    </style>
  </defs>
  <g id="Capa_1-2" data-name="Capa_1">
    <g>
      <g>
        <path class="cls-9" d="M196.8251,634.9902c-1.0469,0-2.0918-.0552-3.1934-.1694-4.4014-.4492-15.3213-2.4224-21.6016-11.0103-4.0508-5.5151-3.9961-10.624-3.9385-16.0327.0273-2.5352.0547-5.1567-.3311-8.1143-2.4365-18.7271-18.8242-31.1445-20.6846-32.499-8.3418-6.0874-15.4727-6.2441-23.0225-6.4097-7.8398-.1724-15.9482-.3506-25.0508-6.7764-.4482-.3213-.8828-.6377-1.3086-.9648-7.3809-5.6431-11.5684-13.3018-17.6367-27.3057-.9082-2.0767-1.8613-4.3193-2.8818-6.7222l-.6895-1.6221c-4.9834-11.7461-6.7139-18.9336-8.1055-24.7085-1.4897-6.186-2.4736-10.2729-6.8218-16.9292-4.8037-7.3525-8.7271-10.2192-12.8804-13.2539-4.4751-3.27-9.1021-6.6509-14.1909-15.0386-3.627-5.9712-5.873-12.2671-7.6592-21.5366-1.5527-1.8809-3.2749-4.0396-5.3101-6.5972-5.7593-7.2437-9.2349-11.6147-10.2002-17.0547-.6748-3.7803-.248-7.5684,4.0698-20.0137,2.3037-6.627,4.1582-11.9634,5.9067-15.9019-.2046-3.6401-.7607-7.479-2.4927-13.5205-1.4102-4.9077-2.8359-8.6221-4.0938-11.8994-2.5356-6.606-4.5386-11.8242-3.3291-20.0479.8154-5.5107,2.5908-9.2275,4.1572-12.5073,1.8193-3.8096,3.3906-7.0996,3.6338-13.1602.332-8.4473-2.2715-15.9438-3.8535-19.6602-2.1899-5.1021-4.4043-7.7524-6.3584-10.0908-2.3643-2.8306-4.5981-5.5039-4.9136-10.5273-.8706-13.7573,14.1304-24.3208,15.8438-25.48,5.6611-3.8828,10.0698-4.6372,13.6128-5.2437,3.3154-.5674,5.9341-1.0151,9.5894-3.9585,6.2583-5.0249,10.4839-13.1719,10.769-20.7593.0786-2.0493-.147-2.9902-.4595-4.2925-.3599-1.501-.8076-3.3687-.7114-6.6348.2427-8.2202,3.5649-16.3936,9.874-24.2935,5.1636-6.4727,10.3696-9.6333,14.5532-12.1724,4.7275-2.8701,7.0518-4.4253,8.2129-8.377.3896-1.3267.4014-2.1079.4199-3.29.0273-1.7139.0615-3.8462,1.1289-7.6206,1.8799-6.5503,4.9375-12.2129,9.0938-16.8452,3.3086-3.6924,5.8496-5.0103,8.793-6.5361,2.6172-1.3579,5.875-3.0474,11.3018-7.2627,7.0762-5.4951,8.2207-7.8135,8.7871-9.7178.8506-2.8486.7041-6.3682.6172-8.4712-.0928-2.3945-.3496-3.7148-.6201-5.1125-.2158-1.1104-.4385-2.2585-.5439-3.7766-.4121-5.825,1.3311-12.1045,4.9092-17.676.8076-1.2437,8.0107-11.8132,20.8447-13.5713,1.0703-.1465,2.0703-.2175,3.0596-.2175,4.2432,0,7.3076,1.3289,10.8564,2.8674,3.4824,1.5098,7.8164,3.3887,15.1807,4.8164,3.5254.6863,9.1807,1.5034,16.1221,1.5034.3516,0,.7061-.002,1.0654-.0066,8.8057-.1062,16.4092-.1978,24.3145-4.5864,4.1826-2.3206,8.8926-4.9336,11.2363-9.9365.4844-1.0325.7637-1.9412,1.0596-2.9031.5977-1.9417,1.2754-4.1423,3.4629-6.6445,3.6777-4.1858,8.2734-5.5112,12.3291-6.6807,2.498-.7239,5.6045-1.6243,9.125-1.6243,1.9668,0,3.8887.2883,5.7139.8564,2.3613.7441,3.5156,1.6255,4.6318,2.4778.6826.5208,1.3877,1.0593,2.6621,1.7766,1.4473.8127,6.6484,3.4717,12.6465,3.4717,1.1006,0,2.1797-.0925,3.2061-.2751,1.9365-.344,4.1689-1.5562,8.6162-3.9712l.0889-.0483c5.0186-2.7144,10.4648-6.2874,16.1875-10.6201,2.7861-2.1116,4.6543-3.6567,6.1553-4.8984,3.0498-2.522,4.7295-3.9116,8.1621-4.6858,1.4346-.324,2.9258-.4883,4.4307-.4883,5.7197,0,10.3584,2.3101,12.5869,3.4207,7.0264,3.4778,10.4893,8.2722,13.0186,11.7729,2.3311,3.2271,3.3047,4.3687,5.0732,4.5093.1309.0105.25.0154.3672.0154,1.043,0,1.9199-.4116,3.5068-1.2007,2.335-1.1611,5.5332-2.7515,10.6855-2.7515.3008,0,.6074.0054.9238.0164,3.9551.1423,6.9404,1.1121,8.917,1.7537,5.0977,1.6738,7.8115,3.7344,9.9922,5.3901,1.8252,1.3857,3.0303,2.3015,5.3789,2.8804.793.197,1.6016.2881,2.5518.2881,2.1279,0,4.9082-.448,9.1152-1.1262,4.2197-.6816,6.1729-1.3591,7.7412-1.9038,1.7275-.5994,3.3584-1.1655,6.3477-1.2817.3633-.0142.7246-.021,1.082-.021,11.4033,0,19.7549,6.9448,21.3135,8.3369,2.832,2.5586,3.8506,4.4939,4.749,6.2014.7227,1.3743,1.4062,2.6724,3.3447,4.7588,5.832,6.2783,13.0469,8.8228,16.1289,9.9092,5.2402,1.8376,8.8887,2.0676,12.1084,2.2708,4.0254.2539,7.8281.4937,11.377,4.2114,3.3047,3.4768,3.4629,6.9736,3.5908,9.7834.1006,2.2107.1865,4.1201,1.6533,6.6089,3.8252,6.4829,12.6387,8.9839,21.3379,10.9897,0,0,1.5928.3589,1.9561.4438,4.7725,1.0869,7.2852,1.1782,9.2627,1.1782l2.0303-.0127c2.5508,0,4.8545.2061,8.4502,1.2319l.0977.0288c.3564.1055,1.3057.3857,2.6641.8726,6.7295,2.4399,22.8369,9.6973,27.3701,24.4663,1.6201,5.3037.8037,8.6362-.0605,12.1641-.7793,3.1812-1.749,7.1396-1.3398,14.6226.125,2.2339.2217,2.603.8496,5.0054.7168,2.7373,2.0498,7.8325,4.5566,20.251l.1914.9502c1.7617,8.7632,2.6865,12.752,6.1699,15.459.542.4219.6387.4604,1.8262.9341.8867.353,2.1006.8369,4.0244,1.7124,9.0752,4.1289,15.5762,7.0874,20.2402,12.8721,6.4268,7.9536,6.4297,17.2974,6.3652,19.0898-.1807,5.1577-1.7979,7.9443-3.5098,10.8945-1.2959,2.2324-2.7637,4.7627-4.0898,9.2715-1.5283,5.2119-3.8281,13.0586-.8975,20.4771.7295,1.8442,1.4033,2.7446,2.3359,3.9917,1.1875,1.5869,2.666,3.562,4.1943,7.5156.8281,2.1348,3.3555,8.6465,2.8721,16.5596-.3701,6.0776-2.2646,9.897-3.7871,12.9653-1.4785,2.9785-2.0566,4.2749-1.5342,6.4731.2715,1.1313.4961,1.3564,1.5762,2.4375,1.2725,1.2734,3.0146,3.0171,5.0742,6.7061,4.998,8.9775,5.3994,17.7803,5.1934,22.2285-.3594,8.2109-3.207,14.3311-4.2783,16.6353-2.332,5.0117-4.8711,7.8652-6.9111,10.1582-2.1348,2.3989-3.3115,3.7207-3.7109,6.687-.2812,2.085-.0752,3.2275.2676,5.1201.335,1.8506.751,4.1538.8174,7.8428.1719,9.9634-2.4141,17.5303-4.915,24.8477-2.4424,7.1475-4.3838,10.397-5.8018,12.7695-1.2637,2.1157-1.8984,3.1777-2.377,6.3525-.6787,4.4961-.1387,7.6084.3838,10.6182.6836,3.9429,1.3916,8.02-1.334,13.1138-1.8213,3.4077-3.9736,4.9624-5.7031,6.2119-1.583,1.1436-2.834,2.0464-4.1699,4.6685-.5908,1.1494-3.4072,7.0991-1.3916,12.4204.4561,1.1963.8164,1.5889,2.4414,3.2456.9287.9473,2.084,2.126,3.6152,3.873l.0801.0923c7.2773,8.3516,12.085,13.8687,10.7305,20.0996-1.8047,8.3481-13.627,11.4136-20.5127,12.4971-1.71.2725-3.2891.4058-4.8193.4058-1.8486,0-3.4355-.1885-5.1162-.3877-2.0518-.2432-4.3779-.519-7.8691-.519-.6299,0-1.2979.0088-2.0078.0283-7.5264.2041-10.9287.2964-14.8359,1.8179-7.8848,3.0596-15.125,10.5889-18.0186,18.7378-.2998.8335-.5508,1.6694-.8174,2.5542-.7783,2.5864-1.6602,5.5176-3.957,9.3677-1.4072,2.3721-3.8584,5.9131-7.5195,9.2559-3.7295,3.4058-6.4561,4.5659-11.8887,6.877-2.1943.9336-4.9248,2.0952-8.4502,3.7148-11.0176,5.0767-12.8193,6.8159-14.0303,8.562-2.1514,3.1069-2.7188,6.4395-2.9922,8.0405-.5635,3.3198-.1797,5.5176.2256,7.8438.4951,2.8398,1.0566,6.0581-.3623,10.4536-.7686,2.3813-2.7139,6.8833-7.0967,10.2852-2.4912,1.9272-6.7041,4.146-17.2949,4.2314l-.5049.0015c-6.0059,0-10.0586-.7251-22.0908-2.8784l-.3125-.0557c-9.5654-1.7148-14.4453-2.5786-16.3105-2.8491-6.7236-.9707-12.1289-1.4634-16.0635-1.4634-3.9932,0-5.3232.4951-5.9629.7329-1.2998.4834-1.8652.833-2.9932,1.5298-1.4297.8838-3.3887,2.0938-7.6602,4.0864l-.1221.0566c-2.6104,1.2095-7.4707,3.4609-12.1807,4.8462-1.4219.417-5.7373,1.6826-14.6719,1.6826-2.1299,0-4.415-.0728-6.791-.2168-8.5254-.5215-13.8135-1.6846-17.6738-2.5342-2.7334-.6016-4.709-1.0356-6.7598-1.0356-1.3525,0-2.7383.187-4.3604.5894-2.5234.6211-3.6221,1.2554-5.1426,2.1338-1.7979,1.0381-4.0352,2.3301-8.5908,3.5806-4.5615,1.248-9.0527,1.8286-14.1387,1.8286-2.4209,0-5.0078-.127-8.1406-.4004-11.9961-1.0435-18.3252-3.4004-22.9473-5.1216-3.4873-1.2988-5.792-2.1572-9.292-2.1572-1.0234,0-2.1045.0732-3.3066.2231-10.9141,1.353-27.1094,7.0493-33.2061,9.1938-1.2676.4443-2.4424.8667-3.5479,1.2642-6.1357,2.2065-10.5693,3.8008-16.1309,3.8008Z"/>
        <path class="cls-3" d="M330.3732,8.0146c4.7518,0,8.7788,1.9932,10.8009,3.0002,12.0801,5.98,11.88,16.0798,19.5601,16.6899.2344.019.4626.0281.6843.0281,4.6245,0,6.6785-3.9521,14.1921-3.9521.255,0,.5155.0046.7834.0139,3.3401.1201,5.88.9302,7.8201,1.5601,8.65,2.8401,9.16,6.75,15.65,8.3501,1.1285.2803,2.2566.4045,3.5109.4045,2.4579,0,5.4027-.4761,9.7991-1.1846,8.85-1.4299,8.67-2.9399,13.5601-3.1301.3113-.0122.6205-.0181.927-.0181,10.3114,0,17.9146,6.6675,18.6429,7.3181,4.4401,4.01,3.08,5.5901,7.83,10.7,6.38,6.8701,14.1001,9.6802,17.7301,10.9602,12.3199,4.3198,17.2799.6099,21.9199,5.47,4.41,4.6399.63,8.77,4.6901,15.6599,4.72,8,14.74,10.75,23.89,12.8601.6499.1499,1.2999.2898,1.9399.4399,5.0454,1.1489,7.8781,1.2847,10.1796,1.2847.7107,0,1.371-.0129,2.03-.0129,1.9993-.0002,3.988.1187,7.3505,1.0781.2699.0801,1.1699.3401,2.51.8201,6.0399,2.1899,20.87,8.77,24.8899,21.8701,2.6101,8.54-2.45,9.77-1.5699,25.8298.3101,5.5601.75,2.4001,5.48,25.8301,1.85,9.1799,2.85,14.9099,7.8301,18.78,1.6299,1.27,1.99,1.01,6.6499,3.1299,8.9,4.05,14.7001,6.6802,18.78,11.74,5.6801,7.03,5.51,15.5901,5.48,16.4302-.27,7.72-4.27,8.3999-7.4399,19.1799-1.6,5.46-4.22,14.3701-.78,23.0801,1.99,5.03,4.03,5.04,6.52,11.48.9199,2.3699,3.03,8,2.61,14.8699-.66,10.8401-6.9301,13.4202-5.22,20.6101,1.0399,4.3398,3.36,3.5601,7.0499,10.1699,4.86,8.73,4.8201,17.26,4.6901,20.0901-.3201,7.29-2.77,12.6799-3.91,15.1299-4.55,9.78-9.92,10.29-10.96,18-.6801,5.05.9199,6.3,1.0499,13.5701.16,9.25-2.26,16.3401-4.7,23.48-4.63,13.55-7.16,11.9399-8.35,19.8201-1.6901,11.21,3.3099,15.28-.52,22.4399-2.9301,5.48-6.54,4.3401-9.91,10.95-.73,1.4202-4.22,8.6602-1.5699,15.6602,1.1799,3.0898,2.5499,3.5,6.7899,8.3398,6.64,7.6201,10.8401,12.4202,9.91,16.7-1.49,6.8901-15.5699,9.1301-17.22,9.3901-1.6271.2593-2.9684.3569-4.1965.3569-3.7434,0-6.4388-.9067-12.9851-.907-.6649,0-1.3689.0095-2.1184.03-7.74.21-11.61.3101-16.1799,2.0901-9.02,3.5-17.0901,11.98-20.3401,21.1299-1.21,3.3701-1.6299,6.5-4.4399,11.21-.99,1.6702-3.21,5.0901-6.78,8.3501-4.6,4.2-7.34,4.4099-19.3099,9.9099-11.5901,5.3401-13.91,7.4102-15.65,9.9202-2.61,3.7698-3.3201,7.72-3.65,9.6499-1.41,8.3101,2.15,11.0801,0,17.74-.41,1.27-1.9,5.3699-5.74,8.3501-1.59,1.23-4.9301,3.3098-14.87,3.3899-.1586.001-.3167.0017-.4724.0017-5.6998,0-9.6761-.7205-21.6976-2.8718-9.6499-1.73-14.51-2.5898-16.4399-2.8699-7.856-1.1343-13.0863-1.5049-16.6399-1.5049-4.4982,0-6.3099.5938-7.3601.9849-3.58,1.3301-3.34,2.1899-10.9501,5.74-2.59,1.2-7.25,3.3701-11.74,4.6899-1.5391.4514-5.4946,1.5195-13.5399,1.5195-1.9384,0-4.1134-.0618-6.55-.2095-14.3583-.8782-18.8662-3.5767-24.6758-3.5769-1.5989-.0002-3.2955.2041-5.3242.707-6.34,1.5598-5.96,3.5798-13.83,5.74-4.483,1.2261-8.6685,1.6855-13.0769,1.6855-2.4948,0-5.061-.1472-7.7931-.3857-20.4305-1.7769-22.9771-7.2935-32.5865-7.2935-1.1521,0-2.4054.0791-3.8035.2537-11.29,1.3999-27.5,7.0898-34.04,9.3899-8.0568,2.8242-12.572,4.8381-18.349,4.8381-.8914,0-1.8119-.0479-2.781-.1482-1.86-.1899-12.87-1.3101-18.78-9.3899-4.95-6.74-2.2899-12.8-3.5299-22.3-2.67-20.52-20.5-33.9099-22.3-35.22-18.17-13.26-31.42-1.4299-48.12-13.22-.39-.28-.79-.5701-1.1801-.8701-6.84-5.23-10.71-12.5898-16.4-25.72-1.11-2.54-2.28-5.3101-3.56-8.3201-10.31-24.2998-6.33-28.5898-15.26-42.26-10.46-16.01-17.7-12.8499-27-28.1799-3.7-6.0898-5.72-12.45-7.34-21.22-1.73-2.0701-3.66-4.49-5.92-7.3301-5.74-7.22-8.62-10.9199-9.39-15.26-.47-2.6299-.43-5.49,3.91-18,2.52-7.25,4.42-12.6899,6.17-16.4399-.18-4.3599-.76-8.6699-2.69-15.3999-4.35-15.1401-8.9-19.45-7.31-30.26,1.62-10.95,7.33-13.6101,7.83-26.0901.37-9.4099-2.51-17.49-4.17-21.3899-5.04-11.74-10.51-12.1401-10.96-19.3-.73-11.53,12.76-21.01,14.09-21.9099,10.09-6.9202,14.69-2.3301,23.47-9.4001,6.9-5.54,11.92-14.6899,12.26-23.73.2-5.21-1.33-5.51-1.17-10.96.3199-10.8301,6.66-18.98,9-21.9099,10.14-12.7102,20.39-11.4102,23.48-21.9202,1.19-4.0601-.14-4.9399,1.5601-10.95.6-2.0901,2.64-9.04,8.22-15.26,5.52-6.1599,7.88-4.23,19.5699-13.3101,7.3401-5.7,9.26-8.6799,10.17-11.74,1.03-3.45.88-7.3799.78-9.78-.1801-4.6399-.9601-5.97-1.17-9-.5499-7.77,3.53-14.0598,4.3-15.26.39-.5999,6.83-10.21,18-11.74.9003-.1233,1.7319-.1804,2.5154-.1804,7.1005,0,10.27,4.7017,25.2745,7.6106,2.1646.4214,8.5316,1.5767,16.8846,1.5767.3684,0,.7395-.0022,1.1154-.0068,9.1101-.1099,17.42-.21,26.2101-5.0898,4.47-2.48,10.02-5.55,12.9199-11.74,1.64-3.5,1.3401-5.6702,3.91-8.6101,2.9-3.3,6.65-4.3799,10.4301-5.47,2.3579-.6833,5.0615-1.4653,8.0082-1.4653,1.4523,0,2.9635.1899,4.5217.6753,2.92.9202,2.9501,1.9102,6.52,3.9202,1.1074.6218,7.2811,3.9871,14.6121,3.9871,1.2748,0,2.5836-.1016,3.908-.3372,2.59-.46,5.03-1.79,9.91-4.4399,3.4199-1.8501,9.0399-5.1501,16.7-10.9502,8.47-6.4199,9.01-8.0198,12.78-8.8699,1.213-.2742,2.4023-.3901,3.5491-.3901M330.3732,0c-1.8026,0-3.5911.1975-5.3156.5874-4.365.9841-6.6586,2.8813-9.833,5.5073-1.4717,1.2173-3.3031,2.7322-6.0219,4.7927-5.5537,4.2053-10.8276,7.6675-15.6721,10.2883l-.0886.0481c-3.8125,2.0701-6.1135,3.3196-7.4094,3.5498-.798.1418-1.6407.2136-2.5065.2136-5.1548,0-9.8074-2.4661-10.6876-2.9604-1.0228-.5759-1.5631-.9883-2.1888-1.4658-1.548-1.1814-3.0564-2.231-5.8467-3.1104-2.2368-.6968-4.5599-1.0459-6.9307-1.0459-4.0898,0-7.6439,1.03-10.239,1.7822-4.3531,1.2554-9.7742,2.8186-14.2195,7.8772-2.7627,3.1604-3.6445,6.0254-4.2886,8.1177-.2756.8955-.4934,1.603-.8586,2.3823-1.7936,3.8289-5.7235,6.009-9.524,8.1177-7.0488,3.9131-13.8428,3.9951-22.4443,4.0989-.3464.0042-.6842.0063-1.0194.0063-6.6216,0-12.0042-.7771-15.3535-1.4292-6.9401-1.3455-10.879-3.0532-14.3544-4.5601-3.6266-1.5725-7.3765-3.1982-12.4514-3.1982-1.1725,0-2.3506.0833-3.6021.2544-14.5939,1.999-22.7507,13.9556-23.6328,15.3123l-.0126.0195-.0306.0476c-4.0405,6.2944-6.0051,13.4424-5.532,20.1272.1215,1.7515.3792,3.0793.6066,4.2512.2516,1.2966.469,2.4165.5496,4.4939.078,1.8735.207,4.9722-.4512,7.176-.2466.8293-.7546,2.5378-7.4059,7.7029-5.1389,3.9915-8.0879,5.521-10.6897,6.8704-3.1545,1.6362-6.1343,3.1814-9.9335,7.4211-4.5598,5.0828-7.9101,11.2737-9.9548,18.3975-1.2186,4.3079-1.2587,6.8335-1.2879,8.6775-.0174,1.0913-.0226,1.4207-.2596,2.2292-.7021,2.3882-1.8486,3.2839-6.4467,6.0754-4.2193,2.5615-9.9978,6.0693-15.6074,13.1008-6.8606,8.5901-10.4769,17.5647-10.746,26.6714-.1116,3.8013.4271,6.0479.8205,7.6885.281,1.1719.4093,1.7068.3519,3.2009-.2401,6.3833-3.9649,13.5291-9.269,17.7878-2.8532,2.2974-4.5965,2.5957-7.7611,3.1375-3.7192.6365-8.8123,1.5081-15.2139,5.8955-3.183,2.1594-18.5536,13.4341-17.5659,29.033.3978,6.3298,3.4142,9.9404,5.8378,12.8413,1.8644,2.2317,3.7922,4.5391,5.7562,9.114,1.4402,3.3838,3.8277,10.2441,3.5262,17.9133-.2096,5.2312-1.483,7.8975-3.2455,11.5879-1.6881,3.5347-3.6014,7.5408-4.5044,13.644-1.3634,9.2693.9141,15.2029,3.5512,22.0735,1.2287,3.2012,2.6213,6.8296,3.9841,11.5728,1.4802,5.1611,2.0471,8.5894,2.2812,11.7046-1.6946,3.9729-3.467,9.0725-5.6285,15.2908-4.613,13.2969-5.0327,17.5457-4.2293,22.0413,1.1405,6.4285,4.8539,11.0994,11.006,18.8376,1.8305,2.3005,3.3348,4.1863,4.7109,5.8687,1.8524,9.2278,4.2147,15.6692,7.9733,21.8555,5.501,9.0676,10.6802,12.8521,15.2498,16.1909,4.017,2.9353,7.4861,5.4702,11.8902,12.2109,3.9689,6.0757,4.8391,9.689,6.2807,15.675,1.4254,5.9187,3.1994,13.2844,8.3108,25.3318l.6679,1.5718c1.026,2.4153,1.9951,4.6968,2.9261,6.8271,5.4774,12.6396,10.044,22.1245,18.8759,28.8774.4412.3396.9132.6831,1.3739,1.0137l.0259.0188.0259.0183c10.1022,7.1321,19.225,7.3323,27.2739,7.5088,7.4991.1648,13.4226.2949,20.744,5.6377.6936.5051,16.8181,12.4209,19.077,29.7803.3499,2.6812.3235,5.1592.2979,7.5559-.0593,5.5569-.1265,11.855,4.7198,18.4541,5.0833,6.9495,13.9883,11.5532,24.4227,12.6187,1.2317.1274,2.4113.1897,3.598.1897,6.2612,0,11.2152-1.7815,17.4873-4.0371,1.0964-.3943,2.2612-.8132,3.5129-1.252,5.9935-2.1079,21.8938-7.7,32.375-8.9998,1.042-.1299,1.9614-.1929,2.8173-.1929,2.7771.0002,4.5939.6768,7.8921,1.905,4.8365,1.801,11.4603,4.2678,24,5.3586,3.2477.2834,5.9456.4158,8.4875.4158,5.4513,0,10.2784-.626,15.1913-1.9695,5.0609-1.3892,7.6509-2.8853,9.542-3.9775,1.415-.8174,2.1254-1.2278,4.0883-1.7107,1.312-.3252,2.3909-.4751,3.4091-.4749,1.6162,0,3.3201.3748,5.899.9421,3.9895.8774,9.4532,2.0793,18.288,2.6199,2.4601.1489,4.8269.2244,7.0392.2244,9.5099,0,14.241-1.3877,15.7957-1.8435,5.0006-1.47,10.0363-3.8032,12.7416-5.0566l.1118-.0518c4.5035-2.1011,6.5776-3.3826,8.0919-4.3184,1.0409-.6431,1.3551-.8372,2.2803-1.1809.3252-.1211,1.2979-.4834,4.569-.4834,3.743,0,8.9562.4788,15.4945,1.4229,1.7963.2605,6.8557,1.1562,16.171,2.8264l.3036.0542c11.9672,2.1418,16.4449,2.9431,22.8083,2.9431l.528-.0017c11.798-.095,16.7347-2.7568,19.7185-5.0652,5.2438-4.0696,7.5525-9.407,8.4629-12.2268,1.7234-5.3386,1.0432-9.2393.4967-12.3735-.3893-2.2322-.6705-3.845-.2219-6.488.241-1.4099.693-4.0527,2.3378-6.4287.5261-.7588,1.5107-2.1792,12.4144-7.2031,3.4656-1.5923,6.1671-2.7417,8.3378-3.6653,5.4801-2.3315,8.7878-3.7388,13.0223-7.605,4.0269-3.6772,6.7201-7.5667,8.2704-10.1821,2.5388-4.2554,3.5388-7.5774,4.342-10.2466.2509-.8333.4877-1.6204.7466-2.3418,2.4965-7.0281,8.9473-13.7476,15.6963-16.3662,3.119-1.2151,5.7091-1.3391,13.4283-1.5486l.0697-.0017c.6704-.0186,1.2979-.0271,1.8905-.0271,3.2644,0,5.3708.25,7.4078.4915,1.7218.2043,3.5023.4155,5.5878.4155,1.7439,0,3.5291-.1494,5.4578-.4568,7.8853-1.2424,21.4817-4.926,23.7922-15.6108,1.7797-8.189-3.8439-14.6426-11.6273-23.5747l-.0737-.0847c-1.6187-1.8477-2.8689-3.1223-3.7816-4.0532-1.3845-1.4119-1.3912-1.4294-1.5635-1.8804-1.4368-3.7952.9354-8.6016,1.2107-9.1372.9093-1.7832,1.5092-2.2166,2.9583-3.2634,1.8447-1.3323,4.6323-3.3459,6.8915-7.5715,3.3745-6.3083,2.4723-11.5088,1.7473-15.6875-.4891-2.8191-.951-5.4819-.37-9.3364.3615-2.3931.6779-2.9229,1.8553-4.8936,1.5088-2.5251,3.5752-5.9836,6.1537-13.5298,2.4906-7.2883,5.3136-15.5491,5.1293-26.2102-.0718-4.0173-.5392-6.6018-.8805-8.489-.3176-1.7561-.4364-2.4133-.2399-3.8728.2281-1.6919.6724-2.2412,2.7329-4.5569,2.0978-2.3577,4.9707-5.5864,7.5508-11.1321,1.1633-2.5002,4.2544-9.1428,4.6503-18.1589.2231-4.8584-.2189-14.5042-5.6945-24.3401-2.3348-4.1826-4.3855-6.2349-5.7423-7.593-.1633-.1636-.3684-.3687-.509-.5166-.0023-.0095-.0046-.0193-.0071-.0293-.1688-.7097-.157-.96,1.228-3.7512,1.5945-3.2139,3.7782-7.6155,4.1976-14.5044.5374-8.7886-2.2292-15.9153-3.1384-18.2573-1.7233-4.4573-3.4548-6.7712-4.7191-8.4609-.8564-1.1445-1.2864-1.7188-1.8197-3.0669-2.4226-6.1345-.356-13.187,1.0116-17.8538,1.1947-4.0627,2.4767-6.2715,3.7164-8.4075,1.7969-3.0959,3.8335-6.605,4.0491-12.7705.0728-2.0369.0658-12.6858-7.2556-21.7471-5.2549-6.5171-12.1187-9.6404-21.6185-13.9634l-.0759-.0344c-2.0112-.915-3.3279-1.4399-4.1991-1.7871-.2747-.1094-.6063-.2417-.771-.3135-.0233-.0176-.0475-.0366-.0734-.0566-2.2614-1.7573-3.0446-4.8113-4.7085-13.0918l-.191-.9495c-2.53-12.5327-3.8822-17.6995-4.6085-20.4751-.6001-2.2927-.6235-2.3823-.7258-4.218-.3771-6.8804.4769-10.3657,1.2306-13.4409.911-3.7178,1.9436-7.9319.0018-14.2852-5.064-16.5024-22.5426-24.4226-29.8225-27.0623-1.4982-.5364-2.5256-.8398-2.9125-.9541l-.0493-.0146-.0405-.012-.0408-.0117c-4.0311-1.1501-6.7329-1.3857-9.5494-1.3857-.3489,0-.6982.0032-1.0541.0066-.3173.0032-.6405.0063-.976.0063-1.756,0-3.9958-.0835-8.3706-1.0779-.3739-.0874-.7511-.1721-1.1295-.2568-.2722-.0608-.5452-.1218-.8181-.1848-7.8517-1.8105-15.7698-4.0066-18.7885-9.123-.9589-1.6272-1.0093-2.7373-1.1006-4.7522-.1409-3.1067-.3538-7.8015-4.683-12.3564-4.6439-4.8643-9.8516-5.1926-14.036-5.4565-2.9603-.1868-6.3157-.3984-11.0413-2.0552-2.7893-.9836-9.3523-3.2979-14.5093-8.8511-1.5789-1.6985-2.0646-2.6216-2.7368-3.8992-1.0018-1.9041-2.2488-4.2734-5.5941-7.2949-1.7814-1.5913-11.1566-9.3845-24.0148-9.3845-.4095,0-.8226.0078-1.2384.0239-3.5833.1394-5.6665.8623-7.5045,1.5-1.4963.5193-3.1924,1.1079-7.0225,1.7266-3.9161.6311-6.7134,1.082-8.5208,1.082-.6239,0-1.1106-.0518-1.5782-.168-1.5582-.3843-2.2523-.9114-3.9293-2.1848-2.291-1.7397-5.4287-4.1223-11.1533-6.002-2.0809-.6755-5.5216-1.7925-10.0321-1.9546-.371-.0132-.725-.0193-1.0714-.0193-6.093,0-9.9302,1.908-12.4694,3.1704-.5747.2859-1.3452.6689-1.6726.7661-.5328-.4819-1.5101-1.8352-2.2418-2.8481-2.6176-3.6235-6.5731-9.0996-14.4972-13.0222-2.2906-1.1409-7.6951-3.8323-14.3564-3.8323h0Z"/>
      </g>
      <path class="cls-4" d="M429.5542,468.2947c-19.28,25.28-49.12,41.54-80.43,47.0801-31.31,5.54-63.92.88-93.7-10.27-44.19-16.54-83.2-47.95-106.18-89.1599-22.41-40.1801-28.77-89.5801-14.8-133.3701.35-1.1299.72-2.25,1.11-3.37,19.83-57.39,70.86-124.62,131.48-127.6,4.44-.22,8.89-.23,13.35-.02,17.79.8401,35.94,6.9,48.23,19.79,10.23,10.73,15.73,25.83,14.77,40.63-.77,11.92.21,47.58,3.83,60.5.13.4401.25.85.38,1.23,3.91,11.66,15.4,18.7101,25.88,25.15,31.39,19.3199,62.53,44.12,73.56,79.28,9.51,30.34,1.79,64.84-17.48,90.1299Z"/>
      <g>
        <path class="cls-8" d="M433.1471,273.5215c-6.6741,5.7455-16.1516,4.6952-21.7321,4.0791-5.0338-.564-6.2662-1.5969-16.299-4.9817-20.1785-6.8043-22.7388-5.1466-27.1738-9.5121-4.6433-4.5738-6.7436-11.2219-6.8738-17.5575-.0607-2.2219.1302-4.4003.5381-6.4398,2.6644-13.3222,14.6153-20.8468,23.9972-23.0947,10.8747-2.6124,19.7793,1.5188,26.2625,4.5304,2.7165,1.2584,9.2952,4.3047,15.3877,9.5381,5.624,4.8169,10.84,11.5083,12.2373,20.3434.3211,2.0657,2.2478,15.6916-6.3443,23.0948Z"/>
        <path class="cls-2" d="M433.1471,273.5215c-6.6741,5.7455-16.1516,4.6952-21.7321,4.0791-5.0338-.564-6.2662-1.5969-16.299-4.9817-20.1785-6.8043-22.7388-5.1466-27.1738-9.5121-4.6433-4.5738-6.7436-11.2219-6.8738-17.5575.9373,2.2218,1.663,6.7221,3.5637,9.5774,2.5603,3.8448,5.4017,5.2549,9.42,6.6261,3.5931,1.2151,5.2421-.2257,10.7012-.1735,4.0531.0347,4.5564.8418,13.5825,3.055,9.2084,2.2652,13.9384,3.3847,19.7012,2.89,4.2006-.3646,7.6114-.6596,10.5276-3.2285,4.2961-3.8014,4.4697-9.894,4.5825-13.9211.0868-3.107-.2257-8.271-3.2286-15.1188-.8245-1.8833-1.7271-3.6017-2.6644-5.1726,5.624,4.8169,10.84,11.5083,12.2373,20.3434.3211,2.0657,2.2478,15.6916-6.3443,23.0948Z"/>
        <path class="cls-3" d="M383.2825,219.3726c-4.2061.1338-7.2311,2.0077-9.0563,3.1697-1.8106,1.1528-6.6786,4.3502-8.8299,10.5279-.907,2.6044-2.1028,6.0383-.3396,8.9431,2.025,3.3361,6.8047,4.0826,10.0751,3.3961,4.5495-.9549,7.0824-4.8728,7.811-5.9998,2.017-3.1198,1.0696-4.3404,3.3961-7.1317,1.9626-2.3546,3.3973-2.3984,4.5282-4.7546.2819-.5872,1.5784-3.2885.4528-5.4338-1.534-2.9237-6.4916-2.7661-8.0375-2.7169Z"/>
        <path class="cls-3" d="M409.9419,221.1089c-1.7769-.8726-4.2043-2.0262-7.3582-1.698-.6844.0712-5.603.5831-6.2262,3.2829-.4622,2.0022,1.6252,4.3972,3.7357,5.3205,2.2233.9727,2.8694-.3891,7.3582.1133,2.2988.2573,3.237.7384,5.547.566,1.6735-.1249,3.3915-.2532,3.7357-1.132.6107-1.5593-3.3799-4.777-6.7922-6.4526Z"/>
      </g>
      <g>
        <path class="cls-8" d="M527.3123,317.9079c-.1995,4.7619-.4488,9.5321-2.8173,15.175-1.82,4.3297-3.9309,9.3493-9.1083,12.3577-8.9421,5.1941-19.4383-.0581-20.5934-.6565-6.8479-3.5569-9.8729-9.4408-11.7012-13.006-1.6787-3.2578-4.8035-9.3493-4.9614-16.3302-.0748-3.2411.4903-6.6817,2.1358-10.1138,5.8755-12.2498,20.4106-13.9284,22.1143-14.0947,1.0554-.108,10.9948-.9557,18.1169,3.7066,1.687,1.0969,3.2162,2.5097,4.4295,4.3131,2.9918,4.4211,2.7841,9.2661,2.3852,18.6487Z"/>
        <path class="cls-2" d="M527.3123,317.9079c-.1995,4.7619-.4488,9.5321-2.8173,15.175-1.82,4.3297-3.9309,9.3493-9.1083,12.3577-8.9421,5.1941-19.4383-.0581-20.5934-.6565-6.8479-3.5569-9.8729-9.4408-11.7012-13.006-1.6787-3.2578-4.8035-9.3493-4.9614-16.3302.3574,3.4239,1.2799,7.9698,4.0888,12.6486.5817.964,3.64,5.9171,9.6485,9.6486,5.3104,3.2909,9.1665,3.2826,10.2469,3.2493,1.3048-.0416,4.3464-.1495,5.8506-2.169.7895-1.0638.6399-1.9696.9723-3.4156.6731-2.8754,2.7342-4.3214,4.7204-6.8312,4.7869-6.0667,6.8562-6.449,8.7759-10.2386,2.6178-5.1442,1.8699-10.4629,1.4627-13.3384-.6233-4.4626-2.2023-7.87-3.399-10.0556,1.687,1.0969,3.2162,2.5097,4.4295,4.3131,2.9918,4.4211,2.7841,9.2661,2.3852,18.6487Z"/>
        <path class="cls-3" d="M496.0959,295.8182c-1.5466-.7053-3.1849-.1304-3.9837.1626-3.66,1.3424-6.2501,4.9427-6.829,5.7722-1.7921,2.568-4.6355,6.6425-3.9837,11.7883.0601.4744.8439,6.183,3.9023,6.8291,2.2321.4715,4.4446-2.0136,5.0405-2.6829.9715-1.0912,1.44-2.1017,3.252-8.4551,2.0282-7.1114,1.679-6.6795,2.1951-7.6421.9611-1.7929,2.2983-3.5266,1.6259-4.7966-.2928-.553-.8564-.8101-1.2194-.9756Z"/>
        <path class="cls-3" d="M511.1361,292.6476c-1.5137-.5547-3.3-1.2092-5.6096-1.0569-2.4753.1633-5.8824,1.2755-5.9348,2.6829-.039,1.0463,1.7811,2.1204,3.3332,2.439,1.7862.3666,2.5767-.3989,5.5283-1.0569,3.8303-.8539,6.0686-.3604,6.1787-.9756.1262-.7053-2.7438-1.757-3.4958-2.0325Z"/>
      </g>
      <g>
        <path class="cls-8" d="M287.9958,551.8149c-3.5807,6.4329-11.7396,8.2845-18.7264,10.609-8.5587,2.8582-16.6678,7.3562-25.6021,8.6395-8.8526,1.2568-17.9594-.784-26.0624-4.5536-9.2639-4.312-17.7424-11.2599-21.5652-20.7188-3.4131-8.4603-2.6818-18.4707,1.9173-26.3448.8752-1.4862,1.8815-2.8891,3.0065-4.2026,1.0227-1.1882,2.126-2.2988,3.3161-3.3192,3.1998-2.748,6.9678-4.8354,10.9919-6.0354,8.0671-2.394,14.369,2.9063,21.4905,5.8961,4.8272,2.0182,10.0288,2.6761,15.2575,3.2481,5.1463.5672,10.3321,1.0419,15.2249,2.6509,3.7347,1.2246,7.2346,3.1302,10.3295,5.5583,1.5906,1.2435,3.0731,2.6311,4.4153,4.1319,2.0809,2.3196,3.8506,4.9294,5.2126,7.7359,2.5336,5.2183,3.6208,11.6384.794,16.7045Z"/>
        <path class="cls-2" d="M287.9958,551.8149c-3.5807,6.4329-11.7396,8.2845-18.7264,10.609-8.5587,2.8582-16.6678,7.3562-25.6021,8.6395-8.8526,1.2568-17.9594-.784-26.0624-4.5536-9.2639-4.312-17.7424-11.2599-21.5652-20.7188-3.4131-8.4603-2.6818-18.4707,1.9173-26.3448.8752-1.4862,1.8815-2.8891,3.0065-4.2026-1.0048,3.1014-1.8541,6.7757-2.184,11.0323-.3952,5.0326-.9656,12.3264,2.9024,19.5042,4.6757,8.6785,13.04,12.0164,22.8883,15.9354,8.3864,3.3343,16.6582,6.633,24.8137,3.6902.3456-.1327,3.7556-1.714,10.5597-4.8924,8.0432-3.7536,8.8329-4.1661,9.6598-4.6298,6.6119-3.6683,10.1764-5.6414,12.3679-9.7853,2.0779-3.949,1.8668-7.8513,1.7033-10.6696-.1833-3.2228-.8946-5.8986-1.6854-8.0543,2.0809,2.3196,3.8506,4.9294,5.2126,7.7359,2.5336,5.2183,3.6208,11.6384.794,16.7045Z"/>
        <path class="cls-3" d="M224.6136,510.8036c-2.7746-1.0948-5.7824-2.2816-9.3509-1.5679-5.8885,1.1777-8.9221,6.6539-9.5571,7.8003-1.0282,1.8561-3.959,7.1469-1.4707,12.5258,2.1691,4.689,7.2926,6.9289,11.2195,6.9391,2.1924.0057,4.3884-.9004,8.7804-2.7125,4.1069-1.6945,4.0975-2.2316,6.8356-3.0495,4.2299-1.2635,5.0965-.2338,8.6778-1.5143,1.5141-.5414,6.319-2.2595,6.5503-5.1896.2047-2.5932-3.2806-4.7732-4.4284-5.4912-2.8742-1.7978-4.1262-1.1213-7.9647-2.4998-4.7617-1.7101-4.4822-3.3427-9.2919-5.2405Z"/>
        <path class="cls-3" d="M274.3475,525.7298c-.6436-1.4337-2.3642-2.0243-5.7794-3.1468-3.6427-1.1974-5.5601-1.8276-8.3199-1.586-2.6654.2334-4.5355,1.1416-5.4176,1.5805-1.5997.796-4.5229,2.2506-4.4168,3.9454.0238.3799.2225,1.1343,3.7369,3.1209,2.7313,1.5439,4.9692,2.4211,5.8032,2.7443,5.0606,1.9612,7.62,2.9335,9.0483,2.5322,3.0846-.8667,4.5623-3.9928,4.8085-4.5401.4468-.9934,1.3135-2.9202.5368-4.6504Z"/>
      </g>
      <g>
        <path class="cls-8" d="M491.5981,465.1455c-1.7048,7.1199,1.0696,14.8245-1.1031,21.8107-2.3064,7.4375-9.9277,12.2842-17.6492,13.2872-10.145,1.3369-21.51-4.028-24.7857-13.7218-.5348-1.5877-.8357-3.2258-.936-4.8636-.3509-5.9498,1.9889-12.0837,5.8163-16.78,2.39-2.9583,5.3148-5.4318,8.4904-7.5043,1.8552-1.237,3.8106-2.3232,5.7995-3.3094,4.8635-2.4233,11.0809-5.6824,16.5462-5.8497,2.9582-.1002,6.117,1.0364,8.0557,3.1423.8023.8691,1.3872,1.8717,1.6881,3.0417.9193,3.5767-1.0696,7.1533-1.922,10.7467Z"/>
        <path class="cls-2" d="M491.5981,465.1455c-1.7048,7.1199,1.0696,14.8245-1.1031,21.8107-2.3064,7.4375-9.9277,12.2842-17.6492,13.2872-10.145,1.3369-21.51-4.028-24.7857-13.7218-.5348-1.5877-.8357-3.2258-.936-4.8636,1.0697,1.989,2.6407,4.262,5.0642,6.3679,6.4346,5.5657,14.0558,5.7158,15.2091,5.7158,2.975.0167,8.7244.0335,12.7523-4.0779,4.2786-4.3789,4.262-11.0307,4.2452-11.9331-.0335-2.5739-.6518-3.2258-.3176-5.8998.3844-3.209,1.6881-5.5824,2.9416-7.8386,2.5404-4.5794,3.4763-4.0949,4.4122-6.5517.8189-2.1559.7521-4.2618.4011-6.0835.8023.8691,1.3872,1.8717,1.6881,3.0417.9193,3.5767-1.0696,7.1533-1.922,10.7467Z"/>
        <path class="cls-3" d="M458.6192,465.242c-1.9287-.6351-3.9024.9893-4.687,1.635-2.8665,2.3593-3.5151,5.7923-3.9239,7.957-.5054,2.6751-.8778,4.6468.3269,6.4856.8511,1.299,2.4608,2.4884,4.4691,2.5615,1.7082.062,3.4599-.6926,4.469-2.0165.2807-.3685.6039-.9118.981-6.5945.2864-4.3169.0487-3.2282.218-4.5233.2445-1.8692.5706-2.842,0-3.9241-.0488-.0924-.6439-1.1823-1.853-1.5805Z"/>
        <path class="cls-3" d="M462.1546,460.4408c1.0504-1.3709,2.3996-2.5327,3.8187-3.5331,1.8313-1.291,3.8075-2.3594,5.8202-3.3372,1.884-.9152,3.8544-1.9985,5.9094-2.4688.7845-.1795,1.6414-.1934,2.3596.1698s1.2463,1.1728,1.0995,1.964c-.1275.6868-.6999,1.1972-1.2777,1.5897-1.0139.6888-2.145,1.1872-3.2947,1.6122-3.0471,1.1261-6.3134,1.7817-9.0668,3.5056-2.05,1.2835-3.8643,3.1727-6.2544,3.5435-.1108.0172-.2289.03-.3313-.0158-.2854-.1278-.2204-.5491-.0946-.8353.3457-.7866.7923-1.5162,1.3121-2.1946Z"/>
      </g>
      <path class="cls-8" d="M155.7342,471.6148c-2.28,8.01-10.96,13.35-18,14.87-6.74,1.4501-9.31-1.1901-27.39-5.87-16.25-4.21-15.87-2.52-23.48-5.48-6.51-2.53-17.34-6.74-25.82-17.6101-10.44-13.3599-10.64-28.21-10.57-32.0798.02-1.3101.08-4.3301.59-8.1801,1.23-9.16,5.08-22.9701,17.41-29.39,11.91-6.1899,24.66-1.8101,27.39-.78,6.9,2.5801,12.94,9.41,23.43,22.4399,1.25,1.5601,2.57,3.2101,3.96,4.9501,8.41,10.53,13.83,18.2899,18,24.65,11.03,16.8199,16.5099,25.37,14.48,32.48Z"/>
      <path class="cls-2" d="M155.7342,471.6148c-2.28,8.01-10.96,13.35-18,14.87-6.74,1.4501-9.31-1.1901-27.39-5.87-16.25-4.21-15.87-2.52-23.48-5.48-6.51-2.53-17.34-6.74-25.82-17.6101-10.44-13.3599-10.64-28.21-10.57-32.0798.02-1.3101.08-4.3301.59-8.1801.43,3.7599,1.31,7.8199,2.93,11.96,4.29,10.91,11.91,17.5,14.35,19.5599,2.73,2.3101,10.95,9.26,22.17,11.4801,2.89.5699,6.16.87,10.7,2.87,4.87,2.1499,5.11,3.58,9.65,5.74,3.3,1.5701,8.74,4.1499,15.13,2.87,1.26-.25,8.03-1.61,11.22-7.2999.54-.9701,2.65-5.03,0-14.8701-2.52-9.36-6.18-12.26-10.7-21.1299-1.61-3.1801-6.4-12.6201-7.22-18.9102,1.25,1.5601,2.57,3.2101,3.96,4.9501,8.41,10.53,13.83,18.2899,18,24.65,11.03,16.8199,16.5099,25.37,14.48,32.48Z"/>
      <path class="cls-3" d="M77.6046,388.7879c-1.0139-.0599-3.2578-.1752-5.8696.5217-7.9913,2.1324-14.7567,10.6224-15,19.0435-.0529,1.8326-.1626,5.6263,2.3478,7.4348,2.2662,1.6324,5.7471.9844,7.9565-.3914.9319-.5802,1.9257-1.4692,5.7391-9.2609,2.5282-5.1655,2.576-5.7649,3.7826-6.6521,2.3498-1.7278,4.1733-.9275,7.1739-3.1305,1.1369-.8347,3.2252-2.3678,3-3.913-.3469-2.3807-5.993-3.4667-9.1304-3.6522Z"/>
      <path class="cls-3" d="M105.3872,396.4834c-1.5459-1.39-2.9878-2.0613-4.7609-2.8695-1.9565-.8918-3.7535-1.693-6.2609-1.9565-2.8833-.3031-4.0508.3839-4.3696.5869-.3037.1935-1.7432,1.1104-1.7609,2.4131-.0199,1.4662,1.773,2.5327,3.3261,3.4565,1.2179.7245,2.2308,1.0691,3.3261,1.4348.9181.3065,2.6491.8309,5.413,1.2391,3.6817.5438,3.6785.0667,5.6739.5869,3.1881.8313,4.8803,2.4885,5.1522,2.1522.1228-.152-.1311-.6034-3.5217-4.5653-1.7284-2.0197-1.9482-2.2362-2.2174-2.4783Z"/>
      <g>
        <path class="cls-8" d="M447.8953,122.5814c-3.92,8.5701-10.71,12.71-17.02,16.5601-5.5,3.36-15.86,9.6699-29.52,8.35-5.19-.5-14.43-1.39-20.29-8.74-7.13-8.9301-4.1-20.89-2.71-25.17.22-.6699.4-1.1499.49-1.3999.57-1.54,5.29-13.74,16.64-17.8801,6.56-2.3899,7.61.73,19.73-1.1199,10.2-1.5601,12.13-4.1901,18.64-3.1901.39.0599,1.11.17,2.05.39,2.98.6899,8.12,2.4299,11.62,6.99,7.28,9.47,1.34,23.09.37,25.21Z"/>
        <path class="cls-3" d="M393.0754,98.7401c-2.9811,1.1603-4.5045,3.2235-7.371,7.1055-2.9146,3.9472-4.712,6.4589-4.2624,9.6474.0608.4314.5754,3.7376,3.1253,4.9876,2.8347,1.3897,6.3786-.6473,8.1164-2.223,1.8107-1.6417,1.2719-2.4301,4.0065-6.4056,1.9608-2.8506,2.4932-2.8167,3.8743-5.1409,1.5628-2.6301,3.1167-5.2452,2.1987-6.9881-1.1937-2.2664-6.1912-2.3439-9.6878-.9829Z"/>
        <path class="cls-3" d="M426.8863,94.3467c-2.1807-1.6353-5.3988-.3709-6.9715.247-.203.0798-4.7731,1.9076-4.5006,3.3881.2779,1.5093,5.4047,1.6556,8.0944,1.4594,2.0853-.1522,4.3891-.3203,4.9113-1.673.4293-1.1119-.4931-2.6411-1.5337-3.4214Z"/>
        <path class="cls-2" d="M447.8953,122.5814c-3.92,8.5701-10.71,12.71-17.02,16.5601-5.5,3.36-15.86,9.6699-29.52,8.35-5.19-.5-14.43-1.39-20.29-8.74-7.13-8.9301-4.1-20.89-2.71-25.17-.03,3.39.53,7.23,2.59,10.8601,5.52,9.72,18.27,11.6599,20.48,12,.72.0999,13.85,1.9199,23.87-5.6101,1.37-1.03.39-.52,8.74-8.35,3.97-3.73,5.46-5.03,6.78-7.7001,1.86-3.74,1.94-7.23,1.96-8.6099.02-1.4601-.1-4.9701-1.83-8.8701-1.45-3.27-3.4301-5.4099-5.04-6.9199,2.98.6899,8.12,2.4299,11.62,6.99,7.28,9.47,1.34,23.09.37,25.21Z"/>
      </g>
      <path class="cls-8" d="M490.9541,81.4848c.14,3.83-2.8199,7.4601-6,9.13-4.0199,2.11-8.3899,1.1-18.5199-2.35-10.0601-3.42-15.0901-5.13-19.05-7.04-16.04-7.74-38.53-3.84-70.95,2.08-20.53,3.76-32.95,7.3401-40.84,8.54-12.97,8.15-14.64,17.0801-32.47,28.25-14.61,9.14-24.55,10.0701-45.91,15.65-28.8,7.52-57.44,15-79.83,28.7001-30.44,18.6199-59.49,54.98-66.78,94.95-8.87,48.61-9.91,67.83-9.91,67.83-.7,12.77-.87,28.5599-10.4399,33.91-5.19,2.8999-7.9866,10.1617-23.7366,12.2617-13.33,1.78-15.3135-5.7817-20.6135-7.5618-8.69-2.9299-12.67-12.9099-15.65-20.35-1.47-3.6801-5.1801-13.2999-3.65-25.5699,1.67-13.3901,7.57-13.6901,7.3-22.9501-.35-12.4401-11.01-13.97-14.34-30.7899-.86-4.3101-2.46-12.41,1.56-19.9501,2.91-5.4501,7.59-8.15,16.83-13.3099,14.85-8.29,19.27-6.65,23.87-12.91,4.44-6.05,4.82-13.6901,5.08-19.17.44-8.9399-1.98-10.1699-.78-16.83,1.87-10.33,9.42-16.9601,10.18-17.61,9.22-7.88,17.46-4.53,21.13-11.3501,2.72-5.0499-1.07-8.27.78-16.0399,1.51-6.33,5.33-9.6801,11.74-16.04,16.7-16.58,25.05-24.87,26.61-32.09,2.24-10.42-3.78-14.9299.78-23.0901,4.32-7.72,13.36-10.1599,14.87-10.5599,7.89-2.13,12.45.65,25.04,2.74,4.4.7201,14.4399,2.39,25.4399,1.5599,4.4301-.3298,20.11-1.6799,36-11.3499,11.9901-7.29,11.5-11.6501,19.17-12.91,11.44-1.88,15.6,7.3099,27.78,5.48,6.08-.91,5.63-3.29,19.57-10.5699,12.51-6.53,18.76-9.8,25.83-9,5.96.6799,6.51,3.33,17.89,10.9299,4.15.6699,9.08,1.52,15.11,1.73,5.6499.1899,2.23-2.37,7.6899-2.87,2.66-.25,11.28-.9301,19.5701,3.91,4.6899,2.74,3.74,4.02,7.63,5.87,6.37,3.0299,11.2999.72,19.37.59.88-.02,11-.1,19.95,4.1101,14.12,6.6299,12.4301,17.8999,24.52,21.2599,7.26,2.01,10.41-1.34,18.27,2.34,2.25,1.0601,9.6899,4.55,9.9099,10.4401Z"/>
      <g>
        <path class="cls-8" d="M210.5009,161.7167c-3.92,8.5701-10.71,12.71-17.02,16.5601-5.5,3.36-15.86,9.6699-29.52,8.35-5.19-.5-14.43-1.39-20.29-8.74-7.13-8.9301-4.1-20.89-2.71-25.17.22-.6699.4-1.1499.49-1.3999.57-1.54,5.29-13.74,16.64-17.8801,6.56-2.3899,7.61.73,19.73-1.1199,10.2-1.5601,12.13-4.1901,18.64-3.1901.39.0599,1.11.17,2.05.39,2.98.6899,8.12,2.4299,11.62,6.99,7.28,9.47,1.34,23.09.37,25.21Z"/>
        <path class="cls-3" d="M155.681,137.8754c-2.9811,1.1603-4.5045,3.2235-7.371,7.1055-2.9146,3.9472-4.712,6.4589-4.2624,9.6474.0608.4314.5754,3.7376,3.1253,4.9876,2.8347,1.3897,6.3786-.6473,8.1164-2.223,1.8107-1.6417,1.2719-2.4301,4.0065-6.4056,1.9608-2.8506,2.4932-2.8167,3.8743-5.1409,1.5628-2.6301,3.1167-5.2452,2.1987-6.9881-1.1937-2.2664-6.1912-2.3439-9.6878-.9829Z"/>
        <path class="cls-3" d="M189.492,133.482c-2.1807-1.6353-5.3988-.3709-6.9715.247-.203.0798-4.7731,1.9076-4.5006,3.3881.2779,1.5093,5.4047,1.6556,8.0944,1.4594,2.0853-.1522,4.3891-.3203,4.9113-1.673.4293-1.1119-.4931-2.6411-1.5337-3.4214Z"/>
        <path class="cls-2" d="M210.5009,161.7167c-3.92,8.5701-10.71,12.71-17.02,16.5601-5.5,3.36-15.86,9.6699-29.52,8.35-5.19-.5-14.43-1.39-20.29-8.74-7.13-8.9301-4.1-20.89-2.71-25.17-.03,3.39.53,7.23,2.59,10.8601,5.52,9.72,18.27,11.6599,20.48,12,.72.0999,13.85,1.9199,23.87-5.6101,1.37-1.03.39-.52,8.74-8.35,3.97-3.73,5.46-5.03,6.78-7.7001,1.86-3.74,1.94-7.23,1.96-8.6099.02-1.4601-.1-4.9701-1.83-8.8701-1.45-3.27-3.4301-5.4099-5.04-6.9199,2.98.6899,8.12,2.4299,11.62,6.99,7.28,9.47,1.34,23.09.37,25.21Z"/>
      </g>
      <path class="cls-2" d="M621.3442,339.4449c-.32,7.2899-2.77,12.6799-3.91,15.1299-4.55,9.78-9.92,10.29-10.96,18-.68,5.05.92,6.3,1.05,13.5701.16,9.25-2.26,16.34-4.7,23.48-4.63,13.55-7.16,11.9399-8.35,19.8201-1.69,11.21,3.31,15.2799-.52,22.4399-2.93,5.48-6.54,4.34-9.91,10.95-.73,1.42-4.22,8.66-1.57,15.66,1.18,3.09,2.55,3.5,6.79,8.34,6.64,7.62,10.84,12.42,9.91,16.7-1.49,6.8901-15.57,9.1301-17.22,9.3901-7.09,1.1299-8.75-.8101-19.3-.52-7.74.21-11.61.3099-16.18,2.09-9.02,3.5-17.09,11.98-20.34,21.13-1.21,3.37-1.6299,6.5-4.44,11.21-.99,1.67-3.21,5.0901-6.78,8.3501-4.6,4.2-7.34,4.4099-19.31,9.9099-11.59,5.3401-13.91,7.41-15.65,9.92-2.61,3.7699-3.32,7.72-3.65,9.65-1.41,8.3099,2.15,11.08,0,17.74-.41,1.27-1.9,5.3699-5.74,8.35-1.59,1.23-4.9301,3.3099-14.8701,3.39-5.96.04-9.8199-.66-22.17-2.8701-9.65-1.73-14.51-2.5898-16.44-2.8699-17.8-2.5701-22.12-1.22-24-.52-3.58,1.33-3.34,2.1899-10.95,5.74-2.59,1.2-7.25,3.37-11.74,4.6899-1.91.5601-7.54,2.0701-20.09,1.3101-18.31-1.12-20.6-5.2-30-2.87-6.34,1.5599-5.96,3.58-13.83,5.74-7.02,1.92-13.31,1.96-20.87,1.2999-22.88-1.99-23.33-8.6699-36.39-7.0399-11.29,1.4-27.5,7.09-34.04,9.39-9.3,3.26-13.88,5.4399-21.13,4.6899-1.86-.1899-12.87-1.3101-18.78-9.3899-4.95-6.7401-2.29-12.8-3.53-22.3-2.67-20.52-20.5-33.91-22.3-35.22-18.6-13.5701-32.04-.8601-49.3-14.0901-6.84-5.23-10.71-12.59-16.4-25.72,5.14,3.3301,11.52,6.76,19.57,9.72,4.31,1.5801,6.86,2.21,26.08,6.26,54.19,11.42,52.94,10.46,58.44,12.52,31.67,11.87,29.26,27.3201,49.3,28.1699,20.08.8501,23.8-14.5898,51.65-16.4299,16.41-1.09,16.83,4.16,36.79,3.13,6.75-.35,24.42-1.4401,43.04-10.9601,14.63-7.48,13.09-11.5898,30.52-23.48,5.64-3.84,23.83-16.0399,48.92-23.08,26.07-7.33,40.54-3.73,46.95-14.87,1.38-2.3999,1.96-7.86,3.13-18.79,1.46-13.6399,2.24-20.8999,1.5699-28.5599-1.7-19.38-10.79-19.86-12.92-36.39-2.82-21.97,10.75-40.47,12.92-43.4399,11.3101-15.42,19.69-12.1401,29.35-25.8201,2.89-4.1,8.8-13.85,9.39-50.48.5099-32.51-4-34.1-3.92-62.22.11-33.8701,6.67-36.22,4.7-64.95-1.38-20.04-5.68-35.1301-10.17-50.8701-2.25-7.87-4.5-14.77-6.68-20.83.65.15,1.3.2899,1.94.4401,11.33,2.58,11.5.0499,19.56,2.3499,1.48.42,22.49,6.7001,27.4,22.6901,2.61,8.54-2.45,9.77-1.57,25.83.3101,5.5601.75,2.4,5.48,25.8301,1.85,9.1799,2.85,14.9099,7.83,18.78,1.6299,1.27,1.99,1.01,6.65,3.1299,8.9,4.05,14.7,6.6801,18.78,11.74,5.68,7.03,5.5099,15.5901,5.48,16.4301-.27,7.7201-4.27,8.4-7.44,19.1801-1.6,5.46-4.22,14.37-.78,23.08,1.9901,5.03,4.03,5.04,6.52,11.48.92,2.37,3.03,8,2.61,14.87-.66,10.8401-6.93,13.42-5.22,20.6101,1.04,4.3398,3.36,3.5599,7.05,10.1699,4.86,8.73,4.82,17.26,4.69,20.0901Z"/>
      <path class="cls-7" d="M621.3442,339.4449c-.32,7.2899-2.77,12.6799-3.91,15.1299-4.55,9.78-9.92,10.29-10.96,18-.68,5.05.92,6.3,1.05,13.5701.16,9.25-2.26,16.34-4.7,23.48-4.63,13.55-7.16,11.9399-8.35,19.8201-1.69,11.21,3.31,15.2799-.52,22.4399-2.93,5.48-6.54,4.34-9.91,10.95-.73,1.42-4.22,8.66-1.57,15.66,1.18,3.09,2.55,3.5,6.79,8.34,6.64,7.62,10.84,12.42,9.91,16.7-1.49,6.8901-15.57,9.1301-17.22,9.3901-7.09,1.1299-8.75-.8101-19.3-.52-7.74.21-11.61.3099-16.18,2.09-9.02,3.5-17.09,11.98-20.34,21.13-1.21,3.37-1.6299,6.5-4.44,11.21-.99,1.67-3.21,5.0901-6.78,8.3501-4.6,4.2-7.34,4.4099-19.31,9.9099-11.59,5.3401-13.91,7.41-15.65,9.92-2.61,3.7699-3.32,7.72-3.65,9.65-1.41,8.3099,2.15,11.08,0,17.74-.41,1.27-1.9,5.3699-5.74,8.35-1.59,1.23-4.9301,3.3099-14.8701,3.39-5.96.04-9.8199-.66-22.17-2.8701-9.65-1.73-14.51-2.5898-16.44-2.8699-17.8-2.5701-22.12-1.22-24-.52-3.58,1.33-3.34,2.1899-10.95,5.74-2.59,1.2-7.25,3.37-11.74,4.6899-1.91.5601-7.54,2.0701-20.09,1.3101-18.31-1.12-20.6-5.2-30-2.87-6.34,1.5599-5.96,3.58-13.83,5.74-7.02,1.92-13.31,1.96-20.87,1.2999-22.88-1.99-23.33-8.6699-36.39-7.0399-11.29,1.4-27.5,7.09-34.04,9.39-9.3,3.26-13.88,5.4399-21.13,4.6899-1.86-.1899-12.87-1.3101-18.78-9.3899-4.95-6.7401-2.29-12.8-3.53-22.3-2.67-20.52-20.5-33.91-22.3-35.22-18.17-13.26-31.42-1.4301-48.12-13.2201,4.18-.13,8.18-.09,11.3799-.0499,9.97.1199,17.79,1.6599,22.3,2.74,7.25,1.74,14.1,3.3799,21.91,8.22,4.19,2.59,12.76,8.64,19.18,19.1699,4.42,7.25,2.83,8.4301,7.04,14.4801,1.99,2.85,8.86,12.72,19.5699,15.2599,7.19,1.7101,8.1801-1.7599,28.5601-5.8699,16.18-3.25,21.87-2.3301,25.05-1.5601,7.79,1.88,7.19,4.45,14.87,6.65,14.72,4.22,28.88-1.8199,31.95-3.13,11.52-4.91,11.2599-9.6,19.31-10.4399,8.95-.9301,12.03,4.59,23.47,6.27,9.33,1.3599,16.69-.9301,22.96-2.8701,23.01-7.1499,28-22.48,44.35-21.1299,3.01.24,1.22.6299,11.35,3.1299,16.77,4.14,28.06,6.92,32.87,1.95,3.03-3.1299.61-6.3699,1.95-14.48,2.36-14.27,13.09-23.74,17.22-27.3899,14.34-12.66,23.58-7.5701,30.52-18.78,4.91-7.9299,1.37-12.23,7.83-20.3501,5.01-6.2999,12.04-9.8899,16.43-12.1299,9.9301-5.0601,14.97-4.53,16.83-9,1.8-4.3401-2.12-6.8701-1.96-13.3.22-8.7,7.55-10.4299,12.1299-19.5701,7.28-14.5199-4.77-23.0798,2.35-37.1699,5-9.9,12.46-8.6799,14.87-18.39,1.86-7.5-2.27-9.49-1.56-21.13.41-6.85,2.18-11.8199,5.08-19.96,5.11-14.3301,7.68-13.64,8.61-20.74,1.57-11.95-5.7-14.05-4.3-25.8301,1.2599-10.6599,7.48-11.1399,8.61-22.6899.51-5.3201-.72-6.05-2.74-19.5701-1.29-8.6199-2.26-15.0999-2.35-22.6899-.21-18.01,4.76-21.46,1.17-30.9099-1.2-3.1702-1.6801-2.5701-10.95-14.8701-8.01-10.6299-12.02-15.9399-14.09-19.96-5.43-10.55-6.37-20.22-7.44-31.3101-1.43-14.8199.73-16.6299-.39-25.0399-1.1801-8.83-4.8-16.11-8.88-21.91,6.04,2.1899,20.87,8.77,24.89,21.87,2.61,8.54-2.45,9.77-1.57,25.83.3101,5.5601.75,2.4,5.48,25.8301,1.85,9.1799,2.85,14.9099,7.83,18.78,1.6299,1.27,1.99,1.01,6.65,3.1299,8.9,4.05,14.7,6.6801,18.78,11.74,5.68,7.03,5.5099,15.5901,5.48,16.4301-.27,7.7201-4.27,8.4-7.44,19.1801-1.6,5.46-4.22,14.37-.78,23.08,1.9901,5.03,4.03,5.04,6.52,11.48.92,2.37,3.03,8,2.61,14.87-.66,10.8401-6.93,13.42-5.22,20.6101,1.04,4.3398,3.36,3.5599,7.05,10.1699,4.86,8.73,4.82,17.26,4.69,20.0901Z"/>
      <path class="cls-9" d="M325.5611,48.3531c-2.7062-.7897-6.2972-1.8375-9.6522,0-5.2297,2.8643-5.2288,10.1885-5.2173,10.9565.0615,4.1505,2.0456,9.7776,7.0435,12,4.4138,1.9626,8.7307.1814,10.4348-.5217,3.9844-1.644,10.4042-6.1505,9.913-12-.5837-6.9513-10.4251-9.823-12.5217-10.4348Z"/>
      <path class="cls-9" d="M255.1263,59.3096c-1.367-.0569-5.9604-.2479-9.1304,3.3912-2.1255,2.4401-3.1671,6.0923-2.0869,9.3914,1.6926,5.1698,7.7255,6.8164,11.4783,6.7826,1.26-.0114,6.7083-.0605,9.3913-4.4348,2.1781-3.551,1.3661-8.0487-.7826-10.9565-2.9008-3.9255-7.6235-4.1219-8.8696-4.1738Z"/>
      <path class="cls-9" d="M168.6481,68.5705c-5.7194-3.2183-12.2195-.578-15.6522,3.1304-2.9211,3.1558-5.1589,8.7465-2.7391,13.6957,2.6929,5.5078,9.5649,6.9708,14.4782,5.8696.7449-.167,7.2004-1.7283,9.3913-7.8262,1.9012-5.2916-.1698-11.8824-5.4782-14.8695Z"/>
      <path class="cls-9" d="M242.8655,112.0053c-4.0766-3.1023-9.3189-1.2778-12,.5217-3.3987,2.2812-6.703,7.2216-4.9565,11.2173,2.0066,4.5908,9.159,4.4542,10.1739,4.4348,1.7743-.0339,6.6962-.1278,9.1304-3.913,2.3708-3.6865,1.4263-9.3887-2.3478-12.2609Z"/>
      <path class="cls-9" d="M90.7785,172.4617c-3.7169-.6537-6.7414,2.1063-7.4348,2.7391-2.1413,1.9541-4.7188,5.9268-3.3261,9.7826,1.0888,3.0146,4.0074,4.3049,4.8913,4.6957.7885.3486,3.6759,1.5707,7.0435.3914.2839-.0994,4.4182-1.621,5.6739-5.674,1.5355-4.9562-2.0414-11.0896-6.8478-11.9348Z"/>
      <path class="cls-9" d="M118.1698,206.1139c-2.3105-1.7368-5.8817-.7131-7.6304,1.3695-.188.224-1.8912,2.3184-1.1739,4.6957.7519,2.4919,3.6087,3.4564,5.4783,3.5217.6243.0219,1.9862.0693,3.1304-.7826,2.3484-1.7487,2.9934-6.7012.1956-8.8043Z"/>
      <path class="cls-9" d="M52.0394,234.6791c-.838-.3309-3.6804-1.4071-6.8478-.3912-4.313,1.3833-8.0323,6.262-7.0435,11.1521,1.0257,5.0724,6.4731,6.972,7.2391,7.2391.8741.3048,6.2072,2.1647,10.1739-1.1738,3.4749-2.9246,3.8691-8.1278,2.1522-11.7391-1.6328-3.4343-4.8595-4.7654-5.6739-5.087Z"/>
      <path class="cls-9" d="M96.2568,264.027c-1.5813-1.3602-4.4982-2.7897-7.0435-1.7609-3.9762,1.6072-5.5826,8.6218-2.3478,12.1304,1.7579,1.9067,4.7953,2.6151,7.4348,1.7609.3372-.1091,3.7705-1.2838,4.6956-4.6957,1.0942-4.0356-2.417-7.1576-2.7391-7.4347Z"/>
      <path class="cls-9" d="M43.0394,278.3096c-1.6129-.9497-4.0716-1.2673-6.0652.0978-1.9525,1.3369-2.8917,3.8997-2.1522,6.1631.993,3.0389,4.3882,3.6284,4.9891,3.7174.2782.0411,3.9035.5242,5.5761-1.8588,1.7131-2.4407.4032-6.4996-2.3478-8.1195Z"/>
      <path class="cls-9" d="M84.9089,303.3531c-.5448-.1998-2.1994-.7805-4.1087-.1957-2.9822.9136-5.3898,4.3044-4.6956,7.4348.5953,2.6843,3.2006,3.9564,3.913,4.3043.6385.3118,2.7449,1.3004,5.2826.5869.2492-.0701,3.8988-1.1558,4.6957-4.3043.8491-3.355-2.1262-6.74-5.087-7.826Z"/>
      <path class="cls-9" d="M84.5176,342.6139c-.1317-.2664-1.1129-2.174-3.2609-2.7391-2.5931-.6823-5.2346,1.0267-6.3913,3.1305-.9585,1.7433-1.2924,4.4756.2609,6.2609,1.1757,1.3512,2.8713,1.515,3.3913,1.5652,1.8758.1812,4.0216-.5568,5.3478-2.3479,1.1534-1.5576,1.6468-3.8577.6522-5.8695Z"/>
      <path class="cls-9" d="M50.9959,325.0053c-2.146-1.4659-5.5714-1.5841-7.5652.6521-1.6945,1.9005-1.7182,4.7874-.3913,6.7826,1.7723,2.6649,5.4697,3.0111,7.8261,1.6957.3122-.1743,2.1255-1.2289,2.6087-3.3914.5186-2.3212-.7926-4.5875-2.4783-5.739Z"/>
      <path class="cls-9" d="M139.1046,120.027c-2.1122-.7841-5.5083,1.6898-5.4783,4.3043.0336,2.9263,4.3493,5.1658,6.2609,4.1086,1.3623-.7534,1.3681-3.1062,1.3696-3.7174.0032-1.3154-.3965-4.0439-2.1522-4.6956Z"/>
      <path class="cls-2" d="M498.1263,141.7443c-3.9321-1.5934-7.9401.4384-9.3913,1.174-7.3256,3.7134-13.1647,13.9312-9.587,20.3479,2.3595,4.2318,7.9271,5.2186,9.3914,5.4781,1.4321.2538,6.7137,1.1899,11.1522-2.1521,5.9397-4.4724,5.0813-12.6246,4.8913-14.0869-.1926-1.4821-1.1173-8.5974-6.4565-10.761Z"/>
      <path class="cls-2" d="M486.3872,113.9617c-1.7694-2.343-5.6456-2.6001-8.2173-.9783-1.6706,1.0536-3.2144,3.1671-2.9348,5.4783.4109,3.3966,4.6173,6.0385,8.0217,4.8914,3.6647-1.2347,5.3175-6.4952,3.1304-9.3914Z"/>
      <path class="cls-2" d="M346.4959,127.6574c-4.3094-4.0222-10.1225-3.0521-10.7609-2.9348-4.6583.8561-10.3976,4.6851-10.5652,10.3696-.1825,6.191,6.3867,9.7383,6.8478,9.9783.6803.354,6.129,3.0736,11.5435.1957,4.1487-2.2051,7.0525-7.0455,6.2609-11.7391-.5424-3.2162-2.6266-5.2167-3.3261-5.8696Z"/>
      <path class="cls-2" d="M487.0394,226.527c-.6844-.1552-7.1147-1.5175-10.6957,2.3478-4.7975,5.1783-1.6741,16.7097,4.6957,18.7826,5.4947,1.7881,11.4122-4.1106,12.2609-4.9565,1.6215-1.6163,3.5431-3.5317,3.6522-6.2609.1875-4.6901-5.0965-8.821-9.913-9.913Z"/>
      <path class="cls-2" d="M431.735,180.3531c-3.3492-.0037-6.4948,2.236-7.5652,5.4783-1.3187,3.9946.8758,8.4103,4.4348,9.913,3.5475,1.4978,6.9232-.5436,7.3043-.7826.2819-.1768,3.869-2.5081,3.9131-6.5217.0451-4.0995-3.6265-8.082-8.087-8.0869Z"/>
      <path class="cls-2" d="M460.9524,326.0487c-4.9302,1.1294-9.1331,7.0306-7.4348,12.913,1.6829,5.8285,8.171,8.215,12.9131,7.0436.5642-.1394,4.0172-1.0494,5.8696-4.3044,2.5546-4.4891.4945-10.679-3.5219-13.6956-.8497-.6382-4.0372-2.8246-7.826-1.9565Z"/>
      <path class="cls-2" d="M402.648,288.4834c-1.529-2.7399-8.2719-3.1013-11.3478.3914-1.4914,1.6935-2.6973,4.9479-1.0435,7.4348,1.357,2.0405,4.0645,2.7,6.1304,2.2174,1.5493-.3619,2.5018-1.3109,3.2609-2.087,1.7207-1.7594,4.3013-5.6248,3-7.9565Z"/>
      <path class="cls-2" d="M428.0829,492.7443c-3.9321-1.2386-7.5808,1.0166-9.3913,3.1305-3.5318,4.1235-3.5248,11.7448.7826,14.4783,3.6522,2.3177,8.9719.218,11.7391-2.7391.5454-.5829,2.9985-3.2042,2.7391-7.0435-.2156-3.1918-2.2698-6.6923-5.8696-7.8262Z"/>
      <path class="cls-2" d="M381.9089,517.3965c-3.178-1.8636-9.5804-3.787-13.3043,0-2.5126,2.5552-2.7886,6.6754-1.5652,9.7826,1.2195,3.0972,3.9233,5.1736,6.6522,5.8696,6.1443,1.5673,13.7557-3.5221,13.6956-8.6088-.0456-3.8575-4.4884-6.4629-5.4783-7.0435Z"/>
      <path class="cls-2" d="M307.5611,528.7443c-2.8077,1.4275-4.7026,5.3694-3.1304,8.6088,1.6275,3.3534,6.0243,4.0046,9,2.7391,2.4208-1.0295,4.5787-3.6156,4.3043-6.2609-.41-3.9525-6.1563-7.1296-10.1739-5.087Z"/>
      <path class="cls-2" d="M188.0829,487.1356c-3.1441-2.8568-5.8355-5.3022-9.9131-5.4783-4.065-.1755-8.1944,1.9611-10.4348,5.2174-4.6092,6.6992-1.0014,17.8153,5.4783,20.3478,3.2127,1.2556,6.3892.1111,8.8696-.7826,4.673-1.6837,11.8889-6.252,11.4782-11.7391-.2078-2.7764-2.2838-4.6627-5.4782-7.5652Z"/>
      <path class="cls-2" d="M116.9959,499.7879c-2.9598-2.6372-8.4997-1.5997-11.3478,1.5652-2.8368,3.1523-2.0518,7.3582-1.9565,7.826.2075,1.0193.7572,3.7203,3.1305,5.087,2.9313,1.6881,6.2946-.0127,7.0435-.3914,2.8326-1.4324,4.7588-4.3191,5.087-7.4348.0852-.809.4727-4.4877-1.9565-6.6521Z"/>
      <path class="cls-2" d="M113.735,361.3965c-3.2082-1.4401-7.8672.4412-9.6522,4.174-1.6813,3.5161-.6397,8.3134,2.8696,10.1738,2.9311,1.5538,6.6068.5411,8.6087-1.5652,3.4338-3.6129,2.3741-10.8973-1.8261-12.7826Z"/>
      <path class="cls-2" d="M28.9524,384.94c-1.7147-.0165-3.6732.8923-4.5,2.7391-.9504,2.1229-.1139,4.8341,1.7609,5.8696,1.6048.8864,3.3646.2106,3.913,0,1.488-.5714,3.9435-2.2389,3.7174-4.6957-.2129-2.3132-2.6713-3.8917-4.8913-3.9131Z"/>
      <path class="cls-2" d="M150.4524,214.3313c-3.6974-2.4347-7.6552-1.6093-8.8044-1.3696-.7693.1604-6.883,1.5388-9,7.0436-.285.7411-1.3228,3.5664-.1956,6.8478,1.1803,3.4362,3.9368,5.0497,4.6956,5.4783,4.0001,2.2594,9.3799,1.7323,13.1087-1.174,2.8409-2.2142,5.5742-6.4728,4.5-10.9565-.8461-3.5316-3.6283-5.4243-4.3044-5.8695Z"/>
      <path class="cls-7" d="M557.2133,221.0487c-2.0574-.1373-5.8325-.3892-7.5652,1.826-2.5845,3.304.0131,11.2789,5.2174,12.7826,3.2395.9359,6.1291-1.0284,6.5217-1.3043,3.3523-2.3551,5.0768-7.3857,3.1304-10.4348-1.5883-2.4882-5.0214-2.7172-7.3043-2.8695Z"/>
      <path class="cls-7" d="M554.6046,174.3531c-2.2784-1.3463-5.8652.1442-7.8261,2.0869-3.3741,3.3429-3.2598,9.3383,0,12.5217,1.3093,1.2787,3.9845,2.942,6.2609,2.087,4.8144-1.8082,5.8836-14.144,1.5652-16.6957Z"/>
      <path class="cls-7" d="M543.7133,115.6248c-.8188-.4474-2.4803-1.3555-3.8152-.6848-1.8553.932-2.2686,4.5057-.8804,6.8479.1374.2318,1.6288,2.6523,4.4022,2.6412,1.6364-.0066,3.5909-.859,4.2065-2.4457.9562-2.4646-1.8819-5.2487-3.913-6.3586Z"/>
      <path class="cls-7" d="M574.4307,282.0922c-1.6345-2.0005-4.663-3.947-7.8261-3.3914-5.2241.9177-8.6739,8.2843-6.5217,13.5653,1.2632,3.0997,4.7122,6.1086,8.6087,5.7391,3.5405-.3357,5.5661-3.282,6-3.9131,2.2798-3.316,2.6482-8.4396-.2609-12Z"/>
      <path class="cls-7" d="M556.235,337.3965c-.2759-.1058-4.3475-1.5894-7.6304.9783-2.6025,2.0355-4.0317,6.0869-2.3478,8.8043,1.9264,3.1089,6.7124,2.5114,8.0217,2.3479,1.03-.1285,6.2635-.782,7.2391-4.3044.8638-3.1188-2.1285-6.6163-5.2826-7.826Z"/>
      <path class="cls-7" d="M511.4307,375.1574c-2.1949.434-5.0337,2.2521-5.087,5.0869-.053,2.8226,2.6878,4.9363,5.087,5.2827,3.8757.5597,8.0035-3.3271,7.4348-6.4565-.4782-2.6312-4.2433-4.5441-7.4348-3.9131Z"/>
      <path class="cls-7" d="M551.9307,375.1574c-2.0934-1.217-5.0057-1.4154-7.2391,0-3.3368,2.1147-3.7834,6.9607-2.1521,10.174.9955,1.9608,3.386,4.5375,6.6521,4.3043,4.0671-.2903,5.788-4.6733,5.8696-4.8914,1.2317-3.2917.1896-7.6569-3.1305-9.5869Z"/>
      <path class="cls-7" d="M538.9524,420.8748c-2.717-3.0071-7.4625-2.7935-10.4348-1.5652-5.0103,2.0706-8.7582,8.5847-6.5217,12.7826,2.0606,3.8677,8.0801,3.6647,8.3478,3.6521,4.9261-.2323,9.9298-4.0464,10.4348-8.8695.0506-.4834.3293-3.6145-1.826-6Z"/>
      <path class="cls-7" d="M495.3872,505.1356c-1.6747-1.2642-4.0911-.7878-5.4783.5217-1.6364,1.5448-1.9866,4.3871-.5217,6,1.4628,1.6106,3.9011,1.0769,4.0435,1.0435,1.5514-.3649,3.0209-1.599,3.3913-3.3912.2926-1.4161-.1035-3.1689-1.4348-4.174Z"/>
      <path class="cls-7" d="M432.9089,521.7008c-1.4293-.6802-3.0335-.0387-3.7826.2609-3.4338,1.3732-7.9031,5.9701-6.1304,10.3044,1.3408,3.2783,5.5776,4.7562,8.8696,4.0435.3104-.0673,4.0201-.9246,4.9565-3.7826.3633-1.1086-.1442-2.6672-1.174-5.7391-1.4537-4.3368-2.2903-4.8734-2.7391-5.087Z"/>
      <path class="cls-7" d="M442.5611,566.9943c-1.295-1.8027-4.915-2.1869-6.9457-.3912-2.5121,2.2213-1.6163,6.9154.587,8.1195,1.1378.6218,2.4211.2019,2.7391.0979,2.9984-.9808,5.2863-5.5061,3.6196-7.8262Z"/>
      <path class="cls-7" d="M369.7785,566.9943c-1.8355-.9686-4.2755-.6449-5.8696.7827-2.5306,2.2662-1.3821,5.9283-1.2717,6.2609.1531.4614.9839,2.9641,3.5217,3.8152,2.0253.6792,4.5419.1066,5.8696-1.6631,1.4837-1.9777.718-4.4314.3914-5.4783-.3062-.9811-.868-2.7816-2.6414-3.7174Z"/>
      <path class="cls-7" d="M301.1046,579.8096c-2.036-1.5865-5.14-1.1666-7.0435.1957-3.047,2.1807-3.7764,7.3185-1.1739,10.1738,1.4845,1.6287,4.0417,2.5022,6.2609,1.7609,3.4017-1.1364,4.3076-5.4987,3.913-8.2174-.1161-.8-.3908-2.6929-1.9565-3.913Z"/>
      <path class="cls-7" d="M259.822,577.1682c-1.1567-.2863-3.002-.1427-3.8152,1.174-.9205,1.4902-.0622,3.7438,1.5652,4.5978,1.218.6392,3.0567.594,4.1087-.6847.8885-1.08.8877-2.6407.1956-3.7174-.6583-1.0242-1.7372-1.2911-2.0543-1.3696Z"/>
      <path class="cls-7" d="M189.1915,561.6139c-1.2401.3047-5.212,1.2805-6.2609,4.6957-1.0473,3.4102,1.3012,7.6852,4.5,8.413,2.6453.6018,4.9622-1.4292,6.4565-2.7391.4284-.3755,5.719-5.1095,4.1087-8.413-1.2727-2.6108-6.0318-2.6377-8.8044-1.9565Z"/>
      <path class="cls-2" d="M470.5394,390.2226c-2.5417-1.1652-5.5858-.4603-7.2391,1.3696-2.6993,2.9878-.8839,8.0811,1.7609,10.3695.5104.4417,1.9991,1.7299,3.913,1.5653,2.972-.2555,5.3771-3.877,5.2826-7.2391-.0094-.3346-.196-4.4512-3.7173-6.0653Z"/>
      <path class="cls-1" d="M597.9089,226.0053c-1.9361.3502-3.5834,1.9481-3.7826,3.6521-.3864,3.3044,4.6932,6.8373,7.4348,5.4783,1.7217-.8534,2.7311-3.7396,1.6956-6.1304-.8679-2.0039-3.0656-3.4128-5.3478-3Z"/>
      <path class="cls-1" d="M565.0394,155.1791c-1.2644.0216-2.4232,1.1473-2.7391,2.3479-.5948,2.2604,1.7482,4.9758,3.6522,4.6956,1.1461-.1687,1.9914-1.4021,2.2174-2.4783.4352-2.0728-1.2093-4.598-3.1304-4.5652Z"/>
      <path class="cls-1" d="M564.7133,115.6574c-1.7194-.3527-3.0259,1.1177-3.1304,1.2391-1.1536,1.3406-1.441,3.7336-.0652,5.0217.9244.8655,2.3203.9703,3.3913.587,1.4068-.5034,2.2997-1.8657,2.3478-3.261.054-1.5653-.952-3.2605-2.5435-3.5869Z"/>
      <path class="cls-1" d="M592.9524,305.3096c-3.3576.7533-5.4261,6.0707-3.3913,9.3912,1.1331,1.8491,3.6685,3.2908,6.2609,2.6088,2.6458-.696,4.108-3.277,4.1739-5.4783.1132-3.7794-3.8654-7.2347-7.0435-6.5217Z"/>
      <path class="cls-1" d="M616.822,335.8313c-.8408-1.4783-2.6433-2.432-4.3044-2.2174-2.8315.3657-4.3072,4.0038-4.0435,6.6522.1375,1.38.8837,3.8628,2.7391,4.3043,2.1093.502,4.0002-2.0275,4.4348-2.6088.4503-.6023,2.6469-3.5406,1.174-6.1304Z"/>
      <path class="cls-1" d="M586.5611,351.2226c-2.5658.0764-4.8181,2.3707-4.8261,4.9565-.006,1.9525,1.2673,4.1196,3.2609,4.5652,2.2978.5135,4.1336-1.5771,4.6957-2.2173.5999-.6831,1.9467-2.217,1.5652-4.0436-.4139-1.9821-2.6569-3.3215-4.6956-3.2609Z"/>
      <path class="cls-1" d="M602.2785,387.5487c.3704-1.5934-.2129-3.7053-1.7609-4.3696-1.6927-.7264-3.4996.7244-3.9782,1.1088-1.6602,1.3331-3.1898,4.0935-2.087,5.6738.9252,1.3258,3.2786,1.2128,4.6956.7174.353-.1234,2.6152-.9142,3.1304-3.1304Z"/>
      <path class="cls-1" d="M571.7894,410.3748c-1.8042-1.2344-5.364.1165-6.3587,2.6414-.8029,2.038.0576,4.8611,1.7609,5.4781.9456.3427,1.8878-.0901,2.5435-.3912,1.5308-.703,3.3428-2.3994,3.3261-4.6957-.0024-.3295-.0158-2.1733-1.2717-3.0326Z"/>
      <path class="cls-1" d="M587.2459,429.1574c-.7709-.2196-2.7289-.7775-4.0109.3914-1.3214,1.2048-1.2902,3.6664-.0978,4.9891.9908,1.0991,2.4888,1.0854,3.5217,1.076,1.5455-.0142,4.5111-.5375,4.8914-2.1522.3885-1.65-2.1021-3.6769-4.3044-4.3043Z"/>
      <path class="cls-1" d="M557.7024,464.4726c-1.5566-.3666-3.4183.9509-4.0109,2.6414-.6945,1.9812.3104,4.599,2.25,5.0869,1.4614.3677,3.0168-.5837,3.7173-1.7609,1.2491-2.0988.1165-5.4792-1.9565-5.9674Z"/>
      <path class="cls-1" d="M583.2206,489.3462c-1.6915-3.7593-6.0897-6.2306-10.2687-5.2435-5.0954,1.2037-7.5754,7.0079-6.5544,11.5796.7943,3.5567,3.9068,7.2601,8.0838,7.4283,4.685.1889,7.4903-4.199,7.8653-4.8067.3799-.6159,2.797-4.6838.8739-8.9578Z"/>
      <path class="cls-1" d="M529.3003,506.7008c-.482-2.2534-2.8796-4.5842-5.2174-4.0435-2.5322.5857-3.1006,4.1024-3.1304,4.3043-.0552.3746-.446,3.0253,1.1739,4.3044,2.0281,1.6014,6.0587.146,7.0435-2.3479.3844-.9735.2073-1.8583.1304-2.2174Z"/>
      <path class="cls-1" d="M510.5176,544.2661c.1135-2.1522-3.4825-4.8962-6.3913-3.9131-1.5753.5325-2.9454,2.157-3,4.0435-.0061.2111-.0333,2.2065,1.4348,3.2609,1.8109,1.3004,4.2943.0181,5.0869-.3912.7651-.3951,2.7873-1.4392,2.8696-3Z"/>
      <path class="cls-1" d="M478.4633,550.0705c-.8942-1.3632-2.68-1.6372-3.913-1.2717-2.2686.6724-3.6309,3.7955-2.5435,5.4783,1.0692,1.6547,4.3987,1.7495,5.9674,0,.8909-.9937,1.4106-2.8018.4891-4.2065Z"/>
      <path class="cls-1" d="M469.6916,595.2661c-.6638-1.5497-2.9107-2.4902-4.6957-1.5653-1.4136.7324-2.1974,2.4586-1.6956,4.0435.4496,1.42,1.8171,2.3651,3.1304,2.3479,2.2261-.0291,4.1199-2.8203,3.2609-4.826Z"/>
      <path class="cls-1" d="M416.735,585.4834c-2.4346-1.2975-5.9247.2653-6.4565,2.5436-.2908,1.2455.3351,2.5654,1.174,3.326,2.1055,1.9092,6.548,1.1974,7.4348-1.174.5965-1.5951-.4691-3.7987-2.1522-4.6957Z"/>
      <path class="cls-1" d="M378.2567,604.7879c-1.3435-1.9397-4.3678-2.2401-6.2609-1.3044-3.7966,1.8766-3.9837,9.1898-1.5652,10.6957,1.7238,1.0732,5.0847-.6084,6.7826-2.8695.2272-.3026,2.8556-3.9054,1.0435-6.5217Z"/>
      <path class="cls-1" d="M327.1263,599.7661c-2.6228-2.6495-9.4408-.262-9.9783,2.7391-.3233,1.8052,1.6202,3.8625,3.5218,4.6956,1.8932.8293,4.9807.9865,6.6522-1.1738,1.4902-1.926,1.2015-4.8495-.1957-6.2609Z"/>
      <path class="cls-1" d="M299.735,614.7008c-.5556-.6243-1.5394-1.1516-2.4782-.913-1.6186.4114-2.6484,2.9835-1.5652,4.4347.8755,1.1729,3.0333,1.4819,4.1739.2609.9937-1.0637.7513-2.7919-.1304-3.7826Z"/>
      <path class="cls-1" d="M239.2785,606.027c-2.1075-2.1959-6.8868-1.1301-7.8261,1.5652-.665,1.9084.5968,4.6287,2.9348,5.4783,1.6818.6111,3.8373.224,5.0869-1.3696,1.3983-1.7833,1.0843-4.3402-.1956-5.6738Z"/>
      <path class="cls-6" d="M429.5542,468.2947c-19.28,25.28-49.12,41.54-80.43,47.0801-31.31,5.54-63.92.88-93.7-10.27-44.19-16.54-83.2-47.95-106.18-89.1599-22.41-40.1801-28.77-89.5801-14.8-133.3701-1.73,28.67-3.49,77.55,25.73,117.6901,26.14,35.92,60.09,50.9,74.08,56.87,22.11,9.4299,68.14,29.0601,113.74,8.35,4.73-2.15,51.56-24.24,56.87-66.78,3.07-24.5699-8.92-46.2-12.52-52.1801-13.7-22.7799-29.46-24.3899-39.13-48-2.81-6.8398-5.93-17.5499-6-26.0199.13.4401.25.85.38,1.23,3.91,11.66,15.4,18.7101,25.88,25.15,31.39,19.3199,62.53,44.12,73.56,79.28,9.51,30.34,1.79,64.84-17.48,90.1299Z"/>
      <path class="cls-5" d="M302.0829,174.6139c-11.0942-11.381-26.3076-11.1257-36.3914-10.9566-25.3385.4252-43.0967,14.7393-48.913,19.5652-5.9677,4.9515-13.761,17.2576-29.3478,41.8696-12.8518,20.2935-16.0675,27.3065-13.6956,34.826,2.263,7.1746,9.2028,13.5107,16.826,14.8696,10.6788,1.9034,16.5307-7.0596,34.4348-17.6088,9.9788-5.8795,7.9842-2.9912,44.6087-18,33.5037-13.7299,37.2749-17.0084,39.913-21.913,6.83-12.6976,3.4688-31.4669-7.4348-42.6522Z"/>
      <path class="cls-5" d="M174.7785,291.2226c-5.8167-3.1622-15.0828,1.2988-20.3478,6.2609-12.8467,12.1074-8.9168,33.8364-6.2609,48.5219,2.4394,13.488,4.1252,22.809,11.4783,26.0869,9.8512,4.3916,25.5105-4.0088,29.7391-15.1305,3.2969-8.671-2.8792-12.3561-7.3044-34.4347-3.9188-19.5521-1.3626-28.0742-7.3044-31.3044Z"/>
    </g>
  </g>
</svg>