<?xml version="1.0" encoding="UTF-8"?>
<svg id="Capa_2" xmlns="http://www.w3.org/2000/svg" viewBox="0 0 601.9168 638.7105">
  <defs>
    <style>
      .cls-1 {
        fill: #44911c;
      }

      .cls-2 {
        fill: #639648;
      }

      .cls-3 {
        fill: #367710;
      }

      .cls-4 {
        fill: #57a529;
      }

      .cls-5 {
        fill: #acd696;
      }

      .cls-6 {
        fill: #94c67d;
      }

      .cls-7 {
        fill: #56843c;
      }

      .cls-8 {
        fill: #70a856;
      }

      .cls-9 {
        fill: #7bb662;
      }
    </style>
  </defs>
  <g id="Capa_1-2" data-name="Capa_1">
    <g>
      <g>
        <path class="cls-9" d="M593.8886,292.531c.0103.01.0103.02,0,.03-.1499,8.96-1.4099,18.5-4.4299,27.84-1.6499,5.11-6.1099,18.92-18.6899,23.01-9.1699,2.98-19.9299-.09-26.1501-6.38-3.8999-3.96-4.23-7.39-8.1199-19.28-2.28-6.97-6.28-19.21-10-26.43-6.29-12.21-18.6301-23.4-32.5701-27.9-19.9299-6.44-37.98,2.45-52.98,9.84-28.4099,13.99-43.51,35.83-48.1099,42.98-17.53,27.27-19.3301,54.33-19.21,71.3-.0103.24-.0103.49,0,.72.02,2.04.0598,3.93.1099,5.65.53,19.94,1.29,48.39,21.0801,65.69,9.45,8.26,21.5801,12.53,25.1499,13.79,9.3999,3.31,19.3101,6.8,30.6602,3.72,6.5898-1.78,11.0298-5.06,17.6699-9.96,2.4299-1.8,9.3398-7.1,17.02-16.26,9.8499-11.75,9.4399-16.1,18.22-23.82,5.73-5.04,10.0999-8.89,15.8401-8.69,10.6099.35,18.97,14.28,21.6399,25.01.8201,3.32,1.1101,6.44.98,9.79-.25,5.79-1.78,12.25-4.0601,21.61-1.6899,6.96-4.28,17.63-9.49,28.55-14.3198,30.03-40.79,45.96-48.6899,50.58-.3401.2-.6899.39-1.04.57-.6399.33-1.3101.62-2.01.8799-.22.1-.4399.1801-.6699.25-.1201.0601-.24.1-.3601.13-.24.09-.47.17-.72.2401-.1199.04-.25.08-.3799.11-.27.09-.5601.17-.8401.25-.8799.24-1.8.46-2.76.65-.3101.06-.6299.13-.95.1801-.78.15-1.5801.28-2.4199.41-.7002.11-1.4202.21-2.1602.31-.1299.01-.26.03-.3999.05-.9302.12-1.8901.23-2.8801.35-1.1899.13-2.4299.27-3.72.41-.6299.07-1.28.14-1.9299.21-3.0701.33-6.4099.7-10.05,1.19-.6199.08-1.24.17-1.8799.2599-.6802.09-1.3601.19-2.0601.3-2.1699.32-4.4399.69-6.8201,1.11-.6899.13-1.3799.26-2.0798.39-.6802.13-1.3601.26-2.0601.4-.1101.02-.22.04-.3301.07-.72.14-1.46.29-2.2.45-.22.04-.4399.09-.6702.14-.6899.15-1.3899.3-2.1099.46-.1699.04-.3501.08-.52.12-.9399.21-1.8999.44-2.8701.67-2.6399.63-5.3899,1.35-8.25,2.14-.1499.04-.3599.1-.6099.1801-.29.08-.5801.16-.8599.25-.29.08-.5801.16-.8601.2599-1.96.59-3.71,1.2-5.3101,1.83-.8201.32-1.6599.66-2.5,1.03-1.6299.72-3.1101,1.45-4.52,2.2-.21.11-.4199.22-.6199.33-.21.11-.4102.22-.6101.33-.3699.2-.75.41-1.1199.62-.05.03-.1001.06-.1602.09-.3499.2-.6899.39-1.04.59-.1599.09-.3098.18-.47.27-.02.01-.03.02-.05.03-.52.3-1.0498.6-1.5798.9-.02.01-.04.02-.0601.03-.1599.09-.3101.17-.47.27-.22.12-.45.25-.6799.38-.2102.11-.4202.23-.6401.35-.5798.33-1.1699.65-1.79.98-1.6599.88-3.4598,1.7799-5.5196,2.7099-4.8091,2.1713-9.9446,3.7604-14.937,5.5315-.5047.179-1.0187.3631-1.4431.6897-.5889.4532-.9479,1.1343-1.3107,1.7829-3.3978,6.075-8.6725,11.1125-14.9333,14.1664-5.9822,2.918-11.8188,5.6993-17.2975,9.5455-.9265.6504-1.8423,1.3162-2.7488,1.9942-13.4099,10.03-16.3699,16.52-24.4099,16.73-7.8601.2-14.4399-5.73-18.8-10.83-13.1599-16.92-20.99-18.83-25.6199-17.71-11.7603,2.84-44.4502,24.34-54.4802-4.84-.8699-2.53-1.5698-5.44-2.0698-8.78-.1902-1.3-.3601-2.66-.49-4.09-1.3-14.08-20.03-15.59-21.5901-15.87-2.46-1.21-8.3501-3.64-15.5701-2.34-2.3799.43-7.99,1.44-11.5499,5.9-1.11,1.39-.5599,2.97-1.12,4.76-.0901.3-.21.6-.38.91-.38.7-.9801,1.44-1.9501,2.21-9.4399,7.48-25.1299,1.73-26.27-8.25-.1199-1.02-.0898-2.09.1201-3.19.35-1.83,1.49-3.44,1.6599-5.38.22-2.43-.1099-5.0099-.8599-7.46-.3-1.03-.6802-2.03-1.1201-2.99-.58-1.29-1.28-2.51-2.0601-3.59-4.74-6.57-12.6299-8.57-19.3799-10.28-7.14-1.8-8.95-.64-14.0801-3.15-2.54-1.23-8.7999-4.29-11.3199-10.5-2.75-6.78,2.0399-9.74,0-19.18-1.51-7-5.48-11.55-6.89-13.12-2.6799-3-5.87-6.58-11.3101-7.58-.6899-.13-7.7,2.64-14.76-1.17-11.3398-6.13-7.1399-21.09-5.4199-22.74,2.27-2.17,6.5701-6.29,7.38-12.3,1.13-8.4-5.2001-15.63-7.38-18.11-4.0901-4.68-6.48-4.64-7.87-7.97-2.77-6.62,2.59-11.55,4.9501-17.21,5.3298-12.84-16.5801-31.59-21.55-37.03-9.6001-10.5099-12.3201-18.02-8.8501-32.03,2.6901-10.82,18.51-18.03,16.9501-20.36-3.27-4.85-8.5599-13.51-9.9301-19.48-1.3099-5.65,1.5601-9.45,5.24-13.93,3.6801-4.48,8.25-8.24,11.3501-13.14,10.1199-15.95,1.84-29.93-7.8201-41.61-13.05-15.79,17.3101-26.8,21.7-29.56,7.0601-4.44,11.8-13,10.77-21.41-.5699-4.59-2.5599-9.28-1.1299-13.67,1.4099-4.3799,6.48-7.22,10.95-6.14,3.23.77,5.85,3.22,9.0601,4.03,8.1599,2.07,14.9199-7.12,16.1599-15.45,1.24-8.33-8.6599-21.03-4.78-28.5,5.0601-9.72,26.16-10.12,30.71-20.1,3.2001-7.01,5.3501-10.67-.5299-15.66-5.7101-4.85,4.7799-25.01,14.61-17.83,6.54,4.78,8.36,7.14,16.39,4.95,9.26-2.53,4.4601-15.16,11.2001-19.87,6.1899-4.33,8.6299-11.1,6.1899-17.36-3.9-9.98,16.1599-17.8,22.28-5.69,1.1399,2.25,1.21,6.69,4.52,9.35,3.48,2.79,7.95,2.4,12.7898,1.97,4.9001-.44,7.02-1.58,14.27-3.45,4.55-1.17,7.4001-1.84,11.3701-2.46,6.1001-.95,9.23-1.41,12.74-.49,4.6301,1.22,4.3899,3.13,8.8501,4.43,4.3899,1.27,10.1499,1.03,14.97-1.97,1.3699-.85,10.74-6.14,7.6699-11.81-8.8101-16.29,13.3601-17.86,19.1899-4.92.9102,2.01,3.5901,8.09,9.0901,9.84,2.53.8,4.6699,5.91,14.76,3.44,9.71-2.3701,9.8301-4.77,11.3501-6.65,12.1299-15.07,23.2397,7.22,23.8398,8.62,2.5801,6.04,11.8701,7.15,13.78,7.38,2.8601.35,5.5901.68,7.3801-.98,2.47-2.3.7598-5.55,4.3699-9.87,9.26-11.09,25.8301,1.04,21.03,10.85-1.6799,3.44-1.03,8.83,1.8501,12.3,2.3599,2.85,5.6299,3.44,11.1299,4.43,5.22.94,9.9199.9,13.77.49,6.45-.67,8.6899-1.35,11.25-1.71,1.1399-.16,2.3501-.25,4.01-.25,2.6699-.01,11.1599-.03,17.96,4.94,6.01,4.39,4.1599,7.88,13.28,20.42,5.5601,7.64,9.5,10.81,10.8899,11.88,4.4402,3.44,8.24,6.37,13.6101,6.88,7.3799.69,8.8899-.89,11.6099-2.62.55-.36,1.1501-.72,1.8601-1.07l.0601-.03c24.3-11.85,29.8499,17.9,21.1499,29.56-1.0598,1.4301-2.3401,2.59-3.8298,3.37-7.0801,3.7-.3301,16.42,1.25,19.46.0398.06.0598.12.0898.18s.0601.11.0801.16c.02.05.04.09.0601.13,2.8298,5.96,5.0898,5.38,8.1199,11.0699,4.53,8.51,3.47,17.38,2.6702,24.0601-.7603,6.33-1.3801,11.47-3.1702,15.6299.6599.9301,1.3601,1.85,2.1101,2.77.1899.23.3799.45.5798.68.5701.68,1.1902,1.36,1.8401,2.04,27.1699,28.24,30.98,30.56,42.26,46.44,1.3,1.83,2.75,4.99,4.0801,9.14,2.5898,8.06,4.75,19.85,4.5398,32.9Z"/>
        <path class="cls-5" d="M281.8758,8.0146c4.8926,0,10.7113,2.8843,13.3027,8.6364.9102,2.01,3.5901,8.09,9.0901,9.84,2.0447.6465,3.8359,4.1086,9.7733,4.1086,1.4094,0,3.051-.1948,4.9867-.6686,9.71-2.37,9.8301-4.77,11.3501-6.65,3.0406-3.7776,6.0172-5.2077,8.7802-5.2077,8.2592,0,14.61,12.7786,15.0597,13.8277,2.5801,6.04,11.8701,7.15,13.78,7.38,1.1768.144,2.3318.2846,3.4081.2846,1.5397,0,2.9186-.2876,3.972-1.2646,2.47-2.3.7598-5.55,4.3699-9.8701,2.6185-3.136,5.8217-4.4153,8.9607-4.4153,7.9619,0,15.512,8.2294,12.0693,15.2653-1.6799,3.44-1.03,8.83,1.8501,12.3,2.3599,2.85,5.6299,3.44,11.1299,4.43,3.0627.5515,5.9464.7657,8.5845.7657,1.8582,0,3.5945-.1063,5.1855-.2757,6.45-.67,8.6899-1.35,11.25-1.71,1.1399-.16,2.3501-.25,4.01-.25.1249-.0005.2625-.001.412-.001,3.0482,0,11.0658.2033,17.548,4.941,6.01,4.39,4.1599,7.88,13.28,20.42,5.5601,7.64,9.5,10.81,10.8899,11.88,4.4402,3.44,8.24,6.37,13.6101,6.88,1.2148.1136,2.2711.1657,3.1993.1657,4.7109,0,6.1383-1.3405,8.4105-2.7857.55-.36,1.1501-.72,1.8601-1.07.02-.01.04-.02.0601-.03,3.9126-1.908,7.3402-2.7375,10.2993-2.7377,15.4197-.0011,18.1498,22.5151,10.8506,32.2977-1.0598,1.43-2.3401,2.59-3.8298,3.37-7.0801,3.7-.3301,16.42,1.25,19.46.0398.06.0598.12.0898.18s.0601.11.0801.16c.02.05.04.09.0601.13,2.8298,5.96,5.0898,5.38,8.1199,11.07,4.53,8.51,3.47,17.38,2.6702,24.06-.7603,6.33-1.3801,11.47-3.1702,15.63.6599.93,1.3601,1.85,2.1101,2.77.1899.23.3799.45.5798.68.5701.68,1.1902,1.36,1.8401,2.04,27.1699,28.24,30.98,30.56,42.26,46.44,1.3,1.83,2.75,4.99,4.0801,9.14,2.5898,8.06,4.75,19.85,4.5398,32.9.0103.01.0103.02,0,.03-.1499,8.96-1.4099,18.5-4.4299,27.84-1.6499,5.11-6.1099,18.92-18.6899,23.01-2.4055.7817-4.922,1.1473-7.4358,1.1473-7.0686,0-14.1259-2.8873-18.7144-7.5273-3.8999-3.96-4.23-7.39-8.1199-19.28-2.28-6.97-6.28-19.21-10-26.43-6.29-12.21-18.6301-23.4-32.5701-27.9-4.828-1.5601-9.5465-2.2205-14.1372-2.2206-14.3597-.0002-27.4766,6.4608-38.8428,12.0606-28.4099,13.99-43.51,35.83-48.1099,42.98-17.53,27.27-19.3301,54.33-19.21,71.3-.0103.24-.0103.49,0,.72.02,2.04.0598,3.93.1099,5.65.53,19.94,1.29,48.39,21.0801,65.69,9.45,8.26,21.5801,12.53,25.1499,13.79,6.8376,2.4078,13.9459,4.9109,21.6814,4.9109,2.8988,0,5.8849-.3513,8.9788-1.1909,6.5898-1.78,11.0298-5.06,17.6699-9.96,2.4299-1.8,9.3398-7.1,17.02-16.26,9.8499-11.75,9.4399-16.1,18.22-23.82,5.5869-4.9142,9.8817-8.6974,15.4136-8.6974.1417,0,.2832.0025.4265.0074,10.6099.35,18.97,14.28,21.6399,25.01.8201,3.32,1.1101,6.44.98,9.79-.25,5.79-1.78,12.25-4.0601,21.61-1.6899,6.96-4.28,17.63-9.49,28.55-14.3198,30.03-40.79,45.96-48.6899,50.58-.3401.2-.6899.39-1.04.57-.6399.33-1.3101.62-2.01.88-.22.1-.4399.18-.6699.25-.1201.06-.24.1-.3601.13-.24.09-.47.17-.72.24-.1199.04-.25.08-.3799.11-.27.09-.5601.17-.8401.25-.8799.24-1.8.46-2.76.65-.3101.06-.6299.13-.95.18-.78.15-1.5801.28-2.4199.41-.7002.11-1.4202.21-2.1602.31-.1299.01-.26.03-.3999.05-.9302.12-1.8901.23-2.8801.35-1.1899.13-2.4299.27-3.72.41-.6299.07-1.28.14-1.9299.21-3.0701.33-6.4099.7-10.05,1.19-.6199.08-1.24.17-1.8799.26-.6802.09-1.3601.19-2.0601.3-2.1699.32-4.4399.69-6.8201,1.11-.6899.13-1.3799.26-2.0798.39-.6802.13-1.3601.26-2.0601.4-.1101.02-.22.04-.3301.07-.72.14-1.46.29-2.2.45-.22.04-.4399.09-.6702.14-.6899.15-1.3899.3-2.1099.46-.1699.04-.3501.08-.52.12-.9399.21-1.8999.44-2.8701.67-2.6399.63-5.3899,1.35-8.25,2.14-.1499.04-.3599.1-.6099.18-.29.08-.5801.16-.8599.25-.29.08-.5801.16-.8601.26-1.96.59-3.71,1.2-5.3101,1.83-.8201.32-1.6599.66-2.5,1.03-1.6299.72-3.1101,1.45-4.52,2.2-.21.11-.4199.22-.6199.33-.21.11-.4102.22-.6101.33-.3699.2-.75.41-1.1199.62-.05.03-.1001.06-.1602.09-.3499.2-.6899.39-1.04.59-.1599.09-.3098.18-.47.27-.02.01-.03.02-.05.03-.52.3-1.0498.6-1.5798.9l-.0601.03c-.1599.09-.3101.17-.47.27-.22.12-.45.25-.6799.38-.2102.11-.4202.23-.6401.35-.5798.33-1.1699.65-1.79.98-1.6598.88-3.4598,1.7799-5.5195,2.7099-4.8091,2.1713-9.9446,3.7604-14.937,5.5314-.5046.1791-1.0187.3631-1.4431.6897-.5889.4533-.9479,1.1343-1.3107,1.7829-3.3978,6.075-8.6725,11.1125-14.9332,14.1664-5.9822,2.918-11.8187,5.6993-17.2976,9.5455-.9265.6504-1.8423,1.3161-2.7488,1.9942-13.4099,10.03-16.3699,16.52-24.4099,16.73-.129.0033-.2589.0049-.3873.0049-7.6895,0-14.1241-5.8187-18.4127-10.8349-11.2659-14.4849-18.6263-17.9693-23.4161-17.9696-.8053,0-1.5374.0984-2.2037.2596-7.124,1.7204-21.9316,10.2897-34.7267,10.2897-8.3268,0-15.7994-3.6262-19.7535-15.1297-.8699-2.53-1.5698-5.44-2.0698-8.78-.1902-1.3-.3601-2.66-.49-4.09-1.3-14.08-20.03-15.59-21.5901-15.87-1.9652-.9667-6.12-2.7119-11.3928-2.712-1.3273,0-2.7252.1106-4.1772.372-2.3799.43-7.99,1.44-11.5499,5.9-1.11,1.39-.5599,2.97-1.12,4.76-.0901.3-.21.6-.38.91-.38.7-.9801,1.44-1.9501,2.21-2.9908,2.3699-6.6093,3.4118-10.1934,3.4118-7.7283,0-15.2977-4.8438-16.0767-11.6618-.1199-1.02-.0898-2.09.1201-3.19.35-1.83,1.49-3.44,1.6599-5.38.22-2.43-.1099-5.01-.8599-7.46-.3-1.03-.6802-2.03-1.1201-2.99-.58-1.29-1.28-2.51-2.0601-3.59-4.74-6.57-12.6299-8.57-19.3799-10.28-7.14-1.8-8.95-.64-14.0801-3.15-2.54-1.23-8.7999-4.29-11.3199-10.5-2.75-6.78,2.0399-9.74,0-19.18-1.51-7-5.48-11.55-6.89-13.12-2.6799-3-5.87-6.58-11.3101-7.58-.016-.003-.0356-.0045-.0585-.0045-.5542-.0001-3.0812.8559-6.4484.8559-2.4514,0-5.3479-.4536-8.2532-2.0214-11.3398-6.13-7.1399-21.09-5.4199-22.74,2.27-2.17,6.5701-6.29,7.38-12.3,1.13-8.4-5.2001-15.63-7.38-18.11-4.0901-4.68-6.48-4.64-7.87-7.97-2.77-6.62,2.59-11.55,4.9501-17.21,5.3298-12.84-16.5801-31.59-21.55-37.03-9.6001-10.51-12.3201-18.02-8.8501-32.03,2.6901-10.82,18.51-18.03,16.9501-20.36-3.27-4.85-8.5599-13.51-9.9301-19.48-1.3099-5.65,1.5601-9.45,5.24-13.93,3.6801-4.48,8.25-8.24,11.3501-13.14,10.1199-15.95,1.84-29.93-7.8201-41.61-13.05-15.79,17.3101-26.8,21.7-29.56,7.0601-4.44,11.8-13,10.77-21.41-.5699-4.59-2.5599-9.28-1.1299-13.67,1.2067-3.7488,5.0955-6.3698,8.9935-6.3698.6564,0,1.3123.0742,1.9564.2298,3.23.77,5.85,3.22,9.0601,4.03.7909.2007,1.5699.2956,2.3308.2956,7.089,0,12.7094-8.223,13.8291-15.7456,1.24-8.33-8.6599-21.03-4.78-28.5,5.0601-9.72,26.16-10.12,30.71-20.1,3.2001-7.01,5.3501-10.67-.5299-15.66-4.8618-4.1295,2.022-19.3597,10.2419-19.3597,1.4342,0,2.9077.463,4.368,1.5297,4.8655,3.5561,7.1194,5.7731,11.2606,5.7731,1.4252,0,3.0734-.2623,5.1294-.8231,9.26-2.53,4.4601-15.16,11.2001-19.87,6.1899-4.33,8.6299-11.1,6.1899-17.36-2.4868-6.3636,4.7687-11.8493,11.9396-11.8493,4.0752,0,8.1227,1.7711,10.3405,6.1593,1.1399,2.25,1.21,6.69,4.52,9.35,2.2357,1.7924,4.8801,2.2723,7.7687,2.2723,1.6075,0,3.2906-.1486,5.0211-.3024,4.9001-.44,7.02-1.58,14.27-3.45,4.55-1.17,7.4001-1.84,11.3701-2.46,3.7828-.5891,6.4236-.9898,8.7209-.9898,1.4073,0,2.6857.1503,4.019.4998,4.6301,1.22,4.3899,3.13,8.8501,4.43,1.6036.4639,3.3901.7263,5.2468.7263,3.226,0,6.6638-.7922,9.7231-2.6964,1.3699-.85,10.74-6.14,7.6699-11.81-4.8938-9.0488-.2268-13.5564,5.8872-13.5564M281.8758,0c-6.0157,0-11.2233,2.7111-13.9299,7.2521-1.6155,2.7102-3.6167,8.321.1417,16.4361-.6084.5952-1.7102,1.4971-3.666,2.6821l-.3285.2005c-1.9829,1.2342-4.0833,1.492-5.4977,1.492-1.0465,0-2.0907-.142-3.0194-.4107-.7936-.2313-.9591-.3533-1.7545-.9396-1.3654-1.0061-3.4286-2.5266-7.2808-3.5416-1.9653-.5151-3.9448-.7643-6.0612-.7643-2.9855,0-6.0607.4789-9.9542,1.0853-4.235.6613-7.2863,1.3708-12.1328,2.617-2.5992.6704-4.5894,1.2565-6.1885,1.7275-2.899.8538-4.3542,1.2823-6.8024,1.5021-1.5612.1387-3.0431.2703-4.3043.2703-2.1182,0-2.5978-.3844-2.7554-.5107-.2893-.3124-.7051-1.8181-.9285-2.6268-.3467-1.2561-.7397-2.6796-1.4554-4.0923-3.3379-6.6045-9.8774-10.5518-17.4899-10.5518-7.1415,0-14.1102,3.4478-17.754,8.7837-2.8781,4.2148-3.4795,9.3166-1.6504,13.9974,1.578,4.0488-2.1415,7.0517-3.3191,7.8755-5.7083,3.9891-6.8604,10.1234-7.7017,14.6026-.254,1.3526-.6279,3.3436-1.0109,4.1019l-.0059.0016c-1.6351.4459-2.5436.5397-3.0172.5397-.7393,0-1.4097-.405-4.4835-2.7083-.6346-.4757-1.3125-.9835-2.0477-1.5208-2.7537-2.0113-5.8987-3.0735-9.0973-3.0735-8.8135,0-15.5928,7.7153-18.4019,15.3615-2.7346,7.4438-1.6238,14.2181,2.9716,18.1212.37.314.6179.5595.7789.735-.2823.9895-1.1312,2.834-1.8344,4.3614l-.5171,1.1268c-.9695,2.1264-6.8265,4.4431-11.103,6.1347-7.2893,2.8833-15.5511,6.1512-19.4252,13.5928-3.7745,7.2672-.9301,15.1152,1.5796,22.0394,1.1125,3.0697,2.6364,7.2739,2.3822,8.9814-.7194,4.8329-4.1368,8.911-5.9019,8.911-.111,0-.2289-.0162-.3605-.0496-.5803-.1465-1.5808-.7016-2.5483-1.2384-1.746-.9687-3.9188-2.1744-6.6235-2.8191-1.2233-.2956-2.5146-.4483-3.8149-.4483-7.5264,0-14.3618,4.9052-16.6227,11.9287-1.6683,5.1218-.6473,9.8974.1731,13.7347.2611,1.2213.5078,2.3748.6324,3.3785.6044,4.9352-2.3738,10.6764-7.0833,13.638-.3318.1985-1.5597.7947-2.5464,1.2737-8.0571,3.9117-23.0544,11.1929-25.7316,23.5069-.8655,3.9813-.7585,10.1052,4.6669,16.6697,11.2675,13.6233,13.2941,22.6536,7.2305,32.2105-1.4961,2.3647-3.6394,4.6071-5.9083,6.9811-1.6089,1.6834-3.2726,3.424-4.8673,5.3653-3.6284,4.4173-9.1116,11.0925-6.8545,20.8274,1.2324,5.3702,4.6306,11.8,7.7115,16.8742-5.187,4.2027-12.5106,10.4083-14.7019,19.222-4.5051,18.1894.5159,28.2081,10.7104,39.3689.8403.9199,1.9266,1.9992,3.3021,3.3657,3.6079,3.5845,9.0603,9.0015,12.8838,14.5504,3.2412,4.7037,4.6914,8.6798,3.8795,10.6361-.4355,1.0442-1.1481,2.268-1.9025,3.5636-2.625,4.5083-6.592,11.3213-3.0389,19.8126,1.5824,3.7908,4.0298,5.6661,5.8168,7.0354,1.0735.8225,2.0874,1.5995,3.412,3.1151,1.5245,1.7345,6.1183,6.9606,5.4716,11.7674-.436,3.2362-3.2773,5.9523-4.975,7.5752-3.8474,3.6908-5.269,12.3297-4.4264,18.5551,1.0144,7.4951,5.1245,13.5426,11.5731,17.0286,3.6727,1.982,7.7301,2.9856,12.0643,2.9856,2.5759,0,4.783-.3656,6.2308-.6586,1.9839.7408,3.4948,2.3451,5.595,4.696,2.63,2.9285,4.3184,6.1096,5.0469,9.4866.6461,2.9906.27,4.729-.2506,7.1351-.6995,3.2322-1.6573,7.6588.6581,13.3673,3.694,9.1031,12.3947,13.3164,15.2537,14.7009,4.2014,2.0557,7.0901,2.3888,9.8838,2.711,1.6084.1855,3.2714.3773,5.7302.9971,5.7986,1.469,11.8041,2.9904,14.8395,7.1978.4628.6407.894,1.3958,1.2496,2.1869l.012.0266.0122.0266c.2914.6355.5306,1.2723.7113,1.8926l.0153.0522.0159.0519c.4509,1.4729.6458,2.9766.5527,4.2529-.0658.2026-.223.5916-.3418.8854-.387.9573-.9169,2.2683-1.2194,3.8501-.3574,1.8731-.4271,3.7666-.208,5.6313,1.1992,10.4974,11.7587,18.7407,24.0365,18.7407,5.6771,0,10.9231-1.779,15.1708-5.1447,1.7302-1.3736,3.0797-2.9426,4.0164-4.668.4017-.7326.7426-1.5428.9978-2.3807.3523-1.1384.5004-2.1509.5792-2.9607,1.7988-1.4327,4.4604-1.9136,5.8474-2.1642.9055-.163,1.8333-.2455,2.759-.2455,3.3185.0001,6.1034,1.0273,7.8553,1.8891l1.0118.4976,1.1097.1992c.1735.0312.474.0763.8855.1313,6.165.8248,13.6226,2.9841,14.1398,8.5871.1318,1.45.309,2.9302.5405,4.5133.5616,3.7517,1.3748,7.1833,2.4209,10.2258,4.6184,13.436,14.0699,20.5383,27.3326,20.5383,10.2346,0,20.9474-4.3874,28.7695-7.591,3.1508-1.2904,6.1268-2.5093,7.8385-2.9227.1016-.0245.2029-.0356.3224-.0356.5646,0,5.8451.4178,17.0897,14.8755l.114.1464.1206.1411c7.7385,9.0518,15.983,13.6415,24.5045,13.6415.1963,0,.3947-.0025.592-.0075,8.1792-.2136,13.0229-4.5845,18.6317-9.6454,2.7911-2.5187,5.9548-5.3735,10.3738-8.6786.8663-.6481,1.7252-1.2713,2.5533-1.8525,4.681-3.2862,9.8389-5.7992,15.2993-8.4598l.9071-.4421c7.4054-3.6122,13.7563-9.5149,17.9694-16.6814.8521-.2971,1.7076-.5907,2.5641-.8846,3.896-1.337,7.9247-2.7196,11.875-4.5031,2.0082-.9068,3.9626-1.8663,5.9757-2.9336.683-.3635,1.3235-.7112,1.9526-1.0685l.1995-.1099c.0812-.045.1603-.0898.24-.1315l.1154-.0604.1134-.0641c.1938-.1096.3875-.2194.5728-.3205l.2096-.1143.1466-.0917.0239-.0133.0804-.0402.1791-.1013c.4781-.2707.9559-.5413,1.4271-.8119l.2358-.1179.2124-.1408c.0236-.0136.0471-.0273.0707-.0409l.1376-.0793.0222-.0125.0221-.0127.4781-.2712.4335-.2459c.1145-.0618.2228-.1232.3289-.1856.3036-.1718.6143-.3431.9167-.5068l.0249-.0134.0248-.0137c.1531-.0841.306-.1688.4667-.2529l.0729-.0382.0721-.0397c.1516-.0834.3109-.1662.47-.2496l.0219-.0115.0281-.0148c1.3425-.7142,2.6493-1.3503,3.9948-1.9447.6241-.2749,1.3177-.5604,2.1749-.8949,1.4957-.5888,3.0278-1.1164,4.7067-1.6218l.1943-.0585.191-.0682c.073-.0227.1842-.0509.2948-.0814l.1625-.0448.1614-.0519c.1743-.0561.3557-.1036.5364-.1534l.157-.0433.1552-.0496c.0958-.0307.176-.0543.2334-.0697l.0338-.009.0337-.0093c2.9744-.8215,5.5836-1.4985,7.9766-2.0696l.3951-.0938c.7976-.1893,1.5869-.3769,2.3621-.5501l.0447-.01.0447-.0105.2086-.0481.2374-.0548c.4973-.1105.9849-.216,1.4661-.3202l.5837-.1266.1382-.0302c.0897-.0196.1766-.0401.2637-.0562l.1165-.0216.1428-.03c.6848-.1481,1.3696-.2868,2.036-.4163l.2911-.0567.0754-.0205.0055-.0011c.6771-.1355,1.3348-.2611,1.9928-.3869.6505-.1208,1.3307-.2488,2.0114-.377,2.2966-.4049,4.5011-.7636,6.5533-1.0663l.0375-.0055.0375-.0059c.6344-.0997,1.2506-.1905,1.8672-.272l.0326-.0044.0325-.0045.4236-.0599c.4612-.0653.9136-.1296,1.3658-.1879,3.6787-.4951,7.0272-.8633,9.8806-1.17.6735-.0725,1.326-.1428,1.9585-.2131.7019-.0762,1.4087-.1545,2.0999-.2312l1.6053-.1772.047-.0051.047-.0057.9292-.1114c.6849-.0816,1.3556-.1616,2.012-.2463l.0544-.007.0543-.0078.0314-.0045.0792-.0061.2284-.0309c.7985-.1079,1.5752-.2162,2.3307-.3349.7512-.1163,1.6539-.2605,2.5713-.4345.2903-.0485.5802-.1049.8657-.1623l.2119-.0421c1.1299-.2236,2.2446-.486,3.3462-.7865l.0465-.0126.0464-.0133.1183-.0337c.248-.0704.4985-.143.7427-.219.1653-.045.3328-.0946.5048-.1493.3367-.0991.6345-.1998.8779-.2868.2241-.0701.4448-.1479.6616-.233.3005-.103.5913-.2141.877-.3353.9485-.3609,1.8239-.7499,2.6693-1.1858.5062-.2603.9766-.5184,1.4293-.7846,29.903-17.4878,44.7092-39.0401,51.8613-54.039,5.5665-11.6672,8.2605-22.762,10.043-30.1037,2.4718-10.1471,4.001-16.695,4.28-23.1602.1648-4.2402-.219-8.0606-1.2063-12.0577-3.0411-12.2221-13.312-30.5756-29.1565-31.0982-.2218-.0078-.4561-.0119-.6907-.0119-8.5485,0-14.4448,5.1862-20.6873,10.677-5.7899,5.0909-8.321,9.1321-11.0009,13.4107-2.007,3.2044-4.0824,6.5179-8.0875,11.2956-4.8877,5.8297-10.2992,11.006-15.6486,14.9687-6.3635,4.6958-9.8627,7.278-14.9893,8.6628-2.2683.6156-4.5187.9136-6.8887.9136-6.3658,0-12.5122-2.1644-19.0195-4.4559-9.4731-3.3436-17.0493-7.4677-22.5375-12.2648-17.1499-14.9921-17.8392-40.9297-18.3427-59.8686-.0536-1.8407-.0896-3.6896-.1075-5.5156l-.0013-.14-.0062-.14.0087-.2-.0009-.2181c-.1172-16.5623,1.6147-41.5177,17.9374-66.9095,6.3323-9.8431,20.5894-28.148,44.9087-40.1237,10.691-5.2671,22.807-11.2363,35.302-11.2361,4.0393,0,7.8577.5994,11.673,1.8323,11.3495,3.6638,22.3037,13.0621,27.9097,23.9441,3.4155,6.6291,7.3651,18.7027,9.4869,25.189l.0205.0625c.8192,2.5041,1.4746,4.6172,2.053,6.4815,2.2874,7.3737,3.5472,11.4355,7.9739,15.9303,6.146,6.2149,15.2723,9.9182,24.4247,9.9182,3.4337,0,6.7689-.518,9.9128-1.5397,16.4738-5.3559,22.0178-22.527,23.8397-28.1697,2.7015-8.3549,4.2836-17.3674,4.7133-26.8338l.1045-.1024.0077-3.3813v-.548c.0079-.773.0078-1.5476,0-2.3252v-.4931l-.0061-.006c-.16-11.1424-1.9156-22.6268-4.9255-31.9945-1.076-3.3572-2.8494-8.0535-5.1768-11.3297-8.6862-12.2283-13.3853-17.0162-25.9438-29.8123-4.4407-4.5247-9.9673-10.1559-17.0745-17.5429-.51-.5338-.9537-1.0215-1.3375-1.4713,1.0608-3.9872,1.5823-8.329,2.1595-13.1364.8607-7.1886,2.1609-18.0479-3.5529-28.7816-2.0067-3.7681-3.9434-5.7218-5.3574-7.1482-1.1335-1.1435-1.7051-1.72-2.5853-3.5685-.0682-.1529-.1333-.2867-.1907-.3997-.0613-.1299-.1451-.2993-.2524-.4935h0c-2.7316-5.249-3.3315-7.9708-3.4366-9.1715,2.0566-1.2744,3.8735-2.9681,5.4167-5.0504,6.3259-8.4781,7.2675-22.5444,2.1747-32.6986-3.9479-7.8714-11.0419-12.3858-19.4631-12.3858-4.3384.0003-8.9854,1.1942-13.8134,3.5486l-.0358.0174-.0355.0178-.0599.03c-.8668.4272-1.7133.9118-2.6211,1.5038-.2809.1792-.5509.3567-.8157.5311-1.3678.9011-1.4796.9747-3.2498.9747-.6991,0-1.5243-.044-2.4531-.1309-2.9285-.2781-5.2539-1.9866-9.4478-5.2359-3.4828-2.6811-6.9878-7.058-9.3182-10.2603-3.8732-5.3257-5.5028-8.7471-6.8121-11.4962-1.7559-3.6867-3.4143-7.1689-8.2207-10.6797-5.886-4.3018-13.3811-6.4837-22.2754-6.4837l-.4441.0011c-1.8965-.0001-3.4768.101-5.0919.3277-1.0093.1419-1.9224.3139-2.889.496-1.7946.338-4.0277.7587-8.0751,1.1791-1.458.1552-2.9171.2328-4.3574.2328-2.3997,0-4.8101-.2149-7.1642-.6388-3.0266-.5448-5.8849-1.0593-6.3772-1.6538-.9197-1.1081-1.0763-3.053-.8138-3.6877,2.5709-5.2534,2.1576-11.3134-1.1442-16.6046-3.8573-6.1818-10.9755-10.1761-18.1344-10.1761-5.8186,0-11.1858,2.5901-15.1127,7.2931-2.5674,3.0723-3.5547,5.9603-4.0668,8.0992-.1851-.022-.3721-.0449-.5577-.0677-6.036-.7268-7.375-2.556-7.3837-2.5739-.0836-.1953-8.1776-18.6931-22.4296-18.6931-3.8439,0-9.5704,1.4221-15.0236,8.197-.4561.5641-.8109,1.097-1.0698,1.4861-.0914.1374-.2123.3188-.2758.4048-.1935.1458-1.4124.9612-5.6615,1.9984-1.1946.2924-2.2312.44-3.0863.44-1.3507,0-1.679-.2542-2.9-1.1997-1.0381-.8037-2.4597-1.9045-4.457-2.536-.9067-.2885-2.3787-1.4657-4.1627-5.4101l-.0427-.0943c-4.1512-9.2142-13.3407-13.3449-20.6036-13.3449h0Z"/>
      </g>
      <path class="cls-8" d="M589.4586,320.401c-1.6499,5.11-6.1099,18.92-18.6899,23.01-9.1699,2.98-19.9299-.09-26.1501-6.38-3.8999-3.96-4.23-7.39-8.1199-19.28-2.28-6.97-6.28-19.21-10-26.43-6.29-12.21-18.6301-23.4-32.5701-27.9-19.9299-6.44-37.98,2.45-52.98,9.84-28.4099,13.99-43.51,35.83-48.1099,42.98-19.9202,31-19.53,61.72-19.1001,77.67.53,19.94,1.29,48.39,21.0801,65.69,9.45,8.26,21.5801,12.53,25.1499,13.79,9.3999,3.31,19.3101,6.8,30.6602,3.72,6.5898-1.78,11.0298-5.06,17.6699-9.96,2.4299-1.8,9.3398-7.1,17.02-16.26,9.8499-11.75,9.4399-16.1,18.22-23.82,5.73-5.04,10.0999-8.89,15.8401-8.69,10.6099.35,18.97,14.28,21.6399,25.01,2.25,9.07.51,16.63-3.0801,31.4-1.6899,6.96-4.28,17.63-9.49,28.55-14.3198,30.03-40.79,45.96-48.6899,50.58-.3401.2-.6899.39-1.04.57-.6399.33-1.3101.62-2.01.8799-.22.1-.4399.1801-.6699.25-.1201.0601-.24.1-.3601.13-.24.09-.47.17-.72.2401-.1199.04-.25.08-.3799.11-.27.09-.5601.17-.8401.25-.8799.24-1.8.46-2.76.65-.3101.06-.6299.13-.95.1801-.78.15-1.5801.28-2.4199.41-.7002.11-1.4202.21-2.1602.31-.1299.01-.26.03-.3999.05-.9302.12-1.8901.23-2.8801.35-1.1899.13-2.4299.27-3.72.41-.6299.07-1.27.14-1.9299.21-3.0701.33-6.4099.7-10.05,1.19-.6099.08-1.24.17-1.8799.2599-.6702.09-1.3601.19-2.0601.3-2.1699.32-4.4399.69-6.8201,1.11-.6799.13-1.3799.26-2.0798.39-.6802.13-1.3601.26-2.0601.4-.1101.02-.22.04-.3301.07-.72.14-1.45.29-2.2.45-.22.04-.4399.09-.6702.14-.6899.15-1.3899.3-2.1099.46-.1699.04-.3501.08-.52.12-.9399.21-1.8999.4301-2.8701.67-2.6399.63-5.3899,1.35-8.25,2.14-.1499.04-.3599.1-.6099.1801-.24.0699-.54.16-.8599.25-.29.09-.5801.17-.8601.2599-1.96.59-3.71,1.2-5.3101,1.83-.8201.32-1.6599.66-2.5,1.03-1.6299.72-3.1101,1.45-4.52,2.2-.21.11-.4199.22-.6199.33-.21.11-.4102.22-.6101.33-.3699.2-.75.41-1.1199.62-.05.03-.1001.06-.1602.09-.1299.0699-.26.15-.3999.22-.21.12-.4302.24-.6401.37-.1599.09-.3098.18-.47.27-.02.01-.03.02-.05.03-.2898.16-.5898.33-.8899.5-.23.13-.46.26-.6899.4-.02.01-.04.02-.0601.03-.1599.09-.3101.17-.47.27-.22.12-.45.25-.6799.38-.2102.11-.4202.23-.6401.35-.5798.33-1.1699.65-1.79.98-1.6599.88-3.46,1.78-5.5198,2.71-.4502.2-.9102.4-1.3801.6-.3401.15-.6899.3-1.04.44-.3999.17-.8.33-1.22.5-2.6799,1.07-5.77,2.17-9.4099,3.3-.6401.2-1.29.4-1.9602.6-.0498.01-.0999.03-.1499.04-.3999.12-.8101.24-1.23.37-1.8701.53-3.8799,1.08-6.04,1.63-52.49,13.46-55.8899,16.63-69.72,15.01-20.1199-2.36-35.73-11.73-51.75-21.33-19.74-11.84-28.9099-10.64-45.76-21.2-1.6099-1.01-3.1699-1.95-4.7-2.82-.1899-.12-.3899-.23-.5801-.33-.49-.29-.97-.55-1.4399-.81-.5701-.31-1.1301-.62-1.6899-.91-.4602-.25-.9102-.48-1.3601-.71-.3899-.2-.78-.39-1.1599-.58-.48-.2401-.95-.47-1.4202-.69-2.1599-1.04-6.7456,6.3962-8.7256,5.6162l-21.7021,7.2766c-10.7899-4.27-9.1801-4.0153-18-6.2553,6.4301-1.67,26.4678-20.2475,31.7378-21.9075,19.4399-6.12,38.27-13.87,60.6501-7.43,10.8499,3.13,14.3699,7.24,30.5198,10.96,14.5103,3.34,30.5303,7.02,43.04-.79,11.1201-6.93,6.9102-15.09,18-24.26,17.26-14.26,36.3801-1.9,46.1802-14.08,8.6199-10.73,1.9299-30.44-2.3501-43.05-6.55-19.27-12.99-18.98-16.4399-33.65-3.5901-15.29,1.78-22.52,7.05-50.87,4.97-26.76,1.3799-26.78,5.48-50.87,5.78-34.05,8.74-51.42,21.9099-66.52,23-26.37,60.71-26.98,86.0901-27.39,31.8098-.52,45.97,8.81,50.0798,11.74,7.8701,5.61,9.3501,19.79,18.79,21.13.8101.11,5.4199.68,7.6301-1.96,2.55-3.06.3999-8.67-.5901-11.15-7.21-18.13-28.8501-24.46-37.96-42.85-6.79-13.72,2.8899-14.95-3.52-35.22-5.6401-17.85,5.6617-22.3717-6.8085-49.1517-4.5999-9.88-40.627-16.0845-45.617-27.5745-5.1702-11.91-1.5773-31.5812-5.7872-38.3112,12.83,6.29,37.8467,27.36,45.2766,42.1299,5.0091,9.9576,23.4143,4.3098,31.3394,11.8409,9.4266,8.9579,2.4753,40.4504,6.344,52.983,4.0347,13.0703,5.8161,26.6827,14.8329,37.5836.1799.23.3699.45.5798.68.5701.68,1.1902,1.36,1.8401,2.04,27.1699,28.24,30.98,30.56,42.26,46.44,5.55,7.81,13.8601,39.96,4.1899,69.91Z"/>
      <path class="cls-2" d="M593.8886,292.531c.0103.01.0103.02,0,.03.1101,9.81-1.0798,20.46-4.4299,30.84-1.6499,5.11-6.1099,18.92-18.6899,23.01-9.1699,2.98-19.9299-.09-26.1501-6.38-3.8999-3.96-4.23-7.39-8.1199-19.28-2.28-6.97-6.28-19.21-10-26.43-6.29-12.21-18.6301-23.4-32.5701-27.9-19.9299-6.44-37.98,2.45-52.98,9.84-28.4099,13.99-43.51,35.83-48.1099,42.98-16.53,25.72-19.0701,51.24-19.21,68.3-.0103.24-.0103.49,0,.72-.03,3.22.0398,6.12.1099,8.65.53,19.94,1.29,48.39,21.0801,65.69,9.45,8.26,21.5801,12.53,25.1499,13.79,9.3999,3.31,19.3101,6.8,30.6602,3.72,6.5898-1.78,11.0298-5.06,17.6699-9.96,2.4299-1.8,9.3398-7.1,17.02-16.26,9.8499-11.75,9.4399-16.1,18.22-23.82,5.73-5.04,10.0999-8.89,15.8401-8.69,10.6099.35,18.97,14.28,21.6399,25.01.5701,2.31.8899,4.53.98,6.79-.25,5.79-1.78,12.25-4.0601,21.61-1.6899,6.96-4.28,17.63-9.49,28.55-14.3198,30.03-40.79,45.96-48.6899,50.58-.3401.2-.6899.39-1.04.57-.6399.33-1.3101.62-2.01.8799-.22.1-.4399.1801-.6699.25-.1201.0601-.24.1-.3601.13-.24.09-.47.17-.72.2401-.1199.04-.25.08-.3799.11-.27.09-.5601.17-.8401.25-.8799.24-1.8.46-2.76.65-.3101.06-.6299.13-.95.1801-.78.15-1.5801.28-2.4199.41-.7002.11-1.4202.21-2.1602.31-.1299.01-.26.03-.3999.05-.9302.12-1.8901.23-2.8801.35-1.1899.13-2.4299.27-3.72.41-.6299.07-1.28.14-1.9299.21-3.0701.33-6.4099.7-10.05,1.19-.6199.08-1.24.17-1.8799.2599-.6802.09-1.3601.19-2.0601.3-2.1699.32-4.4399.69-6.8201,1.11-.6899.13-1.3799.26-2.0798.39-.6802.13-1.3601.26-2.0601.4-.1101.02-.22.04-.3301.07-.72.14-1.46.29-2.2.45-.22.04-.4399.09-.6702.14-.6899.15-1.3899.3-2.1099.46-.1699.04-.3501.08-.52.12-.9399.21-1.8999.44-2.8701.67-2.6399.63-5.3899,1.35-8.25,2.14-.1499.04-.3599.1-.6099.1801-.29.08-.5801.16-.8599.25-.29.08-.5801.16-.8601.2599-1.96.59-3.71,1.2-5.3101,1.83-.8201.32-1.6599.66-2.5,1.03-1.6299.72-3.1101,1.45-4.52,2.2-.21.11-.4199.22-.6199.33-.21.11-.4102.22-.6101.33-.3699.2-.75.41-1.1199.62-.05.03-.1001.06-.1602.09-.3499.2-.6899.39-1.04.59-.1599.09-.3098.18-.47.27-.02.01-.03.02-.05.03-.52.3-1.0498.6-1.5798.9-.02.01-.04.02-.0601.03-.1599.09-.3101.17-.47.27-.22.12-.45.25-.6799.38-.2102.11-.4202.23-.6401.35-.5798.33-1.1699.65-1.79.98-1.6599.88-3.46,1.78-5.5198,2.71-.4502.2-.9102.4-1.3801.6-.3401.15-.6899.3-1.04.44-.3999.17-.8.33-1.22.5-2.6799,1.07-5.77,2.17-9.4099,3.3-.6401.2-1.29.4-1.9602.6-.0498.01-.0999.03-.1499.04-.3999.12-.5997.4765-1.0196.6065-.6899,1.29-1.6103,2.2535-2.3305,3.3535h-.0098c-1.53,2.34-3.1201,4.28-4.6501,5.89-8.3499,8.79-13.3101,6.27-29.5,18.38-13.4099,10.03-16.3699,16.52-24.4099,16.73-7.8601.2-14.4399-5.73-18.8-10.83-13.1599-16.92-20.99-18.83-25.6199-17.71-11.7603,2.84-44.4502,24.34-54.4802-4.82v-.02c-.2-3.02-.8899-5.98-2.0698-8.78-.1602-.37-.3201-.73-.49-1.09-6.0901-12.7599-20.03-15.59-21.5901-15.87-2.46-1.21-8.3501-3.64-15.5701-2.34-2.3799.43-7.99,1.44-11.5499,5.9-.51.64-.84,1.19-1.12,1.76-.14.29-.26.59-.38.91-.38.7-.9801,1.44-1.9501,2.21-9.4399,7.48-25.1299,1.73-26.27-8.25.04-.06.0801-.12.1201-.19,1.45-2.4,1.9099-5.36,1.6599-8.38-.2-2.54-.9099-5.12-1.98-7.45.3701-.04.75-.04,1.1201-.01,5.4199.28,11.1299,6.08,17.23,6.37,4.9399.24,10.1399-5.95,15.7-5.36,11.8101,1.2599,23.1001-3.39,26.3301-3.1201,10.48.88,12.5999,4.3101,29.3499,7.82,15.29,3.21,17.8601,1.25,29.3401,3.52,21.47,4.25,22.3899,13.04,39.9199,18,23.7,6.71,46.4302-2.47,58.6899-7.43,21.76-8.8,20.6702-15.88,40.7002-22.3,18.8499-6.05,22.0498-.49,47.74-4.7,17.9099-2.94,43.3599-7.12,59.0798-26.61,2.03-2.51,16.9202-20.97,9.79-34.43-4.3699-8.2401-15.3599-11.55-23.48-11.35-10.6699.25-14.21,6.48-24.6499,11.35-19.6201,9.1299-48.4702,6.4-63.3901-7.44-8.8499-8.2-6.0698-14.05-20.3499-28.56-4.8-4.88-8.75-7.91-11.4802-14.35-3.1499-7.41-2.5298-14.25-1.5698-21.65,3.1199-24.05,7.1599-33.32,9.1299-48.92,2.0801-16.34-.97-17.02.4001-30.13,2.1599-20.73,12.95-49.23,38.73-68.08,24.72-18.07,51.01-18.38,60.27-18,9.3201.37,37.1299,1.49,54.78,20.73,10.4299,11.38,15.2598,23.87,15.2598,23.87,4.77,12.34,3.6602,20.23,10.9602,26.22.5398.45,8.0798,6.47,16.0398,4.31,11.7603-3.19,14.4202-21.53,14.8701-24.66,1.3-9-.6599-15.9-3.9099-27.39-1.75-6.15-4.3301-15.07-9.79-25.04-9.5901-17.55-16.23-16.71-30.6501-36.65-4.4199-6.11-11.7-16.33-17.22-31.31-2.72-7.39-4.05-13.34-5.6899-22.17-.8799-3.34-1.48-6.54-1.6799-9.26-.3501-1.98,3.51-19.03-1.73-28.71-6.1201-11.29-21.52-15.29-22.8101-15.72-10.95-3.64-17.49-11.2-21.45-15.88-7.23-8.57-6.52-11.91-12.25-20.42-4.1501-6.16-8.54-10.4-12.53-13.49,1.1399-.16,2.3501-.25,4.01-.25,2.6699-.01,11.1599-.03,17.96,4.94,6.01,4.39,4.1599,7.88,13.28,20.42,5.5601,7.64,9.5,10.81,10.8899,11.88,4.4402,3.44,8.24,6.37,13.6101,6.88,4.28.4,8.25-.87,11.6099-2.62.6401-.34,1.27-.7,1.8601-1.07l.0601-.03c24.3-11.85,29.8499,17.9,21.1499,29.56-1.47.69-2.76,1.67-3.8298,3.37-4.2402,6.73,0,16.73,1.25,19.46.0398.06.0598.12.0898.18s.0601.11.0801.16c.02.05.04.09.0601.13,2.8298,5.96,5.0898,5.38,8.1199,11.0699,4.53,8.51,3.47,17.38,2.6702,24.0601-.7603,6.33-1.3801,11.47-3.1702,15.6299.6599.9301,1.3601,1.85,2.1101,2.77.1899.23.3799.45.5798.68.5701.68,1.1902,1.36,1.8401,2.04,27.1699,28.24,30.98,30.56,42.26,46.44,1.3,1.83,2.75,4.99,4.0801,9.14-.0801.74-.1702,1.45-.28,2.14,2.51,7.46,4.6899,18.45,4.8198,30.76Z"/>
      <path class="cls-6" d="M390.6647,83.0051c-.6699-3.0981-2.0232-5.7878-3.8984-8.1781-.0835-3.2979-.373-6.7215-.9624-9.8585-.3472-1.8478-.8945-4.1171-.3843-7.1749.9783-5.8607,4.5872-7.0969,5.1211-11.9015.55-4.9482-2.5427-10.2516-4.7368-10.2128-2.052.0363-2.0256,4.7223-6.4973,10.2128-1.7246,2.1176-4.8662,5.9749-9.53,7.1489-9.0203,2.2706-17.72-7.0112-19.7634-9.1915-2.9143-3.1094-6.2913-6.7123-6.4512-11.7446-.1882-5.9185,2.1095-7.7299.4142-9.9986-1.2908-1.7274-3.3172-3.5221-6.0311-1.7461-5.2324,3.4242-1.2053,11.0115-6.0208,16.3404-3.7595,4.1603-10.0603,3.7923-22.5312,3.0638-11.9402-.6974-14.2043-3.6097-14.8523-4.5958-2.0366-3.0993-.5034-6.0355-2.6902-7.6595-2.7202-2.0202-6.0437-3.7367-9.7983-.7072-6.3706,5.14-6.5183,14.473-12.5327,19.6008-4.2742,3.6442-9.3364,4.181-13.2766,4.5989-9.1782.9733-16.4185-2.2982-19.7305-4.0883-14.9053-4.6785-23.6479-2.5464-28.9592.5106-5.8201,3.3499-10.0376,9.2594-16.1614,8.1702-.2122-.0377-4.7502-.9127-6.7314-4.5925-2.6328-4.8902,2.0116-9.6029.0021-13.276-2.4265-4.4353-8.8143-4.1973-13.0292-3.2157-.411.0957-.84.2156-1.1379.5146-.3198.3211-.431.7909-.5036,1.2383-.4312,2.6572.0194,5.3658.2162,8.0506.5308,7.2411-.5252,15.8351-4.5441,22.0612-3.2393,5.0179-8.457,8.3368-13.067,11.9563-4.8501,3.808-10.7049,9.3493-15.9527,3.6838-1.3701-1.4791-9.1093-7.2808-11.1247-4.463-.9943,1.39,4.8689,4.5308,6.6383,11.7447,1.4615,5.9586-.7104,11.2686-1.5319,13.2766-1.5359,3.7548-3.2362,5.3255-9.7021,12.2553-8.3463,8.9449-20.0891,6.5022-21.6406,9.6664-1.7635,3.5967,5.1058,14.7225,3.7683,23.0144-2.4919,15.4495-.6909,17.6655-3.7683,21.4176-3.3293,4.0593-8.5786,5.2955-18.9247,7.7321-8.973,2.1132-10.277.9068-12.5917,3.0853-5.1827,4.8781.0206,12.1828-5.5664,21.5358-.9282,1.5538-4.0173,6.7252-9.7021,8.5271-4.804,1.5227-6.6085-.8988-12.766,0-5.2465.7658-12.6301,3.7928-13.2766,8.1702-.4532,3.0692,2.7822,4.251,7.6595,11.3417,2.7574,4.0088,4.2213,7.4026,7.149,14.1902,3.9001,9.0423,5.8503,13.5634,5.1063,17.4635-.2063,1.0814-.5333,2.0917-7.6595,12.1535-6.4291,9.0776-7.4736,10.106-8.1703,13.0015-1.1995,4.9859.1477,9.2108,1.532,13.5518,3.3638,10.5485,8.243,12.1124,9.1915,18.383.6385,4.2214-.5299,10.4067-8.6809,18.8936-7.0995,10.1602-6.9418,16.269-5.6171,19.9149,3.3387,9.1889,15.7452,7.2873,22.9788,18.8936,6.0946,9.779,3.8665,21.6857,3.5745,23.1391-2.1931,10.9142-8.7251,12.6551-7.6595,19.7727.9758,6.5184,6.6248,6.1969,13.5482,17.8542,3.3584,5.6547,6.8839,11.5907,4.8684,16.9366-1.8302,4.8542-6.7084,5.1885-7.6932,10.2083-.8835,4.5031,2.1851,8.6027,3.0897,9.8113,5.411,7.2291,12.4762,4.9307,20.6854,9.725,12.171,7.1081,8.3965,19.0256,18.9247,25.2751,6.0219,3.5746,15.0009,4.2723,21.9333,2.1742,13.8134,7.8032,30.2354,10.7811,42.4919,4.3442.9828-.5161,15.5072-8.4337,15.6522-22.6957.1301-12.8106-14.7422-21.8963-20.3478-25.826-48.9955-34.3485-59.1654-124.6825-60.261-135.3913-2.2992-22.4744-6.415-62.7051,16.4348-100.9565,13.6891-22.916,38.4435-47.4436,68.087-61.8261,15.3945-7.4692,27.9502-10.1851,47.739-24.2609,19.9341-14.1789,18.4023-19.3957,32.0869-25.8261,19.0366-8.9452,38.9243-6.8023,65.7393-3.913,25.7485,2.7744,33.0239,7.3277,43.8259,1.5652,11.3674-6.064,20.7002-20.3828,18-32.8696Z"/>
      <path class="cls-1" d="M342.2022,282.1873c-11.0901,28.55,2.02,60.28,2.5599,90.9.64,36.05-17.88,72.01-47.92,91.94-11.3,7.49-24.1,12.58-37.3999,15.18-22.0701,4.3-45.5,1.73-65.6901-8.18-24.42-12-43.13-33.35-57.2999-56.57-16.9102-27.72-25.8401-57.01-27.0601-85.75-2.26-52.77,21.45-103.66,69.39-139.47,32.6901-24.42,71.98-39.03,112.1-46.48,13.9099-2.59,28.45-4.31,42.21-1.62,2.6301.52,5.24,1.19,7.8,2.05,16.75,5.61,30.52,19.21,36.8301,35.72,6.2999,16.51,5.1699,35.59-2.5601,51.48-8.8701,18.2-25.63,31.93-32.96,50.8Z"/>
      <path class="cls-9" d="M336.4039,61.0921c-1.0535-.6626-4.1213-2.5922-7.5652-1.5652-3.6738,1.0955-6.0582,5.0436-6,8.8696.0507,3.3243,1.9509,6.9247,5.4783,8.3478,4.1331,1.6675,7.86-.7193,8.3478-1.0435,2.7714-1.8419,4.9933-5.4906,4.174-9.1304-.7051-3.1324-3.3307-4.7838-4.4348-5.4783Z"/>
      <path class="cls-9" d="M365.8822,92.1355c-2.4858-1.8633-6.4037-1.5392-8.0869.7826-1.9525,2.6933-.2253,7.1465,2.8695,8.6087,1.9921.9411,4.8915.8041,6.5217-1.0435,2.0471-2.3202,1.2769-6.4131-1.3043-8.3478Z"/>
      <path class="cls-9" d="M291.5344,82.4834c-1.3918-4.7455-6.8915-6.9259-10.9565-7.0435-6.3199-.1827-10.1527,4.5925-10.4348,4.9565-2.3719,3.0606-4.429,8.6675-1.5652,13.0435,3.0372,4.641,9.4645,4.6203,13.0435,3.6522,3.6704-.9929,5.827-3.3831,6.5217-4.1739.9071-1.0327,4.8369-5.5064,3.3914-10.4348Z"/>
      <path class="cls-9" d="M303.0127,57.179c-1.7985-1.0641-4.7079.1908-5.2174,2.3478-.5161,2.185,1.5978,4.5869,3.6521,4.4348,1.4095-.1044,2.4938-1.389,2.8696-2.6087.4534-1.471.04-3.3785-1.3043-4.1739Z"/>
      <path class="cls-9" d="M316.5127,103.9399c-.4417-2.3476-3.2714-3.6988-5.087-2.9348-2.153.9059-2.7809,4.7441-.9783,6.4565.9648.9166,2.5786,1.179,3.9131.587,1.6176-.7177,2.4502-2.5247,2.1522-4.1087Z"/>
      <path class="cls-9" d="M213.0127,76.3529c-1.6165-1.7774-4.467-1.4424-5.087-1.3696-2.8867.3392-6.4519,2.4991-6.8478,6.0652-.4558,4.1061,3.5278,7.9353,6.6521,7.6304,1.6348-.1595,2.7222-1.4205,3.5217-2.3478,2.2402-2.598,4.033-7.4802,1.761-9.9783Z"/>
      <path class="cls-9" d="M235.7082,105.5051c-1.8396-2.6569-6.2273-2.9828-8.413-1.1739-3.2325,2.6753-1.4353,9.8437,1.7609,10.9565,1.5541.5411,3.1654-.4449,3.7174-.7826,2.7335-1.6726,5.0056-6.009,2.9347-9Z"/>
      <path class="cls-9" d="M201.2735,101.3964c-.8008-.3693-2.9276.9878-2.674,2.413.1378.7741.9655,1.4978,1.8912,1.5.5769.0013,1.2672-.2773,1.5653-.8478.2775-.5311.094-1.0837-.1957-1.9565-.219-.6597-.3284-.9895-.5869-1.1087Z"/>
      <path class="cls-9" d="M170.4908,93.5703c-2.1339-1.6809-5.7302.3639-6,.5217-.714.4178-2.7383,1.6024-3.1304,3.9131-.5198,3.0629,2.3118,5.2557,2.6086,5.4782.2162.162,3.2008,2.3379,5.4783,1.0435,1.5831-.8998,1.8333-2.913,2.087-4.9565.264-2.126.5858-4.7165-1.0436-6Z"/>
      <path class="cls-9" d="M205.1865,134.4616c-2.549-4.2944-7.5789-6.0718-11.9348-5.4783-5.8762.8007-10.6598,5.9344-10.5652,10.5652.1537,7.5222,13.1941,14.4354,19.7609,9.9783,3.9573-2.6859,5.9045-9.7323,2.7391-15.0652Z"/>
      <path class="cls-9" d="M226.8061,128.2986c-.4723-.6805-2.8575-.5633-3.8153.8804-.7852,1.1835-.549,3.1649.587,3.7174.828.4027,1.9712-.033,2.5435-.6848.2561-.2917.4025-1.2093.6848-3.0326.0894-.5773.1046-.7297,0-.8804Z"/>
      <path class="cls-9" d="M162.143,127.2225c-.9974-1.9352-3.4681-3.2253-5.674-2.5435-2.8508.8812-3.2524,4.4358-3.326,5.0869-.0931.8238-.3806,3.3687,1.3696,4.6957,1.9789,1.5003,4.7545.0729,4.8912,0,2.3186-1.2359,4.1305-4.5394,2.7391-7.2391Z"/>
      <path class="cls-9" d="M159.4039,171.4399c.8038-2.905-1.0865-6.1714-3.9131-7.4348-3.0741-1.3741-6.6033-.0874-8.413,2.3478-1.8412,2.4775-2.084,6.3882,0,8.4131,1.7816,1.7311,4.5004,1.3419,5.6738,1.1739.9252-.1324,5.63-.8059,6.6522-4.5Z"/>
      <path class="cls-9" d="M138.6648,151.3855c-.2968-.6501-1.0686-1.412-1.9565-1.2717-.8866.1401-1.3635,1.0968-1.4674,1.7609-.2241,1.4329,1.0482,3.0405,2.0544,2.9348,1.0398-.1093,1.9884-2.0685,1.3695-3.4239Z"/>
      <path class="cls-9" d="M124.0561,179.3964c-1.4633-2.0329-4.5266-2.6807-6.9131-1.8261-3.6993,1.3247-4.2451,5.7122-4.3043,6.2609-.0511.4737-.4836,4.4836,2.0869,6.1304,2.5084,1.607,6.0712-.1927,7.826-1.9565.3885-.3906,2.1652-2.2636,2.2174-5.087.0131-.703.0406-2.1969-.913-3.5217Z"/>
      <path class="cls-9" d="M116.1648,213.7008c-.6732-1.3604-2.3036-2.4806-4.1086-2.3478-2.0659.152-3.5333,1.8845-3.9131,3.5217-.6794,2.9297,1.9871,6.1445,4.3043,6.0652,2.6248-.0898,5.1143-4.4168,3.7174-7.2391Z"/>
      <path class="cls-9" d="M83.0996,213.8964c-2.4771-1.627-5.5105-.0862-5.674,0-2.812,1.4837-4.7172,5.4176-3.1304,8.2174,1.1274,1.9894,3.6497,2.7565,5.6738,2.5435.2921-.0307,3.0261-.3637,4.5-2.7391,1.5618-2.517,1.1237-6.3842-1.3695-8.0217Z"/>
      <path class="cls-9" d="M69.7953,248.1356c-2.2216-1.3174-5.8695-.7536-8.0217,1.3696-3.0079,2.9675-2.6458,8.539.1956,10.9565,1.6683,1.4195,3.7631,1.387,4.8914,1.3696,4.2916-.0665,9.0154-2.9266,9-5.674-.0035-.6295-.2533-.7896-3.7174-5.2826-1.7228-2.2346-1.8555-2.4471-2.3478-2.7391Z"/>
      <path class="cls-9" d="M90.6648,296.0051c1.1714-1.1612.9885-3.0175.9131-3.7826-.317-3.2172-3.0076-4.9754-3.3914-5.2174-.8397-.5295-2.5447-1.6046-4.4348-1.0435-2.2162.6578-3.453,3.1985-3.3912,5.3478.0054.1855.1158,2.6606,2.0869,4.1739.8434.6475,1.6487.8282,2.6088,1.0435,1.5262.3423,4.1445.9296,5.6086-.5217Z"/>
      <path class="cls-9" d="M69.143,308.9181c.0885-2.7689-3.1945-5.1154-5.8695-4.5652-2.2654.466-3.2734,2.8403-3.3914,3.1304-.2166.5324-.9491,2.3336,0,3.9131,1.0848,1.8056,3.4722,1.8322,3.9131,1.8261,2.3284-.0323,5.2657-1.7388,5.3478-4.3044Z"/>
      <path class="cls-9" d="M93.4039,331.3529c.4318-1.6942-.5786-4.0019-2.4783-4.4348-1.8101-.4125-3.4211,1.1066-4.0435,2.4783-.6271,1.382-.6051,3.3965.5217,4.3044,1.632,1.3147,5.3671.1356,6-2.3478Z"/>
      <path class="cls-9" d="M86.0344,382.5486c2.3997-1.3058,2.8051-7.0547-.1957-9.5869-1.9583-1.6525-5.5701-2.1065-7.2391-.1956-1.6591,1.8994-.4711,5.0733.5869,6.6522,1.5797,2.3573,4.9008,4.1899,6.8479,3.1304Z"/>
      <path class="cls-9" d="M111.3713,406.6138c.7477-1.0936-.0164-2.7539-.6848-4.2065-.7968-1.7314-2.0181-4.3856-4.3043-4.5-1.6838-.0843-3.2197,1.2453-3.9131,2.6413-.1145.2305-1.0173,2.1244-.0978,4.0109.8297,1.7021,2.5623,2.2069,3.7174,2.5435.338.0985,4.1262,1.2023,5.2826-.4891Z"/>
      <path class="cls-9" d="M121.3496,432.7334c-.5339-1.4676-1.7417-4.7868-4.5979-5.3804-2.0054-.4168-3.7123.7409-4.2064,1.076-.4186.2839-2.6759,1.8877-2.837,4.7935-.1418,2.5591,1.4448,4.2778,1.8588,4.6956,1.547,1.5613,4.1298,2.5304,6.5543,1.663,1.7201-.6154,3.4613-2.1909,3.7174-4.2065.1222-.9613-.1376-1.6752-.4891-2.6413Z"/>
      <path class="cls-9" d="M103.9039,450.766c1.1383-1.8494-.022-4.0419-.1304-4.2391-1.3621-2.4796-4.4785-2.6082-5.2174-2.6087-.6814-.0005-3.2279-.0023-4.1088,1.6304-.9554,1.7712.7489,4.1689,1.6957,5.1522.4283.4448,1.3558,1.3823,2.8696,1.6957,1.4128.2925,3.8027.1379,4.8912-1.6304Z"/>
      <path class="cls-9" d="M128.6213,485.3964c-.2815-2.0476-1.6127-4.8073-4.3043-5.6087-3.5729-1.0638-6.5748,2.2067-7.0435,2.7391-2.1509,2.444-3.5918,7.0421-1.174,9.7826,1.833,2.0776,5.0426,2.134,7.174,1.4348,3.4093-1.1183,5.8419-4.7538,5.3478-8.3478Z"/>
      <path class="cls-8" d="M296.3604,119.9181c-1.9756-2.4583-5.3951-2.3701-6.2609-2.3478-4.7051.1213-10.7637,3.8278-10.4348,8.7391.222,3.316,3.2839,6.1081,6.5217,6.913,4.1367,1.0284,8.1848-1.2802,10.0435-4.4348,1.3314-2.2597,2.2747-6.2016.1305-8.8696Z"/>
      <path class="cls-8" d="M184.4473,177.6356c-.6746-1.6474-2.8054-2.2105-4.3695-1.8913-1.5992.3264-3.4325,1.7441-3.2609,3.3913.1796,1.7233,2.4358,2.5685,3.8478,2.6739.4445.0332,2.4288.1812,3.4565-1.3043.5735-.829.7014-1.9531.326-2.8696Z"/>
      <path class="cls-8" d="M228.0778,153.929c-1.3015-1.5129-3.9514-2.5277-5.8696-1.2717-1.1312.7406-2.0365,2.2895-1.663,3.7174.5846,2.2345,3.8655,2.507,4.3043,2.5435.3682.0306,3.399.2823,4.2065-1.4674.7019-1.521-.8315-3.3511-.9783-3.5217Z"/>
      <path class="cls-8" d="M133.1865,221.3964c-.6871-1.3224-2.1871-2.0703-3.5217-2.087-2.8459-.0355-5.7572,3.2444-4.9565,6,.4956,1.7057,2.3927,3.1394,4.3044,3,1.4125-.103,2.3342-1.0284,2.739-1.4348,1.0977-1.102,2.488-3.4514,1.4348-5.4782Z"/>
      <path class="cls-8" d="M118.8387,259.8747c3.1641-.8202,5.5896-7.2167,3.1304-11.2174-.9653-1.5704-2.7711-2.9145-4.9564-3.1304-2.9965-.2961-5.9291,1.6056-6.7827,3.9131-1.7153,4.637,4.7736,11.4289,8.6088,10.4348Z"/>
      <path class="cls-8" d="M405.2735,138.0486c-1.8745-4.1046-6.7118-5.9203-10.6957-5.4783-.868.0963-5.6293.7363-7.8262,4.9565-2.5331,4.8659.7843,9.8017,1.0436,10.1739,2.2002,3.1584,6.3718,5.3674,10.4347,4.4348,5.7969-1.3307,9.5334-8.6347,7.0436-14.0869Z"/>
      <path class="cls-8" d="M360.7952,128.6573c-.9316-2.8204-4.4482-3.6099-5.2174-3.7826-3.1908-.7164-7.877.1436-8.8696,3.1304-.9143,2.7513,1.8622,5.6315,2.2174,6,.4891.5074,3.4481,3.4459,7.0435,2.4783,3.3381-.8984,5.8296-4.7885,4.8262-7.8261Z"/>
      <path class="cls-8" d="M415.1865,83.5269c-3.8031-.0288-8.4376,2.7533-8.6086,6.5217-.1741,3.8342,4.3727,6.4824,7.3043,7.3043,4.1501,1.1636,9.7844-.0089,10.9565-3.1304,1.431-3.8112-3.7434-10.6509-9.6522-10.6956Z"/>
      <path class="cls-8" d="M463.9691,137.266c-3.2306-4.2102-9.8439-7.1599-14.6086-4.4348-5.4056,3.0917-4.6158,11.3052-4.4348,12.7826.2281,1.8619.8468,6.9093,5.2174,9.6522,4.0643,2.5507,9.7523,2.0912,13.3043-1.0435,4.9058-4.3293,4.0894-12.3071.5217-16.9565Z"/>
      <path class="cls-8" d="M479.8822,207.7008c2.7844-7.1732-1.6295-17.408-9.3914-22.4348-.6957-.4506-9.7429-6.1083-18.7826-2.087-11.1443,4.9576-14.9285,21.3567-9.3912,29.2174,7.4218,10.5361,32.8324,7.4971,37.5652-4.6956Z"/>
      <path class="cls-8" d="M404.4908,211.3529c.0852-.3679.6698-3.1042-1.1738-5.4783-1.6477-2.1218-4.0521-2.4307-4.9565-2.4782-2.4662-.1296-5.6251,1.0622-6.6522,3.7826-.0588.1558-.9805,2.7211.5217,4.8261,1.1207,1.5705,2.8989,1.9155,3.7827,2.0869,4.214.8176,7.7572-2.1168,8.4781-2.7391Z"/>
      <path class="cls-8" d="M356.817,299.3964c2.9509-3.5667,3.0796-9.2127.1957-12.1304-3.9131-3.959-12.661-2.1747-15.261,3.3261-1.6093,3.4047-.9391,8.3937,2.5436,10.9565,3.9205,2.8851,9.6063,1.3716,12.5217-2.1522Z"/>
      <path class="cls-8" d="M353.0996,481.353c3.3953-5.5292,1.4561-12.5446-3.1305-16.0435-3.3492-2.555-7.8927-3.0692-11.7391-1.5652-4.4725,1.7488-7.8794,6.1779-7.826,11.3478.0483,4.6805,2.9194,8.6838,6.6522,10.5652,5.1941,2.618,12.554,1.3784,16.0435-4.3043Z"/>
      <path class="cls-8" d="M295.5778,529.8747c3.386-2.5072,5.7435-7.1232,4.8912-11.9348-1.0122-5.7145-5.963-8.379-7.2391-9-1.0892-.5301-4.701-2.2877-8.8043-.9783-5.8477,1.8661-7.5439,8.3182-7.826,9.3914-.3517,1.3378-1.6724,6.3609,1.174,10.3696,3.6163,5.0932,12.3074,6.2225,17.8043,2.1522Z"/>
      <path class="cls-8" d="M308.9794,476.6451c-.3098-2.785-2.765-5.3055-5.7661-5.3358-2.529-.0255-4.655,1.7253-5.5079,3.8727-.9455,2.3803-.2614,5.0835,1.463,6.7128.3193.3016,1.6337,1.5079,3.5285,1.5491,3.1257.0679,6.6984-3.0595,6.2825-6.7988Z"/>
      <path class="cls-8" d="M237.0127,502.2225c-.8536-4.774-6.0842-7.255-9.6522-7.8261-.8662-.1387-7.0554-1.1293-10.174,3.1304-2.6754,3.6544-1.1705,8.5499.5217,11.2174.2773.4371,3.3931,5.1813,8.6088,5.2173,5.927.0409,11.7188-6.0178,10.6957-11.7391Z"/>
      <path class="cls-8" d="M173.8822,520.2225c-2.7947-1.5809-7.04-1.6273-8.6086.5217-2.0166,2.7627.5292,8.9636,4.9564,10.4348,2.5436.8452,6.2113.2964,7.5653-2.087,1.6338-2.8757-.8356-7.1286-3.9131-8.8695Z"/>
      <path class="cls-2" d="M481.0561,494.266c-.6616-2.7004-3.777-3.8011-4.1088-3.913-3.2842-1.1071-8.0609.1325-9.1957,3.7173-1.1665,3.6853,2.0922,8.0291,5.8696,8.4131,4.3926.4465,8.3263-4.5792,7.4348-8.2174Z"/>
      <path class="cls-2" d="M463.0561,521.266c-.7468-2.9974-6.1554-5.1408-10.5653-3.913-2.8627.7971-6.6589,3.3917-6.6521,7.2391.0052,2.9374,2.2256,5.6212,4.6957,6.4565,5.6544,1.9121,13.5797-5.5366,12.5217-9.7826Z"/>
      <path class="cls-2" d="M418.8387,501.5051c-.9874-2.565-3.6104-5.0247-7.0435-4.8913-3.2897.1278-5.9269,2.5823-6.6522,5.4782-.9772,3.9016,1.7783,7.5578,4.8914,8.8044.5211.2087,3.2832,1.2432,5.8695-.1957,3.0377-1.69,4.2081-5.8882,2.9348-9.1956Z"/>
      <path class="cls-2" d="M380.6865,473.1356c.3389-2.9973-2.6152-5.8115-5.6738-5.674-3.361.1511-5.8878,3.8232-5.087,6.6522.5363,1.8945,2.4615,3.046,4.1088,3.326,2.7845.4735,6.3104-1.2818,6.6521-4.3043Z"/>
      <path class="cls-2" d="M396.6648,527.5269c.8036-2.4574-.364-5.3588-2.4783-6.913-2.7069-1.9899-5.8676-.9641-6.3912-.7827-3.4338,1.1898-6.3524,5.1843-5.2174,8.2174,1.0145,2.7112,4.7605,3.2991,5.3478,3.3913,2.8832.4525,7.5767-.3585,8.7391-3.913Z"/>
      <path class="cls-2" d="M342.9256,534.3094c-.2731-3.6531-4.7841-6.7416-8.8695-6.5217-3.4658.1865-5.6849,2.7032-6.5217,3.6522-1.0061,1.141-3.7007,4.1969-2.7391,7.5652.9509,3.3312,4.9164,5.002,7.9564,4.9565,3.6437-.0546,6.0312-2.5758,7.174-3.7826,1.3237-1.3979,3.1871-3.3658,3-5.8696Z"/>
      <path class="cls-2" d="M309.0127,572.9181c.5073-2.8086-2.2706-6.1633-5.7391-6.5217-3.2905-.34-6.032,2.1376-6.8153,4.663-.1385.4468-.7921,2.5536.3914,4.2065,1.0948,1.5292,3.0564,1.6851,4.0109,1.7609,2.7584.2192,7.5599-.8299,8.1522-4.1087Z"/>
      <path class="cls-2" d="M265.4473,551.2986c-.0292-2.9324-4.5299-4.4717-5.1847-4.6956-1.0718-.3666-2.6013-.8896-4.3044-.2935-2.3356.8175-4.2268,3.4699-3.7174,5.7717.2587,1.1689,1.0571,1.8894,1.5653,2.3478,1.7025,1.5361,4.2207,2.092,6.4565,1.5652,2.1112-.4974,5.209-2.2518,5.1847-4.6957Z"/>
      <path class="cls-2" d="M208.8387,533.3964c-1.8055-1.3776-4.3556-1.4333-6.1305-.3913-3.266,1.9174-4.0002,7.606-1.1738,9.913,2.2476,1.8345,6.5254,1.3499,8.4783-1.5652,1.6752-2.5005,1.2052-6.1412-1.174-7.9565Z"/>
      <path class="cls-2" d="M563.4256,278.266c-2.4447-2.6526-7.6233-2.0131-10.3695.7826-1.8328,1.8658-2.8552,4.9701-1.7609,7.8261.8613,2.2477,3.115,4.5536,5.8695,4.5,2.5452-.0495,4.2026-2.0878,4.8914-2.9348,1.9341-2.3783,3.9885-7.3322,1.3695-10.1739Z"/>
      <path class="cls-2" d="M441.143,237.7008c-1.3357-2.1714-4.2987-2.1049-5.8695-1.6956-2.4071.6272-4.9984,2.9594-4.5653,5.3478.4431,2.4435,3.7567,3.3196,4.0435,3.3913.6793.1699,3.4059.7263,5.3479-1.1739,1.4406-1.4096,2.224-3.9504,1.0435-5.8696Z"/>
      <path class="cls-2" d="M380.8822,278.266c1.241-1.1681,1.694-3.2198.9131-4.5652-1.3462-2.3193-6.181-2.2318-7.5653.1304-.6698,1.143-.4723,2.7173.2609,3.7826,1.3397,1.9467,4.5806,2.3568,6.3914.6522Z"/>
      <path class="cls-2" d="M360.5344,366.7008c2.2496-.4054,3.8088-3.5293,2.7391-5.8696-.8649-1.8921-3.3625-3.0844-5.2827-2.1522-2.074,1.0069-2.4247,3.9828-1.3695,5.8696.7263,1.2987,2.3188,2.4395,3.9131,2.1522Z"/>
      <path class="cls-2" d="M353.2952,417.3747c.425-.3117,2.4348-1.8807,2.1521-3.913-.311-2.2366-3.229-3.8137-5.4783-3.3261-3.1974.6931-4.8317,5.5121-3.326,7.4348,1.2238,1.5626,4.5985,1.3104,6.6522-.1957Z"/>
      <path class="cls-2" d="M528.9256,211.6138c-2.5133-3.0467-7.571-2.6089-9.6521-.2609-2.8737,3.2423-.2743,10.356,3.6521,11.2174,2.1536.4725,4.3378-1.0167,5.4783-2.3478,1.8934-2.21,2.6558-6.0218.5217-8.6087Z"/>
      <path class="cls-2" d="M502.8387,139.3529c-1.502-2.1988-6.1929-2.678-8.8696-.2609-1.3757,1.2423-2.4399,3.4488-1.826,5.7391.6985,2.6056,3.2915,4.2855,5.4783,4.1739,4.1063-.2096,7.1945-6.7578,5.2174-9.6522Z"/>
      <path class="cls-7" d="M526.8387,456.7007c1.9521-4.5299-.0245-10.2859-4.1088-12.913-3.0986-1.9932-6.3801-1.5228-7.2391-1.3696-4.9773.8875-9.6429,5.5684-9.3912,10.9565.1381,2.9547,1.739,5.7863,4.1086,7.4348,4.9861,3.4688,13.954,2.1021,16.6305-4.1087Z"/>
      <path class="cls-7" d="M522.7299,498.3747c1.8568-2.4911.1908-6.884-2.7391-8.4131-.1151-.0601-2.8358-1.4269-5.0869,0-2.4507,1.5533-3.0128,5.5734-1.174,8.0218,2.1649,2.8824,7.136,2.892,9,.3913Z"/>
      <path class="cls-7" d="M459.6648,556.7443c2.4082.5034,5.6649-1.1768,6.2609-3.7827.605-2.6456-1.8418-4.8934-2.4783-5.4782-.5316-.4884-2.2203-2.0399-4.6957-1.9565-.6895.0232-2.0555.0692-2.8695.913-2.0972,2.1742-.3347,9.4437,3.7826,10.3044Z"/>
      <path class="cls-7" d="M389.7517,567.3094c2.4706.1641,5.5939-1.8763,5.4783-4.6956-.1034-2.5206-2.7444-4.4106-5.2173-4.3044-2.0165.0866-4.1672,1.5112-4.5653,3.6522-.3916,2.106,1.1305,3.7332,1.3043,3.9131.1906.1973,1.3108,1.3226,3,1.4348Z"/>
      <path class="cls-7" d="M257.0996,571.353c.1404-3.0056-2.3289-4.9498-3-5.4783-.3733-.2939-3.8451-2.9372-7.5652-1.4348-1.7646.7126-4.0394,2.5416-4.0436,4.9565-.0035,2.0356,1.608,3.4454,2.7391,4.4348,2.1504,1.881,4.5278,2.2239,5.4783,2.3478,1.3832.1804,2.4797.3235,3.6522-.2609,1.757-.8757,2.6602-2.8748,2.7391-4.5652Z"/>
      <path class="cls-7" d="M412.4473,478.2225c-.6423-1.1236-2.2915-1.8739-3.6521-1.174-1.3586.699-1.6361,2.436-1.174,3.6522.4485,1.1803,1.6931,2.132,2.8695,1.9565,1.6885-.2518,2.9049-2.7759,1.9565-4.4348Z"/>
      <path class="cls-7" d="M372.8604,416.0051c1.8384-2.4883-.1472-7.3269-2.9348-7.8261-1.8923-.3389-3.8202,1.3819-4.6957,2.9348-.1602.2841-1.5481,2.826-.3912,4.6956,1.4589,2.3578,6.2844,2.5471,8.0217.1957Z"/>
      <path class="cls-7" d="M412.1865,270.8312c-3.1416-1.2502-7.2081,3.5414-8.0217,4.5-1.4069,1.6577-4.5579,5.3706-3.1304,8.2174,1.1196,2.2328,4.451,2.7263,6.4564,2.5435,3.1146-.284,4.9945-2.3784,5.4783-2.9348,2.8679-3.298,2.0482-7.4042,1.9565-7.8261-.2374-1.0917-.8116-3.733-2.7391-4.5Z"/>
      <path class="cls-7" d="M576.7299,327.766c-1.2269-1.9927-3.8787-2.291-5.6738-1.7609-2.3932.7068-4.2269,3.1706-3.9131,5.6739.0195.1556.347,2.4643,2.3478,3.5218,2.1783,1.1513,4.8513.0325,6.2609-1.5652,1.1403-1.2925,2.2511-3.8023.9783-5.8696Z"/>
      <path class="cls-7" d="M588.8604,283.7442c.9905-2.0142,1.0306-5.2938-1.174-6.8478-2.1471-1.5135-5.0947-.4538-6.6521.9782-2.3982,2.2052-2.911,6.5909-.7827,8.4131,1.6083,1.3769,4.2197.8577,5.674.1956.4781-.2177,2.0636-.9675,2.9348-2.7391Z"/>
      <path class="cls-7" d="M579.3713,249.7986c-.469-1.2658-1.9147-1.8735-2.9348-1.5652-1.6359.4944-2.2551,3.368-1.076,4.5.6421.6165,1.743.6449,2.5435.2935,1.1444-.5024,1.9575-1.9055,1.4674-3.2283Z"/>
      <path class="cls-7" d="M530.2627,189.2442c-1.0197-.6139-2.6622-.0626-3.2283,1.1739-.4834,1.0559-.0378,2.2971.7826,2.9348.0905.0703,1.1241.8481,2.1521.3913.9722-.432,1.1277-1.6075,1.174-1.9565.0253-.1906.2244-1.8784-.8804-2.5435Z"/>
      <path class="cls-7" d="M522.5344,166.6464c-.3973-.6657-1.29-1.2251-1.9565-.9783-.6073.2249-.7604,1.0203-.9783,2.1522-.1967,1.0213-.3358,1.7442.0978,2.1522.4626.4352,1.3339.2829,1.8588,0,1.0789-.5813,1.6375-2.2217.9783-3.3261Z"/>
      <path class="cls-3" d="M342.2022,282.1873c-11.0901,28.55,2.02,60.28,2.5599,90.9.64,36.05-17.88,72.01-47.92,91.94-11.3,7.49-24.1,12.58-37.3999,15.18-22.0701,4.3-45.5,1.73-65.6901-8.18-24.42-12-43.13-33.35-57.2999-56.57-16.9102-27.72-25.8401-57.01-27.0601-85.75,3.61,13.22,9.53,32.03,22.23,51.47,8.04,12.31,20.53,30.92,44.61,43.05,7.1901,3.61,32.36,15.82,64.5599,9,5.1101-1.09,31.03-7.02,52.05-30.53,6.17-6.9,21.4301-24.46,23.47-50.47.6401-8.16,1.54-19.58-4.2999-31.31-3.25-6.52-10.3199-16.62-17.2201-25.04-5.7799-7.06-9.3999-10.44-8.6099-14.87.4199-2.36,2.2-5.63,12.53-10.57,12.5999-6.03,19.3899-5.68,26.5999-8.21,14.4701-5.09,21.8801-18.69,28.9601-31.7,6.0199-11.05,15.7999-29.02,11.74-48.13-4.48-21.06-23.5699-33.14-32.92-40.26,2.6301.52,5.24,1.19,7.8,2.05,16.75,5.61,30.52,19.21,36.8301,35.72,6.2999,16.51,5.1699,35.59-2.5601,51.48-8.8701,18.2-25.63,31.93-32.96,50.8Z"/>
      <path class="cls-4" d="M307.9989,153.1365c-2.0332-2.7597-9.9231,1.7538-28.7839,7.196-19.1788,5.5339-23.0596,4.3406-37.2497,10.159-15.7763,6.4688-19.9119,11.6064-22.0111,15.2385-1.148,1.9863-5.891,10.1929-2.5397,18.2015,4.0808,9.752,16.8307,11.2461,18.6249,11.4289,9.6768.9857,17.1932-3.9303,24.1276-8.4658,4.9854-3.2607,5.0522-4.2526,17.7783-16.0851,12.1909-11.3349,14.4404-12.5732,19.4714-18.6248,4.288-5.1579,13.0505-15.6979,10.5823-19.0481Z"/>
      <path class="cls-4" d="M177.7952,213.7008c-5.0508.0397-8.8997,1.8294-10.4348,2.6087-25.576,12.9828-35.2174,39.3912-35.2174,39.3913-.7649,2.095-8.8135,24.5665-2.6086,28.4348,4.9346,3.0764,18.2708-5.9959,25.5652-16.9565,5.9628-8.9597,3.3776-12.403,11.7391-25.8261,4.4534-7.1491,6.7405-10.8208,11.2174-15.1304,5.2811-5.0838,9.7692-7.3587,9.1304-9.6522-.8018-2.8783-8.8673-2.8737-9.3912-2.8696Z"/>
      <path class="cls-4" d="M126.143,309.7008c-3.7247.3738-5.7744,10.2359-6,16.1739-.1517,3.9948-.4277,11.2584,4.6957,16.4348,3.5067,3.5429,9.7941,6.362,12.7826,4.1739,3.3457-2.4496,1.2389-10.2103-.5217-16.6956-.5287-1.9474-5.7062-20.6138-10.9565-20.0869Z"/>
      <path class="cls-9" d="M51.4768,343.3888c-2.3059-1.5161-8.2759.9107-10.2128,5.5261-.3271.7795-1.377,3.6178,0,6.5847,1.3618,2.9341,4.5514,4.8182,8.1702,4.802,3.6174-8.4973,4.5281-15.2786,2.0426-16.9127Z"/>
      <path class="cls-9" d="M73.7195,422.8992c2.0845-4.0586.2148-8.2475,0-8.7089-1.5834-3.4-5.2823-6.4037-9.4431-6.0544-5.3662.4504-8.7236,6.2451-8.7145,11.0541.0012.6247.0874,5.613,3.8461,8.0737,4.5034,2.9482,11.7542.6147,14.3115-4.3644Z"/>
      <path class="cls-9" d="M112.3009,142.4282c-2.4479-2.4165-2.105-7.0255,0-9.9228,2.293-3.1561,7.2688-5.0956,10.6765-2.6856,3.1412,2.2216,3.3832,7.031,1.5961,10.0824-2.4808,4.2359-9.1683,5.5905-12.2726,2.526Z"/>
      <path class="cls-9" d="M82.8691,183.8946c-2.1069-2.1849-9.6294-.885-11.4775,3.9762-1.0449,2.7484-.0874,6.1389,2.3279,8.6808.5974.1281,4.1061.8244,6.6935-1.3617,1.5223-1.2862,1.9904-2.9488,2.4562-4.6038.5084-1.8061,1.458-5.1796,0-6.6916Z"/>
      <path class="cls-9" d="M42.4554,215.4452c-1.2183-.8793-3.0231-.6578-4.2552,0-2.0354,1.0866-2.3462,3.2772-2.3831,3.5745-.2164,1.7426.5013,4.0793,2.3831,4.7943,1.3656.5189,2.8477-.0051,3.7446-.7092,2.2615-1.775,2.6317-6.1286.5106-7.6596Z"/>
      <path class="cls-9" d="M143.1364,90.8495c-1.3199-.5255-3.3096.593-4.275,2.0615-1.2544,1.9081-.7324,4.3351.4452,5.8534,1.8513,2.3869,4.9492,2.0466,5.1064,2.0266,1.2174-5.2463.5607-9.21-1.2766-9.9415Z"/>
      <path class="cls-9" d="M180.733,60.3811c-2.792.1084-5.2014,1.4456-6.1924,3.5874-.1602.3464-1.2002,2.5939,0,4.3125,1.033,1.4792,3.3564,2.0382,5.6169,1.1217.3931.0516,3.4436.4178,4.5027-1.1217,1.1143-1.6197-.0273-5.2739-3.9272-7.9Z"/>
      <path class="cls-9" d="M224.705,48.4665c-2.1021-.8216-4.6382.2706-5.9941,2.0425-1.2563,1.6418-1.6875,4.1121-.5107,6.1277.0947.1622,1.5544,2.5659,4.3308,2.5949,1.9885.0208,3.5632-1.1879,4.3481-2.438,1.6716-2.6626.7969-7.1659-2.1741-8.3271Z"/>
      <path class="cls-9" d="M286.1151,36.4665c-1.6531-.8068-3.6318-.6202-5.1064.2553-2.5237,1.4985-3.6628,5.0702-2.2979,7.4043,1.0496,1.7947,3.1838,2.1809,3.8298,2.2979,1.7166.3106,4.697.134,6.0996-2.0425,1.6423-2.5485.2859-6.5429-2.5251-7.9149Z"/>
      <path class="cls-9" d="M258.0299,69.281c.5854-2.8174-.437-6.6216-3.3191-7.9-3.9048-1.7321-7.9509,2.6238-8.4255,3.1493-.4971.5504-3.9536,4.5022-2.2979,7.9149,1.2068,2.4872,4.3037,2.9873,4.8511,3.0638,3.7703.5268,8.3201-2.0338,9.1914-6.2281Z"/>
    </g>
  </g>
</svg>