<?xml version="1.0" encoding="UTF-8"?>
<svg id="Capa_2" xmlns="http://www.w3.org/2000/svg" viewBox="0 0 449.1992 449.1992">
  <defs>
    <style>
      .cls-1 {
        fill: #bf3441;
      }

      .cls-2 {
        fill: #ba0c1c;
      }

      .cls-3 {
        fill: #d83954;
      }

      .cls-4 {
        fill: #ef7f8f;
      }

      .cls-5 {
        fill: #e55e6c;
      }

      .cls-6 {
        fill: #d6404a;
      }

      .cls-7 {
        fill: #b22f3f;
      }

      .cls-8 {
        fill: #9e2539;
      }

      .cls-9 {
        fill: #a5071b;
      }
    </style>
  </defs>
  <g id="Capa_1-2" data-name="Capa_1">
    <g>
      <g>
        <path class="cls-6" d="M441.1846,224.5946c0,30.47-8.61,58.42-19.96,84.72-9.58,22.2-20.46,43.52-36.52,61.14-17.69,19.41-42.07,30.33-65.74,42.29-29.32,14.83-59.26,28.44-94.37,28.44-30.35,0-60.45-11.42-86.67-22.7-7.59-3.27-14.86-6.52-21.83-9.98-17.11-8.49-32.4301-18.25-46.4-32.54-17.7-18.1-27.3-41.69-37.81-65.09-12.17-27.06-23.87-54.68-23.87-86.28,0-25.66,8.5-42.05,16.69-64.89,6.66-18.56,11.73-44.17,22.91-59.9901,20.49-28.98,46.36-44.48,78.31-60.53,29.21-14.68,63.75-31.17,98.67-31.17,30.47,0,56.59,9.9,82.89,21.2599,24.04,10.3701,48.69,21.35,67.28,39.25,8.12,7.8101,14.71,16.6801,20.5,26.16,7.35,11.99,13.42,24.93,19.7,37.89,13.81,28.51,26.22,58.22,26.22,92.02Z"/>
        <path class="cls-4" d="M224.5946,8.0146c30.47,0,56.59,9.9,82.89,21.2599,24.04,10.3701,48.69,21.3501,67.28,39.25,8.12,7.8101,14.71,16.6801,20.5,26.1601,7.35,11.99,13.42,24.93,19.7,37.89,13.81,28.51,26.22,58.22,26.22,92.02,0,30.47-8.61,58.42-19.96,84.72-9.58,22.2-20.46,43.52-36.52,61.14-17.69,19.41-42.07,30.3299-65.74,42.29-29.32,14.83-59.26,28.44-94.37,28.44-30.35,0-60.45-11.42-86.67-22.7-7.59-3.2701-14.86-6.5201-21.83-9.98-17.11-8.49-32.43-18.25-46.4-32.5401-17.7-18.0999-27.3-41.69-37.81-65.0899-12.17-27.06-23.87-54.68-23.87-86.28,0-25.66,8.5-42.05,16.69-64.89,6.66-18.56,11.73-44.17,22.91-59.9901,20.49-28.9799,46.36-44.4799,78.31-60.5299,29.21-14.68,63.75-31.17,98.67-31.17M224.5946,0c-35.5726,0-70.0273,15.8199-102.2689,32.0235-29.9649,15.0528-58.7284,31.2034-81.2552,63.0641-8.6852,12.2898-13.648,28.7921-18.4474,44.7512-1.8499,6.1515-3.5972,11.9618-5.4622,17.1589-1.5057,4.1989-3.0361,8.213-4.5161,12.0949C6.1422,186.1485,0,202.2585,0,224.5946c0,32.2964,11.1297,59.6712,24.5752,89.5673.9009,2.0059,1.7967,4.0168,2.6915,6.0254,9.5956,21.5396,19.5178,43.8126,36.6977,61.3808,13.1518,13.4531,28.1309,23.9752,48.5678,34.1159,6.1957,3.0755,13.0493,6.2095,22.2212,10.1612,28.1968,12.1304,58.5932,23.3541,89.8412,23.3541,36.9608,0,68.6734-14.4758,97.9874-29.3028,2.4814-1.2538,4.9736-2.4976,7.465-3.741,21.5087-10.7344,43.7497-21.8342,60.5812-40.3022,17.7592-19.4842,29.1525-42.9644,37.9552-63.3632,14.065-32.5912,20.6159-60.5207,20.6159-87.8955,0-36.6591-13.948-68.524-27.0217-95.5139-.6478-1.3369-1.2928-2.6725-1.9373-4.0068-5.5763-11.5458-11.3425-23.4848-18.1427-34.578-6.7737-11.0905-13.8992-20.1706-21.7771-27.7477-20.2876-19.5345-47.664-31.3438-69.6614-40.8328C284.9881,10.8271,257.1937,0,224.5946,0h0Z"/>
      </g>
      <path class="cls-2" d="M299.6046,318.1946c-2.5099,21.34-10.11,43.18-26.47,57.1-11.75,9.99-27.11,15.06-42.47,16.42-15.35,1.36-30.8199-.7599-45.94-3.78-17.96-3.59-36.06-8.67-51.91-17.57-5.14-2.88-10.04-6.16-14.62-9.92-24.61-20.2-37.22-52.27-39.76-84.01-1.28-15.88-.19-31.93,3.08-47.53,3.226-15.39,8.5409-30.3567,15.8562-44.2803,7.2872-13.87,16.587-26.7284,27.8089-37.6842,11.1936-10.928,24.3031-19.8908,38.7347-25.9728,13.5332-5.7034,28.832-11.0296,42.7606-3.4698,4.9161,2.6683,9.0775,6.579,12.5647,10.9525,3.9856,4.9984,7.6376,10.6719,9.9849,16.6146,1.73,4.38,2.77,9,2.84,13.7.11,7.42-2.14,14.64-3.5,21.93-3.68,19.76,7.65,35.12,22.59,46.9,12.33,9.71,26.47,17.64,35.93,30.16,12.72,16.82,14.97,39.49,12.52,60.44Z"/>
      <path class="cls-5" d="M62.7929,339.4446c-6.2701-7.7322-18.6443-24.5705-32.087-66.5217-10.8911-33.9882-16.3366-50.9824-13.3044-64.9565,4.6095-21.2433,16.4447-24.3058,24.2609-54,5.9562-22.6279-.0268-24.2292,5.4783-38.3478,7.3425-18.831,20.39-22.1479,67.3043-54,39.0496-26.5124,39.9476-30.9614,57.1304-36.7826,28.9205-9.7977,54.3777-6.6806,63.3913-5.4782,27.751,3.7018,22.2,11.2494,69.6522,24.2609,15.762,4.322,28.3839,6.7822,40.6957,18,4.9433,4.5041,8.6602,10.9489,16.4348,23.4782,9.5656,15.4159,14.3119,23.2248,12.5218,28.1739-1.327,3.6688-6.4686,9.9586-36.7827,10.9565-24.3234.8008-44.7184-3.5706-84.5217-12.5218-42.739-9.6113-45.9399-10.3342-54-10.1739-30.3239.6031-53.3672,12.1944-63.3913,18-20.4105,11.821-32.3,25.9814-39.913,35.2174-14.8632,18.0319-23.0076,35.5389-27.3913,46.9565-3.2147,8.3727-9.9738,27.9704-10.9565,50.8696-2.5862,60.2641,36.4894,104.8467,30.5217,108.7826-3.4705,2.2889-17.3102-12.3765-25.0435-21.913Z"/>
      <path class="cls-1" d="M441.1846,224.5946c0,30.47-8.61,58.42-19.96,84.72-9.58,22.2-20.46,43.52-36.52,61.14-17.69,19.41-42.07,30.33-65.74,42.29-29.32,14.83-59.26,28.44-94.37,28.44-10.27,0-20.5-1.31-30.5601-3.48-19.7-4.23-38.7599-11.75-56.11-19.22-7.59-3.27-14.86-6.52-21.83-9.98,13.73-.33,29.6-.63,47.65-.97,17.67-.34,32.92-.4,54-4.7,27.67-5.63,47.64-9.7,64.96-25.04,32.78-29.04,33.45-78.39,33.65-93.92.26-19.15-3.34-18.77-1.56-34.43,1.59-13.96-10.75-23.58,14.09-62.09,18.12-28.1,53.32-29.36,63.13-45.39,8.88-14.53-.26-35.02,3.25-47.28,4.42,7.22,8.39,14.78,12.2,22.49,2.53,5.09,5,10.24,7.5,15.4,13.81,28.51,26.22,58.22,26.22,92.02Z"/>
      <path class="cls-7" d="M441.1846,224.5946c0,30.47-8.61,58.42-19.96,84.72-9.58,22.2-20.46,43.52-36.52,61.14-17.69,19.41-42.07,30.33-65.74,42.29-29.32,14.83-59.26,28.44-94.37,28.44-10.27,0-20.5-1.31-30.5601-3.48,19.29-1.52,39.02-5.66,56.58-14.52,4.82-2.43,8.18-4.56,46.18-25.04,30.02-16.1801,36.35-19.39,45.39-26.61,15.97-12.76,24.5-25.32,36-42.26,19.58-28.85,33.55-49.43,36-78.2599.89-10.53-1-7.38-2.35-50.09-.8-25.41-.13-26.56-.78-42.26-.76-18.22-2.28-31.66-3.59-41.49,2.53,5.09,5,10.24,7.5,15.4,13.81,28.51,26.22,58.22,26.22,92.02Z"/>
      <path class="cls-3" d="M171.3817,134.1844c-.0676-.0288-.1357-.0569-.2042-.0841-3.7972-1.5106-8.1009-.3237-11.9003,1.1815-33.8533,13.4124-57.3425,48.5174-67.7092,82.1808-.5424,1.7614-1.0521,3.533-1.5284,5.3134-1.6235,6.0685-2.8688,12.4589-1.5446,18.5995,7.1442-11.0261,13.0244-22.8234,19.9798-33.9695,6.9554-11.1462,15.1556-21.7953,25.9012-29.3549,8.6537-6.088,18.6436-9.9576,28.597-13.5463,3.5656-1.2855,7.1841-2.564,10.3306-4.6772,3.1465-2.1132,5.8228-5.1945,6.6185-8.9002.8563-3.9882-.5704-8.1754-2.8354-11.5677-1.4461-2.1658-3.3148-4.1569-5.705-5.1753Z"/>
      <path class="cls-3" d="M122.2711,346.0968c-1.7443-1.9529-10.0598-11.407-16.8261-25.0435-7.5346-15.1849-9.7031-28.6128-11.7391-41.8696-2.5839-16.8237-2.1031-27.6236-3.2609-27.6522-1.2221-.0302-3.144,11.9688-3.1304,24.2609.0065,5.9316.4733,20.5075,6.5217,38.8696,4.3918,13.3326,7.4259,22.5436,15.913,31.3043,11.2432,11.6057,26.1758,16.3513,27.1305,14.8696.6889-1.0693-6.0476-5.1537-14.6087-14.7391Z"/>
      <path class="cls-9" d="M299.6046,318.1946c-2.5099,21.34-10.11,43.18-26.47,57.1-11.75,9.99-27.11,15.06-42.47,16.42-15.35,1.36-30.8199-.7599-45.94-3.78-17.96-3.59-36.06-8.67-51.91-17.57,11.53.49,26.25.54,44.24-1.18,21.22-2.03,31.05-4.98,38.35-7.83,12.7599-4.98,31.1299-12.15,43.04-31.3.71-1.14,16.81-27.92,7.04-55.57-3.15-8.92-6.14-9.85-17.21-25.04-18.12-24.85-32.1-44.03-32.09-66.52.01-16.08,7.16-31.15,13.04-37.86,1.73,4.38,2.77,9,2.84,13.7.11,7.42-2.14,14.64-3.5,21.93-3.68,19.76,7.65,35.12,22.59,46.9,12.33,9.71,26.47,17.64,35.93,30.16,12.72,16.82,14.97,39.49,12.52,60.44Z"/>
      <path class="cls-4" d="M47.0103,126.0533c.0441-1.1721.3177-6.4059,3.6522-12.7826,1.6717-3.197,4.2758-6.9931,10.1739-12.1304,10.6934-9.3141,21.4939-13.6992,21.7174-13.3044.2294.4052-11.2867,4.7718-20.5435,16.6956-3.9177,5.0465-6.1279,9.7684-6.7827,11.2174-5.3267,11.7876-4.5533,21.2574-6,21.2609-1.1302.0027-2.4123-5.7752-2.2173-10.9565Z"/>
      <path class="cls-4" d="M154.5537,38.1403c-.7028-1.7674,7.7752-7.1848,15.4565-10.5652,5.4596-2.4027,12.9218-4.8348,31.5-6.0652,19.3314-1.2803,29.4327-1.9493,42.4565,1.7609,11.8004,3.3616,23.3308,9.5579,22.6957,11.7391-.5937,2.0388-11.5134-.4692-37.174-2.3478-14.3897-1.0535-21.5845-1.5802-29.2173-1.3043-27.145.9812-44.7325,9.2593-45.7174,6.7826Z"/>
      <path class="cls-4" d="M33.445,185.662c-2.9058,2.792-7.0061,7.463-9.7826,14.2173-3.8011,9.2469-3.0614,17.3879-2.087,26.8696,1.3352,12.9921,5.0876,26.5868,6.7826,26.3478,1.601-.2257-1.5013-12.3889,1.5652-32.0869,2.6089-16.7587,7.3043-32.6086,7.3044-32.6087,1.584-5.3471,3.4839-11.0812,2.6087-11.4783-.8467-.3841-3.8654,4.4189-6.3913,8.7391Z"/>
      <path class="cls-6" d="M248.2711,44.4011c-3.5737-2.1092-8.3956-.3552-10.174,3.1304-1.4468,2.8358-.5402,6.1534,1.174,8.2174.1394.1678,3.1943,3.7316,7.0435,2.7391,2.825-.7284,4.0619-3.3912,4.3043-3.9131,1.3517-2.91,1.408-7.9573-2.3478-10.1739Z"/>
      <path class="cls-6" d="M310.0972,66.7055c-3.2393-3.2812-9.7028-3.387-13.6956,0-4.3168,3.6618-5.178,10.9244-1.174,15.2609,3.1025,3.36,8.5208,4.308,12.5217,1.9565,5.2617-3.0923,4.7682-9.949,4.6957-10.9565-.1019-1.415-.3014-4.1879-2.3478-6.2609Z"/>
      <path class="cls-6" d="M234.1842,83.9229c-.832-.1303-7.0479-1.0073-10.8261,3.1304-.3685.4035-3.3925,3.7996-2.2173,6.6522,1.1096,2.6936,5.2048,3.0609,7.4348,3.2609,2.1843.1959,4.462.4002,5.8696-1.0435,1.393-1.4287,1.1841-3.7026.913-6.6522-.2073-2.2564-.7286-4.0872-1.1739-5.3478Z"/>
      <path class="cls-6" d="M171.5755,56.5316c-2.9437-1.9724-7.4411-2.438-10.9565,0-3.6354,2.5212-5.035,7.3254-3.5217,11.3478,2.2141,5.8851,9.2131,6.2415,9.7827,6.2609,1.0048.0341,4.6672.1586,7.0435-2.3478,3.572-3.7676,2.7118-11.8708-2.3478-15.2609Z"/>
      <path class="cls-6" d="M213.0537,38.7272c-2.091-1.327-5.4843-1.753-7.4348.1956-2.2732,2.271-.946,6.1278,0,7.8261.458.8222,1.9951,3.5813,4.8914,3.7174,2.4258.114,4.4507-1.6756,5.2826-3.5217,1.3217-2.9332-.1216-6.5562-2.7391-8.2174Z"/>
      <path class="cls-6" d="M286.7493,99.575c-1.502-2.6951-5.0897-3.7361-7.9565-2.4783-2.9073,1.2757-4.532,4.6784-3.5217,7.6957.8585,2.5639,3.4205,4.2553,6,4.1739,2.436-.0769,3.9918-1.7065,4.4348-2.2174,1.4859-1.7137,2.44-4.6679,1.0435-7.1739Z"/>
      <path class="cls-6" d="M138.9668,81.7055c-4.3002-4.0268-10.8452-3.1827-14.8696-1.0435-.8331.4428-7.0283,3.8594-7.0435,9.9131-.0145,5.7867,5.6299,9.1703,7.3043,10.1739,1.7729,1.0627,6.624,3.9707,11.4783,1.8261,4.9474-2.1858,6.0303-7.9112,6.2609-9.1304.2721-1.4387,1.2131-7.6718-3.1304-11.7391Z"/>
      <path class="cls-6" d="M84.1189,99.9663c-1.7877-.2128-5.2443.0052-6.4565,2.3478-1.3483,2.6059,1.1243,5.8237,1.7609,6.6522.7405.9637,3.4188,4.4492,7.2391,3.7174,2.5941-.4969,4.8061-2.7643,5.0869-5.2826.4413-3.9573-4.056-7.0093-7.6304-7.4348Z"/>
      <path class="cls-6" d="M76.8798,130.4881c-3.7469-.8108-7.9377.9051-9.9783,4.3044-2.6903,4.4815-.5165,10.0117,2.7391,12.7174.7959.6614,3.6885,2.843,7.4348,2.1522,3.7268-.6872,6.2651-3.8421,7.0435-6.8478,1.285-4.962-1.8035-11.1499-7.2391-12.3261Z"/>
      <path class="cls-6" d="M48.9668,197.0099c-2.8081-.6911-6.0825,1.6014-7.5652,4.1739-2.7018,4.6876-.3752,11.9016,4.1739,13.3043,2.4604.7587,5.3815-.2412,7.0435-2.0869,3.9882-4.4293,1.1556-14.2081-3.6522-15.3913Z"/>
      <path class="cls-6" d="M72.7711,169.8142c-1.902-1.423-4.5048-.4648-4.6957-.3913-2.6038,1.0026-3.858,3.8645-3.7174,6.2609.0213.3629.2831,3.9227,2.9348,4.8913,2.2041.8051,4.4416-.7709,5.4783-1.9565,2.1439-2.452,2.4316-6.9851,0-8.8043Z"/>
      <path class="cls-6" d="M49.0972,151.8794c-1.6082.2081-2.9948,1.4822-3.5217,3-.8221,2.3676.5197,5.1204,2.7391,6,2.1182.8395,4.1077-.3952,4.3043-.5217.3312-.2131,1.6277-1.0469,1.9565-2.4783.6122-2.6643-2.3569-6.4039-5.4783-6Z"/>
      <path class="cls-6" d="M46.945,255.3142c-.2499-.2084-3.0408-2.4626-6.2609-1.5652-4.3837,1.2217-5.1742,7.0614-5.2826,8.0218-.0841.7452-.6547,5.7977,2.3478,7.6304,2.069,1.2629,4.745.3318,6.2609-.1957,1.2182-.4239,3.0399-1.0578,4.3043-2.7391,2.2856-3.0394,1.925-8.4048-1.3696-11.1522Z"/>
      <path class="cls-6" d="M58.4885,296.9881c-1.7979-.6921-4.6027,1.147-5.6739,3.5218-1.3537,3.0012.1058,6.7596,2.7391,8.0217.2849.1365,2.0948,1.004,3.5217.1956,3.1369-1.7771,2.4862-10.556-.587-11.7391Z"/>
      <path class="cls-1" d="M316.3581,132.575c-.3169-.0077-5.9273-.0507-9.1304,4.4348-3.095,4.3341-2.4683,10.8316,1.3044,14.3478,3.8589,3.5965,9.2993,2.4805,11.2173,2.087,1.1512-.2361,7.9005-1.6207,9.3914-6.2609,1.862-5.795-5.1984-14.4247-12.7827-14.6087Z"/>
      <path class="cls-1" d="M374.0103,129.1837c-2.5638-1.1667-5.5933-.4374-7.5652,1.0435-3.7673,2.8292-4.3394,8.9005-1.5652,12.2608,1.9452,2.3562,4.8817,2.5875,5.2173,2.6087,3.0305.1917,5.7004-1.5446,7.0435-3.6522,2.5154-3.9472,1.1018-10.3348-3.1304-12.2609Z"/>
      <path class="cls-1" d="M252.9668,125.7924c-1.7935-2.0226-4.9398-2.6816-7.5652-1.8261-3.5464,1.1556-5.0328,4.7131-5.2174,7.3044-.1703,2.3904.6104,6.161,3.6522,7.5652,3.0552,1.4104,6.2051-.576,6.5217-.7826,3.7537-2.4499,5.6887-8.7875,2.6087-12.2609Z"/>
      <path class="cls-1" d="M278.532,151.0968c-2.5116-2.0879-6.3297-2.7586-9.3913-1.3043-5.2098,2.4747-6.5335,10.2973-3.3914,14.3478,2.1471,2.7678,5.8358,3.0736,6.5218,3.1304.707.0586,4.4658.3701,7.0435-2.087,3.5176-3.3532,3.4649-10.5561-.7826-14.087Z"/>
      <path class="cls-1" d="M245.532,186.0533c-.7918.0093-3.0526.0662-5.087,1.5652-3.5615,2.6243-3.9017,7.8062-3.1304,11.1522,1.0099,4.3813,4.1846,6.7397,4.8913,7.2391.9982.7054,3.0833,2.1363,6.0652,2.1522,3.9891.0212,6.611-2.5056,7.2391-3.1304.6716-.6682,2.912-3.0746,3.1304-6.4565.4177-6.4669-6.8102-12.5961-13.1087-12.5217Z"/>
      <path class="cls-1" d="M296.7929,179.4011c-.1241-.0533-2.5352-1.0436-4.5.3913-1.9386,1.4158-2.428,4.4513-.9783,6.4565,1.069,1.4786,2.9791,2.1019,4.6957,1.7609,1.7215-.342,3.3797-1.6799,3.7173-3.6196.3888-2.2335-1.1544-4.2236-2.9348-4.9891Z"/>
      <path class="cls-1" d="M299.8255,217.7489c-2.9122-2.4578-6.6047-1.6243-6.8478-1.5652-4.829,1.1744-6.0727,6.5254-6.163,6.9456-.556,2.5864-.2017,6.4409,2.4457,8.4131,1.2156.9056,2.4757,1.0873,3.1304,1.1739,3.0363.4014,7.2751-.9011,9.1956-4.6956,1.687-3.3332,1.1802-7.7896-1.7609-10.2718Z"/>
      <path class="cls-1" d="M308.9233,270.9663c-1.2545-.7695-2.9745-.643-4.0435.3261-1.5143,1.373-1.0212,3.8023-.0652,5.0869.1987.267.929,1.2483,2.1522,1.3696,1.4335.1422,2.6801-.9824,3.1957-2.0869.699-1.4976.3965-3.6923-1.2391-4.6957Z"/>
      <path class="cls-1" d="M288.1842,243.8685c-1.0781-.8745-2.8588-.8826-4.1087,0-1.5994,1.1293-1.9214,3.4286-.9783,4.8914.8772,1.3605,2.5591,1.5479,2.7391,1.5652.3356.0322.9764.0936,1.5652-.1957,1.7598-.8647,2.7128-4.6952.7826-6.2609Z"/>
      <path class="cls-1" d="M139.4885,381.3142c-3.0161-.769-6.3925.9308-8.2173,3.1304-3.6947,4.4535-2.6807,12.9469,2.7391,16.0435,5.3441,3.0533,13.124-.1962,14.2173-4.1739.3904-1.4205-.3049-2.9036-1.6956-5.8696-2.4304-5.1833-3.906-8.3305-7.0435-9.1304Z"/>
      <path class="cls-1" d="M105.445,363.4446c-.2172-.0865-2.7966-1.0678-4.8261.3913-2.1251,1.5278-2.1472,4.6529-1.1739,6.6522.7229,1.4849,2.4384,3.2595,4.6957,3.1304,2.1111-.1207,3.3422-1.8292,3.5217-2.0869,1.3628-1.957.7436-4.1722.5217-4.8261-.686-2.0219-2.285-3.0031-2.7391-3.2609Z"/>
      <path class="cls-7" d="M354.1189,186.0533c-3.7873-2.4761-8.7113-.3868-11.1522,1.3696-3.0637,2.2045-5.8901,6.5285-4.8913,11.3478.8391,4.0485,4.2824,7.9876,8.413,8.2173,2.6619.1481,4.6761-1.2963,5.8696-2.1522.597-.4282,4.8246-3.5679,5.2827-9.1956.0858-1.0535.5629-6.9164-3.5218-9.587Z"/>
      <path class="cls-7" d="M393.2493,167.8576c-1.1055-.3125-2.6999-.1091-3.5217,1.0435-.9741,1.3662-.362,3.3636.7827,4.3696,1.6019,1.4078,4.4725,1.0723,5.3478-.4565.9294-1.6235-.5209-4.3664-2.6087-4.9565Z"/>
      <path class="cls-7" d="M403.2929,140.4663c-.7584-.0726-1.9359.1255-2.3478.913-.6457,1.2344.707,3.6927,2.5435,3.7827,1.1433.056,2.4523-.8069,2.6087-1.9565.1901-1.3979-1.4078-2.6054-2.8043-2.7391Z"/>
      <path class="cls-7" d="M404.7929,208.7489c-3.0933-1.228-6.1398.9398-6.6522,1.3044-2.9171,2.0757-5.1672,6.5448-3.3914,10.1739,1.541,3.1492,5.2126,3.8247,5.7391,3.9131.5597.094,4.0237.6756,6.5218-1.6957,2.7366-2.5977,2.0115-6.5533,1.826-7.5652-.2028-1.1063-.8946-4.8804-4.0435-6.1304Z"/>
      <path class="cls-7" d="M363.5103,245.3359c-3.0104-1.5351-7.4279.2329-9.3914,3.5217-2.0919,3.5039-.9158,7.9258,1.5652,10.174.4023.3646,2.2444,2.0337,4.6957,1.7609,2.9521-.3286,4.5169-3.221,4.8913-3.9131,1.8971-3.5068,1.9686-9.6416-1.7609-11.5435Z"/>
      <path class="cls-7" d="M366.6407,301.0968c-.9563-.9148-4.3377-4.1495-8.0218-3.326-4.727,1.0566-7.7839,8.3094-5.8696,13.8913,1.1645,3.3954,4.4358,6.9521,9,7.2391,3.0312.1906,6.5895-1.0638,8.4131-3.9131,2.9745-4.6477-.3707-10.877-3.5217-13.8913Z"/>
      <path class="cls-7" d="M326.0429,272.7272c-2.1204-.0872-4.0335,1.7538-4.0109,3.6196.0229,1.8881,2.0182,2.9919,2.4456,3.2283.3762.2081,2.5552,1.4135,4.1087.2935,1.2562-.9056,1.1959-2.6774,1.174-3.0326-.1082-1.7519-1.4431-4.0151-3.7174-4.1087Z"/>
      <path class="cls-7" d="M337.4885,351.7055c-1.4779-3.3232-5.2131-4.8378-8.3478-4.6956-5.1042.2314-7.612,4.8099-7.8261,5.2173-.1454.2767-2.4085,4.7656,0,9.1304.3568.6467,1.8884,3.4221,4.9565,4.174,4.1759,1.0233,7.9841-2.4897,9.6522-4.9565.7089-1.0483,3.3237-4.9155,1.5652-8.8696Z"/>
      <path class="cls-7" d="M260.4016,401.2707c-1.898-1.7711-4.9717-.9426-6.6522.3913-1.6037,1.2729-3.1024,3.9295-1.9565,6.0652,1.1589,2.16,4.2252,2.3,6.0652,1.7609.4768-.1397,2.1666-.6634,3.1304-2.3478.9933-1.7359,1.0228-4.3674-.5869-5.8696Z"/>
      <path class="cls-7" d="M207.0863,411.4446c-1.0081-.2841-2.6347-.2179-3.5217.9783-.8572,1.1559-.4998,2.6605,0,3.5217.9684,1.6685,3.1873,2.1551,4.6957,1.5652.285-.1115,1.5426-.6516,1.7609-1.7609.0248-.1262.0984-.5758-.2935-1.4673-.394-.8962-1.0499-2.3885-2.6413-2.837Z"/>
      <path class="cls-1" d="M95.7603,166.8794c-.4002-.1193-2.5118-.6946-4.2065.587-1.9454,1.4711-2.1697,4.5031-.9783,6.4565.6983,1.145,2.1437,2.3468,3.8152,2.25.9661-.056,1.6401-.5245,2.1522-.8804.5331-.3707,3.1298-2.1757,2.7391-4.7935-.2932-1.9641-2.0899-3.1927-3.5217-3.6196Z"/>
      <path class="cls-1" d="M68.8581,220.2924c-2.1797-.4826-4.4078,1.3271-4.7609,3.326-.0255.1447-.272,1.6779.7174,2.8044.8504.9681,2.0874,1.0366,3.3913,1.1087,1.2606.0698,2.2079.1221,2.9348-.5217,1.2346-1.0936.7294-3.2179.6522-3.5218-.0514-.2023-.7307-2.7076-2.9348-3.1956Z"/>
      <path class="cls-1" d="M91.2603,333.6729c-.8545-1.1914-2.5974-1.8185-4.0109-1.2717-1.9874.7687-2.2992,3.4615-1.8586,5.0869.0753.2777.6714,2.364,2.25,2.6413,1.1462.2014,2.1104-.674,2.4456-.9782,1.267-1.1501,2.4778-3.6603,1.174-5.4783Z"/>
      <path class="cls-8" d="M425.1407,174.412c-2.2807-1.3866-4.9422-.5092-5.2827-.3913-3.887,1.3463-5.3331,6.087-5.1848,9.3913.0405.9031.3197,4.3595,3.1304,6.8478.2626.2325,4.0226,3.4794,6.9456,2.0543,1.967-.959,2.3945-3.468,2.837-6.0652.3868-2.2706,1.5978-9.3785-2.4456-11.8369Z"/>
      <path class="cls-8" d="M437.9559,208.3576c-1.1159-1.2526-3.2532-1.9953-4.7935-1.1739-2.3781,1.2682-1.5815,5.3314-1.4674,5.8696.043.2027.8713,3.9166,2.9348,4.1087,1.2274.1143,2.2318-1.0788,2.6413-1.5652,1.4553-1.7287,2.5535-5.1415.6848-7.2391Z"/>
      <path class="cls-8" d="M420.8363,237.5099c-.9503-.2745-2.2867-.6607-3.326,0-2.0387,1.2961-2.4677,6.3242.3913,8.2173,2.0806,1.3777,5.1627.6052,6.6522-1.1739.2405-.2872.9599-1.1466.9783-2.3478.0364-2.3818-2.7139-4.123-4.6957-4.6956Z"/>
      <path class="cls-8" d="M421.2276,298.0968c-1.3781-2.3402-4.6414-2.4703-4.9565-2.4783-3.4603-.088-5.6136,2.6686-6.1304,3.3914-1.7926,2.5073-2.6425,6.7674-.3914,9.1304,1.6051,1.685,3.9967,1.576,4.174,1.5652,2.2944-.1395,3.7227-1.7634,4.6956-2.8696.4774-.5427,4.645-5.2812,2.6087-8.7391Z"/>
      <path class="cls-8" d="M385.0972,337.2272c-2.2953-1.0703-5.0726.4361-6.4565,1.6304-2.889,2.4934-2.7697,6.2728-2.7391,7.2391.0435,1.3775.1321,4.1848,2.0217,5.2826,1.6901.9819,3.812.0103,5.5435-.7826,1.6462-.7538,4.2835-1.9614,5.087-4.6956.6744-2.2951-.3217-4.3781-.8478-5.4783-.5854-1.2242-1.2182-2.5474-2.6087-3.1957Z"/>
      <path class="cls-8" d="M358.6189,373.4881c-1.874-2.6774-6.1295-2.1939-6.4565-2.1522-2.3121.295-3.7628,1.5106-5.8696,3.3261-3.0015,2.5865-6.0386,5.2038-5.674,8.6087.3032,2.8315,2.7755,4.4941,2.9348,4.5978,1.9702,1.282,4.0483,1.0054,6.4565.6848,2.5038-.3333,4.7808-.6364,6.6522-2.4457,2.3089-2.2323,2.4878-5.2949,2.6413-7.9239.1214-2.0793.2004-3.431-.6848-4.6957Z"/>
      <path class="cls-8" d="M302.4016,400.7489c-1.7399-1.1445-3.894-.6188-4.8261-.3913-3.705.9042-8.5647,4.6731-7.5652,9,.7105,3.076,4.1495,5.4266,7.5652,5.2174,3.3917-.2078,5.3202-2.8513,5.6087-3.2609,2.3519-3.3386,2.0541-8.6991-.7826-10.5652Z"/>
      <path class="cls-8" d="M272.532,414.4446c-1.7822-1.1502-5.7139.2386-6.5217,3.1304-.6436,2.3037.8064,5.1636,2.8696,5.6087,1.4517.3132,2.7152-.6754,3-.913,2.3201-1.9359,2.6255-6.5525.6522-7.8261Z"/>
    </g>
  </g>
</svg>