<?xml version="1.0" encoding="UTF-8"?>
<svg id="Capa_2" xmlns="http://www.w3.org/2000/svg" viewBox="0 0 405.3633 405.3704">
  <defs>
    <style>
      .cls-1 {
        fill: #599dd1;
      }

      .cls-2 {
        fill: #9cd1f2;
      }

      .cls-3 {
        fill: #1e86c6;
      }

      .cls-4 {
        fill: #2d9cd3;
      }

      .cls-5 {
        fill: #0476af;
      }

      .cls-6 {
        fill: #4291c1;
      }

      .cls-7 {
        fill: #86bfea;
      }

      .cls-8 {
        fill: #6cace4;
      }
    </style>
  </defs>
  <g id="Capa_1-2" data-name="Capa_1">
    <g>
      <g>
        <path class="cls-8" d="M202.6815,402.4612c-22.6748,0-41.1826-7.4009-60.7769-15.2358-2.707-1.0825-5.4277-2.1704-8.1748-3.2437-2.9653-1.1577-5.9624-2.2983-8.9707-3.4438-19.6387-7.4751-39.9458-15.2051-55.437-29.1016-.5215-.4683-1.0435-.9512-1.5493-1.4424-10.2461-9.7598-17.0938-22.4106-21.9131-32.3394-2.2344-4.5874-4.3745-9.3291-6.4443-13.9141-2.4902-5.5171-5.0654-11.2222-7.7861-16.6084-1.6006-3.1665-3.2227-6.3047-4.8374-9.4302-12.2822-23.7666-23.8828-46.2153-23.8828-75.0205,0-15.7915,4.5991-27.4004,9.4688-39.6909,1.9058-4.8101,3.8765-9.7837,5.6372-15.1802,1.6465-5.0557,3.1646-10.3672,4.771-15.9907,5.0796-17.7759,10.332-36.1577,20.5327-49.6279,14.812-19.562,34.5562-30.9946,55.4595-43.0984,1.7842-1.033,3.5767-2.071,5.3755-3.1194C133.6112,18.8008,165.9359,2.9092,202.6815,2.9092c24.0718,0,45.521,8.7805,66.2637,17.2722,2.2373.9158,4.4688,1.8293,6.6978,2.7295l2.4487.9885c24.4268,9.8555,47.498,19.1643,65.8525,37.5188,14.0322,14.0391,22.2578,33.0317,29.5146,49.7881l.7305,1.6836c1.5938,3.6724,3.2412,7.4697,4.9043,11.1348l2.4043,5.2666c10.7764,23.5688,20.9561,45.8301,20.9561,73.3901,0,20.7783-7.8594,39.7642-15.459,58.1255-1.7461,4.2188-3.5527,8.5815-5.1875,12.8071-.958,2.4766-1.8975,4.9395-2.8311,7.3853-8.8564,23.2119-17.2227,45.1367-35.0322,62.9453-11.6113,11.6118-30.0977,20.2495-46.4082,27.8701-5.0098,2.3408-9.7422,4.5518-14.0889,6.7529-25.3457,12.8213-47.2334,23.8936-80.7656,23.8936Z"/>
        <path class="cls-2" d="M202.6816,5.8184c26.0554,0,49.1124,10.5991,71.8718,19.79,24.7267,9.9895,48.7857,19.3184,67.3344,37.8669,13.3724,13.3799,21.2203,31.1519,28.9011,48.8875,1.873,4.3123,3.7316,8.6245,5.6554,12.8643.2032.4429.3993.8857.6025,1.3213,11.0712,24.3057,22.498,47.6604,22.498,76.1333,0,25.0388-11.9279,47.8564-20.4508,69.8826-9.9822,25.8083-17.9897,50.1069-37.2063,69.3235-14.6938,14.6938-41.0323,24.6035-59.7552,34.0847-26.6797,13.4958-47.5153,23.5796-79.451,23.5796-25.2495,0-45.7076-9.6118-67.8934-18.28-22.1859-8.6609-46.0995-16.3708-63.523-32.001-.4937-.4429-.9873-.9004-1.4664-1.365-9.1837-8.748-15.6449-19.8264-21.322-31.5217-4.9149-10.0913-9.2418-20.647-14.2509-30.5637-13.4669-26.6433-28.4074-51.2395-28.4074-83.1389,0-21.3147,8.6899-34.7454,14.9623-53.9692,6.8387-20.9954,11.8116-47.5371,24.8574-64.7644,15.7102-20.7485,37.3879-32.2915,59.9803-45.4607,29.0899-16.9587,60.9675-32.6689,97.0632-32.6689M202.6816,0c-37.4367,0-70.183,16.0818-99.9936,33.4607-1.7956,1.0466-3.5856,2.0833-5.3674,3.1147-21.1644,12.2551-41.155,23.8303-56.3211,43.8604-10.5291,13.9038-15.8576,32.5518-21.0107,50.5857-1.5992,5.5967-3.1097,10.8828-4.7403,15.8889-1.732,5.3081-3.6859,10.2397-5.5753,15.0088-4.9745,12.5559-9.6732,24.4153-9.6732,40.7625,0,29.5132,12.3066,53.3276,24.2081,76.3579,1.5891,3.075,3.2322,6.2544,4.825,9.4058,2.6917,5.3289,5.2542,11.0056,7.7322,16.4954,2.0778,4.6033,4.2264,9.3633,6.4805,13.9912,4.9208,10.1375,11.9305,23.074,22.5222,33.1702.5003.4846,1.0425.9893,1.6119,1.5,15.8925,14.2566,36.4557,22.0842,56.342,29.6543,2.9493,1.1226,5.999,2.2834,8.9504,3.4358,2.7321,1.0674,5.4882,2.1694,8.1534,3.2351,18.9877,7.5923,38.6218,15.4431,61.8559,15.4431,34.2247,0,56.4003-11.2173,82.0773-24.2061,4.3079-2.1814,9.019-4.3826,14.0068-6.7129,16.5284-7.7227,35.2621-16.4753,47.2363-28.4495,18.2479-18.2478,26.7213-40.4543,35.6921-63.9648.9318-2.4419,1.87-4.9011,2.8265-7.374,1.6223-4.1924,3.3412-8.345,5.1611-12.7415,7.7095-18.6245,15.6814-37.8831,15.6814-59.24,0-28.1938-10.7875-51.7854-21.2198-74.6003-.6003-1.3127-1.2015-2.6274-1.8015-3.9448l-.0111-.0244-.0114-.0242c-.111-.2378-.2195-.478-.3286-.7192l-.2584-.5684c-1.6418-3.6187-3.2837-7.4023-4.8715-11.0615l-.7354-1.6941c-7.3574-16.989-15.6995-36.2515-30.1224-50.6824-18.7745-18.7747-42.1134-28.1912-66.8225-38.1606l-2.4478-.988c-2.2249-.8984-4.4519-1.8101-6.6842-2.7241C249.0448,8.8911,227.3259,0,202.6816,0h0Z"/>
      </g>
      <path class="cls-1" d="M399.5449,202.6816c0,25.0389-11.9278,47.8564-20.4508,69.8825-9.9822,25.8085-17.9897,50.107-37.2063,69.3236-14.6938,14.6938-41.0323,24.6035-59.7552,34.0847-26.6797,13.4959-47.5152,23.5797-79.451,23.5797-25.2495,0-45.7076-9.6119-67.8934-18.2801-22.1859-8.6609-46.0996-16.3707-63.523-32.0011-9.9749-8.9513-16.8136-20.5814-22.7884-32.8867,12.8498,7.4485,30.3894,15.9134,53.3593,16.0295,12.8716.0653,18.1349-2.5482,35.7907-1.1397,21.6777,1.735,27.5653,6.7661,46.5932,10.229,11.8334,2.1561,37.7508,6.875,65.0476-2.8386,25.5907-9.1038,40.6112-26.6942,48.8655-36.3642,16.4507-19.2675,27.9357-33.347,35.5149-53.217,4.7915-12.5522-.6752-16.956,7.9494-43.0839,10.2436-31.0501,9.1076-54.274,14.5814-71.4942,3.0781-9.6918-.1894-27.4524,14.6101-22.1423,1.873,4.3123,3.7315,8.6246,5.6553,12.8643,11.2526,24.7776,23.1006,48.4663,23.1006,77.4545Z"/>
      <path class="cls-7" d="M320.0062,55.7207c-13.4978-9.4489-21.8773-9.7398-44.3162-17.0447-34.5075-11.2338-32.1231-21.4828-51.7022-25.7154-28.0845-6.0712-47.5233-3.9708-72.9483,9.0968-15.1823,7.8032-24.7975,13.8262-58.864,33.6633-28.5656,16.6339-33.6949,21.9102-37.4983,26.7033-12.7946,16.1242-17.8675,35.9598-21.0218,48.2933-3.2388,12.6642-1.1595,13.3951-4.5453,24.9989-5.0899,17.4441-10.5717,21.4475-13.6357,36.1726-2.4942,11.9864-1.4253,21.653-.7575,27.2715.1952,1.6425,2.6797,22.5996,16.2871,42.8011,4.3419,6.4459,7.736,9.7294,11.7419,9.6586,3.8873-.0687,7.5658-3.2823,9.0905-6.8178,2.4232-5.6189-.676-11.8596-1.7045-14.2039-3.9672-9.0425-1.1297-22.8837,4.5452-50.5659,4.7352-23.0978,7.1027-34.6468,13.6357-49.9977,6.2485-14.6826,17.2104-39.6423,42.6117-60.2246,11.4046-9.2409,25.7843-20.8926,46.5888-23.2944,5.4383-.6278,17.8295-6.8581,44.1268-3.7882,25.6951,2.9997,28.4486,11.5429,36.5514,11.1742,19.702-.8964,20.3932-6.064,38.0665-6.2497,11.1362-.117,25.4346-.2673,39.2028,7.9542,11.1508,6.6585,18.8947,16.9815,24.4307,14.2039,1.9286-.9676,2.6524-3.0552,2.8408-3.5983,3.1132-8.9781-12.1473-23.0855-22.7262-30.4911Z"/>
      <g>
        <path class="cls-3" d="M338.3585,240.1554c-3.7431,24.8853-16.2809,47.8753-32.7125,66.9477-14.4569,16.7885-32.4904,31.1343-53.6009,37.8909-24.1478,7.732-50.6984,4.9882-74.7194-3.1245-30.9203-10.4362-58.9539-29.8576-78.5338-55.9722-20.0478-26.7489-30.6427-60.4844-29.5483-93.8075.2855-8.8502,1.3957-17.6608,3.3704-26.3128,11.4514-50.1592,54.624-97.1859,106.1392-100.9528,10.1746-.7375,20.6743.2062,31.3168,3.1404,19.683,5.4402,37.5579,16.1065,53.9182,28.335,10.0318,7.4941,19.6433,15.6861,28.446,24.6077,11.1341,11.2769,20.9994,23.7354,28.8425,37.4945,14.0525,24.6395,21.3087,53.704,17.0819,81.7535Z"/>
        <path class="cls-5" d="M338.3585,240.1554c-3.7431,24.8853-16.2809,47.8753-32.7125,66.9477-14.4569,16.7885-32.4904,31.1343-53.6009,37.8909-24.1478,7.732-50.6984,4.9882-74.7194-3.1245-30.9203-10.4362-58.9539-29.8576-78.5338-55.9722-20.0478-26.7489-30.6427-60.4844-29.5483-93.8075,2.8152,7.2563,6.7883,19.5562,13.7274,31.5784,15.2658,26.4556,38.1448,39.8895,45.0997,43.8626,29.9052,17.0899,58.5257,16.5505,71.579,16.1382,17.1374-.5472,45.1393-1.4353,71.1666-21.5149,22.9027-17.6767,31.9988-40.7459,35.1709-50.4843,6.3998-19.6355,5.2816-35.9323,4.9644-39.715-1.7129-20.6346-10.1667-37.9861-18.5172-51.0474,11.1341,11.2769,20.9994,23.7354,28.8425,37.4945,14.0525,24.6395,21.3087,53.704,17.0819,81.7535Z"/>
        <path class="cls-4" d="M198.5147,71.5773c-1.3088-2.0345-4.2042-2.9965-6.7504-3.413-28.9744-4.7388-58.138,13.0257-74.6823,35.8238-.1623.2236-.3236.448-.4838.673-4.328,6.079-8.005,12.9343-8.5871,20.3738-.0749.9576.1013,2.2007,1.0357,2.4234.4591.1094.9289-.0943,1.3546-.2983,13.4686-6.4536,24.3703-18.0598,38.7023-22.2608,8.4796-2.4855,17.5018-2.1602,26.2414-3.4639,4.8548-.7243,9.7979-2.0354,13.6222-5.1125,5.7562-4.6317,7.9228-12.2932,9.7722-19.4463.323-1.2493.6478-2.5527.3839-3.8157-.1147-.5488-.3242-1.0415-.6086-1.4836Z"/>
        <path class="cls-4" d="M95.7785,132.7741c-.4629-.1244-.9459-.1645-1.4413-.0982-2.9619.3967-5.2963,4.6593-6.5826,6.9933-6.1881,11.2288-8.8329,23.9982-11.9097,36.4445-.8537,3.4532-1.7532,7.0058-1.2497,10.5272s2.7842,7.0467,6.2472,7.8599c2.8565.6708,5.9161-.6653,7.917-2.8115,2.0794-2.2304,3.1745-5.2123,3.7925-8.1985,1.2793-6.182.7203-12.6014,1.5897-18.8542.8551-6.15,3.0709-12.0126,4.9591-17.9277.9071-2.8416,1.7485-5.8583,1.1041-8.7707-.45-2.0336-2.2072-4.5677-4.4262-5.1642Z"/>
      </g>
      <path class="cls-6" d="M399.5449,202.6816c0,25.0389-11.9278,47.8564-20.4508,69.8825-9.9822,25.8085-17.9897,50.107-37.2063,69.3236-14.6938,14.6938-41.0323,24.6035-59.7552,34.0847-26.6797,13.4959-47.5152,23.5797-79.451,23.5797-25.2495,0-45.7076-9.6119-67.8934-18.2801-22.1859-8.6609-46.0996-16.3707-63.523-32.0011-.4937-.4428-.9873-.9002-1.4664-1.3648,3.8694,1.2923,7.9204,2.57,12.1529,3.8259,4.8568,1.4374,14.9551,4.3268,30.1063,9.0893,17.9026,5.6263,25.6795-.8472,37.7743,3.0295,32.1027,10.2799,45.4113,16.9333,58.0579,16.2871,16.9878-.8711,28.9488-.2016,42.2342-6.8154,24.4727-12.1965,17.6359-20.7801,44.5043-34.8494,18.948-9.9169,30.0318-7.7074,40.1519-17.9945,10.1927-10.3597,15.4996-23.0134,18.1785-29.54,4.2615-10.3888,5.1617-16.9516,7.3832-26.7015,8.9295-39.1955,10.8518-40.4006,13.8283-68.024,1.2124-11.1655-3.3632-20.862-4.924-39.1712-1.1325-13.2346,9.0346-23.1176,7.8005-30.4936,11.0712,24.3057,22.498,47.6604,22.498,76.1332Z"/>
      <path class="cls-2" d="M219.6319,13.7719c-.6028-1.9168-4.5718-2.3804-14.1092-2.6514-9.0224-.2564-13.5336-.3846-16.0978-.0947-7.8977.8929-13.5885,2.9921-19.9802,5.3975-7.1458,2.6892-14.2159,6.1034-14.0145,6.6285.0884.2306,1.5772-.0999,18.4651-4.924,8.7449-2.498,10.5324-3.0341,13.9198-3.2196,4.8103-.2634,9.9796.3371,12.7835.6628,3.0919.3592,6.2101.5263,9.2799,1.0416.2319.0389,1.8591.1522,5.1134.3788,2.0114.14,3.0325.1964,3.7877-.4735.7265-.6444,1.1257-1.8766.8522-2.7461Z"/>
      <path class="cls-2" d="M84.9316,61.6864c-3.2251,1.9862-3.7888,2.7482-6.3918,4.4032-2.4692,1.5699-2.536,1.2492-6.6758,3.551-1.6986.9444-6.741,3.748-6.5338,4.1901.1329.2835,2.5743-.6159,7.4571-2.4146,4.5087-1.6609,5.9506-2.3458,7.5281-3.409,1.0546-.7107,1.8867-1.4444,3.551-2.9118.9445-.8328,5.9039-5.2054,5.5395-5.6815-.2511-.3282-2.933,1.3235-4.4742,2.2726Z"/>
      <path class="cls-2" d="M43.8113,103.5169c1.7157-4.6566,3.6798-7.9733,5.5395-11.0791.5178-.8647,2.9146-4.8337,6.7469-9.6586,1.2817-1.6137,4.9163-6.1897,5.4685-5.8236.544.3607-2.1669,5.3432-2.6987,6.3207-1.6604,3.0518-3.0002,4.9255-4.5452,7.244,0,0-2.3945,3.5932-5.5395,8.9485-4.9648,8.4541-6.7235,13.684-7.244,13.4937-.497-.1817.6747-5.1087,2.2726-9.4456Z"/>
      <path class="cls-2" d="M28.0736,169.3772c-.4717.2814-.9479.6589-1.2825.9977-1.4422,1.4604-2.513,3.2607-3.4748,5.0595-5.6512,10.5686-8.2669,22.7385-7.4574,34.6958.8109,11.9783,4.9433,23.4654,9.4562,34.5907.7038,1.735,2.0534,3.8143,3.8688,3.356,1.0175-.2569,1.6781-1.3148,1.7723-2.36s-.2663-2.0759-.6865-3.0376c-1.1025-2.5232-2.6441-4.8262-3.9529-7.2488-5.3051-9.8205-6.6348-21.425-5.4728-32.5262,1.162-11.1012,4.6801-21.8157,8.6154-32.2609.7737-2.054-.2937-1.9178-1.3858-1.2662Z"/>
    </g>
  </g>
</svg>