<?xml version="1.0" encoding="UTF-8"?>
<svg id="Capa_2" xmlns="http://www.w3.org/2000/svg" viewBox="0 0 561.6731 563.5562">
  <defs>
    <style>
      .cls-1 {
        fill: #bf3441;
      }

      .cls-2 {
        fill: #ba0c1c;
      }

      .cls-3 {
        fill: #d83954;
      }

      .cls-4 {
        fill: #ef7f8f;
      }

      .cls-5 {
        fill: #e55e6c;
      }

      .cls-6 {
        fill: #d6404a;
      }

      .cls-7 {
        fill: #b22f3f;
      }

      .cls-8 {
        fill: #9e2539;
      }

      .cls-9 {
        fill: #a5071b;
      }
    </style>
  </defs>
  <g id="Capa_1-2" data-name="Capa_1">
    <g>
      <g>
        <path class="cls-6" d="M553.5032,286.8146c-.91,8.8301-5.45,14.9001-7.13,17.0901-4.95,6.46-7.45,5.1899-10.68,10.6799-2.7,4.6001-2.99,9-3.56,17.8-.16,2.53-.12,3.38,0,14.96.15,14.24.11,15.55-.71,17.8-2.33,6.39-5.55,5.49-9.97,12.8201-1.04,1.73-7.07,11.73-4.98,22.7899,1.59,8.4501,6.27,8.7101,7.12,17.09.11,1.1001,1.06,11.8601-5.46,17.0901-2.31,1.85-6.29,2.5-14.25,3.7999-8.53,1.39-8.33.52-11.39,1.66-8.65,3.22-13.15,11.28-14,12.8201-.66,1.1699-1.63,3.5499-3.56,8.2999-2.97,7.2899-2.59,7.27-3.8,9.74-3.03,6.1801-7.2,10.03-10.21,12.8099-1.86,1.7201-4.97,4.5601-9.73,7.1201-3.85,2.08-5.81,2.3699-8.78,3.5699-1.48.58-12.88,5.3099-18.52,15.66-2.59,4.75-3.2599,9.3799-4.27,16.3799-1.32,9.0701-.14,12.05-2.85,14.9601-4,4.2899-11.66,3.28-14.96,2.84-8.13-1.0699-9.08-4.55-19.94-7.83-4.61-1.39-3.08-.35-14.95-2.85-12.33-2.5901-14.68-3.8601-17.8-2.13-.92.5-1.34.95-7.84,10.6801-4.49,6.72-4.69,7.1099-5.69,7.8298-6.54,4.6901-16.13,1.0901-17.09.7101-4.55-1.78-3.63-3.17-9.26-6.41-8.47-4.87-17.25-5.58-20.65-5.6899-2.83-.0901-9.26,0-9.26,0,0,0-1.99.1899-4.41.47-2.42.27-5.27.63-6.98.95-9.59,1.8201-10.6,7.8101-19.94,12.1101-.63.2899-11.53,5.1299-23.5,2.1299-7.17-1.7899-12.71-5.8899-22.08-12.8099-5.47-4.0499-8.35-6.87-14.24-8.5499-3.33-.9501-6.21-1.1301-11.4-1.42-9.42-.54-10.37.46-14.95,0-8.69-.88-14.8-5.4401-22.79-11.4-5.56-4.15-9.23-6.95-12.1-12.1-3.52-6.3199-1.63-8.5699-4.28-12.8199-7.1-11.4102-29.54-9.3701-30.62-9.26-14.19,1.45-16.44,8.0999-26.35,6.4099-6.04-1.03-12.37-4.73-16.1-9.6899-1.55-2.05-2.66-4.3101-3.12-6.6901-.22-1.12-.27-2.17,2.01-9.0399,1.09-3.28,2.71-7.8901,5.11-14.4601,2.57-7.0599,3.72-10.0499,4.27-14.95.46-4.09,1.06-10.05-2.14-15.67-.95-1.6699-2.53-3.25-5.69-6.4099-3.17-3.1602-6.87-6.8501-11.4-9.9701-7.59-5.23-9.16-3.13-14.95-7.12-6.55-4.52-13.02-13.05-12.82-22.08.09-3.91,1.38-5.7001,4.99-13.53,1.71-3.72,3.93-8.77,6.35-14.99,1.84-4.7201.16-10.0599-4-12.9501-3-2.08-6.05-4.58-7.34-7.83-2.75-6.91-4.29-12.1901-.89-17.09,5.2-7.5,9.77-8.6799,12.28-16.21,2.74-8.1901-1.63-11.8101-.71-22.79.63-7.47,2.9-8.75,5.7-17.8,5.43-17.54-.73-20.33,3.56-36.3199,4.12-15.37,10.73-16.2101,11.39-29.91.52-10.63-1.42-17.8-1.42-17.8-1.9-7.0399-4.45-9.8699-3.8-15.6699.16-1.42.82-7.3101,5.22-10.92,3.37-2.7599,5.55-1.42,15.2-4.2699,3.05-.9102,6.25-1.8701,9.97-3.8,1.64-.8501,6.78-3.5701,10.91-8.0701,6.4901-7.0499,3.64-11.03,9.97-21.36,4.81-7.84,10.63-12.35,11.87-13.2999,5.73-4.3301,6.73-2.8801,14.25-8.0701,6.08-4.2,11.83-9.58,13.76-11.3899,3.91-3.6601,5.23-5.3001,8.55-7.1201,3.09-1.7,5.62-2.3,10.44-3.33,16.89-3.58,16.65-2.74,19.7-4.15,6.9-3.18,5.17-6.07,13.53-11.39,9.48-6.03,12.61-2.92,17.45-8.1899,3.71-4.05,5.73-10.08,8.19-17.45,1.26-3.76,1.61-5.65,3.56-7.83,4.46-4.99,11.43-4.99,11.75-4.99,4.65.07,7.85,2.3,14.24,6.77,4.38,3.06,5.94,4.97,11.75,8.54,2.07,1.27,3.97,2.32,6.41,3.21,3.42,1.24,6.21,1.5699,8.19,1.78,8.98.94,14.69,1.54,23.86,1.07,8.83-.46,13.33-.74,17.09-3.21,2.88-1.89,3.27-3.28,6.41-4.98,5.62-3.05,11.45-2.44,14.24-2.14,15.3,1.62,24.08,14.23,24.57,14.95,3.65,5.42,1.87,6.37,5.34,11.04,5.82,7.85,14.77,10.48,23.14,12.82,11.24,3.14,13.1,1.09,27.42,4.63,8.86,2.19,13.3,3.28,17.09,6.05,9.02,6.59,14.2,18.45,15.31,21.0099,1.95,4.4801,1.75,5.49,3.56,7.4801,5.43,5.96,15.83,6.2999,18.87,6.41,4.38.1399,6.7-.51,10.33,1.0599,1.37.6,4.45,1.9301,6.05,4.99.68,1.28.93,2.58.36,10.3199-.55,7.3201-.92,8.03-.36,9.9701.9,3.12,2.46,3.42,6.06,7.84,6.13,7.52,4.19,9.8201,8.9,13.53,3.21,2.53,4.67,1.8999,9.61,5.6899,2.72,2.1001,4.09,3.15,5.34,4.99.81,1.1901,1.4,2.4401,1.8,3.73,1.33,4.16.82,8.6801.34,12.6501-.7599,6.22-2,6.5999-2.49,10.6799-.82,6.78,2.04,10.35,5.77,18.27.77,1.6499,1.58,3.49,2.41,5.59,5.78,14.65,1.94,16,7.13,24.2101,3.58,5.6699,4.75,3.99,17.09,16.3799,10.8,10.8401,13.01,15.25,14.24,18.51.87,2.3,2.87,7.8101,2.14,14.96Z"/>
        <path class="cls-4" d="M221.2932,8.0146c4.6499.07,7.8499,2.3,14.24,6.7701,4.3799,3.06,5.9399,4.9699,11.75,8.5399,2.0701,1.2701,3.97,2.32,6.4099,3.2101,3.4202,1.24,6.21,1.5699,8.1902,1.7799,6.8325.7152,11.7722,1.2336,17.783,1.2336,1.8892,0,3.884-.0512,6.0769-.1636,8.8301-.46,13.3301-.74,17.0901-3.21,2.8799-1.8899,3.27-3.28,6.4099-4.98,3.575-1.9402,7.2354-2.3994,10.1438-2.3994,1.6636,0,3.0808.1501,4.0962.2593,15.3,1.62,24.0801,14.2301,24.5701,14.95,3.6499,5.42,1.8699,6.37,5.3398,11.04,5.8201,7.8501,14.77,10.4801,23.1401,12.82,11.24,3.1401,13.1001,1.0901,27.4199,4.6301,8.8601,2.19,13.3,3.28,17.0901,6.0499,9.02,6.5901,14.2,18.4501,15.3101,21.01,1.95,4.4801,1.75,5.49,3.5598,7.4801,5.4302,5.96,15.8301,6.2999,18.8701,6.41.4941.0158.9622.0215,1.4087.0215,1.1841,0,2.218-.0403,3.1917-.0403,1.9138,0,3.5952.1556,5.7297,1.0788,1.3699.5999,4.45,1.93,6.0498,4.99.6802,1.28.9302,2.5799.3601,10.3199-.55,7.3201-.9199,8.03-.3601,9.9701.9001,3.12,2.4602,3.42,6.0601,7.84,6.1301,7.52,4.1899,9.82,8.9001,13.53,3.21,2.53,4.6699,1.8999,9.6099,5.6899,2.72,2.1001,4.0901,3.1501,5.3401,4.99.8101,1.1901,1.3999,2.4401,1.8,3.73,1.3298,4.16.8198,8.6801.3398,12.6502-.76,6.2199-2,6.5998-2.49,10.6799-.8201,6.78,2.04,10.35,5.77,18.27.77,1.6499,1.5801,3.49,2.4099,5.59,5.78,14.65,1.9402,16,7.1301,24.2101,3.5801,5.6699,4.75,3.9899,17.0901,16.3798,10.7998,10.8401,13.01,15.25,14.24,18.51.8699,2.3001,2.8699,7.8101,2.1399,14.96-.9099,8.8301-5.45,14.9002-7.1299,17.0901-4.9502,6.4599-7.4502,5.1899-10.6802,10.6799-2.7,4.6001-2.99,9-3.5598,17.8001-.1602,2.53-.1201,3.38,0,14.9599.1499,14.24.1099,15.5501-.7102,17.8001-2.3298,6.39-5.5498,5.49-9.97,12.82-1.04,1.73-7.0698,11.73-4.98,22.7899,1.5901,8.4501,6.27,8.7101,7.1201,17.09.1099,1.1001,1.0598,11.8601-5.46,17.0901-2.3101,1.85-6.29,2.5-14.25,3.7999-8.53,1.39-8.3301.52-11.3901,1.6601-8.6499,3.2199-13.1499,11.28-14,12.82-.6599,1.17-1.6299,3.55-3.5601,8.3-2.97,7.2899-2.5898,7.27-3.7998,9.7399-3.03,6.1801-7.2002,10.0301-10.2102,12.81-1.8599,1.7201-4.97,4.56-9.73,7.1201-3.8499,2.08-5.8098,2.3699-8.78,3.5699-1.48.58-12.8799,5.31-18.52,15.6601-2.5898,4.75-3.2598,9.3799-4.2698,16.3799-1.3201,9.07-.1401,12.05-2.8501,14.96-2.4495,2.627-6.272,3.2668-9.6248,3.2668-2.1223,0-4.0559-.2562-5.3352-.4268-8.1301-1.0699-9.0801-4.55-19.9399-7.8299-4.6101-1.3901-3.0801-.35-14.9502-2.85-8.4287-1.7706-12.1941-2.9243-14.7295-2.9244-1.1736,0-2.0833.247-3.0703.7944-.9202.5-1.3401.9499-7.8401,10.68-4.49,6.72-4.6899,7.1099-5.6899,7.8299-2.5288,1.8134-5.5137,2.3875-8.2791,2.3875-4.387,0-8.2222-1.4444-8.811-1.6775-4.55-1.78-3.6299-3.17-9.26-6.41-8.47-4.87-17.25-5.5799-20.6499-5.6899-.9434-.03-2.2869-.04-3.6587-.04-2.7437,0-5.6013.04-5.6013.04,0,0-1.99.1899-4.4102.4699-2.4199.2701-5.27.63-6.98.95-9.5898,1.8201-10.5999,7.8101-19.9399,12.1101-.4819.2218-6.9758,3.1068-15.3596,3.1068-2.5752,0-5.3276-.2719-8.1404-.9769-7.1699-1.7899-12.71-5.8899-22.0801-12.81-5.47-4.0499-8.3499-6.8699-14.24-8.5499-3.3298-.9501-6.21-1.1301-11.3999-1.42-2.1135-.1212-3.8008-.1648-5.1982-.1648-3.5996,0-5.2773.2896-7.3682.2896-.7151,0-1.4783-.0338-2.3835-.1248-8.6902-.88-14.8-5.4401-22.79-11.4-5.5601-4.1501-9.23-6.95-12.1001-12.1-3.52-6.32-1.6299-8.57-4.28-12.82-5.1343-8.2512-18.2913-9.4687-25.5911-9.4688-2.7944,0-4.7297.1784-5.0288.2088-12.6084,1.2884-15.7915,6.6829-23.2964,6.6829-.9414,0-1.9492-.0847-3.0537-.273-6.04-1.03-12.3699-4.7299-16.0999-9.6899-1.55-2.0501-2.6602-4.3101-3.1201-6.6901-.22-1.12-.27-2.17,2.01-9.0399,1.0901-3.28,2.71-7.8901,5.1101-14.4601,2.5698-7.0599,3.72-10.0499,4.27-14.9499.46-4.09,1.0598-10.0501-2.1401-15.6701-.95-1.6699-2.53-3.25-5.6899-6.4099-3.1699-3.1601-6.8701-6.8501-11.3999-9.9701-7.5901-5.23-9.1602-3.13-14.9502-7.12-6.5498-4.52-13.02-13.05-12.8198-22.0799.0898-3.9101,1.3799-5.7001,4.99-13.5301,1.71-3.7199,3.9299-8.77,6.3499-14.9899,1.8401-4.7201.1602-10.06-4-12.9501-3-2.08-6.05-4.58-7.3398-7.83-2.75-6.91-4.29-12.19-.8901-17.0899,5.2-7.5,9.77-8.6799,12.28-16.21,2.74-8.19-1.6299-11.81-.71-22.79.6299-7.47,2.8999-8.75,5.7-17.8001,5.4299-17.54-.73-20.3299,3.5601-36.3199,4.1199-15.37,10.73-16.2101,11.3899-29.9101.52-10.63-1.4199-17.8-1.4199-17.8-1.8999-7.0399-4.45-9.8699-3.8-15.6699.1602-1.4201.8201-7.3101,5.22-10.9201,3.3701-2.7598,5.55-1.42,15.2-4.2699,3.05-.9101,6.25-1.8701,9.9702-3.8,1.6399-.8501,6.7798-3.5701,10.9099-8.0701,6.49-7.0499,3.6399-11.03,9.97-21.36,4.8101-7.8399,10.6301-12.3499,11.8701-13.2999,5.73-4.3301,6.73-2.8801,14.25-8.0701,6.0798-4.1999,11.8298-9.5799,13.76-11.3898,3.9099-3.6602,5.23-5.3002,8.5498-7.1201,3.0901-1.7,5.6201-2.3001,10.4402-3.33,16.8899-3.58,16.6499-2.74,19.7-4.1501,6.8999-3.1799,5.1699-6.07,13.53-11.39,9.48-6.03,12.6099-2.92,17.45-8.1899,3.71-4.0501,5.73-10.0801,8.1899-17.4501,1.26-3.76,1.6101-5.65,3.5601-7.83,4.46-4.9901,11.4299-4.9901,11.75-4.9901M221.3535,0h-.0603c-1.8162,0-11.2063.3695-17.7258,7.6637-2.7517,3.0765-3.668,5.9299-4.6379,8.9509-.1648.5132-.3425,1.0676-.5457,1.6735-2.1108,6.3242-3.9312,11.7781-6.5005,14.5831-.8362.9103-.9688.943-3.1838,1.4887-2.7581.6796-6.926,1.7065-12.6577,5.3523-5.1729,3.2917-7.4473,6.0453-9.1079,8.056-1.2454,1.5082-1.6213,1.9634-3.4751,2.8177q-.6484.2997-3.0652.7097c-2.5447.4315-6.8037,1.1538-14.9421,2.8789-5.176,1.1059-8.5483,1.8964-12.6416,4.1483-3.5383,1.9395-5.5317,3.8568-8.0559,6.2843-.6182.5945-1.3064,1.2567-2.1079,2.0069-1.7849,1.6737-7.2019,6.7533-12.8379,10.6465-3.1548,2.1773-4.7773,2.8814-6.4949,3.627-2.0791.9024-4.4353,1.9251-8.032,4.6431l-.021.016-.021.0161c-3.0554,2.3407-8.9146,7.4632-13.8274,15.4707-3.541,5.7783-4.7512,10.1298-5.6348,13.3072-.8545,3.0718-1.2444,4.4738-3.4004,6.8159-1.4995,1.6337-4.2185,4.0586-8.7019,6.3829-3.0732,1.5942-5.7449,2.3914-8.5732,3.2354-3.6675,1.0831-6.082,1.4729-8.0222,1.7862-3.1382.5067-6.3833,1.0307-9.9641,3.963-3.1584,2.5913-7.1228,7.5039-8.1057,16.2177-.6443,5.7514.8257,9.6316,2.2471,13.3839.6062,1.5995,1.2327,3.2534,1.7788,5.2774.0081.0315,1.5964,6.2493,1.1528,15.3201-.2676,5.5505-1.5833,7.7678-3.9719,11.7932-2.2341,3.7652-5.0146,8.451-7.1543,16.4335-2.3792,8.8669-1.9966,14.4824-1.6589,19.4368.3213,4.7154.5989,8.7876-1.8159,16.588-.981,3.1702-1.8586,5.1934-2.7075,7.1498-1.4563,3.3572-2.832,6.5282-3.3228,12.347-.5139,6.1364.356,10.564.9912,13.7969.6321,3.2166.9204,4.6847.1045,7.1237-.9023,2.7071-2.0901,3.8959-4.4565,6.2643-1.9167,1.9184-4.302,4.3057-6.8093,7.922-6.2078,8.9465-2.4539,18.3785.03,24.62,2.1187,5.3391,6.575,8.9256,10.2197,11.4528,1.1306.7854,1.5852,2.2068,1.0994,3.4527-1.948,5.0066-3.9636,9.7655-6.1648,14.5535-.7004,1.5193-1.3147,2.8121-1.8472,3.9334-2.3459,4.9383-3.7617,7.919-3.873,12.7601-.2842,12.815,8.5923,23.5551,16.2803,28.8604,3.7383,2.5762,6.4485,3.392,8.6262,4.0475,1.8503.5569,3.3115.9968,6.3286,3.0756,3.9292,2.7064,7.3035,6.0705,10.2808,9.0385,2.2205,2.2204,3.9749,3.9747,4.3901,4.7047,1.821,3.1982,1.5945,6.7885,1.1421,10.8118-.4177,3.7215-1.2529,6.0132-3.4849,12.1377l-.3521.9664c-2.2935,6.2782-3.9902,11.0809-5.1843,14.6738-2.4463,7.3705-2.8914,9.9434-2.2688,13.1124.6714,3.4739,2.2178,6.8394,4.5913,9.9788,4.8645,6.4685,12.9717,11.363,21.1458,12.7569,1.5271.2605,2.9666.3871,4.4009.3871,5.2529,0,9.062-1.7475,12.4226-3.2891,3.2322-1.4827,6.2849-2.8832,11.6885-3.4354.0137-.0014,1.6826-.1674,4.2139-.1673,9.4048,0,16.6033,2.1797,18.7864,5.6884.3604.5778.417.8268.647,2.2978.3479,2.2248.8738,5.5871,3.4363,10.1877,3.7629,6.7522,8.6497,10.3996,14.3079,14.623,8.5291,6.3621,15.8838,11.8481,26.7766,12.9511,1.1111.1116,2.1528.1655,3.1909.1655,1.1665,0,2.197-.0675,3.1936-.1328,1.177-.0771,2.3938-.1567,4.1746-.1567,1.4092,0,2.9595.0495,4.7395.1516,4.9312.2755,7.2092.4265,9.6597,1.1255,3.3726.9619,5.3167,2.4493,8.8462,5.1495.8774.6711,1.8076,1.3824,2.8237,2.1347l.0759.0561c9.7178,7.1768,16.1377,11.9181,24.832,14.0886,3.2156.8059,6.6099,1.2155,10.0815,1.2155,10.0764,0,17.8572-3.4482,18.7112-3.8413,5.1279-2.3608,8.2712-5.1292,10.7969-7.3535,2.6785-2.3593,4.0232-3.5435,7.2859-4.1627,1.2151-.2273,3.6055-.5498,6.3748-.8588,1.7781-.2057,3.3198-.3619,3.9631-.4255.8206-.0101,3.0396-.0349,5.1592-.0349,1.8792,0,2.8882.0195,3.4041.0359,2.8201.0913,10.1228.7251,16.9097,4.6274,1.8667,1.0742,2.5393,1.7053,3.3911,2.5042,1.7065,1.6005,3.4067,3.0379,6.9438,4.4216,1.2974.5136,6.0688,2.2283,11.7307,2.2283,4.9946,0,9.3516-1.3085,12.95-3.8892,2.0869-1.5025,2.749-2.4948,6.4226-8.0015l1.2607-1.8888c1.4629-2.1898,3.8926-5.8271,5.2837-7.7877,1.1565.1987,2.9543.6085,4.8267,1.0353,1.9158.4368,4.3005.9804,7.2178,1.5933,6.4585,1.3602,9.176,1.7255,10.9744,1.9674,1.3809.1857,1.709.2298,3.3098.7125,4.3076,1.301,6.6919,2.5969,8.9976,3.8501,3.1575,1.7163,6.4224,3.4908,12.2104,4.2525,1.3799.1841,3.7126.4953,6.3809.4953,6.678,0,11.8884-1.9567,15.4868-5.8158,3.7114-3.9856,3.9819-8.2354,4.2434-12.3451.1211-1.902.2583-4.0577.6755-6.9261.9504-6.586,1.4731-10.2085,3.3755-13.6977,4.3762-8.0305,14.0002-11.8749,14.4077-12.0346l.0391-.0153.0388-.0156c.7764-.3137,1.4841-.5551,2.3037-.8346,1.9299-.6583,4.1174-1.4044,7.2837-3.1151,5.738-3.0861,9.5366-6.5991,11.3621-8.2874,3.2957-3.0437,8.2769-7.6441,11.9648-15.1657.7869-1.6065,1.1233-2.5638,1.5496-3.776.3982-1.1326.9998-2.8444,2.4763-6.4683,1.45-3.5686,2.7-6.6448,3.1184-7.3865l.0181-.032.0178-.0322c1.1575-2.0972,4.428-7.1901,9.7793-9.1821q.5081-.1894,1.5754-.2642c1.532-.1075,3.8469-.2698,8.3079-.9967,9.0403-1.4764,14.0188-2.2894,17.9707-5.4544,9.5496-7.6604,8.6936-21.4551,8.425-24.1426-.6479-6.387-3.0508-9.9121-4.8052-12.4859-1.2214-1.792-1.959-2.8737-2.4133-5.2895-1.3718-7.2601,2.3167-14.4243,3.9661-17.1677,1.458-2.4181,2.561-3.4101,3.9575-4.6659,2.1199-1.9066,4.7583-4.2793,6.6797-9.5487,1.3721-3.7652,1.3484-6.0119,1.1946-20.6299l-.0459-4.2977c-.0823-7.6168-.0857-8.2382.0303-10.0714.5547-8.5668.8098-11.4156,2.4731-14.2496.7803-1.326,1.1536-1.5925,2.5427-2.5836,1.8713-1.3353,4.4346-3.1641,7.5872-7.2784,5.0291-6.5556,7.9707-13.6705,8.7407-21.1434.9407-9.2124-1.7361-16.2906-2.6157-18.6165-1.9536-5.178-5.3228-10.5555-16.0588-21.3317-6.2881-6.3135-9.8862-9.2082-12.2673-11.1237-2.1951-1.7659-2.5906-2.0841-3.7236-3.8785-1.6875-2.6693-1.8142-3.6537-2.1899-6.5758-.4421-3.4401-1.0481-8.1515-4.2617-16.2967-.8005-2.0261-1.6514-3.9998-2.6025-6.038-.8037-1.7066-1.5547-3.1953-2.2173-4.5088-2.5024-4.9614-3.2083-6.5204-2.8589-9.4093.1201-1.0005.2798-1.4675.6292-2.491.5654-1.655,1.3396-3.9215,1.8599-8.1793.5173-4.2798,1.2239-10.123-.6465-16.0161-.6462-2.0759-1.5962-4.0428-2.8237-5.846-1.9536-2.8759-4.0686-4.5087-6.9956-6.7686l-.0718-.0554c-3.446-2.644-5.7417-3.6843-7.418-4.4438-1.0154-.4602-1.4358-.6506-2.1287-1.1967-.8347-.6576-.8633-.7227-1.5974-2.3938-.9419-2.1436-2.365-5.3828-6.0518-9.9056-1.5615-1.9171-2.8062-3.1848-3.7151-4.1105-.2815-.2867-.6157-.627-.813-.8446.0249-.4628.1035-1.313.1799-2.1406.1106-1.2011.2625-2.846.4282-5.0499.6047-8.2133.5093-11.3127-1.2649-14.6624-2.8958-5.5134-7.9758-7.7375-9.8904-8.5757l-.0166-.0073-.0488-.0214c-3.5398-1.5308-6.491-1.7373-8.9109-1.7373-.5125,0-1.04.0096-1.5933.0202-.5032.0096-1.032.0202-1.5986.0202-.3652,0-.748-.0045-1.1521-.0174l-.0244-.001c-8.3064-.3002-11.751-2.2301-13.178-3.7963-.0459-.0506-.0776-.0878-.0979-.1122-.093-.2042-.2832-.722-.4387-1.1447-.3503-.9531-.8303-2.2585-1.5989-4.0241-4.5757-10.5519-10.9451-19.1793-17.9307-24.2829-5.0479-3.6891-10.2834-4.9832-19.7881-7.3325l-.1069-.0265c-7.866-1.9445-12.3171-2.3364-16.2444-2.6823-3.4182-.301-6.1184-.5388-10.9421-1.8864-8.5215-2.3822-14.863-4.4852-18.8584-9.8742-.9028-1.2149-1.019-1.6068-1.3645-2.7698-.6663-2.2444-1.4556-4.5433-3.7659-7.9737-1.1631-1.7091-11.708-16.4669-30.3738-18.4434-1.0488-.1127-2.8262-.3039-4.9402-.3039-5.1472,0-9.8462,1.1338-13.9666,3.3698-2.6501,1.4348-4.1516,2.8515-5.248,3.8859-.6472.6107-1.0378.9793-1.7363,1.4377-1.9377,1.2729-5.6226,1.5168-13.1099,1.9069-2.0042.1027-3.8577.1528-5.6599.1528-5.5791,0-10.3289-.4971-16.9026-1.1853-1.9678-.2086-3.9043-.4656-6.3389-1.3483-1.7737-.647-3.2109-1.4395-4.9502-2.5066-3.1348-1.9263-4.7913-3.2443-6.7095-4.7703-1.2825-1.0203-2.7358-2.1768-4.6418-3.5083C233.1465,3.3342,228.5347.1082,221.4138.0009l-.0603-.0009h0Z"/>
      </g>
      <path class="cls-2" d="M476.5532,276.1847c-1.62,3.96-8.39,19.23-24.54,28.97-9.76,5.8899-18.4901,7.08-35.41,9.37-3.66.5-4.16.45-32.01,1.85-24.03,1.21-26.36,1.38-31.71.62-14.9901-2.14-25.39-7.58-28.52-9.2999-7.62-4.1901-12.26-8.4001-19.32-14.8801-9.64-8.8499-19.34-17.1399-25.2-29.08-5.73-11.67-7.9-24.74-13.6-36.45-.81-1.67-1.65-3.25-2.5-4.75-3.21-5.7101-6.51-10.13-9.05-13.2001-1.42-1.2999-3.6-3.04-6.54-4.5499-8.56-4.39-16.72-3.3199-19.01-2.9801-6.8799,1-11.56,3.9801-14.78,6.05-.92.5901-1.79,1.2-2.6,1.8201-4.96,3.73-7.9,7.6399-9.6801,10.0499-4.41,5.9601-9.71,13.13-9.4,22.4901.22,6.5898,3.12,11.22,7.55,18.2699,5.01,7.99,7.58,8.92,14.73,17.6801,5.15,6.29,11.87,14.52,16.63,25.96,4.64,11.16,2.18,12.8,7.14,23.13,3.26,6.7899,4.66,6.7899,13.27,19.41,17.03,24.95,17.26,43.8,11.75,73.8099-1.92,10.4401-2.87,15.66-5.47,21.36-5.26,11.5601-13.34,18.4-18.61,22.8501-6.33,5.3599-12.15,10.28-21.43,13.0399-13.62,4.05-25.59.75-31.85-.98-3.27-.9-8-3.2001-17.5-7.4-21.15-9.35-30.9-15.1899-34.83-17.61-12.02-7.4301-15.71-11.4-17.17-13.0599-3.59-4.0801-4.58-6.51-10.04-14.4401-5.94-8.63-8.18-10.72-12.21-16.2799-6.53-9.03-15.41-21.3101-17.42-35.55-1.6-11.42,3-11.4,4.81-29.3401.36-3.5699.52-7.0699.54-10.45.15-20.1799-4.9-36.3101-5.88-39.37-4.58-14.23-8.92-18.0499-8.9-29.8199.01-5.0601,1.78-11.1001,5.33-22.96,6.08-20.29,9.27-30.5901,16.93-38.3901,5.18-5.28,6.11-3.6499,12.05-9.85,8.52-8.9,9.01-14.7799,15.35-23.38,4.6899-6.3799,5.36-4.4099,21.04-17.83,12.13-10.39,13.75-13.2999,29.16-26.54,7.88-6.7799,11.88-10.1899,15.11-11.71,8.16-3.83,15.9-4.09,31.3799-4.61,9.91-.3301,14.86-.5,18.94.4399,12.63,2.92,14.56,9.27,24.95,10,5.89.41,10.23-1.3199,18.9-4.79,14.13-5.6399,13.73-9.5599,23.1-12.3699,14.45-4.3201,28.08,1.2,32.41,2.95,4.72,1.9099,8.63,4.26,11.79,6.52,2.93,2.08,5.22,4.1,6.91,5.6,8.9901,7.99,8.7,11.6801,16.33,17.5399,4.44,3.4202,7.85,4.7001,21.69,9.4601,29.57,10.17,27.39,8.9,32.27,11,12.07,5.1801,23.79,10.39,32.4,22.24,1.27,1.74,2.23,3.2999,8.22,16.61,9.55,21.24,14.32,31.8601,15.45,36.1101,2.3,8.6499,7.16,26.96-.95,46.72Z"/>
      <path class="cls-5" d="M62.9884,413.9273c-5.6848.3019-5.9321-7.6266-17.6087-14.8695-6.9225-4.2939-10.0839-3.5222-16.8261-9-4.0453-3.2866-7.0178-5.7017-8.6087-9.7826-1.3657-3.5032-1.2858-7.1378,4.3044-25.0436,4.2663-13.6652,5.8056-16.6277,3.9131-20.3478-2.1963-4.3174-6.2296-4.1803-8.6087-9.7826-1.9696-4.6381-1.0807-9.1481-.7826-10.5652,1.6619-7.8981,7.0013-7.8477,10.1739-16.0436,1.3115-3.3881,1.3961-7.8674,1.5652-16.826.1763-9.3381-.7392-9.3534,0-13.6957,1.3772-8.0896,4.6227-8.4347,6.6522-16.4347,1.6172-6.3746-.209-7.0801.3913-19.174.2846-5.7344.571-11.5033,2.3478-18,3.5092-12.8311,8.369-12.1813,9.7826-21.1305,1.0381-6.5721-1.537-7.2125-4.6956-26.6086-2.0276-12.4512-1.3466-14.5219-.3913-16.0435,3.3293-5.3026,9.576-3.2751,22.6956-7.8262,9.29-3.2225,17.439-6.0493,22.3044-13.3043,5.6115-8.3676,1.3484-14.4146,8.2174-22.6957,1.9593-2.3621,5.2192-4.4442,11.7391-8.6086,10.2299-6.5341,14.5215-7.2373,18.3913-12.9131,3.2086-4.7061,1.2155-5.6266,3.9131-9,3.9329-4.9182,9.1536-4.1921,30.5217-8.6086,6.4127-1.3254,11.2581-2.4895,14.8696-6.6522,2.5057-2.8882,1.7584-4.1551,3.913-7.0435,5.7049-7.648,14.1976-3.1279,21.1304-9.5217,5.8917-5.4337,2.0513-10.8129,9.913-20.3478,2.554-3.0976,5.4755-6.6409,9.9131-7.3043,5.639-.8431,9.137,3.6502,16.1739,8.3478,12.6823,8.4664,25.6409,10.1072,32.3478,10.9565.0001,0,11.3387,1.5635,24.5217-1.0435,2.7106-.536,5.1532-1.23,7.6956-2.8043,4.2272-2.6175,4.5554-5.0833,7.4348-7.2391,6.3314-4.7407,16.1948-1.3918,17.413-.9783,9.0261,3.0645,13.4083,10.872,15.6522,14.8696,3.2285,5.7518,1.7241,6.4995,4.1087,10.3696,6.011,9.7555,19.8691,11.982,33.7827,14.2173,11.1969,1.799,12.9493.6282,23.2173,3.1304,10.7159,2.6114,17.3671,4.3312,20.3478,9.913,2.4284,4.5475.4028,7.88,4.174,16.174,1.7747,3.9031,3.7202,6.4573,4.1739,7.0435,2.0641,2.6664,6.1588,7.9556,12.7826,9.9131,5.4406,1.6078,6.8475-.7283,12.2609,1.3043,1.1826.4441,5.8031,2.2448,8.6087,6.5217,3.0702,4.6803,1.9777,9.2933,2.087,14.3479.2299,10.6285,6.3857,11.0648,8.3478,22.6956.9446,5.5991,1.7621,10.4453-1.0435,14.087-4.366,5.667-15.355,5.6254-22.4348,1.5652-6.4035-3.6724-5.6539-8.364-10.9565-14.6086-7.8412-9.2343-16.2902-6.9945-39.1304-14.6088-11.1444-3.7152-20.8633-6.9552-31.3043-14.0869-15.5844-10.6449-13.2695-16.6353-27.1304-25.5652-4.8033-3.0945-22.3786-14.4174-41.2174-10.4348-14.6615,3.0995-15.866,12.4625-32.8696,15.1304-2.4327.3817-3.6005.3771-24.5217-1.0435-28.4977-1.9351-27.5377-2.0084-31.3044-2.0869-18.1059-.3771-28.0814-.5848-40.1739,4.1738-10.7656,4.2365-18.3552,10.4991-21.3913,13.0436-9.0701,7.6011-8.0293,10.0679-17.7391,18.7826-9.9199,8.9033-12.429,7.6056-22.9565,17.2174-4.9016,4.4752-8.051,8.1285-14.0869,15.1304-8.8225,10.2344-13.2605,15.3285-16.1739,20.3479-8.1672,14.071-3.4646,18.1832-11.6087,34.5652-6.7018,13.481-10.4759,11.882-13.3044,21.5217-2.8558,9.7329-.7688,18.621,3.5217,36,1.2003,4.8619,2.9239,11.1272,5.4085,18.4012,2.0912,6.1222,2.3487,12.7368.6597,18.982-3.5722,13.2089-3.7347,23.8595-3.3291,30.7038.5193,8.7634,1.0026,16.9211,4.6956,27,3.331,9.0909,6.6978,12.7159,5.8696,19.5653-.8732,7.2211-6.0857,15.3519-11.7391,15.6521Z"/>
      <path class="cls-1" d="M553.5032,286.8146c-.91,8.8301-5.45,14.9001-7.13,17.0901-4.95,6.46-7.45,5.1899-10.68,10.6799-2.7,4.6001-2.99,9-3.56,17.8-.16,2.53-.12,3.38,0,14.96.15,14.24.11,15.55-.71,17.8-2.33,6.39-5.55,5.49-9.97,12.8201-1.04,1.73-7.07,11.73-4.98,22.7899,1.59,8.4501,6.27,8.7101,7.12,17.09.11,1.1001,1.06,11.8601-5.46,17.0901-2.31,1.85-6.29,2.5-14.25,3.7999-8.53,1.39-8.33.52-11.39,1.66-8.65,3.22-13.15,11.28-14,12.8201-.66,1.1699-1.63,3.5499-3.56,8.2999-2.97,7.2899-2.59,7.27-3.8,9.74-3.03,6.1801-7.2,10.03-10.21,12.8099-1.86,1.7201-4.97,4.5601-9.73,7.1201-3.85,2.08-5.81,2.3699-8.78,3.5699-1.48.58-12.88,5.3099-18.52,15.66-2.59,4.75-3.2599,9.3799-4.27,16.3799-1.32,9.0701-.14,12.05-2.85,14.9601-4,4.2899-11.66,3.28-14.96,2.84-8.13-1.0699-9.08-4.55-19.94-7.83-4.61-1.39-3.08-.35-14.95-2.85-12.33-2.5901-14.68-3.8601-17.8-2.13-.92.5-1.34.95-7.84,10.6801-4.49,6.72-4.69,7.1099-5.69,7.8298-6.54,4.6901-16.13,1.0901-17.09.7101-4.55-1.78-3.63-3.17-9.26-6.41-8.47-4.87-17.25-5.58-20.65-5.6899-2.83-.0901-9.26,0-9.26,0,0,0-1.99.1899-4.41.47-2.42.27-5.27.63-6.98.95-9.59,1.8201-10.6,7.8101-19.94,12.1101-.63.2899-11.53,5.1299-23.5,2.1299-7.17-1.7899-12.71-5.8899-22.08-12.8099-5.47-4.0499-8.35-6.87-14.24-8.5499-3.33-.9501-6.21-1.1301-11.4-1.42-9.42-.54-10.37.46-14.95,0-8.69-.88-14.8-5.4401-22.79-11.4-5.56-4.15-9.23-6.95-12.1-12.1-3.52-6.3199-1.63-8.5699-4.28-12.8199-7.1-11.4102-29.54-9.3701-30.62-9.26-14.19,1.45-16.44,8.0999-26.35,6.4099-8.53-1.46-17.65-8.24-19.22-16.38-.22-1.12-.27-2.17,2.01-9.0399,3.87,3.22,8.36,5.48,13.72,5.8199,4.08.25,8.72-.61,18-2.35,13.5699-2.53,17.31-4.89,24.2599-6.26,14.68-2.9,31.33,1.01,43.05,8.61,15.44,10.02,14.1299,21.15,28.17,25.83,5.78,1.92,7.7.6001,26.61-1.5699,35.58-4.08,41.7-.88,50.87-7.83,8.21-6.2101,4.37-9.5701,15.65-24.26,5.45-7.0901,17.14-22.3,36-28.9501,16-5.65,19.57,1.0699,33.65-5.48,18.23-8.48,25.71-25.98,26.61-28.1801,5.34-13,.17-16.2,3.92-28.95,7.7-26.24,37.56-39.8201,44.08-42.78,19.5099-8.8799,24.04-3,41.74-13.5699,15.9-9.49,24.66-21.63,28.18-26.61,7.05-9.98,12.91-18.29,13.04-29.74.08-7.55-2.42-8.3501-5.22-24.52-1.5-8.67-2.69-15.5901-2.09-23.48.75-9.66,3.79-15.51,9.4-27.65,3.78-8.1901,6.6-14.62,8.75-19.7101,1.33,4.16.82,8.6801.34,12.6501-.7599,6.22-2,6.5999-2.49,10.6799-.99,8.1899,3.4,11.7,8.18,23.86,5.78,14.65,1.94,16,7.13,24.2101,3.58,5.6699,4.75,3.99,17.09,16.3799,10.8,10.8401,13.01,15.25,14.24,18.51.87,2.3,2.87,7.8101,2.14,14.96Z"/>
      <path class="cls-1" d="M268.8145,297.7099c-2.986-1.7697-6.7687-1.3086-9.3913,0-5.2858,2.6376-7.5046,9.5398-5.4783,14.8696,1.5032,3.954,5.5865,7.6842,10.174,7.4347,3.1871-.1733,5.332-2.1976,5.8696-2.739,4.8439-4.8789,4.8829-15.9758-1.174-19.5653Z"/>
      <path class="cls-1" d="M347.3362,331.8838c-4.8496-2.892-10.8339-.7028-14.0869,2.0869-5.7358,4.9186-7.1844,15.3082-2.087,19.8262,3.6063,3.1963,9.2606,2.3649,12.5217,1.0435,4.5464-1.8422,8.6147-6.3275,8.8696-12,.0251-.5599.2321-7.7068-5.2174-10.9565Z"/>
      <path class="cls-1" d="M298.9449,366.5795c2.5913-5.0172.2175-12.5092-5.4783-14.4783-4.9654-1.7166-10.3748,1.4835-12.5217,5.8695-1.7167,3.5071-1.6604,8.4111,1.174,11.3479,4.2704,4.4247,13.7399,3.2362,16.826-2.7391Z"/>
      <path class="cls-1" d="M336.9015,420.7752c2.7527-3.9303,2.087-9.9738-1.3696-13.5-4.249-4.3347-10.6515-2.7598-12.3261-2.3479-4.2558,1.0469-10.808,4.5927-10.7609,9.7826.0493,5.4316,7.2909,8.7124,8.413,9.1957,3.4415,1.4822,6.4453,1.2527,7.2391,1.174,1.5882-.1575,6.2218-.6169,8.8044-4.3043Z"/>
      <path class="cls-1" d="M287.5971,437.0142c3.8132-4.048,4.067-11.1813.587-14.2826-4.2984-3.8306-14.0147-1.2614-16.2391,5.087-1.4282,4.0759.1736,9.8761,4.6957,11.9347,4.0493,1.8434,8.5428-.1769,10.9565-2.7391Z"/>
      <path class="cls-1" d="M492.4449,181.2969c-2.4344-3.2455-7.1496-3.1449-7.826-3.1305-3.663.0781-8.5675,2.0486-10.174,6.8478-1.6116,4.8146.9304,9.9834,4.8913,12.1305.4958.2688,3.613,1.8978,7.0435.7826,6.1827-2.01,9.7286-11.7465,6.0652-16.6304Z"/>
      <path class="cls-6" d="M398.9885,75.449c-2.5035-3.7046-8.1191-4.2329-12-2.6086-.6711.2809-5.367,2.3369-6,7.0435-.551,4.0967,2.3297,7.573,5.2173,9.1304.6554.3535,3.8795,1.9933,7.3044.7827,5.2441-1.8535,8.6945-9.5889,5.4783-14.3479Z"/>
      <path class="cls-6" d="M428.6623,124.3621c-.4689-1.084-1.9036-4.4004-5.2826-5.2826-3.5254-.9204-6.9205,1.3953-8.6087,3.7174-.2628.3615-3.152,4.4756-1.174,8.6086,2.0425,4.2677,7.3206,4.4728,8.0218,4.5,1.0743.0417,4.3364.1685,6.4565-2.1522,3.0923-3.3849.8461-8.7922.587-9.3912Z"/>
      <path class="cls-6" d="M317.5597,61.6616c-3.1588-1.4234-7.8774-.8355-9.9131,2.3478-2.157,3.373.0576,7.5347.5218,8.3478.5153.9026,2.6622,4.3149,6.7826,4.6957.3113.0287,4.3718.345,6.5217-2.3478,2.8811-3.6086.9275-10.8623-3.913-13.0435Z"/>
      <path class="cls-6" d="M277.2972,88.6642c4.3688-1.5038,9.4015-5.9512,8.9102-11.2861-.5568-6.0451-7.7968-8.7857-8.9102-9.2073-4.1319-1.5642-11.5929-2.3513-15.7412,2.6731-2.2472,2.7218-3.1315,6.6755-2.0791,10.0981,2.0522,6.6741,11.0737,10.0442,17.8203,7.7221Z"/>
      <path class="cls-6" d="M238.2928,34.949c-.8987-2.5661-3.7122-4.6653-6.4565-4.1086-2.8499.5781-3.9636,3.6832-4.1087,4.1086-1.1678,3.4226.3818,8.2527,3.5218,9,2.371.5643,4.7523-1.4125,5.8696-2.9348.4754-.6477,2.1783-3.1973,1.1739-6.0652Z"/>
      <path class="cls-6" d="M205.0319,69.4999c-.9509-.372-5.1804-1.845-8.6087.8804-2.0746,1.6493-3.2615,4.3636-2.9348,7.0435.4985,4.0878,4.3254,6.5104,7.4348,7.0434.7168.1229,3.3634.5349,5.8696-1.076,2.6707-1.7167,4.4366-5.2515,3.5218-8.6087-.981-3.5999-4.4934-4.9739-5.2827-5.2826Z"/>
      <path class="cls-6" d="M236.3362,94.4273c1.5432-2.83-.4308-7.524-4.1087-9.1957-3.7278-1.6943-7.9498.2874-9.7826,3.1305-.2266.3516-2.1094,3.3655-.7826,5.8695,1.2675,2.3923,4.56,2.6123,6.4565,2.7391,1.7266.1154,6.5901.4406,8.2173-2.5435Z"/>
      <path class="cls-6" d="M151.6189,89.9273c-.5648-2.7778-2.5687-5.9917-5.8696-6.8478-4.5182-1.1718-9.543,2.5732-10.5652,7.2391-.6664,3.0416.2309,7.1008,3.5218,9.1956,3.4522,2.1974,7.9425,1.217,10.5652-1.3695,3.2805-3.2354,2.4337-7.795,2.3478-8.2174Z"/>
      <path class="cls-6" d="M137.3363,125.536c-.0479-4.1863-3.0931-7.3781-6.2609-8.6088-4.5436-1.7653-10.559.0303-12.2609,4.174-1.5546,3.785,1.222,7.7467,1.8261,8.6086.5089.7262,4.097,5.8457,9.3913,4.9565,4.1773-.7015,7.3539-4.7974,7.3044-9.1304Z"/>
      <path class="cls-6" d="M108.771,105.5795c-1.3466-.7565-3.3473-.4468-4.3044,1.0435-.9166,1.4274-.4693,3.3046.7826,4.3043,1.2995,1.0377,3.228.9398,4.3044-.1304,1.4267-1.4185,1.0163-4.2069-.7826-5.2174Z"/>
      <path class="cls-6" d="M91.0319,143.9273c-.5011-.8484-2.2652-3.8354-5.2174-3.7826-3.0321.0543-4.7019,3.2682-4.9565,3.7826-.8101,1.6366-1.4464,4.536.1304,6.5217,1.2055,1.5182,3.0921,1.7312,5.0869,1.9565,2.0294.2292,4.0795.4608,5.3478-.7826,1.8407-1.8044.8651-5.5684-.3913-7.6957Z"/>
      <path class="cls-6" d="M63.771,162.5142c-.9099-2.4504-3.5787-4.1091-6.2609-3.7173-3.6958.5399-4.8143,4.5929-4.8913,4.8912-.5571,2.1588-.2399,5.4739,2.1522,6.8479,2.5319,1.4543,5.497-.3523,5.8695-.587,2.049-1.2915,4.295-4.2986,3.1305-7.4348Z"/>
      <path class="cls-6" d="M70.8856,202.8185c-.643-2.5789-3.084-4.299-5.4783-4.6956-2.3009-.3812-4.5693.4581-6.0652,1.9564-2.2287,2.2323-3.135,6.3206-.9782,9,1.8727,2.3264,5.1853,2.5106,7.4348,1.7609,3.1739-1.0579,5.953-4.5486,5.087-8.0217Z"/>
      <path class="cls-6" d="M52.3898,310.6229c-2.5639-2.2181-6.3992-2.7622-9.3913-1.174-4.1784,2.218-5.4663,7.9333-3.3261,11.9348,1.6188,3.0266,5.2988,5.2596,9,4.5,3.7318-.766,5.4139-4.1495,5.6739-4.6957,1.5212-3.1956,1.2582-7.7841-1.9565-10.5652Z"/>
      <path class="cls-6" d="M54.771,277.3621c-.1176-2.5228-2.6944-5.0305-5.6739-4.6957-2.3684.2661-4.3176,2.2527-4.5,4.6957-.1702,2.2784,1.2375,4.4023,3.1304,5.0869,3.1204,1.1285,7.1974-1.7854,7.0435-5.0869Z"/>
      <path class="cls-6" d="M62.7276,379.8838c1.1079-2.5488-.3457-5.7871-2.6087-7.3043-3.1333-2.1007-8.2324-1.1794-9.6522,2.0869-1.1079,2.5488.3457,5.7871,2.6087,7.3043,3.1333,2.1007,8.2325,1.1794,9.6522-2.0869Z"/>
      <path class="cls-6" d="M36.3797,361.4924c-.9206-2.0956-4.3279-3.0719-6.6522-1.6956-1.4002.8291-2.5805,2.6146-2.2174,4.5652.4065,2.184,2.5597,3.5649,4.4348,3.5217,3.0507-.0704,5.5228-3.9144,4.4348-6.3914Z"/>
      <path class="cls-6" d="M51.725,226.2969c-1.769-.8693-4.283.3623-4.8913,2.1521-.7997,2.353,1.7935,5.3783,3.9131,5.087,1.5746-.2163,2.817-2.2533,2.7391-4.1088-.0073-.1733-.1304-2.3292-1.7609-3.1304Z"/>
      <path class="cls-1" d="M246.9015,218.9273c-4.3047-4.7332-12.6358-3.1425-16.9565-1.3043-1.9963.8492-7.182,3.0553-8.8696,8.3478-2.4185,7.5847,4.6365,14.3307,5.2174,14.8696,3.6827,3.4167,10.6501,6.7863,15.913,3.913,4.0198-2.1947,5.0634-6.9493,6-11.2173.9749-4.4423,2.3293-10.6134-1.3043-14.6088Z"/>
      <path class="cls-1" d="M95.858,441.1881c-2.2429-5.8116-9.672-9.1541-15.9131-7.3043-4.5033,1.3347-9.5395,5.7139-9.1304,11.2174.5167,6.9515,9.2637,9.5432,9.6522,9.6521,4.8787,1.368,11.9597.4082,14.8696-4.6956,2.3054-4.0435.697-8.4155.5217-8.8696Z"/>
      <path class="cls-7" d="M553.5032,286.8146c-.91,8.8301-5.45,14.9001-7.13,17.0901-4.95,6.46-7.45,5.1899-10.68,10.6799-2.7,4.6001-2.99,9-3.56,17.8-.16,2.53-.12,3.38,0,14.96.15,14.24.11,15.55-.71,17.8-2.33,6.39-5.55,5.49-9.97,12.8201-1.04,1.73-7.07,11.73-4.98,22.7899,1.59,8.4501,6.27,8.7101,7.12,17.09.11,1.1001,1.06,11.8601-5.46,17.0901-2.31,1.85-6.29,2.5-14.25,3.7999-8.53,1.39-8.33.52-11.39,1.66-8.65,3.22-13.15,11.28-14,12.8201-.66,1.1699-1.63,3.5499-3.56,8.2999-2.97,7.2899-2.59,7.27-3.8,9.74-3.03,6.1801-7.2,10.03-10.21,12.8099-1.86,1.7201-4.97,4.5601-9.73,7.1201-3.85,2.08-5.81,2.3699-8.78,3.5699-1.48.58-12.88,5.3099-18.52,15.66-2.59,4.75-3.2599,9.3799-4.27,16.3799-1.32,9.0701-.14,12.05-2.85,14.9601-4,4.2899-11.66,3.28-14.96,2.84-8.13-1.0699-9.08-4.55-19.94-7.83-4.61-1.39-3.08-.35-14.95-2.85-12.33-2.5901-14.68-3.8601-17.8-2.13-.92.5-1.34.95-7.84,10.6801-4.49,6.72-4.69,7.1099-5.69,7.8298-6.54,4.6901-16.13,1.0901-17.09.7101-4.55-1.78-3.63-3.17-9.26-6.41-8.47-4.87-17.25-5.58-20.65-5.6899-2.83-.0901-9.26,0-9.26,0,0,0-1.99.1899-4.41.47-2.42.27-5.27.63-6.98.95-9.59,1.8201-10.6,7.8101-19.94,12.1101-.63.2899-11.53,5.1299-23.5,2.1299-7.17-1.7899-12.71-5.8899-22.08-12.8099-5.47-4.0499-8.35-6.87-14.24-8.5499-3.33-.9501-6.21-1.1301-11.4-1.42-9.42-.54-10.37.46-14.95,0-8.69-.88-14.8-5.4401-22.79-11.4-5.56-4.15-9.23-6.95-12.1-12.1-3.52-6.3199-1.63-8.5699-4.28-12.8199-7.1-11.4102-29.54-9.3701-30.62-9.26-14.19,1.45-16.44,8.0999-26.35,6.4099-6.04-1.03-12.37-4.73-16.1-9.6899,2.8.74,5.87,1.3799,9.22,1.83,3.61.49,8.6,1.13,15.13.52,14.74-1.37,16.59-7.17,28.18-8.35,9.83-.99,22.54,1.76,30.26,9.9199,5.52,5.8301,3.14,8.79,9.39,16.17,2.2,2.61,10.28,11.42,22.4301,13.5599,12.43,2.2001,15.72-4.95,29.74-2.6,8.17,1.36,7.84,3.92,17.22,5.7401,11.05,2.1299,20.14.2599,25.56-.9202,13.87-3,14.5-6.8999,30.53-12.9099,16.42-6.16,29.32-10.99,41.08-5.87,10.58,4.6,12.47,13.88,20.7401,13.2999,4.27-.2899,7.93-3.72,15.2599-10.5599,9.88-9.22,12.55-15.1901,18-14.87,2.6801.1599,2.65,1.63,7.83,3.9099,6.73,2.9601,12.76,3.0901,16.04,3.1301,7.08.09,14.68.1799,18.79-4.6901,2.55-3.0399,1.05-4.7699,3.52-10.96,2.34-5.87,5.78-9.51,10.56-14.4801,8.9-9.24,10.7599-7.1599,14.87-12.9099,5.61-7.85,1.9-11.37,7.44-21.13,1.94-3.4301,6.69-11.8099,15.65-15.26,8.87-3.42,13.95,1.04,20.74-3.92.88-.6399,5.81-4.3699,6.65-10.1699.58-4.01-1.29-5.62-2.22-12.91-.1801-1.42-.8701-5.76-.26-9.65,1.23-7.8199,5.68-13.1299,9.39-17.22,7.2401-7.99,14.72-9.64,17.22-17.74,1.12-3.62-.24-5.6,0-10.4399.52-10.26,1.41-27.9301,11.22-44.0801,4.54-7.48,9.12-11.5601,8.08-18-.45-2.85-1.87-4.95-4.69-9.13-4.85-7.2-7.93-8.0699-11.48-14.09-2.47-4.2-3.4-7.87-3.91-9.91-1.83-7.26-1.08-13.51,1.3-24.5199.5-2.3201.97-4.5,1.42-6.55.77,1.6499,1.58,3.49,2.41,5.59,5.78,14.65,1.94,16,7.13,24.2101,3.58,5.6699,4.75,3.99,17.09,16.3799,10.8,10.8401,13.01,15.25,14.24,18.51.87,2.3,2.87,7.8101,2.14,14.96Z"/>
      <path class="cls-7" d="M425.5971,336.8403c-4.8402-.6761-11.1356.9673-14.3478,6.2609-3.2882,5.4189-2.3539,13.0292,2.0869,16.6957,3.2329,2.6692,7.3392,2.4351,8.8696,2.3478,5.5948-.319,9.171-3.714,10.174-4.6957,1.4362-1.4058,5.9171-5.7916,4.9565-11.2174-.9879-5.5796-7.1079-8.7443-11.7391-9.3912Z"/>
      <path class="cls-7" d="M483.2493,342.5142c-.0848-.7433-.9115-7.9866-5.8696-9.5869-4.4728-1.4436-9.5741,2.5874-11.5435,6.8479-1.5029,3.2513-2.0916,8.6039,1.174,11.739,4.2441,4.0747,12.4847,1.9907,15.2609-2.5435,1.4457-2.3612,1.1489-4.9612.9783-6.4565Z"/>
      <path class="cls-7" d="M502.6841,308.9273c.8403-2.2402-.4477-4.6198-1.8261-5.8695-2.0527-1.8611-5.7619-2.5365-8.0869-.3914-1.7175,1.5846-2.3031,4.3608-1.174,6.5217,1.3073,2.5017,4.2007,2.8159,4.6957,2.8696,2.1323.2314,5.406-.5037,6.3913-3.1305Z"/>
      <path class="cls-7" d="M439.0319,406.8838c-.2963-5.9028-5.6425-9.9696-10.5652-10.9565-4.546-.9114-10.1452.5203-13.3043,5.0869-2.9794,4.3068-3.23,10.5946.3913,14.8696,4.0681,4.8025,10.7756,4.4124,14.8696,2.7391,3.9374-1.6093,8.9061-5.8147,8.6087-11.7391Z"/>
      <path class="cls-7" d="M390.1189,387.3186c-2.5782-1.598-6.2197-.5592-7.4348,2.1521-1.107,2.4701.1877,5.4628,2.5435,6.6522,2.0524,1.0364,4.7756.636,6.2609-1.174,1.8422-2.2449,1.2471-6.0085-1.3696-7.6304Z"/>
      <path class="cls-7" d="M395.3362,470.1447c2.2443-2.1333,3.4769-5.6259,2.6087-8.8695-1.3076-4.8854-6.8215-7.1179-10.9565-6.7827-.8803.0714-3.2444.2963-5.2174,2.087-3.2313,2.9329-4.0809,8.8564-1.0435,12.7826,3.5378,4.5731,10.7862,4.416,14.6087.7826Z"/>
      <path class="cls-7" d="M319.8797,444.8403c-2.2681-2.8912-7.0467-3.0187-10.174-.9783-3.1077,2.0276-4.8789,6.3881-3.1304,9.9783,1.3016,2.6727,4.3488,4.4976,7.4348,4.1086,3.7078-.4673,5.4502-3.8754,5.8696-4.6957.267-.5222,2.552-5.1599,0-8.413Z"/>
      <path class="cls-7" d="M352.5536,482.699c-.4338-1.8334-2.3753-3.007-4.2065-3.0326-1.8241-.0255-3.6828,1.0858-4.3043,2.9348-.4802,1.4285-.2165,3.2808,1.0761,4.4021,1.4154,1.2278,3.2444.8676,3.6196.7827,2.1282-.4816,4.3756-2.7185,3.8152-5.087Z"/>
      <path class="cls-7" d="M280.1623,493.949c1.9492-2.9108.3569-7.4482-2.5435-8.8043-2.2173-1.0367-4.5824.0742-5.674.5869-.5513.259-4.9499,2.3251-4.6956,5.4783.2413,2.9916,4.4612,4.366,4.8913,4.5.2653.0826,5.7086,1.6935,8.0217-1.7609Z"/>
      <path class="cls-7" d="M231.8362,507.449c-.1199-2.4435-2.4907-4.38-4.8913-4.6957-2.4465-.3217-5.3624.9823-6.0652,3.5219-.7902,2.8555,1.5782,5.9694,4.5,6.4564,3.2454.541,6.6051-2.2537,6.4565-5.2826Z"/>
      <path class="cls-7" d="M159.4449,491.4055c-.5128-2.8374-4.7839-4.8068-8.0217-3.5217-3.0286,1.202-4.9243,5.1606-3.5217,7.6304,1.1548,2.0334,4.1432,2.3488,6.0652,1.9565,2.9313-.5981,5.9655-3.3691,5.4782-6.0652Z"/>
      <path class="cls-7" d="M377.9885,419.9924c-2.0122-.1622-4.002,2.1627-3.5218,4.3044.4271,1.9049,2.7141,3.2452,4.5,2.5435,1.3686-.5378,2.0266-2.1113,1.9565-3.424-.0881-1.6503-1.3487-3.296-2.9348-3.424Z"/>
      <path class="cls-8" d="M394.0319,506.4707c-1.9836-.4232-4.739.2136-5.674,2.1522-1.1478,2.38.9705,5.6392,3.5218,6.8478,2.4587,1.1647,5.9733.7346,7.0435-1.1738,1.3521-2.4111-1.2696-7.0535-4.8913-7.8262Z"/>
      <path class="cls-8" d="M441.3797,467.4381c-2.302-1.5813-5.9351-1.1598-7.5327,1.174-1.9695,2.877.6168,6.5233.7827,6.75.2614.3569,2.603,3.4608,5.4782,2.7391,2.4297-.6099,3.374-3.4832,3.5218-5.1848.0356-.41.2709-3.7466-2.25-5.4783Z"/>
      <path class="cls-8" d="M466.2275,428.7969c-2.1542-1.8243-5.3519-2.3544-8.0217-1.174-3.604,1.5935-5.6948,6.0602-4.3043,9.3912,1.4349,3.4376,5.877,3.9884,6.8478,4.1088,1.1164.1384,4.7394.5876,6.8478-1.7609,2.4208-2.6967,1.7812-7.897-1.3696-10.5652Z"/>
      <path class="cls-8" d="M349.8145,508.1012c-2.1784-.8938-5.559.5673-6.6522,3.3912-.8555,2.2101-.2658,5.1404,1.9565,6.5217,1.8987,1.1803,4.4091.8693,5.8696-.3912,2.77-2.3907,1.8568-8.2782-1.174-9.5217Z"/>
      <path class="cls-8" d="M296.9885,512.9273c-2.9782-2.6735-7.8442-3.0295-10.6957-.5217-3.654,3.2136-2.9301,10.1892,1.3043,13.0435,3.0872,2.0809,8.0184,1.9563,10.6957-1.3043,2.7952-3.4043,1.7186-8.5039-1.3043-11.2174Z"/>
      <path class="cls-8" d="M188.858,518.7969c-2.4492-1.8605-6.5859-.7261-7.826,2.2173-1.1866,2.8162.6558,6.3931,3.5217,7.0436,2.0963.4758,4.2839-.7175,5.3478-2.4783,1.3161-2.1781.9425-5.2739-1.0435-6.7826Z"/>
      <path class="cls-8" d="M505.6841,360.3186c-3.5483-.0468-6.4163,3.7095-6.5217,7.3043-.0968,3.3015,2.1143,7.2283,5.7391,7.5652,3.6568.3398,6.6353-3.1703,7.0435-6.5217.4762-3.9102-2.4619-8.2977-6.2609-8.3478Z"/>
      <path class="cls-8" d="M534.6406,289.1012c-3.2044-1.5886-7.5848-.519-9.6522,2.8695-1.9244,3.1543-1.2294,7.3098,1.5652,9.6522,3.1679,2.6554,7.951,2.0735,10.4348-.7826,3.0807-3.5425,1.8284-9.6687-2.3478-11.7391Z"/>
      <path class="cls-9" d="M263.7532,420.4746c-1.92,10.4401-2.87,15.66-5.47,21.36-5.26,11.5601-13.34,18.4-18.61,22.8501-6.33,5.3599-12.15,10.28-21.43,13.0399-13.62,4.05-25.59.75-31.85-.98-3.27-.9-8-3.2001-17.5-7.4-21.15-9.35-30.9-15.1899-34.83-17.61-12.02-7.4301-15.71-11.4-17.17-13.0599-3.59-4.0801-4.58-6.51-10.04-14.4401-5.94-8.63-8.18-10.72-12.21-16.2799-6.53-9.03-15.41-21.3101-17.42-35.55-1.6-11.42,3-11.4,4.81-29.3401.36-3.5699.52-7.0699.54-10.45,1.64,5.79,2.88,13.79,3.11,20.66.31,9.24-1.4,11.5699.39,18,2.56,9.2,8.96,14.89,15.2599,20.35,10.1801,8.8201,15.73,9.74,27.39,17.22,13.89,8.89,11.82,11.92,24.66,20.3401,8.88,5.83,17.11,11.1,28.95,12.53,5.44.6499,15.6801,1.8799,25.44-3.9202,8.32-4.95,11.87-12.3899,16.04-21.1299,3.19-6.6801,7.2-15.0801,6.65-25.8201-.58-11.58-5.73-11.52-8.21-25.05-2.54-13.7999,2.49-15.6199,0-33.2599-.63-4.4401-1.86-9.35-4.31-19.17-2.37-9.49-3.6-14.35-5.87-19.5701-1.78-4.0798-4.1801-8.0699-9-16.0399-5.47-9.0599-7.33-11.1801-9.39-16.83-2.24-6.14-2.77-11.0801-2.87-12.1301-.39-3.9399-1.32-13.3899,3.46-22.5,3.56-6.7999,10.66-14.0999,17.4901-16.6199-4.96,3.73-7.9,7.6399-9.6801,10.0499-4.41,5.9601-9.71,13.13-9.4,22.4901.22,6.5898,3.12,11.22,7.55,18.2699,5.01,7.99,7.58,8.92,14.73,17.6801,5.15,6.29,11.87,14.52,16.63,25.96,4.64,11.16,2.18,12.8,7.14,23.13,3.26,6.7899,4.66,6.7899,13.27,19.41,17.03,24.95,17.26,43.8,11.75,73.8099Z"/>
      <path class="cls-9" d="M476.5532,276.1847c-1.62,3.96-8.39,19.23-24.54,28.97-9.76,5.8899-18.4901,7.08-35.41,9.37-3.66.5-4.16.45-32.01,1.85-24.03,1.21-26.36,1.38-31.71.62-14.9901-2.14-25.39-7.58-28.52-9.2999-7.62-4.1901-12.26-8.4001-19.32-14.8801-9.64-8.8499-19.34-17.1399-25.2-29.08-5.73-11.67-7.9-24.74-13.6-36.45-.81-1.67-1.65-3.25-2.5-4.75,4.08,1.8099,9.36,6.12,13.42,9.4399,11.23,9.16,10.52,13.88,20.35,20.6,5,3.4301,4.58,1.79,20.08,9.4,7.86,3.85,9.59,5.0699,18,9.39,12.43,6.38,18.65,9.5801,24,11.48,19.82,7.03,39.05,2.71,47.22.26,8.39-2.52,21.01-6.3,31.31-18.26,1.1-1.29,13.53-16.1399,13.56-36,.01-5.34-.89-4.6599-2.35-21.9199-.95-11.24-.7599-13.79-2.34-18-1.06-2.8-3.44-7.75-15.14-17.21-8.1-6.5601-19.68-15.9301-37.82-22.3101-11.06-3.89-13.79-2.88-21.52-7.4301-8.8-5.1801-13.89-11.5699-18-16.83-1.9901-2.55-6.34-8.11-10.28-14.24,2.93,2.08,5.22,4.1,6.91,5.6,8.9901,7.99,8.7,11.6801,16.33,17.5399,4.44,3.4202,7.85,4.7001,21.69,9.4601,29.57,10.17,27.39,8.9,32.27,11,12.07,5.1801,23.79,10.39,32.4,22.24,1.27,1.74,2.23,3.2999,8.22,16.61,9.55,21.24,14.32,31.8601,15.45,36.1101,2.3,8.6499,7.16,26.96-.95,46.72Z"/>
      <path class="cls-3" d="M165.1189,138.0578c6.425-6.4637,5.4098-8.0817,9.3913-11.7391,3.7029-3.4015,10.0842-5.1836,22.6956-8.6088,6.7795-1.8413,10.1693-2.762,12.9131-3.1304,13.2117-1.774,22.5599,1.321,26.2173,2.7391,5.3202,2.0627,9.7729,3.7892,10.5652,7.4347.9807,4.5121-4.0916,9.9144-9,12.5219-8.0918,4.2986-13.0613-.4205-28.174.3912-8.2762.4446-14.2734,2.262-22.3043,4.6957-11.818,3.5814-17.939,5.4363-24.6522,10.5652-6.6616,5.0895-7.0139,8.1371-15.2609,13.3043-.8939.5601-12.4515,7.717-14.8696,5.087-1.3146-1.4298.6078-5.17,1.3696-6.6522,1.8965-3.6898,4.3574-5.6567,12.9131-11.9348,6.3888-4.688,7.3017-5.2679,9.9783-7.4347,2.3261-1.8831,5.2299-4.2338,8.2174-7.2391Z"/>
      <path class="cls-3" d="M101.9232,204.9707c-5.8529.7332-9.3379,5.0785-12.3261,8.8044-3.9664,4.9457-5.5699,9.7977-8.0218,17.2173-2.0836,6.3052-1.3462,6.1195-3.5217,12.3262-2.6114,7.4502-4.0927,8.9124-4.6956,13.3043-.6127,4.4626.2494,7.8132,1.5652,12.7174,4.1771,15.568,10.6346,16.6749,10.5652,26.6086-.0262,3.7476-.968,6.8546.9783,10.7609.3136.6295,2.8425,5.5594,6.4565,5.674,4.5688.1448,9.1801-7.4601,9.7826-14.2826.3229-3.6564-.6819-5.0908-3.5218-15.2609-2.0849-7.4666-3.1273-11.1998-3.3261-13.1088-1.5886-15.2595,8.115-28.1998,9-29.3478,2.5117-3.2579,3.4283-3.3999,6.4565-7.6305,3.9076-5.4592,7.3087-10.3551,6.4565-16.2391-.13-.8978-.6774-4.0168-3.1305-6.8478-3.3332-3.8467-8.5052-5.2234-12.7174-4.6957Z"/>
      <path class="cls-3" d="M287.5971,115.6229c4.0555-1.8503,4.0109-2.9893,9.1304-6,2.0405-1.2,5.2771-3.1033,8.8696-4.174,6.9907-2.0834,12.9655-.3091,21.9131,2.3479,7.1423,2.1208,10.7391,3.2429,12,6.2609,1.6768,4.0135-.4401,9.9032-4.174,11.7391-3.428,1.6855-5.5792-1.3438-14.6087-3.1305-3.5289-.6982-10.2844-2.035-18-.2609-3.8146.8772-4.5328,1.7488-9.3913,2.6086-8.9391,1.582-11.4151-.5-12-1.0435-1.0258-.9531-2.3177-2.8257-1.826-4.4347.6146-2.0109,3.4631-1.8035,8.0869-3.9131Z"/>
      <path class="cls-4" d="M268.7493,40.5996c5.3821,1.5067,9.5532.822,17.7391-.5218,6.8298-1.1212,12.5803-2.0652,18.5217-6,6.0118-3.9814,5.4642-6.5514,10.1739-8.0869,8.1828-2.6679,16.3554,2.9643,16.9565,3.3913,3.1062,2.2064,4.7223,4.671,7.3043,8.6087,4.2654,6.5049,4.1133,9.119,6.5218,13.0435,6.5672,10.7007,20.2567,11.7291,19.826,13.3043-.3906,1.4286-11.6967.7549-24-3.6522-9.3679-3.3556-8.7855-5.1043-15.6522-7.3043-10.9709-3.515-14.0339.4438-33.913-.2609-10.6857-.3788-16.9213-1.775-25.3044-3.6522-14.8324-3.3212-15.606-5.6649-15.6522-6.5218-.1066-1.9771,3.2282-4.0104,6-4.6956,4.1938-1.0368,6.8915,1.0638,11.4783,2.3478Z"/>
      <path class="cls-4" d="M180.9015,63.0577c-.1317-3.0349,1.7075-5.2355,2.4783-6.1304,1.9391-2.2516,4.1859-3.0999,8.2173-4.5652,4.366-1.5869,5.2402-1.2103,8.7391-2.8696,2.7079-1.2841,4.1869-1.9855,5.3478-3.6522.8037-1.1538.7354-1.7372,1.9565-7.4348.8598-4.0117,1.1733-5.0273,1.826-6.2609.6728-1.2714,2.1349-4.0345,4.0435-3.913.8679.0552,1.7952.705,2.0869,1.5652.4864,1.4344-1.0595,2.6733-2.2173,4.6957-1.1708,2.045-1.3023,4.7982-1.5652,10.3043-.3015,6.314.3985,6.7617-.5217,8.2174-.9922,1.5695-2.3691,1.9401-9.7826,4.0435-9.5464,2.7086-10.3301,2.9642-11.6087,3.9131-4.1873,3.1073-4.9363,7.1572-6.7826,6.7826-1.4557-.2953-2.1459-3.0472-2.2174-4.6957Z"/>
      <path class="cls-4" d="M46.7493,159.7752c-.3658-3.2056-.6786-5.9467.7826-8.0219,1.677-2.3816,3.9265-1.381,11.7391-3.7173,2.5737-.7697,5.0419-1.7522,9.9782-3.7174,2.1083-.8394,4.0218-3.0549,7.0435-2.9348.5829.0232,2.0085.0798,2.3478.8478.742,1.679-4.3433,5.3213-4.5652,5.4783-1.5854,1.1216-4.0895,2.5662-7.8261,3.5217-5.847,1.4952-7.2158-.124-9.6522,1.6957-.7828.5847-2.0108,2.876-4.4348,7.4348-2.0816,3.9149-2.6506,5.1636-3.3913,5.0869-1.3908-.144-1.9232-4.8097-2.0218-5.6738Z"/>
      <path class="cls-4" d="M36.1841,262.2969c-2.587.4998-3.4341,5.4032-3.7174,7.0435-.7209,4.1735.199,6.631.9782,11.3478,1.1451,6.9315,1.8093,10.9519.587,15.2609-1.3654,4.8135-3.4707,4.2963-8.0218,12.3262-3.5162,6.2041-5.3927,9.515-4.5,13.5,1.166,5.2052,6.5671,9.3748,6.8478,9.5869,2.2019,1.6638,3.0286,1.5046,3.9131,2.9348,2.3518,3.8027-1.4181,8.2827.5869,10.3695,1.3867,1.4432,4.9626,1.145,6.4565-.5869.6885-.7982,1.3341-2.3638-1.5652-11.3479-2.3854-7.3918-3.0129-6.9222-3.3261-9.3912-.7977-6.2889,3.4921-7.6124,5.2826-16.0435.6404-3.0156-.1543-1.6885-.3913-17.6088-.1167-7.8368-.1637-11.798.3913-13.8912,1.1023-4.1576,2.775-6.6034,1.5652-9.587-.8995-2.2185-3.2069-4.2761-5.087-3.913Z"/>
    </g>
  </g>
</svg>