<?xml version="1.0" encoding="UTF-8"?>
<svg id="Capa_2" xmlns="http://www.w3.org/2000/svg" viewBox="0 0 561.6731 563.5559">
  <defs>
    <style>
      .cls-1 {
        fill: #70569b;
      }

      .cls-2 {
        fill: #5f488c;
      }

      .cls-3 {
        fill: #9570c2;
      }

      .cls-4 {
        fill: #b29ad8;
      }

      .cls-5 {
        fill: #604593;
      }

      .cls-6 {
        fill: #47327c;
      }

      .cls-7 {
        fill: #a486ce;
      }

      .cls-8 {
        fill: #735aaf;
      }

      .cls-9 {
        fill: #8566b2;
      }
    </style>
  </defs>
  <g id="Capa_1-2" data-name="Capa_1">
    <g>
      <g>
        <path class="cls-3" d="M232.644,559.5488c-3.1431,0-6.21-.3691-9.1147-1.0972-7.9224-1.978-13.7573-6.2876-23.4253-13.4282-1.0635-.7876-1.9771-1.4863-2.8389-2.1455-3.7905-2.8994-6.0781-4.6494-10.1812-5.8198-2.8618-.8164-5.2944-.98-10.5244-1.2725-1.8633-.1069-3.4883-.1587-4.9746-.1587-1.9116,0-3.2529.0879-4.4365.1655-.9751.064-1.896.1245-2.9316.1245-.9028,0-1.8135-.0474-2.7842-.145-9.7925-.9917-16.4038-5.9229-24.7739-12.1665-5.5215-4.1216-9.8721-7.3696-13.2158-13.3701-2.2148-3.9771-2.6382-6.6831-2.9785-8.8579-.2432-1.5527-.3896-2.4897-1.2017-3.7925-4.2583-6.8433-16.9375-7.582-22.1914-7.582-2.7422,0-4.5474.1807-4.6226.1885-6.0625.6196-9.564,2.2261-12.9502,3.7793-3.1333,1.438-6.3735,2.9243-10.752,2.9243-1.2056,0-2.4248-.1079-3.7271-.3301-7.2051-1.229-14.3433-5.5327-18.6289-11.2314-1.9951-2.6387-3.2935-5.4473-3.8521-8.3389-.4331-2.2065-.1948-4.0234,2.1416-11.062,1.1768-3.543,2.8613-8.3091,5.1489-14.5732l.3481-.9551c2.2861-6.2734,3.2324-8.8701,3.7036-13.0669.3877-3.4453.9731-8.6509-1.6401-13.2397-.6841-1.2026-2.2319-2.75-5.041-5.5596-3.1011-3.0913-6.6123-6.5918-10.8394-9.5034-3.5352-2.4355-5.436-3.0078-7.4482-3.6133-2.0088-.605-4.2861-1.2905-7.5029-3.5068-6.8696-4.7407-14.8008-14.2544-14.5522-25.4688.0918-3.9893,1.2261-6.3774,3.4858-11.1353.5386-1.1333,1.1592-2.4399,1.8711-3.9839,2.2329-4.8569,4.2793-9.6875,6.2544-14.7651,1.1626-2.9814.1128-6.355-2.5518-8.2061-3.1782-2.2036-7.0513-5.2935-8.7778-9.6426-2.8667-7.2026-5.0601-14.2207-.458-20.853,2.3022-3.3198,4.4526-5.4722,6.3506-7.3716,2.5425-2.5444,4.2217-4.2256,5.4204-7.8208,1.1533-3.4478.7061-5.7246.0283-9.1719-.6226-3.168-1.3975-7.1113-.9302-12.6855.4355-5.1655,1.627-7.9111,3.0059-11.0903.8506-1.9595,1.814-4.1807,2.8594-7.5596,2.6357-8.5137,2.3203-13.144,1.9863-18.0464-.332-4.8691-.6748-9.9038,1.5312-18.1279,1.9971-7.4482,4.6211-11.8711,6.73-15.4248,2.4458-4.1216,4.2129-7.0996,4.5283-13.6392.4785-9.7876-1.2705-16.5024-1.2886-16.5693-.5962-2.209-1.2583-3.9565-1.8984-5.647-1.3105-3.4595-2.5488-6.7275-2.0132-11.5073.833-7.3857,4.082-11.4561,6.6611-13.5718,2.748-2.2505,5.0947-2.6299,8.0659-3.1094,2.0522-.3315,4.6064-.7437,8.54-1.9058,2.8721-.8569,5.853-1.7466,9.2603-3.5137,5.0034-2.5933,8.0918-5.3589,9.8022-7.2227,2.8145-3.0571,3.4126-5.207,4.3174-8.4609.8662-3.1133,1.9438-6.9878,5.1885-12.2832,4.5791-7.4634,10.0166-12.2178,12.8506-14.3877,3.2354-2.4453,5.2671-3.3271,7.2319-4.1797,1.8184-.7896,3.6987-1.6055,7.1782-4.0068,5.8809-4.0625,11.4609-9.2954,13.2949-11.0146.8193-.7671,1.521-1.4419,2.1509-2.0474,2.4888-2.3936,4.1328-3.9751,7.2144-5.6641,3.603-1.9824,6.5791-2.6772,11.5288-3.7349,8.0659-1.7095,12.2744-2.4233,14.7886-2.8496,2.7354-.4639,2.9692-.5112,4.0674-1.019,2.6885-1.2388,3.5176-2.2432,4.8921-3.9072,1.5732-1.9048,3.5312-4.2754,8.168-7.2261,5.1782-3.2939,8.8125-4.189,11.4663-4.8428,2.4185-.5962,3.522-.8677,5.1831-2.6768,3.1416-3.4292,4.9946-8.9805,7.3408-16.0088.2104-.6274.3936-1.1978.563-1.7261.9082-2.8281,1.6255-5.0625,3.8105-7.5063,5.3823-6.0205,13.2207-6.3257,14.7373-6.3257,5.9521.0889,9.9365,2.876,16.5371,7.4937,1.8022,1.2588,3.1436,2.3262,4.4404,3.3584,1.936,1.54,3.7646,2.9951,7.1108,5.0513,1.9482,1.1953,3.5801,2.0913,5.6855,2.8594,2.8481,1.0327,5.1382,1.3369,7.2393,1.5596,6.7344.7051,11.5732,1.2114,17.3628,1.2114,1.8716,0,3.7915-.0518,5.8691-.1582,8.436-.4399,12.2861-.7124,15.0942-2.5576.9961-.6533,1.5962-1.2192,2.2905-1.8745,1.0391-.9805,2.2163-2.0913,4.4121-3.2803,3.5239-1.9121,7.5796-2.8823,12.0518-2.8823,1.9004,0,3.48.1699,4.5254.2822,16.8564,1.7847,26.4185,15.1587,27.4531,16.6782,2.1704,3.2227,2.7744,5.2578,3.2603,6.8936.3994,1.3457.6636,2.2349,1.9844,4.0122,5.124,6.9116,13.5596,9.27,21.0024,11.3511,5.1797,1.4473,8.186,1.7119,11.6675,2.0181,3.7822.3335,8.0693.7109,15.6348,2.5811l.1108.0273c9.0088,2.2266,13.9717,3.4531,18.3823,6.6772,6.4194,4.6904,12.3228,12.7354,16.6221,22.6519.7197,1.6533,1.1763,2.8955,1.5098,3.8022.5845,1.5894.6997,1.873,1.3384,2.5752,2.8252,3.1011,8.2061,4.8174,15.9912,5.0996.4897.0161.9146.021,1.3193.021.5952,0,1.1504-.0107,1.6782-.021.5273-.0103,1.0303-.0195,1.5186-.0195,2.1104,0,4.458.1704,7.3188,1.4077,1.6133.7065,5.7695,2.5264,8.0103,6.8115,1.2432,2.3389,1.3882,4.5576.8052,12.4712-.1631,2.1719-.3105,3.7676-.4229,4.9893-.2617,2.833-.252,2.9922-.0835,3.5752.2793.9683.5093,1.2217,1.8477,2.585.854.8691,2.0234,2.0601,3.4692,3.8354,3.3423,4.1001,4.5825,6.9233,5.4878,8.9844.8247,1.8765,1.1655,2.6533,2.7847,3.9287,1.0767.8481,1.8242,1.187,2.9565,1.7002,1.5825.7173,3.5518,1.6094,6.6133,3.958l.0859.0664c2.8262,2.1821,4.5317,3.4995,6.1294,5.8511,1.0063,1.4775,1.7852,3.0923,2.313,4.7954,1.6123,5.043.9644,10.4038.4912,14.3179-.4707,3.8486-1.1382,5.8037-1.6748,7.375-.375,1.0972-.6455,1.8896-.8154,3.3018-.5107,4.2246.7495,6.7222,3.2593,11.6987.6685,1.3252,1.395,2.7666,2.1577,4.3857.9214,1.9751,1.7412,3.876,2.5112,5.8242,3.0312,7.6836,3.6006,12.1084,4.0156,15.3398.397,3.0864.6157,4.7866,2.7749,8.2026,1.4907,2.3604,2.2744,2.9912,4.6011,4.8628,2.3125,1.8604,5.8076,4.6719,11.9409,10.8306,11.3359,11.3774,13.7642,16.2495,15.1504,19.9229.7954,2.104,3.2212,8.5156,2.377,16.7817-1.0449,10.1392-6.2324,16.9004-7.9375,19.1226-2.7861,3.6362-4.9741,5.1973-6.7319,6.4521-1.5317,1.0928-2.4565,1.7524-3.6729,3.8203-2.2227,3.7861-2.4712,7.6221-3.0151,16.0269-.1279,2.019-.1177,2.9688-.0376,10.3613l.0459,4.2983c.1528,14.5381.1333,16.2344-.9521,19.2134-1.5796,4.3315-3.6206,6.1675-5.5947,7.9424-1.4473,1.3018-2.9434,2.647-4.709,5.5752-1.8896,3.1431-6.1006,11.3687-4.4741,19.9761.6104,3.2427,1.7368,4.8955,3.041,6.8091,1.6802,2.4644,3.5845,5.2583,4.1284,10.6211.2329,2.3325.9902,14.2598-6.9395,20.6201-3.1333,2.5093-7.4702,3.2178-16.1104,4.6284-4.2822.6978-6.4873.8525-7.9463.9551-1.3926.0977-1.644.1152-2.6919.5059-6.6094,2.4604-10.5171,8.5132-11.8906,11.0015-.562.9966-1.6738,3.7319-3.356,7.8716-1.5137,3.7168-2.1353,5.4844-2.5464,6.6538-.4126,1.1729-.6851,1.9482-1.3672,3.3408-3.3594,6.8511-8.0098,11.146-11.0869,13.9878-1.8364,1.6982-5.252,4.8569-10.5532,7.7085-2.8662,1.5483-4.8857,2.2373-6.6675,2.8447-.8394.2861-1.6318.5566-2.5103.9116-1.1992.4702-11.5225,4.7236-16.5024,13.8618-2.2476,4.1226-2.8403,8.23-3.8223,15.0347-.4414,3.0337-.5903,5.373-.71,7.2529-.2461,3.873-.4409,6.9316-3.1743,9.8662-2.811,3.0146-7.0356,4.543-12.5576,4.543-2.4004,0-4.5688-.2891-5.8643-.4619-5.0435-.6641-7.8452-2.187-10.812-3.7993-2.3677-1.2871-5.0513-2.7456-9.7568-4.167-1.9053-.5742-2.4565-.6484-3.9312-.8467-1.7397-.2339-4.3687-.5874-10.686-1.918-2.8755-.604-5.2148-1.1372-7.1494-1.5781-3.3286-.7588-5.5273-1.2603-6.7544-1.2603-.4419,0-.6821.0552-1.0498.25-.7773.8604-3.5298,4.9546-6.5283,9.4434l-1.2705,1.9033c-3.5542,5.3271-3.9253,5.8838-5.4106,6.9526-2.9092,2.0864-6.4805,3.1421-10.6201,3.1426-5.084,0-9.4609-1.6323-10.2866-1.9595-3.0903-1.2085-4.3896-2.4277-5.6465-3.6064-.9165-.8594-1.8643-1.748-4.1362-3.0557-7.2974-4.1953-14.8989-5.0327-18.7808-5.1577-.9087-.0293-2.2056-.0381-3.5293-.0381-2.3286,0-4.7407.0293-5.3813.0376-.5132.0498-2.1958.2173-4.1694.4458-2.9209.3257-5.3579.6562-6.7026.9082-4.3315.8218-6.3647,2.6123-9.1782,5.0903-2.4512,2.1587-5.229,4.6055-9.8237,6.7207-.7734.356-7.8154,3.4736-17.0352,3.4741Z"/>
        <path class="cls-4" d="M221.2932,8.0146c4.65.0698,7.85,2.2998,14.24,6.77,4.38,3.0598,5.94,4.97,11.75,8.5398,2.07,1.27,3.97,2.3201,6.41,3.2102,3.42,1.24,6.21,1.5698,8.19,1.7798,6.8326.7153,11.7721,1.2336,17.783,1.2336,1.8892,0,3.8842-.0513,6.0771-.1636,8.83-.46,13.33-.74,17.09-3.21,2.88-1.8899,3.27-3.28,6.41-4.98,3.5749-1.9402,7.2355-2.3994,10.1439-2.3994,1.6638,0,3.0809.1501,4.0961.2593,15.3,1.6201,24.08,14.2302,24.57,14.9502,3.6501,5.4199,1.87,6.3699,5.34,11.0398,5.82,7.8501,14.77,10.4802,23.14,12.8201,11.24,3.1401,13.1,1.0901,27.4201,4.6301,8.8599,2.1899,13.2999,3.28,17.0899,6.0498,9.02,6.5901,14.2,18.4502,15.31,21.01,1.95,4.4802,1.75,5.49,3.56,7.4802,5.43,5.96,15.83,6.2998,18.87,6.4099.494.0159.9622.0215,1.4087.0215,1.1843,0,2.2179-.0403,3.1917-.0403,1.9138,0,3.5952.1555,5.7297,1.0789,1.37.5999,4.45,1.9299,6.05,4.99.68,1.28.93,2.5798.36,10.3198-.55,7.3201-.92,8.03-.36,9.9702.9,3.1199,2.46,3.4199,6.06,7.8398,6.13,7.52,4.19,9.8201,8.9,13.53,3.21,2.53,4.67,1.8999,9.61,5.6899,2.7201,2.1001,4.09,3.1501,5.34,4.99.81,1.1902,1.4,2.4402,1.8,3.73,1.3301,4.1602.82,8.6802.34,12.6501-.7599,6.22-2,6.5999-2.49,10.6799-.82,6.78,2.0401,10.3501,5.77,18.27.7701,1.6499,1.58,3.49,2.41,5.5901,5.78,14.6499,1.94,16,7.13,24.21,3.58,5.6699,4.75,3.99,17.09,16.3799,10.8,10.8401,13.01,15.25,14.2401,18.51.87,2.3,2.87,7.8101,2.14,14.96-.91,8.8301-5.45,14.9001-7.13,17.0901-4.95,6.46-7.45,5.1899-10.68,10.6799-2.7,4.6001-2.9899,9-3.56,17.8-.16,2.53-.1199,3.3801,0,14.96.15,14.24.11,15.55-.71,17.8-2.33,6.3901-5.55,5.49-9.9699,12.8201-1.0401,1.73-7.0701,11.73-4.9801,22.79,1.59,8.45,6.27,8.71,7.12,17.0898.1101,1.1001,1.06,11.8601-5.46,17.0901-2.31,1.8501-6.29,2.5-14.25,3.8-8.53,1.3899-8.33.52-11.39,1.6599-8.65,3.22-13.15,11.28-14,12.8201-.66,1.1699-1.63,3.55-3.56,8.3-2.97,7.2898-2.59,7.27-3.8,9.74-3.03,6.1799-7.2,10.03-10.21,12.8098-1.86,1.7202-4.9699,4.5601-9.73,7.1201-3.85,2.0801-5.81,2.3699-8.78,3.5701-1.48.5798-12.88,5.3098-18.52,15.6599-2.59,4.75-3.26,9.3799-4.27,16.3799-1.3199,9.0701-.14,12.05-2.85,14.9602-2.4495,2.627-6.272,3.2666-9.6247,3.2666-2.1223,0-4.0561-.2561-5.3353-.4268-8.1299-1.0698-9.08-4.55-19.94-7.8298-4.6099-1.3901-3.08-.3501-14.95-2.8501-8.4287-1.7705-12.1942-2.9243-14.7296-2.9243-1.1735,0-2.0832.2471-3.0704.7944-.9199.5-1.34.95-7.84,10.6799-4.49,6.72-4.69,7.1099-5.69,7.8298-2.5287,1.8135-5.5136,2.3877-8.2791,2.3877-4.3869,0-8.2221-1.4446-8.8109-1.6775-4.5499-1.78-3.63-3.1702-9.2599-6.4102-8.47-4.8699-17.25-5.5798-20.65-5.6899-.9432-.03-2.2867-.04-3.6585-.04-2.7438,0-5.6015.04-5.6015.04,0,0-1.99.1899-4.41.47-2.42.27-5.27.6301-6.98.95-9.59,1.8201-10.6,7.8101-19.94,12.1101-.4819.2219-6.9756,3.1069-15.3595,3.1069-2.5752,0-5.3277-.272-8.1405-.9771-7.17-1.7898-12.71-5.8899-22.08-12.8098-5.4699-4.05-8.35-6.8701-14.24-8.55-3.33-.95-6.21-1.1301-11.4-1.4199-2.113-.1211-3.8006-.1648-5.1978-.1648-3.6004,0-5.2771.2896-7.3681.2896-.7152,0-1.4786-.0339-2.3841-.1248-8.69-.8801-14.8-5.4402-22.79-11.4001-5.56-4.1499-9.23-6.95-12.1-12.0999-3.52-6.3201-1.63-8.5701-4.28-12.8201-5.1343-8.2512-18.2916-9.4688-25.5912-9.469-2.7946,0-4.7298.1785-5.0288.209-12.6086,1.2883-15.7917,6.6829-23.2964,6.6829-.9413,0-1.9492-.0847-3.0536-.2729-6.04-1.03-12.37-4.73-16.1-9.6899-1.55-2.05-2.66-4.3101-3.12-6.6899-.22-1.1201-.2699-2.1702,2.01-9.04,1.09-3.28,2.71-7.8901,5.11-14.46,2.57-7.0601,3.72-10.05,4.27-14.95.46-4.0901,1.06-10.05-2.14-15.6702-.95-1.6699-2.53-3.25-5.69-6.4099-3.17-3.1602-6.87-6.8501-11.4-9.97-7.59-5.23-9.16-3.1301-14.95-7.1201-6.55-4.52-13.02-13.05-12.82-22.0798.0901-3.9102,1.38-5.7002,4.99-13.53,1.71-3.72,3.93-8.77,6.3501-14.99,1.8399-4.7202.1599-10.0601-4-12.9502-3-2.0798-6.0501-4.5798-7.3401-7.8298-2.75-6.9102-4.29-12.1902-.89-17.0901,5.2-7.5,9.77-8.6799,12.28-16.21,2.74-8.1899-1.63-11.8101-.71-22.79.63-7.47,2.9-8.75,5.7-17.8,5.43-17.54-.7299-20.3298,3.56-36.3198,4.12-15.3701,10.73-16.2102,11.39-29.9102.52-10.6299-1.42-17.8-1.42-17.8-1.9-7.0398-4.45-9.8699-3.8-15.6699.16-1.4199.82-7.3101,5.22-10.9199,3.37-2.76,5.55-1.4202,15.2-4.27,3.05-.9102,6.25-1.8701,9.97-3.8,1.64-.8501,6.78-3.5701,10.91-8.0701,6.4901-7.0498,3.64-11.03,9.97-21.3599,4.81-7.8401,10.63-12.3501,11.87-13.3,5.73-4.3301,6.73-2.8801,14.25-8.0701,6.08-4.2,11.83-9.5798,13.7599-11.3899,3.91-3.6602,5.23-5.3,8.55-7.1201,3.0901-1.7,5.62-2.3,10.44-3.3298,16.89-3.5801,16.6501-2.74,19.7-4.1501,6.9-3.1799,5.17-6.0701,13.53-11.3899,9.48-6.03,12.6101-2.9202,17.45-8.1899,3.71-4.05,5.73-10.0801,8.19-17.4502,1.26-3.76,1.61-5.6499,3.56-7.8298,4.46-4.99,11.43-4.99,11.75-4.99M221.3534,0h-.0602c-1.8162,0-11.2062.3696-17.7256,7.6638-2.7519,3.0762-3.668,5.9294-4.6379,8.9504-.1648.5132-.3427,1.0679-.5457,1.6736-2.111,6.3245-3.9315,11.7786-6.5005,14.5833-.8362.9102-.9688.9431-3.1838,1.4888-2.7581.6794-6.9262,1.7065-12.658,5.3523-5.1726,3.2915-7.4469,6.0452-9.1075,8.0559-1.2456,1.5081-1.6215,1.9631-3.4753,2.8176q-.6484.2998-3.0652.7095c-2.5447.4316-6.8037,1.1541-14.9423,2.8792-5.1755,1.1057-8.5477,1.896-12.6411,4.1479-3.5386,1.9399-5.5322,3.8572-8.0563,6.2844-.6182.5945-1.3065,1.2568-2.1079,2.0068-1.7844,1.6736-7.1986,6.7512-12.838,10.6467-3.1548,2.1772-4.7773,2.8816-6.495,3.6272-2.0788.9021-4.4351,1.9248-8.0318,4.6428l-.0212.0161-.021.0161c-3.0553,2.3406-8.9143,7.4631-13.8272,15.4709-3.5407,5.7781-4.751,10.1294-5.6346,13.3066-.8544,3.072-1.2443,4.4741-3.4005,6.8162-1.4997,1.634-4.2185,4.0588-8.7018,6.3828-3.0731,1.5942-5.7448,2.3916-8.5734,3.2356-3.6673,1.083-6.0818,1.4729-8.022,1.7861-3.1385.5066-6.3837,1.0308-9.9645,3.9634-3.1585,2.5913-7.1236,7.5044-8.1056,16.219-.6443,5.7498.8257,9.6301,2.2473,13.3826.6059,1.5994,1.2325,3.2532,1.7787,5.2771.008.0315,1.5965,6.2493,1.1527,15.3201-.2675,5.5503-1.5832,7.7678-3.9718,11.7932-2.2342,3.7651-5.0147,8.4509-7.1544,16.4333-2.3789,8.8669-1.9963,14.4824-1.6587,19.4368.3213,4.7153.5987,8.7876-1.8161,16.5881-.9808,3.1702-1.8585,5.1934-2.7074,7.1499-1.4564,3.3569-2.8321,6.5278-3.3228,12.3467-.5142,6.1367.3559,10.5642.9912,13.7971.6321,3.2166.9206,4.6848.1046,7.1238-.9024,2.707-2.0901,3.8958-4.4565,6.2642-1.9167,1.9185-4.3021,4.3057-6.8094,7.9221-6.2078,8.9463-2.4541,18.3784.0298,24.6199,2.1194,5.3398,6.5754,8.926,10.2204,11.4531,1.13.7849,1.5846,2.2068,1.0989,3.4529-1.9477,5.0059-3.9637,9.7646-6.1648,14.5532-.7003,1.519-1.3145,2.8118-1.8472,3.9329-2.3457,4.9385-3.7617,7.9192-3.8732,12.76-.2839,12.8159,8.5927,23.5557,16.2805,28.8608,3.7382,2.5762,6.4484,3.3918,8.626,4.0474,1.8502.5571,3.3116.9971,6.3285,3.0759,3.9284,2.7056,7.3021,6.0686,10.2786,9.0359,2.2228,2.2227,3.9771,3.9768,4.3927,4.7073,1.8208,3.198,1.5943,6.7883,1.1418,10.8115-.4178,3.7224-1.2533,6.0149-3.486,12.1414l-.3508.9629c-2.2946,6.2815-3.9915,11.0842-5.1844,14.6738-2.446,7.3706-2.8911,9.9434-2.2687,13.1123.6715,3.4744,2.2179,6.8396,4.5915,9.979,4.8643,6.4683,12.9716,11.3628,21.1456,12.7566,1.5271.2605,2.9666.3872,4.4009.3872,5.2531,0,9.062-1.7476,12.4226-3.2891,3.232-1.4827,6.2848-2.8833,11.6885-3.4353.0137-.0015,1.6825-.1675,4.2138-.1675,9.4048.0002,16.6034,2.1799,18.7867,5.6887.3601.5774.4166.8264.6467,2.2974.348,2.2251.8738,5.5874,3.4363,10.188,3.763,6.7524,8.6496,10.3997,14.3079,14.623,8.5289,6.3618,15.8837,11.8479,26.7764,12.9512,1.1121.1116,2.1539.1655,3.1917.1655,1.1666,0,2.1971-.0676,3.1937-.1328,1.1767-.0771,2.3934-.1567,4.1744-.1567,1.4094,0,2.9598.0496,4.7393.1516,4.9305.2754,7.2084.4263,9.66,1.1255,3.3721.9619,5.3166,2.4495,8.8465,5.1499.877.6711,1.8069,1.3821,2.8228,2.1343l.0774.0571c9.7171,7.1763,16.1367,11.9172,24.8307,14.0876,3.2155.8059,6.61,1.2153,10.0816,1.2153,10.0767,0,17.8572-3.448,18.7112-3.8413,5.1277-2.3606,8.2709-5.1289,10.7964-7.3533,2.6787-2.3594,4.0234-3.5437,7.2863-4.1628,1.217-.2275,3.6078-.55,6.3741-.8586,1.7786-.2058,3.3203-.3621,3.9635-.4258.8207-.01,3.0398-.0349,5.1594-.0349,1.8789,0,2.888.0195,3.4037.0359,2.8201.0913,10.123.7253,16.9099,4.6274,1.8665,1.0742,2.5393,1.7051,3.3911,2.5042,1.7065,1.6006,3.4068,3.0381,6.9438,4.4216,1.2986.5142,6.0706,2.2283,11.7308,2.2283,4.9943,0,9.3512-1.3083,12.9498-3.8892,2.0869-1.5024,2.7488-2.4946,6.4224-8.0012l1.2608-1.8889c1.4631-2.1899,3.8929-5.8274,5.2839-7.7878,1.1566.1987,2.9543.6084,4.8263,1.0352,1.916.437,4.3006.9805,7.2183,1.5935,6.458,1.3601,9.1755,1.7256,10.9739,1.9673,1.381.1858,1.7091.23,3.3099.7126,4.3078,1.301,6.6921,2.5969,8.9979,3.8501,3.1574,1.7163,6.4224,3.4907,12.2103,4.2524,1.3799.1841,3.7131.4954,6.3809.4954,6.6778,0,11.8882-1.9565,15.4865-5.8154,3.7118-3.9861,3.9822-8.2358,4.2437-12.3457.121-1.9019.2582-4.0576.6756-6.926.9502-6.5857,1.4728-10.208,3.3755-13.6975,4.377-8.0322,13.9995-11.8745,14.407-12.0342l.0397-.0156.0396-.0159c.7764-.3137,1.4844-.5554,2.3042-.835,1.9296-.6582,4.1168-1.4043,7.2826-3.1147,5.7377-3.0857,9.5365-6.5991,11.3621-8.2874,3.2949-3.043,8.2764-7.6436,11.9645-15.1655.787-1.6064,1.1235-2.564,1.5497-3.7761.3983-1.1328,1-2.8447,2.4764-6.4683,1.4498-3.5681,2.6995-6.6438,3.1182-7.386l.0184-.0325.018-.0327c1.1573-2.0969,4.4271-7.1895,9.7792-9.1816q.5078-.1892,1.5752-.2642c1.5319-.1074,3.8468-.2698,8.3077-.9966,9.0416-1.4768,14.0195-2.2898,17.9712-5.4548,9.5517-7.6619,8.6936-21.4563,8.4246-24.1438-.6476-6.3857-3.0505-9.9106-4.805-12.4846-1.2216-1.792-1.9589-2.8735-2.4134-5.2893-1.3719-7.2603,2.3167-14.4241,3.9661-17.1675,1.4583-2.4187,2.5613-3.4104,3.9577-4.6663,2.1198-1.9065,4.7581-4.2793,6.6794-9.5486,1.3722-3.7651,1.3486-6.012,1.1946-20.6301l-.0458-4.3125c-.0822-7.6045-.0856-8.2249.0303-10.0571.5549-8.5664.8101-11.4153,2.4733-14.249.7803-1.3259,1.1536-1.5925,2.5427-2.5837,1.8715-1.3352,4.4344-3.1641,7.5871-7.2783,5.0288-6.5552,7.9705-13.6699,8.7407-21.1433.9407-9.2136-1.7364-16.2913-2.6161-18.6169-1.9536-5.1777-5.3226-10.5554-16.0587-21.3313-6.2879-6.3135-9.8862-9.208-12.2673-11.1235-2.1951-1.7659-2.5906-2.084-3.7236-3.8784-1.6874-2.6694-1.814-3.6538-2.1897-6.5759-.4424-3.4399-1.0481-8.1514-4.2617-16.2966-.8021-2.0293-1.653-4.0029-2.6029-6.0383-.8036-1.7063-1.5544-3.1951-2.2169-4.5085-2.5024-4.9614-3.2084-6.5205-2.8589-9.4094.1201-1.0002.2797-1.4673.6292-2.4907.5652-1.655,1.3395-3.9216,1.8596-8.1797.5179-4.2834,1.2254-10.1333-.6517-16.032-.6455-2.0691-1.5935-4.0303-2.818-5.8293-1.9547-2.877-4.0704-4.5103-6.9985-6.771l-.0693-.0535c-3.4463-2.644-5.7418-3.6843-7.4181-4.4438-1.0154-.4602-1.4358-.6506-2.1287-1.1968-.8345-.6575-.8631-.7227-1.5973-2.3938-.9417-2.1436-2.3648-5.3828-6.0516-9.9058-1.5615-1.917-2.8062-3.1846-3.7151-4.1104-.2817-.2866-.6158-.627-.813-.8447.025-.4626.1034-1.3127.1797-2.1404.1109-1.2012.2626-2.8462.4282-5.0503.6044-8.208.5096-11.3081-1.2612-14.6555-2.896-5.5186-7.9801-7.7444-9.8955-8.5828l-.016-.0071-.0475-.0208c-3.5397-1.5312-6.4912-1.7375-8.9115-1.7375-.5125,0-1.0399.0095-1.5931.0203-.503.0095-1.0319.02-1.5985.02-.3652,0-.7482-.0044-1.1522-.0173l-.0246-.001c-8.3063-.3003-11.7507-2.23-13.1775-3.7961-.0462-.0508-.078-.0881-.0981-.1125-.093-.2041-.2834-.7219-.4388-1.1448-.3505-.9529-.8304-2.2583-1.5988-4.0237-4.5754-10.5518-10.9449-19.179-17.9306-24.283-5.048-3.6892-10.284-4.9834-19.7893-7.3328l-.1056-.0261c-7.8661-1.9446-12.3173-2.3364-16.2445-2.6824-3.4183-.301-6.1183-.5386-10.9421-1.8862-8.5214-2.3823-14.8629-4.4851-18.8584-9.8743-.9028-1.2151-1.0192-1.6067-1.3643-2.7698-.6665-2.2444-1.4559-4.5432-3.7662-7.9736-1.1626-1.7087-11.7064-16.4668-30.3737-18.4434-1.0498-.1128-2.8275-.304-4.94-.304-5.1473,0-9.8464,1.1338-13.9667,3.3699-2.6501,1.4348-4.1517,2.8516-5.248,3.886-.6471.6106-1.0377.979-1.7363,1.4375-1.9379,1.2729-5.6227,1.5168-13.1099,1.907-2.003.1025-3.8566.1526-5.66.1526-5.5819,0-10.3346-.4976-16.9125-1.1863-1.9582-.2075-3.8947-.4646-6.3287-1.3472-1.7733-.647-3.2108-1.4395-4.9506-2.5068-3.1341-1.9258-4.7905-3.2437-6.7083-4.7695-1.2827-1.0205-2.7366-2.1772-4.6431-3.5093C233.1467,3.334,228.5349.1079,221.4136.001l-.0602-.001h0Z"/>
      </g>
      <path class="cls-5" d="M476.5532,276.1846c-1.62,3.96-8.39,19.23-24.54,28.97-9.76,5.8899-18.4901,7.08-35.41,9.37-3.66.5-4.16.45-32.01,1.85-24.03,1.21-26.36,1.38-31.71.62-14.9901-2.14-25.39-7.58-28.52-9.2999-7.62-4.1901-12.26-8.4001-19.32-14.8801-9.64-8.8499-19.34-17.1399-25.2-29.08-5.73-11.67-7.9-24.74-13.6-36.45-.81-1.67-1.65-3.25-2.5-4.75-3.21-5.7101-6.51-10.13-9.05-13.2001-1.42-1.2999-3.6-3.04-6.54-4.5499-8.56-4.39-16.72-3.3199-19.01-2.9801-6.8799,1-11.56,3.9801-14.78,6.05-.92.5901-1.79,1.2-2.6,1.8201-4.96,3.73-7.9,7.6399-9.6801,10.0499-4.41,5.9601-9.71,13.13-9.4,22.4901.22,6.5898,3.12,11.22,7.55,18.2699,5.01,7.99,7.58,8.92,14.73,17.6801,5.15,6.29,11.87,14.52,16.63,25.96,4.64,11.16,2.18,12.8,7.14,23.13,3.26,6.7899,4.66,6.7899,13.27,19.41,17.03,24.95,17.26,43.8,11.75,73.8099-1.92,10.4401-2.87,15.66-5.47,21.36-5.26,11.5601-13.34,18.4-18.61,22.8501-6.33,5.3599-12.15,10.28-21.43,13.0399-13.62,4.05-25.59.75-31.85-.98-3.27-.9-8-3.2001-17.5-7.4-21.15-9.35-30.9-15.1899-34.83-17.61-12.02-7.4301-15.71-11.4-17.17-13.0599-3.59-4.0801-4.58-6.51-10.04-14.4401-5.94-8.63-8.18-10.72-12.21-16.2799-6.53-9.03-15.41-21.3101-17.42-35.55-1.6-11.42,3-11.4,4.81-29.3401.36-3.5699.52-7.0699.54-10.45.15-20.1799-4.9-36.3101-5.88-39.37-4.58-14.23-8.92-18.0499-8.9-29.8199.01-5.0601,1.78-11.1001,5.33-22.96,6.08-20.29,9.27-30.5901,16.93-38.3901,5.18-5.28,6.11-3.6499,12.05-9.85,8.52-8.9,9.01-14.7799,15.35-23.38,4.6899-6.3799,5.36-4.4099,21.04-17.83,12.13-10.39,13.75-13.2999,29.16-26.54,7.88-6.7799,11.88-10.1899,15.11-11.71,8.16-3.83,15.9-4.09,31.3799-4.61,9.91-.3301,14.86-.5,18.94.4399,12.63,2.92,14.56,9.27,24.95,10,5.89.41,10.23-1.3199,18.9-4.79,14.13-5.6399,13.73-9.5599,23.1-12.3699,14.45-4.3201,28.08,1.2,32.41,2.95,4.72,1.9099,8.63,4.26,11.79,6.52,2.93,2.08,5.22,4.1,6.91,5.6,8.9901,7.99,8.7,11.6801,16.33,17.5399,4.44,3.4202,7.85,4.7001,21.69,9.4601,29.57,10.17,27.39,8.9,32.27,11,12.07,5.1801,23.79,10.39,32.4,22.24,1.27,1.74,2.23,3.2999,8.22,16.61,9.55,21.24,14.32,31.8601,15.45,36.1101,2.3,8.6499,7.16,26.96-.95,46.72Z"/>
      <path class="cls-7" d="M62.9884,413.9272c-5.6848.3019-5.9321-7.6266-17.6087-14.8695-6.9225-4.2939-10.0839-3.5222-16.8261-9-4.0453-3.2866-7.0178-5.7017-8.6087-9.7826-1.3657-3.5032-1.2858-7.1378,4.3044-25.0436,4.2663-13.6652,5.8056-16.6277,3.9131-20.3478-2.1963-4.3174-6.2296-4.1803-8.6087-9.7826-1.9696-4.6381-1.0807-9.1481-.7826-10.5652,1.6619-7.8981,7.0013-7.8477,10.1739-16.0436,1.3115-3.3881,1.3961-7.8674,1.5652-16.826.1763-9.3381-.7392-9.3534,0-13.6957,1.3772-8.0896,4.6227-8.4347,6.6522-16.4347,1.6172-6.3746-.209-7.0801.3913-19.174.2846-5.7344.571-11.5033,2.3478-18,3.5092-12.8311,8.369-12.1813,9.7826-21.1305,1.0381-6.5721-1.537-7.2125-4.6956-26.6086-2.0276-12.4512-1.3466-14.5219-.3913-16.0435,3.3293-5.3026,9.576-3.2751,22.6956-7.8262,9.29-3.2225,17.439-6.0493,22.3044-13.3043,5.6115-8.3676,1.3484-14.4146,8.2174-22.6957,1.9593-2.3621,5.2192-4.4442,11.7391-8.6086,10.2299-6.5341,14.5215-7.2373,18.3913-12.9131,3.2086-4.7061,1.2155-5.6266,3.9131-9,3.9329-4.9182,9.1536-4.1921,30.5217-8.6086,6.4127-1.3254,11.2581-2.4895,14.8696-6.6522,2.5057-2.8882,1.7584-4.1551,3.913-7.0435,5.7049-7.648,14.1976-3.1279,21.1304-9.5217,5.8917-5.4337,2.0513-10.8129,9.913-20.3478,2.554-3.0976,5.4755-6.6409,9.9131-7.3043,5.639-.8431,9.137,3.6502,16.1739,8.3478,12.6823,8.4664,25.6409,10.1072,32.3478,10.9565.0001,0,11.3387,1.5635,24.5217-1.0435,2.7106-.536,5.1532-1.23,7.6956-2.8043,4.2272-2.6175,4.5554-5.0833,7.4348-7.2391,6.3314-4.7407,16.1948-1.3918,17.413-.9783,9.0261,3.0645,13.4083,10.872,15.6522,14.8696,3.2285,5.7518,1.7241,6.4995,4.1087,10.3696,6.011,9.7555,19.8691,11.982,33.7827,14.2173,11.1969,1.799,12.9493.6282,23.2173,3.1304,10.7159,2.6114,17.3671,4.3312,20.3478,9.913,2.4284,4.5475.4028,7.88,4.174,16.174,1.7747,3.9031,3.7202,6.4573,4.1739,7.0435,2.0641,2.6664,6.1588,7.9556,12.7826,9.9131,5.4406,1.6078,6.8475-.7283,12.2609,1.3043,1.1826.4441,5.8031,2.2448,8.6087,6.5217,3.0702,4.6803,1.9777,9.2933,2.087,14.3479.2299,10.6285,6.3857,11.0648,8.3478,22.6956.9446,5.5991,1.7621,10.4453-1.0435,14.087-4.366,5.667-15.355,5.6254-22.4348,1.5652-6.4035-3.6724-5.6539-8.364-10.9565-14.6086-7.8412-9.2343-16.2902-6.9945-39.1304-14.6088-11.1444-3.7152-20.8633-6.9552-31.3043-14.0869-15.5844-10.6449-13.2695-16.6353-27.1304-25.5652-4.8033-3.0945-22.3786-14.4174-41.2174-10.4348-14.6615,3.0995-15.866,12.4625-32.8696,15.1304-2.4327.3817-3.6005.3771-24.5217-1.0435-28.4977-1.9351-27.5377-2.0084-31.3044-2.0869-18.1059-.3771-28.0814-.5848-40.1739,4.1738-10.7656,4.2365-18.3552,10.4991-21.3913,13.0436-9.0701,7.6011-8.0293,10.0679-17.7391,18.7826-9.9199,8.9033-12.429,7.6056-22.9565,17.2174-4.9016,4.4752-8.051,8.1285-14.0869,15.1304-8.8225,10.2344-13.2605,15.3285-16.1739,20.3479-8.1672,14.071-3.4646,18.1832-11.6087,34.5652-6.7018,13.481-10.4759,11.882-13.3044,21.5217-2.8558,9.7329-.7688,18.621,3.5217,36,1.2003,4.8619,2.9239,11.1272,5.4085,18.4012,2.0912,6.1222,2.3487,12.7368.6597,18.982-3.5722,13.2089-3.7347,23.8595-3.3291,30.7038.5193,8.7634,1.0026,16.9211,4.6956,27,3.331,9.0909,6.6978,12.7159,5.8696,19.5653-.8732,7.2211-6.0857,15.3519-11.7391,15.6521Z"/>
      <path class="cls-9" d="M553.5032,286.8145c-.91,8.8301-5.45,14.9001-7.13,17.0901-4.95,6.46-7.45,5.1899-10.68,10.6799-2.7,4.6001-2.99,9-3.56,17.8-.16,2.53-.12,3.38,0,14.96.15,14.24.11,15.55-.71,17.8-2.33,6.39-5.55,5.49-9.97,12.8201-1.04,1.73-7.07,11.73-4.98,22.7899,1.59,8.4501,6.27,8.7101,7.12,17.09.11,1.1001,1.06,11.8601-5.46,17.0901-2.31,1.85-6.29,2.5-14.25,3.7999-8.53,1.39-8.33.52-11.39,1.66-8.65,3.22-13.15,11.28-14,12.8201-.66,1.1699-1.63,3.5499-3.56,8.2999-2.97,7.2899-2.59,7.27-3.8,9.74-3.03,6.1801-7.2,10.03-10.21,12.8099-1.86,1.7201-4.97,4.5601-9.73,7.1201-3.85,2.08-5.81,2.3699-8.78,3.5699-1.48.58-12.88,5.3099-18.52,15.66-2.59,4.75-3.2599,9.3799-4.27,16.3799-1.32,9.0701-.14,12.05-2.85,14.9601-4,4.2899-11.66,3.28-14.96,2.84-8.13-1.0699-9.08-4.55-19.94-7.83-4.61-1.39-3.08-.35-14.95-2.85-12.33-2.5901-14.68-3.8601-17.8-2.13-.92.5-1.34.95-7.84,10.6801-4.49,6.72-4.69,7.1099-5.69,7.8298-6.54,4.6901-16.13,1.0901-17.09.7101-4.55-1.78-3.63-3.17-9.26-6.41-8.47-4.87-17.25-5.58-20.65-5.6899-2.83-.0901-9.26,0-9.26,0,0,0-1.99.1899-4.41.47-2.42.27-5.27.63-6.98.95-9.59,1.8201-10.6,7.8101-19.94,12.1101-.63.2899-11.53,5.1299-23.5,2.1299-7.17-1.7899-12.71-5.8899-22.08-12.8099-5.47-4.0499-8.35-6.87-14.24-8.5499-3.33-.9501-6.21-1.1301-11.4-1.42-9.42-.54-10.37.46-14.95,0-8.69-.88-14.8-5.4401-22.79-11.4-5.56-4.15-9.23-6.95-12.1-12.1-3.52-6.3199-1.63-8.5699-4.28-12.8199-7.1-11.4102-29.54-9.3701-30.62-9.26-14.19,1.45-16.44,8.0999-26.35,6.4099-8.53-1.46-17.65-8.24-19.22-16.38-.22-1.12-.27-2.17,2.01-9.0399,3.87,3.22,8.36,5.48,13.72,5.8199,4.08.25,8.72-.61,18-2.35,13.5699-2.53,17.31-4.89,24.2599-6.26,14.68-2.9,31.33,1.01,43.05,8.61,15.44,10.02,14.1299,21.15,28.17,25.83,5.78,1.92,7.7.6001,26.61-1.5699,35.58-4.08,41.7-.88,50.87-7.83,8.21-6.2101,4.37-9.5701,15.65-24.26,5.45-7.0901,17.14-22.3,36-28.9501,16-5.65,19.57,1.0699,33.65-5.48,18.23-8.48,25.71-25.98,26.61-28.1801,5.34-13,.17-16.2,3.92-28.95,7.7-26.24,37.56-39.8201,44.08-42.78,19.5099-8.8799,24.04-3,41.74-13.5699,15.9-9.49,24.66-21.63,28.18-26.61,7.05-9.98,12.91-18.29,13.04-29.74.08-7.55-2.42-8.3501-5.22-24.52-1.5-8.67-2.69-15.5901-2.09-23.48.75-9.66,3.79-15.51,9.4-27.65,3.78-8.1901,6.6-14.62,8.75-19.7101,1.33,4.16.82,8.6801.34,12.6501-.7599,6.22-2,6.5999-2.49,10.6799-.99,8.1899,3.4,11.7,8.18,23.86,5.78,14.65,1.94,16,7.13,24.2101,3.58,5.6699,4.75,3.99,17.09,16.3799,10.8,10.8401,13.01,15.25,14.24,18.51.87,2.3,2.87,7.8101,2.14,14.96Z"/>
      <path class="cls-9" d="M268.8145,297.7098c-2.986-1.7697-6.7687-1.3086-9.3913,0-5.2858,2.6376-7.5046,9.5398-5.4783,14.8696,1.5032,3.954,5.5865,7.6842,10.174,7.4347,3.1871-.1733,5.332-2.1976,5.8696-2.739,4.8439-4.8789,4.8829-15.9758-1.174-19.5653Z"/>
      <path class="cls-9" d="M347.3362,331.8837c-4.8496-2.892-10.8339-.7028-14.0869,2.0869-5.7358,4.9186-7.1844,15.3082-2.087,19.8262,3.6063,3.1963,9.2606,2.3649,12.5217,1.0435,4.5464-1.8422,8.6147-6.3275,8.8696-12,.0251-.5599.2321-7.7068-5.2174-10.9565Z"/>
      <path class="cls-9" d="M298.9449,366.5794c2.5913-5.0172.2175-12.5092-5.4783-14.4783-4.9654-1.7166-10.3748,1.4835-12.5217,5.8695-1.7167,3.5071-1.6604,8.4111,1.174,11.3479,4.2704,4.4247,13.7399,3.2362,16.826-2.7391Z"/>
      <path class="cls-9" d="M336.9015,420.7751c2.7527-3.9303,2.087-9.9738-1.3696-13.5-4.249-4.3347-10.6515-2.7598-12.3261-2.3479-4.2558,1.0469-10.808,4.5927-10.7609,9.7826.0493,5.4316,7.2909,8.7124,8.413,9.1957,3.4415,1.4822,6.4453,1.2527,7.2391,1.174,1.5882-.1575,6.2218-.6169,8.8044-4.3043Z"/>
      <path class="cls-9" d="M287.5971,437.0141c3.8132-4.048,4.067-11.1813.587-14.2826-4.2984-3.8306-14.0147-1.2614-16.2391,5.087-1.4282,4.0759.1736,9.8761,4.6957,11.9347,4.0493,1.8434,8.5428-.1769,10.9565-2.7391Z"/>
      <path class="cls-9" d="M492.4449,181.2968c-2.4344-3.2455-7.1496-3.1449-7.826-3.1305-3.663.0781-8.5675,2.0486-10.174,6.8478-1.6116,4.8146.9304,9.9834,4.8913,12.1305.4958.2688,3.613,1.8978,7.0435.7826,6.1827-2.01,9.7286-11.7465,6.0652-16.6304Z"/>
      <path class="cls-3" d="M398.9884,75.4489c-2.5035-3.7046-8.1191-4.2329-12-2.6086-.6711.2809-5.367,2.3369-6,7.0435-.551,4.0967,2.3297,7.573,5.2173,9.1304.6554.3535,3.8795,1.9933,7.3044.7827,5.2441-1.8535,8.6945-9.5889,5.4783-14.3479Z"/>
      <path class="cls-3" d="M428.6623,124.362c-.4689-1.084-1.9036-4.4004-5.2826-5.2826-3.5254-.9204-6.9205,1.3953-8.6087,3.7174-.2628.3615-3.152,4.4756-1.174,8.6086,2.0425,4.2677,7.3206,4.4728,8.0218,4.5,1.0743.0417,4.3364.1685,6.4565-2.1522,3.0923-3.3849.8461-8.7922.587-9.3912Z"/>
      <path class="cls-3" d="M317.5597,61.6615c-3.1588-1.4234-7.8774-.8355-9.9131,2.3478-2.157,3.373.0576,7.5347.5218,8.3478.5153.9026,2.6622,4.3149,6.7826,4.6957.3113.0287,4.3718.345,6.5217-2.3478,2.8811-3.6086.9275-10.8623-3.913-13.0435Z"/>
      <path class="cls-3" d="M277.2972,88.6641c4.3688-1.5038,9.4015-5.9512,8.9102-11.2861-.5568-6.0451-7.7968-8.7857-8.9102-9.2073-4.1319-1.5642-11.5929-2.3513-15.7412,2.6731-2.2472,2.7218-3.1315,6.6755-2.0791,10.0981,2.0522,6.6741,11.0737,10.0442,17.8203,7.7221Z"/>
      <path class="cls-3" d="M238.2928,34.9489c-.8987-2.5661-3.7122-4.6653-6.4565-4.1086-2.8499.5781-3.9636,3.6832-4.1087,4.1086-1.1678,3.4226.3818,8.2527,3.5218,9,2.371.5643,4.7523-1.4125,5.8696-2.9348.4754-.6477,2.1783-3.1973,1.1739-6.0652Z"/>
      <path class="cls-3" d="M205.0319,69.4998c-.9509-.372-5.1804-1.845-8.6087.8804-2.0746,1.6493-3.2615,4.3636-2.9348,7.0435.4985,4.0878,4.3254,6.5104,7.4348,7.0434.7168.1229,3.3634.5349,5.8696-1.076,2.6707-1.7167,4.4366-5.2515,3.5218-8.6087-.981-3.5999-4.4934-4.9739-5.2827-5.2826Z"/>
      <path class="cls-3" d="M236.3362,94.4272c1.5432-2.83-.4308-7.524-4.1087-9.1957-3.7278-1.6943-7.9498.2874-9.7826,3.1305-.2266.3516-2.1094,3.3655-.7826,5.8695,1.2675,2.3923,4.56,2.6123,6.4565,2.7391,1.7266.1154,6.5901.4406,8.2173-2.5435Z"/>
      <path class="cls-3" d="M151.6188,89.9272c-.5648-2.7778-2.5687-5.9917-5.8696-6.8478-4.5182-1.1718-9.543,2.5732-10.5652,7.2391-.6664,3.0416.2309,7.1008,3.5218,9.1956,3.4522,2.1974,7.9425,1.217,10.5652-1.3695,3.2805-3.2354,2.4337-7.795,2.3478-8.2174Z"/>
      <path class="cls-3" d="M137.3363,125.5359c-.0479-4.1863-3.0931-7.3781-6.2609-8.6088-4.5436-1.7653-10.559.0303-12.2609,4.174-1.5546,3.785,1.222,7.7467,1.8261,8.6086.5089.7262,4.097,5.8457,9.3913,4.9565,4.1773-.7015,7.3539-4.7974,7.3044-9.1304Z"/>
      <path class="cls-3" d="M108.771,105.5794c-1.3466-.7565-3.3473-.4468-4.3044,1.0435-.9166,1.4274-.4693,3.3046.7826,4.3043,1.2995,1.0377,3.228.9398,4.3044-.1304,1.4267-1.4185,1.0163-4.2069-.7826-5.2174Z"/>
      <path class="cls-3" d="M91.0319,143.9272c-.5011-.8484-2.2652-3.8354-5.2174-3.7826-3.0321.0543-4.7019,3.2682-4.9565,3.7826-.8101,1.6366-1.4464,4.536.1304,6.5217,1.2055,1.5182,3.0921,1.7312,5.0869,1.9565,2.0294.2292,4.0795.4608,5.3478-.7826,1.8407-1.8044.8651-5.5684-.3913-7.6957Z"/>
      <path class="cls-3" d="M63.771,162.5141c-.9099-2.4504-3.5787-4.1091-6.2609-3.7173-3.6958.5399-4.8143,4.5929-4.8913,4.8912-.5571,2.1588-.2399,5.4739,2.1522,6.8479,2.5319,1.4543,5.497-.3523,5.8695-.587,2.049-1.2915,4.295-4.2986,3.1305-7.4348Z"/>
      <path class="cls-3" d="M70.8856,202.8184c-.643-2.5789-3.084-4.299-5.4783-4.6956-2.3009-.3812-4.5693.4581-6.0652,1.9564-2.2287,2.2323-3.135,6.3206-.9782,9,1.8727,2.3264,5.1853,2.5106,7.4348,1.7609,3.1739-1.0579,5.953-4.5486,5.087-8.0217Z"/>
      <path class="cls-3" d="M52.3898,310.6228c-2.5639-2.2181-6.3992-2.7622-9.3913-1.174-4.1784,2.218-5.4663,7.9333-3.3261,11.9348,1.6188,3.0266,5.2988,5.2596,9,4.5,3.7318-.766,5.4139-4.1495,5.6739-4.6957,1.5212-3.1956,1.2582-7.7841-1.9565-10.5652Z"/>
      <path class="cls-3" d="M54.771,277.362c-.1176-2.5228-2.6944-5.0305-5.6739-4.6957-2.3684.2661-4.3176,2.2527-4.5,4.6957-.1702,2.2784,1.2375,4.4023,3.1304,5.0869,3.1204,1.1285,7.1974-1.7854,7.0435-5.0869Z"/>
      <path class="cls-3" d="M62.7275,379.8837c1.1079-2.5488-.3457-5.7871-2.6087-7.3043-3.1333-2.1007-8.2324-1.1794-9.6522,2.0869-1.1079,2.5488.3457,5.7871,2.6087,7.3043,3.1333,2.1007,8.2325,1.1794,9.6522-2.0869Z"/>
      <path class="cls-3" d="M36.3797,361.4924c-.9206-2.0956-4.3279-3.0719-6.6522-1.6956-1.4002.8291-2.5805,2.6146-2.2174,4.5652.4065,2.184,2.5597,3.5649,4.4348,3.5217,3.0507-.0704,5.5228-3.9144,4.4348-6.3914Z"/>
      <path class="cls-3" d="M51.725,226.2968c-1.769-.8693-4.283.3623-4.8913,2.1521-.7997,2.353,1.7935,5.3783,3.9131,5.087,1.5746-.2163,2.817-2.2533,2.7391-4.1088-.0073-.1733-.1304-2.3292-1.7609-3.1304Z"/>
      <path class="cls-9" d="M246.9015,218.9272c-4.3047-4.7332-12.6358-3.1425-16.9565-1.3043-1.9963.8492-7.182,3.0553-8.8696,8.3478-2.4185,7.5847,4.6365,14.3307,5.2174,14.8696,3.6827,3.4167,10.6501,6.7863,15.913,3.913,4.0198-2.1947,5.0634-6.9493,6-11.2173.9749-4.4423,2.3293-10.6134-1.3043-14.6088Z"/>
      <path class="cls-9" d="M95.858,441.188c-2.2429-5.8116-9.672-9.1541-15.9131-7.3043-4.5033,1.3347-9.5395,5.7139-9.1304,11.2174.5167,6.9515,9.2637,9.5432,9.6522,9.6521,4.8787,1.368,11.9597.4082,14.8696-4.6956,2.3054-4.0435.697-8.4155.5217-8.8696Z"/>
      <path class="cls-1" d="M553.5032,286.8145c-.91,8.8301-5.45,14.9001-7.13,17.0901-4.95,6.46-7.45,5.1899-10.68,10.6799-2.7,4.6001-2.99,9-3.56,17.8-.16,2.53-.12,3.38,0,14.96.15,14.24.11,15.55-.71,17.8-2.33,6.39-5.55,5.49-9.97,12.8201-1.04,1.73-7.07,11.73-4.98,22.7899,1.59,8.4501,6.27,8.7101,7.12,17.09.11,1.1001,1.06,11.8601-5.46,17.0901-2.31,1.85-6.29,2.5-14.25,3.7999-8.53,1.39-8.33.52-11.39,1.66-8.65,3.22-13.15,11.28-14,12.8201-.66,1.1699-1.63,3.5499-3.56,8.2999-2.97,7.2899-2.59,7.27-3.8,9.74-3.03,6.1801-7.2,10.03-10.21,12.8099-1.86,1.7201-4.97,4.5601-9.73,7.1201-3.85,2.08-5.81,2.3699-8.78,3.5699-1.48.58-12.88,5.3099-18.52,15.66-2.59,4.75-3.2599,9.3799-4.27,16.3799-1.32,9.0701-.14,12.05-2.85,14.9601-4,4.2899-11.66,3.28-14.96,2.84-8.13-1.0699-9.08-4.55-19.94-7.83-4.61-1.39-3.08-.35-14.95-2.85-12.33-2.5901-14.68-3.8601-17.8-2.13-.92.5-1.34.95-7.84,10.6801-4.49,6.72-4.69,7.1099-5.69,7.8298-6.54,4.6901-16.13,1.0901-17.09.7101-4.55-1.78-3.63-3.17-9.26-6.41-8.47-4.87-17.25-5.58-20.65-5.6899-2.83-.0901-9.26,0-9.26,0,0,0-1.99.1899-4.41.47-2.42.27-5.27.63-6.98.95-9.59,1.8201-10.6,7.8101-19.94,12.1101-.63.2899-11.53,5.1299-23.5,2.1299-7.17-1.7899-12.71-5.8899-22.08-12.8099-5.47-4.0499-8.35-6.87-14.24-8.5499-3.33-.9501-6.21-1.1301-11.4-1.42-9.42-.54-10.37.46-14.95,0-8.69-.88-14.8-5.4401-22.79-11.4-5.56-4.15-9.23-6.95-12.1-12.1-3.52-6.3199-1.63-8.5699-4.28-12.8199-7.1-11.4102-29.54-9.3701-30.62-9.26-14.19,1.45-16.44,8.0999-26.35,6.4099-6.04-1.03-12.37-4.73-16.1-9.6899,2.8.74,5.87,1.3799,9.22,1.83,3.61.49,8.6,1.13,15.13.52,14.74-1.37,16.59-7.17,28.18-8.35,9.83-.99,22.54,1.76,30.26,9.9199,5.52,5.8301,3.14,8.79,9.39,16.17,2.2,2.61,10.28,11.42,22.4301,13.5599,12.43,2.2001,15.72-4.95,29.74-2.6,8.17,1.36,7.84,3.92,17.22,5.7401,11.05,2.1299,20.14.2599,25.56-.9202,13.87-3,14.5-6.8999,30.53-12.9099,16.42-6.16,29.32-10.99,41.08-5.87,10.58,4.6,12.47,13.88,20.7401,13.2999,4.27-.2899,7.93-3.72,15.2599-10.5599,9.88-9.22,12.55-15.1901,18-14.87,2.6801.1599,2.65,1.63,7.83,3.9099,6.73,2.9601,12.76,3.0901,16.04,3.1301,7.08.09,14.68.1799,18.79-4.6901,2.55-3.0399,1.05-4.7699,3.52-10.96,2.34-5.87,5.78-9.51,10.56-14.4801,8.9-9.24,10.7599-7.1599,14.87-12.9099,5.61-7.85,1.9-11.37,7.44-21.13,1.94-3.4301,6.69-11.8099,15.65-15.26,8.87-3.42,13.95,1.04,20.74-3.92.88-.6399,5.81-4.3699,6.65-10.1699.58-4.01-1.29-5.62-2.22-12.91-.1801-1.42-.8701-5.76-.26-9.65,1.23-7.8199,5.68-13.1299,9.39-17.22,7.2401-7.99,14.72-9.64,17.22-17.74,1.12-3.62-.24-5.6,0-10.4399.52-10.26,1.41-27.9301,11.22-44.0801,4.54-7.48,9.12-11.5601,8.08-18-.45-2.85-1.87-4.95-4.69-9.13-4.85-7.2-7.93-8.0699-11.48-14.09-2.47-4.2-3.4-7.87-3.91-9.91-1.83-7.26-1.08-13.51,1.3-24.5199.5-2.3201.97-4.5,1.42-6.55.77,1.6499,1.58,3.49,2.41,5.59,5.78,14.65,1.94,16,7.13,24.2101,3.58,5.6699,4.75,3.99,17.09,16.3799,10.8,10.8401,13.01,15.25,14.24,18.51.87,2.3,2.87,7.8101,2.14,14.96Z"/>
      <path class="cls-1" d="M425.5971,336.8403c-4.8402-.6761-11.1356.9673-14.3478,6.2609-3.2882,5.4189-2.3539,13.0292,2.0869,16.6957,3.2329,2.6692,7.3392,2.4351,8.8696,2.3478,5.5948-.319,9.171-3.714,10.174-4.6957,1.4362-1.4058,5.9171-5.7916,4.9565-11.2174-.9879-5.5796-7.1079-8.7443-11.7391-9.3912Z"/>
      <path class="cls-1" d="M483.2493,342.5141c-.0848-.7433-.9115-7.9866-5.8696-9.5869-4.4728-1.4436-9.5741,2.5874-11.5435,6.8479-1.5029,3.2513-2.0916,8.6039,1.174,11.739,4.2441,4.0747,12.4847,1.9907,15.2609-2.5435,1.4457-2.3612,1.1489-4.9612.9783-6.4565Z"/>
      <path class="cls-1" d="M502.6841,308.9272c.8403-2.2402-.4477-4.6198-1.8261-5.8695-2.0527-1.8611-5.7619-2.5365-8.0869-.3914-1.7175,1.5846-2.3031,4.3608-1.174,6.5217,1.3073,2.5017,4.2007,2.8159,4.6957,2.8696,2.1323.2314,5.406-.5037,6.3913-3.1305Z"/>
      <path class="cls-1" d="M439.0319,406.8837c-.2963-5.9028-5.6425-9.9696-10.5652-10.9565-4.546-.9114-10.1452.5203-13.3043,5.0869-2.9794,4.3068-3.23,10.5946.3913,14.8696,4.0681,4.8025,10.7756,4.4124,14.8696,2.7391,3.9374-1.6093,8.9061-5.8147,8.6087-11.7391Z"/>
      <path class="cls-1" d="M390.1189,387.3185c-2.5782-1.598-6.2197-.5592-7.4348,2.1521-1.107,2.4701.1877,5.4628,2.5435,6.6522,2.0524,1.0364,4.7756.636,6.2609-1.174,1.8422-2.2449,1.2471-6.0085-1.3696-7.6304Z"/>
      <path class="cls-1" d="M395.3362,470.1446c2.2443-2.1333,3.4769-5.6259,2.6087-8.8695-1.3076-4.8854-6.8215-7.1179-10.9565-6.7827-.8803.0714-3.2444.2963-5.2174,2.087-3.2313,2.9329-4.0809,8.8564-1.0435,12.7826,3.5378,4.5731,10.7862,4.416,14.6087.7826Z"/>
      <path class="cls-1" d="M319.8797,444.8403c-2.2681-2.8912-7.0467-3.0187-10.174-.9783-3.1077,2.0276-4.8789,6.3881-3.1304,9.9783,1.3016,2.6727,4.3488,4.4976,7.4348,4.1086,3.7078-.4673,5.4502-3.8754,5.8696-4.6957.267-.5222,2.552-5.1599,0-8.413Z"/>
      <path class="cls-1" d="M352.5536,482.6989c-.4338-1.8334-2.3753-3.007-4.2065-3.0326-1.8241-.0255-3.6828,1.0858-4.3043,2.9348-.4802,1.4285-.2165,3.2808,1.0761,4.4021,1.4154,1.2278,3.2444.8676,3.6196.7827,2.1282-.4816,4.3756-2.7185,3.8152-5.087Z"/>
      <path class="cls-1" d="M280.1623,493.9489c1.9492-2.9108.3569-7.4482-2.5435-8.8043-2.2173-1.0367-4.5824.0742-5.674.5869-.5513.259-4.9499,2.3251-4.6956,5.4783.2413,2.9916,4.4612,4.366,4.8913,4.5.2653.0826,5.7086,1.6935,8.0217-1.7609Z"/>
      <path class="cls-1" d="M231.8362,507.4489c-.1199-2.4435-2.4907-4.38-4.8913-4.6957-2.4465-.3217-5.3624.9823-6.0652,3.5219-.7902,2.8555,1.5782,5.9694,4.5,6.4564,3.2454.541,6.6051-2.2537,6.4565-5.2826Z"/>
      <path class="cls-1" d="M159.4449,491.4054c-.5128-2.8374-4.7839-4.8068-8.0217-3.5217-3.0286,1.202-4.9243,5.1606-3.5217,7.6304,1.1548,2.0334,4.1432,2.3488,6.0652,1.9565,2.9313-.5981,5.9655-3.3691,5.4782-6.0652Z"/>
      <path class="cls-1" d="M377.9884,419.9924c-2.0122-.1622-4.002,2.1627-3.5218,4.3044.4271,1.9049,2.7141,3.2452,4.5,2.5435,1.3686-.5378,2.0266-2.1113,1.9565-3.424-.0881-1.6503-1.3487-3.296-2.9348-3.424Z"/>
      <path class="cls-2" d="M394.0319,506.4706c-1.9836-.4232-4.739.2136-5.674,2.1522-1.1478,2.38.9705,5.6392,3.5218,6.8478,2.4587,1.1647,5.9733.7346,7.0435-1.1738,1.3521-2.4111-1.2696-7.0535-4.8913-7.8262Z"/>
      <path class="cls-2" d="M441.3797,467.438c-2.302-1.5813-5.9351-1.1598-7.5327,1.174-1.9695,2.877.6168,6.5233.7827,6.75.2614.3569,2.603,3.4608,5.4782,2.7391,2.4297-.6099,3.374-3.4832,3.5218-5.1848.0356-.41.2709-3.7466-2.25-5.4783Z"/>
      <path class="cls-2" d="M466.2275,428.7968c-2.1542-1.8243-5.3519-2.3544-8.0217-1.174-3.604,1.5935-5.6948,6.0602-4.3043,9.3912,1.4349,3.4376,5.877,3.9884,6.8478,4.1088,1.1164.1384,4.7394.5876,6.8478-1.7609,2.4208-2.6967,1.7812-7.897-1.3696-10.5652Z"/>
      <path class="cls-2" d="M349.8145,508.1011c-2.1784-.8938-5.559.5673-6.6522,3.3912-.8555,2.2101-.2658,5.1404,1.9565,6.5217,1.8987,1.1803,4.4091.8693,5.8696-.3912,2.77-2.3907,1.8568-8.2782-1.174-9.5217Z"/>
      <path class="cls-2" d="M296.9884,512.9272c-2.9782-2.6735-7.8442-3.0295-10.6957-.5217-3.654,3.2136-2.9301,10.1892,1.3043,13.0435,3.0872,2.0809,8.0184,1.9563,10.6957-1.3043,2.7952-3.4043,1.7186-8.5039-1.3043-11.2174Z"/>
      <path class="cls-2" d="M188.858,518.7968c-2.4492-1.8605-6.5859-.7261-7.826,2.2173-1.1866,2.8162.6558,6.3931,3.5217,7.0436,2.0963.4758,4.2839-.7175,5.3478-2.4783,1.3161-2.1781.9425-5.2739-1.0435-6.7826Z"/>
      <path class="cls-2" d="M505.6841,360.3185c-3.5483-.0468-6.4163,3.7095-6.5217,7.3043-.0968,3.3015,2.1143,7.2283,5.7391,7.5652,3.6568.3398,6.6353-3.1703,7.0435-6.5217.4762-3.9102-2.4619-8.2977-6.2609-8.3478Z"/>
      <path class="cls-2" d="M534.6406,289.1011c-3.2044-1.5886-7.5848-.519-9.6522,2.8695-1.9244,3.1543-1.2294,7.3098,1.5652,9.6522,3.1679,2.6554,7.951,2.0735,10.4348-.7826,3.0807-3.5425,1.8284-9.6687-2.3478-11.7391Z"/>
      <path class="cls-6" d="M263.7532,420.4745c-1.92,10.4401-2.87,15.66-5.47,21.36-5.26,11.5601-13.34,18.4-18.61,22.8501-6.33,5.3599-12.15,10.28-21.43,13.0399-13.62,4.05-25.59.75-31.85-.98-3.27-.9-8-3.2001-17.5-7.4-21.15-9.35-30.9-15.1899-34.83-17.61-12.02-7.4301-15.71-11.4-17.17-13.0599-3.59-4.0801-4.58-6.51-10.04-14.4401-5.94-8.63-8.18-10.72-12.21-16.2799-6.53-9.03-15.41-21.3101-17.42-35.55-1.6-11.42,3-11.4,4.81-29.3401.36-3.5699.52-7.0699.54-10.45,1.64,5.79,2.88,13.79,3.11,20.66.31,9.24-1.4,11.5699.39,18,2.56,9.2,8.96,14.89,15.2599,20.35,10.1801,8.8201,15.73,9.74,27.39,17.22,13.89,8.89,11.82,11.92,24.66,20.3401,8.88,5.83,17.11,11.1,28.95,12.53,5.44.6499,15.6801,1.8799,25.44-3.9202,8.32-4.95,11.87-12.3899,16.04-21.1299,3.19-6.6801,7.2-15.0801,6.65-25.8201-.58-11.58-5.73-11.52-8.21-25.05-2.54-13.7999,2.49-15.6199,0-33.2599-.63-4.4401-1.86-9.35-4.31-19.17-2.37-9.49-3.6-14.35-5.87-19.5701-1.78-4.0798-4.1801-8.0699-9-16.0399-5.47-9.0599-7.33-11.1801-9.39-16.83-2.24-6.14-2.77-11.0801-2.87-12.1301-.39-3.9399-1.32-13.3899,3.46-22.5,3.56-6.7999,10.66-14.0999,17.4901-16.6199-4.96,3.73-7.9,7.6399-9.6801,10.0499-4.41,5.9601-9.71,13.13-9.4,22.4901.22,6.5898,3.12,11.22,7.55,18.2699,5.01,7.99,7.58,8.92,14.73,17.6801,5.15,6.29,11.87,14.52,16.63,25.96,4.64,11.16,2.18,12.8,7.14,23.13,3.26,6.7899,4.66,6.7899,13.27,19.41,17.03,24.95,17.26,43.8,11.75,73.8099Z"/>
      <path class="cls-6" d="M476.5532,276.1846c-1.62,3.96-8.39,19.23-24.54,28.97-9.76,5.8899-18.4901,7.08-35.41,9.37-3.66.5-4.16.45-32.01,1.85-24.03,1.21-26.36,1.38-31.71.62-14.9901-2.14-25.39-7.58-28.52-9.2999-7.62-4.1901-12.26-8.4001-19.32-14.8801-9.64-8.8499-19.34-17.1399-25.2-29.08-5.73-11.67-7.9-24.74-13.6-36.45-.81-1.67-1.65-3.25-2.5-4.75,4.08,1.8099,9.36,6.12,13.42,9.4399,11.23,9.16,10.52,13.88,20.35,20.6,5,3.4301,4.58,1.79,20.08,9.4,7.86,3.85,9.59,5.0699,18,9.39,12.43,6.38,18.65,9.5801,24,11.48,19.82,7.03,39.05,2.71,47.22.26,8.39-2.52,21.01-6.3,31.31-18.26,1.1-1.29,13.53-16.1399,13.56-36,.01-5.34-.89-4.6599-2.35-21.9199-.95-11.24-.7599-13.79-2.34-18-1.06-2.8-3.44-7.75-15.14-17.21-8.1-6.5601-19.68-15.9301-37.82-22.3101-11.06-3.89-13.79-2.88-21.52-7.4301-8.8-5.1801-13.89-11.5699-18-16.83-1.9901-2.55-6.34-8.11-10.28-14.24,2.93,2.08,5.22,4.1,6.91,5.6,8.9901,7.99,8.7,11.6801,16.33,17.5399,4.44,3.4202,7.85,4.7001,21.69,9.4601,29.57,10.17,27.39,8.9,32.27,11,12.07,5.1801,23.79,10.39,32.4,22.24,1.27,1.74,2.23,3.2999,8.22,16.61,9.55,21.24,14.32,31.8601,15.45,36.1101,2.3,8.6499,7.16,26.96-.95,46.72Z"/>
      <path class="cls-8" d="M165.1188,138.0577c6.425-6.4637,5.4098-8.0817,9.3913-11.7391,3.7029-3.4015,10.0842-5.1836,22.6956-8.6088,6.7795-1.8413,10.1693-2.762,12.9131-3.1304,13.2117-1.774,22.5599,1.321,26.2173,2.7391,5.3202,2.0627,9.7729,3.7892,10.5652,7.4347.9807,4.5121-4.0916,9.9144-9,12.5219-8.0918,4.2986-13.0613-.4205-28.174.3912-8.2762.4446-14.2734,2.262-22.3043,4.6957-11.818,3.5814-17.939,5.4363-24.6522,10.5652-6.6616,5.0895-7.0139,8.1371-15.2609,13.3043-.8939.5601-12.4515,7.717-14.8696,5.087-1.3146-1.4298.6078-5.17,1.3696-6.6522,1.8965-3.6898,4.3574-5.6567,12.9131-11.9348,6.3888-4.688,7.3017-5.2679,9.9783-7.4347,2.3261-1.8831,5.2299-4.2338,8.2174-7.2391Z"/>
      <path class="cls-8" d="M101.9232,204.9706c-5.8529.7332-9.3379,5.0785-12.3261,8.8044-3.9664,4.9457-5.5699,9.7977-8.0218,17.2173-2.0836,6.3052-1.3462,6.1195-3.5217,12.3262-2.6114,7.4502-4.0927,8.9124-4.6956,13.3043-.6127,4.4626.2494,7.8132,1.5652,12.7174,4.1771,15.568,10.6346,16.6749,10.5652,26.6086-.0262,3.7476-.968,6.8546.9783,10.7609.3136.6295,2.8425,5.5594,6.4565,5.674,4.5688.1448,9.1801-7.4601,9.7826-14.2826.3229-3.6564-.6819-5.0908-3.5218-15.2609-2.0849-7.4666-3.1273-11.1998-3.3261-13.1088-1.5886-15.2595,8.115-28.1998,9-29.3478,2.5117-3.2579,3.4283-3.3999,6.4565-7.6305,3.9076-5.4592,7.3087-10.3551,6.4565-16.2391-.13-.8978-.6774-4.0168-3.1305-6.8478-3.3332-3.8467-8.5052-5.2234-12.7174-4.6957Z"/>
      <path class="cls-8" d="M287.5971,115.6228c4.0555-1.8503,4.0109-2.9893,9.1304-6,2.0405-1.2,5.2771-3.1033,8.8696-4.174,6.9907-2.0834,12.9655-.3091,21.9131,2.3479,7.1423,2.1208,10.7391,3.2429,12,6.2609,1.6768,4.0135-.4401,9.9032-4.174,11.7391-3.428,1.6855-5.5792-1.3438-14.6087-3.1305-3.5289-.6982-10.2844-2.035-18-.2609-3.8146.8772-4.5328,1.7488-9.3913,2.6086-8.9391,1.582-11.4151-.5-12-1.0435-1.0258-.9531-2.3177-2.8257-1.826-4.4347.6146-2.0109,3.4631-1.8035,8.0869-3.9131Z"/>
      <path class="cls-4" d="M268.7493,40.5995c5.3821,1.5067,9.5532.822,17.7391-.5218,6.8298-1.1212,12.5803-2.0652,18.5217-6,6.0118-3.9814,5.4642-6.5514,10.1739-8.0869,8.1828-2.6679,16.3554,2.9643,16.9565,3.3913,3.1062,2.2064,4.7223,4.671,7.3043,8.6087,4.2654,6.5049,4.1133,9.119,6.5218,13.0435,6.5672,10.7007,20.2567,11.7291,19.826,13.3043-.3906,1.4286-11.6967.7549-24-3.6522-9.3679-3.3556-8.7855-5.1043-15.6522-7.3043-10.9709-3.515-14.0339.4438-33.913-.2609-10.6857-.3788-16.9213-1.775-25.3044-3.6522-14.8324-3.3212-15.606-5.6649-15.6522-6.5218-.1066-1.9771,3.2282-4.0104,6-4.6956,4.1938-1.0368,6.8915,1.0638,11.4783,2.3478Z"/>
      <path class="cls-4" d="M180.9015,63.0576c-.1317-3.0349,1.7075-5.2355,2.4783-6.1304,1.9391-2.2516,4.1859-3.0999,8.2173-4.5652,4.366-1.5869,5.2402-1.2103,8.7391-2.8696,2.7079-1.2841,4.1869-1.9855,5.3478-3.6522.8037-1.1538.7354-1.7372,1.9565-7.4348.8598-4.0117,1.1733-5.0273,1.826-6.2609.6728-1.2714,2.1349-4.0345,4.0435-3.913.8679.0552,1.7952.705,2.0869,1.5652.4864,1.4344-1.0595,2.6733-2.2173,4.6957-1.1708,2.045-1.3023,4.7982-1.5652,10.3043-.3015,6.314.3985,6.7617-.5217,8.2174-.9922,1.5695-2.3691,1.9401-9.7826,4.0435-9.5464,2.7086-10.3301,2.9642-11.6087,3.9131-4.1873,3.1073-4.9363,7.1572-6.7826,6.7826-1.4557-.2953-2.1459-3.0472-2.2174-4.6957Z"/>
      <path class="cls-4" d="M46.7493,159.7751c-.3658-3.2056-.6786-5.9467.7826-8.0219,1.677-2.3816,3.9265-1.381,11.7391-3.7173,2.5737-.7697,5.0419-1.7522,9.9782-3.7174,2.1083-.8394,4.0218-3.0549,7.0435-2.9348.5829.0232,2.0085.0798,2.3478.8478.742,1.679-4.3433,5.3213-4.5652,5.4783-1.5854,1.1216-4.0895,2.5662-7.8261,3.5217-5.847,1.4952-7.2158-.124-9.6522,1.6957-.7828.5847-2.0108,2.876-4.4348,7.4348-2.0816,3.9149-2.6506,5.1636-3.3913,5.0869-1.3908-.144-1.9232-4.8097-2.0218-5.6738Z"/>
      <path class="cls-4" d="M36.1841,262.2968c-2.587.4998-3.4341,5.4032-3.7174,7.0435-.7209,4.1735.199,6.631.9782,11.3478,1.1451,6.9315,1.8093,10.9519.587,15.2609-1.3654,4.8135-3.4707,4.2963-8.0218,12.3262-3.5162,6.2041-5.3927,9.515-4.5,13.5,1.166,5.2052,6.5671,9.3748,6.8478,9.5869,2.2019,1.6638,3.0286,1.5046,3.9131,2.9348,2.3518,3.8027-1.4181,8.2827.5869,10.3695,1.3867,1.4432,4.9626,1.145,6.4565-.5869.6885-.7982,1.3341-2.3638-1.5652-11.3479-2.3854-7.3918-3.0129-6.9222-3.3261-9.3912-.7977-6.2889,3.4921-7.6124,5.2826-16.0435.6404-3.0156-.1543-1.6885-.3913-17.6088-.1167-7.8368-.1637-11.798.3913-13.8912,1.1023-4.1576,2.775-6.6034,1.5652-9.587-.8995-2.2185-3.2069-4.2761-5.087-3.913Z"/>
    </g>
  </g>
</svg>