<?xml version="1.0" encoding="UTF-8"?>
<svg id="Capa_2" xmlns="http://www.w3.org/2000/svg" viewBox="0 0 1246.216 1275.1696">
  <defs>
    <style>
      .cls-1 {
        fill: #ffdaa9;
      }

      .cls-2 {
        fill: #f9bd5d;
      }

      .cls-3 {
        fill: #ffcb80;
      }

      .cls-4 {
        fill: #db963b;
      }

      .cls-5 {
        fill: #eaa94b;
      }

      .cls-6 {
        fill: #c17e2d;
      }

      .cls-7 {
        fill: #d1831c;
      }

      .cls-8 {
        fill: #ffb357;
      }

      .cls-9 {
        fill: #e09528;
      }
    </style>
  </defs>
  <g id="Capa_1-2" data-name="Capa_1">
    <g>
      <g>
        <g>
          <path class="cls-2" d="M1236.0899,495.3975c-.78,2.3-1.8101,4.63-3.0901,6.95-9.6699,16.41-28.3401,25.14-46.4199,31.11-19.47,8.11-40.6799,15.4-62.6799,22.28-.04.01-.0901.03-.1301.04-32.53,10.17-66.78,19.44-99.6499,29.09-.03.01-.0701.02-.1101.03-23.8398,7-46.95,14.21-68.1699,22.11-.02.01-.03.01-.05.02-.1799.11-.3601.21-.55.33-3.9199,2.34-9.8101,5.95-15.9199,10.3-.0701.05-.1499.11-.22.16-7.1401,5.11-14.55,11.23-19.4402,17.5601-.1499.1899-.2998.3799-.4399.5699-3.99,5.33-6.1499,10.78-4.8499,15.87.6799,2.64,2.2898,5.19,5.0698,7.58.01,0,.01.01.02.01,3.79,1.9,7.76,3.43,11.8401,4.58.05.01.0898.03.1399.04,5.75,1.63,11.7102,2.53,17.6902,2.72,4.98.18,9.98-.14,14.8799-.92,3.0701-.49,6.1101-1.17,9.0801-2.02,5.1699-2.82,10.74-3.91,15.9399-3.73h.04c7.1799.27,13.6799,2.96,17.5601,6.95.0098.01.02.03.04.04,3.4897,3.58,4.8599,8.19,2.7598,13.02-1.47,3.37-4.6399,6.84-9.97,10.14-.02.01-.0398.03-.0598.04-1.03.44-2.1201.8-3.2603,1.06-.1499.04-.2998.07-.45.11-5.1399,1.1299-11.3398.67-18.05-.51-.0498,0-.0999-.02-.1599-.03-8.6599-1.52-18.1599-4.24-27.3298-6.29-.0601-.01-.1301-.03-.1902-.04-10.0798-2.25-19.75-3.68-27.46-1.83-.02,0-.04.01-.0601.01-4.0598.98-7.5698,2.88-10.3098,6.05-13.8601,24.51,6.3699,53.75,24.5298,68.71.6602.56,1.3601,1.1201,2.1101,1.69.3101.2401.6199.48.9299.7,9.8301,7.24,26.4202,15.37,46.3701,24.31,32.1299,14.41,72.97,30.94,108.28,49.28.1399.07.27.14.4099.22,33.2,17.28,61.46,36.17,72.8701,56.42.0098.0099.02.03.0298.05,5.9001,10.46,7.29,21.28,2.5601,32.42-22.9199,27.37-54.8101-3.45-95.45-43.2-24.0901-23.55-51.25-50.23-81.4399-69.79-29.1001-18.86-61.01-31.1-95.7-27.55-9.3401.72-13.0701,1.24-17.4902,10.57-2.9199,6.16-47.6799,70.9399-47.7698,70.9399.48,3.44,1.4199,6.85,2.72,10.22,3.3899,8.72,9.2,17.14,15.5999,24.98.01.02.03.04.05.06,5.3401,6.53,11.0701,12.66,16.1499,18.23,6.5103,9.06,14.4902,16.93,22.6401,24.54.03.04.0601.07.0901.09,11.6299,10.8799,23.6099,21.25,32.21,33.83,0,.01.01.02.02.03,5.71,8.36,9.9299,17.7,11.5598,28.81,0,.03.0103.06.0103.09,0,.07,0,.14-.0103.21-.0398,3.86-.5,7.34-1.2898,10.46,0,.01-.01.01-.01.02-1.8901,7.36-5.6899,12.65-10.52,15.98-.02.03-.05.05-.0801.06-8.5601,5.84-20.3301,5.56-30.5601-.27-7.3499-4.18-13.9099-11.23-17.8799-20.92-7.3401-16.45-25.71-38.05-32.1301-54.88-5.97-15.67-28.1699-41.13-44.3699-47.16-12.46-4.61-18.7,4.85-30.5701,12.52-7.8699,5.51-16.1699,10.22-24.71,14.47-7.2,3.59-14.5701,6.85-21.99,9.99-10.1499,4.31-20.3999,8.39-30.45,12.78-1.8501,1.16-3.3901,3.01-4.6301,5.45-3.1499,6.17-4.46,16.16-4.3899,28.63-.01.02,0,.04,0,.06.2,35.66,11.6199,91.52,23.3,136.17,7.9399,30.32,16,55.47,20.75,65.61,2.75,7.0699,5.6399,14.47,7.5298,21.92,0,.01.0103.02.0103.03,2.4897,9.84,3.2397,19.76-.3401,29.11-1.28,3.3799-3,6.3799-5.0701,8.99-4.03,5.13-9.3799,8.79-15.3201,10.98-8.23,3.06-17.5898,3.31-26.1599.74-7.47-2.22-14.3401-6.58-19.3401-13.06v-.01c-.26-.31-.5-.63-.73-.96-8.6099-12.67-12.0898-26.51-13.21-40.9v-.04c-1.1199-14.42.1501-29.4,1.02-44.31.9001-15.1,1.3899-30.12-1.3801-44.42-.0398-.15-.0798-.31-.1099-.47-2.8799-11.81-5.55-28.07-9.0701-45.55,0-.01,0-.02-.01-.03-5.52-27.5-13.1399-58-26.8899-78.94-10.1799-15.52-23.73-25.78-42.29-25.68h-.1301c-10.1199.88-20.1899.7-30.1699-.36-.1199-.01-.25-.02-.3699-.04-.3201-.03-.6401-.07-.9602-.11-29.5898-3.35-58.3599-14.27-85.0598-27.51-.8501-.41-1.6902-.84-2.54-1.2599-1.49-.87-2.97-1.59-4.4299-2.16-.01,0-.02-.01-.03-.01-6.1201-2.4-11.95-2.3-17.47-.51-.02,0-.04.01-.05.02-10.27,3.33-19.47,12.48-27.5,22.14-5.55,6.69-10.54,13.63-14.9299,19.06-15.1902,22.17-28.3301,46.18-41.6401,70.17-11.1799,20.15-22.49,40.29-35.26,59.33-10.6599,15.9-22.3298,31.03-35.8,44.76-7.77,10.86-17.4099,18.08-27.3398,22.19-12.98,5.37-26.48,5.42-37.02,1.29-10.8201-4.24-18.53-12.89-19.3801-24.72v-.04c-.6099-8.59,2.4001-18.85,10.45-30.32,8.2102-9.88,19.3201-16.84,30.0801-23.87,17.28-12.12,43.97-34.4,69.1201-61.46,30.99-33.36,59.6399-73.97,65.4099-111.76,2.77-18.08.29-35.52-9.6699-51.2-5.98-6.09-10.4402-11.32-14.1101-15.66-5.0999-6.05-8.6499-10.39-12.5601-12.98-2.7397-1.83-5.6499-2.79-9.3999-2.89-.01,0-.02-.01-.03,0-6.8599-.17-16.5,2.54-32.9099,8.2-.6802.32-1.3401.66-2,1.01-.5701.3-1.1401.6-1.6899.92-.77.4301-1.51.8701-2.2402,1.32-4.9399,3.02-9.3198,6.53-13.1899,10.02-.6799.62-1.3499,1.24-2.01,1.85-.74.6801-1.45,1.37-2.1499,2.05-.05.06-.1001.11-.1501.15-.8298.79-1.6199,1.58-2.3899,2.35-19.9299,19.55-19.22,30.41-32.05,34.5699-.3499.1201-.72.22-1.0798.33-8.4102,2.48-15.77,1.39-21.52-1.82-4.6001-2.54-8.1902-6.45-10.48-10.97-4.5-8.84-4.05-20.04,3.3699-28.05,3.3601-3.62,8.1401-6.59,14.53-8.4,14.4099-5.75,19.1001-1.73,30.3699-5.06,6.8201-2.45,14.2202-7.2,21.1201-13.37,9.8701-8.83,18.6799-20.58,23.21-32.71.01-.05.04-.1.0601-.16,2.5601-6.94,3.72-14.01,2.8701-20.73-.0103-.0601-.02-.13-.03-.19-.4202-3.1801-1.3101-6.28-2.7102-9.25-8.6299-25.8-8.3499-68.09-45.95-64.83-37.96,4.84-76.8098,15.38-112.53,29.4-38.6599,14.92-62.3198,45.7-81.3499,80.26-9.1101,16.52-24.1101,7.53-32.3801-4.82-5.8599-8.7599-10.9099-18.75-10.3999-29.27.51-10.57,6.55-20.08,13.46-28.1,38.53-44.66,102.78-59.06,157.8101-70.74,36.3699-7.73,102.1399-16.94,87.1799-71.94-17.6101-64.71-106.6499-38.79-155.2-62.78-46.1499-12.47-47.95-67.46,6.6899-60.88,17.0901,4.08,30.76,16.4,45.1401,26.51,17.6199,12.41,37.3298,21.81,57.98,27.92,22,6.96,62.8398,21.01,68.6099-12.52,4.48-12.6,8.9302-25.73,7.53-39.04-4.05-38.28-46.3401-62.37-73.6299-83.1-6.6201-5.03-13.53-10.44-16.5601-18.18-3.02-7.7401-.24-18.3701,7.7-20.81,4.8999-1.5,10.3.5,14.27,3.74,3.97,3.24,6.8401,7.6,9.9299,11.69,24.0701,31.93,64.7,49.41,104.4001,46.3099,2.6499-.21,5.3499-.52,7.74-1.68,15.4299-7.48,16.5598-39.2599,15.76-53.42-1.1899-21.18-7.71-41.85-15.74-61.34-15.7-38.13-38.5701-73.29-63.4202-106.02-14.4399-19.01-29.6799-40.25-47.6499-56.14-7.96-7.03-16.8501-13.34-22.55-22.31-13.6299-21.38,4.8101-49.7,29.95-45.73,25.8901,4.48,37.9001,31.17,47.6899,52.78,16.55,46.46,215.2402,304.88,234.3,155.01,2.5601-20.12-4.3999-40.45-8.48-60.09-2.3398-11.23-13.3999-51.69,8.1001-51.83,3.52-.02,7,1.05,10.29,2.21,1.7898.62,3.6099,1.3,5.02,2.56,1.24,1.11,2.0798,2.6,2.7698,4.11,1.8601,4.09,2.8201,8.53,3.4602,12.98,2.73,19.13-.3101,38.5-1.4402,57.65-.7898,13.52-1.5598,28.33,3.3801,41.22,4.3401,11.34,13.96,18.16,26.02,19.29,42.1299,3.92,44.5901-8.93,45.6199-46.26,1.48-14.57,2.3901-50.41,24.96-47.65,7.1602.88,13.5103,6.53,15.2102,13.54,3.0398,12.59-7.6101,23.94-11.78,36.2-18.1602,79.85,61.0698,56.5,98.0698,22.1801,67.4402-68.47,72.0303-172.84,101.4402-259.98,4.3899-27.54,33.79-47.14,54.27-20.93,24.6799,34.22-12.77,88.81-29.29,119.42-27.71,62.87-112.5701,194.45-79.6599,257.64.0298.05.0598.11.0898.17,45.46-16.97,61.8601-34.17,69.23-50.77,6.0701-13.65,6.04-26.89,11.0601-39.24,2.9099-7.1801,7.53-14.06,16.03-20.54,12.54-4.9,28.1499,7.2,26.53,20.54-1.24,10.37-10.1899,17.77-17.49,25.23-19.79,20.18-31.1501,47.68-51.98,66.8-8.76,7.11-13.8701,13.43-16.2302,19.38-.0298.06-.0498.11-.0698.17-3.3301,8.56-1,16.39,4.24,24.79,1.55,2.4901,3.3601,5.03,5.3601,7.65,2.2798,3,4.7998,6.11,7.45,9.38,1.3799,1.68,2.78,3.41,4.21,5.19,7.7,7.15,17,10.84,26.95,11.89,17.2,1.83,36.3201-4.2,52.3701-13.73,8.6099-5.12,16.3398-11.24,22.4199-17.71.01-.02.03-.05.05-.07,5.78-7.28,7.48-12.87,15.05-16.93,3.8298-2.57,7.95-3.69,11.8298-3.57,5.79.17,11.05,3.07,14.04,7.91.03.03.05.07.0701.11,2.01,3.33,2.95,7.58,2.24,12.48-.02.12-.03.24-.05.36-.3101,1.98-.8901,4.07-1.78,6.24-2.49,5.05-6.49,6.42-22.1301,14.11-21.73,10.67-17.6899,9.81-23.98,12.2401-19.0798,7.34-24.1699,3.0099-44.22,11.29-3.3,1.61-7.8799,3.62-12.23,6.11-.02,0-.03.01-.05.03-4.8799,2.79-9.46,6.19-11.6399,10.29-1.0601,2-1.55,4.17-1.22,6.51,13.9399,29.68,55.98,31.11,98.2,25.98.03-.01.0701-.02.1101-.02,18.6599-2.26,37.3499-5.81,53.6599-8.76,15.1699-2.74,28.27-4.97,37.3601-5.17h.1299c17.1799-1.41,32.98-6.17,47.6499-13.22.04-.01.0801-.03.1201-.05,11.0801-5.33,21.51-11.95,31.4299-19.39q.01,0,.01-.01c12.52-9.41,24.21-20.14,35.3201-31.26.3899-.38.77-.77,1.1599-1.16,6.49-5.01,13.01-7.49,19.1001-7.97,12.77-1.02,23.6299,6.72,28.1599,18.26,2.79,7.1,3.1799,15.63.1301,24.44Z"/>
          <path class="cls-1" d="M884.2783,8.0145c7.5145,0,15.2817,3.6532,22.0717,12.343,24.6798,34.22-12.7699,88.8099-29.2899,119.4199-27.7101,62.87-112.5702,194.4501-79.66,257.64.0298.05.0598.11.0898.17,45.46-16.97,61.8601-34.17,69.23-50.77,6.0699-13.65,6.04-26.89,11.0599-39.24,2.91-7.1801,7.5303-14.0601,16.0303-20.54,1.9471-.7609,3.9691-1.1119,5.9883-1.1119,10.9847,0,21.91,10.3833,20.5416,21.652-1.24,10.37-10.1899,17.77-17.49,25.23-19.7899,20.1801-31.1501,47.6801-51.98,66.8-8.76,7.11-13.8701,13.4299-16.2301,19.38-.0299.0599-.0499.11-.0698.1699-3.3302,8.5601-1,16.39,4.24,24.79,1.5499,2.49,3.36,5.03,5.36,7.65,2.2798,3,4.7998,6.11,7.45,9.38,1.3799,1.6799,2.78,3.4099,4.2101,5.1899,7.6997,7.15,17,10.84,26.9497,11.89,2.0713.2203,4.1711.3268,6.2893.3268,15.4719,0,31.9637-5.6744,46.0809-14.0568,8.6099-5.12,16.3398-11.24,22.42-17.71.01-.02.0299-.05.0499-.0701,5.78-7.28,7.48-12.87,15.05-16.9299,3.6451-2.4462,7.5536-3.5787,11.2673-3.5787.1881,0,.3754.0029.5625.0087,5.7899.17,11.0499,3.0701,14.0399,7.91.0303.03.0502.0699.0702.11,2.01,3.33,2.9501,7.58,2.24,12.48-.0199.12-.0299.24-.0502.36-.3099,1.98-.89,4.0701-1.7799,6.24-2.4901,5.05-6.4901,6.42-22.13,14.11-21.7301,10.67-17.6901,9.8101-23.9801,12.24-19.0797,7.3401-24.1699,3.01-44.22,11.29-3.2999,1.61-7.8798,3.62-12.23,6.11-.02,0-.03.01-.05.03-4.88,2.79-9.46,6.1901-11.6399,10.29-1.0601,2-1.55,4.1699-1.2201,6.51,10.1718,21.6569,35.3119,28.2736,64.5591,28.2736,10.8352,0,22.2279-.907,33.641-2.2937.0299-.01.0702-.0198.1101-.0198,18.6599-2.26,37.3499-5.8101,53.6599-8.76,15.1699-2.74,28.2699-4.9702,37.3601-5.1702h.1299c17.1799-1.4099,32.98-6.1699,47.6499-13.22.04-.01.0801-.03.12-.0499,11.0801-5.3301,21.51-11.9501,31.4299-19.39q.01,0,.01-.01c12.52-9.41,24.21-20.14,35.3201-31.26.3899-.38.77-.77,1.1599-1.16,6.49-5.01,13.01-7.49,19.1001-7.97.7561-.0604,1.5056-.0901,2.2473-.0901,11.7866-.0001,21.6506,7.4933,25.9126,18.3501,2.79,7.1,3.1799,15.63.1301,24.4399-.78,2.3-1.8101,4.63-3.0901,6.9501-9.6699,16.4099-28.3401,25.1399-46.4199,31.1099-19.47,8.1101-40.6799,15.4001-62.6798,22.28-.04.01-.09.03-.1301.04-32.53,10.1699-66.78,19.4399-99.6499,29.0901-.03.01-.0702.02-.1101.03-23.8398,7-46.9498,14.21-68.1699,22.1099-.0199.01-.0299.01-.0502.02-.1798.1101-.36.21-.5499.3301-3.9198,2.3398-9.8101,5.95-15.9198,10.3-.0702.0498-.15.1099-.2201.1599-7.1401,5.1101-14.5502,11.23-19.4402,17.5601-.1499.1899-.2998.3799-.4399.5698-3.99,5.3301-6.1498,10.78-4.8499,15.8701.6798,2.6399,2.2898,5.1899,5.0698,7.5801.01,0,.01.01.02.01,3.79,1.8999,7.76,3.4299,11.84,4.5798.0502.01.0901.03.14.04,5.75,1.6301,11.7102,2.53,17.6902,2.72.9031.0327,1.8075.0491,2.7112.0491,4.0796,0,8.1573-.3306,12.1687-.969,3.0702-.49,6.1101-1.1699,9.0801-2.02,4.808-2.6226,9.9625-3.749,14.843-3.749.3674,0,.7328.0063,1.0968.019h.0403c7.1798.27,13.6798,2.96,17.5599,6.95.0099.01.02.03.04.04,3.4897,3.5801,4.8597,8.1899,2.7598,13.02-1.47,3.3699-4.64,6.8401-9.97,10.1399-.02.01-.0398.03-.0598.04-1.03.4399-2.1202.8-3.2601,1.0601-.15.04-.2999.0701-.4501.1101-2.0498.4507-4.2692.6484-6.6213.6484-3.5458,0-7.3945-.449-11.4286-1.1584-.0499,0-.1001-.02-.16-.03-8.6598-1.52-18.1598-4.24-27.3298-6.29-.0601-.01-.1301-.03-.1902-.04-6.8486-1.5288-13.5085-2.679-19.4927-2.679-2.8232,0-5.4958.2559-7.9673.8489-.02,0-.04.01-.0601.01-4.0598.98-7.5698,2.8801-10.3098,6.05-13.8601,24.51,6.3699,53.75,24.5298,68.71.6603.5601,1.3601,1.1201,2.1101,1.6899.3102.2402.62.4802.9299.7002,9.83,7.24,26.4202,15.3699,46.3702,24.3098,32.1298,14.4102,72.9697,30.9402,108.2799,49.28.1399.0701.27.1401.4099.22,33.2,17.28,61.4598,36.1702,72.87,56.4202.0098.01.02.03.0298.05,5.9001,10.46,7.29,21.2798,2.5601,32.4199-6.0701,7.2483-12.7725,10.4167-20.0964,10.4167-20.3315,0-45.4762-24.3938-75.3534-53.6167-24.0901-23.55-51.25-50.23-81.4398-69.79-25.7131-16.6648-53.6251-28.1611-83.7052-28.1624-3.9623-.0002-7.9572.1992-11.9949.6123-9.3402.72-13.0699,1.24-17.4901,10.5701-2.92,6.1599-47.6801,70.9399-47.7699,70.9399.48,3.4399,1.4198,6.8501,2.72,10.22,3.3899,8.72,9.1998,17.1401,15.5999,24.98.01.02.03.04.05.0601,5.3402,6.53,11.0702,12.6599,16.15,18.23,6.5101,9.0601,14.4901,16.9299,22.6399,24.54.0303.04.0602.0701.0902.0901,11.6299,10.8799,23.6099,21.25,32.2101,33.8298,0,.01.0099.02.0199.03,5.7101,8.3601,9.9298,17.7,11.5598,28.8101,0,.03.0103.0601.0103.0898,0,.0701,0,.1401-.0103.2102-.0398,3.8599-.5,7.3398-1.2898,10.46,0,.01-.01.01-.01.02-1.8901,7.3599-5.6899,12.6499-10.52,15.98-.0199.03-.0502.05-.0801.0601-4.1792,2.8511-9.1237,4.2437-14.2803,4.2437-5.4055,0-11.0443-1.53-16.2798-4.5137-7.3499-4.1802-13.91-11.23-17.8798-20.9202-7.3402-16.45-25.7101-38.0498-32.1302-54.8799-5.97-15.6699-28.1699-41.1301-44.3698-47.1602-2.2747-.8416-4.3439-1.2144-6.2761-1.2146-8.6517-.001-14.5909,7.4648-24.2941,13.7346-7.8699,5.51-16.1698,10.2202-24.7101,14.4702-7.1998,3.5898-14.5699,6.8499-21.99,9.99-10.1498,4.3098-20.3998,8.3899-30.4498,12.7798-1.8501,1.1602-3.3901,3.01-4.6301,5.4502-3.1498,6.1699-4.46,16.1599-4.3898,28.6299-.01.02,0,.04,0,.0601.1997,35.6599,11.6198,91.52,23.2999,136.1699,7.9401,30.3201,16,55.47,20.75,65.6101,2.75,7.0698,5.6399,14.47,7.5298,21.9199,0,.01.0103.02.0103.03,2.4897,9.8401,3.2397,19.76-.34,29.1101-1.2803,3.3799-3,6.3799-5.0702,8.99-4.03,5.1299-9.3799,8.7898-15.3201,10.98-4.4767,1.6646-9.2877,2.4976-14.124,2.4976-4.0549,0-8.1274-.5857-12.036-1.7576-7.4697-2.22-14.34-6.5801-19.34-13.0601v-.01c-.26-.3101-.5-.6301-.73-.96-8.6099-12.6702-12.0898-26.51-13.21-40.9001v-.0398c-1.1199-14.4202.1501-29.4001,1.02-44.3101.9001-15.1001,1.3899-30.1201-1.38-44.4202-.0399-.1499-.0798-.3098-.1101-.47-2.8798-11.8098-5.5499-28.0698-9.0699-45.5498,0-.01,0-.02-.01-.03-5.52-27.5-13.1398-58-26.8898-78.9402-10.1304-15.4438-23.6011-25.6794-42.022-25.6807-.0905,0-.1776.0002-.2682.0007h-.13c-4.3602.3792-8.7114.5618-13.0498.5618-5.7311,0-11.4401-.3184-17.1202-.9216-.1199-.01-.25-.02-.3699-.04-.3202-.03-.6401-.0701-.9601-.1101-29.5901-3.3499-58.3601-14.27-85.0598-27.51-.8502-.4099-1.6902-.8398-2.5403-1.26-1.49-.8699-2.9697-1.5898-4.4298-2.1599-.01,0-.02-.01-.0299-.01-3.2103-1.2588-6.3417-1.8298-9.3893-1.8301-2.7626,0-5.4562.469-8.0808,1.3201-.02,0-.0399.01-.0499.02-10.2703,3.3301-19.4701,12.48-27.5,22.1399-5.5502,6.6902-10.5402,13.6301-14.9301,19.0601-15.1902,22.1699-28.3302,46.1799-41.6401,70.1699-11.1798,20.1501-22.49,40.29-35.26,59.3301-10.6598,15.9001-22.3298,31.03-35.8,44.76-7.77,10.8601-17.4099,18.0801-27.3398,22.1899-6.9495,2.8752-14.0487,4.2253-20.7622,4.2253-5.8257,0-11.3608-1.0164-16.2577-2.9353-10.8202-4.24-18.5303-12.8899-19.3802-24.72v-.04c-.6097-8.5898,2.4001-18.8499,10.4501-30.3201,8.2101-9.8799,19.3199-16.8398,30.08-23.8699,17.28-12.1201,43.97-34.3999,69.1201-61.46,30.9901-33.3601,59.6399-73.97,65.4099-111.76,2.77-18.0801.2899-35.52-9.6698-51.2-5.9801-6.0901-10.4402-11.3201-14.1102-15.6602-5.0999-6.05-8.6498-10.3899-12.5601-12.98-2.7397-1.8298-5.6499-2.79-9.3999-2.8899-.0067,0-.0134-.0044-.02-.0044-.0034,0-.0067.001-.01.0044-.2023-.0051-.408-.0076-.6151-.0076-6.8201-.0002-16.3687,2.7146-32.2947,8.2075-.6802.3201-1.3402.6599-2,1.01-.5702.3-1.1403.6001-1.6901.9199-.77.4302-1.51.8701-2.2401,1.3201-4.9401,3.02-9.3198,6.53-13.1901,10.02-.6799.6199-1.3499,1.24-2.01,1.8499-.74.6802-1.45,1.3701-2.15,2.05-.0499.0601-.1.1101-.1499.1501-.8298.79-1.62,1.5798-2.39,2.3499-19.9298,19.55-19.2201,30.4102-32.05,34.5701-.3499.1201-.72.22-1.0798.3301-3.1625.9324-6.177,1.3604-9.0127,1.3604-4.7054,0-8.9194-1.1775-12.5073-3.1804-4.6001-2.54-8.1902-6.45-10.48-10.97-4.5-8.8401-4.0499-20.04,3.3699-28.05,3.3601-3.6199,8.1401-6.5901,14.53-8.3999,14.4099-5.75,19.1001-1.73,30.37-5.0601,6.8199-2.45,14.2201-7.2,21.12-13.3701,9.8701-8.8298,18.6799-20.5798,23.21-32.71.01-.05.04-.0999.0599-.1599,2.5602-6.9399,3.7201-14.01,2.8702-20.73-.0101-.0601-.02-.1301-.03-.1899-.4202-3.1802-1.3099-6.28-2.7102-9.25-8.3129-24.8521-8.3627-65.0046-41.9607-65.0081-1.2816-.0002-2.6077.0581-3.9893.178-37.96,4.8398-76.8098,15.3799-112.53,29.3999-38.66,14.9202-62.3198,45.7-81.3498,80.26-3.5503,6.438-7.9962,9.0022-12.5886,9.0022-7.1918,0-14.7444-6.2852-19.7916-13.8223-5.8598-8.7598-10.91-18.75-10.4-29.2698.5101-10.5701,6.5502-20.0801,13.46-28.1001,38.53-44.6599,102.78-59.0601,157.8102-70.74,36.3698-7.73,102.1398-16.9399,87.1798-71.9399-17.61-64.71-106.6499-38.79-155.2001-62.78-43.5583-11.7698-47.5995-61.4246-1.9744-61.4246,2.7144,0,5.5962.175,8.6644.5446,17.0902,4.08,30.76,16.3999,45.1401,26.5099,17.6199,12.4102,37.3298,21.8101,57.98,27.9202,11.2041,3.5444,27.2988,8.9292,41.1549,8.9292,13.3511,0,24.6235-4.9954,27.455-21.4492,4.48-12.6001,8.9302-25.7301,7.53-39.04-4.05-38.28-46.3401-62.37-73.6299-83.1001-6.6201-5.0299-13.53-10.4399-16.5599-18.1799-3.0203-7.74-.24-18.37,7.6998-20.8101,1.1346-.3473,2.2966-.5071,3.4611-.5071,3.8638,0,7.7583,1.7574,10.8088,4.2471,3.9701,3.24,6.8402,7.6001,9.9301,11.6901,22.2351,29.4958,58.6078,46.6628,95.3186,46.6628,3.0295,0,6.0552-.1166,9.0815-.3529,2.6499-.21,5.3499-.5199,7.74-1.6799,15.4298-7.48,16.5598-39.26,15.76-53.42-1.1899-21.1799-7.71-41.85-15.74-61.34-15.7-38.13-38.5702-73.29-63.4202-106.02-14.4399-19.01-29.6799-40.25-47.65-56.14-7.9598-7.03-16.85-13.34-22.5499-22.3099-12.7581-20.0125,2.5828-46.1058,25.2151-46.1058,1.5466,0,3.1268.1218,4.7349.3759,25.8901,4.48,37.9001,31.1699,47.6901,52.7799,12.9014,36.2175,136.4895,201.2451,199.3823,201.2451,17.7865,0,30.7157-13.1949,34.9176-46.2351,2.5601-20.12-4.4-40.45-8.48-60.09-2.3398-11.23-13.3998-51.6901,8.1002-51.83.0322-.0002.0651-.0004.0973-.0004,3.4869,0,6.9327,1.0609,10.1926,2.2103,1.7899.62,3.6099,1.2999,5.02,2.5599,1.24,1.1101,2.0798,2.6001,2.7699,4.1101,1.86,4.09,2.8199,8.5299,3.4601,12.98,2.7301,19.13-.3102,38.5-1.4402,57.6499-.7898,13.52-1.5598,28.3301,3.38,41.2201,4.3402,11.34,13.9601,18.1599,26.0203,19.2899,4.7982.4465,9.082.6754,12.9076.6754,29.7642,0,31.7997-13.8569,32.7122-46.9354,1.4255-14.0337,2.3226-47.8008,22.5551-47.8008.7732,0,1.5743.0493,2.405.1509,7.1599.88,13.5101,6.5299,15.2101,13.5399,3.0399,12.5901-7.6101,23.9401-11.7799,36.2001-9.0336,39.7203,6.0323,53.9048,28.0104,53.9048,22.2046,0,51.4646-14.4768,70.0594-31.7249,67.4402-68.47,72.0302-172.84,101.4402-259.98,2.9343-18.4093,17.0476-33.2729,32.1982-33.2729M884.2784,0c-9.4969,0-18.8926,4.3295-26.4558,12.1909-6.9713,7.2458-11.7645,16.8639-13.5431,27.1476-8.4929,25.2877-15.025,52.3245-21.3431,78.4761-15.5079,64.1904-31.5425,130.5635-77.8782,177.6985-18.4794,17.0803-45.568,29.4648-64.4778,29.4648-8.1923,0-14.1793-2.2971-17.7952-6.8276-5.4943-6.8843-6.3553-19.6252-2.4957-36.8618,1.1658-3.2932,2.9491-6.6866,4.8333-10.2717,4.5812-8.7173,9.7736-18.5974,7.0179-30.0104-2.4891-10.2634-11.5446-18.3258-22.0233-19.6135-1.1445-.14-2.281-.2108-3.3824-.2108-8.0776,0-18.9794,3.6938-25.0419,21.2913-3.3944,9.8531-4.3827,21.2209-5.1044,29.5215-.1331,1.5319-.2555,2.9427-.3826,4.1929l-.0298.2937-.0081.295c-.3987,14.4501-.9819,25.9902-4.4834,32.1161-2.0857,3.649-5.9785,7.026-20.2173,7.026-3.5513,0-7.5305-.2097-12.1649-.6411-9.2637-.8678-16.1116-5.902-19.2778-14.1746-4.4058-11.4967-3.5867-25.5177-2.8641-37.8878.2738-4.6388.6732-9.4264,1.0598-14.0564,1.2269-14.701,2.4958-29.9027.3136-45.1932-.5565-3.8685-1.5852-9.6388-4.0988-15.1656-.8461-1.8517-2.2487-4.5516-4.72-6.7637-2.496-2.2301-5.3047-3.3173-7.7422-4.1616-3.8856-1.3704-8.1617-2.6519-12.8159-2.6519l-.1426.0006c-6.3677.0414-11.6733,2.5076-15.35,7.1322-8.7299,10.9801-5.7721,31.028-1.2753,51.0569.2849,1.2694.5345,2.3793.7244,3.29.932,4.4872,2.0187,9.0424,3.0696,13.4476,3.496,14.6553,7.111,29.8094,5.3058,43.996-4.9893,39.2322-21.5312,39.2322-26.967,39.2322-24.1932,0-65.1713-30.736-112.4265-84.3271-39.2083-44.4651-73.3168-94.4987-79.406-111.5929l-.1118-.314-.1377-.3038-.0991-.2189c-5.015-11.0704-10.6991-23.6177-18.684-34.212-9.8625-13.0854-21.2589-20.5889-34.8407-22.9391l-.058-.01-.058-.009c-1.9911-.3146-4.005-.474-5.9855-.474-13.6313,0-26.3,7.6598-33.0623,19.9901-6.7803,12.3635-6.3732,26.7332,1.089,38.4386,5.1034,8.031,12.074,13.8983,18.8148,19.5725,1.8063,1.5204,3.5122,2.9564,5.1879,4.4362,15.2898,13.5203,28.6274,31.2032,41.5259,48.3042,1.6951,2.2477,3.3767,4.4769,5.0474,6.6765,29.0334,38.2402,48.8591,71.3584,62.3915,104.2236,9.3604,22.7191,14.1738,41.3832,15.1489,58.7383,1.0743,19.0183-2.5051,41.5172-11.2542,45.7585-1.1722.5688-3.1321.7639-4.877.9023-2.7827.2173-5.6282.3278-8.4485.3278-34.6329,0-68.7046-16.6578-88.9188-43.4729-.538-.712-1.064-1.426-1.5907-2.1405-2.6376-3.578-5.6271-7.6333-9.6716-10.9342-4.7823-3.903-10.4208-6.0524-15.8763-6.0524-1.9928,0-3.9464.2886-5.8065.858-5.2242,1.6055-9.4993,5.3896-12.0464,10.6586-3.0709,6.3522-3.3604,14.1011-.7744,20.7285,3.9435,10.0731,12.7485,16.7633,19.1776,21.6479,4.2098,3.198,8.6686,6.4016,13.3889,9.7935,25.3394,18.2073,54.0593,38.844,57.1195,67.7684,1.1665,11.0878-2.3685,22.1729-7.1113,35.5117l-.2303.6479-.1167.6777c-1.7843,10.3696-7.6331,14.7939-19.5565,14.7939-11.8147,0-26.2228-4.5791-36.7432-7.9231l-1.9941-.6326-.0717-.0227-.0718-.0215c-20.1464-5.9609-38.8658-14.9736-55.6389-26.7871-2.835-1.9933-5.7277-4.1384-8.5251-6.213-11.8701-8.8029-24.1447-17.9056-39.369-21.5402l-.4469-.1067-.4561-.0549c-3.3174-.3994-6.5551-.6021-9.6226-.6021-11.3492,0-20.7318,2.6682-27.887,7.9307-6.856,5.0421-11.239,12.3932-12.3413,20.6992-1.3067,9.8458,1.8806,20.1697,8.9749,29.0693,7.2101,9.0452,17.7035,15.6968,30.3806,19.2683,18.462,8.8931,41.699,11.197,64.1803,13.426,19.496,1.9329,39.6558,3.9319,55.3562,10.2393,16.5521,6.6497,26.3318,17.355,30.7775,33.6909,3.1866,11.7161,2.3782,21.2412-2.4722,29.1184-11.8351,19.22-45.9279,26.1792-70.8213,31.2605-2.7194.5552-5.3373,1.0894-7.8193,1.6169-31.0941,6.5999-59.0514,12.9131-86.2956,23.3586-32.9724,12.6421-57.8049,28.9924-75.9167,49.9854-9.8429,11.4246-14.8782,22.2009-15.3969,32.9495-.6709,13.8374,6.3811,26.0955,11.7438,34.1121,7.2884,10.8845,17.1765,17.3809,26.4531,17.3809,4.6149,0,13.2988-1.708,19.6068-13.1465,15.254-27.7026,37.8135-61.446,77.2172-76.6533,36.5413-14.342,74.7289-24.3303,110.4923-28.9058,1.0787-.0894,2.1348-.1348,3.1414-.1348,18.626.002,23.5708,15.5337,29.5007,41.1133,1.4468,6.24,2.9425,12.6924,4.8593,18.4229l.15.448.2014.4272c1.0184,2.1604,1.696,4.4758,2.014,6.8821l.0181.1362.0198.1191c.6173,5.0527-.1943,10.6816-2.4127,16.7344-.0519.1294-.1.2583-.1448.3875-3.8372,10.1792-11.4796,20.8826-20.9886,29.3899-6.1407,5.491-12.6193,9.6465-18.2705,11.7219-3.6971,1.0635-6.4193,1.1187-9.8479,1.188-5.2859.1069-11.2684.2283-20.6173,3.8987-7.3115,2.1365-13.3031,5.6816-17.8146,10.5417-9.2323,9.9666-11.0507,24.542-4.6383,37.1384,3.1074,6.1343,7.864,11.1013,13.7484,14.3503,4.9559,2.7668,10.4783,4.1787,16.3812,4.1787,3.6869,0,7.4818-.5679,11.2794-1.6875l.0382-.0112.0382-.0117.2765-.082c.3379-.0991.6752-.2007,1.0018-.3113,9.6356-3.147,13.8329-9.301,18.6919-16.4243,3.5907-5.2642,8.0592-11.8154,16.4288-20.0254l.0275-.0271.0273-.0271c.6949-.6948,1.4124-1.4124,2.1417-2.1101.1641-.1484.3232-.304.4772-.4653.6332-.615,1.2255-1.188,1.8276-1.7415l.2524-.2332c.5706-.5269,1.1482-1.061,1.7336-1.5947,4.1288-3.7229,8.0549-6.7107,11.9706-9.1045.7258-.4473,1.3618-.822,1.9688-1.1611l.0607-.0339.0602-.0349c.4077-.2373.8859-.4888,1.3921-.7551.5259-.2791.9442-.4939,1.317-.6763,13.3301-4.5891,22.858-7.4709,28.7899-7.6138l.9609.0015.0479.0012c2.3895.0818,3.7471.6753,5.041,1.5396,2.7524,1.823,5.8048,5.4487,10.0295,10.4668l.8536,1.0137c3.9409,4.6602,8.2488,9.6782,13.9048,15.4817,7.9598,12.9062,10.6792,28.0417,8.0811,44.999-5.937,38.8853-37.7322,79.9319-63.3594,107.519-25.0673,26.9707-51.4047,48.803-67.7407,60.2761l-1.7699,1.1545c-10.5587,6.8813-21.4769,13.9971-29.9818,24.2314l-.2087.2512-.1874.2673c-8.603,12.2583-12.6072,24.0967-11.9044,35.1936v.0181l.0205.3269c1.0199,14.1919,10.16,26.0078,24.4501,31.6077,5.906,2.3142,12.3596,3.4878,19.182,3.4878,7.943,0,16.182-1.6716,23.8259-4.834,11.8601-4.9089,22.3673-13.345,30.4241-24.4194,12.5027-12.8054,24.3839-27.6863,36.3088-45.4736,12.7104-18.9509,23.6477-38.342,35.6113-59.9048l2.2262-4.0144c12.1851-21.979,24.7823-44.7019,38.8406-65.2556,1.87-2.3223,3.8041-4.8506,5.8475-7.5217,2.8146-3.679,5.7247-7.4832,8.816-11.209,5.8179-6.999,14.6211-16.656,23.8036-19.6335l.4257-.1379c1.7916-.5457,3.5074-.8113,5.2332-.8113,2.0625.0002,4.085.3816,6.1727,1.1653l1.3394.6697.2603.0007c.6721.3142,1.3529.6724,2.0354,1.0708l.2404.1404.2493.1233c.3024.1494.6035.3.9042.4507.5536.2771,1.1063.5537,1.663.8225,32.2533,15.9902,60.9167,25.2375,87.6278,28.2695.3206.0398.6414.0789.9622.1118.2322.0303.4287.0483.5682.0603,6.0071.6348,12.0209.9565,17.8765.9565,4.4886,0,8.9949-.189,13.3997-.5623h.0485c14.0298.001,25.5833,7.2173,35.3204,22.0618,13.3453,20.3237,20.7625,51.3564,25.7335,76.1216l.4692,2.3376.0024.0024c1.119,5.6377,2.1494,11.1135,3.1499,16.4304,1.875,9.9646,3.6467,19.3796,5.4923,26.9766.0367.1743.0742.3345.1089.4751,2.6154,13.6936,2.03,28.3494,1.2047,42.1936-.1254,2.1455-.2581,4.2822-.3907,6.4187-.7908,12.7202-1.608,25.8704-.6434,38.6753v.0046l.0242.3503c1.3635,17.5178,5.7921,31.4736,13.9158,43.8027v.1677l1.0613,1.3818c.1821.2478.3643.4849.5488.7146l.0592.0771c5.824,7.5481,13.9164,13.0276,23.4021,15.8464,4.6179,1.3848,9.4419,2.0896,14.319,2.0896,5.8712,0,11.5631-1.009,16.9171-2.9998,7.5371-2.7788,14.0553-7.4639,18.8295-13.541,2.6056-3.2852,4.7203-7.0303,6.2627-11.1023,3.6283-9.4761,3.9143-20.2634.8596-32.9241v-.9478l-.4808-.9473c-1.9817-7.5312-4.7922-14.7563-7.5137-21.7527l-.0906-.2327-.0977-.2507-.114-.2437c-4.6549-9.9368-12.7946-35.7532-20.2548-64.2405-14.2057-54.3044-22.8069-104.29-23.0364-133.842l-.0023-.4028c-.0829-14.7625,1.865-21.7109,3.5137-24.9404.5957-1.1726,1.1206-1.7778,1.4591-2.0808,5.6353-2.4502,11.4463-4.8542,17.074-7.1824,4.1096-1.7002,8.3593-3.4583,12.5413-5.2339,9.0861-3.8452,16.0077-6.9905,22.4336-10.1946,9.708-4.8313,18.0878-9.7366,25.6083-14.9919,3.1476-2.0427,5.8983-4.1702,8.3292-6.0498,5.2207-4.0371,8.3286-6.3213,11.4895-6.321,1.0499.0002,2.1935.2346,3.496.7163,13.8203,5.1448,34.3993,28.6853,39.6615,42.4973,3.7556,9.8452,10.9343,20.699,17.8767,31.1953,5.5211,8.3477,11.229,16.978,14.3776,23.9937,4.3871,10.6348,11.941,19.4111,21.283,24.7244,6.382,3.6372,13.3837,5.5613,20.2419,5.5613,6.8026,0,13.2236-1.8994,18.5875-5.4958.2098-.1326.4136-.2744.6106-.4253,6.0002-4.2366,10.3984-10.4856,12.8176-18.1831l.8843-.884.0035-2.3735c.7976-3.4783,1.23-7.1936,1.2875-11.0642.0115-.2146.0139-.4026.0139-.5623v-.6753l-.0879-.5293-.0072-.0488c-1.5619-10.6458-5.3287-20.5144-11.4949-30.0918v-.0625l-1.3984-2.0452c-.0441-.0647-.0886-.1296-.1329-.1941l-.267-.3909-.0104-.0103c-7.8977-11.3643-18.2399-20.939-28.2478-30.2046-1.4211-1.3157-2.8445-2.6335-4.2632-3.9583l-.0165-.022-.5088-.4749c-8.7864-8.2043-15.8221-15.3164-21.6012-23.3589l-.2725-.3792-.3143-.3447c-.7845-.8601-1.5845-1.7336-2.3961-2.6199-4.4709-4.8823-9.0942-9.9307-13.4716-15.2832l-.2535-.3101-.0007-.0007c-6.9098-8.498-11.5332-15.8804-14.1296-22.5593-.715-1.8533-1.2839-3.6843-1.6992-5.4673.017-.0244.0341-.0488.0511-.0737,1.2417-1.7883,3.0139-4.3499,5.1471-7.4434,2.9982-4.3474,9.032-13.1135,15.7566-22.9771,23.4478-34.3928,24.9869-37.6394,25.5664-38.8618,1.9407-4.0967,3.0165-4.6589,3.3701-4.8438,1.2307-.6431,3.8822-.8899,7.4938-1.1682l.1002-.0078.0999-.0103c3.7014-.3789,7.4625-.5708,11.1785-.5708,25.4926.0015,51.4471,8.7917,79.3466,26.8735,29.1389,18.8794,55.7803,44.925,79.2855,67.905l.9108.8904c30.6663,29.9946,57.152,55.9001,80.9557,55.9001,10.03,0,18.8589-4.47,26.2415-13.2856l.7659-.9148.4663-1.0986c5.4941-12.9397,4.5146-26.1987-2.9114-39.4097-.0498-.0911-.1011-.1809-.1538-.2698-10.8855-19.1987-35.0315-38.0789-75.9532-59.3906-.1949-.1086-.3837-.209-.5811-.3088-25.5619-13.2737-54.3304-25.7563-79.7145-36.7703-10.23-4.4387-19.8925-8.6313-28.9329-12.6858-15.5267-6.9578-34.6593-15.9099-44.8971-23.4502l-.0582-.043-.0588-.0417c-.2194-.1555-.4371-.3274-.6567-.4976l-.0302-.0234-.0304-.0229c-.6449-.4902-1.2253-.9546-1.7742-1.4202l-.0441-.0374-.0446-.0369c-13.0062-10.7144-34.3235-36.4268-23.0627-57.8213,1.3496-1.354,3.0331-2.2744,5.2206-2.8584l.1702-.0422.2864-.0686c1.7362-.4167,3.7874-.6279,6.0966-.6277,4.5702,0,10.0437.7668,17.7473,2.4863l.213.0476.0382.0063c.0057.0012.0114.0024.0171.0037,3.2996.739,6.7349,1.5889,10.0579,2.4114,5.7643,1.426,11.7224,2.9004,17.379,3.9019.1764.0374.3514.0688.5262.0945,4.814.8381,8.9449,1.2458,12.6233,1.2458,3.0562,0,5.7849-.2732,8.3418-.8354l.1764-.0386.1255-.0337.0281-.0066c.0964-.0225.1927-.0457.2891-.0696,1.5372-.3574,3.0569-.8545,4.5178-1.4785l.2217-.0947.2153-.1074.6543-.3274.334-.2502c6.2937-3.9534,10.6003-8.5166,12.8033-13.5664,3.266-7.512,1.6322-15.6653-4.3669-21.8191l-.9443-.9688-.0988-.0493c-5.4307-5.0151-13.3679-8.062-21.9948-8.3865l-.1504-.0056h-.0604c-.4075-.0125-.8164-.0188-1.2272-.0188-6.2253,0-12.3678,1.4758-17.8287,4.2766-2.4316.6655-4.9027,1.2007-7.3577,1.5925-3.6201.5762-7.2905.8687-10.9056.8687-.807,0-1.6216-.0146-2.4209-.0437-5.4222-.1724-10.7139-.9839-15.7644-2.4128-.0913-.0276-.1823-.0535-.2729-.0776-3.1628-.897-6.2444-2.0532-9.1802-3.4436l-1.1572-1.1785c-.4562-.6128-.7621-1.2168-.9141-1.8069-.5374-2.1038.7059-5.3301,3.5045-9.0686l.0156-.0208.0155-.0208c.09-.1218.187-.2429.2834-.365l.0261-.033.0259-.0334c3.7029-4.7935,9.6791-10.1575,17.762-15.9424l.1788-.1299c4.4937-3.2,9.5038-6.4417,15.3392-9.9268,18.0481-6.6958,38.7227-13.3906,66.887-21.6619.0715-.0195.1414-.0393.2081-.0591v.0002c11.7203-3.4409,23.8489-6.8994,35.5781-10.2444,21.2073-6.0476,43.1367-12.3013,64.103-18.854l.0111-.0029.2224-.0693c25.2695-7.9026,45.3274-15.0286,63.0908-22.4153,16.1812-5.3652,38.8706-14.783,50.5217-34.5552l.0576-.0978.0549-.0995c1.4854-2.6924,2.7144-5.4576,3.6528-8.2194,3.4788-10.0638,3.3899-20.7081-.2512-29.9738-5.5876-14.234-18.687-23.4331-33.3713-23.4331-.9556,0-1.9265.0388-2.8855.1155-8.0557.6349-15.918,3.87-23.3599,9.615l-.4072.3143-.364.364-.4067.4092c-.2258.2279-.4504.455-.6787.6777l-.0381.0369-.0374.0372c-12.626,12.6375-23.5779,22.3347-34.4658,30.5181l-.6116.4596c-9.8237,7.3185-19.2732,13.1543-28.845,17.8138l-.0237.006-.7357.3536c-14.7283,7.0779-29.3043,11.1459-44.5507,12.4324-9.7738.2241-23.2394,2.5304-38.5424,5.2944-1.8822.3406-3.7941.6885-5.7339,1.0415-14.5743,2.6533-31.0856,5.6589-47.3118,7.6306-.1875.0183-.3743.043-.5603.0742-12.2544,1.4797-22.8497,2.1997-32.3806,2.1997-30.1207,0-48.6553-7.27-56.579-22.2136.0571-.2281.1569-.4918.3215-.8025.7657-1.4399,2.8733-3.8477,8.5364-7.0854l.4292-.2454c2.8457-1.6038,5.851-3.0221,8.5159-4.2799.9371-.4423,1.8234-.8608,2.6385-1.2561,9.3529-3.8384,15.0319-4.636,21.0424-5.4806,5.98-.8402,12.7579-1.7924,22.7738-5.6455,3.2578-1.2585,4.3719-1.8723,6.5824-3.1412,2.3466-1.3469,6.2738-3.6011,18.0525-9.3848,2.0284-.9974,3.8569-1.8864,5.5115-2.6909,11.9486-5.8091,16.8942-8.2136,20.2744-15.0688l.1219-.2477.1047-.2555c1.0957-2.671,1.8623-5.3684,2.2792-8.017.0227-.1411.0422-.282.0601-.423l.0077-.052c.9287-6.4108-.1805-12.4919-3.2087-17.601-.1213-.2161-.25-.424-.3866-.6244-4.4026-6.9202-12.0228-11.1875-20.4514-11.4351-.2562-.0079-.5264-.0122-.7979-.0122-5.3525,0-10.6686,1.63-15.4003,4.718-6.8218,3.7592-10.0681,8.5823-13.2098,13.2496-1.172,1.7412-2.3829,3.5402-3.8574,5.4124-5.5553,5.8517-12.6067,11.3907-20.416,16.0348-14.0419,8.3374-28.9539,12.9307-41.9846,12.9307-1.8534,0-3.6842-.0948-5.4414-.2817-8.6344-.9111-16.009-4.0793-21.9349-9.4191-1.4363-1.7854-2.7032-3.3462-3.8617-4.7567-2.6085-3.2186-5.0728-6.2594-7.2799-9.1639-2.0349-2.6658-3.6466-4.9629-4.9371-7.0361-4.5161-7.2396-5.5789-12.3175-3.6433-17.4694l.1191-.3003c1.8966-4.7816,6.55-10.2025,13.8309-16.1119l.1892-.1537.1797-.1649c11.7607-10.7954,20.5646-23.9249,29.0787-36.6219,7.425-11.0735,14.4385-21.533,23.2039-30.4707.9668-.9883,1.9554-1.9668,3.0017-3.0028,7.1823-7.11,15.3228-15.1689,16.7239-26.8872.88-7.2469-1.5375-14.5229-6.8091-20.4733-5.6277-6.3525-13.7362-10.145-21.6904-10.145-3.0876,0-6.084.5592-8.9056,1.6619l-1.0474.4093-.8942.6818c-8.7981,6.7072-14.7079,14.3026-18.599,23.9033-2.6056,6.41-3.9595,12.8833-5.2687,19.1433-1.4342,6.8568-2.7887,13.3336-5.6868,19.8505-5.2528,11.8315-16.6317,27.3293-57.6664,43.7933-7.1725-19.9082-4.3204-48.1205,8.6359-85.8916,12.8109-37.3473,32.8492-76.3691,50.5287-110.7974,9.3773-18.2609,17.4855-34.0504,23.3682-47.3593,2.0024-3.699,4.3462-7.8141,6.8245-12.1649,9.0529-15.8942,20.3198-35.6753,26.5929-55.5243,7.7645-24.5684,6.1394-44.7377-4.8301-59.9475l-.0901-.1249-.095-.1215c-9.9602-12.7473-20.9346-15.423-28.3868-15.423h0Z"/>
        </g>
        <path class="cls-5" d="M1236.0899,495.3975c-.78,2.43-1.8101,4.77-3.0901,6.95-9.6699,16.41-28.3401,25.14-46.4199,31.11-20.5,6.77-41.5801,14.77-62.6799,22.28-.04.01-.0901.03-.1301.04-16.3499,5.81-32.72,11.32-48.8601,15.71-8.6699,2.36-29.0698,7.49-50.7898,13.38-.03.01-.0701.02-.1101.03-27.9299,7.58-58.01,16.39-68.1699,22.11-.02.01-.03.02-.05.03-.1799.1-.3699.21-.55.32-5.5,3.12-10.8301,6.55-15.9199,10.3-.0701.05-.1499.11-.22.16-2.8601,2.1201-5.6401,4.33-8.3401,6.66-3.95,3.42-8,6.92-11.1001,10.9-.1499.1899-.2998.3799-.4399.5699-1.4299,1.92-2.6399,3.95-3.5,6.13-1.1499,2.93-1.6899,6.14-1.3499,9.74.0398.48.0999.97.1799,1.46.24,1.46.6499,2.97,1.6201,4.07.8699.97,2.0898,1.53,3.2698,2.05.01,0,.01.01.02.01,3.8,1.66,7.77,3.28,11.8401,4.58.05.01.0898.03.1399.04,5.77,1.83,11.7302,3.01,17.6902,2.72.1599,0,.3198-.01.48-.02,4.6599-.28,9.6099-.33,14.3999-.9,3.1401-.37,6.21-.97,9.0801-2.02,5.1399-1.85,10.5498-3.4901,15.9399-3.73h.04c2.23-.1,4.45.04,6.6499.5,4.1699.88,8.1802,3.23,10.9102,6.45.0098.01.02.03.04.04,2.1899,2.61,3.5398,5.8,3.4399,9.2401-.03,1.3-.27,2.57-.6802,3.78-1.54,4.52-5.46,8.26-9.97,10.14-.02.01-.0398.02-.0598.03-1.0701.44-2.1602.79-3.2603,1.07-.1499.04-.2998.07-.45.11-4.73,1.09-9.7698.85-14.6099.14-.99-.15-2.1401-.37-3.4402-.65-.0498,0-.0999-.02-.1599-.03-6.6099-1.41-16.8401-4.24-27.3298-6.29-.0601-.01-.1301-.03-.1902-.04-9.8899-1.92-19.99-3.14-27.46-1.83-.02,0-.04.01-.0601.01-4.73.84-8.4099,2.7-10.3098,6.05-13.8601,24.51,6.3699,53.75,24.5298,68.71.7002.57,1.4001,1.14,2.1101,1.69.3101.2401.6199.48.9299.7,13.5701,10.37,29.96,17.66,46.3701,24.31,10.1499,4.12,20.3,7.99,29.8,12.17,26.3999,11.65,53.0999,23.25,78.48,37.11.1399.07.27.14.4099.22,17.45,9.54,34.28,20.16,49.9399,32.6,6.9302,5.5,16.51,14.12,22.9302,23.82.0098.0099.02.03.0298.05,6.8701,10.4,10.1001,22.05,2.5601,32.42-22.0498,30.31-65.0801-10.26-95.45-43.2-12.6699-13.72-23.1399-26.12-28.97-31.52-14.1401-13.08-32.3999-26.77-52.47-38.27-30.1001-17.26-64.25-29.59-94.6101-27.62-.3599.01-.72.05-1.0898.07-9.3401.72-13.0701,1.24-17.4902,10.57-2.9199,6.16-47.6799,70.9399-47.7698,70.9399,1.1699,1.9901,1.73,4.67,2.0598,7.02.1501,1.06.3701,2.13.6602,3.2,2.27,8.34,8.6799,16.95,15.5999,24.98.01.02.03.04.05.06,5.72,6.64,11.79,12.88,16.1499,18.23,8.02,9.83,15.3301,17.35,22.6401,24.54.03.04.0601.07.0901.09,9.0999,8.98,18.1899,17.47,28.5898,29.4,1.25,1.43,2.4602,2.91,3.6201,4.43,0,.01.01.02.02.03,6.3999,8.45,11.1099,18.31,11.5598,28.81v.09c0,.07.0103.14,0,.21.1301,3.5-.3198,7.06-1.2898,10.46,0,.01-.01.01-.01.02-1.8101,6.34-5.4302,12.13-10.52,15.98-.02.03-.05.05-.0801.06-1.8201,1.38-3.8301,2.51-6.02,3.32-8.3501,3.1-17.02,1.16-24.54-3.59-7.6899-4.84-14.1699-12.61-17.8799-20.92-7.3401-16.45-25.71-38.05-32.1301-54.88-5.97-15.67-28.1699-41.13-44.3699-47.16-12.46-4.61-18.7,4.85-30.5701,12.52-8.03,5.19-16.27,10.01-24.71,14.47-4.5901,2.42-9.24,4.73-13.95,6.94-.4199.1899-.8301.37-1.26.55-2.0801.9-4.3701,1.71-6.78,2.5-10.28,3.35-22.75,6.18-30.45,12.78-1.8501,1.58-3.4299,3.37-4.6301,5.45-.1799.3-.3398.6-.5.91-1.7,3.32-2.71,6.89-3.29,10.55-.77,4.84-.8098,9.85-.72,14.76.01.8.05,1.61.1201,2.41-.01.02,0,.04,0,.06.1899,2.48.5901,4.96,1.1799,7.43,2.53,34.5,11.53,85.05,22.1201,128.74,7.1899,29.6,15.1099,56.06,22.24,72.23,2.1299,4.81,4.3098,10.0099,6.0398,15.3,0,.01.0103.02.0103.03,4.2798,13.12,5.7698,26.75-3.3201,36.1-.6001.62-1.3,1.29-2.0901,2-3.9199,3.56-9.9199,8.05-15.3201,10.98-2.5898,1.41-5.05,2.45-7.0698,2.86-6.99,1.4-13.2302.38-19.0901-2.12-6.26-2.66-12.0901-6.99-17.95-11.84-.48-.4-.9402-.8-1.3901-1.22v-.01c-11.03-10.18-13.6099-26.17-13.9399-41.86v-.04c-.0798-3.71-.03-7.41.0601-11.01.28-11.01.75-22.14.96-33.3.3-15,.1501-30.05-1.49-44.89-.9299-8.42-2.3501-16.78-4.4299-25.02-1.3901-5.49-2.8901-12.56-4.6401-20.53,0-.01,0-.02-.01-.03-5.2998-24.13-12.9299-56.58-26.8899-78.94-10.2-16.33-23.77-27.28-42.29-25.68-.04,0-.0901.01-.1301.01-10.0698.89-20.1499.72-30.1699-.37-.1199-.01-.25-.02-.3699-.04-.3201-.03-.6301-.0601-.95-.1,0,0-.0103,0-.0103-.01-2.1099-1.43-4.5098-2.42-7.2698-2.86-26.99-4.3-53.24-12.64-77.79-24.65-.8501-.41-1.6902-.84-2.54-1.2599-1.46-.73-2.9299-1.48-4.4299-2.16-.01,0-.02-.01-.03-.01-2.77-1.25-5.6301-2.24-8.6501-2.34-3.0298-.1-5.99.7-8.8198,1.83-.02,0-.04.01-.05.02-.8801.34-1.75.72-2.6001,1.11-.1299.06-.26.12-.3899.19q-.01,0-.02.01c-.1299.06-.27.12-.4199.19-.03.02-.0701.04-.1001.06-3.0701,1.53-6.23,3.64-9.47,6.29-.51.4-1.01.81-1.52,1.27-.5.41-1.01.84-1.51,1.31-.51.43-1.03.9-1.53,1.39-1.54,1.41-3.0901,2.92-4.6199,4.53-.52.54-1.03,1.08-1.55,1.64s-1.05,1.12-1.5701,1.69c-.52.58-1.05,1.16-1.5701,1.75-.21.23-.4199.47-.6299.71-.3101.35-.6201.71-.9202,1.08-1.0598,1.21-2.0898,2.43-3.1199,3.71-.54.63-1.0601,1.28-1.5701,1.93-.1299.13-.23.27-.3398.42-.9399,1.15-1.8601,2.34-2.78,3.55-.52.69-1.05,1.37-1.55,2.06-1.0601,1.37-2.0901,2.77-3.1001,4.18-.54.7-1.0498,1.41-1.5498,2.13-1.05,1.44-2.0601,2.88-3.0701,4.34-.52.74-1.03,1.48-1.53,2.22-.52.74-1.03,1.48-1.52,2.24-1.01,1.5-2,2.99-2.99,4.51-.5.75-.99,1.51-1.48,2.27-.23.34-.45.68-.6699,1.03-.75,1.17-1.51,2.36-2.25,3.55-.51.76-.97,1.53-1.4402,2.31-.49.76-.96,1.53-1.4299,2.29-.74,1.19-1.46,2.36-2.1799,3.55-.6899,1.14-1.3501,2.26-2.02,3.37-1.1899,2.01-2.3601,3.99-3.52,5.97-1.04,1.81-2.0701,3.61-3.0801,5.39-.8499,1.5-1.6799,2.98-2.49,4.44-.8098,1.46-1.6199,2.92-2.3999,4.35-.5901,1.08-1.1702,2.16-1.73,3.23-1.3301,2.45-2.6001,4.86-3.8,7.17-.3301.65-.6499,1.28-.98,1.91-.6699,1.3-1.3101,2.57-1.95,3.81-.3801.75-.75,1.49-1.1101,2.22-.2.41-.3999.81-.6001,1.21-1.7698,3.58-3.3198,6.87-4.6299,9.73-7,15.33-18.04,32.17-30.03,48.39-12,16.23-24.96,31.86-35.8,44.76-7.5698,9.03-16.7798,17.23-27.3398,22.19-4.5801,2.16-9.4001,3.71-14.46,4.45-7.55,1.11-15.5701-.06-22.5601-3.16-8.51-3.77-15.5-10.41-18.25-19.28-.5601-1.79-.9302-3.61-1.1301-5.44v-.04c-1.1599-10.71,3.4602-21.87,10.45-30.32,8.2102-9.88,19.3201-16.84,30.0801-23.87,19.8401-12.99,45.46-35.16,69.1201-61.46,30.2-33.58,57.21-73.89,64.95-110.48.1599-.42.3201-.85.46-1.28,1.6599-4.77,2.5-9.77,2.3899-15.04-.1299-5.3199-.5098-10.68-1.6299-15.85-.77-3.63-1.9299-7.14-3.6201-10.53-1.3198-2.6-2.8899-5.02-4.6499-7.36-2.76-3.68-5.9399-7.07-9.0698-10.42-2.4001-2.55-4.79-5.1-7.2002-7.66-2.1099-2.26-4.23-4.51-6.3499-6.77-1.3701-1.48-2.76-2.96-4.1501-4.44-.6199-.67-1.3198-1.26-2.0601-1.77-.3091-.2065-.6213-.3983-.9358-.5826-2.0652-1.1798-4.4966-1.8757-7.1541-2.1873-.4302-.05-.8701-.09-1.3101-.12-.01,0-.02-.01-.03,0-10.71-.75-24.55,4.11-32.9099,8.2-.7.34-1.3701.68-2,1.01-.0701.03-.1301.07-.2.1-.5.27-1,.54-1.49.8199-.77.4301-1.51.8701-2.2402,1.32-5.1399,3.13-9.3999,6.57-13.1899,10.02-.6799.62-1.3499,1.24-2.01,1.85-.74.6801-1.45,1.37-2.1499,2.05-.05.06-.1001.11-.1501.15-.8098.79-1.6099,1.58-2.3899,2.35-19.9299,19.55-19.22,30.41-32.05,34.5699-.3499.1201-.72.22-1.0798.33-6.49,1.8-14.6702,1.5-21.52-1.82-3.29-1.58-6.27-3.87-8.6001-6.95-1.04-1.3701-1.8999-2.84-2.6101-4.3701v-.0099c-3.4199-7.51-2.9399-16.65.9202-23.44.9299-1.63,2-3.03,3.1799-4.25,3.97-4.11,9.21-6.27,14.53-8.4,14.4099-5.75,19.1001-1.73,30.3699-5.06,6.77-2,14.1902-6.91,21.1201-13.37,9.75-9.09,18.54-21.25,23.21-32.71.01-.05.04-.1.0601-.16,2.02-5,3.26-9.87,3.4299-14.29.0901-2.17-.1499-4.3-.5598-6.4399-.0103-.0601-.02-.13-.03-.19,25.05,3.64-.4602,23.5099,18.4099,36.33,17.78,12.09,69.75,18.53,82.0901,37.37,4.21,6.45,6.7,13.9901,11.53,19.9901,8.8899,11.04,23.9099,14.84,37.97,16.61,16.7898,2.1,35.1299,1.87,48.9399-7.9,6.4399-4.55,11.5601-10.98,18.6199-14.48,7.9902-3.96,17.3701-3.66,26.23-2.65,27.4602,3.11,54.2202,12.16,77.9302,26.35,4.1799,2.5099,8.4299,5.23,13.25,5.93,5.1299.76,10.2998-.87,15.1599-2.66,39.4399-14.5,73.6001-42.21,97.02-76.98,23.8201-35.35,26.73-74.12,42.3601-112.14,6.4399-15.65,8.2998-29.52,22.5798-40.92,12.54-10.01,23.48-9.34,25.4102-16.93,3.5598-14.07-32.0601-23.54-33.8801-46.59-1.7-21.6,28.04-33.75,22.5901-52.22-2.21-7.47-7.6401-7.36-16.95-18.34-11.3401-13.4,2.7798-29.38-.7002-43.03-7.6099-29.94-12.3398-62.92-9.8799-78.34,1.0898-6.94,3.3899-19.77,5.3501-16.42.0298.05.0598.11.0898.17,28.73-11.53,55.5801-23.97,69.23-50.77,2.72-5.33,4.9199-11.23,6.5-17.81,1.71-7.1,2.5-14.43,4.5601-21.43.24-.82.49-1.63.77-2.4301,2.6599-7.7,7.6699-15.15,15.26-18.11,12.54-4.9,28.1499,7.2,26.53,20.54-1.24,10.37-10.1899,17.77-17.49,25.23-19.79,20.18-31.1501,47.68-51.98,66.8-6.1602,5.66-12.9202,12.05-16.2302,19.38-.0298.06-.0498.11-.0698.17-2.54,5.7-2.98,11.97.5601,18.9,1.0498,2.07,2.3198,4.0099,3.6799,5.89,1.7,2.35,3.55,4.59,5.3499,6.87.4001.51.79,1.01,1.1802,1.52,2.1499,2.84,4.1499,5.79,6.28,8.64,1.3398,1.78,2.72,3.53,4.21,5.19,7,7.79,16.5901,11.22,26.95,11.89,16.3701,1.07,34.6401-4.78,47.53-11.26,1.5701-.79,3.1899-1.6,4.8401-2.47,7.3599-3.89,15.3899-8.89,22.4199-17.71.01-.02.03-.05.05-.07,5.78-7.28,7.48-12.87,15.05-16.93,1.0598-.57,6.1299-3.29,11.8298-3.57,2.9399-.14,6.0601.37,8.8801,2.16,2.21,1.41,3.9299,3.42,5.1599,5.75.03.03.05.07.0701.11,1.9399,3.73,2.6699,8.26,2.24,12.48-.02.12-.03.24-.05.36-.26,2.23-.8601,4.37-1.78,6.24-2.49,5.05-6.49,6.42-22.1301,14.11-21.73,10.67-17.6899,9.81-23.98,12.2401-19.0798,7.34-24.1699,3.0099-44.22,11.29-4.4099,1.82-8.48,3.74-12.23,6.11-.02,0-.03.01-.05.03-4.3098,2.7-8.1899,5.97-11.6399,10.29-.1399.17-.27.34-.4099.52-.5601.74-1.1301,1.52-1.3301,2.44-.27,1.19.0901,2.41.52,3.55,12.8101,33.49,58.9099,31.83,98.2,25.98.03-.01.0701-.02.1101-.02,17.27-2.58,33.22-5.97,44.4199-7.53,3.0801-.43,6.1599-.84,9.24-1.23,12.47-1.62,24.97-3.08,37.3601-5.17,6.1299-1.02,12.24-2.2,18.29-3.6299,10.0898-2.38,20.0198-5.48,29.4897-9.59.04-.01.0801-.03.1201-.05,8.3999-3.65,16.4399-8.09,23.9199-13.51,2.5801-1.87,5.0801-3.84,7.51-5.88q.01,0,.01-.01c12.0701-10.07,22.74-21.79,35.3201-31.26.72-.55,1.45-1.08,2.1799-1.61,5.55-3.98,11.6602-6.81,18.0801-7.52,4.02-.45,8.1599-.06,12.3501,1.39,7.8599,2.73,13.1399,9.14,15.8098,16.87,2.6201,7.63,2.6902,16.53.1301,24.44Z"/>
        <path class="cls-9" d="M778.1956,660.0271c-8.4581,71.9919-59.4762,139.1686-128.9613,159.8355-23.4982,6.9972-49.0527,8.7285-72.5147,1.587-41.6224-12.6599-73.2-54.3906-66.708-95.2917,1.8034-11.3795,6.5285-22.6868,14.8241-33.2908,13.9044-17.7996,35.491-29.125,46.6179-48.7639,8.0612-14.283,9.5942-31.1809,12.0288-47.4115.0178-.036.0178-.0721.0178-.1082,3.2643-21.5146,8.8189-43.498,22.3805-60.5222,19.8374-24.8689,55.1658-34.8777,86.1124-27.5199,18.3044,4.3463,34.8775,14.1568,48.3852,27.3035,9.3237,9.0891,17.1863,19.7653,23.1376,31.3251,14.5716,28.2593,18.3946,61.2616,14.6797,92.8571Z"/>
        <path class="cls-8" d="M681.9676,520.0424c-20.1975-4.4268-34.5781,1.4112-34.5784,1.4113-5.9741,2.4254-17.0139,6.9073-21.5229,17.6419-1.6094,3.8318-3.1235,10.2148-.7058,11.9965,2.3584,1.7378,6.7603-2.152,18.7007-8.1153,2.9727-1.4846,10.4463-5.2173,17.2891-7.4095,10.5935-3.394,20.6125,1.7194,25.0515-2.8228,1.1345-1.161,1.5833-2.5081,1.6465-2.7051.9429-2.9325-.2417-6.4327-2.4697-8.3505-1.3533-1.165-2.8279-1.5188-3.4109-1.6466Z"/>
        <path class="cls-8" d="M607.1185,558.0656c-6.7323,3.6999-8.9949,12.7305-11.0823,19.5435-2.456,8.0158-4.0172,16.2962-4.8034,24.6395-.9816,10.4174-.8009,21.1078-4.1141,31.033-1.2198,3.6539-2.894,7.1361-4.4982,10.6384-.4023.8783-.6877,2.1471.1564,2.6168.5068.282,1.1376.0668,1.6633-.1782,5.5906-2.6055,9.401-8.0773,11.5157-13.8714,2.1147-5.7941,2.773-11.9966,3.7094-18.0931,1.7816-11.5997,4.6257-23.036,8.4851-34.1189,1.2751-3.6617,2.7368-7.4053,5.4879-10.1375,1.8019-1.7895,4.1988-3.2238,4.9823-5.6394.8365-2.5789-.6582-5.5576-3.0402-6.8525-2.382-1.2949-5.3884-1.078-7.8323.096-.2141.1029-.424.2109-.6296.3239Z"/>
        <path class="cls-7" d="M778.1956,660.0271c-8.4581,71.9919-59.4762,139.1686-128.9613,159.8355-23.4982,6.9972-49.0527,8.7285-72.5147,1.587-41.6224-12.6599-73.2-54.3906-66.708-95.2917,6.4924,12.1369,15.8339,25.1754,31.5237,34.8777,26.3116,16.2487,54.9857,13.5075,63.5158,12.696,34.0482-3.2462,56.3744-21.4244,73.3805-35.2746,25.5541-20.8112,39.7829-43.8046,46.5818-56.4645,4.7971-8.9448,23.4442-45.4456,22.5786-95.977-.3428-19.7292-3.5529-36.5369-7.2136-50.1707,9.3237,9.0891,17.1863,19.7653,23.1376,31.3251,14.5716,28.2593,18.3946,61.2616,14.6797,92.8571Z"/>
        <path class="cls-3" d="M374.3885,791.8136c-17.8821,7.4121-48.5737-10.0883-60.5217-30.7826-3.4568-5.9872-3.9402-9.8094-16.1738-34.9565-6.3533-13.0596-10.4185-20.6532-18.261-22.9565-5.6411-1.6568-9.7605.4444-14.6086-3.1304-3.6384-2.6828-6.4521-7.6516-6.2607-12.5217.3403-8.659,9.8965-9.7699,16.6956-20.3478,5.4939-8.5471,5.2278-17.6981,4.6956-36-.4287-14.7422-.6431-22.1133-5.2173-28.6956-4.9224-7.0831-10.6733-8.4272-12.5217-16.1739-.1643-.6882-2.0376-9.0515,2.6086-14.6087,5.0188-6.0028,12.4128-2.4736,20.3479-5.7391,12.0476-4.9579,15.4172-21.4934,20.739-47.6087,4.5737-22.4447,6.8606-33.667,1.1741-42.6522-5.0012-7.9022-12.9766-10.8249-13.6958-19.9565-.0469-.5966-.6001-9.0787,4.6958-13.3043,7.4856-5.9727,17.8398,3.5932,34.8259,3.913,21.2991.4011,37.009-14.0372,39.1306-16.0435,14.6863-13.8893,17.1614-31.9774,18.7825-43.8261,1.0698-7.8185,3.1428-22.9704-2.8696-39.6522-3.0542-8.4742-6.4958-12.6285-8.8694-24-1.6633-7.9689-4.2212-20.2237,1.0435-24,5.77-4.1389,18.1548,3.9023,26.6086,9.3913,11.7795,7.6482,12.8333,11.4277,24.5217,20.8696,17.4907,14.129,32.9658,20.0724,36.5217,21.3913,9.9741,3.6993,20.0947,7.3134,32.8696,5.2174,5.8787-.9646,15.3813-2.5237,20.8694-9.913,4.6011-6.1949,2.1958-10.8532,7.3044-15.6522,4.7742-4.4847,12.7864-5.9698,18.7827-3.6522,7.478,2.8904,5.8157,9.3739,13.0435,14.6087,10.2776,7.4437,27.6467,4.4793,38.0869-.5217,5.2966-2.5372,9.4587-5.9094,18.7825-8.8696,4.739-1.5046,8.4551-2.1546,12.522-1.5652,5.7642.8353,9.6858,3.7911,10.9563,4.6956,14.6201,10.4094,38.3921,12.063,39.3914,12.1304,17.7043,1.1949,18.7883-7.5155,33.6523-5.8696,13.9204,1.5415,30.6106,11.1345,34.4346,24.2609,7.3948,25.3839-35.7432,55.683-42.2607,60.2609-37.9204,26.6346-53.8999,12.2091-96.261,37.5652-35.4939,21.2457-56.4905,50.6565-63.3911,61.0435-18.731,28.1946-11.6155,33.6495-28.1741,54-25.1108,30.8613-46.1213,24.0275-75.1304,54-17.5962,18.1805-25.1011,36.4362-35.2173,61.0435-24.3481,59.2263-14.2646,90.5725-33.6523,98.6087Z"/>
        <path class="cls-3" d="M239.0115,683.4209c-.6792-1.2842-20.8689,12.6792-54.186,21.9673-20.5774,5.7365-43.25,8.8777-70.7832,12.6922-15.8618,2.1975-17.8474,2.0931-24.408,3.9053-8.3469,2.3056-45.354,12.528-48.8159,35.6357-1.1777,7.8613,1.303,18.708,7.8103,21.4791,9.1816,3.9098,18.5872-11.5747,43.4465-27.8252,13.7351-8.9787,29.9849-15.0981,62.4846-27.337,24.8245-9.3485,30.916-10.0922,48.3279-18.5501,20.1401-9.7833,36.7361-20.8091,36.1238-21.9673Z"/>
        <path class="cls-3" d="M204.8233,548.6832c-16.5286-5.562-28.8313-11.9048-37.0435-16.6956-6.8508-3.9967-12.886-8.0983-25.0435-14.6087-18.7432-10.0372-23.7202-10.6353-28.1738-9.913-8.9448,1.4507-18.7139,8.7041-18.7827,16.1739-.0996,10.8273,20.217,18.1791,27.6521,20.8696,8.5098,3.0793,16.6685,4.4742,31.8262,5.2174,12.1418.5953,29.0708.787,49.5652-1.0435Z"/>
        <path class="cls-3" d="M343.0892,234.907c-11.9826-19.8151-29.8097-36.1764-41.833-56.1886-11.7385-19.5381-17.9167-42.5045-32.7247-59.8323-3.9241-4.5918-8.5132-8.7825-14.0547-11.1855-5.5415-2.403-12.1598-2.8242-17.5354-.0701-12.0287,6.1627-8.3682,21.439-1.0793,29.7941,3.6319,4.1632,8.112,7.4787,12.4212,10.9361,16.7403,13.4307,31.2991,29.3837,44.8453,46.0306,16.3572,20.1014,32.4384,42.1961,56.2058,52.5275-1.8032-4.1696-3.9135-8.1561-6.2451-12.0118Z"/>
      </g>
      <path class="cls-1" d="M243.9537,139.9006c-5.4319-3.968-8.1477-5.9521-9.3911-7.8261-.6304-.95-3.1487-4.9597-2.7393-10.1739.0559-.7137.5825-6.7015,3.3914-7.3044,1.5273-.3278,3.2722,1.0349,4.1738,2.3478,1.7019,2.4782.2593,4.5749.9131,9,.3752,2.539,1.2068,4.2144,2.8696,7.5652,2.8235,5.6895,5.8315,8.6524,5.3477,9.1304-.2161.2134-1.0349-.1602-4.5652-2.7391Z"/>
      <path class="cls-1" d="M353.5189,451.9006c-.1113-.3518,8.8977-1.4395,16.9565-8.6087,4.3821-3.8983,6.5461-7.9562,10.6958-15.913,2.6592-5.099,6.5344-12.6292,9.6521-23.4783,4.2195-14.6835,4.0684-25.0653,5.4783-25.0435,1.1929.0184,2.0586,7.4615,2.3479,11.7391.4341,6.4207,1.0906,16.1311-3.1306,27.6522-1.8647,5.0892-6.3748,16.9075-18.2607,25.3043-11.3894,8.046-23.6106,8.7536-23.7393,8.3478Z"/>
      <path class="cls-1" d="M124.2147,541.5093c-2.2026-.6048-7.6448-2.1286-14.0869-5.3478-3.3535-1.6757-6.1919-3.4181-8.0869-6.6522-.7898-1.3478-2.1421-3.6557-1.3044-6.1304.8389-2.4782,3.6514-4.4669,5.6086-3.913,1.9048.539,1.8633,3.1644,3.9131,6.7826,1.7295,3.0527,3.7622,4.7201,6.9131,7.3043,9.5471,7.8306,25.3208,11.4352,25.1738,12-.1099.4226-8.9597-1.5255-18.1304-4.0435Z"/>
      <path class="cls-1" d="M46.0066,757.001c-1.1-6.4142,4.6414-13.3017,9.0505-17.1935,4.3035-3.7985,9.4135-6.5815,14.681-8.8623,16.5126-7.1501,34.6618-9.5538,52.6025-10.9402-11.104,3.1667-22.2081,6.3333-33.3121,9.5-9.1069,2.5971-18.8777,5.6373-24.5354,13.2315-3.6812,4.9412-5.1157,11.2146-8.4105,16.4214-1.011,1.5976-2.3792,3.2009-4.2486,3.4829-1.9561.2951-3.8871-1.0342-4.83-2.7734-.5078-.9366-.8307-1.8961-.9971-2.8663Z"/>
      <path class="cls-1" d="M265.606,585.9875c-1.665-1.8736-1.2156-5.3764,0-7.5652,1.8059-3.252,5.3838-3.7499,12.7825-6,6.5142-1.9811,10.8103-3.2878,13.8262-4.9565,5.5535-3.073,8.5527-8.3634,12.7825-19.5652,7.7236-20.4552,10.1865-35.8248,10.6958-35.7391.5999.1008-5.5461,20.9521-6,40.1739-.0522,2.2077-.1001,7.3943-2.8696,13.0435-2.6699,5.446-6.6306,8.795-8.6086,10.4348-4.1538,3.4432-7.8755,4.9955-12.261,6.7826-7.509,3.0599-17.1506,6.9889-20.3477,3.3913Z"/>
      <path class="cls-2" d="M448.2147,367.118c-3.9756-3.6745-9.7744-2.493-10.4348-2.3478-5.7207,1.2572-11.0391,6.6988-10.4348,12.2609.4358,4.0119,3.7805,6.4973,5.2175,7.5652.3657.2718,7.887,5.7023,13.8259,2.3478,6.2461-3.528,7.2583-14.8053,1.8262-19.8261Z"/>
      <path class="cls-2" d="M553.0843,379.3788c-.7344-.8264-5.9866-6.5516-13.8262-6.2609-10.0107.3712-19.394,10.3718-18.261,20.6087,1.2134,10.9607,13.7263,15.3568,15.3914,15.913,2.396.8005,9.9255,3.3161,15.6523-.5217,8.1831-5.4841,8.6172-21.2152,1.0435-29.7391Z"/>
      <path class="cls-2" d="M469.0843,468.2049c-4.0781-2.1182-8.3223-.6392-9-.3913-5.9668,2.1828-10.3635,9.4428-8.2175,15.6522,2.6528,7.6764,13.2534,7.8106,14.4783,7.8261,2.2471.0284,4.7275.0598,6.6521-1.5652,5.0317-4.2485,3.6379-17.5998-3.9128-21.5217Z"/>
      <path class="cls-2" d="M363.4319,475.2484c-6.7881-2.0844-14.1885,1.9564-16.0435,8.2174-1.5322,5.1714,1.1406,10.4352,4.6958,13.3043,4.199,3.3886,10.637,4.2502,15.2607,1.1739,3.4995-2.3283,4.5137-5.9503,4.6958-6.6522,1.4934-5.752-1.3652-13.8191-8.6089-16.0435Z"/>
      <path class="cls-2" d="M659.2581,420.4658c-1.2507-2.8699-2.9871-6.8545-6.6521-8.6087-4.7129-2.2557-10.9116-.0086-14.4783,3.5217-5.4417,5.3861-6.1001,15.0891-1.9565,19.1739,6.3621,6.2718,23.6423-1.0966,24.6521-8.2174.2437-1.7186-.4697-3.3558-1.5652-5.8696Z"/>
      <path class="cls-2" d="M704.6495,390.3354c-1.2539-5.9327-6.4016-11.5316-13.3044-11.7391-7.1646-.2154-12.6687,5.4842-14.0869,11.3478-1.9883,8.221,3.9678,17.1271,11.3479,18.3913,5.3977.9246,9.8064-2.5385,10.9565-3.5217,3.8889-3.3245,6.2744-8.8597,5.0869-14.4783Z"/>
      <path class="cls-2" d="M615.0408,348.8571c-2.9722-.5181-8.3818-.1864-10.5654,3.913-1.7939,3.3678-.4238,7.426,1.5654,9.7826,3.0723,3.6399,9.1594,5.0427,13.3042,1.9565,3.0901-2.3008,4.7427-6.8302,3.1304-10.5652-1.7695-4.0993-6.469-4.9186-7.4346-5.087Z"/>
      <path class="cls-2" d="M582.1712,456.8571c-.8081-4.495-5.6948-7.3565-9.7827-7.8261-6.071-.6974-12.7092,3.6133-13.6956,9.7826-.676,4.229,1.2678,9.5536,5.4783,11.3478,3.8813,1.654,7.8137-.4912,9.7825-1.5652.8008-.4368,9.4055-5.1311,8.2175-11.7391Z"/>
      <path class="cls-2" d="M504.6929,550.7702c-.8962-3.721-4.6279-6.9461-8.6086-6.6522-5.1074.3772-8.6226,6.3996-7.4348,11.3478.8115,3.381,3.8779,6.508,7.4348,6.6522,5.1726.2097,9.9092-5.949,8.6086-11.3478Z"/>
      <path class="cls-2" d="M412.345,543.3354c.6914-3.2286-.1882-8.0055-4.1086-10.3696-4.4348-2.6743-9.1946-.1103-9.3914,0-3.7473,2.1015-6.3279,7.0047-4.6956,11.1522,2.0112,5.11,8.9172,5.2596,9.9783,5.2826,1.2905.028,3.6599.0793,5.6738-1.5652,1.8762-1.532,2.3618-3.6523,2.5435-4.5Z"/>
      <path class="cls-2" d="M306.8233,588.0745c-1.8743-1.6738-6.0149-.7348-8.3479,1.5652-2.1777,2.1469-3.5803,6.2681-1.5652,8.6087,1.657,1.9247,4.946,1.8566,7.0435.7826,4.0647-2.0814,5.3018-8.7845,2.8696-10.9565Z"/>
      <path class="cls-2" d="M393.1712,681.4658c1.8755-5.8672-.3711-12.4196-4.6958-16.4348-5.6248-5.2223-13.8684-5.3211-19.5652-2.3478-8.8789,4.6342-12.6877,17.3146-7.8259,24.2609,3.7466,5.3529,11.3489,5.4526,13.3042,5.4783,5.8584.0768,16.0232-2.3244,18.7827-10.9565Z"/>
      <path class="cls-2" d="M295.0843,674.4223c-2.2468-.9855-5.4207-.5582-7.3044,1.5652-2.2476,2.5337-1.7849,6.4975.261,8.8696,2.5491,2.9555,7.3672,3.2208,9.6521,1.0435,2.967-2.8274,1.541-9.6583-2.6086-11.4783Z"/>
      <path class="cls-2" d="M373.2147,586.7702c-3.3296-2.1934-8.6165-1.0826-10.9565,2.7391-2.0842,3.4036-1.3623,8.1914,1.9565,10.5652,2.9224,2.0902,6.9482,1.6578,9.3914-.3913,3.793-3.1813,3.7117-10.2101-.3914-12.913Z"/>
      <path class="cls-5" d="M463.9971,693.5962c-6.6702-2.8042-13.0938,3.1426-13.6956,3.7174-2.7654,2.6407-6.2163,8.0286-4.3044,12.9131,1.4009,3.579,4.9832,5.1045,7.2393,6.0652,2.2341.9514,7.0049,2.9829,11.5435.5869,4.5186-2.3853,5.6167-7.4747,5.8696-9.1956.7063-4.8055-1.0098-11.7148-6.6523-14.0869Z"/>
      <path class="cls-5" d="M427.606,768.7267c-5.7244-2.4165-12.9148,2.1901-16.4348,6.6522-1.1418,1.4474-5.1653,6.5473-3.5217,12.5218,1.668,6.0634,8.3435,10.013,14.4783,9.3913,5.7224-.58,8.9978-4.937,9.3911-5.4783,5.178-7.1235,3.2979-20.043-3.9128-23.0869Z"/>
      <path class="cls-5" d="M557.5189,638.6832c-.0039-2.6603-1.3943-5.9587-4.1738-7.0435-3.9341-1.5354-8.6001,2.1644-10.1738,6-1.0999,2.6807-1.3938,7.1443,1.3042,9.1304,2.5691,1.8913,6.2312.3433,7.0435,0,2.5938-1.0964,6.0061-3.9098,6-8.087Z"/>
      <path class="cls-5" d="M620.6495,479.5528c-4.2266-2.0574-9.5525-1.7402-13.5652,1.0435-4.999,3.468-7.7585,10.6249-4.9565,16.1739,3.4038,6.7408,12.6033,6.3338,13.8259,6.2609,1.1851-.0707,8.8784-.5296,11.7393-6.2609,2.9199-5.8493-.7175-14.1381-7.0435-17.2174Z"/>
      <path class="cls-5" d="M745.8668,455.8136c-3.6816-1.176-7.6145.5769-9.9131,2.8696-3.8674,3.8574-4.4138,10.5452-1.0435,14.8696,2.0647,2.6491,6.0259,4.9583,10.1741,3.913,4.7532-1.1977,6.5071-5.9821,6.7825-6.7826,1.8535-5.3881-.3958-13.0794-6-14.8696Z"/>
      <path class="cls-5" d="M778.2147,371.8136c-3.8462-2.8513-9.6763-1.958-13.3044.7826-5.5884,4.2213-7.0486,13.6536-2.3477,18.2609,2.856,2.799,7.676,3.5136,11.4783,2.087,2.3879-.896,3.8489-2.4396,4.4346-3.1304,3.8884-4.586,5.1543-13.9856-.2607-18Z"/>
      <path class="cls-5" d="M863.2581,96.3354c-6.3171-3.6346-16.1614.1884-19.8262,6.7826-5.4648,9.8333,3.4766,24.6333,11.4783,25.0435,5.9385.3044,10.4014-7.366,10.9565-8.3478,4.0476-7.157,4.6401-19.3076-2.6086-23.4782Z"/>
      <path class="cls-5" d="M652.9971,851.8136c-4.8071-3.7197-12.8291-3.9356-17.739.5218-6.2109,5.6384-4.929,16.473,1.0435,21.913,4.0854,3.7213,10.8398,5.3502,15.6521,2.6087,7.7117-4.3932,8.7732-19.0623,1.0435-25.0435Z"/>
      <path class="cls-5" d="M573.1712,843.4658c-.4998-6.8789-8.7769-11.7848-15.6523-12.5218-4.9568-.5313-12.8142.7152-15.6521,6.2609-3.6658,7.1635,2.2856,19.0747,11.7393,21.1305,9.6653,2.1018,20.1577-6.7142,19.5652-14.8696Z"/>
      <path class="cls-5" d="M484.345,841.5093c-3.3354-9.3063-15.7856-12.9595-24.2607-8.2174-6.4338,3.6-10.502,11.9964-7.8262,19.5652,3.0276,8.5639,13.4805,12.6509,21.9131,9.3913,8.1931-3.1671,13.0491-12.7169,10.1738-20.7391Z"/>
      <path class="cls-5" d="M793.606,558.8571c-.7769-2.6361-3.2371-4.9997-6.261-5.2174-3.9563-.2848-7.6907,3.1891-7.8262,7.3044-.146,4.4332,3.9272,8.2996,8.0872,7.8261,4.4556-.5072,7.2153-5.7889,6-9.913Z"/>
      <path class="cls-5" d="M787.0843,495.4658c-3.8083-6.5503-15.3306-7.7303-20.8696-1.5652-4.4998,5.0083-4.1851,13.9005,1.0435,18.2609,3.6404,3.0359,8.7834,3.1415,12.5217,1.5652,6.8223-2.8766,10.8564-12.1515,7.3044-18.2609Z"/>
      <path class="cls-4" d="M1236.0899,495.3975c-.78,2.43-1.8101,4.77-3.0901,6.95-9.6699,16.41-28.3401,25.14-46.4199,31.11-19.47,8.11-40.6799,15.4-62.6799,22.28-.04.01-.0901.03-.1301.04-16.3499,5.81-32.72,11.32-48.8601,15.71-8.6699,2.36-29.0698,7.49-50.7898,13.38-.03.01-.0701.02-.1101.03-23.8398,7-46.95,14.21-68.1699,22.11-.02.01-.03.02-.05.03-.1799.1-.3699.21-.55.32-3.9199,2.34-9.8101,5.95-15.9199,10.3-.0701.05-.1499.11-.22.16-2.8601,2.1201-5.6401,4.33-8.3401,6.66-3.95,3.42-8,6.92-11.1001,10.9-.1499.1899-.2998.3799-.4399.5699-1.4299,1.92-2.6399,3.95-3.5,6.13-1.1499,2.93-1.6899,6.14-1.3499,9.74.6799,2.64,2.2898,5.19,5.0898,7.59,3.8,1.66,7.77,3.28,11.8401,4.58.05.01.0898.03.1399.04,5.75,1.63,11.7102,2.53,17.6902,2.72.1599,0,.3198-.01.48-.02,4.6599-.28,9.6099-.33,14.3999-.9,3.0701-.49,6.1101-1.17,9.0801-2.02,5.1699-2.82,10.74-3.91,15.9399-3.73h.04c2.23-.1,4.45.04,6.6499.5,4.1699.88,8.1802,3.23,10.9102,6.45.0098.01.02.03.04.04,3.4897,3.58,4.8599,8.19,2.7598,13.02-1.54,4.52-5.46,8.26-9.97,10.14-.02.01-.0398.03-.0598.04-1.03.44-2.1201.8-3.2603,1.06-.1499.04-.2998.07-.45.11-4.73,1.09-9.7698.85-14.6099.14-.99-.15-2.1401-.37-3.4402-.65-.0498,0-.0999-.02-.1599-.03-8.6599-1.52-18.1599-4.24-27.3298-6.29-.0601-.01-.1301-.03-.1902-.04-9.8899-1.92-19.99-3.14-27.46-1.83-.02,0-.04.01-.0601.01-4.0598.98-7.5698,2.88-10.3098,6.05-13.8601,24.51,6.3699,53.75,24.5298,68.71.7002.57,1.4001,1.14,2.1101,1.69.3101.2401.6199.48.9299.7,9.8301,7.24,26.4202,15.37,46.3701,24.31,10.1499,4.12,20.3,7.99,29.8,12.17,26.3999,11.65,53.0999,23.25,78.48,37.11.1399.07.27.14.4099.22,33.2,17.28,61.46,36.17,72.8701,56.42.0098.0099.02.03.0298.05,6.8701,10.4,10.1001,22.05,2.5601,32.42-22.0498,30.31-65.0801-10.26-95.45-43.2-24.0901-23.55-51.25-50.23-81.4399-69.79-30.1001-17.26-64.25-29.59-94.6101-27.62-.3599.01-.72.05-1.0898.07-9.3401.72-13.0701,1.24-17.4902,10.57-2.9199,6.16-47.6799,70.9399-47.7698,70.9399,1.1699,1.9901,1.73,4.67,2.0598,7.02.1501,1.06.3701,2.13.6602,3.2,3.3899,8.72,9.2,17.14,15.5999,24.98.01.02.03.04.05.06,5.72,6.64,11.79,12.88,16.1499,18.23,8.02,9.83,15.3301,17.35,22.6401,24.54.03.04.0601.07.0901.09,11.6299,10.8799,23.6099,21.25,32.21,33.83,0,.01.01.02.02.03,6.3999,8.45,11.1099,18.31,11.5598,28.81,0,.03.0103.06.0103.09,0,.07,0,.14-.0103.21.1301,3.5-.3198,7.06-1.2998,10.48-1.8901,7.36-5.6899,12.65-10.52,15.98-.02.03-.05.05-.0801.06-1.8201,1.38-3.8301,2.51-6.02,3.32-8.3501,3.1-17.02,1.16-24.54-3.59-7.3499-4.18-13.9099-11.23-17.8799-20.92-7.3401-16.45-25.71-38.05-32.1301-54.88-5.97-15.67-28.1699-41.13-44.3699-47.16-12.46-4.61-18.7,4.85-30.5701,12.52-7.8699,5.51-16.1699,10.22-24.71,14.47-4.5901,2.42-9.24,4.73-13.95,6.94-.4199.1899-.8301.37-1.26.55-2.0801.9-4.3701,1.71-6.78,2.5-10.1499,4.31-20.3999,8.39-30.45,12.78-1.8501,1.58-3.4299,3.37-4.6301,5.45-3.1499,6.17-4.46,16.16-4.3899,28.63-.01.02,0,.04,0,.06.1899,2.48.5901,4.96,1.1799,7.43,2.53,34.5,11.53,85.05,22.1201,128.74,7.9399,30.32,16,55.47,20.75,65.61,2.75,7.0699,5.6399,14.47,7.5298,21.92,0,.01.0103.02.0103.03,4.2798,13.12,5.7698,26.75-3.3201,36.1-.6001.62-1.3,1.29-2.0901,2-4.03,5.13-9.3799,8.79-15.3201,10.98-2.5898,1.41-5.05,2.45-7.0698,2.86-6.99,1.4-13.2302.38-19.0901-2.12-7.47-2.22-14.3401-6.58-19.3401-13.07-11.03-10.18-13.6099-26.17-13.9399-41.86v-.04c-1.1199-14.42.1501-29.4,1.02-44.31.3-15,.1501-30.05-1.49-44.89-2.8799-11.81-5.55-28.07-9.0701-45.55,0-.01,0-.02-.01-.03-5.2998-24.13-12.9299-56.58-26.8899-78.94-10.1799-15.52-23.73-25.78-42.29-25.68-.04,0-.0901.01-.1301.01-10.0698.89-20.1499.72-30.1699-.37-.1199-.01-.25-.02-.3699-.04-.3201-.03-.6301-.0601-.9602-.11-29.5898-3.35-58.3599-14.27-85.0598-27.51-.8501-.41-1.6902-.84-2.54-1.2599-1.46-.73-2.9299-1.48-4.4299-2.16-.01,0-.02-.01-.03-.01-6.1201-2.4-11.95-2.3-17.47-.51-.02,0-.04.01-.05.02-.8801.34-1.75.72-2.6001,1.11-.1299.06-.26.12-.4099.2-.1299.06-.27.12-.4199.19-.03.02-.0701.04-.1001.06-3.0701,1.53-6.23,3.64-9.47,6.29-.51.4-1.01.81-1.52,1.27-.5.41-1.01.84-1.51,1.31-.51.43-1.03.9-1.53,1.39-1.54,1.41-3.0901,2.92-4.6199,4.53-.52.54-1.03,1.08-1.55,1.64s-1.05,1.12-1.5701,1.69c-.52.58-1.05,1.16-1.5701,1.75-.21.23-.4199.47-.6299.71-5.55,6.69-10.54,13.63-14.9299,19.06-15.1902,22.17-28.3301,46.18-41.6401,70.17-.2.41-.3999.81-.6001,1.21-1.7698,3.58-3.3198,6.87-4.6299,9.73-7,15.33-18.04,32.17-30.03,48.39-10.6599,15.9-22.3298,31.03-35.8,44.76-7.77,10.86-17.4099,18.08-27.3398,22.19-4.5801,2.16-9.4001,3.71-14.46,4.45-7.55,1.11-15.5701-.06-22.5601-3.16-10.8201-4.24-18.53-12.89-19.3801-24.72v-.04c-1.1599-10.71,3.4602-21.87,10.45-30.32,8.2102-9.88,19.3201-16.84,30.0801-23.87,17.28-12.12,43.97-34.4,69.1201-61.46,30.2-33.58,57.21-73.89,64.95-110.48.1599-.42.3201-.85.46-1.28,2.77-18.08.29-35.52-9.6699-51.2-5.98-6.09-10.4402-11.32-14.1101-15.66-2.1099-2.26-4.23-4.51-6.3499-6.77-1.3701-1.48-2.76-2.96-4.1501-4.44-.6199-.67-1.3198-1.26-2.0601-1.77-.3091-.2065-.6213-.3983-.9358-.5826-2.0652-1.1798-4.4966-1.8757-7.1541-2.1873-.4302-.05-.8701-.09-1.3101-.12-.01,0-.02-.01-.03,0-6.8599-.17-16.5,2.54-32.9099,8.2-.6802.32-1.3401.66-2,1.01-.5701.3-1.1401.6-1.6899.92-.77.4301-1.51.8701-2.2402,1.32-4.9399,3.02-9.3198,6.53-13.1899,10.02-.6799.62-1.3499,1.24-2.01,1.85-.74.6801-1.45,1.37-2.1499,2.05-.05.06-.1001.11-.1501.15-.8098.79-1.6099,1.58-2.3899,2.35-19.9299,19.55-19.22,30.41-32.05,34.5699-.3499.1201-.72.22-1.0798.33-8.4102,2.48-15.77,1.39-21.52-1.82-3.29-1.58-6.27-3.87-8.6001-6.95-1.04-1.3701-1.8999-2.84-2.6101-4.3701.25.11.4902.23.7302.35,6.0898,2.87,13.1199,4.94,21.5598,2.79,2.6902-.68,8.25-2.49,31.3101-25.3,20.47-20.26,20.8-23.49,30.26-28.7,5.1599-2.84,19.8201-10.64,37.8201-7.56,12.79,2.18,22.1299,8.98,25.8301,11.74,5.52,4.11,9.75,8.65,14.0898,13.3,0,0,6.9102,7.42,11.74,14.09,15.48,21.38-10.23,84.78-3.1299,88.17,3.3398,1.6,10.24-11.95,29.73-28.17,13.23-11.01,19.8401-16.51,28.96-18.78,17.1899-4.29,23.99,6.89,69.9099,22.69,27.8701,9.59,39.3301,10.28,43.8301,10.4399,13.98.4901,16.4199-2.1299,33.9099-1.5699,20.1888.6499,30.9684,1,41.3479,7.9585,12.6742,8.497,15.971,22.8948,33.4121,24.2851,5.3937.4299,11.3409-1.5883,14.0393-6.2782,3.1227-5.4271,1.0634-12.3593,2.5856-18.4328,2.5909-10.3371,14.0995-15.0791,22.824-21.1987,10.0832-7.0725,17.4602-17.3899,27.1382-25.0076,10.7436-8.4566,23.8474-13.2376,36.706-17.8849,10.3631-3.7454,21.4407-7.6976,32.6321-7.1898,10.8899.494,20.6082,6.2641,30.4037,10.5168,1.8876.8195,4.29,1.5695,5.8196.193.8984-.8086,1.152-2.1062,1.2288-3.3124.7763-12.1875-10.8226-21.9141-12.4118-34.0225-.9367-7.1372,1.7304-14.2346,4.8193-20.7365,8.2301-17.3238,19.8523-33.0281,34.0146-45.9617,12.2797-11.2144,27.4689-22.0547,30.0029-38.4904,1.4065-9.1228-1.4978-18.2732-3.4112-27.3032-6.2304-29.4031-1.6648-61.1434,13.4818-87.1038,15.1467-25.9604,40.914-45.7256,70.1583-52.6632,8.1642-1.9368,16.9955-3.11,23.4029-8.5277,6.4074-5.4177,8.2806-17.1102,1.1729-21.5697-2.899-1.8189-6.5218-1.9872-9.9389-1.7989-20.095,1.1072-38.7628,12.54-58.887,12.315-17.1763-.1921-33.2506-10.3397-42.5371-24.5078-4.0693-6.2083-9.5525-16.7757-8.3325-24.5346,1.1146-7.0887,13.1037-11.686,12.9384-17.4339-.1201-4.27-9.52-4.09-17.74-10.44-7.99-6.18-10.6702-15.02-12.52-21.13,0,0-1.6899-5.58-1.8699-14.39-.0103-.26-.0103-.52-.0103-.78.4001.51.79,1.01,1.1802,1.52,2.1499,2.84,4.1499,5.79,6.28,8.64,1.3799,1.68,2.78,3.41,4.21,5.19,7.7,7.15,17,10.84,26.95,11.89,16.3701,1.07,34.6401-4.78,47.53-11.26,1.5701-.79,3.1899-1.6,4.8401-2.47,8.6099-5.12,16.3398-11.24,22.4199-17.71.01-.02.03-.05.05-.07,5.78-7.28,7.48-12.87,15.05-16.93,3.8298-2.57,7.95-3.69,11.8298-3.57,2.9399-.14,6.0601.37,8.8801,2.16,2.21,1.41,3.9299,3.42,5.1599,5.75.03.03.05.07.0701.11,2.01,3.33,2.95,7.58,2.24,12.48-.02.12-.03.24-.05.36-.26,2.23-.8601,4.37-1.78,6.24-2.49,5.05-6.49,6.42-22.1301,14.11-21.73,10.67-17.6899,9.81-23.98,12.2401-19.0798,7.34-24.1699,3.0099-44.22,11.29-3.3,1.61-7.8799,3.62-12.23,6.11-.02,0-.03.01-.05.03-4.3098,2.7-8.1899,5.97-11.6399,10.29-1.0601,2-1.55,4.17-1.22,6.51,13.9399,29.68,55.98,31.11,98.2,25.98.03-.01.0701-.02.1101-.02,17.27-2.58,33.22-5.97,44.4199-7.53,3.0801-.43,6.1599-.84,9.24-1.23,15.1699-2.74,28.27-4.97,37.3601-5.17,6.1299-1.02,12.24-2.2,18.29-3.6299,10.0898-2.38,20.0198-5.48,29.4897-9.59.04-.01.0801-.03.1201-.05,11.0801-5.33,21.51-11.95,31.4399-19.4,12.0701-10.07,22.74-21.79,35.3201-31.26.3899-.38.77-.77,1.1599-1.16,6.49-5.01,13.01-7.49,19.1001-7.97,4.02-.45,8.1599-.06,12.3501,1.39,7.8599,2.73,13.1399,9.14,15.8098,16.87,2.79,7.1,3.1799,15.63.1301,24.44Z"/>
      <path class="cls-4" d="M782.9102,853.118c-.3176-.6097-3.9468-7.294-11.2173-7.3044-4.7339-.0067-9.1675,2.8186-10.9565,6.7826-3.1663,7.0149,2.6482,16.0453,9.6521,18.2609.7791.2464,5.6521,1.6989,9.6523-1.0435,4.9729-3.4092,5.679-11.3007,2.8694-16.6956Z"/>
      <path class="cls-4" d="M833.5189,744.3354c-3.3442-5.808-12.4541-7.4111-18.2607-3.6522-7.2688,4.7054-7.6943,16.7339-2.0869,21.3913,3.4751,2.8864,8.6506,2.4293,12,1.0435,6.8945-2.8525,12.158-12.1656,8.3477-18.7826Z"/>
      <path class="cls-4" d="M823.0843,596.1615c-5.4187-.312-11.0581,3.821-12,8.8696-1.4155,7.5874,8.1021,15.5104,15.6521,14.087,2.991-.5639,6.0337-2.6627,7.3044-5.7391,2.6968-6.5289-2.8806-16.7523-10.9565-17.2174Z"/>
      <path class="cls-4" d="M900.3016,582.0745c-2.8901-4.8142-10.0286-5.9964-15.1304-4.1739-7.3003,2.6078-12.3601,12.057-8.8696,18.2609,2.8608,5.0845,10.6287,6.5033,16.1738,4.1739,6.991-2.9367,11.4373-12.2461,7.8262-18.2609Z"/>
      <path class="cls-4" d="M834.9537,519.8571c-1.4143-1.9462-4.1624-3.1377-6.6521-2.5435-3.9509.9429-6.407,6.181-4.6956,10.1739,1.2729,2.9698,4.7483,5.0113,7.6304,4.3043,4.3215-1.0601,6.5024-8.1022,3.7173-11.9348Z"/>
      <path class="cls-4" d="M850.2147,490.7702c-.3569-2.18-1.9209-5.2785-4.9565-5.7391-2.842-.4312-5.239,1.7128-6.261,3.6522-1.6316,3.0961-.8254,7.6949,2.3479,9.3913,1.8699.9996,4.2351.8169,6-.2609,2.6406-1.6125,3.2368-4.8006,2.8696-7.0435Z"/>
      <path class="cls-4" d="M815.7798,462.3354c-1.9172-2.9077-6.7488-3.764-9.9783-1.3696-3.1523,2.3373-3.8916,7.1146-1.5652,9.9783,1.7588,2.165,4.8708,2.7452,7.239,1.9565,4.0933-1.3632,6.6301-7.0381,4.3044-10.5652Z"/>
      <path class="cls-4" d="M829.2798,406.5745c-1.5576-3.0112-5.4641-4.2244-8.6086-3.3261-3.7197,1.0626-6.7471,5.1866-5.4783,9.1957,1.2185,3.8499,5.7844,5.6534,9.3914,4.5,4.2239-1.3507,6.6453-6.6005,4.6956-10.3696Z"/>
      <path class="cls-4" d="M666.3016,912.8571c-2.853-3.0464-8.0979-4.5827-11.4783-2.3478-4.3396,2.869-4.2871,11.0806,0,15.1304,2.989,2.8235,8.3843,3.9525,11.7393,1.3044,3.9985-3.1562,3.3145-10.2692-.261-14.0869Z"/>
      <path class="cls-4" d="M553.606,889.118c-5.3591-3.5418-13.2983-1.1432-15.6523,4.6956-2.0962,5.199.9287,11.4068,6,13.5652,3.8813,1.6519,8.8276.8752,11.7393-2.3478,3.9985-4.4262,3.2085-12.4133-2.0869-15.9131Z"/>
      <path class="cls-4" d="M483.6929,907.6397c-2.2849-2.8384-6.9285-3.3259-9.3914-.7826-2.2517,2.3251-1.812,6.286.261,8.6087,1.8738,2.0994,5.2917,3.0957,7.8259,1.5652,3.009-1.8174,3.627-6.5061,1.3044-9.3913Z"/>
      <path class="cls-4" d="M396.3016,914.9441c-1.3711-2.5521-5.5417-3.0876-8.3479-1.8261-3.905,1.7555-5.9233,7.3308-3.9128,9.9131,1.6157,2.0753,5.5527,1.8568,8.0869.5217,3.0879-1.6267,5.7043-5.7601,4.1738-8.6087Z"/>
      <path class="cls-6" d="M740.6495,913.5093c-2.9526-3.9256-10.2234-4.6838-14.4783-.7826-3.8879,3.5648-4.2783,10.1219-1.5652,12.913,3.9758,4.0901,15.2698.7657,17.2173-5.4782.6904-2.2139.2109-4.811-1.1738-6.6522Z"/>
      <path class="cls-6" d="M876.0408,946.3788c-1.3936-5.0921-7.0544-9.5889-12.522-8.2174-4.7341,1.1876-7.1763,6.2361-7.4346,10.174-.4033,6.1502,4.311,12.7825,9.7825,12.913,6.1592.147,12.0613-7.9736,10.1741-14.8696Z"/>
      <path class="cls-6" d="M915.7581,978.4658c-1.6699-1.3852-4.488-1.8595-6.0652-.587-2.2712,1.8326-1.5298,6.9338,1.3696,9,1.3425.9568,3.5779,1.569,5.0869.587,2.3809-1.5494,2.3855-6.6967-.3914-9Z"/>
      <path class="cls-6" d="M662.6495,1075.3788c-1.2671-4.4202-2.6936-9.3964-7.0435-10.9565-3.113-1.1166-6.8188-.1589-9.1306,1.8261-5.4014,4.6378-4.7249,16.1984,1.5654,21.6522,3.9226,3.401,10.8828,5.168,14.3477,2.087,3.5449-3.1525,1.6423-9.79.261-14.6087Z"/>
      <path class="cls-6" d="M307.4754,1093.5093c4.0278-3.0327,7.2253-9.5406,4.3044-14.4783-2.8193-4.7657-9.6687-5.2458-14.0869-3.5217-6.553,2.5571-10.9104,11.1932-7.8262,16.4348,2.9814,5.0673,12.157,5.67,17.6086,1.5652Z"/>
      <path class="cls-6" d="M240.5626,1121.8137c-1.8369-3.4519-4.4124-8.2919-8.0872-9.1304-7.9575-1.8156-21.6001,15.0106-17.4783,22.9565,2.3481,4.5268,9.9741,5.2314,14.3479,4.6957,5.5488-.6796,12.8696-4.2137,13.8262-9.9131.4729-2.8176-.7771-5.1665-2.6086-8.6086Z"/>
      <path class="cls-6" d="M523.0843,952.5093c-.7339-3.3627-5.9067-5.6883-9.3914-3.6522-3.1702,1.8524-4.1682,6.8625-1.8262,9.3913,2.001,2.1604,5.7568,1.7724,8.0869.2609,1.803-1.1695,3.655-3.5973,3.1306-6Z"/>
      <path class="cls-6" d="M839.4537,831.7267c-2.3687-2.0812-7.136.2416-7.4348.3913-3.4292,1.7187-7.061,5.9954-5.6738,9.1956,1.0488,2.4196,4.6152,3.4139,7.2393,3.1304.519-.0561,1.9326-.2251,3.3259-1.1739,3.7449-2.5501,5.1589-9.2456,2.5435-11.5435Z"/>
      <path class="cls-6" d="M1106.6495,851.8136c.5278-3.3731-4.5229-7.4105-9.1306-8.6087-4.2271-1.0992-10.9604-.5577-13.0435,3.9131-1.4358,3.0818-.2695,7.1883,2.0872,9.3913,5.7036,5.3315,19.2942.3695,20.0869-4.6956Z"/>
      <path class="cls-6" d="M1138.9971,894.3354c-2.4294-4.2426-9.0095-6.1319-13.3042-2.8696-3.792,2.8806-4.1292,8.5063-1.8262,12.2609,1.7854,2.9106,5.3933,5.0819,8.8696,4.4348,5.4304-1.011,9.2217-8.6549,6.2607-13.8261Z"/>
      <path class="cls-6" d="M907.0843,681.2049c-.958-4.3419-7.1982-6.7454-11.7393-4.9565-3.1948,1.2585-6.4009,4.928-5.4783,8.8696.9419,4.0239,5.6094,5.8649,9.1304,5.4783,4.7048-.5166,9.0139-5.1921,8.0872-9.3913Z"/>
      <path class="cls-6" d="M985.345,673.9006c-2.6487-4.8761-11.6189-5.6956-14.6086-1.5652-1.8625,2.5733-1.2278,6.8244,1.0435,9.3913,3.2527,3.6762,9.8115,3.8419,12.7827.2609,1.8484-2.2277,2.1023-5.6573.7825-8.087Z"/>
      <path class="cls-6" d="M1134.0408,531.4658c-3.0745-4.1744-8.8708-4.9535-13.0437-2.8696-3.1504,1.5733-6.1011,5.1407-5.739,9.3913.4155,4.8806,4.958,7.8376,8.6086,8.6087.6182.1306,6.3564,1.2433,9.9131-2.8696,2.9548-3.4171,2.8901-8.691.261-12.2609Z"/>
      <path class="cls-6" d="M1191.4319,477.9875c-4.1177-3.7247-12.9412-1.7508-16.1738,3.913-1.8677,3.2726-2.3274,8.5802,1.0435,12,3.426,3.4757,8.9133,3.0785,12.261,1.0435,5.7651-3.5047,7.1646-13.0712,2.8694-16.9565Z"/>
      <path class="cls-6" d="M1210.606,510.8571c-1.635-1.8987-5.0454-1.7054-7.2393-.587-3.2075,1.6352-5.4585,6.0856-3.7173,8.8044,1.5129,2.3624,5.5701,2.6836,8.2173,1.1739,3.3474-1.909,4.8276-6.9662,2.7393-9.3913Z"/>
      <path class="cls-6" d="M1030.2147,539.8136c-1.8418-3.2409-6.7781-3.4621-9.7827-1.5652-2.0884,1.3184-3.9409,4.1001-3.2607,6.7826.8931,3.5227,5.8303,5.6002,9.5217,3.913,3.3542-1.5331,5.3003-6.001,3.5217-9.1304Z"/>
      <path class="cls-6" d="M979.345,441.2049c-3.1836-2.6413-8.1023-2.6573-11.4783-.2609-4.2966,3.0499-5.7087,9.7335-2.0869,14.087,3.3242,3.9957,9.4749,4.3286,13.3044,1.3043,4.698-3.7101,4.6531-11.4861.2607-15.1304Z"/>
    </g>
  </g>
</svg>