<?xml version="1.0" encoding="UTF-8"?>
<svg id="Capa_2" xmlns="http://www.w3.org/2000/svg" viewBox="0 0 630.7218 658.0801">
  <defs>
    <style>
      .cls-1 {
        fill: #70569b;
      }

      .cls-2 {
        fill: #5f488c;
      }

      .cls-3 {
        fill: #9570c2;
      }

      .cls-4 {
        fill: #b29ad8;
      }

      .cls-5 {
        fill: #604593;
      }

      .cls-6 {
        fill: #47327c;
      }

      .cls-7 {
        fill: #a486ce;
      }

      .cls-8 {
        fill: #735aaf;
      }

      .cls-9 {
        fill: #8566b2;
      }
    </style>
  </defs>
  <g id="Capa_1-2" data-name="Capa_1">
    <g>
      <g>
        <path class="cls-3" d="M317.9196,654.0725c-3.1299,0-6.001-.7192-8.5342-2.1382-6.6914-3.7419-10.2285-11.9121-9.957-23.0039.0342-1.4871.1113-2.9954.1895-4.5081.293-5.6711.5693-11.0273-1.4971-15.4753-4.2363-9.1287-18.6436-14.7778-29.5625-14.7778-2.9922,0-5.6523.3882-7.9053,1.1536-1.9463.6558-11.7598,4.3381-14.7539,12.7495-.96,2.6951-.7002,4.3086-.2295,7.2378.5098,3.1763,1.1445,7.1294.3086,13.5093-.8965,6.8027-2.0117,15.2656-8.7988,20.1023-3.0771,2.1877-6.9688,3.3425-11.2578,3.3425-4.1602.0002-8.6602-1.1157-12.3477-3.062-14.6621-7.7463-16.3721-27.8945-16.4268-36.1975-.0283-3.8916.3945-5.8286.9795-8.5098.5547-2.5432,1.3154-6.0264,2.1035-13.3928,1.2178-11.408,2.0225-18.9451.3789-22.3352-1.9971-4.1106-10.6064-8.1782-23.6367-14.3354-1.3359-.6309-2.7344-1.3386-4.1797-2.0708-5.4785-2.7749-11.6865-5.9199-17.1162-5.9199-1.2832,0-2.4473.1702-3.5605.5203-1.8418.5767-3.6514,1.7458-5.5674,2.9834-2.4141,1.5593-5.1504,3.3267-8.4268,4.1423-1.3057.3267-2.6738.4927-4.0625.4927-4.2676.0002-8.79-1.5806-12.7334-4.4514-7.1953-5.2483-12.0264-13.9766-13.6055-24.5793-.7158-4.8169-.0879-10.0388.5205-15.0884.791-6.5801,1.5391-12.7949-.5918-17.313-1.9805-4.2039-5.8154-6.8435-9.876-9.6379-3.0146-2.0718-4.8096-2.7432-6.8887-3.5208-1.9688-.7363-4.2002-1.571-7.3008-3.5549-3.124-1.9958-12.6367-8.0745-15.958-18.499-1.8379-5.7744-.71-10.1633.1953-13.6899l.1201-.4666c.7861-3.0415,1.168-5.0786-.123-7.8237-3.3838-7.2095-10.126-10.3159-12.3408-11.3367-4.9277-2.2822-8.5703-2.2881-13.6113-2.2961-5.0859-.0083-11.415-.0186-20.5322-2.5974-6.2666-1.7712-10.4062-2.9417-13.249-6.4377-3.4209-4.1843-4.7568-10.5398-3.7544-17.8872,1.5508-11.3687,8.147-22.6599,16.8042-28.7656,3.7793-2.6614,6.7803-3.5535,9.4277-4.3403,2.8857-.8577,5.165-1.5352,8.6221-4.5815,5.1045-4.5046,7.7041-9.8037,11.3018-17.1382,3.6836-7.5103,5.3486-10.9038,5.1572-14.3533-.4717-8.8613-8.4766-15.2268-10.0762-16.4131-2.0146-1.5042-3.1533-1.9065-4.3594-2.333-1.4834-.5244-3.165-1.1191-5.2217-3.0986-8.7656-8.4412-7.5879-25.6292-1.8945-38.2454,3.0977-6.8589,6.4111-9.7683,9.9199-12.8489,2.9551-2.5947,6.0098-5.2776,9.7686-11.1445,3.5518-5.554,4.2305-8.4719,5.1709-12.5107.8965-3.8508,2.0117-8.6431,5.8125-16.6638,3.9443-8.3247,8.1289-14.5769,11.4912-19.6008,4.8281-7.2151,7.0918-10.8198,5.7959-13.8984-.4961-1.1787-1.2793-1.8914-2.3643-2.8779-1.7295-1.574-4.0977-3.7297-5.0127-8.0581-1.5059-7.1951,1.8711-15.5745,7.8525-19.4993,2.1973-1.4407,4.4648-2.1113,7.1387-2.1113,1.248,0,2.4922.1362,3.8096.2808,1.5615.1711,3.3311.365,5.4707.365,1.2373,0,2.4678-.0625,3.7627-.1914,7.2598-.7119,13.4863-2.876,18.5107-6.4331,2.4326-1.7251,9.7725-6.9319,11.6973-15.0173,1.8447-7.7683-2.6367-16.979-12.9473-37.0723-1.1006-2.1445-2.0674-3.959-2.9043-5.5305-3.4795-6.5339-5.2256-9.8137-4.665-15.1021,1.1396-10.7961,11.0205-21.3015,22.4951-23.9143,1.8398-.4185,3.7334-.6304,5.6309-.6304,10.7734,0,21.0156,6.4812,35.1914,15.4514,3.3564,2.1213,5.7285,3.8181,7.6348,5.1814,3.4736,2.4839,5.0586,3.6177,8.5918,4.5366,2.3691.6157,4.6738.915,7.043.915,5.6992,0,11.2588-1.7258,18.2979-3.9109,5.4668-1.7029,19.8848-6.1941,34.3584-18.635,4.4033-3.7805,6.7168-6.4961,8.5752-8.678,2.4248-2.8462,4.3398-5.0945,8.6045-7.1973,4.1816-2.0593,8.8906-3.103,13.9971-3.103,8.2871,0,17.8516,2.7751,28.4268,8.2485,2.0381,1.1011,9.2109,4.5837,18.6152,4.5837,4.7578,0,9.3936-.907,13.7793-2.6956,7.0107-2.8589,12.7861-7.6521,17.166-14.2468,4.4668-6.7334,11.8145-10.7544,19.6533-10.7544,2.3389,0,4.6543.3669,6.8828,1.0906,3.5898,1.1614,6.5527,3.0308,8.8027,5.5547,3.8594,4.3416,4.1846,9,4.4717,13.1101.2539,3.6287.4932,7.0559,3.0088,10.8193,2.832,4.2271,10.2559,7.2795,23.7314,12.8208,9.9512,4.0876,15.9297,6.5435,24.6318,7.918,4.1953.6609,8.1426.9963,11.7314.9963,17.4258,0,28.7451-7.5889,36.7041-24.6055.6787-1.4553,1.3516-2.9382,2.0273-4.4304,5.1074-11.2703,10.8965-24.0444,22.749-30.2698,3.0332-1.5906,5.8252-2.3633,8.5361-2.3633.3203,0,.6387.011.959.0337,3.7588.2615,7.1221,2.0215,9.7217,5.0894,3.7324,4.405,5.6543,11.2832,5.0156,17.9502-1.4902,15.6763-11.084,28.2075-20.3623,40.3264-2.9824,3.8962-6.0674,7.9255-8.7627,11.9292-8.9932,13.356-11.1328,27.0894-6.0264,38.6697,5.127,11.6274,17.2432,19.6602,33.2412,22.0388.6875.1042,1.4199.1562,2.1914.1562h11.0195c11.8721,0,21.8975,8.885,23.3184,20.6672l1.4502,11.9578c.4111,3.3638.0947,6.719-.9404,9.9685-1.9277,6.0417-1.9121,10.9844.0459,14.6926,1.2725,2.4133,2.8662,3.3772,5.0732,4.7112,2.4121,1.4585,5.4141,3.2737,8.0078,7.2024,7.6123,11.5696,2.8037,27.4099.4922,35.0225-1.9004,6.2524-4.0879,10.4001-5.8457,13.7332-2.2812,4.3245-3.0332,5.9517-2.3047,8.5342.7568,2.6877,2.7539,5.1833,6.1064,7.6318,1.9502,1.4272,3.9229,2.5061,5.2295,3.22,4.3535,2.4043,7.5439,2.9102,10.3594,3.3567,3.3652.5337,6.8457,1.0854,10.0762,4.5957,6.5107,7.085,6.6562,20.6128.3193,29.5427-3.0859,4.3386-6.5088,5.6538-9.8193,6.9255-2.7344,1.0503-5.5605,2.1362-9.3555,5.1311-7.8291,6.2161-12.3594,13.1653-12.7734,19.5823-.2344,3.5959.8633,5.3364,2.6807,8.2195,1.8955,3.0059,4.2539,6.7466,5.4336,13.2805,2.251,12.5081-1.3105,26.438-9.0713,35.4902-3.4072,3.9731-6.2236,5.4275-8.9473,6.834-2.5459,1.3145-4.9512,2.5562-8.582,6.2913-8.5742,8.811-18.3994,26.5886-12.2617,36.7671,2.8584,4.7351,8.041,6.5493,14.042,8.6499,3.2646,1.1426,6.6406,2.3242,9.748,4.0811,10.2148,5.77,16.3066,17.8853,14.8135,29.4612-1.5156,11.7476-10.5811,21.8379-22.0459,24.5378-2.0166.4768-4.1182.719-6.2432.719-9.7305,0-19.29-5.1323-24.3545-13.075-.3877-.6091-.7744-1.2485-1.168-1.8987-1.5898-2.6292-3.5693-5.9011-5.29-5.9011-.0557,0-.1113.0024-.168.0076-1.167.1018-2.7148,1.7268-3.2227,2.2607-4.6494,4.9163-7.1191,10.7839-9.7324,16.9961-1.7061,4.0527-3.4697,8.2434-5.9131,12.321-5.5527,9.2617-15.79,13.2966-26.0273,16.2771l-1.6631.4814c-6.2686,1.8086-12.75,3.6787-17.8291,7.165-2.3672,1.6299-4.0352,3.9531-5.8008,6.4128-2.0137,2.8044-4.2949,5.9832-7.8633,8.3169-4.8877,3.196-8.9189,3.4243-15.0215,3.7698-2.9033.1643-6.5156.3689-11.2012.9348-15.1475,1.8406-22.7529,2.7644-29.9229,7.5293-4.1729,2.7778-6.4883,5.6797-8.5303,8.24-2.7754,3.4778-5.6445,7.074-11.6455,7.7263-.4941.0544-1.0059.0823-1.5137.0825-3.8076,0-7.0938-1.5469-9.9922-2.9114-2.1699-1.0217-4.2207-1.9868-6.166-2.1768-.5459-.0522-1.1289-.0791-1.7266-.0791-5.9502,0-13.7725,2.7427-19.0234,6.6699-3.7988,2.8435-7.2373,8.1777-5.8076,13.1675.5029,1.7678,1.625,3.5376,2.8125,5.4114,1.626,2.5649,3.4688,5.4719,4.084,9.03,1.3945,8.053-3.9346,16.2356-14.2549,21.887-5.3389,2.9319-10.3467,4.4194-14.8789,4.4194Z"/>
        <path class="cls-4" d="M533.7394,8.0146c.2247,0,.4496.0073.6748.0234,8.05.5601,11.8,10.6201,11.03,18.6602-1.85,19.46-17.54,34.1802-28.46,50.3999-20.5901,30.5801-5.9,61.5801,29.95,66.9102.92.1401,1.85.1997,2.78.1997h11.02c9.86,0,18.1599,7.3604,19.34,17.1401l1.45,11.96c.3401,2.7803.0701,5.6001-.78,8.27-1.73,5.4199-2.6899,12.0801.3201,17.7803,3.47,6.5801,8.95,5.6899,13.28,12.25,6.58,10,2.1499,24.5801,0,31.6597-4.25,13.98-10.24,17.1704-8.17,24.5103,1.2,4.2598,4.41,7.4497,7.6,9.7798,2.0901,1.5303,4.17,2.6802,5.67,3.5,10.0499,5.5503,14.9,2.25,19.41,7.1499,5.33,5.8003,5.01,17.4502,0,24.5103-4.51,6.3398-9.3301,4.0801-18.39,11.23-2.4301,1.9302-13.53,10.7002-14.29,22.4702-.61,9.3599,5.99,10.3896,8.17,22.4697,1.9399,10.7803-.8401,23.6201-8.17,32.1699-5.9,6.8804-9.33,4.6802-17.36,12.9399-9.03,9.2803-20.4301,29.0103-12.8201,41.6304,5.42,8.98,16.9,9.4297,25.25,14.1499,8.78,4.96,14.1001,15.46,12.8101,25.46s-9.1801,18.8398-18.99,21.1499c-1.7472.4131-3.5359.6123-5.324.6123-8.2516,0-16.5214-4.2358-20.9761-11.2222-2.5859-4.0625-5.1909-9.6523-9.8361-9.6523-.1686,0-.3398.0073-.5139.0225-2.29.1997-4.1899,1.8198-5.78,3.4897-8.36,8.8398-10.1799,20.0103-16.1799,30.02-4.9401,8.2402-14.61,11.8398-23.7101,14.4902-7.0099,2.04-14.5499,4.0098-20.6399,8.1899-5.9401,4.0898-7.75,10.8599-13.5901,14.6797-6.01,3.9302-10.1899,2.3501-24.51,4.0801-15.6399,1.8999-23.7,2.8799-31.6599,8.1699-10.41,6.9302-10.48,14.46-18.39,15.3203-.3636.04-.7241.0586-1.0802.0586-5.5195,0-10.1898-4.5239-15.7698-5.0688-.6903-.0659-1.3977-.0981-2.1158-.0981-7.3131-.0005-15.8605,3.3071-21.4243,7.4683-5.37,4.02-9.11,11.02-7.2599,17.48,1.43,5.02,5.91,8.8701,6.8,14.02,1.31,7.5601-5.51,14.0098-12.23,17.6899-3.9496,2.1689-8.5601,3.9272-12.9542,3.9272-2.2923,0-4.5257-.4785-6.5759-1.627-6.42-3.5903-8.09-12.0601-7.91-19.4102.17-7.3501,1.42-15.1001-1.6801-21.77-4.9115-10.5845-20.4133-17.0962-33.1959-17.0962-3.3274,0-6.4697.4409-9.194,1.3662-1.75.5898-13.53,4.7798-17.24,15.1997-2.5601,7.1904,1.43,9.75-.1201,21.5703-.86,6.5298-1.79,13.54-7.15,17.3599-2.5969,1.8457-5.7543,2.5986-8.9324,2.5986-3.7609,0-7.5509-1.0537-10.4777-2.5986-14.12-7.46-14.27-29.5601-14.29-32.6802-.05-6.9897,1.46-6.4897,3.06-21.4497,1.43-13.3901,2.1-20.1802,0-24.5103-2.56-5.27-10.25-8.9897-25.53-16.21-6.7389-3.1826-15.0883-8.374-23.0079-8.375-1.6114,0-3.2034.2148-4.7621.7051-4.95,1.5503-8.74,5.8101-13.76,7.0601-1.0207.2554-2.0579.374-3.0952.374-3.6782,0-7.3639-1.4922-10.3748-3.6841-6.91-5.04-10.7401-13.4697-12-21.9302-1.54-10.3599,4.06-24.0396-.41-33.5195-2.44-5.1802-6.87-8.2305-11.23-11.2305-6.43-4.4199-8.44-3.3999-14.3-7.1499-2.88-1.8398-11.42-7.2998-14.3-16.3398-1.56-4.8999-.5-8.5.38-11.9502.85-3.29,1.53-6.46-.38-10.52-3.91-8.3296-11.49-11.98-14.29-13.27-11.27-5.2197-17.3-.1797-34.73-5.1099-6.12-1.73-9.23-2.6499-11.23-5.1099-7.44-9.1001-1.22-31.3501,12.25-40.8501,7.2-5.0698,10.9-2.5898,18.39-9.1899,5.7-5.0298,8.59-10.9199,12.25-18.3799,3.87-7.8901,5.81-11.8301,5.56-16.3403-.58-10.8999-10.18-18.29-11.69-19.4097-4.89-3.6499-6.27-2.29-9.19-5.1001-7.31-7.04-6.02-22.6299-1.02-33.71,5.24-11.6001,10.89-10.1802,19.41-23.48,7.47-11.6802,3.61-13.54,11.23-29.6201,9.67-20.4102,20.98-28.1699,17.36-36.77-1.9-4.5098-5.9901-4.7197-7.15-10.21-1.13-5.3999,1.36-12.1899,6.13-15.3198,1.7172-1.126,3.2379-1.4546,4.9406-1.4546,2.3871,0,5.1322.6455,9.2803.6455,1.2496,0,2.6264-.0586,4.1592-.2109,3.16-.3101,12.18-1.3101,20.43-7.1504,2.72-1.9297,11-7.7798,13.28-17.3599,2.22-9.3501-2.92-19.6401-13.28-39.8301-5.53-10.77-7.69-13.29-7.15-18.3799.96-9.1001,9.65-18.21,19.4-20.4302,1.581-.3594,3.1564-.5303,4.7404-.5303,9.6071,0,19.5374,6.2803,33.0496,14.8306,9.54,6.0298,10.9,8.5298,17.36,10.21,2.8106.73,5.4588,1.0439,8.0518,1.0439,6.3188,0,12.3101-1.8633,19.5282-4.104,6.26-1.9502,20.93-6.6802,35.74-19.4102,10.11-8.6797,9.83-12.1099,16.34-15.3198,3.879-1.9102,8.0257-2.6899,12.2245-2.6899,9.4074,0,19.0768,3.9146,26.5854,7.7998,1.4597.7896,9.5883,5.0327,20.4562,5.0327,4.6927,0,9.8956-.791,15.2938-2.9927,9.4401-3.8501,15.41-10.3501,18.99-15.7397,3.7065-5.5869,9.8872-8.9648,16.3157-8.9648,1.8792,0,3.7783.2886,5.6444.8945,2.72.8804,5.1599,2.29,7.0499,4.4102,5.92,6.6602.9501,14.23,7.14,23.4902,3.51,5.2397,10.85,8.2598,25.54,14.2998,10.2,4.1899,16.35,6.7202,25.53,8.1699,4.3315.6826,8.4515,1.0454,12.3558,1.0454,17.891,0,31.3046-7.6089,40.3341-26.9155,5.77-12.3599,10.9399-26.5098,23.01-32.8496,2.0696-1.0854,4.3553-1.9038,6.6752-1.9038M533.7394,0c-3.377,0-6.778.9229-10.3973,2.8208-13.0741,6.8672-19.165,20.3062-24.5391,32.1631-.6703,1.479-1.3364,2.9487-2.011,4.394-7.3068,15.623-17.1981,22.291-33.0718,22.291-3.3805,0-7.1178-.3188-11.1085-.9478-8.2351-1.3003-13.7216-3.5542-23.6814-7.6455l-.0507-.021c-12.3286-5.0688-19.7715-8.1289-21.9268-11.3467-1.9194-2.8716-2.095-5.3853-2.3381-8.8647-.2987-4.2759-.7076-10.1313-5.4703-15.4897-2.7371-3.0703-6.2914-5.3252-10.572-6.7104-2.6204-.8511-5.3524-1.2842-8.1127-1.2842-9.1853,0-17.7812,4.6914-22.994,12.5488-3.9248,5.9087-9.0861,10.1992-15.3382,12.7495-3.9031,1.5918-8.0304,2.3989-12.2672,2.3989-8.683,0-15.3875-3.3882-16.6434-4.0674l-.0644-.0352-.0651-.0337c-11.3087-5.8516-21.2097-8.6963-30.2688-8.6963-5.7253,0-11.0295,1.1826-15.7652,3.5146-5.0099,2.4702-7.3781,5.25-9.8854,8.1934-1.8607,2.1841-3.9696,4.6597-8.1346,8.2354-13.8478,11.9028-27.6915,16.2158-32.9031,17.8394-6.7467,2.0942-12.052,3.7412-17.1444,3.7412-2.0249,0-3.9995-.2573-6.0365-.7866-2.8122-.731-3.9345-1.5337-7.2659-3.9165-1.9479-1.3931-4.372-3.127-7.8274-5.311-14.1873-8.9775-25.3962-16.0703-37.3316-16.0703-2.1953,0-4.3881.2456-6.5175.73-13.0446,2.9702-24.2855,15.0073-25.5933,27.4043-.6902,6.5059,1.4947,10.6084,5.1145,17.4053.84,1.5771,1.792,3.3647,2.8762,5.4761,9.585,18.6797,14.1256,27.9424,12.6119,34.3179-1.5736,6.6118-7.9873,11.1621-10.0949,12.6572-4.4668,3.1621-10.0458,5.085-16.6,5.7285-1.1722.1162-2.273.1729-3.3764.1729-1.9209,0-3.5037-.1738-5.0343-.3413-1.366-.1499-2.7785-.3047-4.2461-.3047-3.4899,0-6.4563.8794-9.3353,2.7671-7.4045,4.8584-11.4326,14.8101-9.58,23.6636,1.1852,5.6094,4.3497,8.4893,6.2405,10.2095.9556.8696,1.2335,1.1504,1.3683,1.4707.5149,1.2231-2.9234,6.3604-5.434,10.1113-3.4358,5.1338-7.7118,11.5225-11.7829,20.1152-3.9848,8.4092-5.1541,13.4336-6.0936,17.4712-.9123,3.9199-1.4629,6.2861-4.6454,11.2627-3.45,5.3853-6.1629,7.7676-9.0352,10.2896-3.5027,3.0757-7.4727,6.562-10.9271,14.209-6.0787,13.4707-7.8056,32.6025,2.7644,42.7822,2.6839,2.5825,5.0812,3.4302,6.6676,3.9912,1.0663.377,1.7708.626,3.2881,1.7588.8457.627,8.0971,6.2041,8.4806,13.4126.1292,2.3301-1.2661,5.2778-4.717,12.313l-.0353.0723c-3.3954,6.9209-5.849,11.9214-10.3572,15.8999-2.7909,2.459-4.4171,2.9424-7.1113,3.7432-2.7964.8311-6.2767,1.8657-10.5902,4.9033-9.5278,6.7192-16.7758,19.0835-18.47,31.5015-1.1544,8.4619.4897,15.9106,4.6295,20.9741,3.6284,4.4629,8.5051,5.8413,15.2547,7.7495,9.648,2.729,16.2835,2.7397,21.6152,2.748,4.8668.0078,7.8044.0127,11.9267,1.9219,1.9011.876,7.6419,3.521,10.4032,9.4033.6566,1.3955.6375,2.1587-.1248,5.1094l-.1242.4844c-.9792,3.8115-2.3204,9.0312-.1329,15.9019,3.7617,11.8081,14.194,18.4727,17.6221,20.6626,3.4528,2.2095,6.0026,3.1636,8.0513,3.9297,1.9814.7412,3.4129,1.2764,6.0234,3.0708,3.7553,2.584,7.0011,4.8174,8.5196,8.041,1.6399,3.478.9273,9.4004.2382,15.1279-.6393,5.313-1.3004,10.8062-.5052,16.1548,1.7388,11.6753,7.1384,21.3438,15.2047,27.2271,4.6288,3.3701,9.9886,5.2236,15.0977,5.2236,1.716,0,3.4114-.2065,5.0392-.6133,3.9148-.9751,6.9479-2.9341,9.6239-4.6626,1.6812-1.0859,3.269-2.1118,4.5875-2.5249.7275-.2285,1.4985-.3384,2.3662-.3384,4.4733.0005,10.2299,2.9165,15.3088,5.4893,1.4774.748,2.8729,1.4551,4.277,2.1182,10.4709,4.9478,20.3626,9.6221,21.7436,12.4648,1.1411,2.353.26,10.6035-.7603,20.1572-.7646,7.1499-1.4979,10.5098-2.0332,12.9634-.5918,2.7124-1.1029,5.0547-1.0719,9.3945.0578,9.0176,1.9822,30.9507,18.5605,39.7095,4.3105,2.2749,9.3601,3.5269,14.2215,3.5269,5.1254,0,9.8198-1.4111,13.5757-4.0806,8.2148-5.8545,9.5082-15.6753,10.4527-22.8462.9131-6.9634.1978-11.4175-.3244-14.6694-.4586-2.856-.5443-3.5933.0487-5.2593,2.4242-6.8086,11.2509-9.9561,12.2494-10.293,1.8296-.6211,4.1176-.9463,6.6344-.9463,10.9205,0,22.7932,5.7041,25.9259,12.4551,1.65,3.5503,1.3983,8.4243,1.1318,13.5845-.0777,1.5034-.158,3.0581-.1942,4.627-.3096,12.6387,3.9558,22.0854,12.0105,26.5903,3.1333,1.7549,6.6635,2.6465,10.4879,2.6465,5.2143,0,10.8705-1.6543,16.8116-4.917,11.8862-6.5093,17.9713-16.2617,16.2693-26.083-.7504-4.3423-2.9108-7.751-4.6469-10.4893-1.0281-1.6221-1.9991-3.1543-2.3422-4.3584-.7552-2.6372,1.1184-6.4453,4.3551-8.8682,4.5466-3.4004,11.5378-5.8701,16.6208-5.8696.4712,0,.9257.0205,1.3512.0615,1.2417.1211,2.9869.9429,4.8347,1.8125,3.1166,1.4673,6.9955,3.293,11.7001,3.293.6531,0,1.3114-.0356,1.9565-.1069,7.6489-.8315,11.3553-5.4771,14.3334-9.21,1.9507-2.4448,3.9677-4.9727,7.6216-7.4053,6.3734-4.2358,13.2087-5.0659,28.1852-6.8853,4.553-.5503,8.0951-.7505,10.941-.9116,6.26-.3545,11.2046-.6343,16.9889-4.417,4.1946-2.7432,6.7083-6.2446,8.926-9.334,1.6238-2.2617,3.0262-4.2153,4.8228-5.4521,4.5352-3.1128,10.7002-4.8916,16.6621-6.6118l1.6721-.4839c11.022-3.21,22.0829-7.6201,28.3445-18.0645,2.5907-4.3223,4.4104-8.6465,6.17-12.8281,2.576-6.1221,4.8007-11.4092,8.959-15.8062.0907-.0952.176-.1831.2562-.2637.7003.9531,1.514,2.2988,2.076,3.2285.4091.6763.8119,1.3408,1.2137,1.9722,5.8748,9.2129,16.5016,14.9331,27.7371,14.9331,2.4347,0,4.8466-.2783,7.1685-.8276,13.0475-3.0723,23.3696-14.5557,25.0942-27.9238,1.6965-13.1509-5.2188-26.9116-16.8168-33.4634-3.4172-1.9316-6.9644-3.1733-10.3948-4.374-6.0898-2.1313-9.9243-3.6069-11.9355-6.9395-4.7633-7.8989,3.8956-23.8765,11.7024-31.8994,3.1783-3.2695,5.2036-4.3149,7.5487-5.5259,2.7781-1.4346,6.2355-3.2197,10.1512-7.7861,8.5143-9.9312,12.4291-25.1636,9.974-38.8066-1.3184-7.3052-4.0175-11.5854-5.9884-14.7109-1.7972-2.8501-2.2161-3.6074-2.072-5.8184.3407-5.2754,4.3348-11.2017,11.2468-16.6914,3.3281-2.6265,5.7532-3.5581,8.3207-4.5444,3.5027-1.3457,7.8618-3.0205,11.6458-8.3394,7.359-10.3701,7.0682-26.2021-.6293-34.5791-4.1792-4.5405-8.7384-5.2632-12.4017-5.8442-2.7316-.4331-5.3114-.8418-9.0353-2.8984-1.2434-.6797-3.0763-1.6816-4.8102-2.9512-2.571-1.8779-4.123-3.7222-4.6201-5.4863-.2682-.9512-.2461-1.3364,1.9916-5.5796,1.7402-3.2998,4.1237-7.8188,6.1323-14.4263,2.4915-8.2041,7.6708-25.2598-.9729-38.396-3.0974-4.6929-6.6737-6.855-9.285-8.4341-2.1639-1.3081-2.8827-1.7871-3.6011-3.1489-1.4391-2.7256-1.3624-6.6289.226-11.605,1.2129-3.8096,1.5825-7.7373,1.1002-11.6802l-1.449-11.9517c-1.6637-13.7886-13.3987-24.1899-27.2963-24.1899h-11.02c-.5719,0-1.1013-.0361-1.5736-.1084-14.6372-2.1763-25.6317-9.3535-30.1923-19.6958-4.5315-10.2769-2.5129-22.6411,5.684-34.8149,2.6273-3.9023,5.5385-7.7046,8.6205-11.7305,9.6216-12.5674,19.5707-25.563,21.1699-42.3872.7375-7.6992-1.5414-15.7163-5.9479-20.917-3.3142-3.9116-7.6382-6.1582-12.5044-6.4966-.3997-.0283-.8167-.043-1.2311-.043h0Z"/>
      </g>
      <path class="cls-5" d="M447.5342,376.6283c-1.26,34.68-11.91,50.5099-38.81,72.44-19.3,15.74-42.91,26.56-67.7,28.98-57.61,5.65-113.51-37.49-131.25-92.59-7.6-23.6-8.92-48.55-5.18-72.96,4.98-32.6,19-64.26,39.16-90.5,15.33-19.93,37.6-38.55,62.5-35.99.27.03.53.12.79.09,89.13-10.99,108.75,67.94,113.64,96.28.4,2.32.84,4.5099,1.31,6.59,8.3701,36.99,27.28,39.31,25.54,87.66Z"/>
      <path class="cls-6" d="M447.5342,376.6283c-1.26,34.68-11.91,50.5099-38.81,72.44-19.3,15.74-42.91,26.56-67.7,28.98-57.61,5.65-113.51-37.49-131.25-92.59-7.6-23.6-8.92-48.55-5.18-72.96,3.4,11.64,8.51,25.93,16.94,42.26,14.57,28.22,31.11,60.25,65.36,71.5099,30.78,10.13,59.17-2.02,66.38-5.1,7.37-3.16,35.31-16.14,50.04-45.71,4.86-9.75,4.73-14.17,10.22-43.16,3.33-17.63,6.06-32.06,8.46-43.33,8.3701,36.99,27.28,39.31,25.54,87.66Z"/>
      <path class="cls-8" d="M331.5735,195.2072c-18.4446-2.2299-27.667-3.3449-38.2979,0-4.4334,1.3949-22.8642,7.4922-32.9362,25.2766-3.3703,5.951-8.7295,15.414-4.5957,24.5106,2.978,6.5533,10.4214,11.9012,17.617,11.4894,8.3725-.4792,9.3549-8.3525,22.9787-18.383,2.8635-2.1082,13.6975-9.935,28.7732-13.6938,14.6323-3.6483,22.1461-.6934,25.6098-6.221,2.981-4.7574.8409-12.4127-3.0638-16.8511-3.552-4.0374-8.3727-5.1953-16.0851-6.1277Z"/>
      <path class="cls-8" d="M242.7018,263.2257c-12.0808-.2288-17.7466,29.0405-18.4347,36.7554-.1746,1.9583-.2541,4.0187.5847,5.7968.8546,1.8116,2.5423,3.0737,4.2313,4.1503,3.001,1.9129,6.2184,3.4861,9.5709,4.6802,3.3265,1.1848,7.775,1.6466,9.704-1.3112.8472-1.299.936-2.9323,1.0259-4.4806.368-6.3426,1.1862-12.6591,2.4466-18.8861.8954-4.424,2.0202-8.8739,1.7902-13.3817-.2299-4.5067-2.0706-9.203-5.8778-11.6253-1.791-1.1395-3.4703-1.668-5.0412-1.6977Z"/>
      <path class="cls-7" d="M61.1905,291.6495c-3.5881-10.1466-5.3822-15.2198-5.1064-19.5062.6827-10.6119,7.729-14.0492,21.4468-31.8375,12.4637-16.1621,18.6955-24.2432,20.4255-35.4248,2.2703-14.6734-4.7955-18.8641,0-29.7749,5.8431-13.2942,21.5452-18.931,23.4893-19.6004,11.391-3.9221,15.2539.2976,21.4468-4.1196,8.9803-6.4053,10.5276-22.1758,8.1702-33.5406-3.7802-18.224-16.9392-21.9288-15.3192-34.7234,1.0832-8.5543,8.2888-17.3509,15.8884-18.1931,9.5698-1.0605,12.9344,11.2494,28.0265,19.2144,17.4517,9.2103,36.3568,5.1019,39.8298,4.3471,11.8586-2.5771,12.148-6.6497,49.0213-27.8365,13.7593-7.9058,17.2987-9.3956,22.4681-9.5668,13.5004-.4472,16.7425,8.8068,34.1349,10.5881,4.4238.4531,15.764,1.6145,27.0088-4.0851,10.0136-5.0756,11.1289-11.1201,17.4946-11.234,7.7625-.139,10.6749,8.7672,21.4468,18.5729,11.1245,10.1265,22.574,13.8778,35.7447,18.1931,16.4542,5.391,29.0148,9.5064,42.8936,5.3684,15.7026-4.6817,23.6169-17.1031,26.5532-14.8257,3.0892,2.396-7.6052,14.6438-6.1277,32.5634.8958,10.8644,5.8533,18.8121,7.6336,21.4379,6.7343,9.9327,13.5135,10.8351,38.3239,25.9241,20.6776,12.5757,22.5321,15.9406,23.4894,18.383,4.1997,10.7153-3.7277,16.7973,0,32.9078,2.3673,10.231,6.0017,9.6684,8.1702,19.9201.5804,2.7438,3.9224,18.5437-4.6793,31.705-5.882,9-14.3648,12.1999-25.9589,16.5734-13.0083,4.907-18.6915-11.0661-36.766-16.5734-15.0244-4.578-30.5104-10.7292-40.8511-23.767-19.8657-25.0472-19.5986-18.8093-37.7873-39.643-15.3567-17.5898-32.6436-25.4566-36.7659-27.2506-30.6769-13.3506-59.5883-6.9097-71.4894-4.0851-39.3076,9.3293-66.9714,22.9551-74.5433,31.3357-19.8477,21.9676-17.1027,24.7743-43.9248,63.41-20.5681,29.6273-51.6047,19.3804-70.2128,47.4671-21.7531,32.8337-16.8134,65.0839-35.234,79.7841-5.3363,4.2585-1.7464,25.6483-22.2128,14.9393-10.0721-5.2702-18.0031-18.2415-15.3192-27.5745,2.4425-8.4934,11.7035-7.1139,18.383-17.9854,7.3393-11.9454,4.1824-26.6711,3.0638-31.8889-2.2623-10.5528-5.7227-11.125-12.2553-29.5983Z"/>
      <path class="cls-9" d="M618.8542,312.7183c-4.51,6.34-9.33,4.08-18.39,11.23-2.43,1.93-13.53,10.7-14.29,22.47-.61,9.36,5.99,10.39,8.17,22.47,1.94,10.78-.84,23.6201-8.17,32.17-5.9,6.88-9.33,4.68-17.36,12.94-9.03,9.28-20.43,29.01-12.82,41.63,5.42,8.98,16.9,9.43,25.25,14.15,8.78,4.96,14.1,15.46,12.81,25.46-1.29,10-9.18,18.84-18.99,21.15-9.81,2.32-20.88-2.11-26.3-10.61-2.68-4.21-5.38-10.06-10.35-9.63-2.29.2-4.19,1.82-5.78,3.49-8.36,8.84-10.18,20.01-16.18,30.02-4.94,8.24-14.61,11.84-23.71,14.49-7.0099,2.04-14.55,4.01-20.64,8.19-5.94,4.09-7.75,10.86-13.59,14.68-6.01,3.9301-10.19,2.35-24.51,4.08-15.64,1.9-23.7,2.88-31.66,8.17-10.41,6.9301-10.48,14.46-18.39,15.32-6,.66-10.91-4.43-16.85-5.01-7.72-.74-17.43,2.8-23.54,7.3701-5.37,4.02-9.11,11.02-7.26,17.48,1.4301,5.02,5.91,8.87,6.8,14.02,1.31,7.56-5.51,14.0099-12.23,17.6899-6.0099,3.3-13.55,5.65-19.53,2.3-6.42-3.59-8.09-12.06-7.91-19.41.17-7.35,1.42-15.1-1.68-21.77-6.19-13.34-29.2-20.21-42.39-15.73-1.75.59-13.53,4.78-17.2401,15.2-2.56,7.19,1.43,9.75-.12,21.57-.86,6.53-1.79,13.54-7.15,17.36-5.67,4.03-14.01,2.85-19.41,0-14.12-7.46-14.27-29.56-14.29-32.68-.05-6.99,1.46-6.49,3.06-21.45,1.43-13.39,2.1-20.18,0-24.51-2.56-5.27-10.25-8.99-25.53-16.21-8.11-3.83-18.55-10.57-27.77-7.67-4.95,1.55-8.74,5.8101-13.76,7.0601-4.64,1.16-9.61-.5-13.47-3.3101-6.91-5.04-10.74-13.47-12-21.93-1.54-10.36,4.06-24.04-.41-33.52-2.44-5.18-6.87-8.23-11.23-11.23-6.43-4.42-8.44-3.4-14.3-7.15-2.8799-1.84-11.42-7.3-14.3-16.34-.54-1.69-.77-3.22-.79-4.64-.06-2.72.59-5.05,1.17-7.31,24.61-6.6,50.09-6.21,69.03-2.13,13.69,2.95,11.93,5.23,51.06,18.3701,20.49,6.8799,48.92,16.43,79.66,22.67,49.27,10.02,73.9,15.02,104.17,6.29,4.04-1.17,56.38-17.09,83.7401-65.14,16.43-28.84,7.11-39.84,26.56-71.69,4.18-6.86,13.21-20.43,53.1-54.3199,19.23-16.33,38.12-21.26,54.63-21.26,2.09,1.53,4.17,2.68,5.67,3.5,1.84,1.02,3.5,1.74,5.02,2.26,6.79,2.36,10.71.89,14.39,4.89,5.33,5.8,5.01,17.45,0,24.51Z"/>
      <path class="cls-1" d="M618.8542,312.7183c-4.51,6.34-9.33,4.08-18.39,11.23-2.43,1.93-13.53,10.7-14.29,22.47-.61,9.36,5.99,10.39,8.17,22.47,1.94,10.78-.84,23.6201-8.17,32.17-5.9,6.88-9.33,4.68-17.36,12.94-9.03,9.28-20.43,29.01-12.82,41.63,5.42,8.98,16.9,9.43,25.25,14.15,8.78,4.96,14.1,15.46,12.81,25.46-1.29,10-9.18,18.84-18.99,21.15-9.81,2.32-20.88-2.11-26.3-10.61-2.68-4.21-5.38-10.06-10.35-9.63-2.29.2-4.19,1.82-5.78,3.49-8.36,8.84-10.18,20.01-16.18,30.02-4.94,8.24-14.61,11.84-23.71,14.49-7.0099,2.04-14.55,4.01-20.64,8.19-5.94,4.09-7.75,10.86-13.59,14.68-6.01,3.9301-10.19,2.35-24.51,4.08-15.64,1.9-23.7,2.88-31.66,8.17-10.41,6.9301-10.48,14.46-18.39,15.32-6,.66-10.91-4.43-16.85-5.01-7.72-.74-17.43,2.8-23.54,7.3701-5.37,4.02-9.11,11.02-7.26,17.48,1.4301,5.02,5.91,8.87,6.8,14.02,1.31,7.56-5.51,14.0099-12.23,17.6899-6.0099,3.3-13.55,5.65-19.53,2.3-6.42-3.59-8.09-12.06-7.91-19.41.17-7.35,1.42-15.1-1.68-21.77-6.19-13.34-29.2-20.21-42.39-15.73-1.75.59-13.53,4.78-17.2401,15.2-2.56,7.19,1.43,9.75-.12,21.57-.86,6.53-1.79,13.54-7.15,17.36-5.67,4.03-14.01,2.85-19.41,0-14.12-7.46-14.27-29.56-14.29-32.68-.05-6.99,1.46-6.49,3.06-21.45,1.43-13.39,2.1-20.18,0-24.51-2.56-5.27-10.25-8.99-25.53-16.21-8.11-3.83-18.55-10.57-27.77-7.67-4.95,1.55-8.74,5.8101-13.76,7.0601-4.64,1.16-9.61-.5-13.47-3.3101-6.91-5.04-10.74-13.47-12-21.93-1.54-10.36,4.06-24.04-.41-33.52-2.44-5.18-6.87-8.23-11.23-11.23-6.43-4.42-8.44-3.4-14.3-7.15-2.8799-1.84-11.42-7.3-14.3-16.34-.54-1.69-.77-3.22-.79-4.64,15.85,3.3,29.522,17.402,43.64,25.47,18.726,10.7014,1.427,33.6642,11.2366,45.0843,7.1095,8.2766,16.6419-1.1278,24.8181-.9623,1.1561.0234,2.3287.2076,3.4583-.0402.9935-.218,1.882-.7552,2.7657-1.2588,14.9877-8.5413,41.0902-11.0523,53.7213,2.9471,8.47,9.38,8.27,23.7,8.17,30.63-.16,11.8-3.67,16.98,0,21.45,4.73,5.75,16.02,3.82,20.44,3.06,15.84-2.71,17.23-11.24,30.63-13.27,9.88-1.5,23.23,1,28.59,9.19,3.9901,6.09.46,10.59,5.06,16.34,5.22,6.53,16.53,9.18,21.9301,5.11,4.68-3.53,1.5699-9.59,5.6899-17.37,2.63-4.95,6.72-7.82,21.32-14.29,22.13-9.82,33.2-14.73,42-15.32,15.29-1.03,19.48,4.01,32.68,0,1.79-.55,10.0601-3.17,18.39-10.22,14.89-12.6,9.87-22.36,21.44-31.54,13.61-10.8,24.78-.65,39.83-12.95,9.43-7.71,9.62-15.42,17.36-16.59,10.36-1.56,17.26,11.14,23.49,8.03,4.27-2.12,5.89-10.49,3.07-15.06-2.42-3.93-6.5-2.44-11.24-6.44-4.12-3.48-5.18-8.16-7.15-17.36-1.96-9.23-3.21-15.09-2.04-22.47.36-2.22,1.32-7.03,12.26-24.51,10.94-17.48,12.53-16.74,15.32-24.11,2.98-7.9,1.29-9.12,4.08-27.97,2.47-16.7,3.71-25.05,7.25-30.12,8.45-12.07,18.71-7.45,28.5-18.74,4.33-5,6.2-10.39,7.1-15.48,6.79,2.36,10.71.89,14.39,4.89,5.33,5.8,5.01,17.45,0,24.51Z"/>
      <path class="cls-3" d="M212.0842,106.3562c-4.9408-3.2494-13.0869-.9913-16.8511,4.5957-3.5655,5.2921-3.1568,13.5079,2.2979,17.617,4.1963,3.1612,10.3903,3.147,14.5532,0,4.8864-3.694,4.6602-9.9551,4.5957-11.7413-.0602-1.6662-.2756-7.6302-4.5957-10.4715Z"/>
      <path class="cls-3" d="M266.4671,100.9945c-6.2486-.0133-11.6832,4.6782-12.816,10.7234-1.0118,5.3993,1.5407,11.1707,6.408,13.7872,5.4719,2.9416,11.0196.364,11.7697,0,4.1118-1.9951,7.6669-6.3525,7.6596-11.5696-.0093-6.6553-5.8133-12.9258-13.0213-12.9411Z"/>
      <path class="cls-3" d="M298.6373,64.9945c-6.4632-3.8768-16.2816-1.8216-19.1489,4.5957-2.4451,5.4723,1.0862,12.0532,5.3617,15.3191,5.2453,4.0067,14.0357,4.8765,18.3319,0,4.7303-5.3693,2.3276-15.7927-4.5447-19.9149Z"/>
      <path class="cls-3" d="M158.4671,83.8455c-2.6098-3.6019-9.1364-3.7125-12.2553,0-3.0109,3.584-2.0102,9.7361,1.7872,11.8298,2.9141,1.6067,6.6699.3796,8.8511-1.7021,2.6679-2.5462,3.7835-7.1376,1.617-10.1277Z"/>
      <path class="cls-3" d="M181.1905,154.1008c-2.0843-1.819-5.9869-1.9342-8.6808,0-3.1994,2.2971-3.8682,6.8919-2.0426,10.2128,1.6382,2.9799,5.1216,4.6371,8.6809,4.0851,5.0513-5.1299,4.9814-11.7331,2.0425-14.2979Z"/>
      <path class="cls-3" d="M192.9228,226.9389c-2.0078-3.4557-6.1253-5.2836-9.711-4.9231-5.6701.5701-10.8018,6.6919-10.7021,14.8085,3.5901,6.1005,11.1803,7.9437,16.3404,4.798,4.7923-2.9214,6.9131-9.7949,4.0727-14.6833Z"/>
      <path class="cls-3" d="M137.7863,185.0563c-2.2869-3.726-7.0092-5.6725-11.234-4.4023-5.2803,1.5876-7.7686,7.5941-6.6383,12.4421.8848,3.7951,4.1828,7.7201,8.7758,7.9834,5.7211.328,8.9149-5.2852,9.0966-5.617.2417-.4415,2.9511-5.5981,0-10.4063Z"/>
      <path class="cls-3" d="M152.0292,256.5061c-1.1165-4.8919-5.8014-8.7283-10.6684-8.4478-6.4703.3728-10.0942,7.8387-9.7021,13.2766.09,1.248.6542,6.0336,4.5958,8.1702,3.5347,1.9161,7.3131.3616,8.1922,0,4.2994-1.7688,8.9658-6.9386,7.5826-12.999Z"/>
      <path class="cls-3" d="M94.8927,245.5051c-3.9856-2.3683-9.6736.3241-12.2553,4.0851-.3473.5059-3.4674,5.2147-1.0213,9.6532,1.9633,3.5624,6.4641,5.0487,10.2128,3.981,4.5475-1.2952,6.3844-5.8921,6.6383-9.0384.0345-.4269.4233-6.3053-3.5745-8.6808Z"/>
      <path class="cls-3" d="M235.3182,165.8455c-1.5978-2.0684-5.9636-1.8695-8.6808,0-3.6449,2.5078-4.9971,8.485-2.4834,10.7234,2.3068,2.0541,6.8871.0852,7.0791,0,4.6326-3.672,5.7488-8.5698,4.0851-10.7234Z"/>
      <path class="cls-3" d="M352.1214,117.8957c-1.2042-3.7768-4.7539-6.9733-9.0586-7.1991-5.6306-.2953-10.5109,4.5993-10.7234,9.7021-.1782,4.278,2.9846,7.257,4.0851,8.1702.5515.4577,4.9439,3.9889,9.7021,2.3656,4.8605-1.6582,7.6469-7.8572,5.9948-13.0388Z"/>
      <path class="cls-3" d="M382.382,69.8455c-2.0934-3.2924-6.7057-4.1455-10.2128-3.0638-5.0876,1.5691-6.5496,6.809-6.6382,7.1489,1.4317,6.7872,7.8127,10.2101,12.2553,8.6808,4.5333-1.5605,7.3776-8.3907,4.5957-12.766Z"/>
      <path class="cls-3" d="M448.2544,100.9944c-3.316-3.1785-8.9811-3.364-12.2553,0-2.6482,2.7208-3.1351,7.1501-1.0213,10.7234l13.2766,2.2279c3.6134-3.7299,3.4743-9.621,0-12.9514Z"/>
      <path class="cls-3" d="M433.6581,158.6966c-3.0088-2.8027-8.6896-2.2463-12.4676,0-4.101,2.4383-6.4755,7.1745-6.1277,12.2379,5.1064,2.1889,10.2128,4.3778,15.3192,6.5666,6.7857-6.6714,6.9804-15.354,3.2761-18.8045Z"/>
      <path class="cls-3" d="M485.531,168.1493c-3.9036-1.4112-8.9032-.0519-11.2341,3.7852-1.7825,2.9343-1.5594,6.5853,0,9.3315,1.8517,3.2612,5.3761,4.8735,8.6808,4.7903,3.0836-.0776,6.6141-1.6476,8.1702-4.7903,2.2928-4.6305-.4136-11.2356-5.617-13.1167Z"/>
      <path class="cls-3" d="M528.4246,180.266c-3.7091-.1625-7.8853,4.1711-9.9575,10.4137,7.7617,6.598,15.1547,9.7333,17.617,7.5914,3.4324-2.9858-1.0062-17.7135-7.6595-18.0051Z"/>
      <path class="cls-3" d="M505.4458,232.7391c-2.5202-4.9046-8.3599-9.1962-13.4761-7.938-7.2635,1.7864-11.7175,14.427-6.4388,20.9593,4.5687,5.6536,15.6522,5.7715,19.9149,0,3.8669-5.2355.1744-12.6818,0-13.0213Z"/>
      <path class="cls-3" d="M554.4672,243.1336c-3.4545-1.7508-8.597.1852-10.2128,4.9102-.6643,3.9377,1.7035,7.5901,5.1064,8.4623,3.0504.7819,6.1907-.8604,7.6595-3.3415,2.0272-3.4243.8022-8.3305-2.5532-10.0311Z"/>
      <path class="cls-3" d="M98.4926,323.1221c-3.0219-1.2678-6.9014.2415-8.9026,3.0638-1.8931,2.6698-2.2319,6.6929,0,9.3368,2.8282,3.3503,8.6239,3.1114,11.4303,0,3.3239-3.6852,1.7413-10.6096-2.5277-12.4006Z"/>
      <path class="cls-9" d="M159.6118,290.3334c-5.4602.0464-10.2798,4.1984-11.8681,9.3723-1.7227,5.6117.7689,11.0799,4.2854,14.2161,3.0883,2.7543,8.8265,5.3686,14.0975,2.7658,5.293-2.6136,6.6896-8.7965,6.3816-12.8501-.485-6.3808-5.6561-13.5656-12.8965-13.5041Z"/>
      <path class="cls-9" d="M438.3028,425.7287c-3.0272.0257-5.6992,2.3277-6.5798,5.1961-.9551,3.1112.4263,6.1428,2.3759,7.8816,1.7122,1.527,4.8935,2.9764,7.8158,1.5334,2.9345-1.449,3.7088-4.8769,3.538-7.1243-.2689-3.5376-3.1358-7.5209-7.15-7.4868Z"/>
      <path class="cls-9" d="M189.1054,370.7507c-4.34-2.1597-9.7293-.4508-12.7661,2.8815-3.8777,4.2549-4.4369,11.7241,0,15.7932,4.6748,4.2873,12.9169,2.9848,16.5836-2.433,3.6904-5.4529,1.6831-13.5045-3.8174-16.2417Z"/>
      <path class="cls-9" d="M252.8234,192.4806c-2.17-1.0798-4.8647-.2254-6.3831,1.4408-1.9388,2.1275-2.2184,5.8621,0,7.8966,2.3374,2.1436,6.4585,1.4924,8.2918-1.2165,1.8452-2.7265.8416-6.7523-1.9087-8.1208Z"/>
      <path class="cls-9" d="M432.9382,226.9608c-3.3642-1.6741-7.5418-.3494-9.8959,2.2336-3.0058,3.2983-3.4393,9.0881,0,12.2423,3.6238,3.3233,10.0128,2.3137,12.855-1.8859,2.8606-4.2269,1.3047-10.4683-2.9591-12.59Z"/>
      <path class="cls-9" d="M139.1533,390.0856c-4.9196-5.215-13.2411-6.2091-19.5074-3.0931-8.0827,4.0193-9.2389,13.1332-9.4341,14.6724-.2005,1.5809-1.3296,10.4814,5.3617,16.436,4.4936,3.9988,11.6554,5.9051,17.617,3.0638,6.2152-2.9621,7.9398-9.5656,8.7628-12.7168.808-3.0937,3.1487-12.0564-2.8001-18.3623Z"/>
      <path class="cls-9" d="M204.8125,430.3562c-4.1234-3.7649-11.7986-4.5764-16.473,0-4.7798,4.6797-3.7733,12.4002,0,16.888,3.4327,4.0828,9.6846,6.1196,14.2393,3.8363,6.6565-3.3369,8.2859-15.1984,2.2337-20.7243Z"/>
      <path class="cls-9" d="M473.0423,261.9058c-5.1528-1.5516-12.1505,2.5283-12.788,8.5371-.3956,3.7286,1.7258,7.5582,5.3617,9.7856,4.6788,1.9202,9.6605,1.1929,12.2553-1.6702,4.3143-4.7604,1.4335-14.7668-4.829-16.6525Z"/>
      <path class="cls-9" d="M396.1567,464.9773c-2.5764-.7758-6.0752,1.2641-6.394,4.2686-.1978,1.8643.8629,3.7791,2.6808,4.8928,2.3394.9601,4.8302.5964,6.1277-.8351,2.1572-2.3802.7168-7.3834-2.4145-8.3263Z"/>
      <path class="cls-9" d="M527.8703,282.3809c-3.8878-2.8811-12.8937-.0355-20.6664,9.2686,6.5419,8.5391,16.473,9.4066,20.6664,5.4301,3.8334-3.6351,3.6133-12.021,0-14.6987Z"/>
      <path class="cls-9" d="M379.8288,176.8323c-3.2319-4.557-11.0116-5.5463-14.2979-1.7262-2.2955,2.6685-1.9072,7.1126,0,9.9502,3.1083,4.6245,10.8885,5.9298,14.2979,2.1653,2.4457-2.7006,2.1065-7.4189,0-10.3892Z"/>
      <path class="cls-9" d="M473.0423,344.2661c-3.8776-2.9139-9.4984-2.689-12.8351,0-5.4691,4.4073-2.4838,13.5659-.7189,17.1539,1.0529,2.1404,2.468,5.0173,5.1761,5.68,4.8599,1.1891,11.7466-5.2757,12.441-12.3201.1089-1.1047.5416-7.0534-4.0631-10.5137Z"/>
      <path class="cls-1" d="M143.0901,452.0327c-4.035-.9252-8.1128,1.0278-10.4102,3.8554-3.357,4.1319-2.1715,9.2195-1.7021,11.2341.461,1.9783,1.5065,6.4651,5.4468,8.5106,4.8847,2.5357,11.962.1484,14.6383-4.7659,2.2152-4.0677.6387-8.4411,0-10.2128-.7092-1.9674-2.6696-7.4055-7.9728-8.6214Z"/>
      <path class="cls-1" d="M186.8076,498.1008c-.6174-3.5641-4.4711-6.3386-8.1702-6.1276-5.2303.2983-9.1076,6.5059-7.4893,10.8936.9434,2.5578,3.639,4.1849,6.1277,4.4255,4.9138.4752,10.3752-4.3235,9.5319-9.1915Z"/>
      <path class="cls-1" d="M245.0203,484.8242c-3.8212-2.0687-8.7474-.0878-10.8936,3.4043-1.5163,2.4672-1.8228,5.9779,0,8.8511,1.6669,2.6276,4.8688,4.3346,8.1702,3.7446,3.7753-.6746,5.8976-4.0343,6.4681-6.8085.6544-3.182-.3686-7.3638-3.7447-9.1915Z"/>
      <path class="cls-1" d="M270.8927,539.9732c-3.0134-1.7233-7.6295-1.39-9.8723,1.7021-1.8291,2.5217-1.3806,5.9143,0,8.1702,2.0533,3.3552,5.865,3.7004,6.4681,3.7447.5851.0429,4.159.3051,6.1277-2.0425,2.5475-3.0381,1.3831-9.226-2.7234-11.5745Z"/>
      <path class="cls-1" d="M316.1693,504.5689c-2.7739-1.3363-6.0485.1796-7.149,2.756-.8513,1.9931-.3199,4.4297,1.3617,6.095,2.9111,2.0086,6.7748.9766,8.1702-1.7021,1.2572-2.4135.3405-5.8369-2.383-7.1489Z"/>
      <path class="cls-1" d="M346.6915,548.1434c-4.2623-1.7635-10.0037,1.6212-10.4371,5.4769-.2043,1.8179.7809,3.6554,2.0425,4.7359,2.1696,1.8581,5.0044,1.3467,6.8085,1.0213,1.8407-.332,4.7908-.8642,5.7873-3.0638,1.2296-2.7143-1.0198-6.8539-4.2012-8.1702Z"/>
      <path class="cls-1" d="M389.7392,499.6434c-2.4148-.71-5.3793-1.5817-7.8678,0-3.0196,1.9193-3.6969,6.4075-2.7234,9.6915.1116.3763,1.6676,5.3057,6.6573,6.4681,3.5096.8176,6.9564-.6388,9.0023-3.0638,1.7563-2.0818,3.1125-5.6273,1.7021-8.6658-1.3111-2.8246-4.3152-3.7079-6.7705-4.4299Z"/>
      <path class="cls-1" d="M453.7012,498.7549c-2.3958-1.2491-5.8533-1.2407-8.2261.8885-2.6102,2.3422-3.1326,6.5551-1.3058,9.0106,1.3941,1.874,3.7449,2.1713,5.4189,2.3829,1.3699.1732,5.5989.7079,7.4844-1.7643,2.1284-2.7906.5532-8.4717-3.3714-10.5178Z"/>
      <path class="cls-1" d="M517.7012,460.3136c-.8574-2.447-3.2945-5.2825-6.1276-5.1064-3.4645.2153-5.1629,4.7874-5.7872,6.4681-.7116,1.9156-2.0986,5.6495-.0052,8.0675,1.8121,2.0931,5.251,2.0671,7.4945,1.124,3.8598-1.6224,5.7972-6.6384,4.4255-10.5532Z"/>
      <path class="cls-1" d="M497.9565,398.0157c-5.8721-1.6389-10.5168,3.2401-10.8936,3.6491-4.5483,4.9378-2.7327,11.7243-2.3829,13.0317.5329,1.992,1.5727,5.8787,5.1064,7.4893,3.796,1.7302,7.734-.4133,8.851-1.0213,4.1583-2.2634,5.5964-6.266,6.036-7.4893.4492-1.25,1.2524-3.5719.7725-6.4681-.0643-.3884-1.3588-7.4804-7.4894-9.1915Z"/>
      <path class="cls-1" d="M539.4884,376.2285c-1.197-2.3813-4.1362-4.3105-6.8085-3.4043-2.7502.9327-4.4976,4.6244-3.0638,8.1702,1.9786,3.4788,6.1005,4.386,8.5106,2.7629,2.2955-1.5459,2.59-5.0854,1.3617-7.5288Z"/>
      <path class="cls-1" d="M516.6799,346.6115c-1.5648-2.0305-6.1033-2.4231-8.8511,0-1.5398,1.3579-2.6429,3.7108-2.0425,6.1277.6768,2.7245,3.3243,4.7487,6.4681,4.766,5.0104-3.4918,6.1457-8.6614,4.4255-10.8936Z"/>
      <path class="cls-1" d="M562.9778,293.5051c-2.7122-1.2946-7.2865,1.9998-8.8511,5.8557-.3333.8214-1.515,3.7338,0,6.0591,1.7532,2.6909,6.2557,3.273,8.8511,1.3617,2.2026-1.6221,2.3163-4.5134,2.383-6.2088.0328-.8349.2289-5.8211-2.383-7.0678Z"/>
      <path class="cls-1" d="M553.373,340.1008c-1.7262-1.6274-5.6309-.8498-7.7569,1.3617-1.9902,2.0703-2.9364,5.9326-1.0213,7.8298,1.627,1.6118,4.6573,1.1495,6.479,0,3.2136-2.0277,4.3513-7.2568,2.2992-9.1915Z"/>
      <path class="cls-2" d="M178.8352,524.8242c-2.8556-1.4045-7.8513.7133-9.3684,4.5913-.1136.2904-1.2546,3.3547.4897,6.1321,1.9911,3.1703,6.5774,4.1129,9.1915,2.5532,4.1329-2.4659,3.6079-11.3483-.3128-13.2766Z"/>
      <path class="cls-2" d="M133.9565,536.3136c-1.6488-1.5862-4.7437-1.8954-6.6383,0-1.8721,1.8729-1.555,4.8804,0,6.6383,1.3896,1.5709,3.8225,2.2056,5.617,1.2766,2.6207-1.3567,3.2826-5.7394,1.0213-7.9149Z"/>
      <path class="cls-2" d="M115.8288,483.9833c-1.0652-1.8953-3.7617-3.2933-5.1064-2.308-1.0115.7411-1.2004,2.7885-.2553,4.8511,1.1472,2.4899,2.862,4.0967,4.0851,3.8298,1.6028-.3499,2.6245-3.9747,1.2766-6.3729Z"/>
      <path class="cls-2" d="M212.5948,556.9944c-.3755-1.7665-2.0818-3.2355-4.0245-3.3742-2.4692-.1763-4.8192,1.832-4.9117,4.3955-.0813,2.2563,1.6113,4.2476,3.5745,4.5957,2.9382.5211,5.9758-2.728,5.3617-5.617Z"/>
      <path class="cls-2" d="M232.8719,613.6753c-1.5837-2.454-5.1066-3.7849-7.7665-2.2979-2.468,1.3798-2.9818,4.5083-2.5532,6.6383.5468,2.7174,2.9683,5.5038,5.8723,5.3617,2.6609-.1302,4.2013-2.6445,4.4473-3.0638,1.0907-1.8589,1.3701-4.5153,0-6.6383Z"/>
      <path class="cls-2" d="M277.9565,572.8242c-1.2247-.2573-4.2061-.7136-7.6596.5107-1.9325.6851-4.7077,1.6689-5.8723,4.3404-.0815.1871-1.311,3.0991,0,4.5958.8885,1.0142,3.1576.8602,7.6596.5106,2.1408-.1662,2.4213-.2926,3.5745-.2553,2.4121.0781,4.3525.7335,5.617,1.2766,2.5914-2.5063,3.6352-5.7258,2.5532-7.9149-1.0095-2.0423-3.5687-2.5799-5.8723-3.0638Z"/>
      <path class="cls-2" d="M332.3395,621.5902c-1.5543-1.1821-4.1122-1.4054-5.8723,0-2.1924,1.7505-1.5988,4.7916-1.5319,5.1064.0397.1868.7737,3.3849,3.5974,4.0851.0985.0244,2.1898.5087,3.8069-.7659,2.321-1.8295,2.6031-6.4457,0-8.4255Z"/>
      <path class="cls-2" d="M366.5522,566.4413c-1.3767-.4154-3.6319-1.0959-5.617,0-2.6949,1.4878-3.0751,5.2463-3.3192,7.6595-.2475,2.4466-.4386,4.3361.7659,5.8724,2.1622,2.7578,6.9457,1.985,8.1702,1.7872,1.0305-.1664,2.798-.4728,4.5958-1.7872,2.8488-2.0828,3.6299-5.129,3.8298-6.0516-.835-1.5862-3.4211-5.9703-8.4255-7.4803Z"/>
      <path class="cls-2" d="M412.2544,555.9732c-2.1135-1.2614-5.7971-1.9255-7.4043,0-1.459,1.748-.3722,4.6301,0,5.617.4034,1.0698,1.2814,3.3979,3.7021,4.258.1807.0642,2.9088.9844,4.9788-.6835,2.1014-1.6934,2.0788-4.8893,1.0212-6.8936-.6992-1.3252-1.7748-1.9857-2.2979-2.2979Z"/>
      <path class="cls-2" d="M455.148,553.6804c-1.2528-1.5473-5.6165-1.6319-7.5014,1.085-1.1729,1.6906-1.0721,4.0133,0,5.6967,1.2302,1.9315,3.3046,2.3389,3.6716,2.4047,3.8955-3.6437,5.101-7.6164,3.8298-9.1864Z"/>
      <path class="cls-2" d="M480.1692,514.4721c-1.9378-1.772-5.309-2.8106-8.1702-1.1372-2.5561,1.495-3.9187,4.6945-3.0638,7.4042.9669,3.0649,4.2958,3.9987,5.5143,4.3405,1.1834.332,3.891,1.0914,5.9751-.5107,1.8213-1.4001,1.9946-3.7031,2.0425-4.3404.2522-3.3514-2.1049-5.58-2.2979-5.7564Z"/>
      <path class="cls-2" d="M524.3395,497.4838c-1.9068-1.6996-5.8689-.9128-7.9149,1.4259-1.6806,1.9211-1.578,4.3288-1.5319,4.9571,1.8289,2.8806,5.2339,3.9288,7.6595,2.8085,3.4476-1.5923,4.0571-7.1683,1.7872-9.1915Z"/>
      <path class="cls-2" d="M576.2544,478.5464c-.3726-.1559-5.2499-2.1345-7.388,0-1.894,1.8909-.6534,6.0261.2391,9.0013.9388,3.1293,1.5587,2.9385,2.5435,6.1276,1.4761,4.7802.5957,6.8674,2.2225,8.1679.8731.698,2.553,1.2371,6.1277.0023.6752-.7335,4.957-5.5413,4.0851-12.2553-.5776-4.4482-3.3439-9.1671-7.8298-11.0438Z"/>
      <path class="cls-2" d="M547.3182,420.4838c-2.4714-1.0265-5.5204.6181-7.1155,2.3632-1.9076,2.087-2.0127,4.6208-2.076,6.1474-.0718,1.7305-.2,4.8195,2.076,7.1489,1.6558,1.6947,4.6826,3.0882,7.1155,2.0426,3.5657-1.5324,3.4448-7.2678,3.4042-9.1915-.0436-2.0706-.1509-7.1594-3.4042-8.5106Z"/>
      <path class="cls-2" d="M585.7863,379.5665c-.9536-2.1842-5.1353-2.9322-8.1702-1.9976-4.6755,1.4399-6.2014,6.7414-6.8085,8.851-.6367,2.2123-1.299,4.5135,0,6.4681,1.4786,2.2249,4.8773,3.0661,7.1489,2.0426,1.6409-.7394,1.7096-2.0085,4.0851-6.8085,3.0162-6.0944,4.3968-7.0619,3.7447-8.5556Z"/>
      <path class="cls-2" d="M581.8714,326.0157c-2.2807-.3727-4.2828,1.866-4.7659,3.9149-.079.3352-.6252,2.8409,1.1915,4.4255,1.163,1.0144,2.8491,1.2628,4.2553.6808,2.13-.8816,2.5016-3.2063,2.5532-3.5745.3039-2.1706-.8954-5.0646-3.2341-5.4468Z"/>
      <path class="cls-2" d="M615.2331,299.3608c-1.457-1.153-3.453-.6994-4.5958,0-1.9448,1.1903-2.9944,4.0573-1.8723,5.7187.8779,1.2998,2.7405,1.3519,3.0912,1.3617,1.9139.0535,3.1619-1.1476,3.3768-1.3617,1.1373-1.1329,1.322-2.4936,1.3617-2.8936-.0168-.3106-.1312-1.8513-1.3617-2.8251Z"/>
    </g>
  </g>
</svg>