<?xml version="1.0" encoding="UTF-8"?>
<svg id="Capa_2" xmlns="http://www.w3.org/2000/svg" viewBox="0 0 2530.1236 2298.6783">
  <defs>
    <style>
      .cls-1 {
        fill: #70569b;
      }

      .cls-2 {
        fill: #5f488c;
      }

      .cls-3 {
        fill: #9570c2;
      }

      .cls-4 {
        fill: #604593;
      }

      .cls-5 {
        fill: #47327c;
      }

      .cls-6 {
        fill: #a486ce;
      }

      .cls-7 {
        fill: #735aaf;
      }

      .cls-8 {
        fill: #8566b2;
      }
    </style>
  </defs>
  <g id="Capa_1-2" data-name="Capa_1">
    <g>
      <path class="cls-3" d="M2505.6115,1349.9914c-20.1401,14.53-45.9902,18.02-70.7197,20.3599-235.5303,22.2201-476.9402-21.5599-689.6704-125.0798-31.5898-15.3801-63.5498-32.3301-98.5198-35.7101-34.97-3.37-74.3901,10.6901-89.1602,42.5699-14.23,30.7001-1.97,66.77,12.6201,97.3,76.8201,160.76,220.0701,288.5,388.54,346.49,106.3999,36.63,222.5999,46.9,321.24,101.0701,31.02,17.0399,61.29,40.1399,73.5898,73.33,12.29,33.1901-.9399,77.5499-34.6099,88.49-36.6602,11.9-71.9302-18.24-102.6802-41.49-110.5398-83.59-257.8098-96.61-385.1399-151.35-121.8699-52.4-226.01-145.1101-292.1599-260.1001-17.8801-31.09-33.9202-64.7799-62.1501-86.9099-28.22-22.14-73.6099-27.77-97.72-1.23-13,14.3099-17.04,34.3799-20.5,53.3899-21.3899,117.7001-39.99,238.02-23.5801,356.51,16.4102,118.49,72.7202,236.65,173,301.8701,36.9402,24.03,86.0901,62.76,62.6702,100.0798-18.1799,28.9902-62.71,20.3501-92.6902,3.8501-103.9897-57.23-173.46-164.95-205.7798-279.1699-32.3101-114.2101-31.1401-235.2101-21.3201-353.5,5.3401-64.2001-1.53-150.0901-64.51-163.6101-60.6299-13.01-102.0901,56.25-135.3799,108.5601-67.28,105.71-175.1401,177.46-266.4302,263.3-91.28,85.8499-171.6499,202.4399-155.23,326.6699,5.3999,40.8,16.4199,91.48,3.4399,125.98-5.2998,14.0801-14.5898,25.46-29.8999,32.3799-27.51,12.4302-61.55-1.5098-79.98-25.4099-18.4399-23.9099-24.1602-55.22-25.6602-85.3699-7.2197-145.54,70.8-282.8101,167.5701-391.76,2.3801-2.6801,4.77-5.3501,7.1799-8,95.3201-105.3601,208.9702-193.2101,302.7002-300.0701,30.97-35.3101,58-94.37,21.0999-123.4299-18.8398-14.8301-45.5-12.49-69.28-9.41-178.8799,23.1899-370.5398,52.1899-501.8198,175.9-74.98,70.6599-128.8901,170.9399-225.4601,206.8599-44.91,16.7001-114.91-2.8999-107.41-50.23,5.2001-32.7999,43.72-46.1199,74.2101-59.2799,126.4799-54.64,190.7098-200.4301,310.36-268.7301,122.1699-69.74,287.6101-50.3999,392.55-144.0898,16.0999-14.3801,31.1599-34.53,26.74-55.6602-8.6702-41.3999-63.3801-31.6099-110.3301-40.2099-122.6199-22.4901-241.6799-61.71-368.03-72.57-102.73-8.84-208.5599,39-269.8099,121.96-29.9,40.51-68.91,95.99-115.7101,77.41-48.26-19.16-35.0599-92.6899-3.3999-133.85,84.49-109.82,231.4399-155.42,370-154.68,138.55.73,273.3701,40.86,408.3101,72.34,21.8999,5.11,46.7798,9.5,65.3799-3.14,33.8601-23.02,16.9199-76-6.03-109.92-60.0598-88.74-139.6099-164.21-231.3899-219.52-85.5-51.53-180.8701-85.49-264.78-139.57-61.3201-39.52-117.9399-92.93-148.3101-160.32-10.5599-23.43-28.3099-62.17-15.54-87.36,13.8301-27.29,53.6802-39.76,79.27-21.73,28.8801,20.35,38.72,57.72,54.6902,89.24,57.8499,114.17,197.3499,153.29,309.8799,214.26,77.5601,42.01,146.99,98.96,203.3701,166.78,23.1299,27.82,44.8098,58.11,75.6099,77.08,30.79,18.98,74.27,23.36,101.1001-.9,37.79-34.18,20.3599-95.21,6.1599-144.14-25.45-87.67-30.6101-180.08-53.6199-268.43-23.0103-88.34-68.8901-177.23-149.6101-219.8701-31.46-16.61-67.6799-25.99-93.4299-50.54s-33.6501-73.32-3.7202-92.56c18.2402-11.73,42.2603-7.52,62.8501-.68,113.01,37.53,194.8301,139.1,240.97,248.88,46.1401,109.78,62.4602,229.29,85.5,346.12,9.8,49.68,27.4202,106.9,75.1401,123.83,39.2,13.9,83.3599-8.23,107.6699-38.08,25.6301-31.48,36.8899-71.98,46.3401-111.45,21.1799-88.48,36.54-178.35,45.96-268.84,6.9199-66.55,10.79-134.2401,31.95-197.71,21.1501-63.48,62.6899-123.74,124.26-149.93,38.1401-16.22,97.3501-5.67,99.47,35.72,1.79,34.79-37.6399,54.22-66.74,73.3699-76.23,50.18-106.6399,147.14-116.1499,237.91-9.51,90.77-3.9399,184.37-32.1001,271.18-11.8899,36.66-16.8201,82.3-23.1599,120.31-6.3501,38.02-11.3401,71.13,19.26,94.55,38.0498,29.12,95.6599,14.47,131.1499-17.72,35.48-32.2,55.4199-77.51,79.1699-119.12,103.6201-181.52,299.9902-306.72,508.28-324.08,24.8301-2.07,51.3501-2.33,72.76,10.41,21.4199,12.73,34.1899,42.91,20.26,63.57-6.76,10.02-18.1299,15.83-29.3098,20.44-93.8101,38.6-205.2002,20.61-295.4102,67.02-58.52,30.1-100.79,83.7-140.6899,136.03-58.54,76.76-116.0701,154.29-172.5901,232.54-12.0701,16.71-24.4399,34.52-31.26,53.68-3.48,9.77-5.51,19.9-5.3101,30.42.3501,18.95,7.48,35.38,18.7202,49.7,21.1199,26.95,56.79,46.44,89.25,61.19,237.3298,107.84,495.46,214.08,751.1899,163.4899,27.0898-5.3599,60.6299-9.8499,80.9697,5.0901,4.2202,3.09,7.8701,7.02,10.7803,11.95,12.6299,21.4.8501,50.54-19.29,65.0801Z"/>
      <path class="cls-4" d="M1403.483,1249.2275c-1.8276,3.5415-3.9615,6.9241-6.3907,10.091-25.0627,32.7362-82.8733,59.8422-124.0886,60.1146-53.3151.3519-106.5739-8.9105-157.0743-25.971-37.2084-12.5769-74.0763-30.1595-100.0247-59.6378-56.5616-64.2464-13.7913-186.0988,73.1684-200.6167,20.1479-3.3712,40.7157-1.6118,60.3983,3.9502,18.2638,5.1419,35.7668,13.5643,51.4653,24.2002,33.1899,22.4749,60.4549,54.9045,98.1516,68.5143,28.5362,10.2953,61.7377,9.2283,86.199,27.1514,5.3349,3.9047,9.8639,8.604,13.5871,13.8709,15.6416,22.0208,17.2647,53.8829,4.6086,78.3328Z"/>
      <path class="cls-5" d="M1403.483,1249.2275c-1.8276,3.5415-3.9615,6.9241-6.3907,10.091-25.0627,32.7362-82.8733,59.8422-124.0886,60.1146-53.3151.3519-106.5739-8.9105-157.0743-25.971-37.2084-12.5769-74.0763-30.1595-100.0247-59.6378-56.5616-64.2464-13.7913-186.0988,73.1684-200.6167,20.1479-3.3712,40.7157-1.6118,60.3983,3.9502-13.9844-.2384-37.7821-2.2628-53.1738,4.3435-11.1581,4.7901-34.6697,15.5864-48.8584,41.3076-15.9592,28.9449-11.8617,63.0234-10.2159,72.3993,5.3917,30.6816,32.4736,49.8188,40.8621,59.0698,50.716,55.9034,132.2496,55.3018,161.6828,55.0862,41.567-.3179,107.2768,9.9864,140.6485-23.1017,22.4749-22.3046,23.985-50.0429,18.4576-75.3678,15.6416,22.0208,17.2647,53.8829,4.6086,78.3328Z"/>
      <path class="cls-7" d="M1379.6056,1163.2888c-1.1024-2.9417-3.3645-5.5616-6.0346-7.2971-4.3167-2.8062-9.5244-3.8037-14.5764-4.7985-20.923-4.1201-41.6637-9.1671-62.1406-15.1214-5.1221-1.4895-12.5501-2.0409-6.3583,4.3182,3.875,3.9795,9.7201,5.7202,14.8333,7.4468,14.4278,4.8717,28.1576,11.8052,40.6423,20.5243,5.6045,3.9141,11.2384,8.3101,17.9675,9.5127,6.7294,1.2026,14.8868-2.1983,16.2064-8.9055.3794-1.9275.1405-3.8648-.5396-5.6795Z"/>
      <path class="cls-7" d="M1240.61,1105.0436c-7.4835-11.5998-18.6618-20.6201-29.8151-28.9466-18.3887-13.7281-38.1037-26.7739-60.5294-31.6408-14.332-3.1104-41.4112,3.224-25.5169,22.5006,3.3522,4.0656,7.995,6.8467,12.7106,9.1983,28.0762,14.0016,61.4334,15.413,88.5269,31.2326,4.7992,2.8022,9.371,6.0424,14.4683,8.2566.8432.3663,1.7913.7076,2.6607.4086,2.032-.6988,1.5656-3.7059.5938-5.6224-.9419-1.8576-1.979-3.6512-3.0988-5.387Z"/>
      <path class="cls-6" d="M918.0676,1199.0535c-5.8669,16.3037-16.2407,31.7382-28.8069,43.1864-52.8989,48.1925-130.0308,54.7949-200.4915,67.2887-96.9028,17.1825-193.8247,51.6466-265.8501,118.7114-42.3333,39.4177-74.3765,88.4387-112.6721,131.7896-38.2954,43.351-86.0027,82.5316-143.0557,92.0609-12.6289,2.1093-25.9688,2.873-36.9685,9.426-10.9998,6.5531-18.4049,21.5582-11.6456,32.4324,5.6771,9.1332,18.0638,11.0458,28.8158,10.8533,59.1608-1.0591,112.2273-37.4012,153.2017-80.0886s73.8049-92.8358,116.4941-133.8083c74.0229-71.0463,173.3608-110.2026,273.4373-132.8225,100.0764-22.6199,202.8865-30.3386,303.9365-48.1091,7.5325-1.3247,15.5081-2.9263,21.0713-8.1746,13.9102-13.123,3.3047-35.9028-6.0974-52.5554-27.0356-47.884-38.4163-106.5604-21.3374-158.8302,17.0791-52.2697,66.1343-95.1874,121.116-96.0973,66.7271-1.1042,70.9139,19.7136,135.3238,37.1798,33.4216,9.063,93.4874-46.3509,118.3553-38.4359,24.8679,7.9151,58.1446-8.581,92.7391-7.0435,105.6522,4.6957,127.5745-70.0828,166.8198-127.1476,9.9087-14.4077,18.9641-36.2505,5.2263-47.0685-16.2144-12.7681-36.6399,8.5278-48.7656,25.2278-35.1396,48.3949-107.4023,76.8709-155.939,41.9276-44.6633-32.1546-46.4263-98.6702-31.002-151.4984,15.4246-52.8281,43.5859-103.3574,43.6201-158.3912.0083-13.3366-3.1675-28.908-15.1914-34.6777-13.1353-6.3029-29.2812,3.852-35.1897,17.1693-5.9082,13.3172-4.6692,28.5318-4.3235,43.0968,1.374,57.8999-14.9014,118.4586-55.5342,159.7293-40.6326,41.2708-108.407,57.946-158.9326,29.6362-65.0537-36.4498-76.8301-123.205-83.5898-197.4673-11.4648-125.9549-32.7637-258.4337-113.4006-355.8696-10.9568-13.2394-34.0144-24.8421-42.3459-9.8114-4.0999,7.3969-.7324,16.5357,2.6187,24.3008,70.6597,163.734,118.1733,337.4367,140.6892,514.3396,4.1497,32.6027,6.4321,69.1039-14.0405,94.8143-28.5544,35.8603-86.9639,30.2599-124.7922,4.3689-37.8284-25.8909-62.9507-66.1802-95.4707-98.4878-11.126-11.0532-24.2166-21.6742-39.8208-23.246-15.604-1.5718-33.2791,10.0076-32.5259,25.6726.4407,9.1629,6.6646,16.8827,12.5925,23.8837,36.0825,42.6153,72.1653,85.2305,108.248,127.8458,27.7034,32.7188,56.7488,78.4399,34.0657,114.8196-25.0698,40.2078-85.5693,27.5952-130.4233,12.3218-132.9094-45.2578-272.7227-70.1804-413.0837-73.635-30.4844-.7503-62.7485.2417-91.2983,12.1271-10.605,4.4149-31.7007,14.2005-36.3845,25.7368-5.5242,13.6063,11.6785,26.3283,23.6846,28.7435,13.6028,2.7365,27.5432-1.0815,41.0962-4.0539,93.0427-20.4054,189.7153-1.2502,282.8159,18.8888,86.5706,18.7264,172.9541,38.3174,259.1333,58.7688,20.0579,4.76,41.3633,10.2844,55.2717,25.5004,16.1892,17.7114,16.8882,42.4576,8.6067,65.4717Z"/>
      <path class="cls-6" d="M187.4335,1019.7513c-.5853-.0549-1.1709-.0858-1.7549-.0917-11.4707-.1168-21.8684,6.2742-31.538,12.4459-48.8557,31.1828-132.4973,77.6624-134.764,144.4319-.4637,13.6606,4.9031,28.1832,16.3571,35.6421,11.4904,7.4825,27.0333,6.4749,39.2897.3265s21.7185-16.7079,29.7634-27.8119c29.8827-41.2463,45.5128-94.2748,86.1542-124.9752,6.8135-5.1469,14.8367-10.4739,16.3163-18.8836,1.8867-10.7229-8.9126-20.0612-19.8237-21.084Z"/>
      <path class="cls-6" d="M752.5939,699.4611c.1313-.9113.1924-1.8356.1763-2.7677-.1504-8.7954-6.6233-16.0707-12.981-22.1503-58.1445-55.6008-136.2214-83.9486-209.1597-117.8937-47.7063-22.2024-94.2473-47.417-144.2039-63.9457-3.6538-1.2089-7.4692-2.3853-11.2861-1.8936-10.2007,1.314-9.3171,12.9187-5.9158,20.0305,4.0889,8.549,12.5012,14.7957,20.2532,19.8076,37.3501,24.1489,76.407,45.6572,116.783,64.3113,50.3005,23.2393,103.6721,42.6845,145.52,79.0022,20.3206,17.6351,39.45,39.9714,65.9954,44.3596,7.7295,1.2778,15.9871.8166,22.9114-2.8486,6.1003-3.229,10.9348-9.2645,11.9072-16.0117Z"/>
      <path class="cls-6" d="M356.9811,464.5383c2.5483-9.1435-13.3213-15.4099-27.1306-33.913-12.1101-16.2263-16.1436-33.1643-21.9128-57.3913-6.2854-26.3945-3.0784-31.66-10.9565-42.2609-7.8936-10.6215-24.5273-23.3849-41.7393-18.7826-9.2708,2.4789-17.8215,9.7585-21.3914,19.3043-3.9768,10.6342-.3894,20.3832,2.6089,28.1739,5.6399,14.6541,12.8789,19.6992,27.1304,36.5218,14.6541,17.298,10.5969,16.2094,30.7827,41.2174,0,0,10.509,13.0195,36,31.8261,2.4358,1.7971,7.408,5.3591,13.5652,4.6956,5.429-.585,11.6643-4.4427,13.0435-9.3913Z"/>
      <path class="cls-6" d="M919.6767,193.1035c6.707-17.1773-10.9541-38.6238-24.261-54.7826-8.7349-10.6071-35.8354-41.3046-80.2173-57.5217-7.5635-2.7637-23.9478-8.1466-44.2175-6.2609-15.5981,1.4511-21.2263,6.0649-23.478,8.2174-7.2881,6.9666-10.0325,17.616-8.6089,26.6087,2.0527,12.9665,12.4402,20.3943,21.1306,26.6087,6.2715,4.4845,11.1082,6.5204,34.4346,15.2609,30.3198,11.3609,27.8301,10.0503,30.5217,11.3478,15.1116,7.2844,31.7124,15.2867,44.6089,31.6956,4.322,5.4991,8.1521,11.8459,16.4348,14.8696,1.6709.6099,9.4241,3.239,18,0,9.6599-3.6484,14.241-12.4297,15.6521-16.0435Z"/>
      <path class="cls-6" d="M1401.6286,504.3135c-.7288-.7694-1.3704-1.6246-1.9038-2.5643-2.8264-4.9793-2.1853-11.1631-.9421-16.752,2.2559-10.1395,6.1936-19.8187,9.1111-29.7879,22.2402-76.0004-16.1343-160.8995,26.9404-232.1049,3.5386-5.8498,7.6433-11.6024,13.4153-15.2667,5.772-3.6643,13.561-4.8389,19.4358-1.3418,9.3508,5.5664,9.4309,18.925,7.678,29.6651-5.6216,34.442-18.1548,67.5802-22.2058,102.242-5.3875,46.0933,4.3286,93.9149-8.3125,138.567-4.1294,14.586-13.0928,30.4551-28.1416,32.2825-5.4397.6606-11.3784-1.037-15.0747-4.939Z"/>
      <path class="cls-6" d="M1462.6767,146.2774c9.7498-44.935,31.3044-72.3912,31.3044-72.3913,8.863-11.2897,32.1584-40.2233,70.8259-53.2174,19.8286-6.6634,33.7732-5.7994,44.6089-1.9565,5.3611,1.9013,13.7766,5.0193,17.6086,12.913,5.8777,12.108-3.228,26.8016-6.261,31.6957-4.6179,7.4517-11.5747,14.9298-38.3477,29.7391-27.9329,15.4509-27.4331,11.223-42.261,21.1304-14.9192,9.9684-30.4756,20.3626-41.0869,39.5217-7.0005,12.6399-8.2705,22.6338-16.0435,24.2609-6.7717,1.4175-14.6562-4.3154-18.3914-10.5652-4.561-7.6317-3.0286-16.1902-1.9565-21.1304Z"/>
      <path class="cls-6" d="M2217.3587,418.5801c.6801-2.7366-1.3844-5.5084-3.4678-7.5153-13.3255-12.8361-32.4585-18.2074-50.9595-18.4293-18.501-.222-36.707,4.1963-54.6808,8.5866-35.2483,8.6097-70.4966,17.2195-105.7448,25.8292-19.5264,4.7695-39.276,9.6219-57.0764,18.9587-11.6036,6.0864-59.8955,42.431-32.0899,55.1885,4.7085,2.1603,10.1264,2.0214,15.2788,1.4829,29.7005-3.1042,56.8164-17.8316,85.6682-25.5345,34.7358-9.2739,71.4922-8.2364,106.5072-16.3929,32.226-7.5068,62.1044-22.5817,91.6268-37.5247,1.962-.9931,4.0952-2.1747,4.8196-4.2509.0463-.1326.0857-.2653.1187-.3981Z"/>
      <path class="cls-6" d="M1891.6694,517.9909c-.2354-3.1469-1.1873-6.1898-3.002-8.7856-3.8679-5.5332-10.989-8.1099-17.7385-7.9665-6.7498.1434-13.2231,2.6367-19.3284,5.5185-40.8787,19.2953-70.293,56.0766-98.2056,91.6331-12.0706,15.3758-24.1409,30.7517-36.2112,46.1275-4.3215,5.505-13.5649,13.4127-14.3416,20.5691-.6506,5.9962,5.0859,16.0695,8.5359,20.6281,4.406,5.8219,11.6741,10.0647,18.8635,8.7922,5.322-.942,9.7-4.6512,13.4954-8.499,27.9871-28.3727,38.9102-70.6503,68.2844-97.5844,18.9988-17.4205,44.0684-26.8239,64.0566-43.0995,5.4558-4.4424,10.626-9.5455,13.5105-15.9627,1.5862-3.5284,2.3682-7.5272,2.0808-11.3708Z"/>
      <path class="cls-6" d="M1711.9377,705.5818c-1.3586-8.8044-9.7039-17.166-18.7827-18.2609-10.501-1.2664-18.6184,7.5948-25.0435,14.6087-10.104,11.0298-11.6309,19.5806-20.3479,37.0435-2.4978,5.0037-9.6311,15.3248-18.7825,31.3044-4.2375,7.3993-6.0867,10.8812-5.7393,15.6522.7698,10.5735,11.8809,21.3499,22.4348,21.3913,10.282.0403,17.1062-10.1196,27.1304-25.0435,13.9016-20.6968,9.8259-25.4019,23.4783-46.9565,10.2405-16.1679,17.054-20.6574,15.6523-29.7391Z"/>
      <path class="cls-8" d="M2505.6115,1349.9914c-20.1401,14.53-45.9902,18.02-70.7197,20.3599-235.5303,22.2201-476.9402-21.5599-689.6704-125.0798-31.5898-15.3801-63.5498-32.3301-98.5198-35.7101-34.97-3.37-74.3901,10.6901-89.1602,42.5699-14.23,30.7001-1.97,66.77,12.6201,97.3,76.8201,160.76,220.0701,288.5,388.54,346.49,106.3999,36.63,222.5999,46.9,321.24,101.0701,31.02,17.0399,61.29,40.1399,73.5898,73.33,12.29,33.1901-.9399,77.5499-34.6099,88.49-36.6602,11.9-71.9302-18.24-102.6802-41.49-110.5398-83.59-257.8098-96.61-385.1399-151.35-121.8699-52.4-226.01-145.1101-292.1599-260.1001-17.8801-31.09-33.9202-64.7799-62.1501-86.9099-28.22-22.14-73.6099-27.77-97.72-1.23-13,14.3099-17.04,34.3799-20.5,53.3899-21.3899,117.7001-39.99,238.02-23.5801,356.51,16.4102,118.49,72.7202,236.65,173,301.8701,36.9402,24.03,86.0901,62.76,62.6702,100.0798-18.1799,28.9902-62.71,20.3501-92.6902,3.8501-103.9897-57.23-173.46-164.95-205.7798-279.1699-32.3101-114.2101-31.1401-235.2101-21.3201-353.5,5.3401-64.2001-1.53-150.0901-64.51-163.6101-60.6299-13.01-102.0901,56.25-135.3799,108.5601-67.28,105.71-175.1401,177.46-266.4302,263.3-91.28,85.8499-171.6499,202.4399-155.23,326.6699,7.6001,57.45,26.3501,134.5-26.46,158.3599-27.51,12.4302-61.55-1.5098-79.98-25.4099-18.4399-23.9099-24.1602-55.22-25.6602-85.3699-7.2197-145.54,70.8-282.8101,167.5701-391.76,2.3801-2.6801,4.77-5.3501,7.1799-8-37.9897,53.7899-76.6599,113.5299-104.21,169.8199,0,0-33.4199,68.2799-44.6099,147.91-2.1499,15.33.74,1.75-.78,91.5701-.1599,9.6599-.3801,20.8098,6.26,32.0798,11,18.6599,37.9099,32.75,54.78,23.48,13.1799-7.24,15.51-26.1199,16.4399-33.6499,2.24-18.1799-3.4399-32.6899-4.7-36-15.48-40.8401-11.3999-104.6001-9.3901-136.17,3.4502-53.96,25.6602-93.15,49.3101-133.83,16.1899-27.8501,49.3101-78.95,178.4302-190.96,113.0098-98.02,162.9099-124.17,195.6499-186.26,29.1199-55.2101,43.6799-82.8201,46.96-101.74,3.6099-20.8501,4.3999-45.6101,23.48-62.6001,3.48-3.1,8.5701-6.84,37.5601-15.6599,43.8599-13.3301,65.79-20,95.48-18.78,23.3701.96,29.7111,12.4904,59.8713,14.8704,29.4897,2.3199,41.531-14.2989,66.3907-28.1386,27.4484-15.281,72.9845-13.411,93.2615-38.7744,18.6655-23.3477,12.7496-63.6954,16.6358-93.0375,1.3617-10.2809,2.8111-21.9895,11.2777-27.9785,3.2239-2.2805,7.136-3.4201,10.4019-5.64,8.8878-6.0411,99.5813-8.3117,101.3802-18.9066,5.2839-31.1211-14.1697-45.0834-19.9565-73.9591-6.1997-30.9358,1.8318-76.4111,27.4073-98.0757-3.48,9.77-5.51,19.9-5.3101,30.42,1.02,54.59,58.2603,88.3,107.9702,110.89,237.3298,107.84,495.46,214.08,751.1899,163.4899,27.0898-5.3599,60.6299-9.8499,80.9697,5.0901,4.2202,3.09,7.8701,7.02,10.7803,11.95,12.6299,21.4.8501,50.54-19.29,65.0801Z"/>
      <path class="cls-1" d="M2505.6115,1349.9914c-20.1401,14.53-45.9902,18.02-70.7197,20.3599-235.5303,22.2201-476.9402-21.5599-689.6704-125.0798-31.5898-15.3801-63.5498-32.3301-98.5198-35.7101-34.97-3.37-74.3901,10.6901-89.1602,42.5699-14.23,30.7001-1.97,66.77,12.6201,97.3,76.8201,160.76,220.0701,288.5,388.54,346.49,106.3999,36.63,222.5999,46.9,321.24,101.0701,31.02,17.0399,61.29,40.1399,73.5898,73.33,12.29,33.1901-.9399,77.5499-34.6099,88.49-36.6602,11.9-71.9302-18.24-102.6802-41.49-110.5398-83.59-257.8098-96.61-385.1399-151.35-121.8699-52.4-226.01-145.1101-292.1599-260.1001-17.8801-31.09-33.9202-64.7799-62.1501-86.9099-28.22-22.14-73.6099-27.77-97.72-1.23-13,14.3099-17.04,34.3799-20.5,53.3899-21.3899,117.7001-39.99,238.02-23.5801,356.51,16.4102,118.49,72.7202,236.65,173,301.8701,36.9402,24.03,86.0901,62.76,62.6702,100.0798-18.1799,28.9902-62.71,20.3501-92.6902,3.8501-103.9897-57.23-173.46-164.95-205.7798-279.1699-32.3101-114.2101-31.1401-235.2101-21.3201-353.5,5.3401-64.2001-1.53-150.0901-64.51-163.6101-60.6299-13.01-102.0901,56.25-135.3799,108.5601-67.28,105.71-175.1401,177.46-266.4302,263.3-91.28,85.8499-171.6499,202.4399-155.23,326.6699,5.3999,40.8,16.4199,91.48,3.4399,125.98-24.23-60.51-35.8499-148.5-18.04-227.73,21.9602-97.74,85.6501-168.55,114.2603-200.35,8.5098-9.4601,54.5798-50.13,146.7397-131.4801,83.8601-74.0199,94.5901-82.6899,113.8701-108,28.8601-37.8799,35.96-59.3398,82.1699-118.5599,41.21-52.8099,57.3401-63.66,72.78-70.4401,33.0801-14.5099,88.1401-21.3699,113.8701,5.8701,25.3799,26.87,28.5,93.51,23.48,127.5699-1.03,7.01-4.46,26.54,5.48,34.4301,4.5601,3.6299,11.51,4.46,16.8301,2.35,3.8398-1.53,9.4199-6.91,16.4299-39.91,3.77-17.71,1.6499-28.09,2.3501-46.96,0,0,1.1299-30.3501,10.5598-59.87,5.8701-18.35,19.6602-61.4601,54-77.4801,46.1501-21.5099,102.04,18.9901,112.7,25.8301,46.4001,29.79,54.52,70.88,83.3501,125.61,4.72,8.9701,76.49,141.54,210.1299,214.8199,18.2102,9.99.7402-1.3199,181.9602,63.3901,51.76,18.49,101.78,36.77,111.52,22.3099,5.3198-7.91-3.3701-22.73-5.8701-27-12.9299-22.0399-37.01-29.26-56.3499-35.22-31.4602-9.6901-61.8501-23.0601-93.9102-30.52-93.5601-21.79-163.4199-71.76-189-90.39-33.1499-24.14-65.28-47.55-96.26-89.22-30.76-41.37-31.9399-62.48-79.4399-133.8301-29.3801-44.1299-32.3201-41.1499-41.48-61.8199-17.1201-38.67-36.26-115.58,3.3899-154.1801,22.9702-22.35,56.25-22.6899,81.4001-22.95,40.3201-.4099,70.6699,13.23,106.95,30,35.97,16.62,37.28,22.04,82.1799,46.95,52.0801,28.92,86.77,40.67,156.1301,64.1801,30.29,10.27,61.74,19.74,82.95,5.09,2.1299-1.47,14.8499-10.26,14.0901-21.1299-.52-7.4701-7.25-13.8301-21.1301-21.1401-27.49-14.46-50-15.23-71.6101-19.1699-9.8198-1.79-11.77-2.8301-67.2998-23.48-99.8601-37.1201-90.5-32.6101-129.1301-47.74-61.49-24.0601-83.6599-34.8801-108-50.8701-35.8098-23.5099-47.95-39.59-54.79-54.7799-3.1199-6.94-5.6099-14.7401-7.3098-22.65,21.1199,26.95,56.79,46.44,89.25,61.19,237.3298,107.84,495.46,214.08,751.1899,163.4899,27.0898-5.3599,60.6299-9.8499,80.9697,5.0901,4.2202,3.09,7.8701,7.02,10.7803,11.95,12.6299,21.4.8501,50.54-19.29,65.0801Z"/>
      <path class="cls-3" d="M1160.9811,842.0166c-5.6189-4.6729-12.2471-4.0325-13.3044-3.9131-7.2324.817-13.7571,6.1367-15.6521,13.3044-2.4993,9.4529,3.4619,20.5765,13.6956,22.6956,8.9448,1.8522,17.8735-3.8538,20.7393-12.1304,2.4456-7.0626.2092-15.2265-5.4783-19.9565Z"/>
      <path class="cls-3" d="M1295.068,805.7557c-9.228-2.789-20.4768.9229-26.0869,9.9131-4.5725,7.3273-5.0022,17.5241.5217,25.0435,7.1272,9.7019,19.5718,8.6929,22.4348,8.3478,1.5955-.1923,13.0122-1.5684,17.739-10.4348,5.8145-10.9066-.8579-28.7137-14.6086-32.8696Z"/>
      <path class="cls-3" d="M1372.2853,957.5818c7.3367-8.9507,4.8726-22.8775-1.0435-31.3043-8.7361-12.4437-27.9641-17.116-41.2173-8.3478-9.0327,5.976-15.7019,18.4677-12,29.7391,4.9282,15.0049,24.6201,16.838,28.6956,17.2173,5.1592.4803,18.1902,1.6933,25.5652-7.3043Z"/>
      <path class="cls-3" d="M1406.7201,570.4514c-2.2668-2.6049-6.1807-3.3961-9.3914-2.3478-4.4316,1.4469-7.1985,6.2919-6.2607,10.6957.9263,4.3501,5.022,6.1776,5.2173,6.2609.2542.1084,4.0852,1.6725,7.5652-.2609,4.6077-2.5598,6.554-10.114,2.8696-14.3478Z"/>
      <path class="cls-3" d="M1585.9377,870.7122c-6.8127-3.6588-14.9185,2.8532-15.9131,3.6522-5.0322,4.0427-10.083,12.2312-7.0435,17.7391,2.4424,4.4258,8.926,4.9779,11.739,5.2174,2.7642.2354,8.1577.6946,12.5217-3.1304,4.6062-4.0372,4.6819-9.8812,4.6958-10.9565.0112-.8735-.0027-9.3009-6-12.5217Z"/>
      <path class="cls-3" d="M1052.9811,946.1035c-2.1702-14.3491-18.771-27.5716-36.3914-25.826-19.7942,1.9609-33.7268,22.1029-30.5217,39.913,1.8887,10.4949,9.7515,20.3099,19.9565,23.4783,21.1777,6.5753,50.1919-16.1725,46.9565-37.5652Z"/>
      <path class="cls-3" d="M691.8071,654.3861c-.5396-.6331-6.1533-7.0078-13.3042-5.0869-5.6509,1.5179-8.8057,7.288-9,12.326-.2549,6.6076,4.5935,11.668,9.3914,13.6957.4216.1782,8.377,3.4066,13.5-.9783,5.3538-4.5822,4.0942-14.465-.5872-19.9565Z"/>
      <path class="cls-3" d="M865.5463,806.4079c-3.0942-5.1639-10.5762-6.6532-15.6521-3.9131-6.9224,3.7369-8.2161,14.7169-3.1306,19.5652,3.1956,3.0467,8.4053,3.1908,12.1306,1.5652,6.1648-2.6902,10.3069-11.1182,6.6521-17.2173Z"/>
      <path class="cls-3" d="M254.4594,335.4079c-4.2546-1.7921-9.6301.6227-12.261,4.4348-3.4561,5.0081-1.7808,11.8561,2.0869,15.3913.4182.3822,4.8267,4.2923,9.3914,2.6087,3.917-1.4448,5.0649-5.9451,5.4783-7.5652,1.1306-4.4318.8623-12.5286-4.6956-14.8696Z"/>
      <path class="cls-3" d="M721.5463,1030.6252c-5.7183-11.2052-19.9749-12.0424-28.1738-10.1739-8.8391,2.0144-20.7493,9.4778-20.7393,20.7391.0103,11.5261,12.5007,18.6986,20.7393,20.7391,2.3411.5798,11.7214,2.9032,19.9563-2.7391,8.447-5.7877,13.408-18.3943,8.2175-28.5652Z"/>
      <path class="cls-3" d="M968.4594,1081.8861c-4.3984-5.8475-13.6328-6.8542-18.7827-2.7391-4.1663,3.3292-4.2725,8.9028-4.3042,10.5652-.1091,5.7255,2.7373,13.7794,9,15.2609,5.0029,1.1834,9.4011-2.4858,10.1738-3.1304,5.0068-4.1769,8.8721-13.3638,3.9131-19.9565Z"/>
      <path class="cls-3" d="M963.7636,1286.2774c4.9841-3.3904,13.531-9.2042,13.5652-17.2174.0483-11.3672-17.0547-22.1251-32.3477-21.3912-1.354.0649-21.7603,1.3632-26.6086,17.2174-3.1541,10.3141,1.8086,21.7778,9.9128,27.1304,13.72,9.0615,31.219-2.8418,35.4783-5.7391Z"/>
      <path class="cls-3" d="M1471.6767,904.6252c-4.3079-2.1863-10.2847-.0201-12.1304,4.3044-2.2661,5.309,2.5623,11.8359,7.8262,12.5217,2.3328.304,4.9556-.5126,6.6521-2.3478,3.5181-3.8055,2.8931-11.8184-2.3479-14.4783Z"/>
      <path class="cls-3" d="M1040.4594,391.4948c-5.3857-5.1681-12.5303-4.735-13.0435-4.6956-9.0845.6956-15.7651,9.0653-17.2175,17.2174-.1726.9687-1.6294,10.0171,4.6958,17.2174,4.4949,5.1169,12.9062,9.2848,19.8259,6.2609,4.9822-2.1772,6.9985-7.1245,8.3479-10.4348.5547-1.3606,6.5698-16.7577-2.6086-25.5652Z"/>
      <path class="cls-3" d="M798.3725,91.4948c-10.1895-3.5435-26.0442,8.3068-24.522,20.8696.9839,8.1209,9.1282,15.707,18.261,15.6522,5.231-.0314,10.4814-2.5676,13.5652-6.7826,6.9089-9.4435,2.2771-26.4071-7.3042-29.7391Z"/>
      <path class="cls-3" d="M890.7201,149.9296c-1.6118-1.5608-4.2214-2.5963-6.7825-1.8261-3.3416,1.005-5.7361,4.8244-4.6958,8.3478.9495,3.2158,4.3301,4.7282,7.0435,4.6957.2705-.0032,4.6587-.1275,6.261-3.6522,1.2766-2.8081-.0793-5.8735-1.8262-7.5652Z"/>
      <path class="cls-3" d="M1089.5029,695.6688c-1.5154-11.2598-2.2732-16.8896-5.7393-18.2609-5.3862-2.1309-16.0979,5.5477-17.739,15.6522-1.1304,6.9595,2.2424,13.8376,7.3042,17.7391,3.917,3.019,11.2422,6.1031,15.1306,3.1304,3.1746-2.427,2.4641-7.705,1.0435-18.2609Z"/>
      <path class="cls-3" d="M1271.3288,988.3644c-3.2498-12.3341-20.2969-18.9786-32.8694-13.3043-11.5786,5.2257-18.4602,20.4924-12.5217,31.3043,4.9741,9.0566,17.0427,11.5271,25.8259,9.3913,11.9851-2.9144,22.6775-15.579,19.5652-27.3913Z"/>
      <path class="cls-3" d="M458.1984,1425.8427c-2.9729-4.3271-11.3013-4.6282-16.8259-1.5653-7.2068,3.9954-11.0378,14.488-7.0437,19.5653,2.9956,3.8079,9.7087,3.7003,14.0872,1.9564,8.2397-3.2816,13.5437-14.4819,9.7825-19.9564Z"/>
      <path class="cls-8" d="M1496.9811,1007.6688c-7.0129-4.7265-17.5803-5.6628-25.5652-.5217-11.0786,7.1331-13.3071,23.4682-6.7827,33.913,6.4597,10.3412,19.2749,11.3469,21.9131,11.4783,3.4441.1715,9.4714.4717,14.0869-3.1304,10.1707-7.9374,10.3003-32.3355-3.6521-41.7391Z"/>
      <path class="cls-8" d="M1383.5029,1025.147c-6.5999-6.5418-17.791-4.9174-24.5217-.2609-5.3379,3.6929-10.6064,11.1858-8.8696,19.5652,1.8325,8.8414,10.208,12.6092,11.2173,13.0435,1.4451.6217,6.8262,2.8404,13.0437.7827,7.7178-2.5542,10.7351-9.7154,11.478-11.4783.2869-.681,5.582-13.792-2.3477-21.6522Z"/>
      <path class="cls-8" d="M1468.2853,1089.8427c-.3525-.3137-6.238-5.3783-13.8259-3.6522-8.6594,1.9698-11.5823,10.9742-12,12.2609-.5618,1.7308-2.8103,8.6573,1.3042,14.8696,3.6345,5.4875,10.3352,7.5513,15.9131,6.7827,1.209-.1666,6.2156-.9969,9.9131-5.2175,5.8669-6.697,5.7024-18.8079-1.3044-25.0435Z"/>
      <path class="cls-8" d="M1321.8071,1106.5383c1.7363-5.6647-.9365-12.8901-7.0435-15.6522-5.2666-2.3821-11.3682-.6672-14.8694,3.1305-5.2524,5.6974-4.3806,15.7884,1.5652,19.9565,6.6506,4.6621,17.8655.6638,20.3477-7.4348Z"/>
      <path class="cls-8" d="M1278.7636,1337.2122c.9541-2.2764.3059-5.0978-1.3694-6.8478-2.6772-2.7968-7.4653-2.3228-10.1741,0-2.2815,1.9563-3.7061,5.7542-2.1521,8.2174,1.2085,1.9155,3.7036,2.2084,4.8914,2.3478.2754.0323,6.9443.72,8.8042-3.7174Z"/>
      <path class="cls-8" d="M1429.155,1265.147c.0671-.6937.6011-6.2014-3.3914-8.8696-4.1123-2.7485-9.1748.0905-9.9131.5217-3.2998,1.9279-6.657,6.2599-5.478,10.174,1.0781,3.579,5.3921,4.96,7.8259,5.7391,1.979.6335,3.7598,1.2036,5.7393.5217,3.488-1.2015,4.9551-5.3815,5.2173-8.0869Z"/>
      <path class="cls-8" d="M1087.9377,1334.7991c1.6887-6.9879-5.7405-12.4142-6.261-12.7826-4.8462-3.4307-11.2708-3.5415-16.1738-1.0435-3.95,2.0126-9.0161,6.7902-8.0869,11.4783.7659,3.8641,5.2168,5.7085,10.9565,8.0869,4.5789,1.8975,7.6792,3.182,11.478,2.087,3.2114-.9257,7.064-3.5927,8.0872-7.8262Z"/>
      <path class="cls-8" d="M928.9377,1585.4948c.082-7.8201.1294-12.3312-3.1306-15.6521-5.3184-5.4176-16.6892-4.8671-22.6956.3912-5.8311,5.105-6.0476,14.1584-6.261,23.0869-.1389,5.8131.7305,6.8456,0,12.1305-1.1995,8.676-4.2581,11.0664-2.739,14.4783,2.0166,4.5294,10.2419,6.6843,16.4348,4.6957,6.0027-1.9276,8.7107-7.304,12.5217-14.8696,1.9551-3.8816,5.7463-12.5201,5.8696-24.2609Z"/>
      <path class="cls-8" d="M701.1984,1789.3644c-1.6548-5.9918-8.8174-10.095-14.8696-9.7826-10.697.552-18.9868,14.9512-16.4346,25.826,1.2341,5.2583,5.4971,11.7979,10.9563,12.1304,5.1233.312,8.8943-4.9891,13.6958-11.7391,4.9121-6.9054,8.0613-11.3324,6.6521-16.4347Z"/>
      <path class="cls-8" d="M1127.8505,1007.9296c-3.1262-5.3282-10.3711-5.2493-13.3042-5.2174-5.6921.062-15.2554,2.4526-16.4348,8.6087-.9858,5.1461,4.4834,9.8091,5.2173,10.4348,4.7004,4.0076,10.2705,3.7572,12,3.6522,2.4358-.1478,8.4102-.5103,11.7393-5.4783,2.188-3.2651,3.0154-8.1943.7825-12Z"/>
      <path class="cls-1" d="M1487.8505,1290.9731c-1.0859-1.0765-4.894-4.8516-10.4346-4.6957-7.0662.1989-11.1445,6.6278-11.7393,7.5653-3.7595,5.9264-3.7249,14.3109.7827,20.3478.3928.5261,6.0679,7.8693,14.8694,7.0435,4.4065-.4135,10.0093-2.9131,12-7.826,1.0239-2.5271.678-4.6703,0-8.8696-.7922-4.907-1.5635-9.6844-5.4783-13.5652Z"/>
      <path class="cls-1" d="M1481.068,1162.8862c-8.7571-2.2281-15.6233,4.6393-16.4348,5.4783-.4077.4215-7.855,8.3827-4.6956,18,2.3242,7.0747,8.6907,9.879,9.3911,10.1738,1.1748.4945,7.1133,2.834,12.9131,0,6.1975-3.0283,7.8613-9.8256,9-14.4783.8289-3.387,1.5454-6.3142.3914-9.7826-1.6299-4.8981-6.1201-8.2603-10.5652-9.3912Z"/>
      <path class="cls-1" d="M1582.6115,1149.9731c-.5569-3.7373-5.7234-4.9667-6.261-5.0869-3.1045-.6943-8.1216-.1404-9.7825,3.5217-1.0332,2.278-.4473,5.0524.9783,6.8478,2.6636,3.3547,8.095,3.0862,11.3479.9783.3845-.2491,4.2302-2.8182,3.7173-6.2609Z"/>
      <path class="cls-1" d="M1582.2853,1050.1905c-.6001-.7363-6.1765-7.4047-11.739-5.7391-4.0425,1.2104-5.5735,6.0724-6.7827,9.913-1.0823,3.4368-2.9395,9.3349,0,13.0435.501.6321.8333.8119,10.4348,4.9565,2.1174.9141,3.1912,1.3698,3.9131,1.3044,4.2014-.3804,7.804-7.2495,7.8262-13.3044.02-5.4147-2.8271-9.1616-3.6523-10.1739Z"/>
      <path class="cls-1" d="M1761.2419,1184.0165c-2.5876-5.0177-9.2913-4.9706-9.9131-4.9565-5.9951.1349-12.8789,4.9615-12.5217,10.6957.2708,4.3485,4.5989,7.4979,8.0872,8.6088.6238.1986,6.3796,1.9253,10.9563-1.8262,3.4194-2.8029,5.6184-8.203,3.3914-12.5217Z"/>
      <path class="cls-1" d="M1959.6332,1250.9296c-5.5598-4.8451-15.1208-7.3489-22.3044-2.7391-5.2473,3.3673-6.7439,8.9374-7.0435,10.174-.218.8995-1.9905,8.7227,2.7393,14.0869,6.9326,7.8627,20.8462,2.5167,22.3042,1.9565,3.4438-1.3232,9.0039-3.4596,10.5654-8.6088,2.2126-7.297-5.5452-14.2457-6.261-14.8695Z"/>
      <path class="cls-1" d="M1768.8071,1672.8862c3.4236-4.9396-.8101-16.0627-8.8694-19.8262-4.6372-2.1654-12.4224-2.7727-16.1741,2.087-3.2363,4.1924-1.9062,10.4258.5217,14.0869,5.5015,8.2958,20.5837,9.3341,24.5217,3.6522Z"/>
      <path class="cls-1" d="M1954.0246,1724.0165c-7.1323-5.3265-17.8894-2.0863-21.6521,4.6957-3.1108,5.6071-.3853,11.7321-.261,12,3.2031,6.9032,10.9993,7.922,12.261,8.0869,1.5474.2023,7.2993.954,11.2173-2.6086,5.405-4.9146,5.8101-16.6661-1.5652-22.174Z"/>
      <path class="cls-1" d="M1316.4594,1415.147c-3.6196-8.5182-5.4297-12.7773-9.9131-14.6088-8.3784-3.4225-21.0405,3.5818-22.9565,12.5217-.6934,3.2357.2031,5.8745,1.0435,8.3479,2.6782,7.8823,10.5081,18.1749,21.3914,18.2609.6223.0049,10.0884-.0477,13.5652-6.2609,2.6313-4.7023.2983-10.1925-3.1304-18.2609Z"/>
      <path class="cls-1" d="M1177.0246,1342.8862c-.5896-.1005-9.9722-1.5448-15.261,5.0869-5.6377,7.0693-2.7153,18.4149,3.1306,22.3043,2.0073,1.3356,4.2078,1.5426,8.6086,1.9565,6.2314.5862,10.3657.9751,13.6956-1.5652,5.3096-4.0507,4.3762-12.3468,4.3044-12.9131-.9185-7.2423-6.9795-13.5923-14.4783-14.8695Z"/>
      <path class="cls-1" d="M1104.6332,1413.3209c2.2593-4.5479.4307-10.8673-4.1738-13.0435-3.0698-1.4508-6.6919-.7382-9.1306,1.0435-4.1487,3.031-5.304,9.4719-2.3477,13.5653,2.5793,3.5715,7.0581,3.6517,7.3042,3.6521,3.7366.0061,6.9084-2.3198,8.3479-5.2174Z"/>
      <path class="cls-1" d="M875.8505,1687.4948c-.4766-2.094-2.3635-3.8218-4.4346-4.174-3.4824-.5922-6.4026,2.8885-7.3044,5.7391-.6655,2.1036-.8257,5.7402,1.3044,7.0436,2.3462,1.4355,5.751-1.0114,6.5217-1.5653.8674-.6234,4.7402-3.4066,3.9128-7.0435Z"/>
      <path class="cls-2" d="M1292.9811,1658.2774c-3.6069-5.6511-10.8225-11.1552-18.261-10.4347-12.3545,1.1967-22.1526,19.257-17.739,33.3912,3.9014,12.4943,18.8445,21.717,28.1738,17.7391,7.8823-3.3608,9.6128-15.2305,10.4348-20.8695.8076-5.5396,1.8679-12.8127-2.6086-19.8262Z"/>
      <path class="cls-2" d="M1349.3288,1930.1036c2.1772-12.1991-9.7417-22.5673-18.2607-26.6088-2.98-1.4137-15.0405-7.1354-25.0435-.5217-9.05,5.9838-9.3745,17.4092-9.3914,18.7826-.1377,11.1414,7.7539,20.1002,16.1738,24,1.8403.8524,11.4011,5.0271,21.9131.5217,1.6067-.6886,12.7312-5.6548,14.6086-16.1738Z"/>
      <path class="cls-2" d="M1428.1115,2156.0165c6.4502-.7524,11.4199-6.9299,13.0435-12.5217,3.5693-12.2928-8.5576-23.3866-10.4348-25.0435-8.3796-7.3964-23.387-12.8795-29.739-6.7826-6.7864,6.5138.1248,22.5808.5217,23.4783,3.4299,7.7523,9.0774,12.0114,12.5217,14.6088,5.1987,3.9204,9.0769,6.8452,14.0869,6.2607Z"/>
      <path class="cls-2" d="M2263.9377,1801.7557c-2.1675-7.827-13.5779-10.5026-17.7393-11.4783-5.2561-1.2324-18.0232-4.226-25.0435,4.174-5.1621,6.1768-5.1865,16.0848-.5217,22.9565,7.2664,10.7042,21.843,8.0479,22.9565,7.826,11.9646-2.3839,22.8503-14.4409,20.3479-23.4783Z"/>
      <path class="cls-2" d="M2278.155,1940.7991c4.0103-.8173,6.7305-10.2313,5.0869-18-2.0962-9.9075-10.8042-14.8473-12.9131-16.0435-2.5796-1.4634-12.2283-6.3943-21.5217-2.3478-2.103.9156-6.5457,2.8501-7.4346,6.6521-1.4524,6.2128,7.5308,13.3654,12.9128,16.4348,5.2942,3.0193,6.3977,1.6847,12.1304,5.087,7.6396,4.5342,8.8755,8.8009,11.7393,8.2173Z"/>
      <path class="cls-2" d="M2206.0246,1347.8427c4.9329-4.7446,11.9653-14.8462,8.8696-22.4348-3.7329-9.1509-20.123-9.5721-33.3914-9.9131-9.6392-.2477-37.928-.9747-41.2175,9.9131-2.6306,8.7072,11.917,20.9032,21.9131,26.0869,3.6265,1.8806,13.5293,6.8392,26.0869,4.6957,3.4858-.5951,11.1494-2.0096,17.7393-8.3478Z"/>
      <path class="cls-2" d="M2427.6335,1275.9731c-6.3882-.8298-20.4644-2.6582-25.8262,5.8696-4.8721,7.7485.2422,19.6069,7.0435,25.826,7.6914,7.0332,21.2861,10.2799,30.9131,3.1304,7.8813-5.8534,11.9536-17.8215,7.4346-25.826-3.9346-6.9697-12.7944-8.1205-19.5649-9Z"/>
      <path class="cls-2" d="M2316.3722,1306.1036c-2.3882-3.8364-7.6729-5.5808-11.478-3.6522-3.6831,1.8668-4.2993,6.3234-4.4351,7.3043-.5786,4.1849,1.0513,10.1777,5.4785,11.4783,4.1509,1.2194,7.981-2.5028,8.3477-2.8695,2.7383-2.7395,4.7642-7.9602,2.0869-12.2609Z"/>
      <path class="cls-2" d="M1511.5898,1405.1036c.9204-7.3174-7.8728-12.7305-11.3479-14.8696-6.8821-4.2365-19.532-8.3112-25.0435-2.3478-3.4067,3.6862-2.4731,9.4623-2.3479,10.1738.927,5.2675,4.8386,8.2137,9,11.3479,5.1226,3.8582,9.7593,7.3505,16.0437,6.6521,5.7991-.6445,12.9272-4.8494,13.6956-10.9564Z"/>
      <path class="cls-2" d="M1576.2853,1206.9731c-.8862-9.4574-9.8511-16.396-17.739-18.7826-15.3735-4.6512-27.5681,7.7125-28.1738,8.3478-.6919.7256-12.78,13.7598-7.3044,25.5653,4.7209,10.1787,18.8972,11.6792,27.1304,10.4347,12.5-1.8894,27.3088-12.5258,26.0869-25.5652Z"/>
    </g>
  </g>
</svg>