<?xml version="1.0" encoding="UTF-8"?>
<svg id="Capa_2" xmlns="http://www.w3.org/2000/svg" viewBox="0 0 629.3951 638.9976">
  <defs>
    <style>
      .cls-1 {
        fill: #70569b;
      }

      .cls-2 {
        fill: #5f488c;
      }

      .cls-3 {
        fill: #9570c2;
      }

      .cls-4 {
        fill: #b29ad8;
      }

      .cls-5 {
        fill: #604593;
      }

      .cls-6 {
        fill: #47327c;
      }

      .cls-7 {
        fill: #a486ce;
      }

      .cls-8 {
        fill: #735aaf;
      }

      .cls-9 {
        fill: #8566b2;
      }
    </style>
  </defs>
  <g id="Capa_1-2" data-name="Capa_1">
    <g>
      <g>
        <path class="cls-3" d="M196.8257,634.9905c-1.0469,0-2.0918-.0554-3.1934-.1694-4.4004-.4492-15.3203-2.4219-21.6025-11.0103-4.0508-5.5151-3.9961-10.624-3.9385-16.033.0273-2.5352.0547-5.1567-.3311-8.114-2.4365-18.7297-18.8232-31.1448-20.6846-32.4988-8.3418-6.0876-15.4727-6.2444-23.0225-6.4102-7.8408-.1721-15.9482-.3501-25.0508-6.7764-.4512-.324-.8877-.6411-1.3135-.9688-7.375-5.6392-11.5625-13.2976-17.6318-27.3013-.9404-2.1528-1.9297-4.4817-2.9912-6.9827l-.5801-1.3633c-4.9834-11.7454-6.7139-18.9331-8.1045-24.7085-1.4902-6.1855-2.4736-10.272-6.8213-16.9275-4.8047-7.3528-8.7275-10.2195-12.8809-13.2544-4.4756-3.2698-9.1025-6.6509-14.1914-15.0386-3.6274-5.9709-5.8735-12.2668-7.6592-21.5361-1.5366-1.8611-3.2061-3.9531-5.3101-6.5974-5.7593-7.2441-9.2349-11.6157-10.2002-17.0552-.6753-3.7778-.2485-7.5662,4.0698-20.0134,2.3022-6.6238,4.1558-11.9575,5.9067-15.9019-.2046-3.6399-.7607-7.4795-2.4927-13.5203-1.4102-4.908-2.8359-8.6226-4.0938-11.8999-2.5356-6.606-4.5386-11.824-3.3286-20.0476.8149-5.5105,2.5903-9.2278,4.1567-12.5076,1.8193-3.8096,3.3906-7.0999,3.6338-13.1597.3315-8.4495-2.272-15.9448-3.8535-19.6602-2.1904-5.1023-4.4048-7.7527-6.3584-10.0911-2.3647-2.8303-4.5981-5.5037-4.9141-10.5269-.8706-13.7542,14.1304-24.3208,15.8438-25.4805,5.6611-3.8826,10.0703-4.6372,13.6128-5.2434,3.3154-.5671,5.9346-1.0154,9.5898-3.9587,6.2583-5.0247,10.4829-13.1716,10.7681-20.7593.0791-2.0491-.1465-2.9902-.459-4.2925-.3594-1.5007-.8076-3.3684-.7119-6.6348.2432-8.2192,3.5654-16.3923,9.874-24.293,5.165-6.4731,10.3711-9.6335,14.5537-12.1729,4.7275-2.8701,7.0518-4.425,8.2139-8.377.3887-1.3259.4004-2.1067.4199-3.2888.0264-1.7136.0605-3.8464,1.1279-7.6216,1.8838-6.5542,4.9414-12.2163,9.0928-16.845,3.3096-3.6924,5.8506-5.0105,8.7939-6.5366,2.6172-1.3577,5.875-3.0471,11.3018-7.2625,7.0762-5.4951,8.2207-7.8137,8.7871-9.7175.8506-2.8491.7041-6.3687.6172-8.4714-.0928-2.3953-.3486-3.7156-.6201-5.113-.2158-1.1104-.4385-2.2583-.5439-3.7761-.4111-5.8208,1.3311-12.0989,4.9062-17.6716.8096-1.2476,8.0127-11.8176,20.8477-13.5757,1.0703-.1465,2.0703-.2175,3.0596-.2175,4.2441,0,7.3086,1.3289,10.8574,2.8674,3.4824,1.5095,7.8154,3.3884,15.1797,4.8162,3.5234.6863,9.1777,1.5037,16.1221,1.5037.3516,0,.7061-.002,1.0654-.0066,8.8066-.1062,16.4102-.198,24.3145-4.5864,4.1846-2.322,8.8936-4.9346,11.2363-9.9363.4844-1.0342.7646-1.9431,1.0605-2.9053.5977-1.9409,1.2744-4.1409,3.4619-6.6426,3.6787-4.1863,8.2754-5.5117,12.3301-6.6809,2.4971-.7236,5.6045-1.6238,9.125-1.6238,1.9658,0,3.8887.2881,5.7129.8564,2.3613.7437,3.5156,1.625,4.6328,2.4773.6826.521,1.3887,1.0593,2.6621,1.7766,1.4473.813,6.6484,3.4719,12.6465,3.4719,1.1006,0,2.1787-.0928,3.2061-.2751,1.9375-.3445,4.1748-1.5593,8.6309-3.9792,5.0957-2.7566,10.542-6.3298,16.2617-10.6604,2.7852-2.1113,4.6533-3.6562,6.1543-4.8979,3.0488-2.5225,4.7295-3.9121,8.1631-4.6863,1.4336-.324,2.9248-.4885,4.4307-.4885,5.7197,0,10.3584,2.3103,12.5869,3.4207,7.0264,3.4778,10.4893,8.2725,13.0186,11.7734,2.3301,3.2266,3.3037,4.3682,5.0723,4.5088.1309.0105.251.0156.3672.0156,1.043,0,1.9199-.4119,3.5068-1.2009,2.335-1.1611,5.5322-2.7512,10.6846-2.7512.3008,0,.6084.0054.9248.0164,3.9551.1423,6.9414,1.1118,8.917,1.7537,5.0986,1.6738,7.8115,3.7344,9.9922,5.3899,1.8252,1.386,3.0312,2.3015,5.3789,2.8804.793.1973,1.6016.2881,2.5518.2881,2.1279,0,4.9053-.4475,9.1094-1.1248,4.2256-.6829,6.1787-1.3606,7.748-1.905,1.7266-.5994,3.3584-1.1655,6.3467-1.2815.3633-.0142.7246-.0212,1.082-.0212,11.4023,0,19.7549,6.9446,21.3135,8.3367,2.832,2.5586,3.8506,4.4939,4.749,6.2012.7236,1.3745,1.4072,2.6729,3.3467,4.7593,5.8291,6.2778,13.0449,8.8225,16.127,9.9089,5.2412,1.8379,8.8896,2.0679,12.1084,2.271,4.0254.2539,7.8281.4937,11.377,4.2112,3.3047,3.4771,3.4639,6.9741,3.5908,9.7839.1006,2.2107.1875,4.1201,1.6533,6.6091,3.8242,6.4819,12.6387,8.9832,21.3379,10.9893,0,0,1.5898.3577,1.9551.4436,4.7744,1.0869,7.2861,1.1785,9.2646,1.1785l2.0293-.0129c2.5508,0,4.8545.2061,8.4502,1.2322.4395.1294,1.3867.4084,2.7617.9006,6.7305,2.4402,22.8369,9.6973,27.3701,24.467,1.6211,5.3037.8047,8.6362-.0605,12.1648-.7793,3.1807-1.749,7.1392-1.3398,14.6218.125,2.2334.2217,2.6025.8506,5.0051.7158,2.7371,2.0498,7.832,4.5566,20.2512l.1904.9473c1.7607,8.7649,2.6865,12.7539,6.1709,15.4614.542.4226.6396.4614,1.8281.9353.8857.353,2.0986.8367,4.0215,1.7112,9.0752,4.1296,15.5762,7.0879,20.2402,12.8723,6.415,7.9404,6.4287,17.2913,6.3662,19.085-.1807,5.1628-1.7979,7.9492-3.5107,10.8992-1.2959,2.2322-2.7637,4.7625-4.0898,9.2717-1.5283,5.2151-3.8262,13.061-.8975,20.4775.7295,1.8438,1.4033,2.7446,2.3359,3.9915,1.1875,1.5869,2.666,3.562,4.1943,7.5151.8291,2.1348,3.3555,8.645,2.8721,16.5598-.3701,6.0779-2.2646,9.8975-3.7871,12.9663-1.4775,2.978-2.0566,4.2744-1.5342,6.4722.2715,1.1309.4961,1.356,1.5762,2.4375,1.2725,1.2732,3.0146,3.0173,5.0742,6.7065,4.9951,8.9727,5.3984,17.7769,5.1943,22.2268-.3604,8.2117-3.208,14.3323-4.2793,16.6365-2.332,5.012-4.8711,7.8657-6.9111,10.1587-2.1348,2.3992-3.3115,3.7207-3.7109,6.6868-.2812,2.0845-.0742,3.2268.2676,5.1196.335,1.8506.751,4.1536.8174,7.8433.1719,9.9629-2.4141,17.5298-4.915,24.8477-2.4424,7.1475-4.3838,10.397-5.8008,12.7698-1.2646,2.1157-1.8984,3.1777-2.3789,6.3528-.6777,4.4956-.1377,7.6079.3848,10.6177.6836,3.9429,1.3916,8.02-1.334,13.1138-1.8213,3.408-3.9736,4.9626-5.7021,6.2117-1.583,1.1433-2.833,2.0464-4.1699,4.6682-.5918,1.1506-3.4092,7.0955-1.3926,12.4209.4561,1.1963.8164,1.5889,2.4414,3.2458.9287.947,2.084,2.1255,3.6152,3.8726l.082.0942c7.2754,8.3503,12.083,13.8669,10.7295,20.0969-1.8057,8.3464-13.627,11.4131-20.5127,12.498-1.7109.2727-3.29.4058-4.8203.4058-1.8486,0-3.4355-.1882-5.1162-.3875-2.0518-.2437-4.3779-.5195-7.8682-.5195-.6309,0-1.2988.009-2.0088.0286-7.5264.2041-10.9287.2964-14.8359,1.8181-7.8848,3.0593-15.123,10.5884-18.0176,18.7373-.2988.833-.5508,1.6687-.8174,2.5535-.7783,2.5864-1.6602,5.5181-3.958,9.3687-1.4072,2.3723-3.8584,5.9131-7.5186,9.2556-3.7305,3.4058-6.457,4.5659-11.8887,6.877-2.1943.9336-4.9258,2.0952-8.4512,3.7153-11.0176,5.0764-12.8193,6.8157-14.0303,8.5618-2.1475,3.1038-2.7188,6.4395-2.9922,8.0425-.5635,3.3179-.1797,5.5154.2256,7.842.4951,2.8396,1.0566,6.0581-.3623,10.4531-.7686,2.3816-2.7139,6.8831-7.0967,10.2849-2.4912,1.9272-6.7041,4.1462-17.2949,4.2314l-.5049.002c-6.0039,0-10.0557-.7251-22.083-2.8772l-.3203-.0574c-9.5605-1.7139-14.4395-2.5774-16.3086-2.8486-6.7256-.9709-12.1309-1.4636-16.0654-1.4636-3.9922,0-5.3223.4954-5.9609.7332-1.3018.4834-1.8672.8333-2.9951,1.53-1.4307.8838-3.3887,2.094-7.6592,4.0862l-.1162.054c-2.6123,1.2102-7.4736,3.4631-12.1885,4.8491-1.4209.4165-5.7363,1.6821-14.6699,1.6821-2.1309,0-4.416-.0728-6.792-.2168-8.5254-.5215-13.8135-1.6848-17.6738-2.5339-2.7334-.6016-4.709-1.0359-6.7607-1.0359-1.3516,0-2.7373.1873-4.3594.5894-2.5225.6206-3.6211,1.2551-5.1416,2.1333-1.7979,1.0386-4.0352,2.3308-8.5918,3.5815-4.5625,1.2476-9.0537,1.8284-14.1377,1.8284-2.4219,0-5.0088-.1272-8.1416-.4006-11.9961-1.0435-18.3262-3.4006-22.9473-5.1218-3.4883-1.2988-5.792-2.1567-9.291-2.1567-1.0234,0-2.1055.0728-3.3066.2227-10.9121,1.3535-27.1094,7.0498-33.207,9.1941-1.2656.4438-2.4404.8662-3.5459,1.2639-6.1357,2.2065-10.5693,3.801-16.1318,3.8013Z"/>
        <path class="cls-4" d="M330.3736,8.0146c4.7518,0,8.7783,1.9934,10.8004,3.0002,12.0801,5.98,11.88,16.0801,19.5601,16.6899.2344.019.4629.0281.6846.0281,4.6246,0,6.6775-3.9519,14.1912-3.9519.255,0,.5162.0046.7842.0139,3.3401.1201,5.88.9299,7.8201,1.5601,8.65,2.8401,9.16,6.75,15.65,8.3499,1.1285.2805,2.2565.4045,3.5109.4045,2.4579,0,5.4027-.4761,9.7991-1.1843,8.85-1.4302,8.67-2.9402,13.5601-3.1301.3113-.0122.6205-.0181.927-.0181,10.3114,0,17.9146,6.6675,18.6429,7.3181,4.4401,4.01,3.08,5.5901,7.83,10.7,6.38,6.8701,14.1001,9.6799,17.7301,10.96,12.3199,4.3201,17.2799.6101,21.9199,5.47,4.41,4.6401.63,8.77,4.6901,15.6602,4.72,8,14.74,10.75,23.89,12.8599.6499.1501,1.2999.29,1.9399.4402,5.0447,1.1487,7.8777,1.2844,10.179,1.2844.7111,0,1.3711-.0129,2.0304-.0129,1.9993,0,3.9883.1189,7.3507,1.0784.2699.0801,1.1699.3401,2.51.8201,6.0399,2.1899,20.87,8.77,24.8899,21.8699,2.6101,8.54-2.45,9.77-1.5699,25.8301.3101,5.5601.75,2.3999,5.48,25.8301,1.85,9.1799,2.85,14.9099,7.8301,18.78,1.6299,1.27,1.99,1.01,6.6499,3.1299,8.9,4.05,14.7001,6.6799,18.78,11.74,5.6801,7.03,5.51,15.5901,5.48,16.4299-.27,7.7202-4.27,8.4001-7.4399,19.1802-1.6,5.46-4.22,14.3699-.78,23.0798,1.99,5.03,4.03,5.04,6.52,11.48.9199,2.3701,3.03,8,2.61,14.8701-.66,10.8401-6.9301,13.4199-5.22,20.6101,1.0399,4.3398,3.36,3.5598,7.0499,10.1699,4.86,8.73,4.8201,17.26,4.6901,20.0901-.3201,7.2898-2.77,12.6799-3.91,15.1299-4.55,9.78-9.92,10.29-10.96,18-.6801,5.05.9199,6.3,1.0499,13.5701.16,9.25-2.26,16.3398-4.7,23.48-4.63,13.55-7.16,11.9399-8.35,19.8201-1.6901,11.21,3.3099,15.2798-.52,22.4399-2.9301,5.48-6.54,4.3398-9.91,10.95-.73,1.4199-4.22,8.6599-1.5699,15.6599,1.1799,3.0901,2.5499,3.5,6.7899,8.3401,6.64,7.6199,10.8401,12.4199,9.91,16.7-1.49,6.8901-15.5699,9.1301-17.22,9.3901-1.6271.2593-2.9684.3569-4.1965.3569-3.7434,0-6.4388-.9067-12.9851-.907-.6649,0-1.3689.0095-2.1184.03-7.74.21-11.61.3098-16.1799,2.0898-9.02,3.5-17.0901,11.98-20.3401,21.1301-1.21,3.3699-1.6299,6.5-4.4399,11.21-.99,1.6699-3.21,5.0901-6.78,8.3501-4.6,4.2-7.34,4.4099-19.3099,9.9099-11.5901,5.3401-13.91,7.4099-15.65,9.9199-2.61,3.77-3.3201,7.72-3.65,9.6501-1.41,8.3098,2.15,11.0798,0,17.74-.41,1.27-1.9,5.3699-5.74,8.3499-1.59,1.23-4.9301,3.3101-14.87,3.3901-.1586.001-.3164.0017-.4723.0017-5.6998,0-9.6763-.7207-21.6978-2.8718-9.6499-1.73-14.51-2.5898-16.4399-2.8699-7.856-1.1343-13.0863-1.5049-16.6399-1.5049-4.4982,0-6.3099.5938-7.3601.9849-3.58,1.3298-3.34,2.1899-10.9501,5.74-2.59,1.2-7.25,3.3699-11.74,4.6899-1.5391.4514-5.4946,1.5195-13.5399,1.5195-1.9384,0-4.1134-.0618-6.55-.2095-14.3583-.8784-18.8665-3.5769-24.676-3.5771-1.5989,0-3.2953.2041-5.324.707-6.34,1.5601-5.96,3.5801-13.83,5.74-4.483,1.2263-8.6687,1.6855-13.0771,1.6855-2.4948,0-5.0608-.147-7.7928-.3855-20.4305-1.7769-22.9775-7.2935-32.5872-7.2937-1.1521,0-2.4048.0791-3.8029.2537-11.29,1.4001-27.5,7.0901-34.04,9.3901-8.0568,2.8242-12.572,4.8381-18.349,4.8381-.8914,0-1.8119-.0479-2.781-.1482-1.86-.1899-12.87-1.3101-18.78-9.3899-4.95-6.7402-2.2899-12.8-3.5299-22.3-2.67-20.52-20.5-33.9102-22.3-35.22-18.17-13.26-31.42-1.4302-48.12-13.2202-.39-.2798-.79-.5698-1.1801-.8699-6.84-5.23-10.71-12.5901-16.3999-25.72-1.11-2.54-2.28-5.3101-3.5601-8.3201-10.3099-24.3-6.33-28.5901-15.2599-42.26-10.4601-16.01-17.7001-12.8499-27-28.1799-3.7001-6.0901-5.7201-12.45-7.3401-21.22-1.7299-2.0701-3.6599-4.49-5.9199-7.3301-5.74-7.22-8.62-10.9199-9.3901-15.26-.4698-2.6299-.43-5.49,3.9101-18,2.52-7.25,4.42-12.6899,6.17-16.4399-.18-4.3601-.7601-8.6699-2.69-15.4001-4.35-15.1399-8.9-19.45-7.31-30.2598,1.6199-10.9502,7.33-13.6101,7.83-26.0901.3701-9.4099-2.5099-17.49-4.17-21.3901-5.0401-11.74-10.51-12.1399-10.96-19.2998-.73-11.53,12.7599-21.01,14.0898-21.9102,10.0901-6.9199,14.69-2.3298,23.4702-9.3999,6.9-5.54,11.9199-14.6899,12.2599-23.73.2-5.21-1.33-5.51-1.17-10.96.3199-10.8301,6.6601-18.98,9-21.9102,10.14-12.71,20.39-11.4099,23.48-21.9199,1.1901-4.0601-.14-4.9399,1.5601-10.95.6-2.0901,2.64-9.04,8.22-15.26,5.52-6.1602,7.88-4.23,19.5699-13.3101,7.3401-5.7,9.26-8.6799,10.17-11.74,1.03-3.45.88-7.3799.78-9.78-.1801-4.6399-.9601-5.97-1.17-9-.5499-7.77,3.53-14.0601,4.3-15.26.39-.5999,6.83-10.21,18-11.74.9003-.1233,1.7321-.1804,2.5155-.1804,7.1005,0,10.2699,4.7012,25.2744,7.6104,2.1646.4216,8.5316,1.5769,16.8846,1.5769.3684,0,.7395-.0022,1.1154-.0068,9.1101-.1099,17.42-.21,26.2101-5.0901,4.47-2.48,10.02-5.5498,12.9199-11.74,1.64-3.5,1.3401-5.6699,3.91-8.6099,2.9-3.3,6.65-4.3801,10.4301-5.47,2.3579-.6833,5.0615-1.4653,8.0082-1.4653,1.4523,0,2.9635.1899,4.5217.6753,2.92.9199,2.9501,1.9099,6.52,3.9199,1.1074.6218,7.2817,3.9873,14.6127,3.9873,1.2748,0,2.583-.1016,3.9073-.3372,2.59-.4602,5.03-1.79,9.91-4.4402,3.4199-1.8499,9.0399-5.1499,16.7-10.95,8.47-6.4199,9.01-8.02,12.78-8.8699,1.213-.2742,2.4028-.3904,3.5496-.3904M330.3735,0c-1.8022,0-3.5908.1978-5.3159.5876-4.3647.9836-6.6583,2.8811-9.833,5.5071-1.4714,1.2173-3.303,2.7322-6.0219,4.793-5.5547,4.2061-10.8285,7.668-15.6716,10.2876l-.0842.0459c-3.8152,2.0718-6.1179,3.3223-7.4149,3.5527-.797.1418-1.6395.2136-2.5052.2136-5.1544,0-9.8082-2.4666-10.6887-2.9609-1.0222-.5757-1.5625-.988-2.1882-1.4656-1.5481-1.1814-3.0568-2.231-5.8473-3.1104-2.2363-.6965-4.5594-1.0457-6.9302-1.0457-4.0898,0-7.6439,1.03-10.239,1.7822-4.351,1.2544-9.7732,2.8174-14.2195,7.8772-2.7627,3.1604-3.6445,6.0254-4.2886,8.1174-.2756.8955-.4934,1.603-.8586,2.3823-1.7935,3.8286-5.7229,6.0085-9.5229,8.1169-7.0499,3.9141-13.8439,3.9961-22.4454,4.0999-.3464.0042-.6842.0063-1.0194.0063-6.6245,0-12.0052-.7773-15.3524-1.4292-6.9412-1.3457-10.8801-3.0537-14.3555-4.5603-3.6265-1.5723-7.3763-3.198-12.4514-3.198-1.1725,0-2.3506.0833-3.6021.2544-14.5939,1.999-22.7507,13.9556-23.6328,15.3123l-.0123.019-.0299.0466c-4.0411,6.2939-6.0061,13.4426-5.533,20.1287.1215,1.7515.3792,3.0793.6066,4.2512.2516,1.2966.469,2.4165.5496,4.4939.078,1.8735.207,4.9722-.4512,7.176-.2466.8293-.7546,2.5378-7.4059,7.7029-5.1388,3.9915-8.0876,5.5208-10.6895,6.8701-3.1548,1.6362-6.1345,3.1816-9.9338,7.4214-4.5597,5.0828-7.9099,11.2737-9.9547,18.3975-1.2185,4.3079-1.2587,6.8335-1.2878,8.6775-.0173,1.0911-.0225,1.4204-.2596,2.2292-.702,2.3882-1.8485,3.2839-6.4468,6.0754-4.2192,2.5613-9.9977,6.0693-15.6073,13.1006-6.8607,8.5916-10.477,17.5662-10.746,26.6716-.1115,3.8015.4272,6.0481.8206,7.6885.281,1.1719.4093,1.7065.3519,3.2009-.2402,6.3833-3.965,13.5293-9.269,17.7878-2.8533,2.2974-4.5965,2.5957-7.7612,3.1375-3.7213.6367-8.8177,1.5088-15.2241,5.9023-3.0718,2.0791-18.5461,13.3801-17.5556,29.0261.3978,6.3298,3.4142,9.9402,5.8378,12.8413,1.8643,2.2314,3.7921,4.5391,5.7562,9.1138,1.4402,3.384,3.8277,10.2444,3.5262,17.9136-.2096,5.231-1.483,7.8972-3.2454,11.5874-1.6882,3.5349-3.6016,7.541-4.5045,13.6448-1.3633,9.269.9141,15.2026,3.5512,22.0732,1.2287,3.2012,2.6214,6.8296,3.9841,11.5725,1.4802,5.1616,2.047,8.5898,2.2812,11.7048-1.6951,3.9736-3.4673,9.0728-5.6286,15.291-4.6129,13.2961-5.0327,17.5449-4.2294,22.0408,1.1407,6.4287,4.8541,11.0996,11.0062,18.8379,1.8304,2.3003,3.3347,4.186,4.7108,5.8687,1.8523,9.2285,4.2145,15.6687,7.9733,21.8552,5.5009,9.0679,10.6802,12.8523,15.2498,16.1914,4.017,2.9351,7.4862,5.47,11.8902,12.2107,3.9689,6.0757,4.8391,9.689,6.2807,15.675,1.4254,5.9185,3.1994,13.2844,8.3107,25.3318l.6625,1.5588c1.0281,2.4202,1.999,4.7061,2.9316,6.8401,5.4775,12.6399,10.0441,22.1245,18.8759,28.8774.442.3401.9147.6841,1.3761,1.0151l.0248.0178.0249.0176c10.1021,7.1318,19.2247,7.3323,27.2737,7.509,7.4993.1648,13.4226.2949,20.7441,5.6377.6942.5054,16.8177,12.418,19.077,29.7803.3499,2.6812.3235,5.1592.2979,7.5559-.0593,5.5566-.1265,11.8547,4.7198,18.4539,5.0833,6.9497,13.9883,11.5535,24.4227,12.6189,1.2317.1274,2.4113.1897,3.598.1897,6.2612,0,11.2152-1.7815,17.4873-4.0371,1.0964-.3943,2.2612-.8132,3.5129-1.252,5.9935-2.1079,21.8938-7.7,32.3751-9,1.0414-.1299,1.9606-.1929,2.8165-.1929,2.777.0002,4.5939.6768,7.8923,1.9053,4.8367,1.801,11.4606,4.2678,24.0004,5.3586,3.2484.2834,5.946.4155,8.4873.4155,5.4518,0,10.2791-.6257,15.1918-1.9697,5.0607-1.3889,7.6508-2.885,9.5421-3.9773,1.4152-.8176,2.1254-1.2278,4.0883-1.7107,1.3115-.3252,2.3905-.4751,3.4084-.4749,1.6162,0,3.3201.3748,5.8992.9421,3.9895.8777,9.4534,2.0796,18.288,2.6201,2.4602.1489,4.827.2244,7.0393.2244,9.5099,0,14.241-1.3877,15.7957-1.8435,5.0024-1.4707,10.0387-3.8042,12.7444-5.0579l.109-.0505c4.5034-2.1008,6.5774-3.3826,8.0918-4.3184,1.0409-.6431,1.355-.8372,2.28-1.1809.3256-.1211,1.2982-.4834,4.5693-.4834,3.743,0,8.9562.4788,15.4945,1.4229,1.7963.2605,6.8557,1.1562,16.171,2.8264l.3163.0566c11.9596,2.1399,16.4344,2.9407,22.7958,2.9407l.5278-.0017c11.7976-.095,16.7345-2.7571,19.7185-5.0654,5.2437-4.0693,7.5525-9.4067,8.4629-12.2266,1.7234-5.3389,1.0432-9.2395.4966-12.3738-.3892-2.2322-.6704-3.8447-.2218-6.4878.241-1.4099.6927-4.0527,2.3379-6.429.526-.7588,1.5104-2.179,12.4143-7.2029,3.4656-1.5923,6.1671-2.7417,8.3378-3.6653,5.4801-2.3315,8.7878-3.7388,13.0223-7.605,4.0258-3.6763,6.7194-7.5659,8.27-10.1816,2.5392-4.2556,3.5389-7.5776,4.3423-10.2468.2509-.8333.4877-1.6204.7467-2.3418,2.4965-7.0286,8.9471-13.748,15.6963-16.3669,3.1184-1.2146,5.708-1.3386,13.4255-1.5479l.0725-.002c.6704-.0186,1.2979-.0271,1.8905-.0271,3.2644,0,5.3708.25,7.4078.4915,1.7218.2043,3.5023.4155,5.5878.4155,1.7439,0,3.5291-.1494,5.4578-.4568,7.8853-1.2424,21.4817-4.926,23.7922-15.6108,1.7795-8.1895-3.844-14.6428-11.6276-23.575l-.0735-.0845c-1.6187-1.8477-2.8689-3.1226-3.782-4.0537-1.384-1.4114-1.3909-1.429-1.563-1.8799-1.4371-3.7959.9351-8.6011,1.2103-9.1365.9095-1.7842,1.5094-2.2173,2.9585-3.2642,1.8446-1.3325,4.6323-3.3459,6.8915-7.5715,3.3745-6.3086,2.4723-11.509,1.7473-15.6875-.4891-2.8191-.951-5.4819-.37-9.3364.3615-2.3931.6779-2.9229,1.8553-4.8936,1.5088-2.5251,3.5752-5.9836,6.1537-13.5298,2.4906-7.2886,5.3136-15.5498,5.1293-26.2102-.0718-4.0173-.5392-6.6018-.8805-8.489-.3176-1.7561-.4364-2.4133-.2399-3.8728.2281-1.6919.6724-2.2412,2.7329-4.5569,2.0978-2.3577,4.9707-5.5864,7.5508-11.1321,1.1633-2.5,4.2544-9.1428,4.6503-18.1589.2231-4.8584-.2189-14.5042-5.6945-24.3401-2.335-4.1829-4.3856-6.2351-5.7426-7.5935-.1632-.1633-.3683-.3684-.5088-.5164-.0023-.0093-.0046-.019-.0071-.0291-.1688-.7097-.157-.9602,1.228-3.7515,1.5945-3.2136,3.7782-7.6152,4.1976-14.5042.5374-8.7881-2.2292-15.9153-3.1383-18.2573-1.7234-4.4575-3.455-6.7715-4.7192-8.4609-.8564-1.1445-1.2863-1.719-1.8197-3.0674-2.4226-6.134-.356-13.1865,1.0116-17.853,1.1947-4.063,2.4767-6.2717,3.7164-8.4077,1.7969-3.0959,3.8335-6.605,4.0491-12.7708.0729-2.0366.0659-12.6853-7.2556-21.7468-5.2544-6.5168-12.1173-9.6399-21.6161-13.9622l-.0784-.0356c-2.0112-.915-3.3279-1.4399-4.1991-1.7871-.2747-.1094-.6063-.2417-.771-.3135-.0233-.0176-.0475-.0366-.0734-.0566-2.2614-1.7573-3.0446-4.8113-4.7085-13.0918l-.191-.9495c-2.53-12.533-3.8822-17.6997-4.6085-20.4753-.6001-2.2927-.6235-2.3821-.7258-4.2178-.3771-6.8806.4769-10.366,1.2306-13.4412.911-3.718,1.9436-7.9319.0018-14.2852-5.0641-16.5022-22.5427-24.4224-29.8225-27.062-1.4982-.5364-2.5256-.8398-2.9125-.9541l-.0493-.0146-.0404-.012-.0406-.0117c-4.0315-1.1504-6.7334-1.386-9.5499-1.386-.3485,0-.6959.0032-1.0498.0066-.3186.0032-.6434.0063-.9806.0063-1.7571,0-3.9983-.0835-8.3788-1.0796-.366-.0857-.7351-.1685-1.1056-.2515-.276-.0618-.5529-.1238-.8298-.1877-7.8551-1.8113-15.7731-4.0068-18.7919-9.1235-.9589-1.6272-1.0092-2.7373-1.1006-4.7524-.1409-3.1067-.3538-7.8013-4.6829-12.3564-4.644-4.8643-9.8514-5.1926-14.0358-5.4563-2.9603-.1868-6.3158-.3984-11.0415-2.0557-2.7894-.9834-9.3529-3.2979-14.5094-8.8506-1.5789-1.6985-2.0646-2.6216-2.7368-3.8992-1.0018-1.9041-2.2488-4.2734-5.5941-7.2949-1.7814-1.5913-11.1566-9.3845-24.0148-9.3845-.4095,0-.8226.0078-1.2384.0239-3.5833.1392-5.6667.8621-7.505,1.5-1.4963.5193-3.1924,1.1077-7.0222,1.7266l-.0513.0083c-3.8683.6233-6.6632,1.0735-8.4692,1.0735-.6238,0-1.1104-.0518-1.5775-.1677-1.5591-.3845-2.2532-.9116-3.9302-2.1851-2.291-1.7395-5.4287-4.1223-11.1532-6.0017-2.0792-.6753-5.5186-1.7925-10.0321-1.9546-.3708-.0132-.7257-.0193-1.0721-.0193-6.0933,0-9.9301,1.908-12.469,3.1704-.5748.2859-1.3452.6689-1.6724.7659-.5327-.4819-1.5101-1.835-2.2417-2.8479-2.6176-3.6238-6.5731-9.1001-14.4972-13.0225-2.2906-1.1409-7.6951-3.8323-14.3561-3.8323h0Z"/>
      </g>
      <path class="cls-5" d="M429.5541,468.2949c-19.28,25.28-49.12,41.54-80.43,47.0801-31.31,5.54-63.92.88-93.7-10.27-44.19-16.54-83.2-47.95-106.18-89.1599-22.41-40.1801-28.77-89.5801-14.8-133.3701.35-1.1299.72-2.25,1.11-3.37,19.83-57.39,70.86-124.62,131.48-127.6,4.44-.22,8.89-.23,13.35-.02,17.79.8401,35.94,6.9,48.23,19.79,10.23,10.73,15.73,25.83,14.77,40.63-.77,11.92.21,47.58,3.83,60.5.13.4401.25.85.38,1.23,3.91,11.66,15.4,18.7101,25.88,25.15,31.39,19.3199,62.53,44.12,73.56,79.28,9.51,30.34,1.79,64.84-17.48,90.1299Z"/>
      <g>
        <path class="cls-7" d="M433.147,273.5217c-6.6741,5.7455-16.1516,4.6952-21.7321,4.0791-5.0338-.564-6.2662-1.5969-16.299-4.9817-20.1785-6.8043-22.7388-5.1466-27.1738-9.5121-4.6433-4.5738-6.7436-11.2219-6.8738-17.5575-.0607-2.2219.1302-4.4003.5381-6.4398,2.6644-13.3222,14.6153-20.8468,23.9972-23.0947,10.8747-2.6124,19.7793,1.5188,26.2625,4.5304,2.7165,1.2584,9.2952,4.3047,15.3877,9.5381,5.624,4.8169,10.84,11.5083,12.2373,20.3434.3211,2.0657,2.2478,15.6916-6.3443,23.0948Z"/>
        <path class="cls-9" d="M433.147,273.5217c-6.6741,5.7455-16.1516,4.6952-21.7321,4.0791-5.0338-.564-6.2662-1.5969-16.299-4.9817-20.1785-6.8043-22.7388-5.1466-27.1738-9.5121-4.6433-4.5738-6.7436-11.2219-6.8738-17.5575.9373,2.2218,1.663,6.7221,3.5637,9.5774,2.5603,3.8448,5.4017,5.2549,9.42,6.6261,3.5931,1.2151,5.2421-.2257,10.7012-.1735,4.0531.0347,4.5564.8418,13.5825,3.055,9.2084,2.2652,13.9384,3.3847,19.7012,2.89,4.2006-.3646,7.6114-.6596,10.5276-3.2285,4.2961-3.8014,4.4697-9.894,4.5825-13.9211.0868-3.107-.2257-8.271-3.2286-15.1188-.8245-1.8833-1.7271-3.6017-2.6644-5.1726,5.624,4.8169,10.84,11.5083,12.2373,20.3434.3211,2.0657,2.2478,15.6916-6.3443,23.0948Z"/>
        <path class="cls-4" d="M383.2824,219.3728c-4.2061.1338-7.2311,2.0077-9.0563,3.1697-1.8106,1.1528-6.6786,4.3502-8.8299,10.5279-.907,2.6044-2.1028,6.0383-.3396,8.9431,2.025,3.3361,6.8047,4.0826,10.0751,3.3961,4.5495-.9549,7.0824-4.8728,7.811-5.9998,2.017-3.1198,1.0696-4.3404,3.3961-7.1317,1.9626-2.3546,3.3973-2.3984,4.5282-4.7546.2819-.5872,1.5784-3.2885.4528-5.4338-1.534-2.9237-6.4916-2.7661-8.0375-2.7169Z"/>
        <path class="cls-4" d="M409.9418,221.1091c-1.7769-.8726-4.2043-2.0262-7.3582-1.698-.6844.0712-5.603.5831-6.2262,3.2829-.4622,2.0022,1.6252,4.3972,3.7357,5.3205,2.2233.9727,2.8694-.3891,7.3582.1133,2.2988.2573,3.237.7384,5.547.566,1.6735-.1249,3.3915-.2532,3.7357-1.132.6107-1.5593-3.3799-4.777-6.7922-6.4526Z"/>
      </g>
      <g>
        <path class="cls-7" d="M527.3123,317.9081c-.1995,4.7619-.4488,9.5321-2.8173,15.175-1.82,4.3297-3.9309,9.3493-9.1083,12.3577-8.9421,5.1941-19.4383-.0581-20.5934-.6565-6.8479-3.5569-9.8729-9.4408-11.7012-13.006-1.6787-3.2578-4.8035-9.3493-4.9614-16.3302-.0748-3.2411.4903-6.6817,2.1358-10.1138,5.8755-12.2498,20.4106-13.9284,22.1143-14.0947,1.0554-.108,10.9948-.9557,18.1169,3.7066,1.687,1.0969,3.2162,2.5097,4.4295,4.3131,2.9918,4.4211,2.7841,9.2661,2.3852,18.6487Z"/>
        <path class="cls-9" d="M527.3123,317.9081c-.1995,4.7619-.4488,9.5321-2.8173,15.175-1.82,4.3297-3.9309,9.3493-9.1083,12.3577-8.9421,5.1941-19.4383-.0581-20.5934-.6565-6.8479-3.5569-9.8729-9.4408-11.7012-13.006-1.6787-3.2578-4.8035-9.3493-4.9614-16.3302.3574,3.4239,1.2799,7.9698,4.0888,12.6486.5817.964,3.64,5.9171,9.6485,9.6486,5.3104,3.2909,9.1665,3.2826,10.2469,3.2493,1.3048-.0416,4.3464-.1495,5.8506-2.169.7895-1.0638.6399-1.9696.9723-3.4156.6731-2.8754,2.7342-4.3214,4.7204-6.8312,4.7869-6.0667,6.8562-6.449,8.7759-10.2386,2.6178-5.1442,1.8699-10.4629,1.4627-13.3384-.6233-4.4626-2.2023-7.87-3.399-10.0556,1.687,1.0969,3.2162,2.5097,4.4295,4.3131,2.9918,4.4211,2.7841,9.2661,2.3852,18.6487Z"/>
        <path class="cls-4" d="M496.0958,295.8184c-1.5466-.7053-3.1849-.1304-3.9837.1626-3.66,1.3424-6.2501,4.9427-6.829,5.7722-1.7921,2.568-4.6355,6.6425-3.9837,11.7883.0601.4744.8439,6.183,3.9023,6.8291,2.2321.4715,4.4446-2.0136,5.0405-2.6829.9715-1.0912,1.44-2.1017,3.252-8.4551,2.0282-7.1114,1.679-6.6795,2.1951-7.6421.9611-1.7929,2.2983-3.5266,1.6259-4.7966-.2928-.553-.8564-.8101-1.2194-.9756Z"/>
        <path class="cls-4" d="M511.136,292.6478c-1.5137-.5547-3.3-1.2092-5.6096-1.0569-2.4753.1633-5.8824,1.2755-5.9348,2.6829-.039,1.0463,1.7811,2.1204,3.3332,2.439,1.7862.3666,2.5767-.3989,5.5283-1.0569,3.8303-.8539,6.0686-.3604,6.1787-.9756.1262-.7053-2.7438-1.757-3.4958-2.0325Z"/>
      </g>
      <g>
        <path class="cls-7" d="M287.9958,551.8151c-3.5807,6.4329-11.7396,8.2845-18.7264,10.609-8.5587,2.8582-16.6678,7.3562-25.6021,8.6395-8.8526,1.2568-17.9594-.784-26.0624-4.5536-9.2639-4.312-17.7424-11.2599-21.5652-20.7188-3.4131-8.4603-2.6818-18.4707,1.9173-26.3448.8752-1.4862,1.8815-2.8891,3.0065-4.2026,1.0227-1.1882,2.126-2.2988,3.3161-3.3192,3.1998-2.748,6.9678-4.8354,10.9919-6.0354,8.0671-2.394,14.369,2.9063,21.4905,5.8961,4.8272,2.0182,10.0288,2.6761,15.2575,3.2481,5.1463.5672,10.3321,1.0419,15.2249,2.6509,3.7347,1.2246,7.2346,3.1302,10.3295,5.5583,1.5906,1.2435,3.0731,2.6311,4.4153,4.1319,2.0809,2.3196,3.8506,4.9294,5.2126,7.7359,2.5336,5.2183,3.6208,11.6384.794,16.7045Z"/>
        <path class="cls-9" d="M287.9958,551.8151c-3.5807,6.4329-11.7396,8.2845-18.7264,10.609-8.5587,2.8582-16.6678,7.3562-25.6021,8.6395-8.8526,1.2568-17.9594-.784-26.0624-4.5536-9.2639-4.312-17.7424-11.2599-21.5652-20.7188-3.4131-8.4603-2.6818-18.4707,1.9173-26.3448.8752-1.4862,1.8815-2.8891,3.0065-4.2026-1.0048,3.1014-1.8541,6.7757-2.184,11.0323-.3952,5.0326-.9656,12.3264,2.9024,19.5042,4.6757,8.6785,13.04,12.0164,22.8883,15.9354,8.3864,3.3343,16.6582,6.633,24.8137,3.6902.3456-.1327,3.7556-1.714,10.5597-4.8924,8.0432-3.7536,8.8329-4.1661,9.6598-4.6298,6.6119-3.6683,10.1764-5.6414,12.3679-9.7853,2.0779-3.949,1.8668-7.8513,1.7033-10.6696-.1833-3.2228-.8946-5.8986-1.6854-8.0543,2.0809,2.3196,3.8506,4.9294,5.2126,7.7359,2.5336,5.2183,3.6208,11.6384.794,16.7045Z"/>
        <path class="cls-4" d="M224.6136,510.8038c-2.7746-1.0948-5.7824-2.2816-9.3509-1.5679-5.8885,1.1777-8.9221,6.6539-9.5571,7.8003-1.0282,1.8561-3.959,7.1469-1.4707,12.5258,2.1691,4.689,7.2926,6.9289,11.2195,6.9391,2.1924.0057,4.3884-.9004,8.7804-2.7125,4.1069-1.6945,4.0975-2.2316,6.8356-3.0495,4.2299-1.2635,5.0965-.2338,8.6778-1.5143,1.5141-.5414,6.319-2.2595,6.5503-5.1896.2047-2.5932-3.2806-4.7732-4.4284-5.4912-2.8742-1.7978-4.1262-1.1213-7.9647-2.4998-4.7617-1.7101-4.4822-3.3427-9.2919-5.2405Z"/>
        <path class="cls-4" d="M274.3474,525.73c-.6436-1.4337-2.3642-2.0243-5.7794-3.1468-3.6427-1.1974-5.5601-1.8276-8.3199-1.586-2.6654.2334-4.5355,1.1416-5.4176,1.5805-1.5997.796-4.5229,2.2506-4.4168,3.9454.0238.3799.2225,1.1343,3.7369,3.1209,2.7313,1.5439,4.9692,2.4211,5.8032,2.7443,5.0606,1.9612,7.62,2.9335,9.0483,2.5322,3.0846-.8667,4.5623-3.9928,4.8085-4.5401.4468-.9934,1.3135-2.9202.5368-4.6504Z"/>
      </g>
      <g>
        <path class="cls-7" d="M491.5981,465.1457c-1.7048,7.1199,1.0696,14.8245-1.1031,21.8107-2.3064,7.4375-9.9277,12.2842-17.6492,13.2872-10.145,1.3369-21.51-4.028-24.7857-13.7218-.5348-1.5877-.8357-3.2258-.936-4.8636-.3509-5.9498,1.9889-12.0837,5.8163-16.78,2.39-2.9583,5.3148-5.4318,8.4904-7.5043,1.8552-1.237,3.8106-2.3232,5.7995-3.3094,4.8635-2.4233,11.0809-5.6824,16.5462-5.8497,2.9582-.1002,6.117,1.0364,8.0557,3.1423.8023.8691,1.3872,1.8717,1.6881,3.0417.9193,3.5767-1.0696,7.1533-1.922,10.7467Z"/>
        <path class="cls-9" d="M491.5981,465.1457c-1.7048,7.1199,1.0696,14.8245-1.1031,21.8107-2.3064,7.4375-9.9277,12.2842-17.6492,13.2872-10.145,1.3369-21.51-4.028-24.7857-13.7218-.5348-1.5877-.8357-3.2258-.936-4.8636,1.0697,1.989,2.6407,4.262,5.0642,6.3679,6.4346,5.5657,14.0558,5.7158,15.2091,5.7158,2.975.0167,8.7244.0335,12.7523-4.0779,4.2786-4.3789,4.262-11.0307,4.2452-11.9331-.0335-2.5739-.6518-3.2258-.3176-5.8998.3844-3.209,1.6881-5.5824,2.9416-7.8386,2.5404-4.5794,3.4763-4.0949,4.4122-6.5517.8189-2.1559.7521-4.2618.4011-6.0835.8023.8691,1.3872,1.8717,1.6881,3.0417.9193,3.5767-1.0696,7.1533-1.922,10.7467Z"/>
        <path class="cls-4" d="M458.6191,465.2422c-1.9287-.6351-3.9024.9893-4.687,1.635-2.8665,2.3593-3.5151,5.7923-3.9239,7.957-.5054,2.6751-.8778,4.6468.3269,6.4856.8511,1.299,2.4608,2.4884,4.4691,2.5615,1.7082.062,3.4599-.6926,4.469-2.0165.2807-.3685.6039-.9118.981-6.5945.2864-4.3169.0487-3.2282.218-4.5233.2445-1.8692.5706-2.842,0-3.9241-.0488-.0924-.6439-1.1823-1.853-1.5805Z"/>
        <path class="cls-4" d="M462.1546,460.441c1.0504-1.3709,2.3996-2.5327,3.8187-3.5331,1.8313-1.291,3.8075-2.3594,5.8202-3.3372,1.884-.9152,3.8544-1.9985,5.9094-2.4688.7845-.1795,1.6414-.1934,2.3596.1698s1.2463,1.1728,1.0995,1.964c-.1275.6868-.6999,1.1972-1.2777,1.5897-1.0139.6888-2.145,1.1872-3.2947,1.6122-3.0471,1.1261-6.3134,1.7817-9.0668,3.5056-2.05,1.2835-3.8643,3.1727-6.2544,3.5435-.1108.0172-.2289.03-.3313-.0158-.2854-.1278-.2204-.5491-.0946-.8353.3457-.7866.7923-1.5162,1.3121-2.1946Z"/>
      </g>
      <path class="cls-7" d="M155.7341,471.615c-2.28,8.01-10.96,13.35-18,14.87-6.74,1.4501-9.31-1.1901-27.39-5.87-16.25-4.21-15.87-2.52-23.48-5.48-6.51-2.53-17.34-6.74-25.82-17.6101-10.44-13.3599-10.64-28.21-10.57-32.0798.02-1.3101.08-4.3301.59-8.1801,1.23-9.16,5.08-22.9701,17.41-29.39,11.91-6.1899,24.66-1.8101,27.39-.78,6.9,2.5801,12.94,9.41,23.43,22.4399,1.25,1.5601,2.57,3.2101,3.96,4.9501,8.41,10.53,13.83,18.2899,18,24.65,11.03,16.8199,16.5099,25.37,14.48,32.48Z"/>
      <path class="cls-9" d="M155.7341,471.615c-2.28,8.01-10.96,13.35-18,14.87-6.74,1.4501-9.31-1.1901-27.39-5.87-16.25-4.21-15.87-2.52-23.48-5.48-6.51-2.53-17.34-6.74-25.82-17.6101-10.44-13.3599-10.64-28.21-10.57-32.0798.02-1.3101.08-4.3301.59-8.1801.43,3.7599,1.31,7.8199,2.93,11.96,4.29,10.91,11.91,17.5,14.35,19.5599,2.73,2.3101,10.95,9.26,22.17,11.4801,2.89.5699,6.16.87,10.7,2.87,4.87,2.1499,5.11,3.58,9.65,5.74,3.3,1.5701,8.74,4.1499,15.13,2.87,1.26-.25,8.03-1.61,11.22-7.2999.54-.9701,2.65-5.03,0-14.8701-2.52-9.36-6.18-12.26-10.7-21.1299-1.61-3.1801-6.4-12.6201-7.22-18.9102,1.25,1.5601,2.57,3.2101,3.96,4.9501,8.41,10.53,13.83,18.2899,18,24.65,11.03,16.8199,16.5099,25.37,14.48,32.48Z"/>
      <path class="cls-4" d="M77.6045,388.7881c-1.0139-.0599-3.2578-.1752-5.8696.5217-7.9913,2.1324-14.7567,10.6224-15,19.0435-.0529,1.8326-.1626,5.6263,2.3478,7.4348,2.2662,1.6324,5.7471.9844,7.9565-.3914.9319-.5802,1.9257-1.4692,5.7391-9.2609,2.5282-5.1655,2.576-5.7649,3.7826-6.6521,2.3498-1.7278,4.1733-.9275,7.1739-3.1305,1.1369-.8347,3.2252-2.3678,3-3.913-.3469-2.3807-5.993-3.4667-9.1304-3.6522Z"/>
      <path class="cls-4" d="M105.3871,396.4836c-1.5459-1.39-2.9878-2.0613-4.7609-2.8695-1.9565-.8918-3.7535-1.693-6.2609-1.9565-2.8833-.3031-4.0508.3839-4.3696.5869-.3037.1935-1.7432,1.1104-1.7609,2.4131-.0199,1.4662,1.773,2.5327,3.3261,3.4565,1.2179.7245,2.2308,1.0691,3.3261,1.4348.9181.3065,2.6491.8309,5.413,1.2391,3.6817.5438,3.6785.0667,5.6739.5869,3.1881.8313,4.8803,2.4885,5.1522,2.1522.1228-.152-.1311-.6034-3.5217-4.5653-1.7284-2.0197-1.9482-2.2362-2.2174-2.4783Z"/>
      <g>
        <path class="cls-7" d="M447.8952,122.5817c-3.92,8.5701-10.71,12.71-17.02,16.5601-5.5,3.36-15.86,9.6699-29.52,8.35-5.19-.5-14.43-1.39-20.29-8.74-7.13-8.9301-4.1-20.89-2.71-25.17.22-.6699.4-1.1499.49-1.3999.57-1.54,5.29-13.74,16.64-17.8801,6.56-2.3899,7.61.73,19.73-1.1199,10.2-1.5601,12.13-4.1901,18.64-3.1901.39.0599,1.11.17,2.05.39,2.98.6899,8.12,2.4299,11.62,6.99,7.28,9.47,1.34,23.09.37,25.21Z"/>
        <path class="cls-4" d="M393.0753,98.7403c-2.9811,1.1603-4.5045,3.2235-7.371,7.1055-2.9146,3.9472-4.712,6.4589-4.2624,9.6474.0608.4314.5754,3.7376,3.1253,4.9876,2.8347,1.3897,6.3786-.6473,8.1164-2.223,1.8107-1.6417,1.2719-2.4301,4.0065-6.4056,1.9608-2.8506,2.4932-2.8167,3.8743-5.1409,1.5628-2.6301,3.1167-5.2452,2.1987-6.9881-1.1937-2.2664-6.1912-2.3439-9.6878-.9829Z"/>
        <path class="cls-4" d="M426.8863,94.3469c-2.1807-1.6353-5.3988-.3709-6.9715.247-.203.0798-4.7731,1.9076-4.5006,3.3881.2779,1.5093,5.4047,1.6556,8.0944,1.4594,2.0853-.1522,4.3891-.3203,4.9113-1.673.4293-1.1119-.4931-2.6411-1.5337-3.4214Z"/>
        <path class="cls-9" d="M447.8952,122.5817c-3.92,8.5701-10.71,12.71-17.02,16.5601-5.5,3.36-15.86,9.6699-29.52,8.35-5.19-.5-14.43-1.39-20.29-8.74-7.13-8.9301-4.1-20.89-2.71-25.17-.03,3.39.53,7.23,2.59,10.8601,5.52,9.72,18.27,11.6599,20.48,12,.72.0999,13.85,1.9199,23.87-5.6101,1.37-1.03.39-.52,8.74-8.35,3.97-3.73,5.46-5.03,6.78-7.7001,1.86-3.74,1.94-7.23,1.96-8.6099.02-1.4601-.1-4.9701-1.83-8.8701-1.45-3.27-3.4301-5.4099-5.04-6.9199,2.98.6899,8.12,2.4299,11.62,6.99,7.28,9.47,1.34,23.09.37,25.21Z"/>
      </g>
      <path class="cls-7" d="M490.954,81.485c.14,3.83-2.8199,7.4601-6,9.13-4.0199,2.11-8.3899,1.1-18.5199-2.35-10.0601-3.42-15.0901-5.13-19.05-7.04-16.04-7.74-38.53-3.84-70.95,2.08-20.53,3.76-32.95,7.3401-40.84,8.54-12.97,8.15-14.64,17.0801-32.47,28.25-14.61,9.14-24.55,10.0701-45.91,15.65-28.8,7.52-57.44,15-79.83,28.7001-30.44,18.6199-59.49,54.98-66.78,94.95-8.87,48.61-9.91,67.83-9.91,67.83-.7,12.77-.87,28.5599-10.4399,33.91-5.19,2.8999-7.9866,10.1617-23.7366,12.2617-13.33,1.78-15.3135-5.7817-20.6135-7.5618-8.69-2.9299-12.67-12.9099-15.65-20.35-1.47-3.6801-5.1801-13.2999-3.65-25.5699,1.67-13.3901,7.57-13.6901,7.3-22.9501-.35-12.4401-11.01-13.97-14.34-30.7899-.86-4.3101-2.46-12.41,1.56-19.9501,2.91-5.4501,7.59-8.15,16.83-13.3099,14.85-8.29,19.27-6.65,23.87-12.91,4.44-6.05,4.82-13.6901,5.08-19.17.44-8.9399-1.98-10.1699-.78-16.83,1.87-10.33,9.42-16.9601,10.18-17.61,9.22-7.88,17.46-4.53,21.13-11.3501,2.72-5.0499-1.07-8.27.78-16.0399,1.51-6.33,5.33-9.6801,11.74-16.04,16.7-16.58,25.05-24.87,26.61-32.09,2.24-10.42-3.78-14.9299.78-23.0901,4.32-7.72,13.36-10.1599,14.87-10.5599,7.89-2.13,12.45.65,25.04,2.74,4.4.7201,14.4399,2.39,25.4399,1.5599,4.4301-.3298,20.11-1.6799,36-11.3499,11.9901-7.29,11.5-11.6501,19.17-12.91,11.44-1.88,15.6,7.3099,27.78,5.48,6.08-.91,5.63-3.29,19.57-10.5699,12.51-6.53,18.76-9.8,25.83-9,5.96.6799,6.51,3.33,17.89,10.9299,4.15.6699,9.08,1.52,15.11,1.73,5.6499.1899,2.23-2.37,7.6899-2.87,2.66-.25,11.28-.9301,19.5701,3.91,4.6899,2.74,3.74,4.02,7.63,5.87,6.37,3.0299,11.2999.72,19.37.59.88-.02,11-.1,19.95,4.1101,14.12,6.6299,12.4301,17.8999,24.52,21.2599,7.26,2.01,10.41-1.34,18.27,2.34,2.25,1.0601,9.6899,4.55,9.9099,10.4401Z"/>
      <g>
        <path class="cls-7" d="M210.5009,161.7169c-3.92,8.5701-10.71,12.71-17.02,16.5601-5.5,3.36-15.86,9.6699-29.52,8.35-5.19-.5-14.43-1.39-20.29-8.74-7.13-8.9301-4.1-20.89-2.71-25.17.22-.6699.4-1.1499.49-1.3999.57-1.54,5.29-13.74,16.64-17.8801,6.56-2.3899,7.61.73,19.73-1.1199,10.2-1.5601,12.13-4.1901,18.64-3.1901.39.0599,1.11.17,2.05.39,2.98.6899,8.12,2.4299,11.62,6.99,7.28,9.47,1.34,23.09.37,25.21Z"/>
        <path class="cls-4" d="M155.6809,137.8756c-2.9811,1.1603-4.5045,3.2235-7.371,7.1055-2.9146,3.9472-4.712,6.4589-4.2624,9.6474.0608.4314.5754,3.7376,3.1253,4.9876,2.8347,1.3897,6.3786-.6473,8.1164-2.223,1.8107-1.6417,1.2719-2.4301,4.0065-6.4056,1.9608-2.8506,2.4932-2.8167,3.8743-5.1409,1.5628-2.6301,3.1167-5.2452,2.1987-6.9881-1.1937-2.2664-6.1912-2.3439-9.6878-.9829Z"/>
        <path class="cls-4" d="M189.4919,133.4822c-2.1807-1.6353-5.3988-.3709-6.9715.247-.203.0798-4.7731,1.9076-4.5006,3.3881.2779,1.5093,5.4047,1.6556,8.0944,1.4594,2.0853-.1522,4.3891-.3203,4.9113-1.673.4293-1.1119-.4931-2.6411-1.5337-3.4214Z"/>
        <path class="cls-9" d="M210.5009,161.7169c-3.92,8.5701-10.71,12.71-17.02,16.5601-5.5,3.36-15.86,9.6699-29.52,8.35-5.19-.5-14.43-1.39-20.29-8.74-7.13-8.9301-4.1-20.89-2.71-25.17-.03,3.39.53,7.23,2.59,10.8601,5.52,9.72,18.27,11.6599,20.48,12,.72.0999,13.85,1.9199,23.87-5.6101,1.37-1.03.39-.52,8.74-8.35,3.97-3.73,5.46-5.03,6.78-7.7001,1.86-3.74,1.94-7.23,1.96-8.6099.02-1.4601-.1-4.9701-1.83-8.8701-1.45-3.27-3.4301-5.4099-5.04-6.9199,2.98.6899,8.12,2.4299,11.62,6.99,7.28,9.47,1.34,23.09.37,25.21Z"/>
      </g>
      <path class="cls-9" d="M621.3441,339.4451c-.32,7.2899-2.77,12.6799-3.91,15.1299-4.55,9.78-9.92,10.29-10.96,18-.68,5.05.92,6.3,1.05,13.5701.16,9.25-2.26,16.34-4.7,23.48-4.63,13.55-7.16,11.9399-8.35,19.8201-1.69,11.21,3.31,15.2799-.52,22.4399-2.93,5.48-6.54,4.34-9.91,10.95-.73,1.42-4.22,8.66-1.57,15.66,1.18,3.09,2.55,3.5,6.79,8.34,6.64,7.62,10.84,12.42,9.91,16.7-1.49,6.8901-15.57,9.1301-17.22,9.3901-7.09,1.1299-8.75-.8101-19.3-.52-7.74.21-11.61.3099-16.18,2.09-9.02,3.5-17.09,11.98-20.34,21.13-1.21,3.37-1.6299,6.5-4.44,11.21-.99,1.67-3.21,5.0901-6.78,8.3501-4.6,4.2-7.34,4.4099-19.31,9.9099-11.59,5.3401-13.91,7.41-15.65,9.92-2.61,3.7699-3.32,7.72-3.65,9.65-1.41,8.3099,2.15,11.08,0,17.74-.41,1.27-1.9,5.3699-5.74,8.35-1.59,1.23-4.9301,3.3099-14.8701,3.39-5.96.04-9.8199-.66-22.17-2.8701-9.65-1.73-14.51-2.5898-16.44-2.8699-17.8-2.5701-22.12-1.22-24-.52-3.58,1.33-3.34,2.1899-10.95,5.74-2.59,1.2-7.25,3.37-11.74,4.6899-1.91.5601-7.54,2.0701-20.09,1.3101-18.31-1.12-20.6-5.2-30-2.87-6.34,1.5599-5.96,3.58-13.83,5.74-7.02,1.92-13.31,1.96-20.87,1.2999-22.88-1.99-23.33-8.6699-36.39-7.0399-11.29,1.4-27.5,7.09-34.04,9.39-9.3,3.26-13.88,5.4399-21.13,4.6899-1.86-.1899-12.87-1.3101-18.78-9.3899-4.95-6.7401-2.29-12.8-3.53-22.3-2.67-20.52-20.5-33.91-22.3-35.22-18.6-13.5701-32.04-.8601-49.3-14.0901-6.84-5.23-10.71-12.59-16.4-25.72,5.14,3.3301,11.52,6.76,19.57,9.72,4.31,1.5801,6.86,2.21,26.08,6.26,54.19,11.42,52.94,10.46,58.44,12.52,31.67,11.87,29.26,27.3201,49.3,28.1699,20.08.8501,23.8-14.5898,51.65-16.4299,16.41-1.09,16.83,4.16,36.79,3.13,6.75-.35,24.42-1.4401,43.04-10.9601,14.63-7.48,13.09-11.5898,30.52-23.48,5.64-3.84,23.83-16.0399,48.92-23.08,26.07-7.33,40.54-3.73,46.95-14.87,1.38-2.3999,1.96-7.86,3.13-18.79,1.46-13.6399,2.24-20.8999,1.5699-28.5599-1.7-19.38-10.79-19.86-12.92-36.39-2.82-21.97,10.75-40.47,12.92-43.4399,11.3101-15.42,19.69-12.1401,29.35-25.8201,2.89-4.1,8.8-13.85,9.39-50.48.5099-32.51-4-34.1-3.92-62.22.11-33.8701,6.67-36.22,4.7-64.95-1.38-20.04-5.68-35.1301-10.17-50.8701-2.25-7.87-4.5-14.77-6.68-20.83.65.15,1.3.2899,1.94.4401,11.33,2.58,11.5.0499,19.56,2.3499,1.48.42,22.49,6.7001,27.4,22.6901,2.61,8.54-2.45,9.77-1.57,25.83.3101,5.5601.75,2.4,5.48,25.8301,1.85,9.1799,2.85,14.9099,7.83,18.78,1.6299,1.27,1.99,1.01,6.65,3.1299,8.9,4.05,14.7,6.6801,18.78,11.74,5.68,7.03,5.5099,15.5901,5.48,16.4301-.27,7.7201-4.27,8.4-7.44,19.1801-1.6,5.46-4.22,14.37-.78,23.08,1.9901,5.03,4.03,5.04,6.52,11.48.92,2.37,3.03,8,2.61,14.87-.66,10.8401-6.93,13.42-5.22,20.6101,1.04,4.3398,3.36,3.5599,7.05,10.1699,4.86,8.73,4.82,17.26,4.69,20.0901Z"/>
      <path class="cls-1" d="M621.3441,339.4451c-.32,7.2899-2.77,12.6799-3.91,15.1299-4.55,9.78-9.92,10.29-10.96,18-.68,5.05.92,6.3,1.05,13.5701.16,9.25-2.26,16.34-4.7,23.48-4.63,13.55-7.16,11.9399-8.35,19.8201-1.69,11.21,3.31,15.2799-.52,22.4399-2.93,5.48-6.54,4.34-9.91,10.95-.73,1.42-4.22,8.66-1.57,15.66,1.18,3.09,2.55,3.5,6.79,8.34,6.64,7.62,10.84,12.42,9.91,16.7-1.49,6.8901-15.57,9.1301-17.22,9.3901-7.09,1.1299-8.75-.8101-19.3-.52-7.74.21-11.61.3099-16.18,2.09-9.02,3.5-17.09,11.98-20.34,21.13-1.21,3.37-1.6299,6.5-4.44,11.21-.99,1.67-3.21,5.0901-6.78,8.3501-4.6,4.2-7.34,4.4099-19.31,9.9099-11.59,5.3401-13.91,7.41-15.65,9.92-2.61,3.7699-3.32,7.72-3.65,9.65-1.41,8.3099,2.15,11.08,0,17.74-.41,1.27-1.9,5.3699-5.74,8.35-1.59,1.23-4.9301,3.3099-14.8701,3.39-5.96.04-9.8199-.66-22.17-2.8701-9.65-1.73-14.51-2.5898-16.44-2.8699-17.8-2.5701-22.12-1.22-24-.52-3.58,1.33-3.34,2.1899-10.95,5.74-2.59,1.2-7.25,3.37-11.74,4.6899-1.91.5601-7.54,2.0701-20.09,1.3101-18.31-1.12-20.6-5.2-30-2.87-6.34,1.5599-5.96,3.58-13.83,5.74-7.02,1.92-13.31,1.96-20.87,1.2999-22.88-1.99-23.33-8.6699-36.39-7.0399-11.29,1.4-27.5,7.09-34.04,9.39-9.3,3.26-13.88,5.4399-21.13,4.6899-1.86-.1899-12.87-1.3101-18.78-9.3899-4.95-6.7401-2.29-12.8-3.53-22.3-2.67-20.52-20.5-33.91-22.3-35.22-18.17-13.26-31.42-1.4301-48.12-13.2201,4.18-.13,8.18-.09,11.3799-.0499,9.97.1199,17.79,1.6599,22.3,2.74,7.25,1.74,14.1,3.3799,21.91,8.22,4.19,2.59,12.76,8.64,19.18,19.1699,4.42,7.25,2.83,8.4301,7.04,14.4801,1.99,2.85,8.86,12.72,19.5699,15.2599,7.19,1.7101,8.1801-1.7599,28.5601-5.8699,16.18-3.25,21.87-2.3301,25.05-1.5601,7.79,1.88,7.19,4.45,14.87,6.65,14.72,4.22,28.88-1.8199,31.95-3.13,11.52-4.91,11.2599-9.6,19.31-10.4399,8.95-.9301,12.03,4.59,23.47,6.27,9.33,1.3599,16.69-.9301,22.96-2.8701,23.01-7.1499,28-22.48,44.35-21.1299,3.01.24,1.22.6299,11.35,3.1299,16.77,4.14,28.06,6.92,32.87,1.95,3.03-3.1299.61-6.3699,1.95-14.48,2.36-14.27,13.09-23.74,17.22-27.3899,14.34-12.66,23.58-7.5701,30.52-18.78,4.91-7.9299,1.37-12.23,7.83-20.3501,5.01-6.2999,12.04-9.8899,16.43-12.1299,9.9301-5.0601,14.97-4.53,16.83-9,1.8-4.3401-2.12-6.8701-1.96-13.3.22-8.7,7.55-10.4299,12.1299-19.5701,7.28-14.5199-4.77-23.0798,2.35-37.1699,5-9.9,12.46-8.6799,14.87-18.39,1.86-7.5-2.27-9.49-1.56-21.13.41-6.85,2.18-11.8199,5.08-19.96,5.11-14.3301,7.68-13.64,8.61-20.74,1.57-11.95-5.7-14.05-4.3-25.8301,1.2599-10.6599,7.48-11.1399,8.61-22.6899.51-5.3201-.72-6.05-2.74-19.5701-1.29-8.6199-2.26-15.0999-2.35-22.6899-.21-18.01,4.76-21.46,1.17-30.9099-1.2-3.1702-1.6801-2.5701-10.95-14.8701-8.01-10.6299-12.02-15.9399-14.09-19.96-5.43-10.55-6.37-20.22-7.44-31.3101-1.43-14.8199.73-16.6299-.39-25.0399-1.1801-8.83-4.8-16.11-8.88-21.91,6.04,2.1899,20.87,8.77,24.89,21.87,2.61,8.54-2.45,9.77-1.57,25.83.3101,5.5601.75,2.4,5.48,25.8301,1.85,9.1799,2.85,14.9099,7.83,18.78,1.6299,1.27,1.99,1.01,6.65,3.1299,8.9,4.05,14.7,6.6801,18.78,11.74,5.68,7.03,5.5099,15.5901,5.48,16.4301-.27,7.7201-4.27,8.4-7.44,19.1801-1.6,5.46-4.22,14.37-.78,23.08,1.9901,5.03,4.03,5.04,6.52,11.48.92,2.37,3.03,8,2.61,14.87-.66,10.8401-6.93,13.42-5.22,20.6101,1.04,4.3398,3.36,3.5599,7.05,10.1699,4.86,8.73,4.82,17.26,4.69,20.0901Z"/>
      <path class="cls-3" d="M325.5611,48.3533c-2.7062-.7897-6.2972-1.8375-9.6522,0-5.2297,2.8643-5.2288,10.1885-5.2173,10.9565.0615,4.1505,2.0456,9.7776,7.0435,12,4.4138,1.9626,8.7307.1814,10.4348-.5217,3.9844-1.644,10.4042-6.1505,9.913-12-.5837-6.9513-10.4251-9.823-12.5217-10.4348Z"/>
      <path class="cls-3" d="M255.1262,59.3098c-1.367-.0569-5.9604-.2479-9.1304,3.3912-2.1255,2.4401-3.1671,6.0923-2.0869,9.3914,1.6926,5.1698,7.7255,6.8164,11.4783,6.7826,1.26-.0114,6.7083-.0605,9.3913-4.4348,2.1781-3.551,1.3661-8.0487-.7826-10.9565-2.9008-3.9255-7.6235-4.1219-8.8696-4.1738Z"/>
      <path class="cls-3" d="M168.648,68.5707c-5.7194-3.2183-12.2195-.578-15.6522,3.1304-2.9211,3.1558-5.1589,8.7465-2.7391,13.6957,2.6929,5.5078,9.5649,6.9708,14.4782,5.8696.7449-.167,7.2004-1.7283,9.3913-7.8262,1.9012-5.2916-.1698-11.8824-5.4782-14.8695Z"/>
      <path class="cls-3" d="M242.8654,112.0055c-4.0766-3.1023-9.3189-1.2778-12,.5217-3.3987,2.2812-6.703,7.2216-4.9565,11.2173,2.0066,4.5908,9.159,4.4542,10.1739,4.4348,1.7743-.0339,6.6962-.1278,9.1304-3.913,2.3708-3.6865,1.4263-9.3887-2.3478-12.2609Z"/>
      <path class="cls-3" d="M90.7784,172.4619c-3.7169-.6537-6.7414,2.1063-7.4348,2.7391-2.1413,1.9541-4.7188,5.9268-3.3261,9.7826,1.0888,3.0146,4.0074,4.3049,4.8913,4.6957.7885.3486,3.6759,1.5707,7.0435.3914.2839-.0994,4.4182-1.621,5.6739-5.674,1.5355-4.9562-2.0414-11.0896-6.8478-11.9348Z"/>
      <path class="cls-3" d="M118.1697,206.1141c-2.3105-1.7368-5.8817-.7131-7.6304,1.3695-.188.224-1.8912,2.3184-1.1739,4.6957.7519,2.4919,3.6087,3.4564,5.4783,3.5217.6243.0219,1.9862.0693,3.1304-.7826,2.3484-1.7487,2.9934-6.7012.1956-8.8043Z"/>
      <path class="cls-3" d="M52.0393,234.6793c-.838-.3309-3.6804-1.4071-6.8478-.3912-4.313,1.3833-8.0323,6.262-7.0435,11.1521,1.0257,5.0724,6.4731,6.972,7.2391,7.2391.8741.3048,6.2072,2.1647,10.1739-1.1738,3.4749-2.9246,3.8691-8.1278,2.1522-11.7391-1.6328-3.4343-4.8595-4.7654-5.6739-5.087Z"/>
      <path class="cls-3" d="M96.2567,264.0272c-1.5813-1.3602-4.4982-2.7897-7.0435-1.7609-3.9762,1.6072-5.5826,8.6218-2.3478,12.1304,1.7579,1.9067,4.7953,2.6151,7.4348,1.7609.3372-.1091,3.7705-1.2838,4.6956-4.6957,1.0942-4.0356-2.417-7.1576-2.7391-7.4347Z"/>
      <path class="cls-3" d="M43.0393,278.3098c-1.6129-.9497-4.0716-1.2673-6.0652.0978-1.9525,1.3369-2.8917,3.8997-2.1522,6.1631.993,3.0389,4.3882,3.6284,4.9891,3.7174.2782.0411,3.9035.5242,5.5761-1.8588,1.7131-2.4407.4032-6.4996-2.3478-8.1195Z"/>
      <path class="cls-3" d="M84.9089,303.3533c-.5448-.1998-2.1994-.7805-4.1087-.1957-2.9822.9136-5.3898,4.3044-4.6956,7.4348.5953,2.6843,3.2006,3.9564,3.913,4.3043.6385.3118,2.7449,1.3004,5.2826.5869.2492-.0701,3.8988-1.1558,4.6957-4.3043.8491-3.355-2.1262-6.74-5.087-7.826Z"/>
      <path class="cls-3" d="M84.5176,342.6141c-.1317-.2664-1.1129-2.174-3.2609-2.7391-2.5931-.6823-5.2346,1.0267-6.3913,3.1305-.9585,1.7433-1.2924,4.4756.2609,6.2609,1.1757,1.3512,2.8713,1.515,3.3913,1.5652,1.8758.1812,4.0216-.5568,5.3478-2.3479,1.1534-1.5576,1.6468-3.8577.6522-5.8695Z"/>
      <path class="cls-3" d="M50.9958,325.0055c-2.146-1.4659-5.5714-1.5841-7.5652.6521-1.6945,1.9005-1.7182,4.7874-.3913,6.7826,1.7723,2.6649,5.4697,3.0111,7.8261,1.6957.3122-.1743,2.1255-1.2289,2.6087-3.3914.5186-2.3212-.7926-4.5875-2.4783-5.739Z"/>
      <path class="cls-3" d="M139.1045,120.0272c-2.1122-.7841-5.5083,1.6898-5.4783,4.3043.0336,2.9263,4.3493,5.1658,6.2609,4.1086,1.3623-.7534,1.3681-3.1062,1.3696-3.7174.0032-1.3154-.3965-4.0439-2.1522-4.6956Z"/>
      <path class="cls-9" d="M498.1262,141.7445c-3.9321-1.5934-7.9401.4384-9.3913,1.174-7.3256,3.7134-13.1647,13.9312-9.587,20.3479,2.3595,4.2318,7.9271,5.2186,9.3914,5.4781,1.4321.2538,6.7137,1.1899,11.1522-2.1521,5.9397-4.4724,5.0813-12.6246,4.8913-14.0869-.1926-1.4821-1.1173-8.5974-6.4565-10.761Z"/>
      <path class="cls-9" d="M486.3871,113.9619c-1.7694-2.343-5.6456-2.6001-8.2173-.9783-1.6706,1.0536-3.2144,3.1671-2.9348,5.4783.4109,3.3966,4.6173,6.0385,8.0217,4.8914,3.6647-1.2347,5.3175-6.4952,3.1304-9.3914Z"/>
      <path class="cls-9" d="M346.4958,127.6576c-4.3094-4.0222-10.1225-3.0521-10.7609-2.9348-4.6583.8561-10.3976,4.6851-10.5652,10.3696-.1825,6.191,6.3867,9.7383,6.8478,9.9783.6803.354,6.129,3.0736,11.5435.1957,4.1487-2.2051,7.0525-7.0455,6.2609-11.7391-.5424-3.2162-2.6266-5.2167-3.3261-5.8696Z"/>
      <path class="cls-9" d="M487.0393,226.5272c-.6844-.1552-7.1147-1.5175-10.6957,2.3478-4.7975,5.1783-1.6741,16.7097,4.6957,18.7826,5.4947,1.7881,11.4122-4.1106,12.2609-4.9565,1.6215-1.6163,3.5431-3.5317,3.6522-6.2609.1875-4.6901-5.0965-8.821-9.913-9.913Z"/>
      <path class="cls-9" d="M431.7349,180.3533c-3.3492-.0037-6.4948,2.236-7.5652,5.4783-1.3187,3.9946.8758,8.4103,4.4348,9.913,3.5475,1.4978,6.9232-.5436,7.3043-.7826.2819-.1768,3.869-2.5081,3.9131-6.5217.0451-4.0995-3.6265-8.082-8.087-8.0869Z"/>
      <path class="cls-9" d="M460.9523,326.049c-4.9302,1.1294-9.1331,7.0306-7.4348,12.913,1.6829,5.8285,8.171,8.215,12.9131,7.0436.5642-.1394,4.0172-1.0494,5.8696-4.3044,2.5546-4.4891.4945-10.679-3.5219-13.6956-.8497-.6382-4.0372-2.8246-7.826-1.9565Z"/>
      <path class="cls-9" d="M402.648,288.4836c-1.529-2.7399-8.2719-3.1013-11.3478.3914-1.4914,1.6935-2.6973,4.9479-1.0435,7.4348,1.357,2.0405,4.0645,2.7,6.1304,2.2174,1.5493-.3619,2.5018-1.3109,3.2609-2.087,1.7207-1.7594,4.3013-5.6248,3-7.9565Z"/>
      <path class="cls-9" d="M428.0828,492.7445c-3.9321-1.2386-7.5808,1.0166-9.3913,3.1305-3.5318,4.1235-3.5248,11.7448.7826,14.4783,3.6522,2.3177,8.9719.218,11.7391-2.7391.5454-.5829,2.9985-3.2042,2.7391-7.0435-.2156-3.1918-2.2698-6.6923-5.8696-7.8262Z"/>
      <path class="cls-9" d="M381.9088,517.3967c-3.178-1.8636-9.5804-3.787-13.3043,0-2.5126,2.5552-2.7886,6.6754-1.5652,9.7826,1.2195,3.0972,3.9233,5.1736,6.6522,5.8696,6.1443,1.5673,13.7557-3.5221,13.6956-8.6088-.0456-3.8575-4.4884-6.4629-5.4783-7.0435Z"/>
      <path class="cls-9" d="M307.561,528.7445c-2.8077,1.4275-4.7026,5.3694-3.1304,8.6088,1.6275,3.3534,6.0243,4.0046,9,2.7391,2.4208-1.0295,4.5787-3.6156,4.3043-6.2609-.41-3.9525-6.1563-7.1296-10.1739-5.087Z"/>
      <path class="cls-9" d="M188.0828,487.1359c-3.1441-2.8568-5.8355-5.3022-9.9131-5.4783-4.065-.1755-8.1944,1.9611-10.4348,5.2174-4.6092,6.6992-1.0014,17.8153,5.4783,20.3478,3.2127,1.2556,6.3892.1111,8.8696-.7826,4.673-1.6837,11.8889-6.252,11.4782-11.7391-.2078-2.7764-2.2838-4.6627-5.4782-7.5652Z"/>
      <path class="cls-9" d="M116.9958,499.7881c-2.9598-2.6372-8.4997-1.5997-11.3478,1.5652-2.8368,3.1523-2.0518,7.3582-1.9565,7.826.2075,1.0193.7572,3.7203,3.1305,5.087,2.9313,1.6881,6.2946-.0127,7.0435-.3914,2.8326-1.4324,4.7588-4.3191,5.087-7.4348.0852-.809.4727-4.4877-1.9565-6.6521Z"/>
      <path class="cls-9" d="M113.7349,361.3967c-3.2082-1.4401-7.8672.4412-9.6522,4.174-1.6813,3.5161-.6397,8.3134,2.8696,10.1738,2.9311,1.5538,6.6068.5411,8.6087-1.5652,3.4338-3.6129,2.3741-10.8973-1.8261-12.7826Z"/>
      <path class="cls-9" d="M28.9523,384.9402c-1.7147-.0165-3.6732.8923-4.5,2.7391-.9504,2.1229-.1139,4.8341,1.7609,5.8696,1.6048.8864,3.3646.2106,3.913,0,1.488-.5714,3.9435-2.2389,3.7174-4.6957-.2129-2.3132-2.6713-3.8917-4.8913-3.9131Z"/>
      <path class="cls-9" d="M150.4524,214.3315c-3.6974-2.4347-7.6552-1.6093-8.8044-1.3696-.7693.1604-6.883,1.5388-9,7.0436-.285.7411-1.3228,3.5664-.1956,6.8478,1.1803,3.4362,3.9368,5.0497,4.6956,5.4783,4.0001,2.2594,9.3799,1.7323,13.1087-1.174,2.8409-2.2142,5.5742-6.4728,4.5-10.9565-.8461-3.5316-3.6283-5.4243-4.3044-5.8695Z"/>
      <path class="cls-1" d="M557.2132,221.0489c-2.0574-.1373-5.8325-.3892-7.5652,1.826-2.5845,3.304.0131,11.2789,5.2174,12.7826,3.2395.9359,6.1291-1.0284,6.5217-1.3043,3.3523-2.3551,5.0768-7.3857,3.1304-10.4348-1.5883-2.4882-5.0214-2.7172-7.3043-2.8695Z"/>
      <path class="cls-1" d="M554.6045,174.3533c-2.2784-1.3463-5.8652.1442-7.8261,2.0869-3.3741,3.3429-3.2598,9.3383,0,12.5217,1.3093,1.2787,3.9845,2.942,6.2609,2.087,4.8144-1.8082,5.8836-14.144,1.5652-16.6957Z"/>
      <path class="cls-1" d="M543.7132,115.625c-.8188-.4474-2.4803-1.3555-3.8152-.6848-1.8553.932-2.2686,4.5057-.8804,6.8479.1374.2318,1.6288,2.6523,4.4022,2.6412,1.6364-.0066,3.5909-.859,4.2065-2.4457.9562-2.4646-1.8819-5.2487-3.913-6.3586Z"/>
      <path class="cls-1" d="M574.4306,282.0924c-1.6345-2.0005-4.663-3.947-7.8261-3.3914-5.2241.9177-8.6739,8.2843-6.5217,13.5653,1.2632,3.0997,4.7122,6.1086,8.6087,5.7391,3.5405-.3357,5.5661-3.282,6-3.9131,2.2798-3.316,2.6482-8.4396-.2609-12Z"/>
      <path class="cls-1" d="M556.2349,337.3967c-.2759-.1058-4.3475-1.5894-7.6304.9783-2.6025,2.0355-4.0317,6.0869-2.3478,8.8043,1.9264,3.1089,6.7124,2.5114,8.0217,2.3479,1.03-.1285,6.2635-.782,7.2391-4.3044.8638-3.1188-2.1285-6.6163-5.2826-7.826Z"/>
      <path class="cls-1" d="M511.4306,375.1576c-2.1949.434-5.0337,2.2521-5.087,5.0869-.053,2.8226,2.6878,4.9363,5.087,5.2827,3.8757.5597,8.0035-3.3271,7.4348-6.4565-.4782-2.6312-4.2433-4.5441-7.4348-3.9131Z"/>
      <path class="cls-1" d="M551.9306,375.1576c-2.0934-1.217-5.0057-1.4154-7.2391,0-3.3368,2.1147-3.7834,6.9607-2.1521,10.174.9955,1.9608,3.386,4.5375,6.6521,4.3043,4.0671-.2903,5.788-4.6733,5.8696-4.8914,1.2317-3.2917.1896-7.6569-3.1305-9.5869Z"/>
      <path class="cls-1" d="M538.9524,420.875c-2.717-3.0071-7.4625-2.7935-10.4348-1.5652-5.0103,2.0706-8.7582,8.5847-6.5217,12.7826,2.0606,3.8677,8.0801,3.6647,8.3478,3.6521,4.9261-.2323,9.9298-4.0464,10.4348-8.8695.0506-.4834.3293-3.6145-1.826-6Z"/>
      <path class="cls-1" d="M495.3871,505.1359c-1.6747-1.2642-4.0911-.7878-5.4783.5217-1.6364,1.5448-1.9866,4.3871-.5217,6,1.4628,1.6106,3.9011,1.0769,4.0435,1.0435,1.5514-.3649,3.0209-1.599,3.3913-3.3912.2926-1.4161-.1035-3.1689-1.4348-4.174Z"/>
      <path class="cls-1" d="M432.9088,521.701c-1.4293-.6802-3.0335-.0387-3.7826.2609-3.4338,1.3732-7.9031,5.9701-6.1304,10.3044,1.3408,3.2783,5.5776,4.7562,8.8696,4.0435.3104-.0673,4.0201-.9246,4.9565-3.7826.3633-1.1086-.1442-2.6672-1.174-5.7391-1.4537-4.3368-2.2903-4.8734-2.7391-5.087Z"/>
      <path class="cls-1" d="M442.5611,566.9945c-1.295-1.8027-4.915-2.1869-6.9457-.3912-2.5121,2.2213-1.6163,6.9154.587,8.1195,1.1378.6218,2.4211.2019,2.7391.0979,2.9984-.9808,5.2863-5.5061,3.6196-7.8262Z"/>
      <path class="cls-1" d="M369.7784,566.9945c-1.8355-.9686-4.2755-.6449-5.8696.7827-2.5306,2.2662-1.3821,5.9283-1.2717,6.2609.1531.4614.9839,2.9641,3.5217,3.8152,2.0253.6792,4.5419.1066,5.8696-1.6631,1.4837-1.9777.718-4.4314.3914-5.4783-.3062-.9811-.868-2.7816-2.6414-3.7174Z"/>
      <path class="cls-1" d="M301.1045,579.8098c-2.036-1.5865-5.14-1.1666-7.0435.1957-3.047,2.1807-3.7764,7.3185-1.1739,10.1738,1.4845,1.6287,4.0417,2.5022,6.2609,1.7609,3.4017-1.1364,4.3076-5.4987,3.913-8.2174-.1161-.8-.3908-2.6929-1.9565-3.913Z"/>
      <path class="cls-1" d="M259.8219,577.1685c-1.1567-.2863-3.002-.1427-3.8152,1.174-.9205,1.4902-.0622,3.7438,1.5652,4.5978,1.218.6392,3.0567.594,4.1087-.6847.8885-1.08.8877-2.6407.1956-3.7174-.6583-1.0242-1.7372-1.2911-2.0543-1.3696Z"/>
      <path class="cls-1" d="M189.1915,561.6141c-1.2401.3047-5.212,1.2805-6.2609,4.6957-1.0473,3.4102,1.3012,7.6852,4.5,8.413,2.6453.6018,4.9622-1.4292,6.4565-2.7391.4284-.3755,5.719-5.1095,4.1087-8.413-1.2727-2.6108-6.0318-2.6377-8.8044-1.9565Z"/>
      <path class="cls-9" d="M470.5393,390.2228c-2.5417-1.1652-5.5858-.4603-7.2391,1.3696-2.6993,2.9878-.8839,8.0811,1.7609,10.3695.5104.4417,1.9991,1.7299,3.913,1.5653,2.972-.2555,5.3771-3.877,5.2826-7.2391-.0094-.3346-.196-4.4512-3.7173-6.0653Z"/>
      <path class="cls-2" d="M597.9088,226.0055c-1.9361.3502-3.5834,1.9481-3.7826,3.6521-.3864,3.3044,4.6932,6.8373,7.4348,5.4783,1.7217-.8534,2.7311-3.7396,1.6956-6.1304-.8679-2.0039-3.0656-3.4128-5.3478-3Z"/>
      <path class="cls-2" d="M565.0393,155.1793c-1.2644.0216-2.4232,1.1473-2.7391,2.3479-.5948,2.2604,1.7482,4.9758,3.6522,4.6956,1.1461-.1687,1.9914-1.4021,2.2174-2.4783.4352-2.0728-1.2093-4.598-3.1304-4.5652Z"/>
      <path class="cls-2" d="M564.7132,115.6576c-1.7194-.3527-3.0259,1.1177-3.1304,1.2391-1.1536,1.3406-1.441,3.7336-.0652,5.0217.9244.8655,2.3203.9703,3.3913.587,1.4068-.5034,2.2997-1.8657,2.3478-3.261.054-1.5653-.952-3.2605-2.5435-3.5869Z"/>
      <path class="cls-2" d="M592.9524,305.3098c-3.3576.7533-5.4261,6.0707-3.3913,9.3912,1.1331,1.8491,3.6685,3.2908,6.2609,2.6088,2.6458-.696,4.108-3.277,4.1739-5.4783.1132-3.7794-3.8654-7.2347-7.0435-6.5217Z"/>
      <path class="cls-2" d="M616.8219,335.8315c-.8408-1.4783-2.6433-2.432-4.3044-2.2174-2.8315.3657-4.3072,4.0038-4.0435,6.6522.1375,1.38.8837,3.8628,2.7391,4.3043,2.1093.502,4.0002-2.0275,4.4348-2.6088.4503-.6023,2.6469-3.5406,1.174-6.1304Z"/>
      <path class="cls-2" d="M586.5611,351.2228c-2.5658.0764-4.8181,2.3707-4.8261,4.9565-.006,1.9525,1.2673,4.1196,3.2609,4.5652,2.2978.5135,4.1336-1.5771,4.6957-2.2173.5999-.6831,1.9467-2.217,1.5652-4.0436-.4139-1.9821-2.6569-3.3215-4.6956-3.2609Z"/>
      <path class="cls-2" d="M602.2784,387.5489c.3704-1.5934-.2129-3.7053-1.7609-4.3696-1.6927-.7264-3.4996.7244-3.9782,1.1088-1.6602,1.3331-3.1898,4.0935-2.087,5.6738.9252,1.3258,3.2786,1.2128,4.6956.7174.353-.1234,2.6152-.9142,3.1304-3.1304Z"/>
      <path class="cls-2" d="M571.7893,410.375c-1.8042-1.2344-5.364.1165-6.3587,2.6414-.8029,2.038.0576,4.8611,1.7609,5.4781.9456.3427,1.8878-.0901,2.5435-.3912,1.5308-.703,3.3428-2.3994,3.3261-4.6957-.0024-.3295-.0158-2.1733-1.2717-3.0326Z"/>
      <path class="cls-2" d="M587.2458,429.1576c-.7709-.2196-2.7289-.7775-4.0109.3914-1.3214,1.2048-1.2902,3.6664-.0978,4.9891.9908,1.0991,2.4888,1.0854,3.5217,1.076,1.5455-.0142,4.5111-.5375,4.8914-2.1522.3885-1.65-2.1021-3.6769-4.3044-4.3043Z"/>
      <path class="cls-2" d="M557.7024,464.4728c-1.5566-.3666-3.4183.9509-4.0109,2.6414-.6945,1.9812.3104,4.599,2.25,5.0869,1.4614.3677,3.0168-.5837,3.7173-1.7609,1.2491-2.0988.1165-5.4792-1.9565-5.9674Z"/>
      <path class="cls-2" d="M583.2206,489.3464c-1.6915-3.7593-6.0897-6.2306-10.2687-5.2435-5.0954,1.2037-7.5754,7.0079-6.5544,11.5796.7943,3.5567,3.9068,7.2601,8.0838,7.4283,4.685.1889,7.4903-4.199,7.8653-4.8067.3799-.6159,2.797-4.6838.8739-8.9578Z"/>
      <path class="cls-2" d="M529.3002,506.701c-.482-2.2534-2.8796-4.5842-5.2174-4.0435-2.5322.5857-3.1006,4.1024-3.1304,4.3043-.0552.3746-.446,3.0253,1.1739,4.3044,2.0281,1.6014,6.0587.146,7.0435-2.3479.3844-.9735.2073-1.8583.1304-2.2174Z"/>
      <path class="cls-2" d="M510.5175,544.2664c.1135-2.1522-3.4825-4.8962-6.3913-3.9131-1.5753.5325-2.9454,2.157-3,4.0435-.0061.2111-.0333,2.2065,1.4348,3.2609,1.8109,1.3004,4.2943.0181,5.0869-.3912.7651-.3951,2.7873-1.4392,2.8696-3Z"/>
      <path class="cls-2" d="M478.4632,550.0707c-.8942-1.3632-2.68-1.6372-3.913-1.2717-2.2686.6724-3.6309,3.7955-2.5435,5.4783,1.0692,1.6547,4.3987,1.7495,5.9674,0,.8909-.9937,1.4106-2.8018.4891-4.2065Z"/>
      <path class="cls-2" d="M469.6915,595.2664c-.6638-1.5497-2.9107-2.4902-4.6957-1.5653-1.4136.7324-2.1974,2.4586-1.6956,4.0435.4496,1.42,1.8171,2.3651,3.1304,2.3479,2.2261-.0291,4.1199-2.8203,3.2609-4.826Z"/>
      <path class="cls-2" d="M416.7349,585.4836c-2.4346-1.2975-5.9247.2653-6.4565,2.5436-.2908,1.2455.3351,2.5654,1.174,3.326,2.1055,1.9092,6.548,1.1974,7.4348-1.174.5965-1.5951-.4691-3.7987-2.1522-4.6957Z"/>
      <path class="cls-2" d="M378.2567,604.7881c-1.3435-1.9397-4.3678-2.2401-6.2609-1.3044-3.7966,1.8766-3.9837,9.1898-1.5652,10.6957,1.7238,1.0732,5.0847-.6084,6.7826-2.8695.2272-.3026,2.8556-3.9054,1.0435-6.5217Z"/>
      <path class="cls-2" d="M327.1262,599.7664c-2.6228-2.6495-9.4408-.262-9.9783,2.7391-.3233,1.8052,1.6202,3.8625,3.5218,4.6956,1.8932.8293,4.9807.9865,6.6522-1.1738,1.4902-1.926,1.2015-4.8495-.1957-6.2609Z"/>
      <path class="cls-2" d="M299.7349,614.701c-.5556-.6243-1.5394-1.1516-2.4782-.913-1.6186.4114-2.6484,2.9835-1.5652,4.4347.8755,1.1729,3.0333,1.4819,4.1739.2609.9937-1.0637.7513-2.7919-.1304-3.7826Z"/>
      <path class="cls-2" d="M239.2784,606.0272c-2.1075-2.1959-6.8868-1.1301-7.8261,1.5652-.665,1.9084.5968,4.6287,2.9348,5.4783,1.6818.6111,3.8373.224,5.0869-1.3696,1.3983-1.7833,1.0843-4.3402-.1956-5.6738Z"/>
      <path class="cls-6" d="M429.5541,468.2949c-19.28,25.28-49.12,41.54-80.43,47.0801-31.31,5.54-63.92.88-93.7-10.27-44.19-16.54-83.2-47.95-106.18-89.1599-22.41-40.1801-28.77-89.5801-14.8-133.3701-1.73,28.67-3.49,77.55,25.73,117.6901,26.14,35.92,60.09,50.9,74.08,56.87,22.11,9.4299,68.14,29.0601,113.74,8.35,4.73-2.15,51.56-24.24,56.87-66.78,3.07-24.5699-8.92-46.2-12.52-52.1801-13.7-22.7799-29.46-24.3899-39.13-48-2.81-6.8398-5.93-17.5499-6-26.0199.13.4401.25.85.38,1.23,3.91,11.66,15.4,18.7101,25.88,25.15,31.39,19.3199,62.53,44.12,73.56,79.28,9.51,30.34,1.79,64.84-17.48,90.1299Z"/>
      <path class="cls-8" d="M302.0828,174.6141c-11.0942-11.381-26.3076-11.1257-36.3914-10.9566-25.3385.4252-43.0967,14.7393-48.913,19.5652-5.9677,4.9515-13.761,17.2576-29.3478,41.8696-12.8518,20.2935-16.0675,27.3065-13.6956,34.826,2.263,7.1746,9.2028,13.5107,16.826,14.8696,10.6788,1.9034,16.5307-7.0596,34.4348-17.6088,9.9788-5.8795,7.9842-2.9912,44.6087-18,33.5037-13.7299,37.2749-17.0084,39.913-21.913,6.83-12.6976,3.4688-31.4669-7.4348-42.6522Z"/>
      <path class="cls-8" d="M174.7784,291.2228c-5.8167-3.1622-15.0828,1.2988-20.3478,6.2609-12.8467,12.1074-8.9168,33.8364-6.2609,48.5219,2.4394,13.488,4.1252,22.809,11.4783,26.0869,9.8512,4.3916,25.5105-4.0088,29.7391-15.1305,3.2969-8.671-2.8792-12.3561-7.3044-34.4347-3.9188-19.5521-1.3626-28.0742-7.3044-31.3044Z"/>
    </g>
  </g>
</svg>