<?xml version="1.0" encoding="UTF-8"?>
<svg id="Capa_2" xmlns="http://www.w3.org/2000/svg" viewBox="0 0 601.9279 638.7104">
  <defs>
    <style>
      .cls-1 {
        fill: #3383aa;
      }

      .cls-2 {
        fill: #599dd1;
      }

      .cls-3 {
        fill: #9cd1f2;
      }

      .cls-4 {
        fill: #1e86c6;
      }

      .cls-5 {
        fill: #2d9cd3;
      }

      .cls-6 {
        fill: #0476af;
      }

      .cls-7 {
        fill: #4291c1;
      }

      .cls-8 {
        fill: #86bfea;
      }

      .cls-9 {
        fill: #6cace4;
      }
    </style>
  </defs>
  <g id="Capa_1-2" data-name="Capa_1">
    <g>
      <g>
        <path class="cls-9" d="M307.6811,634.7031c-7.2969,0-14.5166-4.1177-21.458-12.2388l-.1172-.1431c-11.1143-14.2891-17.46-16.4229-20.2529-16.4229-.4395,0-.8525.0483-1.2617.1475-2.0098.4854-4.9805,1.7017-8.4199,3.1104-7.9326,3.248-17.8037,7.2905-27.249,7.2915-11.3916.0015-19.5322-6.1655-23.5439-17.834-.9658-2.8096-1.7207-6.0024-2.2422-9.4897-.2227-1.5205-.3916-2.9297-.5186-4.3203-.7588-8.2246-9.9883-11.1665-17.5967-12.1851-.3301-.0439-.5713-.0786-.7109-.104l-.5537-.0996-.5059-.2485c-2.1338-1.0493-5.5352-2.3003-9.625-2.3003-1.1631,0-2.3301.104-3.4668.3086-2.0859.377-6.3809,1.1533-9.0098,4.3115-.0234.1694-.043.4468-.0586.6616-.0527.7534-.126,1.7852-.4873,2.939-.1631.5479-.3936,1.0991-.6895,1.6396-.6787,1.2505-1.6543,2.375-2.9727,3.4224-3.5361,2.8013-7.9209,4.2808-12.6855,4.2808-10.2725,0-19.084-6.6826-20.0586-15.2139-.1689-1.4497-.1143-2.9321.165-4.396.2295-1.1987.6387-2.21.999-3.1021.3027-.7476.5635-1.3931.6055-1.8765.167-1.8491-.0752-3.8984-.6992-5.9375-.251-.8594-.5596-1.6821-.9316-2.4951-.4766-1.0586-1.0479-2.0571-1.665-2.9111-3.8906-5.3916-10.6143-7.0947-17.1162-8.7422-2.7109-.6836-4.5889-.8999-6.2461-1.0913-2.5703-.2964-4.999-.5762-8.6113-2.3438-2.7666-1.3403-10.1572-4.9189-13.2705-12.5933-1.8516-4.563-1.1104-7.9902-.4561-11.0137.5557-2.5669,1.0801-4.9917.252-8.8262-.8779-4.0698-2.8818-7.8672-5.9551-11.2886-2.3281-2.6064-4.7119-5.2759-8.4336-6.1841-.0127.0024-.0254.0054-.0381.0083-1.2354.2715-3.5332.7769-6.3633.7769-3.6631,0-7.0801-.8418-10.1572-2.5024-5.3711-2.9038-8.6592-7.7583-9.5098-14.041-.8496-6.2739,1.0146-13.002,3.2188-15.1167,2.083-1.9907,5.5596-5.3145,6.1836-9.9443.8906-6.6162-4.6104-12.8721-6.4189-14.9282-1.5947-1.8257-2.8721-2.8047-3.999-3.668-1.665-1.2754-3.3857-2.5942-4.5586-5.4048-2.7822-6.6475.3164-11.9688,2.8057-16.2451.8232-1.4136,1.6006-2.749,2.1426-4.0503,3.5371-8.5186-11.3037-23.2632-17.6416-29.5591-1.3369-1.3286-2.3926-2.3779-3.168-3.2261-10.9531-11.9927-13.4209-21-9.7803-35.6963,1.9609-7.8887,9.1963-13.7344,13.9844-17.603.6592-.5327,1.4473-1.1689,2.1006-1.7266-2.9902-4.6401-7.6904-12.5884-9.0811-18.6504-1.8086-7.8032,2.5479-13.1079,6.0488-17.3701,1.499-1.8252,3.1104-3.5107,4.668-5.1406,2.4111-2.5225,4.6885-4.9048,6.3916-7.5981,8.7793-13.8364,1.5732-25.918-7.5205-36.9136-3.5332-4.2754-4.8262-8.7383-3.8418-13.2666,2.2637-10.4106,16.1201-17.1387,23.5654-20.7529,1.2764-.6201,2.4824-1.2056,2.9307-1.4873,6.0537-3.8066,9.7236-11.0151,8.9258-17.5298-.1455-1.1699-.4102-2.4062-.6895-3.7153-.7578-3.5435-1.6162-7.5596-.2734-11.6831,1.7031-5.2881,7.0889-9.1362,12.8037-9.1362.9844,0,1.959.1152,2.8984.3418,2.1582.5146,3.9844,1.5283,5.5957,2.4224,1.2471.6919,2.4248,1.3457,3.5029,1.6177.4561.1157.9092.1738,1.3506.1738,4.7324,0,8.9971-6.4976,9.8652-12.3286.4033-2.71-1.1123-6.8926-2.5781-10.937-2.3379-6.4497-4.7549-13.1196-1.7949-18.8198,3.1865-6.1191,10.3848-8.9663,17.3467-11.7202,5.7207-2.2627,11.6357-4.6025,13.2734-8.1948l.5137-1.1187c2.9326-6.3711,3.1494-7.1602.0107-9.8237-3.2617-2.7703-3.9365-7.8862-1.8066-13.686,2.3291-6.3396,7.7588-12.7363,14.6406-12.7363,2.377,0,4.6416.7742,6.7314,2.3008.7227.5278,1.3877,1.0261,2.0098,1.4927,3.5576,2.6658,4.7842,3.509,6.8877,3.509,1.0596,0,2.3926-.2229,4.0752-.6819,2.3252-.6353,2.9521-2.1948,3.8975-7.229.7529-4.012,1.6914-9.0054,6.0605-12.0593,4.6875-3.2783,6.5088-8.1145,4.7529-12.6204-1.3584-3.4749-.9229-7.1255,1.2285-10.2754,2.918-4.2744,8.5889-7.0364,14.4443-7.0364,6.1602,0,11.2324,3.0469,13.917,8.3594.5332,1.0513.8545,2.2168,1.166,3.3438.5195,1.8843,1.0117,3.6641,2.2881,4.6899,1.2129.9724,2.7861,1.3887,5.2578,1.3887,1.4404,0,3.0078-.1392,4.667-.2866,2.8389-.2549,4.6201-.7795,7.5723-1.6489,1.5693-.4624,3.5234-1.0378,6.0508-1.6899,4.7246-1.2144,7.6865-1.9038,11.7529-2.5388,4.1328-.6436,6.7939-1.0378,9.3398-1.0378,1.793,0,3.3926.2004,5.0342.6306,3.1172.8213,4.6768,1.9705,5.9297,2.8938.9238.6807,1.5332,1.1304,3.0264,1.5654,1.2783.3696,2.707.5664,4.125.5664,1.9375,0,4.8291-.363,7.6064-2.0913l.2969-.1812c4.8564-2.9426,6.4971-5.3381,5.9668-6.3188-3.7461-6.9253-2.6533-11.5305-1.0771-14.1748,2.0059-3.3662,5.8291-5.2966,10.4873-5.2966,5.9746,0,13.5342,3.4006,16.9561,10.9976.8301,1.835,2.9336,6.4839,6.6523,7.6675,1.3096.4143,2.3164,1.1936,3.2041,1.8813,1.4131,1.0938,2.6328,2.0383,5.3545,2.0383,1.1758,0,2.5322-.1863,4.0332-.5535,6.7012-1.6355,7.5635-2.9321,8.3252-4.0762.2393-.3596.5107-.7673.8613-1.2004,3.5742-4.4409,7.5781-6.696,11.8965-6.696,11.46,0,18.6738,16.0947,18.7432,16.2573,1.0459,2.4478,4.9951,4.3076,10.5674,4.9783,1.0879.1328,2.0996.2568,2.9375.2568.8174,0,1.1689-.123,1.2471-.1956.166-.1548.2783-.6423.4756-1.6396.375-1.8906.9414-4.7478,3.5439-7.8621,3.1514-3.7737,7.4258-5.8528,12.0361-5.8528,5.8086,0,11.5918,3.2542,14.7344,8.2903,2.5537,4.0925,2.8945,8.7375.9346,12.7437-.9258,1.896-.6064,5.6414,1.334,7.9792,1.375,1.6606,3.5449,2.1077,8.7559,3.0457,2.5879.4658,5.2373.7021,7.875.7021,1.5811,0,3.1836-.0852,4.7617-.2532,4.2207-.4385,6.5439-.876,8.4102-1.2275.9746-.1836,1.8223-.3418,2.7061-.4658,1.4219-.2,2.8311-.2891,4.5674-.2891l.4141-.001c8.0254,0,14.7236,1.9221,19.9102,5.7129,3.9873,2.9124,5.3018,5.6721,6.9658,9.1663,1.3809,2.8982,3.0986,6.5049,7.1914,12.1321,2.4834,3.4133,6.252,8.1042,10.0928,11.0615,4.0898,3.168,7.3115,5.6641,11.5449,6.0664,1.0459.0977,1.9971.1475,2.8203.1475,2.9717,0,3.8008-.5464,5.4541-1.6353.2607-.1719.5273-.3472.8057-.5244.748-.4888,1.4717-.9053,2.2383-1.2832l.1123-.0542c4.2412-2.0688,8.2969-3.1265,12.0205-3.1265,6.9502,0,12.5908,3.6138,15.8818,10.1753,4.3877,8.7476,3.5879,21.2778-1.8203,28.5264-1.4512,1.9585-3.1973,3.4839-5.1836,4.5239-1.5859.8291-1.7832,4.9717,2.876,13.9238l.0186.0366c.0791.1392.1406.2642.1895.3716.0498.0947.0967.1929.1406.2915l.0176.0371c1.1797,2.4854,2.1475,3.4609,3.3711,4.6958,1.3086,1.3198,2.9365,2.9624,4.666,6.2095,5.1221,9.6245,3.96,19.332,3.1113,26.4204-.6572,5.4727-1.2393,10.312-2.6289,14.5176.2275.293.46.5845.6953.8735.1504.1816.3193.3765.4971.5811.5195.6177,1.0645,1.2217,1.7148,1.9023,7.1133,7.394,12.6494,13.0347,17.0977,17.5664,12.7393,12.981,17.0312,17.3535,25.5322,29.3213,2.0303,2.8589,3.6387,7.145,4.6299,10.2378,3.1523,9.813,4.873,22.0742,4.7363,33.7134l.002,2.1455-.0498.0474c-.3047,9.6714-1.8447,18.854-4.583,27.3198-1.665,5.1592-6.7344,20.8643-21.2627,25.5884-2.7441.8916-5.6621,1.3438-8.6748,1.3438-8.1055,0-16.167-3.2593-21.5645-8.7173-3.749-3.8066-4.8389-7.3184-7.0088-14.314-.5732-1.8496-1.2402-3.999-2.0703-6.5376-2.1777-6.6567-6.1924-18.9277-9.7539-25.8408-6.0664-11.7754-17.9355-21.9502-30.2393-25.9219-4.1621-1.3447-8.5039-2.0269-12.9053-2.0269-13.4287,0-25.9893,6.1885-37.0723,11.6479-25.1846,12.4023-39.9502,31.3579-46.5107,41.5537-16.8994,26.2905-18.6934,52.0298-18.5732,69.1035l-.0029.1909c-.0049.1289-.0059.2637,0,.3877l.0029.1289c.0205,2.0127.0596,3.8779.1094,5.5747.5234,19.6895,1.2402,46.6416,19.7119,62.7891,5.8701,5.1309,13.8838,9.5112,23.8184,13.0186,6.5664,2.312,13.3262,4.6919,20.375,4.6919,2.7295,0,5.3232-.3438,7.9287-1.0508,5.8594-1.583,9.7969-4.4883,16.3193-9.3013,5.6104-4.1543,11.2578-9.5537,16.3506-15.626,4.1826-4.9897,6.4287-8.5771,8.4111-11.7422,2.6299-4.1987,4.9004-7.8242,10.2324-12.5127,5.9258-5.2114,11.0234-9.6953,18.0605-9.6953.1875,0,.375.0034.5654.0098,13.6172.4492,22.6455,17.0195,25.3896,28.0474.8955,3.6294,1.2432,7.0947,1.0947,10.9131-.2637,6.1055-1.7559,12.4902-4.1699,22.4028-1.7461,7.1904-4.3818,18.0391-9.7676,29.3271-6.9102,14.4912-21.2432,35.3311-50.2842,52.3135-.3965.2339-.8154.4619-1.2354.6772-.7227.373-1.4873.7109-2.3232,1.0264-.2451.1055-.4951.2012-.7578.2886-.1777.0732-.3604.1377-.5498.1943-.2588.0938-.5146.1792-.7842.2573-.1426.0459-.291.0903-.4414.1299-.2363.0752-.4824.146-.7246.2153l-.124.0352c-1.0635.29-2.085.5303-3.084.728l-.2578.0513c-.2549.0513-.5137.1021-.7734.1445-.8076.1538-1.6357.2891-2.5039.4233-.7188.1123-1.4668.2168-2.2354.3208l-.1104.0151-.1104.0083-.2031.0293c-.666.0859-1.3467.1675-2.042.25l-.8711.1045-5.7012.626c-2.8789.3096-6.2578.6812-9.9453,1.1772-.498.0645-.9766.1323-1.4648.2017l-.3896.0552c-.6826.0903-1.3301.1855-1.998.2905-2.1338.3145-4.3916.6821-6.7451,1.0972l-2.0459.3838c-.6475.124-1.3164.2524-2.0059.3896l-.9375-3.9009.7959,3.9277-.1475.04-.0615.0078c-.6934.1343-1.4062.2793-2.1191.4326l-.125.0254c-.1279.0229-.2549.0518-.3857.0801l-2.2451.4893-.4688.1089c-.8467.1895-1.6611.3828-2.4834.5781l-.3818.0903c-2.4297.5801-5.083,1.2686-8.1084,2.104-.1377.0371-.2822.0781-.4541.1333l-.1562.0464c-.2354.0649-.4717.1289-.6992.2021l-.1602.0479c-.1943.0537-.3906.104-.5791.1714l-.1934.0635c-1.7871.5376-3.4209,1.1006-4.9951,1.7212-.7812.3042-1.5664.6221-2.3525.9683-1.4336.6333-2.8262,1.3115-4.2549,2.0713-.2129.1113-1,.5332-1.1758.6304-.3594.1948-.7012.3833-1.0342.5718-.0859.0513-.1748.1021-.2715.1528l-1.335.7603-.1318.0874-.1191.0581c-.4531.2612-1.5762.897-1.5762.897l-.1025.0532c-.0635.0352-.127.0684-.1924.1094l-.1016.0635-1.4199.7847c-.5518.3145-1.1748.6523-1.8291,1.001-1.9463,1.0312-3.8262,1.9541-5.7529,2.8242-3.7793,1.7065-7.7178,3.0581-11.5254,4.3652-1.2441.4268-2.4873.853-3.7207,1.291-.0928.0327-.1885.063-.2812.0972-.0781.1289-.1738.3008-.251.4395l-.0635.1138c-3.8105,6.811-9.7314,12.4263-16.6748,15.8135l-.8994.4385c-5.6104,2.7334-10.9092,5.3149-15.8525,8.7852-.8926.6265-1.7754,1.2686-2.6494,1.9229-4.5684,3.416-7.9463,6.4644-10.6602,8.9131-5.4297,4.8994-9.3525,8.4395-16.0469,8.6143-.166.0044-.3291.0063-.4922.0063Z"/>
        <path class="cls-3" d="M281.8759,8.0146c4.8926,0,10.7112,2.8843,13.3027,8.6362.9102,2.01,3.5901,8.0901,9.0901,9.8401,2.0447.6465,3.8357,4.1084,9.7732,4.1084,1.4094,0,3.0513-.1946,4.9868-.6685,9.71-2.3701,9.8301-4.77,11.3501-6.6499,3.0405-3.7776,6.0171-5.2078,8.78-5.2078,8.2593,0,14.6101,12.7786,15.0598,13.8276,2.5801,6.04,11.8701,7.1501,13.78,7.3801,1.1768.144,2.3318.2847,3.4082.2847,1.5396,0,2.9185-.2876,3.9719-1.2646,2.47-2.3.7598-5.55,4.3699-9.8701,2.6184-3.136,5.8215-4.4153,8.9607-4.4153,7.9619,0,15.512,8.2295,12.0693,15.2654-1.6799,3.4399-1.03,8.8298,1.8501,12.2998,2.3599,2.8501,5.6299,3.4402,11.1299,4.4302,3.0627.5515,5.9465.7656,8.5847.7656,1.8582,0,3.5942-.1062,5.1853-.2756,6.45-.6702,8.6899-1.3501,11.25-1.71,1.1399-.1602,2.3501-.25,4.01-.25.1248-.0005.2625-.001.4119-.001,3.0483,0,11.0659.2034,17.5481,4.9409,6.01,4.3899,4.1599,7.8799,13.28,20.4199,5.5601,7.6401,9.5,10.8101,10.8899,11.8801,4.4402,3.4399,8.24,6.3699,13.6101,6.8799,1.2148.1135,2.271.1655,3.1992.1655,4.7109,0,6.1384-1.3403,8.4106-2.7854.55-.3601,1.1501-.7202,1.8601-1.0701l.0601-.03c3.9126-1.908,7.3403-2.7375,10.2993-2.7378,15.4197-.0012,18.1497,22.5151,10.8506,32.2979-1.0598,1.4299-2.3401,2.5898-3.8298,3.3699-7.0801,3.7-.3301,16.4202,1.25,19.46.0398.0601.0598.1201.0898.1802.03.0598.0601.1099.0801.1599s.04.0901.0601.1301c2.8298,5.96,5.0898,5.3799,8.1199,11.0698,4.53,8.51,3.47,17.3801,2.6702,24.0601-.7603,6.3301-1.3801,11.47-3.1702,15.6299.6599.9302,1.3601,1.8501,2.1101,2.77.1899.23.3799.4502.5798.6802.5701.6799,1.1902,1.3599,1.8401,2.04,27.1699,28.24,30.98,30.5598,42.26,46.4399,1.3,1.8298,2.75,4.99,4.0801,9.1399,2.5898,8.0601,4.75,19.8501,4.5398,32.9001.0103.01.0103.02,0,.0298-.1499,8.9602-1.4099,18.5-4.4299,27.8401-1.6499,5.1101-6.1099,18.9199-18.6899,23.01-2.4055.7817-4.9219,1.1472-7.4358,1.1472-7.0686,0-14.126-2.8872-18.7144-7.5271-3.8999-3.9602-4.23-7.3901-8.1199-19.28-2.28-6.97-6.28-19.21-10-26.4302-6.29-12.21-18.6301-23.3999-32.5701-27.8999-4.8281-1.5601-9.5464-2.2205-14.1372-2.2205-14.3596-.0002-27.4766,6.4607-38.8428,12.0605-28.4099,13.99-43.51,35.8298-48.1099,42.98-17.53,27.27-19.3301,54.3298-19.21,71.3-.0103.24-.0103.49,0,.72.02,2.04.0598,3.9299.1099,5.6499.53,19.9399,1.29,48.3901,21.0801,65.6899,9.45,8.26,21.5801,12.53,25.1499,13.79,6.8376,2.4077,13.946,4.9109,21.6814,4.9109,2.8987,0,5.885-.3513,8.9788-1.1909,6.5898-1.78,11.0298-5.0598,17.6699-9.96,2.4299-1.8,9.3398-7.0999,17.02-16.26,9.8499-11.75,9.4399-16.0999,18.22-23.8201,5.5869-4.9141,9.8818-8.6973,15.4136-8.6973.1416,0,.2832.0024.4265.0073,10.6099.3501,18.97,14.28,21.6399,25.01.8201,3.3201,1.1101,6.4399.98,9.79-.25,5.79-1.78,12.25-4.0601,21.6101-1.6899,6.96-4.28,17.6299-9.49,28.5498-14.3198,30.03-40.79,45.9602-48.6899,50.5801-.3401.2-.6899.3899-1.04.5701-.6399.3298-1.3101.6199-2.01.8799-.22.1001-.4399.1802-.6699.25-.1201.0601-.24.1001-.3601.1301-.24.0898-.47.1699-.72.24-.1199.04-.25.0798-.3799.1099-.27.0901-.5601.1702-.8401.25-.8799.24-1.8.46-2.76.6501-.3101.0598-.6299.1299-.95.1799-.78.1499-1.5801.28-2.4199.4099-.7002.1101-1.4202.2102-2.1602.3101-.1299.01-.26.03-.3999.05-.9302.1199-1.8901.23-2.8801.3501-1.1899.1299-2.4299.2698-3.72.4099-.6299.0701-1.28.1399-1.9299.21-3.0701.3301-6.4099.7-10.05,1.1899-.6199.0801-1.24.1702-1.8799.26-.6802.0901-1.3601.1899-2.0601.3-2.1699.3201-4.4399.6899-6.8201,1.1101-.6899.1299-1.3799.26-2.0798.3899-.6802.1301-1.3601.26-2.0601.3999-.1101.02-.22.04-.3301.0701-.72.1401-1.46.29-2.2.45-.22.04-.4399.0901-.6702.1401-.6899.1499-1.3899.3-2.1099.46-.1699.04-.3501.0801-.52.1199-.9399.2102-1.8999.4402-2.8701.6702-2.6399.6299-5.3899,1.3499-8.25,2.1399-.1499.04-.3599.1001-.6099.1802-.29.0798-.5801.1599-.8599.25-.29.0798-.5801.1599-.8601.2598-1.96.5901-3.71,1.2002-5.3101,1.8301-.8201.3201-1.6599.6602-2.5,1.03-1.6299.72-3.1101,1.45-4.52,2.2-.21.1101-.4199.22-.6199.3301-.21.1099-.4102.22-.6101.3301-.3699.2-.75.4099-1.1199.6199-.05.03-.1001.0601-.1602.0901-.3499.2-.6899.3899-1.04.5898-.1599.0901-.3098.1802-.47.27-.02.01-.03.02-.05.03-.52.3-1.0498.6001-1.5798.9001-.02.01-.04.02-.0601.0298-.1599.0901-.3101.1702-.47.27-.22.1201-.45.25-.6799.3801-.2102.1099-.4202.23-.6401.3499-.5798.3301-1.1699.6501-1.79.9802-1.6599.8799-3.46,1.7798-5.5198,2.7097-4.8091,2.1714-9.9446,3.7605-14.9368,5.5315-.5049.179-1.0188.363-1.4431.6897-.5889.4531-.948,1.1343-1.3108,1.783-3.3977,6.075-8.6724,11.1125-14.9333,14.1663-5.9822,2.918-11.8186,5.6995-17.2974,9.5454-.9265.6506-1.8423,1.3164-2.7488,1.9944-13.4099,10.03-16.3699,16.52-24.4099,16.73-.1289.0032-.2588.0049-.3872.0049-7.6895,0-14.1243-5.8186-18.4128-10.835-11.2659-14.4849-18.6265-17.9692-23.4163-17.9695-.8054,0-1.5374.0984-2.2036.2595-7.124,1.7205-21.9316,10.2898-34.7268,10.2898-8.3268,0-15.7994-3.6262-19.7535-15.1299-.8699-2.5298-1.5698-5.4399-2.0698-8.7798-.1902-1.3-.3601-2.6602-.49-4.0901-1.3-14.0801-20.03-15.5901-21.5901-15.8701-1.9652-.9666-6.1198-2.7119-11.3926-2.7119-1.3273,0-2.7255.1106-4.1775.3721-2.3799.4299-7.99,1.4399-11.5499,5.8999-1.11,1.3901-.5599,2.97-1.12,4.76-.0901.3-.21.6001-.38.9102-.38.7-.9801,1.4399-1.9501,2.21-2.9908,2.3699-6.6093,3.4119-10.1934,3.4119-7.7283,0-15.2977-4.8438-16.0767-11.6619-.1199-1.02-.0898-2.0901.1201-3.1902.35-1.8298,1.49-3.4399,1.6599-5.3799.22-2.4299-.1099-5.01-.8599-7.46-.3-1.03-.6802-2.03-1.1201-2.99-.58-1.29-1.28-2.51-2.0601-3.5901-4.74-6.5701-12.6299-8.5701-19.3799-10.28-7.14-1.8-8.95-.6399-14.0801-3.1499-2.54-1.23-8.7999-4.29-11.3199-10.5-2.75-6.78,2.0399-9.74,0-19.1799-1.51-7-5.48-11.55-6.89-13.1201-2.6799-3-5.87-6.5801-11.3101-7.5801-.016-.0032-.0355-.0044-.0583-.0044-.5542-.0002-3.0813.856-6.4485.856-2.4514,0-5.3479-.4536-8.2532-2.0215-11.3398-6.1299-7.1399-21.0901-5.4199-22.74,2.27-2.1699,6.5701-6.29,7.38-12.3,1.13-8.3999-5.2001-15.6299-7.38-18.1099-4.0901-4.6802-6.48-4.6401-7.87-7.97-2.77-6.6201,2.59-11.55,4.9501-17.2102,5.3298-12.8398-16.5801-31.5898-21.55-37.03-9.6001-10.5098-12.3201-18.0198-8.8501-32.0298,2.6901-10.8201,18.51-18.03,16.9501-20.3601-3.27-4.8501-8.5599-13.51-9.9301-19.48-1.3099-5.6499,1.5601-9.45,5.24-13.9299,3.6801-4.48,8.25-8.24,11.3501-13.1401,10.1199-15.95,1.84-29.9299-7.8201-41.6099-13.05-15.79,17.3101-26.8,21.7-29.5601,7.0601-4.4399,11.8-13,10.77-21.4099-.5699-4.5901-2.5599-9.28-1.1299-13.6702,1.2067-3.7488,5.0953-6.3696,8.9935-6.3696.6562,0,1.3123.0742,1.9564.2297,3.23.77,5.85,3.22,9.0601,4.03.7909.2007,1.5697.2957,2.3306.2957,7.0891,0,12.7096-8.2231,13.8293-15.7458,1.24-8.3298-8.6599-21.0298-4.78-28.5,5.0601-9.72,26.16-10.1199,30.71-20.0999,3.2001-7.01,5.3501-10.6699-.5299-15.6599-4.8618-4.1296,2.022-19.3596,10.2418-19.3596,1.4342,0,2.9078.4629,4.3682,1.5295,4.8655,3.5562,7.1193,5.7729,11.2605,5.7729,1.4253,0,3.0735-.2622,5.1295-.823,9.26-2.53,4.4601-15.1599,11.2001-19.8699,6.1899-4.3301,8.6299-11.1001,6.1899-17.3601-2.4868-6.3635,4.7687-11.8494,11.9396-11.8494,4.0752,0,8.1227,1.7712,10.3405,6.1594,1.1399,2.25,1.21,6.6899,4.52,9.3499,2.2355,1.7922,4.8804,2.2725,7.7686,2.2725,1.6078,0,3.2904-.1487,5.0212-.3025,4.9001-.4399,7.02-1.5798,14.27-3.45,4.55-1.1699,7.4001-1.8398,11.3701-2.46,3.7828-.5891,6.4237-.9897,8.7211-.9897,1.4073,0,2.6855.1504,4.0189.4998,4.6301,1.22,4.3899,3.1301,8.8501,4.4299,1.6036.4639,3.3903.7263,5.2469.7263,3.2261,0,6.6638-.7922,9.7231-2.6963,1.3699-.8499,10.74-6.1399,7.6699-11.8101-4.8938-9.0486-.2268-13.5562,5.8872-13.5562M281.8759,0c-6.0159,0-11.2234,2.7112-13.9302,7.2522-1.6152,2.71-3.6165,8.3208.1418,16.4358-.6082.5952-1.7102,1.4973-3.6658,2.6821l-.3284.2007c-1.9829,1.2339-4.0833,1.4917-5.4978,1.4917-1.0469,0-2.0908-.1418-3.0193-.4104-.7941-.2314-.9596-.3535-1.755-.9397-1.3654-1.0061-3.4285-2.5266-7.2806-3.5415-1.9652-.5151-3.9445-.7644-6.061-.7644-2.985,0-6.0604.479-9.9541,1.0852-4.2362.6616-7.2872,1.3711-12.1331,2.6172-2.5988.6704-4.5887,1.2563-6.1876,1.7273-2.8994.8538-4.3546,1.2822-6.8031,1.5022-1.5613.1387-3.0427.2703-4.3046.2703-2.118,0-2.5977-.3845-2.7552-.5107-.2894-.3125-.7052-1.8181-.9285-2.6267-.3468-1.2561-.7397-2.6797-1.4554-4.0923-3.3378-6.6047-9.8773-10.552-17.4899-10.552-7.1415,0-14.1102,3.448-17.754,8.7839-2.8781,4.2146-3.4795,9.3167-1.6504,13.9973,1.578,4.0488-2.1415,7.0518-3.3191,7.8755-5.7083,3.989-6.8604,10.1235-7.7017,14.6025-.254,1.3525-.6281,3.3438-1.011,4.1018-.0018.0007-.0038.0012-.0057.0017-1.6351.4458-2.5436.5398-3.0172.5398-.7394,0-1.4098-.405-4.4835-2.7085-.6348-.4756-1.3126-.9834-2.0477-1.5205-2.7537-2.0115-5.8987-3.0737-9.0973-3.0737-8.8135,0-15.5928,7.7153-18.4019,15.3613-2.7346,7.4438-1.6239,14.2183,2.9714,18.1213.37.314.6179.5596.7791.7351-.2823.9895-1.1312,2.8337-1.8342,4.3613l-.5172,1.1267c-.9694,2.1265-6.8264,4.4431-11.103,6.1345-7.2893,2.8833-15.5511,6.1514-19.4252,13.5928-3.7745,7.2673-.9301,15.1155,1.5797,22.0398,1.1124,3.0696,2.6362,7.2737,2.3821,8.9812-.7194,4.8328-4.137,8.9111-5.9021,8.9111-.111,0-.2288-.0164-.3602-.0496-.5803-.1465-1.5807-.7017-2.5482-1.2385-1.746-.9685-3.9189-2.1743-6.6237-2.8191-1.2233-.2957-2.5146-.4482-3.8151-.4482-7.5262,0-14.3617,4.9053-16.6226,11.9285-1.6683,5.1218-.6473,9.8977.1731,13.7349.2611,1.2212.5077,2.375.6324,3.3787.6044,4.9351-2.3738,10.6763-7.0831,13.6377-.332.1987-1.5599.7949-2.5468,1.2739-8.057,3.9119-23.0542,11.1931-25.7313,23.5068-.8655,3.9814-.7585,10.1052,4.6669,16.6697,11.2675,13.6233,13.2941,22.6536,7.2305,32.2104-1.4962,2.365-3.6394,4.6074-5.9084,6.9814-1.6089,1.6831-3.2725,3.4238-4.8672,5.365-3.6284,4.4175-9.1116,11.0925-6.8545,20.8274,1.2323,5.3699,4.6307,11.7998,7.7117,16.8743-5.187,4.2026-12.5107,10.4084-14.702,19.2219-4.5051,18.1897.5159,28.2083,10.7104,39.3689.8403.9199,1.9268,1.9993,3.3024,3.366,3.608,3.5847,9.0603,9.0017,12.8837,14.5505,3.2411,4.7036,4.6913,8.6794,3.8794,10.6355-.4355,1.0444-1.1482,2.2683-1.9026,3.564-2.625,4.5083-6.5918,11.321-3.0388,19.8125,1.5824,3.7908,4.0297,5.666,5.8165,7.0352,1.0735.8225,2.0874,1.5996,3.4121,3.1152,1.5247,1.7346,6.1184,6.9607,5.4718,11.7676-.4362,3.2363-3.2773,5.9521-4.975,7.575-3.8474,3.6904-5.269,12.3296-4.4265,18.5549,1.0143,7.4954,5.1244,13.543,11.5732,17.0288,3.6725,1.9822,7.7299,2.9858,12.0642,2.9858,2.5759,0,4.7831-.3657,6.2311-.6587,1.9836.7407,3.4945,2.345,5.5945,4.6958,2.6302,2.929,4.3187,6.1101,5.0471,9.4868.6461,2.9907.27,4.729-.2506,7.135-.6995,3.2322-1.6573,7.6589.6581,13.3674,3.6941,9.103,12.3947,13.3164,15.2537,14.7009,4.2013,2.0557,7.0901,2.3887,9.8837,2.7109,1.6083.1853,3.2714.3772,5.7302.9971,5.7987,1.469,11.8041,2.9902,14.8396,7.1978.4628.6409.8942,1.396,1.2495,2.1868l.0121.0269.0123.0269c.2913.6353.5305,1.2717.7112,1.8921l.0153.0522.016.0522c.4509,1.4727.6456,2.9766.5526,4.2527-.0658.2026-.223.5918-.3418.8855-.387.957-.9167,2.2681-1.2194,3.8499-.3574,1.8733-.4271,3.7668-.208,5.6316,1.1992,10.4973,11.7587,18.7407,24.0365,18.7407,5.6771,0,10.9231-1.7791,15.1708-5.1448,1.7302-1.3735,3.0797-2.9426,4.0164-4.668.4028-.7346.7444-1.5474.9999-2.3877.3508-1.1357.4984-2.1458.5771-2.9539,1.7988-1.4329,4.4606-1.9136,5.8475-2.1641.9056-.1631,1.8333-.2456,2.7593-.2456,3.318,0,6.1031,1.0273,7.8552,1.8892l1.0117.4976,1.1096.199c.1735.0312.4739.0764.8855.1313,6.165.8247,13.6226,2.9841,14.1398,8.5872.1318,1.4502.309,2.9307.5405,4.5134.5618,3.752,1.3749,7.1836,2.421,10.2258,4.6183,13.4358,14.0699,20.5383,27.3326,20.5383,10.2346,0,20.9475-4.3875,28.7697-7.5911,3.1506-1.2905,6.1267-2.5093,7.8384-2.9229.1013-.0244.2024-.0354.3213-.0354.5654,0,5.8462.4177,17.0908,14.8755l.114.1462.1206.1411c7.7383,9.0518,15.9829,13.6416,24.5046,13.6416.1963,0,.3945-.0027.592-.0076,8.179-.2134,13.0229-4.5845,18.6316-9.6455,2.7913-2.5186,5.9551-5.3733,10.374-8.6785.8682-.6494,1.7275-1.2729,2.554-1.8533,4.6816-3.2864,9.8411-5.8003,15.3037-8.4617l.9016-.4395c7.4055-3.6121,13.7566-9.5146,17.9695-16.6814.853-.2974,1.7087-.5911,2.5654-.885,3.8955-1.3369,7.9236-2.7195,11.8735-4.5027,2.0066-.9062,3.9612-1.8655,5.9753-2.9333.686-.365,1.3289-.7141,1.9604-1.0728l.1926-.1062c.0791-.0439.1565-.0876.2341-.1284l.1199-.0625.1177-.0667c.1936-.1094.387-.219.572-.3201l.2048-.1121.1458-.0908.0256-.0144.0818-.0408.179-.1013c.4783-.2705.9561-.5413,1.4272-.812l.24-.1201.2119-.1406c.0247-.0142.0491-.0286.0735-.0427l.1343-.0774.5183-.2939.4358-.2471c.1152-.0623.2241-.124.3308-.187.3025-.1709.6116-.3413.9128-.5042l.0273-.0149.0273-.0149c.1506-.083.3013-.1665.4597-.2493l.0754-.0398.075-.041c.1414-.0781.2898-.155.4382-.2329l.0208-.011.0579-.0305c1.3433-.7146,2.6501-1.3506,3.9949-1.9446.6243-.2749,1.3184-.5608,2.1755-.8953,1.4958-.5889,3.0283-1.1165,4.7065-1.6218l.1912-.0576.1882-.0669c.0767-.0242.1882-.0525.2988-.083l.1638-.0449.1616-.052c.1738-.0559.3545-.1033.5347-.1531l.1577-.0435.156-.0498c.0959-.0308.1763-.0544.2336-.0698l.0339-.009.0337-.0093c2.9722-.821,5.5811-1.498,7.9761-2.0693l.3967-.0942c.7979-.1895,1.5872-.377,2.3623-.5505l.0396-.0088.0396-.009.199-.0459.2522-.0583c.509-.1128,1.0078-.2209,1.5-.3274l.5522-.1196.137-.03c.0918-.0203.1807-.0413.2698-.0576l.1174-.0217.137-.0291c.6855-.1482,1.3711-.2869,2.0381-.4167l.2908-.0564.0771-.021.0024-.0005c.6619-.1323,1.3054-.2554,1.9485-.3784.6489-.1206,1.2866-.2405,1.9238-.3606l.135-.0254c2.2913-.4041,4.4951-.7625,6.5513-1.0659l.0378-.0056.0378-.0059c.6345-.0999,1.2507-.1904,1.8672-.272l.0312-.0042.0312-.0044.4465-.0632c.4536-.0642.8989-.1274,1.3442-.1848,3.6724-.4941,7.0242-.8628,9.8809-1.1699l.2395-.0259c.5796-.0625,1.1572-.1248,1.719-.1873l2.0505-.2258,1.6541-.1824.0476-.0051.0476-.0059.9382-.1125c.6814-.0813,1.3484-.1609,2.0015-.2451l.0547-.0071.0549-.0078.032-.0046.0781-.0059.2278-.0308c.7991-.1079,1.5767-.2166,2.3328-.3354.7446-.115,1.6448-.2588,2.5713-.4343.2871-.0481.5737-.1038.8562-.1604l.2151-.0427c1.1372-.2253,2.2512-.4875,3.3516-.7878l.0437-.0117.0439-.0125.1086-.031c.2532-.0718.509-.146.7585-.2236.1655-.0449.3333-.0945.5051-.1494.3347-.0986.6316-.1987.8745-.2856.2241-.0701.4453-.1479.6624-.2332.3018-.1033.5935-.2148.8806-.3367.9373-.3572,1.8328-.7551,2.665-1.1841.5117-.2634.981-.521,1.4312-.7854,29.9028-17.4873,44.709-39.0398,51.8613-54.0393,5.5667-11.667,8.2605-22.762,10.043-30.1035,2.4717-10.1465,4.001-16.6943,4.28-23.1602.1648-4.2402-.219-8.0605-1.2063-12.0576-3.0413-12.2222-13.312-30.5754-29.1562-31.0984-.2222-.0078-.4563-.0117-.6909-.0117-8.5481,0-14.4441,5.1858-20.6863,10.6758-5.791,5.092-8.322,9.1333-11.0017,13.4119-2.0071,3.2043-4.0825,6.5178-8.0874,11.2957-4.8877,5.8293-10.2991,11.0056-15.6489,14.9685-6.3628,4.6956-9.8621,7.2781-14.9893,8.6628-2.2683.6157-4.5186.9136-6.8887.9136-6.3657,0-12.512-2.1643-19.0193-4.4558-9.4729-3.3435-17.0493-7.4675-22.5374-12.2649-17.1501-14.9919-17.8396-40.9297-18.343-59.8684-.0535-1.8408-.0896-3.6897-.1074-5.5156l-.0012-.1382-.0063-.1384.0085-.1982-.0007-.2231c-.1172-16.5625,1.6147-41.5178,17.9375-66.9097,6.332-9.843,20.5886-28.1477,44.9087-40.1235,10.6907-5.2673,22.8066-11.2366,35.302-11.2363,4.0393.0002,7.8574.5994,11.6729,1.8323,11.3494,3.6638,22.3037,13.062,27.9097,23.9441,3.416,6.6301,7.366,18.7048,9.4878,25.1917l.0195.0598c.8193,2.5042,1.4746,4.6169,2.053,6.4812,2.2874,7.3738,3.5474,11.4358,7.9739,15.9307,6.1462,6.2148,15.2727,9.9182,24.4248,9.9182,3.4338,0,6.7688-.5181,9.9128-1.5396,16.4739-5.3562,22.0178-22.5273,23.8398-28.1699,2.6968-8.3403,4.2781-17.3372,4.7109-26.7859l.0894-.0859.0249-3.405.0171-3.3901-.0232-.0227c-.1599-11.1423-1.9155-22.6267-4.9255-31.9944-1.0762-3.3579-2.8499-8.0547-5.177-11.3303-8.6855-12.2278-13.3848-17.0154-25.9431-29.8113-4.4407-4.5249-9.9675-10.156-17.075-17.5432-.5098-.5339-.9536-1.0215-1.3374-1.4714,1.0608-3.9871,1.5823-8.3291,2.1594-13.1365.8608-7.1885,2.1609-18.0479-3.5527-28.7815-2.0066-3.7683-3.9434-5.7219-5.3577-7.1482-1.1321-1.1423-1.7036-1.7188-2.5823-3.5627-.0701-.157-.1372-.2949-.196-.4109-.0696-.1472-.1545-.3174-.259-.5056-2.7239-5.2375-3.3225-7.9546-3.4275-9.1541,2.0566-1.2747,3.8735-2.9683,5.4167-5.0503,6.3259-8.4785,7.2676-22.5449,2.1746-32.6992-3.9478-7.8711-11.0417-12.3855-19.4629-12.3855-4.3389.0005-8.9856,1.1943-13.8135,3.5486l-.0359.0176-.0354.0178c-.9253.4563-1.7739.9419-2.6833,1.5354-.28.1785-.5491.3555-.813.5293-1.3679.9011-1.4797.9746-3.2502.9746-.6997,0-1.5251-.0439-2.4531-.1306-2.9285-.2781-5.2539-1.9866-9.4478-5.2358-3.4827-2.6812-6.9875-7.0581-9.3181-10.2605-3.8733-5.3257-5.5027-8.7468-6.8123-11.4961-1.7559-3.6868-3.4143-7.1689-8.2207-10.6797-5.886-4.3018-13.3811-6.4836-22.2754-6.4836l-.4441.001c-1.8975,0-3.4778.1011-5.0925.3279-1.0085.1418-1.9219.3137-2.8889.4958-1.7944.3381-4.0278.7588-8.0747,1.1792-1.457.155-2.9163.2327-4.3569.2327-2.4001,0-4.8105-.2148-7.1643-.6387-3.0266-.5449-5.885-1.0593-6.3772-1.6538-.9199-1.1084-1.0764-3.0532-.814-3.6877,2.5708-5.2534,2.1575-11.3135-1.144-16.6047-3.8574-6.1816-10.9756-10.176-18.1345-10.176-5.8186,0-11.1858,2.5901-15.1128,7.2932-2.5674,3.0723-3.5547,5.9602-4.0667,8.0991-.1851-.022-.3721-.0449-.5576-.0676-6.0359-.7268-7.375-2.5559-7.3835-2.574-.084-.1956-8.1785-18.6931-22.4299-18.6931-3.8438,0-9.5703,1.4221-15.0234,8.197-.4561.564-.8108,1.0969-1.0698,1.4861-.0913.1372-.2122.3188-.2756.4048-.1936.146-1.4128.9612-5.6619,1.9983-1.1943.2925-2.2312.4402-3.0862.4402-1.3506,0-1.679-.2542-2.8999-1.1997-1.0381-.8037-2.4597-1.9045-4.457-2.5359-.9067-.2886-2.3787-1.4656-4.1628-5.4102l-.0427-.0945c-4.1511-9.2141-13.3408-13.3447-20.6035-13.3447h0Z"/>
      </g>
      <path class="cls-2" d="M589.4586,320.4009c-1.6499,5.11-6.1099,18.92-18.6899,23.01-9.1699,2.98-19.9299-.09-26.1501-6.38-3.8999-3.96-4.23-7.39-8.1199-19.28-2.28-6.97-6.28-19.21-10-26.43-6.29-12.21-18.6301-23.4-32.5701-27.9-19.9299-6.44-37.98,2.45-52.98,9.84-28.4099,13.99-43.51,35.83-48.1099,42.98-19.9202,31-19.53,61.72-19.1001,77.67.53,19.94,1.29,48.39,21.0801,65.69,9.45,8.26,21.5801,12.53,25.1499,13.79,9.3999,3.31,19.3101,6.8,30.6602,3.72,6.5898-1.78,11.0298-5.06,17.6699-9.96,2.4299-1.8,9.3398-7.1,17.02-16.26,9.8499-11.75,9.4399-16.1,18.22-23.82,5.73-5.04,10.0999-8.89,15.8401-8.69,10.6099.35,18.97,14.28,21.6399,25.01,2.25,9.07.51,16.63-3.0801,31.4-1.6899,6.96-4.28,17.63-9.49,28.55-14.3198,30.03-40.79,45.96-48.6899,50.58-.3401.2-.6899.39-1.04.57-.6399.33-1.3101.62-2.01.8799-.22.1-.4399.1801-.6699.25-.1201.0601-.24.1-.3601.13-.24.09-.47.17-.72.2401-.1199.04-.25.08-.3799.11-.27.09-.5601.17-.8401.25-.8799.24-1.8.46-2.76.65-.3101.06-.6299.13-.95.1801-.78.15-1.5801.28-2.4199.41-.7002.11-1.4202.21-2.1602.31-.1299.01-.26.03-.3999.05-.9302.12-1.8901.23-2.8801.35-1.1899.13-2.4299.27-3.72.41-.6299.07-1.27.14-1.9299.21-3.0701.33-6.4099.7-10.05,1.19-.6099.08-1.24.17-1.8799.2599-.6702.09-1.3601.19-2.0601.3-2.1699.32-4.4399.69-6.8201,1.11-.6799.13-1.3799.26-2.0798.39-.6802.13-1.3601.26-2.0601.4-.1101.02-.22.04-.3301.07-.72.14-1.45.29-2.2.45-.22.04-.4399.09-.6702.14-.6899.15-1.3899.3-2.1099.46-.1699.04-.3501.08-.52.12-.9399.21-1.8999.4301-2.8701.67-2.6399.63-5.3899,1.35-8.25,2.14-.1499.04-.3599.1-.6099.1801-.24.0699-.54.16-.8599.25-.29.09-.5801.17-.8601.2599-1.96.59-3.71,1.2-5.3101,1.83-.8201.32-1.6599.66-2.5,1.03-1.6299.72-3.1101,1.45-4.52,2.2-.21.11-.4199.22-.6199.33-.21.11-.4102.22-.6101.33-.3699.2-.75.41-1.1199.62-.05.03-.1001.06-.1602.09-.1299.0699-.26.15-.3999.22-.21.12-.4302.24-.6401.37-.1599.09-.3098.18-.47.27-.02.01-.03.02-.05.03-.2898.16-.5898.33-.8899.5-.23.13-.46.26-.6899.4-.02.01-.04.02-.0601.03-.1599.09-.3101.17-.47.27-.22.12-.45.25-.6799.38-.2102.11-.4202.23-.6401.35-.5798.33-1.1699.65-1.79.98-1.6599.88-3.46,1.78-5.5198,2.71-.4502.2-.9102.4-1.3801.6-.3401.15-.6899.3-1.04.44-.3999.17-.8.33-1.22.5-2.6799,1.07-5.77,2.17-9.4099,3.3-.6401.2-1.29.4-1.9602.6-.0498.01-.0999.03-.1499.04-.3999.12-.8101.24-1.23.37-1.8701.53-3.8799,1.08-6.04,1.63-52.49,13.46-55.8899,16.63-69.72,15.01-20.1199-2.36-35.73-11.73-51.75-21.33-19.74-11.84-28.9099-10.64-45.76-21.2-1.6099-1.01-3.1699-1.95-4.7-2.82-.1899-.12-.3899-.23-.5801-.33-.49-.29-.97-.55-1.4399-.81-.5701-.31-1.1301-.62-1.6899-.91-.4602-.25-.9102-.48-1.3601-.71-.3899-.2-.78-.39-1.1599-.58-.48-.2401-.95-.47-1.4202-.69-2.1599-1.04-6.7456,6.3962-8.7256,5.6162l-21.7021,7.2766c-10.7899-4.27-9.1801-4.0153-18-6.2553,6.4301-1.67,26.4678-20.2475,31.7378-21.9075,19.4399-6.12,38.27-13.87,60.6501-7.43,10.8499,3.13,14.3699,7.24,30.5198,10.96,14.5103,3.34,30.5303,7.02,43.04-.79,11.1201-6.93,6.9102-15.09,18-24.26,17.26-14.26,36.3801-1.9,46.1802-14.08,8.6199-10.73,1.9299-30.44-2.3501-43.05-6.55-19.27-12.99-18.98-16.4399-33.65-3.5901-15.29,1.78-22.52,7.05-50.87,4.97-26.76,1.3799-26.78,5.48-50.87,5.78-34.05,8.74-51.42,21.9099-66.52,23-26.37,60.71-26.98,86.0901-27.39,31.8098-.52,45.97,8.81,50.0798,11.74,7.8701,5.61,9.3501,19.79,18.79,21.13.8101.11,5.4199.68,7.6301-1.96,2.55-3.06.3999-8.67-.5901-11.15-7.21-18.13-28.8501-24.46-37.96-42.85-6.79-13.72,2.8899-14.95-3.52-35.22-5.6401-17.85,5.6617-22.3717-6.8085-49.1517-4.5999-9.88-40.627-16.0845-45.617-27.5745-5.1702-11.91-1.5773-31.5812-5.7872-38.3112,12.83,6.29,37.8467,27.36,45.2766,42.1299,5.0091,9.9576,23.4143,4.3098,31.3394,11.8409,9.4266,8.9579,2.4753,40.4504,6.344,52.983,4.0347,13.0703,5.8161,26.6827,14.8329,37.5836.1799.23.3699.45.5798.68.5701.68,1.1902,1.36,1.8401,2.04,27.1699,28.24,30.98,30.56,42.26,46.44,5.55,7.81,13.8601,39.96,4.1899,69.91Z"/>
      <path class="cls-7" d="M593.8885,292.5309c.0103.01.0103.02,0,.03.1101,9.81-1.0798,20.46-4.4299,30.84-1.6499,5.11-6.1099,18.92-18.6899,23.01-9.1699,2.98-19.9299-.09-26.1501-6.38-3.8999-3.96-4.23-7.39-8.1199-19.28-2.28-6.97-6.28-19.21-10-26.43-6.29-12.21-18.6301-23.4-32.5701-27.9-19.9299-6.44-37.98,2.45-52.98,9.84-28.4099,13.99-43.51,35.83-48.1099,42.98-16.53,25.72-19.0701,51.24-19.21,68.3-.0103.24-.0103.49,0,.72-.03,3.22.0398,6.12.1099,8.65.53,19.94,1.29,48.39,21.0801,65.69,9.45,8.26,21.5801,12.53,25.1499,13.79,9.3999,3.31,19.3101,6.8,30.6602,3.72,6.5898-1.78,11.0298-5.06,17.6699-9.96,2.4299-1.8,9.3398-7.1,17.02-16.26,9.8499-11.75,9.4399-16.1,18.22-23.82,5.73-5.04,10.0999-8.89,15.8401-8.69,10.6099.35,18.97,14.28,21.6399,25.01.5701,2.31.8899,4.53.98,6.79-.25,5.79-1.78,12.25-4.0601,21.61-1.6899,6.96-4.28,17.63-9.49,28.55-14.3198,30.03-40.79,45.96-48.6899,50.58-.3401.2-.6899.39-1.04.57-.6399.33-1.3101.62-2.01.8799-.22.1-.4399.1801-.6699.25-.1201.0601-.24.1-.3601.13-.24.09-.47.17-.72.2401-.1199.04-.25.08-.3799.11-.27.09-.5601.17-.8401.25-.8799.24-1.8.46-2.76.65-.3101.06-.6299.13-.95.1801-.78.15-1.5801.28-2.4199.41-.7002.11-1.4202.21-2.1602.31-.1299.01-.26.03-.3999.05-.9302.12-1.8901.23-2.8801.35-1.1899.13-2.4299.27-3.72.41-.6299.07-1.28.14-1.9299.21-3.0701.33-6.4099.7-10.05,1.19-.6199.08-1.24.17-1.8799.2599-.6802.09-1.3601.19-2.0601.3-2.1699.32-4.4399.69-6.8201,1.11-.6899.13-1.3799.26-2.0798.39-.6802.13-1.3601.26-2.0601.4-.1101.02-.22.04-.3301.07-.72.14-1.46.29-2.2.45-.22.04-.4399.09-.6702.14-.6899.15-1.3899.3-2.1099.46-.1699.04-.3501.08-.52.12-.9399.21-1.8999.44-2.8701.67-2.6399.63-5.3899,1.35-8.25,2.14-.1499.04-.3599.1-.6099.1801-.29.08-.5801.16-.8599.25-.29.08-.5801.16-.8601.2599-1.96.59-3.71,1.2-5.3101,1.83-.8201.32-1.6599.66-2.5,1.03-1.6299.72-3.1101,1.45-4.52,2.2-.21.11-.4199.22-.6199.33-.21.11-.4102.22-.6101.33-.3699.2-.75.41-1.1199.62-.05.03-.1001.06-.1602.09-.3499.2-.6899.39-1.04.59-.1599.09-.3098.18-.47.27-.02.01-.03.02-.05.03-.52.3-1.0498.6-1.5798.9-.02.01-.04.02-.0601.03-.1599.09-.3101.17-.47.27-.22.12-.45.25-.6799.38-.2102.11-.4202.23-.6401.35-.5798.33-1.1699.65-1.79.98-1.6599.88-3.46,1.78-5.5198,2.71-.4502.2-.9102.4-1.3801.6-.3401.15-.6899.3-1.04.44-.3999.17-.8.33-1.22.5-2.6799,1.07-5.77,2.17-9.4099,3.3-.6401.2-1.29.4-1.9602.6-.0498.01-.0999.03-.1499.04-.3999.12-.5997.4765-1.0196.6065-.6899,1.29-1.6103,2.2535-2.3305,3.3535h-.0098c-1.53,2.34-3.1201,4.28-4.6501,5.89-8.3499,8.79-13.3101,6.27-29.5,18.38-13.4099,10.03-16.3699,16.52-24.4099,16.73-7.8601.2-14.4399-5.73-18.8-10.83-13.1599-16.92-20.99-18.83-25.6199-17.71-11.7603,2.84-44.4502,24.34-54.4802-4.82v-.02c-.2-3.02-.8899-5.98-2.0698-8.78-.1602-.37-.3201-.73-.49-1.09-6.0901-12.7599-20.03-15.59-21.5901-15.87-2.46-1.21-8.3501-3.64-15.5701-2.34-2.3799.43-7.99,1.44-11.5499,5.9-.51.64-.84,1.19-1.12,1.76-.14.29-.26.59-.38.91-.38.7-.9801,1.44-1.9501,2.21-9.4399,7.48-25.1299,1.73-26.27-8.25.04-.06.0801-.12.1201-.19,1.45-2.4,1.9099-5.36,1.6599-8.38-.2-2.54-.9099-5.12-1.98-7.45.3701-.04.75-.04,1.1201-.01,5.4199.28,11.1299,6.08,17.23,6.37,4.9399.24,10.1399-5.95,15.7-5.36,11.8101,1.2599,23.1001-3.39,26.3301-3.1201,10.48.88,12.5999,4.3101,29.3499,7.82,15.29,3.21,17.8601,1.25,29.3401,3.52,21.47,4.25,22.3899,13.04,39.9199,18,23.7,6.71,46.4302-2.47,58.6899-7.43,21.76-8.8,20.6702-15.88,40.7002-22.3,18.8499-6.05,22.0498-.49,47.74-4.7,17.9099-2.94,43.3599-7.12,59.0798-26.61,2.03-2.51,16.9202-20.97,9.79-34.43-4.3699-8.2401-15.3599-11.55-23.48-11.35-10.6699.25-14.21,6.48-24.6499,11.35-19.6201,9.1299-48.4702,6.4-63.3901-7.44-8.8499-8.2-6.0698-14.05-20.3499-28.56-4.8-4.88-8.75-7.91-11.4802-14.35-3.1499-7.41-2.5298-14.25-1.5698-21.65,3.1199-24.05,7.1599-33.32,9.1299-48.92,2.0801-16.34-.97-17.02.4001-30.13,2.1599-20.73,12.95-49.23,38.73-68.08,24.72-18.07,51.01-18.38,60.27-18,9.3201.37,37.1299,1.49,54.78,20.73,10.4299,11.38,15.2598,23.87,15.2598,23.87,4.77,12.34,3.6602,20.23,10.9602,26.22.5398.45,8.0798,6.47,16.0398,4.31,11.7603-3.19,14.4202-21.53,14.8701-24.66,1.3-9-.6599-15.9-3.9099-27.39-1.75-6.15-4.3301-15.07-9.79-25.04-9.5901-17.55-16.23-16.71-30.6501-36.65-4.4199-6.11-11.7-16.33-17.22-31.31-2.72-7.39-4.05-13.34-5.6899-22.17-.8799-3.34-1.48-6.54-1.6799-9.26-.3501-1.98,3.51-19.03-1.73-28.71-6.1201-11.29-21.52-15.29-22.8101-15.72-10.95-3.64-17.49-11.2-21.45-15.88-7.23-8.57-6.52-11.91-12.25-20.42-4.1501-6.16-8.54-10.4-12.53-13.49,1.1399-.16,2.3501-.25,4.01-.25,2.6699-.01,11.1599-.03,17.96,4.94,6.01,4.39,4.1599,7.88,13.28,20.42,5.5601,7.64,9.5,10.81,10.8899,11.88,4.4402,3.44,8.24,6.37,13.6101,6.88,4.28.4,8.25-.87,11.6099-2.62.6401-.34,1.27-.7,1.8601-1.07l.0601-.03c24.3-11.85,29.8499,17.9,21.1499,29.56-1.47.69-2.76,1.67-3.8298,3.37-4.2402,6.73,0,16.73,1.25,19.46.0398.06.0598.12.0898.18s.0601.11.0801.16c.02.05.04.09.0601.13,2.8298,5.96,5.0898,5.38,8.1199,11.0699,4.53,8.51,3.47,17.38,2.6702,24.0601-.7603,6.33-1.3801,11.47-3.1702,15.6299.6599.9301,1.3601,1.85,2.1101,2.77.1899.23.3799.45.5798.68.5701.68,1.1902,1.36,1.8401,2.04,27.1699,28.24,30.98,30.56,42.26,46.44,1.3,1.83,2.75,4.99,4.0801,9.14-.0801.74-.1702,1.45-.28,2.14,2.51,7.46,4.6899,18.45,4.8198,30.76Z"/>
      <path class="cls-8" d="M390.6647,83.005c-.6699-3.0981-2.0232-5.7878-3.8984-8.1781-.0835-3.2979-.373-6.7215-.9624-9.8585-.3472-1.8478-.8945-4.1171-.3843-7.1749.9783-5.8607,4.5872-7.0969,5.1211-11.9015.55-4.9482-2.5427-10.2516-4.7368-10.2128-2.052.0363-2.0256,4.7223-6.4973,10.2128-1.7246,2.1176-4.8662,5.9749-9.53,7.1489-9.0203,2.2706-17.72-7.0112-19.7634-9.1915-2.9143-3.1094-6.2913-6.7123-6.4512-11.7446-.1882-5.9185,2.1095-7.7299.4142-9.9986-1.2908-1.7274-3.3172-3.5221-6.0311-1.7461-5.2324,3.4242-1.2053,11.0115-6.0208,16.3404-3.7595,4.1603-10.0603,3.7923-22.5312,3.0638-11.9402-.6974-14.2043-3.6097-14.8523-4.5958-2.0366-3.0993-.5034-6.0355-2.6902-7.6595-2.7202-2.0202-6.0437-3.7367-9.7983-.7072-6.3706,5.14-6.5183,14.473-12.5327,19.6008-4.2742,3.6442-9.3364,4.181-13.2766,4.5989-9.1782.9733-16.4185-2.2982-19.7305-4.0883-14.9053-4.6785-23.6479-2.5464-28.9592.5106-5.8201,3.3499-10.0376,9.2594-16.1614,8.1702-.2122-.0377-4.7502-.9127-6.7314-4.5925-2.6328-4.8902,2.0116-9.6029.0021-13.276-2.4265-4.4353-8.8143-4.1973-13.0292-3.2157-.411.0957-.84.2156-1.1379.5146-.3198.3211-.431.7909-.5036,1.2383-.4312,2.6572.0194,5.3658.2162,8.0506.5308,7.2411-.5252,15.8351-4.5441,22.0612-3.2393,5.0179-8.457,8.3368-13.067,11.9563-4.8501,3.808-10.7049,9.3493-15.9527,3.6838-1.3701-1.4791-9.1093-7.2808-11.1247-4.463-.9943,1.39,4.8689,4.5308,6.6383,11.7447,1.4615,5.9586-.7104,11.2686-1.5319,13.2766-1.5359,3.7548-3.2362,5.3255-9.7021,12.2553-8.3463,8.9449-20.0891,6.5022-21.6406,9.6664-1.7635,3.5967,5.1058,14.7225,3.7683,23.0144-2.4919,15.4495-.6909,17.6655-3.7683,21.4176-3.3293,4.0593-8.5786,5.2955-18.9247,7.7321-8.973,2.1132-10.277.9068-12.5917,3.0853-5.1827,4.8781.0206,12.1828-5.5664,21.5358-.9282,1.5538-4.0173,6.7252-9.7021,8.5271-4.804,1.5227-6.6085-.8988-12.766,0-5.2465.7658-12.6301,3.7928-13.2766,8.1702-.4532,3.0692,2.7822,4.251,7.6595,11.3417,2.7574,4.0088,4.2213,7.4026,7.149,14.1902,3.9001,9.0423,5.8503,13.5634,5.1063,17.4635-.2063,1.0814-.5333,2.0917-7.6595,12.1535-6.4291,9.0776-7.4736,10.106-8.1703,13.0015-1.1995,4.9859.1477,9.2108,1.532,13.5518,3.3638,10.5485,8.243,12.1124,9.1915,18.383.6385,4.2214-.5299,10.4067-8.6809,18.8936-7.0995,10.1602-6.9418,16.269-5.6171,19.9149,3.3387,9.1889,15.7452,7.2873,22.9788,18.8936,6.0946,9.779,3.8665,21.6857,3.5745,23.1391-2.1931,10.9142-8.7251,12.6551-7.6595,19.7727.9758,6.5184,6.6248,6.1969,13.5482,17.8542,3.3584,5.6547,6.8839,11.5907,4.8684,16.9366-1.8302,4.8542-6.7084,5.1885-7.6932,10.2083-.8835,4.5031,2.1851,8.6027,3.0897,9.8113,5.411,7.2291,12.4762,4.9307,20.6854,9.725,12.171,7.1081,8.3965,19.0256,18.9247,25.2751,6.0219,3.5746,15.0009,4.2723,21.9333,2.1742,13.8134,7.8032,30.2354,10.7811,42.4919,4.3442.9828-.5161,15.5072-8.4337,15.6522-22.6957.1301-12.8106-14.7422-21.8963-20.3478-25.826-48.9955-34.3485-59.1654-124.6825-60.261-135.3913-2.2992-22.4744-6.415-62.7051,16.4348-100.9565,13.6891-22.916,38.4435-47.4436,68.087-61.8261,15.3945-7.4692,27.9502-10.1851,47.739-24.2609,19.9341-14.1789,18.4023-19.3957,32.0869-25.8261,19.0366-8.9452,38.9243-6.8023,65.7393-3.913,25.7485,2.7744,33.0239,7.3277,43.8259,1.5652,11.3674-6.064,20.7002-20.3828,18-32.8696Z"/>
      <path class="cls-4" d="M342.2022,282.1872c-11.0901,28.55,2.02,60.28,2.5599,90.9.64,36.05-17.88,72.01-47.92,91.94-11.3,7.49-24.1,12.58-37.3999,15.18-22.0701,4.3-45.5,1.73-65.6901-8.18-24.42-12-43.13-33.35-57.2999-56.57-16.9102-27.72-25.8401-57.01-27.0601-85.75-2.26-52.77,21.45-103.66,69.39-139.47,32.6901-24.42,71.98-39.03,112.1-46.48,13.9099-2.59,28.45-4.31,42.21-1.62,2.6301.52,5.24,1.19,7.8,2.05,16.75,5.61,30.52,19.21,36.8301,35.72,6.2999,16.51,5.1699,35.59-2.5601,51.48-8.8701,18.2-25.63,31.93-32.96,50.8Z"/>
      <path class="cls-9" d="M336.4039,61.092c-1.0535-.6626-4.1213-2.5922-7.5652-1.5652-3.6738,1.0955-6.0582,5.0436-6,8.8696.0507,3.3243,1.9509,6.9247,5.4783,8.3478,4.1331,1.6675,7.86-.7193,8.3478-1.0435,2.7714-1.8419,4.9933-5.4906,4.174-9.1304-.7051-3.1324-3.3307-4.7838-4.4348-5.4783Z"/>
      <path class="cls-9" d="M365.8822,92.1354c-2.4858-1.8633-6.4037-1.5392-8.0869.7826-1.9525,2.6933-.2253,7.1465,2.8695,8.6087,1.9921.9411,4.8915.8041,6.5217-1.0435,2.0471-2.3202,1.2769-6.4131-1.3043-8.3478Z"/>
      <path class="cls-9" d="M291.5344,82.4833c-1.3918-4.7455-6.8915-6.9259-10.9565-7.0435-6.3199-.1827-10.1527,4.5925-10.4348,4.9565-2.3719,3.0606-4.429,8.6675-1.5652,13.0435,3.0372,4.641,9.4645,4.6203,13.0435,3.6522,3.6704-.9929,5.827-3.3831,6.5217-4.1739.9071-1.0327,4.8369-5.5064,3.3914-10.4348Z"/>
      <path class="cls-9" d="M303.0126,57.1789c-1.7985-1.0641-4.7079.1908-5.2174,2.3478-.5161,2.185,1.5978,4.5869,3.6521,4.4348,1.4095-.1044,2.4938-1.389,2.8696-2.6087.4534-1.471.04-3.3785-1.3043-4.1739Z"/>
      <path class="cls-9" d="M316.5126,103.9398c-.4417-2.3476-3.2714-3.6988-5.087-2.9348-2.153.9059-2.7809,4.7441-.9783,6.4565.9648.9166,2.5786,1.179,3.9131.587,1.6176-.7177,2.4502-2.5247,2.1522-4.1087Z"/>
      <path class="cls-9" d="M213.0126,76.3528c-1.6165-1.7774-4.467-1.4424-5.087-1.3696-2.8867.3392-6.4519,2.4991-6.8478,6.0652-.4558,4.1061,3.5278,7.9353,6.6521,7.6304,1.6348-.1595,2.7222-1.4205,3.5217-2.3478,2.2402-2.598,4.033-7.4802,1.761-9.9783Z"/>
      <path class="cls-9" d="M235.7082,105.505c-1.8396-2.6569-6.2273-2.9828-8.413-1.1739-3.2325,2.6753-1.4353,9.8437,1.7609,10.9565,1.5541.5411,3.1654-.4449,3.7174-.7826,2.7335-1.6726,5.0056-6.009,2.9347-9Z"/>
      <path class="cls-9" d="M201.2735,101.3963c-.8008-.3693-2.9276.9878-2.674,2.413.1378.7741.9655,1.4978,1.8912,1.5.5769.0013,1.2672-.2773,1.5653-.8478.2775-.5311.094-1.0837-.1957-1.9565-.219-.6597-.3284-.9895-.5869-1.1087Z"/>
      <path class="cls-9" d="M170.4908,93.5702c-2.1339-1.6809-5.7302.3639-6,.5217-.714.4178-2.7383,1.6024-3.1304,3.9131-.5198,3.0629,2.3118,5.2557,2.6086,5.4782.2162.162,3.2008,2.3379,5.4783,1.0435,1.5831-.8998,1.8333-2.913,2.087-4.9565.264-2.126.5858-4.7165-1.0436-6Z"/>
      <path class="cls-9" d="M205.1865,134.4615c-2.549-4.2944-7.5789-6.0718-11.9348-5.4783-5.8762.8007-10.6598,5.9344-10.5652,10.5652.1537,7.5222,13.1941,14.4354,19.7609,9.9783,3.9573-2.6859,5.9045-9.7323,2.7391-15.0652Z"/>
      <path class="cls-9" d="M226.8061,128.2985c-.4723-.6805-2.8575-.5633-3.8153.8804-.7852,1.1835-.549,3.1649.587,3.7174.828.4027,1.9712-.033,2.5435-.6848.2561-.2917.4025-1.2093.6848-3.0326.0894-.5773.1046-.7297,0-.8804Z"/>
      <path class="cls-9" d="M162.143,127.2224c-.9974-1.9352-3.4681-3.2253-5.674-2.5435-2.8508.8812-3.2524,4.4358-3.326,5.0869-.0931.8238-.3806,3.3687,1.3696,4.6957,1.9789,1.5003,4.7545.0729,4.8912,0,2.3186-1.2359,4.1305-4.5394,2.7391-7.2391Z"/>
      <path class="cls-9" d="M159.4039,171.4398c.8038-2.905-1.0865-6.1714-3.9131-7.4348-3.0741-1.3741-6.6033-.0874-8.413,2.3478-1.8412,2.4775-2.084,6.3882,0,8.4131,1.7816,1.7311,4.5004,1.3419,5.6738,1.1739.9252-.1324,5.63-.8059,6.6522-4.5Z"/>
      <path class="cls-9" d="M138.6647,151.3854c-.2968-.6501-1.0686-1.412-1.9565-1.2717-.8866.1401-1.3635,1.0968-1.4674,1.7609-.2241,1.4329,1.0482,3.0405,2.0544,2.9348,1.0398-.1093,1.9884-2.0685,1.3695-3.4239Z"/>
      <path class="cls-9" d="M124.0561,179.3963c-1.4633-2.0329-4.5266-2.6807-6.9131-1.8261-3.6993,1.3247-4.2451,5.7122-4.3043,6.2609-.0511.4737-.4836,4.4836,2.0869,6.1304,2.5084,1.607,6.0712-.1927,7.826-1.9565.3885-.3906,2.1652-2.2636,2.2174-5.087.0131-.703.0406-2.1969-.913-3.5217Z"/>
      <path class="cls-9" d="M116.1647,213.7007c-.6732-1.3604-2.3036-2.4806-4.1086-2.3478-2.0659.152-3.5333,1.8845-3.9131,3.5217-.6794,2.9297,1.9871,6.1445,4.3043,6.0652,2.6248-.0898,5.1143-4.4168,3.7174-7.2391Z"/>
      <path class="cls-9" d="M83.0996,213.8963c-2.4771-1.627-5.5105-.0862-5.674,0-2.812,1.4837-4.7172,5.4176-3.1304,8.2174,1.1274,1.9894,3.6497,2.7565,5.6738,2.5435.2921-.0307,3.0261-.3637,4.5-2.7391,1.5618-2.517,1.1237-6.3842-1.3695-8.0217Z"/>
      <path class="cls-9" d="M69.7953,248.1355c-2.2216-1.3174-5.8695-.7536-8.0217,1.3696-3.0079,2.9675-2.6458,8.539.1956,10.9565,1.6683,1.4195,3.7631,1.387,4.8914,1.3696,4.2916-.0665,9.0154-2.9266,9-5.674-.0035-.6295-.2533-.7896-3.7174-5.2826-1.7228-2.2346-1.8555-2.4471-2.3478-2.7391Z"/>
      <path class="cls-9" d="M90.6647,296.005c1.1714-1.1612.9885-3.0175.9131-3.7826-.317-3.2172-3.0076-4.9754-3.3914-5.2174-.8397-.5295-2.5447-1.6046-4.4348-1.0435-2.2162.6578-3.453,3.1985-3.3912,5.3478.0054.1855.1158,2.6606,2.0869,4.1739.8434.6475,1.6487.8282,2.6088,1.0435,1.5262.3423,4.1445.9296,5.6086-.5217Z"/>
      <path class="cls-9" d="M69.143,308.9181c.0885-2.7689-3.1945-5.1154-5.8695-4.5652-2.2654.466-3.2734,2.8403-3.3914,3.1304-.2166.5324-.9491,2.3336,0,3.9131,1.0848,1.8056,3.4722,1.8322,3.9131,1.8261,2.3284-.0323,5.2657-1.7388,5.3478-4.3044Z"/>
      <path class="cls-9" d="M93.4039,331.3528c.4318-1.6942-.5786-4.0019-2.4783-4.4348-1.8101-.4125-3.4211,1.1066-4.0435,2.4783-.6271,1.382-.6051,3.3965.5217,4.3044,1.632,1.3147,5.3671.1356,6-2.3478Z"/>
      <path class="cls-9" d="M86.0344,382.5485c2.3997-1.3058,2.8051-7.0547-.1957-9.5869-1.9583-1.6525-5.5701-2.1065-7.2391-.1956-1.6591,1.8994-.4711,5.0733.5869,6.6522,1.5797,2.3573,4.9008,4.1899,6.8479,3.1304Z"/>
      <path class="cls-9" d="M111.3713,406.6137c.7477-1.0936-.0164-2.7539-.6848-4.2065-.7968-1.7314-2.0181-4.3856-4.3043-4.5-1.6838-.0843-3.2197,1.2453-3.9131,2.6413-.1145.2305-1.0173,2.1244-.0978,4.0109.8297,1.7021,2.5623,2.2069,3.7174,2.5435.338.0985,4.1262,1.2023,5.2826-.4891Z"/>
      <path class="cls-9" d="M121.3496,432.7333c-.5339-1.4676-1.7417-4.7868-4.5979-5.3804-2.0054-.4168-3.7123.7409-4.2064,1.076-.4186.2839-2.6759,1.8877-2.837,4.7935-.1418,2.5591,1.4448,4.2778,1.8588,4.6956,1.547,1.5613,4.1298,2.5304,6.5543,1.663,1.7201-.6154,3.4613-2.1909,3.7174-4.2065.1222-.9613-.1376-1.6752-.4891-2.6413Z"/>
      <path class="cls-9" d="M103.9039,450.7659c1.1383-1.8494-.022-4.0419-.1304-4.2391-1.3621-2.4796-4.4785-2.6082-5.2174-2.6087-.6814-.0005-3.2279-.0023-4.1088,1.6304-.9554,1.7712.7489,4.1689,1.6957,5.1522.4283.4448,1.3558,1.3823,2.8696,1.6957,1.4128.2925,3.8027.1379,4.8912-1.6304Z"/>
      <path class="cls-9" d="M128.6213,485.3963c-.2815-2.0476-1.6127-4.8073-4.3043-5.6087-3.5729-1.0638-6.5748,2.2067-7.0435,2.7391-2.1509,2.444-3.5918,7.0421-1.174,9.7826,1.833,2.0776,5.0426,2.134,7.174,1.4348,3.4093-1.1183,5.8419-4.7538,5.3478-8.3478Z"/>
      <path class="cls-2" d="M296.3604,119.9181c-1.9756-2.4583-5.3951-2.3701-6.2609-2.3478-4.7051.1213-10.7637,3.8278-10.4348,8.7391.222,3.316,3.2839,6.1081,6.5217,6.913,4.1367,1.0284,8.1848-1.2802,10.0435-4.4348,1.3314-2.2597,2.2747-6.2016.1305-8.8696Z"/>
      <path class="cls-2" d="M184.4473,177.6355c-.6746-1.6474-2.8054-2.2105-4.3695-1.8913-1.5992.3264-3.4325,1.7441-3.2609,3.3913.1796,1.7233,2.4358,2.5685,3.8478,2.6739.4445.0332,2.4288.1812,3.4565-1.3043.5735-.829.7014-1.9531.326-2.8696Z"/>
      <path class="cls-2" d="M228.0778,153.9289c-1.3015-1.5129-3.9514-2.5277-5.8696-1.2717-1.1312.7406-2.0365,2.2895-1.663,3.7174.5846,2.2345,3.8655,2.507,4.3043,2.5435.3682.0306,3.399.2823,4.2065-1.4674.7019-1.521-.8315-3.3511-.9783-3.5217Z"/>
      <path class="cls-2" d="M133.1865,221.3963c-.6871-1.3224-2.1871-2.0703-3.5217-2.087-2.8459-.0355-5.7572,3.2444-4.9565,6,.4956,1.7057,2.3927,3.1394,4.3044,3,1.4125-.103,2.3342-1.0284,2.739-1.4348,1.0977-1.102,2.488-3.4514,1.4348-5.4782Z"/>
      <path class="cls-2" d="M118.8387,259.8746c3.1641-.8202,5.5896-7.2167,3.1304-11.2174-.9653-1.5704-2.7711-2.9145-4.9564-3.1304-2.9965-.2961-5.9291,1.6056-6.7827,3.9131-1.7153,4.637,4.7736,11.4289,8.6088,10.4348Z"/>
      <path class="cls-2" d="M405.2735,138.0485c-1.8745-4.1046-6.7118-5.9203-10.6957-5.4783-.868.0963-5.6293.7363-7.8262,4.9565-2.5331,4.8659.7843,9.8017,1.0436,10.1739,2.2002,3.1584,6.3718,5.3674,10.4347,4.4348,5.7969-1.3307,9.5334-8.6347,7.0436-14.0869Z"/>
      <path class="cls-2" d="M360.7952,128.6572c-.9316-2.8204-4.4482-3.6099-5.2174-3.7826-3.1908-.7164-7.877.1436-8.8696,3.1304-.9143,2.7513,1.8622,5.6315,2.2174,6,.4891.5074,3.4481,3.4459,7.0435,2.4783,3.3381-.8984,5.8296-4.7885,4.8262-7.8261Z"/>
      <path class="cls-2" d="M415.1865,83.5268c-3.8031-.0288-8.4376,2.7533-8.6086,6.5217-.1741,3.8342,4.3727,6.4824,7.3043,7.3043,4.1501,1.1636,9.7844-.0089,10.9565-3.1304,1.431-3.8112-3.7434-10.6509-9.6522-10.6956Z"/>
      <path class="cls-2" d="M463.9691,137.2659c-3.2306-4.2102-9.8439-7.1599-14.6086-4.4348-5.4056,3.0917-4.6158,11.3052-4.4348,12.7826.2281,1.8619.8468,6.9093,5.2174,9.6522,4.0643,2.5507,9.7523,2.0912,13.3043-1.0435,4.9058-4.3293,4.0894-12.3071.5217-16.9565Z"/>
      <path class="cls-2" d="M479.8822,207.7007c2.7844-7.1732-1.6295-17.408-9.3914-22.4348-.6957-.4506-9.7429-6.1083-18.7826-2.087-11.1443,4.9576-14.9285,21.3567-9.3912,29.2174,7.4218,10.5361,32.8324,7.4971,37.5652-4.6956Z"/>
      <path class="cls-2" d="M404.4908,211.3528c.0852-.3679.6698-3.1042-1.1738-5.4783-1.6477-2.1218-4.0521-2.4307-4.9565-2.4782-2.4662-.1296-5.6251,1.0622-6.6522,3.7826-.0588.1558-.9805,2.7211.5217,4.8261,1.1207,1.5705,2.8989,1.9155,3.7827,2.0869,4.214.8176,7.7572-2.1168,8.4781-2.7391Z"/>
      <path class="cls-2" d="M356.817,299.3963c2.9509-3.5667,3.0796-9.2127.1957-12.1304-3.9131-3.959-12.661-2.1747-15.261,3.3261-1.6093,3.4047-.9391,8.3937,2.5436,10.9565,3.9205,2.8851,9.6063,1.3716,12.5217-2.1522Z"/>
      <path class="cls-2" d="M353.0996,481.3529c3.3953-5.5292,1.4561-12.5446-3.1305-16.0435-3.3492-2.555-7.8927-3.0692-11.7391-1.5652-4.4725,1.7488-7.8794,6.1779-7.826,11.3478.0483,4.6805,2.9194,8.6838,6.6522,10.5652,5.1941,2.618,12.554,1.3784,16.0435-4.3043Z"/>
      <path class="cls-2" d="M295.5778,529.8746c3.386-2.5072,5.7435-7.1232,4.8912-11.9348-1.0122-5.7145-5.963-8.379-7.2391-9-1.0892-.5301-4.701-2.2877-8.8043-.9783-5.8477,1.8661-7.5439,8.3182-7.826,9.3914-.3517,1.3378-1.6724,6.3609,1.174,10.3696,3.6163,5.0932,12.3074,6.2225,17.8043,2.1522Z"/>
      <path class="cls-2" d="M308.9794,476.645c-.3098-2.785-2.765-5.3055-5.7661-5.3358-2.529-.0255-4.655,1.7253-5.5079,3.8727-.9455,2.3803-.2614,5.0835,1.463,6.7128.3193.3016,1.6337,1.5079,3.5285,1.5491,3.1257.0679,6.6984-3.0595,6.2825-6.7988Z"/>
      <path class="cls-2" d="M237.0126,502.2224c-.8536-4.774-6.0842-7.255-9.6522-7.8261-.8662-.1387-7.0554-1.1293-10.174,3.1304-2.6754,3.6544-1.1705,8.5499.5217,11.2174.2773.4371,3.3931,5.1813,8.6088,5.2173,5.927.0409,11.7188-6.0178,10.6957-11.7391Z"/>
      <path class="cls-2" d="M173.8822,520.2224c-2.7947-1.5809-7.04-1.6273-8.6086.5217-2.0166,2.7627.5292,8.9636,4.9564,10.4348,2.5436.8452,6.2113.2964,7.5653-2.087,1.6338-2.8757-.8356-7.1286-3.9131-8.8695Z"/>
      <path class="cls-7" d="M481.0561,494.2659c-.6616-2.7004-3.777-3.8011-4.1088-3.913-3.2842-1.1071-8.0609.1325-9.1957,3.7173-1.1665,3.6853,2.0922,8.0291,5.8696,8.4131,4.3926.4465,8.3263-4.5792,7.4348-8.2174Z"/>
      <path class="cls-7" d="M463.0561,521.2659c-.7468-2.9974-6.1554-5.1408-10.5653-3.913-2.8627.7971-6.6589,3.3917-6.6521,7.2391.0052,2.9374,2.2256,5.6212,4.6957,6.4565,5.6544,1.9121,13.5797-5.5366,12.5217-9.7826Z"/>
      <path class="cls-7" d="M418.8387,501.505c-.9874-2.565-3.6104-5.0247-7.0435-4.8913-3.2897.1278-5.9269,2.5823-6.6522,5.4782-.9772,3.9016,1.7783,7.5578,4.8914,8.8044.5211.2087,3.2832,1.2432,5.8695-.1957,3.0377-1.69,4.2081-5.8882,2.9348-9.1956Z"/>
      <path class="cls-7" d="M380.6865,473.1355c.3389-2.9973-2.6152-5.8115-5.6738-5.674-3.361.1511-5.8878,3.8232-5.087,6.6522.5363,1.8945,2.4615,3.046,4.1088,3.326,2.7845.4735,6.3104-1.2818,6.6521-4.3043Z"/>
      <path class="cls-7" d="M396.6647,527.5268c.8036-2.4574-.364-5.3588-2.4783-6.913-2.7069-1.9899-5.8676-.9641-6.3912-.7827-3.4338,1.1898-6.3524,5.1843-5.2174,8.2174,1.0145,2.7112,4.7605,3.2991,5.3478,3.3913,2.8832.4525,7.5767-.3585,8.7391-3.913Z"/>
      <path class="cls-7" d="M342.9256,534.3094c-.2731-3.6531-4.7841-6.7416-8.8695-6.5217-3.4658.1865-5.6849,2.7032-6.5217,3.6522-1.0061,1.141-3.7007,4.1969-2.7391,7.5652.9509,3.3312,4.9164,5.002,7.9564,4.9565,3.6437-.0546,6.0312-2.5758,7.174-3.7826,1.3237-1.3979,3.1871-3.3658,3-5.8696Z"/>
      <path class="cls-7" d="M265.4473,551.2985c-.0292-2.9324-4.5299-4.4717-5.1847-4.6956-1.0718-.3666-2.6013-.8896-4.3044-.2935-2.3356.8175-4.2268,3.4699-3.7174,5.7717.2587,1.1689,1.0571,1.8894,1.5653,2.3478,1.7025,1.5361,4.2207,2.092,6.4565,1.5652,2.1112-.4974,5.209-2.2518,5.1847-4.6957Z"/>
      <path class="cls-7" d="M208.8387,533.3963c-1.8055-1.3776-4.3556-1.4333-6.1305-.3913-3.266,1.9174-4.0002,7.606-1.1738,9.913,2.2476,1.8345,6.5254,1.3499,8.4783-1.5652,1.6752-2.5005,1.2052-6.1412-1.174-7.9565Z"/>
      <path class="cls-7" d="M563.4256,278.2659c-2.4447-2.6526-7.6233-2.0131-10.3695.7826-1.8328,1.8658-2.8552,4.9701-1.7609,7.8261.8613,2.2477,3.115,4.5536,5.8695,4.5,2.5452-.0495,4.2026-2.0878,4.8914-2.9348,1.9341-2.3783,3.9885-7.3322,1.3695-10.1739Z"/>
      <path class="cls-7" d="M441.143,237.7007c-1.3357-2.1714-4.2987-2.1049-5.8695-1.6956-2.4071.6272-4.9984,2.9594-4.5653,5.3478.4431,2.4435,3.7567,3.3196,4.0435,3.3913.6793.1699,3.4059.7263,5.3479-1.1739,1.4406-1.4096,2.224-3.9504,1.0435-5.8696Z"/>
      <path class="cls-7" d="M380.8822,278.2659c1.241-1.1681,1.694-3.2198.9131-4.5652-1.3462-2.3193-6.181-2.2318-7.5653.1304-.6698,1.143-.4723,2.7173.2609,3.7826,1.3397,1.9467,4.5806,2.3568,6.3914.6522Z"/>
      <path class="cls-7" d="M360.5344,366.7007c2.2496-.4054,3.8088-3.5293,2.7391-5.8696-.8649-1.8921-3.3625-3.0844-5.2827-2.1522-2.074,1.0069-2.4247,3.9828-1.3695,5.8696.7263,1.2987,2.3188,2.4395,3.9131,2.1522Z"/>
      <path class="cls-7" d="M353.2952,417.3746c.425-.3117,2.4348-1.8807,2.1521-3.913-.311-2.2366-3.229-3.8137-5.4783-3.3261-3.1974.6931-4.8317,5.5121-3.326,7.4348,1.2238,1.5626,4.5985,1.3104,6.6522-.1957Z"/>
      <path class="cls-7" d="M528.9256,211.6137c-2.5133-3.0467-7.571-2.6089-9.6521-.2609-2.8737,3.2423-.2743,10.356,3.6521,11.2174,2.1536.4725,4.3378-1.0167,5.4783-2.3478,1.8934-2.21,2.6558-6.0218.5217-8.6087Z"/>
      <path class="cls-7" d="M502.8387,139.3528c-1.502-2.1988-6.1929-2.678-8.8696-.2609-1.3757,1.2423-2.4399,3.4488-1.826,5.7391.6985,2.6056,3.2915,4.2855,5.4783,4.1739,4.1063-.2096,7.1945-6.7578,5.2174-9.6522Z"/>
      <path class="cls-1" d="M526.8387,456.7006c1.9521-4.5299-.0245-10.2859-4.1088-12.913-3.0986-1.9932-6.3801-1.5228-7.2391-1.3696-4.9773.8875-9.6429,5.5684-9.3912,10.9565.1381,2.9547,1.739,5.7863,4.1086,7.4348,4.9861,3.4688,13.954,2.1021,16.6305-4.1087Z"/>
      <path class="cls-1" d="M522.7299,498.3746c1.8568-2.4911.1908-6.884-2.7391-8.4131-.1151-.0601-2.8358-1.4269-5.0869,0-2.4507,1.5533-3.0128,5.5734-1.174,8.0218,2.1649,2.8824,7.136,2.892,9,.3913Z"/>
      <path class="cls-1" d="M459.6647,556.7442c2.4082.5034,5.6649-1.1768,6.2609-3.7827.605-2.6456-1.8418-4.8934-2.4783-5.4782-.5316-.4884-2.2203-2.0399-4.6957-1.9565-.6895.0232-2.0555.0692-2.8695.913-2.0972,2.1742-.3347,9.4437,3.7826,10.3044Z"/>
      <path class="cls-1" d="M412.4473,478.2224c-.6423-1.1236-2.2915-1.8739-3.6521-1.174-1.3586.699-1.6361,2.436-1.174,3.6522.4485,1.1803,1.6931,2.132,2.8695,1.9565,1.6885-.2518,2.9049-2.7759,1.9565-4.4348Z"/>
      <path class="cls-1" d="M372.8604,416.005c1.8384-2.4883-.1472-7.3269-2.9348-7.8261-1.8923-.3389-3.8202,1.3819-4.6957,2.9348-.1602.2841-1.5481,2.826-.3912,4.6956,1.4589,2.3578,6.2844,2.5471,8.0217.1957Z"/>
      <path class="cls-1" d="M412.1865,270.8311c-3.1416-1.2502-7.2081,3.5414-8.0217,4.5-1.4069,1.6577-4.5579,5.3706-3.1304,8.2174,1.1196,2.2328,4.451,2.7263,6.4564,2.5435,3.1146-.284,4.9945-2.3784,5.4783-2.9348,2.8679-3.298,2.0482-7.4042,1.9565-7.8261-.2374-1.0917-.8116-3.733-2.7391-4.5Z"/>
      <path class="cls-1" d="M576.7299,327.7659c-1.2269-1.9927-3.8787-2.291-5.6738-1.7609-2.3932.7068-4.2269,3.1706-3.9131,5.6739.0195.1556.347,2.4643,2.3478,3.5218,2.1783,1.1513,4.8513.0325,6.2609-1.5652,1.1403-1.2925,2.2511-3.8023.9783-5.8696Z"/>
      <path class="cls-1" d="M588.8604,283.7441c.9905-2.0142,1.0306-5.2938-1.174-6.8478-2.1471-1.5135-5.0947-.4538-6.6521.9782-2.3982,2.2052-2.911,6.5909-.7827,8.4131,1.6083,1.3769,4.2197.8577,5.674.1956.4781-.2177,2.0636-.9675,2.9348-2.7391Z"/>
      <path class="cls-1" d="M579.3713,249.7985c-.469-1.2658-1.9147-1.8735-2.9348-1.5652-1.6359.4944-2.2551,3.368-1.076,4.5.6421.6165,1.743.6449,2.5435.2935,1.1444-.5024,1.9575-1.9055,1.4674-3.2283Z"/>
      <path class="cls-1" d="M530.2626,189.2441c-1.0197-.6139-2.6622-.0626-3.2283,1.1739-.4834,1.0559-.0378,2.2971.7826,2.9348.0905.0703,1.1241.8481,2.1521.3913.9722-.432,1.1277-1.6075,1.174-1.9565.0253-.1906.2244-1.8784-.8804-2.5435Z"/>
      <path class="cls-1" d="M522.5344,166.6463c-.3973-.6657-1.29-1.2251-1.9565-.9783-.6073.2249-.7604,1.0203-.9783,2.1522-.1967,1.0213-.3358,1.7442.0978,2.1522.4626.4352,1.3339.2829,1.8588,0,1.0789-.5813,1.6375-2.2217.9783-3.3261Z"/>
      <path class="cls-6" d="M342.2022,282.1872c-11.0901,28.55,2.02,60.28,2.5599,90.9.64,36.05-17.88,72.01-47.92,91.94-11.3,7.49-24.1,12.58-37.3999,15.18-22.0701,4.3-45.5,1.73-65.6901-8.18-24.42-12-43.13-33.35-57.2999-56.57-16.9102-27.72-25.8401-57.01-27.0601-85.75,3.61,13.22,9.53,32.03,22.23,51.47,8.04,12.31,20.53,30.92,44.61,43.05,7.1901,3.61,32.36,15.82,64.5599,9,5.1101-1.09,31.03-7.02,52.05-30.53,6.17-6.9,21.4301-24.46,23.47-50.47.6401-8.16,1.54-19.58-4.2999-31.31-3.25-6.52-10.3199-16.62-17.2201-25.04-5.7799-7.06-9.3999-10.44-8.6099-14.87.4199-2.36,2.2-5.63,12.53-10.57,12.5999-6.03,19.3899-5.68,26.5999-8.21,14.4701-5.09,21.8801-18.69,28.9601-31.7,6.0199-11.05,15.7999-29.02,11.74-48.13-4.48-21.06-23.5699-33.14-32.92-40.26,2.6301.52,5.24,1.19,7.8,2.05,16.75,5.61,30.52,19.21,36.8301,35.72,6.2999,16.51,5.1699,35.59-2.5601,51.48-8.8701,18.2-25.63,31.93-32.96,50.8Z"/>
      <path class="cls-5" d="M307.9989,153.1364c-2.0332-2.7597-9.9231,1.7538-28.7839,7.196-19.1788,5.5339-23.0596,4.3406-37.2497,10.159-15.7763,6.4688-19.9119,11.6064-22.0111,15.2385-1.148,1.9863-5.891,10.1929-2.5397,18.2015,4.0808,9.752,16.8307,11.2461,18.6249,11.4289,9.6768.9857,17.1932-3.9303,24.1276-8.4658,4.9854-3.2607,5.0522-4.2526,17.7783-16.0851,12.1909-11.3349,14.4404-12.5732,19.4714-18.6248,4.288-5.1579,13.0505-15.6979,10.5823-19.0481Z"/>
      <path class="cls-5" d="M177.7952,213.7007c-5.0508.0397-8.8997,1.8294-10.4348,2.6087-25.576,12.9828-35.2174,39.3912-35.2174,39.3913-.7649,2.095-8.8135,24.5665-2.6086,28.4348,4.9346,3.0764,18.2708-5.9959,25.5652-16.9565,5.9628-8.9597,3.3776-12.403,11.7391-25.8261,4.4534-7.1491,6.7405-10.8208,11.2174-15.1304,5.2811-5.0838,9.7692-7.3587,9.1304-9.6522-.8018-2.8783-8.8673-2.8737-9.3912-2.8696Z"/>
      <path class="cls-5" d="M126.143,309.7007c-3.7247.3738-5.7744,10.2359-6,16.1739-.1517,3.9948-.4277,11.2584,4.6957,16.4348,3.5067,3.5429,9.7941,6.362,12.7826,4.1739,3.3457-2.4496,1.2389-10.2103-.5217-16.6956-.5287-1.9474-5.7062-20.6138-10.9565-20.0869Z"/>
      <path class="cls-9" d="M51.4768,343.3887c-2.3059-1.5161-8.2759.9107-10.2128,5.5261-.3271.7795-1.377,3.6178,0,6.5847,1.3618,2.9341,4.5514,4.8182,8.1702,4.802,3.6174-8.4973,4.5281-15.2786,2.0426-16.9127Z"/>
      <path class="cls-9" d="M73.7195,422.8991c2.0845-4.0586.2148-8.2475,0-8.7089-1.5834-3.4-5.2823-6.4037-9.4431-6.0544-5.3662.4504-8.7236,6.2451-8.7145,11.0541.0012.6247.0874,5.613,3.8461,8.0737,4.5034,2.9482,11.7542.6147,14.3115-4.3644Z"/>
      <path class="cls-9" d="M112.3009,142.4281c-2.4479-2.4165-2.105-7.0255,0-9.9228,2.293-3.1561,7.2688-5.0956,10.6765-2.6856,3.1412,2.2216,3.3832,7.031,1.5961,10.0824-2.4808,4.2359-9.1683,5.5905-12.2726,2.526Z"/>
      <path class="cls-9" d="M82.8691,183.8945c-2.1069-2.1849-9.6294-.885-11.4775,3.9762-1.0449,2.7484-.0874,6.1389,2.3279,8.6808.5974.1281,4.1061.8244,6.6935-1.3617,1.5223-1.2862,1.9904-2.9488,2.4562-4.6038.5084-1.8061,1.458-5.1796,0-6.6916Z"/>
      <path class="cls-9" d="M42.4554,215.4452c-1.2183-.8793-3.0231-.6578-4.2552,0-2.0354,1.0866-2.3462,3.2772-2.3831,3.5745-.2164,1.7426.5013,4.0793,2.3831,4.7943,1.3656.5189,2.8477-.0051,3.7446-.7092,2.2615-1.775,2.6317-6.1286.5106-7.6596Z"/>
      <path class="cls-9" d="M143.1364,90.8494c-1.3199-.5255-3.3096.593-4.275,2.0615-1.2544,1.9081-.7324,4.3351.4452,5.8534,1.8513,2.3869,4.9492,2.0466,5.1064,2.0266,1.2174-5.2463.5607-9.21-1.2766-9.9415Z"/>
      <path class="cls-9" d="M180.733,60.381c-2.792.1084-5.2014,1.4456-6.1924,3.5874-.1602.3464-1.2002,2.5939,0,4.3125,1.033,1.4792,3.3564,2.0382,5.6169,1.1217.3931.0516,3.4436.4178,4.5027-1.1217,1.1143-1.6197-.0273-5.2739-3.9272-7.9Z"/>
      <path class="cls-9" d="M224.705,48.4665c-2.1021-.8216-4.6382.2706-5.9941,2.0425-1.2563,1.6418-1.6875,4.1121-.5107,6.1277.0947.1622,1.5544,2.5659,4.3308,2.5949,1.9885.0208,3.5632-1.1879,4.3481-2.438,1.6716-2.6626.7969-7.1659-2.1741-8.3271Z"/>
      <path class="cls-9" d="M286.1151,36.4665c-1.6531-.8068-3.6318-.6202-5.1064.2553-2.5237,1.4985-3.6628,5.0702-2.2979,7.4043,1.0496,1.7947,3.1838,2.1809,3.8298,2.2979,1.7166.3106,4.697.134,6.0996-2.0425,1.6423-2.5485.2859-6.5429-2.5251-7.9149Z"/>
      <path class="cls-9" d="M258.0299,69.2809c.5854-2.8174-.437-6.6216-3.3191-7.9-3.9048-1.7321-7.9509,2.6238-8.4255,3.1493-.4971.5504-3.9536,4.5022-2.2979,7.9149,1.2068,2.4872,4.3037,2.9873,4.8511,3.0638,3.7703.5268,8.3201-2.0338,9.1914-6.2281Z"/>
    </g>
  </g>
</svg>