<?xml version="1.0" encoding="UTF-8"?>
<svg id="Capa_2" xmlns="http://www.w3.org/2000/svg" viewBox="0 0 601.9166 638.7107">
  <defs>
    <style>
      .cls-1 {
        fill: #70569b;
      }

      .cls-2 {
        fill: #5f488c;
      }

      .cls-3 {
        fill: #9570c2;
      }

      .cls-4 {
        fill: #b29ad8;
      }

      .cls-5 {
        fill: #604593;
      }

      .cls-6 {
        fill: #47327c;
      }

      .cls-7 {
        fill: #a486ce;
      }

      .cls-8 {
        fill: #735aaf;
      }

      .cls-9 {
        fill: #8566b2;
      }
    </style>
  </defs>
  <g id="Capa_1-2" data-name="Capa_1">
    <g>
      <g>
        <path class="cls-3" d="M307.6817,634.7034c-7.2959.0005-14.5156-4.1169-21.459-12.2383l-.1172-.1438c-11.1143-14.2888-17.46-16.4224-20.2529-16.4224-.4395,0-.8525.0481-1.2617.147-2.0098.4854-4.9795,1.7017-8.4189,3.1101-7.9316,3.2483-17.8037,7.2913-27.249,7.2922-11.3916.0012-19.5332-6.166-23.5439-17.8347-.9668-2.8123-1.7217-6.0051-2.2432-9.4893-.2227-1.5203-.3916-2.9294-.5186-4.3206-.7588-8.2258-9.9883-11.167-17.5977-12.1848-.3291-.0439-.5693-.0786-.709-.1035l-.5547-.0996-.5059-.2488c-2.1338-1.0496-5.5352-2.3005-9.624-2.3005-1.1631,0-2.3301.1038-3.4678.3086-2.084.3765-6.3779,1.1521-9.0088,4.3105-.0234.1694-.043.4463-.0586.6614-.0537.7539-.127,1.7864-.4883,2.9417-.1641.5476-.3945,1.0994-.6904,1.6394-.6797,1.2522-1.6553,2.377-2.9736,3.4226-3.5332,2.8-7.9189,4.2795-12.6836,4.2795-10.2734,0-19.083-6.6829-20.0576-15.2146-.1699-1.4436-.1152-2.9272.165-4.3955.2295-1.1985.6387-2.2107,1-3.104.3018-.7468.5625-1.3918.6045-1.8745.167-1.8474-.0752-3.8967-.7002-5.9373-.251-.8608-.5586-1.6814-.9307-2.4922-.4775-1.062-1.0498-2.0608-1.667-2.9163-3.8887-5.3896-10.6123-7.093-17.1143-8.7402-2.7109-.6836-4.5889-.9001-6.2461-1.0911-2.5703-.2964-4.999-.5764-8.6104-2.3438-2.7686-1.3403-10.1592-4.9194-13.2725-12.593-1.8516-4.5632-1.1094-7.9902-.4551-11.0139.5547-2.5669,1.0801-4.9915.251-8.8264-.877-4.0664-2.8799-7.8643-5.9551-11.2896-2.3291-2.6072-4.7139-5.2749-8.4336-6.1831-.0117.0027-.0244.0054-.0381.0083-1.2344.2715-3.5322.7766-6.3633.7769-3.6631,0-7.0801-.8418-10.1562-2.5022-5.3721-2.9041-8.6592-7.759-9.5098-14.0417-.8496-6.2737,1.0146-13.002,3.2188-15.1165,2.082-1.9912,5.5596-5.3159,6.1826-9.9434.8896-6.6145-4.6104-12.873-6.418-14.9297-1.5947-1.825-2.8721-2.8037-4-3.6672-1.6641-1.2754-3.3857-2.5945-4.5586-5.4048-2.7822-6.6482.3164-11.97,2.8066-16.2463.8232-1.4133,1.6006-2.7485,2.1436-4.0496,3.5361-8.5181-11.3047-23.2627-17.6426-29.5588-1.3369-1.3289-2.3926-2.3782-3.168-3.2258-10.9531-11.9912-13.4219-20.9985-9.7812-35.6963,1.9619-7.8884,9.1973-13.7344,13.9844-17.6028.6602-.533,1.4473-1.1692,2.1006-1.7268-2.9893-4.6394-7.6895-12.5869-9.0801-18.6504-1.8105-7.8025,2.5469-13.1074,6.0479-17.3701,1.499-1.825,3.1104-3.51,4.667-5.1396,2.4121-2.5227,4.6895-4.9055,6.3936-7.5996,8.7783-13.8352,1.5723-25.9172-7.5215-36.9133-3.5332-4.2751-4.8252-8.7383-3.8408-13.2664,2.2637-10.4109,16.1211-17.1387,23.5654-20.7532,1.2773-.6199,2.4824-1.2053,2.9307-1.4866,6.0527-3.8071,9.7227-11.0161,8.9248-17.5305-.1455-1.1714-.4102-2.4082-.6895-3.7178-.7578-3.5425-1.6162-7.5576-.2734-11.6804,1.7031-5.2883,7.0898-9.1362,12.8047-9.1362.9834,0,1.958.1152,2.8975.342,2.1582.5144,3.9844,1.5278,5.5967,2.4221,1.2471.6919,2.4248,1.3455,3.5029,1.6172.4561.116.9092.1741,1.3506.1741,4.7324,0,8.9971-6.4971,9.8643-12.3279.4033-2.7107-1.1123-6.8931-2.5781-10.9375-2.3369-6.45-4.7539-13.1196-1.7939-18.8201,3.1855-6.1189,10.3848-8.9663,17.3467-11.72,5.7207-2.2627,11.6357-4.6025,13.2734-8.1953l.5137-1.1182c2.9316-6.3713,3.1484-7.1602.0098-9.824-3.2617-2.7705-3.9365-7.8862-1.8057-13.6858,2.3291-6.3396,7.7588-12.7366,14.6406-12.7366,2.377,0,4.6416.7742,6.7314,2.301.7227.5281,1.3887,1.0266,2.0117,1.4937,3.5566,2.665,4.7822,3.5081,6.8848,3.5081,1.0605,0,2.3936-.2229,4.0752-.6816,2.3252-.6355,2.9521-2.1951,3.8975-7.229.7539-4.0125,1.6914-9.0059,6.0625-12.0601,4.6855-3.2783,6.5068-8.1143,4.751-12.6194-1.3584-3.4758-.9219-7.1262,1.2285-10.2761,2.9189-4.2742,8.5889-7.0361,14.4453-7.0361,6.1592,0,11.2314,3.0466,13.916,8.3589.5332,1.0513.8545,2.2168,1.166,3.3438.5205,1.8843,1.0117,3.6643,2.2881,4.6902,1.2139.9727,2.7871,1.3887,5.2588,1.3887,1.4395,0,3.0068-.1392,4.666-.2864,2.8389-.2549,4.6211-.7798,7.5732-1.6492,1.5703-.4624,3.5234-1.0378,6.0508-1.6897,4.7227-1.2144,7.6855-1.9038,11.7529-2.5388,4.1318-.6436,6.793-1.0378,9.3389-1.0378,1.793,0,3.3936.2004,5.0352.6309,3.1172.821,4.6768,1.9705,5.9297,2.8938.9238.6807,1.5342,1.1304,3.0254,1.5652,1.2783.3696,2.707.5662,4.126.5662,1.9365,0,4.8281-.3628,7.6045-2.0911l.2979-.1814c4.8564-2.9426,6.4971-5.3381,5.9668-6.3184-3.7461-6.9258-2.6533-11.5312-1.0771-14.1753,2.0068-3.366,5.8291-5.2964,10.4883-5.2964,5.9736,0,13.5332,3.4004,16.9561,10.9973l.0391.0862c.792,1.75,2.8945,6.3984,6.6123,7.5815,1.3096.4138,2.3174,1.1936,3.2051,1.8816,1.4131,1.0938,2.6328,2.0383,5.3535,2.0383,1.1758,0,2.5332-.1863,4.0332-.5537,6.7012-1.6355,7.5645-2.9324,8.3262-4.0764.2393-.3599.5107-.7678.8613-1.2014,3.5742-4.4399,7.5781-6.6948,11.8965-6.6948,11.4502,0,18.6729,16.0928,18.7422,16.2554,1.0469,2.4495,4.9961,4.3091,10.5684,4.9797,1.0879.1333,2.0996.2571,2.9375.2571.8174,0,1.168-.1228,1.2471-.1956.165-.1545.2773-.6418.4756-1.6394.375-1.8906.9414-4.7478,3.5439-7.8621,3.1514-3.7737,7.4258-5.8528,12.0361-5.8528,5.8086,0,11.5918,3.2542,14.7344,8.2903,2.5537,4.0928,2.8936,8.7375.9336,12.7437-.9258,1.8955-.6064,5.6409,1.335,7.9792,1.374,1.6604,3.5439,2.1072,8.7559,3.0454,2.5879.4661,5.2363.7024,7.874.7024,1.582,0,3.1836-.0852,4.7607-.2532,4.2246-.4387,6.5479-.8765,8.415-1.2283.9727-.1831,1.8193-.3411,2.7012-.4653,1.4268-.2,2.8359-.2891,4.5693-.2891l.4121-.001c8.0254,0,14.7256,1.9221,19.9121,5.7131,3.9873,2.9124,5.3018,5.6719,6.9658,9.1658,1.3799,2.8982,3.0977,6.5051,7.1904,12.1326,2.4854,3.4158,6.2559,8.1086,10.0928,11.0608,4.0889,3.1685,7.3105,5.6646,11.5449,6.0667,1.0469.0979,1.9971.1477,2.8203.1477,2.9717,0,3.8018-.5466,5.4551-1.6357.2617-.1719.5273-.3472.8057-.5237.7402-.4856,1.4658-.9021,2.2393-1.2832,4.3516-2.123,8.4072-3.1807,12.1299-3.1807,6.9512,0,12.5918,3.6138,15.8828,10.1753,4.3877,8.7473,3.5889,21.2776-1.8193,28.5259-1.4531,1.9597-3.1992,3.4849-5.1826,4.5237-1.5869.8293-1.7842,4.9722,2.874,13.9238l.0244.0466c.084.1484.1445.2749.1836.3606.0586.1123.1104.2219.1572.3301,1.2002,2.5049,2.1602,3.4731,3.3721,4.696,1.3086,1.3198,2.9365,2.9622,4.666,6.2092,5.123,9.6233,3.9609,19.3315,3.1113,26.4202-.6562,5.4707-1.2373,10.3081-2.6289,14.5173.2285.2932.4609.585.6973.8743.1523.1858.3203.3789.4961.5811.5195.6187,1.0625,1.2212,1.7129,1.9006,7.1113,7.3916,12.6455,13.0298,17.0918,17.5603,12.7432,12.9849,17.0361,17.3591,25.5391,29.3296,2.0303,2.8582,3.6387,7.1445,4.6299,10.2373,3.043,9.4717,4.752,21.2251,4.7441,32.4985l1.5957,1.6245-1.6475,1.6956c-.2998,9.7039-1.8408,18.917-4.585,27.4072-1.8438,5.7063-6.7393,20.8657-21.2646,25.5881-2.7441.8916-5.6621,1.3438-8.6748,1.3438-8.1045,0-16.166-3.2585-21.5645-8.7168-3.748-3.8069-4.8369-7.3176-7.0068-14.3123-.5742-1.8499-1.2402-4-2.0713-6.5398-2.1787-6.6587-6.1924-18.9285-9.7539-25.8406-6.0654-11.7749-17.9355-21.9497-30.2393-25.9216-4.1621-1.345-8.5039-2.0269-12.9062-2.0269-13.4287,0-25.9893,6.1882-37.0713,11.6479-25.1895,12.4045-39.9531,31.3589-46.5107,41.5535-16.8994,26.2891-18.6934,52.0293-18.5732,69.1035l-.0039.2073c-.0049.1182-.0049.2412,0,.3542l.0039.1484c.0195,2.012.0586,3.8762.1084,5.5725.5234,19.6892,1.2402,46.6414,19.7119,62.7888,5.8721,5.1333,13.8877,9.5139,23.8232,13.02,6.5586,2.3098,13.3193,4.6907,20.3701,4.6907,2.7295,0,5.3232-.3438,7.9297-1.051,5.8574-1.582,9.793-4.4858,16.3125-9.2964,5.6211-4.1641,11.2695-9.5635,16.3555-15.6309,4.1836-4.99,6.4307-8.5779,8.4141-11.7432,2.6289-4.198,4.9004-7.8235,10.2324-12.5117,5.9219-5.2092,11.0205-9.6951,18.0586-9.6951.1875,0,.377.0032.5664.0098,13.6172.4492,22.6445,17.0193,25.3887,28.0471.8965,3.6279,1.2441,7.0935,1.0957,10.9131-.2637,6.1089-1.7568,12.4922-4.1709,22.4031-1.7422,7.1772-4.376,18.0283-9.7666,29.3271-6.9092,14.4893-21.2422,35.3276-50.2832,52.3137-.3955.2327-.8125.4587-1.2275.6729-.7295.376-1.4932.7139-2.332,1.03-.2432.1052-.4932.2004-.7559.2881-.1797.0745-.3643.1396-.5557.1963-.2588.094-.5127.179-.7812.2568-.1426.0459-.292.0901-.4424.1299-.2344.0745-.4775.1443-.7178.2126l-.1299.0371c-1.0576.2886-2.0791.5291-3.083.7278l-.2549.0508c-.2568.0515-.5176.103-.7793.1458-.8057.1538-1.6338.2886-2.502.4229-.7178.1128-1.4658.2168-2.2354.321l-.1143.0154-.1152.0088-.1953.0291c-.6455.0833-1.3057.1621-1.9795.2422l-.9307.1116-5.7021.6262c-2.876.3088-6.252.6799-9.9453,1.177-.498.0645-.9756.1323-1.4629.2012l-.3926.0554c-.6816.0906-1.3291.1858-1.9961.2905-2.1396.3159-4.3965.6831-6.7461,1.0977l-2.0439.3838c-.6504.124-1.3193.2522-2.0078.3896l-.9473-3.8989.7998,3.9268-.1426.0386-.0605.0076c-.6924.1348-1.4053.2793-2.1162.4331l-.1328.0264c-.1318.0239-.2627.0535-.3975.083l-2.7002.5945c-.8389.1877-1.6475.3801-2.4668.5745l-.3965.0942c-2.4326.5803-5.0869,1.269-8.1084,2.1035-.1348.0364-.2822.0786-.457.1345l-.1523.0454c-.2373.0654-.4746.1299-.7041.2034l-.1562.0466c-.1943.0537-.3896.1038-.5771.1707l-.1934.0637c-1.7861.5378-3.4209,1.1011-4.998,1.7217-.7793.304-1.5654.6216-2.3516.9683-1.4346.6333-2.8262,1.311-4.2529,2.0703-.2188.1147-.9844.5254-1.1494.6162-.3887.2102-.7324.4004-1.0674.5896-.084.0503-1.5977.9082-1.5977.9082l-.0898.0593-.1182.0615c-.5068.2922-1.6113.9172-1.6113.9172l-.1279.0676c-.0596.0332-.1191.0642-.1797.1025l-.0986.0613-1.4238.7871c-.5498.3135-1.1729.6516-1.8271,1-1.9434,1.0303-3.8232,1.9534-5.752,2.8242-3.7793,1.7061-7.7168,3.0574-11.5254,4.3643-1.2441.4272-2.4873.8538-3.7217,1.2915-.0938.0332-.1885.0632-.2812.0974-.0762.1274-.3164.5569-.3164.5569-3.8066,6.8074-9.7285,12.4229-16.6729,15.8098l-.9111.4441c-5.6055,2.7314-10.9004,5.3115-15.8398,8.7793-.8945.6274-1.7773,1.269-2.6504,1.9229-4.5684,3.4163-7.9453,6.4644-10.6602,8.9133-5.4297,4.8994-9.3525,8.4395-16.0469,8.6143-.165.0044-.3291.0063-.4912.0063Z"/>
        <path class="cls-4" d="M281.8756,8.0146c4.8928,0,10.7114,2.8845,13.303,8.6365.9102,2.01,3.5901,8.0901,9.0901,9.8401,2.0449.6465,3.835,4.1086,9.7734,4.1086,1.4092,0,3.0515-.1951,4.9866-.6687,9.71-2.3701,9.8301-4.77,11.3501-6.6501,3.0398-3.7766,6.0178-5.2075,8.78-5.2075,8.2603,0,14.6101,12.7783,15.0598,13.8276,2.5801,6.04,11.8701,7.1499,13.78,7.3799,1.177.144,2.332.2847,3.4084.2847,1.5393,0,2.9182-.2876,3.9717-1.2646,2.47-2.3.7598-5.55,4.3699-9.8699,2.6184-3.136,5.8218-4.4153,8.9607-4.4153,7.9619,0,15.512,8.2292,12.0693,15.2651-1.6799,3.4402-1.03,8.8301,1.8501,12.3,2.3599,2.8501,5.6299,3.4399,11.1299,4.4299,3.0625.5515,5.9463.7659,8.5842.7659,1.8584,0,3.5945-.1064,5.1858-.2759,6.45-.6699,8.6899-1.3499,11.25-1.71,1.1399-.1599,2.3501-.25,4.01-.25.1248-.0005.2625-.001.4121-.001,3.0481,0,11.0657.2034,17.5479,4.9412,6.01,4.3899,4.1599,7.8799,13.28,20.4199,5.5601,7.6399,9.5,10.8101,10.8899,11.8799,4.4402,3.4402,8.24,6.3701,13.6101,6.8801,1.2148.1135,2.2708.1658,3.199.1658,4.7109,0,6.1387-1.3408,8.4109-2.7859.55-.3599,1.1501-.72,1.8601-1.0698l.0601-.03c3.9126-1.908,7.3403-2.7375,10.2996-2.7378,15.4194-.0012,18.1497,22.5151,10.8503,32.2976-1.0598,1.4302-2.3401,2.5901-3.8298,3.3701-7.0801,3.7-.3301,16.4199,1.25,19.46.0398.0601.0598.1201.0898.1799.03.0601.0601.1101.0801.1602s.04.0898.0601.1299c2.8298,5.96,5.0898,5.3801,8.1199,11.0701,4.53,8.51,3.47,17.3799,2.6702,24.0601-.7603,6.3298-1.3801,11.47-3.1702,15.6299.6599.9302,1.3601,1.8501,2.1101,2.77.1899.23.3799.45.5798.6799.5701.6802,1.1902,1.3601,1.8401,2.04,27.1699,28.24,30.98,30.5601,42.26,46.4402,1.3,1.8298,2.75,4.99,4.0801,9.1399,2.5898,8.0601,4.75,19.8501,4.5398,32.8999.0103.01.0103.02,0,.03-.1499,8.96-1.4099,18.5-4.4299,27.8401-1.6499,5.1099-6.1099,18.9199-18.6899,23.01-2.4055.7817-4.9219,1.1472-7.4355,1.1472-7.0686,0-14.1262-2.8875-18.7146-7.5273-3.8999-3.96-4.23-7.3899-8.1199-19.28-2.28-6.97-6.28-19.21-10-26.4299-6.29-12.21-18.6301-23.3999-32.5701-27.8999-4.8279-1.5601-9.5466-2.2205-14.1372-2.2207-14.3599-.0002-27.4766,6.4609-38.8428,12.0605-28.4099,13.99-43.51,35.8301-48.1099,42.9802-17.53,27.2698-19.3301,54.3298-19.21,71.2998-.0103.24-.0103.49,0,.72.02,2.04.0598,3.9302.1099,5.6501.53,19.9399,1.29,48.3899,21.0801,65.6899,9.45,8.26,21.5801,12.53,25.1499,13.79,6.8376,2.4077,13.9458,4.9109,21.6814,4.9109,2.8987,0,5.885-.3513,8.9788-1.1909,6.5898-1.78,11.0298-5.0601,17.6699-9.96,2.4299-1.8,9.3398-7.1001,17.02-16.26,9.8499-11.75,9.4399-16.1001,18.22-23.8201,5.5874-4.9146,9.8813-8.6975,15.4138-8.6975.1414,0,.2834.0024.4263.0076,10.6099.3501,18.97,14.28,21.6399,25.01.8201,3.3201,1.1101,6.4399.98,9.79-.25,5.79-1.78,12.25-4.0601,21.6099-1.6899,6.96-4.28,17.6301-9.49,28.55-14.3198,30.03-40.79,45.96-48.6899,50.5801-.3401.2-.6899.3899-1.04.5701-.6399.3298-1.3101.6199-2.01.8799-.22.1001-.4399.1799-.6699.25-.1201.0601-.24.1001-.3601.1299-.24.0901-.47.1702-.72.2402-.1199.0398-.25.0798-.3799.1099-.27.0901-.5601.1699-.8401.25-.8799.24-1.8.46-2.76.6499-.3101.0601-.6299.1301-.95.1802-.78.1499-1.5801.28-2.4199.4099-.7002.1101-1.4202.21-2.1602.3101-.1299.01-.26.03-.3999.05-.9302.1199-1.8901.23-2.8801.3499-1.1899.1301-2.4299.27-3.72.4102-.6299.0698-1.28.1399-1.9299.21-3.0701.3298-6.4099.7-10.05,1.1899-.6199.0801-1.24.1699-1.8799.26-.6802.0901-1.3601.1899-2.0601.3-2.1699.3201-4.4399.6899-6.8201,1.1099-.6899.1301-1.3799.26-2.0798.3901-.6802.1299-1.3601.26-2.0601.3999-.1101.02-.22.04-.3301.0701-.72.1399-1.46.29-2.2.45-.22.04-.4399.0901-.6702.1401-.6899.1499-1.3899.2998-2.1099.46-.1699.04-.3501.0798-.52.1199-.9399.21-1.8999.4399-2.8701.6702-2.6399.6299-5.3899,1.3499-8.25,2.1399-.1499.04-.3599.1001-.6099.1799-.29.0801-.5801.1602-.8599.25-.29.0801-.5801.1602-.8601.26-1.96.5901-3.71,1.2-5.3101,1.8301-.8201.3201-1.6599.6599-2.5,1.03-1.6299.72-3.1101,1.45-4.52,2.2-.21.1101-.4199.22-.6199.3301-.21.1099-.4102.22-.6101.3298-.3699.2002-.75.4102-1.1199.6201-.05.03-.1001.0601-.1602.0901-.3499.2-.6899.3899-1.04.5898-.1599.0901-.3098.1799-.47.27-.02.01-.03.02-.05.03-.52.3-1.0498.6001-1.5798.8999l-.0601.03c-.1599.0901-.3101.1702-.47.27-.22.1201-.45.25-.6799.3801-.2102.1099-.4202.23-.6401.3499-.5798.3301-1.1699.6501-1.79.98-1.6599.8801-3.4597,1.78-5.5195,2.71-4.8091,2.1714-9.9446,3.7605-14.937,5.5315-.5046.179-1.0188.363-1.4431.6897-.5889.4531-.948,1.1343-1.3105,1.7827-3.3979,6.0752-8.6726,11.1125-14.9333,14.1665-5.9822,2.918-11.8188,5.6992-17.2976,9.5454-.9265.6504-1.8423,1.3162-2.7488,1.9944-13.4099,10.03-16.3699,16.52-24.4099,16.73-.1292.0032-.2588.0049-.387.0049-7.6895,0-14.1245-5.8186-18.4131-10.835-11.2659-14.4849-18.6262-17.9695-23.416-17.9695-.8052,0-1.5376.0984-2.2039.2595-7.124,1.7205-21.9316,10.2898-34.7267,10.2898-8.3268,0-15.7994-3.6262-19.7535-15.1299-.8699-2.53-1.5698-5.4399-2.0698-8.78-.1902-1.2998-.3601-2.6599-.49-4.0898-1.3-14.0801-20.03-15.5901-21.5901-15.8701-1.9652-.9666-6.1199-2.7119-11.3926-2.7119-1.3274,0-2.7255.1106-4.1775.3721-2.3799.4299-7.99,1.4399-11.5499,5.8999-1.11,1.3899-.5599,2.97-1.12,4.76-.0901.3-.21.6001-.38.9099-.38.7-.9801,1.4402-1.9501,2.21-2.9908,2.3699-6.6094,3.4119-10.1935,3.4119-7.7283,0-15.2976-4.8438-16.0765-11.6619-.1199-1.0198-.0898-2.0898.1201-3.1899.35-1.8298,1.49-3.4399,1.6599-5.3799.22-2.4302-.1099-5.01-.8599-7.46-.3-1.03-.6802-2.03-1.1201-2.99-.58-1.29-1.28-2.51-2.0601-3.5901-4.74-6.5701-12.6299-8.5701-19.3799-10.28-7.14-1.8-8.95-.6399-14.0801-3.1499-2.54-1.23-8.7999-4.29-11.3199-10.5-2.75-6.78,2.0399-9.74,0-19.1802-1.51-7-5.48-11.5498-6.89-13.1199-2.6799-3-5.87-6.5801-11.3101-7.5801-.016-.0029-.0355-.0044-.0583-.0044-.5543-.0002-3.0814.856-6.4486.856-2.4514,0-5.3479-.4536-8.2531-2.0215-11.3398-6.1301-7.1399-21.0901-5.4199-22.74,2.27-2.1702,6.5701-6.29,7.38-12.3,1.13-8.3999-5.2001-15.6301-7.38-18.1101-4.0901-4.6799-6.48-4.6399-7.87-7.97-2.77-6.6199,2.59-11.55,4.9501-17.21,5.3298-12.8401-16.5801-31.5901-21.55-37.03-9.6001-10.51-12.3201-18.02-8.8501-32.03,2.6901-10.8198,18.51-18.03,16.9501-20.3599-3.27-4.8501-8.5599-13.51-9.9301-19.48-1.3099-5.6501,1.5601-9.45,5.24-13.9302,3.6801-4.48,8.25-8.24,11.3501-13.1399,10.1199-15.95,1.84-29.9299-7.8201-41.6101-13.05-15.7898,17.3101-26.7998,21.7-29.5598,7.0601-4.4402,11.8-13,10.77-21.4102-.5699-4.5898-2.5599-9.28-1.1299-13.6699,1.2067-3.7488,5.0955-6.3696,8.9935-6.3696.6564,0,1.3123.074,1.9564.2297,3.23.7698,5.85,3.22,9.0601,4.0298.7909.2007,1.5701.2957,2.3308.2957,7.089,0,12.7092-8.2229,13.8291-15.7456,1.24-8.3298-8.6599-21.03-4.78-28.5,5.0601-9.72,26.16-10.1199,30.71-20.0999,3.2001-7.01,5.3501-10.6702-.5299-15.6602-4.8618-4.1294,2.022-19.3596,10.2418-19.3596,1.4342,0,2.9078.4631,4.3682,1.5298,4.8655,3.5559,7.1195,5.7729,11.2607,5.7729,1.4253,0,3.0732-.2622,5.1293-.823,9.26-2.53,4.4601-15.1602,11.2001-19.8701,6.1899-4.3298,8.6299-11.0999,6.1899-17.3599-2.4868-6.3635,4.7688-11.8494,11.9397-11.8494,4.0752,0,8.1226,1.771,10.3403,6.1592,1.1399,2.25,1.21,6.6902,4.52,9.3501,2.2357,1.7925,4.8801,2.2722,7.7687,2.2722,1.6075,0,3.2906-.1484,5.0211-.3022,4.9001-.4399,7.02-1.5798,14.27-3.45,4.55-1.1699,7.4001-1.8401,11.3701-2.46,3.7827-.5891,6.4236-.99,8.7209-.99,1.4075,0,2.6855.1504,4.019.5,4.6301,1.22,4.3899,3.1299,8.8501,4.4299,1.6035.4639,3.3901.7263,5.2466.7263,3.2261,0,6.6641-.7922,9.7234-2.6963,1.3699-.8501,10.74-6.1399,7.6699-11.8101-4.8938-9.0488-.2268-13.5564,5.887-13.5564M281.8756,0c-6.0156,0-11.2231,2.7112-13.9297,7.2522-1.6155,2.7102-3.6167,8.321.1416,16.436-.6084.5952-1.7102,1.4971-3.6655,2.6819l-.3291.2012c-1.9827,1.2339-4.083,1.4917-5.4976,1.4917-1.0464,0-2.0906-.1421-3.0195-.4109-.7935-.2312-.959-.3533-1.7544-.9395-1.3652-1.0061-3.4285-2.5266-7.281-3.5415-1.9646-.5154-3.9441-.7644-6.0608-.7644-2.9849,0-6.0603.479-9.9542,1.0854-4.2322.6606-7.2839,1.3701-12.1327,2.6167-2.5992.6704-4.5892,1.2566-6.1882,1.7275-2.8992.8538-4.3544,1.2822-6.8027,1.5022-1.5605.1384-3.0419.2703-4.3043.2703-2.1184,0-2.5978-.3845-2.7552-.5107-.2896-.3127-.7052-1.8181-.9285-2.627-.3468-1.2561-.7399-2.6797-1.4556-4.0923-3.3378-6.6045-9.8773-10.5518-17.4897-10.5518-7.1415,0-14.1104,3.4478-17.754,8.7839-2.8782,4.2146-3.4796,9.3164-1.6505,13.9973,1.5781,4.0486-2.1414,7.0515-3.319,7.8752-5.7085,3.989-6.8606,10.1235-7.7019,14.6028-.2539,1.3525-.6279,3.3435-1.0109,4.1021-.002.0005-.0038.001-.0057.0015-1.6348.4458-2.5433.5396-3.017.5396-.7394,0-1.4099-.405-4.4838-2.7083-.6348-.4756-1.3127-.9834-2.048-1.5208-2.7533-2.0112-5.8984-3.0737-9.0973-3.0737-8.8134,0-15.5927,7.7153-18.4016,15.3618-2.7346,7.4436-1.6238,14.218,2.9716,18.1211.37.314.6179.5593.7789.7349-.2823.9895-1.1312,2.8342-1.8344,4.3616l-.5172,1.127c-.9694,2.1262-6.8264,4.4429-11.1029,6.1345-7.2893,2.8833-15.5511,6.1511-19.4252,13.5928-3.7745,7.2668-.9301,15.115,1.5796,22.0393,1.1127,3.0696,2.6364,7.2739,2.3822,8.9812-.7195,4.833-4.1368,8.9111-5.9017,8.9111-.1111,0-.229-.0161-.3606-.0496-.5807-.1465-1.5811-.7017-2.5485-1.2383-1.746-.969-3.9189-2.1746-6.6238-2.8191-1.2228-.2957-2.5143-.4482-3.8146-.4482-7.5264,0-14.3618,4.9053-16.6227,11.9285-1.6685,5.1218-.6472,9.8977.1732,13.7354.2611,1.2209.5077,2.3745.6323,3.3779.6044,4.9351-2.3739,10.6763-7.0834,13.6382-.3317.1985-1.5596.7947-2.5463,1.2737-8.057,3.9116-23.0544,11.1929-25.7316,23.5068-.8655,3.9812-.7584,10.1052,4.667,16.6694,11.2672,13.6235,13.2941,22.6538,7.2305,32.2104-1.4961,2.3647-3.6392,4.6069-5.9082,6.9807-1.609,1.6836-3.2728,3.4243-4.8677,5.366-3.6283,4.4172-9.1112,11.0928-6.8544,20.8274,1.2324,5.3704,4.6306,11.8,7.7115,16.8743-5.1871,4.2026-12.5106,10.4082-14.7019,19.2217-4.5051,18.1897.5159,28.2083,10.7104,39.3691.8403.9197,1.9266,1.999,3.3019,3.3655,3.6079,3.5845,9.0603,9.0015,12.8839,14.5503,3.2413,4.7039,4.6915,8.6802,3.8795,10.6365-.4355,1.0442-1.1479,2.2678-1.9025,3.5635-2.625,4.5083-6.5919,11.3215-3.0387,19.8127,1.5823,3.7908,4.0297,5.666,5.8168,7.0354,1.0734.8225,2.0874,1.5994,3.4119,3.115,1.5247,1.7344,6.1183,6.9604,5.4717,11.7673-.4362,3.2358-3.2777,5.9524-4.9753,7.5757-3.847,3.6902-5.2687,12.3289-4.4263,18.5542,1.0144,7.4954,5.1244,13.543,11.5732,17.0293,3.6729,1.9819,7.7301,2.9856,12.0643,2.9856,2.5759,0,4.783-.3657,6.231-.6589,1.9839.741,3.4946,2.3452,5.5948,4.6963,2.6299,2.9282,4.3184,6.1094,5.0469,9.4863.6462,2.9907.2701,4.729-.2506,7.1353-.6993,3.2322-1.6573,7.6589.6581,13.3674,3.694,9.103,12.3947,13.3164,15.2537,14.7009,4.2014,2.0557,7.0902,2.3887,9.8838,2.7107,1.6084.1855,3.2714.3774,5.7302.9973,5.7987,1.469,11.8041,2.9902,14.8395,7.1978.4628.6406.894,1.3958,1.2496,2.187l.0121.0266.0122.0266c.2913.6355.5304,1.272.7109,1.8918l.0153.0525.016.0522c.451,1.4731.646,2.9768.5529,4.2532-.0659.2026-.2231.5916-.3418.8853-.387.957-.9167,2.2681-1.2194,3.8499-.3574,1.8726-.4272,3.7664-.2079,5.6313,1.1991,10.4973,11.7584,18.7407,24.0363,18.7407,5.6772,0,10.9233-1.7791,15.171-5.145,1.7294-1.3723,3.079-2.9414,4.016-4.6672.4025-.7336.744-1.5459.9995-2.3857.3511-1.1365.499-2.1475.5778-2.9561,1.7988-1.4326,4.4604-1.9136,5.8474-2.1641.9056-.1631,1.8333-.2456,2.7592-.2456,3.3185,0,6.1034,1.0271,7.8552,1.8889l1.0118.4976,1.1097.1992c.1736.0312.474.0764.8855.1313,6.165.825,13.6226,2.9841,14.1399,8.5872.1313,1.4475.3085,2.9277.5403,4.5127.5615,3.7517,1.3748,7.1833,2.421,10.2263,4.6184,13.4363,14.0699,20.5386,27.3326,20.5386,10.2345,0,20.9474-4.3875,28.7694-7.5911,3.1509-1.2905,6.127-2.5093,7.8386-2.9226.1016-.0247.2029-.0356.3215-.0356.5659,0,5.8457.4175,17.0906,14.8752l.114.1465.1206.1409c7.7385,9.052,15.9832,13.6418,24.5046,13.6418.1963,0,.3945-.0024.592-.0076,8.179-.2136,13.0229-4.5845,18.6316-9.6453,2.7913-2.5188,5.9548-5.3735,10.3738-8.6787.8672-.6489,1.7261-1.272,2.5535-1.8528,4.6807-3.2859,9.8381-5.7988,15.2986-8.4592l.9077-.4424c7.4055-3.6123,13.7563-9.5149,17.9695-16.6814.8521-.2971,1.7073-.5906,2.5635-.8843,3.8962-1.3372,7.925-2.72,11.8755-4.5037,2.0073-.9062,3.9622-1.866,5.9761-2.9338.6826-.363,1.325-.7119,1.9558-1.0701l.1992-.1099c.0791-.0437.1562-.0874.2339-.1282l.1172-.0613.1152-.0652c.1943-.1099.3887-.2197.5745-.3213l.2065-.1128.1467-.0916.0286-.0161.0571-.0286.1968-.1099c.4766-.2695.9526-.5391,1.4224-.8088l.2324-.1157.2195-.1453c.0232-.0134.0461-.0266.0691-.04l.1431-.0825.5239-.2969.4302-.2441c.115-.062.2234-.1238.3301-.1863.3042-.1724.6155-.344.9189-.5083l.0208-.011.0408-.0225c.1475-.0811.2954-.1628.4504-.2441l.0742-.0388.0732-.0403c.1482-.0815.304-.1626.4595-.2439l.0212-.0112.0381-.0203c1.3433-.7144,2.6497-1.3503,3.9941-1.9443.6228-.2742,1.3167-.5598,2.1763-.8955,1.4932-.5879,3.0254-1.1155,4.7063-1.6216l.1929-.0581.1897-.0676c.0754-.0234.1873-.0518.2983-.0825l.1611-.0444.1592-.0513c.175-.0562.3574-.104.5388-.1541l.1555-.043.1538-.0491c.0989-.0317.1819-.0562.2412-.0718l.0312-.0085.0312-.0085c2.9751-.8218,5.584-1.4988,7.9763-2.0696l.3606-.0854c.8091-.1924,1.6099-.3828,2.3962-.5583l.0466-.0105.0466-.011.2073-.0476.2354-.0544c.5044-.1121.999-.219,1.4871-.3247l.5618-.1218.1423-.031c.0889-.0195.1748-.0398.261-.0559l.1138-.021.144-.0303c.6851-.1479,1.3699-.2869,2.0361-.4163l.2915-.0566.0764-.021.0042-.0007c.677-.1353,1.3347-.261,1.9927-.3867.6553-.1218,1.3367-.25,2.0188-.3787,2.2927-.4041,4.4951-.7622,6.5471-1.0649l.0381-.0054.0378-.0061c.6345-.0999,1.2507-.1904,1.8672-.2722l.0325-.0042.0325-.0046.3987-.0564c.47-.0664.9304-.1318,1.3909-.1914,3.6873-.4961,7.031-.8638,9.8789-1.1697.676-.073,1.3264-.1431,1.9568-.2129l2.1091-.2322,1.5991-.1768.0464-.0049.0461-.0056.9192-.1101c.6885-.082,1.3623-.1624,2.022-.2476l.0549-.0068.0547-.0081.0317-.0044.0793-.0063.229-.0308c.7983-.1082,1.5752-.2163,2.3306-.3352.7478-.1155,1.6494-.2595,2.5728-.4346.2905-.0486.5803-.105.866-.1626l.2117-.042c1.1267-.2229,2.2417-.4854,3.3438-.7859l.0474-.0129.0471-.0134.1248-.0356c.2463-.0701.4946-.1421.7371-.2175.1626-.0442.3284-.0933.4988-.1475.3379-.0994.637-.2004.8816-.2878.2241-.0701.4451-.1479.6619-.2332.3005-.103.5913-.2141.8767-.3352.948-.3608,1.823-.7495,2.6682-1.1853.5078-.2612.9773-.5188,1.4287-.7842,29.9048-17.489,44.7107-39.0413,51.8628-54.0398,5.5659-11.6658,8.2598-22.76,10.0425-30.1013,2.4722-10.1492,4.0015-16.6968,4.2805-23.1626.1648-4.2395-.219-8.0598-1.2063-12.0574-3.0413-12.2224-13.3123-30.5759-29.1562-31.0986-.2209-.0078-.4565-.0117-.6907-.0117-8.5493,0-14.4453,5.186-20.6875,10.6768-5.7898,5.0908-8.321,9.1321-11.0007,13.4109-2.0071,3.2043-4.0825,6.5178-8.0876,11.2954-4.8875,5.8296-10.2991,11.0059-15.6487,14.969-6.3635,4.6958-9.8625,7.2778-14.9893,8.6626-2.2683.6155-4.5188.9136-6.8887.9136-6.3655,0-12.5117-2.1643-19.0188-4.4556-9.4736-3.344-17.0498-7.468-22.5381-12.2651-17.1497-14.9919-17.8391-40.9297-18.3428-59.8684-.0535-1.8428-.0894-3.6919-.1074-5.5159l-.0012-.1399-.0063-.1401.0085-.2-.0007-.218c-.1172-16.5625,1.6147-41.5178,17.9373-66.9094,6.3325-9.8433,20.5896-28.1482,44.9089-40.1238,10.6909-5.2671,22.8071-11.2363,35.3018-11.2361,4.0396.0002,7.8577.5994,11.6731,1.8323,11.3494,3.6638,22.3037,13.0623,27.9097,23.9441,3.416,6.6299,7.3657,18.7046,9.4878,25.1914l.0195.0598c.8191,2.5042,1.4746,4.6169,2.053,6.4812,2.2874,7.374,3.5474,11.436,7.9741,15.9309,6.1458,6.2148,15.2722,9.9182,24.4248,9.9182,3.4336,0,6.7688-.5181,9.9126-1.5396,16.4734-5.356,22.0178-22.5271,23.8398-28.1697,2.6992-8.3481,4.2808-17.353,4.7122-26.811l.1055-.1023.0076-3.4045v-.5479c.0078-.7732.0078-1.5476,0-2.3252v-.5161l-.0063-.0063c-.1621-11.1355-1.9175-22.6101-4.9253-31.9712-1.0759-3.3572-2.8494-8.0535-5.1768-11.3298-8.6863-12.2285-13.3857-17.0166-25.9448-29.8135-4.4404-4.5244-9.9668-10.155-17.0732-17.5415-.5115-.5352-.9551-1.0229-1.3376-1.4714,1.0605-3.9866,1.5823-8.3286,2.1597-13.136.8606-7.189,2.1609-18.0483-3.553-28.782-2.0066-3.7678-3.9434-5.7217-5.3574-7.1482-1.1335-1.1433-1.7051-1.72-2.5854-3.5686-.0679-.1523-.1331-.2864-.1904-.3994-.0613-.1299-.1453-.2993-.2524-.4937l-.0002-.0002c-2.7314-5.249-3.3313-7.9707-3.4365-9.1714,2.0571-1.2744,3.8738-2.9683,5.417-5.0508,6.3257-8.4775,7.2673-22.5439,2.1746-32.6982-3.9478-7.8711-11.042-12.3857-19.4631-12.3857-4.3386.0005-8.9856,1.1943-13.8135,3.5488l-.0356.0173-.0356.0178-.0459.0229c-.8779.4326-1.7239.9167-2.6321,1.5088-.282.1797-.553.3579-.8186.5327-1.3682.9014-1.48.9751-3.2502.9751-.6995,0-1.5247-.0442-2.4526-.1309-2.9287-.2781-5.2539-1.9868-9.4478-5.2358-2.7605-2.125-5.9758-5.6675-9.3184-10.2605-3.8733-5.3254-5.5027-8.7468-6.812-11.4961-1.7561-3.6868-3.4146-7.1689-8.2209-10.6797-5.8857-4.302-13.3809-6.4839-22.2751-6.4839l-.4441.001c-1.8955,0-3.4756.1011-5.0913.3276-1.01.1421-1.9224.314-2.8884.4958-1.7944.3381-4.0278.759-8.0762,1.1794-1.4583.1553-2.9175.2329-4.3579.2329-2.3999,0-4.8098-.2148-7.1636-.6389-3.0271-.5449-5.8855-1.0593-6.3772-1.6536-.9202-1.1084-1.0767-3.0532-.8142-3.688,2.5708-5.2532,2.1577-11.3132-1.144-16.6042-3.8572-6.1819-10.9753-10.1763-18.1345-10.1763-5.8186,0-11.1858,2.5901-15.1128,7.2932-2.5674,3.072-3.5547,5.96-4.0667,8.0989-.1851-.022-.3718-.0449-.5574-.0676-6.0364-.7266-7.3752-2.5559-7.384-2.5737-.0835-.1948-8.1763-18.6931-22.4297-18.6931-3.8435,0-9.5701,1.4221-15.0232,8.1968-.4563.5645-.811,1.0972-1.0701,1.4863-.0916.1375-.2124.3188-.2759.4048-.1936.146-1.4126.9612-5.6614,1.9985-1.1946.2922-2.2312.4399-3.0862.4399-1.3511,0-1.6792-.2542-2.8999-1.1992-1.0381-.804-2.4597-1.905-4.4578-2.5366-.9062-.2886-2.3784-1.4656-4.1624-5.4102l-.0425-.0938c-4.1514-9.2146-13.3408-13.3455-20.604-13.3455h0Z"/>
      </g>
      <path class="cls-9" d="M589.4586,320.4011c-1.6499,5.11-6.1099,18.92-18.6899,23.01-9.1699,2.98-19.9299-.09-26.1501-6.38-3.8999-3.96-4.23-7.39-8.1199-19.28-2.28-6.97-6.28-19.21-10-26.43-6.29-12.21-18.6301-23.4-32.5701-27.9-19.9299-6.44-37.98,2.45-52.98,9.84-28.4099,13.99-43.51,35.83-48.1099,42.98-19.9202,31-19.53,61.72-19.1001,77.67.53,19.94,1.29,48.39,21.0801,65.69,9.45,8.26,21.5801,12.53,25.1499,13.79,9.3999,3.31,19.3101,6.8,30.6602,3.72,6.5898-1.78,11.0298-5.06,17.6699-9.96,2.4299-1.8,9.3398-7.1,17.02-16.26,9.8499-11.75,9.4399-16.1,18.22-23.82,5.73-5.04,10.0999-8.89,15.8401-8.69,10.6099.35,18.97,14.28,21.6399,25.01,2.25,9.07.51,16.63-3.0801,31.4-1.6899,6.96-4.28,17.63-9.49,28.55-14.3198,30.03-40.79,45.96-48.6899,50.58-.3401.2-.6899.39-1.04.57-.6399.33-1.3101.62-2.01.8799-.22.1-.4399.1801-.6699.25-.1201.0601-.24.1-.3601.13-.24.09-.47.17-.72.2401-.1199.04-.25.08-.3799.11-.27.09-.5601.17-.8401.25-.8799.24-1.8.46-2.76.65-.3101.06-.6299.13-.95.1801-.78.15-1.5801.28-2.4199.41-.7002.11-1.4202.21-2.1602.31-.1299.01-.26.03-.3999.05-.9302.12-1.8901.23-2.8801.35-1.1899.13-2.4299.27-3.72.41-.6299.07-1.27.14-1.9299.21-3.0701.33-6.4099.7-10.05,1.19-.6099.08-1.24.17-1.8799.2599-.6702.09-1.3601.19-2.0601.3-2.1699.32-4.4399.69-6.8201,1.11-.6799.13-1.3799.26-2.0798.39-.6802.13-1.3601.26-2.0601.4-.1101.02-.22.04-.3301.07-.72.14-1.45.29-2.2.45-.22.04-.4399.09-.6702.14-.6899.15-1.3899.3-2.1099.46-.1699.04-.3501.08-.52.12-.9399.21-1.8999.4301-2.8701.67-2.6399.63-5.3899,1.35-8.25,2.14-.1499.04-.3599.1-.6099.1801-.24.0699-.54.16-.8599.25-.29.09-.5801.17-.8601.2599-1.96.59-3.71,1.2-5.3101,1.83-.8201.32-1.6599.66-2.5,1.03-1.6299.72-3.1101,1.45-4.52,2.2-.21.11-.4199.22-.6199.33-.21.11-.4102.22-.6101.33-.3699.2-.75.41-1.1199.62-.05.03-.1001.06-.1602.09-.1299.0699-.26.15-.3999.22-.21.12-.4302.24-.6401.37-.1599.09-.3098.18-.47.27-.02.01-.03.02-.05.03-.2898.16-.5898.33-.8899.5-.23.13-.46.26-.6899.4-.02.01-.04.02-.0601.03-.1599.09-.3101.17-.47.27-.22.12-.45.25-.6799.38-.2102.11-.4202.23-.6401.35-.5798.33-1.1699.65-1.79.98-1.6599.88-3.46,1.78-5.5198,2.71-.4502.2-.9102.4-1.3801.6-.3401.15-.6899.3-1.04.44-.3999.17-.8.33-1.22.5-2.6799,1.07-5.77,2.17-9.4099,3.3-.6401.2-1.29.4-1.9602.6-.0498.01-.0999.03-.1499.04-.3999.12-.8101.24-1.23.37-1.8701.53-3.8799,1.08-6.04,1.63-52.49,13.46-55.8899,16.63-69.72,15.01-20.1199-2.36-35.73-11.73-51.75-21.33-19.74-11.84-28.9099-10.64-45.76-21.2-1.6099-1.01-3.1699-1.95-4.7-2.82-.1899-.12-.3899-.23-.5801-.33-.49-.29-.97-.55-1.4399-.81-.5701-.31-1.1301-.62-1.6899-.91-.4602-.25-.9102-.48-1.3601-.71-.3899-.2-.78-.39-1.1599-.58-.48-.2401-.95-.47-1.4202-.69-2.1599-1.04-6.7456,6.3962-8.7256,5.6162l-21.7021,7.2766c-10.7899-4.27-9.1801-4.0153-18-6.2553,6.4301-1.67,26.4678-20.2475,31.7378-21.9075,19.4399-6.12,38.27-13.87,60.6501-7.43,10.8499,3.13,14.3699,7.24,30.5198,10.96,14.5103,3.34,30.5303,7.02,43.04-.79,11.1201-6.93,6.9102-15.09,18-24.26,17.26-14.26,36.3801-1.9,46.1802-14.08,8.6199-10.73,1.9299-30.44-2.3501-43.05-6.55-19.27-12.99-18.98-16.4399-33.65-3.5901-15.29,1.78-22.52,7.05-50.87,4.97-26.76,1.3799-26.78,5.48-50.87,5.78-34.05,8.74-51.42,21.9099-66.52,23-26.37,60.71-26.98,86.0901-27.39,31.8098-.52,45.97,8.81,50.0798,11.74,7.8701,5.61,9.3501,19.79,18.79,21.13.8101.11,5.4199.68,7.6301-1.96,2.55-3.06.3999-8.67-.5901-11.15-7.21-18.13-28.8501-24.46-37.96-42.85-6.79-13.72,2.8899-14.95-3.52-35.22-5.6401-17.85,5.6617-22.3717-6.8085-49.1517-4.5999-9.88-40.627-16.0845-45.617-27.5745-5.1702-11.91-1.5773-31.5812-5.7872-38.3112,12.83,6.29,37.8467,27.36,45.2766,42.1299,5.0091,9.9576,23.4143,4.3098,31.3394,11.8409,9.4266,8.9579,2.4753,40.4504,6.344,52.983,4.0347,13.0703,5.8161,26.6827,14.8329,37.5836.1799.23.3699.45.5798.68.5701.68,1.1902,1.36,1.8401,2.04,27.1699,28.24,30.98,30.56,42.26,46.44,5.55,7.81,13.8601,39.96,4.1899,69.91Z"/>
      <path class="cls-1" d="M593.8886,292.5311c.0103.01.0103.02,0,.03.1101,9.81-1.0798,20.46-4.4299,30.84-1.6499,5.11-6.1099,18.92-18.6899,23.01-9.1699,2.98-19.9299-.09-26.1501-6.38-3.8999-3.96-4.23-7.39-8.1199-19.28-2.28-6.97-6.28-19.21-10-26.43-6.29-12.21-18.6301-23.4-32.5701-27.9-19.9299-6.44-37.98,2.45-52.98,9.84-28.4099,13.99-43.51,35.83-48.1099,42.98-16.53,25.72-19.0701,51.24-19.21,68.3-.0103.24-.0103.49,0,.72-.03,3.22.0398,6.12.1099,8.65.53,19.94,1.29,48.39,21.0801,65.69,9.45,8.26,21.5801,12.53,25.1499,13.79,9.3999,3.31,19.3101,6.8,30.6602,3.72,6.5898-1.78,11.0298-5.06,17.6699-9.96,2.4299-1.8,9.3398-7.1,17.02-16.26,9.8499-11.75,9.4399-16.1,18.22-23.82,5.73-5.04,10.0999-8.89,15.8401-8.69,10.6099.35,18.97,14.28,21.6399,25.01.5701,2.31.8899,4.53.98,6.79-.25,5.79-1.78,12.25-4.0601,21.61-1.6899,6.96-4.28,17.63-9.49,28.55-14.3198,30.03-40.79,45.96-48.6899,50.58-.3401.2-.6899.39-1.04.57-.6399.33-1.3101.62-2.01.8799-.22.1-.4399.1801-.6699.25-.1201.0601-.24.1-.3601.13-.24.09-.47.17-.72.2401-.1199.04-.25.08-.3799.11-.27.09-.5601.17-.8401.25-.8799.24-1.8.46-2.76.65-.3101.06-.6299.13-.95.1801-.78.15-1.5801.28-2.4199.41-.7002.11-1.4202.21-2.1602.31-.1299.01-.26.03-.3999.05-.9302.12-1.8901.23-2.8801.35-1.1899.13-2.4299.27-3.72.41-.6299.07-1.28.14-1.9299.21-3.0701.33-6.4099.7-10.05,1.19-.6199.08-1.24.17-1.8799.2599-.6802.09-1.3601.19-2.0601.3-2.1699.32-4.4399.69-6.8201,1.11-.6899.13-1.3799.26-2.0798.39-.6802.13-1.3601.26-2.0601.4-.1101.02-.22.04-.3301.07-.72.14-1.46.29-2.2.45-.22.04-.4399.09-.6702.14-.6899.15-1.3899.3-2.1099.46-.1699.04-.3501.08-.52.12-.9399.21-1.8999.44-2.8701.67-2.6399.63-5.3899,1.35-8.25,2.14-.1499.04-.3599.1-.6099.1801-.29.08-.5801.16-.8599.25-.29.08-.5801.16-.8601.2599-1.96.59-3.71,1.2-5.3101,1.83-.8201.32-1.6599.66-2.5,1.03-1.6299.72-3.1101,1.45-4.52,2.2-.21.11-.4199.22-.6199.33-.21.11-.4102.22-.6101.33-.3699.2-.75.41-1.1199.62-.05.03-.1001.06-.1602.09-.3499.2-.6899.39-1.04.59-.1599.09-.3098.18-.47.27-.02.01-.03.02-.05.03-.52.3-1.0498.6-1.5798.9-.02.01-.04.02-.0601.03-.1599.09-.3101.17-.47.27-.22.12-.45.25-.6799.38-.2102.11-.4202.23-.6401.35-.5798.33-1.1699.65-1.79.98-1.6599.88-3.46,1.78-5.5198,2.71-.4502.2-.9102.4-1.3801.6-.3401.15-.6899.3-1.04.44-.3999.17-.8.33-1.22.5-2.6799,1.07-5.77,2.17-9.4099,3.3-.6401.2-1.29.4-1.9602.6-.0498.01-.0999.03-.1499.04-.3999.12-.5997.4765-1.0196.6065-.6899,1.29-1.6103,2.2535-2.3305,3.3535h-.0098c-1.53,2.34-3.1201,4.28-4.6501,5.89-8.3499,8.79-13.3101,6.27-29.5,18.38-13.4099,10.03-16.3699,16.52-24.4099,16.73-7.8601.2-14.4399-5.73-18.8-10.83-13.1599-16.92-20.99-18.83-25.6199-17.71-11.7603,2.84-44.4502,24.34-54.4802-4.82v-.02c-.2-3.02-.8899-5.98-2.0698-8.78-.1602-.37-.3201-.73-.49-1.09-6.0901-12.7599-20.03-15.59-21.5901-15.87-2.46-1.21-8.3501-3.64-15.5701-2.34-2.3799.43-7.99,1.44-11.5499,5.9-.51.64-.84,1.19-1.12,1.76-.14.29-.26.59-.38.91-.38.7-.9801,1.44-1.9501,2.21-9.4399,7.48-25.1299,1.73-26.27-8.25.04-.06.0801-.12.1201-.19,1.45-2.4,1.9099-5.36,1.6599-8.38-.2-2.54-.9099-5.12-1.98-7.45.3701-.04.75-.04,1.1201-.01,5.4199.28,11.1299,6.08,17.23,6.37,4.9399.24,10.1399-5.95,15.7-5.36,11.8101,1.2599,23.1001-3.39,26.3301-3.1201,10.48.88,12.5999,4.3101,29.3499,7.82,15.29,3.21,17.8601,1.25,29.3401,3.52,21.47,4.25,22.3899,13.04,39.9199,18,23.7,6.71,46.4302-2.47,58.6899-7.43,21.76-8.8,20.6702-15.88,40.7002-22.3,18.8499-6.05,22.0498-.49,47.74-4.7,17.9099-2.94,43.3599-7.12,59.0798-26.61,2.03-2.51,16.9202-20.97,9.79-34.43-4.3699-8.2401-15.3599-11.55-23.48-11.35-10.6699.25-14.21,6.48-24.6499,11.35-19.6201,9.1299-48.4702,6.4-63.3901-7.44-8.8499-8.2-6.0698-14.05-20.3499-28.56-4.8-4.88-8.75-7.91-11.4802-14.35-3.1499-7.41-2.5298-14.25-1.5698-21.65,3.1199-24.05,7.1599-33.32,9.1299-48.92,2.0801-16.34-.97-17.02.4001-30.13,2.1599-20.73,12.95-49.23,38.73-68.08,24.72-18.07,51.01-18.38,60.27-18,9.3201.37,37.1299,1.49,54.78,20.73,10.4299,11.38,15.2598,23.87,15.2598,23.87,4.77,12.34,3.6602,20.23,10.9602,26.22.5398.45,8.0798,6.47,16.0398,4.31,11.7603-3.19,14.4202-21.53,14.8701-24.66,1.3-9-.6599-15.9-3.9099-27.39-1.75-6.15-4.3301-15.07-9.79-25.04-9.5901-17.55-16.23-16.71-30.6501-36.65-4.4199-6.11-11.7-16.33-17.22-31.31-2.72-7.39-4.05-13.34-5.6899-22.17-.8799-3.34-1.48-6.54-1.6799-9.26-.3501-1.98,3.51-19.03-1.73-28.71-6.1201-11.29-21.52-15.29-22.8101-15.72-10.95-3.64-17.49-11.2-21.45-15.88-7.23-8.57-6.52-11.91-12.25-20.42-4.1501-6.16-8.54-10.4-12.53-13.49,1.1399-.16,2.3501-.25,4.01-.25,2.6699-.01,11.1599-.03,17.96,4.94,6.01,4.39,4.1599,7.88,13.28,20.42,5.5601,7.64,9.5,10.81,10.8899,11.88,4.4402,3.44,8.24,6.37,13.6101,6.88,4.28.4,8.25-.87,11.6099-2.62.6401-.34,1.27-.7,1.8601-1.07l.0601-.03c24.3-11.85,29.8499,17.9,21.1499,29.56-1.47.69-2.76,1.67-3.8298,3.37-4.2402,6.73,0,16.73,1.25,19.46.0398.06.0598.12.0898.18s.0601.11.0801.16c.02.05.04.09.0601.13,2.8298,5.96,5.0898,5.38,8.1199,11.0699,4.53,8.51,3.47,17.38,2.6702,24.0601-.7603,6.33-1.3801,11.47-3.1702,15.6299.6599.9301,1.3601,1.85,2.1101,2.77.1899.23.3799.45.5798.68.5701.68,1.1902,1.36,1.8401,2.04,27.1699,28.24,30.98,30.56,42.26,46.44,1.3,1.83,2.75,4.99,4.0801,9.14-.0801.74-.1702,1.45-.28,2.14,2.51,7.46,4.6899,18.45,4.8198,30.76Z"/>
      <path class="cls-7" d="M390.6647,83.0052c-.6699-3.0981-2.0232-5.7878-3.8984-8.1781-.0835-3.2979-.373-6.7215-.9624-9.8585-.3472-1.8478-.8945-4.1171-.3843-7.1749.9783-5.8607,4.5872-7.0969,5.1211-11.9015.55-4.9482-2.5427-10.2516-4.7368-10.2128-2.052.0363-2.0256,4.7223-6.4973,10.2128-1.7246,2.1176-4.8662,5.9749-9.53,7.1489-9.0203,2.2706-17.72-7.0112-19.7634-9.1915-2.9143-3.1094-6.2913-6.7123-6.4512-11.7446-.1882-5.9185,2.1095-7.7299.4142-9.9986-1.2908-1.7274-3.3172-3.5221-6.0311-1.7461-5.2324,3.4242-1.2053,11.0115-6.0208,16.3404-3.7595,4.1603-10.0603,3.7923-22.5312,3.0638-11.9402-.6974-14.2043-3.6097-14.8523-4.5958-2.0366-3.0993-.5034-6.0355-2.6902-7.6595-2.7202-2.0202-6.0437-3.7367-9.7983-.7072-6.3706,5.14-6.5183,14.473-12.5327,19.6008-4.2742,3.6442-9.3364,4.181-13.2766,4.5989-9.1782.9733-16.4185-2.2982-19.7305-4.0883-14.9053-4.6785-23.6479-2.5464-28.9592.5106-5.8201,3.3499-10.0376,9.2594-16.1614,8.1702-.2122-.0377-4.7502-.9127-6.7314-4.5925-2.6328-4.8902,2.0116-9.6029.0021-13.276-2.4265-4.4353-8.8143-4.1973-13.0292-3.2157-.411.0957-.84.2156-1.1379.5146-.3198.3211-.431.7909-.5036,1.2383-.4312,2.6572.0194,5.3658.2162,8.0506.5308,7.2411-.5252,15.8351-4.5441,22.0612-3.2393,5.0179-8.457,8.3368-13.067,11.9563-4.8501,3.808-10.7049,9.3493-15.9527,3.6838-1.3701-1.4791-9.1093-7.2808-11.1247-4.463-.9943,1.39,4.8689,4.5308,6.6383,11.7447,1.4615,5.9586-.7104,11.2686-1.5319,13.2766-1.5359,3.7548-3.2362,5.3255-9.7021,12.2553-8.3463,8.9449-20.0891,6.5022-21.6406,9.6664-1.7635,3.5967,5.1058,14.7225,3.7683,23.0144-2.4919,15.4495-.6909,17.6655-3.7683,21.4176-3.3293,4.0593-8.5786,5.2955-18.9247,7.7321-8.973,2.1132-10.277.9068-12.5917,3.0853-5.1827,4.8781.0206,12.1828-5.5664,21.5358-.9282,1.5538-4.0173,6.7252-9.7021,8.5271-4.804,1.5227-6.6085-.8988-12.766,0-5.2465.7658-12.6301,3.7928-13.2766,8.1702-.4532,3.0692,2.7822,4.251,7.6595,11.3417,2.7574,4.0088,4.2213,7.4026,7.149,14.1902,3.9001,9.0423,5.8503,13.5634,5.1063,17.4635-.2063,1.0814-.5333,2.0917-7.6595,12.1535-6.4291,9.0776-7.4736,10.106-8.1703,13.0015-1.1995,4.9859.1477,9.2108,1.532,13.5518,3.3638,10.5485,8.243,12.1124,9.1915,18.383.6385,4.2214-.5299,10.4067-8.6809,18.8936-7.0995,10.1602-6.9418,16.269-5.6171,19.9149,3.3387,9.1889,15.7452,7.2873,22.9788,18.8936,6.0946,9.779,3.8665,21.6857,3.5745,23.1391-2.1931,10.9142-8.7251,12.6551-7.6595,19.7727.9758,6.5184,6.6248,6.1969,13.5482,17.8542,3.3584,5.6547,6.8839,11.5907,4.8684,16.9366-1.8302,4.8542-6.7084,5.1885-7.6932,10.2083-.8835,4.5031,2.1851,8.6027,3.0897,9.8113,5.411,7.2291,12.4762,4.9307,20.6854,9.725,12.171,7.1081,8.3965,19.0256,18.9247,25.2751,6.0219,3.5746,15.0009,4.2723,21.9333,2.1742,13.8134,7.8032,30.2354,10.7811,42.4919,4.3442.9828-.5161,15.5072-8.4337,15.6522-22.6957.1301-12.8106-14.7422-21.8963-20.3478-25.826-48.9955-34.3485-59.1654-124.6825-60.261-135.3913-2.2992-22.4744-6.415-62.7051,16.4348-100.9565,13.6891-22.916,38.4435-47.4436,68.087-61.8261,15.3945-7.4692,27.9502-10.1851,47.739-24.2609,19.9341-14.1789,18.4023-19.3957,32.0869-25.8261,19.0366-8.9452,38.9243-6.8023,65.7393-3.913,25.7485,2.7744,33.0239,7.3277,43.8259,1.5652,11.3674-6.064,20.7002-20.3828,18-32.8696Z"/>
      <path class="cls-5" d="M342.2022,282.1874c-11.0901,28.55,2.02,60.28,2.5599,90.9.64,36.05-17.88,72.01-47.92,91.94-11.3,7.49-24.1,12.58-37.3999,15.18-22.0701,4.3-45.5,1.73-65.6901-8.18-24.42-12-43.13-33.35-57.2999-56.57-16.9102-27.72-25.8401-57.01-27.0601-85.75-2.26-52.77,21.45-103.66,69.39-139.47,32.6901-24.42,71.98-39.03,112.1-46.48,13.9099-2.59,28.45-4.31,42.21-1.62,2.6301.52,5.24,1.19,7.8,2.05,16.75,5.61,30.52,19.21,36.8301,35.72,6.2999,16.51,5.1699,35.59-2.5601,51.48-8.8701,18.2-25.63,31.93-32.96,50.8Z"/>
      <path class="cls-3" d="M336.4039,61.0922c-1.0535-.6626-4.1213-2.5922-7.5652-1.5652-3.6738,1.0955-6.0582,5.0436-6,8.8696.0507,3.3243,1.9509,6.9247,5.4783,8.3478,4.1331,1.6675,7.86-.7193,8.3478-1.0435,2.7714-1.8419,4.9933-5.4906,4.174-9.1304-.7051-3.1324-3.3307-4.7838-4.4348-5.4783Z"/>
      <path class="cls-3" d="M365.8822,92.1357c-2.4858-1.8633-6.4037-1.5392-8.0869.7826-1.9525,2.6933-.2253,7.1465,2.8695,8.6087,1.9921.9411,4.8915.8041,6.5217-1.0435,2.0471-2.3202,1.2769-6.4131-1.3043-8.3478Z"/>
      <path class="cls-3" d="M291.5344,82.4835c-1.3918-4.7455-6.8915-6.9259-10.9565-7.0435-6.3199-.1827-10.1527,4.5925-10.4348,4.9565-2.3719,3.0606-4.429,8.6675-1.5652,13.0435,3.0372,4.641,9.4645,4.6203,13.0435,3.6522,3.6704-.9929,5.827-3.3831,6.5217-4.1739.9071-1.0327,4.8369-5.5064,3.3914-10.4348Z"/>
      <path class="cls-3" d="M303.0127,57.1791c-1.7985-1.0641-4.7079.1908-5.2174,2.3478-.5161,2.185,1.5978,4.5869,3.6521,4.4348,1.4095-.1044,2.4938-1.389,2.8696-2.6087.4534-1.471.04-3.3785-1.3043-4.1739Z"/>
      <path class="cls-3" d="M316.5127,103.94c-.4417-2.3476-3.2714-3.6988-5.087-2.9348-2.153.9059-2.7809,4.7441-.9783,6.4565.9648.9166,2.5786,1.179,3.9131.587,1.6176-.7177,2.4502-2.5247,2.1522-4.1087Z"/>
      <path class="cls-3" d="M213.0127,76.3531c-1.6165-1.7774-4.467-1.4424-5.087-1.3696-2.8867.3392-6.4519,2.4991-6.8478,6.0652-.4558,4.1061,3.5278,7.9353,6.6521,7.6304,1.6348-.1595,2.7222-1.4205,3.5217-2.3478,2.2402-2.598,4.033-7.4802,1.761-9.9783Z"/>
      <path class="cls-3" d="M235.7082,105.5052c-1.8396-2.6569-6.2273-2.9828-8.413-1.1739-3.2325,2.6753-1.4353,9.8437,1.7609,10.9565,1.5541.5411,3.1654-.4449,3.7174-.7826,2.7335-1.6726,5.0056-6.009,2.9347-9Z"/>
      <path class="cls-3" d="M201.2735,101.3965c-.8008-.3693-2.9276.9878-2.674,2.413.1378.7741.9655,1.4978,1.8912,1.5.5769.0013,1.2672-.2773,1.5653-.8478.2775-.5311.094-1.0837-.1957-1.9565-.219-.6597-.3284-.9895-.5869-1.1087Z"/>
      <path class="cls-3" d="M170.4909,93.5705c-2.1339-1.6809-5.7302.3639-6,.5217-.714.4178-2.7383,1.6024-3.1304,3.9131-.5198,3.0629,2.3118,5.2557,2.6086,5.4782.2162.162,3.2008,2.3379,5.4783,1.0435,1.5831-.8998,1.8333-2.913,2.087-4.9565.264-2.126.5858-4.7165-1.0436-6Z"/>
      <path class="cls-3" d="M205.1865,134.4618c-2.549-4.2944-7.5789-6.0718-11.9348-5.4783-5.8762.8007-10.6598,5.9344-10.5652,10.5652.1537,7.5222,13.1941,14.4354,19.7609,9.9783,3.9573-2.6859,5.9045-9.7323,2.7391-15.0652Z"/>
      <path class="cls-3" d="M226.8061,128.2987c-.4723-.6805-2.8575-.5633-3.8153.8804-.7852,1.1835-.549,3.1649.587,3.7174.828.4027,1.9712-.033,2.5435-.6848.2561-.2917.4025-1.2093.6848-3.0326.0894-.5773.1046-.7297,0-.8804Z"/>
      <path class="cls-3" d="M162.143,127.2226c-.9974-1.9352-3.4681-3.2253-5.674-2.5435-2.8508.8812-3.2524,4.4358-3.326,5.0869-.0931.8238-.3806,3.3687,1.3696,4.6957,1.9789,1.5003,4.7545.0729,4.8912,0,2.3186-1.2359,4.1305-4.5394,2.7391-7.2391Z"/>
      <path class="cls-3" d="M159.4039,171.44c.8038-2.905-1.0865-6.1714-3.9131-7.4348-3.0741-1.3741-6.6033-.0874-8.413,2.3478-1.8412,2.4775-2.084,6.3882,0,8.4131,1.7816,1.7311,4.5004,1.3419,5.6738,1.1739.9252-.1324,5.63-.8059,6.6522-4.5Z"/>
      <path class="cls-3" d="M138.6648,151.3857c-.2968-.6501-1.0686-1.412-1.9565-1.2717-.8866.1401-1.3635,1.0968-1.4674,1.7609-.2241,1.4329,1.0482,3.0405,2.0544,2.9348,1.0398-.1093,1.9884-2.0685,1.3695-3.4239Z"/>
      <path class="cls-3" d="M124.0561,179.3965c-1.4633-2.0329-4.5266-2.6807-6.9131-1.8261-3.6993,1.3247-4.2451,5.7122-4.3043,6.2609-.0511.4737-.4836,4.4836,2.0869,6.1304,2.5084,1.607,6.0712-.1927,7.826-1.9565.3885-.3906,2.1652-2.2636,2.2174-5.087.0131-.703.0406-2.1969-.913-3.5217Z"/>
      <path class="cls-3" d="M116.1648,213.7009c-.6732-1.3604-2.3036-2.4806-4.1086-2.3478-2.0659.152-3.5333,1.8845-3.9131,3.5217-.6794,2.9297,1.9871,6.1445,4.3043,6.0652,2.6248-.0898,5.1143-4.4168,3.7174-7.2391Z"/>
      <path class="cls-3" d="M83.0996,213.8965c-2.4771-1.627-5.5105-.0862-5.674,0-2.812,1.4837-4.7172,5.4176-3.1304,8.2174,1.1274,1.9894,3.6497,2.7565,5.6738,2.5435.2921-.0307,3.0261-.3637,4.5-2.7391,1.5618-2.517,1.1237-6.3842-1.3695-8.0217Z"/>
      <path class="cls-3" d="M69.7953,248.1357c-2.2216-1.3174-5.8695-.7536-8.0217,1.3696-3.0079,2.9675-2.6458,8.539.1956,10.9565,1.6683,1.4195,3.7631,1.387,4.8914,1.3696,4.2916-.0665,9.0154-2.9266,9-5.674-.0035-.6295-.2533-.7896-3.7174-5.2826-1.7228-2.2346-1.8555-2.4471-2.3478-2.7391Z"/>
      <path class="cls-3" d="M90.6648,296.0052c1.1714-1.1612.9885-3.0175.9131-3.7826-.317-3.2172-3.0076-4.9754-3.3914-5.2174-.8397-.5295-2.5447-1.6046-4.4348-1.0435-2.2162.6578-3.453,3.1985-3.3912,5.3478.0054.1855.1158,2.6606,2.0869,4.1739.8434.6475,1.6487.8282,2.6088,1.0435,1.5262.3423,4.1445.9296,5.6086-.5217Z"/>
      <path class="cls-3" d="M69.143,308.9183c.0885-2.7689-3.1945-5.1154-5.8695-4.5652-2.2654.466-3.2734,2.8403-3.3914,3.1304-.2166.5324-.9491,2.3336,0,3.9131,1.0848,1.8056,3.4722,1.8322,3.9131,1.8261,2.3284-.0323,5.2657-1.7388,5.3478-4.3044Z"/>
      <path class="cls-3" d="M93.4039,331.3531c.4318-1.6942-.5786-4.0019-2.4783-4.4348-1.8101-.4125-3.4211,1.1066-4.0435,2.4783-.6271,1.382-.6051,3.3965.5217,4.3044,1.632,1.3147,5.3671.1356,6-2.3478Z"/>
      <path class="cls-3" d="M86.0344,382.5487c2.3997-1.3058,2.8051-7.0547-.1957-9.5869-1.9583-1.6525-5.5701-2.1065-7.2391-.1956-1.6591,1.8994-.4711,5.0733.5869,6.6522,1.5797,2.3573,4.9008,4.1899,6.8479,3.1304Z"/>
      <path class="cls-3" d="M111.3713,406.6139c.7477-1.0936-.0164-2.7539-.6848-4.2065-.7968-1.7314-2.0181-4.3856-4.3043-4.5-1.6838-.0843-3.2197,1.2453-3.9131,2.6413-.1145.2305-1.0173,2.1244-.0978,4.0109.8297,1.7021,2.5623,2.2069,3.7174,2.5435.338.0985,4.1262,1.2023,5.2826-.4891Z"/>
      <path class="cls-3" d="M121.3496,432.7335c-.5339-1.4676-1.7417-4.7868-4.5979-5.3804-2.0054-.4168-3.7123.7409-4.2064,1.076-.4186.2839-2.6759,1.8877-2.837,4.7935-.1418,2.5591,1.4448,4.2778,1.8588,4.6956,1.547,1.5613,4.1298,2.5304,6.5543,1.663,1.7201-.6154,3.4613-2.1909,3.7174-4.2065.1222-.9613-.1376-1.6752-.4891-2.6413Z"/>
      <path class="cls-3" d="M103.9039,450.7661c1.1383-1.8494-.022-4.0419-.1304-4.2391-1.3621-2.4796-4.4785-2.6082-5.2174-2.6087-.6814-.0005-3.2279-.0023-4.1088,1.6304-.9554,1.7712.7489,4.1689,1.6957,5.1522.4283.4448,1.3558,1.3823,2.8696,1.6957,1.4128.2925,3.8027.1379,4.8912-1.6304Z"/>
      <path class="cls-3" d="M128.6213,485.3965c-.2815-2.0476-1.6127-4.8073-4.3043-5.6087-3.5729-1.0638-6.5748,2.2067-7.0435,2.7391-2.1509,2.444-3.5918,7.0421-1.174,9.7826,1.833,2.0776,5.0426,2.134,7.174,1.4348,3.4093-1.1183,5.8419-4.7538,5.3478-8.3478Z"/>
      <path class="cls-9" d="M296.3604,119.9183c-1.9756-2.4583-5.3951-2.3701-6.2609-2.3478-4.7051.1213-10.7637,3.8278-10.4348,8.7391.222,3.316,3.2839,6.1081,6.5217,6.913,4.1367,1.0284,8.1848-1.2802,10.0435-4.4348,1.3314-2.2597,2.2747-6.2016.1305-8.8696Z"/>
      <path class="cls-9" d="M184.4474,177.6357c-.6746-1.6474-2.8054-2.2105-4.3695-1.8913-1.5992.3264-3.4325,1.7441-3.2609,3.3913.1796,1.7233,2.4358,2.5685,3.8478,2.6739.4445.0332,2.4288.1812,3.4565-1.3043.5735-.829.7014-1.9531.326-2.8696Z"/>
      <path class="cls-9" d="M228.0778,153.9291c-1.3015-1.5129-3.9514-2.5277-5.8696-1.2717-1.1312.7406-2.0365,2.2895-1.663,3.7174.5846,2.2345,3.8655,2.507,4.3043,2.5435.3682.0306,3.399.2823,4.2065-1.4674.7019-1.521-.8315-3.3511-.9783-3.5217Z"/>
      <path class="cls-9" d="M133.1865,221.3965c-.6871-1.3224-2.1871-2.0703-3.5217-2.087-2.8459-.0355-5.7572,3.2444-4.9565,6,.4956,1.7057,2.3927,3.1394,4.3044,3,1.4125-.103,2.3342-1.0284,2.739-1.4348,1.0977-1.102,2.488-3.4514,1.4348-5.4782Z"/>
      <path class="cls-9" d="M118.8387,259.8748c3.1641-.8202,5.5896-7.2167,3.1304-11.2174-.9653-1.5704-2.7711-2.9145-4.9564-3.1304-2.9965-.2961-5.9291,1.6056-6.7827,3.9131-1.7153,4.637,4.7736,11.4289,8.6088,10.4348Z"/>
      <path class="cls-9" d="M405.2735,138.0487c-1.8745-4.1046-6.7118-5.9203-10.6957-5.4783-.868.0963-5.6293.7363-7.8262,4.9565-2.5331,4.8659.7843,9.8017,1.0436,10.1739,2.2002,3.1584,6.3718,5.3674,10.4347,4.4348,5.7969-1.3307,9.5334-8.6347,7.0436-14.0869Z"/>
      <path class="cls-9" d="M360.7953,128.6574c-.9316-2.8204-4.4482-3.6099-5.2174-3.7826-3.1908-.7164-7.877.1436-8.8696,3.1304-.9143,2.7513,1.8622,5.6315,2.2174,6,.4891.5074,3.4481,3.4459,7.0435,2.4783,3.3381-.8984,5.8296-4.7885,4.8262-7.8261Z"/>
      <path class="cls-9" d="M415.1865,83.527c-3.8031-.0288-8.4376,2.7533-8.6086,6.5217-.1741,3.8342,4.3727,6.4824,7.3043,7.3043,4.1501,1.1636,9.7844-.0089,10.9565-3.1304,1.431-3.8112-3.7434-10.6509-9.6522-10.6956Z"/>
      <path class="cls-9" d="M463.9691,137.2661c-3.2306-4.2102-9.8439-7.1599-14.6086-4.4348-5.4056,3.0917-4.6158,11.3052-4.4348,12.7826.2281,1.8619.8468,6.9093,5.2174,9.6522,4.0643,2.5507,9.7523,2.0912,13.3043-1.0435,4.9058-4.3293,4.0894-12.3071.5217-16.9565Z"/>
      <path class="cls-9" d="M479.8822,207.7009c2.7844-7.1732-1.6295-17.408-9.3914-22.4348-.6957-.4506-9.7429-6.1083-18.7826-2.087-11.1443,4.9576-14.9285,21.3567-9.3912,29.2174,7.4218,10.5361,32.8324,7.4971,37.5652-4.6956Z"/>
      <path class="cls-9" d="M404.4908,211.3531c.0852-.3679.6698-3.1042-1.1738-5.4783-1.6477-2.1218-4.0521-2.4307-4.9565-2.4782-2.4662-.1296-5.6251,1.0622-6.6522,3.7826-.0588.1558-.9805,2.7211.5217,4.8261,1.1207,1.5705,2.8989,1.9155,3.7827,2.0869,4.214.8176,7.7572-2.1168,8.4781-2.7391Z"/>
      <path class="cls-9" d="M356.817,299.3965c2.9509-3.5667,3.0796-9.2127.1957-12.1304-3.9131-3.959-12.661-2.1747-15.261,3.3261-1.6093,3.4047-.9391,8.3937,2.5436,10.9565,3.9205,2.8851,9.6063,1.3716,12.5217-2.1522Z"/>
      <path class="cls-9" d="M353.0996,481.3531c3.3953-5.5292,1.4561-12.5446-3.1305-16.0435-3.3492-2.555-7.8927-3.0692-11.7391-1.5652-4.4725,1.7488-7.8794,6.1779-7.826,11.3478.0483,4.6805,2.9194,8.6838,6.6522,10.5652,5.1941,2.618,12.554,1.3784,16.0435-4.3043Z"/>
      <path class="cls-9" d="M295.5778,529.8748c3.386-2.5072,5.7435-7.1232,4.8912-11.9348-1.0122-5.7145-5.963-8.379-7.2391-9-1.0892-.5301-4.701-2.2877-8.8043-.9783-5.8477,1.8661-7.5439,8.3182-7.826,9.3914-.3517,1.3378-1.6724,6.3609,1.174,10.3696,3.6163,5.0932,12.3074,6.2225,17.8043,2.1522Z"/>
      <path class="cls-9" d="M308.9794,476.6452c-.3098-2.785-2.765-5.3055-5.7661-5.3358-2.529-.0255-4.655,1.7253-5.5079,3.8727-.9455,2.3803-.2614,5.0835,1.463,6.7128.3193.3016,1.6337,1.5079,3.5285,1.5491,3.1257.0679,6.6984-3.0595,6.2825-6.7988Z"/>
      <path class="cls-9" d="M237.0127,502.2226c-.8536-4.774-6.0842-7.255-9.6522-7.8261-.8662-.1387-7.0554-1.1293-10.174,3.1304-2.6754,3.6544-1.1705,8.5499.5217,11.2174.2773.4371,3.3931,5.1813,8.6088,5.2173,5.927.0409,11.7188-6.0178,10.6957-11.7391Z"/>
      <path class="cls-9" d="M173.8822,520.2226c-2.7947-1.5809-7.04-1.6273-8.6086.5217-2.0166,2.7627.5292,8.9636,4.9564,10.4348,2.5436.8452,6.2113.2964,7.5653-2.087,1.6338-2.8757-.8356-7.1286-3.9131-8.8695Z"/>
      <path class="cls-1" d="M481.0561,494.2661c-.6616-2.7004-3.777-3.8011-4.1088-3.913-3.2842-1.1071-8.0609.1325-9.1957,3.7173-1.1665,3.6853,2.0922,8.0291,5.8696,8.4131,4.3926.4465,8.3263-4.5792,7.4348-8.2174Z"/>
      <path class="cls-1" d="M463.0561,521.2661c-.7468-2.9974-6.1554-5.1408-10.5653-3.913-2.8627.7971-6.6589,3.3917-6.6521,7.2391.0052,2.9374,2.2256,5.6212,4.6957,6.4565,5.6544,1.9121,13.5797-5.5366,12.5217-9.7826Z"/>
      <path class="cls-1" d="M418.8387,501.5052c-.9874-2.565-3.6104-5.0247-7.0435-4.8913-3.2897.1278-5.9269,2.5823-6.6522,5.4782-.9772,3.9016,1.7783,7.5578,4.8914,8.8044.5211.2087,3.2832,1.2432,5.8695-.1957,3.0377-1.69,4.2081-5.8882,2.9348-9.1956Z"/>
      <path class="cls-1" d="M380.6865,473.1357c.3389-2.9973-2.6152-5.8115-5.6738-5.674-3.361.1511-5.8878,3.8232-5.087,6.6522.5363,1.8945,2.4615,3.046,4.1088,3.326,2.7845.4735,6.3104-1.2818,6.6521-4.3043Z"/>
      <path class="cls-1" d="M396.6648,527.527c.8036-2.4574-.364-5.3588-2.4783-6.913-2.7069-1.9899-5.8676-.9641-6.3912-.7827-3.4338,1.1898-6.3524,5.1843-5.2174,8.2174,1.0145,2.7112,4.7605,3.2991,5.3478,3.3913,2.8832.4525,7.5767-.3585,8.7391-3.913Z"/>
      <path class="cls-1" d="M342.9256,534.3096c-.2731-3.6531-4.7841-6.7416-8.8695-6.5217-3.4658.1865-5.6849,2.7032-6.5217,3.6522-1.0061,1.141-3.7007,4.1969-2.7391,7.5652.9509,3.3312,4.9164,5.002,7.9564,4.9565,3.6437-.0546,6.0312-2.5758,7.174-3.7826,1.3237-1.3979,3.1871-3.3658,3-5.8696Z"/>
      <path class="cls-1" d="M309.0127,572.9183c.5073-2.8086-2.2706-6.1633-5.7391-6.5217-3.2905-.34-6.032,2.1376-6.8153,4.663-.1385.4468-.7921,2.5536.3914,4.2065,1.0948,1.5292,3.0564,1.6851,4.0109,1.7609,2.7584.2192,7.5599-.8299,8.1522-4.1087Z"/>
      <path class="cls-1" d="M265.4474,551.2987c-.0292-2.9324-4.5299-4.4717-5.1847-4.6956-1.0718-.3666-2.6013-.8896-4.3044-.2935-2.3356.8175-4.2268,3.4699-3.7174,5.7717.2587,1.1689,1.0571,1.8894,1.5653,2.3478,1.7025,1.5361,4.2207,2.092,6.4565,1.5652,2.1112-.4974,5.209-2.2518,5.1847-4.6957Z"/>
      <path class="cls-1" d="M208.8387,533.3965c-1.8055-1.3776-4.3556-1.4333-6.1305-.3913-3.266,1.9174-4.0002,7.606-1.1738,9.913,2.2476,1.8345,6.5254,1.3499,8.4783-1.5652,1.6752-2.5005,1.2052-6.1412-1.174-7.9565Z"/>
      <path class="cls-1" d="M563.4256,278.2661c-2.4447-2.6526-7.6233-2.0131-10.3695.7826-1.8328,1.8658-2.8552,4.9701-1.7609,7.8261.8613,2.2477,3.115,4.5536,5.8695,4.5,2.5452-.0495,4.2026-2.0878,4.8914-2.9348,1.9341-2.3783,3.9885-7.3322,1.3695-10.1739Z"/>
      <path class="cls-1" d="M441.143,237.7009c-1.3357-2.1714-4.2987-2.1049-5.8695-1.6956-2.4071.6272-4.9984,2.9594-4.5653,5.3478.4431,2.4435,3.7567,3.3196,4.0435,3.3913.6793.1699,3.4059.7263,5.3479-1.1739,1.4406-1.4096,2.224-3.9504,1.0435-5.8696Z"/>
      <path class="cls-1" d="M380.8822,278.2661c1.241-1.1681,1.694-3.2198.9131-4.5652-1.3462-2.3193-6.181-2.2318-7.5653.1304-.6698,1.143-.4723,2.7173.2609,3.7826,1.3397,1.9467,4.5806,2.3568,6.3914.6522Z"/>
      <path class="cls-1" d="M360.5344,366.7009c2.2496-.4054,3.8088-3.5293,2.7391-5.8696-.8649-1.8921-3.3625-3.0844-5.2827-2.1522-2.074,1.0069-2.4247,3.9828-1.3695,5.8696.7263,1.2987,2.3188,2.4395,3.9131,2.1522Z"/>
      <path class="cls-1" d="M353.2953,417.3748c.425-.3117,2.4348-1.8807,2.1521-3.913-.311-2.2366-3.229-3.8137-5.4783-3.3261-3.1974.6931-4.8317,5.5121-3.326,7.4348,1.2238,1.5626,4.5985,1.3104,6.6522-.1957Z"/>
      <path class="cls-1" d="M528.9256,211.6139c-2.5133-3.0467-7.571-2.6089-9.6521-.2609-2.8737,3.2423-.2743,10.356,3.6521,11.2174,2.1536.4725,4.3378-1.0167,5.4783-2.3478,1.8934-2.21,2.6558-6.0218.5217-8.6087Z"/>
      <path class="cls-1" d="M502.8387,139.3531c-1.502-2.1988-6.1929-2.678-8.8696-.2609-1.3757,1.2423-2.4399,3.4488-1.826,5.7391.6985,2.6056,3.2915,4.2855,5.4783,4.1739,4.1063-.2096,7.1945-6.7578,5.2174-9.6522Z"/>
      <path class="cls-2" d="M526.8387,456.7009c1.9521-4.5299-.0245-10.2859-4.1088-12.913-3.0986-1.9932-6.3801-1.5228-7.2391-1.3696-4.9773.8875-9.6429,5.5684-9.3912,10.9565.1381,2.9547,1.739,5.7863,4.1086,7.4348,4.9861,3.4688,13.954,2.1021,16.6305-4.1087Z"/>
      <path class="cls-2" d="M522.7299,498.3748c1.8568-2.4911.1908-6.884-2.7391-8.4131-.1151-.0601-2.8358-1.4269-5.0869,0-2.4507,1.5533-3.0128,5.5734-1.174,8.0218,2.1649,2.8824,7.136,2.892,9,.3913Z"/>
      <path class="cls-2" d="M459.6648,556.7444c2.4082.5034,5.6649-1.1768,6.2609-3.7827.605-2.6456-1.8418-4.8934-2.4783-5.4782-.5316-.4884-2.2203-2.0399-4.6957-1.9565-.6895.0232-2.0555.0692-2.8695.913-2.0972,2.1742-.3347,9.4437,3.7826,10.3044Z"/>
      <path class="cls-2" d="M389.7517,567.3096c2.4706.1641,5.5939-1.8763,5.4783-4.6956-.1034-2.5206-2.7444-4.4106-5.2173-4.3044-2.0165.0866-4.1672,1.5112-4.5653,3.6522-.3916,2.106,1.1305,3.7332,1.3043,3.9131.1906.1973,1.3108,1.3226,3,1.4348Z"/>
      <path class="cls-2" d="M289.4474,594.0487c-.5894-1.8001-2.9116-2.6641-4.6957-1.9565-1.4351.5692-2.624,2.1959-2.2173,3.9131.42,1.7737,2.3219,2.7125,3.913,2.4783,2.0267-.2984,3.6295-2.5118,3-4.4348Z"/>
      <path class="cls-2" d="M257.0996,571.3531c.1404-3.0056-2.3289-4.9498-3-5.4783-.3733-.2939-3.8451-2.9372-7.5652-1.4348-1.7646.7126-4.0394,2.5416-4.0436,4.9565-.0035,2.0356,1.608,3.4454,2.7391,4.4348,2.1504,1.881,4.5278,2.2239,5.4783,2.3478,1.3832.1804,2.4797.3235,3.6522-.2609,1.757-.8757,2.6602-2.8748,2.7391-4.5652Z"/>
      <path class="cls-2" d="M412.4474,478.2226c-.6423-1.1236-2.2915-1.8739-3.6521-1.174-1.3586.699-1.6361,2.436-1.174,3.6522.4485,1.1803,1.6931,2.132,2.8695,1.9565,1.6885-.2518,2.9049-2.7759,1.9565-4.4348Z"/>
      <path class="cls-2" d="M372.8604,416.0052c1.8384-2.4883-.1472-7.3269-2.9348-7.8261-1.8923-.3389-3.8202,1.3819-4.6957,2.9348-.1602.2841-1.5481,2.826-.3912,4.6956,1.4589,2.3578,6.2844,2.5471,8.0217.1957Z"/>
      <path class="cls-2" d="M412.1865,270.8313c-3.1416-1.2502-7.2081,3.5414-8.0217,4.5-1.4069,1.6577-4.5579,5.3706-3.1304,8.2174,1.1196,2.2328,4.451,2.7263,6.4564,2.5435,3.1146-.284,4.9945-2.3784,5.4783-2.9348,2.8679-3.298,2.0482-7.4042,1.9565-7.8261-.2374-1.0917-.8116-3.733-2.7391-4.5Z"/>
      <path class="cls-2" d="M576.7299,327.7661c-1.2269-1.9927-3.8787-2.291-5.6738-1.7609-2.3932.7068-4.2269,3.1706-3.9131,5.6739.0195.1556.347,2.4643,2.3478,3.5218,2.1783,1.1513,4.8513.0325,6.2609-1.5652,1.1403-1.2925,2.2511-3.8023.9783-5.8696Z"/>
      <path class="cls-2" d="M588.8604,283.7443c.9905-2.0142,1.0306-5.2938-1.174-6.8478-2.1471-1.5135-5.0947-.4538-6.6521.9782-2.3982,2.2052-2.911,6.5909-.7827,8.4131,1.6083,1.3769,4.2197.8577,5.674.1956.4781-.2177,2.0636-.9675,2.9348-2.7391Z"/>
      <path class="cls-2" d="M579.3713,249.7987c-.469-1.2658-1.9147-1.8735-2.9348-1.5652-1.6359.4944-2.2551,3.368-1.076,4.5.6421.6165,1.743.6449,2.5435.2935,1.1444-.5024,1.9575-1.9055,1.4674-3.2283Z"/>
      <path class="cls-2" d="M530.2627,189.2443c-1.0197-.6139-2.6622-.0626-3.2283,1.1739-.4834,1.0559-.0378,2.2971.7826,2.9348.0905.0703,1.1241.8481,2.1521.3913.9722-.432,1.1277-1.6075,1.174-1.9565.0253-.1906.2244-1.8784-.8804-2.5435Z"/>
      <path class="cls-2" d="M522.5344,166.6465c-.3973-.6657-1.29-1.2251-1.9565-.9783-.6073.2249-.7604,1.0203-.9783,2.1522-.1967,1.0213-.3358,1.7442.0978,2.1522.4626.4352,1.3339.2829,1.8588,0,1.0789-.5813,1.6375-2.2217.9783-3.3261Z"/>
      <path class="cls-6" d="M342.2022,282.1874c-11.0901,28.55,2.02,60.28,2.5599,90.9.64,36.05-17.88,72.01-47.92,91.94-11.3,7.49-24.1,12.58-37.3999,15.18-22.0701,4.3-45.5,1.73-65.6901-8.18-24.42-12-43.13-33.35-57.2999-56.57-16.9102-27.72-25.8401-57.01-27.0601-85.75,3.61,13.22,9.53,32.03,22.23,51.47,8.04,12.31,20.53,30.92,44.61,43.05,7.1901,3.61,32.36,15.82,64.5599,9,5.1101-1.09,31.03-7.02,52.05-30.53,6.17-6.9,21.4301-24.46,23.47-50.47.6401-8.16,1.54-19.58-4.2999-31.31-3.25-6.52-10.3199-16.62-17.2201-25.04-5.7799-7.06-9.3999-10.44-8.6099-14.87.4199-2.36,2.2-5.63,12.53-10.57,12.5999-6.03,19.3899-5.68,26.5999-8.21,14.4701-5.09,21.8801-18.69,28.9601-31.7,6.0199-11.05,15.7999-29.02,11.74-48.13-4.48-21.06-23.5699-33.14-32.92-40.26,2.6301.52,5.24,1.19,7.8,2.05,16.75,5.61,30.52,19.21,36.8301,35.72,6.2999,16.51,5.1699,35.59-2.5601,51.48-8.8701,18.2-25.63,31.93-32.96,50.8Z"/>
      <path class="cls-8" d="M307.9989,153.1366c-2.0332-2.7597-9.9231,1.7538-28.7839,7.196-19.1788,5.5339-23.0596,4.3406-37.2497,10.159-15.7763,6.4688-19.9119,11.6064-22.0111,15.2385-1.148,1.9863-5.891,10.1929-2.5397,18.2015,4.0808,9.752,16.8307,11.2461,18.6249,11.4289,9.6768.9857,17.1932-3.9303,24.1276-8.4658,4.9854-3.2607,5.0522-4.2526,17.7783-16.0851,12.1909-11.3349,14.4404-12.5732,19.4714-18.6248,4.288-5.1579,13.0505-15.6979,10.5823-19.0481Z"/>
      <path class="cls-8" d="M177.7953,213.7009c-5.0508.0397-8.8997,1.8294-10.4348,2.6087-25.576,12.9828-35.2174,39.3912-35.2174,39.3913-.7649,2.095-8.8135,24.5665-2.6086,28.4348,4.9346,3.0764,18.2708-5.9959,25.5652-16.9565,5.9628-8.9597,3.3776-12.403,11.7391-25.8261,4.4534-7.1491,6.7405-10.8208,11.2174-15.1304,5.2811-5.0838,9.7692-7.3587,9.1304-9.6522-.8018-2.8783-8.8673-2.8737-9.3912-2.8696Z"/>
      <path class="cls-8" d="M126.143,309.7009c-3.7247.3738-5.7744,10.2359-6,16.1739-.1517,3.9948-.4277,11.2584,4.6957,16.4348,3.5067,3.5429,9.7941,6.362,12.7826,4.1739,3.3457-2.4496,1.2389-10.2103-.5217-16.6956-.5287-1.9474-5.7062-20.6138-10.9565-20.0869Z"/>
      <path class="cls-3" d="M51.4768,343.3889c-2.3059-1.5161-8.2759.9107-10.2128,5.5261-.3271.7795-1.377,3.6178,0,6.5847,1.3618,2.9341,4.5514,4.8182,8.1702,4.802,3.6174-8.4973,4.5281-15.2786,2.0426-16.9127Z"/>
      <path class="cls-3" d="M73.7195,422.8993c2.0845-4.0586.2148-8.2475,0-8.7089-1.5834-3.4-5.2823-6.4037-9.4431-6.0544-5.3662.4504-8.7236,6.2451-8.7145,11.0541.0012.6247.0874,5.613,3.8461,8.0737,4.5034,2.9482,11.7542.6147,14.3115-4.3644Z"/>
      <path class="cls-3" d="M112.3009,142.4283c-2.4479-2.4165-2.105-7.0255,0-9.9228,2.293-3.1561,7.2688-5.0956,10.6765-2.6856,3.1412,2.2216,3.3832,7.031,1.5961,10.0824-2.4808,4.2359-9.1683,5.5905-12.2726,2.526Z"/>
      <path class="cls-3" d="M82.8692,183.8947c-2.1069-2.1849-9.6294-.885-11.4775,3.9762-1.0449,2.7484-.0874,6.1389,2.3279,8.6808.5974.1281,4.1061.8244,6.6935-1.3617,1.5223-1.2862,1.9904-2.9488,2.4562-4.6038.5084-1.8061,1.458-5.1796,0-6.6916Z"/>
      <path class="cls-3" d="M42.4555,215.4454c-1.2183-.8793-3.0231-.6578-4.2552,0-2.0354,1.0866-2.3462,3.2772-2.3831,3.5745-.2164,1.7426.5013,4.0793,2.3831,4.7943,1.3656.5189,2.8477-.0051,3.7446-.7092,2.2615-1.775,2.6317-6.1286.5106-7.6596Z"/>
      <path class="cls-3" d="M143.1364,90.8496c-1.3199-.5255-3.3096.593-4.275,2.0615-1.2544,1.9081-.7324,4.3351.4452,5.8534,1.8513,2.3869,4.9492,2.0466,5.1064,2.0266,1.2174-5.2463.5607-9.21-1.2766-9.9415Z"/>
      <path class="cls-3" d="M180.733,60.3812c-2.792.1084-5.2014,1.4456-6.1924,3.5874-.1602.3464-1.2002,2.5939,0,4.3125,1.033,1.4792,3.3564,2.0382,5.6169,1.1217.3931.0516,3.4436.4178,4.5027-1.1217,1.1143-1.6197-.0273-5.2739-3.9272-7.9Z"/>
      <path class="cls-3" d="M224.705,48.4667c-2.1021-.8216-4.6382.2706-5.9941,2.0425-1.2563,1.6418-1.6875,4.1121-.5107,6.1277.0947.1622,1.5544,2.5659,4.3308,2.5949,1.9885.0208,3.5632-1.1879,4.3481-2.438,1.6716-2.6626.7969-7.1659-2.1741-8.3271Z"/>
      <path class="cls-3" d="M286.1151,36.4667c-1.6531-.8068-3.6318-.6202-5.1064.2553-2.5237,1.4985-3.6628,5.0702-2.2979,7.4043,1.0496,1.7947,3.1838,2.1809,3.8298,2.2979,1.7166.3106,4.697.134,6.0996-2.0425,1.6423-2.5485.2859-6.5429-2.5251-7.9149Z"/>
      <path class="cls-3" d="M258.0299,69.2811c.5854-2.8174-.437-6.6216-3.3191-7.9-3.9048-1.7321-7.9509,2.6238-8.4255,3.1493-.4971.5504-3.9536,4.5022-2.2979,7.9149,1.2068,2.4872,4.3037,2.9873,4.8511,3.0638,3.7703.5268,8.3201-2.0338,9.1914-6.2281Z"/>
    </g>
  </g>
</svg>