<?xml version="1.0" encoding="UTF-8"?>
<svg id="Capa_2" xmlns="http://www.w3.org/2000/svg" viewBox="0 0 510.2777 513.8799">
  <defs>
    <style>
      .cls-1 {
        fill: #70569b;
      }

      .cls-2 {
        fill: #5f488c;
      }

      .cls-3 {
        fill: #9570c2;
      }

      .cls-4 {
        fill: #b29ad8;
      }

      .cls-5 {
        fill: #604593;
      }

      .cls-6 {
        fill: #47327c;
      }

      .cls-7 {
        fill: #a486ce;
      }

      .cls-8 {
        fill: #735aaf;
      }

      .cls-9 {
        fill: #8566b2;
      }
    </style>
  </defs>
  <g id="Capa_1-2" data-name="Capa_1">
    <g>
      <g>
        <path class="cls-3" d="M255.1391,508.4724c-28.0176,0-52.2217-10.3574-75.6284-20.374-4.6387-1.9849-9.4351-4.0376-14.1655-5.9663-6.4385-2.6245-13.1807-4.9868-19.7012-7.271-17.813-6.2407-36.2329-12.6938-51.1577-25.3408-10.2456-8.6875-19.5176-19.0889-28.3472-31.8003-2.0605-2.9521-4.0967-6.0381-6.2178-9.4243-8.6948-13.8359-16.1343-28.5483-23.0083-42.4312-15.2432-30.7739-31.5059-67.1089-31.5059-108.9297,0-22.8491,8.5396-42.3472,16.7979-61.2031,3.0317-6.9224,6.1665-14.0806,8.7905-21.2383,2.5835-7.0444,4.9292-14.3706,7.1978-21.4556,7.1528-22.3379,14.5488-45.436,30.5386-63.4795,17.5083-19.769,44.3223-30.9556,70.2534-41.7739,8.0889-3.3745,15.7285-6.5615,22.9502-9.9541,6.8159-3.2007,13.2817-6.5532,19.5352-9.7954,22.4429-11.6367,43.6411-22.6279,73.6685-22.6279,36.4766,0,68.6968,13.4707,101.2271,28.4775,14.6562,6.7656,30.2002,14.2334,44.5854,22.9917,7.1021,4.3203,13.4155,8.6235,19.3003,13.1538,9.0171,6.9414,16.7285,14.1787,23.5752,22.125,16.0967,18.6831,24.061,39.998,32.4927,62.5645,1.4609,3.9097,2.9717,7.9521,4.522,11.9678,1.1665,3.022,2.3604,6.062,3.5625,9.1216,10.0615,25.6187,20.4663,52.1099,20.4663,81.126,0,25.5786-9.1235,48.8359-17.9463,71.3281-1.9282,4.915-3.9219,9.9976-5.7397,14.9238-2.1587,5.8452-4.1304,11.7568-6.0371,17.4736-6.5659,19.6855-12.7676,38.2788-26.1396,54.8506-15.2192,18.856-37.9165,31.0396-59.8672,42.8223-6.3965,3.4336-12.438,6.6763-18.2754,10.0674-33.9106,19.7002-68.9761,40.0718-115.7261,40.0718Z"/>
        <path class="cls-4" d="M255.1389,10.8149c36.262,0,68.0289,13.71,98.9621,27.98,15.1633,7,30.11,14.22,44.0386,22.7,6.5093,3.96,12.8129,8.2,18.8133,12.8201,8.2099,6.3198,15.8671,13.3499,22.7774,21.3699,18.2393,21.1702,25.7993,46.3601,36.0671,72.95,10.6683,27.6401,23.6653,56.8601,23.6653,88.3,0,30.1799-13.4953,57.6702-23.3514,84.3801-9.3688,25.3699-14.665,50.1699-31.3123,70.7998-18.8133,23.3101-50.6562,36.51-76.6505,51.6101-35.8719,20.8401-68.6246,39.3401-113.0098,39.3401-32.3737,0-59.4726-14.4102-87.7521-25.9402-23.9905-9.7798-49.9088-15.21-69.4046-31.73-10.6143-9-19.539-19.4399-27.4022-30.76-2.1012-3.01-4.1158-6.0798-6.0762-9.21-8.3832-13.3398-15.6399-27.6099-22.745-41.96-16.3654-33.04-30.9438-67.1001-30.9438-106.53,0-29.97,15.5206-54.02,25.2576-80.5798,10.7009-29.1802,16.528-60.4402,36.706-83.2102,22.0085-24.8499,61.1405-36.1799,91.4562-50.4199,31.323-14.71,54.068-31.9099,90.904-31.9099M255.1389,0c-31.3457,0-53.113,11.2861-76.1585,23.2349-6.2064,3.218-12.6241,6.5454-19.3427,9.7007-7.1147,3.342-14.7009,6.5068-22.7324,9.8574-26.4944,11.0532-53.891,22.4829-72.2228,43.1814-16.7429,18.8936-24.3156,42.543-31.6388,65.4138-2.2518,7.0327-4.5803,14.3047-7.1248,21.2432-2.5672,7.0024-5.5301,13.7676-8.6669,20.9302C8.7703,212.9275,0,232.9529,0,256.9348c0,42.9893,16.5526,80.0073,32.0675,111.3303,6.9331,14.0027,14.4421,28.8518,23.2794,42.9141,2.1598,3.4487,4.2448,6.6086,6.3651,9.646,9.087,13.082,18.6679,23.8237,29.2759,32.8184,15.6909,13.2961,34.5906,19.9175,52.8682,26.3208,6.4575,2.2622,13.1348,4.6016,19.4481,7.1753,4.6876,1.9111,9.4628,3.9546,14.0807,5.9307,23.9076,10.2307,48.6291,20.8096,77.7541,20.8096,48.2075,0,83.9128-20.7432,118.4426-40.8035,5.7583-3.3452,11.7611-6.5674,18.1163-9.9788,22.4242-12.0366,45.6119-24.4834,61.5173-44.1904,13.9855-17.3313,20.633-37.261,27.0616-56.5347,1.8936-5.677,3.8516-11.5474,5.9801-17.311,1.7999-4.8777,3.6954-9.71,5.7021-14.8257,9.0062-22.9595,18.3189-46.7007,18.3189-73.301,0-30.0396-10.5945-57.0149-20.8401-83.1018-1.198-3.0503-2.3883-6.0808-3.5507-9.0925-1.5408-3.9902-3.0464-8.0195-4.5024-11.916-8.6057-23.0308-16.7342-44.7844-33.4608-64.1987-7.0905-8.2292-15.0632-15.7136-24.3739-22.8809-6.0401-4.6506-12.5135-9.0635-19.7894-13.4895-14.6129-8.8967-30.3248-16.4465-45.1265-23.2795C325.5326,13.7056,292.7114,0,255.1389,0h0Z"/>
      </g>
      <path class="cls-7" d="M77.5927,393.8127c-14.2482-20.5233-26.4444-54.5012-28.2545-59.4783-14.2512-39.1841-22.7664-35.074-24.8641-56.8695-1.5378-15.979,2.0155-28.822,8.4764-52.174,5.6999-20.6012,7.9631-20.3011,15.8226-44.3478,13.7658-42.1171,9.0538-49.863,22.0385-68.3478,11.5329-16.4181,26.4059-26.1887,33.3405-30.261,17.2336-10.1202,21.5781-6.2689,45.7724-17.2173,20.0879-9.0903,19.878-13.0055,48.0328-27.1304,16.4017-8.2286,24.7999-12.3777,34.4706-14.087,16.9285-2.9921,30.1451.2746,48.0327,4.6957,19.6497,4.8566,36.8882,9.1173,51.9884,22.9565,6.8535,6.2812,21.57,19.7689,16.9528,32.8696-2.8692,8.141-12.3616,14.6351-21.4736,15.6521-6.0029.6699-10.6925-1.1487-13.2796-2.0869-14.012-5.0815-29.6014-5.0844-44.3597-7.826-23.7539-4.4128-63.2528-.4222-98.6085,16.1738-10.4025,4.8829-35.019,17.7028-56.6504,43.0436-24.2558,28.4152-31.271,56.7737-34.7532,71.6086-5.9433,25.3203.5392,22.696.7064,102.3914.0256,12.2015-.1081,20.9603,5.0858,31.3043,5.0295,10.0167,11.7365,14.9111,20.9084,32.3478,6.2331,11.8497,6.0915,15.2086,4.5207,17.2174-3.4171,4.3699-14.2574,3.1936-21.4735,0-7.3388-3.2478-11.2417-8.7202-12.432-10.4348Z"/>
      <path class="cls-9" d="M499.4627,256.9349c0,30.1799-13.4953,57.67-23.3514,84.38-9.3688,25.37-14.665,50.17-31.3122,70.7999-18.8133,23.3101-50.6562,36.51-76.6505,51.6101-35.8719,20.84-68.6246,39.34-113.0098,39.34-32.3736,0-59.4726-14.41-87.7521-25.9401-23.9905-9.7799-49.9089-15.21-69.4046-31.73-13.4412-11.3899-24.1638-25.1-33.4784-39.97,13.5387,8.16,29.8392,15.37,49.2591,18.65,28.5828,4.83,52.5516,2.35,52.5516,2.35,22.1492-2.3,25.7776-7.03,46.6163-7.83,26.644-1.03,30.1424,6.33,49.1616,3.13,13.1271-2.21,23.1672-8.78,43.237-21.91,31.5181-20.63,13.3495-32.3489,35.5961-43.6788,18.4126-9.3801,28.3624-14.3232,37.6446-25.4432,5.7079-6.84,21.7662-30.8029,25.0806-48.4131,3.9423-20.97.7147-25.5507,0-44.2009-.39-10.01-17.4902-28.3669-7.3462-49.5249,4.1915-8.7424,25.0998-22.5413,20.9084-54.0013-5.9678-44.79-19.3225-62.8079-19.0732-73.0579,15.4232,9.38,29.6334,20.31,41.5908,34.19,18.2392,21.17,25.7992,46.36,36.067,72.95,10.6683,27.6401,23.6654,56.8601,23.6654,88.3Z"/>
      <path class="cls-1" d="M499.4627,256.9349c0,30.1799-13.4953,57.67-23.3514,84.38-9.3688,25.37-14.665,50.17-31.3122,70.7999-18.8133,23.3101-50.6562,36.51-76.6505,51.6101-35.8719,20.84-68.6246,39.34-113.0098,39.34-32.3736,0-59.4726-14.41-87.7521-25.9401-23.9905-9.7799-49.9089-15.21-69.4046-31.73-10.6143-9-19.539-19.4399-27.4022-30.76,11.1991,6.25,24.8786,13.05,41.4824,19.6101,18.2285,7.21,27.6189,10.84,41.5366,12.52,26.1784,3.1699,36.9118-4.0901,58.487,3.1299,16.0298,5.3701,13.4845,10.51,28.8211,14.8701,24.7054,7.0399,48.1218-1.52,56.7866-4.6901,8.3398-3.0499,16.3005-8.03,32.2112-18,25.4742-15.9601,26.4166-19.23,48.3167-32.87,26.0593-16.23,28.6911-14.05,36.4461-22.7,3.4009-3.78,9.3362-11.3701,17.8061-46.9501,7.0076-29.45,4.9171-32.6,11.015-57.13,8.069-32.5,12.5638-30.37,14.416-48.53,2.4478-24.1299-3.8884-43.8099-10.1812-63.3899-6.9751-21.7001-1.3467-26.86-8.8959-49.11-7.3217-21.58-12.7146-33.0605-21.8747-47.0801,8.2099,6.3199,15.8672,13.35,22.7775,21.37,18.2392,21.17,25.7992,46.36,36.067,72.95,10.6683,27.6401,23.6654,56.8601,23.6654,88.3Z"/>
      <g>
        <path class="cls-5" d="M301.8401,195.4374c-4.0344,23.5444-17.3411,38.444-36.726,60.1645-15.7591,17.66-25.0389,28.052-42.6526,35.0055-23.0257,9.0851-44.3255,5.9822-54.4986,4.3748-12.8829-2.0336-36.1431-5.7096-53.3102-24.0685-14.4119-15.4098-16.7507-32.8462-17.7726-40.4706-2.3313-17.4016,1.8469-31.162,5.8813-42.5184.4087-1.167.8251-2.3063,1.2262-3.4244,3.4062-9.4206,8.2732-22.4682,20.1417-36.0959,16.6297-19.0857,36.4762-27.2344,45.0219-30.6308,11.1571-4.4307,33.8421-13.1244,62.7944-8.7497,6.7291,1.0204,20.4975,3.103,34.2887,10.0286,8.9468,4.4867,17.8937,11.007,24.9482,20.6022,16.4026,22.3215,12.1411,47.1448,10.6575,55.7827Z"/>
        <path class="cls-6" d="M301.8401,195.4374c-4.0344,23.5444-17.3411,38.444-36.726,60.1645-15.7591,17.66-25.0389,28.052-42.6526,35.0055-23.0257,9.0851-44.3255,5.9822-54.4986,4.3748-12.8829-2.0336-36.1431-5.7096-53.3102-24.0685-14.4119-15.4098-16.7507-32.8462-17.7726-40.4706-2.3313-17.4016,1.8469-31.162,5.8813-42.5184-.5223,6.3107-1.3095,16.5908,2.8915,28.8488,1.6652,4.871,8.8484,25.8297,30.8068,36.3684,16.1452,7.7572,32.086,5.9333,40.8739,4.9269,12.1486-1.3907,20.5732-4.885,29.9136-8.7497,11.6113-4.8151,27.6353-11.4542,41.1691-25.7108,2.8688-3.0191,1.1127-1.6284,19.8466-30.0787,12.0653-18.331,13.6095-20.148,14.8054-25.4313,3.7317-16.493-3.9739-31.1549-5.9191-34.7331-3.6181-6.653-7.8721-11.2306-10.9149-14.3125,8.9468,4.4867,17.8937,11.007,24.9482,20.6022,16.4026,22.3215,12.1411,47.1448,10.6575,55.7827Z"/>
        <path class="cls-8" d="M162.4222,124.6164c10.1044-6.998,21.128-9.4802,21.1281-9.4802,13.0283-2.9335,22.2254-5.0043,35.7401-4.74,1.683.0329,15.2648.3958,31.0009,5.4693,5.5284,1.7824,10.0551,3.7375,12.6374,8.0216,1.739,2.8852,3.2398,7.8943.7898,11.3032-3.249,4.5209-11.7492,3.8667-19.3509,3.2816-5.7308-.441-7.6456-1.2726-20.9306-4.3754-10.7229-2.5044-16.197-3.7691-21.7204-4.3754-10.18-1.1176-15.2701-1.6765-20.5357.3646-4.365,1.6919-6.7479,4.0852-13.8221,5.8339-6.7165,1.6603-8.2614.4157-8.6882,0-1.8311-1.7838-.7734-5.5484.395-7.657,1.1621-2.0974,2.8381-3.2869,3.3568-3.6461Z"/>
        <path class="cls-8" d="M148.7976,137.7427c-3.3686-2.4632-13.2308,2.2188-17.7713,9.1155-1.1419,1.7345-3.8379,5.8295-1.9746,8.7509,1.8147,2.8452,6.9783,3.0475,10.2679,2.1877,6.4785-1.6934,8.8138-8.3235,9.478-10.2093.5253-1.4914,2.7573-7.8284,0-9.8447Z"/>
        <path class="cls-8" d="M121.5483,162.9015c-.8074-.1671-1.7345.4847-6.3187,6.7454-4.8255,6.5903-5.3967,8.0513-5.3314,9.8448.0142.3911.2103,4.3609,2.7644,5.4693,3.1712,1.3761,8.5483-2.2795,10.6628-6.3809,1.5843-3.0731,1.1412-6.0167.5924-9.6624-.3995-2.6539-.8586-5.7034-2.3695-6.0162Z"/>
      </g>
      <path class="cls-4" d="M321.4297,46.8562c-.2819-2.1155-2.9223-3.6969-13.8447-7.0435-9.1849-2.8142-14.4454-3.8798-21.4734-5.7391-13.1232-3.4718-11.5989-4.2053-19.2131-5.7391-11.3165-2.2796-20.4776-1.8265-25.1466-1.5652-6.9639.3896-14.1946.7942-22.8862,3.9131-5.9146,2.1224-10.1454,4.8351-18.3655,10.1739-8.2811,5.3784-21.1688,14.49-20.3433,15.6522.6159.867,8.1615-3.6795,24.0164-9.913,12.4546-4.8967,18.6819-7.345,25.9942-8.3478,6.3366-.8691,14.4903-.1446,30.7975,1.3044,9.9555.8846,13.6545,1.6194,17.5179,2.8696,3.0399.9836,2.4701,1.0854,14.4098,6,3.3915,1.3961,8.434,3.4399,15.2574,4.6956,3.9405.7252,6.2362.7755,8.4765-.2609,2.373-1.0977,5.1206-3.6169,4.8032-6Z"/>
      <path class="cls-4" d="M151.2666,69.9432c-2.3588-2.2407-8.3244.236-26.2768,7.4348-22.6354,9.0767-21.9829,8.6808-22.8862,9.1956-16.3004,9.2882-24.8398,21.9758-28.3959,27.3914-1.0647,1.6215-6.1709,9.5178-9.9598,20.9348-2.3223,6.9976-4.4766,16.3027-3.3905,16.6304,1.4403.4344,5.0359-15.9894,18.8599-33.0652,5.9623-7.3647,13.8805-17.1455,27.7602-23.0869,10.8787-4.6567,23.7337-7.8262,23.7338-7.8262,9.1435-2.2544,15.4605-2.9618,19.0718-8.0217,2.0831-2.9186,3.5246-7.6479,1.4834-9.587Z"/>
      <path class="cls-4" d="M42.5571,210.6823c-5.4003,1.1089-5.7859,11.4783-10.7368,34.9565-3.1692,15.0291-4.3421,17.0918-3.9556,23.7391.5233,9.001,3.3095,16.1504,5.0859,20.6086,1.8435,4.6267,2.7728,5.7289,10.7367,19.826,7.8856,13.9585,10.2676,18.7069,10.7367,18.5217.7937-.3134-5.9533-13.9338-11.3018-32.3478-4.4964-15.4802-6.9821-23.1604-6.4986-31.3043.4366-7.3546,2.4573-15.3379,6.4986-31.3043,1.0719-4.2346,1.3511-8.6525,2.8255-12.7826,1.3547-3.795,2.9316-6.7991,1.4127-8.6088-1.0311-1.2285-3.2509-1.623-4.8032-1.3043Z"/>
      <path class="cls-1" d="M390.936,102.6171c-3.2521-3.5481-9.528-5.2432-14.4098-2.3479-5.1857,3.0756-6.2274,9.8062-3.1787,13.8914,3.6498,4.8905,11.442,3.6857,12.5026,3.5217,1.6496-.255,3.9821-.6157,5.7215-2.3479,3.1261-3.1132,2.7244-9.0514-.6357-12.7173Z"/>
      <path class="cls-1" d="M368.6855,53.7663c-7.4098-2.7823-10.7161-.1219-11.3724.1333-4.2123,1.6381-6.4841,10.7622-1.9779,16.6957,3.5588,4.686,11.4343,7.4993,17.2353,4.1739,4.8997-2.8087,6.9848-9.2316,4.8033-13.0435-.9576-1.6734-1.9935-5.4457-8.6883-7.9594Z"/>
      <path class="cls-1" d="M385.0026,296.7692c6.3797-3.5356,8.317-14.8779,2.2603-21.913-4.5657-5.3032-12.8821-7.239-19.7782-4.6957-6.2565,2.3074-11.8279,8.48-10.7367,14.6086,1.1553,6.4884,9.1444,9.3655,13.5622,10.9565,4.0909,1.4733,10.0466,3.6182,14.6923,1.0435Z"/>
      <path class="cls-1" d="M289.8553,398.2475c4.7908-3.5581,4.5254-9.6257,4.45-11.3478-.064-1.4623-.3062-7.0007-5.2977-10.9565-5.1389-4.0725-11.3524-3.33-12.7146-3.1305-1.4296.2094-6.5567,1.0365-9.9598,5.2827-3.5784,4.465-3.6735,10.7426-.6358,15.2609,2.9965,4.4569,8.0205,5.6837,10.3836,6.2609,2.6158.6388,8.9781,2.1925,13.7741-1.3696Z"/>
      <path class="cls-1" d="M351.7328,335.0518c.781-4.8951-2.9252-9.2317-7.2048-10.9564-4.5456-1.8318-10.6762-1.0952-13.9861,2.9347-2.5201,3.0685-2.7441,7.2417-1.0596,10.5653,1.9765,3.8994,6.2357,5.9504,10.1717,6.0652,5.3339.1555,11.2176-3.2114,12.0788-8.6088Z"/>
      <path class="cls-1" d="M114.8615,290.3357c.781-4.8951-2.9252-9.2317-7.2048-10.9564-4.5456-1.8318-10.6762-1.0952-13.9861,2.9347-2.5201,3.0685-2.7441,7.2417-1.0596,10.5653,1.9765,3.8994,6.2357,5.9504,10.1717,6.0652,5.3339.1555,11.2176-3.2114,12.0788-8.6088Z"/>
      <path class="cls-1" d="M134.9495,358.3344c-2.3474-4.0632-8.1023-6.0573-12.7146-4.1738-3.4173,1.3954-5.4871,4.6251-5.6509,7.826-.2337,4.5654,3.4539,8.2201,7.3462,9.3914.7346.2211,3.2677.9833,5.9335,0,4.6119-1.701,7.9863-8.0232,5.0858-13.0436Z"/>
      <path class="cls-1" d="M212.9322,400.0735c1.2314-5.4254-4.8811-9.4252-5.6509-9.913-.8965-.5681-3.7702-2.334-7.6287-2.087-6.1087.391-12.1669,5.6661-11.4431,10.174.4957,3.0868,4.0321,4.946,6.7811,6.3914,2.4218,1.2733,5.6141,2.9515,9.6066,2.2174,3.2129-.5908,7.4391-2.835,8.3351-6.7827Z"/>
      <path class="cls-1" d="M156.423,406.0735c-.0465-.4949-.4353-3.9706-3.6731-6-3.4136-2.1396-8.668-1.8405-11.5844,1.3044-3.3499,3.6123-1.6132,8.8203,1.1302,11.4783.4452.4313,3.31,3.114,7.0637,2.6086,4.4348-.597,7.4494-5.286,7.0636-9.3914Z"/>
      <path class="cls-1" d="M405.0633,155.8997c-1.3212-4.3163-6.218-7.076-11.0193-6.7826-4.6501.2842-9.1419,3.4281-9.889,7.826-.887,5.2218,4.0809,8.8221,4.5208,9.1304.6987.4896,3.4929,2.4475,7.0636,2.087,5.4927-.5544,11.1112-6.4221,9.324-12.2609Z"/>
      <path class="cls-9" d="M298.9673,62.704c-3.2848-3.512-8.9346-4.633-13.5622-3.1304-6.5073,2.1129-10.1708,9.1459-8.2644,14.4783,1.4677,4.1054,5.7867,5.9432,6.993,6.4565,1.1218.4773,6.8316,2.7446,11.655.1957,6.0051-3.1734,8.2669-12.5597,3.1785-18Z"/>
      <path class="cls-9" d="M218.8656,54.4866c-4.53-3.8434-10.9663-2.2759-11.4431-2.1522-5.7815,1.5001-10.8007,7.0174-9.7478,12.3261.8438,4.2546,5.2084,6.4623,6.3573,7.0435,3.6224,1.8323,10.0891,3.1531,14.6217-.3913,5.2532-4.1078,5.1764-12.6141.2119-16.8261Z"/>
      <path class="cls-9" d="M106.1299,104.6714c-2.4809-1.2911-6.0676-.6311-7.7347,1.7609-1.3929,1.9985-1.0393,4.623.4238,6.2609,1.1684,1.308,2.7444,1.6509,3.2846,1.7609.1594.0325,3.4439.656,5.4036-1.174,2.2922-2.1404,1.9548-6.8745-1.3774-8.6086Z"/>
      <path class="cls-9" d="M183.1236,94.7258c.9132-3.7462-1.8821-7.348-4.662-9.1304-.4658-.2986-5.7711-3.579-10.8781-.9131-3.6166,1.8878-5.5331,5.9222-4.662,9.3912.592,2.3575,2.2992,3.7679,2.9667,4.3044,3.7638,3.0249,10.1192,3.5446,14.1273.6521.5897-.4255,2.5105-1.8529,3.108-4.3043Z"/>
      <path class="cls-9" d="M89.1771,171.6823c2.4327-3.7325,1.925-8.9974-1.6952-11.7391-4.0199-3.0444-9.44-1.1316-10.0304-.9131-3.5754,1.3229-7.6534,4.9016-7.0636,9.5217.4828,3.7822,3.8801,6.5879,7.4875,7.4348,4.3379,1.0183,9.0103-.7885,11.3018-4.3043Z"/>
      <path class="cls-9" d="M61.6289,267.5518c2.2568-1.6249,3.5418-4.4608,2.9667-7.2391-.7539-3.642-4.3751-5.5951-7.2049-6.0652-2.305-.3828-5.873-.0787-7.6287,2.1522-1.0728,1.3632-1.0666,2.9342-1.0596,4.6957.0067,1.7097.0147,3.7017,1.2714,5.2826,2.2097,2.7797,7.9341,3.8529,11.6551,1.1738Z"/>
      <path class="cls-9" d="M92.7089,377.6388c.1036-.1681,1.9349-3.2538.1413-5.8696-1.4444-2.1064-4.1754-2.3562-5.5097-2.4783-2.1834-.1997-6.5952.0985-7.9113,2.8696-.9855,2.0751.3428,4.3201.5651,4.6957,1.0953,1.8511,2.9464,2.64,4.0969,3.1304.9474.4038,1.8015.7678,2.9667.7826,2.2269.0283,4.4821-1.233,5.6509-3.1304Z"/>
      <path class="cls-9" d="M77.8047,311.1823c.2304-3.7045-2.6898-7.7414-4.0969-9.1957-2.5133-2.5973-8.0232-1.8922-11.4431-.1957-3.6401,1.8058-7.3815,5.9597-6.3573,9.9783.7469,2.9303,3.6971,4.491,5.9335,5.674,2.0416,1.0801,6.3902,3.3804,9.536,1.7609,2.8491-1.4668,6.1256-3.1611,6.4279-8.0217Z"/>
      <path class="cls-9" d="M76.6745,220.0083c1.2172-3.1705-.1912-7.2554-3.8144-8.8043-4.1775-1.7859-9.1313.7264-10.3836,4.3043-.8261,2.3602.0444,4.9388,1.6952,6.6522.2858.2966,2.9172,2.9338,6.7811,2.3478,2.8487-.4321,4.9138-2.3958,5.7216-4.5Z"/>
      <path class="cls-2" d="M406.8293,356.378c-.5938-4.4951-4.7679-7.4595-8.6883-8.2174-5.3319-1.0309-11.3955,1.7875-12.9265,6.4565-1.2948,3.9484,1.2408,7.4241,1.6952,8.0217,2.479,3.26,7.3828,5.504,12.2907,4.1086,4.6941-1.3346,8.2492-5.6736,7.6288-10.3695Z"/>
      <path class="cls-2" d="M445.6087,243.2909c1.856-5.5385-1.2074-11.2268-5.9335-13.6956-6.812-3.5585-16.8092-.2874-19.0718,6.6521-2.257,6.9225,4.0871,14.7214,11.8668,15.2609,5.3708.3724,11.2975-2.7241,13.1384-8.2174Z"/>
      <path class="cls-2" d="M431.3401,171.2909c-.3903-.6184-2.5602-4.0574-6.4986-4.4347-3.9608-.3795-7.34,2.5647-8.7589,5.2173-2.3981,4.4828-.1354,9.885,3.3905,12.7827.6862.564,4.3702,3.5916,7.9114,2.6086,5.1379-1.4261,7.4727-10.6002,3.9556-16.174Z"/>
      <path class="cls-2" d="M332.7316,401.8997c-1.2367-2.3273-4.0826-3.4493-6.6399-3-3.5257.6195-4.7139,3.9116-4.8032,4.1738-.6627,1.9467-.4284,4.7177,1.5539,6.1305,1.6654,1.1869,3.8494.9055,4.8033.7826.7067-.0911,1.9579-.2523,3.1081-1.0435,1.9234-1.323,3.4283-4.3141,1.9778-7.0435Z"/>
      <path class="cls-2" d="M387.9693,392.9649c-.2405-3.5509-2.8446-7.7653-7.205-8.4131-5.0788-.7545-8.6134,3.9132-8.9001,4.3044-2.1659,2.9564-3.2222,7.9659,0,11.3478,2.1671,2.2744,5.6561,3.1688,8.6883,2.5435,4.7708-.984,7.7012-5.5839,7.4168-9.7826Z"/>
      <path class="cls-2" d="M282.2265,438.5518c.7732-3.9218-2.4171-7.7722-6.3572-8.8043-3.8055-.9968-6.9347.9957-7.205,1.174-3.1111,2.0521-5.016,6.3568-2.9667,9.9783,2.065,3.6492,6.9357,4.4674,10.3836,3.5217,2.5771-.7068,5.524-2.7183,6.1453-5.8696Z"/>
      <path class="cls-2" d="M228.7547,427.9866c-.7227-2.6642-4.6507-3.4414-5.0859-3.5217-2.7319-.5045-7.21.1188-8.6176,3.3914-1.0664,2.4794-.0216,5.6685,2.4017,7.0435,2.2214,1.2605,4.7613.5201,5.6509.2609.5404-.1575,2.6961-.8436,4.2382-2.8696.6443-.8464,1.9023-2.4993,1.4127-4.3043Z"/>
      <path class="cls-2" d="M179.4505,440.3127c.7182-2.4045-1.9084-5.3983-4.662-6.6521-3.1748-1.4456-7.3891-.9745-9.7478,1.3695-.2612.2595-2.5996,2.6512-1.6952,5.087.7781,2.0957,3.4286,2.8018,4.662,3.1304,4.1768,1.1127,10.501.219,11.4431-2.9348Z"/>
      <path class="cls-2" d="M428.6559,294.9432c-.4631-1.3463-1.9835-2.33-3.6024-2.1522-1.7763.1951-2.7814,1.6904-2.9667,2.9348-.2121,1.424.5516,3.1754,2.1191,3.6196,1.7022.4823,3.2066-.9017,3.3905-1.0762.2213-.21,1.6484-1.6144,1.0596-3.326Z"/>
      <path class="cls-6" d="M463.9742,152.2475c-.3792-.1071-2.225-.6283-3.6732.2609-1.9105,1.173-2.3448,4.3191-.7063,6.2609,1.1499,1.3627,3.4209,2.2513,5.3683,1.4348,2.3227-.9739,2.9523-3.8569,1.9779-5.7391-.788-1.5221-2.4621-2.0748-2.9667-2.2174Z"/>
      <path class="cls-6" d="M456.2041,127.4649c-1.6695-2.1876-5.2876-3.0454-7.5228-1.4674-2.3956,1.6912-2.1326,5.4243-.1059,7.4348,1.5246,1.5123,4.3501,2.3507,6.4633,1.174,2.4757-1.3787,2.8696-4.9083,1.1655-7.1414Z"/>
      <path class="cls-6" d="M461.3606,181.0083c.415-.2643,1.8747-1.2926,1.9072-3.0652.0233-1.271-.6931-2.6035-2.0484-3.2609-.1252-.0607-1.7358-.8103-3.3906-.0652-1.618.7286-2.1901,2.3965-2.1191,3.6521.0714,1.2615.8386,2.9344,2.4723,3.3914,1.4973.4188,2.8337-.4325,3.1787-.6522Z"/>
      <path class="cls-6" d="M486.8603,208.7258c.3939-1.0262,1.1759-3.0637-.1412-4.826-1.086-1.4532-3.248-2.249-5.2272-1.6957-2.4237.6776-3.1325,2.9757-3.2493,3.3914-.5513,1.9633.2829,4.0258,1.8366,5.2173.2999.23,2.1376,1.6395,4.0969,1.0436,1.6787-.5106,2.3066-2.1466,2.6842-3.1305Z"/>
      <path class="cls-6" d="M471.2497,199.7583c.0569-1.9871-1.4775-3.8459-3.6026-4.3043-2.4192-.5219-5.0915.882-5.6155,3.1304-.5406,2.3203,1.5078,4.2476,3.2846,4.8914.3682.1334,1.647.5764,3.0726.0978,1.7001-.5708,2.8143-2.1854,2.8608-3.8152Z"/>
      <path class="cls-6" d="M492.0168,239.7692c.6489-1.1836.6451-2.7997-.4237-4.0109-1.0409-1.1796-2.7614-1.6003-4.2382-1.174-1.9098.5514-2.9987,2.4003-2.7548,4.1088.1843,1.2908,1.1417,2.5875,2.6489,3.0326,1.8749.5537,3.9207-.4113,4.7679-1.9565Z"/>
      <path class="cls-6" d="M474.7461,263.0518c1.183-1.095,2.3407-3.1144,1.5893-5.0869-.9176-2.4089-4.0763-3.1577-6.1453-3.0326-.5958.036-3.5478.2925-4.768,2.4457-1.3235,2.3356.0329,5.7694,2.8608,6.9456,2.2795.9481,4.9013.1738,6.4631-1.2717Z"/>
      <path class="cls-6" d="M483.8936,301.4649c2.9119-1.1041,3.7369-4.526,3.2493-6.9131-.0409-.2-.9191-4.1313-4.8032-5.0869-2.2661-.5575-5.1057.0088-6.6399,1.9565-1.9131,2.4288-.6616,5.5651.5651,7.174,1.4291,1.8743,4.608,4.0149,7.6287,2.8695Z"/>
      <path class="cls-6" d="M459.4887,299.8344c.1219-.1062,2.1031-1.8911,1.4834-4.2064-.5595-2.0907-2.9503-3.5331-5.2978-3.2283-1.9375.2516-3.4168,1.6378-3.9203,3.2283-.5267,1.6639-.0571,3.7784,1.6952,4.8912,1.9761,1.2549,4.5722.5939,6.0394-.6848Z"/>
      <path class="cls-6" d="M461.078,336.0954c2.1286-.8485,3.4845-3.4988,2.3311-5.6088-.8203-1.5004-2.7565-2.448-4.6621-2.0869-1.6963.3214-2.8493,1.5814-3.2493,2.8695-.5064,1.6312.1037,3.6023,1.766,4.5652,1.1763.6814,2.6501.7251,3.8144.261Z"/>
      <path class="cls-6" d="M435.1544,364.204c1.3586.587,2.9058.3514,3.9557-.2609,2.2386-1.3055,3.0094-4.7863,1.1302-6.7826-1.1087-1.1779-3.1578-1.8579-4.9445-1.174-2.1627.8279-2.7135,3.1844-2.543,4.6957.0368.3251.2947,2.6113,2.4017,3.5217Z"/>
      <path class="cls-6" d="M436.0728,402.3562c-2.7859-2.5461-7.0713-3.2231-10.5954-1.9565-4.3071,1.548-7.4013,5.9717-6.3573,9.9783.9556,3.6676,4.932,5.2701,5.9335,5.6738,2.8398,1.1445,8.2725,2.0582,11.655-1.1738,3.4492-3.2958,2.9917-9.2064-.6357-12.5217Z"/>
      <path class="cls-6" d="M390.0884,419.5735c-.5253-.5813-3.4271-3.7921-7.4169-3.1304-3.3722.5593-5.7884,3.5975-5.9333,6.6522-.1829,3.8557,3.2711,7.36,7.4168,7.6304,3.5791.2335,7.2916-1.9683,8.0526-5.0869.7149-2.9294-1.491-5.3702-2.1191-6.0653Z"/>
      <path class="cls-6" d="M355.0527,463.9866c2.7134-2.2683,3.0915-6.4247,1.4128-9.3912-2.1495-3.7986-7.4321-5.2231-11.5844-3.9131-4.6773,1.4757-7.9668,6.4362-6.4986,10.174,1.6035,4.0823,8.0527,4.5946,9.324,4.6956,1.8594.1477,4.9989.3971,7.3462-1.5652Z"/>
      <path class="cls-6" d="M300.5214,471.5518c-.0475-.965-.1542-3.13-1.8366-4.1738-2.1077-1.3077-5.057.1567-5.7921.5217-1.9244.9556-4.9015,3.3361-4.2382,5.6086.7298,2.5006,5.2918,2.8977,7.0636,2.8696,1.0726-.017,2.5747-.0408,3.6732-1.0436,1.2599-1.1501,1.1763-2.8468,1.1302-3.7826Z"/>
      <path class="cls-6" d="M268.5937,490.5954c.8462-2.2505-.3044-4.9979-2.2603-6.261-4.1764-2.6968-12.2645,1.2189-12.432,4.6957-.106,2.1996,2.9529,4.3317,5.6509,4.9565,3.2657.7563,7.8655-.2642,9.0414-3.3912Z"/>
      <path class="cls-6" d="M241.1868,469.9866c-.859-1.7596-3.0084-3.2245-5.3684-2.8695-2.6543.3993-4.5631,2.9485-4.0969,4.9564.3974,1.7118,2.4064,2.5375,3.5318,3,1.1429.4697,3.2128,1.3204,4.8033.3914,1.7337-1.0127,2.0308-3.6334,1.1302-5.4783Z"/>
      <path class="cls-6" d="M211.0957,454.8562c-.6543-2.5955-3.854-3.7661-5.7922-4.0436-2.955-.423-7.4201.594-8.3351,3.7827-.8398,2.9264,1.8065,5.9529,4.662,6.913,2.0984.7054,3.9651.1791,4.5207,0,2.821-.9095,5.67-3.7742,4.9446-6.6521Z"/>
      <path class="cls-6" d="M166.8772,462.5518c-.1515-.9783-.6206-4.0081-2.9667-5.2174-3.6288-1.8706-10.5128,1.2507-10.7367,5.3479-.1613,2.951,3.1838,5.4733,6.0747,6.2609.6421.1749,4.1759,1.1376,6.3573-.7826,1.8832-1.6577,1.4695-4.3296,1.2714-5.6088Z"/>
      <path class="cls-1" d="M299.7998,322.5954c-2.175-2.8234-6.9988-3.3511-10.4542-2.087-4.7291,1.73-8.2415,7.309-5.9335,11.4783,1.9258,3.4789,7.1884,4.6838,11.0193,3.3914,5.4765-1.8477,8.3524-8.9089,5.3683-12.7826Z"/>
      <path class="cls-1" d="M376.9348,213.9432c-4.035-1.6725-10.4326-.2142-12.7146,4.3043-2.1653,4.2876.5464,9.0117,3.8144,11.3479,3.2298,2.309,8.3922,3.2787,11.4431,1.1738,4.8582-3.3517,3.8776-14.1648-2.5429-16.826Z"/>
      <path class="cls-1" d="M203.8049,352.2692c-2.3131-1.6471-5.6725-1.8225-8.2645-.3912-2.7232,1.5038-4.3981,4.6703-3.3905,7.6304,1.0994,3.2302,4.7779,4.4072,7.205,4.5.5825.0222,3.7375.1428,5.7215-1.9565,2.4477-2.5901,2.0406-7.4242-1.2715-9.7826Z"/>
      <path class="cls-1" d="M334.553,284.5083c-2.2797-2.1512-6.0974-2.2926-8.7589-1.5652-4.8161,1.3162-9.0683,6.3569-7.3462,11.4783,1.5862,4.717,7.4357,7.1093,11.5844,6,6.4213-1.717,8.836-11.8408,4.5207-15.9131Z"/>
      <path class="cls-1" d="M348.9628,111.4214c-3.4225-2.3525-8.5379-2.3938-11.8669,0-4.7261,3.3984-4.3921,10.6554-.4238,14.4783,2.5206,2.4282,7.073,4.0159,11.0193,2.3478,4.6286-1.9565,5.6367-7.2141,5.0859-10.5652-.1323-.8047-.6744-4.1024-3.8144-6.2609Z"/>
      <path class="cls-1" d="M369.3061,145.6606c-2.4569-1.8838-6.5433-1.4318-8.6883.9783-1.8866,2.1198-2.0621,5.5192.2119,7.6304,2.2421,2.0817,5.8432,1.9619,8.0526.3914,2.9825-2.1201,3.3013-6.7937.4238-9Z"/>
      <path class="cls-1" d="M274.319,261.714c-1.7196-1.3185-4.5799-1.0021-6.0812.6847-1.3205,1.4837-1.4434,3.8631.1483,5.3408,1.5693,1.457,4.0899,1.3732,5.6363.2739,2.0876-1.4839,2.3107-4.7552.2966-6.2994Z"/>
      <path class="cls-1" d="M322.1316,145.6606c-2.4569-1.8838-6.5433-1.4318-8.6883.9783-1.8866,2.1198-2.0621,5.5192.2119,7.6304,2.2421,2.0817,5.8432,1.9619,8.0526.3914,2.9825-2.1201,3.3013-6.7937.4238-9Z"/>
      <path class="cls-1" d="M337.6976,182.0099c-2.4569-1.8838-6.5433-1.4318-8.6883.9783-1.8866,2.1198-2.0621,5.5192.2119,7.6304,2.2421,2.0817,5.8432,1.9619,8.0526.3914,2.9825-2.1201,3.3013-6.7937.4238-9Z"/>
      <path class="cls-1" d="M249.5067,365.1171c-.7327-3.1058-3.948-5.9152-7.6287-5.7391-4.278.2046-6.3126,4.3044-6.4986,4.6956-1.7175,3.6124-.5878,8.7061,2.8255,10.174,2.1958.9443,4.5503.0499,5.3683-.2609,3.2073-1.2184,6.9097-4.7313,5.9335-8.8695Z"/>
      <path class="cls-1" d="M167.0034,376.0735c-1.0826-2.5228-3.8038-3.9104-6.216-4.1738-3.4603-.3779-7.5097,1.4231-8.4764,4.6957-.9965,3.3734,1.9086,6.1912,2.2604,6.5217,1.731,1.6265,4.8323,3.0552,7.9113,2.0869,3.8415-1.2081,6.0205-5.6357,4.5208-9.1305Z"/>
      <path class="cls-1" d="M111.9069,326.7692c-2.5885-3.605-8.62-4.9767-12.9971-2.3478-3.659,2.1976-5.2266,6.6293-3.6731,10.4348,1.7273,4.2312,6.82,6.4805,11.0193,5.4781,3.9078-.9327,5.6247-4.3431,5.9334-4.9564.2356-.468,2.377-4.9049-.2825-8.6088Z"/>
      <path class="cls-1" d="M167.7656,309.0776c-2.5885-3.605-8.62-4.9767-12.9971-2.3478-3.659,2.1976-5.2266,6.6293-3.6731,10.4348,1.7273,4.2312,6.82,6.4805,11.0193,5.4781,3.9078-.9327,5.6247-4.3431,5.9334-4.9564.2356-.468,2.377-4.9049-.2825-8.6088Z"/>
      <path class="cls-1" d="M344.264,244.9937c-1.5425-2.1482-5.1366-2.9655-7.7448-1.399-2.1803,1.3095-3.1145,3.9503-2.1887,6.218,1.0293,2.5213,4.0639,3.8616,6.5663,3.2644,2.3286-.5558,3.3517-2.588,3.5357-2.9535.1404-.2789,1.4164-2.9228-.1684-5.1299Z"/>
      <path class="cls-1" d="M367.6108,307.4649c-3.5781-2.0652-8.8514-.9299-10.5954,2.3478-1.8887,3.5497,1.1444,8.1418,5.0859,9.3914,2.4054.7626,5.7354.4661,7.6287-1.5652,2.6096-2.7996,1.6533-7.9966-2.1191-10.174Z"/>
      <path class="cls-1" d="M278.7721,290.066c-3.758.0298-7.4074,3.3725-7.3025,6.7689.1137,3.6783,4.5838,5.896,8.2599,5.0538,2.2435-.514,4.738-2.293,5.3144-4.7748.7944-3.4206-2.3097-7.0793-6.2717-7.0479Z"/>
      <path class="cls-1" d="M305.5724,232.6099c-3.5781-2.0652-8.8514-.9299-10.5954,2.3478-1.8887,3.5497,1.1444,8.1418,5.0859,9.3914,2.4054.7626,5.7354.4661,7.6287-1.5652,2.6096-2.7996,1.6533-7.9966-2.1191-10.174Z"/>
      <path class="cls-2" d="M359.6996,361.8562c-1.7644-1.3882-4.4765-1.4056-6.3573-.2609-2.5829,1.572-3.2117,5.1001-1.554,7.1738,1.4889,1.8627,4.2479,1.8329,4.5208,1.8262.4391-.0109,2.0042-.0498,3.2493-1.0436,2.1278-1.6984,2.6952-5.6862.1413-7.6956Z"/>
      <path class="cls-2" d="M424.6851,327.9432c-.144-1.5663-1.255-3.2238-3.108-3.7826-2.2864-.6896-4.9127.5317-5.7922,2.6086-.768,1.8136-.0082,3.8171,1.4128,4.9565.2388.1915,1.7356,1.3523,3.6731,1.0435,2.2946-.3658,4.0188-2.6035,3.8144-4.826Z"/>
      <path class="cls-2" d="M403.6354,308.6388c-1.8869-.5793-4.5697-.5356-6.3573.9783-2.5651,2.1724-2.5424,6.7415.4239,9,2.0921,1.593,5.4355,1.8745,7.8407.1956,2.7826-1.9424,2.9889-5.5869,1.4833-7.826-1.0851-1.6138-2.8466-2.1808-3.3905-2.3478Z"/>
      <path class="cls-2" d="M449.8317,202.0735c-1.5841-3.075-5.5506-4.6495-9.0415-3.913-4.4171.932-6.9583,5.3295-6.216,9.1304.5722,2.9298,3.1822,5.951,6.7811,6.2609,3.9958.344,6.6405-2.876,7.0636-3.3912.4133-.5032,3.3882-4.2526,1.4128-8.087Z"/>
      <path class="cls-2" d="M410.5578,201.8127c-1.9303-1.2417-5.3947-.6805-6.6398,1.6957-1.0342,1.9738-.1243,4.412,1.8365,5.4783,1.3657.7427,3.2044.7998,4.5207,0,2.4287-1.4757,2.6841-5.6292.2826-7.174Z"/>
      <path class="cls-2" d="M430.9011,121.9866c-.8528-2.4698-3.6748-4.7491-6.7811-4.174-3.1766.5881-4.6792,3.7964-4.5208,6.2609.1521,2.3662,1.8876,4.8608,4.5208,5.4783.294.069,1.7875.3931,3.3905-.2609,2.6603-1.0852,4.4048-4.3672,3.3905-7.3043Z"/>
      <path class="cls-2" d="M420.0231,92.6388c-.8579-1.7281-3.2013-2.5212-4.9445-1.6957-1.9544.9255-2.3725,3.5151-1.1302,5.0869.9053,1.1454,2.6992,1.7588,4.2382,1.174,1.8251-.6936,2.6909-2.8442,1.8365-4.5652Z"/>
      <path class="cls-2" d="M329.0433,429.1606c.3656-4.1465-4.641-9.1017-10.5954-9.3914-5.1634-.2512-10.7386,3.0203-11.4431,7.8262-.5146,3.5107,1.6905,7.0183,4.662,8.6086,6.2836,3.363,16.8768-1.3741,17.3765-7.0435Z"/>
      <path class="cls-1" d="M317.6002,356.7692c-1.4189-3.4218-5.7757-5.5197-9.324-4.4348-4.4525,1.3612-6.1656,7.2852-3.6731,10.9565,1.5544,2.2896,4.8349,3.8367,7.9113,3.1305,4.1639-.9559,6.7029-5.7528,5.0859-9.6522Z"/>
      <path class="cls-1" d="M296.0364,112.031c-1.4189-3.4218-5.7757-5.5197-9.324-4.4348-4.4525,1.3612-6.1656,7.2852-3.6731,10.9565,1.5544,2.2896,4.8349,3.8367,7.9113,3.1305,4.1639-.9559,6.7029-5.7528,5.0859-9.6522Z"/>
      <path class="cls-1" d="M236.7379,311.5703c-1.4189-3.4218-5.7757-5.5197-9.324-4.4348-4.4525,1.3612-6.1656,7.2852-3.6731,10.9565,1.5544,2.2896,4.8349,3.8367,7.9113,3.1305,4.1639-.9559,6.7029-5.7528,5.0859-9.6522Z"/>
      <path class="cls-2" d="M427.228,266.7692c-2.8796-2.5168-8.5555-2.641-11.0193.2609-2.5406,2.9923-.1113,7.3717,0,7.5653,1.8341,3.1921,6.2348,5.6064,9.324,4.4347,3.9748-1.5077,5.5708-8.8735,1.6953-12.2609Z"/>
      <path class="cls-9" d="M57.1637,193.5954c-1.681-1.4922-4.5759-1.8759-6.7811-.7827-3.1109,1.5421-3.749,5.4777-2.331,8.0217,1.0214,1.8326,3.415,3.4908,5.7216,3.1305,1.0687-.167,1.7837-.7148,2.1191-.9783,2.5069-1.9691,4.1308-6.853,1.2715-9.3912Z"/>
      <path class="cls-9" d="M255.7227,42.6823c-3.7719-1.8492-8.8446-.8321-11.3019,2.6087-2.0252,2.8358-1.8329,6.7004.5651,9.3913,2.5906,2.907,7.0227,3.6218,10.4542,2.0869,2.6557-1.1879,4.5743-3.6617,4.8032-6.5217.2554-3.1899-1.6473-6.1564-4.5207-7.5652Z"/>
      <path class="cls-9" d="M332.2926,90.4214c.8125-2.2733-.8328-4.9792-3.3905-5.6088-1.7303-.4259-3.6704.1495-4.8032,1.4348-1.6749,1.9003-1.2715,4.9961.8476,6.3914,2.4532,1.6152,6.4026.4227,7.3462-2.2174Z"/>
      <path class="cls-9" d="M246.6812,82.4649c.6636-1.9435-1.6224-3.9325-1.9072-4.1739-.1493-.1266-2.7015-2.2181-5.8628-1.3696-.3832.1028-3.2329.9115-3.7438,3.1956-.3892,1.7404.8409,3.169,1.2008,3.587.3477.4038,1.5184,1.6385,3.4612,1.8914,1.4383.1871,2.5208-.2653,3.6024-.7174,1.4423-.6029,2.8291-1.1825,3.2493-2.4131Z"/>
      <path class="cls-9" d="M147.5077,108.0301c-.4138-3.114-5.1056-5.4727-9.1827-5.2174-.8836.0553-5.1127.4446-6.9224,3.7827-1.5406,2.8418-.4754,6.2483,1.6953,8.2173.4674.424,2.0898,1.7825,4.5207,1.9565,4.205.3011,7.0336-3.2137,7.9113-4.3043,1.0873-1.3511,2.2033-2.7378,1.9778-4.4348Z"/>
      <path class="cls-9" d="M96.049,134.9975c-.2843-.6866-1.0671-2.5775-3.0727-3.5217-3.3522-1.5781-7.1575.8837-7.7347,1.2717-.935.6285-3.3883,2.2778-3.3905,4.8914-.0023,2.6776,2.5697,4.3556,3.3905,4.8912.7414.4838,3.5416,2.3108,6.7811,1.2717,3.2796-1.0519,4.2434-4.1538,4.3441-4.5.5924-2.0348-.077-3.7227-.3179-4.3043Z"/>
      <path class="cls-9" d="M56.7398,286.7258c-1.0497-2.4503-3.7774-4.2843-6.5692-4.1086-4.0553.2551-6.7566,4.6569-6.1453,8.2173.3476,2.0249,1.9248,4.6985,4.8739,5.2827,3.8077.7543,6.5496-2.6387,6.7811-2.9348.2925-.3743,2.4429-3.2273,1.0595-6.4565Z"/>
    </g>
  </g>
</svg>