<?xml version="1.0" encoding="UTF-8"?>
<svg id="Capa_2" xmlns="http://www.w3.org/2000/svg" viewBox="0 0 558.369 558.3794">
  <defs>
    <style>
      .cls-1 {
        fill: #599dd1;
      }

      .cls-2 {
        fill: #9cd1f2;
      }

      .cls-3 {
        fill: #1e86c6;
      }

      .cls-4 {
        fill: #2d9cd3;
      }

      .cls-5 {
        fill: #0476af;
      }

      .cls-6 {
        fill: #86bfea;
      }

      .cls-7 {
        fill: #6cace4;
      }
    </style>
  </defs>
  <g id="Capa_1-2" data-name="Capa_1">
    <g>
      <g>
        <path class="cls-7" d="M279.1842,554.3718c-31.2324,0-56.7266-10.1938-83.7168-20.9863-3.7285-1.4907-7.4766-2.9893-11.2607-4.4683-4.0859-1.5947-8.2148-3.1665-12.3594-4.7441-27.0498-10.2969-55.0215-20.9443-76.3584-40.0854-.7178-.6426-1.4355-1.3091-2.1328-1.9849-14.1143-13.4448-23.5479-30.8711-30.1875-44.5479-3.0752-6.3145-6.0205-12.8408-8.8691-19.1523-3.4326-7.6045-6.9824-15.4678-10.7324-22.8906-2.2041-4.3623-4.4385-8.6855-6.6631-12.9902-16.918-32.7373-32.8965-63.6592-32.8965-103.3369,0-21.7529,6.335-37.7441,13.043-54.6738,2.625-6.6255,5.3389-13.4766,7.7646-20.9092,2.2676-6.9634,4.3584-14.2788,6.5713-22.0244,6.9971-24.4863,14.2324-49.8071,28.2842-68.3618,20.4014-26.9448,47.5957-42.6921,76.3877-59.364,2.459-1.4238,4.9297-2.8542,7.4072-4.2988C184.0426,25.8975,228.569,4.0073,279.1842,4.0073c33.1572,0,62.7021,12.095,91.2744,23.7917,3.082,1.2615,6.1562,2.52,9.2266,3.7598l3.3701,1.3606c33.6484,13.5757,65.4297,26.3987,90.7129,51.6819,19.3281,19.3386,30.6572,45.4995,40.6533,68.5806l1.0225,2.355c2.1895,5.0464,4.4541,10.2646,6.7402,15.3018,0,0,.6445,1.4219.8115,1.7803l2.498,5.4707c14.8457,32.4658,28.8672,63.1309,28.8672,101.0952,0,28.6226-10.8262,54.7764-21.2959,80.0693-2.4053,5.8101-4.8916,11.8179-7.1436,17.6367-1.3193,3.4116-2.6143,6.8052-3.9004,10.1753-12.1992,31.9727-23.7227,62.1719-48.2529,86.7021-15.9951,15.9956-41.4619,27.8936-63.9297,38.3911-6.8994,3.2236-13.417,6.2686-19.4033,9.3003-34.9121,17.6606-65.0625,32.9121-111.251,32.9121Z"/>
        <path class="cls-2" d="M279.1844,8.0146c35.89,0,67.65,14.6001,99,27.26,34.0601,13.76,67.2001,26.6101,92.75,52.1602,18.42,18.4299,29.23,42.9099,39.8101,67.3398,2.58,5.9402,5.14,11.8801,7.7899,17.72.28.6101.55,1.2202.8301,1.8201,15.25,33.48,30.99,65.6501,30.99,104.8701,0,34.4897-16.4301,65.9199-28.17,96.2598-13.75,35.55-24.78,69.02-51.25,95.49-20.24,20.24-56.52,33.8901-82.3099,46.9502-36.75,18.5898-65.4501,32.48-109.4401,32.48-34.78,0-62.96-13.24-93.52-25.1802-30.5599-11.9299-63.5-22.5498-87.5-44.0798-.6799-.6101-1.36-1.24-2.0199-1.8801-12.65-12.05-21.55-27.3098-29.3701-43.4199-6.7699-13.8999-12.73-28.4399-19.6299-42.1001-18.55-36.7-39.13-70.5798-39.13-114.5198,0-29.3601,11.97-47.8601,20.61-74.3401,9.4199-28.9199,16.27-65.48,34.24-89.21,21.64-28.5801,51.5-44.48,82.62-62.6201,40.0699-23.3599,83.98-45,133.7-45M279.1844,0c-51.5671,0-96.6737,22.1521-137.7363,46.0906-2.4738,1.4421-4.9398,2.8701-7.3945,4.2915-29.1526,16.8804-56.6884,32.8247-77.5787,60.4148-14.5033,19.1521-21.8431,44.8386-28.9413,69.6794-2.2029,7.709-4.2834,14.9907-6.5295,21.8862-2.3856,7.3118-5.077,14.1045-7.6797,20.6738-6.8522,17.2952-13.3243,33.6311-13.3243,56.1484,0,40.6526,16.9517,73.4556,33.3452,105.1785,2.189,4.2358,4.4524,8.6157,6.6465,12.9568,3.7074,7.3396,7.2367,15.1584,10.6499,22.72,2.8624,6.3413,5.8223,12.8984,8.9275,19.2739,6.778,13.9636,16.4332,31.783,31.0232,45.6904.6829.6619,1.4293,1.3564,2.2195,2.0654,21.8917,19.6387,50.2166,30.4209,77.6086,40.8479,4.0627,1.5464,8.2639,3.1455,12.3295,4.7327,3.7634,1.4705,7.5597,2.9885,11.2311,4.4565,26.1545,10.458,53.1996,21.2725,85.2035,21.2725,21.2395,0,40.3003-3.0776,59.9855-9.6855,17.3594-5.8271,33.6194-13.8171,53.0723-23.6575,5.9342-3.0051,12.4238-6.0371,19.2946-9.2473,22.7668-10.6372,48.5713-22.6938,65.0649-39.1873,25.1356-25.1357,36.8074-55.7244,49.1644-88.1091,1.2834-3.3635,2.5758-6.7507,3.8932-10.157,2.2346-5.7747,4.6023-11.4946,7.1091-17.5505,10.6195-25.6543,21.6006-52.1821,21.6006-81.6003,0-38.8357-14.8595-71.3325-29.2297-102.7593-.8268-1.8081-1.6548-3.6187-2.4811-5.4331l-.0157-.0344-.0161-.0344c-.1531-.3279-.3029-.6592-.4532-.9919l-.3546-.78c-2.2667-4.9958-4.5334-10.2197-6.7255-15.272l-.9973-2.2976c-10.1349-23.4021-21.6259-49.9353-41.4926-69.813-25.8616-25.8616-58.0103-38.8325-92.0465-52.5652l-3.3701-1.3604c-3.0654-1.2378-6.1338-2.4939-9.2095-3.7532C343.0459,12.2468,313.1298,0,279.1844,0h0Z"/>
      </g>
      <path class="cls-1" d="M550.3545,279.1847c0,34.4899-16.43,65.92-28.17,96.2599-13.75,35.55-24.78,69.02-51.25,95.49-20.24,20.24-56.52,33.8901-82.31,46.9501-36.75,18.59-65.45,32.48-109.44,32.48-34.78,0-62.96-13.24-93.52-25.1801-30.56-11.9299-63.5-22.5499-87.5-44.08-13.74-12.33-23.16-28.35-31.39-45.2999,17.7,10.26,41.86,21.9199,73.5,22.08,17.73.09,24.98-3.51,49.3-1.5699,29.86,2.3899,37.97,9.3199,64.18,14.09,16.3,2.97,52,9.47,89.6-3.91,35.25-12.54,55.94-36.77,67.31-50.09,22.66-26.54,38.4801-45.9339,48.9201-73.3039,6.6-17.29-.9301-23.3561,10.9499-59.3461,14.11-42.77,12.5453-74.7599,20.0852-98.48,4.24-13.35-.2609-37.8144,20.1248-30.5,2.58,5.94,5.14,11.88,7.79,17.72,15.5,34.13,31.82,66.76,31.82,106.69Z"/>
      <path class="cls-6" d="M440.7936,76.753c-18.5926-13.0154-30.1349-13.4161-61.0435-23.4783-47.5324-15.4741-44.2481-29.5916-71.2174-35.4217-38.685-8.3628-65.4611-5.4696-100.4829,12.5304-20.913,10.7486-34.1574,19.045-81.0824,46.3696-39.3477,22.9124-46.4132,30.1802-51.6522,36.7826-17.624,22.2103-24.6116,49.5329-28.9565,66.5217-4.4614,17.4443-1.5971,18.4511-6.2609,34.4348-7.0111,24.0284-14.562,29.5429-18.7826,49.826-3.4356,16.5107-1.9633,29.826-1.0435,37.5652.2689,2.2625,3.6911,31.1299,22.4348,58.9565,5.9807,8.8789,10.656,13.4019,16.1739,13.3043,5.3546-.0946,10.4215-4.5212,12.5217-9.3912,3.3379-7.7397-.9311-16.3361-2.3478-19.5652-5.4647-12.4557-1.5562-31.5212,6.2609-69.6522,6.5225-31.8162,9.7837-47.7243,18.7826-68.8696,8.6071-20.2245,23.7065-54.6054,58.6957-82.9565,15.7093-12.7289,35.5166-28.7786,64.1739-32.0869,7.491-.8648,24.5592-9.4467,60.7826-5.218,35.3938,4.1319,39.1867,15.8997,50.3478,15.3919,27.1385-1.2347,28.0907-8.3529,52.4348-8.6087,15.3397-.1612,35.0349-.3682,54,10.9565,15.3597,9.1718,26.0266,23.3912,33.6522,19.5652,2.6565-1.3329,3.6536-4.2084,3.913-4.9565,4.2883-12.3669-16.7324-31.7992-31.3043-42Z"/>
      <g>
        <path class="cls-3" d="M466.073,330.8031c-5.1559,34.2784-22.4262,65.9459-45.06,92.2173-19.9138,23.1254-44.7541,42.886-73.8328,52.193-33.2625,10.6505-69.8347,6.871-102.9225-4.3038-42.5912-14.3754-81.2062-41.1275-108.1767-77.0991-27.615-36.8454-42.2089-83.3144-40.7015-129.2155.3932-12.1907,1.9226-24.3269,4.6425-36.2446,15.7737-69.0919,75.242-133.8691,146.2018-139.0578,14.015-1.0159,28.4779.284,43.1375,4.3257,27.1124,7.4937,51.7343,22.1859,74.2697,39.0302,13.8183,10.3228,27.0578,21.6069,39.183,33.896,15.3368,15.5334,28.9257,32.6944,39.7292,51.6469,19.3566,33.9397,29.3518,73.9748,23.5295,112.6116Z"/>
        <path class="cls-5" d="M466.073,330.8031c-5.1559,34.2784-22.4262,65.9459-45.06,92.2173-19.9138,23.1254-44.7541,42.886-73.8328,52.193-33.2625,10.6505-69.8347,6.871-102.9225-4.3038-42.5912-14.3754-81.2062-41.1275-108.1767-77.0991-27.615-36.8454-42.2089-83.3144-40.7015-129.2155,3.8779,9.9951,9.3506,26.9377,18.9088,43.4978,21.028,36.4413,52.5426,54.9459,62.1227,60.4187,41.193,23.5405,80.6164,22.7976,98.5967,22.2296,23.6059-.7538,62.1773-1.9771,98.0286-29.6358,31.5474-24.3488,44.0768-56.1256,48.4463-69.5397,8.8154-27.047,7.2752-49.495,6.8382-54.7056-2.3595-28.4232-14.0041-52.3241-25.5066-70.3154,15.3368,15.5334,28.9257,32.6944,39.7292,51.6469,19.3566,33.9397,29.3518,73.9748,23.5295,112.6116Z"/>
        <path class="cls-4" d="M273.4447,98.5947c-1.8027-2.8024-5.791-4.1276-9.2983-4.7012-39.9109-6.5275-80.0823,17.9423-102.8714,49.3457-.2236.308-.4457.617-.6665.9271-5.9615,8.3735-11.0265,17.8163-11.8282,28.064-.1032,1.3191.1396,3.0313,1.4266,3.3381.6324.1507,1.2796-.1299,1.8658-.4108,18.5524-8.8895,33.5689-24.8765,53.3106-30.6632,11.6802-3.4237,24.1079-2.9755,36.1464-4.7713,6.6873-.9976,13.4962-2.8036,18.7639-7.0422,7.9288-6.3799,10.9133-16.9333,13.4607-26.7864.4449-1.7209.8923-3.5162.5288-5.256-.1581-.7559-.4467-1.4347-.8384-2.0436Z"/>
        <path class="cls-4" d="M131.9304,182.8904c-.6376-.1714-1.3029-.2266-1.9854-.1352-4.0799.5465-7.2955,6.418-9.0672,9.6329-8.5238,15.4671-12.1669,33.0564-16.4051,50.2006-1.1759,4.7567-2.4149,9.6502-1.7215,14.5008s3.8351,9.7065,8.6052,10.8266c3.9348.924,8.1492-.9164,10.9054-3.8727,2.8643-3.0723,4.3728-7.1798,5.224-11.293,1.7622-8.5154.9922-17.3578,2.1897-25.9707,1.1779-8.4714,4.2301-16.5468,6.8309-24.6946,1.2494-3.9142,2.4085-8.0696,1.5209-12.0812-.6198-2.8011-3.0403-6.2919-6.0969-7.1134Z"/>
      </g>
      <path class="cls-2" d="M302.5327,18.9704c-.8303-2.6403-6.2974-3.2789-19.4348-3.6522-12.4279-.3531-18.6419-.5298-22.1739-.1304-10.8787,1.2299-18.7175,4.1215-27.5217,7.4348-9.843,3.7043-19.5818,8.4071-19.3044,9.1304.1218.3176,2.1726-.1376,25.4348-6.7826,12.0456-3.4409,14.5079-4.1793,19.1739-4.4348,6.626-.3629,13.7464.4644,17.6087.913,4.259.4948,8.5542.7249,12.7826,1.4348.3194.0536,2.5608.2097,7.0435.5217,2.7706.1929,4.1772.2705,5.2174-.6522,1.0007-.8876,1.5505-2.585,1.1739-3.7826Z"/>
      <path class="cls-2" d="M116.9893,84.9704c-4.4424,2.7359-5.2189,3.7855-8.8044,6.0652-3.4012,2.1625-3.4933,1.7208-9.1956,4.8913-2.3397,1.3008-9.2854,5.1627-9,5.7717.183.3905,3.5459-.8483,10.2717-3.326,6.2105-2.2878,8.1967-3.2313,10.3696-4.6957,1.4526-.979,2.5988-1.9896,4.8913-4.0109,1.301-1.1471,8.1324-7.1702,7.6304-7.826-.3459-.4521-4.0401,1.823-6.1631,3.1304Z"/>
      <path class="cls-2" d="M60.3479,142.59c2.3633-6.4142,5.0688-10.9828,7.6304-15.2609.7132-1.1911,4.0147-6.6583,9.2935-13.3043,1.7655-2.2228,6.772-8.5261,7.5326-8.0217.7493.4968-2.9848,7.36-3.7174,8.7065-2.2871,4.2037-4.1326,6.7847-6.2609,9.9783,0,0-3.2983,4.9494-7.6304,12.3261-6.8388,11.6451-9.2614,18.8491-9.9783,18.587-.6846-.2503.9294-7.037,3.1304-13.0109Z"/>
      <path class="cls-2" d="M38.6701,233.3095c-.6497.3876-1.3057.9077-1.7666,1.3743-1.9866,2.0116-3.4615,4.4915-4.7864,6.9692-7.7842,14.5578-11.3873,31.3213-10.2723,47.7918,1.117,16.4995,6.8092,32.3226,13.0254,47.6471.9694,2.3899,2.8285,5.254,5.3291,4.6228,1.4015-.3538,2.3114-1.8111,2.4413-3.2507s-.3668-2.8595-.9456-4.1841c-1.5187-3.4756-3.6422-6.6478-5.4449-9.9849-7.3075-13.5273-9.1391-29.512-7.5385-44.8033s6.4466-30.0501,11.8673-44.4379c1.0658-2.8293-.4045-2.6417-1.9089-1.7442Z"/>
    </g>
  </g>
</svg>