<?xml version="1.0" encoding="UTF-8"?>
<svg id="Capa_2" xmlns="http://www.w3.org/2000/svg" viewBox="0 0 610.0014 564.4358">
  <defs>
    <style>
      .cls-1 {
        fill: #44911c;
      }

      .cls-2 {
        fill: #639648;
      }

      .cls-3 {
        fill: #367710;
      }

      .cls-4 {
        fill: #57a529;
      }

      .cls-5 {
        fill: #acd696;
      }

      .cls-6 {
        fill: #94c67d;
      }

      .cls-7 {
        fill: #56843c;
      }

      .cls-8 {
        fill: #70a856;
      }

      .cls-9 {
        fill: #7bb662;
      }
    </style>
  </defs>
  <g id="Capa_1-2" data-name="Capa_1">
    <g>
      <g>
        <path class="cls-9" d="M590.8243,358.2059c-5.65,9.3401-10.55,12.49-43.99,36.8101-18.29,13.3099-32.13,28.9199-44.21,47.8099-19.43,30.38-21.2,68.67-61.21,79.74-15.09,4.1801-30.65,3.85-45.83,7.9601-16.54,4.47-32.37,11.49-49.61,13.02-13.11,1.1699-26.32-.8401-39.47-.1101-17.92,1-35.13,7.0601-52.71,10.6801-21,4.3099-42.91,2.84-62.38-6.65-16.27-7.9299-26.71-23.36-42.2-32.38-21.47-12.5-51.05-15.8099-71.16-42.0699-7.55-9.8601-5.77-9.9401-27.46-50.8301-1.1-2.0699-2.15-4.0599-3.18-5.97-3.99-7.45-7.44-13.78-10.44-19.21-17.71-31.97-19.83-32.4401-23.2-44.99-2.32-8.6301-12.84-47.8,2.33-86.48,5.35-13.6501,13.56-26.3501,20.12-52.67,2.94-11.8199,2.87-15.63,4.9-26.1901,4.78-24.78,13.72-71.1799,45.95-94.36,12.21-8.7799,13.45-3.92,36.98-17.9,15.0699-8.95,19.04-13.6,40-29.09,26.46-19.5699,39.68-29.35,51.0099-32.95,21.89-7.01,41.52-4.05,58.05-1.5601,18.79,2.83,36.6976-6.286,54.0976.344,22.92,8.74,27.8745,24.7261,46.8445,31.8261,19.46,7.25,32.2839,7.2736,52.1739,13.0435,33.02,9.5801,33.6939,33.6064,68.7939,37.5865,17.94,2.0399,21.87-2.9501,36.46.5499,6.6,1.5801,22.58,5.8701,33.84,20.73,2.71,3.5801,15.42,20.3701,9.6,39.6001-.65,2.1499-4.9,16.21-16.98,21.13-12.35,5.0399-21.84,9.2899-38.06-1.7301-14.28-9.71-32.22-16-48.26-10.1299-8.24,3.02-21.31,11.4199-27.81,12.09-17.64,1.7799-27.53,3.17-32.03,5.27-20.76,9.7-40.16,30.62-47.97,57.2599-2.19,7.4401-3.47,15.3201-3.6299,23.53-.04,1.77-.07,8.8201,1.74,18.3401,3,15.78,11.07,38.33,32.64,54.78,19.29,14.73,40.5,17.7799,57.4901,16.9199,17.11-.88,29.93-5.72,32.21-6.62,9.7-3.83,32.86-13.01,44.28-34.48,4.31-8.11,6.07-16.33,15.29-24.64,3.57-3.21,13.34-12.02,26.02-10.88,14.51,1.2999,23.11,14.77,24.94,17.62,12.5499,19.64,6.96,47.22-3.97,65.25Z"/>
        <path class="cls-5" d="M244.0236,8.0146c10.5,0,20.2397,1.468,29.0908,2.8013,2.6628.4011,5.3088.5623,7.9373.5623,10.7441,0,21.2114-2.6919,31.4722-2.6919,4.9417,0,9.8337.6239,14.6882,2.4736,22.9199,8.74,27.8745,24.7261,46.8445,31.826,19.46,7.25,32.2839,7.2736,52.1738,13.0435,33.02,9.5801,33.6938,33.6064,68.7939,37.5865,3.2542.3701,6.0483.5088,8.5278.5088,7.4236,0,12.0344-1.2429,17.7849-1.2429,2.9175,0,6.1274.3198,10.1472,1.2841,6.6001,1.5801,22.5801,5.8701,33.8401,20.73,2.71,3.5801,15.4199,20.3701,9.5999,39.6001-.6499,2.1499-4.8999,16.21-16.98,21.13-6.6431,2.7111-12.4595,5.1937-18.9402,5.1937-5.5674,0-11.6245-1.8315-19.1199-6.9238-10.4666-7.1171-22.9021-12.3969-35.1123-12.3976-4.4482-.0002-8.8645.7002-13.1477,2.2677-8.24,3.02-21.3098,11.4199-27.8098,12.09-17.6401,1.7799-27.53,3.17-32.03,5.27-20.76,9.7-40.1602,30.62-47.97,57.2599-2.1902,7.4401-3.47,15.3201-3.6301,23.53-.04,1.77-.0698,8.8201,1.74,18.3401,3,15.78,11.0701,38.3299,32.6401,54.78,17.3604,13.2565,36.2759,17.0529,52.2708,17.0529,1.7778,0,3.5195-.0469,5.2192-.1329,17.1099-.88,29.9299-5.7199,32.21-6.6201,9.7-3.8299,32.8599-13.0099,44.28-34.4799,4.3101-8.11,6.0701-16.33,15.29-24.6401,3.3552-3.0169,12.188-10.9809,23.7656-10.9811.7407,0,1.4922.0326,2.2544.1011,14.51,1.3,23.1099,14.7701,24.9399,17.6201,12.5498,19.64,6.96,47.22-3.97,65.25-5.6501,9.3401-10.55,12.49-43.99,36.8101-18.29,13.3099-32.1301,28.9199-44.2102,47.8099-19.4299,30.38-21.2,68.6701-61.21,79.74-15.0898,4.1801-30.6499,3.85-45.8298,7.9601-16.54,4.47-32.3701,11.49-49.6101,13.02-3.0886.2756-6.1843.3748-9.282.3748-7.929,0-15.8806-.649-23.8196-.6491-2.1245,0-4.2463.0464-6.3684.1642-17.9199,1-35.1301,7.0601-52.71,10.6801-7.3328,1.5049-14.7781,2.3052-22.1902,2.3052-13.8149,0-27.5186-2.7791-40.1899-8.9554-16.27-7.9299-26.71-23.3599-42.2-32.38-21.47-12.5-51.0499-15.8099-71.1599-42.0699-7.55-9.8601-5.77-9.9401-27.4601-50.8301-1.1-2.0699-2.15-4.0599-3.1799-5.97-3.99-7.4499-7.4401-13.78-10.4401-19.2099-17.71-31.97-19.83-32.4401-23.2-44.99-2.3201-8.6301-12.84-47.8001,2.33-86.48,5.35-13.6501,13.5601-26.3501,20.12-52.67,2.9401-11.8199,2.87-15.63,4.9-26.1901,4.78-24.78,13.72-71.1799,45.95-94.36,12.2101-8.7799,13.4501-3.92,36.9801-17.9,15.0699-8.95,19.0399-13.6,40-29.09,26.46-19.5699,39.6799-29.35,51.01-32.95,10.1687-3.2563,19.8501-4.3613,28.9592-4.3613M244.0236,0c-11.1648,0-21.4368,1.5515-31.4036,4.7432-12.5752,3.9956-26.1816,14.059-53.2893,34.1078l-.0422.0312c-7.5505,5.5801-12.995,9.827-17.3696,13.2395-7.9159,6.1748-12.6938,9.9019-21.957,15.4032-11.799,7.0103-17.5219,8.9496-22.1202,10.5081-4.5056,1.5269-8.7616,2.9691-15.4464,7.776-34.8048,25.0321-44.1268,73.3584-49.135,99.321-.7916,4.1183-1.2836,7.2924-1.7175,10.0928-.7195,4.6428-1.3408,8.6526-3.0959,15.7087-4.4515,17.8604-9.676,29.1486-14.2854,39.108-1.9863,4.2917-3.8624,8.3456-5.5189,12.5719-10.5582,26.9211-11.4602,58.5568-2.6079,91.4852,2.567,9.5591,4.7535,13.3217,11.2445,24.4909,2.9779,5.1241,7.0563,12.1418,12.6846,22.3021,3.264,5.9078,6.7598,12.34,10.3857,19.1101.7716,1.4313,1.5438,2.887,2.3395,4.3867l.8282,1.5605c8.8339,16.6537,13.748,26.4901,16.9998,32.999,4.802,9.6124,6.2513,12.5135,11.1742,18.9425,15.072,19.6813,34.812,27.5496,52.2283,34.4917,7.6948,3.0671,14.9628,5.9641,21.2626,9.6319,6.4238,3.7408,12.0234,8.8411,17.9519,14.2408,7.3667,6.71,14.9846,13.6485,24.769,18.4174,13.2942,6.4799,27.9976,9.7655,43.7014,9.7655,7.811,0,15.8191-.8306,23.8013-2.4688,5.9104-1.2171,11.7837-2.7023,17.4634-4.1387,11.7114-2.9617,22.7734-5.7592,34.082-6.3902,1.8406-.1022,3.7783-.1519,5.9214-.1518,3.8071,0,7.5874.1545,11.5896.318,3.9839.1628,8.1033.3311,12.2305.3311,3.6597,0,6.9287-.133,9.9944-.4065,12.6445-1.1223,24.3689-4.9184,35.707-8.5897,5.0161-1.6242,10.2029-3.3036,15.2817-4.6762,6.98-1.8899,14.1008-2.7748,21.6396-3.7117,7.895-.9812,16.0591-1.9958,24.2388-4.2617,31.8367-8.8085,42.2607-32.8413,52.3413-56.0828,3.9653-9.1424,8.0659-18.596,13.481-27.0627,12.2056-19.0868,25.6067-33.5916,42.1741-45.6478,2.4194-1.7596,4.6912-3.4095,6.8242-4.9588,28.1555-20.45,33.2288-24.1348,39.3074-34.1832,12.3491-20.3709,18.3364-51.0685,3.8662-73.7139l-.0049-.0073-.0244-.0382c-8.1138-12.6367-19.105-20.1805-30.949-21.2416-.9822-.0883-1.9819-.1331-2.9697-.1331-14.627.0002-25.144,9.457-29.1033,13.0171-8.1118,7.3113-11.3735,14.5868-14.2512,21.0059-.9187,2.0493-1.7864,3.9848-2.7783,5.8516-10.0564,18.906-31.1421,27.2314-40.1462,30.7865-2.2097.8724-14.0273,5.2656-29.6782,6.0706-1.6018.081-3.2217.1223-4.8076.1223-18.0676,0-34.0176-5.184-47.4067-15.408-19.4717-14.8499-26.8604-35.3359-29.6306-49.9071-1.6399-8.6268-1.6401-14.9344-1.6008-16.662.1416-7.2694,1.2537-14.4772,3.3057-21.448,6.676-22.7712,23.4099-42.7936,43.6743-52.262,3.811-1.7784,16.4028-3.2413,29.4419-4.557,5.4006-.5566,12.0869-3.9561,19.166-7.5551,3.8108-1.9374,7.7512-3.9408,10.5974-4.9839,3.2234-1.1797,6.72-1.7784,10.3894-1.7782,9.2957.0005,20.165,3.9108,30.606,11.0105,8.3464,5.6705,15.853,8.3108,23.6265,8.3108,7.8076,0,14.3201-2.6617,21.2144-5.4797l.7542-.308c14.0942-5.7405,19.8171-20.2567,21.6233-26.2312,4.5146-14.9163.6506-31.5222-10.8809-46.7562-8.9092-11.7572-21.8159-19.7257-38.3647-23.6875-4.2773-1.0261-8.0957-1.5044-12.0132-1.5044-3.1375,0-5.9248.3109-8.6204.6116-2.7834.3104-5.6616.6315-9.1646.6315-2.4214,0-4.9148-.1497-7.6226-.4575-16.4021-1.8599-23.637-8.3384-32.7971-16.5405-8.3022-7.4343-17.7124-15.8604-34.6689-20.78-8.7664-2.5431-16.1064-3.9917-23.2048-5.3927-9.1538-1.8066-17.8-3.5132-28.4043-7.4637-7.5803-2.8372-12.615-7.493-18.4446-12.8838-6.9978-6.4713-14.9294-13.806-28.342-18.9207-5.2981-2.0187-11.0361-2.9996-17.5439-2.9996-5.5837,0-11.0793.7056-16.3943,1.3879-5.2229.6705-10.1562,1.304-15.0779,1.304-2.4255,0-4.6313-.1547-6.7437-.4728-9.0024-1.3562-19.1899-2.8907-30.2844-2.8907h0Z"/>
      </g>
      <path class="cls-1" d="M329.4643,477.026c-46.33,6.6799-59.43-20.1201-87.93-47.9501-15.15-12.1901-33.43-7.25-51.65-8.22-42.3-2.25-46.74,7.0299-65.74,1.17-59.36-18.65-70.25-105.76-30.52-143.22,10.5-8.8501,20.67-18.1201,31.1201-27.0601,10.8199-9.26,21.93-18.16,33.99-25.8501,15.33-8.0999,11.88-32.8699,8.45-47.01-9.17-21.0099-4.78-31.6499,6.2599-50.3398,22.46-43.03,89.4-74.8301,135.4-49.1801,3.52,1.96,6.92,4.26,10.17,6.92,23.27,22.58,25.85,65.49,8.22,83.3499-11.47,11.6201-31.33,12.2201-46.54,13.1901-18.03,1.15-36.5099,1.26-53.77,7.29-11.69,4.09-22.32,10.75-32.18,18.24-5.72,4.34-11.32,9.1-15.06,15.24-7.21,11.85-6.38,26.9-3.3701,40.4501,1.56,7.0199,3.64,13.9099,5.8,20.7699,2.16,6.8101,4.4,13.6,6.32,20.4801,6.6899,24.01,4.93,45.2799-1.85,69-1.75,6.1199-3.06,9.5599.79,15.0299,2.65,3.78,6.4301,6.8099,10.4301,9.05,16.88,9.41,36.67,5.89,54.69,3.0399,21.85-3.46,54.483-27.9033,79.823-29.4734,18.71-5.3401,38.5169,4.7334,50.797,18.5535,2.43,2.74,4.61,5.88,6.48,9.4299,15.53,38.1101-23.18,75.1301-60.13,77.1001Z"/>
      <path class="cls-3" d="M329.4643,477.026c-46.33,6.6799-59.43-20.1201-87.93-47.9501-15.15-12.1901-33.43-7.25-51.65-8.22-42.3-2.25-46.74,7.0299-65.74,1.17-59.36-18.65-70.25-105.76-30.52-143.22,10.5-8.8501,20.67-18.1201,31.1201-27.0601-5.4901,7.1899-12.8701,15.1599-20.95,21.59-3.74,2.9701-8.07,5.9701-12.52,12-2.56,3.4601-7.23,10.73-10.17,26.35-2.56,13.5701-5.19,27.46,0,44.6001,6.18,20.46,19.65,32.9199,26.6,38.3499,16.18,12.6501,32.99,15.3701,45.4,17.2201,23.3,3.48,25.46-2.87,56.34,0,26.86,2.5,39.2,8.6,42.26,10.17,13.75,7.0699,12.64,11.26,25.83,18.7899,6.81,3.88,29.7,16.9401,54.78,10.17,22.86-6.17,43.457-25.1979,46.177-29.3478,8.6-13.0901,8.2173-22.6957,4.623-31.1422,2.43,2.74,4.61,5.88,6.48,9.4299,15.53,38.1101-23.18,75.1301-60.13,77.1001Z"/>
      <path class="cls-3" d="M327.2343,169.6358c-11.47,11.6201-31.33,12.2201-46.54,13.1901-18.03,1.15-36.5099,1.26-53.77,7.29-11.69,4.09-22.32,10.75-32.18,18.24-5.72,4.34-11.32,9.1-15.06,15.24-7.21,11.85-6.38,26.9-3.3701,40.4501,1.56,7.0199,3.64,13.9099,5.8,20.7699-4.7-5.45-6.46-13.1-8.67-22.7-2.39-10.39-5.62-24.4401,1.05-38.61,4.3799-9.3,11.4-15.1901,20.34-22.6901,1.23-1.0299,6.83-5.6801,15.14-10.7,4.59-2.77,13.72-8.2201,25.3-11.74,10.37-3.15,11.8-1.4401,27.39-3.91,18.24-2.89,27.58-4.37,37.31-10.96,3.1-2.1001,14.48-10.04,19.82-25.04,4.06-11.38,2.64-21.22,1.57-28.7-.9-6.21-2.28-15.8501-8.35-25.04-1.3-1.96-2.7-3.75-4.17-5.36,3.52,1.96,6.92,4.26,10.17,6.92,23.27,22.58,25.85,65.49,8.22,83.3499Z"/>
      <path class="cls-4" d="M286.223,78.048c-1.9783-4.4659-13.8397-3.0865-22.4348-2.0869-11.6395,1.3536-18.8032,4.3807-33.1304,10.4348-3.1069,1.3129-7.5266,3.2742-10.4348,7.826-1.8138,2.8389-3.8321,7.9257-1.826,10.174,2.4493,2.7451,9.6166-.1779,11.7391-1.0435,7.0895-2.8912,6.9297-5.903,13.3043-9.1305,6.7949-3.4403,13.9977-3.5735,18.2609-3.6522,2.8328-.0524,7.855.0938,14.6087-1.0435,2.2339-.3761,3.9976-.7816,5.7391-2.0869,3.0281-2.2694,5.3355-6.7689,4.1739-9.3914Z"/>
      <path class="cls-4" d="M203.513,104.6816c-1.2501-.3893-2.7905-.0753-8.087,4.0435-3.993,3.1051-6.5243,5.0735-10.0435,9-4.5255,5.0493-8.0121,9.0386-9,15-.3341,2.0164-.7215,4.5737.7826,6.2609,2.0756,2.3281,6.9313,2.0775,9.913,0,2.7487-1.9152,1.9513-4.0217,5.2174-9.9131.7998-1.4426,3.0109-5.3689,6.7826-9.1304,4.6796-4.6669,7.4449-4.7755,8.087-7.826.6202-2.9473-1.1586-6.6584-3.6522-7.4348Z"/>
      <path class="cls-4" d="M130.9261,262.899c-.7928-.5016-4.0761,5.5114-12,12.2609-6.8541,5.8383-8.8925,5.1682-14.8696,10.4347-2.8517,2.5127-8.7008,7.7738-12.2609,16.174-.4015.9473-7.6506,18.5074-.5217,24,3.586,2.7628,9.9968,1.8455,14.087-1.0435,4.8061-3.3947,4.1089-7.8875,8.6087-21.3914,2.2211-6.6655,4.4373-11.6611,8.8695-21.6521,5.296-11.9381,8.9049-18.2651,8.087-18.7826Z"/>
      <path class="cls-4" d="M354.196,375.3058c-.0738-.2579-.1927-.5035-.3632-.7283-.5522-.7281-1.4849-1.0426-2.3718-1.2632-1.9415-.4829-3.9419-.7062-5.9418-.7582-4.5815-.1193-9.1394.6531-13.6209,1.6121-5.7102,1.2218-11.3544,2.752-16.9003,4.5804-5.2107,1.7179-10.8018,3.2974-14.864,7.1709.6419.3269,1.4043.2725,2.1203.1935,9.4496-1.041,18.4269-4.9243,27.8941-5.7922,4.7014-.431,9.4355-.109,14.1451.2206,3.0617.2142,6.5169.2991,8.7432-1.8136.9152-.8685,1.4893-2.2681,1.1592-3.422Z"/>
      <path class="cls-4" d="M293.0526,388.1258c-.422-.1116-.8723-.1408-1.3007-.089-1.1288.1364-2.148.7159-3.1407,1.2703-5.8591,3.2721-11.9828,6.0698-18.2894,8.3635-3.2461,1.1806-6.5408,2.2277-9.873,3.1372-1.0249.2797-9.2295,1.9027-9.0492,2.6102,5.9183.7563,11.7848-1.2652,17.5606-2.7612,7.6526-1.982,15.6308-3.1113,22.7185-6.6121.932-.4604,1.8706-.9813,2.5197-1.7933s.9479-1.9845.4774-2.9114c-.3193-.629-.9335-1.0317-1.6234-1.2141Z"/>
      <path class="cls-6" d="M311.4478,68.5511c3.2792.9536,9.6692,2.9216,15.6522,0,6.0239-2.9417,10.343-10.2089,9.913-16.6957-.6409-9.6682-9.7414-22.8864-19.9565-28.1739-6.7711-3.5048-26.1789-4.3426-59.3479-6.2608-20.3271-1.1755-30.4907-1.7633-42.7826,2.0869-9.4592,2.9629-12.6635,6.0166-44.8696,30.7826-33.0589,25.4219-38.7123,29.1479-46.9565,33.3914-17.9593,9.2438-20.7368,6.7996-31.3044,14.0869-18.6643,12.871-26.3845,31.7943-32.3478,46.9565-15.2017,38.6516-3.153,47.8552-17.4783,87.9131-9.0185,25.2186-14.9487,24.8-20.3478,47.7391-2.575,10.9403-6.466,33.2979-.7826,60.2609,2.0585,9.766,10.6343,50.4506,32.8696,55.5652,1.6021.3685,9.0064,1.8707,12.5217-1.9565,4.3549-4.7412-.4282-14.2107-3.913-25.826-5.6697-18.8981-5.1738-34.3801-4.6957-49.3043.5417-16.9117.9549-29.8075,8.6087-43.4348,5.8176-10.3579,14.8349-17.8618,32.8696-32.8696,17.2177-14.328,19.2186-13.2549,24.2609-20.3478,2.2958-3.2295,8.6277-12.9423,10.9565-43.826,2.5247-33.4817-3.9549-34.8274.7827-50.087,6.1891-19.9349,21.6529-31.8282,35.2173-42.2609,20.5906-15.8364,40.3099-21.2314,46.174-22.6957,19.144-4.78,35.3527-3.8041,42.2609-3.1304,37.4438,3.6519,52.6955,8.0869,52.6956,8.0869Z"/>
      <path class="cls-8" d="M590.8243,358.2059c-5.65,9.3401-10.55,12.49-43.99,36.8101-18.29,13.3099-32.13,28.9199-44.21,47.8099-19.43,30.38-21.2,68.67-61.21,79.74-15.09,4.1801-30.65,3.85-45.83,7.9601-16.54,4.47-32.37,11.49-49.61,13.02-13.11,1.1699-26.32-.8401-39.47-.1101-17.92,1-35.13,7.0601-52.71,10.6801-21,4.3099-42.91,2.84-62.38-6.65-16.27-7.9299-26.71-23.36-42.2-32.38-21.47-12.5-51.05-15.8099-71.16-42.0699-7.55-9.8601-5.77-9.9401-27.46-50.8301-5.36-10.11-9.85-18.36-13.62-25.1799,2.2.73,4.15,1.75,5.78,3.11,2.58,2.15,6.07,6.58,13.69,10.96,7.03,4.03,11.15,4.34,16.05,6.26,15.37,6.03,13.86,18.37,27,27,7.8799,5.1801,19.34,5.02,42.2599,4.6901,24.41-.3401,26.63-3.67,39.91-1.17,15.04,2.83,26.02,9.71,32.87,14.09,21.87,13.97,21.33,24.0701,35.22,27,13.14,2.77,15.4901-5.88,35.22-5.87,16.11,0,15.94,5.77,37.56,8.2101,10.83,1.23,26.52,2.8099,42.26-4.6901,6.81-3.25,6.04-4.5699,16.44-11.74,26.24-18.08,36.44-13.26,48.13-27,6.46-7.6,8.61-15.63,12.91-31.7001,3.8-14.21,6.77-25.2999,1.17-31.6899-3.75-4.28-8.47-3.1699-23.47-5.87,0,0-13.73-2.48-27-7.0399-21.41-7.3701-37.89-28.54-45-48.9202-1.31-3.75-7.99-23.7599-1.96-48.5199,3.49-14.36,10.26-26.24,17.8-35.7301-2.19,7.4401-3.47,15.3201-3.6299,23.53-.1,4.7101-.19,46.76,34.3799,73.1201,19.29,14.73,40.5,17.7799,57.4901,16.9199,17.11-.88,29.93-5.72,32.21-6.62,9.7-3.83,32.86-13.01,44.28-34.48,4.31-8.11,6.07-16.33,15.29-24.64,3.57-3.21,13.34-12.02,26.02-10.88,14.51,1.2999,23.11,14.77,24.94,17.62,12.5499,19.64,6.96,47.22-3.97,65.25Z"/>
      <path class="cls-2" d="M590.8243,358.2059c-5.65,9.3401-10.55,12.49-43.99,36.8101-18.29,13.3099-32.13,28.9199-44.21,47.8099-19.43,30.38-21.2,68.67-61.21,79.74-15.09,4.1801-30.65,3.85-45.83,7.9601-16.54,4.47-32.37,11.49-49.61,13.02-13.11,1.1699-26.32-.8401-39.47-.1101-17.92,1-35.13,7.0601-52.71,10.6801-21,4.3099-42.91,2.84-62.38-6.65-16.27-7.9299-26.71-23.36-42.2-32.38-21.47-12.5-51.05-15.8099-71.16-42.0699-7.55-9.8601-5.77-9.9401-27.46-50.8301-1.1-2.0699-2.15-4.0599-3.18-5.97,4.76,3.4399,9.36,7.64,13.08,12.3401,6.71,8.49,4.58,11.1299,12,22.4299,2.61,3.99,15.62,23.8,38.61,32.87,13.69,5.4,16.38,1.25,37.04,8.35,6.96,2.39,14.66,5.03,23.48,10.4299,19.6201,12.01,18.73,21.6901,33.91,28.1801,12.63,5.39,24.81,3.62,31.83,2.6,15.04-2.1799,16.32-7.2899,37.04-14.6,15.29-5.4,27.77-9.7999,43.83-8.87,16.71.96,22.21,6.8301,34.95,3.13,8.66-2.5199,9.7-6.2699,20.35-13.0499,18.14-11.53,23.84-6.2001,45.65-16.5601,10.41-4.95,25.1-11.9299,35.22-27,7.61-11.34,3.32-13.38,11.74-28.96,3.28-6.0701,12.9-23.4,31.69-36,10.42-6.98,14.04-6.0701,22.7-14.0901,2.27-2.1,17.49-16.1899,13.7-26.21-.87-2.28-2.95-4.98-5.87-5.87-3.86-1.17-7.71,1.28-9.39,2.35-8.51,5.38-17.68,9.75-25.83,15.65-12.26,8.87-28.22,6.34-48.52,3.13-10.98-1.74-36.5-5.78-58.31-26.61-8.19-7.8199-22.92-21.9-25.04-43.83-.51-5.25-.25-10.5801.65-15.77,3,15.78,11.07,38.33,32.64,54.78,19.29,14.73,40.5,17.7799,57.4901,16.9199,17.11-.88,29.93-5.72,32.21-6.62,9.7-3.83,32.86-13.01,44.28-34.48,4.31-8.11,6.07-16.33,15.29-24.64,3.57-3.21,13.34-12.02,26.02-10.88,14.51,1.2999,23.11,14.77,24.94,17.62,12.5499,19.64,6.96,47.22-3.97,65.25Z"/>
      <path class="cls-5" d="M240.1652,18.8882c-6.9634-.8544-12.9211.005-14.1848.1956-3.6334.5479-10.5903,1.6528-18.3914,5.5762-5.7872,2.9105-6.8982,4.7867-15.8804,11.8043-12.1187,9.4681-20.7295,14.3604-20.5109,14.7065.2142.3392,8.3481-4.5674,24.2609-13.2065,12.3572-6.7087,14.886-7.7859,18.2935-8.8043,9.5299-2.8484,14.8612-4.442,21.4239-2.837,3.1046.7593,7.4501,2.4703,12.8152,1.0762.9066-.2356,4.061-1.0553,4.2065-2.5436.1935-1.9796-5.0459-4.0255-6.2609-4.5-2.7745-1.0834-5.0704-1.3812-5.7717-1.4673Z"/>
      <path class="cls-5" d="M100.1435,98.2903c-4.3325-2.4902-13.6296,6.6256-15.6522,8.6088-5.1452,5.0449-8.0219,10.3014-13.5652,20.6086-3.8078,7.0803-6.319,11.7495-8.8696,18.7826-.5328,1.4692-2.838,7.9242-4.9565,18.5217-2.0332,10.171-1.8969,14.1654-3.3913,27.1305-2.1744,18.8654-4.5837,28.8071-3.9131,28.9565.7973.1776,3.7507-13.973,10.9565-34.9565,5.1931-15.1223,9.6654-25.2629,13.0435-32.8696,7.4314-16.734,11.2425-25.1833,15.9131-29.2174,4.5073-3.8931,9.5756-6.4733,11.7391-13.0435,1.4908-4.5272,1.5753-10.8666-1.3043-12.5217Z"/>
      <path class="cls-5" d="M30.0485,265.2709c-.2318.1518-.4535.3153-.6623.4885-2.8406,2.3568-4.1132,6.2316-4.9456,9.6966-2.0914,8.7057-4.4598,17.5081-5.0362,26.4429-.5431,8.4186.6762,17.0461,1.5664,25.4351.8902,8.389,3.0638,16.7404,7.2896,24.0418-2.2149-10.8859-3.4803-21.9582-3.9369-33.0578-.3761-9.1437-.1557-18.5631,3.2996-27.0371,2.5443-6.2398,6.7433-11.7052,9.2118-17.9753.8247-2.0948,1.4475-4.4561.6617-6.5658-1.2627-3.3898-4.9419-3.1104-7.448-1.4689Z"/>
      <path class="cls-8" d="M377.3174,81.2034c-.5097-.3159-7.058-4.2258-14.4783-1.5652-7.3421,2.6327-13.0107,10.7922-11.3478,18.7826,1.7786,8.5459,10.8643,11.7118,12.1304,12.1304,1.6233.5366,7.7714,2.5691,13.6956-.7826,5.8281-3.2972,8.6145-10.2072,7.8261-16.4348-.9801-7.7422-7.14-11.7052-7.8261-12.1304Z"/>
      <path class="cls-8" d="M468.4913,112.899c-3.1816-3.0603-8.1685-3.2421-11.7391-1.9565-5.9563,2.1444-10.3166,9.2159-8.2174,15.6521,1.7054,5.2286,7.3511,9.0482,12.5217,8.2174,3.6618-.5884,5.8528-3.3109,6.6522-4.3043,3.6489-4.5344,5.5397-13.033.7827-17.6086Z"/>
      <path class="cls-8" d="M545.1869,156.7251c-.0048-.9785-.0279-5.6669-3.1304-7.0435-2.7556-1.2227-6.0569,1.0028-7.6304,2.9348-1.8926,2.3237-3.3203,6.7208-.7826,9.7826,1.9052,2.2986,5.5107,3.1998,8.2174,1.7609,3.3539-1.7831,3.3326-6.0986,3.326-7.4348Z"/>
      <path class="cls-8" d="M347.9696,190.3773c-3.9063-4.8949-10.9722-4.0897-12.5218-3.9131-1.5195.1731-9.7757,1.114-12.5217,8.2174-2.0795,5.3794.0547,11.5671,4.3044,14.8695,4.5518,3.5372,9.9488,2.535,10.9565,2.3479,1.1061-.2054,5.4724-1.1501,8.6087-5.087,3.387-4.2515,5.0296-11.6034,1.174-16.4347Z"/>
      <path class="cls-8" d="M415.7956,138.9859c-1.1411-2.6074-4.4426-3.978-6.7826-2.8695-2.8173,1.3346-3.5906,5.9552-1.3044,8.3478,1.6202,1.6956,4.7087,2.2008,6.7827.5217,1.8414-1.4908,2.1362-4.0989,1.3043-6Z"/>
      <path class="cls-8" d="M426.7522,63.9859c-1.1485-1.9445-4.1064-1.9729-5.8696-1.4348-.5378.1642-3.1713.9679-3.6522,3.3914-.368,1.8545.7164,3.6902,2.2173,4.5652,2.2277,1.2986,4.5724.0143,4.8261-.1304,2.1639-1.2336,3.7059-4.3127,2.4783-6.3914Z"/>
      <path class="cls-8" d="M238.9261,208.899c-8.6926-3.4675-18.4667-.2429-24,6.2609-7.4516,8.7585-5.9382,21.9662,1.0435,29.7391,4.6971,5.2294,13.2559,9.5427,21.913,6.7826,9.5587-3.0476,13.6984-12.9526,14.087-20.3479.4178-7.9518-3.2117-18.5127-13.0435-22.4347Z"/>
      <path class="cls-8" d="M302.9696,281.9425c-3.9014-3.5845-10.3485-3.2423-14.4783-.3914-5.5106,3.8043-7.4753,12.4762-3.1304,18,3.1719,4.0326,9.2265,5.7771,14.0869,3.5217,5.9259-2.7499,6.5507-9.8098,6.6522-10.9564.1292-1.459.5973-6.749-3.1304-10.174Z"/>
      <path class="cls-8" d="M238.4043,357.0729c-2.0814-3.1772-6.5112-4.9336-10.5652-3.913-4.869,1.2257-6.715,5.8325-7.0435,6.6521-.3098.7729-2.4082,6.0098.7826,10.174,2.5735,3.3585,7.1924,4.1986,10.5652,3.1305,6.1155-1.9366,9.7822-10.6681,6.2609-16.0436Z"/>
      <path class="cls-8" d="M330.7522,342.9859c-3.15-2.4268-7.6956-.946-10.174,1.0435-3.0427,2.4425-5.1501,7.4019-2.8696,11.2174,1.532,2.5632,4.6418,3.9368,7.5652,3.6522,4.6887-.4564,6.7164-4.9656,7.0435-5.7391,1.1716-2.7715,1.6818-7.6725-1.5652-10.174Z"/>
      <path class="cls-8" d="M229.4043,284.6816c-3.3975-2.4503-8.6276-2.2982-11.7391.7826-3.9891,3.9497-2.9706,11.2023.7826,13.6957,2.6628,1.769,6.0444.7054,7.0435.3912,3.2718-1.0289,7.5392-4.1552,7.4348-8.6086-.087-3.7092-3.1519-5.9941-3.5217-6.2609Z"/>
      <path class="cls-8" d="M427.7956,408.7251c-1.8866-1.824-5.1662-2.9551-8.2174-1.9565-3.8612,1.2635-5.1387,5.2117-5.4782,6.2609-.3071.9491-1.7402,5.8379,1.5652,9.7826,2.4181,2.8857,6.6387,4.391,9.7826,3.1305,5.5746-2.2351,6.8973-12.8187,2.3478-17.2174Z"/>
      <path class="cls-8" d="M236.0565,444.4642c-1.8558-2.6964-5.4745-4.228-8.8696-3.3914-2.9363.7236-6.0631,3.307-6,6.2609.0419,1.9601,1.4725,3.3441,2.8696,4.6957,1.5861,1.5344,3.862,3.7362,7.0435,3.3914,2.9075-.3152,5.7216-2.6649,6.2609-5.7391.4644-2.6475-.9551-4.7098-1.3044-5.2174Z"/>
      <path class="cls-8" d="M113.1869,425.5511c-3.5984-2.115-9.0077-.5867-10.1739,2.7391-1.0899,3.1083,1.8345,6.9072,5.087,8.2174,2.3208.9348,6.028,1.0936,7.826-1.174,2.1586-2.7222.6525-7.7892-2.7391-9.7826Z"/>
      <path class="cls-8" d="M157.2739,196.899c-1.7371-1.8131-5.1709-3.6083-8.087-2.087-2.7646,1.4423-3.0993,4.8403-3.1304,5.2174-.2227,2.6952,1.1708,5.5553,3.6522,6.7826,3.6742,1.8173,8.7277-.4431,9.6522-3.913.7686-2.8848-1.6104-5.5026-2.087-6Z"/>
      <path class="cls-9" d="M113.9696,193.5077c-1.5773-4.897-6.2142-8.9698-11.7391-9-6.9174-.0377-12.7064,6.2754-12.5218,12.5217.1723,5.8282,5.4767,9.2733,6.2609,9.7826.7656.4972,7.4343,4.679,13.3043,1.174,4.8858-2.9174,6.3216-9.4302,4.6957-14.4783Z"/>
      <path class="cls-9" d="M126.8826,105.0729c-2.7945-1.6477-5.8344-.7809-6.4565-.5869-3.8274,1.193-6.6837,5.1343-6.4565,9.3914.1892,3.5454,2.5325,7.5973,6.6522,8.413,4.0823.8083,7.663-2.0057,9.1956-4.8912,2.2274-4.1934.931-10.0468-2.9348-12.3262Z"/>
      <path class="cls-9" d="M291.2304,23.4859c-2.7766-1.9487-6.5732-1.5183-9,.5869-2.5327,2.1971-3.5836,6.2275-1.7609,9,2.267,3.4482,7.3813,2.5198,8.2173,2.3479,1.0471-.2152,3.6005-.7401,4.8913-2.9348,1.6054-2.7296.6031-6.929-2.3478-9Z"/>
      <path class="cls-9" d="M324.4913,57.0729c-.8068-1.7451-2.7684-2.5703-4.4348-2.2174-2.4253.5135-3.8644,3.4457-3,5.4783.6269,1.474,2.3138,2.1189,3.5217,2.2174.3763.0308,1.7342.1415,2.8696-.7826,1.2786-1.0406,1.8175-3.0214,1.0435-4.6957Z"/>
      <path class="cls-9" d="M187.3391,59.8773c-1.2545-3.3954-6.2151-3.927-9-3.5219-.459.0668-4.8637.7777-6.8478,4.5-.3586.6727-1.6103,3.0211-.587,5.087.7401,1.4941,2.2704,2.0334,3.7174,2.5435,3.6989,1.3036,6.9683.1274,7.826-.1957.8784-.3308,1.6872-.6354,2.5435-1.3695,1.8218-1.5618,3.2657-4.5588,2.3478-7.0435Z"/>
      <path class="cls-9" d="M56.5783,234.7251c-4.4839-1.9065-10.046.7791-11.4783,5.2174-1.1192,3.4681.3532,7.7898,3.3913,9.3912,2.2831,1.2035,4.7519.5026,6.5218,0,1.7534-.4978,5.0244-1.4266,6.2609-4.1738,1.5405-3.4229-.5293-8.6633-4.6956-10.4348Z"/>
      <path class="cls-9" d="M92.4478,148.899c-1.9262-1.8342-6.8059-1.1943-9,1.9564-2.0699,2.9724-1.3302,7.5771,1.5652,9.3914,2.1696,1.3595,5.4993,1.1204,7.0435-.6522.6966-.7997.8217-1.7179,1.0435-3.5217.4254-3.46.7212-5.866-.6522-7.1738Z"/>
      <path class="cls-9" d="M43.9261,319.1164c-4.4185-1.8644-11.5723,2.1633-13.3044,8.2173-1.6163,5.6494,1.523,12.9438,7.0435,14.087,4.0682.8424,8.2005-1.91,10.1739-5.087,2.5237-4.0627,1.2779-8.4353.7826-10.1738-.5475-1.9216-1.6393-5.7538-4.6956-7.0435Z"/>
      <path class="cls-9" d="M57.2304,377.6164c-.3614-.4546-1.6397-2.0625-3.1304-1.761-1.4716.2976-2.5582,2.3363-2.0544,4.1088.4738,1.6667,2.2117,2.5968,3.7174,2.4457.1205-.0121,1.8997-.217,2.4456-1.5653.5359-1.3235-.5468-2.6855-.9783-3.2281Z"/>
      <path class="cls-2" d="M484.7304,382.5077c-1.9832-2.4307-7.1962-2.9896-9.7827.1957-2.0975,2.5831-1.4861,6.4199.587,8.6086.1404.1482,2.4176,2.4843,5.087,1.9565,3.9919-.7891,6.7209-7.5593,4.1087-10.7609Z"/>
      <path class="cls-2" d="M397.0782,355.5077c-2.2645-2.0675-6.5699-3.3353-9.5869-.7826-2.9502,2.4962-2.96,7.2004-.7827,9.5869,1.8816,2.0624,4.9041,1.8542,6.2609,1.7609,1.3755-.0947,4.9091-.338,6.2609-2.9347,1.3326-2.5598-.2452-5.8893-2.1522-7.6305Z"/>
      <path class="cls-2" d="M356.7739,303.6599c-2.0897-.7643-5.0035.1704-6.2609,2.1521-1.806,2.8466.4291,6.871,2.7391,8.8044,1.3302,1.1134,4.2292,2.8257,5.8696,1.7609,2.6966-1.7505,2.1146-11.0853-2.3478-12.7174Z"/>
      <path class="cls-2" d="M435.6217,460.6382c-1.6431-3.1202-6.6258-3.5139-9.9131-2.087-2.5895,1.124-5.7117,4.0656-5.2173,7.8262.3242,2.4662,2.1208,4.6543,4.4348,5.4781,4.3869,1.562,8.1882-2.6497,8.6087-3.1304.2371-.2711,3.9234-4.5995,2.087-8.0869Z"/>
      <path class="cls-2" d="M356.7739,494.812c-1.5058-1.0164-3.8625-1.1057-5.2826.3914-1.0915,1.1508-1.4427,3.0417-.587,4.5,1.094,1.8644,3.4387,1.791,3.913,1.7609.2538-.0161,2.9896-.2319,3.7174-2.3478.5826-1.6938-.5144-3.4631-1.7609-4.3044Z"/>
      <path class="cls-2" d="M285.8826,490.3773c-.9556-.5496-4.9703-2.8584-9.3913-1.0436-2.4686,1.0133-5.3149,3.4155-5.7391,6.7827-.6238,4.952,4.3569,9.0867,8.6087,10.1738.9269.2371,4.1349,1.0043,7.3043-.7826,2.4119-1.3597,4.897-4.2526,4.6957-7.826-.2418-4.293-4.1913-6.5642-5.4783-7.3043Z"/>
      <path class="cls-2" d="M201.6217,474.4642c-3.2462-1.3643-8.3202-1.6921-11.7391,1.5652-4.1989,4.0005-2.5941,10.2574-2.3478,11.2174,1.8819,7.3372,9.4673,9.7053,10.1739,9.9131,1.8126.5328,5.442,1.5997,8.3478-.2609,4.3301-2.7726,4.1734-10.2018,2.3478-14.8696-.5284-1.351-2.2066-5.6421-6.7826-7.5652Z"/>
      <path class="cls-2" d="M166.6,453.9208c-1.9741-1.0699-5.2712-1.3794-7.0435.7826-1.4861,1.8129-1.1974,4.5063,0,6.2609,1.8102,2.6525,5.1757,2.3947,5.674,2.3478.4404-.0415,3.4729-.3269,4.5-2.5435,1.0942-2.3613-.7231-5.5431-3.1304-6.8478Z"/>
      <path class="cls-2" d="M111.6217,463.2468c-.6323-.5084-3.0643-2.464-5.4783-1.5652-2.8459,1.0596-3.1128,5.1355-3.1304,5.4783-.1603,3.1133,1.677,7.5573,5.2174,7.826,3.1386.2383,6.0876-2.9208,6.2609-6.1305.1708-3.1639-2.4166-5.2444-2.8696-5.6086Z"/>
      <path class="cls-2" d="M226.9261,516.2034c-2.2563-1.583-6.0044-1.1202-7.0435,1.0435-.9213,1.9183.5464,4.6335,2.6087,5.7391,1.9744,1.0585,5.0923.9622,6.2609-1.0435,1.11-1.905-.1172-4.5402-1.8261-5.7391Z"/>
      <path class="cls-7" d="M558.4913,294.8555c-7.1381.9539-12.8046,11.7762-9,19.5653,3.0867,6.3196,12.0858,9.983,18,6.2609,5.4487-3.4291,5.7568-11.5392,3.5217-16.8262-2.0353-4.8145-7.2036-9.7107-12.5217-9Z"/>
      <path class="cls-7" d="M531.7522,391.2468c-.8745-2.0653-3.4099-3.5544-5.8696-3.2609-3.3207.3964-5.5966,3.9333-5.2174,7.174.2982,2.5481,2.2583,5.0851,4.5652,5.3478,3.8015.4329,8.1768-5.3517,6.5217-9.2609Z"/>
      <path class="cls-7" d="M487.2739,432.5946c-.1146-3.6235-2.2248-8.6462-5.8696-9-3.7068-.3597-7.5124,4.2542-7.4348,8.6088.0932,5.2272,5.7761,9.7589,9.3913,8.6086,2.8821-.917,4.0051-5.3038,3.913-8.2174Z"/>
      <path class="cls-7" d="M459.1,498.7251c2.8956-1.7711,4.0954-5.5051,3.1304-8.6086-1.2444-4.0023-6.0178-6.7267-10.174-4.9565-3.9152,1.6675-5.5997,6.6066-3.6522,10.4347,2.0057,3.9426,7.1483,5.3003,10.6957,3.1305Z"/>
      <path class="cls-7" d="M403.2739,515.4208c3.8496-1.6794,5.031-7.0007,3.6522-10.6957-1.9142-5.1296-8.8383-7.3278-12.5217-5.2174-1.6775.9611-2.4055,2.657-2.6087,3.1305-1.5682,3.6533.5311,7.2712,1.0435,8.0869,1.8361,2.923,6.3076,6.4962,10.4348,4.6957Z"/>
      <path class="cls-7" d="M320.4478,514.1164c-.6136-1.1503-2.5729-1.3348-3.7826-.5219-1.0571.7104-1.7535,2.3248-1.0435,3.3914.6713,1.0083,2.2567,1.0116,3.2609.5217,1.249-.6094,2.1688-2.2598,1.5652-3.3912Z"/>
      <path class="cls-7" d="M274.5348,543.4642c.7549-1.0743.8417-2.5203.2609-3.6522-.8927-1.7396-3.2861-2.5892-5.087-1.5652-1.3969.7943-2.0833,2.5149-1.6956,4.0435.0309.1221.4456,1.6498,1.9565,2.3479,1.5118.6985,3.5329.2949,4.5652-1.174Z"/>
      <path class="cls-7" d="M208.013,533.812c-.5912-.8882-1.932-.962-2.7391-.3912-.4517.3195-.8298.9069-.7826,1.5652.069.9614,1.0189,1.7068,1.9565,1.6957.8649-.0103,1.3901-.6602,1.4348-.7174.471-.6029.5628-1.5027.1304-2.1522Z"/>
      <path class="cls-7" d="M155.8391,498.8555c-1.6589.2688-3.2452,1.6708-3.2609,3.261-.0216,2.2045,2.99,3.2843,3.6522,3.5217.823.295,2.6666.9562,3.7826,0,1.1913-1.0206.8749-3.3024,0-4.6957-.7375-1.1746-2.2947-2.3915-4.174-2.087Z"/>
      <path class="cls-7" d="M128.4478,497.2903c-1.1283-1.4943-3.496-1.6383-4.6956-.3912-1.3025,1.354-.7449,3.8456.7826,4.826.9196.5903,2.2656.681,3.2609,0,1.3602-.9307,1.6973-3.0508.6522-4.4348Z"/>
      <path class="cls-8" d="M383.9696,145.1816c-3.2838-1.8009-7.1572-1.6456-9.7827.3912-3.7691,2.9241-4.4099,9.2939-.9783,12.5217,2.5187,2.3691,6.694,2.5403,9.3914.7827,3.6924-2.406,4.9-8.6119,1.3696-13.6957Z"/>
    </g>
  </g>
</svg>