<?xml version="1.0" encoding="UTF-8"?>
<svg id="Capa_2" xmlns="http://www.w3.org/2000/svg" viewBox="0 0 821.9845 781.6273">
  <defs>
    <style>
      .cls-1 {
        fill: #3383aa;
      }

      .cls-2 {
        fill: #599dd1;
      }

      .cls-3 {
        fill: #9cd1f2;
      }

      .cls-4 {
        fill: #1e86c6;
      }

      .cls-5 {
        fill: #2d9cd3;
      }

      .cls-6 {
        fill: #0476af;
      }

      .cls-7 {
        fill: #4291c1;
      }

      .cls-8 {
        fill: #86bfea;
      }

      .cls-9 {
        fill: #6cace4;
      }
    </style>
  </defs>
  <g id="Capa_1-2" data-name="Capa_1">
    <g>
      <path class="cls-2" d="M376.8796,732.3107c-1.3091-1.1914-3.2119-.7925-4.3047-.0981-1.103.7012-2.0518,2.1294-1.7607,3.6196.2153,1.1045,1.0127,1.7363,1.1738,1.8589,1.2227.9307,2.6733.5767,3.0327.4893.3174-.0776,1.7275-.4214,2.4458-1.7612.6558-1.2231.6011-3.0269-.5869-4.1084Z"/>
      <g>
        <g>
          <path class="cls-9" d="M405.4034,776.2369c-6.251.0005-12.1963-.9355-17.6709-2.7808-2.0576-.7012-4.0488-1.5234-5.9355-2.4502-6.252-3.0698-11.5391-7.3408-16.6523-11.4712-2.7109-2.1899-5.2705-4.2583-7.9561-6.1509-14.2617-10.0601-32.2646-15.0923-49.6738-19.9585-22.6045-6.3188-45.9785-12.8525-62.668-30.4141-12.2559-12.8994-19.1162-30.5015-18.8223-48.292.7754-46.4458,42.9043-66.4961,76.7549-82.6069l1.5977-.7603c25.0781-11.9458,39.1084-25.5693,42.8906-41.6484.2402-1.022.4492-2.0757.6611-3.1348.667-3.334,1.415-7.0767,3.1396-10.4624,2.1768-12.8257-.7393-21.5088-3.8223-30.6919-1.7871-5.3208-3.6338-10.8232-4.5752-17.2334-1.2129-8.2012-2.21-11.7363-4.6182-20.2773-1.8887-6.6958-4.7432-16.8149-9.207-34.6357-8.252-32.9707-4.0615-47.5864-1.8105-55.4385.1953-.6816.374-1.3008.5195-1.8677,2.8594-11.1069,6.4844-19.2456,9.9893-27.1162,5.0801-11.4067,9.4678-21.2578,10.2861-37.9712.1396-2.7983-.2529-3.4058-6.5234-6.5312-3.7705-1.8799-8.4639-4.2197-13.3623-8.4424-19.3945-16.6821-50.1123-21.8706-60.3115-22.4619-4.1572-.2412-7.9053-.3584-11.457-.3584-13.4248,0-26.3262,1.582-57.1152,5.7686-10.2139,1.3872-19.1348,2.062-27.2715,2.062-6.3105,0-11.2881-.3984-15.6797-.7495-3.6533-.292-6.8086-.5444-10.1826-.5444-2.373,0-4.6709.1299-7.0254.3965-3.916.4492-24.6836,2.6938-48.3564,2.6938-37.002.0005-62.6318-5.2656-76.1797-15.6514-6.3662-4.8794-9.3721-10.3076-8.9346-16.1338.9834-13.1011,19.3818-23.2485,40.6855-34.9985,8.0371-4.4326,16.3477-9.0161,23.6963-13.7788,6.8535-4.4399,11.4756-8.9243,16.3691-13.6719,9.9863-9.688,21.3018-20.6646,53.665-34.1973,11.3779-7.1309,24.8926-14.668,39.1914-22.6426l.2012-.1123c15.0332-8.3804,25.6963-13.0459,36.0088-17.5576,9.9443-4.3506,20.2275-8.8496,34.6895-16.7988,21.7227-11.9473,32.2979-20.3589,41.6279-27.7808,7.1455-5.6836,13.8945-11.0518,24.3232-17.0732,30.0508-17.3599,67.4092-26.9204,105.1934-26.9204,31.833,0,61.9336,6.8677,87.0488,19.8608,18.0352,9.3311,24.8789,14.8003,35.2383,23.0796,8.3604,6.6816,19.8096,15.833,42.416,31.0571.6885.4688,1.3545.9121,2,1.3369,15.8486,10.6294,27.5801,17.9648,37.9023,24.3125l4.1338,2.5312c1.001.6143,1.9902,1.2217,2.9795,1.8218,3.5732,2.1753,7.8115,4.7632,12.1992,7.4907,1.7451,1.083,3.5146,2.189,5.3047,3.3154.292.1782.625.3892.9688.6113.6455.4058,1.3379.8472,2.04,1.2954l.627.3999c1.2207.77,2.4717,1.5737,3.7529,2.4077l.8838.5737c.9502.6177,1.9141,1.2441,2.8955,1.8882,3.582,2.3516,7.2979,4.8418,11.3594,7.6138,1.167.7979,2.3438,1.6021,3.5293,2.4268.8779.6016,1.8057,1.2437,2.7344,1.897,1.2686.8823,2.6035,1.8115,3.957,2.772l.4014.2817c.7832.5498,1.5361,1.0854,2.29,1.6211.958.6768,1.9072,1.3535,2.8662,2.0391,7.8652,5.6226,28.6279,20.4648,44.8115,35.4312,4.1553,2.2485,9.5684,5.0088,15.4893,7.1152,5.0088,1.7954,10.4512,3.3813,16.2129,5.0605,14.8672,4.3335,30.2402,8.8145,39.3535,17.52,3.5977,3.436,11.9824,12.5093,12.1152,22.5171.0615,4.6157-1.6865,8.8481-5.0547,12.2388-10.7812,10.8652-34.7422,11.4395-102.4385,11.5015l-5.9385.0024c-54.2197,0-77.2051-.6528-89.5537-1.0039-4.623-.1313-7.6768-.2183-10.373-.2183-3.418,0-6.2529.1436-10.8359.5488-.6299.0547-1.3809.0815-2.3027.0815-2.3486,0-5.7168-.1709-9.9805-.3872-6.8857-.3491-16.3164-.8276-26.7471-.8276-45.3301,0-74.8535,9.1885-87.752,27.3096-5.377,7.5459-1.6484,25.4375,1.3477,39.8135,1.2881,6.1787,2.5039,12.0146,3.0029,16.8818.2051,2.0078.3623,4.1299.4814,6.4888.0518,1.0317.0938,2.0562.1143,3.0488.1299,5.8276-.1602,10.98-.4609,15.2505-.0723,1.0933-.1562,2.1938-.2393,3.2783l-.1553,2.0161c-.3359,4.4414-.6064,8.4482-.5039,12.3452l.001.1416c0,.1851.0059.3643.0186.5435l.0117.1831v.1836c0,.1904.0156.375.0283.5591.0791,1.502.208,2.8389.3965,4.1548.0391.2925.0732.502.1084.7163l.0391.2568c.0264.2007.0605.4087.1006.6162l.0205.1094c.1748,1.0249.418,2.123.7236,3.2637l.0498.2031c.041.1816.0947.3623.1475.5483l.0352.124c.082.3096.1484.5293.2227.749l.04.125c.3252,1.0571.6885,2.1021,1.0791,3.1055.917,2.355,1.6924,4.6499,2.3066,6.8242,4.7354,16.7275.5947,28.2725-4.4561,39.5908-2.2539,5.0669-4.9316,9.8413-7.5205,14.4585-.7969,1.4204-1.5928,2.8408-2.376,4.2681-2.6836,4.873-5.4209,10.1743-7.2842,15.9673-1.4824,4.6094-2.5674,9.6572-3.3154,15.4331-.583,4.4946-.959,9.3691-1.2197,15.8047-.0869,2.1724-.3643,4.498-.6318,6.7471-.75,6.2881-1.5254,12.7905,1.5391,16.3687,1.3691,1.6021,3.7656,2.7109,6.3008,3.8848,19.7578,9.1729,39.4014,19.3013,58.3916,30.1069,2.1484,1.2236,4.3301,2.4341,6.5254,3.6519,15.959,8.8545,32.4619,18.0107,42.1357,34.7446,13.5713,23.4756,16.2705,41.7368,9.957,67.3765-3.7344,15.2051-26.9102,38.1768-36.9092,46.3208-8.3096,6.7573-18.2139,10.2026-27.791,13.5347-3.5312,1.2285-7.1826,2.4985-10.6064,3.8965-10.3164,4.2227-19.7334,10.0283-29.7021,16.1753-7.3145,4.5098-14.8779,9.1729-22.79,13.1182-10.0947,5.0356-20.0635,8.2764-29.6279,9.6328-3.3096.4722-6.5908.7119-9.748.7119Z"/>
          <path class="cls-3" d="M421.0818,10.7801c29.6216-.0001,59.1582,6.1104,84.5723,19.2581,32.2002,16.6602,26.9902,20.0602,77.1201,53.8202.6899.47,1.3799.9298,2.0498,1.3701,15.6704,10.51,27.4702,17.8998,38.04,24.3998,1.2202.75,2.4199,1.48,3.6104,2.21,1.1899.7299,2.3599,1.4498,3.5298,2.1599,4.0903,2.4903,8.0801,4.9301,12.1499,7.4601,1.7402,1.0798,3.5,2.18,5.2803,3.3001.3101.1899.6099.3799.9199.5799.8901.56,1.7798,1.1301,2.6899,1.7101,1.2202.7697,2.4502,1.5599,3.71,2.3798,1.23.8002,2.48,1.6099,3.7603,2.45,3.5498,2.33,7.2798,4.83,11.2798,7.56,1.1401.7802,2.3101,1.5799,3.4897,2.4.8901.61,1.8003,1.24,2.7104,1.8801,1.2798.8899,2.6001,1.81,3.9399,2.76.1602.1099.3101.2198.4697.3297.7402.5201,1.5,1.0601,2.2603,1.6002.9199.6498,1.8599,1.3201,2.8101,2,8.3096,5.94,28.8198,20.6099,44.7798,35.46,5.3599,2.9199,10.8901,5.6602,16.8501,7.78,18.0498,6.47,42.23,10.49,53.6499,21.4001,2.0103,1.92,17.1401,16.8099,6.96,27.0598-9.0498,9.1201-33.3398,9.8501-98.6196,9.9099-2.0073.0017-3.9927.0025-5.9199.0025-74.2595,0-89.6992-1.2218-99.9392-1.222-3.6306,0-6.6035.1535-11.3113.5696-.4797.0418-1.0928.0605-1.8276.0605-5.9377,0-19.8862-1.2144-36.7292-1.2145-31.9019-.0002-74.1929,4.3561-92.1428,29.5739-9.3203,13.0801,1.6797,43.7701,3.3799,60.3701.2197,2.15.3599,4.21.46,6.21.0498.98.0898,1.95.1099,2.8901.1201,5.3899-.1299,10.23-.4497,14.7597-.1001,1.52-.2202,3.0103-.3301,4.4702-.02.2597-.04.52-.0601.7798-.3398,4.4903-.6299,8.7103-.52,12.9101,0,.3101.0098.6099.0303.91,0,.31.0195.6101.0396.9099.0801,1.52.2202,3.04.4399,4.5701.04.31.0903.61.1401.9201.04.2997.0903.6099.1499.9199.21,1.23.4902,2.48.8301,3.75.0703.3102.1602.6201.25.94.0898.3401.1899.6699.3003,1,.3501,1.1401.75,2.3,1.21,3.48.8599,2.2099,1.5698,4.31,2.1401,6.33,4.1699,14.73.8296,24.68-4.1904,35.9303-2.8301,6.3599-6.3799,12.2798-9.6997,18.3296-2.98,5.4101-5.7603,10.9101-7.6899,16.9101-1.7202,5.35-2.8101,10.8399-3.5303,16.3901-.7002,5.3999-1.04,10.85-1.2598,16.2797-.3301,8.3003-3.8301,19.8003,2.1997,26.8404,2.1201,2.4799,5.1704,3.8999,8.1304,5.27,19.7295,9.1596,39.0796,19.1396,57.9897,29.8999,17.1001,9.7397,36.4399,18.73,46.6602,36.4096,12.6899,21.9503,15.4497,38.7804,9.3901,63.3903-3.2002,13.0303-24.6802,34.9599-35.0801,43.4301-10.5503,8.58-24.4404,11.48-37.0303,16.6201-18.6899,7.6499-34.79,20.4497-52.8599,29.4599-8.7002,4.3399-18.3198,7.75-27.98,9.1197-3.0015.4284-6.0078.6589-8.9907.6589-5.4446,0-10.8132-.7672-15.9492-2.4988-1.79-.6099-3.5503-1.3301-5.2803-2.1803-8.8198-4.3295-15.8501-11.5297-23.8799-17.1899-33.6001-23.6997-83.21-19.8696-111.54-49.6797-11.2397-11.83-17.6099-28.1704-17.3398-44.4901.73-43.7901,41.3901-62.4497,75.2798-78.5899,20.0703-9.5601,40.73-23.6401,45.8203-45.2803,1.0298-4.3897,1.54-9.2599,3.71-13.0396,4.1201-22.3804-5.7002-33.33-8.2202-50.5-2.2598-15.2803-3.8398-15.1602-13.9302-55.4402-8.6997-34.76-3.0098-48.02-1.2998-54.6501,6.9199-26.88,19-36.7799,20.4399-66.17.54-10.8399-10.2197-9.3799-21.75-19.32-20.23-17.4-51.4399-23.0598-63.52-23.76-4.1592-.2413-7.9766-.3675-11.7698-.3675-14.1272,0-27.9231,1.7497-57.8401,5.8176-11.3013,1.535-19.7395,2.0125-26.5457,2.0125-11.2051,0-17.99-1.2938-25.8621-1.2938-2.3923,0-4.885.1195-7.6323.4311-3.9092.4484-24.262,2.6594-47.7498,2.6594-26.803,0-57.6895-2.8782-72.9001-14.5393-24.79-19,23.1396-35.4001,55.1001-56.1101,21.5601-13.97,21.6196-27.6102,69.5898-47.59,11.3901-7.16,25.2397-14.88,39.5298-22.8499,29.2402-16.3002,40.9404-18,70.6699-34.3401,38.4902-21.1699,42.3403-31.22,66.0503-44.9099,29.2268-16.8842,65.9268-26.1982,102.4976-26.1984M421.0828,0h-.001c-38.7161.0001-77.0322,9.8177-107.8899,27.6441-10.7734,6.2203-17.6748,11.7097-24.9814,17.5216-9.6106,7.6444-19.5486,15.5492-40.8716,27.277-14.2468,7.8304-23.9636,12.0816-34.2512,16.5824-10.4292,4.5629-21.2136,9.2812-36.4727,17.7875l-.2249.1255c-14.1968,7.9178-27.6228,15.4058-39.0312,22.536-32.9917,13.848-44.6431,25.1502-54.9309,35.1308-4.9026,4.7561-9.1367,8.8637-15.5457,13.0165-7.1892,4.6585-15.4143,9.1951-23.3684,13.5821C19.9051,204.2249,1.2576,214.5099.0552,230.5192c-.4004,5.332,1.1885,13.2715,11.0312,20.8155,14.5088,11.123,41.2427,16.7632,79.458,16.7632,23.9683,0,45.0046-2.2739,48.9783-2.7296,2.1365-.2422,4.2356-.3608,6.4038-.3608,3.1592,0,6.2148.2444,9.7534.5273,4.4915.3592,9.5825.7664,16.1084.7664,8.3823,0,17.54-.6904,27.9968-2.1107,30.5286-4.1511,43.2988-5.7195,56.3892-5.7195,3.4958,0,7.0374.1109,11.1455.3493,9.6934.5619,38.8489,5.4603,57.1147,21.1708,5.4001,4.6555,10.6411,7.2682,14.4678,9.176,1.1501.5734,2.6147,1.3035,3.5239,1.8502-.8196,15.458-4.7903,24.3741-9.8057,35.6353-3.4282,7.6973-7.3137,16.4217-10.2861,27.9681-.1343.5201-.2998,1.0924-.4807,1.7234-2.3906,8.338-6.8403,23.8582,1.7627,58.2317,4.4839,17.8993,7.3508,28.0643,9.248,34.7907,2.4104,8.546,3.3123,11.7437,4.4756,19.6092,1.009,6.8751,2.9343,12.6096,4.7964,18.1555,3.0369,9.0456,5.4631,16.2703,3.741,27.3168-1.7761,3.7738-2.5442,7.6142-3.2334,11.0612-.2114,1.0577-.4114,2.0569-.6248,2.9671-3.3818,14.3775-16.4539,26.8127-39.9609,38.0099l-1.5952.7593c-17.0171,8.0989-36.3044,17.2784-51.5232,30.276-18.6711,15.9463-27.9294,34.6261-28.3042,57.1072-.3176,19.1928,7.0828,38.1803,20.3032,52.0951,17.7148,18.6403,41.8164,25.3775,65.1248,31.8928,17.7502,4.9617,34.5164,9.6484,48.0168,19.1709,2.5427,1.7923,5.0356,3.8064,7.675,5.9387,5.3445,4.3177,10.8708,8.7824,17.6682,12.1191,2.0869,1.0256,4.2937,1.9372,6.5542,2.7073,6.0625,2.044,12.5874,3.0748,19.4255,3.0748,3.4104,0,6.9478-.2581,10.5139-.7672,10.1304-1.4363,20.6541-4.8501,31.2688-10.1451,8.1277-4.0528,15.7959-8.7807,23.2114-13.3528,9.7756-6.0273,19.009-11.7204,28.9199-15.7768,3.283-1.3404,6.7065-2.5313,10.3311-3.7923,10.0178-3.4851,20.3765-7.0887,29.4172-14.4412,7.0439-5.7369,34.2446-30.8888,38.7476-49.2224,6.604-26.8216,3.6531-46.8299-10.5264-71.3569-10.4202-18.0253-28.3589-27.9783-44.186-36.7596-2.2422-1.244-4.3601-2.4191-6.4717-3.6217-19.1213-10.8804-38.8984-21.0776-58.7856-30.3104-1.6411-.7597-3.8738-1.7932-4.4756-2.4972-1.5332-1.7899-.7837-8.074-.2878-12.2324.2805-2.3528.5706-4.7857.6658-7.1747.2532-6.262.6169-10.9897,1.1787-15.322.7068-5.4472,1.7217-10.1828,3.1023-14.4764,1.7231-5.3583,4.3201-10.3803,6.8696-15.0089.7849-1.4304,1.5745-2.8381,2.364-4.2464,2.6475-4.722,5.3853-9.6046,7.7424-14.9017,5.2473-11.7597,9.938-24.7952,4.7139-43.2491-.6675-2.3639-1.4749-4.7548-2.4663-7.3028-.3484-.8937-.6675-1.812-.9512-2.7356l-.0393-.1276-.0422-.1266c-.0415-.1239-.0747-.2335-.1016-.3348l-.0215-.0812-.0225-.0808-.0366-.1291c-.0298-.1064-.0608-.2105-.0869-.3145l-.0461-.2033-.0452-.1641c-.2625-.9812-.4702-1.9156-.6174-2.7775l-.0188-.1107-.0212-.1104c-.02-.1047-.0374-.2094-.0508-.3105l-.019-.1429-.0229-.1424-.0234-.1457c-.0239-.1481-.0493-.2932-.0686-.4427l-.0098-.0764-.011-.0764c-.1653-1.1507-.2783-2.3299-.3455-3.6052l-.0039-.0752-.0051-.075c-.0054-.0803-.0117-.1608-.0154-.2421v-.3184l-.0254-.3675c-.0037-.0575-.0049-.1149-.0049-.1743v-.1409l-.0039-.1409c-.0952-3.6437.167-7.5064.4929-11.8147l.0291-.3767.03-.3891.0884-1.1611c.0859-1.1193.1729-2.2553.249-3.4079.3091-4.3862.6062-9.6823.4717-15.7287-.0203-.9413-.0598-1.9899-.1211-3.1965-.1221-2.4349-.2864-4.6484-.502-6.7596-.5273-5.1472-1.7712-11.1158-3.0881-17.4345-1.6265-7.8029-3.3079-15.8715-3.8015-22.9785-.5945-8.5607.8962-11.6671,1.5647-12.6053,6.501-9.1332,18.1741-15.8765,34.6982-20.0472,13.1521-3.3195,29.5254-5.0025,48.6653-5.0023,10.2949,0,19.6467.4743,26.4756.8205,4.3401.2201,7.7683.394,10.2537.394,1.0938,0,1.9722-.0323,2.7646-.1013,4.4761-.3957,7.0908-.5288,10.3743-.5288,2.6194,0,5.6423.0858,10.2185.2159,12.3762.3516,35.4131,1.0061,89.7207,1.0061,1.9302,0,3.9187-.0008,5.9292-.0025,69.3635-.0635,93.9766-.7157,106.2625-13.0968,4.4075-4.4379,6.6965-10.0076,6.6162-16.1037-.1589-12.0486-9.6917-22.4376-13.7827-26.3451-10.063-9.6137-26.0786-14.2817-41.5669-18.7961-5.6812-1.6559-11.0474-3.2199-15.8909-4.9562-4.2905-1.5261-8.6941-3.5357-14.1663-6.4692-16.3555-15.0366-36.9707-29.7731-44.8323-35.3928-.9646-.6901-1.9221-1.3729-2.8596-2.035l-.1116-.0793c-.7305-.5188-1.4592-1.0366-2.1707-1.5364l-.0425-.0298-.0425-.0293-.1006-.0709c-.1016-.0723-.2036-.1443-.3076-.2165-1.3369-.9474-2.6543-1.8656-3.9321-2.7543-.9304-.6541-1.8604-1.298-2.7708-1.9219-1.1235-.7809-2.2385-1.5439-3.3279-2.2892l-.1958-.134c-4.0916-2.7924-7.834-5.3007-11.4521-7.6756-.9871-.6476-1.9553-1.2769-2.9106-1.8977l-.8867-.5764c-1.301-.8469-2.574-1.6646-3.8369-2.4612l-.5938-.3788c-.6909-.4409-1.3728-.8759-2.0547-1.3052-.3457-.2224-.6816-.4351-1.0271-.6472-1.7805-1.1202-3.541-2.2207-5.282-3.301-4.3625-2.7122-8.6299-5.3176-12.2278-7.5082-.9451-.5735-1.8777-1.1458-2.8203-1.7245l-.679-.4166-1.5696-.9604c-.6724-.4109-1.3491-.8246-2.0325-1.2447-10.2776-6.3201-21.9575-13.6236-37.6802-24.1686l-.0422-.0283-.0425-.0279c-.6213-.4083-1.261-.8347-1.9009-1.2706l-.0234-.016-.0239-.0159c-22.4238-15.1015-33.3127-23.804-42.062-30.7967-10.6096-8.4792-17.6187-14.0809-36.126-23.6566C484.73,7.0762,453.773,0,421.0828,0h0Z"/>
        </g>
        <path class="cls-8" d="M273.8368,175.1731c-9.5179,2.6997-13.1654,16.6356-22.5383,29.9684-5.1609,7.3414-11.8874,5.9633-24.0243,14.6127-14.3456,10.2236-29.4958,12.139-51.0207,14.8604-19.0303,2.406-19.5112-.1337-38.6369,2.4767-22.7309,3.1024-23.2022,6.847-43.095,9.4116-17.5734,2.2656-39.3895,4.7792-54.488-7.9255-2.2827-1.9208-10.6679-8.9765-9.4116-16.3464,1.218-7.1451,10.4519-8.4474,28.2348-17.3371,23.3311-11.6633,39.3348-25.368,46.0672-31.2067,9.3105-8.0749,7.624-8.0681,13.8697-12.879,17.6043-13.5603,34.7753-16.5182,47.5531-19.8138,21.5055-5.5467,23.1639-17.2972,50.0299-32.1974,20.222-11.2153,47.4947-18.3745,77.2739-40.6184,31.1999-23.3053,28.0318-23.2312,38.6369-29.2254,36.0013-20.3485,71.7872-20.793,85.6946-20.8045,44.4206-.0369,76.0893,15.6429,83.2182,19.3185,15.8099,8.1514,55.5029,31.8437,64.7251,47.7182,9.2222,15.8745,11.2279,36.9858-13.8697,27.079-4.2952-1.6955-11.9937-27.834-52.3416-37.1509-28.5482-6.5921-42.8221-9.8882-56.4693-10.8976-14.5209-1.074-52.7826-3.3935-90.6482,18.8231-18.4208,10.8079-46.7372,27.4219-50.5253,53.9926-1.5329,10.7513.8125,24.0998-6.9349,28.7301-5.8949,3.5231-12.3621,6.8764-21.2997,9.4115Z"/>
        <path class="cls-8" d="M349.9548,339.4627c-5.0666,9.4094-7.7724,13.124-10.8975,21.7952-2.172,6.0268-5.2632,14.8204-5.614,26.4184-.6533,21.6061,8.6637,37.7335,11.558,42.5997,4.5548,7.658,5.4554,6.2718,10.8975,15.1906,10.8169,17.727,12.8013,32.2845,13.8697,32.0324,1.0597-.2501.2129-14.8333-5.614-31.7022-5.3587-15.5127-8.7632-15.1086-11.558-27.0789-1.8073-7.7406-.1845-7.0563-1.3209-33.6835-.6224-14.581-1.2081-17.1057,0-23.1161,1.9347-9.6259,5.4245-13.0393,9.5766-22.1254,8.7073-19.054,9.2203-38.748,7.2652-39.2974-1.7415-.4893-4.9115,14.3585-18.1628,38.9672Z"/>
        <path class="cls-2" d="M807.7174,242.1113c-9.0512,9.1144-33.3435,9.8486-98.6248,9.9119-106.7773.0886-98.8402-2.2786-117.1702-.6583-11.6967,1.0254-102.0936-11.76-130.7024,28.4191-9.317,13.0893,1.6834,43.7743,3.3798,60.37,2.4557,24.2163-3.747,37.9638,1.1015,54.952.4175,1.4557.9114,2.9495,1.5063,4.4685.8607,2.2153,1.5697,4.3167,2.1393,6.3294,4.1648,14.7349.8227,24.6847-4.1901,35.9384,2.0509-12.5196,2.19-25.8493-2.5948-37.5714-1.9242-4.7217-7.2158-14.9754-8.4183-29.9634-.7216-9.0132.6203-12.3804-.8227-22.9505-1.0001-7.2915-2.3547-10.9499-5.9496-23.1277-5.5194-18.6971-8.2789-28.0519-8.583-31.6977-.4175-5.0509-1.3923-24.824,10.5702-38.9639,7.2662-8.5953,13.3931-8.1269,27.0774-15.1906,29.09-15.0387,23.9377-28.8621,48.2046-40.9513,18.7858-9.3549,23.3431-1.8229,54.1672-13.8741,18.0388-7.051,27.1658-10.7727,32.356-20.4693,10.2664-19.1782-3.6332-45.23-5.9369-49.534-5.494-10.2916-8.2916-9.5954-14.5326-20.4693-1.8481-3.2154-3.9367-7.3548-5.8736-11.8487,15.6718,10.5069,27.4696,17.8996,38.0398,24.3936,8.8232,5.418,16.7983,10.2157,25.4697,15.697,10.4559,6.6079,21.9375,14.2158,37.1408,25.0897,8.3169,5.937,28.8242,20.6086,44.7868,35.4574,5.355,2.9242,10.8867,5.6585,16.849,7.7852,18.0515,6.4686,42.23,10.4815,53.6483,21.3935,2.0129,1.9241,17.1401,16.8109,6.9624,27.0645Z"/>
        <path class="cls-2" d="M550.3942,618.7282c1.5698.2603,3.1602.4902,4.7798.6899-1.6196-.1997-3.2197-.4199-4.7798-.6899Z"/>
        <path class="cls-4" d="M643.3444,178.7385c-2.1304,11.5498-10.7603,18.5098-13.9404,21.0698-2.5801,2.0901-13.1299,10.1101-39.4697,10.8-29.6602.78-32.8901-8.98-52.8398-5.27-13.0103,2.4299-11.9805,6.6401-35.8301,16.8201-.54.23-1.0903.46-1.6504.7-9.7598,4.0901-18.7397,7.8301-28.6099,10.47-11.77,8.96-39.1997,19.3401-66.04,14.9399-.4097-.0698-.8501-.1399-1.3198-.2197-4.5898,6.9897-8.3398,14.8899-7.5703,24.0498,2.0205,23.76,12.0801,29.8801,20.4902,45.5701,5.1201,9.5901,8.29,10.8601,15.9697,21.3699,2.2803,3.1401,4.9805,7.0801,8.2305,12.3201,2.3301,3.76,4.2397,7,5.7998,9.9001,3.9502,7.2998,5.77,12.4299,6.9302,17.9199,1.1099,5.1899,3.0898,15.0898-.1001,26.8301-2.3604,8.6799-6.5,14.45-10.5,20.0498-8.5898,11.9902-13.2202,12.3701-19.6401,22.3198-5.8501,9.0503-7.6699,17.5-8.6802,22.1704-3.46,16-.46,29.1299,2.6904,41.9399,2.9399,11.9497,5.2695,20.6201,7.1597,27.1997h-30.1699c-.1597-1.98-.3198-4.0396-.4897-6.1699-1.9302-24.1499-3.8804-19.75-6.2603-47.1899-1.7397-20.0498-1.0898-26.7598-6.0298-37.25-6.54-13.8101-12.4102-12.1201-18.9004-25.3101-10.3696-21.0798-4.1797-43.2197-3.3696-45.98,4.4897-15.23,10.96-14.8699,18.4199-32.3398,8.21-19.21,7.71-36.71,7.4097-44.1401,0-8.3699-3.9795-16.75-7.5796-24.1099-4.1001-8.3801-8.4204-16.6699-12.9502-24.8201-1.1099-2.03-2.2798-4.0601-3.9497-5.6499-3.8101-3.6001-9.3301-4.1602-14.0703-5.8601-5.3599-1.8999-10.8101-3.3101-16.3999-4.3799-23-4.3901-33.48-.6602-41.3701-9.9001-5.3501-6.28-7.1597-15.8-4.9497-23.2898,2.1899-7.4202,7.0698-8.52,13.3696-15.8501,10.5703-12.25,6.27-20.01,16.1001-43.1802,3.98-9.3398,7.8501-18.4697,16.02-27.3999,4.25-4.6499,10.2002-9.8301,16.3799-13.8398,9.5601-7.23,20.8701-11.8601,31.8604-16.4602,7.8999-3.3,38.9897-15.45,79.6699-9.6799,14.0801,2,39.79,5.6499,63.5601,23.72,17.3198,13.1702,18.1597,22.23,32.8896,26.21,18.1602,4.9001,26.9004-6.1699,45.9805-1.9199.9497.22,1.9097.46,2.9097.75,2.8101.8201,5.4102,1.8401,7.8003,2.98,10.7798,5.1599,17.4097,12.8601,20.0098,15.97,5.29,6.3101,15.8398,18.8601,13.0303,34.1401Z"/>
        <path class="cls-3" d="M36.6938,226.2212c.9908-7.577,10.1346-12.8334,17.1395-15.5648,7.2486-2.8265,14.9897-4.3443,22.0404-7.6335,20.5318-9.5784,31.9471-32.376,51.5293-43.7706,20.8419-12.1276,48.9864-10.2191,66.5065-26.7874-7.1715,11.0822-20.0937,16.8975-32.6336,21.0201-12.5399,4.1225-25.7814,7.3225-36.3015,15.2957-15.3222,11.6128-23.5549,32.3878-41.5211,39.2318-7.5793,2.8872-15.985,2.8364-23.7064,5.3189-9.4992,3.0541-17.6589,10.0617-22.1128,18.9905-.9273-2.1758-1.1875-4.2104-.9403-6.1006Z"/>
        <path class="cls-3" d="M315.2806,55.1344c4.6661-3.7368,14.9909-11.9307,27.7394-18.4929,21.1161-10.8695,41.5819-13.5046,52.8367-14.8604,36.633-4.4127,65.3867,2.981,75.1275,5.779,37.9422,10.8989,64.5619,31.6814,63.8996,32.9405-.5316,1.0103-18.7178-10.3809-50.6489-20.3091-18.0991-5.6276-35.9213-11.0259-60.0608-11.5168-25.3992-.5166-45.2729,4.6543-57.9552,8.0494-8.9731,2.4021-18.8241,5.0907-31.0831,10.8976-18.5234,8.7742-31.1044,19.2488-31.7021,18.4516-.4435-.5914,6.3473-6.5346,11.8469-10.9389Z"/>
        <path class="cls-3" d="M204.2407,120.6851c4.2652-7.5145,12.2487-9.6762,23.0334-13.622,0,0,2.4805-.9075,25.7581-10.8976,25.0142-10.7354,38.7349-22.7041,39.3799-21.7952.6419.9044-12.3071,13.6541-30.4637,23.2812-7.0251,3.7249-9.6805,4.252-16.3465,8.6686-10.404,6.8931-19.3186,15.1079-19.3186,15.1079-4.6856,4.3179-7.4272,7.3905-12.8789,9.164-1.3357.4345-8.2743,2.6916-10.65-.2476-2.3009-2.8466,1.0431-8.8786,1.4862-9.6592Z"/>
        <path class="cls-7" d="M807.7174,242.1113c-9.0512,9.1144-33.3435,9.8486-98.6248,9.9119-106.7773.0886-98.8402-2.2786-117.1702-.6583-11.6967,1.0254-102.0936-11.76-130.7024,28.4191-9.317,13.0893,1.6834,43.7743,3.3798,60.37,2.4557,24.2163-3.747,37.9638,1.1015,54.952-5.4814-6.5699-9.7982-21.001-7.4309-31.204.4052-1.7596,1.481-5.4179,1.9875-10.8992.7467-8.2789-.4305-14.1906-.671-15.3552-1.2659-6.1902-3.5065-10.0638-4.9498-13.0512-.4429-.8988-7.6206-16.2033-5.6078-31.8623,2.2787-17.735,15.4564-29.052,19.7226-32.356,6.4812-5.0383,12.4184-7.1523,22.0516-10.1651,38.2296-11.9499,57.3446-17.9249,72.1553-16.7603,15.6971,1.2532,22.2416,5.6838,39.9513,3.6331,8.494-.9748,8.9499-2.228,21.7985-4.2914,15.3046-2.4558,27.4316-2.7343,38.9639-2.9621,24.7988-.4937,25.7102,1.7343,36.6599-.671,6.5448-1.4305,26.786-5.861,29.052-17.4945,1.3292-6.8231-4.0634-13.3297-5.6078-15.1906-6.7219-8.1016-13.2031-5.899-22.7859-13.2158-7.0888-5.4053-6.1016-8.5574-14.8615-19.4819-8.1902-10.2157-13.1274-12.5449-21.4693-20.4694-4.8484-4.6078-11.1398-11.4056-16.3298-17.9881,10.4559,6.6079,21.9375,14.2158,37.1408,25.0897,8.3169,5.937,28.8242,20.6086,44.7868,35.4574,5.355,2.9242,10.8867,5.6585,16.849,7.7852,18.0515,6.4686,42.23,10.4815,53.6483,21.3935,2.0129,1.9241,17.1401,16.8109,6.9624,27.0645Z"/>
        <path class="cls-9" d="M70.7451,225.0379c-2.071-.7707-5.507-.9778-7.7606,1.321-2.2839,2.3295-2.1445,5.9993-.8255,8.4209,2.1081,3.8697,6.8999,3.9464,7.9257,3.9628,1.201.0192,4.4769.0716,5.944-1.9814,2.2134-3.0975-.4506-9.9246-5.2836-11.7232Z"/>
        <path class="cls-9" d="M127.7098,192.8405c-2.8356-2.75-9.6718-2.1348-13.5396,1.8162-2.5849,2.6405-4.29,7.2264-2.4768,11.3929,2.5345,5.8236,9.8171,5.9439,10.7325,5.9442.7139.0002,6.3959.0014,8.2557-3.4674.3421-.6379.6586-1.5866-.9905-9.2465-1.188-5.5182-1.5709-6.0414-1.9813-6.4394Z"/>
        <path class="cls-9" d="M179.3907,219.9193c-2.338-3.8626-9.5-3.2747-13.7044-.6604-2.5515,1.5866-6.1174,5.2276-5.1185,8.586,1.2628,4.2467,8.7564,4.4504,9.2463,4.4581,1.3237.0208,3.9129.0613,6.2744-1.6511,3.3226-2.4093,5.2125-7.5768,3.3022-10.7325Z"/>
        <path class="cls-9" d="M196.2326,152.2524c-2.5137-2.0322-5.4097-1.9963-6.6045-1.9814-1.1587.0144-7.5474.2646-10.2373,5.614-1.8691,3.7163-.9707,7.9404.9907,10.7324.6353.9043,2.54,3.3069,5.9438,4.1279,4.2549,1.0264,7.6699-1.1855,8.7515-1.9814.7593-.5591,3.9136-3.0305,4.458-7.4302.0635-.5117.6406-5.8936-3.3022-9.0813Z"/>
        <path class="cls-9" d="M263.9585,159.105c-1.9288-3.8898-7.2918-4.5805-9.2178-4.8285-5.0552-.6511-12.4703.7632-15.8025,6.5842-.5328.931-3.0423,5.6101-.8777,10.0958,2.5095,5.2002,9.1297,5.6419,10.0958,5.7064,5.0104.3342,8.5988-2.2778,9.657-3.0726,4.1351-3.1062,8.5265-9.683,6.1452-14.4853Z"/>
        <path class="cls-9" d="M260.9576,108.6317c-2.1396-1.47-5.1664-.4341-6.6045,1.486-1.0937,1.4603-1.5162,3.7632-.3304,5.6139.9049,1.4124,2.631,2.3812,4.4581,2.1465,2.3018-.2956,3.3959-2.3257,3.6326-2.807.9262-1.8824.9877-4.9668-1.1559-6.4394Z"/>
        <path class="cls-9" d="M313.4642,95.7527c-1.0631-2.9852-4.0072-4.0851-4.1277-4.1279-3.8184-1.3574-7.3295,1.5222-8.0907,2.1465-2.8832,2.3646-5.5855,7.1955-3.6326,10.8976,1.324,2.5097,4.1113,3.2196,4.4581,3.3022,3.661.8735,6.6168-1.6435,7.5953-2.4767.3134-.2668,5.5404-4.8482,3.7976-9.7418Z"/>
        <path class="cls-9" d="M351.1107,46.3833c-4.8503.7169-13.4497,3.4968-13.6221,7.6779-.1236,3.0031,4.1506,5.4964,6.1919,6.6871,3.6675,2.1393,7.2822,2.4845,9.4116,2.4768,1.201-.0043,8.9737-.0325,13.3743-5.6965.8496-1.0936,3.1848-4.0994,2.2289-6.6872-1.0285-2.7843-5.2938-3.5319-9.1637-4.2104-1.863-.3266-4.6948-.7984-8.4208-.2477Z"/>
        <path class="cls-9" d="M431.4803,50.9652c.1972-3.0932-2.5568-5.7643-5.0771-6.811-3.2333-1.3429-8.333-.9468-10.1546,2.6006-1.8021,3.5091.8199,7.7339,3.3433,9.5354.4317.3081,1.7242,1.2069,3.5915,1.3622,3.263.2713,5.5756-1.9521,6.1916-2.6005.6608-.6957,1.9776-2.0819,2.1053-4.0866Z"/>
        <path class="cls-9" d="M485.3493,45.1449c-1.6914-.4436-5.1643-.7002-6.4394,1.4861-1.1478,1.9681.2411,4.6195,1.4859,5.9441,1.841,1.9589,5.1841,2.9498,7.6778,1.4861.1721-.101,2.4038-1.4561,2.4768-3.7151.0878-2.714-3.0083-4.626-5.2011-5.2011Z"/>
        <path class="cls-9" d="M553.0465,96.7434c-3.36-3.4613-2.8986-5.18-5.1185-6.1092-2.9172-1.221-7.0659.3432-7.4303,2.1465-.2299,1.1374,1.197,1.6211,3.7976,4.9535,2.444,3.1316,2.0447,3.808,3.9627,5.779,1.1552,1.1872,4.3824,4.5038,6.9349,3.4674,1.8259-.7414,2.8467-3.524,2.3117-5.6139-.4722-1.8446-1.8444-1.9308-4.4581-4.6233Z"/>
        <path class="cls-2" d="M286.5506,182.2731c-2.8025-3.6596-8.4866-2.094-9.4116-1.8162-.3236.0971-6.6913,2.1007-6.7698,6.6045-.06,3.4352,3.5835,5.771,5.779,6.6046.5489.2083,5.4069,1.9619,8.9162-1.1558,2.8074-2.4943,3.7794-7.2427,1.4862-10.2372Z"/>
        <path class="cls-2" d="M355.3209,248.9796c-4.2495-3.7949-11.5543-1.9248-15.3556,1.7337-.6187.5954-3.7,3.5609-3.4673,7.9255.2343,4.3933,3.709,8.0068,7.6778,9.1639,3.276.9551,6.8669.2303,9.4116-1.7337,5.003-3.8615,6.4425-12.884,1.7335-17.0894Z"/>
        <path class="cls-2" d="M204.8187,239.7331c-2.0187-2.7115-7.0174-2.6903-9.907-.3302-2.7401,2.2379-3.8854,6.8248-1.9813,8.9162,1.7468,1.9186,5.3707.98,6.6045.6605,1.3487-.3493,4.9362-1.2784,5.9443-4.4582.0436-.1379.8369-2.7772-.6604-4.7883Z"/>
        <path class="cls-2" d="M414.3498,260.7028c-2.9369-1.3953-7.8098,1.8361-9.742,5.779-1.3577,2.7706-1.9106,7.2121.6604,10.0721.2825.3142,2.0771,2.2471,4.9535,2.3116,2.4672.0553,4.6052-1.2894,5.779-2.972,1.1512-1.6501,1.1664-3.326,1.1559-5.4488-.0173-3.5015-.042-8.4283-2.8068-9.7418Z"/>
        <path class="cls-2" d="M431.3564,306.2746c.7804-3.188-1.6083-6.7974-4.7882-7.1-2.3757-.2261-4.5542,1.4544-5.4489,3.4674-1.1172,2.5139-.284,5.6617,1.8163,7.1,1.3246.9071,2.7354.848,3.1372.8256,2.3364-.1309,4.6846-1.846,5.2836-4.293Z"/>
        <path class="cls-2" d="M364.485,353.9928c-1.5252-1.6385-4.8682-1.2962-6.7698.4953-1.8488,1.7418-1.905,4.448-1.1559,6.2744.1233.3009,1.1497,2.8027,3.1372,2.9721,1.9829.169,3.4206-2.1115,3.963-2.9721.318-.5047,2.8325-4.6138.8255-6.7697Z"/>
        <path class="cls-2" d="M460.9121,420.0389c-1.8577-1.5956-4.6213-1.3235-6.4394-.1651-2.1022,1.3394-3.2101,4.0354-2.4768,6.4394.0661.2165.8629,2.681,3.3022,3.4674,2.3945.7719,4.8735-.5561,6.1094-2.3116,1.4906-2.1169,1.6741-5.5668-.4954-7.4302Z"/>
        <path class="cls-2" d="M445.5565,456.6945c-2.7191-.9863-6.7494,1.9212-7.0999,5.2837-.306,2.9365,2.3031,5.1804,2.8068,5.6139.509.4378,1.1546.9795,2.1467,1.1558,2.0762.3691,3.6916-1.2137,3.7976-1.3209,1.4043-1.4196,1.3515-3.3428,1.3209-4.4581-.013-.4735-.144-5.2485-2.9722-6.2744Z"/>
        <path class="cls-2" d="M419.8398,474.3618c-1.0882.1336-1.7183,1.2266-2.7246,2.9721-1.1348,1.9684-1.8877,3.2747-1.362,4.7057.4704,1.2806,1.8435,2.3299,3.3436,2.3529,1.8726.0287,2.9919-1.5562,3.4673-2.229.2608-.3692,1.4244-2.0168.9908-4.0866-.4012-1.9147-2.1108-3.9119-3.7151-3.7151Z"/>
        <path class="cls-2" d="M365.1454,485.4245c.7365-1.6789,1.0013-4.4838-.8255-6.1093-1.9653-1.7485-4.8188-.7687-5.1189-.6604-2.2978.8293-3.2089,2.8847-3.4673,3.4674-.2763.6235-1.5382,3.4693,0,5.4488,1.4451,1.8598,4.3657,1.6736,6.1094.9907.3702-.145,2.3485-.9629,3.3022-3.1372Z"/>
        <path class="cls-2" d="M386.9406,521.2546c.3984-3.7974.4985-4.6333-.165-5.2837-1.4541-1.4248-4.707-.1304-5.4492.165-.9355.3726-5.8525,2.4941-6.1089,6.9351-.1704,2.9536,1.8286,5.0723,2.8066,6.1089.8843.937,2.252,2.3867,4.1284,2.312,1.3672-.0552,2.3438-.8931,2.6416-1.1562,1.356-1.1963,1.4688-2.623,2.1465-9.0811Z"/>
        <path class="cls-2" d="M435.3684,511.4488c-.0241-.8337-.0714-2.4783-1.2384-3.4674-1.8089-1.5331-4.8351-.2433-5.6965.1239-.4543.1936-4.5749,1.95-4.4581,4.7057.0773,1.8239,1.9693,3.1118,3.2197,3.9628.8363.5693,1.616,1.0852,2.7243,1.1145,1.6519.0438,2.8337-1.0248,3.3436-1.486,2.147-1.9414,2.113-4.6819,2.1053-4.9534Z"/>
        <path class="cls-6" d="M643.3423,178.7412c-2.1266,11.5448-10.76,18.5072-13.9374,21.0643-2.5825,2.0887-13.127,10.1144-39.4701,10.798-29.6596.7848-32.8876-8.9751-52.8379-5.2661-13.3044,2.4812-11.9372,6.8358-37.4829,17.5199-9.7599,4.0888-18.7351,7.8358-28.6088,10.4688-11.7728,8.9625-39.2044,19.3427-66.041,14.9375-.4052-.0634-.8484-.1393-1.3166-.2153-4.5953,6.9877-8.3423,14.8868-7.57,24.0518,2.0126,23.7606,12.0763,29.8749,20.4819,45.5718,5.1269,9.5827,8.2916,10.8613,15.9753,21.3681-6.4178-4.9369-14.5196-14.1778-18.7602-19.4693-6.3674-7.937-18.4187-22.9631-22.2163-43.0147-1.2532-6.6586-.7597-9.4055-2.9623-18.33-1.7721-7.1269-3.7596-12.1399-3.3038-19.8111.2658-4.4559.4555-7.608,2.6328-9.5827,4.2535-3.8229,11.3549.9367,22.1276,2.9749,18.1275,3.4305,42.5845-1.633,51.7621-14.2792,1.2912-1.7722,2.7089-4.2787,5.9496-6.1902,6.3928-3.785,12.1146-.6582,19.5705-.4936,9.6462.2025,8.2282-4.8484,34.6727-16.8489,9.9623-4.5192,14.583-5.7978,19.3171-11.3929,3.4942-4.1268,5.2873-15.0589,7.9241-15.85,2.4768-.743,4.9374,18.5842,13.3681,23.2807,9.089,5.0635,20.9884-.3165,25.7608-2.4812,3.2658-1.4684,13.4435-6.2535,19.5705-17.8237,5.9749-11.3043,7.1141-27.2038-.2531-37.1536-2.9876-4.0635-6.6712-6.1269-8.1015-7.6712.9494.2152,1.9112.4557,2.9113.7468,15.444,4.4939,24.634,15.1527,27.8114,18.9503,5.2916,6.3041,15.8362,18.8617,13.026,34.1408Z"/>
        <path class="cls-6" d="M453.3942,406.0085c-2.3604,8.6799-6.5,14.45-10.5,20.0498-8.5898,11.9902-13.2202,12.3701-19.6401,22.3198-5.8501,9.0503-7.6699,17.5-8.6802,22.1704-3.46,16-.46,29.1299,2.6904,41.9399,2.9399,11.9497,5.2695,20.6201,7.1597,27.1997h-4.6001c-4.1899-11.98-7.7197-13.52-10.4297-30.98-2.9502-18.9897-6.0898-39.1699,3.96-57.9497,6.46-12.0703,10.9399-9.7002,23.1201-28.7402,7.6797-11.9897,13.6201-21.27,14.5298-34.0098.9902-13.6902-4.5298-21.5-4.4399-26.75,3.9502,7.2998,5.77,12.4299,6.9302,17.9199,1.1099,5.1899,3.0898,15.0898-.1001,26.8301Z"/>
        <path class="cls-5" d="M312.9689,158.1662c5.9873-25.1465,20.8047-39.6274,20.8047-39.6277,30.208-29.5229,73.6416-35.334,73.6411-35.3345,0-.0005-19.6245,2.0723-38.9673,16.8416-6.9268,5.2891-18.3901,14.0422-24.7671,29.0603-1.7271,4.0671-3.0435,8.5063-7.9258,20.144-3.9287,9.365-6.5117,14.6807-12.1357,17.75-.668.3645-6.9253,3.6958-9.9067,1.2383-1.9512-1.6084-1.9023-5.2041-.7432-10.072Z"/>
        <path class="cls-5" d="M289.7704,199.8578c-.6153-.2097-2.7113,2.8606-3.7151,6.522-2.5033,9.1321,2.7725,18.3539,3.4673,18.1627.4086-.1125-.9884-3.4216-1.073-10.0721-.1103-8.6744,2.1226-14.3395,1.3209-14.6127Z"/>
        <path class="cls-5" d="M593.9948,132.0781c-.6852-1.103-2.5633-2.9079-23.4463-.6604-12.1174,1.3041-14.515,2.2379-15.5207,4.293-.8672,1.772-.204,3.3644,3.9627,12.5487,6.3755,14.0527,7.1935,15.5499,9.5766,16.8417,4.0996,2.2224,10.0476,2.3277,14.2001-.3302,3.725-2.3842,3.2636-5.2368,8.5858-21.1347,2.8112-8.397,3.6963-9.8604,2.6418-11.5581Z"/>
        <path class="cls-7" d="M666.3155,191.0242c-3.4407-2.3748-8.4143-.5232-10.7325,2.6419-2.3154,3.1612-2.4103,8.2176.4954,10.7325,2.6755,2.3156,6.5096,1.2778,6.9345,1.1558.3078-.0884,3.5158-1.0658,5.1189-4.293,1.5286-3.0771,1.4804-7.9618-1.8163-10.2372Z"/>
        <path class="cls-7" d="M647.8224,135.7106c-1.2294-1.3123-3.581-2.4384-5.6136-1.4861-2.3046,1.0797-2.8955,4.2202-2.1467,6.4395.6957,2.0622,2.6912,3.7534,4.9535,3.7976.3424.0067,1.824.0357,2.9722-.9907,1.9609-1.7527,1.8546-5.6041-.1653-7.7604Z"/>
        <path class="cls-7" d="M607.3694,104.3387c-1.302-.0651-2.8152,1.0166-2.8071,2.3116.008,1.3195,1.5907,2.1234,2.6418,2.3116.9133.1636,2.3602.0297,2.8071-.8256.6246-1.1949-.751-3.7032-2.6418-3.7976Z"/>
        <path class="cls-7" d="M543.8,214.6357c-2.0762-3.5593-9.4658-3.7463-12.8789,0-1.8096,1.9861-2.9395,5.5593-1.3208,8.2556,1.9248,3.2073,6.7549,3.5356,9.9067,1.9814,3.9482-1.9473,6.0439-7.2349,4.293-10.2371Z"/>
        <path class="cls-7" d="M612.488,225.203c-.9377-2.9817-13.8657-3.1401-15.1906.3302-.743,1.9456,2.0302,5.3742,5.2836,6.2744,5.3998,1.4941,10.6008-4.3978,9.907-6.6046Z"/>
        <path class="cls-7" d="M456.9494,259.2167c-2.0005-1.3159-8.6158,2.2246-8.2557,5.9442.1938,2.0001,2.4159,4.1704,4.6231,3.9628,2.6137-.2459,3.6725-3.6811,3.9627-4.6232.4042-1.3117,1.0001-4.4088-.3301-5.2837Z"/>
        <path class="cls-1" d="M705.4479,170.0546c-2.367-1.0374-5.9196.2124-6.6048,2.6418-.6734,2.3874,1.761,4.7114,3.6326,5.614.2179.105,3.2012,1.5008,4.7882.1651,1.9415-1.6344,1.3873-7.017-1.816-8.4209Z"/>
        <path class="cls-1" d="M768.1916,208.1962c-2.2979-2.803-6.2861-4.1763-9.5767-2.9722-5.0884,1.8623-6.9287,9.3115-4.1279,13.8696,1.6187,2.6343,5.1099,4.8286,8.751,4.1279,3.7075-.7134,5.4604-4.022,5.7793-4.6233,1.5293-2.8867,1.8237-7.1704-.8257-10.4021Z"/>
        <path class="cls-1" d="M650.547,237.0913c-3.3848-3.1701-10.679-.4895-11.3929,2.7245-.4818,2.1689,2.0521,4.4948,3.4673,5.4488,1.82,1.2269,5.7367,2.8455,8.1732.743,2.4477-2.1121,2.0228-6.7899-.2476-8.9163Z"/>
        <path class="cls-1" d="M567.9892,238.3297c-1.4955-2.6451-5.4087-2.6851-7.6778-1.2384-1.3972.8908-2.9493,2.8414-2.4768,4.9535.5996,2.6803,3.9571,3.3736,4.4581,3.4674.577.108,2.3102.4324,3.8802-.5779,2.0163-1.2976,3.0853-4.3604,1.8163-6.6046Z"/>
        <path class="cls-1" d="M506.7729,249.9703c-.7559-1.5492-5.6068-1.6364-6.4394.2476-.501,1.1341.3628,3.1884,1.9813,3.7151,1.7582.5722,3.2735-1.0271,3.4676-1.2384.063-.0688,1.5045-1.6711.9905-2.7244Z"/>
        <path class="cls-1" d="M473.7085,259.7534c-.8329-.5559-2.1368-.4239-2.7243.3715-.7189.9731-.0825,2.5561.9908,3.0959.5943.2989,1.4708.3527,2.0432-.1239.8987-.7483.8029-2.601-.3097-3.3436Z"/>
        <path class="cls-1" d="M739.2963,238.4122c-3.6107-1.7747-10.4034,2.0986-10.2371,5.9441.1437,3.3253,5.5203,7.3025,9.5766,5.2837,3.1811-1.5831,4.171-6.1671,2.6832-9.0814-.2077-.407-.7853-1.5382-2.0228-2.1465Z"/>
        <path class="cls-7" d="M550.3942,618.7282c1.5698.2603,3.1602.4902,4.7798.6899-1.6196-.1997-3.2197-.4199-4.7798-.6899Z"/>
        <path class="cls-4" d="M435.674,572.1682c-1.3696,19.5103-14.0796,33.4404-18.1997,37.96-9.4302,10.3403-13.7402,8.9404-16.4302,16.4302-4.1099,11.46,4.2397,17.6401,1.5601,32.0903-2.5098,13.5596-10.77,12.9297-14.8701,28.1699-4.25,15.8198,3.23,21.7197-2.3398,30.52-6.6699,10.5298-23.8501,12.3198-35.2202,10.1797-1.1299-.21-28.3296-5.75-31.3101-26.6099-1.48-10.3999,3.4502-21.8198,11.7402-27.3901.6797-.4497,1.3301-.8398,1.9697-1.1597,7.1001-3.6304,12.5601-.1401,27.7705-3.54,9.6597-2.1602,25.4097-5.6802,29.7397-17.21,2.6602-7.0703.3198-15.2305-3.1299-20.3501-4.54-6.75-9.1304-5.4302-16.4302-11.7402-8.5898-7.4297-14.9902-20.27-13.3101-32.0898,1-6.98,4.5-11.3999,10.96-19.5601,12.2002-15.3999,20.3999-14.6602,24.1304-26.0898,2.1499-6.5903,1.3296-12.71,5.6099-14.7402,2.2197-1.0601,4.5298-.3999,8.4097.7202,4.6201,1.3198,8.1201,3.4697,11.0801,5.6699,1.0601.79,2.0503,1.5801,3.0103,2.3501,4.1099,3.3101,6.4897,6.1797,7.04,6.8496,0,0,2.7798,3.4004,4.6997,7.04,4.6001,8.77,3.71,19.7202,3.52,22.5Z"/>
        <path class="cls-6" d="M435.674,572.1682c-1.3696,19.5103-14.0796,33.4404-18.1997,37.96-9.4302,10.3403-13.7402,8.9404-16.4302,16.4302-4.1099,11.46,4.2397,17.6401,1.5601,32.0903-2.5098,13.5596-10.77,12.9297-14.8701,28.1699-4.25,15.8198,3.23,21.7197-2.3398,30.52-6.6699,10.5298-23.8501,12.3198-35.2202,10.1797-1.1299-.21-28.3296-5.75-31.3101-26.6099-1.48-10.3999,3.4502-21.8198,11.7402-27.3901.6797-.4497,1.3301-.8398,1.9697-1.1597-3.4697,6.1699-9.1499,15.9097-5.4897,23.8496,2.1802,4.7202,6.8398,7.0503,11.9399,9.5903,3.9199,1.96,14.54,7.25,22.5,2.7397,2.54-1.4399,4.3701-4.3501,8.02-10.1699,4.7397-7.5698,4.6401-9.8198,8.02-14.8701,5.1802-7.75,7.6602-5.8198,12.7197-12.7197,8.0801-11.0303,7.6904-24.0703,7.6304-25.4399-.3003-6.8301-2.2803-7.5103-1.96-14.2104.1099-2.3198.6401-8.4497,5.0898-16.8296,6.8701-12.9399,12.4502-11.1704,18.7798-21.6499,8.4102-13.9102,7.6104-31.9404,3.4204-38.8701-.4302-.7202-1.8901-2.96-3.1304-6.3604-1.2397-3.4297-1.2197-5.1997-2.0498-10.2695-.23-1.3804-.4502-2.6201-.6602-3.7202,1.0601.79,2.0503,1.5801,3.0103,2.3501,4.1099,3.3101,6.4897,6.1797,7.04,6.8496,0,0,2.7798,3.4004,4.6997,7.04,4.6001,8.77,3.71,19.7202,3.52,22.5Z"/>
        <path class="cls-8" d="M358.5207,547.5173c-3.2446-1.6479-10.5449,16.2695-31.3042,28.1738-7.5659,4.3384-8.5859,3.0996-22.6958,8.6084-18.4272,7.1943-34.1733,13.3418-46.9565,26.0869-5.2104,5.1948-18.2588,18.2041-20.6089,38.6089-2.3906,20.7554,7.207,41.1826,20.8696,52.6958,8.5488,7.2036,7.9819,1.8955,42.7827,18.2607,6.8809,3.2358,15.1064,7.3013,17.4785,4.6958,1.7246-1.894-.9819-5.8457-3.3916-15.1304-1.6548-6.375-3.2368-12.4697-2.6084-18.2612,1.2012-11.0708,10.4453-20.7222,19.3042-25.3042,9.769-5.0527,13.8994-1.2666,23.478-7.5654,3.4307-2.2559,10.3354-6.7964,11.7393-14.3477,1.1978-6.4434-2.186-11.978-7.3042-20.3477-6.3203-10.3359-9.2344-10.0054-11.2173-15.9131-2.3774-7.082.3018-12.0508,4.4346-26.0869,2.9653-10.0723,9.5332-32.3789,6-34.1738Z"/>
        <path class="cls-5" d="M375.2165,357.9301c-8.2739,16.0447-12.2222,15.9573-15.0654,26.6086-.3218,1.2051-4.0493,15.9895,2.5435,31.5,1.1606,2.73,5.958,14.0168,11.3477,13.5,3.0308-.2905,5.4966-4.2419,6.2612-7.6304,1.3955-6.1819-3.0488-9.6982-5.8696-17.2173-3.9561-10.5444-1.6128-20.6792.3911-29.3479,2.3003-9.9507,4.7109-10.0942,8.4131-23.0869,3.123-10.96,4.5376-21.8408,3.522-22.1089-1.0737-.2834-3.2583,11.7163-11.5435,27.7827Z"/>
        <path class="cls-5" d="M384.8683,557.4304c-1.1943-.7104-4.8994,3.5166-12.2607,12-6.2686,7.2236-9.4282,10.9004-10.6958,14.0869-2.7881,7.0098-3.5449,17.4751,1.8262,21.9131.1934.1597,3.4771,2.7974,6.7827,1.8257,4.1826-1.2295,5.4326-7.3638,5.7393-8.8696,1.2549-6.1597-1.7168-7.5557-1.0435-13.5649.5186-4.6289,2.3896-4.7583,6-13.3042.4668-1.1045,5.4897-12.9937,3.6519-14.0869Z"/>
        <path class="cls-5" d="M345.8683,673.778c-1.5552-1.9512-4.9258-1.3438-5.8696-1.1738-6.6304,1.1943-9.7241,8.5952-10.0435,9.3911-1.2432,3.0996-1.6616,6.8008-.7822,7.1738.8311.3525,2.2417-2.5122,7.1738-7.0435,3.2266-2.9648,4.5615-3.5195,5.8696-3.6519,1.813-.1831,2.9321.5103,3.7822-.2612.9907-.8989.9014-3.1401-.1304-4.4346Z"/>
        <path class="cls-9" d="M335.5641,583.2561c-2.5068-2.4043-9.8086-.2271-10.6958,3.9131-.4062,1.8965.5308,4.2134,2.3481,5.4785,2.1221,1.4775,4.8164,1.084,6.5215,0,3.3335-2.1196,3.8232-7.4761,1.8262-9.3916Z"/>
        <path class="cls-9" d="M343.1296,627.0822c-2.7402-3.6631-8.2891-5.3594-12-2.8696-4.1689,2.7969-3.5171,9.1978-1.5654,12.7827.2788.5122,3.0151,5.3657,7.5654,5.2173,2.8794-.0942,4.7778-2.1357,5.2173-2.6084,2.7744-2.9844,3.7866-8.5063.7827-12.522Z"/>
        <path class="cls-9" d="M285.738,623.4304c-4.3003-2.7104-6.4502-4.0659-8.8696-3.3916-2.7104.7554-4.5757,3.6265-4.9565,6.2607-.6226,4.3066,2.7207,8.0015,6,9.3916.6172.2617,2.8047,1.1528,5.4785.5215,4.2354-1,7.8589-5.3867,7.0435-8.6084-.3657-1.4443-1.8091-2.354-4.6958-4.1738Z"/>
        <path class="cls-9" d="M305.5641,599.4304c-1.8203-1.9419-5.478-2.625-7.3042-.7827-2.0596,2.0771-.8506,6.4175,1.5649,7.8262,1.0894.6353,2.2183.5547,2.6089.5215,1.8228-.1543,3.9839-1.3994,4.4346-3.5215.4502-2.1191-1.0835-3.8081-1.3042-4.0435Z"/>
        <path class="cls-9" d="M259.26,667.5173c-.2319-1.1597-.896-4.48-3.9131-6.522-2.3652-1.6006-6.1162-2.3755-9.1304-.5215-3.1694,1.9492-3.625,5.6362-3.7827,6.9126-.1138.9194-.6821,6.4805,3,8.8696,2.5327,1.6436,5.5474.7935,7.4346.2612,1.5762-.4443,5.0186-1.4155,6.2612-4.4351.7021-1.7061.3843-3.2949.1304-4.5649Z"/>
        <path class="cls-9" d="M296.5641,699.9953c-.2974-3.1982-3.6553-5.0562-6.1304-5.478-2.3877-.4072-5.5825.2437-7.3042,2.7388-1.019,1.4771-1.7988,4.0024-.6523,6,1.0029,1.7471,2.9619,2.1885,4.8262,2.6089,1.8584.4189,4.314.9722,6.5215-.522,1.5508-1.0498,2.9492-3.0894,2.7393-5.3477Z"/>
        <path class="cls-9" d="M310.7814,665.8215c.3179-1.3032-.1343-2.9478-1.3042-3.6523-1.8062-1.0879-4.8721.335-5.3477,2.6089-.2983,1.4263.4272,3.1699,1.8257,3.7827,1.8931.8301,4.332-.7129,4.8262-2.7393Z"/>
        <path class="cls-2" d="M567.3444,671.5583c-3.2002,13.0303-24.6802,34.96-35.0801,43.4302-10.5503,8.5801-24.4404,11.48-37.0303,16.6201-18.6899,7.6499-34.79,20.4497-52.8599,29.46-16.3501,8.1597-35.9199,13.0098-52.9199,7.2798,10.98-2.73,22.0898-7.6699,31.4097-16.8301,13.3804-13.1499,12.0801-24.1899,31.8301-39.1299,13.5703-10.2603,20.8398-10.0898,29.7402-21.9102,2.1396-2.8398,13.9497-18.5298,10.4297-35.48-1.4199-6.8999-3.8496-6.5898-7.2998-17.2197-3.3198-10.2402-2.8701-16.0703-4.1699-27.1299-1.71-14.4805-2.8701-24.2803-7.3101-32.8701-9.8198-19.0303-26.0298-13.3701-36.52-30.52-11.0601-18.0801-3.5098-41.4702.7803-54.7803.5596-1.7197,8.2397-25.04,17.1099-32.3101-2.98,5.4102-5.7603,10.9102-7.6899,16.9102-3.3901,10.5601-4.3501,21.6499-4.79,32.6699-.3301,8.3003-3.8301,19.8003,2.1997,26.8403,2.1201,2.48,5.1704,3.8999,8.1304,5.27,19.7295,9.1597,39.0796,19.1396,57.9897,29.8999,17.1001,9.7397,36.4399,18.73,46.6602,36.4097,12.6899,21.9502,15.4497,38.7803,9.3901,63.3901Z"/>
        <path class="cls-7" d="M567.3444,671.5583c-3.2002,13.0303-24.6802,34.96-35.0801,43.4302-10.5503,8.5801-24.4404,11.48-37.0303,16.6201-18.6899,7.6499-34.79,20.4497-52.8599,29.46-8.7002,4.3398-18.3198,7.75-27.98,9.1196,3.0298-1.75,6.0801-3.7798,9.0801-6.1499,4.98-3.9297,4.1797-4.3198,12-10.96,10.02-8.4897,20.3398-15.5,37.8301-25.2998,31.8296-17.8301,30.5698-13.0703,41.6099-21.7803,19.3301-15.27,27.0498-32.9199,28.9497-37.5698,3.3003-8.0298,8.1699-19.9102,5.4805-34.4302-.5103-2.77-2.3701-11.4697-12.9102-25.4399-25.54-33.8501-62.3501-48-62.3501-48-10.48-4.0298-17.1602-5.04-24.2603-12.2598-11.96-12.1602-12.0195-28.6104-12-30.52.0205-1.7202.1802-16.0103,6.4102-24.3101-.7002,5.3999-1.04,10.8501-1.2598,16.2798-.3301,8.3003-3.8301,19.8003,2.1997,26.8403,2.1201,2.48,5.1704,3.8999,8.1304,5.27,19.7295,9.1597,39.0796,19.1396,57.9897,29.8999,17.1001,9.7397,36.4399,18.73,46.6602,36.4097,12.6899,21.9502,15.4497,38.7803,9.3901,63.3901Z"/>
        <path class="cls-2" d="M425.5641,629.9519c-2.7104-4.436-9.3887-5.0552-13.3042-2.3477-5.2866,3.6558-5.1396,13.1016-.522,16.1738,3.2427,2.1577,8.2402.8721,11.2173-1.8262,3.0254-2.7422,5.0806-7.9546,2.6089-12Z"/>
        <path class="cls-2" d="M455.8249,599.4304c-2.2612-2.9556-7.2246-3.375-9.6519-.7827-1.8628,1.9893-1.6851,5.1675-.522,7.3042,1.4854,2.7285,5.0029,4.5356,7.8262,3.3911,3.4297-1.3901,4.7954-6.7134,2.3477-9.9126Z"/>
        <path class="cls-2" d="M485.5641,666.7346c.0581-.8066.3188-5.856-3.3911-8.0869-3.5225-2.1182-7.6094.1177-8.3481.5215-.4033.2207-4.874,2.7651-5.2173,7.8262-.0439.6489-.3262,4.8057,2.8696,7.3042,3.4697,2.7129,7.8589.9844,8.3477.7827,3.6255-1.4976,5.5088-5.1416,5.7393-8.3477Z"/>
        <path class="cls-2" d="M443.3034,670.3864c-1.1074-3.4194-4.9634-4.834-7.4351-5.0869-.8115-.083-4.1196-.4214-6.6519,1.9565-2.1929,2.0591-3.1196,5.5127-1.9565,8.2178.8105,1.8853,2.3921,2.8398,3.5215,3.5215.9229.5571,3.2773,1.978,5.8696,1.5654,4.0947-.6519,8.0791-5.7686,6.6523-10.1743Z"/>
        <path class="cls-2" d="M424.5207,718.5173c-1.9468-3.1968-7.0322-4.3359-10.5654-2.3481-4.9312,2.7739-3.6519,9.8438-3.5215,10.5654.2432,1.3438.6826,3.7725,2.7393,5.0869,3.0146,1.9268,6.8604-.2285,7.1411-.3911,2.2676-1.3149,3.1846-3.3921,3.7173-4.5981.6768-1.5332,2.334-5.2861.4893-8.3149Z"/>
        <path class="cls-7" d="M497.0422,580.9084c-1.3442-.5781-4.4609-1.918-7.0435-.2607-3.0312,1.9453-2.6328,6.291-2.6084,6.5215.4312,4.0347,4.1865,6.7114,7.3042,7.3047.7168.1362,1.5791.2905,2.6089,0,3.2969-.9307,5.8149-5.7178,4.4346-9.3916-.9658-2.5698-3.4854-3.6533-4.6958-4.1738Z"/>
        <path class="cls-7" d="M523.3249,606.0173c-1.1509-2.0015-3.665-3.0469-5.8696-2.3481-2.9199.9253-4.2271,4.5708-3.1304,6.8481.9536,1.981,3.4878,2.4326,4.1089,2.5435.7954.1416,2.2544.4019,3.5215-.3916,1.8877-1.1821,2.7183-4.3062,1.3696-6.6519Z"/>
        <path class="cls-7" d="M503.3683,625.9738c-2.2935-1.9521-6.1992-2.3076-8.6084-.1958-1.3335,1.1689-2.1426,3.0356-1.9565,4.8911.3638,3.6309,4.3325,5.1836,5.0869,5.4785.8179.3198,3.9912,1.561,6.0649,0,2.5732-1.9365,2.5488-7.5054-.5869-10.1738Z"/>
        <path class="cls-7" d="M538.1945,630.0822c-1.4624-.458-4.1357-.6333-5.0869.9785-.9946,1.6855.6875,3.9819.7827,4.1084.127.1685,1.7666,2.2715,4.3042,1.9565,1.6387-.2036,3.5679-1.4053,3.7173-3.1304.1772-2.0493-2.2754-3.4614-3.7173-3.9131Z"/>
        <path class="cls-7" d="M526.0641,663.7346c-1.1255-1.0576-3.0269-.7974-4.1089-.3916-1.9619.7354-4.0454,3.0034-3.3257,5.2827.7158,2.2666,3.8018,3.271,5.8691,2.3481,2.7173-1.2129,3.3145-5.5957,1.5654-7.2393Z"/>
        <path class="cls-7" d="M496.1296,686.2346c-1.5547-.2305-4.0918.2246-4.6958,2.1519-.5386,1.7178.7671,3.6226,2.3477,4.3047,1.9277.8315,3.7729-.3687,4.1089-.5869.437-.2842,1.98-1.2876,1.9565-2.7393-.0269-1.6558-2.0762-2.8867-3.7173-3.1304Z"/>
        <path class="cls-7" d="M482.6296,713.528c-.793-1.4316-2.7993-1.5903-3.7178-1.6631-.5312-.042-4.4375-.3511-5.9673,2.4458-1.0532,1.9253-.6802,4.7734.8804,5.7715.9297.5942,2.0435.3813,3.522.0981,1.2095-.2314,2.6323-.5039,3.8149-1.6631,1.1387-1.1162,2.3687-3.3633,1.4678-4.9893Z"/>
        <path class="cls-1" d="M538.6511,593.1691c-.9688-1.4067-3.0615-1.8765-4.6958-1.1738-1.8599.7998-3.0713,3.0942-2.2173,5.0869.7891,1.8408,2.9966,2.6221,4.6958,2.0869,2.3867-.752,3.5684-4.0371,2.2173-6Z"/>
        <path class="cls-1" d="M474.4772,554.8215c-2.0117-1.1562-5.332.708-5.3477,2.0869-.0156,1.3647,3.1997,2.9233,5.478,2.2173.3301-.1025.9956-.3188,1.3042-.9131.5439-1.0479-.2974-2.7373-1.4346-3.3911Z"/>
        <path class="cls-1" d="M565.1296,638.5607c-1.1475-2.1597-4.0327-4.1514-7.0435-3.1304-2.4956.8462-4.1685,3.4546-3.7827,6.1304.4346,3.0161,3.2974,4.8145,5.8696,4.8257,2.0796.0093,4.4863-1.1479,5.3477-3.3911.772-2.0107-.0908-3.8696-.3911-4.4346Z"/>
        <path class="cls-1" d="M558.3469,684.278c-.2773-1.981-3.6504-3.7041-6.4565-2.9351-1.7046.4673-3.897,2.0444-3.9131,4.5-.0132,2.0063,1.4316,3.7979,3.1304,4.3047,2.8945.8633,5.3813-2.3457,6.0654-3.2285.6919-.8931,1.3071-1.687,1.1738-2.6411Z"/>
        <path class="cls-1" d="M508.9772,712.1257c-1.7344-.2402-4.0215.6577-4.2393,2.1523-.2266,1.5557,1.8657,3.2285,3.7173,3.2607,1.0962.019,1.873-.541,2.022-.6523.7017-.5239,1.5845-1.6362,1.3042-2.8042-.3813-1.5898-2.5908-1.9272-2.8042-1.9565Z"/>
      </g>
      <path class="cls-1" d="M471.2814,737.6911c-.7153-1.5786-3.292-2.0327-5.0869-1.3696-2.3052.8516-3.9956,3.7939-3.0327,5.5762.7197,1.3325,2.7002,1.6045,3.9131,1.4673,2.2783-.2573,3.4365-2.1367,3.6196-2.4458.2949-.498,1.1611-1.9604.5869-3.228Z"/>
    </g>
  </g>
</svg>