<?xml version="1.0" encoding="UTF-8"?>
<svg id="Capa_2" xmlns="http://www.w3.org/2000/svg" viewBox="0 0 610.0011 564.4358">
  <defs>
    <style>
      .cls-1 {
        fill: #70569b;
      }

      .cls-2 {
        fill: #5f488c;
      }

      .cls-3 {
        fill: #9570c2;
      }

      .cls-4 {
        fill: #b29ad8;
      }

      .cls-5 {
        fill: #604593;
      }

      .cls-6 {
        fill: #47327c;
      }

      .cls-7 {
        fill: #a486ce;
      }

      .cls-8 {
        fill: #735aaf;
      }

      .cls-9 {
        fill: #8566b2;
      }
    </style>
  </defs>
  <g id="Capa_1-2" data-name="Capa_1">
    <g>
      <g>
        <path class="cls-3" d="M231.6042,560.4285c-15.0894.0005-29.2021-3.1489-41.9458-9.3604-9.2671-4.5166-16.668-11.2583-23.8257-17.7773-6.0903-5.5474-11.8428-10.7871-18.6353-14.7422-6.5562-3.8169-13.958-6.7676-21.7949-9.8911-16.9351-6.7505-36.1299-14.4014-50.5298-33.2051-4.6904-6.1255-5.9785-8.7041-10.7715-18.2974-3.2603-6.5264-8.1875-16.3892-17.0469-33.0913l-.8271-1.5581c-.7993-1.5068-1.5757-2.9697-2.3403-4.3877-3.6343-6.7861-7.1382-13.2339-10.4199-19.1738-5.6465-10.1929-9.7368-17.2314-12.7236-22.3711-6.4604-11.1157-8.4102-14.4707-10.8394-23.5176-8.6274-32.0947-7.7734-62.8647,2.4697-88.9824,1.6118-4.1138,3.4634-8.1143,5.4238-12.3496,4.6846-10.1211,9.9937-21.5928,14.5386-39.8267,1.7983-7.23,2.4326-11.3228,3.1665-16.0615.4497-2.9019.915-5.9019,1.6865-9.9155,4.9087-25.4478,14.0352-72.7563,47.5454-96.8574,6.1987-4.457,9.9961-5.7441,14.3931-7.2344,4.7764-1.6187,10.7202-3.6328,22.8799-10.8574,9.4819-5.6309,14.335-9.4165,22.3755-15.6885,4.3564-3.3984,9.7783-7.6279,17.2896-13.1787,26.7949-19.8174,40.2207-29.7471,52.1782-33.5469,9.5566-3.0601,19.4292-4.5493,30.1724-4.5493,10.7944,0,20.8223,1.5107,29.6689,2.8433,2.3311.3511,4.7324.5205,7.3594.5205,5.1787,0,10.4707-.6797,15.5889-1.3364,5.1895-.6665,10.5557-1.3555,15.8828-1.3555,6.0117,0,11.2832.895,16.1152,2.7363,12.6895,4.8389,20.3193,11.894,27.0508,18.1187,5.8848,5.4419,11.4424,10.5815,19.7715,13.6992,10.9033,4.062,19.7041,5.7988,29.0215,7.6377,7.0137,1.3843,14.2666,2.8159,22.8643,5.3101,16.0801,4.6655,25.1299,12.7681,33.1133,19.917,9.3086,8.3345,17.3467,15.5327,35.0156,17.5361,2.8604.3252,5.502.4834,8.0771.4834,3.7256,0,6.7168-.3335,9.6084-.6562,2.7061-.3018,5.2617-.5869,8.1768-.5869,3.5938,0,7.1152.4434,11.0811,1.3945,5.8223,1.394,23.543,5.6362,36.0996,22.207,10.7383,14.187,14.375,29.5215,10.2422,43.1807-1.6416,5.4258-6.8076,18.5908-19.3047,23.6807l-.752.3066c-6.5205,2.6655-12.6787,5.1826-19.6992,5.1831-6.9326,0-13.7236-2.4199-21.3721-7.6162-7.8535-5.3403-19.9287-11.7051-32.8604-11.7051-4.1406,0-8.1016.6807-11.7705,2.0234-3.0684,1.1245-7.1172,3.1831-11.0322,5.1733-6.7383,3.4258-13.1025,6.6611-17.7441,7.1396-15.9258,1.6069-26.6201,2.9897-30.7471,4.915-21.2734,9.9404-38.8311,30.9219-45.8184,54.7563-2.1543,7.3188-3.3203,14.8813-3.4688,22.4805-.042,1.8398-.043,8.5034,1.6699,17.5137,2.9014,15.2593,10.6572,36.7266,31.1328,52.3418,14.1064,10.7715,30.874,16.2319,49.8418,16.2319,1.6533,0,3.3408-.043,5.0166-.1274,16.2734-.8369,28.6289-5.4326,30.9404-6.3452,9.415-3.7173,31.4629-12.4214,42.2139-32.6348,1.0547-1.9839,1.9482-3.9785,2.8955-6.0903,2.8477-6.354,5.793-12.9238,13.25-19.644,3.6689-3.3003,13.3564-12.0122,26.4482-12.0122.8691,0,1.748.0396,2.6123.1172,10.584.9482,20.5049,7.8438,27.9346,19.416,13.5674,21.2314,7.8135,50.208-3.8965,69.5229-5.6562,9.3521-10.6299,12.9639-38.2266,33.0083l-6.832,4.9648c-16.9854,12.3604-30.71,27.209-43.1914,46.728-5.5879,8.7378-9.7539,18.3413-13.7822,27.6284-9.7061,22.3774-19.7422,45.5166-49.7354,53.8149-7.8945,2.187-15.9102,3.1831-23.6611,4.1465-7.3457.9126-14.9404,1.8569-22.1904,3.8198-5.1758,1.3984-10.4102,3.0938-15.4736,4.7329-11.126,3.6025-22.6318,7.3276-34.8291,8.4106-2.9434.2627-6.0967.3901-9.6357.3901-4.0459,0-8.123-.1665-12.0664-.3276-3.8672-.1582-7.8652-.3213-11.7549-.3213-2.2197,0-4.2295.0513-6.1445.1577-11.6934.6528-23.46,3.6284-34.8398,6.5063-5.6377,1.4258-11.4668,2.8999-17.2852,4.0977-7.7197,1.5845-15.4565,2.3877-22.998,2.3877Z"/>
        <path class="cls-4" d="M244.0235,8.0146c10.4999,0,20.2396,1.468,29.0907,2.8013,2.663.4011,5.3085.5623,7.9371.5623,10.7443,0,21.2117-2.6919,31.4723-2.6919,4.9417,0,9.8339.6238,14.6884,2.4736,22.9199,8.74,27.8745,24.7261,46.8445,31.8259,19.46,7.25,32.2838,7.2737,52.1738,13.0437,33.02,9.5801,33.694,33.6062,68.7939,37.5864,3.2543.3701,6.0481.5088,8.5276.5088,7.4236,0,12.0348-1.2432,17.7854-1.2432,2.9174,0,6.1273.3198,10.1471,1.2842,6.6,1.5801,22.58,5.8701,33.84,20.73,2.71,3.5801,15.42,20.3701,9.6,39.6001-.65,2.1499-4.9,16.21-16.98,21.1301-6.6431,2.7109-12.4596,5.1936-18.9402,5.1936-5.5674,0-11.6246-1.8315-19.1199-6.9238-10.4668-7.1172-22.9022-12.397-35.1122-12.3975-4.4482-.0002-8.8646.7002-13.1478,2.2676-8.24,3.02-21.3099,11.4199-27.8099,12.0901-17.64,1.7798-27.53,3.1699-32.03,5.27-20.76,9.7-40.16,30.6199-47.97,57.2598-2.1901,7.4402-3.47,15.3201-3.63,23.53-.04,1.77-.0699,8.8201,1.74,18.3401,3,15.78,11.0701,38.3301,32.64,54.78,17.3591,13.2556,36.2761,17.0527,52.2704,17.0527,1.7791,0,3.5189-.0466,5.2196-.1328,17.11-.8799,29.9301-5.72,32.21-6.6199,9.7001-3.8301,32.86-13.01,44.28-34.48,4.3101-8.1101,6.0701-16.3301,15.29-24.6401,3.3553-3.0168,12.1876-10.981,23.7654-10.981.7406,0,1.4923.0325,2.2546.1011,14.51,1.2998,23.11,14.77,24.9399,17.6199,12.5499,19.6401,6.96,47.22-3.97,65.25-5.65,9.3401-10.55,12.49-43.99,36.8101-18.29,13.3101-32.13,28.9199-44.2101,47.8101-19.4299,30.3799-21.2,68.6699-61.21,79.74-15.09,4.1799-30.65,3.8499-45.83,7.96-16.54,4.47-32.37,11.49-49.61,13.02-3.0886.2756-6.1844.3748-9.2821.3748-7.9288,0-15.8806-.6489-23.8196-.6492-2.1246,0-4.2463.0464-6.3684.1643-17.9199,1-35.13,7.0601-52.71,10.6802-7.3328,1.5049-14.7778,2.3052-22.1899,2.3052-13.8149,0-27.5187-2.7791-40.1901-8.9553-16.27-7.9299-26.71-23.3599-42.2-32.3799-21.47-12.5-51.05-15.8101-71.16-42.0701-7.55-9.8601-5.77-9.9399-27.46-50.8301-1.1-2.0698-2.15-4.0598-3.18-5.97-3.9901-7.45-7.44-13.78-10.44-19.21-17.71-31.97-19.83-32.4399-23.2-44.99-2.32-8.6301-12.84-47.8,2.33-86.48,5.35-13.6501,13.56-26.3501,20.12-52.6699,2.94-11.8201,2.87-15.6301,4.9-26.1902,4.78-24.78,13.72-71.1799,45.95-94.3599,12.21-8.78,13.45-3.9202,36.98-17.9001,15.07-8.95,19.04-13.5999,40-29.0898,26.46-19.5701,39.68-29.3501,51.01-32.95,10.1688-3.2563,19.8502-4.3613,28.9593-4.3613M244.0235,0c-11.1647,0-21.4369,1.5515-31.4036,4.7432-12.5753,3.9956-26.182,14.0591-53.2901,34.1084l-.0414.0305c-7.5504,5.5801-12.9947,9.8269-17.3693,13.2393-7.916,6.175-12.6941,9.9021-21.9574,15.4036-11.7989,7.01-17.5217,8.9495-22.1201,10.5078-4.5057,1.5269-8.7616,2.9692-15.4464,7.7761-34.805,25.032-44.127,73.3584-49.1351,99.321-.7918,4.1184-1.2836,7.2925-1.7176,10.0928-.7195,4.6428-1.3408,8.6526-3.0959,15.7087-4.4516,17.8606-9.6761,29.1489-14.2855,39.1084-1.9863,4.2915-3.8624,8.3452-5.5188,12.5715-10.5581,26.9204-11.4601,58.5562-2.6079,91.4854,2.5669,9.5591,4.7535,13.3215,11.2444,24.4907,2.9779,5.124,7.0562,12.1418,12.6846,22.3022,3.2641,5.9077,6.7598,12.3398,10.3857,19.1101.7692,1.4265,1.5385,2.877,2.3312,4.3711l.8367,1.5762c8.8337,16.6533,13.7477,26.4897,16.9994,32.9988,4.8023,9.6123,6.2516,12.5134,11.1744,18.9426,15.0721,19.6814,34.8121,27.5498,52.2285,34.4919,7.6946,3.0669,14.9626,5.9641,21.2625,9.6318,6.424,3.7407,12.0237,8.8411,17.9521,14.241,7.3668,6.7097,14.9845,13.6482,24.769,18.417,13.2943,6.48,27.9977,9.7656,43.7015,9.7656,7.811,0,15.8188-.8306,23.8011-2.4688,5.9104-1.217,11.7834-2.7024,17.4631-4.1387,11.7115-2.9619,22.7735-5.7593,34.0823-6.3904,1.8405-.1023,3.7782-.1519,5.9214-.1519,3.8071,0,7.5875.1545,11.5897.3181,3.9838.1628,8.1031.3311,12.2302.3311,3.6597,0,6.9288-.1331,9.9944-.4065,12.6447-1.1223,24.3689-4.9185,35.707-8.5898,5.0161-1.624,10.2029-3.3035,15.2817-4.676,6.9802-1.8899,14.101-2.7749,21.64-3.7119,7.8949-.981,16.0587-1.9956,24.2384-4.2615,31.8369-8.8086,42.2609-32.8413,52.3416-56.083,3.9655-9.1423,8.0658-18.5959,13.4807-27.0625,12.2059-19.0869,25.6069-33.5916,42.1741-45.6479,2.4199-1.7598,4.6918-3.4099,6.8251-4.9595,28.1549-20.4495,33.2281-24.1343,39.3066-34.1826,12.349-20.3708,18.3362-51.0684,3.8658-73.7136l-.0045-.0073-.0244-.0381c-8.1136-12.637-19.1049-20.1807-30.9493-21.2417-.9819-.0881-1.9818-.1331-2.9697-.1331-14.6262,0-25.1432,9.4565-29.1024,13.0164-8.1125,7.312-11.3741,14.5874-14.2518,21.0066-.9186,2.0493-1.7864,3.9849-2.7784,5.8516-10.0559,18.9055-31.1421,27.2314-40.1461,30.7869-2.2097.8721-14.0298,5.2654-29.6782,6.0703-1.6025.0811-3.2223.1223-4.808.1223-18.0674,0-34.0171-5.1841-47.4064-15.4082-19.4717-14.8496-26.8602-35.3357-29.6305-49.907-1.64-8.6265-1.64-14.9343-1.601-16.6621.1417-7.269,1.2538-14.4768,3.3058-21.448,6.6758-22.7712,23.4099-42.7935,43.6743-52.262,3.811-1.7786,16.4028-3.2412,29.4419-4.5569,5.4005-.5569,12.0869-3.9563,19.1659-7.5552,3.8108-1.9375,7.7513-3.9407,10.5975-4.9839,3.2234-1.1797,6.7201-1.7783,10.3894-1.7783,9.2954.0005,20.1648,3.9109,30.606,11.0107,8.3466,5.6704,15.8531,8.3108,23.6263,8.3108,7.8073,0,14.319-2.6614,21.213-5.4792l.7555-.3086c14.0935-5.7402,19.8169-20.2561,21.6233-26.2305,4.5146-14.917.6506-31.5229-10.8809-46.7568-8.9091-11.7573-21.8158-19.7256-38.3646-23.6875-4.2772-1.0261-8.0956-1.5044-12.0131-1.5044-3.1376,0-5.925.3108-8.6207.6113-2.7836.3105-5.6617.6316-9.1647.6316-2.4219,0-4.9152-.1497-7.6222-.4575-16.402-1.8599-23.6371-8.3384-32.7971-16.5403-8.3024-7.4343-17.7126-15.8604-34.6689-20.78-8.7667-2.5432-16.1068-3.9917-23.2053-5.3928-9.1537-1.8069-17.7998-3.5132-28.4038-7.4639-7.5806-2.8372-12.6151-7.4929-18.4447-12.8838-6.9979-6.4712-14.9296-13.8059-28.3422-18.9204-5.2981-2.0188-11.036-2.9998-17.5439-2.9998-5.5836,0-11.0793.7056-16.3943,1.3879-5.223.6704-10.1564,1.304-15.078,1.304-2.4253,0-4.6311-.1548-6.7434-.4729-9.0027-1.356-19.1901-2.8906-30.2844-2.8906h0Z"/>
      </g>
      <path class="cls-5" d="M329.4642,477.026c-46.33,6.6799-59.43-20.1201-87.93-47.9501-15.15-12.1901-33.43-7.25-51.65-8.22-42.3-2.25-46.74,7.0299-65.74,1.17-59.36-18.65-70.25-105.76-30.52-143.22,10.5-8.8501,20.67-18.1201,31.1201-27.0601,10.8199-9.26,21.93-18.16,33.99-25.8501,15.33-8.0999,11.88-32.8699,8.45-47.01-9.17-21.0099-4.78-31.6499,6.2599-50.3398,22.46-43.03,89.4-74.8301,135.4-49.1801,3.52,1.96,6.92,4.26,10.17,6.92,23.27,22.58,25.85,65.49,8.22,83.3499-11.47,11.6201-31.33,12.2201-46.54,13.1901-18.03,1.15-36.5099,1.26-53.77,7.29-11.69,4.09-22.32,10.75-32.18,18.24-5.72,4.34-11.32,9.1-15.06,15.24-7.21,11.85-6.38,26.9-3.3701,40.4501,1.56,7.0199,3.64,13.9099,5.8,20.7699,2.16,6.8101,4.4,13.6,6.32,20.4801,6.6899,24.01,4.93,45.2799-1.85,69-1.75,6.1199-3.06,9.5599.79,15.0299,2.65,3.78,6.4301,6.8099,10.4301,9.05,16.88,9.41,36.67,5.89,54.69,3.0399,21.85-3.46,54.483-27.9033,79.823-29.4734,18.71-5.3401,38.5169,4.7334,50.797,18.5535,2.43,2.74,4.61,5.88,6.48,9.4299,15.53,38.1101-23.18,75.1301-60.13,77.1001Z"/>
      <path class="cls-6" d="M329.4642,477.026c-46.33,6.6799-59.43-20.1201-87.93-47.9501-15.15-12.1901-33.43-7.25-51.65-8.22-42.3-2.25-46.74,7.0299-65.74,1.17-59.36-18.65-70.25-105.76-30.52-143.22,10.5-8.8501,20.67-18.1201,31.1201-27.0601-5.4901,7.1899-12.8701,15.1599-20.95,21.59-3.74,2.9701-8.07,5.9701-12.52,12-2.56,3.4601-7.23,10.73-10.17,26.35-2.56,13.5701-5.19,27.46,0,44.6001,6.18,20.46,19.65,32.9199,26.6,38.3499,16.18,12.6501,32.99,15.3701,45.4,17.2201,23.3,3.48,25.46-2.87,56.34,0,26.86,2.5,39.2,8.6,42.26,10.17,13.75,7.0699,12.64,11.26,25.83,18.7899,6.81,3.88,29.7,16.9401,54.78,10.17,22.86-6.17,43.457-25.1979,46.177-29.3478,8.6-13.0901,8.2173-22.6957,4.623-31.1422,2.43,2.74,4.61,5.88,6.48,9.4299,15.53,38.1101-23.18,75.1301-60.13,77.1001Z"/>
      <path class="cls-6" d="M327.2342,169.6359c-11.47,11.6201-31.33,12.2201-46.54,13.1901-18.03,1.15-36.5099,1.26-53.77,7.29-11.69,4.09-22.32,10.75-32.18,18.24-5.72,4.34-11.32,9.1-15.06,15.24-7.21,11.85-6.38,26.9-3.3701,40.4501,1.56,7.0199,3.64,13.9099,5.8,20.7699-4.7-5.45-6.46-13.1-8.67-22.7-2.39-10.39-5.62-24.4401,1.05-38.61,4.3799-9.3,11.4-15.1901,20.34-22.6901,1.23-1.0299,6.83-5.6801,15.14-10.7,4.59-2.77,13.72-8.2201,25.3-11.74,10.37-3.15,11.8-1.4401,27.39-3.91,18.24-2.89,27.58-4.37,37.31-10.96,3.1-2.1001,14.48-10.04,19.82-25.04,4.06-11.38,2.64-21.22,1.57-28.7-.9-6.21-2.28-15.8501-8.35-25.04-1.3-1.96-2.7-3.75-4.17-5.36,3.52,1.96,6.92,4.26,10.17,6.92,23.27,22.58,25.85,65.49,8.22,83.3499Z"/>
      <path class="cls-8" d="M286.2229,78.048c-1.9783-4.4659-13.8397-3.0865-22.4348-2.0869-11.6395,1.3536-18.8032,4.3807-33.1304,10.4348-3.1069,1.3129-7.5266,3.2742-10.4348,7.826-1.8138,2.8389-3.8321,7.9257-1.826,10.174,2.4493,2.7451,9.6166-.1779,11.7391-1.0435,7.0895-2.8912,6.9297-5.903,13.3043-9.1305,6.7949-3.4403,13.9977-3.5735,18.2609-3.6522,2.8328-.0524,7.855.0938,14.6087-1.0435,2.2339-.3761,3.9976-.7816,5.7391-2.0869,3.0281-2.2694,5.3355-6.7689,4.1739-9.3914Z"/>
      <path class="cls-8" d="M203.5129,104.6816c-1.2501-.3893-2.7905-.0753-8.087,4.0435-3.993,3.1051-6.5243,5.0735-10.0435,9-4.5255,5.0493-8.0121,9.0386-9,15-.3341,2.0164-.7215,4.5737.7826,6.2609,2.0756,2.3281,6.9313,2.0775,9.913,0,2.7487-1.9152,1.9513-4.0217,5.2174-9.9131.7998-1.4426,3.0109-5.3689,6.7826-9.1304,4.6796-4.6669,7.4449-4.7755,8.087-7.826.6202-2.9473-1.1586-6.6584-3.6522-7.4348Z"/>
      <path class="cls-8" d="M130.9259,262.899c-.7928-.5016-4.0761,5.5114-12,12.2609-6.8541,5.8383-8.8925,5.1682-14.8696,10.4347-2.8517,2.5127-8.7008,7.7738-12.2609,16.174-.4015.9473-7.6506,18.5074-.5217,24,3.586,2.7628,9.9968,1.8455,14.087-1.0435,4.8061-3.3947,4.1089-7.8875,8.6087-21.3914,2.2211-6.6655,4.4373-11.6611,8.8695-21.6521,5.296-11.9381,8.9049-18.2651,8.087-18.7826Z"/>
      <path class="cls-8" d="M354.1958,375.3058c-.0738-.2579-.1927-.5035-.3632-.7283-.5522-.7281-1.4849-1.0426-2.3718-1.2632-1.9415-.4829-3.9419-.7062-5.9418-.7582-4.5815-.1193-9.1394.6531-13.6209,1.6121-5.7102,1.2218-11.3544,2.752-16.9003,4.5804-5.2107,1.7179-10.8018,3.2974-14.864,7.1709.6419.3269,1.4043.2725,2.1203.1935,9.4496-1.041,18.4269-4.9243,27.8941-5.7922,4.7014-.431,9.4355-.109,14.1451.2206,3.0617.2142,6.5169.2991,8.7432-1.8136.9152-.8685,1.4893-2.2681,1.1592-3.422Z"/>
      <path class="cls-8" d="M293.0525,388.1258c-.422-.1116-.8723-.1408-1.3007-.089-1.1288.1364-2.148.7159-3.1407,1.2703-5.8591,3.2721-11.9828,6.0698-18.2894,8.3635-3.2461,1.1806-6.5408,2.2277-9.873,3.1372-1.0249.2797-9.2295,1.9027-9.0492,2.6102,5.9183.7563,11.7848-1.2652,17.5606-2.7612,7.6526-1.982,15.6308-3.1113,22.7185-6.6121.932-.4604,1.8706-.9813,2.5197-1.7933s.9479-1.9845.4774-2.9114c-.3193-.629-.9335-1.0317-1.6234-1.2141Z"/>
      <path class="cls-7" d="M311.4477,68.5511c3.2792.9536,9.6692,2.9216,15.6522,0,6.0239-2.9417,10.343-10.2089,9.913-16.6957-.6409-9.6682-9.7414-22.8864-19.9565-28.1739-6.7711-3.5048-26.1789-4.3426-59.3479-6.2608-20.3271-1.1755-30.4907-1.7633-42.7826,2.0869-9.4592,2.9629-12.6635,6.0166-44.8696,30.7826-33.0589,25.4219-38.7123,29.1479-46.9565,33.3914-17.9593,9.2438-20.7368,6.7996-31.3044,14.0869-18.6643,12.871-26.3845,31.7943-32.3478,46.9565-15.2017,38.6516-3.153,47.8552-17.4783,87.9131-9.0185,25.2186-14.9487,24.8-20.3478,47.7391-2.575,10.9403-6.466,33.2979-.7826,60.2609,2.0585,9.766,10.6343,50.4506,32.8696,55.5652,1.6021.3685,9.0064,1.8707,12.5217-1.9565,4.3549-4.7412-.4282-14.2107-3.913-25.826-5.6697-18.8981-5.1738-34.3801-4.6957-49.3043.5417-16.9117.9549-29.8075,8.6087-43.4348,5.8176-10.3579,14.8349-17.8618,32.8696-32.8696,17.2177-14.328,19.2186-13.2549,24.2609-20.3478,2.2958-3.2295,8.6277-12.9423,10.9565-43.826,2.5247-33.4817-3.9549-34.8274.7827-50.087,6.1891-19.9349,21.6529-31.8282,35.2173-42.2609,20.5906-15.8364,40.3099-21.2314,46.174-22.6957,19.144-4.78,35.3527-3.8041,42.2609-3.1304,37.4438,3.6519,52.6955,8.0869,52.6956,8.0869Z"/>
      <path class="cls-9" d="M590.8242,358.2059c-5.65,9.3401-10.55,12.49-43.99,36.8101-18.29,13.3099-32.13,28.9199-44.21,47.8099-19.43,30.38-21.2,68.67-61.21,79.74-15.09,4.1801-30.65,3.85-45.83,7.9601-16.54,4.47-32.37,11.49-49.61,13.02-13.11,1.1699-26.32-.8401-39.47-.1101-17.92,1-35.13,7.0601-52.71,10.6801-21,4.3099-42.91,2.84-62.38-6.65-16.27-7.9299-26.71-23.36-42.2-32.38-21.47-12.5-51.05-15.8099-71.16-42.0699-7.55-9.8601-5.77-9.9401-27.46-50.8301-5.36-10.11-9.85-18.36-13.62-25.1799,2.2.73,4.15,1.75,5.78,3.11,2.58,2.15,6.07,6.58,13.69,10.96,7.03,4.03,11.15,4.34,16.05,6.26,15.37,6.03,13.86,18.37,27,27,7.8799,5.1801,19.34,5.02,42.2599,4.6901,24.41-.3401,26.63-3.67,39.91-1.17,15.04,2.83,26.02,9.71,32.87,14.09,21.87,13.97,21.33,24.0701,35.22,27,13.14,2.77,15.4901-5.88,35.22-5.87,16.11,0,15.94,5.77,37.56,8.2101,10.83,1.23,26.52,2.8099,42.26-4.6901,6.81-3.25,6.04-4.5699,16.44-11.74,26.24-18.08,36.44-13.26,48.13-27,6.46-7.6,8.61-15.63,12.91-31.7001,3.8-14.21,6.77-25.2999,1.17-31.6899-3.75-4.28-8.47-3.1699-23.47-5.87,0,0-13.73-2.48-27-7.0399-21.41-7.3701-37.89-28.54-45-48.9202-1.31-3.75-7.99-23.7599-1.96-48.5199,3.49-14.36,10.26-26.24,17.8-35.7301-2.19,7.4401-3.47,15.3201-3.6299,23.53-.1,4.7101-.19,46.76,34.3799,73.1201,19.29,14.73,40.5,17.7799,57.4901,16.9199,17.11-.88,29.93-5.72,32.21-6.62,9.7-3.83,32.86-13.01,44.28-34.48,4.31-8.11,6.07-16.33,15.29-24.64,3.57-3.21,13.34-12.02,26.02-10.88,14.51,1.2999,23.11,14.77,24.94,17.62,12.5499,19.64,6.96,47.22-3.97,65.25Z"/>
      <path class="cls-1" d="M590.8242,358.2059c-5.65,9.3401-10.55,12.49-43.99,36.8101-18.29,13.3099-32.13,28.9199-44.21,47.8099-19.43,30.38-21.2,68.67-61.21,79.74-15.09,4.1801-30.65,3.85-45.83,7.9601-16.54,4.47-32.37,11.49-49.61,13.02-13.11,1.1699-26.32-.8401-39.47-.1101-17.92,1-35.13,7.0601-52.71,10.6801-21,4.3099-42.91,2.84-62.38-6.65-16.27-7.9299-26.71-23.36-42.2-32.38-21.47-12.5-51.05-15.8099-71.16-42.0699-7.55-9.8601-5.77-9.9401-27.46-50.8301-1.1-2.0699-2.15-4.0599-3.18-5.97,4.76,3.4399,9.36,7.64,13.08,12.3401,6.71,8.49,4.58,11.1299,12,22.4299,2.61,3.99,15.62,23.8,38.61,32.87,13.69,5.4,16.38,1.25,37.04,8.35,6.96,2.39,14.66,5.03,23.48,10.4299,19.6201,12.01,18.73,21.6901,33.91,28.1801,12.63,5.39,24.81,3.62,31.83,2.6,15.04-2.1799,16.32-7.2899,37.04-14.6,15.29-5.4,27.77-9.7999,43.83-8.87,16.71.96,22.21,6.8301,34.95,3.13,8.66-2.5199,9.7-6.2699,20.35-13.0499,18.14-11.53,23.84-6.2001,45.65-16.5601,10.41-4.95,25.1-11.9299,35.22-27,7.61-11.34,3.32-13.38,11.74-28.96,3.28-6.0701,12.9-23.4,31.69-36,10.42-6.98,14.04-6.0701,22.7-14.0901,2.27-2.1,17.49-16.1899,13.7-26.21-.87-2.28-2.95-4.98-5.87-5.87-3.86-1.17-7.71,1.28-9.39,2.35-8.51,5.38-17.68,9.75-25.83,15.65-12.26,8.87-28.22,6.34-48.52,3.13-10.98-1.74-36.5-5.78-58.31-26.61-8.19-7.8199-22.92-21.9-25.04-43.83-.51-5.25-.25-10.5801.65-15.77,3,15.78,11.07,38.33,32.64,54.78,19.29,14.73,40.5,17.7799,57.4901,16.9199,17.11-.88,29.93-5.72,32.21-6.62,9.7-3.83,32.86-13.01,44.28-34.48,4.31-8.11,6.07-16.33,15.29-24.64,3.57-3.21,13.34-12.02,26.02-10.88,14.51,1.2999,23.11,14.77,24.94,17.62,12.5499,19.64,6.96,47.22-3.97,65.25Z"/>
      <path class="cls-4" d="M240.1651,18.8882c-6.9634-.8544-12.9211.005-14.1848.1956-3.6334.5479-10.5903,1.6528-18.3914,5.5762-5.7872,2.9105-6.8982,4.7867-15.8804,11.8043-12.1187,9.4681-20.7295,14.3604-20.5109,14.7065.2142.3392,8.3481-4.5674,24.2609-13.2065,12.3572-6.7087,14.886-7.7859,18.2935-8.8043,9.5299-2.8484,14.8612-4.442,21.4239-2.837,3.1046.7593,7.4501,2.4703,12.8152,1.0762.9066-.2356,4.061-1.0553,4.2065-2.5436.1935-1.9796-5.0459-4.0255-6.2609-4.5-2.7745-1.0834-5.0704-1.3812-5.7717-1.4673Z"/>
      <path class="cls-4" d="M100.1434,98.2903c-4.3325-2.4902-13.6296,6.6256-15.6522,8.6088-5.1452,5.0449-8.0219,10.3014-13.5652,20.6086-3.8078,7.0803-6.319,11.7495-8.8696,18.7826-.5328,1.4692-2.838,7.9242-4.9565,18.5217-2.0332,10.171-1.8969,14.1654-3.3913,27.1305-2.1744,18.8654-4.5837,28.8071-3.9131,28.9565.7973.1776,3.7507-13.973,10.9565-34.9565,5.1931-15.1223,9.6654-25.2629,13.0435-32.8696,7.4314-16.734,11.2425-25.1833,15.9131-29.2174,4.5073-3.8931,9.5756-6.4733,11.7391-13.0435,1.4908-4.5272,1.5753-10.8666-1.3043-12.5217Z"/>
      <path class="cls-4" d="M30.0483,265.271c-.2318.1518-.4535.3153-.6623.4885-2.8406,2.3568-4.1132,6.2316-4.9456,9.6966-2.0914,8.7057-4.4598,17.5081-5.0362,26.4429-.5431,8.4186.6762,17.0461,1.5664,25.4351s3.0638,16.7404,7.2896,24.0418c-2.2149-10.8859-3.4803-21.9582-3.9369-33.0578-.3761-9.1437-.1557-18.5631,3.2996-27.0371,2.5443-6.2398,6.7433-11.7052,9.2118-17.9753.8247-2.0948,1.4475-4.4561.6617-6.5658-1.2627-3.3898-4.9419-3.1104-7.448-1.4689Z"/>
      <path class="cls-9" d="M377.3172,81.2034c-.5097-.3159-7.058-4.2258-14.4783-1.5652-7.3421,2.6327-13.0107,10.7922-11.3478,18.7826,1.7786,8.5459,10.8643,11.7118,12.1304,12.1304,1.6233.5366,7.7714,2.5691,13.6956-.7826,5.8281-3.2972,8.6145-10.2072,7.8261-16.4348-.9801-7.7422-7.14-11.7052-7.8261-12.1304Z"/>
      <path class="cls-9" d="M468.4912,112.899c-3.1816-3.0603-8.1685-3.2421-11.7391-1.9565-5.9563,2.1444-10.3166,9.2159-8.2174,15.6521,1.7054,5.2286,7.3511,9.0482,12.5217,8.2174,3.6618-.5884,5.8528-3.3109,6.6522-4.3043,3.6489-4.5344,5.5397-13.033.7827-17.6086Z"/>
      <path class="cls-9" d="M545.1868,156.7251c-.0048-.9785-.0279-5.6669-3.1304-7.0435-2.7556-1.2227-6.0569,1.0028-7.6304,2.9348-1.8926,2.3237-3.3203,6.7208-.7826,9.7826,1.9052,2.2986,5.5107,3.1998,8.2174,1.7609,3.3539-1.7831,3.3326-6.0986,3.326-7.4348Z"/>
      <path class="cls-9" d="M347.9695,190.3773c-3.9063-4.8949-10.9722-4.0897-12.5218-3.9131-1.5195.1731-9.7757,1.114-12.5217,8.2174-2.0795,5.3794.0547,11.5671,4.3044,14.8695,4.5518,3.5372,9.9488,2.535,10.9565,2.3479,1.1061-.2054,5.4724-1.1501,8.6087-5.087,3.387-4.2515,5.0296-11.6034,1.174-16.4347Z"/>
      <path class="cls-9" d="M415.7955,138.986c-1.1411-2.6074-4.4426-3.978-6.7826-2.8695-2.8173,1.3346-3.5906,5.9552-1.3044,8.3478,1.6202,1.6956,4.7087,2.2008,6.7827.5217,1.8414-1.4908,2.1362-4.0989,1.3043-6Z"/>
      <path class="cls-9" d="M426.7521,63.986c-1.1485-1.9445-4.1064-1.9729-5.8696-1.4348-.5378.1642-3.1713.9679-3.6522,3.3914-.368,1.8545.7164,3.6902,2.2173,4.5652,2.2277,1.2986,4.5724.0143,4.8261-.1304,2.1639-1.2336,3.7059-4.3127,2.4783-6.3914Z"/>
      <path class="cls-9" d="M238.9259,208.899c-8.6926-3.4675-18.4667-.2429-24,6.2609-7.4516,8.7585-5.9382,21.9662,1.0435,29.7391,4.6971,5.2294,13.2559,9.5427,21.913,6.7826,9.5587-3.0476,13.6984-12.9526,14.087-20.3479.4178-7.9518-3.2117-18.5127-13.0435-22.4347Z"/>
      <path class="cls-9" d="M302.9695,281.9425c-3.9014-3.5845-10.3485-3.2423-14.4783-.3914-5.5106,3.8043-7.4753,12.4762-3.1304,18,3.1719,4.0326,9.2265,5.7771,14.0869,3.5217,5.9259-2.7499,6.5507-9.8098,6.6522-10.9564.1292-1.459.5973-6.749-3.1304-10.174Z"/>
      <path class="cls-9" d="M238.4042,357.0729c-2.0814-3.1772-6.5112-4.9336-10.5652-3.913-4.869,1.2257-6.715,5.8325-7.0435,6.6521-.3098.7729-2.4082,6.0098.7826,10.174,2.5735,3.3585,7.1924,4.1986,10.5652,3.1305,6.1155-1.9366,9.7822-10.6681,6.2609-16.0436Z"/>
      <path class="cls-9" d="M330.7521,342.986c-3.15-2.4268-7.6956-.946-10.174,1.0435-3.0427,2.4425-5.1501,7.4019-2.8696,11.2174,1.532,2.5632,4.6418,3.9368,7.5652,3.6522,4.6887-.4564,6.7164-4.9656,7.0435-5.7391,1.1716-2.7715,1.6818-7.6725-1.5652-10.174Z"/>
      <path class="cls-9" d="M229.4042,284.6816c-3.3975-2.4503-8.6276-2.2982-11.7391.7826-3.9891,3.9497-2.9706,11.2023.7826,13.6957,2.6628,1.769,6.0444.7054,7.0435.3912,3.2718-1.0289,7.5392-4.1552,7.4348-8.6086-.087-3.7092-3.1519-5.9941-3.5217-6.2609Z"/>
      <path class="cls-9" d="M427.7955,408.7251c-1.8866-1.824-5.1662-2.9551-8.2174-1.9565-3.8612,1.2635-5.1387,5.2117-5.4782,6.2609-.3071.9491-1.7402,5.8379,1.5652,9.7826,2.4181,2.8857,6.6387,4.391,9.7826,3.1305,5.5746-2.2351,6.8973-12.8187,2.3478-17.2174Z"/>
      <path class="cls-9" d="M236.0564,444.4642c-1.8558-2.6964-5.4745-4.228-8.8696-3.3914-2.9363.7236-6.0631,3.307-6,6.2609.0419,1.9601,1.4725,3.3441,2.8696,4.6957,1.5861,1.5344,3.862,3.7362,7.0435,3.3914,2.9075-.3152,5.7216-2.6649,6.2609-5.7391.4644-2.6475-.9551-4.7098-1.3044-5.2174Z"/>
      <path class="cls-9" d="M113.1868,425.5511c-3.5984-2.115-9.0077-.5867-10.1739,2.7391-1.0899,3.1083,1.8345,6.9072,5.087,8.2174,2.3208.9348,6.028,1.0936,7.826-1.174,2.1586-2.7222.6525-7.7892-2.7391-9.7826Z"/>
      <path class="cls-9" d="M157.2738,196.899c-1.7371-1.8131-5.1709-3.6083-8.087-2.087-2.7646,1.4423-3.0993,4.8403-3.1304,5.2174-.2227,2.6952,1.1708,5.5553,3.6522,6.7826,3.6742,1.8173,8.7277-.4431,9.6522-3.913.7686-2.8848-1.6104-5.5026-2.087-6Z"/>
      <path class="cls-3" d="M113.9695,193.5077c-1.5773-4.897-6.2142-8.9698-11.7391-9-6.9174-.0377-12.7064,6.2754-12.5218,12.5217.1723,5.8282,5.4767,9.2733,6.2609,9.7826.7656.4972,7.4343,4.679,13.3043,1.174,4.8858-2.9174,6.3216-9.4302,4.6957-14.4783Z"/>
      <path class="cls-3" d="M126.8825,105.0729c-2.7945-1.6477-5.8344-.7809-6.4565-.5869-3.8274,1.193-6.6837,5.1343-6.4565,9.3914.1892,3.5454,2.5325,7.5973,6.6522,8.413,4.0823.8083,7.663-2.0057,9.1956-4.8912,2.2274-4.1934.931-10.0468-2.9348-12.3262Z"/>
      <path class="cls-3" d="M291.2303,23.486c-2.7766-1.9487-6.5732-1.5183-9,.5869-2.5327,2.1971-3.5836,6.2275-1.7609,9,2.267,3.4482,7.3813,2.5198,8.2173,2.3479,1.0471-.2152,3.6005-.7401,4.8913-2.9348,1.6054-2.7296.6031-6.929-2.3478-9Z"/>
      <path class="cls-3" d="M324.4912,57.0729c-.8068-1.7451-2.7684-2.5703-4.4348-2.2174-2.4253.5135-3.8644,3.4457-3,5.4783.6269,1.474,2.3138,2.1189,3.5217,2.2174.3763.0308,1.7342.1415,2.8696-.7826,1.2786-1.0406,1.8175-3.0214,1.0435-4.6957Z"/>
      <path class="cls-3" d="M187.339,59.8773c-1.2545-3.3954-6.2151-3.927-9-3.5219-.459.0668-4.8637.7777-6.8478,4.5-.3586.6727-1.6103,3.0211-.587,5.087.7401,1.4941,2.2704,2.0334,3.7174,2.5435,3.6989,1.3036,6.9683.1274,7.826-.1957.8784-.3308,1.6872-.6354,2.5435-1.3695,1.8218-1.5618,3.2657-4.5588,2.3478-7.0435Z"/>
      <path class="cls-3" d="M56.5781,234.7251c-4.4839-1.9065-10.046.7791-11.4783,5.2174-1.1192,3.4681.3532,7.7898,3.3913,9.3912,2.2831,1.2035,4.7519.5026,6.5218,0,1.7534-.4978,5.0244-1.4266,6.2609-4.1738,1.5405-3.4229-.5293-8.6633-4.6956-10.4348Z"/>
      <path class="cls-3" d="M92.4477,148.899c-1.9262-1.8342-6.8059-1.1943-9,1.9564-2.0699,2.9724-1.3302,7.5771,1.5652,9.3914,2.1696,1.3595,5.4993,1.1204,7.0435-.6522.6966-.7997.8217-1.7179,1.0435-3.5217.4254-3.46.7212-5.866-.6522-7.1738Z"/>
      <path class="cls-3" d="M43.9259,319.1164c-4.4185-1.8644-11.5723,2.1633-13.3044,8.2173-1.6163,5.6494,1.523,12.9438,7.0435,14.087,4.0682.8424,8.2005-1.91,10.1739-5.087,2.5237-4.0627,1.2779-8.4353.7826-10.1738-.5475-1.9216-1.6393-5.7538-4.6956-7.0435Z"/>
      <path class="cls-3" d="M57.2303,377.6164c-.3614-.4546-1.6397-2.0625-3.1304-1.761-1.4716.2976-2.5582,2.3363-2.0544,4.1088.4738,1.6667,2.2117,2.5968,3.7174,2.4457.1205-.0121,1.8997-.217,2.4456-1.5653.5359-1.3235-.5468-2.6855-.9783-3.2281Z"/>
      <path class="cls-1" d="M484.7303,382.5077c-1.9832-2.4307-7.1962-2.9896-9.7827.1957-2.0975,2.5831-1.4861,6.4199.587,8.6086.1404.1482,2.4176,2.4843,5.087,1.9565,3.9919-.7891,6.7209-7.5593,4.1087-10.7609Z"/>
      <path class="cls-1" d="M397.0781,355.5077c-2.2645-2.0675-6.5699-3.3353-9.5869-.7826-2.9502,2.4962-2.96,7.2004-.7827,9.5869,1.8816,2.0624,4.9041,1.8542,6.2609,1.7609,1.3755-.0947,4.9091-.338,6.2609-2.9347,1.3326-2.5598-.2452-5.8893-2.1522-7.6305Z"/>
      <path class="cls-1" d="M356.7738,303.6599c-2.0897-.7643-5.0035.1704-6.2609,2.1521-1.806,2.8466.4291,6.871,2.7391,8.8044,1.3302,1.1134,4.2292,2.8257,5.8696,1.7609,2.6966-1.7505,2.1146-11.0853-2.3478-12.7174Z"/>
      <path class="cls-1" d="M435.6216,460.6382c-1.6431-3.1202-6.6258-3.5139-9.9131-2.087-2.5895,1.124-5.7117,4.0656-5.2173,7.8262.3242,2.4662,2.1208,4.6543,4.4348,5.4781,4.3869,1.562,8.1882-2.6497,8.6087-3.1304.2371-.2711,3.9234-4.5995,2.087-8.0869Z"/>
      <path class="cls-1" d="M356.7738,494.812c-1.5058-1.0164-3.8625-1.1057-5.2826.3914-1.0915,1.1508-1.4427,3.0417-.587,4.5,1.094,1.8644,3.4387,1.791,3.913,1.7609.2538-.0161,2.9896-.2319,3.7174-2.3478.5826-1.6938-.5144-3.4631-1.7609-4.3044Z"/>
      <path class="cls-1" d="M285.8825,490.3773c-.9556-.5496-4.9703-2.8584-9.3913-1.0436-2.4686,1.0133-5.3149,3.4155-5.7391,6.7827-.6238,4.952,4.3569,9.0867,8.6087,10.1738.9269.2371,4.1349,1.0043,7.3043-.7826,2.4119-1.3597,4.897-4.2526,4.6957-7.826-.2418-4.293-4.1913-6.5642-5.4783-7.3043Z"/>
      <path class="cls-1" d="M201.6216,474.4642c-3.2462-1.3643-8.3202-1.6921-11.7391,1.5652-4.1989,4.0005-2.5941,10.2574-2.3478,11.2174,1.8819,7.3372,9.4673,9.7053,10.1739,9.9131,1.8126.5328,5.442,1.5997,8.3478-.2609,4.3301-2.7726,4.1734-10.2018,2.3478-14.8696-.5284-1.351-2.2066-5.6421-6.7826-7.5652Z"/>
      <path class="cls-1" d="M166.5999,453.9208c-1.9741-1.0699-5.2712-1.3794-7.0435.7826-1.4861,1.8129-1.1974,4.5063,0,6.2609,1.8102,2.6525,5.1757,2.3947,5.674,2.3478.4404-.0415,3.4729-.3269,4.5-2.5435,1.0942-2.3613-.7231-5.5431-3.1304-6.8478Z"/>
      <path class="cls-1" d="M111.6216,463.2468c-.6323-.5084-3.0643-2.464-5.4783-1.5652-2.8459,1.0596-3.1128,5.1355-3.1304,5.4783-.1603,3.1133,1.677,7.5573,5.2174,7.826,3.1386.2383,6.0876-2.9208,6.2609-6.1305.1708-3.1639-2.4166-5.2444-2.8696-5.6086Z"/>
      <path class="cls-1" d="M226.9259,516.2034c-2.2563-1.583-6.0044-1.1202-7.0435,1.0435-.9213,1.9183.5464,4.6335,2.6087,5.7391,1.9744,1.0585,5.0923.9622,6.2609-1.0435,1.11-1.905-.1172-4.5402-1.8261-5.7391Z"/>
      <path class="cls-2" d="M558.4912,294.8555c-7.1381.9539-12.8046,11.7762-9,19.5653,3.0867,6.3196,12.0858,9.983,18,6.2609,5.4487-3.4291,5.7568-11.5392,3.5217-16.8262-2.0353-4.8145-7.2036-9.7107-12.5217-9Z"/>
      <path class="cls-2" d="M531.7521,391.2468c-.8745-2.0653-3.4099-3.5544-5.8696-3.2609-3.3207.3964-5.5966,3.9333-5.2174,7.174.2982,2.5481,2.2583,5.0851,4.5652,5.3478,3.8015.4329,8.1768-5.3517,6.5217-9.2609Z"/>
      <path class="cls-2" d="M487.2738,432.5946c-.1146-3.6235-2.2248-8.6462-5.8696-9-3.7068-.3597-7.5124,4.2542-7.4348,8.6088.0932,5.2272,5.7761,9.7589,9.3913,8.6086,2.8821-.917,4.0051-5.3038,3.913-8.2174Z"/>
      <path class="cls-2" d="M459.0999,498.7251c2.8956-1.7711,4.0954-5.5051,3.1304-8.6086-1.2444-4.0023-6.0178-6.7267-10.174-4.9565-3.9152,1.6675-5.5997,6.6066-3.6522,10.4347,2.0057,3.9426,7.1483,5.3003,10.6957,3.1305Z"/>
      <path class="cls-2" d="M403.2738,515.4208c3.8496-1.6794,5.031-7.0007,3.6522-10.6957-1.9142-5.1296-8.8383-7.3278-12.5217-5.2174-1.6775.9611-2.4055,2.657-2.6087,3.1305-1.5682,3.6533.5311,7.2712,1.0435,8.0869,1.8361,2.923,6.3076,6.4962,10.4348,4.6957Z"/>
      <path class="cls-2" d="M320.4477,514.1164c-.6136-1.1503-2.5729-1.3348-3.7826-.5219-1.0571.7104-1.7535,2.3248-1.0435,3.3914.6713,1.0083,2.2567,1.0116,3.2609.5217,1.249-.6094,2.1688-2.2598,1.5652-3.3912Z"/>
      <path class="cls-2" d="M274.5346,543.4642c.7549-1.0743.8417-2.5203.2609-3.6522-.8927-1.7396-3.2861-2.5892-5.087-1.5652-1.3969.7943-2.0833,2.5149-1.6956,4.0435.0309.1221.4456,1.6498,1.9565,2.3479,1.5118.6985,3.5329.2949,4.5652-1.174Z"/>
      <path class="cls-2" d="M208.0129,533.812c-.5912-.8882-1.932-.962-2.7391-.3912-.4517.3195-.8298.9069-.7826,1.5652.069.9614,1.0189,1.7068,1.9565,1.6957.8649-.0103,1.3901-.6602,1.4348-.7174.471-.6029.5628-1.5027.1304-2.1522Z"/>
      <path class="cls-2" d="M155.839,498.8555c-1.6589.2688-3.2452,1.6708-3.2609,3.261-.0216,2.2045,2.99,3.2843,3.6522,3.5217.823.295,2.6666.9562,3.7826,0,1.1913-1.0206.8749-3.3024,0-4.6957-.7375-1.1746-2.2947-2.3915-4.174-2.087Z"/>
      <path class="cls-2" d="M128.4477,497.2903c-1.1283-1.4943-3.496-1.6383-4.6956-.3912-1.3025,1.354-.7449,3.8456.7826,4.826.9196.5903,2.2656.681,3.2609,0,1.3602-.9307,1.6973-3.0508.6522-4.4348Z"/>
      <path class="cls-9" d="M383.9695,145.1816c-3.2838-1.8009-7.1572-1.6456-9.7827.3912-3.7691,2.9241-4.4099,9.2939-.9783,12.5217,2.5187,2.3691,6.694,2.5403,9.3914.7827,3.6924-2.406,4.9-8.6119,1.3696-13.6957Z"/>
    </g>
  </g>
</svg>