<?xml version="1.0" encoding="UTF-8"?>
<svg id="Capa_2" xmlns="http://www.w3.org/2000/svg" viewBox="0 0 740.4287 758.6476">
  <defs>
    <style>
      .cls-1 {
        fill: #44911c;
      }

      .cls-2 {
        fill: #639648;
      }

      .cls-3 {
        fill: #367710;
      }

      .cls-4 {
        fill: #57a529;
      }

      .cls-5 {
        fill: #acd696;
      }

      .cls-6 {
        fill: #94c67d;
      }

      .cls-7 {
        fill: #56843c;
      }

      .cls-8 {
        fill: #70a856;
      }

      .cls-9 {
        fill: #7bb662;
      }
    </style>
  </defs>
  <g id="Capa_1-2" data-name="Capa_1">
    <g>
      <g>
        <path class="cls-9" d="M727.0178,309.9884c-5.99,43.61-36.8,85.3601-57.1201,129.9399-21.01,46.1001-32.04,95.01-67.99,137.53-26.5701,31.4301-67.3199,55.8201-97.51,79.6101-33.3499,26.2999-56.4399,51.1199-91.83,67.49-51.99,24.03-111.9301,22-161.7001,22.8899-20.2699.3701-39.2699.3501-57.22-1.1699-26.1299-2.23-50.0599-7.67-72.52-19.8501-8.95-4.8599-17.6699-10.7799-26.21-18-24.23-20.48-28.73-51.7899-42.4199-80.1099-19.48-40.3101-42.8-81.03-41.4401-131.2001,1.28-47.21,22.8099-88.9,42.03-138.77,21.5699-56,43.13-120.16,86.65-171.62,38.55-45.6,89.61-72.27,134.8999-101.58,33.9301-21.96,61.23-50.29,96.1801-62.38,53.84-18.64,105.61-11.15,154.7101-4.52,44.5999,6.02,87.3298,8.87,121.1899,37.5,2.73,2.31,5.3,4.72,7.74,7.22,19.6001,20.14,30.24,46.24,41.1401,72.71,1.3999,3.4,2.8098,6.81,4.2397,10.21,20.6902,49.26,35.6001,102.87,27.1802,164.1Z"/>
        <path class="cls-5" d="M445.5288,11.0001c27.3558-.0007,54.0465,3.7439,79.999,7.2483,44.5999,6.02,87.3298,8.87,121.1899,37.5,2.73,2.3099,5.3,4.72,7.74,7.22,19.6001,20.14,30.24,46.24,41.1401,72.71,1.3999,3.4,2.8098,6.8101,4.2397,10.2101,20.6902,49.26,35.6001,102.87,27.1802,164.1-5.99,43.61-36.8,85.3601-57.1201,129.9399-21.01,46.1001-32.04,95.01-67.99,137.53-26.5701,31.4301-67.3199,55.8201-97.51,79.6101-33.3499,26.2999-56.4399,51.1199-91.83,67.49-51.99,24.03-111.9301,22-161.7001,22.8899-6.5781.1201-13.0229.1992-19.3409.1992-13.1508,0-25.7542-.3424-37.879-1.3691-26.1299-2.23-50.0599-7.67-72.52-19.8501-8.95-4.8599-17.6699-10.7799-26.21-18-24.23-20.48-28.73-51.7899-42.4199-80.1099-19.48-40.3101-42.8-81.03-41.4401-131.2001,1.28-47.21,22.8099-88.9,42.03-138.77,21.5699-56,43.13-120.16,86.65-171.62,38.55-45.6,89.61-72.27,134.8999-101.58,33.9301-21.9601,61.23-50.29,96.1801-62.38,25.3821-8.7876,50.3119-11.7677,74.7111-11.7683M445.5366,0v11l-.0029-11c-28.6522.0009-54.2675,4.0483-78.3147,12.3737-24.6953,8.5427-44.8949,23.9352-66.2803,40.2316-10.354,7.89-21.0605,16.0486-32.2778,23.3086-8.4756,5.4851-16.9916,10.775-26.0074,16.3756-38.8057,24.1055-78.9324,49.0315-111.316,87.3373-40.2125,47.5491-62.2983,105.7595-81.7843,157.1177-2.3134,6.0969-4.4983,11.8558-6.7302,17.6503-3.8168,9.9032-7.7661,19.5798-11.5853,28.9379C15.7591,421.2576,1.1392,457.0795.0617,496.8203c-1.2838,47.3573,17.6813,85.8098,36.022,122.9963,2.1534,4.3662,4.3801,8.881,6.5099,13.2881,3.918,8.1051,7.1611,16.7919,10.2976,25.1929,7.7803,20.839,15.8254,42.3877,34.9257,58.5319,8.8375,7.4716,18.2791,13.9537,28.0615,19.2657,21.7797,11.8109,46.1925,18.5284,76.834,21.1433,11.3533.9615,23.6846,1.4091,38.8143,1.4091,5.8219,0,12.0315-.0638,19.5417-.201,5.1395-.0919,10.3041-.1515,15.7719-.2145,47.6354-.5492,101.6265-1.1718,150.3427-23.6885,26.9578-12.4697,47.1484-29.6028,68.5247-47.7419,8.0764-6.8535,16.4279-13.9403,25.5015-21.0957,8.5337-6.7247,17.9084-13.4829,27.8335-20.6381,25.3186-18.2523,51.4993-37.1262,71.2656-60.5079,26.7976-31.6951,40.3007-66.6166,53.3593-100.3882,5.0774-13.1312,10.3278-26.7095,16.2397-39.6816,6.2976-13.816,13.8075-27.6854,21.0701-41.0983,16.0167-29.58,32.5787-60.167,36.9382-91.9066,4.098-29.8004,3.1914-59.2805-2.7715-90.1235-4.8439-25.0543-12.8401-50.3901-25.1647-79.733-1.4999-3.5663-2.9696-7.1259-4.21-10.1383l-.3062-.7437c-10.9268-26.537-22.2255-53.9775-43.1224-75.4501-2.7477-2.8154-5.6097-5.485-8.5177-7.9456-14.9675-12.6555-32.8678-21.767-54.7271-27.8577-18.9974-5.2932-38.4741-7.7965-59.0945-10.447-4.2572-.5471-8.6595-1.1129-13.0023-1.6992l-2.7504-.3716c-25.3613-3.4294-51.5861-6.9756-78.7123-6.9756h0Z"/>
      </g>
      <path class="cls-6" d="M497.9712,25.2273c-1.0117-.219-2.0259-.415-3.0315-.601-18.4443-3.4099-37.3884-5.3185-56.156-4.7827-17.3184.4952-50.96,1.457-85.6956,19.1739-22.3555,11.4024-20.8679,17.3526-61.0435,44.2174-21.4941,14.3727-36.1465,22.1827-45.7827,27.7826-19.9639,11.6019-67.6018,40.8525-107.739,91.8261-11.3044,14.3563-40.218,51.0762-54.261,99.1304-2.5925,8.8719-7.9368,29.2802-18,60.2609-4.5547,14.0225-8.3848,25.8137-14.0869,40.6957-14.707,38.3846-21.1423,43.2397-26.6086,61.0435-8.1492,26.5411-3.8923,48.4669,2.3479,80.6086,6.0376,31.098,17.0083,87.606,54.2607,103.3043,3.1213,1.3153,7.9568-1.2379,4.6462-20.2906-5.6453-32.4908-19.0415-55.7015-24.6492-69.2551-19.2744-46.5846,3.5232-101.0066,7.3042-116.6783,10.6182-44.0104,51.0813-76.3901,64.8728-93.1237,11.363-13.787,19.9883-24.2522,35.2173-34.4348,22.5466-15.0753,24.9995-17.9109,57.9131-36.3914,21.8567-12.2722,39.4106-19.0798,52.0127-40.8488,13.0632-22.5651,20.2466-43.6498,29.3787-68.0721,11.0095-29.4437,27.1726-62.0809,49.2861-84.4221,17.657-17.8387,42.1562-27.5912,66.8894-31.8636,24.7332-4.2725,50.0186-3.5153,75.1145-3.1013,4.2627.0703,9.0137-.0536,12.0632-3.0328,4.1162-4.0211,2.6685-11.4172-1.5093-15.3743-3.4355-3.254-8.0618-4.7576-12.7437-5.7709Z"/>
      <path class="cls-9" d="M54.7117,568.5578c-1.8919-2.6916-5.6819-3.3501-8.3457-2.9674-4.7836.6873-8.3541,5.0802-8.9021,9.644-.5148,4.2868,1.5651,9.3241,5.5638,10.9422.3756.152,3.0334,1.181,5.7493,0,2.4873-1.0816,3.5193-3.3628,4.6365-5.9348,1.6978-3.9087,3.6325-8.3628,1.2982-11.684Z"/>
      <path class="cls-9" d="M53.7603,480.0591c-.4093-1.8405-2.6844-2.6267-2.8657-2.6866-.2604-.086-2.0857-.6569-3.7612.3583-1.9464,1.1794-2.9733,4.0645-1.791,5.9105,1.0358,1.6172,3.2408,1.6146,3.403,1.6119,2.7549-.045,5.5362-2.8505,5.0149-5.194Z"/>
      <path class="cls-9" d="M99.9143,604.8436c-1.3973-3.1573-5.1688-6.4426-8.6088-5.4783-3.7131,1.0409-4.9976,6.4608-4.3043,10.174.8514,4.5607,5.1447,9.0012,8.6088,8.2174,3.3362-.7548,4.5569-6.0504,4.6956-6.6522.2469-1.0714.7908-3.59-.3912-6.2609Z"/>
      <path class="cls-9" d="M110.8708,347.0957c-4.9069-4.9212-14.0662-2.3136-15.2609-1.9565-8.2526,2.4669-17.4038,11.0892-15.2609,19.5652,2.1603,8.5446,14.9541,13.6013,23.8696,9.3913,10.2946-4.8612,12.7953-20.8388,6.6521-27Z"/>
      <path class="cls-9" d="M162.7838,295.7132c-1.5378-3.7995-6.2195-4.9752-9.1304-4.9565-4.0714.0261-9.2214,2.418-10.4348,7.3043-.7985,3.2152.1909,7.1749,3.1305,9.3913,3.8501,2.903,8.8839,1.1852,11.4781-.5217,3.2628-2.1469,6.6934-6.9261,4.9565-11.2174Z"/>
      <path class="cls-9" d="M152.0673,241.2927c-4.8315-3.7855-14.8113.2259-18.7827,6.7826-.3065.506-4.182,7.1099-1.0435,12,2.2748,3.5443,6.9247,4.1483,9.1305,4.4348,1.8887.2453,4.4618.5795,7.0435-.7826,3.3905-1.7889,4.5618-5.325,5.2174-7.3043.1664-.5023,3.5521-11.121-1.5652-15.1304Z"/>
      <path class="cls-9" d="M226.1752,235.9741c-5.5568-3.9221-13.7062-1.3898-18.2609,2.6086-6.197,5.4402-8.4248,15.9517-3.6522,21.9131,3.6665,4.5798,10.2327,4.9351,12,4.9565,1.5071.0182,4.6685.0566,7.8262-1.826,6.4331-3.8354,6.9532-12.1273,7.0435-13.5652.132-2.1042.636-10.1396-4.9565-14.0869Z"/>
      <path class="cls-9" d="M212.3491,176.235c-2.9922-3.8944-10.0375-3.2495-14.3479-1.3044-1.0831.4888-8.5167,4.0032-8.6086,11.4783-.0719,5.8422,4.3882,10.2468,8.6086,11.7391,1.0118.3578,3.6797,1.3012,6.5217.2609,3.6924-1.3516,5.1663-5.1321,6.5217-8.6087,1.9669-5.0452,3.9475-10.1252,1.3044-13.5652Z"/>
      <path class="cls-9" d="M264.0012,121.4523c-4.3533-.3384-10.1852,1.7211-12,6.7827-1.0364,2.8905-.8682,7.0543,1.826,9.6522,3.5227,3.3967,8.9221,1.7622,10.4348,1.3043,1.0284-.3113,4.7446-1.4979,7.0435-5.2173.7274-1.1769,2.5044-4.0521,1.5653-7.0435-1.2051-3.8384-6.0635-5.2601-8.8696-5.4783Z"/>
      <path class="cls-9" d="M285.6535,188.235c-1.2621-2.9564-5.1846-4.1274-8.087-3.1304-3.9974,1.3732-5.6848,6.73-3.913,9.913.8104,1.4558,2.4802,2.7006,4.4348,2.8696,2.3259.201,3.9801-1.2141,4.6956-1.8261.2852-.244,4.5156-3.9704,2.8696-7.826Z"/>
      <path class="cls-9" d="M336.7856,87.9181c-1.1033-3.095-4.9908-4.4701-7.5652-4.6957-7.1642-.6277-11.9181,6.9669-12.7826,8.3478-1.3141,2.0993-2.9265,4.6751-2.0869,7.5652.8438,2.9045,3.7625,4.7446,6.2609,5.2173,5.2599.9954,9.6198-3.8873,11.7391-6.2609,2.2505-2.5204,5.7614-6.4522,4.4347-10.1739Z"/>
      <path class="cls-9" d="M420.8154,35.6761c-2.1708-3.2577-9.2817-2.097-13.5653.5218-1.1593.7087-5.7227,3.4987-5.2173,7.0435.3877,2.7195,3.5541,4.4471,5.7391,4.9565,2.1584.5032,3.9401-.0469,5.4781-.5218,1.6062-.4959,4.1567-1.2834,6-3.6522,1.6492-2.1193,3.1244-6.0082,1.5653-8.3478Z"/>
      <path class="cls-9" d="M275.7404,234.148c.1736-1.1516-.7296-2.3525-1.826-2.7391-1.5239-.5374-3.2277.5667-3.7826,1.9565-.4269,1.0692-.3127,2.6552.6521,3.2609.9187.5766,2.1403-.0294,2.8696-.3913.7739-.384,1.9156-.9504,2.0869-2.087Z"/>
      <path class="cls-9" d="M165.4578,207.2784c-1.9106-2.4029-5.8665-3.1236-8.6086-1.1739-2.5226,1.7936-3.5802,5.5359-1.9565,8.0217,1.8792,2.877,6.1328,2.2081,6.4565,2.1522.5385-.093,4.0231-.6945,5.0869-3.7174.9688-2.7529-.8931-5.1754-.9783-5.2826Z"/>
      <path class="cls-8" d="M727.0178,309.9884c-5.99,43.61-36.8,85.3601-57.1201,129.9399-21.01,46.1001-32.04,95.01-67.99,137.53-26.5701,31.4301-67.3199,55.8201-97.51,79.6101-33.3499,26.2999-56.4399,51.1199-91.83,67.49-51.99,24.03-111.9301,22-161.7001,22.8899-49.7799.9001-91.8398-.48-129.74-21.02,17.99,1.55,38.1901,2.1501,60.1801.5,24.61-1.8398,44.2301-5.95,49.3-7.0399,26.4-5.6901,44.97-12.85,66.5199-21.13,90.6201-34.8201,88.1401-33.38,90-34.4399,69.4501-39.4501,106.4501-108.22,113.4801-121.3,3.66-6.8101,10.1-19.5,21.92-40.7,16.26-29.1801,24.3899-43.77,36-60.26,14.1499-20.1101,16.9199-20.14,34.4299-45.39,9.28-13.37,16.1799-24.48,21.9099-33.65,11.1301-17.82,19.4001-31.06,26.6101-45.39,5.9099-11.74,16.79-35.52,23.48-66.52,3.7-17.17,21.3521-57.5604,15.6522-100.3504-2.46-18.53,1.3539-21.9332-12-55.9143-6.0549-15.4076-13.4422-24.3652-14.1522-31.8752,22.1201,22.73,32.8201,53.04,45.3799,82.92,20.6902,49.26,35.6001,102.87,27.1802,164.1Z"/>
      <path class="cls-2" d="M727.0178,309.9884c-5.99,43.61-36.8,85.3601-57.1201,129.9399-21.01,46.1001-32.04,95.01-67.99,137.53-26.5701,31.4301-67.3199,55.8201-97.51,79.6101-33.3499,26.2999-56.4399,51.1199-91.83,67.49-51.99,24.03-111.9301,22-161.7001,22.8899-20.2699.3701-39.2699.3501-57.22-1.1699,18.47-2.55,36.78-4.39,53.4001-5.26,20.47-1.0701,81.4399-12.8101,110.74-17.22,9.8899-1.49,29.2699-4.39,48.9099-17.6101,13.48-9.0699,17.66-16.6599,31.6899-33.26,26.1001-30.8499,51.6001-51.8398,68.48-65.74,30.3601-24.98,34.1201-22.2899,48.52-39.1299,13.3401-15.5801,21.0901-30.7001,33.6602-55.5601,10.47-20.73,15.73-33.84,23.74-52.4399,0,0,19.74-45.8701,42.7798-92.35,31.8801-64.3,38.2002-64.6,43.8201-90.78,1.45-6.72,3.99-20.49.79-79.82-1.3899-25.8199-3.0999-45.85-4.5798-61.43,1.3999,3.4,2.8098,6.81,4.2397,10.21,20.6902,49.26,35.6001,102.87,27.1802,164.1Z"/>
      <path class="cls-8" d="M560.4795,57.8002c-4.5029-2.8996-11.5173-3.72-16.826,0-3.963,2.7771-7.3186,8.3251-5.8696,13.3044,1.2733,4.3755,5.6459,6.2128,11.3478,8.6086,5.6824,2.3876,12.3623,5.1945,16.0435,2.3478,5.1306-3.9675,4.0569-18.6248-4.6956-24.2609Z"/>
      <path class="cls-8" d="M643.8274,64.4523c-3.7532-1.8187-8.5654-1.5102-12.1306.7827-6.1375,3.947-6.5913,12.4957-4.6956,18,1.5076,4.3774,5.5991,10.0168,11.7393,10.5652.5952.0532,5.5063.4131,9-3.1304,2.6367-2.6744,2.9368-6.0212,3.1304-8.6087.1438-1.9233,1.0249-13.6989-7.0435-17.6087Z"/>
      <path class="cls-8" d="M303.183,273.5692c-4.3948-8.6754-16.4863-8.1454-17.478-8.087-2.1562.127-11.4119,1.0207-15.9131,9.1304-2.8518,5.1376-3.5879,12.7974.7825,18.2609,4.7964,5.9959,12.7363,5.5879,14.8696,5.4783.6082-.0312,12.4771-.8373,17.2173-10.6957.5234-1.0883,3.7292-7.7555.5217-14.0869Z"/>
      <path class="cls-8" d="M522.0654,391.472c-3.0396-6.7135-13.2032-9.1844-19.3491-5.0308-3.4723,2.3467-6.3725,7.2878-5.0308,11.9965,1.6848,5.9126,8.8873,7.3506,10.8355,7.7396,2.2026.4398,7.4378,1.4851,11.2226-1.9349,3.5819-3.2366,4.0888-8.8678,2.3219-12.7705Z"/>
      <path class="cls-8" d="M456.5342,298.7453c-1.5981-5.3-7.9014-6.8947-12.1305-6.2609-3.4977.5242-8.2574,2.9744-9,7.4348-.8262,4.962,3.8558,9.1901,7.8262,10.5652.8818.3054,3.8369,1.2802,7.0435,0,4.1901-1.6729,7.7574-6.7759,6.2609-11.7391Z"/>
      <path class="cls-8" d="M667.3057,159.8002c-3.395-3.3963-8.7241-2.9328-12-1.5652-3.8154,1.5929-8.6238,5.9899-7.5652,11.2173,1.0349,5.1105,7.0151,7.7449,11.739,7.3044,5.4868-.5117,10.3291-5.2695,10.4348-10.4348.0769-3.7571-2.3818-6.2947-2.6086-6.5217Z"/>
      <path class="cls-8" d="M406.2466,333.3183c-.3156-6.0693-6.4386-9.7809-10.5653-10.9564-6.8212-1.943-16.3237.7257-18.3912,7.4347-1.8945,6.1475,3.6355,11.8524,3.913,12.1305,4.6936,4.7028,12.3845,5.5571,18,2.3478.5912-.3379,7.3866-4.3602,7.0436-10.9565Z"/>
      <path class="cls-8" d="M136.5012,636.9307c2.3413-2.2933,1.8925-6.8418-.3912-9.3914-2.1096-2.3552-5.198-2.3494-6.0653-2.3478-2.1688.004-6.3613.7909-7.2391,3.7174-.9855,3.2858,3.0442,6.4791,3.5217,6.8478,2.4357,1.8804,7.4257,3.866,10.174,1.174Z"/>
      <path class="cls-8" d="M116.9762,678.1534c3.4602,1.119,4.6415.6493,6.2609,2.1521,2.1477,1.993,2.3148,4.9025,2.3479,5.4783.1731,3.0132-1.2435,5.8839-3.3262,7.6305-5.0349,4.2225-12.3932.5588-12.7174.3912-.8433-.4358-3.7631-1.9978-5.4783-5.4783-.4379-.8885-2.4301-5.2153-.3912-9.5869.5172-1.109,1.7317-3.7129,4.1086-4.3043,2.6184-.6515,3.5819,1.902,9.1957,3.7174Z"/>
      <path class="cls-8" d="M237.4578,695.4307c-1.0171-2.6257-4.595-3.3247-8.6086-4.1088-1.9585-.3826-2.7396-.3259-11.7391-.1957-5.9727.0864-6.9187.0801-8.0217.9783-2.4792,2.0186-3.0663,6.4189-1.5653,9.587,1.9177,4.0477,6.6843,4.9025,8.8043,5.2826,2.358.4229,4.6372.021,9.1957-.7826,4.4811-.7899,6.7554-1.2122,8.4131-2.5436,2.2601-1.8154,4.6036-5.4244,3.5217-8.2173Z"/>
      <path class="cls-8" d="M534.6535,449.4958c3.0541-6.8275-.4585-15.2207-6.6522-17.6088-7.4579-2.8755-16.7814,3.7356-17.6086,11.7391-.5172,5.0033,2.2689,10.7148,7.4347,12.9131,6.2854,2.6747,14.0067-.7402,16.8262-7.0435Z"/>
      <path class="cls-8" d="M488.61,340.3219c-2.0138-2.3985-6.47-2.7074-8.8696,0-2.0438,2.306-1.8656,5.9761.2609,8.087,1.5771,1.5656,4.0386,2.0871,6,1.3043,3.4077-1.36,5.0054-6.5368,2.6088-9.3913Z"/>
      <path class="cls-2" d="M688.9578,213.8002c-2.7041-.9188-5.9578,1.0071-7.3044,3.6522-1.4624,2.8726-.5479,6.3419,1.5654,8.3478.2576.2444,2.7761,2.5677,5.478,1.8261,3.4514-.9473,4.9033-6.2646,3.6523-9.9131-.2053-.5988-1.0713-3.1247-3.3914-3.913Z"/>
      <path class="cls-2" d="M690.784,152.7567c-1.2925-1.3882-3.5791-1.8132-5.2175-.913-2.4575,1.3502-2.5439,5.1808-1.0435,7.3043.9868,1.3968,3.0627,2.6245,4.6958,1.9565,1.1589-.474,1.6201-1.7085,1.9563-2.6087.3572-.9563,1.418-3.7961-.3911-5.7391Z"/>
      <path class="cls-2" d="M696.8491,269.8871c-.0815-2.8643-3.4822-4.8402-5.6741-5.4783-.8535-.2484-3.3289-.969-5.4783.3913-1.7925,1.1343-2.3005,3.0463-2.739,4.6957-.5024,1.8901-1.0725,4.035.1956,5.8696,1.2002,1.7366,3.4285,2.2996,5.0872,2.1522,1.3955-.124,2.3267-.7455,3.5217-1.5652,2.6057-1.7872,5.1589-3.5383,5.0869-6.0652Z"/>
      <path class="cls-2" d="M666.784,289.9741c-1.7605-1.6828-4.2185-1.3383-4.4348-1.3044-2.5928.4056-4.1836,2.6541-4.6958,4.5652-.4424,1.65-.4355,4.3731,1.4348,5.8696,1.7234,1.3788,4.0081.8995,4.5652.7826.5029-.1055,1.804-.3951,2.8696-1.4348,2.0786-2.0278,2.5898-6.2523.261-8.4782Z"/>
      <path class="cls-2" d="M663.1968,340.5176c.3799-2.8657-2.6643-5.3332-3.3259-5.8696-3.5039-2.8402-10.1882-4.4308-14.2827-.587-2.7922,2.6213-4.2356,7.6344-1.9565,10.9565,2.2664,3.3036,6.9956,3.1592,7.6306,3.1304,1.9827-.0897,3.3423-.7782,5.2825-1.7609,3.1345-1.5875,6.2966-3.189,6.6521-5.8696Z"/>
      <path class="cls-2" d="M626.3491,362.3654c-1.8779-1.6928-4.8699-.9733-6.5217.3913-.2725.2251-1.9143,1.5814-1.8262,3.5217.1196,2.6295,3.3555,4.985,6.1304,4.3043,2.3169-.5683,3.209-2.9825,3.261-3.1304.5576-1.5862.4136-3.7733-1.0435-5.0869Z"/>
      <path class="cls-2" d="M604.3057,429.1479c-2.8433-4.3715-9.3472-5.1425-13.3044-4.6956-10.1948,1.1514-14.7664,11.6597-15.6521,13.6956-.7192,1.6532-4.9353,11.3441-.3914,16.0436,2.97,3.0718,8.2605,2.54,10.1738,2.3478,1.0071-.1012,4.8018-.5721,9-3.5217,7.2957-5.1259,14.6792-16.943,10.1741-23.8696Z"/>
      <path class="cls-2" d="M628.9578,393.2784c-2.7285-2.3353-6.9275-1.8774-9.6521-.2609-3.5754,2.1215-5.832,6.9626-4.1741,10.4348,1.3711,2.8713,4.8713,3.6589,6,3.913,1.0125.2278,4.2349.9529,6.7827-.7826,3.8259-2.6061,4.9529-9.9584,1.0435-13.3043Z"/>
      <path class="cls-2" d="M564.3926,536.3653c2.8503-5.7452-2.2549-12.6661-2.7393-13.3043-2.9629-3.9041-9.6709-8.9977-16.4346-6.2609-6.9714,2.8209-9.5627,12.1647-6.6523,18,1.7021,3.4128,4.9067,4.8647,6.261,5.4783,6.3484,2.8762,16.5042,2.257,19.5652-3.9131Z"/>
      <path class="cls-2" d="M499.0447,566.8871c-2.4537-.8633-5.0635.1359-6.4564,1.7609-2.764,3.2246-1.0649,9.297,1.9564,10.3696,2.073.736,4.4747-.9861,5.2826-1.5652.9813-.7036,2.8179-2.0203,3.1305-4.3044.3408-2.4907-1.2412-5.3208-3.9131-6.2609Z"/>
      <path class="cls-2" d="M411.3926,696.6698c2.5385-1.9165,2.6865-7.6152.2609-11.2174-3.3965-5.0437-11.5244-5.5098-16.4348-2.3479-2.702,1.7399-6.0277,5.6072-4.9565,9.1305,1.1316,3.7222,6.4983,4.8492,7.0435,4.9565,1.1007.2166,1.4348.0996,4.4348,0,7.5917-.252,8.4343.3978,9.6522-.5217Z"/>
      <path class="cls-2" d="M297.6535,707.6262c-1.2383-.2532-9.2684-1.7319-13.5652,3.9131-3.7479,4.9241-2.7233,12.7302,2.0869,16.6957,5.7495,4.7397,13.5033,1.1863,14.3478.7826,3.4813-1.6641,8.9962-5.9905,8.3479-11.7391-.6678-5.9225-7.371-8.8658-11.2174-9.6522Z"/>
      <path class="cls-2" d="M483.3926,612.9307c-1.1248-1.7378-4.4103-1.8479-6-.2609-1.9601,1.9568-.9147,6.0671,1.0435,6.7826,1.4005.5117,3.1072-.7719,3.9131-1.6957.967-1.1086,2.032-3.2988,1.0435-4.826Z"/>
      <path class="cls-2" d="M432.3926,639.6698c-2.0924-.5471-3.7662,1.0315-4.0435,1.3043-1.649,1.6232-2.2112,4.6194-1.0436,5.6086,1.0464.8865,3.1638-.1084,4.0436-.5217.7362-.3459,3.9021-1.8334,3.6521-3.9131-.1515-1.2601-1.4907-2.1858-2.6086-2.4781Z"/>
      <path class="cls-7" d="M677.3491,377.8871c-2.6106-3.2969-8.3564-3.0601-11.4783-.1304-2.325,2.1818-3.665,6.2983-1.6958,9.3912,1.803,2.8317,5.4604,3.3615,7.9565,2.8696.4929-.0972,3.4395-.7275,5.2175-3.5217,1.5596-2.4507,1.9517-6.1438,0-8.6088Z"/>
      <path class="cls-7" d="M714.6533,332.6915c-.4829-4.4971-4.4792-7.816-7.8259-9.1956-6.3298-2.6092-13.2615.5131-17.0217,4.6956-.4861.5408-6.7991,7.7699-3.5217,14.2827,1.9902,3.9551,6.5359,5.6956,9.9783,5.8696,3.0417.1537,5.2991-.9117,7.0435-1.7609,1.3872-.6752,12.2014-5.9398,11.3477-13.8913Z"/>
      <path class="cls-7" d="M721.9578,265.061c-1.5696-.4863-3.5342-.1274-4.5652,1.174-1.7246,2.1768-.1694,6.1474,2.2173,6.913,1.3081.4196,2.5496-.2251,2.8696-.3913,1.4546-.7554,2.8711-2.5413,2.4783-4.5652-.4456-2.295-2.8667-3.0891-3-3.1304Z"/>
      <path class="cls-7" d="M659.2188,447.2784c-.0691-.6801-.7134-6.2013-4.9565-7.826-3.9041-1.4949-8.0054,1.4-9.9131,3.6521-3.5237,4.1595-4.2729,11.684-.261,14.8696,3.2666,2.5938,7.9507.9303,8.3479.7826,4.6707-1.7363,7.2473-6.9052,6.7827-11.4783Z"/>
      <path class="cls-7" d="M605.0882,501.5393c3.3696-5.655,4.8591-7.8362,7.8262-9,6.0286-2.3647,12.2659,1.781,12.5217,1.9565,8.426,5.7798,7.2615,18.7101,7.0435,21.1304-.75,8.3285-5.3171,19.6241-15.2607,23.4783-1.5498.6007-6.97,2.7015-12.522.3914-6.8479-2.8495-10.0393-10.8051-10.1738-16.826-.0718-3.2111,3.4729-9.2279,10.5652-21.1305Z"/>
      <path class="cls-7" d="M564.523,582.6698c-2.7739-2.6598-8.3137-.967-11.2173,1.826-2.1697,2.0872-4.3074,6.1742-2.6089,9.3912,1.2351,2.3392,3.8557,3.0016,4.4348,3.1305,4.5925,1.0226,8.1426-3.1428,8.3479-3.3914,2.4626-2.9825,3.7385-8.3721,1.0435-10.9564Z"/>
      <path class="cls-7" d="M601.8274,561.5393c-.4968-.9591-1.7563-1.2104-2.6086-.7826-1.1272.5659-1.45,2.2738-.6523,3.1304.5728.615,1.6108.6707,2.3479.2609.8518-.4736,1.4182-1.6335.9131-2.6086Z"/>
      <path class="cls-7" d="M521.5447,622.6479c-1.1982-3.0736-4.5909-4.1122-5.2826-4.3043-5.844-1.6228-10.9285,3.8604-11.1521,4.1088-2.6719,2.9685-5.1492,8.5505-2.7391,11.9347,1.7194,2.4143,5.165,2.6412,6.6521,2.7391.8682.0571,4.5068.1976,7.8262-2.3478,2.4381-1.8696,3.3973-4.1864,3.913-5.4783.8068-2.0214,1.7079-4.2791.7826-6.6522Z"/>
      <path class="cls-7" d="M457.1752,659.235c-3.277.7562-7.7734,3.5719-7.2391,6.6521.4176,2.4075,3.8029,4.3689,6.6522,3.9131,2.4651-.3943,3.7976-2.481,5.0869-4.5,1.0309-1.6144,2.3539-3.686,1.5652-5.0869-.9489-1.6854-4.3739-1.3685-6.0652-.9783Z"/>
      <path class="cls-7" d="M482.4143,635.3653c-1.7251-.8108-4.7158,1.4746-4.4022,3.3262.1901,1.1221,1.6145,2.2068,3.1305,2.0543,1.0681-.1074,2.049-.8156,2.4457-1.8588.5372-1.4125-.1482-3.0397-1.174-3.5217Z"/>
      <path class="cls-7" d="M459.0012,686.4958c-1.4559-1.8912-4.6022-1.9442-6.6521-1.0435-1.1676.5131-1.4139,1.087-4.8262,6.2609-2.458,3.7268-3.1919,4.7357-2.7391,5.6086.5223,1.007,2.329,1.2649,3.6522,1.0435,2.7753-.4645,2.7603-2.9268,6.5217-5.3478,2.5323-1.6299,4.1266-1.5356,4.6957-3.1305.4276-1.1984-.0078-2.5542-.6522-3.3912Z"/>
      <path class="cls-7" d="M393.1317,717.8002c-1.8621-1.0715-4.6339-.5215-5.4783,1.3043-.6746,1.4587.1112,3.2351,1.1738,4.174,1.6989,1.5009,4.8618,1.5292,6-.2609,1.0123-1.592.1323-4.1655-1.6956-5.2174Z"/>
      <path class="cls-7" d="M349.7621,733.3871c-1.1053-1.5909-3.5757-1.3441-7.2391-.9781-3.4535.345-5.9301.5924-6.8478,2.4456-.8112,1.6379-.1089,3.9336,1.174,5.1848,1.6367,1.5964,4.0515,1.33,7.2391.9783,1.9473-.2148,2.9209-.3223,3.913-1.076,1.9794-1.5039,2.9944-4.7789,1.7609-6.5544Z"/>
      <path class="cls-8" d="M398.6752,296.7893c.382-1.5967-1.2662-2.9501-1.3696-3.0326-1.3102-1.0449-3.8232-1.5563-5.0869,0-1.0275,1.2654-.7644,3.3257.3914,4.4022.9906.9225,2.3091.817,2.7391.7826,1.0364-.0829,2.9617-.6288,3.326-2.1522Z"/>
      <path class="cls-5" d="M36.0012,557.3653c-6.1078-12.5354-6.6934-22.9854-8.6086-44.8695-1.7592-20.1001-2.2512-22.5505-1.5653-29.2174.9269-9.0087,3.019-16.1368,5.4783-23.2174,7.361-21.1929,14.436-31.666,21.6522-46.5652,14.9723-30.9133,17.5311-53.9968,19.174-53.6087,1.703.4023-2.3394,24.9018-6.9131,44.6087-2.6376,11.3645-4.8818,21.0339-9.6522,33.6521-6.9255,18.3187-9.8546,18.1978-13.5652,31.3044-3.3632,11.8799-3.5646,21.1906-3.913,37.3043-.1873,8.6595-.4448,20.5702,1.3043,36.2609,1.2871,11.5463,3.1886,20.9033,1.5652,21.3914-1.3298.3998-4.1613-5.4114-4.9565-7.0436Z"/>
      <path class="cls-5" d="M213.0013,139.1915c-20.2703,11.5043-33.6877,24.3732-36.3914,27-17.9768,17.4659-35.3335,34.329-53.3479,62.4783-15.6633,24.4755-23.874,45.061-23.739,45.1304.1145.059,5.8701-14.8484,18.7825-31.826,3.9919-5.2488,10.5527-12.5209,23.6741-27.0652,5.8501-6.4846,10.45-11.4524,12.7173-13.8913.0002,0,9.8445-10.5893,18.7827-19.7609,24.8757-25.5253,50.4421-44.5562,49.1086-46.3696-.5779-.786-5.834,2.1744-9.5869,4.3043Z"/>
      <path class="cls-5" d="M265.8279,103.4926c2.0867-1.652,5.9223-2.5251,8.0953-3.5345,6.3196-2.9355,12.4667-6.2522,18.3303-10.0201,22.2972-14.3278,40.1626-34.9188,63.0216-48.332,21.4187-12.568,46.3769-18.2414,71.1869-19.3279s49.6083,2.2348,74.0448,6.6593c2.1602.3911,4.6269,1.0159,5.574,2.9965,1.205,2.52-1.1253,5.569-3.8438,6.2109s-5.5244-.3427-8.1663-1.2498c-41.3849-14.2098-88.7733-11.6871-127.2036,9.2351-34.0363,18.5301-60.8958,50.5851-98.153,61.2495-2.3007.6586-5.9215-.3631-3.6413-3.1557.2124-.2602.4672-.5031.7553-.7312Z"/>
      <g>
        <path class="cls-1" d="M654.202,184.6465c-.6055-1.2518-1.2363-2.4857-1.8812-3.6983-16.7026-31.401-43.6947-56.6727-74.5321-74.394-30.8376-17.7213-65.4357-28.1962-100.5036-34.1323-10.1211-1.7132-20.3025.0766-30.5535-.4618-27.5497-1.4469-35.4908,27.5302-14.8676,37.2875,6.33,2.9948,13.7061,2.2373,20.6781,1.5824,34.3971-3.2308,70.1208-2.1701,101.9742,11.2079,31.8532,13.378,59.2901,40.9028,65.2652,74.9307,2.1217,12.0831,3.2979,27.1926,14.6387,31.8706,10.3504,4.2693,22.3978-4.8967,24.9318-15.8024,2.2233-9.5678-.8195-19.4377-5.15-28.3904Z"/>
        <path class="cls-1" d="M529.1728,148.9179c-14.4241-18.7701-64.1143-27.7981-64.1144-27.7979-45.6944-8.3016-68.9806-12.3886-90.4688-9.2452-34.9165,5.1074-44.5041,17.5965-47.7489,23.2403-1.2602,2.192-5.4271,9.4401-2.6008,14.9691,3.974,7.7731,18.9264,6.5865,20.7591,6.4205,11.8375-1.0706,16.9627-7.2809,26.6935-12.6218,17.4903-9.6005,35.3138-8.4093,51.5871-7.3215,10.149.6783,27.9348,1.8669,46.4028,12.1515,5.8923,3.2814,15.1754,9.3382,33.4035,19.1605,9.2245,4.9708,15.1591,7.8985,20.8145,5.4549,5.2797-2.2819,9.1312-8.7343,8.9867-14.7977-.1174-4.9323-2.8531-8.4919-3.7142-9.6128Z"/>
        <path class="cls-1" d="M624.9707,281.0891c.1884-.95.2953-1.9105.3136-2.8623.136-7.062-3.2059-13.66-6.3157-20.0019-11.9281-24.3256-21.9643-50.2814-40.4028-70.1318-3.8574-4.1528-8.7482-8.2626-14.4046-7.9013-13.6025.8689-15.357,19.356-9.2866,28.2904,3.7958,5.5868,9.4862,9.5386,14.8441,13.6512,12.634,9.6976,24.6837,22.0863,27.3295,37.7917,1.1298,6.7067.4636,13.6793,2.1996,20.2552s7.0345,13.0622,13.8326,12.8572c6.1085-.1842,10.6807-5.8503,11.8903-11.9484Z"/>
        <path class="cls-1" d="M617.7553,387.4145c.3426-.9301.6223-1.8831.8384-2.8455,1.4253-6.3544.2668-12.9808-1.1255-19.3428-8.567-39.1489-26.089-76.3748-51.2447-107.5708s-57.9439-56.2782-94.8595-71.874c-4.0842-1.7255-8.4227-3.367-12.831-2.889-13.104,1.4205-11.5083,18.6731-4.458,25.7492,4.5033,4.5201,10.5419,7.1011,16.3956,9.6404,30.2594,13.1264,60.8755,28.7992,80.9599,54.9639,13.0511,17.0024,20.7954,37.3537,29.7742,56.8165,5.0917,11.0378,10.7767,22.7279,9.0764,34.7643-1.0316,7.3014-4.7703,14.46-3.3307,21.6917,1.0001,5.022,4.6371,9.4411,9.3727,11.3883,4.7355,1.9474,10.4293,1.3653,14.6724-1.5005,3.163-2.1356,5.4332-5.3927,6.7598-8.9917Z"/>
        <path class="cls-1" d="M433.3529,177.6772c-4.382-10.9198-26.6033-11.2342-54.3367-11.6262-14.3678-.2033-24.2476,1.2739-44.0072,4.2282-5.7073.8531-15.6409,2.4619-25.6428,9.0683-9.1359,6.0344-10.3064,10.94-10.5817,12.4069-.9201,4.9056.7771,10.8224,4.8717,14.0432,7.0152,5.5183,17.943.6648,22.1667-1.2111,9.7579-4.3337,9.2696-8.8117,18.2592-13.7954,9.8992-5.488,19.7855-5.2112,28.7173-4.9608,9.7877.2739,19.7075.5522,29.4048,6.5747,5.1032,3.1694,8.4647,6.8858,14.8119,7.1151,1.3895.0502,6.8686.0759,11.2298-3.6634,5.0912-4.3654,7.3051-12.7019,5.107-18.1794Z"/>
        <path class="cls-1" d="M487.0556,252.8448c-17.7746-12.9197-31.5507-20.0844-34.7059-21.7055-11.7381-6.0303-38.0394-18.3309-74.4597-23.6102-3.1559-.4577-36.9845-5.087-59.2369,5.1169-5.4319,2.4908-10.4427,5.9887-13.2694,11.7275-.703,1.4269-4.6254,9.3903-.6728,16.9109,3.739,7.1139,11.8025,8.6542,13.517,8.9818,4.4552.8511,8.081.0389,19.789-4.0454,10.2476-3.5746,15.5813-5.7818,18.5804-6.8584,11.4137-4.0961,20.9829-3.2885,35.7755-2.0394,25.5648,2.1584,44.8349,9.947,51.5235,12.8343,8.808,3.8021,28.4019,13.1784,48.2019,31.8572,15.0898,14.2352,23.1907,27.167,31.9174,41.0979,8.9035,14.213,15.7914,25.4308,16.5894,37.5744.4184,6.372,1.4441,12.7239,1.3575,19.1092-.0681,5.0003-.4502,8.0234,1.2206,11.9052.4151.9646,2.9205,6.5432,8.9192,9.3466,6.5621,3.0669,14.4578,1.4831,18.3911-1.4604,12.324-9.2236.974-43.1997-.8992-48.8074-16.739-50.1083-58.6071-80.5403-82.5385-97.9351Z"/>
        <path class="cls-1" d="M507.4171,367.1219c1.9634-8.6847-2.876-17.2455-14.8153-32.9208-12.711-16.6883-19.0662-25.0323-27.7179-32.9189-25.6292-23.3634-51.515-32.4803-64.6704-36.962-24.5561-8.3654-38.2361-7.679-48.3364-5.094-6.1264,1.5682-16.4342,4.3557-18.7703,12.2559-1.6665,5.6349,1.2541,12.0758,5.1711,15.6988,5.1396,4.7539,11.9436,4.6088,21.163,4.4119,8.5439-.1823,11.2761-1.6444,19.432-2.5816,1.0495-.1206,13.5822-1.4889,25.6127.6528,18.814,3.3494,31.4151,14.3959,38.7441,20.8203,9.8676,8.65,18.4359,16.1609,22.2762,28.6175.9876,3.2027,2.2396,8.6048,6.0822,21.5966,1.5066,5.0931,2.9308,9.7296,6.6906,14.6465,2.5467,3.3309,5.3846,7.0419,10.1181,7.8088,6.1548.9969,11.2162-3.6808,12.7573-5.1053.193-.1788,4.8238-4.5612,6.2629-10.9268Z"/>
        <path class="cls-1" d="M641.6046,251.8338c-1.4713-3.2703-5.3464-5.3035-9.0318-4.2044-3.5068,1.0458-5.8825,4.6415-5.2943,8.0974.7295,4.287,5.5616,5.6663,5.9172,5.7616.6322.1695,4.0584,1.0883,6.696-1.09,2.4808-2.0487,2.9708-5.7689,1.7129-8.5646Z"/>
        <path class="cls-1" d="M559.199,140.1057c-.9968-1.2451-2.9546-1.6393-4.4538-1.0797-2.2402.8362-3.1236,3.6776-2.5643,5.8034.4012,1.5245,1.7127,3.3206,3.644,3.509.1018.0099,1.8219.1504,2.9692-1.0797.745-.7988.825-1.7213.9448-3.1041.1597-1.8415.2637-3.045-.5398-4.0488Z"/>
        <path class="cls-1" d="M399.809,82.3013c-1.7682-3.5591-6.0125-5.1646-9.4474-5.1286-5.1334.0539-8.2275,3.7717-8.9074,4.5887-.8797,1.0571-5.1948,6.5919-2.4294,12.1466,1.9209,3.8582,6.3626,5.928,10.2572,5.3984,2.9203-.3971,4.7864-2.1543,5.9383-3.2391.4143-.3901,7.7215-7.4601,4.5887-13.7661Z"/>
        <path class="cls-1" d="M325.9074,157.7334c-1.849-2.4356-5.1771-2.3534-5.8067-2.3227-2.4442.1195-5.4039,1.4773-6.6197,4.4131-1.51,3.646.8337,6.9157,1.0452,7.2003,1.7298,2.3278,5.1277,4.0347,7.8971,2.9034,2.0506-.8377,2.8969-2.8801,3.4841-4.297.5476-1.3216,2.1169-5.1086,0-7.8972Z"/>
        <path class="cls-1" d="M453.3888,157.9881c-1.2821-2.2512-4.032-3.7209-6.8831-3.2391-2.8976.4897-4.9619,2.8365-5.4659,5.466-.5181,2.7027.6299,5.6109,3.0367,7.0855,1.839,1.1267,4.179,1.273,6.0732.4049,3.3757-1.5471,5.2094-6.2578,3.2391-9.7173Z"/>
        <path class="cls-1" d="M532.8814,394.6439c-4.0524-6.8159-11.8371-7.4699-13.4962-7.5578-1.429-.0758-9.5102-.5042-14.036,5.9383-3.1702,4.5127-3.1101,10.2813-1.0798,14.5759,4.2197,8.9255,15.6145,8.6605,16.1955,8.6375,1.7249-.0682,8.5768-.3391,12.4165-5.9383,3.3911-4.9449,2.5711-11.3311,0-15.6556Z"/>
        <path class="cls-1" d="M621.0912,311.7383c-.6828-3.5922-4.7963-5.7885-8.2675-5.8017-.5369-.002-5.1897.0562-7.1072,3.7711-1.5445,2.9922-.3187,6.4275,1.4504,8.4125.376.4219,2.3053,2.4934,5.2216,2.6108,4.5425.1828,9.5657-4.4525,8.7027-8.9927Z"/>
      </g>
      <g>
        <path class="cls-1" d="M468.4307,472.1344c7.5892,40.5121-1.9385,72.6967-4.0164,79.3389-8.3078,26.6805-22.3335,43.8987-50.3832,78.3449-24.6254,30.2337-36.9457,45.3627-59.1956,59.0147-26.4132,16.2036-51.3022,21.4238-68.4313,25.0101-20.8371,4.371-40.1181,8.4144-65.3947,4.9693-8.8484-1.2099-48.5006-7.4276-82.2057-38.4726-15.3467-14.1253-24.4712-28.8137-37.635-49.9927-5.7117-9.1974-13.9575-22.5724-21.7213-40.5135-9.5498-22.0662-22.7409-52.5614-20.4075-89.7433,1.2091-19.1732,6.1952-34.5718,12.4241-48.5826,3.2252-7.2495,6.7839-14.1415,10.3216-20.9881,11.8188-22.8584,30.47-58.9274,70.4719-83.6177,40.2737-24.8516,80.1349-24.5531,111.9707-24.3129,29.8978.221,71.2143.531,114.5646,25.9001,6.3793,3.7416,39.9909,24.0826,64.8749,62.3846,10.9848,16.8939,20.2596,37.2699,24.7629,61.2607Z"/>
        <path class="cls-3" d="M468.4307,472.1344c7.5894,40.5122-1.9385,72.6967-4.0164,79.3389-8.3079,26.6805-22.3335,43.8987-50.3833,78.345-24.6252,30.2338-36.9456,45.3627-59.1956,59.0146-26.4131,16.2037-51.3022,21.4238-68.4312,25.0101-20.8372,4.371-40.1182,8.4144-65.3948,4.9694-8.8484-1.21-48.5005-7.4276-82.2056-38.4727-15.3469-14.1252-24.4712-28.8136-37.635-49.9927-5.7117-9.1974-13.9575-22.5724-21.7214-40.5134-9.5496-22.0662-22.7407-52.5614-20.4075-89.7433,1.2092-19.1732,6.1953-34.5719,12.4241-48.5826.7136,15.4913,2.9861,34.4406,9.0593,55.8596,6.2888,22.1295,13.6548,48.0878,35.5649,71.5631,11.3745,12.1838,15.0505,11.2528,58.4443,44.1746,34.6826,26.3098,32.0784,26.7115,41.1868,31.0986,2.1829,1.0509,49.3726,22.8949,94.2996,2.743,13.1389-5.8922,10.6663-8.4662,55.5684-46.5001,37.251-31.5631,36.9509-28.0903,46.793-38.9869,7.5476-8.3619,36.4619-42.2183,41.5171-89.1088,3.3108-30.7017-4.8596-55.3696-10.2297-71.4771,10.9849,16.8939,20.2598,37.2699,24.7629,61.2606Z"/>
        <path class="cls-4" d="M373.453,356.5157c-6.1013-6.4525-17.5066-18.5143-50.0217-21.3745-22.2334-1.9557-26.98-8.1038-40.3044-6.9299-10.3188.9091-24.4805,6.1925-45.896,7.3285-11.283.5985-18.7578,1.6711-23.2988,7.4799-3.4551,4.4194-5.4551,11.8919-2.5427,17.2019,3.3538,6.1137,11.5022,6.2294,39.449,8.9465,19.6101,1.9066,29.5305,2.8875,35.1831,4.2387,14.0645,3.3622,14.8667,6.1422,37.2129,13.9239,28.7507,10.0119,35.6738,8.2832,38.5688,7.3547,9.2322-2.9609,15.5745-5.0765,16.6064-16.5175.9375-10.3956-3.4031-20.0093-4.9565-21.6522Z"/>
        <path class="cls-4" d="M168.8454,350.2217c-15.9208,9.4008-26.0427,22.366-26.0428,22.3661-23.2963,29.8404-21.0483,22.7497-30.6385,37.379,0,.0001-12.6155,19.2441-18.9959,44.426-1.0936,4.3161-2.5123,10.8808.3064,12.8682,3.1339,2.2097,9.8142-2.4321,10.7236-3.0639,9.6417-6.6995,12.5211-17.9509,14.4001-24.2044,4.7034-15.653,12.2781-40.8628,30.3321-53.9239,1.2424-.8988,9.7134-7.1354,26.6556-19.6086,2.5534-1.8799,7.2631-5.4489,7.6596-10.7235.2108-2.8032-.7659-6.4965-3.3703-7.9661-3.2107-1.8116-7.6533.4573-11.0298,2.4511Z"/>
      </g>
      <path class="cls-3" d="M417.9953,457.0254c-.1438-9.2688-.3445-22.1799-9.3231-32.2073-7.5516-8.4335-17.3985-10.4555-28.3934-12.7134-10.6761-2.1923-21.8584-4.4886-33.9022.4237-20.4494,8.3407-26.8184,30.7069-27.9696,34.75-3.8497,13.5196-5.0467,36.6063,8.4757,48.3109,5.6223,4.8665,12.4208,6.5811,21.6128,8.8994,6.3097,1.5913,14.9522,3.771,25.4265,2.5426,5.5638-.6525,28.3805-4.2295,38.9878-23.3079,5.3507-9.6239,5.2066-18.897,5.0855-26.6981Z"/>
      <path class="cls-3" d="M259.3894,394.9567c-6.8943-16.2213-38.3867-16.1943-40.1738-16.1739-21.6033.2467-36.2078,11.8754-40.1741,15.1304-4.2773,3.5103-25.6462,21.0469-21.3911,39.1304,1.5229,6.4728,5.6946,10.3193,11.478,15.6522,4.1809,3.8553,19.4302,17.4938,43.3044,18.7826,2.5994.1404,37.2034,1.6464,45.3914-15.6522,3.6143-7.6355-1.614-11.1268-.5217-31.3043.9106-16.823,4.8035-19.1732,2.0869-25.5652Z"/>
      <path class="cls-3" d="M291.9981,588.7828c-5.7703-15.8904-20.4397-21.8258-22.6956-22.6957-21.7668-8.3933-41.0332,6.9517-43.0435,8.6088-1.8386,1.5157-19.3684,16.3345-15.6523,31.3043,1.8291,7.3682,8.2629,11.9556,21.1306,21.1304,7.3008,5.2056,10.9512,7.8083,16.4348,9.3914,2.4236.6997,18.6592,5.1074,32.0869-4.6957,13.3528-9.7484,17.0186-28.5042,11.739-43.0435Z"/>
      <path class="cls-3" d="M384.7373,552.7828c-1.6853-10.1455-16.7729-12.7783-17.6089-12.9131-2.1611-.3483-9.4001-1.4005-16.0435,3.1305-1.3999.9548-8.1252,5.5419-8.2173,12.9131-.0574,4.5946,2.4917,7.9253,3.9131,9.7826,1.3306,1.7385,5.0349,5.9861,11.3477,7.4347,8.2595,1.8953,14.7793-2.4248,16.4348-3.5217,1.1011-.7296,11.6831-7.7413,10.1741-16.826Z"/>
      <path class="cls-3" d="M236.8242,540.2611c1.5337-3.2666,6.054-13.2776,3.1304-25.826-2.8086-12.0548-10.7288-18.9045-12.9131-20.7391-9.4192-7.9109-20.2493-9.1654-28.9565-10.174-6.3296-.7332-12.4414-.4363-13.3042-.3914-4.9966.2604-8.3857.9001-10.1741,1.174-15.1885,2.3252-20.6912-5.5533-36-3.5217-3.0278.4019-10.657,1.5073-18,7.0435-2.0688,1.5597-6.4785,5.2532-9.7825,11.3479-1.9546,3.6057-2.7644,6.8877-4.3044,13.3043-1.3904,5.7939-2.4272,10.1139-2.739,14.4783-.2163,3.0271-.7222,15.0125,6.2607,26.2174,10.6997,17.1689,31.0698,19.8101,35.2175,20.3478,8.5383,1.1071,15.5522-.2042,20.739-1.174,12.0923-2.2606,13.748-5.4438,26.6086-8.2174,13.782-2.9723,14.6262.0911,22.6958-3.1304,14.2126-5.6738,20.5974-18.7706,21.5217-20.7391Z"/>
    </g>
  </g>
</svg>