<?xml version="1.0" encoding="UTF-8"?>
<svg id="Capa_2" xmlns="http://www.w3.org/2000/svg" viewBox="0 0 450.3718 505.2255">
  <defs>
    <style>
      .cls-1 {
        fill: #ffdaa9;
      }

      .cls-2 {
        fill: #f9bd5d;
      }

      .cls-3 {
        fill: #ffcb80;
      }

      .cls-4 {
        fill: #db963b;
      }

      .cls-5 {
        fill: #eaa94b;
      }

      .cls-6 {
        fill: #c17e2d;
      }

      .cls-7 {
        fill: #d1831c;
      }

      .cls-8 {
        fill: #ffb357;
      }

      .cls-9 {
        fill: #e09528;
      }
    </style>
  </defs>
  <g id="Capa_1-2" data-name="Capa_1">
    <g>
      <g>
        <g>
          <g>
            <path class="cls-2" d="M442.5437,467.0095c-.3004,2.3353-.7398,5.5491-2.6011,9.3526-1.0866,2.208-4.6704,9.2369-13.017,12.9593-6.8092,3.052-13.1675,2.2774-19.5142,1.5145-17.1905-2.081-30.4159-21.9882-48.67-15.8265-12.7512,4.3005-19.5256,20.4852-32.8203,22.4506-8.9016,1.3178-17.3061-4.3699-26.2424-5.3064-5.4567-.5665-11.0057.6359-16.4045-.2774-6.1386-1.0519-11.4565-4.7167-16.9362-7.6646-12.1964-6.5549-26.4851-9.8265-40.1035-7.2831-16.0115,3.0057-20.1732,13.4102-36.358,15.202-10.8554,1.2139-21.8726-2.497-27.7106-2.4738-9.9652.0461-21.0056,3.6993-29.2135-1.9307-4.6242-3.1791-7.1329-8.682-11.3987-12.3352-5.3294-4.5895-12.7745-5.7803-19.8032-5.8958-18.1617-.289-35.6527,5.3178-53.6294,6.9248-21.4449,1.9075-23.3522-3.6416-34.9706-19.6645-2.0925-2.8786-6.9479-10.6935-5.2022-20.5084.2659-1.4912,1.2602-6.3004,5.2022-11.4565,6.6473-8.7051,15.1674-9.8726,24.0691-14.4738,0,0,17.2251-8.9247,26.0228-27.7453,5.1576-11.0371,3.4029-19.8258,1.6597-27.0882-1.4076-5.8643-4.8337-11.0526-9.6981-14.6177-.3185-.2334-.6295-.4623-.9327-.6865-1.1445-.8439-2.3005-1.6878-3.4566-2.5433-5.3527-3.9769-10.5895-8.2428-13.3641-14.2195-2.8091-6.0461-2.6821-12.9709-3.6762-19.5603-3.3527-22.3003-19.8726-41.7915-19.4912-64.3577.289-16.8898,10.1502-32.4965,10.5549-49.3866.1733-7.4565-1.5145-15.0287-.0231-22.3349,1.4451-7.1213,5.7687-13.3178,10.5084-18.832,4.2429-4.9479,8.9364-9.5953,12.3121-15.1907,8.2657-13.6992,7.9419-31.9185,18.543-43.9185,6.0116-6.7975,14.5315-10.3813,21.5142-15.9882,6.971-5.5838,9.8496-13.2831,15.364-20.0575,1.1908-1.4682,6.971-8.4393,16.3351-15.4218,4.1039-3.052,8.6588-6.4277,15.179-9.1906,12.3813-5.2485,15.3293-1.2485,26.439-5.8381,10.3352-4.2774,9.7225-8.5085,21.1326-12.6241,8.2312-2.9711,15.156-3.1329,17.0634-3.1445,3.422-.0346,7.4566.3122,23.364,4.7977,15.6413,4.4161,13.2715,4.5317,17.2484,5.156,13.7801,2.1965,16.8091-3.1561,32.2075-1.8729,3.0059.2544,11.3872,1.1792,20.9363,5.2601,8.8668,3.7918,9.4449,6.312,20.7511,12.6472,11.6647,6.5317,12.0461,4.3814,22.4622,10.3929,5.734,3.3179,14.416,8.4276,22.277,17.7917,6.0924,7.2831,4.0232,7.9767,9.4682,14.5547,7.4219,8.9478,21.0475,10.5426,34.8735,24.6295,6.7704,6.8982,10.2589,22.8613,14.9061,31.9016,4.4856,8.7513,8.844,7.4219,14.8786,17.6067,1.8727,3.1791,5.6761,9.734,6.3004,18.416.7976,11.1327-4.5085,13.2715-4.2658,23.8608.1156,5.0058,1.3756,7.8034,2.8901,10.4392,1.3641,2.37,2.9249,4.6126,4.0346,8.2427.4046,1.3526.7513,2.8786.9942,4.6705.9942,7.0982-.8786,14.1269-4.8787,26.4042-.5317,1.6185-1.0982,3.341-1.6994,5.1675-2.1271,6.474-5.2947,15.1444-9.8265,25.202-9.8612,13.4911-11.1442,23.1905-10.2772,29.7453,1.5489,11.8264,7.4449,23.387-10.6474,29.1094-7.4219,2.3584-16.2425,20.9478-17.3638,28.6471-1.9077,13.2022,2.3583,26.3581,7.7108,38.9128,3.942,9.2254,17.9767,13.5259,32.6817,23.7223,9.9189,6.8902,9.7917,18.4044,11.3871,23.2251,3.711,11.26,3.341,17.5605,2.9247,20.809Z"/>
            <path class="cls-1" d="M199.6017,7.5683c3.3521,0,7.6686.4856,22.968,4.7998,15.6414,4.4161,13.2715,4.5317,17.2484,5.156,2.3962.3819,4.4673.5356,6.335.5356,7.6959,0,11.9379-2.6096,21.2284-2.6099,1.4205,0,2.9572.0609,4.6442.2015,3.0059.2543,11.3872,1.1792,20.9363,5.2601,8.8668,3.7918,9.4448,6.312,20.7511,12.6472,11.6647,6.5317,12.0461,4.3814,22.4622,10.3929,5.734,3.3178,14.416,8.4276,22.2771,17.7917,6.0924,7.2832,4.0232,7.9767,9.4681,14.5547,7.4219,8.9478,21.0475,10.5426,34.8735,24.6295,6.7704,6.8982,10.2589,22.8613,14.9061,31.9016,4.4856,8.7513,8.844,7.4219,14.8785,17.6067,1.8727,3.1792,5.6761,9.7341,6.3004,18.4161.7976,11.1326-4.5085,13.2714-4.2657,23.8608.1156,5.0058,1.3756,7.8033,2.8901,10.4392,1.364,2.37,2.9248,4.6127,4.0345,8.2426.4047,1.3527.7513,2.8786.9943,4.6705.9941,7.0982-.8787,14.127-4.8787,26.4043-.5317,1.6185-1.0983,3.341-1.6993,5.1676-2.1272,6.474-5.2947,15.1443-9.8265,25.202-9.8611,13.4911-11.1442,23.1905-10.2771,29.7453,1.5488,11.8264,7.4448,23.3869-10.6475,29.1093-7.4219,2.3584-16.2424,20.9478-17.3638,28.6471-1.9077,13.2022,2.3583,26.3582,7.7108,38.9128,3.942,9.2255,17.9767,13.5259,32.6816,23.7223,9.9189,6.8901,9.7917,18.4044,11.3871,23.225,3.7111,11.26,3.3411,17.5605,2.9247,20.809-.3004,2.3353-.7397,5.5492-2.6011,9.3526-1.0867,2.2079-4.6704,9.2368-13.0171,12.9594-3.7524,1.6819-7.3684,2.2017-10.9205,2.2017-2.8934,0-5.7444-.3448-8.5936-.6873-14.9022-1.804-26.8257-17.0041-41.6274-17.0049-2.2728-.0001-4.6125.3582-7.0425,1.1784-12.7512,4.3005-19.5256,20.4852-32.8203,22.4506-.916.1356-1.8278.1971-2.7344.1971-7.9037,0-15.4913-4.6634-23.5081-5.5035-1.131-.1174-2.2667-.1588-3.4036-.1589-2.7208,0-5.4517.2371-8.1636.2371-1.6216,0-3.2358-.0847-4.8373-.3557-6.1385-1.0519-11.4565-4.7167-16.9363-7.6647-9.3878-5.0453-20.0173-8.1456-30.6245-8.146-3.1735-.0001-6.3428.2772-9.4789.8629-16.0115,3.0057-20.1732,13.4103-36.358,15.202-1.5265.1707-3.0565.244-4.5746.244-9.2429,0-18.0547-2.7175-23.0813-2.7179-.0187,0-.0361,0-.0547.0001-5.6401.0261-11.6246,1.2076-17.2451,1.2076-4.3101,0-8.406-.6948-11.9684-3.1383-4.6243-3.1792-7.1329-8.6821-11.3987-12.3352-5.3293-4.5896-12.7744-5.7802-19.8032-5.8959-.4545-.0073-.9092-.0108-1.3628-.0108-17.6753-.0001-34.7397,5.3688-52.2666,6.9355-2.6753.238-5.0469.3599-7.1709.3599-14.9012,0-17.6307-6.0005-27.7997-20.0245-2.0925-2.8785-6.948-10.6934-5.2023-20.5083.2659-1.4911,1.2601-6.3005,5.2023-11.4565,6.6472-8.7052,15.1674-9.8727,24.0691-14.4739,0,0,17.2251-8.9247,26.0228-27.7453,5.1575-11.0372,3.4028-19.8259,1.6597-27.0883-1.4076-5.8643-4.8336-11.0526-9.698-14.6177-.3185-.2334-.6295-.4622-.9327-.6865-1.1444-.8439-2.3005-1.6878-3.4565-2.5432-5.3527-3.9769-10.5895-8.2428-13.364-14.2196-2.8092-6.0461-2.6821-12.9708-3.6763-19.5603-3.3527-22.3003-19.8726-41.7915-19.4912-64.3577.2891-16.8898,10.1503-32.4966,10.5549-49.3867.1733-7.4565-1.5144-15.0287-.0231-22.3349,1.4451-7.1213,5.7687-13.3178,10.5083-18.832,4.2429-4.9479,8.9364-9.5953,12.3121-15.1908,8.2657-13.6992,7.942-31.9185,18.5431-43.9184,6.0115-6.7975,14.5315-10.3814,21.5142-15.9883,6.9709-5.5838,9.8496-13.283,15.364-20.0575,1.1907-1.4682,6.9709-8.4392,16.335-15.4217,4.104-3.052,8.6589-6.4277,15.1791-9.1907,12.3812-5.2485,15.3292-1.2485,26.439-5.8381,10.3352-4.2774,9.7224-8.5085,21.1326-12.6241,8.2312-2.9711,15.156-3.1329,17.0634-3.1445.1307-.0013.2627-.0021.3959-.0021M199.6017,0l-.473.0025c-3.627.0219-11.036.5184-19.5558,3.5937-7.2517,2.6156-10.644,5.4117-13.637,7.8786-2.2256,1.8343-3.9835,3.2832-7.8203,4.8712-4.1932,1.7323-6.7268,1.889-9.9344,2.0874-3.9945.2472-8.9658.5547-16.564,3.7757-7.3911,3.1321-12.5757,6.9877-16.7417,10.0857-9.4332,7.0342-15.5182,14.0412-17.6969,16.7277-2.3214,2.852-4.1478,5.7199-5.9142,8.4934-2.6321,4.1332-4.9053,7.7027-8.303,10.4243-2.3684,1.9017-5.0253,3.596-7.838,5.3897-5.0187,3.2005-10.2083,6.51-14.614,11.4917-7.0955,8.0318-9.892,17.7575-12.5963,27.1631-1.8812,6.5425-3.6581,12.7223-6.7576,17.8593-2.1686,3.5944-5.12,6.8967-8.2445,10.3927-1.0935,1.2235-2.2242,2.4886-3.3328,3.7813-4.6683,5.4313-10.2773,12.8758-12.1802,22.2537-1.1439,5.6039-.7791,10.9206-.4264,16.0622.1832,2.6707.3563,5.1933.3003,7.6018-.1754,7.3227-2.4851,14.6751-4.9304,22.4592-2.6849,8.5471-5.4613,17.3854-5.6255,26.9739-.241,14.2571,5.2595,26.9048,10.5789,39.1361,3.9415,9.0633,7.6646,17.6239,8.9954,26.4763.2484,1.6463.4232,3.353.6083,5.1598.5249,5.126,1.1199,10.9359,3.6886,16.4644,3.5508,7.649,9.9731,12.8403,15.714,17.1057.6829.5053,1.354.9981,2.0229,1.4893l1.4554,1.0702c.303.2242.623.4596.9508.6997,3.4,2.4919,5.8195,6.1427,6.8125,10.2796,1.704,7.0995,2.7932,13.6641-1.1571,22.1178-7.6194,16.2999-22.4984,24.152-22.6478,24.2294-2.2227,1.1489-4.4614,2.0731-6.8317,3.0516-6.4515,2.6633-13.7637,5.682-19.771,13.549-3.3737,4.4126-5.7322,9.6419-6.6378,14.721-2.1514,12.096,3.1687,21.6617,6.5315,26.2872.9419,1.2992,1.824,2.5353,2.6569,3.7025,8.3534,11.7064,13.8719,19.44,31.2644,19.44,2.329,0,4.894-.1275,7.8416-.3896,7.616-.6808,15.0985-2.038,22.3346-3.3506,10.0798-1.8284,19.6007-3.5552,29.2612-3.5552.4137,0,.828.0032,1.2422.0098,7.0419.1158,11.9448,1.445,14.9852,4.0634,1.3455,1.1522,2.6306,2.8095,3.9912,4.564,2.1277,2.7438,4.5393,5.8535,8.0585,8.273,4.4482,3.0511,9.6116,4.47,16.2561,4.47,3.2284,0,6.4077-.327,9.4823-.6434,2.7659-.2845,5.3784-.5532,7.7979-.5644,1.4995,0,4.1284.4572,6.9117.9412,4.5514.7916,10.2158,1.7766,16.1892,1.7766,1.8672,0,3.6892-.0978,5.4155-.2908,10.1671-1.1256,16.5061-5.1403,22.0988-8.6824,4.6019-2.9145,8.5762-5.4316,14.8147-6.6027,2.6025-.4861,5.324-.7332,8.0822-.733,8.8737.0003,18.2245,2.5053,27.042,7.2442,1.0587.5695,2.1224,1.1745,3.2488,1.815,4.6036,2.618,9.8217,5.5853,15.9921,6.6427,1.8779.3177,3.8162.4644,6.1155.4644,1.5194,0,2.9856-.0638,4.4037-.1256,1.3179-.0573,2.5627-.1115,3.7598-.1115.9973,0,1.8551.0388,2.6223.1185,2.8251.296,5.8915,1.3058,9.1379,2.375,4.5103,1.4854,9.6223,3.1689,15.1516,3.1689,1.3005,0,2.5934-.0938,3.8425-.2787,9.579-1.4161,16.1333-7.847,21.916-13.521,4.0933-4.0162,7.9596-7.8098,12.2147-9.2449,1.5588-.5262,3.0706-.7817,4.6237-.7816,5.6965.0004,11.6519,3.5923,17.9568,7.3951,6.611,3.9875,14.104,8.507,22.7614,9.555l.0601.0072c3.0061.3613,6.1145.7349,9.4431.7349,5.1321,0,9.7168-.9368,14.0161-2.8638,5.0073-2.2333,11.9843-6.9184,16.7119-16.5234,2.453-5.0128,2.994-9.2172,3.3171-11.7291.3268-2.5496,1.3201-10.2982-3.2432-24.1437-.1971-.5958-.4392-1.8378-.6733-3.0389-1.2307-6.3144-3.2905-16.8828-13.584-24.0331-5.3156-3.6857-10.4907-6.6108-15.0566-9.1915-7.1873-4.0622-13.3943-7.5704-14.9832-11.2888-4.5106-10.5798-8.8932-22.9999-7.1799-34.8565.9611-6.5987,8.7111-20.8732,12.2284-22.5366,9.3341-2.9662,14.9235-7.8229,17.076-14.8427,1.7898-5.8369.6868-11.6143-.38-17.2015-.3489-1.8271-.6783-3.5529-.8995-5.2408-.9028-6.8263,2.0863-14.9976,8.8832-24.2964l.4657-.6372.3243-.7197c3.8973-8.6495,7.301-17.3799,10.1165-25.9486l1.6993-5.1678c3.9563-12.1431,6.4509-20.7679,5.1836-29.8163-.2736-2.0187-.6802-3.9235-1.2385-5.7899-1.1953-3.9102-2.7778-6.5664-4.0493-8.7007-.229-.3842-.4557-.7643-.6768-1.1482-1.0513-1.8298-1.8036-3.3946-1.8831-6.8385-.0833-3.6301.6748-5.6824,1.724-8.5229,1.3618-3.6869,3.0566-8.2753,2.5244-15.7041-.7598-10.5651-5.3628-18.3795-7.3284-21.7165-3.6953-6.2368-7.0231-9.0523-9.6969-11.3147-2.1384-1.8094-3.4293-2.9016-4.9677-5.9029-1.459-2.8382-2.8834-6.7181-4.3916-10.8259-3.1299-8.5246-6.3662-17.3393-11.8481-22.9249-8.2242-8.3793-16.4026-12.7806-22.974-16.3171-5.0161-2.6993-8.978-4.8315-11.4758-7.8429-2.0487-2.4751-2.6229-3.6601-3.4177-5.3002-1.0376-2.1411-2.3289-4.8057-6.0706-9.2787-8.8654-10.5604-18.5221-16.148-24.2917-19.4864-5.7578-3.3231-8.8901-4.4532-11.9194-5.5462-2.7266-.9837-5.302-1.913-10.6354-4.8995-4.7568-2.6653-7.4493-4.5896-9.8251-6.2873-3.1069-2.2203-6.0416-4.3176-11.6479-6.7151-9.3407-3.9918-17.8119-5.3806-23.274-5.8427-1.8221-.1518-3.5962-.2284-5.2821-.2284-5.6334.0003-9.6447.8247-13.1836,1.552-2.876.5911-5.1476,1.058-8.0449,1.058-1.598,0-3.2805-.1443-5.1437-.4413q-1.1163-.1752-2.4056-.6351c-1.8062-.6442-5.1683-1.8433-13.9777-4.3305-15.1584-4.2743-20.4893-5.0845-25.0244-5.0845h0Z"/>
          </g>
          <path class="cls-5" d="M396.2096,111.5202c-4.7814-2.9054-10.7822.7857-12.38,1.7685-1.705,1.0488-6.6623,4.098-6.6323,8.8429.0234,3.7097,3.0814,6.2545,4.8636,7.7375,1.5128,1.2589,6.186,5.1476,11.0537,3.5372,3.9847-1.3182,5.7686-5.5501,6.4111-7.0743.3475-.8243,1.0533-2.5437,1.1053-4.8636.0175-.7791.0689-7.2196-4.4215-9.9483Z"/>
          <path class="cls-5" d="M417.5519,162.0033c-2.0601-3.2531-6.5787-5.1715-10.5553-3.9205-5.2013,1.6363-6.594,7.7885-6.333,11.4599.0686.9646.4203,5.9139,4.222,7.8412,3.0639,1.5532,6.3604.1257,7.2379-.3017,4.9117-2.3925,8.7427-9.8457,5.4285-15.0789Z"/>
          <path class="cls-5" d="M390.2882,261.2629c.456-4.5125-2.6135-9.02-6.6348-11.1585-4.6825-2.4902-9.913-1.3734-13.2695.9049-5.9757,4.0561-8.2224,13.2943-4.5236,17.7931,2.41,2.9313,6.6373,2.9906,8.4442,3.0159,6.1751.0865,15.2659-3.4528,15.9837-10.5553Z"/>
          <path class="cls-5" d="M119.8997,343.5668c-4.7793-4.5044-14.2499-4.2985-20.2058.3016-6.7098,5.1823-6.4401,13.9963-6.3332,17.4915.113,3.6932.2691,8.7916,3.9205,12.0632,6.1912,5.5473,17.0771,1.0447,19.6027,0,2.9704-1.2286,5.8734-2.4294,7.5395-5.4285,1.8156-3.2682,1.0906-6.7426-.3016-12.9679-1.4132-6.3191-2.1196-9.4785-4.222-11.4599Z"/>
          <path class="cls-5" d="M276.1257,383.4123c-.1909-3.8273-3.9607-6.9301-7.5395-7.841-4.7007-1.1966-10.1889,1.104-12.0632,5.4285-.1716.3957-1.6778,4.0353.3016,7.5395,1.9463,3.4456,5.7614,4.1021,6.6348,4.222,5.6825.7801,12.9411-3.8403,12.6664-9.3489Z"/>
          <path class="cls-5" d="M387.5431,215.1842c-3.7693-1.6835-8.2616-.134-10.986,2.1127-3.6766,3.032-5.9402,8.8237-3.5916,13.7324,2.7663,5.7817,9.9029,6.0989,10.986,6.1269,4.1428.1069,9.9995-1.6891,11.4086-5.9156.8996-2.6984-.3735-5.3081-2.1127-8.8732-1.6561-3.3947-2.8914-5.9269-5.7042-7.1832Z"/>
          <path class="cls-5" d="M101.1951,405.9809c-3.5864-5.0566-11.5586-6.4266-15.3805-3.0157-4.3825,3.9111-2.7836,13.6408,3.0159,17.1901,3.2254,1.974,8.4099,2.4401,11.7615-.6033,3.8466-3.4929,3.2815-9.7947.6031-13.5711Z"/>
          <path class="cls-5" d="M348.1133,61.7281c-1.3389-2.252-4.5479-5.2371-8.1426-4.2975-4.0645,1.0624-6.2207,6.5142-4.5237,9.726,1.4071,2.6631,5.0584,3.02,6.5594,3.1666,1.5732.1537,5.1866.5069,6.7855-1.8094,1.7576-2.5462-.3536-6.2393-.6785-6.7856Z"/>
          <path class="cls-5" d="M351.7291,319.6901c-.0951-3.0256-2.2629-5.6916-5.2022-6.3332-3.4399-.7508-6.5521,1.5735-7.6903,4.2975-.0967.2313-1.4826,3.7116.6785,6.5594,1.8005,2.3728,5.0738,3.0023,7.6903,2.0357,2.6003-.9606,4.6193-3.5226,4.5237-6.5594Z"/>
          <path class="cls-5" d="M391.6086,187.6376c-.4593-3.9573-4.4004-6.7735-8.1426-6.6348-3.4608.1283-5.5186,2.7383-5.73,3.0157-2.4251,3.182-2.4401,8.6059.9047,11.1585,2.6906,2.0533,6.4138,1.3776,8.7458,0,2.2044-1.3024,4.6222-4.0926,4.2222-7.5395Z"/>
          <g>
            <path class="cls-9" d="M357.4384,276.7c-5.1561,15.8105-12.3117,31.7262-25.1233,42.341-9.8781,8.1946-22.2819,12.5485-34.3963,16.7575-35.3173,12.246-72.6994,24.676-109.3845,17.481-21.3481-4.1827-41.0127-14.8898-58.2042-28.2273-10.6675-8.2604-20.6509-17.7704-27.254-29.5297-6.2086-11.0226-9.1681-23.5316-11.9565-35.8694-2.1047-9.3259-4.1565-18.7176-5.6956-28.1618-1.9862-12.0485-3.1435-24.1891-2.5517-36.3693,2.499-50.7463,39.0131-74.2514,78.6711-97.5332,1.4335-.8418,2.8542-1.6705,4.2881-2.5124,16.5864-9.694,34.1201-18.8489,53.2058-21.0193,21.2296-2.4202,42.5515,4.0514,61.9661,12.9825,24.8601,11.4173,48.2603,27.4382,63.9918,49.8123.3815.5393.7497,1.0787,1.118,1.631,26.7937,39.5395,26.1755,92.7058,11.3251,138.217Z"/>
            <path class="cls-7" d="M357.4383,276.7c-5.156,15.8105-12.3115,31.7262-25.1232,42.341-9.8782,8.1946-22.282,12.5485-34.3962,16.7576-35.3173,12.246-72.6995,24.676-109.3845,17.481-21.3481-4.1827-41.0127-14.8898-58.2042-28.2274-10.6675-8.2604-20.651-17.7704-27.254-29.5297-6.2086-11.0226-9.1681-23.5316-11.9565-35.8694-2.1046-9.3259-4.1565-18.7175-5.6956-28.1619,7.0768,8.3658,17.2708,18.5071,32.4629,27.2015,15.4027,8.8129,29.4113,12.4038,42.5515,15.7842,19.6512,5.0377,33.9493,5.8929,61.7688,7.5502,24.939,1.473,37.6191,2.157,48.0366-.6971,6.4847-1.7759,29.4246-8.0633,43.9196-28.1355,3.3804-4.6826,3.7092-6.5241,16.4681-41.8544,11.4042-31.5814,10.9833-29.6874,11.6671-32.2654,4.3013-16.2842,4.446-30.0164,3.8147-40.5919,26.7935,39.5395,26.1753,92.7058,11.325,138.217Z"/>
            <path class="cls-8" d="M177.5835,103.139c-5.4729-.0671-19.6421,7.3985-28.7172,14.1694-9.4772,7.0708-18.1371,12.3911-23.0238,18.2898-2.7508,3.3208-12.2262,15.0499-20.3396,32.459-5.0214,10.7746-6.8852,18.0686-7.4936,20.5991-3.1397,13.062-4.8662,20.2444,0,25.5928,5.873,6.4544,19.1085,7.777,27.8332,3.7452,7.4525-3.444,10.0653-10.1455,14.987-23.4081,4.01-10.8064,2.7728-12.229,6.4232-24.3442,4.5421-15.075,7.1906-23.8645,14.9868-33.0833,13.1993-15.6077,19.6257-19.9746,19.6259-19.9748,3.3794-2.2962,7.4778-4.6423,7.1368-7.4904-.3958-3.3048-6.5379-6.4944-11.4187-6.5544Z"/>
            <path class="cls-8" d="M260.84,84.7442c-1.2081-1.5849-3.419-2.0015-5.4091-2.2883-9.9446-1.4334-20.0331-2.869-30.0024-1.619-7.3628.9232-38.2052,12.6844-26.5975,24.4997,2.8247,2.8751,7.3907,3.3722,11.2986,2.3857s7.364-3.213,10.8648-5.2103c8.7466-4.9903,18.9024-8.7987,28.7592-6.737,2.5201.5271,5.2188,1.415,7.5725.3717,2.2734-1.0077,3.4668-3.5285,4.057-5.9441.4372-1.7893.6062-3.8287-.4532-5.3355-.0293-.0417-.0593-.0826-.0899-.1228Z"/>
          </g>
          <path class="cls-3" d="M101.1707,310.0032c.2595.6712.5072,1.3482.742,2.0314,1.0494,3.0526,1.7957,6.5448.2965,9.4034-1.571,2.9955-5.0719,4.3278-8.2758,5.4124-10.6983,3.6216-23.1602,7.0405-32.681.964-10.0619-6.4218-11.7512-20.0221-15.2706-31.428-6.2541-20.2685-21.2596-39.2515-17.8356-60.1847,1.7844-10.9091,8.5165-20.5918,9.901-31.5588,1.1691-9.2612-8.3527-24.7179-5.296-33.5378,2.7098-7.8188,7.9108-10.7593,13.1187-17.19,5.7113-7.0523,11.5853-9.9228,13.5711-18.7733.7884-3.5138.8557-17.2659,2.7142-20.3566,1.8083-3.0072,6.8206-13.0591,9.4998-15.3052,14.2158-11.9175,23.497-13.2139,33.1737-29.0416,6.8497-11.2036,13.9735-29.2694,26.539-33.0837,9.0047-2.7334,24.7643-.6515,32.8722-5.4284,5.9533-3.5076,12.9464-9.9371,18.9995-13.2695,9.186-5.0571,25.3846,1.1937,35.5864,3.619,14.9285,3.549,25.0978,6.3877,40.4365,5.9646,15.3388-.4232,31.6402.9704,44.0909,9.9391,12.929,9.3133,19.4017,25.0766,30.1897,36.8033,7.3796,8.0216,17.7024,16.8866,14.7702,27.3845-.4815,1.7239-1.3543,3.3783-2.7133,4.5431-4.9356,4.2304-12.3382.1458-17.6318-3.627-28.3124-20.1784-62.3745-31.461-96.9067-35.4969-23.3314-2.7268-48.2413-1.9346-68.5027,9.9507-13.3687,7.8421-23.6504,19.8803-35.1669,30.2529-14.2813,12.8628-30.9173,23.5811-41.8983,39.3553-12.2015,17.5274-16.1092,39.5059-17.2691,60.8306-1.1544,21.2239.2818,43.2662,9.7942,62.2742,6.8476,13.6831,17.6559,25.3361,23.1525,39.5534Z"/>
          <path class="cls-5" d="M442.5437,467.0095c-.3004,2.3353-.7398,5.5491-2.6011,9.3526-1.0866,2.208-4.6704,9.2369-13.017,12.9593-6.8092,3.052-13.1675,2.2774-19.5142,1.5145-17.1905-2.081-30.4159-21.9882-48.67-15.8265-12.7512,4.3005-19.5256,20.4852-32.8203,22.4506-8.9016,1.3178-17.3061-4.3699-26.2424-5.3064-5.4567-.5665-11.0057.6359-16.4045-.2774-6.1386-1.0519-11.4565-4.7167-16.9362-7.6646-12.1964-6.5549-26.4851-9.8265-40.1035-7.2831-16.0115,3.0057-20.1732,13.4102-36.358,15.202-10.8554,1.2139-21.8726-2.497-27.7106-2.4738-9.9652.0461-21.0056,3.6993-29.2135-1.9307-4.6242-3.1791-7.1329-8.682-11.3987-12.3352-5.3294-4.5895-12.7745-5.7803-19.8032-5.8958-18.1617-.289-35.6527,5.3178-53.6294,6.9248-21.4449,1.9075-23.3522-3.6416-34.9706-19.6645-2.0925-2.8786-6.9479-10.6935-5.2022-20.5084.2659-1.4912,1.2602-6.3004,5.2022-11.4565,6.6473-8.7051,15.1674-9.8726,24.0691-14.4738,0,0,15.7453-8.1617,24.8089-25.3175.4277-.7862.8208-1.5954,1.2139-2.4278,5.1665-11.0563,3.3968-19.8563,1.6507-27.126-1.4027-5.8396-4.8124-11.0069-9.6569-14.5565-.3297-.2415-.6514-.4782-.9647-.71-1.1445-.8439-2.3005-1.6878-3.4566-2.5433,10.5778.4046,19.3755,2.9363,24.7626,7.9304,9.468,8.7861,10.2542,19.9074,10.2542,19.9074,1.052,15.0633-12.8437,20.3118-13.2715,36.7972-.289,11.156,5.6763,24.5314,14.4738,27.1326,6.867,2.0347,9.1921,9.6317,31.215-.9001,14.1732-6.7743,21.8156-16.0264,28.7635-14.9282,11.179,1.7572,13.9166,2.4182,25.6736,4.3719,8.5433,1.4219,14.6818-1.8267,23.5258-5.4218,0,0,23.6875-9.6647,47.641-13.2716,32.0574-4.8324,44.2654,8.4623,58.5079-2.4161,5.6763-4.3352,2.7861-5.7108,13.8727-22.3119,4.7861-7.1791,28.9938.1273,45.8376-19.1212,11.5605-13.2136,11.4333-30.9013,13.9419-32.751,8.8091-6.5317,6.1733-14.7281,9.5837-22.9245,2.0808-5.0058.7167-7.2716,1.2138-14.4738.8323-12.2541,5.8266-20.913,13.2599-33.7799,3.0406-5.2601,16.5432-2.4971,27.5952-15.9073,7.6761-9.3179,11.0865-18.9939,9.838-32.4158,1.3641,2.37,2.9249,4.6126,4.0346,8.2427.4046,1.3526.7513,2.8786.9942,4.6705.7978,5.7224-.266,11.3987-2.7977,19.8264-.6127,2.0231-1.3063,4.1963-2.081,6.5779-.5317,1.6185-1.0982,3.341-1.6994,5.1675-2.1271,6.474-5.2947,15.1444-9.8265,25.202-9.8612,13.4911-11.1442,23.1905-10.2772,29.7453,1.5489,11.8264,7.4449,23.387-10.6474,29.1094-7.4219,2.3584-16.2425,20.9478-17.3638,28.6471-1.9077,13.2022,2.3583,26.3581,7.7108,38.9128,3.942,9.2254,17.9767,13.5259,32.6817,23.7223,9.9189,6.8902,9.7917,18.4044,11.3871,23.2251,3.711,11.26,3.341,17.5605,2.9247,20.809Z"/>
          <path class="cls-5" d="M182.9377,390.5039c-.3906-5.791-5.7024-9.3874-10.2536-9.9521-.7477-.0927-5.8898-.6479-9.0473,3.0157-3.2494,3.7703-2.3559,9.64.3016,13.2695,2.2033,3.0092,6.6222,5.8483,11.4599,4.5237,4.7875-1.3109,7.8592-6.1171,7.5395-10.8569Z"/>
          <path class="cls-5" d="M212.191,367.5839c-2.4198-2.6825-7.0415-4.3125-10.5553-2.1112-2.4998,1.566-4.144,4.8866-3.3173,7.8412.8858,3.1662,4.1714,4.3486,6.3332,5.1267,1.7423.6271,6.0226,2.1676,8.4442,0,2.5673-2.298,1.9048-7.7421-.9047-10.8568Z"/>
          <path class="cls-5" d="M321.061,345.8702c-4.0644-5.1283-13.5873-4.3976-15.9837-.3016-2.2276,3.8076,1.6649,10.5881,6.6348,13.2695.9108.4914,4.7851,2.5818,7.841.9047,3.932-2.1579,4.8572-9.6465,1.5079-13.8727Z"/>
          <path class="cls-5" d="M280.6494,357.2547c-.6041-2.5205-3.0977-4.3469-5.6545-4.0713-3.1409.3385-5.3633,3.7398-4.5237,6.7855.6799,2.4666,3.2465,4.2584,5.8809,3.8452,3.0085-.4719,4.9958-3.6453,4.2974-6.5594Z"/>
          <path class="cls-5" d="M242.5374,390.1646c.4243-1.5681-.2361-3.3169-1.5834-4.2975-1.2977-.9445-2.9843-.9955-4.2975-.3393-1.5999.7994-2.6851,2.6684-2.2619,4.5237.3529,1.547,1.6446,2.603,2.9405,2.9404,2.0668.5382,4.6078-.6307,5.2022-2.8273Z"/>
          <path class="cls-5" d="M158.5098,354.9929c-.3958-.82-1.9734-4.0885-5.2022-4.2975-2.5774-.1669-4.7137,1.7125-5.6547,3.619-1.2753,2.5839-.4752,5.4611.9047,7.2379,2.1493,2.7676,6.6885,4.132,9.2737,2.0357,2.5389-2.0589,1.7809-6.3109.6785-8.595Z"/>
          <path class="cls-5" d="M364.9408,345.4178c-.2539-1.8144-1.953-3.2949-3.7697-3.3173-2.5383-.0313-4.5472,2.7925-3.9205,5.1267.3816,1.4211,1.7091,2.5458,3.1664,2.7143,2.3822.2755,4.8723-2.0323,4.5237-4.5237Z"/>
          <path class="cls-5" d="M416.0586,206.5405c-3.295-1.7799-7.6601-.3421-9.3489,3.0157-1.8721,3.7225.2547,8.3938,3.9205,9.6505,2.7199.9325,5.8754-.1559,7.5395-2.4126,2.3073-3.1292,1.5702-8.2651-2.111-10.2536Z"/>
          <path class="cls-4" d="M442.5438,467.0095c-.3005,2.3353-.7397,5.5492-2.6013,9.3525-1.0864,2.208-4.6702,9.2369-13.0168,12.9594-6.8093,3.052-13.1675,2.2775-19.5144,1.5145-17.1904-2.0809-30.4158-21.9882-48.6699-15.8264-12.7512,4.3004-19.5256,20.4852-32.8202,22.4506-8.9016,1.3177-17.3062-4.3699-26.2424-5.3064-5.4567-.5664-11.0056.6359-16.4044-.2775-6.1387-1.0519-11.4565-4.7166-16.9363-7.6646-12.1964-6.5549-26.4851-9.8265-40.1034-7.2831-16.0115,3.0057-20.1732,13.4102-36.358,15.202-10.8553,1.2139-21.8726-2.4971-27.7106-2.4739-9.9652.0461-21.0056,3.6993-29.2135-1.9307-4.6243-3.1792-7.1329-8.682-11.3987-12.3351-5.3295-4.5896-12.7745-5.7803-19.8032-5.8959-18.1617-.2891-35.6527,5.3177-53.6294,6.9247-21.4448,1.9076-23.3523-3.6416-34.9707-19.6644-2.0925-2.8785-6.9479-10.6935-5.2021-20.5084.2659-1.4912,1.2601-6.3004,5.2021-11.4565,6.6473-8.7051,15.1675-9.8726,24.0692-14.4738,0,0,15.7452-8.1617,24.8088-25.3174-.0579,4.4392-.7515,8.8207-2.1388,12.7397-4.9363,13.8611-17.283,17.6761-17.6412,31.6642-.0348,1.2717-.1388,10.6819,6.3351,17.1907,9.26,9.3292,25.491,6.1732,31.6644,4.9825,13.8032-2.682,13.9073-7.9884,24.4274-8.1501,6.6011-.0925,13.6876,2.9595,27.5951,9.0519,13.8726,6.0808,13.075,6.9479,18.092,8.6011,13.2601,4.3467,19.6761-1.3989,46.1499-6.3353,23.514-4.3928,35.2711-6.5894,48.8547-1.8149,11.8496,4.1733,12.8206,9.2485,23.9767,10.4045,13.0402,1.364,17.6067-4.9595,30.3002-1.8035,8.9594,2.2196,10.1271,6.2195,17.1903,5.8728,7.11-.3353,10.5087-4.5781,18.5548-9.4913,12.4738-7.6299,19.0748-10.8322,26.2308-9.9536,7.3179.8903,8.8787,5.1791,15.8379,4.5203,4.6475-.4393,10.7283-2.9941,13.1213-7.6879,3.6416-7.1559-3.3757-15.1558-9.5027-28.4967-1.3872-3.0289-10.6357-23.6876-9.9536-47.0514.3005-10.0577,1.0056-34.4273,14.9246-42.0688,5.0288-2.763,12.1616-3.5492,15.2368-9.9536,1.3872-2.8901.9827-4.9133,1.2021-9.3525.4048-8.0347,2.3701-13.7341,5.1328-21.7107,3.5608-10.3237,8.6013-17.4911,12.0579-22.312,7.3755-10.3003,14.0461-19.6298,20.0574-27.9533-.6125,2.0231-1.3062,4.1964-2.0808,6.5779-.5317,1.6185-1.0981,3.3411-1.6995,5.1675-2.127,6.474-5.2947,15.1444-9.8264,25.202-9.8611,13.4911-11.1443,23.1906-10.2771,29.7453,1.5488,11.8264,7.4448,23.3869-10.6475,29.1093-7.4219,2.3584-16.2424,20.9479-17.3638,28.6471-1.9077,13.2022,2.3582,26.3581,7.7107,38.9128,3.9421,9.2254,17.9768,13.5259,32.6816,23.7222,9.9189,6.8902,9.7917,18.4044,11.3872,23.2251,3.7109,11.26,3.3411,17.5605,2.9248,20.809Z"/>
          <path class="cls-2" d="M200.8063,28.1563c-1.7794.0423-4.76.8447-5.6545,3.3927-.9067,2.5824.897,5.341,2.9404,6.5594.2941.1753,2.1957,1.2688,4.5236.6785,2.633-.6677,5.2907-3.3574,4.75-6.3332-.5556-3.0574-4.1129-4.3556-6.5594-4.2975Z"/>
          <path class="cls-2" d="M266.739,52.6973c-.9495-2.0345-3.2607-2.6857-3.8451-2.8273-2.2113-.5362-5.0388.0776-6.5594,2.2619-1.876,2.6947-.8097,6.4107,1.3572,8.2557.317.2699,1.786,1.5206,3.7321,1.3571,3.7305-.3136,6.9097-5.6309,5.3153-9.0473Z"/>
          <path class="cls-2" d="M296.7085,40.3702c-1.0834-1.4521-2.9758-2.0444-4.6368-1.8094-.1908.027-3.0129.4718-3.8451,2.8273-.7605,2.1526.7096,4.2917,2.0357,5.3154,1.2138.9369,3.4011,1.784,5.2022.7917,2.2981-1.2661,2.8822-4.929,1.244-7.1249Z"/>
          <path class="cls-2" d="M305.9821,70.5282c-.2853-1.3734-1.4971-2.5453-3.0157-2.5634-1.4331-.0171-2.6247.9996-3.0159,2.2619-.3529,1.1389-.0522,2.4703.9047,3.3173,1.0279.9098,2.5867,1.0607,3.7697.3016,1.1446-.7344,1.6082-2.1092,1.3572-3.3173Z"/>
          <path class="cls-2" d="M188.517,50.4731c-.4276-3.3237-3.8987-4.7572-4.0713-4.8252-.3347-.132-3.5725-1.3494-6.0316.6031-2.3221,1.8437-2.5426,5.3966-1.2063,7.841.9821,1.7965,3.0236,3.3944,5.4283,3.3174,3.4336-.11,6.311-3.5931,5.8809-6.9363Z"/>
          <path class="cls-2" d="M155.7955,44.8939c-1.5468-1.8157-4.269-2.5602-6.6346-1.6587-1.8776.7155-3.6479,2.5126-3.7699,4.8252-.1905,3.6118,3.7989,5.4583,4.0715,5.5792.4234.188,3.2232,1.4309,5.4283,0,2.5406-1.6486,3.1526-6.107.9047-8.7458Z"/>
          <path class="cls-2" d="M139.284,88.7737c2.2259-4.6715-.1802-10.6348-4.2975-13.3449-3.1664-2.0842-6.5013-1.6888-7.2379-1.5834-5.9538.8517-11.5696,6.983-10.4045,12.4401.9125,4.2741,5.5803,6.242,6.3332,6.5594,4.839,2.04,12.8833,1.6445,15.6067-4.0713Z"/>
          <path class="cls-2" d="M84.9999,95.7854c-1.9394.1264-4.5959,1.3569-4.9762,3.8452-.3771,2.4676,1.72,4.63,3.8452,5.2022,2.0517.5525,3.7546-.4781,4.0713-.6786,1.51-.9564,3.079-3.0416,2.4879-5.2022-.641-2.3437-3.4188-3.2975-5.4283-3.1666Z"/>
          <path class="cls-2" d="M87.9402,134.2367c1.9709-1.8456,1.2548-5.5875-.9047-7.2379-1.3285-1.0152-3.4676-1.441-4.9762-.4523-2.2061,1.4458-2.4,5.4808-.2261,7.4641,1.6337,1.4905,4.5024,1.7286,6.107.2261Z"/>
          <path class="cls-2" d="M53.1078,160.4742c-1.9177-2.0464-5.4836-1.9919-7.6902-.4523-3.3001,2.3025-3.69,8.0177-.9049,10.1783,1.9432,1.5074,5.0689,1.0027,7.0118-.4524,2.7888-2.0886,3.9539-6.7438,1.5832-9.2736Z"/>
          <path class="cls-2" d="M62.6075,215.2109c-.5878-2.7036-2.8705-6.0768-5.6547-5.8809-2.8413.1998-4.3133,3.9834-4.5236,4.5237-.8068,2.0735-1.601,6.5354,1.3572,8.595,2.0084,1.3984,5.0294,1.1901,7.0117-.4524,2.7833-2.3062,1.9499-6.1398,1.8094-6.7855Z"/>
          <path class="cls-2" d="M54.6911,262.2572c1.9412-2.1076,3.3289-5.7307,2.0357-8.8211-1.83-4.373-8.0999-5.4608-12.2141-3.8451-.624.2451-4.4104,1.7321-5.2022,5.4283-.8071,3.7673,2.1673,6.6988,2.7143,7.2379.1566.1544,3.8941,3.7184,8.595,2.4881.4111-.1075,2.387-.6595,4.0713-2.4881Z"/>
          <path class="cls-2" d="M81.3809,294.3754c.3196-3.6941-1.799-7.8971-5.6547-9.2736-4.0765-1.4554-7.7128,1.0992-8.3688,1.5834-3.5181,2.5969-5.2763,7.622-3.6189,11.7616.2052.5125,1.8,4.3171,5.6547,5.2022,3.2871.7547,5.9586-1.1322,7.2379-2.0357,1.0772-.7608,4.3919-3.102,4.7498-7.238Z"/>
          <path class="cls-4" d="M348.8063,379.3454c-2.7161-2.2825-8.3485-2.0983-11.7615,1.508-3.1027,3.2784-3.3122,8.2655-.9049,11.7615,1.9513,2.8335,5.6794,4.7711,8.7459,3.9206,5.9004-1.6364,8.4857-13.3539,3.9205-17.1901Z"/>
          <path class="cls-4" d="M370.2184,418.8523c-3.5528-1.8097-8.4148-1.0511-11.4599,2.111-4.1355,4.2943-2.2249,10.2224-2.1112,10.5553,1.2719,3.7236,4.8699,7.3135,9.3491,7.2379,4.3756-.0738,7.0082-3.6019,7.2379-3.9206,3.351-4.6465,2.6037-13.1212-3.0159-15.9837Z"/>
          <path class="cls-4" d="M327.6957,417.3444c-3.7161-4.0961-9.8701-4.0068-13.8726-1.5079-2.9821,1.8618-5.9089,5.7724-5.1268,10.2537.981,5.6211,7.0023,7.5829,7.8411,7.8411.6864.2112,6.4891,1.8961,10.5552-1.8094,3.8777-3.5338,4.5195-10.4604.6031-14.7774Z"/>
          <path class="cls-4" d="M274.3163,404.6781c-2.1631-2.3995-6.5748-2.4187-8.8966.1509-2.2949,2.5397-1.3484,6.2807.1507,8.2933.4351.5842,2.3049,2.8866,4.8253,2.5634,2.124-.2724,3.2974-2.2283,3.7697-3.0157.1375-.2292,2.8831-4.9611.1509-7.9919Z"/>
          <path class="cls-4" d="M241.1426,410.4081c-3.0898-2.3289-7.683-2.0304-10.8569.3016-3.1605,2.3221-4.4823,6.3435-3.6189,9.9521.6844,2.8609,2.9028,6.1332,6.6348,6.9363,4.755,1.0233,8.2248-2.7676,8.4442-3.0157,3.352-3.7885,3.7323-10.9063-.6031-14.1742Z"/>
          <path class="cls-4" d="M185.3504,429.7092c-2.5792-3.7542-8.9971-3.9436-12.6664-.9047-2.9425,2.437-4.4502,7.2255-2.4126,10.5552,1.6957,2.771,5.0473,3.225,5.7299,3.3174,3.3347.4517,7.089-1.0169,9.0475-4.2222,1.4336-2.3464,2.16-6.0408.3016-8.7458Z"/>
          <path class="cls-4" d="M149.6132,417.1936c-1.778-.5888-4.2253-.339-5.5792,1.3572-1.7159,2.1497-.7334,5.4426,1.0554,7.0872.371.3411,1.7218,1.4802,3.619,1.357,2.2263-.1446,4.4477-1.9784,4.6745-4.5236.2343-2.6289-1.7836-4.6201-3.7697-5.2777Z"/>
          <path class="cls-4" d="M160.1685,447.5778c-.1497-.3335-1.3872-3.089-3.5437-3.3928-3.2007-.4509-7.159,4.6776-5.8054,7.6148.8931,1.9381,3.944,2.586,6.107,2.1865.6755-.1247,2.6701-.4932,3.5437-2.1865.8524-1.6522.0528-3.4329-.3016-4.222Z"/>
          <path class="cls-4" d="M75.5001,436.6456c-.3047-4.2429-3.9676-7.6539-8.1428-7.9165-3.3722-.2121-6.8828,1.6419-8.3687,4.9762-1.2625,2.8331-.7671,6.071.9047,8.3688,2.4953,3.4296,7.5139,4.631,11.3092,2.4879,2.7355-1.5446,4.5318-4.6548,4.2975-7.9164Z"/>
          <path class="cls-4" d="M79.1943,371.8814c-.176-1.5836-1.7993-3.1451-3.3927-2.9405-1.7998.2312-2.6811,2.6027-2.4881,4.2975.0209.1832.2647,2.1113,1.5079,2.5634,1.6511.6005,4.6354-1.5587,4.3729-3.9205Z"/>
        </g>
        <path class="cls-6" d="M29.3592,437.9708c-.3073-2.8427-4.0149-4.8876-6.7826-4.1739-3.7849.9761-5.317,6.9837-3.3914,9.1304,1.3113,1.4619,4.0999.9924,5.4783.5219,2.0507-.7002,4.9883-2.7714,4.6957-5.4783Z"/>
        <path class="cls-6" d="M66.6635,462.4926c-.5745-3.4669-5.816-5.9105-9.9783-4.6957-3.3892.9893-6.7856,4.6152-5.8695,8.2174.8224,3.2338,4.7141,4.8511,7.6305,4.6957,1.8849-.1005,3.2294-.9342,3.913-1.3696,1.8082-1.1516,4.7888-3.924,4.3043-6.8478Z"/>
        <path class="cls-6" d="M110.0005,451.9273c-1.3267-1.9141-4.0906-2.6958-6.1631-1.4673-1.7151,1.0166-2.4666,3.1194-2.0543,4.9891.3914,1.7751,1.8188,3.2825,3.7174,3.6195,1.6235.2882,3.356-.321,4.4021-1.6631,1.2744-1.6349,1.1833-3.9124.0979-5.4783Z"/>
        <path class="cls-6" d="M169.1852,479.4492c.6064-3.25-2.2894-5.9758-4.5652-7.0436-3.1761-1.4902-7.6738-.9373-9.1304,1.5653-1.8844,3.2378,1.3582,9.6755,6.1304,10.3043,3.0253.3987,6.9446-1.5004,7.5652-4.826Z"/>
        <path class="cls-6" d="M141.2723,479.71c-2.0731-.4474-4.5094,1.109-4.5652,2.7391-.0564,1.649,2.3381,2.9388,4.1738,3.1304.2517.0262,2.6755.2512,3.3914-1.0435.7874-1.4241-.6903-4.3275-3-4.826Z"/>
        <path class="cls-6" d="M216.6635,455.71c-3.0598-2.6613-8.5089-3.1088-11.7391,0-2.5828,2.4857-2.8369,6.3691-1.826,9.1304,1.8566,5.0715,8.6243,8.1166,12.7826,5.7391,4.4724-2.557,5.2388-10.9937.7826-14.8695Z"/>
        <path class="cls-6" d="M262.0549,475.4056c.6787-2.3318-1.3124-4.0706-1.4348-4.1738-1.2744-1.075-3.5336-1.656-5.0869-.3914-1.4851,1.2091-1.4547,3.3965-.7826,4.826.5975,1.2709,2.0223,2.6234,3.913,2.4783,1.5464-.1188,2.9446-1.2041,3.3914-2.7391Z"/>
        <path class="cls-6" d="M292.5766,466.6665c-1.7356-1.8982-4.6716-2.059-6.7826-.913-1.9486,1.0579-3.2515,3.2605-3,5.6086.1989,1.8571,1.3685,3.7925,3.3912,4.5652,2.3116.8831,4.6814-.1558,6-1.5652,1.8363-1.9628,2.4165-5.4808.3914-7.6957Z"/>
        <path class="cls-6" d="M333.794,473.1882c-2.0477-2.1868-5.4758-2.4182-7.826-1.0435-2.5226,1.4756-2.9852,4.323-3.1305,5.2174-.1661,1.0225-.6206,3.8203,1.3043,5.8696,1.7646,1.8787,4.6404,2.1824,6.7826,1.3043,2.1542-.8829,3.0808-2.7618,3.3914-3.3914.2386-.4839,2.3322-4.9089-.5217-7.9565Z"/>
        <path class="cls-6" d="M364.4461,455.5795c-1.0193-1.9923-4.3008-2.3846-6.3914-1.174-1.5061.8722-2.8457,2.8381-2.3477,4.6957.3677,1.3712,1.5725,2.0703,1.8259,2.2174,1.7241,1.0005,3.5308.3555,3.7827.2609,2.302-.8646,4.21-3.8899,3.1304-6Z"/>
        <path class="cls-6" d="M408.533,474.2318c.4958-2.6531-.8638-5.6227-3.3911-7.0436-3.0698-1.726-6.1943-.2289-6.3914-.1304-1.9531.9773-3.9868,3.1885-3.7827,5.8695.2927,3.843,4.9294,5.3132,5.4783,5.4783.7705.2317,3.6892,1.1089,6-.6521,1.6326-1.2441,2.0034-3.075,2.0869-3.5217Z"/>
        <path class="cls-6" d="M420.6636,435.3621c-1.7649-1.989-5.6951-6.418-10.9565-5.7391-4.387.566-6.8022,4.3089-7.0435,4.6957-3.5037,5.6207.3232,12.2732.7825,13.0435,3.6934,6.194,10.7393,7.0802,12.5217,7.3043,2.666.3353,6.8828.8656,9.1306-1.5652,3.5684-3.8589-.0393-12.7857-4.4348-17.7391Z"/>
      </g>
      <path class="cls-4" d="M404.4896,268.9274c-2.0745-1.8511-5.405-2.0005-7.5652-.5217-3.5566,2.4347-3.4609,8.9544,0,11.2173,2.0664,1.3511,5.0845,1.0227,7.0435-.5217,3.0171-2.3787,3.4355-7.5739.5217-10.1739Z"/>
      <path class="cls-4" d="M398.0984,313.1448c.3835-1.922-.376-4.3268-2.3479-5.3478-1.95-1.0096-3.9189-.0624-4.0435,0-2.3879,1.1978-3.3484,4.5231-2.2175,6.913.0942.1993,1.1211,2.2833,3.261,2.6087,2.4148.3672,4.8574-1.7162,5.3479-4.1739Z"/>
    </g>
  </g>
</svg>