<?xml version="1.0" encoding="UTF-8"?>
<svg id="Capa_2" xmlns="http://www.w3.org/2000/svg" viewBox="0 0 715.1775 553.7825">
  <defs>
    <style>
      .cls-1 {
        fill: #898686;
      }

      .cls-2 {
        fill: #a3a2a2;
      }

      .cls-3 {
        fill: #c4c2c2;
      }

      .cls-4 {
        fill: #ada3a3;
      }

      .cls-5 {
        fill: #b0b0b0;
      }

      .cls-6 {
        fill: #dbdbdb;
      }

      .cls-7 {
        fill: #938989;
      }

      .cls-8 {
        fill: #847a7a;
      }
    </style>
  </defs>
  <g id="Capa_1-2" data-name="Capa_1">
    <g>
      <g>
        <path class="cls-5" d="M514.1071,304.135c-.5701,2-1.1001,5.08.8301,15.72,2.01,11.09,3.0698,10.39,2.8999,14.08-.03.64-.0901,1.26-.1799,1.87-.0801.61-.2002,1.21-.3301,1.79-.2.8799-.45,1.72-.75,2.52-.2.54-.4099,1.06-.6299,1.57-.1101.25-.23.5-.3501.75-.3599.73-.75,1.43-1.1401,2.09-1.46,2.41-3.1099,4.3-4.3398,5.54-.1101.12-.22.22-.3301.33-.73.72-1.27,1.18-1.47,1.34-.1599.13-.3999.32-.7.56-.0701.06-.1499.12-.24.19-.1201.09-.26.19-.4001.29-8.2898,5.59-17.3999-2.79-25.2998-7.39-12.0701-7.03-13.78-8.18-17.2202-9-8.0198-1.9-20.3098,6.18-25.6299,12.72-.76.93-7.71,16.16-2.1799,27.4901.0701.14.1399.28.21.43.21.4.4299.8.6799,1.2,4.8101,7.7401,15.1699,10.6201,21.9399,8.27,10.3301-3.58,24.5-6,34.5901-.7,4.7,2.47,8.22,6.79,10.22,11.68,1.1301,2.76,1.5701,5.9.6802,8.7401-1.1501,3.66-4.29,6.31-7.4902,8.41-8.46,5.52-16.2,12.15-23.6299,19.02-.53.48-1.0601.98-1.5901,1.47-2.5198,2.35-5.71,4.87-8.26,7.65-1.2998,1.41-2.4299,2.88-3.23,4.44-2.21,4.3-2.1299,9.29-5.02,13.39-.4299.6-.9299,1.24-1.75,1.98-1.6399,4.48-3.8999,8.81-5.5798,11.55-5.3601,8.69-12.3601,13.37-14.0901,14.48-9.01,5.79-12.1799,3.08-22.7,9-9.3301,5.26-7.9202,8.01-16.4299,12.1301-4.25,2.0599-10.46,3.23-22.7002,5.48-13.8999,2.5601-14.8699,2.05-19.1699,3.9099-8.73,3.78-8.0898,7.3201-16.4399,12.1301-10.6499,6.1499-21.79,6.21-31.3,6.27-12.46.0599-12.21-2.4301-21.9099-1.9601-14.6201.7101-16.76,6.4501-31.3101,9.39-3.8901.79-22.0701,4.08-41.0901-4.7-4.6399-2.1401-14.8899-6.8701-20.03-12.51-1.6299-.3101-3.4399-.73-5.3699-1.3401-2.0901-.6599-8.3801-2.8199-15.3201-8.28-8.4399-6.6499-7.1099-9.75-16.97-18.21-7.3899-6.34-11.5601-7.54-12.8301-7.87-4.97-1.28-6.4399.09-12.8298-.82-7.5601-1.09-13-4.08-15.3201-5.39-1.6799-.94-8.3801-4.85-14.48-12.83-1.02-1.33-1.8501-2.55-2.55-3.7-.01-.02-.03-.05-.04-.07-.0898-.14-.1699-.27-.25-.41-.0601-.09-.1099-.17-.1599-.26-3.8801-6.72-3.3301-10.84-10.04-19.15-3.77-4.67-7.8-8.13-10.25-10.24-4.3301-3.73-6.9099-5.3-9.3499-6.93-1.2002-.8-2.3701-1.61-3.6902-2.7-10-8.27-13.5598-19.84-14.28-22.35-4.0898-14.35,2.9001-20-3.0999-29.18-2.9102-4.46-4.8301-3.55-12.1101-11.8-4.27-4.85-7.28-8.26-9.6199-13.35-4.49-9.76-3.8301-19.88-3.4202-26.38.4102-6.28,1.4302-9.43.6301-16.15-.1101-.91-.6101-5.03-2.49-10.76-3.1602-9.67-6.6101-12-8.6899-18.62-2.0801-6.64-1.0601-12.02.8298-21.94,2.4202-12.75,5.6001-13.73,7.03-25.25.95-7.58-.3999-7.36.52-16.87.72-7.34,1.3999-14.38,4.97-22.35,1.3401-3,5.0701-11.12,13.04-18.32,5.9399-5.37,9.9099-6.3,12.0999-11.79,1.8401-4.58-.1199-5.95.9402-11.8.45-2.53,1.54-6.28,11.79-19.25,9.5798-12.11,9.8-10.31,12.4199-15.21,4.1599-7.75,2.72-10.59,7.97-18.93,3.6401-5.79,7.24-9.03,8.28-9.94,4.4399-3.88,8.6899-5.89,11.1699-7.03,7.6101-3.53,8.8101-1.94,13.6602-4.97,4.5698-2.86,3.95-4.55,10.3499-9.94,4.0601-3.41,6.54-5.5,10.3501-7.03,7.9299-3.19,11.5898.08,18.6199-3.73,2.5901-1.4,1.4001-1.46,6.6301-5.38,4.8599-3.64,9.5801-7.18,16.1399-9.1,4.79-1.41,5.1799-.38,10.3501-2.07,5.1199-1.68,6.47-3.27,10.3401-4.97,6.25-2.75,11.8098-2.63,18.6299-2.48,11.22.2401,11.75,2.9901,19.25,2.07,2.3301-.29,3.3501-.78,16.1401-6.21,12.5098-5.32,15.1099-7.63,21.73-8.07,2.4299-.17,1.7898.16,15.52,1.86,11.6399,1.44,11.0398,1.07,16.1499,1.86,10.8699,1.69,16.3101,2.53,22.3501,5.59,4.8899,2.47,11.2397,6.81,14.8999,9.31,3.5698,2.44,3.05,2.25,4.03,2.8,7.6299,4.26,12.6799,1.38,20.8,3.41,2.4399.61,6.3899,3.1,14.2798,8.07,9.5801,6.04,10.8401,7.97,16.1501,9.52,5.96,1.74,6-.23,12.8298,1.66,5.9202,1.64,12.04,4.31,16.02,9.14,2.55,3.11,5.21,6.15,8.1602,8.88,1.52,1.41,3.1099,2.7,4.76,3.94,1.26.94,2.8899,1.57,3.78,2.92,1.1799,1.79.97,4.28,1.47,6.29.52,2.11,1.7,3.99,2.51,6.02.8101,2.02,1.22,4.39.2,6.32-.95,1.78-2.9299,2.78-4.9001,3.25-5.8699,1.43-12.0398,1.42-17.8499,3.21-4.1899,1.29-8.3801,1.18-12.54,2.81-3.8201,1.51-12.1899,4.8-17.22,12.27-6.29,9.34-5.6899,22.71-.26,32.34,9.8899,17.55,32.6101,17.03,35.48,16.96,2.96-.07,18.28-.42,27.9099-11.22,4.46-5,4.8101-11.25,7.1401-17.24,2.6799-6.91,10.4099-16.87,22.5601-7.11,3.9099,3.14,7.4099,6.46,9.7,11.04,4.7,9.4,11.29,20.4,7.1599,31.23-1.3501,3.55-3.8101,6.6-6.5898,9.19-4.7002,4.38-10.5103,7.61-16.73,9.24-6.7803,1.77-13.77.73-20.6301,2-6.52,1.21-13.3801,2.48-18.78,7.57-9.6499,9.07-8,24-7.5701,27.91.5701,5.14,2.1301,13.44,12,20.61,10.3201,7.49,20.72,4.89,22.6802,4.43,6.78-1.58,13.4099-2.53,23.5-10.69,10.3899-8.41,11.2898-18.06,15.1299-19.83,3.4001-1.57,13.5601-7.83,13.8401,8.16.1099,6.61-3.8801,8.06-4.1401,16.55-.1699,5.23,1.6001,4.88,3.3101,14.4901.4299,2.4.8301,4.65,1.0901,6.8.5701,4.58.5398,8.74-1.0901,13.07-1.8501,4.9-3.6201,4.38-4.97,9.11Z"/>
        <path class="cls-6" d="M272.9143,20.3552c1.6152,0,2.9067.4554,14.573,1.8998,11.6399,1.44,11.0398,1.07,16.1499,1.86,10.8699,1.69,16.3101,2.53,22.3501,5.59,4.8899,2.47,11.2397,6.81,14.8999,9.31,3.5698,2.44,3.05,2.25,4.03,2.8,7.6299,4.26,12.6799,1.38,20.8,3.41,2.4399.61,6.3899,3.1,14.2798,8.07,9.5801,6.04,10.8401,7.97,16.1501,9.52,2.3147.6758,3.7371.792,5.0103.792.667,0,1.2927-.0318,1.9849-.0318,1.3899,0,3.0464.1282,5.8347.8998,5.9202,1.64,12.04,4.31,16.02,9.14,2.55,3.11,5.21,6.15,8.1602,8.88,1.52,1.41,3.1099,2.7,4.76,3.94,1.26.94,2.8899,1.57,3.78,2.92,1.1799,1.79.97,4.28,1.47,6.29.52,2.11,1.7,3.99,2.51,6.02.8101,2.02,1.22,4.39.2,6.32-.95,1.78-2.9299,2.78-4.9001,3.25-5.8699,1.43-12.0398,1.42-17.8499,3.21-4.1899,1.29-8.3801,1.18-12.54,2.81-3.8201,1.51-12.1899,4.8-17.22,12.27-6.29,9.34-5.6899,22.71-.26,32.34,8.9954,15.9625,28.6057,16.9763,34.239,16.9763.5603,0,.9814-.01,1.241-.0163,2.96-.07,18.28-.42,27.9099-11.22,4.46-5,4.8101-11.25,7.1401-17.24,1.8782-4.843,6.2375-11.1844,12.8604-11.1844,2.8267,0,6.0652,1.1549,9.6997,4.0744,3.9099,3.14,7.4099,6.46,9.7,11.04,4.7,9.4,11.29,20.4,7.1599,31.23-1.3501,3.55-3.8101,6.6-6.5898,9.19-4.7002,4.38-10.5103,7.61-16.73,9.24-6.7803,1.77-13.77.73-20.6301,2-6.52,1.21-13.3801,2.48-18.78,7.57-9.6499,9.07-8,24-7.5701,27.91.5701,5.14,2.1301,13.44,12,20.61,5.8184,4.2227,11.6626,5.2384,16.0049,5.2384,3.3599,0,5.8203-.6078,6.6753-.8084,6.78-1.58,13.4099-2.53,23.5-10.69,10.3899-8.41,11.2898-18.06,15.1299-19.83,1.6038-.7405,4.7122-2.5245,7.5776-2.5248,3.2097-.0004,6.1145,2.237,6.2625,10.6848.1099,6.61-3.8801,8.06-4.1401,16.55-.1699,5.23,1.6001,4.88,3.3101,14.49.4299,2.4.8301,4.65,1.0901,6.8.5701,4.58.5398,8.74-1.0901,13.07-1.8501,4.9-3.6201,4.38-4.97,9.11-.5701,2-1.1001,5.08.8301,15.72,2.01,11.09,3.0698,10.39,2.8999,14.08-.03.64-.0901,1.26-.1799,1.87-.0801.61-.2002,1.21-.3301,1.79-.2.88-.45,1.72-.75,2.52-.2.54-.4099,1.06-.6299,1.57-.1101.25-.23.5-.3501.75-.3599.73-.75,1.43-1.1401,2.09-1.46,2.41-3.1099,4.3-4.3398,5.54-.1101.12-.22.22-.3301.33-.73.72-1.27,1.18-1.47,1.34-.1599.13-.3999.32-.7.56-.0701.06-.1499.12-.24.19-.1201.09-.26.19-.4001.29-1.9495,1.3146-3.9458,1.8568-5.9595,1.8568-6.5496,0-13.2981-5.7286-19.3403-9.2468-12.0701-7.03-13.78-8.18-17.2202-9-.8105-.192-1.6653-.2821-2.5515-.2822-7.8818-.0002-18.2959,7.1232-23.0784,13.0022-.76.93-7.71,16.16-2.1799,27.49.0701.14.1399.28.21.43.21.4.4299.8.6799,1.2,3.7205,5.9869,10.7622,9.0662,16.8938,9.0662,1.7957,0,3.5127-.2639,5.0461-.7962,6.02-2.0863,13.3445-3.7787,20.4053-3.7787,5.0552,0,9.9749.8673,14.1848,3.0787,4.7,2.47,8.22,6.79,10.22,11.68,1.1301,2.76,1.5701,5.9.6802,8.74-1.1501,3.66-4.29,6.31-7.4902,8.41-8.46,5.52-16.2,12.1501-23.6299,19.0201-.53.4799-1.0601.9799-1.5901,1.4699-2.5198,2.3501-5.71,4.87-8.26,7.65-1.2998,1.41-2.4299,2.8801-3.23,4.4401-2.21,4.2999-2.1299,9.2899-5.02,13.39-.4299.5999-.9299,1.2401-1.75,1.9799-1.6399,4.48-3.8999,8.81-5.5798,11.55-5.3601,8.69-12.3601,13.37-14.0901,14.48-9.01,5.7901-12.1799,3.08-22.7,9-9.3301,5.26-7.9202,8.01-16.4299,12.1301-4.25,2.0599-10.46,3.23-22.7002,5.48-13.8999,2.56-14.8699,2.05-19.1699,3.9099-8.73,3.78-8.0898,7.3199-16.4399,12.1301-10.6499,6.1499-21.79,6.21-31.3,6.27-.1482.0007-.2954.001-.4402.001-10.9656,0-11.8164-2.02-19.1658-2.0202-.7039,0-1.4663.0185-2.304.0591-14.6201.7101-16.76,6.4501-31.3101,9.3901-1.7927.364-6.6201,1.259-13.1658,1.259-7.6584,0-17.6689-1.225-27.9243-5.959-4.6399-2.1402-14.8899-6.8701-20.03-12.51-1.6299-.3101-3.4399-.73-5.3699-1.3401-2.0901-.6599-8.3801-2.8199-15.3201-8.28-8.4399-6.65-7.1099-9.75-16.97-18.21-7.3899-6.34-11.5601-7.54-12.8301-7.87-1.8206-.4689-3.1719-.5822-4.467-.5822-1.2104,0-2.3721.0989-3.823.0989-1.2344,0-2.6782-.0716-4.5398-.3367-7.5601-1.09-13-4.0799-15.3201-5.3899-1.6799-.94-8.3801-4.8501-14.48-12.8301-1.02-1.33-1.8501-2.5499-2.55-3.7-.01-.02-.03-.05-.04-.07-.0898-.14-.1699-.2699-.25-.41-.0601-.09-.1099-.1699-.1599-.2599-3.8801-6.72-3.3301-10.84-10.04-19.15-3.77-4.67-7.8-8.13-10.25-10.24-4.3301-3.73-6.9099-5.3-9.3499-6.93-1.2002-.8-2.3701-1.61-3.6902-2.7-10-8.27-13.5598-19.84-14.28-22.35-4.0898-14.35,2.9001-20-3.0999-29.18-2.9102-4.46-4.8301-3.55-12.1101-11.8-4.27-4.85-7.28-8.26-9.6199-13.35-4.4901-9.76-3.8302-19.88-3.4203-26.38.4102-6.28,1.4303-9.43.6301-16.15-.1101-.91-.6101-5.03-2.49-10.76-3.1602-9.67-6.6101-12-8.6899-18.62-2.0801-6.64-1.0601-12.02.8298-21.94,2.4202-12.75,5.6001-13.73,7.03-25.25.95-7.58-.3999-7.36.52-16.87.72-7.34,1.3999-14.38,4.9701-22.35,1.3401-3,5.0701-11.12,13.04-18.32,5.9399-5.37,9.9099-6.3,12.0999-11.79,1.8401-4.58-.1199-5.95.9402-11.8.45-2.53,1.54-6.28,11.79-19.25,9.5798-12.11,9.8-10.31,12.4199-15.21,4.1599-7.75,2.72-10.59,7.97-18.93,3.6401-5.79,7.24-9.03,8.28-9.94,4.4399-3.88,8.6899-5.89,11.1699-7.03,7.6101-3.53,8.8101-1.94,13.6602-4.97,4.5698-2.86,3.95-4.55,10.3499-9.94,4.0601-3.41,6.54-5.5,10.3501-7.03,7.9299-3.19,11.5898.08,18.6199-3.73,2.5901-1.4,1.4001-1.46,6.6301-5.38,4.8599-3.64,9.5801-7.18,16.1399-9.1,4.79-1.41,5.1799-.38,10.3501-2.07,5.1199-1.68,6.47-3.27,10.3401-4.97,4.8779-2.1463,9.3362-2.5444,14.3005-2.5444,1.3962,0,2.832.0315,4.3293.0644,9.6216.2058,11.3828,2.2576,16.4187,2.2576.8367,0,1.7629-.0566,2.8313-.1876,2.3301-.29,3.3501-.78,16.1401-6.21,12.5098-5.32,15.1099-7.63,21.73-8.07.3652-.0256.6611-.0398.947-.0398M272.9143,12.7868c-.4446,0-.8997.018-1.4758.0583-6.0293.4007-9.5918,2.0488-15.4939,4.7793-2.2563,1.0438-5.0645,2.3429-8.6692,3.8758l-2.6758,1.1366c-9.1648,3.8942-10.3936,4.3978-11.4373,4.5277-.7068.0867-1.3313.1296-1.8965.1296-1.2097,0-2.0342-.1887-3.7839-.6156-2.604-.6353-6.1704-1.5054-12.4729-1.6403-1.5452-.0339-3.009-.0662-4.4915-.0662-5.2502,0-10.9861.3859-17.3484,3.1853-1.8862.8286-3.2703,1.6241-4.4912,2.3259-1.6169.9295-2.7854,1.6011-5.1604,2.3804-1.927.6299-2.7146.7052-3.9067.8191-1.4553.139-3.2666.3121-6.2209,1.1817-7.853,2.2986-13.2744,6.359-18.5171,10.2858-2.895,2.1699-4.1514,3.3667-5.1924,4.4082-.0774.0774-.146.1485-.2146.2149-.0557.0335-.1528.09-.3074.1736-2.0708,1.1222-3.3564,1.147-5.9182,1.1964-2.896.0558-6.8621.1323-11.9275,2.17-4.9114,1.9723-8.0281,4.59-12.3418,8.2131l-.0513.043c-3.603,3.0343-5.3772,5.1572-6.6726,6.7072-1.1074,1.325-1.4805,1.7713-2.825,2.6128-1.3765.8599-1.9248.9846-3.553,1.3547-2.03.4614-4.8103,1.0934-9.2766,3.1652-2.4397,1.1213-7.5652,3.4774-12.9656,8.1968-2.4431,2.1378-6.1069,5.8845-9.707,11.6107-3.4399,5.4646-4.5264,9.1377-5.4849,12.3784-.666,2.2518-1.2412,4.1967-2.7463,7.0004-.8679,1.6231-1.0581,1.8249-2.5396,3.3961-1.6943,1.7972-4.2551,4.5132-9.1475,10.6977-11.0627,13.9983-12.6064,18.6875-13.3059,22.6204-.6548,3.6133-.4529,6.0723-.3057,7.8679.1213,1.4762.1311,1.5968-.2058,2.4357-.6013,1.5072-1.2341,2.0633-4.199,4.2385-1.6304,1.1961-3.6592,2.6846-5.9536,4.7588-9.3257,8.4246-13.5023,17.7748-14.8748,20.8474-4.0581,9.0591-4.8339,16.9669-5.584,24.6144l-.0082.0835c-.5199,5.3749-.3822,8.1338-.2716,10.3506.0935,1.8753.1611,3.2302-.2258,6.3171-.6321,5.0931-1.6152,7.6129-2.8597,10.8031-1.3175,3.3769-2.8107,7.2044-4.0962,13.9767-1.9673,10.3261-3.2676,17.1513-.6166,25.6139,1.2098,3.8507,2.7549,6.5043,4.249,9.0707,1.547,2.6573,3.0083,5.1672,4.4692,9.6378,1.0667,3.2509,1.8364,6.5572,2.1704,9.3179.4539,3.812.2068,6.0305-.1671,9.3887-.1719,1.5427-.3666,3.2914-.5017,5.3593l-.0062.0989c-.436,6.9133-1.1659,18.4841,4.1031,29.9373,2.7937,6.0773,6.3131,10.0747,10.7687,15.1355l.0464.0526c4.2717,4.841,6.9792,6.9392,8.9563,8.4713,1.417,1.0982,1.7979,1.3932,2.4958,2.4633,1.5906,2.4333,1.5078,3.9419,1.0076,8.3447-.5054,4.4443-1.197,10.531,1.1521,18.774,1.3904,4.8454,5.7966,17.0616,16.7354,26.1078,1.594,1.3163,3.0161,2.299,4.3159,3.1653.3264.218.6619.4395,1.0037.6649,2.0703,1.3661,4.2109,2.7787,7.6042,5.7017l.0562.0485c2.3628,2.0348,5.9333,5.1099,9.2444,9.2114,3.427,4.2442,4.4448,6.8913,5.7336,10.2426.876,2.2785,1.8687,4.8596,3.6155,7.8932.0933.1651.1887.3248.2927.4882.0654.1107.1321.2198.2014.3306l.0706.116c.8862,1.4563,1.8706,2.8862,3.0095,4.3712,6.3147,8.2609,13.2302,12.8372,16.79,14.829,2.1514,1.2148,8.7764,4.9555,17.9355,6.2761,1.9883.2831,3.7698.4141,5.6201.4141.9082,0,1.6931-.0312,2.3857-.0587.5415-.0216,1.009-.0402,1.4365-.0401.7708,0,1.4709.0574,2.5798.343.8171.2124,3.9856,1.3055,9.7898,6.285,4.302,3.691,6.0405,6.0601,7.8813,8.5684,2.03,2.7661,4.3311,5.9015,9.3328,9.8423,6.9421,5.4618,13.4702,8.2089,17.7251,9.5524,1.2661.4002,2.5532.7523,3.8916,1.0638,6.3315,5.8527,15.824,10.2308,20.6172,12.4417,9.5652,4.4155,20.0276,6.6548,31.0942,6.6548,5.0557,0,10.1292-.4878,14.6721-1.4105,7.2786-1.4706,11.8115-3.5569,15.8105-5.3976,4.4456-2.0461,7.6577-3.5244,14.3604-3.8499.687-.0333,1.3389-.0502,1.9368-.0502,2.5383,0,3.9758.2956,5.9658.7046,2.8516.5862,6.4004,1.3157,13.2,1.3157l.4785-.0013h.0046l.0525-.0003c10.0791-.0636,22.6228-.1427,34.9893-7.2838,4.6841-2.6982,7.158-5.1705,9.146-7.1569,1.9387-1.9372,3.1089-3.1065,6.5164-4.582,1.804-.7801,2.4104-.8947,6.6147-1.5568,2.4609-.3875,5.8311-.9182,10.9189-1.8552,12.4836-2.2947,19.3618-3.5591,24.6304-6.1126,5.4702-2.6484,7.9006-5.0573,10.0452-7.1827,1.6711-1.6565,3.1147-3.0872,6.8005-5.165,4.2554-2.3946,6.8347-3.0214,9.821-3.747,3.5637-.8658,7.6025-1.8473,13.2537-5.4789,2.9985-1.9239,10.6123-7.4255,16.4399-16.8737,2.0703-3.3768,4.1191-7.506,5.6411-11.3392.593-.6613,1.0427-1.2582,1.3992-1.7555l.0171-.024.0171-.0241c2.4165-3.4283,3.3687-7.0398,4.1335-9.9417.4541-1.7224.8462-3.2098,1.4316-4.349.4089-.7974,1.1021-1.7274,2.0635-2.7699,1.4243-1.5529,3.22-3.1273,4.9565-4.6498.9666-.8472,1.9658-1.7233,2.9009-2.5954l.5215-.4843c.3289-.3061.6575-.6124.9866-.9103l.0291-.0264.0291-.0267c5.9438-5.496,13.8872-12.5358,22.6274-18.2386,3.6074-2.3673,8.6089-6.2236,10.5747-12.4796,1.3386-4.2716,1.0195-9.1977-.8965-13.8767-2.7915-6.8251-7.6584-12.3348-13.7031-15.5116-4.9873-2.6197-10.9438-3.9476-17.7056-3.9476-8.9067,0-17.3604,2.2818-22.8835,4.1961-.7153.2483-1.6021.3788-2.5679.3788-3.3965,0-8.1204-1.7188-10.4656-5.4926-.105-.1678-.2102-.3528-.3418-.5993-.0627-.1307-.1255-.2574-.1885-.3837-3.3472-6.9063.4287-17.28,1.6375-19.8109,3.9407-4.5392,12.0632-9.7653,16.833-9.7652.3936,0,.656.0426.8071.0783,1.8398.4386,3.021,1.0907,11.4382,6.0065,1.1184.6532,2.3516,1.3735,3.7173,2.1689,1.2761.7431,2.6494,1.6375,4.1035,2.5844,5.5352,3.6049,11.8088,7.6908,19.0459,7.6908,3.6624,0,7.0908-1.0599,10.1909-3.1502l.0837-.0564.082-.0587c.1899-.1356.3792-.2717.542-.3937l.0527-.0396.052-.0404c.145-.1121.2642-.2062.3706-.2935l.2375-.1896c.1763-.1404.3242-.2585.439-.3516.2861-.2302,1.0146-.838,2.0334-1.843l.0625-.0612c.134-.1298.2661-.2612.3992-.401,1.4399-1.46,3.5149-3.8176,5.3669-6.8748l.0212-.0349.0205-.0351c.5437-.9197,1.0061-1.7686,1.4136-2.5953l.0171-.0346.0166-.0347c.1565-.3255.3113-.6515.4546-.9769l.0115-.0261.0112-.0262c.2834-.6572.5378-1.2915.7778-1.9392.4075-1.086.7585-2.2636,1.033-3.4713.1335-.596.3174-1.4635.4465-2.427.1211-.8362.2029-1.6953.2432-2.555.144-3.122-.3547-4.807-.9321-6.7581-.4568-1.5431-1.1467-3.8751-2.0806-9.027-1.7515-9.6547-1.1851-11.6424-.9988-12.2956.2942-1.0306.3982-1.1628,1.0745-2.0229.9558-1.2152,2.4001-3.0517,3.6975-6.4885,2.3955-6.3642,2.0706-12.2557,1.52-16.6782-.2886-2.3871-.7268-4.8337-1.1506-7.1997-.9321-5.2383-1.9431-8.0457-2.6121-9.9033-.5776-1.6038-.6248-1.7347-.5833-3.0064.0886-2.9005.7432-4.3463,1.6487-6.3473,1.1475-2.5348,2.5754-5.6896,2.4944-10.5742-.2947-16.8207-10.6592-18.1274-13.8289-18.1274-4.1816.0005-7.8672,1.8105-10.0693,2.8919-.2529.1242-.4817.2376-.6819.3301-3.9099,1.8022-5.8044,5.4086-7.6365,8.8962-1.9578,3.7271-4.1768,7.9514-9.0825,11.9223-7.8591,6.3558-12.873,7.4868-18.6787,8.7965-.593.1337-1.1846.2672-1.7773.4053l-.1111.0262c-.7419.175-2.48.5847-4.8464.5847-4.2004,0-8.0896-1.2768-11.5593-3.7952-6.905-5.0162-8.3696-10.3273-8.9233-15.3192-1.1006-10.0104.6594-17.2638,5.2312-21.5609,3.7832-3.566,8.9639-4.5275,14.9626-5.6407,2.5464-.4713,5.2991-.5622,8.2136-.6583,4.1406-.1365,8.4224-.2777,12.9622-1.4628,7.4167-1.9438,14.3225-5.7558,19.978-11.0261,4.0352-3.7596,6.8965-7.8094,8.5042-12.0366,4.9473-12.9727-1.2126-25.0401-6.1621-34.7365-.4434-.8684-.8809-1.7249-1.3025-2.5683-3.0452-6.09-7.6384-10.2703-11.7302-13.5563-4.7429-3.8098-9.6008-5.7418-14.4387-5.7418-10.1045,0-16.9136,8.2734-19.9165,16.0161-.865,2.2234-1.4592,4.3382-2.0337,6.3832-1.0105,3.5966-1.8088,6.4373-3.6982,8.5556-6.468,7.2538-16.8296,8.559-22.4304,8.6914-.2371.0058-.5955.0144-1.0725.0144-4.7502,0-20.7834-.9463-27.6455-13.1236-4.3538-7.7212-4.377-17.9809-.0559-24.3968,3.7019-5.4976,10.4453-8.1631,13.686-9.444,1.5627-.6124,3.3374-.8948,5.3923-1.2218,1.9946-.3173,4.2554-.6771,6.6311-1.4085,2.6182-.8067,5.5522-1.1926,8.6587-1.6012,2.8252-.3717,5.7471-.7559,8.7554-1.4888,4.4424-1.0597,7.9302-3.5628,9.7859-7.04,1.3669-2.5864,2.4885-6.8631.1475-12.7002-.3835-.9617-.8069-1.8465-1.1804-2.6272-.4426-.9257-.8611-1.8001-1.0056-2.3868-.0598-.2402-.1267-.8073-.1804-1.2631-.2217-1.8745-.5564-4.7072-2.3188-7.3812-1.5396-2.3347-3.553-3.5677-4.8853-4.3837-.2542-.1557-.5703-.3493-.6882-.4373-1.5845-1.1906-2.9451-2.3152-4.1384-3.4224-2.8977-2.6813-5.5059-5.753-7.4548-8.1301-4.4121-5.3544-10.9019-9.1556-19.8521-11.6349-3.7405-1.0351-6.0698-1.1746-7.8552-1.1746-.4131,0-.8062.0089-1.1956.0184-.262.0064-.5215.0134-.7893.0134-.5127,0-1.2153,0-2.8892-.4887-2.2717-.6632-3.1812-1.2536-6.6672-3.6481-1.8784-1.2903-4.2163-2.8961-7.5676-5.009l-.0503-.0317c-9.0679-5.712-12.821-8.0762-16.4304-8.9786-4.1934-1.0484-7.7319-1.0643-10.5752-1.0769-3.4619-.0155-5.5518-.0248-8.3708-1.5988l-.0271-.0155-.1289-.0955c-.4541-.3378-1.2991-.9665-3.2927-2.3292-3.927-2.6822-10.4387-7.1301-15.7583-9.8171-7.0867-3.5903-13.2756-4.5525-24.511-6.2993l-.0889-.0137c-2.7278-.4218-4.0112-.5447-5.9539-.7308-1.9409-.1859-4.5991-.4406-10.4294-1.1618-6.0127-.7445-9.2231-1.2216-11.1414-1.5067-2.0183-.2999-3.0315-.4505-4.3608-.4505h0Z"/>
      </g>
      <path class="cls-7" d="M404.557,401.4051c-7.6899,21.5099-30.3501,47.17-61.01,67.12-32.47,21.13-57.0999,22.89-95.6899,18.87-17.3699-1.82-42.6101-4.69-71.55-19.46-12.9299-6.6-46.3501-24.17-67.79-60.43-10.3599-17.51-6.6499-20.33-24.8599-60.49-.2002-.45-.4001-.89-.6001-1.32-16.03-35.31-8.72-16.76-13.1699-32.19-13.1602-45.72,5.6399-87.81,10.28-97.81,5-10.8,13.5598-28.78,32.1099-45.18,40.76-36.05,92.8201-31.77,108.51-30.48,18.4302,1.51,37.6899,4.2,53.9199,13.64,16.4602,9.57,32.8301,20,45.3601,34.07,4.3101,4.84,12.1201,19.41,20.0601,34.57,8.6799,16.53,17.52,33.75,22.2,39.8,17.22,22.27,46.1101,42.8,51.1602,70.88,5.1799,28.9-2.9102,51.54-8.9302,68.41Z"/>
      <path class="cls-8" d="M404.557,401.4051c-7.6899,21.5099-30.3501,47.17-61.01,67.12-32.47,21.13-57.0999,22.89-95.6899,18.87-17.3699-1.82-42.6101-4.69-71.55-19.46-12.9299-6.6-46.3501-24.17-67.79-60.43-10.3599-17.51-6.6499-20.33-24.8599-60.49-.2002-.45-.4001-.89-.6001-1.32,10.0901,4.51,20.76,10.22,29.6201,14.96,40.99,21.93,44.02,35.45,78.26,49.3,25.6099,10.36,47.3599,12.27,60.26,13.3,27.24,2.19,55.23,4.43,83.74-10.95,8.74-4.72,37.6799-20.33,45.3899-50.87,4.6602-18.46-.3501-34.84-5.48-51.65-6.8-22.2599-13.23-25.5099-22.7-48.53-5.22-12.69-9.52-26.9-12.02-38.94,8.6799,16.53,17.52,33.75,22.2,39.8,17.22,22.27,46.1101,42.8,51.1602,70.88,5.1799,28.9-2.9102,51.54-8.9302,68.41Z"/>
      <path class="cls-4" d="M235.8036,146.9985c-8.3545-2.58-15.8306-2.5026-30.7827-2.3478-17.9238.1856-30.2495,2.2402-36.2607,3.3913-13.49,2.5833-19.5574,5.2853-21.6521,6.2609-5.7205,2.664-13.1624,6.2365-18.7827,14.0869-2.5459,3.5562-8.2283,11.4933-5.4783,17.4783,3.0674,6.6755,15.1665,7.7483,23.2173,6.5217,12.9421-1.9717,13.8845-9.6512,30.5217-17.2173,5.1147-2.3261,17.1936-7.6606,32.3479-6.7827,11.6282.6737,23.7092,4.9266,24.5217,5.2174,11.1121,3.9772,15.6174,7.9872,20.8696,5.7391,4.5691-1.9557,7.6736-7.7785,7.3044-12.7826-.875-11.8597-21.1877-18.1328-25.8262-19.5652Z"/>
      <path class="cls-4" d="M109.5426,197.8681c-7.7681.2789-13.1406,9.4863-18.2607,18.2609-4.603,7.8884-7.2351,15.0383-8.8696,20.3478-4.5154,14.6681-7.2107,23.4238-3.6521,32.8696,3.1282,8.3034,11.6016,18.5,20.8696,17.7391,11.752-.9647,17.5012-18.9489,18.7825-22.9565,3.5022-10.9553,2.1987-21.4897,1.5652-26.6086-1.3816-11.1653-4.2424-13.05-3.1304-21.3914.9055-6.7921,3.5259-10.9712,1.0435-14.6086-1.8103-2.6526-5.4734-3.7554-8.3479-3.6522Z"/>
      <path class="cls-3" d="M94.934,409.1724c1.7007-8.0228.2324-16.2808-7.3042-32.3478-7.8479-16.7306-10.6487-17.1417-16.6958-29.7391-8.2944-17.2793-10.6887-32.4725-12-41.2174-1.9062-12.7127-1.6187-22.3882-1.0435-41.7391.4414-14.8519.6621-22.2779,2.6086-28.6956,4.8591-16.0204,11.5312-15.1179,19.3044-32.8696,7.5588-17.2619,3.1885-22.5428,12-36,5.592-8.54,12.0964-13.6588,16.6956-17.2174,15.228-11.7827,20.7783-8.0155,35.4783-18.7826,14.2717-10.4536,12.782-16.7454,23.4783-19.8261,10.1455-2.9221,14.3901,1.9021,25.5652-2.0869,9.9211-3.5414,9.1921-8.2775,17.7393-10.9565,9.9373-3.1147,14.8662,2.0511,31.8259,4.6956,14.2715,2.2253,25.4309.8515,32.3479,0,12.2424-1.5071,24.7839-3.051,36.5217-12,5.2822-4.0272,12.8953-9.8315,14.0869-19.3043,1.2354-9.8205-5.1667-17.7345-9.3911-22.9565-3.0793-3.8065-8.7112-10.7686-18.261-13.0435-5.6384-1.3431-10.2549-.4835-15.6521.5217-8.1072,1.5099-10.3865,3.5817-19.3044,6.7826-5.0347,1.8071-15.4741,5.4771-28.1738,6.2609-11.4326.7056-11.3521-1.7515-20.8696-.5218-10.8335,1.3997-10.0042,4.4625-24.5217,7.8261-10.8206,2.5071-15.2983,1.7363-21.3914,6.2609-4.2102,3.1265-3.8792,4.8364-7.8259,8.8696-8.9788,9.1752-16.304,6.0602-29.7393,13.5652-11.5103,6.4297-7.9211,9.7147-20.8696,17.2173-12.1787,7.0567-17.2485,5.2485-21.9128,12-4.6707,6.7606-2.2693,12.4561-8.3479,17.7391-4.168,3.6225-6.135,1.6729-10.9565,5.2174-1.5945,1.1722-6.0613,4.8273-10.9565,20.8696-3.5759,11.7186-1.8586,11.9517-4.1738,17.7391-5.1108,12.7766-13.4951,11.6783-21.9131,24-8.2988,12.147-9.0027,26.1713-9.3914,33.913-.6421,12.7903,2.3267,17.0217-.5217,29.2174-2.3789,10.1864-5.1873,10.3907-5.2173,16.6956-.0581,12.1396,10.3262,16.8611,16.1738,29.2174,7.342,15.5142-5.3987,21.579,1.0435,37.0435,3.8538,9.2509,8.2188,8.3516,16.6956,23.4782,4.7827,8.5345,7.6399,16.3994,8.8696,19.8261,5.6035,15.6157,4.1953,20.1926,9.9131,26.6087.7068.793,9.481,10.409,17.2173,7.826,6.3315-2.114,8.2485-11.1572,8.8696-14.0869Z"/>
      <path class="cls-2" d="M514.1071,304.135c-.5701,2-1.1001,5.08.8301,15.72,2.01,11.09,3.0698,10.39,2.8999,14.08-.03.64-.0901,1.26-.1799,1.87-.0801.61-.2002,1.21-.3301,1.79-.2.8799-.45,1.72-.75,2.52-.1899.54-.3999,1.06-.6299,1.57-.1101.25-.23.5-.3501.75-.3501.73-.74,1.43-1.1401,2.09-1.46,2.41-3.1099,4.3-4.3398,5.54-.1101.12-.22.22-.3301.33-.73.72-1.27,1.18-1.47,1.34-.1599.13-.3999.32-.7.56-.0701.06-.1499.12-.24.19-.1201.09-.26.19-.4001.29-8.2898,5.59-17.3999-2.79-25.2998-7.39-12.0701-7.03-13.78-8.18-17.2202-9-8.0198-1.9-20.3098,6.18-25.6299,12.72-.76.93-7.71,16.16-2.1799,27.4901.0701.14.1399.28.21.43.21.4.4299.8.6799,1.2,4.8101,7.7401,15.1699,10.6201,21.9399,8.27,10.3301-3.58,24.5-6,34.5901-.7,4.7,2.47,8.22,6.79,10.22,11.68,1.1301,2.76,1.5701,5.9.6802,8.7401-1.1501,3.66-4.29,6.31-7.4902,8.41-8.46,5.52-16.2,12.15-23.6299,19.02-5.95,5.02-8.22,7.04-9.8501,9.12-.4299.54-.8098,1.08-1.21,1.68-4.76,7.25-3.0999,10.57-7.04,16.15-.4299.6-.9299,1.24-1.75,1.98-1.6399,4.48-3.8999,8.81-5.5798,11.55-5.3601,8.69-12.3601,13.37-14.0901,14.48-9.01,5.79-12.1799,3.08-22.7,9-9.3301,5.26-7.9202,8.01-16.4299,12.1301-4.25,2.0599-10.46,3.23-22.7002,5.48-13.8999,2.5601-14.8699,2.05-19.1699,3.9099-8.73,3.78-8.0898,7.3201-16.4399,12.1301-10.6499,6.1499-21.79,6.21-31.3,6.27-12.46.0599-12.21-2.4301-21.9099-1.9601-14.6201.7101-16.76,6.4501-31.3101,9.39-3.8901.79-22.0701,4.08-41.0901-4.7-4.6399-2.1401-14.8899-6.8701-20.03-12.51-1.6299-.3101-3.4399-.73-5.3699-1.3401-2.0901-.6599-8.3801-2.8199-15.3201-8.28-8.4399-6.6499-7.1099-9.75-16.97-18.21-7.3899-6.34-11.5601-7.54-12.8301-7.87-4.97-1.28-6.4399.09-12.8298-.82-7.5601-1.09-13-4.08-15.3201-5.39-1.6799-.94-8.3801-4.85-14.48-12.83-1.02-1.33-1.8501-2.55-2.55-3.7-.1001-.16-.2-.32-.29-.48-.0601-.09-.1099-.18-.1499-.26h-.01c-3.8801-6.72-3.3301-10.84-10.04-19.15-3.77-4.67-7.8-8.13-10.25-10.24-4.3301-3.73-6.9099-5.3-9.3499-6.93,5.8198,1.63,11.2898,4,15.8799,7.19,4.22,2.92,9.21,7.58,20.8701,15.13,11.6399,7.53,17.46,11.3,25.5698,13.56,13.29,3.72,15.8901-.9,30.78,2.09,12.05,2.42,14.5801,6.29,28.4299,11.74,3.8501,1.51,13.5701,4.28,37.5701,8.61,39.6799,7.15,62.6699,11.29,89.22,3.13,21.8-6.71,36.3201-18.74,52.4302-32.09,12.2698-10.17,25.1899-21.07,36-39.91,3.8499-6.7,12.2-21.57,15.2598-42.26,2.6902-18.19-1.6799-20.77,2.7402-33.39.8899-2.54,7.6699-23.69,27.3899-32.87,7.24-3.37,13.0601-3.45,25.05-10.18,16.72-9.39,24.0063-15.6174,25.24-16.69,16.4299-14.2848,12.5999-29.52,16.8499-27.74.54.23.8901.72.98,1.51.02.11.02.23.02.36v.23c-.1699,5.23,1.6001,4.88,3.3101,14.4901,1.3301,7.5099,2.3999,13.5,0,19.87-1.8501,4.9-3.6201,4.38-4.97,9.11Z"/>
      <path class="cls-2" d="M238.6732,117.5203c-2.2537-3.1716-8.1965-4.2441-11.7393-1.0435-2.4849,2.2448-3.1611,6.0243-1.8259,9.1304,1.3879,3.2289,4.792,5.3632,7.8259,4.9565,5.2031-.6973,8.7603-8.7921,5.7393-13.0435Z"/>
      <path class="cls-2" d="M318.2384,127.1724c-1.686-2.9265-5.7949-4.6486-8.6086-3.1304-2.5071,1.3526-2.8162,4.6462-2.8696,5.2173-.041.4366-.3262,4.1624,2.6086,6.5218,1.4551,1.1698,4.0095,2.2514,6.261,1.3043,3.2783-1.379,4.5769-6.4968,2.6086-9.913Z"/>
      <path class="cls-2" d="M356.847,80.7376c-3.6504-3.001-10.8596-2.8577-14.6086,2.087-3.3542,4.424-2.3584,10.607,1.3042,14.087,2.7126,2.5775,7.0312,3.808,10.4348,2.3478,6.3142-2.7089,8.2078-14.1332,2.8696-18.5217Z"/>
      <path class="cls-2" d="M401.0643,112.6942c-1.6484-2.6857-5.9985-3.248-7.8259-1.3044-1.4951,1.5901-.9082,4.4388.1304,6.1305.967,1.5749,3.0737,3.3653,5.0869,2.8695,2.5935-.6387,4.3259-4.8978,2.6086-7.6956Z"/>
      <path class="cls-2" d="M404.0643,77.0855c-2.2285-2.9161-8.354-3.4013-11.4783,0-1.7092,1.8608-2.2734,4.6163-1.5652,7.0435,1.0271,3.5197,4.5789,5.8289,7.5652,5.4783,5.0469-.5925,8.3484-8.7657,5.4783-12.5217Z"/>
      <path class="cls-2" d="M376.1515,177.7812c-.0254-4.3311-2.0869-10.9526-7.5654-12.5218-5.7561-1.6486-11.0796,3.4844-13.3042,7.0435-2.2446,3.5909-4.5679,10.7518-.261,15.6522,3.3689,3.8331,9.2021,4.4716,13.5652,2.6087,7.4688-3.1888,7.5676-12.4001,7.5654-12.7826Z"/>
      <path class="cls-2" d="M424.934,185.8681c-1.5989-2.1234-4.8835-3.3102-7.5652-2.2173-2.353.9589-3.2498,3.2686-3.6521,4.3043-.9177,2.3632-1.5962,7.0052,1.3042,9.1304,2.0806,1.5246,5.0437,1.0511,6.9131,0,3.6995-2.0802,5.5706-7.8035,3-11.2174Z"/>
      <path class="cls-2" d="M123.108,451.6942c1.3755-2.0349,2.2202-5.8978-.261-8.6087-2.24-2.4473-6.2087-2.8832-8.8696-.7826-2.4302,1.9184-2.9697,5.3209-1.8259,7.826,1.688,3.6972,6.7119,4.7172,9.3911,3.1304.8291-.4911,1.2776-1.1394,1.5654-1.5652Z"/>
      <path class="cls-2" d="M421.8036,244.042c-.1277-3.6445-1.988-8.5467-6.261-10.174-5.3875-2.0518-11.2266,2.3914-13.6956,6.6522-.6106,1.0537-3.6394,6.6255-.7827,11.3478,2.7144,4.4871,9.2607,5.7579,14.0872,3.5217,4.5522-2.1091,6.8052-6.9817,6.6521-11.3478Z"/>
      <path class="cls-2" d="M479.1949,194.9985c.8188-3.3262-1.6206-8.0634-5.7393-9.1304-4.2156-1.0921-7.5708,2.3391-7.8259,2.6087-2.9106,3.0748-3.5002,8.3034-1.3044,10.6957,3.3276,3.6256,13.532,1.2594,14.8696-4.174Z"/>
      <path class="cls-2" d="M479.5861,150.3898c-.7708-2.26-4.1755-3.3947-6.3911-1.9565-1.5908,1.0327-2.4734,3.3301-1.5652,5.2174.7412,1.5401,2.4412,2.3216,3.9128,2.2173,2.5862-.1832,4.845-3.1281,4.0435-5.4783Z"/>
      <path class="cls-2" d="M368.8812,140.2812c.3943-1.6547-.0139-3.9572-1.8259-5.087-2.1953-1.3687-4.6768.0902-4.9565.2609-.4004.2444-2.175,1.3271-2.3479,3.3913-.1748,2.0862,1.4297,3.467,1.8262,3.7827,1.2683,1.0097,3.323,1.5848,5.0869.6522,1.6365-.8654,2.1091-2.5457,2.2173-3Z"/>
      <path class="cls-2" d="M380.5861,232.8246c-.8667-3.2405-4.3201-5.9083-8.0869-5.2174-3.2976.6049-5.646,3.5654-5.739,6.7826-.1077,3.7213,2.8269,6.924,6.2607,7.3044,3.7046.4103,6.1555-2.6674,6.261-2.8044.2153-.2799,2.1545-2.8864,1.3042-6.0652Z"/>
      <path class="cls-2" d="M370.8361,205.8898c-1.0901-.6141-2.7913-.6345-3.6194.2935-1.0881,1.2192-.2332,3.587,1.0759,4.7935.9573.8821,2.686,1.6307,3.6196.9783,1.3452-.94,1.1067-4.8355-1.0762-6.0652Z"/>
      <path class="cls-2" d="M436.934,297.2594c-1.1023-5.5794-7.9912-8.4091-13.3042-7.5652-5.3926.8565-10.8413,5.7642-10.1741,10.6956.7524,5.561,8.8044,7.6208,9.6523,7.8261,1.7007.4119,5.3582,1.2976,8.8694-.7826,3.3618-1.9917,5.7415-6.2001,4.9565-10.174Z"/>
      <path class="cls-2" d="M472.4774,288.7485c-1.3474-.8097-3.5999-.5916-4.5977.9783-1.0144,1.5962-.1094,3.6104,1.0759,4.5978,1.0537.8778,2.7947,1.3323,3.9131.587,1.7119-1.1409,1.6926-4.9109-.3914-6.1631Z"/>
      <path class="cls-2" d="M184.4122,128.4768c-.6348-3.6446-4.1638-5.7618-7.0435-6.2609-2.6677-.4623-6.812.1118-8.6086,3.3913-1.833,3.3457.05,7.184,1.8259,9.1304.5984.6557,3.0732,3.167,6.522,2.8696,4.1868-.3611,8.0735-4.7124,7.3042-9.1304Z"/>
      <path class="cls-5" d="M280.934,64.8246c-2.1841-3.1204-6.2002-3.9817-9.3914-3.1304-3.3164.8846-6.4446,3.806-6.6521,7.8261-.2085,4.0386,2.615,7.5583,6.261,8.6086,3.1807.9163,6.5044-.186,8.6086-2.3478,2.6946-2.7682,3.5999-7.4906,1.1738-10.9565Z"/>
      <path class="cls-5" d="M229.5426,61.955c-2.0879-2.5357-6.0386-2.257-8.3477-.6522-.386.2682-2.5337,1.8298-2.6089,4.5652-.0847,3.0781,2.5325,4.8237,2.7393,4.9565,2.0271,1.3026,4.6562,1.2139,6.5217,0,2.7917-1.8165,3.9124-6.1776,1.6956-8.8696Z"/>
      <path class="cls-5" d="M218.1298,87.7159c-.9797-2.8793-4.5908-4.0542-7.2393-3.1304-2.0488.7146-4.0225,2.8597-3.7173,5.087.3259,2.3779,3.063,3.4887,4.1086,3.913,1.0569.4288,2.6943,1.0933,4.3042.3913,2.1201-.9246,3.3618-3.8566,2.5437-6.2609Z"/>
      <path class="cls-5" d="M187.9991,71.7703c-.5508-2.0337-2.9751-3.1285-4.989-2.9348-1.5269.1469-3.3247,1.0831-4.011,2.9348-.0522.1413-.8596,2.4423.6848,4.3043,1.5317,1.8467,3.9146,1.4992,4.1086,1.4674,1.333-.2184,2.168-1.0057,2.5435-1.3696.2708-.2623,2.2617-2.1918,1.6631-4.4022Z"/>
      <path class="cls-5" d="M178.0209,107.4768c1.0835-1.5011.5811-4.0068-1.0435-4.6956-1.2864-.5455-2.9341.1938-3.6521,1.4348-.8228,1.422-.4558,3.5566,1.0435,4.3044,1.2781.6375,2.8843.0203,3.6521-1.0435Z"/>
      <path class="cls-5" d="M127.4122,109.1724c.1006-1.5037-.5713-3.4889-2.3479-4.3044-1.2385-.5685-2.7012-.4252-3.7825.2609-1.8538,1.1763-2.1921,3.6984-1.5652,5.4783.4163,1.1818,1.5369,2.8282,3.2607,3,2.2219.2215,4.2803-2.1234,4.4348-4.4348Z"/>
      <path class="cls-5" d="M90.7601,156.2594c.9163-1.7993,1.8865-3.7048,1.0435-5.0869-1.0198-1.6716-4.4487-2.1786-6.3914-.3913-1.5862,1.4592-1.5627,3.8787-.7825,5.4782.7083,1.4517,2.405,2.9764,3.9128,2.6087,1.0151-.2476,1.5261-1.2509,2.2175-2.6087Z"/>
      <path class="cls-5" d="M52.608,195.9116c-1.1858-1.5938-2.5483-3.425-4.6958-3.5218-2.9585-.1334-4.8708,3.1397-5.0869,3.5218-.1038.1837-2.3574,4.3146,0,7.2391,2.0791,2.5792,5.853,1.8737,6.4565,1.7609.343-.0641,4.6033-.9191,5.2825-3.9131.4272-1.8835-.8062-3.5412-1.9563-5.0869Z"/>
      <path class="cls-5" d="M121.2819,138.1942c.5994-.2076,5.3999-1.9364,5.6738-5.2826.2888-3.5282-4.5859-7.252-9-6.8478-3.3984.3112-5.4106,2.9672-5.6738,3.326-.2522.3439-2.7419,3.8347-1.3696,6.6522,1.5452,3.1728,6.9397,3.34,10.3696,2.1522Z"/>
      <path class="cls-5" d="M54.2384,232.8246c-.4265-4.0333-4.3555-6.9084-8.0869-6.2609-4.2754.7419-6.6611,5.8253-5.2175,9.6522.967,2.564,3.6338,4.5126,6.5217,4.4348,3.8032-.1025,7.2192-3.6986,6.7827-7.8261Z"/>
      <path class="cls-5" d="M38.847,268.042c-1.5583-1.7951-5.0605-2.1332-7.5652-.5217-2.8882,1.8582-3.668,5.8056-2.0869,8.6086,1.0083,1.7876,3.1309,3.383,5.2173,3.1304,4.127-.4996,7.1318-8.1104,4.4348-11.2173Z"/>
      <path class="cls-5" d="M56.9122,322.1072c.3535-2.5765-1.6245-4.603-3.1304-5.4783-2.5952-1.5085-6.8479-1.3769-8.4131,1.3696-1.4851,2.6061.2791,6.1113,2.5435,7.6304.4353.2921,1.9316,1.2101,3.9131.9783,2.1926-.2565,4.729-1.8915,5.0869-4.5Z"/>
      <path class="cls-5" d="M67.6732,378.7812c1.3862-1.5717.8201-3.7755.7825-3.9131-.5173-1.8904-2.2859-3.3096-4.3042-3.3913-1.9187-.0776-3.5452,1.0745-4.3044,2.4783-.1838.34-.9028,1.6693-.3914,3.1304.4304,1.2299,1.4749,1.8165,1.9565,2.087,1.6099.9041,4.6221,1.4669,6.261-.3913Z"/>
      <path class="cls-5" d="M66.7926,352.3355c.0408-.2097.3835-2.154-1.0759-3.2283-.9495-.6989-2.3438-.7956-3.3262-.0978-1.2192.8661-1.1135,2.4661-1.0762,3.0327.0378.5718.1172,1.7754,1.0762,2.4456.9866.6895,2.3647.438,3.2283-.1956.9077-.6662,1.1162-1.6592,1.1738-1.9565Z"/>
      <path class="cls-5" d="M44.2926,342.6507c-.1453-1.6478-1.79-2.6592-3.1304-2.6414-.2349.0031-1.0835.0462-1.7607.6848-1.0647,1.004-.7444,2.5732-.6848,2.837.0718.317.3416,1.5111,1.4673,2.0543.9836.4747,1.9482.128,2.25,0,1.0542-.447,1.9766-1.5978,1.8586-2.9348Z"/>
      <path class="cls-5" d="M89.9774,395.2159c.2021-.6465,1.0315-3.2986-.6521-5.3478-1.3838-1.6844-4.051-2.4568-6.1304-1.3043-2.5979,1.4398-2.3699,4.8259-2.3479,5.087.021.2508.2896,2.92,2.6086,4.3043.3718.2219,2.1855,1.3046,4.0435.5217,1.6799-.7078,2.2239-2.447,2.4783-3.2609Z"/>
      <path class="cls-5" d="M52.934,297.2594c.5544-.5341,2.1365-2.0582,1.6958-3.913-.4443-1.8699-2.5752-2.5233-2.8696-2.6087-.2874-.0834-2.4163-.7006-3.7827.6522-1.3601,1.3465-.7751,3.4669-.6521,3.9131.3625,1.314,1.488,3.2031,3.1304,3.2609,1.0847.0382,1.8923-.74,2.4783-1.3044Z"/>
      <path class="cls-5" d="M321.0426,73.2376c.116-1.3838-1.0569-2.7458-2.3477-3.2609-1.7795-.7102-3.793.1855-4.8262,1.5652-.9902,1.3224-1.3354,3.431-.2607,4.826.0696.0903.9626,1.2135,2.3477,1.2391,1.0154.0188,1.6973-.5636,2.8696-1.5652,1.4233-1.2159,2.135-1.824,2.2173-2.8044Z"/>
      <path class="cls-5" d="M299.8143,43.205c-.7839-2.3379-3.4329-4.1619-6.1628-3.8152-3.0151.3829-4.3975,3.194-4.5979,3.6196-.8774,1.8624-1.1826,4.8414.7825,6.9457,1.5876,1.7,4.1755,2.3136,6.261,1.4674,2.137-.8671,2.9475-2.9429,3.3262-3.9131.354-.907.9868-2.5278.3911-4.3043Z"/>
      <path class="cls-1" d="M514.1071,304.135c-.5701,2-1.1001,5.08.8301,15.72,2.01,11.09,3.0698,10.39,2.8999,14.08-.03.64-.0901,1.26-.1799,1.87-.0801.61-.2002,1.21-.3301,1.79-.2.8799-.45,1.72-.75,2.52-.2.54-.4099,1.06-.6299,1.57-.1101.25-.23.5-.3501.75-.3599.73-.75,1.43-1.1401,2.09-1.46,2.41-3.1099,4.3-4.3398,5.54-.1101.12-.22.22-.3301.33-.73.72-1.27,1.18-1.47,1.34-.1599.13-.3999.32-.7.56-.0701.06-.1499.12-.24.19-.1201.09-.26.19-.4001.29-8.2898,5.59-17.3999-2.79-25.2998-7.39-12.0701-7.03-13.78-8.18-17.2202-9-8.0198-1.9-20.3098,6.18-25.6299,12.72-.76.93-7.71,16.16-2.1799,27.4901.0701.14.1399.28.21.43.21.4.4299.8.6799,1.2,4.8101,7.7401,15.1699,10.6201,21.9399,8.27,10.3301-3.58,24.5-6,34.5901-.7,4.7,2.47,8.22,6.79,10.22,11.68,1.1301,2.76,1.5701,5.9.6802,8.7401-1.1501,3.66-4.29,6.31-7.4902,8.41-8.46,5.52-16.2,12.15-23.6299,19.02-.53.48-1.0601.98-1.5901,1.47-2.5198,2.35-5.71,4.87-8.26,7.65-1.2998,1.41-2.4299,2.88-3.23,4.44-2.21,4.3-2.1299,9.29-5.02,13.39-.4299.6-.9299,1.24-1.75,1.98-1.6399,4.48-3.8999,8.81-5.5798,11.55-5.3601,8.69-12.3601,13.37-14.0901,14.48-9.01,5.79-12.1799,3.08-22.7,9-9.3301,5.26-7.9202,8.01-16.4299,12.1301-4.25,2.0599-10.46,3.23-22.7002,5.48-13.8999,2.5601-14.8699,2.05-19.1699,3.9099-8.73,3.78-8.0898,7.3201-16.4399,12.1301-10.6499,6.1499-21.79,6.21-31.3,6.27-12.46.0599-12.21-2.4301-21.9099-1.9601-14.6201.7101-16.76,6.4501-31.3101,9.39-3.8901.79-22.0701,4.08-41.0901-4.7-4.6399-2.1401-14.8899-6.8701-20.03-12.51-1.6299-.3101-3.4399-.73-5.3699-1.3401-2.0901-.6599-8.3801-2.8199-15.3201-8.28-8.4399-6.6499-7.1099-9.75-16.97-18.21-7.3899-6.34-11.5601-7.54-12.8301-7.87-4.97-1.28-6.4399.09-12.8298-.82-7.5601-1.09-13-4.08-15.3201-5.39-1.6799-.94-8.3801-4.85-14.48-12.83-1.02-1.33-1.8501-2.55-2.55-3.7-.01-.02-.03-.05-.04-.07,2.78,1.25,5.8701,2.61,9.3101,4.11,11.6499,5.08,14.47,6.1,16.04,6.65,18.79,6.63,21.2,3.44,30.9199,8.61,10.76,5.73,8.8701,10.21,22.3,18,5.3699,3.11,6.4399,2.85,19.4399,8.48,20,8.67,17.5801,9.36,24,11.22,20,5.79,40.23-1.8099,46.1702-4.0499,9.0798-3.41,10.5598-5.77,19.5598-7.8201,12.26-2.8,15.1101.29,25.6401-1.37,17.5999-2.78,15.9099-12.42,34.0999-16.24,13.04-2.74,19.8.98,29.48-5.48,4.4001-2.9301,3.2402-3.86,9.6501-9.39,5.74-4.95,10.8499-7.81,25.05-14.87,20.8899-10.39,19.5098-9,20.8699-10.17,14.1899-12.2599,7.1799-27.06,21.1301-36.53,6.29-4.26,13.1099-4.91,14.3499-10.43.6702-2.98-.4399-6.73-2.8699-8.61-2.8801-2.23-6.02-.61-11.2202-1.04,0,0-6.8098-.56-13.8298-5.74-10.72-7.91-10.29-27.13-7.8201-38.09.77-3.45,6.1401-25.6299,22.4302-31.3,3.1099-1.08,11.2898-.9,27.6499-.52,11.9299.27,18.3599.8,21.6599-3.4,2.22-2.83.8701-5.1,2.3401-10.69,2.04-7.76,6.74-11.41,10.96-16.44,3.6799-4.38,5.8799-8.5,7.3201-12.17.5701,4.58.5398,8.74-1.0901,13.07-1.8501,4.9-3.6201,4.38-4.97,9.11Z"/>
      <path class="cls-1" d="M433.347,413.8681c-2.79-2.1996-7.0481-1.9807-9.3914.3913-2.7083,2.7415-1.4812,6.9645-1.1738,8.0218.28.9633,1.5044,5.1766,4.8914,5.8696,3.175.6497,6.239-2.2057,7.4348-4.8914,1.1829-2.6566,1.3389-6.9474-1.761-9.3913Z"/>
      <path class="cls-1" d="M412.9015,438.0312c-1.5574-1.4128-4.1624-1.3143-5.9675-.2935-2.0933,1.1838-3.4058,3.7747-2.739,6.1631.3906,1.399,1.4617,2.734,3.0325,3.326,1.5164.5715,3.1509.3199,4.3044-.3913,2.7515-1.6962,3.771-6.6257,1.3696-8.8043Z"/>
      <path class="cls-1" d="M373.934,463.6942c-1.0813-1.0923-3.2166-1.2781-4.6956-.1304-1.458,1.1313-1.8872,3.2548-.9131,4.826.8804,1.4198,2.6797,2.0231,4.0435,1.5652,2.3157-.7775,3.2395-4.5696,1.5652-6.2609Z"/>
      <path class="cls-1" d="M422.9774,391.955c-2.0347-.5907-4.0984.9876-4.5,2.7391-.5588,2.4365,2.1267,5.0851,4.3044,4.6956,1.3264-.2372,2.2578-1.5644,2.5435-2.7391.4207-1.7293-.3203-4.107-2.3479-4.6957Z"/>
      <path class="cls-1" d="M487.4122,312.2594c-1.1843-2.228-4.2939-3.3966-6.6521-2.0869-1.9019,1.0562-2.9009,3.4944-2.2175,5.4783.5549,1.6115,2.0105,2.3151,2.3479,2.4782,1.9485.942,4.9988.792,6.3914-1.3043.9294-1.399.8362-3.2373.1304-4.5652Z"/>
      <path class="cls-1" d="M494.4557,292.7594c-1.7786-.4741-3.8528,1.2924-3.9783,3.2609-.0874,1.3705.7715,2.8165,2.0869,3.326.2246.087,1.1536.4144,2.1523,0,1.4763-.6125,1.7852-2.298,1.8259-2.5435.2568-1.5423-.4873-3.6171-2.0869-4.0435Z"/>
      <path class="cls-1" d="M455.3905,314.6724c-.2708-.2363-1.5442-1.3474-2.8044-.7827-1.03.4616-1.5405,1.8138-1.1738,2.9348.3892,1.1896,1.6228,1.6818,2.5435,1.6957.9927.015,2.303-.5158,2.5435-1.5652.251-1.0961-.8298-2.0392-1.1086-2.2826Z"/>
      <path class="cls-1" d="M362.9774,490.6942c1.4224-1.4037,2.7068-4.5269,1.0435-6.2609-1.5486-1.6142-4.825-1.1627-5.8694.3913-1.4922,2.22,1.5151,6.7726,3.5217,6.6522.5442-.0327.9199-.4033,1.3042-.7826Z"/>
      <path class="cls-1" d="M300.3688,507.5202c.6565-1.4113.5312-3.3823-.7827-4.5652-1.5149-1.3636-3.9436-1.0805-5.3477.2609-1.1951,1.1417-1.7815,3.1781-.7827,4.826.9919,1.6364,3.041,2.0547,4.5652,1.5653,1.5867-.5094,2.2566-1.8905,2.3479-2.087Z"/>
      <path class="cls-1" d="M254.4557,517.042c1.4233-.769,2.2656-2.356,2.0869-3.913-.2539-2.2118-2.5049-3.8123-4.4346-3.5217-1.3762.2072-2.167,1.3123-2.3479,1.5652-.9941,1.3893-1.4062,3.8469.1304,5.3478,1.1995,1.1716,3.1189,1.3032,4.5652.5217Z"/>
      <path class="cls-1" d="M243.7601,497.9985c-3.1035-3.7484-10.0645-3.1643-11.9348,0-1.7334,2.9326,1.0281,7.8748,4.5,9.9783.6409.3883,3.6284,2.1982,6.0652.9783,3.1475-1.5758,4.1533-7.5944,1.3696-10.9565Z"/>
      <path class="cls-1" d="M213.434,504.455c-.7874-1.6382-2.4988-2.9681-4.5-3.1304-3.0259-.2454-5.9897,2.2374-6.0652,4.6957-.0657,2.1442,2.0862,3.6234,4.5,5.2825,1.4724,1.012,2.2168,1.5238,3.1304,1.3696,2.3306-.3933,4.5234-4.9121,2.9348-8.2174Z"/>
      <path class="cls-1" d="M193.4774,489.6833c-1.1155-1.9639-3.8276-3.0735-5.8694-2.0544-1.1819.5899-2.0708,1.8589-2.1523,3.2283-.1306,2.1887,1.8645,3.5706,2.6414,4.1087.7307.5062,2.3579,1.6333,3.8152,1.0761,1.8933-.7239,2.8755-4.0519,1.5652-6.3587Z"/>
      <path class="cls-1" d="M178.9991,505.9224c.9124-.6744,1.2488-2.4969.3914-3.5217-.8142-.9733-2.2969-.7392-2.6414-.6848-1.175.1855-2.6233,1.0213-2.6411,1.9565-.0276,1.4458,3.3586,3.3826,4.8911,2.25Z"/>
      <path class="cls-1" d="M166.2819,476.4768c-1.4075-2.0316-4.3293-1.8538-4.6958-1.826-2.0337.1541-4.6189,1.4252-5.0869,3.6522-.6023,2.8661,2.6567,5.6284,5.3479,6,.4045.0558,1.0679.1398,1.8262-.1304,2.5405-.9053,4.3708-5.1523,2.6086-7.6957Z"/>
      <path class="cls-1" d="M134.1298,475.1072c-.1824-.2518-1.3362-1.8448-2.7393-1.4348-1.0251.2996-1.6399,1.5093-1.5,2.6087.1426,1.121,1.0505,1.9778,2.0869,2.1522,1.177.198,2.498-.4877,2.7393-1.5.1821-.7643-.3147-1.4502-.5869-1.8261Z"/>
      <path class="cls-1" d="M119.5209,469.042c-.3833-.7758-1.3352-1.8157-2.6411-1.6631-.9836.1149-1.8274.8666-2.0544,1.7609-.3726,1.4684,1.0464,2.8165,2.25,3.2283.2717.093,1.2957.4432,2.0544-.0978.9182-.6548.8904-2.2177.3911-3.2283Z"/>
      <path class="cls-1" d="M410.1949,462.6507c-.2053-.2704-1.6313-2.0863-3.9131-2.087-.3557-.0001-2.7646-.0008-3.3914,1.6956-.425,1.1507.1321,2.6434,1.4348,3.5218"/>
      <g>
        <circle class="cls-5" cx="415.0249" cy="143.6551" r="9.8954"/>
        <path class="cls-6" d="M415.0249,133.7596c5.4651,0,9.8955,4.4303,9.8955,9.8954s-4.4304,9.8954-9.8955,9.8954-9.8955-4.4304-9.8955-9.8954,4.4304-9.8954,9.8955-9.8954M415.0249,131.3682c-6.7751,0-12.2869,5.5119-12.2869,12.2869s5.5117,12.2869,12.2869,12.2869,12.2869-5.5119,12.2869-12.2869-5.5117-12.2869-12.2869-12.2869h0Z"/>
      </g>
      <g>
        <circle class="cls-5" cx="474.2681" cy="95.4418" r="7.2391"/>
        <path class="cls-6" d="M474.268,88.2027c3.998,0,7.2393,3.2411,7.2393,7.2391s-3.2412,7.2391-7.2393,7.2391-7.239-3.2411-7.239-7.2391,3.241-7.2391,7.239-7.2391M474.268,85.3043c-5.5898,0-10.1375,4.5477-10.1375,10.1375s4.5476,10.1375,10.1375,10.1375,10.1377-4.5477,10.1377-10.1375-4.5479-10.1375-10.1377-10.1375h0Z"/>
      </g>
      <g>
        <circle class="cls-5" cx="511.3442" cy="103.4858" r="6.75"/>
        <path class="cls-6" d="M511.3442,96.7358c3.728,0,6.75,3.0221,6.75,6.75s-3.022,6.75-6.75,6.75-6.75-3.0221-6.75-6.75,3.022-6.75,6.75-6.75M511.3442,93.8374c-5.3201,0-9.6484,4.3282-9.6484,9.6484s4.3284,9.6484,9.6484,9.6484,9.6484-4.3282,9.6484-9.6484-4.3284-9.6484-9.6484-9.6484h0Z"/>
      </g>
      <g>
        <circle class="cls-5" cx="509.879" cy="52.6341" r="13.2867" transform="translate(376.2515 547.4984) rotate(-80.7826)"/>
        <path class="cls-6" d="M509.8791,39.3474c7.3381,0,13.2866,5.9487,13.2866,13.2867s-5.9485,13.2867-13.2866,13.2867-13.2866-5.9487-13.2866-13.2867,5.9485-13.2867,13.2866-13.2867M509.8791,36.449c-8.9243,0-16.1851,7.2606-16.1851,16.1851s7.2607,16.1851,16.1851,16.1851,16.1851-7.2606,16.1851-16.1851-7.2607-16.1851-16.1851-16.1851h0Z"/>
      </g>
      <g>
        <circle class="cls-5" cx="476.1691" cy="11.6268" r="8.7284"/>
        <path class="cls-6" d="M476.1692,2.8984c4.8206,0,8.7285,3.9078,8.7285,8.7284s-3.908,8.7284-8.7285,8.7284-8.7285-3.9078-8.7285-8.7284,3.908-8.7284,8.7285-8.7284M476.1692,0c-6.4111,0-11.627,5.2158-11.627,11.6268s5.2158,11.6268,11.627,11.6268,11.627-5.2158,11.627-11.6268-5.2158-11.6268-11.627-11.6268h0Z"/>
      </g>
      <g>
        <circle class="cls-5" cx="468.5489" cy="60.369" r="5.5518"/>
        <path class="cls-6" d="M468.549,54.8172c3.0662,0,5.5518,2.4856,5.5518,5.5518s-2.4856,5.5518-5.5518,5.5518-5.552-2.4856-5.552-5.5518,2.4856-5.5518,5.552-5.5518M468.549,51.9189c-4.6597,0-8.4504,3.7907-8.4504,8.4502s3.7908,8.4502,8.4504,8.4502,8.4502-3.7907,8.4502-8.4502-3.7908-8.4502-8.4502-8.4502h0Z"/>
      </g>
      <g>
        <circle class="cls-5" cx="451.279" cy="135.844" r="4.5978"/>
        <path class="cls-6" d="M451.279,131.2462c2.5393,0,4.5979,2.0585,4.5979,4.5978s-2.0586,4.5978-4.5979,4.5978-4.5979-2.0585-4.5979-4.5978,2.0586-4.5978,4.5979-4.5978M451.279,128.3478c-4.1335,0-7.4963,3.3628-7.4963,7.4962s3.3628,7.4962,7.4963,7.4962,7.4963-3.3628,7.4963-7.4962-3.3628-7.4962-7.4963-7.4962h0Z"/>
      </g>
      <g>
        <circle class="cls-5" cx="434.991" cy="162.6973" r="3.4728"/>
        <path class="cls-6" d="M434.9909,159.2245c1.918,0,3.4729,1.5548,3.4729,3.4728s-1.5549,3.4728-3.4729,3.4728-3.4729-1.5548-3.4729-3.4728,1.5549-3.4728,3.4729-3.4728M434.9909,156.3261c-3.5132,0-6.3713,2.8581-6.3713,6.3712s2.8582,6.3712,6.3713,6.3712,6.3713-2.8581,6.3713-6.3712-2.8582-6.3712-6.3713-6.3712h0Z"/>
      </g>
      <g>
        <circle class="cls-5" cx="568.3768" cy="157.507" r="7.4348"/>
        <path class="cls-6" d="M568.3769,150.0722c4.106,0,7.4346,3.3287,7.4346,7.4348s-3.3286,7.4348-7.4346,7.4348-7.4348-3.3287-7.4348-7.4348,3.3286-7.4348,7.4348-7.4348M568.3769,147.1739c-5.6978,0-10.3333,4.6354-10.3333,10.3331s4.6355,10.3332,10.3333,10.3332,10.333-4.6355,10.333-10.3332-4.6355-10.3331-10.333-10.3331h0Z"/>
      </g>
      <g>
        <circle class="cls-5" cx="600.4638" cy="97.594" r="10.1739"/>
        <path class="cls-6" d="M600.4638,87.4201c5.6189,0,10.1738,4.555,10.1738,10.1739s-4.5549,10.1739-10.1738,10.1739-10.1741-4.555-10.1741-10.1739,4.5552-10.1739,10.1741-10.1739M600.4638,84.5217c-7.2083,0-13.0725,5.8642-13.0725,13.0723s5.8643,13.0723,13.0725,13.0723,13.0723-5.8642,13.0723-13.0723-5.8643-13.0723-13.0723-13.0723h0Z"/>
      </g>
      <g>
        <circle class="cls-5" cx="639.0073" cy="170.5196" r="12.7174"/>
        <path class="cls-6" d="M639.0073,157.8022c7.0237,0,12.7173,5.6938,12.7173,12.7174s-5.6936,12.7174-12.7173,12.7174-12.7175-5.6938-12.7175-12.7174,5.6938-12.7174,12.7175-12.7174M639.0073,154.9039c-8.6106,0-15.616,7.0052-15.616,15.6158s7.0054,15.6158,15.616,15.6158,15.6157-7.0052,15.6157-15.6158-7.0051-15.6158-15.6157-15.6158h0Z"/>
      </g>
      <g>
        <circle class="cls-5" cx="562.7029" cy="211.2679" r="5.6739"/>
        <path class="cls-6" d="M562.7029,205.594c3.1338,0,5.6741,2.5403,5.6741,5.6739s-2.5403,5.6739-5.6741,5.6739-5.6738-2.5403-5.6738-5.6739,2.5403-5.6739,5.6738-5.6739M562.7029,202.6956c-4.7268,0-8.5723,3.8455-8.5723,8.5723s3.8455,8.5723,8.5723,8.5723,8.5725-3.8455,8.5725-8.5723-3.8457-8.5723-8.5725-8.5723h0Z"/>
      </g>
      <g>
        <circle class="cls-5" cx="608.8768" cy="219.8766" r="3.3261"/>
        <path class="cls-6" d="M608.8769,216.5506c1.8369,0,3.3259,1.4891,3.3259,3.3261s-1.489,3.3261-3.3259,3.3261-3.3262-1.4891-3.3262-3.3261,1.489-3.3261,3.3262-3.3261M608.8769,213.6522c-3.4321,0-6.2246,2.7923-6.2246,6.2245s2.7925,6.2245,6.2246,6.2245,6.2244-2.7923,6.2244-6.2245-2.7922-6.2245-6.2244-6.2245h0Z"/>
      </g>
      <g>
        <circle class="cls-5" cx="474.692" cy="229.0597" r="1.7609"/>
        <path class="cls-6" d="M474.6921,227.2989c.9724,0,1.7607.7884,1.7607,1.7609s-.7883,1.7609-1.7607,1.7609-1.761-.7884-1.761-1.7609.7883-1.7609,1.761-1.7609M474.6921,224.4005c-2.5691,0-4.6594,2.0901-4.6594,4.6592s2.0903,4.6593,4.6594,4.6593,4.6592-2.0901,4.6592-4.6593-2.0901-4.6592-4.6592-4.6592h0Z"/>
      </g>
      <g>
        <path class="cls-5" d="M499.1159,216.902c0-2.9895-2.4235-5.413-5.4131-5.413s-5.413,2.4235-5.413,5.413,2.4235,5.4131,5.413,5.4131,5.4131-2.4235,5.4131-5.4131Z"/>
        <path class="cls-6" d="M493.7029,211.4889c2.9897,0,5.4131,2.4235,5.4131,5.413s-2.4233,5.4131-5.4131,5.4131-5.4128-2.4235-5.4128-5.4131,2.4233-5.413,5.4128-5.413M493.7029,208.5906c-4.5828,0-8.3113,3.7285-8.3113,8.3114s3.7285,8.3115,8.3113,8.3115,8.3115-3.7285,8.3115-8.3115-3.7285-8.3114-8.3115-8.3114h0Z"/>
      </g>
      <g>
        <circle class="cls-5" cx="470.4692" cy="249.4364" r="2.462"/>
        <path class="cls-6" d="M470.4692,246.9744c1.3596,0,2.4619,1.1023,2.4619,2.462s-1.1023,2.4619-2.4619,2.4619-2.4619-1.1022-2.4619-2.4619,1.1023-2.462,2.4619-2.462M470.4692,244.0761c-2.9556,0-5.3604,2.4047-5.3604,5.3604s2.4048,5.3603,5.3604,5.3603,5.3604-2.4046,5.3604-5.3603-2.4048-5.3604-5.3604-5.3604h0Z"/>
      </g>
      <g>
        <circle class="cls-5" cx="451.9964" cy="234.7462" r="6.913"/>
        <path class="cls-6" d="M451.9963,227.8331c3.8181,0,6.9131,3.0951,6.9131,6.9131s-3.095,6.913-6.9131,6.913-6.9128-3.0951-6.9128-6.913,3.095-6.9131,6.9128-6.9131M451.9963,224.9348c-5.4099,0-9.8113,4.4014-9.8113,9.8114s4.4014,9.8114,9.8113,9.8114,9.8115-4.4014,9.8115-9.8114-4.4014-9.8114-9.8115-9.8114h0Z"/>
      </g>
      <g>
        <circle class="cls-5" cx="534.2355" cy="187.3645" r="4.2065"/>
        <path class="cls-6" d="M534.2356,183.1579c2.3232,0,4.2065,1.8833,4.2065,4.2065s-1.8833,4.2065-4.2065,4.2065-4.2065-1.8833-4.2065-4.2065,1.8833-4.2065,4.2065-4.2065M534.2356,180.2596c-3.9177,0-7.105,3.1873-7.105,7.1049s3.1873,7.1049,7.105,7.1049,7.105-3.1873,7.105-7.1049-3.1873-7.1049-7.105-7.1049h0Z"/>
      </g>
      <g>
        <circle class="cls-5" cx="578.4203" cy="262.0723" r="7.8261"/>
        <path class="cls-6" d="M578.4204,254.2462c4.3223,0,7.8259,3.5038,7.8259,7.8261s-3.5037,7.8261-7.8259,7.8261-7.8262-3.5038-7.8262-7.8261,3.5039-7.8261,7.8262-7.8261M578.4204,251.3478c-5.9136,0-10.7246,4.811-10.7246,10.7245s4.811,10.7245,10.7246,10.7245,10.7244-4.811,10.7244-10.7245-4.811-10.7245-10.7244-10.7245h0Z"/>
      </g>
      <g>
        <circle class="cls-5" cx="635.6812" cy="250.4662" r="7.9565"/>
        <path class="cls-6" d="M635.6811,242.5096c4.3943,0,7.9565,3.5623,7.9565,7.9565s-3.5623,7.9565-7.9565,7.9565-7.9565-3.5623-7.9565-7.9565,3.5623-7.9565,7.9565-7.9565M635.6811,239.6113c-5.9854,0-10.855,4.8695-10.855,10.8549s4.8696,10.8549,10.855,10.8549,10.855-4.8695,10.855-10.8549-4.8696-10.8549-10.855-10.8549h0Z"/>
      </g>
      <g>
        <circle class="cls-5" cx="608.4855" cy="335.7027" r="5.6739"/>
        <path class="cls-6" d="M608.4856,330.0288c3.1335,0,5.6738,2.5403,5.6738,5.6739s-2.5403,5.6739-5.6738,5.6739-5.6741-2.5403-5.6741-5.6739,2.5405-5.6739,5.6741-5.6739M608.4856,327.1304c-4.7268,0-8.5725,3.8455-8.5725,8.5723s3.8457,8.5723,8.5725,8.5723,8.5723-3.8455,8.5723-8.5723-3.8455-8.5723-8.5723-8.5723h0Z"/>
      </g>
      <g>
        <circle class="cls-5" cx="557.4203" cy="314.9989" r="3.5217"/>
        <path class="cls-6" d="M557.4204,311.4771c1.9448,0,3.5217,1.5767,3.5217,3.5217s-1.5769,3.5217-3.5217,3.5217-3.5217-1.5767-3.5217-3.5217,1.5767-3.5217,3.5217-3.5217M557.4204,308.5788c-3.54,0-6.4202,2.88-6.4202,6.4201s2.8801,6.4201,6.4202,6.4201,6.4202-2.88,6.4202-6.4201-2.8801-6.4201-6.4202-6.4201h0Z"/>
      </g>
      <g>
        <circle class="cls-5" cx="548.3551" cy="274.1375" r="4.2391"/>
        <path class="cls-6" d="M548.3552,269.8984c2.3411,0,4.239,1.8979,4.239,4.2391s-1.8979,4.2391-4.239,4.2391-4.2393-1.8979-4.2393-4.2391,1.8979-4.2391,4.2393-4.2391M548.3552,267c-3.9358,0-7.1377,3.2019-7.1377,7.1375s3.2019,7.1375,7.1377,7.1375,7.1375-3.2019,7.1375-7.1375-3.2019-7.1375-7.1375-7.1375h0Z"/>
      </g>
      <g>
        <circle class="cls-5" cx="577.3116" cy="36.6389" r="8.9348"/>
        <path class="cls-6" d="M577.3115,27.7041c4.9346,0,8.9348,4.0002,8.9348,8.9348s-4.0002,8.9348-8.9348,8.9348-8.9346-4.0002-8.9346-8.9348,4.0002-8.9348,8.9346-8.9348M577.3115,24.8057c-6.5247,0-11.833,5.3083-11.833,11.8332s5.3083,11.8331,11.833,11.8331,11.8333-5.3083,11.8333-11.8331-5.3083-11.8332-11.8333-11.8332h0Z"/>
      </g>
      <g>
        <circle class="cls-5" cx="557.6486" cy="380.1484" r="5.0543"/>
        <path class="cls-6" d="M557.6487,375.094c2.7913,0,5.0542,2.2629,5.0542,5.0544s-2.2629,5.0544-5.0542,5.0544-5.0544-2.2629-5.0544-5.0544,2.2629-5.0544,5.0544-5.0544M557.6487,372.1956c-4.3853,0-7.9529,3.5676-7.9529,7.9527s3.5676,7.9527,7.9529,7.9527,7.9526-3.5676,7.9526-7.9527-3.5676-7.9527-7.9526-7.9527h0Z"/>
      </g>
      <g>
        <circle class="cls-5" cx="455.8717" cy="365.5071" r="1.9565"/>
        <path class="cls-6" d="M455.8718,363.5506c1.0806,0,1.9565.8759,1.9565,1.9565s-.876,1.9565-1.9565,1.9565-1.9565-.8759-1.9565-1.9565.876-1.9565,1.9565-1.9565M455.8718,360.6522c-2.677,0-4.855,2.1779-4.855,4.8549s2.178,4.8549,4.855,4.8549,4.855-2.1779,4.855-4.8549-2.178-4.8549-4.855-4.8549h0Z"/>
      </g>
      <g>
        <circle class="cls-5" cx="478.116" cy="361.594" r="1.9565"/>
        <path class="cls-6" d="M478.1159,359.6375c1.0806,0,1.9565.876,1.9565,1.9565s-.876,1.9565-1.9565,1.9565-1.9565-.876-1.9565-1.9565.876-1.9565,1.9565-1.9565M478.1159,356.7391c-2.677,0-4.855,2.1779-4.855,4.8549s2.178,4.8549,4.855,4.8549,4.855-2.1779,4.855-4.8549-2.178-4.8549-4.855-4.8549h0Z"/>
      </g>
      <g>
        <circle class="cls-5" cx="597.366" cy="425.8507" r="11.1196"/>
        <path class="cls-6" d="M597.3659,414.7312c6.1411,0,11.1196,4.9784,11.1196,11.1195s-4.9785,11.1196-11.1196,11.1196-11.1196-4.9784-11.1196-11.1196,4.9785-11.1195,11.1196-11.1195M597.3659,411.8328c-7.7295,0-14.0181,6.2884-14.0181,14.0179s6.2886,14.018,14.0181,14.018,14.0181-6.2885,14.0181-14.018-6.2886-14.0179-14.0181-14.0179h0Z"/>
      </g>
      <g>
        <circle class="cls-5" cx="665.4203" cy="374.3196" r="13.6957"/>
        <path class="cls-6" d="M665.4204,360.6239c7.5637,0,13.6956,6.1318,13.6956,13.6956s-6.1318,13.6957-13.6956,13.6957-13.6958-6.1318-13.6958-13.6957,6.1318-13.6956,13.6958-13.6956M665.4204,357.7255c-9.1501,0-16.5942,7.4441-16.5942,16.594s7.4441,16.5941,16.5942,16.5941,16.594-7.4441,16.594-16.5941-7.4441-16.594-16.594-16.594h0Z"/>
      </g>
      <g>
        <circle class="cls-5" cx="543.672" cy="411.9143" r="2.8169"/>
        <path class="cls-6" d="M543.6721,409.0974c1.5557,0,2.8169,1.2612,2.8169,2.8169s-1.2612,2.8169-2.8169,2.8169-2.8169-1.2612-2.8169-2.8169,1.261-2.8169,2.8169-2.8169M543.6721,406.199c-3.1514,0-5.7153,2.5639-5.7153,5.7153s2.564,5.7153,5.7153,5.7153,5.7153-2.5639,5.7153-5.7153-2.564-5.7153-5.7153-5.7153h0Z"/>
      </g>
      <g>
        <circle class="cls-5" cx="525.7899" cy="380.4418" r="2.1522"/>
        <path class="cls-6" d="M525.7898,378.2897c1.1887,0,2.1523.9635,2.1523,2.1522s-.9636,2.1522-2.1523,2.1522-2.1521-.9636-2.1521-2.1522.9636-2.1522,2.1521-2.1522M525.7898,375.3913c-2.7849,0-5.0505,2.2657-5.0505,5.0505s2.2656,5.0505,5.0505,5.0505,5.0508-2.2657,5.0508-5.0505-2.2659-5.0505-5.0508-5.0505h0Z"/>
      </g>
      <g>
        <circle class="cls-5" cx="516.5616" cy="441.7136" r="9.2283"/>
        <path class="cls-6" d="M516.5615,432.4853c5.0967,0,9.2283,4.1316,9.2283,9.2283s-4.1316,9.2282-9.2283,9.2282-9.228-4.1316-9.228-9.2282,4.1316-9.2283,9.228-9.2283M516.5615,429.587c-6.6865,0-12.1265,5.44-12.1265,12.1266s5.4399,12.1266,12.1265,12.1266,12.1267-5.4399,12.1267-12.1266-5.4399-12.1266-12.1267-12.1266h0Z"/>
      </g>
      <g>
        <circle class="cls-5" cx="574.6811" cy="480.9391" r="6.3043"/>
        <path class="cls-6" d="M574.6811,474.6348c3.4817,0,6.3042,2.8225,6.3042,6.3043s-2.8225,6.3043-6.3042,6.3043-6.3042-2.8225-6.3042-6.3043,2.8225-6.3043,6.3042-6.3043M574.6811,471.7364c-5.0742,0-9.2026,4.1283-9.2026,9.2026s4.1284,9.2026,9.2026,9.2026,9.2026-4.1283,9.2026-9.2026-4.1284-9.2026-9.2026-9.2026h0Z"/>
      </g>
      <g>
        <circle class="cls-5" cx="638.029" cy="477.1453" r="10.3043"/>
        <path class="cls-6" d="M638.029,466.8409c5.6909,0,10.3044,4.6134,10.3044,10.3043s-4.6135,10.3044-10.3044,10.3044-10.3044-4.6134-10.3044-10.3044,4.6135-10.3043,10.3044-10.3043M638.029,463.9426c-7.28,0-13.2029,5.9227-13.2029,13.2027s5.9229,13.2028,13.2029,13.2028,13.2029-5.9227,13.2029-13.2028-5.9229-13.2027-13.2029-13.2027h0Z"/>
      </g>
      <g>
        <circle class="cls-5" cx="695.7928" cy="310.352" r="11.1985"/>
        <path class="cls-6" d="M695.7927,299.1535c6.1848,0,11.1987,5.0137,11.1987,11.1985s-5.0139,11.1985-11.1987,11.1985-11.1985-5.0138-11.1985-11.1985,5.0137-11.1985,11.1985-11.1985M695.7927,294.318c-8.8411,0-16.0339,7.1928-16.0339,16.034s7.1929,16.034,16.0339,16.034,16.0342-7.1928,16.0342-16.034-7.1929-16.034-16.0342-16.034h0Z"/>
      </g>
      <g>
        <circle class="cls-5" cx="698.4366" cy="220.9038" r="13.8424"/>
        <path class="cls-6" d="M698.4365,207.0614c7.645,0,13.8425,6.1974,13.8425,13.8424s-6.1975,13.8424-13.8425,13.8424-13.8423-6.1974-13.8423-13.8424,6.1975-13.8424,13.8423-13.8424M698.4365,204.163c-9.2307,0-16.7407,7.5099-16.7407,16.7408s7.51,16.7408,16.7407,16.7408,16.741-7.5099,16.741-16.7408-7.51-16.7408-16.741-16.7408h0Z"/>
      </g>
    </g>
  </g>
</svg>