<?xml version="1.0" encoding="UTF-8"?>
<svg id="Capa_2" xmlns="http://www.w3.org/2000/svg" viewBox="0 0 450.3718 505.2256">
  <defs>
    <style>
      .cls-1 {
        fill: #70569b;
      }

      .cls-2 {
        fill: #5f488c;
      }

      .cls-3 {
        fill: #9570c2;
      }

      .cls-4 {
        fill: #b29ad8;
      }

      .cls-5 {
        fill: #604593;
      }

      .cls-6 {
        fill: #47327c;
      }

      .cls-7 {
        fill: #a486ce;
      }

      .cls-8 {
        fill: #735aaf;
      }

      .cls-9 {
        fill: #8566b2;
      }
    </style>
  </defs>
  <g id="Capa_1-2" data-name="Capa_1">
    <g>
      <g>
        <g>
          <g>
            <path class="cls-3" d="M323.1868,501.4412c-4.9229.0002-9.5215-1.5142-13.9688-2.979-3.4443-1.1343-6.6978-2.2058-9.9341-2.5449-.8945-.093-1.8799-.1382-3.0088-.1382-1.2793,0-2.564.0559-3.9243.115-1.3774.0601-2.8022.1221-4.2393.1221-2.0825,0-3.8203-.1299-5.4688-.4087-5.5239-.9468-10.2236-3.6194-14.7686-6.2041-1.1084-.6304-2.2153-1.2603-3.3291-1.8594-9.3657-5.0334-19.3359-7.6943-28.8315-7.6943-2.9912,0-5.9468.2688-8.7842.7986-6.9487,1.3044-11.4126,4.1316-16.1382,7.1245-5.5024,3.4849-11.1924,7.0886-20.498,8.1189-1.583.177-3.2637.2671-4.9912.2671-5.647,0-11.1328-.9541-15.5405-1.7207-3.0771-.5352-5.7344-.9973-7.5415-.9973-2.6411.012-5.3433.29-8.2041.5842-2.9795.3066-6.0605.6235-9.0947.6235-5.8442,0-10.3276-1.208-14.1094-3.802-3.0366-2.0879-5.1611-4.8269-7.2153-7.4758-1.4819-1.9111-2.8818-3.7163-4.5039-5.1055-3.7466-3.2266-9.437-4.8555-17.4043-4.9866-.4321-.0068-.8672-.0103-1.3008-.0103-10.001,0-19.6846,1.7563-29.9365,3.616-7.1533,1.2976-14.5503,2.6392-21.9927,3.3044-2.8369.2524-5.292.375-7.5078.375-15.4443,0-19.9697-6.3418-28.1851-17.8547-.8379-1.1746-1.7251-2.418-2.6782-3.7324-3.0063-4.135-7.7705-12.6785-5.8643-23.3926.8008-4.4963,2.9038-9.1455,5.9219-13.0923,5.3853-7.0532,11.9023-9.7437,18.2046-12.3455,2.3398-.9658,4.7593-1.9646,7.1323-3.1914.1523-.0796,16.2183-8.6282,24.3325-25.9863,4.4624-9.5486,3.2124-17.0859,1.4082-24.6023-1.2021-5.0073-4.1338-9.4282-8.2549-12.4487l-4.4033-3.24c-5.6201-4.1758-11.3672-8.821-14.5454-15.6682-2.3003-4.9509-2.8369-10.189-3.356-15.2546-.1895-1.8528-.3687-3.603-.6299-5.3347-1.4053-9.3455-5.4023-18.5364-9.2676-27.4248-5.1587-11.8613-10.4927-24.1265-10.2656-37.5613.1548-9.042,2.8477-17.6145,5.4521-25.905,2.5273-8.0461,4.915-15.6462,5.103-23.5081.0601-2.5796-.1187-5.1865-.3081-7.9463-.3354-4.8896-.6821-9.9458.3608-15.0549,1.7285-8.5181,6.9717-15.4526,11.3462-20.542,1.0718-1.2495,2.1743-2.4839,3.2778-3.7185,3.2461-3.6321,6.3125-7.0627,8.6636-10.9602,3.3584-5.5657,5.2026-11.9792,7.1548-18.7693,2.5884-9.0022,5.2651-18.311,11.793-25.7,4.0547-4.585,9.0161-7.749,13.8145-10.8091,2.9023-1.8506,5.6436-3.5989,8.166-5.6243,3.8906-3.1165,6.437-7.1147,9.1328-11.3477,1.708-2.6824,3.4741-5.4561,5.666-8.1482,2.0864-2.572,7.9287-9.2966,17.0073-16.0664,4.2163-3.1355,8.9912-6.6863,15.9648-9.6414,7.0015-2.9678,11.4209-3.2412,15.3203-3.4824,3.4185-.2114,6.3701-.394,11.1504-2.3689,4.3569-1.8032,6.5044-3.573,8.7773-5.4465,2.7559-2.2715,5.8794-4.8459,12.5161-7.2397,7.9878-2.8831,14.9092-3.3481,18.3242-3.3689l.4185-.0022c4.1958,0,9.2622.7876,23.9951,4.9419,8.6875,2.4529,11.9717,3.624,13.7358,4.2532,1.3755.4907,1.6235.5791,3.0728.8066,2.0708.3301,3.9482.4897,5.748.4897,3.2822,0,5.8423-.5261,8.8066-1.1355,3.3623-.6912,7.1733-1.4744,12.4219-1.4744,1.582,0,3.25.072,4.9585.2146,4.2495.3596,12.7661,1.5586,22.1089,5.5513,5.2295,2.2363,7.8745,4.1265,10.9365,6.3149,2.4551,1.7544,5.2378,3.7429,10.1772,6.5107,5.6045,3.1382,8.4487,4.1646,11.1992,5.157,2.8735,1.0369,5.8452,2.1091,11.3047,5.2598,5.5581,3.2158,14.854,8.5947,23.2842,18.6362,3.4463,4.1199,4.5752,6.45,5.5713,8.5056.8418,1.7366,1.5684,3.2363,3.9136,6.0691,2.9658,3.5757,7.4268,5.9766,12.5923,8.7563,6.3467,3.4153,14.2446,7.6658,22.0669,15.6355,4.9111,5.0042,8.0049,13.4302,10.9966,21.5789,1.5493,4.22,3.0127,8.2061,4.5742,11.2434,1.8857,3.679,3.6538,5.175,5.8931,7.0693,2.585,2.1873,5.5151,4.6665,8.8755,10.3384,1.8359,3.1165,6.123,10.3953,6.8193,20.0735.4736,6.6145-.9995,10.6038-2.2998,14.1233-1.1035,2.9885-2.0571,5.5696-1.957,9.9221.0996,4.3206,1.1401,6.4695,2.3882,8.6409.229.3984.4658.7952.7046,1.1963,1.228,2.0608,2.6196,4.3967,3.6675,7.8257.5073,1.6958.8735,3.4119,1.1255,5.2673,1.1519,8.2266-1.2441,16.4622-5.0308,28.0857l-1.7026,5.178c-2.7744,8.4421-6.1294,17.0469-9.9712,25.5737l-.1621.3599-.2329.3188c-7.3911,10.1111-10.6143,19.2004-9.5811,27.0159.2363,1.802.5913,3.6633.9351,5.4634,1.8667,9.7732,4.189,21.9363-14.1924,27.75-5.2041,1.6538-13.7061,18.3438-14.7603,25.5845-1.8462,12.7781,2.7285,25.8157,7.4468,36.8833,2.0908,4.8931,8.4937,8.512,16.5996,13.0935,4.4951,2.5405,9.5898,5.4202,14.7573,9.0032,9.0347,6.2759,10.9106,15.9009,12.0312,21.6514.2803,1.4375.5225,2.6792.7925,3.4949,4.2964,13.0364,3.3848,20.1433,3.0854,22.4788-.2935,2.2815-.7842,6.0977-2.9556,10.5349-4.2334,8.5989-10.4253,12.7676-14.875,14.752-3.8481,1.7251-7.8101,2.5298-12.4614,2.5298-3.103,0-6.0981-.3601-8.9951-.7083-7.9053-.957-14.7222-5.0686-21.3149-9.0449-6.7686-4.0828-13.1616-7.939-19.9111-7.939-1.9717,0-3.8794.3206-5.832.9797-5.0786,1.7126-9.2456,5.8013-13.6572,10.1301-5.6333,5.5271-11.458,11.2424-19.8203,12.4785-1.0649.1577-2.1714.2378-3.2876.2378Z"/>
            <path class="cls-4" d="M199.6018,7.5684c3.3521,0,7.6684.4854,22.968,4.7998,15.6413,4.416,13.2715,4.5312,17.2484,5.1558,2.3954.3818,4.4675.5356,6.3346.5356,7.6971,0,11.9375-2.6099,21.2288-2.6104,1.4205,0,2.9571.061,4.6441.2017,3.0058.2544,11.3873,1.1792,20.9362,5.2603,8.8669,3.792,9.4449,6.312,20.7511,12.6475,11.6647,6.5317,12.0461,4.3813,22.4622,10.3926,5.734,3.3179,14.416,8.4277,22.277,17.792,6.0925,7.2832,4.0233,7.9766,9.4683,14.5547,7.4218,8.9478,21.0474,10.5425,34.8735,24.6294,6.7704,6.8979,10.2589,22.8613,14.9061,31.9014,4.4857,8.7515,8.844,7.4224,14.8785,17.6069,1.8727,3.1792,5.6761,9.7339,6.3005,18.416.7976,11.1328-4.5085,13.2715-4.2658,23.8608.1157,5.0059,1.3756,7.8032,2.8901,10.439,1.3641,2.3701,2.9248,4.6128,4.0347,8.2427.4046,1.353.7512,2.8789.9941,4.6709.9942,7.0981-.8787,14.127-4.8787,26.4038-.5317,1.6187-1.0981,3.3413-1.6993,5.168-2.1271,6.4736-5.2946,15.144-9.8265,25.2017-9.8611,13.4912-11.1442,23.1904-10.2772,29.7456,1.5489,11.8262,7.4449,23.3867-10.6474,29.1094-7.4219,2.3584-16.2424,20.9478-17.3638,28.647-1.9077,13.2021,2.3583,26.3579,7.7108,38.9126,3.9421,9.2256,17.9767,13.5259,32.6816,23.7222,9.9189,6.8901,9.7917,18.4048,11.3871,23.2251,3.7111,11.2603,3.3411,17.5605,2.9247,20.8091-.3004,2.3354-.7397,5.5493-2.6011,9.3525-1.0867,2.208-4.6703,9.2368-13.0171,12.9595-3.7524,1.6816-7.369,2.2017-10.9211,2.2017-2.8935,0-5.7439-.3447-8.5931-.687-14.9022-1.8042-26.8258-17.0044-41.6276-17.0049-2.2729-.0005-4.6125.3579-7.0424,1.1782-12.7512,4.3003-19.5256,20.4854-32.8203,22.4507-.916.1357-1.8278.1973-2.7344.1973-7.9036,0-15.4913-4.6636-23.508-5.5039-1.1307-.1172-2.2661-.1587-3.4026-.1587-2.7212,0-5.4523.2373-8.1646.2373-1.6216,0-3.2359-.085-4.8374-.356-6.1386-1.0518-11.4565-4.7163-16.9362-7.6646-9.3878-5.0454-20.0177-8.1455-30.6248-8.146-3.1735-.0005-6.3426.2769-9.4787.8628-16.0114,3.0059-20.1732,13.4102-36.358,15.2021-1.5258.1709-3.0568.2441-4.5743.2441-9.2436,0-18.0541-2.7178-23.081-2.7178h-.0553c-5.6401.0259-11.6248,1.2075-17.2453,1.2075-4.3101,0-8.4058-.6948-11.9682-3.1382-4.6242-3.1792-7.1329-8.6821-11.3987-12.3354-5.3294-4.5894-12.7744-5.7803-19.8033-5.8955-.4545-.0073-.9096-.0107-1.3633-.0107-17.6751,0-34.7393,5.3682-52.2661,6.9351-2.6754.2378-5.0473.3599-7.1713.3599-14.9013,0-17.6304-6.0005-27.7994-20.0239-2.0925-2.8789-6.9479-10.6938-5.2022-20.5088.2659-1.4912,1.2602-6.3003,5.2022-11.4565,6.6473-8.7051,15.1674-9.8726,24.0692-14.4736,0,0,17.2251-8.9248,26.0228-27.7451,5.1576-11.0371,3.4029-19.8262,1.6598-27.0884-1.4076-5.8643-4.8337-11.0527-9.6981-14.6177-.3184-.2334-.6295-.4624-.9327-.6865-1.1445-.8438-2.3005-1.688-3.4566-2.5435-5.3527-3.9766-10.5895-8.2427-13.3641-14.2192-2.8091-6.0464-2.6821-12.9712-3.6761-19.5605-3.3528-22.3003-19.8727-41.7915-19.4913-64.3574.289-16.8901,10.1502-32.4966,10.5549-49.3867.1733-7.4565-1.5145-15.0288-.0232-22.335,1.4451-7.1216,5.7688-13.3179,10.5084-18.832,4.2429-4.9478,8.9364-9.5952,12.3121-15.1909,8.2657-13.6992,7.942-31.9185,18.5431-43.9185,6.0115-6.7974,14.5315-10.3813,21.5141-15.9883,6.9711-5.5835,9.8497-13.2827,15.3641-20.0571,1.1908-1.4683,6.971-8.4395,16.335-15.4219,4.1039-3.0522,8.6588-6.4277,15.179-9.1909,12.3813-5.248,15.3293-1.2485,26.439-5.8379,10.3352-4.2773,9.7224-8.5083,21.1325-12.624,8.2312-2.9712,15.156-3.1328,17.0634-3.1445.1307-.0015.2628-.002.396-.002M199.6018,0l-.4732.0024c-3.6283.022-11.0383.519-19.5558,3.5938-7.2517,2.6157-10.6439,5.4116-13.6369,7.8784-2.2256,1.8345-3.9835,3.2832-7.8203,4.8711-4.1932,1.7324-6.7269,1.8892-9.9347,2.0874-3.9944.2471-8.9657.5547-16.5637,3.7754-7.3932,3.1333-12.5769,6.9883-16.7421,10.0864-9.4324,7.0332-15.5177,14.041-17.6966,16.7275-2.3214,2.8516-4.1479,5.7197-5.914,8.4932-2.6322,4.1328-4.9053,7.7021-8.3032,10.4238-2.3687,1.9023-5.0255,3.5962-7.8383,5.3901-5.0186,3.2007-10.2081,6.5098-14.6138,11.4917-7.0954,8.0317-9.8919,17.7573-12.5963,27.1631-1.8812,6.5425-3.658,12.7222-6.7576,17.8589-2.1688,3.5952-5.1204,6.8979-8.2453,10.394-1.0932,1.2231-2.2236,2.4878-3.3318,3.7803-4.6683,5.4312-10.2774,12.8755-12.1804,22.2539-1.1439,5.6035-.7791,10.9204-.4263,16.062.1833,2.6709.3563,5.1934.3003,7.6021-.1754,7.3223-2.4851,14.6748-4.9303,22.4585-2.685,8.5474-5.4614,17.3857-5.6255,26.9746-.2409,14.2568,5.2595,26.9048,10.5788,39.1357,3.9416,9.0635,7.6645,17.624,8.9954,26.4766.2483,1.6455.4231,3.3521.6081,5.1587.5249,5.1265,1.1199,10.9365,3.6885,16.4653,3.5513,7.6494,9.9736,12.8408,15.7144,17.1055.6949.5142,1.3784,1.0161,2.0596,1.5166l1.4194,1.0435.9492.6987c3.4008,2.4922,5.8203,6.1431,6.8132,10.2803,1.7042,7.0996,2.7933,13.6641-1.1571,22.1177-7.6194,16.2998-22.4985,24.1519-22.6478,24.2295-2.2225,1.1484-4.4613,2.0728-6.8316,3.0513-6.4514,2.6631-13.7637,5.6821-19.771,13.5488-3.3739,4.4131-5.7322,9.6426-6.6379,14.7212-2.1512,12.0947,3.1686,21.6611,6.531,26.2871.9428,1.3003,1.825,2.5366,2.6581,3.7041,8.353,11.7056,13.8713,19.4385,31.2634,19.4385,2.3285,0,4.8936-.1274,7.8418-.3896,7.6158-.6807,15.0981-2.0381,22.334-3.3501,10.0798-1.8286,19.6007-3.5552,29.2614-3.5552.4136,0,.8283.0029,1.2426.0098,7.0417.1152,11.9445,1.4443,14.9853,4.063,1.3452,1.1523,2.6304,2.8096,3.9911,4.564,2.1277,2.7437,4.5393,5.8535,8.0585,8.2734,4.4482,3.0508,9.6115,4.4697,16.2559,4.4697,3.2282,0,6.4074-.3271,9.482-.6431,2.7661-.2847,5.3788-.5532,7.7982-.5645,1.5006,0,4.1295.457,6.9127.9409,4.5511.7915,10.2151,1.7769,16.1888,1.7769,1.8669,0,3.6888-.0981,5.4152-.291,10.1672-1.1255,16.5061-5.1401,22.0988-8.6826,4.6018-2.9146,8.5762-5.4316,14.8148-6.6025,2.6025-.4863,5.3239-.7334,8.0819-.7329,8.8736.0005,18.2247,2.5054,27.0424,7.2441,1.0578.5693,2.1212,1.1738,3.247,1.8145,4.6041,2.6182,9.8226,5.5859,15.9938,6.6431,1.8773.3179,3.8157.4648,6.1155.4648,1.5198,0,2.9864-.064,4.4048-.126,1.3179-.0571,2.5627-.1113,3.7597-.1113.9967,0,1.8543.0386,2.6214.1182,2.8246.2959,5.891,1.3062,9.1374,2.375,4.5103,1.4858,9.6224,3.1694,15.1518,3.1694,1.3006,0,2.5934-.0938,3.8426-.2788,9.5789-1.416,16.1331-7.8472,21.9158-13.521,4.0933-4.0166,7.9596-7.8101,12.2148-9.2451,1.5588-.5259,3.0704-.7817,4.6232-.7812,5.697,0,11.6522,3.5923,17.9572,7.395,6.611,3.9873,14.1041,8.5068,22.7614,9.5552l.0577.0068c3.0066.3613,6.1155.7349,9.4449.7349,5.1322,0,9.717-.9365,14.0164-2.8638,5.0081-2.2334,11.9852-6.9189,16.7123-16.5239,2.4531-5.0122,2.9939-9.2168,3.3171-11.729.3267-2.5493,1.3198-10.2979-3.2432-24.1436-.1972-.5957-.4393-1.8379-.6733-3.0386-1.2308-6.3145-3.2908-16.8833-13.5839-24.0332-5.3156-3.6855-10.4908-6.6108-15.0567-9.1914-7.1873-4.062-13.3943-7.5703-14.9832-11.2886-4.5105-10.5801-8.893-23-7.1797-34.8564.9609-6.5986,8.7109-20.873,12.2282-22.5366,9.3342-2.9663,14.9236-7.8232,17.0762-14.8428,1.7899-5.8369.6867-11.6147-.3801-17.2017-.3489-1.8271-.6783-3.5527-.8994-5.2407-.903-6.8262,2.0861-14.9976,8.8831-24.2964l.4658-.6372.3243-.7197c3.8973-8.6499,7.301-17.3799,10.1164-25.9487l1.6995-5.168c3.9562-12.1426,6.4508-20.7671,5.1835-29.8159-.2735-2.0181-.68-3.9224-1.2382-5.7896-1.1956-3.9106-2.778-6.5669-4.0494-8.7012-.229-.3843-.4558-.7642-.6768-1.1484-1.0515-1.8296-1.8038-3.3945-1.8834-6.8384-.0831-3.6299.6749-5.6821,1.724-8.5225,1.3619-3.687,3.0568-8.2754,2.5245-15.7046-.7598-10.5654-5.3629-18.3794-7.3285-21.7163-3.6951-6.2363-7.0227-9.0522-9.6964-11.3145-2.1386-1.8096-3.4294-2.9019-4.968-5.9033-1.459-2.8384-2.8837-6.7183-4.3918-10.8262-3.1297-8.5244-6.366-17.3394-11.8481-22.9243-8.2241-8.3794-16.4025-12.7808-22.974-16.3174-5.0159-2.6992-8.9777-4.8311-11.4756-7.8428-2.0488-2.4751-2.623-3.6602-3.4179-5.3003-1.0376-2.1406-2.3288-4.8052-6.0705-9.2783-8.8652-10.5605-18.5219-16.1484-24.2916-19.4868-5.7579-3.3228-8.8903-4.4531-11.9194-5.5459-2.7266-.9839-5.3021-1.9131-10.6357-4.8994-4.7564-2.6655-7.449-4.5894-9.8247-6.2871-3.107-2.2207-6.0417-4.3179-11.6482-6.7153-9.3407-3.9922-17.812-5.3809-23.2741-5.8433-1.8222-.1519-3.5962-.2285-5.2822-.2285-5.6339.0005-9.6447.8247-13.1834,1.5522-2.8759.5913-5.1473,1.0581-8.0454,1.0581-1.5979,0-3.2803-.1445-5.1434-.4414q-1.1162-.1753-2.4058-.6353c-1.8063-.644-5.1683-1.8428-13.9774-4.3301-15.1579-4.2744-20.4887-5.0845-25.0243-5.0845h0Z"/>
          </g>
          <path class="cls-9" d="M396.2096,111.52c-4.7814-2.9054-10.7822.7857-12.38,1.7685-1.705,1.0488-6.6623,4.098-6.6323,8.8429.0234,3.7097,3.0814,6.2545,4.8636,7.7375,1.5128,1.2589,6.186,5.1476,11.0537,3.5372,3.9847-1.3182,5.7686-5.5501,6.4111-7.0743.3475-.8243,1.0533-2.5437,1.1053-4.8636.0175-.7791.0689-7.2196-4.4215-9.9483Z"/>
          <path class="cls-9" d="M417.5519,162.0031c-2.0601-3.2531-6.5787-5.1715-10.5553-3.9205-5.2013,1.6363-6.594,7.7885-6.333,11.4599.0686.9646.4203,5.9139,4.222,7.8412,3.0639,1.5532,6.3604.1257,7.2379-.3017,4.9117-2.3925,8.7427-9.8457,5.4285-15.0789Z"/>
          <path class="cls-9" d="M390.2882,261.2628c.456-4.5125-2.6135-9.02-6.6348-11.1585-4.6825-2.4902-9.913-1.3734-13.2695.9049-5.9757,4.0561-8.2224,13.2943-4.5236,17.7931,2.41,2.9313,6.6373,2.9906,8.4442,3.0159,6.1751.0865,15.2659-3.4528,15.9837-10.5553Z"/>
          <path class="cls-9" d="M119.8997,343.5667c-4.7793-4.5044-14.2499-4.2985-20.2058.3016-6.7098,5.1823-6.4401,13.9963-6.3332,17.4915.113,3.6932.2691,8.7916,3.9205,12.0632,6.1912,5.5473,17.0771,1.0447,19.6027,0,2.9704-1.2286,5.8734-2.4294,7.5395-5.4285,1.8156-3.2682,1.0906-6.7426-.3016-12.9679-1.4132-6.3191-2.1196-9.4785-4.222-11.4599Z"/>
          <path class="cls-9" d="M276.1257,383.4122c-.1909-3.8273-3.9607-6.9301-7.5395-7.841-4.7007-1.1966-10.1889,1.104-12.0632,5.4285-.1716.3957-1.6778,4.0353.3016,7.5395,1.9463,3.4456,5.7614,4.1021,6.6348,4.222,5.6825.7801,12.9411-3.8403,12.6664-9.3489Z"/>
          <path class="cls-9" d="M387.5431,215.184c-3.7693-1.6835-8.2616-.134-10.986,2.1127-3.6766,3.032-5.9402,8.8237-3.5916,13.7324,2.7663,5.7817,9.9029,6.0989,10.986,6.1269,4.1428.1069,9.9995-1.6891,11.4086-5.9156.8996-2.6984-.3735-5.3081-2.1127-8.8732-1.6561-3.3947-2.8914-5.9269-5.7042-7.1832Z"/>
          <path class="cls-9" d="M101.1951,405.9808c-3.5864-5.0566-11.5586-6.4266-15.3805-3.0157-4.3825,3.9111-2.7836,13.6408,3.0159,17.1901,3.2254,1.974,8.4099,2.4401,11.7615-.6033,3.8466-3.4929,3.2815-9.7947.6031-13.5711Z"/>
          <path class="cls-9" d="M348.1133,61.728c-1.3389-2.252-4.5479-5.2371-8.1426-4.2975-4.0645,1.0624-6.2207,6.5142-4.5237,9.726,1.4071,2.6631,5.0584,3.02,6.5594,3.1666,1.5732.1537,5.1866.5069,6.7855-1.8094,1.7576-2.5462-.3536-6.2393-.6785-6.7856Z"/>
          <path class="cls-9" d="M351.7291,319.6899c-.0951-3.0256-2.2629-5.6916-5.2022-6.3332-3.4399-.7508-6.5521,1.5735-7.6903,4.2975-.0967.2313-1.4826,3.7116.6785,6.5594,1.8005,2.3728,5.0738,3.0023,7.6903,2.0357,2.6003-.9606,4.6193-3.5226,4.5237-6.5594Z"/>
          <path class="cls-9" d="M391.6086,187.6375c-.4593-3.9573-4.4004-6.7735-8.1426-6.6348-3.4608.1283-5.5186,2.7383-5.73,3.0157-2.4251,3.182-2.4401,8.6059.9047,11.1585,2.6906,2.0533,6.4138,1.3776,8.7458,0,2.2044-1.3024,4.6222-4.0926,4.2222-7.5395Z"/>
          <g>
            <path class="cls-5" d="M357.4384,276.6998c-5.1561,15.8105-12.3117,31.7262-25.1233,42.341-9.8781,8.1946-22.2819,12.5485-34.3963,16.7575-35.3173,12.246-72.6994,24.676-109.3845,17.481-21.3481-4.1827-41.0127-14.8898-58.2042-28.2273-10.6675-8.2604-20.6509-17.7704-27.254-29.5297-6.2086-11.0226-9.1681-23.5316-11.9565-35.8694-2.1047-9.3259-4.1565-18.7176-5.6956-28.1618-1.9862-12.0485-3.1435-24.1891-2.5517-36.3693,2.499-50.7463,39.0131-74.2514,78.6711-97.5332,1.4335-.8418,2.8542-1.6705,4.2881-2.5124,16.5864-9.694,34.1201-18.8489,53.2058-21.0193,21.2296-2.4202,42.5515,4.0514,61.9661,12.9825,24.8601,11.4173,48.2603,27.4382,63.9918,49.8123.3815.5393.7497,1.0787,1.118,1.631,26.7937,39.5395,26.1755,92.7058,11.3251,138.217Z"/>
            <path class="cls-6" d="M357.4383,276.6998c-5.156,15.8105-12.3115,31.7262-25.1232,42.341-9.8782,8.1946-22.282,12.5485-34.3962,16.7576-35.3173,12.246-72.6995,24.676-109.3845,17.481-21.3481-4.1827-41.0127-14.8898-58.2042-28.2274-10.6675-8.2604-20.651-17.7704-27.254-29.5297-6.2086-11.0226-9.1681-23.5316-11.9565-35.8694-2.1046-9.3259-4.1565-18.7175-5.6956-28.1619,7.0768,8.3658,17.2708,18.5071,32.4629,27.2015,15.4027,8.8129,29.4113,12.4038,42.5515,15.7842,19.6512,5.0377,33.9493,5.8929,61.7688,7.5502,24.939,1.473,37.6191,2.157,48.0366-.6971,6.4847-1.7759,29.4246-8.0633,43.9196-28.1355,3.3804-4.6826,3.7092-6.5241,16.4681-41.8544,11.4042-31.5814,10.9833-29.6874,11.6671-32.2654,4.3013-16.2842,4.446-30.0164,3.8147-40.5919,26.7935,39.5395,26.1753,92.7058,11.325,138.217Z"/>
            <path class="cls-8" d="M177.5834,103.1389c-5.4729-.0671-19.6421,7.3985-28.7172,14.1694-9.4772,7.0708-18.1371,12.3911-23.0238,18.2898-2.7508,3.3208-12.2262,15.0499-20.3396,32.459-5.0214,10.7746-6.8852,18.0686-7.4936,20.5991-3.1397,13.062-4.8662,20.2444,0,25.5928,5.873,6.4544,19.1085,7.777,27.8332,3.7452,7.4525-3.444,10.0653-10.1455,14.987-23.4081,4.01-10.8064,2.7728-12.229,6.4232-24.3442,4.5421-15.075,7.1906-23.8645,14.9868-33.0833,13.1993-15.6077,19.6257-19.9746,19.6259-19.9748,3.3794-2.2962,7.4778-4.6423,7.1368-7.4904-.3958-3.3048-6.5379-6.4944-11.4187-6.5544Z"/>
            <path class="cls-8" d="M260.84,84.7441c-1.2081-1.5849-3.419-2.0015-5.4091-2.2883-9.9446-1.4334-20.0331-2.869-30.0024-1.619-7.3628.9232-38.2052,12.6844-26.5975,24.4997,2.8247,2.8751,7.3907,3.3722,11.2986,2.3857s7.364-3.213,10.8648-5.2103c8.7466-4.9903,18.9024-8.7987,28.7592-6.737,2.5201.5271,5.2188,1.415,7.5725.3717,2.2734-1.0077,3.4668-3.5285,4.057-5.9441.4372-1.7893.6062-3.8287-.4532-5.3355-.0293-.0417-.0593-.0826-.0899-.1228Z"/>
          </g>
          <path class="cls-7" d="M101.1707,310.0031c.2595.6712.5072,1.3482.742,2.0314,1.0494,3.0526,1.7957,6.5448.2965,9.4034-1.571,2.9955-5.0719,4.3278-8.2758,5.4124-10.6983,3.6216-23.1602,7.0405-32.681.964-10.0619-6.4218-11.7512-20.0221-15.2706-31.428-6.2541-20.2685-21.2596-39.2515-17.8356-60.1847,1.7844-10.9091,8.5165-20.5918,9.901-31.5588,1.1691-9.2612-8.3527-24.7179-5.296-33.5378,2.7098-7.8188,7.9108-10.7593,13.1187-17.19,5.7113-7.0523,11.5853-9.9228,13.5711-18.7733.7884-3.5138.8557-17.2659,2.7142-20.3566,1.8083-3.0072,6.8206-13.0591,9.4998-15.3052,14.2158-11.9175,23.497-13.2139,33.1737-29.0416,6.8497-11.2036,13.9735-29.2694,26.539-33.0837,9.0047-2.7334,24.7643-.6515,32.8722-5.4284,5.9533-3.5076,12.9464-9.9371,18.9995-13.2695,9.186-5.0571,25.3846,1.1937,35.5864,3.619,14.9285,3.549,25.0978,6.3877,40.4365,5.9646,15.3388-.4232,31.6402.9704,44.0909,9.9391,12.929,9.3133,19.4017,25.0766,30.1897,36.8033,7.3796,8.0216,17.7024,16.8866,14.7702,27.3845-.4815,1.7239-1.3543,3.3783-2.7133,4.5431-4.9356,4.2304-12.3382.1458-17.6318-3.627-28.3124-20.1784-62.3745-31.461-96.9067-35.4969-23.3314-2.7268-48.2413-1.9346-68.5027,9.9507-13.3687,7.8421-23.6504,19.8803-35.1669,30.2529-14.2813,12.8628-30.9173,23.5811-41.8983,39.3553-12.2015,17.5274-16.1092,39.5059-17.2691,60.8306-1.1544,21.2239.2818,43.2662,9.7942,62.2742,6.8476,13.6831,17.6559,25.3361,23.1525,39.5534Z"/>
          <path class="cls-9" d="M442.5437,467.0094c-.3004,2.3353-.7398,5.5491-2.6011,9.3526-1.0866,2.208-4.6704,9.2369-13.017,12.9593-6.8092,3.052-13.1675,2.2774-19.5142,1.5145-17.1905-2.081-30.4159-21.9882-48.67-15.8265-12.7512,4.3005-19.5256,20.4852-32.8203,22.4506-8.9016,1.3178-17.3061-4.3699-26.2424-5.3064-5.4567-.5665-11.0057.6359-16.4045-.2774-6.1386-1.0519-11.4565-4.7167-16.9362-7.6646-12.1964-6.5549-26.4851-9.8265-40.1035-7.2831-16.0115,3.0057-20.1732,13.4102-36.358,15.202-10.8554,1.2139-21.8726-2.497-27.7106-2.4738-9.9652.0461-21.0056,3.6993-29.2135-1.9307-4.6242-3.1791-7.1329-8.682-11.3987-12.3352-5.3294-4.5895-12.7745-5.7803-19.8032-5.8958-18.1617-.289-35.6527,5.3178-53.6294,6.9248-21.4449,1.9075-23.3522-3.6416-34.9706-19.6645-2.0925-2.8786-6.9479-10.6935-5.2022-20.5084.2659-1.4912,1.2602-6.3004,5.2022-11.4565,6.6473-8.7051,15.1674-9.8726,24.0691-14.4738,0,0,15.7453-8.1617,24.8089-25.3175.4277-.7862.8208-1.5954,1.2139-2.4278,5.1665-11.0563,3.3968-19.8563,1.6507-27.126-1.4027-5.8396-4.8124-11.0069-9.6569-14.5565-.3297-.2415-.6514-.4782-.9647-.71-1.1445-.8439-2.3005-1.6878-3.4566-2.5433,10.5778.4046,19.3755,2.9363,24.7626,7.9304,9.468,8.7861,10.2542,19.9074,10.2542,19.9074,1.052,15.0633-12.8437,20.3118-13.2715,36.7972-.289,11.156,5.6763,24.5314,14.4738,27.1326,6.867,2.0347,9.1921,9.6317,31.215-.9001,14.1732-6.7743,21.8156-16.0264,28.7635-14.9282,11.179,1.7572,13.9166,2.4182,25.6736,4.3719,8.5433,1.4219,14.6818-1.8267,23.5258-5.4218,0,0,23.6875-9.6647,47.641-13.2716,32.0574-4.8324,44.2654,8.4623,58.5079-2.4161,5.6763-4.3352,2.7861-5.7108,13.8727-22.3119,4.7861-7.1791,28.9938.1273,45.8376-19.1212,11.5605-13.2136,11.4333-30.9013,13.9419-32.751,8.8091-6.5317,6.1733-14.7281,9.5837-22.9245,2.0808-5.0058.7167-7.2716,1.2138-14.4738.8323-12.2541,5.8266-20.913,13.2599-33.7799,3.0406-5.2601,16.5432-2.4971,27.5952-15.9073,7.6761-9.3179,11.0865-18.9939,9.838-32.4158,1.3641,2.37,2.9249,4.6126,4.0346,8.2427.4046,1.3526.7513,2.8786.9942,4.6705.7978,5.7224-.266,11.3987-2.7977,19.8264-.6127,2.0231-1.3063,4.1963-2.081,6.5779-.5317,1.6185-1.0982,3.341-1.6994,5.1675-2.1271,6.474-5.2947,15.1444-9.8265,25.202-9.8612,13.4911-11.1442,23.1905-10.2772,29.7453,1.5489,11.8264,7.4449,23.387-10.6474,29.1094-7.4219,2.3584-16.2425,20.9478-17.3638,28.6471-1.9077,13.2022,2.3583,26.3581,7.7108,38.9128,3.942,9.2254,17.9767,13.5259,32.6817,23.7223,9.9189,6.8902,9.7917,18.4044,11.3871,23.2251,3.711,11.26,3.341,17.5605,2.9247,20.809Z"/>
          <path class="cls-9" d="M182.9377,390.5037c-.3906-5.791-5.7024-9.3874-10.2536-9.9521-.7477-.0927-5.8898-.6479-9.0473,3.0157-3.2494,3.7703-2.3559,9.64.3016,13.2695,2.2033,3.0092,6.6222,5.8483,11.4599,4.5237,4.7875-1.3109,7.8592-6.1171,7.5395-10.8569Z"/>
          <path class="cls-9" d="M212.191,367.5838c-2.4198-2.6825-7.0415-4.3125-10.5553-2.1112-2.4998,1.566-4.144,4.8866-3.3173,7.8412.8858,3.1662,4.1714,4.3486,6.3332,5.1267,1.7423.6271,6.0226,2.1676,8.4442,0,2.5673-2.298,1.9048-7.7421-.9047-10.8568Z"/>
          <path class="cls-9" d="M321.061,345.8701c-4.0644-5.1283-13.5873-4.3976-15.9837-.3016-2.2276,3.8076,1.6649,10.5881,6.6348,13.2695.9108.4914,4.7851,2.5818,7.841.9047,3.932-2.1579,4.8572-9.6465,1.5079-13.8727Z"/>
          <path class="cls-9" d="M280.6494,357.2546c-.6041-2.5205-3.0977-4.3469-5.6545-4.0713-3.1409.3385-5.3633,3.7398-4.5237,6.7855.6799,2.4666,3.2465,4.2584,5.8809,3.8452,3.0085-.4719,4.9958-3.6453,4.2974-6.5594Z"/>
          <path class="cls-9" d="M242.5374,390.1645c.4243-1.5681-.2361-3.3169-1.5834-4.2975-1.2977-.9445-2.9843-.9955-4.2975-.3393-1.5999.7994-2.6851,2.6684-2.2619,4.5237.3529,1.547,1.6446,2.603,2.9405,2.9404,2.0668.5382,4.6078-.6307,5.2022-2.8273Z"/>
          <path class="cls-9" d="M158.5098,354.9928c-.3958-.82-1.9734-4.0885-5.2022-4.2975-2.5774-.1669-4.7137,1.7125-5.6547,3.619-1.2753,2.5839-.4752,5.4611.9047,7.2379,2.1493,2.7676,6.6885,4.132,9.2737,2.0357,2.5389-2.0589,1.7809-6.3109.6785-8.595Z"/>
          <path class="cls-9" d="M364.9408,345.4176c-.2539-1.8144-1.953-3.2949-3.7697-3.3173-2.5383-.0313-4.5472,2.7925-3.9205,5.1267.3816,1.4211,1.7091,2.5458,3.1664,2.7143,2.3822.2755,4.8723-2.0323,4.5237-4.5237Z"/>
          <path class="cls-9" d="M416.0586,206.5404c-3.295-1.7799-7.6601-.3421-9.3489,3.0157-1.8721,3.7225.2547,8.3938,3.9205,9.6505,2.7199.9325,5.8754-.1559,7.5395-2.4126,2.3073-3.1292,1.5702-8.2651-2.111-10.2536Z"/>
          <path class="cls-1" d="M442.5438,467.0093c-.3005,2.3353-.7397,5.5492-2.6013,9.3525-1.0864,2.208-4.6702,9.2369-13.0168,12.9594-6.8093,3.052-13.1675,2.2775-19.5144,1.5145-17.1904-2.0809-30.4158-21.9882-48.6699-15.8264-12.7512,4.3004-19.5256,20.4852-32.8202,22.4506-8.9016,1.3177-17.3062-4.3699-26.2424-5.3064-5.4567-.5664-11.0056.6359-16.4044-.2775-6.1387-1.0519-11.4565-4.7166-16.9363-7.6646-12.1964-6.5549-26.4851-9.8265-40.1034-7.2831-16.0115,3.0057-20.1732,13.4102-36.358,15.202-10.8553,1.2139-21.8726-2.4971-27.7106-2.4739-9.9652.0461-21.0056,3.6993-29.2135-1.9307-4.6243-3.1792-7.1329-8.682-11.3987-12.3351-5.3295-4.5896-12.7745-5.7803-19.8032-5.8959-18.1617-.2891-35.6527,5.3177-53.6294,6.9247-21.4448,1.9076-23.3523-3.6416-34.9707-19.6644-2.0925-2.8785-6.9479-10.6935-5.2021-20.5084.2659-1.4912,1.2601-6.3004,5.2021-11.4565,6.6473-8.7051,15.1675-9.8726,24.0692-14.4738,0,0,15.7452-8.1617,24.8088-25.3174-.0579,4.4392-.7515,8.8207-2.1388,12.7397-4.9363,13.8611-17.283,17.6761-17.6412,31.6642-.0348,1.2717-.1388,10.6819,6.3351,17.1907,9.26,9.3292,25.491,6.1732,31.6644,4.9825,13.8032-2.682,13.9073-7.9884,24.4274-8.1501,6.6011-.0925,13.6876,2.9595,27.5951,9.0519,13.8726,6.0808,13.075,6.9479,18.092,8.6011,13.2601,4.3467,19.6761-1.3989,46.1499-6.3353,23.514-4.3928,35.2711-6.5894,48.8547-1.8149,11.8496,4.1733,12.8206,9.2485,23.9767,10.4045,13.0402,1.364,17.6067-4.9595,30.3002-1.8035,8.9594,2.2196,10.1271,6.2195,17.1903,5.8728,7.11-.3353,10.5087-4.5781,18.5548-9.4913,12.4738-7.6299,19.0748-10.8322,26.2308-9.9536,7.3179.8903,8.8787,5.1791,15.8379,4.5203,4.6475-.4393,10.7283-2.9941,13.1213-7.6879,3.6416-7.1559-3.3757-15.1558-9.5027-28.4967-1.3872-3.0289-10.6357-23.6876-9.9536-47.0514.3005-10.0577,1.0056-34.4273,14.9246-42.0688,5.0288-2.763,12.1616-3.5492,15.2368-9.9536,1.3872-2.8901.9827-4.9133,1.2021-9.3525.4048-8.0347,2.3701-13.7341,5.1328-21.7107,3.5608-10.3237,8.6013-17.4911,12.0579-22.312,7.3755-10.3003,14.0461-19.6298,20.0574-27.9533-.6125,2.0231-1.3062,4.1964-2.0808,6.5779-.5317,1.6185-1.0981,3.3411-1.6995,5.1675-2.127,6.474-5.2947,15.1444-9.8264,25.202-9.8611,13.4911-11.1443,23.1906-10.2771,29.7453,1.5488,11.8264,7.4448,23.3869-10.6475,29.1093-7.4219,2.3584-16.2424,20.9479-17.3638,28.6471-1.9077,13.2022,2.3582,26.3581,7.7107,38.9128,3.9421,9.2254,17.9768,13.5259,32.6816,23.7222,9.9189,6.8902,9.7917,18.4044,11.3872,23.2251,3.7109,11.26,3.3411,17.5605,2.9248,20.809Z"/>
          <path class="cls-3" d="M200.8063,28.1562c-1.7794.0423-4.76.8447-5.6545,3.3927-.9067,2.5824.897,5.341,2.9404,6.5594.2941.1753,2.1957,1.2688,4.5236.6785,2.633-.6677,5.2907-3.3574,4.75-6.3332-.5556-3.0574-4.1129-4.3556-6.5594-4.2975Z"/>
          <path class="cls-3" d="M266.739,52.6972c-.9495-2.0345-3.2607-2.6857-3.8451-2.8273-2.2113-.5362-5.0388.0776-6.5594,2.2619-1.876,2.6947-.8097,6.4107,1.3572,8.2557.317.2699,1.786,1.5206,3.7321,1.3571,3.7305-.3136,6.9097-5.6309,5.3153-9.0473Z"/>
          <path class="cls-3" d="M296.7085,40.3701c-1.0834-1.4521-2.9758-2.0444-4.6368-1.8094-.1908.027-3.0129.4718-3.8451,2.8273-.7605,2.1526.7096,4.2917,2.0357,5.3154,1.2138.9369,3.4011,1.784,5.2022.7917,2.2981-1.2661,2.8822-4.929,1.244-7.1249Z"/>
          <path class="cls-3" d="M305.9821,70.528c-.2853-1.3734-1.4971-2.5453-3.0157-2.5634-1.4331-.0171-2.6247.9996-3.0159,2.2619-.3529,1.1389-.0522,2.4703.9047,3.3173,1.0279.9098,2.5867,1.0607,3.7697.3016,1.1446-.7344,1.6082-2.1092,1.3572-3.3173Z"/>
          <path class="cls-3" d="M188.517,50.473c-.4276-3.3237-3.8987-4.7572-4.0713-4.8252-.3347-.132-3.5725-1.3494-6.0316.6031-2.3221,1.8437-2.5426,5.3966-1.2063,7.841.9821,1.7965,3.0236,3.3944,5.4283,3.3174,3.4336-.11,6.311-3.5931,5.8809-6.9363Z"/>
          <path class="cls-3" d="M155.7955,44.8938c-1.5468-1.8157-4.269-2.5602-6.6346-1.6587-1.8776.7155-3.6479,2.5126-3.7699,4.8252-.1905,3.6118,3.7989,5.4583,4.0715,5.5792.4234.188,3.2232,1.4309,5.4283,0,2.5406-1.6486,3.1526-6.107.9047-8.7458Z"/>
          <path class="cls-3" d="M139.284,88.7736c2.2259-4.6715-.1802-10.6348-4.2975-13.3449-3.1664-2.0842-6.5013-1.6888-7.2379-1.5834-5.9538.8517-11.5696,6.983-10.4045,12.4401.9125,4.2741,5.5803,6.242,6.3332,6.5594,4.839,2.04,12.8833,1.6445,15.6067-4.0713Z"/>
          <path class="cls-3" d="M84.9999,95.7853c-1.9394.1264-4.5959,1.3569-4.9762,3.8452-.3771,2.4676,1.72,4.63,3.8452,5.2022,2.0517.5525,3.7546-.4781,4.0713-.6786,1.51-.9564,3.079-3.0416,2.4879-5.2022-.641-2.3437-3.4188-3.2975-5.4283-3.1666Z"/>
          <path class="cls-3" d="M87.9402,134.2366c1.9709-1.8456,1.2548-5.5875-.9047-7.2379-1.3285-1.0152-3.4676-1.441-4.9762-.4523-2.2061,1.4458-2.4,5.4808-.2261,7.4641,1.6337,1.4905,4.5024,1.7286,6.107.2261Z"/>
          <path class="cls-3" d="M53.1078,160.4741c-1.9177-2.0464-5.4836-1.9919-7.6902-.4523-3.3001,2.3025-3.69,8.0177-.9049,10.1783,1.9432,1.5074,5.0689,1.0027,7.0118-.4524,2.7888-2.0886,3.9539-6.7438,1.5832-9.2736Z"/>
          <path class="cls-3" d="M62.6075,215.2108c-.5878-2.7036-2.8705-6.0768-5.6547-5.8809-2.8413.1998-4.3133,3.9834-4.5236,4.5237-.8068,2.0735-1.601,6.5354,1.3572,8.595,2.0084,1.3984,5.0294,1.1901,7.0117-.4524,2.7833-2.3062,1.9499-6.1398,1.8094-6.7855Z"/>
          <path class="cls-3" d="M54.6911,262.2571c1.9412-2.1076,3.3289-5.7307,2.0357-8.8211-1.83-4.373-8.0999-5.4608-12.2141-3.8451-.624.2451-4.4104,1.7321-5.2022,5.4283-.8071,3.7673,2.1673,6.6988,2.7143,7.2379.1566.1544,3.8941,3.7184,8.595,2.4881.4111-.1075,2.387-.6595,4.0713-2.4881Z"/>
          <path class="cls-3" d="M81.3808,294.3753c.3196-3.6941-1.799-7.8971-5.6547-9.2736-4.0765-1.4554-7.7128,1.0992-8.3688,1.5834-3.5181,2.5969-5.2763,7.622-3.6189,11.7616.2052.5125,1.8,4.3171,5.6547,5.2022,3.2871.7547,5.9586-1.1322,7.2379-2.0357,1.0772-.7608,4.3919-3.102,4.7498-7.238Z"/>
          <path class="cls-1" d="M348.8063,379.3453c-2.7161-2.2825-8.3485-2.0983-11.7615,1.508-3.1027,3.2784-3.3122,8.2655-.9049,11.7615,1.9513,2.8335,5.6794,4.7711,8.7459,3.9206,5.9004-1.6364,8.4857-13.3539,3.9205-17.1901Z"/>
          <path class="cls-1" d="M370.2184,418.8522c-3.5528-1.8097-8.4148-1.0511-11.4599,2.111-4.1355,4.2943-2.2249,10.2224-2.1112,10.5553,1.2719,3.7236,4.8699,7.3135,9.3491,7.2379,4.3756-.0738,7.0082-3.6019,7.2379-3.9206,3.351-4.6465,2.6037-13.1212-3.0159-15.9837Z"/>
          <path class="cls-1" d="M327.6957,417.3443c-3.7161-4.0961-9.8701-4.0068-13.8726-1.5079-2.9821,1.8618-5.9089,5.7724-5.1268,10.2537.981,5.6211,7.0023,7.5829,7.8411,7.8411.6864.2112,6.4891,1.8961,10.5552-1.8094,3.8777-3.5338,4.5195-10.4604.6031-14.7774Z"/>
          <path class="cls-1" d="M274.3163,404.678c-2.1631-2.3995-6.5748-2.4187-8.8966.1509-2.2949,2.5397-1.3484,6.2807.1507,8.2933.4351.5842,2.3049,2.8866,4.8253,2.5634,2.124-.2724,3.2974-2.2283,3.7697-3.0157.1375-.2292,2.8831-4.9611.1509-7.9919Z"/>
          <path class="cls-1" d="M241.1426,410.408c-3.0898-2.3289-7.683-2.0304-10.8569.3016-3.1605,2.3221-4.4823,6.3435-3.6189,9.9521.6844,2.8609,2.9028,6.1332,6.6348,6.9363,4.755,1.0233,8.2248-2.7676,8.4442-3.0157,3.352-3.7885,3.7323-10.9063-.6031-14.1742Z"/>
          <path class="cls-1" d="M185.3504,429.7091c-2.5792-3.7542-8.9971-3.9436-12.6664-.9047-2.9425,2.437-4.4502,7.2255-2.4126,10.5552,1.6957,2.771,5.0473,3.225,5.7299,3.3174,3.3347.4517,7.089-1.0169,9.0475-4.2222,1.4336-2.3464,2.16-6.0408.3016-8.7458Z"/>
          <path class="cls-1" d="M149.6132,417.1935c-1.778-.5888-4.2253-.339-5.5792,1.3572-1.7159,2.1497-.7334,5.4426,1.0554,7.0872.371.3411,1.7218,1.4802,3.619,1.357,2.2263-.1446,4.4477-1.9784,4.6745-4.5236.2343-2.6289-1.7836-4.6201-3.7697-5.2777Z"/>
          <path class="cls-1" d="M160.1685,447.5777c-.1497-.3335-1.3872-3.089-3.5437-3.3928-3.2007-.4509-7.159,4.6776-5.8054,7.6148.8931,1.9381,3.944,2.586,6.107,2.1865.6755-.1247,2.6701-.4932,3.5437-2.1865.8524-1.6522.0528-3.4329-.3016-4.222Z"/>
          <path class="cls-1" d="M75.5001,436.6454c-.3047-4.2429-3.9676-7.6539-8.1428-7.9165-3.3722-.2121-6.8828,1.6419-8.3687,4.9762-1.2625,2.8331-.7671,6.071.9047,8.3688,2.4953,3.4296,7.5139,4.631,11.3092,2.4879,2.7355-1.5446,4.5318-4.6548,4.2975-7.9164Z"/>
          <path class="cls-1" d="M79.1943,371.8813c-.176-1.5836-1.7993-3.1451-3.3927-2.9405-1.7998.2312-2.6811,2.6027-2.4881,4.2975.0209.1832.2647,2.1113,1.5079,2.5634,1.6511.6005,4.6354-1.5587,4.3729-3.9205Z"/>
        </g>
        <path class="cls-2" d="M29.3592,437.9707c-.3073-2.8427-4.0149-4.8876-6.7826-4.1739-3.7849.9761-5.317,6.9837-3.3914,9.1304,1.3113,1.4619,4.0999.9924,5.4783.5219,2.0507-.7002,4.9883-2.7714,4.6957-5.4783Z"/>
        <path class="cls-2" d="M66.6635,462.4925c-.5745-3.4669-5.816-5.9105-9.9783-4.6957-3.3892.9893-6.7856,4.6152-5.8695,8.2174.8224,3.2338,4.7141,4.8511,7.6305,4.6957,1.8849-.1005,3.2294-.9342,3.913-1.3696,1.8082-1.1516,4.7888-3.924,4.3043-6.8478Z"/>
        <path class="cls-2" d="M110.0005,451.9272c-1.3267-1.9141-4.0906-2.6958-6.1631-1.4673-1.7151,1.0166-2.4666,3.1194-2.0543,4.9891.3914,1.7751,1.8188,3.2825,3.7174,3.6195,1.6235.2882,3.356-.321,4.4021-1.6631,1.2744-1.6349,1.1833-3.9124.0979-5.4783Z"/>
        <path class="cls-2" d="M169.1852,479.449c.6064-3.25-2.2894-5.9758-4.5652-7.0436-3.1761-1.4902-7.6738-.9373-9.1304,1.5653-1.8844,3.2378,1.3582,9.6755,6.1304,10.3043,3.0253.3987,6.9446-1.5004,7.5652-4.826Z"/>
        <path class="cls-2" d="M141.2723,479.7099c-2.0731-.4474-4.5094,1.109-4.5652,2.7391-.0564,1.649,2.3381,2.9388,4.1738,3.1304.2517.0262,2.6755.2512,3.3914-1.0435.7874-1.4241-.6903-4.3275-3-4.826Z"/>
        <path class="cls-2" d="M216.6635,455.7099c-3.0598-2.6613-8.5089-3.1088-11.7391,0-2.5828,2.4857-2.8369,6.3691-1.826,9.1304,1.8566,5.0715,8.6243,8.1166,12.7826,5.7391,4.4724-2.557,5.2388-10.9937.7826-14.8695Z"/>
        <path class="cls-2" d="M262.0549,475.4055c.6787-2.3318-1.3124-4.0706-1.4348-4.1738-1.2744-1.075-3.5336-1.656-5.0869-.3914-1.4851,1.2091-1.4547,3.3965-.7826,4.826.5975,1.2709,2.0223,2.6234,3.913,2.4783,1.5464-.1188,2.9446-1.2041,3.3914-2.7391Z"/>
        <path class="cls-2" d="M292.5766,466.6663c-1.7356-1.8982-4.6716-2.059-6.7826-.913-1.9486,1.0579-3.2515,3.2605-3,5.6086.1989,1.8571,1.3685,3.7925,3.3912,4.5652,2.3116.8831,4.6814-.1558,6-1.5652,1.8363-1.9628,2.4165-5.4808.3914-7.6957Z"/>
        <path class="cls-2" d="M333.794,473.1881c-2.0477-2.1868-5.4758-2.4182-7.826-1.0435-2.5226,1.4756-2.9852,4.323-3.1305,5.2174-.1661,1.0225-.6206,3.8203,1.3043,5.8696,1.7646,1.8787,4.6404,2.1824,6.7826,1.3043,2.1542-.8829,3.0808-2.7618,3.3914-3.3914.2386-.4839,2.3322-4.9089-.5217-7.9565Z"/>
        <path class="cls-2" d="M364.4461,455.5794c-1.0193-1.9923-4.3008-2.3846-6.3914-1.174-1.5061.8722-2.8457,2.8381-2.3477,4.6957.3677,1.3712,1.5725,2.0703,1.8259,2.2174,1.7241,1.0005,3.5308.3555,3.7827.2609,2.302-.8646,4.21-3.8899,3.1304-6Z"/>
        <path class="cls-2" d="M408.533,474.2316c.4958-2.6531-.8638-5.6227-3.3911-7.0436-3.0698-1.726-6.1943-.2289-6.3914-.1304-1.9531.9773-3.9868,3.1885-3.7827,5.8695.2927,3.843,4.9294,5.3132,5.4783,5.4783.7705.2317,3.6892,1.1089,6-.6521,1.6326-1.2441,2.0034-3.075,2.0869-3.5217Z"/>
        <path class="cls-2" d="M420.6636,435.362c-1.7649-1.989-5.6951-6.418-10.9565-5.7391-4.387.566-6.8022,4.3089-7.0435,4.6957-3.5037,5.6207.3232,12.2732.7825,13.0435,3.6934,6.194,10.7393,7.0802,12.5217,7.3043,2.666.3353,6.8828.8656,9.1306-1.5652,3.5684-3.8589-.0393-12.7857-4.4348-17.7391Z"/>
      </g>
      <path class="cls-1" d="M404.4896,268.9273c-2.0745-1.8511-5.405-2.0005-7.5652-.5217-3.5566,2.4347-3.4609,8.9544,0,11.2173,2.0664,1.3511,5.0845,1.0227,7.0435-.5217,3.0171-2.3787,3.4355-7.5739.5217-10.1739Z"/>
      <path class="cls-1" d="M398.0984,313.1447c.3835-1.922-.376-4.3268-2.3479-5.3478-1.95-1.0096-3.9189-.0624-4.0435,0-2.3879,1.1978-3.3484,4.5231-2.2175,6.913.0942.1993,1.1211,2.2833,3.261,2.6087,2.4148.3672,4.8574-1.7162,5.3479-4.1739Z"/>
    </g>
  </g>
</svg>