<?xml version="1.0" encoding="UTF-8" standalone="no"?> <!-- Created with Vectornator for iOS (http://vectornator.io/) --><!DOCTYPE svg PUBLIC "-//W3C//DTD SVG 1.1//EN" "http://www.w3.org/Graphics/SVG/1.1/DTD/svg11.dtd">
<svg height="100%" style="fill-rule:nonzero;clip-rule:evenodd;stroke-linecap:round;stroke-linejoin:round;" xmlnsXlink="http://www.w3.org/1999/xlink" xmlns="http://www.w3.org/2000/svg" xmlSpace="preserve" width="100%" xmlnsVectornator="http://vectornator.io" version="1.1" viewBox="0 0 2747.33 2394.05">
<metadata>
<vectornatorSetting key="DimensionsVisible" value="1"/>
<vectornatorSetting key="PencilOnly" value="0"/>
<vectornatorSetting key="SnapToPoints" value="0"/>
<vectornatorSetting key="OutlineMode" value="0"/>
<vectornatorSetting key="CMYKEnabledKey" value="0"/>
<vectornatorSetting key="RulersVisible" value="1"/>
<vectornatorSetting key="SnapToEdges" value="0"/>
<vectornatorSetting key="GuidesVisible" value="1"/>
<vectornatorSetting key="DisplayWhiteBackground" value="0"/>
<vectornatorSetting key="doHistoryDisabled" value="0"/>
<vectornatorSetting key="SnapToGuides" value="1"/>
<vectornatorSetting key="TimeLapseWatermarkDisabled" value="0"/>
<vectornatorSetting key="Units" value="Millimeters"/>
<vectornatorSetting key="DynamicGuides" value="0"/>
<vectornatorSetting key="IsolateActiveLayer" value="0"/>
<vectornatorSetting key="SnapToGrid" value="0"/>
</metadata>
<defs/>
<g id="Layer 1" vectornatorLayerName="Layer 1">
<path d="M565.842+392.317L565.842+392.317C1008.86-42.495+1720.52-35.8039+2155.38+407.262L2155.38+407.262C2590.23+850.327+2583.61+1561.99+2140.59+1996.8L2140.59+1996.8C1697.57+2431.61+985.912+2424.92+551.057+1981.85L551.057+1981.85C116.201+1538.79+122.821+827.128+565.842+392.317Z" opacity="1" fill="#b2d8ff"/>
<path d="M982.751+155.288C985.481+154.567+1001.88+154.866+999.09+154.294C998.186+154.582+983.136+158.689+982.232+158.977C980.875+159.409+976.938+160.281+975.581+160.713C973.771+161.29+964.373+166.83+962.563+167.406C945.226+174.513+935.517+176.834+918.305+184.166C913.351+186.854+909.066+190.541+904.573+193.895C876.235+220.381+840.049+235.145+806.773+254.03C782.6+271.368+761.621+292.799+737.495+310.243C729.954+315.709+722.676+321.542+714.939+326.733C666.226+351.183+632.411+395.185+591.778+430.078C568.321+449.354+543.483+465.327+519.555+483.975C479.831+539.054+427.158+586.676+395.265+647.638C389.481+657.43+383.236+666.965+378.006+677.072C341.04+762.758+309.224+851.377+291.783+943.201C267.829+1014.31+263.916+1089.78+260.701+1163.98C260.757+1175.88+266.305+1186.71+267.462+1198.42C268.707+1211.5+267.5+1224.68+268.424+1237.78C277.809+1312.25+292.398+1385.88+302.866+1460.16C321.328+1522.67+350.69+1581.77+364.585+1645.69C366.535+1652.17+368.992+1658.5+371.9+1664.6C374.031+1669.06+376.409+1673.4+379.061+1677.57C402.927+1704.84+414.235+1739.82+435.303+1768.78C454.004+1797.36+482.084+1817.26+507.769+1838.9C521.529+1854.28+532.469+1872.07+547.116+1886.7C562.641+1899.5+579.227+1911.11+593.425+1925.51C604.922+1935.39+612.91+1948.43+623.571+1959.08C651.591+1984.09+683.697+2004.4+707.779+2033.66C743.776+2058.67+779.022+2084.38+814.163+2110.58C848.655+2126.72+882.514+2145.69+920.141+2153.61C926.168+2155.53+932.114+2157.7+937.962+2160.11C943.777+2162.49+949.483+2165.14+955.101+2167.95C1043.33+2216.22+1145.8+2224.93+1242.64+2246.29C1307.61+2248.43+1372.23+2256.71+1437.28+2257.27C1462.11+2257.58+1486.08+2248.58+1510.97+2250.38C1553.23+2246.57+1592.84+2229.81+1634.66+2223.97C1660.84+2213.6+1684.16+2196.84+1711.12+2188.15C1717.85+2185.78+1724.72+2183.85+1731.6+2182C1775.19+2173.97+1815.48+2153.48+1853.15+2130.7C1903.05+2107.88+1949.06+2077.72+1995.08+2048.2C2041.38+2005.67+2088.33+1963.81+2136.01+1922.85C2150.2+1903.57+2163.58+1883.57+2177.04+1863.72C2204.7+1833.44+2225.19+1796.28+2257.57+1770.49C2278.2+1731.19+2297.48+1690.94+2322.05+1653.97C2330.26+1624.64+2338.53+1595.32+2348.04+1566.37C2359.88+1541.6+2373.03+1517.37+2386.29+1493.29C2389.3+1486.78+2391.11+1479.8+2392.9+1472.88C2409.2+1420.2+2403.62+1364.38+2416.47+1311.12C2417.75+1297.32+2417.78+1283.4+2421.52+1269.91C2420.89+1240.98+2419.55+1211.75+2423.36+1182.86C2421.24+1132.73+2425.1+1082.4+2418.11+1032.49C2418.6+1010.04+2420.64+987.598+2416.87+965.261C2405+931.362+2398.42+896.109+2390.85+861.052C2381.38+833.196+2370.51+805.965+2355.06+780.852C2351.16+773.013+2347.55+765.027+2344.17+756.948C2341.65+750.771+2339.42+744.473+2337.53+738.073C2329.99+700.594+2308.47+668.773+2289.25+636.66C2273.57+609.534+2266.12+578.751+2250.04+551.816C2238.88+530.719+2217.56+518.065+2203.02+499.615C2186.54+482.496+2177.16+460.084+2160.51+443.116C2145.79+425.848+2125.69+414.587+2109.14+399.316C2087.48+376.539+2064.89+354.606+2038.34+337.549C2028.38+328.822+2019.94+318.537+2010.25+309.534C1964.71+277.449+1915.36+250.938+1868.92+220.393C1829.39+200.779+1787.43+186.077+1750.32+161.783C1744.37+158.732+1738.26+155.988+1732.02+153.591C1670.13+134.441+1606.48+120.728+1545.16+99.9835C1516.27+97.7819+1487.4+95.6413+1458.39+95.0651C1432.22+92.617+1406+90.7007+1379.81+88.6818C1339.8+91.4158+1299.68+91.6761+1259.91+97.393C1221.02+110.342+1179.86+112.044+1140.04+120.258C1067.57+143.349+995.802+168.173+924.306+194.097C888.292+218.703+847.596+234.88+807.473+251.253C786.749+263.146+771.13+282.144+750.127+293.695C727.121+307.757+702.055+318.009+678.44+330.811C659.5+344.112+638.339+358.639+620.707+373.457C552.637+418.84+500.088+480.233+455.207+548.737C439.889+568.546+421.251+585.681+407.57+606.764C351.942+692.481+313.861+789.393+299.042+890.436C279.838+965.733+269.52+1043.39+267.087+1120.9C270.066+1152.6+276.64+1183.89+282.821+1215.09C285.076+1226.12+287.266+1237.16+289.473+1248.2C289.113+1246.42+288.753+1244.63+288.394+1242.85C280.417+1202.38+270.952+1162.02+266.859+1120.91C269.118+1043.36+279.441+965.698+298.252+890.283C308.382+828.937+322.332+767.174+350.12+711.068C373.729+650.662+414.579+585.214+458.676+537.36C503.149+468.251+556.817+410.647+624.453+364.091C642.048+348.771+655.346+338.387+674.414+324.726C701.194+309.563+730.062+297.788+755.353+279.939C771.741+268.361+785.052+252.756+802.552+242.711C821.193+232.208+842.302+227.254+861.017+216.84C881.215+207.133+900.074+195.12+918.812+183.009C992.463+154.454+1066.3+126.536+1141.21+101.471C1179.51+93.8192+1218.7+89.8069+1255.77+76.7137C1296.84+69.557+1338.43+67.8593+1379.86+63.9616C1408.4+65.0735+1436.93+66.5056+1465.46+68.1185C1493.73+67.0953+1521.89+69.1157+1550.09+70.2561C1614.23+89.0242+1680.28+101.217+1744.75+119.002C1752.34+121.62+1759.79+124.655+1767.05+128.074C1813.48+157.667+1869.65+167.544+1914.71+199.289C1956.1+220.215+1995.77+244.518+2035.46+268.477C2057.15+288.748+2079.68+307.528+2104.55+323.825C2132.79+352.142+2165.16+375.378+2195.58+401.092C2223.87+428.968+2241.82+465.823+2274.51+489.634C2277.77+492.726+2280.91+495.947+2283.91+499.295C2288.42+504.37+2292.45+509.844+2296.29+515.433C2304.41+527.396+2310.55+540.538+2317.54+553.161C2319.32+556.696+2321.01+560.277+2322.58+563.912C2341.42+618.16+2385.96+659.757+2397.94+717.118C2400.12+724.052+2402.72+730.858+2405.9+737.395C2409.54+745.104+2413.42+752.7+2417.69+760.075C2444.26+802.728+2459.71+851.511+2468.28+900.91C2472.75+918.045+2480.82+934.084+2484.18+951.541C2488.9+977.516+2489.22+1003.86+2487.94+1030.1C2496.1+1080.96+2492.41+1132.5+2495.41+1183.68C2492.54+1211.78+2493.1+1240.08+2494.83+1268.19C2493.76+1283.67+2489.44+1298.8+2490.11+1314.45C2477.46+1373.1+2482.96+1434.11+2465.48+1492.02C2456.71+1529.02+2434.03+1560.4+2418.11+1594.43C2408.26+1626.62+2401.17+1659.76+2388.56+1691.05C2363.12+1729.05+2344.92+1771.2+2322.46+1810.93C2307.84+1830.59+2287.77+1844.96+2273.69+1865.27C2267.01+1872.51+2262.3+1881.17+2256.66+1889.17C2231.7+1914.71+2216.1+1947.52+2192.84+1974.44C2142.73+2019.84+2091.59+2064.12+2041.43+2109.54C1992.26+2141.55+1942.78+2173.76+1889.23+2198.2C1842.12+2227.58+1798.31+2250.14+1744.14+2261.56C1716.33+2271.14+1683.94+2287.44+1655.6+2295.69C1601.39+2304.76+1548.66+2325.77+1492.94+2324.28C1472.98+2327.84+1452.75+2330.61+1432.43+2330C1365.71+2328.05+1299.5+2319.12+1232.9+2315.26C1129.12+2291.24+1019.64+2278.13+926.256+2223.79C920.651+2220.72+914.874+2217.96+908.963+2215.52C866.378+2204.23+827.44+2183.59+788.519+2163.43C765.826+2148.96+745.593+2131.08+725.168+2113.7C692.613+2093.68+664.184+2068.23+639.616+2039.16C612.748+2017.49+585.341+1995.67+565.911+1966.7C562.585+1962.74+558.872+1959.13+555.241+1955.46C541.5+1940.39+523.774+1929.65+510.345+1914.32C497.813+1900.09+487.867+1883.88+476.388+1868.86C455.761+1850.32+433.42+1833.06+416.706+1810.6C387.277+1776.19+376.401+1731.05+348.832+1695.45C345.786+1690.09+343.008+1684.57+340.569+1678.9C337.26+1671.24+334.564+1663.33+332.403+1655.27C320.794+1590.31+293.39+1529.64+277.421+1465.86C269.266+1390.23+257.194+1315.08+249.944+1239.31C249.316+1226.37+250.994+1213.4+250.261+1200.46C248.66+1186.65+243.004+1173.35+244.603+1159.17C250.076+1085.49+256.184+1010.67+281.469+940.475C301.129+848.606+334.595+760.091+373.111+674.544C378.552+664.407+385.017+654.867+390.999+645.047C423.88+584.303+473.357+544.403+513.935+489.594C535.14+473.384+572.542+443.352+593.546+426.842C608.538+414.573+610.339+409.515+625.309+397.189C652.023+370.001+680+343.157+714.497+326.045C740.303+308.613+764.091+288.502+787.757+268.322C793.842+263.225+799.765+257.874+806.549+253.691C839.859+234.868+876.078+220.184+904.468+193.755C908.968+190.394+913.289+186.749+918.22+184.01C940.063+175.199+960.419+162.996+982.751+155.288" opacity="1" fill="#4b88c6"/>
</g>
<g id="Layer 1 copy" vectornatorLayerName="Layer 1 copy">
<g opacity="1">
<path stroke="#fbfbfb" stroke-width="12.9836" d="M1663.89+2089.43L1663.89+2089.43C1222.38+2211.98+771.887+1977.81+657.69+1566.4L626.915+1455.53C512.719+1044.11+778.06+611.25+1219.57+488.7L1219.57+488.7C1661.08+366.149+2111.57+600.318+2225.77+1011.73L2256.54+1122.6C2370.74+1534.02+2105.4+1966.88+1663.89+2089.43Z" fill="#28425d" stroke-linecap="square" opacity="1" stroke-linejoin="bevel"/>
<path stroke="#fbfbfb" stroke-width="12.9836" d="M2279.61+1234.67C2279.14+1236.69+2239.91+1047.53+2239.91+1047.53C2239.91+1047.53+2182.05+885.973+2180.37+887.14C2166.39+872.126+2151.24+857.995+2139.94+840.717C2082.31+749.473+2008.41+663.554+1910.33+616.202C1878.55+594.475+1843.46+579.25+1810.17+560.646C1785.73+553.261+1761.27+545.8+1737.01+537.744C1712.94+533.128+1688.68+530.963+1664.52+527.957C1624.91+519.54+1584.71+506.083+1545.01+513.563C1539.12+514.122+1533.16+514.344+1527.19+514.221C1499.82+514.599+1472.67+506.889+1445.45+505.57C1403.68+506.868+1366.29+526.527+1324.45+527.916C1319.15+528.577+1313.9+529.53+1308.76+530.825C1275.5+542.331+1242.62+554.897+1208.14+563.119C1181.5+577.089+1155.37+592.069+1127.88+604.546C1085.17+618.666+1047.71+643.561+1006.62+660.972C978.962+682.144+948.748+700.255+925.131+726.213C888.1+755.002+855.44+789.178+828.419+827.737C809.803+859.977+795.211+894.72+778.297+927.996C772.379+945.654+768.807+964.247+761.605+981.415C747.224+1015.09+731.573+1048.18+726.458+1085.57C720.485+1106.56+711.054+1126.35+708.844+1148.62C704.789+1170.48+693.332+1194.59+690.641+1216.66C688.502+1234.57+683.031+1278.97+682.031+1297.14C682.625+1341.87+686.623+1393.11+684.963+1394.89C682.337+1397.71+686.175+1434.95+687.067+1441.16C702.817+1513.05+740.736+1648.32+738.052+1654.52C735.367+1660.71+838.048+1805.28+886.623+1856.24C931.168+1914.41+951.546+1932.04+1004.87+1981.48C1039.3+2005.54+1086.84+2026.63+1119.96+2052.55C1139.3+2063.75+1190.2+2074.86+1209.84+2085.5C1219.74+2090.54+1346.45+2118.84+1356.97+2119.9C1346.44+2118.87+1211.18+2087.22+1201.26+2082.2C1181.59+2071.61+1138.2+2062.59+1118.82+2051.44C1085.62+2025.6+1050.71+2009.69+1016.11+1985.88C962.218+1936.87+891.638+1876.35+878.828+1857.45C866.018+1838.54+769.658+1719.42+735.857+1656.8C708.636+1585.95+663.967+1431.36+667.203+1427.15C670.439+1422.94+659.116+1403.52+658.872+1396.75C662.57+1352.8+658.01+1317.96+654.651+1274.37C653.212+1253.03+657.789+1243.06+660.104+1222.39C661.44+1199.81+673.8+1164.31+677.448+1141.99C679.133+1118.28+687.722+1096.69+693.878+1074.37C698.244+1035.84+713.244+1001.28+727.481+966.484C734.384+949.042+737.371+930.134+743.428+912.388C760.732+876.421+772.592+848.556+792.567+814.152C819.931+774.407+828.227+768.36+883.185+711.227C910.092+682.847+953.402+649.451+985.022+626.747C988.761+624.458+992.596+622.33+996.545+620.393C1036.01+605.739+1070.44+580.851+1111.3+569.226C1139.13+557.059+1165.49+542.107+1192.9+529.176C1229+520.997+1263.78+508.948+1299.07+498.387C1305.13+497.112+1311.28+496.128+1317.5+495.531C1358.55+495.344+1396.1+478.411+1437.07+478.103C1465.14+477.564+1492.51+489.1+1520.64+490.434C1526.18+491.066+1531.73+491.37+1537.25+491.345C1580.69+485.726+1623.81+500.208+1666.26+512.411C1690.58+516.641+1715.03+520.135+1739.18+525.979C1763.66+535.279+1788.37+543.951+1813.07+552.572C1846.13+572.542+1881.09+589.195+1912.68+611.958C2007.82+661.292+2130.97+827.159+2137.41+834.34C2145.02+842.825+2171.55+883.083+2206.82+954.035" fill="#fbfbfb" stroke-linecap="square" opacity="1" stroke-linejoin="bevel"/>
</g>
</g>
</svg>
