<?xml version="1.0" encoding="UTF-8" standalone="no"?> <!-- Created with Vectornator for iOS (http://vectornator.io/) --><!DOCTYPE svg PUBLIC "-//W3C//DTD SVG 1.1//EN" "http://www.w3.org/Graphics/SVG/1.1/DTD/svg11.dtd">
<svg height="100%" style="fill-rule:nonzero;clip-rule:evenodd;stroke-linecap:round;stroke-linejoin:round;" xmlnsXlink="http://www.w3.org/1999/xlink" xmlns="http://www.w3.org/2000/svg" xmlSpace="preserve" width="100%" xmlnsVectornator="http://vectornator.io" version="1.1" viewBox="0 0 2747.33 2394.05">
<metadata>
<vectornatorSetting key="DimensionsVisible" value="1"/>
<vectornatorSetting key="PencilOnly" value="0"/>
<vectornatorSetting key="SnapToPoints" value="0"/>
<vectornatorSetting key="OutlineMode" value="0"/>
<vectornatorSetting key="CMYKEnabledKey" value="0"/>
<vectornatorSetting key="RulersVisible" value="1"/>
<vectornatorSetting key="SnapToEdges" value="0"/>
<vectornatorSetting key="GuidesVisible" value="1"/>
<vectornatorSetting key="DisplayWhiteBackground" value="0"/>
<vectornatorSetting key="doHistoryDisabled" value="0"/>
<vectornatorSetting key="SnapToGuides" value="1"/>
<vectornatorSetting key="TimeLapseWatermarkDisabled" value="0"/>
<vectornatorSetting key="Units" value="Millimeters"/>
<vectornatorSetting key="DynamicGuides" value="0"/>
<vectornatorSetting key="IsolateActiveLayer" value="0"/>
<vectornatorSetting key="SnapToGrid" value="0"/>
</metadata>
<defs/>
<g id="Layer 1" vectornatorLayerName="Layer 1">
<path d="M565.842+392.317L565.842+392.317C1008.86-42.495+1720.52-35.8039+2155.38+407.262L2155.38+407.262C2590.23+850.327+2583.61+1561.99+2140.59+1996.8L2140.59+1996.8C1697.57+2431.61+985.912+2424.92+551.057+1981.85L551.057+1981.85C116.201+1538.79+122.821+827.128+565.842+392.317Z" opacity="1" fill="#b2d8ff"/>
<path d="M982.751+155.288C985.481+154.567+1001.88+154.866+999.09+154.294C998.186+154.582+983.136+158.689+982.232+158.977C980.875+159.409+976.938+160.281+975.581+160.713C973.771+161.29+964.373+166.83+962.563+167.406C945.226+174.513+935.517+176.834+918.305+184.166C913.351+186.854+909.066+190.541+904.573+193.895C876.235+220.381+840.049+235.145+806.773+254.03C782.6+271.368+761.621+292.799+737.495+310.243C729.954+315.709+722.676+321.542+714.939+326.733C666.226+351.183+632.411+395.185+591.778+430.078C568.321+449.354+543.483+465.327+519.555+483.975C479.831+539.054+427.158+586.676+395.265+647.638C389.481+657.43+383.236+666.965+378.006+677.072C341.04+762.758+309.224+851.377+291.783+943.201C267.829+1014.31+263.916+1089.78+260.701+1163.98C260.757+1175.88+266.305+1186.71+267.462+1198.42C268.707+1211.5+267.5+1224.68+268.424+1237.78C277.809+1312.25+292.398+1385.88+302.866+1460.16C321.328+1522.67+350.69+1581.77+364.585+1645.69C366.535+1652.17+368.992+1658.5+371.9+1664.6C374.031+1669.06+376.409+1673.4+379.061+1677.57C402.927+1704.84+414.235+1739.82+435.303+1768.78C454.004+1797.36+482.084+1817.26+507.769+1838.9C521.529+1854.28+532.469+1872.07+547.116+1886.7C562.641+1899.5+579.227+1911.11+593.425+1925.51C604.922+1935.39+612.91+1948.43+623.571+1959.08C651.591+1984.09+683.697+2004.4+707.779+2033.66C743.776+2058.67+779.022+2084.38+814.163+2110.58C848.655+2126.72+882.514+2145.69+920.141+2153.61C926.168+2155.53+932.114+2157.7+937.962+2160.11C943.777+2162.49+949.483+2165.14+955.101+2167.95C1043.33+2216.22+1145.8+2224.93+1242.64+2246.29C1307.61+2248.43+1372.23+2256.71+1437.28+2257.27C1462.11+2257.58+1486.08+2248.58+1510.97+2250.38C1553.23+2246.57+1592.84+2229.81+1634.66+2223.97C1660.84+2213.6+1684.16+2196.84+1711.12+2188.15C1717.85+2185.78+1724.72+2183.85+1731.6+2182C1775.19+2173.97+1815.48+2153.48+1853.15+2130.7C1903.05+2107.88+1949.06+2077.72+1995.08+2048.2C2041.38+2005.67+2088.33+1963.81+2136.01+1922.85C2150.2+1903.57+2163.58+1883.57+2177.04+1863.72C2204.7+1833.44+2225.19+1796.28+2257.57+1770.49C2278.2+1731.19+2297.48+1690.94+2322.05+1653.97C2330.26+1624.64+2338.53+1595.32+2348.04+1566.37C2359.88+1541.6+2373.03+1517.37+2386.29+1493.29C2389.3+1486.78+2391.11+1479.8+2392.9+1472.88C2409.2+1420.2+2403.62+1364.38+2416.47+1311.12C2417.75+1297.32+2417.78+1283.4+2421.52+1269.91C2420.89+1240.98+2419.55+1211.75+2423.36+1182.86C2421.24+1132.73+2425.1+1082.4+2418.11+1032.49C2418.6+1010.04+2420.64+987.598+2416.87+965.261C2405+931.362+2398.42+896.109+2390.85+861.052C2381.38+833.196+2370.51+805.965+2355.06+780.852C2351.16+773.013+2347.55+765.027+2344.17+756.948C2341.65+750.771+2339.42+744.473+2337.53+738.073C2329.99+700.594+2308.47+668.773+2289.25+636.66C2273.57+609.534+2266.12+578.751+2250.04+551.816C2238.88+530.719+2217.56+518.065+2203.02+499.615C2186.54+482.496+2177.16+460.084+2160.51+443.116C2145.79+425.848+2125.69+414.587+2109.14+399.316C2087.48+376.539+2064.89+354.606+2038.34+337.549C2028.38+328.822+2019.94+318.537+2010.25+309.534C1964.71+277.449+1915.36+250.938+1868.92+220.393C1829.39+200.779+1787.43+186.077+1750.32+161.783C1744.37+158.732+1738.26+155.988+1732.02+153.591C1670.13+134.441+1606.48+120.728+1545.16+99.9835C1516.27+97.7819+1487.4+95.6413+1458.39+95.0651C1432.22+92.617+1406+90.7007+1379.81+88.6818C1339.8+91.4158+1299.68+91.6761+1259.91+97.393C1221.02+110.342+1179.86+112.044+1140.04+120.258C1067.57+143.349+995.802+168.173+924.306+194.097C888.292+218.703+847.596+234.88+807.473+251.253C786.749+263.146+771.13+282.144+750.127+293.695C727.121+307.757+702.055+318.009+678.44+330.811C659.5+344.112+638.339+358.639+620.707+373.457C552.637+418.84+500.088+480.233+455.207+548.737C439.889+568.546+421.251+585.681+407.57+606.764C351.942+692.481+313.861+789.393+299.042+890.436C279.838+965.733+269.52+1043.39+267.087+1120.9C270.066+1152.6+276.64+1183.89+282.821+1215.09C285.076+1226.12+287.266+1237.16+289.473+1248.2C289.113+1246.42+288.753+1244.63+288.394+1242.85C280.417+1202.38+270.952+1162.02+266.859+1120.91C269.118+1043.36+279.441+965.698+298.252+890.283C308.382+828.937+322.332+767.174+350.12+711.068C373.729+650.662+414.579+585.214+458.676+537.36C503.149+468.251+556.817+410.647+624.453+364.091C642.048+348.771+655.346+338.387+674.414+324.726C701.194+309.563+730.062+297.788+755.353+279.939C771.741+268.361+785.052+252.756+802.552+242.711C821.193+232.208+842.302+227.254+861.017+216.84C881.215+207.133+900.074+195.12+918.812+183.009C992.463+154.454+1066.3+126.536+1141.21+101.471C1179.51+93.8192+1218.7+89.8069+1255.77+76.7137C1296.84+69.557+1338.43+67.8593+1379.86+63.9616C1408.4+65.0735+1436.93+66.5056+1465.46+68.1185C1493.73+67.0953+1521.89+69.1157+1550.09+70.2561C1614.23+89.0242+1680.28+101.217+1744.75+119.002C1752.34+121.62+1759.79+124.655+1767.05+128.074C1813.48+157.667+1869.65+167.544+1914.71+199.289C1956.1+220.215+1995.77+244.518+2035.46+268.477C2057.15+288.748+2079.68+307.528+2104.55+323.825C2132.79+352.142+2165.16+375.378+2195.58+401.092C2223.87+428.968+2241.82+465.823+2274.51+489.634C2277.77+492.726+2280.91+495.947+2283.91+499.295C2288.42+504.37+2292.45+509.844+2296.29+515.433C2304.41+527.396+2310.55+540.538+2317.54+553.161C2319.32+556.696+2321.01+560.277+2322.58+563.912C2341.42+618.16+2385.96+659.757+2397.94+717.118C2400.12+724.052+2402.72+730.858+2405.9+737.395C2409.54+745.104+2413.42+752.7+2417.69+760.075C2444.26+802.728+2459.71+851.511+2468.28+900.91C2472.75+918.045+2480.82+934.084+2484.18+951.541C2488.9+977.516+2489.22+1003.86+2487.94+1030.1C2496.1+1080.96+2492.41+1132.5+2495.41+1183.68C2492.54+1211.78+2493.1+1240.08+2494.83+1268.19C2493.76+1283.67+2489.44+1298.8+2490.11+1314.45C2477.46+1373.1+2482.96+1434.11+2465.48+1492.02C2456.71+1529.02+2434.03+1560.4+2418.11+1594.43C2408.26+1626.62+2401.17+1659.76+2388.56+1691.05C2363.12+1729.05+2344.92+1771.2+2322.46+1810.93C2307.84+1830.59+2287.77+1844.96+2273.69+1865.27C2267.01+1872.51+2262.3+1881.17+2256.66+1889.17C2231.7+1914.71+2216.1+1947.52+2192.84+1974.44C2142.73+2019.84+2091.59+2064.12+2041.43+2109.54C1992.26+2141.55+1942.78+2173.76+1889.23+2198.2C1842.12+2227.58+1798.31+2250.14+1744.14+2261.56C1716.33+2271.14+1683.94+2287.44+1655.6+2295.69C1601.39+2304.76+1548.66+2325.77+1492.94+2324.28C1472.98+2327.84+1452.75+2330.61+1432.43+2330C1365.71+2328.05+1299.5+2319.12+1232.9+2315.26C1129.12+2291.24+1019.64+2278.13+926.256+2223.79C920.651+2220.72+914.874+2217.96+908.963+2215.52C866.378+2204.23+827.44+2183.59+788.519+2163.43C765.826+2148.96+745.593+2131.08+725.168+2113.7C692.613+2093.68+664.184+2068.23+639.616+2039.16C612.748+2017.49+585.341+1995.67+565.911+1966.7C562.585+1962.74+558.872+1959.13+555.241+1955.46C541.5+1940.39+523.774+1929.65+510.345+1914.32C497.813+1900.09+487.867+1883.88+476.388+1868.86C455.761+1850.32+433.42+1833.06+416.706+1810.6C387.277+1776.19+376.401+1731.05+348.832+1695.45C345.786+1690.09+343.008+1684.57+340.569+1678.9C337.26+1671.24+334.564+1663.33+332.403+1655.27C320.794+1590.31+293.39+1529.64+277.421+1465.86C269.266+1390.23+257.194+1315.08+249.944+1239.31C249.316+1226.37+250.994+1213.4+250.261+1200.46C248.66+1186.65+243.004+1173.35+244.603+1159.17C250.076+1085.49+256.184+1010.67+281.469+940.475C301.129+848.606+334.595+760.091+373.111+674.544C378.552+664.407+385.017+654.867+390.999+645.047C423.88+584.303+473.357+544.403+513.935+489.594C535.14+473.384+572.542+443.352+593.546+426.842C608.538+414.573+610.339+409.515+625.309+397.189C652.023+370.001+680+343.157+714.497+326.045C740.303+308.613+764.091+288.502+787.757+268.322C793.842+263.225+799.765+257.874+806.549+253.691C839.859+234.868+876.078+220.184+904.468+193.755C908.968+190.394+913.289+186.749+918.22+184.01C940.063+175.199+960.419+162.996+982.751+155.288" opacity="1" fill="#4b88c6"/>
</g>
<g id="Layer 1 copy" vectornatorLayerName="Layer 1 copy">
<g opacity="1">
<path stroke="#fbfbfb" stroke-width="12.9836" d="M1507.84+2022.01L1507.84+2022.01C1062.4+2129.37+620.186+1879.92+520.138+1464.84L493.176+1352.98C393.128+937.901+673.129+514.373+1118.58+407.006L1118.58+407.006C1564.02+299.639+2006.23+549.089+2106.28+964.17L2133.24+1076.03C2233.29+1491.11+1953.29+1914.64+1507.84+2022.01Z" fill="#28425d" stroke-linecap="square" opacity="1" stroke-linejoin="bevel"/>
<path stroke="#fbfbfb" stroke-width="12.9836" d="M2152.46+1188.82C2151.92+1190.82+2119.18+1000.43+2119.18+1000.43C2119.18+1000.43+2066.89+836.989+2065.17+838.098C2051.72+822.614+2037.06+807.973+2026.36+790.318C1971.88+697.155+1900.96+608.757+1804.57+558.076C1773.55+535.274+1739+518.857+1706.36+499.124C1682.19+490.907+1658.01+482.614+1634.04+473.732C1610.13+468.295+1585.97+465.301+1561.92+461.47C1522.62+451.702+1482.91+436.877+1442.97+442.993C1437.06+443.351+1431.11+443.368+1425.14+443.041C1397.78+442.482+1370.9+433.847+1343.74+431.597C1301.96+431.465+1263.92+449.833+1222.05+449.788C1216.73+450.268+1211.45+451.041+1206.27+452.159C1172.64+462.52+1139.34+473.954+1104.61+480.99C1077.5+494.04+1050.87+508.117+1022.97+519.646C979.8+532.295+941.515+555.895+899.85+571.888C871.487+592.101+840.671+609.168+816.179+634.302C778.184+661.807+744.373+694.845+716.048+732.456C696.34+764.04+680.568+798.264+662.524+830.942C656.006+848.386+651.799+866.846+644.014+883.758C628.488+916.922+611.715+949.455+605.323+986.648C598.634+1007.42+588.532+1026.88+585.56+1049.06C580.76+1070.77+568.484+1094.47+565.04+1116.44C562.289+1134.26+555.301+1178.45+553.68+1196.58C552.743+1241.29+554.985+1292.64+553.265+1294.37C550.543+1297.1+553.105+1334.45+553.784+1340.68C567.064+1413.07+600.331+1549.56+597.436+1555.66C594.541+1561.76+692.213+1709.76+739.016+1762.35C781.544+1822.01+801.306+1840.32+852.905+1891.56C886.491+1916.78+933.282+1939.5+965.497+1966.53C984.446+1978.39+1034.93+1991.23+1054.2+2002.53C1063.92+2007.91+1189.58+2040.54+1200.06+2041.96C1189.58+2040.56+1055.48+2004.31+1045.74+1998.95C1026.44+1987.68+983.387+1977.19+964.401+1965.38C932.103+1938.42+897.76+1921.32+863.987+1896.35C811.806+1845.52+743.34+1782.62+731.184+1763.29C719.029+1743.96+626.802+1621.61+595.165+1557.87C570.384+1486.13+531.033+1330.1+534.411+1326C537.789+1321.91+527.137+1302.1+527.125+1295.33C532.325+1251.54+528.961+1216.56+527.096+1172.88C526.388+1151.5+531.304+1141.7+534.325+1121.11C536.433+1098.6+550.001+1063.54+554.41+1041.36C556.906+1017.72+566.229+996.432+573.145+974.336C578.827+935.986+595.001+901.959+610.421+867.668C617.917+850.472+621.549+831.677+628.21+814.149C646.735+778.796+659.542+751.353+680.682+717.652C709.391+678.867+717.889+673.108+774.77+617.889C802.633+590.447+847.061+558.553+879.439+536.945C883.255+534.785+887.16+532.789+891.172+530.988C931.116+517.694+966.376+493.999+1007.61+483.78C1035.84+472.572+1062.7+458.531+1090.53+446.546C1126.9+439.607+1162.07+428.755+1197.69+419.408C1203.8+418.342+1209.98+417.569+1216.22+417.186C1257.24+418.403+1295.36+402.766+1336.31+403.86C1364.39+404.282+1391.34+416.748+1419.41+419.044C1424.92+419.865+1430.46+420.359+1435.98+420.523C1479.59+416.394+1522.18+432.343+1564.19+445.992C1588.35+451.053+1612.66+455.381+1636.6+462.048C1660.75+472.18+1685.15+481.694+1709.54+491.154C1741.9+512.245+1776.27+530.085+1807.06+553.916C1900.46+606.476+2017.86+776.462+2024.05+783.859C2031.36+792.599+2056.5+833.742+2089.32+905.859" fill="#fbfbfb" stroke-linecap="square" opacity="1" stroke-linejoin="bevel"/>
</g>
</g>
</svg>
