<?xml version="1.0" encoding="UTF-8"?>
<svg id="Capa_2" xmlns="http://www.w3.org/2000/svg" viewBox="0 0 697.5471 604.196">
  <defs>
    <style>
      .cls-1 {
        fill: #898686;
      }

      .cls-2 {
        fill: #a3a2a2;
      }

      .cls-3 {
        fill: #c4c2c2;
      }

      .cls-4 {
        fill: #ada3a3;
      }

      .cls-5 {
        fill: #b0b0b0;
      }

      .cls-6 {
        fill: #dbdbdb;
      }

      .cls-7 {
        fill: #938989;
      }

      .cls-8 {
        fill: #6b6969;
      }

      .cls-9 {
        fill: #847a7a;
      }
    </style>
  </defs>
  <g id="Capa_1-2" data-name="Capa_1">
    <g>
      <g>
        <path class="cls-5" d="M689.5315,134.9851c-.1306,6.8892-8.8221,10.3161-15.6521,9.4386-6.83-.8893-13.4464-4.1976-20.2882-3.3202-5.3596.6996-10.0196,3.8893-14.4543,6.996-34.6241,24.2131-69.2601,48.4262-103.8841,72.6394-18.3555,12.8299-38.6674,29.2051-38.691,51.604,0,8.822,3.2844,17.2765,4.9801,25.9325,3.7825,19.4937-.6285,39.5686-.095,59.4182,0,.1067.0119.2134.0119.3201.0593,1.9328.1779,3.8893.3914,5.8458,1.8261,18.0828,9.7825,36.6517,26.3474,43.2326,14.2647,5.6561,30.2249.6996,45.5447-.3201,1.9092-.1305,3.8774-.1424,5.8696-.0356,13.3516.7114,12.6995,20.7507-.6758,20.8693l-23.8813.2135c-4.743.0355-9.1659,2.8814-10.7783,7.3516-1.8617,5.1343,1.2923,8.1461,4.245,10.8378,10.7429,9.8062,21.4977,19.6124,32.2525,29.4186,7.5176,6.8655,15.4267,14.3121,15.7706,25.3277.166,5.2648-2.336,10.3754-6.9129,12.9603-7.411,4.2095-15.3794-.4624-21.4148-5.4663-27.1774-22.5293-46.1259-58.102-80.2993-66.9477-45.794-11.8575-87.5325,31.1853-134.441,37.3394-8.0512,1.0671-16.3633,1.0316-24.047,3.6521-16.9681,5.7747-27.0589,22.7428-35.7031,38.4304-11.9644,21.723-23.9285,43.4579-35.881,65.1809-2.6205,4.7549-5.6205,9.8892-11.9288,10.2568-5.988.3557-11.2172-3.8893-12.8417-9.6521-3.249-11.5018,3.8418-21.1538,10.2568-29.964,6.0236-8.3003,11.8457-16.9564,16.6599-26.0392,5.7034-10.7192,9.9958-22.0195,11.6322-34.0193,2.585-19.0314-3.1185-40.1496-17.1105-52.6831-2.3003-2.0751-4.8378-3.9012-7.5887-5.4545-15.7706-8.8694-35.1459-7.1263-53.0744-4.6125-8.2647,1.1501-16.8733,2.5493-23.644,7.4465-10.4227,7.5177-13.8733,21.142-18.9957,32.9284-5.2056,11.9761-15.7706,24.3672-28.7664,21.9839-1.9092-.3438-3.7708-1.0553-5.3004-2.2529-9.4623-7.4228.6047-23.6203,8.49-29.1933,5.4308-3.83,8.5849-10.2331,7.5887-16.8022-2.4307-16.1025-21.1182-12.2251-32.9994-6.2726-17.6917,8.8576-35.383,17.7152-53.0625,26.5727-13.1145,6.5691-33.6756,10.4347-38.4068-3.4505-4.3991-12.8891,11.6561-22.7191,24.6044-26.9285,43.9798-14.2765,87.9475-28.5529,131.9271-42.8295,15.7231-5.1106,35.6795-18.5215,23.5255-34.2683-4.7668-6.1778-12.5098-8.9999-20.3003-8.4663-11.6203.7944-30.8178-10.8971-22.8612-23.0037,2.2055-3.3556,5.8458-5.5019,9.7943-6.1659l43.8136-7.328c1.2687-.2134,2.5019-.6522,3.5455-1.4111,6.2607-4.577.5691-12.4148-4.9921-16.15-20.478-13.8021-44.952-20.0273-69.011-25.7783-22.9442-5.4782-60.1415-4.1739-82.3269,3.8418-20.8575,7.5415-26.7626-11.7153-3.2727-24.4028,19.6006-10.577,44.6318-9.7469,66.0227-6.996,39.2842,5.0513,77.75,16.4227,113.4768,33.5331,7.5295,3.6047,16.9562,7.2094,24.225,4.7905,3.0119-1.0079,5.6442-3.0474,7.6362-6.5454.9131-1.6126,1.5297-3.3794,1.9328-5.1936,15.3794-69.3903-26.3949-146.5119-92.5126-172.136-15.5571-6.0237-33.3909-10.4702-46.8728-19.4227-6.4625-4.2924-2.2294-14.3951,5.3951-12.8891l37.1022,7.328c12.2727,2.4189,30.474.7352,28.2804-13.8022-.249-1.6245-.8062-3.1659-1.4347-4.6719-5.9644-14.146-3.83-31.3158,5.3478-43.5883.9604-1.2806,2.1107-2.419,3.5217-3.166,8.8694-4.7074,15.6044,7.6955,17.6914,17.0512,11.2172,50.3827,34.9323,97.9197,68.4417,137.18,9.0593,10.6244,23.7032,21.7468,35.7388,9.6283,1.2924-1.3043,2.4071-2.7746,3.3911-4.3398,5.4902-8.7153,11.2647-19.4583,21.3792-22.9799,8.7392-3.0355,20.8338,3.3675,19.3635,12.4978-.6404,4.0316-3.7114,7.6481-3.2371,11.7034.6404,5.3596,6.6875,7.8734,11.0157,11.0869,5.3476,3.9722,8.6559,9.9959,12.4029,15.4978,11.727,17.2052,30.0351,30.7347,50.7266,33.0825,20.6914,2.3596,43.2207-8.2884,51.4735-27.4028,8.2053-18.9958,3.4268-45.118,21.2369-56.5843,1.3162-.8418,2.8577-1.3636,4.4228-1.2569,5.8458.4032,6.6877,8.1461,8.1699,13.6837,3,11.2409,14.7982,18.4859,26.4068,19.221,11.6086.7234,22.9087-3.8418,33.0351-9.5572,26.893-15.1776,48.6751-39.2366,61.1256-67.4931,2.9052-6.6047,5.6086-13.8259,12.9841-16.731,4.0672-1.5889,8.8338-.332,11.0986,3.3912,4.8853,8.0512-7.3872,17.561-4.9564,26.6083,3.6402,13.5058,32.537,7.6719,32.3,21.6519Z"/>
        <path class="cls-6" d="M199.1835,8.0146c6.935,0,12.0566,10.1392,13.8286,18.0827,11.2171,50.3827,34.9323,97.9196,68.4417,137.18,6.2532,7.3334,15.1693,14.9053,24.0496,14.9053,3.9851,0,7.9613-1.5233,11.6893-5.277,1.2925-1.3043,2.4071-2.7747,3.391-4.3399,5.4902-8.7153,11.2648-19.4582,21.3793-22.9799,1.4961-.5197,3.0914-.7628,4.6993-.7628,7.7842,0,15.8827,5.6934,14.6642,13.2606-.6404,4.0316-3.7114,7.6482-3.2372,11.7034.6404,5.3596,6.6876,7.8734,11.0157,11.0869,5.3477,3.9722,8.6559,9.9959,12.403,15.4978,11.7271,17.2052,30.0352,30.7346,50.7267,33.0826,1.907.2175,3.8308.3245,5.7563.3245,18.9677,0,38.225-10.3746,45.7172-27.7273,8.2053-18.9959,3.4268-45.118,21.2368-56.5844,1.202-.7688,2.5922-1.2707,4.0164-1.2707.1353,0,.2708.0045.4065.0138,5.8458.4032,6.6877,8.1461,8.1699,13.6837,3,11.2409,14.7982,18.4859,26.4067,19.221.8162.0508,1.6316.0756,2.4445.0756,10.748,0,21.1763-4.3192,30.5907-9.6327,26.8929-15.1777,48.6752-39.2365,61.1256-67.4932,2.9052-6.6047,5.6085-13.8258,12.984-16.7309,1.1573-.4521,2.3716-.6739,3.5685-.6739,3.0092-.0001,5.9098,1.4012,7.5302,4.0651,4.8854,8.0512-7.3872,17.561-4.9563,26.6083,3.6401,13.5058,32.537,7.6719,32.2999,21.6519-.1172,6.1799-7.1232,9.5737-13.4946,9.5737-.7313,0-1.4542-.0447-2.1575-.1351-6.0421-.7867-11.9182-3.4666-17.9299-3.4669-.7839,0-1.569.0455-2.3583.1467-5.3596.6997-10.0195,3.8893-14.4542,6.996-34.6241,24.2131-69.2601,48.4262-103.8842,72.6393-18.3555,12.8299-38.6675,29.2052-38.691,51.604,0,8.822,3.2844,17.2766,4.9801,25.9326,3.7825,19.4938-.6285,39.5687-.095,59.4181,0,.1067.0118.2134.0118.3201.0594,1.9327.178,3.8893.3915,5.8459,1.826,18.0826,9.7825,36.6517,26.3474,43.2325,5.0045,1.9843,10.2195,2.6626,15.5405,2.6626,9.8458,0,20.059-2.3207,30.0042-2.9827,1.0498-.0718,2.1177-.1077,3.1971-.1077.8839,0,1.7756.024,2.6725.0721,13.3516.7113,12.6996,20.7507-.6758,20.8692l-23.8813.2134c-4.7429.0356-9.1658,2.8815-10.7783,7.3517-1.8617,5.1343,1.2924,8.1461,4.245,10.8378,10.7428,9.8062,21.4977,19.6124,32.2524,29.4187,7.5177,6.8654,15.4268,14.312,15.7706,25.3276.166,5.2646-2.3361,10.3753-6.913,12.9602-2.0214,1.1483-4.0852,1.6358-6.139,1.6358-5.476,0-10.8866-3.463-15.2758-7.102-27.1774-22.5295-46.1259-58.102-80.2992-66.9478-5.495-1.4229-10.9373-2.0552-16.3315-2.0556-39.5593-.0032-76.8298,33.9795-118.1095,39.3951-8.0513,1.0671-16.3633,1.0317-24.0471,3.6521-16.9681,5.7747-27.0588,22.7428-35.7029,38.4304-11.9645,21.723-23.9285,43.4579-35.881,65.1808-2.6204,4.7549-5.6204,9.8892-11.9288,10.2568-.2343.0139-.4684.0208-.7001.0208-5.6925,0-10.5806-4.1355-12.1415-9.6728-3.249-11.5018,3.8419-21.1538,10.2568-29.964,6.0236-8.3002,11.8457-16.9564,16.66-26.0392,5.7033-10.7192,9.9958-22.0194,11.6321-34.0193,2.585-19.0312-3.1185-40.1495-17.1104-52.683-2.3004-2.0751-4.8379-3.9012-7.5888-5.4545-8.9393-5.0275-19.0397-6.6452-29.3754-6.6455-7.8984-.0002-15.933.944-23.699,2.033-8.2647,1.1502-16.8732,2.5494-23.644,7.4465-10.4227,7.5176-13.8732,21.142-18.9957,32.9285-4.7665,10.9659-14.0278,22.2807-25.5329,22.2807-1.0599,0-2.1373-.0958-3.2335-.2968-1.9092-.3439-3.7708-1.0555-5.3005-2.2529-9.4622-7.4229.6048-23.6203,8.4901-29.1933,5.4308-3.83,8.5848-10.2332,7.5888-16.8021-1.2829-8.4985-7.0942-11.4317-14.0431-11.4318-6.2175,0-13.3457,2.3481-18.9564,5.1591-17.6917,8.8575-35.383,17.7152-53.0624,26.5726-6.623,3.3175-15.1472,5.946-22.5705,5.946-7.2761,0-13.4944-2.5233-15.8364-9.3964-4.3991-12.8891,11.6561-22.7191,24.6045-26.9285,43.9797-14.2765,87.9475-28.5529,131.9271-42.8295,15.7231-5.1105,35.6794-18.5214,23.5255-34.2682-4.3877-5.6865-11.2972-8.5298-18.4442-8.53-.6175,0-1.2364.0212-1.856.0637-.3752.0256-.7594.0383-1.1492.0383-11.6836,0-29.4117-11.3264-21.712-23.042,2.2054-3.3557,5.8458-5.502,9.7944-6.166l43.8135-7.3279c1.2687-.2134,2.502-.6521,3.5455-1.4111,6.2607-4.577.5692-12.4147-4.9921-16.1498-20.478-13.8021-44.952-20.0273-69.011-25.7784-9.2847-2.2168-20.907-3.323-32.9204-3.3232-17.674-.0003-36.1987,2.3931-49.4065,7.1652-3.2501,1.1751-6.1371,1.6995-8.6064,1.6995-13.3777,0-14.4958-15.3918,5.3337-26.1024,12.2923-6.6332,26.7224-8.7802,41.049-8.7802,8.5179,0,16.998.7586,24.9738,1.7843,39.2842,5.0512,77.75,16.4227,113.4769,33.5331,5.8245,2.7884,12.7848,5.577,19.0028,5.577,1.8202,0,3.5762-.2388,5.2222-.7866,3.0119-1.008,5.6442-3.0474,7.6362-6.5453.913-1.6127,1.5297-3.3795,1.9328-5.1937,15.3793-69.3904-26.3949-146.5119-92.5127-172.136-15.5571-6.0237-33.3909-10.4702-46.8727-19.4227-6.0203-3.9987-2.7574-13.0409,3.8812-13.0409.4876,0,.9922.0486,1.5139.1516l37.1022,7.328c2.8914.5699,6.1121.912,9.3173.912,10.3998,0,20.6398-3.6018,18.963-14.7143-.249-1.6245-.8062-3.1659-1.4347-4.6719-5.9644-14.146-3.83-31.3157,5.3477-43.5882.9604-1.2807,2.1108-2.419,3.5217-3.1661,1.3388-.7105,2.6301-1.0314,3.8629-1.0314M199.1835,0c-2.5975,0-5.1613.6617-7.6202,1.9667-2.3077,1.2221-4.388,3.0524-6.1761,5.4369-10.8948,14.5685-13.3732,34.7842-6.3209,51.5105.3417.819.7642,1.902.8976,2.7725.2986,1.9789-.2126,2.573-.4051,2.7968-1.1515,1.3382-4.8868,2.6887-10.6358,2.6887-2.5562,0-5.2422-.2631-7.7675-.7609l-37.0991-7.3273c-1.0203-.2014-2.0521-.3036-3.0668-.3036-6.655,0-12.444,4.3653-14.4053,10.8627-1.9587,6.4892.4316,13.1107,6.0897,16.8689,10.5319,6.9936,23.0369,11.2998,35.13,15.4642,4.6457,1.5998,9.0336,3.1108,13.2833,4.7562,62.8081,24.3415,102.0982,97.431,87.5818,162.9279-.2587,1.1644-.6233,2.1682-1.0825,2.9794-1.1345,1.992-2.3094,2.5938-3.2053,2.8936-.7379.2456-1.6435.3723-2.6787.3723-5.5341,0-13.0667-3.6062-15.542-4.7913-36.6464-17.5509-75.6464-29.0756-115.9155-34.2534-9.6781-1.2448-18.1816-1.8498-25.996-1.8498-18.0352,0-32.7073,3.1864-44.855,9.7415-14.0297,7.5779-21.4422,19.0038-18.8872,29.1102,1.8806,7.4389,8.5324,12.06,17.3596,12.06,3.5236,0,7.3361-.7324,11.3316-2.177,11.5902-4.1877,29.0417-6.688,46.6812-6.6877,11.6463.0002,22.6766,1.1027,31.0592,3.1041,25.307,6.0493,47.7719,12.0783,66.393,24.6289,1.5154,1.0178,2.6764,2.2357,3.3936,3.2126l-42.6033,7.1255c-6.3008,1.0596-11.8273,4.5834-15.1698,9.6689-3.9113,5.9515-4.2247,12.9424-.8596,19.1807,5.4963,10.1891,19.1979,16.2778,29.2692,16.2778.5724,0,1.1431-.0192,1.6962-.057.4359-.0299.8762-.045,1.309-.045,5.0356.0001,9.4454,1.9725,12.0989,5.4114,2.427,3.1445,2.2489,5.1316,1.8227,6.5115-1.6429,5.3184-10.6766,11.7271-21.4802,15.2386l-64.3723,20.8981-67.552,21.9304c-6.5522,2.1301-22.4441,8.4011-28.5557,20.6201-2.6433,5.2848-3.0442,10.9974-1.1592,16.5203,3.2091,9.4183,11.7464,14.8222,23.4214,14.8222,8.0041,0,17.539-2.4766,26.1597-6.7947,17.6794-8.8574,35.3701-17.7148,53.0612-26.572,5.3887-2.6998,11.1332-4.3111,15.3683-4.3111,5.033.0001,5.7106,1.9122,6.1183,4.6136.5103,3.3652-1.1312,6.8333-4.2831,9.0561-7.4243,5.2471-15.4499,16.5083-15.7133,27.0523-.1515,6.0635,2.2974,11.3893,6.8955,14.9965,2.4738,1.9366,5.4412,3.225,8.8265,3.8348,1.5253.2797,3.0995.4238,4.6543.4238,15.5597,0,27.1886-13.9992,32.8831-27.1004,1.0989-2.5284,2.1165-5.1159,3.1006-7.6182,3.5176-8.9449,6.8403-17.3939,13.2333-22.0049,5.0936-3.684,12.0981-4.9006,20.0603-6.0087,7.2517-1.0168,15.0013-1.9567,22.594-1.9565,10.4036.0002,18.7274,1.8375,25.447,5.6166,2.2125,1.2493,4.2853,2.7386,6.1491,4.4199,11.2396,10.0681,16.9376,27.9808,14.5371,45.6533-1.3692,10.0411-4.891,20.2918-10.7659,31.3335-3.96,7.4711-9.0649,15.4422-16.0711,25.0964l-.0958.1315c-6.9847,9.5923-15.6776,21.5305-11.3872,36.7184,2.5734,9.1296,10.7383,15.5087,19.8544,15.5087.3895,0,.7847-.0117,1.1745-.0348,10.8936-.6346,15.8245-9.5821,18.4736-14.389,11.9547-21.7267,23.9182-43.4607,35.882-65.1827,8.602-15.611,17.4664-30.0137,31.2649-34.7097,4.5298-1.5448,9.647-2.013,15.0646-2.5087,2.424-.2218,4.9303-.4511,7.4532-.7856,20.4315-2.6804,39.5231-11.7361,57.9862-20.4937,20.4191-9.6853,39.7057-18.8334,59.0697-18.832,4.8937.0004,9.7126.606,14.3232,1.7997,20.3376,5.2645,35.1346,21.5897,50.8004,38.8735,8.2566,9.1096,16.7946,18.5291,26.3927,26.4859,7.261,6.0199,13.9309,8.9463,20.3907,8.9463,3.5676,0,6.965-.9021,10.0975-2.6815,7.0242-3.967,11.2323-11.7039,10.9651-20.1816-.4567-14.628-10.814-24.0868-18.3766-30.9932l-.9141-.8334c-10.4506-9.5289-20.9009-19.0577-31.3397-28.5864-.576-.5251-1.692-1.5424-2.1282-2.1454.0045-.0131.0093-.0267.0144-.041.4374-1.2122,1.7941-2.0581,3.3038-2.0695l23.8929-.2134c10.2074-.0906,18.0769-7.9017,18.3048-18.1694.2285-10.3001-7.0364-18.1719-17.2742-18.7173-1.0315-.0554-2.0752-.0834-3.099-.0834-1.2583,0-2.5178.0424-3.7438.1263-4.399.2928-8.7963.8844-13.0486,1.4567-5.7612.7752-11.2028,1.5074-16.4091,1.5074-4.9764,0-8.9758-.6668-12.5863-2.0984-11.5006-4.5689-19.4753-18.2473-21.3275-36.5875l-.0033-.032-.0034-.032c-.1737-1.5927-.287-3.2831-.3462-5.1653-.0024-.118-.007-.2361-.0129-.3542-.1903-7.1011.2834-14.2082.7853-21.732.8464-12.6935,1.7217-25.8191-.8339-38.9901-.6024-3.0749-1.3683-6.045-2.1088-8.9172-1.4012-5.434-2.7247-10.5667-2.7247-15.4886.0189-17.9266,16.9617-32.2394,35.2681-45.035,17.3132-12.1075,34.6282-24.2139,51.9431-36.3203,17.3151-12.1067,34.6302-24.2133,51.9425-36.3201,3.4518-2.4181,7.358-5.1546,10.8987-5.6167.4105-.0527.848-.0793,1.3197-.0793,2.4709.0002,5.3536.7602,8.4056,1.565,2.6864.7083,5.4645,1.4408,8.4905,1.8349,1.0492.1346,2.1187.2021,3.1925.2021,10.2661,0,21.2928-6.111,21.5077-17.4363.0607-3.5766-.9886-10.2085-8.694-14.6222-3.8-2.1768-8.2998-3.3369-12.6514-4.4588-4.251-1.0959-10.675-2.7521-11.2294-4.8087-.3647-1.3575,1.2729-4.7658,2.4688-7.2543,2.5697-5.3479,6.453-13.4296,1.6011-21.4258-3.019-4.9633-8.3937-7.9221-14.3818-7.9221-2.2253,0-4.4072.4115-6.485,1.2232-9.9904,3.9351-13.7852,12.6568-16.8345,19.6648-.1898.4366-.3793.8718-.5696,1.3044-11.7834,26.7429-32.2859,49.3813-57.7285,63.7404-10.3931,5.8659-18.8618,8.5979-26.6515,8.5979-.6522,0-1.3069-.0202-1.9458-.0601-7.8893-.4996-17.0096-5.2248-19.1617-13.2886-.1895-.7077-.3767-1.4987-.5751-2.3361-.6926-2.9252-1.4778-6.2408-3.066-9.2459-3.447-6.5217-8.8231-7.8308-11.7211-8.0305-.3256-.0221-.642-.0328-.9579-.0328-2.8611,0-5.7432.876-8.3347,2.5334-14.3898,9.2643-17.0194,25.4225-19.3394,39.6786-1.2155,7.4682-2.3635,14.5222-4.9366,20.4794-5.8193,13.4782-21.5933,22.8908-38.3596,22.8908-1.6293,0-3.2605-.0919-4.8483-.2729-16.8419-1.9111-33.6672-12.9888-45.0122-29.6334-.6593-.9682-1.3076-1.9588-1.994-3.0076-3.1696-4.8428-6.7618-10.3318-12.2524-14.4102-1.1653-.8651-2.3401-1.6279-3.4762-2.3654-1.4255-.9257-3.7673-2.446-4.3362-3.2834.1055-.5898.6516-1.8752,1.0236-2.7507.7703-1.8134,1.729-4.0702,2.1465-6.6997.8246-5.12-.6553-10.2211-4.1696-14.3465-4.3011-5.0492-11.3553-8.1858-18.4098-8.1858-2.5583,0-5.0242.4059-7.329,1.2063-11.8004,4.1088-18.5192,14.9647-23.9178,23.6876-.543.8774-1.0795,1.7443-1.6131,2.5914-.7493,1.1921-1.5012,2.1617-2.3029,2.9706-2.584,2.602-4.66,2.9037-5.9962,2.9037-4.7847,0-11.4953-4.52-17.951-12.091-32.7006-38.3126-55.7701-84.5517-66.7171-133.7214-2.7048-12.1248-10.4481-24.3556-21.6517-24.3556h0Z"/>
      </g>
      <path class="cls-7" d="M437.7169,342.4649c-5.1854,19.3413-18.8239,35.2508-33.3077,49.0912-15.8339,15.1273-34.5444,29.2453-56.3586,31.2008-22.8737,2.0691-45.9495-10.6737-58.0615-30.1915-12.2634-19.7576-13.323-48.3216-4.0878-71.6875,6.0938-15.4301,16.6665-28.5892,31.4783-35.4905,15.0769-7.0275,32.45-4.6303,49.2047-3.8607,1.3625.0631,2.7126.1136,4.0627.1514,17.0198.4416,35.3642-1.5897,49.8103,7.4186,1.3373.8327,2.5989,1.7537,3.7976,2.7378,13.9791,11.5316,18.2436,32.8032,13.4618,50.6304Z"/>
      <path class="cls-9" d="M437.7169,342.4649c-5.1854,19.3413-18.8239,35.2508-33.3077,49.0912-15.8339,15.1273-34.5444,29.2453-56.3586,31.2008-22.8737,2.0691-45.9495-10.6737-58.0615-30.1915-12.2634-19.7576-13.323-48.3216-4.0878-71.6875,2.006,9.2101-4.3603,29.7102,3.5756,40.5479,4.6555,6.3587,17.0901,24.9114,36.0781,28.9108,14.5091,3.0532,35.5286-14.9045,52.6115-21.8184,13.0834-5.3116,21.1075-8.5541,28.3495-16.7801,8.2134-9.3111,10.5475-19.4548,14.1684-36.0961,2.2079-10.0806,3.0657-17.8777,3.5706-23.8075,13.9791,11.5316,18.2436,32.8032,13.4618,50.6304Z"/>
      <path class="cls-4" d="M336.3239,288.7483c-1.0828.2893-2.1646.5797-3.2464.8597-7.0225,1.8177-14.2568,3.2512-20.6464,6.6853-11.3358,6.0924-19.034,20.4942-14.9638,33.3062,1.6721,5.2634,5.6581,9.8858,10.8669,11.721,3.8829,1.3681,8.2007,1.1509,12.1493-.0141,3.9486-1.165,7.5734-3.2301,10.995-5.5196,7.8363-5.2435,14.8133-11.7635,20.6008-19.2071,4.6347-5.9609,8.6717-12.666,14.9491-16.8622,1.236-.8262,2.6502-1.6757,3.0619-3.1043.4421-1.5341-.4654-3.1275-1.5185-4.3274-4.1385-4.7151-10.8067-6.5183-17.0777-6.3344-5.154.1512-10.1737,1.4619-15.1703,2.7968Z"/>
      <path class="cls-4" d="M385.3745,305.4221c-2.6724-4.2377,2.2967-14.6496,10.1632-16.8443,9.285-2.5905,19.9261,7.0144,18.9806,12.2195-1.023,5.6314-15.7401,6.8391-16.9753,6.9309-4.4633.3319-10.2344.761-12.1685-2.3061Z"/>
      <path class="cls-3" d="M413.2495,261.4141c-14.4624-1.511-35.8663,5.8685-50.2558,4.8439-31.8743-2.2694-45.7858-6.4172-61.7602-1.5137-16.4382,5.0459-16.4393,13.4675-26.6416,27.0902-6.5638,8.7643-23.1268,25.4191-27.8526,56.8714-2.1933,14.5971,10.6412,24.9201,6.0549,36.7332-4.185,10.7796-1.7653,19.605-8.4769,26.5106-3.2472,3.341-7.7695,7.8907-14.9354,10.1973-6.075,1.9554-9.2022.7385-20.1832,0-13.7096-.922-23.4071-1.5743-33.9075,2.0153-5.3181,1.8179-11.8001,4.0338-16.9537,10.0945-7.2111,8.4804-6.0819,17.7388-10.8989,18.5684-3.4659.5969-7.7647-3.5568-9.2843-7.6696-2.0079-5.4348,1.6301-8.6527,0-11.7061-3.9348-7.37-31.2566-.0986-33.1001.4036-21.153,5.763-32.947,14.8856-36.7332,10.8989-2.1961-2.3123-.1235-7.3769,0-7.6696,3.942-9.3407,18.7163-10.871,32.6966-12.9202,49.1564-7.2052,69.9807-18.1117,75.8883-21.3911,7.7-4.2743,17.0953-10.5989,21.7977-21.7977,1.7647-4.2026,5.311-12.6481,1.6146-18.9721-4.1776-7.1473-15.9446-19.736-35.3203-16.4239-9.1507,1.5642-13.9417-3.4256-13.9263-7.7957.0175-4.9733,9.9075-9.2736,16.5501-10.8989,11.2984-2.7646,14.938,1.7851,27.8526-.8073,5.8013-1.1645,12.6366-2.5366,16.1465-8.0733,4.3877-6.9211.8843-16.0987.4037-17.3574-2.6944-7.0583-9.994-14.9214-56.5127-26.238-38.5092-9.3681-57.7639-14.0522-74.2737-10.4952-17.6741,3.8078-33.8887,12.884-38.7514,6.8622-2.068-2.5608-1.293-6.8739,0-9.4905,2.9467-5.9634,11.0277-8.062,29.0636-9.4816,18.5746-1.4619,27.8618-2.1929,40.3662-.7915,12.0684,1.3525,39.2812,4.649,69.8333,20.1673,18.1098,9.1984,26.5559,17.1866,46.421,20.5867,16.9784,2.906,23.897-.689,26.6417-2.4359,10.8836-6.9272,12.9339-20.9483,14.5317-31.8753,1.2134-8.2983.9252-17.0018-4.4402-41.5771-5.3191-24.3632-7.9787-36.5448-12.1098-45.5885-11.3288-24.7996-28.0405-39.9804-37.5405-48.4393-13.8239-12.3091-30.7028-15.5117-38.3478-19.7794-31.6843-17.6873-51.7291-24.8566-51.2649-26.8435.4596-1.9671,25.7692-4.2953,48.4394,8.4769,8.2327,4.6383,14.5447,10.3819,19.9812,7.8714,6.539-3.0197,6.6615-15.6029,6.6603-16.9952-.008-9.1571-4.2124-11.1543-7.2659-23.5728-1.3932-5.6656-4.8619-19.7725,1.2111-24.2197,2.6501-1.9407,7.0239-1.9733,9.6878,0,4.7585,3.5248,2.606,12.3718,2.422,19.9812-.1828,7.5655,1.5976,13.1826,13.9263,37.5405,13.5715,26.8133,19.5621,36.1053,35.1186,64.1821,13.1109,23.6628,19.5965,36.448,35.1184,46.0174,4.5414,2.7998,13.4563,8.1464,19.9812,4.8439,6.4516-3.2653,4.6164-11.9744,13.9264-24.2197,4.0136-5.2791,7.9163-10.4122,13.9263-10.8989,7.4335-.6019,15.2404,6.1355,17.5592,13.3208,1.9322,5.9873-1.1837,8.4512.6056,14.5318,2.0063,6.8177,7.7521,9.9349,13.2661,13.9263,15.4391,11.1759,12.6668,17.3384,24.2744,26.0362,20.2097,15.1436,46.7344,10.0412,48.4394,9.6879,14.9535-3.0989,24.7102-11.1476,32.6966-17.7359,7.5055-6.1916,12.3002-10.147,15.1373-17.3827,1.6997-4.3349,1.1555-5.9163,4.2384-24.2197,1.7423-10.3442,2.559-13.655,5.4494-15.1373,3.5505-1.8208,9.1371-.3223,12.1098,3.0275,4.4883,5.0574.5471,11.5503,4.2384,15.7428,3.8756,4.4018,12.8162,2.465,18.1647,1.211,25.3872-5.9523,38.0808-8.9284,51.4669-16.9538,7.0341-4.2171,22.8337-13.8957,36.3295-32.091,9.4215-12.7023,17.0464-28.647,18.7703-27.8526,1.245.5737-3.1828,8.681.6055,13.9263,3.1168,4.3156,9.4102,3.3915,9.6878,5.4494.3543,2.6268-9.7424,5.292-17.5592,9.0824-12.8999,6.2552-17.9424,14.7756-26.0362,23.6142-9.1524,9.9946-23.2571,17.9656-51.4667,33.9075-30.3093,17.1286-34.4895,15.6577-48.4394,27.676-9.9832,8.601-23.2783,20.3729-26.0362,38.3226-1.369,8.9098.1896,17.1841,1.8166,25.8204,3.2149,17.0669,7.7491,19.9755,7.8714,32.3068.0601,6.0636.2037,20.5412-9.0822,26.0361-12.0493,7.1301-27.2089-2.2507-33.2759-12.5061-7.011-11.851,5.2006-30.1285-.6319-42.1451-4.4942-9.2594-15.44-28.3011-35.724-30.4204Z"/>
      <path class="cls-2" d="M596.5446,500.7549c.166,5.2648-2.336,10.3754-6.9129,12.9603-7.411,4.2095-15.3794-.4624-21.4148-5.4663-27.1774-22.5293-46.1259-58.102-80.2993-66.9477-45.794-11.8575-87.5325,31.1853-134.441,37.3394-8.0512,1.0671-16.3633,1.0316-24.047,3.6521-16.9681,5.7747-27.0589,22.7428-35.7031,38.4304-11.9644,21.723-23.9285,43.4579-35.881,65.1809-2.6205,4.7549-5.6205,9.8892-11.9288,10.2568-5.988.3557-11.2172-3.8893-12.8417-9.6521-3.249-11.5018,3.8418-21.1538,10.2568-29.964,13.15-18.0946,25.2804-37.8968,28.2921-60.0585,2.585-19.0314-3.1185-40.1496-17.1105-52.6831,6.9724-.6285,13.1857.4625,17.6561,3.7351,4.1737,3.0593,6.7231,8.1225,11.8101,18.2251,8.6323,17.1697,8.6031,12.2941,12.3856,12.6736,5.7628.5691,5.3888-7.4918,21.2186-20.4166,12.8179-10.4821,22.9443-3.6995,49.0428-10.4821,8.7863-2.2766,32.7387-8.49,50.857-26.798,20.6678-20.8693,14.0393-37.5647,35.4304-50.9519,14.2291-8.9169,29.3237-9.1185,32.6913-9.0948,7.0314.0475,11.4662,1.3518,16.2448,3.166,1.8261,18.0828,9.7825,36.6517,26.3474,43.2326,14.2647,5.6561,30.2249.6996,45.5447-.3201,1.9092-.1305,3.8774-.1424,5.8696-.0356,13.3516.7114,12.6995,20.7507-.6758,20.8693l-23.8813.2135c-4.743.0355-9.1659,2.8814-10.7783,7.3516-1.8617,5.1343,1.2923,8.1461,4.245,10.8378,10.7429,9.8062,21.4977,19.6124,32.2525,29.4186,7.5176,6.8655,15.4267,14.3121,15.7706,25.3277Z"/>
      <path class="cls-1" d="M596.5446,500.7549c.166,5.2648-2.336,10.3754-6.9129,12.9603-7.411,4.2095-15.3794-.4624-21.4148-5.4663-27.1774-22.5293-46.1259-58.102-80.2993-66.9477-45.794-11.8575-87.5325,31.1853-134.441,37.3394-8.0512,1.0671-16.3633,1.0316-24.047,3.6521-16.9681,5.7747-27.0589,22.7428-35.7031,38.4304-11.9644,21.723-23.9285,43.4579-35.881,65.1809-2.6205,4.7549-5.6205,9.8892-11.9288,10.2568-5.988.3557-11.2172-3.8893-12.8417-9.6521-3.249-11.5018,3.8418-21.1538,10.2568-29.964,6.0236-8.3003,11.8457-16.9564,16.6599-26.0392,1.3516,1.1384,2.2291,2.3952,2.4899,3.6877.9368,4.6719-6.6994,7.8023-7.2685,16.9445-.2964,4.8971,1.4585,10.9682,4.245,11.5136,1.0791.2016,3.8064-.1185,15.1302-21.806,5.4307-10.3872,9.3438-17.8693,13.9326-29.6675,5.5019-14.1579,4.4584-15.1776,7.8497-20.5848,1.4228-2.2885,7.7311-11.4662,24.8415-19.9799,17.4543-8.6916,27.5807-4.8023,50.8689-11.5018,3.9248-1.1383,3.8064-1.2924,38.7505-17.561,38.9401-18.1302,44.0863-20.2645,53.2759-19.9799,15.2963.4625,29.3356,7.2212,35.7269,10.2923,14.3237,6.8892,53.9207,43.1812,55.4029,41.4737,1.5295-1.7431-38.8261-38.5449-36.0279-45.7187,2.1463-5.5019,11.6917-5.7271,11.5019-7.8616-.2016-2.4663-12.6521.0356-23.6084-6.6639-8.6205-5.2766-12.6875-14.0156-15.7469-20.5847-3.5691-7.6955-5.7153-12.2963-4.8378-17.561,1.1503-6.996,7.2093-12.8299,14.9405-16.9326.0593,1.9328.1779,3.8893.3914,5.8458,1.8261,18.0828,9.7825,36.6517,26.3474,43.2326,14.2647,5.6561,30.2249.6996,45.5447-.3201,1.9092-.1305,3.8774-.1424,5.8696-.0356,13.3516.7114,12.6995,20.7507-.6758,20.8693l-23.8813.2135c-4.743.0355-9.1659,2.8814-10.7783,7.3516-1.8617,5.1343,1.2923,8.1461,4.245,10.8378,10.7429,9.8062,21.4977,19.6124,32.2525,29.4186,7.5176,6.8655,15.4267,14.3121,15.7706,25.3277Z"/>
      <path class="cls-5" d="M348.7725,227.2038c-2.7813-5.3492-10.7563-7.257-15.4873-3.204-4.3458,3.723-4.4337,11.1727,0,15.1007,3.6102,3.1984,9.4389,3.371,13.231,0,3.4532-3.0697,4.1949-8.1682,2.2563-11.8967Z"/>
      <path class="cls-5" d="M299.417,215.6994c-.4464-5.1484-6.4266-8.7936-10.8988-7.2659-4.9316,1.6847-6.9905,9.3047-3.633,13.3878,2.0292,2.4678,5.8285,3.39,9.0823,2.1783,3.4963-1.302,5.7494-4.8393,5.4494-8.3003Z"/>
      <path class="cls-5" d="M243.1064,314.1021c-4.2684-12.3118-21.5485-4.7909-16.9535,6.9534,4.3935,10.0636,17.7622,2.3685,16.9535-6.9534Z"/>
      <path class="cls-5" d="M125.641,256.5701c-.3015-1.1207-4.3288-2.237-6.055,0-.9242,1.1977-.9406,3.0348,0,4.5412,5.0536-2.5103,6.2492-3.819,6.055-4.5412Z"/>
      <path class="cls-5" d="M227.969,367.0724c1.1001-2.5204.0783-6.1671-2.5866-7.5687-3.1896-1.6775-7.3882.5689-8.615,3.7843-1.1459,3.0039.68,5.8614.9081,6.2063,4.1975,2.3616,8.9311.6994,10.2934-2.422Z"/>
      <path class="cls-5" d="M235.8404,410.3651c1.1962-2.3237.5854-5.4529-1.5784-7.2659-2.267-1.8995-5.6616-1.8706-7.8067,0-2.6724,2.3305-2.5988,6.8163,0,9.0824,2.8457,2.4814,7.7158,1.4267,9.3852-1.8165Z"/>
      <path class="cls-5" d="M173.7775,330.7429c-2.0884-1.5347-5.6739-.4349-6.3577,1.8165-.5745,1.8913.9795,4.3298,3.1789,4.8439,1.5117.3534,3.513-.1592,4.3897-1.8165.9226-1.744.1267-3.861-1.2109-4.8439Z"/>
      <path class="cls-5" d="M163.7869,417.9337c-1.8894-2.2905-5.9414-2.1657-8.1741,0-2.3569,2.2863-2.4345,6.6024,0,8.4769,2.4746,1.9054,6.4985.4824,8.1741-2.1192,1.1195-1.738,1.5207-4.5142,0-6.3577Z"/>
      <path class="cls-5" d="M279.7675,272.9184c-.8311-1.8333-3.1306-3.2449-5.1757-2.7247-2.4149.6143-4.2063,3.8538-3.0274,7.2659.1582.2929,1.6705,3.009,3.8873,3.0465,2.878.0486,5.7438-4.4376,4.3157-7.5877Z"/>
      <path class="cls-5" d="M216.061,102.0688c-.5632-2.3529-2.5555-5.1232-5.2476-5.2476-3.3575-.1551-6.5036,3.8655-6.0548,7.6696.4216,3.5743,3.9971,6.7884,7.2659,6.0549,3.3103-.7428,4.8207-5.2004,4.0365-8.4769Z"/>
      <path class="cls-5" d="M342.8107,180.7323c-2.3541-2.4703-7.3434-2.9632-10.0915,0-2.4582,2.6506-1.9199,6.7691,0,9.2842,1.6388,2.1468,4.7018,3.6725,7.2658,2.8256,4.139-1.3671,6.1337-8.6386,2.8257-12.1098Z"/>
      <path class="cls-5" d="M392.8647,248.5978c.4604-4.0625-2.1291-8.6393-6.055-9.4974-4.8491-1.0599-9.9463,3.9449-10.0915,9.0937-.0984,3.4879,2.0629,7.4965,5.6513,8.4769,4.652,1.271,9.924-3.0332,10.4952-8.0732Z"/>
      <path class="cls-5" d="M480.0554,316.7925c-.2006-2.6422-2.582-4.9876-5.2476-5.6272-3.8039-.9127-8.2444,1.6348-8.8806,5.6272-.4905,3.079,1.4021,6.2607,4.0367,7.29,4.4214,1.7275,10.4324-2.8027,10.0915-7.29Z"/>
      <path class="cls-5" d="M465.8497,249.4052c-.2429-.1631-4.3506-2.8294-7.9956-.8073-3.853,2.1375-4.8197,8.1994-2.4219,10.8988,1.6227,1.8269,4.422,1.703,6.4196,1.6147,1.9325-.0855,6.361-.2814,7.7084-3.2293,1.3095-2.8649-1.0423-6.6856-3.7105-8.4769Z"/>
      <path class="cls-5" d="M511.1373,198.1402c.5173-1.8184-1.8545-4.7575-4.4402-5.0602-2.9734-.3481-6.525,2.7551-6.4585,7.4822,5.9557.6388,10.3159-.3732,10.8988-2.422Z"/>
      <path class="cls-5" d="M65.899,258.1946c-.7253-1.7334-5.9272-2.9444-8.0732,0-1.5124,2.0753-.9992,5.5181,1.6146,7.3569,4.4719-2.7497,7.1209-5.7742,6.4585-7.3569Z"/>
      <path class="cls-5" d="M313.3434,251.4235c.8511-3.5463-1.8855-7.3083-5.2476-8.0732-3.7551-.8544-8.1584,2.0602-8.8806,6.8622,1.3215,4.0854,5.0127,6.5276,8.4769,6.0549,2.4201-.3302,4.9975-2.1197,5.6513-4.8439Z"/>
      <path class="cls-2" d="M268.1333,333.7698c-.5852-.4569-5.7858-4.5176-9.6878-2.0177-3.142,2.013-3.6301,7.1188-1.6146,10.5134,1.6607,2.797,4.8349,4.1188,7.6695,4.0184,3.0802-.109,7.0422-1.9428,7.6696-5.2476.6803-3.5834-3.0201-6.4727-4.0367-7.2665Z"/>
      <path class="cls-2" d="M283.2389,298.051c-1.7731-.7161-5.2053,1.657-7.5695,6.2521,2.2902,3.27,5.6724,4.5996,7.5695,3.6562,3.0336-1.5086,2.4495-8.919,0-9.9083Z"/>
      <path class="cls-2" d="M307.6921,273.423c-1.7831-1.6626-4.7265-.9469-5.0457,0-.4856,1.4407,4.5156,5.1601,5.8531,4.2384.7876-.5427.6173-2.9101-.8074-4.2384Z"/>
      <path class="cls-2" d="M370.2049,273.2212c-.8718-1.2649-2.7018-1.5618-3.9819-.7945-.9301.5575-1.5714,1.6775-1.4127,2.8689.1827,1.3716,1.368,2.4072,2.6937,2.5108,1.0792.0844,2.1224-.4588,2.701-1.3559.621-.9628.6635-2.2667,0-3.2293Z"/>
      <path class="cls-2" d="M414.5771,267.5699c-.4874-.3164-2.9007-1.8833-5.3641-.8073-2.2809.9963-3.1761,3.6343-3.0275,5.6641.174,2.3763,1.7707,3.8087,2.0183,4.0238,2.121,1.8424,4.7077,1.4174,5.0457,1.3559,2.6772-1.0069,4.378-3.399,4.2386-5.7962-.1542-2.6503-2.4914-4.1678-2.911-4.4402Z"/>
      <path class="cls-2" d="M340.9941,270.3703c-1.1921-.7022-2.707-.6602-3.8347,0-1.9017,1.1133-2.6897,3.9772-1.4129,5.6513,1.0865,1.4245,3.2032,1.3778,4.4404,1.0092.4328-.1289,1.7969-.5353,2.4219-1.8165.7837-1.6063.0517-3.8625-1.6146-4.8439Z"/>
      <path class="cls-2" d="M277.6193,396.4388c-2.3084-1.2415-6.1573-1.987-8.7797,0-3.4054,2.5803-2.6006,8.1458-1.2109,11.1801.5318,1.1611,2.0371,4.448,5.4494,5.1681,3.058.6453,5.9192-1.1357,7.4071-3.0275,2.2766-2.8946,2.3143-7.29,0-10.8988-.5272-.6667-1.4509-1.661-2.8658-2.422Z"/>
      <path class="cls-2" d="M303.6556,440.0341c-2.0354-1.4671-5.3942-1.9189-7.2904,0-2.5506,2.5812-.1067,7.0761,0,7.2659.2545.4528,2.3237,4.0135,5.4738,3.633,2.6119-.3155,3.8457-3.0844,3.9508-3.3302,1.0891-2.5484.2475-5.8518-2.1343-7.5687Z"/>
      <path class="cls-2" d="M253.7025,427.2878c-.982-2.4243-3.9055-5.1829-6.9631-4.3113-1.8381.524-3.4704,2.2873-3.5978,4.3113-.1859,2.9537,2.9292,4.9385,5.1114,5.4805.2236.0556,3.9663.9339,5.4495-1.211,1.0905-1.5771.2219-3.7218,0-4.2695Z"/>
      <path class="cls-2" d="M352.3976,431.2545c-.8605-1.7547-2.8697-3.6291-5.1467-3.3522-2.5213.3066-4.7534,3.1762-4.3273,6.6824,3.8605,3.2388,7.9946,3.475,9.474,1.8165,1.1357-1.2731.7203-3.6779,0-5.1467Z"/>
      <path class="cls-2" d="M393.571,416.2623c-1.3615-1.1717-3.9626-3.4103-6.6605-2.7099-3.4651.8997-5.3122,6.1861-4.2384,10.1334.2.7354,1.0165,3.3184,3.633,4.844.292.1703,3.7159,2.0881,7.2659.3027.2937-.1477,3.4671-1.807,3.9358-5.1467.5055-3.6013-2.5455-6.227-3.9358-7.4236Z"/>
      <path class="cls-2" d="M416.277,410.0623c.5764-1.7277.0436-4.2071-1.6999-4.844-1.6993-.6207-3.6443.839-4.355,2.422-.8431,1.878-.2607,4.6245,1.5137,5.2815,1.7306.6407,3.9075-.9605,4.5411-2.8594Z"/>
      <path class="cls-2" d="M428.0841,378.274c-1.9187-2.2175-6.5457-2.6128-8.7797,0-1.7844,2.0869-1.3244,5.2535,0,7.2659,2.0309,3.0861,5.8157,3.0347,6.0548,3.0274,4.1978-2.855,4.7899-7.9068,2.7248-10.2934Z"/>
      <path class="cls-2" d="M450.4873,355.5681c.208-1.6633-1.6265-3.7754-3.3302-3.8267-2.0072-.0605-4.4285,2.721-4.5412,7.1915,4.5032.4912,7.6275-1.4142,7.8714-3.3648Z"/>
      <path class="cls-2" d="M471.6794,355.3757c-.295-1.612-2.7845-3.1034-5.8298-2.2296-.175,3.4232,1.4508,5.7118,2.9149,5.7867,1.4417.0738,3.2045-1.9742,2.9149-3.5571Z"/>
      <path class="cls-1" d="M463.5054,380.9987c-2.6915-1.6853-8.0898-.1764-9.3773,3.633-1.2218,3.6152,1.9892,7.1413,4.6887,8.4769,1.7571.8693,5.0259,1.6658,6.8078,0,2.0085-1.8776.8692-5.7065.2251-7.8714-.5758-1.935-1.0131-3.4048-2.3443-4.2384Z"/>
      <path class="cls-1" d="M444.7351,404.0671c-2.1899-1.6712-5.6226-1.1791-7.2659,1.0051-1.9607,2.606-.7826,6.835,2.1314,7.9932,2.8429,1.13,6.3291-1.0639,6.9591-3.9966.3811-1.774-.2817-3.8243-1.8245-5.0018Z"/>
      <path class="cls-1" d="M488.936,412.9218c-.2519-2.9182-3.4082-5.3938-5.4494-4.7031-1.7173.5811-2.346,3.3019-2.1192,5.2007.2468,2.0667,1.7019,4.7896,3.7532,4.8171,2.1121.0283,4.0313-2.812,3.8153-5.3147Z"/>
      <path class="cls-1" d="M481.3228,364.9532c-.9283-.9957-5.0852-.3364-5.7076,2.422-.3954,1.7525.7575,3.8131,2.8538,4.5412,2.4497-3.2781,3.6864-6.07,2.8538-6.9632Z"/>
      <path class="cls-1" d="M416.4999,432.6432c-.0136-.1216-.2407-1.9199-1.5853-2.4483-1.5006-.5898-3.5149.7477-3.9356,2.4483-.2218.896-.0758,2.1952.9081,3.0012.788.6455,1.8624.769,2.7248.4541,1.4378-.525,2.0309-2.1752,1.8879-3.4552Z"/>
      <path class="cls-1" d="M384.3373,450.9614c.2313-1.2174-.5981-2.6739-1.9698-3.0559-1.6005-.4457-3.23.7688-3.4795,2.2706-.1599.962.2469,2.0389,1.0595,2.5734,1.4737.9692,4.0497.0024,4.3898-1.7881Z"/>
      <path class="cls-1" d="M335.8979,455.6256c-1.0329-1.4114-2.9955-1.5158-4.2384-1.211-1.4658.3594-3.3179,1.6279-3.3302,3.4816-.014,2.1251,2.4015,3.2531,2.5733,3.3302.415.1864,2.1081.8691,3.633,0,1.8225-1.0387,2.6384-3.8572,1.3623-5.6008Z"/>
      <path class="cls-1" d="M363.2965,456.6852c-.1374-1.2273-2.1208-2.2733-3.6124-1.6652-1.2342.5032-2.0935,2.1232-1.5343,3.1788.4774.9013,1.7953,1.0257,2.5733.9083,1.3034-.1968,2.6973-1.3147,2.5734-2.422Z"/>
      <path class="cls-1" d="M280.7982,470.4601c-.9498-.704-2.4841-.7291-3.4816,0-1.601,1.1704-1.5635,4.0977,0,5.4494,1.3589,1.1748,3.2918.6592,3.4816.6055,1.7358-2.2942,1.4168-5.0049,0-6.0549Z"/>
      <path class="cls-1" d="M288.3668,496.6476c-.7082-1.6941-2.6001-3.4918-4.3898-3.1788-1.9426.3398-2.705,2.9809-3.3302,5.1467-.5367,1.8596-1.26,4.3651.1514,5.9035.7551.823,1.9761,1.2113,3.0274,1.0596,1.3228-.1908,2.1073-1.1978,3.1789-2.5734.6224-.799,1.2027-1.5439,1.5137-2.7247.1223-.4645.5286-2.0065-.1514-3.633Z"/>
      <path class="cls-1" d="M276.1299,528.1332c.3079-1.5111.0182-3.829-1.3867-4.3898-1.2811-.5115-2.7735.7241-3.1788,1.0596-1.6133,1.3358-2.9968,4.0838-1.8166,5.9035.5215.8041,1.4784,1.3264,2.422,1.3624,2.0286.0774,3.5877-2.1085,3.9599-3.9357Z"/>
      <path class="cls-1" d="M264.45,548.2658c-1.116-1.0179-2.9713-1.0403-4.0872,0-1.5993,1.4909-.3747,3.9479-.3027,4.0871.1788.3451.7531,1.4536,1.8671,1.6651,1.3904.2639,2.8401-1.0179,3.2796-2.422.0285-.091.615-2.0791-.7569-3.3302Z"/>
      <path class="cls-8" d="M580.9708,493.4331c.8815-3.4137-.9623-6.6404-3.3303-8.2897-2.2816-1.5891-6.1324-2.4678-8.7795-.3028-3.4745,2.8418-1.6282,8.2719-1.5137,8.5925.1938.5429,1.9984,5.3557,6.3577,5.6365,3.3933.2186,6.4381-2.4307,7.2659-5.6365Z"/>
      <path class="cls-8" d="M472.2849,429.5878c-.5118-2.7538-4.9174-3.7166-7.2658-3.7827-.5065-.0143-6.7095-.1088-7.8714,3.7827-.6969,2.3346.6894,5.2029,3.0275,6.5107,2.8592,1.5991,5.8169.1238,6.0548,0,4.1169-1.0885,6.4821-4.2117,6.0548-6.5107Z"/>
      <path class="cls-8" d="M511.0365,444.8601c.7443-1.3178-1.9898-5.4183-5.7522-6.1013-3.3315-.6047-7.0382,1.5484-6.9631,3.0507.0851,1.6998,5.0175,2.6685,6.9631,3.0507,2.4712.4853,5.1778,1.0169,5.7522,0Z"/>
      <path class="cls-8" d="M378.8536,465.4648c-.0482-2.1036-3.6412-4.1527-6.7776-3.8073-3.3423.3681-5.1754,3.3462-5.4494,3.8073,3.6922,3.1171,7.7391,4.2399,10.2934,2.7247.1293-.0766,1.9684-1.1991,1.9335-2.7247Z"/>
      <path class="cls-8" d="M340.8932,473.2982c-.4282-2.6064-5.0039-4.681-8.4702-3.3755-2.8716,1.0815-3.9148,4.0809-4.0937,4.6245,4.2494,3.2599,8.7363,3.9976,11.0502,2.1265.9309-.7528,1.7232-2.1003,1.5137-3.3755Z"/>
      <path class="cls-8" d="M570.0719,413.4194c-2.1189-2.0306-7.2415-.4647-8.7797,2.6978-.0654.1345-1.1559,2.4612,0,4.2384,1.456,2.2389,5.8188,2.5946,8.1742.3027,2.0521-1.9966,2.2407-5.672.6055-7.239Z"/>
      <path class="cls-8" d="M501.6513,388.5684c.1782-2.1701-.7657-5.0887-3.3313-6.0544-2.0849-.7848-4.6287-.0494-5.751,1.5122-2.312,3.2166,1.344,10.0259,4.5837,10.0555,2.0615.0188,4.268-2.7043,4.4987-5.5132Z"/>
      <path class="cls-8" d="M536.4671,427.875c-1.6427-2.0552-5.2845-2.0612-6.9631,0-1.5886,1.9507-1.1063,5.3687,1.5137,7.0125,2.056.6729,4.2762-.0507,5.4494-1.7286,1.0873-1.5551,1.185-3.8012,0-5.2839Z"/>
      <path class="cls-5" d="M469.9334,288.1427c-.1798-2.4807-1.8911-5.3091-4.0967-5.5364-2.9689-.306-6.5134,4.1335-5.5265,7.8714.6085,2.3046,3.0062,4.5946,5.5265,4.2384,2.8343-.4005,4.2884-3.9302,4.0967-6.5734Z"/>
      <path class="cls-5" d="M505.7233,216.3062c-1.2079-2.1425-5.7963-2.404-7.7049,0-1.1387,1.4343-1.47,4.0021,0,5.5152,1.5635,1.6094,4.2313,1.0646,5.7522,0,1.8212-1.2748,2.8631-3.9006,1.9528-5.5152Z"/>
      <path class="cls-5" d="M429.2373,249.7638c-3.7424.6139-5.8331,3.0057-5.5526,4.7349.1929,1.1894,1.5214,2.1484,2.7762,2.3974,1.7481.3469,3.6522-.625,4.3479-2.3974.677-1.7249.0206-3.7265-1.5715-4.7349Z"/>
    </g>
  </g>
</svg>