<?xml version="1.0" encoding="UTF-8"?>
<svg id="Capa_2" xmlns="http://www.w3.org/2000/svg" viewBox="0 0 697.5471 604.1958">
  <defs>
    <style>
      .cls-1 {
        fill: #70569b;
      }

      .cls-2 {
        fill: #5f488c;
      }

      .cls-3 {
        fill: #9570c2;
      }

      .cls-4 {
        fill: #b29ad8;
      }

      .cls-5 {
        fill: #604593;
      }

      .cls-6 {
        fill: #47327c;
      }

      .cls-7 {
        fill: #a486ce;
      }

      .cls-8 {
        fill: #735aaf;
      }

      .cls-9 {
        fill: #8566b2;
      }
    </style>
  </defs>
  <g id="Capa_1-2" data-name="Capa_1">
    <g>
      <g>
        <path class="cls-3" d="M245.2169,600.1886c-7.3301.0005-13.9092-5.1781-15.999-12.5931-3.7598-13.3119,4.2969-24.3771,10.7715-33.2681l.1035-.1417c7.1162-9.8066,12.3154-17.9291,16.3574-25.5569,6.1045-11.4709,9.7676-22.1602,11.2031-32.6846,2.5742-18.9492-3.6328-38.2452-15.8135-49.1566-2.0928-1.8877-4.4062-3.5499-6.8857-4.95-7.3291-4.1221-16.2949-6.1274-27.4053-6.1274-7.8398,0-15.7559.9584-23.1416,1.994-8.5078,1.1838-16.0205,2.5065-21.8525,6.725-7.3516,5.3027-10.8838,14.2837-14.623,23.7919-.9707,2.4697-1.9746,5.0237-3.0459,7.4868-5.1885,11.9358-15.5859,24.6898-29.208,24.6909-1.3125.0001-2.6436-.1218-3.9561-.3625-2.7256-.491-5.1006-1.5142-7.0488-3.0396-3.6318-2.8492-5.4863-6.9103-5.3652-11.7461.2227-8.9025,7.2998-19.13,14.0137-23.8748,4.4033-3.1055,6.6777-8.0588,5.9395-12.929-.5645-3.7378-2.2197-8.0251-10.0811-8.0251-4.8281,0-11.2441,1.77-17.1621,4.7347-17.6924,8.8578-35.3828,17.7153-53.0625,26.5726-7.9619,3.9885-17.0703,6.3699-24.3643,6.3704-9.9971.0007-16.9688-4.3004-19.6299-12.1111-1.5518-4.5466-1.2324-9.0663.9512-13.4314,5.5869-11.1703,21.4717-17.0612,26.207-18.6007l131.9287-42.83c10.2627-3.3358,21.6865-10.1542,24.0693-17.8665,1.0283-3.3307.2178-6.6482-2.4785-10.1418-3.4189-4.4305-8.9854-6.9711-15.2725-6.9711-.5264,0-1.0537.0181-1.582.0542-.4648.0317-.9404.0477-1.4219.0477-8.7041.0005-21.0205-5.418-25.7432-14.1726-2.6826-4.9729-2.4404-10.3275.6816-15.0778,2.7314-4.1567,7.2793-7.0425,12.4775-7.9167l43.8174-7.3285c.7656-.1287,1.3887-.3643,1.8506-.7,1.1055-.8077,1.0918-1.4508,1.085-1.7963-.043-2.152-2.6582-5.5718-5.9551-7.7858-19.1816-12.9291-42.0127-19.0652-67.708-25.2075-8.6787-2.072-20.0391-3.2134-31.9883-3.2134-18.0801,0-36.041,2.5895-48.0459,6.9268-3.5557,1.2858-6.9102,1.938-9.9678,1.938-6.9023,0-12.0654-3.4619-13.4746-9.0349-1.5879-6.2792,1.8877-16.4897,16.9043-24.6007,11.5498-6.2324,25.5996-9.2617,42.9531-9.2617,7.6416,0,15.9775.5944,25.4844,1.817,39.8457,5.1235,78.4355,16.5269,114.6963,33.8936,4.6494,2.2251,11.498,5.184,17.2734,5.184,1.4658,0,2.7969-.1957,3.9561-.5817,2.2656-.7579,4.04-2.3047,5.4189-4.7262.6514-1.1493,1.1582-2.5243,1.5029-4.078,14.9268-67.3489-25.4678-142.5035-90.0479-167.532-4.3193-1.6722-8.9473-3.2661-13.4238-4.8076-11.8555-4.0824-24.1143-8.3037-34.2178-15.0132-4.1523-2.7579-5.9072-7.6145-4.4707-12.3729,1.4463-4.7932,5.6934-8.0135,10.5684-8.0135.7549,0,1.5254.0765,2.29.2275l37.1025,7.328c2.7744.547,5.7285.8362,8.541.8362,6.457,0,11.4404-1.488,13.6729-4.0824,1.2812-1.4882,1.7148-3.4594,1.3271-6.0267-.1963-1.2856-.7012-2.6052-1.1689-3.7253-6.5059-15.4275-4.2168-34.0901,5.8359-47.5326,1.4336-1.9122,3.0664-3.3604,4.8555-4.3077,1.8711-.9928,3.8027-1.4972,5.7383-1.4972,10.2666,0,15.9814,13.337,17.7393,21.2175,11.0898,49.8087,34.458,96.6462,67.5791,135.4508,7.3154,8.5798,14.9697,13.4996,21.001,13.4996,3.2168,0,6.1104-1.339,8.8467-4.0935,1.0068-1.016,1.9375-2.2106,2.8418-3.6494.541-.8586,1.084-1.7347,1.6318-2.6216,5.3291-8.6106,11.3691-18.37,21.8223-22.0095,1.8838-.6543,3.9072-.9856,6.0166-.9856,5.9131,0,11.7988,2.597,15.3594,6.7775,2.7402,3.2172,3.8984,7.1691,3.2607,11.1278-.3389,2.135-1.1553,4.0569-1.876,5.7524-.8008,1.8865-1.4932,3.5159-1.3369,4.8489.2549,2.1342,2.6035,3.8066,6.1562,6.1135,1.084.7039,2.2051,1.4318,3.2676,2.2206,4.9189,3.6538,8.1582,8.6028,11.29,13.3889.6748,1.0304,1.3477,2.0596,2.0371,3.0707,11.9912,17.5939,29.8848,29.3163,47.8662,31.3566,1.7402.1984,3.5244.2988,5.3047.2988,18.3174,0,35.6045-10.4071,42.0381-25.3083,2.7695-6.4131,4.0117-14.0446,5.2129-21.4248,2.293-14.0874,4.6631-28.6544,17.5342-36.9403,1.9541-1.2507,4.0898-1.9087,6.1855-1.9087.2256,0,.4521.0076.6787.0231,7.9336.5472,9.8789,8.7657,11.166,14.204.1992.8402.3936,1.6641.6016,2.442,2.6406,9.8937,13.4629,15.6669,22.7891,16.2574.7188.0448,1.457.0676,2.1914.0676,8.5088,0,17.6035-2.8965,28.6211-9.1154,26.1904-14.7814,47.2959-38.0853,59.4287-65.6191l.5723-1.3123c2.8984-6.6616,6.1826-14.212,14.6094-17.5314,1.6221-.6335,3.3125-.9528,5.0371-.9528,4.5781,0,8.6729,2.2394,10.9541,5.99,3.7275,6.1433.6709,12.5043-1.7852,17.6155-1.7881,3.7214-3.4766,7.2365-2.7246,10.0355,1.0801,4.0079,6.2832,5.6285,14.0977,7.6432,8.248,2.1266,18.5146,4.7733,18.3389,15.1166-.167,8.7798-9.1416,13.5129-17.501,13.5129-.9053,0-1.8027-.0564-2.6689-.1677-2.7773-.3616-5.4277-1.0607-7.9922-1.7367-3.3105-.8729-6.4375-1.6975-9.4268-1.6975-.6455,0-1.25.0374-1.8486.1141-4.5068.5884-8.8408,3.6245-12.665,6.3032l-103.8857,72.6415c-19.1953,13.4165-36.96,28.5564-36.9814,48.3241,0,5.427,1.3857,10.7996,2.8525,16.4875.7256,2.8152,1.4766,5.7261,2.0537,8.6702,2.458,12.6677,1.5996,25.5297.7705,37.9679-.4863,7.2871-.9893,14.8224-.793,22.1133,0,0,.0117.2433.0137.3392.0605,1.9863.1807,3.7861.3672,5.5009,2.0088,19.8878,10.9209,34.8077,23.8438,39.942,4.0371,1.6007,8.6377,2.3794,14.0605,2.3794,5.4746,0,11.0459-.7496,16.9434-1.5432,4.1875-.5634,8.5166-1.1459,12.7949-1.4308,1.1289-.077,2.2979-.1165,3.4658-.1165.9512,0,1.9219.0262,2.8848.0778,9.0518.4823,13.6328,7.7234,13.4805,14.627-.1562,7.0201-5.1299,14.1696-14.3359,14.251l-23.8799.2135c-3.21.0242-6.0391,1.9146-7.0449,4.7042-.8574,2.3665-.0498,3.5774,3.1748,6.5165,9.8291,8.9719,19.666,17.9418,29.5029,26.9117l2.75,2.5073c7.4287,6.7848,16.6719,15.226,17.0762,28.1639.2197,6.9813-3.208,13.3328-8.9473,16.5743-2.5127,1.4275-5.2441,2.1538-8.1094,2.1539-5.4873.0004-11.3213-2.6245-17.834-8.0244-9.3789-7.7743-17.8193-17.0865-25.9814-26.0922-16.0801-17.7401-31.2676-34.4965-52.7646-40.061-4.9404-1.2792-10.0977-1.9276-15.3281-1.9276-20.2656,0-39.9473,9.3352-60.7852,19.2185-18.1826,8.6245-36.9854,17.5425-56.8018,20.1423-2.4375.323-4.9033.5486-7.2871.7667-5.6621.5181-11.0107,1.0074-15.9873,2.705-15.1602,5.1588-24.4902,20.2428-33.4873,36.5713-11.9639,21.7222-23.9277,43.4564-35.8799,65.1788-2.5947,4.7083-6.5146,11.8191-15.2061,12.3256-.3096.0184-.623.0277-.9336.0277Z"/>
        <path class="cls-4" d="M199.1837,8.0142c6.935,0,12.0565,10.1392,13.8283,18.083,11.2172,50.3823,34.9324,97.9194,68.4418,137.1797,6.2532,7.3335,15.1692,14.9058,24.0494,14.9058,3.985,0,7.9613-1.5234,11.6893-5.2773,1.2925-1.3042,2.4072-2.7744,3.3911-4.3398,5.4902-8.7153,11.2647-19.4585,21.3793-22.98,1.4961-.5195,3.0914-.7627,4.6993-.7627,7.7842,0,15.8827,5.6934,14.6641,13.2607-.6403,4.0312-3.7114,7.6479-3.2371,11.7031.6404,5.3599,6.6875,7.8735,11.0157,11.0869,5.3477,3.9722,8.6559,9.9961,12.403,15.498,11.7269,17.2051,30.0352,30.7344,50.7266,33.0825,1.907.2173,3.8304.3247,5.756.3247,18.9677,0,38.2253-10.375,45.7175-27.7275,8.2053-18.9961,3.4269-45.1182,21.2369-56.5845,1.2021-.769,2.5925-1.2705,4.017-1.2705.135,0,.2703.0044.4059.0137,5.8458.4033,6.6876,8.146,8.1699,13.6836,3,11.2412,14.7981,18.4858,26.4067,19.2212.8162.0508,1.631.0757,2.4438.0757,10.7482,0,21.1769-4.3193,30.5913-9.6328,26.8929-15.1777,48.675-39.2368,61.1255-67.4932,2.9053-6.605,5.6086-13.8262,12.9841-16.731,1.1573-.4521,2.3716-.6738,3.5684-.6738,3.0093,0,5.9099,1.4014,7.5303,4.0649,4.8854,8.0513-7.3872,17.561-4.9563,26.6084,3.6401,13.5059,32.537,7.6719,32.2999,21.6519-.1172,6.1797-7.123,9.5737-13.4945,9.5737-.7313,0-1.4543-.0449-2.1576-.1353-6.0421-.7866-11.9181-3.4663-17.9298-3.4668-.7839,0-1.5691.0459-2.3584.147-5.3596.6992-10.0195,3.8892-14.4543,6.9956-34.624,24.2134-69.2601,48.4263-103.884,72.6396-18.3555,12.8296-38.6675,29.2051-38.691,51.604,0,8.8218,3.2844,17.2764,4.9801,25.9326,3.7825,19.4937-.6285,39.5684-.095,59.418,0,.1064.0118.2134.0118.3198.0593,1.9331.178,3.8896.3914,5.8462,1.8262,18.0825,9.7826,36.6514,26.3475,43.2324,5.0045,1.9844,10.2194,2.6626,15.5404,2.6626,9.8458,0,20.0591-2.3208,30.0043-2.9829,1.0488-.0718,2.1156-.1074,3.1943-.1074.8848,0,1.7776.0239,2.6753.0723,13.3516.7114,12.6995,20.7505-.6759,20.8691l-23.8812.2134c-4.743.0356-9.1659,2.8813-10.7783,7.3516-1.8617,5.1343,1.2924,8.146,4.245,10.8379,10.7428,9.8062,21.4977,19.6123,32.2524,29.4185,7.5177,6.8657,15.4266,14.312,15.7706,25.3276.166,5.2651-2.3361,10.3755-6.913,12.9604-2.0214,1.1479-4.0852,1.6357-6.139,1.6357-5.476,0-10.8866-3.4629-15.2758-7.1021-27.1774-22.5293-46.1259-58.1021-80.2993-66.9478-5.495-1.4229-10.9371-2.0552-16.3313-2.0557-39.5593-.0029-76.83,33.9795-118.1096,39.395-8.0513,1.0674-16.3633,1.0317-24.0471,3.6523-16.9681,5.7744-27.0588,22.7427-35.7031,38.4302-11.9644,21.7231-23.9285,43.458-35.8809,65.1812-2.6204,4.7549-5.6204,9.8892-11.9288,10.2568-.2343.0142-.4677.021-.6995.021-5.6925,0-10.5812-4.1362-12.1422-9.6733-3.249-11.502,3.8418-21.1538,10.2568-29.9639,6.0236-8.3003,11.8457-16.9565,16.6599-26.0391,5.7034-10.7192,9.9959-22.0195,11.6322-34.0195,2.585-19.0312-3.1185-40.1494-17.1105-52.6831-2.3004-2.0752-4.8378-3.9009-7.5887-5.4546-8.9393-5.0273-19.0397-6.645-29.3754-6.645-7.8984-.0005-15.933.9438-23.699,2.0327-8.2647,1.1499-16.8732,2.5493-23.644,7.4463-10.4227,7.5181-13.8732,21.1421-18.9957,32.9287-4.7665,10.9658-14.0278,22.2808-25.5329,22.2808-1.0599,0-2.1373-.0957-3.2335-.2969-1.9092-.3438-3.7708-1.0557-5.3005-2.2529-9.4623-7.4229.6048-23.6206,8.4901-29.1934,5.4308-3.8301,8.5848-10.2329,7.5887-16.8022-1.2829-8.4985-7.0941-11.4316-14.043-11.4316-6.2175,0-13.3458,2.3481-18.9564,5.1592-17.6917,8.8574-35.383,17.7148-53.0626,26.5728-6.6229,3.3174-15.147,5.9458-22.5703,5.9458-7.2761,0-13.4945-2.5234-15.8365-9.3965-4.3991-12.8892,11.6561-22.7192,24.6045-26.9287,43.9797-14.2764,87.9474-28.5527,131.9271-42.8291,15.7231-5.1108,35.6794-18.5215,23.5255-34.2686-4.3877-5.6865-11.2974-8.5298-18.4443-8.5298-.6175,0-1.2364.021-1.856.0635-.3752.0259-.7594.0381-1.1492.0381-11.6836,0-29.4116-11.3262-21.7121-23.0415,2.2056-3.356,5.8459-5.502,9.7945-6.166l43.8135-7.3281c1.2687-.2134,2.5019-.6519,3.5455-1.4111,6.2607-4.5767.5692-12.4146-4.9921-16.1499-20.478-13.8018-44.952-20.0273-69.0111-25.7783-9.2846-2.2168-20.9072-3.3228-32.9205-3.3232-17.674-.0005-36.1984,2.3931-49.4062,7.165-3.2501,1.1753-6.1373,1.6997-8.6066,1.6997-13.3776,0-14.4957-15.3916,5.3339-26.1025,12.2923-6.6328,26.722-8.7798,41.0486-8.7798,8.5179,0,16.9983.7583,24.9741,1.7842,39.2842,5.0513,77.75,16.4224,113.4769,33.5332,5.8245,2.7881,12.7844,5.5767,19.0024,5.5767,1.8202,0,3.5766-.2388,5.2225-.7866,3.0118-1.0078,5.6442-3.0474,7.6361-6.5449.9131-1.6128,1.5297-3.3794,1.9329-5.1938,15.3793-69.3901-26.3949-146.5117-92.5127-172.1362-15.5571-6.0234-33.3909-10.4702-46.8727-19.4224-6.0203-3.9985-2.7573-13.041,3.8812-13.041.4876,0,.9922.0488,1.5139.1519l37.1022,7.3276c2.8914.5698,6.1123.9121,9.3176.9121,10.3998,0,20.6395-3.6016,18.9627-14.7139-.249-1.6245-.8062-3.166-1.4348-4.6719-5.9643-14.1465-3.8298-31.3159,5.3478-43.5884.9604-1.2808,2.1107-2.4189,3.5217-3.166,1.3388-.7104,2.6302-1.0317,3.863-1.0317M199.1837,0c-2.5975,0-5.1613.6616-7.6204,1.9668-2.3079,1.2217-4.3882,3.0522-6.1763,5.437-10.8944,14.5679-13.373,34.7837-6.3209,51.5103.342.8193.7643,1.9019.8978,2.7725.2986,1.9785-.2126,2.5728-.405,2.7964-1.1514,1.3384-4.8865,2.6885-10.6355,2.6885-2.5565,0-5.2426-.2632-7.7678-.7607l-37.0992-7.3271c-1.0203-.2012-2.0519-.3037-3.0667-.3037-6.655,0-12.444,4.3657-14.4052,10.8628-1.9587,6.4893.4315,13.1108,6.0895,16.8691,10.5322,6.9937,23.0376,11.2998,35.131,15.4644,4.6453,1.5996,9.033,3.1104,13.2823,4.7559,62.808,24.3418,102.0981,97.4312,87.5817,162.9277-.2587,1.1646-.6233,2.1685-1.0825,2.9795-1.1343,1.9917-2.3093,2.5938-3.205,2.8931-.7385.2461-1.6441.3726-2.6793.3726-5.5337,0-13.0665-3.606-15.5419-4.791-36.6451-17.5508-75.6451-29.0752-115.9153-34.2534-9.6781-1.2446-18.1817-1.8496-25.9962-1.8496-18.0352,0-32.7072,3.1865-44.8547,9.7412-14.0299,7.5781-21.4426,19.0039-18.8875,29.1104,1.8806,7.439,8.5323,12.0601,17.3596,12.0601,3.5236,0,7.3361-.7324,11.3318-2.1772,11.5902-4.1875,29.0417-6.688,46.681-6.6875,11.646,0,22.6765,1.1025,31.0594,3.104,25.3062,6.0488,47.7707,12.0776,66.393,24.6289,1.5153,1.0181,2.6763,2.2358,3.3934,3.2129l-42.6032,7.1255c-6.3011,1.0596-11.8276,4.5835-15.1699,9.6689-3.9114,5.9512-4.2246,12.9424-.8596,19.1807,5.4962,10.189,19.1979,16.2773,29.2692,16.2773.5724,0,1.1431-.019,1.6962-.0566.4359-.0303.876-.0454,1.3089-.0454,5.0356.0005,9.4456,1.9727,12.099,5.4116,2.427,3.1445,2.2489,5.1318,1.8227,6.5117-1.6428,5.3179-10.6766,11.7271-21.4803,15.2388l-66.6022,21.6221-65.3219,21.2061c-6.5522,2.1304-22.444,8.4014-28.5557,20.6201-2.6433,5.2852-3.0442,10.9976-1.1592,16.5205,3.2091,9.4185,11.7464,14.8223,23.4214,14.8223,8.0042,0,17.5391-2.4766,26.1597-6.7944,17.6796-8.8579,35.3702-17.7153,53.0612-26.5723,5.3889-2.6997,11.1332-4.311,15.3682-4.311,5.033,0,5.7105,1.9121,6.1183,4.6133.5103,3.3652-1.1312,6.8335-4.283,9.0566-7.4241,5.2466-15.4499,16.5078-15.7133,27.0518-.1516,6.0635,2.2973,11.3896,6.8955,14.9966,2.4752,1.9375,5.4428,3.2256,8.8273,3.835,1.5245.2798,3.0987.4238,4.6534.4238,15.5594,0,27.1885-13.9995,32.8831-27.1006,1.0989-2.5283,2.1165-5.1157,3.1005-7.6177,3.5178-8.9453,6.8405-17.394,13.2336-22.0059,5.094-3.6841,12.0981-4.9004,20.0598-6.0083,7.252-1.0166,15.0016-1.9565,22.5944-1.9565,10.4038.0005,18.7275,1.8374,25.4469,5.6167,2.2129,1.2495,4.286,2.7393,6.149,4.4199,11.2396,10.0684,16.9377,27.981,14.5372,45.6533-1.3692,10.0415-4.891,20.292-10.766,31.3335-3.96,7.4712-9.0649,15.4419-16.071,25.0962l-.0952.1309c-6.9851,9.5923-15.6783,21.5308-11.3879,36.7192,2.5735,9.1299,10.7386,15.5088,19.8549,15.5088.3892,0,.7842-.0112,1.174-.0347,10.8936-.6348,15.8246-9.582,18.4736-14.3892,11.9546-21.7266,23.9182-43.4604,35.8819-65.1826,8.6021-15.6113,17.4668-30.0137,31.2649-34.7095,4.5295-1.5449,9.6464-2.0132,15.0638-2.5088,2.4243-.2222,4.9313-.4512,7.4545-.7856,20.4313-2.6807,39.5231-11.7363,57.9862-20.4937,20.4191-9.6855,39.7057-18.8335,59.0696-18.832,4.8934.0005,9.7123.606,14.323,1.7998,20.3376,5.2642,35.1346,21.5894,50.8004,38.8735,8.2567,9.1094,16.7947,18.5288,26.3929,26.4858,7.2609,6.0195,13.9308,8.9463,20.3906,8.9463,3.5676,0,6.965-.9023,10.0975-2.6816,7.0242-3.9668,11.2323-11.7041,10.9651-20.1816-.4569-14.6279-10.814-24.0864-18.3765-30.9932l-.6078-.5542c-10.5526-9.6221-21.1052-19.2437-31.6461-28.8657-.5758-.5249-1.6919-1.5425-2.1282-2.1455.0045-.0132.0093-.0269.0144-.041.4373-1.2119,1.7941-2.0576,3.304-2.0693l23.8927-.2134c10.2075-.0903,18.077-7.9014,18.3048-18.1694.2286-10.2998-7.0363-18.1714-17.274-18.7173-1.0327-.0552-2.0775-.0835-3.1018-.0835-1.2557,0-2.514.0425-3.7397.126-4.4003.293-8.7972.8848-13.0496,1.457-5.7614.7754-11.2031,1.5073-16.4093,1.5073-4.9766,0-8.9758-.6665-12.5863-2.0981-11.5005-4.5693-19.4755-18.2476-21.3276-36.5874l-.0032-.0317-.0035-.0317c-.1738-1.5947-.2871-3.2847-.3461-5.1646-.0023-.1187-.007-.2373-.0129-.3564-.1904-7.1011.2834-14.2075.7853-21.731.8464-12.6934,1.7217-25.8188-.8339-38.9902-.6024-3.0752-1.3683-6.0449-2.1089-8.9175-1.4011-5.4341-2.7246-10.5664-2.7246-15.4883.0189-17.9272,16.9617-32.2397,35.2679-45.0352,17.4207-12.1826,34.8428-24.3638,52.2649-36.5454,17.208-12.0317,34.4159-24.0635,51.6208-36.0952,3.4519-2.418,7.3586-5.1543,10.8979-5.6162.4113-.0527.8489-.0796,1.3206-.0796,2.4711.0005,5.3538.7603,8.4056,1.5649,2.6865.7085,5.4644,1.4409,8.4905,1.835,1.0491.1343,2.1185.2021,3.1924.2021,10.2661,0,21.2928-6.1113,21.5077-17.4365.0607-3.5762-.9886-10.208-8.694-14.6221-3.7999-2.1768-8.2997-3.3369-12.6514-4.4585-4.251-1.0962-10.675-2.7524-11.2294-4.8091-.3647-1.3574,1.2729-4.7656,2.4686-7.2544,2.5698-5.3477,6.4531-13.4292,1.6012-21.4258-3.0193-4.9634-8.3942-7.9219-14.3822-7.9219-2.2258,0-4.4072.4116-6.4846,1.2231-9.9902,3.9346-13.7852,12.6567-16.8346,19.665-.1898.4365-.3793.8716-.5695,1.3042-11.7836,26.7432-32.286,49.3813-57.7285,63.7402-10.3931,5.8662-18.8619,8.5981-26.6521,8.5981-.6519,0-1.3063-.0205-1.9452-.0601-7.8893-.5-17.0098-5.2251-19.1617-13.2886-.1895-.708-.3768-1.499-.5752-2.3369-.6926-2.9248-1.4778-6.2402-3.066-9.2456-3.4469-6.5215-8.8229-7.8306-11.7207-8.0303-.325-.022-.6414-.0327-.9575-.0327-2.8617,0-5.7439.876-8.3353,2.5337-14.3898,9.2642-17.0194,25.4224-19.3395,39.6782-1.2155,7.4683-2.3634,14.5225-4.9366,20.4795-5.8195,13.4785-21.5934,22.8911-38.36,22.8911-1.629,0-3.2601-.0918-4.8479-.2729-16.842-1.9116-33.6674-12.9893-45.0121-29.6333-.6593-.9683-1.3076-1.959-1.994-3.0078-3.1696-4.8428-6.7618-10.332-12.2524-14.4106-1.1653-.8647-2.3402-1.6274-3.4763-2.3652-1.4258-.9258-3.7677-2.4463-4.3362-3.2832.1056-.5898.6516-1.8755,1.0236-2.751.7704-1.8135,1.729-4.0703,2.1466-6.6992.8245-5.1201-.6554-10.2212-4.1698-14.3472-4.3011-5.0493-11.3553-8.1855-18.4097-8.1855-2.558,0-5.0238.4058-7.329,1.2065-11.8003,4.1084-18.5188,14.9639-23.9174,23.687-.5432.8774-1.0797,1.7446-1.6135,2.5918-.7492,1.1919-1.501,2.1611-2.3027,2.9702-2.5845,2.6025-4.6605,2.9043-5.9966,2.9043-4.7845,0-11.4951-4.5205-17.9509-12.0913-32.7004-38.3125-55.77-84.5513-66.7173-133.7212-2.7044-12.1245-10.4475-24.3555-21.6513-24.3555h0Z"/>
      </g>
      <path class="cls-5" d="M437.7169,342.4646c-5.1854,19.3413-18.8239,35.2508-33.3077,49.0912-15.8339,15.1273-34.5444,29.2453-56.3586,31.2008-22.8737,2.0691-45.9495-10.6737-58.0615-30.1915-12.2634-19.7576-13.323-48.3216-4.0878-71.6875,6.0938-15.4301,16.6665-28.5892,31.4783-35.4905,15.0769-7.0275,32.45-4.6303,49.2047-3.8607,1.3625.0631,2.7126.1136,4.0627.1514,17.0198.4416,35.3642-1.5897,49.8103,7.4186,1.3373.8327,2.5989,1.7537,3.7976,2.7378,13.9791,11.5316,18.2436,32.8032,13.4618,50.6304Z"/>
      <path class="cls-6" d="M437.7169,342.4646c-5.1854,19.3413-18.8239,35.2508-33.3077,49.0912-15.8339,15.1273-34.5444,29.2453-56.3586,31.2008-22.8737,2.0691-45.9495-10.6737-58.0615-30.1915-12.2634-19.7576-13.323-48.3216-4.0878-71.6875,2.006,9.2101-4.3603,29.7102,3.5756,40.5479,4.6555,6.3587,17.0901,24.9114,36.0781,28.9108,14.5091,3.0532,35.5286-14.9045,52.6115-21.8184,13.0834-5.3116,21.1075-8.5541,28.3495-16.7801,8.2134-9.3111,10.5475-19.4548,14.1684-36.0961,2.2079-10.0806,3.0657-17.8777,3.5706-23.8075,13.9791,11.5316,18.2436,32.8032,13.4618,50.6304Z"/>
      <path class="cls-8" d="M336.3239,288.7481c-1.0828.2893-2.1646.5797-3.2464.8597-7.0225,1.8177-14.2568,3.2512-20.6464,6.6853-11.3358,6.0924-19.034,20.4942-14.9638,33.3062,1.6721,5.2634,5.6581,9.8858,10.8669,11.721,3.8829,1.3681,8.2007,1.1509,12.1493-.0141s7.5734-3.2301,10.995-5.5196c7.8363-5.2435,14.8133-11.7635,20.6008-19.2071,4.6347-5.9609,8.6717-12.666,14.9491-16.8622,1.236-.8262,2.6502-1.6757,3.0619-3.1043.4421-1.5341-.4654-3.1275-1.5185-4.3274-4.1385-4.7151-10.8067-6.5183-17.0777-6.3344-5.154.1512-10.1737,1.4619-15.1703,2.7968Z"/>
      <path class="cls-8" d="M385.3745,305.4218c-2.6724-4.2377,2.2967-14.6496,10.1632-16.8443,9.285-2.5905,19.9261,7.0144,18.9806,12.2195-1.023,5.6314-15.7401,6.8391-16.9753,6.9309-4.4633.3319-10.2344.761-12.1685-2.3061Z"/>
      <path class="cls-7" d="M413.2495,261.4138c-14.4624-1.511-35.8663,5.8685-50.2558,4.8439-31.8743-2.2694-45.7858-6.4172-61.7602-1.5137-16.4382,5.0459-16.4393,13.4675-26.6416,27.0902-6.5638,8.7643-23.1268,25.4191-27.8526,56.8714-2.1933,14.5971,10.6412,24.9201,6.0549,36.7332-4.185,10.7796-1.7653,19.605-8.4769,26.5106-3.2472,3.341-7.7695,7.8907-14.9354,10.1973-6.075,1.9554-9.2022.7385-20.1832,0-13.7096-.922-23.4071-1.5743-33.9075,2.0153-5.3181,1.8179-11.8001,4.0338-16.9537,10.0945-7.2111,8.4804-6.0819,17.7388-10.8989,18.5684-3.4659.5969-7.7647-3.5568-9.2843-7.6696-2.0079-5.4348,1.6301-8.6527,0-11.7061-3.9348-7.37-31.2566-.0986-33.1001.4036-21.153,5.763-32.947,14.8856-36.7332,10.8989-2.1961-2.3123-.1235-7.3769,0-7.6696,3.942-9.3407,18.7163-10.871,32.6966-12.9202,49.1564-7.2052,69.9807-18.1117,75.8883-21.3911,7.7-4.2743,17.0953-10.5989,21.7977-21.7977,1.7647-4.2026,5.311-12.6481,1.6146-18.9721-4.1776-7.1473-15.9446-19.736-35.3203-16.4239-9.1507,1.5642-13.9417-3.4256-13.9263-7.7957.0175-4.9733,9.9075-9.2736,16.5501-10.8989,11.2984-2.7646,14.938,1.7851,27.8526-.8073,5.8013-1.1645,12.6366-2.5366,16.1465-8.0733,4.3877-6.9211.8843-16.0987.4037-17.3574-2.6944-7.0583-9.994-14.9214-56.5127-26.238-38.5092-9.3681-57.7639-14.0522-74.2737-10.4952-17.6741,3.8078-33.8887,12.884-38.7514,6.8622-2.068-2.5608-1.293-6.8739,0-9.4905,2.9467-5.9634,11.0277-8.062,29.0636-9.4816,18.5746-1.4619,27.8618-2.1929,40.3662-.7915,12.0684,1.3525,39.2812,4.649,69.8333,20.1673,18.1098,9.1984,26.5559,17.1866,46.421,20.5867,16.9784,2.906,23.897-.689,26.6417-2.4359,10.8836-6.9272,12.9339-20.9483,14.5317-31.8753,1.2134-8.2983.9252-17.0018-4.4402-41.5771-5.3191-24.3632-7.9787-36.5448-12.1098-45.5885-11.3288-24.7996-28.0405-39.9804-37.5405-48.4393-13.8239-12.3091-30.7028-15.5117-38.3478-19.7794-31.6843-17.6873-51.7291-24.8566-51.2649-26.8435.4596-1.9671,25.7692-4.2953,48.4394,8.4769,8.2327,4.6383,14.5447,10.3819,19.9812,7.8714,6.539-3.0197,6.6615-15.6029,6.6603-16.9952-.008-9.1571-4.2124-11.1543-7.2659-23.5728-1.3932-5.6656-4.8619-19.7725,1.2111-24.2197,2.6501-1.9407,7.0239-1.9733,9.6878,0,4.7585,3.5248,2.606,12.3718,2.422,19.9812-.1828,7.5655,1.5976,13.1826,13.9263,37.5405,13.5715,26.8133,19.5621,36.1053,35.1186,64.1821,13.1109,23.6628,19.5965,36.448,35.1184,46.0174,4.5414,2.7998,13.4563,8.1464,19.9812,4.8439,6.4516-3.2653,4.6164-11.9744,13.9264-24.2197,4.0136-5.2791,7.9163-10.4122,13.9263-10.8989,7.4335-.6019,15.2404,6.1355,17.5592,13.3208,1.9322,5.9873-1.1837,8.4512.6056,14.5318,2.0063,6.8177,7.7521,9.9349,13.2661,13.9263,15.4391,11.1759,12.6668,17.3384,24.2744,26.0362,20.2097,15.1436,46.7344,10.0412,48.4394,9.6879,14.9535-3.0989,24.7102-11.1476,32.6966-17.7359,7.5055-6.1916,12.3002-10.147,15.1373-17.3827,1.6997-4.3349,1.1555-5.9163,4.2384-24.2197,1.7423-10.3442,2.559-13.655,5.4494-15.1373,3.5505-1.8208,9.1371-.3223,12.1098,3.0275,4.4883,5.0574.5471,11.5503,4.2384,15.7428,3.8756,4.4018,12.8162,2.465,18.1647,1.211,25.3872-5.9523,38.0808-8.9284,51.4669-16.9538,7.0341-4.2171,22.8337-13.8957,36.3295-32.091,9.4215-12.7023,17.0464-28.647,18.7703-27.8526,1.245.5737-3.1828,8.681.6055,13.9263,3.1168,4.3156,9.4102,3.3915,9.6878,5.4494.3543,2.6268-9.7424,5.292-17.5592,9.0824-12.8999,6.2552-17.9424,14.7756-26.0362,23.6142-9.1524,9.9946-23.2571,17.9656-51.4667,33.9075-30.3093,17.1286-34.4895,15.6577-48.4394,27.676-9.9832,8.601-23.2783,20.3729-26.0362,38.3226-1.369,8.9098.1896,17.1841,1.8166,25.8204,3.2149,17.0669,7.7491,19.9755,7.8714,32.3068.0601,6.0636.2037,20.5412-9.0822,26.0361-12.0493,7.1301-27.2089-2.2507-33.2759-12.5061-7.011-11.851,5.2006-30.1285-.6319-42.1451-4.4942-9.2594-15.44-28.3011-35.724-30.4204Z"/>
      <path class="cls-9" d="M596.5445,500.7546c.166,5.2648-2.336,10.3754-6.9129,12.9603-7.411,4.2095-15.3794-.4624-21.4148-5.4663-27.1774-22.5293-46.1259-58.102-80.2993-66.9477-45.794-11.8575-87.5325,31.1853-134.441,37.3394-8.0512,1.0671-16.3633,1.0316-24.047,3.6521-16.9681,5.7747-27.0589,22.7428-35.7031,38.4304-11.9644,21.723-23.9285,43.4579-35.881,65.1809-2.6205,4.7549-5.6205,9.8892-11.9288,10.2568-5.988.3557-11.2172-3.8893-12.8417-9.6521-3.249-11.5018,3.8418-21.1538,10.2568-29.964,13.15-18.0946,25.2804-37.8968,28.2921-60.0585,2.585-19.0314-3.1185-40.1496-17.1105-52.6831,6.9724-.6285,13.1857.4625,17.6561,3.7351,4.1737,3.0593,6.7231,8.1225,11.8101,18.2251,8.6323,17.1697,8.6031,12.2941,12.3856,12.6736,5.7628.5691,5.3888-7.4918,21.2186-20.4166,12.8179-10.4821,22.9443-3.6995,49.0428-10.4821,8.7863-2.2766,32.7387-8.49,50.857-26.798,20.6678-20.8693,14.0393-37.5647,35.4304-50.9519,14.2291-8.9169,29.3237-9.1185,32.6913-9.0948,7.0314.0475,11.4662,1.3518,16.2448,3.166,1.8261,18.0828,9.7825,36.6517,26.3474,43.2326,14.2647,5.6561,30.2249.6996,45.5447-.3201,1.9092-.1305,3.8774-.1424,5.8696-.0356,13.3516.7114,12.6995,20.7507-.6758,20.8693l-23.8813.2135c-4.743.0355-9.1659,2.8814-10.7783,7.3516-1.8617,5.1343,1.2923,8.1461,4.245,10.8378,10.7429,9.8062,21.4977,19.6124,32.2525,29.4186,7.5176,6.8655,15.4267,14.3121,15.7706,25.3277Z"/>
      <path class="cls-1" d="M596.5445,500.7546c.166,5.2648-2.336,10.3754-6.9129,12.9603-7.411,4.2095-15.3794-.4624-21.4148-5.4663-27.1774-22.5293-46.1259-58.102-80.2993-66.9477-45.794-11.8575-87.5325,31.1853-134.441,37.3394-8.0512,1.0671-16.3633,1.0316-24.047,3.6521-16.9681,5.7747-27.0589,22.7428-35.7031,38.4304-11.9644,21.723-23.9285,43.4579-35.881,65.1809-2.6205,4.7549-5.6205,9.8892-11.9288,10.2568-5.988.3557-11.2172-3.8893-12.8417-9.6521-3.249-11.5018,3.8418-21.1538,10.2568-29.964,6.0236-8.3003,11.8457-16.9564,16.6599-26.0392,1.3516,1.1384,2.2291,2.3952,2.4899,3.6877.9368,4.6719-6.6994,7.8023-7.2685,16.9445-.2964,4.8971,1.4585,10.9682,4.245,11.5136,1.0791.2016,3.8064-.1185,15.1302-21.806,5.4307-10.3872,9.3438-17.8693,13.9326-29.6675,5.5019-14.1579,4.4584-15.1776,7.8497-20.5848,1.4228-2.2885,7.7311-11.4662,24.8415-19.9799,17.4543-8.6916,27.5807-4.8023,50.8689-11.5018,3.9248-1.1383,3.8064-1.2924,38.7505-17.561,38.9401-18.1302,44.0863-20.2645,53.2759-19.9799,15.2963.4625,29.3356,7.2212,35.7269,10.2923,14.3237,6.8892,53.9207,43.1812,55.4029,41.4737,1.5295-1.7431-38.8261-38.5449-36.0279-45.7187,2.1463-5.5019,11.6917-5.7271,11.5019-7.8616-.2016-2.4663-12.6521.0356-23.6084-6.6639-8.6205-5.2766-12.6875-14.0156-15.7469-20.5847-3.5691-7.6955-5.7153-12.2963-4.8378-17.561,1.1503-6.996,7.2093-12.8299,14.9405-16.9326.0593,1.9328.1779,3.8893.3914,5.8458,1.8261,18.0828,9.7825,36.6517,26.3474,43.2326,14.2647,5.6561,30.2249.6996,45.5447-.3201,1.9092-.1305,3.8774-.1424,5.8696-.0356,13.3516.7114,12.6995,20.7507-.6758,20.8693l-23.8813.2135c-4.743.0355-9.1659,2.8814-10.7783,7.3516-1.8617,5.1343,1.2923,8.1461,4.245,10.8378,10.7429,9.8062,21.4977,19.6124,32.2525,29.4186,7.5176,6.8655,15.4267,14.3121,15.7706,25.3277Z"/>
      <path class="cls-3" d="M348.7724,227.2035c-2.7813-5.3492-10.7563-7.257-15.4873-3.204-4.3458,3.723-4.4337,11.1727,0,15.1007,3.6102,3.1984,9.4389,3.371,13.231,0,3.4532-3.0697,4.1949-8.1682,2.2563-11.8967Z"/>
      <path class="cls-3" d="M299.417,215.6992c-.4464-5.1484-6.4266-8.7936-10.8988-7.2659-4.9316,1.6847-6.9905,9.3047-3.633,13.3878,2.0292,2.4678,5.8285,3.39,9.0823,2.1783,3.4963-1.302,5.7494-4.8393,5.4494-8.3003Z"/>
      <path class="cls-3" d="M243.1064,314.1019c-4.2684-12.3118-21.5485-4.7909-16.9535,6.9534,4.3935,10.0636,17.7622,2.3685,16.9535-6.9534Z"/>
      <path class="cls-3" d="M125.6409,256.5699c-.3015-1.1207-4.3288-2.237-6.055,0-.9242,1.1977-.9406,3.0348,0,4.5412,5.0536-2.5103,6.2492-3.819,6.055-4.5412Z"/>
      <path class="cls-3" d="M227.969,367.0721c1.1001-2.5204.0783-6.1671-2.5866-7.5687-3.1896-1.6775-7.3882.5689-8.615,3.7843-1.1459,3.0039.68,5.8614.9081,6.2063,4.1975,2.3616,8.9311.6994,10.2934-2.422Z"/>
      <path class="cls-3" d="M235.8404,410.3648c1.1962-2.3237.5854-5.4529-1.5784-7.2659-2.267-1.8995-5.6616-1.8706-7.8067,0-2.6724,2.3305-2.5988,6.8163,0,9.0824,2.8457,2.4814,7.7158,1.4267,9.3852-1.8165Z"/>
      <path class="cls-3" d="M173.7775,330.7426c-2.0884-1.5347-5.6739-.4349-6.3577,1.8165-.5745,1.8913.9795,4.3298,3.1789,4.8439,1.5117.3534,3.513-.1592,4.3897-1.8165.9226-1.744.1267-3.861-1.2109-4.8439Z"/>
      <path class="cls-3" d="M163.7869,417.9334c-1.8894-2.2905-5.9414-2.1657-8.1741,0-2.3569,2.2863-2.4345,6.6024,0,8.4769,2.4746,1.9054,6.4985.4824,8.1741-2.1192,1.1195-1.738,1.5207-4.5142,0-6.3577Z"/>
      <path class="cls-3" d="M279.7675,272.9181c-.8311-1.8333-3.1306-3.2449-5.1757-2.7247-2.4149.6143-4.2063,3.8538-3.0274,7.2659.1582.2929,1.6705,3.009,3.8873,3.0465,2.878.0486,5.7438-4.4376,4.3157-7.5877Z"/>
      <path class="cls-3" d="M216.061,102.0686c-.5632-2.3529-2.5555-5.1232-5.2476-5.2476-3.3575-.1551-6.5036,3.8655-6.0548,7.6696.4216,3.5743,3.9971,6.7884,7.2659,6.0549,3.3103-.7428,4.8207-5.2004,4.0365-8.4769Z"/>
      <path class="cls-3" d="M342.8107,180.732c-2.3541-2.4703-7.3434-2.9632-10.0915,0-2.4582,2.6506-1.9199,6.7691,0,9.2842,1.6388,2.1468,4.7018,3.6725,7.2658,2.8256,4.139-1.3671,6.1337-8.6386,2.8257-12.1098Z"/>
      <path class="cls-3" d="M392.8646,248.5976c.4604-4.0625-2.1291-8.6393-6.055-9.4974-4.8491-1.0599-9.9463,3.9449-10.0915,9.0937-.0984,3.4879,2.0629,7.4965,5.6513,8.4769,4.652,1.271,9.924-3.0332,10.4952-8.0732Z"/>
      <path class="cls-3" d="M480.0554,316.7922c-.2006-2.6422-2.582-4.9876-5.2476-5.6272-3.8039-.9127-8.2444,1.6348-8.8806,5.6272-.4905,3.079,1.4021,6.2607,4.0367,7.29,4.4214,1.7275,10.4324-2.8027,10.0915-7.29Z"/>
      <path class="cls-3" d="M465.8497,249.4049c-.2429-.1631-4.3506-2.8294-7.9956-.8073-3.853,2.1375-4.8197,8.1994-2.4219,10.8988,1.6227,1.8269,4.422,1.703,6.4196,1.6147,1.9325-.0855,6.361-.2814,7.7084-3.2293,1.3095-2.8649-1.0423-6.6856-3.7105-8.4769Z"/>
      <path class="cls-3" d="M511.1373,198.1399c.5173-1.8184-1.8545-4.7575-4.4402-5.0602-2.9734-.3481-6.525,2.7551-6.4585,7.4822,5.9557.6388,10.3159-.3732,10.8988-2.422Z"/>
      <path class="cls-3" d="M65.899,258.1944c-.7253-1.7334-5.9272-2.9444-8.0732,0-1.5124,2.0753-.9992,5.5181,1.6146,7.3569,4.4719-2.7497,7.1209-5.7742,6.4585-7.3569Z"/>
      <path class="cls-3" d="M313.3434,251.4232c.8511-3.5463-1.8855-7.3083-5.2476-8.0732-3.7551-.8544-8.1584,2.0602-8.8806,6.8622,1.3215,4.0854,5.0127,6.5276,8.4769,6.0549,2.4201-.3302,4.9975-2.1197,5.6513-4.8439Z"/>
      <path class="cls-9" d="M268.1333,333.7695c-.5852-.4569-5.7858-4.5176-9.6878-2.0177-3.142,2.013-3.6301,7.1188-1.6146,10.5134,1.6607,2.797,4.8349,4.1188,7.6695,4.0184,3.0802-.109,7.0422-1.9428,7.6696-5.2476.6803-3.5834-3.0201-6.4727-4.0367-7.2665Z"/>
      <path class="cls-9" d="M283.2389,298.0507c-1.7731-.7161-5.2053,1.657-7.5695,6.2521,2.2902,3.27,5.6724,4.5996,7.5695,3.6562,3.0336-1.5086,2.4495-8.919,0-9.9083Z"/>
      <path class="cls-9" d="M307.6921,273.4227c-1.7831-1.6626-4.7265-.9469-5.0457,0-.4856,1.4407,4.5156,5.1601,5.8531,4.2384.7876-.5427.6173-2.9101-.8074-4.2384Z"/>
      <path class="cls-9" d="M370.2049,273.2209c-.8718-1.2649-2.7018-1.5618-3.9819-.7945-.9301.5575-1.5714,1.6775-1.4127,2.8689.1827,1.3716,1.368,2.4072,2.6937,2.5108,1.0792.0844,2.1224-.4588,2.701-1.3559.621-.9628.6635-2.2667,0-3.2293Z"/>
      <path class="cls-9" d="M414.577,267.5696c-.4874-.3164-2.9007-1.8833-5.3641-.8073-2.2809.9963-3.1761,3.6343-3.0275,5.6641.174,2.3763,1.7707,3.8087,2.0183,4.0238,2.121,1.8424,4.7077,1.4174,5.0457,1.3559,2.6772-1.0069,4.378-3.399,4.2386-5.7962-.1542-2.6503-2.4914-4.1678-2.911-4.4402Z"/>
      <path class="cls-9" d="M340.9941,270.37c-1.1921-.7022-2.707-.6602-3.8347,0-1.9017,1.1133-2.6897,3.9772-1.4129,5.6513,1.0865,1.4245,3.2032,1.3778,4.4404,1.0092.4328-.1289,1.7969-.5353,2.4219-1.8165.7837-1.6063.0517-3.8625-1.6146-4.8439Z"/>
      <path class="cls-9" d="M277.6193,396.4385c-2.3084-1.2415-6.1573-1.987-8.7797,0-3.4054,2.5803-2.6006,8.1458-1.2109,11.1801.5318,1.1611,2.0371,4.448,5.4494,5.1681,3.058.6453,5.9192-1.1357,7.4071-3.0275,2.2766-2.8946,2.3143-7.29,0-10.8988-.5272-.6667-1.4509-1.661-2.8658-2.422Z"/>
      <path class="cls-9" d="M303.6556,440.0339c-2.0354-1.4671-5.3942-1.9189-7.2904,0-2.5506,2.5812-.1067,7.0761,0,7.2659.2545.4528,2.3237,4.0135,5.4738,3.633,2.6119-.3155,3.8457-3.0844,3.9508-3.3302,1.0891-2.5484.2475-5.8518-2.1343-7.5687Z"/>
      <path class="cls-9" d="M253.7024,427.2875c-.982-2.4243-3.9055-5.1829-6.9631-4.3113-1.8381.524-3.4704,2.2873-3.5978,4.3113-.1859,2.9537,2.9292,4.9385,5.1114,5.4805.2236.0556,3.9663.9339,5.4495-1.211,1.0905-1.5771.2219-3.7218,0-4.2695Z"/>
      <path class="cls-9" d="M352.3976,431.2543c-.8605-1.7547-2.8697-3.6291-5.1467-3.3522-2.5213.3066-4.7534,3.1762-4.3273,6.6824,3.8605,3.2388,7.9946,3.475,9.474,1.8165,1.1357-1.2731.7203-3.6779,0-5.1467Z"/>
      <path class="cls-9" d="M393.571,416.262c-1.3615-1.1717-3.9626-3.4103-6.6605-2.7099-3.4651.8997-5.3122,6.1861-4.2384,10.1334.2.7354,1.0165,3.3184,3.633,4.844.292.1703,3.7159,2.0881,7.2659.3027.2937-.1477,3.4671-1.807,3.9358-5.1467.5055-3.6013-2.5455-6.227-3.9358-7.4236Z"/>
      <path class="cls-9" d="M416.2769,410.0621c.5764-1.7277.0436-4.2071-1.6999-4.844-1.6993-.6207-3.6443.839-4.355,2.422-.8431,1.878-.2607,4.6245,1.5137,5.2815,1.7306.6407,3.9075-.9605,4.5411-2.8594Z"/>
      <path class="cls-9" d="M428.0841,378.2737c-1.9187-2.2175-6.5457-2.6128-8.7797,0-1.7844,2.0869-1.3244,5.2535,0,7.2659,2.0309,3.0861,5.8157,3.0347,6.0548,3.0274,4.1978-2.855,4.7899-7.9068,2.7248-10.2934Z"/>
      <path class="cls-9" d="M450.4872,355.5678c.208-1.6633-1.6265-3.7754-3.3302-3.8267-2.0072-.0605-4.4285,2.721-4.5412,7.1915,4.5032.4912,7.6275-1.4142,7.8714-3.3648Z"/>
      <path class="cls-9" d="M471.6794,355.3754c-.295-1.612-2.7845-3.1034-5.8298-2.2296-.175,3.4232,1.4508,5.7118,2.9149,5.7867,1.4417.0738,3.2045-1.9742,2.9149-3.5571Z"/>
      <path class="cls-1" d="M463.5054,380.9984c-2.6915-1.6853-8.0898-.1764-9.3773,3.633-1.2218,3.6152,1.9892,7.1413,4.6887,8.4769,1.7571.8693,5.0259,1.6658,6.8078,0,2.0085-1.8776.8692-5.7065.2251-7.8714-.5758-1.935-1.0131-3.4048-2.3443-4.2384Z"/>
      <path class="cls-1" d="M444.7351,404.0668c-2.1899-1.6712-5.6226-1.1791-7.2659,1.0051-1.9607,2.606-.7826,6.835,2.1314,7.9932,2.8429,1.13,6.3291-1.0639,6.9591-3.9966.3811-1.774-.2817-3.8243-1.8245-5.0018Z"/>
      <path class="cls-1" d="M488.936,412.9215c-.2519-2.9182-3.4082-5.3938-5.4494-4.7031-1.7173.5811-2.346,3.3019-2.1192,5.2007.2468,2.0667,1.7019,4.7896,3.7532,4.8171,2.1121.0283,4.0313-2.812,3.8153-5.3147Z"/>
      <path class="cls-1" d="M481.3228,364.9529c-.9283-.9957-5.0852-.3364-5.7076,2.422-.3954,1.7525.7575,3.8131,2.8538,4.5412,2.4497-3.2781,3.6864-6.07,2.8538-6.9632Z"/>
      <path class="cls-1" d="M416.4998,432.6429c-.0136-.1216-.2407-1.9199-1.5853-2.4483-1.5006-.5898-3.5149.7477-3.9356,2.4483-.2218.896-.0758,2.1952.9081,3.0012.788.6455,1.8624.769,2.7248.4541,1.4378-.525,2.0309-2.1752,1.8879-3.4552Z"/>
      <path class="cls-1" d="M384.3373,450.9611c.2313-1.2174-.5981-2.6739-1.9698-3.0559-1.6005-.4457-3.23.7688-3.4795,2.2706-.1599.962.2469,2.0389,1.0595,2.5734,1.4737.9692,4.0497.0024,4.3898-1.7881Z"/>
      <path class="cls-1" d="M335.8979,455.6253c-1.0329-1.4114-2.9955-1.5158-4.2384-1.211-1.4658.3594-3.3179,1.6279-3.3302,3.4816-.014,2.1251,2.4015,3.2531,2.5733,3.3302.415.1864,2.1081.8691,3.633,0,1.8225-1.0387,2.6384-3.8572,1.3623-5.6008Z"/>
      <path class="cls-1" d="M363.2965,456.6849c-.1374-1.2273-2.1208-2.2733-3.6124-1.6652-1.2342.5032-2.0935,2.1232-1.5343,3.1788.4774.9013,1.7953,1.0257,2.5733.9083,1.3034-.1968,2.6973-1.3147,2.5734-2.422Z"/>
      <path class="cls-1" d="M280.7982,470.4599c-.9498-.704-2.4841-.7291-3.4816,0-1.601,1.1704-1.5635,4.0977,0,5.4494,1.3589,1.1748,3.2918.6592,3.4816.6055,1.7358-2.2942,1.4168-5.0049,0-6.0549Z"/>
      <path class="cls-1" d="M288.3668,496.6474c-.7082-1.6941-2.6001-3.4918-4.3898-3.1788-1.9426.3398-2.705,2.9809-3.3302,5.1467-.5367,1.8596-1.26,4.3651.1514,5.9035.7551.823,1.9761,1.2113,3.0274,1.0596,1.3228-.1908,2.1073-1.1978,3.1789-2.5734.6224-.799,1.2027-1.5439,1.5137-2.7247.1223-.4645.5286-2.0065-.1514-3.633Z"/>
      <path class="cls-1" d="M276.1299,528.133c.3079-1.5111.0182-3.829-1.3867-4.3898-1.2811-.5115-2.7735.7241-3.1788,1.0596-1.6133,1.3358-2.9968,4.0838-1.8166,5.9035.5215.8041,1.4784,1.3264,2.422,1.3624,2.0286.0774,3.5877-2.1085,3.9599-3.9357Z"/>
      <path class="cls-1" d="M264.4499,548.2655c-1.116-1.0179-2.9713-1.0403-4.0872,0-1.5993,1.4909-.3747,3.9479-.3027,4.0871.1788.3451.7531,1.4536,1.8671,1.6651,1.3904.2639,2.8401-1.0179,3.2796-2.422.0285-.091.615-2.0791-.7569-3.3302Z"/>
      <path class="cls-2" d="M580.9708,493.4328c.8815-3.4137-.9623-6.6404-3.3303-8.2897-2.2816-1.5891-6.1324-2.4678-8.7795-.3028-3.4745,2.8418-1.6282,8.2719-1.5137,8.5925.1938.5429,1.9984,5.3557,6.3577,5.6365,3.3933.2186,6.4381-2.4307,7.2659-5.6365Z"/>
      <path class="cls-2" d="M472.2849,429.5875c-.5118-2.7538-4.9174-3.7166-7.2658-3.7827-.5065-.0143-6.7095-.1088-7.8714,3.7827-.6969,2.3346.6894,5.2029,3.0275,6.5107,2.8592,1.5991,5.8169.1238,6.0548,0,4.1169-1.0885,6.4821-4.2117,6.0548-6.5107Z"/>
      <path class="cls-2" d="M511.0364,444.8598c.7443-1.3178-1.9898-5.4183-5.7522-6.1013-3.3315-.6047-7.0382,1.5484-6.9631,3.0507.0851,1.6998,5.0175,2.6685,6.9631,3.0507,2.4712.4853,5.1778,1.0169,5.7522,0Z"/>
      <path class="cls-2" d="M378.8536,465.4646c-.0482-2.1036-3.6412-4.1527-6.7776-3.8073-3.3423.3681-5.1754,3.3462-5.4494,3.8073,3.6922,3.1171,7.7391,4.2399,10.2934,2.7247.1293-.0766,1.9684-1.1991,1.9335-2.7247Z"/>
      <path class="cls-2" d="M340.8932,473.2979c-.4282-2.6064-5.0039-4.681-8.4702-3.3755-2.8716,1.0815-3.9148,4.0809-4.0937,4.6245,4.2494,3.2599,8.7363,3.9976,11.0502,2.1265.9309-.7528,1.7232-2.1003,1.5137-3.3755Z"/>
      <path class="cls-2" d="M570.0719,413.4192c-2.1189-2.0306-7.2415-.4647-8.7797,2.6978-.0654.1345-1.1559,2.4612,0,4.2384,1.456,2.2389,5.8188,2.5946,8.1742.3027,2.0521-1.9966,2.2407-5.672.6055-7.239Z"/>
      <path class="cls-2" d="M501.6513,388.5682c.1782-2.1701-.7657-5.0887-3.3313-6.0544-2.0849-.7848-4.6287-.0494-5.751,1.5122-2.312,3.2166,1.344,10.0259,4.5837,10.0555,2.0615.0188,4.268-2.7043,4.4987-5.5132Z"/>
      <path class="cls-2" d="M536.4671,427.8747c-1.6427-2.0552-5.2845-2.0612-6.9631,0-1.5886,1.9507-1.1063,5.3687,1.5137,7.0125,2.056.6729,4.2762-.0507,5.4494-1.7286,1.0873-1.5551,1.185-3.8012,0-5.2839Z"/>
      <path class="cls-3" d="M469.9334,288.1424c-.1798-2.4807-1.8911-5.3091-4.0967-5.5364-2.9689-.306-6.5134,4.1335-5.5265,7.8714.6085,2.3046,3.0062,4.5946,5.5265,4.2384,2.8343-.4005,4.2884-3.9302,4.0967-6.5734Z"/>
      <path class="cls-3" d="M505.7233,216.3059c-1.2079-2.1425-5.7963-2.404-7.7049,0-1.1387,1.4343-1.47,4.0021,0,5.5152,1.5635,1.6094,4.2313,1.0646,5.7522,0,1.8212-1.2748,2.8631-3.9006,1.9528-5.5152Z"/>
      <path class="cls-3" d="M429.2373,249.7636c-3.7424.6139-5.8331,3.0057-5.5526,4.7349.1929,1.1894,1.5214,2.1484,2.7762,2.3974,1.7481.3469,3.6522-.625,4.3479-2.3974.677-1.7249.0206-3.7265-1.5715-4.7349Z"/>
    </g>
  </g>
</svg>