<?xml version="1.0" encoding="UTF-8"?>
<svg id="Capa_2" xmlns="http://www.w3.org/2000/svg" viewBox="0 0 879.9081 717.606">
  <defs>
    <style>
      .cls-1 {
        fill: #bf3441;
      }

      .cls-2 {
        fill: #ba0c1c;
      }

      .cls-3 {
        fill: #d83954;
      }

      .cls-4 {
        fill: #ef7f8f;
      }

      .cls-5 {
        fill: #e55e6c;
      }

      .cls-6 {
        fill: #d6404a;
      }

      .cls-7 {
        fill: #b22f3f;
      }

      .cls-8 {
        fill: #9e2539;
      }

      .cls-9 {
        fill: #a5071b;
      }
    </style>
  </defs>
  <g id="Capa_1-2" data-name="Capa_1">
    <g>
      <g>
        <path class="cls-6" d="M471.4896,327.1975c-.6799,8.67.97,24.44,5.3701,27.22,13.5599,8.58,29.5399-4.88,46.72,2.25,13.53,5.62,12.45,9.84,30.6399,18.35,11.42,5.34,17.1201,8.01,24.51,8.24,16.22.51,18.16-10.18,37.78-13.31,5.91-.94,22.97-3.66,37.79,5.07,7.8999,4.65,11.02,10.12,17.36,9.31,7.16-.91,7.7799-8.46,16.34-10.3,7.9299-1.7,11.66,3.86,17.37.99,4.77-2.4,3.85-7.13,8.17-11.8,6.85-7.41,19.22-6.37,25.53-5.84,14.8199,1.2401,17.1199,7.26,36.76,13.59,10.6799,3.44,19.77,6.37,30.6399,5.42,23.24-2.02,36.77-20.18,37.79-19.01.77.89-6.1699,12.2401-17.59,20.93-7.25,5.53-16.3099,9.9901-26.33,10.02-10,.03-22.3801-4.35-24.51-5.1-9.4001-3.33-11.8901-5.97-21.4301-8.21-8.1901-1.92-15.4501-3.63-21.4601,0-6.2799,3.79-3.98,9.04-10.21,13.34-7.27,5-12.76-.51-23.49,4.02-2.03.85-11.02,4.65-13.28,12.29-2.5499,8.63,4.8801,17.46,10.2101,23.79,13.4301,15.94,30.2699,22.35,35.75,24.25,24.7799,8.62,43.7599,4.02,43.91,5.89.1799,2.13-17.6401,7.67-44.42,1.35-8.8199-2.08-32.02-8.16-42.9-22.47-9.6599-12.72-8.97-7.75-19.3999-21.79-1.7001-2.28-10.1602-26.29-29.1101-27.36-5.36-.3-9.04-5.41-28.76.81-10.74,3.39-18.51,6.88-23.96,9.38-4.73,2.17-7.72,3.59-9.4,3.56-16.15-.33-15.62-8.03-43.0699-17.83-10.75-3.85-28.1101-10.05-35.74-2.59-1.0701,1.05-17.8201,8.64-19.15,21.78-1.7301,17.02,12.47,20.04,15.0599,25.02.53,1.02,1.15,1.96,1.8601,2.84,7.1399,8.95,23.22,11.07,47.1599,14.22,21.72,2.86,23.25.03,34.73,4.04,4.6801,1.64,21.72,7.84,34.72,24.08,11.73,14.64,11.51,26.61,20.4301,28.16,6.0699,1.05,8.58,6.99,20.17,4.28,1.9399-.46,11.4399-5.61,28.59-3.07,16.63,2.46,19.61,2.21,32.17,4.34,6.75,1.15,15.8099,4.88,30.3899,1.79,25.02-5.3,38.6501-30.1,39.8301-28.89,1.53,1.57-18.05,35.58-49.03,39.83-10.95,1.5-23.3-.73-30.63-2.05-16.42-2.95-23.24-7.29-35.75-5.33-7.37,1.15-19.08,4.86-19.4,10.05-.5,7.86,25.3201,15.41,30.6401,16.96,14.4099,4.22,18.0199,2.6,32.6799,5.83,13.6899,3.02,28.85,6.37,40.86,16.41,20.58,17.21,23.2899,46.88,20.41,48.15-3.03,1.33-7.24-32.81-35.49-46.58-7.49-3.65-21.3301-5.08-36.76-7.91-28.0901-5.16-27.9-2.94-42.1301-8.17-3.3398-1.23-22.5399-3.2599-35.75-21.81-8.7599-12.31-5.48-16.35-15.3099-30.06-4.22-5.88-12.7999-17.85-27.58-24.51-9.17-4.14-10.4399-1.6-39.8301-6.2-15.26-2.39-22.8999-3.59-29.6199-6.26-17.78-7.09-25.27-17.52-28.5901-15.12-3.83,2.77,7.96,15.27,6.13,33.78-1.7899,18.03-14.5199,21.84-12.26,36.91,1.12,7.43,4.3199,7.18,8.4301,22.25,3.3,12.09,2.73,17.76,2.29,20.49-1.0901,6.84-3.4102,8.1-5.3601,14.69-3.53,11.99-.29,22.92.77,26.47,5.8301,19.61,23.37,27.93,22.21,29.5-1.21,1.63-21.72-5.72-30.6399-23.75-1.1801-2.39-5.5601-11.52-4.5901-22.98.5801-6.86,2.47-7.25,3.8301-16.85,1.01-7.15,2.05-14.51-.77-22.4901-2.6001-7.34-5.42-6.56-7.66-13.5099-2.5199-7.82-.9401-14.95.77-22.21,2.9301-12.47,5.98-12.35,7.66-20.54,2.76-13.46-2.4-28.85-12.26-38.44-3.1801-3.1-11.6001-11.3-20.6801-9.7-7.4401,1.32-7.64,7.86-18.38,12.76-5.24,2.4-10.1399,2.88-19.9199,3.83-9.5901.94-11.42.08-20.6801.77-12.65.94-19.0699,1.28-22.98,4.14-13.08,9.56-12.4801,31.14-9.1901,43.35,2.8101,10.41,6.76,10.95,7.66,20.68.9801,10.45-3.2999,12.79-4.59,26.95-.8301,9.05-1.64,17.92,3.0601,26.83,6.6199,12.55,19.96,17.22,22.98,18.28,6.49,2.27,6.9099.66,18.3799,3.38,10.5601,2.5,16.2001,3.84,22.2101,8.05,2.5699,1.79,12.14,8.7,15.3199,21.45,2.6001,10.39-.4299,19.11-1.53,22.14-5.2999,14.62-15.03,15.09-16.8499,25.35-2.6101,14.7,15,27.16,13.0199,29.1-1.7001,1.68-16.59-5.77-21.4501-19.91-.7899-2.33-3.3499-10.74,0-19.92,4.4701-12.24,14.2401-11.6,16.8601-21.45,2.73-10.28-4.48-23.97-13.79-27.57-5.74-2.21-7.8,1.13-19.9199,0-3.6201-.34-10.9601-1.02-18.3801-4.6-12.9399-6.23-17.73-17.23-19.9099-16.02-1.76.97,1.86,7.71,3.0601,19.85.5399,5.5,1.26,13.59-1.53,22.98-2.8101,9.42-7.8,15.6-10.73,19.15-6.52,7.92-13.3301,12.21-18.3801,15.32-10.2899,6.35-13.96,5.94-21.45,9.96-20.1799,10.82-26.25,31.36-27.5701,30.64-1.49-.82,4.2001-28.07,25.28-41.36,8.7001-5.49,13.04-4.2,23.74-12.26,6.2001-4.67,14.49-11.08,18.3801-22.21,2.8199-8.05,2.2-15.29,1.5399-22.98-.65-7.57-1.84-9.47-3.83-19.09-3.66-17.64-5.97-28.73-3.0701-41.23,2.41-10.38,6.0701-11.66,5.3601-19.34-.92-10.13-8.4102-20.39-14.55-19.95-4.28.3-4.2,5.55-12.25,12.29-1.98,1.66-9.22,7.71-19.15,9.19-10.84,1.61-15.27-3.65-20.6801,0-4.21,2.84-5.1899,8.49-6.1299,13.93-1.5,8.65,1.28,10.02,0,18.24-1.3701,8.84-5.8101,15.22-7.66,17.62-4.4,5.71-6.39,4.87-9.1901,9.25-6.48,10.11-1,22.61-2.3,22.92-1.5299.36-11.46-16.51-5.3599-28.34,2.6699-5.19,6.1299-4.95,10.76-12.86,2.58-4.4,6.28-10.72,3.7899-16.25-1.7599-3.91-6.75-7.72-10.72-6.7-7.58,1.94-2.76,19.23-14.5599,30.45-7.24,6.88-12.24,3.39-20.6801,10.78-12.03,10.53-11.72,26.2401-13.02,25.98-1.62-.32-4.18-25.46,9.9601-37.53,8.3499-7.12,15.3199-3.54,22.21-11.54,7.09-8.22,1.79-14.38,8.5599-26.06,7.7301-13.32,22.2101-18.36,24.38-19.08,9.02-3,10.99-.22,23.74-3.83,5.7-1.61,12.29-3.54,19.15-8.46,8.4701-6.07,12.63-13.31,16.09-19.31,4.15-7.22,9.5801-16.66,9.95-30,.1702-5.99.55-19.39-7.6499-27.76-.88-.89-.62-.46-9.96-8.64-3.5-3.06-5.54-4.88-6.8101-6.04-1.47-1.37-1.9099-1.86-2.38-2.45-5.9301-7.32-4-11.48-7.66-13.77-6.2999-3.93-21.28,2.58-27.58,13.62-5.08,8.91-.38,13.56-6.13,23.92-2.88,5.2-6.8101,8.49-14.55,14.86-11.4299,9.4-14.8099,9.48-21.45,15.04-16.05,13.45-18.21,31.41-19.9099,30.83-1.8701-.64-1.1602-22.99,13.0199-38.7.89-.99.28-.23,17.75-16.21,10.03-9.17,12.5-11.49,14.4601-15.98.6799-1.54,5.7899-13.65,0-22.31-6.6201-9.92-23.3801-9.16-32.97-6.37-5.1001,1.47-4.7001,2.52-25.2801,16.62-14.53,9.96-16.8,10.86-20.68,15.58-6.34,7.7-8.75,15.55-10.73,21.96-5.01,16.26-.34,20.85-6.89,31.4-3.27,5.27-5.43,6.14-11.49,15.29-6.21,9.38-9.54,14.41-10.72,21.48-1.08,6.46.87,7.28,3.06,22.78,1.69,11.96,2.61,18.43,1.53,26.4-.61,4.53-2.11,15.64-9.95,25.04-12.17,14.58-32.72,16.81-33.71,14.63-1.07-2.37,21.71-7.97,29.11-27.58,3.4-9,2.74-18.79,2.3-25.27-.81-12.02-3.63-13.84-3.83-25.39-.11-6.04-.25-14.57,3.83-23.67,4.35-9.72,8.51-8.91,13.79-19.31,2.94-5.81,8.16-16.12,3.83-25.16-3.93-8.19-13.44-10.62-15.32-11.1-12.21-3.13-23.07,3.44-27.58,6.26-16.99,10.61-13.22,21.62-30.64,36.94-10.74,9.45-21.61,13.56-31.4,17.27-19.67,7.44-38.62,9.12-39.06,7.39-.53-2.04,24.56-8.39,49.78-24.66,7.63-4.92,13.7-9.73,19.15-16.56,2.89-3.62,2.89-4.41,9.44-13.81,7.21-10.38,10.89-15.6201,14.31-17.7401,4.87-3.02,6.34-1.46,20.68-4.13,7.81-1.45,15.68-2.91,24.51-6.59,7.79-3.24,12.79-6.74,21.44-12.78,7.5-5.24,13.46-9.47,19.66-16.84,6.86-8.14,8.22-13.21,8.68-15.69.39-2.04,1.2401-6.87-.5099-12.39-1.48-4.72-3.4-5.3-7.14-11.24-5.12-8.1-3.81-10.59-8.17-17.36-1.61-2.49-3.29-4.47-10.73-11.23-13.79-12.54-20.63-19.09-25.53-19.92-2.23-.38-15.87-2.69-24.51,6.13-5.82,5.94-6.46,13.95-6.64,16.19-.67,8.33,2.9,10.2,2.55,18.02-.42,9.77-6.41,16.83-8.17,18.9-9.67,11.4-23.34,12.5-26.55,12.76-15.68,1.27-28.46-6.86-28.08-8.17.39-1.37,15.12,5.38,32.69,0,4.75-1.45,12.51-3.95,16.84-11.23,3.88-6.54,3.23-13.94,3.06-15.83-.67-7.62-3.79-8.3-3.57-14.45.07-2,.46-3.56,6.12-15.17,5.5-11.25,6.61-12.8,6.13-15.83-.47-2.95-3.03-5.71-8.17-11.23-5.86-6.31-7.26-6.35-11.23-11.24-2.64-3.23-5.32-6.58-7.15-11.7401-.96-2.71-2.97-8.34-1.53-14.81.78-3.56,1.85-3.95,5.1-11.23,1.6-3.58,2.51-6.1,4.08-10.47,6.02-16.6801,8.13-29.27,9.2-29.11,1.15.18,1.5,15.16-3.06,32.34-3.59,13.49-6.25,13.46-6.13,19.75.34,18.8,24.36,32.89,32.17,37.47,14.01,8.22,15.3,4.43,29.11,12.27,15.29,8.68,24.75,19.61,36.7599,33.74,19.54,22.96,16.38,27.19,26.04,31.75,10.0299,4.74,12.1-.43,52.85-2.67,16.65-.91,23.53-.44,29.11-6.14,6.4-6.52,2.4401-12.33,10.7201-22.94,5.6799-7.27,8.8799-6.28,16.0898-15.82,4.7101-6.24,4.6602-8.41,8.6802-11.24,6.5698-4.61,10.45-1.44,16.3398-5.61,5.73-4.06,8.73-11.79,8.17-18.35-.2599-3.03-1.3099-6.28-8.17-14.85-10.74-13.42-13.98-12.72-24.51-25.02-5.9399-6.93-8.4299-11.27-15.3199-14.81-3.13-1.6-7.98-4.09-12.7599-2.55-4.55,1.47-6.0901,5.62-11.2401,15.83-6.38,12.67-9.5699,19-13.7899,24-2.8101,3.34-8.3501,9.76-17.8701,13.79-3.8199,1.61-15.4199,5.86-28.08,2.08-10.3199-3.08-9.88-8.07-19.92-10.32-10.44-2.34-12.54,2.7-21.96,0-8.35-2.4-14.02-8.47-19.4-14.23-6.53-6.99-5.49-8.64-10.21-12.77-11.25-9.81-26.05-8.24-26.05-8.68.08-.6,27.04-3.97,37.79,10.22,2.77,3.65,3.59,7.31,8.68,11.23,6.52,5.01,13.6,5.49,15.83,5.62,3.25.18,11.6.63,13.28-3.07,1.67-3.7-5.4301-6.91-8.6801-16.85-1.89-5.76-1.43-10.9901-.5099-21.44.91-10.4,2.44-11.89,1.53-17.37-.69-4.17-2.49-8.78-7.66-15.3101-12.62-15.95-28.6-22.21-28.6-22.47.19-.35,43.25,12.37,45.96,35.74.55,4.77-.91,7.06-1.02,26.04-.05,8.0699.19,12.54,2.04,17.8799.6,1.71,2.91,8.01,8.68,14.29,3.7699,4.11,11.0199,12.01,22.47,12.77,8.87.59,15.4801-3.42,17.36-4.6,6.52-4.07,9.75-9.69,13.28-15.83,3.37-5.86,2.48-6.29,6.64-14.29,3.0499-5.87,5.66-10.91,10.21-16.34,6.86-8.2,10.37-8.06,11.75-13.28.9601-3.65-.3099-5.43-3.0699-15.32-1.16-4.16-3.74-13.42-4.5901-20.94-.99-8.66.3-15.21,1.7001-22.29,3.25-16.51,8.34-21.22,8.51-35.75.08-6.64-.9301-10.32-3.41-12.93-2.54-2.7-6.12-3.39-13.27-4.77-5.4099-1.05-9.86-1.91-15.3199-1.36-6.65.66-9.55,3.5-16,5.45-15.5599,4.6801-23.35,7.02-30.3,5.44-9.13-2.0699-17.5699-8.78-22.13-16.34-3.58-5.95-2.84-9.25-7.83-15.32-5.94-7.23-12.39-9.12-11.91-10.21.59-1.36,11.46-.59,17.36,6.47,3.8199,4.56,1.8799,7.37,5.45,13.61,3.8,6.67,10.7701,11.83,18.0401,13.62,5.98,1.48,11.0199.19,21.1099-2.38,9.26-2.36,10.4601-4.13,20.0801-6.13,7.02-1.46,10.52-2.19,14.98-1.7,4.26.47,6.47,1.58,17.02,3.4,3.3999.59,6.33,1.02,8.85-.68,2.49-1.67,3.25-4.53,3.41-5.1.34-1.27.52-3.01-1.02-8.51-.96-3.41-1.89-5.81-2.39-7.15-.37-1.01-2.9301-7.9-3.74-12.26-1.6-8.56,1.85-16.05,3.4-19.4,3.36-7.28,8.1-11.57,11.58-14.64,3.9401-3.5,7.33-5.44,13.9501-9.19,12.4299-7.04,14.1199-6.06,19.4099-10.22,9.8701-7.76,12.27-17.6801,12.9301-17.36.84.41-1.84,16.63-13.9501,25.19-6.83,4.83-9.83,2.39-18.0499,8.17-8.4701,5.96-12.5599,13.67-14.29,17.03-2.9301,5.66-6.0299,11.67-5.11,19.06.85,6.82,4.24,7.67,6.8101,15.32,2.5,7.43,1.6499,13.59,0,24.51-1.47,9.74-2.8201,10.86-7.1501,27.91-4.1199,16.25-4.8198,22.81-5.1099,26.56-.23,3.1-1.54,21.92,3.0699,23.15,1.6801.44,2.4701-1.9,7.15-4.43,5.36-2.9,7.6799-1.63,13.61-3.74,6.34-2.26,10.4-6.09,12.6-8.17,4.5-4.26,6.76-8.4,9.1899-12.94,5.8301-10.89,5.7201-16.81,10.8901-28.2599,1.3199-2.92,2.33-5.97,3.75-8.85,1.5599-3.17,2.4199-4.39,2.3799-6.46-.0499-2.78-1.6299-4.17-3.0599-6.81-1.84-3.4-2.02-6.29-2.39-11.92-.35-5.47-.72-11.3,2.39-17.7,2.5699-5.29,6.3099-8.48,8.17-9.87,1.4299-1.08,4.4299-3.29,8.85-4.43,5.64-1.45,6.91.57,10.5499-1.02,4.8501-2.11,3.74-6.17,8.5701-8.85,5.28-2.94,11.6-.87,14.24,0,4.7,1.54,9.27,4.66,8.85,5.79-.5599,1.53-9.2799-3.59-18.0399,0-5.53,2.26-5.4102,5.67-11.92,8.17-5.88,2.25-7.4301.02-11.91,2.04-8.7,3.93-10.87,15.99-11.23,18.04-.52,2.88-2.13,11.86,2.72,18.04,1.8501,2.37,3.3401,2.65,6.13,6.47,3.37,4.63,2.99,6.69,5.1,7.49,3.7,1.41,9.1201-3.24,11.92-6.81,2.0499-2.61,2.1801-3.99,4.14-8.17,3.05-6.51,5.37-11.98,10.1599-15.32,6.1001-4.25,12.3801-4.35,17.02-4.42,7.54-.12,15.72,1.92,15.66,3.4-.12,2.67-26.5699-2.14-34.73,10.56-3.8099,5.93-.76,11.23-6.4701,17.67-3.1699,3.58-6.8999,5.09-12.9299,7.52-11.37,4.58-13.4199,1.97-18.38,5.44-2.34,1.64-3.7,3.49-11.24,22.81-5.23,13.41-5.17,14.03-7.15,17.7-2.79,5.19-6.6199,12.3-13.95,18.39-9.52,7.9-15.0901,5.88-18.73,12.59-3.98,7.35-.74,16.06,0,18.05,3.08,8.26,9.4199,12.29,11.58,13.61,2.5599,1.58,10.15,5.69,18.7201,4.09,7.0199-1.31,9.5299-5.48,18.8699-14.3,20.53-19.37,25.79-15.62,31.8501-27.23,3.53-6.75,4.3799-13.04,10.8999-20.09,2.9401-3.1801,5.5-5.95,9.8701-7.83,4.1199-1.77,6.1499-1.16,8.1699-3.4,2.5601-2.84.5901-5.24,3.0601-10.22,1.51-3.03,2.4299-2.5,6.1299-7.48,3.04-4.09,4.5601-6.1299,5.1101-9.2.8-4.48-.97-8.25-2.05-10.55-3.12-6.66-8.0701-9.58-7.8301-9.87.3201-.38,9.76,3.1,13.28,12.59.25.67,3.16,8.87-.6799,16-1.97,3.67-3.88,3.64-6.13,8.17-.42.85-4.16,8.41-1.36,11.24,2.05,2.07,6.59.61,9.53-.34,3.25-1.05,6.4199-2.77,11.24-6.81,4.1799-3.51,7-6.6,10.21-10.21,10-11.27,12.74-15.31,12.9399-15.17.47.34-10,29.98-33.71,38.28-13.71,4.8-21.71-1.09-30.63,6.52-7.87,6.7-4.0099,13.29-12.2599,25.86-4.1001,6.24-6.6001,6.97-26.55,22.51-24.53,19.12-26.0601,22.15-26.5601,25.37-2.36,15.36,19.5901,30.29,22.47,32.25,6.47,4.4,5.1101,1.65,30.6401,12.33,14.9399,6.25,20.1499,9.18,29.6199,9.28,3.02.03,10.26-.18,18.3801-3.7,3.1399-1.36,17.97-9.28,21.96-12.47,15.3199-12.26,27.49-47.61,30.6399-58.51.7101-2.49,3.6801-17.7599,19.4001-30.64,6.8099-5.58,8.8298-9.9,21.45-18.89,9.6699-6.9,12.47-14.43,16.34-20.43,1.12-1.74,4.9601-12.76-.51-26.55-2.62-6.6-5.98-6.16-13.2799-15.82-2.1201-2.81-9.5-12.57-12.25-24.42-4.3301-18.61,3.8699-37.54,7.1399-37.24,4.1899.4-4.11,31.96,14.3,50.11,6.96,6.85,12.47,6.61,17.36,15.14,5.84,10.17,4.24,21.38,3.0699,29.59-.86,5.97-2.5599,17.92-11.24,28.43-6.95,8.43-10.6899,6.62-22.46,15.81-5.66,4.41-18.52,15.54-26.5601,33.38-3.51,7.8-8.28,18.4-6.1299,31.66,1.58,9.65-4.4001,21.83,3.58,22.47,5.67.44,23.71,4.82,39.3199-8.17,8.3101-6.93,23.01-15.41,37.79-16.35,15.45-.97,31.9299.69,33.7,0,20.9301-8.17-10.22-32.17,15.8301-62.8,1.8799-2.22,12.2-5.99,28.59-13.79,24.24-11.54,29.37-14.9301,35.24-19.92,2.63-2.24,7.51-15.37,8.17-31.14.8099-19.68-18.1901-33.46-17.3601-34.2,1.0801-.95,35.3701,20.94,32.6801,48.49-1.48,15.05-13.41,26-17.37,29.62-5.8201,5.34-8.11,5.23-32.6799,18.67-19.99,10.94-23.5901,13.82-25.53,18.9-1.72,4.53-11.1201,6.26-8.6801,24.73,2.7201,20.55,12.7001,25.27,15.83,26.55,5.0701,2.08,13.26-4.32,29.79-14.64,3.74-2.33,13.9301-10.33,32-12.59,7.3501-.93,21.91-1.24,34.72,3.4,13.03,4.72,10.49,5.34,22.98,11.58,12.78,6.38,24.7301,10.07,37.9601,9.87,33.98-.53,55.63-17,56-16.09.58,1.45-53.42,39.42-90.9,21.53-9.38-4.47-14.02-10.68-29.6-15.43-7.76-2.37-24.26-7.17-40.86-.91-9.91,3.75-8.62,7.19-22.47,16.34-9.77,6.47-28.26,18.69-49.02,16.82-11.23-1.02-10.3501-5-27.5801-7.74-9-1.43-19.08-3.03-30.6399,0-7.0901,1.86-14.01,6.46-27.5701,15.58-20.39,13.72-21.72,17.23-29.62,18.24-11.4401,1.46-13.63-5.29-26.5499-4.47-12.6901.8101-27.8501,8.42-28.6001,17.89Z"/>
        <path class="cls-4" d="M360.137,5c.0113,0,.0221.0025.0326.0075.84.41-1.8399,16.63-13.95,25.19-6.83,4.83-9.83,2.39-18.05,8.17-8.47,5.96-12.5599,13.67-14.29,17.03-2.93,5.66-6.0299,11.67-5.11,19.06.85,6.82,4.24,7.67,6.8101,15.32,2.5,7.43,1.6499,13.59,0,24.51-1.47,9.74-2.8201,10.86-7.1502,27.91-4.1198,16.25-4.8198,22.81-5.1098,26.56-.23,3.1-1.5401,21.92,3.0699,23.15.1382.0362.2705.0536.3994.0536,1.4372,0,2.4558-2.1617,6.7506-4.4836,5.36-2.9,7.68-1.63,13.61-3.74,6.34-2.26,10.4-6.09,12.6-8.17,4.5-4.26,6.76-8.4,9.19-12.94,5.83-10.89,5.72-16.81,10.8901-28.26,1.3199-2.92,2.3299-5.97,3.75-8.85,1.5599-3.17,2.4199-4.39,2.3799-6.46-.05-2.78-1.6299-4.17-3.06-6.81-1.8399-3.4-2.02-6.29-2.39-11.92-.35-5.47-.72-11.3,2.39-17.7,2.57-5.29,6.31-8.48,8.1701-9.87,1.4299-1.08,4.4299-3.29,8.8499-4.43,1.703-.4378,3.0076-.5593,4.0992-.5593,1.3607,0,2.3907.1887,3.4492.1887.9049,0,1.8306-.1379,3.0016-.6494,4.8501-2.11,3.74-6.17,8.57-8.85,2.0355-1.1334,4.226-1.5223,6.3001-1.5223,3.3063,0,6.3176.9877,7.9399,1.5223,4.7,1.54,9.27,4.66,8.85,5.79-.0764.2089-.3054.2939-.6654.2939-1.5629,0-5.604-1.5989-10.4305-1.5992-2.2048-.0001-4.5722.3334-6.944,1.3054-5.53,2.26-5.4102,5.67-11.9201,8.17-2.5768.986-4.3222,1.1117-5.8468,1.1117-.5213,0-1.017-.0147-1.5112-.0147-1.3585,0-2.7065.1109-4.5519.943-8.6999,3.93-10.87,15.99-11.23,18.04-.52,2.88-2.13,11.86,2.72,18.04,1.8501,2.37,3.3401,2.65,6.13,6.47,3.37,4.63,2.99,6.69,5.1,7.49.4647.1771.9569.2586,1.4674.2586,3.5532,0,8.0045-3.9471,10.4526-7.0686,2.05-2.61,2.1801-3.99,4.14-8.17,3.0501-6.51,5.37-11.98,10.16-15.32,6.1-4.25,12.3801-4.35,17.02-4.42.2131-.0034.4272-.0051.6411-.0051,7.3552,0,15.0772,1.9669,15.0189,3.4051-.12,2.67-26.5699-2.14-34.73,10.56-3.8099,5.93-.76,11.23-6.4701,17.67-3.1699,3.58-6.8999,5.09-12.9299,7.52-11.37,4.58-13.4199,1.97-18.38,5.44-2.34,1.64-3.7,3.49-11.24,22.81-5.23,13.41-5.17,14.03-7.15,17.7-2.79,5.19-6.6199,12.3-13.95,18.39-9.52,7.9-15.09,5.88-18.73,12.59-3.9799,7.35-.7399,16.06,0,18.05,3.08,8.26,9.42,12.29,11.58,13.61,2.155,1.33,7.8756,4.4533,14.7435,4.4533,1.2907,0,2.6208-.1101,3.9766-.3633,7.0199-1.31,9.5299-5.48,18.8699-14.3,20.53-19.37,25.79-15.62,31.8501-27.23,3.53-6.75,4.3799-13.04,10.8999-20.09,2.94-3.18,5.5-5.95,9.8701-7.83,4.1199-1.77,6.1499-1.16,8.1699-3.4,2.5601-2.84.5901-5.24,3.0601-10.22,1.51-3.03,2.4299-2.5,6.1299-7.48,3.04-4.09,4.56-6.13,5.1101-9.2.8-4.48-.97-8.25-2.0501-10.55-3.12-6.66-8.07-9.58-7.83-9.87.0155-.0184.0527-.0278.1094-.0278,1.1129,0,9.8214,3.5883,13.1706,12.6178.25.67,3.16,8.87-.68,16-1.9699,3.67-3.88,3.64-6.13,8.17-.42.85-4.16,8.41-1.36,11.24.7639.7713,1.8741,1.0526,3.1178,1.0526,2.0941,0,4.5677-.7966,6.4123-1.3926,3.25-1.05,6.4199-2.77,11.24-6.81,4.1799-3.51,7-6.6,10.2099-10.21,9.8334-11.0822,12.6467-15.1735,12.9279-15.1735.0048,0,.0088.0012.0121.0035.47.34-10,29.98-33.71,38.28-13.71,4.8-21.71-1.09-30.63,6.52-7.87,6.7-4.0099,13.29-12.2599,25.86-4.1001,6.24-6.6001,6.97-26.55,22.51-24.5301,19.12-26.0601,22.15-26.5601,25.37-2.36,15.36,19.5901,30.29,22.47,32.25,6.47,4.4,5.1101,1.65,30.6401,12.33,14.9399,6.25,20.1499,9.18,29.6199,9.28.1445.0014.2987.0023.4622.0023,3.2527,0,10.1864-.3508,17.9179-3.7023,3.1399-1.36,17.97-9.28,21.96-12.47,15.3199-12.26,27.49-47.61,30.6399-58.51.71-2.49,3.68-17.76,19.4001-30.64,6.8099-5.58,8.8299-9.9,21.45-18.89,9.6699-6.9,12.4699-14.43,16.3399-20.43,1.12-1.74,4.9601-12.76-.51-26.55-2.62-6.6-5.98-6.16-13.2799-15.82-2.1201-2.81-9.5-12.57-12.25-24.42-4.296-18.4635,3.7419-37.2435,7.0622-37.2435.0263,0,.052.0012.0777.0035,4.19.4-4.11,31.96,14.3,50.11,6.96,6.85,12.47,6.61,17.36,15.14,5.84,10.17,4.24,21.38,3.07,29.59-.86,5.97-2.56,17.92-11.24,28.43-6.95,8.43-10.69,6.62-22.46,15.81-5.66,4.41-18.52,15.54-26.56,33.38-3.51,7.8-8.28,18.4-6.1299,31.66,1.5799,9.65-4.4001,21.83,3.5799,22.47,2.3758.1844,6.9252,1.0606,12.5557,1.0606,7.8073,0,17.695-1.6835,26.7643-9.2307,8.31-6.93,23.01-15.41,37.79-16.35,3.6777-.2309,7.4153-.3128,10.9974-.3128,8.7293,0,16.5436.486,20.3723.486,1.2005,0,2.0083-.0477,2.3303-.1732,20.93-8.17-10.22-32.17,15.8301-62.8,1.8799-2.22,12.1999-5.99,28.5899-13.79,24.24-11.54,29.37-14.93,35.24-19.92,2.63-2.24,7.51-15.37,8.1701-31.14.8099-19.68-18.1901-33.46-17.3601-34.2.0226-.0199.06-.0298.1111-.0298,2.3887,0,35.2028,21.5466,32.569,48.5198-1.48,15.05-13.41,26-17.37,29.62-5.82,5.34-8.11,5.23-32.6799,18.67-19.99,10.94-23.5901,13.82-25.5301,18.9-1.7199,4.53-11.12,6.26-8.68,24.73,2.7201,20.55,12.7001,25.27,15.83,26.55.6436.2641,1.338.3915,2.0929.3915,5.1914,0,13.2656-6.0216,27.6971-15.0315,3.74-2.33,13.93-10.33,32-12.59,2.5127-.3179,5.8685-.5634,9.7084-.5634,7.3926,0,16.5808.9096,25.0116,3.9634,13.03,4.72,10.49,5.34,22.98,11.58,12.45,6.2153,24.1127,9.8777,36.9381,9.8777.3399,0,.6803-.0026,1.0219-.0077,33.0654-.5157,54.4558-16.1264,55.9243-16.1264.0406,0,.0658.0119.0757.0364.4698,1.1745-34.8734,26.3113-68.238,26.3113-7.8264,0-15.5407-1.3821-22.662-4.7813-9.38-4.47-14.02-10.68-29.6-15.43-4.9376-1.508-13.4165-3.9998-23.2054-4.0003-5.5954-.0003-11.617.8135-17.6546,3.0903-9.91,3.75-8.62,7.19-22.4699,16.34-9.0879,6.0182-25.7226,17.0124-44.709,17.0124-1.4252,0-2.8615-.0618-4.3111-.1924-11.2299-1.02-10.35-5-27.58-7.74-5.241-.8327-10.8497-1.7231-16.9022-1.7233-4.341,0-8.9095.4578-13.7377,1.7233-7.0901,1.86-14.01,6.46-27.5701,15.58-20.39,13.72-21.72,17.23-29.62,18.24-1.1228.1433-2.1575.2076-3.1209.2076-8.2871,0-11.3807-4.7469-21.2986-4.7469-.6776,0-1.3852.0221-2.1304.0694-12.6901.81-27.8501,8.42-28.6001,17.89-.6799,8.67.97,24.44,5.3701,27.22,3.5257,2.2309,7.2166,2.972,11.0481,2.972,7.573,0,15.702-2.8932,24.2202-2.8932,3.7472,0,7.5677.5594,11.4517,2.1713,13.53,5.62,12.4499,9.84,30.6399,18.35,11.42,5.34,17.1201,8.01,24.51,8.24.3762.0118.7459.0176,1.1072.0176,15.2136,0,17.5079-10.2703,36.6728-13.3276,2.5597-.4071,7.2117-1.1482,12.8665-1.1482,7.4017,0,16.5221,1.2692,24.9235,6.2182,7.3701,4.3381,10.5809,9.3904,16.1261,9.3904.3987,0,.8086-.0261,1.2339-.0804,7.1601-.91,7.78-8.46,16.34-10.3,1.0905-.2338,2.1015-.3303,3.0493-.3303,4.4823,0,7.5477,2.1584,10.896,2.1584,1.0919,0,2.2137-.2294,3.4248-.8381,4.77-2.4,3.85-7.13,8.17-11.8,4.7487-5.1368,12.1518-6.2131,18.3481-6.2131,2.7419,0,5.2463.2105,7.182.3731,14.8199,1.24,17.1199,7.26,36.76,13.59,9.2941,2.9937,17.385,5.6012,26.4919,5.6012,1.3579,0,2.7375-.0579,4.148-.1812,22.5152-1.957,35.9168-19.0641,37.6583-19.0641.0561,0,.0999.0176.1317.0541.77.89-6.1699,12.24-17.59,20.93-7.25,5.53-16.3099,9.99-26.3299,10.02-.0336,0-.0688.0001-.1024.0001-9.9822,0-22.2848-4.3527-24.4076-5.1002-9.4001-3.33-11.8901-5.97-21.4301-8.21-4.6864-1.0986-9.0683-2.1285-13.0857-2.1285-3.0035,0-5.8033.5756-8.3743,2.1285-6.28,3.79-3.98,9.04-10.21,13.34-2.7356,1.8814-5.2198,2.2748-7.8253,2.2748-1.8714,0-3.8053-.2028-5.9411-.2028-2.7933,0-5.931.3469-9.7235,1.948-2.03.85-11.02,4.65-13.28,12.29-2.55,8.63,4.8801,17.46,10.21,23.79,13.4301,15.94,30.27,22.35,35.75,24.25,13.8117,4.8045,25.822,5.5021,33.7738,5.5021,3.2532,0,5.8274-.1168,7.5677-.1168,1.6378,0,2.5365.1033,2.5687.5046.1184,1.4025-7.5681,4.2836-20.4769,4.2836-6.696,0-14.7964-.7749-23.9432-2.9335-8.8199-2.08-32.02-8.16-42.9-22.47-9.6599-12.72-8.97-7.75-19.3999-21.79-1.7001-2.28-10.1601-26.29-29.1101-27.36-3.3539-.1877-6.0503-2.2588-12.43-2.2588-3.8159,0-8.9494.7408-16.33,3.0688-10.74,3.39-18.51,6.88-23.96,9.38-4.6809,2.1475-7.6577,3.5604-9.3473,3.5604-.0177,0-.0352-.0001-.0527-.0004-16.15-.33-15.62-8.03-43.0699-17.83-7.0803-2.5357-17.0292-6.0909-25.1757-6.0912-4.2224-.0002-7.9597.9546-10.5643,3.5012-1.0701,1.05-17.8201,8.64-19.1501,21.78-1.73,17.02,12.47,20.04,15.06,25.02.53,1.02,1.15,1.96,1.8601,2.84,7.1399,8.95,23.22,11.07,47.1599,14.22,21.72,2.86,23.25.03,34.73,4.04,4.68,1.64,21.72,7.84,34.72,24.08,11.73,14.64,11.51,26.61,20.43,28.16,4.96.858,7.5446,4.9818,14.647,4.9818,1.5894,0,3.4036-.2062,5.5229-.7017,1.5596-.3698,8.0048-3.7705,19.3823-3.7705,2.7755,0,5.8445.2024,9.2077.7005,16.63,2.46,19.61,2.21,32.1701,4.34,4.8536.827,10.9022,2.9879,19.3379,2.9879,3.2959,0,6.9558-.3298,11.052-1.1979,24.4244-5.1738,37.9951-28.9328,39.7249-28.9328.0422,0,.0771.014.1052.0428,1.5301,1.57-18.05,35.58-49.03,39.83-2.5798.3534-5.2373.4998-7.8885.4998-8.6021,0-17.1384-1.5408-22.7415-2.5497-13.5617-2.4365-20.5757-5.8212-29.6546-5.8215-1.9135,0-3.9177.1503-6.0954.4915-7.37,1.15-19.08,4.86-19.4,10.05-.5,7.86,25.32,15.41,30.6401,16.96,14.4099,4.22,18.0199,2.6,32.6799,5.83,13.69,3.02,28.85,6.37,40.86,16.41,20.58,17.21,23.29,46.88,20.4101,48.15-.0575.0253-.1159.0378-.1745.0378-3.0246,0-7.6018-33.1091-35.3156-46.6177-7.49-3.65-21.3301-5.08-36.76-7.91-28.0901-5.16-27.9001-2.94-42.1301-8.17-3.3399-1.23-22.54-3.26-35.75-21.81-8.76-12.31-5.48-16.35-15.31-30.06-4.22-5.88-12.7999-17.85-27.58-24.51-9.17-4.14-10.4399-1.6-39.83-6.2-15.26-2.39-22.8999-3.59-29.6199-6.26-16.0046-6.382-23.6722-15.4703-27.4653-15.4713-.4208-.0001-.7933.1116-1.1248.3513-3.83,2.77,7.96,15.27,6.13,33.78-1.7899,18.03-14.5199,21.84-12.26,36.91,1.12,7.43,4.32,7.18,8.43,22.25,3.3001,12.09,2.73,17.76,2.2901,20.49-1.0901,6.84-3.4101,8.1-5.3601,14.69-3.53,11.9901-.29,22.92.77,26.47,5.8301,19.61,23.37,27.93,22.21,29.5-.1089.1467-.3743.2206-.773.2206-4.0339,0-21.7495-7.5627-29.8668-23.9706-1.1801-2.39-5.5601-11.52-4.5901-22.98.5801-6.86,2.47-7.25,3.8301-16.85,1.01-7.15,2.05-14.51-.7701-22.49-2.6-7.34-5.42-6.56-7.66-13.51-2.5199-7.82-.94-14.95.77-22.21,2.9301-12.47,5.98-12.35,7.6601-20.54,2.76-13.46-2.4001-28.85-12.2601-38.44-2.9019-2.8289-10.1677-9.9046-18.3162-9.9048-.781,0-1.5697.0649-2.3638.2048-7.44,1.32-7.64,7.86-18.38,12.76-5.24,2.4-10.1399,2.88-19.9199,3.83-4.2887.4203-7.0266.4808-9.57.4808-1.0244,0-2.0171-.0098-3.0675-.0098-2.1734,0-4.5917.0419-8.0427.299-12.65.94-19.0699,1.28-22.98,4.14-13.0799,9.56-12.4801,31.14-9.19,43.35,2.81,10.41,6.76,10.95,7.66,20.68.9801,10.45-3.2999,12.79-4.59,26.95-.83,9.05-1.64,17.92,3.0601,26.83,6.6199,12.55,19.96,17.22,22.98,18.28,6.49,2.27,6.9099.66,18.3799,3.38,10.56,2.5,16.2,3.84,22.21,8.05,2.57,1.79,12.1401,8.7,15.32,21.45,2.6001,10.39-.4299,19.11-1.53,22.14-5.3,14.62-15.03,15.09-16.8499,25.35-2.6101,14.7,15,27.16,13.0199,29.1-.1583.1565-.4314.2338-.7998.2338-3.5872,0-16.2429-7.3208-20.6502-20.1438-.79-2.33-3.3499-10.74,0-19.92,4.47-12.24,14.24-11.6,16.86-21.45,2.73-10.28-4.4799-23.97-13.79-27.57-1.4935-.575-2.7384-.7743-3.9757-.7744-2.7929-.0001-5.5497,1.015-11.054,1.015-1.4289,0-3.0423-.0684-4.8902-.2407-3.6201-.34-10.9601-1.02-18.3801-4.6-12.275-5.9099-17.2162-16.112-19.5525-16.1121-.1266,0-.2455.0299-.3575.0921-1.76.97,1.86,7.71,3.0601,19.85.5399,5.5,1.26,13.59-1.53,22.98-2.8101,9.42-7.8001,15.6-10.73,19.15-6.52,7.92-13.3301,12.21-18.3801,15.32-10.29,6.35-13.96,5.94-21.45,9.96-19.8338,10.6344-26.0376,30.6584-27.4979,30.6584-.0255,0-.0495-.0061-.0721-.0184-1.49-.82,4.2-28.07,25.28-41.36,8.7-5.49,13.04-4.2,23.74-12.26,6.2-4.67,14.49-11.08,18.3801-22.21,2.8199-8.05,2.1999-15.29,1.5399-22.98-.65-7.57-1.84-9.47-3.83-19.09-3.66-17.64-5.9699-28.73-3.07-41.23,2.41-10.38,6.07-11.66,5.3601-19.34-.901-9.9192-8.1019-19.963-14.1657-19.9637-.1289,0-.2566.0045-.3844.0137-4.28.3-4.1999,5.55-12.25,12.29-1.9799,1.66-9.2199,7.71-19.15,9.19-1.5125.2246-2.9005.3156-4.1834.3156-5.44,0-8.9977-1.6339-12.2026-1.6341-1.4565-.0001-2.8394.3372-4.294,1.3185-4.21,2.84-5.19,8.49-6.1299,13.93-1.5,8.65,1.28,10.02,0,18.24-1.3701,8.84-5.8101,15.22-7.6601,17.62-4.4,5.71-6.39,4.87-9.19,9.25-6.48,10.11-1,22.61-2.3001,22.92-.0161.0038-.0332.0057-.051.0057-1.6857,0-11.3448-16.6398-5.3087-28.3456,2.6699-5.19,6.1299-4.95,10.76-12.86,2.5799-4.4,6.28-10.72,3.7899-16.25-1.5632-3.473-5.6757-6.8671-9.3574-6.8676-.4632,0-.9189.0536-1.3626.1676-7.5799,1.94-2.76,19.23-14.5599,30.45-7.24,6.88-12.24,3.39-20.6801,10.78-11.9309,10.4432-11.7245,25.9832-12.9884,25.9832-.0105,0-.0209-.001-.0316-.0032-1.62-.32-4.18-25.46,9.9601-37.53,8.3499-7.12,15.3199-3.54,22.21-11.54,7.0899-8.22,1.79-14.38,8.5599-26.06,7.7301-13.32,22.2101-18.36,24.38-19.08,9.02-3,10.99-.22,23.74-3.83,5.7-1.61,12.29-3.54,19.15-8.46,8.4701-6.07,12.63-13.31,16.09-19.31,4.15-7.22,9.5801-16.66,9.9499-30,.1702-5.99.5501-19.39-7.6499-27.76-.88-.89-.62-.46-9.9599-8.64-3.5-3.06-5.5401-4.88-6.8101-6.04-1.47-1.37-1.9099-1.86-2.38-2.45-5.93-7.3199-4-11.48-7.66-13.77-1.2566-.7839-2.8591-1.1524-4.6686-1.1525-7.2625-.0002-17.868,5.9346-22.9114,14.7725-5.0799,8.91-.38,13.56-6.13,23.92-2.88,5.2-6.81,8.49-14.55,14.86-11.43,9.4-14.81,9.48-21.45,15.04-15.7963,13.2374-18.1383,30.8437-19.8289,30.8437-.0272,0-.0541-.0045-.081-.0137-1.8701-.64-1.1601-22.99,13.0199-38.7.89-.99.28-.23,17.75-16.21,10.03-9.17,12.5-11.49,14.4601-15.98.6799-1.54,5.7899-13.65,0-22.31-4.1052-6.1516-12.1119-8.1962-19.8879-8.1966-4.7635-.0002-9.4391.7667-13.0821,1.8266-5.1001,1.47-4.7001,2.52-25.2801,16.62-14.53,9.96-16.8,10.86-20.68,15.58-6.34,7.7-8.75,15.55-10.73,21.96-5.01,16.26-.34,20.85-6.89,31.4-3.27,5.27-5.43,6.14-11.49,15.29-6.21,9.38-9.54,14.41-10.72,21.48-1.08,6.46.87,7.28,3.06,22.78,1.69,11.96,2.61,18.43,1.53,26.4-.61,4.53-2.11,15.64-9.95,25.04-9.6363,11.5446-24.5273,15.3465-30.8012,15.3465-1.6496,0-2.7027-.2626-2.9088-.7165-1.07-2.37,21.71-7.97,29.11-27.58,3.4-9,2.74-18.79,2.3-25.27-.81-12.02-3.63-13.84-3.83-25.39-.11-6.04-.25-14.57,3.83-23.67,4.35-9.72,8.51-8.91,13.79-19.31,2.94-5.81,8.16-16.12,3.83-25.16-3.93-8.19-13.44-10.62-15.32-11.1-2.2596-.5792-4.4741-.8262-6.6095-.8264-9.4037-.0004-17.2952,4.7883-20.9705,7.0864-16.99,10.61-13.22,21.62-30.64,36.94-10.74,9.45-21.61,13.56-31.4,17.27-15.0526,5.6935-29.685,8.0142-35.9217,8.0142-1.9131,0-3.035-.2181-3.1383-.6242-.53-2.04,24.56-8.39,49.78-24.66,7.63-4.92,13.7-9.73,19.15-16.56,2.89-3.62,2.89-4.41,9.44-13.81,7.21-10.38,10.89-15.62,14.31-17.74,4.87-3.02,6.34-1.46,20.68-4.13,7.81-1.45,15.68-2.91,24.51-6.59,7.79-3.24,12.79-6.74,21.44-12.78,7.5-5.24,13.46-9.47,19.66-16.84,6.86-8.14,8.22-13.21,8.68-15.69.39-2.04,1.24-6.87-.51-12.39-1.48-4.72-3.4-5.3-7.14-11.24-5.12-8.1-3.81-10.59-8.17-17.36-1.61-2.49-3.29-4.47-10.73-11.23-13.79-12.54-20.63-19.09-25.53-19.92-.8327-.1419-3.2578-.5529-6.418-.553-5.3029-.0002-12.6783,1.1565-18.092,6.683-5.82,5.94-6.46,13.95-6.64,16.19-.67,8.33,2.9,10.2,2.55,18.02-.42,9.77-6.41,16.83-8.17,18.9-9.67,11.4-23.34,12.5-26.55,12.76-1.1293.0914-2.2439.1342-3.3393.1342-14.1137,0-25.0934-7.0885-24.7407-8.3042.0373-.1312.2066-.1879.4968-.1879,1.85,0,8.6339,2.3023,17.7327,2.3023,4.3811,0,9.2969-.5333,14.4604-2.1144,4.75-1.45,12.51-3.95,16.84-11.23,3.88-6.54,3.23-13.94,3.06-15.83-.67-7.62-3.79-8.3-3.57-14.45.07-2,.46-3.56,6.12-15.17,5.5-11.25,6.61-12.8,6.13-15.83-.47-2.95-3.03-5.71-8.17-11.23-5.86-6.31-7.26-6.35-11.23-11.24-2.64-3.23-5.32-6.58-7.15-11.74-.96-2.71-2.97-8.34-1.53-14.81.78-3.56,1.85-3.95,5.1-11.23,1.6-3.58,2.51-6.1,4.08-10.47,5.9818-16.5741,8.1032-29.1115,9.1797-29.1115.0069,0,.0135.0005.0203.0015,1.15.18,1.5,15.16-3.06,32.34-3.59,13.49-6.25,13.46-6.13,19.75.34,18.8,24.36,32.89,32.17,37.47,14.01,8.22,15.3,4.43,29.11,12.27,15.29,8.68,24.75,19.61,36.76,33.74,19.54,22.96,16.38,27.19,26.04,31.75,2.9673,1.4023,5.2384,1.9373,8.02,1.9373,6.6207,0,16.1354-3.03,44.83-4.6073,16.65-.91,23.53-.44,29.11-6.14,6.4-6.52,2.4401-12.33,10.7201-22.94,5.6799-7.27,8.8799-6.28,16.0898-15.82,4.7101-6.24,4.6602-8.41,8.6802-11.24,6.5698-4.61,10.45-1.44,16.3399-5.61,5.7299-4.06,8.7299-11.79,8.17-18.35-.2599-3.03-1.3099-6.28-8.17-14.85-10.74-13.42-13.98-12.72-24.51-25.02-5.94-6.93-8.43-11.27-15.32-14.81-2.4386-1.2466-5.922-3.0334-9.6022-3.0336-1.0434,0-2.1019.1435-3.1577.4836-4.55,1.47-6.0901,5.62-11.2401,15.83-6.38,12.67-9.57,19-13.7899,24-2.8101,3.34-8.3501,9.76-17.8701,13.79-2.7044,1.1398-9.3089,3.6029-17.4274,3.6029-3.3492,0-6.9552-.4189-10.6526-1.5229-10.3199-3.08-9.88-8.07-19.92-10.32-2.0792-.466-3.828-.6393-5.3693-.6394-4.4719,0-7.2009,1.4586-11.2074,1.4586-1.5464,0-3.2824-.2171-5.3833-.8193-8.35-2.4-14.02-8.47-19.4-14.23-6.53-6.99-5.49-8.64-10.21-12.77-11.25-9.81-26.05-8.24-26.05-8.68.0284-.2133,3.4554-.7767,8.3414-.7767,8.8592,0,22.5199,1.8508,29.4486,10.9967,2.77,3.65,3.59,7.31,8.68,11.23,6.52,5.01,13.6,5.49,15.83,5.62.8837.049,2.1448.1179,3.546.1179,3.752,0,8.5108-.4939,9.734-3.1879,1.67-3.7-5.43-6.91-8.68-16.85-1.89-5.76-1.43-10.99-.51-21.44.91-10.4,2.44-11.89,1.53-17.37-.69-4.17-2.49-8.78-7.66-15.31-12.62-15.95-28.6-22.21-28.6-22.47.0025-.0047.0129-.007.0306-.007,1.3035,0,43.2557,12.6894,45.9294,35.747.55,4.77-.91,7.06-1.02,26.04-.05,8.07.19,12.54,2.04,17.88.6,1.71,2.91,8.01,8.68,14.29,3.7699,4.11,11.0199,12.01,22.47,12.77.6015.04,1.1935.0589,1.7735.0589,7.9722,0,13.8341-3.5589,15.5865-4.6589,6.52-4.07,9.75-9.69,13.28-15.83,3.37-5.86,2.48-6.29,6.64-14.29,3.05-5.87,5.6601-10.91,10.21-16.34,6.86-8.2,10.37-8.06,11.75-13.28.9601-3.65-.3099-5.43-3.07-15.32-1.16-4.16-3.7399-13.42-4.59-20.94-.99-8.66.3-15.21,1.7-22.29,3.25-16.51,8.34-21.22,8.51-35.75.08-6.64-.93-10.32-3.41-12.93-2.54-2.7-6.12-3.39-13.27-4.77-4.2463-.8242-7.902-1.5312-11.9181-1.5313-1.1005,0-2.2275.053-3.4019.1713-6.65.66-9.55,3.5-16,5.45-12.2844,3.6948-19.727,5.9314-25.7357,5.9314-1.6022,0-3.1012-.1588-4.5643-.4914-9.13-2.07-17.57-8.78-22.13-16.34-3.58-5.95-2.84-9.25-7.83-15.32-5.94-7.23-12.39-9.12-11.91-10.21.1507-.3475.9726-.5559,2.2111-.5559,3.609,0,10.7563,1.7697,15.1489,7.0259,3.82,4.56,1.88,7.37,5.45,13.61,3.8,6.67,10.7701,11.83,18.0401,13.62,1.7322.4287,3.3865.6251,5.1066.6251,4.2179,0,8.8361-1.1795,16.0033-3.0051,9.26-2.36,10.46-4.13,20.08-6.13,5.5483-1.1539,8.8979-1.8518,12.2603-1.8518.8919,0,1.7847.0491,2.7197.1518,4.26.47,6.47,1.58,17.02,3.4,1.6047.2785,3.1052.5214,4.5069.5214,1.568,0,3.0125-.3037,4.3431-1.2014,2.49-1.67,3.25-4.53,3.41-5.1.34-1.27.5201-3.01-1.02-8.51-.9599-3.41-1.89-5.81-2.39-7.15-.37-1.01-2.93-7.9-3.74-12.26-1.6-8.56,1.85-16.05,3.4-19.4,3.36-7.28,8.1-11.57,11.58-14.64,3.9401-3.5,7.33-5.44,13.9501-9.19,12.4299-7.04,14.1199-6.06,19.4099-10.22,9.7141-7.6373,12.1923-17.3675,12.8974-17.3675M360.137,0c-3.3577,0-4.6426,2.7428-5.4928,4.5579-1.3547,2.8918-4.1736,8.9092-10.4949,13.879-2.2372,1.7594-3.5699,2.3425-6.2248,3.504-2.6755,1.1706-6.3398,2.7738-12.5588,6.296-6.4913,3.6771-10.4093,5.8965-14.8066,9.8026-3.3256,2.9338-8.9131,7.8629-12.7992,16.2828-1.6962,3.6659-5.6729,12.2607-3.7751,22.414.7086,3.8146,2.52,9.1416,3.9146,12.9378l.0454.1234.15.4009c.518,1.3807,1.3008,3.4673,2.1219,6.384.5945,2.1232,1.2512,4.858,1.0086,5.8405-.4121,1.4482-1.034,2.0363-1.3707,2.2621-.2778.1874-.6496.3539-1.558.3539-.9916,0-2.2406-.2027-3.652-.4476-5.416-.9344-8.4908-1.6566-10.9614-2.2368-2.2622-.5314-4.0492-.9512-6.3652-1.2067-1.116-.1226-2.1842-.182-3.268-.182-3.8701,0-7.5998.7757-13.2452,1.9496-5.6625,1.1773-8.7213,2.3194-11.6794,3.424-2.3162.8648-4.7113,1.7592-8.6506,2.7631l-.0636.0162c-6.7,1.7066-11.1264,2.834-14.7048,2.834-1.3451,0-2.586-.1521-3.9054-.4786-6.0029-1.4781-11.848-5.8901-14.8968-11.2415-1.2939-2.2615-1.6238-3.8207-2.0058-5.6261-.5304-2.5068-1.1314-5.3481-3.9559-8.7196-5.0602-6.0551-13.3875-8.8151-18.9816-8.8151-3.4848,0-5.7721,1.2-6.7985,3.5666-.7924,1.7992-.7238,4.5046,1.8789,6.6243.6046.4924,1.2952.9301,2.1695,1.4843,2.1744,1.3781,5.4601,3.4606,8.5855,7.2647,2.3819,2.8975,3.1212,4.9044,4.0571,7.4453.76,2.0637,1.6215,4.4025,3.352,7.2785,5.5609,9.2196,15.2576,16.3596,25.3087,18.6385,1.82.4138,3.6755.6152,5.6699.6152,6.7508,0,14.4388-2.3124,27.1758-6.1433,2.8532-.8626,5.0645-1.8674,7.0154-2.754,2.6912-1.2229,4.8168-2.1888,8.0382-2.5086.9841-.0992,1.9327-.1469,2.9075-.1468,3.548,0,6.9856.6672,10.9661,1.4396,6.5124,1.2569,9.2041,1.8242,10.5808,3.2876,1.0662,1.1223,2.1285,3.1055,2.0521,9.4438-.0898,7.6776-1.6881,12.2957-3.7115,18.1425-1.5401,4.4501-3.2858,9.494-4.7047,16.702-1.3968,7.0642-2.8421,14.3732-1.7618,23.8237.8958,7.924,3.5906,17.5882,4.7414,21.7151.7332,2.627,1.3633,4.6941,1.8696,6.3549,1.402,4.5985,1.5014,5.1326,1.1811,6.3501-.3534,1.3367-.7065,1.7045-3.0014,3.6478-1.8956,1.6053-4.4919,3.8038-7.748,7.696-4.8767,5.82-7.7378,11.3263-10.7667,17.156l-.0452.0869c-2.1805,4.1931-3.0859,6.5112-3.8134,8.3738-.7011,1.7949-1.2075,3.0918-2.7241,5.7289-3.4304,5.9667-6.1375,10.6755-11.5933,14.0812-5.1374,3.2248-9.8708,3.9003-12.9389,3.9003-.4784,0-.9634-.0161-1.4416-.0479-9.4555-.6276-15.5035-7.2213-19.1171-11.1608-4.5579-4.9608-6.7472-10.002-7.6467-12.5657-1.5489-4.4712-1.808-8.1323-1.7581-16.1936.0606-10.4413.5335-15.6842.8466-19.1537.2655-2.9424.4408-4.8861.1406-7.49-1.3135-11.3276-10.0719-21.5298-26.0321-30.3264-10.3225-5.6893-22.4693-9.848-24.8643-9.848h-2.9564l-1.4553,2.5974-.6189,1.1254v1.2842c0,3.1507,2.4898,4.374,3.6862,4.962,10.5145,5.1665,19.2596,12.1008,25.9927,20.6105,5.0055,6.3222,6.1695,10.1313,6.6481,13.0238.4012,2.4159.1929,3.6281-.3102,6.5569-.3708,2.1587-.8788,5.1152-1.2678,9.5609-.9479,10.7665-1.4701,16.6986.7401,23.4347,1.8975,5.8035,4.9695,9.7087,7.0023,12.2928.2154.2738.4563.5801.69.884-.8611.1624-2.1412.3022-3.9955.3022-1.2789,0-2.4768-.0664-3.2695-.1103-5.0813-.2962-9.4801-1.8416-13.06-4.5923-2.676-2.0609-3.7617-3.9125-5.1361-6.2566-.7549-1.2875-1.5355-2.6189-2.6074-4.0314-8.5516-11.288-24.6167-12.974-33.4315-12.974-2.3009,0-4.6299.1209-6.558.3405-2.1655.2466-6.1964.7057-6.7394,4.7747l-.044.3293v.3322c0,2.3294,1.7029,4.8172,4.9576,5.0646.2708.0206.6693.0359,1.1795.0521,3.3928.1075,13.7176.4351,21.6267,7.3318,1.8152,1.5882,2.4481,2.5836,3.4968,4.2327,1.2329,1.9389,2.7674,4.3519,6.3455,8.1821,5.6213,6.0184,11.9929,12.84,21.6726,15.6221,2.3814.6826,4.5929,1.0139,6.7645,1.0139,2.4664,0,4.5089-.428,6.3112-.8055,1.6726-.3505,3.1171-.6532,4.8962-.6532,1.3212.0001,2.7199.1696,4.2758.5183,4.0565.9091,5.7381,2.2322,8.0654,4.0634,2.4916,1.9605,5.5925,4.4002,11.5182,6.1688,3.8482,1.1491,7.9136,1.7318,12.0825,1.7318,8.6045,0,15.8288-2.5033,19.3693-3.9954,10.8471-4.5918,17.0888-12.0106,19.7542-15.1786,4.6011-5.4515,7.8856-11.9746,14.4296-24.9702.6244-1.2378,1.1973-2.3897,1.7291-3.4588,3.4824-7.0015,4.6749-9.2458,6.5825-9.862.5031-.1621,1.0345-.2415,1.6205-.2415,2.4642.0001,5.2608,1.4298,7.3027,2.4735,4.538,2.3315,6.7465,5.0349,10.4054,9.5138,1.0025,1.2272,2.1387,2.618,3.4179,4.1104,5.1508,6.0166,8.6301,9.0581,11.9948,11.9995,3.58,3.1294,6.9613,6.0853,12.4076,12.8907,6.7756,8.4645,6.9661,10.6842,7.092,12.1531.4447,5.2094-2.1119,11.0321-6.0789,13.843-1.8367,1.3004-3.1909,1.4632-5.4347,1.7329-2.8926.3478-6.4926.7807-10.8865,3.8638-3.3355,2.3482-4.6952,4.5475-6.2695,7.0942-.8811,1.4254-1.8798,3.041-3.5294,5.2263-3.4791,4.6035-5.7899,6.3696-8.2366,8.2393-2.3568,1.8013-4.794,3.664-7.8026,7.5148-4.9978,6.4042-6.1648,11.3968-7.1025,15.4086-.7272,3.1108-1.1661,4.9885-3.2458,7.1071-3.3379,3.4097-7.4265,3.7592-19.8487,4.3508-1.8395.0876-3.8222.182-5.9659.2992-18.1033.9952-28.6864,2.5634-35.6893,3.6012-3.9124.5797-6.7392.9987-8.8679.9987-2.0662,0-3.6059-.3815-5.8838-1.458-3.878-1.8306-4.7276-3.1743-7.8888-8.1741-2.8713-4.5413-7.2105-11.4041-16.4796-22.2958-11.6495-13.7059-21.7122-25.5448-38.0993-34.8477-7.3044-4.1467-11.5965-5.343-15.3833-6.3986-3.6432-1.0155-7.0842-1.9746-13.6649-5.8356-7.2752-4.2665-29.4117-17.2479-29.7011-33.2479-.0415-2.1783.2912-2.9231,1.3939-5.3904,1.0962-2.4533,2.7531-6.1606,4.5688-12.9834,2.4948-9.3995,3.4282-17.4752,3.7721-22.5953.7186-10.7-.6194-12.7509-1.1908-13.6267-.8234-1.2622-2.1282-2.1165-3.58-2.3438l-.3842-.0601-.4093-.0015c-3.9823,0-5.2302,3.8846-5.7,5.347-.4265,1.3276-.9176,3.1434-1.5395,5.4421-1.3839,5.116-3.4753,12.8475-6.6432,21.6249-1.4945,4.1598-2.3951,6.6665-3.9418,10.1273-1.3322,2.984-2.2498,4.6942-2.9871,6.0685-1.0282,1.9168-1.8405,3.4307-2.4322,6.1315-1.7426,7.8292.6622,14.6174,1.6892,17.516,2.1778,6.1406,5.408,10.0927,8.0035,13.2684,2.3369,2.8785,3.976,4.3405,5.7113,5.8882,1.4611,1.3032,3.1169,2.7802,5.7264,5.59,3.8706,4.1567,6.6638,7.1565,6.896,8.6142.1474.9306-.3951,2.1272-3.5099,8.4297-.634,1.2829-1.3558,2.7433-2.1742,4.4176-5.852,12.0037-6.5167,14.0963-6.6251,17.191-.1533,4.2864.953,6.7867,1.9293,8.9927.7521,1.6996,1.4016,3.1677,1.6568,6.0703.5702,6.3392-.9793,10.4808-2.3793,12.8408-3.4342,5.7737-10.048,7.7927-13.9996,8.999-4.1113,1.2589-8.484,1.8965-13.0007,1.8965-5.7481,0-10.4867-1.0021-13.6224-1.6653-1.814-.3837-3.0125-.6371-4.1104-.6371-3.1148,0-4.8052,2.0581-5.3062,3.8207-.2705.9322-.5124,2.8373.9885,4.8353,2.6518,3.5302,14.464,9.8362,28.5616,9.8362,1.2494,0,2.5087-.0507,3.7427-.1506,15.6671-1.269,24.9391-8.5906,29.9595-14.5093,5.8765-6.9115,9.0244-14.2877,9.3525-21.9196.2065-4.6134-.7114-7.5874-1.5213-10.2113-.7327-2.3741-1.3115-4.2493-1.0402-7.6226.4507-5.6082,2.2093-10.0111,5.2275-13.0916,4.1961-4.2835,10.2123-5.1825,14.5205-5.1824,2.7499.0001,4.8787.3629,5.5782.482,3.0649.5192,10.0934,6.9246,19.8213,15.7902l3.1847,2.9001c7.3947,6.7188,8.6713,8.3528,9.8952,10.2457,1.7732,2.7535,2.3955,4.5568,3.1833,6.84.9373,2.7163,1.9998,5.7952,4.9589,10.4767,1.6113,2.5591,2.9141,4.2088,3.9609,5.5344,1.4241,1.8034,2.0136,2.5497,2.6346,4.5301,1.418,4.4728.6566,8.4557.3699,9.9552-.6958,3.7508-3.2485,8.2524-7.5922,13.4067-5.9141,7.03-11.8394,11.1699-18.7004,15.9634l-.1003.0701c-8.4701,5.9143-13.1358,9.1722-20.3961,12.192-8.3389,3.4753-15.6982,4.8417-23.4895,6.2881-5.6368,1.0495-9.202,1.4226-11.8052,1.6948-4.204.4398-6.7415.7053-10.6102,3.1044-4.3709,2.7094-8.1842,8.1994-15.7815,19.1368-3.1986,4.5905-4.8474,7.1414-6.0514,9.004-1.2295,1.9022-1.8467,2.8569-3.1895,4.5389-4.5551,5.7084-9.7559,10.1923-17.9521,15.4774-15.3075,9.8752-30.7457,16.0721-39.9696,19.7746-2.9522,1.1851-5.2842,2.121-6.9653,2.9109-1.5222.7153-6.1547,2.892-4.9747,7.4339,1.1106,4.3669,6.0995,4.3669,7.9776,4.3669,6.2899,0,21.518-2.2205,37.6906-8.3376l.0533-.0201c10.067-3.815,21.4773-8.1389,32.8807-18.1727,8.8734-7.8038,12.6525-14.5782,15.9867-20.5552,3.4225-6.1351,6.1257-10.981,13.9988-15.8976,3.0299-1.8945,10.1199-6.3276,18.3219-6.3273,1.8286.0001,3.6347.2255,5.3681.6698,3.4135.8715,9.5118,3.1226,12.0536,8.4197,3.2634,6.8133-1.146,15.5272-3.7806,20.7336-2.2611,4.4536-4.2139,6.4658-6.2814,8.5963-2.3665,2.4385-5.0486,5.2021-7.6139,10.9344-4.5505,10.1493-4.3789,19.5698-4.2654,25.8035.1148,6.6311,1.0526,10.4536,1.9595,14.1501.7849,3.199,1.5262,6.2207,1.8809,11.4849.4105,6.0446,1.0305,15.1752-1.9887,23.1669-4.5004,11.9262-15.6485,17.9862-22.3093,21.6069-1.6295.8857-2.9167,1.5854-3.9246,2.2747-4.3618,2.983-3.2121,6.5123-2.7558,7.5228,1.6617,3.6591,6.0302,3.6591,7.4659,3.6591,8.1723,0,24.1414-4.5652,34.6396-17.1425,8.7692-10.514,10.4384-22.9101,11.0668-27.5767,1.1695-8.6309.2138-15.3947-1.5213-27.6736l-.0132-.0931c-.932-6.5965-1.8175-10.5922-2.464-13.5096-.8365-3.7742-1.0889-4.9135-.6153-7.7464,1.0051-6.0219,3.9969-10.5409,9.9576-19.5443,3.1294-4.7252,5.1186-7.0726,6.8735-9.1438,1.5468-1.8255,3.0079-3.5497,4.6959-6.2701,4.2529-6.8503,4.5386-11.8759,4.8409-17.1966.2286-4.0219.4876-8.5805,2.5788-15.3674l.0209-.0679c1.9221-6.2227,4.1006-13.2755,9.7906-20.1861,2.4518-2.9826,3.9332-4.0211,11.3893-9.0365,2.1882-1.472,4.9115-3.3039,8.2578-5.5977,7.7894-5.3367,12.6266-8.8406,15.8275-11.1591,5.2681-3.816,5.722-4.121,8.0105-4.7806,3.5678-1.038,7.8268-1.6313,11.6971-1.631,4.386.0002,12.2618.7764,15.7292,5.9721,3.4795,5.2043,1.376,13.458-.4152,17.5151-1.4812,3.3928-3.2029,5.1147-13.2598,14.3091-9.2127,8.4269-13.3969,12.198-15.4078,14.0103-1.8932,1.7062-2.0911,1.8846-2.6868,2.5473-13.982,15.4906-16.1248,36.65-14.6207,42.4578.7539,2.9111,2.6419,3.9534,3.7002,4.3156.5491.1878,1.1208.283,1.6999.283,3.9408,0,5.2155-3.3904,6.5651-6.98,2.1531-5.7272,6.1608-16.3876,16.4754-25.0314,2.6299-2.2021,4.6564-3.4269,7.2219-4.9777,3.3504-2.025,7.5199-4.5452,14.1925-10.0328,7.702-6.3387,12.3501-10.164,15.7481-16.2993,3.5246-6.3506,3.7618-11.1486,3.9524-15.0038.16-3.2391.2756-5.5795,2.1473-8.8622,4.1191-7.2181,13.0916-12.2491,18.5675-12.2489,1.2544,0,1.8322.276,2.0225.3947.0399.0249.0574.0403.0575.0406.1598.2079.4682,1.1789.6934,1.888.7798,2.4546,1.958,6.1641,5.6704,10.7466.6173.775,1.2125,1.4285,2.8561,2.9603l.0184.0171.0186.0169c1.5072,1.3767,3.7613,3.3761,6.8912,6.1125,5.5233,4.8374,7.7151,6.6865,8.7685,7.5751.7231.6101.7385.6256.9269.8162,6.698,6.8369,6.3666,18.4982,6.2073,24.1025-.3347,12.0759-5.2946,20.7048-9.2799,27.6382l-.0349.0607c-3.3158,5.75-7.074,12.2672-14.6395,17.689-6.3075,4.5236-12.5671,6.2917-17.5966,7.7123-6.0644,1.717-9.3338,1.8482-12.4955,1.975-3.1778.1276-6.4636.2595-11.4634,1.9222-4.2848,1.4218-18.9142,7.164-27.1265,21.3148-3.832,6.6111-4.3554,11.8143-4.7759,15.9951-.3939,3.915-.6316,6.2781-3.2458,9.309-2.6456,3.0719-5.0596,3.7242-8.7136,4.7118-3.6386.9833-8.1671,2.207-12.9544,6.2892-14.1707,12.0961-13.8766,34.8659-12.1805,41.3519.7319,2.7987,2.2445,4.4433,4.4957,4.8879l.4799.0948.5207.0032c4.3853,0,5.2606-4.1243,5.8398-6.8535,1.0226-4.8189,2.926-13.7886,10.4418-20.3674,3.4107-2.9862,5.9754-3.7141,8.9452-4.557,3.4704-.985,7.4039-2.1013,11.886-6.3607,7.4649-7.0981,9.2612-16.0554,10.5726-22.5958.4649-2.3179,1.1594-5.7819,1.8661-6.6455.0118-.0005.025-.0009.0396-.0009,1.3244.0001,3.8893,1.9011,4.798,3.9197,1.4326,3.1816-1.5621,8.2892-3.5438,11.6688-2.0846,3.5615-3.7458,5.0271-5.5045,6.5787-1.7446,1.5392-3.722,3.2839-5.3885,6.5231-5.5941,10.8488-.6401,24.3229,3.1694,30.5735,1.6015,2.6278,3.5078,5.0594,6.5855,5.0594.4001,0,.8-.046,1.1884-.1367,2.0536-.4896,4.3258-2.3761,4.044-6.0986-.0564-.7446-.1955-1.5554-.3718-2.5819-.6966-4.0587-1.8627-10.8517,1.7001-16.4103.8981-1.405,1.5116-1.8663,2.7341-2.7858,1.5039-1.1309,3.5634-2.68,6.2069-6.1105,2.5966-3.3685,7.1726-10.4348,8.6406-19.9061.7366-4.7306.3214-7.6515-.0449-10.2285-.3381-2.3788-.6053-4.2576.0304-7.923.7638-4.4208,1.5531-8.9889,3.9996-10.6393.5776-.3898.9719-.4635,1.4974-.4635.8693.0001,2.0727.2543,3.4661.5487,2.2885.4835,5.1365,1.0853,8.7368,1.0853,1.6109,0,3.2655-.1243,4.9178-.3698,7.5368-1.1233,14.8127-4.59,21.6281-10.3043,4.3544-3.6458,6.6832-7.0109,8.2241-9.2377.467-.6747,1.0288-1.4866,1.3777-1.8777,2.4432.3849,8.2362,6.9166,9.0063,15.3962.2878,3.1124-.3107,4.4383-1.6219,7.3433-1.1114,2.4626-2.4947,5.5274-3.6292,10.4136-3.1436,13.5508-.6888,25.3821,3.0271,43.2912l.0176.0854c.748,3.6155,1.3979,6.2177,1.92,8.3086.9016,3.6102,1.4459,5.7893,1.8241,10.1934.6382,7.436,1.1894,13.8581-1.2771,20.8993-3.4695,9.9266-11.0988,15.6732-16.6695,19.8692-5.5872,4.2086-9.1685,5.5731-12.9601,7.0178-3.1075,1.184-6.3209,2.4082-10.44,5.0075-21.4696,13.5356-27.9998,39.2347-27.8307,44.9254.092,3.0941,1.7989,4.488,2.8084,5.0435.7672.4197,1.6218.638,2.4828.638,3.3465,0,4.7125-2.5453,6.4418-5.7678,3.1614-5.8912,9.74-18.1499,23.4188-25.4841,2.7832-1.4938,4.9298-2.2905,7.4152-3.2128,3.6671-1.3608,7.8234-2.9033,14.2979-6.8987,4.9375-3.0407,12.4049-7.6395,19.6146-16.3972,2.7559-3.3392,8.4987-10.2975,11.6611-20.8986,3.126-10.5207,2.2426-19.5206,1.7148-24.8978-.2064-2.0873-.4818-4.0315-.7883-5.8189,2.7977,2.4441,6.2508,4.9399,10.4931,6.9825,8.2022,3.9574,16.202,4.7087,20.0465,5.0698,1.9313.18,3.6826.2657,5.3927.2657,3.5922,0,6.1127-.3831,8.138-.691,1.1911-.181,2.1319-.324,2.9159-.324.5379,0,1.174.0534,2.1793.4405,7.1268,2.7557,12.7586,14.0724,10.7541,21.6205-.8029,3.0185-2.5049,4.4583-5.6951,6.9479-3.6706,2.8647-8.2388,6.4299-11.0291,14.0702-3.5715,9.7872-1.5572,18.762-.0386,23.2407,5.0211,14.6091,19.288,23.5382,25.3854,23.5382,2.1628,0,3.5398-.912,4.3141-1.6771.7774-.7617,3.1374-3.6405.226-8.0805-.7142-1.0892-1.7268-2.311-2.8992-3.7259-4.0945-4.9409-10.2819-12.4077-8.9381-19.9761.5775-3.2558,2.1627-4.9137,5.4072-8.062,3.6113-3.5044,8.1055-7.8657,11.2205-16.458,3.1227-8.601,3.6881-17.0323,1.6798-25.058-2.39-9.5828-8.5388-18.228-17.3128-24.3391-6.7939-4.759-13.2386-6.2848-23.9158-8.8126-6.0554-1.436-9.3296-1.7443-11.7205-1.9693-2.2449-.2114-3.4815-.3278-6.1605-1.2648-11.9951-4.2101-17.6095-10.9663-20.2084-15.8932-4.0109-7.6035-3.3123-15.2206-2.5035-24.0405.5474-6.008,1.6807-9.7127,2.6805-12.9811,1.3009-4.2528,2.5298-8.2698,1.9086-14.8925-.5928-6.4098-2.4158-9.6965-4.1786-12.8749-1.3022-2.3478-2.5321-4.5654-3.6324-8.6412-2.9555-10.9686-3.4476-30.1451,7.3132-38.0102,2.5627-1.8745,8.5876-2.3188,18.5692-3.0551l1.8309-.1354c3.3649-.2507,5.676-.2853,7.6722-.2853.5202,0,1.026.0024,1.5287.0049.5124.0024,1.0215.0049,1.5387.0049,2.9465,0,5.7844-.0858,10.0578-.5047,9.9928-.9706,15.4998-1.5056,21.5142-4.2603,6.1974-2.8275,9.4967-6.2548,11.9056-8.7573,2.2225-2.3087,3.2065-3.2601,5.2657-3.6255.4802-.0846.9834-.128,1.4903-.128,6.1219.0002,12.4455,6.1646,14.826,8.4853,8.8753,8.6321,13.2348,22.236,10.8522,33.8553-.6286,3.0641-1.4399,4.5993-2.5627,6.724-1.4866,2.8128-3.3366,6.3133-5.0667,13.6766-1.718,7.294-3.6659,15.564-.6617,24.8873,1.4159,4.3928,3.1841,6.5406,4.6049,8.2665,1.1725,1.4241,2.0985,2.549,3.1011,5.3795,2.4109,6.8221,1.4986,13.281.5326,20.1193-.6293,4.4419-1.3473,6.605-2.0418,8.6971-.7302,2.2-1.4853,4.4749-1.82,8.4328-.7236,8.5492,1.0361,17.4068,5.0891,25.6151,8.7342,17.6546,28.0361,26.7568,34.3501,26.7568,2.7187,0,4.1666-1.4035,4.7876-2.2402.4735-.6408,2.6147-3.9785-1.0811-7.6581-.7018-.6988-1.6148-1.4502-2.7708-2.4016-4.854-3.9947-13.8891-11.4305-17.58-23.8454-.9633-3.2259-3.8893-13.0255-.7662-23.6331.7157-2.4186,1.4767-3.9711,2.2825-5.6149,1.2186-2.4858,2.4787-5.0562,3.2188-9.7003.5988-3.7165,1.0028-10.112-2.4042-22.5936-2.3673-8.6802-4.5189-12.7201-6.09-15.67-1.1814-2.2184-1.8322-3.4405-2.2194-6.0087-.9185-6.1248,1.2084-9.574,4.4277-14.7948,3.0753-4.9874,6.9027-11.1943,7.8638-20.876,1.0556-10.6766-1.8981-19.4146-4.3413-25.6401,4.5468,3.2014,11.0715,7.5807,19.9739,11.1306,7.26,2.8846,15.0929,4.1113,30.6982,6.5554,13.1354,2.0559,20.826,2.7128,25.9149,3.1475,6.3643.5436,8.2852.7077,12.6313,2.6698,13.5427,6.1025,21.3612,16.9965,25.5616,22.8492,4.6624,6.5027,6.067,10.4899,7.554,14.7113,1.526,4.332,3.1039,8.8114,7.758,15.3514,12.4058,17.4208,29.7741,21.5828,36.3125,23.1497.6872.1647,1.5422.3696,1.7922.4566,9.1065,3.3469,12.9037,3.8499,20.4685,4.8516,4.8415.6412,11.4722,1.5193,22.4773,3.541,4.0383.7406,7.9157,1.3777,11.6654,1.9939,10.1483,1.6675,18.9128,3.1077,23.8076,5.493,18.5128,9.0237,25.7615,27.7395,29.6558,37.7944,2.1757,5.6175,3.6131,9.3287,7.8501,9.3287.7559,0,1.4918-.1549,2.1869-.4606,2.0838-.9189,3.3493-2.8793,3.7667-5.8287.6139-4.3384-.3284-13.0015-3.8168-22.5756-2.9005-7.9599-8.5799-19.3066-19.1649-28.1584-12.9571-10.8317-28.9128-14.3514-42.9905-17.457-6.6806-1.472-11.2395-1.985-15.2616-2.4376-5.0491-.5682-9.4095-1.059-17.09-3.3083-20.6127-6.0054-25.6795-10.5037-26.8084-11.8663,1.6298-1.6232,7.5845-4.2582,14.9338-5.405,1.8548-.2906,3.5955-.4316,5.3246-.4316,4.7918,0,9.1447,1.1227,14.6558,2.5438,3.9724,1.0244,8.4746,2.1854,14.1147,3.1987,5.8329,1.0505,14.5956,2.6286,23.6256,2.6286,3.0399,0,5.9224-.1838,8.5671-.546,30.3489-4.1634,50.2907-34.1378,52.9293-41.8167.6297-1.8327.9679-4.4406-.9971-6.4568-.9775-1.0021-2.286-1.5531-3.6859-1.5531-2.758,0-4.1262,1.6688-6.852,4.9934-5.0072,6.1074-16.7331,20.4095-33.9089,24.048-3.4588.733-6.735,1.0893-10.0159,1.0893-5.4992,0-9.9193-1.0232-13.8191-1.9258-1.6319-.3777-3.1733-.7346-4.679-.991-6.7872-1.1511-10.8774-1.626-15.6134-2.1759-4.1824-.4857-8.9226-1.0361-16.6648-2.1814-3.3791-.5004-6.7234-.7543-9.9394-.7543-10.1945,0-16.9176,2.5367-19.7886,3.62-.2971.1121-.6608.2493-.8197.3022-1.5757.364-3.0258.55-4.2969.55-2.9139,0-4.661-.9608-6.8729-2.1772-1.9074-1.049-4.0693-2.2379-6.9219-2.7313-2.38-.4135-3.6455-2.5967-6.6544-8.7302-2.3913-4.8747-5.3674-10.9415-10.7259-17.6293-9.2561-11.5631-22.0401-20.4411-36.9685-25.6724-7.1853-2.5098-11.0027-2.6185-16.7812-2.783-4.3149-.1228-9.685-.2756-18.9496-1.4955-22.0712-2.9041-38.0178-5.0023-43.904-12.3809-.5322-.6597-.9621-1.3157-1.3319-2.0273-1.286-2.4726-3.5665-4.1602-5.9809-5.9467-4.6613-3.4492-9.4814-7.0159-8.5415-16.2623.8682-8.5781,11.2747-14.7083,15.1922-17.0161,1.2531-.7381,1.882-1.1087,2.4854-1.7006,1.4029-1.3718,3.7812-2.0704,7.0622-2.0701,7.3009.0004,17.0433,3.4896,23.49,5.7983,12.1357,4.3327,18.4583,8.1589,23.5386,11.2335,6.1693,3.7335,11.0421,6.6826,21.1151,6.8883l.1548.0015c2.6894,0,5.5244-1.3022,10.6711-3.6664l.7612-.3494c6.008-2.756,13.2652-5.9637,23.3801-9.1564,6.0518-1.9089,10.9014-2.837,14.8249-2.837,3.1193,0,5.1162.602,7.0475,1.1841,1.5646.4716,3.1825.9594,5.1029,1.067,13.1586.7429,20.7807,16.3269,23.6501,22.1937.7709,1.5762,1.1955,2.4446,1.7312,3.1628,5.6974,7.6694,8.3472,10.0483,10.9097,12.3489,2.1335,1.9154,4.1487,3.7245,8.5167,9.4763,8.1988,10.7835,24.0129,19.1899,45.7342,24.3124,8.6234,2.035,17.0654,3.0671,25.0909,3.0671,8.7484,0,20.264-1.4142,23.9273-5.4,1.1194-1.218,1.6635-2.7466,1.5319-4.3043-.1519-1.8911-1.5018-4.3285-4.8011-4.9069-.7074-.124-1.5298-.1769-2.7499-.1769-.7679,0-1.6913.0212-2.7579.0463-1.4014.033-2.9897.0704-4.8098.0704-11.5147,0-22.0248-1.7089-32.131-5.2245-7.6014-2.6354-22.0632-9.093-33.5691-22.7492-4.6534-5.5265-11.0277-13.0969-9.2387-19.1515,1.0305-3.4835,4.7298-6.7139,10.4161-9.0948,3.2578-1.3753,5.7664-1.56,7.7924-1.56.9743,0,1.9145.0485,2.9098.0997.9821.0507,1.9978.1031,3.0314.1031,2.8266,0,6.5926-.3586,10.6587-3.1552,4.2694-2.9467,5.738-6.4,6.8103-8.9214.8976-2.1107,1.3482-3.1702,3.1498-4.2574,1.5923-.9618,3.4319-1.4093,5.7908-1.4093,3.4279,0,7.5455.9653,11.9048,1.9872,5.2059,1.2224,8.0001,2.515,11.5378,4.1516,2.5145,1.1633,5.3645,2.4818,9.4035,3.9127,5.7402,2.0218,16.696,5.3871,26.0771,5.3871h.1201c9.7622-.0294,19.9103-3.8485,29.3447-11.0446,10.4438-7.947,19.1047-19.472,19.5837-24.0814.1589-1.5295-.2831-2.984-1.2448-4.0955-.9907-1.1375-2.4129-1.7827-3.9129-1.7827-2.288,0-3.6992,1.2478-6.261,3.5129-5.2125,4.6088-16.0588,14.1992-31.8303,15.57-1.2335.1078-2.4827.1624-3.7151.1624-8.3171,0-16.0231-2.4821-24.946-5.3562-8.1415-2.624-13.096-5.1558-17.4672-7.3895-5.926-3.0282-11.0439-5.6434-20.4218-6.4281-1.963-.1648-4.649-.3904-7.5989-.3904-9.8149,0-17.2235,2.6307-22.0197,7.8189-2.4878,2.6895-3.6132,5.3165-4.5174,7.4274-.9644,2.2513-1.2855,2.8259-2.2283,3.3002-.534.2684-.8951.3047-1.1776.3047-.7926,0-1.889-.3411-3.1586-.736-2.0375-.6338-4.5733-1.4225-7.7373-1.4225-1.3528,0-2.7313.1484-4.0973.4413-5.878,1.2635-9.0685,4.6234-11.398,7.0766-1.9299,2.0323-2.8534,2.9399-4.5244,3.1522-.2142.0274-.4105.0405-.6035.0405-1.7018,0-3.3257-1.2155-6.2856-3.5448-2.0211-1.5905-4.3117-3.3931-7.3042-5.1545-7.7826-4.5844-17.0219-6.9093-27.4599-6.9093-6.0435,0-10.9872.7865-13.6431,1.2089-10.381,1.6561-16.4682,5.3442-21.3593,8.3078-4.7516,2.879-8.1848,4.9592-14.537,4.9592-.3098,0-.6267-.0049-.9493-.0152-6.3522-.1976-11.4129-2.5641-22.5011-7.7488l-.049-.0229c-8.9076-4.1674-12.7754-7.1234-16.5157-9.9822-3.6939-2.8232-7.1828-5.4897-14.324-8.456-4.1413-1.7186-8.514-2.5538-13.3698-2.5538-4.8282,0-9.3394.8076-13.7019,1.5887-3.7475.6708-7.2872,1.3046-10.5184,1.3046-3.2845,0-5.9097-.6733-8.2465-2.1172-1.9282-2.1456-3.8805-13.8387-3.1869-22.6839.4636-5.8545,12.5426-12.564,23.9339-13.291.6189-.0393,1.2292-.0593,1.8119-.0593,4.2401,0,6.8407,1.0153,9.852,2.1908,3.0691,1.1981,6.5476,2.5561,11.4466,2.5561,1.2027,0,2.4658-.0834,3.7539-.2477,6.4718-.8274,9.6562-3.1773,16.6334-8.326,3.4686-2.5595,8.2188-6.0651,15.1449-10.7254,13.622-9.1617,19.9037-13.2802,26.0475-14.892,4.004-1.0495,8.0829-1.5598,12.4688-1.5597,5.6619.0001,10.9773.8446,16.1178,1.6614,8.4299,1.3405,12.0961,2.9565,15.3307,4.3822,3.3158,1.4615,6.4478,2.842,12.5816,3.3992,1.5689.1413,3.1703.2128,4.7633.2128,20.5249,0,38.053-11.6075,47.4698-17.8435,6.6541-4.3961,10.1183-7.6564,12.6479-10.037,2.8119-2.6462,4.3608-4.104,8.8308-5.7955,4.8672-1.8354,10.2134-2.7669,15.8848-2.7667,9.3622.0005,17.7259,2.5548,21.7452,3.7823,9.2895,2.8321,14.3779,6.2086,19.2987,9.4739,2.9121,1.9325,5.9234,3.9306,9.6108,5.6878,7.3218,3.4949,15.671,5.2676,24.8129,5.2676,17.9965,0,35.8826-6.8479,47.7181-12.5925,11.0655-5.3708,22.5581-12.7202,24.5944-15.7276,1.0015-1.4793,1.2086-3.2464.568-4.848-.7947-1.945-2.6413-3.1795-4.7183-3.1795-1.5479,0-2.5591.5587-5.0024,1.9083-6.839,3.7779-25.0056,13.8132-50.9998,14.2186-.314.0048-.6292.0072-.9438.0072-11.0468,0-21.7501-2.884-34.7048-9.3513-4.7761-2.3861-7.1891-3.8708-9.318-5.1807-3.4085-2.0973-5.8712-3.6126-14.1924-6.6268-9.726-3.5229-19.8958-4.2624-26.7146-4.2624-4.6035,0-8.1617.3279-10.3359.6029-17.2062,2.152-27.6292,9.0775-32.6382,12.4058-.535.3555-.9935.6613-1.3781.9009-2.9876,1.8652-5.7349,3.6225-8.1588,5.1729-7.6358,4.8842-14.2302,9.1024-16.8943,9.1024-.1421,0-.1949-.0173-.1954-.0174-8.5484-3.496-11.6627-14.2087-12.7707-22.5802-1.4621-11.0671,1.7545-14.2823,4.5923-17.119,1.4567-1.4561,2.9631-2.9619,3.8053-5.1802,1.2468-3.2649,3.5759-5.5181,23.256-16.2886,8.735-4.7781,14.6042-7.8163,18.8896-10.0347,7.8847-4.0817,10.5409-5.4567,14.7702-9.3372,4.2721-3.9053,17.2933-15.8085,18.9656-32.8149,1.2087-12.3786-3.9564-25.3178-14.9363-37.4221-4.8579-5.3554-9.6853-9.2687-12.8797-11.6086-6.7961-4.9784-8.7769-4.9784-9.7289-4.9784-1.2667,0-2.4794.4534-3.4146,1.2766-1.0532.9388-1.6713,2.2574-1.7198,3.6388-.0836,2.3851,1.1953,3.6972,3.3141,5.8711,4.3744,4.488,14.6183,14.998,14.0735,28.2376-.6097,14.5654-4.9198,25.6978-6.5171,27.6247-5.453,4.6239-10.4289,7.8827-34.0464,19.1265-6.0854,2.896-11.3781,5.2544-15.6308,7.1494-8.7287,3.8894-12.7125,5.6646-14.6256,7.9239-15.6848,18.4425-12.5247,35.4563-10.4335,46.7148,1.8723,10.0796,1.8544,12.4678-2.9373,14.4722-.1918.0089-.4999.0174-.9737.0174-1.436,0-3.598-.0773-6.1013-.1668-3.9787-.1422-8.9302-.3193-14.2711-.3193-4.1535,0-7.8533.1055-11.3108.3227-15.72.9998-31.32,9.6955-40.6788,17.5001-6.5247,5.4295-14.2333,8.0706-23.5621,8.0706-3.6812,0-6.9498-.4185-9.3363-.724-.9158-.1172-1.7261-.2209-2.4454-.2883-.1534-1.3682.1557-4.1438.3711-6.0777.4203-3.7734.8967-8.0501.2094-12.2485-1.9086-11.7699,2.3407-21.2128,5.7552-28.8004,7.2226-16.0261,18.8095-26.6071,25.0734-31.4876,4.854-3.79,8.1868-5.5446,11.1274-7.0927,4.078-2.1471,7.6-4.0013,12.1174-9.4808,9.5452-11.5575,11.4217-24.5842,12.3234-30.8445l.0076-.0532c1.2007-8.4255,3.0118-21.1342-3.6829-32.7928-3.5404-6.1757-7.4749-8.6396-11.2799-11.0226-2.311-1.4473-4.4939-2.8144-6.9088-5.1911-10.9749-10.8199-11.2003-27.7799-11.3351-37.9132-.0372-2.7953-.0665-5.0031-.291-6.7932-.6926-5.5239-3.8723-6.6425-5.7061-6.8175-.1968-.018-.3725-.0261-.5529-.0261-2.1349,0-4.0889,1.0976-5.8079,3.2625-5.0119,6.3119-9.9285,23.7638-6.1241,40.1141,1.9786,8.5262,6.3904,17.3679,13.1121,26.2767,3.6248,4.7968,6.4226,7.3647,8.4654,9.2397,2.1791,2,3.1736,2.9128,4.1751,5.4354,4.4301,11.1684,1.8261,20.3072.9099,22.0656-.8719,1.3566-1.6909,2.7787-2.4834,4.1548-2.8433,4.9372-5.7835,10.0424-12.5134,14.8446-8.2841,5.9013-12.2311,9.9122-15.7134,13.4512-1.9738,2.0058-3.6782,3.7379-6.0014,5.6414-10.5352,8.6319-17.5625,19.5841-20.8865,32.5524-.0625.2439-.1119.4402-.1529.5841-3.4265,11.8571-15.3184,45.0638-28.9557,55.9772-3.448,2.7567-17.6782,10.4236-20.8232,11.7858-6.274,2.7198-12.1259,3.2905-15.9306,3.2905l-.4134-.0021c-7.0321-.0742-11.2735-1.8845-21.5205-6.2581-1.8799-.8024-3.9364-1.68-6.2186-2.6347-13.0106-5.4428-19.1979-7.4672-22.8947-8.6766-3.5001-1.1452-4.2286-1.3835-6.8633-3.1753-10.7432-7.3116-21.7256-18.3361-20.3398-27.3562.2562-1.6497,3.3912-5.5829,24.6919-22.1858,5.3713-4.1839,9.4271-7.2554,12.686-9.7234,8.838-6.6932,11.5053-8.7132,14.9689-13.9845,4.3729-6.6628,5.7053-11.8452,6.7759-16.0093,1.0438-4.0601,1.6187-6.2967,4.5465-8.7892,3.6042-3.0748,6.7833-3.0991,12.0502-3.1393,4.5267-.0345,10.1604-.0774,16.9908-2.4687,25.4521-8.9099,36.5551-38.984,37.0117-42.1157.2866-1.9661-.4698-3.8108-2.0233-4.9347l-1.3116-.9488-1.6311-.0035c-2.4888,0-3.5859,1.3566-5.4033,3.6041-1.6453,2.0346-5.0688,6.2683-11.2646,13.2509-3.2178,3.6188-5.7982,6.4354-9.6853,9.6994-4.4981,3.7701-7.076,5.0781-9.5618,5.8812-1.114.36-2.6752.8644-3.9309,1.0641.2114-1.158.7659-2.9377,1.7792-4.9886.8446-1.7005,1.5213-2.382,2.458-3.3254,1.0422-1.0496,2.3393-2.356,3.5962-4.6975,4.8593-9.0228,1.3726-19.0042.9589-20.1127-4.0753-10.9872-14.5588-15.8698-17.8551-15.8698-1.5346,0-2.9693.6598-3.9365,1.8101-1.4897,1.7998-1.7957,4.7658.4535,7.01.2494.2488.5113.4775.8429.7671,1.2914,1.1276,3.9788,3.4742,5.8328,7.4318.9196,1.9582,2.1764,4.6343,1.6558,7.5499-.3255,1.8165-1.264,3.145-4.1814,7.07-1.5734,2.1178-2.4934,3.0237-3.3051,3.8231-1.058,1.042-2.1521,2.1194-3.3065,4.4358-1.6219,3.27-1.8435,5.8554-1.9901,7.5663-.1131,1.3189-.1429,1.3521-.3087,1.5361-.1635.1813-.2076.2302-1.6602.5972-1.1746.2968-2.7834.7033-4.7695,1.5566-5.3458,2.2997-8.5073,5.7193-11.5647,9.0263-5.0724,5.4847-7.1836,10.6887-9.0464,15.28-.8266,2.0374-1.6073,3.9618-2.616,5.8906-2.5542,4.8934-4.5646,6.1619-9.4215,9.2261-4.7719,3.0108-11.3073,7.1341-21.4292,16.6841-2.1691,2.0483-3.9557,3.829-5.532,5.4002-5.3672,5.3496-7.0812,6.923-10.8238,7.6214-.9896.1848-2.0188.2785-3.0594.2785-5.5138,0-10.3109-2.5933-12.1176-3.7083-4.6308-2.83-7.8279-6.5614-9.5209-11.102-2.6334-7.0826-1.6102-11.4806-.2881-13.9222,1.0782-1.9876,2.1661-2.5291,5.4425-3.9406,3.0088-1.2961,7.1294-3.0713,12.0836-7.1825,8.0946-6.7252,12.3471-14.6358,15.1611-19.8704,1.4733-2.7307,1.9851-4.0812,3.6809-8.5556.8386-2.2127,1.9871-5.2431,3.7233-9.6951,6.3535-16.2798,8.11-19.592,9.4514-20.5322,1.4413-1.0082,2.2006-1.1133,4.4547-1.4251,2.7672-.3827,6.5569-.9068,12.9239-3.4715,6.296-2.5372,10.8444-4.3701,14.8051-8.8433,4.1948-4.7309,4.8088-9.1346,5.3021-12.6729.3174-2.2763.5467-3.9209,1.6312-5.6089,4.1616-6.477,16.6315-6.9208,24.0821-7.186,2.0508-.0731,3.8219-.1361,5.2079-.3113,5.4275-.686,6.1638-4.1034,6.2284-5.5409.0623-1.5361-.5097-3.0011-1.6099-4.1468-3.5312-3.6774-14.4823-4.4827-18.404-4.4827-.2406,0-.4814.0019-.7211.0056-4.9495.0747-12.4362.1877-19.7982,5.317-5.5782,3.8895-8.3267,9.7872-11.2365,16.0312l-.5929,1.27c-.6686,1.4258-1.1419,2.556-1.5221,3.4641-.7384,1.7633-1.044,2.4932-2.0224,3.7387-1.9958,2.5447-4.4137,4.3651-5.7889,4.9533-.6033-1.2378-1.5141-3.0936-3.2564-5.4873-1.9385-2.6541-3.4107-3.94-4.5938-4.9733-.6894-.6021-1.1449-1-1.6375-1.631-3.4812-4.4359-2.1713-11.6908-1.7408-14.0748.4772-2.7169,2.478-11.7112,8.3679-14.3718,1.0334-.466,1.6316-.4998,2.4935-.4998.2195,0,.4394.0034.6622.0067.2781.004.56.008.8491.008,1.9115,0,4.3133-.1713,7.6336-1.4419,4.4001-1.6896,6.5482-3.8045,8.2744-5.5038,1.2286-1.2096,2.0403-2.0087,3.7505-2.7076,1.5349-.6291,3.1861-.9339,5.0522-.9338,2.4951.0002,4.8191.5476,6.6864.9876,1.4507.3418,2.5965.6116,3.7444.6116,2.9878,0,4.7282-1.8469,5.3608-3.5754.5199-1.3984.4305-2.9706-.2601-4.4034-1.8173-3.7701-8.4665-6.7877-11.7285-7.8565-1.7387-.5731-5.3735-1.7708-9.4967-1.7708-3.2279,0-6.1659.7246-8.7326,2.1538-3.5593,1.9749-5.0306,4.5241-6.1048,6.3854-.8518,1.4758-1.0885,1.8398-2.0273,2.2481-.4975.2173-.7405.2344-1.0071.2344-.2849,0-.6555-.0314-1.0848-.0676-.6372-.054-1.4301-.1211-2.3642-.1211-1.7199,0-3.468.2345-5.3441.7167-5.5039,1.4195-9.2198,4.2262-10.6186,5.2828-2.8407,2.1226-6.8418,5.8865-9.6539,11.6748-3.6895,7.5923-3.242,14.5853-2.8825,20.2042l.0072.1099c.3905,5.9427.6262,9.5296,2.9752,13.8705.4951.9139.9775,1.6633,1.4033,2.3245.8981,1.3951,1.0461,1.7028,1.0549,2.1957.0075.3924-.1418.7512-1.0652,2.5667-.2431.4778-.5106,1.0041-.8018,1.5959-.8936,1.8122-1.6174,3.6279-2.3174,5.3836-.5042,1.2648-.9805,2.4594-1.5025,3.6145-2.4385,5.4002-3.7352,9.5453-4.9892,13.554-1.4778,4.7241-2.754,8.8039-5.7529,14.4055-2.2635,4.2292-4.2184,7.8813-8.2193,11.6688-2.0475,1.9359-5.4784,5.1795-10.8414,7.0913-2.1065.7495-3.6431.9766-5.2698,1.2169-2.4506.3621-5.2281.7725-9.0407,2.8352-1.0961.5926-2.0185,1.1785-2.8001,1.7275-.4113-3.1034-.6005-8.3159-.0542-15.6799.2021-2.6145.6785-8.7733,4.9701-25.7013,1.7826-7.0192,3.0327-11.2319,4.0372-14.6168,1.3864-4.6719,2.3022-7.7584,3.2104-13.7758,1.6476-10.9047,2.7361-18.1094-.2051-26.8506-1.3468-4.0087-2.9138-6.4632-4.1728-8.4353-1.3446-2.1062-2.0853-3.2665-2.4146-5.9086-.7305-5.8679,1.8533-10.8589,4.5887-16.1431,1.3914-2.7022,5.0742-9.8546,12.7269-15.2395,3.5701-2.5102,5.7727-3.1072,8.3231-3.7984,2.6944-.7302,5.7481-1.5578,9.7366-4.3784,12.3236-8.7109,16.5667-24.4711,16.1787-29.2739-.2327-2.8802-2.1213-4.1007-2.9225-4.4918l-1.0381-.5067-1.1876-.0075h0Z"/>
      </g>
      <path class="cls-2" d="M420.4796,395.3075c-5.33,2.8701-11.6299,3.04-17.61,3.97-9.4301,1.48-14.2899,8.68-23.2899,11.85-8.1101,2.86-21.26,1.76-29.2001-1.54-7.0699-2.93-11.71-10.17-13.12-17.7-.64-3.41-.8201-6.83-.6-10.21,1.37-20.66,17.9301-39.7401,38.0599-44.23,16.1301-3.6,33.8901,1.72,45.6001,13.39.22.21.4299.43.6399.65,1.04,1.08,2.03,2.21,2.9601,3.39,4.25,5.4,7.23,11.81,7.67,18.62.5599,8.6-3.51,17.7401-11.1101,21.81Z"/>
      <path class="cls-3" d="M342.8122,376.9685c-2.2516-1.7087-.5896-10.8782,5.3617-14.1292,3.1887-1.7419,7.9478-1.9698,9.1914,0,1.62,2.566-2.9059,8.5756-7.5162,11.7151-1.4885,1.0136-5.3855,3.6673-7.0369,2.4141Z"/>
      <path class="cls-3" d="M361.9611,350.0126c3.932-5.2297,12.2731-9.2321,22.1422-9.535,7.6909-.236,21.2148,1.6241,24.5812,9.535.7354,1.7281,1.453,4.8427,0,6.4437-1.1537,1.2712-3.3978,1.282-8.9362,0-7.0364-1.6287-10.7334-3.3403-14.0015-4.3404-1.6212-.4962-9.1396-2.8283-17.1475-.766-4.4131,1.1366-7.4603,3.2163-8.1703,2.2979-.6089-.7878,1.0795-3.0334,1.532-3.6352Z"/>
      <path class="cls-9" d="M420.4796,395.3075c-5.33,2.8701-11.6299,3.04-17.61,3.97-9.4301,1.48-14.2899,8.68-23.2899,11.85-8.1101,2.86-21.26,1.76-29.2001-1.54-7.0699-2.93-11.71-10.17-13.12-17.7-.64-3.41-.8201-6.83-.6-10.21.13,5.19,1.1901,11.17,5.1901,16.14.71.89,6.47,7.82,15.8499,8.68.8801.08,5.5701.45,10.9001-1.79,4.99-2.09,7.97-5.41,9.96-7.66,4.6699-5.3,3.79-7.46,8.4199-11.7401,2.49-2.3,5.0801-4.7,8.6801-4.85,4.1801-.18,5.15,2.87,9.71,3.06,4.33.19,7.7201-2.38,9.9501-4.08.9099-.69,5.49-4.28,8.1699-11.24,1.8501-4.78-.61-11.52-2.53-16.71,1.04,1.08,2.03,2.21,2.9601,3.39,4.25,5.4,7.23,11.81,7.67,18.62.5599,8.6-3.51,17.7401-11.1101,21.81Z"/>
      <path class="cls-5" d="M308.5994,370.372c2.2042-5.5031.5964-7.11,2.0425-10.5693,1.4657-3.5062,3.3141-2.2206,12.766-9.8667,1.7582-1.4223,5.1992-4.3558,8.6808-8.4777,5.2021-6.1591,3.8156-8.6854,7.6597-11.5764,4.2869-3.224,6.5399-.9622,12-4.3404,5.234-3.2384,7.6505-8.0928,8.5499-9.9575.7001-1.4513,3.1654-6.9151,2.4287-13.5319-.551-4.949-2.5802-7.73-14.0425-21.7021-8.0839-9.854-12.1897-14.8479-15.3192-18.1277-9.3293-9.7772-14.7123-13.4003-17.3617-15.0638-9.4897-5.9588-14.1155-5.7456-15.5745-5.617-6.1022.5379-10.3259,4.314-11.7446,5.617-2.2468,2.0637-3.2025,3.795-7.9149,13.7872-5.765,12.2241-6.1686,13.5214-8.1702,16.5958-1.703,2.6157-4.7578,7.3077-9.9575,11.4893-1.8309,1.4724-13.4199,10.7922-27.0638,8.9362-6.795-.9244-5.4331-3.4417-20.6808-8.4255-7.0614-2.308-11.2321-3.0359-15.5745-3.0638-5.3191-.0343-5.7006,1.015-9.9574.766-9.7999-.5733-17.3238-6.6927-17.1064-7.1489.1345-.2821,3.2142,1.6342,9.3617,2.9787,3.7104.8115,2.9055.1827,13.1064,1.1915,3.8764.3833,6.7001.7419,9.8723-.6808,2.1235-.9524,2.6885-1.9339,2.8936-2.383.8-1.7512-.0456-3.7797-1.7021-6.8085-2.8029-5.125-4.2803-6.4459-5.6171-8.851-1.9943-3.5882-2.0671-7.1014-2.2128-14.1277-.1133-5.463.5335-5.4898.8511-15.6596.1863-5.9678.0341-8.216-.1702-10.0425-.1987-1.776-.686-6.1324-2.2128-10.2128-3.6384-9.7238-11.8338-14.2828-11.4042-14.8085.3544-.4337,6.1126,2.4498,10.5532,8.1702.878,1.131,3.7017,4.9458,5.2766,10.8936.7128,2.692.8735,4.7023.5107,19.0638-.1904,7.5365-.2762,8.6264-.1702,11.7447.2233,6.5744.3658,9.9402,1.8723,13.7872.3873.989,1.9603,3.7231,5.1064,9.1915,1.4885,2.5872,2.7009,4.6173,4.0851,6.8085,1.1285,1.7865,2.4072,3.7368,2.8936,4.4255,4.4038,6.2368,14.1832,8.656,15.6597,9.0213,3.3198.8213,11.9344,2.4138,21.2765-1.5319,8.9055-3.7613,13.5763-10.4874,16.3405-14.4681,2.5696-3.7003,2.0978-4.1338,12.2554-24.6808,1.8557-3.7537,3.3215-6.6443,6.468-9.3617,3.9421-3.4045,6.442-3.0132,9.7021-6.2979,4.1373-4.1684,4.9047-9.6281,5.1064-11.0638.9266-6.5934-1.9198-10.4167-4.9362-18.8936-1.4884-4.183-4.0911-11.7007-4.5958-19.9149-.7061-11.4903,2.903-21.6765,5.9575-30.2979,2.0801-5.8709,3.9844-9.6986,5.1063-16.8511,1.0837-6.9091.5267-11.1142-.5106-14.4681-.6984-2.2576-1.6819-5.4372-4.2554-8.1702-1.363-1.4475-5.2167-4.941-19.9148-5.617-11.745-.5402-19.8278,1.2057-19.9149.6808-.0723-.4348,5.4004-2.0821,11.5745-2.7234,7.3362-.762,12.8577.1879,17.7021,1.0213,6.2168,1.0695,9.3251,1.6042,12.2552,3.7447,2.8131,2.055,3.7596,4.0615,5.2766,3.7447,2.791-.5829,3.377-8.166,3.5745-10.7234.4922-6.3717-.7932-11.3277-1.3617-13.2766-1.6372-5.6132-3.1602-6.2826-4.766-10.5532-4.9703-13.2181,2.1791-26.5909,2.7234-27.5745,3.5867-6.4815,8.6608-10.3358,9.0214-10.0426.4215.3427-5.9247,6.0833-8.6809,15.8298-.6561,2.3202-2.5416,9.2983-.5106,17.3617,1.6995,6.7473,4.2793,6.8619,6.2979,14.4681.7717,2.9077,2.1683,8.1705,1.0214,14.4681-1.2477,6.8501-4.3087,8.3559-5.6171,16.3404-.5983,3.6506-.3002,5.4216-.3405,8.8511-.1493,12.6945-4.5548,15.7751-8.1702,34.383-.3674,1.8911-1.5132,7.9909-1.532,16-.0289,12.3609,2.662,14.2018,3.4043,14.6383,3.515,2.0671,8.7781-.6327,9.1915-.8511,2.5563-1.3502,3.0037-2.7831,5.1063-4.5957,4.0959-3.5309,8.3633-3.2354,12.5958-4.2553,7.7489-1.8673,12.7262-7.504,16.1702-11.4043,7.2791-8.2434,3.5255-11.6811,12.9362-28.0851,1.9908-3.4704,3.7102-6.6256,7.1489-12.9362,2.3424-4.2987,3.9105-7.2378,4.9362-11.5745.6396-2.7047,1.3307-5.7705.5106-9.3617-.9048-3.9625-2.9857-5.6588-4.4255-8-5.8593-9.5271,2.0879-24.5432,2.2128-24.5106.0907.0237-4.1251,7.926-1.8723,17.1915,1.729,7.1112,4.4255,10.8935,4.4255,10.8936,1.5573,2.1844,3.0874,3.5218,3.5745,6.2979.4695,2.6763-.5602,3.6704.3405,5.617,1.1494,2.4843,4.0175,3.439,5.4468,3.9149.9618.3202,3.5498,1.0513,6.9788.3404,6.61-1.3704,10.1761-6.8206,10.5532-6.4681.3203.2994-1.8413,4.6153-6.298,6.9787-3.4614,1.8356-7.1096,1.8583-9.3617,1.8723-4.1367.0257-4.6093-.9132-6.8085-.3404-1.936.5042-3.8307,1.8206-7.3191,7.1489-2.9332,4.4803-3.5034,6.4667-6.8086,12.9362-3.8446,7.5253-4.3206,7.2795-6.2979,11.9149-2.5414,5.9576-1.8423,6.5678-4.0851,11.5745-2.1403,4.7776-4.1051,9.1638-8.3405,12.766-4.4902,3.8189-10.2158,5.6367-14.9788,7.1489-3.309,1.0506-5.2955,1.3691-8,3.234-.8577.5915-3.8575,2.7658-6.1276,6.8085-1.7823,3.1741-2.2556,5.9701-2.5532,7.8298-.8673,5.4204.1387,9.7047.6808,11.9149.8241,3.3601,1.9631,5.7415,2.8937,7.6596.8473,1.7465,2.7242,5.5531,6.1277,9.5319,3.8624,4.5155,7.6422,8.9343,13.6169,10.0425,4.4795.8309,8.1448-.5791,13.2766-2.5532,1.5735-.6053,5.9856-2.4004,12.0851-6.8085,9.1971-6.6468,8.8584-9.5706,17.1915-15.1489,5.8317-3.9038,6.2789-2.6603,11.5745-6.4681,7.7933-5.6039,12.181-12.1489,13.4468-14.1277,6.6411-10.3822,3.3469-13.8892,9.8724-20.5957,4.192-4.3083,7.4885-7.6962,12.2552-8.6809,1.1912-.246,3.5386-.5619,5.6171-2.383,1.0784-.9448,1.8406-2.0812,3.0638-4.9362,1.9229-4.4876,3.2556-9.1854,3.234-9.1915-.0262-.0074-3.528,6.4863-1.0212,10.8936,1.5009,2.6388,4.5693,3.4988,5.4468,3.7447,5.8718,1.6456,11.225-2.2541,11.4043-1.8723.178.379-4.8701,4.709-11.4043,4.5957-2.694-.0467-2.8727-.7986-5.9574-.8511-4.0621-.069-7.1372,1.1743-10.0426,2.383-3.5933,1.4948-6.8784,2.8615-9.8723,5.9575-1.2629,1.306-2.5698,3.0188-6.2979,12.0851-2.8879,7.0234-2.3073,7.5512-4.2554,11.0638-2.6904,4.8511-6.1083,8.178-8.3405,10.0426-4.7811,3.9936-6.3766,3.1605-14.1277,8.3404-.8704.5816-4.4432,2.9933-8.6808,6.6383-7.3057,6.284-6.6118,7.6535-11.4043,10.8936-6.0306,4.0772-8.3774,2.7525-11.4042,6.4681-3.7399,4.591-3.3312,10.51-3.2341,11.9149.4027,5.8332,3.4072,9.7391,7.1489,14.4681,4.719,5.9642,9.2518,9.2818,17.6171,15.4043,5.1118,3.7413,8.6255,6.2871,13.9741,8.9362,4.7209,2.3381,6.4686,2.5761,12.8344,5.1064,12.3608,4.9133,11.5327,6.3062,18.1277,8.4255,11.9622,3.8441,22.7709,1.8596,27.0638,1.0213,6.6843-1.3053,11.2549-3.4113,16.5957-5.8723,4.5955-2.1176,13.5177-6.6577,22.9788-14.8085,4.4773-3.8573,8.0493-6.9818,11.4894-12.2553,3.2189-4.9345,4.6422-9.1751,6.1277-13.7872,7.6969-23.8969,6.9934-26.502,11.234-36,2.8812-6.4532,5.8864-13.0282,12.2554-19.6596,3.9105-4.0716,5.1168-4.0285,15.0637-12.2553,7.1857-5.943,11.3292-9.37,16.0852-14.5532,6.0551-6.5989,9.9606-10.8551,12.7659-17.8723,1.0895-2.7252,4.9265-12.6934,2.298-24.2553-3.1229-13.7365-13.4113-21.0965-12.5107-21.9574.8071-.7716,9.8536,4.3912,14.5532,14.0426,4.4086,9.0539,2.9797,17.9261,2.0426,23.7447-1.7242,10.706-6.3921,18.0778-8.1703,20.6809-2.3733,3.4742-4.5836,5.7497-17.6169,16.3404-18.7311,15.2208-19.713,15.0284-23.4894,19.6596-7.9797,9.786-11.1741,19.9391-12.2554,23.4893-4.4216,14.5177-.0093,17.0888-5.3617,29.3617-3.1272,7.1705-6.8354,11.3422-5.1063,16.5958,1.4171,4.3059,5.5638,6.5337,7.6595,7.6596,7.1,3.8144,14.2542,2.6523,22.7234,1.2766,5.4308-.8822,13.7424-2.3108,22.9788-7.6596,9.2659-5.3659,8.1334-8.1163,16.3405-12.5106,10.4178-5.578,20.9622-5.8149,25.7872-5.8723,12.0485-.1435,15.047,3.2723,26.2979,1.2766,9.6757-1.7163,12.5239-5.1412,13.2766-6.1277.7849-1.0287,3.1208-4.4254,2.5531-14.8085-.5886-10.7659-3.4745-13.962-3.8297-19.1489-1.2445-18.1743,30.4211-33.9062,30.3829-33.9575-.0231-.0309-11.996,5.1555-19.1489,18.383-1.7412,3.2198-6.7092,12.407-5.6171,23.4894.6318,6.4111,2.8591,9.0672,2.0426,16.3404-.4663,4.1541-1.5427,6.4039-.2554,9.4468,1.4608,3.4529,4.762,5.0827,8.0852,6.7234,2.2346,1.1033,7.4957,3.7008,14.2979,3.4043,3.644-.1588,7.4603-1.1365,19.7446-8.8511,12.428-7.8048,11.205-8.4893,17.7021-11.9149,3.9615-2.0887,13.0537-6.7666,25.1915-7.4893,12.4082-.7388,22.5778,2.9785,22.468,3.7447-.1278.8918-13.9392-3.8943-30.2979,1.0213-8.7903,2.6414-15.7815,7.3224-23.1489,12.2553-8.9539,5.9951-9.3722,7.8266-17.7021,12.5957-8.4883,4.8597-15.0149,8.4792-22.1277,6.8085-4.4307-1.0407-4.4443-3.0432-10.8936-5.1064-3.9811-1.2736-7.4993-1.6377-14.9788-1.7021-9.7345-.0839-14.4685.4408-21.4468.6808-17.1682.5907-16.3489-1.627-23.1489-.3404-9.2112,1.7428-9.5413,5.5901-26.8937,16.3404-14.0603,8.7108-21.8345,13.3919-32.3403,13.2766-7.7352-.0849-7.2832-2.6639-16.3405-3.0638-14.3884-.6354-25.2925,5.4421-30.6383,8.5107-9.1442,5.2489-15.203,8.7266-16.3405,14.9787-1.1038,6.0665,3.4092,9.3407,2.0426,19.0638-.2908,2.0687-.9882,4.3295-2.3831,8.8511-2.312,7.4948-3.4681,11.2421-5.4468,12.9362-4.4377,3.7994-12.6387,3.1287-17.7463-.3404-4.2871-2.9118-3.9047-6.1167-8.3187-13.1389-.8967-1.4265-6.2845-9.8403-14.4456-15.1518-8.2621-5.3772-16.4835-5.6986-26.5532-6.0923-9.1056-.356-18.3629-.7179-28.5957,4.0851-10.8398,5.0879-17.3448,13.4231-20.1968,17.1589-5.3784,7.0455-5.6755,10.6303-13.1649,19.2666-7.6804,8.8566-11.4058,9.7426-13.9575,9.5319-3.4342-.2836-7.3204-2.7668-7.8297-5.7324-.278-1.619.6096-2.454,1.7021-5.1816Z"/>
      <path class="cls-5" d="M290.727,388.1159c-5.9264,4.4232-15.3093,3.4949-22.1702,3.0638-.0001,0-14.4713-.9092-29.1489,0-13.7483.8517-16.0444,2.7365-21.9574.566-5.6957-2.0907-8.981-5.8662-15.3192-13.332-7.741-9.1181-8.9099-13.0527-15.8298-22.7234-5.0346-7.036-10.6577-14.8944-19.1489-21.9575-13.9725-11.6224-29.013-15.5195-29.3617-14.8085-.3543.7225,14.8806,5.3489,29.3617,19.9149,8.3051,8.3537,13.6642,17.2629,18.6383,25.5319,9.032,15.0151,9.7729,21.0141,18.3829,27.3192,2.2771,1.6675,8.6213,6.2033,17.617,7.4043,6.9143.9231,8.5305-1.0405,19.9149-1.2766,10.5746-.2194,16.1471-.2552,19.9149,3.5745,3.2295,3.2825,3.4772,7.7216,3.8298,14.0426.1763,3.1583.5314,11.2943-3.8298,19.9149-1.1421,2.2576-2.0029,3.3529-10.2128,12.766-11.755,13.4778-13.776,15.5727-13.532,15.8298.4771.5026,9.3802-6.262,17.6171-15.5745,5.3052-5.998,7.9578-8.997,10.2128-14.0425,2.5273-5.6549,1.7543-7.5348,5.8723-20.4255,2.3474-7.3483,3.467-9.4558,5.6171-11.234,2.6056-2.155,5.6296-2.921,11.234-4.3404,4.3712-1.1071,5.9933-1.0127,10.2128-2.5532,4.631-1.6907,6.0494-3.0358,6.8937-4.3678,1.3103-2.0672,1.3636-4.3021,1.2766-5.5897-3.2795-.9771-8.1124-1.8055-12.766.2553-1.6931.7498-2.7272,1.6007-3.3192,2.0426Z"/>
      <path class="cls-5" d="M190.8122,412.7716c-2.8932,6.0872-6.6948,9.6836-14.2979,16.8763-2.5774,2.4383-9.0079,8.1943-18.7234,13.2766-2.7729,1.4505-7.4619,3.8731-13.9575,5.7872-10.8256,3.1902-14.173,1.2857-25.8724,3.7447-7.1058,1.4935-12.824,2.6953-18.7234,6.4681-12.8829,8.2388-17.5522,22.9323-16.6808,23.4893.8708.5567,5.8769-13.9016,20.7659-21.4468,6.3671-3.2266,5.0974-.403,29.2766-5.7872,8.0068-1.783,14.1266-3.4243,18.383,0,2.9134,2.3438,4.2188,6.4696,4.4255,7.149.3191,1.0484.8625,3.2228.3404,8.8511-.5414,5.8373-1.7478,10.2027-2.0425,11.2496-2.8371,10.0787-6.3204,15.325-5.7872,15.644.6256.3743,7.1808-5.7946,10.2128-15.3192,3.1223-9.8082-.5474-13.5762,2.0425-23.4894,1.7398-6.6594,4.9097-10.7535,10.5532-18.0425,4.695-6.064,11.0204-14.2336,21.7872-21.1064,7.3805-4.7111,13.1006-6.4209,13.9575-11.5745.4661-2.8034-.4998-6.6696-2.7234-7.4894-1.8215-.6715-3.9448.9008-5.4468,2.0426-4.7023,3.5748-6.8117,8.2511-7.4894,9.6769Z"/>
      <path class="cls-1" d="M685.9596,404.6676c-2.5499,8.63,4.8801,17.46,10.2101,23.79,13.4301,15.94,30.2699,22.35,35.75,24.25,24.7799,8.62,43.7599,4.02,43.91,5.89.1799,2.13-17.6401,7.67-44.42,1.35-8.8199-2.08-32.02-8.16-42.9-22.47-9.6599-12.72-8.97-7.75-19.3999-21.79-1.7001-2.28-10.1602-26.29-29.1101-27.36-5.36-.3-9.04-5.41-28.76.81-20.0601,6.32-29.74,13.01-33.36,12.94-16.15-.33-15.62-8.03-43.0699-17.83-10.75-3.85-28.1101-10.05-35.74-2.59-1.0701,1.05-17.8201,8.64-19.15,21.78-1.7301,17.02,12.47,20.04,15.0599,25.02,5.9301,11.39,22.73,13.6,49.02,17.06,21.72,2.86,23.25.03,34.73,4.04,4.6801,1.64,21.72,7.84,34.72,24.08,11.73,14.64,11.51,26.61,20.4301,28.16,6.0699,1.05,8.58,6.99,20.17,4.28,1.9399-.46,11.4399-5.61,28.59-3.07,16.63,2.46,19.61,2.21,32.17,4.34,6.75,1.15,15.8099,4.88,30.3899,1.79,25.02-5.3,38.6501-30.1,39.8301-28.89,1.53,1.57-18.05,35.58-49.03,39.83-10.95,1.5-23.3-.73-30.63-2.05-16.42-2.95-23.24-7.29-35.75-5.33-7.37,1.15-19.08,4.86-19.4,10.05-.5,7.86,25.3201,15.41,30.6401,16.96,14.4099,4.22,18.0199,2.6,32.6799,5.83,13.6899,3.02,28.85,6.37,40.86,16.41,11.51,9.62,17.4301,23.14,19.9,33.41,1.96,8.1,1.78,14.18.51,14.74-3.03,1.33-7.24-32.81-35.49-46.58-7.49-3.65-21.3301-5.08-36.76-7.91-28.0901-5.16-27.9-2.94-42.1301-8.17-3.3398-1.23-22.5399-3.2599-35.75-21.81-8.7599-12.31-5.48-16.35-15.3099-30.06-4.22-5.88-12.7999-17.85-27.58-24.51-9.17-4.14-10.4399-1.6-39.8301-6.2-15.26-2.39-22.8999-3.59-29.6199-6.26-17.78-7.09-25.27-17.52-28.5901-15.12-3.83,2.77,7.96,15.27,6.13,33.78-1.5699,15.83-11.5699,20.7-12.46,31.84-.13,1.55-.08,3.23.2,5.07,1.12,7.43,4.3199,7.18,8.4301,22.25,3.3,12.09,2.73,17.76,2.29,20.49-1.0901,6.84-3.4102,8.1-5.3601,14.69-3.53,11.99-.29,22.92.77,26.47,5.8301,19.61,23.37,27.93,22.21,29.5-1.21,1.63-21.72-5.72-30.6399-23.75-1.1801-2.39-5.5601-11.52-4.5901-22.98.5801-6.86,2.47-7.25,3.8301-16.85,1.01-7.15,2.05-14.51-.77-22.4901-2.6001-7.34-5.42-6.56-7.66-13.5099-2.5199-7.82-.9401-14.95.77-22.21,2.9301-12.47,5.98-12.35,7.66-20.54.9399-4.61.96-9.44.1799-14.19-1.5-9.12-5.95-17.94-12.4399-24.25-3.1801-3.1-11.6001-11.3-20.6801-9.7-7.4401,1.32-7.64,7.86-18.38,12.76-5.24,2.4-10.1399,2.88-19.9199,3.83-9.5901.94-11.42.08-20.6801.77-12.65.94-19.0699,1.28-22.98,4.14-13.08,9.56-12.4801,31.14-9.1901,43.35,2.8101,10.41,6.76,10.95,7.66,20.68.9801,10.45-3.2999,12.79-4.59,26.95-.26,2.8-.51,5.57-.6101,8.34-.2,6.19.4202,12.33,3.6702,18.49,6.6199,12.55,19.96,17.22,22.98,18.28,6.49,2.27,6.9099.66,18.3799,3.38,10.5601,2.5,16.2001,3.84,22.2101,8.05,2.5699,1.79,12.14,8.7,15.3199,21.45,2.6001,10.39-.4299,19.11-1.53,22.14-5.2999,14.62-15.03,15.09-16.8499,25.35-2.6101,14.7,15,27.16,13.0199,29.1-1.7001,1.68-16.59-5.77-21.4501-19.91-.5-1.47-1.7-5.37-1.6799-10.36.01-2.9.45-6.18,1.6799-9.56,4.4701-12.24,14.2401-11.6,16.8601-21.45,2.73-10.28-4.48-23.97-13.79-27.57-5.74-2.21-7.8,1.13-19.9199,0-3.6201-.34-10.9601-1.02-18.3801-4.6-12.9399-6.23-17.73-17.23-19.9099-16.02-1.76.97,1.86,7.71,3.0601,19.85.5399,5.5,1.26,13.59-1.53,22.98-2.8101,9.42-7.8,15.6-10.73,19.15-6.52,7.92-13.3301,12.21-18.3801,15.32-10.2899,6.35-13.96,5.94-21.45,9.96-20.1799,10.82-26.25,31.36-27.5701,30.64-.7899-.43.4401-8.3,4.9102-17.58,3.96-8.22,10.47-17.54,20.3699-23.78,8.7001-5.49,13.04-4.2,23.74-12.26,6.2001-4.67,14.49-11.08,18.3801-22.21,2.8199-8.05,2.2-15.29,1.5399-22.98-.65-7.57-1.84-9.47-3.83-19.09-3.66-17.64-5.97-28.73-3.0701-41.23,2.41-10.38,6.0701-11.66,5.3601-19.34-.3901-4.27-1.9401-8.5601-4.0701-12.0601-2.9199-4.8199-6.9299-8.14-10.48-7.89-4.28.3-4.2,5.55-12.25,12.29-1.98,1.66-9.22,7.71-19.15,9.19-10.84,1.61-15.27-3.65-20.6801,0-4.21,2.84-5.1899,8.49-6.1299,13.93-1.5,8.65,1.28,10.02,0,18.24-1.3701,8.84-5.8101,15.22-7.66,17.62-4.4,5.71-6.39,4.87-9.1901,9.25-6.48,10.11-1,22.61-2.3,22.92-.6499.15-2.8398-2.84-4.6599-7.24-2.4299-5.9-4.1899-14.33-.7-21.1,2.6699-5.19,6.1299-4.95,10.76-12.86,2.58-4.4,6.28-10.72,3.7899-16.25-1.7599-3.91-6.75-7.72-10.72-6.7-3.85.99-4.5,5.93-5.76,12.03-1.2101,5.91-3,12.9-8.7999,18.42-7.24,6.88-12.24,3.39-20.6801,10.78-12.03,10.53-11.72,26.2401-13.02,25.98-.51-.11-1.12-2.71-1.26-6.61-.3-8.37,1.57-22.68,11.2201-30.92,8.3499-7.12,15.3199-3.54,22.21-11.54,7.09-8.22,1.79-14.38,8.5599-26.06,7.7301-13.32,22.2101-18.36,24.38-19.08,9.02-3,10.99-.22,23.74-3.83,5.7-1.61,12.29-3.54,19.15-8.46,8.4701-6.07,12.63-13.31,16.09-19.31,4.15-7.22,9.5801-16.66,9.95-30,.1702-5.99.55-19.39-7.6499-27.76-.88-.89-.62-.46-9.96-8.64-3.5-3.06-5.54-4.88-6.8101-6.04-.4299-3.88-.05-7.44,2.47-11.34.6101-.96,18.03-2.37,27.1201,2.69,9.2899,5.18,18.1788,13.9305,24.0689,14.0504,5.3199.1,12.7489-.4098,19.1489-3.1798,5.48-2.37,9.2021-12.7068,15.7021-16.0968,4.9-2.55,3.4529,1.5861,18.383-3.0638.3199-.1,6.3002.5574,14.1702-2.0426,11.91-3.94,16.4866-2.8755,19.2766-4.4255,5.6-3.12,2.0702-13.4119,8.1702-17.7919,3.49-2.51,13.6-9.77,25.02-11.51,6.48-.98,12.28-10.96,24.51-8.26,30.86,6.82,29.12,12.92,44.4299,19.86,13.01,5.9,17.29,11.57,28.0801,11.38,12.8799-.22,14.77-8.45,32.1699-11.45,3.71-.64,15.65-2.57,29.1101,1.89,13.24,4.39,22.47,12.12,22.47,12.12,6.2,5.19,8.74,9.44,12.25,8.6801,4.1599-.9,3.1399-7.39,9.7-13.28,4.47-4.01,9.76-5.33,14.3-6.47,8.76-2.19,11.03-.03,15.83-2.8701,5.25-3.09,4.4301-6.78,8.6801-10.14,6.5699-5.18,16.58-2.73,27.0699-.01,16.64,4.31,18.86,9.42,32.17,11.97,10.4399,2.01,18.78.73,23.49,0,6.34-.97,11.8199-2.71,16.62-4.82-7.25,5.53-16.3099,9.9901-26.33,10.02-10,.03-22.3801-4.35-24.51-5.1-9.4001-3.33-11.8901-5.97-21.4301-8.21-8.1901-1.92-15.4501-3.63-21.4601,0-6.2799,3.79-3.98,9.04-10.21,13.34-7.27,5-12.76-.51-23.49,4.02-2.03.85-11.02,4.65-13.28,12.29Z"/>
      <path class="cls-7" d="M587.2796,398.5176c-4.73,2.17-7.72,3.59-9.4,3.56-16.15-.33-15.62-8.03-43.0699-17.83-10.75-3.85-28.1101-10.05-35.74-2.59-1.0701,1.05-17.8201,8.64-19.15,21.78-1.7301,17.02,12.47,20.04,15.0599,25.02.53,1.02,1.15,1.96,1.8601,2.84-13.6401-4.76-27.03-15.54-27.2201-27.52-.15-9.76,8.4901-17.57,10.89-19.75,9.05-8.18,19.7-9.05,24.86-9.47,8.2301-.68,14.86.82,21.4401,2.7401,23.71,6.92,27.97,13.86,42.22,18.31,6.36,1.98,12.51,2.79,18.25,2.91Z"/>
      <path class="cls-7" d="M774.8097,610.0976c-3.03,1.33-7.24-32.81-35.49-46.58-7.49-3.65-21.3301-5.08-36.76-7.91-28.0901-5.16-27.9-2.94-42.1301-8.17-3.3398-1.23-22.5399-3.2599-35.75-21.81-8.7599-12.31-5.48-16.35-15.3099-30.06-4.22-5.88-12.7999-17.85-27.58-24.51-9.17-4.14-10.4399-1.6-39.8301-6.2-15.26-2.39-22.8999-3.59-29.6199-6.26-17.78-7.09-25.27-17.52-28.5901-15.12-3.83,2.77,7.96,15.27,6.13,33.78-1.5699,15.83-11.5699,20.7-12.46,31.84-1.62-4.55-2.2401-9.4-1.33-13.75,1.7-8.12,7.5699-9.1,9.1899-18.89,1.1799-7.14-.88-13.02-3.5701-20.43-5.8799-16.15-13.98-22.79-12.09-24.73,2.9601-3.05,14.88,8.03,37.62,16.56,6.9301,2.6,9.13,2.82,49.02,10.73,35.6699,7.07,41.1799,8.34,47.49,14.29,7.5,7.08,4.8601,10.13,16.8501,29.11,9.0599,14.34,14.6699,23.23,24.51,30.64,10.7699,8.11,23.3499,10.68,48.5099,15.83,24.77,5.06,26.7001,2.78,38.3,7.66,5.5699,2.34,21.7799,9.39,34.21,26.55,1.04,1.43,4.7101,6.49,8.17,12.69,1.96,8.1,1.78,14.18.51,14.74Z"/>
      <path class="cls-7" d="M474.7396,471.0476c-1.5-9.12-5.95-17.94-12.4399-24.25-3.1801-3.1-11.6001-11.3-20.6801-9.7-7.4401,1.32-7.64,7.86-18.38,12.76-5.24,2.4-10.1399,2.88-19.9199,3.83-9.5901.94-11.42.08-20.6801.77-12.65.94-19.0699,1.28-22.98,4.14-13.08,9.56-12.4801,31.14-9.1901,43.35,2.8101,10.41,6.76,10.95,7.66,20.68.9801,10.45-3.2999,12.79-4.59,26.95-.26,2.8-.51,5.57-.6101,8.34-1.7699-4.26-2.95-8.87-3.1499-13.55-.47-10.8,4.6-15.13,2.22-27.0601-2.1-10.55-6.86-11.18-10.1499-21.45-.4301-1.34-6.78-22.26,5.5599-39.83,6.9501-9.89,16.7449-12.8036,29.2749-13.4436,10.3099-.53,21.2166,3.4498,29.2766-.1702,7.02-3.15,10.8938-6.9955,19.0638-12.4255,2.02-1.33,4.6204-6.8962,16.3403-4.9362,10.8901,1.81,16.0243,3.9055,21.9543,11.0656,5.49,6.61,11.04,13.3,12.26,22.98.53,4.19.1499,8.18-.8401,11.95Z"/>
      <path class="cls-7" d="M429.6196,634.4975c.0699,8.3701-4.15,14.3701-8.42,20.4301-4.1499,5.8799-6.6099,7.02-9.45,10.46-2.12,2.58-3.6599,5.47-4.75,8.5.01-2.9.45-6.18,1.6799-9.56,4.4701-12.24,14.2401-11.6,16.8601-21.45,2.73-10.28-4.48-23.97-13.79-27.57-5.74-2.21-7.8,1.13-19.9199,0-3.6201-.34-10.9601-1.02-18.3801-4.6-12.9399-6.23-17.73-17.23-19.9099-16.02-1.76.97,1.86,7.71,3.0601,19.85.5399,5.5,1.26,13.59-1.53,22.98-2.8101,9.42-7.8,15.6-10.73,19.15-6.52,7.92-13.3301,12.21-18.3801,15.32-10.2899,6.35-13.96,5.94-21.45,9.96-20.1799,10.82-26.25,31.36-27.5701,30.64-.7899-.43.4401-8.3,4.9102-17.58,3.8499-4.95,8.5798-9.8,13.98-13.79,12.73-9.42,17.49-5.46,31.1499-16.34,5.29-4.21,18.1801-14.74,22.8-32.17,2.39-9.04,1.84-17.22,1.46-22.97-1.0699-15.9301-5.97-25.7401-3.83-26.81,1.9301-.98,5.87,7.15,17.1,16.08,6.7,5.32,12.0801,9.6,19.9199,10.73,7.9501,1.14,9.75-2.21,19.6602-1.03,4.3999.53,10.1899,1.22,15.5699,5.37,9.65,7.42,9.96,19.74,9.96,20.42Z"/>
      <path class="cls-7" d="M340.2696,522.0575c-2.9199-4.8199-6.9299-8.14-10.48-7.89-4.28.3-4.2,5.55-12.25,12.29-1.98,1.66-9.22,7.71-19.15,9.19-10.84,1.61-15.27-3.65-20.6801,0-4.21,2.84-5.1899,8.49-6.1299,13.93-1.5,8.65,1.28,10.02,0,18.24-1.3701,8.84-5.8101,15.22-7.66,17.62-4.4,5.71-6.39,4.87-9.1901,9.25-6.48,10.11-1,22.61-2.3,22.92-.6499.15-2.8398-2.84-4.6599-7.24.0901-2.96.49-5.95,1.26-8.8,1.34-4.98,4.0701-9.56,9.53-18.72,5.22-8.76,7.03-9.97,8.1699-14.99,1.1301-4.96-.1399-6.01,0-17.36.1001-8.36.1801-12.59,1.8301-14.98,3.21-4.66,9.3099-5.6,19.27-7.15,12.8599-1.98,13.6399.62,19.01-2.04,5.96-2.95,5.6499-6.46,16.0599-13.96,5.7101-4.11,8.0599-4.67,10.2101-4.42,4.3398.5,8.74,4.36,9.1899,8.51.21,1.95-.49,3.68-2.03,5.6Z"/>
      <path class="cls-7" d="M245.1396,565.4876c-1.2101,5.91-3,12.9-8.7999,18.42-7.24,6.88-12.24,3.39-20.6801,10.78-12.03,10.53-11.72,26.2401-13.02,25.98-.51-.11-1.12-2.71-1.26-6.61,1.96-4.7,4.21-8.91,5.21-10.79,3.8399-7.19,7.1299-13.35,14.18-17.36,5.73-3.27,8.26-1.87,12.6-5.79,5.6-5.08,4.36-10.13,9.87-13.6201.5901-.3799,1.23-.71,1.9-1.0099Z"/>
      <path class="cls-6" d="M381.3653,304.8818c-1.2645-.9959-3.5223-1.2828-4.8511,0-1.429,1.3795-.9358,3.7557,0,5.1064,1.1189,1.6151,3.4309,2.5722,4.8511,1.7872,1.8998-1.05,2.1592-5.1932,0-6.8936Z"/>
      <path class="cls-6" d="M403.5781,320.201c-.9163-2.8356-3.4419-4.1581-5.1063-3.5745-1.3923.4882-2.0822,2.2751-2.1703,3.5745-.0168.2485-.1497,2.2062.8937,2.9362,1.2383.8663,3.9883-.0981,6.3829-2.9362Z"/>
      <path class="cls-6" d="M441.2378,338.584c.302-.4318,1.4891-2.2719.7659-4.3404-.6702-1.9168-2.5885-2.9082-4.2128-3.0638-2.1965-.2104-4.041,1.09-4.9786,2.5532-.1577.2462-1.6011,2.5795-.5107,4.8511.1134.2361.6317,1.2582,1.7872,1.8936,2.2034,1.2116,5.5602.3774,7.149-1.8936Z"/>
      <path class="cls-6" d="M459.8759,346.8818c.2388-.8317.1693-2.0434-.6382-2.8085-1.0638-1.0082-2.8071-.6709-3.8298,0-1.0184.6681-1.9446,2.0752-1.532,3.4468.3491,1.1603,1.4558,1.6288,1.532,1.6596,1.6465.666,3.9492-.4907,4.468-2.2979Z"/>
      <path class="cls-6" d="M463.5781,314.4563c.1812-.8986.1254-2.4669-.8936-3.0638-1.319-.7727-3.1324.738-3.3192.8936-.2225.1853-2.0857,1.7375-1.5319,3.5745.2433.8068.9226,1.5684,1.7872,1.7873,1.7001.4304,3.5903-1.3703,3.9574-3.1915Z"/>
      <path class="cls-6" d="M362.0887,328.1159c.4202-.8098.8287-2.3511,0-3.3192-.9757-1.1398-3.0355-.7473-4.2128,0-.1127.0715-2.1865,1.4317-1.7872,3.3192.2145,1.0137,1.0552,1.7675,1.9149,2.0425,1.634.5227,3.3741-.6725,4.0851-2.0425Z"/>
      <path class="cls-6" d="M384.9122,325.5627c.2253-1.2217-.7692-2.4766-2.0232-2.6808-.986-.1606-2.1254.3294-2.5449,1.3404-.483,1.1637.1896,2.531,1.2766,3,1.3218.5703,3.0375-.2822,3.2915-1.6596Z"/>
      <path class="cls-6" d="M441.7484,317.7122c-.7196-.8182-2.4524-.9346-3.5745,0-.8955.7459-1.3395,2.1093-.766,3.2547.4934.9854,1.6185,1.5672,2.5549,1.4043,1.8112-.3152,2.8833-3.4108,1.7855-4.659Z"/>
      <path class="cls-6" d="M339.8364,256.3712c-.4238-1.5016-2.3615-2.5203-3.2664-2.0425-1.0017.5288-.9525,3.0044,0,6.1277,2.3885-.3159,3.7262-2.4561,3.2664-4.0851Z"/>
      <path class="cls-6" d="M310.3867,237.2223c.9001-.9554.3884-3.7054-1.2766-4.5958-1.6691-.8925-4.443.1127-5.3617,2.8085,2.9724,2.2028,5.7136,2.7687,6.6383,1.7872Z"/>
      <path class="cls-6" d="M336.57,353.1372c.4509-1.2896.4373-3.2297-.7329-4.2011-1.7036-1.4143-5.4299-.4194-6.3015,2.1006-.6814,1.9698.4484,4.6785,2.5531,5.1644,2.0116.4644,3.8788-1.3406,4.4813-3.0638Z"/>
      <path class="cls-6" d="M323.4079,369.372c.568,2.196-.8473,4.3996-2.8085,5.1816-1.8179.7249-4.1605.2505-5.3617-1.5016-1.0165-1.4828-.9116-3.4373,0-4.851,1.2833-1.9901,3.6067-2.0418,3.7606-2.0426,1.8657-.0091,3.8823,1.1754,4.4095,3.2136Z"/>
      <path class="cls-6" d="M501.6207,294.8393c.4393-1.7153-1.8448-4.5282-4.0851-4.4255-2.1471.0984-4.4279,2.8827-3.7448,6.4681,4.2207.9077,7.4016-.371,7.8298-2.0426Z"/>
      <path class="cls-6" d="M273.1951,396.9669c-.6263-1.4773-3.0331-1.9914-4.6383-1.3617-2.89,1.1338-3.5751,6.1297-2.1702,7.2391,1.0613.838,3.4934-.4008,4.8085-1.5795.3743-.3355,2.7697-2.4824,2-4.2979Z"/>
      <path class="cls-6" d="M300.1739,388.3712c-.5262-.7017-2.075-.7493-3.0638,0-.7325.5551-1.3431,1.6879-.8937,2.6808.3422.7558,1.2,1.2132,1.9354,1.149,1.6162-.1412,2.7842-2.8137,2.0221-3.8298Z"/>
      <path class="cls-6" d="M237.8759,394.2435c.0486-.5388-1.6527-1.6251-3.1914-1.0213-1.3729.5388-1.647,2.0428-1.6595,2.119,3.9266-.2823,4.8176-.7272,4.851-1.0978Z"/>
      <path class="cls-6" d="M199.3228,377.9031c-.733-.6401-1.9967-1.0062-2.5532-.5107-.786.7-.2482,3.1972,1.2766,3.9575.5303.2644,1.4133.435,1.9149,0,.7581-.6575.4312-2.5128-.6383-3.4468Z"/>
      <path class="cls-6" d="M200.3743,405.2223c-.6197-.5137-2.0381.018-2.8387.766-.9161.8559-1.59,2.5245-.7659,3.7021.7607,1.0871,2.2889,1.0286,2.4255,1.0213.236-.4548,2.3228-4.5413,1.1791-5.4893Z"/>
      <path class="cls-6" d="M159.7483,446.0733c-1.3923-.7886-3.1074.4482-3.1915.5107-1.0833.8047-1.7318,2.2726-1.4042,3.7021.083.3622.4519,1.6966,1.7872,2.2979,1.0514.4734,2.3286.3242,3.1915-.383,1.3342-1.0935,1.0159-2.9782.8936-3.7021-.1224-.7247-.3179-1.8825-1.2766-2.4255Z"/>
      <path class="cls-6" d="M169.9611,440.052c-.5625-.5007-1.357-.5985-1.9574-.2553-.6797.3885-1.0082,1.2837-.7234,1.9149.0191.0423.2322.4953.7234.6383.5806.169,1.0903-.2284,1.234-.3404.8274-.6451.7358-1.8244.7234-1.9575Z"/>
      <path class="cls-1" d="M449.5356,384.0308c.5205-2.4926-.4601-5.9076-2.7234-6.7328-2.6202-.9553-5.9489,1.9291-7.1409,4.8316-1.603,3.9034.7471,7.6225,1.0132,8.0288,4.5802-.1474,8.1559-2.7979,8.8511-6.1277Z"/>
      <path class="cls-1" d="M474.3867,361.4461c-1.3301-1.3279-3.3981-1.89-5.0466-1.2451-2.3368.9141-3.7532,4.2231-2.4427,7.4893,2.9503-.5107,5.9008-1.0213,8.8511-1.532.0397-.1829.5583-2.7955-1.3617-4.7123Z"/>
      <path class="cls-1" d="M325.9611,390.0169c-1.6182-1.574-4.8391-1.2919-6.9368,0-2.9875,1.8399-4.7313,6.3657-2.5952,9.2132,1.4336,1.9111,4.3105,2.6605,7.1053,1.8219,4.1232-4.0583,4.4474-9.0694,2.4266-11.0351Z"/>
      <path class="cls-1" d="M375.618,422.1584c.0277-.2018.2566-2.1064-1.1462-3.4043-.1924-.1779-1.4891-1.3777-3.0638-.8936-1.2061.3707-1.9564,1.5388-2.0426,2.6809-.1013,1.343.7448,2.2679.8937,2.4255,1.7864-.2695,3.5726-.539,5.359-.8085Z"/>
      <path class="cls-7" d="M407.8278,413.6478c-.3159-.241-2.1802-1.6022-3.9093-.8763-1.9319.8111-2.6239,3.7776-1.7021,5.8124.7572,1.6714,2.4001,2.266,2.7234,2.383,1.3187.4773,3.4788.6248,4.5864-.6103,1.5066-1.6799.3649-5.1352-1.6984-6.7088Z"/>
      <path class="cls-7" d="M436.0887,418.9244c1.7649-.1569,2.7888-2.0428,3.0272-3.4043.2058-1.1753.0422-3.1922-1.5135-4.0851-1.5859-.9102-3.7518-.1549-4.7477,1.3365-.9028,1.3522-.6627,3.0382,0,4.1667.0763.1299,1.3082,2.1573,3.234,1.9861Z"/>
      <path class="cls-7" d="M462.4718,425.3925c.9653-.9655,1.4869-2.7339.6808-4.0765-.9364-1.5594-3.2383-1.8347-4.7659-.9594-1.6044.9193-2.3221,3.0891-1.5007,5.0359,1.8669,1.4212,4.2751,1.3108,5.5858,0Z"/>
      <path class="cls-7" d="M329.3374,414.9876c-1.1152-.9736-2.8793-.881-4.0571,0-1.2079.9035-1.5861,2.4766-1.1915,3.7666.3145,1.0282,1.254,2.3149,2.7235,2.383,1.4803.0686,2.4315-1.1489,2.5251-1.2729,1.4102-1.516,1.2738-3.7647,0-4.8767Z"/>
      <path class="cls-7" d="M352.1739,438.6691c.9381-1.0527.7878-2.7787,0-3.9149-.808-1.1652-2.3333-1.7779-3.7448-1.3617-1.3315.3926-2.4945,1.6811-2.3829,3.0638.1013,1.2556,1.2058,1.9946,1.5319,2.2128,1.1719.7842,3.4039,1.3374,4.5958,0Z"/>
      <path class="cls-7" d="M339.8364,453.818c1.214-.2084,2.0249-1.5364,2.0131-2.7234-.0156-1.563-1.4607-3.1275-2.9521-2.8936-1.2412.1946-2.0941,1.5688-2.0525,2.8085.0521,1.5537,1.5148,3.062,2.9916,2.8085Z"/>
      <path class="cls-7" d="M464.3441,404.2861c.7845-1.2707.2888-2.9336-.7949-3.7447-1.3479-1.0088-3.5315-.6446-4.3114.851-.6702,1.2852-.0875,2.9909,1.1914,3.7447,1.2749.7514,3.098.472,3.9149-.8511Z"/>
      <path class="cls-7" d="M392.5142,439.4778c.8998-.9925.7358-2.636,0-3.7023-.6936-1.005-1.9698-1.6058-3.234-1.3617-1.394.2691-2.6365,1.5393-2.5532,2.8936.0758,1.2331,1.2157,1.9668,1.532,2.1704,1.0724.6902,3.1364,1.2341,4.2552,0Z"/>
      <path class="cls-7" d="M336.57,501.4776c.6588-1.5457-.0497-3.718-1.6727-4.5958-1.9523-1.0558-4.4979.1558-5.3617,2.0426-.6095,1.3314-.5156,3.2913.7659,4.3404,1.6293,1.3338,3.9519.1911,4.3405,0,.5012-.2466,1.4758-.726,1.9281-1.7872Z"/>
      <path class="cls-7" d="M480.9398,377.1116c-.3152-1.0879-3.9067-2.0243-6.1276,0-1.4515,1.323-1.8816,3.5135-1.0214,5.3873,6.1362-3.1277,7.3722-4.6164,7.1489-5.3873Z"/>
      <path class="cls-7" d="M517.7058,369.372c.0641-1.586-1.9589-2.9696-3.6959-3.2137-2.4648-.3463-5.3018,1.4688-5.2402,3.2137.0551,1.5592,2.4193,2.9111,4.468,2.9141,1.9442.0028,4.3992-1.2078,4.4681-2.9141Z"/>
      <path class="cls-8" d="M494.3441,381.3499c-.0326-1.1467-.9891-2.1114-1.9149-2.1409-1.3694-.0436-2.6444,1.96-2.0425,3.2898.3152.6963,1.1372,1.1911,1.9656,1.1362,1.1172-.0741,2.0245-1.1334,1.9918-2.2851Z"/>
      <path class="cls-8" d="M477.1571,393.7329c-1.1096-.4848-2.5907.5705-3.2385,1.6596-.5094.8564-.933,2.4558,0,3.4468.55.5843,1.4222.7984,2.1702.6383,1.296-.2774,1.791-1.587,1.9149-1.9149.4867-1.2877.3439-3.3096-.8466-3.8298Z"/>
      <path class="cls-8" d="M478.2655,414.9876c.3372-.5103-.3793-1.6134-1.1084-2.216-1.1012-.91-2.8748-1.21-3.2385-.6557-.384.5852.7084,2.2668,2.1735,2.8717.7094.2929,1.8573.4784,2.1735,0Z"/>
      <path class="cls-8" d="M480.3015,439.5627c.0431-1.1659-.7838-2.4482-2.036-2.6808-.7344-.1364-1.7284.0671-2.1693.766-.6586,1.0439.3359,2.528,1.0609,3.1915.324.2965,1.0642.9739,1.8679.766.8502-.22,1.2489-1.2953,1.2765-2.0425Z"/>
      <path class="cls-8" d="M443.4079,431.2976c.1141-1.3885-.8258-2.6433-2.0426-3.0966-1.5582-.5805-3.2379.2773-3.9574,1.5483-.0463.0818-.9574,1.7547,0,3.1751,1.0127,1.5025,3.0701,1.1706,3.1915,1.1489,1.2047-.2145,2.6765-1.1711,2.8085-2.7757Z"/>
      <path class="cls-8" d="M420.0462,448.1777c.6367-1.0437-.1057-2.5136-.766-3.2533-.1956-.219-1.0126-1.1344-2.2979-1.1489-1.2318-.0139-2.6842.8019-2.9362,2.2011-.1956,1.0862.4056,2.1176,1.1489,2.6499.6459.4625,1.3157.4887,1.8768.5107.7108.0278,2.3333.0912,2.9742-.9595Z"/>
      <path class="cls-8" d="M380.8547,446.4621c-.4952-1.3419-2.391-1.7648-3.4468-1.7931-.3086-.0082-2.8953-.0774-3.7021,1.7931-.569,1.3192.0701,2.8548,1.0212,3.6963.1125.0996,1.1454.9852,2.5532.8534,2.2001-.2059,4.2223-2.7942,3.5745-4.5497Z"/>
      <path class="cls-8" d="M398.4718,449.149c.2745-1.0214-.5885-2.2665-1.6595-2.6868-1.3915-.5461-3.2921.2377-3.6831,1.7155-.2869,1.0844.2725,2.4163,1.2576,2.8342.7916.3358,1.5995-.0282,2.2979-.3428.7041-.3172,1.5686-.7066,1.7872-1.5201Z"/>
      <path class="cls-8" d="M355.7058,453.0946c-1.0477-.7558-2.6487-.2424-3.4468.7514-.7595.9457-.8258,2.3688-.1277,3.3336.0881.1217.7676,1.0301,1.8511,1.0213,1.4385-.0117,2.1655-1.6287,2.234-1.7873.3927-.9099.5647-2.5434-.5106-3.3191Z"/>
    </g>
  </g>
</svg>