<?xml version="1.0" encoding="UTF-8" standalone="no"?>
<svg height="100%" stroke-miterlimit="10" style="fill-rule:nonzero;clip-rule:evenodd;stroke-linecap:round;stroke-linejoin:round;" version="1.1" viewBox="0 0 419.58 297.675" width="100%" xmlns="http://www.w3.org/2000/svg">
<defs/>
<g id="Layer1" layerName="Layer1">
<g opacity="1" layerName="(curve)">
<path d="M213.767 25.6653L223.419 24.6456C306.449 24.6456 343.861 27.0509 343.861 96.4755L349.068 160.422C349.068 229.846 308.728 275.443 225.699 275.443L215.388 276.551C132.358 276.551 68.5223 222.271 68.5223 152.847L68.043 146.756C68.043 77.3317 130.738 25.6653 213.767 25.6653Z" fill="#838af5" fill-rule="nonzero" opacity="1" stroke="none"/>
</g>
</g>
<g id="Layer-Nucleus" layerName="Layer Nucleus">
<path d="M108.469 112.56C108.469 112.56 121.561 95.6667 138.347 91.2862C155.134 86.9057 166.171 90.7659 166.171 90.7659C175.649 92.0957 172.526 110.789 171.167 113.872C167.155 122.966 143.672 139.847 143.672 139.847C143.672 139.847 106.7 153.445 133.387 167.836C160.075 182.227 174.626 159.159 181.717 155.519C191.305 150.596 210.169 142.215 218.305 158.302C226.441 174.389 220.689 200.68 214.26 219.867C213.207 223.008 201.479 239.603 186.024 242.817C172.979 245.53 153.929 242.123 153.929 242.123C153.929 242.123 89.304 232.323 89.304 179.749L89.304 178.91C89.304 126.335 108.469 112.56 108.469 112.56Z" fill="#454983" fill-rule="nonzero" opacity="1" stroke="none"/>
<g opacity="1">
<path d="M95.4062 74.1562C93.2796 76.4401 91.2772 78.7967 89.4688 81.3438C87.8433 83.633 86.3786 86.0372 84.875 88.4062C83.0617 91.2632 81.2024 94.0623 79.625 97.0625C77.8767 100.388 76.5236 103.913 75.1562 107.406C74.0149 110.322 72.805 113.239 71.9375 116.25C70.9881 119.545 70.2947 122.914 69.8438 126.312C69.6083 128.087 69.5607 129.885 69.3125 131.656C68.8967 134.623 67.9662 137.498 67.7812 140.5C67.202 149.899 67.947 159.396 69.5938 168.656C72.3751 184.298 77.7476 199.461 86 213.062C88.6471 217.425 91.5402 221.654 94.625 225.719C97.4828 229.484 100.502 233.086 103.969 236.312C109.391 241.358 115.428 245.641 121.531 249.812C124.297 251.702 127.017 253.658 129.875 255.406C133.172 257.423 136.618 259.192 140.125 260.812C151.192 265.926 162.889 269.435 174.688 272.406C184.297 274.826 194.055 277.168 203.969 277.844C209.548 278.224 215.178 277.732 220.75 277.406C230.239 276.852 239.72 276.05 249.125 274.656C261.741 272.787 274.407 270.193 286.156 265.094C298.196 259.868 309.397 251.737 318.688 242.5C321.047 240.154 323.219 237.593 325.375 235.062C327.474 232.599 329.586 230.104 331.469 227.469C333.34 224.85 335.012 222.086 336.531 219.25C349.256 195.493 350.414 167.242 350.531 140.875C350.535 139.343 349.282 138.097 347.75 138.094C346.218 138.09 344.972 139.343 344.969 140.875C344.963 158.461 344.514 176.243 340.469 193.438C338.43 202.102 335.474 210.583 331.125 218.375C328.044 223.895 324.338 228.495 320.281 233.312C318.645 235.255 317.001 237.219 315.219 239.031C310.063 244.275 304.351 249.071 298.281 253.219C294.429 255.851 290.447 258.267 286.219 260.25C274.048 265.959 260.659 268.795 247.469 270.969C239.574 272.27 231.592 272.971 223.625 273.656C220.109 273.958 216.585 274.226 213.062 274.438C210.091 274.616 207.164 274.727 204.188 274.562C193.92 273.995 183.779 271.618 173.812 269.219C162.044 266.386 150.362 262.928 139.375 257.781C136.546 256.456 133.779 255.037 131.094 253.438C127.796 251.473 124.626 249.229 121.438 247.094C115.819 243.33 110.293 239.431 105.281 234.875C101.857 231.762 98.8664 228.272 96.0312 224.625C92.9353 220.642 90.0417 216.532 87.375 212.25C79.0533 198.887 73.574 183.913 70.6562 168.469C68.9236 159.297 68.0903 149.864 68.5625 140.531C68.7133 137.551 69.6188 134.698 70 131.75C70.2296 129.974 70.2522 128.185 70.4688 126.406C70.8797 123.031 71.5312 119.683 72.4375 116.406C73.3821 112.991 74.737 109.652 76 106.344C77.1801 103.252 78.3645 100.168 79.875 97.2188C81.4168 94.2085 83.2527 91.3698 85.0312 88.5C86.5083 86.1167 87.9317 83.7112 89.5312 81.4062C91.3109 78.8419 93.3058 76.461 95.4062 74.1562Z" fill="#454983" stroke="none"/>
</g>
<g opacity="1" layerName="Curve">
<path d="M241.312 23.25C236.524 23.1408 231.734 23.1075 226.938 23.2812C218.722 23.5789 210.535 24.2575 202.375 25.25C188.632 26.9215 174.877 29.3933 161.594 33.3438C156.272 34.9264 151.146 36.9503 145.969 38.9375C140.84 40.9062 135.652 42.7459 130.812 45.375C128.764 46.4881 126.835 47.7895 124.844 49C114.83 55.0877 105.74 62.5909 97.7812 71.1875C91.815 77.6322 86.6456 84.6803 82.6875 92.5312C87.0001 84.2846 92.6631 77.0453 99.125 70.375C107.263 61.9741 116.565 54.9619 126.625 49.0312C128.19 48.1086 129.701 47.126 131.312 46.2812C136.703 43.4553 142.507 41.6021 148.188 39.4688C151.573 38.1972 154.946 36.9353 158.406 35.875C170.063 32.303 182.115 30.0147 194.188 28.4062C205.067 26.9568 216.055 26.0607 227.031 25.8438C236.58 25.655 246.058 26.3726 255.594 26.7188C271.12 27.2824 286.98 27.5935 302.062 31.7188C310.896 34.1349 319.538 37.9817 326.375 44.1875C328.854 46.4373 330.475 50.069 331.75 53.0938C333.959 58.3347 335.563 63.84 336.969 69.3438C339.044 77.4663 340.669 85.727 341.594 94.0625C341.922 97.0235 342.034 99.966 342.156 102.938C342.326 107.072 342.726 111.22 343.062 115.344C343.519 120.928 343.996 126.506 344.406 132.094C344.54 133.908 344.683 135.715 344.781 137.531C344.823 138.306 344.921 139.131 344.844 139.906C344.729 141.434 345.878 142.76 347.406 142.875C348.934 142.99 350.26 141.84 350.375 140.312C350.459 139.066 350.33 137.806 350.25 136.562C350.124 134.615 349.969 132.664 349.812 130.719C349.358 125.08 348.869 119.448 348.375 113.812C348.051 110.115 347.652 106.426 347.469 102.719C347.316 99.6263 347.148 96.5484 346.781 93.4688C345.699 84.3786 343.866 75.3467 341.406 66.5312C339.726 60.5093 337.746 54.4755 334.938 48.875C333.494 45.9959 331.78 43.0382 329.344 40.875C320.913 33.3888 310.325 29.2744 299.406 27C285.056 24.0109 270.283 23.8937 255.688 23.625C250.893 23.5367 246.101 23.3592 241.312 23.25Z" fill="#454983" stroke="none"/>
</g>
<path d="M262.987 74.7854C262.987 72.8149 264.444 71.2174 266.241 71.2174C268.037 71.2174 269.494 72.8149 269.494 74.7854C269.494 76.756 268.037 78.3535 266.241 78.3535C264.444 78.3535 262.987 76.756 262.987 74.7854Z" fill="#454983" fill-rule="nonzero" opacity="1" stroke="#454983" stroke-linecap="butt" stroke-linejoin="round" stroke-width="6.09692" layerName="Oval 1"/>
<path d="M319.866 154.541C319.866 152.571 321.323 150.973 323.119 150.973C324.916 150.973 326.372 152.571 326.372 154.541C326.372 156.512 324.916 158.109 323.119 158.109C321.323 158.109 319.866 156.512 319.866 154.541Z" fill="#454983" fill-rule="nonzero" opacity="1" stroke="#454983" stroke-linecap="butt" stroke-linejoin="round" stroke-width="6.09692" layerName="Oval 15"/>
<path d="M233.604 47.2906C233.604 45.32 235.06 43.7226 236.857 43.7226C238.654 43.7226 240.11 45.32 240.11 47.2906C240.11 49.2612 238.654 50.8586 236.857 50.8586C235.06 50.8586 233.604 49.2612 233.604 47.2906Z" fill="#454983" fill-rule="nonzero" opacity="1" stroke="#454983" stroke-linecap="butt" stroke-linejoin="round" stroke-width="6.09692" layerName="Oval 14"/>
<path d="M279.988 108.157C279.988 106.186 281.445 104.589 283.241 104.589C285.038 104.589 286.494 106.186 286.494 108.157C286.494 110.128 285.038 111.725 283.241 111.725C281.445 111.725 279.988 110.128 279.988 108.157Z" fill="#454983" fill-rule="nonzero" opacity="1" stroke="#454983" stroke-linecap="butt" stroke-linejoin="round" stroke-width="6.09692" layerName="Oval 8"/>
<path d="M307.063 195.049C307.063 193.079 308.52 191.481 310.316 191.481C312.113 191.481 313.57 193.079 313.57 195.049C313.57 197.02 312.113 198.617 310.316 198.617C308.52 198.617 307.063 197.02 307.063 195.049Z" fill="#454983" fill-rule="nonzero" opacity="1" stroke="#454983" stroke-linecap="butt" stroke-linejoin="round" stroke-width="6.09692" layerName="Oval 7"/>
<path d="M246.826 106.478C246.826 104.507 248.283 102.91 250.08 102.91C251.876 102.91 253.333 104.507 253.333 106.478C253.333 108.449 251.876 110.046 250.08 110.046C248.283 110.046 246.826 108.449 246.826 106.478Z" fill="#454983" fill-rule="nonzero" opacity="1" stroke="#454983" stroke-linecap="butt" stroke-linejoin="round" stroke-width="6.09692" layerName="Oval 13"/>
<path d="M295.52 165.665C295.52 163.695 296.976 162.097 298.773 162.097C300.569 162.097 302.026 163.695 302.026 165.665C302.026 167.636 300.569 169.233 298.773 169.233C296.976 169.233 295.52 167.636 295.52 165.665Z" fill="#454983" fill-rule="nonzero" opacity="1" stroke="#454983" stroke-linecap="butt" stroke-linejoin="round" stroke-width="6.09692" layerName="Oval 4"/>
<path d="M305.174 116.867C305.174 112.289 308.886 108.577 313.465 108.577C318.043 108.577 321.755 112.289 321.755 116.867C321.755 121.446 318.043 125.158 313.465 125.158C308.886 125.158 305.174 121.446 305.174 116.867Z" fill="#454983" fill-rule="nonzero" opacity="1" stroke="#454983" stroke-linecap="butt" stroke-linejoin="round" stroke-width="6.09692" layerName="Oval 10"/>
<path d="M181.552 48.8647C181.552 44.2861 185.264 40.5743 189.843 40.5743C194.421 40.5743 198.133 44.2861 198.133 48.8647C198.133 53.4434 194.421 57.1552 189.843 57.1552C185.264 57.1552 181.552 53.4434 181.552 48.8647Z" fill="#454983" fill-rule="nonzero" opacity="1" stroke="#454983" stroke-linecap="butt" stroke-linejoin="round" stroke-width="6.09692" layerName="Oval 5"/>
<path d="M261.308 149.819C261.308 146.979 263.752 144.677 266.765 144.677C269.779 144.677 272.222 146.979 272.222 149.819C272.222 152.659 269.779 154.961 266.765 154.961C263.752 154.961 261.308 152.659 261.308 149.819Z" fill="#454983" fill-rule="nonzero" opacity="1" stroke="#454983" stroke-linecap="butt" stroke-linejoin="round" stroke-width="6.09692" layerName="Oval 9"/>
<path d="M303.705 76.3596C303.705 73.5196 306.148 71.2174 309.162 71.2174C312.176 71.2174 314.619 73.5196 314.619 76.3596C314.619 79.1995 312.176 81.5017 309.162 81.5017C306.148 81.5017 303.705 79.1995 303.705 76.3596Z" fill="#454983" fill-rule="nonzero" opacity="1" stroke="#454983" stroke-linecap="butt" stroke-linejoin="round" stroke-width="0.1" layerName="Oval 16"/>
<path d="M250.814 188.858C250.814 186.018 253.257 183.715 256.271 183.715C259.285 183.715 261.728 186.018 261.728 188.858C261.728 191.697 259.285 194 256.271 194C253.257 194 250.814 191.697 250.814 188.858Z" fill="#454983" fill-rule="nonzero" opacity="1" stroke="#454983" stroke-linecap="butt" stroke-linejoin="round" stroke-width="0.1" layerName="Oval 17"/>
<path d="M230.246 135.547C230.246 132.707 232.689 130.405 235.702 130.405C238.716 130.405 241.159 132.707 241.159 135.547C241.159 138.387 238.716 140.689 235.702 140.689C232.689 140.689 230.246 138.387 230.246 135.547Z" fill="#454983" fill-rule="nonzero" opacity="1" stroke="#454983" stroke-linecap="butt" stroke-linejoin="round" stroke-width="0.1" layerName="Oval 18"/>
<path d="M281.877 191.166C281.877 188.326 284.32 186.024 287.334 186.024C290.348 186.024 292.791 188.326 292.791 191.166C292.791 194.006 290.348 196.308 287.334 196.308C284.32 196.308 281.877 194.006 281.877 191.166Z" fill="#454983" fill-rule="nonzero" opacity="1" stroke="#454983" stroke-linecap="butt" stroke-linejoin="round" stroke-width="0.1" layerName="Oval 19"/>
<path d="M305.384 225.377C305.384 222.653 303.035 220.445 300.137 220.445C297.239 220.445 294.89 222.653 294.89 225.377C294.89 228.101 297.239 230.31 300.137 230.31C303.035 230.31 305.384 228.101 305.384 225.377Z" fill="#454983" fill-rule="nonzero" opacity="1" stroke="#454983" stroke-linecap="butt" stroke-linejoin="round" stroke-width="0.1" layerName="Oval 11"/>
<path d="M201.911 112.25C201.911 109.41 204.354 107.108 207.368 107.108C210.382 107.108 212.825 109.41 212.825 112.25C212.825 115.09 210.382 117.392 207.368 117.392C204.354 117.392 201.911 115.09 201.911 112.25Z" fill="#454983" fill-rule="nonzero" opacity="1" stroke="#454983" stroke-linecap="butt" stroke-linejoin="round" stroke-width="0.1" layerName="Oval 6"/>
<path d="M216.813 81.2919C216.813 79.3213 218.269 77.7238 220.066 77.7238C221.863 77.7238 223.319 79.3213 223.319 81.2919C223.319 83.2624 221.863 84.8599 220.066 84.8599C218.269 84.8599 216.813 83.2624 216.813 81.2919Z" fill="#454983" fill-rule="nonzero" opacity="1" stroke="#454983" stroke-linecap="butt" stroke-linejoin="round" stroke-width="6.09692" layerName="Oval 2"/>
<path d="M258.16 219.186C258.16 213.854 262.624 209.531 268.13 209.531C273.636 209.531 278.099 213.854 278.099 219.186C278.099 224.518 273.636 228.84 268.13 228.84C262.624 228.84 258.16 224.518 258.16 219.186Z" fill="#454983" fill-rule="nonzero" opacity="1" stroke="#454983" stroke-linecap="butt" stroke-linejoin="round" stroke-width="6.09692" layerName="Oval 12"/>
<path d="M280.618 54.4267C280.618 49.0945 285.081 44.772 290.587 44.772C296.093 44.772 300.557 49.0945 300.557 54.4267C300.557 59.7588 296.093 64.0814 290.587 64.0814C285.081 64.0814 280.618 59.7588 280.618 54.4267Z" fill="#454983" fill-rule="nonzero" opacity="1" stroke="#454983" stroke-linecap="butt" stroke-linejoin="round" stroke-width="6.09692" layerName="Oval 3"/>
</g>
<g id="Layer-White" layerName="Layer White">
<g opacity="1">
<path d="M154.938 91.9375C151.169 92.0855 147.416 92.9177 143.844 94.0938C142.659 94.4836 141.441 94.8718 140.312 95.4062C138.681 96.1792 137.137 97.1612 135.594 98.0938C134.369 98.8338 133.112 99.5554 131.938 100.375C131.074 100.978 130.252 101.605 129.375 102.188C126.214 104.288 123.178 106.52 120.25 108.938C118.292 110.554 116.39 112.24 114.719 114.156C113.042 116.171 113.298 119.167 115.312 120.844C117.327 122.521 120.323 122.265 122 120.25C123 118.967 124.182 117.821 125.344 116.688C127.5 114.583 129.756 112.576 131.938 110.5C133.087 109.406 134.175 108.26 135.375 107.219C136.461 106.277 137.541 105.357 138.594 104.375C139.687 103.356 140.791 102.333 141.938 101.375C142.306 101.067 142.68 100.682 143.094 100.438C146.89 98.1931 150.952 96.2879 155.312 95.4688C161.636 94.2809 168.634 95.972 171.625 102.188C172.43 103.86 172.854 105.775 172.344 107.594C173.365 105.229 172.763 102.443 171.656 100.219C168.571 94.0186 161.476 91.6807 154.938 91.9375Z" fill="#ffffff" stroke="none"/>
</g>
<g opacity="1">
<path d="M118.438 112.125C117.229 112.249 116.077 112.858 115.25 113.875C113.961 115.493 112.651 117.11 111.312 118.688C110.672 119.442 109.973 120.149 109.375 120.938C107.818 122.991 106.516 125.298 105.125 127.469C102.813 131.076 100.511 134.642 98.8125 138.594C95.8683 145.444 94.6749 152.562 93.0625 159.781C92.5311 162.16 91.9188 164.523 91.5625 166.938C90.7444 172.482 90.7096 178.205 91.5 183.75C92.0556 187.648 93.0322 191.498 94.4062 195.188C101.161 213.327 117.016 226.217 133.938 234.562C140.726 237.911 147.74 240.577 155.156 242.156C160.867 243.372 166.637 243.934 172.469 244.062C166.682 243.629 160.985 242.758 155.375 241.25C149.56 239.687 144.005 237.475 138.656 234.719C119.114 224.649 100.226 207.98 97.7188 184.875C97.2572 180.621 97.3766 176.289 98.0312 172.062C98.5794 168.523 99.4961 165.054 100.406 161.594C102.232 154.654 104.165 147.542 107.375 141.094C109.01 137.809 111.161 134.837 113.219 131.812C114.395 130.084 115.45 128.23 116.75 126.594C117.282 125.924 118.052 125.19 118.656 124.5C119.993 122.975 121.298 121.404 122.594 119.844C124.247 117.81 123.94 114.841 121.906 113.188C120.889 112.361 119.646 112.001 118.438 112.125Z" fill="#ffffff" stroke="none"/>
</g>
</g>
</svg>
