<svg stroke-miterlimit="10"
  style="fill-rule:nonzero;clip-rule:evenodd;stroke-linecap:round;stroke-linejoin:round"
  viewBox="0 0 1800 2160" xml:space="preserve" xmlns="http://www.w3.org/2000/svg"><g layerName="Layer Black" stroke="#000" stroke-linecap="square" stroke-linejoin="bevel" stroke-width="12.984"><path d="M839.009 1467.34h0c.597.01 1.072.63 1.062 1.39l-3.701 284.29c-.01.77-.502 1.38-1.098 1.37h0c-.597 0-1.072-.62-1.062-1.39l3.701-284.29c.01-.76.502-1.38 1.098-1.37z" layerName="Rectangle 1"/><path d="M1012.54 1468.81h0c.6 0 1.08.63 1.07 1.39l-3.7 284.29c-.01.76-.51 1.38-1.1 1.37h0c-.6 0-1.07-.63-1.06-1.39l3.7-284.29c.01-.76.5-1.38 1.09-1.37z" layerName="Rectangle 2"/></g><g layerName="Layer Inner" stroke-linecap="square" stroke-linejoin="bevel" stroke-width="12.984"><path d="M970.842 941.341h83.428c15.85 0 28.71 12.575 28.71 28.087v190.812c0 15.52-12.86 28.09-28.71 28.09h-83.428c-15.856 0-28.711-12.57-28.711-28.09V969.428c0-15.512 12.855-28.087 28.711-28.087z" fill="#5c5fc1" stroke="#5c5fc1" layerName="Rectangle 7"/><path d="M799.847 941.341h81.971c15.58 0 28.211 12.631 28.211 28.211v191.658c0 15.58-12.631 28.21-28.211 28.21h-81.971c-15.58 0-28.21-12.63-28.21-28.21V969.552c0-8.39 3.663-15.925 9.477-21.093a28.105 28.105 0 0 1 18.733-7.118z" fill="#5c5fc1" stroke="#5c5fc1" layerName="Rectangle 8"/><path d="m1328.72 882.15 35.37 75.554c6.72 14.36.79 31.334-13.26 37.911l-172.82 80.905c-14.04 6.58-30.88.27-37.61-14.09l-35.37-75.553c-6.72-14.361-.78-31.334 13.26-37.912l172.82-80.908c14.05-6.578 30.88-.268 37.61 14.093z" fill="#8d8fcd" stroke="#8d8fcd" layerName="Rectangle 12"/><path d="m524.169 887.334-35.373 75.554c-6.724 14.361-.786 31.335 13.263 37.912l172.814 80.91c14.048 6.58 30.887.27 37.61-14.09l35.373-75.559c6.724-14.36.786-31.334-13.262-37.911L561.78 873.241c-14.049-6.577-30.888-.267-37.611 14.093z" fill="#8d8fcd" stroke="#8d8fcd" layerName="Rectangle 7"/><path d="m1257.1 729.185 34.76 74.237c6.61 14.111.52 30.905-13.59 37.511l-173.58 81.266c-14.11 6.607-30.9.523-37.51-13.587l-34.75-74.237c-6.61-14.111-.53-30.905 13.58-37.511l173.58-81.266c7.6-3.558 15.98-3.435 23.12-.361a28.088 28.088 0 0 1 14.39 13.948z" fill="#5c5fc1" stroke="#5c5fc1" layerName="Rectangle 13"/><path d="m595.785 734.37-34.757 74.237c-6.606 14.11-.523 30.905 13.587 37.511l173.578 81.266c14.11 6.606 30.904.523 37.51-13.587l34.757-74.238c6.606-14.11.523-30.904-13.587-37.511l-173.578-81.266c-7.599-3.557-15.976-3.435-23.121-.36a28.097 28.097 0 0 0-14.389 13.948z" fill="#5c5fc1" stroke="#5c5fc1" layerName="Rectangle 8"/><path d="M1582.65 810.09c3.03-5.94 2.12-3.264-12.19.606-13.24 3.579-34.85 2.53-52.04-6.793-20.65-11.206-26.52-22.209-31.74-25.002-2.43-1.297-3.59.361-8.07 2.457l-120.06 56.024c-14.11 6.607-20.19 23.401-13.58 37.511l34.75 74.237c6.61 14.111 23.4 20.194 37.51 13.588l178.65-83.984c1.51-.708 12.09-4.307 10.24-4.321-3.94-.03-7.37-2.586-7.92-2.744 0 0-13.09-6.333-19.3-12.847-6.21-6.514-5.53-13.207-5.53-13.207s-2.16-9.562-.97-15.181c1.12-5.292 3.9-9.474 3.9-9.474s2.91-4.143 6.35-10.87z" fill="#42458b" stroke="#42458b" layerName="Rectangle 14"/><path d="M270.241 815.275c-3.038-5.94-2.121-3.264 12.189.605 13.235 3.579 34.85 2.53 52.035-6.793 20.656-11.205 26.518-22.208 31.741-25.001 2.427-1.297 3.591.361 8.067 2.456l120.06 56.025c14.11 6.606 20.193 23.4 13.587 37.511l-34.757 74.237c-6.606 14.11-23.4 20.194-37.511 13.587l-178.646-83.984c-1.51-.707-12.093-4.307-10.235-4.321 3.936-.029 7.365-2.585 7.921-2.743 0 0 13.088-6.334 19.295-12.847 6.206-6.514 5.53-13.208 5.53-13.208s2.162-9.562.97-15.181c-1.123-5.292-3.902-9.473-3.902-9.473s-2.904-4.143-6.344-10.87z" fill="#42458b" stroke="#42458b" layerName="Rectangle 10"/><path d="M1510.44 655.82c6.49 1.537 3.86.501-8.36 8.889-11.31 7.758-24.52 24.897-28.56 44.027-4.86 22.992-.28 34.588-1.54 40.375-.58 2.689-2.6 2.501-7.09 4.551L1344.4 808.77c-14.17 6.462-30.91.209-37.37-13.968l-34-74.587c-6.46-14.176-.21-30.908 13.97-37.37l179.75-81.597c1.51-.692 11.12-6.418 9.92-4.993-2.53 3.016-2.8 7.284-3.04 7.809 0 0-3.66 14.073-2.73 23.021.94 8.947 6.48 12.771 6.48 12.771s5.88 7.845 10.93 10.579c4.75 2.576 9.74 3.17 9.74 3.17s5.04.474 12.39 2.215z" fill="#42458b" stroke="#42458b" layerName="Rectangle 15"/><path d="M342.448 661.004c-6.492 1.538-3.86.501 8.362 8.89 11.304 7.758 24.516 24.897 28.556 44.026 4.857 22.993.278 34.589 1.537 40.376.584 2.689 2.602 2.501 7.099 4.551l120.483 55.107c14.177 6.463 30.908.209 37.371-13.968l34.001-74.586c6.462-14.177.209-30.908-13.968-37.371l-179.75-81.597c-1.517-.692-11.118-6.417-9.924-4.993 2.529 3.016 2.805 7.284 3.045 7.81 0 0 3.661 14.072 2.724 23.02-.937 8.948-6.472 12.772-6.472 12.772s-5.88 7.844-10.932 10.579c-4.757 2.575-9.743 3.169-9.743 3.169s-5.037.474-12.389 2.215z" fill="#42458b" stroke="#42458b" layerName="Rectangle 10"/><path d="M970.042 1207.52h83.428c15.85 0 28.71 12.57 28.71 28.08v190.82c0 15.51-12.86 28.08-28.71 28.08h-83.428c-15.857 0-28.711-12.57-28.711-28.08V1235.6c0-15.51 12.854-28.08 28.711-28.08z" fill="#5c5fc1" stroke="#5c5fc1" layerName="Rectangle 10"/><path d="M801.142 1207.52h81.971c15.58 0 28.211 12.63 28.211 28.21v191.66c0 15.58-12.631 28.21-28.211 28.21h-81.971c-15.58 0-28.21-12.63-28.21-28.21v-191.66c0-8.39 3.663-15.93 9.477-21.1a28.138 28.138 0 0 1 18.733-7.11z" fill="#5c5fc1" stroke="#5c5fc1" layerName="Rectangle 11"/></g><g layerName="Layer Membrane" fill="none" stroke="#313367" stroke-linecap="round" stroke-linejoin="round" stroke-width="3"><path d="M970.345 935.202c-.276 0-.537.086-.812.094h-.25c-17.689 0-32.031 14.043-32.031 31.344v197.5c0 7.08 3.449 13.32 7.906 18.47 4.522 5.99 10.691 10.54 17.906 12.15 1 .24 2.116.26 3.188.38.88.09 1.722.34 2.625.34h87.183c.68 0 1.31-.21 1.97-.25 1.55-.11 3.09-.24 4.57-.56 1.23-.26 2.38-.66 3.56-1.06 1.05-.36 2.06-.73 3.06-1.19.94-.44 1.83-.91 2.72-1.44 1.6-.93 3.09-1.97 4.5-3.15.16-.15.34-.26.5-.41 6.55-5.72 10.75-13.93 10.75-23.19V967.171c0-15.104-10.97-27.711-25.56-30.625-.03-.006-.07.006-.1 0-2.34-.584-4.74-.969-7.22-.969l-84.465-.375z" layerName="Curve 1"/><path d="M969.544 1201.38c-.276 0-.537.08-.812.09h-.25c-17.689 0-32.031 14.04-32.031 31.34v197.5c0 7.08 3.45 13.32 7.906 18.47 4.522 5.99 10.692 10.54 17.906 12.16 1 .24 2.116.25 3.188.37.88.09 1.723.35 2.625.35H1055.26c.68 0 1.31-.21 1.97-.25 1.55-.12 3.09-.25 4.56-.57 1.24-.25 2.39-.66 3.57-1.06 1.05-.35 2.06-.73 3.06-1.19.94-.43 1.83-.9 2.72-1.43 1.6-.93 3.09-1.98 4.5-3.16.16-.14.34-.26.5-.41 6.55-5.72 10.75-13.93 10.75-23.18v-197.07c0-15.1-10.97-27.71-25.56-30.62-.03-.01-.07.01-.1 0-2.34-.58-4.74-.97-7.22-.97l-84.466-.37z" layerName="Curve 57"/><path d="M799.678 1201.38c-.276 0-.537.08-.813.09h-.25c-17.688 0-32.031 14.04-32.031 31.34v197.5c0 7.08 3.45 13.32 7.906 18.47 4.522 5.99 10.692 10.54 17.907 12.16.999.24 2.116.25 3.187.37.88.09 1.723.35 2.625.35h87.188c.674 0 1.303-.21 1.968-.25 1.544-.12 3.088-.25 4.563-.57 1.231-.25 2.384-.66 3.562-1.06 1.049-.35 2.068-.73 3.063-1.19.938-.43 1.832-.9 2.719-1.43 1.6-.93 3.095-1.98 4.5-3.16.162-.14.34-.26.5-.41 6.548-5.72 10.75-13.93 10.75-23.18v-197.07c0-15.1-10.968-27.71-25.563-30.62-.03-.01-.064.01-.094 0-2.34-.58-4.745-.97-7.218-.97l-65.532-.22-18.937-.15z" layerName="Curve 58"/><path d="M798.383 935.202c-.276 0-.537.086-.813.094h-.25c-17.688 0-32.031 14.043-32.031 31.344v197.5c0 7.08 3.45 13.32 7.906 18.47 4.522 5.99 10.692 10.54 17.907 12.15 1 .24 2.116.26 3.187.38.88.09 1.723.34 2.625.34h87.188c.674 0 1.303-.21 1.968-.25 1.544-.11 3.088-.24 4.563-.56 1.232-.26 2.384-.66 3.562-1.06 1.049-.36 2.068-.73 3.063-1.19.938-.44 1.832-.91 2.719-1.44 1.6-.93 3.095-1.97 4.5-3.15.162-.15.34-.26.5-.41 6.548-5.72 10.75-13.93 10.75-23.19V967.171c0-15.104-10.968-27.711-25.563-30.625-.03-.006-.064.006-.094 0-2.34-.584-4.745-.969-7.218-.969l-65.532-.219-18.937-.156z" layerName="Curve 55"/><path d="M1334.07 879.096c-.12-.25-.31-.45-.43-.696l-.11-.226c-7.5-16.02-26.3-23.055-41.97-15.719l-2.46 1.153-176.4 82.589c-6.41 3.002-10.6 8.773-13.38 14.992-3.51 6.635-5.01 14.152-3.41 21.371.2 1.006.66 2.025 1.01 3.046.29.835.42 1.706.8 2.523l.17.368 36.63 78.223.17.37c.28.61.74 1.09 1.06 1.68.76 1.35 1.53 2.69 2.44 3.89.76 1.01 1.61 1.88 2.48 2.78.76.8 1.53 1.56 2.37 2.27.79.66 1.6 1.27 2.45 1.85 1.53 1.06 3.11 1.96 4.77 2.74.2.08.38.2.58.28 7.96 3.5 17.18 3.83 25.56-.1l176.97-82.853 1.5-.702c13.68-6.404 20.45-21.683 16.9-36.137-.01-.029-.04-.055-.04-.085-.47-2.366-1.14-4.708-2.19-6.948l-35.47-76.659z" layerName="Curve 63"/><path d="M518.82 884.281c.117-.25.305-.45.429-.696l.106-.227c7.5-16.02 26.3-23.054 41.968-15.719l2.463 1.153 176.404 82.59c6.411 3.001 10.601 8.772 13.374 14.991 3.508 6.635 5.013 14.153 3.417 21.372-.209 1.006-.666 2.025-1.012 3.046-.292.834-.419 1.706-.801 2.523l-.173.368-36.624 78.228-.172.37c-.286.61-.741 1.09-1.061 1.67-.757 1.35-1.531 2.7-2.444 3.9-.757 1-1.61 1.88-2.473 2.77-.768.8-1.538 1.56-2.374 2.27-.794.67-1.599 1.28-2.455 1.85a31.328 31.328 0 0 1-4.766 2.74c-.199.09-.379.2-.58.28-7.959 3.51-17.178 3.83-25.558-.09l-176.971-82.86-1.5-.7c-13.678-6.405-20.446-21.683-16.897-36.137.007-.03.032-.055.04-.085.463-2.367 1.135-4.709 2.183-6.948l35.477-76.659z" layerName="Curve 59"/><path d="M1579.15 832.215c-1.74 8.867-1.37 8.301 1.56 15.469 2.93 7.167 7.19 10.772 10.14 13.201 5.34 4.397 14.14 6.323 19.55 9.141 2.06 1.072 2.54 1.844 2.54 1.844s1.08 1.59.84 2.786c-.49 2.391-2.72 3.184-2.72 3.184l-2.22 1.647-2.47 1.282-12.69 6.349-176.41 82.59c-6.41 3.001-13.52 2.524-20.07.671-7.35-1.555-14.08-5.214-18.61-11.063-.64-.804-1.13-1.808-1.69-2.727-.45-.76-1.04-1.415-1.42-2.232l-.17-.368-36.63-78.226-.17-.368c-.29-.61-.36-1.268-.61-1.889-.55-1.446-1.09-2.9-1.42-4.37-.29-1.226-.42-2.44-.55-3.677-.12-1.101-.22-2.182-.23-3.277 0-1.035.05-2.045.15-3.072.17-1.844.48-3.642.95-5.414.06-.208.09-.418.16-.625 2.41-8.357 8.06-15.644 16.44-19.568 0 0 129.87-60.749 133.57-61.848 2.84-.842 3.25 2.904 8.09 7.36s11.27 10.466 11.27 10.466 8.83 7.472 19.99 11.777c11.15 4.305 12.5 5.187 24.2 5.652 11.7.465 23.32-3.773 23.32-3.773s12.32-3.442 15.65-1.406c.62.379 1.73 2.172-1.86 10.484-5.86 13.587-6.75 11.133-8.48 20z" layerName="Curve 64"/><path d="M273.742 837.4c1.731 8.867 1.362 8.301-1.564 15.468-2.927 7.168-7.195 10.773-10.143 13.201-5.338 4.398-14.137 6.323-19.549 9.141-2.06 1.073-2.536 1.845-2.536 1.845s-1.083 1.59-.841 2.785c.484 2.392 2.717 3.185 2.717 3.185l2.222 1.646 2.465 1.283 12.695 6.349 176.405 82.59c6.411 3.001 13.526 2.523 20.079.67 7.342-1.555 14.08-5.213 18.602-11.062.639-.805 1.128-1.809 1.691-2.728.453-.759 1.042-1.414 1.424-2.231l.172-.368 36.625-78.226.172-.368c.286-.611.363-1.269.608-1.889.553-1.446 1.088-2.9 1.425-4.371.288-1.225.413-2.44.549-3.677.121-1.1.214-2.182.223-3.277a30.275 30.275 0 0 0-.149-3.072 31.94 31.94 0 0 0-.951-5.413c-.061-.208-.091-.419-.156-.625-2.406-8.357-8.062-15.645-16.442-19.568 0 0-129.865-60.749-133.571-61.848-2.837-.842-3.251 2.903-8.091 7.36-4.839 4.456-11.267 10.465-11.267 10.465s-8.826 7.473-19.984 11.778c-11.159 4.305-12.505 5.187-24.203 5.652-11.698.465-23.326-3.773-23.326-3.773s-12.313-3.442-15.647-1.407c-.622.38-1.727 2.172 1.859 10.485 5.862 13.587 6.756 11.133 8.487 20z" layerName="Curve 61"/><path d="M1491.32 644.145c-7.87-4.43-7.2-4.344-10.76-11.218-3.56-6.875-3.54-12.462-3.48-16.281.11-6.915 4.35-14.863 5.71-20.811.52-2.264.24-3.126.24-3.126s-.51-1.855-1.58-2.446c-2.13-1.182-4.18.004-4.18.004l-2.7.625-2.57 1.046-13.06 5.552-177.24 80.793c-6.44 2.936-10.69 8.665-13.52 14.855-3.58 6.599-5.16 14.101-3.64 21.336.2 1.008.65 2.031.98 3.056.29.837.4 1.71.78 2.531l.17.369 35.82 78.594.17.37c.28.613.73 1.099 1.05 1.688.74 1.358 1.5 2.708 2.4 3.918.75 1.013 1.59 1.895 2.45 2.801.76.805 1.52 1.578 2.35 2.294.78.672 1.58 1.291 2.43 1.877a32.144 32.144 0 0 0 4.74 2.786c.2.088.38.202.58.286 7.92 3.585 17.14 4.002 25.56.164 0 0 130.43-59.513 133.67-61.622 2.48-1.615-.1-4.358-.36-10.931-.26-6.574-.66-15.364-.66-15.364s.03-11.564 3.98-22.851c3.96-11.288 4.16-12.884 11.39-22.094 7.22-9.209 17.99-15.317 17.99-15.317s10.6-7.145 11.21-11.003c.12-.719-.53-2.723-9.19-5.38-14.14-4.343-12.85-2.072-20.73-6.501z" layerName="Curve 65"/><path d="M361.565 649.329c7.874-4.43 7.204-4.343 10.765-11.218 3.561-6.874 3.54-12.461 3.478-16.28-.112-6.915-4.349-14.863-5.711-20.811-.519-2.264-.239-3.127-.239-3.127s.509-1.855 1.576-2.446c2.134-1.181 4.186.005 4.186.005l2.694.625 2.574 1.045 13.064 5.552 177.234 80.794c6.441 2.936 10.69 8.664 13.526 14.855 3.575 6.599 5.157 14.101 3.634 21.335-.199 1.009-.646 2.032-.981 3.056-.284.838-.402 1.71-.776 2.531l-.169.37-35.828 78.594-.168.37c-.28.613-.73 1.099-1.044 1.687-.743 1.358-1.503 2.708-2.404 3.918-.747 1.014-1.591 1.896-2.445 2.801-.759.806-1.522 1.578-2.351 2.294a29.99 29.99 0 0 1-2.435 1.878 31.871 31.871 0 0 1-4.739 2.785c-.198.089-.377.202-.577.287-7.923 3.584-17.138 4.001-25.558.163 0 0-130.437-59.512-133.676-61.621-2.48-1.615.104-4.358.36-10.932.257-6.574.666-15.363.666-15.363s-.03-11.564-3.985-22.852c-3.955-11.287-4.156-12.884-11.384-22.093-7.229-9.21-17.994-15.317-17.994-15.317s-10.602-7.145-11.212-11.003c-.114-.72.534-2.724 9.188-5.381 14.146-4.343 12.857-2.071 20.731-6.501z" layerName="Curve 61"/><path d="M1262.04 725.256c-.12-.251-.3-.451-.43-.696l-.1-.227c-7.5-16.02-26.3-23.055-41.97-15.719l-2.46 1.153-176.41 82.59c-6.41 3.001-10.6 8.772-13.37 14.991-3.51 6.635-5.02 14.153-3.42 21.372.21 1.006.67 2.024 1.01 3.045.29.835.42 1.706.8 2.523l.18.368 36.62 78.226.17.368c.29.611.74 1.092 1.06 1.677.76 1.351 1.53 2.693 2.45 3.894.75 1.005 1.61 1.879 2.47 2.776.77.798 1.54 1.562 2.37 2.27.8.664 1.6 1.274 2.46 1.852a31.559 31.559 0 0 0 4.77 2.738c.19.086.37.198.58.28 7.95 3.504 17.17 3.828 25.55-.096l176.97-82.855 1.5-.702c13.68-6.404 20.45-21.683 16.9-36.136-.01-.03-.03-.055-.04-.085-.46-2.367-1.13-4.709-2.18-6.949l-27.59-59.441-7.89-17.217z" layerName="Curve 66"/><path d="M590.845 730.44c.117-.25.306-.45.43-.696l.106-.226c7.5-16.02 26.3-23.055 41.968-15.719l2.462 1.153 176.405 82.589c6.411 3.002 10.601 8.773 13.374 14.992 3.508 6.635 5.013 14.152 3.417 21.371-.209 1.006-.666 2.025-1.012 3.046-.293.835-.419 1.706-.802 2.523l-.172.368-36.624 78.226-.172.368c-.286.61-.742 1.092-1.062 1.677-.756 1.35-1.53 2.692-2.444 3.893-.756 1.006-1.609 1.879-2.472 2.776-.768.798-1.539 1.563-2.374 2.27-.794.664-1.6 1.275-2.455 1.853a31.782 31.782 0 0 1-4.767 2.737c-.198.087-.379.198-.58.281-7.959 3.504-17.178 3.827-25.558-.096l-176.97-82.855-1.5-.702c-13.679-6.404-20.446-21.683-16.897-36.137.007-.029.032-.055.04-.085.463-2.366 1.134-4.708 2.183-6.948l27.588-59.441 7.888-17.218z" layerName="Curve 62"/></g></svg>
