<svg stroke-miterlimit="10"
  style="fill-rule:nonzero;clip-rule:evenodd;stroke-linecap:round;stroke-linejoin:round"
  viewBox="0 0 1800 2160" xml:space="preserve" xmlns="http://www.w3.org/2000/svg"><g layerName="Layer Black" stroke="#000" stroke-linecap="square" stroke-linejoin="bevel" stroke-width="12.984"><path d="M839.009 1467.34h0c.597.01 1.072.63 1.062 1.39l-3.701 284.29c-.01.77-.502 1.38-1.098 1.37h0c-.597 0-1.072-.62-1.062-1.39l3.701-284.29c.01-.76.502-1.38 1.098-1.37z" layerName="Rectangle 1"/><path d="M1012.54 1468.81h0c.6 0 1.08.63 1.07 1.39l-3.7 284.29c-.01.76-.51 1.38-1.1 1.37h0c-.6 0-1.07-.63-1.06-1.39l3.7-284.29c.01-.76.5-1.38 1.09-1.37z" layerName="Rectangle 2"/></g><g layerName="Layer Inner" stroke-linecap="square" stroke-linejoin="bevel" stroke-width="12.984"><path d="M970.842 941.341h83.428c15.85 0 28.71 12.575 28.71 28.087v190.812c0 15.52-12.86 28.09-28.71 28.09h-83.428c-15.856 0-28.711-12.57-28.711-28.09V969.428c0-15.512 12.855-28.087 28.711-28.087z" fill="#5c5fc1" stroke="#5c5fc1" layerName="Rectangle 7"/><path d="M799.847 941.341h81.971c15.58 0 28.211 12.631 28.211 28.211v191.658c0 15.58-12.631 28.21-28.211 28.21h-81.971c-15.58 0-28.21-12.63-28.21-28.21V969.552c0-8.39 3.663-15.925 9.477-21.093a28.105 28.105 0 0 1 18.733-7.118z" fill="#5c5fc1" stroke="#5c5fc1" layerName="Rectangle 8"/><path d="m1255.36 742.97 74.03 38.46c14.07 7.31 19.68 24.394 12.53 38.16l-87.97 169.329c-7.15 13.761-24.35 19.001-38.42 11.691l-74.03-38.463c-14.08-7.31-19.68-24.395-12.53-38.16l87.96-169.329c7.16-13.765 24.36-18.998 38.43-11.688z" fill="#8d8fcd" stroke="#8d8fcd" layerName="Rectangle 12"/><path d="m595.961 742.97-74.03 38.46c-14.072 7.31-19.681 24.394-12.53 38.16l87.968 169.329c7.151 13.761 24.355 19.001 38.426 11.691l74.031-38.463c14.071-7.31 19.681-24.395 12.53-38.16l-87.969-169.329c-7.151-13.765-24.355-18.998-38.426-11.688z" fill="#8d8fcd" stroke="#8d8fcd" layerName="Rectangle 16"/><path d="m1105.48 665.106 72.74 37.789c13.83 7.183 19.21 24.214 12.03 38.039l-88.36 170.078c-7.18 13.826-24.21 19.211-38.04 12.028l-72.737-37.789c-13.826-7.183-19.212-24.214-12.029-38.039l88.356-170.078c3.87-7.445 10.59-12.443 18.14-14.348a28.087 28.087 0 0 1 19.9 2.32z" fill="#5c5fc1" stroke="#5c5fc1" layerName="Rectangle 13"/><path d="m745.841 665.106-72.74 37.789c-13.826 7.183-19.211 24.214-12.029 38.039l88.357 170.078c7.183 13.826 24.214 19.211 38.04 12.028l72.74-37.789c13.826-7.183 19.211-24.214 12.029-38.039l-88.357-170.078c-3.868-7.445-10.593-12.443-18.134-14.348a28.102 28.102 0 0 0-19.906 2.32z" fill="#5c5fc1" stroke="#5c5fc1" layerName="Rectangle 17"/><path d="M1413.1 531.331c-1.2-6.562-.3-3.881-9.31 7.894-8.33 10.891-26.12 23.204-45.44 26.256-23.21 3.668-34.55-1.5-40.4-.541-2.71.446-2.63 2.47-4.91 6.856l-61.22 117.492c-7.19 13.826-1.8 30.856 12.03 38.039l72.74 37.789c13.82 7.183 30.85 1.798 38.04-12.028l90.72-175.318c.77-1.48 6.98-10.774 5.5-9.655-3.14 2.371-7.42 2.427-7.96 2.64 0 0-14.24 2.933-23.13 1.537-8.88-1.396-12.42-7.12-12.42-7.12s-7.53-6.276-10-11.461c-2.33-4.883-2.67-9.893-2.67-9.893s-.21-5.055-1.57-12.487z" fill="#42458b" stroke="#42458b" layerName="Rectangle 14"/><path d="M438.223 531.331c1.202-6.562.302-3.881 9.308 7.894 8.329 10.891 26.124 23.204 45.436 26.256 23.212 3.668 34.557-1.5 40.401-.541 2.715.446 2.631 2.47 4.91 6.856l61.227 117.492c7.183 13.826 1.797 30.856-12.029 38.039l-72.74 37.789c-13.826 7.183-30.857 1.798-38.039-12.028L385.969 577.77c-.769-1.48-6.98-10.774-5.496-9.655 3.142 2.371 7.418 2.427 7.956 2.64 0 0 14.241 2.933 23.129 1.537 8.888-1.396 12.423-7.12 12.423-7.12s7.531-6.276 10.003-11.461c2.327-4.883 2.664-9.893 2.664-9.893s.215-5.055 1.575-12.487z" fill="#42458b" stroke="#42458b" layerName="Rectangle 18"/><path d="M1261.95 452.79c6.09-2.728 3.37-1.95-1.23 12.142-4.25 13.034-4.31 34.674 4.11 52.316 10.13 21.204 20.82 27.624 23.34 32.984 1.17 2.489-.55 3.567-2.87 7.93l-62.12 117.021c-7.32 13.752-24.41 18.964-38.16 11.641l-72.35-38.526c-13.75-7.323-18.97-24.407-11.64-38.159l93.05-174.094c.79-1.472 4.92-11.856 4.84-10-.17 3.933 2.21 7.488 2.34 8.052 0 0 5.65 13.397 11.83 19.929 6.19 6.533 12.91 6.202 12.91 6.202s9.44 2.65 15.11 1.749c5.34-.849 9.66-3.41 9.66-3.41s4.29-2.687 11.18-5.777z" fill="#42458b" stroke="#42458b" layerName="Rectangle 15"/><path d="M589.368 452.79c-6.089-2.728-3.369-1.95 1.231 12.142 4.254 13.034 4.318 34.674-4.11 52.316-10.129 21.204-20.816 27.624-23.337 32.984-1.171 2.489.545 3.567 2.868 7.93l62.121 117.021c7.323 13.752 24.408 18.964 38.16 11.641l72.352-38.526c13.753-7.323 18.965-24.407 11.642-38.159L657.24 436.045c-.784-1.472-4.923-11.856-4.841-10 .173 3.933-2.204 7.488-2.333 8.052 0 0-5.653 13.397-11.839 19.929-6.186 6.533-12.905 6.202-12.905 6.202s-9.439 2.65-15.111 1.749c-5.343-.849-9.662-3.41-9.662-3.41s-4.287-2.687-11.181-5.777z" fill="#42458b" stroke="#42458b" layerName="Rectangle 19"/><path d="M970.042 1207.52h83.428c15.85 0 28.71 12.57 28.71 28.08v190.82c0 15.51-12.86 28.08-28.71 28.08h-83.428c-15.857 0-28.711-12.57-28.711-28.08V1235.6c0-15.51 12.854-28.08 28.711-28.08z" fill="#5c5fc1" stroke="#5c5fc1" layerName="Rectangle 10"/><path d="M801.142 1207.52h81.971c15.58 0 28.211 12.63 28.211 28.21v191.66c0 15.58-12.631 28.21-28.211 28.21h-81.971c-15.58 0-28.21-12.63-28.21-28.21v-191.66c0-8.39 3.663-15.93 9.477-21.1a28.138 28.138 0 0 1 18.733-7.11z" fill="#5c5fc1" stroke="#5c5fc1" layerName="Rectangle 11"/></g><g layerName="Layer Membrane" fill="none" stroke="#313367" stroke-linecap="round" stroke-linejoin="round" stroke-width="3"><path d="M970.345 935.202c-.276 0-.537.086-.812.094h-.25c-17.689 0-32.031 14.043-32.031 31.344v197.5c0 7.08 3.449 13.32 7.906 18.47 4.522 5.99 10.691 10.54 17.906 12.15 1 .24 2.116.26 3.188.38.88.09 1.722.34 2.625.34h87.183c.68 0 1.31-.21 1.97-.25 1.55-.11 3.09-.24 4.57-.56 1.23-.26 2.38-.66 3.56-1.06 1.05-.36 2.06-.73 3.06-1.19.94-.44 1.83-.91 2.72-1.44 1.6-.93 3.09-1.97 4.5-3.15.16-.15.34-.26.5-.41 6.55-5.72 10.75-13.93 10.75-23.19V967.171c0-15.104-10.97-27.711-25.56-30.625-.03-.006-.07.006-.1 0-2.34-.584-4.74-.969-7.22-.969l-84.465-.375z" layerName="Curve 1"/><path d="M969.544 1201.38c-.276 0-.537.08-.812.09h-.25c-17.689 0-32.031 14.04-32.031 31.34v197.5c0 7.08 3.45 13.32 7.906 18.47 4.522 5.99 10.692 10.54 17.906 12.16 1 .24 2.116.25 3.188.37.88.09 1.723.35 2.625.35H1055.26c.68 0 1.31-.21 1.97-.25 1.55-.12 3.09-.25 4.56-.57 1.24-.25 2.39-.66 3.57-1.06 1.05-.35 2.06-.73 3.06-1.19.94-.43 1.83-.9 2.72-1.43 1.6-.93 3.09-1.98 4.5-3.16.16-.14.34-.26.5-.41 6.55-5.72 10.75-13.93 10.75-23.18v-197.07c0-15.1-10.97-27.71-25.56-30.62-.03-.01-.07.01-.1 0-2.34-.58-4.74-.97-7.22-.97l-84.466-.37z" layerName="Curve 57"/><path d="M799.678 1201.38c-.276 0-.537.08-.813.09h-.25c-17.688 0-32.031 14.04-32.031 31.34v197.5c0 7.08 3.45 13.32 7.906 18.47 4.522 5.99 10.692 10.54 17.907 12.16.999.24 2.116.25 3.187.37.88.09 1.723.35 2.625.35h87.188c.674 0 1.303-.21 1.968-.25 1.544-.12 3.088-.25 4.563-.57 1.231-.25 2.384-.66 3.562-1.06 1.049-.35 2.068-.73 3.063-1.19.938-.43 1.832-.9 2.719-1.43 1.6-.93 3.095-1.98 4.5-3.16.162-.14.34-.26.5-.41 6.548-5.72 10.75-13.93 10.75-23.18v-197.07c0-15.1-10.968-27.71-25.563-30.62-.03-.01-.064.01-.094 0-2.34-.58-4.745-.97-7.218-.97l-65.532-.22-18.937-.15z" layerName="Curve 58"/><path d="M798.383 935.202c-.276 0-.537.086-.813.094h-.25c-17.688 0-32.031 14.043-32.031 31.344v197.5c0 7.08 3.45 13.32 7.906 18.47 4.522 5.99 10.692 10.54 17.907 12.15 1 .24 2.116.26 3.187.38.88.09 1.723.34 2.625.34h87.188c.674 0 1.303-.21 1.968-.25 1.544-.11 3.088-.24 4.563-.56 1.232-.26 2.384-.66 3.562-1.06 1.049-.36 2.068-.73 3.063-1.19.938-.44 1.832-.91 2.719-1.44 1.6-.93 3.095-1.97 4.5-3.15.162-.15.34-.26.5-.41 6.548-5.72 10.75-13.93 10.75-23.19V967.171c0-15.104-10.968-27.711-25.563-30.625-.03-.006-.064.006-.094 0-2.34-.584-4.745-.969-7.218-.969l-65.532-.219-18.937-.156z" layerName="Curve 55"/><path d="M1257.75 737.293c-.25-.128-.52-.172-.76-.292l-.23-.115c-15.69-8.155-34.89-2.305-42.87 13.048l-1.25 2.412-89.8 172.848c-3.26 6.281-3.08 13.411-1.5 20.034 1.25 7.4 4.63 14.283 10.29 19.042.78.672 1.76 1.202 2.65 1.803.74.484 1.37 1.099 2.17 1.515l.36.187 76.65 39.815.36.19c.6.31 1.26.42 1.87.69 1.42.61 2.85 1.2 4.3 1.6 1.22.34 2.42.51 3.66.7 1.09.17 2.17.31 3.26.36 1.03.04 2.05.04 3.08-.02 1.84-.09 3.65-.33 5.44-.73.21-.05.43-.07.64-.13 8.44-2.06 15.96-7.41 20.22-15.619l90.09-173.403.76-1.47c6.96-13.402 3.04-29.646-8.56-38.961-.03-.019-.06-.024-.09-.043-1.8-1.597-3.76-3.047-5.96-4.188l-74.78-39.273z" layerName="Curve 63"/><path d="M593.572 737.293c.245-.128.516-.172.764-.292l.222-.115c15.697-8.155 34.898-2.305 42.874 13.048l1.253 2.412 89.797 172.848c3.263 6.281 3.079 13.411 1.498 20.034-1.251 7.4-4.628 14.283-10.286 19.042-.778.672-1.76 1.202-2.655 1.803-.74.484-1.371 1.099-2.171 1.515l-.361.187-76.649 39.815-.36.19c-.598.31-1.253.42-1.862.69-1.422.61-2.853 1.2-4.308 1.6-1.213.34-2.421.51-3.652.7-1.094.17-2.171.31-3.265.36-1.034.04-2.044.04-3.075-.02a32.008 32.008 0 0 1-5.448-.73c-.211-.05-.422-.07-.631-.13-8.449-2.06-15.964-7.41-20.23-15.619l-90.084-173.403-.763-1.47c-6.963-13.402-3.043-29.646 8.565-38.961.024-.019.059-.024.083-.043 1.808-1.597 3.765-3.047 5.96-4.188l74.784-39.273z" layerName="Curve 67"/><path d="M1423.78 551.023c4.01 8.091 3.96 7.418 10.65 11.327 6.68 3.91 12.26 4.176 16.08 4.31 6.91.244 15.06-3.579 21.07-4.634 2.29-.401 3.14-.077 3.14-.077s1.82.603 2.36 1.699c1.07 2.192-.22 4.18-.22 4.18l-.76 2.659-1.18 2.516-6.22 12.762-89.79 172.848c-3.27 6.281-9.2 10.23-15.53 12.744-6.78 3.231-14.35 4.425-21.5 2.532-.99-.25-1.99-.749-3-1.136-.82-.327-1.69-.49-2.49-.905l-.36-.188-76.64-39.82-.37-.187c-.59-.311-1.06-.786-1.63-1.129-1.32-.812-2.62-1.64-3.79-2.603-.97-.797-1.81-1.686-2.67-2.585-.76-.8-1.5-1.601-2.17-2.466-.63-.82-1.21-1.65-1.75-2.529a32.67 32.67 0 0 1-2.54-4.875c-.07-.202-.18-.387-.25-.591-3.18-8.097-3.12-17.321 1.15-25.532 0 0 66.14-127.206 68.41-130.332 1.74-2.394 4.34.327 10.9.921 6.55.594 15.31 1.455 15.31 1.455s11.55.563 23.02-2.806c11.48-3.369 13.08-3.488 22.65-10.234 9.57-6.746 16.22-17.182 16.22-17.182s7.68-10.221 11.57-10.633c.72-.076 2.69.674 4.9 9.454 3.61 14.35 1.41 12.946 5.43 21.037z" layerName="Curve 64"/><path d="M427.546 551.023c-4.019 8.091-3.967 7.418-10.649 11.327-6.683 3.91-12.263 4.176-16.081 4.31-6.911.244-15.067-3.579-21.077-4.634-2.287-.401-3.134-.077-3.134-.077s-1.827.603-2.362 1.699c-1.071 2.192.219 4.18.219 4.18l.763 2.659 1.177 2.516 6.216 12.762 89.796 172.848c3.263 6.281 9.202 10.23 15.53 12.744 6.774 3.231 14.347 4.425 21.494 2.532.997-.25 1.996-.749 3.002-1.136.822-.327 1.687-.49 2.487-.905l.361-.188 76.649-39.82.36-.187c.598-.311 1.06-.786 1.632-1.129 1.318-.812 2.627-1.64 3.789-2.603.974-.797 1.811-1.686 2.672-2.585.766-.8 1.498-1.601 2.17-2.466.631-.82 1.208-1.65 1.75-2.529a31.84 31.84 0 0 0 2.538-4.875c.079-.202.183-.387.257-.591 3.172-8.097 3.115-17.321-1.151-25.532 0 0-66.138-127.206-68.41-130.332-1.741-2.394-4.347.327-10.899.921-6.552.594-15.309 1.455-15.309 1.455s-11.55.563-23.026-2.806c-11.476-3.369-13.081-3.488-22.649-10.234-9.569-6.746-16.222-17.182-16.222-17.182s-7.68-10.221-11.564-10.633c-.725-.076-2.693.674-4.902 9.454-3.61 14.35-1.408 12.946-5.427 21.037z" layerName="Curve 68"/><path d="M1239.68 455.149c-8.95 1.273-8.36.935-15.37-2.357-7.01-3.291-10.39-7.739-12.66-10.808-4.12-5.557-5.59-14.443-8.13-19.993-.96-2.112-1.71-2.627-1.71-2.627s-1.53-1.163-2.74-.983c-2.41.36-3.32 2.549-3.32 2.549l-1.75 2.135-1.41 2.396-7 12.352-91.54 171.927c-3.33 6.248-3.22 13.379-1.7 20.018 1.17 7.412 4.48 14.329 10.09 19.145.77.68 1.75 1.22 2.63 1.83.74.492 1.36 1.113 2.16 1.537l.36.191 76.24 40.596.36.191c.59.317 1.25.428 1.85.705 1.42.626 2.84 1.235 4.29 1.647 1.21.351 2.42.538 3.65.737 1.09.178 2.17.327 3.26.391 1.03.055 2.04.06 3.08.009 1.84-.068 3.66-.291 5.45-.671.21-.05.42-.069.63-.123 8.47-1.974 16.04-7.247 20.39-15.415 0 0 67.34-126.572 68.63-130.216.99-2.79-2.73-3.396-6.93-8.458-4.2-5.062-9.88-11.79-9.88-11.79s-7-9.198-10.73-20.563c-3.73-11.365-4.54-12.755-4.4-24.462.14-11.707 4.97-23.101 4.97-23.101s4.07-12.12 2.2-15.554c-.34-.64-2.08-1.837-10.56 1.318-13.87 5.156-11.47 6.175-20.41 7.447z" layerName="Curve 65"/><path d="M611.643 455.149c8.944 1.273 8.36.935 15.368-2.357 7.007-3.291 10.389-7.739 12.662-10.808 4.117-5.557 5.588-14.443 8.124-19.993.965-2.112 1.712-2.627 1.712-2.627s1.532-1.163 2.739-.983c2.413.36 3.32 2.549 3.32 2.549l1.758 2.135 1.407 2.396 6.994 12.352 91.547 171.927c3.327 6.248 3.216 13.379 1.702 20.018-1.176 7.412-4.483 14.329-10.092 19.145-.771.68-1.748 1.22-2.637 1.83-.735.492-1.359 1.113-2.156 1.537l-.358.191-76.241 40.596-.358.191c-.595.317-1.248.428-1.855.705-1.416.626-2.84 1.235-4.292 1.647-1.209.351-2.415.538-3.644.737-1.093.178-2.168.327-3.261.391-1.033.055-2.044.06-3.075.009a31.884 31.884 0 0 1-5.456-.671c-.211-.05-.422-.069-.632-.123-8.47-1.974-16.038-7.247-20.387-15.415 0 0-67.343-126.572-68.631-130.216-.987-2.79 2.732-3.396 6.934-8.458s9.873-11.79 9.873-11.79 7.009-9.198 10.734-20.563c3.726-11.365 4.538-12.755 4.401-24.462-.137-11.707-4.967-23.101-4.967-23.101s-4.07-12.12-2.209-15.554c.347-.64 2.081-1.837 10.567 1.318 13.87 5.156 11.465 6.175 20.409 7.447z" layerName="Curve 69"/><path d="M1107.01 658.982c-.24-.127-.52-.171-.76-.291l-.22-.115c-15.7-8.155-34.9-2.305-42.88 13.047l-1.25 2.413-89.799 172.848c-3.263 6.281-3.079 13.411-1.498 20.034 1.251 7.4 4.628 14.283 10.286 19.042.778.672 1.76 1.202 2.656 1.802.74.485 1.37 1.1 2.17 1.516l.361.187 76.644 39.82.37.187c.59.311 1.25.416 1.86.686 1.42.612 2.85 1.206 4.31 1.604 1.21.338 2.42.512 3.65.699 1.09.167 2.17.305 3.26.358 1.04.045 2.05.039 3.08-.022 1.85-.087 3.66-.328 5.45-.726.21-.052.42-.073.63-.13 8.45-2.06 15.96-7.41 20.23-15.621l90.08-173.402.76-1.47c6.97-13.403 3.05-29.646-8.56-38.961-.03-.019-.06-.024-.09-.043-1.8-1.597-3.76-3.048-5.95-4.188l-58.06-30.405-16.73-8.869z" layerName="Curve 66"/><path d="M744.311 658.982c.245-.127.516-.171.764-.291l.222-.115c15.697-8.155 34.898-2.305 42.874 13.047l1.253 2.413 89.796 172.848c3.263 6.281 3.08 13.411 1.499 20.034-1.251 7.4-4.629 14.283-10.286 19.042-.778.672-1.76 1.202-2.656 1.802-.74.485-1.37 1.1-2.171 1.516l-.36.187-76.649 39.82-.36.187c-.599.311-1.253.416-1.863.686-1.421.612-2.852 1.206-4.308 1.604-1.212.338-2.42.512-3.651.699-1.095.167-2.171.305-3.265.358a29.749 29.749 0 0 1-3.075-.022 31.928 31.928 0 0 1-5.449-.726c-.21-.052-.421-.073-.631-.13-8.449-2.06-15.963-7.41-20.229-15.621l-90.084-173.402-.764-1.47c-6.963-13.403-3.042-29.646 8.566-38.961.024-.019.059-.024.083-.043 1.807-1.597 3.765-3.048 5.959-4.188l58.052-30.405 16.733-8.869z" layerName="Curve 70"/></g></svg>
