<svg stroke-miterlimit="10"
  style="fill-rule:nonzero;clip-rule:evenodd;stroke-linecap:round;stroke-linejoin:round"
  viewBox="0 0 4608 4608" xml:space="preserve" xmlns="http://www.w3.org/2000/svg"><g layerName="Layer Inner"><path d="m1717.93 3006.32-67.04-49.65c-12.74-9.44-15.59-27.2-6.35-39.66l113.57-153.33c9.24-12.47 27.05-14.92 39.79-5.49l67.04 49.66c12.74 9.44 15.59 27.19 6.35 39.66l-113.57 153.33c-9.24 12.47-27.05 14.92-39.79 5.48z" fill="#3e68ff" stroke="#3e68ff" stroke-linecap="square" stroke-linejoin="bevel" stroke-width="12.984" layerName="Rectangle 85"/><path d="m1418.46 1867.62 27.35-78.82c5.2-14.98 21.29-23 35.95-17.91l180.26 62.56c14.66 5.09 22.32 21.36 17.12 36.34l-27.35 78.81c-5.2 14.98-21.29 23-35.95 17.91l-180.26-62.56c-14.66-5.09-22.32-21.35-17.12-36.33z" fill="#3e68ff" stroke="#3e68ff" stroke-linecap="square" stroke-linejoin="bevel" stroke-width="12.984" layerName="Rectangle 86"/><path d="m2957.54 3026.43 68.34-47.85c12.99-9.1 16.3-26.77 7.41-39.48l-109.46-156.3c-8.89-12.71-26.64-15.63-39.62-6.54l-68.34 47.85c-12.99 9.1-16.31 26.77-7.41 39.48l109.45 156.3c8.9 12.71 26.64 15.64 39.63 6.54z" fill="#3e68ff" stroke="#3e68ff" stroke-linecap="square" stroke-linejoin="bevel" stroke-width="12.984" layerName="Rectangle 127"/><path d="m2311.4 1235.86-83.42-.88c-15.86-.16-28.84 12.28-29 27.79l-2 190.8c-.17 15.51 12.56 28.22 28.41 28.39l83.42.87c15.86.17 28.84-12.27 29.01-27.78l2-190.81c.16-15.51-12.56-28.22-28.42-28.38z" fill="#3e68ff" stroke="#3e68ff" stroke-linecap="square" stroke-linejoin="bevel" stroke-width="12.984" layerName="Rectangle 196"/><path d="m3288.12 1892.88-24.72-79.68c-4.7-15.15-20.52-23.7-35.33-19.1l-182.25 56.53c-14.82 4.6-23.02 20.6-18.32 35.75l24.72 79.67c4.69 15.15 20.51 23.7 35.33 19.11l182.25-56.54c14.81-4.6 23.01-20.6 18.32-35.74z" fill="#3e68ff" stroke="#3e68ff" stroke-linecap="square" stroke-linejoin="bevel" stroke-width="12.984" layerName="Rectangle 183"/><path d="m1855.33 3108.1-65.87-48.79c-12.52-9.27-15.15-26.94-5.87-39.46l114.07-154.01c9.28-12.52 26.95-15.15 39.46-5.88l65.87 48.79c12.52 9.28 15.16 26.94 5.88 39.46l-114.08 154.01c-4.99 6.75-12.42 10.62-20.17 11.31-6.64.6-13.51-1.15-19.29-5.43z" fill="#3e68ff" stroke="#3e68ff" stroke-linecap="square" stroke-linejoin="bevel" stroke-width="12.984" layerName="Rectangle 88"/><path d="m1362.39 2029.16 26.88-77.44c5.1-14.72 21.18-22.51 35.9-17.4l181.06 62.84c14.72 5.11 22.51 21.18 17.4 35.9l-26.87 77.44c-5.11 14.72-21.19 22.51-35.9 17.4l-181.07-62.84c-7.93-2.75-13.84-8.68-16.82-15.87a28.086 28.086 0 0 1-.58-20.03z" fill="#3e68ff" stroke="#3e68ff" stroke-linecap="square" stroke-linejoin="bevel" stroke-width="12.984" layerName="Rectangle 89"/><path d="m2817.48 3124.51 67.14-47.01c12.76-8.94 15.86-26.53 6.93-39.29l-109.94-157c-8.94-12.76-26.53-15.86-39.29-6.93l-67.14 47.02c-12.77 8.94-15.87 26.53-6.93 39.29l109.94 157c4.81 6.87 12.13 10.94 19.86 11.84 6.62.77 13.54-.79 19.43-4.92z" fill="#3e68ff" stroke="#3e68ff" stroke-linecap="square" stroke-linejoin="bevel" stroke-width="12.984" layerName="Rectangle 128"/><path d="m2482.39 1237.65-81.97-.86c-15.58-.16-28.34 12.34-28.5 27.91l-2.01 191.65c-.17 15.58 12.33 28.34 27.91 28.51l81.97.86c15.58.16 28.34-12.34 28.5-27.92l2.01-191.64c.09-8.39-3.5-15.97-9.26-21.2a28.092 28.092 0 0 0-18.65-7.31z" fill="#3e68ff" stroke="#3e68ff" stroke-linecap="square" stroke-linejoin="bevel" stroke-width="12.984" layerName="Rectangle 197"/><path d="m3338.78 2056.19-24.29-78.29c-4.61-14.88-20.42-23.2-35.3-18.58l-183.05 56.78c-14.88 4.62-23.21 20.42-18.59 35.31l24.29 78.29c4.61 14.88 20.42 23.2 35.3 18.58l183.05-56.78c8.02-2.49 14.13-8.22 17.34-15.31a28.118 28.118 0 0 0 1.25-20z" fill="#3e68ff" stroke="#3e68ff" stroke-linecap="square" stroke-linejoin="bevel" stroke-width="12.984" layerName="Rectangle 184"/><path d="m1369.97 2936.96-13.14-82.38c-2.5-15.66 7.9-30.33 23.22-32.78l188.43-30.05c15.32-2.44 29.76 8.28 32.26 23.93l13.13 82.39c2.5 15.66-7.89 30.33-23.21 32.77l-188.44 30.05c-15.31 2.44-29.76-8.27-32.25-23.93z" fill="#7996ff" stroke="#7996ff" stroke-linecap="square" stroke-linejoin="bevel" stroke-width="12.984" layerName="Rectangle 91"/><path d="m1380.66 1514.83 74.7-37.16c14.19-7.06 31.3-1.53 38.21 12.36l84.99 170.85c6.91 13.89 1 30.87-13.2 37.93l-74.69 37.16c-14.2 7.06-31.31 1.53-38.22-12.36l-84.98-170.85c-6.91-13.88-1.01-30.87 13.19-37.93z" fill="#7996ff" stroke="#7996ff" stroke-linecap="square" stroke-linejoin="bevel" stroke-width="12.984" layerName="Rectangle 92"/><path d="m3307.23 2966.36 15.32-82c2.92-15.59-7.08-30.54-22.33-33.38l-187.57-35.06c-15.25-2.85-29.97 7.48-32.88 23.06l-15.33 82.01c-2.91 15.58 7.09 30.53 22.34 33.38l187.56 35.05c15.25 2.85 29.97-7.47 32.89-23.06z" fill="#7996ff" stroke="#7996ff" stroke-linecap="square" stroke-linejoin="bevel" stroke-width="12.984" layerName="Rectangle 129"/><path d="m1992.11 1081.13-60.2 57.75c-11.44 10.98-12.01 28.95-1.27 40.15l132.1 137.69c10.73 11.2 28.72 11.37 40.16.39l60.2-57.75c11.44-10.98 12.01-28.95 1.27-40.14l-132.1-137.7c-10.73-11.19-28.72-11.37-40.16-.39z" fill="#7996ff" stroke="#7996ff" stroke-linecap="square" stroke-linejoin="bevel" stroke-width="12.984" layerName="Rectangle 198"/><path d="m3337.62 1541.54-73.42-39.62c-13.95-7.53-31.23-2.57-38.6 11.08l-90.62 167.93c-7.37 13.65-2.03 30.82 11.93 38.35l73.41 39.62c13.96 7.53 31.24 2.57 38.61-11.08l90.62-167.93c7.37-13.65 2.02-30.82-11.93-38.35z" fill="#7996ff" stroke="#7996ff" stroke-linecap="square" stroke-linejoin="bevel" stroke-width="12.984" layerName="Rectangle 185"/><path d="m1396.56 3103.75-12.9-80.94c-2.46-15.39 8.03-29.85 23.41-32.31l189.27-30.18c15.39-2.45 29.85 8.04 32.3 23.42l12.91 80.95c2.45 15.38-8.03 29.85-23.42 32.3l-189.27 30.18c-8.28 1.32-16.3-1.11-22.32-6.04a28.125 28.125 0 0 1-9.98-17.38z" fill="#3e68ff" stroke="#3e68ff" stroke-linecap="square" stroke-linejoin="bevel" stroke-width="12.984" layerName="Rectangle 94"/><path d="m1229.44 1590.06 73.39-36.51c13.95-6.94 30.88-1.26 37.82 12.69l85.37 171.6c6.94 13.95 1.25 30.88-12.7 37.82l-73.39 36.51c-13.95 6.94-30.88 1.26-37.82-12.69l-85.36-171.6c-3.74-7.51-3.82-15.89-.91-23.11a28.087 28.087 0 0 1 13.6-14.71z" fill="#3e68ff" stroke="#3e68ff" stroke-linecap="square" stroke-linejoin="bevel" stroke-width="12.984" layerName="Rectangle 95"/><path d="m3276.2 3132.39 15.06-80.58c2.86-15.31-7.24-30.05-22.55-32.91l-188.4-35.21c-15.31-2.86-30.05 7.23-32.91 22.55l-15.06 80.57c-2.86 15.32 7.23 30.05 22.55 32.91l188.39 35.21c8.25 1.55 16.33-.67 22.48-5.44a28.087 28.087 0 0 0 10.44-17.1z" fill="#3e68ff" stroke="#3e68ff" stroke-linecap="square" stroke-linejoin="bevel" stroke-width="12.984" layerName="Rectangle 130"/><path d="m2113.99 964.201-59.15 56.749c-11.24 10.78-11.61 28.64-.83 39.89l132.69 138.3c10.78 11.24 28.64 11.61 39.88.83l59.16-56.75c11.24-10.78 11.61-28.64.82-39.89l-132.68-138.301c-5.81-6.055-13.67-8.956-21.44-8.66a28.117 28.117 0 0 0-18.45 7.832z" fill="#3e68ff" stroke="#3e68ff" stroke-linecap="square" stroke-linejoin="bevel" stroke-width="12.984" layerName="Rectangle 199"/><path d="m3486.26 1621.75-72.14-38.93c-13.71-7.39-30.82-2.28-38.22 11.43l-91.02 168.67c-7.4 13.71-2.29 30.82 11.42 38.22l72.14 38.93c13.71 7.4 30.83 2.29 38.22-11.43l91.03-168.66a28.146 28.146 0 0 0 1.67-23.07 28.145 28.145 0 0 0-13.1-15.16z" fill="#3e68ff" stroke="#3e68ff" stroke-linecap="square" stroke-linejoin="bevel" stroke-width="12.984" layerName="Rectangle 186"/><path d="M1106.01 2936.11c-4.56 4.87-2.94 2.55 11.89 2.78 13.7.22 34.19 7.19 48.13 20.9 16.76 16.47 19.36 28.66 23.61 32.79 1.97 1.92 3.55.65 8.43-.13l130.86-20.7c15.39-2.45 25.87-16.91 23.42-32.3l-12.91-80.95c-2.46-15.38-16.92-25.87-32.3-23.41l-194.89 31.39c-1.65.26-12.82.8-11.03 1.33 3.77 1.11 6.36 4.51 6.85 4.82 0 0 10.83 9.7 15 17.67 4.17 7.98 1.67 14.23 1.67 14.23s-.56 9.78-3.26 14.85c-2.54 4.78-6.37 8.03-6.37 8.03s-3.93 3.18-9.1 8.7z" fill="#072db7" stroke="#072db7" stroke-linecap="square" stroke-linejoin="bevel" stroke-width="12.984" layerName="Rectangle 97"/><path d="M1302.6 1262.68c-6.01-2.89-3.32-2.04.89 12.17 3.89 13.15 3.36 34.78-5.55 52.19-10.72 20.91-21.58 27.03-24.25 32.32-1.24 2.46.45 3.58 2.65 8.01l58.86 118.69c6.94 13.95 23.87 19.64 37.82 12.7l73.39-36.51c13.95-6.94 19.64-23.87 12.7-37.82l-88.2-176.61c-.75-1.49-4.6-11.98-4.57-10.13.07 3.94-2.41 7.43-2.55 7.99 0 0-6.02 13.23-12.39 19.59-6.36 6.36-13.07 5.84-13.07 5.84s-9.51 2.39-15.15 1.33c-5.32-.99-9.57-3.67-9.57-3.67s-4.21-2.81-11.01-6.09z" fill="#072db7" stroke="#072db7" stroke-linecap="square" stroke-linejoin="bevel" stroke-width="12.984" layerName="Rectangle 98"/><path d="M3571.11 2972.54c4.43 4.99 2.87 2.63-11.95 2.46-13.71-.15-34.38 6.28-48.68 19.61-17.19 16.02-20.11 28.14-24.47 32.15-2.02 1.87-3.56.55-8.42-.35l-130.27-24.18c-15.31-2.86-25.41-17.6-22.54-32.91l15.05-80.58c2.87-15.31 17.6-25.41 32.92-22.54l193.98 36.57c1.64.3 12.79 1.14 10.99 1.62-3.8 1.01-6.48 4.35-6.98 4.64 0 0-11.08 9.41-15.46 17.27-4.38 7.86-2.05 14.17-2.05 14.17s.31 9.8 2.87 14.94c2.41 4.84 6.15 8.19 6.15 8.19s3.84 3.29 8.86 8.94z" fill="#072db7" stroke="#072db7" stroke-linecap="square" stroke-linejoin="bevel" stroke-width="12.984" layerName="Rectangle 131"/><path d="M1781.15 922.485c-.7-6.635-.8-3.809 11.15 4.953 11.06 8.104 31.61 14.907 51 12.396 23.3-3.018 32.73-11.173 38.61-11.899 2.73-.337 3.22 1.629 6.64 5.196l91.84 95.489c10.79 11.24 10.42 29.1-.83 39.89l-59.15 56.75c-11.24 10.78-29.1 10.41-39.88-.83l-136.44-142.668c-1.15-1.204-9.73-8.372-7.99-7.716 3.68 1.389 7.8.239 8.38.292 0 0 14.49-1.197 22.62-5.04 8.14-3.843 9.92-10.331 9.92-10.331s5.45-8.143 6.37-13.814c.85-5.341-.23-10.243-.23-10.243s-1.22-4.91-2.01-12.425z" fill="#072db7" stroke="#072db7" stroke-linecap="square" stroke-linejoin="bevel" stroke-width="12.984" layerName="Rectangle 200"/><path d="M3424.03 1292.13c6.1-2.69 3.38-1.93-1.3 12.13-4.33 13.01-4.51 34.65 3.82 52.34 10.01 21.26 20.66 27.74 23.15 33.12 1.16 2.49-.57 3.56-2.91 7.91l-62.78 116.67c-7.39 13.71-24.51 18.83-38.22 11.43l-72.14-38.93c-13.71-7.4-18.82-24.51-11.42-38.22l94.02-173.57c.79-1.47 4.99-11.83 4.9-9.98-.2 3.94 2.16 7.5 2.28 8.07 0 0 5.58 13.43 11.73 19.99 6.15 6.57 12.87 6.28 12.87 6.28s9.43 2.7 15.1 1.83c5.35-.82 9.68-3.36 9.68-3.36s4.31-2.66 11.22-5.71z" fill="#072db7" stroke="#072db7" stroke-linecap="square" stroke-linejoin="bevel" stroke-width="12.984" layerName="Rectangle 187"/><path d="M1132.82 3104.32c-5.82-3.27-3.57-1.55 10.49-6.24 13.01-4.33 30.44-17.16 39.6-34.43 11.02-20.75 9.82-33.16 12.63-38.38 1.3-2.42 3.19-1.68 8.08-2.41l131.01-19.7c15.41-2.3 29.77 8.33 32.06 23.74l12.09 81.08c2.29 15.41-8.34 29.76-23.75 32.06l-195.29 28.79c-1.65.25-12.46 3.1-10.91 2.06 3.26-2.2 4.7-6.23 5.08-6.66 0 0 7.4-12.52 8.97-21.38 1.57-8.86-2.69-14.06-2.69-14.06s-3.49-9.16-7.59-13.19c-3.86-3.78-8.49-5.73-8.49-5.73s-4.71-1.85-11.29-5.55z" fill="#072db7" stroke="#072db7" stroke-linecap="square" stroke-linejoin="bevel" stroke-width="12.984" layerName="Rectangle 100"/><path d="M1150.08 1338.53c1.39-6.53.41-3.87 9.09 8.15 8.02 11.12 25.47 23.92 44.69 27.5 23.1 4.31 34.59-.54 40.4.58 2.7.52 2.56 2.54 4.72 6.99l57.95 119.14c6.8 14.02.94 30.9-13.08 37.69l-73.76 35.76c-14.01 6.8-30.89.95-37.69-13.07l-85.84-177.77c-.72-1.5-6.68-10.96-5.22-9.8 3.07 2.46 7.34 2.63 7.88 2.86 0 0 14.15 3.33 23.07 2.18 8.93-1.15 12.62-6.78 12.62-6.78s7.7-6.06 10.32-11.18c2.46-4.81 2.93-9.81 2.93-9.81s.36-5.05 1.92-12.44z" fill="#072db7" stroke="#072db7" stroke-linecap="square" stroke-linejoin="bevel" stroke-width="12.984" layerName="Rectangle 101"/><path d="M3539.83 3139.98c5.91-3.12 3.62-1.46-10.32-6.52-12.88-4.68-29.97-17.96-38.67-35.47-10.46-21.04-8.93-33.42-11.6-38.7-1.24-2.46-3.14-1.77-8.01-2.63l-130.44-23.18c-15.35-2.71-29.98 7.53-32.69 22.88l-14.24 80.72c-2.7 15.35 7.54 29.98 22.89 32.68l194.45 33.99c1.64.29 12.37 3.43 10.86 2.35-3.2-2.29-4.54-6.35-4.9-6.8 0 0-7.07-12.71-8.41-21.6-1.33-8.9 3.07-13.99 3.07-13.99s3.73-9.07 7.94-12.98c3.96-3.68 8.63-5.51 8.63-5.51s4.76-1.72 11.44-5.24z" fill="#072db7" stroke="#072db7" stroke-linecap="square" stroke-linejoin="bevel" stroke-width="12.984" layerName="Rectangle 132"/><path d="M1904.05 804.553c-6.61-.903-3.78-.922 4.6 11.304 7.76 11.307 13.91 32.054 10.8 51.355-3.75 23.199-12.2 32.369-13.11 38.221-.42 2.719 1.53 3.27 4.99 6.802l92.57 94.785c10.9 11.13 28.76 11.32 39.89.42l58.57-57.341c11.14-10.9 11.32-28.761.42-39.894l-138.32-140.836c-1.16-1.192-8.06-9.989-7.46-8.231 1.27 3.724-.01 7.805.03 8.382 0 0-1.65 14.447-5.75 22.458-4.09 8.01-10.63 9.585-10.63 9.585s-8.31 5.202-14.01 5.934c-5.36.691-10.23-.55-10.23-.55s-4.87-1.371-12.36-2.394z" fill="#072db7" stroke="#072db7" stroke-linecap="square" stroke-linejoin="bevel" stroke-width="12.984" layerName="Rectangle 201"/><path d="M3573.93 1373.01c-1.16-6.57-.28-3.89-9.35 7.84-8.39 10.84-26.25 23.06-45.58 26-23.23 3.54-34.55-1.69-40.4-.76-2.71.43-2.64 2.45-4.94 6.82l-61.89 117.15c-7.25 13.79-1.96 30.85 11.82 38.11l72.53 38.19c13.79 7.26 30.85 1.97 38.11-11.81l91.7-174.81c.78-1.48 7.04-10.74 5.55-9.63-3.16 2.36-7.43 2.39-7.97 2.6 0 0-14.26 2.85-23.14 1.41-8.88-1.45-12.38-7.19-12.38-7.19s-7.5-6.32-9.94-11.52c-2.3-4.9-2.61-9.91-2.61-9.91s-.19-5.05-1.51-12.49z" fill="#072db7" stroke="#072db7" stroke-linecap="square" stroke-linejoin="bevel" stroke-width="12.984" layerName="Rectangle 188"/><path d="m1955.95 3371 82.64-11.48c15.7-2.18 26.7-16.4 24.57-31.77l-26.26-189c-2.13-15.36-16.59-26.05-32.3-23.87l-82.63 11.48c-15.71 2.18-26.71 16.4-24.57 31.77l26.25 189c2.14 15.36 16.6 26.05 32.3 23.87z" fill="#7996ff" stroke="#7996ff" stroke-linecap="square" stroke-linejoin="bevel" stroke-width="12.984" layerName="Rectangle 103"/><path d="m1141.58 2203.75 35.64 75.42c6.78 14.34 23.64 20.59 37.66 13.96l172.52-81.54c14.03-6.63 19.9-23.62 13.13-37.96l-35.65-75.42c-6.77-14.34-23.64-20.59-37.66-13.96l-172.52 81.54c-14.02 6.63-19.9 23.62-13.12 37.96z" fill="#7996ff" stroke="#7996ff" stroke-linecap="square" stroke-linejoin="bevel" stroke-width="12.984" layerName="Rectangle 104"/><path d="m2709.89 3384.64-82.3-13.68c-15.64-2.6-26.26-17.11-23.72-32.41l31.28-188.23c2.54-15.31 17.29-25.6 32.93-23.01l82.29 13.68c15.65 2.6 26.27 17.11 23.72 32.41l-31.28 188.24c-2.54 15.3-17.28 25.6-32.92 23z" fill="#7996ff" stroke="#7996ff" stroke-linecap="square" stroke-linejoin="bevel" stroke-width="12.984" layerName="Rectangle 133"/><path d="m2721.3 1088.78 58.95 59.03c11.2 11.22 11.39 29.2.41 40.16l-135.01 134.84c-10.98 10.96-28.96 10.76-40.16-.46l-58.95-59.03c-11.21-11.22-11.4-29.2-.42-40.16l135.02-134.84c10.97-10.97 28.95-10.76 40.16.46z" fill="#7996ff" stroke="#7996ff" stroke-linecap="square" stroke-linejoin="bevel" stroke-width="12.984" layerName="Rectangle 202"/><path d="m3553.67 2238.03-38.14 74.2c-7.25 14.1-24.31 19.78-38.11 12.69l-169.71-87.23c-13.79-7.09-19.1-24.27-11.85-38.37l38.13-74.2c7.25-14.1 24.31-19.79 38.11-12.69l169.71 87.22c13.8 7.09 19.1 24.28 11.86 38.38z" fill="#7996ff" stroke="#7996ff" stroke-linecap="square" stroke-linejoin="bevel" stroke-width="12.984" layerName="Rectangle 189"/><path d="m1788.66 3394.24 81.19-11.28c15.43-2.14 26.21-16.39 24.06-31.82l-26.37-189.84c-2.14-15.43-16.39-26.2-31.82-24.06l-81.19 11.28c-15.43 2.14-26.21 16.39-24.06 31.82l26.37 189.84c1.15 8.31 5.82 15.27 12.29 19.59 5.54 3.7 12.41 5.46 19.53 4.47z" fill="#3e68ff" stroke="#3e68ff" stroke-linecap="square" stroke-linejoin="bevel" stroke-width="12.984" layerName="Rectangle 106"/><path d="m1069.4 2051.04 35.03 74.11c6.66 14.09 23.47 20.11 37.56 13.46l173.28-81.9c14.09-6.66 20.11-23.47 13.45-37.56l-35.02-74.11c-6.66-14.09-23.48-20.11-37.56-13.45l-173.28 81.89c-7.59 3.59-12.84 10.12-15.03 17.59a28.12 28.12 0 0 0 1.57 19.97z" fill="#3e68ff" stroke="#3e68ff" stroke-linecap="square" stroke-linejoin="bevel" stroke-width="12.984" layerName="Rectangle 107"/><path d="m2876.5 3412.33-80.86-13.44c-15.37-2.56-25.76-17.09-23.2-32.46l31.41-189.06c2.56-15.37 17.09-25.76 32.46-23.21l80.86 13.44c15.37 2.55 25.76 17.08 23.2 32.45l-31.41 189.07c-1.38 8.28-6.23 15.11-12.81 19.25a28.12 28.12 0 0 1-19.65 3.96z" fill="#3e68ff" stroke="#3e68ff" stroke-linecap="square" stroke-linejoin="bevel" stroke-width="12.984" layerName="Rectangle 134"/><path d="m2601.94 969.276 57.93 58.004c11.01 11.02 11 28.88-.03 39.89l-135.61 135.44c-11.02 11.01-28.88 10.99-39.89-.03l-57.93-58c-11.01-11.02-11-28.88.03-39.89l135.61-135.44c5.94-5.929 13.86-8.662 21.62-8.2a28.097 28.097 0 0 1 18.27 8.226z" fill="#3e68ff" stroke="#3e68ff" stroke-linecap="square" stroke-linejoin="bevel" stroke-width="12.984" layerName="Rectangle 203"/><path d="m3630.87 2087.81-37.47 72.9c-7.12 13.86-24.13 19.32-37.98 12.2l-170.46-87.61c-13.86-7.13-19.32-24.13-12.2-37.99l37.47-72.91c7.12-13.85 24.13-19.31 37.99-12.19l170.46 87.61c7.46 3.84 12.49 10.54 14.43 18.07a28.102 28.102 0 0 1-2.24 19.92z" fill="#3e68ff" stroke="#3e68ff" stroke-linecap="square" stroke-linejoin="bevel" stroke-width="12.984" layerName="Rectangle 190"/><path d="M2033.8 3623.21c-3.32 5.79-1.58 3.56-6.13-10.55-4.2-13.05-16.85-30.61-34.03-39.94-20.65-11.22-33.07-10.15-38.26-13.01-2.4-1.33-1.65-3.21-2.33-8.1l-18.39-131.21c-2.15-15.43 8.62-29.68 24.06-31.82l81.19-11.28c15.43-2.14 29.68 8.63 31.82 24.06l26.85 195.57c.23 1.65 2.98 12.49 1.95 10.94-2.16-3.29-6.18-4.77-6.61-5.15 0 0-12.44-7.53-21.28-9.19-8.85-1.66-14.09 2.56-14.09 2.56s-9.2 3.39-13.26 7.45c-3.83 3.82-5.82 8.43-5.82 8.43s-1.9 4.69-5.67 11.24z" fill="#072db7" stroke="#072db7" stroke-linecap="square" stroke-linejoin="bevel" stroke-width="12.984" layerName="Rectangle 109"/><path d="M924.153 2353.41c-6.513-1.45-3.867-.45 8.238-9 11.197-7.92 24.171-25.23 27.947-44.42 4.539-23.06-.2-34.59.979-40.39.548-2.7 2.568-2.54 7.036-4.65l119.707-56.76c14.09-6.66 30.91-.64 37.56 13.45l35.03 74.11c6.66 14.08.64 30.9-13.45 37.56l-178.607 84.07c-1.508.71-11.029 6.57-9.855 5.13 2.487-3.05 2.704-7.33 2.938-7.86 0 0 3.466-14.12 2.406-23.05-1.061-8.93-6.648-12.68-6.648-12.68s-5.988-7.76-11.076-10.43c-4.793-2.51-9.786-3.03-9.786-3.03s-5.044-.41-12.419-2.05z" fill="#072db7" stroke="#072db7" stroke-linecap="square" stroke-linejoin="bevel" stroke-width="12.984" layerName="Rectangle 110"/><path d="M2625.35 3634.69c3.17 5.87 1.49 3.6 6.41-10.39 4.55-12.93 17.66-30.14 35.08-39.02 20.94-10.67 33.33-9.26 38.59-11.98 2.44-1.26 1.74-3.16 2.55-8.04l21.88-130.67c2.56-15.37-7.83-29.9-23.2-32.45l-80.86-13.44c-15.37-2.55-29.9 7.84-32.46 23.21l-32.05 194.78c-.27 1.65-3.3 12.4-2.24 10.88 2.26-3.22 6.31-4.6 6.75-4.97 0 0 12.64-7.19 21.52-8.62 8.88-1.42 14.02 2.93 14.02 2.93s9.1 3.64 13.05 7.81c3.73 3.92 5.6 8.58 5.6 8.58s1.76 4.74 5.36 11.39z" fill="#072db7" stroke="#072db7" stroke-linecap="square" stroke-linejoin="bevel" stroke-width="12.984" layerName="Rectangle 135"/><path d="M2935.6 934.688c.84-6.619.89-3.79-11.25 4.714-11.23 7.865-31.92 14.227-51.25 11.302-23.23-3.516-32.49-11.871-38.35-12.722-2.72-.395-3.25 1.56-6.75 5.052l-93.86 93.506c-11.03 11.01-11.04 28.87-.03 39.89l57.93 58c11.01 11.03 28.87 11.04 39.89.03l139.46-139.716c1.18-1.179 9.9-8.162 8.15-7.543-3.71 1.31-7.8.072-8.38.113 0 0-14.46-1.507-22.51-5.523s-9.69-10.54-9.69-10.54-5.29-8.258-6.08-13.948c-.74-5.358.45-10.235.45-10.235s1.32-4.884 2.27-12.38z" fill="#072db7" stroke="#072db7" stroke-linecap="square" stroke-linejoin="bevel" stroke-width="12.984" layerName="Rectangle 204"/><path d="M3765.99 2394.84c6.56-1.23 3.88-.32-7.93-9.27-10.93-8.28-23.32-26.02-26.46-45.32-3.77-23.2 1.35-34.57.37-40.41-.46-2.71-2.48-2.62-6.88-4.88l-117.76-60.71c-13.86-7.12-30.86-1.66-37.98 12.2l-37.48 72.9c-7.12 13.86-1.66 30.86 12.2 37.99l175.71 89.96c1.48.76 10.8 6.93 9.68 5.45-2.38-3.13-2.46-7.41-2.68-7.94 0 0-2.99-14.23-1.63-23.13 1.35-8.89 7.06-12.45 7.06-12.45s6.25-7.56 11.42-10.05c4.87-2.35 9.88-2.71 9.88-2.71s5.05-.24 12.48-1.63z" fill="#072db7" stroke="#072db7" stroke-linecap="square" stroke-linejoin="bevel" stroke-width="12.984" layerName="Rectangle 191"/><path d="M1865.09 3646.67c4.83 4.6 2.53 2.96 2.91-11.86.35-13.7 7.53-34.12 21.37-47.92 16.64-16.6 28.86-19.07 33.03-23.28 1.93-1.96.68-3.55-.05-8.43l-19.4-131.06c-2.3-15.41-16.66-26.04-32.07-23.74l-81.07 12.1c-15.41 2.3-26.03 16.66-23.73 32.07l29.45 195.19c.25 1.65.67 12.82 1.22 11.04 1.15-3.76 4.58-6.31 4.89-6.8 0 0 9.81-10.74 17.82-14.82 8.02-4.09 14.24-1.53 14.24-1.53s9.78.66 14.83 3.41c4.75 2.58 7.96 6.44 7.96 6.44s3.14 3.97 8.6 9.19z" fill="#072db7" stroke="#072db7" stroke-linecap="square" stroke-linejoin="bevel" stroke-width="12.984" layerName="Rectangle 112"/><path d="M851.353 2199.42c-2.955 5.98-2.075 3.29 12.179-.77 13.185-3.76 34.812-3.01 52.125 6.07 20.808 10.92 26.822 21.84 32.082 24.56 2.445 1.27 3.586-.41 8.033-2.56l119.278-57.68c14.01-6.8 19.87-23.68 13.07-37.69l-35.78-73.76c-6.8-14.01-23.68-19.86-37.7-13.06l-177.467 86.44c-1.501.72-12.033 4.47-10.175 4.46 3.936-.03 7.4 2.48 7.958 2.63 0 0 13.175 6.15 19.47 12.58 6.296 6.43 5.712 13.13 5.712 13.13s2.294 9.53 1.179 15.17c-1.049 5.3-3.77 9.52-3.77 9.52s-2.847 4.19-6.194 10.96z" fill="#072db7" stroke="#072db7" stroke-linecap="square" stroke-linejoin="bevel" stroke-width="12.984" layerName="Rectangle 113"/><path d="M2793.37 3662.63c-4.94 4.48-2.6 2.89-2.58-11.93.01-13.71-6.62-34.31-20.09-48.48-16.19-17.03-28.34-19.83-32.4-24.15-1.88-2-.58-3.56.28-8.42l22.88-130.5c2.71-15.34 17.34-25.59 32.68-22.88l80.73 14.26c15.34 2.71 25.58 17.35 22.87 32.69l-34.64 194.34c-.29 1.64-1.02 12.8-1.51 11-1.06-3.79-4.42-6.43-4.71-6.93 0 0-9.52-10.99-17.43-15.29-7.9-4.3-14.19-1.91-14.19-1.91s-9.79.4-14.91 3.01c-4.82 2.46-8.13 6.24-8.13 6.24s-3.25 3.88-8.85 8.95z" fill="#072db7" stroke="#072db7" stroke-linecap="square" stroke-linejoin="bevel" stroke-width="12.984" layerName="Rectangle 136"/><path d="M2815.25 814.154c6.63-.761 3.8-.841-4.84 11.203-8 11.139-14.59 31.749-11.89 51.112 3.25 23.274 11.5 32.623 12.28 38.494.37 2.727-1.6 3.236-5.13 6.693l-94.57 92.784c-11.14 10.9-29 10.71-39.89-.43l-57.34-58.585c-10.89-11.135-10.7-28.996.44-39.894l141.3-137.845c1.19-1.166 8.27-9.815 7.63-8.069-1.35 3.696-.16 7.803-.2 8.38 0 0 1.34 14.478 5.26 22.575 3.92 8.096 10.43 9.81 10.43 9.81s8.2 5.378 13.88 6.233c5.35.805 10.24-.332 10.24-.332s4.89-1.266 12.4-2.129z" fill="#072db7" stroke="#072db7" stroke-linecap="square" stroke-linejoin="bevel" stroke-width="12.984" layerName="Rectangle 205"/><path d="M3843.87 2243.36c2.76 6.07 1.97 3.36-12.15-1.18-13.05-4.2-34.69-4.17-52.29 4.33-21.16 10.23-27.54 20.94-32.88 23.49-2.49 1.18-3.57-.53-7.95-2.84l-117.29-61.61c-13.78-7.26-19.07-24.32-11.81-38.11l38.21-72.52c7.27-13.78 24.33-19.07 38.11-11.8l174.5 92.29c1.48.78 11.88 4.87 10.02 4.8-3.93-.16-7.48 2.23-8.04 2.37 0 0-13.37 5.71-19.88 11.92-6.5 6.22-6.14 12.93-6.14 12.93s-2.61 9.45-1.69 15.12c.88 5.34 3.46 9.65 3.46 9.65s2.7 4.27 5.82 11.16z" fill="#072db7" stroke="#072db7" stroke-linecap="square" stroke-linejoin="bevel" stroke-width="12.984" layerName="Rectangle 192"/><path d="m2013.91 2894.02-65.87-48.79c-12.52-9.28-15.15-26.94-5.88-39.46l114.08-154.01c9.27-12.52 26.94-15.15 39.46-5.88l65.87 48.79c12.52 9.27 15.15 26.94 5.88 39.46l-114.08 154.01c-5 6.74-12.42 10.62-20.17 11.31-6.64.59-13.51-1.15-19.29-5.43z" fill="#3e68ff" stroke="#3e68ff" stroke-linecap="square" stroke-linejoin="bevel" stroke-width="12.984" layerName="Rectangle 115"/><path d="m1614.08 2116.51 26.88-77.44c5.1-14.72 21.18-22.51 35.9-17.4l181.06 62.84c14.72 5.11 22.51 21.18 17.4 35.9l-26.87 77.44c-5.11 14.72-21.19 22.51-35.91 17.4l-181.06-62.84c-7.93-2.75-13.84-8.68-16.82-15.87a28.086 28.086 0 0 1-.58-20.03z" fill="#3e68ff" stroke="#3e68ff" stroke-linecap="square" stroke-linejoin="bevel" stroke-width="12.984" layerName="Rectangle 116"/><path d="m2664.66 2906.28 67.14-47.02c12.77-8.93 15.87-26.52 6.93-39.29l-109.94-156.99c-8.93-12.76-26.52-15.86-39.29-6.93l-67.14 47.02c-12.76 8.94-15.87 26.53-6.93 39.29l109.94 157c4.81 6.87 12.13 10.94 19.86 11.84 6.62.77 13.54-.79 19.43-4.92z" fill="#3e68ff" stroke="#3e68ff" stroke-linecap="square" stroke-linejoin="bevel" stroke-width="12.984" layerName="Rectangle 137"/><path d="m2479.59 1504.05-81.96-.86c-15.58-.16-28.34 12.34-28.51 27.92l-2.01 191.65c-.16 15.58 12.34 28.34 27.92 28.5l81.96.86c15.58.16 28.35-12.33 28.51-27.91l2.01-191.65c.09-8.39-3.5-15.97-9.26-21.19a28.127 28.127 0 0 0-18.66-7.32z" fill="#3e68ff" stroke="#3e68ff" stroke-linecap="square" stroke-linejoin="bevel" stroke-width="12.984" layerName="Rectangle 206"/><path d="m3084.32 2135.13-24.28-78.29c-4.62-14.88-20.42-23.2-35.3-18.59l-183.06 56.79c-14.88 4.61-23.2 20.42-18.58 35.3l24.28 78.29c4.62 14.88 20.42 23.2 35.3 18.59l183.06-56.79c8.01-2.49 14.12-8.22 17.34-15.3a28.117 28.117 0 0 0 1.24-20z" fill="#3e68ff" stroke="#3e68ff" stroke-linecap="square" stroke-linejoin="bevel" stroke-width="12.984" layerName="Rectangle 193"/><path d="m1876.5 2792.24-67.03-49.66c-12.75-9.43-15.59-27.19-6.36-39.66l113.58-153.33c9.23-12.46 27.05-14.92 39.79-5.48l67.03 49.66c12.75 9.44 15.59 27.19 6.36 39.66l-113.58 153.33c-9.23 12.46-27.05 14.92-39.79 5.48z" fill="#3e68ff" stroke="#3e68ff" stroke-linecap="square" stroke-linejoin="bevel" stroke-width="12.984" layerName="Rectangle 118"/><path d="m1670.14 1954.97 27.36-78.81c5.2-14.98 21.29-23 35.95-17.92l180.26 62.57c14.66 5.08 22.32 21.35 17.12 36.33l-27.35 78.81c-5.2 14.98-21.29 23-35.95 17.92l-180.27-62.57c-14.65-5.08-22.31-21.35-17.12-36.33z" fill="#3e68ff" stroke="#3e68ff" stroke-linecap="square" stroke-linejoin="bevel" stroke-width="12.984" layerName="Rectangle 119"/><path d="m2804.73 2808.2 68.33-47.85c12.99-9.1 16.31-26.77 7.41-39.48l-109.45-156.3c-8.9-12.71-26.64-15.64-39.63-6.54l-68.34 47.85c-12.99 9.1-16.3 26.77-7.41 39.48l109.46 156.3c8.89 12.71 26.64 15.64 39.63 6.54z" fill="#3e68ff" stroke="#3e68ff" stroke-linecap="square" stroke-linejoin="bevel" stroke-width="12.984" layerName="Rectangle 138"/><path d="m2308.61 1502.26-83.42-.87c-15.86-.17-28.84 12.27-29.01 27.78l-2 190.81c-.16 15.51 12.56 28.22 28.42 28.38l83.42.88c15.86.16 28.84-12.28 29-27.79l2-190.8c.17-15.51-12.56-28.22-28.41-28.39z" fill="#3e68ff" stroke="#3e68ff" stroke-linecap="square" stroke-linejoin="bevel" stroke-width="12.984" layerName="Rectangle 207"/><path d="m3033.66 1971.81-24.72-79.68c-4.69-15.14-20.51-23.69-35.33-19.1l-182.25 56.54c-14.81 4.59-23.01 20.6-18.32 35.74l24.72 79.68c4.7 15.14 20.52 23.7 35.33 19.1l182.25-56.54c14.82-4.59 23.02-20.59 18.32-35.74z" fill="#3e68ff" stroke="#3e68ff" stroke-linecap="square" stroke-linejoin="bevel" stroke-width="12.984" layerName="Rectangle 194"/><path d="m2036.82 2579.32-67.03-49.65c-12.75-9.44-15.59-27.2-6.36-39.66l113.58-153.34c9.23-12.46 27.05-14.92 39.79-5.48l67.04 49.66c12.74 9.44 15.58 27.19 6.35 39.66l-113.58 153.33c-9.23 12.47-27.04 14.92-39.79 5.48z" fill="#3e68ff" stroke="#3e68ff" stroke-linecap="square" stroke-linejoin="bevel" stroke-width="12.984" layerName="Rectangle 121"/><path d="m1921.24 2044.33 27.36-78.81c5.2-14.98 21.29-23 35.94-17.91l180.27 62.56c14.66 5.09 22.32 21.35 17.12 36.33l-27.35 78.82c-5.2 14.98-21.29 23-35.95 17.91l-180.27-62.56c-14.65-5.09-22.32-21.36-17.12-36.34z" fill="#3e68ff" stroke="#3e68ff" stroke-linecap="square" stroke-linejoin="bevel" stroke-width="12.984" layerName="Rectangle 122"/><path d="m2650.13 2591.09 68.34-47.86c12.99-9.09 16.3-26.76 7.41-39.47l-109.46-156.3c-8.89-12.71-26.64-15.64-39.63-6.54l-68.33 47.85c-12.99 9.1-16.31 26.77-7.41 39.48l109.45 156.3c8.9 12.71 26.64 15.63 39.63 6.54z" fill="#3e68ff" stroke="#3e68ff" stroke-linecap="square" stroke-linejoin="bevel" stroke-width="12.984" layerName="Rectangle 139"/><path d="m2307.91 1768.79-83.42-.88c-15.86-.16-28.84 12.28-29 27.79l-2 190.8c-.17 15.51 12.56 28.22 28.41 28.39l83.42.87c15.86.17 28.84-12.27 29.01-27.78l2-190.81c.16-15.51-12.56-28.22-28.42-28.38z" fill="#3e68ff" stroke="#3e68ff" stroke-linecap="square" stroke-linejoin="bevel" stroke-width="12.984" layerName="Rectangle 208"/><path d="m2779.73 2052.78-24.72-79.68c-4.7-15.15-20.51-23.7-35.33-19.1l-182.25 56.53c-14.81 4.6-23.02 20.6-18.32 35.75l24.72 79.68c4.7 15.14 20.52 23.69 35.33 19.1l182.25-56.54c14.82-4.6 23.02-20.6 18.32-35.74z" fill="#3e68ff" stroke="#3e68ff" stroke-linecap="square" stroke-linejoin="bevel" stroke-width="12.984" layerName="Rectangle 195"/><path d="m2172.54 2679.85-65.86-48.79c-12.52-9.27-15.16-26.94-5.88-39.46l114.08-154.01c9.27-12.52 26.94-15.15 39.46-5.88l65.87 48.79c12.52 9.28 15.15 26.94 5.87 39.46l-114.07 154.01c-5 6.75-12.43 10.62-20.18 11.31a28.08 28.08 0 0 1-19.29-5.43z" fill="#3e68ff" stroke="#3e68ff" stroke-linecap="square" stroke-linejoin="bevel" stroke-width="12.984" layerName="Rectangle 124"/><path d="m1865.87 2203.9 26.87-77.44c5.11-14.72 21.18-22.51 35.9-17.4l181.07 62.84c14.72 5.11 22.51 21.18 17.4 35.9l-26.88 77.44c-5.11 14.72-21.18 22.51-35.9 17.4l-181.06-62.84c-7.93-2.75-13.85-8.68-16.82-15.87a28.086 28.086 0 0 1-.58-20.03z" fill="#3e68ff" stroke="#3e68ff" stroke-linecap="square" stroke-linejoin="bevel" stroke-width="12.984" layerName="Rectangle 125"/><path d="m2511.78 2687.97 67.15-47.02c12.76-8.94 15.86-26.53 6.92-39.29l-109.93-156.99c-8.94-12.77-26.53-15.87-39.29-6.93l-67.15 47.02c-12.76 8.93-15.86 26.53-6.92 39.29l109.93 156.99a28.126 28.126 0 0 0 19.86 11.84c6.62.77 13.54-.79 19.43-4.91z" fill="#3e68ff" stroke="#3e68ff" stroke-linecap="square" stroke-linejoin="bevel" stroke-width="12.984" layerName="Rectangle 140"/><path d="m2476.8 1770.56-81.97-.86c-15.58-.16-28.34 12.33-28.5 27.91l-2.01 191.65c-.16 15.58 12.33 28.34 27.91 28.51l81.97.85c15.58.17 28.34-12.33 28.51-27.91l2-191.65c.09-8.39-3.49-15.96-9.25-21.19-4.94-4.48-11.47-7.24-18.66-7.31z" fill="#3e68ff" stroke="#3e68ff" stroke-linecap="square" stroke-linejoin="bevel" stroke-width="12.984" layerName="Rectangle 209"/><path d="m2829.77 2214.09-24.29-78.29c-4.61-14.88-20.42-23.2-35.3-18.58L2587.13 2174c-14.88 4.62-23.2 20.42-18.59 35.3l24.29 78.29c4.62 14.89 20.42 23.21 35.3 18.59l183.06-56.78c8.01-2.49 14.12-8.22 17.33-15.31a28.065 28.065 0 0 0 1.25-20z" fill="#3e68ff" stroke="#3e68ff" stroke-linecap="square" stroke-linejoin="bevel" stroke-width="12.984" layerName="Rectangle 182"/><path d="m2349.75 2483.61-236.66-171.95 90.4-278.21h292.53l90.4 278.21-236.67 171.95z" fill="#072cb4" layerName="Polygon 4"/></g><g layerName="Layer Membrane" fill="none" stroke-linecap="round" stroke-linejoin="round" stroke-width="3"><path d="M1714.67 3011.55c.22.17.48.25.71.41l.2.15c14.22 10.53 34.1 7.78 44.4-6.12l1.61-2.19 115.94-156.52c4.22-5.68 5.16-12.75 4.64-19.54-.07-7.51-2.32-14.84-7.15-20.43-.66-.79-1.55-1.46-2.34-2.2-.65-.59-1.18-1.3-1.9-1.84l-.33-.24-69.41-51.41-.33-.24c-.54-.4-1.17-.61-1.73-.97-1.3-.83-2.62-1.64-4-2.27-1.14-.52-2.31-.88-3.49-1.26-1.06-.34-2.1-.65-3.17-.87-1.01-.21-2.01-.36-3.04-.47-1.84-.2-3.67-.25-5.5-.14-.21.02-.42.01-.64.03-8.67.7-16.93 4.8-22.44 12.24l-116.31 157.02-.98 1.33c-8.99 12.13-7.68 28.79 2.31 39.82.02.03.05.04.07.06 1.54 1.86 3.24 3.6 5.23 5.07l67.65 50.58z" stroke="#06195f" layerName="Curve 133"/><path d="M1412.49 1866.07c-.09.26-.09.54-.18.8l-.08.24c-5.8 16.71 2.77 34.86 19.11 40.54l2.57.89 184.01 63.86c6.69 2.32 13.72 1.11 20.04-1.41 7.14-2.31 13.47-6.65 17.36-12.93.55-.87.93-1.92 1.4-2.89.37-.8.89-1.52 1.18-2.37l.14-.38 28.32-81.6.13-.39c.22-.63.23-1.3.41-1.94.4-1.49.78-3 .96-4.49.16-1.25.16-2.47.17-3.72.01-1.1-.01-2.19-.12-3.28-.1-1.03-.26-2.03-.47-3.04-.35-1.82-.85-3.57-1.5-5.29-.08-.2-.14-.4-.22-.6-3.26-8.06-9.64-14.73-18.38-17.76l-184.61-64.07-1.56-.54c-14.27-4.95-29.78 1.27-37.32 14.11-.01.02-.01.06-.03.08-1.32 2.02-2.47 4.17-3.28 6.51l-28.05 79.67z" stroke="#06195f" layerName="Curve 134"/><path d="M2960.66 3031.75c-.23.15-.49.23-.72.38l-.21.15c-14.49 10.14-34.29 6.87-44.21-7.3l-1.56-2.23-111.73-159.55c-4.06-5.8-4.81-12.89-4.12-19.67.27-7.5 2.71-14.76 7.7-20.22.68-.77 1.58-1.43 2.39-2.14.67-.58 1.22-1.27 1.96-1.79l.33-.23 70.75-49.55.33-.23c.56-.39 1.19-.58 1.76-.92 1.33-.8 2.67-1.57 4.06-2.16 1.16-.49 2.33-.83 3.53-1.17 1.06-.31 2.11-.59 3.19-.79 1.02-.18 2.02-.3 3.05-.38 1.84-.16 3.67-.15 5.5.01.21.02.42.01.64.04 8.65.93 16.8 5.25 22.11 12.83l112.08 160.06.95 1.36c8.66 12.37 6.91 28.99-3.37 39.75-.02.02-.06.03-.08.05-1.58 1.82-3.33 3.52-5.36 4.94l-68.97 48.76z" stroke="#06195f" layerName="Curve 175"/><path d="M2311.96 1229.72c.28.01.54.1.81.11h.25c17.69.18 31.89 14.38 31.7 31.68l-.02 2.72-2.05 194.77c-.07 7.07-3.58 13.28-8.09 18.38-4.59 5.94-10.81 10.43-18.04 11.97-1 .23-2.12.23-3.19.34-.88.08-1.73.33-2.63.32l-.4-.01-86.37-.9-.41-.01c-.67 0-1.3-.22-1.97-.27-1.54-.13-3.08-.27-4.55-.61-1.23-.27-2.38-.68-3.55-1.1-1.05-.37-2.06-.75-3.05-1.22-.94-.44-1.83-.92-2.71-1.46a31.54 31.54 0 0 1-4.46-3.21c-.16-.14-.34-.26-.5-.41-6.49-5.79-10.6-14.04-10.51-23.3l2.05-195.39.02-1.66c.16-15.1 11.26-27.59 25.88-30.35.03-.01.07 0 .1 0 2.34-.56 4.75-.92 7.22-.9l84.47.51z" stroke="#06195f" layerName="Curve 244"/><path d="M3294.13 1891.53c.08.27.08.54.15.81l.07.23c5.24 16.9-3.92 34.76-20.44 39.88l-2.6.81-186.04 57.71c-6.76 2.1-13.74.65-19.98-2.08-7.06-2.54-13.23-7.09-16.91-13.5-.53-.88-.87-1.95-1.31-2.93-.34-.82-.83-1.55-1.1-2.41l-.12-.39-25.59-82.49-.12-.39c-.2-.65-.19-1.31-.35-1.96-.35-1.5-.68-3.02-.81-4.52-.12-1.25-.08-2.47-.04-3.72.03-1.1.08-2.19.22-3.27.14-1.03.33-2.02.57-3.03.41-1.8.97-3.54 1.68-5.23.09-.2.15-.4.24-.6 3.53-7.95 10.13-14.39 18.96-17.14l186.64-57.89 1.58-.49c14.42-4.48 29.71 2.26 36.82 15.34.02.03.01.06.03.09 1.25 2.06 2.33 4.25 3.06 6.61l25.39 80.56z" stroke="#06195f" layerName="Curve 231"/><path d="M2033.57 2584.55c.22.16.48.25.71.41l.2.15c14.21 10.53 34.1 7.78 44.39-6.12l1.62-2.19 115.94-156.52c4.21-5.69 5.15-12.76 4.64-19.54-.07-7.51-2.32-14.84-7.15-20.43-.67-.79-1.55-1.47-2.34-2.2-.66-.6-1.18-1.3-1.91-1.84l-.32-.24-69.41-51.41-.33-.24c-.54-.41-1.17-.61-1.73-.97-1.31-.83-2.63-1.65-4-2.27-1.14-.52-2.31-.89-3.5-1.27-1.05-.33-2.09-.64-3.16-.86-1.02-.21-2.02-.36-3.04-.47-1.84-.2-3.67-.25-5.5-.14-.21.02-.43.01-.64.03-8.67.7-16.93 4.8-22.44 12.23l-116.31 157.03-.99 1.33c-8.99 12.13-7.68 28.79 2.32 39.82.02.02.05.03.07.06 1.53 1.86 3.24 3.6 5.23 5.07l67.65 50.58z" stroke="#06195f" layerName="Curve 136"/><path d="M1915.28 2042.79c-.09.26-.09.54-.18.8l-.08.24c-5.8 16.71 2.77 34.86 19.11 40.53l2.57.89 184.01 63.87c6.69 2.32 13.72 1.11 20.04-1.41 7.14-2.31 13.47-6.65 17.36-12.93.55-.87.93-1.92 1.4-2.89.37-.81.89-1.52 1.18-2.37l.14-.38 28.32-81.6.13-.39c.22-.63.23-1.3.41-1.94.4-1.5.78-3 .96-4.49.16-1.25.16-2.47.17-3.72 0-1.11-.02-2.19-.12-3.28-.11-1.03-.26-2.03-.47-3.04-.35-1.82-.85-3.57-1.5-5.29-.09-.2-.14-.4-.22-.6-3.26-8.07-9.64-14.73-18.38-17.76l-184.61-64.07-1.56-.54c-14.27-4.96-29.78 1.27-37.32 14.1-.01.03-.01.07-.03.09-1.32 2.02-2.47 4.17-3.28 6.51l-28.05 79.67z" stroke="#06195f" layerName="Curve 137"/><path d="M2653.25 2596.4c-.23.16-.49.24-.72.39l-.21.14c-14.49 10.15-34.29 6.87-44.21-7.3l-1.56-2.22-111.73-159.56c-4.06-5.79-4.82-12.89-4.12-19.66.27-7.5 2.71-14.77 7.7-20.23.68-.77 1.58-1.42 2.39-2.13.67-.58 1.22-1.27 1.96-1.79l.33-.23 70.75-49.55.33-.23c.56-.39 1.19-.58 1.76-.93 1.33-.79 2.67-1.57 4.06-2.15 1.16-.5 2.33-.83 3.53-1.18 1.06-.31 2.11-.58 3.19-.78 1.02-.18 2.02-.31 3.05-.38 1.84-.16 3.67-.16 5.5 0 .21.03.42.02.64.05 8.64.93 16.8 5.25 22.1 12.83l112.09 160.06.95 1.36c8.66 12.37 6.91 28.99-3.37 39.74-.02.03-.06.04-.08.06-1.58 1.82-3.33 3.51-5.36 4.93l-68.97 48.76z" stroke="#06195f" layerName="Curve 176"/><path d="M2308.47 1762.65c.28.01.54.09.81.11h.25c17.69.18 31.89 14.38 31.7 31.68l-.02 2.71-2.05 194.78c-.07 7.07-3.58 13.28-8.09 18.38-4.59 5.94-10.81 10.43-18.04 11.97-1 .23-2.12.23-3.19.34-.88.08-1.73.33-2.63.32l-.4-.01-86.37-.9-.41-.01c-.67-.01-1.3-.22-1.97-.27-1.54-.13-3.08-.28-4.55-.61-1.23-.27-2.38-.68-3.55-1.1-1.05-.37-2.06-.75-3.05-1.22-.94-.45-1.83-.93-2.71-1.46a31.54 31.54 0 0 1-4.46-3.21c-.16-.14-.34-.26-.5-.41-6.49-5.79-10.6-14.05-10.51-23.3l2.05-195.39.02-1.66c.16-15.1 11.26-27.59 25.88-30.35.03-.01.07 0 .1 0 2.34-.56 4.75-.92 7.22-.9l84.47.51z" stroke="#06195f" layerName="Curve 245"/><path d="M2785.74 2051.43c.08.27.08.54.15.81l.08.24c5.24 16.89-3.93 34.75-20.45 39.88l-2.6.8-186.03 57.71c-6.76 2.1-13.75.65-19.98-2.08-7.07-2.54-13.24-7.09-16.92-13.5-.52-.88-.87-1.94-1.3-2.93-.35-.82-.84-1.55-1.11-2.41l-.12-.39-25.59-82.49-.12-.39c-.2-.64-.19-1.31-.35-1.95-.35-1.51-.68-3.03-.81-4.53-.12-1.25-.08-2.47-.04-3.72.03-1.1.08-2.19.23-3.27.14-1.03.32-2.02.56-3.03.42-1.8.98-3.54 1.68-5.23.09-.2.15-.4.24-.6 3.53-7.95 10.13-14.39 18.97-17.13l186.63-57.9 1.58-.49c14.43-4.48 29.72 2.26 36.82 15.34.02.03.02.06.03.09 1.25 2.06 2.33 4.25 3.07 6.61l25.38 80.56z" stroke="#06195f" layerName="Curve 232"/><path d="M2170.07 2685.66c.22.16.48.25.71.41l.2.14c14.21 10.53 34.09 7.79 44.39-6.12l1.62-2.18 115.94-156.52c4.21-5.69 5.15-12.76 4.64-19.55-.07-7.5-2.32-14.83-7.16-20.42-.66-.79-1.54-1.47-2.33-2.2-.66-.6-1.18-1.3-1.91-1.84l-.33-.24-69.4-51.41-.33-.25c-.54-.4-1.17-.6-1.73-.97-1.31-.83-2.63-1.64-4-2.26-1.15-.53-2.31-.89-3.5-1.27-1.05-.34-2.09-.64-3.16-.87-1.02-.2-2.02-.36-3.04-.46-1.84-.21-3.67-.25-5.5-.14-.22.02-.43 0-.64.03-8.67.7-16.94 4.8-22.44 12.23l-116.31 157.02-.99 1.33c-8.99 12.14-7.68 28.8 2.31 39.83.03.02.06.03.08.05 1.53 1.87 3.24 3.61 5.22 5.08l52.53 39.18 15.13 11.4z" stroke="#06195f" layerName="Curve 139"/><path d="M1859.59 2203.27c-.1.26-.1.53-.18.8l-.08.23c-5.8 16.71 2.76 34.87 19.1 40.54l2.57.89 184.02 63.87c6.68 2.32 13.71 1.1 20.04-1.42 7.14-2.31 13.46-6.64 17.35-12.93.55-.87.94-1.91 1.4-2.89.37-.8.89-1.51 1.19-2.36l.13-.39 28.32-81.6.13-.38c.22-.64.23-1.3.41-1.94.4-1.5.78-3 .97-4.5.16-1.25.15-2.47.16-3.71.01-1.11-.01-2.19-.12-3.28-.1-1.03-.25-2.03-.46-3.04a32.7 32.7 0 0 0-1.51-5.29c-.08-.2-.13-.41-.22-.61-3.26-8.06-9.64-14.72-18.38-17.75l-184.6-64.07-1.57-.55c-14.27-4.95-29.77 1.28-37.31 14.11-.02.03-.02.06-.03.09-1.32 2.02-2.47 4.17-3.29 6.5l-21.69 61.84-6.35 17.84z" stroke="#06195f" layerName="Curve 140"/><path d="M2514.1 2693.84c-.22.16-.49.24-.72.39l-.2.14c-14.49 10.15-34.29 6.87-44.22-7.3l-1.56-2.23-111.72-159.55c-4.06-5.8-4.82-12.89-4.12-19.66.27-7.5 2.71-14.77 7.69-20.23.69-.77 1.59-1.43 2.4-2.14.67-.58 1.21-1.27 1.95-1.79l.34-.23 70.75-49.54.33-.24c.55-.38 1.19-.57 1.76-.92 1.33-.79 2.67-1.57 4.06-2.16 1.15-.49 2.33-.82 3.52-1.17 1.07-.31 2.12-.59 3.19-.78 1.02-.18 2.03-.31 3.06-.39 1.84-.15 3.67-.15 5.49.01.22.02.43.02.64.04 8.65.94 16.8 5.25 22.11 12.83l112.09 160.07.95 1.35c8.66 12.37 6.91 28.99-3.38 39.75-.02.02-.05.03-.07.05-1.58 1.82-3.33 3.52-5.36 4.94l-53.55 37.77-15.43 10.99z" stroke="#06195f" layerName="Curve 177"/><path d="M2478.33 1764.43c.28.01.54.09.81.11h.25c17.69.18 31.88 14.38 31.7 31.68l-.03 2.72-2.04 194.77c-.07 7.07-3.59 13.28-8.1 18.38-4.58 5.94-10.8 10.43-18.03 11.97-1 .23-2.12.23-3.19.34-.88.08-1.73.33-2.63.32l-.41-.01-86.37-.9-.4-.01c-.68 0-1.3-.22-1.97-.27-1.54-.13-3.08-.27-4.56-.61-1.22-.27-2.37-.68-3.55-1.1-1.04-.37-2.06-.75-3.05-1.22-.93-.44-1.82-.92-2.7-1.46a32.22 32.22 0 0 1-4.47-3.21c-.16-.14-.33-.26-.49-.41-6.49-5.79-10.61-14.05-10.51-23.3l2.05-195.39.02-1.66c.16-15.1 11.25-27.59 25.88-30.35.03-.01.06 0 .09 0 2.35-.56 4.76-.92 7.23-.9l65.53.47 18.94.04z" stroke="#06195f" layerName="Curve 246"/><path d="M2836.07 2213.67c.08.27.08.54.15.81l.07.24c5.24 16.89-3.92 34.75-20.44 39.87l-2.6.81-186.03 57.71c-6.76 2.1-13.75.65-19.99-2.08-7.06-2.54-13.23-7.09-16.91-13.5-.53-.88-.87-1.95-1.3-2.93-.35-.82-.84-1.55-1.11-2.41l-.12-.39-25.59-82.49-.12-.39c-.2-.64-.19-1.31-.35-1.96-.35-1.5-.68-3.02-.81-4.52-.12-1.25-.08-2.47-.04-3.72.03-1.1.08-2.19.22-3.27.14-1.03.33-2.02.57-3.03.42-1.8.97-3.54 1.68-5.23.09-.2.15-.4.24-.6 3.53-7.95 10.13-14.39 18.96-17.13l186.64-57.9 1.58-.49c14.42-4.48 29.71 2.26 36.82 15.34.02.03.02.06.03.09 1.25 2.06 2.33 4.25 3.06 6.61l19.63 62.52 5.76 18.04z" stroke="#06195f" layerName="Curve 219"/><path d="M1873.25 2797.47c.22.16.48.25.71.41l.2.15c14.21 10.52 34.09 7.78 44.39-6.13l1.62-2.18 115.94-156.52c4.21-5.69 5.15-12.76 4.64-19.55-.07-7.5-2.32-14.83-7.16-20.42-.66-.79-1.54-1.47-2.33-2.2-.66-.6-1.18-1.3-1.91-1.84l-.33-.24-69.4-51.41-.33-.25c-.54-.4-1.17-.6-1.73-.97-1.31-.83-2.63-1.64-4-2.26-1.15-.53-2.31-.89-3.5-1.27-1.05-.33-2.09-.64-3.16-.87-1.02-.2-2.02-.36-3.04-.46-1.84-.2-3.67-.25-5.5-.14-.22.02-.43.01-.64.03-8.67.7-16.94 4.8-22.44 12.23l-116.31 157.02-.99 1.33c-8.99 12.14-7.68 28.8 2.32 39.83.02.02.05.03.07.05 1.53 1.87 3.24 3.61 5.22 5.08l67.66 50.58z" stroke="#06195f" layerName="Curve 142"/><path d="M1664.18 1953.43c-.09.26-.09.53-.18.79l-.08.24c-5.8 16.71 2.77 34.87 19.11 40.54l2.57.89 184.01 63.86c6.69 2.32 13.72 1.11 20.04-1.41 7.14-2.31 13.47-6.64 17.36-12.93.55-.87.93-1.92 1.4-2.89.37-.8.89-1.51 1.18-2.37l.14-.38 28.32-81.6.13-.38c.22-.64.23-1.3.41-1.95.4-1.49.78-2.99.96-4.49.16-1.25.16-2.47.17-3.71 0-1.11-.01-2.2-.12-3.29-.11-1.03-.26-2.03-.47-3.04a31.85 31.85 0 0 0-1.5-5.28c-.08-.2-.14-.41-.22-.61-3.26-8.06-9.64-14.72-18.38-17.76l-184.61-64.07-1.56-.54c-14.27-4.95-29.78 1.28-37.32 14.11-.01.02-.01.06-.03.09-1.32 2.02-2.47 4.16-3.28 6.5l-28.05 79.68z" stroke="#06195f" layerName="Curve 143"/><path d="M2807.84 2813.51c-.23.16-.49.24-.72.39l-.2.15c-14.49 10.14-34.3 6.87-44.22-7.3l-1.56-2.23-111.73-159.55c-4.06-5.8-4.81-12.89-4.11-19.67.26-7.5 2.71-14.76 7.69-20.23.68-.76 1.59-1.42 2.4-2.13.67-.58 1.21-1.27 1.95-1.79l.33-.23 70.75-49.55.34-.23c.55-.39 1.18-.58 1.75-.92 1.33-.8 2.67-1.57 4.06-2.16 1.16-.49 2.34-.83 3.53-1.17 1.06-.31 2.11-.59 3.19-.79 1.02-.18 2.02-.3 3.05-.38 1.85-.16 3.67-.15 5.5 0 .21.03.43.02.64.05 8.65.93 16.8 5.25 22.11 12.83l112.08 160.06.95 1.36c8.67 12.37 6.91 28.99-3.37 39.75-.02.02-.06.03-.08.05-1.58 1.82-3.33 3.52-5.35 4.94l-68.98 48.75z" stroke="#06195f" layerName="Curve 178"/><path d="M2309.17 1496.13c.28 0 .54.09.81.1h.25c17.69.19 31.88 14.38 31.7 31.68l-.03 2.72-2.04 194.77c-.07 7.08-3.59 13.28-8.1 18.38-4.58 5.95-10.8 10.43-18.03 11.97-1 .23-2.12.23-3.19.34-.88.08-1.73.33-2.63.32l-.41-.01-86.37-.9h-.4c-.68-.01-1.3-.23-1.97-.28-1.54-.12-3.08-.27-4.55-.61-1.23-.27-2.38-.68-3.56-1.1a32.24 32.24 0 0 1-3.05-1.21c-.93-.45-1.82-.93-2.7-1.47-1.59-.95-3.07-2.01-4.47-3.2-.16-.15-.33-.27-.49-.42-6.49-5.79-10.61-14.04-10.51-23.29l2.05-195.4.02-1.66c.16-15.1 11.25-27.59 25.88-30.35.03-.01.06.01.09 0 2.35-.56 4.76-.92 7.23-.89l84.47.51z" stroke="#06195f" layerName="Curve 247"/><path d="M3039.67 1970.47c.08.26.08.54.15.8l.08.24c5.24 16.89-3.92 34.75-20.45 39.88l-2.6.8-186.03 57.71c-6.76 2.1-13.75.66-19.98-2.07-7.06-2.55-13.24-7.09-16.92-13.51-.52-.88-.87-1.94-1.3-2.93-.35-.81-.84-1.54-1.11-2.4l-.12-.39-25.59-82.5-.12-.39c-.2-.64-.19-1.3-.34-1.95-.35-1.51-.69-3.02-.82-4.53-.12-1.25-.07-2.47-.04-3.71.03-1.11.09-2.19.23-3.28.14-1.03.32-2.02.57-3.02.41-1.81.97-3.54 1.68-5.24.09-.19.14-.4.24-.59 3.52-7.95 10.12-14.4 18.96-17.14l186.63-57.9 1.58-.49c14.43-4.47 29.72 2.27 36.83 15.34.01.03.01.07.02.09 1.25 2.07 2.34 4.25 3.07 6.61l25.38 80.57z" stroke="#06195f" layerName="Curve 233"/><path d="M2011.43 2899.82c.22.17.48.25.71.41l.2.15c14.21 10.53 34.1 7.78 44.4-6.12l1.61-2.19 115.94-156.51c4.21-5.69 5.16-12.76 4.64-19.55-.07-7.51-2.32-14.84-7.15-20.43-.66-.78-1.55-1.46-2.34-2.2-.66-.59-1.18-1.3-1.91-1.84l-.32-.24-69.41-51.41-.33-.24c-.54-.4-1.17-.61-1.73-.97-1.3-.83-2.62-1.64-4-2.27-1.14-.52-2.31-.88-3.49-1.26-1.06-.34-2.1-.65-3.17-.87a28.6 28.6 0 0 0-3.04-.46c-1.84-.21-3.67-.26-5.5-.15-.21.02-.42.01-.64.03-8.67.7-16.93 4.8-22.44 12.24l-116.31 157.02-.98 1.33c-8.99 12.14-7.69 28.79 2.31 39.82.02.03.05.04.07.06 1.54 1.86 3.24 3.6 5.23 5.07l52.53 39.19 15.12 11.39z" stroke="#06195f" layerName="Curve 145"/><path d="M1607.8 2115.88c-.09.26-.1.54-.18.8l-.08.24c-5.8 16.71 2.76 34.86 19.11 40.53l2.57.9 184.01 63.86c6.69 2.32 13.72 1.11 20.04-1.41 7.14-2.31 13.46-6.65 17.36-12.93.55-.87.93-1.92 1.39-2.89.38-.81.89-1.52 1.19-2.37l.13-.38 28.32-81.6.14-.39c.22-.63.23-1.3.41-1.94.4-1.49.78-3 .96-4.49.16-1.25.16-2.47.17-3.72 0-1.11-.02-2.19-.12-3.28-.11-1.03-.26-2.03-.47-3.04a31.05 31.05 0 0 0-1.51-5.29c-.08-.2-.13-.4-.22-.6-3.25-8.06-9.63-14.73-18.38-17.76l-184.6-64.07-1.57-.54c-14.26-4.96-29.77 1.27-37.31 14.1-.01.03-.01.07-.03.09-1.32 2.02-2.47 4.17-3.28 6.51l-21.69 61.83-6.36 17.84z" stroke="#06195f" layerName="Curve 146"/><path d="M2666.98 2912.15c-.23.16-.49.24-.72.39l-.2.14c-14.49 10.15-34.3 6.87-44.22-7.3l-1.56-2.22-111.73-159.56c-4.06-5.79-4.81-12.89-4.11-19.66.26-7.5 2.71-14.77 7.69-20.23.68-.77 1.59-1.42 2.4-2.13.67-.58 1.21-1.27 1.95-1.79l.33-.23 70.75-49.55.34-.23c.55-.39 1.18-.58 1.75-.93 1.33-.79 2.67-1.57 4.06-2.15 1.16-.5 2.34-.83 3.53-1.18 1.06-.3 2.11-.58 3.19-.78 1.02-.18 2.02-.31 3.05-.38 1.85-.16 3.67-.16 5.5 0 .21.03.43.02.64.05 8.65.93 16.8 5.25 22.11 12.83l112.08 160.06.95 1.36c8.67 12.37 6.91 28.99-3.37 39.75-.02.02-.06.03-.08.05-1.58 1.82-3.33 3.51-5.35 4.93l-53.56 37.77-15.42 10.99z" stroke="#06195f" layerName="Curve 179"/><path d="M2481.12 1497.93c.28 0 .54.09.81.1h.25c17.69.19 31.89 14.38 31.71 31.68l-.03 2.72-2.04 194.77c-.08 7.08-3.59 13.28-8.1 18.39-4.59 5.94-10.81 10.42-18.04 11.96-1 .23-2.12.24-3.19.35-.88.07-1.72.32-2.63.31h-.4l-86.37-.91h-.41c-.67-.01-1.3-.22-1.97-.27-1.54-.13-3.08-.28-4.55-.61-1.23-.28-2.38-.69-3.55-1.1-1.05-.37-2.06-.76-3.05-1.22-.94-.45-1.83-.93-2.71-1.47-1.59-.94-3.07-2.01-4.46-3.2-.16-.15-.34-.26-.5-.41-6.49-5.79-10.6-14.05-10.51-23.3l2.05-195.4.02-1.65c.16-15.11 11.26-27.6 25.88-30.36.03 0 .07.01.1 0 2.34-.56 4.75-.92 7.22-.89l65.53.47 18.94.04z" stroke="#06195f" layerName="Curve 248"/><path d="M3090.62 2134.71c.08.26.08.54.15.8l.08.24c5.24 16.9-3.93 34.75-20.45 39.88l-2.6.81-186.03 57.71c-6.76 2.09-13.75.65-19.98-2.08-7.06-2.55-13.24-7.09-16.92-13.5-.52-.89-.87-1.95-1.3-2.94-.35-.81-.84-1.54-1.11-2.4l-.12-.39-25.59-82.5-.12-.39c-.2-.64-.19-1.3-.34-1.95-.35-1.51-.69-3.02-.82-4.52-.12-1.26-.07-2.48-.04-3.72.03-1.11.09-2.19.23-3.28.14-1.02.32-2.02.56-3.02.42-1.81.98-3.54 1.69-5.23.08-.2.14-.41.24-.6 3.52-7.95 10.12-14.4 18.96-17.14l186.63-57.89 1.58-.5c14.43-4.47 29.72 2.27 36.83 15.35.01.02.01.06.02.09 1.25 2.06 2.33 4.24 3.07 6.6l19.62 62.53 5.76 18.04z" stroke="#06195f" layerName="Curve 234"/><path d="M1852.85 3113.91c.23.16.49.25.71.41l.2.14c14.22 10.53 34.1 7.79 44.4-6.12l1.62-2.18 115.93-156.52c4.22-5.69 5.16-12.76 4.64-19.55-.06-7.5-2.31-14.83-7.15-20.42-.66-.79-1.55-1.47-2.34-2.2-.65-.6-1.18-1.3-1.9-1.84l-.33-.24-69.41-51.42-.32-.24c-.54-.4-1.17-.61-1.73-.97-1.31-.83-2.63-1.64-4-2.26-1.15-.53-2.31-.89-3.5-1.27-1.05-.34-2.1-.64-3.17-.87-1.01-.2-2.01-.36-3.04-.46-1.84-.21-3.66-.25-5.49-.14-.22.02-.43 0-.65.03-8.66.7-16.93 4.8-22.44 12.23l-116.3 157.02-.99 1.33c-8.99 12.14-7.68 28.8 2.31 39.83.02.02.06.03.08.05 1.53 1.87 3.23 3.61 5.22 5.08l52.53 39.18 15.12 11.4z" stroke="#06195f" layerName="Curve 148"/><path d="M1356.11 2028.53c-.09.26-.1.54-.18.8l-.08.23c-5.8 16.72 2.76 34.87 19.11 40.54l2.57.89 184.01 63.87c6.69 2.32 13.72 1.11 20.04-1.42 7.14-2.3 13.46-6.64 17.36-12.93.55-.86.93-1.91 1.4-2.89.37-.8.88-1.51 1.18-2.36l.13-.39 28.32-81.6.14-.38c.22-.64.23-1.3.41-1.94.4-1.5.78-3 .96-4.5.16-1.25.16-2.47.17-3.71 0-1.11-.02-2.19-.12-3.28-.11-1.03-.26-2.03-.47-3.04-.35-1.82-.85-3.58-1.5-5.29-.09-.2-.14-.41-.22-.6-3.26-8.07-9.64-14.73-18.39-17.76l-184.6-64.07-1.56-.55c-14.27-4.95-29.78 1.28-37.32 14.11-.01.03-.01.06-.03.09-1.32 2.02-2.47 4.17-3.28 6.5l-21.69 61.84-6.36 17.84z" stroke="#06195f" layerName="Curve 149"/><path d="M2819.8 3130.38c-.23.16-.49.24-.72.39l-.21.15c-14.49 10.14-34.29 6.87-44.21-7.31l-1.56-2.22-111.73-159.55c-4.06-5.8-4.81-12.89-4.12-19.67.27-7.5 2.71-14.76 7.7-20.23.68-.76 1.58-1.42 2.39-2.13.67-.58 1.22-1.27 1.96-1.79l.33-.23 70.75-49.55.33-.23c.56-.39 1.19-.58 1.76-.92 1.33-.8 2.67-1.58 4.06-2.16 1.16-.5 2.33-.83 3.53-1.17 1.06-.31 2.11-.59 3.19-.79 1.02-.18 2.02-.31 3.05-.38 1.84-.16 3.67-.16 5.5 0 .21.03.42.02.64.05 8.65.93 16.8 5.25 22.11 12.83l112.08 160.06.95 1.36c8.66 12.37 6.91 28.99-3.37 39.75-.02.02-.06.03-.08.05-1.58 1.82-3.33 3.52-5.36 4.93l-53.55 37.77-15.42 10.99z" stroke="#06195f" layerName="Curve 180"/><path d="M2483.91 1231.53c.28 0 .54.09.82.1h.25c17.68.19 31.88 14.38 31.7 31.68l-.03 2.72-2.04 194.77c-.08 7.08-3.59 13.28-8.1 18.38-4.59 5.95-10.8 10.43-18.03 11.97-1.01.23-2.12.23-3.2.34-.88.08-1.72.33-2.62.32l-.41-.01-86.37-.9h-.41c-.67-.01-1.3-.23-1.96-.28-1.55-.12-3.09-.27-4.56-.61-1.23-.27-2.38-.68-3.55-1.1-1.05-.36-2.06-.75-3.05-1.22-.93-.44-1.82-.92-2.7-1.46a32.39 32.39 0 0 1-4.47-3.2c-.16-.15-.34-.27-.5-.42-6.48-5.79-10.6-14.04-10.5-23.29l2.05-195.4.01-1.66c.16-15.1 11.26-27.59 25.88-30.35.03-.01.07 0 .1 0 2.34-.56 4.75-.92 7.23-.89l65.53.46 18.93.05z" stroke="#06195f" layerName="Curve 249"/><path d="M3345.08 2055.77c.08.27.07.54.15.81l.07.24c5.24 16.89-3.92 34.75-20.44 39.88l-2.6.8-186.04 57.71c-6.76 2.1-13.74.65-19.98-2.08-7.06-2.54-13.23-7.09-16.91-13.5-.53-.88-.87-1.94-1.31-2.93-.34-.82-.84-1.55-1.1-2.41l-.12-.39-25.59-82.49-.12-.39c-.2-.64-.19-1.31-.35-1.95-.35-1.51-.68-3.03-.81-4.53-.12-1.25-.08-2.47-.04-3.72.03-1.1.08-2.19.22-3.27.14-1.03.33-2.02.57-3.03.41-1.8.97-3.54 1.68-5.23.09-.2.15-.4.24-.6 3.53-7.95 10.12-14.39 18.96-17.13l186.63-57.9 1.59-.49c14.42-4.47 29.71 2.27 36.82 15.34.01.03.01.06.03.09 1.25 2.06 2.33 4.25 3.06 6.61l19.63 62.52 5.76 18.04z" stroke="#06195f" layerName="Curve 235"/><path d="M1363.98 2938.42c.05.27.17.52.22.79l.04.24c2.79 17.47 18.91 29.42 36 26.7l2.68-.43 192.35-30.67c6.99-1.11 12.62-5.5 17-10.72 5.2-5.4 8.72-12.21 9.18-19.59.08-1.03-.08-2.13-.13-3.21-.05-.88.07-1.76-.07-2.65l-.07-.4-13.6-85.29-.06-.41c-.11-.66-.41-1.25-.56-1.9-.35-1.51-.73-3.01-1.27-4.42-.45-1.17-1.03-2.25-1.61-3.35-.52-.98-1.05-1.92-1.66-2.84-.58-.85-1.18-1.66-1.85-2.45a31.73 31.73 0 0 0-3.82-3.95c-.17-.14-.31-.3-.48-.43-6.68-5.57-15.45-8.42-24.59-6.97l-192.97 30.77-1.64.27c-14.91 2.37-25.63 15.19-26.21 30.06 0 .03.01.06.01.09-.21 2.41-.21 4.84.18 7.29l12.93 83.47z" stroke="#193390" layerName="Curve 151"/><path d="M1377.48 1509.55c-.25.13-.44.32-.68.45l-.23.11c-15.83 7.88-22.42 26.84-14.72 42.33l1.21 2.44 86.76 174.39c3.15 6.34 9.02 10.39 15.3 13.01 6.72 3.35 14.27 4.68 21.45 2.91 1-.23 2.01-.71 3.02-1.08.83-.31 1.7-.46 2.5-.86l.37-.18 77.33-38.47.37-.18c.6-.3 1.07-.77 1.65-1.1 1.33-.79 2.65-1.6 3.83-2.54.99-.78 1.84-1.65 2.72-2.54.78-.78 1.52-1.57 2.21-2.43.65-.8 1.24-1.62 1.79-2.49 1.02-1.55 1.9-3.15 2.63-4.83.08-.2.19-.39.26-.59 3.32-8.04 3.42-17.26-.7-25.55l-87.03-174.95-.74-1.49c-6.72-13.52-22.16-19.92-36.52-16.03-.03.01-.06.03-.09.04-2.35.52-4.68 1.25-6.89 2.35l-75.8 37.28z" stroke="#193390" layerName="Curve 152"/><path d="M3313.17 2967.98c-.05.27-.18.51-.24.78l-.05.25c-3.25 17.38-19.69 28.9-36.69 25.72l-2.67-.5-191.47-35.78c-6.96-1.3-12.46-5.84-16.7-11.16-5.06-5.55-8.4-12.45-8.66-19.84-.05-1.03.14-2.13.22-3.2.07-.88-.03-1.76.14-2.64l.07-.4 15.87-84.91.08-.4c.12-.66.44-1.24.6-1.89.4-1.49.81-2.99 1.4-4.38.48-1.16 1.08-2.22 1.69-3.31.55-.96 1.1-1.89 1.73-2.79.61-.84 1.23-1.63 1.92-2.41 1.2-1.4 2.51-2.68 3.93-3.84.17-.13.31-.29.49-.42 6.83-5.38 15.67-8 24.77-6.3l192.08 35.89 1.62.31c14.85 2.77 25.23 15.87 25.41 30.75 0 .03-.02.06-.02.09.15 2.41.08 4.85-.37 7.28l-15.15 83.1z" stroke="#193390" layerName="Curve 181"/><path d="M1988.22 1076.35c.2-.19.45-.31.65-.49l.18-.17c12.77-12.25 32.84-12.05 44.81.44l1.89 1.96 134.84 140.56c4.9 5.11 6.73 12 7.08 18.8.89 7.45-.42 15.01-4.5 21.17-.56.86-1.35 1.65-2.04 2.48-.58.67-1.01 1.44-1.66 2.06l-.29.28-62.33 59.8-.3.28c-.48.47-1.08.75-1.59 1.18-1.19.99-2.4 1.96-3.68 2.76-1.07.66-2.18 1.17-3.31 1.69-1 .47-2 .91-3.03 1.27-.98.33-1.95.61-2.96.84-1.8.44-3.6.72-5.43.84-.22.01-.43.05-.64.05-8.69.41-17.41-2.61-23.81-9.29l-135.28-141.01-1.15-1.19c-10.45-10.9-11.27-27.59-2.75-39.8.02-.02.05-.04.07-.06 1.28-2.04 2.75-3.99 4.54-5.7l60.69-58.75z" stroke="#193390" layerName="Curve 250"/><path d="M3340.97 1536.37c.25.14.44.34.67.47l.22.12c15.57 8.4 21.52 27.57 13.31 42.8l-1.29 2.39-92.51 171.41c-3.36 6.23-9.36 10.09-15.73 12.5-6.82 3.13-14.41 4.2-21.53 2.2-.99-.27-1.98-.78-2.98-1.19-.82-.34-1.68-.51-2.47-.94l-.36-.19-76.02-41.03-.35-.19c-.6-.32-1.05-.8-1.62-1.15-1.3-.84-2.6-1.68-3.74-2.67-.97-.81-1.79-1.71-2.63-2.62-.76-.81-1.48-1.63-2.14-2.5-.61-.83-1.18-1.67-1.71-2.56-.96-1.58-1.78-3.21-2.46-4.91-.07-.21-.17-.39-.24-.6-3.05-8.14-2.85-17.37 1.55-25.51l92.8-171.96.78-1.46c7.18-13.29 22.82-19.18 37.04-14.81.03.01.06.03.09.04 2.33.6 4.63 1.4 6.81 2.58l74.51 39.78z" stroke="#193390" layerName="Curve 236"/><path d="M1115.49 2915.81c4.11-8.05 3.6-7.6 2.76-15.3-.83-7.7-3.94-12.34-6.1-15.49-3.92-5.7-11.84-9.98-16.26-14.18-1.69-1.6-1.93-2.47-1.93-2.47s-.6-1.83-.04-2.91c1.12-2.17 3.49-2.31 3.49-2.31l2.59-.97 2.72-.56 13.96-2.59 192.35-30.67c6.99-1.12 13.7 1.31 19.48 4.9 6.63 3.52 12.1 8.89 14.83 15.76.39.95.58 2.05.87 3.09.23.86.61 1.65.75 2.54l.07.4 13.6 85.3.06.4c.11.67 0 1.32.06 1.98.14 1.55.25 3.09.17 4.6-.06 1.26-.28 2.46-.49 3.68-.19 1.09-.4 2.16-.69 3.21-.29 1-.61 1.96-.99 2.92-.67 1.72-1.47 3.36-2.41 4.94-.12.18-.2.37-.32.55-4.62 7.37-12.07 12.81-21.21 14.27 0 0-141.59 22.53-145.45 22.57-2.96.02-2.33-3.69-5.75-9.31-3.42-5.62-7.94-13.17-7.94-13.17s-6.42-9.62-15.95-16.84c-9.54-7.22-10.59-8.44-21.71-12.11-11.11-3.68-23.46-2.82-23.46-2.82s-12.78-.09-15.42-2.97c-.5-.53-1.06-2.56 4.68-9.56 9.38-11.44 9.57-8.84 13.68-16.88z" stroke="#06195f" layerName="Curve 154"/><path d="M1324.8 1265.66c8.9 1.52 8.33 1.16 15.43-1.93 7.09-3.1 10.59-7.45 12.95-10.46 4.27-5.44 5.99-14.28 8.68-19.76 1.02-2.08 1.78-2.58 1.78-2.58s1.56-1.12 2.77-.9c2.4.42 3.24 2.64 3.24 2.64l1.7 2.18 1.34 2.43 6.65 12.55 86.75 174.39c3.16 6.34 2.85 13.46 1.15 20.06-1.38 7.38-4.88 14.2-10.62 18.86-.79.66-1.78 1.17-2.68 1.75-.75.47-1.39 1.08-2.2 1.48l-.36.18-77.34 38.47-.36.18c-.61.3-1.26.4-1.88.65-1.43.59-2.87 1.16-4.33 1.53-1.22.32-2.43.47-3.67.64-1.09.15-2.17.27-3.27.3-1.03.03-2.04 0-3.07-.08-1.85-.12-3.65-.39-5.44-.82-.21-.05-.42-.08-.62-.14-8.42-2.21-15.84-7.69-19.96-15.97 0 0-63.81-128.39-65-132.07-.91-2.82 2.83-3.32 7.17-8.26 4.34-4.95 10.19-11.51 10.19-11.51s7.26-9 11.3-20.26c4.04-11.26 4.89-12.63 5.08-24.33.19-11.71-4.33-23.23-4.33-23.23s-3.73-12.23-1.77-15.61c.36-.63 2.13-1.78 10.52 1.61 13.73 5.54 11.29 6.49 20.2 8.01z" stroke="#06195f" layerName="Curve 155"/><path d="M3562.18 2951.99c-3.9-8.15-3.4-7.69-2.36-15.36 1.04-7.67 4.27-12.23 6.51-15.32 4.07-5.6 12.11-9.66 16.64-13.75 1.73-1.55 1.99-2.42 1.99-2.42s.65-1.81.12-2.91c-1.07-2.19-3.43-2.4-3.43-2.4l-2.56-1.04-2.71-.62-13.88-2.97-191.46-35.78c-6.96-1.3-13.73.94-19.61 4.38-6.72 3.34-12.33 8.57-15.24 15.36-.42.94-.64 2.04-.95 3.07-.25.85-.66 1.63-.82 2.52l-.08.4-15.87 84.9-.07.4c-.13.66-.04 1.32-.12 1.98-.17 1.54-.33 3.08-.28 4.59.03 1.26.21 2.46.39 3.7.15 1.09.34 2.16.6 3.22.26 1.01.56 1.97.91 2.94.62 1.75 1.38 3.41 2.28 5 .11.19.19.39.31.57 4.42 7.49 11.72 13.13 20.82 14.83 0 0 140.94 26.29 144.8 26.43 2.96.1 2.42-3.63 5.99-9.15 3.57-5.53 8.29-12.96 8.29-12.96s6.67-9.44 16.4-16.4c9.72-6.97 10.8-8.16 22.01-11.54 11.21-3.38 23.53-2.19 23.53-2.19s12.78.25 15.5-2.55c.51-.53 1.13-2.54-4.43-9.69-9.07-11.68-9.32-9.08-13.22-17.24z" stroke="#06195f" layerName="Curve 182"/><path d="M1776.45 944.387c-1.58 8.896-1.72 8.235-7.03 13.868-5.31 5.634-10.59 7.461-14.21 8.665-6.56 2.181-15.47.81-21.53 1.49-2.31.259-3.03.808-3.03.808s-1.58 1.094-1.79 2.296c-.41 2.405 1.39 3.949 1.39 3.949l1.48 2.336 1.84 2.084 9.56 10.494 134.84 140.563c4.9 5.1 11.71 7.22 18.49 7.85 7.41 1.19 15.02.2 21.34-3.62.89-.53 1.7-1.29 2.56-1.94.7-.55 1.48-.95 2.13-1.57l.3-.28 62.33-59.8.29-.28c.48-.47.79-1.05 1.25-1.54 1.03-1.15 2.05-2.32 2.9-3.57.71-1.04 1.26-2.12 1.83-3.23.51-.98.99-1.96 1.39-2.98.38-.96.7-1.92.97-2.92.51-1.77.86-3.57 1.06-5.39.02-.21.07-.42.08-.64.76-8.66-1.89-17.5-8.29-24.17 0 0-99.29-103.431-102.35-105.79-2.35-1.807-4.08 1.538-10.2 3.954-6.12 2.415-14.28 5.707-14.28 5.707s-10.93 3.794-22.89 3.794c-11.96-.001-13.53.337-24.61-3.441-11.08-3.777-20.4-11.917-20.4-11.917s-10.25-7.644-14.1-6.945c-.71.13-2.39 1.405-2.04 10.451.58 14.786 2.3 12.819.72 21.714z" stroke="#06195f" layerName="Curve 251"/><path d="M3401.74 1294.37c-8.95 1.22-8.37.88-15.36-2.45-6.98-3.33-10.34-7.79-12.6-10.88-4.08-5.58-5.5-14.47-8.01-20.03-.95-2.12-1.7-2.64-1.7-2.64s-1.52-1.17-2.73-1c-2.42.35-3.33 2.53-3.33 2.53l-1.77 2.13-1.43 2.38-7.06 12.32-92.5 171.41c-3.36 6.23-3.29 13.36-1.81 20.01 1.13 7.42 4.4 14.35 9.98 19.2.77.69 1.74 1.23 2.63 1.85.73.49 1.35 1.12 2.14 1.54l.36.2 76.01 41.02.36.19c.6.32 1.25.44 1.85.72 1.42.63 2.84 1.25 4.29 1.67 1.2.35 2.41.55 3.64.75 1.09.19 2.16.34 3.25.41 1.04.06 2.05.08 3.08.03 1.85-.06 3.66-.27 5.46-.64.21-.05.42-.07.63-.12 8.48-1.93 16.08-7.16 20.47-15.3 0 0 68.05-126.2 69.36-129.83 1-2.79-2.71-3.41-6.89-8.5-4.17-5.08-9.8-11.84-9.8-11.84s-6.96-9.24-10.62-20.63c-3.67-11.38-4.47-12.78-4.27-24.48.2-11.71 5.1-23.08 5.1-23.08s4.14-12.09 2.29-15.54c-.34-.64-2.07-1.85-10.57 1.26-13.9 5.08-11.5 6.11-20.45 7.34z" stroke="#06195f" layerName="Curve 237"/><path d="M1147.97 3120.82c6.34 6.43 5.72 6.16 7.25 13.75 1.52 7.59-.04 12.96-1.16 16.61-2.01 6.62-8.28 13.08-11.23 18.42-1.12 2.04-1.09 2.94-1.09 2.94s-.03 1.93.84 2.79c1.72 1.72 4.02 1.15 4.02 1.15l2.76.14 2.76-.29 14.09-1.73 192.66-28.72c7-1.04 12.66-5.37 17.1-10.54 5.26-5.35 8.85-12.13 9.38-19.5.09-1.02-.06-2.13-.1-3.21-.04-.88.09-1.75-.04-2.65l-.06-.4-12.74-85.43-.06-.4c-.1-.67-.4-1.26-.54-1.91-.33-1.51-.69-3.02-1.23-4.43-.43-1.18-1-2.26-1.57-3.37-.51-.98-1.03-1.93-1.63-2.85-.57-.86-1.17-1.68-1.82-2.48a31.727 31.727 0 0 0-3.79-3.98c-.16-.14-.3-.3-.47-.44-6.63-5.63-15.37-8.58-24.52-7.21 0 0-141.8 21.18-145.49 22.31-2.83.87-1.11 4.22-2.68 10.61-1.56 6.39-3.6 14.95-3.6 14.95s-3.22 11.11-10.14 20.86c-6.92 9.76-7.55 11.24-17.04 18.09-9.49 6.86-21.52 9.76-21.52 9.76s-12.17 3.94-13.82 7.48c-.31.66-.24 2.76 7.35 7.71 12.4 8.08 11.78 5.54 18.13 11.97z" stroke="#06195f" layerName="Curve 157"/><path d="M1138.86 1357.92c-4.24 7.98-4.17 7.3-10.95 11.03-6.79 3.72-12.38 3.83-16.2 3.86-6.91.05-14.96-3.99-20.94-5.22-2.27-.46-3.13-.16-3.13-.16s-1.84.55-2.41 1.63c-1.13 2.17.11 4.19.11 4.19l.69 2.68 1.1 2.55 5.86 12.92 84.98 175.27c3.09 6.37 8.91 10.48 15.17 13.17 6.68 3.42 14.22 4.82 21.42 3.13 1-.23 2.01-.7 3.03-1.06.83-.3 1.7-.44 2.51-.83l.37-.18 77.72-37.68.36-.18c.61-.29 1.08-.75 1.66-1.08 1.34-.78 2.68-1.57 3.86-2.5 1-.77 1.86-1.63 2.75-2.51.78-.78 1.54-1.56 2.23-2.4.66-.81 1.26-1.62 1.82-2.48 1.04-1.54 1.93-3.13 2.68-4.81.08-.2.19-.38.27-.58 3.39-8.01 3.59-17.23-.44-25.56 0 0-62.6-128.98-64.78-132.17-1.67-2.44-4.35.21-10.92.62-6.57.41-15.34 1.03-15.34 1.03s-11.57.24-22.94-3.44c-11.38-3.69-12.98-3.85-22.36-10.86-9.38-7.01-15.74-17.62-15.74-17.62s-7.4-10.43-11.27-10.95c-.72-.1-2.71.6-5.16 9.31-4 14.25-1.76 12.9-6.01 20.88z" stroke="#06195f" layerName="Curve 158"/><path d="M3524.25 3156.07c-6.51 6.26-5.89 6-7.61 13.55-1.73 7.55-.31 12.95.71 16.63 1.84 6.67 7.93 13.3 10.74 18.72 1.07 2.06 1.01 2.97 1.01 2.97s-.03 1.92-.91 2.76c-1.77 1.68-4.05 1.05-4.05 1.05l-2.77.07-2.75-.37-14.04-2.11-191.82-33.83c-6.97-1.23-12.52-5.71-16.82-11-5.11-5.49-8.52-12.36-8.86-19.74-.06-1.03.12-2.13.19-3.21.06-.88-.04-1.75.12-2.64l.07-.4 15-85.06.07-.4c.12-.67.43-1.25.59-1.9.38-1.5.78-3 1.35-4.4.47-1.16 1.06-2.23 1.66-3.32.54-.97 1.08-1.91 1.7-2.81.6-.85 1.22-1.65 1.89-2.43 1.19-1.41 2.49-2.7 3.89-3.88.17-.13.32-.29.49-.42 6.77-5.46 15.59-8.17 24.7-6.56 0 0 141.18 24.95 144.85 26.18 2.8.95.99 4.25 2.39 10.68 1.4 6.43 3.2 15.04 3.2 15.04s2.93 11.19 9.58 21.12c6.66 9.94 7.25 11.44 16.56 18.54 9.3 7.11 21.25 10.33 21.25 10.33s12.05 4.26 13.61 7.84c.29.67.17 2.77-7.55 7.51-12.61 7.75-11.93 5.23-18.44 11.49z" stroke="#06195f" layerName="Curve 183"/><path d="M1926.09 800.543c8.94-1.298 8.29-1.459 14.08-6.59 5.8-5.132 7.79-10.352 9.11-13.937 2.38-6.492 1.29-15.432 2.16-21.472.33-2.299.91-3.003.91-3.003s1.14-1.547 2.35-1.714c2.41-.334 3.9 1.511 3.9 1.511l2.29 1.553 2.02 1.902 10.19 9.882 136.27 139.182c4.95 5.058 6.85 11.931 7.27 18.728.96 7.443-.27 15.012-4.29 21.213-.55.869-1.33 1.663-2.02 2.498-.56.679-.99 1.451-1.63 2.082l-.29.284-61.72 60.428-.29.28c-.48.47-1.08.77-1.58 1.2-1.19 1-2.38 1.99-3.66 2.79-1.06.68-2.16 1.2-3.29 1.73-.99.48-1.98.93-3.01 1.3-.98.34-1.95.63-2.95.87-1.8.46-3.6.76-5.43.9-.21.01-.42.05-.64.06-8.68.49-17.43-2.44-23.9-9.05 0 0-100.27-102.483-102.53-105.616-1.73-2.4 1.66-4.029 4.27-10.069 2.61-6.041 6.15-14.094 6.15-14.094s4.14-10.8 4.51-22.754c.38-11.955.76-13.516-2.67-24.711-3.42-11.194-11.27-20.767-11.27-20.767s-7.32-10.483-6.5-14.302c.15-.712 1.48-2.349 10.51-1.712 14.76 1.041 12.74 2.696 21.68 1.398z" stroke="#06195f" layerName="Curve 252"/><path d="M3584.5 1392.76c3.98 8.11 3.93 7.44 10.59 11.38 6.66 3.95 12.24 4.25 16.05 4.4 6.91.29 15.09-3.49 21.11-4.51 2.29-.39 3.13-.06 3.13-.06s1.82.61 2.35 1.71c1.06 2.2-.24 4.18-.24 4.18l-.78 2.65-1.19 2.51-6.28 12.73-90.76 172.34c-3.3 6.27-9.26 10.18-15.6 12.66-6.8 3.2-14.38 4.35-21.51 2.41-1-.25-1.99-.76-3-1.15-.82-.33-1.68-.5-2.48-.92l-.36-.19-76.42-40.24-.36-.19c-.6-.32-1.06-.79-1.63-1.14-1.31-.82-2.62-1.66-3.77-2.62-.97-.81-1.81-1.7-2.66-2.6-.76-.81-1.49-1.61-2.16-2.48-.62-.83-1.2-1.66-1.73-2.54-.99-1.57-1.82-3.19-2.51-4.89-.08-.2-.18-.39-.26-.59-3.12-8.12-3.02-17.34 1.3-25.53 0 0 66.84-126.83 69.13-129.95 1.75-2.38 4.35.35 10.89.98 6.55.64 15.31 1.55 15.31 1.55s11.54.62 23.04-2.68c11.49-3.31 13.1-3.42 22.7-10.11 9.61-6.69 16.32-17.09 16.32-17.09s7.74-10.18 11.62-10.57c.73-.07 2.69.69 4.85 9.48 3.53 14.37 1.34 12.96 5.31 21.07z" stroke="#06195f" layerName="Curve 238"/><path d="M1390.73 3106.17c.04.27.17.51.22.78l.04.25c2.79 17.47 18.91 29.42 36 26.7l2.68-.43 192.35-30.67c6.99-1.12 12.61-5.51 17-10.72 5.2-5.41 8.72-12.22 9.18-19.6.08-1.02-.08-2.13-.13-3.2-.05-.89.07-1.76-.07-2.65l-.07-.4-13.6-85.3-.06-.4c-.11-.66-.41-1.25-.56-1.9-.35-1.51-.73-3.01-1.27-4.42-.45-1.18-1.03-2.25-1.61-3.35-.52-.98-1.05-1.93-1.66-2.84-.58-.86-1.18-1.67-1.85-2.46a32.35 32.35 0 0 0-3.82-3.94c-.17-.14-.31-.3-.48-.43-6.68-5.57-15.46-8.43-24.59-6.97l-192.97 30.77-1.64.26c-14.91 2.38-25.64 15.2-26.21 30.07-.01.03.01.06.01.09-.21 2.4-.21 4.84.18 7.28l10.1 64.75 2.83 18.73z" stroke="#06195f" layerName="Curve 160"/><path d="M1225.39 1585.21c-.24.12-.44.32-.68.45l-.23.11c-15.83 7.88-22.42 26.84-14.71 42.33l1.21 2.43 86.75 174.4c3.15 6.33 9.02 10.39 15.3 13.01 6.72 3.35 14.27 4.68 21.45 2.91 1-.23 2.01-.71 3.02-1.08.83-.32 1.7-.46 2.5-.87l.37-.18 77.33-38.47.37-.18c.6-.3 1.07-.76 1.65-1.1 1.33-.79 2.65-1.59 3.83-2.53.99-.78 1.84-1.66 2.72-2.54.78-.79 1.52-1.58 2.21-2.43.65-.81 1.24-1.63 1.8-2.5 1.02-1.54 1.89-3.15 2.62-4.83.08-.2.19-.38.27-.58 3.31-8.04 3.41-17.27-.71-25.55l-87.03-174.96-.73-1.48c-6.73-13.52-22.17-19.93-36.53-16.03-.03 0-.06.03-.09.04-2.35.52-4.68 1.24-6.89 2.34l-58.77 29-17.03 8.29z" stroke="#06195f" layerName="Curve 161"/><path d="M3281.96 3134.95c-.05.28-.18.52-.24.79l-.04.24c-3.25 17.39-19.69 28.91-36.7 25.73l-2.67-.5-191.47-35.78c-6.95-1.3-12.46-5.84-16.7-11.17-5.06-5.54-8.4-12.45-8.66-19.83-.05-1.03.14-2.13.22-3.21.07-.88-.02-1.75.14-2.64l.08-.4 15.87-84.9.07-.4c.12-.67.44-1.25.61-1.89.39-1.5.81-2.99 1.39-4.38.48-1.17 1.09-2.23 1.7-3.31.54-.97 1.1-1.9 1.73-2.79.6-.84 1.23-1.64 1.91-2.41 1.21-1.4 2.51-2.68 3.93-3.84.17-.14.32-.29.49-.42 6.83-5.39 15.67-8.01 24.77-6.31l192.08 35.9 1.63.3c14.84 2.78 25.22 15.88 25.4 30.76 0 .03-.01.06-.01.09.14 2.41.08 4.84-.38 7.27l-11.82 64.46-3.33 18.64z" stroke="#06195f" layerName="Curve 184"/><path d="M2110.8 958.757c.2-.191.45-.31.65-.495l.18-.173c12.77-12.246 32.84-12.041 44.81.444l1.89 1.962 134.84 140.555c4.9 5.11 6.73 12 7.08 18.8.89 7.46-.42 15.01-4.5 21.17-.56.87-1.36 1.65-2.05 2.48-.57.67-1 1.44-1.65 2.07l-.29.28-62.33 59.79-.3.28c-.48.47-1.08.76-1.59 1.19-1.19.98-2.4 1.96-3.68 2.75-1.07.66-2.18 1.17-3.31 1.7-1 .47-2 .9-3.03 1.26-.98.34-1.95.62-2.96.85-1.8.43-3.6.71-5.43.83-.22.01-.43.05-.64.06-8.69.4-17.41-2.62-23.81-9.29l-135.28-141.01-1.15-1.2c-10.45-10.9-11.27-27.59-2.75-39.79.02-.03.05-.04.07-.07 1.28-2.04 2.75-3.98 4.53-5.7l47.14-45.52 13.56-13.223z" stroke="#06195f" layerName="Curve 253"/><path d="M3490.46 1617.05c.25.13.43.33.67.46l.22.12c15.57 8.4 21.52 27.57 13.31 42.8l-1.3 2.39-92.5 171.42c-3.36 6.22-9.36 10.08-15.73 12.49-6.82 3.13-14.41 4.2-21.53 2.2-.99-.27-1.98-.78-2.98-1.19-.82-.34-1.68-.51-2.48-.94l-.35-.19-76.02-41.02-.35-.2c-.6-.32-1.05-.8-1.62-1.15-1.3-.83-2.6-1.68-3.75-2.66-.96-.82-1.78-1.72-2.63-2.63-.75-.81-1.47-1.62-2.13-2.5-.62-.83-1.18-1.67-1.71-2.56-.96-1.57-1.78-3.21-2.46-4.91-.07-.2-.18-.39-.25-.6-3.04-8.14-2.84-17.36 1.56-25.51l92.8-171.96.78-1.46c7.18-13.29 22.82-19.18 37.04-14.81.03.01.06.04.09.05 2.33.59 4.63 1.4 6.81 2.57l57.77 30.93 16.74 8.86z" stroke="#06195f" layerName="Curve 239"/><path d="M1956.31 3377.15c-.28.04-.55-.01-.82.02l-.25.03c-17.52 2.44-33.66-9.5-36.04-26.64l-.37-2.69-26.8-192.93c-.98-7.01 1.58-13.67 5.29-19.38 3.65-6.55 9.14-11.91 16.06-14.5.96-.38 2.06-.55 3.11-.81.86-.21 1.66-.58 2.55-.7l.4-.06 85.56-11.89.4-.05c.67-.09 1.32.03 1.98-.02 1.55-.11 3.09-.19 4.6-.07 1.25.08 2.45.32 3.67.56 1.09.21 2.15.44 3.2.75.99.31 1.94.65 2.89 1.05 1.71.7 3.34 1.54 4.89 2.51.18.12.37.21.55.33 7.28 4.77 12.57 12.33 13.84 21.49l26.89 193.55.23 1.64c2.07 14.96-7.06 28.95-21.11 33.85-.03.01-.06 0-.09.01-2.24.9-4.57 1.62-7.02 1.96l-83.61 11.99z" stroke="#193390" layerName="Curve 163"/><path d="M1135.81 2205.92c-.12-.25-.15-.52-.26-.77l-.11-.23c-7.56-15.99-.99-34.96 14.65-42.35l2.46-1.16 176.11-83.23c6.4-3.03 13.51-2.58 20.07-.75 7.35 1.53 14.1 5.16 18.64 11 .65.8 1.14 1.8 1.7 2.72.46.76 1.05 1.41 1.44 2.22l.17.37 36.91 78.09.17.37c.29.61.37 1.27.62 1.89.56 1.44 1.1 2.89 1.44 4.36.29 1.23.42 2.44.56 3.68.13 1.1.22 2.18.24 3.27 0 1.04-.04 2.05-.14 3.08a32.72 32.72 0 0 1-.93 5.41c-.06.21-.09.42-.16.63-2.37 8.37-8 15.67-16.37 19.63l-176.67 83.49-1.49.71c-13.66 6.46-29.74 1.93-38.61-10.02-.02-.03-.03-.06-.04-.09-1.53-1.86-2.91-3.87-3.96-6.11l-36.44-76.21z" stroke="#193390" layerName="Curve 164"/><path d="M2709.37 3390.78c.27.04.55 0 .82.04l.25.04c17.44 2.9 33.9-8.6 36.73-25.67l.45-2.68 31.93-192.15c1.16-6.98-1.22-13.7-4.78-19.51-3.47-6.65-8.82-12.16-15.67-14.93-.94-.4-2.04-.6-3.08-.89-.85-.24-1.64-.63-2.53-.77l-.4-.07-85.21-14.16-.4-.07c-.67-.11-1.32 0-1.98-.07-1.55-.14-3.09-.27-4.6-.19-1.25.05-2.46.26-3.69.46-1.09.18-2.16.38-3.21.67-1 .28-1.96.59-2.92.97a32.78 32.78 0 0 0-4.96 2.38c-.18.11-.37.2-.56.32-7.39 4.57-12.88 11.98-14.4 21.11l-32.03 192.76-.27 1.63c-2.48 14.9 6.27 29.14 20.19 34.41.03.01.07 0 .09.01 2.22.96 4.53 1.73 6.97 2.14l83.26 14.22z" stroke="#193390" layerName="Curve 185"/><path d="M2725.29 1084.09c-.2-.19-.44-.32-.64-.51l-.18-.17c-12.5-12.52-32.57-12.74-44.81-.52l-1.92 1.92-137.82 137.64c-5.01 5.01-6.99 11.86-7.48 18.65-1.05 7.43.09 15.01 4.05 21.26.54.88 1.31 1.68 1.98 2.52.56.69.98 1.46 1.62 2.1l.28.29 61.04 61.11.29.29c.47.48 1.07.78 1.57 1.22 1.17 1.01 2.35 2.01 3.62 2.83 1.05.69 2.15 1.22 3.27 1.77.99.49 1.97.94 3 1.33.97.35 1.94.65 2.94.9 1.79.48 3.59.8 5.41.96.22.01.43.06.64.06 8.68.59 17.46-2.24 24.01-8.77l138.26-138.09 1.17-1.17c10.69-10.67 11.86-27.34 3.61-39.73-.02-.02-.05-.04-.07-.06-1.24-2.07-2.67-4.05-4.42-5.8l-59.42-60.03z" stroke="#193390" layerName="Curve 254"/><path d="M3559.35 2240.39c.13-.24.17-.51.29-.76l.12-.22c8.08-15.74 2.15-34.91-13.24-42.82l-2.42-1.24-173.24-89.05c-6.29-3.23-13.42-3.02-20.04-1.41-7.39 1.29-14.26 4.69-18.99 10.37-.67.78-1.2 1.77-1.79 2.67-.49.74-1.1 1.37-1.51 2.17l-.19.37-39.48 76.82-.19.36c-.3.6-.41 1.25-.67 1.86-.61 1.43-1.2 2.86-1.59 4.32-.33 1.21-.5 2.42-.68 3.65-.16 1.1-.3 2.18-.35 3.27-.04 1.03-.03 2.04.04 3.07.09 1.85.34 3.66.75 5.45.05.21.07.42.13.63 2.1 8.44 7.48 15.93 15.71 20.16l173.8 89.33 1.47.75c13.43 6.91 29.66 2.92 38.92-8.73.02-.02.03-.06.04-.08 1.59-1.82 3.04-3.78 4.17-5.98l38.94-74.96z" stroke="#193390" layerName="Curve 240"/><path d="M2050.45 3608.23c6.5-6.28 6.22-5.67 13.83-7.12 7.6-1.44 12.95.17 16.6 1.32 6.59 2.08 13 8.42 18.31 11.42 2.02 1.14 2.93 1.12 2.93 1.12s1.92.04 2.79-.81c1.74-1.71 1.19-4.01 1.19-4.01l.17-2.76-.26-2.77-1.59-14.1-26.8-192.93c-.98-7.01-5.25-12.72-10.38-17.21-5.3-5.31-12.04-8.97-19.4-9.57-1.03-.1-2.14.03-3.21.06-.89.04-1.76-.1-2.65.02l-.4.06-85.56 11.88-.4.06c-.67.09-1.26.39-1.91.52-1.52.32-3.03.67-4.45 1.18-1.18.43-2.27.99-3.38 1.55-.99.49-1.95 1-2.87 1.59-.87.57-1.69 1.15-2.49 1.8a31.85 31.85 0 0 0-4.03 3.75c-.14.16-.3.3-.44.47-5.69 6.57-8.73 15.28-7.45 24.44 0 0 19.77 142.01 20.87 145.71.84 2.84 4.2 1.15 10.58 2.78 6.37 1.63 14.91 3.75 14.91 3.75s11.07 3.33 20.76 10.35c9.69 7.01 11.16 7.66 17.92 17.22 6.76 9.56 9.54 21.62 9.54 21.62s3.82 12.2 7.34 13.89c.66.31 2.76.26 7.78-7.27 8.21-12.32 5.66-11.73 12.15-18.01z" stroke="#06195f" layerName="Curve 166"/><path d="M943.429 2364.82c7.934 4.32 7.264 4.25 10.919 11.07 3.655 6.83 3.711 12.41 3.702 16.23-.016 6.92-4.143 14.92-5.424 20.89-.487 2.27-.195 3.13-.195 3.13s.534 1.85 1.609 2.42c2.151 1.16 4.186-.06 4.186-.06l2.685-.66 2.559-1.08 12.986-5.73 176.104-83.23c6.4-3.03 10.57-8.82 13.32-15.04 3.48-6.65 4.96-14.17 3.34-21.39-.21-1-.68-2.02-1.02-3.04-.3-.83-.43-1.7-.82-2.52l-.17-.37-36.91-78.09-.17-.37c-.29-.61-.75-1.09-1.07-1.67-.76-1.35-1.54-2.69-2.46-3.88-.76-1.01-1.61-1.88-2.48-2.77-.77-.8-1.54-1.56-2.38-2.26-.8-.66-1.61-1.27-2.46-1.85a32.312 32.312 0 0 0-4.78-2.72c-.2-.08-.38-.19-.58-.28-7.97-3.47-17.19-3.76-25.56.19 0 0-129.602 61.31-132.811 63.46-2.458 1.65.164 4.36.511 10.93.347 6.57.877 15.35.877 15.35s.129 11.57-3.67 22.91c-3.798 11.34-3.977 12.94-11.078 22.24-7.101 9.31-17.78 15.57-17.78 15.57s-10.503 7.29-11.06 11.15c-.104.73.572 2.72 9.262 5.26 14.204 4.15 12.884 1.89 20.818 6.21z" stroke="#06195f" layerName="Curve 167"/><path d="M2609.1 3619.27c-6.32-6.46-6.06-5.83-13.63-7.48-7.56-1.65-12.95-.18-16.62.87-6.65 1.91-13.22 8.07-18.61 10.93-2.05 1.09-2.96 1.04-2.96 1.04s-1.92-.01-2.77-.88c-1.7-1.76-1.09-4.05-1.09-4.05l-.09-2.76.34-2.76 1.96-14.06 31.93-192.14c1.16-6.99 5.59-12.58 10.83-16.93 5.44-5.16 12.27-8.64 19.65-9.05 1.03-.07 2.13.09 3.21.15.88.06 1.76-.06 2.65.09l.4.07 85.2 14.16.4.06c.67.11 1.26.42 1.91.57 1.5.37 3 .75 4.4 1.31 1.18.45 2.25 1.04 3.34 1.63.98.52 1.92 1.06 2.83 1.67.85.59 1.66 1.2 2.45 1.87a31 31 0 0 1 3.92 3.85c.14.16.29.31.42.48 5.53 6.72 8.33 15.51 6.81 24.64 0 0-23.55 141.42-24.74 145.1-.92 2.81-4.24 1.03-10.65 2.49-6.42 1.46-15.01 3.35-15.01 3.35s-11.16 3.04-21.03 9.79c-9.87 6.76-11.36 7.37-18.37 16.74-7.02 9.38-10.12 21.36-10.12 21.36s-4.14 12.09-7.7 13.69c-.67.29-2.77.19-7.59-7.48-7.87-12.53-5.34-11.87-11.67-18.32z" stroke="#06195f" layerName="Curve 186"/><path d="M2939.83 956.686c1.39 8.927 1.54 8.27 6.73 14.015 5.19 5.746 10.43 7.685 14.03 8.967 6.51 2.321 15.44 1.14 21.49 1.95 2.3.308 3.01.873 3.01.873s1.56 1.127 1.74 2.334c.36 2.413-1.47 3.918-1.47 3.918l-1.53 2.304-1.88 2.044-9.78 10.289-137.83 137.64c-5 5-11.86 6.97-18.65 7.46-7.43 1.03-15.01-.12-21.25-4.08-.88-.54-1.68-1.32-2.52-1.99-.69-.56-1.46-.98-2.1-1.62l-.29-.29-61.03-61.11-.29-.29c-.48-.48-.77-1.07-1.22-1.57-1.01-1.17-2-2.36-2.82-3.62-.69-1.06-1.22-2.16-1.77-3.28-.49-.99-.94-1.97-1.32-3-.35-.97-.65-1.94-.91-2.94-.47-1.79-.78-3.59-.94-5.42-.02-.21-.06-.42-.07-.64-.58-8.67 2.27-17.45 8.81-23.99 0 0 101.48-101.278 104.59-103.572 2.38-1.756 4.05 1.625 10.11 4.171 6.07 2.546 14.16 6.012 14.16 6.012s10.84 4.027 22.79 4.282c11.96.255 13.53.627 24.69-2.913 11.16-3.54 20.65-11.478 20.65-11.478s10.41-7.423 14.24-6.642c.71.145 2.36 1.455 1.81 10.492-.89 14.771-2.56 12.766-1.18 21.694z" stroke="#06195f" layerName="Curve 255"/><path d="M3746.35 2405.6c-8.08 4.06-7.4 4-11.28 10.7-3.89 6.7-4.13 12.28-4.24 16.1-.22 6.91 3.64 15.05 4.72 21.06.41 2.28.09 3.13.09 3.13s-.59 1.83-1.69 2.37c-2.18 1.08-4.18-.2-4.18-.2l-2.66-.75-2.52-1.17-12.79-6.16-173.24-89.04c-6.29-3.23-10.27-9.15-12.81-15.47-3.26-6.76-4.49-14.33-2.63-21.48.25-1 .74-2 1.13-3.01.32-.82.48-1.69.89-2.49l.19-.36 39.48-76.83.19-.36c.31-.6.78-1.06 1.12-1.63.81-1.33 1.63-2.64 2.59-3.8.79-.98 1.67-1.82 2.57-2.69.8-.77 1.59-1.5 2.46-2.18.81-.63 1.64-1.21 2.52-1.76 1.56-1 3.17-1.85 4.86-2.56.2-.08.39-.18.59-.26 8.08-3.21 17.31-3.19 25.54 1.04 0 0 127.49 65.58 130.63 67.84 2.4 1.73-.31 4.35-.88 10.9-.56 6.56-1.38 15.32-1.38 15.32s-.52 11.55 2.9 23.01 3.55 13.07 10.34 22.61c6.78 9.54 17.25 16.14 17.25 16.14s10.25 7.64 10.68 11.52c.08.73-.66 2.7-9.43 4.94-14.34 3.68-12.94 1.47-21.01 5.52z" stroke="#06195f" layerName="Curve 241"/><path d="M1844.89 3636.99c-8-4.19-7.56-3.68-15.27-2.92-7.7.76-12.38 3.82-15.55 5.95-5.74 3.86-10.1 11.74-14.34 16.12-1.62 1.67-2.49 1.91-2.49 1.91s-1.84.58-2.91.01c-2.16-1.15-2.28-3.52-2.28-3.52l-.94-2.6-.53-2.72-2.46-13.98-28.75-192.65c-1.05-7 1.44-13.68 5.09-19.43 3.59-6.6 9.02-12.01 15.91-14.67.96-.38 2.06-.57 3.1-.84.86-.22 1.65-.6 2.55-.73l.4-.06 85.43-12.75.4-.06c.67-.1 1.32.01 1.98-.05 1.55-.11 3.09-.21 4.6-.11 1.25.07 2.45.3 3.68.52 1.09.2 2.15.42 3.2.72.99.3 1.95.63 2.9 1.02 1.72.69 3.36 1.5 4.92 2.46.18.12.38.21.56.33 7.32 4.69 12.68 12.19 14.05 21.35 0 0 21.12 141.8 21.12 145.67-.01 2.96-3.71 2.28-9.37 5.65-5.65 3.36-13.25 7.81-13.25 7.81s-9.68 6.32-16.99 15.79c-7.31 9.46-8.54 10.5-12.33 21.58-3.79 11.07-3.05 23.43-3.05 23.43s-.22 12.78-3.12 15.39c-.54.49-2.57 1.04-9.52-4.77-11.34-9.5-8.74-9.66-16.74-13.85z" stroke="#06195f" layerName="Curve 169"/><path d="M854.549 2177.25c1.608-8.89 1.248-8.32-1.778-15.45-3.025-7.12-7.342-10.67-10.324-13.06-5.398-4.32-14.222-6.12-19.673-8.87-2.075-1.04-2.561-1.81-2.561-1.81s-1.104-1.57-.879-2.77c.45-2.4 2.672-3.22 2.672-3.22l2.2-1.68 2.446-1.31 12.607-6.53 175.251-85.01c6.37-3.09 13.49-2.71 20.07-.95 7.36 1.45 14.15 5.02 18.75 10.8.65.8 1.15 1.8 1.73 2.71.46.75 1.06 1.4 1.45 2.21l.18.37 37.7 77.71.18.36c.29.61.38 1.27.63 1.89.57 1.43 1.13 2.88 1.49 4.35.3 1.22.44 2.43.59 3.66.14 1.1.25 2.18.27 3.28.02 1.03-.01 2.04-.1 3.07-.14 1.85-.43 3.65-.88 5.43-.06.21-.08.42-.15.63-2.29 8.38-7.84 15.75-16.17 19.79 0 0-129.013 62.53-132.703 63.68-2.825.88-3.29-2.86-8.191-7.25-4.901-4.38-11.411-10.3-11.411-10.3s-8.928-7.35-20.144-11.51c-11.217-4.15-12.575-5.01-24.279-5.31-11.704-.31-23.272 4.09-23.272 4.09s-12.264 3.61-15.626 1.62c-.627-.37-1.757-2.14 1.714-10.51 5.675-13.66 6.602-11.22 8.211-20.11z" stroke="#06195f" layerName="Curve 170"/><path d="M2813.83 3653.49c8.11-3.97 7.66-3.47 15.34-2.51 7.68.96 12.27 4.15 15.38 6.36 5.64 4.01 9.79 12.01 13.91 16.5 1.58 1.71 2.44 1.97 2.44 1.97s1.82.63 2.91.09c2.19-1.09 2.37-3.45 2.37-3.45l1.01-2.58.6-2.71 2.83-13.91 33.88-191.81c1.23-6.97-1.08-13.72-4.57-19.56-3.41-6.69-8.7-12.24-15.52-15.09-.95-.41-2.04-.62-3.08-.92-.85-.24-1.63-.64-2.52-.8l-.4-.07-85.06-15.02-.4-.07c-.66-.12-1.32-.02-1.98-.1-1.54-.16-3.09-.29-4.59-.24-1.26.04-2.47.24-3.7.43-1.09.17-2.16.36-3.22.64-1 .26-1.96.57-2.93.94a32.21 32.21 0 0 0-4.98 2.32c-.18.12-.38.2-.56.32-7.44 4.49-13.01 11.85-14.62 20.96 0 0-24.89 141.2-24.99 145.06-.07 2.96 3.65 2.38 9.21 5.9 5.56 3.51 13.04 8.16 13.04 8.16s9.51 6.58 16.57 16.23c7.06 9.66 8.26 10.73 11.75 21.9 3.49 11.18 2.42 23.51 2.42 23.51s-.12 12.78 2.71 15.47c.53.5 2.55 1.1 9.64-4.52 11.6-9.19 8.99-9.42 17.11-13.4z" stroke="#06195f" layerName="Curve 187"/><path d="M2793.3 809.674c-8.91-1.489-8.25-1.636-13.93-6.89-5.69-5.255-7.57-10.516-8.81-14.129-2.25-6.541-.96-15.456-1.7-21.513-.29-2.305-.84-3.021-.84-3.021s-1.11-1.572-2.32-1.765c-2.41-.385-3.93 1.427-3.93 1.427l-2.32 1.504-2.07 1.859-10.4 9.662-139.21 136.235c-5.06 4.951-7.1 11.782-7.67 18.568-1.12 7.422-.05 15.014 3.84 21.3.53.881 1.3 1.691 1.96 2.541.55.691.96 1.471 1.59 2.116l.28.291 60.42 61.731.28.29c.47.48 1.06.79 1.56 1.23 1.16 1.03 2.33 2.04 3.59 2.87 1.05.7 2.14 1.24 3.25 1.8.99.5 1.97.97 2.99 1.36.97.37 1.93.68 2.93.94 1.78.49 3.58.83 5.4 1.01.22.01.43.06.64.07 8.67.68 17.48-2.06 24.1-8.53 0 0 102.43-100.315 104.76-103.399 1.78-2.363-1.58-4.063-4.05-10.158-2.48-6.095-5.85-14.223-5.85-14.223s-3.91-10.885-4.02-22.845c-.12-11.959-.48-13.529 3.19-24.648 3.67-11.118 11.71-20.521 11.71-20.521s7.55-10.324 6.81-14.16c-.14-.715-1.43-2.379-10.47-1.936-14.78.725-12.8 2.423-21.71.934z" stroke="#06195f" layerName="Curve 256"/><path d="M3841.41 2221.09c-1.31-8.94-.97-8.36 2.29-15.38 3.27-7.02 7.7-10.42 10.76-12.71 5.54-4.14 14.42-5.65 19.95-8.21 2.11-.97 2.62-1.72 2.62-1.72s1.16-1.54.98-2.74c-.38-2.42-2.57-3.31-2.57-3.31l-2.14-1.75-2.4-1.4-12.39-6.94-172.32-90.79c-6.26-3.3-13.39-3.16-20.03-1.62-7.4 1.21-14.3 4.55-19.1 10.18-.67.77-1.21 1.75-1.81 2.64-.49.74-1.11 1.37-1.53 2.16l-.19.36-40.26 76.42-.19.36c-.32.6-.43 1.25-.7 1.86-.62 1.42-1.22 2.84-1.63 4.3-.34 1.21-.53 2.41-.72 3.64-.17 1.1-.32 2.17-.38 3.27-.05 1.03-.05 2.04.01 3.07.07 1.85.3 3.66.69 5.45.05.21.07.43.13.64 2.01 8.46 7.32 16 15.5 20.32 0 0 126.87 66.79 130.52 68.06 2.79.97 3.38-2.75 8.42-6.97 5.05-4.23 11.75-9.93 11.75-9.93s9.17-7.05 20.52-10.82c11.35-3.78 12.73-4.6 24.44-4.51 11.71.09 23.12 4.87 23.12 4.87s12.14 4.01 15.57 2.14c.63-.35 1.82-2.09-1.37-10.56-5.22-13.85-6.22-11.44-7.54-20.38z" stroke="#06195f" layerName="Curve 242"/><path d="M1788.06 3400.52c-.28.04-.55-.01-.82.02l-.25.03c-17.52 2.44-33.66-9.5-36.04-26.63l-.37-2.7-26.8-192.93c-.98-7.01 1.58-13.66 5.29-19.38 3.65-6.55 9.14-11.91 16.06-14.5.96-.37 2.06-.54 3.11-.81.86-.21 1.65-.58 2.55-.7l.4-.06 85.55-11.88.41-.06c.66-.09 1.32.03 1.98-.02 1.55-.1 3.09-.19 4.6-.07 1.25.08 2.45.32 3.67.56 1.09.21 2.15.44 3.2.75.99.31 1.94.65 2.89 1.05 1.71.7 3.34 1.54 4.89 2.51.18.12.37.21.55.33 7.28 4.77 12.57 12.33 13.84 21.49l26.89 193.55.22 1.64c2.08 14.96-7.05 28.96-21.1 33.85-.03.01-.07 0-.09.01-2.24.91-4.57 1.62-7.02 1.96l-64.88 9.23-18.73 2.76z" stroke="#06195f" layerName="Curve 172"/><path d="M1063.23 2052.34c-.12-.25-.15-.52-.26-.77l-.11-.23c-7.56-15.99-.99-34.96 14.65-42.35l2.46-1.16 176.1-83.23c6.4-3.03 13.52-2.57 20.08-.75 7.35 1.53 14.1 5.17 18.64 11 .64.8 1.13 1.8 1.7 2.72.46.76 1.05 1.41 1.43 2.23l.18.36 36.9 78.1.18.36c.29.61.37 1.27.61 1.89.56 1.44 1.1 2.9 1.44 4.37.3 1.22.43 2.43.57 3.67.12 1.1.22 2.18.23 3.28.01 1.03-.04 2.04-.14 3.07-.15 1.84-.46 3.64-.93 5.42-.06.2-.09.42-.15.62-2.38 8.37-8.01 15.68-16.37 19.63l-176.67 83.5-1.5.7c-13.65 6.46-29.74 1.93-38.61-10.02-.02-.02-.02-.06-.04-.09-1.53-1.86-2.9-3.87-3.96-6.11l-28.2-59.15-8.23-17.06z" stroke="#06195f" layerName="Curve 173"/><path d="M2876.94 3418.62c.27.05.54.01.82.04l.24.04c17.45 2.9 33.9-8.6 36.74-25.67l.45-2.68 31.92-192.14c1.16-6.99-1.22-13.71-4.77-19.52-3.48-6.65-8.82-12.15-15.67-14.93-.95-.39-2.04-.59-3.08-.89-.86-.23-1.64-.62-2.53-.77l-.41-.06-85.2-14.16-.4-.07c-.67-.11-1.32-.01-1.99-.08-1.54-.14-3.08-.26-4.59-.19-1.26.05-2.46.26-3.69.46-1.09.18-2.16.39-3.21.67-1 .28-1.96.6-2.92.98-1.73.65-3.38 1.44-4.96 2.37-.18.12-.38.2-.56.32-7.39 4.57-12.89 11.99-14.4 21.11l-32.03 192.77-.28 1.63c-2.47 14.9 6.28 29.13 20.2 34.4.03.01.06.01.09.02 2.22.96 4.53 1.73 6.97 2.14l64.6 10.95 18.66 3.26z" stroke="#06195f" layerName="Curve 188"/><path d="M2605.25 963.901c-.19-.196-.44-.32-.64-.509l-.17-.177c-12.5-12.516-32.57-12.74-44.82-.515l-1.92 1.921-137.82 137.639c-5.01 5.01-6.99 11.86-7.48 18.65-1.04 7.43.1 15.01 4.05 21.26.54.87 1.32 1.68 1.99 2.52.56.68.97 1.46 1.61 2.1l.29.29 61.03 61.11.29.29c.48.48 1.07.77 1.57 1.22 1.17 1.01 2.35 2.01 3.62 2.83 1.05.69 2.15 1.22 3.27 1.77.99.49 1.98.94 3 1.32.98.36 1.94.66 2.94.91 1.79.48 3.59.8 5.42.96.21.01.42.05.64.06 8.67.59 17.45-2.24 24-8.78l138.26-138.08 1.17-1.17c10.69-10.67 11.86-27.34 3.61-39.73-.02-.02-.05-.04-.07-.06-1.24-2.07-2.66-4.05-4.41-5.8l-46.15-46.519-13.28-13.51z" stroke="#06195f" layerName="Curve 257"/><path d="M3637 2089.31c.13-.24.17-.51.29-.76l.12-.22c8.08-15.74 2.15-34.91-13.24-42.82l-2.42-1.24-173.23-89.04c-6.3-3.24-13.43-3.02-20.04-1.41-7.4 1.28-14.27 4.69-19 10.36-.67.78-1.2 1.77-1.79 2.67-.48.74-1.1 1.37-1.51 2.17l-.18.37-39.49 76.82-.18.36c-.31.6-.41 1.25-.68 1.86-.61 1.43-1.2 2.86-1.59 4.32-.33 1.21-.5 2.42-.68 3.65-.16 1.1-.3 2.18-.34 3.27-.04 1.03-.03 2.05.03 3.08.1 1.84.34 3.65.75 5.44.05.21.08.42.13.63 2.1 8.44 7.48 15.93 15.71 20.16l173.8 89.33 1.47.76c13.43 6.9 29.66 2.91 38.92-8.74.02-.02.03-.06.05-.08 1.58-1.82 3.03-3.78 4.16-5.98l30.15-58.18 8.79-16.78z" stroke="#06195f" layerName="Curve 243"/></g></svg>
