<svg stroke-miterlimit="10"
  style="fill-rule:nonzero;clip-rule:evenodd;stroke-linecap:round;stroke-linejoin:round"
  viewBox="0 0 4608 4608" xml:space="preserve" xmlns="http://www.w3.org/2000/svg"><g layerName="Layer 1" fill="#3395ff"><path d="M1818.99 1601.04c7.21-20.56 26.84-34.13 48.63-33.62l957.89 22.43c21.78.51 40.75 14.99 47 35.86l274.72 917.96c6.25 20.87-1.66 43.39-19.58 55.78l-788.1 544.9c-17.92 12.39-41.78 11.83-59.1-1.38l-761.8-581.2c-17.32-13.21-24.16-36.08-16.95-56.63l317.29-904.1z" opacity=".453" stroke="#06195f" stroke-linecap="round" stroke-linejoin="round" stroke-width="3" layerName="Polygon 3"/><path d="m1964.12 2776.56-210.7-692.55 593.54-414.4 577.52 436.44-236.6 684.12-723.76-13.61z" layerName="Polygon 4"/></g><g layerName="Layer Inner" stroke-linecap="square" stroke-linejoin="bevel" stroke-width="12.984"><path d="m1475.62 3362.13-67.03-49.66c-12.75-9.44-15.59-27.19-6.36-39.66l113.58-153.33c9.23-12.47 27.05-14.92 39.79-5.48l67.04 49.65c12.74 9.44 15.58 27.2 6.35 39.66l-113.58 153.34c-9.23 12.46-27.04 14.92-39.79 5.48z" fill="#3e68ff" stroke="#3e68ff" layerName="Rectangle 85"/><path d="m1047.28 1790.54 27.36-78.81c5.2-14.98 21.29-23 35.95-17.92l180.26 62.57c14.66 5.08 22.32 21.35 17.12 36.33l-27.35 78.81c-5.2 14.98-21.29 23.01-35.95 17.92l-180.27-62.57c-14.65-5.08-22.31-21.35-17.12-36.33z" fill="#3e68ff" stroke="#3e68ff" layerName="Rectangle 86"/><path d="m3163.84 3385.97 68.34-47.85c12.98-9.09 16.3-26.77 7.4-39.47l-109.45-156.31c-8.9-12.7-26.64-15.63-39.63-6.54l-68.33 47.86c-12.99 9.09-16.31 26.77-7.41 39.47l109.45 156.31c8.9 12.7 26.64 15.63 39.63 6.53z" fill="#3e68ff" stroke="#3e68ff" layerName="Rectangle 127"/><path d="m2311.4 898.647-83.42-.875c-15.86-.166-28.84 12.273-29 27.784l-2 190.804c-.17 15.51 12.56 28.22 28.41 28.39l83.42.87c15.86.17 28.84-12.27 29.01-27.78l2-190.807c.16-15.511-12.56-28.22-28.42-28.386z" fill="#3e68ff" stroke="#3e68ff" layerName="Rectangle 196"/><path d="m3647.81 1858.58-22.49-80.34c-4.28-15.27-19.85-24.26-34.79-20.07l-183.75 51.44c-14.94 4.18-23.58 19.95-19.31 35.22l22.49 80.34c4.28 15.27 19.85 24.25 34.79 20.07l183.75-51.44c14.94-4.18 23.58-19.95 19.31-35.22z" fill="#3e68ff" stroke="#3e68ff" layerName="Rectangle 183"/><path d="m1613.03 3463.91-65.87-48.79c-12.52-9.28-15.15-26.94-5.88-39.46l114.08-154.02c9.27-12.52 26.94-15.15 39.46-5.87l65.87 48.79c12.52 9.27 15.15 26.94 5.88 39.46l-114.08 154.01c-4.99 6.74-12.42 10.62-20.17 11.31-6.64.59-13.51-1.15-19.29-5.43z" fill="#3e68ff" stroke="#3e68ff" layerName="Rectangle 88"/><path d="m991.219 1952.08 26.881-77.44c5.1-14.71 21.18-22.51 35.9-17.4l181.06 62.84c14.72 5.11 22.51 21.19 17.4 35.91l-26.87 77.43c-5.11 14.72-21.19 22.51-35.91 17.41l-181.06-62.84c-7.93-2.76-13.844-8.69-16.819-15.87a28.127 28.127 0 0 1-.582-20.04z" fill="#3e68ff" stroke="#3e68ff" layerName="Rectangle 89"/><path d="m3023.77 3484.06 67.15-47.02c12.76-8.94 15.86-26.53 6.92-39.29l-109.93-157c-8.94-12.76-26.53-15.86-39.29-6.92l-67.15 47.02c-12.76 8.93-15.86 26.52-6.92 39.29l109.93 156.99a28.146 28.146 0 0 0 19.86 11.84c6.63.77 13.54-.79 19.43-4.91z" fill="#3e68ff" stroke="#3e68ff" layerName="Rectangle 128"/><path d="m2482.39 900.439-81.97-.859c-15.58-.164-28.34 12.334-28.5 27.913l-2.01 191.647c-.17 15.58 12.33 28.34 27.91 28.51l81.97.86c15.58.16 28.34-12.34 28.5-27.92l2.01-191.646c.09-8.39-3.5-15.963-9.26-21.192a28.07 28.07 0 0 0-18.65-7.313z" fill="#3e68ff" stroke="#3e68ff" layerName="Rectangle 197"/><path d="m3693.91 2023.24-22.1-78.93c-4.2-15.01-19.77-23.77-34.77-19.56l-184.56 51.67c-15.01 4.2-23.77 19.77-19.56 34.77l22.09 78.93c4.21 15.01 19.77 23.77 34.78 19.56l184.56-51.67c8.08-2.26 14.35-7.82 17.76-14.81a28.105 28.105 0 0 0 1.8-19.96z" fill="#3e68ff" stroke="#3e68ff" layerName="Rectangle 184"/><path d="m1127.66 3292.77-13.13-82.39c-2.5-15.66 7.89-30.33 23.21-32.77l188.44-30.05c15.32-2.44 29.76 8.27 32.26 23.93l13.13 82.38c2.5 15.66-7.9 30.34-23.21 32.78l-188.44 30.05c-15.32 2.44-29.76-8.28-32.26-23.93z" fill="#7996ff" stroke="#7996ff" layerName="Rectangle 91"/><path d="m1009.49 1437.75 74.69-37.15c14.2-7.06 31.31-1.53 38.22 12.36l84.99 170.84c6.91 13.89 1 30.88-13.2 37.94l-74.69 37.15c-14.2 7.07-31.31 1.53-38.22-12.36l-84.986-170.84c-6.908-13.89-1-30.87 13.196-37.94z" fill="#7996ff" stroke="#7996ff" layerName="Rectangle 92"/><path d="m3513.52 3325.91 15.33-82.01c2.91-15.59-7.09-30.53-22.33-33.38l-187.57-35.06c-15.25-2.85-29.97 7.48-32.89 23.07l-15.32 82c-2.91 15.59 7.08 30.53 22.33 33.38l187.57 35.06c15.25 2.85 29.97-7.48 32.88-23.06z" fill="#7996ff" stroke="#7996ff" layerName="Rectangle 129"/><path d="m1992.11 743.917-60.2 57.753c-11.44 10.978-12.01 28.951-1.27 40.144l132.1 137.698c10.73 11.193 28.72 11.369 40.16.391l60.2-57.753c11.44-10.978 12.01-28.951 1.27-40.145l-132.1-137.697c-10.73-11.193-28.72-11.369-40.16-.391z" fill="#7996ff" stroke="#7996ff" layerName="Rectangle 198"/><path d="m3707.06 1508.76-72.28-41.65c-13.74-7.92-31.16-3.44-38.9 10l-95.26 165.34c-7.74 13.44-2.88 30.76 10.86 38.67l72.29 41.65c13.74 7.91 31.15 3.43 38.89-10.01l95.26-165.34c7.74-13.44 2.88-30.75-10.86-38.66z" fill="#7996ff" stroke="#7996ff" layerName="Rectangle 185"/><path d="m1154.26 3459.56-12.91-80.95c-2.45-15.39 8.03-29.85 23.42-32.3l189.27-30.18c15.38-2.45 29.84 8.03 32.3 23.42l12.91 80.94c2.45 15.39-8.04 29.85-23.42 32.3l-189.27 30.18c-8.28 1.33-16.3-1.11-22.32-6.03-5.16-4.23-8.85-10.28-9.98-17.38z" fill="#3e68ff" stroke="#3e68ff" layerName="Rectangle 94"/><path d="m858.269 1512.98 73.392-36.51c13.949-6.94 30.883-1.25 37.822 12.7l85.367 171.6c6.93 13.94 1.25 30.88-12.7 37.82l-73.389 36.51c-13.95 6.94-30.884 1.25-37.823-12.7l-85.362-171.6c-3.737-7.51-3.814-15.89-.91-23.1a28.084 28.084 0 0 1 13.603-14.72z" fill="#3e68ff" stroke="#3e68ff" layerName="Rectangle 95"/><path d="m3482.49 3491.93 15.06-80.58c2.87-15.31-7.23-30.05-22.54-32.91l-188.4-35.21c-15.32-2.86-30.05 7.23-32.91 22.55l-15.06 80.57c-2.87 15.32 7.23 30.06 22.54 32.92l188.4 35.21c8.25 1.54 16.33-.68 22.48-5.44 5.26-4.09 9.11-10.04 10.43-17.11z" fill="#3e68ff" stroke="#3e68ff" layerName="Rectangle 130"/><path d="m2113.99 626.99-59.15 56.747c-11.24 10.786-11.61 28.644-.83 39.887L2186.7 861.93c10.78 11.243 28.64 11.613 39.88.827l59.16-56.747c11.24-10.786 11.61-28.644.82-39.887l-132.68-138.306c-5.81-6.054-13.67-8.956-21.44-8.66a28.118 28.118 0 0 0-18.45 7.833z" fill="#3e68ff" stroke="#3e68ff" layerName="Rectangle 199"/><path d="m3853.41 1593.07-71.02-40.92c-13.5-7.78-30.75-3.14-38.53 10.36l-95.68 166.07c-7.78 13.5-3.14 30.75 10.36 38.53l71.03 40.92c13.5 7.78 30.75 3.14 38.53-10.36l95.67-166.07c4.19-7.27 4.78-15.63 2.32-23.01a28.096 28.096 0 0 0-12.68-15.52z" fill="#3e68ff" stroke="#3e68ff" layerName="Rectangle 186"/><path d="M863.71 3291.91c-4.559 4.87-2.939 2.55 11.883 2.79 13.709.21 34.193 7.19 48.137 20.89 16.759 16.48 19.355 28.67 23.604 32.8 1.973 1.91 3.55.64 8.431-.14l130.865-20.7c15.38-2.45 25.87-16.91 23.41-32.3l-12.91-80.94c-2.45-15.39-16.91-25.87-32.3-23.42l-194.887 31.39c-1.647.27-12.812.8-11.03 1.33 3.775 1.11 6.364 4.52 6.856 4.82 0 0 10.83 9.7 14.997 17.68 4.166 7.97 1.668 14.22 1.668 14.22s-.562 9.79-3.259 14.86c-2.54 4.77-6.366 8.03-6.366 8.03s-3.935 3.18-9.099 8.69z" fill="#072db7" stroke="#072db7" layerName="Rectangle 97"/><path d="M931.426 1185.61c-6.01-2.9-3.314-2.04.895 12.17 3.892 13.15 3.356 34.78-5.556 52.18-10.713 20.92-21.573 27.04-24.242 32.33-1.239 2.45.446 3.58 2.647 8l58.858 118.7c6.94 13.95 23.873 19.63 37.822 12.69l73.39-36.51c13.95-6.94 19.64-23.87 12.7-37.82l-88.204-176.6c-.743-1.49-4.592-11.99-4.562-10.13.064 3.93-2.411 7.42-2.555 7.98 0 0-6.021 13.24-12.386 19.6-6.365 6.36-13.072 5.84-13.072 5.84s-9.508 2.39-15.154 1.33c-5.317-1-9.563-3.68-9.563-3.68s-4.211-2.8-11.018-6.08z" fill="#072db7" stroke="#072db7" layerName="Rectangle 98"/><path d="M3777.41 3332.08c4.42 4.99 2.87 2.63-11.96 2.47-13.71-.15-34.37 6.28-48.67 19.6-17.19 16.03-20.11 28.15-24.47 32.16-2.03 1.86-3.57.55-8.43-.36l-130.26-24.17c-15.31-2.87-25.41-17.6-22.55-32.92l15.06-80.57c2.86-15.32 17.6-25.41 32.91-22.55l193.99 36.57c1.64.31 12.79 1.14 10.99 1.62-3.8 1.02-6.48 4.35-6.98 4.64 0 0-11.09 9.41-15.46 17.27-4.38 7.86-2.05 14.17-2.05 14.17s.3 9.8 2.86 14.94c2.41 4.84 6.15 8.2 6.15 8.2s3.85 3.28 8.87 8.93z" fill="#072db7" stroke="#072db7" layerName="Rectangle 131"/><path d="M1781.15 585.274c-.7-6.636-.8-3.809 11.15 4.953 11.06 8.103 31.61 14.906 51 12.395 23.3-3.018 32.73-11.173 38.61-11.898 2.73-.337 3.22 1.629 6.64 5.195l91.84 95.49c10.79 11.244 10.42 29.102-.83 39.888l-59.15 56.747c-11.24 10.786-29.1 10.416-39.88-.828L1744.09 644.55c-1.15-1.203-9.73-8.372-7.99-7.716 3.68 1.39 7.8.239 8.38.292 0 0 14.49-1.197 22.62-5.039 8.14-3.843 9.92-10.331 9.92-10.331s5.45-8.143 6.37-13.814c.85-5.342-.23-10.243-.23-10.243s-1.22-4.911-2.01-12.425z" fill="#072db7" stroke="#072db7" layerName="Rectangle 200"/><path d="M3800.37 1261.84c6.18-2.52 3.44-1.83-1.63 12.1-4.69 12.88-5.47 34.51 2.36 52.42 9.42 21.53 19.88 28.31 22.22 33.75 1.09 2.52-.66 3.54-3.13 7.83l-65.99 114.88c-7.78 13.5-25.03 18.14-38.53 10.36l-71.02-40.92c-13.5-7.78-18.14-25.03-10.37-38.53l98.82-170.89c.83-1.44 5.31-11.68 5.17-9.83-.3 3.92 1.95 7.56 2.06 8.12 0 0 5.21 13.58 11.17 20.32 5.97 6.73 12.69 6.63 12.69 6.63s9.35 2.96 15.05 2.25c5.36-.67 9.77-3.09 9.77-3.09s4.37-2.54 11.36-5.4z" fill="#072db7" stroke="#072db7" layerName="Rectangle 187"/><path d="M890.515 3460.12c-5.816-3.27-3.572-1.55 10.491-6.23 13.007-4.34 30.437-17.16 39.602-34.43 11.017-20.76 9.818-33.17 12.625-38.38 1.305-2.43 3.192-1.69 8.08-2.42l131.017-19.7c15.41-2.29 29.76 8.34 32.06 23.75l12.08 81.07c2.3 15.41-8.33 29.77-23.74 32.06l-195.29 28.8c-1.65.24-12.458 3.09-10.917 2.06 3.263-2.21 4.706-6.23 5.083-6.67 0 0 7.404-12.51 8.974-21.37 1.57-8.86-2.695-14.07-2.695-14.07s-3.485-9.16-7.585-13.18c-3.861-3.79-8.489-5.74-8.489-5.74s-4.711-1.84-11.296-5.55z" fill="#072db7" stroke="#072db7" layerName="Rectangle 100"/><path d="M778.913 1261.46c1.382-6.53.409-3.88 9.085 8.14 8.024 11.12 25.472 23.92 44.692 27.51 23.101 4.31 34.585-.55 40.4.58 2.702.52 2.562 2.54 4.718 6.99l57.951 119.14c6.798 14.02.943 30.89-13.077 37.69l-73.758 35.76c-14.02 6.8-30.895.94-37.692-13.08l-85.839-177.76c-.728-1.5-6.68-10.96-5.228-9.8 3.076 2.45 7.349 2.63 7.88 2.86 0 0 14.155 3.32 23.079 2.17 8.923-1.15 12.614-6.77 12.614-6.77s7.703-6.07 10.317-11.18c2.462-4.82 2.937-9.82 2.937-9.82s.355-5.04 1.921-12.43z" fill="#072db7" stroke="#072db7" layerName="Rectangle 101"/><path d="M3746.13 3499.52c5.9-3.12 3.61-1.45-10.32-6.51-12.89-4.68-29.97-17.97-38.67-35.48-10.46-21.04-8.93-33.41-11.6-38.7-1.24-2.46-3.14-1.77-8.01-2.63l-130.45-23.18c-15.34-2.71-29.97 7.54-32.68 22.88l-14.24 80.73c-2.71 15.34 7.54 29.97 22.88 32.68l194.46 33.98c1.64.29 12.37 3.43 10.86 2.35-3.21-2.28-4.54-6.35-4.91-6.8 0 0-7.07-12.7-8.4-21.6-1.33-8.9 3.07-13.99 3.07-13.99s3.73-9.06 7.93-12.98c3.96-3.68 8.64-5.5 8.64-5.5s4.76-1.72 11.44-5.25z" fill="#072db7" stroke="#072db7" layerName="Rectangle 132"/><path d="M1904.05 467.342c-6.61-.903-3.78-.923 4.6 11.303 7.76 11.308 13.91 32.054 10.8 51.355-3.75 23.199-12.2 32.369-13.11 38.222-.42 2.719 1.53 3.27 4.99 6.801l92.57 94.787c10.9 11.133 28.76 11.322 39.89.422l58.57-57.345c11.14-10.899 11.32-28.76.42-39.893l-138.32-140.837c-1.16-1.191-8.06-9.989-7.46-8.231 1.27 3.725-.01 7.806.03 8.383 0 0-1.65 14.446-5.75 22.457-4.09 8.011-10.63 9.586-10.63 9.586s-8.31 5.201-14.01 5.934c-5.36.69-10.23-.551-10.23-.551s-4.87-1.371-12.36-2.393z" fill="#072db7" stroke="#072db7" layerName="Rectangle 201"/><path d="M3947.97 1346.86c-.98-6.6-.17-3.89-9.56 7.58-8.69 10.6-26.89 22.32-46.29 24.72-23.32 2.89-34.49-2.65-40.36-1.89-2.73.36-2.71 2.38-5.14 6.69l-65.11 115.38c-7.64 13.58-2.83 30.78 10.75 38.42l71.44 40.2c13.58 7.64 30.78 2.83 38.42-10.75l96.53-172.19c.82-1.46 7.34-10.54 5.82-9.47-3.22 2.26-7.5 2.18-8.04 2.37 0 0-14.34 2.46-23.17.77-8.84-1.69-12.18-7.53-12.18-7.53s-7.32-6.53-9.62-11.79c-2.16-4.96-2.33-9.98-2.33-9.98s-.04-5.06-1.16-12.53z" fill="#072db7" stroke="#072db7" layerName="Rectangle 188"/><path d="m1713.65 3726.8 82.63-11.47c15.71-2.19 26.71-16.41 24.58-31.77l-26.26-189.01c-2.13-15.36-16.6-26.05-32.3-23.87l-82.63 11.48c-15.71 2.18-26.71 16.41-24.58 31.77l26.26 189c2.13 15.37 16.6 26.06 32.3 23.87z" fill="#7996ff" stroke="#7996ff" layerName="Rectangle 103"/><path d="m770.405 2126.67 35.647 75.43c6.776 14.33 23.638 20.58 37.662 13.95l172.516-81.53c14.03-6.63 19.9-23.63 13.13-37.96l-35.65-75.43c-6.775-14.33-23.637-20.58-37.661-13.95l-172.519 81.53c-14.024 6.63-19.901 23.63-13.125 37.96z" fill="#7996ff" stroke="#7996ff" layerName="Rectangle 104"/><path d="m2916.18 3744.18-82.29-13.67c-15.64-2.6-26.26-17.11-23.72-32.42l31.28-188.23c2.54-15.3 17.28-25.6 32.93-23l82.29 13.67c15.64 2.6 26.26 17.11 23.72 32.42l-31.28 188.23c-2.54 15.3-17.28 25.6-32.93 23z" fill="#7996ff" stroke="#7996ff" layerName="Rectangle 133"/><path d="m2721.3 751.571 58.95 59.028c11.2 11.22 11.39 29.201.41 40.163l-135.01 134.84c-10.98 10.961-28.96 10.752-40.16-.468l-58.95-59.028c-11.21-11.22-11.4-29.201-.42-40.162l135.02-134.84c10.97-10.962 28.95-10.753 40.16.467z" fill="#7996ff" stroke="#7996ff" layerName="Rectangle 202"/><path d="m3903.65 2210.98-40.18 73.11c-7.64 13.9-24.85 19.1-38.44 11.63l-167.22-91.91c-13.6-7.47-18.43-24.8-10.79-38.69l40.19-73.11c7.64-13.9 24.85-19.1 38.44-11.63l167.22 91.91c13.59 7.47 18.42 24.8 10.78 38.69z" fill="#7996ff" stroke="#7996ff" layerName="Rectangle 189"/><path d="m1546.36 3750.04 81.19-11.28c15.43-2.14 26.2-16.39 24.06-31.82l-26.37-189.84c-2.14-15.43-16.39-26.2-31.82-24.06l-81.2 11.28c-15.43 2.15-26.2 16.39-24.06 31.83l26.37 189.83c1.16 8.31 5.82 15.27 12.29 19.59 5.55 3.7 12.42 5.46 19.54 4.47z" fill="#3e68ff" stroke="#3e68ff" layerName="Rectangle 106"/><path d="m698.234 1973.97 35.026 74.11c6.658 14.09 23.474 20.11 37.56 13.45l173.281-81.9c14.086-6.65 20.108-23.47 13.451-37.56l-35.027-74.11c-6.657-14.08-23.473-20.1-37.56-13.45l-173.28 81.9c-7.586 3.58-12.833 10.12-15.021 17.58a28.111 28.111 0 0 0 1.57 19.98z" fill="#3e68ff" stroke="#3e68ff" layerName="Rectangle 107"/><path d="m3082.8 3771.87-80.86-13.44c-15.37-2.55-25.76-17.08-23.21-32.45l31.42-189.07c2.55-15.37 17.08-25.76 32.45-23.2l80.86 13.43c15.37 2.56 25.76 17.09 23.21 32.46l-31.42 189.06c-1.37 8.28-6.22 15.11-12.8 19.26a28.115 28.115 0 0 1-19.65 3.95z" fill="#3e68ff" stroke="#3e68ff" layerName="Rectangle 134"/><path d="m2601.94 632.064 57.93 58c11.01 11.024 11 28.886-.03 39.895l-135.61 135.436c-11.02 11.01-28.88 10.998-39.89-.026l-57.93-57.999c-11.01-11.024-11-28.886.03-39.896l135.61-135.436c5.94-5.929 13.86-8.662 21.62-8.199a28.101 28.101 0 0 1 18.27 8.225z" fill="#3e68ff" stroke="#3e68ff" layerName="Rectangle 203"/><path d="m3985.01 2062.97-39.48 71.83c-7.51 13.66-24.66 18.64-38.31 11.14l-167.96-92.32c-13.66-7.51-18.64-24.66-11.14-38.32l39.49-71.83c7.5-13.65 24.66-18.64 38.31-11.13l167.96 92.32c7.35 4.04 12.19 10.88 13.92 18.46 1.48 6.5.68 13.55-2.79 19.85z" fill="#3e68ff" stroke="#3e68ff" layerName="Rectangle 190"/><path d="M1791.5 3979.02c-3.33 5.78-1.58 3.55-6.13-10.56-4.2-13.05-16.86-30.6-34.03-39.94-20.65-11.22-33.07-10.15-38.26-13-2.41-1.33-1.65-3.21-2.33-8.11l-18.4-131.2c-2.14-15.43 8.63-29.68 24.06-31.83l81.2-11.27c15.43-2.15 29.68 8.62 31.82 24.06l26.85 195.56c.23 1.66 2.97 12.49 1.95 10.94-2.17-3.28-6.18-4.77-6.61-5.15 0 0-12.44-7.53-21.29-9.18-8.84-1.66-14.09 2.55-14.09 2.55s-9.19 3.39-13.26 7.45c-3.82 3.83-5.82 8.44-5.82 8.44s-1.89 4.69-5.66 11.24z" fill="#072db7" stroke="#072db7" layerName="Rectangle 109"/><path d="M552.982 2276.34c-6.513-1.45-3.866-.45 8.239-9.01 11.196-7.91 24.17-25.23 27.946-44.41 4.539-23.06-.199-34.59.979-40.4.548-2.69 2.568-2.53 7.036-4.64l119.712-56.77c14.086-6.66 30.902-.63 37.56 13.45l35.026 74.11c6.658 14.09.636 30.91-13.451 37.56l-178.607 84.07c-1.508.71-11.028 6.57-9.854 5.13 2.487-3.05 2.704-7.32 2.937-7.85 0 0 3.466-14.12 2.406-23.06-1.061-8.93-6.648-12.68-6.648-12.68s-5.988-7.76-11.076-10.42c-4.793-2.51-9.786-3.04-9.786-3.04s-5.043-.4-12.419-2.04z" fill="#072db7" stroke="#072db7" layerName="Rectangle 110"/><path d="M2831.64 3994.23c3.18 5.87 1.49 3.6 6.41-10.38 4.56-12.94 17.67-30.15 35.09-39.03 20.94-10.66 33.33-9.26 38.59-11.98 2.44-1.26 1.74-3.16 2.55-8.04l21.88-130.66c2.55-15.37-7.84-29.9-23.21-32.46l-80.86-13.43c-15.37-2.56-29.9 7.83-32.45 23.2l-32.05 194.78c-.28 1.65-3.31 12.41-2.24 10.89 2.25-3.23 6.3-4.61 6.75-4.98 0 0 12.63-7.19 21.52-8.61 8.88-1.42 14.01 2.93 14.01 2.93s9.11 3.63 13.06 7.8c3.72 3.93 5.59 8.59 5.59 8.59s1.77 4.74 5.36 11.38z" fill="#072db7" stroke="#072db7" layerName="Rectangle 135"/><path d="M2935.6 597.477c.84-6.619.89-3.791-11.25 4.713-11.23 7.865-31.92 14.227-51.25 11.302-23.23-3.516-32.49-11.87-38.35-12.721-2.72-.396-3.25 1.559-6.75 5.052l-93.86 93.504c-11.03 11.009-11.04 28.871-.03 39.896l57.93 57.999c11.01 11.024 28.87 11.036 39.89.026l139.46-139.716c1.18-1.178 9.9-8.161 8.15-7.542-3.71 1.31-7.8.071-8.38.112 0 0-14.46-1.507-22.51-5.522-8.05-4.016-9.69-10.541-9.69-10.541s-5.29-8.258-6.08-13.947c-.74-5.359.45-10.236.45-10.236s1.32-4.883 2.27-12.379z" fill="#072db7" stroke="#072db7" layerName="Rectangle 204"/><path d="M4111.54 2373.64c6.59-1.05 3.88-.21-7.68-9.49-10.69-8.58-22.58-26.66-25.18-46.04-3.12-23.29 2.31-34.51 1.49-40.38-.38-2.72-2.41-2.69-6.74-5.07l-116.02-63.96c-13.66-7.51-30.81-2.52-38.32 11.13l-39.48 71.84c-7.5 13.65-2.52 30.8 11.13 38.31l173.15 94.81c1.46.8 10.6 7.23 9.52 5.72-2.3-3.2-2.25-7.47-2.45-8.01 0 0-2.6-14.31-1-23.16 1.61-8.86 7.41-12.26 7.41-12.26s6.45-7.38 11.69-9.73c4.94-2.21 9.96-2.43 9.96-2.43s5.06-.1 12.52-1.28z" fill="#072db7" stroke="#072db7" layerName="Rectangle 191"/><path d="M1622.79 4002.47c4.83 4.61 2.52 2.97 2.9-11.85.35-13.71 7.53-34.12 21.38-47.93 16.64-16.59 28.85-19.07 33.02-23.28 1.94-1.95.68-3.54-.05-8.43l-19.39-131.06c-2.3-15.41-16.66-26.04-32.07-23.74l-81.07 12.11c-15.41 2.3-26.04 16.65-23.74 32.06l29.46 195.2c.24 1.65.67 12.82 1.21 11.04 1.16-3.76 4.59-6.32 4.9-6.81 0 0 9.81-10.73 17.82-14.82 8.02-4.09 14.24-1.53 14.24-1.53s9.78.66 14.82 3.41c4.75 2.59 7.97 6.45 7.97 6.45s3.14 3.96 8.6 9.18z" fill="#072db7" stroke="#072db7" layerName="Rectangle 112"/><path d="M480.182 2122.35c-2.955 5.98-2.075 3.29 12.18-.78 13.184-3.76 34.812-3.01 52.124 6.08 20.809 10.92 26.822 21.84 32.083 24.56 2.444 1.26 3.585-.41 8.032-2.57l119.275-57.67c14.018-6.8 19.869-23.68 13.069-37.7l-35.777-73.75c-6.8-14.02-23.677-19.87-37.695-13.07l-177.471 86.44c-1.5.73-12.033 4.47-10.174 4.46 3.936-.02 7.399 2.49 7.958 2.64 0 0 13.174 6.15 19.47 12.58 6.295 6.42 5.711 13.13 5.711 13.13s2.294 9.53 1.18 15.16c-1.05 5.31-3.771 9.53-3.771 9.53s-2.847 4.18-6.194 10.96z" fill="#072db7" stroke="#072db7" layerName="Rectangle 113"/><path d="M2999.67 4022.17c-4.95 4.48-2.6 2.9-2.59-11.93.02-13.71-6.61-34.3-20.08-48.47-16.2-17.04-28.34-19.84-32.4-24.15-1.88-2.01-.59-3.56.27-8.43l22.88-130.5c2.71-15.34 17.35-25.58 32.69-22.87l80.72 14.26c15.35 2.71 25.59 17.34 22.88 32.68l-34.65 194.34c-.29 1.64-1.01 12.8-1.51 11.01-1.05-3.79-4.41-6.44-4.71-6.94 0 0-9.52-10.99-17.42-15.29-7.9-4.3-14.19-1.9-14.19-1.9s-9.8.4-14.91 3.01c-4.82 2.46-8.13 6.23-8.13 6.23s-3.25 3.88-8.85 8.95z" fill="#072db7" stroke="#072db7" layerName="Rectangle 136"/><path d="M2815.25 476.943c6.63-.762 3.8-.841-4.84 11.202-8 11.14-14.59 31.749-11.89 51.113 3.25 23.274 11.5 32.623 12.28 38.493.37 2.727-1.6 3.237-5.13 6.693l-94.57 92.785c-11.14 10.898-29 10.705-39.89-.431l-57.34-58.584c-10.89-11.136-10.7-28.997.44-39.894l141.3-137.845c1.19-1.167 8.27-9.815 7.63-8.07-1.35 3.696-.16 7.804-.2 8.38 0 0 1.34 14.479 5.26 22.575s10.43 9.811 10.43 9.811 8.2 5.378 13.88 6.232c5.35.805 10.24-.331 10.24-.331s4.89-1.267 12.4-2.129z" fill="#072db7" stroke="#072db7" layerName="Rectangle 205"/><path d="M4193.6 2224.38c2.59 6.15 1.87 3.41-12.11-1.52-12.93-4.56-34.56-5.13-52.4 2.88-21.43 9.63-28.1 20.17-33.52 22.56-2.52 1.11-3.55-.63-7.86-3.05l-115.53-64.85c-13.58-7.64-18.39-24.85-10.75-38.42l40.22-71.43c7.64-13.58 24.84-18.39 38.42-10.74l171.86 97.11c1.46.81 11.74 5.2 9.89 5.07-3.93-.26-7.54 2.03-8.11 2.14 0 0-13.52 5.34-20.2 11.37-6.68 6.03-6.5 12.76-6.5 12.76s-2.87 9.37-2.11 15.06c.73 5.37 3.19 9.74 3.19 9.74s2.58 4.35 5.51 11.32z" fill="#072db7" stroke="#072db7" layerName="Rectangle 192"/><path d="m1771.6 3249.82-65.86-48.79c-12.52-9.27-15.16-26.94-5.88-39.46l114.08-154.01c9.27-12.52 26.94-15.15 39.46-5.88l65.87 48.79c12.52 9.28 15.15 26.94 5.87 39.46l-114.07 154.01c-5 6.75-12.43 10.62-20.17 11.31-6.64.6-13.52-1.15-19.3-5.43z" fill="#3e68ff" stroke="#3e68ff" layerName="Rectangle 115"/><path d="m1242.91 2039.44 26.87-77.44c5.11-14.72 21.19-22.51 35.91-17.4l181.06 62.84c14.72 5.11 22.51 21.18 17.4 35.9l-26.88 77.44c-5.1 14.72-21.18 22.51-35.9 17.4l-181.06-62.84c-7.93-2.75-13.84-8.68-16.82-15.87a28.086 28.086 0 0 1-.58-20.03z" fill="#3e68ff" stroke="#3e68ff" layerName="Rectangle 116"/><path d="m2870.95 3265.83 67.15-47.02c12.76-8.94 15.86-26.53 6.93-39.29l-109.94-157c-8.94-12.76-26.53-15.86-39.29-6.92l-67.14 47.02c-12.77 8.93-15.87 26.52-6.93 39.29l109.93 156.99c4.82 6.87 12.14 10.94 19.87 11.84 6.62.77 13.54-.79 19.42-4.91z" fill="#3e68ff" stroke="#3e68ff" layerName="Rectangle 137"/><path d="m2479.59 1166.84-81.96-.86c-15.58-.16-28.34 12.34-28.51 27.92l-2.01 191.64c-.16 15.58 12.34 28.35 27.92 28.51l81.96.86c15.58.16 28.35-12.34 28.51-27.92l2.01-191.64c.09-8.39-3.5-15.97-9.26-21.2a28.118 28.118 0 0 0-18.66-7.31z" fill="#3e68ff" stroke="#3e68ff" layerName="Rectangle 206"/><path d="m3437.36 2095.07-22.1-78.94c-4.2-15-19.77-23.76-34.77-19.56l-184.57 51.67c-15 4.2-23.76 19.77-19.56 34.78l22.1 78.93c4.2 15 19.77 23.76 34.77 19.56l184.57-51.67c8.08-2.26 14.34-7.82 17.75-14.81 2.92-5.99 3.75-13.04 1.81-19.96z" fill="#3e68ff" stroke="#3e68ff" layerName="Rectangle 193"/><path d="m1634.2 3148.04-67.04-49.65c-12.74-9.44-15.58-27.2-6.35-39.66l113.58-153.33c9.23-12.47 27.04-14.92 39.78-5.48l67.04 49.65c12.74 9.44 15.59 27.2 6.36 39.66l-113.58 153.33c-9.23 12.47-27.05 14.92-39.79 5.48z" fill="#3e68ff" stroke="#3e68ff" layerName="Rectangle 118"/><path d="m1298.97 1877.89 27.36-78.81c5.2-14.98 21.29-23 35.94-17.91l180.27 62.56c14.66 5.09 22.32 21.35 17.12 36.33l-27.35 78.82c-5.2 14.98-21.29 23-35.95 17.91l-180.27-62.56c-14.65-5.09-22.32-21.36-17.12-36.34z" fill="#3e68ff" stroke="#3e68ff" layerName="Rectangle 119"/><path d="m3011.02 3167.74 68.34-47.85c12.99-9.09 16.3-26.77 7.41-39.47l-109.46-156.31c-8.89-12.7-26.64-15.63-39.63-6.54l-68.33 47.86c-12.99 9.09-16.31 26.77-7.41 39.47l109.45 156.31c8.9 12.7 26.64 15.63 39.63 6.53z" fill="#3e68ff" stroke="#3e68ff" layerName="Rectangle 138"/><path d="m2308.61 1165.05-83.42-.88c-15.86-.16-28.84 12.28-29.01 27.79l-2 190.8c-.16 15.52 12.56 28.22 28.42 28.39l83.42.88c15.86.16 28.84-12.28 29-27.79l2-190.8c.17-15.52-12.56-28.22-28.41-28.39z" fill="#3e68ff" stroke="#3e68ff" layerName="Rectangle 207"/><path d="m3391.26 1930.4-22.5-80.33c-4.27-15.27-19.84-24.26-34.78-20.08l-183.75 51.45c-14.94 4.18-23.58 19.95-19.31 35.22l22.49 80.33c4.28 15.27 19.85 24.26 34.79 20.08l183.75-51.45c14.94-4.18 23.58-19.95 19.31-35.22z" fill="#3e68ff" stroke="#3e68ff" layerName="Rectangle 194"/><path d="m1794.52 2935.13-67.04-49.66c-12.74-9.44-15.58-27.19-6.35-39.66l113.58-153.33c9.23-12.47 27.04-14.92 39.79-5.48l67.03 49.65c12.74 9.44 15.59 27.2 6.36 39.66l-113.58 153.33c-9.23 12.47-27.05 14.92-39.79 5.49z" fill="#3e68ff" stroke="#3e68ff" layerName="Rectangle 121"/><path d="m1550.07 1967.26 27.36-78.81c5.2-14.98 21.29-23 35.94-17.92l180.27 62.57c14.66 5.08 22.32 21.35 17.12 36.33l-27.35 78.81c-5.2 14.98-21.29 23-35.95 17.92l-180.27-62.57c-14.65-5.08-22.32-21.35-17.12-36.33z" fill="#3e68ff" stroke="#3e68ff" layerName="Rectangle 122"/><path d="m2856.43 2950.63 68.34-47.85c12.98-9.1 16.3-26.77 7.4-39.48L2822.72 2707c-8.9-12.71-26.64-15.63-39.63-6.54l-68.33 47.85c-12.99 9.1-16.31 26.77-7.41 39.48l109.45 156.3c8.9 12.71 26.64 15.64 39.63 6.54z" fill="#3e68ff" stroke="#3e68ff" layerName="Rectangle 139"/><path d="m2307.91 1431.58-83.42-.88c-15.86-.16-28.84 12.27-29 27.79l-2 190.8c-.17 15.51 12.56 28.22 28.41 28.39l83.42.87c15.86.17 28.84-12.27 29.01-27.78l2-190.81c.16-15.51-12.56-28.22-28.42-28.38z" fill="#3e68ff" stroke="#3e68ff" layerName="Rectangle 208"/><path d="m3135.17 2004.28-22.49-80.34c-4.28-15.27-19.85-24.26-34.79-20.07l-183.75 51.44c-14.94 4.18-23.58 19.95-19.3 35.22l22.49 80.34c4.27 15.27 19.85 24.25 34.78 20.07l183.75-51.44c14.94-4.18 23.59-19.95 19.31-35.22z" fill="#3e68ff" stroke="#3e68ff" layerName="Rectangle 195"/><path d="m1930.24 3035.66-65.87-48.79c-12.52-9.28-15.15-26.94-5.87-39.46l114.07-154.01c9.28-12.52 26.94-15.16 39.46-5.88l65.87 48.79c12.52 9.27 15.15 26.94 5.88 39.46l-114.08 154.01c-4.99 6.74-12.42 10.62-20.17 11.31-6.64.59-13.51-1.15-19.29-5.43z" fill="#3e68ff" stroke="#3e68ff" layerName="Rectangle 124"/><path d="m1494.69 2126.82 26.88-77.44c5.11-14.72 21.18-22.51 35.9-17.4l181.07 62.84c14.72 5.11 22.51 21.18 17.4 35.9l-26.88 77.44c-5.11 14.72-21.18 22.51-35.9 17.4l-181.06-62.84c-7.93-2.75-13.85-8.68-16.82-15.87a28.137 28.137 0 0 1-.59-20.03z" fill="#3e68ff" stroke="#3e68ff" layerName="Rectangle 125"/><path d="m2718.08 3047.51 67.14-47.02c12.77-8.93 15.87-26.52 6.93-39.29l-109.94-156.99c-8.93-12.76-26.52-15.86-39.29-6.93l-67.14 47.02c-12.76 8.94-15.86 26.53-6.93 39.29l109.94 157c4.81 6.87 12.13 10.94 19.86 11.84 6.62.77 13.54-.79 19.43-4.92z" fill="#3e68ff" stroke="#3e68ff" layerName="Rectangle 140"/><path d="m2476.8 1433.35-81.97-.86c-15.58-.17-28.34 12.33-28.5 27.91l-2.01 191.65c-.16 15.58 12.33 28.34 27.91 28.5l81.97.86c15.58.17 28.34-12.33 28.51-27.91l2-191.65c.09-8.39-3.49-15.96-9.25-21.19-4.94-4.48-11.47-7.24-18.66-7.31z" fill="#3e68ff" stroke="#3e68ff" layerName="Rectangle 209"/><path d="m3180.71 2166.92-22.1-78.93c-4.2-15.01-19.77-23.76-34.77-19.56l-184.57 51.67c-15 4.2-23.76 19.77-19.56 34.77l22.1 78.94c4.2 15 19.77 23.76 34.77 19.56l184.57-51.68c8.08-2.26 14.34-7.82 17.75-14.81a28.154 28.154 0 0 0 1.81-19.96z" fill="#3e68ff" stroke="#3e68ff" layerName="Rectangle 182"/></g><g layerName="Layer Membrane" fill="none" stroke-linecap="round" stroke-linejoin="round" stroke-width="3"><path d="M1472.37 3367.36c.22.16.48.25.71.4l.2.15c14.21 10.53 34.1 7.78 44.39-6.12l1.62-2.18 115.94-156.52c4.21-5.69 5.16-12.76 4.64-19.55-.07-7.5-2.32-14.83-7.15-20.43-.67-.78-1.55-1.46-2.34-2.19-.66-.6-1.18-1.31-1.91-1.84l-.32-.24-69.41-51.42-.33-.24c-.54-.4-1.17-.61-1.73-.97-1.31-.83-2.63-1.64-4-2.26-1.14-.53-2.31-.89-3.5-1.27-1.05-.34-2.09-.64-3.16-.87-1.02-.2-2.02-.36-3.04-.46-1.84-.21-3.67-.25-5.5-.14-.21.02-.43 0-.64.03-8.67.7-16.93 4.79-22.44 12.23l-116.31 157.02-.99 1.33c-8.99 12.14-7.68 28.8 2.32 39.83.02.02.05.03.07.05 1.53 1.86 3.24 3.61 5.23 5.08l67.65 50.58z" stroke="#06195f" layerName="Curve 133"/><path d="M1041.32 1789c-.09.26-.09.53-.18.8l-.08.23c-5.8 16.71 2.77 34.87 19.11 40.54l2.57.89 184.01 63.87c6.69 2.32 13.72 1.1 20.04-1.42 7.14-2.31 13.47-6.64 17.36-12.93.55-.86.93-1.91 1.4-2.89.37-.8.89-1.51 1.18-2.36l.14-.39 28.32-81.6.13-.38c.22-.64.23-1.3.41-1.94.4-1.5.78-3 .96-4.5.16-1.25.16-2.47.17-3.71 0-1.11-.01-2.19-.12-3.28-.11-1.03-.26-2.03-.47-3.04-.35-1.82-.85-3.58-1.5-5.29-.08-.2-.14-.41-.22-.61-3.26-8.06-9.64-14.72-18.38-17.75l-184.61-64.07-1.56-.55c-14.27-4.95-29.78 1.28-37.32 14.11-.01.03-.01.06-.03.09-1.32 2.02-2.47 4.17-3.28 6.5l-28.05 79.68z" stroke="#06195f" layerName="Curve 134"/><path d="M3166.95 3391.29c-.22.16-.48.24-.71.39l-.21.14c-14.49 10.15-34.29 6.87-44.22-7.3l-1.56-2.23-111.72-159.55c-4.06-5.8-4.82-12.89-4.12-19.66.27-7.5 2.71-14.77 7.69-20.23.69-.77 1.59-1.42 2.4-2.14.67-.57 1.21-1.27 1.95-1.78l.34-.24 70.75-49.54.33-.23c.55-.39 1.19-.58 1.76-.93 1.33-.79 2.67-1.57 4.06-2.16 1.15-.49 2.33-.82 3.53-1.17 1.06-.31 2.11-.59 3.18-.78 1.02-.18 2.03-.31 3.06-.38 1.84-.16 3.67-.16 5.49 0 .22.02.43.02.65.05 8.64.93 16.79 5.24 22.1 12.82l112.09 160.07.95 1.35c8.66 12.37 6.91 28.99-3.38 39.75-.02.02-.05.03-.07.06-1.58 1.82-3.33 3.51-5.36 4.93l-68.98 48.76z" stroke="#06195f" layerName="Curve 175"/><path d="M2311.96 892.513c.28.003.54.091.81.102l.25.003c17.69.185 31.89 14.378 31.7 31.677l-.02 2.719-2.05 194.766c-.07 7.08-3.58 13.29-8.09 18.39-4.59 5.94-10.81 10.43-18.04 11.97-1 .22-2.12.23-3.19.34-.88.08-1.73.32-2.63.32l-.4-.01-86.37-.9-.41-.01c-.67-.01-1.3-.22-1.97-.27-1.54-.13-3.08-.28-4.55-.61-1.23-.27-2.38-.69-3.55-1.1-1.05-.37-2.06-.75-3.05-1.22-.94-.45-1.83-.93-2.71-1.46a31.54 31.54 0 0 1-4.46-3.21c-.16-.14-.34-.26-.5-.41-6.49-5.79-10.6-14.05-10.51-23.3l2.05-195.394.02-1.656c.16-15.103 11.26-27.594 25.88-30.356.03-.005.07.007.1.001 2.34-.559 4.75-.918 7.22-.893l84.47.511z" stroke="#06195f" layerName="Curve 244"/><path d="M3653.85 1857.4c.08.27.07.54.13.81l.07.24c4.77 17.03-4.89 34.63-21.55 39.3l-2.61.73-187.57 52.51c-6.82 1.91-13.76.27-19.92-2.63-6.99-2.74-13.03-7.46-16.53-13.97-.5-.9-.82-1.97-1.22-2.97-.33-.82-.8-1.56-1.04-2.43l-.11-.39-23.29-83.18-.11-.39c-.18-.65-.15-1.31-.29-1.96-.31-1.52-.6-3.04-.69-4.55-.08-1.26 0-2.47.07-3.72.06-1.1.14-2.18.31-3.27.17-1.02.38-2 .65-3a32.27 32.27 0 0 1 1.83-5.19c.09-.19.16-.39.26-.59 3.74-7.85 10.52-14.11 19.43-16.6l188.17-52.68 1.59-.45c14.55-4.07 29.64 3.09 36.39 16.36.01.03.01.06.02.09 1.19 2.1 2.21 4.31 2.88 6.69l23.13 81.24z" stroke="#06195f" layerName="Curve 231"/><path d="M1791.27 2940.35c.22.17.48.26.7.41l.2.15c14.22 10.53 34.1 7.78 44.4-6.12l1.62-2.18 115.94-156.52c4.21-5.69 5.15-12.76 4.64-19.55-.07-7.51-2.32-14.83-7.16-20.43-.66-.78-1.55-1.46-2.34-2.2-.65-.59-1.18-1.3-1.9-1.83l-.33-.25-69.41-51.41-.32-.24c-.54-.4-1.17-.61-1.73-.97-1.31-.83-2.63-1.64-4-2.26-1.15-.53-2.31-.89-3.5-1.27-1.05-.34-2.09-.64-3.17-.87-1.01-.21-2.01-.36-3.04-.46a30.56 30.56 0 0 0-5.49-.14c-.22.01-.43 0-.64.02-8.67.7-16.94 4.8-22.44 12.24l-116.31 157.02-.99 1.33c-8.99 12.14-7.68 28.8 2.31 39.82.02.03.06.04.08.06 1.53 1.86 3.24 3.6 5.22 5.08l67.66 50.57z" stroke="#06195f" layerName="Curve 136"/><path d="M1544.11 1965.72c-.09.26-.1.53-.18.8l-.08.23c-5.8 16.71 2.76 34.87 19.11 40.54l2.57.89 184.01 63.86c6.69 2.33 13.72 1.11 20.04-1.41 7.14-2.31 13.47-6.64 17.36-12.93.55-.87.93-1.92 1.4-2.89.37-.8.89-1.51 1.18-2.37l.13-.38 28.32-81.6.14-.38c.22-.64.23-1.3.41-1.94.4-1.5.78-3 .96-4.5.16-1.25.16-2.47.17-3.71 0-1.11-.02-2.2-.12-3.29a31.45 31.45 0 0 0-.47-3.04 31.85 31.85 0 0 0-1.5-5.28c-.09-.2-.14-.41-.22-.61-3.26-8.06-9.64-14.72-18.39-17.76l-184.6-64.07-1.56-.54c-14.27-4.95-29.78 1.28-37.32 14.11-.01.03-.01.06-.03.09-1.32 2.02-2.47 4.16-3.28 6.5l-28.05 79.68z" stroke="#06195f" layerName="Curve 137"/><path d="M2859.54 2955.94c-.22.16-.49.24-.72.39l-.2.15c-14.49 10.14-34.29 6.87-44.22-7.3l-1.56-2.23-111.72-159.55c-4.06-5.8-4.82-12.89-4.12-19.67.27-7.5 2.71-14.76 7.69-20.22.69-.77 1.59-1.43 2.4-2.14.67-.58 1.21-1.27 1.95-1.79l.34-.23 70.75-49.55.33-.23c.55-.39 1.19-.58 1.76-.92 1.33-.8 2.67-1.57 4.06-2.16 1.15-.49 2.33-.83 3.52-1.17 1.07-.31 2.12-.59 3.19-.79 1.02-.18 2.03-.3 3.06-.38 1.84-.16 3.67-.15 5.49.01.22.02.43.01.64.04 8.65.93 16.8 5.25 22.11 12.83l112.09 160.06.95 1.36c8.66 12.37 6.91 28.99-3.38 39.75-.02.02-.05.03-.07.05-1.58 1.82-3.33 3.52-5.36 4.94l-68.98 48.75z" stroke="#06195f" layerName="Curve 176"/><path d="M2308.47 1425.44c.28 0 .54.09.81.1l.25.01c17.69.18 31.89 14.37 31.7 31.67l-.02 2.72-2.05 194.77c-.07 7.08-3.58 13.29-8.09 18.39-4.59 5.94-10.81 10.43-18.04 11.97-1 .22-2.12.23-3.19.34-.88.08-1.73.32-2.63.31h-.4l-86.37-.91h-.41c-.67-.01-1.3-.22-1.97-.27-1.54-.13-3.08-.28-4.55-.61-1.23-.27-2.38-.69-3.55-1.1-1.05-.37-2.06-.75-3.05-1.22-.94-.45-1.83-.93-2.71-1.47-1.59-.94-3.07-2.01-4.46-3.2-.16-.14-.34-.26-.5-.41-6.49-5.79-10.6-14.05-10.51-23.3l2.05-195.39.02-1.66c.16-15.1 11.26-27.6 25.88-30.36.03 0 .07.01.1 0 2.34-.55 4.75-.91 7.22-.89l84.47.51z" stroke="#06195f" layerName="Curve 245"/><path d="M3141.22 2003.1c.07.27.06.54.13.81l.06.24c4.77 17.03-4.88 34.63-21.54 39.29l-2.62.74-187.57 52.51c-6.82 1.91-13.76.27-19.92-2.63-6.99-2.74-13.03-7.46-16.53-13.97-.5-.9-.82-1.97-1.22-2.97-.32-.82-.8-1.56-1.04-2.43l-.11-.39-23.29-83.18-.11-.39c-.18-.65-.15-1.31-.29-1.96-.3-1.52-.59-3.04-.69-4.55-.08-1.26 0-2.47.07-3.72.06-1.1.14-2.18.32-3.27.16-1.02.38-2.01.65-3 .46-1.79 1.07-3.52 1.82-5.19.1-.19.16-.39.26-.59 3.74-7.85 10.52-14.11 19.43-16.6l188.17-52.68 1.6-.45c14.54-4.07 29.64 3.09 36.38 16.36.01.03.01.06.02.09 1.2 2.1 2.22 4.31 2.88 6.69l23.14 81.24z" stroke="#06195f" layerName="Curve 232"/><path d="M1927.76 3041.46c.23.17.49.25.71.41l.2.15c14.22 10.53 34.1 7.78 44.4-6.12l1.62-2.19 115.93-156.52c4.22-5.68 5.16-12.75 4.64-19.54-.06-7.51-2.31-14.84-7.15-20.43-.66-.79-1.55-1.46-2.34-2.2-.65-.59-1.18-1.3-1.9-1.84l-.33-.24-69.41-51.41-.32-.24c-.54-.4-1.17-.61-1.73-.97-1.31-.83-2.63-1.64-4-2.27-1.15-.52-2.31-.88-3.5-1.26-1.05-.34-2.1-.65-3.17-.87-1.01-.21-2.01-.36-3.04-.47-1.84-.2-3.66-.25-5.49-.14-.22.02-.43.01-.65.03-8.66.7-16.93 4.8-22.44 12.24l-116.31 157.02-.98 1.33c-8.99 12.13-7.68 28.79 2.31 39.82.02.02.06.04.08.06 1.53 1.86 3.23 3.6 5.22 5.07l52.53 39.18 15.12 11.4z" stroke="#06195f" layerName="Curve 139"/><path d="M1488.41 2126.19c-.09.26-.09.54-.17.8l-.09.24c-5.8 16.71 2.77 34.86 19.11 40.54l2.57.89 184.02 63.86c6.68 2.32 13.71 1.11 20.04-1.41 7.14-2.31 13.46-6.65 17.35-12.93.55-.87.94-1.92 1.4-2.89.37-.8.89-1.52 1.19-2.37l.13-.38 28.32-81.6.13-.39c.22-.63.23-1.3.41-1.94.4-1.49.78-3 .97-4.49.16-1.25.15-2.47.16-3.72.01-1.1-.01-2.19-.12-3.28-.1-1.03-.25-2.03-.46-3.04-.36-1.82-.86-3.57-1.51-5.29-.08-.2-.13-.4-.22-.6-3.26-8.06-9.64-14.73-18.38-17.76l-184.6-64.07-1.57-.54c-14.27-4.95-29.77 1.27-37.31 14.11-.02.02-.02.06-.03.08-1.32 2.02-2.47 4.17-3.29 6.51l-21.69 61.83-6.36 17.84z" stroke="#06195f" layerName="Curve 140"/><path d="M2720.4 3053.38c-.23.16-.49.24-.72.39l-.2.14c-14.49 10.15-34.3 6.87-44.22-7.3l-1.56-2.22-111.73-159.56c-4.06-5.79-4.81-12.89-4.11-19.66.26-7.5 2.71-14.77 7.69-20.23.68-.77 1.59-1.42 2.4-2.13.67-.58 1.21-1.27 1.95-1.79l.33-.23 70.75-49.55.34-.23c.55-.39 1.18-.58 1.75-.93 1.33-.79 2.67-1.57 4.06-2.15 1.16-.5 2.34-.83 3.53-1.18 1.06-.31 2.11-.58 3.19-.78 1.02-.18 2.02-.31 3.05-.38 1.85-.16 3.67-.16 5.5 0 .21.03.43.02.64.05 8.65.93 16.8 5.25 22.11 12.83l112.08 160.06.95 1.36c8.67 12.37 6.91 28.99-3.37 39.74-.02.03-.05.04-.08.06-1.58 1.82-3.33 3.51-5.35 4.93l-53.56 37.77-15.42 10.99z" stroke="#06195f" layerName="Curve 177"/><path d="M2478.33 1427.22c.28.01.54.09.81.1l.25.01c17.69.18 31.88 14.38 31.7 31.67l-.03 2.72-2.04 194.77c-.07 7.08-3.59 13.29-8.1 18.39-4.58 5.94-10.8 10.43-18.03 11.97-1 .22-2.12.23-3.19.34-.88.08-1.73.32-2.63.31h-.41l-86.37-.9-.4-.01c-.68-.01-1.3-.22-1.97-.27-1.54-.13-3.08-.28-4.56-.61-1.22-.27-2.37-.69-3.55-1.1-1.04-.37-2.06-.75-3.05-1.22-.93-.45-1.82-.93-2.7-1.47-1.59-.94-3.07-2.01-4.47-3.2-.16-.14-.33-.26-.49-.41-6.49-5.79-10.61-14.05-10.51-23.3l2.05-195.39.02-1.66c.16-15.1 11.25-27.59 25.88-30.36.03 0 .06.01.09.01 2.35-.56 4.76-.92 7.23-.9l65.53.47 18.94.04z" stroke="#06195f" layerName="Curve 246"/><path d="M3187.01 2166.68c.08.26.07.54.13.81l.07.24c4.77 17.03-4.89 34.63-21.55 39.29l-2.62.73-187.56 52.52c-6.82 1.91-13.76.27-19.92-2.64-6.99-2.74-13.03-7.45-16.53-13.96-.5-.9-.82-1.97-1.23-2.97-.32-.82-.79-1.57-1.03-2.44l-.11-.39-23.29-83.17-.11-.39c-.18-.65-.15-1.32-.29-1.97-.31-1.51-.6-3.04-.69-4.54-.08-1.26 0-2.48.06-3.72.07-1.11.15-2.19.32-3.27.17-1.02.38-2.01.65-3.01.47-1.79 1.07-3.51 1.83-5.18.09-.19.16-.4.26-.59 3.74-7.85 10.52-14.11 19.43-16.6l188.17-52.69 1.59-.44c14.55-4.07 29.64 3.09 36.38 16.36.02.02.02.06.03.09 1.19 2.09 2.21 4.31 2.88 6.69l17.88 63.04 5.25 18.2z" stroke="#06195f" layerName="Curve 219"/><path d="M1630.94 3153.27c.23.17.49.25.71.41l.2.15c14.22 10.53 34.1 7.78 44.4-6.12l1.62-2.19L1793.8 2989c4.22-5.68 5.16-12.75 4.64-19.54-.06-7.51-2.31-14.84-7.15-20.43-.66-.78-1.55-1.46-2.34-2.2-.65-.59-1.18-1.3-1.9-1.84l-.33-.24-69.41-51.41-.32-.24c-.54-.4-1.17-.61-1.73-.97-1.31-.83-2.63-1.64-4-2.27-1.15-.52-2.31-.88-3.5-1.26-1.05-.34-2.1-.65-3.17-.87-1.01-.21-2.01-.36-3.04-.46-1.84-.21-3.66-.26-5.49-.15-.22.02-.43.01-.65.03-8.66.7-16.93 4.8-22.44 12.24l-116.3 157.02-.99 1.33c-8.99 12.14-7.68 28.79 2.31 39.82.02.03.06.04.08.06 1.53 1.86 3.23 3.6 5.22 5.07l67.65 50.58z" stroke="#06195f" layerName="Curve 142"/><path d="M1293.01 1876.35c-.09.26-.09.54-.18.8l-.08.24c-5.8 16.71 2.77 34.86 19.11 40.53l2.57.89 184.01 63.87c6.69 2.32 13.72 1.11 20.04-1.41 7.14-2.31 13.47-6.65 17.36-12.94.55-.86.93-1.91 1.4-2.88.37-.81.89-1.52 1.18-2.37l.14-.38 28.32-81.6.13-.39c.22-.64.23-1.3.41-1.94.4-1.5.78-3 .96-4.5.16-1.24.16-2.46.17-3.71 0-1.11-.02-2.19-.12-3.28-.11-1.03-.26-2.03-.47-3.04-.35-1.82-.85-3.57-1.5-5.29-.09-.2-.14-.4-.22-.6-3.26-8.07-9.64-14.73-18.38-17.76l-184.61-64.07-1.56-.54c-14.27-4.96-29.78 1.27-37.32 14.1-.01.03-.01.07-.03.09-1.32 2.02-2.47 4.17-3.28 6.5l-28.05 79.68z" stroke="#06195f" layerName="Curve 143"/><path d="M3014.14 3173.06c-.23.16-.49.24-.72.39l-.21.14c-14.49 10.15-34.29 6.87-44.21-7.3l-1.56-2.23-111.73-159.55c-4.06-5.8-4.82-12.89-4.12-19.66.27-7.5 2.71-14.77 7.7-20.23.68-.77 1.58-1.43 2.39-2.14.67-.58 1.22-1.27 1.96-1.78l.33-.24 70.75-49.54.33-.24c.56-.38 1.19-.57 1.76-.92 1.33-.79 2.67-1.57 4.06-2.16 1.16-.49 2.33-.82 3.53-1.17 1.06-.31 2.11-.59 3.19-.78 1.02-.18 2.02-.31 3.05-.39 1.84-.15 3.67-.15 5.5.01.21.02.42.02.64.04 8.64.94 16.8 5.25 22.1 12.83l112.09 160.07.95 1.35c8.66 12.37 6.91 28.99-3.37 39.75-.02.02-.06.03-.08.05-1.58 1.83-3.33 3.52-5.36 4.94l-68.97 48.76z" stroke="#06195f" layerName="Curve 178"/><path d="M2309.17 1158.92c.28 0 .54.09.81.1h.25c17.69.19 31.88 14.38 31.7 31.68l-.03 2.72-2.04 194.77c-.07 7.07-3.59 13.28-8.1 18.38-4.58 5.94-10.8 10.43-18.03 11.97-1 .23-2.12.23-3.19.34-.88.08-1.73.33-2.63.32l-.41-.01-86.37-.9-.4-.01c-.68 0-1.3-.22-1.97-.27-1.54-.13-3.08-.27-4.55-.61-1.23-.27-2.38-.68-3.56-1.1-1.04-.36-2.06-.75-3.05-1.22-.93-.44-1.82-.92-2.7-1.46a32.22 32.22 0 0 1-4.47-3.21c-.16-.14-.33-.26-.49-.41-6.49-5.79-10.61-14.04-10.51-23.3l2.05-195.39.02-1.66c.16-15.1 11.25-27.59 25.88-30.35.03-.01.06 0 .09 0 2.35-.56 4.76-.92 7.23-.9l84.47.52z" stroke="#06195f" layerName="Curve 247"/><path d="M3397.3 1929.23c.08.26.06.54.13.81l.07.24c4.77 17.03-4.89 34.63-21.55 39.29l-2.62.74-187.57 52.51c-6.81 1.91-13.75.27-19.91-2.64-6.99-2.73-13.04-7.45-16.54-13.96-.49-.9-.81-1.97-1.22-2.97-.32-.82-.79-1.57-1.04-2.43l-.1-.4-23.29-83.17-.11-.39c-.18-.65-.15-1.32-.29-1.97-.31-1.51-.6-3.04-.69-4.54-.08-1.26-.01-2.48.06-3.72.06-1.11.15-2.19.32-3.27.17-1.02.38-2.01.65-3 .47-1.8 1.07-3.52 1.83-5.19.09-.19.16-.4.25-.59 3.75-7.85 10.53-14.11 19.44-16.6l188.17-52.69 1.59-.44c14.55-4.07 29.64 3.09 36.38 16.36.02.02.02.06.03.09 1.19 2.09 2.21 4.31 2.88 6.69l23.13 81.24z" stroke="#06195f" layerName="Curve 233"/><path d="M1769.13 3255.63c.22.16.48.25.71.41l.2.14c14.21 10.53 34.09 7.79 44.39-6.12l1.62-2.18 115.94-156.52c4.21-5.69 5.15-12.76 4.64-19.55-.07-7.5-2.32-14.83-7.16-20.42-.66-.79-1.54-1.47-2.33-2.2-.66-.6-1.18-1.3-1.91-1.84l-.33-.24-69.4-51.41-.33-.25c-.54-.4-1.17-.6-1.73-.97-1.31-.83-2.63-1.64-4-2.26-1.15-.53-2.31-.89-3.5-1.27-1.05-.34-2.09-.64-3.16-.87-1.02-.2-2.02-.36-3.04-.46-1.84-.21-3.67-.25-5.5-.14-.22.02-.43 0-.64.03-8.67.7-16.94 4.8-22.44 12.23l-116.31 157.02-.99 1.33c-8.99 12.14-7.68 28.8 2.32 39.83.02.02.05.03.07.05 1.53 1.87 3.24 3.61 5.22 5.08l52.53 39.18 15.13 11.4z" stroke="#06195f" layerName="Curve 145"/><path d="M1236.63 2038.81c-.09.26-.1.53-.18.8l-.08.23c-5.8 16.71 2.76 34.87 19.11 40.54l2.57.89 184.01 63.87c6.69 2.32 13.71 1.1 20.04-1.42 7.14-2.31 13.46-6.64 17.35-12.93.56-.87.94-1.91 1.4-2.89.38-.8.89-1.51 1.19-2.36l.13-.39 28.32-81.6.14-.38c.22-.64.23-1.3.41-1.94.4-1.5.78-3 .96-4.5.16-1.25.16-2.47.16-3.71.01-1.11-.01-2.2-.11-3.29-.11-1.02-.26-2.02-.47-3.04a30.94 30.94 0 0 0-1.51-5.28c-.08-.2-.13-.41-.22-.61-3.26-8.06-9.64-14.72-18.38-17.76l-184.6-64.06-1.57-.55c-14.26-4.95-29.77 1.28-37.31 14.11-.01.03-.01.06-.03.09-1.32 2.02-2.47 4.16-3.28 6.5l-21.69 61.84-6.36 17.84z" stroke="#06195f" layerName="Curve 146"/><path d="M2873.28 3271.7c-.23.15-.49.23-.72.39l-.21.14c-14.49 10.14-34.29 6.87-44.21-7.3l-1.56-2.23-111.73-159.55c-4.06-5.8-4.82-12.89-4.12-19.67.27-7.5 2.71-14.76 7.7-20.22.68-.77 1.58-1.43 2.39-2.14.67-.58 1.22-1.27 1.96-1.79l.33-.23 70.75-49.54.33-.24c.56-.38 1.19-.57 1.76-.92 1.33-.8 2.67-1.57 4.06-2.16 1.16-.49 2.33-.82 3.53-1.17 1.06-.31 2.11-.59 3.19-.79 1.02-.18 2.02-.3 3.05-.38 1.84-.15 3.67-.15 5.5.01.21.02.42.01.64.04 8.64.93 16.8 5.25 22.1 12.83l112.09 160.06.95 1.36c8.66 12.37 6.91 28.99-3.37 39.75-.02.02-.06.03-.08.05-1.58 1.82-3.33 3.52-5.36 4.94l-53.55 37.77-15.42 10.99z" stroke="#06195f" layerName="Curve 179"/><path d="M2481.12 1160.72c.28 0 .54.09.81.1h.25c17.69.19 31.89 14.38 31.71 31.68l-.03 2.72-2.04 194.77c-.08 7.08-3.59 13.28-8.1 18.38-4.59 5.95-10.81 10.43-18.04 11.97-1 .23-2.12.24-3.19.34-.88.08-1.72.33-2.63.32h-.4l-86.37-.91h-.41c-.67-.01-1.3-.23-1.97-.27-1.54-.13-3.08-.28-4.55-.61-1.23-.28-2.38-.69-3.55-1.1-1.05-.37-2.06-.76-3.05-1.22-.94-.45-1.83-.93-2.71-1.47-1.59-.95-3.07-2.01-4.46-3.2-.16-.15-.34-.27-.5-.41-6.49-5.8-10.6-14.05-10.51-23.3l2.05-195.4.02-1.66c.16-15.1 11.26-27.59 25.88-30.35.03-.01.07.01.1 0 2.34-.56 4.75-.92 7.22-.89l65.53.47 18.94.04z" stroke="#06195f" layerName="Curve 248"/><path d="M3443.66 2094.82c.08.27.07.54.13.81l.07.24c4.77 17.04-4.89 34.63-21.55 39.3l-2.62.73-187.56 52.51c-6.82 1.91-13.76.27-19.92-2.63-6.99-2.74-13.03-7.45-16.53-13.97-.5-.9-.82-1.97-1.22-2.96-.33-.83-.8-1.57-1.04-2.44l-.11-.39-23.29-83.18-.11-.39c-.18-.65-.15-1.31-.29-1.96-.31-1.52-.6-3.04-.69-4.55-.08-1.25 0-2.47.06-3.71.07-1.11.15-2.19.32-3.27.17-1.02.38-2.01.65-3.01.47-1.79 1.07-3.51 1.83-5.18.09-.2.16-.4.26-.59 3.74-7.85 10.52-14.11 19.43-16.61l188.17-52.68 1.59-.45c14.55-4.07 29.64 3.09 36.39 16.36.01.03.01.07.02.09 1.19 2.1 2.21 4.31 2.88 6.69l17.88 63.05 5.25 18.19z" stroke="#06195f" layerName="Curve 234"/><path d="M1610.55 3469.71c.22.17.48.25.71.41l.2.15c14.22 10.53 34.1 7.78 44.4-6.12l1.61-2.19 115.94-156.52c4.22-5.68 5.16-12.75 4.64-19.54-.07-7.51-2.32-14.84-7.15-20.43-.66-.79-1.55-1.47-2.34-2.2-.65-.59-1.18-1.3-1.9-1.84l-.33-.24-69.41-51.41-.33-.24c-.54-.4-1.17-.61-1.73-.97-1.3-.83-2.62-1.65-4-2.27-1.14-.52-2.31-.89-3.49-1.26-1.06-.34-2.1-.65-3.17-.87-1.01-.21-2.01-.36-3.04-.47-1.84-.2-3.67-.25-5.5-.14-.21.02-.42.01-.64.03-8.67.7-16.93 4.8-22.44 12.23l-116.31 157.03-.98 1.33c-8.99 12.13-7.68 28.79 2.31 39.82.02.02.05.03.07.06 1.54 1.86 3.24 3.6 5.23 5.07l52.53 39.18 15.12 11.4z" stroke="#06195f" layerName="Curve 148"/><path d="M984.939 1951.45c-.091.27-.096.54-.178.8l-.082.24c-5.8 16.71 2.764 34.86 19.111 40.54l2.57.89 184.01 63.86c6.69 2.32 13.71 1.11 20.04-1.41 7.14-2.31 13.46-6.65 17.36-12.93.55-.87.93-1.92 1.39-2.89.38-.8.89-1.51 1.19-2.37l.13-.38 28.32-81.6.14-.38c.22-.64.23-1.3.41-1.95.4-1.49.78-2.99.96-4.49.16-1.25.16-2.47.17-3.72 0-1.1-.02-2.19-.12-3.28-.11-1.03-.26-2.03-.47-3.04a30.94 30.94 0 0 0-1.51-5.28c-.08-.2-.13-.41-.22-.61-3.25-8.06-9.64-14.72-18.38-17.76l-184.6-64.07-1.57-.54c-14.26-4.95-29.77 1.28-37.31 14.11-.01.02-.01.06-.03.09-1.32 2.02-2.47 4.16-3.28 6.5l-21.695 61.84-6.356 17.83z" stroke="#06195f" layerName="Curve 149"/><path d="M3026.09 3489.93c-.22.16-.48.23-.71.39l-.21.14c-14.49 10.15-34.29 6.87-44.22-7.3l-1.56-2.23-111.72-159.55c-4.06-5.8-4.82-12.89-4.12-19.66.27-7.5 2.71-14.77 7.69-20.23.69-.77 1.59-1.43 2.4-2.14.67-.58 1.21-1.27 1.95-1.79l.34-.23 70.75-49.54.33-.24c.55-.38 1.19-.57 1.76-.92 1.33-.79 2.67-1.57 4.06-2.16 1.15-.49 2.33-.82 3.53-1.17 1.06-.31 2.11-.59 3.18-.78 1.02-.18 2.03-.31 3.06-.39 1.84-.15 3.67-.15 5.49.01.22.02.43.01.65.04 8.64.94 16.79 5.25 22.1 12.83l112.09 160.06.95 1.36c8.66 12.37 6.91 28.99-3.38 39.75-.02.02-.05.03-.07.05-1.58 1.82-3.33 3.52-5.36 4.94l-53.55 37.77-15.43 10.99z" stroke="#06195f" layerName="Curve 180"/><path d="M2483.91 894.315c.28.003.54.091.82.102l.25.003c17.68.185 31.88 14.378 31.7 31.678l-.03 2.718-2.04 194.774c-.08 7.07-3.59 13.28-8.1 18.38-4.59 5.94-10.8 10.43-18.03 11.97-1.01.23-2.12.23-3.2.34-.88.08-1.72.33-2.62.32l-.41-.01-86.37-.9-.41-.01c-.67 0-1.3-.22-1.96-.27-1.55-.13-3.09-.27-4.56-.61-1.23-.27-2.38-.68-3.55-1.1-1.05-.36-2.06-.75-3.05-1.22-.93-.44-1.82-.92-2.7-1.46-1.59-.95-3.08-2.01-4.47-3.21-.16-.14-.34-.26-.5-.41-6.48-5.79-10.6-14.04-10.5-23.3l2.05-195.392.01-1.656c.16-15.102 11.26-27.594 25.88-30.355.03-.006.07.006.1.001 2.34-.56 4.75-.919 7.23-.893l65.53.468 18.93.042z" stroke="#06195f" layerName="Curve 249"/><path d="M3700.22 2023c.07.26.06.54.12.8l.07.24c4.77 17.04-4.89 34.64-21.55 39.3l-2.61.73-187.57 52.52c-6.82 1.9-13.76.27-19.92-2.64-6.99-2.74-13.03-7.45-16.53-13.96-.5-.9-.82-1.97-1.22-2.97-.33-.83-.8-1.57-1.04-2.44l-.11-.39-23.29-83.17-.11-.4c-.18-.65-.15-1.31-.29-1.96-.31-1.52-.59-3.04-.69-4.54-.08-1.26 0-2.48.07-3.72.06-1.11.14-2.19.31-3.27.17-1.02.39-2.01.66-3.01.46-1.79 1.07-3.51 1.82-5.18.1-.2.16-.4.26-.59 3.74-7.85 10.52-14.11 19.43-16.61l188.17-52.68 1.59-.44c14.55-4.08 29.65 3.09 36.39 16.36.01.02.01.06.02.09 1.2 2.09 2.22 4.3 2.88 6.69l17.88 63.04 5.26 18.2z" stroke="#06195f" layerName="Curve 235"/><path d="M1121.68 3294.22c.04.28.17.52.22.79l.04.25c2.78 17.47 18.91 29.42 36 26.69l2.68-.42 192.35-30.68c6.99-1.11 12.61-5.5 17-10.71 5.2-5.41 8.72-12.22 9.18-19.6.08-1.02-.08-2.13-.13-3.21-.05-.88.07-1.75-.08-2.64l-.06-.4-13.6-85.3-.06-.4c-.11-.67-.42-1.26-.56-1.91-.36-1.5-.73-3.01-1.28-4.41-.45-1.18-1.02-2.25-1.61-3.35-.51-.98-1.04-1.93-1.65-2.84a29.81 29.81 0 0 0-1.85-2.46 32.437 32.437 0 0 0-3.82-3.95c-.17-.14-.31-.29-.48-.43-6.69-5.56-15.46-8.42-24.59-6.96l-192.97 30.77-1.64.26c-14.91 2.38-25.64 15.19-26.22 30.07 0 .03.02.06.02.09-.21 2.4-.21 4.84.18 7.28l12.93 83.47z" stroke="#193390" layerName="Curve 151"/><path d="M1006.31 1432.48c-.25.12-.44.32-.68.45l-.23.11c-15.835 7.88-22.422 26.84-14.717 42.33l1.211 2.43 86.756 174.4c3.15 6.33 9.02 10.39 15.3 13.01 6.72 3.35 14.27 4.68 21.45 2.91 1-.23 2.01-.72 3.02-1.09.83-.31 1.69-.45 2.5-.86l.37-.18 77.33-38.47.36-.18c.61-.3 1.08-.77 1.66-1.1 1.33-.79 2.65-1.59 3.83-2.53.99-.79 1.84-1.66 2.72-2.54.78-.79 1.52-1.58 2.21-2.43.64-.81 1.24-1.63 1.79-2.5 1.02-1.54 1.89-3.15 2.63-4.83.08-.2.19-.38.26-.58 3.32-8.04 3.42-17.27-.7-25.55l-87.03-174.96-.74-1.48c-6.72-13.52-22.16-19.93-36.52-16.04-.03.01-.06.04-.09.05-2.35.52-4.68 1.24-6.89 2.34l-75.8 37.29z" stroke="#193390" layerName="Curve 152"/><path d="M3519.47 3327.52c-.05.27-.19.51-.24.78l-.05.25c-3.25 17.39-19.69 28.91-36.69 25.73l-2.68-.5-191.46-35.79c-6.96-1.3-12.46-5.83-16.71-11.16-5.05-5.55-8.39-12.45-8.65-19.84-.05-1.02.13-2.12.21-3.2.08-.88-.02-1.75.15-2.64l.07-.4 15.87-84.91.07-.4c.13-.66.45-1.24.61-1.88.4-1.5.81-2.99 1.39-4.39.48-1.16 1.09-2.22 1.7-3.3.54-.97 1.1-1.9 1.73-2.79.6-.85 1.23-1.64 1.91-2.41 1.21-1.41 2.52-2.68 3.93-3.85.17-.13.32-.28.49-.41 6.83-5.39 15.68-8.01 24.77-6.31l192.08 35.9 1.63.3c14.85 2.78 25.22 15.87 25.41 30.76 0 .03-.02.06-.02.09.14 2.41.08 4.84-.37 7.27l-15.15 83.1z" stroke="#193390" layerName="Curve 181"/><path d="M1988.22 739.142c.2-.191.45-.31.65-.495l.18-.173c12.77-12.246 32.84-12.041 44.81.444l1.89 1.962 134.84 140.558c4.9 5.108 6.73 12.001 7.08 18.801.89 7.453-.42 15.008-4.5 21.168-.56.864-1.35 1.65-2.04 2.478-.58.673-1.01 1.44-1.66 2.065l-.29.281-62.33 59.796-.3.282c-.48.466-1.08.751-1.59 1.182-1.19.988-2.4 1.961-3.68 2.753-1.07.666-2.18 1.173-3.31 1.699-1 .469-2 .904-3.03 1.264-.98.333-1.95.613-2.96.844-1.8.438-3.6.716-5.43.838-.22.009-.43.049-.64.053-8.69.404-17.41-2.613-23.81-9.29l-135.28-141.01-1.15-1.195c-10.45-10.899-11.27-27.589-2.75-39.796.02-.025.05-.04.07-.065 1.28-2.042 2.75-3.985 4.54-5.697l60.69-58.747z" stroke="#193390" layerName="Curve 250"/><path d="M3710.56 1503.68c.24.14.42.35.66.49l.21.13c15.33 8.83 20.75 28.15 12.11 43.14l-1.36 2.36-97.23 168.78c-3.53 6.13-9.64 9.81-16.07 12.05-6.91 2.93-14.53 3.8-21.59 1.6-.98-.3-1.96-.84-2.94-1.27-.81-.36-1.67-.56-2.45-1.01l-.35-.21-74.85-43.11-.35-.21c-.58-.33-1.02-.83-1.58-1.2-1.28-.87-2.55-1.75-3.67-2.76-.94-.84-1.74-1.77-2.56-2.7-.73-.83-1.42-1.67-2.06-2.56-.59-.85-1.13-1.7-1.64-2.6-.92-1.61-1.69-3.26-2.32-4.98-.07-.21-.17-.4-.23-.6-2.82-8.23-2.36-17.45 2.26-25.46l97.55-169.32.82-1.43c7.54-13.09 23.34-18.54 37.44-13.78.03.01.05.04.08.05 2.32.66 4.6 1.53 6.74 2.76l73.38 41.84z" stroke="#193390" layerName="Curve 236"/><path d="M873.184 3271.61c4.112-8.04 3.602-7.6 2.768-15.3-.834-7.69-3.941-12.34-6.104-15.48-3.916-5.7-11.841-9.98-16.265-14.19-1.684-1.6-1.927-2.47-1.927-2.47s-.602-1.83-.04-2.91c1.125-2.16 3.49-2.31 3.49-2.31l2.591-.97 2.723-.55 13.955-2.6 192.355-30.67c6.99-1.11 13.69 1.31 19.48 4.9 6.63 3.52 12.09 8.9 14.82 15.77.4.95.59 2.05.88 3.09.22.85.61 1.64.75 2.53l.06.41 13.6 85.29.07.4c.1.67 0 1.32.06 1.99.13 1.54.25 3.09.16 4.59-.06 1.26-.27 2.46-.48 3.69-.19 1.09-.4 2.15-.69 3.21-.29.99-.61 1.95-1 2.91-.66 1.73-1.46 3.37-2.4 4.94-.12.18-.21.38-.33.56-4.62 7.37-12.06 12.81-21.2 14.27 0 0-141.593 22.53-145.458 22.56-2.959.02-2.323-3.69-5.744-9.31a2518.64 2518.64 0 0 1-7.94-13.17s-6.419-9.62-15.955-16.84c-9.536-7.21-10.586-8.43-21.702-12.11-11.115-3.68-23.461-2.81-23.461-2.81s-12.784-.1-15.427-2.97c-.492-.54-1.06-2.57 4.682-9.57 9.386-11.44 9.568-8.83 13.679-16.88z" stroke="#06195f" layerName="Curve 154"/><path d="M953.628 1188.58c8.906 1.52 8.331 1.17 15.427-1.93 7.096-3.09 10.599-7.45 12.957-10.45 4.269-5.44 5.985-14.28 8.674-19.76 1.023-2.09 1.784-2.58 1.784-2.58s1.564-1.12 2.765-.91c2.402.43 3.248 2.64 3.248 2.64l1.697 2.19 1.34 2.43 6.65 12.54 86.75 174.4c3.16 6.33 2.85 13.46 1.15 20.05-1.38 7.38-4.88 14.2-10.62 18.86-.79.66-1.78 1.17-2.68 1.76-.75.47-1.39 1.07-2.2 1.47l-.37.19-77.33 38.47-.36.18c-.61.3-1.26.39-1.88.65-1.43.59-2.871 1.16-4.334 1.53-1.218.31-2.429.47-3.662.63-1.098.15-2.177.27-3.271.3-1.035.03-2.045.01-3.075-.07a31.92 31.92 0 0 1-5.435-.82c-.209-.06-.42-.08-.628-.14-8.412-2.21-15.831-7.69-19.952-15.98 0 0-63.814-128.38-65.001-132.06-.909-2.82 2.826-3.32 7.166-8.27 4.34-4.94 10.195-11.51 10.195-11.51s7.261-9 11.3-20.26c4.039-11.25 4.889-12.62 5.076-24.33.187-11.7-4.325-23.23-4.325-23.23s-3.733-12.23-1.778-15.61c.365-.63 2.131-1.77 10.526 1.61 13.722 5.54 11.29 6.49 20.196 8.01z" stroke="#06195f" layerName="Curve 155"/><path d="M3768.48 3311.54c-3.9-8.15-3.4-7.7-2.36-15.37 1.04-7.67 4.27-12.23 6.51-15.32 4.07-5.59 12.1-9.66 16.64-13.74 1.72-1.56 1.99-2.43 1.99-2.43s.65-1.81.12-2.9c-1.07-2.2-3.43-2.41-3.43-2.41l-2.56-1.03-2.71-.63-13.88-2.96-191.47-35.79c-6.96-1.3-13.73.95-19.6 4.38-6.72 3.34-12.33 8.57-15.24 15.37-.42.94-.64 2.03-.96 3.06-.25.85-.65 1.63-.82 2.52l-.07.4-15.87 84.9-.08.4c-.12.67-.03 1.32-.11 1.98-.17 1.54-.33 3.08-.29 4.59.03 1.26.22 2.47.39 3.7.16 1.1.34 2.17.61 3.23.26 1 .55 1.97.91 2.93a31.92 31.92 0 0 0 2.28 5.01c.11.18.19.38.3.56 4.43 7.49 11.73 13.13 20.82 14.83 0 0 140.94 26.29 144.81 26.43 2.95.1 2.42-3.62 5.99-9.15 3.57-5.53 8.28-12.95 8.28-12.95s6.68-9.45 16.4-16.41c9.73-6.96 10.81-8.15 22.02-11.53 11.21-3.38 23.53-2.19 23.53-2.19s12.78.25 15.5-2.56c.5-.52 1.12-2.53-4.43-9.68-9.08-11.69-9.33-9.09-13.22-17.24z" stroke="#06195f" layerName="Curve 182"/><path d="M1776.45 607.176c-1.58 8.895-1.72 8.235-7.03 13.868-5.31 5.633-10.59 7.46-14.21 8.665-6.56 2.18-15.47.809-21.53 1.49-2.31.259-3.03.808-3.03.808s-1.58 1.094-1.79 2.296c-.41 2.405 1.39 3.949 1.39 3.949l1.48 2.336 1.84 2.083 9.56 10.494 134.84 140.559c4.9 5.108 11.71 7.224 18.49 7.854 7.41 1.192 15.02.205 21.34-3.624.89-.521 1.7-1.281 2.56-1.936.7-.545 1.48-.945 2.13-1.569l.3-.282 62.33-59.796.29-.281c.48-.467.79-1.053 1.25-1.544 1.03-1.149 2.05-2.313 2.9-3.564.71-1.039 1.26-2.128 1.83-3.233.51-.983.99-1.958 1.39-2.977.38-.965.7-1.924.97-2.92.51-1.778.86-3.57 1.06-5.392.02-.216.07-.423.08-.64.76-8.663-1.89-17.497-8.29-24.174 0 0-99.29-103.428-102.35-105.788-2.35-1.806-4.08 1.539-10.2 3.954-6.12 2.415-14.28 5.708-14.28 5.708s-10.93 3.794-22.89 3.793c-11.96-.001-13.53.338-24.61-3.44s-20.4-11.918-20.4-11.918-10.25-7.643-14.1-6.945c-.71.131-2.39 1.405-2.04 10.451.58 14.787 2.3 12.819.72 21.715z" stroke="#06195f" layerName="Curve 251"/><path d="M3778.03 1263.46c-8.98.97-8.38.65-15.28-2.87-6.89-3.52-10.12-8.08-12.29-11.23-3.93-5.69-5.1-14.62-7.45-20.25-.9-2.14-1.63-2.68-1.63-2.68s-1.49-1.21-2.7-1.08c-2.43.28-3.4 2.44-3.4 2.44l-1.83 2.08-1.49 2.34-7.4 12.12-97.24 168.77c-3.53 6.13-3.66 13.27-2.37 19.95.93 7.45 4.01 14.47 9.45 19.47.75.71 1.71 1.28 2.58 1.92.71.52 1.32 1.16 2.1 1.61l.35.2 74.84 43.12.35.2c.59.34 1.24.47 1.84.77 1.39.67 2.79 1.33 4.23 1.79 1.2.39 2.4.62 3.62.86 1.08.21 2.15.39 3.24.5 1.03.09 2.04.12 3.08.11 1.85-.01 3.67-.17 5.47-.49.21-.04.43-.06.64-.1 8.53-1.69 16.27-6.71 20.89-14.73 0 0 71.53-124.25 72.94-127.85 1.08-2.76-2.62-3.49-6.65-8.69-4.03-5.2-9.47-12.11-9.47-12.11s-6.7-9.43-10.05-20.91c-3.34-11.48-4.11-12.9-3.58-24.59.53-11.7 5.74-22.93 5.74-22.93s4.47-11.97 2.72-15.47c-.32-.65-2.01-1.9-10.6.97-14.04 4.69-11.67 5.78-20.65 6.76z" stroke="#06195f" layerName="Curve 237"/><path d="M905.665 3476.62c6.345 6.43 5.725 6.17 7.249 13.76s-.039 12.95-1.153 16.6c-2.016 6.62-8.283 13.09-11.235 18.43-1.123 2.03-1.093 2.94-1.093 2.94s-.023 1.92.84 2.78c1.725 1.73 4.024 1.16 4.024 1.16l2.762.14 2.763-.3 14.089-1.72 192.649-28.72c7-1.04 12.67-5.38 17.1-10.54 5.26-5.36 8.85-12.13 9.39-19.51.09-1.02-.06-2.13-.1-3.2-.04-.89.09-1.76-.05-2.65l-.06-.4-12.73-85.43-.06-.41c-.1-.66-.4-1.25-.54-1.91-.34-1.51-.7-3.01-1.23-4.43-.44-1.18-1-2.26-1.57-3.36-.51-.99-1.03-1.94-1.63-2.86-.57-.86-1.17-1.68-1.82-2.47a32.552 32.552 0 0 0-3.79-3.99c-.16-.14-.3-.3-.47-.43-6.63-5.64-15.37-8.58-24.52-7.22 0 0-141.801 21.19-145.496 22.32-2.83.87-1.104 4.22-2.673 10.6-1.568 6.39-3.602 14.95-3.602 14.95s-3.222 11.11-10.14 20.87c-6.918 9.75-7.551 11.23-17.042 18.09-9.491 6.85-21.523 9.75-21.523 9.75s-12.162 3.94-13.815 7.48c-.308.66-.238 2.77 7.346 7.71 12.397 8.08 11.785 5.54 18.13 11.97z" stroke="#06195f" layerName="Curve 157"/><path d="M767.694 1280.84c-4.241 7.98-4.171 7.31-10.959 11.03-6.788 3.73-12.374 3.84-16.193 3.87-6.916.05-14.962-4-20.941-5.22-2.276-.46-3.131-.16-3.131-.16s-1.843.55-2.408 1.63c-1.131 2.16.104 4.18.104 4.18l.688 2.68 1.107 2.55 5.86 12.93 84.977 175.27c3.088 6.37 8.915 10.48 15.171 13.17 6.682 3.41 14.22 4.82 21.416 3.12 1.003-.22 2.016-.69 3.032-1.05.831-.3 1.7-.44 2.512-.84l.365-.17 77.722-37.69.366-.17c.606-.3 1.081-.76 1.662-1.09 1.34-.77 2.672-1.56 3.86-2.49.995-.77 1.857-1.64 2.742-2.51.788-.78 1.542-1.56 2.238-2.41.653-.8 1.253-1.62 1.819-2.48a31.696 31.696 0 0 0 2.672-4.8c.084-.2.193-.38.273-.59 3.396-8 3.594-17.22-.443-25.55 0 0-62.591-128.99-64.777-132.18-1.673-2.44-4.354.21-10.919.62-6.566.42-15.344 1.03-15.344 1.03s-11.561.25-22.939-3.44c-11.379-3.68-12.979-3.85-22.358-10.86-9.378-7-15.739-17.62-15.739-17.62s-7.395-10.43-11.266-10.95c-.722-.1-2.71.6-5.161 9.32-4.006 14.24-1.766 12.9-6.008 20.87z" stroke="#06195f" layerName="Curve 158"/><path d="M3730.55 3515.61c-6.52 6.26-5.89 6.01-7.62 13.56-1.72 7.54-.3 12.95.71 16.63 1.84 6.66 7.94 13.3 10.74 18.72 1.07 2.06 1.02 2.96 1.02 2.96s-.03 1.93-.91 2.77c-1.77 1.67-4.06 1.04-4.06 1.04l-2.76.07-2.76-.37-14.03-2.1-191.82-33.84c-6.97-1.23-12.52-5.71-16.82-10.99-5.11-5.5-8.52-12.36-8.86-19.75-.06-1.03.12-2.13.19-3.2.06-.89-.04-1.76.11-2.65l.07-.4 15.01-85.06.07-.4c.12-.66.43-1.25.59-1.9.38-1.5.77-2.99 1.34-4.39.47-1.17 1.07-2.23 1.67-3.33a31.6 31.6 0 0 1 1.7-2.8c.59-.85 1.21-1.65 1.89-2.43 1.19-1.42 2.48-2.71 3.89-3.89.17-.13.31-.29.49-.42 6.77-5.45 15.59-8.16 24.7-6.56 0 0 141.18 24.96 144.85 26.19 2.8.94.99 4.24 2.38 10.67 1.4 6.43 3.21 15.04 3.21 15.04s2.92 11.19 9.58 21.13c6.65 9.93 7.25 11.43 16.55 18.54 9.31 7.1 21.26 10.32 21.26 10.32s12.05 4.26 13.61 7.84c.29.67.16 2.77-7.55 7.51-12.61 7.75-11.93 5.23-18.44 11.49z" stroke="#06195f" layerName="Curve 183"/><path d="M1926.09 463.331c8.94-1.298 8.29-1.458 14.08-6.59 5.8-5.132 7.79-10.352 9.11-13.937 2.38-6.491 1.29-15.432 2.16-21.472.33-2.298.91-3.002.91-3.002s1.14-1.548 2.35-1.715c2.41-.334 3.9 1.511 3.9 1.511l2.29 1.553 2.02 1.902 10.19 9.883 136.27 139.181c4.95 5.058 6.85 11.932 7.27 18.728.96 7.444-.27 15.012-4.29 21.214-.55.869-1.33 1.662-2.02 2.497-.56.68-.99 1.451-1.63 2.082l-.29.285-61.72 60.426-.29.284c-.48.472-1.08.763-1.58 1.199-1.19 1-2.38 1.985-3.66 2.79-1.06.676-2.16 1.195-3.29 1.733-.99.478-1.98.924-3.01 1.294-.98.344-1.95.633-2.95.875-1.8.455-3.6.752-5.43.892-.21.012-.42.053-.64.06-8.68.492-17.43-2.437-23.9-9.048 0 0-100.27-102.48-102.53-105.614-1.73-2.4 1.66-4.028 4.27-10.069 2.61-6.041 6.15-14.094 6.15-14.094s4.14-10.799 4.51-22.754c.38-11.954.76-13.516-2.67-24.71-3.42-11.195-11.27-20.768-11.27-20.768s-7.32-10.482-6.5-14.302c.15-.712 1.48-2.348 10.51-1.711 14.76 1.04 12.74 2.695 21.68 1.397z" stroke="#06195f" layerName="Curve 252"/><path d="M3957.99 1366.9c3.75 8.22 3.72 7.54 10.26 11.67 6.55 4.13 12.12 4.59 15.93 4.85 6.9.47 15.18-3.08 21.22-3.93 2.3-.33 3.14.03 3.14.03s1.8.66 2.3 1.77c1 2.23-.36 4.17-.36 4.17l-.85 2.64-1.26 2.47-6.64 12.55-95.51 169.75c-3.48 6.17-9.54 9.92-15.95 12.22-6.88 3-14.49 3.95-21.57 1.81-.99-.28-1.97-.81-2.96-1.23-.81-.36-1.67-.55-2.46-.99l-.35-.2-75.28-42.35-.35-.2c-.59-.33-1.03-.82-1.59-1.19-1.29-.85-2.58-1.72-3.7-2.72-.95-.83-1.76-1.75-2.59-2.68a31.02 31.02 0 0 1-2.08-2.53c-.61-.85-1.16-1.69-1.67-2.59-.94-1.6-1.73-3.24-2.37-4.96-.08-.2-.17-.39-.24-.6-2.9-8.2-2.54-17.41 2-25.48 0 0 70.35-124.92 72.73-127.97 1.81-2.34 4.33.47 10.86 1.28 6.53.81 15.25 1.97 15.25 1.97s11.52.95 23.11-2.04c11.58-2.98 13.19-3.05 22.97-9.47 9.79-6.42 16.79-16.63 16.79-16.63s8.02-9.96 11.91-10.24c.73-.05 2.67.76 4.59 9.61 3.13 14.46.97 12.99 4.72 21.21z" stroke="#06195f" layerName="Curve 238"/><path d="M1148.43 3461.97c.04.27.17.52.22.79l.04.25c2.78 17.46 18.91 29.42 35.99 26.69l2.69-.43 192.35-30.67c6.99-1.11 12.61-5.5 16.99-10.71 5.21-5.41 8.73-12.22 9.19-19.6.08-1.03-.08-2.13-.13-3.21-.05-.88.07-1.75-.08-2.64l-.06-.41-13.6-85.29-.07-.4c-.1-.67-.41-1.26-.55-1.91-.36-1.51-.73-3.01-1.28-4.42-.45-1.17-1.03-2.25-1.61-3.35-.51-.98-1.04-1.92-1.65-2.83a29.81 29.81 0 0 0-1.85-2.46 31.107 31.107 0 0 0-3.83-3.95c-.16-.14-.31-.29-.48-.43-6.68-5.56-15.45-8.42-24.59-6.96l-192.96 30.77-1.64.26c-14.92 2.38-25.64 15.19-26.22 30.06 0 .03.02.07.02.1-.21 2.4-.21 4.83.18 7.28l10.1 64.75 2.83 18.72z" stroke="#06195f" layerName="Curve 160"/><path d="M854.224 1508.14c-.248.12-.443.31-.686.44l-.224.11c-15.838 7.88-22.424 26.84-14.719 42.33l1.211 2.44 86.753 174.39c3.152 6.34 9.021 10.39 15.304 13.02 6.717 3.35 14.268 4.67 21.447 2.9 1.001-.23 2.008-.71 3.021-1.08.827-.31 1.695-.46 2.503-.86l.364-.18 77.332-38.47.37-.18c.6-.3 1.07-.77 1.65-1.1 1.33-.79 2.65-1.6 3.83-2.54.99-.78 1.84-1.65 2.72-2.54.78-.78 1.52-1.57 2.21-2.42.65-.81 1.24-1.63 1.8-2.5 1.01-1.55 1.89-3.15 2.62-4.83.08-.2.19-.39.27-.59 3.31-8.04 3.41-17.26-.71-25.55l-87.028-174.95-.738-1.48c-6.726-13.53-22.161-19.93-36.527-16.04-.029.01-.054.03-.084.04-2.355.52-4.68 1.25-6.894 2.35l-58.77 28.99-17.025 8.3z" stroke="#06195f" layerName="Curve 161"/><path d="M3488.26 3494.5c-.05.27-.18.51-.24.78l-.05.24c-3.25 17.39-19.69 28.91-36.69 25.73l-2.67-.5-191.47-35.78c-6.96-1.3-12.46-5.84-16.7-11.17-5.06-5.54-8.4-12.44-8.66-19.83-.05-1.03.14-2.13.22-3.2.07-.88-.03-1.76.14-2.65l.07-.4 15.87-84.9.08-.4c.12-.66.44-1.24.6-1.89.4-1.5.81-2.99 1.4-4.38.48-1.16 1.08-2.22 1.69-3.31.55-.96 1.1-1.89 1.73-2.79.61-.84 1.23-1.63 1.92-2.41 1.2-1.4 2.51-2.68 3.93-3.84.17-.13.31-.29.49-.42 6.83-5.38 15.67-8.01 24.77-6.31l192.08 35.9 1.62.31c14.85 2.77 25.23 15.87 25.41 30.75 0 .03-.02.06-.02.09.15 2.41.08 4.85-.37 7.28l-11.82 64.45-3.33 18.65z" stroke="#06195f" layerName="Curve 184"/><path d="M2110.8 621.546c.2-.192.45-.311.65-.495l.18-.173c12.77-12.246 32.84-12.041 44.81.443l1.89 1.962 134.84 140.559c4.9 5.107 6.73 12 7.08 18.8.89 7.453-.42 15.009-4.5 21.169-.56.863-1.36 1.649-2.05 2.477-.57.674-1 1.441-1.65 2.065l-.29.282-62.33 59.796-.3.281c-.48.467-1.08.752-1.59 1.183-1.19.988-2.4 1.961-3.68 2.752-1.07.666-2.18 1.174-3.31 1.7-1 .468-2 .904-3.03 1.263-.98.334-1.95.614-2.96.845-1.8.437-3.6.716-5.43.838-.22.009-.43.048-.64.053-8.69.403-17.41-2.614-23.81-9.291L2049.4 727.046l-1.15-1.195c-10.45-10.899-11.27-27.59-2.75-39.797.02-.025.05-.04.07-.065 1.28-2.041 2.75-3.984 4.53-5.696l47.14-45.524 13.56-13.223z" stroke="#06195f" layerName="Curve 253"/><path d="M3857.75 1588.48c.24.14.42.34.65.49l.22.12c15.33 8.83 20.74 28.16 12.11 43.15l-1.36 2.36-97.23 168.77c-3.54 6.14-9.64 9.82-16.07 12.06-6.91 2.93-14.53 3.8-21.59 1.59-.98-.29-1.96-.83-2.95-1.26-.8-.36-1.66-.56-2.44-1.02l-.36-.2-74.84-43.12-.35-.2c-.58-.34-1.03-.83-1.58-1.2-1.28-.87-2.56-1.75-3.67-2.76-.94-.84-1.74-1.77-2.56-2.7-.73-.84-1.43-1.67-2.06-2.56-.6-.85-1.14-1.7-1.64-2.6-.92-1.61-1.69-3.26-2.32-4.98-.07-.21-.17-.4-.23-.61-2.82-8.22-2.36-17.44 2.26-25.45l97.54-169.32.83-1.44c7.54-13.08 23.34-18.53 37.44-13.77.03.01.05.04.08.05 2.32.66 4.6 1.53 6.74 2.76l56.89 32.52 16.49 9.32z" stroke="#06195f" layerName="Curve 239"/><path d="M1714 3732.95c-.27.04-.54-.01-.81.02l-.25.04c-17.52 2.43-33.66-9.51-36.04-26.64l-.38-2.69-26.8-192.93c-.97-7.01 1.59-13.67 5.29-19.38 3.66-6.56 9.14-11.92 16.07-14.51.96-.37 2.06-.54 3.1-.81.86-.21 1.66-.58 2.56-.7l.4-.06 85.55-11.88.4-.06c.67-.09 1.32.03 1.99-.02 1.54-.1 3.09-.18 4.6-.07 1.25.09 2.45.33 3.67.56 1.09.21 2.15.44 3.2.76.99.3 1.94.64 2.89 1.05 1.71.7 3.34 1.53 4.89 2.5.18.12.37.21.55.34 7.27 4.76 12.57 12.32 13.84 21.48l26.88 193.55.23 1.64c2.08 14.96-7.05 28.96-21.1 33.85-.03.01-.07.01-.1.02-2.23.9-4.56 1.61-7.01 1.95l-83.62 11.99z" stroke="#193390" layerName="Curve 163"/><path d="M764.642 2128.85c-.118-.25-.152-.53-.263-.78l-.106-.22c-7.559-16-.991-34.96 14.651-42.36l2.458-1.16 176.103-83.23c6.4-3.02 13.517-2.57 20.076-.74 7.348 1.53 14.099 5.16 18.642 10.99.642.8 1.135 1.81 1.701 2.72.457.76 1.047 1.41 1.433 2.23l.173.37 36.91 78.09.17.37c.29.61.37 1.26.62 1.88.56 1.45 1.1 2.9 1.44 4.37.29 1.22.42 2.44.56 3.67.13 1.1.22 2.19.24 3.28 0 1.03-.04 2.04-.14 3.07-.16 1.85-.47 3.65-.93 5.42-.06.21-.09.42-.16.63-2.37 8.36-8 15.67-16.37 19.62l-176.666 83.5-1.498.71c-13.655 6.45-29.74 1.92-38.611-10.03-.018-.02-.022-.06-.04-.08-1.528-1.87-2.904-3.88-3.96-6.11l-36.433-76.21z" stroke="#193390" layerName="Curve 164"/><path d="M2915.67 3750.32c.27.05.54 0 .82.04l.24.04c17.45 2.9 33.9-8.6 36.74-25.67l.44-2.68 31.93-192.15c1.16-6.98-1.22-13.7-4.77-19.51-3.48-6.65-8.82-12.15-15.67-14.93-.95-.4-2.05-.6-3.08-.89-.86-.23-1.65-.62-2.54-.77l-.4-.07-85.2-14.16-.4-.06c-.67-.11-1.32-.01-1.99-.08-1.54-.14-3.08-.26-4.59-.19-1.26.05-2.46.26-3.69.46-1.09.18-2.16.39-3.22.67-.99.28-1.95.6-2.91.98-1.73.65-3.38 1.44-4.96 2.37-.18.12-.38.2-.56.32-7.4 4.57-12.89 11.98-14.4 21.11l-32.04 192.76-.27 1.64c-2.47 14.9 6.28 29.13 20.2 34.4.03.01.06 0 .09.01 2.21.96 4.52 1.74 6.96 2.14l83.27 14.22z" stroke="#193390" layerName="Curve 185"/><path d="M2725.29 746.881c-.2-.196-.44-.32-.64-.509l-.18-.177c-12.5-12.516-32.57-12.74-44.81-.515l-1.92 1.921-137.82 137.642c-5.01 5.002-6.99 11.854-7.48 18.646-1.05 7.432.09 15.013 4.05 21.26.54.875 1.31 1.677 1.98 2.52.56.685.98 1.462 1.62 2.1l.28.288 61.04 61.115.29.288c.47.477 1.07.775 1.57 1.216 1.17 1.013 2.35 2.012 3.62 2.831 1.05.688 2.15 1.22 3.27 1.77.99.489 1.97.946 3 1.328.97.354 1.94.655 2.94.908 1.79.475 3.59.797 5.41.957.22.01.43.05.64.06 8.68.59 17.46-2.238 24.01-8.776l138.26-138.084 1.17-1.17c10.69-10.673 11.86-27.342 3.61-39.728-.02-.026-.05-.041-.07-.067-1.24-2.068-2.67-4.042-4.42-5.792l-59.42-60.032z" stroke="#193390" layerName="Curve 254"/><path d="M3909.27 2213.5c.14-.24.19-.51.31-.75l.12-.22c8.52-15.5 3.13-34.84-12.03-43.17l-2.39-1.31-170.69-93.82c-6.2-3.41-13.34-3.4-20-1.97-7.42 1.07-14.38 4.29-19.27 9.83-.69.77-1.25 1.74-1.87 2.62-.5.73-1.13 1.34-1.56 2.13l-.2.36-41.6 75.69-.2.36c-.33.59-.45 1.24-.73 1.84-.65 1.41-1.27 2.83-1.7 4.27-.37 1.21-.57 2.41-.79 3.64-.19 1.09-.36 2.16-.43 3.25-.07 1.03-.09 2.05-.05 3.08.04 1.85.24 3.66.59 5.46.05.21.07.42.12.63 1.86 8.5 7.03 16.14 15.14 20.59l171.24 94.13 1.46.8c13.23 7.27 29.56 3.73 39.15-7.65.02-.03.02-.06.04-.08 1.64-1.77 3.14-3.7 4.33-5.86l41.01-73.85z" stroke="#193390" layerName="Curve 240"/><path d="M1808.15 3964.03c6.5-6.28 6.22-5.66 13.83-7.11 7.6-1.45 12.95.17 16.59 1.32 6.6 2.08 13 8.41 18.31 11.41 2.03 1.15 2.93 1.13 2.93 1.13s1.93.04 2.8-.81c1.74-1.71 1.19-4.02 1.19-4.02l.17-2.76-.27-2.76-1.59-14.11-26.8-192.93c-.97-7.01-5.25-12.72-10.37-17.2-5.3-5.31-12.04-8.97-19.41-9.58-1.02-.1-2.13.04-3.21.07-.88.03-1.75-.11-2.64.02l-.41.05-85.55 11.89-.4.05c-.67.1-1.26.39-1.92.52-1.51.33-3.02.67-4.44 1.19-1.18.42-2.27.98-3.38 1.54-.99.5-1.95 1.01-2.87 1.6-.87.56-1.69 1.15-2.5 1.8a32.379 32.379 0 0 0-4.02 3.74c-.14.17-.3.3-.44.47-5.7 6.57-8.73 15.28-7.46 24.45 0 0 19.78 142 20.87 145.71.84 2.83 4.21 1.14 10.58 2.77 6.38 1.64 14.92 3.75 14.92 3.75s11.07 3.34 20.76 10.35c9.68 7.02 11.16 7.66 17.92 17.22 6.76 9.56 9.54 21.62 9.54 21.62s3.82 12.2 7.34 13.89c.65.31 2.76.27 7.78-7.27 8.2-12.32 5.66-11.73 12.15-18.01z" stroke="#06195f" layerName="Curve 166"/><path d="M572.258 2287.75c7.935 4.32 7.264 4.24 10.919 11.07 3.655 6.82 3.711 12.41 3.702 16.23-.016 6.91-4.143 14.92-5.423 20.88-.488 2.28-.196 3.13-.196 3.13s.534 1.85 1.61 2.43c2.15 1.15 4.185-.06 4.185-.06l2.685-.67 2.559-1.08 12.987-5.73 176.103-83.23c6.4-3.02 10.569-8.81 13.319-15.04 3.484-6.65 4.962-14.17 3.34-21.38-.213-1.01-.674-2.02-1.023-3.04-.296-.84-.426-1.71-.811-2.52l-.174-.37-36.908-78.09-.174-.37c-.288-.61-.745-1.09-1.067-1.67-.761-1.35-1.54-2.69-2.458-3.89-.76-1-1.617-1.87-2.483-2.77-.77-.79-1.544-1.55-2.382-2.26a28.856 28.856 0 0 0-2.462-1.84 31.306 31.306 0 0 0-4.776-2.72c-.199-.09-.38-.2-.581-.28-7.972-3.47-17.192-3.76-25.558.19 0 0-129.603 61.31-132.813 63.46-2.458 1.65.164 4.35.511 10.92s.878 15.36.878 15.36.129 11.56-3.67 22.9c-3.799 11.34-3.978 12.94-11.079 22.25-7.101 9.31-17.78 15.56-17.78 15.56s-10.502 7.29-11.06 11.16c-.104.72.572 2.72 9.262 5.25 14.205 4.15 12.884 1.9 20.818 6.22z" stroke="#06195f" layerName="Curve 167"/><path d="M2815.4 3978.81c-6.33-6.45-6.07-5.83-13.63-7.48-7.57-1.65-12.95-.18-16.63.88-6.64 1.9-13.22 8.06-18.61 10.92-2.05 1.09-2.95 1.05-2.95 1.05s-1.93-.01-2.77-.89c-1.7-1.75-1.09-4.04-1.09-4.04l-.1-2.77.34-2.75 1.97-14.06 31.93-192.15c1.16-6.98 5.58-12.57 10.82-16.92 5.45-5.17 12.28-8.65 19.66-9.06 1.03-.07 2.13.1 3.21.15.88.06 1.75-.05 2.64.1l.4.06 85.21 14.16.4.07c.67.11 1.25.42 1.9.57 1.51.36 3.01.74 4.41 1.3 1.17.46 2.24 1.04 3.34 1.63.98.53 1.92 1.06 2.83 1.68.85.58 1.66 1.19 2.44 1.86 1.43 1.18 2.73 2.46 3.92 3.85.14.17.3.31.43.48 5.52 6.72 8.32 15.51 6.81 24.64 0 0-23.55 141.42-24.75 145.1-.91 2.81-4.23 1.03-10.65 2.49-6.41 1.47-15.01 3.36-15.01 3.36s-11.15 3.03-21.02 9.79c-9.88 6.75-11.36 7.36-18.38 16.73-7.01 9.38-10.11 21.36-10.11 21.36s-4.14 12.1-7.71 13.69c-.66.3-2.77.19-7.58-7.47-7.87-12.53-5.35-11.88-11.67-18.33z" stroke="#06195f" layerName="Curve 186"/><path d="M2939.83 619.474c1.39 8.928 1.54 8.27 6.73 14.016 5.19 5.745 10.43 7.685 14.03 8.966 6.51 2.321 15.44 1.141 21.49 1.951 2.3.308 3.01.873 3.01.873s1.56 1.127 1.74 2.333c.36 2.413-1.47 3.919-1.47 3.919l-1.53 2.303-1.88 2.044-9.78 10.287-137.83 137.642c-5 5.002-11.86 6.972-18.65 7.457-7.43 1.034-15.01-.116-21.25-4.079-.88-.54-1.68-1.318-2.52-1.991-.69-.56-1.46-.976-2.1-1.614l-.29-.288-61.03-61.116-.29-.287c-.48-.477-.77-1.069-1.22-1.57-1.01-1.171-2-2.357-2.82-3.625-.69-1.055-1.22-2.155-1.77-3.272-.49-.994-.94-1.979-1.32-3.006a33.41 33.41 0 0 1-.91-2.94 32.325 32.325 0 0 1-.94-5.414c-.02-.216-.06-.424-.07-.641-.58-8.677 2.27-17.453 8.81-23.992 0 0 101.48-101.28 104.59-103.573 2.38-1.757 4.05 1.625 10.11 4.171 6.07 2.545 14.16 6.011 14.16 6.011s10.84 4.027 22.79 4.282c11.96.255 13.53.627 24.69-2.912 11.16-3.54 20.65-11.479 20.65-11.479s10.41-7.423 14.24-6.642c.71.146 2.36 1.456 1.81 10.492-.89 14.771-2.56 12.767-1.18 21.694z" stroke="#06195f" layerName="Curve 255"/><path d="M4091.6 2383.85c-8.18 3.83-7.51 3.79-11.57 10.38-4.07 6.59-4.47 12.16-4.69 15.98-.41 6.9 3.23 15.14 4.14 21.18.35 2.29 0 3.13 0 3.13s-.64 1.81-1.75 2.32c-2.22 1.02-4.18-.31-4.18-.31l-2.63-.83-2.49-1.23-12.62-6.52-170.69-93.82c-6.2-3.41-10.01-9.44-12.38-15.83-3.07-6.84-4.08-14.44-2.02-21.54.27-.99.79-1.98 1.2-2.98.35-.81.53-1.67.97-2.46l.19-.36 41.61-75.69.19-.36c.33-.59.81-1.04 1.17-1.6.84-1.3 1.7-2.59 2.69-3.73.82-.96 1.73-1.77 2.65-2.61.82-.75 1.63-1.46 2.51-2.11.84-.62 1.68-1.17 2.57-1.69 1.59-.96 3.23-1.76 4.94-2.43.2-.07.39-.17.59-.24 8.17-2.98 17.39-2.71 25.5 1.75 0 0 125.62 69.1 128.69 71.45 2.36 1.79-.43 4.33-1.17 10.87-.75 6.54-1.82 15.27-1.82 15.27s-.83 11.54 2.27 23.09 3.18 13.16 9.7 22.88c6.52 9.72 16.8 16.62 16.8 16.62s10.03 7.92 10.35 11.81c.06.73-.73 2.68-9.56 4.68-14.43 3.27-12.98 1.1-21.16 4.93z" stroke="#06195f" layerName="Curve 241"/><path d="M1602.59 3992.8c-8-4.2-7.57-3.68-15.27-2.92-7.71.75-12.38 3.81-15.55 5.95-5.74 3.86-10.1 11.74-14.35 16.12-1.61 1.67-2.49 1.9-2.49 1.9s-1.83.59-2.91.01c-2.15-1.14-2.27-3.51-2.27-3.51l-.95-2.6-.52-2.73-2.46-13.98-28.76-192.65c-1.04-7 1.45-13.68 5.1-19.43 3.58-6.59 9.01-12 15.91-14.67.95-.38 2.06-.56 3.1-.84.86-.22 1.65-.59 2.54-.73l.41-.06 85.42-12.75.41-.06c.66-.1 1.31.02 1.98-.04 1.54-.12 3.09-.22 4.6-.12 1.25.08 2.45.3 3.68.53 1.08.19 2.15.41 3.2.72.99.29 1.95.63 2.9 1.02 1.72.68 3.35 1.5 4.92 2.46.18.11.37.2.55.32 7.32 4.7 12.69 12.2 14.06 21.35 0 0 21.12 141.81 21.11 145.67 0 2.96-3.71 2.29-9.36 5.65-5.65 3.37-13.25 7.81-13.25 7.81s-9.68 6.33-16.99 15.79c-7.32 9.46-8.55 10.5-12.33 21.58-3.79 11.08-3.05 23.43-3.05 23.43s-.22 12.78-3.12 15.4c-.54.49-2.58 1.03-9.52-4.78-11.35-9.5-8.74-9.65-16.74-13.84z" stroke="#06195f" layerName="Curve 169"/><path d="M483.378 2100.17c1.608-8.89 1.248-8.31-1.777-15.44-3.026-7.13-7.343-10.67-10.324-13.06-5.399-4.32-14.223-6.13-19.674-8.87-2.074-1.05-2.56-1.81-2.56-1.81s-1.105-1.58-.88-2.77c.451-2.4 2.673-3.23 2.673-3.23l2.199-1.67 2.447-1.32 12.607-6.52 175.248-85.02c6.369-3.09 13.491-2.71 20.068-.95 7.363 1.46 14.15 5.02 18.753 10.81.65.8 1.153 1.79 1.728 2.7.464.76 1.061 1.4 1.455 2.22l.178.36 37.699 77.71.177.37c.295.61.382 1.26.635 1.88.573 1.44 1.128 2.88 1.485 4.35.305 1.22.446 2.43.599 3.67.137 1.1.245 2.18.268 3.27a30.09 30.09 0 0 1-.106 3.08 31.835 31.835 0 0 1-.876 5.42c-.058.21-.085.42-.147.63-2.291 8.39-7.846 15.75-16.171 19.79 0 0-129.015 62.54-132.705 63.69-2.826.88-3.291-2.86-8.192-7.25-4.9-4.39-11.41-10.31-11.41-10.31s-8.928-7.35-20.145-11.5c-11.217-4.15-12.575-5.01-24.279-5.32-11.703-.3-23.272 4.1-23.272 4.1s-12.264 3.61-15.625 1.62c-.627-.37-1.758-2.15 1.714-10.51 5.674-13.67 6.602-11.23 8.21-20.12z" stroke="#06195f" layerName="Curve 170"/><path d="M3020.12 4013.04c8.12-3.98 7.66-3.48 15.35-2.51 7.68.96 12.27 4.14 15.38 6.36 5.64 4.01 9.78 12 13.91 16.5 1.57 1.71 2.44 1.97 2.44 1.97s1.82.63 2.91.08c2.18-1.09 2.37-3.45 2.37-3.45l1.01-2.57.6-2.71 2.83-13.91 33.88-191.82c1.23-6.97-1.08-13.71-4.58-19.56-3.41-6.68-8.69-12.24-15.52-15.08-.94-.41-2.04-.62-3.07-.93-.85-.24-1.64-.64-2.53-.79l-.4-.07-85.05-15.03-.4-.07c-.67-.12-1.32-.02-1.99-.09-1.54-.16-3.08-.3-4.59-.24-1.25.04-2.46.23-3.69.42-1.09.17-2.16.36-3.22.64-1 .27-1.96.57-2.93.94-1.74.64-3.39 1.41-4.98 2.33-.18.11-.38.19-.56.31-7.45 4.5-13.01 11.85-14.62 20.96 0 0-24.89 141.2-24.99 145.06-.08 2.96 3.65 2.39 9.21 5.9a2049 2049 0 0 0 13.04 8.16s9.51 6.58 16.56 16.23c7.06 9.66 8.26 10.73 11.75 21.91 3.5 11.17 2.43 23.5 2.43 23.5s-.12 12.78 2.71 15.47c.53.51 2.54 1.11 9.64-4.52 11.59-9.19 8.99-9.42 17.1-13.39z" stroke="#06195f" layerName="Curve 187"/><path d="M2793.3 472.462c-8.91-1.489-8.25-1.635-13.93-6.89-5.69-5.254-7.57-10.516-8.81-14.128-2.25-6.541-.96-15.456-1.7-21.513-.29-2.306-.84-3.022-.84-3.022s-1.11-1.571-2.32-1.764c-2.41-.386-3.93 1.427-3.93 1.427l-2.32 1.504-2.07 1.858-10.4 9.663-139.21 136.234c-5.06 4.951-7.1 11.783-7.67 18.569-1.12 7.421-.05 15.014 3.84 21.3.53.88 1.3 1.691 1.96 2.54.55.691.96 1.472 1.59 2.117l.28.29 60.42 61.733.28.29c.47.482 1.06.786 1.56 1.232 1.16 1.025 2.33 2.036 3.59 2.868 1.05.699 2.14 1.241 3.25 1.803.99.499 1.97.966 2.99 1.358.97.364 1.93.674 2.93.938 1.78.493 3.58.829 5.4 1.008.22.016.43.062.64.073 8.67.678 17.48-2.063 24.1-8.534 0 0 102.43-100.312 104.76-103.397 1.78-2.362-1.58-4.063-4.05-10.158-2.48-6.095-5.85-14.222-5.85-14.222s-3.91-10.886-4.02-22.845c-.12-11.96-.48-13.53 3.19-24.648 3.67-11.119 11.71-20.522 11.71-20.522s7.55-10.323 6.81-14.159c-.14-.716-1.43-2.38-10.47-1.936-14.78.724-12.8 2.422-21.71.933z" stroke="#06195f" layerName="Curve 256"/><path d="M4191.76 2202.05c-1.06-8.97-.73-8.38 2.72-15.31 3.46-6.92 7.98-10.2 11.1-12.4 5.65-3.99 14.57-5.25 20.18-7.65 2.14-.92 2.67-1.65 2.67-1.65s1.2-1.51 1.04-2.72c-.3-2.42-2.47-3.38-2.47-3.38l-2.09-1.81-2.36-1.46-12.19-7.28-169.73-95.55c-6.17-3.47-13.3-3.53-19.97-2.17-7.44 1-14.43 4.14-19.38 9.64-.7.75-1.26 1.72-1.89 2.59-.51.72-1.14 1.33-1.59 2.12l-.2.35-42.37 75.27-.2.35c-.33.59-.46 1.24-.75 1.84-.66 1.4-1.3 2.81-1.74 4.25-.38 1.2-.6 2.41-.83 3.63-.2 1.09-.37 2.16-.46 3.25-.08 1.03-.11 2.04-.08 3.08.02 1.85.2 3.66.54 5.47.04.21.06.42.11.63 1.77 8.51 6.87 16.2 14.93 20.74 0 0 124.96 70.3 128.57 71.67 2.77 1.05 3.46-2.65 8.62-6.74 5.16-4.08 12.02-9.59 12.02-9.59s9.36-6.79 20.81-10.25 12.85-4.24 24.55-3.82c11.7.41 22.98 5.5 22.98 5.5s12.02 4.36 15.5 2.58c.65-.34 1.89-2.04-1.07-10.6-4.83-13.99-5.9-11.61-6.97-20.58z" stroke="#06195f" layerName="Curve 242"/><path d="M1545.75 3756.33c-.27.03-.54-.02-.82.01l-.24.04c-17.52 2.43-33.66-9.5-36.04-26.64l-.38-2.69-26.8-192.93c-.97-7.01 1.59-13.67 5.29-19.38 3.66-6.56 9.14-11.91 16.07-14.51.95-.37 2.06-.54 3.1-.81.86-.21 1.66-.57 2.56-.7l.4-.05 85.55-11.89.4-.05c.67-.1 1.32.02 1.99-.03 1.54-.1 3.09-.18 4.59-.07 1.26.09 2.46.33 3.68.56 1.09.21 2.15.44 3.2.76.99.3 1.94.65 2.89 1.05 1.71.7 3.33 1.53 4.89 2.51.18.11.37.21.55.33 7.27 4.77 12.56 12.32 13.84 21.49l26.88 193.54.23 1.65c2.08 14.95-7.05 28.95-21.1 33.85-.03.01-.07 0-.1.01-2.23.9-4.56 1.61-7.01 1.95l-64.88 9.23-18.74 2.77z" stroke="#06195f" layerName="Curve 172"/><path d="M692.057 1975.27c-.118-.25-.152-.52-.262-.78l-.107-.22c-7.558-15.99-.99-34.96 14.651-42.35l2.458-1.17 176.104-83.23c6.399-3.02 13.517-2.57 20.076-.74 7.348 1.53 14.099 5.16 18.642 10.99.642.81 1.135 1.81 1.701 2.73.456.75 1.047 1.41 1.432 2.22l.174.37 36.908 78.09.174.37c.288.61.368 1.27.615 1.89.558 1.44 1.098 2.89 1.441 4.36.292 1.23.421 2.44.562 3.68.125 1.1.222 2.18.235 3.27.005 1.04-.038 2.05-.138 3.07a31.85 31.85 0 0 1-.931 5.42c-.06.21-.089.42-.154.63-2.375 8.36-8.005 15.67-16.37 19.62l-176.669 83.5-1.497.71c-13.655 6.45-29.74 1.92-38.611-10.03-.019-.02-.022-.06-.04-.08-1.528-1.87-2.904-3.88-3.961-6.11l-28.199-59.16-8.234-17.05z" stroke="#06195f" layerName="Curve 173"/><path d="M3083.24 3778.17c.27.04.54 0 .81.04l.25.04c17.45 2.9 33.9-8.61 36.74-25.67l.44-2.68 31.93-192.15c1.16-6.98-1.22-13.71-4.77-19.52-3.48-6.65-8.82-12.15-15.67-14.92-.95-.4-2.05-.6-3.08-.9-.86-.23-1.65-.62-2.54-.76l-.4-.07-85.21-14.16-.4-.07c-.66-.11-1.32 0-1.98-.07-1.54-.15-3.08-.27-4.59-.2-1.26.06-2.46.27-3.69.47-1.09.18-2.16.38-3.22.67-.99.28-1.95.59-2.91.97-1.74.65-3.38 1.44-4.96 2.38-.18.11-.38.2-.56.31-7.4 4.58-12.89 11.99-14.41 21.12l-32.03 192.76-.27 1.63c-2.47 14.9 6.28 29.14 20.2 34.4.03.02.06.01.09.02 2.21.96 4.52 1.73 6.96 2.14l64.61 10.96 18.66 3.26z" stroke="#06195f" layerName="Curve 188"/><path d="M2605.25 626.689c-.19-.195-.44-.319-.64-.508l-.17-.177c-12.5-12.516-32.57-12.741-44.82-.515l-1.92 1.921-137.82 137.642c-5.01 5.002-6.99 11.854-7.48 18.645-1.04 7.432.1 15.014 4.05 21.26.54.875 1.32 1.678 1.99 2.52.56.686.97 1.462 1.61 2.101l.29.287 61.03 61.116.29.287c.48.477 1.07.775 1.57 1.217 1.17 1.013 2.35 2.012 3.62 2.831 1.05.688 2.15 1.219 3.27 1.769.99.49 1.98.947 3 1.328.98.355 1.94.655 2.94.908 1.79.476 3.59.793 5.42.954.21.014.42.057.64.067 8.67.589 17.45-2.241 24-8.78l138.26-138.083 1.17-1.171c10.69-10.672 11.86-27.342 3.61-39.728-.02-.025-.05-.041-.07-.066-1.24-2.069-2.66-4.043-4.41-5.793l-46.15-46.522-13.28-13.51z" stroke="#06195f" layerName="Curve 257"/><path d="M3991.1 2064.64c.13-.24.18-.51.31-.75l.12-.22c8.52-15.5 3.12-34.84-12.04-43.17l-2.38-1.31-170.7-93.83c-6.2-3.41-13.33-3.39-19.99-1.96-7.43 1.07-14.39 4.29-19.28 9.83-.69.76-1.24 1.73-1.86 2.62-.51.72-1.14 1.34-1.57 2.13l-.2.36-41.6 75.69-.2.36c-.32.59-.44 1.24-.73 1.84-.64 1.41-1.27 2.83-1.7 4.27-.37 1.21-.57 2.41-.79 3.64-.19 1.09-.35 2.16-.43 3.25-.07 1.03-.09 2.04-.05 3.08.04 1.85.24 3.66.6 5.46.04.21.06.42.11.63 1.86 8.5 7.04 16.14 15.14 20.59l171.25 94.13 1.45.8c13.23 7.27 29.57 3.73 39.15-7.65.02-.03.03-.06.05-.08 1.63-1.77 3.13-3.7 4.32-5.86l31.76-57.33 9.26-16.52z" stroke="#06195f" layerName="Curve 243"/></g></svg>
