<svg stroke-miterlimit="10"
  style="fill-rule:nonzero;clip-rule:evenodd;stroke-linecap:round;stroke-linejoin:round"
  viewBox="0 0 1800 2880" xml:space="preserve" xmlns="http://www.w3.org/2000/svg"><g layerName="Layer Inner"><path d="M717.969 923.281a11.703 11.703 0 0 0-4.344 1.688c-5.464 3.482-7.045 10.724-3.563 16.187 5.582 8.765 11.78 17.065 18.782 24.75 22.738 24.958 51.946 42.714 82.281 56.934 28.604 13.41 58.523 23.78 88.156 34.63 18.835 6.89 37.646 13.95 55.844 22.41 4.315 2 8.66 3.91 13.125 5.56 17.419 6.43 35.63 10.55 52.75 17.81 4.73 2 9.39 4.26 13.72 7.03 5.26 3.37 10.13 7.57 12.78 13.34 2.87 6.22 14.92 16.35 21.13 13.48 6.21-2.87 4.24-17.67 1.37-23.88-6.45-13.89-18.75-22.91-32.19-29.47-13.6-6.64-28.23-10.96-42.654-15.41-8.027-2.47-16.114-4.91-23.875-8.15-2.863-1.2-5.641-2.57-8.469-3.85a496.229 496.229 0 0 0-16.156-6.9c-14.757-6.03-29.774-11.44-44.781-16.82-9.472-3.39-18.954-6.77-28.406-10.21-27.047-9.87-54.05-20.39-79.063-34.785-18.478-10.631-35.853-23.488-50-39.531-5.393-6.116-10.18-12.661-14.562-19.532-2.612-4.097-7.367-6.042-11.875-5.281z" fill="#0961cd" layerName="Curve 95"/><path d="M721.938 1608.69c-1.609.05-3.228.41-4.782 1.12-6.217 2.86-8.954 10.22-6.094 16.44 6.212 13.44 17.706 23.46 29.844 31.5 20.492 13.57 43.583 22.37 65.969 32.22 3.899 1.71 7.743 3.53 11.625 5.28 5.325 2.4 10.717 4.7 16.125 6.91 14.648 5.97 29.533 11.3 44.437 16.59 32.557 11.56 65.611 22.59 96.282 38.69 21.943 11.52 42.706 25.79 59.156 44.5 5.37 6.11 10.16 12.64 14.53 19.5 3.48 5.46 10.72 7.07 16.19 3.59 5.46-3.48 7.07-10.75 3.59-16.22-5.56-8.73-11.75-16.98-18.72-24.65-22.46-24.73-51.32-42.35-81.371-56.35-45.132-21.03-93.45-34.06-138.875-54.37-3.35-1.5-6.629-3.08-9.969-4.6-4.55-2.07-9.16-4.05-13.75-6.03-15.468-6.66-31.068-13.26-45.563-21.9-6.259-3.74-12.383-7.86-17.718-12.85-3.751-3.51-7.101-7.45-9.25-12.15-2.146-4.67-6.83-7.37-11.656-7.22z" fill="#0961cd" layerName="Curve 94"/><path d="M933.982 806.187h83.428c15.85 0 28.71 12.575 28.71 28.087v190.816c0 15.51-12.86 28.09-28.71 28.09h-83.428c-15.857 0-28.711-12.58-28.711-28.09V834.274c0-15.512 12.854-28.087 28.711-28.087z" fill="#dbab38" stroke="#dbab38" stroke-linecap="square" stroke-linejoin="bevel" stroke-width="12.984" layerName="Rectangle 12"/><path d="m839.901 1943.99-83.424-.23c-15.857-.04-28.677-12.65-28.635-28.16l.514-190.82c.042-15.51 12.93-28.05 28.786-28.01l83.425.23c15.856.04 28.677 12.65 28.635 28.16l-.514 190.82c-.042 15.51-12.931 28.05-28.787 28.01z" fill="#dbab38" stroke="#dbab38" stroke-linecap="square" stroke-linejoin="bevel" stroke-width="12.984" layerName="Rectangle 24"/><path d="m1010.9 1944.45-81.975-.22c-15.58-.04-28.177-12.71-28.135-28.29l.517-191.66c.042-15.58 12.706-28.17 28.287-28.13l81.966.22c15.58.04 28.18 12.71 28.14 28.29l-.52 191.65c-.02 8.39-3.7 15.92-9.53 21.07-5 4.42-11.56 7.09-18.75 7.07z" fill="#dbab38" stroke="#dbab38" stroke-linecap="square" stroke-linejoin="bevel" stroke-width="12.984" layerName="Rectangle 25"/><path d="m1254.88 654.812 59.59 58.381c11.32 11.097 11.71 29.075.85 40.156l-133.53 136.305c-10.86 11.08-28.84 11.067-40.17-.03l-59.59-58.381c-11.33-11.097-11.71-29.075-.85-40.155l133.53-136.306c10.86-11.08 28.84-11.067 40.17.03z" fill="#e6c473" stroke="#e6c473" stroke-linecap="square" stroke-linejoin="bevel" stroke-width="12.984" layerName="Rectangle 14"/><path d="m518.601 2094.5-59.435-58.54c-11.297-11.13-11.631-29.11-.745-40.16l133.902-135.95c10.885-11.05 28.868-10.99 40.164.14l59.435 58.54c11.297 11.13 11.631 29.11.746 40.16l-133.903 135.94c-10.885 11.06-28.867 10.99-40.164-.13z" fill="#e6c473" stroke="#e6c473" stroke-linecap="square" stroke-linejoin="bevel" stroke-width="12.984" layerName="Rectangle 26"/><path d="m1134.23 536.614 58.55 57.364c11.13 10.903 11.31 28.764.41 39.894l-134.13 136.907c-10.9 11.129-28.76 11.313-39.89.409l-58.554-57.364c-11.129-10.903-11.312-28.764-.409-39.893l134.123-136.908c5.87-5.993 13.76-8.812 21.53-8.435a28.126 28.126 0 0 1 18.37 8.026z" fill="#dbab38" stroke="#dbab38" stroke-linecap="square" stroke-linejoin="bevel" stroke-width="12.984" layerName="Rectangle 15"/><path d="m638.931 2213.02-58.399-57.52c-11.1-10.94-11.235-28.8-.302-39.9l134.494-136.54c10.933-11.1 28.795-11.24 39.895-.3l58.399 57.52c11.1 10.93 11.235 28.79.302 39.89l-134.494 136.55c-5.888 5.98-13.785 8.77-21.554 8.37-6.657-.34-13.219-3.02-18.341-8.07z" fill="#dbab38" stroke="#dbab38" stroke-linecap="square" stroke-linejoin="bevel" stroke-width="12.984" layerName="Rectangle 27"/><path d="M1467.49 498.389c.76-6.628.84-3.8-11.21 4.835-11.14 7.988-31.75 14.575-51.12 11.861-23.27-3.262-32.61-11.516-38.48-12.303-2.73-.365-3.24 1.596-6.7 5.126l-92.84 94.522c-10.9 11.13-10.72 28.991.41 39.894l58.56 57.364c11.13 10.903 28.99 10.72 39.89-.409l137.92-141.229c1.17-1.191 9.82-8.269 8.08-7.631-3.7 1.351-7.81.157-8.38.204 0 0-14.48-1.349-22.58-5.277-8.09-3.928-9.8-10.434-9.8-10.434s-5.37-8.2-6.23-13.88c-.8-5.35.34-10.24.34-10.24s1.27-4.898 2.14-12.403z" fill="#bf8907" stroke="#bf8907" stroke-linecap="square" stroke-linejoin="bevel" stroke-width="12.984" layerName="Rectangle 16"/><path d="M305.568 2250.35c-.783 6.62-.854 3.79 11.218-4.81 11.165-7.96 31.796-14.49 51.151-11.72 23.263 3.32 32.585 11.6 38.453 12.4 2.726.38 3.241-1.58 6.71-5.1l93.09-94.27c10.934-11.1 10.799-28.97-.302-39.9l-58.398-57.52c-11.1-10.93-28.962-10.8-39.895.3l-138.302 140.86c-1.17 1.19-9.842 8.24-8.094 7.61 3.7-1.34 7.804-.14 8.38-.18 0 0 14.474 1.38 22.558 5.33s9.777 10.46 9.777 10.46 5.351 8.22 6.188 13.9c.787 5.35-.365 10.24-.365 10.24s-1.283 4.89-2.169 12.4z" fill="#bf8907" stroke="#bf8907" stroke-linecap="square" stroke-linejoin="bevel" stroke-width="12.984" layerName="Rectangle 28"/><path d="M1345.83 379.175c6.62-.834 3.79-.883-4.72 11.254-7.87 11.226-14.25 31.907-11.33 51.24 3.5 23.237 11.85 32.495 12.7 38.357.39 2.723-1.56 3.253-5.06 6.748l-93.55 93.812c-11.02 11.018-28.88 11.02-39.9.004L1146 522.634c-11.01-11.016-11.02-28.878 0-39.896l139.79-139.378c1.18-1.18 8.17-9.905 7.55-8.153-1.31 3.711-.08 7.805-.12 8.382 0 0 1.5 14.463 5.51 22.516 4.01 8.053 10.54 9.696 10.54 9.696s8.25 5.289 13.94 6.081c5.36.747 10.24-.443 10.24-.443s4.88-1.32 12.38-2.264z" fill="#bf8907" stroke="#bf8907" stroke-linecap="square" stroke-linejoin="bevel" stroke-width="12.984" layerName="Rectangle 17"/><path d="M426.907 2369.89c-6.622.81-3.794.87 4.749-11.24 7.902-11.21 14.331-31.87 11.468-51.21-3.441-23.25-11.765-32.53-12.597-38.39-.387-2.73 1.57-3.25 5.074-6.74l93.807-93.56c11.045-10.99 28.907-10.94 39.896.11l57.811 58.11c10.989 11.04 10.943 28.91-.103 39.89l-140.166 139c-1.182 1.18-8.194 9.89-7.569 8.14 1.322-3.71.097-7.81.14-8.38 0 0-1.461-14.47-5.45-22.54-3.99-8.06-10.509-9.72-10.509-9.72s-8.241-5.31-13.928-6.12c-5.356-.76-10.237.42-10.237.42s-4.888 1.3-12.386 2.23z" fill="#bf8907" stroke="#bf8907" stroke-linecap="square" stroke-linejoin="bevel" stroke-width="12.984" layerName="Rectangle 29"/><path d="m525.65 654.823-59.568 58.407c-11.322 11.102-11.696 29.08-.836 40.156L598.84 889.634c10.86 11.076 28.842 11.055 40.164-.047l59.568-58.407c11.322-11.101 11.696-29.079.836-40.155L565.814 654.777c-10.86-11.076-28.842-11.055-40.164.046z" fill="#e6c473" stroke="#e6c473" stroke-linecap="square" stroke-linejoin="bevel" stroke-width="12.984" layerName="Rectangle 18"/><path d="m1247.82 2096.45 59.73-58.25c11.35-11.07 11.77-29.04.94-40.15l-133.22-136.61c-10.83-11.1-28.82-11.13-40.17-.06l-59.72 58.25c-11.35 11.07-11.78 29.05-.95 40.15l133.23 136.61c10.83 11.1 28.81 11.13 40.16.06z" fill="#e6c473" stroke="#e6c473" stroke-linecap="square" stroke-linejoin="bevel" stroke-width="12.984" layerName="Rectangle 30"/><path d="m646.248 536.574-58.529 57.389c-11.125 10.908-11.3 28.769-.392 39.894l134.184 136.85c10.908 11.124 28.769 11.3 39.894.392l58.529-57.389c11.125-10.908 11.3-28.769.392-39.894l-134.184-136.85c-5.874-5.991-13.765-8.807-21.535-8.426-6.657.327-13.225 3-18.359 8.034z" fill="#dbab38" stroke="#dbab38" stroke-linecap="square" stroke-linejoin="bevel" stroke-width="12.984" layerName="Rectangle 19"/><path d="m1126.91 2214.38 58.68-57.24c11.15-10.87 11.38-28.73.5-39.89l-133.81-137.21c-10.88-11.15-28.74-11.38-39.9-.5l-58.681 57.23c-11.154 10.88-11.378 28.74-.5 39.89l133.811 137.22c5.86 6 13.75 8.84 21.52 8.48 6.65-.31 13.23-2.96 18.38-7.98z" fill="#dbab38" stroke="#dbab38" stroke-linecap="square" stroke-linejoin="bevel" stroke-width="12.984" layerName="Rectangle 31"/><path d="M312.97 498.492c-.768-6.628-.844-3.8 11.207 4.83 11.148 7.983 31.764 14.561 51.125 11.839 23.27-3.272 32.611-11.529 38.481-12.319 2.727-.367 3.238 1.594 6.698 5.123l92.877 94.482c10.908 11.125 10.732 28.986-.392 39.894l-58.53 57.389c-11.124 10.909-28.986 10.733-39.894-.392L276.56 558.169c-1.168-1.191-9.823-8.265-8.077-7.628 3.698 1.349 7.804.154 8.38.2 0 0 14.477-1.355 22.57-5.286 8.093-3.931 9.801-10.438 9.801-10.438s5.37-8.202 6.219-13.883c.799-5.35-.342-10.24-.342-10.24s-1.271-4.897-2.141-12.402z" fill="#bf8907" stroke="#bf8907" stroke-linecap="square" stroke-linejoin="bevel" stroke-width="12.984" layerName="Rectangle 20"/><path d="M1460.08 2253.36c.75 6.63.84 3.8-11.19-4.87-11.13-8.01-31.73-14.64-51.1-11.97-23.27 3.21-32.64 11.44-38.51 12.21-2.73.36-3.23-1.6-6.68-5.14l-92.63-94.73c-10.87-11.15-10.65-29.01.5-39.89l58.69-57.23c11.15-10.88 29.01-10.66 39.89.5l137.6 141.54c1.17 1.19 9.8 8.29 8.06 7.65-3.7-1.36-7.8-.18-8.38-.23 0 0-14.48 1.32-22.59 5.23-8.1 3.91-9.82 10.41-9.82 10.41s-5.4 8.19-6.26 13.87c-.81 5.34.31 10.24.31 10.24s1.26 4.9 2.11 12.41z" fill="#bf8907" stroke="#bf8907" stroke-linecap="square" stroke-linejoin="bevel" stroke-width="12.984" layerName="Rectangle 32"/><path d="M434.58 379.226c-6.62-.831-3.792-.881 4.724 11.252 7.876 11.223 14.258 31.9 11.352 51.235-3.494 23.238-11.839 32.5-12.685 38.362-.392 2.723 1.563 3.253 5.059 6.747l93.595 93.771c11.021 11.013 28.883 11.007 39.896-.013l57.943-57.981c11.014-11.02 11.008-28.882-.013-39.896l-139.85-139.319c-1.18-1.178-8.172-9.9-7.551-8.149 1.314 3.711.079 7.805.121 8.382 0 0-1.493 14.464-5.501 22.519-4.008 8.054-10.531 9.7-10.531 9.7s-8.253 5.292-13.942 6.087c-5.357.749-10.236-.439-10.236-.439s-4.884-1.318-12.381-2.258z" fill="#bf8907" stroke="#bf8907" stroke-linecap="square" stroke-linejoin="bevel" stroke-width="12.984" layerName="Rectangle 21"/><path d="M1338.15 2372.29c6.62.85 3.79.89-4.69-11.26-7.85-11.25-14.18-31.94-11.22-51.27 3.56-23.23 11.93-32.46 12.79-38.32.4-2.73-1.55-3.26-5.04-6.76l-93.34-94.03c-10.99-11.04-28.85-11.08-39.9-.09l-58.1 57.82c-11.04 10.99-11.08 28.85-.09 39.9l139.47 139.69c1.18 1.18 8.15 9.93 7.53 8.17-1.3-3.71-.06-7.8-.1-8.38 0 0 1.54-14.46 5.57-22.5 4.03-8.05 10.55-9.68 10.55-9.68s8.27-5.27 13.96-6.05c5.36-.73 10.24.47 10.24.47s4.88 1.33 12.37 2.29z" fill="#bf8907" stroke="#bf8907" stroke-linecap="square" stroke-linejoin="bevel" stroke-width="12.984" layerName="Rectangle 33"/><path d="M933.181 1072.36h83.429c15.85 0 28.71 12.58 28.71 28.09v190.81c0 15.52-12.86 28.09-28.71 28.09h-83.429c-15.856 0-28.711-12.57-28.711-28.09v-190.81c0-15.51 12.855-28.09 28.711-28.09z" fill="#dbab38" stroke="#dbab38" stroke-linecap="square" stroke-linejoin="bevel" stroke-width="12.984" layerName="Rectangle 22"/><path d="m841.419 1677.82-83.424-.23c-15.857-.04-28.677-12.65-28.635-28.16l.514-190.82c.042-15.51 12.93-28.05 28.787-28.01l83.424.23c15.857.04 28.677 12.65 28.635 28.16l-.514 190.82c-.042 15.51-12.93 28.05-28.787 28.01z" fill="#dbab38" stroke="#dbab38" stroke-linecap="square" stroke-linejoin="bevel" stroke-width="12.984" layerName="Rectangle 34"/><path d="M764.282 1072.36h81.971c15.58 0 28.21 12.63 28.21 28.21v191.66c0 15.58-12.63 28.21-28.21 28.21h-81.971c-15.58 0-28.211-12.63-28.211-28.21v-191.66c0-8.39 3.663-15.92 9.478-21.09a28.095 28.095 0 0 1 18.733-7.12z" fill="#dbab38" stroke="#dbab38" stroke-linecap="square" stroke-linejoin="bevel" stroke-width="12.984" layerName="Rectangle 36"/><path d="m1010.32 1678.27-81.972-.22c-15.581-.04-28.177-12.71-28.135-28.29l.517-191.65c.042-15.58 12.706-28.18 28.286-28.14l81.974.22c15.58.04 28.17 12.71 28.13 28.29l-.52 191.66c-.02 8.39-3.7 15.91-9.53 21.06a28.062 28.062 0 0 1-18.75 7.07z" fill="#dbab38" stroke="#dbab38" stroke-linecap="square" stroke-linejoin="bevel" stroke-width="12.984" layerName="Rectangle 35"/><path d="M762.987 806.187h81.971c15.58 0 28.21 12.63 28.21 28.211v191.662c0 15.58-12.63 28.21-28.21 28.21h-81.971c-15.58 0-28.211-12.63-28.211-28.21V834.398c0-8.391 3.663-15.926 9.478-21.093a28.103 28.103 0 0 1 18.733-7.118z" fill="#dbab38" stroke="#dbab38" stroke-linecap="square" stroke-linejoin="bevel" stroke-width="12.984" layerName="Rectangle 13"/></g><g layerName="Layer Membrane" stroke-linecap="round" stroke-linejoin="round" stroke-width="3"><path d="M933.485 800.047c-.276 0-.537.086-.813.094h-.25c-17.688 0-32.031 14.043-32.031 31.344v197.495c0 7.08 3.45 13.33 7.906 18.47 4.522 5.99 10.692 10.54 17.907 12.16 1 .24 2.116.26 3.187.37.88.09 1.723.35 2.625.35H1019.2c.68 0 1.31-.21 1.97-.25 1.55-.11 3.09-.25 4.56-.56 1.24-.26 2.39-.66 3.57-1.07 1.05-.35 2.06-.73 3.06-1.18.94-.44 1.83-.91 2.72-1.44 1.6-.93 3.09-1.98 4.5-3.16.16-.14.34-.26.5-.4 6.55-5.73 10.75-13.94 10.75-23.19V832.016c0-15.103-10.97-27.711-25.56-30.625-.03-.006-.07.006-.1 0-2.34-.584-4.74-.969-7.22-.969l-84.465-.375z" fill="none" stroke="#be8805" layerName="Curve 63"/><path d="M840.382 1950.13c.276 0 .537-.09.812-.09h.25c17.689.05 32.069-13.96 32.116-31.26l.007-2.72.525-194.78c.019-7.08-3.414-13.33-7.856-18.49-4.506-6-10.663-10.57-17.874-12.2-.999-.24-2.115-.26-3.186-.39-.88-.09-1.722-.35-2.624-.35h-.406l-86.375-.23h-.406c-.674 0-1.304.2-1.97.24-1.544.11-3.088.24-4.564.55-1.232.26-2.386.66-3.565 1.05-1.049.36-2.069.73-3.066 1.18-.939.44-1.835.91-2.722 1.43a31.91 31.91 0 0 0-4.509 3.15c-.163.14-.341.26-.501.4-6.564 5.71-10.788 13.91-10.812 23.16l-.527 195.41-.005 1.65c-.04 15.11 10.893 27.74 25.48 30.7.03 0 .064-.01.094 0 2.338.59 4.743.98 7.216.99l84.468.6z" fill="none" stroke="#be8805" layerName="Curve 75"/><path d="M932.684 1066.22c-.276 0-.537.09-.812.1h-.25c-17.689 0-32.032 14.04-32.032 31.34v197.5c0 7.08 3.45 13.32 7.907 18.47 4.521 5.99 10.691 10.54 17.906 12.15 1 .24 2.116.26 3.187.38.88.09 1.723.34 2.625.34h87.185c.68 0 1.31-.21 1.97-.25 1.55-.11 3.09-.24 4.56-.56 1.24-.26 2.39-.66 3.57-1.06 1.04-.36 2.06-.73 3.06-1.19.94-.44 1.83-.91 2.72-1.44 1.6-.93 3.09-1.98 4.5-3.15.16-.15.34-.26.5-.41 6.55-5.72 10.75-13.93 10.75-23.19v-197.06c0-15.1-10.97-27.71-25.56-30.62-.03-.01-.07 0-.1 0-2.34-.59-4.74-.97-7.22-.97l-84.466-.38z" fill="none" stroke="#be8805" layerName="Curve 64"/><path d="M841.9 1683.96c.276 0 .537-.09.813-.09h.25c17.688.04 32.069-13.96 32.115-31.26l.008-2.72.525-194.78c.019-7.08-3.414-13.33-7.857-18.49-4.505-6-10.663-10.57-17.873-12.2-.999-.24-2.116-.27-3.187-.39-.88-.09-1.722-.35-2.624-.35h-.406l-86.375-.23h-.406c-.674-.01-1.304.2-1.969.24-1.545.11-3.088.24-4.564.55-1.233.26-2.386.66-3.566 1.05-1.049.36-2.069.73-3.065 1.18-.939.44-1.835.91-2.723 1.43a31.91 31.91 0 0 0-4.509 3.15c-.163.14-.34.26-.501.4-6.563 5.71-10.787 13.91-10.812 23.16l-.527 195.41-.004 1.65c-.041 15.11 10.893 27.74 25.48 30.7.029 0 .063-.01.093 0 2.339.59 4.743.98 7.216.98l84.468.61z" fill="none" stroke="#be8805" layerName="Curve 76"/><path d="M762.818 1066.22c-.277 0-.538.09-.813.1h-.25c-17.689 0-32.031 14.04-32.031 31.34v197.5c0 7.08 3.45 13.32 7.906 18.47 4.522 5.99 10.692 10.54 17.906 12.15 1 .24 2.117.26 3.188.38.88.09 1.723.34 2.625.34H848.536c.674 0 1.303-.21 1.969-.25 1.544-.11 3.087-.24 4.563-.56 1.231-.26 2.384-.66 3.562-1.06 1.048-.36 2.067-.73 3.063-1.19.937-.44 1.832-.91 2.718-1.44a32.544 32.544 0 0 0 4.5-3.15c.163-.15.341-.26.5-.41 6.549-5.72 10.75-13.93 10.75-23.19v-197.06c0-15.1-10.967-27.71-25.562-30.62-.03-.01-.064 0-.094 0-2.34-.59-4.746-.97-7.219-.97l-65.531-.22-18.937-.16z" fill="none" stroke="#be8805" layerName="Curve 87"/><path d="M769.891 1375.14c0-25.83 52.703-46.77 117.717-46.77s117.722 20.94 117.722 46.77c0 25.83-52.708 46.76-117.722 46.76s-117.717-20.93-117.717-46.76z" fill="#ce741a" stroke="#ad6114" layerName="Oval 1"/><path d="M1011.77 1684.42c.27 0 .53-.09.81-.1h.25c17.69.05 32.07-13.95 32.11-31.25l.01-2.72.53-194.78c.02-7.08-3.42-13.33-7.86-18.49-4.51-6-10.66-10.57-17.87-12.21-1-.24-2.12-.26-3.19-.38-.88-.09-1.72-.35-2.62-.35h-.41l-86.375-.23-.406-.01c-.674 0-1.304.21-1.969.25-1.545.11-3.089.23-4.564.55-1.233.25-2.387.65-3.566 1.05-1.049.36-2.069.73-3.066 1.18a30.5 30.5 0 0 0-2.722 1.43 31.91 31.91 0 0 0-4.509 3.15c-.163.14-.341.25-.501.4-6.563 5.71-10.787 13.91-10.812 23.16l-.527 195.4-.004 1.66c-.041 15.1 10.893 27.74 25.479 30.69.03.01.064 0 .094 0 2.339.59 4.743.99 7.216.99l65.531.4 18.941.21z" fill="none" stroke="#be8805" layerName="Curve 77"/><path d="M761.523 800.047c-.277 0-.538.086-.813.094h-.25c-17.689 0-32.031 14.043-32.031 31.344v197.495c0 7.08 3.45 13.33 7.906 18.47 4.522 5.99 10.692 10.54 17.906 12.16 1 .24 2.117.26 3.188.37.88.09 1.723.35 2.625.35H847.241c.674 0 1.303-.21 1.969-.25 1.544-.11 3.087-.25 4.563-.56 1.231-.26 2.384-.66 3.562-1.07 1.048-.35 2.067-.73 3.063-1.18.937-.44 1.832-.91 2.718-1.44a31.772 31.772 0 0 0 4.5-3.16c.163-.14.341-.26.5-.4 6.549-5.73 10.75-13.94 10.75-23.19V832.016c0-15.103-10.967-27.711-25.562-30.625-.03-.006-.064.006-.094 0-2.34-.584-4.746-.969-7.219-.969l-65.531-.218-18.937-.157z" fill="none" stroke="#be8805" layerName="Curve 66"/><path d="M1012.34 1950.59c.28 0 .54-.08.82-.09h.25c17.68.05 32.06-13.96 32.11-31.26l.01-2.72.52-194.78c.02-7.07-3.41-13.33-7.85-18.49-4.51-6-10.67-10.57-17.88-12.2-1-.24-2.11-.26-3.18-.38-.88-.09-1.72-.35-2.63-.35l-.4-.01-86.377-.23h-.407c-.674 0-1.303.21-1.969.25-1.544.1-3.088.23-4.564.55-1.232.25-2.386.65-3.565 1.05-1.049.35-2.07.72-3.066 1.18-.939.43-1.835.9-2.723 1.43-1.603.92-3.1 1.97-4.508 3.14-.163.14-.341.26-.501.41-6.564 5.7-10.788 13.9-10.813 23.16l-.526 195.4-.005 1.66c-.041 15.1 10.893 27.74 25.48 30.69.03.01.064-.01.094 0 2.338.59 4.743.98 7.216.99l65.53.39 18.934.21z" fill="none" stroke="#be8805" layerName="Curve 78"/><path d="M1258.82 650.078c-.2-.193-.45-.315-.65-.501l-.18-.175c-12.63-12.379-32.71-12.385-44.81-.027l-1.91 1.943-136.31 139.137c-4.95 5.056-6.85 11.929-7.27 18.726-.97 7.443.26 15.011 4.28 21.214.55.87 1.33 1.663 2.01 2.499.57.679.99 1.451 1.64 2.082l.29.285 61.7 60.446.29.284c.48.472 1.08.763 1.58 1.199 1.18 1.001 2.38 1.986 3.65 2.791 1.06.677 2.17 1.197 3.29 1.735 1 .478 1.99.924 3.02 1.294.98.344 1.95.634 2.95.876 1.79.456 3.59.754 5.42.895.22.011.43.053.64.059 8.69.495 17.43-2.43 23.91-9.04l136.75-139.584 1.16-1.183c10.57-10.789 11.55-27.47 3.17-39.765-.02-.025-.05-.041-.07-.066-1.26-2.055-2.71-4.013-4.48-5.744l-60.07-59.38z" fill="none" stroke="#be8805" layerName="Curve 67"/><path d="M514.647 2099.22c.197.19.443.32.644.5l.179.18c12.602 12.41 32.674 12.47 44.815.15l1.908-1.94 136.685-138.77c4.967-5.04 6.889-11.91 7.327-18.71.982-7.44-.22-15.01-4.227-21.22-.545-.87-1.328-1.67-2.007-2.51-.565-.68-.987-1.45-1.629-2.08l-.29-.29-61.536-60.61-.29-.29c-.48-.47-1.075-.76-1.578-1.2-1.179-1-2.371-1.99-3.645-2.8-1.059-.68-2.163-1.2-3.284-1.74-.997-.48-1.985-.93-3.015-1.31-.975-.34-1.943-.64-2.946-.88a32.373 32.373 0 0 0-5.421-.91c-.216-.01-.424-.05-.641-.06-8.681-.52-17.437 2.38-23.93 8.98l-137.123 139.21-1.163 1.18c-10.598 10.76-11.632 27.44-3.279 39.76.017.02.05.04.067.06 1.257 2.06 2.701 4.02 4.463 5.76l59.916 59.54z" fill="none" stroke="#be8805" layerName="Curve 79"/><path d="M1471.96 520.339c1.48 8.911 1.63 8.252 6.88 13.941 5.25 5.688 10.51 7.571 14.12 8.813 6.54 2.249 15.46.971 21.51 1.716 2.31.283 3.03.84 3.03.84s1.57 1.11 1.76 2.314c.38 2.409-1.43 3.934-1.43 3.934l-1.51 2.321-1.86 2.064-9.66 10.393-136.31 139.138c-4.96 5.056-11.79 7.1-18.58 7.659-7.42 1.115-15.01.048-21.29-3.847-.88-.53-1.69-1.299-2.54-1.963-.69-.552-1.47-.96-2.12-1.591l-.29-.285-61.7-60.446-.29-.284c-.48-.472-.78-1.061-1.23-1.557-1.02-1.16-2.04-2.335-2.87-3.594-.69-1.047-1.24-2.141-1.8-3.252-.5-.989-.96-1.969-1.35-2.992-.37-.968-.68-1.931-.94-2.929a32.322 32.322 0 0 1-1.01-5.404c-.01-.216-.06-.423-.07-.64-.67-8.67 2.07-17.477 8.55-24.086 0 0 100.37-102.382 103.45-104.709 2.37-1.782 4.06 1.581 10.16 4.06 6.09 2.48 14.22 5.857 14.22 5.857s10.88 3.909 22.84 4.033c11.96.125 13.53.48 24.65-3.182 11.12-3.661 20.53-11.703 20.53-11.703s10.33-7.536 14.16-6.797c.72.138 2.38 1.43 1.93 10.472-.73 14.78-2.43 12.794-.94 21.706z" fill="none" stroke="#996e08" layerName="Curve 68"/><path d="M301.158 2228.38c-1.46-8.91-1.608-8.25-6.845-13.96-5.236-5.7-10.491-7.59-14.099-8.85-6.534-2.26-15.454-1.01-21.508-1.77-2.304-.29-3.019-.85-3.019-.85s-1.568-1.11-1.757-2.32c-.378-2.41 1.44-3.93 1.44-3.93l1.511-2.31 1.865-2.06 9.697-10.37 136.684-138.77c4.968-5.04 11.806-7.07 18.593-7.61 7.425-1.09 15.014-.01 21.288 3.91.879.53 1.687 1.3 2.534 1.96.689.56 1.469.97 2.111 1.6l.29.29 61.537 60.61.289.28c.48.48.782 1.07 1.227 1.56 1.021 1.17 2.028 2.34 2.856 3.61.696 1.05 1.235 2.14 1.792 3.25.497.99.96 1.97 1.349 3 .361.97.668 1.93.928 2.93.488 1.79.818 3.58.991 5.41.016.21.061.42.071.64.65 8.67-2.119 17.47-8.612 24.06 0 0-100.643 102.11-103.735 104.43-2.368 1.78-4.058-1.59-10.145-4.09-6.087-2.49-14.203-5.89-14.203-5.89s-10.873-3.94-22.833-4.1c-11.959-.15-13.527-.51-24.658 3.12-11.13 3.63-20.559 11.65-20.559 11.65s-10.348 7.5-14.182 6.75c-.714-.14-2.374-1.43-1.902-10.47.773-14.78 2.464-12.79 1.004-21.71z" fill="none" stroke="#996e08" layerName="Curve 80"/><path d="M1323.83 374.934c-8.92-1.392-8.27-1.545-14.01-6.737-5.74-5.193-7.68-10.433-8.96-14.032-2.32-6.516-1.13-15.445-1.94-21.493-.3-2.303-.87-3.012-.87-3.012s-1.13-1.56-2.33-1.74c-2.41-.359-3.92 1.47-3.92 1.47l-2.31 1.529-2.04 1.881-10.29 9.775-137.72 137.746c-5 5.006-6.98 11.859-7.47 18.651-1.03 7.433.11 15.014 4.07 21.257.54.875 1.32 1.677 1.99 2.519.56.685.98 1.461 1.61 2.099l.29.287 61.08 61.07.29.287c.48.477 1.07.774 1.57 1.215 1.17 1.012 2.36 2.01 3.62 2.828 1.06.688 2.16 1.219 3.28 1.768.99.489 1.97.945 3 1.325.97.354 1.94.654 2.94.906 1.79.474 3.59.79 5.41.95.22.013.43.057.64.066 8.68.583 17.46-2.254 24-8.797 0 0 101.34-101.424 103.63-104.534 1.76-2.381-1.62-4.045-4.16-10.113-2.55-6.068-6.01-14.157-6.01-14.157s-4.02-10.843-4.27-22.8c-.25-11.958-.62-13.524 2.93-24.682 3.54-11.158 11.49-20.648 11.49-20.648s7.43-10.405 6.65-14.233c-.15-.714-1.46-2.364-10.49-1.822-14.77.886-12.77 2.563-21.7 1.171z" fill="none" stroke="#996e08" layerName="Curve 69"/><path d="M448.89 2374.19c8.923 1.41 8.265 1.57 13.994 6.77 5.728 5.21 7.651 10.46 8.921 14.06 2.3 6.52 1.09 15.45 1.881 21.5.301 2.3.863 3.01.863 3.01s1.122 1.56 2.328 1.75c2.412.36 3.923-1.46 3.923-1.46l2.309-1.52 2.05-1.88 10.318-9.75 138.088-137.37c5.018-4.99 7.01-11.84 7.517-18.63 1.057-7.43-.068-15.02-4.011-21.27-.537-.88-1.312-1.68-1.982-2.52-.558-.69-.971-1.47-1.608-2.11l-.286-.29-60.918-61.23-.287-.29c-.475-.48-1.067-.77-1.565-1.22-1.169-1.01-2.351-2.01-3.617-2.84-1.052-.69-2.15-1.22-3.266-1.77-.992-.49-1.976-.95-3.002-1.34-.971-.35-1.936-.65-2.936-.91-1.788-.48-3.585-.8-5.411-.96-.217-.02-.424-.06-.641-.07-8.675-.61-17.461 2.21-24.02 8.73 0 0-101.609 101.15-103.912 104.26-1.764 2.37 1.612 4.05 4.138 10.12 2.526 6.07 5.966 14.17 5.966 14.17s3.992 10.86 4.208 22.81c.217 11.96.583 13.53-2.993 24.68-3.575 11.15-11.545 20.62-11.545 20.62s-7.456 10.38-6.688 14.21c.144.71 1.448 2.37 10.487 1.85 14.773-.85 12.774-2.53 21.697-1.11z" fill="none" stroke="#996e08" layerName="Curve 81"/><path d="M1137.48 531.204c-.2-.194-.45-.315-.65-.502l-.18-.175c-12.63-12.379-32.71-12.385-44.81-.026l-1.91 1.942L953.623 671.58c-4.953 5.057-6.857 11.93-7.277 18.726-.962 7.443.261 15.012 4.284 21.214.548.87 1.333 1.664 2.015 2.499.566.679.99 1.451 1.634 2.083l.29.284 61.701 60.446.29.284c.48.472 1.08.763 1.58 1.2 1.18 1 2.38 1.986 3.65 2.791 1.06.677 2.17 1.196 3.29 1.734 1 .478 1.99.925 3.02 1.295.98.344 1.94.634 2.95.875 1.79.457 3.59.754 5.42.895.22.012.43.053.64.06 8.69.495 17.43-2.431 23.91-9.041l136.75-139.584 1.16-1.183c10.57-10.788 11.55-27.469 3.17-39.765-.02-.025-.05-.04-.07-.066-1.26-2.054-2.71-4.013-4.48-5.743l-46.66-46.016-13.41-13.364z" fill="none" stroke="#be8805" layerName="Curve 70"/><path d="M635.666 2218.42c.197.2.443.32.645.5l.178.18c12.602 12.41 32.675 12.47 44.815.15l1.908-1.94 136.685-138.77c4.967-5.04 6.889-11.91 7.327-18.71.982-7.44-.22-15.01-4.226-21.22-.546-.87-1.329-1.67-2.008-2.51-.565-.68-.986-1.45-1.629-2.08l-.289-.29-61.537-60.61-.29-.28c-.48-.48-1.074-.77-1.578-1.21-1.178-1-2.371-1.99-3.645-2.8-1.059-.68-2.162-1.2-3.284-1.74-.997-.48-1.985-.93-3.015-1.31a33.43 33.43 0 0 0-2.945-.88 32.407 32.407 0 0 0-5.421-.91c-.217-.01-.425-.05-.641-.06-8.681-.52-17.438 2.38-23.931 8.98l-137.123 139.21-1.162 1.18c-10.599 10.76-11.632 27.44-3.279 39.76.017.02.049.04.066.06 1.258 2.06 2.702 4.02 4.464 5.76l46.533 46.14 13.382 13.4z" fill="none" stroke="#be8805" layerName="Curve 82"/><path d="M521.706 650.092c.198-.194.444-.315.646-.502l.179-.175c12.63-12.385 32.703-12.399 44.815-.046l1.904 1.941 136.37 139.079c4.955 5.054 6.862 11.927 7.285 18.723.965 7.443-.254 15.012-4.275 21.216-.548.87-1.333 1.664-2.013 2.5-.567.679-.99 1.451-1.634 2.083l-.29.284-61.674 60.473-.29.285c-.482.472-1.077.763-1.581 1.199-1.181 1.001-2.375 1.988-3.652 2.793-1.06.677-2.165 1.197-3.287 1.736-.998.479-1.988.925-3.018 1.296a30.11 30.11 0 0 1-2.948.877 31.88 31.88 0 0 1-5.423.897c-.216.011-.424.053-.641.06-8.682.498-17.432-2.424-23.91-9.03L461.461 756.255l-1.159-1.182c-10.574-10.784-11.57-27.465-3.189-39.764.017-.025.05-.041.067-.066 1.262-2.055 2.71-4.014 4.476-5.745l60.05-59.406z" fill="none" stroke="#be8805" layerName="Curve 71"/><path d="M1251.75 2101.19c-.19.2-.44.32-.64.5l-.18.18c-12.67 12.35-32.74 12.31-44.82-.08l-1.9-1.94-135.99-139.45c-4.94-5.07-6.83-11.94-7.23-18.74-.95-7.45.29-15.01 4.33-21.21.55-.86 1.33-1.66 2.02-2.49.57-.68.99-1.45 1.64-2.08l.29-.28 61.83-60.31.3-.28c.48-.47 1.07-.76 1.58-1.2 1.18-1 2.38-1.98 3.66-2.78 1.06-.68 2.17-1.19 3.29-1.73 1-.47 1.99-.92 3.02-1.29.98-.34 1.95-.63 2.95-.86 1.8-.46 3.6-.75 5.43-.89.21-.01.42-.05.64-.06 8.68-.47 17.42 2.47 23.88 9.1l136.44 139.89 1.15 1.19c10.55 10.81 11.5 27.49 3.08 39.77-.01.03-.05.04-.06.07-1.27 2.05-2.72 4-4.5 5.73l-60.21 59.24z" fill="none" stroke="#be8805" layerName="Curve 83"/><path d="M308.511 520.443c-1.48 8.913-1.627 8.254-6.876 13.945-5.249 5.69-10.509 7.575-14.12 8.819-6.539 2.252-15.456.978-21.512 1.725-2.305.284-3.02.841-3.02.841s-1.571 1.111-1.763 2.315c-.383 2.41 1.431 3.934 1.431 3.934l1.506 2.32 1.861 2.063 9.672 10.389 136.37 139.079c4.956 5.054 11.789 7.096 18.576 7.652 7.422 1.111 15.014.041 21.296-3.857.88-.53 1.69-1.299 2.539-1.964.69-.552 1.471-.96 2.115-1.592l.29-.284 61.674-60.473.29-.285c.481-.472.784-1.061 1.231-1.556 1.023-1.162 2.033-2.336 2.864-3.596.698-1.048 1.239-2.142 1.799-3.253.499-.989.965-1.969 1.356-2.992.363-.969.672-1.931.934-2.93.493-1.784.826-3.58 1.004-5.404.016-.216.061-.424.072-.64.67-8.671-2.08-17.476-8.558-24.083 0 0-100.411-102.339-103.498-104.664-2.364-1.782-4.061 1.582-10.154 4.064a2475.959 2475.959 0 0 0-14.216 5.863s-10.882 3.913-22.842 4.043c-11.959.13-13.529.485-24.651-3.171-11.122-3.657-20.533-11.694-20.533-11.694s-10.331-7.532-14.166-6.791c-.715.138-2.378 1.43-1.926 10.472.739 14.78 2.435 12.793.955 21.705z" fill="none" stroke="#996e08" layerName="Curve 72"/><path d="M1464.6 2231.42c1.5-8.91 1.65-8.25 6.91-13.93 5.27-5.68 10.53-7.55 14.15-8.78 6.54-2.24 15.45-.94 21.51-1.67 2.31-.28 3.03-.83 3.03-.83s1.57-1.11 1.76-2.31c.39-2.41-1.42-3.94-1.42-3.94l-1.5-2.32-1.85-2.07-9.64-10.42-136-139.44c-4.94-5.07-11.77-7.13-18.55-7.7-7.42-1.14-15.02-.09-21.31 3.8-.88.52-1.69 1.29-2.54 1.95-.7.55-1.48.96-2.12 1.59l-.3.28-61.83 60.31-.29.28c-.49.47-.79 1.06-1.24 1.56-1.02 1.15-2.04 2.33-2.87 3.58-.7 1.05-1.25 2.14-1.81 3.25-.5.99-.97 1.97-1.36 2.99-.37.97-.68 1.93-.95 2.93-.49 1.78-.83 3.58-1.01 5.4-.02.22-.07.42-.08.64-.69 8.67 2.03 17.48 8.5 24.11 0 0 100.13 102.6 103.21 104.94 2.36 1.79 4.07-1.57 10.17-4.04 6.1-2.47 14.23-5.82 14.23-5.82s10.89-3.89 22.85-3.99c11.96-.09 13.53-.44 24.64 3.24 11.11 3.69 20.5 11.75 20.5 11.75s10.31 7.56 14.15 6.83c.72-.14 2.38-1.42 1.96-10.47-.7-14.78-2.4-12.8-.9-21.7z" fill="none" stroke="#996e08" layerName="Curve 84"/><path d="M456.573 374.975c8.926-1.395 8.268-1.549 14.009-6.743 5.74-5.195 7.675-10.436 8.953-14.036 2.314-6.517 1.125-15.445 1.929-21.494.306-2.302.87-3.012.87-3.012s1.126-1.56 2.332-1.74c2.413-.361 3.92 1.468 3.92 1.468l2.305 1.528 2.046 1.88 10.297 9.771 137.775 137.686c5.007 5.004 6.984 11.856 7.475 18.648 1.041 7.432-.101 15.014-4.059 21.258-.538.876-1.315 1.678-1.988 2.52-.559.686-.974 1.462-1.612 2.1l-.287.287-61.057 61.096-.287.288c-.476.477-1.068.774-1.568 1.216-1.171 1.012-2.356 2.011-3.623 2.829-1.054.688-2.153 1.219-3.27 1.769-.993.489-1.978.946-3.005 1.327-.972.354-1.937.654-2.939.907a31.94 31.94 0 0 1-5.413.952c-.216.014-.424.057-.641.066-8.676.587-17.455-2.246-24-8.787 0 0-101.379-101.38-103.675-104.488-1.759-2.381 1.621-4.047 4.161-10.115 2.54-6.069 5.998-14.16 5.998-14.16s4.016-10.845 4.26-22.802c.243-11.958.613-13.524-2.937-24.68-3.551-11.157-11.499-20.644-11.499-20.644s-7.433-10.402-6.655-14.23c.144-.713 1.453-2.364 10.49-1.826 14.772.88 12.769 2.557 21.695 1.161z" fill="none" stroke="#996e08" layerName="Curve 73"/><path d="M1316.15 2376.48c-8.93 1.38-8.28 1.53-14.03 6.71-5.76 5.18-7.7 10.42-8.99 14.01-2.33 6.51-1.17 15.44-1.99 21.49-.31 2.3-.88 3.01-.88 3.01s-1.13 1.56-2.33 1.73c-2.42.36-3.92-1.47-3.92-1.47l-2.3-1.54-2.04-1.88-10.27-9.8-137.41-138.06c-4.99-5.02-6.95-11.88-7.42-18.67-1.02-7.43.14-15.01 4.12-21.25.54-.87 1.32-1.67 1.99-2.51.56-.68.98-1.46 1.62-2.1l.29-.28 61.22-60.93.29-.29c.47-.48 1.07-.77 1.57-1.21 1.17-1.01 2.36-2.01 3.63-2.82 1.05-.69 2.15-1.21 3.27-1.76 1-.49 1.98-.94 3.01-1.32.97-.35 1.94-.65 2.94-.9 1.79-.47 3.59-.78 5.42-.94.21-.01.42-.05.64-.06 8.68-.56 17.45 2.29 23.98 8.85 0 0 101.1 101.65 103.39 104.77 1.75 2.38-1.63 4.04-4.19 10.1-2.56 6.06-6.04 14.15-6.04 14.15s-4.04 10.83-4.32 22.79c-.27 11.95-.65 13.52 2.87 24.68 3.52 11.17 11.45 20.68 11.45 20.68s7.4 10.42 6.61 14.25c-.14.71-1.46 2.36-10.49 1.79-14.77-.92-12.76-2.59-21.69-1.22z" fill="none" stroke="#996e08" layerName="Curve 85"/><path d="M642.995 531.165c.198-.194.444-.315.646-.502l.179-.175c12.63-12.384 32.703-12.399 44.815-.046l1.904 1.942 136.37 139.079c4.955 5.054 6.862 11.926 7.285 18.722.965 7.443-.254 15.012-4.275 21.216-.548.87-1.332 1.664-2.013 2.5-.567.68-.99 1.452-1.634 2.083l-.29.285-61.674 60.472-.29.285c-.481.472-1.077.763-1.581 1.2-1.181 1-2.375 1.987-3.651 2.792-1.061.678-2.166 1.198-3.288 1.736-.998.479-1.988.925-3.018 1.296-.976.344-1.944.635-2.948.877a31.88 31.88 0 0 1-5.423.897c-.216.012-.424.053-.641.06-8.682.498-17.432-2.424-23.91-9.03L582.75 637.329l-1.159-1.183c-10.574-10.784-11.57-27.465-3.189-39.764.017-.025.05-.04.067-.066 1.262-2.055 2.71-4.014 4.476-5.745l46.638-46.036 13.412-13.37z" fill="none" stroke="#be8805" layerName="Curve 74"/><path d="M1130.15 2219.79c-.2.2-.45.32-.65.5l-.18.18c-12.66 12.35-32.74 12.31-44.82-.08l-1.89-1.94L946.611 2079c-4.942-5.07-6.831-11.94-7.235-18.74-.945-7.45.295-15.01 4.332-21.21.55-.87 1.337-1.66 2.02-2.49.568-.68.994-1.45 1.639-2.08l.291-.28 61.842-60.31.29-.28c.48-.47 1.07-.76 1.58-1.2 1.18-1 2.38-1.98 3.66-2.78 1.06-.68 2.17-1.19 3.29-1.73 1-.47 1.99-.92 3.02-1.29.98-.34 1.95-.63 2.95-.87 1.8-.45 3.6-.74 5.43-.88.21-.01.42-.05.64-.06 8.68-.47 17.42 2.47 23.89 9.1l136.43 139.89 1.15 1.19c10.55 10.81 11.5 27.49 3.08 39.77-.01.03-.05.04-.06.07-1.27 2.05-2.72 4-4.49 5.73l-46.77 45.91-13.44 13.33z" fill="none" stroke="#be8805" layerName="Curve 86"/></g><g layerName="Layer 1" fill="#0961cd"><path d="M1064.61 1115.98c-6.45-.58-11.72-.89-12.3 5.57-.69 7.85-5.74 17.34-9.03 24.45-4.81 10.42-10.88 20.23-17.31 29.72-10.35 15.27-21.88 29.75-33.845 43.78-13.996 16.41-28.661 32.25-43.781 47.62a789.84 789.84 0 0 1-11.094 11.1 719.466 719.466 0 0 1-4.062 3.94c-.387.37-.769.75-1.157 1.12-.031.03-.062.06-.093.1l-.063.06-.063.06c-.047.05-.108.08-.156.12-.011.01-.02.03-.031.04l-.031.03c-.043.04-.169.16-.125.12-.161.14-.339.27-.5.41-.457.39-.92.76-1.375 1.16a499.293 499.293 0 0 0-4.344 3.81c-4.13 3.63-8.244 7.32-12.312 11.03a1249.916 1249.916 0 0 0-35.126 33.28c-27.402 26.99-53.698 55.18-78.156 84.88-19.711 23.93-38.298 48.89-54.562 75.31-14.21 23.08-26.847 47.39-35.438 73.15-7.26 21.78-7.501 27.22-3.113 49.85.921 4.76 5.87 11.7 5.87 11.7l5.349 5.78s5.339 6.61 5.383-.23c.134-21.16 4.397-43.82 11.511-63.78 9.801-27.51 24.328-53.21 40.344-77.54 16.478-25.02 34.859-48.76 54.25-71.59 21.689-25.53 44.67-49.96 68.531-73.47 10.903-10.74 21.977-21.3 33.281-31.62 3.695-3.37 7.407-6.72 11.157-10.03 1.861-1.65 3.798-3.23 5.625-4.91 5.085-4.69 9.898-9.7 14.75-14.62 8.206-8.33 16.297-16.79 24.218-25.38 13.308-14.44 26.198-29.25 38.378-44.66 9.4-11.89 18.4-24.14 26.47-37 4.75-7.57 9.19-15.37 12.93-23.5 4.42-9.58 7.74-16.29 7.95-27.84.05-2.72-1.16-11.2-1.98-12.19-1.13-1.37-2.2.51-5.95.17z" layerName="Curve 97"/><path d="M1056.55 1796.8c-1.48-.64-2.23-1.6-3.69-.71-3.71 2.26-5.2 5.55-5.2 5.55l-.43 14.73s10.69 24.58 13.21 36.22a90.95 90.95 0 0 1 2.03 19.25c-.09 36.87-22.63 70.02-50.69 92.22a164.04 164.04 0 0 1-14.186 10.03 162.55 162.55 0 0 1-19.532 10.57c-8.879 4.03-18.153 7.26-27.656 9.46-26.368 6.13-54.191 4.95-80.687.29-23.718-4.18-46.915-11.36-69-20.94-17.985-7.8-35.313-17.2-51.469-28.31-22.145-15.24-42.288-33.8-56.812-56.57-3.484-5.46-10.725-7.04-16.188-3.56-5.463 3.48-7.077 10.73-3.594 16.19 16.238 25.48 38.5 46.22 63.25 63.31 20.317 14.03 42.334 25.56 65.25 34.72 21.837 8.73 44.579 15.35 67.782 19.25 29.64 4.98 60.593 5.78 89.937-1.47 10.941-2.7 21.578-6.57 31.781-11.34a187.04 187.04 0 0 0 22.374-12.41c35.88-23.27 65.66-59.98 72.66-103.03.98-6.05 1.48-12.21 1.5-18.34.03-8.24-.83-16.48-2.57-24.53-3.08-14.36-8.97-27.78-16.59-40.29-2.67-4.38-8.49-8.97-11.48-10.29z" layerName="Curve 98"/><path d="M864.25 731.531c-15.107.09-30.2 1.696-44.875 5.313-10.406 2.565-20.586 6.087-30.406 10.375a199.114 199.114 0 0 0-21.313 10.875c-37.113 21.842-69.687 57.368-77.031 101.031a107.921 107.921 0 0 0-1.5 17.875 109.01 109.01 0 0 0 3.031 25.531c3.18 13.176 9.751 24.989 16.786 36.53 3.565 5.842 5.934-3.378 11.775-6.942 2.699-1.647 4.614-3.286 5.513-4.562 1.046-1.485.723-2.671-1.195-5.815-5.708-9.343-6.228-14.348-8.816-25.023a84.484 84.484 0 0 1-2.375-18.657c-.535-37.085 24.109-69.183 52.875-90.093a171.015 171.015 0 0 1 14.437-9.438 175.594 175.594 0 0 1 19.875-9.937c8.662-3.673 17.645-6.682 26.813-8.813 26.367-6.127 54.191-4.948 80.687-.281 23.717 4.177 46.915 11.33 69 20.906 17.985 7.799 35.309 17.198 51.469 28.313 22.15 15.236 42.29 33.797 56.81 56.562 3.49 5.463 10.73 7.078 16.19 3.594 5.46-3.484 7.08-10.756 3.59-16.219-16.23-25.476-38.5-46.186-63.25-63.281-20.31-14.034-42.33-25.585-65.246-34.75-21.837-8.733-44.578-15.349-67.782-19.25-14.823-2.492-29.955-3.934-45.062-3.844z" opacity=".997" layerName="Curve 96"/></g></svg>
