<svg
  xmlns="http://www.w3.org/2000/svg"
  strokeLinecap="round"
  strokeLinejoin="round"
  clipRule="evenodd"
  viewBox="0 0 2747.33 2409.75"
>
  <path
    fill="#eddab5"
    d="M1028.04 1538.38c-5.77-2.89-11.34-17.77-15.9-23.86-7.36-9.81-15.356-18.57-22.723-28.4-4.035-5.38-8.678-14.26-10.224-20.44-1.253-5.02-5.63-10.13-7.952-14.77-3.893-7.79-6.895-16.42-11.359-23.86-2.019-3.36-5.957-5.76-7.952-9.08-3.134-5.23-6.502-9.81-10.223-14.77-3.999-5.33-5.09-12.85-9.088-18.18-1.697-2.26-2.721-1.79-3.408-4.54-1.026-4.1-2.685-9.92-4.544-13.63-4.148-8.3-11.385-16.01-13.631-24.99-1.764-7.06-2.982-19.88-1.136-27.27.783-3.13 2.626-5.96 3.408-9.08.891-3.57-.891-7.8 0-11.36 1.376-5.51 2.593-14.62 1.136-20.45-2.053-8.21-2.493-16.79-4.544-24.99-.535-2.14.534-4.68 0-6.82-2.45-9.8-3.647-21.76-1.136-31.8.891-3.57-.891-7.8 0-11.36 1.028-4.12 1.246-8.39 2.272-12.5 1.381-5.52 5.646-7.92 9.087-11.36 1.198-1.2.863-3.6 2.272-4.54.63-.42 1.642.42 2.272 0 .705-.47.432-1.81 1.136-2.27 1.299-.87 3.44-.04 4.544-1.14 2.887-2.89 2.97-8.21 4.544-11.36 1.225-2.45 3.797-3.83 4.544-6.82 1.912-7.65 4.903-15.07 6.815-22.72 1.003-4 4.678-7.35 5.68-11.35 1.33-5.33 3.211-10.58 4.544-15.91.601-2.4 2.806-4.41 3.408-6.81.654-2.62 1.098-6.74 2.272-9.09 1.868-3.74 5.711-6.94 6.816-11.36.77-3.08 1.329-6.32 3.407-9.09 2.429-3.24 5.603-4.82 7.952-7.95 3.387-4.52 2.596-11.68 6.816-15.9 4.183-4.19 10.447-7.04 14.765-11.36 1.71-1.71 1.71-5.12 3.41-6.82 6.8-6.8-1.76-11.6-3.41-18.17-.67-2.694.55-4.448 1.14-6.82.89-3.564-.89-7.796 0-11.36.87-3.492 11.98-17.456 14.77-19.311 1.29-.866 3.14-.438 4.54-1.136 6.39-3.195 13.61-6.244 20.45-7.952 4.79-1.198 11.98-1.762 15.9-5.68 4.82-4.816 11.09-8.815 15.9-13.631 5.94-5.937 17.92-7.823 24.99-11.36 3.2-1.597 8.86-3.175 11.36-5.679.6-.599.44-1.803 1.14-2.272.63-.42 1.64.42 2.27 0 2.25-1.501 4.48-4.811 7.95-5.68 14.25-3.562 28.56-7.706 43.17-11.36 4.01-1.002 7.35-4.677 11.36-5.679 6.92-1.73 13.53-5.619 19.31-9.088 1.66-.993 3.81-.668 5.68-1.136 4.54-1.135.02-1.145 4.54-3.408 1.4-.698 3.15-.438 4.55-1.136 3.88-1.943 7.58-4.735 11.36-5.68 4.41-1.101 11.59-8.067 15.9-10.223 7.78-3.888 16.31-8.154 24.99-12.496 2.49-1.244 4.1-3.864 6.82-4.544 9.69-2.423 21.23-5.313 30.67-9.087 6.03-2.415 11.9-6.384 18.17-7.952 9.03-2.257 18.06-3.839 27.27-5.68 9.28-1.857 17.73-7.181 27.26-9.087 11.45-2.29 22.85-4.01 34.08-6.816 7.07-1.769 16.19.639 22.72 2.272 4.99 1.247 10.91-1.248 15.9 0 1.64.41 2.9 1.861 4.55 2.272 4.27 1.069 9.35-1.069 13.63 0 4.72 1.181 9.31 6.929 13.63 9.087 1.91.958 4.62.953 6.81 2.272 3.27 1.958 6.97 5.189 10.23 6.816.68.339 1.64-.42 2.27 0 .7.47.54 1.673 1.14 2.272 1.19 1.197 3.18 1.256 4.54 2.272 5.16 3.87 9.38 8.904 14.77 12.495 4.19 2.797 9.43 4.02 13.63 6.816 3.86 2.576 7.7 6.16 11.36 9.088 7.49 5.989 13.08 14.307 20.45 20.447 4.62 3.857 9.95 6.789 14.76 10.224 5.53 3.947 10.26 8.731 15.91 12.495 6.75 4.502 9.34 13.493 15.9 18.175 8.65 6.177 18.79 12.05 27.26 19.312 12.01 10.289 18.4 25.217 29.54 36.35 8.96 8.966 20.68 15.843 28.4 26.128 4.92 6.56 8.1 13.1 13.63 19.31 8 9.01 18.42 15.58 26.12 24.99 4.44 5.42 7.77 12.18 11.36 18.18 9.35 15.57 16.34 31.83 25 47.71 6.24 11.45 14.16 21.63 20.44 32.94 3.65 6.57 6.21 14.01 10.23 20.45 5.25 8.41 12.16 14.99 18.17 22.72 7.29 9.37 14 21.17 19.31 31.8 3.14 6.27 4.02 12.66 5.68 19.31 5.42 21.68 8.71 45.06 17.04 65.89 5.27 13.17 13.28 25.15 18.18 38.62 8.98 24.71 12.61 53.22 10.22 79.52-1.08 11.9-3.4 23.8-5.68 35.21-1.62 8.11 2.01 17.12-1.13 25-1.61 4.01-10.28 15.94-13.64 18.17-.63.42-1.64-.42-2.27 0-5.01 3.34-6.64 12.93-7.95 18.18-1.4 5.59-2.04 11.56-3.41 17.04-.41 1.64-1.86 2.9-2.27 4.54-1.62 6.49.49 13.96-1.14 20.45-1.95 7.83-2.55 15.91-4.54 23.85-.6 2.41-2.81 4.41-3.41 6.82-1.12 4.47-1.3 9.42-3.41 13.63-1.5 3.01-4.9 5.99-5.68 9.09-1.81 7.26-5.68 14.39-10.22 20.44-3.96 5.29-9.65 6.39-14.77 10.23-5.4 4.05-10.5 8.44-15.9 12.49-1.25.94-3.09.56-4.54 1.14-6.98 2.79-13.41 6.27-20.45 9.09-11.79 4.71-21.06 13.99-31.81 20.44-8.68 5.21-19.63 6.1-28.4 11.36-9.45 5.68-18.41 12.05-28.4 17.04-7.17 3.59-15.66 4.43-22.71 7.95-16.47 8.24-33.23 14.99-49.99 22.72-15.71 7.26-29.86 16.57-46.57 21.59-12.57 3.77-28.97 1.13-42.03 1.13-3.39 0-8.1-.81-11.36 0-9.6 2.4-19.71 4.04-29.54 5.68-10.48 1.75-19.33 7.68-29.53 10.23-9.12 2.28-18.22 2.73-27.26 4.54-12.41 2.48-24.05 6.19-36.35 7.95-11.33 1.62-22.09 2.97-32.95 5.68-2.5.63-5.42-.51-7.95 0-5.7 1.14-11.32 2.27-17.04 3.41-1.48.3-3.19-.68-4.54 0-3.07 1.53-5.41 4.76-9.09 5.68-10.42 2.6-20.71 3.41-31.81 3.41-1.82 0-7.63.97-9.08 0-1.83-1.22-3.31-4.5-5.68-5.68-3.29-1.65-8.29 1.94-11.36-1.14-.6-.6-.43-1.8-1.14-2.27-1.3-.87-3.44-.03-4.54-1.14-.6-.6-.43-1.8-1.14-2.27-.63-.42-1.64.42-2.27 0-3.41-2.27-4.98-8.17-9.09-10.22-5.98-3-14.69-2.5-20.45-6.82-5.39-4.04-9.2-9.46-14.76-13.63-2.84-2.13-6.61-4.34-9.09-6.82-1.2-1.19-1.08-3.34-2.27-4.54-4.85-4.85-10.08-8.94-14.77-13.63-1.2-1.2-3.35-1.08-4.54-2.27-2.26-2.26-2.28-8.34-2.28-11.36"
  ></path>
  <g fill="#eddab5" stroke="#e1b963" strokeWidth="12.984">
    <path d="M1452.71 809.214c20.72-30.499 34.91-64.544 49.94-98.475 3.69-8.343 5.21-18.477 7.72-27.348 7.27-25.78 12.76-51.744 18.29-77.881 8.1-38.273 19.25-75.857 26.71-114.257 2.35-12.091 8.28-23.721 10.13-35.894 1.98-13.027 6.49-25.152 8.91-38.086 4.31-23.097 9.48-46.677 15.88-69.335 4.22-14.981 6.97-31.816 13.02-46.15 3.71-8.783 7.54-17.518 11.14-26.383 1.84-4.523 5.44-8.186 7.28-12.709 3.72-9.174 6.86-21.688 13.81-29.319 11.53-12.665 33.61-26.568 51.63-26.025 24.62.741 19.28 25.478 21.12 42.869 2.38 22.507-7.55 46.359-13.69 68.108-4.2 14.88-7.02 31.933-13.02 46.149-5.77 13.675-12.99 27.461-18.9 40.802-2.54 5.731-2.44 13.187-5.31 18.801-11.2 21.912-15.74 49.233-22.45 73.016-5.31 18.828-11.62 37.559-14.21 56.887-.86 6.39-4.45 12.412-5.31 18.802-1.95 14.551-6.49 29.67-6.93 44.178-.39 12.966-8.37 26.704-9.39 39.796-.47 6.105-.94 12.151-1.4 18.057-.23 2.951-2.33 5.587-2.42 8.546-.43 14.394 1.1 29.119 2.58 43.172 1.69 15.918 2.66 33.028 6.74 48.038.99 3.613.13 7.497.53 11.221.97 9.182 2.8 18.451 5.21 27.306 2.34 8.623 1.44 21.723 8.63 28.271 5.78 5.271 24.92 4.761 30.98 1.365 4.48-2.505 6.34-7.075 10.22-10.035 7.65-5.842 12.78-12.057 17.01-21.035 1.26-2.678 1.06-5.911 2.41-8.546 4.75-9.299 11.88-17.126 16.75-26.645 1.84-3.608 1.65-8.302 3.37-11.965 4.5-9.553 9.58-20.091 15.53-28.837 7.91-11.648 13.95-20.237 27.48-25.46 4.52-1.743 6.41-3.278 11.22-.523 9.59 5.488 1.65 27.457-2.33 34.405-15.31 26.735-33.15 52.077-41.69 82.347-1.68 5.953-7.8 20.393-7.24 25.639 1.68 15.887 12.5 41.584 32.82 40.636 6.3-.295 12.25-5.417 17.05-8.106 2.58-1.446 5.93-1.401 8.28-3.198 9.44-7.208 18.06-16.098 27.01-23.75 10.84-9.274 22.76-16.648 31.87-27.914 18.24-22.566 31.34-48.872 46.6-73.58 6.26-10.128 15.44-18.534 21.13-29.099 10.95-20.341 25.8-38.009 38.36-57.453 10.87-16.82 21.54-34.751 35.95-48.906 3.05-2.992 6.86-5.17 9.73-8.326 3.76-4.129 8.47-7.3 12.41-11.262 5.42-5.459 9.42-12.18 14.33-18.099 7.73-9.293 15.99-17.554 24.07-26.424 4.61-5.058 1.07-4.601 7.54-7.099 3.62-1.397 5.58-.256 9.51-1.007 2.39-.456 22.54-2.67 24.15-.565 4.57 5.98-.86 29.189-2.81 36.115-3.92 13.879-13.71 28.644-22.32 39.836-4.56 5.94-12.7 9.486-17.27 15.425-.72.938-.24 2.48-.96 3.418-6.26 8.133-14.83 15.366-21.4 23.489-7.14 8.838-12.34 18.903-18.93 27.872-2.36 3.2-6.22 5.272-8.03 8.808-9.89 19.358-19.87 40.696-34.46 56.709-2.03 2.231-2.28 5.67-4.12 8.063-6.59 8.571-14.86 16.761-21.87 25.198-7.31 8.798-13.47 18.507-20.65 27.39-4.27 5.275-12.26 10.135-15.56 15.907-4.77 8.324-10.72 16.764-16.27 24.935-2.4 3.532-6.58 6.746-8.5 10.518-4.69 9.16-8.94 18.282-13.33 27.61-1.6 3.387-4.72 5.903-6.32 9.29-1.97 4.199-1.74 9.544-3.86 13.674-2.43 4.757-5.24 9.492-7.76 14.419-1.34 2.635-1.06 5.91-2.41 8.546-4.45 8.712-13.49 18.698-13.81 29.319-.21 7.112 10.99 17.189 16.17 21.173 1.88 1.443 4.78.752 6.84 1.929 2.29 1.316 3.57 4.028 5.87 5.348 2.57 1.47 5.91 1.07 8.54 2.41 15.69 8.02 27.02 8.14 43.7 8.64 3.88.12 7.83-2.34 11.7-2.23 15.7.47 30.79-4.26 46.33-7.22 1.84-.35 3.83.31 5.61-.26 7.7-2.49 15.29-7.946 23.15-10.08 10.2-2.772 26.95-43.895 37.51-46.764 14.92-4.054 29.76-9.877 45.1-9.415 4.92.148 11.82-1.615 13.19 5.569 1.58 8.278-10.12 15.947-13.59 22-.58 1.027-.16 2.543-.96 3.418-2.3 2.522-9.95 6.124-13.15 7.361-5.24 2.023-9.32 4.74-14.86 6.879-6.52 2.515-18.59 33.622-25.39 35.472-8.01 2.18-19.35 9.51-27.25 12.56-12.62 4.87-22.23 16.09-32.61 24.01-7.1 5.43-14.38 8.05-21.92 12.27-8.48 4.75-18.99 9.01-25.07 16.91-2.21 2.87-3.56 6.27-6.31 9.29-3.11 3.42-7.5 12.32-4.83 17.1 3.37 6.01 12.15 7.12 17.84 8.72 14.83 4.19 29.95-.51 44.88-2.09 13.09-1.39 26.88-2.71 40.24-5.26 5.54-1.05 11.89-.4 17.31-2.49 8.59-3.32 17.58-6.67 26.56-9.11 8.19-2.23 101.52-161.142 109.67-163.069 21.95-5.185 54.59-235.865 54.59-235.865 2.88-5.764 16.1-98.292 21.13-110.276 10.57-25.178 22.1-48.234 19.22-48.234-2.88 0 96.07-259.329 104.44-261.842 6.46-1.941 23.91-3.255 18.76-7.623-7.37-6.26 37.87-7.746 56.8-11.648 17.99-3.708 60.86-11.924 78.98-14.984 15.62-2.637 21.04-1.728 47.56-5.032 30.32-3.777 57.73-4.566 90.76 5.32 13.89 4.157 28.22 3.62 42.47 6.451 9.68 1.921 18.96 14.729 26.58 30.568 11.46 23.808 19.18 54.466 18.86 65.293-.18 5.775-25.94 17.292-43.23-1.441-15.85-17.162-35.36-37.618-57.14-30.571-16.64 5.385-32.31 12.681-49.22 17.479-13.32 3.781-26.94 6.049-39.97 10.862-9.73 3.591-19.32 9.069-29.24 12.048-10.5 3.152-7.04.137-34.63 4.99-4.96.874-10.23-.313-15.12 1.268-21.97 7.111-71.66 10.665-94.09 16.252-29.34 7.305-112.49 261.297-112.49 296.623 0 38.907 8.65 72.05 1.45 102.312-6.8 28.557-73.88 227.159-102.32 234.879-6.22 1.7-57.39 95.67-63.4 97.99-8.79 3.4-60.53 68.74-68.93 73.45-3.01 1.68-4.73 5.09-7.54 7.1-5.46 3.9-13.28 7.58-16.79 13.71-1.21 2.12-1.99 4.55-3.64 6.36-2.41 2.65-6.24 5.7-8.02 8.8-2.6 4.54-3.49 10.44-6.05 14.91-3.83 6.68-15.5 20.48-13.81 29.31.31 1.65 2.01 2.77 2.45 4.39 1.26 4.64.01 10.48 1.27 15.12 1.8 6.63 6.97 14.4 11.04 19.72 3.21 4.21 10.08 5.28 14.42 7.77 7.99 4.57 15.97 8.16 24.19 12.36 5.95 3.04 11.21 7.29 17.35 10.43 18.31 9.36 38.86 15.69 57.9 23.73 22.92 9.67 45.64 20.26 69.86 27.1 21.41 6.04 51.2 54.01 73.28 57.17 12.55 1.81 71.43 171.15 110.19 272.69 18.9 49.52 97.08 326.9 110.74 327.78 3.73.24 7.5-.94 11.22-.53 3.53.39 7.89.25 10.25 2.9 37.92 42.41 52.33 48.17 118.97 60.43 16.13 2.97 27.83 16.41 40.59 26.22 9.69 7.45 20.52 19.64 20.11 33.36-.32 10.42-6.35 19.24-15.79 23.22-2.43 1.03-5.87-.32-7.8 1.49-12.52 11.75-40.35 10.09-64.65.21-5.05-2.06-82.58-60.41-86.75-56.88-5.67 4.8-6.26-.53-8.55-2.41-63.25-51.88-100.88-199.4-113.98-205.2-8.33-3.7-17.53-42.09-42.96-90.83-25.43-48.75-21.27-97.86-28.01-113.67-31.25-73.26-102.98-214.28-119.86-245.63-27.94-51.88-76.87-50.99-133.54-66.99-9.48-2.67-17.19-3.53-26.61-3.82-4.01-.12-7.94-3.25-11.96-3.37-7.11-.22-14.77-.45-21.96-.66-3.87-.12-7.83 2.35-11.7 2.23-7.73-.23-15.9-.85-20.47 7.14-7.81 13.63-.96 25.76 11.08 32.65 4.99 2.86 12.11 1.97 17.09 4.83 5.36 3.06 10.31 6.89 15.65 9.95 3.36 1.93 5.44 6.1 8.81 8.02 16.19 9.27 33.18 17.52 49.61 26.92 2.05 1.18 4.73.86 6.83 1.93 4.24 2.17 6.86 5.69 10.52 8.51 10.76 8.27 20.74 17.2 31.55 25.51 3.64 2.8 10.7 8.82 12.97 12.89.65 1.16 5.55 4.12 6.41 5.13.77.9-3.12-1.06-2.24-.26 7.39 6.73 19.14 13.98 21 23.73.6 3.14-3.03 15.14-4.53 15.98-2.73 1.53-19.6-.77-21.33-2.1-10.15-7.81-16.54-14.62-27.53-20.92-5.73-3.28-11.62-7.15-17.36-10.44-8.45-4.84-19.85-5.45-28.57-9.91-6.62-3.38-11.97-9.24-18.59-12.62-5.21-2.67-11.35-3.85-16.61-6.54-3.07-1.57-4.54-5.21-7.09-7.54-.88-.79-2.4-.37-3.42-.96-2.3-1.32-3.58-4.03-5.88-5.35-7.79-4.46-16.16-8.26-24.19-12.36-6.69-3.42-15.35-4.33-21.73-7.98-3.28-1.88-12.24-7.95-16.61-6.54-2.46.8-8.37 20.34-8.47 23.45-.37 12.41 11.95 15.77 20.07 20.43 12.35 7.07 26.84 13.15 38.13 21.83 8.79 6.76 18.76 18.72 25.46 27.49 7.59 9.94 12.98 21.68 20.59 31.65 13.23 17.32 29.45 35.84 37.51 56.72 6.34 16.41 8.67 35.82 10.9 52.9.5 3.76 3.44 6.82 4.43 10.48.98 3.61-.18 7.54.52 11.22 1.94 10.15 4.62 20.95 5.96 31.2 1.01 7.73 23.57 37.15 25.83 44.9 8.3 28.5 14.08 38.72 13.19 68.35-.1 3.26-11.5 9.51-15.2 11.58-10.09 5.65-18.86-20.83-22.04-26.52-8.34-14.89-13.94-32.05-19.67-47.99-4.09-11.36-3.66-24.34-8.41-35.59-4.16-9.84-5.56-20.84-9.86-30.47-7.11-15.93-16.82-32.62-25.28-47.73-8.03-14.35-20.22-26.87-31.59-38.45-9.98-10.15-17.26-22-25.72-33.09-6.82-8.93-15.48-14.1-23.49-21.39-10.22-9.31-27.99-18.95-42.51-19.38-2.44-.08-4.97.44-7.32-.22-1.61-.46-16.9-4.94-17.09-4.83-2.13 1.19-2 4.55-3.64 6.36M995.277 982.744c-2.927-4.092-6.699-6.671-10.035-10.214-4.772-5.07-8.95-11.729-13.715-16.789-10.051-10.676-21.609-21.474-34.006-29.898-7.157-4.864-16.473-7.945-24.191-12.364-6.146-3.52-10.927-8.739-16.872-12.144-4.918-2.816-1.349-2.766-5.39-7.058-5.427-5.764-10.521-10.85-15.425-17.271-10.622-13.909-16.982-18.29-11.827-36.556.643-2.279.335-5.086 1.93-6.837 10.174-11.17 31.217 17.877 38.127 21.834 13.114 7.51 27.012 14.972 39.837 22.316 2.055 1.177 4.782.753 6.837 1.93 11.454 6.559 20.232 19.032 31.552 25.515 9.51 5.446 16.69 13.251 25.681 20.166 2.85 2.195 6.57 2.965 9.77 4.603 5.45 2.786 10.32 6.904 15.65 9.953 1.4.803 21.36 6.55 22.22 6.271 8.73-2.826 19.89-26.671 17.45-35.674-4.56-16.783-17.24-29.41-24.06-45.542-6.91-16.38-13.36-28.501-25.01-42.125-10.81-12.628-24.041-23.589-33.79-37.217-2.435-3.404-3.767-7.506-6.134-10.958-10.431-15.216-24.764-27.277-36.239-41.601-11.664-14.559-20.927-30.614-33.565-44.536-7.848-8.645-16.77-16.314-24.233-25.294-14.843-17.859-26.276-38.29-41.408-55.977-5.676-6.635-21.685-21.992-26.687-29.678-6.849-10.526-11.241-22.558-18.402-32.875-7.772-11.196-17.738-20.705-26.204-31.386-9.933-12.532-12.368-20.66-19.629-35.067-7.548-14.975-12.964-31.164-20.153-46.287-5.268-11.083-10.709-16.457-15.949-28.492-.747-1.716.169-3.788-.261-5.61-.982-4.155-3.143-7.992-3.943-12.185-2.394-12.547-1.24-26.55-1.834-39.272-.674-14.446 2.14-36.048 14.735-45.667 12.488-9.537 30.902-3.962 43.917 1.323 13.77 5.592 22.62 19.138 32.297 29.415 3.858 4.099 9.271 7.37 13.453 11.179 11.755 10.706 23.176 23.752 32.076 36.735 4.101 5.982 7.986 10.189 9.815 17.533 7.914 31.78 34.437 53.303 46.619 83.284 5.694 14.013 8.331 28.486 13.798 42.648 6.061 15.701 18.64 28.158 26.728 42.607 11.198 20.005 16.55 42.093 28.741 61.629 9.891 15.851 23.362 28.85 33.562 44.537 8.88 13.647 13.31 30.037 22.83 43.351 1.54 2.153 4.15 3.336 5.87 5.348 3.55 4.147 5.9 9.193 9.07 13.632 2.31 3.23 6.4 4.867 8.81 8.023 2.03 2.661 3.05 5.978 4.91 8.766 2.36 3.555 6.24 6.007 8.32 9.732 4.24 7.568 6.85 16.201 11.79 23.626 9.21 13.841 20.96 24.927 32.08 36.735 1.14 1.219 1.3 3.164 2.45 4.383 3.01 3.198 7.73 4.861 10.52 8.505 1.01 1.331 1.21 3.256 2.45 4.383.88.797 2.39.377 3.42.965 2.3 1.316 3.51 4.143 5.87 5.348 9.07 4.635 24.63 11.516 35.41 11.841 23.02.693 28.5-27.853 27.67-45.709-.36-7.718-4.4-13.37-7.14-20.47-1.34-3.448-.44-8.49-2.24-11.702-1.85-3.308-5.25-5.713-6.61-9.25-5.89-15.252-12.67-34.683-11.39-51.194.65-8.353 1.01-22.151 9.43-26.866 2.49-1.392 25.93 4.284 27.83 6.01 2.03 1.848 6.47 8.988 7.84 11.441 1.69 3.012 1.03 6.981 2.72 9.994 4.09 7.302 8.31 15.402 11.78 23.626 5.28 12.5 7.4 24.898 15.73 35.811 3.54 4.636 18.76 16.696 23.97 19.683 2.06 1.177 4.78.753 6.84 1.93 2.76 1.583 9.34 6.814 13.19 5.569 4.4-1.423 5.56-13.139 6.53-16.61 4.96-17.559.53-40.062-6.03-57.067-1.37-3.536-2.58-7.168-4.43-10.476-1.04-1.862-3.33-2.899-4.16-4.866-4.79-11.348-8.38-23.172-12.31-34.846-6.65-19.738-11.86-40.52-18-60.444-3.78-12.257-7.89-24.385-11.83-36.555-2.45-7.578-7.69-14.004-10.56-21.435-6.11-15.824-7.72-29.56-11.12-45.584-6.76-31.784-23.68-60.792-35.18-91.127-11.54-30.421-19.71-62.591-32.99-92.354-6.89-15.456-15.84-29.598-20.15-46.287-4.2-16.259-5.55-32.755-10.16-49.003-2.85-10.056-5.78-20.668-5.96-31.207-.25-15.433 6.5-40.816 24.99-42.773 12.83-1.357 21.9 5.513 31.52 12.585 10.32 7.588 21.81 11.706 30.8 21.613 15.38 16.943 25.29 37.848 39.7 55.495 10.62 12.996 11.21 36.688 16.95 53.143 3.52 10.097 5.39 91.176 9.06 101.379 12.54 34.868 7.74 35.215 18.14 70.883 4.45 15.279 12.64 37.333 16.48 52.75 4.74 19.05 8.27 46.466 21.43 60.992 23.9 26.375 15.66 25.551 28.02 53.574 5.07 11.48 10.78 7.865 14.02 19.781 1.04 3.833 5.05-4.318 5.3-1.361.47 5.482 8.91 18.16 12.53 27.527 2.47 6.408 2.94 13.529 5.43 19.987 1.07 2.775.72 6.771 1.01 9.511 1.12 10.648 3.89 21.919 7.66 31.69 2.51 6.498 9.06 13.039 13.23 18.498 7.57 9.905 13.44 22.588 24.98 29.195 3.83 2.19 6.24 1.383 9.77 4.604M1008.42 1003.8c-6.76-1.91-8.15-10.91-12.007-16.306m-10.792 57.856c-3.364 4.95-29.94.77-34.888-.62-10.79-3.05-22.047-5.8-31.993-10.88-9.218-4.71-17.256-11.15-27.128-15.04-9.147-3.6-19.653-5.71-28.574-9.91-11.785-5.55-25.197-7.04-37.121-12.321-31.949-14.152-67.604-20.635-102.293-23.335-10.139-.79-15.506.533-24.633 2.274-14.541 2.775-30.252 1.016-44.881 2.096-10.815.798-21.607 2.855-32.434 3.763-23.916 2.006-47.838 2.482-71.706 5.597-10.598 1.384-21.29 5.207-31.69 7.664-12.415 2.934-20.097 2.504-32.399 5.842-5.76 1.57-16.132-.836-21.469 2.15-5.737 3.21-14.952 3.5-21.468 6.01-2.636 1.02-16.112 22.31-16.756 24.6-1.333 4.72 8.732 15.77 9.457 16.19 13.31 7.73 17.23-1.63 28.767-1.29 3.446.11 32.627-8.85 36.067-8.58 13.056 1.01 22.324.71 35.208 1.71 16.008 1.25 17.332 3.47 33.251 2.73 4.944-.23 10.584-3.13 15.604-2.98 8.54.26 17.128.84 25.859-.08 3.433-.36 6.545-2.56 9.993-2.72 1.774-.08 3.357 1.31 5.128 1.45 11.944.93 35.68-1.8 47.555-5.03 8.028-2.18 18.385-4.27 27.307-5.21 2.355-.25 4.47 1.86 6.837 1.93 15.433.46 30.484 5.71 45.888 7.41 15.631 1.73 30.795 5.24 46.37 5.71 4.592.14 9.081 3.72 13.674 3.86 21.995.66 49.113 8.27 68.37 19.3 4.226 2.42 8.464 4.84 12.709 7.27 3.987 2.29 9.687 1.58 13.674 3.86 6.363 3.65 12.718 7.29 19.063 10.92 2.298 1.32 3.575 4.03 5.873 5.35 6.902 3.95 10.491 3.32 15.162 11.66 3.588 6.41 1.066 22.38-.882 29.28-.85 3.01-1.344 7.55-2.894 10.25-5.358 9.36-15.902 16.42-26.038 20.34-3.705 1.43-7.925 1.01-11.703 2.23-10.311 3.33-20.597 8.75-30.946 11.56-20.909 5.69-44.772 1.27-66.095 5.34-15.197 2.9-30.967 10.17-46.811 8.93-23.036-1.79-44.491 3.77-67.805 4.85-8.555.4-17.324-.82-25.859.09-16.409 1.73-32.312 5.97-48.52 8.45-40.502 6.18-81.374 8.68-121.935 13.56-29.676 3.57-58.82 10.1-88.757 13.7-9.103 1.1-17.317 5.03-26.079 7.41-9.802 2.66-19.552 4.54-29.498 6.43-13.902 2.66-28.263 6.04-41.684 10.38-5.576 1.81-10.228 5.73-15.342 8.59-7.342 4.11-15.294 7.05-23.143 10.08-14.044 5.42-29.646 8.34-41.904 17.7-14.912 11.39-24.849 28.52-36.211 43.29-6.785 8.83-19.053 17.37-19.421 29.59-.233 7.71 20.452 17.03 26.645 16.74 29.949-1.4 58.942-6.39 88.274-11.99 12.977-2.48 26.104-3.78 39.009-7.44 17.289-4.91 32.168-14.83 49.706-19.19 16.596-4.14 33.018-7.07 49.485-11.87 4.58-1.34 9.587-1.05 13.894-3.46 14.192-7.94 31.677-14.77 47.997-19.67 10.739-3.23 22.002-5.08 32.172-9.37 10.562-4.47 22.048-10.04 33.137-12.8 11.465-2.85 23.701-3.01 35.108-6.7 9.519-3.08 19.409-7.98 27.527-12.53 3.013-1.68 6.71-1.65 9.994-2.71 12.475-4.04 28.004-8.06 41.201-8.67 7.417-.35 5.586 1 11.22-.53 13.596-3.69 27.675-7.7 41.684-10.38 14.512-2.77 29.694-3.24 44.137-5.99 20.4-3.9 42.54-11.36 63.641-9.72 10.407.81 21.151-.66 31.47-.35 4.821.15 7.951-2.79 12.185-3.94 4.924-1.34 11.895-.93 16.83-.78 1.393.04 20.179 5.4 20.511 5.78 1.721 2.02 1.569 5.16 1.489 7.81-.036 1.18-.065 2.65-.965 3.41-4.821 4.13-7.026-2.92-7.581-5.83m1.958 78.06c-13.735 15.08-39.91 13.89-57.508 20.68-5.58 2.16-10.574 5.92-15.341 8.59-3.409 1.91-8.491 2.51-12.186 3.94-10.174 3.93-19.686 9.52-29.718 13.76-3.659 1.54-7.871 1.19-11.703 2.23-4.911 1.34-12.62 5.63-17.051 8.11-15.751 8.81-26.663 22.15-40.636 32.82-8.726 6.66-17.067 13.91-26.038 20.33-4.401 3.15-12.69 6.4-12.888 12.97-.177 5.89 8.668 10.03 13.936 9.47 6.998-.74 25.892-10.68 31.91-14.98 6.532-4.68 12.279-7.9 19.725-11.05 7.63-3.22 17.159-3.84 24.371-7.88 13.731-7.69 27.774-15.55 41.642-23.31 11.791-6.6 23.397-13.75 37.52-15.25 6.598-.69 14.66-3.43 21.214-3.23 2.367.07 4.47 1.85 6.837 1.93 3.73.11 7.523-.64 11.22-.53 4.442.13 12.244-6.04 15.604-2.98 7.438 6.78-2.751 29.95-6.712 36.86-3.15 5.5-9.496 9.64-13.371 14.68-19.41 25.24-49.104 27.87-76.226 41.23-12.491 6.16-23.135 14.98-35.55 21.34-17.552 8.99-35.168 17.56-52.117 27.73-14.518 8.72-26.75 20.77-40.154 31.12-21.004 16.21-44.257 29.45-64.744 46.31-17.878 14.72-34.005 31.47-51.814 46.28-16.673 13.85-34.198 26.7-50.367 41.14-17.681 15.79-31.86 34.77-49.361 50.66-33.01 29.97-62.694 66.25-83.339 105.66-5.258 10.03-10.729 18.4-13.811 29.32-.322 1.13-1.684 2.47-.965 3.41 1.482 1.94 4.006 2.98 6.355 3.64 5.633 1.59 30.327-12.66 35.811-15.73 31.42-17.58 61.694-37.11 91.788-57.13 31.013-20.64 57.908-45.12 87.364-67.61 16.928-12.93 36.795-22.59 52.821-36.77 13.493-11.94 23.602-27.47 36.955-39.39 10.966-9.8 24.817-16.15 36.514-24.76 9.527-7.01 18.287-15.84 27.003-23.75 11.881-10.79 25.897-20.18 36.735-32.08 3.036-3.33 5.289-7.35 8.505-10.51 8.34-8.2 20.243-12.33 29.457-19.37 6.107-4.67 12.213-8.74 18.498-13.23 2.153-1.54 3.038-4.58 5.348-5.88 1.155-.64 2.746-.09 3.901-.74 7.696-4.31 14.598-12.49 21.655-17.88 12.003-9.17 31.729-13.26 46.067-12.83 5.358.16 13.25-1.8 18.539-.31 6.73 1.9 2.371 11.22 1.269 15.13-3.981 14.1-9.513 25.78-19.643 36.9-14.985 16.45-36.472 26.57-52.558 42.37-25.149 24.71-46.911 53.14-65.847 82.91-6.876 10.81-13.806 22.06-20.386 33-7.136 11.87-10.378 25.46-16.224 37.87-4.551 9.66-10.182 19.26-13.812 29.32-7.805 21.62-12.486 44.79-17.105 67.14-2.668 12.91-6.161 25.28-7.195 38.57-1.705 21.9 1.559 43.3 1.916 65.13.05 3.02-1.02 6.03-.703 9.03 1.499 14.16 6.136 28.66 8.189 42.91 1.402 9.73 2.87 17.9 5.21 27.3.771 3.1.025 6.48 1.007 9.51 4.671 14.44 14.088 27.44 22.082 39.45 7.601 11.43 16.72 23.35 32.035 23.81 4.429.13 4.158-1.61 8.284-3.2 14.326-5.53 5.073-24.26 2.812-36.11-1.376-7.22-.297-18.53-3.984-25.12-.646-1.15-2.289-1.52-2.936-2.67-2.745-4.9-3.945-14.52-5.431-19.99-1.539-5.66-2.1-12.34-4.204-17.79-1.926-4.99-5.13-10.4-4.687-16.09.928-11.93-.231-24.52 1.102-36.6 1.285-11.64.268-23.19.62-34.89.122-4.02 1.681-8.46 1.668-12.44-.009-2.65-1.638-5.16-1.489-7.8.167-2.96 1.928-5.63 2.412-8.55.894-5.38.104-10.95.924-16.35 1.979-13.03 5.739-25.38 7.195-38.57.959-8.68 5.805-17.01 7.236-25.64 10.337-62.29 32.929-128 80.94-169.07 5.012-4.29 8.705-10.29 13.37-14.68 2.438-2.3 6.043-2.96 8.767-4.91 7.484-5.36 13.347-11.79 21.172-16.17 5.082-2.84 13.525-1.43 19.022-2.01 5.073-.54 3.523-1.48 9.512-1.01 4.591.36 9.077 3.72 13.674 3.86 8.22.25 18.219 1.7 22.964 10.17 5.085 9.09-3.275 22.88-3.556 32.22-.45 14.94-4.446 28.83-8.642 43.69-1.519 5.38-2.308 12.17-4.825 17.1-13.139 25.7-28.474 50.63-40.249 77.21-.959 2.17-.92 4.7-1.929 6.84-1.08 2.29-17.102 24.29-2.371 21.48 9.113-1.74 24.753-28.53 28.671-36.2 1.347-2.64 1.065-5.91 2.412-8.55 9.068-17.74 16.836-39.22 33.013-51.58 2.533-1.93 3.297-5.64 5.83-7.58 1.052-.8 2.748-.1 3.898-.74 2.31-1.3 3.04-4.58 5.35-5.88 1.16-.64 2.75-.09 3.9-.74 8.47-4.74 20.15-11.89 30.95-11.56 2.36.07 4.47 1.85 6.83 1.93 1.97.05 5.41-2.03 7.32.22 3.16 3.69 2.95 11.56 4.69 16.08 2.11 5.47 6.26 12.88 9.82 17.54 5.4 7.07 7.42 13.31 10.55 21.43 3.49 9.03 7.32 17.97 10.83 27.04 1.2 3.13 4.02 5.54 4.9 8.77 3.5 12.89 2.09 28.02 1.35 40.98-2.1 37.25-12.88 71.79-23.07 107.9-9.23 32.71-19.26 64.7-30.92 96.47-8.38 22.84-21.71 43.2-32.97 64.51-14.647 27.71-27.914 56.15-42.177 84.05-8.243 16.13-20.096 29.8-29.374 45.23-8.43 14.02-13.028 29.71-19.863 44.22-6.686 14.19-15.688 27.63-22.799 41.55-5.99 11.72-17.758 21-25.514 31.55-2.67 3.63-5.469 7.18-8.505 10.52-2.2 2.41-5.693 5.77-3.639 6.35 2.548.72 3.566-3.91 5.349-5.87 4.333-4.76 11.885-9.16 18.015-11.53 3.695-1.42 8.777-2.03 12.186-3.94 8.629-4.83 15.875-13.4 23.846-19.1 13.113-9.38 21.207-17.1 28.933-30.59 4.981-8.7 13.325-15.36 17.974-24.45 3.795-7.43 6.404-15.6 10.173-22.97 12.756-24.96 21.399-51.41 32.925-77.44 2.85-6.41 2.81-14.17 5.79-20.51 3.34-7.08 6.13-14.27 9.69-21.26 2.12-4.13 1.88-9.46 3.86-13.67 6.37-13.51 12.22-27.73 18.9-40.8 1.71-3.33 4.72-5.9 6.31-9.29 4.5-9.55 6.82-20.58 12.11-29.8 10.22-17.86 22.42-35.46 31.78-53.78 1.62-3.16 1.38-7.04 2.9-10.25 3.79-8.06 7.15-16.39 10.65-24.67 7.7-18.24 8.03-42.51 16.89-59.83 3.29-6.44 7.37-13.98 7.98-21.74.32-4.16-.38-8.58-.04-12.93.47-6.05 3.64-12.9 5.3-18.8 1.93-6.81 6.06-15.21 6.28-22.22.09-3.18-.93-11.52 2.15-14.15 8.17-7 10.11 7.78 11.74 10.69 1.45 2.59 4.32 4.3 5.39 7.06 7.38 19.12 7.13 38.53 5.55 58.78-1.42 18.27-4.38 37.05-6.4 55.39-2.79 25.28-17.36 48.43-24.17 72.54-2.22 7.89-13.06 30.24-2.81 36.11 3.93 2.25 12.32-5.74 15.34-8.59 12.66-11.92 20.8-27.91 25.48-44.48 5.61-19.9 6.36-36.35 8.6-56.62.83-7.56 4.33-14.98 4.56-22.71.48-15.85 1.73-30.93 9.12-45.4.81-1.58.64-3.55 1.45-5.13 2.87-5.62 22.62-26.15 27.97-27.17m23.46 14.78c-1.14-.32-2.4-.38-3.43-.96-1.15-.66-2.58-3.96-2.94-2.69-.95 3.37 6.76 7.67 8.32 9.73 5.37 7.02 9.18 16.4 13.5 24.1 4.43 7.93 8.39 16.62 13.52 24.11 1.2 1.76 3.27 2.92 4.14 4.87 1.08 2.42.61 5.3 1.5 7.8 4.87 13.51 8.83 27.04 10.38 41.69 3.57 33.77-2.48 67.68-.91 101.25 1.58 33.9 19.42 64.48 28.12 96.52 2.45 9 5.14 18.36 6.94 27.77.65 3.43-.66 11.55 3.44 13.9 3.3 1.88 7.83-4.78 9.24-6.62 6.28-8.16 10.88-19.93 10.4-30.28-.32-6.84-1.43-12.18-2.01-19.01-.5-6.05.85-12.51-.31-18.56-4.85-25.41-19.27-48.2-21.46-74.32-1.55-18.48-.21-37.73-2.61-56.1-1.39-10.64-6.21-23.7-5-34.62.92-8.37 1.39-17.03 1.64-25.39.26-8.44 5.44-19.26 7.72-27.34.88-3.14 1.41-7.35 2.89-10.25 2.16-4.23 6.24-6.59 8.49-10.53 2.21-3.86 4.63-9.78 9.01-12.23 1.15-.65 2.75-.1 3.91-.75 3.43-1.91 9.23-9.83 14.35-5.17 3.85 3.51 4.99 8.91 7.36 13.15 3.29 5.88 10.32 10.7 13.74 16.8 3.68 6.58 7.35 13.13 11.03 19.71 6.25 11.16 8.27 25.22 13.54 37.04 6.1 13.67 14.82 26.59 19.88 40.68 1.5 4.16 1.91 13.33 2.48 17.32 2.4 16.66 4.14 33.26 6.29 49.74.79 6-.51 12.46.29 18.55 3.77 28.95 7.95 60.05 2.49 89.29-4.11 22.03-14.05 42.93-18.32 64.93-6.16 31.67-16.44 67.91-19.53 100.25-2.09 21.86-5.72 44.67-5.91 66.62-.04 4.2 5.07 22.59 5.44 26.78 8.53 1.93 12.53-12.81 20.25-10.07 2.8-6.08 3.91-8.86 8.32-18.02 6.41-13.32 9.26-24.74 7.62-20.12-1.65 4.62 3.49-19.71 3.26-25.32-.32-7.59.54-14.78 2.2-22.21 1.07-4.72 2.31-9.03 4.1-14.52l1.06-3.18c1.63-4.89 2.17-6.68 2.34-7.46.38-1.84.97-4.58 1.37-6.49-2.32-13.01 4.46-30.75 11.32-40.91.48-2.35 1.45-6.8 1.95-9.32 4.5-22.66 7.02-40.18 7.76-55.57.16-3.23.09-6.62-.21-13.86-.47-11.07-.56-15.17-.31-21.78.41-11.06 2.07-21.39 5.26-31.18-.49-7.06-1.05-14.39-1.3-20.37-1.15-12.99-1.56-25.52-.96-37.91.05-1.1.05-3.08-.02-6.01-.05-1.96-.32-9.89-.35-11.07-.15-4.87-.2-8.87-.17-12.88.1-13.24 1.19-24.38 4.23-35.23.1-.36.23-.7.33-1.05-2.19-7.28-3.75-12.97-4.97-19.32-5.08-26.66 7.22-115.95 33.88-121.04 6.22-1.18 17.54 62.52 23.4 63.62-.15-1.49 47.31 108.31 17.68-51.54-2.95-15.93 1.1-15.13 13.73-24.78 16.15-12.33 24.78 20.72 32.51 34.52 3.65 6.53 7.73 22.71 9.84 30.47.49 1.81-.4 3.86.27 5.6.48 1.24 2.14 1.63 2.94 2.68 4.22 5.53 6.86 12.9 9.31 19.26 3.53 9.14 2.95 19.63 4.74 29 1.6 8.37 4.59 17.15 5.7 25.6.31 2.42-.67 4.92-.22 7.31.79 4.11 4.42 7.16 6.13 10.98 4.1 9.21 8.42 18.29 12.53 27.51 6.36 14.26 9.45 30.4 15.03 44.86 5.45 14.11 12.6 27.66 19.89 40.68 2.89 5.17 3.91 11.18 6.4 16.55 4.57 9.88 9.32 19.79 13.75 29.73 9.59 21.48 18.35 45.07 38.74 58.92 3.57 2.43 11.97 7.39 16.6 6.51 11.95-2.28 17.77-17.16 20.66-27.39 7.91-28.05 4.55-51-9.76-76.56-5.47-9.78-12.88-18.64-17.67-28.98-6.23-13.47-13.23-26.22-20.37-38.97-3.07-5.49-4.72-11.73-8.11-17.03-8.52-13.31-16.78-24.26-22.09-39.45-5.61-16.1-8-33.11-11.87-49.5-1.55-6.56-5.37-12.39-7.6-18.76-3.75-10.77-6.44-22.19-11.11-32.66-2.04-4.58-5.31-8.56-7.36-13.15-4.94-11.07-6.34-23.33-10.59-34.35-1.07-2.77-3.94-4.49-5.38-7.07-1.69-3.02-1.83-6.67-2.73-10-.86-3.14-.31-19.16 2.39-21.47 7.1-6.07 20.8 4.06 28.3 4.29 7.5.23 16.3-2.6 23.67 1.16 6.94 3.54 11.43 9.7 15.91 15.56 1.6 2.11 4.56 3.05 5.85 5.36 4.03 7.18 4.69 16.77 7.9 24.37 2.18 5.16 6.02 10.71 8.6 15.32 3.13 5.6 11.35 11.95 15.42 17.27 3.56 4.67 6.42 8.9 9.07 13.64 3.32 5.92 9.61 30.22 14.85 34.98 4.36 3.98 9.48 10.39 14.7 13.38 6.5 3.72 16.68 4.7 23.91 6.74 6.1 1.73 15.61 4.1 20.72-1.52 9.57-10.51-4.57-25.76-11.07-32.67-3.35-3.56-1.02-4.81-5.39-7.04-12.71-6.5-18.5-28.64-25.85-41.76-4.26-7.61-11.31-15.48-15.8-23.49-4.11-7.35-7.64-15.81-11.69-23.04-.64-1.16.15-2.9-.71-3.91-.77-.9-2.4-.37-3.43-.96-2.57-1.48-3.2-5.05-5.39-7.04-1.8-1.65-4.89-1.71-6.37-3.65-5.75-7.53-8.87-19.52-8.61-28.28.12-3.88-2.37-7.83-2.25-11.71.07-2.37 1.86-4.46 1.93-6.83.27-8.98-4.63-21.87 6-27.82 10.17-5.69 22.14 6.91 29.8 12.12 19.52 13.26 38.75 16.08 45.28 42.29 3.13 12.59 4.26 25.77 9.62 37.79 5.81 13.01 13 25.64 16.5 39.69 3.01 12.07 6.41 24.25 9.86 36.47 6.3 22.38 12.71 44.9 16.96 67.21 2.91 15.24 0 27.94 5.84 42.11 9.11 22.1 13.86 45.64 23.38 67.51 5.2 11.94 42.45 53.89 50.74 63.92 5.96 7.22 12.89 13.73 17.89 21.65 7.55 11.97 14.25 24.88 23.04 36.05 10.5 13.34 23.76 23.58 33.79 37.2 8.74 11.88 22.44 29.17 38.61 20.12 10.31-5.77 13.25-24.8 13.56-34.91.87-29.05-1.85-64.84-25.91-84.82-9.27-7.71-19.16-14.39-29.07-21.13-6.33-4.31-12.99-11.33-19.81-14.81-5.93-3.03-12.12-5.69-17.35-10.45-7.47-6.81-13.45-14.45-19.6-22.13-2.99-3.72-36.67-34.7-39.45-38.59-7.65-10.7-9.92-25.62-15.22-37.51-7.67-17.19-13.66-34.81-18.22-53.14-2.49-10-7.7-18.97-10.36-28.77-1.76-6.48-1.98-13.1-3.72-19.49-.56-2.06-1.88-3.98-1.98-6.11-.08-1.77 1.25-3.35 1.45-5.11 1.22-11.04-.21-26.64-2.29-37.57-2.04-10.66-5.65-21.01-7.68-31.68-.71-3.68.44-7.61-.54-11.22-.88-3.24-3.69-5.63-4.9-8.76-3.8-9.84-8.26-19.46-12.04-29.24-.95-2.47-.21-5.49-1.5-7.8-2.1-3.75-4.41-6.51-6.13-10.95-3.98-10.32-2.67-22.62-5.48-32.95-2.32-8.55-7.18-18.42-6.9-27.76.14-4.52.9-10.22.43-14.65-.82-7.75-4.22-16.98-3.98-25.12.19-6.25 3.9-18.33 6.75-23.91"></path>
    <path d="M907.205 1316.63c-13.735 15.08-39.91 13.89-57.508 20.68-5.58 2.16-10.574 5.92-15.341 8.59-3.409 1.91-8.491 2.51-12.186 3.94-10.174 3.93-19.686 9.52-29.718 13.76-3.659 1.54-7.871 1.19-11.703 2.23-4.911 1.34-12.62 5.63-17.051 8.11-15.751 8.81-26.663 22.15-40.636 32.82-8.726 6.66-17.067 13.91-26.038 20.33-4.401 3.15-12.69 6.4-12.888 12.97-.177 5.89 8.668 10.03 13.936 9.47 6.998-.74 25.892-10.68 31.91-14.98 6.532-4.68 12.279-7.9 19.725-11.05 7.63-3.22 17.159-3.84 24.371-7.88 13.731-7.69 27.774-15.55 41.642-23.31 11.791-6.6 23.397-13.75 37.52-15.25 6.598-.69 14.66-3.43 21.214-3.23 2.367.07 4.47 1.85 6.837 1.93 3.73.11 7.523-.64 11.22-.53 4.442.13 12.244-6.04 15.604-2.98 7.438 6.78-2.751 29.95-6.712 36.86-3.15 5.5-9.496 9.64-13.371 14.68-19.41 25.24-49.104 27.87-76.226 41.23-12.491 6.16-23.135 14.98-35.55 21.34-17.552 8.99-35.168 17.56-52.117 27.73-14.518 8.72-26.75 20.77-40.154 31.12-21.004 16.21-44.257 29.45-64.744 46.31-17.878 14.72-34.005 31.47-51.814 46.28-16.673 13.85-34.198 26.7-50.367 41.14-17.681 15.79-31.86 34.77-49.361 50.66-33.01 29.97-62.694 66.25-83.339 105.66-5.258 10.03-10.729 18.4-13.811 29.32-.322 1.13-1.684 2.47-.965 3.41 1.482 1.94 4.006 2.98 6.355 3.64 5.633 1.59 30.327-12.66 35.811-15.73 31.42-17.58 61.694-37.11 91.788-57.13 31.013-20.64 57.908-45.12 87.364-67.61 16.928-12.93 36.795-22.59 52.821-36.77 13.493-11.94 23.602-27.47 36.955-39.39 10.966-9.8 24.817-16.15 36.514-24.76 9.527-7.01 18.287-15.84 27.003-23.75 11.881-10.79 25.897-20.18 36.735-32.08 3.036-3.33 5.289-7.35 8.505-10.51 8.34-8.2 20.243-12.33 29.457-19.37 6.107-4.67 12.213-8.74 18.498-13.23 2.153-1.54 3.038-4.58 5.348-5.88 1.155-.64 2.746-.09 3.901-.74 7.696-4.31 14.598-12.49 21.655-17.88 12.003-9.17 31.729-13.26 46.067-12.83 5.358.16 13.25-1.8 18.539-.31 6.73 1.9 2.371 11.22 1.269 15.13-3.981 14.1-9.513 25.78-19.643 36.9-14.985 16.45-36.472 26.57-52.558 42.37-25.149 24.71-46.911 53.14-65.847 82.91-6.876 10.81-13.806 22.06-20.386 33-7.136 11.87-10.378 25.46-16.224 37.87-4.551 9.66-10.182 19.26-13.812 29.32-7.805 21.62-12.486 44.79-17.105 67.14-2.668 12.91-6.161 25.28-7.195 38.57-1.705 21.9 1.559 43.3 1.916 65.13.05 3.02-1.02 6.03-.703 9.03 1.499 14.16 6.136 28.66 8.189 42.91 1.402 9.73 2.87 17.9 5.21 27.3.771 3.1.025 6.48 1.007 9.51 4.671 14.44 14.088 27.44 22.082 39.45 7.601 11.43 16.72 23.35 32.035 23.81 4.429.13 4.158-1.61 8.284-3.2 14.326-5.53 5.073-24.26 2.812-36.11-1.376-7.22-.297-18.53-3.984-25.12-.646-1.15-2.289-1.52-2.936-2.67-2.745-4.9-3.945-14.52-5.431-19.99-1.539-5.66-2.1-12.34-4.204-17.79-1.926-4.99-5.13-10.4-4.687-16.09.928-11.93-.231-24.52 1.102-36.6 1.285-11.64.268-23.19.62-34.89.122-4.02 1.681-8.46 1.668-12.44-.009-2.65-1.638-5.16-1.489-7.8.167-2.96 1.928-5.63 2.412-8.55.894-5.38.104-10.95.924-16.35 1.979-13.03 5.739-25.38 7.195-38.57.959-8.68 5.805-17.01 7.236-25.64 10.337-62.29 32.929-128 80.94-169.07 5.012-4.29 8.705-10.29 13.37-14.68 2.438-2.3 6.043-2.96 8.767-4.91 7.484-5.36 13.347-11.79 21.172-16.17 5.082-2.84 13.525-1.43 19.022-2.01 5.073-.54 3.523-1.48 9.512-1.01 4.591.36 9.077 3.72 13.674 3.86 8.22.25 18.219 1.7 22.964 10.17 5.085 9.09-3.275 22.88-3.556 32.22-.45 14.94-4.446 28.83-8.642 43.69-1.519 5.38-2.308 12.17-4.825 17.1-13.139 25.7-28.474 50.63-40.249 77.21-.959 2.17-.92 4.7-1.929 6.84-1.08 2.29-17.102 24.29-2.371 21.48 9.113-1.74 24.753-28.53 28.671-36.2 1.347-2.64 1.065-5.91 2.412-8.55 9.068-17.74 16.836-39.22 33.013-51.58 2.533-1.93 3.297-5.64 5.83-7.58 1.052-.8 2.748-.1 3.898-.74 2.31-1.3 3.04-4.58 5.35-5.88 1.16-.64 2.75-.09 3.9-.74 8.47-4.74 20.15-11.89 30.95-11.56 2.36.07 4.47 1.85 6.83 1.93 1.97.05 5.41-2.03 7.32.22 3.16 3.69 2.95 11.56 4.69 16.08 2.11 5.47 6.26 12.88 9.82 17.54 5.4 7.07 7.42 13.31 10.55 21.43 3.49 9.03 7.32 17.97 10.83 27.04 1.2 3.13 4.02 5.54 4.9 8.77 3.5 12.89 2.09 28.02 1.35 40.98-2.1 37.25-12.88 71.79-23.07 107.9-9.23 32.71-19.26 64.7-30.92 96.47-8.38 22.84-21.71 43.2-32.97 64.51-14.647 27.71-27.914 56.15-42.177 84.05-8.243 16.13-20.096 29.8-29.374 45.23-8.43 14.02-13.028 29.71-19.863 44.22-6.686 14.19-15.688 27.63-22.799 41.55-5.99 11.72-17.758 21-25.514 31.55-2.67 3.63-5.469 7.18-8.505 10.52-2.2 2.41-5.693 5.77-3.639 6.35 2.548.72 3.566-3.91 5.349-5.87 4.333-4.76 11.885-9.16 18.015-11.53 3.695-1.42 8.777-2.03 12.186-3.94 8.629-4.83 15.875-13.4 23.846-19.1 13.113-9.38 21.207-17.1 28.933-30.59 4.981-8.7 13.325-15.36 17.974-24.45 3.795-7.43 6.404-15.6 10.173-22.97 12.756-24.96 21.399-51.41 32.925-77.44 2.85-6.41 2.81-14.17 5.79-20.51 3.34-7.08 6.13-14.27 9.69-21.26 2.12-4.13 1.88-9.46 3.86-13.67 6.37-13.51 12.22-27.73 18.9-40.8 1.71-3.33 4.72-5.9 6.31-9.29 4.5-9.55 6.82-20.58 12.11-29.8 10.22-17.86 22.42-35.46 31.78-53.78 1.62-3.16 1.38-7.04 2.9-10.25 3.79-8.06 7.15-16.39 10.65-24.67 7.7-18.24 8.03-42.51 16.89-59.83 3.29-6.44 7.37-13.98 7.98-21.74.32-4.16-.38-8.58-.04-12.93.47-6.05 3.64-12.9 5.3-18.8 1.93-6.81 6.06-15.21 6.28-22.22.09-3.18-.93-11.52 2.15-14.15 8.17-7 10.11 7.78 11.74 10.69 1.45 2.59 4.32 4.3 5.39 7.06 7.38 19.12 7.13 38.53 5.55 58.78-1.42 18.27-4.38 37.05-6.4 55.39-2.79 25.28-17.36 48.43-24.17 72.54-2.22 7.89-13.06 30.24-2.81 36.11 3.93 2.25 12.32-5.74 15.34-8.59 12.66-11.92 20.8-27.91 25.48-44.48 5.61-19.9 6.36-36.35 8.6-56.62.83-7.56 4.33-14.98 4.56-22.71.48-15.85 1.73-30.93 9.12-45.4.81-1.58.64-3.55 1.45-5.13 2.87-5.62 22.62-26.15 27.97-27.17"></path>
    <path d="M907.205 1316.63c-13.735 15.08-39.91 13.89-57.508 20.68-5.58 2.16-10.574 5.92-15.341 8.59-3.409 1.91-8.491 2.51-12.186 3.94-10.174 3.93-19.686 9.52-29.718 13.76-3.659 1.54-7.871 1.19-11.703 2.23-4.911 1.34-12.62 5.63-17.051 8.11-15.751 8.81-26.663 22.15-40.636 32.82-8.726 6.66-17.067 13.91-26.038 20.33-4.401 3.15-12.69 6.4-12.888 12.97-.177 5.89 8.668 10.03 13.936 9.47 6.998-.74 25.892-10.68 31.91-14.98 6.532-4.68 12.279-7.9 19.725-11.05 7.63-3.22 17.159-3.84 24.371-7.88 13.731-7.69 27.774-15.55 41.642-23.31 11.791-6.6 23.397-13.75 37.52-15.25 6.598-.69 14.66-3.43 21.214-3.23 2.367.07 4.47 1.85 6.837 1.93 3.73.11 7.523-.64 11.22-.53 4.442.13 12.244-6.04 15.604-2.98 7.438 6.78-2.751 29.95-6.712 36.86-3.15 5.5-9.496 9.64-13.371 14.68-19.41 25.24-49.104 27.87-76.226 41.23-12.491 6.16-23.135 14.98-35.55 21.34-17.552 8.99-35.168 17.56-52.117 27.73-14.518 8.72-26.75 20.77-40.154 31.12-21.004 16.21-44.257 29.45-64.744 46.31-17.878 14.72-34.005 31.47-51.814 46.28-16.673 13.85-34.198 26.7-50.367 41.14-17.681 15.79-31.86 34.77-49.361 50.66-33.01 29.97-62.694 66.25-83.339 105.66-5.258 10.03-10.729 18.4-13.811 29.32-.322 1.13-1.684 2.47-.965 3.41 1.482 1.94 4.006 2.98 6.355 3.64 5.633 1.59 30.327-12.66 35.811-15.73 31.42-17.58 61.694-37.11 91.788-57.13 31.013-20.64 57.908-45.12 87.364-67.61 16.928-12.93 36.795-22.59 52.821-36.77 13.493-11.94 23.602-27.47 36.955-39.39 10.966-9.8 24.817-16.15 36.514-24.76 9.527-7.01 18.287-15.84 27.003-23.75 11.881-10.79 25.897-20.18 36.735-32.08 3.036-3.33 5.289-7.35 8.505-10.51 8.34-8.2 20.243-12.33 29.457-19.37 6.107-4.67 12.213-8.74 18.498-13.23 2.153-1.54 3.038-4.58 5.348-5.88 1.155-.64 2.746-.09 3.901-.74 7.696-4.31 14.598-12.49 21.655-17.88 12.003-9.17 31.729-13.26 46.067-12.83 5.358.16 13.25-1.8 18.539-.31 6.73 1.9 2.371 11.22 1.269 15.13-3.981 14.1-9.513 25.78-19.643 36.9-14.985 16.45-36.472 26.57-52.558 42.37-25.149 24.71-46.911 53.14-65.847 82.91-6.876 10.81-13.806 22.06-20.386 33-7.136 11.87-10.378 25.46-16.224 37.87-4.551 9.66-10.182 19.26-13.812 29.32-7.805 21.62-12.486 44.79-17.105 67.14-2.668 12.91-6.161 25.28-7.195 38.57-1.705 21.9 1.559 43.3 1.916 65.13.05 3.02-1.02 6.03-.703 9.03 1.499 14.16 6.136 28.66 8.189 42.91 1.402 9.73 2.87 17.9 5.21 27.3.771 3.1.025 6.48 1.007 9.51 4.671 14.44 14.088 27.44 22.082 39.45 7.601 11.43 16.72 23.35 32.035 23.81 4.429.13 4.158-1.61 8.284-3.2 14.326-5.53 5.073-24.26 2.812-36.11-1.376-7.22-.297-18.53-3.984-25.12-.646-1.15-2.289-1.52-2.936-2.67-2.745-4.9-3.945-14.52-5.431-19.99-1.539-5.66-2.1-12.34-4.204-17.79-1.926-4.99-5.13-10.4-4.687-16.09.928-11.93-.231-24.52 1.102-36.6 1.285-11.64.268-23.19.62-34.89.122-4.02 1.681-8.46 1.668-12.44-.009-2.65-1.638-5.16-1.489-7.8.167-2.96 1.928-5.63 2.412-8.55.894-5.38.104-10.95.924-16.35 1.979-13.03 5.739-25.38 7.195-38.57.959-8.68 5.805-17.01 7.236-25.64 10.337-62.29 32.929-128 80.94-169.07 5.012-4.29 8.705-10.29 13.37-14.68 2.438-2.3 6.043-2.96 8.767-4.91 7.484-5.36 13.347-11.79 21.172-16.17 5.082-2.84 13.525-1.43 19.022-2.01 5.073-.54 3.523-1.48 9.512-1.01 4.591.36 9.077 3.72 13.674 3.86 8.22.25 18.219 1.7 22.964 10.17 5.085 9.09-3.275 22.88-3.556 32.22-.45 14.94-4.446 28.83-8.642 43.69-1.519 5.38-2.308 12.17-4.825 17.1-13.139 25.7-28.474 50.63-40.249 77.21-.959 2.17-.92 4.7-1.929 6.84-1.08 2.29-17.102 24.29-2.371 21.48 9.113-1.74 24.753-28.53 28.671-36.2 1.347-2.64 1.065-5.91 2.412-8.55 9.068-17.74 16.836-39.22 33.013-51.58 2.533-1.93 3.297-5.64 5.83-7.58 1.052-.8 2.748-.1 3.898-.74 2.31-1.3 3.04-4.58 5.35-5.88 1.16-.64 2.75-.09 3.9-.74 8.47-4.74 20.15-11.89 30.95-11.56 2.36.07 4.47 1.85 6.83 1.93 1.97.05 5.41-2.03 7.32.22 3.16 3.69 2.95 11.56 4.69 16.08 2.11 5.47 6.26 12.88 9.82 17.54 5.4 7.07 7.42 13.31 10.55 21.43 3.49 9.03 7.32 17.97 10.83 27.04 1.2 3.13 4.02 5.54 4.9 8.77 3.5 12.89 2.09 28.02 1.35 40.98-2.1 37.25-12.88 71.79-23.07 107.9-9.23 32.71-19.26 64.7-30.92 96.47-8.38 22.84-21.71 43.2-32.97 64.51-14.647 27.71-27.914 56.15-42.177 84.05-8.243 16.13-20.096 29.8-29.374 45.23-8.43 14.02-19.383 19.37-26.218 33.88-6.686 14.2-30.778 33.51-30.48 32.71 2.319-6.16-15.29 18.44-23.045 29-2.67 3.63-7.372 18.96-10.408 22.3-2.2 2.41-9.86 19.86-7.805 20.44 2.548.72 17.098 5.21 18.213 4.83 1.115-.37 14.313-5.44 20.443-7.8 3.695-1.43 17.035-7.76 20.444-9.67 8.629-4.83 17.187-30.34 23.417-37.91 5.204-6.32 15.722-11.13 23.448-24.62 4.981-8.7 13.325-15.36 17.974-24.45 3.795-7.43 6.404-15.6 10.173-22.97 12.756-24.96 21.399-51.41 32.925-77.44 2.85-6.41 2.81-14.17 5.79-20.51 3.34-7.08 6.13-14.27 9.69-21.26 2.12-4.13 1.88-9.46 3.86-13.67 6.37-13.51 12.22-27.73 18.9-40.8 1.71-3.33 4.72-5.9 6.31-9.29 4.5-9.55 6.82-20.58 12.11-29.8 10.22-17.86 22.42-35.46 31.78-53.78 1.62-3.16 1.38-7.04 2.9-10.25 3.79-8.06 7.15-16.39 10.65-24.67 7.7-18.24 8.03-42.51 16.89-59.83 3.29-6.44 7.37-13.98 7.98-21.74.32-4.16-.38-8.58-.04-12.93.47-6.05 3.64-12.9 5.3-18.8 1.93-6.81 6.06-15.21 6.28-22.22.09-3.18-.93-11.52 2.15-14.15 8.17-7 10.11 7.78 11.74 10.69 1.45 2.59 4.32 4.3 5.39 7.06 7.38 19.12 7.13 38.53 5.55 58.78-1.42 18.27-4.38 37.05-6.4 55.39-2.79 25.28-17.36 48.43-24.17 72.54-2.22 7.89-13.06 30.24-2.81 36.11 3.93 2.25 12.32-5.74 15.34-8.59 12.66-11.92 20.8-27.91 25.48-44.48 5.61-19.9 6.36-36.35 8.6-56.62.83-7.56 4.33-14.98 4.56-22.71.48-15.85 1.73-30.93 9.12-45.4.81-1.58.64-3.55 1.45-5.13 2.87-5.62 22.62-26.15 27.97-27.17m-320.294-559.78c7.614 17.34 5.396 36.09 4.472 54.58-.163 3.24-2.15 17.28-4.884 18.48m67.461-266.39c3.232.13 7.622-3 10.147-4.75 8.831-6.11 14.588-16.48 17.108-26.99.65-2.72 2.08-4.91 1.59-7.97-.18-1.11-1.11-1.41-1.52-2.31m844.92 588.02c-.54-1.68-2.14 2.58-2.72 3.97-2.16 5.12-1.84 10.12-2.8 15.38-.09.5-.31 5.44-.73 5.47-.31.02.21-4.09.26-4.36.64-3.52 1.68-7.74 3.08-11.05 1.34-3.19 3.98-6.09 2.91-9.41zm-616.09 208.34c3.88 1.57 6.6 5.2 9.26 8.23 2.2 2.5 5.37 4.14 7.1 7.03"></path>
  </g>
  <image
    width="1253"
    height="1213"
    overflow="visible"
    transform="translate(861.905 766.237)"
  ></image>
  <g
    stroke="#fbfbfb"
    strokeLinecap="square"
    strokeLinejoin="bevel"
    strokeWidth="12.984"
  >
    <path
      fill="#5d4428"
      d="M1654.09 1500.9h0c-107.22 76.01-247.25 85.12-312.76 20.36l-17.66-17.46c-65.51-64.77-142.3-158.14-35.08-234.15l86.03-60.49c57.81-53.49 71.17-120.83 132.6-117.3 66.68 3.83 164.7 79.69 198.8 113.4l33.31 36.89c65.51 64.77 21.98 182.74-85.24 258.75z"
    ></path>
    <path
      fill="#fbfbfb"
      d="M1757.5 1263.3c.02.48-25.57-35.37-25.57-35.37s-28.78-28.18-29.17-27.76c-5.12-1.76-10.51-3.22-15.04-5.72-23.36-13.43-50.94-24.11-82.45-24.26-10.7-1.4-21.84-1.09-32.74-1.68-7.51.89-15.04 1.77-22.56 2.5-7.2 1.43-14.26 3.4-21.37 5.18-11.91 2.19-24.37 3.37-35.09 8.91-1.64.71-3.32 1.35-5.03 1.92-7.75 2.81-16.07 3.9-23.91 6.35-11.78 4.44-20.92 12.31-32.72 16.78-1.46.67-2.88 1.39-4.24 2.18-8.59 5.74-16.98 11.66-26.16 16.84-6.52 5.59-14.64 12.85-21.51 18.22-11.08 7.23-18 14.71-28.37 22.47-6.25 7.22-13.46 14.04-18.2 21.86-8.34 9.75-15.03 20.19-19.77 31-2.84 8.63-4.34 17.4-6.62 26.08-.33 4.3.07 8.57-.67 12.9-1.52 8.51-3.45 17.03-2.06 25.4-.09 5.01-1.27 10.11-.2 15.01.52 5-.9 11.21.01 16.12.76 3.98 2.59 13.86 3.69 17.78 3.58 9.34 8.63 19.71 8.29 20.25-.53.86 3.4 8.3 4.13 9.52 9.96 13.54 31.07 38.19 30.78 39.76-.29 1.57 39.95 21.7 57.65 27.56 17.11 7.78 24.26 9.45 43.2 14.51 11.63 1.62 26.76 1.31 38.16 3.45 6.36.42 21.69-2.33 28.09-2.06 3.2.08 74.72-13.51 77.79-14.34-3.07.84-67.34 13.29-70.54 13.22-6.41-.26-29.38 3.46-35.74 3.06-11.42-2.12-22.57-1.98-34.23-3.52-19.07-4.92-43.76-10.6-48.85-13.29-5.09-2.69-41.59-18.11-55.98-27.9-13.15-12.17-37.65-40.2-37.05-41.41.6-1.21-4.1-4.16-4.69-5.56-2.3-9.61-6.25-16.47-10.53-25.3-2.04-4.34-1.5-6.9-2.42-11.47-1.34-4.88-.53-13.58-1.2-18.64-1.32-5.15-.53-10.54-.48-15.85-1.7-8.53-.06-17.3 1.33-26.03.64-4.36.04-8.63.41-12.97 2.18-9.29 3.43-16.33 6.49-25.56 4.75-11.08 6.65-13.18 17.93-30.68 5.49-8.66 15.27-20 22.53-27.93.89-.86 1.82-1.69 2.79-2.49 10.11-7.02 18.01-15.69 28.75-22.22 6.99-5.33 13.35-11.11 20.16-16.57 9.65-5.32 18.62-11.33 27.86-17.07 1.62-.88 3.3-1.7 5.02-2.44 11.67-4.14 21.06-11.45 32.69-15.61 7.95-2.92 16.61-3.23 24.72-5.76 1.62-.42 3.22-.91 4.79-1.46 11.93-5.52 25.3-6.79 38.31-8.46 7.24-1.54 14.47-3.25 21.78-4.43 7.68-.49 15.37-1.14 23.05-1.79 10.93.89 22.15.9 32.87 2.53 30.83.87 78.52 23.43 80.9 24.3 2.81 1.02 13.43 6.83 28.88 18.23"
    ></path>
  </g>
</svg>