<?xml version="1.0" encoding="UTF-8" standalone="no"?>
<svg height="100%" stroke-miterlimit="10" style="fill-rule:nonzero;clip-rule:evenodd;stroke-linecap:round;stroke-linejoin:round;" version="1.1" viewBox="0 0 419.58 297.675" width="100%" xmlns="http://www.w3.org/2000/svg">
<defs/>
<clipPath id="ArtboardFrame">
<rect height="297.675" width="419.58" x="0" y="0"/>
</clipPath>
<g clip-path="url(#ArtboardFrame)" id="Layer-Cyto" layerName="Layer Cyto">
<g opacity="1" layerName="(curve)">
<path d="M201.193 83.2756C165.933 83.2756 137.349 111.86 137.349 147.119C137.349 182.379 165.933 210.963 201.193 210.963C236.452 210.963 265.036 182.379 265.036 147.119C265.036 111.86 236.452 83.2756 201.193 83.2756Z" fill="none" opacity="1" stroke="#924c27" stroke-linecap="round" stroke-linejoin="round" stroke-width="19.1698"/>
<path d="M165.42 94.1853L105.802 143.336" fill="none" opacity="1" stroke="#924c27" stroke-linecap="round" stroke-linejoin="round" stroke-width="19.1698"/>
<path d="M328.775 145.076L228.057 89.5517" fill="none" opacity="1" stroke="#924c27" stroke-linecap="round" stroke-linejoin="round" stroke-width="19.1698"/>
<path d="M181.056 208.075L103.658 175.275" fill="none" opacity="1" stroke="#924c27" stroke-linecap="round" stroke-linejoin="round" stroke-width="19.1698"/>
<path d="M323.867 147.798L225.356 204.496" fill="none" opacity="1" stroke="#924c27" stroke-linecap="round" stroke-linejoin="round" stroke-width="19.1698"/>
<path d="M135.121 139.091C131.33 138.333 129.438 140.537 126.415 142.216C120.72 145.38 114.287 147.767 109.227 151.815C107.365 153.304 105.685 155.148 103.423 156.279C103.144 156.419 99.3478 158.231 99.8513 158.735C100.273 159.157 107.298 157.329 107.887 157.172C111.477 156.215 115.323 155.884 118.825 154.717C121.469 153.836 124.137 152.845 126.862 152.261C128.701 151.867 130.398 151.154 132.219 150.699C132.447 150.642 132.889 150.711 132.889 150.476C132.889 150.252 132.438 150.432 132.219 150.476C130.544 150.811 129.168 151.994 127.531 152.485C123.623 153.657 119.854 155.468 115.924 156.503C113.632 157.106 111.435 158.104 109.227 158.735C108.215 159.024 107.111 159.375 106.102 159.628C105.804 159.702 104.992 159.634 105.209 159.851C105.796 160.438 109.272 158.682 109.896 158.512C114.889 157.15 120.176 156.869 125.299 156.503C125.608 156.481 130.21 156.174 130.21 156.949C130.21 158.482 126.657 159.509 125.745 159.851C122.18 161.188 118.88 162.959 115.254 164.092C113.903 164.514 112.573 164.763 111.236 165.208C110.789 165.357 109.426 165.655 109.896 165.655C111.847 165.655 114.268 164.37 116.147 163.869C118.473 163.249 120.897 162.898 123.29 162.53C123.545 162.491 127.679 161.859 127.978 162.307C128.533 163.139 126.621 163.829 125.745 164.316C123.425 165.605 120.88 166.24 118.602 167.664C118.536 167.705 115.992 168.994 116.147 169.227C117.017 170.532 122.194 168.649 123.067 168.557C127.811 168.057 133.983 167.081 138.469 169.003C144.159 171.442 147.912 175.198 152.533 179.048C152.709 179.195 156.011 181.715 155.658 181.95C154.357 182.817 149.77 182.667 148.291 182.174C147.486 181.905 145.836 181.504 145.836 181.504C145.836 181.504 146.282 181.653 146.505 181.727C147.768 182.148 147.311 182.05 149.407 182.174C150.524 182.239 151.643 182.28 152.756 182.397C157.468 182.893 161.975 184.025 166.596 185.076C176.356 187.294 185.665 191.09 195.392 193.335C196.756 193.65 203.453 195.178 204.544 194.451C204.958 194.175 200.387 193.558 200.303 193.558C198.523 193.558 196.721 193.652 194.945 193.558C187.806 193.182 180.66 192.976 173.516 192.665C171.49 192.577 169.52 192.442 167.489 192.442C166.968 192.442 166.437 192.34 165.926 192.442C165.763 192.475 165.341 192.573 165.48 192.665C167.026 193.696 171.376 193.254 173.069 193.335C179.098 193.622 185.118 194.219 191.151 194.451C201.705 194.857 212.28 195.475 222.625 192.888C234.483 189.924 243.834 181.59 250.752 171.905C253.221 168.448 254.459 163.418 255.663 159.405C257.812 152.24 255.263 144.156 253.207 137.305C252.683 135.558 252.558 133.673 251.868 131.948C250.928 129.598 249.043 127.736 248.073 125.474C246.467 121.727 244 115.085 240.93 112.527C237.86 109.969 233.401 108.46 229.769 106.947C225.394 105.124 221.389 102.558 217.045 100.696C215.583 100.07 214.435 98.5765 213.027 97.7943C206.374 94.0983 199.763 91.843 192.044 92.4369C188.384 92.7184 185.103 94.7084 181.998 96.4549C174.193 100.845 166.804 105.764 160.792 112.527C158.069 115.59 156.355 119.709 153.872 123.019C148.998 129.517 142.807 137.588 142.041 146.011C141.49 152.07 144.467 159.419 148.291 164.092C150.291 166.536 153.363 167.874 155.881 169.673C157.295 170.683 158.476 172.025 159.899 173.021C161.531 174.164 163.722 174.763 165.48 175.7C187.885 187.65 215.184 195.281 236.465 177.039C237.941 175.775 239.783 174.838 241.153 173.468C245.072 169.549 248.824 159.756 249.189 154.27C249.426 150.719 247.765 148.073 246.287 145.118C244.774 142.092 243.861 138.617 242.046 135.743C239.265 131.34 234.84 128.285 230.885 125.028C227.925 122.59 225.145 120.034 222.179 117.661C221.026 116.739 219.667 116.343 218.384 115.652C208.515 110.338 196.596 105.381 185.124 107.839C179.874 108.964 173.49 110.321 169.498 114.313C167.134 116.677 165.354 120.172 163.694 123.019C161.933 126.037 160.311 129.183 159.453 132.618C157.845 139.046 157.177 146.784 159.453 153.154C161.428 158.686 167.768 163.692 172.623 166.548C175.739 168.381 178.542 170.53 181.998 171.682C192.373 175.14 204.718 174.834 215.259 172.575C223.23 170.867 239.239 164.963 242.493 156.503C243.489 153.913 243.031 149.549 242.493 147.127C240.699 139.055 232.963 134.028 226.42 130.162C222.184 127.659 218.125 124.872 213.92 122.349C202.745 115.644 185.154 116.674 174.632 123.688C172.469 125.13 169.231 126.653 167.712 128.823C160.885 138.575 166.811 151.886 177.534 156.056C187.586 159.966 199.484 158.037 209.678 155.61C214.317 154.505 223.121 151.7 224.188 146.011C226.808 132.036 204.119 129.492 195.169 129.492C192.538 129.492 190.892 129.49 188.472 130.162C182.529 131.813 175.691 134.929 177.311 142.216C180.086 154.705 201.02 150.207 209.232 147.35C212.865 146.087 216.775 144.515 218.384 140.654C220.836 134.769 213.831 133.757 210.125 133.51C204.867 133.16 190.189 138.672 191.82 146.011C192.699 149.963 198.353 151.205 201.642 151.592C210.196 152.598 219.068 151.851 227.536 153.154C229.874 153.514 232.699 153.529 234.68 154.717C235.078 154.956 236.526 156.949 236.912 156.949C237.108 156.949 235.692 153.472 235.573 153.154C235.446 152.816 235.053 149.359 234.68 149.359C233.974 149.359 234.942 151.043 235.349 151.145C242.832 153.016 255.113 145.554 259.458 139.761C262.397 135.842 263.612 129.336 269.503 128.599C272.331 128.246 274.2 130.841 275.976 132.618C280.417 137.058 286.017 139.599 291.379 142.663C293.997 144.159 297.208 144.319 300.085 144.895C301.748 145.228 303.907 146.583 305.442 147.35C305.677 147.468 308.567 148.288 308.567 148.69C308.567 149.108 306.534 148.913 306.335 148.913C303.729 148.913 301.326 149.056 298.746 149.359C292.936 150.043 287.251 151.666 281.557 152.931C278.159 153.686 274.672 153.871 271.289 154.717C268.813 155.336 265.767 155.357 263.476 156.503C263.327 156.577 263.029 156.56 263.029 156.726C263.029 157.47 264.53 156.859 265.262 156.726C267.527 156.314 269.771 155.669 271.958 154.94C274.059 154.24 284.236 152.338 284.236 150.029C284.236 148.073 277.357 146.25 275.53 145.565C274.697 145.252 273.987 144.742 273.298 144.225C273.045 144.036 272.628 143.24 272.628 143.556C272.628 144.444 273.528 144.95 273.967 145.565C275.6 147.851 278.192 150.113 277.539 153.378C276.94 156.371 274.074 157.991 272.628 160.521C272.627 160.522 271.453 162.694 271.512 162.753C272.07 163.311 275.502 161.15 275.976 160.967C279.935 159.445 283.471 157.396 287.807 157.396C288.315 157.396 289.664 157.118 290.04 157.619C291.203 159.17 283.652 161.353 282.896 161.637C277.084 163.817 271.055 165.132 265.038 166.548C262.973 167.034 260.904 168.334 258.788 168.334C258.639 168.334 259.088 168.358 259.235 168.334C259.84 168.233 260.438 168.081 261.02 167.887C262.5 167.394 263.972 166.961 265.485 166.548C266.398 166.299 277.275 164.559 277.762 165.208C278.881 166.7 269.868 169.503 268.61 169.896C260.893 172.308 252.905 173.927 244.948 175.254C241.882 175.765 237.159 177.38 234.01 176.593C232.832 176.298 234.06 175.477 232.224 175.477C229.279 175.477 226.368 176.984 223.295 176.37C222.595 176.23 222.015 175.623 221.286 175.477C216.585 174.537 211.537 173.972 207 172.352C201.391 170.349 196.032 166.756 190.704 164.092C186.301 161.891 180.385 158.613 177.534 154.494C175.407 151.421 173.844 147.783 172.176 144.448C171.129 142.353 170.117 138.745 171.284 136.412C171.84 135.3 174.017 133.62 174.855 135.296" fill="none" opacity="1" stroke="#924c27" stroke-linecap="round" stroke-linejoin="round" stroke-width="19.1698"/>
<g opacity="1">
<path d="M164.656 101.906C162.454 101.543 160.114 102.034 158.156 103.438C156.335 105.069 154.069 105.823 151.938 106.969C150.647 107.663 149.453 108.516 148.188 109.25C147.765 109.495 147.306 109.657 146.906 109.938C145.252 111.101 143.802 112.673 142.281 114C140.374 115.664 138.433 117.294 136.406 118.812C133.557 120.947 130.53 122.97 127.188 124.25C124.494 125.282 121.668 125.839 118.844 126.375C122.374 126.994 125.964 127.622 129.562 127.312C132.267 127.08 134.947 126.665 137.594 126.062C142.118 125.032 146.519 123.542 151.062 122.594C151.641 122.473 152.237 122.384 152.812 122.25C153.435 122.105 154.049 121.856 154.688 121.812C155.02 121.79 155.324 121.858 155.656 121.844C156.848 121.792 158.088 121.568 159.25 121.312C162.519 120.595 165.526 119.386 168.344 117.594C172.258 114.786 173.151 109.352 170.344 105.438C168.94 103.48 166.859 102.269 164.656 101.906Z" fill="#924c27" stroke="none"/>
</g>
<g opacity="1">
<path d="M148.906 128.656C145.83 129.247 142.936 130.179 140.094 131.5C139.105 131.96 137.813 132.642 136.875 133.219C136.269 133.592 135.724 134.05 135.062 134.312C134.687 134.462 134.285 134.516 133.906 134.656C132.09 135.331 130.308 136.29 128.594 137.188C125.136 138.999 121.819 141.097 118.344 142.875C112.753 145.735 106.579 146.875 100.75 149.125C105.846 148.977 110.906 149.639 116 149.5C120.85 149.367 125.605 148.298 130.438 147.969C131.617 147.888 132.82 147.868 134 147.938C134.891 147.99 135.695 148.144 136.594 148.094C137.079 148.067 137.548 147.953 138.031 147.906C139.874 147.727 141.671 147.663 143.5 147.312C146.104 146.814 148.593 146.064 151.25 145.938C156.024 145.296 159.36 140.931 158.719 136.156C158.078 131.382 153.681 128.015 148.906 128.656Z" fill="#924c27" stroke="none"/>
</g>
<g opacity="1">
<path d="M117.344 144.656C115.545 144.932 113.559 145.17 111.938 146.062C111.595 146.251 111.3 146.541 110.969 146.75C110.51 147.039 109.529 147.544 109.094 147.875C108.222 148.538 107.418 149.368 106.594 150.094C103.347 152.953 100.389 156.128 97.5 159.344C101.268 159.14 105.036 158.965 108.781 159.562C109.971 159.752 111.03 160.208 112.156 160.594C112.75 160.797 113.072 160.769 113.656 161C113.91 161.1 114.122 161.272 114.375 161.375C115.376 161.783 116.566 161.908 117.625 162.094C122.442 162.017 126.295 158.067 126.219 153.25C126.142 148.433 122.16 144.58 117.344 144.656Z" fill="#924c27" stroke="none"/>
</g>
<g opacity="1">
<path d="M134 144.25C131.93 144.217 129.905 144.328 127.906 144.906C126.013 145.454 124.16 146.309 122.5 147.375C121.825 147.809 121.206 148.346 120.531 148.781C119.855 149.217 119.087 149.478 118.406 149.906C117.366 150.562 116.415 151.419 115.406 152.125C113.22 153.656 111.011 155.17 108.906 156.812C107.405 157.985 106.02 159.313 104.531 160.5C103.198 161.563 101.766 162.484 100.375 163.469C98.3452 164.907 96.3254 166.382 94.3125 167.844C96.7315 167.305 99.1685 166.729 101.594 166.219C103.31 165.858 105.043 165.595 106.75 165.188C108.827 164.692 110.83 163.931 112.938 163.562C114.646 163.263 116.428 162.988 118.156 162.844C119.73 162.713 121.337 162.758 122.906 162.594C123.678 162.513 124.415 162.263 125.188 162.188C126.004 162.108 126.843 162.169 127.656 162.062C128.965 161.892 130.292 161.305 131.625 161.375C131.975 161.393 132.319 161.549 132.656 161.625C137.459 161.997 141.659 158.397 142.031 153.594C142.404 148.791 138.803 144.622 134 144.25Z" fill="#924c27" stroke="none"/>
</g>
<g opacity="1">
<path d="M406.562 67C405.563 70.1607 402.954 70.6796 400.062 71.5312C399.035 71.8339 398.099 72.1752 397.125 72.625C393.221 74.4271 390.083 77.4176 386.531 79.7812C384.485 81.1435 382.209 81.9295 380.031 83.0312C378.332 83.8913 376.971 85.1509 375.438 86.25C373.549 87.604 371.496 88.7501 369.5 89.9375C363.905 93.2652 358.101 96.1341 352.219 98.9062C348.137 100.83 344.039 102.876 339.719 104.219C335.002 105.684 329.917 105.825 325.031 106.25C319.822 106.703 314.614 107.191 309.406 107.656C305.893 107.97 302.374 108.202 298.875 108.656C296.262 108.996 293.687 109.461 291.062 109.719C284.051 110.408 276.91 110.681 269.875 110.25C267.445 110.101 264.924 109.976 262.531 109.5C262.261 109.446 261.415 109.171 260.906 108.906C260.148 104.211 255.785 100.967 251.062 101.656C246.296 102.352 242.992 106.796 243.688 111.562C243.962 113.218 244.354 114.814 245.062 116.344C245.783 117.899 246.761 119.316 247.938 120.562C254.063 127.05 263.841 126.862 272.062 126.719C274.31 126.68 276.573 126.577 278.812 126.375C281.483 126.134 284.143 125.794 286.781 125.312C290.357 124.66 293.854 123.665 297.406 122.906C298.672 122.636 299.954 122.429 301.219 122.156C304.203 121.513 307.129 120.725 310.094 120C313.486 119.17 316.907 118.368 320.312 117.594C323.134 116.952 325.948 116.334 328.781 115.75C333.755 114.725 338.773 113.673 343.406 111.531C347.573 109.605 351.469 107.147 355.375 104.75C361.654 100.897 367.779 96.8582 373.656 92.4062C375.054 91.3478 376.498 90.3173 377.812 89.1562C378.942 88.159 379.91 86.9872 381.156 86.125C383.402 84.5711 385.872 83.5 388 81.75C391.245 79.0822 394.012 75.8397 397.656 73.6875C398.262 73.3296 398.889 72.9744 399.531 72.6875C402.569 71.3316 405.794 70.6986 406.562 67Z" fill="#924c27" stroke="none"/>
</g>
<g opacity="1">
<path d="M389.812 80.1562C386.205 82.0499 382.346 83.4382 378.812 85.4688C376.691 86.6877 374.945 88.4061 372.875 89.6875C371.067 90.8063 369.02 91.487 367.156 92.5C365.869 93.1999 364.627 93.9479 363.344 94.6562C359.494 96.7819 355.556 98.7505 351.625 100.719C349.955 101.555 348.283 102.421 346.594 103.219C345.369 103.797 344.058 104.088 342.75 104.406C341.304 104.758 339.878 105.139 338.469 105.625C335.259 106.733 332.109 108.13 329.062 109.625C327.953 110.169 326.833 110.654 325.75 111.25C322.908 112.812 320.086 114.501 317.375 116.281C315.196 117.713 313.217 119.212 310.875 120.406C308.432 121.651 305.94 122.726 303.438 123.844C301.48 124.718 299.509 125.593 297.5 126.344C295.214 127.198 292.874 127.851 290.594 128.719C288.752 129.42 287.031 130.346 285.375 131.406C281.385 134.105 280.332 139.541 283.031 143.531C285.73 147.521 291.166 148.574 295.156 145.875C297.489 144.163 300.286 143.455 302.906 142.281C307.455 140.245 311.986 137.831 316.094 135C317.889 133.763 319.492 132.311 321.125 130.875C322.926 129.292 324.827 127.844 326.562 126.188C329.472 123.41 332.289 120.611 335.562 118.25C338.07 116.441 340.69 114.702 343.438 113.281C345.767 112.076 348.255 111.274 350.438 109.781C356.894 105.365 363.026 100.479 369.25 95.75C370.984 94.4325 372.959 93.4477 374.625 92.0312C376.477 90.4566 377.934 88.5175 379.844 87C383.001 84.4917 386.563 82.5424 389.812 80.1562Z" fill="#924c27" stroke="none"/>
</g>
<g opacity="1">
<path d="M330.438 111.625C325.718 113.535 321.137 113.622 316.125 113.688C312.903 113.73 309.688 113.902 306.469 114.031C305.301 114.078 304.128 114.008 302.969 114.156C302.403 114.228 301.845 114.443 301.281 114.531C300.124 114.713 298.957 114.751 297.812 115C297.792 115.003 297.771 114.997 297.75 115C297.426 115.054 297.105 115.001 296.781 115.094C296.218 115.296 295.677 115.487 295.125 115.719C295.079 115.738 294.882 115.835 294.75 115.906C294.678 115.931 294.603 115.944 294.531 115.969C294.018 116.147 293.505 116.331 293 116.531C292.827 116.6 292.629 116.647 292.5 116.781C291.211 118.13 290.024 119.577 288.781 120.969C288.604 121.167 288.561 121.459 288.5 121.719C288.35 122.359 288.149 122.999 288.125 123.656C288.094 124.487 288.116 125.318 288.312 126.125C288.526 127.002 288.887 127.847 289.344 128.625C289.754 129.324 290.324 129.936 290.906 130.5C291.7 131.268 292.672 131.822 293.688 132.219C296.7 133.394 298.651 132.295 301.594 131.844C304.082 131.132 305.925 129.379 306.969 127.219C307.188 127.105 307.391 126.984 307.594 126.844C308.462 126.245 309.244 125.499 310.094 124.875C311.733 123.671 313.459 122.583 315.219 121.562C319.171 119.27 323.463 117.49 327.125 114.719C328.353 113.789 329.394 112.753 330.438 111.625ZM300.812 131.531C300.782 131.564 300.749 131.593 300.719 131.625C300.66 131.689 300.398 131.8 300.469 131.75C300.579 131.672 300.701 131.607 300.812 131.531Z" fill="#924c27" stroke="none"/>
</g>
<g opacity="1">
<path d="M414.812 107.625C407.827 108.489 401.82 112.119 395.344 114.594C390.402 116.482 385.189 117.373 380.125 118.844C375.409 120.214 370.987 122.458 366.25 123.75C360.485 125.322 354.395 125.591 348.5 126.438C344.919 126.952 341.301 127.401 337.75 128.094C336.203 128.396 334.68 128.828 333.125 129.094C331.593 129.356 330.039 129.507 328.5 129.719C325.896 130.077 323.323 130.516 320.719 130.875C314.887 131.68 309.021 131.949 303.219 133C298.504 133.988 295.481 138.629 296.469 143.344C297.457 148.059 302.066 151.082 306.781 150.094C312.775 148.639 318.948 148.045 324.938 146.562C327.356 145.964 329.772 145.259 332.125 144.438C333.671 143.898 335.176 143.297 336.719 142.75C338.229 142.214 339.767 141.803 341.281 141.281C344.632 140.127 347.888 138.682 351.219 137.469C357.139 135.313 363.324 133.868 369.062 131.219C373.574 129.136 377.614 126.205 382.094 124.062C386.921 121.753 392.018 120.052 396.688 117.406C402.696 114.002 408.063 109.518 414.812 107.625Z" fill="#924c27" stroke="none"/>
</g>
<g opacity="1">
<path d="M404.531 110.719C402.031 112.345 399.488 113.893 396.781 115.156C395.797 115.615 394.774 116.045 393.75 116.406C393.229 116.59 392.327 116.853 391.812 117.094C390.969 117.488 390.383 118.231 389.562 118.656C388.544 119.185 387.489 119.663 386.469 120.188C384.292 121.306 382.178 122.54 380 123.656C377.497 124.939 374.882 125.996 372.281 127.062C369.584 128.168 366.904 129.254 364.188 130.312C361.882 131.21 359.532 131.963 357.188 132.75C353.323 134.047 349.409 135.28 345.5 136.438C342.738 137.255 339.932 137.935 337.219 138.906C334.623 139.835 331.948 140.51 329.375 141.5C328.01 142.025 326.953 142.52 325.625 143.125C321.342 145.078 316.846 147.693 311.969 147.125C307.163 146.8 302.981 150.444 302.656 155.25C302.332 160.056 305.975 164.207 310.781 164.531C312.621 164.603 314.425 164.579 316.25 164.312C321.073 163.608 325.497 161.567 329.688 159.156C333.079 157.205 336.21 154.786 339.656 152.938C341.036 152.197 342.516 151.626 343.906 150.906C345.434 150.116 346.887 149.205 348.375 148.344C350.459 147.137 352.557 145.93 354.656 144.75C362.97 140.076 371.163 135.31 379.094 130C381.574 128.339 383.899 126.461 386.25 124.625C387.838 123.385 389.493 122.252 391.094 121.031C391.521 120.705 391.936 120.319 392.281 119.906C392.495 119.651 392.655 119.378 392.938 119.188C393.34 118.917 394.22 118.488 394.594 118.281C395.594 117.726 396.589 117.118 397.531 116.469C400.026 114.75 402.304 112.766 404.531 110.719Z" fill="#924c27" stroke="none"/>
</g>
<g opacity="1">
<path d="M277.75 149.031C275.2 148.977 272.651 149.005 270.094 149.156C265.292 149.545 261.705 153.761 262.094 158.562C262.483 163.364 266.699 166.92 271.5 166.531C276.799 165.969 282.119 165.991 287.438 166.25C292.199 166.482 296.955 166.949 301.719 167.125C303.663 167.197 305.618 167.181 307.562 167.25C310.472 167.353 313.344 167.747 316.25 167.906C322.062 168.224 327.872 168.609 333.656 169.281C348.512 171.007 363.213 173.84 377.688 177.594C380.177 178.239 382.634 178.972 384.969 180.062C386.517 180.786 387.855 181.815 389.5 182.344C393.987 183.785 398.668 184.601 403.219 185.812C406.085 186.576 408.814 187.812 411.656 188.656C408.914 187.47 406.339 185.922 403.562 184.812C399.233 183.082 394.748 181.712 390.5 179.781C389.053 179.123 387.9 177.991 386.562 177.156C384.478 175.855 382.275 174.826 380 173.906C364.6 167.684 348.744 162.572 332.688 158.344C327.839 157.067 322.988 155.777 318.094 154.688C315.136 154.029 312.131 153.69 309.156 153.125C306.294 152.581 303.467 151.957 300.594 151.469C293.038 150.184 285.401 149.195 277.75 149.031Z" fill="#924c27" stroke="none"/>
</g>
<g opacity="1">
<path d="M282 167.656C277.442 167.706 272.886 168.08 268.344 168.438C262.114 168.927 255.888 169.475 249.656 169.938C244.862 170.403 241.347 174.674 241.812 179.469C242.278 184.263 246.549 187.746 251.344 187.281C259.395 186.316 267.416 185.249 275.438 184.062C278.05 183.676 280.675 183.304 283.281 182.875C285.356 182.533 287.409 182.115 289.5 181.875C292.155 181.571 294.839 181.533 297.5 181.281C303.55 180.71 309.602 180.243 315.656 179.719C319.903 179.351 324.126 178.801 328.375 178.469C334.969 177.953 341.608 177.867 348.219 177.812C352.645 177.776 357.074 177.65 361.5 177.781C366.609 177.932 371.733 178.407 376.812 178.969C383.458 179.703 390.097 180.836 396.406 183.094C389.438 179.624 381.892 177.582 374.312 175.938C370.419 175.093 366.5 174.304 362.562 173.688C357.404 172.88 352.184 172.364 347 171.75C340.79 171.014 334.585 170.365 328.344 169.969C324.063 169.697 319.75 169.652 315.469 169.406C309.413 169.058 303.394 168.383 297.344 167.969C295.085 167.814 292.855 167.828 290.594 167.812C287.73 167.793 284.864 167.625 282 167.656Z" fill="#924c27" stroke="none"/>
</g>
<g opacity="1">
<path d="M279.312 159.281C275.953 159.306 272.631 159.569 269.312 160.281C264.622 161.38 261.683 166.091 262.781 170.781C263.88 175.472 268.591 178.38 273.281 177.281C277.086 176.287 281.025 176.237 284.938 176.312C287.825 176.368 290.709 176.49 293.594 176.625C298.008 176.832 302.397 177.183 306.812 177.375C309.408 177.488 311.999 177.527 314.594 177.656C316.565 177.754 318.528 177.951 320.5 178.031C325.869 178.25 331.343 177.962 336.688 177.438C338.99 177.212 341.286 176.917 343.594 176.75C347.155 176.492 350.743 176.435 354.312 176.531C354.323 176.533 354.334 176.529 354.344 176.531C359.11 177.437 363.879 178.409 368.719 178.875C370.625 179.058 372.471 178.97 374.375 178.969C374.469 178.969 374.564 179.044 374.656 179.062C374.833 179.099 375.009 179.163 375.188 179.188C375.519 179.233 375.954 179.258 376.281 179.219C379.504 178.828 380.945 174.894 378.031 172.938C377.18 172.366 376.237 172.164 375.219 171.906C374.381 171.694 373.626 171.52 372.812 171.344C369.451 170.615 366.141 169.73 362.781 169C358.995 168.177 355.191 167.502 351.344 167.031C345.751 166.346 340.143 166.345 334.531 165.969C330.203 165.679 325.952 164.966 321.656 164.406C319.788 164.163 317.925 163.986 316.062 163.688C312.256 163.078 308.497 162.223 304.688 161.625C299.619 160.829 294.513 160.262 289.406 159.781C286.047 159.465 282.672 159.256 279.312 159.281Z" fill="#924c27" stroke="none"/>
</g>
<g opacity="1">
<path d="M133.594 161.656C130.076 162.223 126.6 163.167 123.406 164.781C122.453 165.263 121.608 165.927 120.688 166.469C119.834 166.97 118.905 167.324 118.062 167.844C116.762 168.646 115.525 169.531 114.188 170.281C110.62 172.282 106.919 174.012 103.312 175.938C98.8707 178.309 94.6088 180.985 90.125 183.281C95.0837 182.78 99.9751 181.747 104.938 181.312C108.959 180.96 112.998 180.794 117.031 180.656C118.701 180.599 120.398 180.652 122.062 180.5C123.097 180.406 124.123 180.108 125.156 180C126.164 179.895 127.182 179.906 128.188 179.781C130.573 179.484 132.905 179.05 135.312 179.031C140.107 178.562 143.594 174.294 143.125 169.5C142.656 164.706 138.388 161.187 133.594 161.656Z" fill="#924c27" stroke="none"/>
</g>
<g opacity="1">
<path d="M110.188 155.844C108.381 156.004 106.55 156.2 104.906 157.031C104.092 157.443 103.566 158.066 102.844 158.594C102.644 158.74 102.377 158.81 102.188 158.969C101.459 159.58 100.947 160.592 100.469 161.375C99.4051 163.117 98.5842 164.987 97.5625 166.75C96.735 168.178 95.7586 169.494 94.8125 170.844C96.9531 170.879 99.0802 170.852 101.219 170.75C103.002 170.665 104.98 170.472 106.688 171.156C106.822 171.21 106.913 171.323 107.031 171.406C107.337 171.62 107.625 171.626 107.875 171.906C108.303 172.386 108.543 173 109.156 173.25C113.965 173.542 118.083 169.871 118.375 165.062C118.667 160.254 114.996 156.135 110.188 155.844Z" fill="#924c27" stroke="none"/>
</g>
<g opacity="1">
<path d="M150.656 137.406C149.54 137.213 148.392 137.258 147.219 137.531C143.447 138.646 139.685 139.996 136.25 141.938C135.259 142.498 134.393 143.202 133.438 143.812C132.835 144.197 132.153 144.461 131.531 144.812C130.6 145.338 129.754 146.05 128.875 146.656C127.157 147.84 125.436 148.963 123.625 150C119.267 152.495 114.668 154.617 110.125 156.75C106.389 158.504 102.683 160.282 98.875 161.875C103.572 161.55 108.226 160.969 112.906 160.469C120.455 159.663 127.998 158.89 135.5 157.719C136.59 157.549 137.576 157.14 138.656 156.938C139.695 156.742 140.773 156.678 141.812 156.469C144.943 155.838 147.999 155.007 151.156 154.5C155.848 153.407 158.781 148.723 157.688 144.031C156.868 140.513 154.006 137.986 150.656 137.406Z" fill="#924c27" stroke="none"/>
</g>
<g opacity="1">
<path d="M148.75 128.844C145.741 128.832 142.642 128.926 139.719 129.719C138.848 129.955 138.055 130.38 137.188 130.625C136.78 130.74 136.347 130.736 135.938 130.844C135.144 131.053 134.37 131.419 133.594 131.688C132.601 132.031 131.588 132.335 130.562 132.562C123.362 134.163 115.867 134.161 108.531 134.5C114.275 136.828 120.009 139.25 125.844 141.344C128.844 142.42 131.879 143.484 134.969 144.281C135.911 144.524 136.882 144.565 137.844 144.719C138.765 144.866 139.674 145.158 140.594 145.312C142.848 145.691 145.119 145.816 147.375 146.219C152.177 146.597 156.371 143.021 156.75 138.219C157.129 133.416 153.552 129.222 148.75 128.844Z" fill="#924c27" stroke="none"/>
</g>
<g opacity="1">
<path d="M140.594 128.469C138.863 128.518 137.158 128.723 135.5 129.219C134.906 129.396 134.332 129.693 133.75 129.906C132.678 130.298 131.58 130.581 130.531 131.031C128.617 131.853 126.824 132.875 124.844 133.562C118.577 135.738 111.874 136.703 105.406 138.094C112.037 139.65 118.631 141.517 125.312 142.844C127.061 143.191 128.807 143.409 130.562 143.719C131.128 143.818 131.712 143.952 132.281 144.031C133.316 144.176 134.346 144.193 135.375 144.375C135.858 144.461 136.331 144.593 136.812 144.688C137.667 144.856 138.546 144.927 139.406 145.062C140.396 145.219 141.393 145.536 142.344 145.844C147.066 146.794 151.643 143.754 152.594 139.031C153.544 134.309 150.504 129.7 145.781 128.75C144.084 128.534 142.324 128.419 140.594 128.469Z" fill="#924c27" stroke="none"/>
</g>
<g opacity="1">
<path d="M117.969 135.375C117.079 135.285 116.17 135.431 115.281 135.531C114.115 135.663 113.101 135.939 112 136.312C107.927 137.694 104.371 140.179 100.656 142.281C103.724 142.974 106.909 143.352 109.844 144.531C110.757 144.898 111.805 145.344 112.531 146.031C113.46 146.91 113.299 148.3 113.719 149.406C113.987 150.112 114.771 150.746 115.312 151.219C116.256 152.043 117.298 152.682 118.375 153.312C122.769 155.286 127.933 153.301 129.906 148.906C131.88 144.512 129.926 139.349 125.531 137.375C125.211 137.328 124.874 137.388 124.562 137.312C123.873 137.146 123.27 136.756 122.594 136.562C121.909 136.366 121.222 136.239 120.531 136.062C119.673 135.843 118.85 135.464 117.969 135.375Z" fill="#924c27" stroke="none"/>
</g>
<g opacity="1">
<path d="M10.9062 77.4688C10.3259 77.2052 9.5471 77.5478 8.96875 77.625C9.51261 77.6103 10.2969 77.3322 10.8125 77.625C11.4498 77.9869 11.1902 78.993 11.375 79.5938C11.5088 80.0289 11.867 80.5077 12.0625 80.8438C12.264 81.1903 12.4194 81.5516 12.6562 81.875C13.5675 83.1194 14.8251 84.1956 15.9688 85.2188C17.5582 86.6407 19.4395 87.6469 20.9688 89.1562C23.2166 91.3749 24.9157 94.0478 27.25 96.1875C31.4547 100.042 36.1407 103.351 40.9062 106.469C45.8747 109.719 51.2986 112.417 55.9062 116.188C60.3366 119.813 63.9942 124.279 69.2188 126.844C70.4274 127.437 71.6887 127.925 72.9062 128.5C75.7285 129.832 78.4956 131.309 81.4375 132.375C82.3987 132.723 83.3726 133.018 84.375 133.219C85.4217 133.429 86.5001 133.495 87.5312 133.781C89.1805 134.239 90.7949 134.928 92.4062 135.5C94.6471 136.296 96.9074 136.971 99.2812 137.219C101 137.398 102.834 137.574 104.562 137.562C107.594 137.543 110.585 137.056 113.594 136.75C117.118 136.391 120.655 136.055 124.188 135.781C126.374 135.612 128.562 135.618 130.75 135.5C133.298 135.363 135.852 135.094 138.375 134.719C145.25 133.696 151.841 131.688 158.25 129.031C162.662 127.097 164.653 121.974 162.719 117.562C160.784 113.151 155.662 111.128 151.25 113.062C145.573 115.691 139.672 117.691 133.5 118.781C129.747 119.444 125.941 119.626 122.188 120.281C118.918 120.852 115.716 121.734 112.5 122.531C110.284 123.081 108.066 123.422 105.812 123.75C105.133 123.849 104.492 124.025 103.812 124.125C102.775 124.277 101.699 124.296 100.656 124.406C100.008 124.475 99.7662 124.558 99.1562 124.562C95.8754 124.584 92.6797 123.311 89.4375 122.938C87.9031 122.761 86.3365 122.881 84.8125 122.625C81.8658 122.13 79.0479 120.915 76.2188 120C74.8253 119.549 73.3998 119.243 72.0312 118.719C69.0704 117.584 66.5205 115.557 64 113.688C62.158 112.322 60.3215 110.978 58.3438 109.812C53.0897 106.716 47.3134 104.59 41.9062 101.781C37.2571 99.3661 32.4861 96.7855 28.4062 93.4688C26.2213 91.6925 24.3905 89.506 22.1875 87.75C20.4698 86.3808 18.4841 85.5542 16.7188 84.2812C15.5215 83.4179 14.186 82.5353 13.1875 81.4375C12.9343 81.1591 12.7533 80.8351 12.5312 80.5312C12.2773 80.1837 11.9421 79.868 11.7812 79.4688C11.5122 78.801 11.6807 77.8205 10.9062 77.4688Z" fill="#924c27" stroke="none"/>
</g>
<g opacity="1">
<path d="M311.562 159.531C308.327 159.65 305.154 160.093 302 160.812C297.333 162.007 294.524 166.771 295.719 171.438C296.913 176.104 301.677 178.913 306.344 177.719C313.596 175.599 321 176.46 328.438 176.5C330.289 176.51 332.118 176.369 333.969 176.375C336.094 176.382 338.219 176.656 340.344 176.688C350.243 176.836 360.132 177.183 370.031 176.938C375.634 176.799 381.169 175.674 386.531 174.094C390.684 172.87 394.73 171.373 398.844 170.031C402.74 168.76 406.719 167.822 410.688 166.812C413.667 166.055 416.646 165.246 419.594 164.375C416.558 164.797 413.518 165.163 410.469 165.469C406.334 165.883 402.196 166.218 398.094 166.906C388.93 168.443 379.778 170.523 370.438 169.219C364.598 168.403 358.818 167.274 353.062 166C349.327 165.173 345.643 164.19 341.906 163.375C339.185 162.781 336.389 162.512 333.656 161.969C326.411 160.529 318.979 159.259 311.562 159.531Z" fill="#924c27" stroke="none"/>
</g>
<g opacity="1">
<path d="M403.781 126.781C400.457 126.745 397.155 126.832 393.844 127.188C389.886 127.613 386.022 128.599 382.125 129.375C378.605 130.076 375.065 130.534 371.5 130.938C365.599 131.606 359.673 132.076 353.75 132.5C349.496 132.804 345.209 132.979 340.969 133.438C338.876 133.664 336.824 134.124 334.75 134.469C331.833 134.953 328.919 135.284 326.031 135.938C322.418 136.755 318.919 137.965 315.344 138.906C312.917 139.545 310.461 139.962 308.062 140.719C305.114 141.649 302.425 142.958 300 144.875C296.292 147.95 295.769 153.448 298.844 157.156C301.919 160.864 307.417 161.387 311.125 158.312C312.57 156.968 314.628 156.521 316.469 155.969C318.209 155.447 319.958 154.93 321.656 154.281C325.293 152.892 328.922 151.536 332.562 150.156C334.006 149.609 335.45 148.981 336.906 148.469C339.104 147.696 341.368 147.242 343.594 146.562C353.724 143.47 364.066 141.122 374.25 138.219C377.463 137.303 380.642 136.37 383.781 135.219C387.369 133.904 390.883 132.355 394.594 131.406C400.888 129.797 407.376 129.29 413.812 128.562C417.261 128.173 420.644 127.377 424.094 127.031C420.646 126.883 417.202 127.167 413.75 127.062C410.431 126.962 407.105 126.818 403.781 126.781Z" fill="#924c27" stroke="none"/>
</g>
<g opacity="1">
<path d="M376.656 68.0938C372.887 72.2621 369.41 76.7673 365.25 80.5625C361.317 84.1502 356.641 86.6858 352.219 89.5938C350.887 90.4694 349.592 91.3741 348.375 92.4062C347.101 93.4864 345.958 94.7544 344.562 95.6875C342.826 96.8488 340.588 97.1633 338.688 98C337.586 98.485 336.539 99.0811 335.469 99.625C333.236 100.759 330.97 101.865 328.625 102.75C327.355 103.229 326.045 103.542 324.781 104.031C324.057 104.312 323.427 104.676 322.688 104.906C321.195 105.371 319.591 105.583 318.062 105.906C316.44 106.249 314.826 106.65 313.219 107.062C307.887 108.43 302.661 110.043 297.625 112.281C293.291 114.383 291.46 119.603 293.562 123.938C295.665 128.272 300.884 130.071 305.219 127.969C310.964 124.896 317.251 123.118 323.125 120.344C324.338 119.771 325.459 119.039 326.656 118.438C328.805 117.358 331 116.386 333 115.031C335.927 113.049 338.619 110.687 341.312 108.406C341.973 107.847 342.692 107.173 343.406 106.625C345.365 105.121 347.614 104.153 349.438 102.438C351.013 100.956 352.152 99.1012 353.469 97.4062C354.287 96.3526 355.243 95.4081 356.188 94.4688C360.074 90.6023 364.276 87.0853 367.594 82.6875C371.041 78.1188 373.674 72.9642 376.656 68.0938Z" fill="#924c27" stroke="none"/>
</g>
<g opacity="1">
<path d="M17.5625 84.1875C17.8014 85.2119 18.1242 86.2148 18.9688 86.9062C20.0493 87.7909 21.4615 87.8244 22.1875 89.1562C22.7678 90.2209 22.5239 91.44 22.6562 92.5938C22.7673 93.5616 23.1704 94.4197 23.7188 95.2188C25.1398 97.2895 27.2689 98.581 29.0312 100.312C30.3919 101.649 31.4355 103.304 32.8125 104.625C33.9599 105.726 35.3444 106.509 36.625 107.438C37.9651 108.409 39.1752 109.556 40.4375 110.625C47.904 116.946 55.8528 122.872 64.5312 127.438C70.0851 130.359 75.9111 132.715 81.375 135.812C83.7442 137.156 86.0301 138.669 88.4062 140C91.1197 141.52 93.9064 142.863 96.5938 144.438C101.01 147.025 105.497 149.91 110.438 151.375C113.295 152.222 116.275 152.583 119.25 152.625C122.611 152.673 125.964 152.192 129.312 152.625C134.108 153.083 138.386 149.577 138.844 144.781C139.302 139.986 135.764 135.708 130.969 135.25C128.696 135.084 126.459 135.134 124.188 135.312C121.18 135.549 118.196 135.988 115.188 135.625C114.124 135.497 113.091 135.089 112.094 134.719C110.273 134.043 108.492 133.215 106.688 132.5C104.425 131.604 102.123 130.909 99.8438 130.062C98.4057 129.528 97.008 128.871 95.5938 128.281C94.1804 127.692 92.7243 127.166 91.2812 126.656C88.206 125.57 85.1546 124.443 82.0312 123.5C76.1054 121.71 70.0774 120.218 64.3125 117.938C56.2484 114.747 48.5455 110.35 41.3125 105.594C40.4706 105.04 39.6363 104.481 38.75 104C37.5206 103.333 36.1961 102.83 35.0625 102C33.5383 100.883 32.2932 99.4194 30.7812 98.2812C28.9101 96.8726 26.7201 95.8866 25.125 94.125C24.7324 93.6914 24.3441 93.1876 24.1562 92.625C23.6601 91.1394 23.8352 89.606 22.7188 88.3438C21.6622 87.1492 20.4016 87.349 19.1875 86.5938C18.3122 86.0492 17.912 85.1151 17.5625 84.1875Z" fill="#924c27" stroke="none"/>
</g>
<g opacity="1">
<path d="M4.375 70.5C5.41074 71.5161 6.37227 72.4797 7.09375 73.75C7.79172 74.9789 8.36646 76.2685 9 77.5312C9.22312 77.976 9.43783 78.4627 9.71875 78.875C10.151 79.5093 10.7421 79.9636 11.25 80.5312C11.5651 80.8834 11.7907 81.3354 12.0625 81.7188C12.4667 82.2889 12.9713 82.7747 13.375 83.3438C13.7336 83.8492 13.9128 84.4196 14.1875 84.9688C14.6388 85.871 15.2613 86.6929 15.9375 87.4375C18.0071 89.7164 20.4781 91.5253 22.6562 93.6875C23.2619 94.2888 23.7881 94.9748 24.375 95.5938C25.6274 96.9146 27.0194 98.1235 28.5625 99.0938C28.6588 99.1543 28.7756 99.1913 28.875 99.25C29.0583 99.4604 29.1541 99.7065 29.3438 99.9062C30.0948 100.697 30.9411 101.533 31.8438 102.219C31.9075 102.337 31.9719 102.459 32.0312 102.562C32.3989 103.203 32.7836 103.826 33.2812 104.375C34.6398 105.873 36.3067 107.1 37.9375 108.281C39.8932 109.697 41.8974 111.12 44 112.312C45.3023 113.051 46.7817 113.487 48.0312 114.312C49.3048 115.154 50.3292 116.513 51.4688 117.562C54.0936 119.98 57.4284 121.357 60.4375 123.219C61.5625 123.915 62.7173 124.636 63.875 125.281C65.0921 125.96 66.326 126.578 67.5312 127.281C69.9434 128.688 72.2767 130.221 74.7812 131.469C77.8358 132.991 81.0543 134.09 84.1562 135.5C88.5774 137.51 92.3098 140.897 97 142.344C101.633 143.664 106.461 140.976 107.781 136.344C109.092 131.744 106.447 126.985 101.875 125.625C101.921 125.65 101.768 125.612 101.719 125.594C101.662 125.573 101.427 125.461 101.375 125.438C101.159 125.34 100.932 125.258 100.719 125.156C100.333 124.972 99.6852 124.635 99.3125 124.438C98.7791 124.155 98.2493 123.881 97.7188 123.594C97.2279 123.328 96.7404 123.048 96.25 122.781C92.9882 121.009 89.5649 119.789 86.0312 118.688C82.2253 117.501 78.403 116.338 74.6562 114.969C72.3482 114.125 70.1886 112.983 67.875 112.156C65.9504 111.468 63.9847 110.85 62.0312 110.25C61.1251 109.972 59.9985 109.736 59.0938 109.344C58.1785 108.947 57.3812 108.338 56.5625 107.781C55.3386 106.949 54.0976 106.153 52.75 105.531C51.4003 104.909 49.9517 104.647 48.5312 104.25C47.5 103.962 46.5156 103.509 45.5312 103.094C44.1014 102.491 42.6792 101.862 41.3125 101.125C40.7964 100.847 40.282 100.555 39.7812 100.25C39.3286 99.9742 38.9183 99.6293 38.4375 99.4062C38.1085 99.2536 37.8074 98.8076 37.5938 98.5312C36.9214 97.6619 36.4651 96.8212 35.2812 96.5C35.1907 96.4754 35.1207 96.5488 35.0312 96.5312C34.8817 96.4304 34.7411 96.3226 34.5938 96.2188C33.9528 95.7672 33.3525 95.2712 32.7188 94.8125C32.689 94.791 32.7345 94.8729 32.75 94.9062C31.9992 94.199 31.1251 93.6937 30.125 93.7812C30.0628 93.7481 29.9993 93.7212 29.9375 93.6875C28.1137 92.692 26.6539 91.249 24.9688 90.0625C22.6605 88.4373 20.1903 87.0734 18 85.2812C17.4242 84.8101 16.8653 84.2692 16.4375 83.6562C16.0033 83.0341 15.6571 82.3971 15.125 81.8438C14.6473 81.347 14.0689 80.9674 13.5938 80.4688C13.2063 80.0621 12.8988 79.6081 12.4688 79.25C11.9451 78.814 11.3399 78.4709 10.875 77.9688C10.4461 77.5055 10.1088 76.9209 9.75 76.4062C9.04703 75.3979 8.35043 74.3756 7.59375 73.4062C6.67089 72.2241 5.57868 71.377 4.375 70.5ZM31.5625 94.4375C31.6034 94.4416 31.6467 94.4325 31.6875 94.4375C31.7348 94.4432 31.8228 94.4534 31.8125 94.5C31.8093 94.5144 31.6653 94.4719 31.5625 94.4375ZM35.5 96.8125C35.5291 96.8165 35.756 96.9451 35.7812 96.9688C35.8359 97.0198 35.627 96.9129 35.5625 96.875C35.5361 96.8595 35.5261 96.8284 35.5 96.8125ZM30.9688 99.9062C31.0108 99.9096 31.0516 99.936 31.0938 99.9375C31.0889 100.134 31.0637 100.335 31.0625 100.531C31.0333 100.366 30.9976 100.197 30.9688 100.031C30.9618 99.9915 30.967 99.9467 30.9688 99.9062Z" fill="#924c27" stroke="none"/>
</g>
<g opacity="1">
<path d="M119.125 124.375C116.714 124.233 114.398 124.539 112.094 125.281C110.176 125.899 108.417 126.86 106.5 127.469C103.976 128.27 101.355 128.798 98.7812 129.406C97.5241 129.703 96.2842 130.061 95.0312 130.375C93.078 130.865 91.1132 131.097 89.1562 131.562C87.8251 131.879 86.5048 132.287 85.1875 132.656C81.8046 133.606 78.426 134.603 75.125 135.812C68.1355 138.373 61.5191 141.825 54.4375 144.156C49.8472 145.668 45.0639 146.594 40.3438 147.594C36.2638 148.458 32.2172 149.395 28.1875 150.469C31.1972 150.252 34.2018 150.082 37.2188 150C43.32 149.834 49.4573 149.879 55.5312 149.188C62.9388 148.344 70.14 146.297 77.5312 145.375C81.9724 144.821 86.3532 144.956 90.8125 144.906C92.1183 144.892 93.4136 144.763 94.7188 144.719C96.7287 144.651 98.7391 144.814 100.75 144.75C104.407 144.634 108.122 144.191 111.688 143.344C112.975 143.038 114.218 142.614 115.469 142.188C116.139 141.959 116.899 141.627 117.625 141.625C117.691 141.625 117.375 141.697 117.438 141.719C117.495 141.739 117.565 141.739 117.625 141.75C122.424 142.168 126.645 138.612 127.062 133.812C127.48 129.013 123.924 124.793 119.125 124.375Z" fill="#924c27" stroke="none"/>
</g>
<g opacity="1">
<path d="M125.531 148.906C124.16 149.169 122.795 149.466 121.406 149.625C120.843 149.69 120.248 149.633 119.688 149.719C119.049 149.817 118.437 150.023 117.812 150.188C115.155 150.886 112.533 151.726 109.906 152.531C107.491 153.272 105.011 153.992 102.5 154.312C105.875 156.6 109.778 157.961 113.25 160.094C113.719 160.382 114.592 160.95 115.031 161.281C115.683 161.773 116.22 162.411 116.844 162.938C117.181 163.222 117.585 163.423 117.938 163.688C118.354 164 118.724 164.396 119.156 164.688C119.54 164.946 120.421 165.259 120.844 165.406C122.222 165.885 123.621 166.141 125.062 166.344C129.878 166.475 133.9 162.659 134.031 157.844C134.163 153.028 130.347 149.038 125.531 148.906Z" fill="#924c27" stroke="none"/>
</g>
<g opacity="1">
<path d="M122.719 131.875C121.606 131.66 120.428 131.656 119.25 131.906C116.635 132.567 114.136 133.427 111.688 134.562C108.926 135.843 106.225 137.251 103.406 138.406C102.378 138.828 101.353 139.258 100.281 139.562C99.1875 139.874 98.0733 139.981 96.9688 140.25C94.2166 140.92 91.4613 141.525 88.6562 141.938C83.9051 142.636 79.0761 142.969 74.375 143.969C71.0069 144.685 67.9064 146.17 64.8125 147.625C63.2984 148.337 61.7458 149.16 60.0938 149.5C57.5308 150.028 54.8365 149.821 52.25 149.625C49.8129 149.44 47.3825 149.179 44.9375 149.125C50.0149 150.394 55.0617 152.851 60.375 152.969C62.3827 153.013 64.3603 152.504 66.3125 152.094C69.5714 151.409 72.8082 150.725 76.1562 151C80.7837 151.379 85.4027 152.114 90 152.75C92.6696 153.12 95.3685 153.52 98.0625 153.656C99.4846 153.728 100.862 153.552 102.281 153.5C103.759 153.446 105.246 153.469 106.719 153.312C112.347 152.715 117.327 149.823 122.875 148.969C127.587 147.968 130.594 143.337 129.594 138.625C128.843 135.091 126.056 132.52 122.719 131.875Z" fill="#924c27" stroke="none"/>
</g>
<g opacity="1">
<path d="M118.75 135.969C116.522 136.104 114.347 137.072 112.75 138.875C112.084 139.893 111.382 140.898 110.75 141.938C110.383 142.541 110.172 143.249 109.844 143.875C109.683 144.182 109.424 144.418 109.25 144.719C108.869 145.377 108.622 146.102 108.281 146.781C107.629 148.083 106.86 149.437 105.969 150.594C104.787 152.129 103.223 153.342 101.875 154.719C100.342 156.285 99.1228 158.114 97.875 159.906C99.8112 159.251 101.751 158.526 103.781 158.219C105.472 157.963 107.186 157.959 108.875 157.688C110.577 157.414 112.237 156.92 113.906 156.5C115.207 156.173 116.594 155.969 117.844 155.469C118.255 155.304 118.622 155.045 119.031 154.875C119.47 154.693 119.939 154.593 120.375 154.406C122.421 153.531 124.183 151.939 125.812 150.469C129.007 146.863 128.668 141.35 125.062 138.156C123.26 136.559 120.978 135.834 118.75 135.969Z" fill="#924c27" stroke="none"/>
</g>
<g opacity="1">
<path d="M72.7812 170.375C70.5838 169.982 68.2261 170.435 66.25 171.812C64.22 173.413 61.9001 174.603 59.875 176.219C57.7806 177.89 55.757 179.659 53.7812 181.469C52.8177 182.351 51.9551 183.33 51 184.219C50.0289 185.123 48.9242 185.864 47.9375 186.75C45.9939 188.496 44.1576 190.315 42.1562 192C38.354 195.201 34.161 197.906 30.375 201.125C28.672 202.573 27.0434 204.104 25.4062 205.625C24.5288 206.44 23.6783 207.34 22.7188 208.062C20.7991 209.507 18.5226 210.405 16.5312 211.75C14.2162 213.314 12.0005 215.095 9.375 216.125C8.36042 216.523 7.35309 216.734 6.28125 216.906C10.5426 217.205 13.909 215.607 17.7812 214.125C20.0941 213.24 22.5712 212.866 24.8438 211.875C26.1084 211.324 27.2919 210.599 28.5 209.938C30.3872 208.905 32.2871 207.854 34.2188 206.906C36.9553 205.564 39.7931 204.55 42.625 203.438C46.5274 201.904 50.3939 200.248 54.2188 198.531C55.9057 197.774 57.3838 196.729 59.0312 195.906C60.6967 195.075 62.3584 194.285 63.9688 193.344C65.9031 192.213 67.7492 190.954 69.6562 189.781C71.7947 188.467 74.1 187.486 76.2188 186.125C80.171 183.371 81.1603 177.921 78.4062 173.969C77.0292 171.993 74.9787 170.768 72.7812 170.375Z" fill="#924c27" stroke="none"/>
</g>
<g opacity="1">
<path d="M140.094 156.906C138.968 156.779 137.78 156.877 136.625 157.219C134.291 157.965 132.073 158.885 129.906 160.031C127.759 161.168 125.669 162.443 123.406 163.344C122.174 163.834 120.921 164.262 119.688 164.75C118.056 165.396 116.459 166.11 114.812 166.719C112.606 167.535 110.328 168.237 108.125 169.062C105.375 170.093 102.743 171.315 100.031 172.438C99.2726 172.752 98.4723 173.018 97.7188 173.344C95.0871 174.483 92.592 175.902 90.0312 177.188C85.3281 179.549 80.5891 181.822 75.8125 184.031C71.3465 186.097 66.9354 188.259 62.2812 189.875C60.0396 190.653 57.6499 190.836 55.4375 191.75C50.9613 193.6 47.0859 196.676 42.8438 198.969C41.1999 199.857 39.3107 200.084 37.5312 200.562C36.4572 200.852 35.4047 201.229 34.4062 201.719C30.9968 203.392 28.0729 206.319 24.9688 208.469C22.0433 210.495 18.881 212.163 15.875 214.062C14.3454 215.029 12.8735 216.067 11.4062 217.125C12.9871 216.264 14.5876 215.451 16.2188 214.688C19.4681 213.166 22.8152 211.846 26 210.188C28.2554 209.013 30.4002 207.634 32.625 206.406C33.6315 205.851 34.6594 205.251 35.75 204.875C38.3632 203.974 41.2007 204.26 43.8438 203.469C48.5858 202.05 52.7908 199.134 57.5938 197.875C59.0684 197.489 60.6159 197.524 62.125 197.375C63.6811 197.222 65.2269 196.909 66.75 196.562C72.1315 195.337 77.3909 193.606 82.6875 192.062C88.5684 190.349 94.4713 188.647 100.344 186.906C102.612 186.234 104.811 185.338 107.094 184.719C109.253 184.133 111.465 183.784 113.656 183.344C116.696 182.734 119.741 182.064 122.688 181.094C125.814 180.064 129.059 179.217 132.094 177.938C135.269 176.599 138.242 174.812 141.594 173.938C146.213 172.572 148.835 167.713 147.469 163.094C146.444 159.629 143.471 157.288 140.094 156.906Z" fill="#924c27" stroke="none"/>
</g>
<g opacity="1">
<path d="M121.125 146.594C119.994 146.524 118.823 146.694 117.688 147.094C115.145 148.064 112.798 149.339 110.656 151.031C108.165 153 106.077 155.415 103.688 157.5C101.832 159.12 99.9444 160.661 98.0625 162.25C96.5855 163.497 95.1473 164.833 93.6562 166.062C92.6467 166.895 91.542 167.584 90.5 168.375C88.0176 170.26 85.8395 172.476 83.3125 174.312C79.8645 176.819 76.18 179.008 72.8125 181.625C70.7783 183.206 69.0536 185.162 66.8125 186.469C65.0742 187.482 63.0979 188.12 61.2188 188.812C59.0329 189.618 56.8378 190.425 54.7812 191.531C52.913 192.536 51.2833 193.867 49.5625 195.094C47.9768 196.224 46.3193 197.289 44.625 198.25C42.1614 199.647 39.4876 200.67 36.9688 201.969C33.5169 203.748 30.2843 205.871 27.0625 208.031C30.5474 206.434 34.0382 204.877 37.6875 203.688C40.4304 202.794 43.2638 202.188 45.9688 201.188C47.916 200.467 49.8259 199.637 51.6875 198.719C53.3949 197.877 55.0876 196.904 56.9062 196.312C61.1394 194.936 65.6831 194.872 69.875 193.344C72.7166 192.308 75.1026 190.523 77.7812 189.188C82.3545 186.907 87.1952 185.279 91.8125 183.094C93.9645 182.075 96.1395 180.997 98.1875 179.781C99.3169 179.111 100.41 178.38 101.562 177.75C102.737 177.107 103.947 176.543 105.125 175.906C107.546 174.597 109.894 173.129 112.156 171.562C114.031 170.264 115.843 168.867 117.594 167.406C119.448 165.859 121.125 164.239 123.469 163.531C128.013 161.932 130.412 156.95 128.812 152.406C127.613 148.998 124.518 146.803 121.125 146.594Z" fill="#924c27" stroke="none"/>
</g>
<g opacity="1">
<path d="M121.688 137.094C120.558 137.187 119.41 137.503 118.344 138.062C115.688 139.567 113.31 141.426 111.156 143.594C108.698 146.068 106.608 148.867 104.188 151.375C103.332 152.261 102.443 153.152 101.469 153.906C100.305 154.807 98.9972 155.455 97.7812 156.281C95.1025 158.101 92.3583 160.054 90 162.281C88.2254 163.957 87.1583 166.055 85.6562 167.938C84.9948 168.766 84.1671 169.466 83.3438 170.125C79.987 172.813 76.2284 174.939 72.7812 177.5C70.734 179.021 69.012 180.932 66.75 182.156C61.1023 185.214 54.5153 186.656 49.8438 191.312C55.3333 187.69 62.0946 187.628 68.2188 185.75C70.8816 184.934 73.1382 183.341 75.6562 182.219C79.634 180.446 83.7768 179.083 87.7188 177.219C89.7764 176.246 91.6118 175.148 93.3438 173.656C94.4069 172.741 95.4991 171.399 96.8438 170.844C97.7811 170.456 98.7371 170.019 99.6875 169.656C101.568 168.939 103.559 168.467 105.406 167.656C106.453 167.197 107.451 166.673 108.5 166.219C110.27 165.452 112.004 164.683 113.625 163.625C116.285 161.889 118.56 159.651 120.906 157.531C122.621 155.982 124.324 154.462 126.438 153.5C130.704 151.263 132.362 146.016 130.125 141.75C128.447 138.55 125.075 136.813 121.688 137.094Z" fill="#924c27" stroke="none"/>
</g>
<g opacity="1">
<path d="M120.812 139.781C118.339 139.677 115.939 139.86 113.562 140.594C109.874 141.733 106.872 144.048 103.906 146.438C102.662 147.44 101.393 148.42 100.188 149.469C98.9408 150.554 97.7853 151.745 96.4688 152.75C95.8402 153.23 95.1734 153.686 94.5625 154.188C93.6159 154.965 92.7553 155.808 91.8438 156.625C90.3661 157.95 88.8103 159.212 87.25 160.438C82.2629 164.355 77.0435 167.942 72.0938 171.906C71.1719 172.644 70.4722 173.503 69.6875 174.375C68.6566 175.52 67.4418 176.53 66.25 177.5C61.1971 181.612 55.5078 184.78 49.625 187.531C55.4847 186.196 61.2295 184.484 66.6875 181.938C68.54 181.073 70.3676 180.107 72.125 179.062C73.2512 178.393 74.1846 177.488 75.375 176.938C83.7393 173.071 92.3992 169.851 100.812 166.094C102.346 165.409 103.72 164.494 105.219 163.75C106.325 163.201 107.45 162.753 108.562 162.219C110.094 161.483 111.605 160.653 113.062 159.781C114.293 159.045 115.469 158.213 116.75 157.562C117.171 157.349 117.651 157.109 118.125 157.031C118.578 156.957 119.057 157.092 119.5 157.156C124.303 157.522 128.509 153.928 128.875 149.125C129.241 144.322 125.616 140.147 120.812 139.781Z" fill="#924c27" stroke="none"/>
</g>
<g opacity="1">
<path d="M118.625 137.562C117.501 137.703 116.386 138.085 115.344 138.688C113.594 139.798 111.906 140.994 110.281 142.281C108.323 143.833 106.464 145.518 104.406 146.938C102.939 147.95 101.406 148.895 99.8438 149.75C98.5549 150.456 97.3231 151.131 96.1562 152.031C93.106 154.386 90.2844 157.005 87.0312 159.094C83.8513 161.136 80.2907 162.472 76.9688 164.25C75.1428 165.227 73.4452 166.319 71.8125 167.594C70.5003 168.618 69.6366 170.059 68.4062 171.156C66.7713 172.615 64.8208 173.649 63.125 175.031C60.8112 176.917 58.6896 179.031 56.3125 180.844C59.0385 179.65 61.5687 178.093 64.25 176.812C66.2781 175.844 68.4784 175.305 70.4688 174.25C71.71 173.592 72.7429 172.572 73.9688 171.906C74.8075 171.45 75.8433 171.105 76.75 170.812C80.8052 169.502 85.1208 169.167 89.25 168.156C92.6656 167.32 95.9316 165.978 99.2188 164.75C100.645 164.217 102.102 163.801 103.531 163.281C104.18 163.045 104.808 162.729 105.469 162.531C107.368 161.962 109.323 161.784 111.188 161.062C115.826 159.269 119.687 156.019 124.094 153.781C128.264 151.37 129.692 146.045 127.281 141.875C125.473 138.747 121.998 137.142 118.625 137.562Z" fill="#924c27" stroke="none"/>
</g>
<g opacity="1">
<path d="M-2.375 141.094C5.04044 144.874 13.2543 145.396 21.3125 146.812C28.7802 148.125 36.1189 150.253 43.6562 151.156C49.5049 151.857 55.4351 151.747 61.2812 152.469C64.7975 152.903 68.0681 154.294 71.5625 154.812C74.5462 155.255 77.6301 155.154 80.5625 155.906C82.1486 156.313 83.7142 156.973 85.25 157.531C87.2911 158.273 89.4295 158.84 91.5625 159.25C95.96 160.095 100.476 159.863 104.875 160.656C105.155 160.707 105.412 160.773 105.688 160.844C105.72 160.852 105.632 160.914 105.656 160.938C105.823 161.094 106.032 161.212 106.219 161.344C106.586 161.604 107.136 161.942 107.5 162.156C108.613 162.81 109.788 163.366 111.031 163.719C115.353 164.946 119.519 163.651 123.5 162C127.9 160.04 129.867 154.9 127.906 150.5C125.946 146.1 120.807 144.133 116.406 146.094C115.894 146.339 115.356 146.567 114.844 146.812C114.515 146.613 114.187 146.423 113.844 146.25C113.128 145.888 112.411 145.519 111.656 145.25C109.562 144.503 107.358 144.252 105.156 144.125C101.553 143.917 97.9455 144.139 94.3438 144.281C92.9598 144.336 91.4741 144.473 90.0938 144.281C88.683 144.085 87.3782 143.547 86 143.219C84.6796 142.904 83.2943 142.699 81.9375 142.656C78.5541 142.549 75.2479 143.436 71.875 143.469C70.1957 143.485 68.512 143.239 66.8438 143.094C65.0745 142.939 63.3368 142.888 61.5625 142.969C55.679 143.235 49.8585 144.243 43.9688 144.438C36.5255 144.683 29.1183 143.659 21.6875 143.406C13.5831 143.13 5.42497 143.779-2.375 141.094ZM115.594 147.281C115.614 147.289 115.636 147.273 115.656 147.281C115.695 147.297 116.037 147.459 116.031 147.469C116.027 147.476 115.814 147.403 115.656 147.312C115.637 147.301 115.613 147.293 115.594 147.281Z" fill="#924c27" stroke="none"/>
</g>
<g opacity="1">
<path d="M108.406 135.781C107.644 135.707 106.852 135.803 106.094 135.906C105.272 136.018 104.374 136.366 103.625 136.719C103.387 136.831 103.109 137.026 102.844 137.188C102.836 137.192 102.82 137.183 102.812 137.188C102.006 137.356 101.209 137.565 100.406 137.75C99.0826 138.055 97.7696 138.329 96.4375 138.594C94.5813 138.963 92.7068 139.232 90.8438 139.562C88.4086 139.995 85.9954 140.449 83.5312 140.688C79.0976 141.116 74.6407 142.202 70.375 143.469C69.0246 143.87 67.6934 144.348 66.3438 144.75C64.3471 145.345 62.3315 145.79 60.2812 146.156C47.9203 148.363 35.2131 147.294 22.7812 146.438C18.4297 146.138 14.0619 146.571 9.71875 146.219C6.377 145.947 3.14663 145.02 0 143.906C3.01901 145.501 6.15921 146.916 9.5 147.688C13.7216 148.663 18.0761 148.857 22.3125 149.781C34.2932 152.395 46.2841 155.167 58.5938 155.531C61.4424 155.616 64.3167 155.561 67.1562 155.312C69.621 155.097 72.0586 154.698 74.5312 154.562C77.1769 154.417 79.8222 154.553 82.4688 154.531C84.194 154.517 85.8977 154.394 87.625 154.438C89.4122 154.483 91.2114 154.642 93 154.656C93.7735 154.662 94.5391 154.555 95.3125 154.531C95.561 154.839 95.8931 155.186 96.0625 155.344C96.5273 155.776 97.0185 156.142 97.5625 156.469C98.5955 157.09 99.7236 157.455 100.906 157.656C101.083 157.686 101.258 157.762 101.438 157.75C102.417 157.682 103.398 157.628 104.375 157.531C104.719 157.497 105.563 157.217 105.844 157.125C105.948 157.091 106.053 157.036 106.156 157C105.964 157.123 105.61 157.169 105.406 157.219C108.384 156.685 110.592 154.641 111.719 152.062C112.012 151.865 112.319 151.687 112.594 151.469C112.966 151.173 113.404 150.944 113.688 150.562C114.515 149.45 115.455 148.352 115.875 147.031C116.308 145.669 116.27 144.175 116.156 142.75C116.091 141.931 115.773 141.156 115.375 140.438C114.885 139.553 114.278 138.682 113.531 138C112.77 137.305 111.851 136.756 110.906 136.344C110.116 136 109.264 135.864 108.406 135.781Z" fill="#924c27" stroke="none"/>
</g>
<g opacity="1">
<path d="M89.9688 166.125C88.8425 166.249 87.7075 166.6 86.6562 167.188C84.7162 168.414 82.6214 168.8 80.4062 169.312C78.0675 169.854 75.7624 170.514 73.5312 171.406C71.8954 172.06 70.2593 172.769 68.6562 173.5C68.192 173.712 67.7713 173.96 67.2812 174.125C65.2324 174.817 63.058 174.908 60.9688 175.438C59.457 175.821 57.9725 176.306 56.4688 176.719C53.3898 177.564 50.2755 178.294 47.125 178.812C44.2183 179.291 41.2836 179.621 38.3438 179.812C36.4442 179.936 34.5224 179.997 32.625 180.156C28.0788 180.538 23.5416 181.239 18.9688 181.094C14.3198 180.946 9.96127 179.066 5.34375 178.656C3.21854 178.468 1.09679 178.734-1.03125 178.688C-2.07812 178.665-3.15193 178.53-4.1875 178.375C-3.1822 178.717-2.16542 179.038-1.125 179.25C1.51851 179.789 4.2067 179.975 6.78125 180.844C10.1951 181.996 13.2933 183.913 16.7812 184.875C22.4121 186.429 28.3319 186.496 34.0938 187.25C37.8251 187.738 41.5253 188.309 45.2812 188.594C51.9349 189.097 58.6934 189.106 65.3438 188.656C67.5659 188.506 69.7885 188.693 72 188.344C74.7479 187.91 77.3672 187.002 80.0625 186.344C82.4887 185.752 85.0209 185.641 87.4688 185.156C90.1967 184.616 92.7226 183.687 95.1875 182.406C99.3924 180.056 100.882 174.767 98.5312 170.562C96.7685 167.409 93.3474 165.753 89.9688 166.125Z" fill="#924c27" stroke="none"/>
</g>
<g opacity="1">
<path d="M82.6875 140.094C80.5332 144.402 82.2539 149.658 86.5625 151.812C90.8711 153.967 96.1269 152.215 98.2812 147.906C96.08 145.833 93.8467 143.798 91.5938 141.781C88.6282 141.189 85.6671 140.611 82.6875 140.094Z" fill="#924c27" stroke="none"/>
</g>
<g opacity="1">
<path d="M7.40625 125.875C10.192 127.86 12.6519 130.229 15.4062 132.25C19.1974 135.032 23.4058 137.116 27.5625 139.281C30.0997 140.603 32.5655 142.097 35.1875 143.25C41.7183 146.123 48.7833 147.486 55.7812 148.656C60.0329 149.367 64.2984 150.256 68.5938 150.656C70.1112 150.798 71.6344 150.724 73.1562 150.75C75.8678 150.795 78.4852 150.807 81.1875 150.531C84.7503 150.168 88.3533 150.313 91.9062 149.812C95.685 149.28 99.2128 148.038 102.406 145.938C106.349 143.17 107.298 137.756 104.531 133.812C101.764 129.869 96.3181 128.889 92.375 131.656C90.3662 133.283 87.4533 133.512 85 133.875C82.4146 134.258 79.8588 134.645 77.3438 135.375C75.9477 135.78 74.578 136.286 73.1562 136.594C71.5995 136.931 70.0106 136.945 68.4375 137.156C64.4167 137.696 60.4277 138.144 56.375 138.375C49.9376 138.742 43.4352 138.909 37.0938 137.531C34.4269 136.952 31.8587 135.978 29.25 135.188C24.898 133.868 20.4847 132.637 16.375 130.656C13.3193 129.184 10.4859 127.308 7.40625 125.875Z" fill="#924c27" stroke="none"/>
</g>
<g opacity="1">
<path d="M94.9375 159.844C93.806 159.786 92.6318 159.963 91.5 160.375C89.1881 161.576 86.5341 161.576 84.125 162.562C83.2647 162.915 82.1004 163.666 81.25 164.062C80.7884 164.277 80.2693 164.4 79.8125 164.625C77.9564 165.54 76.2169 166.833 74.4688 167.938C67.0887 172.601 60.6124 177.952 56.0938 185.531C62.5837 180.776 69.8574 178.302 77.875 177.781C79.2594 177.691 80.6448 177.689 82.0312 177.719C82.4964 177.729 82.973 177.775 83.4375 177.75C83.8888 177.726 84.3299 177.586 84.7812 177.562C86.8563 177.453 88.9495 177.82 91.0312 177.812C93.2339 177.805 95.3641 177.372 97.4688 176.75C101.996 175.103 104.334 170.09 102.688 165.562C101.453 162.167 98.3321 160.018 94.9375 159.844Z" fill="#924c27" stroke="none"/>
</g>
<g opacity="1">
<path d="M27.2188 75.375C28.8893 78.533 31.151 81.2444 33.4062 84C35.8178 86.9466 38.247 89.8987 40.5 92.9688C41.8108 94.755 42.4117 96.9271 43.7812 98.6875C44.9809 100.23 46.6488 101.342 47.8125 102.906C49.1702 104.731 50.0156 106.796 51.5312 108.531C53.2544 110.504 55.439 111.995 57.25 113.875C58.5073 115.18 59.493 116.757 60.7188 118.094C62.5721 120.116 64.7702 121.861 66.8125 123.688C68.3874 125.096 69.9362 126.569 71.7188 127.719C72.8089 128.422 73.9942 128.961 75.125 129.594C79.4504 132.013 83.8817 134.175 88.4688 136.062C91.853 137.455 95.3485 138.613 98.6562 140.188C103.083 142.087 108.194 140.052 110.094 135.625C111.993 131.198 109.958 126.056 105.531 124.156C101.789 122.691 97.9352 121.685 94.0938 120.531C91.9473 119.887 89.8456 119.141 87.6875 118.531C85.1406 117.812 82.4419 117.422 79.9688 116.469C79.3955 116.248 79.0311 116.039 78.4688 115.781C76.2097 114.745 73.9761 113.737 71.7812 112.562C70.4512 111.851 69.0011 111.254 67.75 110.406C66.0842 109.277 64.6523 107.83 62.9688 106.719C60.9966 105.417 58.7614 104.494 56.875 103.062C55.1505 101.754 53.962 99.9257 52.3438 98.5C50.8864 97.216 49.0647 96.4395 47.5938 95.1875C46.6194 94.3581 45.9801 93.2596 45.2188 92.25C44.5219 91.3259 43.7256 90.5301 42.875 89.75C40.2299 87.3239 37.5168 84.98 34.7812 82.6562C32.0985 80.3774 29.404 78.1494 27.2188 75.375Z" fill="#924c27" stroke="none"/>
</g>
<g opacity="1">
<path d="M228.281 213.844C227.427 214.418 226.504 214.822 225.594 215.281C225.305 214.887 224.807 214.608 224.219 214.625C223.848 214.636 223.525 214.831 223.188 214.969C223.155 214.974 223.125 214.968 223.094 214.969C222.729 214.977 222.365 214.967 222 214.969C221.115 214.974 220.227 214.806 219.344 214.875C218.699 214.925 218.055 215.134 217.438 215.312C216.904 215.467 216.38 215.605 215.844 215.75C214.921 215.05 213.606 215.234 212.906 216.156C212.528 216.687 212.136 217.335 212.25 218.031C212.324 218.483 212.475 218.946 212.75 219.312C212.984 219.624 213.371 219.824 213.719 220C213.922 220.103 214.149 220.126 214.375 220.156C215.57 220.316 216.988 219.654 218.062 219.25C218.274 219.171 218.477 219.081 218.688 219C218.868 218.93 219.038 218.852 219.219 218.781C219.251 218.772 219.281 218.759 219.312 218.75C219.435 218.714 219.595 218.687 219.688 218.656C219.789 218.623 219.898 218.597 220 218.562C220.08 218.552 220.17 218.543 220.25 218.531C220.51 218.492 220.77 218.443 221.031 218.406C221.86 218.289 222.677 218.239 223.5 218.062C224.304 217.89 225.45 217.571 225.781 216.656C225.9 216.328 225.739 216.071 225.656 215.781C226.556 215.166 227.464 214.581 228.281 213.844Z" fill="#924c27" stroke="none"/>
</g>
</g>
</g>
<g clip-path="url(#ArtboardFrame)" id="Layer-Nucleus" layerName="Layer Nucleus">
<g opacity="1" layerName="(curve)">
<g opacity="1">
<path d="M201.031 337.656C198.517 337.827 196.08 338.526 193.781 339.562C193.194 339.827 192.61 340.097 192.062 340.438C191.534 340.766 191.064 341.194 190.562 341.562C189.696 342.331 189.607 343.633 190.375 344.5C191.143 345.367 192.477 345.456 193.344 344.688C194.727 343.202 195.859 341.477 197.344 340.094C198.442 339.071 199.688 338.31 201.031 337.656Z" fill="#311709" stroke="none"/>
</g>
<g opacity="1">
<path d="M4.78125 71C9.02042 76.8476 13.3589 82.6139 18.0312 88.125C28.2935 100.23 39.8736 111.329 52.7812 120.594C61.5488 126.887 70.9619 132.078 80.75 136.594C81.9239 137.123 83.3147 136.611 83.8438 135.438C84.3728 134.264 83.8302 132.873 82.6562 132.344C66.8258 125.377 51.729 116.701 38.2812 105.781C25.7208 95.582 14.8494 83.6193 4.78125 71Z" fill="#311709" stroke="none"/>
</g>
<g opacity="1">
<path d="M6.78125 74.375C13.1867 81.316 19.8126 88.0618 27.0938 94.0938C29.6624 96.2217 32.2838 98.3682 35.0625 100.219C36.9717 101.49 38.8623 102.78 40.8438 103.938C43.597 105.546 46.4658 106.975 49.3438 108.344C50.5155 108.878 51.9037 108.359 52.4375 107.188C52.9713 106.016 52.453 104.628 51.2812 104.094C43.778 100.823 36.3871 97.1454 29.5312 92.6562C21.3734 87.3146 13.9706 80.9358 6.78125 74.375Z" fill="#311709" stroke="none"/>
</g>
<g opacity="1">
<path d="M24.9688 73.9062C26.3929 75.6753 27.9031 77.4217 29.25 79.25C30.588 81.0662 31.8179 83.0044 33.0312 84.9062C36.4112 90.2041 39.3334 95.7936 42.9062 100.969C44.545 103.342 46.4435 105.518 48.4062 107.625C49.304 108.548 50.7956 108.554 51.7188 107.656C52.6419 106.759 52.6477 105.298 51.75 104.375C46.5933 99.3049 42.0487 93.6348 37.5312 88C35.029 84.8788 32.5701 81.6825 29.8438 78.75C28.29 77.0788 26.5928 75.5095 24.9688 73.9062Z" fill="#311709" stroke="none"/>
</g>
<g opacity="1">
<path d="M3.65625 123.719C8.64945 126.863 13.7935 129.7 19.2188 132.031C30.9314 137.065 43.6291 139.736 56.375 139.969C65.1198 140.128 73.7633 139.005 82.3125 137.25C83.5709 136.977 84.3977 135.727 84.125 134.469C83.8523 133.21 82.6022 132.415 81.3438 132.688C67.4058 135.87 52.9132 137.684 38.6562 135.781C26.2583 134.127 14.5668 129.744 3.65625 123.719Z" fill="#311709" stroke="none"/>
</g>
<g opacity="1">
<path d="M-3.96875 178.656C2.52368 179.775 8.67658 181.78 14.8438 184.062C19.7129 185.865 24.5665 187.739 29.5938 189.062C31.5552 189.579 33.5806 190.048 35.5938 190.312C38.5466 190.7 41.5591 190.887 44.5312 190.656C47.8192 190.401 51.0048 189.698 54.1562 188.75C55.3836 188.361 56.0456 187.04 55.6562 185.812C55.2669 184.585 53.9774 183.923 52.75 184.312C48.0768 185.876 43.1919 186.775 38.25 186.781C29.5875 186.793 21.2744 184.167 13 181.938C7.39361 180.427 1.8199 179.189-3.96875 178.656Z" fill="#311709" stroke="none"/>
</g>
<g opacity="1">
<path d="M54.2812 184.5C53.7056 184.343 53.059 184.399 52.5 184.719C49.1466 186.706 45.8723 188.818 42.75 191.156C35.7986 196.362 29.2954 202.133 22.1562 207.094C17.1075 210.602 11.8304 213.608 6.125 215.906C9.04626 215.003 11.9001 213.982 14.6875 212.719C21.5054 209.63 27.8407 205.568 34.125 201.531C40.9372 197.156 47.7157 192.687 54.8125 188.781C55.9305 188.142 56.3262 186.712 55.6875 185.594C55.3681 185.035 54.8569 184.657 54.2812 184.5Z" fill="#311709" stroke="none"/>
</g>
<g opacity="1">
<path d="M200.188 73.7812C193.587 73.7858 186.972 74.6085 180.688 76.5938C175.638 78.1889 170.812 80.4358 166.219 83.0625C156.648 88.5352 148.332 95.8389 139.75 102.688C133.469 107.7 127.004 112.392 120 116.344C118.993 116.916 118.646 118.181 119.219 119.188C119.791 120.194 121.056 120.573 122.062 120C130.39 115.224 137.915 109.41 145.312 103.312C153.575 96.5013 161.751 89.3099 171.219 84.1875C182.097 78.3016 194.292 75.878 206.594 76.5938C220.217 77.3864 232.613 82.0804 244.562 88.4062C258.736 95.9097 272.389 105.436 288.438 108.438C297.896 110.207 307.542 109.459 316.781 106.875C321.426 105.576 325.912 103.836 330.312 101.875C317.38 107.357 303.861 110.482 289.844 107.906C274.304 105.051 261.158 95.8585 247.688 88.1875C241.452 84.6367 235.022 81.365 228.281 78.875C221.354 76.316 214.116 74.6271 206.75 74.0312C204.569 73.8548 202.388 73.7797 200.188 73.7812Z" fill="#311709" stroke="none"/>
</g>
<g opacity="1">
<path d="M26.8438 74.7188C27.8871 76.1944 28.9339 77.5633 30.2188 78.8438C32.7635 81.3797 35.6664 83.5281 38.0312 86.25C41.2908 90.0016 44.6389 93.6115 48.25 97.0312C58.0696 106.33 69.393 114.474 82 119.531C91.3113 123.266 101.55 124.989 111.5 123.188C114.907 122.571 118.19 121.534 121.375 120.188C122.438 119.729 122.928 118.501 122.469 117.438C122.01 116.374 120.782 115.885 119.719 116.344C117.111 117.493 114.439 118.408 111.656 119.031C103.392 120.883 94.8473 120.096 86.75 117.844C75.505 114.717 65.1834 108.813 55.9375 101.781C53.0684 99.5991 50.2718 97.2882 47.5938 94.875C44.4023 91.9991 41.4371 88.9438 38.5 85.8125C36.0203 83.1688 32.9966 81.169 30.3438 78.7188C29.0164 77.4928 27.9381 76.1481 26.8438 74.7188Z" fill="#311709" stroke="none"/>
</g>
<g opacity="1">
<path d="M-2.84375 143.688C7.02466 147.112 17.1069 149.887 27.3438 151.969C33.9755 153.318 40.6878 154.443 47.4375 155C52.3234 155.403 57.2544 155.571 62.1562 155.625C71.7144 155.73 81.3148 155.958 90.5 158.875C91.6068 159.216 92.7842 158.607 93.125 157.5C93.4658 156.393 92.8256 155.216 91.7188 154.875C86.8846 153.431 81.9742 152.611 76.9375 152.312C67.1555 151.732 57.3812 152.913 47.5938 152.625C41.6313 152.45 35.6495 151.759 29.75 150.906C18.717 149.311 7.83663 146.876-2.84375 143.688Z" fill="#311709" stroke="none"/>
</g>
<g opacity="1">
<path d="M90.9062 155.219C90.3698 155.233 89.8363 155.455 89.4375 155.875C84.4969 161.171 77.654 163.575 71.4062 166.906C69.8325 167.745 68.3065 168.655 66.7188 169.469C61.1082 172.344 55.2679 174.759 49.1875 176.438C31.98 181.188 13.9741 180.333-3.65625 179.312C14.0871 181.088 32.1684 182.632 49.75 178.719C54.981 177.555 60.1893 176.004 65.125 173.906C67.8141 172.764 70.4164 171.423 73.0625 170.188C79.9311 166.98 87.0906 164.32 92.4688 158.75C93.2663 157.91 93.2459 156.61 92.4062 155.812C91.9864 155.414 91.4427 155.205 90.9062 155.219Z" fill="#311709" stroke="none"/>
</g>
<g opacity="1">
<path d="M103.25 182.562C100.497 183.391 97.6807 184.061 94.9062 184.812C90.9656 185.88 87.0538 187.003 83.1562 188.219C69.6947 192.418 56.4172 197.229 43.2188 202.188C38.7602 203.862 34.3302 205.611 29.9062 207.375C25.7175 209.045 21.5396 210.77 17.5312 212.844C13.6157 214.87 9.90783 217.254 6.34375 219.844C9.99715 217.408 13.7692 215.173 17.75 213.312C22.2124 211.227 26.8544 209.561 31.5 207.938C35.5743 206.514 39.6786 205.153 43.7812 203.812C55.2112 200.079 66.7167 196.588 78.3125 193.406C83.5317 191.974 88.7848 190.548 94.0312 189.219C97.4958 188.341 100.999 187.57 104.438 186.594C105.549 186.269 106.168 185.112 105.844 184C105.519 182.888 104.362 182.238 103.25 182.562Z" fill="#311709" stroke="none"/>
</g>
<g opacity="1">
<path d="M327.656 178.938C304.899 178.503 281.583 182.898 261.562 194.094C255.383 197.55 249.655 201.723 243.844 205.75C234.022 212.557 223.388 219.165 211.094 219.562C207.656 219.674 204.16 219.375 200.75 218.969C192.392 217.972 184.237 215.834 176.281 213.125C166.688 209.858 157.401 205.842 148.125 201.781C143.277 199.659 138.392 197.632 133.562 195.469C129.868 193.814 126.213 192.058 122.531 190.375C120.211 189.315 117.849 188.382 115.594 187.188C112.11 185.343 107.949 182.308 103.812 182.406C102.655 182.443 101.745 183.405 101.781 184.562C101.818 185.72 102.78 186.63 103.938 186.594C105.366 186.53 106.774 187.242 108.031 187.844C110.326 188.942 112.489 190.273 114.781 191.375C117.325 192.597 119.957 193.654 122.531 194.812C126.166 196.449 129.769 198.127 133.438 199.688C142.277 203.447 151.128 207.24 160.094 210.688C168.141 213.782 176.205 216.705 184.594 218.75C190.872 220.28 197.265 221.342 203.719 221.75C206.196 221.907 208.706 222.007 211.188 221.875C231.346 220.801 245.705 204.768 262.156 195.156C281.827 183.664 305.058 178.9 327.656 178.938Z" fill="#311709" stroke="none"/>
</g>
<g opacity="1">
<path d="M375.625 69.875C373.286 71.9248 371.143 74.1884 369.031 76.4688C368.007 77.5747 367.026 78.8674 365.844 79.8125C362.602 82.403 359.103 84.7175 355.688 87.0625C350.787 90.4269 345.725 93.558 340.438 96.2812C323.374 105.069 303.367 110.18 284.219 106.594C283.079 106.39 281.985 107.141 281.781 108.281C281.577 109.421 282.329 110.515 283.469 110.719C309.853 115.233 335.617 103.42 356.312 87.9375C359.643 85.4457 363.074 82.9508 366.219 80.2188C367.541 79.0698 368.584 77.575 369.719 76.25C371.598 74.0565 373.53 71.866 375.625 69.875Z" fill="#311709" stroke="none"/>
</g>
<g opacity="1">
<path d="M254.562 93.375C258.947 96.5706 263.292 99.8419 267.812 102.844C271.223 105.108 274.683 107.28 278.438 108.938C280.699 109.936 283.061 110.626 285.469 111.156C286.605 111.38 287.714 110.636 287.938 109.5C288.161 108.364 287.418 107.255 286.281 107.031C274.749 105.046 264.621 99.0175 254.562 93.375Z" fill="#311709" stroke="none"/>
</g>
<g opacity="1">
<path d="M397.438 72.7812C392.124 77.1528 386.629 81.2651 381.281 85.5938C373.716 91.7172 366.314 98.0496 357.938 103.062C350.159 107.717 341.899 111.462 334.125 116.125C328.626 119.424 323.49 123.202 318.844 127.625C318.012 128.43 318.007 129.762 318.812 130.594C319.618 131.426 320.949 131.462 321.781 130.656C332.676 119.932 346.624 113.445 359.188 105C367.363 99.5047 374.518 92.7886 381.875 86.2812C387.026 81.7249 392.322 77.379 397.438 72.7812Z" fill="#311709" stroke="none"/>
</g>
<g opacity="1">
<path d="M411.438 108.594C398.641 114.431 384.808 117.274 371.25 120.75C360.869 123.412 350.426 126.131 339.781 127.5C333.617 128.293 327.42 128.656 321.25 127.719C320.104 127.555 319.039 128.354 318.875 129.5C318.711 130.646 319.51 131.711 320.656 131.875C329.1 133.007 337.524 131.911 345.781 130.062C355.219 127.95 364.388 124.898 373.625 122.062C386.415 118.136 399.471 114.712 411.438 108.594Z" fill="#311709" stroke="none"/>
</g>
<g opacity="1">
<path d="M416.719 128.031C404.744 128.738 392.803 131.17 381.156 133.969C370.908 136.432 360.514 139.284 350.75 143.281C345.314 145.507 340.019 147.917 335.094 151.156C332.486 152.872 330.059 154.903 328.031 157.281C327.288 158.169 327.394 159.475 328.281 160.219C329.169 160.962 330.506 160.856 331.25 159.969C334.069 156.538 337.829 153.975 341.625 151.75C345.928 149.228 350.401 147.081 354.969 145.094C366.018 140.287 377.51 136.54 389.156 133.469C398.205 131.082 407.401 129.001 416.719 128.031Z" fill="#311709" stroke="none"/>
</g>
<g opacity="1">
<path d="M329.938 156.438C328.781 156.506 327.9 157.5 327.969 158.656C328.037 159.812 329.031 160.693 330.188 160.625C336.158 160.212 341.956 161.646 347.656 163.281C355.454 165.518 363.122 168.542 371.25 169.375C381.901 170.467 392.407 167.776 402.906 166.469C406.578 166.012 410.24 165.823 413.938 165.906C408.99 165.552 404.089 165.779 399.156 166.25C389.998 167.125 380.747 168.681 371.562 167.188C366.54 166.371 361.772 164.601 357.031 162.812C348.331 159.53 339.404 155.966 329.938 156.438Z" fill="#311709" stroke="none"/>
</g>
<g opacity="1">
<path d="M291.625 178.562C287.323 179.595 283.08 180.885 279.031 182.688C264.27 189.258 251.978 200.165 239.875 210.625C248.617 204.063 257.349 197.372 266.969 192.125C274.976 187.758 283.642 184.55 292.562 182.656C293.692 182.401 294.381 181.255 294.125 180.125C293.869 178.995 292.755 178.307 291.625 178.562Z" fill="#311709" stroke="none"/>
</g>
<g opacity="1">
<path d="M338.312 175.438C333.727 175.38 329.145 175.439 324.562 175.625C318.901 175.855 313.245 176.12 307.594 176.531C301.684 176.961 295.757 177.53 290.031 179.125C288.918 179.443 288.276 180.605 288.594 181.719C288.912 182.832 290.074 183.474 291.188 183.156C297.799 181.221 304.729 180.737 311.562 180.156C317.168 179.68 322.758 179.06 328.375 178.75C348.146 177.66 368.359 177.458 387.812 181.656C397.146 183.671 406.09 186.813 414.75 190.812C407.88 187.359 400.815 184.38 393.438 182.188C380.006 178.196 366.017 176.579 352.062 175.875C347.483 175.644 342.898 175.495 338.312 175.438Z" fill="#311709" stroke="none"/>
</g>
<g opacity="1">
<path d="M412.906 166.094C402.111 168.494 391.409 173.568 380.125 172.375C379.746 172.338 379.412 172.59 379.375 172.969C379.338 173.348 379.621 173.713 380 173.75C387.351 174.408 394.134 172.197 401 169.844C404.943 168.492 408.876 167.164 412.906 166.094Z" fill="#311709" stroke="none"/>
</g>
<g opacity="1">
<path d="M380.25 172.5C379.923 172.306 379.507 172.423 379.312 172.75C379.118 173.077 379.235 173.493 379.562 173.688C388.86 179.105 398.543 183.846 408.719 187.375C404.564 185.732 400.503 183.892 396.531 181.844C390.971 178.977 385.6 175.736 380.25 172.5Z" fill="#311709" stroke="none"/>
</g>
<g opacity="1">
<path d="M402.594 69.4062C394.96 73.7296 387.601 78.4534 380.219 83.1875C371.492 88.7838 362.546 94.2795 352.594 97.4062C352.231 97.5221 352.04 97.9184 352.156 98.2812C352.272 98.644 352.637 98.8346 353 98.7188C363.072 95.4522 371.907 89.6616 380.594 83.75C387.841 78.8181 395.069 73.909 402.594 69.4062Z" fill="#311709" stroke="none"/>
</g>
<g opacity="1">
<path d="M374.844 71.2188C370.058 77.3493 365.175 83.3923 360.094 89.2812C358.495 91.1344 356.922 92.9953 355.281 94.8125C354.74 95.4122 354.198 96.0242 353.625 96.5938C353.412 96.8056 353.201 97.027 352.969 97.2188C352.91 97.2677 352.711 97.3738 352.781 97.3438C352.403 97.3919 352.139 97.7472 352.188 98.125C352.236 98.5028 352.591 98.7669 352.969 98.7188C353.876 98.5444 354.599 97.5468 355.188 96.9062C356.658 95.3042 358.031 93.6147 359.375 91.9062C364.699 85.1374 369.818 78.2115 374.844 71.2188Z" fill="#311709" stroke="none"/>
</g>
<g opacity="1">
<path d="M406.438 111.031C404.714 111.906 402.933 112.707 401.25 113.656C399.672 114.546 398.104 115.562 396.594 116.562C390.498 120.6 384.822 125.191 378.469 128.844C378.14 129.036 378.026 129.453 378.219 129.781C378.411 130.11 378.828 130.224 379.156 130.031C381.23 128.795 383.273 127.495 385.219 126.062C389.188 123.14 392.892 119.873 396.875 116.969C398.332 115.906 399.842 114.825 401.375 113.875C403.015 112.859 404.754 111.975 406.438 111.031Z" fill="#311709" stroke="none"/>
</g>
<g opacity="1">
<path d="M405.938 126.969C396.844 126.659 387.738 127.751 378.688 128.812C378.31 128.86 378.047 129.185 378.094 129.562C378.141 129.94 378.466 130.203 378.844 130.156C386.831 129.102 394.811 127.67 402.875 127.344C406.937 127.179 410.994 127.316 415.031 127.781C412.006 127.316 408.969 127.072 405.938 126.969Z" fill="#311709" stroke="none"/>
</g>
<g opacity="1">
<path d="M8.90625 127.219C12.5748 130.645 16.582 133.677 20.75 136.469C25.771 139.831 30.9366 142.845 36.5 145.219C37.2125 145.509 38.0219 145.15 38.3125 144.438C38.6031 143.725 38.2437 142.916 37.5312 142.625C27.4005 138.686 17.4882 133.968 8.90625 127.219Z" fill="#311709" stroke="none"/>
</g>
<g opacity="1">
<path d="M28.8125 142.969C23.5062 143.151 18.2152 143.794 12.9062 143.938C9.1232 144.039 5.39318 143.858 1.65625 143.25C12.7627 145.996 24.4129 144.674 35.7188 145.969C36.4845 146.044 37.1745 145.485 37.25 144.719C37.3255 143.953 36.7658 143.263 36 143.188C33.6056 142.989 31.2159 142.886 28.8125 142.969Z" fill="#311709" stroke="none"/>
</g>
<g opacity="1" layerName="(curve)">
<path d="M241.146 106.817C235.926 107.218 230.652 109.467 226.021 114.098L228.271 113.505C218.492 118.416 213.916 133.607 202.709 135.848C188.674 138.655 177.683 120.597 162.99 123.536C147.291 126.675 136.944 161.615 149.084 173.755C185.105 209.776 258.273 189.995 268.427 139.223C272.052 121.099 256.807 105.614 241.146 106.817Z" fill="#311709" fill-rule="nonzero" opacity="1" stroke="#311709" stroke-linecap="round" stroke-linejoin="round" stroke-width="5.12414"/>
</g>
</g>
</g>
<g id="Layer-White" layerName="Layer White">
<g opacity="1">
<path d="M243.031 107.219C237.524 107.177 232.347 108.586 227.906 112.625C220.316 119.528 217.197 130.988 206.719 134.562C205.09 135.118 203.401 135.482 201.688 135.625C192.343 136.403 184.551 130.795 176.656 126.719C174.152 125.426 171.592 124.209 168.844 123.531C163.273 122.157 158.309 123.547 153.906 127.125C151.257 129.278 149.083 131.932 147.094 134.688C146.646 135.313 146.78 136.209 147.406 136.656C148.032 137.104 148.896 136.938 149.344 136.312C151.302 133.547 153.471 130.879 156.156 128.781C157.279 127.905 158.472 127.159 159.781 126.594C166.769 123.581 173.989 127.857 180.094 131.031C188.235 135.264 196.661 139.002 205.969 136.188C207.491 135.727 208.973 135.088 210.344 134.281C218.681 129.378 221.488 119.445 228.25 113C233.973 107.545 241.144 106.728 248.625 107.688C246.736 107.4 244.867 107.233 243.031 107.219Z" fill="#ffffff" stroke="none"/>
</g>
<g opacity="1">
<path d="M148.125 133.844C147.779 133.928 147.45 134.14 147.25 134.469C145.125 137.982 143.346 141.689 142.344 145.688C141.72 148.177 141.413 150.745 141.469 153.312C141.799 168.563 155.014 179.275 167.719 185.281C169.524 186.135 171.356 186.905 173.219 187.625C175.689 188.58 178.205 189.425 180.75 190.156C183.833 191.041 186.962 191.747 190.125 192.281C195.312 193.158 200.566 193.522 205.812 193.031C229.337 190.83 248.921 174.04 262.531 155.812C248.433 174.062 228.098 190.881 204.062 191.969C200.08 192.149 196.117 191.807 192.188 191.156C188.481 190.543 184.808 189.671 181.219 188.562C178.116 187.604 175.066 186.496 172.094 185.188C169.727 184.146 167.401 182.972 165.156 181.688C154.461 175.567 143.814 165.74 144.094 152.438C144.137 150.387 144.457 148.36 144.969 146.375C145.928 142.649 147.621 139.203 149.625 135.938C150.025 135.28 149.813 134.4 149.156 134C148.828 133.8 148.471 133.76 148.125 133.844Z" fill="#ffffff" stroke="none"/>
</g>
</g>
</svg>
