<?xml version="1.0" encoding="UTF-8" standalone="no"?>
<svg height="100%" stroke-miterlimit="10" style="fill-rule:nonzero;clip-rule:evenodd;stroke-linecap:round;stroke-linejoin:round;" version="1.1" viewBox="0 0 419.58 297.675" width="100%" xmlns="http://www.w3.org/2000/svg">
<defs/>
<g id="Layer-Cyt" layerName="Layer Cyt">
<path d="M64.2655 111.01C58.7393 108.247 54.5041 87.3842 60.1116 83.1786C63.9471 80.302 70.0435 87.1058 72.9889 83.1786C77.0001 77.8303 74.3547 69.0252 82.543 66.9781C84.1422 66.5783 86.2521 65.7246 87.9431 66.1473C93.3445 67.4977 90.6807 74.2759 99.5742 72.7937C109.99 71.0578 109.014 52.628 122.836 54.9317C125.792 55.4243 127.064 59.5928 128.652 61.578C130.976 64.483 133.996 67.9711 137.791 69.0551C139.669 69.5918 142.84 70.2883 144.852 69.8859C148.125 69.2313 152.588 63.4978 156.483 67.3935C163.658 74.5683 161.164 89.0994 173.099 91.4865C182.792 93.425 189.82 82.9685 193.454 75.7015C195.195 72.2185 196.163 65.9892 200.515 64.9012C205.825 63.5739 209.55 67.4713 214.223 68.6397C219.152 69.8719 224.532 71.4864 228.762 74.8707C232.818 78.1156 237.42 83.9292 242.886 84.8402C245.319 85.2457 250.508 85.526 252.44 83.594C254.504 81.5298 256.136 77.7642 259.917 79.0246C262.524 79.8937 263.407 82.8472 264.902 84.8402C265.93 86.2114 267.536 87.802 268.225 89.4095C270.633 95.0294 272.674 94.2 279.662 95.3647C280.997 95.5871 286.567 94.6004 287.963 94.1349C294.153 92.0716 294.577 81.3528 295.342 75.9951C296.99 64.4583 291.538 63.6512 287.333 52.4393C284.679 45.3612 282.488 37.7532 283.595 30.0079C285.07 19.6765 293.924 14.8156 303.118 12.9767C305.369 12.5265 308.317 12.0652 310.595 12.9767C315.551 14.959 320.33 19.2321 323.057 23.777C325.114 27.2043 326.37 32.077 329.703 34.5773C335.105 38.628 340.993 39.8692 347.565 40.8082C349.931 41.1461 353.895 41.4015 355.873 42.8852C359.069 45.2816 356.936 57.5193 357.95 61.578C359.125 66.2766 361.179 69.0877 365.012 71.9629C366.735 73.2548 369.036 73.9806 370.412 75.7015C371.741 77.3626 372.397 79.2565 373.32 81.1016C375.33 85.1208 375.801 91.7329 374.566 96.0558C373.454 99.9493 371.545 103.875 372.074 108.102C372.372 110.489 373.186 114.199 374.982 115.995C379.911 120.924 390.596 124.984 388.274 134.272C387.423 137.677 384.965 140.382 382.874 142.996C381.738 144.416 381.474 146.524 380.382 147.98C376.451 153.222 374.969 159.675 373.735 165.842C372.19 173.572 375.752 182.754 379.136 189.52C381.294 193.836 384.339 197.148 383.29 202.397C382.212 207.785 382.535 205.627 381.14 211.208C379.454 217.953 380.7 221.872 383.374 227.22C387.282 235.036 384.793 236.669 380.767 244.722C378.357 249.542 380.065 258.039 374.809 257.382C372.157 257.05 366.479 264.212 364.011 264.829C361.861 265.367 351.364 270.764 350.233 272.649C346.549 278.789 341.531 279.289 333.442 280.907C323.84 282.827 327.939 278.537 318.582 280.096C310.377 281.464 306.214 284.589 294.81 281.738C288.525 280.167 290.665 283.073 283.207 284.565C273.698 286.467 269.99 283.005 262.409 287.553C255.494 291.703 245.538 291.967 237.901 290.876C235.366 290.514 232.992 288.784 230.839 287.553C225.472 284.486 219.331 283.645 216.3 277.584C212.313 269.61 199.335 257.275 187.544 254.917C170.124 251.433 168.022 258.891 150.252 258.891C143.225 258.891 131.437 270.072 126.185 263.507C125.168 262.237 123.147 244.107 122.094 243.054C115.958 236.918 96.6606 234.198 100.414 226.691C102.657 222.205 115.311 219.127 114.322 213.192C113.872 210.495 108.186 204.193 111.049 198.875C112.496 196.188 132.321 198.306 132.321 195.193C132.321 191.467 134.316 188.713 131.56 184.12C129.557 180.781 124.573 182.54 121.59 182.043C117.643 181.385 115.334 177.838 113.698 174.566C111.904 170.978 111.787 164.016 112.451 160.027C113.208 155.488 115.053 150.341 112.036 146.319C110.219 143.895 105.931 143.675 103.313 144.657C98.6285 146.414 94.0864 151.429 89.6047 152.55C86.927 153.219 76.9296 153.089 74.235 152.55C66.5827 151.019 54.5854 149.437 60.9424 138.842C62.5311 136.194 68.9025 132.881 68.0041 129.288C67.1514 125.877 53.8175 127.361 50.5575 125.964C39.4065 121.185 51.0155 112.892 54.296 108.518C55.3035 107.174 63.4115 112.076 64.1114 110.676" fill="#b8a1d0" fill-rule="nonzero" opacity="1" stroke="#7e4eb0" stroke-linecap="round" stroke-linejoin="round" stroke-width="3.06207" layerName="Curve"/>
</g>
<g id="Layer-Nucleus" layerName="Layer Nucleus">
<path d="M235.024 210.195C233.645 211.412 229.429 229.427 229.733 231.929C231.068 242.899 233.629 261.975 245.293 266.766C271.641 277.59 302.349 269.621 328.696 264.21C337.096 262.484 349.701 258.818 355.459 251.425C364.21 240.191 366.556 226.185 364.295 212.255C363.506 207.393 361.373 201.209 360.441 196.421C359.181 189.951 353.842 186.741 349.135 181.907C345.611 178.287 332.564 169.79 327.808 168.976C308.822 165.726 296.628 172.496 279.501 179.532C272.701 182.325 260.176 186.964 254.318 191.977C248.029 197.36 239.897 204.161 235.024 210.834C233.128 213.43 237.334 208.156 235.024 210.195Z" fill="#7e4eb0" fill-rule="nonzero" opacity="1" stroke="#ffffff" stroke-linecap="round" stroke-linejoin="round" stroke-width="1" layerName="Curve"/>
</g>
<g id="Layer-Granules" layerName="Layer Granules">
<g opacity="1" layerName="(curve)">
<path d="M187.135 132.811C187.135 132.698 187.135 132.607 187.135 132.607C187.135 132.607 187.135 132.698 187.135 132.811C187.135 132.924 187.135 133.016 187.135 133.016C187.135 133.016 187.135 132.924 187.135 132.811Z" fill="#946cbc" fill-rule="nonzero" opacity="1" stroke="#946cbc" stroke-linecap="round" stroke-linejoin="round" stroke-width="3.06207"/>
<path d="M248.086 127.084C248.086 126.971 248.086 126.88 248.086 126.88C248.086 126.88 248.086 126.971 248.086 127.084C248.086 127.197 248.086 127.289 248.086 127.289C248.086 127.289 248.086 127.197 248.086 127.084Z" fill="#946cbc" fill-rule="nonzero" opacity="1" stroke="#946cbc" stroke-linecap="round" stroke-linejoin="round" stroke-width="3.06207"/>
<path d="M323.763 122.585C323.763 122.472 323.763 122.38 323.763 122.38C323.763 122.38 323.763 122.472 323.763 122.585C323.763 122.698 323.763 122.789 323.763 122.789C323.763 122.789 323.763 122.698 323.763 122.585Z" fill="#946cbc" fill-rule="nonzero" opacity="1" stroke="#946cbc" stroke-linecap="round" stroke-linejoin="round" stroke-width="3.06207"/>
<path d="M150.32 125.857C150.32 125.744 150.32 125.653 150.32 125.653C150.32 125.653 150.32 125.744 150.32 125.857C150.32 125.97 150.32 126.062 150.32 126.062C150.32 126.062 150.32 125.97 150.32 125.857Z" fill="#946cbc" fill-rule="nonzero" opacity="1" stroke="#946cbc" stroke-linecap="round" stroke-linejoin="round" stroke-width="3.06207"/>
<path d="M248.086 148.262C248.086 148.098 248.086 147.964 248.086 147.964C248.086 147.964 248.086 148.098 248.086 148.262C248.086 148.427 248.086 148.56 248.086 148.56C248.086 148.56 248.086 148.427 248.086 148.262Z" fill="#946cbc" fill-rule="nonzero" opacity="1" stroke="#946cbc" stroke-linecap="round" stroke-linejoin="round" stroke-width="3.06207"/>
<path d="M313.127 141.758C313.127 141.39 313.735 141.092 314.484 141.092C315.234 141.092 315.841 141.39 315.841 141.758C315.841 142.126 315.234 142.424 314.484 142.424C313.735 142.424 313.127 142.126 313.127 141.758Z" fill="#946cbc" fill-rule="nonzero" opacity="1" stroke="#946cbc" stroke-linecap="round" stroke-linejoin="round" stroke-width="3.06207"/>
<path d="M158.501 171.263C158.501 170.247 159.6 169.422 160.955 169.422C162.311 169.422 163.41 170.247 163.41 171.263C163.41 172.28 162.311 173.104 160.955 173.104C159.6 173.104 158.501 172.28 158.501 171.263Z" fill="#946cbc" fill-rule="nonzero" opacity="1" stroke="#946cbc" stroke-linecap="round" stroke-linejoin="round" stroke-width="3.06207"/>
<path d="M210.043 165.536C210.043 164.746 210.592 164.105 211.27 164.105C211.948 164.105 212.497 164.746 212.497 165.536C212.497 166.327 211.948 166.968 211.27 166.968C210.592 166.968 210.043 166.327 210.043 165.536Z" fill="#946cbc" fill-rule="nonzero" opacity="1" stroke="#946cbc" stroke-linecap="round" stroke-linejoin="round" stroke-width="3.06207"/>
<path d="M197.771 234.147C197.771 233.035 198.852 232.134 200.187 232.134C201.521 232.134 202.602 233.035 202.602 234.147C202.602 235.259 201.521 236.161 200.187 236.161C198.852 236.161 197.771 235.259 197.771 234.147Z" fill="#946cbc" fill-rule="nonzero" opacity="1" stroke="#946cbc" stroke-linecap="round" stroke-linejoin="round" stroke-width="3.06207"/>
<path d="M119.64 124.483C119.64 123.837 120.176 123.313 120.837 123.313C121.498 123.313 122.034 123.837 122.034 124.483C122.034 125.129 121.498 125.653 120.837 125.653C120.176 125.653 119.64 125.129 119.64 124.483Z" fill="#946cbc" fill-rule="nonzero" opacity="1" stroke="#946cbc" stroke-linecap="round" stroke-linejoin="round" stroke-width="3.06207"/>
<path d="M221.497 108.126C221.497 107.71 221.935 107.372 222.476 107.372C223.017 107.372 223.455 107.71 223.455 108.126C223.455 108.543 223.017 108.881 222.476 108.881C221.935 108.881 221.497 108.543 221.497 108.126Z" fill="#946cbc" fill-rule="nonzero" opacity="1" stroke="#946cbc" stroke-linecap="round" stroke-linejoin="round" stroke-width="3.06207"/>
<path d="M200.225 187.748C200.225 187.025 200.805 186.439 201.521 186.439C202.236 186.439 202.816 187.025 202.816 187.748C202.816 188.471 202.236 189.058 201.521 189.058C200.805 189.058 200.225 188.471 200.225 187.748Z" fill="#946cbc" fill-rule="nonzero" opacity="1" stroke="#946cbc" stroke-linecap="round" stroke-linejoin="round" stroke-width="3.06207"/>
<path d="M269.357 165.944C269.357 165.379 269.807 164.921 270.362 164.921C270.917 164.921 271.367 165.379 271.367 165.944C271.367 166.51 270.917 166.968 270.362 166.968C269.807 166.968 269.357 166.51 269.357 165.944Z" fill="#946cbc" fill-rule="nonzero" opacity="1" stroke="#946cbc" stroke-linecap="round" stroke-linejoin="round" stroke-width="3.06207"/>
<path d="M205.134 120.126C205.134 119.558 205.642 119.098 206.269 119.098C206.896 119.098 207.404 119.558 207.404 120.126C207.404 120.693 206.896 121.153 206.269 121.153C205.642 121.153 205.134 120.693 205.134 120.126Z" fill="#946cbc" fill-rule="nonzero" opacity="1" stroke="#946cbc" stroke-linecap="round" stroke-linejoin="round" stroke-width="3.06207"/>
<path d="M132.73 94.1776C132.73 93.7384 133.105 93.3824 133.568 93.3824C134.031 93.3824 134.406 93.7384 134.406 94.1776C134.406 94.6168 134.031 94.9728 133.568 94.9728C133.105 94.9728 132.73 94.6168 132.73 94.1776Z" fill="#946cbc" fill-rule="nonzero" opacity="1" stroke="#946cbc" stroke-linecap="round" stroke-linejoin="round" stroke-width="3.06207"/>
<path d="M140.093 198.82C140.093 198.337 140.627 197.946 141.287 197.946C141.946 197.946 142.481 198.337 142.481 198.82C142.481 199.302 141.946 199.693 141.287 199.693C140.627 199.693 140.093 199.302 140.093 198.82Z" fill="#946cbc" fill-rule="nonzero" opacity="1" stroke="#946cbc" stroke-linecap="round" stroke-linejoin="round" stroke-width="3.06207"/>
<path d="M273.141 127.341C273.141 126.863 273.59 126.476 274.144 126.476C274.698 126.476 275.147 126.863 275.147 127.341C275.147 127.819 274.698 128.206 274.144 128.206C273.59 128.206 273.141 127.819 273.141 127.341Z" fill="#946cbc" fill-rule="nonzero" opacity="1" stroke="#946cbc" stroke-linecap="round" stroke-linejoin="round" stroke-width="3.06207"/>
<path d="M350.352 122.289C350.352 121.561 351.174 120.971 352.187 120.971C353.201 120.971 354.022 121.561 354.022 122.289C354.022 123.017 353.201 123.607 352.187 123.607C351.174 123.607 350.352 123.017 350.352 122.289Z" fill="#946cbc" fill-rule="nonzero" opacity="1" stroke="#946cbc" stroke-linecap="round" stroke-linejoin="round" stroke-width="3.06207"/>
<path d="M311.491 93.9501C311.491 93.8372 311.491 93.7456 311.491 93.7456C311.491 93.7456 311.491 93.8372 311.491 93.9501C311.491 94.0631 311.491 94.1547 311.491 94.1547C311.491 94.1547 311.491 94.0631 311.491 93.9501Z" fill="#946cbc" fill-rule="nonzero" opacity="1" stroke="#946cbc" stroke-linecap="round" stroke-linejoin="round" stroke-width="3.06207"/>
<path d="M286.538 102.17C286.538 101.626 286.968 101.186 287.498 101.186C288.028 101.186 288.458 101.626 288.458 102.17C288.458 102.713 288.028 103.154 287.498 103.154C286.968 103.154 286.538 102.713 286.538 102.17Z" fill="#946cbc" fill-rule="nonzero" opacity="1" stroke="#946cbc" stroke-linecap="round" stroke-linejoin="round" stroke-width="3.06207"/>
<path d="M228.428 180.414C228.428 179.957 228.871 179.586 229.417 179.586C229.964 179.586 230.407 179.957 230.407 180.414C230.407 180.872 229.964 181.243 229.417 181.243C228.871 181.243 228.428 180.872 228.428 180.414Z" fill="#946cbc" fill-rule="nonzero" opacity="1" stroke="#946cbc" stroke-linecap="round" stroke-linejoin="round" stroke-width="3.06207"/>
<path d="M183.454 149.802C183.454 149.234 184.174 148.774 185.061 148.774C185.949 148.774 186.669 149.234 186.669 149.802C186.669 150.37 185.949 150.83 185.061 150.83C184.174 150.83 183.454 150.37 183.454 149.802Z" fill="#946cbc" fill-rule="nonzero" opacity="1" stroke="#946cbc" stroke-linecap="round" stroke-linejoin="round" stroke-width="3.06207"/>
<path d="M164.325 113.003C164.325 112.246 164.988 111.632 165.806 111.632C166.624 111.632 167.287 112.246 167.287 113.003C167.287 113.76 166.624 114.373 165.806 114.373C164.988 114.373 164.325 113.76 164.325 113.003Z" fill="#946cbc" fill-rule="nonzero" opacity="1" stroke="#946cbc" stroke-linecap="round" stroke-linejoin="round" stroke-width="3.06207"/>
<path d="M94.2778 108.088C94.2778 107.649 94.6649 107.294 95.1423 107.294C95.6198 107.294 96.0069 107.649 96.0069 108.088C96.0069 108.526 95.6198 108.881 95.1423 108.881C94.6649 108.881 94.2778 108.526 94.2778 108.088Z" fill="#946cbc" fill-rule="nonzero" opacity="1" stroke="#946cbc" stroke-linecap="round" stroke-linejoin="round" stroke-width="3.06207"/>
<path d="M171.591 184.546C171.591 184.087 171.96 183.715 172.416 183.715C172.872 183.715 173.241 184.087 173.241 184.546C173.241 185.004 172.872 185.376 172.416 185.376C171.96 185.376 171.591 185.004 171.591 184.546Z" fill="#946cbc" fill-rule="nonzero" opacity="1" stroke="#946cbc" stroke-linecap="round" stroke-linejoin="round" stroke-width="3.06207"/>
<path d="M234.587 271.207C234.587 271.021 234.587 270.87 234.587 270.87C234.587 270.87 234.587 271.021 234.587 271.207C234.587 271.393 234.587 271.544 234.587 271.544C234.587 271.544 234.587 271.393 234.587 271.207Z" fill="#946cbc" fill-rule="nonzero" opacity="1" stroke="#946cbc" stroke-linecap="round" stroke-linejoin="round" stroke-width="3.06207"/>
<path d="M204.725 218.427C204.725 217.343 205.654 216.465 206.799 216.465C207.944 216.465 208.873 217.343 208.873 218.427C208.873 219.511 207.944 220.39 206.799 220.39C205.654 220.39 204.725 219.511 204.725 218.427Z" fill="#946cbc" fill-rule="nonzero" opacity="1" stroke="#946cbc" stroke-linecap="round" stroke-linejoin="round" stroke-width="3.06207"/>
<path d="M219.451 150.28C219.451 148.323 221.022 146.737 222.959 146.737C224.896 146.737 226.467 148.323 226.467 150.28C226.467 152.236 224.896 153.822 222.959 153.822C221.022 153.822 219.451 152.236 219.451 150.28Z" fill="#946cbc" fill-rule="nonzero" opacity="1" stroke="#946cbc" stroke-linecap="round" stroke-linejoin="round" stroke-width="3.06207"/>
<path d="M292.265 144.596C292.265 143.536 293.441 142.677 294.892 142.677C296.343 142.677 297.52 143.536 297.52 144.596C297.52 145.656 296.343 146.515 294.892 146.515C293.441 146.515 292.265 145.656 292.265 144.596Z" fill="#946cbc" fill-rule="nonzero" opacity="1" stroke="#946cbc" stroke-linecap="round" stroke-linejoin="round" stroke-width="3.06207"/>
<path d="M355.261 146.924C355.261 145.342 356.36 144.06 357.715 144.06C359.071 144.06 360.169 145.342 360.169 146.924C360.169 148.505 359.071 149.787 357.715 149.787C356.36 149.787 355.261 148.505 355.261 146.924Z" fill="#946cbc" fill-rule="nonzero" opacity="1" stroke="#946cbc" stroke-linecap="round" stroke-linejoin="round" stroke-width="3.06207"/>
<path d="M292.674 121.971C292.674 121.519 292.674 121.153 292.674 121.153C292.674 121.153 292.674 121.519 292.674 121.971C292.674 122.423 292.674 122.789 292.674 122.789C292.674 122.789 292.674 122.423 292.674 121.971Z" fill="#946cbc" fill-rule="nonzero" opacity="1" stroke="#946cbc" stroke-linecap="round" stroke-linejoin="round" stroke-width="3.06207"/>
<path d="M220.679 95.1773C220.679 94.8384 220.679 94.5637 220.679 94.5637C220.679 94.5637 220.679 94.8384 220.679 95.1773C220.679 95.5162 220.679 95.7909 220.679 95.7909C220.679 95.7909 220.679 95.5162 220.679 95.1773Z" fill="#946cbc" fill-rule="nonzero" opacity="1" stroke="#946cbc" stroke-linecap="round" stroke-linejoin="round" stroke-width="3.06207"/>
<path d="M366.714 246.405C366.714 245.997 367.178 245.666 367.751 245.666C368.323 245.666 368.787 245.997 368.787 246.405C368.787 246.814 368.323 247.145 367.751 247.145C367.178 247.145 366.714 246.814 366.714 246.405Z" fill="#946cbc" fill-rule="nonzero" opacity="1" stroke="#946cbc" stroke-linecap="round" stroke-linejoin="round" stroke-width="3.06207"/>
<path d="M369.578 206.647C369.578 205.97 370.036 205.42 370.601 205.42C371.165 205.42 371.623 205.97 371.623 206.647C371.623 207.325 371.165 207.874 370.601 207.874C370.036 207.874 369.578 207.325 369.578 206.647Z" fill="#946cbc" fill-rule="nonzero" opacity="1" stroke="#946cbc" stroke-linecap="round" stroke-linejoin="round" stroke-width="3.06207"/>
<path d="M337.671 145.492C337.671 145.379 337.671 145.288 337.671 145.288C337.671 145.288 337.671 145.379 337.671 145.492C337.671 145.605 337.671 145.697 337.671 145.697C337.671 145.697 337.671 145.605 337.671 145.492Z" fill="#946cbc" fill-rule="nonzero" opacity="1" stroke="#946cbc" stroke-linecap="round" stroke-linejoin="round" stroke-width="3.06207"/>
<path d="M214.952 198.159C214.952 197.538 215.399 197.035 215.951 197.035C216.503 197.035 216.951 197.538 216.951 198.159C216.951 198.781 216.503 199.284 215.951 199.284C215.399 199.284 214.952 198.781 214.952 198.159Z" fill="#946cbc" fill-rule="nonzero" opacity="1" stroke="#946cbc" stroke-linecap="round" stroke-linejoin="round" stroke-width="3.06207"/>
<path d="M160.496 216.171C160.496 214.647 161.865 213.412 163.554 213.412C165.243 213.412 166.612 214.647 166.612 216.171C166.612 217.695 165.243 218.93 163.554 218.93C161.865 218.93 160.496 217.695 160.496 216.171Z" fill="#946cbc" fill-rule="nonzero" opacity="1" stroke="#946cbc" stroke-linecap="round" stroke-linejoin="round" stroke-width="3.06207"/>
<path d="M311.082 56.572C311.082 54.793 313.031 53.3508 315.435 53.3508C317.839 53.3508 319.787 54.793 319.787 56.572C319.787 58.3511 317.839 59.7933 315.435 59.7933C313.031 59.7933 311.082 58.3511 311.082 56.572Z" fill="#946cbc" fill-rule="nonzero" opacity="1" stroke="#946cbc" stroke-linecap="round" stroke-linejoin="round" stroke-width="3.06207"/>
<path d="M163.819 138.334C163.819 137.656 164.46 137.106 165.25 137.106C166.041 137.106 166.682 137.656 166.682 138.334C166.682 139.011 166.041 139.561 165.25 139.561C164.46 139.561 163.819 139.011 163.819 138.334Z" fill="#946cbc" fill-rule="nonzero" opacity="1" stroke="#946cbc" stroke-linecap="round" stroke-linejoin="round" stroke-width="3.06207"/>
<path d="M195.317 102.131C195.317 100.211 196.965 98.6544 198.998 98.6544C201.031 98.6544 202.68 100.211 202.68 102.131C202.68 104.052 201.031 105.608 198.998 105.608C196.965 105.608 195.317 104.052 195.317 102.131Z" fill="#946cbc" fill-rule="nonzero" opacity="1" stroke="#946cbc" stroke-linecap="round" stroke-linejoin="round" stroke-width="3.06207"/>
<path d="M129.457 111.068C129.457 109.791 130.638 108.755 132.095 108.755C133.552 108.755 134.733 109.791 134.733 111.068C134.733 112.345 133.552 113.381 132.095 113.381C130.638 113.381 129.457 112.345 129.457 111.068Z" fill="#946cbc" fill-rule="nonzero" opacity="1" stroke="#946cbc" stroke-linecap="round" stroke-linejoin="round" stroke-width="3.06207"/>
</g>
</g>
<g id="Layer-White" layerName="Layer White">
<g opacity="1">
<path d="M316.781 172.656C308.444 172.955 300.3 174.828 292.375 177.344C284.438 179.863 276.757 183.121 269.312 186.844C264.484 189.258 259.758 191.897 255.156 194.719C254.502 195.123 254.314 195.97 254.719 196.625C255.123 197.28 255.97 197.467 256.625 197.062C261.142 194.25 265.764 191.643 270.5 189.219C279.806 184.454 289.536 180.288 299.625 177.5C305.265 175.941 310.993 174.757 316.844 174.406C325.757 173.872 335.212 175.438 342.156 181.438C345.557 184.376 348.007 188.19 350.219 192.062C354.308 199.22 357.162 207.009 359.344 214.938C360.135 217.813 360.988 220.741 361.469 223.688C362.091 227.504 361.043 231.279 361 235.094C360.976 237.233 361.333 239.217 362.156 241.188C361.371 239.209 361.032 237.225 361.094 235.094C361.204 231.259 362.339 227.474 361.781 223.625C361.273 220.118 360.314 216.608 359.406 213.188C357.284 205.192 354.35 197.341 350.219 190.156C348.2 186.645 345.969 183.284 342.938 180.562C335.826 174.177 326.076 172.323 316.781 172.656Z" fill="#ffffff" stroke="none"/>
</g>
<g opacity="1">
<path d="M257 193.938C250.702 196.725 246.154 202.007 242.844 207.938C237.85 216.885 235.361 227.452 236.031 237.688C236.561 245.773 239.546 253.685 246.594 258.219C249.859 260.319 253.54 261.722 257.25 262.812C262.485 264.351 267.897 265.262 273.312 265.875C288.617 267.607 304.524 267.084 319.75 264.844C328.09 263.617 336.913 261.924 344.5 258.156C336.867 261.795 328.031 263.347 319.688 264.438C304.81 266.382 289.53 266.628 274.625 264.812C269.555 264.195 264.486 263.311 259.562 261.938C255.607 260.834 251.644 259.386 248.156 257.188C241.238 252.826 238.69 245.387 238.219 237.531C237.941 232.897 238.514 228.231 239.562 223.719C240.956 217.72 243.271 211.861 246.688 206.719C249.587 202.355 253.272 198.604 258.125 196.5C258.83 196.191 259.153 195.361 258.844 194.656C258.535 193.952 257.705 193.629 257 193.938Z" fill="#ffffff" stroke="none"/>
</g>
</g>
</svg>
