<?xml version="1.0" encoding="UTF-8" standalone="no"?>
<svg height="100%" stroke-miterlimit="10" style="fill-rule:nonzero;clip-rule:evenodd;stroke-linecap:round;stroke-linejoin:round;" version="1.1" viewBox="0 0 1224 792" width="100%" xmlns="http://www.w3.org/2000/svg">
<defs/>
<g id="Layer-Black" layerName="Layer Black">
<path d="M506.16 461.066L506.16 461.066C506.756 461.071 507.232 461.693 507.222 462.456L503.521 746.75C503.511 747.512 503.019 748.125 502.423 748.12L502.423 748.12C501.826 748.114 501.351 747.492 501.361 746.73L505.062 462.436C505.072 461.674 505.563 461.06 506.16 461.066Z" fill="#000000" fill-rule="nonzero" opacity="1" stroke="#000000" stroke-linecap="square" stroke-linejoin="bevel" stroke-width="12.9836" layerName="Rectangle"/>
<path d="M667.599 462.533L667.599 462.533C668.195 462.539 668.671 463.161 668.661 463.923L664.96 748.217C664.95 748.979 664.458 749.593 663.862 749.587L663.862 749.587C663.265 749.582 662.79 748.96 662.8 748.198L666.501 463.904C666.511 463.141 667.002 462.528 667.599 462.533Z" fill="#000000" fill-rule="nonzero" opacity="1" stroke="#000000" stroke-linecap="square" stroke-linejoin="bevel" stroke-width="12.9836"/>
</g>
<g id="Layer-Inner" layerName="Layer Inner">
<path d="M466.964 207.889L548.935 207.889C564.515 207.889 577.146 220.52 577.146 236.1L577.146 427.759C577.146 443.34 564.515 455.97 548.935 455.97L466.964 455.97C451.384 455.97 438.754 443.34 438.754 427.759L438.754 236.1C438.754 220.52 451.384 207.889 466.964 207.889Z" fill="#6260e8" fill-rule="nonzero" opacity="1" stroke="#6361e9" stroke-linecap="square" stroke-linejoin="bevel" stroke-width="12.9836"/>
<path d="M623.267 207.889L705.237 207.889C720.818 207.889 733.448 220.52 733.448 236.1L733.448 427.759C733.448 443.34 720.818 455.97 705.237 455.97L623.267 455.97C607.686 455.97 595.056 443.34 595.056 427.759L595.056 236.1C595.056 220.52 607.686 207.889 623.267 207.889Z" fill="#6260e8" fill-rule="nonzero" opacity="1" stroke="#6361e9" stroke-linecap="square" stroke-linejoin="bevel" stroke-width="12.9836"/>
<g opacity="1" layerName="(curve)">
<g opacity="1" layerName="(curve)">
<path d="M462.171 70.0169C448.479 70.0169 437.389 80.7422 437.389 93.9856L437.389 166.829C437.389 180.073 448.479 190.798 462.171 190.798L548.702 190.798C562.394 190.798 573.514 180.073 573.514 166.829L573.514 145.517C560.463 144.828 547.347 140.846 535.421 132.798C535.414 132.795 535.396 132.771 535.389 132.767C535.311 132.719 535.274 132.707 535.171 132.642C534.754 132.402 534.237 132.127 533.733 131.829C530.189 129.735 527.154 127.673 523.702 124.673C516.66 118.555 510.89 110.895 507.421 100.486C503.91 89.9541 503.626 79.5985 505.733 70.0169L462.171 70.0169Z" fill="#6260e8" fill-rule="nonzero" opacity="1" stroke="#6260e7" stroke-linecap="square" stroke-linejoin="bevel" stroke-width="2"/>
<path d="M414.045 97.0056L471.492 97.0056C477.001 97.0056 481.467 101.472 481.467 106.981L481.467 142.9C481.467 148.409 477.001 152.875 471.492 152.875L414.045 152.875C408.536 152.875 404.07 148.409 404.07 142.9L404.07 106.981C404.07 101.472 408.536 97.0056 414.045 97.0056Z" fill="#6260e8" fill-rule="nonzero" opacity="1" stroke="#6260e7" stroke-linecap="square" stroke-linejoin="bevel" stroke-width="2"/>
<path d="M421.241 141.599L421.241 141.599C421.382 141.599 421.497 141.713 421.497 141.855L421.497 142.367C421.497 142.509 421.382 142.624 421.241 142.624L421.241 142.624C421.099 142.624 420.984 142.509 420.984 142.367L420.984 141.855C420.984 141.713 421.099 141.599 421.241 141.599Z" fill="#6260e8" fill-rule="nonzero" opacity="1" stroke="#6260e7" stroke-linecap="square" stroke-linejoin="bevel" stroke-width="2"/>
</g>
</g>
<g opacity="1" layerName="(curve)">
<g opacity="1" layerName="(curve)">
<path d="M705.313 70.3848C719.005 70.3848 730.094 81.11 730.094 94.3535L730.094 167.197C730.094 180.441 719.005 191.166 705.313 191.166L618.782 191.166C605.09 191.166 593.969 180.441 593.969 167.197L593.969 145.885C607.021 145.196 620.136 141.214 632.063 133.166C632.069 133.162 632.087 133.139 632.094 133.135C632.173 133.087 632.209 133.075 632.313 133.01C632.73 132.77 633.247 132.495 633.75 132.197C637.295 130.103 640.33 128.041 643.782 125.041C650.823 118.922 656.593 111.262 660.063 100.854C663.573 90.322 663.858 79.9664 661.75 70.3848L705.313 70.3848Z" fill="#6260e8" fill-rule="nonzero" opacity="1" stroke="#6260e7" stroke-linecap="square" stroke-linejoin="bevel" stroke-width="2"/>
<path d="M753.439 97.3735L695.992 97.3735C690.483 97.3735 686.017 101.839 686.017 107.348L686.017 143.268C686.017 148.777 690.483 153.243 695.992 153.243L753.439 153.243C758.948 153.243 763.414 148.777 763.414 143.268L763.414 107.348C763.414 101.839 758.948 97.3735 753.439 97.3735Z" fill="#6260e8" fill-rule="nonzero" opacity="1" stroke="#6260e7" stroke-linecap="square" stroke-linejoin="bevel" stroke-width="2"/>
<path d="M746.243 141.966L746.243 141.966C746.101 141.966 745.987 142.081 745.987 142.223L745.987 142.735C745.987 142.877 746.101 142.992 746.243 142.992L746.243 142.992C746.384 142.992 746.499 142.877 746.499 142.735L746.499 142.223C746.499 142.081 746.384 141.966 746.243 141.966Z" fill="#6260e8" fill-rule="nonzero" opacity="1" stroke="#6260e7" stroke-linecap="square" stroke-linejoin="bevel" stroke-width="2"/>
</g>
</g>
</g>
<g id="Layer-Membrane" layerName="Layer Membrane">
<path d="M623.27 201.75C622.993 201.75 622.732 201.836 622.457 201.844L622.207 201.844C604.518 201.844 590.176 215.887 590.176 233.187L590.176 235.906L590.176 430.688C590.176 437.766 593.626 444.008 598.082 449.156C602.604 455.146 608.774 459.697 615.989 461.312C616.988 461.55 618.105 461.568 619.176 461.688C620.056 461.776 620.899 462.031 621.801 462.031L622.207 462.031L708.582 462.031L708.989 462.031C709.663 462.031 710.292 461.823 710.957 461.781C712.501 461.669 714.045 461.537 715.52 461.219C716.751 460.96 717.904 460.558 719.082 460.156C720.13 459.8 721.149 459.426 722.145 458.969C723.083 458.532 723.977 458.061 724.864 457.531C726.464 456.602 727.959 455.553 729.364 454.375C729.526 454.232 729.704 454.116 729.864 453.969C736.412 448.246 740.614 440.034 740.614 430.781L740.614 235.375L740.614 233.719C740.614 218.615 729.646 206.008 715.051 203.094C715.021 203.088 714.987 203.1 714.957 203.094C712.617 202.51 710.212 202.125 707.739 202.125L630.466 202.64L623.27 201.75Z" fill="none" opacity="1" stroke="#302e92" stroke-linecap="round" stroke-linejoin="round" stroke-width="2"/>
<path d="M465.5 201.75C465.224 201.75 464.963 201.836 464.687 201.844L464.437 201.844C446.749 201.844 432.406 215.887 432.406 233.187L432.406 235.906L432.406 430.688C432.406 437.766 435.856 444.008 440.312 449.156C444.834 455.146 451.004 459.697 458.219 461.312C459.219 461.55 460.335 461.568 461.406 461.687C462.286 461.776 463.129 462.031 464.031 462.031L464.437 462.031L550.812 462.031L551.219 462.031C551.893 462.031 552.522 461.823 553.188 461.781C554.731 461.669 556.275 461.537 557.75 461.219C558.982 460.96 560.134 460.558 561.312 460.156C562.361 459.8 563.38 459.426 564.375 458.969C565.313 458.532 566.207 458.061 567.094 457.531C568.694 456.602 570.189 455.553 571.594 454.375C571.756 454.232 571.934 454.116 572.094 453.969C578.642 448.246 582.844 440.034 582.844 430.781L582.844 235.375L582.844 233.719C582.844 218.615 571.876 206.008 557.281 203.094C557.251 203.088 557.217 203.1 557.188 203.094C554.847 202.51 552.442 202.125 549.969 202.125L484.438 201.906L465.5 201.75Z" fill="none" opacity="1" stroke="#302e92" stroke-linecap="round" stroke-linejoin="round" stroke-width="2"/>
<g opacity="1">
<path d="M528.188 126.219C527.84 126.294 527.52 126.49 527.312 126.812C526.897 127.457 527.074 128.303 527.719 128.719C529.645 129.931 531.497 131.278 533.438 132.469C535.775 133.903 538.282 135.122 540.75 136.312C551.091 141.299 561.978 143.914 573.375 144.938C564.403 143.613 555.702 141.338 547.5 137.406C543.147 135.32 538.874 132.906 534.844 130.25C532.947 129 531.115 127.658 529.219 126.406C528.896 126.198 528.535 126.144 528.188 126.219Z" fill="#302e92" stroke="none"/>
</g>
<g opacity="1">
<path d="M506.719 69.9062C505.5 75.075 504.803 80.3376 504.969 85.6562C505.276 95.4986 508.53 105.105 513.938 113.312C517.722 119.056 522.412 124.001 527.531 128.562C528.108 129.068 528.994 129.014 529.5 128.438C530.006 127.861 529.952 126.975 529.375 126.469C524.907 122.616 520.56 118.485 516.969 113.781C510.607 105.45 506.435 96.1359 505.656 85.5938C505.266 80.3189 505.727 75.0906 506.719 69.9062Z" fill="#302e92" stroke="none"/>
</g>
<g opacity="1">
<path d="M403.969 122.969C403.202 122.965 402.566 123.577 402.562 124.344C402.58 128.032 402.484 131.718 402.469 135.406C402.458 138.041 402.474 140.724 402.781 143.344C403.148 146.47 403.963 149.793 406.656 151.719C409.271 153.589 412.727 153.943 415.844 154.094C418.772 154.235 421.729 154.141 424.656 154.031C428.961 153.87 433.256 153.648 437.562 153.531C433.256 153.444 428.932 153.449 424.625 153.406C421.721 153.377 418.829 153.351 415.938 153.062C412.907 152.76 409.288 152.243 407.031 149.969C405.048 147.97 404.939 144.826 404.844 142.188C404.747 139.515 404.912 136.856 405.031 134.188C405.177 130.907 405.3 127.627 405.344 124.344C405.347 123.577 404.736 122.972 403.969 122.969Z" fill="#302e92" stroke="none"/>
</g>
<g opacity="1">
<path d="M573.344 143.969C572.582 144.036 572.027 144.707 572.094 145.469C572.662 151.502 573.129 157.53 573.125 163.594C573.122 167.292 572.909 171.106 571.906 174.688C571.255 177.013 570.336 179.274 569.031 181.312C562.78 191.084 550.46 191.471 540.062 191.562C538.323 191.578 536.584 191.593 534.844 191.594C532.017 191.595 529.202 191.591 526.375 191.625C529.201 191.684 532.019 191.783 534.844 191.875C545.67 192.227 559.24 193.452 567.75 185.312C568.735 184.371 569.627 183.336 570.406 182.219C571.891 180.091 572.994 177.738 573.812 175.281C575.049 171.567 575.368 167.546 575.531 163.656C575.789 157.509 575.343 151.342 574.844 145.219C574.777 144.457 574.106 143.902 573.344 143.969Z" fill="#302e92" stroke="none"/>
</g>
<g opacity="1">
<path d="M437.062 153.062C436.295 153.062 435.688 153.67 435.688 154.438C435.703 158.574 435.664 162.713 435.906 166.844C436.264 172.926 437.264 179.049 441.344 183.844C445.807 189.089 452.828 191.52 459.5 192.25C461.586 192.478 463.717 192.453 465.812 192.469C468.557 192.49 471.318 192.486 474.062 192.469C497.573 192.323 521.055 191.576 544.562 191.312C521.06 191.09 497.564 191.376 474.062 190.938C471.102 190.882 468.146 190.802 465.188 190.688C463.378 190.618 461.547 190.59 459.75 190.344C457.373 190.019 454.981 189.418 452.719 188.625C449.348 187.444 446.181 185.692 443.781 183C439.729 178.455 438.873 172.581 438.594 166.719C438.399 162.634 438.452 158.526 438.469 154.438C438.469 153.67 437.83 153.063 437.062 153.062Z" fill="#302e92" stroke="none"/>
</g>
<g opacity="1">
<path d="M413.594 95.5C411.042 95.7305 408.303 96.2529 406.281 97.9375C403.811 99.9957 403.127 103.492 402.812 106.531C402.203 112.426 402.534 118.43 402.5 124.344C402.503 125.111 403.139 125.721 403.906 125.719C404.673 125.716 405.284 125.08 405.281 124.312C405.24 121.078 405.141 117.858 405.031 114.625C404.942 111.988 404.824 109.356 404.969 106.719C405.111 104.128 405.29 101.02 407.312 99.125C409.569 97.0101 413.098 96.6391 416.031 96.4062C418.844 96.183 421.649 96.1864 424.469 96.1875C428.667 96.1892 432.865 96.1783 437.062 96.0938C432.344 95.9604 427.652 95.7087 422.938 95.5C419.831 95.3625 416.697 95.2197 413.594 95.5Z" fill="#302e92" stroke="none"/>
</g>
<g opacity="1">
<path d="M475.719 67.9688C470.484 67.9818 465.235 68.1968 460.094 68.875C453.695 69.7191 447.195 72.0586 442.781 76.9688C441.221 78.7045 439.929 80.7024 438.938 82.8125C438.123 84.5453 437.473 86.3701 437.094 88.25C436.594 90.725 436.556 93.273 436.344 95.7812C436.636 93.2893 436.766 90.7308 437.344 88.2812C437.778 86.4405 438.485 84.6818 439.344 83C440.783 80.179 442.752 77.6229 445.219 75.625C449.403 72.2363 454.983 70.6803 460.25 70.1875C466.81 69.5736 473.321 69.8995 479.875 70.2188C484.216 70.4302 488.563 70.6803 492.906 70.8438C497.299 71.0091 501.697 71.1221 506.094 71.1562C506.861 71.1575 507.468 70.5485 507.469 69.7812C507.47 69.014 506.861 68.3762 506.094 68.375C501.18 68.398 496.256 68.301 491.344 68.2188C486.175 68.1322 480.953 67.9557 475.719 67.9688Z" fill="#302e92" stroke="none"/>
</g>
<g opacity="1">
<path d="M504.608 70.2062C489.052 73.663 471.513 70.0775 456.443 75.1009" fill="#6260e8" fill-rule="nonzero" stroke="none"/>
<path d="M504.438 69.3125C488.603 72.6629 471.944 69.9733 456.438 75.0938C459.633 74.1696 462.849 73.5021 466.156 73.125C475.644 72.0431 485.207 72.928 494.719 72.4062C498.109 72.2203 501.452 71.7482 504.781 71.0938C505.274 70.9933 505.601 70.5237 505.5 70.0312C505.4 69.5388 504.93 69.212 504.438 69.3125Z" fill="#6260e7" stroke="none"/>
</g>
<g opacity="1">
<path d="M639.312 126.562C638.965 126.487 638.572 126.542 638.25 126.75C636.354 128.002 634.522 129.375 632.625 130.625C628.595 133.281 624.353 135.695 620 137.781C611.798 141.713 603.097 143.988 594.125 145.312C605.522 144.289 616.409 141.674 626.75 136.688C629.218 135.497 631.694 134.247 634.031 132.812C635.971 131.622 637.823 130.306 639.75 129.094C640.395 128.678 640.603 127.832 640.188 127.188C639.98 126.865 639.66 126.638 639.312 126.562Z" fill="#302e92" stroke="none"/>
</g>
<g opacity="1">
<path d="M660.781 70.25C661.773 75.4344 662.234 80.6939 661.844 85.9688C661.065 96.5109 656.893 105.825 650.531 114.156C646.94 118.86 642.562 122.991 638.094 126.844C637.517 127.349 637.463 128.236 637.969 128.812C638.474 129.389 639.361 129.443 639.938 128.938C645.056 124.376 649.747 119.431 653.531 113.688C658.939 105.48 662.225 95.8424 662.531 86C662.697 80.6813 662 75.4188 660.781 70.25Z" fill="#302e92" stroke="none"/>
</g>
<g opacity="1">
<path d="M763.531 123.312C762.764 123.316 762.122 123.952 762.125 124.719C762.169 128.002 762.291 131.282 762.438 134.562C762.556 137.231 762.753 139.89 762.656 142.562C762.561 145.201 762.452 148.345 760.469 150.344C758.212 152.618 754.593 153.104 751.562 153.406C748.671 153.695 745.748 153.752 742.844 153.781C738.536 153.824 734.244 153.819 729.938 153.906C734.244 154.023 738.539 154.245 742.844 154.406C746.187 154.531 749.566 154.64 752.906 154.375C755.776 154.147 758.875 153.666 761.188 151.812C763.874 149.66 764.558 145.936 764.812 142.688C765.281 136.712 764.878 130.704 764.906 124.719C764.903 123.952 764.298 123.309 763.531 123.312Z" fill="#302e92" stroke="none"/>
</g>
<g opacity="1">
<path d="M594.125 144.344C593.363 144.277 592.692 144.832 592.625 145.594C592.126 151.717 591.679 157.884 591.938 164.031C592.101 167.921 592.451 171.911 593.688 175.625C594.506 178.082 595.608 180.466 597.094 182.594C598.066 183.987 599.184 185.262 600.469 186.375C606.232 191.365 614.034 192.33 621.375 192.438C625.127 192.493 628.876 192.372 632.625 192.25C635.45 192.158 638.268 192.059 641.094 192C638.267 191.966 635.452 191.97 632.625 191.969C630.469 191.968 628.312 191.968 626.156 191.938C617.107 191.811 606.563 191.33 600.156 183.969C599.319 183.007 598.574 181.948 597.938 180.844C596.892 179.03 596.126 177.075 595.562 175.062C594.56 171.481 594.378 167.667 594.375 163.969C594.37 157.905 594.838 151.877 595.406 145.844C595.473 145.082 594.887 144.411 594.125 144.344Z" fill="#302e92" stroke="none"/>
</g>
<g opacity="1">
<path d="M730.406 153.406C729.639 153.406 729.031 154.045 729.031 154.812C729.048 158.901 729.101 162.978 728.906 167.062C728.627 172.925 727.74 178.83 723.688 183.375C721.037 186.348 717.469 188.128 713.719 189.312C711.778 189.925 709.768 190.443 707.75 190.719C705.263 191.059 702.692 191.048 700.188 191.125C697.292 191.214 694.397 191.294 691.5 191.344C668.637 191.739 645.77 191.471 622.906 191.688C646.414 191.951 669.927 192.698 693.438 192.844C696.408 192.862 699.373 192.843 702.344 192.812C704.215 192.793 706.105 192.829 707.969 192.625C714.641 191.895 721.693 189.464 726.156 184.219C730.236 179.424 731.205 173.301 731.562 167.219C731.805 163.088 731.797 158.949 731.812 154.812C731.812 154.045 731.173 153.406 730.406 153.406Z" fill="#302e92" stroke="none"/>
</g>
<g opacity="1">
<path d="M752.75 95.7812C749.505 95.5992 746.242 95.7792 743 95.9375C738.808 96.1422 734.602 96.3502 730.406 96.4688C734.604 96.5533 738.802 96.5329 743 96.5312C745.819 96.5301 748.656 96.558 751.469 96.7812C754.402 97.0141 757.9 97.3851 760.156 99.5C762.179 101.395 762.39 104.503 762.531 107.094C762.676 109.731 762.558 112.363 762.469 115C762.359 118.233 762.229 121.453 762.188 124.688C762.185 125.455 762.827 126.091 763.594 126.094C764.361 126.096 764.966 125.455 764.969 124.688C764.941 119.848 765.155 115.023 764.906 110.188C764.833 108.763 764.764 107.32 764.562 105.906C764.148 103.001 763.316 99.866 760.844 98.0312C758.545 96.3251 755.528 95.9371 752.75 95.7812Z" fill="#302e92" stroke="none"/>
</g>
<g opacity="1">
<path d="M696.281 68.4375C692.568 68.3477 688.839 68.3828 685.125 68.4688C681.589 68.5506 678.037 68.5628 674.5 68.625C670.128 68.7019 665.779 68.7704 661.406 68.75C660.639 68.7512 659.999 69.389 660 70.1562C660.001 70.9235 660.639 71.5325 661.406 71.5312C666.344 71.4929 671.286 71.3271 676.219 71.125C686.529 70.7027 696.904 69.5973 707.219 70.5625C712.485 71.0553 718.066 72.5801 722.25 75.9688C724.717 77.9666 726.717 80.5227 728.156 83.3438C729.015 85.0256 729.722 86.8156 730.156 88.6562C730.734 91.1058 730.864 93.6643 731.156 96.1562C730.944 93.648 730.874 91.1 730.375 88.625C729.996 86.7451 729.346 84.8891 728.531 83.1562C727.539 81.0461 726.279 79.0795 724.719 77.3438C720.305 72.4336 713.774 70.0628 707.375 69.2188C703.683 68.7317 699.994 68.5273 696.281 68.4375Z" fill="#302e92" stroke="none"/>
</g>
<g opacity="1">
<path d="M662.876 70.574C678.432 74.0309 695.97 70.4454 711.04 75.4688" fill="#6260e8" fill-rule="nonzero" stroke="none"/>
<path d="M663.062 69.6875C662.57 69.587 662.1 69.9138 662 70.4062C661.9 70.8987 662.195 71.3683 662.688 71.4688C666.017 72.1233 669.36 72.5953 672.75 72.7812C682.262 73.303 691.825 72.4181 701.312 73.5C704.619 73.8771 707.836 74.5446 711.031 75.4688C695.524 70.3483 678.897 73.0379 663.062 69.6875Z" fill="#6260e7" stroke="none"/>
</g>
</g>
</svg>
