<?xml version="1.0" encoding="UTF-8" standalone="no"?>
<svg height="100%" stroke-miterlimit="10" style="fill-rule:nonzero;clip-rule:evenodd;stroke-linecap:round;stroke-linejoin:round;" version="1.1" viewBox="0 0 419.58 297.675" width="100%" xmlns="http://www.w3.org/2000/svg">
<defs/>
<g id="Layer-Cyto" layerName="Layer Cyto">
<g opacity="1" layerName="(curve)">
<path d="M218.139 23.967L218.614 23.967C301.644 23.967 368.952 80.2468 368.952 149.671L368.952 149.671C368.952 219.096 301.644 275.376 218.614 275.376L218.139 275.376C135.109 275.376 67.8001 219.096 67.8001 149.671L67.8001 149.671C67.8001 80.2468 135.109 23.967 218.139 23.967Z" fill="#838af5" fill-rule="nonzero" opacity="1" stroke="none"/>
</g>
</g>
<g id="Layer-Nucleus" layerName="Layer Nucleus">
<path d="M169.816 58.7152C169.816 58.7152 176.779 58.3987 182.648 58.7771C189.53 59.2209 193.585 59.9161 193.585 59.9161C231.028 65.1696 225.76 110.196 202.879 125.561C189.408 134.608 199.943 163 214.311 171.161C223.73 176.511 233.178 172.368 250.724 177.054C270.646 182.375 277.645 199.848 277.645 199.848C287.112 253.878 210.647 254.892 210.647 254.892L186.963 254.216C134.016 254.216 89.0636 210.017 89.0636 157.442L89.0636 156.604C89.0636 104.029 121.502 61.2283 169.816 58.7152Z" fill="#454983" fill-rule="nonzero" opacity="1" stroke="none"/>
<g opacity="1">
<path d="M97.9062 74.1562C95.9997 76.0686 94.1625 78.0198 92.4688 80.125C90.4505 82.6335 88.6731 85.3336 86.875 88C85.4899 90.054 84.0248 92.0487 82.875 94.25C81.9368 96.0462 81.1467 97.9049 80.3125 99.75C78.9335 102.8 77.6439 105.846 76.4375 108.969C74.7904 113.233 72.9464 117.407 71.5938 121.781C70.884 124.077 70.2376 126.404 69.875 128.781C69.6755 130.089 69.6334 131.41 69.4375 132.719C69.0309 135.435 68.1734 138.076 67.875 140.812C67.6211 143.141 67.598 145.504 67.5938 147.844C67.5832 153.622 68.0482 159.412 68.9062 165.125C70.2678 174.19 72.6516 183.089 75.9062 191.656C77.4933 195.834 79.2352 199.978 81.375 203.906C85.015 210.588 89.6186 216.696 94.4375 222.562C97.5286 226.326 100.614 230.213 104.031 233.688C106.361 236.056 108.897 238.208 111.562 240.188C116.917 244.164 122.758 247.42 128.469 250.844C133.787 254.032 138.971 257.418 144.531 260.188C152.204 264.009 160.249 267.075 168.438 269.594C176.307 272.015 184.307 273.908 192.469 275.031C202.384 276.396 212.506 276.865 222.5 276.25C229.713 275.806 236.863 274.686 244 273.594C249.611 272.735 255.274 272.107 260.844 271C266.234 269.928 271.543 268.474 276.75 266.719C283.695 264.378 290.455 261.478 297.031 258.25C301.743 255.937 306.442 253.504 310.875 250.688C317.726 246.334 324.015 241.174 330.094 235.812C334.21 232.181 338.431 228.535 342.062 224.406C343.4 222.885 344.564 221.232 345.75 219.594C347.532 217.132 349.264 214.632 350.938 212.094C357.29 202.458 362.673 192.157 366.062 181.094C369.359 170.336 370.601 159.189 370.688 147.969C370.696 146.437 369.47 145.165 367.938 145.156C366.405 145.148 365.165 146.405 365.156 147.938C365.118 158.629 363.973 169.267 360.875 179.531C357.51 190.681 352.021 201.018 345.594 210.688C343.932 213.187 342.234 215.635 340.469 218.062C339.732 219.076 339.008 220.087 338.188 221.031C334.72 225.02 330.677 228.538 326.75 232.062C320.906 237.308 314.882 242.396 308.312 246.719C304.68 249.109 300.856 251.213 297 253.219C290.014 256.852 282.775 260.018 275.344 262.625C269.618 264.634 263.771 266.309 257.812 267.469C253.041 268.398 248.2 269.038 243.406 269.844C236.394 271.023 229.347 272.209 222.25 272.75C212.486 273.495 202.588 273.147 192.875 271.938C184.858 270.939 176.966 269.212 169.219 266.938C161.135 264.564 153.214 261.639 145.625 257.969C140.09 255.292 134.925 252 129.625 248.906C123.935 245.584 118.125 242.404 112.781 238.531C110.175 236.643 107.691 234.582 105.406 232.312C101.989 228.918 98.8797 225.122 95.7812 221.438C90.9595 215.704 86.3215 209.74 82.6562 203.188C80.5044 199.34 78.7642 195.256 77.1562 191.156C73.8413 182.704 71.3823 173.903 69.9375 164.938C69.0261 159.282 68.5197 153.573 68.4688 147.844C68.4482 145.534 68.4301 143.208 68.6562 140.906C68.9242 138.18 69.7802 135.552 70.1562 132.844C70.3382 131.533 70.377 130.216 70.5625 128.906C70.8953 126.556 71.4487 124.242 72.125 121.969C73.4271 117.593 75.247 113.394 76.8438 109.125C78.0141 105.996 79.2817 102.933 80.625 99.875C81.4373 98.0259 82.2085 96.1763 83.125 94.375C84.3665 91.9349 85.9702 89.7215 87.4688 87.4375C89.0844 84.9749 90.7079 82.504 92.5312 80.1875C94.2013 78.0657 96.0215 76.0876 97.9062 74.1562Z" fill="#454983" stroke="none"/>
</g>
<g opacity="1" layerName="Curve">
<path d="M226.438 22.8438C222.622 22.754 218.807 22.7973 215 22.9375C195.028 23.6728 175.138 27.4292 156.406 34.4375C149.045 37.1915 141.996 40.7299 135.094 44.4688C120.653 52.2912 107.488 62.5235 96.625 74.875C90.5164 81.8206 85.0692 89.4767 81.875 98.2188C85.1896 89.5442 90.7416 81.9649 96.9375 75.125C107.92 63.0005 121.15 53.0373 135.625 45.4688C142.526 41.8606 149.563 38.4324 156.906 35.8125C175.546 29.1625 195.292 25.7571 215.062 25.3438C230.666 25.0175 246.399 26.5953 261.438 30.875C280.303 36.2438 297.62 45.6114 313.5 57C318.962 60.9174 324.29 65.0829 329.25 69.625C335.59 75.431 341.09 82.0476 346.125 89C349.141 93.1647 352.107 97.3857 354.625 101.875C360.964 113.179 364.853 125.676 365.062 138.688C365.107 141.445 365.483 144.246 365.188 147C365.032 148.524 366.132 149.875 367.656 150.031C369.18 150.187 370.563 149.087 370.719 147.562C371.012 144.572 370.627 141.586 370.562 138.594C370.263 124.667 366.068 111.326 359.188 99.2812C356.534 94.6356 353.434 90.2625 350.25 85.9688C345.588 79.6806 340.549 73.6854 334.812 68.3438C329.908 63.7766 324.542 59.6658 319.156 55.6875C301.602 42.7211 281.66 32.6005 260.438 27.2812C249.333 24.498 237.884 23.113 226.438 22.8438Z" fill="#454983" stroke="none"/>
</g>
</g>
<g id="2" layerName="2">
<g opacity="1">
<path d="M175.594 65.75C173.909 65.699 172.222 65.7204 170.531 65.8438C163.789 66.3357 157.24 68.2308 150.812 70.2188C148.323 71.0393 146.992 73.6982 147.812 76.1875C148.633 78.6768 151.323 80.0393 153.812 79.2188C161.286 76.5978 168.979 74.1329 176.938 73.5938C179.367 73.4291 181.884 73.5798 184.312 73.7188C191.632 74.1376 199.253 75.7628 205.625 79.5312C208.516 81.2411 211.123 83.4337 213.188 86.0938C217.157 91.2086 218.794 97.8694 217.812 104.25C217.326 107.417 216.223 110.777 213.875 113.062C216.998 110.566 218.499 106.347 219.156 102.531C220.956 92.09 216.262 82.3479 207.906 76.125C202.761 72.2933 196.715 69.818 190.562 68.125C185.683 66.7825 180.647 65.903 175.594 65.75Z" fill="#ffffff" stroke="none"/>
</g>
<g opacity="1">
<path d="M154.438 69.5312C153.825 69.4634 153.19 69.5002 152.562 69.6875C147.786 71.1548 143.203 73.055 138.906 75.625C126.251 83.1935 117.468 95.3503 110.562 108.094C106.685 115.249 103.177 122.554 101.25 130.5C99.3734 138.237 98.5631 146.267 98.5312 154.219C98.5088 159.816 98.9034 165.426 99.6875 170.969C103.776 199.871 118.766 229.369 145.062 243.875C149.909 246.549 155.03 248.595 160.344 250.125C155.126 248.379 150.111 246.145 145.406 243.281C116.627 225.767 102.979 189.856 103.875 157.281C104.095 149.283 105.195 141.298 107.375 133.594C108.5 129.619 110.139 125.818 111.906 122.094C113.955 117.776 116.287 113.685 118.906 109.688C125.524 99.5863 132.932 89.7313 143.594 83.5938C147.278 81.4728 151.206 79.9578 155.281 78.7812C157.793 78.032 159.218 75.3867 158.469 72.875C157.907 70.9912 156.276 69.7347 154.438 69.5312Z" fill="#ffffff" stroke="none"/>
</g>
</g>
</svg>
