<?xml version="1.0" encoding="UTF-8" standalone="no"?>
<svg height="100%" stroke-miterlimit="10" style="fill-rule:nonzero;clip-rule:evenodd;stroke-linecap:round;stroke-linejoin:round;" version="1.1" viewBox="0 0 419.58 297.675" width="100%" xmlns="http://www.w3.org/2000/svg">
<defs/>
<g id="Layer-Cyto" layerName="Layer Cyto">
<g opacity="1" layerName="(curve)">
<path d="M194.976 23.967L195.378 23.967C265.615 23.967 322.554 80.2468 322.554 149.671L322.554 149.671C322.554 219.096 265.615 275.376 195.378 275.376L194.976 275.376C124.739 275.376 67.8001 219.096 67.8001 149.671L67.8001 149.671C67.8001 80.2468 124.739 23.967 194.976 23.967Z" fill="#d6fcf9" fill-rule="nonzero" opacity="1" stroke="none"/>
</g>
</g>
<g id="Layer-Nucleus" layerName="Layer Nucleus">
<g opacity="0.996981">
<path d="M137.393 247.835C131.415 244.355 122.51 235.06 119.316 231.44C114.107 225.536 109.899 215.087 107.174 207.73C97.1194 180.582 127.997 174.172 145.722 181.853C165.707 190.513 157.654 220.281 180.165 225.398C190.524 227.752 195.98 228.913 199.489 227.442C205.468 224.935 207.449 221.472 220.112 215.578C228.925 211.477 243.858 209.827 246.342 223.492C248.972 237.955 244.202 242.185 233.395 247.975C208.982 261.053 202.262 257.448 173.326 257.366C169.075 257.354 143.372 251.315 137.393 247.835Z" fill="#3c6f6b" fill-rule="nonzero" stroke="none"/>
<path d="M128.156 177.875C124.698 178.128 121.245 178.824 118 180.062C115.723 180.932 113.55 182.091 111.625 183.594C110.088 184.794 108.706 186.219 107.625 187.844C101.885 196.472 106.129 206.352 109.75 214.844C112.109 220.375 114.766 226.054 118.625 230.719C119.023 231.2 119.523 231.594 119.938 232.062C118.83 230.801 117.811 229.495 116.875 228.094C112.707 221.856 109.901 214.663 107.406 207.625C105.196 201.391 104.5 194.132 108.562 188.469C109.41 187.288 110.406 186.231 111.531 185.312C113.289 183.878 115.327 182.787 117.438 181.969C120.484 180.788 123.747 180.181 127 179.969C131.203 179.694 135.449 180.085 139.531 181.125C143.009 182.011 146.459 183.343 149.312 185.562C153.897 189.129 156.363 194.505 158.344 199.812C159.906 204 161.234 208.261 163.062 212.344C163.4 213.097 163.706 213.896 164.094 214.625C164.826 216.001 165.733 217.409 166.625 218.688C168.83 221.848 172.031 224.341 175.562 225.844C177.712 226.758 179.981 227.238 182.25 227.75C184.379 228.23 186.512 228.719 188.656 229.125C191.993 229.757 195.709 230.441 199.062 229.531C202.744 228.532 205.936 225.891 209.031 223.812C212.11 221.745 215.337 219.903 218.656 218.25C220.096 217.533 221.524 216.818 223.031 216.25C228.469 214.202 236.543 212.841 241.375 217.094C243.828 219.253 244.684 222.355 245.188 225.469C245.778 229.121 246.098 233.104 244.719 236.625C243.08 240.807 239.175 243.466 235.469 245.688C231.584 248.016 227.533 250.132 223.406 252C218.511 254.216 213.411 255.941 208.094 256.781C201.302 257.855 194.379 257.589 187.531 257.438C183.966 257.359 180.41 257.268 176.844 257.25C175.471 257.243 174.058 257.327 172.688 257.219C170.434 257.041 168.212 256.57 166 256.125C162.66 255.453 159.304 254.706 156 253.875C151.847 252.831 147.722 251.668 143.656 250.312C148.337 251.907 153.118 253.218 157.906 254.406C162.612 255.574 167.45 256.859 172.281 257.406C174.335 257.639 176.436 257.512 178.5 257.562C181.507 257.636 184.526 257.753 187.531 257.875C194.423 258.155 201.382 258.583 208.25 257.719C213.693 257.033 218.962 255.477 224.031 253.406C228.287 251.668 232.441 249.653 236.469 247.438C239.4 245.825 242.337 244.009 244.562 241.469C248.357 237.137 248.819 231.4 248.188 225.906C247.551 220.365 245.844 215.387 240.562 212.719C236.929 210.883 232.653 210.699 228.688 211.25C224.055 211.893 219.828 213.659 215.688 215.75C213.277 216.967 210.907 218.276 208.625 219.719C206.543 221.035 204.547 222.49 202.469 223.812C201.217 224.609 199.846 225.394 198.438 225.875C195.874 226.75 192.794 226.08 190.219 225.625C187.815 225.2 185.444 224.687 183.062 224.156C181.405 223.787 179.731 223.471 178.125 222.906C174.766 221.724 171.637 219.55 169.562 216.625C169.138 216.027 168.769 215.369 168.375 214.75C167.986 214.139 167.566 213.573 167.219 212.938C166.861 212.281 166.596 211.584 166.281 210.906C163.561 205.044 161.916 198.72 158.938 192.969C157.207 189.627 154.981 186.503 152.062 184.094C145.692 178.834 136.166 177.288 128.156 177.875ZM143.656 250.312C143.171 250.147 142.67 250.017 142.188 249.844C142.297 249.885 142.482 249.972 142.562 250C142.921 250.124 143.296 250.193 143.656 250.312ZM142.188 249.844C140.814 249.322 137.561 247.915 137.469 247.875C137.55 247.914 139.859 249.027 141.125 249.5C141.472 249.63 141.838 249.718 142.188 249.844ZM137.469 247.875C137.496 247.831 137.482 247.777 137.438 247.75C135.806 246.635 136.23 246.895 135.812 246.625C136.877 247.497 135.806 246.632 137.344 247.906C137.388 247.933 137.442 247.919 137.469 247.875ZM135.812 246.625C129.72 241.629 128.473 240.761 127 239.344C129.042 241.323 131.13 243.232 133.375 244.969C134.155 245.572 135.19 246.222 135.812 246.625ZM127 239.344C126.101 238.472 125.218 237.581 124.344 236.688C125.075 237.407 125.735 238.199 126.469 238.906C126.576 239.01 126.911 239.258 127 239.344ZM124.344 236.688C123.297 235.657 122.316 234.573 121.312 233.5C122.007 234.247 122.698 235.016 123.406 235.75C123.712 236.067 124.035 236.372 124.344 236.688Z" fill="#213433" stroke="none"/>
</g>
<g opacity="0.996981">
<path d="M145.251 165.863C130.468 162.452 104.581 165.262 92.5902 153.27C52.979 113.659 113.495 74.3701 141.13 98.3199C151.564 107.363 129.48 151.427 143.419 160.139" fill="#3c6f6b" fill-rule="nonzero" stroke="none"/>
<path d="M121.594 90.0938C119.803 90.0188 118.002 90.079 116.219 90.25C97.774 92.018 77.9667 106.863 78.5312 126.875C78.6114 129.717 79.1062 132.511 79.9688 135.219C81.8882 141.244 85.4974 146.59 89.7812 151.188C92.3455 153.939 95.0914 156.309 98.4688 158C105.2 161.37 112.907 162.413 120.312 163.156C125.496 163.677 130.722 163.987 135.906 164.5C131.547 164.043 127.172 163.698 122.812 163.25C116.806 162.633 110.752 161.808 105 159.906C101.538 158.761 98.1692 157.227 95.2812 154.969C93.5733 153.633 92.0991 152.013 90.6875 150.375C88.7039 148.073 86.9095 145.625 85.375 143C83.8465 140.385 82.564 137.599 81.7188 134.688C80.9762 132.129 80.5623 129.478 80.5312 126.812C80.3381 110.249 94.9798 97.5968 109.906 93.5C112.389 92.8185 114.934 92.3459 117.5 92.125C124.263 91.5429 131.258 92.7268 137.125 96.25C138.47 97.0575 139.864 97.9735 141 99.0625C143.275 101.243 143.557 104.957 143.594 107.906C143.67 113.982 142.463 120.074 141.406 126.031C140.366 131.899 139.299 137.768 138.906 143.719C139.016 141.637 139.362 139.594 139.656 137.531C140.361 132.594 141.447 127.705 142.406 122.812C142.719 121.219 143.032 119.63 143.312 118.031C143.579 116.516 143.801 114.994 144 113.469C144.129 112.484 144.227 111.583 144.312 110.594C144.648 106.707 144.848 101.219 141.875 98.1562C140.452 96.6904 138.688 95.4747 136.938 94.4375C132.277 91.6756 126.966 90.3186 121.594 90.0938ZM138.906 143.719C138.874 144.201 138.772 144.673 138.75 145.156C138.694 146.4 138.695 147.639 138.719 148.875C138.698 147.161 138.815 145.441 138.906 143.719ZM138.719 149.062C138.762 150.817 138.921 152.561 139.406 154.281C138.924 152.556 138.75 150.817 138.719 149.062ZM143 159.844C143.325 160.605 143.361 160.558 143.406 160.531C143.368 161.127 143.329 163.058 144.312 163C143.553 163.21 144.633 164.827 144.312 165.625C144.336 164.152 144.358 165.7 145.25 165.906C145.28 165.913 145.306 165.905 145.312 165.875C145.319 165.845 145.28 165.819 145.25 165.812C144.365 163.093 145.067 162.888 144.375 163C145.163 162.824 144.209 161.64 143.5 160.625C143.478 160.428 143.406 160.125 143.406 160.125C143.406 160.125 143.411 160.401 143.406 160.469C143.268 160.266 143.082 160.008 143 159.844ZM144.312 165.625C144.19 165.93 143.667 165.494 143.344 165.438C141.978 165.198 140.625 164.99 139.25 164.812C138.607 164.729 137.957 164.698 137.312 164.625C139.003 164.808 140.67 165.01 142.344 165.312C142.674 165.372 143.014 165.435 143.344 165.5C143.665 165.564 144.308 166.015 144.312 165.688C144.314 165.601 144.311 165.696 144.312 165.625Z" fill="#213433" stroke="none"/>
</g>
<g opacity="0.996981">
<path d="M290.87 145.944C292.536 143.326 284.812 156.688 286.285 154.879C289.644 150.754 296.281 138.347 294.762 130.374C290.764 109.382 219.727 90.6787 205.239 109.997C198.455 119.041 216.426 134.109 223.785 136.785C240.704 142.938 284.459 129.737 284.459 160.597" fill="#3c6f6b" fill-rule="nonzero" stroke="none"/>
<path d="M228.125 100.812C221.792 100.935 215.019 101.781 209.438 105C207.113 106.341 204.777 108.241 203.562 110.688C200.862 116.128 204.912 122.453 208.5 126.406C209.446 127.448 209.948 127.996 210.969 128.969C211.769 129.731 212.773 130.608 213.625 131.312C214.916 132.38 216.262 133.414 217.656 134.344C219.344 135.47 221.134 136.509 223.031 137.25C226.98 138.791 231.469 139.002 235.656 139.125C238.891 139.22 242.108 139.172 245.344 139.156C247.595 139.146 249.842 139.154 252.094 139.188C254.33 139.221 256.582 139.305 258.812 139.469C265.221 139.939 272.624 141.094 277.812 145.125C271.803 140.346 262.798 139.297 255.5 138.844C253.81 138.739 252.13 138.688 250.438 138.625C248.193 138.542 245.932 138.492 243.688 138.438C241.02 138.373 238.351 138.294 235.688 138.125C231.752 137.876 227.727 137.49 224 136.125C222.057 135.413 220.263 134.186 218.594 133C217.272 132.061 215.973 131.064 214.75 130C213.457 128.875 212.229 127.695 211.062 126.438C210.296 125.611 209.566 124.735 208.875 123.844C206.412 120.667 203.395 115.705 205.469 111.625C206.753 109.099 209.449 107.326 211.938 106.156C217.276 103.647 223.455 103.036 229.281 103C237.066 102.952 244.852 104.056 252.438 105.75C260.115 107.465 267.696 109.831 274.875 113.062C281.092 115.861 288.131 119.708 292.219 125.344C293.306 126.843 294.215 128.571 294.562 130.406C295.69 136.356 292.952 143.226 290.281 148.438C290.462 148.093 290.701 147.786 290.875 147.438C292.696 143.788 294.261 139.889 294.906 135.844C295.231 133.811 295.303 131.671 294.812 129.656C294.344 127.729 293.394 125.959 292.219 124.375C287.88 118.525 280.792 114.443 274.344 111.344C266.723 107.681 258.63 105.019 250.375 103.219C243.081 101.628 235.6 100.667 228.125 100.812ZM290.281 148.438C289.422 150.115 288.468 151.754 287.406 153.312C287.327 153.429 287.237 153.541 287.156 153.656C287.079 153.766 287.016 153.891 286.938 154C286.862 154.104 286.796 154.21 286.719 154.312C286.588 154.487 286.498 154.788 286.281 154.812C286.406 154.773 286.733 154.367 286.75 154.344C287.084 153.904 287.382 153.429 287.688 152.969C288.652 151.513 289.469 149.983 290.281 148.438ZM286.281 154.812C286.265 154.757 286.207 154.675 286.25 154.75C286.251 154.762 286.215 154.771 286.219 154.781C286.23 154.788 286.205 154.801 286.219 154.812C286.229 154.828 286.266 154.807 286.281 154.812ZM278.094 145.375C278.835 145.977 279.522 146.644 280.156 147.375C279.527 146.638 278.83 145.986 278.094 145.375ZM280.156 147.375C280.305 147.549 280.42 147.756 280.562 147.938C280.419 147.757 280.306 147.547 280.156 147.375ZM280.562 147.938C281.12 148.639 281.678 149.363 282.125 150.188C282.039 150.027 281.998 149.845 281.906 149.688C281.526 149.031 281.014 148.515 280.562 147.938ZM282.125 150.188C282.732 151.323 283.243 152.512 283.594 153.75C283.255 152.564 282.795 151.435 282.219 150.344C282.19 150.288 282.155 150.242 282.125 150.188ZM291.156 145.594C291.146 145.561 291.033 145.642 291.062 145.625C290.98 145.721 290.881 145.802 290.812 145.906C290.796 145.932 290.818 145.983 290.844 146C290.87 146.017 290.889 145.995 290.906 145.969C291.238 145.441 291.102 145.539 290.812 146.094C290.516 146.662 290.211 147.218 289.906 147.781C289 149.459 288.055 151.131 287.156 152.812C286.914 153.266 286.705 153.73 286.469 154.188C286.695 153.72 286.95 153.26 287.188 152.812C288.081 151.128 289.028 149.471 289.969 147.812C290.079 147.619 290.172 147.444 290.281 147.25C290.542 146.788 290.815 146.313 291.062 145.844C291.077 145.817 291.179 145.662 291.156 145.594Z" fill="#213433" stroke="none"/>
</g>
<path d="M181.026 151.926C191.245 155.587 157.254 144.451 146.214 155.432C145.184 156.457 144.353 157.674 143.777 159.114C141.461 164.905 148.406 170.381 157.428 174.757C168.257 180.009 182.077 183.678 186.464 184.409C199.324 186.552 211.922 191.5 225.616 189.217C234.99 187.655 243.552 185.311 252.489 181.626C258.969 178.954 273.976 176.32 279.292 171.004C280.906 169.39 281.395 168.633 281.57 168.517C281.726 168.414 282.24 166.774 282.549 165.242C283.223 161.902 280.92 160.497 279.252 158.829C277.036 156.613 274.313 155.119 271.762 153.908C266.691 151.501 262.049 150.52 259.139 149.885C252.836 148.51 249.387 149.771 241.3 152.375C237.576 153.573 228.405 160.043 221.181 161.078C216.247 161.785 213.645 161.537 204.875 159.713" fill="#3c6f6b" fill-rule="nonzero" opacity="1" stroke="#3c6f6b" stroke-linecap="round" stroke-linejoin="round" stroke-width="0.454521"/>
</g>
<g id="Layer-Membrane" layerName="Layer Membrane">
<g opacity="0.996981">
<path d="M106.188 204.844C106.157 204.85 106.15 204.876 106.156 204.906C106.36 205.767 106.547 206.652 106.969 207.438C107.005 207.505 107.056 207.56 107.094 207.625C106.615 206.792 106.436 205.805 106.25 204.875C106.243 204.845 106.218 204.837 106.188 204.844ZM107.094 207.625C107.493 208.312 107.931 208.957 108.312 209.656C108.213 209.444 108.182 209.206 108.062 209C107.783 208.518 107.372 208.108 107.094 207.625ZM108.312 209.656C108.617 210.305 108.877 210.971 109.094 211.656C108.946 211.151 108.82 210.632 108.625 210.156C108.547 209.965 108.407 209.83 108.312 209.656ZM109.094 211.656C109.251 212.194 109.442 212.725 109.594 213.25C111.04 218.243 113.108 223.04 115.781 227.5C117.873 230.99 120.333 234.292 123.094 237.281C131.693 246.589 143.101 252.305 155.25 255.531C173.239 260.308 192.257 259.689 210.469 256.531C216.123 255.551 221.713 254.245 227.219 252.625C220.538 254.569 213.724 255.991 206.812 256.812C200.558 257.556 194.265 257.821 187.969 257.688C184.117 257.606 180.272 257.369 176.438 257C153.649 254.808 129.502 247.191 116.219 227.25C113.112 222.586 111 217.537 109.312 212.219C109.251 212.025 109.155 211.849 109.094 211.656Z" fill="#213433" stroke="none"/>
</g>
<g opacity="0.996981">
<path d="M294.906 134.5C294.875 134.496 294.848 134.532 294.844 134.562C294.777 135.548 294.481 136.511 294.156 137.438C293.275 139.956 291.824 142.119 290.438 144.375C288.627 147.321 287.015 150.491 285.781 153.719C284.646 156.69 284.368 159.885 283.844 163C283.542 164.793 283.259 166.66 282.156 168.156C283.272 166.679 283.607 164.827 284.156 163.094C284.756 161.201 285.559 159.384 286.344 157.562C287.777 154.235 289.501 151.03 290.906 147.688C292.667 143.501 294.018 139.037 294.969 134.594C294.973 134.563 294.937 134.504 294.906 134.5Z" fill="#213433" stroke="none"/>
</g>
<g opacity="0.996981">
<path d="M254.25 149.156C246.553 149.136 238.965 152.872 232.094 155.969C228.452 157.61 224.617 159.577 220.625 160.219C218.203 160.608 215.482 160.24 213.062 159.969C207.371 159.33 201.845 157.848 196.406 156.094C190.781 154.279 185.206 152.265 179.406 151.062C174.357 150.015 169.178 149.65 164.031 149.969C161.312 150.137 158.618 150.481 155.938 150.969C152.536 151.587 149.173 152.458 146.625 154.938C145.128 156.394 144.062 158.228 143.156 160.094C143.143 160.122 143.159 160.143 143.188 160.156C143.216 160.169 143.237 160.153 143.25 160.125C144.086 158.207 145.126 156.423 146.656 154.969C149.643 152.13 153.746 151.474 157.688 151.031C160.306 150.737 162.929 150.606 165.562 150.688C171.385 150.869 177.105 152.103 182.656 153.812C189.962 156.063 197.021 159.044 204.5 160.719C208.226 161.553 212.025 162.061 215.844 162.188C217.547 162.244 219.291 162.317 220.969 161.969C223.024 161.542 224.985 160.705 226.875 159.812C229.232 158.699 231.512 157.443 233.812 156.219C240.102 152.871 246.949 149.265 254.25 149.188C256.27 149.166 258.117 149.565 260.062 150.031C260.726 150.19 261.389 150.296 262.031 150.531C261.39 150.293 260.725 150.161 260.062 150C258.119 149.527 256.269 149.162 254.25 149.156Z" fill="#213433" stroke="none"/>
</g>
<g opacity="0.996981">
<path d="M253.594 149.281C252.349 149.261 251.094 149.343 249.875 149.594C252.311 149.099 254.866 149.304 257.312 149.625C259.471 149.908 261.615 150.348 263.719 150.906C265.395 151.351 267.031 151.862 268.656 152.469C269.888 152.928 270.647 153.242 271.844 153.781C272.853 154.236 273.853 154.761 274.812 155.312C278.994 157.718 284.064 161.892 281.844 167.281C281.558 167.975 281.165 168.617 280.719 169.219C279.408 170.986 277.83 171.887 275.875 172.844C273.767 173.876 271.579 174.641 269.344 175.344C262.897 177.371 256.397 179.244 249.906 181.125C244.298 182.751 238.691 184.384 233.062 185.938C229.49 186.923 225.858 188.114 222.156 188.5C215.95 189.147 209.627 188.437 203.469 187.594C193.344 186.207 183.286 184.053 173.531 181C169.489 179.735 165.496 178.322 161.562 176.75C160.555 176.347 159.527 175.931 158.531 175.5C158.121 175.323 157.59 175.195 157.219 174.938C156.872 174.697 156.531 174.477 156.156 174.281C153.92 173.111 151.713 171.957 149.688 170.438C149.834 170.549 149.945 170.703 150.094 170.812C151.988 172.201 154.066 173.235 156.125 174.344C156.495 174.543 156.815 174.758 157.156 175C157.664 175.36 158.406 175.593 158.969 175.844C160.348 176.458 161.729 177.051 163.125 177.625C166.959 179.2 170.835 180.638 174.75 182C184.683 185.456 194.933 188.223 205.344 189.781C210.96 190.622 216.703 191.237 222.375 190.688C226.206 190.316 229.966 189.09 233.656 188.062C239.296 186.492 244.907 184.854 250.5 183.125C257.292 181.025 264.071 178.812 270.75 176.375C272.969 175.565 275.106 174.647 277.156 173.469C278.922 172.454 280.278 171.468 281.438 169.75C281.981 168.944 282.434 168.056 282.719 167.125C284.528 161.207 278.804 157.054 274.219 154.688C273.471 154.302 272.711 153.956 271.938 153.625C270.663 153.08 270.028 152.809 268.719 152.344C267.08 151.762 265.404 151.241 263.719 150.812C261.607 150.275 259.475 149.867 257.312 149.594C256.088 149.439 254.839 149.301 253.594 149.281ZM149.688 170.438C149.036 169.94 148.485 169.325 147.875 168.781C148.42 169.277 148.879 169.859 149.469 170.312C149.536 170.364 149.62 170.387 149.688 170.438ZM147.875 168.781C146.791 167.796 145.685 166.838 144.719 165.719C144.698 165.696 144.679 165.698 144.656 165.719C144.633 165.739 144.604 165.758 144.625 165.781C145.619 166.872 146.776 167.801 147.875 168.781Z" fill="#213433" stroke="none"/>
</g>
<g opacity="0.996981" layerName="Curve 1">
<path d="M100.156 158.125C100.598 159.311 101.412 160.506 102 161.625C102.687 162.932 103.391 164.25 104.125 165.531C104.373 165.964 104.583 166.409 104.875 166.812C105.985 168.344 107.612 169.651 109.062 170.844C111.275 172.664 113.677 174.245 116.188 175.625C117.018 176.082 117.837 176.59 118.719 176.938C121.695 178.111 125.368 178.243 128.531 178.219C126.803 177.59 125.119 176.908 123.5 176.031C122.333 175.4 121.258 174.633 120.094 174C119.331 173.586 118.537 173.239 117.781 172.812C116.249 171.947 114.789 170.932 113.406 169.844C112.002 168.739 110.687 167.557 109.406 166.312C108.755 165.68 108.141 164.981 107.438 164.406C106.707 163.809 105.896 163.336 105.156 162.75C103.928 161.776 102.818 160.676 101.688 159.594C101.151 159.08 100.629 158.726 100.156 158.125Z" fill="#213433" stroke="none"/>
</g>
<g opacity="1" layerName="Curve 2">
<path d="M145.281 164.688C145.026 164.632 144.737 164.692 144.5 164.844C144.026 165.148 143.884 165.776 144.188 166.25C147.277 171.092 152.304 173.949 157.438 176.25C164.625 179.472 172.299 181.459 179.938 183.281C171.905 180.903 163.761 178.367 156.438 174.219C152.454 171.962 148.421 169.068 145.906 165.156C145.754 164.919 145.536 164.743 145.281 164.688Z" fill="#213433" stroke="none"/>
</g>
<g opacity="1" blendMode="darken" layerName="Curve 4">
<path d="M94.4062 154.531C94.2424 154.409 94.0282 154.43 93.9062 154.594C93.7843 154.758 93.8049 155.003 93.9688 155.125C99.3803 159.155 106.055 160.801 112.594 161.969C123.233 163.869 134.094 163.932 144.75 165.688C133.481 163.658 121.96 163.491 110.75 161.062C105.035 159.824 99.1584 158.063 94.4062 154.531Z" fill="#213433" stroke="none"/>
</g>
<g opacity="1" blendMode="darken" layerName="Curve 3">
<path d="M144.156 110.719C143.43 114.374 142.674 118.034 141.938 121.688C140.979 126.443 140.095 131.147 139.312 135.938C138.957 138.114 138.471 140.334 138.25 142.531C137.986 145.152 138.161 147.896 138.469 150.5C138.882 153.996 139.805 157.755 142.375 160.312C142.716 160.652 143.286 160.653 143.625 160.312C143.964 159.972 143.934 159.433 143.594 159.094C141.742 157.248 140.955 154.619 140.406 152.125C140.017 150.357 139.774 148.586 139.625 146.781C139.52 145.509 139.329 143.838 139.469 142.656C139.86 139.343 140.27 136.029 140.688 132.719C141.617 125.354 142.975 118.046 144.156 110.719Z" fill="#213433" stroke="none"/>
</g>
<g opacity="1">
<path d="M197.406 22.6875C194.597 22.7032 191.796 22.7845 189 22.9688C174.252 23.9406 159.577 27.2812 145.938 33C139.503 35.6977 133.402 39.0719 127.5 42.7812C124.039 44.9566 120.63 47.1797 117.375 49.6562C112.205 53.59 107.399 57.9988 102.906 62.6875C93.7128 72.2828 85.4894 83.3169 80.5938 95.75C85.6784 83.433 94.051 72.5425 103.375 63.125C108.216 58.2351 113.4 53.693 119 49.6875C122.474 47.2026 126.14 44.9587 129.812 42.7812C134.251 40.1495 138.787 37.6645 143.531 35.625C157.911 29.4432 173.505 26.0319 189.125 25.2812C199.554 24.78 210.092 25.4273 220.312 27.625C235.207 30.8278 249.11 37.6218 261.531 46.3438C267.976 50.869 273.991 55.9206 279.781 61.25C283.297 64.4858 286.76 67.8401 289.875 71.4688C294.471 76.8234 298.411 82.6908 302.062 88.7188C303.95 91.8347 305.824 94.9664 307.469 98.2188C309.201 101.644 310.689 105.215 311.938 108.844C314.49 116.26 316.169 124.029 316.844 131.844C317.063 134.377 317.113 136.897 317.156 139.438C317.203 142.136 317.73 144.863 317.5 147.562C317.379 149.09 318.504 150.41 320.031 150.531C321.559 150.653 322.91 149.527 323.031 148C323.249 145.1 322.721 142.208 322.656 139.312C322.394 127.639 320.378 116.083 316.188 105.156C314.975 101.996 313.618 98.8828 312.062 95.875C310.327 92.5192 308.343 89.2973 306.344 86.0938C302.99 80.7207 299.362 75.5126 295.25 70.6875C292.15 67.0504 288.783 63.6862 285.312 60.4062C279.435 54.8511 273.164 49.7236 266.531 45.0938C253.242 35.8177 238.453 28.5096 222.531 25.125C214.297 23.3746 205.834 22.6405 197.406 22.6875Z" fill="#213433" stroke="none"/>
</g>
<g opacity="1">
<path d="M93.1875 74.1562C91.5677 76.0845 90.008 78.0397 88.5938 80.125C86.8762 82.6574 85.3861 85.3427 83.875 88C82.7024 90.062 81.4595 92.0734 80.5 94.25C78.2604 99.3302 76.49 104.64 74.75 109.906C73.1006 114.898 71.2855 119.812 70.1875 124.969C69.5131 128.136 69.428 131.351 68.875 134.531C68.4569 136.936 67.8848 139.305 67.75 141.75C66.9512 156.237 69.4836 170.819 73.5312 184.688C75.5806 191.709 77.9392 198.728 80.9375 205.406C83.814 211.813 87.2896 217.934 91.125 223.812C93.3168 227.172 95.567 230.562 98.125 233.656C103.885 240.623 111.425 245.648 118.719 250.844C121.754 253.006 124.682 255.305 127.781 257.375C131.207 259.664 134.796 261.729 138.469 263.594C147.48 268.17 157.15 271.796 167.031 273.969C175.47 275.824 184.175 276.663 192.812 276.5C201.127 276.343 209.279 274.856 217.438 273.375C223.795 272.221 230.082 271.297 236.281 269.375C248.134 265.701 259.347 259.762 269.594 252.812C276.763 247.95 283.034 241.902 289 235.656C292.619 231.867 296.338 228.044 299.406 223.781C300.757 221.905 301.937 219.886 303.125 217.906C304.886 214.971 306.551 211.992 308.156 208.969C312.876 200.078 316.797 190.73 319.312 180.969C322.095 170.168 323.141 159.099 323.219 147.969C323.226 146.437 321.97 145.164 320.438 145.156C318.905 145.149 317.664 146.405 317.656 147.938C317.629 158.621 316.686 169.277 314.062 179.656C311.695 189.024 308.003 197.981 303.531 206.531C301.987 209.485 300.384 212.381 298.688 215.25C297.584 217.116 296.502 219.04 295.25 220.812C292.355 224.911 288.796 228.566 285.375 232.219C279.699 238.279 273.776 244.233 266.969 249.031C256.747 256.236 245.131 262.327 233.156 266C227.387 267.769 221.438 268.668 215.531 269.844C209.661 271.012 203.782 272.182 197.812 272.719C187.801 273.619 177.529 272.989 167.688 270.969C162.545 269.913 157.474 268.386 152.531 266.625C145.966 264.286 139.578 261.443 133.531 257.969C128.825 255.265 124.513 251.993 120.062 248.906C114.454 245.017 108.761 241.258 103.75 236.594C99.4117 232.555 95.974 227.682 92.6875 222.781C88.8288 217.027 85.3251 211.007 82.4062 204.719C80.8953 201.464 79.5849 198.116 78.3438 194.75C72.1375 177.919 67.8134 159.826 68.5938 141.781C68.7246 138.754 69.5596 135.844 69.9062 132.844C70.0304 131.77 70.0523 130.668 70.1562 129.594C70.3026 128.081 70.5447 126.583 70.8438 125.094C71.9406 119.631 73.8379 114.426 75.5 109.125C76.4767 106.01 77.532 102.939 78.6562 99.875C79.3343 98.0271 79.9766 96.1864 80.75 94.375C81.7791 91.9649 83.144 89.728 84.4062 87.4375C87.0093 82.7138 89.7658 78.3271 93.1875 74.1562Z" fill="#213433" stroke="none"/>
</g>
</g>
<g id="Layer-White" layerName="Layer White">
<g opacity="1" layerName="Curve 1">
<path d="M119.5 91.875C117.18 92.0387 114.913 92.3947 112.656 92.875C114.909 92.4014 117.188 92.0406 119.5 91.875ZM112.656 92.875C111.939 93.0258 111.239 93.2192 110.531 93.4062C111.234 93.2204 111.944 93.0267 112.656 92.875ZM110.531 93.4062C108.763 93.8739 107.032 94.4581 105.344 95.1562C107.035 94.4401 108.769 93.8716 110.531 93.4062ZM105.344 95.1562C104.996 95.3036 104.626 95.3723 104.281 95.5312C104.128 95.602 103.996 95.7084 103.844 95.7812C104.337 95.5523 104.842 95.3637 105.344 95.1562ZM103.844 95.7812C102.352 96.4742 100.931 97.2879 99.5312 98.1875C100.91 97.2722 102.351 96.495 103.844 95.7812ZM99.5312 98.1875C99.0797 98.4776 98.5969 98.6874 98.1562 99C86.0894 107.561 79.1186 124.712 84.9375 138.875C88.9994 148.762 97.6735 155.858 107.188 160.188C101.049 156.452 95.5998 151.666 91.8125 145.5C90.1278 142.757 88.8992 139.825 87.875 136.781C85.3458 129.265 84.6225 120.513 87.4375 112.969C89.0664 108.603 91.8753 104.781 95.25 101.594C96.5768 100.341 98.0122 99.1961 99.5312 98.1875Z" fill="#ffffff" stroke="none"/>
</g>
<g opacity="1" layerName="Curve 2">
<path d="M254.469 150.875C248.41 150.826 242.343 152.128 237.062 154.812C242.774 152.909 248.728 152.644 254.656 153.562C257.031 153.93 259.354 154.531 261.688 155.094C265 155.892 268.286 156.738 271.531 157.781C272.884 158.216 274.307 158.631 275.562 159.312C277.414 160.318 278.954 161.977 279.75 163.938C280.234 165.129 280.476 166.554 279.969 167.781C278.998 170.131 275.93 171.879 273.781 172.938C271.064 174.276 268.246 175.354 265.375 176.375C267.92 175.477 270.474 174.52 272.938 173.438C275.431 172.342 278.189 171.107 279.812 168.812C281.114 166.973 280.839 164.675 280.031 162.688C278.463 158.828 275.491 156.735 271.875 154.938C266.589 152.309 260.527 150.924 254.469 150.875Z" fill="#ffffff" stroke="none"/>
</g>
<g opacity="1" layerName="Curve 3">
<path d="M128.219 180.156C120.053 180.682 111.882 184.268 108.906 192.281C108.219 194.131 107.834 196.097 107.688 198.062C107.264 203.765 108.729 209.543 110.625 214.875C113.494 222.943 118.047 230.27 124 236.219C120.161 232.318 116.922 227.803 114.375 222.75C111.854 217.749 110.085 212.369 109.75 206.75C109.522 202.929 109.886 198.98 111.125 195.344C111.665 193.758 112.386 192.203 113.375 190.844C114.665 189.072 116.346 187.71 118.156 186.5C123.355 183.024 129.815 181.707 136 182.188C138.028 182.345 140.034 182.698 142 183.219C144.912 183.991 147.662 185.175 150.312 186.594C147.793 184.88 145.133 183.402 142.281 182.312C140.308 181.559 138.267 180.97 136.188 180.594C133.665 180.137 130.941 179.981 128.219 180.156ZM124 236.219C124.14 236.361 124.265 236.516 124.406 236.656C124.264 236.517 124.141 236.36 124 236.219ZM124.406 236.656C126.253 238.46 128.232 240.115 130.344 241.625C128.238 240.114 126.234 238.469 124.406 236.656ZM130.344 241.625C130.63 241.831 130.927 242.019 131.219 242.219C130.927 242.02 130.63 241.83 130.344 241.625ZM131.219 242.219C133.404 243.712 135.679 245.081 138.125 246.219C135.665 245.072 133.397 243.71 131.219 242.219Z" fill="#ffffff" stroke="none"/>
</g>
<g opacity="1" layerName="Curve 4">
<path d="M227.188 103.281C225.479 103.318 223.793 103.461 222.094 103.781C219.639 104.243 217.211 105.015 215.031 106.25C213.41 107.168 211.999 108.494 210.906 110C210.093 111.121 209.467 112.351 209.094 113.688C208.283 116.591 208.77 119.654 209.875 122.406C211.19 125.681 213.455 128.335 216.062 130.625C214.568 129.249 213.269 127.659 212.188 125.938C211.458 124.775 210.856 123.525 210.531 122.188C208.681 114.566 216.403 108.252 222.656 105.75C223.884 105.259 225.127 104.833 226.406 104.5C228.355 103.993 230.347 103.708 232.344 103.469C230.628 103.322 228.896 103.245 227.188 103.281ZM216.062 130.625C217.588 131.965 219.208 133.19 220.938 134.25C219.215 133.19 217.564 132.008 216.062 130.625ZM221.25 134.438C221.526 134.604 221.784 134.809 222.062 134.969C223.57 135.834 225.111 136.553 226.688 137.281C224.822 136.416 223.007 135.496 221.25 134.438Z" fill="#ffffff" stroke="none"/>
</g>
<g opacity="1" layerName="Curve 5">
<path d="M230.219 215.312C226.706 215.08 223.168 216.291 220 217.688C214.932 219.922 210.31 223.014 205.906 226.344C210.975 223.506 216.29 220.904 221.938 219.438C224.482 218.777 227.247 218.293 229.875 218.719C231.94 219.054 233.815 220.092 235.531 221.25C240.618 224.681 246.213 231.206 243.094 237.656C241.534 240.882 238.457 243.364 235.562 245.344C232.807 247.229 229.881 248.867 226.875 250.344C230.131 248.761 233.328 247.028 236.312 245C239.261 242.996 242.135 240.662 243.75 237.406C247.157 230.537 242.447 221.961 236.719 217.969C234.791 216.625 232.6 215.47 230.219 215.312Z" fill="#ffffff" stroke="none"/>
</g>
</g>
</svg>
