<svg stroke-miterlimit="10"
  style="fill-rule:nonzero;clip-rule:evenodd;stroke-linecap:round;stroke-linejoin:round"
  viewBox="0 0 1224 1080" xml:space="preserve" xmlns="http://www.w3.org/2000/svg"><g layerName="Layer Black" stroke="#000" stroke-linecap="square" stroke-linejoin="bevel" stroke-width="12.984"><path d="M530.495 687.383h0c.597.005 1.072.628 1.062 1.39l-3.701 284.294c-.01.762-.502 1.376-1.098 1.37h0c-.596-.005-1.072-.628-1.062-1.39l3.701-284.294c.01-.762.502-1.375 1.098-1.37z" layerName="Rectangle 1"/><path d="M704.031 688.851h0c.596.005 1.072.627 1.062 1.39l-3.701 284.294c-.01.762-.502 1.375-1.098 1.37h0c-.597-.006-1.072-.628-1.062-1.39l3.701-284.294c.01-.762.501-1.376 1.098-1.37z" layerName="Rectangle 2"/></g><g layerName="Layer Inner" fill="#753b7d" stroke="#753b7d" stroke-linecap="square" stroke-linejoin="bevel" stroke-width="12.984"><path d="M660.199 434.207h83.424c15.857 0 28.711 12.575 28.711 28.086V653.11c0 15.511-12.854 28.086-28.711 28.086h-83.424c-15.857 0-28.711-12.575-28.711-28.086V462.293c0-15.511 12.854-28.086 28.711-28.086z" layerName="Rectangle 7"/><path d="M491.3 434.207h81.97c15.581 0 28.211 12.63 28.211 28.21v191.66c0 15.58-12.63 28.21-28.211 28.21H491.3c-15.581 0-28.211-12.63-28.211-28.21v-191.66c0-8.39 3.663-15.925 9.477-21.093a28.105 28.105 0 0 1 18.734-7.117z" layerName="Rectangle 8"/><path d="M524.107 169.546c11.13-2.376 9.13.83 11.693 15.431 2.371 13.504 12.486 32.635 28.216 44.246 18.907 13.956 31.357 14.599 36.101 18.145 2.204 1.647 1.196 3.405 1.196 8.347l.168 132.488c0 15.58-12.63 28.211-28.211 28.211H491.3c-15.581 0-28.211-12.631-28.211-28.211V196.544c0-8.39 5.399-19.132 11.213-24.3 2.851-2.533 17.019-3.793 33.117-3.511 6.733.118 12.002 1.813 16.688.813z" layerName="Rectangle 9"/><path d="M709.68 169.546c-11.13-2.376-9.13.83-11.693 15.431-2.371 13.504-12.486 32.635-28.216 44.246-18.907 13.956-31.357 14.599-36.101 18.145-2.204 1.647-1.196 3.405-1.196 8.347l-.168 132.488c0 15.58 12.63 28.211 28.211 28.211h81.97c15.581 0 28.211-12.631 28.211-28.211V196.544c0-8.39-5.399-19.132-11.213-24.3-2.851-2.533-17.019-3.793-33.117-3.511-6.733.118-12.002 1.813-16.688.813z" layerName="Rectangle 1"/></g><g layerName="Layer Membrane" fill="none" stroke="#330a39" stroke-linecap="round" stroke-linejoin="round" stroke-width="2"><path d="M659.702 428.067c-.277 0-.537.086-.813.094h-.25c-17.689 0-32.031 14.043-32.031 31.344v197.5c0 7.078 3.45 13.32 7.906 18.469 4.522 5.99 10.692 10.541 17.907 12.156.999.237 2.116.255 3.187.375.88.089 1.723.344 2.625.344h87.188c.674 0 1.303-.209 1.968-.25 1.544-.113 3.088-.245 4.563-.563 1.231-.259 2.384-.661 3.562-1.062 1.048-.357 2.067-.731 3.063-1.188a29.997 29.997 0 0 0 2.719-1.437 31.95 31.95 0 0 0 4.5-3.157c.162-.143.34-.259.5-.406 6.548-5.722 10.75-13.935 10.75-23.187V460.036c0-15.103-10.968-27.711-25.563-30.625-.03-.006-.064.006-.094 0-2.34-.584-4.745-.969-7.218-.969l-84.469-.375z" layerName="Curve 1"/><path d="M488.773 162.288c-17.689 0-32.031 14.043-32.031 31.343v197.5c0 7.079 3.449 13.321 7.906 18.469 4.522 5.99 10.691 10.541 17.906 12.156 1 .238 2.116.256 3.188.375.88.089 1.722.344 2.625.344H575.554c.674 0 1.303-.208 1.969-.25 1.544-.112 3.087-.244 4.562-.562 1.232-.259 2.385-.661 3.563-1.063 1.048-.357 2.067-.73 3.062-1.187a29.625 29.625 0 0 0 2.719-1.438 31.944 31.944 0 0 0 4.5-3.156c.163-.143.34-.259.5-.406 6.548-5.723 10.75-13.935 10.75-23.188 0 0-.047-143.372-.623-147.194-.441-2.927-4.008-1.713-10.096-4.207a2489.488 2489.488 0 0 0-14.256-5.766s-10.509-4.825-19.14-13.105c-8.63-8.281-9.999-9.126-15.381-19.523-5.381-10.398-6.473-22.726-6.473-22.726s-2.104-12.611-5.361-14.767c-.607-.402-5.155-1.201-10.273-1.103-2.009.039-36.803-.546-36.803-.546z" layerName="Curve 56"/><path d="M745.014 162.288c17.689 0 32.032 14.043 32.032 31.343v197.5c0 7.079-3.45 13.321-7.907 18.469-4.521 5.99-10.691 10.541-17.906 12.156-1 .238-2.116.256-3.187.375-.881.089-1.723.344-2.625.344h-87.188c-.674 0-1.303-.208-1.969-.25-1.544-.112-3.087-.244-4.562-.562-1.232-.259-2.384-.661-3.563-1.063-1.048-.357-2.067-.73-3.062-1.187a29.625 29.625 0 0 1-2.719-1.438 31.944 31.944 0 0 1-4.5-3.156c-.163-.143-.34-.259-.5-.406-6.548-5.723-10.75-13.935-10.75-23.188 0 0 .047-143.372.623-147.194.441-2.927 4.008-1.713 10.096-4.207 6.088-2.493 14.256-5.766 14.256-5.766s10.509-4.825 19.14-13.105c8.63-8.281 9.999-9.126 15.381-19.523 5.381-10.398 6.473-22.726 6.473-22.726s2.104-12.611 5.361-14.767c.607-.402 5.155-1.201 10.273-1.103 2.009.039 36.803-.546 36.803-.546z" layerName="Curve 2"/><path d="M489.835 428.067c-.276 0-.537.086-.812.094h-.25c-17.689 0-32.031 14.043-32.031 31.344v197.5c0 7.078 3.449 13.32 7.906 18.469 4.522 5.99 10.691 10.541 17.906 12.156 1 .237 2.116.255 3.188.375.88.089 1.722.344 2.625.344H575.554c.674 0 1.303-.209 1.969-.25 1.544-.113 3.087-.245 4.562-.563 1.232-.259 2.385-.661 3.563-1.062 1.048-.357 2.067-.731 3.062-1.188a29.864 29.864 0 0 0 2.719-1.437 31.95 31.95 0 0 0 4.5-3.157c.163-.143.34-.259.5-.406 6.548-5.722 10.75-13.935 10.75-23.187V460.036c0-15.103-10.968-27.711-25.562-30.625-.03-.006-.064.006-.094 0-2.34-.584-4.746-.969-7.219-.969l-65.531-.218-18.938-.157z" layerName="Curve 55"/></g></svg>
