<?xml version="1.0" encoding="UTF-8"?>
<svg id="Capa_1" xmlns="http://www.w3.org/2000/svg" viewBox="0 0 603.4 596.59">
  <defs>
    <style>
      .cls-1 {
        fill: #dc6491;
      }

      .cls-2 {
        fill: #c1527f;
      }

      .cls-3 {
        fill: #ea81a0;
      }

      .cls-4 {
        fill: #892b56;
      }

      .cls-5 {
        fill: #fff;
        opacity: .17;
      }

      .cls-6 {
        opacity: .56;
      }

      .cls-7 {
        fill: #a53a73;
      }

      .cls-8 {
        fill: #bc5383;
      }

      .cls-9 {
        fill: #f49abe;
      }

      .cls-10 {
        fill: #a33d66;
      }

      .cls-11 {
        fill: #d375a4;
      }

      .cls-12 {
        fill: #be4880;
        opacity: .64;
      }

      .cls-13 {
        fill: #c95987;
      }
    </style>
  </defs>
  <g>
    <path class="cls-1" d="M265.21,592.09c-6.82,0-13.73-2.7-18.49-7.23-7.12-6.76-8.1-16.07-9.72-31.48-.48-4.6-.57-7.64-.64-9.86-.1-3.29-.16-3.64-.8-4.68-1.99-3.21-6.63-6.31-26.91-7.27-3.04-.14-5.95-.21-8.65-.21-9.59,0-15.21.87-20.18,1.64-3.57.55-6.65,1.03-10.31,1.03-2.92,0-5.86-.3-9.24-.95-9.89-1.9-34.03-8.45-44.59-28.12-2-3.72-3.05-7.05-3.98-10-1.38-4.36-2.29-7.24-5.61-9.59-2.78-1.97-6.07-2.81-11.01-2.81-2.65,0-5.57.23-8.66.48-7.95.64-13.22,2.33-17.87,3.82-4.58,1.47-8.9,2.86-14.42,2.86-1.83,0-3.67-.15-5.63-.46-4.69-.74-14.41-2.28-18.85-10.03-5.12-8.93.2-19.67,5.35-30.07,4.6-9.3,8.53-14.05,11.68-17.88,3.18-3.86,5.48-6.64,7.66-12.91,1.26-3.61,5.11-14.59,1.52-26.14-.71-2.26-1.24-3.13-3.46-6.77-1.12-1.83-2.65-4.35-4.75-7.95l-.07-.11c-7.36-12.68-11.42-19.66-13.1-24.13-.23-.62-.43-1.24-.6-1.91-2.2-8.48-1.15-14.55-.23-19.91.91-5.29,1.63-9.48-1.07-15.38-.97-2.11-1.59-2.81-2.72-4.08-1.39-1.56-3.11-3.51-5.71-8.09-1.29-2.27-4.43-4.99-7.47-7.62-6.06-5.25-12.93-11.2-12.13-19.11.07-.75.19-1.45.35-2.13,1.9-8.43,9.6-13.18,17.05-17.77,6.8-4.2,13.23-8.16,14.19-14.2.52-3.29-.05-4.84-1.1-7.66-1.21-3.25-2.86-7.71-2.87-15.89-.02-13.74,4.47-24.17,6.63-29.18,2.28-5.31,6.53-15.21,15.89-24.17,6.67-6.39,12.4-8.9,17.01-10.93,4.6-2.02,7.64-3.35,10.48-7.81,3.81-5.95,5.75-15.11,2.4-20.12-1.11-1.67-2.3-2.16-4.86-3.09-2.79-1.02-6.62-2.42-10.37-6.55-7.24-7.97-10.61-21.96-4.09-30.1,4.7-5.89,12.45-6.21,16.62-6.38.42-.02.81-.02,1.19-.02,6.21,0,10.14,2.06,13.61,3.87,3,1.57,5.6,2.93,9.93,3.2,1.47.09,3.47.22,5.73.22,9.6,0,17.11-2.33,22.34-6.92,1.95-1.72,2.41-2.65,3.24-4.35,1.08-2.21,2.42-4.96,6.63-9.44,3.75-4,12.54-13.36,26.07-15.46.81-.12,1.87-.17,3.69-.17s4.44.05,8.02.11c4.04.08,7.11.22,9.57.33,2.23.1,4,.18,5.62.18,2.08,0,3.87-.14,5.97-.46,4.6-.7,7.12-1.15,9.76-3.09,3.27-2.4,4.72-5.65,5.59-7.59,1.63-3.68,1.65-5.95,1.67-8.82.02-2.61.04-5.58,1.28-9.49,2.3-7.27,9.52-18.79,19.07-18.79.02,0,.12,0,.14,0,4.5.05,6.88,2.51,11.62,7.43,2.03,2.11,4.81,4.99,8.66,8.68l.19.18c4.68,4.49,7.02,6.75,8.79,8.08,11.69,8.83,25.53,9.28,28.18,9.28h.32c3.06-.06,4.11-.38,7.58-1.44,3.31-1.01,8.3-2.53,18.14-4.72l.31-.07c9.42-2.1,14.16-3.16,20.48-3.93,1.57-.19,3.1-.38,4.59-.57,6.54-.83,12.19-1.54,17.46-1.54,7.8,0,13.74,1.68,18.7,5.29,3.67,2.67,5.87,5.59,8,8.41,2.61,3.46,5.31,7.04,11.39,11.04,4.02,2.64,9.54,6.25,17.13,6.3h.22c5.1,0,9.83-1.36,13.68-3.94,3.15-2.1,4.35-4.08,5.75-6.37,1.64-2.69,3.51-5.75,8.05-8,3.08-1.52,6.81-2.36,10.51-2.36,5.96,0,11.23,2.11,14.45,5.78,3.81,4.36,4.29,10.47,1.81,23.37-2,10.44-4.23,16.04-6.02,20.54-1.23,3.09-2.11,5.32-2.56,8.25-2.43,15.83,10.91,31.57,21.17,42.03l.07.07c.61.62,1.2,1.22,1.76,1.78,6.52,6.52,12.08,9.61,17.46,12.6,4.3,2.39,8.36,4.64,12.5,8.34,2.97,2.65,5.63,5.75,8.15,9.46,5.78,8.52,7.84,16,9.49,22,1.89,6.87,3.14,11.41,8.8,15.09,3.74,2.44,6.95,2.93,10.67,3.49,4.9.75,10.44,1.59,16.99,6.87.26.16.67.39,1.2.68,5.5,3.08,20.11,11.25,22.05,23.81.92,5.94-1.89,25.66-18.64,33.28-13.08,5.95-19.29,20.17-25.31,33.92-1.07,2.44-2.17,4.96-3.28,7.36-5.27,11.38-2.37,27.4.18,41.53,1.07,5.94,2.09,11.55,2.56,16.81.24,2.7.6,6.78-1.06,10.57-1.71,3.89-4.9,6.25-7.72,8.33-.52.39-1.05.77-1.55,1.16-8.85,6.91-13.25,17.26-17.92,28.21-1.71,4.02-3.48,8.18-5.49,12.14-4.53,8.95-10.97,15.5-17.2,21.83-4.96,5.05-9.65,9.81-13.4,15.7-4.17,6.56-4.84,12.66-2.16,19.8,4.54,12.07,8.45,22.49,3.83,33.13-3.47,8.01-10.88,14.26-18.86,15.91-1.12.23-2.07.34-3.08.34-3.36,0-6.94-1.04-19.58-5.16-3.63-1.18-6.53-2.14-8.89-2.91-8.92-2.94-9.43-3.08-11-3.14h-.31c-2.88,0-7.36,1.22-21.74,7.46-7.18,3.12-10.57,5.38-13.56,7.38-2.88,1.93-5.6,3.75-10.58,5.71-4.98,1.98-10.02,3.23-49.05,3.97-2.21.04-4.21.08-6.02.11-14.21.24-15.88.32-19.14,2-5.39,2.78-10.46,8.47-20.56,19.81-1.85,2.08-3.34,3.81-4.61,5.29-4.94,5.74-7.42,8.62-12.65,10.18-2.12.64-4.4.96-6.77.96Z"/>
    <path class="cls-9" d="M240.87,9s.06,0,.09,0c3.89.04,5.2,3.32,17.22,14.86,4.92,4.73,7.38,7.1,9.39,8.61,12.81,9.69,27.91,10.18,30.89,10.18.19,0,.32,0,.41,0,7.03-.13,6.29-1.73,26.61-6.26,9.46-2.11,14.18-3.17,20.35-3.92,8.24-1,15.33-2.08,21.51-2.08s11.46,1.09,16.05,4.43c7.32,5.32,7.8,11.84,19.57,19.57,4.55,2.98,10.82,6.98,19.57,7.04.08,0,.16,0,.25,0,2.37,0,9.47-.2,16.18-4.7,7.94-5.31,6.54-10.73,13.3-14.08,2.52-1.25,5.53-1.9,8.51-1.9,4.31,0,8.54,1.36,11.06,4.25,2.09,2.39,3.34,6.21.78,19.56-3.34,17.44-7.37,20.88-8.61,28.96-2.82,18.36,12.53,35.79,22.4,45.86.65.66,1.27,1.29,1.86,1.88,12.13,12.13,21.3,13.22,30.15,21.11,2.48,2.22,4.93,4.96,7.42,8.63,11.91,17.57,6.68,29.95,19.56,38.34,9.93,6.47,16.96,1.69,27.4,10.18,1.46,1.18,19.62,9.32,21.52,21.59.72,4.66-1.57,21.91-16.05,28.49-17.19,7.82-23.42,27.53-30.81,43.48-8.12,17.55.72,42.43,2.34,60.63.25,2.81.44,5.77-.7,8.36-1.5,3.42-4.96,5.46-7.91,7.75-13.31,10.39-17.37,27.48-24.66,41.87-7.66,15.14-21.47,23.17-30.38,37.14-4.27,6.71-6.15,14.29-2.58,23.8,4.52,12.03,7.73,20.98,3.92,29.76-2.68,6.18-8.66,11.85-15.65,13.3-.73.15-1.4.24-2.17.24-2.71,0-6.58-1.16-18.18-4.93-17.64-5.75-18.25-6.17-21.13-6.27-.15,0-.31,0-.47,0-3.66,0-8.5,1.31-23.53,7.84-14.25,6.19-14.37,9.23-24,13.04-4.13,1.64-8.74,2.92-47.48,3.66-19.69.37-22.29.11-27.13,2.6-6.15,3.17-11.4,9.07-21.91,20.87-8.52,9.58-10.09,12.59-15.13,14.09-1.74.52-3.6.77-5.48.77-5.56,0-11.38-2.18-15.39-5.99-5.92-5.62-6.78-13.76-8.35-28.69-1.19-11.35.1-12.92-2.09-16.44-3.43-5.53-10.86-8.46-30.52-9.39-3.27-.15-6.21-.22-8.86-.22-16.83,0-22.39,2.66-30.48,2.66-2.44,0-5.11-.24-8.4-.87-4.06-.78-30.79-5.92-41.47-25.83-4.83-8.99-3.69-15.99-10.96-21.13-4.04-2.86-8.54-3.63-13.61-3.63-2.85,0-5.87.24-9.09.5-16.09,1.3-21.79,6.66-31.85,6.66-1.53,0-3.15-.12-4.93-.4-4.24-.67-12.27-1.93-15.65-7.82-3.85-6.71.45-15.68,5.48-25.83,8.96-18.09,14.78-17.57,19.56-31.31,1.54-4.4,5.5-16.28,1.57-28.95-1.31-4.19-2.36-4.9-8.61-15.65-7.25-12.48-11.29-19.43-12.84-23.56-.2-.54-.35-1.04-.47-1.49-4.12-15.9,4.66-22.41-1.56-36-2.55-5.56-3.97-4.36-8.61-12.52-4.34-7.63-19.95-14.97-19.04-24.06.05-.52.13-1.03.25-1.53,3.13-13.85,28.85-16.78,31.31-32.32,1.45-9.13-3.89-9.85-3.91-24.26-.02-12.53,3.99-22.12,6.26-27.39,2.22-5.17,6.18-14.38,14.87-22.7,12.71-12.17,21.29-8.79,28.17-19.57,4.57-7.14,6.91-18.21,2.35-25.04-3.94-5.91-9.62-3.54-15.65-10.17-5.99-6.59-8.78-18.18-3.91-24.26,3.43-4.3,9.64-4.55,13.3-4.7.34-.01.67-.02,1-.02,10.06,0,12.53,6.4,23.26,7.06,1.55.1,3.61.23,6,.23,7.26,0,17.51-1.18,25.31-8.05,5.42-4.77,2.91-6.36,10.17-14.09,3.82-4.07,11.72-12.27,23.48-14.09.55-.08,1.51-.11,3-.11,1.81,0,4.39.05,7.95.11,7.6.15,11.66.51,15.27.51,2.16,0,4.16-.13,6.65-.51,4.67-.71,8.15-1.28,11.74-3.91,4.16-3.05,6-7.06,7.04-9.39,3.63-8.17.8-11.43,3.13-18.78,2.21-6.97,8.42-15.65,14.78-15.65M240.87,0c-12.04,0-20.57,13.11-23.36,21.93-1.45,4.56-1.47,8.03-1.49,10.82-.02,2.71-.03,4.2-1.29,7.03-.77,1.72-1.83,4.09-4.14,5.79-1.72,1.26-3.4,1.61-7.77,2.27-1.9.29-3.44.41-5.3.41-1.52,0-3.24-.08-5.42-.18-2.49-.11-5.59-.25-9.67-.33-3.64-.07-6.24-.12-8.13-.12-2.08,0-3.29.06-4.31.21-.02,0-.04,0-.06,0-15.06,2.33-24.95,12.86-28.67,16.83-4.31,4.59-5.96,7.61-7.39,10.54-.74,1.51-.89,1.83-2.17,2.95-4.38,3.85-10.89,5.8-19.36,5.8-2.12,0-3.96-.12-5.44-.21-3.38-.21-5.27-1.2-8.12-2.69-3.73-1.95-8.38-4.39-15.7-4.39-.44,0-.9,0-1.36.03-4.55.19-13.98.57-19.97,8.08-8.2,10.24-4.17,26.63,4.29,35.93,4.5,4.95,9.11,6.63,12.16,7.75,2.32.85,2.39.95,2.66,1.36,1.95,2.92.78,10.16-2.44,15.2-2.12,3.32-4.12,4.2-8.51,6.12-4.67,2.05-11.07,4.86-18.31,11.8-10.02,9.59-14.51,20.04-16.92,25.65-2.27,5.28-7.01,16.28-6.99,30.96.01,8.98,1.83,13.88,3.15,17.45.95,2.57,1.21,3.26.87,5.39-.63,4.01-6.21,7.44-12.11,11.08-7.84,4.83-16.72,10.31-19.08,20.61-.2.87-.35,1.78-.44,2.72-1.02,10.2,7.12,17.25,13.67,22.92,2.49,2.16,5.6,4.85,6.51,6.45,2.83,4.98,4.81,7.22,6.26,8.85,1,1.13,1.31,1.47,1.99,2.98,2.12,4.64,1.6,7.69.73,12.74-.95,5.52-2.13,12.38.3,21.76,0,.02.01.04.02.06.21.8.45,1.56.73,2.3,1.83,4.86,5.71,11.54,13.44,24.85l.06.1c2.12,3.65,3.67,6.18,4.8,8.04,2.22,3.63,2.48,4.09,3.01,5.78,3.14,10.11-.33,20.03-1.47,23.29-1.92,5.52-3.79,7.79-6.89,11.54-3.3,4-7.41,8.98-12.24,18.74-5.41,10.92-11.54,23.29-5.22,34.3,5.52,9.62,17.09,11.45,22.03,12.23,2.22.35,4.29.52,6.35.52,6.21,0,11.08-1.56,15.79-3.07,4.63-1.49,9.42-3.02,16.79-3.62h.06c3-.25,5.84-.47,8.3-.47,3.99,0,6.42.57,8.41,1.98,2,1.41,2.53,2.87,3.92,7.27.94,2.98,2.11,6.68,4.31,10.77,11.47,21.38,37.18,28.39,47.7,30.41,3.62.7,6.92,1.03,10.09,1.03,4.01,0,7.4-.52,11-1.08,4.8-.74,10.24-1.58,19.49-1.58,2.63,0,5.47.07,8.44.21,13.74.65,21.58,2.38,23.29,5.14,0,0,.01.02.02.03.05.47.08,1.5.11,2.41.06,2.16.16,5.43.66,10.19,1.67,15.88,2.77,26.37,11.1,34.28,5.57,5.3,13.64,8.46,21.58,8.46,2.8,0,5.51-.39,8.06-1.15,6.48-1.93,9.6-5.55,14.76-11.55,1.29-1.49,2.74-3.19,4.52-5.18l.04-.05c9.73-10.92,14.61-16.4,19.27-18.8,2.27-1.17,3.39-1.26,17.16-1.5,1.81-.03,3.81-.06,6.02-.11,39.89-.76,45.01-2.06,50.63-4.29,5.41-2.14,8.46-4.18,11.41-6.15,2.97-1.99,6.04-4.04,12.85-7,11.45-4.97,17.41-7.09,19.95-7.09.07,0,.14,0,.2,0,.88.03,1.61.25,9.7,2.91,2.36.78,5.27,1.74,8.91,2.92,12.29,4,16.75,5.38,20.97,5.38,1.31,0,2.58-.14,4-.43,9.37-1.94,18.03-9.22,22.07-18.53,5.34-12.31.92-24.06-3.75-36.51-2.19-5.83-1.68-10.41,1.75-15.8,3.49-5.48,8.02-10.08,12.81-14.95,6.47-6.58,13.16-13.38,18-22.96,2.07-4.09,3.87-8.31,5.61-12.4,4.43-10.41,8.61-20.24,16.56-26.43.46-.36.95-.72,1.45-1.08,2.94-2.17,6.97-5.15,9.17-10.15,2.13-4.84,1.69-9.8,1.42-12.77-.49-5.46-1.52-11.17-2.61-17.21-2.44-13.47-5.2-28.75-.53-38.84,1.13-2.44,2.24-4.99,3.32-7.44,5.67-12.97,11.54-26.39,23.05-31.62,19.32-8.78,22.31-30.97,21.22-38.06-2.28-14.74-18.28-23.68-24.3-27.05-.33-.19-.62-.34-.84-.47-7.37-5.85-13.74-6.82-18.87-7.6-3.46-.53-5.96-.91-8.89-2.81-4.07-2.65-5.01-5.57-6.92-12.52-1.74-6.33-3.91-14.2-10.1-23.33-2.73-4.03-5.63-7.39-8.87-10.29-4.53-4.04-9-6.52-13.33-8.92-5.35-2.97-10.39-5.77-16.46-11.84-.53-.53-1.08-1.09-1.66-1.67l-.16-.16c-5.5-5.61-22.29-22.74-19.92-38.18.37-2.43,1.14-4.36,2.3-7.27,1.76-4.43,4.18-10.5,6.26-21.36,2.74-14.3,1.97-21.67-2.84-27.18-4.07-4.65-10.57-7.32-17.84-7.32-4.44,0-8.76.98-12.5,2.83-5.72,2.83-8.13,6.8-9.9,9.69-1.26,2.06-2.09,3.42-4.41,4.98-3.11,2.08-6.97,3.18-11.17,3.18h-.21c-6.25-.04-10.93-3.11-14.69-5.57-5.42-3.56-7.77-6.68-10.26-9.98-2.22-2.94-4.73-6.28-8.95-9.34-5.76-4.19-12.55-6.15-21.34-6.15-5.56,0-11.61.77-18.03,1.58-1.48.19-3,.38-4.56.57-6.54.8-11.64,1.93-20.9,4l-.32.07c-10,2.23-15.1,3.78-18.47,4.81-3.32,1.01-3.92,1.19-6.35,1.24h-.25c-1.47,0-14.71-.23-25.46-8.36-1.57-1.18-4-3.51-8.41-7.75l-.17-.17c-3.78-3.63-6.42-6.37-8.54-8.56C250.8,3.54,247.44.07,241.05,0h-.18Z"/>
  </g>
  <g class="cls-6">
    <path class="cls-13" d="M578.26,269.6c-17.19,7.82-23.42,27.53-30.81,43.48-8.12,17.55.72,42.43,2.34,60.63.25,2.81.44,5.77-.7,8.36-1.5,3.42-4.96,5.46-7.91,7.75-13.31,10.39-17.37,27.48-24.66,41.87-7.66,15.14-21.47,23.17-30.38,37.14-4.27,6.71-6.15,14.29-2.58,23.8,4.52,12.03,7.73,20.98,3.92,29.76-2.68,6.18-8.66,11.85-15.65,13.3-3.31.69-5.47.15-20.35-4.69-17.64-5.75-18.25-6.17-21.13-6.27-3.73-.11-8.32,1.02-24,7.83-14.25,6.19-14.37,9.23-24,13.04-4.13,1.64-8.74,2.92-47.48,3.66-19.69.37-22.29.11-27.13,2.6-6.15,3.17-11.4,9.07-21.91,20.87-8.52,9.58-10.09,12.59-15.13,14.09-6.88,2.06-15.5-.11-20.87-5.22-5.92-5.62-6.78-13.76-8.35-28.69-1.19-11.35.1-12.92-2.09-16.44-3.43-5.53-10.86-8.46-30.52-9.39-30.24-1.42-31.86,4.62-47.74,1.57-4.06-.78-30.79-5.92-41.47-25.83-4.83-8.99-3.69-15.99-10.96-21.13-6.3-4.46-13.74-3.85-22.7-3.13-18.53,1.5-23.28,8.38-36.78,6.26-4.24-.67-12.27-1.93-15.65-7.82-3.85-6.71.45-15.68,5.48-25.83,8.96-18.09,14.78-17.57,19.56-31.31,1.54-4.4,5.5-16.28,1.57-28.95-1.31-4.19-2.36-4.9-8.61-15.65-7.25-12.48-11.29-19.43-12.84-23.56-.2-.54-.35-1.04-.47-1.49-4.12-15.9,4.66-22.41-1.56-36-2.55-5.56-3.97-4.36-8.61-12.52-4.34-7.63-19.95-14.97-19.04-24.06.05-.52.13-1.03.25-1.53,4.91,2.09,9.45,4.47,13.31,6.49,25.38,13.26,32.32,30.88,66.52,69.65,17.31,19.61,25.96,29.42,34.44,36,44.07,34.2,102.33,27.49,144,22.69,0,0,74.61-8.59,130.69-50.87,8.61-6.48,12.72-11.01,15.66-14.87,14.75-19.38,9.1-36.4,19.56-72.78,7.44-25.86,9.75-32.02,12.52-38.35,13.2-30.07,23.25-32.46,32.87-54.78,7.31-16.96,7.7-29.92,7.53-39.9.65.66,1.27,1.29,1.86,1.88,12.13,12.13,21.3,13.22,30.15,21.11,2.48,2.22,4.93,4.96,7.42,8.63,11.91,17.57,6.68,29.95,19.56,38.34,9.93,6.47,16.96,1.69,27.4,10.18,1.46,1.18,19.62,9.32,21.52,21.59.72,4.66-1.57,21.91-16.05,28.49Z"/>
  </g>
  <path class="cls-10" d="M401.14,333.55c-.74,2.18-1.65,4.29-2.68,6.34-4.1,8.16-10.02,15.47-14.29,23.62-6.92,13.21-9.33,28.35-15.62,41.87-9.33,20.02-27.27,35.68-48.1,43.02-20.83,7.34-44.29,6.48-64.85-1.57-15.08-5.91-28.76-15.52-44.56-19.09-19.43-4.39-42.06.21-57.67-12.17-10.89-8.65-14.98-23.42-15.6-37.31-.63-13.89,1.54-27.85.22-41.69-1.41-14.84-6.79-29.1-8.06-43.96-.28-3.3-.28-6.43-.01-9.42,1.52-17.71,12.21-30.2,28.41-39.59,19.2-11.12,40.56-19.42,56.69-35.14,10.69-10.41,20.28-24.65,35.14-26.06,10.9-1.03,21.04,5.51,29.29,12.71s15.97,15.55,26.19,19.51c10.38,4.02,21.91,2.94,33.04,3.08,11.13.15,23.26,2.06,30.78,10.26,3.7,4.03,5.72,8.86,6.99,14.08,2.78,11.48,1.88,24.86,6.98,35.75,3.61,7.7,10.05,13.71,14.3,21.08,5.99,10.37,7.27,23.34,3.41,34.68Z"/>
  <path class="cls-3" d="M292.09,68.93c3.31-2.93,9.37-7.47,20.87-10.96,6.31-1.91,18.57-4.81,34.96-3.13,15.53,1.6,27.94,2.87,32.87,12,3.58,6.62,3.27,17.45-2.61,22.96-9.43,8.83-23.81-4.81-60-6.26-18.9-.76-32.73,2.25-34.43-2.61-1.23-3.51,4.68-8.75,8.35-12Z"/>
  <path class="cls-3" d="M150.31,87.1c-.13-.04-.26-.1-.37-.21-.34-.35-.3-.91-.22-1.39,2.85-16.75,22.62-24.71,37.8-20.89,1.46.37,3.19,1.21,3.15,2.72-.02.7-.45,1.32-.89,1.87-3.3,4.08-8.33,6.7-13.57,7.08-3.53.25-7.13-.47-10.58.33-5.52,1.29-9.36,6.1-13.63,9.83-.47.41-1.16.81-1.7.67Z"/>
  <path class="cls-12" d="M578.26,269.6c-17.19,7.82-23.42,27.53-30.81,43.48-8.12,17.55.72,42.43,2.34,60.63.25,2.81.44,5.77-.7,8.36-1.5,3.42-4.96,5.46-7.91,7.75-13.31,10.39-17.37,27.48-24.66,41.87-7.66,15.14-21.47,23.17-30.38,37.14-4.27,6.71-6.15,14.29-2.58,23.8,4.52,12.03,7.73,20.98,3.92,29.76-2.68,6.18-8.66,11.85-15.65,13.3-3.31.69-5.47.15-20.35-4.69-17.64-5.75-18.25-6.17-21.13-6.27-3.73-.11-8.32,1.02-24,7.83-14.25,6.19-14.37,9.23-24,13.04-4.13,1.64-8.74,2.92-47.48,3.66-19.69.37-22.29.11-27.13,2.6-6.15,3.17-11.4,9.07-21.91,20.87-8.52,9.58-10.09,12.59-15.13,14.09-6.88,2.06-15.5-.11-20.87-5.22-5.92-5.62-6.78-13.76-8.35-28.69-1.19-11.35.1-12.92-2.09-16.44-3.43-5.53-10.86-8.46-30.52-9.39-30.24-1.42-31.86,4.62-47.74,1.57-4.06-.78-30.79-5.92-41.47-25.83-4.83-8.99-3.69-15.99-10.96-21.13-6.3-4.46-13.74-3.85-22.7-3.13-18.53,1.5-23.28,8.38-36.78,6.26-4.24-.67-12.27-1.93-15.65-7.82-3.85-6.71.45-15.68,5.48-25.83,8.96-18.09,14.78-17.57,19.56-31.31,1.54-4.4,5.5-16.28,1.57-28.95-1.31-4.19-2.36-4.9-8.61-15.65-7.25-12.48-11.29-19.43-12.84-23.56,2.15.31,27,13.64,33.97,38.49,6.97,24.86,9.35,47.54,12.52,51.65,6.82,8.84,20.84,10.01,40.42,10.77,18.07.71,18.6,33.39,37.06,41.53,26.72,11.78,69.54-.38,77.97-5.43,6.84-4.09,8.12-13.85,14.37-18.79,4.5-3.55,10.7-3.93,16.42-3.53,13.37.94,26.23,5.27,39.34,8.03,11.35,2.39,24.8,4.15,35.96-.09,9.87-3.75,17.72-8.13,28.81-7.85,8.4.21,15.56,2.15,18.78,3.13,16.63,5.07,20.19,12.75,31.31,12.52,6.43-.13,16.46-2.93,18.78-9.39,3.37-9.38-13.1-16.47-14.09-34.44-.47-8.5,2.78-14.97,6.26-21.91,8.54-17,22.54-25.78,26.61-28.17,18.1-10.63,29.83-6.29,32.87-14.09,2.47-6.34-4.6-10.92-14.09-31.3-7.45-16-11.17-24-9.39-31.31,1.96-8.03,8.09-10.69,39.13-31.3,21.61-14.35,23.83-16.51,25.05-20.35,5.12-16.2-18.65-27.73-25.05-50.09-4.01-14-.92-31.26,6.67-47.43,2.48,2.22,4.93,4.96,7.42,8.63,11.91,17.57,6.68,29.95,19.56,38.34,9.93,6.47,16.96,1.69,27.4,10.18,1.46,1.18,19.62,9.32,21.52,21.59.72,4.66-1.57,21.91-16.05,28.49Z"/>
  <path class="cls-4" d="M401.14,333.55c-.74,2.18-1.65,4.29-2.68,6.34-4.1,8.16-10.02,15.47-14.29,23.62-6.92,13.21-9.33,28.35-15.62,41.87-9.33,20.02-27.27,35.68-48.1,43.02-20.83,7.34-44.29,6.48-64.85-1.57-15.08-5.91-28.76-15.52-44.56-19.09-19.43-4.39-42.06.21-57.67-12.17-10.89-8.65-14.98-23.42-15.6-37.31-.63-13.89,1.54-27.85.22-41.69-1.41-14.84-6.79-29.1-8.06-43.96-.28-3.3-.28-6.43-.01-9.42,8,7.13,15.89,18.45,20.26,26.79,6.34,12.1,8.32,23.72,11.35,41.48,4.79,28.15,10.65,26.49,15.65,33.26,10,13.5,18.2,11.53,55.17,21.52,13.37,3.61,17.83,7.88,35.22,12.91,15.9,4.6,23.85,6.9,33.65,6.26,5.22-.34,29.71-2.65,42.26-20.35,11.54-16.27.42-27.86,13.31-46.56,7.94-11.53,13.52-9.11,21.91-22.7,2.71-4.39,10.88-17.63,9-33.65-1.29-10.97-8.36-11.38-12.13-23.74-3.81-12.44-1.62-28.2.88-36.37,2.78,11.48,1.88,24.86,6.98,35.75,3.61,7.7,10.05,13.71,14.3,21.08,5.99,10.37,7.27,23.34,3.41,34.68Z"/>
  <path class="cls-8" d="M277.48,224.93c-1.17-4.53-4.07-15.7-14.61-20.87-9.08-4.46-21.67-3.41-27.13,3.13-3.02,3.62-1.02,5.52-4.17,18.26-2.89,11.71-5.28,12.9-4.7,18.78.89,9.02,7.34,14.78,8.35,15.65,8.59,7.45,19.01,5.95,20.35,5.74,10.49-1.69,16.03-9.57,17.74-12,8.48-12.06,4.89-25.93,4.17-28.7Z"/>
  <path class="cls-8" d="M175.02,271.63c-1.64-.3-12.14-2.02-20.15,4.89-7.4,6.39-9.45,17.37-6.46,25.24,1.78,4.68,5.16,7.49,11.93,13.11,3.17,2.63,7.79,6.48,13.5,9.2,10.11,4.81,30.42,9.3,39.33-1.37,4.89-5.86,5.63-15.45,2.15-21.91-2.23-4.15-5.02-4.81-12.52-9.59-17.99-11.46-17.84-17.77-27.78-19.57Z"/>
  <path class="cls-8" d="M352.87,245.41c-4.84-3.95-11.88-5.25-18-3.52-11.71,3.31-14.87,16.29-15.26,18-2.64,11.67,4.13,21.37,5.87,23.87,5.4,7.74,9.17,6.18,17.22,16.04,6.14,7.52,5.22,9.99,10.17,13.7,5.05,3.78,14.49,7.55,21.52,3.52,7.46-4.27,9.16-15.56,7.43-23.48-2.75-12.65-13.13-11.61-20.35-27.78-4.55-10.19-2.59-15.44-8.61-20.35Z"/>
  <path class="cls-8" d="M337.83,318.27c-1.63-1.49-16.04-14.28-33.91-9.91-2.08.51-12.52,3.3-19.3,13.04-4.36,6.26-5.19,12.59-5.74,16.7-.99,7.35.06,13.31,1.04,18.65,1.74,9.48,3.48,9.53,3.91,16.04.58,8.69-2.41,10.07-1.96,17.61.11,1.89.79,13.23,9,19.57,8.04,6.21,20.07,4.65,27.78.78,7.71-3.87,13.07-14.11,23.48-34.43,4.71-9.2,7.08-13.87,7.83-17.61.4-1.97,4.62-25.09-12.13-40.43Z"/>
  <path class="cls-8" d="M196.97,342.02c-8.12-1.23-15.37,5.99-17.61,8.22-2.33,2.32-8.31,8.28-8.22,16.83.14,13.3,14.85,20.74,15.65,21.13,3.92,1.91,4.2.81,9.39,3.13,8.61,3.84,9.22,7.47,16.04,10.96,2.27,1.16,10.59,5.4,19.96,2.74,2.22-.63,10.5-3.35,14.09-11.35,3.04-6.78.86-13.2-1.17-19.17-1.57-4.61-5.75-16.9-15.65-19.96-5.81-1.79-7.17,1.57-13.7,0-10.05-2.42-10.44-11.26-18.78-12.52Z"/>
  <path class="cls-3" d="M48.63,212.52c-2.07-1.39,3.4-14.56,11.35-25.24,4.64-6.23,12.97-17.11,25.04-18,1.1-.08,7.6-.56,9,2.35,1.88,3.9-6.53,11.54-9.98,14.67-6.99,6.36-10.05,6.62-18.98,13.11-11.41,8.29-14.99,14.08-16.43,13.11Z"/>
  <path class="cls-2" d="M404.91,115.5c-1.14-.82-6.76-4.85-12.13-2.35-3.63,1.69-6.55,6.09-5.48,9,.77,2.09,3.12,2.12,11.35,4.7,9.79,3.07,11.71,4.66,12.91,3.52,2.19-2.07-.66-10.58-6.65-14.87Z"/>
  <path class="cls-2" d="M271.67,137.61c-.69-.01-7.13-.06-9,3.91-1.85,3.95,2.21,8.87,4.7,10.96,1.35,1.13,4.96,4.16,9.2,2.93,3.08-.89,5.69-3.81,5.87-6.85.08-1.4-.37-2.47-.98-3.91-.56-1.34-1.53-3.63-3.91-5.28-2.4-1.66-4.88-1.74-5.87-1.76Z"/>
  <path class="cls-2" d="M251.91,90.59c-1.93-3.09-7.77-3.27-11.74-1.83-1.08.39-7.28,2.82-7.83,8.61-.53,5.67,4.87,9.17,5.22,9.39,3.66,2.29,9.17,2.67,11.74,0,.51-.53.87-1.15,1.83-6.52,1-5.66,1.49-8.52.78-9.65Z"/>
  <path class="cls-2" d="M163.48,147.98c-6.05-1.33-11.81,4.11-14.09,6.26-1.07,1.02-13.09,12.67-7.83,22.7,3.57,6.81,13.12,9.07,20.35,7.04.99-.28,7.61-2.24,10.96-8.61,5.29-10.07-.63-25.46-9.39-27.39Z"/>
  <path class="cls-2" d="M114.7,115.63c-5.31.46-10.01,5.73-9.13,11.22.64,3.99,4.14,7.47,8.35,7.83,4.79.4,7.9-3.47,8.61-4.43.5-.68,3.38-4.58,1.83-8.87-1.43-3.95-5.85-6.07-9.65-5.74Z"/>
  <path class="cls-2" d="M75.83,234.06c-4.29-.89-8.62,5.67-9,6.26-.39.61-4.5,7.23-1.57,14.48,2.28,5.63,8.55,10.96,13.3,9.39,3.35-1.1,4.73-5.2,5.09-6.26,1.24-3.68.33-6.82-1.17-11.74-2.21-7.22-3.51-11.48-6.65-12.13Z"/>
  <path class="cls-2" d="M142.35,219.98c-3.92-1.09-10.13,4.44-9.39,9.78.37,2.69,2.57,5.79,5.87,6.26,2.85.41,5.39-1.32,6.65-3.13,3-4.31.69-11.85-3.13-12.91Z"/>
  <path class="cls-2" d="M392,165.19c-7.41,1.21-15.39,7.22-16.43,15.65-1.17,9.41,7,16.05,9.39,18,2.34,1.9,10.97,8.93,20.35,5.48,8.02-2.95,12.27-11.96,11.74-19.57-.82-11.89-13.4-21.46-25.04-19.57Z"/>
  <path class="cls-2" d="M468.96,156.06c-3.7-1.47-9.83,2.72-10.96,7.83-1.59,7.2,7.09,14.75,10.96,13.57,3.1-.95,3.54-7.63,3.65-9.39.1-1.47.67-10.28-3.65-12Z"/>
  <path class="cls-2" d="M482.39,232.5c-4.33-.35-10.25,1.77-11.35,5.87-1.01,3.77,2.5,7.52,3.52,8.61,6.51,6.95,19.62,8.53,22.3,4.3,2.88-4.54-4.86-18.01-14.48-18.78Z"/>
  <path class="cls-2" d="M116.26,317.8c-3.98-.95-10.58,6.14-10.96,13.57-.41,8,6.41,15.94,10.43,15.13,4.12-.82,5.08-10.74,5.22-12.52.45-5.65-.57-15.19-4.7-16.17Z"/>
  <path class="cls-2" d="M57.83,299.54c-4.9.57-8.5,7.64-8.35,13.57.11,4.22,2.2,10.8,7.3,12,5.44,1.28,11.37-4.24,12.52-9.91,1.57-7.73-5.64-16.33-11.48-15.65Z"/>
  <path class="cls-2" d="M99.04,385.63c-4.65,1.15-7.11,8.22-6.78,13.57.22,3.58,1.92,10.04,6.78,11.48,5.56,1.65,12.65-4.06,13.57-10.43,1.15-8.06-7.73-16.05-13.57-14.61Z"/>
  <path class="cls-2" d="M184.35,447.98c-2.6-1.78-6.39-.91-8.61,1.04-3.04,2.68-2.51,6.82-2.35,8.09.1.82.74,5.75,3.91,6.78,3.21,1.05,7.16-2.49,8.61-6,1.12-2.71,1.68-7.69-1.57-9.91Z"/>
  <path class="cls-2" d="M373.74,435.72c-3.29-.14-7.39,1.68-8.09,4.96-.95,4.47,5.22,7.81,5.74,8.09.96.5,5.6,2.94,8.61.52,2.31-1.86,2.22-5.42,1.57-7.57-1.03-3.35-4.25-5.85-7.83-6Z"/>
  <path class="cls-2" d="M417.3,377.54c-4.39-1.82-10.72-.42-13.04,4.17-2.42,4.77,1.08,9.87,1.83,10.96,1.5,2.19,4.76,5.5,7.04,4.7,2.02-.71,1.03-3.85,3.91-7.3,2.69-3.22,5.43-2.75,6-4.96.67-2.61-2.42-6.19-5.74-7.57Z"/>
  <path class="cls-2" d="M442.09,284.15c-7.73-3.67-22.08,4.53-22.7,15.65-.56,10.2,10.59,19.97,18.78,18,7.96-1.92,10.06-14.17,10.17-14.87.98-6.2-.23-15.92-6.26-18.78Z"/>
  <path class="cls-2" d="M328.61,101.02c-5.79.23-12.36,7.14-10.96,14.87,1.29,7.11,8.7,11.44,14.87,10.17,3.3-.68,6.49-3.01,7.83-6.26,3.09-7.5-4-19.09-11.74-18.78Z"/>
  <path class="cls-2" d="M450.5,70.69c-2.77-.33-5.16,1.59-6.26,3.52-1.76,3.09-.53,6.72,1.17,8.8.26.32,3.07,3.65,6.26,2.93,3.46-.77,5.26-5.82,4.3-9.59-.06-.23-1.39-5.19-5.48-5.67Z"/>
  <path class="cls-2" d="M359.13,38.28c-.46-1.64-5.34-2.65-8.74-.65-.36.21-3.9,2.35-3.26,5.09.48,2.04,3.03,3.3,4.96,3,.38-.06,1.11-.24,4.04-3.39,2.12-2.28,3.17-3.43,3-4.04Z"/>
  <path class="cls-2" d="M250.35,38.41c-2.42-.52-5.08.76-6.52,2.61-2.88,3.69-.56,9.22,1.83,12,.39.45,3.98,4.54,7.04,3.39,2.5-.94,2.97-4.75,3.13-6,.54-4.32-1-11.03-5.48-12Z"/>
  <path class="cls-2" d="M182.52,88.76c-5.82-.51-11.61,6.2-10.43,12.52.9,4.82,5.78,9.11,10.96,8.35,4.2-.62,7.07-4.35,7.83-7.83,1.25-5.74-2.85-12.56-8.35-13.04Z"/>
  <path class="cls-2" d="M325.48,187.89c-3.41.33-7.16,2.55-8.35,6.26-1.64,5.15,2.22,11.46,7.83,12.52,6.03,1.14,12.3-4.14,12-9.91-.28-5.38-6.15-9.38-11.48-8.87Z"/>
  <path class="cls-7" d="M80,454.76c-1.71-1.77-7.73-.41-10.17,3.65-1.46,2.43-1.85,6.18.26,8.87,1.33,1.69,3.95,3.35,6,2.61,1.91-.69,2.49-3.59,3.65-9.39.97-4.87.48-5.51.26-5.74Z"/>
  <path class="cls-7" d="M153.04,500.15c-3.57-2.26-9.16-.59-10.17,2.35-1.06,3.06,3.02,6.95,6.52,8.35,1.05.42,3.82,1.53,5.48.26,2.41-1.84,2.14-8.45-1.83-10.96Z"/>
  <path class="cls-7" d="M273.83,479.8c-3.46-1.63-9.46,1.64-11.74,6.52-2.1,4.48-1.11,10.44,2.61,13.3,1.89,1.45,5.25,2.7,7.83,1.3.83-.45,2.1-1.46,3.13-4.96,1.25-4.22,2.72-14.04-1.83-16.17Z"/>
  <path class="cls-7" d="M329.91,528.85c-1.67-4.95-11.15-5.88-17.22-4.96-1.32.2-13.57,2.07-14.61,9.39-.53,3.72,1.99,7.69,5.22,9.65,4.12,2.51,8.55,1.22,9.13,1.04,3.94-1.21,3.87-3.75,8.61-5.48,3.31-1.2,4.43-.36,6.26-1.83,2.18-1.74,3.48-5.25,2.61-7.83Z"/>
  <path class="cls-7" d="M408.96,492.06c-2.06-4.78-14.99-6.3-19.57-.26-1.73,2.29-2.5,5.95-1.04,9.13,1.63,3.57,5.51,5.36,8.87,5.22,3.54-.16,5.83-2.44,7.3-3.91.33-.33,6.13-6.23,4.43-10.17Z"/>
  <path class="cls-7" d="M487.74,434.93c-3.71-3.61-11.13-2.82-15.39,1.04-.22.2-5.5,5.14-3.65,10.96,1.43,4.48,6.51,7.64,9.13,6.52,2.2-.94.98-4.17,3.91-7.04,3.11-3.06,6.73-1.62,8.09-4.17,1.14-2.17-.23-5.5-2.09-7.3Z"/>
  <path class="cls-7" d="M494.78,307.11c-2.49.94-6.09,3.33-6.52,6.78-.31,2.44,1.19,4.41,4.17,8.35,3.16,4.16,4.74,6.24,7.3,6.78,4.62.98,8.79-3.09,10.17-4.43,1.62-1.58,4.67-4.56,4.43-8.09-.44-6.47-11.79-12.31-19.57-9.39Z"/>
  <path class="cls-7" d="M491.78,394.11c-4.56-1.99-11.1.33-12.91,5.09-1.61,4.23,1.31,8.27,1.57,8.61,3.47,4.64,11.25,6.13,14.87,2.74,4.12-3.86,2.58-13.78-3.52-16.43Z"/>
  <path class="cls-7" d="M551.65,218.61c-3.97-1.7-5.95-2.56-7.63-1.76-2.19,1.04-3.59,4.13-2.74,5.48,1.03,1.63,4.43-.7,8.8,1.37,2.13,1.01,2.9,2.3,4.3,1.96,1.39-.34,2.57-2.09,2.35-3.52-.22-1.41-1.85-2.13-5.09-3.52Z"/>
  <path class="cls-7" d="M576.11,234.46c-1.62-.55-3.86,1.8-4.89,3.52-.44.74-2.26,3.77-.78,6.65.17.33,1.45,2.72,4.11,2.93,1.97.16,3.97-.93,4.7-2.54.24-.54.37-1.19-.98-5.67-1.32-4.41-1.74-4.75-2.15-4.89Z"/>
  <path class="cls-7" d="M227.26,506.8c-5.38.81-10.45,6.1-9.39,9.39,1.02,3.18,7.86,4.79,12.52,2.35,3.33-1.75,6.44-6.03,5.09-9-1.22-2.69-5.57-3.14-8.22-2.74Z"/>
  <path class="cls-11" d="M236.26,212.74c-.55-1.02,3.04-4.21,6.46-6.07,2.4-1.3,5.79-3.13,9-1.76,2.01.86,3.97,2.98,3.52,4.3-.46,1.37-3.15.97-9.39,1.96-6.57,1.04-9.15,2.37-9.59,1.57Z"/>
  <path class="cls-11" d="M339.83,244.76c-2.1-1.68-6.4.84-8.48,2.61-4.57,3.88-5.91,10.45-4.7,11.22.99.62,2.76-3.17,8.35-5.09,2.47-.85,3.73-.66,4.83-1.96,1.59-1.89,1.64-5.47,0-6.78Z"/>
  <path class="cls-11" d="M173.46,273.78c-.1-.67-3.48-1.06-6.46,0-.45.16-3.08,1.1-3,2.22.05.64.99,1.23,1.83,1.3.95.09,1.68-.47,2.22-.85,3.12-2.18,5.5-2.11,5.41-2.67Z"/>
  <path class="cls-11" d="M157.09,278.28c-.63-.28-1.68.83-2.87,2.09-1.64,1.74-2.82,2.99-2.41,4.17.32.91,1.49,1.53,2.48,1.43,1.68-.16,2.45-2.36,2.8-3.39.55-1.59.79-3.95,0-4.3Z"/>
  <path class="cls-11" d="M287.78,324.72c-.84-1.05,1.77-5.25,5.35-7.83,1.49-1.07,4.4-1.9,10.17-3.52,5.73-1.61,7.16-1.8,8.35-.91,1.47,1.09,2.15,3.53,1.3,4.83-.91,1.4-3.01.55-6.91,1.17-2.71.43-2.79,1.01-9.78,3.78-5.3,2.1-7.95,3.13-8.48,2.48Z"/>
  <path class="cls-11" d="M186.27,348.18c-.16-.92,3.32-2.5,6.46-3.03,1.29-.22,3.43-.56,5.87.29,1.18.41,3.7,1.29,3.91,3.13.11.94-.38,2.16-1.27,2.54-1.37.6-2.25-1.38-5.09-2.05-2.53-.6-3.43.6-7.34,0-1.31-.2-2.45-.38-2.54-.88Z"/>
  <path class="cls-11" d="M181.38,351.71c-.19-.13-.85.66-3.13,3.23-3.16,3.54-3.61,3.94-4.11,5.09-.94,2.15-1.21,4.99-.39,5.38.86.41,3.03-1.83,4.21-4.11.69-1.35.51-1.69,1.37-4.21,1.18-3.47,2.33-5.2,2.05-5.38Z"/>
  <path class="cls-5" d="M465.25,166.67c-16.09,50.6-71.92,56.51-95.79,61.29-79.35,15.88-113.82-38.76-148.85-14.97-13.95,9.48-45.74,28.15-95.8,52.9-14.64,7.24-37.69,60.88-47.68,69.66-8.02,7.05-9.86,30-18.52,23.73-2.05-1.48-3.61-3.25-4.87-5.35-2.68-4.45-4.03-10.41-5.82-18.39-4.01-17.78.5-21.49-4.7-31.82-5.08-10.1-21.52-14.06-21.52-21.61-.01-16.74,16.9-19.91,21.85-28.29,7.79-13.2-2.17-16.27-1.37-33.99,1.3-28.49,8.02-38.07,17.21-45.52,9.78-7.9,19.71-2.96,31.83-14.86,7.18-7.05,8.36-13.36,8.61-14.87,1.53-9.43-3.48-17.09-3.91-17.74-3.26-4.84-16.16-9.44-20.09-15.46-2.41-3.7-.57-9.38.98-13.13,1.68-4.05,8.61-5.77,12.72-5.5,4.68.3,10.6,9.44,15.78,11.39,5.66,2.13,10.45,1.52,18.26.52,4.87-.62,6.18-3.86,13.11-7.76,17.43-9.8,5.09-22.5,31.89-33.85,4.52-1.91,3.24-4.85,38.74-1.95,8.02.66,12.22,1.6,16.04-1.7,5.38-4.65,3.35-11.18,8.96-19.3,3.64-5.27,5.22-17.26,12.3-17.22,9.09.04,18.02,20.1,27.65,25.7,8.91,5.17,15.38,2.58,48.53-2.35,44.22-6.58,50.93-4.68,56.34-1.31,6.87,4.28,8.56,9.01,21.4,17.22,8.81,5.64,14.54,4.41,19.3,9.91,2.77,3.2,26.05-6.04,32.67-1.37,8.22,5.81-1.51,25.6-.69,27.57,4.08,9.75,14.34,18.4,18.05,33.7,2.14,8.85,2.09,19.92-2.61,34.71Z"/>
</svg>