<?xml version="1.0" encoding="UTF-8"?>
<svg id="Capa_2" xmlns="http://www.w3.org/2000/svg" viewBox="0 0 405.3633 405.3706">
  <defs>
    <style>
      .cls-1 {
        fill: #44911c;
      }

      .cls-2 {
        fill: #639648;
      }

      .cls-3 {
        fill: #367710;
      }

      .cls-4 {
        fill: #57a529;
      }

      .cls-5 {
        fill: #acd696;
      }

      .cls-6 {
        fill: #94c67d;
      }

      .cls-7 {
        fill: #70a856;
      }

      .cls-8 {
        fill: #7bb662;
      }
    </style>
  </defs>
  <g id="Capa_1-2" data-name="Capa_1">
    <g>
      <g>
        <path class="cls-8" d="M399.5449,202.6816c0,25.0389-11.9278,47.8564-20.4508,69.8825-9.9822,25.8085-17.9897,50.107-37.2063,69.3236-14.6938,14.6938-41.0323,24.6035-59.7552,34.0847-26.6797,13.4959-47.5152,23.5797-79.451,23.5797-25.2495,0-45.7076-9.6119-67.8934-18.2801-22.1859-8.6609-46.0996-16.3707-63.523-32.0011-.4937-.4428-.9873-.9002-1.4664-1.3648-9.1836-8.7481-15.6448-19.8264-21.322-31.5219-4.9148-10.0911-9.2417-20.6468-14.2509-30.5637-13.4669-26.6433-28.4075-51.2395-28.4075-83.1389,0-21.3147,8.6899-34.7453,14.9624-53.9691,6.8387-20.9953,11.8117-47.537,24.8575-64.7645,15.7102-20.7484,37.3878-32.2915,59.9802-45.4607,29.0899-16.9588,60.9676-32.669,97.0632-32.669,26.0553,0,49.1124,10.5993,71.8718,19.7902,24.7268,9.9895,48.7857,19.3182,67.3344,37.867,13.3725,13.3798,21.2203,31.1517,28.9012,48.8873,1.873,4.3123,3.7315,8.6246,5.6553,12.8643.2033.4428.3993.8857.6026,1.3213,11.0712,24.3057,22.498,47.6604,22.498,76.1332Z"/>
        <path class="cls-5" d="M202.6816,5.8184c26.0554,0,49.1124,10.5992,71.8718,19.7902,24.7268,9.9895,48.7857,19.3182,67.3344,37.8669,13.3725,13.3798,21.2203,31.1517,28.9012,48.8873,1.873,4.3124,3.7315,8.6246,5.6553,12.8644.2033.4427.3993.8856.6025,1.3213,11.0712,24.3057,22.4981,47.6604,22.4981,76.1332,0,25.0389-11.9279,47.8564-20.4508,69.8826-9.9822,25.8085-17.9897,50.1069-37.2064,69.3236-14.6938,14.6937-41.0322,24.6034-59.7552,34.0846-26.6797,13.496-47.5153,23.5798-79.451,23.5798-25.2495,0-45.7075-9.6119-67.8934-18.2802-22.1859-8.6609-46.0996-16.3708-63.5231-32.0011-.4937-.4429-.9873-.9003-1.4664-1.3649-9.1837-8.748-15.6448-19.8264-21.322-31.5219-4.9149-10.0911-9.2417-20.6469-14.2509-30.5637-13.4669-26.6433-28.4075-51.2395-28.4075-83.1389,0-21.3147,8.6899-34.7452,14.9623-53.9691,6.8387-20.9954,11.8116-47.537,24.8575-64.7645,15.7101-20.7484,37.3878-32.2914,59.9802-45.4607,29.0899-16.9587,60.9676-32.6689,97.0632-32.6689M202.6816,0c-37.4367,0-70.183,16.0819-99.9936,33.4607-1.7958,1.0468-3.5861,2.0834-5.368,3.1152-21.1642,12.2549-41.1546,23.8302-56.3205,43.8597-10.5292,13.9042-15.8577,32.5521-21.0108,50.5859-1.5992,5.5966-3.1097,10.8828-4.7403,15.8889-1.732,5.3082-3.6859,10.2396-5.5753,15.0088-4.9745,12.5558-9.6732,24.4153-9.6732,40.7623,0,29.5131,12.3066,53.3274,24.2081,76.3577,1.5891,3.075,3.2322,6.2546,4.8251,9.4059,2.6914,5.3284,5.2536,11.0046,7.7315,16.494,2.0781,4.6038,4.2269,9.3643,6.4813,13.9928,4.9207,10.1373,11.9303,23.074,22.522,33.1702.4993.4836,1.0414.9882,1.6119,1.4999,15.8925,14.2568,36.4559,22.0845,56.3423,29.6544,2.9492,1.1227,5.9988,2.2836,8.9502,3.4357,2.7323,1.0675,5.4885,2.1697,8.1541,3.2355,18.9874,7.5923,38.6213,15.443,61.8552,15.443,34.2247,0,56.4003-11.2175,82.0773-24.2063,4.3079-2.1814,9.019-4.3826,14.0068-6.7129,16.5284-7.7225,35.2622-16.4753,47.2363-28.4493,18.248-18.2482,26.7214-40.4548,35.6924-63.9655.9317-2.4418,1.8699-4.9006,2.8264-7.3735,1.6223-4.1924,3.3412-8.345,5.1611-12.7413,7.7095-18.6244,15.6815-37.8831,15.6815-59.2401,0-28.1936-10.7876-51.7853-21.22-74.6001-.6003-1.3129-1.2014-2.6274-1.8015-3.9449l-.011-.0239-.0112-.024c-.1099-.2355-.2173-.4734-.3254-.7122l-.2625-.5774c-1.6431-3.6212-3.2866-7.4089-4.876-11.072l-.7301-1.6821c-7.3577-16.9894-15.6998-36.252-30.1226-50.6826-18.7744-18.7744-42.1129-28.1909-66.8218-38.1603l-2.4485-.9884c-2.2252-.8984-4.4523-1.8103-6.6848-2.7242C249.0444,8.8911,227.3256,0,202.6816,0h0Z"/>
      </g>
      <path class="cls-7" d="M399.5449,202.6816c0,25.0389-11.9278,47.8564-20.4508,69.8825-9.9822,25.8085-17.9897,50.107-37.2063,69.3236-14.6938,14.6938-41.0323,24.6035-59.7552,34.0847-26.6797,13.4959-47.5152,23.5797-79.451,23.5797-25.2495,0-45.7076-9.6119-67.8934-18.2801-22.1859-8.6609-46.0996-16.3707-63.523-32.0011-9.9749-8.9513-16.8136-20.5814-22.7884-32.8867,12.8498,7.4485,30.3894,15.9134,53.3593,16.0295,12.8716.0653,18.1349-2.5482,35.7907-1.1397,21.6777,1.735,27.5653,6.7661,46.5932,10.229,11.8334,2.1561,37.7508,6.875,65.0476-2.8386,25.5907-9.1038,40.6112-26.6942,48.8655-36.3642,16.4507-19.2675,27.9357-33.347,35.5149-53.217,4.7915-12.5522-.6752-16.956,7.9494-43.0839,10.2436-31.0501,9.1076-54.274,14.5814-71.4942,3.0781-9.6918-.1894-27.4524,14.6101-22.1423,1.873,4.3123,3.7315,8.6246,5.6553,12.8643,11.2526,24.7776,23.1006,48.4663,23.1006,77.4545Z"/>
      <path class="cls-6" d="M320.0062,55.7208c-13.4978-9.4489-21.8773-9.7398-44.3162-17.0447-34.5075-11.2338-32.1231-21.4828-51.7022-25.7154-28.0845-6.0712-47.5233-3.9708-72.9483,9.0968-15.1823,7.8032-24.7975,13.8262-58.864,33.6633-28.5656,16.6339-33.6949,21.9102-37.4983,26.7033-12.7946,16.1242-17.8675,35.9598-21.0218,48.2933-3.2388,12.6642-1.1595,13.3951-4.5453,24.9989-5.0899,17.4441-10.5717,21.4475-13.6357,36.1726-2.4942,11.9864-1.4253,21.653-.7575,27.2715.1952,1.6425,2.6797,22.5996,16.2871,42.8011,4.3419,6.4459,7.736,9.7294,11.7419,9.6586,3.8873-.0687,7.5658-3.2823,9.0905-6.8178,2.4232-5.6189-.676-11.8596-1.7045-14.2039-3.9672-9.0425-1.1297-22.8837,4.5452-50.5659,4.7352-23.0978,7.1027-34.6468,13.6357-49.9977,6.2485-14.6826,17.2104-39.6423,42.6117-60.2246,11.4046-9.2409,25.7843-20.8926,46.5888-23.2944,5.4383-.6278,17.8295-6.8581,44.1268-3.7882,25.6951,2.9997,28.4486,11.5429,36.5514,11.1742,19.702-.8964,20.3932-6.064,38.0665-6.2497,11.1362-.117,25.4346-.2673,39.2028,7.9542,11.1508,6.6585,18.8947,16.9815,24.4307,14.2039,1.9286-.9676,2.6524-3.0552,2.8408-3.5983,3.1132-8.9781-12.1473-23.0855-22.7262-30.4911Z"/>
      <g>
        <path class="cls-1" d="M338.3585,240.1555c-3.7431,24.8853-16.2809,47.8753-32.7125,66.9477-14.4569,16.7885-32.4904,31.1343-53.6009,37.8909-24.1478,7.732-50.6984,4.9882-74.7194-3.1245-30.9203-10.4362-58.9539-29.8576-78.5338-55.9722-20.0478-26.7489-30.6427-60.4844-29.5483-93.8075.2855-8.8502,1.3957-17.6608,3.3704-26.3128,11.4514-50.1592,54.624-97.1859,106.1392-100.9528,10.1746-.7375,20.6743.2062,31.3168,3.1404,19.683,5.4402,37.5579,16.1065,53.9182,28.335,10.0318,7.4941,19.6433,15.6861,28.446,24.6077,11.1341,11.2769,20.9994,23.7354,28.8425,37.4945,14.0525,24.6395,21.3087,53.704,17.0819,81.7535Z"/>
        <path class="cls-3" d="M338.3585,240.1555c-3.7431,24.8853-16.2809,47.8753-32.7125,66.9477-14.4569,16.7885-32.4904,31.1343-53.6009,37.8909-24.1478,7.732-50.6984,4.9882-74.7194-3.1245-30.9203-10.4362-58.9539-29.8576-78.5338-55.9722-20.0478-26.7489-30.6427-60.4844-29.5483-93.8075,2.8152,7.2563,6.7883,19.5562,13.7274,31.5784,15.2658,26.4556,38.1448,39.8895,45.0997,43.8626,29.9052,17.0899,58.5257,16.5505,71.579,16.1382,17.1374-.5472,45.1393-1.4353,71.1666-21.5149,22.9027-17.6767,31.9988-40.7459,35.1709-50.4843,6.3998-19.6355,5.2816-35.9323,4.9644-39.715-1.7129-20.6346-10.1667-37.9861-18.5172-51.0474,11.1341,11.2769,20.9994,23.7354,28.8425,37.4945,14.0525,24.6395,21.3087,53.704,17.0819,81.7535Z"/>
        <path class="cls-4" d="M198.5147,71.5774c-1.3088-2.0345-4.2042-2.9965-6.7504-3.413-28.9744-4.7388-58.138,13.0257-74.6823,35.8238-.1623.2236-.3236.448-.4838.673-4.328,6.079-8.005,12.9343-8.5871,20.3738-.0749.9576.1013,2.2007,1.0357,2.4234.4591.1094.9289-.0943,1.3546-.2983,13.4686-6.4536,24.3703-18.0598,38.7023-22.2608,8.4796-2.4855,17.5018-2.1602,26.2414-3.4639,4.8548-.7243,9.7979-2.0354,13.6222-5.1125,5.7562-4.6317,7.9228-12.2932,9.7722-19.4463.323-1.2493.6478-2.5527.3839-3.8157-.1147-.5488-.3242-1.0415-.6086-1.4836Z"/>
        <path class="cls-4" d="M95.7786,132.7741c-.4629-.1244-.9459-.1645-1.4413-.0982-2.9619.3967-5.2963,4.6593-6.5826,6.9933-6.1881,11.2288-8.8329,23.9982-11.9097,36.4445-.8537,3.4532-1.7532,7.0058-1.2497,10.5272s2.7842,7.0467,6.2472,7.8599c2.8565.6708,5.9161-.6653,7.917-2.8115,2.0794-2.2304,3.1745-5.2123,3.7925-8.1985,1.2793-6.182.7203-12.6014,1.5897-18.8542.8551-6.15,3.0709-12.0126,4.9591-17.9277.9071-2.8416,1.7485-5.8583,1.1041-8.7707-.45-2.0336-2.2072-4.5677-4.4262-5.1642Z"/>
      </g>
      <path class="cls-2" d="M399.5449,202.6816c0,25.0389-11.9278,47.8564-20.4508,69.8825-9.9822,25.8085-17.9897,50.107-37.2063,69.3236-14.6938,14.6938-41.0323,24.6035-59.7552,34.0847-26.6797,13.4959-47.5152,23.5797-79.451,23.5797-25.2495,0-45.7076-9.6119-67.8934-18.2801-22.1859-8.6609-46.0996-16.3707-63.523-32.0011-.4937-.4428-.9873-.9002-1.4664-1.3648,3.8694,1.2923,7.9204,2.57,12.1529,3.8259,4.8568,1.4374,14.9551,4.3268,30.1063,9.0893,17.9026,5.6263,25.6795-.8472,37.7743,3.0295,32.1027,10.2799,45.4113,16.9333,58.0579,16.2871,16.9878-.8711,28.9488-.2016,42.2342-6.8154,24.4727-12.1965,17.6359-20.7801,44.5043-34.8494,18.948-9.9169,30.0318-7.7074,40.1519-17.9945,10.1927-10.3597,15.4996-23.0134,18.1785-29.54,4.2615-10.3888,5.1617-16.9516,7.3832-26.7015,8.9295-39.1955,10.8518-40.4006,13.8283-68.024,1.2124-11.1655-3.3632-20.862-4.924-39.1712-1.1325-13.2346,9.0346-23.1176,7.8005-30.4936,11.0712,24.3057,22.498,47.6604,22.498,76.1332Z"/>
      <path class="cls-5" d="M219.632,13.772c-.6028-1.9168-4.5718-2.3804-14.1092-2.6514-9.0224-.2564-13.5336-.3846-16.0978-.0947-7.8977.8929-13.5885,2.9921-19.9802,5.3975-7.1458,2.6892-14.2159,6.1034-14.0145,6.6285.0884.2306,1.5772-.0999,18.4651-4.924,8.7449-2.498,10.5324-3.0341,13.9198-3.2196,4.8103-.2634,9.9796.3371,12.7835.6628,3.0919.3592,6.2101.5263,9.2799,1.0416.2319.0389,1.8591.1522,5.1134.3788,2.0114.14,3.0325.1964,3.7877-.4735.7265-.6444,1.1257-1.8766.8522-2.7461Z"/>
      <path class="cls-5" d="M84.9316,61.6865c-3.2251,1.9862-3.7888,2.7482-6.3918,4.4032-2.4692,1.5699-2.536,1.2492-6.6758,3.551-1.6986.9444-6.741,3.748-6.5338,4.1901.1329.2835,2.5743-.6159,7.4571-2.4146,4.5087-1.6609,5.9506-2.3458,7.5281-3.409,1.0546-.7107,1.8867-1.4444,3.551-2.9118.9445-.8328,5.9039-5.2054,5.5395-5.6815-.2511-.3282-2.933,1.3235-4.4742,2.2726Z"/>
      <path class="cls-5" d="M43.8113,103.517c1.7157-4.6566,3.6798-7.9733,5.5395-11.0791.5178-.8647,2.9146-4.8337,6.7469-9.6586,1.2817-1.6137,4.9163-6.1897,5.4685-5.8236.544.3607-2.1669,5.3432-2.6987,6.3207-1.6604,3.0518-3.0002,4.9255-4.5452,7.244,0,0-2.3945,3.5932-5.5395,8.9485-4.9648,8.4541-6.7235,13.684-7.244,13.4937-.497-.1817.6747-5.1087,2.2726-9.4456Z"/>
      <path class="cls-5" d="M28.0736,169.3773c-.4717.2814-.9479.6589-1.2825.9977-1.4422,1.4604-2.513,3.2607-3.4748,5.0595-5.6512,10.5686-8.2669,22.7385-7.4574,34.6958.8109,11.9783,4.9433,23.4654,9.4562,34.5907.7038,1.735,2.0534,3.8143,3.8688,3.356,1.0175-.2569,1.6781-1.3148,1.7723-2.36s-.2663-2.0759-.6865-3.0376c-1.1025-2.5232-2.6441-4.8262-3.9529-7.2488-5.3051-9.8205-6.6348-21.425-5.4728-32.5262,1.162-11.1012,4.6801-21.8157,8.6154-32.2609.7737-2.054-.2937-1.9178-1.3858-1.2662Z"/>
    </g>
  </g>
</svg>