<?xml version="1.0" encoding="UTF-8"?>
<svg id="Capa_2" xmlns="http://www.w3.org/2000/svg" viewBox="0 0 558.3691 558.3792">
  <defs>
    <style>
      .cls-1 {
        fill: #ffdaa9;
      }

      .cls-2 {
        fill: #f9bd5d;
      }

      .cls-3 {
        fill: #ffcb80;
      }

      .cls-4 {
        fill: #eaa94b;
      }

      .cls-5 {
        fill: #d1831c;
      }

      .cls-6 {
        fill: #ffb357;
      }

      .cls-7 {
        fill: #e09528;
      }
    </style>
  </defs>
  <g id="Capa_1-2" data-name="Capa_1">
    <g>
      <g>
        <path class="cls-2" d="M550.3545,279.1846c0,34.4899-16.43,65.92-28.17,96.2599-13.75,35.55-24.78,69.02-51.25,95.49-20.24,20.24-56.52,33.8901-82.31,46.9501-36.75,18.59-65.45,32.48-109.44,32.48-34.78,0-62.96-13.24-93.52-25.1801-30.56-11.9299-63.5-22.5499-87.5-44.08-.68-.61-1.36-1.24-2.02-1.88-12.65-12.05-21.55-27.3099-29.3701-43.4199-6.77-13.9-12.73-28.4401-19.6299-42.1001-18.55-36.7-39.13-70.58-39.13-114.52,0-29.36,11.97-47.86,20.61-74.34,9.42-28.92,16.27-65.48,34.24-89.21,21.64-28.58,51.5-44.48,82.62-62.62,40.07-23.36,83.98-45,133.7-45,35.89,0,67.65,14.6,99,27.26,34.06,13.76,67.2,26.61,92.75,52.16,18.42,18.43,29.23,42.91,39.81,67.34,2.58,5.94,5.14,11.88,7.79,17.72.28.61.55,1.22.83,1.82,15.25,33.48,30.99,65.65,30.99,104.87Z"/>
        <path class="cls-1" d="M279.1845,8.0145c35.89,0,67.65,14.6,99,27.26,34.06,13.76,67.2,26.61,92.75,52.16,18.42,18.4299,29.23,42.91,39.81,67.34,2.58,5.9401,5.14,11.88,7.79,17.72.28.61.55,1.2201.83,1.8201,15.25,33.48,30.99,65.65,30.99,104.87,0,34.4899-16.43,65.9199-28.17,96.2599-13.75,35.55-24.78,69.02-51.25,95.49-20.24,20.24-56.52,33.8901-82.31,46.9501-36.75,18.59-65.45,32.48-109.44,32.48-34.78,0-62.96-13.24-93.52-25.1801-30.56-11.9299-63.5-22.5499-87.5-44.08-.68-.61-1.36-1.24-2.02-1.88-12.65-12.05-21.55-27.3099-29.37-43.4199-6.77-13.9-12.73-28.4401-19.63-42.1001-18.55-36.7-39.13-70.58-39.13-114.5199,0-29.36,11.97-47.86,20.61-74.34,9.42-28.92,16.27-65.4801,34.24-89.2101,21.64-28.58,51.5-44.48,82.62-62.62,40.07-23.36,83.98-45,133.7-45M279.1845,0c-51.5676,0-96.6741,22.1521-137.7365,46.0906-2.4734,1.4418-4.9391,2.8695-7.3933,4.2906-29.1531,16.8807-56.6894,32.8252-77.5799,60.4153-14.5033,19.1521-21.8431,44.8386-28.9412,69.6794-2.2029,7.7091-4.2835,14.9907-6.5297,21.8865-2.3857,7.3118-5.0769,14.1046-7.6796,20.6737-6.8522,17.2952-13.3244,33.6311-13.3244,56.1484,0,40.6527,16.9516,73.4556,33.3452,105.1785,2.1889,4.2358,4.4525,8.6158,6.6465,12.9568,3.7076,7.3398,7.2369,15.1588,10.6501,22.7203,2.8624,6.3412,5.8222,12.8983,8.9274,19.2738,6.7781,13.9636,16.4328,31.7826,31.0224,45.6897.6878.6663,1.4351,1.3617,2.2216,2.067,21.8907,19.6379,50.2159,30.4202,77.6086,40.8472,4.0624,1.5465,8.2631,3.1455,12.3284,4.7325,3.7634,1.4703,7.5598,2.9884,11.2313,4.4564,26.1545,10.4581,53.1995,21.2723,85.2032,21.2723,21.2395,0,40.3003-3.0776,59.9855-9.6854,17.3595-5.8271,33.6195-13.8175,53.0722-23.6576,5.934-3.0049,12.4235-6.037,19.2942-9.2471,22.767-10.6372,48.5716-22.6938,65.0654-39.1874,25.1358-25.1359,36.8075-55.7246,49.1645-88.1094,1.2835-3.3635,2.5758-6.7505,3.8932-10.1566,2.2346-5.775,4.6024-11.495,7.1092-17.5509,10.6195-25.6543,21.6004-52.1819,21.6004-81.6002,0-38.8356-14.8594-71.332-29.2296-102.7587-.8268-1.8082-1.6548-3.619-2.4813-5.4336l-.0155-.0338-.0157-.0336c-.1521-.326-.3009-.6555-.4505-.986l-.3583-.7882c-2.2635-4.9884-4.5271-10.2053-6.7162-15.2505l-1.0065-2.3186c-10.1348-23.402-21.6257-49.9353-41.4924-69.8127-25.8615-25.8615-58.0098-38.8324-92.0458-52.5648l-3.3708-1.3606c-3.0651-1.2378-6.133-2.4938-9.2084-3.7527C343.0468,12.2469,313.1304,0,279.1845,0h0Z"/>
      </g>
      <path class="cls-4" d="M550.3545,279.1846c0,34.4899-16.43,65.92-28.17,96.2599-13.75,35.55-24.78,69.02-51.25,95.49-20.24,20.24-56.52,33.8901-82.31,46.9501-36.75,18.59-65.45,32.48-109.44,32.48-34.78,0-62.96-13.24-93.52-25.1801-30.56-11.9299-63.5-22.5499-87.5-44.08-13.74-12.33-23.16-28.35-31.39-45.2999,17.7,10.26,41.86,21.9199,73.5,22.08,17.73.09,24.98-3.51,49.3-1.5699,29.86,2.3899,37.97,9.3199,64.18,14.09,16.3,2.97,52,9.47,89.6-3.91,35.25-12.54,55.94-36.77,67.31-50.09,22.66-26.54,38.4801-45.9339,48.9201-73.3039,6.6-17.29-.9301-23.3561,10.9499-59.3461,14.11-42.77,12.5453-74.7599,20.0852-98.48,4.24-13.35-.2609-37.8144,20.1248-30.5,2.58,5.94,5.14,11.88,7.79,17.72,15.5,34.13,31.82,66.76,31.82,106.69Z"/>
      <path class="cls-3" d="M440.7937,76.7529c-18.5926-13.0154-30.1349-13.4161-61.0435-23.4783-47.5324-15.4741-44.2481-29.5916-71.2174-35.4217-38.685-8.3628-65.4611-5.4696-100.4829,12.5304-20.913,10.7486-34.1574,19.045-81.0824,46.3696-39.3477,22.9124-46.4132,30.1802-51.6522,36.7826-17.624,22.2103-24.6116,49.5329-28.9565,66.5217-4.4614,17.4443-1.5971,18.4511-6.2609,34.4348-7.0111,24.0284-14.562,29.5429-18.7826,49.826-3.4356,16.5107-1.9633,29.826-1.0435,37.5652.2689,2.2625,3.6911,31.1299,22.4348,58.9565,5.9807,8.8789,10.656,13.4019,16.1739,13.3043,5.3546-.0946,10.4215-4.5212,12.5217-9.3912,3.3379-7.7397-.9311-16.3361-2.3478-19.5652-5.4647-12.4557-1.5562-31.5212,6.2609-69.6522,6.5225-31.8162,9.7837-47.7243,18.7826-68.8696,8.6071-20.2245,23.7065-54.6054,58.6957-82.9565,15.7093-12.7289,35.5166-28.7786,64.1739-32.0869,7.491-.8648,24.5592-9.4467,60.7826-5.218,35.3938,4.1319,39.1867,15.8997,50.3478,15.3919,27.1385-1.2347,28.0907-8.3529,52.4348-8.6087,15.3397-.1612,35.0349-.3682,54,10.9565,15.3597,9.1718,26.0266,23.3912,33.6522,19.5652,2.6565-1.3329,3.6536-4.2084,3.913-4.9565,4.2883-12.3669-16.7324-31.7992-31.3043-42Z"/>
      <g>
        <path class="cls-7" d="M466.0731,330.803c-5.1559,34.2784-22.4262,65.9459-45.06,92.2173-19.9138,23.1254-44.7541,42.886-73.8328,52.193-33.2625,10.6505-69.8347,6.871-102.9225-4.3038-42.5912-14.3754-81.2062-41.1275-108.1767-77.0991-27.615-36.8454-42.2089-83.3144-40.7015-129.2155.3932-12.1907,1.9226-24.3269,4.6425-36.2446,15.7737-69.0919,75.242-133.8691,146.2018-139.0578,14.015-1.0159,28.4779.284,43.1375,4.3257,27.1124,7.4937,51.7343,22.1859,74.2697,39.0302,13.8183,10.3228,27.0578,21.6069,39.183,33.896,15.3368,15.5334,28.9257,32.6944,39.7292,51.6469,19.3566,33.9397,29.3518,73.9748,23.5295,112.6116Z"/>
        <path class="cls-5" d="M466.0731,330.803c-5.1559,34.2784-22.4262,65.9459-45.06,92.2173-19.9138,23.1254-44.7541,42.886-73.8328,52.193-33.2625,10.6505-69.8347,6.871-102.9225-4.3038-42.5912-14.3754-81.2062-41.1275-108.1767-77.0991-27.615-36.8454-42.2089-83.3144-40.7015-129.2155,3.8779,9.9951,9.3506,26.9377,18.9088,43.4978,21.028,36.4413,52.5426,54.9459,62.1227,60.4187,41.193,23.5405,80.6164,22.7976,98.5967,22.2296,23.6059-.7538,62.1773-1.9771,98.0286-29.6358,31.5474-24.3488,44.0768-56.1256,48.4463-69.5397,8.8154-27.047,7.2752-49.495,6.8382-54.7056-2.3595-28.4232-14.0041-52.3241-25.5066-70.3154,15.3368,15.5334,28.9257,32.6944,39.7292,51.6469,19.3566,33.9397,29.3518,73.9748,23.5295,112.6116Z"/>
        <path class="cls-6" d="M273.4447,98.5946c-1.8027-2.8024-5.791-4.1276-9.2983-4.7012-39.9109-6.5275-80.0823,17.9423-102.8714,49.3457-.2236.308-.4457.617-.6665.9271-5.9615,8.3735-11.0265,17.8163-11.8282,28.064-.1032,1.3191.1396,3.0313,1.4266,3.3381.6324.1507,1.2796-.1299,1.8658-.4108,18.5524-8.8895,33.5689-24.8765,53.3106-30.6632,11.6802-3.4237,24.1079-2.9755,36.1464-4.7713,6.6873-.9976,13.4962-2.8036,18.7639-7.0422,7.9288-6.3799,10.9133-16.9333,13.4607-26.7864.4449-1.7209.8923-3.5162.5288-5.256-.1581-.7559-.4467-1.4347-.8384-2.0436Z"/>
        <path class="cls-6" d="M131.9305,182.8902c-.6376-.1714-1.3029-.2266-1.9854-.1352-4.0799.5465-7.2955,6.418-9.0672,9.6329-8.5238,15.4671-12.1669,33.0564-16.4051,50.2006-1.1759,4.7567-2.4149,9.6502-1.7215,14.5008s3.8351,9.7065,8.6052,10.8266c3.9348.924,8.1492-.9164,10.9054-3.8727,2.8643-3.0723,4.3728-7.1798,5.224-11.293,1.7622-8.5154.9922-17.3578,2.1897-25.9707,1.1779-8.4714,4.2301-16.5468,6.8309-24.6946,1.2494-3.9142,2.4085-8.0696,1.5209-12.0812-.6198-2.8011-3.0403-6.2919-6.0969-7.1134Z"/>
      </g>
      <path class="cls-1" d="M302.5328,18.9703c-.8303-2.6403-6.2974-3.2789-19.4348-3.6522-12.4279-.3531-18.6419-.5298-22.1739-.1304-10.8787,1.2299-18.7175,4.1215-27.5217,7.4348-9.843,3.7043-19.5818,8.4071-19.3044,9.1304.1218.3176,2.1726-.1376,25.4348-6.7826,12.0456-3.4409,14.5079-4.1793,19.1739-4.4348,6.626-.3629,13.7464.4644,17.6087.913,4.259.4948,8.5542.7249,12.7826,1.4348.3194.0536,2.5608.2097,7.0435.5217,2.7706.1929,4.1772.2705,5.2174-.6522,1.0007-.8876,1.5505-2.585,1.1739-3.7826Z"/>
      <path class="cls-1" d="M116.9893,84.9703c-4.4424,2.7359-5.2189,3.7855-8.8044,6.0652-3.4012,2.1625-3.4933,1.7208-9.1956,4.8913-2.3397,1.3008-9.2854,5.1627-9,5.7717.183.3905,3.5459-.8483,10.2717-3.326,6.2105-2.2878,8.1967-3.2313,10.3696-4.6957,1.4526-.979,2.5988-1.9896,4.8913-4.0109,1.301-1.1471,8.1324-7.1702,7.6304-7.826-.3459-.4521-4.0401,1.823-6.1631,3.1304Z"/>
      <path class="cls-1" d="M60.348,142.5898c2.3633-6.4142,5.0688-10.9828,7.6304-15.2609.7132-1.1911,4.0147-6.6583,9.2935-13.3043,1.7655-2.2228,6.772-8.5261,7.5326-8.0217.7493.4968-2.9848,7.36-3.7174,8.7065-2.2871,4.2037-4.1326,6.7847-6.2609,9.9783,0,0-3.2983,4.9494-7.6304,12.3261-6.8388,11.6451-9.2614,18.8491-9.9783,18.587-.6846-.2503.9294-7.037,3.1304-13.0109Z"/>
      <path class="cls-1" d="M38.6701,233.3094c-.6497.3876-1.3057.9077-1.7666,1.3743-1.9866,2.0116-3.4615,4.4915-4.7864,6.9692-7.7842,14.5578-11.3873,31.3213-10.2723,47.7918,1.117,16.4995,6.8092,32.3226,13.0254,47.6471.9694,2.3899,2.8285,5.254,5.3291,4.6228,1.4015-.3538,2.3114-1.8111,2.4413-3.2507s-.3668-2.8595-.9456-4.1841c-1.5187-3.4756-3.6422-6.6478-5.4449-9.9849-7.3075-13.5273-9.1391-29.512-7.5385-44.8033s6.4466-30.0501,11.8673-44.4379c1.0658-2.8293-.4045-2.6417-1.9089-1.7442Z"/>
    </g>
  </g>
</svg>