<?xml version="1.0" encoding="UTF-8"?>
<svg id="Capa_2" xmlns="http://www.w3.org/2000/svg" viewBox="0 0 726.2191 635.9092">
  <defs>
    <style>
      .cls-1 {
        fill: #44911c;
      }

      .cls-2 {
        fill: #639648;
      }

      .cls-3 {
        fill: #367710;
      }

      .cls-4 {
        fill: #57a529;
      }

      .cls-5 {
        fill: #acd696;
      }

      .cls-6 {
        fill: #94c67d;
      }

      .cls-7 {
        fill: #56843c;
      }

      .cls-8 {
        fill: #70a856;
      }

      .cls-9 {
        fill: #7bb662;
      }
    </style>
  </defs>
  <g id="Capa_1-2" data-name="Capa_1">
    <g>
      <g>
        <path class="cls-9" d="M718.2046,317.9545c0,42.67-18.01,81.7-35.8901,118.7-19.74,40.8601-41.0999,78.8901-77.79,108.5901-24.8899,20.1499-76.1799,35.9099-106.8999,49.21-47.49,20.5601-77.9099,33.4399-134.52,33.4399-39.0699,0-72.9299-13.3298-108.09-23.5099-42.08-12.17-84.41-23.2201-117.85-47.3199-33.77-24.3301-53.3-65.3401-74.3601-99.52-.6299-1.01-1.25-2.02-1.8799-3.02-27.65-44.1201-52.91-82.74-52.91-136.5701,0-36.75,20.6801-67.67,34.13-100.38,18.36-44.65,34.77-88.89,72.88-121.3799,30.7999-26.26,73.2899-36.14,113.38-51.29,43.21-16.32,84.63-36.89,134.7-36.89,46.8301,0,82.6301,15.48,123.5601,29.85,38.5601,13.54,82.6799,25.25,113.1499,49.04,32.78,25.61,46.76,63.55,66.8501,98.13,2.3101,3.97,4.6399,7.94,6.98,11.89,22.3401,37.9,44.5601,75.41,44.5601,121.03Z"/>
        <path class="cls-5" d="M363.1044,8.0145c46.8301,0,82.6302,15.4801,123.5601,29.8501,38.56,13.5399,82.6799,25.25,113.1499,49.0399,32.78,25.61,46.76,63.55,66.8501,98.13,2.31,3.9701,4.6399,7.9401,6.98,11.89,22.3401,37.9,44.56,75.41,44.56,121.03,0,42.67-18.0099,81.7-35.8901,118.7-19.74,40.8601-41.0999,78.8901-77.79,108.5901-24.8899,20.1499-76.1801,35.9099-106.8999,49.21-47.49,20.5601-77.91,33.4399-134.5201,33.4399-39.0699,0-72.9299-13.3298-108.0898-23.5099-42.08-12.17-84.41-23.2201-117.85-47.3199-33.77-24.3301-53.3-65.3401-74.3601-99.52-.6299-1.01-1.25-2.02-1.8799-3.02-27.65-44.1201-52.91-82.74-52.91-136.5701,0-36.75,20.68-67.67,34.13-100.38,18.36-44.65,34.77-88.89,72.88-121.38,30.7999-26.26,73.2899-36.14,113.38-51.29,43.2099-16.3199,84.63-36.89,134.6999-36.89M363.1044,0c-43.0287,0-79.9033,14.6522-115.5638,28.8221-7.1934,2.8583-14.6318,5.814-21.9679,8.5847-9.1093,3.4425-18.5346,6.6747-27.6495,9.8005-31.0839,10.6595-63.226,21.6821-88.0984,42.8884-37.1906,31.7061-54.7063,74.5652-71.6454,116.0132-1.1452,2.8024-2.2923,5.6091-3.4471,8.4176-3.3663,8.1868-7.3101,16.4984-11.1241,24.5364C12.0017,263.524,0,288.8177,0,317.9546c0,54.5438,25.1072,94.5612,51.6887,136.9281l2.4448,3.8979c.3903.6199.7672,1.2279,1.1451,1.8374l.7254,1.1677c3.8734,6.2869,7.6544,12.7406,11.6573,19.5731,17.6972,30.2076,35.997,61.4438,64.8182,82.2085,32.1981,23.2047,72.4431,34.7633,111.3631,45.9413,2.9808.8561,5.9637,1.7128,8.9453,2.5751,6.6823,1.9347,13.4641,4.0298,20.0225,6.056,28.2778,8.736,57.5184,17.7694,90.294,17.7694,58.9405,0,90.2745-13.5656,137.7043-34.0997,8.2225-3.5598,18.049-7.3389,28.4525-11.3397,28.6946-11.0352,61.2177-23.5426,80.3061-38.9961,39.6672-32.1097,62.0747-74.304,79.9637-111.3326,20.0726-41.5369,36.6881-79.4015,36.6881-122.1864,0-47.6218-23.0795-86.7755-45.3991-124.6399l-.2711-.4598c-2.2944-3.8732-4.6321-7.8552-6.957-11.851-4.686-8.0657-9.1425-16.5244-13.4523-24.7047-14.278-27.101-29.0422-55.1248-55.391-75.7103-26.0323-20.3251-60.6517-31.8812-94.1312-43.0568-7.386-2.4656-14.3625-4.7943-21.2975-7.2294-5.3726-1.8864-10.7336-3.8197-15.9181-5.6895C438.3038,11.9557,405.1522,0,363.1044,0h0Z"/>
      </g>
      <g>
        <path class="cls-1" d="M521.6891,368.7633c-12.55,37.1801-33.66,59.9401-58.3,86.51-32.53,35.0601-61.95,66.77-111.8799,79.1801-61.4601,15.2699-114.8-8.4501-138.6602-19.0599-17.21-7.6602-75.1499-34.4001-108.72-96.78-6.98-12.98-20.75-38.5701-23.5499-71.0701-.9401-10.8-.66-22.38,1.49-34.5,5.5499-31.28,23.13-54.09,58.2999-99.71,25.5901-33.19,38.3801-49.78,63.03-67.45,17.8301-12.78,52.5901-37.03,103.99-41.06,36.6101-2.86,65.9301,5.76,81.9401,11.74,22.63,8.33,59.9301,25.56,91.5,60.65,3.89,4.3199,7.24,8.4,10.0299,12.05,4.05,5.24,6.9601,9.56,8.77,12.34,27.54,42.44,42.75,105.8,22.0601,167.16Z"/>
        <path class="cls-3" d="M521.6891,368.7633c-12.55,37.1801-33.66,59.9401-58.3,86.51-32.53,35.0601-61.95,66.77-111.8799,79.1801-61.4601,15.2699-114.8-8.4501-138.6602-19.0599-17.21-7.6602-75.1499-34.4001-108.72-96.78-6.98-12.98-20.75-38.5701-23.5499-71.0701,8.6801,14.13,21.85,39.6899,47.99,62.8501,59.6901,52.8799,140.2899,51.8899,160.4401,51.6499,20.3199-.25,33.95-3.3999,39.1299-4.7,24.91-6.27,41.8801-17.1801,61.04-29.74,16.3201-10.6901,33.9299-22.23,50.87-39.91,38.0499-39.72,49.9-86.63,53.2201-102.52,7.6199-36.49,3.72-69.55-2.4102-95.91,4.05,5.24,6.9601,9.56,8.77,12.34,27.54,42.44,42.75,105.8,22.0601,167.16Z"/>
        <path class="cls-4" d="M357.6192,127.8264c-.5122-.7743-1.1162-1.494-1.8283-2.1428-2.4391-2.2222-5.7774-3.1179-8.995-3.8488-28.8646-6.5563-60.0084-6.0851-88.1795,3.3888-25.8895,8.7066-49.4556,25.4854-64.5579,48.4278-2.5779,3.9161-7.4719,10.6636-3.6643,15.2759,1.8947,2.2952,5.2848,2.5306,8.2577,2.391,18.6936-.8777,36.0822-9.2156,53.8719-15.0249,28.2546-9.2266,58.1441-12.1761,87.8099-14.0179,6.1522-.382,13.0743-1.0959,16.9215-5.9118,3.0703-3.8433,3.2193-9.1798,3.2179-14.0989-.0013-4.7216-.1448-10.3433-2.8539-14.4384Z"/>
        <path class="cls-4" d="M159.4834,225.4063c-6.8826.1606-11.127,5.9832-18.3914,14.0869-14.2487,15.895-14.3208,11.7906-22.6956,22.3044-4.8483,6.0867-17.9139,23.8953-21.5217,49.3043-1.5631,11.009-3.459,24.3608,3.913,29.7391,7.7693,5.6683,20.9822-1.0584,22.6957-1.9565,13.663-7.1614,18.8687-21.6945,22.6957-32.8696,8.6331-25.2093.2355-31.11,9.7826-48.5217,7.3325-13.3729,17.6189-19.6178,14.8695-26.2174-1.655-3.9727-7.156-5.9673-11.3478-5.8695Z"/>
        <path class="cls-3" d="M477.9715,297.3801c-.5109-17.235-11.8837-28.3786-14.8695-31.3044-10.449-10.2386-29.0892-19.4415-46.9565-13.3043-11.9863,4.1171-36.7344,7.7786-41.0533,14.0085-4.4451,6.4119-21.9207,23.4783,8.1838,47.035,10.6968,8.3703,16.4863,18.7666,24.2609,22.6957,6.8832,3.4786,20.3344,10.2766,36,6.2609,19.1875-4.9185,35.0582-24.3572,34.4347-45.3913Z"/>
        <path class="cls-3" d="M359.9094,337.0501c-2.3174-2.0912-24.5618-21.5125-48.5652-11.2073-18.478,7.9331-26.747,28.6517-24.905,46.0746,1.61,15.2293,11.081,29.2247,24.905,36.1124,12.8868,6.4208,25.0041,4.3971,28.6409,3.7359,2.5433-.4623,29.057-5.7235,36.1125-28.641,7.4294-24.1324-14.0206-44.1184-16.1882-46.0746Z"/>
        <path class="cls-3" d="M245.1791,413.519c14.822-9.488,17.8721-26.6036,18-27.3914,4.5093-27.7725-24.7234-48.037-28.9565-50.8696-2.9332-1.9627-36.8181-23.9233-62.6086-6.2609-11.2601,7.7114-18.5912,21.3417-18.7826,35.2175-.3206,23.2355,19.5144,37.3241,24.2609,40.6956,6.7688,4.8079,12.7924,6.8705,18,8.6088,12.0374,4.0179,32.9207,10.9886,50.0869,0Z"/>
        <path class="cls-3" d="M263.1791,226.4755c-4.903-3.6147-19.5457-14.4099-34.4348-9.3913-10.3658,3.494-15.1548,12.7327-21.1304,24.2609-4.3965,8.4818-7.6672,14.7917-5.4783,21.913,3.0439,9.9028,14.3353,13.8596,17.2174,14.8696,8.7262,3.0579,16.5265,1.441,23.4783,0,5.8674-1.2162,10.6311-2.2037,15.6521-5.4782,11.0442-7.2028,19.7303-23.1214,14.8696-35.2174-1.9734-4.9107-5.5059-7.5151-10.174-10.9565Z"/>
        <path class="cls-3" d="M412.3591,205.9162c4.4414-5.6692,4.2871-15.338,0-21.3913-7.6698-10.8297-26.4618-7.1149-30.7826-6.2609-2.3945.4733-9.0747,3.446-22.4348,9.3913-13.1837,5.8668-15.7653,7.3615-22.4348,9.3913-10.7448,3.27-11.4177,1.6346-15.6521,4.1739-8.7565,5.251-14.4534,17.3866-13.0435,29.2174.1881,1.5785,2.2861,17.1039,15.1304,22.9565,9.5055,4.3313,19.0015.6785,23.4783-1.0435,2.5743-.9903,7.115-3.043,21.3914-16.6956,16.4333-15.7153,16.03-18.3632,23.4783-21.913,10.6031-5.0535,16.3245-2.0246,20.8695-7.8261Z"/>
      </g>
      <path class="cls-6" d="M76.5794,445.0815c-7.1171,3.3977-36.0178-30.469-49.0435-70.4347-13.3428-40.9389-5.8276-75.3901-4.174-82.4348,3.6217-15.4285,6.0928-14.2672,22.4348-52.174,21.4557-49.7682,18.757-55.3904,33.3912-81.913,11.1483-20.2048,21.6025-39.1516,42.2609-56.3478,21.3696-17.7883,42.1066-24.0876,79.174-35.3478,34.4547-10.4666,27.9251-11.2703,66.1304-23.4782,36.8907-11.7879,43.0694-19.9285,63.0528-24.2609,37.9037-8.2174,56.2057-2.3498,106.7733,17.2174,17.0167,6.5847,16.2306,9.443,39.913,18.7827,27.6969,10.9229,45.2118,13.4966,59.8695,17.6086,0,0,55.0493,19.1926,82.1741,50.4783,2.5623,2.9552,5.9255,7.8397,12.6521,17.6087,7.8608,11.4163,9.4607,14.6838,8.3479,17.7391-1.604,4.4044-8.1614,6.4921-13.0435,6.7826-12.2969.7316-18.7227-9.656-33.9131-19.826-10.792-7.2252-19.7527-10.1528-33.3914-14.6087-23.8865-7.804-40.3035-4.7217-61.0435-4.6957-30.2412.038-28.6997-6.4733-100.174-20.8696-41.1455-8.2875-61.7183-12.4313-79.3043-12.5217-25.4938-.1311-68.655-.3531-103.826,26.087-12.8461,9.6571-11.9587,13.3483-34.4348,31.3043-22.9871,18.3643-30.4583,19.7307-45.3914,34.9565-5.5253,5.6335-12.9761,16.1801-27.6521,37.0435-20.2218,28.7471-30.3328,43.1206-33.3914,50.087-12.2872,27.9855-11.4928,54.1653-10.9565,67.3043.5713,13.9982,2.4087,15.9377,10.9565,70.9566,4.5657,29.3875,4.828,33.897,2.6088,34.9564Z"/>
      <path class="cls-8" d="M718.2945,317.9545c0,42.67-18.0098,81.7-35.8899,118.7-19.74,40.8601-41.1001,78.8901-77.79,108.5901-24.8899,20.1499-76.1799,35.9099-106.8999,49.21-47.49,20.5601-77.9102,33.4399-134.52,33.4399-39.0701,0-72.9301-13.3298-108.0901-23.5099-42.08-12.17-84.4099-23.2201-117.85-47.3199-25.4401-18.3301-42.7999-46.1201-58.8199-73.3301-5.24-8.91-10.3501-17.76-15.54-26.1899,3.6,1.23,7.1699,2.48,10.64,3.71,38.1901,13.49,43.6901,26.05,85.5699,47.48,19.3301,9.89,53.5901,27.0701,100.17,33.9099,18.7999,2.76,46.12,6.53,80.35-.5199,35.0601-7.2201,59.7-22.16,76.1799-32.35,34.7401-21.48,32.5801-30.3801,67.8201-51.65,35.62-21.5,38.95-13.08,63.3901-31.3,35.3899-26.39,55.48-64.22,59.48-72,8.8398-17.1899,11.0298-27.41,24.2598-45.4,15.8-21.47,21.1401-18.41,27.3901-32.08,11.01-24.08-3.47-38.16,8.6099-66.52,1.8501-4.33,4.0701-9.54,6.9802-13.9,5.5598,9.43,11.0999,18.83,16.3098,28.33,15.71,28.73,28.25,58.43,28.25,92.7Z"/>
      <path class="cls-1" d="M641.2354,318.9026c.0034-21.974-2.2983-37.3302-2.8417-40.8357-2.0216-13.0408-7.5312-41.5487-24.6691-74.1156-1.4849-2.8222-17.6252-32.9102-38.9606-44.914-5.2081-2.9302-10.9833-4.9277-17.2875-3.8411-1.5676.2701-10.3156,1.778-14.0761,9.3964-3.5572,7.2065-.0633,14.6353.6795,16.2148,1.9304,4.1045,4.7187,6.5603,14.9053,13.631,8.9157,6.1889,13.8365,9.2064,16.4704,10.9997,10.023,6.8257,14.9947,15.0418,22.6797,27.7431,13.2816,21.9504,18.3082,42.1179,19.9042,49.2261,2.1018,9.3605,6.0343,30.7233,2.5624,57.7212-2.6459,20.5753-8.3456,34.7305-14.4857,49.9792-6.2644,15.5576-11.2905,27.7239-20.6454,35.5078-4.9089,4.0841-9.4446,8.6477-14.6611,12.3311-4.0852,2.8842-6.7554,4.3522-8.9137,7.9856-.5363.9028-3.5766,6.2089-2.3183,12.7097,1.3763,7.1114,7.2989,12.5679,11.9923,14.0197,14.7061,4.5481,35.5205-24.606,38.9559-29.4177,30.6972-42.9967,30.7051-94.7561,30.7097-124.3415Z"/>
      <path class="cls-1" d="M560.7559,402.55c8.18-3.5167,12.2608-12.4641,17.9236-31.3371,6.0287-20.0929,9.0432-30.139,10.3376-41.774,3.835-34.4673-4.0058-60.7678-8.1134-74.0447-7.6673-24.783-16.264-35.4464-24.2925-42.0979-4.8699-4.0344-13.1842-10.7346-20.9485-7.9805-5.5382,1.9642-9.0319,8.113-9.6604,13.4116-.8246,6.9523,3.2923,12.3714,8.871,19.714,5.1699,6.8047,7.9587,8.1556,13.5111,14.2027.7144.7782,9.1885,10.1126,14.5277,21.1041,8.3497,17.1891,6.8206,33.8767,5.9315,43.5822-1.1973,13.0675-2.2368,24.4142-10.0566,34.8433-2.0104,2.6816-5.6447,6.8699-13.8961,17.6155-3.2347,4.2127-6.1483,8.0903-7.9159,14.0222-1.1976,4.0183-2.5316,8.4955-.3695,12.7756,2.8115,5.5652,9.5709,6.91,11.6292,7.3194.2581.051,6.5255,1.2212,12.5211-1.3564Z"/>
      <path class="cls-1" d="M671.5278,305.6162c1.0579-.8845,1.9944-1.9134,2.7532-3.0385,3.1538-4.6769,3.8667-10.5617,4.002-16.201.4373-18.2444-4.2085-36.1843-8.8193-53.8419-4.4412-17.007-9.0566-34.403-19.0435-48.8676-3.0078-4.3565-6.7634-8.5924-11.8264-10.1382-13.2971-4.0598-16.6335,11.5574-10.5642,20.2462,2.9744,4.258,7.1118,7.5374,10.7561,11.238,18.9529,19.2448,23.3955,49.5665,16.4182,75.6603-1.3203,4.9377-3.0193,9.8889-2.8811,14.9982.1379,5.1093,2.6111,10.5601,7.3481,12.4799,3.9702,1.6091,8.5176.2569,11.8569-2.5353Z"/>
      <path class="cls-2" d="M718.2945,317.9545c0,42.67-18.0098,81.7-35.8899,118.7-19.74,40.8601-41.1001,78.8901-77.79,108.5901-24.8899,20.1499-76.1799,35.9099-106.8999,49.21-47.49,20.5601-77.9102,33.4399-134.52,33.4399-39.0701,0-72.9301-13.3298-108.0901-23.5099-42.08-12.17-84.4099-23.2201-117.85-47.3199-25.4401-18.3301-42.7999-46.1201-58.8199-73.3301,11.6699,6.23,21.6899,13.02,24.75,15.09,29.11,19.7101,28.4099,30.9901,55.5699,46.17,16.28,9.1,31.2001,12.59,61.04,19.5701,20.2799,4.73,38.84,7.1299,75.13,11.73,58.9199,7.47,69.1699,6.46,78.26,4.7,8.4099-1.63,12.97-3.3501,50.8699-20.3501,41.8901-18.7699,78.52-35.5898,84.52-38.3499,74.0701-33.9501,65.6799-26.74,77.48-34.4301,10.25-6.67,67.1301-43.7001,83.74-107.2201,4.4702-17.0798.3301-14.3099,8.6101-66.5199,6.48-40.87,9.3801-44.87,10.96-67.3.55-7.91.73-15.09.6799-21.5699,15.71,28.73,28.25,58.43,28.25,92.7Z"/>
      <path class="cls-1" d="M671.875,335.4341c-.6303-.7903-1.3725-1.4898-2.2327-2.0673-3.2688-2.1945-7.7181-2.1809-11.2849-.514-14.1933,6.6331-10.7512,27.9795-10.6285,40.5866.1437,14.7597-1.3423,29.7019-6.3624,43.5824-5.0201,13.8805-13.7939,26.6922-26.1131,34.8228-2.8706,1.8946-6.0743,3.6962-7.604,6.7768-2.1741,4.3783.1699,10.1366,4.431,12.5322,4.2612,2.3955,9.7782,1.7711,13.9836-.721,4.2054-2.4921,7.2395-6.6,9.4146-10.9778,2.1752-4.3778,3.5917-9.0843,5.3085-13.6613,4.6579-12.4177,11.5452-23.9228,15.9444-36.4345,5.5867-15.8887,7.0378-33.0501,13.1937-48.7271,1.8087-4.6061,4.0376-9.141,4.6392-14.0527.4756-3.8834-.3094-8.161-2.6895-11.1451Z"/>
      <path class="cls-5" d="M37.9706,384.8206c-2.3126-4.6682-7.6166-16.0814-11.4783-34.1739-3.2228-15.0988-4.958-23.2291-3.6521-34.6956,1.2036-10.5682,4.3936-18.7272,8.0869-28.174,2.4309-6.2176,7.036-16.8568,8.3479-16.4348,1.0156.3267-.6344,7.0602-2.8696,20.0869-1.724,10.0474-3.7732,21.9897-4.4348,32.6087-.9731,15.619,1.0938,27.7629,2.087,33.3914,4.3405,24.5963,13.9503,41.1929,12.7826,41.7391-.802.3751-5.4316-7.4081-8.8696-14.3479Z"/>
      <path class="cls-5" d="M74.6228,181.8641c-1.3523-.8486,6.3429-15.5896,10.5652-23.087,4.5464-8.073,9.2949-15.2566,14.4783-22.3043,9.9823-13.5728,16.0144-21.7747,25.826-30.1304,14.2383-12.1257,28.2109-17.5711,38.3479-21.5217,12.6764-4.9402,13.8246-3.5594,38.7391-11.3478,20.0684-6.2734,29.333-10.2983,29.7391-9.3913.8584,1.917-39.5922,21.9692-43.4348,23.8696-30.9091,15.2858-34.1926,15.0692-46.5652,23.4782-15.2529,10.3667-25.4291,21.004-34.4348,30.5218-21.24,22.4476-31.7322,40.8724-33.2609,39.913Z"/>
      <path class="cls-5" d="M298.8402,36.5598c14.2365-6.7153,21.3547-10.0731,28.6957-12.2609,15.2845-4.5554,27.64-4.9033,30.2609-4.9565,15.9515-.3237,28.0614,3.0288,35.7391,5.2174,5.9851,1.7061,12.4248,4.2678,25.3043,9.3913,6.8688,2.7324,13.744,5.4674,22.4348,9.3913,19.2617,8.6967,20.8378,11.2219,34.6956,16.6956,14.2903,5.6445,23.3611,7.2042,23.2174,7.8261-.2224.9628-22.1644-1.8832-46.9565-9.1304-7.8826-2.3043-18.9072-6.2318-40.9564-14.087-20.8776-7.4377-22.2635-8.2231-28.4348-9.6522-8.2374-1.9076-22.7623-5.1465-40.4348-3.1304-7.0426.8034-6.2489,1.4904-45.1304,11.7391-12.5513,3.3084-18.4633,4.7734-18.7827,3.913-.4292-1.1559,9.4882-5.8339,20.3479-10.9565Z"/>
      <path class="cls-9" d="M269.2968,58.212c-2.9905-3.524-8.4281-2.7717-11.5436-.7827-.3773.2409-4.1616,2.7468-4.3043,7.2391-.0337,1.0622.0786,4.0455,2.3479,6.0652,2.9409,2.6176,7.1024,1.4789,8.2173,1.1739.9376-.2565,3.057-.8364,4.6957-2.7391,2.3114-2.6839,3.379-7.6664.587-10.9565Z"/>
      <path class="cls-9" d="M360.1445,55.8641c-1.4581-.545-4.3702-1.3057-7.5652-.2609-5.8201,1.9034-10.3906,9.0828-8.3479,14.6087,2.0396,5.5174,9.5874,6.4517,12.2609,6.7826,1.8442.2283,9.9463,1.2311,12.7827-3.1304,3.2798-5.0435-1.785-15.2544-9.1305-18Z"/>
      <path class="cls-9" d="M435.7968,59.2554c-3.1212-4.0414-9.752-4.0699-12.7827-.5217-2.1678,2.538-2.0742,6.4149-.5217,9.1304,2.0774,3.6336,7.0764,5.7291,10.9565,3.6522,4.2126-2.2549,5.2876-8.4544,2.3479-12.2609Z"/>
      <path class="cls-9" d="M530.4923,76.0815c-1.1677-.5961-6.0765-3.1019-9.2609-.5217-2.0973,1.6994-2.4321,4.7833-1.9564,6.913.6228,2.7881,2.7141,4.2956,4.1738,5.3478,2.8944,2.0865,5.8076,2.2921,6.7826,2.3478,1.8208.104,3.3118.1892,4.5652-.7826,2.2705-1.7601,1.7781-5.4497,1.6958-6-.6873-4.5922-5.2012-6.8965-6.0001-7.3043Z"/>
      <path class="cls-9" d="M580.0576,118.9946c.1064-3.8602-7.2361-6.7332-10.6958-8.087-4.6609-1.8238-10.4824-4.1017-14.6086-1.0435-2.4922,1.8472-4.1921,5.5123-3.3914,8.8696.7092,2.9739,3.1147,4.5909,4.4348,5.4783,4.6877,3.1512,10,2.3997,12,2.0869,4.4534-.6965,12.1533-3.3914,12.261-7.3043Z"/>
      <path class="cls-9" d="M489.0141,112.6033c4.0624-4.7919,4.0989-12.6054,0-16.8261-4.0504-4.1708-10.3794-3.0212-14.0869-2.3478-3.2324.5871-8.7291,1.5854-10.5652,5.8696-1.7543,4.093.9636,8.5469,1.9565,10.174.6256,1.0252,4.0735,6.6754,10.9565,7.4348.7922.0874,7.485.7138,11.739-4.3043Z"/>
      <path class="cls-9" d="M223.8402,100.9946c.6113-2.4521-1.3716-4.8821-3.1305-6-2.2915-1.4563-5.1261-1.2723-7.1738-.1304-.5283.2946-2.9249,1.6311-3.1305,3.913-.251,2.7872,2.913,5.362,5.8696,5.8696,2.8646.4918,6.8375-.7335,7.5652-3.6522Z"/>
      <path class="cls-9" d="M161.7532,109.3424c-2.4587-.7483-5.6852-.439-8.2173,1.5652-.2046.1619-4.0219,3.2863-3.3914,7.8261.6427,4.6274,5.3331,6.5987,6.3914,7.0435,2.8458,1.196,5.4082.8534,6.913.6522,2.4015-.3212,4.5427-.6075,5.8696-2.3478,2.0646-2.7076.4529-6.6985.2609-7.174-.587-1.4537-1.4033-2.3462-2.4783-3.5217-1.6464-1.8002-3.0613-3.3476-5.3479-4.0435Z"/>
      <path class="cls-9" d="M153.6663,158.5815c.5212-.3557,5.4573-3.8137,4.8914-7.8261-.6453-4.575-7.9528-6.3934-10.5653-7.0435-3.1544-.7849-6.7478-1.6791-9.9783.3913-3.5708,2.2885-4.1589,6.5714-4.3043,7.6304-.0914.6659-.8273,6.5712,2.5435,8.8043.6044.4004,1.5249.8047,6.2609.3913,5.8951-.5145,8.8427-.7719,11.1522-2.3478Z"/>
      <path class="cls-9" d="M101.2315,172.6685c-3.4519-1.6713-8.8158.2603-11.3478,4.1087-.1582.2405-2.855,4.4858-.9783,8.8044,1.0117,2.3281,2.838,3.4935,4.1086,4.3043,1.1356.7247,7.1982,4.5934,11.7391,1.5652,2.9396-1.9603,3.7549-5.8196,3.5219-8.4131-.286-3.183-2.2389-5.4395-4.3044-7.826-1.209-1.3969-1.8135-2.0953-2.7391-2.5435Z"/>
      <path class="cls-9" d="M89.8837,232.3424c1.3864-5.1368-3.3888-10.5804-7.826-10.5652-3.149.0108-5.2148,2.7676-5.4783,3.1304-2.7634,3.8058-2.3558,10.7335,1.9565,12.9131,4.0175,2.0305,10.0701-.744,11.3478-5.4783Z"/>
      <path class="cls-9" d="M51.275,250.3424c1.0508-1.163,1.8201-3.2974.7826-4.9565-1.1326-1.8112-3.7788-2.0331-5.4783-1.1739-2.4768,1.2523-3.4062,5.0352-1.8262,6.7826,1.462,1.617,4.829,1.2214,6.5219-.6522Z"/>
      <path class="cls-9" d="M56.6228,329.3859c.5836-1.6162,1.8049-4.9984.1957-8.6087-.2308-.5178-2.3885-5.1474-7.2391-5.6739-4.0929-.4443-6.9075,2.3798-7.4348,2.9348-.8029.8448-3.1176,3.6002-2.5435,7.0435.377,2.2612,1.8008,3.6254,3.326,5.0869,1.2527,1.2003,6.2793,6.0166,10.174,4.3044,2.0028-.8805,2.8003-3.0891,3.5217-5.087Z"/>
      <path class="cls-9" d="M60.1445,373.3424c-.3669-1.0204-1.693-4.7085-4.9565-5.4783-3.7118-.8755-8.3947,2.3862-8.6086,6.5219-.1718,3.3173,2.6058,5.7676,4.6957,6.7826,2.5035,1.2161,6.6139,1.6322,8.6086-.7826,1.9463-2.3561.6603-5.9327.2609-7.0436Z"/>
      <path class="cls-8" d="M557.4924,303.5598c2.2461-6.8792-4.4861-15.3388-10.1741-14.8696-4.7688.3934-8.7578,7.0596-8.2173,12.913.033.3572.7639,7.1807,5.8696,9,4.915,1.7513,10.9355-2.1851,12.5217-7.0435Z"/>
      <path class="cls-8" d="M600.5359,248.5815c-1.3564-2.4055-4.6377-3.8948-7.6304-2.7391-2.6614,1.0278-4.2229,3.8106-3.9131,6.4565.3958,3.3806,3.6519,4.8771,4.1086,5.087.707.325,2.0547.9443,3.5217.587,3.1135-.7585,5.98-5.7261,3.9131-9.3913Z"/>
      <path class="cls-8" d="M610.3184,320.5815c4.0344-2.3759,3.4272-8.7268,3.3262-9.7827-.1428-1.4945-.6575-6.8767-4.8914-8.8043-4.2759-1.9467-8.7251,1.278-9.3914,1.7609-.7788.5644-4.8101,3.4861-4.5,7.8261.2556,3.5781,3.2903,5.7186,4.8914,6.8478,1.1306.7975,6.4705,4.5637,10.5652,2.1522Z"/>
      <path class="cls-8" d="M641.0359,216.2989c-1.5066-.8632-3.6216.2335-4.6958,1.174-2.1252,1.8608-2.8918,5.489-1.3694,7.2391.7407.8514,1.8657,1.0772,2.3477,1.1739.4167.0836,2.1577.433,3.5217-.587,1.3213-.9881,1.4592-2.6409,1.5654-3.913.1052-1.2598.3428-4.1058-1.3696-5.087Z"/>
      <path class="cls-8" d="M609.0142,165.1685c-2.1721-2.3803-6.4646-1.942-8.6086.5218-1.9065,2.1909-2.0027,5.8555,0,7.826,1.9119,1.8811,4.833,1.3296,4.9563,1.3044.4497-.092,1.594-.3845,2.6089-1.3044,2.0085-1.8204,3.2837-5.8929,1.0435-8.3478Z"/>
      <path class="cls-8" d="M519.5359,156.2989c-1.0754-4.0443-1.6132-6.0664-3.1305-7.3043-3.4515-2.8157-10.6194-2.2612-14.3478,2.3478-3.1184,3.855-3.1895,9.7537-.2609,13.3043,2.8007,3.3955,7.3135,3.3931,10.6956,3.3913,2.8402-.0015,5.9823-.0032,7.5653-2.0869,1.5146-1.9938.7693-4.7973-.5217-9.6522Z"/>
      <path class="cls-8" d="M548.2315,137.2554c-.1057-.1732-1.6194-2.5729-4.0435-2.4783-2.4602.0961-4.4243,2.7053-4.4348,5.2174-.0073,1.7939.9817,3.4866,2.4783,4.4348.1797.1138,2.5251,1.5523,4.5652.5218,2.4287-1.2269,2.9512-5.2086,1.4348-7.6957Z"/>
      <path class="cls-8" d="M449.6228,121.3424c-3.046-3.241-8.167-3.1118-11.4783-1.3044-.7595.4146-3.5607,1.9435-4.174,4.9565-.7208,3.5411,2.0378,6.8848,4.6957,8.3478,2.2494,1.2382,4.4189,1.1252,5.2174,1.0435,2.9265-.2996,6.9259-2.1738,7.826-6,.8893-3.7803-1.8707-6.8135-2.0869-7.0435Z"/>
      <path class="cls-8" d="M530.7532,417.9511c.5424-3.6626-2.3324-8.3276-6.5217-8.8696-3.421-.4426-6.2507,2.0541-7.5652,4.174-2.1649,3.4916-1.894,8.662.7826,10.6957,3.785,2.876,12.4816-.4441,13.3043-6Z"/>
      <path class="cls-8" d="M88.188,273.8207c-.0466-.1512-.8456-2.6025-3.1304-3.2609-2.5447-.7332-5.0334,1.3046-6.1305,3.1304-1.0172,1.693-1.8085,4.8195,0,6.6522,1.5426,1.5632,4.0916,1.2883,5.6088.6522,2.6788-1.1232,4.5177-4.3688,3.6521-7.1739Z"/>
      <path class="cls-2" d="M541.449,449.5163c-3.9146-4.658-11.1113-6.3796-16.8262-3.5217-6.3649,3.183-7.3518,10.2762-7.4348,10.9565-.692,5.6742,2.0269,12.1599,7.826,14.8695,4.1614,1.9443,9.1859,1.6066,12.9132-.7826,6.6526-4.2643,9.0269-14.9709,3.5217-21.5217Z"/>
      <path class="cls-2" d="M531.4706,497.6468c-.0377-3.071-4.0057-6.8019-8.2174-6.2609-3.8734.4976-5.5896,4.3046-5.6738,4.5-1.2526,2.905-.7177,6.7087,1.3695,8.2173,3.7312,2.6968,12.5785-1.8296,12.5217-6.4564Z"/>
      <path class="cls-2" d="M489.7315,466.9294c-1.7797-.7665-4.0021-.5269-5.5435.8478-1.7269,1.54-2.399,4.3264-1.1086,6.326,1.554,2.4081,4.8701,1.9961,5.1521,1.9565,1.7056-.2394,4.2772-1.4031,4.6957-3.913.3876-2.3251-1.3063-4.4037-3.1957-5.2174Z"/>
      <path class="cls-2" d="M483.1445,518.3859c-.0217-6.0116-7.6948-10.2675-11.7391-11.7391-6.8063-2.4768-14.9973-1.3125-20.7391,3.5217-4.0096,3.3759-8.9589,10.3381-6.6522,15.2609,1.9559,4.1742,8.3047,5.1227,13.3044,5.8695,2.3813.3557,5.708.8527,9.7826,0,6.1217-1.2811,16.0682-6.0558,16.0435-12.913Z"/>
      <path class="cls-2" d="M408.1445,529.6032c-4.0249-2.3345-9.8848-1.627-13.0435,2.087-1.8263,2.1473-3.0967,5.7076-1.826,8.8695,1.5286,3.8037,5.8484,4.8254,8.6086,5.4783,2.3851.5641,7.083,1.6752,9.6522-.7826,3.4404-3.2913,2.365-12.3136-3.3914-15.6522Z"/>
      <path class="cls-2" d="M336.4054,562.8641c-1.2902-3.0903-4.6573-3.7523-4.826-3.7826-2.5546-.458-4.9913.7001-6.3914,2.4783-.2639.3352-2.0957,2.6619-1.3043,4.8262,1.1116,3.0398,6.3916,3.0085,7.826,3,1.6613-.0099,3.2405-.0192,4.3043-1.174,1.7697-1.9208.4508-5.2056.3914-5.3479Z"/>
      <path class="cls-2" d="M213.9271,536.3859c-3.3246-3.3571-8.6959-4.363-12.9131-2.5436-.5596.2415-5.4059,2.4086-5.6738,6.2609-.2789,4.01,4.6064,6.9226,7.4348,8.6088,2.5198,1.5022,9.0178,5.3761,12.5217,2.7391,3.4286-2.5803,3.0023-10.6505-1.3696-15.0652Z"/>
      <path class="cls-2" d="M152.3945,511.538c-1.1833-.9987-3.1083-1.5198-4.7935-.6848-1.9473.9648-2.8503,3.3816-2.1522,5.3805.9042,2.589,3.9508,2.9203,4.1088,2.9348.3369.031,2.3689.2178,3.6195-1.174,1.5222-1.6941,1.108-4.8608-.7826-6.4565Z"/>
      <path class="cls-2" d="M660.4055,315.6903c-2.5437-2.0786-7.5054-1.9329-9.9131,1.5652-2.259,3.2821-.9688,7.6254,1.8259,9.6522,1.7834,1.2934,4.426,1.8222,6.5217.7827,3.9678-1.9681,5.0913-9.119,1.5654-12Z"/>
      <path class="cls-2" d="M684.2749,225.6903c-3.2593-2.175-9.5767.2076-10.9565,4.6956-1.4871,4.8369,3.2781,10.4356,7.0435,10.174,2.6096-.1813,4.2664-3.1449,4.6958-3.9131,1.8669-3.3397,2.2856-8.9088-.7827-10.9565Z"/>
      <path class="cls-2" d="M590.7532,403.3424c.2505-2.1449.7974-6.8268-.9783-7.6304-1.3408-.6067-3.959,2.0085-9.1956,7.2391-2.8577,2.8545-3.5662,3.8428-3.9131,5.2826-.5957,2.4725-.0986,6.1677,2.3479,7.4348,2.8298,1.4656,6.4126-1.2778,7.0435-1.7609,3.8015-2.9108,4.356-7.6576,4.6956-10.5653Z"/>
      <path class="cls-7" d="M593.1011,538.7337c1.5535-4.345-.7546-10.2036-5.2175-12.5217-4.3875-2.2789-8.9573-.149-10.9563.7826-3.6345,1.694-9.5076,6.051-8.6089,10.6957.7993,4.1304,6.4551,5.9113,7.5652,6.2609,5.5649,1.7523,14.9768,1.05,17.2175-5.2174Z"/>
      <path class="cls-7" d="M631.449,493.8641c-1.8174-4.0822-6.4316-6.0288-10.4348-4.9564-3.0017.8041-5.5562,3.2781-6.261,6.5217-.8262,3.8024,1.1348,7.5344,4.1741,9.3912,2.718,1.6606,6.4585,1.9189,9.3911,0,3.4741-2.2733,4.8926-6.9988,3.1306-10.9565Z"/>
      <path class="cls-7" d="M702.9273,345.1685c-3.7888-2.6044-9.0193-2.5943-12.7827,0-5.8103,4.0053-4.5984,11.7396-4.4348,12.7827.6306,4.0237,3.3687,10.093,8.6086,10.9565,4.5344.7472,8.2844-2.8422,9.1306-3.6522.6619-.6335,3.1704-3.1677,3.9128-7.3043.1726-.9618,1.4353-8.7477-4.4346-12.7827Z"/>
      <path class="cls-7" d="M679.9707,390.9185c-.2092-.6439-.6223-1.9159-1.761-2.3479-1.4663-.5564-3.0789.6812-3.8152,1.5653-.1145.1375-1.8303,2.2566-.8804,4.0109.927,1.7119,3.5413,1.5045,4.0107,1.4673.6211-.0493,1.2869-.1021,1.8586-.5869,1.4766-1.252.6377-3.9531.5872-4.1086Z"/>
      <path class="cls-7" d="M672.6336,439.4403c1.3472-1.196,2.1155-3.3542,1.3696-5.1848-.8413-2.0646-3.1472-2.5789-4.3042-2.8369-.8928-.1991-3.0066-.6705-4.8914.5869-1.7078,1.1394-2.9448,3.5094-2.25,5.1848.3953.9529,1.3433,1.5073,2.4456,2.1521.4756.2781,1.2717.736,2.3479.9783.8948.2014,3.4226.7708,5.2825-.8804Z"/>
      <path class="cls-7" d="M697.188,276.7554c-2.8013-.315-5.3003,1.6505-6.2607,3.913-1.4636,3.4476.4824,7.9684,3.5217,8.8044,2.8477.7832,5.6504-1.9443,6.0652-2.3478.6636-.6456,1.6692-1.6243,1.9565-3.1304.5488-2.8766-1.6843-6.8345-5.2827-7.2391Z"/>
      <path class="cls-7" d="M521.4923,528.9511c-4.9138-4.0439-11.4719-.7277-11.7391-.587-.4253.2239-5.8284,3.1836-6.0652,9-.0245.6018-.1346,5.0972,3.326,7.8262,3.1133,2.4551,6.8998,1.7328,8.8044,1.3695,1.6711-.3187,5.2775-1.0066,7.4347-4.1086,2.6439-3.8019,2.3416-10.1239-1.7609-13.5Z"/>
      <path class="cls-7" d="M495.0794,589.4077c1.9287-3.3695,1.6552-8.2618-1.5653-11.3479-3.396-3.2542-8.6951-3.1835-12.1304-.5869-3.1318,2.3673-4.0258,6.3134-3.5217,9.3912.1274.7784.5967,3.6442,2.9348,5.4783,3.8451,3.0164,11.3656,2.1614,14.2826-2.9347Z"/>
      <path class="cls-7" d="M446.2315,566.5163c-.538-3.2251-4.4569-4.4567-5.2174-4.6957-3.1429-.9878-6.7338-.1396-9,2.087-.6683.6566-2.5861,2.541-2.2173,4.9564.3577,2.3428,2.6207,3.576,3,3.7827,1.1539.6289,2.1692.6927,3.913.7826,2.5052.129,3.9539.2036,5.4783-.5217,2.0645-.9823,4.5172-3.5507,4.0435-6.3914Z"/>
      <path class="cls-7" d="M426.7968,605.8424c.9926-2.6525.1173-5.7839-1.7609-7.826-2.9788-3.2388-7.3263-2.4827-8.0219-2.3478-3.4481.6683-5.3199,3.1577-5.8695,3.913-.6638.9124-3.0625,4.2087-1.7609,7.2391,1.3138,3.0587,5.4175,3.5651,6.6522,3.7174,3.1877.3933,9.1091-.2816,10.7609-4.6957Z"/>
      <path class="cls-7" d="M337.188,589.6032c-2.3879-2.0337-6.5321-3.292-9.9783-1.3695-2.5059,1.3979-4.4786,4.3861-4.1086,7.4348.2778,2.2892,1.774,3.7682,2.7391,4.6956,3.0273,2.9089,9.2831,5.8915,12.7174,3.1305,3.4397-2.7653,2.8317-10.3134-1.3696-13.8914Z"/>
      <path class="cls-7" d="M386.688,606.2337c.0782-2.7889-3.1179-5.0345-5.8695-5.4783-3.1826-.5132-7.3228,1.1342-7.8262,4.1086-.5059,2.9893,2.8656,6.1117,6.2609,6.4565,3.4016.3456,7.3494-2.0437,7.4348-5.0869Z"/>
      <path class="cls-7" d="M267.9271,575.3206c-.9703-.4164-8.3848-3.4678-12.9131.9783-3.2959,3.236-2.9606,8.3798-1.7609,11.5435,2.2114,5.8314,8.3091,7.438,9.7827,7.8262,2.0275.5342,5.759,1.5172,9-.587,3.6003-2.3375,4.5005-7.125,3.913-10.5652-1.0602-6.2079-7.0959-8.7983-8.0217-9.1957Z"/>
      <path class="cls-7" d="M187.5794,565.4728c-2.1145-2.0558-5.9969-3.2107-9-1.174-2.6371,1.7886-3.8257,5.5159-2.4783,8.087,1.6689,3.1847,6.3265,2.874,8.3478,2.7391,1.7551-.1171,3.736-.2493,4.8262-1.6957,1.5912-2.1112.4307-5.8892-1.6957-7.9565Z"/>
    </g>
  </g>
</svg>